<svg width="575" height="291" viewBox="0 0 575 291" fill="none" xmlns="http://www.w3.org/2000/svg">
<rect x="75" y="71" width="123" height="123" fill="#EEEEEE" stroke="#CCCCCC" stroke-width="2" stroke-dasharray="6 4"/>
<path opacity="0.5" d="M34 70H159L239 195H114L34 70Z" fill="#1E73FF"/>
<path d="M252 133L242.025 127.183L241.975 138.73L252 133ZM19.9957 133L242.996 133.961L243.004 131.961L20.0043 131L19.9957 133Z" fill="#163875"/>
<path d="M136 248.002L141.773 238.002L130.226 238.002L136 248.002ZM135 16L135 239.002L137 239.002L137 16L135 16Z" fill="#E44D26"/>
<path d="M25.5 120.547L27.6328 116.625H30.3281L27.0156 122.266L30.4141 128H27.6875L25.5 124.016L23.3125 128H20.5859L23.9844 122.266L20.6719 116.625H23.3672L25.5 120.547Z" fill="#163875"/>
<path d="M144.992 21.75L147.359 16.625H149.922L146.188 23.875V28H143.805V23.875L140.07 16.625H142.641L144.992 21.75Z" fill="#E44D26"/>
<rect x="378" y="71" width="123" height="123" fill="#EEEEEE" stroke="#CCCCCC" stroke-width="2" stroke-dasharray="6 4"/>
<path opacity="0.5" d="M377 30L377 155L502 235L502 110L377 30Z" fill="#1E73FF"/>
<path d="M555 133L545.025 127.183L544.975 138.73L555 133ZM322.996 133L545.996 133.961L546.004 131.961L323.004 131L322.996 133Z" fill="#163875"/>
<path d="M439 248.002L444.773 238.002L433.226 238.002L439 248.002ZM438 16L438 239.002L440 239.002L440 16L438 16Z" fill="#E44D26"/>
<path d="M328.5 120.547L330.633 116.625H333.328L330.016 122.266L333.414 128H330.688L328.5 124.016L326.312 128H323.586L326.984 122.266L323.672 116.625H326.367L328.5 120.547Z" fill="#163875"/>
<path d="M447.992 21.75L450.359 16.625H452.922L449.188 23.875V28H446.805V23.875L443.07 16.625H445.641L447.992 21.75Z" fill="#E44D26"/>
<path d="M87.21 268.518C87.21 268.225 87.0633 267.995 86.77 267.829C86.4823 267.658 86.0174 267.505 85.3755 267.373C83.2394 266.924 82.1714 266.017 82.1714 264.65C82.1714 263.853 82.5007 263.189 83.1592 262.658C83.8232 262.121 84.6893 261.853 85.7573 261.853C86.8973 261.853 87.8076 262.121 88.4883 262.658C89.1745 263.194 89.5176 263.892 89.5176 264.75H87.1187C87.1187 264.406 87.008 264.124 86.7866 263.903C86.5653 263.676 86.2194 263.562 85.749 263.562C85.3451 263.562 85.0324 263.654 84.811 263.836C84.5897 264.019 84.479 264.251 84.479 264.534C84.479 264.799 84.6035 265.015 84.8525 265.181C85.1071 265.342 85.5332 265.483 86.1309 265.604C86.7285 265.721 87.2321 265.854 87.6416 266.003C88.9089 266.468 89.5425 267.273 89.5425 268.418C89.5425 269.237 89.1911 269.902 88.4883 270.411C87.7855 270.914 86.8779 271.166 85.7656 271.166C85.013 271.166 84.3434 271.033 83.7568 270.768C83.1758 270.496 82.7192 270.128 82.3872 269.664C82.0552 269.193 81.8892 268.687 81.8892 268.145H84.1636C84.1857 268.571 84.3434 268.897 84.6367 269.124C84.93 269.351 85.3229 269.464 85.8154 269.464C86.2747 269.464 86.6206 269.379 86.853 269.207C87.091 269.03 87.21 268.8 87.21 268.518ZM94.3569 267.397L93.4937 268.261V271H91.0947V258.25H93.4937V265.314L93.9585 264.716L96.2578 262.019H99.1382L95.8926 265.762L99.4204 271H96.6646L94.3569 267.397ZM104.144 271.166C102.826 271.166 101.753 270.762 100.923 269.954C100.098 269.146 99.686 268.07 99.686 266.725V266.493C99.686 265.591 99.8604 264.785 100.209 264.077C100.558 263.363 101.05 262.815 101.687 262.434C102.328 262.046 103.059 261.853 103.878 261.853C105.106 261.853 106.072 262.24 106.775 263.015C107.483 263.789 107.837 264.888 107.837 266.31V267.29H102.118C102.196 267.876 102.428 268.347 102.815 268.701C103.208 269.055 103.704 269.232 104.301 269.232C105.225 269.232 105.948 268.897 106.468 268.228L107.646 269.547C107.287 270.056 106.8 270.455 106.186 270.743C105.571 271.025 104.891 271.166 104.144 271.166ZM103.87 263.795C103.394 263.795 103.006 263.955 102.708 264.276C102.414 264.597 102.226 265.057 102.143 265.654H105.48V265.463C105.469 264.932 105.325 264.523 105.048 264.235C104.772 263.942 104.379 263.795 103.87 263.795ZM117.018 267.738L118.197 262.019H120.513L118.222 271H116.213L114.511 265.347L112.81 271H110.809L108.518 262.019H110.834L112.004 267.729L113.648 262.019H115.383L117.018 267.738ZM126.19 263.081L128.457 258.914H131.32L127.801 264.907L131.412 271H128.515L126.19 266.767L123.866 271H120.969L124.58 264.907L121.061 258.914H123.924L126.19 263.081ZM132.624 266.086C132.624 264.819 132.792 263.612 133.13 262.467C133.467 261.321 133.965 260.309 134.624 259.429C135.283 258.543 135.996 257.929 136.766 257.586L137.23 258.881C136.423 259.479 135.792 260.403 135.338 261.653C134.884 262.904 134.657 264.365 134.657 266.036V266.293C134.657 267.97 134.881 269.437 135.33 270.693C135.778 271.949 136.411 272.887 137.23 273.507L136.766 274.777C136.013 274.439 135.31 273.842 134.657 272.984C134.01 272.132 133.514 271.147 133.171 270.029C132.828 268.911 132.646 267.743 132.624 266.526V266.086ZM140.833 263.895H142.111C142.72 263.895 143.171 263.742 143.464 263.438C143.758 263.134 143.904 262.73 143.904 262.226C143.904 261.739 143.758 261.36 143.464 261.089C143.177 260.818 142.778 260.682 142.269 260.682C141.81 260.682 141.425 260.809 141.115 261.064C140.805 261.313 140.65 261.639 140.65 262.043H138.251C138.251 261.413 138.42 260.848 138.758 260.35C139.101 259.847 139.577 259.454 140.186 259.171C140.8 258.889 141.475 258.748 142.211 258.748C143.489 258.748 144.491 259.055 145.216 259.669C145.941 260.278 146.303 261.119 146.303 262.193C146.303 262.746 146.134 263.255 145.797 263.72C145.459 264.185 145.017 264.542 144.469 264.791C145.149 265.035 145.656 265.4 145.988 265.887C146.325 266.374 146.494 266.949 146.494 267.613C146.494 268.687 146.101 269.547 145.315 270.195C144.535 270.842 143.5 271.166 142.211 271.166C141.005 271.166 140.017 270.848 139.248 270.211C138.484 269.575 138.102 268.734 138.102 267.688H140.501C140.501 268.142 140.67 268.513 141.007 268.8C141.35 269.088 141.771 269.232 142.269 269.232C142.839 269.232 143.285 269.083 143.605 268.784C143.932 268.479 144.095 268.078 144.095 267.58C144.095 266.374 143.431 265.771 142.103 265.771H140.833V263.895ZM156.289 266.003C156.289 267.674 155.943 268.952 155.251 269.838C154.56 270.723 153.547 271.166 152.213 271.166C150.896 271.166 149.889 270.732 149.192 269.863C148.495 268.994 148.138 267.749 148.121 266.127V263.903C148.121 262.215 148.47 260.934 149.167 260.06C149.87 259.185 150.88 258.748 152.197 258.748C153.514 258.748 154.521 259.182 155.218 260.051C155.916 260.915 156.272 262.157 156.289 263.778V266.003ZM153.89 263.562C153.89 262.561 153.752 261.833 153.475 261.379C153.204 260.92 152.778 260.69 152.197 260.69C151.632 260.69 151.215 260.909 150.943 261.346C150.678 261.778 150.537 262.456 150.52 263.38V266.318C150.52 267.303 150.653 268.037 150.918 268.518C151.19 268.994 151.621 269.232 152.213 269.232C152.8 269.232 153.223 269.002 153.483 268.543C153.743 268.084 153.879 267.381 153.89 266.435V263.562ZM157.642 266.443C157.642 265.043 157.955 263.928 158.58 263.098C159.211 262.268 160.071 261.853 161.162 261.853C162.036 261.853 162.758 262.179 163.328 262.832V258.25H165.735V271H163.569L163.453 270.045C162.855 270.792 162.086 271.166 161.145 271.166C160.088 271.166 159.239 270.751 158.597 269.921C157.96 269.085 157.642 267.926 157.642 266.443ZM160.041 266.617C160.041 267.458 160.188 268.103 160.481 268.551C160.774 269 161.2 269.224 161.759 269.224C162.501 269.224 163.024 268.911 163.328 268.286V264.741C163.029 264.116 162.512 263.803 161.776 263.803C160.619 263.803 160.041 264.741 160.041 266.617ZM171.729 271.166C170.411 271.166 169.338 270.762 168.508 269.954C167.683 269.146 167.271 268.07 167.271 266.725V266.493C167.271 265.591 167.445 264.785 167.794 264.077C168.143 263.363 168.635 262.815 169.271 262.434C169.913 262.046 170.644 261.853 171.463 261.853C172.691 261.853 173.657 262.24 174.36 263.015C175.068 263.789 175.422 264.888 175.422 266.31V267.29H169.703C169.781 267.876 170.013 268.347 170.4 268.701C170.793 269.055 171.289 269.232 171.886 269.232C172.81 269.232 173.533 268.897 174.053 268.228L175.231 269.547C174.872 270.056 174.385 270.455 173.771 270.743C173.156 271.025 172.476 271.166 171.729 271.166ZM171.455 263.795C170.979 263.795 170.591 263.955 170.292 264.276C169.999 264.597 169.811 265.057 169.728 265.654H173.065V265.463C173.054 264.932 172.91 264.523 172.633 264.235C172.357 263.942 171.964 263.795 171.455 263.795ZM176.443 266.443C176.443 265.065 176.77 263.955 177.423 263.114C178.081 262.273 178.967 261.853 180.079 261.853C181.064 261.853 181.831 262.19 182.378 262.865L182.478 262.019H184.653V270.701C184.653 271.487 184.473 272.17 184.113 272.751C183.759 273.333 183.258 273.775 182.611 274.08C181.963 274.384 181.205 274.536 180.336 274.536C179.678 274.536 179.036 274.403 178.411 274.138C177.785 273.878 177.312 273.54 176.991 273.125L178.054 271.664C178.651 272.334 179.376 272.668 180.229 272.668C180.865 272.668 181.36 272.497 181.714 272.154C182.069 271.816 182.246 271.335 182.246 270.709V270.228C181.692 270.853 180.965 271.166 180.062 271.166C178.983 271.166 178.109 270.745 177.439 269.904C176.775 269.058 176.443 267.937 176.443 266.542V266.443ZM178.842 266.617C178.842 267.431 179.006 268.07 179.332 268.535C179.659 268.994 180.107 269.224 180.677 269.224C181.407 269.224 181.93 268.95 182.246 268.402V264.625C181.925 264.077 181.407 263.803 180.693 263.803C180.118 263.803 179.664 264.038 179.332 264.509C179.006 264.979 178.842 265.682 178.842 266.617ZM190.638 266.277C190.638 267.528 190.458 268.731 190.098 269.888C189.738 271.044 189.221 272.065 188.546 272.951C187.871 273.836 187.149 274.445 186.379 274.777L185.915 273.507C186.7 272.915 187.32 272.002 187.774 270.768C188.228 269.534 188.463 268.114 188.479 266.509V266.069C188.479 264.415 188.253 262.957 187.799 261.695C187.351 260.433 186.722 259.487 185.915 258.856L186.379 257.586C187.132 257.912 187.84 258.505 188.504 259.362C189.174 260.22 189.691 261.219 190.057 262.359C190.427 263.499 190.621 264.68 190.638 265.903V266.277Z" fill="#1E73FF"/>
<path d="M389.859 268.518C389.859 268.225 389.713 267.995 389.419 267.829C389.132 267.658 388.667 267.505 388.025 267.373C385.889 266.924 384.821 266.017 384.821 264.65C384.821 263.853 385.15 263.189 385.809 262.658C386.473 262.121 387.339 261.853 388.407 261.853C389.547 261.853 390.457 262.121 391.138 262.658C391.824 263.194 392.167 263.892 392.167 264.75H389.768C389.768 264.406 389.657 264.124 389.436 263.903C389.215 263.676 388.869 263.562 388.398 263.562C387.994 263.562 387.682 263.654 387.46 263.836C387.239 264.019 387.128 264.251 387.128 264.534C387.128 264.799 387.253 265.015 387.502 265.181C387.757 265.342 388.183 265.483 388.78 265.604C389.378 265.721 389.882 265.854 390.291 266.003C391.558 266.468 392.192 267.273 392.192 268.418C392.192 269.237 391.84 269.902 391.138 270.411C390.435 270.914 389.527 271.166 388.415 271.166C387.662 271.166 386.993 271.033 386.406 270.768C385.825 270.496 385.369 270.128 385.037 269.664C384.705 269.193 384.539 268.687 384.539 268.145H386.813C386.835 268.571 386.993 268.897 387.286 269.124C387.579 269.351 387.972 269.464 388.465 269.464C388.924 269.464 389.27 269.379 389.502 269.207C389.74 269.03 389.859 268.8 389.859 268.518ZM397.006 267.397L396.143 268.261V271H393.744V258.25H396.143V265.314L396.608 264.716L398.907 262.019H401.788L398.542 265.762L402.07 271H399.314L397.006 267.397ZM406.793 271.166C405.476 271.166 404.402 270.762 403.572 269.954C402.748 269.146 402.335 268.07 402.335 266.725V266.493C402.335 265.591 402.51 264.785 402.858 264.077C403.207 263.363 403.7 262.815 404.336 262.434C404.978 262.046 405.708 261.853 406.527 261.853C407.756 261.853 408.722 262.24 409.424 263.015C410.133 263.789 410.487 264.888 410.487 266.31V267.29H404.768C404.845 267.876 405.077 268.347 405.465 268.701C405.858 269.055 406.353 269.232 406.951 269.232C407.875 269.232 408.597 268.897 409.117 268.228L410.296 269.547C409.936 270.056 409.449 270.455 408.835 270.743C408.221 271.025 407.54 271.166 406.793 271.166ZM406.519 263.795C406.043 263.795 405.656 263.955 405.357 264.276C405.064 264.597 404.875 265.057 404.792 265.654H408.129V265.463C408.118 264.932 407.974 264.523 407.698 264.235C407.421 263.942 407.028 263.795 406.519 263.795ZM419.667 267.738L420.846 262.019H423.162L420.871 271H418.862L417.161 265.347L415.459 271H413.458L411.167 262.019H413.483L414.654 267.729L416.297 262.019H418.032L419.667 267.738ZM428.682 264.359L431.197 258.914H433.92L429.952 266.617V271H427.42V266.617L423.453 258.914H426.184L428.682 264.359ZM434.974 266.086C434.974 264.819 435.143 263.612 435.48 262.467C435.818 261.321 436.316 260.309 436.975 259.429C437.633 258.543 438.347 257.929 439.116 257.586L439.581 258.881C438.773 259.479 438.142 260.403 437.688 261.653C437.235 262.904 437.008 264.365 437.008 266.036V266.293C437.008 267.97 437.232 269.437 437.68 270.693C438.128 271.949 438.762 272.887 439.581 273.507L439.116 274.777C438.364 274.439 437.661 273.842 437.008 272.984C436.36 272.132 435.865 271.147 435.522 270.029C435.179 268.911 434.996 267.743 434.974 266.526V266.086ZM443.184 263.895H444.462C445.071 263.895 445.522 263.742 445.815 263.438C446.108 263.134 446.255 262.73 446.255 262.226C446.255 261.739 446.108 261.36 445.815 261.089C445.527 260.818 445.129 260.682 444.62 260.682C444.16 260.682 443.776 260.809 443.466 261.064C443.156 261.313 443.001 261.639 443.001 262.043H440.602C440.602 261.413 440.771 260.848 441.108 260.35C441.451 259.847 441.927 259.454 442.536 259.171C443.15 258.889 443.826 258.748 444.562 258.748C445.84 258.748 446.841 259.055 447.566 259.669C448.291 260.278 448.654 261.119 448.654 262.193C448.654 262.746 448.485 263.255 448.147 263.72C447.81 264.185 447.367 264.542 446.819 264.791C447.5 265.035 448.006 265.4 448.338 265.887C448.676 266.374 448.845 266.949 448.845 267.613C448.845 268.687 448.452 269.547 447.666 270.195C446.886 270.842 445.851 271.166 444.562 271.166C443.355 271.166 442.367 270.848 441.598 270.211C440.834 269.575 440.453 268.734 440.453 267.688H442.852C442.852 268.142 443.02 268.513 443.358 268.8C443.701 269.088 444.122 269.232 444.62 269.232C445.19 269.232 445.635 269.083 445.956 268.784C446.283 268.479 446.446 268.078 446.446 267.58C446.446 266.374 445.782 265.771 444.454 265.771H443.184V263.895ZM458.64 266.003C458.64 267.674 458.294 268.952 457.602 269.838C456.91 270.723 455.898 271.166 454.564 271.166C453.247 271.166 452.24 270.732 451.542 269.863C450.845 268.994 450.488 267.749 450.472 266.127V263.903C450.472 262.215 450.82 260.934 451.518 260.06C452.22 259.185 453.23 258.748 454.547 258.748C455.864 258.748 456.872 259.182 457.569 260.051C458.266 260.915 458.623 262.157 458.64 263.778V266.003ZM456.241 263.562C456.241 262.561 456.102 261.833 455.826 261.379C455.555 260.92 455.128 260.69 454.547 260.69C453.983 260.69 453.565 260.909 453.294 261.346C453.028 261.778 452.887 262.456 452.871 263.38V266.318C452.871 267.303 453.003 268.037 453.269 268.518C453.54 268.994 453.972 269.232 454.564 269.232C455.151 269.232 455.574 269.002 455.834 268.543C456.094 268.084 456.23 267.381 456.241 266.435V263.562ZM459.993 266.443C459.993 265.043 460.305 263.928 460.931 263.098C461.562 262.268 462.422 261.853 463.512 261.853C464.387 261.853 465.109 262.179 465.679 262.832V258.25H468.086V271H465.919L465.803 270.045C465.206 270.792 464.436 271.166 463.496 271.166C462.439 271.166 461.589 270.751 460.947 269.921C460.311 269.085 459.993 267.926 459.993 266.443ZM462.392 266.617C462.392 267.458 462.538 268.103 462.832 268.551C463.125 269 463.551 269.224 464.11 269.224C464.851 269.224 465.374 268.911 465.679 268.286V264.741C465.38 264.116 464.862 263.803 464.126 263.803C462.97 263.803 462.392 264.741 462.392 266.617ZM474.079 271.166C472.762 271.166 471.688 270.762 470.858 269.954C470.034 269.146 469.622 268.07 469.622 266.725V266.493C469.622 265.591 469.796 264.785 470.145 264.077C470.493 263.363 470.986 262.815 471.622 262.434C472.264 262.046 472.994 261.853 473.813 261.853C475.042 261.853 476.008 262.24 476.71 263.015C477.419 263.789 477.773 264.888 477.773 266.31V267.29H472.054C472.131 267.876 472.364 268.347 472.751 268.701C473.144 269.055 473.639 269.232 474.237 269.232C475.161 269.232 475.883 268.897 476.403 268.228L477.582 269.547C477.222 270.056 476.735 270.455 476.121 270.743C475.507 271.025 474.826 271.166 474.079 271.166ZM473.805 263.795C473.329 263.795 472.942 263.955 472.643 264.276C472.35 264.597 472.162 265.057 472.079 265.654H475.416V265.463C475.404 264.932 475.261 264.523 474.984 264.235C474.707 263.942 474.314 263.795 473.805 263.795ZM478.794 266.443C478.794 265.065 479.12 263.955 479.773 263.114C480.432 262.273 481.317 261.853 482.43 261.853C483.415 261.853 484.181 262.19 484.729 262.865L484.829 262.019H487.003V270.701C487.003 271.487 486.824 272.17 486.464 272.751C486.11 273.333 485.609 273.775 484.961 274.08C484.314 274.384 483.556 274.536 482.687 274.536C482.028 274.536 481.387 274.403 480.761 274.138C480.136 273.878 479.663 273.54 479.342 273.125L480.404 271.664C481.002 272.334 481.727 272.668 482.579 272.668C483.215 272.668 483.711 272.497 484.065 272.154C484.419 271.816 484.596 271.335 484.596 270.709V270.228C484.043 270.853 483.315 271.166 482.413 271.166C481.334 271.166 480.46 270.745 479.79 269.904C479.126 269.058 478.794 267.937 478.794 266.542V266.443ZM481.193 266.617C481.193 267.431 481.356 268.07 481.683 268.535C482.009 268.994 482.457 269.224 483.027 269.224C483.758 269.224 484.281 268.95 484.596 268.402V264.625C484.275 264.077 483.758 263.803 483.044 263.803C482.468 263.803 482.015 264.038 481.683 264.509C481.356 264.979 481.193 265.682 481.193 266.617ZM492.988 266.277C492.988 267.528 492.808 268.731 492.449 269.888C492.089 271.044 491.572 272.065 490.896 272.951C490.221 273.836 489.499 274.445 488.73 274.777L488.265 273.507C489.051 272.915 489.671 272.002 490.125 270.768C490.578 269.534 490.813 268.114 490.83 266.509V266.069C490.83 264.415 490.603 262.957 490.149 261.695C489.701 260.433 489.073 259.487 488.265 258.856L488.73 257.586C489.483 257.912 490.191 258.505 490.855 259.362C491.525 260.22 492.042 261.219 492.407 262.359C492.778 263.499 492.972 264.68 492.988 265.903V266.277Z" fill="#1E73FF"/>
</svg>
