<svg width="200" height="291" viewBox="0 0 200 291" fill="none" xmlns="http://www.w3.org/2000/svg">
<rect x="1" y="33" width="198" height="198" fill="#EEEEEE" stroke="#CCCCCC" stroke-width="2" stroke-dasharray="6 4"/>
<path opacity="0.5" d="M46 8L154 56V208L46 256V8Z" fill="#1E73FF"/>
<path d="M100 0V267" stroke="#E44D26" stroke-width="2" stroke-dasharray="4 2"/>
<path d="M120.5 266.628L129.994 273.2L130.939 261.692L120.5 266.628ZM162 278C162 278.449 161.767 279.013 161.046 279.689C160.325 280.365 159.207 281.065 157.675 281.76C154.617 283.148 150.129 284.423 144.506 285.503C133.274 287.66 117.715 289 100.5 289V291C117.802 291 133.493 289.654 144.883 287.467C150.569 286.376 155.234 285.065 158.502 283.582C160.132 282.841 161.47 282.034 162.414 281.148C163.359 280.262 164 279.208 164 278H162ZM100.5 289C83.2845 289 67.7257 287.66 56.4944 285.503C50.8705 284.423 46.3828 283.148 43.3249 281.76C41.7929 281.065 40.6746 280.365 39.954 279.689C39.233 279.013 39 278.449 39 278H37C37 279.208 37.6414 280.262 38.5855 281.148C39.5301 282.034 40.8676 282.841 42.4982 283.582C45.7657 285.065 50.4309 286.376 56.1173 287.467C67.5065 289.654 83.1977 291 100.5 291V289ZM39 278C39 277.551 39.233 276.987 39.954 276.311C40.6746 275.635 41.7929 274.935 43.3249 274.24C46.3828 272.852 50.8705 271.577 56.4944 270.497C67.7257 268.34 83.2845 267 100.5 267V265C83.1977 265 67.5065 266.346 56.1173 268.533C50.4309 269.624 45.7657 270.935 42.4982 272.418C40.8676 273.159 39.5301 273.966 38.5855 274.852C37.6414 275.738 37 276.792 37 278H39ZM129.37 268.359C139.304 269.359 147.612 270.854 153.413 272.657C156.32 273.56 158.538 274.523 160.009 275.503C161.524 276.512 162 277.368 162 278H164C164 276.322 162.776 274.944 161.118 273.839C159.417 272.705 156.99 271.674 154.006 270.747C148.025 268.888 139.568 267.375 129.571 266.369L129.37 268.359Z" fill="#E44D26"/>
</svg>
