<svg width="592" height="348" viewBox="0 0 592 348" fill="none" xmlns="http://www.w3.org/2000/svg">
<path d="M11 10H131V159H11V10Z" fill="white"/>
<rect x="21" y="20" width="100" height="80" fill="#8497FD"/>
<path d="M63.4167 56.2083C63.4167 55.3113 64.1447 54.5833 65.0417 54.5833C65.9387 54.5833 66.6667 55.3113 66.6667 56.2083C66.6667 57.1064 65.9387 57.8333 65.0417 57.8333C64.1447 57.8333 63.4167 57.1064 63.4167 56.2083ZM73.1667 56.75L70.4378 61.0833L67.75 58.96L63.4167 65.4167H78.5833L73.1667 56.75ZM81.8333 52.4167V67.5833H60.1667V52.4167H81.8333ZM84 50.25H58V69.75H84V50.25Z" fill="white"/>
<rect x="53" y="110" width="68" height="8" fill="#DDDDDD"/>
<rect x="53" y="126" width="37" height="8" fill="#DDDDDD"/>
<circle cx="33.0179" cy="122.018" r="12.0179" fill="#DDDDDD"/>
<path d="M11 10V9H10V10H11ZM131 10H132V9H131V10ZM131 159V160H132V159H131ZM11 159H10V160H11V159ZM11 11H131V9H11V11ZM130 10V159H132V10H130ZM131 158H11V160H131V158ZM12 159V10H10V159H12Z" fill="#CCCCCC"/>
<path d="M161 10H281V159H161V10Z" fill="white"/>
<rect x="171" y="20" width="100" height="80" fill="#8497FD"/>
<path d="M213.417 56.2083C213.417 55.3113 214.145 54.5833 215.042 54.5833C215.939 54.5833 216.667 55.3113 216.667 56.2083C216.667 57.1064 215.939 57.8333 215.042 57.8333C214.145 57.8333 213.417 57.1064 213.417 56.2083ZM223.167 56.75L220.438 61.0833L217.75 58.96L213.417 65.4167H228.583L223.167 56.75ZM231.833 52.4167V67.5833H210.167V52.4167H231.833ZM234 50.25H208V69.75H234V50.25Z" fill="white"/>
<rect x="203" y="110" width="68" height="8" fill="#DDDDDD"/>
<rect x="203" y="126" width="37" height="8" fill="#DDDDDD"/>
<circle cx="183.018" cy="122.018" r="12.0179" fill="#DDDDDD"/>
<path d="M161 10V9H160V10H161ZM281 10H282V9H281V10ZM281 159V160H282V159H281ZM161 159H160V160H161V159ZM161 11H281V9H161V11ZM280 10V159H282V10H280ZM281 158H161V160H281V158ZM162 159V10H160V159H162Z" fill="#CCCCCC"/>
<path d="M311 10H431V159H311V10Z" fill="white"/>
<rect x="321" y="20" width="100" height="80" fill="#8497FD"/>
<path d="M363.417 56.2083C363.417 55.3113 364.145 54.5833 365.042 54.5833C365.939 54.5833 366.667 55.3113 366.667 56.2083C366.667 57.1064 365.939 57.8333 365.042 57.8333C364.145 57.8333 363.417 57.1064 363.417 56.2083ZM373.167 56.75L370.438 61.0833L367.75 58.96L363.417 65.4167H378.583L373.167 56.75ZM381.833 52.4167V67.5833H360.167V52.4167H381.833ZM384 50.25H358V69.75H384V50.25Z" fill="white"/>
<rect x="353" y="110" width="68" height="8" fill="#DDDDDD"/>
<rect x="353" y="126" width="37" height="8" fill="#DDDDDD"/>
<circle cx="333.018" cy="122.018" r="12.0179" fill="#DDDDDD"/>
<path d="M311 10V9H310V10H311ZM431 10H432V9H431V10ZM431 159V160H432V159H431ZM311 159H310V160H311V159ZM311 11H431V9H311V11ZM430 10V159H432V10H430ZM431 158H311V160H431V158ZM312 159V10H310V159H312Z" fill="#CCCCCC"/>
<path d="M461 10H581V159H461V10Z" fill="white"/>
<rect x="471" y="20" width="100" height="80" fill="#8497FD"/>
<path d="M513.417 56.2083C513.417 55.3113 514.145 54.5833 515.042 54.5833C515.939 54.5833 516.667 55.3113 516.667 56.2083C516.667 57.1064 515.939 57.8333 515.042 57.8333C514.145 57.8333 513.417 57.1064 513.417 56.2083ZM523.167 56.75L520.438 61.0833L517.75 58.96L513.417 65.4167H528.583L523.167 56.75ZM531.833 52.4167V67.5833H510.167V52.4167H531.833ZM534 50.25H508V69.75H534V50.25Z" fill="white"/>
<rect x="503" y="110" width="68" height="8" fill="#DDDDDD"/>
<rect x="503" y="126" width="37" height="8" fill="#DDDDDD"/>
<circle cx="483.018" cy="122.018" r="12.0179" fill="#DDDDDD"/>
<path d="M461 10V9H460V10H461ZM581 10H582V9H581V10ZM581 159V160H582V159H581ZM461 159H460V160H461V159ZM461 11H581V9H461V11ZM580 10V159H582V10H580ZM581 158H461V160H581V158ZM462 159V10H460V159H462Z" fill="#CCCCCC"/>
<path d="M11 189H131V338H11V189Z" fill="white"/>
<rect x="21" y="199" width="100" height="80" fill="#8497FD"/>
<path d="M63.4167 235.208C63.4167 234.311 64.1447 233.583 65.0417 233.583C65.9387 233.583 66.6667 234.311 66.6667 235.208C66.6667 236.106 65.9387 236.833 65.0417 236.833C64.1447 236.833 63.4167 236.106 63.4167 235.208ZM73.1667 235.75L70.4378 240.083L67.75 237.96L63.4167 244.417H78.5833L73.1667 235.75ZM81.8333 231.417V246.583H60.1667V231.417H81.8333ZM84 229.25H58V248.75H84V229.25Z" fill="white"/>
<rect x="53" y="289" width="68" height="8" fill="#DDDDDD"/>
<rect x="53" y="305" width="37" height="8" fill="#DDDDDD"/>
<circle cx="33.0179" cy="301.018" r="12.0179" fill="#DDDDDD"/>
<path d="M11 189V188H10V189H11ZM131 189H132V188H131V189ZM131 338V339H132V338H131ZM11 338H10V339H11V338ZM11 190H131V188H11V190ZM130 189V338H132V189H130ZM131 337H11V339H131V337ZM12 338V189H10V338H12Z" fill="#CCCCCC"/>
<path d="M161 189H281V338H161V189Z" fill="white"/>
<rect x="171" y="199" width="100" height="80" fill="#8497FD"/>
<path d="M213.417 235.208C213.417 234.311 214.145 233.583 215.042 233.583C215.939 233.583 216.667 234.311 216.667 235.208C216.667 236.106 215.939 236.833 215.042 236.833C214.145 236.833 213.417 236.106 213.417 235.208ZM223.167 235.75L220.438 240.083L217.75 237.96L213.417 244.417H228.583L223.167 235.75ZM231.833 231.417V246.583H210.167V231.417H231.833ZM234 229.25H208V248.75H234V229.25Z" fill="white"/>
<rect x="203" y="289" width="68" height="8" fill="#DDDDDD"/>
<rect x="203" y="305" width="37" height="8" fill="#DDDDDD"/>
<circle cx="183.018" cy="301.018" r="12.0179" fill="#DDDDDD"/>
<path d="M161 189V188H160V189H161ZM281 189H282V188H281V189ZM281 338V339H282V338H281ZM161 338H160V339H161V338ZM161 190H281V188H161V190ZM280 189V338H282V189H280ZM281 337H161V339H281V337ZM162 338V189H160V338H162Z" fill="#CCCCCC"/>
<path d="M311 189H431V338H311V189Z" fill="white"/>
<path d="M311 189V188.5H310.5V189H311ZM431 189H431.5V188.5H431V189ZM431 338V338.5H431.5V338H431ZM311 338H310.5V338.5H311V338ZM310.5 189V190.987H311.5V189H310.5ZM310.5 192.973V196.947H311.5V192.973H310.5ZM310.5 198.933V202.907H311.5V198.933H310.5ZM310.5 204.893V208.867H311.5V204.893H310.5ZM310.5 210.853V214.827H311.5V210.853H310.5ZM310.5 216.813V220.787H311.5V216.813H310.5ZM310.5 222.773V226.747H311.5V222.773H310.5ZM310.5 228.733V232.707H311.5V228.733H310.5ZM310.5 234.693V238.667H311.5V234.693H310.5ZM310.5 240.653V244.627H311.5V240.653H310.5ZM310.5 246.613V250.587H311.5V246.613H310.5ZM310.5 252.573V256.547H311.5V252.573H310.5ZM310.5 258.533V262.507H311.5V258.533H310.5ZM310.5 264.493V268.467H311.5V264.493H310.5ZM310.5 270.453V274.427H311.5V270.453H310.5ZM310.5 276.413V280.387H311.5V276.413H310.5ZM310.5 282.373V286.347H311.5V282.373H310.5ZM310.5 288.333V292.307H311.5V288.333H310.5ZM310.5 294.293V298.267H311.5V294.293H310.5ZM310.5 300.253V304.227H311.5V300.253H310.5ZM310.5 306.213V310.187H311.5V306.213H310.5ZM310.5 312.173V316.147H311.5V312.173H310.5ZM310.5 318.133V322.107H311.5V318.133H310.5ZM310.5 324.093V328.067H311.5V324.093H310.5ZM310.5 330.053V334.027H311.5V330.053H310.5ZM310.5 336.013V338H311.5V336.013H310.5ZM311 338.5H313V337.5H311V338.5ZM315 338.5H319V337.5H315V338.5ZM321 338.5H325V337.5H321V338.5ZM327 338.5H331V337.5H327V338.5ZM333 338.5H337V337.5H333V338.5ZM339 338.5H343V337.5H339V338.5ZM345 338.5H349V337.5H345V338.5ZM351 338.5H355V337.5H351V338.5ZM357 338.5H361V337.5H357V338.5ZM363 338.5H367V337.5H363V338.5ZM369 338.5H373V337.5H369V338.5ZM375 338.5H379V337.5H375V338.5ZM381 338.5H385V337.5H381V338.5ZM387 338.5H391V337.5H387V338.5ZM393 338.5H397V337.5H393V338.5ZM399 338.5H403V337.5H399V338.5ZM405 338.5H409V337.5H405V338.5ZM411 338.5H415V337.5H411V338.5ZM417 338.5H421V337.5H417V338.5ZM423 338.5H427V337.5H423V338.5ZM429 338.5H431V337.5H429V338.5ZM431.5 338V336.013H430.5V338H431.5ZM431.5 334.027V330.053H430.5V334.027H431.5ZM431.5 328.067V324.093H430.5V328.067H431.5ZM431.5 322.107V318.133H430.5V322.107H431.5ZM431.5 316.147V312.173H430.5V316.147H431.5ZM431.5 310.187V306.213H430.5V310.187H431.5ZM431.5 304.227V300.253H430.5V304.227H431.5ZM431.5 298.267V294.293H430.5V298.267H431.5ZM431.5 292.307V288.333H430.5V292.307H431.5ZM431.5 286.347V282.373H430.5V286.347H431.5ZM431.5 280.387V276.413H430.5V280.387H431.5ZM431.5 274.427V270.453H430.5V274.427H431.5ZM431.5 268.467V264.493H430.5V268.467H431.5ZM431.5 262.507V258.533H430.5V262.507H431.5ZM431.5 256.547V252.573H430.5V256.547H431.5ZM431.5 250.587V246.613H430.5V250.587H431.5ZM431.5 244.627V240.653H430.5V244.627H431.5ZM431.5 238.667V234.693H430.5V238.667H431.5ZM431.5 232.707V228.733H430.5V232.707H431.5ZM431.5 226.747V222.773H430.5V226.747H431.5ZM431.5 220.787V216.813H430.5V220.787H431.5ZM431.5 214.827V210.853H430.5V214.827H431.5ZM431.5 208.867V204.893H430.5V208.867H431.5ZM431.5 202.907V198.933H430.5V202.907H431.5ZM431.5 196.947V192.973H430.5V196.947H431.5ZM431.5 190.987V189H430.5V190.987H431.5ZM431 188.5H429V189.5H431V188.5ZM427 188.5H423V189.5H427V188.5ZM421 188.5H417V189.5H421V188.5ZM415 188.5H411V189.5H415V188.5ZM409 188.5H405V189.5H409V188.5ZM403 188.5H399V189.5H403V188.5ZM397 188.5H393V189.5H397V188.5ZM391 188.5H387V189.5H391V188.5ZM385 188.5H381V189.5H385V188.5ZM379 188.5H375V189.5H379V188.5ZM373 188.5H369V189.5H373V188.5ZM367 188.5H363V189.5H367V188.5ZM361 188.5H357V189.5H361V188.5ZM355 188.5H351V189.5H355V188.5ZM349 188.5H345V189.5H349V188.5ZM343 188.5H339V189.5H343V188.5ZM337 188.5H333V189.5H337V188.5ZM331 188.5H327V189.5H331V188.5ZM325 188.5H321V189.5H325V188.5ZM319 188.5H315V189.5H319V188.5ZM313 188.5H311V189.5H313V188.5ZM311 189V188H310V189H311ZM431 189H432V188H431V189ZM431 338V339H432V338H431ZM311 338H310V339H311V338ZM310 189V190.987H312V189H310ZM310 192.973V196.947H312V192.973H310ZM310 198.933V202.907H312V198.933H310ZM310 204.893V208.867H312V204.893H310ZM310 210.853V214.827H312V210.853H310ZM310 216.813V220.787H312V216.813H310ZM310 222.773V226.747H312V222.773H310ZM310 228.733V232.707H312V228.733H310ZM310 234.693V238.667H312V234.693H310ZM310 240.653V244.627H312V240.653H310ZM310 246.613V250.587H312V246.613H310ZM310 252.573V256.547H312V252.573H310ZM310 258.533V262.507H312V258.533H310ZM310 264.493V268.467H312V264.493H310ZM310 270.453V274.427H312V270.453H310ZM310 276.413V280.387H312V276.413H310ZM310 282.373V286.347H312V282.373H310ZM310 288.333V292.307H312V288.333H310ZM310 294.293V298.267H312V294.293H310ZM310 300.253V304.227H312V300.253H310ZM310 306.213V310.187H312V306.213H310ZM310 312.173V316.147H312V312.173H310ZM310 318.133V322.107H312V318.133H310ZM310 324.093V328.067H312V324.093H310ZM310 330.053V334.027H312V330.053H310ZM310 336.013V338H312V336.013H310ZM311 339H313V337H311V339ZM315 339H319V337H315V339ZM321 339H325V337H321V339ZM327 339H331V337H327V339ZM333 339H337V337H333V339ZM339 339H343V337H339V339ZM345 339H349V337H345V339ZM351 339H355V337H351V339ZM357 339H361V337H357V339ZM363 339H367V337H363V339ZM369 339H373V337H369V339ZM375 339H379V337H375V339ZM381 339H385V337H381V339ZM387 339H391V337H387V339ZM393 339H397V337H393V339ZM399 339H403V337H399V339ZM405 339H409V337H405V339ZM411 339H415V337H411V339ZM417 339H421V337H417V339ZM423 339H427V337H423V339ZM429 339H431V337H429V339ZM432 338V336.013H430V338H432ZM432 334.027V330.053H430V334.027H432ZM432 328.067V324.093H430V328.067H432ZM432 322.107V318.133H430V322.107H432ZM432 316.147V312.173H430V316.147H432ZM432 310.187V306.213H430V310.187H432ZM432 304.227V300.253H430V304.227H432ZM432 298.267V294.293H430V298.267H432ZM432 292.307V288.333H430V292.307H432ZM432 286.347V282.373H430V286.347H432ZM432 280.387V276.413H430V280.387H432ZM432 274.427V270.453H430V274.427H432ZM432 268.467V264.493H430V268.467H432ZM432 262.507V258.533H430V262.507H432ZM432 256.547V252.573H430V256.547H432ZM432 250.587V246.613H430V250.587H432ZM432 244.627V240.653H430V244.627H432ZM432 238.667V234.693H430V238.667H432ZM432 232.707V228.733H430V232.707H432ZM432 226.747V222.773H430V226.747H432ZM432 220.787V216.813H430V220.787H432ZM432 214.827V210.853H430V214.827H432ZM432 208.867V204.893H430V208.867H432ZM432 202.907V198.933H430V202.907H432ZM432 196.947V192.973H430V196.947H432ZM432 190.987V189H430V190.987H432ZM431 188H429V190H431V188ZM427 188H423V190H427V188ZM421 188H417V190H421V188ZM415 188H411V190H415V188ZM409 188H405V190H409V188ZM403 188H399V190H403V188ZM397 188H393V190H397V188ZM391 188H387V190H391V188ZM385 188H381V190H385V188ZM379 188H375V190H379V188ZM373 188H369V190H373V188ZM367 188H363V190H367V188ZM361 188H357V190H361V188ZM355 188H351V190H355V188ZM349 188H345V190H349V188ZM343 188H339V190H343V188ZM337 188H333V190H337V188ZM331 188H327V190H331V188ZM325 188H321V190H325V188ZM319 188H315V190H319V188ZM313 188H311V190H313V188Z" fill="#E44D26"/>
<path d="M461 189H581V338H461V189Z" fill="white"/>
<rect x="471" y="199" width="100" height="80" fill="#8497FD"/>
<path d="M513.417 235.208C513.417 234.311 514.145 233.583 515.042 233.583C515.939 233.583 516.667 234.311 516.667 235.208C516.667 236.106 515.939 236.833 515.042 236.833C514.145 236.833 513.417 236.106 513.417 235.208ZM523.167 235.75L520.438 240.083L517.75 237.96L513.417 244.417H528.583L523.167 235.75ZM531.833 231.417V246.583H510.167V231.417H531.833ZM534 229.25H508V248.75H534V229.25Z" fill="white"/>
<rect x="503" y="289" width="68" height="8" fill="#DDDDDD"/>
<rect x="503" y="305" width="37" height="8" fill="#DDDDDD"/>
<circle cx="483.018" cy="301.018" r="12.0179" fill="#DDDDDD"/>
<path d="M461 189V188H460V189H461ZM581 189H582V188H581V189ZM581 338V339H582V338H581ZM461 338H460V339H461V338ZM461 190H581V188H461V190ZM580 189V338H582V189H580ZM581 337H461V339H581V337ZM462 338V189H460V338H462Z" fill="#CCCCCC"/>
<path d="M100 83H220V232H100V83Z" fill="white"/>
<rect x="110" y="93" width="100" height="80" fill="#8497FD"/>
<path d="M152.417 129.208C152.417 128.311 153.145 127.583 154.042 127.583C154.939 127.583 155.667 128.311 155.667 129.208C155.667 130.106 154.939 130.833 154.042 130.833C153.145 130.833 152.417 130.106 152.417 129.208ZM162.167 129.75L159.438 134.083L156.75 131.96L152.417 138.417H167.583L162.167 129.75ZM170.833 125.417V140.583H149.167V125.417H170.833ZM173 123.25H147V142.75H173V123.25Z" fill="white"/>
<rect x="142" y="183" width="68" height="8" fill="#DDDDDD"/>
<rect x="142" y="199" width="37" height="8" fill="#DDDDDD"/>
<circle cx="122.018" cy="195.018" r="12.0179" fill="#DDDDDD"/>
<path d="M100 83V82H99V83H100ZM220 83H221V82H220V83ZM220 232V233H221V232H220ZM100 232H99V233H100V232ZM100 84H220V82H100V84ZM219 83V232H221V83H219ZM220 231H100V233H220V231ZM101 232V83H99V232H101Z" fill="#E44D26"/>
</svg>
