<svg width="336" height="320" viewBox="0 0 336 320" fill="none" xmlns="http://www.w3.org/2000/svg">
<path d="M300.617 204.222H305.256V206.932H300.617V212.218H297.736V206.932H293.073V204.222H297.736V199.278H300.617V204.222ZM312.446 205.138L314.96 200.792H318.256L314.216 207.298L318.391 214H315.119L312.482 209.483L309.858 214H306.562L310.737 207.298L306.708 200.792H309.98L312.446 205.138Z" fill="#00986B"/>
<path fill-rule="evenodd" clip-rule="evenodd" d="M174.168 164.8C173.641 163.888 173.954 162.722 174.866 162.195L273.383 105.271L265.685 103.589L292.687 96.373L290.791 109.945L278.786 106.86L176.773 165.498C175.861 166.024 174.695 165.712 174.168 164.8Z" fill="#1E73FF"/>
<path opacity="0.7" d="M90 63L253 106.158V268L90 224.842V63Z" fill="#DDDDDD"/>
<g clip-path="url(#clip0)">
<path fill-rule="evenodd" clip-rule="evenodd" d="M275.205 184.51L290.67 200.051L269.506 205.777L271.862 196.985L68.9818 142.889L68.97 151.259L50.5055 135.699L69 130L68.9876 138.759L272.849 193.302L275.205 184.51Z" fill="#00986B"/>
</g>
<g clip-path="url(#clip1)">
<path fill-rule="evenodd" clip-rule="evenodd" d="M158.898 55.1357L169.907 36.0679L180.916 55.1357H172V268.328L180.916 270.792L169.907 286.492L158.898 264.881L168 267.3V55.1357H158.898Z" fill="#B72DF8"/>
</g>
<ellipse cx="169.907" cy="165.729" rx="16.5254" ry="16.5254" fill="white"/>
<path fill-rule="evenodd" clip-rule="evenodd" d="M158.898 52.2118L169.907 36.0677L180.916 58.1228L172 55.7016V150.475C172 151.528 170.96 152.381 169.907 152.381C168.854 152.381 168 151.528 168 150.475V54.6688L158.898 52.2118Z" fill="#B72DF8"/>
<path fill-rule="evenodd" clip-rule="evenodd" d="M272 184.102L290.67 200.051L272 206.983L272 197.131L180.854 172.6C179.837 172.327 179.233 171.282 179.506 170.265C179.778 169.247 180.824 168.644 181.841 168.916L272 193L272 184.102Z" fill="#00986B"/>
<path fill-rule="evenodd" clip-rule="evenodd" d="M161.707 171.666C162.233 172.578 161.921 173.744 161.009 174.271L62.4916 231.195L72.0255 233.737L43.1877 240.093L50.7332 228.017L57.0891 229.606L159.102 170.968C160.014 170.442 161.18 170.754 161.707 171.666Z" fill="#1E73FF"/>
<path d="M164.583 15.6401H158.174V13.2476H164.583V15.6401ZM171.65 17.752L174.336 8.79199H177.498L172.249 24.002C171.443 26.2236 170.076 27.3345 168.147 27.3345C167.716 27.3345 167.24 27.2612 166.719 27.1147V24.8198L167.28 24.8564C168.029 24.8564 168.59 24.7181 168.965 24.4414C169.347 24.1729 169.648 23.7171 169.868 23.0742L170.295 21.939L165.657 8.79199H168.855L171.65 17.752Z" fill="#B72DF8"/>
<path d="M301.387 91.6401H294.979V89.2476H301.387V91.6401ZM307.002 95.6318H314.034V98H303.316V96.0591L310.018 87.1846H303.438V84.792H313.777V86.6719L307.002 95.6318Z" fill="#1E73FF"/>
<path d="M162.812 296.222H167.451V298.932H162.812V304.218H159.932V298.932H155.269V296.222H159.932V291.278H162.812V296.222ZM174.519 301.752L177.205 292.792H180.366L175.117 308.002C174.312 310.224 172.944 311.334 171.016 311.334C170.584 311.334 170.108 311.261 169.587 311.115V308.82L170.149 308.856C170.898 308.856 171.459 308.718 171.833 308.441C172.216 308.173 172.517 307.717 172.737 307.074L173.164 305.939L168.525 292.792H171.724L174.519 301.752Z" fill="#B72DF8"/>
<path d="M25.6172 247.222H30.2559V249.932H25.6172V255.218H22.7363V249.932H18.0732V247.222H22.7363V242.278H25.6172V247.222ZM35.8711 254.632H42.9023V257H32.1846V255.059L38.8862 246.185H32.3066V243.792H42.646V245.672L35.8711 254.632Z" fill="#1E73FF"/>
<path d="M33.3872 132.64H26.9785V130.248H33.3872V132.64ZM40.5771 130.138L43.0918 125.792H46.3877L42.3472 132.298L46.522 139H43.2505L40.6138 134.483L37.9893 139H34.6934L38.8682 132.298L34.8398 125.792H38.1113L40.5771 130.138Z" fill="#00986B"/>
<defs>
<clipPath id="clip0">
<rect width="120.763" height="49.5763" fill="white" transform="translate(49.144 125.051)"/>
</clipPath>
<clipPath id="clip1">
<rect width="24.1525" height="122.034" fill="white" transform="translate(157.831 164.458)"/>
</clipPath>
</defs>
</svg>
