<svg width="472" height="454" viewBox="0 0 472 454" fill="none" xmlns="http://www.w3.org/2000/svg">
<g clip-path="url(#clip0)">
<path d="M433 119L398.36 118.727L415.444 148.863L433 119ZM39.6283 342L74.2682 342.273L57.1846 312.137L39.6283 342ZM408.032 129.706L61.6371 326.075L64.5961 331.294L410.991 134.925L408.032 129.706Z" fill="#1E73FF"/>
</g>
<circle cx="239" cy="227" r="26" fill="#C4C4C4"/>
<path opacity="0.7" d="M112.5 319.848V67.9524L364.5 135.152V387.048L112.5 319.848Z" fill="#FFF000" stroke="#DECD11" stroke-width="3"/>
<g clip-path="url(#clip1)">
<path d="M429 278L404.505 253.505L395.539 286.966L429 278ZM49.0002 176.179L73.4951 200.674L82.4609 167.214L49.0002 176.179ZM403.696 268.114L75.8567 180.27L74.3038 186.065L402.144 273.91L403.696 268.114Z" fill="#00986B"/>
</g>
<g clip-path="url(#clip2)">
<path d="M239 30L221.679 60H256.321L239 30ZM239 424L256.321 394H221.679L239 424ZM236 57V397H242V57H236Z" fill="#B72DF8"/>
</g>
<circle cx="239" cy="227" r="26" fill="#C4C4C4"/>
<path d="M239 30L221.679 60H256.321L239 30ZM236 210C236 211.657 237.343 213 239 213C240.657 213 242 211.657 242 210H236ZM236 57V210H242V57H236Z" fill="#B72DF8"/>
<path d="M429 278L404.505 253.505L395.539 286.966L429 278ZM257.776 229.015C256.176 228.586 254.531 229.536 254.102 231.136C253.673 232.737 254.623 234.382 256.224 234.811L257.776 229.015ZM403.696 268.114L257.776 229.015L256.224 234.811L402.144 273.91L403.696 268.114Z" fill="#00986B"/>
<path d="M39.6284 342L74.2694 342L56.9489 312L39.6284 342ZM225 238.44C226.435 237.611 226.927 235.777 226.098 234.342C225.27 232.907 223.435 232.415 222 233.244L225 238.44ZM222 233.244L61.5111 325.902L64.5111 331.098L225 238.44L222 233.244Z" fill="#1E73FF"/>
<path d="M235.595 12.811H228.722V9.9668H235.595V12.811ZM243.358 14.0073L245.8 5.79199H249.584L244.274 21.0508L243.981 21.7466C243.192 23.4718 241.889 24.3345 240.075 24.3345C239.562 24.3345 239.041 24.2572 238.512 24.1025V21.4292L239.049 21.4414C239.717 21.4414 240.213 21.3397 240.539 21.1362C240.872 20.9328 241.133 20.5951 241.32 20.123L241.735 19.0366L237.108 5.79199H240.905L243.358 14.0073Z" fill="#B72DF8"/>
<path d="M442.509 114.811H435.637V111.967H442.509V114.811ZM449.394 118.156H455.852V121H444.89V118.852L451.103 110.648H445.073V107.792H455.656V109.879L449.394 118.156Z" fill="#1E73FF"/>
<path d="M440.788 278.051H445.195V281.237H440.788V286.218H437.431V281.237H433.012V278.051H437.431V273.278H440.788V278.051ZM452.348 278.735L454.57 274.792H458.342L454.582 281.262L458.5 288H454.716L452.36 283.85L450.017 288H446.22L450.139 281.262L446.391 274.792H450.175L452.348 278.735Z" fill="#00986B"/>
<path d="M233.874 435.051H238.28V438.237H233.874V443.218H230.517V438.237H226.098V435.051H230.517V430.278H233.874V435.051ZM245.336 440.007L247.777 431.792H251.562L246.251 447.051L245.958 447.747C245.169 449.472 243.867 450.334 242.052 450.334C241.54 450.334 241.019 450.257 240.49 450.103V447.429L241.027 447.441C241.694 447.441 242.191 447.34 242.516 447.136C242.85 446.933 243.11 446.595 243.297 446.123L243.712 445.037L239.086 431.792H242.882L245.336 440.007Z" fill="#B72DF8"/>
<path d="M21.7881 349.051H26.1948V352.237H21.7881V357.218H18.4312V352.237H14.0122V349.051H18.4312V344.278H21.7881V349.051ZM32.3716 356.156H38.8291V359H27.8672V356.852L34.0806 348.648H28.0503V345.792H38.6338V347.879L32.3716 356.156Z" fill="#1E73FF"/>
<path d="M30.5093 173.811H23.6367V170.967H30.5093V173.811ZM38.3706 170.735L40.5923 166.792H44.3643L40.6045 173.262L44.5229 180H40.7388L38.3828 175.85L36.0391 180H32.2427L36.1611 173.262L32.4136 166.792H36.1978L38.3706 170.735Z" fill="#00986B"/>
<defs>
<clipPath id="clip0">
<rect width="199" height="230" fill="white" transform="translate(239 112)"/>
</clipPath>
<clipPath id="clip1">
<rect width="190" height="158" fill="white" transform="translate(49 152)"/>
</clipPath>
<clipPath id="clip2">
<rect width="138" height="192" fill="white" transform="translate(170 232)"/>
</clipPath>
</defs>
</svg>
