<svg width="575" height="303" viewBox="0 0 575 303" fill="none" xmlns="http://www.w3.org/2000/svg">
<rect x="74" y="70" width="125" height="125" fill="#DDDDDD"/>
<path opacity="0.5" d="M34 70H159L239 195H114L34 70Z" fill="#1E73FF"/>
<path d="M252 133L242.025 127.183L241.975 138.73L252 133ZM19.9957 133L242.996 133.961L243.004 131.961L20.0043 131L19.9957 133Z" fill="#163875"/>
<path d="M136 248.002L141.773 238.002L130.226 238.002L136 248.002ZM135 16L135 239.002L137 239.002L137 16L135 16Z" fill="#E44D26"/>
<path d="M25.5 120.547L27.6328 116.625H30.3281L27.0156 122.266L30.4141 128H27.6875L25.5 124.016L23.3125 128H20.5859L23.9844 122.266L20.6719 116.625H23.3672L25.5 120.547Z" fill="#163875"/>
<path d="M144.992 21.75L147.359 16.625H149.922L146.188 23.875V28H143.805V23.875L140.07 16.625H142.641L144.992 21.75Z" fill="#E44D26"/>
<rect x="377" y="70" width="125" height="125" fill="#DDDDDD"/>
<path opacity="0.5" d="M377 30L377 155L502 235L502 110L377 30Z" fill="#1E73FF"/>
<path d="M555 133L545.025 127.183L544.975 138.73L555 133ZM322.996 133L545.996 133.961L546.004 131.961L323.004 131L322.996 133Z" fill="#163875"/>
<path d="M439 248.002L444.773 238.002L433.226 238.002L439 248.002ZM438 16L438 239.002L440 239.002L440 16L438 16Z" fill="#E44D26"/>
<path d="M328.5 120.547L330.633 116.625H333.328L330.016 122.266L333.414 128H330.688L328.5 124.016L326.312 128H323.586L326.984 122.266L323.672 116.625H326.367L328.5 120.547Z" fill="#163875"/>
<path d="M447.992 21.75L450.359 16.625H452.922L449.188 23.875V28H446.805V23.875L443.07 16.625H445.641L447.992 21.75Z" fill="#E44D26"/>
<path d="M78.0117 281.08C78.0117 280.735 77.8392 280.465 77.4941 280.27C77.1556 280.068 76.6087 279.889 75.8535 279.732C73.3405 279.205 72.084 278.137 72.084 276.529C72.084 275.592 72.4714 274.811 73.2461 274.186C74.0273 273.554 75.0462 273.238 76.3027 273.238C77.6439 273.238 78.7148 273.554 79.5156 274.186C80.3229 274.817 80.7266 275.637 80.7266 276.646H77.9043C77.9043 276.243 77.7741 275.911 77.5137 275.65C77.2533 275.383 76.8464 275.25 76.293 275.25C75.8177 275.25 75.4499 275.357 75.1895 275.572C74.929 275.787 74.7988 276.061 74.7988 276.393C74.7988 276.705 74.9453 276.959 75.2383 277.154C75.5378 277.343 76.0391 277.509 76.7422 277.652C77.4453 277.789 78.0378 277.945 78.5195 278.121C80.0104 278.668 80.7559 279.615 80.7559 280.963C80.7559 281.926 80.3424 282.708 79.5156 283.307C78.6888 283.899 77.6211 284.195 76.3125 284.195C75.4271 284.195 74.6393 284.039 73.9492 283.727C73.2656 283.408 72.7285 282.975 72.3379 282.428C71.9473 281.874 71.752 281.279 71.752 280.641H74.4277C74.4538 281.142 74.6393 281.526 74.9844 281.793C75.3294 282.06 75.7917 282.193 76.3711 282.193C76.9115 282.193 77.3184 282.092 77.5918 281.891C77.8717 281.682 78.0117 281.412 78.0117 281.08ZM86.4199 279.762L85.4043 280.777V284H82.582V269H85.4043V277.311L85.9512 276.607L88.6562 273.434H92.0449L88.2266 277.838L92.377 284H89.1348L86.4199 279.762ZM97.9336 284.195C96.3841 284.195 95.1211 283.72 94.1445 282.77C93.1745 281.819 92.6895 280.553 92.6895 278.971V278.697C92.6895 277.636 92.8945 276.689 93.3047 275.855C93.7148 275.016 94.2943 274.371 95.043 273.922C95.7982 273.466 96.6576 273.238 97.6211 273.238C99.0664 273.238 100.202 273.694 101.029 274.605C101.863 275.517 102.279 276.809 102.279 278.482V279.635H95.5508C95.6419 280.325 95.9154 280.878 96.3711 281.295C96.8333 281.712 97.416 281.92 98.1191 281.92C99.2064 281.92 100.056 281.526 100.668 280.738L102.055 282.291C101.632 282.89 101.059 283.359 100.336 283.697C99.6133 284.029 98.8125 284.195 97.9336 284.195ZM97.6113 275.523C97.0514 275.523 96.5957 275.712 96.2441 276.09C95.8991 276.467 95.6777 277.008 95.5801 277.711H99.5059V277.486C99.4928 276.861 99.3236 276.38 98.998 276.041C98.6725 275.696 98.2103 275.523 97.6113 275.523ZM113.08 280.162L114.467 273.434H117.191L114.496 284H112.133L110.131 277.35L108.129 284H105.775L103.08 273.434H105.805L107.182 280.152L109.115 273.434H111.156L113.08 280.162ZM123.871 274.684L126.537 269.781H129.906L125.766 276.832L130.014 284H126.605L123.871 279.02L121.137 284H117.729L121.977 276.832L117.836 269.781H121.205L123.871 274.684ZM131.439 278.219C131.439 276.728 131.638 275.309 132.035 273.961C132.432 272.613 133.018 271.422 133.793 270.387C134.568 269.345 135.408 268.622 136.312 268.219L136.859 269.742C135.909 270.445 135.167 271.533 134.633 273.004C134.099 274.475 133.832 276.194 133.832 278.16V278.463C133.832 280.436 134.096 282.161 134.623 283.639C135.15 285.117 135.896 286.22 136.859 286.949L136.312 288.443C135.427 288.046 134.6 287.343 133.832 286.334C133.07 285.331 132.488 284.173 132.084 282.857C131.68 281.542 131.465 280.169 131.439 278.736V278.219ZM141.098 275.641H142.602C143.318 275.641 143.848 275.462 144.193 275.104C144.538 274.745 144.711 274.27 144.711 273.678C144.711 273.105 144.538 272.659 144.193 272.34C143.855 272.021 143.386 271.861 142.787 271.861C142.247 271.861 141.794 272.011 141.43 272.311C141.065 272.604 140.883 272.988 140.883 273.463H138.061C138.061 272.721 138.259 272.057 138.656 271.471C139.06 270.878 139.62 270.416 140.336 270.084C141.059 269.752 141.853 269.586 142.719 269.586C144.223 269.586 145.401 269.947 146.254 270.67C147.107 271.386 147.533 272.376 147.533 273.639C147.533 274.29 147.335 274.889 146.938 275.436C146.54 275.982 146.02 276.402 145.375 276.695C146.176 276.982 146.771 277.411 147.162 277.984C147.559 278.557 147.758 279.234 147.758 280.016C147.758 281.279 147.296 282.291 146.371 283.053C145.453 283.814 144.236 284.195 142.719 284.195C141.299 284.195 140.137 283.821 139.232 283.072C138.334 282.324 137.885 281.334 137.885 280.104H140.707C140.707 280.637 140.906 281.074 141.303 281.412C141.706 281.751 142.201 281.92 142.787 281.92C143.458 281.92 143.982 281.744 144.359 281.393C144.743 281.035 144.936 280.562 144.936 279.977C144.936 278.557 144.154 277.848 142.592 277.848H141.098V275.641ZM159.281 278.121C159.281 280.087 158.874 281.591 158.061 282.633C157.247 283.674 156.055 284.195 154.486 284.195C152.937 284.195 151.752 283.684 150.932 282.662C150.111 281.64 149.691 280.175 149.672 278.268V275.65C149.672 273.665 150.082 272.158 150.902 271.129C151.729 270.1 152.917 269.586 154.467 269.586C156.016 269.586 157.201 270.097 158.021 271.119C158.842 272.135 159.262 273.596 159.281 275.504V278.121ZM156.459 275.25C156.459 274.072 156.296 273.215 155.971 272.682C155.652 272.141 155.15 271.871 154.467 271.871C153.803 271.871 153.311 272.128 152.992 272.643C152.68 273.15 152.514 273.948 152.494 275.035V278.492C152.494 279.651 152.65 280.514 152.963 281.08C153.282 281.64 153.79 281.92 154.486 281.92C155.176 281.92 155.674 281.65 155.98 281.109C156.286 280.569 156.446 279.742 156.459 278.629V275.25ZM160.873 278.639C160.873 276.992 161.241 275.68 161.977 274.703C162.719 273.727 163.731 273.238 165.014 273.238C166.042 273.238 166.892 273.622 167.562 274.391V269H170.395V284H167.846L167.709 282.877C167.006 283.756 166.101 284.195 164.994 284.195C163.751 284.195 162.751 283.707 161.996 282.73C161.247 281.747 160.873 280.383 160.873 278.639ZM163.695 278.844C163.695 279.833 163.868 280.592 164.213 281.119C164.558 281.646 165.059 281.91 165.717 281.91C166.589 281.91 167.204 281.542 167.562 280.807V276.637C167.211 275.901 166.602 275.533 165.736 275.533C164.376 275.533 163.695 276.637 163.695 278.844ZM177.445 284.195C175.896 284.195 174.633 283.72 173.656 282.77C172.686 281.819 172.201 280.553 172.201 278.971V278.697C172.201 277.636 172.406 276.689 172.816 275.855C173.227 275.016 173.806 274.371 174.555 273.922C175.31 273.466 176.169 273.238 177.133 273.238C178.578 273.238 179.714 273.694 180.541 274.605C181.374 275.517 181.791 276.809 181.791 278.482V279.635H175.062C175.154 280.325 175.427 280.878 175.883 281.295C176.345 281.712 176.928 281.92 177.631 281.92C178.718 281.92 179.568 281.526 180.18 280.738L181.566 282.291C181.143 282.89 180.57 283.359 179.848 283.697C179.125 284.029 178.324 284.195 177.445 284.195ZM177.123 275.523C176.563 275.523 176.107 275.712 175.756 276.09C175.411 276.467 175.189 277.008 175.092 277.711H179.018V277.486C179.005 276.861 178.835 276.38 178.51 276.041C178.184 275.696 177.722 275.523 177.123 275.523ZM182.992 278.639C182.992 277.018 183.376 275.712 184.145 274.723C184.919 273.733 185.961 273.238 187.27 273.238C188.428 273.238 189.33 273.635 189.975 274.43L190.092 273.434H192.65V283.648C192.65 284.573 192.439 285.377 192.016 286.061C191.599 286.744 191.01 287.265 190.248 287.623C189.486 287.981 188.594 288.16 187.572 288.16C186.798 288.16 186.042 288.004 185.307 287.691C184.571 287.385 184.014 286.988 183.637 286.5L184.887 284.781C185.59 285.569 186.443 285.963 187.445 285.963C188.194 285.963 188.777 285.761 189.193 285.357C189.61 284.96 189.818 284.394 189.818 283.658V283.092C189.167 283.827 188.311 284.195 187.25 284.195C185.98 284.195 184.952 283.701 184.164 282.711C183.383 281.715 182.992 280.396 182.992 278.756V278.639ZM185.814 278.844C185.814 279.801 186.007 280.553 186.391 281.1C186.775 281.64 187.302 281.91 187.973 281.91C188.832 281.91 189.447 281.588 189.818 280.943V276.5C189.441 275.855 188.832 275.533 187.992 275.533C187.315 275.533 186.781 275.81 186.391 276.363C186.007 276.917 185.814 277.743 185.814 278.844ZM199.691 278.443C199.691 279.915 199.48 281.331 199.057 282.691C198.633 284.052 198.025 285.253 197.23 286.295C196.436 287.337 195.587 288.053 194.682 288.443L194.135 286.949C195.059 286.253 195.788 285.178 196.322 283.727C196.856 282.275 197.133 280.605 197.152 278.717V278.199C197.152 276.253 196.885 274.537 196.352 273.053C195.824 271.568 195.085 270.455 194.135 269.713L194.682 268.219C195.567 268.603 196.4 269.299 197.182 270.309C197.969 271.318 198.578 272.493 199.008 273.834C199.444 275.175 199.672 276.565 199.691 278.004V278.443Z" fill="#1E73FF"/>
<path d="M381.188 281.08C381.188 280.735 381.015 280.465 380.67 280.27C380.331 280.068 379.785 279.889 379.029 279.732C376.516 279.205 375.26 278.137 375.26 276.529C375.26 275.592 375.647 274.811 376.422 274.186C377.203 273.554 378.222 273.238 379.479 273.238C380.82 273.238 381.891 273.554 382.691 274.186C383.499 274.817 383.902 275.637 383.902 276.646H381.08C381.08 276.243 380.95 275.911 380.689 275.65C380.429 275.383 380.022 275.25 379.469 275.25C378.993 275.25 378.626 275.357 378.365 275.572C378.105 275.787 377.975 276.061 377.975 276.393C377.975 276.705 378.121 276.959 378.414 277.154C378.714 277.343 379.215 277.509 379.918 277.652C380.621 277.789 381.214 277.945 381.695 278.121C383.186 278.668 383.932 279.615 383.932 280.963C383.932 281.926 383.518 282.708 382.691 283.307C381.865 283.899 380.797 284.195 379.488 284.195C378.603 284.195 377.815 284.039 377.125 283.727C376.441 283.408 375.904 282.975 375.514 282.428C375.123 281.874 374.928 281.279 374.928 280.641H377.604C377.63 281.142 377.815 281.526 378.16 281.793C378.505 282.06 378.967 282.193 379.547 282.193C380.087 282.193 380.494 282.092 380.768 281.891C381.048 281.682 381.188 281.412 381.188 281.08ZM389.596 279.762L388.58 280.777V284H385.758V269H388.58V277.311L389.127 276.607L391.832 273.434H395.221L391.402 277.838L395.553 284H392.311L389.596 279.762ZM401.109 284.195C399.56 284.195 398.297 283.72 397.32 282.77C396.35 281.819 395.865 280.553 395.865 278.971V278.697C395.865 277.636 396.07 276.689 396.48 275.855C396.891 275.016 397.47 274.371 398.219 273.922C398.974 273.466 399.833 273.238 400.797 273.238C402.242 273.238 403.378 273.694 404.205 274.605C405.038 275.517 405.455 276.809 405.455 278.482V279.635H398.727C398.818 280.325 399.091 280.878 399.547 281.295C400.009 281.712 400.592 281.92 401.295 281.92C402.382 281.92 403.232 281.526 403.844 280.738L405.23 282.291C404.807 282.89 404.234 283.359 403.512 283.697C402.789 284.029 401.988 284.195 401.109 284.195ZM400.787 275.523C400.227 275.523 399.771 275.712 399.42 276.09C399.075 276.467 398.854 277.008 398.756 277.711H402.682V277.486C402.669 276.861 402.499 276.38 402.174 276.041C401.848 275.696 401.386 275.523 400.787 275.523ZM416.256 280.162L417.643 273.434H420.367L417.672 284H415.309L413.307 277.35L411.305 284H408.951L406.256 273.434H408.98L410.357 280.152L412.291 273.434H414.332L416.256 280.162ZM426.861 276.188L429.82 269.781H433.023L428.355 278.844V284H425.377V278.844L420.709 269.781H423.922L426.861 276.188ZM434.264 278.219C434.264 276.728 434.462 275.309 434.859 273.961C435.257 272.613 435.842 271.422 436.617 270.387C437.392 269.345 438.232 268.622 439.137 268.219L439.684 269.742C438.733 270.445 437.991 271.533 437.457 273.004C436.923 274.475 436.656 276.194 436.656 278.16V278.463C436.656 280.436 436.92 282.161 437.447 283.639C437.975 285.117 438.72 286.22 439.684 286.949L439.137 288.443C438.251 288.046 437.424 287.343 436.656 286.334C435.895 285.331 435.312 284.173 434.908 282.857C434.505 281.542 434.29 280.169 434.264 278.736V278.219ZM443.922 275.641H445.426C446.142 275.641 446.673 275.462 447.018 275.104C447.363 274.745 447.535 274.27 447.535 273.678C447.535 273.105 447.363 272.659 447.018 272.34C446.679 272.021 446.21 271.861 445.611 271.861C445.071 271.861 444.618 272.011 444.254 272.311C443.889 272.604 443.707 272.988 443.707 273.463H440.885C440.885 272.721 441.083 272.057 441.48 271.471C441.884 270.878 442.444 270.416 443.16 270.084C443.883 269.752 444.677 269.586 445.543 269.586C447.047 269.586 448.225 269.947 449.078 270.67C449.931 271.386 450.357 272.376 450.357 273.639C450.357 274.29 450.159 274.889 449.762 275.436C449.365 275.982 448.844 276.402 448.199 276.695C449 276.982 449.596 277.411 449.986 277.984C450.383 278.557 450.582 279.234 450.582 280.016C450.582 281.279 450.12 282.291 449.195 283.053C448.277 283.814 447.06 284.195 445.543 284.195C444.124 284.195 442.962 283.821 442.057 283.072C441.158 282.324 440.709 281.334 440.709 280.104H443.531C443.531 280.637 443.73 281.074 444.127 281.412C444.531 281.751 445.025 281.92 445.611 281.92C446.282 281.92 446.806 281.744 447.184 281.393C447.568 281.035 447.76 280.562 447.76 279.977C447.76 278.557 446.979 277.848 445.416 277.848H443.922V275.641ZM462.105 278.121C462.105 280.087 461.699 281.591 460.885 282.633C460.071 283.674 458.88 284.195 457.311 284.195C455.761 284.195 454.576 283.684 453.756 282.662C452.936 281.64 452.516 280.175 452.496 278.268V275.65C452.496 273.665 452.906 272.158 453.727 271.129C454.553 270.1 455.742 269.586 457.291 269.586C458.84 269.586 460.025 270.097 460.846 271.119C461.666 272.135 462.086 273.596 462.105 275.504V278.121ZM459.283 275.25C459.283 274.072 459.12 273.215 458.795 272.682C458.476 272.141 457.975 271.871 457.291 271.871C456.627 271.871 456.135 272.128 455.816 272.643C455.504 273.15 455.338 273.948 455.318 275.035V278.492C455.318 279.651 455.475 280.514 455.787 281.08C456.106 281.64 456.614 281.92 457.311 281.92C458.001 281.92 458.499 281.65 458.805 281.109C459.111 280.569 459.27 279.742 459.283 278.629V275.25ZM463.697 278.639C463.697 276.992 464.065 275.68 464.801 274.703C465.543 273.727 466.555 273.238 467.838 273.238C468.867 273.238 469.716 273.622 470.387 274.391V269H473.219V284H470.67L470.533 282.877C469.83 283.756 468.925 284.195 467.818 284.195C466.575 284.195 465.576 283.707 464.82 282.73C464.072 281.747 463.697 280.383 463.697 278.639ZM466.52 278.844C466.52 279.833 466.692 280.592 467.037 281.119C467.382 281.646 467.883 281.91 468.541 281.91C469.413 281.91 470.029 281.542 470.387 280.807V276.637C470.035 275.901 469.426 275.533 468.561 275.533C467.2 275.533 466.52 276.637 466.52 278.844ZM480.27 284.195C478.72 284.195 477.457 283.72 476.48 282.77C475.51 281.819 475.025 280.553 475.025 278.971V278.697C475.025 277.636 475.23 276.689 475.641 275.855C476.051 275.016 476.63 274.371 477.379 273.922C478.134 273.466 478.993 273.238 479.957 273.238C481.402 273.238 482.538 273.694 483.365 274.605C484.199 275.517 484.615 276.809 484.615 278.482V279.635H477.887C477.978 280.325 478.251 280.878 478.707 281.295C479.169 281.712 479.752 281.92 480.455 281.92C481.542 281.92 482.392 281.526 483.004 280.738L484.391 282.291C483.967 282.89 483.395 283.359 482.672 283.697C481.949 284.029 481.148 284.195 480.27 284.195ZM479.947 275.523C479.387 275.523 478.932 275.712 478.58 276.09C478.235 276.467 478.014 277.008 477.916 277.711H481.842V277.486C481.829 276.861 481.66 276.38 481.334 276.041C481.008 275.696 480.546 275.523 479.947 275.523ZM485.816 278.639C485.816 277.018 486.201 275.712 486.969 274.723C487.743 273.733 488.785 273.238 490.094 273.238C491.253 273.238 492.154 273.635 492.799 274.43L492.916 273.434H495.475V283.648C495.475 284.573 495.263 285.377 494.84 286.061C494.423 286.744 493.834 287.265 493.072 287.623C492.311 287.981 491.419 288.16 490.396 288.16C489.622 288.16 488.867 288.004 488.131 287.691C487.395 287.385 486.839 286.988 486.461 286.5L487.711 284.781C488.414 285.569 489.267 285.963 490.27 285.963C491.018 285.963 491.601 285.761 492.018 285.357C492.434 284.96 492.643 284.394 492.643 283.658V283.092C491.992 283.827 491.135 284.195 490.074 284.195C488.805 284.195 487.776 283.701 486.988 282.711C486.207 281.715 485.816 280.396 485.816 278.756V278.639ZM488.639 278.844C488.639 279.801 488.831 280.553 489.215 281.1C489.599 281.64 490.126 281.91 490.797 281.91C491.656 281.91 492.271 281.588 492.643 280.943V276.5C492.265 275.855 491.656 275.533 490.816 275.533C490.139 275.533 489.605 275.81 489.215 276.363C488.831 276.917 488.639 277.743 488.639 278.844ZM502.516 278.443C502.516 279.915 502.304 281.331 501.881 282.691C501.458 284.052 500.849 285.253 500.055 286.295C499.26 287.337 498.411 288.053 497.506 288.443L496.959 286.949C497.883 286.253 498.613 285.178 499.146 283.727C499.68 282.275 499.957 280.605 499.977 278.717V278.199C499.977 276.253 499.71 274.537 499.176 273.053C498.648 271.568 497.91 270.455 496.959 269.713L497.506 268.219C498.391 268.603 499.225 269.299 500.006 270.309C500.794 271.318 501.402 272.493 501.832 273.834C502.268 275.175 502.496 276.565 502.516 278.004V278.443Z" fill="#1E73FF"/>
</svg>
