<svg width="504" height="558" viewBox="0 0 504 558" fill="none" xmlns="http://www.w3.org/2000/svg">
<rect x="1" y="27" width="502" height="138" rx="5" fill="#F7F7F7" stroke="#AAAAAA" stroke-width="2" stroke-dasharray="6 4"/>
<path d="M5.63965 3.81934C5.1748 3.75553 4.77376 3.72363 4.43652 3.72363C3.54329 3.72363 3.09668 4.1429 3.09668 4.98145V5.60352H4.60059V6.83398H3.09668V13H1.43555V6.83398H0.307617V5.60352H1.43555V4.94043C1.4401 4.10645 1.6862 3.46842 2.17383 3.02637C2.66602 2.57975 3.35872 2.35645 4.25195 2.35645C4.80794 2.35645 5.82422 2.46582 7.30078 2.68457V13H5.63965V3.81934ZM12.3936 13.1367C11.3408 13.1367 10.4863 12.8063 9.83008 12.1455C9.17839 11.4801 8.85254 10.596 8.85254 9.49316V9.28809C8.85254 8.5498 8.99382 7.89128 9.27637 7.3125C9.56348 6.72917 9.96452 6.27572 10.4795 5.95215C10.9945 5.62858 11.5687 5.4668 12.2021 5.4668C13.2093 5.4668 13.9863 5.78809 14.5332 6.43066C15.0846 7.07324 15.3604 7.98242 15.3604 9.1582V9.82812H10.5273C10.5775 10.4388 10.7803 10.9219 11.1357 11.2773C11.4958 11.6328 11.9469 11.8105 12.4893 11.8105C13.2503 11.8105 13.8701 11.5029 14.3486 10.8877L15.2441 11.7422C14.9479 12.1842 14.5514 12.5283 14.0547 12.7744C13.5625 13.016 13.0088 13.1367 12.3936 13.1367ZM12.1953 6.7998C11.7396 6.7998 11.3704 6.95931 11.0879 7.27832C10.8099 7.59733 10.6322 8.04167 10.5547 8.61133H13.7197V8.48828C13.6833 7.93229 13.5352 7.51302 13.2754 7.23047C13.0156 6.94336 12.6556 6.7998 12.1953 6.7998ZM19.3115 8.03711L20.7197 5.60352H22.5654L20.3027 9.24707L22.6406 13H20.8086L19.332 10.4707L17.8623 13H16.0166L18.3545 9.24707L16.0986 5.60352H17.9307L19.3115 8.03711ZM30.2217 11.8105C30.6364 11.8105 30.9805 11.6898 31.2539 11.4482C31.5273 11.2067 31.6732 10.9082 31.6914 10.5527H33.2568C33.2386 11.013 33.0951 11.4437 32.8262 11.8447C32.5573 12.2412 32.1927 12.5557 31.7324 12.7881C31.2721 13.0205 30.7754 13.1367 30.2422 13.1367C29.2077 13.1367 28.3874 12.8018 27.7812 12.1318C27.1751 11.4619 26.8721 10.5368 26.8721 9.35645V9.18555C26.8721 8.0599 27.1729 7.15983 27.7744 6.48535C28.376 5.80632 29.1963 5.4668 30.2354 5.4668C31.1149 5.4668 31.8304 5.72428 32.3818 6.23926C32.9378 6.74967 33.2295 7.42188 33.2568 8.25586H31.6914C31.6732 7.83203 31.5273 7.4834 31.2539 7.20996C30.985 6.93652 30.641 6.7998 30.2217 6.7998C29.6839 6.7998 29.2692 6.99577 28.9775 7.3877C28.6859 7.77507 28.5378 8.36523 28.5332 9.1582V9.4248C28.5332 10.2269 28.6768 10.8262 28.9639 11.2227C29.2555 11.6146 29.6748 11.8105 30.2217 11.8105ZM34.2002 9.2334C34.2002 8.50879 34.3438 7.8571 34.6309 7.27832C34.918 6.69499 35.3213 6.24837 35.8408 5.93848C36.3604 5.62402 36.9574 5.4668 37.6318 5.4668C38.6299 5.4668 39.4388 5.78809 40.0586 6.43066C40.6829 7.07324 41.0202 7.92546 41.0703 8.9873L41.0771 9.37695C41.0771 10.1061 40.9359 10.7578 40.6533 11.332C40.3753 11.9062 39.9743 12.3506 39.4502 12.665C38.9307 12.9795 38.3291 13.1367 37.6455 13.1367C36.6019 13.1367 35.7656 12.7904 35.1367 12.0977C34.5124 11.4004 34.2002 10.473 34.2002 9.31543V9.2334ZM35.8613 9.37695C35.8613 10.138 36.0186 10.735 36.333 11.168C36.6475 11.5964 37.085 11.8105 37.6455 11.8105C38.2061 11.8105 38.6413 11.5918 38.9512 11.1543C39.2656 10.7168 39.4229 10.0765 39.4229 9.2334C39.4229 8.486 39.2611 7.89355 38.9375 7.45605C38.6185 7.01855 38.1833 6.7998 37.6318 6.7998C37.0895 6.7998 36.6589 7.01628 36.3398 7.44922C36.0208 7.8776 35.8613 8.52018 35.8613 9.37695ZM44.0234 5.60352L44.0713 6.45801C44.6182 5.7972 45.3359 5.4668 46.2246 5.4668C47.765 5.4668 48.5488 6.34863 48.5762 8.1123V13H46.915V8.20801C46.915 7.73861 46.8125 7.39225 46.6074 7.16895C46.4069 6.94108 46.0765 6.82715 45.6162 6.82715C44.9463 6.82715 44.4473 7.13021 44.1191 7.73633V13H42.458V5.60352H44.0234ZM52.3564 3.80566V5.60352H53.6621V6.83398H52.3564V10.9629C52.3564 11.2454 52.4111 11.4505 52.5205 11.5781C52.6344 11.7012 52.835 11.7627 53.1221 11.7627C53.3135 11.7627 53.5072 11.7399 53.7031 11.6943V12.9795C53.3249 13.0843 52.9603 13.1367 52.6094 13.1367C51.3333 13.1367 50.6953 12.4326 50.6953 11.0244V6.83398H49.4785V5.60352H50.6953V3.80566H52.3564ZM59.3564 13C59.2835 12.8587 59.2197 12.6286 59.165 12.3096C58.6364 12.861 57.9893 13.1367 57.2236 13.1367C56.4808 13.1367 55.8747 12.9248 55.4053 12.501C54.9359 12.0771 54.7012 11.5531 54.7012 10.9287C54.7012 10.1403 54.9928 9.53646 55.5762 9.11719C56.1641 8.69336 57.0026 8.48145 58.0918 8.48145H59.1104V7.99609C59.1104 7.61328 59.0033 7.30794 58.7891 7.08008C58.5749 6.84766 58.249 6.73145 57.8115 6.73145C57.4333 6.73145 57.1234 6.82715 56.8818 7.01855C56.6403 7.2054 56.5195 7.44466 56.5195 7.73633H54.8584C54.8584 7.33073 54.9928 6.95247 55.2617 6.60156C55.5306 6.24609 55.8952 5.9681 56.3555 5.76758C56.8203 5.56706 57.3376 5.4668 57.9072 5.4668C58.7731 5.4668 59.4635 5.68555 59.9785 6.12305C60.4935 6.55599 60.7578 7.16667 60.7715 7.95508V11.291C60.7715 11.9564 60.8649 12.4873 61.0518 12.8838V13H59.3564ZM57.5312 11.8037C57.8594 11.8037 58.167 11.724 58.4541 11.5645C58.7458 11.4049 58.9645 11.1908 59.1104 10.9219V9.52734H58.2148C57.5996 9.52734 57.137 9.63444 56.8271 9.84863C56.5173 10.0628 56.3623 10.3659 56.3623 10.7578C56.3623 11.0768 56.4671 11.332 56.6768 11.5234C56.891 11.7103 57.1758 11.8037 57.5312 11.8037ZM64.2783 13H62.6172V5.60352H64.2783V13ZM62.5146 3.68262C62.5146 3.42741 62.5944 3.21549 62.7539 3.04688C62.918 2.87826 63.1504 2.79395 63.4512 2.79395C63.752 2.79395 63.9844 2.87826 64.1484 3.04688C64.3125 3.21549 64.3945 3.42741 64.3945 3.68262C64.3945 3.93327 64.3125 4.1429 64.1484 4.31152C63.9844 4.47559 63.752 4.55762 63.4512 4.55762C63.1504 4.55762 62.918 4.47559 62.7539 4.31152C62.5944 4.1429 62.5146 3.93327 62.5146 3.68262ZM67.6348 5.60352L67.6826 6.45801C68.2295 5.7972 68.9473 5.4668 69.8359 5.4668C71.3763 5.4668 72.1602 6.34863 72.1875 8.1123V13H70.5264V8.20801C70.5264 7.73861 70.4238 7.39225 70.2188 7.16895C70.0182 6.94108 69.6878 6.82715 69.2275 6.82715C68.5576 6.82715 68.0586 7.13021 67.7305 7.73633V13H66.0693V5.60352H67.6348ZM77.1436 13.1367C76.0908 13.1367 75.2363 12.8063 74.5801 12.1455C73.9284 11.4801 73.6025 10.596 73.6025 9.49316V9.28809C73.6025 8.5498 73.7438 7.89128 74.0264 7.3125C74.3135 6.72917 74.7145 6.27572 75.2295 5.95215C75.7445 5.62858 76.3187 5.4668 76.9521 5.4668C77.9593 5.4668 78.7363 5.78809 79.2832 6.43066C79.8346 7.07324 80.1104 7.98242 80.1104 9.1582V9.82812H75.2773C75.3275 10.4388 75.5303 10.9219 75.8857 11.2773C76.2458 11.6328 76.6969 11.8105 77.2393 11.8105C78.0003 11.8105 78.6201 11.5029 79.0986 10.8877L79.9941 11.7422C79.6979 12.1842 79.3014 12.5283 78.8047 12.7744C78.3125 13.016 77.7588 13.1367 77.1436 13.1367ZM76.9453 6.7998C76.4896 6.7998 76.1204 6.95931 75.8379 7.27832C75.5599 7.59733 75.3822 8.04167 75.3047 8.61133H78.4697V8.48828C78.4333 7.93229 78.2852 7.51302 78.0254 7.23047C77.7656 6.94336 77.4056 6.7998 76.9453 6.7998ZM85.2783 7.12109C85.0596 7.08464 84.834 7.06641 84.6016 7.06641C83.8405 7.06641 83.3278 7.35807 83.0635 7.94141V13H81.4023V5.60352H82.9883L83.0293 6.43066C83.4303 5.78809 83.9863 5.4668 84.6973 5.4668C84.9342 5.4668 85.1302 5.4987 85.2852 5.5625L85.2783 7.12109Z" fill="#BBBBBB"/>
<g opacity="0.8">
<path d="M10 39C10 37.3431 11.3431 36 13 36H95C96.6569 36 98 37.3431 98 39V93C98 94.6569 96.6569 96 95 96H13C11.3431 96 10 94.6569 10 93V39Z" fill="#1E73FF"/>
<path d="M52.4121 64.4258H53.7129C54.3691 64.4199 54.8877 64.25 55.2686 63.916C55.6553 63.582 55.8486 63.0986 55.8486 62.4658C55.8486 61.8564 55.6875 61.3848 55.3652 61.0508C55.0488 60.7109 54.5625 60.541 53.9062 60.541C53.332 60.541 52.8604 60.708 52.4912 61.042C52.1221 61.3701 51.9375 61.8008 51.9375 62.334H49.8018C49.8018 61.6777 49.9746 61.0801 50.3203 60.541C50.6719 60.002 51.1582 59.583 51.7793 59.2842C52.4062 58.9795 53.1064 58.8271 53.8799 58.8271C55.1572 58.8271 56.1592 59.1494 56.8857 59.7939C57.6182 60.4326 57.9844 61.3232 57.9844 62.4658C57.9844 63.04 57.7998 63.582 57.4307 64.0918C57.0674 64.5957 56.5957 64.9766 56.0156 65.2344C56.7188 65.4746 57.252 65.8525 57.6152 66.3682C57.9844 66.8838 58.1689 67.499 58.1689 68.2139C58.1689 69.3623 57.7734 70.2764 56.9824 70.9561C56.1973 71.6357 55.1631 71.9756 53.8799 71.9756C52.6494 71.9756 51.6416 71.6475 50.8564 70.9912C50.0713 70.335 49.6787 69.4619 49.6787 68.3721H51.8145C51.8145 68.9346 52.002 69.3916 52.377 69.7432C52.7578 70.0947 53.2676 70.2705 53.9062 70.2705C54.5684 70.2705 55.0898 70.0947 55.4707 69.7432C55.8516 69.3916 56.042 68.8818 56.042 68.2139C56.042 67.54 55.8428 67.0215 55.4443 66.6582C55.0459 66.2949 54.4541 66.1133 53.6689 66.1133H52.4121V64.4258Z" fill="white"/>
</g>
<g opacity="0.8">
<path d="M109 39C109 37.3431 110.343 36 112 36H194C195.657 36 197 37.3431 197 39V93C197 94.6569 195.657 96 194 96H112C110.343 96 109 94.6569 109 93V39Z" fill="#1E73FF"/>
<path d="M154.726 71.7998H152.599V61.5254L149.461 62.5977V60.7959L154.453 58.959H154.726V71.7998Z" fill="white"/>
</g>
<g opacity="0.8">
<path d="M208 39C208 37.3431 209.343 36 211 36H293C294.657 36 296 37.3431 296 39V93C296 94.6569 294.657 96 293 96H211C209.343 96 208 94.6569 208 93V39Z" fill="#1E73FF"/>
<path d="M255.167 67.2383H256.758V68.9521H255.167V71.7998H253.031V68.9521H247.503L247.441 67.6514L252.961 59.0029H255.167V67.2383ZM249.683 67.2383H253.031V61.8945L252.873 62.1758L249.683 67.2383Z" fill="white"/>
</g>
<g opacity="0.8">
<path d="M307 39C307 37.3431 308.343 36 310 36H392C393.657 36 395 37.3431 395 39V93C395 94.6569 393.657 96 392 96H310C308.343 96 307 94.6569 307 93V39Z" fill="#1E73FF"/>
<path d="M355.547 71.7998H346.942V70.332L351.205 65.6826C351.82 64.9971 352.257 64.4258 352.515 63.9688C352.778 63.5059 352.91 63.043 352.91 62.5801C352.91 61.9707 352.737 61.4785 352.392 61.1035C352.052 60.7285 351.592 60.541 351.012 60.541C350.32 60.541 349.784 60.752 349.403 61.1738C349.022 61.5957 348.832 62.1729 348.832 62.9053H346.696C346.696 62.126 346.872 61.4258 347.224 60.8047C347.581 60.1777 348.088 59.6914 348.744 59.3457C349.406 59 350.168 58.8271 351.029 58.8271C352.271 58.8271 353.25 59.1406 353.965 59.7676C354.686 60.3887 355.046 61.25 355.046 62.3516C355.046 62.9902 354.864 63.6611 354.501 64.3643C354.144 65.0615 353.555 65.8555 352.734 66.7461L349.605 70.0947H355.547V71.7998Z" fill="white"/>
</g>
<g opacity="0.8">
<path d="M406 39C406 37.3431 407.343 36 409 36H491C492.657 36 494 37.3431 494 39V93C494 94.6569 492.657 96 491 96H409C407.343 96 406 94.6569 406 93V39Z" fill="#1E73FF"/>
<path d="M446.514 65.4541L447.208 59.0029H454.081V60.8486H448.983L448.632 63.9072C449.224 63.5674 449.892 63.3975 450.636 63.3975C451.854 63.3975 452.801 63.7871 453.475 64.5664C454.154 65.3457 454.494 66.3945 454.494 67.7129C454.494 69.0137 454.119 70.0508 453.369 70.8242C452.619 71.5918 451.591 71.9756 450.284 71.9756C449.112 71.9756 448.14 71.6445 447.366 70.9824C446.599 70.3145 446.183 69.4355 446.118 68.3457H448.184C448.266 68.9668 448.488 69.4443 448.852 69.7783C449.215 70.1064 449.689 70.2705 450.275 70.2705C450.932 70.2705 451.441 70.0361 451.805 69.5674C452.174 69.0986 452.358 68.46 452.358 67.6514C452.358 66.8721 452.156 66.2568 451.752 65.8057C451.348 65.3486 450.791 65.1201 450.082 65.1201C449.695 65.1201 449.367 65.1729 449.098 65.2783C448.828 65.3779 448.535 65.5771 448.219 65.876L446.514 65.4541Z" fill="white"/>
</g>
<path d="M103.5 106L103.5 154" stroke="#AAAAAA" stroke-dasharray="4 2"/>
<path d="M202.5 106L202.5 154" stroke="#AAAAAA" stroke-dasharray="4 2"/>
<path d="M301.5 106L301.5 154" stroke="#AAAAAA" stroke-dasharray="4 2"/>
<path d="M400.5 106L400.5 154" stroke="#AAAAAA" stroke-dasharray="4 2"/>
<path d="M38.791 119.233C38.791 118.509 38.9323 117.857 39.2148 117.278C39.502 116.7 39.8984 116.253 40.4043 115.938C40.9147 115.624 41.4958 115.467 42.1475 115.467C43.1546 115.467 43.9681 115.815 44.5879 116.513C45.2122 117.21 45.5244 118.137 45.5244 119.295V119.384C45.5244 120.104 45.3854 120.751 45.1074 121.325C44.834 121.895 44.4398 122.339 43.9248 122.658C43.4144 122.977 42.8265 123.137 42.1611 123.137C41.1585 123.137 40.3451 122.788 39.7207 122.091C39.1009 121.394 38.791 120.471 38.791 119.322V119.233ZM40.0625 119.384C40.0625 120.204 40.2516 120.863 40.6299 121.359C41.0127 121.856 41.5231 122.104 42.1611 122.104C42.8037 122.104 43.3141 121.854 43.6924 121.353C44.0706 120.847 44.2598 120.14 44.2598 119.233C44.2598 118.422 44.0661 117.766 43.6787 117.265C43.2959 116.759 42.7855 116.506 42.1475 116.506C41.5231 116.506 41.0195 116.754 40.6367 117.251C40.2539 117.748 40.0625 118.459 40.0625 119.384ZM50.6855 116.738C50.4941 116.706 50.2868 116.69 50.0635 116.69C49.234 116.69 48.6712 117.044 48.375 117.75V123H47.1104V115.604H48.3408L48.3613 116.458C48.776 115.797 49.3639 115.467 50.125 115.467C50.3711 115.467 50.5579 115.499 50.6855 115.562V116.738ZM51.4102 119.24C51.4102 118.105 51.679 117.194 52.2168 116.506C52.7546 115.813 53.4587 115.467 54.3291 115.467C55.195 115.467 55.8809 115.763 56.3867 116.355V112.5H57.6514V123H56.4893L56.4277 122.207C55.9219 122.827 55.2178 123.137 54.3154 123.137C53.4587 123.137 52.7591 122.786 52.2168 122.084C51.679 121.382 51.4102 120.466 51.4102 119.336V119.24ZM52.6748 119.384C52.6748 120.222 52.848 120.879 53.1943 121.353C53.5407 121.826 54.0192 122.063 54.6299 122.063C55.432 122.063 56.0176 121.703 56.3867 120.983V117.586C56.0085 116.889 55.4274 116.54 54.6436 116.54C54.0238 116.54 53.5407 116.779 53.1943 117.258C52.848 117.736 52.6748 118.445 52.6748 119.384ZM62.6895 123.137C61.6868 123.137 60.8711 122.809 60.2422 122.152C59.6133 121.492 59.2988 120.61 59.2988 119.507V119.274C59.2988 118.541 59.4378 117.887 59.7158 117.312C59.9984 116.734 60.3903 116.283 60.8916 115.959C61.3975 115.631 61.9443 115.467 62.5322 115.467C63.4938 115.467 64.2412 115.784 64.7744 116.417C65.3076 117.05 65.5742 117.957 65.5742 119.138V119.664H60.5635C60.5817 120.393 60.7936 120.983 61.1992 121.435C61.6094 121.881 62.1289 122.104 62.7578 122.104C63.2044 122.104 63.5827 122.013 63.8926 121.831C64.2025 121.649 64.4736 121.407 64.7061 121.106L65.4785 121.708C64.8587 122.66 63.929 123.137 62.6895 123.137ZM62.5322 116.506C62.0218 116.506 61.5934 116.693 61.2471 117.066C60.9007 117.436 60.6865 117.955 60.6045 118.625H64.3096V118.529C64.2731 117.887 64.0999 117.39 63.79 117.039C63.4801 116.684 63.0609 116.506 62.5322 116.506ZM70.6191 116.738C70.4277 116.706 70.2204 116.69 69.9971 116.69C69.1676 116.69 68.6048 117.044 68.3086 117.75V123H67.0439V115.604H68.2744L68.2949 116.458C68.7096 115.797 69.2975 115.467 70.0586 115.467C70.3047 115.467 70.4915 115.499 70.6191 115.562V116.738Z" fill="#666666"/>
<path d="M51.7578 142.544H46.8096V140.496H51.7578V142.544ZM59.8613 147H57.3213V137.209L54.2891 138.149V136.084L59.5889 134.186H59.8613V147Z" fill="#1E73FF"/>
<path d="M137.791 119.233C137.791 118.509 137.932 117.857 138.215 117.278C138.502 116.7 138.898 116.253 139.404 115.938C139.915 115.624 140.496 115.467 141.147 115.467C142.155 115.467 142.968 115.815 143.588 116.513C144.212 117.21 144.524 118.137 144.524 119.295V119.384C144.524 120.104 144.385 120.751 144.107 121.325C143.834 121.895 143.44 122.339 142.925 122.658C142.414 122.977 141.826 123.137 141.161 123.137C140.159 123.137 139.345 122.788 138.721 122.091C138.101 121.394 137.791 120.471 137.791 119.322V119.233ZM139.062 119.384C139.062 120.204 139.252 120.863 139.63 121.359C140.013 121.856 140.523 122.104 141.161 122.104C141.804 122.104 142.314 121.854 142.692 121.353C143.071 120.847 143.26 120.14 143.26 119.233C143.26 118.422 143.066 117.766 142.679 117.265C142.296 116.759 141.785 116.506 141.147 116.506C140.523 116.506 140.02 116.754 139.637 117.251C139.254 117.748 139.062 118.459 139.062 119.384ZM149.686 116.738C149.494 116.706 149.287 116.69 149.063 116.69C148.234 116.69 147.671 117.044 147.375 117.75V123H146.11V115.604H147.341L147.361 116.458C147.776 115.797 148.364 115.467 149.125 115.467C149.371 115.467 149.558 115.499 149.686 115.562V116.738ZM150.41 119.24C150.41 118.105 150.679 117.194 151.217 116.506C151.755 115.813 152.459 115.467 153.329 115.467C154.195 115.467 154.881 115.763 155.387 116.355V112.5H156.651V123H155.489L155.428 122.207C154.922 122.827 154.218 123.137 153.315 123.137C152.459 123.137 151.759 122.786 151.217 122.084C150.679 121.382 150.41 120.466 150.41 119.336V119.24ZM151.675 119.384C151.675 120.222 151.848 120.879 152.194 121.353C152.541 121.826 153.019 122.063 153.63 122.063C154.432 122.063 155.018 121.703 155.387 120.983V117.586C155.008 116.889 154.427 116.54 153.644 116.54C153.024 116.54 152.541 116.779 152.194 117.258C151.848 117.736 151.675 118.445 151.675 119.384ZM161.689 123.137C160.687 123.137 159.871 122.809 159.242 122.152C158.613 121.492 158.299 120.61 158.299 119.507V119.274C158.299 118.541 158.438 117.887 158.716 117.312C158.998 116.734 159.39 116.283 159.892 115.959C160.397 115.631 160.944 115.467 161.532 115.467C162.494 115.467 163.241 115.784 163.774 116.417C164.308 117.05 164.574 117.957 164.574 119.138V119.664H159.563C159.582 120.393 159.794 120.983 160.199 121.435C160.609 121.881 161.129 122.104 161.758 122.104C162.204 122.104 162.583 122.013 162.893 121.831C163.202 121.649 163.474 121.407 163.706 121.106L164.479 121.708C163.859 122.66 162.929 123.137 161.689 123.137ZM161.532 116.506C161.022 116.506 160.593 116.693 160.247 117.066C159.901 117.436 159.687 117.955 159.604 118.625H163.31V118.529C163.273 117.887 163.1 117.39 162.79 117.039C162.48 116.684 162.061 116.506 161.532 116.506ZM169.619 116.738C169.428 116.706 169.22 116.69 168.997 116.69C168.168 116.69 167.605 117.044 167.309 117.75V123H166.044V115.604H167.274L167.295 116.458C167.71 115.797 168.298 115.467 169.059 115.467C169.305 115.467 169.492 115.499 169.619 115.562V116.738Z" fill="#666666"/>
<path d="M157.815 141.709C157.815 143.479 157.449 144.832 156.717 145.77C155.984 146.707 154.912 147.176 153.5 147.176C152.105 147.176 151.039 146.716 150.301 145.796C149.562 144.876 149.185 143.558 149.167 141.841V139.485C149.167 137.698 149.536 136.342 150.274 135.416C151.019 134.49 152.088 134.027 153.482 134.027C154.877 134.027 155.943 134.487 156.682 135.407C157.42 136.321 157.798 137.637 157.815 139.354V141.709ZM155.275 139.125C155.275 138.064 155.129 137.294 154.836 136.813C154.549 136.327 154.098 136.084 153.482 136.084C152.885 136.084 152.442 136.315 152.155 136.778C151.874 137.235 151.725 137.953 151.707 138.932V142.043C151.707 143.086 151.848 143.862 152.129 144.372C152.416 144.876 152.873 145.128 153.5 145.128C154.121 145.128 154.569 144.885 154.845 144.398C155.12 143.912 155.264 143.168 155.275 142.166V139.125Z" fill="#1E73FF"/>
<path d="M236.791 119.233C236.791 118.509 236.932 117.857 237.215 117.278C237.502 116.7 237.898 116.253 238.404 115.938C238.915 115.624 239.496 115.467 240.147 115.467C241.155 115.467 241.968 115.815 242.588 116.513C243.212 117.21 243.524 118.137 243.524 119.295V119.384C243.524 120.104 243.385 120.751 243.107 121.325C242.834 121.895 242.44 122.339 241.925 122.658C241.414 122.977 240.826 123.137 240.161 123.137C239.159 123.137 238.345 122.788 237.721 122.091C237.101 121.394 236.791 120.471 236.791 119.322V119.233ZM238.062 119.384C238.062 120.204 238.252 120.863 238.63 121.359C239.013 121.856 239.523 122.104 240.161 122.104C240.804 122.104 241.314 121.854 241.692 121.353C242.071 120.847 242.26 120.14 242.26 119.233C242.26 118.422 242.066 117.766 241.679 117.265C241.296 116.759 240.785 116.506 240.147 116.506C239.523 116.506 239.02 116.754 238.637 117.251C238.254 117.748 238.062 118.459 238.062 119.384ZM248.686 116.738C248.494 116.706 248.287 116.69 248.063 116.69C247.234 116.69 246.671 117.044 246.375 117.75V123H245.11V115.604H246.341L246.361 116.458C246.776 115.797 247.364 115.467 248.125 115.467C248.371 115.467 248.558 115.499 248.686 115.562V116.738ZM249.41 119.24C249.41 118.105 249.679 117.194 250.217 116.506C250.755 115.813 251.459 115.467 252.329 115.467C253.195 115.467 253.881 115.763 254.387 116.355V112.5H255.651V123H254.489L254.428 122.207C253.922 122.827 253.218 123.137 252.315 123.137C251.459 123.137 250.759 122.786 250.217 122.084C249.679 121.382 249.41 120.466 249.41 119.336V119.24ZM250.675 119.384C250.675 120.222 250.848 120.879 251.194 121.353C251.541 121.826 252.019 122.063 252.63 122.063C253.432 122.063 254.018 121.703 254.387 120.983V117.586C254.008 116.889 253.427 116.54 252.644 116.54C252.024 116.54 251.541 116.779 251.194 117.258C250.848 117.736 250.675 118.445 250.675 119.384ZM260.689 123.137C259.687 123.137 258.871 122.809 258.242 122.152C257.613 121.492 257.299 120.61 257.299 119.507V119.274C257.299 118.541 257.438 117.887 257.716 117.312C257.998 116.734 258.39 116.283 258.892 115.959C259.397 115.631 259.944 115.467 260.532 115.467C261.494 115.467 262.241 115.784 262.774 116.417C263.308 117.05 263.574 117.957 263.574 119.138V119.664H258.563C258.582 120.393 258.794 120.983 259.199 121.435C259.609 121.881 260.129 122.104 260.758 122.104C261.204 122.104 261.583 122.013 261.893 121.831C262.202 121.649 262.474 121.407 262.706 121.106L263.479 121.708C262.859 122.66 261.929 123.137 260.689 123.137ZM260.532 116.506C260.022 116.506 259.593 116.693 259.247 117.066C258.901 117.436 258.687 117.955 258.604 118.625H262.31V118.529C262.273 117.887 262.1 117.39 261.79 117.039C261.48 116.684 261.061 116.506 260.532 116.506ZM268.619 116.738C268.428 116.706 268.22 116.69 267.997 116.69C267.168 116.69 266.605 117.044 266.309 117.75V123H265.044V115.604H266.274L266.295 116.458C266.71 115.797 267.298 115.467 268.059 115.467C268.305 115.467 268.492 115.499 268.619 115.562V116.738Z" fill="#666666"/>
<path d="M256.815 141.709C256.815 143.479 256.449 144.832 255.717 145.77C254.984 146.707 253.912 147.176 252.5 147.176C251.105 147.176 250.039 146.716 249.301 145.796C248.562 144.876 248.185 143.558 248.167 141.841V139.485C248.167 137.698 248.536 136.342 249.274 135.416C250.019 134.49 251.088 134.027 252.482 134.027C253.877 134.027 254.943 134.487 255.682 135.407C256.42 136.321 256.798 137.637 256.815 139.354V141.709ZM254.275 139.125C254.275 138.064 254.129 137.294 253.836 136.813C253.549 136.327 253.098 136.084 252.482 136.084C251.885 136.084 251.442 136.315 251.155 136.778C250.874 137.235 250.725 137.953 250.707 138.932V142.043C250.707 143.086 250.848 143.862 251.129 144.372C251.416 144.876 251.873 145.128 252.5 145.128C253.121 145.128 253.569 144.885 253.845 144.398C254.12 143.912 254.264 143.168 254.275 142.166V139.125Z" fill="#1E73FF"/>
<path d="M335.791 119.233C335.791 118.509 335.932 117.857 336.215 117.278C336.502 116.7 336.898 116.253 337.404 115.938C337.915 115.624 338.496 115.467 339.147 115.467C340.155 115.467 340.968 115.815 341.588 116.513C342.212 117.21 342.524 118.137 342.524 119.295V119.384C342.524 120.104 342.385 120.751 342.107 121.325C341.834 121.895 341.44 122.339 340.925 122.658C340.414 122.977 339.826 123.137 339.161 123.137C338.159 123.137 337.345 122.788 336.721 122.091C336.101 121.394 335.791 120.471 335.791 119.322V119.233ZM337.062 119.384C337.062 120.204 337.252 120.863 337.63 121.359C338.013 121.856 338.523 122.104 339.161 122.104C339.804 122.104 340.314 121.854 340.692 121.353C341.071 120.847 341.26 120.14 341.26 119.233C341.26 118.422 341.066 117.766 340.679 117.265C340.296 116.759 339.785 116.506 339.147 116.506C338.523 116.506 338.02 116.754 337.637 117.251C337.254 117.748 337.062 118.459 337.062 119.384ZM347.686 116.738C347.494 116.706 347.287 116.69 347.063 116.69C346.234 116.69 345.671 117.044 345.375 117.75V123H344.11V115.604H345.341L345.361 116.458C345.776 115.797 346.364 115.467 347.125 115.467C347.371 115.467 347.558 115.499 347.686 115.562V116.738ZM348.41 119.24C348.41 118.105 348.679 117.194 349.217 116.506C349.755 115.813 350.459 115.467 351.329 115.467C352.195 115.467 352.881 115.763 353.387 116.355V112.5H354.651V123H353.489L353.428 122.207C352.922 122.827 352.218 123.137 351.315 123.137C350.459 123.137 349.759 122.786 349.217 122.084C348.679 121.382 348.41 120.466 348.41 119.336V119.24ZM349.675 119.384C349.675 120.222 349.848 120.879 350.194 121.353C350.541 121.826 351.019 122.063 351.63 122.063C352.432 122.063 353.018 121.703 353.387 120.983V117.586C353.008 116.889 352.427 116.54 351.644 116.54C351.024 116.54 350.541 116.779 350.194 117.258C349.848 117.736 349.675 118.445 349.675 119.384ZM359.689 123.137C358.687 123.137 357.871 122.809 357.242 122.152C356.613 121.492 356.299 120.61 356.299 119.507V119.274C356.299 118.541 356.438 117.887 356.716 117.312C356.998 116.734 357.39 116.283 357.892 115.959C358.397 115.631 358.944 115.467 359.532 115.467C360.494 115.467 361.241 115.784 361.774 116.417C362.308 117.05 362.574 117.957 362.574 119.138V119.664H357.563C357.582 120.393 357.794 120.983 358.199 121.435C358.609 121.881 359.129 122.104 359.758 122.104C360.204 122.104 360.583 122.013 360.893 121.831C361.202 121.649 361.474 121.407 361.706 121.106L362.479 121.708C361.859 122.66 360.929 123.137 359.689 123.137ZM359.532 116.506C359.022 116.506 358.593 116.693 358.247 117.066C357.901 117.436 357.687 117.955 357.604 118.625H361.31V118.529C361.273 117.887 361.1 117.39 360.79 117.039C360.48 116.684 360.061 116.506 359.532 116.506ZM367.619 116.738C367.428 116.706 367.22 116.69 366.997 116.69C366.168 116.69 365.605 117.044 365.309 117.75V123H364.044V115.604H365.274L365.295 116.458C365.71 115.797 366.298 115.467 367.059 115.467C367.305 115.467 367.492 115.499 367.619 115.562V116.738Z" fill="#666666"/>
<path d="M353.372 147H350.832V137.209L347.8 138.149V136.084L353.1 134.186H353.372V147Z" fill="#1E73FF"/>
<path d="M434.791 119.233C434.791 118.509 434.932 117.857 435.215 117.278C435.502 116.7 435.898 116.253 436.404 115.938C436.915 115.624 437.496 115.467 438.147 115.467C439.155 115.467 439.968 115.815 440.588 116.513C441.212 117.21 441.524 118.137 441.524 119.295V119.384C441.524 120.104 441.385 120.751 441.107 121.325C440.834 121.895 440.44 122.339 439.925 122.658C439.414 122.977 438.826 123.137 438.161 123.137C437.159 123.137 436.345 122.788 435.721 122.091C435.101 121.394 434.791 120.471 434.791 119.322V119.233ZM436.062 119.384C436.062 120.204 436.252 120.863 436.63 121.359C437.013 121.856 437.523 122.104 438.161 122.104C438.804 122.104 439.314 121.854 439.692 121.353C440.071 120.847 440.26 120.14 440.26 119.233C440.26 118.422 440.066 117.766 439.679 117.265C439.296 116.759 438.785 116.506 438.147 116.506C437.523 116.506 437.02 116.754 436.637 117.251C436.254 117.748 436.062 118.459 436.062 119.384ZM446.686 116.738C446.494 116.706 446.287 116.69 446.063 116.69C445.234 116.69 444.671 117.044 444.375 117.75V123H443.11V115.604H444.341L444.361 116.458C444.776 115.797 445.364 115.467 446.125 115.467C446.371 115.467 446.558 115.499 446.686 115.562V116.738ZM447.41 119.24C447.41 118.105 447.679 117.194 448.217 116.506C448.755 115.813 449.459 115.467 450.329 115.467C451.195 115.467 451.881 115.763 452.387 116.355V112.5H453.651V123H452.489L452.428 122.207C451.922 122.827 451.218 123.137 450.315 123.137C449.459 123.137 448.759 122.786 448.217 122.084C447.679 121.382 447.41 120.466 447.41 119.336V119.24ZM448.675 119.384C448.675 120.222 448.848 120.879 449.194 121.353C449.541 121.826 450.019 122.063 450.63 122.063C451.432 122.063 452.018 121.703 452.387 120.983V117.586C452.008 116.889 451.427 116.54 450.644 116.54C450.024 116.54 449.541 116.779 449.194 117.258C448.848 117.736 448.675 118.445 448.675 119.384ZM458.689 123.137C457.687 123.137 456.871 122.809 456.242 122.152C455.613 121.492 455.299 120.61 455.299 119.507V119.274C455.299 118.541 455.438 117.887 455.716 117.312C455.998 116.734 456.39 116.283 456.892 115.959C457.397 115.631 457.944 115.467 458.532 115.467C459.494 115.467 460.241 115.784 460.774 116.417C461.308 117.05 461.574 117.957 461.574 119.138V119.664H456.563C456.582 120.393 456.794 120.983 457.199 121.435C457.609 121.881 458.129 122.104 458.758 122.104C459.204 122.104 459.583 122.013 459.893 121.831C460.202 121.649 460.474 121.407 460.706 121.106L461.479 121.708C460.859 122.66 459.929 123.137 458.689 123.137ZM458.532 116.506C458.022 116.506 457.593 116.693 457.247 117.066C456.901 117.436 456.687 117.955 456.604 118.625H460.31V118.529C460.273 117.887 460.1 117.39 459.79 117.039C459.48 116.684 459.061 116.506 458.532 116.506ZM466.619 116.738C466.428 116.706 466.22 116.69 465.997 116.69C465.168 116.69 464.605 117.044 464.309 117.75V123H463.044V115.604H464.274L464.295 116.458C464.71 115.797 465.298 115.467 466.059 115.467C466.305 115.467 466.492 115.499 466.619 115.562V116.738Z" fill="#666666"/>
<path d="M454.974 147H446.202V145.26L450.342 140.848C450.91 140.227 451.329 139.685 451.599 139.222C451.874 138.759 452.012 138.319 452.012 137.903C452.012 137.335 451.868 136.89 451.581 136.567C451.294 136.239 450.884 136.075 450.351 136.075C449.776 136.075 449.322 136.274 448.988 136.673C448.66 137.065 448.496 137.584 448.496 138.229H445.947C445.947 137.449 446.132 136.737 446.501 136.093C446.876 135.448 447.403 134.944 448.083 134.581C448.763 134.212 449.533 134.027 450.395 134.027C451.713 134.027 452.735 134.344 453.462 134.977C454.194 135.609 454.561 136.503 454.561 137.657C454.561 138.29 454.396 138.935 454.068 139.591C453.74 140.247 453.178 141.012 452.381 141.885L449.472 144.952H454.974V147Z" fill="#1E73FF"/>
<rect x="1" y="223" width="502" height="138" rx="5" fill="#F7F7F7" stroke="#AAAAAA" stroke-width="2" stroke-dasharray="6 4"/>
<path d="M5.63965 199.819C5.1748 199.756 4.77376 199.724 4.43652 199.724C3.54329 199.724 3.09668 200.143 3.09668 200.981V201.604H4.60059V202.834H3.09668V209H1.43555V202.834H0.307617V201.604H1.43555V200.94C1.4401 200.106 1.6862 199.468 2.17383 199.026C2.66602 198.58 3.35872 198.356 4.25195 198.356C4.80794 198.356 5.82422 198.466 7.30078 198.685V209H5.63965V199.819ZM12.3936 209.137C11.3408 209.137 10.4863 208.806 9.83008 208.146C9.17839 207.48 8.85254 206.596 8.85254 205.493V205.288C8.85254 204.55 8.99382 203.891 9.27637 203.312C9.56348 202.729 9.96452 202.276 10.4795 201.952C10.9945 201.629 11.5687 201.467 12.2021 201.467C13.2093 201.467 13.9863 201.788 14.5332 202.431C15.0846 203.073 15.3604 203.982 15.3604 205.158V205.828H10.5273C10.5775 206.439 10.7803 206.922 11.1357 207.277C11.4958 207.633 11.9469 207.811 12.4893 207.811C13.2503 207.811 13.8701 207.503 14.3486 206.888L15.2441 207.742C14.9479 208.184 14.5514 208.528 14.0547 208.774C13.5625 209.016 13.0088 209.137 12.3936 209.137ZM12.1953 202.8C11.7396 202.8 11.3704 202.959 11.0879 203.278C10.8099 203.597 10.6322 204.042 10.5547 204.611H13.7197V204.488C13.6833 203.932 13.5352 203.513 13.2754 203.23C13.0156 202.943 12.6556 202.8 12.1953 202.8ZM19.3115 204.037L20.7197 201.604H22.5654L20.3027 205.247L22.6406 209H20.8086L19.332 206.471L17.8623 209H16.0166L18.3545 205.247L16.0986 201.604H17.9307L19.3115 204.037ZM30.2217 207.811C30.6364 207.811 30.9805 207.69 31.2539 207.448C31.5273 207.207 31.6732 206.908 31.6914 206.553H33.2568C33.2386 207.013 33.0951 207.444 32.8262 207.845C32.5573 208.241 32.1927 208.556 31.7324 208.788C31.2721 209.021 30.7754 209.137 30.2422 209.137C29.2077 209.137 28.3874 208.802 27.7812 208.132C27.1751 207.462 26.8721 206.537 26.8721 205.356V205.186C26.8721 204.06 27.1729 203.16 27.7744 202.485C28.376 201.806 29.1963 201.467 30.2354 201.467C31.1149 201.467 31.8304 201.724 32.3818 202.239C32.9378 202.75 33.2295 203.422 33.2568 204.256H31.6914C31.6732 203.832 31.5273 203.483 31.2539 203.21C30.985 202.937 30.641 202.8 30.2217 202.8C29.6839 202.8 29.2692 202.996 28.9775 203.388C28.6859 203.775 28.5378 204.365 28.5332 205.158V205.425C28.5332 206.227 28.6768 206.826 28.9639 207.223C29.2555 207.615 29.6748 207.811 30.2217 207.811ZM34.2002 205.233C34.2002 204.509 34.3438 203.857 34.6309 203.278C34.918 202.695 35.3213 202.248 35.8408 201.938C36.3604 201.624 36.9574 201.467 37.6318 201.467C38.6299 201.467 39.4388 201.788 40.0586 202.431C40.6829 203.073 41.0202 203.925 41.0703 204.987L41.0771 205.377C41.0771 206.106 40.9359 206.758 40.6533 207.332C40.3753 207.906 39.9743 208.351 39.4502 208.665C38.9307 208.979 38.3291 209.137 37.6455 209.137C36.6019 209.137 35.7656 208.79 35.1367 208.098C34.5124 207.4 34.2002 206.473 34.2002 205.315V205.233ZM35.8613 205.377C35.8613 206.138 36.0186 206.735 36.333 207.168C36.6475 207.596 37.085 207.811 37.6455 207.811C38.2061 207.811 38.6413 207.592 38.9512 207.154C39.2656 206.717 39.4229 206.076 39.4229 205.233C39.4229 204.486 39.2611 203.894 38.9375 203.456C38.6185 203.019 38.1833 202.8 37.6318 202.8C37.0895 202.8 36.6589 203.016 36.3398 203.449C36.0208 203.878 35.8613 204.52 35.8613 205.377ZM44.0234 201.604L44.0713 202.458C44.6182 201.797 45.3359 201.467 46.2246 201.467C47.765 201.467 48.5488 202.349 48.5762 204.112V209H46.915V204.208C46.915 203.739 46.8125 203.392 46.6074 203.169C46.4069 202.941 46.0765 202.827 45.6162 202.827C44.9463 202.827 44.4473 203.13 44.1191 203.736V209H42.458V201.604H44.0234ZM52.3564 199.806V201.604H53.6621V202.834H52.3564V206.963C52.3564 207.245 52.4111 207.451 52.5205 207.578C52.6344 207.701 52.835 207.763 53.1221 207.763C53.3135 207.763 53.5072 207.74 53.7031 207.694V208.979C53.3249 209.084 52.9603 209.137 52.6094 209.137C51.3333 209.137 50.6953 208.433 50.6953 207.024V202.834H49.4785V201.604H50.6953V199.806H52.3564ZM59.3564 209C59.2835 208.859 59.2197 208.629 59.165 208.31C58.6364 208.861 57.9893 209.137 57.2236 209.137C56.4808 209.137 55.8747 208.925 55.4053 208.501C54.9359 208.077 54.7012 207.553 54.7012 206.929C54.7012 206.14 54.9928 205.536 55.5762 205.117C56.1641 204.693 57.0026 204.481 58.0918 204.481H59.1104V203.996C59.1104 203.613 59.0033 203.308 58.7891 203.08C58.5749 202.848 58.249 202.731 57.8115 202.731C57.4333 202.731 57.1234 202.827 56.8818 203.019C56.6403 203.205 56.5195 203.445 56.5195 203.736H54.8584C54.8584 203.331 54.9928 202.952 55.2617 202.602C55.5306 202.246 55.8952 201.968 56.3555 201.768C56.8203 201.567 57.3376 201.467 57.9072 201.467C58.7731 201.467 59.4635 201.686 59.9785 202.123C60.4935 202.556 60.7578 203.167 60.7715 203.955V207.291C60.7715 207.956 60.8649 208.487 61.0518 208.884V209H59.3564ZM57.5312 207.804C57.8594 207.804 58.167 207.724 58.4541 207.564C58.7458 207.405 58.9645 207.191 59.1104 206.922V205.527H58.2148C57.5996 205.527 57.137 205.634 56.8271 205.849C56.5173 206.063 56.3623 206.366 56.3623 206.758C56.3623 207.077 56.4671 207.332 56.6768 207.523C56.891 207.71 57.1758 207.804 57.5312 207.804ZM64.2783 209H62.6172V201.604H64.2783V209ZM62.5146 199.683C62.5146 199.427 62.5944 199.215 62.7539 199.047C62.918 198.878 63.1504 198.794 63.4512 198.794C63.752 198.794 63.9844 198.878 64.1484 199.047C64.3125 199.215 64.3945 199.427 64.3945 199.683C64.3945 199.933 64.3125 200.143 64.1484 200.312C63.9844 200.476 63.752 200.558 63.4512 200.558C63.1504 200.558 62.918 200.476 62.7539 200.312C62.5944 200.143 62.5146 199.933 62.5146 199.683ZM67.6348 201.604L67.6826 202.458C68.2295 201.797 68.9473 201.467 69.8359 201.467C71.3763 201.467 72.1602 202.349 72.1875 204.112V209H70.5264V204.208C70.5264 203.739 70.4238 203.392 70.2188 203.169C70.0182 202.941 69.6878 202.827 69.2275 202.827C68.5576 202.827 68.0586 203.13 67.7305 203.736V209H66.0693V201.604H67.6348ZM77.1436 209.137C76.0908 209.137 75.2363 208.806 74.5801 208.146C73.9284 207.48 73.6025 206.596 73.6025 205.493V205.288C73.6025 204.55 73.7438 203.891 74.0264 203.312C74.3135 202.729 74.7145 202.276 75.2295 201.952C75.7445 201.629 76.3187 201.467 76.9521 201.467C77.9593 201.467 78.7363 201.788 79.2832 202.431C79.8346 203.073 80.1104 203.982 80.1104 205.158V205.828H75.2773C75.3275 206.439 75.5303 206.922 75.8857 207.277C76.2458 207.633 76.6969 207.811 77.2393 207.811C78.0003 207.811 78.6201 207.503 79.0986 206.888L79.9941 207.742C79.6979 208.184 79.3014 208.528 78.8047 208.774C78.3125 209.016 77.7588 209.137 77.1436 209.137ZM76.9453 202.8C76.4896 202.8 76.1204 202.959 75.8379 203.278C75.5599 203.597 75.3822 204.042 75.3047 204.611H78.4697V204.488C78.4333 203.932 78.2852 203.513 78.0254 203.23C77.7656 202.943 77.4056 202.8 76.9453 202.8ZM85.2783 203.121C85.0596 203.085 84.834 203.066 84.6016 203.066C83.8405 203.066 83.3278 203.358 83.0635 203.941V209H81.4023V201.604H82.9883L83.0293 202.431C83.4303 201.788 83.9863 201.467 84.6973 201.467C84.9342 201.467 85.1302 201.499 85.2852 201.562L85.2783 203.121Z" fill="#BBBBBB"/>
<g opacity="0.8">
<path d="M10 235C10 233.343 11.3431 232 13 232H95C96.6569 232 98 233.343 98 235V289C98 290.657 96.6569 292 95 292H13C11.3431 292 10 290.657 10 289V235Z" fill="#1E73FF"/>
<path d="M50.5137 261.454L51.208 255.003H58.0811V256.849H52.9834L52.6318 259.907C53.2236 259.567 53.8916 259.397 54.6357 259.397C55.8545 259.397 56.8008 259.787 57.4746 260.566C58.1543 261.346 58.4941 262.395 58.4941 263.713C58.4941 265.014 58.1191 266.051 57.3691 266.824C56.6191 267.592 55.5908 267.976 54.2842 267.976C53.1123 267.976 52.1396 267.645 51.3662 266.982C50.5986 266.314 50.1826 265.436 50.1182 264.346H52.1836C52.2656 264.967 52.4883 265.444 52.8516 265.778C53.2148 266.106 53.6895 266.271 54.2754 266.271C54.9316 266.271 55.4414 266.036 55.8047 265.567C56.1738 265.099 56.3584 264.46 56.3584 263.651C56.3584 262.872 56.1562 262.257 55.752 261.806C55.3477 261.349 54.791 261.12 54.082 261.12C53.6953 261.12 53.3672 261.173 53.0977 261.278C52.8281 261.378 52.5352 261.577 52.2188 261.876L50.5137 261.454Z" fill="white"/>
</g>
<g opacity="0.8">
<path d="M109 235C109 233.343 110.343 232 112 232H194C195.657 232 197 233.343 197 235V289C197 290.657 195.657 292 194 292H112C110.343 292 109 290.657 109 289V235Z" fill="#1E73FF"/>
<path d="M156.167 263.238H157.758V264.952H156.167V267.8H154.031V264.952H148.503L148.441 263.651L153.961 255.003H156.167V263.238ZM150.683 263.238H154.031V257.895L153.873 258.176L150.683 263.238Z" fill="white"/>
</g>
<g opacity="0.8">
<path d="M208 235C208 233.343 209.343 232 211 232H293C294.657 232 296 233.343 296 235V289C296 290.657 294.657 292 293 292H211C209.343 292 208 290.657 208 289V235Z" fill="#1E73FF"/>
<path d="M250.412 260.426H251.713C252.369 260.42 252.888 260.25 253.269 259.916C253.655 259.582 253.849 259.099 253.849 258.466C253.849 257.856 253.688 257.385 253.365 257.051C253.049 256.711 252.562 256.541 251.906 256.541C251.332 256.541 250.86 256.708 250.491 257.042C250.122 257.37 249.938 257.801 249.938 258.334H247.802C247.802 257.678 247.975 257.08 248.32 256.541C248.672 256.002 249.158 255.583 249.779 255.284C250.406 254.979 251.106 254.827 251.88 254.827C253.157 254.827 254.159 255.149 254.886 255.794C255.618 256.433 255.984 257.323 255.984 258.466C255.984 259.04 255.8 259.582 255.431 260.092C255.067 260.596 254.596 260.977 254.016 261.234C254.719 261.475 255.252 261.853 255.615 262.368C255.984 262.884 256.169 263.499 256.169 264.214C256.169 265.362 255.773 266.276 254.982 266.956C254.197 267.636 253.163 267.976 251.88 267.976C250.649 267.976 249.642 267.647 248.856 266.991C248.071 266.335 247.679 265.462 247.679 264.372H249.814C249.814 264.935 250.002 265.392 250.377 265.743C250.758 266.095 251.268 266.271 251.906 266.271C252.568 266.271 253.09 266.095 253.471 265.743C253.852 265.392 254.042 264.882 254.042 264.214C254.042 263.54 253.843 263.021 253.444 262.658C253.046 262.295 252.454 262.113 251.669 262.113H250.412V260.426Z" fill="white"/>
</g>
<g opacity="0.8">
<path d="M307 235C307 233.343 308.343 232 310 232H392C393.657 232 395 233.343 395 235V289C395 290.657 393.657 292 392 292H310C308.343 292 307 290.657 307 289V235Z" fill="#1E73FF"/>
<path d="M355.547 267.8H346.942V266.332L351.205 261.683C351.82 260.997 352.257 260.426 352.515 259.969C352.778 259.506 352.91 259.043 352.91 258.58C352.91 257.971 352.737 257.479 352.392 257.104C352.052 256.729 351.592 256.541 351.012 256.541C350.32 256.541 349.784 256.752 349.403 257.174C349.022 257.596 348.832 258.173 348.832 258.905H346.696C346.696 258.126 346.872 257.426 347.224 256.805C347.581 256.178 348.088 255.691 348.744 255.346C349.406 255 350.168 254.827 351.029 254.827C352.271 254.827 353.25 255.141 353.965 255.768C354.686 256.389 355.046 257.25 355.046 258.352C355.046 258.99 354.864 259.661 354.501 260.364C354.144 261.062 353.555 261.855 352.734 262.746L349.605 266.095H355.547V267.8Z" fill="white"/>
</g>
<g opacity="0.8">
<path d="M406 235C406 233.343 407.343 232 409 232H491C492.657 232 494 233.343 494 235V289C494 290.657 492.657 292 491 292H409C407.343 292 406 290.657 406 289V235Z" fill="#1E73FF"/>
<path d="M451.726 267.8H449.599V257.525L446.461 258.598V256.796L451.453 254.959H451.726V267.8Z" fill="white"/>
</g>
<path d="M103.5 302L103.5 350" stroke="#AAAAAA" stroke-dasharray="4 2"/>
<path d="M202.5 302L202.5 350" stroke="#AAAAAA" stroke-dasharray="4 2"/>
<path d="M301.5 302L301.5 350" stroke="#AAAAAA" stroke-dasharray="4 2"/>
<path d="M400.5 302L400.5 350" stroke="#AAAAAA" stroke-dasharray="4 2"/>
<path d="M38.791 315.233C38.791 314.509 38.9323 313.857 39.2148 313.278C39.502 312.7 39.8984 312.253 40.4043 311.938C40.9147 311.624 41.4958 311.467 42.1475 311.467C43.1546 311.467 43.9681 311.815 44.5879 312.513C45.2122 313.21 45.5244 314.137 45.5244 315.295V315.384C45.5244 316.104 45.3854 316.751 45.1074 317.325C44.834 317.895 44.4398 318.339 43.9248 318.658C43.4144 318.977 42.8265 319.137 42.1611 319.137C41.1585 319.137 40.3451 318.788 39.7207 318.091C39.1009 317.394 38.791 316.471 38.791 315.322V315.233ZM40.0625 315.384C40.0625 316.204 40.2516 316.863 40.6299 317.359C41.0127 317.856 41.5231 318.104 42.1611 318.104C42.8037 318.104 43.3141 317.854 43.6924 317.353C44.0706 316.847 44.2598 316.14 44.2598 315.233C44.2598 314.422 44.0661 313.766 43.6787 313.265C43.2959 312.759 42.7855 312.506 42.1475 312.506C41.5231 312.506 41.0195 312.754 40.6367 313.251C40.2539 313.748 40.0625 314.459 40.0625 315.384ZM50.6855 312.738C50.4941 312.706 50.2868 312.69 50.0635 312.69C49.234 312.69 48.6712 313.044 48.375 313.75V319H47.1104V311.604H48.3408L48.3613 312.458C48.776 311.797 49.3639 311.467 50.125 311.467C50.3711 311.467 50.5579 311.499 50.6855 311.562V312.738ZM51.4102 315.24C51.4102 314.105 51.679 313.194 52.2168 312.506C52.7546 311.813 53.4587 311.467 54.3291 311.467C55.195 311.467 55.8809 311.763 56.3867 312.355V308.5H57.6514V319H56.4893L56.4277 318.207C55.9219 318.827 55.2178 319.137 54.3154 319.137C53.4587 319.137 52.7591 318.786 52.2168 318.084C51.679 317.382 51.4102 316.466 51.4102 315.336V315.24ZM52.6748 315.384C52.6748 316.222 52.848 316.879 53.1943 317.353C53.5407 317.826 54.0192 318.063 54.6299 318.063C55.432 318.063 56.0176 317.703 56.3867 316.983V313.586C56.0085 312.889 55.4274 312.54 54.6436 312.54C54.0238 312.54 53.5407 312.779 53.1943 313.258C52.848 313.736 52.6748 314.445 52.6748 315.384ZM62.6895 319.137C61.6868 319.137 60.8711 318.809 60.2422 318.152C59.6133 317.492 59.2988 316.61 59.2988 315.507V315.274C59.2988 314.541 59.4378 313.887 59.7158 313.312C59.9984 312.734 60.3903 312.283 60.8916 311.959C61.3975 311.631 61.9443 311.467 62.5322 311.467C63.4938 311.467 64.2412 311.784 64.7744 312.417C65.3076 313.05 65.5742 313.957 65.5742 315.138V315.664H60.5635C60.5817 316.393 60.7936 316.983 61.1992 317.435C61.6094 317.881 62.1289 318.104 62.7578 318.104C63.2044 318.104 63.5827 318.013 63.8926 317.831C64.2025 317.649 64.4736 317.407 64.7061 317.106L65.4785 317.708C64.8587 318.66 63.929 319.137 62.6895 319.137ZM62.5322 312.506C62.0218 312.506 61.5934 312.693 61.2471 313.066C60.9007 313.436 60.6865 313.955 60.6045 314.625H64.3096V314.529C64.2731 313.887 64.0999 313.39 63.79 313.039C63.4801 312.684 63.0609 312.506 62.5322 312.506ZM70.6191 312.738C70.4277 312.706 70.2204 312.69 69.9971 312.69C69.1676 312.69 68.6048 313.044 68.3086 313.75V319H67.0439V311.604H68.2744L68.2949 312.458C68.7096 311.797 69.2975 311.467 70.0586 311.467C70.3047 311.467 70.4915 311.499 70.6191 311.562V312.738Z" fill="#666666"/>
<path d="M51.7578 338.544H46.8096V336.496H51.7578V338.544ZM61.2061 338.184H62.6562V340.231H61.2061V343H58.666V340.231H53.4189L53.3047 338.632L58.6396 330.203H61.2061V338.184ZM55.8359 338.184H58.666V333.666L58.499 333.956L55.8359 338.184Z" fill="#1E73FF"/>
<path d="M137.791 315.233C137.791 314.509 137.932 313.857 138.215 313.278C138.502 312.7 138.898 312.253 139.404 311.938C139.915 311.624 140.496 311.467 141.147 311.467C142.155 311.467 142.968 311.815 143.588 312.513C144.212 313.21 144.524 314.137 144.524 315.295V315.384C144.524 316.104 144.385 316.751 144.107 317.325C143.834 317.895 143.44 318.339 142.925 318.658C142.414 318.977 141.826 319.137 141.161 319.137C140.159 319.137 139.345 318.788 138.721 318.091C138.101 317.394 137.791 316.471 137.791 315.322V315.233ZM139.062 315.384C139.062 316.204 139.252 316.863 139.63 317.359C140.013 317.856 140.523 318.104 141.161 318.104C141.804 318.104 142.314 317.854 142.692 317.353C143.071 316.847 143.26 316.14 143.26 315.233C143.26 314.422 143.066 313.766 142.679 313.265C142.296 312.759 141.785 312.506 141.147 312.506C140.523 312.506 140.02 312.754 139.637 313.251C139.254 313.748 139.062 314.459 139.062 315.384ZM149.686 312.738C149.494 312.706 149.287 312.69 149.063 312.69C148.234 312.69 147.671 313.044 147.375 313.75V319H146.11V311.604H147.341L147.361 312.458C147.776 311.797 148.364 311.467 149.125 311.467C149.371 311.467 149.558 311.499 149.686 311.562V312.738ZM150.41 315.24C150.41 314.105 150.679 313.194 151.217 312.506C151.755 311.813 152.459 311.467 153.329 311.467C154.195 311.467 154.881 311.763 155.387 312.355V308.5H156.651V319H155.489L155.428 318.207C154.922 318.827 154.218 319.137 153.315 319.137C152.459 319.137 151.759 318.786 151.217 318.084C150.679 317.382 150.41 316.466 150.41 315.336V315.24ZM151.675 315.384C151.675 316.222 151.848 316.879 152.194 317.353C152.541 317.826 153.019 318.063 153.63 318.063C154.432 318.063 155.018 317.703 155.387 316.983V313.586C155.008 312.889 154.427 312.54 153.644 312.54C153.024 312.54 152.541 312.779 152.194 313.258C151.848 313.736 151.675 314.445 151.675 315.384ZM161.689 319.137C160.687 319.137 159.871 318.809 159.242 318.152C158.613 317.492 158.299 316.61 158.299 315.507V315.274C158.299 314.541 158.438 313.887 158.716 313.312C158.998 312.734 159.39 312.283 159.892 311.959C160.397 311.631 160.944 311.467 161.532 311.467C162.494 311.467 163.241 311.784 163.774 312.417C164.308 313.05 164.574 313.957 164.574 315.138V315.664H159.563C159.582 316.393 159.794 316.983 160.199 317.435C160.609 317.881 161.129 318.104 161.758 318.104C162.204 318.104 162.583 318.013 162.893 317.831C163.202 317.649 163.474 317.407 163.706 317.106L164.479 317.708C163.859 318.66 162.929 319.137 161.689 319.137ZM161.532 312.506C161.022 312.506 160.593 312.693 160.247 313.066C159.901 313.436 159.687 313.955 159.604 314.625H163.31V314.529C163.273 313.887 163.1 313.39 162.79 313.039C162.48 312.684 162.061 312.506 161.532 312.506ZM169.619 312.738C169.428 312.706 169.22 312.69 168.997 312.69C168.168 312.69 167.605 313.044 167.309 313.75V319H166.044V311.604H167.274L167.295 312.458C167.71 311.797 168.298 311.467 169.059 311.467C169.305 311.467 169.492 311.499 169.619 311.562V312.738Z" fill="#666666"/>
<path d="M150.758 338.544H145.81V336.496H150.758V338.544ZM155.275 335.477H156.629C157.273 335.477 157.751 335.315 158.062 334.993C158.372 334.671 158.527 334.243 158.527 333.71C158.527 333.194 158.372 332.793 158.062 332.506C157.757 332.219 157.335 332.075 156.796 332.075C156.31 332.075 155.902 332.21 155.574 332.479C155.246 332.743 155.082 333.089 155.082 333.517H152.542C152.542 332.849 152.721 332.251 153.078 331.724C153.441 331.19 153.945 330.774 154.59 330.476C155.24 330.177 155.955 330.027 156.734 330.027C158.088 330.027 159.148 330.353 159.916 331.003C160.684 331.647 161.067 332.538 161.067 333.675C161.067 334.261 160.889 334.8 160.531 335.292C160.174 335.784 159.705 336.162 159.125 336.426C159.846 336.684 160.382 337.07 160.733 337.586C161.091 338.102 161.27 338.711 161.27 339.414C161.27 340.551 160.854 341.462 160.021 342.147C159.195 342.833 158.1 343.176 156.734 343.176C155.457 343.176 154.411 342.839 153.597 342.165C152.788 341.491 152.384 340.601 152.384 339.493H154.924C154.924 339.974 155.103 340.366 155.46 340.671C155.823 340.976 156.269 341.128 156.796 341.128C157.399 341.128 157.871 340.97 158.211 340.653C158.557 340.331 158.729 339.906 158.729 339.379C158.729 338.102 158.026 337.463 156.62 337.463H155.275V335.477Z" fill="#1E73FF"/>
<path d="M236.791 315.233C236.791 314.509 236.932 313.857 237.215 313.278C237.502 312.7 237.898 312.253 238.404 311.938C238.915 311.624 239.496 311.467 240.147 311.467C241.155 311.467 241.968 311.815 242.588 312.513C243.212 313.21 243.524 314.137 243.524 315.295V315.384C243.524 316.104 243.385 316.751 243.107 317.325C242.834 317.895 242.44 318.339 241.925 318.658C241.414 318.977 240.826 319.137 240.161 319.137C239.159 319.137 238.345 318.788 237.721 318.091C237.101 317.394 236.791 316.471 236.791 315.322V315.233ZM238.062 315.384C238.062 316.204 238.252 316.863 238.63 317.359C239.013 317.856 239.523 318.104 240.161 318.104C240.804 318.104 241.314 317.854 241.692 317.353C242.071 316.847 242.26 316.14 242.26 315.233C242.26 314.422 242.066 313.766 241.679 313.265C241.296 312.759 240.785 312.506 240.147 312.506C239.523 312.506 239.02 312.754 238.637 313.251C238.254 313.748 238.062 314.459 238.062 315.384ZM248.686 312.738C248.494 312.706 248.287 312.69 248.063 312.69C247.234 312.69 246.671 313.044 246.375 313.75V319H245.11V311.604H246.341L246.361 312.458C246.776 311.797 247.364 311.467 248.125 311.467C248.371 311.467 248.558 311.499 248.686 311.562V312.738ZM249.41 315.24C249.41 314.105 249.679 313.194 250.217 312.506C250.755 311.813 251.459 311.467 252.329 311.467C253.195 311.467 253.881 311.763 254.387 312.355V308.5H255.651V319H254.489L254.428 318.207C253.922 318.827 253.218 319.137 252.315 319.137C251.459 319.137 250.759 318.786 250.217 318.084C249.679 317.382 249.41 316.466 249.41 315.336V315.24ZM250.675 315.384C250.675 316.222 250.848 316.879 251.194 317.353C251.541 317.826 252.019 318.063 252.63 318.063C253.432 318.063 254.018 317.703 254.387 316.983V313.586C254.008 312.889 253.427 312.54 252.644 312.54C252.024 312.54 251.541 312.779 251.194 313.258C250.848 313.736 250.675 314.445 250.675 315.384ZM260.689 319.137C259.687 319.137 258.871 318.809 258.242 318.152C257.613 317.492 257.299 316.61 257.299 315.507V315.274C257.299 314.541 257.438 313.887 257.716 313.312C257.998 312.734 258.39 312.283 258.892 311.959C259.397 311.631 259.944 311.467 260.532 311.467C261.494 311.467 262.241 311.784 262.774 312.417C263.308 313.05 263.574 313.957 263.574 315.138V315.664H258.563C258.582 316.393 258.794 316.983 259.199 317.435C259.609 317.881 260.129 318.104 260.758 318.104C261.204 318.104 261.583 318.013 261.893 317.831C262.202 317.649 262.474 317.407 262.706 317.106L263.479 317.708C262.859 318.66 261.929 319.137 260.689 319.137ZM260.532 312.506C260.022 312.506 259.593 312.693 259.247 313.066C258.901 313.436 258.687 313.955 258.604 314.625H262.31V314.529C262.273 313.887 262.1 313.39 261.79 313.039C261.48 312.684 261.061 312.506 260.532 312.506ZM268.619 312.738C268.428 312.706 268.22 312.69 267.997 312.69C267.168 312.69 266.605 313.044 266.309 313.75V319H265.044V311.604H266.274L266.295 312.458C266.71 311.797 267.298 311.467 268.059 311.467C268.305 311.467 268.492 311.499 268.619 311.562V312.738Z" fill="#666666"/>
<path d="M249.758 338.544H244.81V336.496H249.758V338.544ZM260.463 343H251.691V341.26L255.831 336.848C256.399 336.227 256.818 335.685 257.088 335.222C257.363 334.759 257.501 334.319 257.501 333.903C257.501 333.335 257.357 332.89 257.07 332.567C256.783 332.239 256.373 332.075 255.84 332.075C255.266 332.075 254.812 332.274 254.478 332.673C254.149 333.065 253.985 333.584 253.985 334.229H251.437C251.437 333.449 251.621 332.737 251.99 332.093C252.365 331.448 252.893 330.944 253.572 330.581C254.252 330.212 255.022 330.027 255.884 330.027C257.202 330.027 258.225 330.344 258.951 330.977C259.684 331.609 260.05 332.503 260.05 333.657C260.05 334.29 259.886 334.935 259.558 335.591C259.229 336.247 258.667 337.012 257.87 337.885L254.961 340.952H260.463V343Z" fill="#1E73FF"/>
<path d="M335.791 315.233C335.791 314.509 335.932 313.857 336.215 313.278C336.502 312.7 336.898 312.253 337.404 311.938C337.915 311.624 338.496 311.467 339.147 311.467C340.155 311.467 340.968 311.815 341.588 312.513C342.212 313.21 342.524 314.137 342.524 315.295V315.384C342.524 316.104 342.385 316.751 342.107 317.325C341.834 317.895 341.44 318.339 340.925 318.658C340.414 318.977 339.826 319.137 339.161 319.137C338.159 319.137 337.345 318.788 336.721 318.091C336.101 317.394 335.791 316.471 335.791 315.322V315.233ZM337.062 315.384C337.062 316.204 337.252 316.863 337.63 317.359C338.013 317.856 338.523 318.104 339.161 318.104C339.804 318.104 340.314 317.854 340.692 317.353C341.071 316.847 341.26 316.14 341.26 315.233C341.26 314.422 341.066 313.766 340.679 313.265C340.296 312.759 339.785 312.506 339.147 312.506C338.523 312.506 338.02 312.754 337.637 313.251C337.254 313.748 337.062 314.459 337.062 315.384ZM347.686 312.738C347.494 312.706 347.287 312.69 347.063 312.69C346.234 312.69 345.671 313.044 345.375 313.75V319H344.11V311.604H345.341L345.361 312.458C345.776 311.797 346.364 311.467 347.125 311.467C347.371 311.467 347.558 311.499 347.686 311.562V312.738ZM348.41 315.24C348.41 314.105 348.679 313.194 349.217 312.506C349.755 311.813 350.459 311.467 351.329 311.467C352.195 311.467 352.881 311.763 353.387 312.355V308.5H354.651V319H353.489L353.428 318.207C352.922 318.827 352.218 319.137 351.315 319.137C350.459 319.137 349.759 318.786 349.217 318.084C348.679 317.382 348.41 316.466 348.41 315.336V315.24ZM349.675 315.384C349.675 316.222 349.848 316.879 350.194 317.353C350.541 317.826 351.019 318.063 351.63 318.063C352.432 318.063 353.018 317.703 353.387 316.983V313.586C353.008 312.889 352.427 312.54 351.644 312.54C351.024 312.54 350.541 312.779 350.194 313.258C349.848 313.736 349.675 314.445 349.675 315.384ZM359.689 319.137C358.687 319.137 357.871 318.809 357.242 318.152C356.613 317.492 356.299 316.61 356.299 315.507V315.274C356.299 314.541 356.438 313.887 356.716 313.312C356.998 312.734 357.39 312.283 357.892 311.959C358.397 311.631 358.944 311.467 359.532 311.467C360.494 311.467 361.241 311.784 361.774 312.417C362.308 313.05 362.574 313.957 362.574 315.138V315.664H357.563C357.582 316.393 357.794 316.983 358.199 317.435C358.609 317.881 359.129 318.104 359.758 318.104C360.204 318.104 360.583 318.013 360.893 317.831C361.202 317.649 361.474 317.407 361.706 317.106L362.479 317.708C361.859 318.66 360.929 319.137 359.689 319.137ZM359.532 312.506C359.022 312.506 358.593 312.693 358.247 313.066C357.901 313.436 357.687 313.955 357.604 314.625H361.31V314.529C361.273 313.887 361.1 313.39 360.79 313.039C360.48 312.684 360.061 312.506 359.532 312.506ZM367.619 312.738C367.428 312.706 367.22 312.69 366.997 312.69C366.168 312.69 365.605 313.044 365.309 313.75V319H364.044V311.604H365.274L365.295 312.458C365.71 311.797 366.298 311.467 367.059 311.467C367.305 311.467 367.492 311.499 367.619 311.562V312.738Z" fill="#666666"/>
<path d="M348.758 338.544H343.81V336.496H348.758V338.544ZM356.861 343H354.321V333.209L351.289 334.149V332.084L356.589 330.186H356.861V343Z" fill="#1E73FF"/>
<path d="M434.791 315.233C434.791 314.509 434.932 313.857 435.215 313.278C435.502 312.7 435.898 312.253 436.404 311.938C436.915 311.624 437.496 311.467 438.147 311.467C439.155 311.467 439.968 311.815 440.588 312.513C441.212 313.21 441.524 314.137 441.524 315.295V315.384C441.524 316.104 441.385 316.751 441.107 317.325C440.834 317.895 440.44 318.339 439.925 318.658C439.414 318.977 438.826 319.137 438.161 319.137C437.159 319.137 436.345 318.788 435.721 318.091C435.101 317.394 434.791 316.471 434.791 315.322V315.233ZM436.062 315.384C436.062 316.204 436.252 316.863 436.63 317.359C437.013 317.856 437.523 318.104 438.161 318.104C438.804 318.104 439.314 317.854 439.692 317.353C440.071 316.847 440.26 316.14 440.26 315.233C440.26 314.422 440.066 313.766 439.679 313.265C439.296 312.759 438.785 312.506 438.147 312.506C437.523 312.506 437.02 312.754 436.637 313.251C436.254 313.748 436.062 314.459 436.062 315.384ZM446.686 312.738C446.494 312.706 446.287 312.69 446.063 312.69C445.234 312.69 444.671 313.044 444.375 313.75V319H443.11V311.604H444.341L444.361 312.458C444.776 311.797 445.364 311.467 446.125 311.467C446.371 311.467 446.558 311.499 446.686 311.562V312.738ZM447.41 315.24C447.41 314.105 447.679 313.194 448.217 312.506C448.755 311.813 449.459 311.467 450.329 311.467C451.195 311.467 451.881 311.763 452.387 312.355V308.5H453.651V319H452.489L452.428 318.207C451.922 318.827 451.218 319.137 450.315 319.137C449.459 319.137 448.759 318.786 448.217 318.084C447.679 317.382 447.41 316.466 447.41 315.336V315.24ZM448.675 315.384C448.675 316.222 448.848 316.879 449.194 317.353C449.541 317.826 450.019 318.063 450.63 318.063C451.432 318.063 452.018 317.703 452.387 316.983V313.586C452.008 312.889 451.427 312.54 450.644 312.54C450.024 312.54 449.541 312.779 449.194 313.258C448.848 313.736 448.675 314.445 448.675 315.384ZM458.689 319.137C457.687 319.137 456.871 318.809 456.242 318.152C455.613 317.492 455.299 316.61 455.299 315.507V315.274C455.299 314.541 455.438 313.887 455.716 313.312C455.998 312.734 456.39 312.283 456.892 311.959C457.397 311.631 457.944 311.467 458.532 311.467C459.494 311.467 460.241 311.784 460.774 312.417C461.308 313.05 461.574 313.957 461.574 315.138V315.664H456.563C456.582 316.393 456.794 316.983 457.199 317.435C457.609 317.881 458.129 318.104 458.758 318.104C459.204 318.104 459.583 318.013 459.893 317.831C460.202 317.649 460.474 317.407 460.706 317.106L461.479 317.708C460.859 318.66 459.929 319.137 458.689 319.137ZM458.532 312.506C458.022 312.506 457.593 312.693 457.247 313.066C456.901 313.436 456.687 313.955 456.604 314.625H460.31V314.529C460.273 313.887 460.1 313.39 459.79 313.039C459.48 312.684 459.061 312.506 458.532 312.506ZM466.619 312.738C466.428 312.706 466.22 312.69 465.997 312.69C465.168 312.69 464.605 313.044 464.309 313.75V319H463.044V311.604H464.274L464.295 312.458C464.71 311.797 465.298 311.467 466.059 311.467C466.305 311.467 466.492 311.499 466.619 311.562V312.738Z" fill="#666666"/>
<path d="M454.815 337.709C454.815 339.479 454.449 340.832 453.717 341.77C452.984 342.707 451.912 343.176 450.5 343.176C449.105 343.176 448.039 342.716 447.301 341.796C446.562 340.876 446.185 339.558 446.167 337.841V335.485C446.167 333.698 446.536 332.342 447.274 331.416C448.019 330.49 449.088 330.027 450.482 330.027C451.877 330.027 452.943 330.487 453.682 331.407C454.42 332.321 454.798 333.637 454.815 335.354V337.709ZM452.275 335.125C452.275 334.064 452.129 333.294 451.836 332.813C451.549 332.327 451.098 332.084 450.482 332.084C449.885 332.084 449.442 332.315 449.155 332.778C448.874 333.235 448.725 333.953 448.707 334.932V338.043C448.707 339.086 448.848 339.862 449.129 340.372C449.416 340.876 449.873 341.128 450.5 341.128C451.121 341.128 451.569 340.885 451.845 340.398C452.12 339.912 452.264 339.168 452.275 338.166V335.125Z" fill="#1E73FF"/>
<rect x="1" y="419" width="502" height="138" rx="5" fill="#F7F7F7" stroke="#AAAAAA" stroke-width="2" stroke-dasharray="6 4"/>
<path d="M5.63965 395.819C5.1748 395.756 4.77376 395.724 4.43652 395.724C3.54329 395.724 3.09668 396.143 3.09668 396.981V397.604H4.60059V398.834H3.09668V405H1.43555V398.834H0.307617V397.604H1.43555V396.94C1.4401 396.106 1.6862 395.468 2.17383 395.026C2.66602 394.58 3.35872 394.356 4.25195 394.356C4.80794 394.356 5.82422 394.466 7.30078 394.685V405H5.63965V395.819ZM12.3936 405.137C11.3408 405.137 10.4863 404.806 9.83008 404.146C9.17839 403.48 8.85254 402.596 8.85254 401.493V401.288C8.85254 400.55 8.99382 399.891 9.27637 399.312C9.56348 398.729 9.96452 398.276 10.4795 397.952C10.9945 397.629 11.5687 397.467 12.2021 397.467C13.2093 397.467 13.9863 397.788 14.5332 398.431C15.0846 399.073 15.3604 399.982 15.3604 401.158V401.828H10.5273C10.5775 402.439 10.7803 402.922 11.1357 403.277C11.4958 403.633 11.9469 403.811 12.4893 403.811C13.2503 403.811 13.8701 403.503 14.3486 402.888L15.2441 403.742C14.9479 404.184 14.5514 404.528 14.0547 404.774C13.5625 405.016 13.0088 405.137 12.3936 405.137ZM12.1953 398.8C11.7396 398.8 11.3704 398.959 11.0879 399.278C10.8099 399.597 10.6322 400.042 10.5547 400.611H13.7197V400.488C13.6833 399.932 13.5352 399.513 13.2754 399.23C13.0156 398.943 12.6556 398.8 12.1953 398.8ZM19.3115 400.037L20.7197 397.604H22.5654L20.3027 401.247L22.6406 405H20.8086L19.332 402.471L17.8623 405H16.0166L18.3545 401.247L16.0986 397.604H17.9307L19.3115 400.037ZM30.2217 403.811C30.6364 403.811 30.9805 403.69 31.2539 403.448C31.5273 403.207 31.6732 402.908 31.6914 402.553H33.2568C33.2386 403.013 33.0951 403.444 32.8262 403.845C32.5573 404.241 32.1927 404.556 31.7324 404.788C31.2721 405.021 30.7754 405.137 30.2422 405.137C29.2077 405.137 28.3874 404.802 27.7812 404.132C27.1751 403.462 26.8721 402.537 26.8721 401.356V401.186C26.8721 400.06 27.1729 399.16 27.7744 398.485C28.376 397.806 29.1963 397.467 30.2354 397.467C31.1149 397.467 31.8304 397.724 32.3818 398.239C32.9378 398.75 33.2295 399.422 33.2568 400.256H31.6914C31.6732 399.832 31.5273 399.483 31.2539 399.21C30.985 398.937 30.641 398.8 30.2217 398.8C29.6839 398.8 29.2692 398.996 28.9775 399.388C28.6859 399.775 28.5378 400.365 28.5332 401.158V401.425C28.5332 402.227 28.6768 402.826 28.9639 403.223C29.2555 403.615 29.6748 403.811 30.2217 403.811ZM34.2002 401.233C34.2002 400.509 34.3438 399.857 34.6309 399.278C34.918 398.695 35.3213 398.248 35.8408 397.938C36.3604 397.624 36.9574 397.467 37.6318 397.467C38.6299 397.467 39.4388 397.788 40.0586 398.431C40.6829 399.073 41.0202 399.925 41.0703 400.987L41.0771 401.377C41.0771 402.106 40.9359 402.758 40.6533 403.332C40.3753 403.906 39.9743 404.351 39.4502 404.665C38.9307 404.979 38.3291 405.137 37.6455 405.137C36.6019 405.137 35.7656 404.79 35.1367 404.098C34.5124 403.4 34.2002 402.473 34.2002 401.315V401.233ZM35.8613 401.377C35.8613 402.138 36.0186 402.735 36.333 403.168C36.6475 403.596 37.085 403.811 37.6455 403.811C38.2061 403.811 38.6413 403.592 38.9512 403.154C39.2656 402.717 39.4229 402.076 39.4229 401.233C39.4229 400.486 39.2611 399.894 38.9375 399.456C38.6185 399.019 38.1833 398.8 37.6318 398.8C37.0895 398.8 36.6589 399.016 36.3398 399.449C36.0208 399.878 35.8613 400.52 35.8613 401.377ZM44.0234 397.604L44.0713 398.458C44.6182 397.797 45.3359 397.467 46.2246 397.467C47.765 397.467 48.5488 398.349 48.5762 400.112V405H46.915V400.208C46.915 399.739 46.8125 399.392 46.6074 399.169C46.4069 398.941 46.0765 398.827 45.6162 398.827C44.9463 398.827 44.4473 399.13 44.1191 399.736V405H42.458V397.604H44.0234ZM52.3564 395.806V397.604H53.6621V398.834H52.3564V402.963C52.3564 403.245 52.4111 403.451 52.5205 403.578C52.6344 403.701 52.835 403.763 53.1221 403.763C53.3135 403.763 53.5072 403.74 53.7031 403.694V404.979C53.3249 405.084 52.9603 405.137 52.6094 405.137C51.3333 405.137 50.6953 404.433 50.6953 403.024V398.834H49.4785V397.604H50.6953V395.806H52.3564ZM59.3564 405C59.2835 404.859 59.2197 404.629 59.165 404.31C58.6364 404.861 57.9893 405.137 57.2236 405.137C56.4808 405.137 55.8747 404.925 55.4053 404.501C54.9359 404.077 54.7012 403.553 54.7012 402.929C54.7012 402.14 54.9928 401.536 55.5762 401.117C56.1641 400.693 57.0026 400.481 58.0918 400.481H59.1104V399.996C59.1104 399.613 59.0033 399.308 58.7891 399.08C58.5749 398.848 58.249 398.731 57.8115 398.731C57.4333 398.731 57.1234 398.827 56.8818 399.019C56.6403 399.205 56.5195 399.445 56.5195 399.736H54.8584C54.8584 399.331 54.9928 398.952 55.2617 398.602C55.5306 398.246 55.8952 397.968 56.3555 397.768C56.8203 397.567 57.3376 397.467 57.9072 397.467C58.7731 397.467 59.4635 397.686 59.9785 398.123C60.4935 398.556 60.7578 399.167 60.7715 399.955V403.291C60.7715 403.956 60.8649 404.487 61.0518 404.884V405H59.3564ZM57.5312 403.804C57.8594 403.804 58.167 403.724 58.4541 403.564C58.7458 403.405 58.9645 403.191 59.1104 402.922V401.527H58.2148C57.5996 401.527 57.137 401.634 56.8271 401.849C56.5173 402.063 56.3623 402.366 56.3623 402.758C56.3623 403.077 56.4671 403.332 56.6768 403.523C56.891 403.71 57.1758 403.804 57.5312 403.804ZM64.2783 405H62.6172V397.604H64.2783V405ZM62.5146 395.683C62.5146 395.427 62.5944 395.215 62.7539 395.047C62.918 394.878 63.1504 394.794 63.4512 394.794C63.752 394.794 63.9844 394.878 64.1484 395.047C64.3125 395.215 64.3945 395.427 64.3945 395.683C64.3945 395.933 64.3125 396.143 64.1484 396.312C63.9844 396.476 63.752 396.558 63.4512 396.558C63.1504 396.558 62.918 396.476 62.7539 396.312C62.5944 396.143 62.5146 395.933 62.5146 395.683ZM67.6348 397.604L67.6826 398.458C68.2295 397.797 68.9473 397.467 69.8359 397.467C71.3763 397.467 72.1602 398.349 72.1875 400.112V405H70.5264V400.208C70.5264 399.739 70.4238 399.392 70.2188 399.169C70.0182 398.941 69.6878 398.827 69.2275 398.827C68.5576 398.827 68.0586 399.13 67.7305 399.736V405H66.0693V397.604H67.6348ZM77.1436 405.137C76.0908 405.137 75.2363 404.806 74.5801 404.146C73.9284 403.48 73.6025 402.596 73.6025 401.493V401.288C73.6025 400.55 73.7438 399.891 74.0264 399.312C74.3135 398.729 74.7145 398.276 75.2295 397.952C75.7445 397.629 76.3187 397.467 76.9521 397.467C77.9593 397.467 78.7363 397.788 79.2832 398.431C79.8346 399.073 80.1104 399.982 80.1104 401.158V401.828H75.2773C75.3275 402.439 75.5303 402.922 75.8857 403.277C76.2458 403.633 76.6969 403.811 77.2393 403.811C78.0003 403.811 78.6201 403.503 79.0986 402.888L79.9941 403.742C79.6979 404.184 79.3014 404.528 78.8047 404.774C78.3125 405.016 77.7588 405.137 77.1436 405.137ZM76.9453 398.8C76.4896 398.8 76.1204 398.959 75.8379 399.278C75.5599 399.597 75.3822 400.042 75.3047 400.611H78.4697V400.488C78.4333 399.932 78.2852 399.513 78.0254 399.23C77.7656 398.943 77.4056 398.8 76.9453 398.8ZM85.2783 399.121C85.0596 399.085 84.834 399.066 84.6016 399.066C83.8405 399.066 83.3278 399.358 83.0635 399.941V405H81.4023V397.604H82.9883L83.0293 398.431C83.4303 397.788 83.9863 397.467 84.6973 397.467C84.9342 397.467 85.1302 397.499 85.2852 397.562L85.2783 399.121Z" fill="#BBBBBB"/>
<g opacity="0.8">
<path d="M10 431C10 429.343 11.3431 428 13 428H95C96.6569 428 98 429.343 98 431V485C98 486.657 96.6569 488 95 488H13C11.3431 488 10 486.657 10 485V431Z" fill="#1E73FF"/>
<path d="M50.5137 457.454L51.208 451.003H58.0811V452.849H52.9834L52.6318 455.907C53.2236 455.567 53.8916 455.397 54.6357 455.397C55.8545 455.397 56.8008 455.787 57.4746 456.566C58.1543 457.346 58.4941 458.395 58.4941 459.713C58.4941 461.014 58.1191 462.051 57.3691 462.824C56.6191 463.592 55.5908 463.976 54.2842 463.976C53.1123 463.976 52.1396 463.645 51.3662 462.982C50.5986 462.314 50.1826 461.436 50.1182 460.346H52.1836C52.2656 460.967 52.4883 461.444 52.8516 461.778C53.2148 462.106 53.6895 462.271 54.2754 462.271C54.9316 462.271 55.4414 462.036 55.8047 461.567C56.1738 461.099 56.3584 460.46 56.3584 459.651C56.3584 458.872 56.1562 458.257 55.752 457.806C55.3477 457.349 54.791 457.12 54.082 457.12C53.6953 457.12 53.3672 457.173 53.0977 457.278C52.8281 457.378 52.5352 457.577 52.2188 457.876L50.5137 457.454Z" fill="white"/>
</g>
<g opacity="0.8">
<path d="M109 431C109 429.343 110.343 428 112 428H194C195.657 428 197 429.343 197 431V485C197 486.657 195.657 488 194 488H112C110.343 488 109 486.657 109 485V431Z" fill="#1E73FF"/>
<path d="M151.412 456.426H152.713C153.369 456.42 153.888 456.25 154.269 455.916C154.655 455.582 154.849 455.099 154.849 454.466C154.849 453.856 154.688 453.385 154.365 453.051C154.049 452.711 153.562 452.541 152.906 452.541C152.332 452.541 151.86 452.708 151.491 453.042C151.122 453.37 150.938 453.801 150.938 454.334H148.802C148.802 453.678 148.975 453.08 149.32 452.541C149.672 452.002 150.158 451.583 150.779 451.284C151.406 450.979 152.106 450.827 152.88 450.827C154.157 450.827 155.159 451.149 155.886 451.794C156.618 452.433 156.984 453.323 156.984 454.466C156.984 455.04 156.8 455.582 156.431 456.092C156.067 456.596 155.596 456.977 155.016 457.234C155.719 457.475 156.252 457.853 156.615 458.368C156.984 458.884 157.169 459.499 157.169 460.214C157.169 461.362 156.773 462.276 155.982 462.956C155.197 463.636 154.163 463.976 152.88 463.976C151.649 463.976 150.642 463.647 149.856 462.991C149.071 462.335 148.679 461.462 148.679 460.372H150.814C150.814 460.935 151.002 461.392 151.377 461.743C151.758 462.095 152.268 462.271 152.906 462.271C153.568 462.271 154.09 462.095 154.471 461.743C154.852 461.392 155.042 460.882 155.042 460.214C155.042 459.54 154.843 459.021 154.444 458.658C154.046 458.295 153.454 458.113 152.669 458.113H151.412V456.426Z" fill="white"/>
</g>
<g opacity="0.8">
<path d="M208 431C208 429.343 209.343 428 211 428H293C294.657 428 296 429.343 296 431V485C296 486.657 294.657 488 293 488H211C209.343 488 208 486.657 208 485V431Z" fill="#1E73FF"/>
<path d="M253.726 463.8H251.599V453.525L248.461 454.598V452.796L253.453 450.959H253.726V463.8Z" fill="white"/>
</g>
<g opacity="0.8">
<path d="M307 431C307 429.343 308.343 428 310 428H392C393.657 428 395 429.343 395 431V485C395 486.657 393.657 488 392 488H310C308.343 488 307 486.657 307 485V431Z" fill="#1E73FF"/>
<path d="M355.547 463.8H346.942V462.332L351.205 457.683C351.82 456.997 352.257 456.426 352.515 455.969C352.778 455.506 352.91 455.043 352.91 454.58C352.91 453.971 352.737 453.479 352.392 453.104C352.052 452.729 351.592 452.541 351.012 452.541C350.32 452.541 349.784 452.752 349.403 453.174C349.022 453.596 348.832 454.173 348.832 454.905H346.696C346.696 454.126 346.872 453.426 347.224 452.805C347.581 452.178 348.088 451.691 348.744 451.346C349.406 451 350.168 450.827 351.029 450.827C352.271 450.827 353.25 451.141 353.965 451.768C354.686 452.389 355.046 453.25 355.046 454.352C355.046 454.99 354.864 455.661 354.501 456.364C354.144 457.062 353.555 457.855 352.734 458.746L349.605 462.095H355.547V463.8Z" fill="white"/>
</g>
<g opacity="0.8">
<path d="M406 431C406 429.343 407.343 428 409 428H491C492.657 428 494 429.343 494 431V485C494 486.657 492.657 488 491 488H409C407.343 488 406 486.657 406 485V431Z" fill="#1E73FF"/>
<path d="M453.167 459.238H454.758V460.952H453.167V463.8H451.031V460.952H445.503L445.441 459.651L450.961 451.003H453.167V459.238ZM447.683 459.238H451.031V453.895L450.873 454.176L447.683 459.238Z" fill="white"/>
</g>
<path d="M103.5 498L103.5 546" stroke="#AAAAAA" stroke-dasharray="4 2"/>
<path d="M202.5 498L202.5 546" stroke="#AAAAAA" stroke-dasharray="4 2"/>
<path d="M301.5 498L301.5 546" stroke="#AAAAAA" stroke-dasharray="4 2"/>
<path d="M400.5 498L400.5 546" stroke="#AAAAAA" stroke-dasharray="4 2"/>
<path d="M38.791 511.233C38.791 510.509 38.9323 509.857 39.2148 509.278C39.502 508.7 39.8984 508.253 40.4043 507.938C40.9147 507.624 41.4958 507.467 42.1475 507.467C43.1546 507.467 43.9681 507.815 44.5879 508.513C45.2122 509.21 45.5244 510.137 45.5244 511.295V511.384C45.5244 512.104 45.3854 512.751 45.1074 513.325C44.834 513.895 44.4398 514.339 43.9248 514.658C43.4144 514.977 42.8265 515.137 42.1611 515.137C41.1585 515.137 40.3451 514.788 39.7207 514.091C39.1009 513.394 38.791 512.471 38.791 511.322V511.233ZM40.0625 511.384C40.0625 512.204 40.2516 512.863 40.6299 513.359C41.0127 513.856 41.5231 514.104 42.1611 514.104C42.8037 514.104 43.3141 513.854 43.6924 513.353C44.0706 512.847 44.2598 512.14 44.2598 511.233C44.2598 510.422 44.0661 509.766 43.6787 509.265C43.2959 508.759 42.7855 508.506 42.1475 508.506C41.5231 508.506 41.0195 508.754 40.6367 509.251C40.2539 509.748 40.0625 510.459 40.0625 511.384ZM50.6855 508.738C50.4941 508.706 50.2868 508.69 50.0635 508.69C49.234 508.69 48.6712 509.044 48.375 509.75V515H47.1104V507.604H48.3408L48.3613 508.458C48.776 507.797 49.3639 507.467 50.125 507.467C50.3711 507.467 50.5579 507.499 50.6855 507.562V508.738ZM51.4102 511.24C51.4102 510.105 51.679 509.194 52.2168 508.506C52.7546 507.813 53.4587 507.467 54.3291 507.467C55.195 507.467 55.8809 507.763 56.3867 508.355V504.5H57.6514V515H56.4893L56.4277 514.207C55.9219 514.827 55.2178 515.137 54.3154 515.137C53.4587 515.137 52.7591 514.786 52.2168 514.084C51.679 513.382 51.4102 512.466 51.4102 511.336V511.24ZM52.6748 511.384C52.6748 512.222 52.848 512.879 53.1943 513.353C53.5407 513.826 54.0192 514.063 54.6299 514.063C55.432 514.063 56.0176 513.703 56.3867 512.983V509.586C56.0085 508.889 55.4274 508.54 54.6436 508.54C54.0238 508.54 53.5407 508.779 53.1943 509.258C52.848 509.736 52.6748 510.445 52.6748 511.384ZM62.6895 515.137C61.6868 515.137 60.8711 514.809 60.2422 514.152C59.6133 513.492 59.2988 512.61 59.2988 511.507V511.274C59.2988 510.541 59.4378 509.887 59.7158 509.312C59.9984 508.734 60.3903 508.283 60.8916 507.959C61.3975 507.631 61.9443 507.467 62.5322 507.467C63.4938 507.467 64.2412 507.784 64.7744 508.417C65.3076 509.05 65.5742 509.957 65.5742 511.138V511.664H60.5635C60.5817 512.393 60.7936 512.983 61.1992 513.435C61.6094 513.881 62.1289 514.104 62.7578 514.104C63.2044 514.104 63.5827 514.013 63.8926 513.831C64.2025 513.649 64.4736 513.407 64.7061 513.106L65.4785 513.708C64.8587 514.66 63.929 515.137 62.6895 515.137ZM62.5322 508.506C62.0218 508.506 61.5934 508.693 61.2471 509.066C60.9007 509.436 60.6865 509.955 60.6045 510.625H64.3096V510.529C64.2731 509.887 64.0999 509.39 63.79 509.039C63.4801 508.684 63.0609 508.506 62.5322 508.506ZM70.6191 508.738C70.4277 508.706 70.2204 508.69 69.9971 508.69C69.1676 508.69 68.6048 509.044 68.3086 509.75V515H67.0439V507.604H68.2744L68.2949 508.458C68.7096 507.797 69.2975 507.467 70.0586 507.467C70.3047 507.467 70.4915 507.499 70.6191 507.562V508.738Z" fill="#666666"/>
<path d="M51.7578 534.544H46.8096V532.496H51.7578V534.544ZM62.4629 539H53.6914V537.26L57.8311 532.848C58.3994 532.227 58.8184 531.685 59.0879 531.222C59.3633 530.759 59.501 530.319 59.501 529.903C59.501 529.335 59.3574 528.89 59.0703 528.567C58.7832 528.239 58.373 528.075 57.8398 528.075C57.2656 528.075 56.8115 528.274 56.4775 528.673C56.1494 529.065 55.9854 529.584 55.9854 530.229H53.4365C53.4365 529.449 53.6211 528.737 53.9902 528.093C54.3652 527.448 54.8926 526.944 55.5723 526.581C56.252 526.212 57.0225 526.027 57.8838 526.027C59.2021 526.027 60.2246 526.344 60.9512 526.977C61.6836 527.609 62.0498 528.503 62.0498 529.657C62.0498 530.29 61.8857 530.935 61.5576 531.591C61.2295 532.247 60.667 533.012 59.8701 533.885L56.9609 536.952H62.4629V539Z" fill="#1E73FF"/>
<path d="M137.791 511.233C137.791 510.509 137.932 509.857 138.215 509.278C138.502 508.7 138.898 508.253 139.404 507.938C139.915 507.624 140.496 507.467 141.147 507.467C142.155 507.467 142.968 507.815 143.588 508.513C144.212 509.21 144.524 510.137 144.524 511.295V511.384C144.524 512.104 144.385 512.751 144.107 513.325C143.834 513.895 143.44 514.339 142.925 514.658C142.414 514.977 141.826 515.137 141.161 515.137C140.159 515.137 139.345 514.788 138.721 514.091C138.101 513.394 137.791 512.471 137.791 511.322V511.233ZM139.062 511.384C139.062 512.204 139.252 512.863 139.63 513.359C140.013 513.856 140.523 514.104 141.161 514.104C141.804 514.104 142.314 513.854 142.692 513.353C143.071 512.847 143.26 512.14 143.26 511.233C143.26 510.422 143.066 509.766 142.679 509.265C142.296 508.759 141.785 508.506 141.147 508.506C140.523 508.506 140.02 508.754 139.637 509.251C139.254 509.748 139.062 510.459 139.062 511.384ZM149.686 508.738C149.494 508.706 149.287 508.69 149.063 508.69C148.234 508.69 147.671 509.044 147.375 509.75V515H146.11V507.604H147.341L147.361 508.458C147.776 507.797 148.364 507.467 149.125 507.467C149.371 507.467 149.558 507.499 149.686 507.562V508.738ZM150.41 511.24C150.41 510.105 150.679 509.194 151.217 508.506C151.755 507.813 152.459 507.467 153.329 507.467C154.195 507.467 154.881 507.763 155.387 508.355V504.5H156.651V515H155.489L155.428 514.207C154.922 514.827 154.218 515.137 153.315 515.137C152.459 515.137 151.759 514.786 151.217 514.084C150.679 513.382 150.41 512.466 150.41 511.336V511.24ZM151.675 511.384C151.675 512.222 151.848 512.879 152.194 513.353C152.541 513.826 153.019 514.063 153.63 514.063C154.432 514.063 155.018 513.703 155.387 512.983V509.586C155.008 508.889 154.427 508.54 153.644 508.54C153.024 508.54 152.541 508.779 152.194 509.258C151.848 509.736 151.675 510.445 151.675 511.384ZM161.689 515.137C160.687 515.137 159.871 514.809 159.242 514.152C158.613 513.492 158.299 512.61 158.299 511.507V511.274C158.299 510.541 158.438 509.887 158.716 509.312C158.998 508.734 159.39 508.283 159.892 507.959C160.397 507.631 160.944 507.467 161.532 507.467C162.494 507.467 163.241 507.784 163.774 508.417C164.308 509.05 164.574 509.957 164.574 511.138V511.664H159.563C159.582 512.393 159.794 512.983 160.199 513.435C160.609 513.881 161.129 514.104 161.758 514.104C162.204 514.104 162.583 514.013 162.893 513.831C163.202 513.649 163.474 513.407 163.706 513.106L164.479 513.708C163.859 514.66 162.929 515.137 161.689 515.137ZM161.532 508.506C161.022 508.506 160.593 508.693 160.247 509.066C159.901 509.436 159.687 509.955 159.604 510.625H163.31V510.529C163.273 509.887 163.1 509.39 162.79 509.039C162.48 508.684 162.061 508.506 161.532 508.506ZM169.619 508.738C169.428 508.706 169.22 508.69 168.997 508.69C168.168 508.69 167.605 509.044 167.309 509.75V515H166.044V507.604H167.274L167.295 508.458C167.71 507.797 168.298 507.467 169.059 507.467C169.305 507.467 169.492 507.499 169.619 507.562V508.738Z" fill="#666666"/>
<path d="M150.758 534.544H145.81V532.496H150.758V534.544ZM158.861 539H156.321V529.209L153.289 530.149V528.084L158.589 526.186H158.861V539Z" fill="#1E73FF"/>
<path d="M236.791 511.233C236.791 510.509 236.932 509.857 237.215 509.278C237.502 508.7 237.898 508.253 238.404 507.938C238.915 507.624 239.496 507.467 240.147 507.467C241.155 507.467 241.968 507.815 242.588 508.513C243.212 509.21 243.524 510.137 243.524 511.295V511.384C243.524 512.104 243.385 512.751 243.107 513.325C242.834 513.895 242.44 514.339 241.925 514.658C241.414 514.977 240.826 515.137 240.161 515.137C239.159 515.137 238.345 514.788 237.721 514.091C237.101 513.394 236.791 512.471 236.791 511.322V511.233ZM238.062 511.384C238.062 512.204 238.252 512.863 238.63 513.359C239.013 513.856 239.523 514.104 240.161 514.104C240.804 514.104 241.314 513.854 241.692 513.353C242.071 512.847 242.26 512.14 242.26 511.233C242.26 510.422 242.066 509.766 241.679 509.265C241.296 508.759 240.785 508.506 240.147 508.506C239.523 508.506 239.02 508.754 238.637 509.251C238.254 509.748 238.062 510.459 238.062 511.384ZM248.686 508.738C248.494 508.706 248.287 508.69 248.063 508.69C247.234 508.69 246.671 509.044 246.375 509.75V515H245.11V507.604H246.341L246.361 508.458C246.776 507.797 247.364 507.467 248.125 507.467C248.371 507.467 248.558 507.499 248.686 507.562V508.738ZM249.41 511.24C249.41 510.105 249.679 509.194 250.217 508.506C250.755 507.813 251.459 507.467 252.329 507.467C253.195 507.467 253.881 507.763 254.387 508.355V504.5H255.651V515H254.489L254.428 514.207C253.922 514.827 253.218 515.137 252.315 515.137C251.459 515.137 250.759 514.786 250.217 514.084C249.679 513.382 249.41 512.466 249.41 511.336V511.24ZM250.675 511.384C250.675 512.222 250.848 512.879 251.194 513.353C251.541 513.826 252.019 514.063 252.63 514.063C253.432 514.063 254.018 513.703 254.387 512.983V509.586C254.008 508.889 253.427 508.54 252.644 508.54C252.024 508.54 251.541 508.779 251.194 509.258C250.848 509.736 250.675 510.445 250.675 511.384ZM260.689 515.137C259.687 515.137 258.871 514.809 258.242 514.152C257.613 513.492 257.299 512.61 257.299 511.507V511.274C257.299 510.541 257.438 509.887 257.716 509.312C257.998 508.734 258.39 508.283 258.892 507.959C259.397 507.631 259.944 507.467 260.532 507.467C261.494 507.467 262.241 507.784 262.774 508.417C263.308 509.05 263.574 509.957 263.574 511.138V511.664H258.563C258.582 512.393 258.794 512.983 259.199 513.435C259.609 513.881 260.129 514.104 260.758 514.104C261.204 514.104 261.583 514.013 261.893 513.831C262.202 513.649 262.474 513.407 262.706 513.106L263.479 513.708C262.859 514.66 261.929 515.137 260.689 515.137ZM260.532 508.506C260.022 508.506 259.593 508.693 259.247 509.066C258.901 509.436 258.687 509.955 258.604 510.625H262.31V510.529C262.273 509.887 262.1 509.39 261.79 509.039C261.48 508.684 261.061 508.506 260.532 508.506ZM268.619 508.738C268.428 508.706 268.22 508.69 267.997 508.69C267.168 508.69 266.605 509.044 266.309 509.75V515H265.044V507.604H266.274L266.295 508.458C266.71 507.797 267.298 507.467 268.059 507.467C268.305 507.467 268.492 507.499 268.619 507.562V508.738Z" fill="#666666"/>
<path d="M256.815 533.709C256.815 535.479 256.449 536.832 255.717 537.77C254.984 538.707 253.912 539.176 252.5 539.176C251.105 539.176 250.039 538.716 249.301 537.796C248.562 536.876 248.185 535.558 248.167 533.841V531.485C248.167 529.698 248.536 528.342 249.274 527.416C250.019 526.49 251.088 526.027 252.482 526.027C253.877 526.027 254.943 526.487 255.682 527.407C256.42 528.321 256.798 529.637 256.815 531.354V533.709ZM254.275 531.125C254.275 530.064 254.129 529.294 253.836 528.813C253.549 528.327 253.098 528.084 252.482 528.084C251.885 528.084 251.442 528.315 251.155 528.778C250.874 529.235 250.725 529.953 250.707 530.932V534.043C250.707 535.086 250.848 535.862 251.129 536.372C251.416 536.876 251.873 537.128 252.5 537.128C253.121 537.128 253.569 536.885 253.845 536.398C254.12 535.912 254.264 535.168 254.275 534.166V531.125Z" fill="#1E73FF"/>
<path d="M335.791 511.233C335.791 510.509 335.932 509.857 336.215 509.278C336.502 508.7 336.898 508.253 337.404 507.938C337.915 507.624 338.496 507.467 339.147 507.467C340.155 507.467 340.968 507.815 341.588 508.513C342.212 509.21 342.524 510.137 342.524 511.295V511.384C342.524 512.104 342.385 512.751 342.107 513.325C341.834 513.895 341.44 514.339 340.925 514.658C340.414 514.977 339.826 515.137 339.161 515.137C338.159 515.137 337.345 514.788 336.721 514.091C336.101 513.394 335.791 512.471 335.791 511.322V511.233ZM337.062 511.384C337.062 512.204 337.252 512.863 337.63 513.359C338.013 513.856 338.523 514.104 339.161 514.104C339.804 514.104 340.314 513.854 340.692 513.353C341.071 512.847 341.26 512.14 341.26 511.233C341.26 510.422 341.066 509.766 340.679 509.265C340.296 508.759 339.785 508.506 339.147 508.506C338.523 508.506 338.02 508.754 337.637 509.251C337.254 509.748 337.062 510.459 337.062 511.384ZM347.686 508.738C347.494 508.706 347.287 508.69 347.063 508.69C346.234 508.69 345.671 509.044 345.375 509.75V515H344.11V507.604H345.341L345.361 508.458C345.776 507.797 346.364 507.467 347.125 507.467C347.371 507.467 347.558 507.499 347.686 507.562V508.738ZM348.41 511.24C348.41 510.105 348.679 509.194 349.217 508.506C349.755 507.813 350.459 507.467 351.329 507.467C352.195 507.467 352.881 507.763 353.387 508.355V504.5H354.651V515H353.489L353.428 514.207C352.922 514.827 352.218 515.137 351.315 515.137C350.459 515.137 349.759 514.786 349.217 514.084C348.679 513.382 348.41 512.466 348.41 511.336V511.24ZM349.675 511.384C349.675 512.222 349.848 512.879 350.194 513.353C350.541 513.826 351.019 514.063 351.63 514.063C352.432 514.063 353.018 513.703 353.387 512.983V509.586C353.008 508.889 352.427 508.54 351.644 508.54C351.024 508.54 350.541 508.779 350.194 509.258C349.848 509.736 349.675 510.445 349.675 511.384ZM359.689 515.137C358.687 515.137 357.871 514.809 357.242 514.152C356.613 513.492 356.299 512.61 356.299 511.507V511.274C356.299 510.541 356.438 509.887 356.716 509.312C356.998 508.734 357.39 508.283 357.892 507.959C358.397 507.631 358.944 507.467 359.532 507.467C360.494 507.467 361.241 507.784 361.774 508.417C362.308 509.05 362.574 509.957 362.574 511.138V511.664H357.563C357.582 512.393 357.794 512.983 358.199 513.435C358.609 513.881 359.129 514.104 359.758 514.104C360.204 514.104 360.583 514.013 360.893 513.831C361.202 513.649 361.474 513.407 361.706 513.106L362.479 513.708C361.859 514.66 360.929 515.137 359.689 515.137ZM359.532 508.506C359.022 508.506 358.593 508.693 358.247 509.066C357.901 509.436 357.687 509.955 357.604 510.625H361.31V510.529C361.273 509.887 361.1 509.39 360.79 509.039C360.48 508.684 360.061 508.506 359.532 508.506ZM367.619 508.738C367.428 508.706 367.22 508.69 366.997 508.69C366.168 508.69 365.605 509.044 365.309 509.75V515H364.044V507.604H365.274L365.295 508.458C365.71 507.797 366.298 507.467 367.059 507.467C367.305 507.467 367.492 507.499 367.619 507.562V508.738Z" fill="#666666"/>
<path d="M355.815 533.709C355.815 535.479 355.449 536.832 354.717 537.77C353.984 538.707 352.912 539.176 351.5 539.176C350.105 539.176 349.039 538.716 348.301 537.796C347.562 536.876 347.185 535.558 347.167 533.841V531.485C347.167 529.698 347.536 528.342 348.274 527.416C349.019 526.49 350.088 526.027 351.482 526.027C352.877 526.027 353.943 526.487 354.682 527.407C355.42 528.321 355.798 529.637 355.815 531.354V533.709ZM353.275 531.125C353.275 530.064 353.129 529.294 352.836 528.813C352.549 528.327 352.098 528.084 351.482 528.084C350.885 528.084 350.442 528.315 350.155 528.778C349.874 529.235 349.725 529.953 349.707 530.932V534.043C349.707 535.086 349.848 535.862 350.129 536.372C350.416 536.876 350.873 537.128 351.5 537.128C352.121 537.128 352.569 536.885 352.845 536.398C353.12 535.912 353.264 535.168 353.275 534.166V531.125Z" fill="#1E73FF"/>
<path d="M434.791 511.233C434.791 510.509 434.932 509.857 435.215 509.278C435.502 508.7 435.898 508.253 436.404 507.938C436.915 507.624 437.496 507.467 438.147 507.467C439.155 507.467 439.968 507.815 440.588 508.513C441.212 509.21 441.524 510.137 441.524 511.295V511.384C441.524 512.104 441.385 512.751 441.107 513.325C440.834 513.895 440.44 514.339 439.925 514.658C439.414 514.977 438.826 515.137 438.161 515.137C437.159 515.137 436.345 514.788 435.721 514.091C435.101 513.394 434.791 512.471 434.791 511.322V511.233ZM436.062 511.384C436.062 512.204 436.252 512.863 436.63 513.359C437.013 513.856 437.523 514.104 438.161 514.104C438.804 514.104 439.314 513.854 439.692 513.353C440.071 512.847 440.26 512.14 440.26 511.233C440.26 510.422 440.066 509.766 439.679 509.265C439.296 508.759 438.785 508.506 438.147 508.506C437.523 508.506 437.02 508.754 436.637 509.251C436.254 509.748 436.062 510.459 436.062 511.384ZM446.686 508.738C446.494 508.706 446.287 508.69 446.063 508.69C445.234 508.69 444.671 509.044 444.375 509.75V515H443.11V507.604H444.341L444.361 508.458C444.776 507.797 445.364 507.467 446.125 507.467C446.371 507.467 446.558 507.499 446.686 507.562V508.738ZM447.41 511.24C447.41 510.105 447.679 509.194 448.217 508.506C448.755 507.813 449.459 507.467 450.329 507.467C451.195 507.467 451.881 507.763 452.387 508.355V504.5H453.651V515H452.489L452.428 514.207C451.922 514.827 451.218 515.137 450.315 515.137C449.459 515.137 448.759 514.786 448.217 514.084C447.679 513.382 447.41 512.466 447.41 511.336V511.24ZM448.675 511.384C448.675 512.222 448.848 512.879 449.194 513.353C449.541 513.826 450.019 514.063 450.63 514.063C451.432 514.063 452.018 513.703 452.387 512.983V509.586C452.008 508.889 451.427 508.54 450.644 508.54C450.024 508.54 449.541 508.779 449.194 509.258C448.848 509.736 448.675 510.445 448.675 511.384ZM458.689 515.137C457.687 515.137 456.871 514.809 456.242 514.152C455.613 513.492 455.299 512.61 455.299 511.507V511.274C455.299 510.541 455.438 509.887 455.716 509.312C455.998 508.734 456.39 508.283 456.892 507.959C457.397 507.631 457.944 507.467 458.532 507.467C459.494 507.467 460.241 507.784 460.774 508.417C461.308 509.05 461.574 509.957 461.574 511.138V511.664H456.563C456.582 512.393 456.794 512.983 457.199 513.435C457.609 513.881 458.129 514.104 458.758 514.104C459.204 514.104 459.583 514.013 459.893 513.831C460.202 513.649 460.474 513.407 460.706 513.106L461.479 513.708C460.859 514.66 459.929 515.137 458.689 515.137ZM458.532 508.506C458.022 508.506 457.593 508.693 457.247 509.066C456.901 509.436 456.687 509.955 456.604 510.625H460.31V510.529C460.273 509.887 460.1 509.39 459.79 509.039C459.48 508.684 459.061 508.506 458.532 508.506ZM466.619 508.738C466.428 508.706 466.22 508.69 465.997 508.69C465.168 508.69 464.605 509.044 464.309 509.75V515H463.044V507.604H464.274L464.295 508.458C464.71 507.797 465.298 507.467 466.059 507.467C466.305 507.467 466.492 507.499 466.619 507.562V508.738Z" fill="#666666"/>
<path d="M454.815 533.709C454.815 535.479 454.449 536.832 453.717 537.77C452.984 538.707 451.912 539.176 450.5 539.176C449.105 539.176 448.039 538.716 447.301 537.796C446.562 536.876 446.185 535.558 446.167 533.841V531.485C446.167 529.698 446.536 528.342 447.274 527.416C448.019 526.49 449.088 526.027 450.482 526.027C451.877 526.027 452.943 526.487 453.682 527.407C454.42 528.321 454.798 529.637 454.815 531.354V533.709ZM452.275 531.125C452.275 530.064 452.129 529.294 451.836 528.813C451.549 528.327 451.098 528.084 450.482 528.084C449.885 528.084 449.442 528.315 449.155 528.778C448.874 529.235 448.725 529.953 448.707 530.932V534.043C448.707 535.086 448.848 535.862 449.129 536.372C449.416 536.876 449.873 537.128 450.5 537.128C451.121 537.128 451.569 536.885 451.845 536.398C452.12 535.912 452.264 535.168 452.275 534.166V531.125Z" fill="#1E73FF"/>
</svg>
