<svg width="723" height="245" viewBox="0 0 723 245" fill="none" xmlns="http://www.w3.org/2000/svg">
<path d="M625.707 169.16C625.317 169.55 624.683 169.55 624.293 169.16L617.929 162.796C617.538 162.405 617.538 161.772 617.929 161.382C618.319 160.991 618.953 160.991 619.343 161.382L625 167.038L630.657 161.382C631.047 160.991 631.681 160.991 632.071 161.382C632.462 161.772 632.462 162.405 632.071 162.796L625.707 169.16ZM624 168.453V165.365H626V168.453H624ZM624 161.249V155.075H626V161.249H624ZM624 150.959V144.784H626V150.959H624ZM624 140.668V134.494H626V140.668H624ZM624 130.378V124.203H626V130.378H624ZM624 120.087V113.913H626V120.087H624ZM624 109.797V103.622H626V109.797H624ZM624 99.5061V93.3318H626V99.5061H624ZM624 89.2156V83.0413H626V89.2156H624ZM624 78.9251V72.7507H626V78.9251H624ZM624 68.6345V65.5474H626V68.6345H624Z" fill="#1E73FF"/>
<path d="M589.202 205.707C589.593 205.317 589.593 204.683 589.202 204.293L582.838 197.929C582.448 197.538 581.815 197.538 581.424 197.929C581.034 198.319 581.034 198.953 581.424 199.343L587.081 205L581.424 210.657C581.034 211.047 581.034 211.681 581.424 212.071C581.815 212.462 582.448 212.462 582.838 212.071L589.202 205.707ZM588.495 204L585.489 204L585.489 206L588.495 206L588.495 204ZM581.48 204L575.468 204L575.468 206L581.48 206L581.48 204ZM571.459 204L565.447 204L565.447 206L571.459 206L571.459 204ZM561.438 204L555.426 204L555.426 206L561.438 206L561.438 204ZM551.417 204L545.405 204L545.405 206L551.417 206L551.417 204ZM541.396 204L535.384 204L535.384 206L541.396 206L541.396 204ZM531.375 204L525.362 204L525.362 206L531.375 206L531.375 204ZM521.354 204L515.341 204L515.341 206L521.354 206L521.354 204ZM511.333 204L505.32 204L505.32 206L511.333 206L511.333 204ZM501.312 204L495.299 204L495.299 206L501.312 206L501.312 204ZM491.291 204L485.278 204L485.278 206L491.291 206L491.291 204ZM481.27 204L475.257 204L475.257 206L481.27 206L481.27 204ZM471.249 204L465.236 204L465.236 206L471.249 206L471.249 204ZM461.228 204L455.215 204L455.215 206L461.228 206L461.228 204ZM451.207 204L445.194 204L445.194 206L451.207 206L451.207 204ZM441.186 204L435.173 204L435.173 206L441.186 206L441.186 204ZM431.165 204L425.152 204L425.152 206L431.165 206L431.165 204ZM421.143 204L415.131 204L415.131 206L421.143 206L421.143 204ZM411.122 204L405.11 204L405.11 206L411.122 206L411.122 204ZM401.101 204L395.089 204L395.089 206L401.101 206L401.101 204ZM391.08 204L385.068 204L385.068 206L391.08 206L391.08 204ZM381.059 204L375.047 204L375.047 206L381.059 206L381.059 204ZM371.038 204L365.026 204L365.026 206L371.038 206L371.038 204ZM361.017 204L355.005 204L355.005 206L361.017 206L361.017 204ZM350.996 204L344.983 204L344.983 206L350.996 206L350.996 204ZM340.975 204L334.962 204L334.962 206L340.975 206L340.975 204ZM330.954 204L324.941 204L324.941 206L330.954 206L330.954 204ZM320.933 204L314.92 204L314.92 206L320.933 206L320.933 204ZM310.912 204L304.899 204L304.899 206L310.912 206L310.912 204ZM300.891 204L294.878 204L294.878 206L300.891 206L300.891 204ZM290.87 204L284.857 204L284.857 206L290.87 206L290.87 204ZM280.849 204L274.836 204L274.836 206L280.849 206L280.849 204ZM270.828 204L264.815 204L264.815 206L270.828 206L270.828 204ZM260.807 204L254.794 204L254.794 206L260.807 206L260.807 204ZM250.786 204L244.773 204L244.773 206L250.786 206L250.786 204ZM240.764 204L234.752 204L234.752 206L240.764 206L240.764 204ZM230.743 204L224.731 204L224.731 206L230.743 206L230.743 204ZM220.722 204L214.71 204L214.71 206L220.722 206L220.722 204ZM210.701 204L204.689 204L204.689 206L210.701 206L210.701 204ZM200.68 204L194.668 204L194.668 206L200.68 206L200.68 204ZM190.659 204L184.647 204L184.647 206L190.659 206L190.659 204ZM180.638 204L174.625 204L174.625 206L180.638 206L180.638 204ZM170.617 204L164.604 204L164.604 206L170.617 206L170.617 204ZM160.596 204L154.583 204L154.583 206L160.596 206L160.596 204ZM150.575 204L144.562 204L144.562 206L150.575 206L150.575 204ZM140.554 204L134.541 204L134.541 206L140.554 206L140.554 204ZM130.533 204L124.52 204L124.52 206L130.533 206L130.533 204ZM120.512 204L117.506 204L117.506 206L120.512 206L120.512 204Z" fill="#1E73FF"/>
<rect x="110" y="58" width="486" height="118" rx="5" fill="#F7F7F7" stroke="#001EBB" stroke-width="2" stroke-dasharray="6 4"/>
<path d="M133.848 51.8521C133.283 51.7746 132.796 51.7358 132.387 51.7358C131.302 51.7358 130.76 52.245 130.76 53.2632V54.0186H132.586V55.5127H130.76V63H128.743V55.5127H127.373V54.0186H128.743V53.2134C128.748 52.2007 129.047 51.4259 129.639 50.8892C130.237 50.3468 131.078 50.0757 132.163 50.0757C132.838 50.0757 134.072 50.2085 135.865 50.4741V63H133.848V51.8521Z" fill="#001EBB"/>
<path d="M142.049 63.166C140.771 63.166 139.733 62.7648 138.936 61.9624C138.145 61.1545 137.749 60.0809 137.749 58.7417V58.4927C137.749 57.5962 137.921 56.7965 138.264 56.0938C138.612 55.3854 139.099 54.8348 139.725 54.4419C140.35 54.049 141.047 53.8525 141.816 53.8525C143.039 53.8525 143.983 54.2427 144.647 55.0229C145.317 55.8032 145.651 56.9072 145.651 58.335V59.1484H139.783C139.844 59.89 140.09 60.4766 140.521 60.9082C140.959 61.3398 141.507 61.5557 142.165 61.5557C143.089 61.5557 143.842 61.1821 144.423 60.4351L145.51 61.4727C145.151 62.0094 144.669 62.4272 144.066 62.7261C143.468 63.0194 142.796 63.166 142.049 63.166ZM141.808 55.4712C141.255 55.4712 140.806 55.6649 140.463 56.0522C140.126 56.4396 139.91 56.9792 139.816 57.6709H143.659V57.5215C143.615 56.8464 143.435 56.3372 143.12 55.9941C142.804 55.6455 142.367 55.4712 141.808 55.4712Z" fill="#001EBB"/>
<path d="M150.449 56.9736L152.159 54.0186H154.4L151.653 58.4429L154.492 63H152.267L150.474 59.9287L148.689 63H146.448L149.287 58.4429L146.548 54.0186H148.772L150.449 56.9736Z" fill="#001EBB"/>
<path d="M163.697 61.5557C164.201 61.5557 164.619 61.409 164.951 61.1157C165.283 60.8224 165.46 60.46 165.482 60.0283H167.383C167.361 60.5872 167.186 61.1102 166.86 61.5972C166.533 62.0786 166.091 62.4604 165.532 62.7427C164.973 63.0249 164.37 63.166 163.722 63.166C162.466 63.166 161.47 62.7593 160.734 61.9458C159.998 61.1323 159.63 60.009 159.63 58.5757V58.3682C159.63 57.0013 159.995 55.9084 160.726 55.0894C161.456 54.2648 162.452 53.8525 163.714 53.8525C164.782 53.8525 165.651 54.1652 166.32 54.7905C166.995 55.4103 167.35 56.2266 167.383 57.2393H165.482C165.46 56.7246 165.283 56.3013 164.951 55.9692C164.624 55.6372 164.206 55.4712 163.697 55.4712C163.044 55.4712 162.541 55.7091 162.187 56.1851C161.832 56.6554 161.653 57.3721 161.647 58.335V58.6587C161.647 59.6326 161.821 60.3604 162.17 60.8418C162.524 61.3177 163.033 61.5557 163.697 61.5557Z" fill="#001EBB"/>
<path d="M168.528 58.4263C168.528 57.5464 168.703 56.755 169.051 56.0522C169.4 55.3439 169.89 54.8016 170.521 54.4253C171.151 54.0435 171.876 53.8525 172.695 53.8525C173.907 53.8525 174.889 54.2427 175.642 55.0229C176.4 55.8032 176.81 56.8381 176.871 58.1274L176.879 58.6006C176.879 59.486 176.707 60.2773 176.364 60.9746C176.027 61.6719 175.54 62.2114 174.903 62.5933C174.272 62.9751 173.542 63.166 172.712 63.166C171.445 63.166 170.429 62.7454 169.666 61.9043C168.907 61.0576 168.528 59.9315 168.528 58.5259V58.4263ZM170.545 58.6006C170.545 59.5247 170.736 60.2497 171.118 60.7754C171.5 61.2956 172.031 61.5557 172.712 61.5557C173.393 61.5557 173.921 61.29 174.297 60.7588C174.679 60.2275 174.87 59.45 174.87 58.4263C174.87 57.5187 174.674 56.7993 174.281 56.2681C173.893 55.7368 173.365 55.4712 172.695 55.4712C172.037 55.4712 171.514 55.734 171.126 56.2598C170.739 56.7799 170.545 57.5602 170.545 58.6006Z" fill="#001EBB"/>
<path d="M180.457 54.0186L180.515 55.0562C181.179 54.2537 182.05 53.8525 183.129 53.8525C185 53.8525 185.952 54.9233 185.985 57.0649V63H183.968V57.1812C183.968 56.6112 183.843 56.1906 183.594 55.9194C183.351 55.6427 182.95 55.5044 182.391 55.5044C181.577 55.5044 180.971 55.8724 180.573 56.6084V63H178.556V54.0186H180.457Z" fill="#001EBB"/>
<path d="M190.575 51.8354V54.0186H192.161V55.5127H190.575V60.5264C190.575 60.8695 190.642 61.1185 190.774 61.2734C190.913 61.4229 191.156 61.4976 191.505 61.4976C191.737 61.4976 191.972 61.4699 192.21 61.4146V62.9751C191.751 63.1024 191.308 63.166 190.882 63.166C189.333 63.166 188.558 62.311 188.558 60.6011V55.5127H187.081V54.0186H188.558V51.8354H190.575Z" fill="#001EBB"/>
<path d="M199.075 63C198.987 62.8285 198.909 62.549 198.843 62.1616C198.201 62.8312 197.415 63.166 196.485 63.166C195.583 63.166 194.847 62.9087 194.277 62.394C193.707 61.8794 193.422 61.243 193.422 60.4849C193.422 59.5275 193.777 58.7943 194.485 58.2852C195.199 57.7705 196.217 57.5132 197.54 57.5132H198.776V56.9238C198.776 56.459 198.646 56.0882 198.386 55.8115C198.126 55.5293 197.73 55.3882 197.199 55.3882C196.74 55.3882 196.364 55.5044 196.07 55.7368C195.777 55.9637 195.63 56.2542 195.63 56.6084H193.613C193.613 56.1159 193.777 55.6566 194.103 55.2305C194.43 54.7988 194.872 54.4613 195.431 54.2178C195.996 53.9743 196.624 53.8525 197.315 53.8525C198.367 53.8525 199.205 54.1182 199.831 54.6494C200.456 55.1751 200.777 55.9167 200.793 56.874V60.9248C200.793 61.7327 200.907 62.3774 201.134 62.8589V63H199.075ZM196.859 61.5474C197.257 61.5474 197.631 61.4505 197.979 61.2568C198.334 61.0632 198.599 60.8031 198.776 60.4766V58.7832H197.689C196.942 58.7832 196.38 58.9132 196.004 59.1733C195.628 59.4334 195.439 59.8014 195.439 60.2773C195.439 60.6647 195.567 60.9746 195.821 61.207C196.081 61.4339 196.427 61.5474 196.859 61.5474Z" fill="#001EBB"/>
<path d="M205.052 63H203.035V54.0186H205.052V63ZM202.91 51.686C202.91 51.3761 203.007 51.1188 203.201 50.9141C203.4 50.7093 203.682 50.6069 204.047 50.6069C204.413 50.6069 204.695 50.7093 204.894 50.9141C205.093 51.1188 205.193 51.3761 205.193 51.686C205.193 51.9904 205.093 52.245 204.894 52.4497C204.695 52.6489 204.413 52.7485 204.047 52.7485C203.682 52.7485 203.4 52.6489 203.201 52.4497C203.007 52.245 202.91 51.9904 202.91 51.686Z" fill="#001EBB"/>
<path d="M209.127 54.0186L209.186 55.0562C209.85 54.2537 210.721 53.8525 211.8 53.8525C213.671 53.8525 214.623 54.9233 214.656 57.0649V63H212.639V57.1812C212.639 56.6112 212.514 56.1906 212.265 55.9194C212.022 55.6427 211.62 55.5044 211.062 55.5044C210.248 55.5044 209.642 55.8724 209.244 56.6084V63H207.227V54.0186H209.127Z" fill="#001EBB"/>
<path d="M220.674 63.166C219.396 63.166 218.358 62.7648 217.561 61.9624C216.77 61.1545 216.374 60.0809 216.374 58.7417V58.4927C216.374 57.5962 216.546 56.7965 216.889 56.0938C217.237 55.3854 217.724 54.8348 218.35 54.4419C218.975 54.049 219.672 53.8525 220.441 53.8525C221.664 53.8525 222.608 54.2427 223.272 55.0229C223.942 55.8032 224.276 56.9072 224.276 58.335V59.1484H218.408C218.469 59.89 218.715 60.4766 219.146 60.9082C219.584 61.3398 220.132 61.5557 220.79 61.5557C221.714 61.5557 222.467 61.1821 223.048 60.4351L224.135 61.4727C223.776 62.0094 223.294 62.4272 222.691 62.7261C222.093 63.0194 221.421 63.166 220.674 63.166ZM220.433 55.4712C219.88 55.4712 219.431 55.6649 219.088 56.0522C218.751 56.4396 218.535 56.9792 218.441 57.6709H222.284V57.5215C222.24 56.8464 222.06 56.3372 221.745 55.9941C221.429 55.6455 220.992 55.4712 220.433 55.4712Z" fill="#001EBB"/>
<path d="M230.552 55.8613C230.286 55.8171 230.012 55.7949 229.73 55.7949C228.806 55.7949 228.183 56.1491 227.862 56.8574V63H225.845V54.0186H227.771L227.821 55.0229C228.308 54.2427 228.983 53.8525 229.846 53.8525C230.134 53.8525 230.372 53.8913 230.56 53.9688L230.552 55.8613Z" fill="#001EBB"/>
<path fill-rule="evenodd" clip-rule="evenodd" d="M135.865 50.4741C135.187 50.3737 134.589 50.2922 134.07 50.2297C133.358 50.1439 132.797 50.0939 132.387 50.0798C132.306 50.0771 132.231 50.0757 132.163 50.0757C131.078 50.0757 130.237 50.3468 129.639 50.8892C129.192 51.2946 128.912 51.8358 128.799 52.5127C128.763 52.732 128.744 52.9656 128.743 53.2134V54.0186H127.373V55.5127H128.743V63H130.76V55.5127H132.586V54.0186H130.76V53.2632C130.76 53.2502 130.76 53.2372 130.76 53.2244C130.76 53.2207 130.76 53.217 130.76 53.2134C130.764 52.9971 130.793 52.8045 130.848 52.6357C130.861 52.5932 130.877 52.5522 130.894 52.5127C130.917 52.4588 130.943 52.4076 130.972 52.3593C130.972 52.359 130.972 52.3596 130.972 52.3593C131.114 52.1235 131.328 51.9539 131.613 51.8521C131.774 51.7946 131.957 51.7585 132.163 51.7436C132.235 51.7384 132.309 51.7358 132.387 51.7358C132.451 51.7358 132.518 51.7368 132.586 51.7387C132.676 51.7412 132.769 51.7454 132.865 51.7512C133.161 51.7692 133.489 51.8028 133.848 51.8521V63H135.865V50.4741ZM138.865 65.5102V66H125.743V58.5127H124.373V51.0186H126.091C126.381 50.1598 126.871 49.3496 127.623 48.6675M127.624 48.6665C128.94 47.473 130.593 47.0757 132.163 47.0757C133.089 47.0757 134.53 47.2436 136.304 47.5065L138.865 47.8858V51.4992C139.79 51.0648 140.786 50.8525 141.816 50.8525C142.366 50.8525 142.91 50.9056 143.438 51.0186H159.795L158.552 53.0204C159.93 51.5128 161.766 50.8525 163.714 50.8525C165.323 50.8525 166.888 51.3187 168.17 52.4203C168.421 52.2145 168.689 52.0252 168.975 51.8539C170.123 51.1613 171.394 50.8525 172.695 50.8525C173.696 50.8525 174.663 51.0287 175.556 51.4006V51.0186H181.621C182.106 50.908 182.61 50.8525 183.129 50.8525C183.632 50.8525 184.148 50.9024 184.658 51.0186H185.558V48.8354H193.575V51.0186H195.161V51.1389C195.864 50.9422 196.587 50.8525 197.315 50.8525C198.194 50.8525 199.085 50.9802 199.928 51.2907C200.007 50.4258 200.349 49.5634 201.021 48.8525L201.036 48.8371L201.051 48.822C201.961 47.8862 203.11 47.6069 204.047 47.6069C204.985 47.6069 206.134 47.8862 207.044 48.822C207.664 49.4587 208.016 50.2271 208.141 51.0186H210.292C210.777 50.908 211.281 50.8525 211.8 50.8525C213.24 50.8525 214.791 51.2614 215.978 52.4683C216.22 52.2639 216.478 52.0745 216.754 51.9017C217.877 51.1955 219.132 50.8525 220.441 50.8525C221.266 50.8525 222.079 50.9721 222.845 51.2344V51.0186H228.491C228.919 50.9097 229.372 50.8525 229.846 50.8525C230.376 50.8525 231.035 50.9199 231.702 51.1947L233.569 51.9633L233.536 59.4001L230.862 58.9545V66H222.845V65.8691C222.138 66.0725 221.409 66.166 220.674 66.166C219.618 66.166 218.597 65.9797 217.656 65.5828V66H197.953C197.481 66.1101 196.991 66.166 196.485 66.166C195.58 66.166 194.678 66.0043 193.839 65.637L193.012 65.8661C192.322 66.0573 191.609 66.166 190.882 66.166C190.273 66.166 189.621 66.0854 188.985 65.8752V66H175.556V65.6172C174.65 65.9952 173.688 66.166 172.712 66.166C171.027 66.166 169.443 65.6703 168.149 64.5956C167.761 64.9175 167.336 65.1922 166.884 65.4206C165.891 65.9219 164.823 66.166 163.722 66.166C161.901 66.166 160.178 65.5915 158.829 64.2894L159.895 66H150.545L150.48 65.8895L150.416 66H143.692C143.153 66.113 142.603 66.166 142.049 66.166C140.93 66.166 139.852 65.9571 138.865 65.5102M155.186 58.4404L157.065 61.4564C156.759 60.5346 156.63 59.5578 156.63 58.5757V58.3682C156.63 57.2832 156.798 56.2141 157.186 55.2194L155.186 58.4404ZM180.573 63V56.6084C180.78 56.2254 181.044 55.9421 181.363 55.7584C181.425 55.7228 181.489 55.6909 181.556 55.6627C181.804 55.5572 182.083 55.5044 182.391 55.5044C182.679 55.5044 182.925 55.5412 183.129 55.6147C183.321 55.6838 183.476 55.7854 183.594 55.9194C183.826 56.1718 183.95 56.5537 183.966 57.0649C183.966 57.0753 183.967 57.0857 183.967 57.0962C183.967 57.1242 183.968 57.1525 183.968 57.1812V63H185.985V57.0649C185.976 56.4629 185.894 55.9455 185.739 55.5127C185.6 55.1244 185.403 54.8043 185.148 54.5522C185.137 54.5419 185.127 54.5317 185.116 54.5216C184.88 54.2978 184.595 54.1301 184.263 54.0186C184.203 53.9987 184.143 53.9807 184.081 53.9644C183.886 53.9135 183.677 53.88 183.453 53.8638C183.415 53.8611 183.377 53.8589 183.338 53.8572C183.27 53.8541 183.2 53.8525 183.129 53.8525C182.903 53.8525 182.687 53.8701 182.479 53.9053C182.449 53.9103 182.42 53.9157 182.391 53.9214C182.093 53.9797 181.815 54.0749 181.556 54.2071C181.165 54.4063 180.818 54.6893 180.515 55.0562L180.457 54.0186H178.556V63H180.573ZM160.721 55.0945C160.002 55.9039 159.638 56.9802 159.63 58.3234C159.63 58.3272 159.63 58.3311 159.63 58.335C159.63 58.346 159.63 58.3571 159.63 58.3682V58.5757C159.63 58.6035 159.63 58.6311 159.63 58.6587C159.644 60.0298 160 61.1126 160.699 61.9068C160.704 61.9128 160.71 61.9187 160.715 61.9246C160.721 61.9317 160.728 61.9388 160.734 61.9458C161.465 62.7539 162.453 63.1606 163.697 63.166C163.706 63.166 163.714 63.166 163.722 63.166C164.35 63.166 164.937 63.0331 165.482 62.7674C165.499 62.7593 165.515 62.751 165.532 62.7427C165.732 62.6418 165.917 62.5281 166.087 62.4018C166.164 62.3444 166.238 62.2845 166.309 62.222C166.519 62.0367 166.703 61.8284 166.86 61.5972C167.145 61.172 167.314 60.7193 167.367 60.2393C167.371 60.2015 167.375 60.1636 167.377 60.1255C167.38 60.0932 167.382 60.0608 167.383 60.0283H165.482C165.478 60.1006 165.47 60.1709 165.458 60.2393C165.436 60.3574 165.402 60.4698 165.355 60.5764C165.353 60.5794 165.352 60.5824 165.351 60.5853C165.262 60.7819 165.128 60.9587 164.951 61.1157C164.895 61.1645 164.838 61.2092 164.778 61.2499C164.483 61.4497 164.131 61.5516 163.722 61.5555C163.714 61.5556 163.706 61.5557 163.697 61.5557C163.033 61.5557 162.524 61.3177 162.17 60.8418C162.142 60.8028 162.115 60.7622 162.089 60.72C161.794 60.2409 161.647 59.5538 161.647 58.6587V58.335C161.652 57.4558 161.802 56.782 162.098 56.3134C162.099 56.3117 162.1 56.3099 162.101 56.3082C162.129 56.2654 162.157 56.2244 162.187 56.1851C162.541 55.7091 163.044 55.4712 163.697 55.4712C163.703 55.4712 163.708 55.4712 163.714 55.4713C164.215 55.4748 164.628 55.6408 164.951 55.9692C164.998 56.0163 165.042 56.0652 165.083 56.1159C165.086 56.12 165.089 56.1241 165.092 56.1282C165.293 56.3826 165.417 56.6827 165.464 57.0283C165.473 57.0968 165.479 57.1672 165.482 57.2393H167.383C167.382 57.2119 167.381 57.1847 167.379 57.1576C167.377 57.1142 167.374 57.0711 167.371 57.0283C167.298 56.1155 166.95 55.3713 166.326 54.7959C166.324 54.7941 166.322 54.7923 166.32 54.7905C166.291 54.7631 166.261 54.7363 166.231 54.7101C166.227 54.7068 166.224 54.7035 166.22 54.7002C166.007 54.5168 165.775 54.3631 165.525 54.2393C165.003 53.9814 164.4 53.8525 163.714 53.8525C163.708 53.8525 163.703 53.8525 163.697 53.8526C162.445 53.8562 161.455 54.2676 160.728 55.0868C160.727 55.0876 160.726 55.0885 160.726 55.0894C160.724 55.0911 160.723 55.0928 160.721 55.0945ZM168.693 57.0283C168.679 57.0843 168.666 57.1407 168.654 57.1976C168.57 57.5859 168.528 57.9955 168.528 58.4263V58.5259C168.528 58.5509 168.528 58.5758 168.529 58.6006C168.534 59.135 168.595 59.6284 168.711 60.0809C168.725 60.1343 168.739 60.187 168.754 60.2393C168.936 60.8597 169.226 61.3997 169.626 61.8593C169.628 61.8616 169.63 61.864 169.632 61.8663C169.643 61.8791 169.654 61.8917 169.666 61.9043C169.753 62.0004 169.843 62.091 169.937 62.1761C170.664 62.836 171.589 63.166 172.712 63.166C173.542 63.166 174.272 62.9751 174.903 62.5933C175.142 62.4502 175.359 62.285 175.556 62.0977C175.641 62.0159 175.723 61.9299 175.801 61.8396C175.804 61.8364 175.807 61.8331 175.809 61.8299C176.025 61.5775 176.21 61.2925 176.364 60.9746C176.707 60.2773 176.879 59.486 176.879 58.6006L176.871 58.1274C176.814 56.9195 176.451 55.9349 175.782 55.1738C175.779 55.1706 175.776 55.1675 175.773 55.1643C175.731 55.1163 175.687 55.0692 175.642 55.0229C175.614 54.9934 175.585 54.9645 175.556 54.936C174.815 54.2137 173.861 53.8525 172.695 53.8525C171.876 53.8525 171.151 54.0435 170.521 54.4253C170.306 54.5535 170.107 54.701 169.925 54.8678C169.826 54.9581 169.732 55.0539 169.643 55.1554C169.641 55.1577 169.639 55.1601 169.637 55.1625C169.411 55.4223 169.215 55.7189 169.051 56.0522C168.898 56.3606 168.779 56.6859 168.693 57.0283ZM171.045 60.6689C171.069 60.7053 171.093 60.7408 171.118 60.7754C171.5 61.2956 172.031 61.5557 172.712 61.5557C173.228 61.5557 173.657 61.4029 173.998 61.0974C174 61.0958 174.001 61.0943 174.003 61.0928C174.11 60.9965 174.208 60.8851 174.297 60.7588C174.427 60.5779 174.535 60.3686 174.621 60.1306C174.622 60.1267 174.624 60.1228 174.625 60.1189C174.771 59.7087 174.852 59.2144 174.867 58.6359C174.868 58.6241 174.868 58.6124 174.868 58.6006C174.869 58.5433 174.87 58.4852 174.87 58.4263C174.87 58.3571 174.869 58.289 174.867 58.222C174.866 58.2021 174.865 58.1823 174.864 58.1626C174.83 57.403 174.647 56.7867 174.314 56.3137C174.312 56.3118 174.311 56.3099 174.31 56.3081C174.3 56.2946 174.291 56.2813 174.281 56.2681C173.893 55.7368 173.365 55.4712 172.695 55.4712C172.195 55.4712 171.773 55.6229 171.429 55.9264C171.426 55.929 171.423 55.9315 171.42 55.9341C171.315 56.0283 171.217 56.1368 171.126 56.2598C170.99 56.4433 170.877 56.6592 170.789 56.9074C170.788 56.9093 170.787 56.9113 170.787 56.9132C170.64 57.3277 170.56 57.832 170.547 58.4263C170.547 58.4592 170.546 58.4924 170.546 58.5259C170.546 58.5506 170.545 58.5755 170.545 58.6006C170.545 59.4578 170.71 60.1436 171.038 60.658C171.041 60.6617 171.043 60.6653 171.045 60.6689ZM199.075 63H201.134V62.8589C201.086 62.7584 201.044 62.6508 201.007 62.5361C200.959 62.3904 200.919 62.2332 200.888 62.0645C200.873 61.9849 200.86 61.9026 200.848 61.8178C200.838 61.7426 200.829 61.6653 200.822 61.5861C200.803 61.3794 200.793 61.1589 200.793 60.9248V56.874C200.788 56.5324 200.743 56.2183 200.659 55.9316C200.645 55.8813 200.629 55.8318 200.612 55.7832C200.485 55.422 200.293 55.1076 200.035 54.8398C199.971 54.7735 199.903 54.71 199.831 54.6494C199.799 54.6223 199.766 54.5959 199.733 54.5702C199.728 54.5664 199.724 54.5627 199.719 54.559C199.106 54.088 198.305 53.8525 197.315 53.8525C197.276 53.8525 197.238 53.8529 197.199 53.8537C196.633 53.865 196.11 53.9598 195.63 54.1379C195.563 54.1629 195.497 54.1895 195.431 54.2178C195.338 54.2585 195.248 54.3018 195.161 54.3477C195.121 54.3685 195.083 54.3897 195.045 54.4115C195.039 54.4148 195.034 54.4181 195.028 54.4214C194.73 54.5951 194.473 54.8023 194.257 55.043C194.203 55.1034 194.152 55.1659 194.103 55.2305C194.032 55.323 193.969 55.4171 193.913 55.5127C193.713 55.8576 193.613 56.2228 193.613 56.6084H195.63C195.63 56.541 195.636 56.4758 195.646 56.413C195.647 56.4085 195.648 56.4041 195.649 56.3996C195.674 56.2599 195.726 56.1317 195.805 56.0151C195.873 55.9136 195.962 55.8208 196.07 55.7368C196.074 55.7336 196.078 55.7305 196.082 55.7274C196.084 55.7261 196.086 55.7249 196.087 55.7237C196.378 55.5 196.749 55.3882 197.199 55.3882C197.239 55.3882 197.277 55.389 197.315 55.3905C197.393 55.3937 197.468 55.4002 197.54 55.4099C197.887 55.4572 198.16 55.5816 198.359 55.7832C198.368 55.7925 198.377 55.8019 198.386 55.8115C198.469 55.8995 198.538 55.997 198.595 56.1039C198.597 56.1071 198.598 56.1102 198.6 56.1134C198.711 56.3288 198.77 56.5823 198.776 56.874C198.776 56.8856 198.776 56.8973 198.776 56.909M198.63 57.5132H198.776V56.9238M197.793 57.5132H197.54C197.519 57.5132 197.499 57.5132 197.478 57.5134C197.467 57.5134 197.456 57.5135 197.445 57.5136C197.362 57.5144 197.28 57.5162 197.199 57.5191C196.96 57.5276 196.731 57.5453 196.513 57.5721C196.499 57.5739 196.484 57.5757 196.47 57.5776C196.318 57.5973 196.17 57.6216 196.029 57.6504C195.891 57.6785 195.758 57.7109 195.63 57.7476C195.484 57.7897 195.344 57.8376 195.21 57.8911C195.194 57.8978 195.177 57.9046 195.161 57.9115C195.153 57.9146 195.146 57.9177 195.138 57.9209C194.898 58.0231 194.68 58.1445 194.485 58.2852C194.385 58.3566 194.293 58.4324 194.208 58.5127C193.942 58.762 193.744 59.0538 193.613 59.3882C193.6 59.4225 193.587 59.4572 193.575 59.4923C193.562 59.5305 193.55 59.5692 193.539 59.6084C193.503 59.7311 193.476 59.8589 193.456 59.9918C193.443 60.0845 193.434 60.1797 193.428 60.2773C193.424 60.3453 193.422 60.4145 193.422 60.4849C193.422 60.4987 193.422 60.5126 193.423 60.5264C193.427 60.8441 193.482 61.1401 193.588 61.4146C193.728 61.7793 193.958 62.1057 194.277 62.394C194.362 62.4707 194.451 62.5417 194.543 62.6069C194.555 62.6152 194.567 62.6235 194.579 62.6316C194.773 62.7647 194.984 62.873 195.21 62.9564C195.449 63.044 195.704 63.1041 195.978 63.1368C196.141 63.1563 196.31 63.166 196.485 63.166C196.613 63.166 196.737 63.1597 196.859 63.1472C197.262 63.1057 197.635 62.9957 197.979 62.817C198.198 62.7033 198.405 62.5618 198.601 62.3925C198.603 62.3906 198.605 62.3886 198.607 62.3867C198.688 62.3164 198.766 62.2414 198.843 62.1616C198.893 62.4566 198.95 62.6891 199.014 62.8589C199.034 62.9121 199.054 62.9591 199.075 63M198.756 60.5132C198.763 60.5011 198.77 60.4889 198.776 60.4766V58.7832H197.689C197.651 58.7832 197.613 58.7835 197.575 58.7842C197.563 58.7845 197.551 58.7847 197.54 58.785C197.291 58.7911 197.064 58.8126 196.859 58.8496C196.798 58.8606 196.74 58.8728 196.683 58.8865C196.677 58.8879 196.671 58.8894 196.665 58.8909C196.483 58.9359 196.321 58.995 196.18 59.0682C196.117 59.1005 196.059 59.1355 196.004 59.1733C195.918 59.2325 195.842 59.2972 195.776 59.3675C195.721 59.4266 195.672 59.4896 195.63 59.5565C195.62 59.5735 195.61 59.5908 195.6 59.6084C195.576 59.6517 195.554 59.6965 195.536 59.7428C195.535 59.7438 195.535 59.7447 195.535 59.7457C195.471 59.9047 195.439 60.0819 195.439 60.2773C195.439 60.3492 195.444 60.4184 195.453 60.4849C195.474 60.6499 195.523 60.7985 195.599 60.9307C195.657 61.0326 195.731 61.1247 195.821 61.207C196.001 61.3642 196.223 61.467 196.485 61.5152C196.602 61.5367 196.726 61.5474 196.859 61.5474C197.105 61.5474 197.341 61.5105 197.568 61.4367C197.609 61.4235 197.649 61.4091 197.689 61.3936C197.727 61.3789 197.764 61.3632 197.801 61.3464C197.844 61.3272 197.886 61.3066 197.928 61.2846C197.945 61.2756 197.962 61.2663 197.979 61.2568C198.051 61.2175 198.12 61.1755 198.184 61.1307C198.275 61.0675 198.359 60.9989 198.436 60.9248C198.562 60.8025 198.669 60.6652 198.756 60.5132ZM190.575 54.0186V51.8354H188.558V54.0186H187.081V55.5127H188.558V60.6011C188.558 61.3338 188.7 61.9095 188.985 62.3283C189.052 62.4273 189.127 62.5175 189.21 62.5989C189.213 62.6016 189.216 62.6043 189.219 62.6069C189.238 62.6252 189.257 62.643 189.277 62.6603C189.424 62.7903 189.594 62.8952 189.787 62.9751C190.095 63.1024 190.46 63.166 190.882 63.166C190.954 63.166 191.027 63.1642 191.1 63.1606C191.233 63.1539 191.368 63.1412 191.505 63.1224C191.736 63.0906 191.971 63.0415 192.21 62.9751V61.4146C192.072 61.4468 191.934 61.4697 191.797 61.4831C191.699 61.4927 191.602 61.4976 191.505 61.4976C191.293 61.4976 191.119 61.4699 190.985 61.4146C190.948 61.3992 190.914 61.3817 190.882 61.362C190.841 61.3362 190.805 61.3067 190.774 61.2734C190.651 61.13 190.585 60.9058 190.576 60.6011C190.576 60.5767 190.575 60.5518 190.575 60.5264V55.5127H192.161V54.0186H190.575ZM203.035 63H205.052V54.0186H203.035V63ZM204.835 52.504C204.843 52.4971 204.851 52.49 204.859 52.4828C204.871 52.4721 204.883 52.4611 204.894 52.4497C204.956 52.3857 205.009 52.3167 205.052 52.2429C205.146 52.0808 205.193 51.8952 205.193 51.686C205.193 51.4731 205.146 51.2849 205.052 51.1216C205.031 51.0861 205.009 51.0517 204.984 51.0186H205.779C205.687 50.7851 205.556 50.5813 205.406 50.416C205.397 50.4066 205.389 50.3973 205.38 50.3881L204.86 50.8805C204.844 50.866 204.828 50.8522 204.812 50.8389L205.322 50.3284C204.806 49.8121 204.232 49.7485 204.047 49.7485C203.863 49.7485 203.289 49.8121 202.773 50.3284L203.283 50.8389C203.275 50.8454 203.267 50.8521 203.259 50.859L202.744 50.3576C202.725 50.3766 202.707 50.3962 202.689 50.4164C202.687 50.4189 202.685 50.4214 202.682 50.4239C202.541 50.5845 202.414 50.7826 202.324 51.012C202.324 51.0142 202.323 51.0164 202.322 51.0186H203.114C203.084 51.059 203.058 51.1011 203.035 51.145C202.952 51.3028 202.91 51.4832 202.91 51.686C202.91 51.8853 202.952 52.0632 203.035 52.2198C203.078 52.3023 203.134 52.379 203.201 52.4497C203.22 52.4687 203.239 52.4868 203.26 52.504C203.454 52.667 203.717 52.7485 204.047 52.7485C204.109 52.7485 204.169 52.7457 204.227 52.7399C204.474 52.715 204.677 52.6364 204.835 52.504ZM207.227 63H209.244V56.6084C209.451 56.2254 209.714 55.9421 210.034 55.7584C210.096 55.7228 210.16 55.6909 210.227 55.6627C210.475 55.5572 210.753 55.5044 211.062 55.5044C211.35 55.5044 211.596 55.5412 211.8 55.6147C211.992 55.6838 212.147 55.7854 212.265 55.9194C212.497 56.1718 212.621 56.5537 212.637 57.0649C212.637 57.0753 212.637 57.0857 212.638 57.0962C212.638 57.1242 212.639 57.1525 212.639 57.1812V63H214.656V57.0649C214.642 56.1609 214.464 55.4477 214.123 54.9253C214.033 54.7877 213.931 54.6633 213.819 54.5522C213.808 54.5419 213.798 54.5317 213.787 54.5216C213.377 54.1335 212.823 53.9143 212.123 53.8638C212.086 53.8611 212.048 53.8589 212.009 53.8572C211.941 53.8541 211.871 53.8525 211.8 53.8525C211.574 53.8525 211.358 53.8701 211.15 53.9053C211.12 53.9103 211.091 53.9157 211.062 53.9214C210.764 53.9797 210.486 54.0749 210.227 54.2071C209.836 54.4063 209.489 54.6893 209.186 55.0562L209.127 54.0186H207.227V63ZM227.862 63V56.8574C228.067 56.4054 228.395 56.0976 228.845 55.934C228.933 55.9023 229.025 55.8759 229.122 55.8551C229.13 55.8533 229.138 55.8516 229.146 55.85C229.325 55.8133 229.52 55.7949 229.73 55.7949C229.756 55.7949 229.782 55.7951 229.808 55.7955C229.821 55.7957 229.833 55.7959 229.846 55.7962C230.088 55.8014 230.323 55.8232 230.552 55.8613L230.56 53.9688C230.483 53.937 230.397 53.9117 230.303 53.893C230.168 53.866 230.016 53.8525 229.846 53.8525C229.807 53.8525 229.768 53.8533 229.73 53.8549C229.524 53.8636 229.328 53.8954 229.144 53.9505C229.131 53.9543 229.119 53.9583 229.106 53.9624C229.016 53.991 228.929 54.0252 228.845 54.065C228.442 54.2558 228.1 54.5751 227.821 55.0229L227.771 54.0186H225.845V63H227.862ZM223.928 56.1484C223.766 55.7186 223.547 55.3435 223.272 55.0229C223.205 54.9448 223.136 54.8706 223.064 54.8003C223.061 54.797 223.057 54.7937 223.054 54.7904C222.987 54.7255 222.917 54.664 222.845 54.6058C222.224 54.1036 221.423 53.8525 220.441 53.8525C220.439 53.8525 220.436 53.8525 220.433 53.8525C219.667 53.854 218.973 54.0504 218.35 54.4419C218.142 54.5725 217.949 54.7206 217.772 54.8861C217.768 54.8893 217.765 54.8926 217.761 54.8958C217.651 54.9999 217.546 55.1109 217.447 55.2287C217.233 55.4847 217.047 55.7731 216.889 56.0938C216.88 56.1119 216.871 56.1301 216.862 56.1484C216.73 56.429 216.624 56.7247 216.546 57.0356C216.543 57.0454 216.541 57.0552 216.539 57.0649C216.511 57.1755 216.487 57.288 216.467 57.4024C216.405 57.7484 216.374 58.1118 216.374 58.4927V58.7417C216.374 58.9379 216.383 59.1285 216.4 59.3133C216.445 59.8064 216.551 60.259 216.717 60.6709C216.914 61.1582 217.195 61.5887 217.561 61.9624C217.592 61.9938 217.624 62.0246 217.656 62.0548C217.715 62.111 217.776 62.165 217.838 62.2169C217.841 62.2194 217.844 62.2219 217.847 62.2245C218.601 62.8522 219.543 63.166 220.674 63.166C220.713 63.166 220.752 63.1656 220.79 63.1648C221.034 63.1598 221.269 63.1388 221.497 63.1019C221.924 63.0326 222.321 62.9074 222.691 62.7261C222.743 62.7001 222.795 62.6733 222.845 62.6456C222.999 62.5609 223.145 62.4679 223.282 62.3665C223.375 62.2976 223.465 62.225 223.55 62.1484C223.772 61.9493 223.967 61.724 224.135 61.4727L223.048 60.4351C222.994 60.5042 222.939 60.5702 222.882 60.6329C222.871 60.6457 222.859 60.6584 222.847 60.6709C222.847 60.6716 222.846 60.6723 222.845 60.673C222.76 60.7639 222.672 60.8478 222.581 60.9247C222.397 61.0787 222.201 61.2046 221.992 61.3022C221.99 61.303 221.989 61.3039 221.987 61.3047C221.626 61.472 221.227 61.5557 220.79 61.5557C220.751 61.5557 220.712 61.5549 220.674 61.5534C220.067 61.5293 219.558 61.3142 219.146 60.9082C219.072 60.8337 219.003 60.7546 218.94 60.6709C218.931 60.6597 218.923 60.6483 218.914 60.6369C218.912 60.6333 218.909 60.6298 218.907 60.6262C218.669 60.2964 218.514 59.8977 218.441 59.4302C218.427 59.3389 218.416 59.245 218.408 59.1484H224.276L224.276 58.335C224.276 58.1052 224.268 57.8839 224.25 57.6709C224.246 57.6206 224.242 57.5708 224.237 57.5215C224.233 57.4844 224.229 57.4476 224.224 57.4111C224.224 57.4055 224.223 57.4 224.222 57.3944C224.167 56.9377 224.069 56.5224 223.928 56.1484ZM221.869 56.1484C221.831 56.0937 221.789 56.0423 221.745 55.9941C221.431 55.6472 220.996 55.4729 220.441 55.4712C220.439 55.4712 220.436 55.4712 220.433 55.4712C219.966 55.4712 219.574 55.6092 219.256 55.8852C219.198 55.9362 219.142 55.9919 219.088 56.0522C219.061 56.0833 219.035 56.1154 219.009 56.1484C218.841 56.3669 218.706 56.6281 218.606 56.9322C218.605 56.9342 218.605 56.9361 218.604 56.9381C218.532 57.1597 218.477 57.404 218.441 57.6709H222.284V57.5215C222.264 57.2184 222.217 56.9487 222.143 56.7125C222.081 56.5183 222.001 56.3466 221.903 56.1976C221.902 56.1955 221.9 56.1935 221.899 56.1914C221.889 56.1769 221.879 56.1625 221.869 56.1484ZM152.159 54.0186L150.449 56.9736L148.772 54.0186H146.548L149.287 58.4429L146.448 63H148.689L150.474 59.9287L152.267 63H154.492L151.653 58.4429L154.4 54.0186H152.159ZM143.007 53.9983C142.645 53.9011 142.248 53.8525 141.816 53.8525C141.814 53.8525 141.811 53.8525 141.808 53.8525C141.042 53.854 140.348 54.0504 139.725 54.4419C139.517 54.5725 139.324 54.7206 139.147 54.8861C139.143 54.8893 139.14 54.8926 139.136 54.8958C139.041 54.9851 138.951 55.0795 138.865 55.1788C138.632 55.4471 138.432 55.7521 138.264 56.0938C138.255 56.1119 138.246 56.1301 138.237 56.1484C138.054 56.5372 137.922 56.9552 137.842 57.4024C137.78 57.7484 137.749 58.1118 137.749 58.4927V58.7417C137.749 58.9379 137.758 59.1285 137.775 59.3133C137.82 59.8064 137.926 60.259 138.092 60.6709C138.276 61.1261 138.533 61.5317 138.865 61.8877C138.888 61.9129 138.912 61.9378 138.936 61.9624C139.025 62.0523 139.118 62.1371 139.213 62.2169C139.216 62.2194 139.219 62.2219 139.222 62.2245C139.976 62.8522 140.918 63.166 142.049 63.166C142.088 63.166 142.127 63.1656 142.165 63.1648C142.4 63.16 142.628 63.1403 142.848 63.1057C142.856 63.1044 142.864 63.1032 142.872 63.1019C143.299 63.0326 143.696 62.9074 144.066 62.7261C144.278 62.6209 144.475 62.5011 144.657 62.3665C144.75 62.2977 144.84 62.225 144.925 62.1484C144.946 62.1293 144.967 62.11 144.988 62.0904C145.184 61.9058 145.358 61.6999 145.51 61.4727L144.423 60.4351C144.369 60.5042 144.314 60.5702 144.257 60.6329C144.246 60.6457 144.234 60.6584 144.222 60.6709C144.137 60.7626 144.048 60.8472 143.956 60.9247C143.772 61.0787 143.576 61.2046 143.367 61.3022C143.365 61.303 143.364 61.3039 143.362 61.3047C143.001 61.472 142.602 61.5557 142.165 61.5557C142.126 61.5557 142.087 61.5549 142.049 61.5534C141.442 61.5293 140.933 61.3142 140.521 60.9082C140.447 60.8337 140.378 60.7546 140.315 60.6709C140.306 60.6597 140.298 60.6483 140.289 60.6369C140.287 60.6333 140.284 60.6298 140.282 60.6262C140.044 60.2964 139.889 59.8977 139.816 59.4302C139.802 59.3389 139.791 59.245 139.783 59.1484H145.651L145.651 58.335C145.651 58.313 145.651 58.291 145.651 58.2692C145.65 58.0629 145.641 57.8635 145.625 57.6709C145.621 57.6206 145.617 57.5708 145.612 57.5215C145.608 57.4844 145.604 57.4476 145.599 57.4111C145.599 57.4055 145.598 57.4 145.597 57.3944C145.542 56.9377 145.444 56.5224 145.303 56.1484C145.16 55.7688 144.972 55.4317 144.741 55.1373C144.71 55.0984 144.679 55.0603 144.647 55.0229C144.58 54.9448 144.511 54.8706 144.439 54.8003C144.436 54.797 144.432 54.7937 144.429 54.7904C144.037 54.4117 143.563 54.1477 143.007 53.9983ZM143.659 57.6709V57.5215C143.639 57.2184 143.592 56.9487 143.518 56.7125C143.456 56.5183 143.376 56.3466 143.278 56.1976C143.277 56.1955 143.275 56.1935 143.274 56.1914C143.264 56.1769 143.254 56.1625 143.244 56.1484C143.206 56.0937 143.164 56.0423 143.12 55.9941C142.806 55.6472 142.371 55.4729 141.816 55.4712C141.814 55.4712 141.811 55.4712 141.808 55.4712C141.341 55.4712 140.949 55.6092 140.631 55.8852C140.573 55.9362 140.517 55.9919 140.463 56.0522C140.436 56.0833 140.41 56.1154 140.384 56.1484C140.216 56.3669 140.081 56.6281 139.981 56.9322C139.98 56.9342 139.98 56.9361 139.979 56.9381C139.907 57.1597 139.852 57.404 139.816 57.6709H143.659ZM197.793 57.5132H198.4ZM198.4 57.5132H198.63Z" fill="white"/>
<g opacity="0.8">
<path d="M129 80C129 78.3431 130.343 77 132 77H206C207.657 77 209 78.3431 209 80V154C209 155.657 207.657 157 206 157H132C130.343 157 129 155.657 129 154V80Z" fill="#001EBB"/>
<path d="M162.804 102.23C162.306 102.162 161.876 102.128 161.515 102.128C160.558 102.128 160.079 102.577 160.079 103.475V104.142H161.69V105.46H160.079V112.067H158.299V105.46H157.091V104.142H158.299V103.431C158.304 102.538 158.568 101.854 159.09 101.381C159.618 100.902 160.36 100.663 161.317 100.663C161.913 100.663 163.001 100.78 164.583 101.014V112.067H162.804V102.23ZM170.04 112.213C168.912 112.213 167.997 111.859 167.293 111.151C166.595 110.438 166.246 109.491 166.246 108.309V108.09C166.246 107.299 166.397 106.593 166.7 105.973C167.008 105.348 167.438 104.862 167.989 104.515C168.541 104.169 169.156 103.995 169.835 103.995C170.914 103.995 171.747 104.34 172.333 105.028C172.923 105.717 173.219 106.691 173.219 107.95V108.668H168.041C168.094 109.323 168.312 109.84 168.692 110.221C169.078 110.602 169.562 110.792 170.143 110.792C170.958 110.792 171.622 110.463 172.135 109.803L173.094 110.719C172.777 111.193 172.352 111.561 171.82 111.825C171.292 112.084 170.699 112.213 170.04 112.213ZM169.828 105.424C169.339 105.424 168.944 105.594 168.641 105.936C168.343 106.278 168.153 106.754 168.07 107.365H171.461V107.233C171.422 106.637 171.263 106.188 170.985 105.885C170.707 105.577 170.321 105.424 169.828 105.424ZM177.452 106.749L178.961 104.142H180.938L178.514 108.046L181.019 112.067H179.056L177.474 109.357L175.899 112.067H173.922L176.427 108.046L174.01 104.142H175.973L177.452 106.749ZM156.834 130.067H155.055V122.142H156.834V130.067ZM154.945 120.084C154.945 119.81 155.03 119.583 155.201 119.403C155.377 119.222 155.626 119.132 155.948 119.132C156.271 119.132 156.52 119.222 156.695 119.403C156.871 119.583 156.959 119.81 156.959 120.084C156.959 120.352 156.871 120.577 156.695 120.758C156.52 120.933 156.271 121.021 155.948 121.021C155.626 121.021 155.377 120.933 155.201 120.758C155.03 120.577 154.945 120.352 154.945 120.084ZM161.009 120.216V122.142H162.408V123.46H161.009V127.884C161.009 128.187 161.068 128.406 161.185 128.543C161.307 128.675 161.522 128.741 161.83 128.741C162.035 128.741 162.242 128.717 162.452 128.668V130.045C162.047 130.157 161.656 130.213 161.28 130.213C159.913 130.213 159.229 129.459 159.229 127.95V123.46H157.926V122.142H159.229V120.216H161.009ZM167.264 130.213C166.136 130.213 165.221 129.859 164.518 129.151C163.819 128.438 163.47 127.491 163.47 126.309V126.09C163.47 125.299 163.622 124.593 163.924 123.973C164.232 123.348 164.662 122.862 165.213 122.515C165.765 122.169 166.38 121.995 167.059 121.995C168.138 121.995 168.971 122.34 169.557 123.028C170.147 123.717 170.443 124.691 170.443 125.95V126.668H165.265C165.318 127.323 165.536 127.84 165.917 128.221C166.302 128.602 166.786 128.792 167.367 128.792C168.182 128.792 168.846 128.463 169.359 127.803L170.318 128.719C170.001 129.193 169.576 129.561 169.044 129.825C168.517 130.084 167.923 130.213 167.264 130.213ZM167.052 123.424C166.563 123.424 166.168 123.594 165.865 123.936C165.567 124.278 165.377 124.754 165.294 125.365H168.685V125.233C168.646 124.637 168.487 124.188 168.209 123.885C167.931 123.577 167.545 123.424 167.052 123.424ZM173.504 122.142L173.556 122.969C174.112 122.32 174.874 121.995 175.841 121.995C176.9 121.995 177.625 122.401 178.016 123.211C178.592 122.401 179.403 121.995 180.448 121.995C181.322 121.995 181.971 122.237 182.396 122.72C182.826 123.204 183.045 123.917 183.055 124.859V130.067H181.275V124.91C181.275 124.407 181.166 124.039 180.946 123.804C180.726 123.57 180.362 123.453 179.854 123.453C179.449 123.453 179.117 123.563 178.858 123.782C178.604 123.997 178.426 124.281 178.324 124.632L178.331 130.067H176.551V124.852C176.527 123.919 176.051 123.453 175.123 123.453C174.41 123.453 173.905 123.743 173.607 124.324V130.067H171.827V122.142H173.504Z" fill="white"/>
</g>
<g opacity="0.8">
<path d="M219 80C219 78.3431 220.343 77 222 77H296C297.657 77 299 78.3431 299 80V154C299 155.657 297.657 157 296 157H222C220.343 157 219 155.657 219 154V80Z" fill="#001EBB"/>
<path d="M252.804 102.23C252.306 102.162 251.876 102.128 251.515 102.128C250.558 102.128 250.079 102.577 250.079 103.475V104.142H251.69V105.46H250.079V112.067H248.299V105.46H247.091V104.142H248.299V103.431C248.304 102.538 248.568 101.854 249.09 101.381C249.618 100.902 250.36 100.663 251.317 100.663C251.913 100.663 253.001 100.78 254.583 101.014V112.067H252.804V102.23ZM260.04 112.213C258.912 112.213 257.997 111.859 257.293 111.151C256.595 110.438 256.246 109.491 256.246 108.309V108.09C256.246 107.299 256.397 106.593 256.7 105.973C257.008 105.348 257.438 104.862 257.989 104.515C258.541 104.169 259.156 103.995 259.835 103.995C260.914 103.995 261.747 104.34 262.333 105.028C262.923 105.717 263.219 106.691 263.219 107.95V108.668H258.041C258.094 109.323 258.312 109.84 258.692 110.221C259.078 110.602 259.562 110.792 260.143 110.792C260.958 110.792 261.622 110.463 262.135 109.803L263.094 110.719C262.777 111.193 262.352 111.561 261.82 111.825C261.292 112.084 260.699 112.213 260.04 112.213ZM259.828 105.424C259.339 105.424 258.944 105.594 258.641 105.936C258.343 106.278 258.153 106.754 258.07 107.365H261.461V107.233C261.422 106.637 261.263 106.188 260.985 105.885C260.707 105.577 260.321 105.424 259.828 105.424ZM267.452 106.749L268.961 104.142H270.938L268.514 108.046L271.019 112.067H269.056L267.474 109.357L265.899 112.067H263.922L266.427 108.046L264.01 104.142H265.973L267.452 106.749ZM246.834 130.067H245.055V122.142H246.834V130.067ZM244.945 120.084C244.945 119.81 245.03 119.583 245.201 119.403C245.377 119.222 245.626 119.132 245.948 119.132C246.271 119.132 246.52 119.222 246.695 119.403C246.871 119.583 246.959 119.81 246.959 120.084C246.959 120.352 246.871 120.577 246.695 120.758C246.52 120.933 246.271 121.021 245.948 121.021C245.626 121.021 245.377 120.933 245.201 120.758C245.03 120.577 244.945 120.352 244.945 120.084ZM251.009 120.216V122.142H252.408V123.46H251.009V127.884C251.009 128.187 251.068 128.406 251.185 128.543C251.307 128.675 251.522 128.741 251.83 128.741C252.035 128.741 252.242 128.717 252.452 128.668V130.045C252.047 130.157 251.656 130.213 251.28 130.213C249.913 130.213 249.229 129.459 249.229 127.95V123.46H247.926V122.142H249.229V120.216H251.009ZM257.264 130.213C256.136 130.213 255.221 129.859 254.518 129.151C253.819 128.438 253.47 127.491 253.47 126.309V126.09C253.47 125.299 253.622 124.593 253.924 123.973C254.232 123.348 254.662 122.862 255.213 122.515C255.765 122.169 256.38 121.995 257.059 121.995C258.138 121.995 258.971 122.34 259.557 123.028C260.147 123.717 260.443 124.691 260.443 125.95V126.668H255.265C255.318 127.323 255.536 127.84 255.917 128.221C256.302 128.602 256.786 128.792 257.367 128.792C258.182 128.792 258.846 128.463 259.359 127.803L260.318 128.719C260.001 129.193 259.576 129.561 259.044 129.825C258.517 130.084 257.923 130.213 257.264 130.213ZM257.052 123.424C256.563 123.424 256.168 123.594 255.865 123.936C255.567 124.278 255.377 124.754 255.294 125.365H258.685V125.233C258.646 124.637 258.487 124.188 258.209 123.885C257.931 123.577 257.545 123.424 257.052 123.424ZM263.504 122.142L263.556 122.969C264.112 122.32 264.874 121.995 265.841 121.995C266.9 121.995 267.625 122.401 268.016 123.211C268.592 122.401 269.403 121.995 270.448 121.995C271.322 121.995 271.971 122.237 272.396 122.72C272.826 123.204 273.045 123.917 273.055 124.859V130.067H271.275V124.91C271.275 124.407 271.166 124.039 270.946 123.804C270.726 123.57 270.362 123.453 269.854 123.453C269.449 123.453 269.117 123.563 268.858 123.782C268.604 123.997 268.426 124.281 268.324 124.632L268.331 130.067H266.551V124.852C266.527 123.919 266.051 123.453 265.123 123.453C264.41 123.453 263.905 123.743 263.607 124.324V130.067H261.827V122.142H263.504Z" fill="white"/>
</g>
<g opacity="0.8">
<path d="M309 80C309 78.3431 310.343 77 312 77H386C387.657 77 389 78.3431 389 80V154C389 155.657 387.657 157 386 157H312C310.343 157 309 155.657 309 154V80Z" fill="#001EBB"/>
<path d="M342.804 102.23C342.306 102.162 341.876 102.128 341.515 102.128C340.558 102.128 340.079 102.577 340.079 103.475V104.142H341.69V105.46H340.079V112.067H338.299V105.46H337.091V104.142H338.299V103.431C338.304 102.538 338.568 101.854 339.09 101.381C339.618 100.902 340.36 100.663 341.317 100.663C341.913 100.663 343.001 100.78 344.583 101.014V112.067H342.804V102.23ZM350.04 112.213C348.912 112.213 347.997 111.859 347.293 111.151C346.595 110.438 346.246 109.491 346.246 108.309V108.09C346.246 107.299 346.397 106.593 346.7 105.973C347.008 105.348 347.438 104.862 347.989 104.515C348.541 104.169 349.156 103.995 349.835 103.995C350.914 103.995 351.747 104.34 352.333 105.028C352.923 105.717 353.219 106.691 353.219 107.95V108.668H348.041C348.094 109.323 348.312 109.84 348.692 110.221C349.078 110.602 349.562 110.792 350.143 110.792C350.958 110.792 351.622 110.463 352.135 109.803L353.094 110.719C352.777 111.193 352.352 111.561 351.82 111.825C351.292 112.084 350.699 112.213 350.04 112.213ZM349.828 105.424C349.339 105.424 348.944 105.594 348.641 105.936C348.343 106.278 348.153 106.754 348.07 107.365H351.461V107.233C351.422 106.637 351.263 106.188 350.985 105.885C350.707 105.577 350.321 105.424 349.828 105.424ZM357.452 106.749L358.961 104.142H360.938L358.514 108.046L361.019 112.067H359.056L357.474 109.357L355.899 112.067H353.922L356.427 108.046L354.01 104.142H355.973L357.452 106.749ZM336.834 130.067H335.055V122.142H336.834V130.067ZM334.945 120.084C334.945 119.81 335.03 119.583 335.201 119.403C335.377 119.222 335.626 119.132 335.948 119.132C336.271 119.132 336.52 119.222 336.695 119.403C336.871 119.583 336.959 119.81 336.959 120.084C336.959 120.352 336.871 120.577 336.695 120.758C336.52 120.933 336.271 121.021 335.948 121.021C335.626 121.021 335.377 120.933 335.201 120.758C335.03 120.577 334.945 120.352 334.945 120.084ZM341.009 120.216V122.142H342.408V123.46H341.009V127.884C341.009 128.187 341.068 128.406 341.185 128.543C341.307 128.675 341.522 128.741 341.83 128.741C342.035 128.741 342.242 128.717 342.452 128.668V130.045C342.047 130.157 341.656 130.213 341.28 130.213C339.913 130.213 339.229 129.459 339.229 127.95V123.46H337.926V122.142H339.229V120.216H341.009ZM347.264 130.213C346.136 130.213 345.221 129.859 344.518 129.151C343.819 128.438 343.47 127.491 343.47 126.309V126.09C343.47 125.299 343.622 124.593 343.924 123.973C344.232 123.348 344.662 122.862 345.213 122.515C345.765 122.169 346.38 121.995 347.059 121.995C348.138 121.995 348.971 122.34 349.557 123.028C350.147 123.717 350.443 124.691 350.443 125.95V126.668H345.265C345.318 127.323 345.536 127.84 345.917 128.221C346.302 128.602 346.786 128.792 347.367 128.792C348.182 128.792 348.846 128.463 349.359 127.803L350.318 128.719C350.001 129.193 349.576 129.561 349.044 129.825C348.517 130.084 347.923 130.213 347.264 130.213ZM347.052 123.424C346.563 123.424 346.168 123.594 345.865 123.936C345.567 124.278 345.377 124.754 345.294 125.365H348.685V125.233C348.646 124.637 348.487 124.188 348.209 123.885C347.931 123.577 347.545 123.424 347.052 123.424ZM353.504 122.142L353.556 122.969C354.112 122.32 354.874 121.995 355.841 121.995C356.9 121.995 357.625 122.401 358.016 123.211C358.592 122.401 359.403 121.995 360.448 121.995C361.322 121.995 361.971 122.237 362.396 122.72C362.826 123.204 363.045 123.917 363.055 124.859V130.067H361.275V124.91C361.275 124.407 361.166 124.039 360.946 123.804C360.726 123.57 360.362 123.453 359.854 123.453C359.449 123.453 359.117 123.563 358.858 123.782C358.604 123.997 358.426 124.281 358.324 124.632L358.331 130.067H356.551V124.852C356.527 123.919 356.051 123.453 355.123 123.453C354.41 123.453 353.905 123.743 353.607 124.324V130.067H351.827V122.142H353.504Z" fill="white"/>
</g>
<path opacity="0.5" d="M110 47V24H596V47" stroke="#00986B" stroke-width="2"/>
<path opacity="0.5" d="M99 176L77 176L77 58L99 58" stroke="#00986B" stroke-width="2"/>
<path d="M655.204 61.0405C655.688 61.0405 656.11 60.894 656.471 60.6011C656.833 60.3081 657.033 59.9419 657.072 59.5024H658.354C658.329 59.9565 658.173 60.3887 657.885 60.7988C657.597 61.209 657.211 61.5361 656.728 61.7803C656.249 62.0244 655.741 62.1465 655.204 62.1465C654.125 62.1465 653.266 61.7876 652.626 61.0698C651.991 60.3472 651.674 59.3608 651.674 58.1108V57.8838C651.674 57.1123 651.815 56.4263 652.099 55.8257C652.382 55.2251 652.787 54.7588 653.314 54.4268C653.847 54.0947 654.474 53.9287 655.197 53.9287C656.085 53.9287 656.823 54.1948 657.409 54.7271C658 55.2593 658.314 55.9502 658.354 56.7998H657.072C657.033 56.2871 656.837 55.8672 656.486 55.54C656.139 55.208 655.709 55.042 655.197 55.042C654.508 55.042 653.974 55.291 653.593 55.7891C653.217 56.2822 653.029 56.9976 653.029 57.9351V58.1914C653.029 59.1045 653.217 59.8076 653.593 60.3008C653.969 60.7939 654.506 61.0405 655.204 61.0405ZM663.708 55.291C663.502 55.2568 663.28 55.2397 663.041 55.2397C662.152 55.2397 661.549 55.6182 661.232 56.375V62H659.877V54.0752H661.195L661.217 54.9907C661.662 54.2827 662.292 53.9287 663.107 53.9287C663.371 53.9287 663.571 53.9629 663.708 54.0312V55.291ZM664.455 57.9644C664.455 57.188 664.606 56.4897 664.909 55.8696C665.216 55.2495 665.641 54.771 666.183 54.4341C666.73 54.0972 667.353 53.9287 668.051 53.9287C669.13 53.9287 670.001 54.3022 670.666 55.0493C671.334 55.7964 671.669 56.79 671.669 58.0303V58.1255C671.669 58.897 671.52 59.5903 671.222 60.2056C670.929 60.8159 670.507 61.292 669.955 61.6338C669.408 61.9756 668.778 62.1465 668.065 62.1465C666.991 62.1465 666.12 61.7729 665.451 61.0259C664.787 60.2788 664.455 59.29 664.455 58.0596V57.9644ZM665.817 58.1255C665.817 59.0044 666.02 59.71 666.425 60.2422C666.835 60.7744 667.382 61.0405 668.065 61.0405C668.754 61.0405 669.301 60.772 669.706 60.2349C670.111 59.6929 670.314 58.936 670.314 57.9644C670.314 57.0952 670.106 56.3921 669.691 55.855C669.281 55.313 668.734 55.042 668.051 55.042C667.382 55.042 666.842 55.3081 666.432 55.8403C666.022 56.3726 665.817 57.1343 665.817 58.1255ZM677.982 59.8979C677.982 59.5317 677.843 59.2485 677.565 59.0483C677.292 58.8433 676.811 58.6675 676.122 58.521C675.438 58.3745 674.894 58.1987 674.489 57.9937C674.088 57.7886 673.791 57.5444 673.595 57.2612C673.405 56.978 673.31 56.6411 673.31 56.2505C673.31 55.6011 673.583 55.0518 674.13 54.6025C674.682 54.1533 675.385 53.9287 676.239 53.9287C677.138 53.9287 677.865 54.1606 678.422 54.6245C678.983 55.0884 679.264 55.6816 679.264 56.4043H677.902C677.902 56.0332 677.743 55.7134 677.426 55.4448C677.113 55.1763 676.718 55.042 676.239 55.042C675.746 55.042 675.36 55.1494 675.082 55.3643C674.804 55.5791 674.665 55.8599 674.665 56.2065C674.665 56.5337 674.794 56.7803 675.053 56.9463C675.312 57.1123 675.778 57.271 676.452 57.4224C677.13 57.5737 677.68 57.7544 678.1 57.9644C678.52 58.1743 678.83 58.4282 679.03 58.7261C679.235 59.019 679.337 59.3779 679.337 59.8027C679.337 60.5107 679.054 61.0796 678.488 61.5093C677.921 61.9341 677.187 62.1465 676.283 62.1465C675.648 62.1465 675.087 62.0342 674.599 61.8096C674.11 61.585 673.727 61.2725 673.449 60.8721C673.175 60.4668 673.039 60.0298 673.039 59.561H674.394C674.418 60.0151 674.599 60.3765 674.936 60.645C675.277 60.9087 675.727 61.0405 676.283 61.0405C676.796 61.0405 677.206 60.938 677.514 60.7329C677.826 60.5229 677.982 60.2446 677.982 59.8979ZM685.717 59.8979C685.717 59.5317 685.578 59.2485 685.299 59.0483C685.026 58.8433 684.545 58.6675 683.856 58.521C683.173 58.3745 682.628 58.1987 682.223 57.9937C681.823 57.7886 681.525 57.5444 681.33 57.2612C681.139 56.978 681.044 56.6411 681.044 56.2505C681.044 55.6011 681.317 55.0518 681.864 54.6025C682.416 54.1533 683.119 53.9287 683.974 53.9287C684.872 53.9287 685.6 54.1606 686.156 54.6245C686.718 55.0884 686.999 55.6816 686.999 56.4043H685.636C685.636 56.0332 685.478 55.7134 685.16 55.4448C684.848 55.1763 684.452 55.042 683.974 55.042C683.48 55.042 683.095 55.1494 682.816 55.3643C682.538 55.5791 682.399 55.8599 682.399 56.2065C682.399 56.5337 682.528 56.7803 682.787 56.9463C683.046 57.1123 683.512 57.271 684.186 57.4224C684.865 57.5737 685.414 57.7544 685.834 57.9644C686.254 58.1743 686.564 58.4282 686.764 58.7261C686.969 59.019 687.072 59.3779 687.072 59.8027C687.072 60.5107 686.789 61.0796 686.222 61.5093C685.656 61.9341 684.921 62.1465 684.018 62.1465C683.383 62.1465 682.821 62.0342 682.333 61.8096C681.845 61.585 681.461 61.2725 681.183 60.8721C680.91 60.4668 680.773 60.0298 680.773 59.561H682.128C682.152 60.0151 682.333 60.3765 682.67 60.645C683.012 60.9087 683.461 61.0405 684.018 61.0405C684.53 61.0405 684.94 60.938 685.248 60.7329C685.561 60.5229 685.717 60.2446 685.717 59.8979ZM697.172 59.8979C697.172 59.5317 697.033 59.2485 696.754 59.0483C696.481 58.8433 696 58.6675 695.312 58.521C694.628 58.3745 694.083 58.1987 693.678 57.9937C693.278 57.7886 692.98 57.5444 692.785 57.2612C692.594 56.978 692.499 56.6411 692.499 56.2505C692.499 55.6011 692.772 55.0518 693.319 54.6025C693.871 54.1533 694.574 53.9287 695.429 53.9287C696.327 53.9287 697.055 54.1606 697.611 54.6245C698.173 55.0884 698.454 55.6816 698.454 56.4043H697.091C697.091 56.0332 696.933 55.7134 696.615 55.4448C696.303 55.1763 695.907 55.042 695.429 55.042C694.936 55.042 694.55 55.1494 694.271 55.3643C693.993 55.5791 693.854 55.8599 693.854 56.2065C693.854 56.5337 693.983 56.7803 694.242 56.9463C694.501 57.1123 694.967 57.271 695.641 57.4224C696.32 57.5737 696.869 57.7544 697.289 57.9644C697.709 58.1743 698.019 58.4282 698.219 58.7261C698.424 59.019 698.527 59.3779 698.527 59.8027C698.527 60.5107 698.244 61.0796 697.677 61.5093C697.111 61.9341 696.376 62.1465 695.473 62.1465C694.838 62.1465 694.276 62.0342 693.788 61.8096C693.3 61.585 692.917 61.2725 692.638 60.8721C692.365 60.4668 692.228 60.0298 692.228 59.561H693.583C693.607 60.0151 693.788 60.3765 694.125 60.645C694.467 60.9087 694.916 61.0405 695.473 61.0405C695.985 61.0405 696.396 60.938 696.703 60.7329C697.016 60.5229 697.172 60.2446 697.172 59.8979ZM702.13 52.1562V54.0752H703.61V55.1226H702.13V60.0371C702.13 60.3545 702.196 60.5938 702.328 60.7549C702.46 60.9111 702.685 60.9893 703.002 60.9893C703.158 60.9893 703.373 60.96 703.646 60.9014V62C703.29 62.0977 702.943 62.1465 702.606 62.1465C702.001 62.1465 701.544 61.9634 701.237 61.5972C700.929 61.231 700.775 60.7109 700.775 60.0371V55.1226H699.333V54.0752H700.775V52.1562H702.13ZM710.092 62C710.014 61.8438 709.95 61.5654 709.901 61.165C709.271 61.8193 708.52 62.1465 707.646 62.1465C706.864 62.1465 706.222 61.9268 705.719 61.4873C705.221 61.043 704.972 60.4814 704.972 59.8027C704.972 58.9775 705.285 58.3379 705.91 57.8838C706.54 57.4248 707.423 57.1953 708.561 57.1953H709.879V56.5728C709.879 56.0991 709.738 55.7231 709.455 55.4448C709.171 55.1616 708.754 55.02 708.202 55.02C707.719 55.02 707.313 55.1421 706.986 55.3862C706.659 55.6304 706.496 55.9258 706.496 56.2725H705.133C705.133 55.877 705.272 55.4961 705.551 55.1299C705.834 54.7588 706.215 54.4658 706.693 54.251C707.177 54.0361 707.707 53.9287 708.283 53.9287C709.196 53.9287 709.911 54.1582 710.429 54.6172C710.946 55.0713 711.215 55.6987 711.234 56.4995V60.147C711.234 60.8745 711.327 61.4531 711.513 61.8828V62H710.092ZM707.843 60.9673C708.268 60.9673 708.671 60.8574 709.052 60.6377C709.433 60.418 709.708 60.1323 709.879 59.7808V58.1548H708.817C707.157 58.1548 706.327 58.6406 706.327 59.6123C706.327 60.0371 706.469 60.3691 706.752 60.6084C707.035 60.8477 707.399 60.9673 707.843 60.9673ZM717.189 55.291C716.984 55.2568 716.762 55.2397 716.522 55.2397C715.634 55.2397 715.031 55.6182 714.713 56.375V62H713.358V54.0752H714.677L714.699 54.9907C715.143 54.2827 715.773 53.9287 716.588 53.9287C716.852 53.9287 717.052 53.9629 717.189 54.0312V55.291ZM720.646 52.1562V54.0752H722.125V55.1226H720.646V60.0371C720.646 60.3545 720.712 60.5938 720.844 60.7549C720.976 60.9111 721.2 60.9893 721.518 60.9893C721.674 60.9893 721.889 60.96 722.162 60.9014V62C721.806 62.0977 721.459 62.1465 721.122 62.1465C720.517 62.1465 720.06 61.9634 719.752 61.5972C719.445 61.231 719.291 60.7109 719.291 60.0371V55.1226H717.848V54.0752H719.291V52.1562H720.646Z" fill="#888888"/>
<path d="M638.204 122.041C638.688 122.041 639.11 121.894 639.471 121.601C639.833 121.308 640.033 120.942 640.072 120.502H641.354C641.329 120.957 641.173 121.389 640.885 121.799C640.597 122.209 640.211 122.536 639.728 122.78C639.249 123.024 638.741 123.146 638.204 123.146C637.125 123.146 636.266 122.788 635.626 122.07C634.991 121.347 634.674 120.361 634.674 119.111V118.884C634.674 118.112 634.815 117.426 635.099 116.826C635.382 116.225 635.787 115.759 636.314 115.427C636.847 115.095 637.474 114.929 638.197 114.929C639.085 114.929 639.823 115.195 640.409 115.727C641 116.259 641.314 116.95 641.354 117.8H640.072C640.033 117.287 639.837 116.867 639.486 116.54C639.139 116.208 638.709 116.042 638.197 116.042C637.508 116.042 636.974 116.291 636.593 116.789C636.217 117.282 636.029 117.998 636.029 118.935V119.191C636.029 120.104 636.217 120.808 636.593 121.301C636.969 121.794 637.506 122.041 638.204 122.041ZM646.708 116.291C646.502 116.257 646.28 116.24 646.041 116.24C645.152 116.24 644.549 116.618 644.232 117.375V123H642.877V115.075H644.195L644.217 115.991C644.662 115.283 645.292 114.929 646.107 114.929C646.371 114.929 646.571 114.963 646.708 115.031V116.291ZM647.455 118.964C647.455 118.188 647.606 117.49 647.909 116.87C648.216 116.25 648.641 115.771 649.183 115.434C649.73 115.097 650.353 114.929 651.051 114.929C652.13 114.929 653.001 115.302 653.666 116.049C654.334 116.796 654.669 117.79 654.669 119.03V119.125C654.669 119.897 654.52 120.59 654.222 121.206C653.929 121.816 653.507 122.292 652.955 122.634C652.408 122.976 651.778 123.146 651.065 123.146C649.991 123.146 649.12 122.773 648.451 122.026C647.787 121.279 647.455 120.29 647.455 119.06V118.964ZM648.817 119.125C648.817 120.004 649.02 120.71 649.425 121.242C649.835 121.774 650.382 122.041 651.065 122.041C651.754 122.041 652.301 121.772 652.706 121.235C653.111 120.693 653.314 119.936 653.314 118.964C653.314 118.095 653.106 117.392 652.691 116.855C652.281 116.313 651.734 116.042 651.051 116.042C650.382 116.042 649.842 116.308 649.432 116.84C649.022 117.373 648.817 118.134 648.817 119.125ZM660.982 120.898C660.982 120.532 660.843 120.249 660.565 120.048C660.292 119.843 659.811 119.667 659.122 119.521C658.438 119.375 657.894 119.199 657.489 118.994C657.088 118.789 656.791 118.544 656.595 118.261C656.405 117.978 656.31 117.641 656.31 117.25C656.31 116.601 656.583 116.052 657.13 115.603C657.682 115.153 658.385 114.929 659.239 114.929C660.138 114.929 660.865 115.161 661.422 115.625C661.983 116.088 662.264 116.682 662.264 117.404H660.902C660.902 117.033 660.743 116.713 660.426 116.445C660.113 116.176 659.718 116.042 659.239 116.042C658.746 116.042 658.36 116.149 658.082 116.364C657.804 116.579 657.665 116.86 657.665 117.207C657.665 117.534 657.794 117.78 658.053 117.946C658.312 118.112 658.778 118.271 659.452 118.422C660.13 118.574 660.68 118.754 661.1 118.964C661.52 119.174 661.83 119.428 662.03 119.726C662.235 120.019 662.337 120.378 662.337 120.803C662.337 121.511 662.054 122.08 661.488 122.509C660.921 122.934 660.187 123.146 659.283 123.146C658.648 123.146 658.087 123.034 657.599 122.81C657.11 122.585 656.727 122.272 656.449 121.872C656.175 121.467 656.039 121.03 656.039 120.561H657.394C657.418 121.015 657.599 121.376 657.936 121.645C658.277 121.909 658.727 122.041 659.283 122.041C659.796 122.041 660.206 121.938 660.514 121.733C660.826 121.523 660.982 121.245 660.982 120.898ZM668.717 120.898C668.717 120.532 668.578 120.249 668.299 120.048C668.026 119.843 667.545 119.667 666.856 119.521C666.173 119.375 665.628 119.199 665.223 118.994C664.823 118.789 664.525 118.544 664.33 118.261C664.139 117.978 664.044 117.641 664.044 117.25C664.044 116.601 664.317 116.052 664.864 115.603C665.416 115.153 666.119 114.929 666.974 114.929C667.872 114.929 668.6 115.161 669.156 115.625C669.718 116.088 669.999 116.682 669.999 117.404H668.636C668.636 117.033 668.478 116.713 668.16 116.445C667.848 116.176 667.452 116.042 666.974 116.042C666.48 116.042 666.095 116.149 665.816 116.364C665.538 116.579 665.399 116.86 665.399 117.207C665.399 117.534 665.528 117.78 665.787 117.946C666.046 118.112 666.512 118.271 667.186 118.422C667.865 118.574 668.414 118.754 668.834 118.964C669.254 119.174 669.564 119.428 669.764 119.726C669.969 120.019 670.072 120.378 670.072 120.803C670.072 121.511 669.789 122.08 669.222 122.509C668.656 122.934 667.921 123.146 667.018 123.146C666.383 123.146 665.821 123.034 665.333 122.81C664.845 122.585 664.461 122.272 664.183 121.872C663.91 121.467 663.773 121.03 663.773 120.561H665.128C665.152 121.015 665.333 121.376 665.67 121.645C666.012 121.909 666.461 122.041 667.018 122.041C667.53 122.041 667.94 121.938 668.248 121.733C668.561 121.523 668.717 121.245 668.717 120.898ZM680.45 123C680.372 122.844 680.309 122.565 680.26 122.165C679.63 122.819 678.878 123.146 678.004 123.146C677.223 123.146 676.581 122.927 676.078 122.487C675.58 122.043 675.331 121.481 675.331 120.803C675.331 119.978 675.643 119.338 676.268 118.884C676.898 118.425 677.782 118.195 678.919 118.195H680.238V117.573C680.238 117.099 680.096 116.723 679.813 116.445C679.53 116.162 679.112 116.02 678.561 116.02C678.077 116.02 677.672 116.142 677.345 116.386C677.018 116.63 676.854 116.926 676.854 117.272H675.492C675.492 116.877 675.631 116.496 675.909 116.13C676.192 115.759 676.573 115.466 677.052 115.251C677.535 115.036 678.065 114.929 678.641 114.929C679.554 114.929 680.27 115.158 680.787 115.617C681.305 116.071 681.573 116.699 681.593 117.5V121.147C681.593 121.875 681.686 122.453 681.871 122.883V123H680.45ZM678.202 121.967C678.626 121.967 679.029 121.857 679.41 121.638C679.791 121.418 680.067 121.132 680.238 120.781V119.155H679.176C677.516 119.155 676.686 119.641 676.686 120.612C676.686 121.037 676.827 121.369 677.11 121.608C677.394 121.848 677.757 121.967 678.202 121.967ZM686.375 117.968L688.133 115.075H689.715L687.123 118.994L689.796 123H688.229L686.397 120.034L684.566 123H682.992L685.665 118.994L683.072 115.075H684.64L686.375 117.968ZM692.63 123H691.275V115.075H692.63V123ZM691.166 112.973C691.166 112.753 691.231 112.568 691.363 112.417C691.5 112.265 691.7 112.189 691.964 112.189C692.228 112.189 692.428 112.265 692.564 112.417C692.701 112.568 692.77 112.753 692.77 112.973C692.77 113.193 692.701 113.376 692.564 113.522C692.428 113.669 692.228 113.742 691.964 113.742C691.7 113.742 691.5 113.669 691.363 113.522C691.231 113.376 691.166 113.193 691.166 112.973ZM699.42 120.898C699.42 120.532 699.281 120.249 699.002 120.048C698.729 119.843 698.248 119.667 697.56 119.521C696.876 119.375 696.332 119.199 695.926 118.994C695.526 118.789 695.228 118.544 695.033 118.261C694.842 117.978 694.747 117.641 694.747 117.25C694.747 116.601 695.021 116.052 695.567 115.603C696.119 115.153 696.822 114.929 697.677 114.929C698.575 114.929 699.303 115.161 699.859 115.625C700.421 116.088 700.702 116.682 700.702 117.404H699.339C699.339 117.033 699.181 116.713 698.863 116.445C698.551 116.176 698.155 116.042 697.677 116.042C697.184 116.042 696.798 116.149 696.52 116.364C696.241 116.579 696.102 116.86 696.102 117.207C696.102 117.534 696.231 117.78 696.49 117.946C696.749 118.112 697.215 118.271 697.889 118.422C698.568 118.574 699.117 118.754 699.537 118.964C699.957 119.174 700.267 119.428 700.467 119.726C700.672 120.019 700.775 120.378 700.775 120.803C700.775 121.511 700.492 122.08 699.925 122.509C699.359 122.934 698.624 123.146 697.721 123.146C697.086 123.146 696.524 123.034 696.036 122.81C695.548 122.585 695.165 122.272 694.886 121.872C694.613 121.467 694.476 121.03 694.476 120.561H695.831C695.855 121.015 696.036 121.376 696.373 121.645C696.715 121.909 697.164 122.041 697.721 122.041C698.233 122.041 698.644 121.938 698.951 121.733C699.264 121.523 699.42 121.245 699.42 120.898Z" fill="#1E73FF"/>
<path d="M323.33 216.075L323.366 216.954C323.947 216.271 324.731 215.929 325.717 215.929C326.826 215.929 327.58 216.354 327.98 217.203C328.244 216.822 328.586 216.515 329.006 216.28C329.431 216.046 329.931 215.929 330.507 215.929C332.246 215.929 333.129 216.849 333.159 218.69V224H331.804V218.771C331.804 218.204 331.674 217.782 331.416 217.503C331.157 217.22 330.722 217.079 330.112 217.079C329.609 217.079 329.191 217.23 328.859 217.533C328.527 217.831 328.334 218.233 328.281 218.741V224H326.918V218.807C326.918 217.655 326.354 217.079 325.227 217.079C324.338 217.079 323.73 217.457 323.403 218.214V224H322.048V216.075H323.33ZM340.102 224C340.024 223.844 339.96 223.565 339.912 223.165C339.282 223.819 338.53 224.146 337.656 224.146C336.875 224.146 336.232 223.927 335.729 223.487C335.231 223.043 334.982 222.481 334.982 221.803C334.982 220.978 335.295 220.338 335.92 219.884C336.55 219.425 337.434 219.195 338.571 219.195H339.89V218.573C339.89 218.099 339.748 217.723 339.465 217.445C339.182 217.162 338.764 217.02 338.212 217.02C337.729 217.02 337.324 217.142 336.997 217.386C336.669 217.63 336.506 217.926 336.506 218.272H335.144C335.144 217.877 335.283 217.496 335.561 217.13C335.844 216.759 336.225 216.466 336.704 216.251C337.187 216.036 337.717 215.929 338.293 215.929C339.206 215.929 339.921 216.158 340.439 216.617C340.957 217.071 341.225 217.699 341.245 218.5V222.147C341.245 222.875 341.337 223.453 341.523 223.883V224H340.102ZM337.854 222.967C338.278 222.967 338.681 222.857 339.062 222.638C339.443 222.418 339.719 222.132 339.89 221.781V220.155H338.828C337.167 220.155 336.337 220.641 336.337 221.612C336.337 222.037 336.479 222.369 336.762 222.608C337.045 222.848 337.409 222.967 337.854 222.967ZM344.841 224H343.486V216.075H344.841V224ZM343.376 213.973C343.376 213.753 343.442 213.568 343.574 213.417C343.71 213.265 343.911 213.189 344.174 213.189C344.438 213.189 344.638 213.265 344.775 213.417C344.912 213.568 344.98 213.753 344.98 213.973C344.98 214.193 344.912 214.376 344.775 214.522C344.638 214.669 344.438 214.742 344.174 214.742C343.911 214.742 343.71 214.669 343.574 214.522C343.442 214.376 343.376 214.193 343.376 213.973ZM348.298 216.075L348.342 217.071C348.947 216.31 349.738 215.929 350.715 215.929C352.39 215.929 353.234 216.874 353.249 218.763V224H351.894V218.756C351.889 218.185 351.757 217.762 351.499 217.489C351.245 217.215 350.847 217.079 350.305 217.079C349.865 217.079 349.479 217.196 349.147 217.43C348.815 217.665 348.557 217.972 348.371 218.353V224H347.016V216.075H348.298ZM363.906 224C363.828 223.844 363.764 223.565 363.715 223.165C363.085 223.819 362.333 224.146 361.459 224.146C360.678 224.146 360.036 223.927 359.533 223.487C359.035 223.043 358.786 222.481 358.786 221.803C358.786 220.978 359.099 220.338 359.724 219.884C360.354 219.425 361.237 219.195 362.375 219.195H363.693V218.573C363.693 218.099 363.552 217.723 363.269 217.445C362.985 217.162 362.568 217.02 362.016 217.02C361.533 217.02 361.127 217.142 360.8 217.386C360.473 217.63 360.31 217.926 360.31 218.272H358.947C358.947 217.877 359.086 217.496 359.365 217.13C359.648 216.759 360.029 216.466 360.507 216.251C360.991 216.036 361.521 215.929 362.097 215.929C363.01 215.929 363.725 216.158 364.243 216.617C364.76 217.071 365.029 217.699 365.048 218.5V222.147C365.048 222.875 365.141 223.453 365.327 223.883V224H363.906ZM361.657 222.967C362.082 222.967 362.485 222.857 362.866 222.638C363.247 222.418 363.522 222.132 363.693 221.781V220.155H362.631C360.971 220.155 360.141 220.641 360.141 221.612C360.141 222.037 360.283 222.369 360.566 222.608C360.849 222.848 361.213 222.967 361.657 222.967ZM369.831 218.968L371.589 216.075H373.171L370.578 219.994L373.251 224H371.684L369.853 221.034L368.022 224H366.447L369.121 219.994L366.528 216.075H368.095L369.831 218.968ZM376.086 224H374.731V216.075H376.086V224ZM374.621 213.973C374.621 213.753 374.687 213.568 374.819 213.417C374.956 213.265 375.156 213.189 375.419 213.189C375.683 213.189 375.883 213.265 376.02 213.417C376.157 213.568 376.225 213.753 376.225 213.973C376.225 214.193 376.157 214.376 376.02 214.522C375.883 214.669 375.683 214.742 375.419 214.742C375.156 214.742 374.956 214.669 374.819 214.522C374.687 214.376 374.621 214.193 374.621 213.973ZM382.875 221.898C382.875 221.532 382.736 221.249 382.458 221.048C382.185 220.843 381.704 220.667 381.015 220.521C380.332 220.375 379.787 220.199 379.382 219.994C378.981 219.789 378.684 219.544 378.488 219.261C378.298 218.978 378.203 218.641 378.203 218.25C378.203 217.601 378.476 217.052 379.023 216.603C379.575 216.153 380.278 215.929 381.132 215.929C382.031 215.929 382.758 216.161 383.315 216.625C383.876 217.088 384.157 217.682 384.157 218.404H382.795C382.795 218.033 382.636 217.713 382.319 217.445C382.006 217.176 381.611 217.042 381.132 217.042C380.639 217.042 380.253 217.149 379.975 217.364C379.697 217.579 379.558 217.86 379.558 218.207C379.558 218.534 379.687 218.78 379.946 218.946C380.205 219.112 380.671 219.271 381.345 219.422C382.023 219.574 382.573 219.754 382.993 219.964C383.413 220.174 383.723 220.428 383.923 220.726C384.128 221.019 384.23 221.378 384.23 221.803C384.23 222.511 383.947 223.08 383.381 223.509C382.814 223.934 382.08 224.146 381.176 224.146C380.542 224.146 379.98 224.034 379.492 223.81C379.003 223.585 378.62 223.272 378.342 222.872C378.068 222.467 377.932 222.03 377.932 221.561H379.287C379.311 222.015 379.492 222.376 379.829 222.645C380.17 222.909 380.62 223.041 381.176 223.041C381.689 223.041 382.099 222.938 382.407 222.733C382.719 222.523 382.875 222.245 382.875 221.898Z" fill="#1E73FF"/>
<path opacity="0.8" d="M323.491 6.0752L323.527 6.9541C324.108 6.27051 324.892 5.92871 325.878 5.92871C326.987 5.92871 327.741 6.35352 328.142 7.20312C328.405 6.82227 328.747 6.51465 329.167 6.28027C329.592 6.0459 330.092 5.92871 330.668 5.92871C332.407 5.92871 333.291 6.84912 333.32 8.68994V14H331.965V8.77051C331.965 8.2041 331.835 7.78174 331.577 7.50342C331.318 7.22021 330.883 7.07861 330.273 7.07861C329.77 7.07861 329.353 7.22998 329.021 7.53271C328.688 7.83057 328.496 8.2334 328.442 8.74121V14H327.08V8.80713C327.08 7.65479 326.516 7.07861 325.388 7.07861C324.499 7.07861 323.891 7.45703 323.564 8.21387V14H322.209V6.0752H323.491ZM340.263 14C340.185 13.8438 340.122 13.5654 340.073 13.165C339.443 13.8193 338.691 14.1465 337.817 14.1465C337.036 14.1465 336.394 13.9268 335.891 13.4873C335.393 13.043 335.144 12.4814 335.144 11.8027C335.144 10.9775 335.456 10.3379 336.081 9.88379C336.711 9.4248 337.595 9.19531 338.732 9.19531H340.051V8.57275C340.051 8.09912 339.909 7.72314 339.626 7.44482C339.343 7.16162 338.925 7.02002 338.374 7.02002C337.89 7.02002 337.485 7.14209 337.158 7.38623C336.831 7.63037 336.667 7.92578 336.667 8.27246H335.305C335.305 7.87695 335.444 7.49609 335.722 7.12988C336.005 6.75879 336.386 6.46582 336.865 6.25098C337.348 6.03613 337.878 5.92871 338.454 5.92871C339.367 5.92871 340.083 6.1582 340.6 6.61719C341.118 7.07129 341.386 7.69873 341.406 8.49951V12.147C341.406 12.8745 341.499 13.4531 341.684 13.8828V14H340.263ZM338.015 12.9673C338.439 12.9673 338.842 12.8574 339.223 12.6377C339.604 12.418 339.88 12.1323 340.051 11.7808V10.1548H338.989C337.329 10.1548 336.499 10.6406 336.499 11.6123C336.499 12.0371 336.64 12.3691 336.923 12.6084C337.207 12.8477 337.57 12.9673 338.015 12.9673ZM345.002 14H343.647V6.0752H345.002V14ZM343.537 3.97314C343.537 3.75342 343.603 3.56787 343.735 3.4165C343.872 3.26514 344.072 3.18945 344.335 3.18945C344.599 3.18945 344.799 3.26514 344.936 3.4165C345.073 3.56787 345.141 3.75342 345.141 3.97314C345.141 4.19287 345.073 4.37598 344.936 4.52246C344.799 4.66895 344.599 4.74219 344.335 4.74219C344.072 4.74219 343.872 4.66895 343.735 4.52246C343.603 4.37598 343.537 4.19287 343.537 3.97314ZM348.459 6.0752L348.503 7.07129C349.108 6.30957 349.899 5.92871 350.876 5.92871C352.551 5.92871 353.396 6.87354 353.41 8.76318V14H352.055V8.75586C352.05 8.18457 351.918 7.76221 351.66 7.48877C351.406 7.21533 351.008 7.07861 350.466 7.07861C350.026 7.07861 349.641 7.1958 349.309 7.43018C348.977 7.66455 348.718 7.97217 348.532 8.35303V14H347.177V6.0752H348.459ZM363.789 11.8979C363.789 11.5317 363.649 11.2485 363.371 11.0483C363.098 10.8433 362.617 10.6675 361.928 10.521C361.245 10.3745 360.7 10.1987 360.295 9.99365C359.895 9.78857 359.597 9.54443 359.401 9.26123C359.211 8.97803 359.116 8.64111 359.116 8.25049C359.116 7.60107 359.389 7.05176 359.936 6.60254C360.488 6.15332 361.191 5.92871 362.045 5.92871C362.944 5.92871 363.671 6.16064 364.228 6.62451C364.79 7.08838 365.07 7.68164 365.07 8.4043H363.708C363.708 8.0332 363.549 7.71338 363.232 7.44482C362.919 7.17627 362.524 7.04199 362.045 7.04199C361.552 7.04199 361.167 7.14941 360.888 7.36426C360.61 7.5791 360.471 7.85986 360.471 8.20654C360.471 8.53369 360.6 8.78027 360.859 8.94629C361.118 9.1123 361.584 9.271 362.258 9.42236C362.937 9.57373 363.486 9.75439 363.906 9.96436C364.326 10.1743 364.636 10.4282 364.836 10.7261C365.041 11.019 365.144 11.3779 365.144 11.8027C365.144 12.5107 364.86 13.0796 364.294 13.5093C363.728 13.9341 362.993 14.1465 362.089 14.1465C361.455 14.1465 360.893 14.0342 360.405 13.8096C359.917 13.585 359.533 13.2725 359.255 12.8721C358.981 12.4668 358.845 12.0298 358.845 11.561H360.2C360.224 12.0151 360.405 12.3765 360.742 12.645C361.083 12.9087 361.533 13.0405 362.089 13.0405C362.602 13.0405 363.012 12.938 363.32 12.7329C363.632 12.5229 363.789 12.2446 363.789 11.8979ZM368.381 14H367.026V6.0752H368.381V14ZM366.916 3.97314C366.916 3.75342 366.982 3.56787 367.114 3.4165C367.25 3.26514 367.451 3.18945 367.714 3.18945C367.978 3.18945 368.178 3.26514 368.315 3.4165C368.452 3.56787 368.52 3.75342 368.52 3.97314C368.52 4.19287 368.452 4.37598 368.315 4.52246C368.178 4.66895 367.978 4.74219 367.714 4.74219C367.451 4.74219 367.25 4.66895 367.114 4.52246C366.982 4.37598 366.916 4.19287 366.916 3.97314ZM371.831 12.894H376.467V14H370.175V13.0039L374.548 7.1958H370.241V6.0752H376.247V7.03467L371.831 12.894ZM381.169 14.1465C380.095 14.1465 379.221 13.7949 378.547 13.0918C377.873 12.3838 377.536 11.439 377.536 10.2573V10.0083C377.536 9.22217 377.685 8.52148 377.983 7.90625C378.286 7.28613 378.706 6.80273 379.243 6.45605C379.785 6.10449 380.371 5.92871 381 5.92871C382.031 5.92871 382.832 6.26807 383.403 6.94678C383.974 7.62549 384.26 8.59717 384.26 9.86182V10.4258H378.891C378.911 11.207 379.138 11.8394 379.572 12.3228C380.012 12.8013 380.568 13.0405 381.242 13.0405C381.721 13.0405 382.126 12.9429 382.458 12.7476C382.79 12.5522 383.081 12.2935 383.33 11.9712L384.157 12.6157C383.493 13.6362 382.497 14.1465 381.169 14.1465ZM381 7.04199C380.454 7.04199 379.995 7.24219 379.624 7.64258C379.252 8.03809 379.023 8.59473 378.935 9.3125H382.905V9.20996C382.866 8.52148 382.68 7.98926 382.348 7.61328C382.016 7.23242 381.567 7.04199 381 7.04199Z" fill="#00986B"/>
<path opacity="0.8" d="M5.01172 121.041C5.49511 121.041 5.91748 120.894 6.27881 120.601C6.64013 120.308 6.84033 119.942 6.87939 119.502H8.16113C8.13672 119.957 7.98047 120.389 7.69238 120.799C7.40429 121.209 7.01855 121.536 6.53515 121.78C6.05664 122.024 5.54883 122.146 5.01172 122.146C3.93261 122.146 3.07324 121.788 2.43359 121.07C1.79883 120.347 1.48144 119.361 1.48144 118.111L1.48144 117.884C1.48144 117.112 1.62305 116.426 1.90625 115.826C2.18945 115.225 2.59473 114.759 3.12207 114.427C3.6543 114.095 4.28174 113.929 5.00439 113.929C5.89307 113.929 6.63037 114.195 7.21631 114.727C7.80713 115.259 8.12207 115.95 8.16113 116.8H6.87939C6.84033 116.287 6.64502 115.867 6.29346 115.54C5.94678 115.208 5.51709 115.042 5.00439 115.042C4.31592 115.042 3.78125 115.291 3.40039 115.789C3.02441 116.282 2.83642 116.998 2.83642 117.935L2.83642 118.191C2.83642 119.104 3.02441 119.808 3.40039 120.301C3.77637 120.794 4.31347 121.041 5.01172 121.041ZM13.5151 115.291C13.3101 115.257 13.0879 115.24 12.8486 115.24C11.96 115.24 11.3569 115.618 11.0395 116.375L11.0395 122H9.68457L9.68457 114.075H11.0029L11.0249 114.991C11.4692 114.283 12.0991 113.929 12.9145 113.929C13.1782 113.929 13.3784 113.963 13.5151 114.031L13.5151 115.291ZM14.2622 117.964C14.2622 117.188 14.4136 116.49 14.7163 115.87C15.0239 115.25 15.4487 114.771 15.9907 114.434C16.5376 114.097 17.1602 113.929 17.8584 113.929C18.9375 113.929 19.8091 114.302 20.4731 115.049C21.1421 115.796 21.4766 116.79 21.4766 118.03L21.4766 118.125C21.4766 118.897 21.3276 119.59 21.0298 120.206C20.7368 120.816 20.3145 121.292 19.7627 121.634C19.2158 121.976 18.5859 122.146 17.873 122.146C16.7988 122.146 15.9272 121.773 15.2583 121.026C14.5942 120.279 14.2622 119.29 14.2622 118.06L14.2622 117.964ZM15.6245 118.125C15.6245 119.004 15.8271 119.71 16.2324 120.242C16.6426 120.774 17.1895 121.041 17.873 121.041C18.5615 121.041 19.1084 120.772 19.5137 120.235C19.9189 119.693 20.1216 118.936 20.1216 117.964C20.1216 117.095 19.9141 116.392 19.499 115.855C19.0889 115.313 18.542 115.042 17.8584 115.042C17.1895 115.042 16.6499 115.308 16.2397 115.84C15.8296 116.373 15.6245 117.134 15.6245 118.125ZM27.79 119.898C27.79 119.532 27.6509 119.249 27.3726 119.048C27.0991 118.843 26.6182 118.667 25.9297 118.521C25.2461 118.375 24.7017 118.199 24.2964 117.994C23.896 117.789 23.5981 117.544 23.4028 117.261C23.2124 116.978 23.1172 116.641 23.1172 116.25C23.1172 115.601 23.3906 115.052 23.9375 114.603C24.4893 114.153 25.1924 113.929 26.0469 113.929C26.9453 113.929 27.6729 114.161 28.2295 114.625C28.791 115.088 29.0718 115.682 29.0718 116.404H27.7095C27.7095 116.033 27.5508 115.713 27.2334 115.445C26.9209 115.176 26.5254 115.042 26.0469 115.042C25.5537 115.042 25.168 115.149 24.8896 115.364C24.6113 115.579 24.4722 115.86 24.4722 116.207C24.4722 116.534 24.6016 116.78 24.8604 116.946C25.1191 117.112 25.5854 117.271 26.2593 117.422C26.938 117.574 27.4873 117.754 27.9072 117.964C28.3271 118.174 28.6372 118.428 28.8374 118.726C29.0425 119.019 29.145 119.378 29.145 119.803C29.145 120.511 28.8618 121.08 28.2954 121.509C27.729 121.934 26.9941 122.146 26.0908 122.146C25.4561 122.146 24.8945 122.034 24.4062 121.81C23.918 121.585 23.5347 121.272 23.2563 120.872C22.9829 120.467 22.8462 120.03 22.8462 119.561H24.2012C24.2256 120.015 24.4062 120.376 24.7432 120.645C25.085 120.909 25.5342 121.041 26.0908 121.041C26.6035 121.041 27.0137 120.938 27.3213 120.733C27.6338 120.523 27.79 120.245 27.79 119.898ZM35.5244 119.898C35.5244 119.532 35.3853 119.249 35.1069 119.048C34.8335 118.843 34.3525 118.667 33.6641 118.521C32.9805 118.375 32.436 118.199 32.0308 117.994C31.6304 117.789 31.3325 117.544 31.1372 117.261C30.9468 116.978 30.8516 116.641 30.8516 116.25C30.8516 115.601 31.125 115.052 31.6719 114.603C32.2236 114.153 32.9268 113.929 33.7812 113.929C34.6797 113.929 35.4072 114.161 35.9639 114.625C36.5254 115.088 36.8062 115.682 36.8062 116.404H35.4438C35.4438 116.033 35.2852 115.713 34.9678 115.445C34.6553 115.176 34.2598 115.042 33.7812 115.042C33.2881 115.042 32.9023 115.149 32.624 115.364C32.3457 115.579 32.2065 115.86 32.2065 116.207C32.2065 116.534 32.3359 116.78 32.5947 116.946C32.8535 117.112 33.3198 117.271 33.9937 117.422C34.6724 117.574 35.2217 117.754 35.6416 117.964C36.0615 118.174 36.3716 118.428 36.5718 118.726C36.7769 119.019 36.8794 119.378 36.8794 119.803C36.8794 120.511 36.5962 121.08 36.0298 121.509C35.4634 121.934 34.7285 122.146 33.8252 122.146C33.1904 122.146 32.6289 122.034 32.1406 121.81C31.6523 121.585 31.269 121.272 30.9907 120.872C30.7173 120.467 30.5806 120.03 30.5806 119.561H31.9355C31.96 120.015 32.1406 120.376 32.4775 120.645C32.8193 120.909 33.2686 121.041 33.8252 121.041C34.3379 121.041 34.748 120.938 35.0557 120.733C35.3682 120.523 35.5244 120.245 35.5244 119.898ZM46.9795 119.898C46.9795 119.532 46.8403 119.249 46.562 119.048C46.2886 118.843 45.8076 118.667 45.1191 118.521C44.4355 118.375 43.8911 118.199 43.4858 117.994C43.0854 117.789 42.7876 117.544 42.5923 117.261C42.4019 116.978 42.3066 116.641 42.3066 116.25C42.3066 115.601 42.5801 115.052 43.127 114.603C43.6787 114.153 44.3818 113.929 45.2363 113.929C46.1348 113.929 46.8623 114.161 47.4189 114.625C47.9805 115.088 48.2612 115.682 48.2612 116.404H46.8989C46.8989 116.033 46.7402 115.713 46.4229 115.445C46.1104 115.176 45.7148 115.042 45.2363 115.042C44.7432 115.042 44.3574 115.149 44.0791 115.364C43.8008 115.579 43.6616 115.86 43.6616 116.207C43.6616 116.534 43.791 116.78 44.0498 116.946C44.3086 117.112 44.7749 117.271 45.4487 117.422C46.1274 117.574 46.6768 117.754 47.0967 117.964C47.5166 118.174 47.8267 118.428 48.0269 118.726C48.2319 119.019 48.3345 119.378 48.3345 119.803C48.3345 120.511 48.0513 121.08 47.4849 121.509C46.9185 121.934 46.1836 122.146 45.2803 122.146C44.6455 122.146 44.084 122.034 43.5957 121.81C43.1074 121.585 42.7241 121.272 42.4458 120.872C42.1724 120.467 42.0356 120.03 42.0356 119.561H43.3906C43.415 120.015 43.5957 120.376 43.9326 120.645C44.2744 120.909 44.7236 121.041 45.2803 121.041C45.793 121.041 46.2031 120.938 46.5107 120.733C46.8232 120.523 46.9795 120.245 46.9795 119.898ZM51.5718 122H50.2168L50.2168 114.075H51.5718L51.5718 122ZM50.1069 111.973C50.1069 111.753 50.1729 111.568 50.3047 111.417C50.4414 111.265 50.6416 111.189 50.9053 111.189C51.1689 111.189 51.3691 111.265 51.5059 111.417C51.6426 111.568 51.7109 111.753 51.7109 111.973C51.7109 112.193 51.6426 112.376 51.5059 112.522C51.3691 112.669 51.1689 112.742 50.9053 112.742C50.6416 112.742 50.4414 112.669 50.3047 112.522C50.1729 112.376 50.1069 112.193 50.1069 111.973ZM55.0215 120.894H59.6577L59.6577 122H53.3662L53.3662 121.004L57.7388 115.196H53.4321L53.4321 114.075H59.438L59.438 115.035L55.0215 120.894ZM64.3599 122.146C63.2856 122.146 62.4116 121.795 61.7378 121.092C61.064 120.384 60.727 119.439 60.727 118.257L60.727 118.008C60.727 117.222 60.876 116.521 61.1738 115.906C61.4766 115.286 61.8965 114.803 62.4336 114.456C62.9756 114.104 63.5615 113.929 64.1914 113.929C65.2217 113.929 66.0225 114.268 66.5937 114.947C67.165 115.625 67.4507 116.597 67.4507 117.862L67.4507 118.426H62.082C62.1016 119.207 62.3286 119.839 62.7632 120.323C63.2026 120.801 63.7593 121.041 64.4331 121.041C64.9116 121.041 65.3169 120.943 65.6489 120.748C65.981 120.552 66.2715 120.293 66.5205 119.971L67.3481 120.616C66.6841 121.636 65.688 122.146 64.3599 122.146ZM64.1914 115.042C63.6445 115.042 63.1855 115.242 62.8145 115.643C62.4434 116.038 62.2139 116.595 62.126 117.313H66.0957L66.0957 117.21C66.0566 116.521 65.8711 115.989 65.5391 115.613C65.207 115.232 64.7578 115.042 64.1914 115.042Z" fill="#00986B"/>
<path d="M655.204 179.041C655.688 179.041 656.11 178.894 656.471 178.601C656.833 178.308 657.033 177.942 657.072 177.502H658.354C658.329 177.957 658.173 178.389 657.885 178.799C657.597 179.209 657.211 179.536 656.728 179.78C656.249 180.024 655.741 180.146 655.204 180.146C654.125 180.146 653.266 179.788 652.626 179.07C651.991 178.347 651.674 177.361 651.674 176.111V175.884C651.674 175.112 651.815 174.426 652.099 173.826C652.382 173.225 652.787 172.759 653.314 172.427C653.847 172.095 654.474 171.929 655.197 171.929C656.085 171.929 656.823 172.195 657.409 172.727C658 173.259 658.314 173.95 658.354 174.8H657.072C657.033 174.287 656.837 173.867 656.486 173.54C656.139 173.208 655.709 173.042 655.197 173.042C654.508 173.042 653.974 173.291 653.593 173.789C653.217 174.282 653.029 174.998 653.029 175.935V176.191C653.029 177.104 653.217 177.808 653.593 178.301C653.969 178.794 654.506 179.041 655.204 179.041ZM663.708 173.291C663.502 173.257 663.28 173.24 663.041 173.24C662.152 173.24 661.549 173.618 661.232 174.375V180H659.877V172.075H661.195L661.217 172.991C661.662 172.283 662.292 171.929 663.107 171.929C663.371 171.929 663.571 171.963 663.708 172.031V173.291ZM664.455 175.964C664.455 175.188 664.606 174.49 664.909 173.87C665.216 173.25 665.641 172.771 666.183 172.434C666.73 172.097 667.353 171.929 668.051 171.929C669.13 171.929 670.001 172.302 670.666 173.049C671.334 173.796 671.669 174.79 671.669 176.03V176.125C671.669 176.897 671.52 177.59 671.222 178.206C670.929 178.816 670.507 179.292 669.955 179.634C669.408 179.976 668.778 180.146 668.065 180.146C666.991 180.146 666.12 179.773 665.451 179.026C664.787 178.279 664.455 177.29 664.455 176.06V175.964ZM665.817 176.125C665.817 177.004 666.02 177.71 666.425 178.242C666.835 178.774 667.382 179.041 668.065 179.041C668.754 179.041 669.301 178.772 669.706 178.235C670.111 177.693 670.314 176.936 670.314 175.964C670.314 175.095 670.106 174.392 669.691 173.855C669.281 173.313 668.734 173.042 668.051 173.042C667.382 173.042 666.842 173.308 666.432 173.84C666.022 174.373 665.817 175.134 665.817 176.125ZM677.982 177.898C677.982 177.532 677.843 177.249 677.565 177.048C677.292 176.843 676.811 176.667 676.122 176.521C675.438 176.375 674.894 176.199 674.489 175.994C674.088 175.789 673.791 175.544 673.595 175.261C673.405 174.978 673.31 174.641 673.31 174.25C673.31 173.601 673.583 173.052 674.13 172.603C674.682 172.153 675.385 171.929 676.239 171.929C677.138 171.929 677.865 172.161 678.422 172.625C678.983 173.088 679.264 173.682 679.264 174.404H677.902C677.902 174.033 677.743 173.713 677.426 173.445C677.113 173.176 676.718 173.042 676.239 173.042C675.746 173.042 675.36 173.149 675.082 173.364C674.804 173.579 674.665 173.86 674.665 174.207C674.665 174.534 674.794 174.78 675.053 174.946C675.312 175.112 675.778 175.271 676.452 175.422C677.13 175.574 677.68 175.754 678.1 175.964C678.52 176.174 678.83 176.428 679.03 176.726C679.235 177.019 679.337 177.378 679.337 177.803C679.337 178.511 679.054 179.08 678.488 179.509C677.921 179.934 677.187 180.146 676.283 180.146C675.648 180.146 675.087 180.034 674.599 179.81C674.11 179.585 673.727 179.272 673.449 178.872C673.175 178.467 673.039 178.03 673.039 177.561H674.394C674.418 178.015 674.599 178.376 674.936 178.645C675.277 178.909 675.727 179.041 676.283 179.041C676.796 179.041 677.206 178.938 677.514 178.733C677.826 178.523 677.982 178.245 677.982 177.898ZM685.717 177.898C685.717 177.532 685.578 177.249 685.299 177.048C685.026 176.843 684.545 176.667 683.856 176.521C683.173 176.375 682.628 176.199 682.223 175.994C681.823 175.789 681.525 175.544 681.33 175.261C681.139 174.978 681.044 174.641 681.044 174.25C681.044 173.601 681.317 173.052 681.864 172.603C682.416 172.153 683.119 171.929 683.974 171.929C684.872 171.929 685.6 172.161 686.156 172.625C686.718 173.088 686.999 173.682 686.999 174.404H685.636C685.636 174.033 685.478 173.713 685.16 173.445C684.848 173.176 684.452 173.042 683.974 173.042C683.48 173.042 683.095 173.149 682.816 173.364C682.538 173.579 682.399 173.86 682.399 174.207C682.399 174.534 682.528 174.78 682.787 174.946C683.046 175.112 683.512 175.271 684.186 175.422C684.865 175.574 685.414 175.754 685.834 175.964C686.254 176.174 686.564 176.428 686.764 176.726C686.969 177.019 687.072 177.378 687.072 177.803C687.072 178.511 686.789 179.08 686.222 179.509C685.656 179.934 684.921 180.146 684.018 180.146C683.383 180.146 682.821 180.034 682.333 179.81C681.845 179.585 681.461 179.272 681.183 178.872C680.91 178.467 680.773 178.03 680.773 177.561H682.128C682.152 178.015 682.333 178.376 682.67 178.645C683.012 178.909 683.461 179.041 684.018 179.041C684.53 179.041 684.94 178.938 685.248 178.733C685.561 178.523 685.717 178.245 685.717 177.898ZM695.846 180.146C694.772 180.146 693.898 179.795 693.224 179.092C692.55 178.384 692.213 177.439 692.213 176.257V176.008C692.213 175.222 692.362 174.521 692.66 173.906C692.963 173.286 693.383 172.803 693.92 172.456C694.462 172.104 695.048 171.929 695.678 171.929C696.708 171.929 697.509 172.268 698.08 172.947C698.651 173.625 698.937 174.597 698.937 175.862V176.426H693.568C693.588 177.207 693.815 177.839 694.25 178.323C694.689 178.801 695.246 179.041 695.919 179.041C696.398 179.041 696.803 178.943 697.135 178.748C697.467 178.552 697.758 178.293 698.007 177.971L698.834 178.616C698.17 179.636 697.174 180.146 695.846 180.146ZM695.678 173.042C695.131 173.042 694.672 173.242 694.301 173.643C693.93 174.038 693.7 174.595 693.612 175.312H697.582V175.21C697.543 174.521 697.357 173.989 697.025 173.613C696.693 173.232 696.244 173.042 695.678 173.042ZM701.793 172.075L701.837 173.071C702.443 172.31 703.234 171.929 704.21 171.929C705.885 171.929 706.73 172.874 706.745 174.763V180H705.39V174.756C705.385 174.185 705.253 173.762 704.994 173.489C704.74 173.215 704.342 173.079 703.8 173.079C703.361 173.079 702.975 173.196 702.643 173.43C702.311 173.665 702.052 173.972 701.867 174.353V180H700.512V172.075H701.793ZM708.458 175.972C708.458 174.756 708.747 173.779 709.323 173.042C709.899 172.3 710.653 171.929 711.586 171.929C712.514 171.929 713.249 172.246 713.791 172.881V168.75H715.146V180H713.9L713.834 179.15C713.292 179.814 712.538 180.146 711.571 180.146C710.653 180.146 709.904 179.771 709.323 179.019C708.747 178.267 708.458 177.285 708.458 176.074V175.972ZM709.813 176.125C709.813 177.024 709.999 177.727 710.37 178.235C710.741 178.743 711.254 178.997 711.908 178.997C712.768 178.997 713.395 178.611 713.791 177.839V174.199C713.385 173.452 712.763 173.079 711.923 173.079C711.259 173.079 710.741 173.335 710.37 173.848C709.999 174.36 709.813 175.12 709.813 176.125Z" fill="#888888"/>
<path d="M566.472 233.075L566.509 233.954C567.09 233.271 567.874 232.929 568.86 232.929C569.968 232.929 570.723 233.354 571.123 234.203C571.387 233.822 571.729 233.515 572.148 233.28C572.573 233.046 573.074 232.929 573.65 232.929C575.388 232.929 576.272 233.849 576.301 235.69V241H574.946V235.771C574.946 235.204 574.817 234.782 574.558 234.503C574.299 234.22 573.865 234.079 573.254 234.079C572.751 234.079 572.334 234.23 572.002 234.533C571.67 234.831 571.477 235.233 571.423 235.741V241H570.061V235.807C570.061 234.655 569.497 234.079 568.369 234.079C567.48 234.079 566.873 234.457 566.545 235.214V241H565.19V233.075H566.472ZM583.245 241C583.167 240.844 583.103 240.565 583.054 240.165C582.424 240.819 581.672 241.146 580.798 241.146C580.017 241.146 579.375 240.927 578.872 240.487C578.374 240.043 578.125 239.481 578.125 238.803C578.125 237.978 578.438 237.338 579.062 236.884C579.692 236.425 580.576 236.195 581.714 236.195H583.032V235.573C583.032 235.099 582.891 234.723 582.607 234.445C582.324 234.162 581.907 234.02 581.355 234.02C580.872 234.02 580.466 234.142 580.139 234.386C579.812 234.63 579.648 234.926 579.648 235.272H578.286C578.286 234.877 578.425 234.496 578.704 234.13C578.987 233.759 579.368 233.466 579.846 233.251C580.33 233.036 580.859 232.929 581.436 232.929C582.349 232.929 583.064 233.158 583.582 233.617C584.099 234.071 584.368 234.699 584.387 235.5V239.147C584.387 239.875 584.48 240.453 584.666 240.883V241H583.245ZM580.996 239.967C581.421 239.967 581.824 239.857 582.205 239.638C582.585 239.418 582.861 239.132 583.032 238.781V237.155H581.97C580.31 237.155 579.48 237.641 579.48 238.612C579.48 239.037 579.622 239.369 579.905 239.608C580.188 239.848 580.552 239.967 580.996 239.967ZM587.983 241H586.628V233.075H587.983V241ZM586.519 230.973C586.519 230.753 586.584 230.568 586.716 230.417C586.853 230.265 587.053 230.189 587.317 230.189C587.581 230.189 587.781 230.265 587.917 230.417C588.054 230.568 588.123 230.753 588.123 230.973C588.123 231.193 588.054 231.376 587.917 231.522C587.781 231.669 587.581 231.742 587.317 231.742C587.053 231.742 586.853 231.669 586.716 231.522C586.584 231.376 586.519 231.193 586.519 230.973ZM591.44 233.075L591.484 234.071C592.09 233.31 592.881 232.929 593.857 232.929C595.532 232.929 596.377 233.874 596.392 235.763V241H595.037V235.756C595.032 235.185 594.9 234.762 594.641 234.489C594.387 234.215 593.989 234.079 593.447 234.079C593.008 234.079 592.622 234.196 592.29 234.43C591.958 234.665 591.699 234.972 591.514 235.353V241H590.159V233.075H591.44ZM605.444 241.146C604.37 241.146 603.496 240.795 602.822 240.092C602.148 239.384 601.812 238.439 601.812 237.257V237.008C601.812 236.222 601.96 235.521 602.258 234.906C602.561 234.286 602.981 233.803 603.518 233.456C604.06 233.104 604.646 232.929 605.276 232.929C606.306 232.929 607.107 233.268 607.678 233.947C608.25 234.625 608.535 235.597 608.535 236.862V237.426H603.167C603.186 238.207 603.413 238.839 603.848 239.323C604.287 239.801 604.844 240.041 605.518 240.041C605.996 240.041 606.401 239.943 606.733 239.748C607.065 239.552 607.356 239.293 607.605 238.971L608.433 239.616C607.769 240.636 606.772 241.146 605.444 241.146ZM605.276 234.042C604.729 234.042 604.27 234.242 603.899 234.643C603.528 235.038 603.298 235.595 603.21 236.312H607.18V236.21C607.141 235.521 606.956 234.989 606.624 234.613C606.292 234.232 605.842 234.042 605.276 234.042ZM611.392 233.075L611.436 234.071C612.041 233.31 612.832 232.929 613.809 232.929C615.483 232.929 616.328 233.874 616.343 235.763V241H614.988V235.756C614.983 235.185 614.851 234.762 614.592 234.489C614.338 234.215 613.94 234.079 613.398 234.079C612.959 234.079 612.573 234.196 612.241 234.43C611.909 234.665 611.65 234.972 611.465 235.353V241H610.11V233.075H611.392ZM618.057 236.972C618.057 235.756 618.345 234.779 618.921 234.042C619.497 233.3 620.251 232.929 621.184 232.929C622.112 232.929 622.847 233.246 623.389 233.881V229.75H624.744V241H623.499L623.433 240.15C622.891 240.814 622.136 241.146 621.169 241.146C620.251 241.146 619.502 240.771 618.921 240.019C618.345 239.267 618.057 238.285 618.057 237.074V236.972ZM619.412 237.125C619.412 238.024 619.597 238.727 619.968 239.235C620.339 239.743 620.852 239.997 621.506 239.997C622.366 239.997 622.993 239.611 623.389 238.839V235.199C622.983 234.452 622.361 234.079 621.521 234.079C620.857 234.079 620.339 234.335 619.968 234.848C619.597 235.36 619.412 236.12 619.412 237.125Z" fill="#888888"/>
<path d="M77.7422 233.075L77.7788 233.954C78.3599 233.271 79.1436 232.929 80.1299 232.929C81.2383 232.929 81.9927 233.354 82.3931 234.203C82.6567 233.822 82.9985 233.515 83.4185 233.28C83.8433 233.046 84.3438 232.929 84.9199 232.929C86.6582 232.929 87.542 233.849 87.5713 235.69V241H86.2163V235.771C86.2163 235.204 86.0869 234.782 85.8281 234.503C85.5693 234.22 85.1348 234.079 84.5244 234.079C84.0215 234.079 83.604 234.23 83.272 234.533C82.9399 234.831 82.7471 235.233 82.6934 235.741V241H81.3311V235.807C81.3311 234.655 80.7671 234.079 79.6392 234.079C78.7505 234.079 78.1426 234.457 77.8154 235.214V241H76.4604V233.075H77.7422ZM94.5146 241C94.4365 240.844 94.373 240.565 94.3242 240.165C93.6943 240.819 92.9424 241.146 92.0684 241.146C91.2871 241.146 90.645 240.927 90.1421 240.487C89.644 240.043 89.395 239.481 89.395 238.803C89.395 237.978 89.7075 237.338 90.3325 236.884C90.9624 236.425 91.8462 236.195 92.9839 236.195H94.3022V235.573C94.3022 235.099 94.1606 234.723 93.8774 234.445C93.5942 234.162 93.1768 234.02 92.625 234.02C92.1416 234.02 91.7363 234.142 91.4092 234.386C91.082 234.63 90.9185 234.926 90.9185 235.272H89.5562C89.5562 234.877 89.6953 234.496 89.9736 234.13C90.2568 233.759 90.6377 233.466 91.1162 233.251C91.5996 233.036 92.1294 232.929 92.7056 232.929C93.6187 232.929 94.334 233.158 94.8516 233.617C95.3691 234.071 95.6377 234.699 95.6572 235.5V239.147C95.6572 239.875 95.75 240.453 95.9355 240.883V241H94.5146ZM92.2661 239.967C92.6909 239.967 93.0938 239.857 93.4746 239.638C93.8555 239.418 94.1313 239.132 94.3022 238.781V237.155H93.2402C91.5801 237.155 90.75 237.641 90.75 238.612C90.75 239.037 90.8916 239.369 91.1748 239.608C91.458 239.848 91.8218 239.967 92.2661 239.967ZM99.2534 241H97.8984V233.075H99.2534V241ZM97.7886 230.973C97.7886 230.753 97.8545 230.568 97.9863 230.417C98.123 230.265 98.3232 230.189 98.5869 230.189C98.8506 230.189 99.0508 230.265 99.1875 230.417C99.3242 230.568 99.3926 230.753 99.3926 230.973C99.3926 231.193 99.3242 231.376 99.1875 231.522C99.0508 231.669 98.8506 231.742 98.5869 231.742C98.3232 231.742 98.123 231.669 97.9863 231.522C97.8545 231.376 97.7886 231.193 97.7886 230.973ZM102.71 233.075L102.754 234.071C103.36 233.31 104.151 232.929 105.127 232.929C106.802 232.929 107.647 233.874 107.662 235.763V241H106.307V235.756C106.302 235.185 106.17 234.762 105.911 234.489C105.657 234.215 105.259 234.079 104.717 234.079C104.278 234.079 103.892 234.196 103.56 234.43C103.228 234.665 102.969 234.972 102.784 235.353V241H101.429V233.075H102.71ZM118.04 238.898C118.04 238.532 117.901 238.249 117.623 238.048C117.349 237.843 116.868 237.667 116.18 237.521C115.496 237.375 114.952 237.199 114.546 236.994C114.146 236.789 113.848 236.544 113.653 236.261C113.462 235.978 113.367 235.641 113.367 235.25C113.367 234.601 113.641 234.052 114.188 233.603C114.739 233.153 115.442 232.929 116.297 232.929C117.195 232.929 117.923 233.161 118.479 233.625C119.041 234.088 119.322 234.682 119.322 235.404H117.959C117.959 235.033 117.801 234.713 117.483 234.445C117.171 234.176 116.775 234.042 116.297 234.042C115.804 234.042 115.418 234.149 115.14 234.364C114.861 234.579 114.722 234.86 114.722 235.207C114.722 235.534 114.852 235.78 115.11 235.946C115.369 236.112 115.835 236.271 116.509 236.422C117.188 236.574 117.737 236.754 118.157 236.964C118.577 237.174 118.887 237.428 119.087 237.726C119.292 238.019 119.395 238.378 119.395 238.803C119.395 239.511 119.112 240.08 118.545 240.509C117.979 240.934 117.244 241.146 116.341 241.146C115.706 241.146 115.145 241.034 114.656 240.81C114.168 240.585 113.785 240.272 113.506 239.872C113.233 239.467 113.096 239.03 113.096 238.561H114.451C114.476 239.015 114.656 239.376 114.993 239.645C115.335 239.909 115.784 240.041 116.341 240.041C116.854 240.041 117.264 239.938 117.571 239.733C117.884 239.523 118.04 239.245 118.04 238.898ZM122.999 231.156V233.075H124.478V234.123H122.999V239.037C122.999 239.354 123.064 239.594 123.196 239.755C123.328 239.911 123.553 239.989 123.87 239.989C124.026 239.989 124.241 239.96 124.515 239.901V241C124.158 241.098 123.812 241.146 123.475 241.146C122.869 241.146 122.413 240.963 122.105 240.597C121.797 240.231 121.644 239.711 121.644 239.037V234.123H120.201V233.075H121.644V231.156H122.999ZM130.96 241C130.882 240.844 130.818 240.565 130.77 240.165C130.14 240.819 129.388 241.146 128.514 241.146C127.732 241.146 127.09 240.927 126.587 240.487C126.089 240.043 125.84 239.481 125.84 238.803C125.84 237.978 126.153 237.338 126.778 236.884C127.408 236.425 128.292 236.195 129.429 236.195H130.748V235.573C130.748 235.099 130.606 234.723 130.323 234.445C130.04 234.162 129.622 234.02 129.07 234.02C128.587 234.02 128.182 234.142 127.854 234.386C127.527 234.63 127.364 234.926 127.364 235.272H126.001C126.001 234.877 126.141 234.496 126.419 234.13C126.702 233.759 127.083 233.466 127.562 233.251C128.045 233.036 128.575 232.929 129.151 232.929C130.064 232.929 130.779 233.158 131.297 233.617C131.814 234.071 132.083 234.699 132.103 235.5V239.147C132.103 239.875 132.195 240.453 132.381 240.883V241H130.96ZM128.711 239.967C129.136 239.967 129.539 239.857 129.92 239.638C130.301 239.418 130.577 239.132 130.748 238.781V237.155H129.686C128.025 237.155 127.195 237.641 127.195 238.612C127.195 239.037 127.337 239.369 127.62 239.608C127.903 239.848 128.267 239.967 128.711 239.967ZM138.057 234.291C137.852 234.257 137.63 234.24 137.391 234.24C136.502 234.24 135.899 234.618 135.582 235.375V241H134.227V233.075H135.545L135.567 233.991C136.011 233.283 136.641 232.929 137.457 232.929C137.72 232.929 137.92 232.963 138.057 233.031V234.291ZM141.514 231.156V233.075H142.994V234.123H141.514V239.037C141.514 239.354 141.58 239.594 141.712 239.755C141.844 239.911 142.068 239.989 142.386 239.989C142.542 239.989 142.757 239.96 143.03 239.901V241C142.674 241.098 142.327 241.146 141.99 241.146C141.385 241.146 140.928 240.963 140.621 240.597C140.313 240.231 140.159 239.711 140.159 239.037V234.123H138.716V233.075H140.159V231.156H141.514Z" fill="#888888"/>
<path d="M607 58H643" stroke="#888888" stroke-width="2" stroke-dasharray="6 4"/>
<path d="M596 187L596 223" stroke="#888888" stroke-width="2" stroke-dasharray="6 4"/>
<path d="M607 176H643" stroke="#888888" stroke-width="2" stroke-dasharray="6 4"/>
<path d="M110 187L110 223" stroke="#888888" stroke-width="2" stroke-dasharray="6 4"/>
</svg>
