<svg width="586" height="152" viewBox="0 0 586 152" fill="none" xmlns="http://www.w3.org/2000/svg">
<rect x="1" y="1" width="584" height="150" rx="9" fill="#7187FB" stroke="#001EBB" stroke-width="2"/>
<g filter="url(#filter0_d)">
<rect x="20" y="82" width="81" height="50" rx="6" fill="#FFF000"/>
<rect x="21" y="83" width="79" height="48" rx="5" stroke="#001EBB" stroke-width="2"/>
</g>
<path d="M63.126 113.5H60.999V103.226L57.8613 104.298V102.496L62.8535 100.659H63.126V113.5Z" fill="#001EBB"/>
<g filter="url(#filter1_d)">
<rect x="113" y="82" width="82" height="50" rx="6" fill="#FFF000"/>
<rect x="114" y="83" width="80" height="48" rx="5" stroke="#001EBB" stroke-width="2"/>
</g>
<path d="M158.947 113.5H150.343V112.032L154.605 107.383C155.221 106.697 155.657 106.126 155.915 105.669C156.179 105.206 156.311 104.743 156.311 104.28C156.311 103.671 156.138 103.179 155.792 102.804C155.452 102.429 154.992 102.241 154.412 102.241C153.721 102.241 153.185 102.452 152.804 102.874C152.423 103.296 152.232 103.873 152.232 104.605H150.097C150.097 103.826 150.272 103.126 150.624 102.505C150.981 101.878 151.488 101.392 152.145 101.046C152.807 100.7 153.568 100.527 154.43 100.527C155.672 100.527 156.65 100.841 157.365 101.468C158.086 102.089 158.446 102.95 158.446 104.052C158.446 104.69 158.265 105.361 157.901 106.064C157.544 106.762 156.955 107.556 156.135 108.446L153.006 111.795H158.947V113.5Z" fill="#001EBB"/>
<g filter="url(#filter2_d)">
<rect x="207" y="82" width="80" height="50" rx="6" fill="#FFF000"/>
<rect x="208" y="83" width="78" height="48" rx="5" stroke="#001EBB" stroke-width="2"/>
</g>
<path d="M245.812 106.126H247.113C247.77 106.12 248.288 105.95 248.669 105.616C249.056 105.282 249.249 104.799 249.249 104.166C249.249 103.557 249.088 103.085 248.766 102.751C248.449 102.411 247.963 102.241 247.307 102.241C246.732 102.241 246.261 102.408 245.892 102.742C245.522 103.07 245.338 103.501 245.338 104.034H243.202C243.202 103.378 243.375 102.78 243.721 102.241C244.072 101.702 244.559 101.283 245.18 100.984C245.807 100.68 246.507 100.527 247.28 100.527C248.558 100.527 249.56 100.85 250.286 101.494C251.019 102.133 251.385 103.023 251.385 104.166C251.385 104.74 251.2 105.282 250.831 105.792C250.468 106.296 249.996 106.677 249.416 106.935C250.119 107.175 250.652 107.553 251.016 108.068C251.385 108.584 251.569 109.199 251.569 109.914C251.569 111.062 251.174 111.977 250.383 112.656C249.598 113.336 248.563 113.676 247.28 113.676C246.05 113.676 245.042 113.348 244.257 112.691C243.472 112.035 243.079 111.162 243.079 110.072H245.215C245.215 110.635 245.402 111.092 245.777 111.443C246.158 111.795 246.668 111.971 247.307 111.971C247.969 111.971 248.49 111.795 248.871 111.443C249.252 111.092 249.442 110.582 249.442 109.914C249.442 109.24 249.243 108.722 248.845 108.358C248.446 107.995 247.854 107.813 247.069 107.813H245.812V106.126Z" fill="#001EBB"/>
<g filter="url(#filter3_d)">
<rect x="299" y="82" width="80" height="50" rx="6" fill="#FFF000"/>
<rect x="300" y="83" width="78" height="48" rx="5" stroke="#001EBB" stroke-width="2"/>
</g>
<path d="M342.567 108.938H344.158V110.652H342.567V113.5H340.432V110.652H334.903L334.842 109.352L340.361 100.703H342.567V108.938ZM337.083 108.938H340.432V103.595L340.273 103.876L337.083 108.938Z" fill="#001EBB"/>
<g filter="url(#filter4_d)">
<rect x="391" y="82" width="82" height="50" rx="6" fill="#FFF000"/>
<rect x="392" y="83" width="80" height="48" rx="5" stroke="#001EBB" stroke-width="2"/>
</g>
<path d="M428.914 107.154L429.608 100.703H436.481V102.549H431.384L431.032 105.607C431.624 105.268 432.292 105.098 433.036 105.098C434.255 105.098 435.201 105.487 435.875 106.267C436.555 107.046 436.895 108.095 436.895 109.413C436.895 110.714 436.52 111.751 435.77 112.524C435.02 113.292 433.991 113.676 432.685 113.676C431.513 113.676 430.54 113.345 429.767 112.683C428.999 112.015 428.583 111.136 428.519 110.046H430.584C430.666 110.667 430.889 111.145 431.252 111.479C431.615 111.807 432.09 111.971 432.676 111.971C433.332 111.971 433.842 111.736 434.205 111.268C434.574 110.799 434.759 110.16 434.759 109.352C434.759 108.572 434.557 107.957 434.152 107.506C433.748 107.049 433.191 106.82 432.482 106.82C432.096 106.82 431.768 106.873 431.498 106.979C431.229 107.078 430.936 107.277 430.619 107.576L428.914 107.154Z" fill="#001EBB"/>
<g filter="url(#filter5_d)">
<rect x="485" y="82" width="81" height="50" rx="6" fill="#FFF000"/>
<rect x="486" y="83" width="79" height="48" rx="5" stroke="#001EBB" stroke-width="2"/>
</g>
<path d="M528.987 100.642V102.408H528.724C527.528 102.426 526.573 102.754 525.858 103.393C525.144 104.031 524.719 104.937 524.584 106.108C525.27 105.388 526.146 105.027 527.212 105.027C528.343 105.027 529.233 105.426 529.884 106.223C530.54 107.02 530.868 108.048 530.868 109.308C530.868 110.608 530.484 111.663 529.717 112.472C528.955 113.274 527.953 113.676 526.711 113.676C525.434 113.676 524.396 113.204 523.6 112.261C522.809 111.317 522.413 110.081 522.413 108.552V107.822C522.413 105.578 522.958 103.82 524.048 102.549C525.144 101.277 526.717 100.642 528.768 100.642H528.987ZM526.693 106.75C526.225 106.75 525.794 106.882 525.401 107.146C525.015 107.409 524.73 107.761 524.549 108.2V108.851C524.549 109.8 524.748 110.556 525.146 111.118C525.545 111.675 526.061 111.953 526.693 111.953C527.326 111.953 527.827 111.716 528.196 111.241C528.565 110.767 528.75 110.143 528.75 109.369C528.75 108.596 528.562 107.966 528.188 107.479C527.812 106.993 527.314 106.75 526.693 106.75Z" fill="#001EBB"/>
<g filter="url(#filter6_d)">
<rect x="20" y="20" width="82" height="50" rx="6" fill="#FFF000"/>
<rect x="21" y="21" width="80" height="48" rx="5" stroke="#001EBB" stroke-width="2"/>
</g>
<path d="M65.8594 39.8896L60.7441 51.5H58.5029L63.6094 40.417H56.9912V38.7031H65.8594V39.8896Z" fill="#001EBB"/>
<g filter="url(#filter7_d)">
<rect x="114" y="20" width="81" height="50" rx="6" fill="#FFF000"/>
<rect x="115" y="21" width="79" height="48" rx="5" stroke="#001EBB" stroke-width="2"/>
</g>
<path d="M159.402 42.0781C159.402 42.7051 159.241 43.2646 158.919 43.7568C158.597 44.2432 158.157 44.627 157.601 44.9082C158.269 45.2188 158.781 45.6436 159.139 46.1826C159.502 46.7217 159.684 47.3311 159.684 48.0107C159.684 49.1357 159.303 50.0293 158.541 50.6914C157.779 51.3477 156.766 51.6758 155.5 51.6758C154.229 51.6758 153.209 51.3447 152.441 50.6826C151.68 50.0205 151.299 49.1299 151.299 48.0107C151.299 47.3252 151.48 46.71 151.844 46.165C152.207 45.6201 152.717 45.2012 153.373 44.9082C152.822 44.627 152.386 44.2432 152.063 43.7568C151.747 43.2646 151.589 42.7051 151.589 42.0781C151.589 40.9883 151.94 40.124 152.644 39.4854C153.347 38.8467 154.296 38.5273 155.491 38.5273C156.692 38.5273 157.645 38.8467 158.348 39.4854C159.051 40.124 159.402 40.9883 159.402 42.0781ZM157.548 47.9053C157.548 47.2725 157.357 46.7627 156.977 46.376C156.602 45.9834 156.104 45.7871 155.482 45.7871C154.861 45.7871 154.363 45.9805 153.988 46.3672C153.619 46.7539 153.435 47.2666 153.435 47.9053C153.435 48.5322 153.616 49.0332 153.979 49.4082C154.349 49.7832 154.855 49.9707 155.5 49.9707C156.145 49.9707 156.646 49.7891 157.003 49.4258C157.366 49.0625 157.548 48.5557 157.548 47.9053ZM157.275 42.1572C157.275 41.6006 157.114 41.1436 156.792 40.7861C156.47 40.4229 156.036 40.2412 155.491 40.2412C154.946 40.2412 154.516 40.4141 154.199 40.7598C153.883 41.0996 153.725 41.5654 153.725 42.1572C153.725 42.7432 153.883 43.209 154.199 43.5547C154.521 43.9004 154.955 44.0732 155.5 44.0732C156.045 44.0732 156.476 43.9004 156.792 43.5547C157.114 43.209 157.275 42.7432 157.275 42.1572Z" fill="#001EBB"/>
<g filter="url(#filter8_d)">
<rect x="207" y="20" width="82" height="50" rx="6" fill="#FFF000"/>
<rect x="208" y="21" width="80" height="48" rx="5" stroke="#001EBB" stroke-width="2"/>
</g>
<path d="M250.398 46.1475C249.684 46.9033 248.849 47.2812 247.894 47.2812C246.769 47.2812 245.872 46.8887 245.204 46.1035C244.536 45.3125 244.202 44.2754 244.202 42.9922C244.202 42.1484 244.372 41.3838 244.712 40.6982C245.052 40.0127 245.535 39.4795 246.162 39.0986C246.789 38.7178 247.516 38.5273 248.342 38.5273C249.631 38.5273 250.653 39.0078 251.409 39.9688C252.165 40.9297 252.543 42.2158 252.543 43.8271V44.4248C252.543 46.7334 252.021 48.4941 250.979 49.707C249.936 50.9199 248.38 51.5352 246.312 51.5527H246.057V49.7861H246.364C247.624 49.7686 248.591 49.4668 249.265 48.8809C249.938 48.2891 250.316 47.3779 250.398 46.1475ZM248.342 45.6113C248.77 45.6113 249.171 45.4883 249.546 45.2422C249.921 44.9961 250.211 44.6562 250.416 44.2227V43.3877C250.416 42.4443 250.223 41.6855 249.836 41.1113C249.449 40.5371 248.948 40.25 248.333 40.25C247.718 40.25 247.226 40.5049 246.856 41.0146C246.493 41.5186 246.312 42.1572 246.312 42.9307C246.312 43.7334 246.496 44.3809 246.865 44.873C247.234 45.3652 247.727 45.6113 248.342 45.6113Z" fill="#001EBB"/>
<defs>
<filter id="filter0_d" x="20" y="82" width="87" height="56" filterUnits="userSpaceOnUse" color-interpolation-filters="sRGB">
<feFlood flood-opacity="0" result="BackgroundImageFix"/>
<feColorMatrix in="SourceAlpha" type="matrix" values="0 0 0 0 0 0 0 0 0 0 0 0 0 0 0 0 0 0 127 0"/>
<feOffset dx="6" dy="6"/>
<feColorMatrix type="matrix" values="0 0 0 0 0 0 0 0 0 0 0 0 0 0 0 0 0 0 0.15 0"/>
<feBlend mode="normal" in2="BackgroundImageFix" result="effect1_dropShadow"/>
<feBlend mode="normal" in="SourceGraphic" in2="effect1_dropShadow" result="shape"/>
</filter>
<filter id="filter1_d" x="113" y="82" width="88" height="56" filterUnits="userSpaceOnUse" color-interpolation-filters="sRGB">
<feFlood flood-opacity="0" result="BackgroundImageFix"/>
<feColorMatrix in="SourceAlpha" type="matrix" values="0 0 0 0 0 0 0 0 0 0 0 0 0 0 0 0 0 0 127 0"/>
<feOffset dx="6" dy="6"/>
<feColorMatrix type="matrix" values="0 0 0 0 0 0 0 0 0 0 0 0 0 0 0 0 0 0 0.15 0"/>
<feBlend mode="normal" in2="BackgroundImageFix" result="effect1_dropShadow"/>
<feBlend mode="normal" in="SourceGraphic" in2="effect1_dropShadow" result="shape"/>
</filter>
<filter id="filter2_d" x="207" y="82" width="86" height="56" filterUnits="userSpaceOnUse" color-interpolation-filters="sRGB">
<feFlood flood-opacity="0" result="BackgroundImageFix"/>
<feColorMatrix in="SourceAlpha" type="matrix" values="0 0 0 0 0 0 0 0 0 0 0 0 0 0 0 0 0 0 127 0"/>
<feOffset dx="6" dy="6"/>
<feColorMatrix type="matrix" values="0 0 0 0 0 0 0 0 0 0 0 0 0 0 0 0 0 0 0.15 0"/>
<feBlend mode="normal" in2="BackgroundImageFix" result="effect1_dropShadow"/>
<feBlend mode="normal" in="SourceGraphic" in2="effect1_dropShadow" result="shape"/>
</filter>
<filter id="filter3_d" x="299" y="82" width="86" height="56" filterUnits="userSpaceOnUse" color-interpolation-filters="sRGB">
<feFlood flood-opacity="0" result="BackgroundImageFix"/>
<feColorMatrix in="SourceAlpha" type="matrix" values="0 0 0 0 0 0 0 0 0 0 0 0 0 0 0 0 0 0 127 0"/>
<feOffset dx="6" dy="6"/>
<feColorMatrix type="matrix" values="0 0 0 0 0 0 0 0 0 0 0 0 0 0 0 0 0 0 0.15 0"/>
<feBlend mode="normal" in2="BackgroundImageFix" result="effect1_dropShadow"/>
<feBlend mode="normal" in="SourceGraphic" in2="effect1_dropShadow" result="shape"/>
</filter>
<filter id="filter4_d" x="391" y="82" width="88" height="56" filterUnits="userSpaceOnUse" color-interpolation-filters="sRGB">
<feFlood flood-opacity="0" result="BackgroundImageFix"/>
<feColorMatrix in="SourceAlpha" type="matrix" values="0 0 0 0 0 0 0 0 0 0 0 0 0 0 0 0 0 0 127 0"/>
<feOffset dx="6" dy="6"/>
<feColorMatrix type="matrix" values="0 0 0 0 0 0 0 0 0 0 0 0 0 0 0 0 0 0 0.15 0"/>
<feBlend mode="normal" in2="BackgroundImageFix" result="effect1_dropShadow"/>
<feBlend mode="normal" in="SourceGraphic" in2="effect1_dropShadow" result="shape"/>
</filter>
<filter id="filter5_d" x="485" y="82" width="87" height="56" filterUnits="userSpaceOnUse" color-interpolation-filters="sRGB">
<feFlood flood-opacity="0" result="BackgroundImageFix"/>
<feColorMatrix in="SourceAlpha" type="matrix" values="0 0 0 0 0 0 0 0 0 0 0 0 0 0 0 0 0 0 127 0"/>
<feOffset dx="6" dy="6"/>
<feColorMatrix type="matrix" values="0 0 0 0 0 0 0 0 0 0 0 0 0 0 0 0 0 0 0.15 0"/>
<feBlend mode="normal" in2="BackgroundImageFix" result="effect1_dropShadow"/>
<feBlend mode="normal" in="SourceGraphic" in2="effect1_dropShadow" result="shape"/>
</filter>
<filter id="filter6_d" x="20" y="20" width="88" height="56" filterUnits="userSpaceOnUse" color-interpolation-filters="sRGB">
<feFlood flood-opacity="0" result="BackgroundImageFix"/>
<feColorMatrix in="SourceAlpha" type="matrix" values="0 0 0 0 0 0 0 0 0 0 0 0 0 0 0 0 0 0 127 0"/>
<feOffset dx="6" dy="6"/>
<feColorMatrix type="matrix" values="0 0 0 0 0 0 0 0 0 0 0 0 0 0 0 0 0 0 0.15 0"/>
<feBlend mode="normal" in2="BackgroundImageFix" result="effect1_dropShadow"/>
<feBlend mode="normal" in="SourceGraphic" in2="effect1_dropShadow" result="shape"/>
</filter>
<filter id="filter7_d" x="114" y="20" width="87" height="56" filterUnits="userSpaceOnUse" color-interpolation-filters="sRGB">
<feFlood flood-opacity="0" result="BackgroundImageFix"/>
<feColorMatrix in="SourceAlpha" type="matrix" values="0 0 0 0 0 0 0 0 0 0 0 0 0 0 0 0 0 0 127 0"/>
<feOffset dx="6" dy="6"/>
<feColorMatrix type="matrix" values="0 0 0 0 0 0 0 0 0 0 0 0 0 0 0 0 0 0 0.15 0"/>
<feBlend mode="normal" in2="BackgroundImageFix" result="effect1_dropShadow"/>
<feBlend mode="normal" in="SourceGraphic" in2="effect1_dropShadow" result="shape"/>
</filter>
<filter id="filter8_d" x="207" y="20" width="88" height="56" filterUnits="userSpaceOnUse" color-interpolation-filters="sRGB">
<feFlood flood-opacity="0" result="BackgroundImageFix"/>
<feColorMatrix in="SourceAlpha" type="matrix" values="0 0 0 0 0 0 0 0 0 0 0 0 0 0 0 0 0 0 127 0"/>
<feOffset dx="6" dy="6"/>
<feColorMatrix type="matrix" values="0 0 0 0 0 0 0 0 0 0 0 0 0 0 0 0 0 0 0.15 0"/>
<feBlend mode="normal" in2="BackgroundImageFix" result="effect1_dropShadow"/>
<feBlend mode="normal" in="SourceGraphic" in2="effect1_dropShadow" result="shape"/>
</filter>
</defs>
</svg>
