<svg width="709" height="158" viewBox="0 0 709 158" fill="none" xmlns="http://www.w3.org/2000/svg">
<path d="M266.723 111V105.876H269.529C272.213 105.876 274.531 105.429 276.483 104.534C278.516 103.558 279.533 101.281 279.533 97.702V29.992H267.821C264.242 29.992 261.762 31.0087 260.379 33.042C258.996 34.994 258.142 37.312 257.817 39.996L257.207 45.242H250.863L251.473 23.892H320.159L320.769 45.242H314.425L313.815 39.996C313.49 37.312 312.636 34.994 311.253 33.042C309.87 31.0087 307.349 29.992 303.689 29.992H291.855V97.092C291.855 100.915 292.831 103.355 294.783 104.412C296.735 105.388 299.094 105.876 301.859 105.876H304.665V111H266.723ZM327.879 134.546C333.41 134.546 337.924 133.489 341.421 131.374C345 129.259 347.887 126.372 350.083 122.712C352.279 119.133 354.028 115.067 355.329 110.512L332.759 57.198C331.702 54.6767 330.563 52.9687 329.343 52.074C328.204 51.1793 326.456 50.732 324.097 50.732H323.731V45.608H353.011V50.732H352.645C347.765 50.732 345.325 52.684 345.325 56.588C345.325 57.9707 345.65 59.4753 346.301 61.102L355.207 82.818C356.02 84.6887 356.793 86.7627 357.525 89.04C358.338 91.236 359.07 93.3507 359.721 95.384C360.372 97.4173 360.819 99.1253 361.063 100.508C361.632 98.1493 362.364 95.7093 363.259 93.188C364.235 90.6667 365.13 88.186 365.943 85.746L374.117 61.956C374.849 60.004 375.215 58.2553 375.215 56.71C375.215 52.7247 372.531 50.732 367.163 50.732H366.797V45.608H392.173V50.732H391.807C389.449 50.732 387.659 51.342 386.439 52.562C385.219 53.782 383.918 56.344 382.535 60.248L363.991 111.488C361.877 117.425 359.843 122.265 357.891 126.006C355.939 129.747 353.743 132.635 351.303 134.668C348.944 136.783 345.976 138.247 342.397 139.06C338.818 139.873 334.345 140.28 328.977 140.28H327.879V134.546ZM394.422 140.28V135.156H395.398C398.163 135.156 400.522 134.627 402.474 133.57C404.426 132.594 405.402 130.195 405.402 126.372V59.028C405.402 55.4493 404.385 53.172 402.352 52.196C400.4 51.22 398.082 50.732 395.398 50.732H393.812V45.608H415.162L416.382 56.588H416.87C418.74 52.8467 421.14 49.878 424.068 47.682C426.996 45.486 430.818 44.388 435.536 44.388C443.588 44.388 449.728 47.1127 453.958 52.562C458.268 57.93 460.424 66.47 460.424 78.182C460.424 89.9753 458.268 98.5967 453.958 104.046C449.728 109.495 443.588 112.22 435.536 112.22C430.818 112.22 426.955 111.244 423.946 109.292C421.018 107.259 418.659 104.656 416.87 101.484H416.382C416.544 103.843 416.666 106.364 416.748 109.048C416.829 111.651 416.87 113.725 416.87 115.27V126.982C416.87 130.561 417.846 132.797 419.798 133.692C421.831 134.668 424.19 135.156 426.874 135.156H427.24V140.28H394.422ZM433.584 104.412C438.952 104.412 442.774 102.175 445.052 97.702C447.41 93.1473 448.59 86.6 448.59 78.06C448.59 69.3573 447.41 62.8913 445.052 58.662C442.774 54.3513 438.911 52.196 433.462 52.196C427.118 52.196 422.766 54.3513 420.408 58.662C418.049 62.8913 416.87 69.398 416.87 78.182C416.87 86.6407 418.049 93.1473 420.408 97.702C422.766 102.175 427.158 104.412 433.584 104.412ZM502.179 112.22C493.395 112.22 486.482 109.414 481.439 103.802C476.396 98.19 473.875 89.65 473.875 78.182C473.875 66.7953 476.274 58.3367 481.073 52.806C485.953 47.194 493.11 44.388 502.545 44.388C511.329 44.388 518.242 47.194 523.285 52.806C528.328 58.3367 530.849 66.7953 530.849 78.182C530.849 89.65 528.409 98.19 523.529 103.802C518.73 109.414 511.614 112.22 502.179 112.22ZM502.423 105.876C508.523 105.876 512.793 103.558 515.233 98.922C517.754 94.2047 519.015 87.2913 519.015 78.182C519.015 69.0727 517.754 62.2407 515.233 57.686C512.712 53.1313 508.401 50.854 502.301 50.854C496.201 50.854 491.89 53.1313 489.369 57.686C486.929 62.2407 485.709 69.0727 485.709 78.182C485.709 87.2913 486.97 94.2047 489.491 98.922C492.012 103.558 496.323 105.876 502.423 105.876Z" fill="black"/>
<path d="M142 17H608" stroke="#379AD6" stroke-width="1.5" stroke-dasharray="2 1"/>
<path d="M142 44H608" stroke="#379AD6" stroke-width="1.5" stroke-dasharray="2 1"/>
<path d="M142 112H608" stroke="#E44D26" stroke-width="2" stroke-dasharray="2 1"/>
<path d="M142 142H608" stroke="#379AD6" stroke-width="1.5" stroke-dasharray="2 1"/>
<path d="M21.2012 23V22.286H21.5242C21.8528 22.286 22.0965 22.201 22.2552 22.031C22.4252 21.861 22.6122 21.504 22.8162 20.96L26.5902 10.862H27.9162L31.7582 21.385C31.8828 21.7363 32.0302 21.9743 32.2002 22.099C32.3815 22.2237 32.6365 22.286 32.9652 22.286H33.1862V23H28.5112V22.286H28.9022C29.5822 22.286 29.9222 22.014 29.9222 21.47C29.9222 21.3793 29.9108 21.283 29.8882 21.181C29.8655 21.079 29.8315 20.9657 29.7862 20.841L29.1062 18.937H24.6352L23.9892 20.722C23.8872 20.994 23.8362 21.2377 23.8362 21.453C23.8362 22.0083 24.2102 22.286 24.9582 22.286H25.3492V23H21.2012ZM24.9582 18.087H28.8002L27.7462 15.112C27.5648 14.6133 27.4005 14.143 27.2532 13.701C27.1058 13.259 26.9868 12.834 26.8962 12.426C26.8168 12.834 26.7148 13.225 26.5902 13.599C26.4655 13.973 26.3068 14.4263 26.1142 14.959L24.9582 18.087ZM36.7575 23.17C35.9075 23.17 35.2275 23.017 34.7175 22.711C34.2075 22.405 33.9525 21.9573 33.9525 21.368C33.9525 21.062 34.0148 20.824 34.1395 20.654C34.2642 20.484 34.4058 20.365 34.5645 20.297C34.7345 20.229 34.8875 20.195 35.0235 20.195C35.0235 20.7843 35.1538 21.2943 35.4145 21.725C35.6865 22.1443 36.1682 22.354 36.8595 22.354C37.4602 22.354 37.9192 22.2123 38.2365 21.929C38.5652 21.6343 38.7295 21.2603 38.7295 20.807C38.7295 20.5237 38.6672 20.2913 38.5425 20.11C38.4292 19.9287 38.2195 19.753 37.9135 19.583C37.6188 19.4017 37.1938 19.192 36.6385 18.954C36.0605 18.6933 35.5788 18.444 35.1935 18.206C34.8195 17.9567 34.5362 17.6733 34.3435 17.356C34.1622 17.0273 34.0715 16.6193 34.0715 16.132C34.0715 15.3613 34.3605 14.772 34.9385 14.364C35.5278 13.9447 36.3042 13.735 37.2675 13.735C38.0835 13.735 38.7012 13.888 39.1205 14.194C39.5398 14.5 39.7495 14.8683 39.7495 15.299C39.7495 15.605 39.6418 15.8543 39.4265 16.047C39.2225 16.2283 38.9222 16.319 38.5255 16.319C38.5255 15.7523 38.4065 15.3103 38.1685 14.993C37.9305 14.6757 37.5622 14.517 37.0635 14.517C36.4855 14.517 36.0718 14.6473 35.8225 14.908C35.5732 15.1573 35.4485 15.4803 35.4485 15.877C35.4485 16.3077 35.6072 16.642 35.9245 16.88C36.2532 17.1067 36.7972 17.373 37.5565 17.679C38.1572 17.9283 38.6445 18.1777 39.0185 18.427C39.3925 18.6763 39.6645 18.9653 39.8345 19.294C40.0158 19.6227 40.1065 20.025 40.1065 20.501C40.1065 21.385 39.8005 22.0537 39.1885 22.507C38.5765 22.949 37.7662 23.17 36.7575 23.17ZM45.6684 23.17C44.9204 23.17 44.2518 23.0113 43.6624 22.694C43.0844 22.3767 42.6254 21.878 42.2854 21.198C41.9568 20.5067 41.7924 19.6057 41.7924 18.495C41.7924 17.2823 41.9568 16.3303 42.2854 15.639C42.6254 14.9363 43.0788 14.4433 43.6454 14.16C44.2234 13.8653 44.8694 13.718 45.5834 13.718C46.0594 13.718 46.5241 13.7803 46.9774 13.905C47.4308 14.0297 47.8048 14.2223 48.0994 14.483C48.3941 14.7323 48.5414 15.0553 48.5414 15.452C48.5414 15.8373 48.4111 16.115 48.1504 16.285C47.9011 16.4437 47.5271 16.523 47.0284 16.523C47.0284 15.9903 46.9264 15.5313 46.7224 15.146C46.5298 14.7607 46.1501 14.568 45.5834 14.568C45.1528 14.568 44.7731 14.6813 44.4444 14.908C44.1271 15.1347 43.8778 15.5313 43.6964 16.098C43.5264 16.6647 43.4414 17.458 43.4414 18.478C43.4414 19.6793 43.6398 20.5803 44.0364 21.181C44.4444 21.7703 45.1018 22.065 46.0084 22.065C46.5411 22.065 47.0001 21.9573 47.3854 21.742C47.7821 21.5153 48.0768 21.2263 48.2694 20.875C48.4621 21.0337 48.5584 21.2547 48.5584 21.538C48.5584 21.7987 48.4508 22.0537 48.2354 22.303C48.0201 22.5523 47.6971 22.762 47.2664 22.932C46.8471 23.0907 46.3144 23.17 45.6684 23.17ZM54.1036 23.17C52.8683 23.17 51.8993 22.762 51.1966 21.946C50.5053 21.13 50.1596 19.9853 50.1596 18.512C50.1596 16.9253 50.4883 15.7297 51.1456 14.925C51.8029 14.1203 52.7323 13.718 53.9336 13.718C55.0329 13.718 55.8943 14.058 56.5176 14.738C57.1523 15.418 57.4696 16.4323 57.4696 17.781V18.563H51.8086C51.8313 19.7983 52.0523 20.6993 52.4716 21.266C52.9023 21.8213 53.5256 22.099 54.3416 22.099C54.9309 22.099 55.4296 21.98 55.8376 21.742C56.2569 21.4927 56.5686 21.215 56.7726 20.909C56.8519 20.943 56.9256 21.011 56.9936 21.113C57.0616 21.215 57.0956 21.3397 57.0956 21.487C57.0956 21.7137 56.9879 21.9573 56.7726 22.218C56.5573 22.4787 56.2286 22.7053 55.7866 22.898C55.3446 23.0793 54.7836 23.17 54.1036 23.17ZM55.7526 17.645C55.7526 16.7383 55.6109 16.013 55.3276 15.469C55.0556 14.9137 54.5796 14.636 53.8996 14.636C53.2763 14.636 52.7889 14.8967 52.4376 15.418C52.0976 15.928 51.8993 16.6703 51.8426 17.645H55.7526ZM58.7983 23V22.286H58.9343C59.3196 22.286 59.6483 22.218 59.9203 22.082C60.1923 21.9347 60.3283 21.5947 60.3283 21.062V15.758C60.3283 15.2593 60.1923 14.942 59.9203 14.806C59.6596 14.67 59.3423 14.602 58.9683 14.602H58.8833V13.888H61.6373L61.8583 15.265H61.9433C62.2946 14.6303 62.6856 14.2167 63.1163 14.024C63.5583 13.82 64.0513 13.718 64.5953 13.718C65.4906 13.718 66.1876 13.9843 66.6863 14.517C67.1963 15.0383 67.4513 15.8827 67.4513 17.05V21.062C67.4513 21.5947 67.5646 21.9347 67.7913 22.082C68.0293 22.218 68.3409 22.286 68.7263 22.286H68.8113V23H65.8533V17.135C65.8533 16.3983 65.7116 15.826 65.4283 15.418C65.1563 15.01 64.6746 14.806 63.9833 14.806C63.4733 14.806 63.0653 14.9363 62.7593 15.197C62.4646 15.4463 62.2493 15.7807 62.1133 16.2C61.9886 16.6193 61.9263 17.0727 61.9263 17.56V21.147C61.9263 21.6457 62.0566 21.963 62.3173 22.099C62.5893 22.2237 62.9123 22.286 63.2863 22.286H63.3713V23H58.7983ZM73.6823 23.17C72.5603 23.17 71.699 22.796 71.0983 22.048C70.509 21.2887 70.2143 20.093 70.2143 18.461C70.2143 16.8177 70.509 15.6163 71.0983 14.857C71.699 14.0977 72.5603 13.718 73.6823 13.718C74.3396 13.718 74.8723 13.8597 75.2803 14.143C75.6996 14.415 76.034 14.772 76.2833 15.214H76.3853C76.3513 14.9307 76.323 14.619 76.3003 14.279C76.289 13.9277 76.2833 13.616 76.2833 13.344V11.95C76.2833 11.4513 76.1416 11.134 75.8583 10.998C75.5863 10.862 75.2633 10.794 74.8893 10.794H74.7533V10.08H77.8813V21.13C77.8813 21.6287 78.0173 21.946 78.2893 22.082C78.5726 22.218 78.9013 22.286 79.2753 22.286H79.4113V23H76.5383L76.3513 21.47H76.2833C76.034 21.9913 75.7053 22.405 75.2973 22.711C74.8893 23.017 74.351 23.17 73.6823 23.17ZM73.9713 22.082C74.8553 22.082 75.4616 21.7873 75.7903 21.198C76.119 20.5973 76.2833 19.685 76.2833 18.461C76.2833 17.2823 76.119 16.3813 75.7903 15.758C75.4616 15.1233 74.8496 14.806 73.9543 14.806C73.2063 14.806 72.668 15.1233 72.3393 15.758C72.022 16.3813 71.8633 17.288 71.8633 18.478C71.8633 19.6793 72.022 20.5803 72.3393 21.181C72.668 21.7817 73.212 22.082 73.9713 22.082ZM84.6007 23.17C83.3653 23.17 82.3963 22.762 81.6937 21.946C81.0023 21.13 80.6567 19.9853 80.6567 18.512C80.6567 16.9253 80.9853 15.7297 81.6427 14.925C82.3 14.1203 83.2293 13.718 84.4307 13.718C85.53 13.718 86.3913 14.058 87.0147 14.738C87.6493 15.418 87.9667 16.4323 87.9667 17.781V18.563H82.3057C82.3283 19.7983 82.5493 20.6993 82.9687 21.266C83.3993 21.8213 84.0227 22.099 84.8387 22.099C85.428 22.099 85.9267 21.98 86.3347 21.742C86.754 21.4927 87.0657 21.215 87.2697 20.909C87.349 20.943 87.4227 21.011 87.4907 21.113C87.5587 21.215 87.5927 21.3397 87.5927 21.487C87.5927 21.7137 87.485 21.9573 87.2697 22.218C87.0543 22.4787 86.7257 22.7053 86.2837 22.898C85.8417 23.0793 85.2807 23.17 84.6007 23.17ZM86.2497 17.645C86.2497 16.7383 86.108 16.013 85.8247 15.469C85.5527 14.9137 85.0767 14.636 84.3967 14.636C83.7733 14.636 83.286 14.8967 82.9347 15.418C82.5947 15.928 82.3963 16.6703 82.3397 17.645H86.2497ZM89.3803 23V22.286H89.4313C89.8167 22.286 90.1453 22.218 90.4173 22.082C90.6893 21.9347 90.8253 21.5947 90.8253 21.062V15.758C90.8253 15.2593 90.6837 14.942 90.4003 14.806C90.1283 14.67 89.8053 14.602 89.4313 14.602H89.3803V13.888H91.9983L92.3213 15.571H92.4063C92.5537 15.231 92.7123 14.9193 92.8823 14.636C93.0523 14.3527 93.279 14.1317 93.5623 13.973C93.8457 13.803 94.2367 13.718 94.7353 13.718C95.3587 13.718 95.8177 13.8257 96.1123 14.041C96.4183 14.2563 96.5713 14.5623 96.5713 14.959C96.5713 15.3103 96.4467 15.5993 96.1973 15.826C95.9593 16.0527 95.557 16.166 94.9903 16.166C94.9903 15.7013 94.9223 15.367 94.7863 15.163C94.6503 14.9477 94.418 14.84 94.0893 14.84C93.772 14.84 93.5057 14.9647 93.2903 15.214C93.075 15.4633 92.905 15.7807 92.7803 16.166C92.6557 16.5513 92.565 16.9537 92.5083 17.373C92.4517 17.781 92.4233 18.1493 92.4233 18.478V21.147C92.4233 21.6457 92.5593 21.963 92.8313 22.099C93.1147 22.2237 93.4433 22.286 93.8173 22.286H94.2933V23H89.3803ZM101.458 23V22.286H101.679C102.065 22.286 102.393 22.218 102.665 22.082C102.937 21.9347 103.073 21.5947 103.073 21.062V11.95C103.073 11.4513 102.932 11.134 102.648 10.998C102.376 10.862 102.053 10.794 101.679 10.794H101.458V10.08H104.671V21.062C104.671 21.5947 104.807 21.9347 105.079 22.082C105.351 22.218 105.68 22.286 106.065 22.286H106.286V23H101.458ZM109.237 12.188C108.965 12.188 108.733 12.1087 108.54 11.95C108.359 11.7913 108.268 11.5193 108.268 11.134C108.268 10.7373 108.359 10.4653 108.54 10.318C108.733 10.1593 108.965 10.08 109.237 10.08C109.498 10.08 109.724 10.1593 109.917 10.318C110.11 10.4653 110.206 10.7373 110.206 11.134C110.206 11.5193 110.11 11.7913 109.917 11.95C109.724 12.1087 109.498 12.188 109.237 12.188ZM106.891 23V22.286H107.112C107.486 22.286 107.809 22.2237 108.081 22.099C108.364 21.963 108.506 21.6457 108.506 21.147V15.758C108.506 15.2593 108.364 14.942 108.081 14.806C107.809 14.67 107.486 14.602 107.112 14.602H107.061V13.888H110.104V21.062C110.104 21.5947 110.24 21.9347 110.512 22.082C110.784 22.218 111.113 22.286 111.498 22.286H111.719V23H106.891ZM112.421 23V22.286H112.557C112.943 22.286 113.271 22.218 113.543 22.082C113.815 21.9347 113.951 21.5947 113.951 21.062V15.758C113.951 15.2593 113.815 14.942 113.543 14.806C113.283 14.67 112.965 14.602 112.591 14.602H112.506V13.888H115.26L115.481 15.265H115.566C115.918 14.6303 116.309 14.2167 116.739 14.024C117.181 13.82 117.674 13.718 118.218 13.718C119.114 13.718 119.811 13.9843 120.309 14.517C120.819 15.0383 121.074 15.8827 121.074 17.05V21.062C121.074 21.5947 121.188 21.9347 121.414 22.082C121.652 22.218 121.964 22.286 122.349 22.286H122.434V23H119.476V17.135C119.476 16.3983 119.335 15.826 119.051 15.418C118.779 15.01 118.298 14.806 117.606 14.806C117.096 14.806 116.688 14.9363 116.382 15.197C116.088 15.4463 115.872 15.7807 115.736 16.2C115.612 16.6193 115.549 17.0727 115.549 17.56V21.147C115.549 21.6457 115.68 21.963 115.94 22.099C116.212 22.2237 116.535 22.286 116.909 22.286H116.994V23H112.421ZM127.781 23.17C126.546 23.17 125.577 22.762 124.874 21.946C124.183 21.13 123.837 19.9853 123.837 18.512C123.837 16.9253 124.166 15.7297 124.823 14.925C125.481 14.1203 126.41 13.718 127.611 13.718C128.711 13.718 129.572 14.058 130.195 14.738C130.83 15.418 131.147 16.4323 131.147 17.781V18.563H125.486C125.509 19.7983 125.73 20.6993 126.149 21.266C126.58 21.8213 127.203 22.099 128.019 22.099C128.609 22.099 129.107 21.98 129.515 21.742C129.935 21.4927 130.246 21.215 130.45 20.909C130.53 20.943 130.603 21.011 130.671 21.113C130.739 21.215 130.773 21.3397 130.773 21.487C130.773 21.7137 130.666 21.9573 130.45 22.218C130.235 22.4787 129.906 22.7053 129.464 22.898C129.022 23.0793 128.461 23.17 127.781 23.17ZM129.43 17.645C129.43 16.7383 129.289 16.013 129.005 15.469C128.733 14.9137 128.257 14.636 127.577 14.636C126.954 14.636 126.467 14.8967 126.115 15.418C125.775 15.928 125.577 16.6703 125.52 17.645H129.43Z" fill="black"/>
<path d="M147.068 36V35.099H147.272C147.578 35.099 147.833 35.0197 148.037 34.861C148.252 34.7023 148.451 34.368 148.632 33.858L152.321 23.862H154.65L158.203 33.875C158.373 34.351 158.56 34.674 158.764 34.844C158.979 35.014 159.223 35.099 159.495 35.099H159.801V36H154.191V35.099H154.854C155.024 35.099 155.188 35.048 155.347 34.946C155.506 34.844 155.585 34.674 155.585 34.436C155.585 34.3 155.568 34.1697 155.534 34.045C155.5 33.909 155.466 33.7957 155.432 33.705L154.837 32.005H150.706L150.213 33.467C150.168 33.603 150.122 33.7673 150.077 33.96C150.032 34.1413 150.009 34.3 150.009 34.436C150.009 34.6513 150.088 34.8157 150.247 34.929C150.406 35.0423 150.581 35.099 150.774 35.099H151.488V36H147.068ZM151.063 30.968H154.497L153.596 28.18C153.483 27.7947 153.352 27.364 153.205 26.888C153.069 26.412 152.956 25.9757 152.865 25.579C152.763 25.9417 152.638 26.3553 152.491 26.82C152.344 27.2733 152.202 27.6983 152.066 28.095L151.063 30.968ZM163.727 36.17C162.491 36.17 161.613 35.983 161.092 35.609C160.57 35.2237 160.31 34.7477 160.31 34.181C160.31 33.807 160.4 33.5293 160.582 33.348C160.763 33.1667 160.978 33.0477 161.228 32.991C161.477 32.923 161.698 32.889 161.891 32.889C161.891 33.5917 162.055 34.147 162.384 34.555C162.724 34.963 163.171 35.167 163.727 35.167C164.316 35.167 164.741 35.0537 165.002 34.827C165.274 34.6003 165.41 34.3283 165.41 34.011C165.41 33.637 165.262 33.331 164.968 33.093C164.673 32.855 164.123 32.5943 163.319 32.311C162.401 31.9937 161.698 31.6197 161.211 31.189C160.723 30.747 160.48 30.1463 160.48 29.387C160.48 28.4803 160.814 27.806 161.483 27.364C162.151 26.9107 163.035 26.684 164.135 26.684C164.849 26.684 165.421 26.7633 165.852 26.922C166.294 27.0693 166.611 27.2677 166.804 27.517C167.008 27.755 167.11 28.0043 167.11 28.265C167.11 28.6503 166.974 28.945 166.702 29.149C166.441 29.3417 165.999 29.438 165.376 29.438C165.376 28.8713 165.251 28.435 165.002 28.129C164.752 27.8117 164.378 27.653 163.88 27.653C163.517 27.653 163.194 27.7437 162.911 27.925C162.639 28.095 162.503 28.3557 162.503 28.707C162.503 28.945 162.565 29.1547 162.69 29.336C162.826 29.5173 163.064 29.693 163.404 29.863C163.744 30.033 164.22 30.2257 164.832 30.441C165.591 30.7017 166.209 31.0473 166.685 31.478C167.172 31.8973 167.416 32.464 167.416 33.178C167.416 34.1187 167.093 34.8553 166.447 35.388C165.812 35.9093 164.905 36.17 163.727 36.17ZM173.116 36.17C172.288 36.17 171.557 36.0227 170.923 35.728C170.288 35.422 169.789 34.929 169.427 34.249C169.075 33.5577 168.9 32.634 168.9 31.478C168.9 30.254 169.081 29.2963 169.444 28.605C169.818 27.9023 170.316 27.4037 170.94 27.109C171.574 26.8143 172.283 26.667 173.065 26.667C174.164 26.667 174.997 26.8427 175.564 27.194C176.142 27.534 176.431 27.9533 176.431 28.452C176.431 28.69 176.368 28.9223 176.244 29.149C176.13 29.3643 175.915 29.5457 175.598 29.693C175.28 29.829 174.827 29.897 174.238 29.897C174.238 29.5003 174.204 29.1377 174.136 28.809C174.068 28.4803 173.954 28.214 173.796 28.01C173.637 27.806 173.416 27.704 173.133 27.704C172.804 27.704 172.515 27.8173 172.266 28.044C172.028 28.2593 171.841 28.639 171.705 29.183C171.58 29.727 171.518 30.4863 171.518 31.461C171.518 32.6057 171.676 33.467 171.994 34.045C172.311 34.6117 172.827 34.895 173.541 34.895C174.13 34.895 174.64 34.7647 175.071 34.504C175.501 34.232 175.813 33.9033 176.006 33.518C176.142 33.5973 176.244 33.7107 176.312 33.858C176.38 33.994 176.414 34.1413 176.414 34.3C176.414 34.5833 176.295 34.8723 176.057 35.167C175.83 35.4503 175.473 35.6883 174.986 35.881C174.51 36.0737 173.886 36.17 173.116 36.17ZM182.267 36.17C180.828 36.17 179.734 35.762 178.986 34.946C178.238 34.1187 177.864 32.9683 177.864 31.495C177.864 29.897 178.233 28.6957 178.969 27.891C179.706 27.075 180.743 26.667 182.08 26.667C183.316 26.667 184.285 27.0127 184.987 27.704C185.701 28.3953 186.058 29.4153 186.058 30.764V31.631H180.482C180.516 32.7643 180.726 33.5917 181.111 34.113C181.508 34.6343 182.058 34.895 182.76 34.895C183.35 34.895 183.848 34.7647 184.256 34.504C184.664 34.232 184.965 33.9033 185.157 33.518C185.463 33.688 185.616 33.9657 185.616 34.351C185.616 34.8383 185.344 35.2633 184.8 35.626C184.256 35.9887 183.412 36.17 182.267 36.17ZM183.457 30.543C183.457 29.6703 183.355 28.9903 183.151 28.503C182.947 28.0157 182.602 27.772 182.114 27.772C181.638 27.772 181.259 28.01 180.975 28.486C180.692 28.9507 180.539 29.6363 180.516 30.543H183.457ZM187.117 36V35.099H187.151C187.537 35.099 187.854 35.031 188.103 34.895C188.353 34.759 188.477 34.436 188.477 33.926V28.894C188.477 28.418 188.364 28.1177 188.137 27.993C187.922 27.857 187.627 27.789 187.253 27.789H187.202V26.888H190.772L190.993 28.095H191.078C191.305 27.6643 191.549 27.3527 191.809 27.16C192.081 26.956 192.37 26.8257 192.676 26.769C192.994 26.701 193.328 26.667 193.679 26.667C194.552 26.667 195.238 26.9277 195.736 27.449C196.235 27.9703 196.484 28.8033 196.484 29.948V33.892C196.484 34.4133 196.575 34.7477 196.756 34.895C196.949 35.031 197.238 35.099 197.623 35.099H197.674V36H193.9V30.407C193.9 29.6703 193.798 29.1037 193.594 28.707C193.39 28.3103 193.039 28.112 192.54 28.112C192.166 28.112 191.872 28.2367 191.656 28.486C191.441 28.724 191.288 29.047 191.197 29.455C191.107 29.8517 191.061 30.2823 191.061 30.747V33.994C191.061 34.47 191.169 34.776 191.384 34.912C191.611 35.0367 191.911 35.099 192.285 35.099H192.336V36H187.117ZM202.366 36.17C201.256 36.17 200.4 35.796 199.799 35.048C199.199 34.2887 198.898 33.093 198.898 31.461C198.898 29.8177 199.193 28.6107 199.782 27.84C200.383 27.0693 201.233 26.684 202.332 26.684C202.967 26.684 203.488 26.8143 203.896 27.075C204.304 27.3243 204.627 27.6473 204.865 28.044H204.984C204.939 27.7267 204.905 27.3697 204.882 26.973C204.86 26.5763 204.848 26.242 204.848 25.97V25.035C204.848 24.5703 204.712 24.2813 204.44 24.168C204.168 24.0433 203.845 23.981 203.471 23.981H203.335V23.08H207.432V33.909C207.432 34.249 207.495 34.504 207.619 34.674C207.755 34.844 207.931 34.9573 208.146 35.014C208.362 35.0707 208.594 35.099 208.843 35.099H208.911V36H205.613L205.137 34.674H204.984C204.735 35.1273 204.401 35.49 203.981 35.762C203.573 36.034 203.035 36.17 202.366 36.17ZM203.097 34.895C203.766 34.895 204.225 34.6117 204.474 34.045C204.724 33.467 204.848 32.5943 204.848 31.427C204.848 30.305 204.724 29.4437 204.474 28.843C204.225 28.2423 203.766 27.942 203.097 27.942C202.531 27.942 202.123 28.2423 201.873 28.843C201.635 29.4437 201.516 30.3107 201.516 31.444C201.516 32.6 201.635 33.467 201.873 34.045C202.123 34.6117 202.531 34.895 203.097 34.895ZM214.358 36.17C212.919 36.17 211.825 35.762 211.077 34.946C210.329 34.1187 209.955 32.9683 209.955 31.495C209.955 29.897 210.324 28.6957 211.06 27.891C211.797 27.075 212.834 26.667 214.171 26.667C215.407 26.667 216.376 27.0127 217.078 27.704C217.792 28.3953 218.149 29.4153 218.149 30.764V31.631H212.573C212.607 32.7643 212.817 33.5917 213.202 34.113C213.599 34.6343 214.149 34.895 214.851 34.895C215.441 34.895 215.939 34.7647 216.347 34.504C216.755 34.232 217.056 33.9033 217.248 33.518C217.554 33.688 217.707 33.9657 217.707 34.351C217.707 34.8383 217.435 35.2633 216.891 35.626C216.347 35.9887 215.503 36.17 214.358 36.17ZM215.548 30.543C215.548 29.6703 215.446 28.9903 215.242 28.503C215.038 28.0157 214.693 27.772 214.205 27.772C213.729 27.772 213.35 28.01 213.066 28.486C212.783 28.9507 212.63 29.6363 212.607 30.543H215.548ZM219.208 36V35.099H219.259C219.644 35.099 219.956 35.031 220.194 34.895C220.443 34.7477 220.568 34.4077 220.568 33.875V28.945C220.568 28.4463 220.455 28.129 220.228 27.993C220.013 27.857 219.718 27.789 219.344 27.789H219.293V26.888H222.727L223.067 28.214H223.152C223.379 27.704 223.662 27.3243 224.002 27.075C224.342 26.8143 224.858 26.684 225.549 26.684C226.852 26.684 227.504 27.143 227.504 28.061C227.504 28.5823 227.311 28.9903 226.926 29.285C226.552 29.5683 226.025 29.71 225.345 29.71C225.345 29.2453 225.288 28.894 225.175 28.656C225.062 28.418 224.841 28.299 224.512 28.299C224.217 28.299 223.979 28.401 223.798 28.605C223.617 28.809 223.481 29.064 223.39 29.37C223.299 29.6647 223.237 29.965 223.203 30.271C223.169 30.577 223.152 30.8263 223.152 31.019V33.96C223.152 34.4587 223.265 34.776 223.492 34.912C223.719 35.0367 224.002 35.099 224.342 35.099H224.886V36H219.208Z" fill="#379AD6"/>
<path d="M147.476 133V132.099H148.19C148.439 132.099 148.643 132.037 148.802 131.912C148.972 131.787 149.057 131.481 149.057 130.994V122.8C149.057 122.347 148.972 122.063 148.802 121.95C148.632 121.825 148.428 121.763 148.19 121.763H147.476V120.862H153.086C154.967 120.862 156.441 121.355 157.506 122.341C158.571 123.327 159.104 124.783 159.104 126.71C159.104 127.945 158.877 129.039 158.424 129.991C157.971 130.932 157.296 131.668 156.401 132.201C155.517 132.734 154.412 133 153.086 133H147.476ZM152.695 131.946C153.862 131.946 154.741 131.481 155.33 130.552C155.931 129.611 156.231 128.331 156.231 126.71C156.231 125.089 155.931 123.882 155.33 123.089C154.741 122.296 153.868 121.899 152.712 121.899H151.743V131.946H152.695ZM165.234 133.17C163.795 133.17 162.701 132.762 161.953 131.946C161.205 131.119 160.831 129.968 160.831 128.495C160.831 126.897 161.2 125.696 161.936 124.891C162.673 124.075 163.71 123.667 165.047 123.667C166.283 123.667 167.252 124.013 167.954 124.704C168.668 125.395 169.025 126.415 169.025 127.764V128.631H163.449C163.483 129.764 163.693 130.592 164.078 131.113C164.475 131.634 165.025 131.895 165.727 131.895C166.317 131.895 166.815 131.765 167.223 131.504C167.631 131.232 167.932 130.903 168.124 130.518C168.43 130.688 168.583 130.966 168.583 131.351C168.583 131.838 168.311 132.263 167.767 132.626C167.223 132.989 166.379 133.17 165.234 133.17ZM166.424 127.543C166.424 126.67 166.322 125.99 166.118 125.503C165.914 125.016 165.569 124.772 165.081 124.772C164.605 124.772 164.226 125.01 163.942 125.486C163.659 125.951 163.506 126.636 163.483 127.543H166.424ZM173.671 133.17C172.436 133.17 171.557 132.983 171.036 132.609C170.515 132.224 170.254 131.748 170.254 131.181C170.254 130.807 170.345 130.529 170.526 130.348C170.707 130.167 170.923 130.048 171.172 129.991C171.421 129.923 171.642 129.889 171.835 129.889C171.835 130.592 171.999 131.147 172.328 131.555C172.668 131.963 173.116 132.167 173.671 132.167C174.26 132.167 174.685 132.054 174.946 131.827C175.218 131.6 175.354 131.328 175.354 131.011C175.354 130.637 175.207 130.331 174.912 130.093C174.617 129.855 174.068 129.594 173.263 129.311C172.345 128.994 171.642 128.62 171.155 128.189C170.668 127.747 170.424 127.146 170.424 126.387C170.424 125.48 170.758 124.806 171.427 124.364C172.096 123.911 172.98 123.684 174.079 123.684C174.793 123.684 175.365 123.763 175.796 123.922C176.238 124.069 176.555 124.268 176.748 124.517C176.952 124.755 177.054 125.004 177.054 125.265C177.054 125.65 176.918 125.945 176.646 126.149C176.385 126.342 175.943 126.438 175.32 126.438C175.32 125.871 175.195 125.435 174.946 125.129C174.697 124.812 174.323 124.653 173.824 124.653C173.461 124.653 173.138 124.744 172.855 124.925C172.583 125.095 172.447 125.356 172.447 125.707C172.447 125.945 172.509 126.155 172.634 126.336C172.77 126.517 173.008 126.693 173.348 126.863C173.688 127.033 174.164 127.226 174.776 127.441C175.535 127.702 176.153 128.047 176.629 128.478C177.116 128.897 177.36 129.464 177.36 130.178C177.36 131.119 177.037 131.855 176.391 132.388C175.756 132.909 174.85 133.17 173.671 133.17ZM183.06 133.17C182.233 133.17 181.502 133.023 180.867 132.728C180.232 132.422 179.734 131.929 179.371 131.249C179.02 130.558 178.844 129.634 178.844 128.478C178.844 127.254 179.025 126.296 179.388 125.605C179.762 124.902 180.261 124.404 180.884 124.109C181.519 123.814 182.227 123.667 183.009 123.667C184.108 123.667 184.941 123.843 185.508 124.194C186.086 124.534 186.375 124.953 186.375 125.452C186.375 125.69 186.313 125.922 186.188 126.149C186.075 126.364 185.859 126.546 185.542 126.693C185.225 126.829 184.771 126.897 184.182 126.897C184.182 126.5 184.148 126.138 184.08 125.809C184.012 125.48 183.899 125.214 183.74 125.01C183.581 124.806 183.36 124.704 183.077 124.704C182.748 124.704 182.459 124.817 182.21 125.044C181.972 125.259 181.785 125.639 181.649 126.183C181.524 126.727 181.462 127.486 181.462 128.461C181.462 129.606 181.621 130.467 181.938 131.045C182.255 131.612 182.771 131.895 183.485 131.895C184.074 131.895 184.584 131.765 185.015 131.504C185.446 131.232 185.757 130.903 185.95 130.518C186.086 130.597 186.188 130.711 186.256 130.858C186.324 130.994 186.358 131.141 186.358 131.3C186.358 131.583 186.239 131.872 186.001 132.167C185.774 132.45 185.417 132.688 184.93 132.881C184.454 133.074 183.831 133.17 183.06 133.17ZM192.212 133.17C190.772 133.17 189.679 132.762 188.931 131.946C188.183 131.119 187.809 129.968 187.809 128.495C187.809 126.897 188.177 125.696 188.914 124.891C189.65 124.075 190.687 123.667 192.025 123.667C193.26 123.667 194.229 124.013 194.932 124.704C195.646 125.395 196.003 126.415 196.003 127.764V128.631H190.427C190.461 129.764 190.67 130.592 191.056 131.113C191.452 131.634 192.002 131.895 192.705 131.895C193.294 131.895 193.793 131.765 194.201 131.504C194.609 131.232 194.909 130.903 195.102 130.518C195.408 130.688 195.561 130.966 195.561 131.351C195.561 131.838 195.289 132.263 194.745 132.626C194.201 132.989 193.356 133.17 192.212 133.17ZM193.402 127.543C193.402 126.67 193.3 125.99 193.096 125.503C192.892 125.016 192.546 124.772 192.059 124.772C191.583 124.772 191.203 125.01 190.92 125.486C190.636 125.951 190.483 126.636 190.461 127.543H193.402ZM197.062 133V132.099H197.096C197.481 132.099 197.798 132.031 198.048 131.895C198.297 131.759 198.422 131.436 198.422 130.926V125.894C198.422 125.418 198.308 125.118 198.082 124.993C197.866 124.857 197.572 124.789 197.198 124.789H197.147V123.888H200.717L200.938 125.095H201.023C201.249 124.664 201.493 124.353 201.754 124.16C202.026 123.956 202.315 123.826 202.621 123.769C202.938 123.701 203.272 123.667 203.624 123.667C204.496 123.667 205.182 123.928 205.681 124.449C206.179 124.97 206.429 125.803 206.429 126.948V130.892C206.429 131.413 206.519 131.748 206.701 131.895C206.893 132.031 207.182 132.099 207.568 132.099H207.619V133H203.845V127.407C203.845 126.67 203.743 126.104 203.539 125.707C203.335 125.31 202.983 125.112 202.485 125.112C202.111 125.112 201.816 125.237 201.601 125.486C201.385 125.724 201.232 126.047 201.142 126.455C201.051 126.852 201.006 127.282 201.006 127.747V130.994C201.006 131.47 201.113 131.776 201.329 131.912C201.555 132.037 201.856 132.099 202.23 132.099H202.281V133H197.062ZM212.311 133.17C211.2 133.17 210.344 132.796 209.744 132.048C209.143 131.289 208.843 130.093 208.843 128.461C208.843 126.818 209.137 125.611 209.727 124.84C210.327 124.069 211.177 123.684 212.277 123.684C212.911 123.684 213.433 123.814 213.841 124.075C214.249 124.324 214.572 124.647 214.81 125.044H214.929C214.883 124.727 214.849 124.37 214.827 123.973C214.804 123.576 214.793 123.242 214.793 122.97V122.035C214.793 121.57 214.657 121.281 214.385 121.168C214.113 121.043 213.79 120.981 213.416 120.981H213.28V120.08H217.377V130.909C217.377 131.249 217.439 131.504 217.564 131.674C217.7 131.844 217.875 131.957 218.091 132.014C218.306 132.071 218.538 132.099 218.788 132.099H218.856V133H215.558L215.082 131.674H214.929C214.679 132.127 214.345 132.49 213.926 132.762C213.518 133.034 212.979 133.17 212.311 133.17ZM213.042 131.895C213.71 131.895 214.169 131.612 214.419 131.045C214.668 130.467 214.793 129.594 214.793 128.427C214.793 127.305 214.668 126.444 214.419 125.843C214.169 125.242 213.71 124.942 213.042 124.942C212.475 124.942 212.067 125.242 211.818 125.843C211.58 126.444 211.461 127.311 211.461 128.444C211.461 129.6 211.58 130.467 211.818 131.045C212.067 131.612 212.475 131.895 213.042 131.895ZM224.303 133.17C222.863 133.17 221.77 132.762 221.022 131.946C220.274 131.119 219.9 129.968 219.9 128.495C219.9 126.897 220.268 125.696 221.005 124.891C221.741 124.075 222.778 123.667 224.116 123.667C225.351 123.667 226.32 124.013 227.023 124.704C227.737 125.395 228.094 126.415 228.094 127.764V128.631H222.518C222.552 129.764 222.761 130.592 223.147 131.113C223.543 131.634 224.093 131.895 224.796 131.895C225.385 131.895 225.884 131.765 226.292 131.504C226.7 131.232 227 130.903 227.193 130.518C227.499 130.688 227.652 130.966 227.652 131.351C227.652 131.838 227.38 132.263 226.836 132.626C226.292 132.989 225.447 133.17 224.303 133.17ZM225.493 127.543C225.493 126.67 225.391 125.99 225.187 125.503C224.983 125.016 224.637 124.772 224.15 124.772C223.674 124.772 223.294 125.01 223.011 125.486C222.727 125.951 222.574 126.636 222.552 127.543H225.493ZM229.153 133V132.099H229.204C229.589 132.099 229.901 132.031 230.139 131.895C230.388 131.748 230.513 131.408 230.513 130.875V125.945C230.513 125.446 230.399 125.129 230.173 124.993C229.957 124.857 229.663 124.789 229.289 124.789H229.238V123.888H232.672L233.012 125.214H233.097C233.323 124.704 233.607 124.324 233.947 124.075C234.287 123.814 234.802 123.684 235.494 123.684C236.797 123.684 237.449 124.143 237.449 125.061C237.449 125.582 237.256 125.99 236.871 126.285C236.497 126.568 235.97 126.71 235.29 126.71C235.29 126.245 235.233 125.894 235.12 125.656C235.006 125.418 234.785 125.299 234.457 125.299C234.162 125.299 233.924 125.401 233.743 125.605C233.561 125.809 233.425 126.064 233.335 126.37C233.244 126.665 233.182 126.965 233.148 127.271C233.114 127.577 233.097 127.826 233.097 128.019V130.96C233.097 131.459 233.21 131.776 233.437 131.912C233.663 132.037 233.947 132.099 234.287 132.099H234.831V133H229.153Z" fill="#379AD6"/>
<path d="M617.646 50V49.286H617.867C618.241 49.286 618.564 49.2237 618.836 49.099C619.119 48.963 619.261 48.6457 619.261 48.147V39.732C619.261 39.2333 619.119 38.916 618.836 38.78C618.564 38.644 618.241 38.576 617.867 38.576H617.646V37.862H621.522L625.041 47.586L628.526 37.862H632.3V38.576H632.079C631.694 38.576 631.365 38.6497 631.093 38.797C630.821 38.933 630.685 39.2673 630.685 39.8V48.062C630.685 48.5947 630.821 48.9347 631.093 49.082C631.365 49.218 631.694 49.286 632.079 49.286H632.3V50H627.778V49.286H627.829C628.192 49.286 628.481 49.2237 628.696 49.099C628.911 48.9743 629.03 48.6797 629.053 48.215V39.137L625.16 50H624.242L620.298 39.171V48.062C620.298 48.5947 620.406 48.9347 620.621 49.082C620.836 49.218 621.137 49.286 621.522 49.286H621.573V50H617.646ZM637.833 50.17C636.598 50.17 635.629 49.762 634.926 48.946C634.235 48.13 633.889 46.9853 633.889 45.512C633.889 43.9253 634.218 42.7297 634.875 41.925C635.532 41.1203 636.462 40.718 637.663 40.718C638.762 40.718 639.624 41.058 640.247 41.738C640.882 42.418 641.199 43.4323 641.199 44.781V45.563H635.538C635.561 46.7983 635.782 47.6993 636.201 48.266C636.632 48.8213 637.255 49.099 638.071 49.099C638.66 49.099 639.159 48.98 639.567 48.742C639.986 48.4927 640.298 48.215 640.502 47.909C640.581 47.943 640.655 48.011 640.723 48.113C640.791 48.215 640.825 48.3397 640.825 48.487C640.825 48.7137 640.717 48.9573 640.502 49.218C640.287 49.4787 639.958 49.7053 639.516 49.898C639.074 50.0793 638.513 50.17 637.833 50.17ZM639.482 44.645C639.482 43.7383 639.34 43.013 639.057 42.469C638.785 41.9137 638.309 41.636 637.629 41.636C637.006 41.636 636.518 41.8967 636.167 42.418C635.827 42.928 635.629 43.6703 635.572 44.645H639.482ZM645.537 50.17C644.777 50.17 644.148 49.949 643.65 49.507C643.151 49.065 642.902 48.3793 642.902 47.45C642.902 46.5433 643.219 45.8747 643.854 45.444C644.5 45.0133 645.474 44.7753 646.778 44.73L648.189 44.679V43.659C648.189 43.251 648.155 42.894 648.087 42.588C648.019 42.2707 647.871 42.0213 647.645 41.84C647.418 41.6587 647.072 41.568 646.608 41.568C646.177 41.568 645.848 41.6473 645.622 41.806C645.395 41.9647 645.242 42.1857 645.163 42.469C645.095 42.741 645.061 43.0583 645.061 43.421C644.585 43.421 644.222 43.3417 643.973 43.183C643.735 43.013 643.616 42.7353 643.616 42.35C643.616 41.9533 643.752 41.636 644.024 41.398C644.307 41.16 644.681 40.99 645.146 40.888C645.61 40.7747 646.12 40.718 646.676 40.718C647.718 40.718 648.495 40.939 649.005 41.381C649.526 41.823 649.787 42.5823 649.787 43.659V48.062C649.787 48.538 649.866 48.861 650.025 49.031C650.183 49.201 650.455 49.286 650.841 49.286H650.892V50H648.597L648.325 48.538H648.189C647.951 48.8553 647.718 49.1387 647.492 49.388C647.265 49.626 646.999 49.8187 646.693 49.966C646.398 50.102 646.013 50.17 645.537 50.17ZM645.928 49.116C646.619 49.116 647.169 48.9063 647.577 48.487C647.985 48.0563 648.189 47.4783 648.189 46.753V45.376L647.101 45.427C646.137 45.4723 645.469 45.6707 645.095 46.022C644.732 46.362 644.551 46.8663 644.551 47.535C644.551 48.589 645.01 49.116 645.928 49.116ZM652.107 50V49.286H652.243C652.628 49.286 652.957 49.218 653.229 49.082C653.501 48.9347 653.637 48.5947 653.637 48.062V42.758C653.637 42.2593 653.501 41.942 653.229 41.806C652.968 41.67 652.651 41.602 652.277 41.602H652.192V40.888H654.946L655.167 42.265H655.252C655.603 41.6303 655.994 41.2167 656.425 41.024C656.867 40.82 657.36 40.718 657.904 40.718C658.799 40.718 659.496 40.9843 659.995 41.517C660.505 42.0383 660.76 42.8827 660.76 44.05V48.062C660.76 48.5947 660.873 48.9347 661.1 49.082C661.338 49.218 661.65 49.286 662.035 49.286H662.12V50H659.162V44.135C659.162 43.3983 659.02 42.826 658.737 42.418C658.465 42.01 657.983 41.806 657.292 41.806C656.782 41.806 656.374 41.9363 656.068 42.197C655.773 42.4463 655.558 42.7807 655.422 43.2C655.297 43.6193 655.235 44.0727 655.235 44.56V48.147C655.235 48.6457 655.365 48.963 655.626 49.099C655.898 49.2237 656.221 49.286 656.595 49.286H656.68V50H652.107ZM667.225 50V49.286H667.446C667.831 49.286 668.16 49.218 668.432 49.082C668.704 48.9347 668.84 48.5947 668.84 48.062V38.95C668.84 38.4513 668.698 38.134 668.415 37.998C668.143 37.862 667.82 37.794 667.446 37.794H667.225V37.08H670.438V48.062C670.438 48.5947 670.574 48.9347 670.846 49.082C671.118 49.218 671.447 49.286 671.832 49.286H672.053V50H667.225ZM675.004 39.188C674.732 39.188 674.499 39.1087 674.307 38.95C674.125 38.7913 674.035 38.5193 674.035 38.134C674.035 37.7373 674.125 37.4653 674.307 37.318C674.499 37.1593 674.732 37.08 675.004 37.08C675.264 37.08 675.491 37.1593 675.684 37.318C675.876 37.4653 675.973 37.7373 675.973 38.134C675.973 38.5193 675.876 38.7913 675.684 38.95C675.491 39.1087 675.264 39.188 675.004 39.188ZM672.658 50V49.286H672.879C673.253 49.286 673.576 49.2237 673.848 49.099C674.131 48.963 674.273 48.6457 674.273 48.147V42.758C674.273 42.2593 674.131 41.942 673.848 41.806C673.576 41.67 673.253 41.602 672.879 41.602H672.828V40.888H675.871V48.062C675.871 48.5947 676.007 48.9347 676.279 49.082C676.551 49.218 676.879 49.286 677.265 49.286H677.486V50H672.658ZM678.188 50V49.286H678.324C678.709 49.286 679.038 49.218 679.31 49.082C679.582 48.9347 679.718 48.5947 679.718 48.062V42.758C679.718 42.2593 679.582 41.942 679.31 41.806C679.049 41.67 678.732 41.602 678.358 41.602H678.273V40.888H681.027L681.248 42.265H681.333C681.684 41.6303 682.075 41.2167 682.506 41.024C682.948 40.82 683.441 40.718 683.985 40.718C684.88 40.718 685.577 40.9843 686.076 41.517C686.586 42.0383 686.841 42.8827 686.841 44.05V48.062C686.841 48.5947 686.954 48.9347 687.181 49.082C687.419 49.218 687.731 49.286 688.116 49.286H688.201V50H685.243V44.135C685.243 43.3983 685.101 42.826 684.818 42.418C684.546 42.01 684.064 41.806 683.373 41.806C682.863 41.806 682.455 41.9363 682.149 42.197C681.854 42.4463 681.639 42.7807 681.503 43.2C681.378 43.6193 681.316 44.0727 681.316 44.56V48.147C681.316 48.6457 681.446 48.963 681.707 49.099C681.979 49.2237 682.302 49.286 682.676 49.286H682.761V50H678.188ZM693.548 50.17C692.313 50.17 691.344 49.762 690.641 48.946C689.95 48.13 689.604 46.9853 689.604 45.512C689.604 43.9253 689.933 42.7297 690.59 41.925C691.247 41.1203 692.177 40.718 693.378 40.718C694.477 40.718 695.339 41.058 695.962 41.738C696.597 42.418 696.914 43.4323 696.914 44.781V45.563H691.253C691.276 46.7983 691.497 47.6993 691.916 48.266C692.347 48.8213 692.97 49.099 693.786 49.099C694.375 49.099 694.874 48.98 695.282 48.742C695.701 48.4927 696.013 48.215 696.217 47.909C696.296 47.943 696.37 48.011 696.438 48.113C696.506 48.215 696.54 48.3397 696.54 48.487C696.54 48.7137 696.432 48.9573 696.217 49.218C696.002 49.4787 695.673 49.7053 695.231 49.898C694.789 50.0793 694.228 50.17 693.548 50.17ZM695.197 44.645C695.197 43.7383 695.055 43.013 694.772 42.469C694.5 41.9137 694.024 41.636 693.344 41.636C692.721 41.636 692.233 41.8967 691.882 42.418C691.542 42.928 691.344 43.6703 691.287 44.645H695.197Z" fill="black"/>
<path d="M559.085 85V84.286H559.238C559.646 84.286 559.975 84.2123 560.224 84.065C560.473 83.9063 560.762 83.6173 561.091 83.198L563.233 80.427L561.091 77.503C560.842 77.2083 560.598 76.9873 560.36 76.84C560.133 76.6813 559.89 76.602 559.629 76.602H559.408V75.888H563.726V76.602H563.675C563.29 76.602 563.029 76.653 562.893 76.755C562.768 76.8457 562.706 76.959 562.706 77.095C562.706 77.2083 562.74 77.3217 562.808 77.435C562.876 77.5483 562.972 77.6957 563.097 77.877L564.219 79.407L565.103 78.132C565.228 77.9393 565.33 77.758 565.409 77.588C565.488 77.4067 565.528 77.2423 565.528 77.095C565.528 76.891 565.437 76.7607 565.256 76.704C565.086 76.636 564.871 76.602 564.61 76.602H564.559V75.888H568.282V76.602H568.129C567.8 76.602 567.517 76.67 567.279 76.806C567.041 76.9307 566.752 77.2253 566.412 77.69L564.661 80.019L567.16 83.385C567.409 83.7137 567.642 83.946 567.857 84.082C568.084 84.218 568.305 84.286 568.52 84.286H568.741V85H564.355V84.286H564.44C565.12 84.286 565.46 84.099 565.46 83.725C565.46 83.6003 565.415 83.4643 565.324 83.317C565.245 83.1583 565.075 82.9033 564.814 82.552L563.675 81.022L562.485 82.688C562.383 82.824 562.281 82.994 562.179 83.198C562.077 83.3907 562.026 83.5777 562.026 83.759C562.026 83.9403 562.105 84.0763 562.264 84.167C562.434 84.2463 562.706 84.286 563.08 84.286H563.131V85H559.085ZM569.253 81.005V79.73H573.673V81.005H569.253ZM574.397 85V84.286H574.533C574.918 84.286 575.247 84.218 575.519 84.082C575.791 83.9347 575.927 83.5947 575.927 83.062V73.95C575.927 73.4513 575.785 73.134 575.502 72.998C575.23 72.862 574.907 72.794 574.533 72.794H574.397V72.08H577.525V75.82C577.525 76.024 577.519 76.2393 577.508 76.466C577.496 76.6813 577.485 76.8683 577.474 77.027C577.462 77.1857 577.457 77.265 577.457 77.265H577.542C578.063 76.2337 578.896 75.718 580.041 75.718C581.015 75.718 581.758 75.9843 582.268 76.517C582.789 77.0383 583.05 77.8827 583.05 79.05V83.062C583.05 83.5947 583.169 83.9347 583.407 84.082C583.656 84.218 583.973 84.286 584.359 84.286H584.41V85H581.452V79.135C581.452 78.3983 581.31 77.826 581.027 77.418C580.755 77.01 580.273 76.806 579.582 76.806C578.879 76.806 578.358 77.0553 578.018 77.554C577.689 78.0527 577.525 78.7213 577.525 79.56V83.147C577.525 83.6457 577.661 83.963 577.933 84.099C578.216 84.2237 578.545 84.286 578.919 84.286H578.97V85H574.397ZM589.761 85.17C588.526 85.17 587.557 84.762 586.854 83.946C586.163 83.13 585.817 81.9853 585.817 80.512C585.817 78.9253 586.146 77.7297 586.803 76.925C587.46 76.1203 588.39 75.718 589.591 75.718C590.69 75.718 591.552 76.058 592.175 76.738C592.81 77.418 593.127 78.4323 593.127 79.781V80.563H587.466C587.489 81.7983 587.71 82.6993 588.129 83.266C588.56 83.8213 589.183 84.099 589.999 84.099C590.588 84.099 591.087 83.98 591.495 83.742C591.914 83.4927 592.226 83.215 592.43 82.909C592.509 82.943 592.583 83.011 592.651 83.113C592.719 83.215 592.753 83.3397 592.753 83.487C592.753 83.7137 592.645 83.9573 592.43 84.218C592.215 84.4787 591.886 84.7053 591.444 84.898C591.002 85.0793 590.441 85.17 589.761 85.17ZM591.41 79.645C591.41 78.7383 591.268 78.013 590.985 77.469C590.713 76.9137 590.237 76.636 589.557 76.636C588.934 76.636 588.446 76.8967 588.095 77.418C587.755 77.928 587.557 78.6703 587.5 79.645H591.41ZM596.716 74.188C596.444 74.188 596.212 74.1087 596.019 73.95C595.838 73.7913 595.747 73.5193 595.747 73.134C595.747 72.7373 595.838 72.4653 596.019 72.318C596.212 72.1593 596.444 72.08 596.716 72.08C596.977 72.08 597.204 72.1593 597.396 72.318C597.589 72.4653 597.685 72.7373 597.685 73.134C597.685 73.5193 597.589 73.7913 597.396 73.95C597.204 74.1087 596.977 74.188 596.716 74.188ZM594.37 85V84.286H594.591C594.965 84.286 595.288 84.2237 595.56 84.099C595.844 83.963 595.985 83.6457 595.985 83.147V77.758C595.985 77.2593 595.844 76.942 595.56 76.806C595.288 76.67 594.965 76.602 594.591 76.602H594.54V75.888H597.583V83.062C597.583 83.5947 597.719 83.9347 597.991 84.082C598.263 84.218 598.592 84.286 598.977 84.286H599.198V85H594.37ZM603.352 89.08C602.173 89.08 601.289 88.859 600.7 88.417C600.11 87.9863 599.816 87.38 599.816 86.598C599.816 85.9293 600.031 85.425 600.462 85.085C600.892 84.745 601.385 84.524 601.941 84.422C601.714 84.32 601.499 84.1557 601.295 83.929C601.102 83.691 601.006 83.3907 601.006 83.028C601.006 82.688 601.091 82.3933 601.261 82.144C601.442 81.8947 601.725 81.6567 602.111 81.43C601.623 81.226 601.244 80.8917 600.972 80.427C600.711 79.951 600.581 79.4297 600.581 78.863C600.581 77.8883 600.847 77.1233 601.38 76.568C601.912 76.0013 602.711 75.718 603.777 75.718C604.185 75.718 604.57 75.7747 604.933 75.888C605.295 76.0013 605.556 76.1317 605.715 76.279C605.873 76.0977 606.094 75.8993 606.378 75.684C606.661 75.4687 606.99 75.361 607.364 75.361C607.704 75.361 607.953 75.4517 608.112 75.633C608.282 75.803 608.367 76.007 608.367 76.245C608.367 76.483 608.293 76.6927 608.146 76.874C608.01 77.044 607.783 77.129 607.466 77.129C607.466 77.0043 607.426 76.8797 607.347 76.755C607.279 76.619 607.131 76.551 606.905 76.551C606.644 76.551 606.4 76.619 606.174 76.755C606.366 76.993 606.525 77.2763 606.65 77.605C606.774 77.9223 606.837 78.3247 606.837 78.812C606.837 79.6507 606.582 80.3477 606.072 80.903C605.573 81.4583 604.808 81.736 603.777 81.736C603.641 81.736 603.482 81.7303 603.301 81.719C603.131 81.6963 602.989 81.6737 602.876 81.651C602.66 81.7643 602.473 81.906 602.315 82.076C602.156 82.246 602.077 82.4613 602.077 82.722C602.077 82.926 602.139 83.0847 602.264 83.198C602.4 83.3113 602.689 83.368 603.131 83.368H605.052C606.06 83.368 606.78 83.606 607.211 84.082C607.641 84.558 607.857 85.1643 607.857 85.901C607.857 86.8757 607.488 87.6463 606.752 88.213C606.026 88.791 604.893 89.08 603.352 89.08ZM603.726 80.92C604.281 80.92 604.672 80.75 604.899 80.41C605.125 80.07 605.239 79.5317 605.239 78.795C605.239 78.0243 605.12 77.4577 604.882 77.095C604.655 76.7323 604.264 76.551 603.709 76.551C603.165 76.551 602.774 76.738 602.536 77.112C602.298 77.486 602.179 78.0527 602.179 78.812C602.179 79.5373 602.298 80.07 602.536 80.41C602.785 80.75 603.182 80.92 603.726 80.92ZM603.386 88.247C604.202 88.247 604.831 88.1563 605.273 87.975C605.715 87.805 606.021 87.5613 606.191 87.244C606.372 86.938 606.463 86.5867 606.463 86.19C606.463 85.6687 606.315 85.3173 606.021 85.136C605.726 84.966 605.295 84.881 604.729 84.881H603.063C602.745 84.881 602.445 84.9207 602.162 85C601.878 85.0907 601.646 85.2493 601.465 85.476C601.283 85.7027 601.193 86.0427 601.193 86.496C601.193 86.8247 601.255 87.1193 601.38 87.38C601.504 87.652 601.725 87.8617 602.043 88.009C602.36 88.1677 602.808 88.247 603.386 88.247ZM608.878 85V84.286H609.014C609.4 84.286 609.728 84.218 610 84.082C610.272 83.9347 610.408 83.5947 610.408 83.062V73.95C610.408 73.4513 610.267 73.134 609.983 72.998C609.711 72.862 609.388 72.794 609.014 72.794H608.878V72.08H612.006V75.82C612.006 76.024 612.001 76.2393 611.989 76.466C611.978 76.6813 611.967 76.8683 611.955 77.027C611.944 77.1857 611.938 77.265 611.938 77.265H612.023C612.545 76.2337 613.378 75.718 614.522 75.718C615.497 75.718 616.239 75.9843 616.749 76.517C617.271 77.0383 617.531 77.8827 617.531 79.05V83.062C617.531 83.5947 617.65 83.9347 617.888 84.082C618.138 84.218 618.455 84.286 618.84 84.286H618.891V85H615.933V79.135C615.933 78.3983 615.792 77.826 615.508 77.418C615.236 77.01 614.755 76.806 614.063 76.806C613.361 76.806 612.839 77.0553 612.499 77.554C612.171 78.0527 612.006 78.7213 612.006 79.56V83.147C612.006 83.6457 612.142 83.963 612.414 84.099C612.698 84.2237 613.026 84.286 613.4 84.286H613.451V85H608.878ZM623.443 85.17C622.582 85.17 621.953 84.9773 621.556 84.592C621.171 84.1953 620.978 83.5097 620.978 82.535V76.857H619.686V76.177C619.89 76.177 620.117 76.1373 620.366 76.058C620.616 75.9673 620.831 75.8257 621.012 75.633C621.205 75.429 621.364 75.1797 621.488 74.885C621.613 74.5903 621.715 74.2277 621.794 73.797H622.576V75.888H624.803V76.857H622.576V82.586C622.576 83.164 622.695 83.589 622.933 83.861C623.171 84.133 623.483 84.269 623.868 84.269C624.072 84.269 624.259 84.2577 624.429 84.235C624.599 84.2123 624.775 84.184 624.956 84.15V84.898C624.809 84.966 624.588 85.0283 624.293 85.085C623.999 85.1417 623.715 85.17 623.443 85.17Z" fill="#379AD6"/>
<path d="M552 45L549.113 50H554.887L552 45ZM552 111L554.887 106H549.113L552 111ZM551.5 49.5V106.5H552.5V49.5H551.5Z" fill="#80CFFF"/>
<path d="M12.3843 148V147.286H12.6053C12.9906 147.286 13.3193 147.218 13.5913 147.082C13.8633 146.935 13.9993 146.595 13.9993 146.062V137.732C13.9993 137.233 13.8576 136.916 13.5743 136.78C13.3023 136.644 12.9793 136.576 12.6053 136.576H12.3843V135.862H17.5863C19.3429 135.862 20.7029 136.389 21.6663 137.443C22.6409 138.497 23.1283 139.987 23.1283 141.914C23.1283 143.149 22.9186 144.226 22.4993 145.144C22.0913 146.051 21.4793 146.753 20.6633 147.252C19.8473 147.751 18.8216 148 17.5863 148H12.3843ZM17.1953 147.133C18.5439 147.133 19.5526 146.685 20.2213 145.79C20.9013 144.883 21.2413 143.591 21.2413 141.914C21.2413 140.225 20.9069 138.939 20.2383 138.055C19.5696 137.16 18.5609 136.712 17.2123 136.712H15.7163V147.133H17.1953ZM28.9688 148.17C27.7335 148.17 26.7645 147.762 26.0618 146.946C25.3705 146.13 25.0248 144.985 25.0248 143.512C25.0248 141.925 25.3535 140.73 26.0108 139.925C26.6682 139.12 27.5975 138.718 28.7988 138.718C29.8982 138.718 30.7595 139.058 31.3828 139.738C32.0175 140.418 32.3348 141.432 32.3348 142.781V143.563H26.6738C26.6965 144.798 26.9175 145.699 27.3368 146.266C27.7675 146.821 28.3908 147.099 29.2068 147.099C29.7962 147.099 30.2948 146.98 30.7028 146.742C31.1222 146.493 31.4338 146.215 31.6378 145.909C31.7172 145.943 31.7908 146.011 31.8588 146.113C31.9268 146.215 31.9608 146.34 31.9608 146.487C31.9608 146.714 31.8532 146.957 31.6378 147.218C31.4225 147.479 31.0938 147.705 30.6518 147.898C30.2098 148.079 29.6488 148.17 28.9688 148.17ZM30.6178 142.645C30.6178 141.738 30.4762 141.013 30.1928 140.469C29.9208 139.914 29.4448 139.636 28.7648 139.636C28.1415 139.636 27.6542 139.897 27.3028 140.418C26.9628 140.928 26.7645 141.67 26.7078 142.645H30.6178ZM36.7575 148.17C35.9075 148.17 35.2275 148.017 34.7175 147.711C34.2075 147.405 33.9525 146.957 33.9525 146.368C33.9525 146.062 34.0148 145.824 34.1395 145.654C34.2642 145.484 34.4058 145.365 34.5645 145.297C34.7345 145.229 34.8875 145.195 35.0235 145.195C35.0235 145.784 35.1538 146.294 35.4145 146.725C35.6865 147.144 36.1682 147.354 36.8595 147.354C37.4602 147.354 37.9192 147.212 38.2365 146.929C38.5652 146.634 38.7295 146.26 38.7295 145.807C38.7295 145.524 38.6672 145.291 38.5425 145.11C38.4292 144.929 38.2195 144.753 37.9135 144.583C37.6188 144.402 37.1938 144.192 36.6385 143.954C36.0605 143.693 35.5788 143.444 35.1935 143.206C34.8195 142.957 34.5362 142.673 34.3435 142.356C34.1622 142.027 34.0715 141.619 34.0715 141.132C34.0715 140.361 34.3605 139.772 34.9385 139.364C35.5278 138.945 36.3042 138.735 37.2675 138.735C38.0835 138.735 38.7012 138.888 39.1205 139.194C39.5398 139.5 39.7495 139.868 39.7495 140.299C39.7495 140.605 39.6418 140.854 39.4265 141.047C39.2225 141.228 38.9222 141.319 38.5255 141.319C38.5255 140.752 38.4065 140.31 38.1685 139.993C37.9305 139.676 37.5622 139.517 37.0635 139.517C36.4855 139.517 36.0718 139.647 35.8225 139.908C35.5732 140.157 35.4485 140.48 35.4485 140.877C35.4485 141.308 35.6072 141.642 35.9245 141.88C36.2532 142.107 36.7972 142.373 37.5565 142.679C38.1572 142.928 38.6445 143.178 39.0185 143.427C39.3925 143.676 39.6645 143.965 39.8345 144.294C40.0158 144.623 40.1065 145.025 40.1065 145.501C40.1065 146.385 39.8005 147.054 39.1885 147.507C38.5765 147.949 37.7662 148.17 36.7575 148.17ZM45.6684 148.17C44.9204 148.17 44.2518 148.011 43.6624 147.694C43.0844 147.377 42.6254 146.878 42.2854 146.198C41.9568 145.507 41.7924 144.606 41.7924 143.495C41.7924 142.282 41.9568 141.33 42.2854 140.639C42.6254 139.936 43.0788 139.443 43.6454 139.16C44.2234 138.865 44.8694 138.718 45.5834 138.718C46.0594 138.718 46.5241 138.78 46.9774 138.905C47.4308 139.03 47.8048 139.222 48.0994 139.483C48.3941 139.732 48.5414 140.055 48.5414 140.452C48.5414 140.837 48.4111 141.115 48.1504 141.285C47.9011 141.444 47.5271 141.523 47.0284 141.523C47.0284 140.99 46.9264 140.531 46.7224 140.146C46.5298 139.761 46.1501 139.568 45.5834 139.568C45.1528 139.568 44.7731 139.681 44.4444 139.908C44.1271 140.135 43.8778 140.531 43.6964 141.098C43.5264 141.665 43.4414 142.458 43.4414 143.478C43.4414 144.679 43.6398 145.58 44.0364 146.181C44.4444 146.77 45.1018 147.065 46.0084 147.065C46.5411 147.065 47.0001 146.957 47.3854 146.742C47.7821 146.515 48.0768 146.226 48.2694 145.875C48.4621 146.034 48.5584 146.255 48.5584 146.538C48.5584 146.799 48.4508 147.054 48.2354 147.303C48.0201 147.552 47.6971 147.762 47.2664 147.932C46.8471 148.091 46.3144 148.17 45.6684 148.17ZM54.1036 148.17C52.8683 148.17 51.8993 147.762 51.1966 146.946C50.5053 146.13 50.1596 144.985 50.1596 143.512C50.1596 141.925 50.4883 140.73 51.1456 139.925C51.8029 139.12 52.7323 138.718 53.9336 138.718C55.0329 138.718 55.8943 139.058 56.5176 139.738C57.1523 140.418 57.4696 141.432 57.4696 142.781V143.563H51.8086C51.8313 144.798 52.0523 145.699 52.4716 146.266C52.9023 146.821 53.5256 147.099 54.3416 147.099C54.9309 147.099 55.4296 146.98 55.8376 146.742C56.2569 146.493 56.5686 146.215 56.7726 145.909C56.8519 145.943 56.9256 146.011 56.9936 146.113C57.0616 146.215 57.0956 146.34 57.0956 146.487C57.0956 146.714 56.9879 146.957 56.7726 147.218C56.5573 147.479 56.2286 147.705 55.7866 147.898C55.3446 148.079 54.7836 148.17 54.1036 148.17ZM55.7526 142.645C55.7526 141.738 55.6109 141.013 55.3276 140.469C55.0556 139.914 54.5796 139.636 53.8996 139.636C53.2763 139.636 52.7889 139.897 52.4376 140.418C52.0976 140.928 51.8993 141.67 51.8426 142.645H55.7526ZM58.7983 148V147.286H58.9343C59.3196 147.286 59.6483 147.218 59.9203 147.082C60.1923 146.935 60.3283 146.595 60.3283 146.062V140.758C60.3283 140.259 60.1923 139.942 59.9203 139.806C59.6596 139.67 59.3423 139.602 58.9683 139.602H58.8833V138.888H61.6373L61.8583 140.265H61.9433C62.2946 139.63 62.6856 139.217 63.1163 139.024C63.5583 138.82 64.0513 138.718 64.5953 138.718C65.4906 138.718 66.1876 138.984 66.6863 139.517C67.1963 140.038 67.4513 140.883 67.4513 142.05V146.062C67.4513 146.595 67.5646 146.935 67.7913 147.082C68.0293 147.218 68.3409 147.286 68.7263 147.286H68.8113V148H65.8533V142.135C65.8533 141.398 65.7116 140.826 65.4283 140.418C65.1563 140.01 64.6746 139.806 63.9833 139.806C63.4733 139.806 63.0653 139.936 62.7593 140.197C62.4646 140.446 62.2493 140.781 62.1133 141.2C61.9886 141.619 61.9263 142.073 61.9263 142.56V146.147C61.9263 146.646 62.0566 146.963 62.3173 147.099C62.5893 147.224 62.9123 147.286 63.2863 147.286H63.3713V148H58.7983ZM73.6823 148.17C72.5603 148.17 71.699 147.796 71.0983 147.048C70.509 146.289 70.2143 145.093 70.2143 143.461C70.2143 141.818 70.509 140.616 71.0983 139.857C71.699 139.098 72.5603 138.718 73.6823 138.718C74.3396 138.718 74.8723 138.86 75.2803 139.143C75.6996 139.415 76.034 139.772 76.2833 140.214H76.3853C76.3513 139.931 76.323 139.619 76.3003 139.279C76.289 138.928 76.2833 138.616 76.2833 138.344V136.95C76.2833 136.451 76.1416 136.134 75.8583 135.998C75.5863 135.862 75.2633 135.794 74.8893 135.794H74.7533V135.08H77.8813V146.13C77.8813 146.629 78.0173 146.946 78.2893 147.082C78.5726 147.218 78.9013 147.286 79.2753 147.286H79.4113V148H76.5383L76.3513 146.47H76.2833C76.034 146.991 75.7053 147.405 75.2973 147.711C74.8893 148.017 74.351 148.17 73.6823 148.17ZM73.9713 147.082C74.8553 147.082 75.4616 146.787 75.7903 146.198C76.119 145.597 76.2833 144.685 76.2833 143.461C76.2833 142.282 76.119 141.381 75.7903 140.758C75.4616 140.123 74.8496 139.806 73.9543 139.806C73.2063 139.806 72.668 140.123 72.3393 140.758C72.022 141.381 71.8633 142.288 71.8633 143.478C71.8633 144.679 72.022 145.58 72.3393 146.181C72.668 146.782 73.212 147.082 73.9713 147.082ZM84.6007 148.17C83.3653 148.17 82.3963 147.762 81.6937 146.946C81.0023 146.13 80.6567 144.985 80.6567 143.512C80.6567 141.925 80.9853 140.73 81.6427 139.925C82.3 139.12 83.2293 138.718 84.4307 138.718C85.53 138.718 86.3913 139.058 87.0147 139.738C87.6493 140.418 87.9667 141.432 87.9667 142.781V143.563H82.3057C82.3283 144.798 82.5493 145.699 82.9687 146.266C83.3993 146.821 84.0227 147.099 84.8387 147.099C85.428 147.099 85.9267 146.98 86.3347 146.742C86.754 146.493 87.0657 146.215 87.2697 145.909C87.349 145.943 87.4227 146.011 87.4907 146.113C87.5587 146.215 87.5927 146.34 87.5927 146.487C87.5927 146.714 87.485 146.957 87.2697 147.218C87.0543 147.479 86.7257 147.705 86.2837 147.898C85.8417 148.079 85.2807 148.17 84.6007 148.17ZM86.2497 142.645C86.2497 141.738 86.108 141.013 85.8247 140.469C85.5527 139.914 85.0767 139.636 84.3967 139.636C83.7733 139.636 83.286 139.897 82.9347 140.418C82.5947 140.928 82.3963 141.67 82.3397 142.645H86.2497ZM89.3803 148V147.286H89.4313C89.8167 147.286 90.1453 147.218 90.4173 147.082C90.6893 146.935 90.8253 146.595 90.8253 146.062V140.758C90.8253 140.259 90.6837 139.942 90.4003 139.806C90.1283 139.67 89.8053 139.602 89.4313 139.602H89.3803V138.888H91.9983L92.3213 140.571H92.4063C92.5537 140.231 92.7123 139.919 92.8823 139.636C93.0523 139.353 93.279 139.132 93.5623 138.973C93.8457 138.803 94.2367 138.718 94.7353 138.718C95.3587 138.718 95.8177 138.826 96.1123 139.041C96.4183 139.256 96.5713 139.562 96.5713 139.959C96.5713 140.31 96.4467 140.599 96.1973 140.826C95.9593 141.053 95.557 141.166 94.9903 141.166C94.9903 140.701 94.9223 140.367 94.7863 140.163C94.6503 139.948 94.418 139.84 94.0893 139.84C93.772 139.84 93.5057 139.965 93.2903 140.214C93.075 140.463 92.905 140.781 92.7803 141.166C92.6557 141.551 92.565 141.954 92.5083 142.373C92.4517 142.781 92.4233 143.149 92.4233 143.478V146.147C92.4233 146.646 92.5593 146.963 92.8313 147.099C93.1147 147.224 93.4433 147.286 93.8173 147.286H94.2933V148H89.3803ZM101.458 148V147.286H101.679C102.065 147.286 102.393 147.218 102.665 147.082C102.937 146.935 103.073 146.595 103.073 146.062V136.95C103.073 136.451 102.932 136.134 102.648 135.998C102.376 135.862 102.053 135.794 101.679 135.794H101.458V135.08H104.671V146.062C104.671 146.595 104.807 146.935 105.079 147.082C105.351 147.218 105.68 147.286 106.065 147.286H106.286V148H101.458ZM109.237 137.188C108.965 137.188 108.733 137.109 108.54 136.95C108.359 136.791 108.268 136.519 108.268 136.134C108.268 135.737 108.359 135.465 108.54 135.318C108.733 135.159 108.965 135.08 109.237 135.08C109.498 135.08 109.724 135.159 109.917 135.318C110.11 135.465 110.206 135.737 110.206 136.134C110.206 136.519 110.11 136.791 109.917 136.95C109.724 137.109 109.498 137.188 109.237 137.188ZM106.891 148V147.286H107.112C107.486 147.286 107.809 147.224 108.081 147.099C108.364 146.963 108.506 146.646 108.506 146.147V140.758C108.506 140.259 108.364 139.942 108.081 139.806C107.809 139.67 107.486 139.602 107.112 139.602H107.061V138.888H110.104V146.062C110.104 146.595 110.24 146.935 110.512 147.082C110.784 147.218 111.113 147.286 111.498 147.286H111.719V148H106.891ZM112.421 148V147.286H112.557C112.943 147.286 113.271 147.218 113.543 147.082C113.815 146.935 113.951 146.595 113.951 146.062V140.758C113.951 140.259 113.815 139.942 113.543 139.806C113.283 139.67 112.965 139.602 112.591 139.602H112.506V138.888H115.26L115.481 140.265H115.566C115.918 139.63 116.309 139.217 116.739 139.024C117.181 138.82 117.674 138.718 118.218 138.718C119.114 138.718 119.811 138.984 120.309 139.517C120.819 140.038 121.074 140.883 121.074 142.05V146.062C121.074 146.595 121.188 146.935 121.414 147.082C121.652 147.218 121.964 147.286 122.349 147.286H122.434V148H119.476V142.135C119.476 141.398 119.335 140.826 119.051 140.418C118.779 140.01 118.298 139.806 117.606 139.806C117.096 139.806 116.688 139.936 116.382 140.197C116.088 140.446 115.872 140.781 115.736 141.2C115.612 141.619 115.549 142.073 115.549 142.56V146.147C115.549 146.646 115.68 146.963 115.94 147.099C116.212 147.224 116.535 147.286 116.909 147.286H116.994V148H112.421ZM127.781 148.17C126.546 148.17 125.577 147.762 124.874 146.946C124.183 146.13 123.837 144.985 123.837 143.512C123.837 141.925 124.166 140.73 124.823 139.925C125.481 139.12 126.41 138.718 127.611 138.718C128.711 138.718 129.572 139.058 130.195 139.738C130.83 140.418 131.147 141.432 131.147 142.781V143.563H125.486C125.509 144.798 125.73 145.699 126.149 146.266C126.58 146.821 127.203 147.099 128.019 147.099C128.609 147.099 129.107 146.98 129.515 146.742C129.935 146.493 130.246 146.215 130.45 145.909C130.53 145.943 130.603 146.011 130.671 146.113C130.739 146.215 130.773 146.34 130.773 146.487C130.773 146.714 130.666 146.957 130.45 147.218C130.235 147.479 129.906 147.705 129.464 147.898C129.022 148.079 128.461 148.17 127.781 148.17ZM129.43 142.645C129.43 141.738 129.289 141.013 129.005 140.469C128.733 139.914 128.257 139.636 127.577 139.636C126.954 139.636 126.467 139.897 126.115 140.418C125.775 140.928 125.577 141.67 125.52 142.645H129.43Z" fill="black"/>
<path d="M617.476 118V117.099H618.173C618.422 117.099 618.632 117.037 618.802 116.912C618.972 116.787 619.057 116.481 619.057 115.994V107.851C619.057 107.398 618.966 107.103 618.785 106.967C618.615 106.831 618.411 106.763 618.173 106.763H617.476V105.862H622.44C624.061 105.862 625.273 106.111 626.078 106.61C626.894 107.109 627.302 107.891 627.302 108.956C627.302 109.704 627.104 110.271 626.707 110.656C626.31 111.041 625.795 111.336 625.16 111.54V111.625C625.942 111.818 626.577 112.169 627.064 112.679C627.563 113.178 627.812 113.841 627.812 114.668C627.812 116.889 626.191 118 622.95 118H617.476ZM622.389 111.132C623.182 111.132 623.721 110.962 624.004 110.622C624.299 110.282 624.446 109.727 624.446 108.956C624.446 108.185 624.287 107.653 623.97 107.358C623.664 107.052 623.126 106.899 622.355 106.899H621.743V111.132H622.389ZM622.865 116.963C623.624 116.963 624.163 116.787 624.48 116.436C624.797 116.085 624.956 115.478 624.956 114.617C624.956 113.778 624.809 113.161 624.514 112.764C624.219 112.367 623.681 112.169 622.899 112.169H621.743V116.963H622.865ZM631.856 118.17C631.108 118.17 630.473 117.943 629.952 117.49C629.442 117.037 629.187 116.34 629.187 115.399C629.187 114.481 629.504 113.801 630.139 113.359C630.774 112.917 631.726 112.673 632.995 112.628L634.389 112.577V111.642C634.389 111.075 634.327 110.611 634.202 110.248C634.089 109.885 633.8 109.704 633.335 109.704C632.904 109.704 632.604 109.88 632.434 110.231C632.275 110.571 632.196 111.007 632.196 111.54C631.437 111.54 630.864 111.455 630.479 111.285C630.094 111.115 629.901 110.82 629.901 110.401C629.901 109.982 630.06 109.647 630.377 109.398C630.694 109.149 631.119 108.967 631.652 108.854C632.185 108.729 632.768 108.667 633.403 108.667C634.593 108.667 635.483 108.882 636.072 109.313C636.673 109.744 636.973 110.492 636.973 111.557V115.892C636.973 116.357 637.047 116.674 637.194 116.844C637.341 117.014 637.608 117.099 637.993 117.099H638.061V118H634.899L634.542 116.827H634.389C634.14 117.133 633.902 117.388 633.675 117.592C633.46 117.785 633.21 117.926 632.927 118.017C632.644 118.119 632.287 118.17 631.856 118.17ZM632.791 116.929C633.278 116.929 633.664 116.731 633.947 116.334C634.242 115.937 634.389 115.41 634.389 114.753V113.478L633.624 113.529C632.944 113.563 632.474 113.744 632.213 114.073C631.952 114.39 631.822 114.855 631.822 115.467C631.822 116.442 632.145 116.929 632.791 116.929ZM642.526 118.17C641.29 118.17 640.412 117.983 639.891 117.609C639.369 117.224 639.109 116.748 639.109 116.181C639.109 115.807 639.199 115.529 639.381 115.348C639.562 115.167 639.777 115.048 640.027 114.991C640.276 114.923 640.497 114.889 640.69 114.889C640.69 115.592 640.854 116.147 641.183 116.555C641.523 116.963 641.97 117.167 642.526 117.167C643.115 117.167 643.54 117.054 643.801 116.827C644.073 116.6 644.209 116.328 644.209 116.011C644.209 115.637 644.061 115.331 643.767 115.093C643.472 114.855 642.922 114.594 642.118 114.311C641.2 113.994 640.497 113.62 640.01 113.189C639.522 112.747 639.279 112.146 639.279 111.387C639.279 110.48 639.613 109.806 640.282 109.364C640.95 108.911 641.834 108.684 642.934 108.684C643.648 108.684 644.22 108.763 644.651 108.922C645.093 109.069 645.41 109.268 645.603 109.517C645.807 109.755 645.909 110.004 645.909 110.265C645.909 110.65 645.773 110.945 645.501 111.149C645.24 111.342 644.798 111.438 644.175 111.438C644.175 110.871 644.05 110.435 643.801 110.129C643.551 109.812 643.177 109.653 642.679 109.653C642.316 109.653 641.993 109.744 641.71 109.925C641.438 110.095 641.302 110.356 641.302 110.707C641.302 110.945 641.364 111.155 641.489 111.336C641.625 111.517 641.863 111.693 642.203 111.863C642.543 112.033 643.019 112.226 643.631 112.441C644.39 112.702 645.008 113.047 645.484 113.478C645.971 113.897 646.215 114.464 646.215 115.178C646.215 116.119 645.892 116.855 645.246 117.388C644.611 117.909 643.704 118.17 642.526 118.17ZM652.101 118.17C650.662 118.17 649.568 117.762 648.82 116.946C648.072 116.119 647.698 114.968 647.698 113.495C647.698 111.897 648.067 110.696 648.803 109.891C649.54 109.075 650.577 108.667 651.914 108.667C653.15 108.667 654.119 109.013 654.821 109.704C655.535 110.395 655.892 111.415 655.892 112.764V113.631H650.316C650.35 114.764 650.56 115.592 650.945 116.113C651.342 116.634 651.892 116.895 652.594 116.895C653.184 116.895 653.682 116.765 654.09 116.504C654.498 116.232 654.799 115.903 654.991 115.518C655.297 115.688 655.45 115.966 655.45 116.351C655.45 116.838 655.178 117.263 654.634 117.626C654.09 117.989 653.246 118.17 652.101 118.17ZM653.291 112.543C653.291 111.67 653.189 110.99 652.985 110.503C652.781 110.016 652.436 109.772 651.948 109.772C651.472 109.772 651.093 110.01 650.809 110.486C650.526 110.951 650.373 111.636 650.35 112.543H653.291ZM661.316 118V117.099H661.52C661.69 117.099 661.866 117.076 662.047 117.031C662.24 116.974 662.399 116.867 662.523 116.708C662.659 116.549 662.727 116.311 662.727 115.994V107.018C662.727 106.712 662.659 106.485 662.523 106.338C662.387 106.191 662.223 106.094 662.03 106.049C661.849 106.004 661.679 105.981 661.52 105.981H661.316V105.08H665.311V115.994C665.311 116.311 665.374 116.549 665.498 116.708C665.634 116.867 665.799 116.974 665.991 117.031C666.184 117.076 666.36 117.099 666.518 117.099H666.722V118H661.316ZM669.911 107.358C669.503 107.358 669.157 107.262 668.874 107.069C668.602 106.865 668.466 106.553 668.466 106.134C668.466 105.703 668.602 105.392 668.874 105.199C669.157 105.006 669.503 104.91 669.911 104.91C670.308 104.91 670.648 105.006 670.931 105.199C671.226 105.392 671.373 105.703 671.373 106.134C671.373 106.553 671.226 106.865 670.931 107.069C670.648 107.262 670.308 107.358 669.911 107.358ZM667.293 118V117.099H667.497C667.667 117.099 667.843 117.076 668.024 117.031C668.217 116.974 668.375 116.867 668.5 116.708C668.636 116.549 668.704 116.311 668.704 115.994V110.826C668.704 110.52 668.636 110.293 668.5 110.146C668.364 109.999 668.2 109.902 668.007 109.857C667.826 109.812 667.656 109.789 667.497 109.789H667.293V108.888H671.288V115.994C671.288 116.311 671.35 116.549 671.475 116.708C671.611 116.867 671.775 116.974 671.968 117.031C672.161 117.076 672.336 117.099 672.495 117.099H672.699V118H667.293ZM673.32 118V117.099H673.354C673.74 117.099 674.057 117.031 674.306 116.895C674.556 116.759 674.68 116.436 674.68 115.926V110.894C674.68 110.418 674.567 110.118 674.34 109.993C674.125 109.857 673.83 109.789 673.456 109.789H673.405V108.888H676.975L677.196 110.095H677.281C677.508 109.664 677.752 109.353 678.012 109.16C678.284 108.956 678.573 108.826 678.879 108.769C679.197 108.701 679.531 108.667 679.882 108.667C680.755 108.667 681.441 108.928 681.939 109.449C682.438 109.97 682.687 110.803 682.687 111.948V115.892C682.687 116.413 682.778 116.748 682.959 116.895C683.152 117.031 683.441 117.099 683.826 117.099H683.877V118H680.103V112.407C680.103 111.67 680.001 111.104 679.797 110.707C679.593 110.31 679.242 110.112 678.743 110.112C678.369 110.112 678.075 110.237 677.859 110.486C677.644 110.724 677.491 111.047 677.4 111.455C677.31 111.852 677.264 112.282 677.264 112.747V115.994C677.264 116.47 677.372 116.776 677.587 116.912C677.814 117.037 678.114 117.099 678.488 117.099H678.539V118H673.32ZM689.521 118.17C688.082 118.17 686.988 117.762 686.24 116.946C685.492 116.119 685.118 114.968 685.118 113.495C685.118 111.897 685.487 110.696 686.223 109.891C686.96 109.075 687.997 108.667 689.334 108.667C690.57 108.667 691.539 109.013 692.241 109.704C692.955 110.395 693.312 111.415 693.312 112.764V113.631H687.736C687.77 114.764 687.98 115.592 688.365 116.113C688.762 116.634 689.312 116.895 690.014 116.895C690.604 116.895 691.102 116.765 691.51 116.504C691.918 116.232 692.219 115.903 692.411 115.518C692.717 115.688 692.87 115.966 692.87 116.351C692.87 116.838 692.598 117.263 692.054 117.626C691.51 117.989 690.666 118.17 689.521 118.17ZM690.711 112.543C690.711 111.67 690.609 110.99 690.405 110.503C690.201 110.016 689.856 109.772 689.368 109.772C688.892 109.772 688.513 110.01 688.229 110.486C687.946 110.951 687.793 111.636 687.77 112.543H690.711Z" fill="#E44D26"/>
</svg>
