<svg width="383" height="120" viewBox="0 0 383 120" fill="none" xmlns="http://www.w3.org/2000/svg">
<rect x="1" y="1" width="381" height="118" rx="9" fill="#7187FB" stroke="#001EBB" stroke-width="2"/>
<g filter="url(#filter0_d)">
<rect x="20" y="20" width="50" height="50" rx="6" fill="#FFF000"/>
<rect x="21" y="21" width="48" height="48" rx="5" stroke="#001EBB" stroke-width="2"/>
</g>
<path d="M47.126 51.5H44.999V41.2256L41.8613 42.2979V40.4961L46.8535 38.6592H47.126V51.5Z" fill="#001EBB"/>
<g filter="url(#filter1_d)">
<rect x="82" y="20" width="50" height="50" rx="6" fill="#FFF000"/>
<rect x="83" y="21" width="48" height="48" rx="5" stroke="#001EBB" stroke-width="2"/>
</g>
<path d="M111.947 51.5H103.343V50.0322L107.605 45.3828C108.221 44.6973 108.657 44.126 108.915 43.6689C109.179 43.2061 109.311 42.7432 109.311 42.2803C109.311 41.6709 109.138 41.1787 108.792 40.8037C108.452 40.4287 107.992 40.2412 107.412 40.2412C106.721 40.2412 106.185 40.4521 105.804 40.874C105.423 41.2959 105.232 41.873 105.232 42.6055H103.097C103.097 41.8262 103.272 41.126 103.624 40.5049C103.981 39.8779 104.488 39.3916 105.145 39.0459C105.807 38.7002 106.568 38.5273 107.43 38.5273C108.672 38.5273 109.65 38.8408 110.365 39.4678C111.086 40.0889 111.446 40.9502 111.446 42.0518C111.446 42.6904 111.265 43.3613 110.901 44.0645C110.544 44.7617 109.955 45.5557 109.135 46.4463L106.006 49.7949H111.947V51.5Z" fill="#001EBB"/>
<g filter="url(#filter2_d)">
<rect x="144" y="20" width="50" height="50" rx="6" fill="#FFF000"/>
<rect x="145" y="21" width="48" height="48" rx="5" stroke="#001EBB" stroke-width="2"/>
</g>
<path d="M167.812 44.126H169.113C169.77 44.1201 170.288 43.9502 170.669 43.6162C171.056 43.2822 171.249 42.7988 171.249 42.166C171.249 41.5566 171.088 41.085 170.766 40.751C170.449 40.4111 169.963 40.2412 169.307 40.2412C168.732 40.2412 168.261 40.4082 167.892 40.7422C167.522 41.0703 167.338 41.501 167.338 42.0342H165.202C165.202 41.3779 165.375 40.7803 165.721 40.2412C166.072 39.7021 166.559 39.2832 167.18 38.9844C167.807 38.6797 168.507 38.5273 169.28 38.5273C170.558 38.5273 171.56 38.8496 172.286 39.4941C173.019 40.1328 173.385 41.0234 173.385 42.166C173.385 42.7402 173.2 43.2822 172.831 43.792C172.468 44.2959 171.996 44.6768 171.416 44.9346C172.119 45.1748 172.652 45.5527 173.016 46.0684C173.385 46.584 173.569 47.1992 173.569 47.9141C173.569 49.0625 173.174 49.9766 172.383 50.6562C171.598 51.3359 170.563 51.6758 169.28 51.6758C168.05 51.6758 167.042 51.3477 166.257 50.6914C165.472 50.0352 165.079 49.1621 165.079 48.0723H167.215C167.215 48.6348 167.402 49.0918 167.777 49.4434C168.158 49.7949 168.668 49.9707 169.307 49.9707C169.969 49.9707 170.49 49.7949 170.871 49.4434C171.252 49.0918 171.442 48.582 171.442 47.9141C171.442 47.2402 171.243 46.7217 170.845 46.3584C170.446 45.9951 169.854 45.8135 169.069 45.8135H167.812V44.126Z" fill="#001EBB"/>
<path d="M21 93C20.4477 93 20 93.4477 20 94C20 94.5523 20.4477 95 21 95V93ZM193.707 94.7071C194.098 94.3166 194.098 93.6834 193.707 93.2929L187.343 86.9289C186.953 86.5384 186.319 86.5384 185.929 86.9289C185.538 87.3195 185.538 87.9526 185.929 88.3431L191.586 94L185.929 99.6569C185.538 100.047 185.538 100.681 185.929 101.071C186.319 101.462 186.953 101.462 187.343 101.071L193.707 94.7071ZM21 95H193V93H21V95Z" fill="white"/>
<defs>
<filter id="filter0_d" x="20" y="20" width="56" height="56" filterUnits="userSpaceOnUse" color-interpolation-filters="sRGB">
<feFlood flood-opacity="0" result="BackgroundImageFix"/>
<feColorMatrix in="SourceAlpha" type="matrix" values="0 0 0 0 0 0 0 0 0 0 0 0 0 0 0 0 0 0 127 0"/>
<feOffset dx="6" dy="6"/>
<feColorMatrix type="matrix" values="0 0 0 0 0 0 0 0 0 0 0 0 0 0 0 0 0 0 0.15 0"/>
<feBlend mode="normal" in2="BackgroundImageFix" result="effect1_dropShadow"/>
<feBlend mode="normal" in="SourceGraphic" in2="effect1_dropShadow" result="shape"/>
</filter>
<filter id="filter1_d" x="82" y="20" width="56" height="56" filterUnits="userSpaceOnUse" color-interpolation-filters="sRGB">
<feFlood flood-opacity="0" result="BackgroundImageFix"/>
<feColorMatrix in="SourceAlpha" type="matrix" values="0 0 0 0 0 0 0 0 0 0 0 0 0 0 0 0 0 0 127 0"/>
<feOffset dx="6" dy="6"/>
<feColorMatrix type="matrix" values="0 0 0 0 0 0 0 0 0 0 0 0 0 0 0 0 0 0 0.15 0"/>
<feBlend mode="normal" in2="BackgroundImageFix" result="effect1_dropShadow"/>
<feBlend mode="normal" in="SourceGraphic" in2="effect1_dropShadow" result="shape"/>
</filter>
<filter id="filter2_d" x="144" y="20" width="56" height="56" filterUnits="userSpaceOnUse" color-interpolation-filters="sRGB">
<feFlood flood-opacity="0" result="BackgroundImageFix"/>
<feColorMatrix in="SourceAlpha" type="matrix" values="0 0 0 0 0 0 0 0 0 0 0 0 0 0 0 0 0 0 127 0"/>
<feOffset dx="6" dy="6"/>
<feColorMatrix type="matrix" values="0 0 0 0 0 0 0 0 0 0 0 0 0 0 0 0 0 0 0.15 0"/>
<feBlend mode="normal" in2="BackgroundImageFix" result="effect1_dropShadow"/>
<feBlend mode="normal" in="SourceGraphic" in2="effect1_dropShadow" result="shape"/>
</filter>
</defs>
</svg>
