<svg width="586" height="152" viewBox="0 0 586 152" fill="none" xmlns="http://www.w3.org/2000/svg">
<rect x="1" y="1" width="584" height="150" rx="9" fill="#7187FB" stroke="#001EBB" stroke-width="2"/>
<g filter="url(#filter0_d)">
<rect x="20" y="20" width="99.6" height="50" rx="6" fill="#FFF000"/>
<rect x="21" y="21" width="97.6" height="48" rx="5" stroke="#001EBB" stroke-width="2"/>
</g>
<path d="M72.126 51.5H69.999V41.2256L66.8613 42.2979V40.4961L71.8535 38.6592H72.126V51.5Z" fill="#001EBB"/>
<g filter="url(#filter1_d)">
<rect x="131.6" y="20" width="99.6" height="50" rx="6" fill="#FFF000"/>
<rect x="132.6" y="21" width="97.6" height="48" rx="5" stroke="#001EBB" stroke-width="2"/>
</g>
<path d="M186.547 51.5H177.943V50.0322L182.206 45.3828C182.821 44.6973 183.257 44.126 183.515 43.6689C183.779 43.2061 183.911 42.7432 183.911 42.2803C183.911 41.6709 183.738 41.1787 183.392 40.8037C183.052 40.4287 182.592 40.2412 182.012 40.2412C181.321 40.2412 180.785 40.4521 180.404 40.874C180.023 41.2959 179.833 41.873 179.833 42.6055H177.697C177.697 41.8262 177.873 41.126 178.224 40.5049C178.582 39.8779 179.088 39.3916 179.745 39.0459C180.407 38.7002 181.168 38.5273 182.03 38.5273C183.272 38.5273 184.25 38.8408 184.965 39.4678C185.686 40.0889 186.046 40.9502 186.046 42.0518C186.046 42.6904 185.865 43.3613 185.501 44.0645C185.144 44.7617 184.555 45.5557 183.735 46.4463L180.606 49.7949H186.547V51.5Z" fill="#001EBB"/>
<g filter="url(#filter2_d)">
<rect x="243.2" y="20" width="99.6" height="50" rx="6" fill="#FFF000"/>
<rect x="244.2" y="21" width="97.6" height="48" rx="5" stroke="#001EBB" stroke-width="2"/>
</g>
<path d="M292.013 44.126H293.313C293.97 44.1201 294.488 43.9502 294.869 43.6162C295.256 43.2822 295.449 42.7988 295.449 42.166C295.449 41.5566 295.288 41.085 294.966 40.751C294.649 40.4111 294.163 40.2412 293.507 40.2412C292.933 40.2412 292.461 40.4082 292.092 40.7422C291.723 41.0703 291.538 41.501 291.538 42.0342H289.402C289.402 41.3779 289.575 40.7803 289.921 40.2412C290.272 39.7021 290.759 39.2832 291.38 38.9844C292.007 38.6797 292.707 38.5273 293.48 38.5273C294.758 38.5273 295.76 38.8496 296.486 39.4941C297.219 40.1328 297.585 41.0234 297.585 42.166C297.585 42.7402 297.4 43.2822 297.031 43.792C296.668 44.2959 296.196 44.6768 295.616 44.9346C296.319 45.1748 296.853 45.5527 297.216 46.0684C297.585 46.584 297.77 47.1992 297.77 47.9141C297.77 49.0625 297.374 49.9766 296.583 50.6562C295.798 51.3359 294.764 51.6758 293.48 51.6758C292.25 51.6758 291.242 51.3477 290.457 50.6914C289.672 50.0352 289.279 49.1621 289.279 48.0723H291.415C291.415 48.6348 291.603 49.0918 291.978 49.4434C292.358 49.7949 292.868 49.9707 293.507 49.9707C294.169 49.9707 294.69 49.7949 295.071 49.4434C295.452 49.0918 295.643 48.582 295.643 47.9141C295.643 47.2402 295.443 46.7217 295.045 46.3584C294.646 45.9951 294.055 45.8135 293.27 45.8135H292.013V44.126Z" fill="#001EBB"/>
<g filter="url(#filter3_d)">
<rect x="354.8" y="20" width="99.6" height="50" rx="6" fill="#FFF000"/>
<rect x="355.8" y="21" width="97.6" height="48" rx="5" stroke="#001EBB" stroke-width="2"/>
</g>
<path d="M408.367 46.9385H409.958V48.6523H408.367V51.5H406.231V48.6523H400.703L400.642 47.3516L406.161 38.7031H408.367V46.9385ZM402.883 46.9385H406.231V41.5947L406.073 41.876L402.883 46.9385Z" fill="#001EBB"/>
<g filter="url(#filter4_d)">
<rect x="466.4" y="20" width="99.6" height="50" rx="6" fill="#FFF000"/>
<rect x="467.4" y="21" width="97.6" height="48" rx="5" stroke="#001EBB" stroke-width="2"/>
</g>
<path d="M513.314 45.1543L514.008 38.7031H520.881V40.5488H515.784L515.432 43.6074C516.024 43.2676 516.692 43.0977 517.436 43.0977C518.655 43.0977 519.601 43.4873 520.275 44.2666C520.955 45.0459 521.294 46.0947 521.294 47.4131C521.294 48.7139 520.919 49.751 520.169 50.5244C519.419 51.292 518.391 51.6758 517.084 51.6758C515.913 51.6758 514.94 51.3447 514.167 50.6826C513.399 50.0146 512.983 49.1357 512.918 48.0459H514.984C515.066 48.667 515.289 49.1445 515.652 49.4785C516.015 49.8066 516.49 49.9707 517.076 49.9707C517.732 49.9707 518.242 49.7363 518.605 49.2676C518.974 48.7988 519.159 48.1602 519.159 47.3516C519.159 46.5723 518.957 45.957 518.552 45.5059C518.148 45.0488 517.591 44.8203 516.882 44.8203C516.496 44.8203 516.167 44.873 515.898 44.9785C515.628 45.0781 515.335 45.2773 515.019 45.5762L513.314 45.1543Z" fill="#001EBB"/>
<path d="M44.5942 94.3906C44.1743 94.3418 43.7837 94.3174 43.4224 94.3174C42.4653 94.3174 41.9868 94.7251 41.9868 95.5405V96.0752H43.5615V97.6279H41.9868V104H39.8628V97.6279H38.6836V96.0752H39.8628V95.46C39.8726 94.542 40.1606 93.8364 40.7271 93.3433C41.2935 92.8452 42.0942 92.5962 43.1294 92.5962C43.8667 92.5962 45.063 92.6743 46.7183 92.8306V104H44.5942V94.3906ZM52.1309 104.146C50.9688 104.146 50.0215 103.79 49.2891 103.077C48.5615 102.364 48.1978 101.415 48.1978 100.228V100.023C48.1978 99.2271 48.3516 98.5166 48.6592 97.8916C48.9668 97.2617 49.4014 96.7783 49.9629 96.4414C50.5293 96.0996 51.1738 95.9287 51.8965 95.9287C52.9805 95.9287 53.8325 96.2705 54.4526 96.9541C55.0776 97.6377 55.3901 98.6069 55.3901 99.8618V100.726H50.3438C50.4121 101.244 50.6172 101.659 50.959 101.971C51.3057 102.284 51.7427 102.44 52.27 102.44C53.0854 102.44 53.7227 102.145 54.1816 101.554L55.2217 102.718C54.9043 103.167 54.4746 103.519 53.9326 103.773C53.3906 104.022 52.79 104.146 52.1309 104.146ZM51.8892 97.6426C51.4692 97.6426 51.1274 97.7842 50.8638 98.0674C50.605 98.3506 50.439 98.7559 50.3657 99.2832H53.3101V99.1147C53.3003 98.646 53.1733 98.2847 52.9292 98.0308C52.6851 97.772 52.3384 97.6426 51.8892 97.6426ZM59.6162 98.4409L60.9492 96.0752H63.2124L60.9565 99.957L63.3076 104H61.0371L59.6235 101.51L58.2173 104H55.9395L58.2905 99.957L56.042 96.0752H58.3125L59.6162 98.4409ZM68.3467 100.287H64.2231V98.5801H68.3467V100.287ZM69.7383 99.979C69.7383 98.7632 70.0264 97.7842 70.6025 97.042C71.1836 96.2998 71.9648 95.9287 72.9463 95.9287C73.8154 95.9287 74.4917 96.2266 74.9751 96.8223L75.063 96.0752H76.9819V103.736C76.9819 104.43 76.8232 105.033 76.5059 105.545C76.1934 106.058 75.7515 106.449 75.1802 106.717C74.6089 106.986 73.9399 107.12 73.1733 107.12C72.5923 107.12 72.0259 107.003 71.4741 106.769C70.9224 106.539 70.5049 106.241 70.2217 105.875L71.1592 104.586C71.6865 105.177 72.3262 105.472 73.0781 105.472C73.6396 105.472 74.0767 105.321 74.3892 105.018C74.7017 104.72 74.8579 104.295 74.8579 103.744V103.319C74.3696 103.871 73.7275 104.146 72.9316 104.146C71.9795 104.146 71.208 103.775 70.6172 103.033C70.0312 102.286 69.7383 101.297 69.7383 100.067V99.979ZM71.855 100.133C71.855 100.851 71.999 101.415 72.2871 101.825C72.5752 102.23 72.9707 102.433 73.4736 102.433C74.1182 102.433 74.5796 102.191 74.8579 101.708V98.375C74.5747 97.8916 74.1182 97.6499 73.4883 97.6499C72.9805 97.6499 72.5801 97.8574 72.2871 98.2725C71.999 98.6875 71.855 99.3076 71.855 100.133ZM83.0684 98.0601C82.7803 98.021 82.5264 98.0015 82.3066 98.0015C81.5059 98.0015 80.981 98.2725 80.7319 98.8145V104H78.6152V96.0752H80.6147L80.6733 97.02C81.0981 96.2925 81.6865 95.9287 82.4385 95.9287C82.6729 95.9287 82.8926 95.9604 83.0977 96.0239L83.0684 98.0601ZM83.5005 99.9644C83.5005 99.1782 83.6519 98.4775 83.9546 97.8623C84.2573 97.2471 84.6919 96.771 85.2583 96.4341C85.8296 96.0972 86.4912 95.9287 87.2432 95.9287C88.3125 95.9287 89.1841 96.2559 89.8579 96.9102C90.5366 97.5645 90.915 98.4531 90.9932 99.5762L91.0078 100.118C91.0078 101.334 90.6685 102.311 89.9897 103.048C89.311 103.78 88.4004 104.146 87.2578 104.146C86.1152 104.146 85.2021 103.78 84.5186 103.048C83.8398 102.315 83.5005 101.319 83.5005 100.06V99.9644ZM85.6172 100.118C85.6172 100.87 85.7588 101.446 86.042 101.847C86.3252 102.242 86.7305 102.44 87.2578 102.44C87.7705 102.44 88.1709 102.245 88.459 101.854C88.7471 101.458 88.8911 100.829 88.8911 99.9644C88.8911 99.2271 88.7471 98.6558 88.459 98.2505C88.1709 97.8452 87.7656 97.6426 87.2432 97.6426C86.7256 97.6426 86.3252 97.8452 86.042 98.2505C85.7588 98.6509 85.6172 99.2734 85.6172 100.118ZM99.2036 101.122L100.244 96.0752H102.287L100.266 104H98.4932L96.9917 99.0122L95.4902 104H93.7251L91.7036 96.0752H93.7471L94.7798 101.114L96.23 96.0752H97.7607L99.2036 101.122Z" fill="white"/>
<path d="M72.5801 128H69.7578V117.121L66.3887 118.166V115.871L72.2773 113.762H72.5801V128Z" fill="#FFF000"/>
<path d="M155.594 94.3906C155.174 94.3418 154.784 94.3174 154.422 94.3174C153.465 94.3174 152.987 94.7251 152.987 95.5405V96.0752H154.562V97.6279H152.987V104H150.863V97.6279H149.684V96.0752H150.863V95.46C150.873 94.542 151.161 93.8364 151.727 93.3433C152.293 92.8452 153.094 92.5962 154.129 92.5962C154.867 92.5962 156.063 92.6743 157.718 92.8306V104H155.594V94.3906ZM163.131 104.146C161.969 104.146 161.021 103.79 160.289 103.077C159.562 102.364 159.198 101.415 159.198 100.228V100.023C159.198 99.2271 159.352 98.5166 159.659 97.8916C159.967 97.2617 160.401 96.7783 160.963 96.4414C161.529 96.0996 162.174 95.9287 162.896 95.9287C163.98 95.9287 164.833 96.2705 165.453 96.9541C166.078 97.6377 166.39 98.6069 166.39 99.8618V100.726H161.344C161.412 101.244 161.617 101.659 161.959 101.971C162.306 102.284 162.743 102.44 163.27 102.44C164.085 102.44 164.723 102.145 165.182 101.554L166.222 102.718C165.904 103.167 165.475 103.519 164.933 103.773C164.391 104.022 163.79 104.146 163.131 104.146ZM162.889 97.6426C162.469 97.6426 162.127 97.7842 161.864 98.0674C161.605 98.3506 161.439 98.7559 161.366 99.2832H164.31V99.1147C164.3 98.646 164.173 98.2847 163.929 98.0308C163.685 97.772 163.338 97.6426 162.889 97.6426ZM170.616 98.4409L171.949 96.0752H174.212L171.957 99.957L174.308 104H172.037L170.624 101.51L169.217 104H166.939L169.291 99.957L167.042 96.0752H169.312L170.616 98.4409ZM179.347 100.287H175.223V98.5801H179.347V100.287ZM180.738 99.979C180.738 98.7632 181.026 97.7842 181.603 97.042C182.184 96.2998 182.965 95.9287 183.946 95.9287C184.815 95.9287 185.492 96.2266 185.975 96.8223L186.063 96.0752H187.982V103.736C187.982 104.43 187.823 105.033 187.506 105.545C187.193 106.058 186.751 106.449 186.18 106.717C185.609 106.986 184.94 107.12 184.173 107.12C183.592 107.12 183.026 107.003 182.474 106.769C181.922 106.539 181.505 106.241 181.222 105.875L182.159 104.586C182.687 105.177 183.326 105.472 184.078 105.472C184.64 105.472 185.077 105.321 185.389 105.018C185.702 104.72 185.858 104.295 185.858 103.744V103.319C185.37 103.871 184.728 104.146 183.932 104.146C182.979 104.146 182.208 103.775 181.617 103.033C181.031 102.286 180.738 101.297 180.738 100.067V99.979ZM182.855 100.133C182.855 100.851 182.999 101.415 183.287 101.825C183.575 102.23 183.971 102.433 184.474 102.433C185.118 102.433 185.58 102.191 185.858 101.708V98.375C185.575 97.8916 185.118 97.6499 184.488 97.6499C183.98 97.6499 183.58 97.8574 183.287 98.2725C182.999 98.6875 182.855 99.3076 182.855 100.133ZM194.068 98.0601C193.78 98.021 193.526 98.0015 193.307 98.0015C192.506 98.0015 191.981 98.2725 191.732 98.8145V104H189.615V96.0752H191.615L191.673 97.02C192.098 96.2925 192.687 95.9287 193.438 95.9287C193.673 95.9287 193.893 95.9604 194.098 96.0239L194.068 98.0601ZM194.5 99.9644C194.5 99.1782 194.652 98.4775 194.955 97.8623C195.257 97.2471 195.692 96.771 196.258 96.4341C196.83 96.0972 197.491 95.9287 198.243 95.9287C199.312 95.9287 200.184 96.2559 200.858 96.9102C201.537 97.5645 201.915 98.4531 201.993 99.5762L202.008 100.118C202.008 101.334 201.668 102.311 200.99 103.048C200.311 103.78 199.4 104.146 198.258 104.146C197.115 104.146 196.202 103.78 195.519 103.048C194.84 102.315 194.5 101.319 194.5 100.06V99.9644ZM196.617 100.118C196.617 100.87 196.759 101.446 197.042 101.847C197.325 102.242 197.73 102.44 198.258 102.44C198.771 102.44 199.171 102.245 199.459 101.854C199.747 101.458 199.891 100.829 199.891 99.9644C199.891 99.2271 199.747 98.6558 199.459 98.2505C199.171 97.8452 198.766 97.6426 198.243 97.6426C197.726 97.6426 197.325 97.8452 197.042 98.2505C196.759 98.6509 196.617 99.2734 196.617 100.118ZM210.204 101.122L211.244 96.0752H213.287L211.266 104H209.493L207.992 99.0122L206.49 104H204.725L202.704 96.0752H204.747L205.78 101.114L207.23 96.0752H208.761L210.204 101.122Z" fill="white"/>
<path d="M183.58 128H180.758V117.121L177.389 118.166V115.871L183.277 113.762H183.58V128Z" fill="#FFF000"/>
<path d="M267.594 94.3906C267.174 94.3418 266.784 94.3174 266.422 94.3174C265.465 94.3174 264.987 94.7251 264.987 95.5405V96.0752H266.562V97.6279H264.987V104H262.863V97.6279H261.684V96.0752H262.863V95.46C262.873 94.542 263.161 93.8364 263.727 93.3433C264.293 92.8452 265.094 92.5962 266.129 92.5962C266.867 92.5962 268.063 92.6743 269.718 92.8306V104H267.594V94.3906ZM275.131 104.146C273.969 104.146 273.021 103.79 272.289 103.077C271.562 102.364 271.198 101.415 271.198 100.228V100.023C271.198 99.2271 271.352 98.5166 271.659 97.8916C271.967 97.2617 272.401 96.7783 272.963 96.4414C273.529 96.0996 274.174 95.9287 274.896 95.9287C275.98 95.9287 276.833 96.2705 277.453 96.9541C278.078 97.6377 278.39 98.6069 278.39 99.8618V100.726H273.344C273.412 101.244 273.617 101.659 273.959 101.971C274.306 102.284 274.743 102.44 275.27 102.44C276.085 102.44 276.723 102.145 277.182 101.554L278.222 102.718C277.904 103.167 277.475 103.519 276.933 103.773C276.391 104.022 275.79 104.146 275.131 104.146ZM274.889 97.6426C274.469 97.6426 274.127 97.7842 273.864 98.0674C273.605 98.3506 273.439 98.7559 273.366 99.2832H276.31V99.1147C276.3 98.646 276.173 98.2847 275.929 98.0308C275.685 97.772 275.338 97.6426 274.889 97.6426ZM282.616 98.4409L283.949 96.0752H286.212L283.957 99.957L286.308 104H284.037L282.624 101.51L281.217 104H278.939L281.291 99.957L279.042 96.0752H281.312L282.616 98.4409ZM291.347 100.287H287.223V98.5801H291.347V100.287ZM292.738 99.979C292.738 98.7632 293.026 97.7842 293.603 97.042C294.184 96.2998 294.965 95.9287 295.946 95.9287C296.815 95.9287 297.492 96.2266 297.975 96.8223L298.063 96.0752H299.982V103.736C299.982 104.43 299.823 105.033 299.506 105.545C299.193 106.058 298.751 106.449 298.18 106.717C297.609 106.986 296.94 107.12 296.173 107.12C295.592 107.12 295.026 107.003 294.474 106.769C293.922 106.539 293.505 106.241 293.222 105.875L294.159 104.586C294.687 105.177 295.326 105.472 296.078 105.472C296.64 105.472 297.077 105.321 297.389 105.018C297.702 104.72 297.858 104.295 297.858 103.744V103.319C297.37 103.871 296.728 104.146 295.932 104.146C294.979 104.146 294.208 103.775 293.617 103.033C293.031 102.286 292.738 101.297 292.738 100.067V99.979ZM294.855 100.133C294.855 100.851 294.999 101.415 295.287 101.825C295.575 102.23 295.971 102.433 296.474 102.433C297.118 102.433 297.58 102.191 297.858 101.708V98.375C297.575 97.8916 297.118 97.6499 296.488 97.6499C295.98 97.6499 295.58 97.8574 295.287 98.2725C294.999 98.6875 294.855 99.3076 294.855 100.133ZM306.068 98.0601C305.78 98.021 305.526 98.0015 305.307 98.0015C304.506 98.0015 303.981 98.2725 303.732 98.8145V104H301.615V96.0752H303.615L303.673 97.02C304.098 96.2925 304.687 95.9287 305.438 95.9287C305.673 95.9287 305.893 95.9604 306.098 96.0239L306.068 98.0601ZM306.5 99.9644C306.5 99.1782 306.652 98.4775 306.955 97.8623C307.257 97.2471 307.692 96.771 308.258 96.4341C308.83 96.0972 309.491 95.9287 310.243 95.9287C311.312 95.9287 312.184 96.2559 312.858 96.9102C313.537 97.5645 313.915 98.4531 313.993 99.5762L314.008 100.118C314.008 101.334 313.668 102.311 312.99 103.048C312.311 103.78 311.4 104.146 310.258 104.146C309.115 104.146 308.202 103.78 307.519 103.048C306.84 102.315 306.5 101.319 306.5 100.06V99.9644ZM308.617 100.118C308.617 100.87 308.759 101.446 309.042 101.847C309.325 102.242 309.73 102.44 310.258 102.44C310.771 102.44 311.171 102.245 311.459 101.854C311.747 101.458 311.891 100.829 311.891 99.9644C311.891 99.2271 311.747 98.6558 311.459 98.2505C311.171 97.8452 310.766 97.6426 310.243 97.6426C309.726 97.6426 309.325 97.8452 309.042 98.2505C308.759 98.6509 308.617 99.2734 308.617 100.118ZM322.204 101.122L323.244 96.0752H325.287L323.266 104H321.493L319.992 99.0122L318.49 104H316.725L314.704 96.0752H316.747L317.78 101.114L319.23 96.0752H320.761L322.204 101.122Z" fill="white"/>
<path d="M295.58 128H292.758V117.121L289.389 118.166V115.871L295.277 113.762H295.58V128Z" fill="#FFF000"/>
<path d="M379.594 94.3906C379.174 94.3418 378.784 94.3174 378.422 94.3174C377.465 94.3174 376.987 94.7251 376.987 95.5405V96.0752H378.562V97.6279H376.987V104H374.863V97.6279H373.684V96.0752H374.863V95.46C374.873 94.542 375.161 93.8364 375.727 93.3433C376.293 92.8452 377.094 92.5962 378.129 92.5962C378.867 92.5962 380.063 92.6743 381.718 92.8306V104H379.594V94.3906ZM387.131 104.146C385.969 104.146 385.021 103.79 384.289 103.077C383.562 102.364 383.198 101.415 383.198 100.228V100.023C383.198 99.2271 383.352 98.5166 383.659 97.8916C383.967 97.2617 384.401 96.7783 384.963 96.4414C385.529 96.0996 386.174 95.9287 386.896 95.9287C387.98 95.9287 388.833 96.2705 389.453 96.9541C390.078 97.6377 390.39 98.6069 390.39 99.8618V100.726H385.344C385.412 101.244 385.617 101.659 385.959 101.971C386.306 102.284 386.743 102.44 387.27 102.44C388.085 102.44 388.723 102.145 389.182 101.554L390.222 102.718C389.904 103.167 389.475 103.519 388.933 103.773C388.391 104.022 387.79 104.146 387.131 104.146ZM386.889 97.6426C386.469 97.6426 386.127 97.7842 385.864 98.0674C385.605 98.3506 385.439 98.7559 385.366 99.2832H388.31V99.1147C388.3 98.646 388.173 98.2847 387.929 98.0308C387.685 97.772 387.338 97.6426 386.889 97.6426ZM394.616 98.4409L395.949 96.0752H398.212L395.957 99.957L398.308 104H396.037L394.624 101.51L393.217 104H390.939L393.291 99.957L391.042 96.0752H393.312L394.616 98.4409ZM403.347 100.287H399.223V98.5801H403.347V100.287ZM404.738 99.979C404.738 98.7632 405.026 97.7842 405.603 97.042C406.184 96.2998 406.965 95.9287 407.946 95.9287C408.815 95.9287 409.492 96.2266 409.975 96.8223L410.063 96.0752H411.982V103.736C411.982 104.43 411.823 105.033 411.506 105.545C411.193 106.058 410.751 106.449 410.18 106.717C409.609 106.986 408.94 107.12 408.173 107.12C407.592 107.12 407.026 107.003 406.474 106.769C405.922 106.539 405.505 106.241 405.222 105.875L406.159 104.586C406.687 105.177 407.326 105.472 408.078 105.472C408.64 105.472 409.077 105.321 409.389 105.018C409.702 104.72 409.858 104.295 409.858 103.744V103.319C409.37 103.871 408.728 104.146 407.932 104.146C406.979 104.146 406.208 103.775 405.617 103.033C405.031 102.286 404.738 101.297 404.738 100.067V99.979ZM406.855 100.133C406.855 100.851 406.999 101.415 407.287 101.825C407.575 102.23 407.971 102.433 408.474 102.433C409.118 102.433 409.58 102.191 409.858 101.708V98.375C409.575 97.8916 409.118 97.6499 408.488 97.6499C407.98 97.6499 407.58 97.8574 407.287 98.2725C406.999 98.6875 406.855 99.3076 406.855 100.133ZM418.068 98.0601C417.78 98.021 417.526 98.0015 417.307 98.0015C416.506 98.0015 415.981 98.2725 415.732 98.8145V104H413.615V96.0752H415.615L415.673 97.02C416.098 96.2925 416.687 95.9287 417.438 95.9287C417.673 95.9287 417.893 95.9604 418.098 96.0239L418.068 98.0601ZM418.5 99.9644C418.5 99.1782 418.652 98.4775 418.955 97.8623C419.257 97.2471 419.692 96.771 420.258 96.4341C420.83 96.0972 421.491 95.9287 422.243 95.9287C423.312 95.9287 424.184 96.2559 424.858 96.9102C425.537 97.5645 425.915 98.4531 425.993 99.5762L426.008 100.118C426.008 101.334 425.668 102.311 424.99 103.048C424.311 103.78 423.4 104.146 422.258 104.146C421.115 104.146 420.202 103.78 419.519 103.048C418.84 102.315 418.5 101.319 418.5 100.06V99.9644ZM420.617 100.118C420.617 100.87 420.759 101.446 421.042 101.847C421.325 102.242 421.73 102.44 422.258 102.44C422.771 102.44 423.171 102.245 423.459 101.854C423.747 101.458 423.891 100.829 423.891 99.9644C423.891 99.2271 423.747 98.6558 423.459 98.2505C423.171 97.8452 422.766 97.6426 422.243 97.6426C421.726 97.6426 421.325 97.8452 421.042 98.2505C420.759 98.6509 420.617 99.2734 420.617 100.118ZM434.204 101.122L435.244 96.0752H437.287L435.266 104H433.493L431.992 99.0122L430.49 104H428.725L426.704 96.0752H428.747L429.78 101.114L431.23 96.0752H432.761L434.204 101.122Z" fill="white"/>
<path d="M407.58 128H404.758V117.121L401.389 118.166V115.871L407.277 113.762H407.58V128Z" fill="#FFF000"/>
<path d="M490.594 94.3906C490.174 94.3418 489.784 94.3174 489.422 94.3174C488.465 94.3174 487.987 94.7251 487.987 95.5405V96.0752H489.562V97.6279H487.987V104H485.863V97.6279H484.684V96.0752H485.863V95.46C485.873 94.542 486.161 93.8364 486.727 93.3433C487.293 92.8452 488.094 92.5962 489.129 92.5962C489.867 92.5962 491.063 92.6743 492.718 92.8306V104H490.594V94.3906ZM498.131 104.146C496.969 104.146 496.021 103.79 495.289 103.077C494.562 102.364 494.198 101.415 494.198 100.228V100.023C494.198 99.2271 494.352 98.5166 494.659 97.8916C494.967 97.2617 495.401 96.7783 495.963 96.4414C496.529 96.0996 497.174 95.9287 497.896 95.9287C498.98 95.9287 499.833 96.2705 500.453 96.9541C501.078 97.6377 501.39 98.6069 501.39 99.8618V100.726H496.344C496.412 101.244 496.617 101.659 496.959 101.971C497.306 102.284 497.743 102.44 498.27 102.44C499.085 102.44 499.723 102.145 500.182 101.554L501.222 102.718C500.904 103.167 500.475 103.519 499.933 103.773C499.391 104.022 498.79 104.146 498.131 104.146ZM497.889 97.6426C497.469 97.6426 497.127 97.7842 496.864 98.0674C496.605 98.3506 496.439 98.7559 496.366 99.2832H499.31V99.1147C499.3 98.646 499.173 98.2847 498.929 98.0308C498.685 97.772 498.338 97.6426 497.889 97.6426ZM505.616 98.4409L506.949 96.0752H509.212L506.957 99.957L509.308 104H507.037L505.624 101.51L504.217 104H501.939L504.291 99.957L502.042 96.0752H504.312L505.616 98.4409ZM514.347 100.287H510.223V98.5801H514.347V100.287ZM515.738 99.979C515.738 98.7632 516.026 97.7842 516.603 97.042C517.184 96.2998 517.965 95.9287 518.946 95.9287C519.815 95.9287 520.492 96.2266 520.975 96.8223L521.063 96.0752H522.982V103.736C522.982 104.43 522.823 105.033 522.506 105.545C522.193 106.058 521.751 106.449 521.18 106.717C520.609 106.986 519.94 107.12 519.173 107.12C518.592 107.12 518.026 107.003 517.474 106.769C516.922 106.539 516.505 106.241 516.222 105.875L517.159 104.586C517.687 105.177 518.326 105.472 519.078 105.472C519.64 105.472 520.077 105.321 520.389 105.018C520.702 104.72 520.858 104.295 520.858 103.744V103.319C520.37 103.871 519.728 104.146 518.932 104.146C517.979 104.146 517.208 103.775 516.617 103.033C516.031 102.286 515.738 101.297 515.738 100.067V99.979ZM517.855 100.133C517.855 100.851 517.999 101.415 518.287 101.825C518.575 102.23 518.971 102.433 519.474 102.433C520.118 102.433 520.58 102.191 520.858 101.708V98.375C520.575 97.8916 520.118 97.6499 519.488 97.6499C518.98 97.6499 518.58 97.8574 518.287 98.2725C517.999 98.6875 517.855 99.3076 517.855 100.133ZM529.068 98.0601C528.78 98.021 528.526 98.0015 528.307 98.0015C527.506 98.0015 526.981 98.2725 526.732 98.8145V104H524.615V96.0752H526.615L526.673 97.02C527.098 96.2925 527.687 95.9287 528.438 95.9287C528.673 95.9287 528.893 95.9604 529.098 96.0239L529.068 98.0601ZM529.5 99.9644C529.5 99.1782 529.652 98.4775 529.955 97.8623C530.257 97.2471 530.692 96.771 531.258 96.4341C531.83 96.0972 532.491 95.9287 533.243 95.9287C534.312 95.9287 535.184 96.2559 535.858 96.9102C536.537 97.5645 536.915 98.4531 536.993 99.5762L537.008 100.118C537.008 101.334 536.668 102.311 535.99 103.048C535.311 103.78 534.4 104.146 533.258 104.146C532.115 104.146 531.202 103.78 530.519 103.048C529.84 102.315 529.5 101.319 529.5 100.06V99.9644ZM531.617 100.118C531.617 100.87 531.759 101.446 532.042 101.847C532.325 102.242 532.73 102.44 533.258 102.44C533.771 102.44 534.171 102.245 534.459 101.854C534.747 101.458 534.891 100.829 534.891 99.9644C534.891 99.2271 534.747 98.6558 534.459 98.2505C534.171 97.8452 533.766 97.6426 533.243 97.6426C532.726 97.6426 532.325 97.8452 532.042 98.2505C531.759 98.6509 531.617 99.2734 531.617 100.118ZM545.204 101.122L546.244 96.0752H548.287L546.266 104H544.493L542.992 99.0122L541.49 104H539.725L537.704 96.0752H539.747L540.78 101.114L542.23 96.0752H543.761L545.204 101.122Z" fill="white"/>
<path d="M518.58 128H515.758V117.121L512.389 118.166V115.871L518.277 113.762H518.58V128Z" fill="#FFF000"/>
<path d="M126 80V140" stroke="white" stroke-dasharray="4 2"/>
<path d="M239 80V140" stroke="white" stroke-dasharray="4 2"/>
<path d="M350 80V140" stroke="white" stroke-dasharray="4 2"/>
<path d="M462 80V140" stroke="white" stroke-dasharray="4 2"/>
<defs>
<filter id="filter0_d" x="20" y="20" width="105.6" height="56" filterUnits="userSpaceOnUse" color-interpolation-filters="sRGB">
<feFlood flood-opacity="0" result="BackgroundImageFix"/>
<feColorMatrix in="SourceAlpha" type="matrix" values="0 0 0 0 0 0 0 0 0 0 0 0 0 0 0 0 0 0 127 0"/>
<feOffset dx="6" dy="6"/>
<feColorMatrix type="matrix" values="0 0 0 0 0 0 0 0 0 0 0 0 0 0 0 0 0 0 0.15 0"/>
<feBlend mode="normal" in2="BackgroundImageFix" result="effect1_dropShadow"/>
<feBlend mode="normal" in="SourceGraphic" in2="effect1_dropShadow" result="shape"/>
</filter>
<filter id="filter1_d" x="131.6" y="20" width="105.6" height="56" filterUnits="userSpaceOnUse" color-interpolation-filters="sRGB">
<feFlood flood-opacity="0" result="BackgroundImageFix"/>
<feColorMatrix in="SourceAlpha" type="matrix" values="0 0 0 0 0 0 0 0 0 0 0 0 0 0 0 0 0 0 127 0"/>
<feOffset dx="6" dy="6"/>
<feColorMatrix type="matrix" values="0 0 0 0 0 0 0 0 0 0 0 0 0 0 0 0 0 0 0.15 0"/>
<feBlend mode="normal" in2="BackgroundImageFix" result="effect1_dropShadow"/>
<feBlend mode="normal" in="SourceGraphic" in2="effect1_dropShadow" result="shape"/>
</filter>
<filter id="filter2_d" x="243.2" y="20" width="105.6" height="56" filterUnits="userSpaceOnUse" color-interpolation-filters="sRGB">
<feFlood flood-opacity="0" result="BackgroundImageFix"/>
<feColorMatrix in="SourceAlpha" type="matrix" values="0 0 0 0 0 0 0 0 0 0 0 0 0 0 0 0 0 0 127 0"/>
<feOffset dx="6" dy="6"/>
<feColorMatrix type="matrix" values="0 0 0 0 0 0 0 0 0 0 0 0 0 0 0 0 0 0 0.15 0"/>
<feBlend mode="normal" in2="BackgroundImageFix" result="effect1_dropShadow"/>
<feBlend mode="normal" in="SourceGraphic" in2="effect1_dropShadow" result="shape"/>
</filter>
<filter id="filter3_d" x="354.8" y="20" width="105.6" height="56" filterUnits="userSpaceOnUse" color-interpolation-filters="sRGB">
<feFlood flood-opacity="0" result="BackgroundImageFix"/>
<feColorMatrix in="SourceAlpha" type="matrix" values="0 0 0 0 0 0 0 0 0 0 0 0 0 0 0 0 0 0 127 0"/>
<feOffset dx="6" dy="6"/>
<feColorMatrix type="matrix" values="0 0 0 0 0 0 0 0 0 0 0 0 0 0 0 0 0 0 0.15 0"/>
<feBlend mode="normal" in2="BackgroundImageFix" result="effect1_dropShadow"/>
<feBlend mode="normal" in="SourceGraphic" in2="effect1_dropShadow" result="shape"/>
</filter>
<filter id="filter4_d" x="466.4" y="20" width="105.6" height="56" filterUnits="userSpaceOnUse" color-interpolation-filters="sRGB">
<feFlood flood-opacity="0" result="BackgroundImageFix"/>
<feColorMatrix in="SourceAlpha" type="matrix" values="0 0 0 0 0 0 0 0 0 0 0 0 0 0 0 0 0 0 127 0"/>
<feOffset dx="6" dy="6"/>
<feColorMatrix type="matrix" values="0 0 0 0 0 0 0 0 0 0 0 0 0 0 0 0 0 0 0.15 0"/>
<feBlend mode="normal" in2="BackgroundImageFix" result="effect1_dropShadow"/>
<feBlend mode="normal" in="SourceGraphic" in2="effect1_dropShadow" result="shape"/>
</filter>
</defs>
</svg>
