<svg width="350" height="207" viewBox="0 0 350 207" fill="none" xmlns="http://www.w3.org/2000/svg">
<rect x="1" y="27" width="348" height="179" rx="5" fill="#F7F7F7" stroke="#AAAAAA" stroke-width="2" stroke-dasharray="6 4"/>
<path d="M5.63965 3.81934C5.1748 3.75553 4.77376 3.72363 4.43652 3.72363C3.54329 3.72363 3.09668 4.1429 3.09668 4.98145V5.60352H4.60059V6.83398H3.09668V13H1.43555V6.83398H0.307617V5.60352H1.43555V4.94043C1.4401 4.10645 1.6862 3.46842 2.17383 3.02637C2.66602 2.57975 3.35872 2.35645 4.25195 2.35645C4.80794 2.35645 5.82422 2.46582 7.30078 2.68457V13H5.63965V3.81934ZM12.3936 13.1367C11.3408 13.1367 10.4863 12.8063 9.83008 12.1455C9.17839 11.4801 8.85254 10.596 8.85254 9.49316V9.28809C8.85254 8.5498 8.99382 7.89128 9.27637 7.3125C9.56348 6.72917 9.96452 6.27572 10.4795 5.95215C10.9945 5.62858 11.5687 5.4668 12.2021 5.4668C13.2093 5.4668 13.9863 5.78809 14.5332 6.43066C15.0846 7.07324 15.3604 7.98242 15.3604 9.1582V9.82812H10.5273C10.5775 10.4388 10.7803 10.9219 11.1357 11.2773C11.4958 11.6328 11.9469 11.8105 12.4893 11.8105C13.2503 11.8105 13.8701 11.5029 14.3486 10.8877L15.2441 11.7422C14.9479 12.1842 14.5514 12.5283 14.0547 12.7744C13.5625 13.016 13.0088 13.1367 12.3936 13.1367ZM12.1953 6.7998C11.7396 6.7998 11.3704 6.95931 11.0879 7.27832C10.8099 7.59733 10.6322 8.04167 10.5547 8.61133H13.7197V8.48828C13.6833 7.93229 13.5352 7.51302 13.2754 7.23047C13.0156 6.94336 12.6556 6.7998 12.1953 6.7998ZM19.3115 8.03711L20.7197 5.60352H22.5654L20.3027 9.24707L22.6406 13H20.8086L19.332 10.4707L17.8623 13H16.0166L18.3545 9.24707L16.0986 5.60352H17.9307L19.3115 8.03711ZM30.2217 11.8105C30.6364 11.8105 30.9805 11.6898 31.2539 11.4482C31.5273 11.2067 31.6732 10.9082 31.6914 10.5527H33.2568C33.2386 11.013 33.0951 11.4437 32.8262 11.8447C32.5573 12.2412 32.1927 12.5557 31.7324 12.7881C31.2721 13.0205 30.7754 13.1367 30.2422 13.1367C29.2077 13.1367 28.3874 12.8018 27.7812 12.1318C27.1751 11.4619 26.8721 10.5368 26.8721 9.35645V9.18555C26.8721 8.0599 27.1729 7.15983 27.7744 6.48535C28.376 5.80632 29.1963 5.4668 30.2354 5.4668C31.1149 5.4668 31.8304 5.72428 32.3818 6.23926C32.9378 6.74967 33.2295 7.42188 33.2568 8.25586H31.6914C31.6732 7.83203 31.5273 7.4834 31.2539 7.20996C30.985 6.93652 30.641 6.7998 30.2217 6.7998C29.6839 6.7998 29.2692 6.99577 28.9775 7.3877C28.6859 7.77507 28.5378 8.36523 28.5332 9.1582V9.4248C28.5332 10.2269 28.6768 10.8262 28.9639 11.2227C29.2555 11.6146 29.6748 11.8105 30.2217 11.8105ZM34.2002 9.2334C34.2002 8.50879 34.3438 7.8571 34.6309 7.27832C34.918 6.69499 35.3213 6.24837 35.8408 5.93848C36.3604 5.62402 36.9574 5.4668 37.6318 5.4668C38.6299 5.4668 39.4388 5.78809 40.0586 6.43066C40.6829 7.07324 41.0202 7.92546 41.0703 8.9873L41.0771 9.37695C41.0771 10.1061 40.9359 10.7578 40.6533 11.332C40.3753 11.9062 39.9743 12.3506 39.4502 12.665C38.9307 12.9795 38.3291 13.1367 37.6455 13.1367C36.6019 13.1367 35.7656 12.7904 35.1367 12.0977C34.5124 11.4004 34.2002 10.473 34.2002 9.31543V9.2334ZM35.8613 9.37695C35.8613 10.138 36.0186 10.735 36.333 11.168C36.6475 11.5964 37.085 11.8105 37.6455 11.8105C38.2061 11.8105 38.6413 11.5918 38.9512 11.1543C39.2656 10.7168 39.4229 10.0765 39.4229 9.2334C39.4229 8.486 39.2611 7.89355 38.9375 7.45605C38.6185 7.01855 38.1833 6.7998 37.6318 6.7998C37.0895 6.7998 36.6589 7.01628 36.3398 7.44922C36.0208 7.8776 35.8613 8.52018 35.8613 9.37695ZM44.0234 5.60352L44.0713 6.45801C44.6182 5.7972 45.3359 5.4668 46.2246 5.4668C47.765 5.4668 48.5488 6.34863 48.5762 8.1123V13H46.915V8.20801C46.915 7.73861 46.8125 7.39225 46.6074 7.16895C46.4069 6.94108 46.0765 6.82715 45.6162 6.82715C44.9463 6.82715 44.4473 7.13021 44.1191 7.73633V13H42.458V5.60352H44.0234ZM52.3564 3.80566V5.60352H53.6621V6.83398H52.3564V10.9629C52.3564 11.2454 52.4111 11.4505 52.5205 11.5781C52.6344 11.7012 52.835 11.7627 53.1221 11.7627C53.3135 11.7627 53.5072 11.7399 53.7031 11.6943V12.9795C53.3249 13.0843 52.9603 13.1367 52.6094 13.1367C51.3333 13.1367 50.6953 12.4326 50.6953 11.0244V6.83398H49.4785V5.60352H50.6953V3.80566H52.3564ZM59.3564 13C59.2835 12.8587 59.2197 12.6286 59.165 12.3096C58.6364 12.861 57.9893 13.1367 57.2236 13.1367C56.4808 13.1367 55.8747 12.9248 55.4053 12.501C54.9359 12.0771 54.7012 11.5531 54.7012 10.9287C54.7012 10.1403 54.9928 9.53646 55.5762 9.11719C56.1641 8.69336 57.0026 8.48145 58.0918 8.48145H59.1104V7.99609C59.1104 7.61328 59.0033 7.30794 58.7891 7.08008C58.5749 6.84766 58.249 6.73145 57.8115 6.73145C57.4333 6.73145 57.1234 6.82715 56.8818 7.01855C56.6403 7.2054 56.5195 7.44466 56.5195 7.73633H54.8584C54.8584 7.33073 54.9928 6.95247 55.2617 6.60156C55.5306 6.24609 55.8952 5.9681 56.3555 5.76758C56.8203 5.56706 57.3376 5.4668 57.9072 5.4668C58.7731 5.4668 59.4635 5.68555 59.9785 6.12305C60.4935 6.55599 60.7578 7.16667 60.7715 7.95508V11.291C60.7715 11.9564 60.8649 12.4873 61.0518 12.8838V13H59.3564ZM57.5312 11.8037C57.8594 11.8037 58.167 11.724 58.4541 11.5645C58.7458 11.4049 58.9645 11.1908 59.1104 10.9219V9.52734H58.2148C57.5996 9.52734 57.137 9.63444 56.8271 9.84863C56.5173 10.0628 56.3623 10.3659 56.3623 10.7578C56.3623 11.0768 56.4671 11.332 56.6768 11.5234C56.891 11.7103 57.1758 11.8037 57.5312 11.8037ZM64.2783 13H62.6172V5.60352H64.2783V13ZM62.5146 3.68262C62.5146 3.42741 62.5944 3.21549 62.7539 3.04688C62.918 2.87826 63.1504 2.79395 63.4512 2.79395C63.752 2.79395 63.9844 2.87826 64.1484 3.04688C64.3125 3.21549 64.3945 3.42741 64.3945 3.68262C64.3945 3.93327 64.3125 4.1429 64.1484 4.31152C63.9844 4.47559 63.752 4.55762 63.4512 4.55762C63.1504 4.55762 62.918 4.47559 62.7539 4.31152C62.5944 4.1429 62.5146 3.93327 62.5146 3.68262ZM67.6348 5.60352L67.6826 6.45801C68.2295 5.7972 68.9473 5.4668 69.8359 5.4668C71.3763 5.4668 72.1602 6.34863 72.1875 8.1123V13H70.5264V8.20801C70.5264 7.73861 70.4238 7.39225 70.2188 7.16895C70.0182 6.94108 69.6878 6.82715 69.2275 6.82715C68.5576 6.82715 68.0586 7.13021 67.7305 7.73633V13H66.0693V5.60352H67.6348ZM77.1436 13.1367C76.0908 13.1367 75.2363 12.8063 74.5801 12.1455C73.9284 11.4801 73.6025 10.596 73.6025 9.49316V9.28809C73.6025 8.5498 73.7438 7.89128 74.0264 7.3125C74.3135 6.72917 74.7145 6.27572 75.2295 5.95215C75.7445 5.62858 76.3187 5.4668 76.9521 5.4668C77.9593 5.4668 78.7363 5.78809 79.2832 6.43066C79.8346 7.07324 80.1104 7.98242 80.1104 9.1582V9.82812H75.2773C75.3275 10.4388 75.5303 10.9219 75.8857 11.2773C76.2458 11.6328 76.6969 11.8105 77.2393 11.8105C78.0003 11.8105 78.6201 11.5029 79.0986 10.8877L79.9941 11.7422C79.6979 12.1842 79.3014 12.5283 78.8047 12.7744C78.3125 13.016 77.7588 13.1367 77.1436 13.1367ZM76.9453 6.7998C76.4896 6.7998 76.1204 6.95931 75.8379 7.27832C75.5599 7.59733 75.3822 8.04167 75.3047 8.61133H78.4697V8.48828C78.4333 7.93229 78.2852 7.51302 78.0254 7.23047C77.7656 6.94336 77.4056 6.7998 76.9453 6.7998ZM85.2783 7.12109C85.0596 7.08464 84.834 7.06641 84.6016 7.06641C83.8405 7.06641 83.3278 7.35807 83.0635 7.94141V13H81.4023V5.60352H82.9883L83.0293 6.43066C83.4303 5.78809 83.9863 5.4668 84.6973 5.4668C84.9342 5.4668 85.1302 5.4987 85.2852 5.5625L85.2783 7.12109Z" fill="#BBBBBB"/>
<g opacity="0.8">
<path d="M10 99C10 97.3431 11.3431 96 13 96H58C59.6569 96 61 97.3431 61 99V120C61 121.657 59.6569 123 58 123H13C11.3431 123 10 121.657 10 120V99Z" fill="#1E73FF"/>
<path d="M36.8052 113.46H35.0327V104.898L32.418 105.792V104.29L36.5781 102.759H36.8052V113.46Z" fill="white"/>
</g>
<g opacity="0.8">
<path d="M71 99C71 97.3431 72.3431 96 74 96H100C101.657 96 103 97.3431 103 99V120C103 121.657 101.657 123 100 123H74C72.3431 123 71 121.657 71 120V99Z" fill="#1E73FF"/>
<path d="M90.6064 113.46H83.436V112.237L86.9883 108.362C87.501 107.791 87.8647 107.315 88.0796 106.934C88.2993 106.548 88.4092 106.163 88.4092 105.777C88.4092 105.269 88.2651 104.859 87.9771 104.546C87.6938 104.234 87.3105 104.078 86.8271 104.078C86.251 104.078 85.8042 104.253 85.4868 104.605C85.1694 104.957 85.0107 105.438 85.0107 106.048H83.231C83.231 105.398 83.3774 104.815 83.6704 104.297C83.9683 103.775 84.3906 103.37 84.9375 103.082C85.4893 102.793 86.124 102.649 86.8418 102.649C87.877 102.649 88.6924 102.911 89.2881 103.433C89.8887 103.951 90.189 104.668 90.189 105.586C90.189 106.119 90.0376 106.678 89.7349 107.264C89.437 107.845 88.9463 108.506 88.2627 109.249L85.6553 112.039H90.6064V113.46Z" fill="white"/>
</g>
<g opacity="0.8">
<path d="M113 99C113 97.3431 114.343 96 116 96H163C164.657 96 166 97.3431 166 99V120C166 121.657 164.657 123 163 123H116C114.343 123 113 121.657 113 120V99Z" fill="#1E73FF"/>
<path d="M137.943 107.315H139.027C139.574 107.31 140.006 107.168 140.324 106.89C140.646 106.612 140.807 106.209 140.807 105.682C140.807 105.174 140.673 104.781 140.404 104.502C140.141 104.219 139.735 104.078 139.188 104.078C138.71 104.078 138.317 104.217 138.009 104.495C137.702 104.769 137.548 105.127 137.548 105.572H135.768C135.768 105.025 135.912 104.527 136.2 104.078C136.493 103.628 136.898 103.279 137.416 103.03C137.938 102.776 138.522 102.649 139.167 102.649C140.231 102.649 141.066 102.918 141.671 103.455C142.282 103.987 142.587 104.729 142.587 105.682C142.587 106.16 142.433 106.612 142.125 107.037C141.823 107.457 141.43 107.774 140.946 107.989C141.532 108.189 141.977 108.504 142.279 108.934C142.587 109.363 142.741 109.876 142.741 110.472C142.741 111.429 142.411 112.19 141.752 112.757C141.098 113.323 140.236 113.606 139.167 113.606C138.141 113.606 137.301 113.333 136.647 112.786C135.993 112.239 135.666 111.512 135.666 110.604H137.445C137.445 111.072 137.602 111.453 137.914 111.746C138.231 112.039 138.656 112.186 139.188 112.186C139.74 112.186 140.175 112.039 140.492 111.746C140.81 111.453 140.968 111.028 140.968 110.472C140.968 109.91 140.802 109.478 140.47 109.175C140.138 108.873 139.645 108.721 138.991 108.721H137.943V107.315Z" fill="white"/>
</g>
<g opacity="0.8">
<path d="M176 99C176 97.3431 177.343 96 179 96H205C206.657 96 208 97.3431 208 99V120C208 121.657 206.657 123 205 123H179C177.343 123 176 121.657 176 120V99Z" fill="#1E73FF"/>
<path d="M194.457 109.659H195.782V111.087H194.457V113.46H192.677V111.087H188.07L188.019 110.003L192.618 102.796H194.457V109.659ZM189.886 109.659H192.677V105.206L192.545 105.44L189.886 109.659Z" fill="white"/>
</g>
<g opacity="0.8">
<path d="M218 99C218 97.3431 219.343 96 221 96H262C263.657 96 265 97.3431 265 99V120C265 121.657 263.657 123 262 123H221C219.343 123 218 121.657 218 120V99Z" fill="#1E73FF"/>
<path d="M238.662 108.172L239.241 102.796H244.968V104.334H240.72L240.427 106.883C240.92 106.6 241.477 106.458 242.097 106.458C243.113 106.458 243.901 106.783 244.463 107.432C245.029 108.082 245.312 108.956 245.312 110.054C245.312 111.138 245 112.002 244.375 112.647C243.75 113.287 242.893 113.606 241.804 113.606C240.828 113.606 240.017 113.331 239.373 112.779C238.733 112.222 238.386 111.49 238.333 110.582H240.054C240.122 111.099 240.308 111.497 240.61 111.775C240.913 112.049 241.309 112.186 241.797 112.186C242.344 112.186 242.769 111.99 243.071 111.6C243.379 111.209 243.533 110.677 243.533 110.003C243.533 109.354 243.364 108.841 243.027 108.465C242.69 108.084 242.227 107.894 241.636 107.894C241.313 107.894 241.04 107.938 240.815 108.025C240.591 108.108 240.347 108.274 240.083 108.523L238.662 108.172Z" fill="white"/>
</g>
<g opacity="0.8">
<path d="M10 136C10 134.343 11.3431 133 13 133H51C52.6569 133 54 134.343 54 136V157C54 158.657 52.6569 160 51 160H13C11.3431 160 10 158.657 10 157V136Z" fill="#1E73FF"/>
<path d="M34.3726 139.745V141.217H34.1528C33.1567 141.231 32.3608 141.505 31.7651 142.037C31.1694 142.569 30.8154 143.324 30.7031 144.3C31.2744 143.7 32.0044 143.399 32.8931 143.399C33.8354 143.399 34.5776 143.731 35.1196 144.396C35.6665 145.06 35.9399 145.917 35.9399 146.966C35.9399 148.05 35.6201 148.929 34.9805 149.603C34.3457 150.272 33.5107 150.606 32.4756 150.606C31.4111 150.606 30.5469 150.213 29.8828 149.427C29.2236 148.641 28.894 147.611 28.894 146.336V145.729C28.894 143.858 29.3481 142.394 30.2563 141.334C31.1694 140.274 32.4805 139.745 34.1895 139.745H34.3726ZM32.4609 144.835C32.0703 144.835 31.7114 144.945 31.3843 145.165C31.062 145.384 30.8252 145.677 30.6738 146.043V146.585C30.6738 147.376 30.8398 148.006 31.1719 148.475C31.5039 148.939 31.9336 149.171 32.4609 149.171C32.9883 149.171 33.4058 148.973 33.7134 148.578C34.021 148.182 34.1748 147.662 34.1748 147.018C34.1748 146.373 34.0186 145.848 33.7061 145.443C33.3936 145.038 32.9785 144.835 32.4609 144.835Z" fill="white"/>
</g>
<g opacity="0.8">
<path d="M64 136C64 134.343 65.3431 133 67 133H139C140.657 133 142 134.343 142 136V157C142 158.657 140.657 160 139 160H67C65.3431 160 64 158.657 64 157V136Z" fill="#1E73FF"/>
<path d="M107.232 140.785L102.97 150.46H101.102L105.357 141.224H99.8423V139.796H107.232V140.785Z" fill="white"/>
</g>
<g opacity="0.8">
<path d="M152 136C152 134.343 153.343 133 155 133H193C194.657 133 196 134.343 196 136V157C196 158.657 194.657 160 193 160H155C153.343 160 152 158.657 152 157V136Z" fill="#1E73FF"/>
<path d="M177.552 142.608C177.552 143.131 177.417 143.597 177.149 144.007C176.88 144.413 176.514 144.732 176.05 144.967C176.607 145.226 177.034 145.58 177.332 146.029C177.635 146.478 177.786 146.986 177.786 147.552C177.786 148.49 177.469 149.234 176.834 149.786C176.199 150.333 175.354 150.606 174.3 150.606C173.24 150.606 172.391 150.331 171.751 149.779C171.116 149.227 170.799 148.485 170.799 147.552C170.799 146.981 170.95 146.468 171.253 146.014C171.556 145.56 171.98 145.211 172.527 144.967C172.068 144.732 171.705 144.413 171.436 144.007C171.172 143.597 171.041 143.131 171.041 142.608C171.041 141.7 171.333 140.98 171.919 140.448C172.505 139.916 173.296 139.649 174.292 139.649C175.293 139.649 176.087 139.916 176.673 140.448C177.259 140.98 177.552 141.7 177.552 142.608ZM176.006 147.464C176.006 146.937 175.848 146.512 175.53 146.19C175.218 145.863 174.803 145.699 174.285 145.699C173.768 145.699 173.353 145.86 173.04 146.183C172.732 146.505 172.579 146.932 172.579 147.464C172.579 147.987 172.73 148.404 173.033 148.717C173.34 149.029 173.763 149.186 174.3 149.186C174.837 149.186 175.254 149.034 175.552 148.731C175.855 148.429 176.006 148.006 176.006 147.464ZM175.779 142.674C175.779 142.21 175.645 141.83 175.376 141.532C175.108 141.229 174.747 141.078 174.292 141.078C173.838 141.078 173.479 141.222 173.216 141.51C172.952 141.793 172.82 142.181 172.82 142.674C172.82 143.163 172.952 143.551 173.216 143.839C173.484 144.127 173.846 144.271 174.3 144.271C174.754 144.271 175.113 144.127 175.376 143.839C175.645 143.551 175.779 143.163 175.779 142.674Z" fill="white"/>
</g>
<g opacity="0.8">
<path d="M206 136C206 134.343 207.343 133 209 133H262C263.657 133 265 134.343 265 136V157C265 158.657 263.657 160 262 160H209C207.343 160 206 158.657 206 157V136Z" fill="#1E73FF"/>
<path opacity="0.9" d="M237.632 146C237.036 146.629 236.34 146.944 235.544 146.944C234.607 146.944 233.86 146.617 233.303 145.963C232.747 145.304 232.468 144.439 232.468 143.37C232.468 142.667 232.61 142.03 232.893 141.458C233.176 140.887 233.579 140.443 234.102 140.125C234.624 139.808 235.229 139.649 235.918 139.649C236.992 139.649 237.844 140.05 238.474 140.851C239.104 141.651 239.419 142.723 239.419 144.066V144.564C239.419 146.488 238.984 147.955 238.115 148.966C237.246 149.977 235.95 150.489 234.226 150.504H234.014V149.032H234.27C235.32 149.017 236.125 148.766 236.687 148.277C237.249 147.784 237.563 147.025 237.632 146ZM235.918 145.553C236.274 145.553 236.609 145.45 236.921 145.245C237.234 145.04 237.476 144.757 237.646 144.396V143.7C237.646 142.914 237.485 142.281 237.163 141.803C236.841 141.324 236.423 141.085 235.911 141.085C235.398 141.085 234.988 141.297 234.68 141.722C234.377 142.142 234.226 142.674 234.226 143.319C234.226 143.988 234.38 144.527 234.688 144.938C234.995 145.348 235.405 145.553 235.918 145.553Z" fill="white"/>
</g>
<g opacity="0.8">
<path d="M10 173C10 171.343 11.3431 170 13 170H63.25C64.9069 170 66.25 171.343 66.25 173V194C66.25 195.657 64.9069 197 63.25 197H13C11.3431 197 10 195.657 10 194V173Z" fill="#1E73FF"/>
<path d="M35.4048 187.46H33.6323V178.898L31.0176 179.792V178.29L35.1777 176.759H35.4048V187.46ZM46.0615 182.97C46.0615 184.503 45.7734 185.661 45.1973 186.442C44.626 187.218 43.7544 187.606 42.5825 187.606C41.4302 187.606 40.561 187.228 39.9751 186.471C39.394 185.709 39.0962 184.584 39.0815 183.095V181.249C39.0815 179.716 39.3672 178.566 39.9385 177.799C40.5146 177.033 41.3911 176.649 42.5679 176.649C43.7349 176.649 44.604 177.023 45.1753 177.77C45.7515 178.517 46.0469 179.635 46.0615 181.125V182.97ZM44.2817 180.978C44.2817 179.977 44.145 179.245 43.8716 178.781C43.5981 178.312 43.1636 178.078 42.5679 178.078C41.9868 178.078 41.5596 178.3 41.2861 178.744C41.0127 179.184 40.8687 179.872 40.854 180.81V183.227C40.854 184.223 40.9932 184.965 41.2715 185.453C41.5498 185.941 41.9868 186.186 42.5825 186.186C43.1538 186.186 43.5762 185.961 43.8496 185.512C44.123 185.058 44.2671 184.35 44.2817 183.388V180.978Z" fill="white"/>
</g>
<g opacity="0.8">
<path d="M76.25 173C76.25 171.343 77.5931 170 79.25 170H129.5C131.157 170 132.5 171.343 132.5 173V194C132.5 195.657 131.157 197 129.5 197H79.25C77.5931 197 76.25 195.657 76.25 194V173Z" fill="#1E73FF"/>
<path d="M101.655 187.46H99.8823V178.898L97.2676 179.792V178.29L101.428 176.759H101.655V187.46ZM110.18 187.46H108.408V178.898L105.793 179.792V178.29L109.953 176.759H110.18V187.46Z" fill="white"/>
</g>
</svg>
