<svg width="354" height="163" viewBox="0 0 354 163" fill="none" xmlns="http://www.w3.org/2000/svg">
<rect x="1" y="27" width="298" height="108" rx="5" fill="#F7F7F7" stroke="#AAAAAA" stroke-width="2" stroke-dasharray="6 4"/>
<path d="M5.63965 3.81934C5.1748 3.75553 4.77376 3.72363 4.43652 3.72363C3.54329 3.72363 3.09668 4.1429 3.09668 4.98145V5.60352H4.60059V6.83398H3.09668V13H1.43555V6.83398H0.307617V5.60352H1.43555V4.94043C1.4401 4.10645 1.6862 3.46842 2.17383 3.02637C2.66602 2.57975 3.35872 2.35645 4.25195 2.35645C4.80794 2.35645 5.82422 2.46582 7.30078 2.68457V13H5.63965V3.81934ZM12.3936 13.1367C11.3408 13.1367 10.4863 12.8063 9.83008 12.1455C9.17839 11.4801 8.85254 10.596 8.85254 9.49316V9.28809C8.85254 8.5498 8.99382 7.89128 9.27637 7.3125C9.56348 6.72917 9.96452 6.27572 10.4795 5.95215C10.9945 5.62858 11.5687 5.4668 12.2021 5.4668C13.2093 5.4668 13.9863 5.78809 14.5332 6.43066C15.0846 7.07324 15.3604 7.98242 15.3604 9.1582V9.82812H10.5273C10.5775 10.4388 10.7803 10.9219 11.1357 11.2773C11.4958 11.6328 11.9469 11.8105 12.4893 11.8105C13.2503 11.8105 13.8701 11.5029 14.3486 10.8877L15.2441 11.7422C14.9479 12.1842 14.5514 12.5283 14.0547 12.7744C13.5625 13.016 13.0088 13.1367 12.3936 13.1367ZM12.1953 6.7998C11.7396 6.7998 11.3704 6.95931 11.0879 7.27832C10.8099 7.59733 10.6322 8.04167 10.5547 8.61133H13.7197V8.48828C13.6833 7.93229 13.5352 7.51302 13.2754 7.23047C13.0156 6.94336 12.6556 6.7998 12.1953 6.7998ZM19.3115 8.03711L20.7197 5.60352H22.5654L20.3027 9.24707L22.6406 13H20.8086L19.332 10.4707L17.8623 13H16.0166L18.3545 9.24707L16.0986 5.60352H17.9307L19.3115 8.03711ZM30.2217 11.8105C30.6364 11.8105 30.9805 11.6898 31.2539 11.4482C31.5273 11.2067 31.6732 10.9082 31.6914 10.5527H33.2568C33.2386 11.013 33.0951 11.4437 32.8262 11.8447C32.5573 12.2412 32.1927 12.5557 31.7324 12.7881C31.2721 13.0205 30.7754 13.1367 30.2422 13.1367C29.2077 13.1367 28.3874 12.8018 27.7812 12.1318C27.1751 11.4619 26.8721 10.5368 26.8721 9.35645V9.18555C26.8721 8.0599 27.1729 7.15983 27.7744 6.48535C28.376 5.80632 29.1963 5.4668 30.2354 5.4668C31.1149 5.4668 31.8304 5.72428 32.3818 6.23926C32.9378 6.74967 33.2295 7.42188 33.2568 8.25586H31.6914C31.6732 7.83203 31.5273 7.4834 31.2539 7.20996C30.985 6.93652 30.641 6.7998 30.2217 6.7998C29.6839 6.7998 29.2692 6.99577 28.9775 7.3877C28.6859 7.77507 28.5378 8.36523 28.5332 9.1582V9.4248C28.5332 10.2269 28.6768 10.8262 28.9639 11.2227C29.2555 11.6146 29.6748 11.8105 30.2217 11.8105ZM34.2002 9.2334C34.2002 8.50879 34.3438 7.8571 34.6309 7.27832C34.918 6.69499 35.3213 6.24837 35.8408 5.93848C36.3604 5.62402 36.9574 5.4668 37.6318 5.4668C38.6299 5.4668 39.4388 5.78809 40.0586 6.43066C40.6829 7.07324 41.0202 7.92546 41.0703 8.9873L41.0771 9.37695C41.0771 10.1061 40.9359 10.7578 40.6533 11.332C40.3753 11.9062 39.9743 12.3506 39.4502 12.665C38.9307 12.9795 38.3291 13.1367 37.6455 13.1367C36.6019 13.1367 35.7656 12.7904 35.1367 12.0977C34.5124 11.4004 34.2002 10.473 34.2002 9.31543V9.2334ZM35.8613 9.37695C35.8613 10.138 36.0186 10.735 36.333 11.168C36.6475 11.5964 37.085 11.8105 37.6455 11.8105C38.2061 11.8105 38.6413 11.5918 38.9512 11.1543C39.2656 10.7168 39.4229 10.0765 39.4229 9.2334C39.4229 8.486 39.2611 7.89355 38.9375 7.45605C38.6185 7.01855 38.1833 6.7998 37.6318 6.7998C37.0895 6.7998 36.6589 7.01628 36.3398 7.44922C36.0208 7.8776 35.8613 8.52018 35.8613 9.37695ZM44.0234 5.60352L44.0713 6.45801C44.6182 5.7972 45.3359 5.4668 46.2246 5.4668C47.765 5.4668 48.5488 6.34863 48.5762 8.1123V13H46.915V8.20801C46.915 7.73861 46.8125 7.39225 46.6074 7.16895C46.4069 6.94108 46.0765 6.82715 45.6162 6.82715C44.9463 6.82715 44.4473 7.13021 44.1191 7.73633V13H42.458V5.60352H44.0234ZM52.3564 3.80566V5.60352H53.6621V6.83398H52.3564V10.9629C52.3564 11.2454 52.4111 11.4505 52.5205 11.5781C52.6344 11.7012 52.835 11.7627 53.1221 11.7627C53.3135 11.7627 53.5072 11.7399 53.7031 11.6943V12.9795C53.3249 13.0843 52.9603 13.1367 52.6094 13.1367C51.3333 13.1367 50.6953 12.4326 50.6953 11.0244V6.83398H49.4785V5.60352H50.6953V3.80566H52.3564ZM59.3564 13C59.2835 12.8587 59.2197 12.6286 59.165 12.3096C58.6364 12.861 57.9893 13.1367 57.2236 13.1367C56.4808 13.1367 55.8747 12.9248 55.4053 12.501C54.9359 12.0771 54.7012 11.5531 54.7012 10.9287C54.7012 10.1403 54.9928 9.53646 55.5762 9.11719C56.1641 8.69336 57.0026 8.48145 58.0918 8.48145H59.1104V7.99609C59.1104 7.61328 59.0033 7.30794 58.7891 7.08008C58.5749 6.84766 58.249 6.73145 57.8115 6.73145C57.4333 6.73145 57.1234 6.82715 56.8818 7.01855C56.6403 7.2054 56.5195 7.44466 56.5195 7.73633H54.8584C54.8584 7.33073 54.9928 6.95247 55.2617 6.60156C55.5306 6.24609 55.8952 5.9681 56.3555 5.76758C56.8203 5.56706 57.3376 5.4668 57.9072 5.4668C58.7731 5.4668 59.4635 5.68555 59.9785 6.12305C60.4935 6.55599 60.7578 7.16667 60.7715 7.95508V11.291C60.7715 11.9564 60.8649 12.4873 61.0518 12.8838V13H59.3564ZM57.5312 11.8037C57.8594 11.8037 58.167 11.724 58.4541 11.5645C58.7458 11.4049 58.9645 11.1908 59.1104 10.9219V9.52734H58.2148C57.5996 9.52734 57.137 9.63444 56.8271 9.84863C56.5173 10.0628 56.3623 10.3659 56.3623 10.7578C56.3623 11.0768 56.4671 11.332 56.6768 11.5234C56.891 11.7103 57.1758 11.8037 57.5312 11.8037ZM64.2783 13H62.6172V5.60352H64.2783V13ZM62.5146 3.68262C62.5146 3.42741 62.5944 3.21549 62.7539 3.04688C62.918 2.87826 63.1504 2.79395 63.4512 2.79395C63.752 2.79395 63.9844 2.87826 64.1484 3.04688C64.3125 3.21549 64.3945 3.42741 64.3945 3.68262C64.3945 3.93327 64.3125 4.1429 64.1484 4.31152C63.9844 4.47559 63.752 4.55762 63.4512 4.55762C63.1504 4.55762 62.918 4.47559 62.7539 4.31152C62.5944 4.1429 62.5146 3.93327 62.5146 3.68262ZM67.6348 5.60352L67.6826 6.45801C68.2295 5.7972 68.9473 5.4668 69.8359 5.4668C71.3763 5.4668 72.1602 6.34863 72.1875 8.1123V13H70.5264V8.20801C70.5264 7.73861 70.4238 7.39225 70.2188 7.16895C70.0182 6.94108 69.6878 6.82715 69.2275 6.82715C68.5576 6.82715 68.0586 7.13021 67.7305 7.73633V13H66.0693V5.60352H67.6348ZM77.1436 13.1367C76.0908 13.1367 75.2363 12.8063 74.5801 12.1455C73.9284 11.4801 73.6025 10.596 73.6025 9.49316V9.28809C73.6025 8.5498 73.7438 7.89128 74.0264 7.3125C74.3135 6.72917 74.7145 6.27572 75.2295 5.95215C75.7445 5.62858 76.3187 5.4668 76.9521 5.4668C77.9593 5.4668 78.7363 5.78809 79.2832 6.43066C79.8346 7.07324 80.1104 7.98242 80.1104 9.1582V9.82812H75.2773C75.3275 10.4388 75.5303 10.9219 75.8857 11.2773C76.2458 11.6328 76.6969 11.8105 77.2393 11.8105C78.0003 11.8105 78.6201 11.5029 79.0986 10.8877L79.9941 11.7422C79.6979 12.1842 79.3014 12.5283 78.8047 12.7744C78.3125 13.016 77.7588 13.1367 77.1436 13.1367ZM76.9453 6.7998C76.4896 6.7998 76.1204 6.95931 75.8379 7.27832C75.5599 7.59733 75.3822 8.04167 75.3047 8.61133H78.4697V8.48828C78.4333 7.93229 78.2852 7.51302 78.0254 7.23047C77.7656 6.94336 77.4056 6.7998 76.9453 6.7998ZM85.2783 7.12109C85.0596 7.08464 84.834 7.06641 84.6016 7.06641C83.8405 7.06641 83.3278 7.35807 83.0635 7.94141V13H81.4023V5.60352H82.9883L83.0293 6.43066C83.4303 5.78809 83.9863 5.4668 84.6973 5.4668C84.9342 5.4668 85.1302 5.4987 85.2852 5.5625L85.2783 7.12109Z" fill="#BBBBBB"/>
<g opacity="0.8">
<path d="M10 39C10 37.3431 11.3431 36 13 36H67C68.6569 36 70 37.3431 70 39V93C70 94.6569 68.6569 96 67 96H13C11.3431 96 10 94.6569 10 93V39Z" fill="#1E73FF"/>
<path d="M41.855 69.8H40.0825V61.238L37.4678 62.1316V60.6301L41.6279 59.0994H41.855V69.8Z" fill="white"/>
</g>
<g opacity="0.8">
<path d="M80 39C80 37.3431 81.3431 36 83 36H137C138.657 36 140 37.3431 140 39V93C140 94.6569 138.657 96 137 96H83C81.3431 96 80 94.6569 80 93V39Z" fill="#1E73FF"/>
<path d="M114.206 69.8H107.036V68.5769L110.588 64.7024C111.101 64.1311 111.464 63.655 111.679 63.2742C111.899 62.8884 112.009 62.5027 112.009 62.1169C112.009 61.6091 111.865 61.199 111.577 60.8865C111.293 60.574 110.91 60.4177 110.427 60.4177C109.851 60.4177 109.404 60.5935 109.086 60.9451C108.769 61.2966 108.61 61.7776 108.61 62.3879H106.831C106.831 61.7385 106.977 61.155 107.27 60.6375C107.568 60.115 107.99 59.7097 108.537 59.4216C109.089 59.1335 109.724 58.9895 110.441 58.9895C111.477 58.9895 112.292 59.2507 112.888 59.7732C113.488 60.2908 113.789 61.0085 113.789 61.9265C113.789 62.4587 113.637 63.0178 113.334 63.6038C113.037 64.1848 112.546 64.8464 111.862 65.5886L109.255 68.3792H114.206V69.8Z" fill="white"/>
</g>
<g opacity="0.8">
<path d="M150 39C150 37.3431 151.343 36 153 36H207C208.657 36 210 37.3431 210 39V93C210 94.6569 208.657 96 207 96H153C151.343 96 150 94.6569 150 93V39Z" fill="#1E73FF"/>
<path d="M179.094 63.655H180.178C180.725 63.6501 181.157 63.5085 181.474 63.2302C181.796 62.9519 181.958 62.5491 181.958 62.0217C181.958 61.5139 181.823 61.1208 181.555 60.8425C181.291 60.5593 180.886 60.4177 180.339 60.4177C179.86 60.4177 179.467 60.5569 179.16 60.8352C178.852 61.1086 178.698 61.4675 178.698 61.9119H176.918C176.918 61.365 177.062 60.8669 177.351 60.4177C177.644 59.9685 178.049 59.6194 178.566 59.3704C179.089 59.1165 179.672 58.9895 180.317 58.9895C181.381 58.9895 182.216 59.2581 182.822 59.7952C183.432 60.3274 183.737 61.0696 183.737 62.0217C183.737 62.5002 183.583 62.9519 183.276 63.3767C182.973 63.7966 182.58 64.114 182.097 64.3289C182.683 64.5291 183.127 64.844 183.43 65.2737C183.737 65.7034 183.891 66.2161 183.891 66.8118C183.891 67.7688 183.562 68.5305 182.902 69.0969C182.248 69.6633 181.386 69.9465 180.317 69.9465C179.292 69.9465 178.452 69.6731 177.797 69.1262C177.143 68.5793 176.816 67.8518 176.816 66.9436H178.596C178.596 67.4124 178.752 67.7932 179.064 68.0862C179.382 68.3792 179.807 68.5256 180.339 68.5256C180.891 68.5256 181.325 68.3792 181.643 68.0862C181.96 67.7932 182.119 67.3684 182.119 66.8118C182.119 66.2502 181.953 65.8181 181.621 65.5154C181.289 65.2126 180.795 65.0613 180.141 65.0613H179.094V63.655Z" fill="white"/>
</g>
<path d="M317.707 136.128C317.317 136.519 316.683 136.519 316.293 136.128L309.929 129.764C309.538 129.374 309.538 128.741 309.929 128.35C310.319 127.96 310.953 127.96 311.343 128.35L317 134.007L322.657 128.35C323.047 127.96 323.681 127.96 324.071 128.35C324.462 128.741 324.462 129.374 324.071 129.764L317.707 136.128ZM316 135.421V132.453H318V135.421H316ZM316 128.495V122.558H318V128.495H316ZM316 118.6V112.663H318V118.6H316ZM316 108.705V102.769H318V108.705H316ZM316 98.8106V92.8738H318V98.8106H316ZM316 88.9159V82.979H318V88.9159H316ZM316 79.0211V73.0843H318V79.0211H316ZM316 69.1264V63.1896H318V69.1264H316ZM316 59.2317V53.2948H318V59.2317H316ZM316 49.3369V43.4001H318V49.3369H316ZM316 39.4422V33.5053H318V39.4422H316ZM316 29.5474V26.579H318V29.5474H316Z" fill="#1E73FF"/>
<path d="M286.573 84.4399C286.963 84.4399 287.281 84.3325 287.525 84.1177C287.769 83.9028 287.896 83.6172 287.906 83.2607H289.891C289.886 83.7979 289.739 84.291 289.451 84.7402C289.163 85.1846 288.768 85.5312 288.265 85.7803C287.767 86.0244 287.215 86.1465 286.609 86.1465C285.477 86.1465 284.583 85.7876 283.929 85.0698C283.274 84.3472 282.947 83.3511 282.947 82.0815V81.9424C282.947 80.7217 283.272 79.7476 283.921 79.02C284.571 78.2925 285.462 77.9287 286.595 77.9287C287.586 77.9287 288.379 78.2119 288.975 78.7783C289.576 79.3398 289.881 80.0894 289.891 81.0269H287.906C287.896 80.6167 287.769 80.2847 287.525 80.0308C287.281 79.772 286.958 79.6426 286.558 79.6426C286.065 79.6426 285.691 79.8232 285.438 80.1846C285.188 80.541 285.064 81.1221 285.064 81.9277V82.1475C285.064 82.9629 285.188 83.5488 285.438 83.9053C285.687 84.2617 286.065 84.4399 286.573 84.4399Z" fill="#1E73FF"/>
<path d="M295.552 80.0601C295.264 80.021 295.01 80.0015 294.791 80.0015C293.99 80.0015 293.465 80.2725 293.216 80.8145V86H291.099V78.0752H293.099L293.157 79.02C293.582 78.2925 294.17 77.9287 294.922 77.9287C295.157 77.9287 295.376 77.9604 295.582 78.0239L295.552 80.0601Z" fill="#1E73FF"/>
<path d="M295.984 81.9644C295.984 81.1782 296.136 80.4775 296.438 79.8623C296.741 79.2471 297.176 78.771 297.742 78.4341C298.313 78.0972 298.975 77.9287 299.727 77.9287C300.796 77.9287 301.668 78.2559 302.342 78.9102C303.021 79.5645 303.399 80.4531 303.477 81.5762L303.492 82.1182C303.492 83.334 303.152 84.3105 302.474 85.0479C301.795 85.7803 300.884 86.1465 299.742 86.1465C298.599 86.1465 297.686 85.7803 297.002 85.0479C296.324 84.3154 295.984 83.3193 295.984 82.0596V81.9644ZM298.101 82.1182C298.101 82.8701 298.243 83.4463 298.526 83.8467C298.809 84.2422 299.214 84.4399 299.742 84.4399C300.254 84.4399 300.655 84.2446 300.943 83.854C301.231 83.4585 301.375 82.8286 301.375 81.9644C301.375 81.2271 301.231 80.6558 300.943 80.2505C300.655 79.8452 300.25 79.6426 299.727 79.6426C299.209 79.6426 298.809 79.8452 298.526 80.2505C298.243 80.6509 298.101 81.2734 298.101 82.1182Z" fill="#1E73FF"/>
<path d="M309.087 83.8101C309.087 83.5513 308.958 83.3486 308.699 83.2021C308.445 83.0508 308.035 82.9165 307.469 82.7993C305.584 82.4038 304.642 81.603 304.642 80.397C304.642 79.6938 304.932 79.1079 305.513 78.6392C306.099 78.1655 306.863 77.9287 307.806 77.9287C308.812 77.9287 309.615 78.1655 310.215 78.6392C310.821 79.1128 311.124 79.728 311.124 80.4849H309.007C309.007 80.1821 308.909 79.9331 308.714 79.7378C308.519 79.5376 308.213 79.4375 307.798 79.4375C307.442 79.4375 307.166 79.5181 306.971 79.6792C306.775 79.8403 306.678 80.0454 306.678 80.2944C306.678 80.5288 306.788 80.7192 307.007 80.8657C307.232 81.0073 307.608 81.1318 308.135 81.2393C308.663 81.3418 309.107 81.459 309.468 81.5908C310.586 82.001 311.146 82.7114 311.146 83.7222C311.146 84.4448 310.835 85.0308 310.215 85.48C309.595 85.9243 308.794 86.1465 307.813 86.1465C307.149 86.1465 306.558 86.0293 306.041 85.7949C305.528 85.5557 305.125 85.231 304.832 84.8208C304.539 84.4058 304.393 83.959 304.393 83.4805H306.399C306.419 83.8564 306.558 84.1445 306.817 84.3447C307.076 84.5449 307.422 84.645 307.857 84.645C308.262 84.645 308.567 84.5693 308.772 84.418C308.982 84.2617 309.087 84.0591 309.087 83.8101Z" fill="#1E73FF"/>
<path d="M316.807 83.8101C316.807 83.5513 316.678 83.3486 316.419 83.2021C316.165 83.0508 315.755 82.9165 315.188 82.7993C313.304 82.4038 312.361 81.603 312.361 80.397C312.361 79.6938 312.652 79.1079 313.233 78.6392C313.819 78.1655 314.583 77.9287 315.525 77.9287C316.531 77.9287 317.334 78.1655 317.935 78.6392C318.541 79.1128 318.843 79.728 318.843 80.4849H316.727C316.727 80.1821 316.629 79.9331 316.434 79.7378C316.238 79.5376 315.933 79.4375 315.518 79.4375C315.162 79.4375 314.886 79.5181 314.69 79.6792C314.495 79.8403 314.397 80.0454 314.397 80.2944C314.397 80.5288 314.507 80.7192 314.727 80.8657C314.952 81.0073 315.328 81.1318 315.855 81.2393C316.382 81.3418 316.827 81.459 317.188 81.5908C318.306 82.001 318.865 82.7114 318.865 83.7222C318.865 84.4448 318.555 85.0308 317.935 85.48C317.315 85.9243 316.514 86.1465 315.533 86.1465C314.869 86.1465 314.278 86.0293 313.76 85.7949C313.248 85.5557 312.845 85.231 312.552 84.8208C312.259 84.4058 312.112 83.959 312.112 83.4805H314.119C314.139 83.8564 314.278 84.1445 314.537 84.3447C314.795 84.5449 315.142 84.645 315.577 84.645C315.982 84.645 316.287 84.5693 316.492 84.418C316.702 84.2617 316.807 84.0591 316.807 83.8101Z" fill="#1E73FF"/>
<path d="M328.562 86C328.465 85.8096 328.394 85.5728 328.35 85.2896C327.837 85.8608 327.171 86.1465 326.351 86.1465C325.574 86.1465 324.93 85.9219 324.417 85.4727C323.909 85.0234 323.655 84.457 323.655 83.7734C323.655 82.9336 323.965 82.2891 324.585 81.8398C325.21 81.3906 326.111 81.1636 327.288 81.1587H328.262V80.7046C328.262 80.3384 328.167 80.0454 327.977 79.8257C327.791 79.606 327.496 79.4961 327.09 79.4961C326.734 79.4961 326.453 79.5815 326.248 79.7524C326.048 79.9233 325.948 80.1577 325.948 80.4556H323.831C323.831 79.9966 323.973 79.5718 324.256 79.1812C324.539 78.7905 324.939 78.4854 325.457 78.2656C325.975 78.041 326.556 77.9287 327.2 77.9287C328.177 77.9287 328.951 78.1753 329.522 78.6685C330.098 79.1567 330.386 79.8452 330.386 80.7339V84.1689C330.391 84.9209 330.496 85.4897 330.701 85.8755V86H328.562ZM326.812 84.5278C327.125 84.5278 327.413 84.4595 327.676 84.3228C327.94 84.1812 328.135 83.9932 328.262 83.7588V82.3965H327.471C326.412 82.3965 325.848 82.7627 325.779 83.4951L325.772 83.6196C325.772 83.8833 325.865 84.1006 326.05 84.2715C326.236 84.4424 326.49 84.5278 326.812 84.5278Z" fill="#1E73FF"/>
<path d="M335.03 80.4409L336.363 78.0752H338.626L336.37 81.957L338.721 86H336.451L335.037 83.5098L333.631 86H331.353L333.704 81.957L331.456 78.0752H333.726L335.03 80.4409Z" fill="#1E73FF"/>
<path d="M341.878 86H339.754V78.0752H341.878V86ZM339.629 76.0244C339.629 75.707 339.734 75.4458 339.944 75.2407C340.159 75.0356 340.45 74.9331 340.816 74.9331C341.177 74.9331 341.465 75.0356 341.68 75.2407C341.895 75.4458 342.002 75.707 342.002 76.0244C342.002 76.3467 341.893 76.6104 341.673 76.8154C341.458 77.0205 341.172 77.123 340.816 77.123C340.459 77.123 340.171 77.0205 339.952 76.8154C339.737 76.6104 339.629 76.3467 339.629 76.0244Z" fill="#1E73FF"/>
<path d="M347.92 83.8101C347.92 83.5513 347.791 83.3486 347.532 83.2021C347.278 83.0508 346.868 82.9165 346.302 82.7993C344.417 82.4038 343.475 81.603 343.475 80.397C343.475 79.6938 343.765 79.1079 344.346 78.6392C344.932 78.1655 345.696 77.9287 346.639 77.9287C347.645 77.9287 348.448 78.1655 349.048 78.6392C349.654 79.1128 349.957 79.728 349.957 80.4849H347.84C347.84 80.1821 347.742 79.9331 347.547 79.7378C347.352 79.5376 347.046 79.4375 346.631 79.4375C346.275 79.4375 345.999 79.5181 345.804 79.6792C345.608 79.8403 345.511 80.0454 345.511 80.2944C345.511 80.5288 345.621 80.7192 345.84 80.8657C346.065 81.0073 346.441 81.1318 346.968 81.2393C347.496 81.3418 347.94 81.459 348.301 81.5908C349.419 82.001 349.979 82.7114 349.979 83.7222C349.979 84.4448 349.668 85.0308 349.048 85.48C348.428 85.9243 347.627 86.1465 346.646 86.1465C345.982 86.1465 345.391 86.0293 344.874 85.7949C344.361 85.5557 343.958 85.231 343.665 84.8208C343.372 84.4058 343.226 83.959 343.226 83.4805H345.232C345.252 83.8564 345.391 84.1445 345.65 84.3447C345.909 84.5449 346.255 84.645 346.69 84.645C347.095 84.645 347.4 84.5693 347.605 84.418C347.815 84.2617 347.92 84.0591 347.92 83.8101Z" fill="#1E73FF"/>
<path fill-rule="evenodd" clip-rule="evenodd" d="M287.525 80.0308C287.403 79.9011 287.261 79.8039 287.099 79.7392C286.948 79.6788 286.78 79.6467 286.595 79.6429C286.583 79.6427 286.57 79.6426 286.558 79.6426C286.065 79.6426 285.691 79.8232 285.438 80.1846C285.411 80.2225 285.386 80.263 285.362 80.3061C285.273 80.469 285.203 80.6683 285.154 80.9042C285.141 80.9648 285.13 81.0278 285.12 81.0932C285.107 81.1748 285.097 81.2602 285.089 81.3494C285.072 81.5272 285.064 81.72 285.064 81.9277V82.1475C285.064 82.2166 285.065 82.284 285.067 82.3499C285.067 82.3644 285.067 82.3788 285.068 82.3932C285.078 82.692 285.107 82.9561 285.155 83.1854C285.157 83.1984 285.16 83.2113 285.163 83.224C285.21 83.437 285.274 83.619 285.355 83.7699C285.356 83.7719 285.357 83.7738 285.358 83.7758C285.383 83.8219 285.409 83.865 285.438 83.9053C285.687 84.2617 286.065 84.4399 286.573 84.4399C286.585 84.4399 286.597 84.4398 286.609 84.4396C286.788 84.4365 286.952 84.4103 287.099 84.3609C287.235 84.3156 287.357 84.2509 287.466 84.1666C287.468 84.1651 287.47 84.1636 287.471 84.1621C287.49 84.1478 287.507 84.133 287.525 84.1177C287.66 83.9988 287.759 83.8581 287.823 83.6958C287.824 83.6928 287.825 83.6897 287.826 83.6866C287.875 83.5581 287.902 83.4162 287.906 83.2607H289.891C289.89 83.2789 289.89 83.297 289.89 83.3151C289.877 83.8005 289.746 84.2495 289.499 84.6623C289.484 84.6884 289.468 84.7144 289.451 84.7402C289.386 84.8408 289.315 84.9363 289.239 85.0269C289.231 85.036 289.224 85.0451 289.216 85.0542C289.075 85.2178 288.915 85.3647 288.737 85.495C288.592 85.6012 288.434 85.6963 288.265 85.7803C288.148 85.8375 288.028 85.888 287.906 85.9318C287.836 85.9567 287.765 85.9794 287.694 86C287.502 86.055 287.304 86.0945 287.099 86.1185C286.94 86.1372 286.777 86.1465 286.609 86.1465C286.597 86.1465 286.585 86.1464 286.573 86.1464C285.457 86.1387 284.576 85.7798 283.929 85.0698C283.908 85.0473 283.888 85.0245 283.868 85.0014C283.265 84.2976 282.958 83.3463 282.948 82.1475C282.947 82.1256 282.947 82.1036 282.947 82.0815V81.9424C282.947 81.9375 282.947 81.9326 282.947 81.9277C282.95 80.7501 283.255 79.8027 283.864 79.0855C283.865 79.0842 283.867 79.0829 283.868 79.0815C283.885 79.0608 283.903 79.0403 283.921 79.02C284.564 78.3003 285.443 77.9366 286.558 77.9288C286.57 77.9288 286.582 77.9287 286.595 77.9287C286.769 77.9287 286.937 77.9375 287.099 77.955C287.32 77.9788 287.529 78.0189 287.727 78.0752C287.788 78.0924 287.847 78.1112 287.906 78.1315C288.281 78.2614 288.612 78.4539 288.9 78.709C288.904 78.713 288.909 78.717 288.913 78.7211C288.934 78.7398 288.955 78.7589 288.975 78.7783C289.035 78.8341 289.091 78.8917 289.145 78.9512C289.232 79.0473 289.312 79.1482 289.383 79.2541C289.385 79.2563 289.386 79.2585 289.388 79.2607C289.416 79.3026 289.443 79.3452 289.469 79.3886C289.712 79.7969 289.85 80.2722 289.883 80.8145C289.886 80.8688 289.889 80.9239 289.89 80.9796C289.89 80.9953 289.89 81.0111 289.891 81.0269H287.906C287.904 80.9624 287.9 80.8999 287.892 80.8394C287.862 80.5902 287.783 80.3737 287.655 80.1898C287.652 80.1852 287.649 80.1807 287.646 80.1763C287.609 80.1252 287.569 80.0767 287.525 80.0308ZM291.099 86H293.216V80.8145C293.347 80.5279 293.556 80.3172 293.842 80.1821C293.867 80.1702 293.893 80.159 293.919 80.1483C294.033 80.1018 294.159 80.0664 294.296 80.042C294.307 80.04 294.318 80.0381 294.329 80.0362C294.471 80.0131 294.625 80.0015 294.791 80.0015C294.806 80.0015 294.822 80.0016 294.839 80.0018C294.866 80.0021 294.894 80.0027 294.922 80.0037C294.938 80.0042 294.953 80.0047 294.968 80.0054C295.011 80.0072 295.054 80.0097 295.099 80.0127C295.239 80.0223 295.39 80.0381 295.552 80.0601L295.582 78.0239C295.485 77.9939 295.384 77.971 295.281 77.9552C295.271 77.9537 295.262 77.9524 295.253 77.9511C295.236 77.9488 295.22 77.9466 295.203 77.9447C295.112 77.934 295.018 77.9287 294.922 77.9287C294.878 77.9287 294.834 77.93 294.791 77.9325C294.654 77.9406 294.523 77.9613 294.398 77.9946C294.384 77.9984 294.37 78.0022 294.356 78.0063C294.289 78.0256 294.225 78.0486 294.162 78.0752C293.952 78.1634 293.761 78.2916 293.588 78.4596C293.551 78.4953 293.515 78.5328 293.48 78.5722C293.363 78.7019 293.256 78.8511 293.157 79.02L293.099 78.0752H291.099V86ZM296.925 79.1184C296.923 79.1213 296.921 79.1241 296.918 79.127C296.732 79.3448 296.573 79.5899 296.438 79.8623C296.405 79.931 296.373 80.0007 296.343 80.0714C296.251 80.2878 296.177 80.514 296.12 80.7502C296.115 80.7715 296.11 80.793 296.106 80.8145C296.048 81.0713 296.011 81.3397 295.994 81.6198C295.988 81.7327 295.984 81.8476 295.984 81.9644V82.0596C295.984 82.0686 295.984 82.0775 295.984 82.0865C295.984 82.0946 295.985 82.1026 295.985 82.1107C295.985 82.1132 295.985 82.1157 295.985 82.1182C295.989 82.5882 296.04 83.0211 296.14 83.4167C296.212 83.7025 296.309 83.9689 296.431 84.2158C296.568 84.4923 296.735 84.7445 296.934 84.9723C296.937 84.9752 296.939 84.978 296.942 84.9809C296.962 85.0034 296.982 85.0258 297.002 85.0479C297.071 85.1216 297.142 85.1916 297.216 85.2579C297.872 85.8503 298.714 86.1465 299.742 86.1465C300.167 86.1465 300.56 86.0957 300.921 85.9942C301.53 85.823 302.048 85.5076 302.474 85.0479C302.485 85.035 302.497 85.022 302.509 85.009C302.511 85.0061 302.514 85.0032 302.517 85.0003C302.547 84.9663 302.576 84.9318 302.605 84.8969C302.618 84.8813 302.631 84.8657 302.643 84.85C302.924 84.4968 303.135 84.0943 303.277 83.6427C303.293 83.5893 303.309 83.5352 303.324 83.4805C303.378 83.281 303.419 83.0724 303.447 82.8547C303.477 82.6198 303.492 82.3743 303.492 82.1182L303.477 81.5762C303.447 81.1492 303.374 80.7562 303.258 80.397C303.247 80.3625 303.235 80.3283 303.223 80.2944C303.119 79.9994 302.984 79.7281 302.819 79.4805C302.8 79.4522 302.78 79.4242 302.761 79.3965C302.692 79.2992 302.618 79.2057 302.539 79.1161C302.476 79.045 302.411 78.9764 302.342 78.9102C301.974 78.5535 301.548 78.294 301.064 78.1318C300.659 77.9964 300.213 77.9287 299.727 77.9287C299.679 77.9287 299.631 77.9294 299.583 77.9308C299.243 77.9407 298.921 77.9864 298.619 78.0676C298.306 78.1517 298.014 78.2738 297.742 78.4341C297.43 78.6199 297.158 78.848 296.925 79.1184ZM298.699 80.0425C298.697 80.0442 298.696 80.0459 298.694 80.0477C298.676 80.066 298.658 80.0849 298.641 80.1045C298.6 80.1498 298.562 80.1985 298.526 80.2505C298.424 80.394 298.341 80.566 298.276 80.7665C298.254 80.8348 298.234 80.9063 298.216 80.9812C298.161 81.2112 298.125 81.4724 298.11 81.7648C298.11 81.773 298.109 81.7813 298.109 81.7896C298.106 81.8467 298.104 81.9049 298.103 81.9644C298.102 81.9958 298.102 82.0275 298.101 82.0596C298.101 82.079 298.101 82.0985 298.101 82.1182C298.101 82.1693 298.102 82.2196 298.103 82.2692C298.111 82.5796 298.145 82.858 298.205 83.1045C298.26 83.3333 298.338 83.5346 298.438 83.7083C298.439 83.7104 298.44 83.7125 298.441 83.7146C298.468 83.7605 298.496 83.8046 298.526 83.8467C298.762 84.1767 299.084 84.3691 299.49 84.4237C299.57 84.4345 299.654 84.4399 299.742 84.4399C300.006 84.4399 300.24 84.3882 300.444 84.2847C300.637 84.1871 300.803 84.0436 300.943 83.854C300.974 83.8117 301.003 83.7668 301.03 83.7192C301.031 83.7173 301.032 83.7154 301.034 83.7134C301.075 83.6418 301.112 83.5641 301.145 83.4805C301.192 83.3655 301.231 83.2392 301.263 83.1015C301.265 83.0922 301.267 83.0828 301.27 83.0734C301.323 82.8358 301.356 82.5651 301.369 82.2614C301.369 82.2536 301.37 82.2457 301.37 82.2379C301.371 82.2172 301.371 82.1964 301.372 82.1755C301.373 82.1565 301.373 82.1374 301.373 82.1182C301.374 82.0677 301.375 82.0165 301.375 81.9644C301.375 81.9198 301.374 81.8759 301.373 81.8326C301.373 81.8244 301.373 81.8163 301.373 81.8082C301.372 81.7794 301.371 81.751 301.37 81.7228C301.368 81.6926 301.367 81.6628 301.365 81.6333C301.349 81.4002 301.318 81.1862 301.269 80.9915C301.214 80.7681 301.136 80.5699 301.037 80.397C301.021 80.3692 301.004 80.342 300.987 80.3155C300.986 80.3135 300.984 80.3115 300.983 80.3095C300.97 80.2894 300.957 80.2698 300.943 80.2505C300.858 80.1309 300.763 80.029 300.657 79.9447C300.575 79.8791 300.487 79.8241 300.393 79.7799C300.197 79.6884 299.975 79.6426 299.727 79.6426C299.669 79.6426 299.613 79.6451 299.559 79.6501C299.215 79.6817 298.928 79.8125 298.699 80.0425ZM305.513 78.6392C305.265 78.8394 305.07 79.0609 304.928 79.3039C304.894 79.3615 304.863 79.4204 304.835 79.4805C304.72 79.7309 304.656 80.0022 304.644 80.2944C304.642 80.3283 304.642 80.3625 304.642 80.397C304.642 80.8012 304.747 81.1599 304.959 81.4731C304.973 81.4939 304.988 81.5145 305.003 81.5349C305.004 81.5367 305.005 81.5386 305.007 81.5404C305.108 81.6775 305.231 81.8054 305.375 81.9243C305.389 81.9357 305.403 81.947 305.417 81.9582C305.462 81.9937 305.509 82.0285 305.557 82.0623C305.567 82.0689 305.576 82.0755 305.586 82.082C305.604 82.0942 305.622 82.1062 305.641 82.1182C305.759 82.1948 305.888 82.2669 306.028 82.3345C306.033 82.3371 306.039 82.3397 306.044 82.3423C306.052 82.3462 306.061 82.3501 306.069 82.354C306.076 82.3571 306.082 82.3601 306.089 82.3631C306.187 82.4089 306.291 82.4526 306.399 82.494C306.696 82.6073 307.031 82.7044 307.403 82.7853C307.403 82.7853 307.403 82.7853 307.403 82.7853C307.416 82.7881 307.429 82.7908 307.441 82.7935C307.45 82.7954 307.46 82.7974 307.469 82.7993C307.509 82.8076 307.548 82.816 307.587 82.8244C307.59 82.8253 307.594 82.8261 307.598 82.827C307.605 82.8284 307.611 82.8298 307.617 82.8313C307.626 82.8331 307.634 82.835 307.643 82.8369C307.696 82.849 307.748 82.8613 307.798 82.8738C307.8 82.8741 307.801 82.8744 307.802 82.8747C307.806 82.8756 307.809 82.8765 307.813 82.8774C307.814 82.8777 307.815 82.878 307.817 82.8783C307.83 82.8817 307.844 82.8851 307.857 82.8885C307.881 82.8948 307.905 82.9011 307.929 82.9074C307.993 82.9246 308.054 82.942 308.112 82.9598C308.192 82.984 308.266 83.0088 308.335 83.0342C308.389 83.0543 308.44 83.0747 308.488 83.0955C308.497 83.0995 308.506 83.1036 308.515 83.1076C308.584 83.1384 308.645 83.1699 308.699 83.2021C308.716 83.2116 308.732 83.2212 308.748 83.2311C308.781 83.2527 308.813 83.2753 308.842 83.299C308.843 83.2997 308.843 83.3004 308.844 83.3011C308.864 83.3171 308.882 83.3336 308.899 83.3506C308.939 83.3911 308.973 83.4344 309.001 83.4805C309.003 83.4841 309.005 83.4877 309.007 83.4913C309.047 83.5618 309.072 83.6388 309.082 83.7222C309.086 83.7507 309.087 83.78 309.087 83.8101C309.087 83.8405 309.086 83.8702 309.083 83.8993C309.082 83.9042 309.082 83.9091 309.081 83.9141C309.07 83.9996 309.045 84.079 309.007 84.1523C308.954 84.2522 308.876 84.3407 308.772 84.418C308.74 84.4422 308.704 84.4645 308.666 84.4849C308.581 84.5304 308.484 84.5662 308.373 84.5923C308.371 84.5928 308.369 84.5933 308.367 84.5938C308.319 84.6048 308.269 84.6141 308.217 84.6215C308.114 84.6362 308.003 84.644 307.883 84.6449C307.874 84.645 307.866 84.645 307.857 84.645C307.851 84.645 307.845 84.645 307.839 84.645C307.83 84.6449 307.822 84.6448 307.813 84.6447C307.695 84.6428 307.583 84.6333 307.479 84.6162C307.468 84.6146 307.458 84.6129 307.448 84.6111C307.426 84.607 307.404 84.6026 307.382 84.5979C307.311 84.5826 307.244 84.5636 307.18 84.5408C307.158 84.5327 307.136 84.5242 307.114 84.5152C307.112 84.5146 307.111 84.5139 307.109 84.5133C307.087 84.5043 307.066 84.4948 307.045 84.4849C306.963 84.4454 306.887 84.3987 306.817 84.3447C306.792 84.3254 306.768 84.3053 306.745 84.2844C306.74 84.2799 306.736 84.2753 306.731 84.2706C306.6 84.1454 306.508 83.9919 306.454 83.8101C306.443 83.7732 306.433 83.7351 306.426 83.6959C306.425 83.692 306.424 83.6881 306.423 83.6842C306.411 83.6194 306.403 83.5515 306.399 83.4805H304.393C304.393 83.5153 304.393 83.5501 304.395 83.5846C304.4 83.7044 304.415 83.8221 304.439 83.9378C304.504 84.2466 304.634 84.5409 304.832 84.8208C304.85 84.846 304.868 84.8708 304.887 84.8954C305.072 85.1369 305.298 85.3473 305.563 85.5264C305.637 85.576 305.713 85.6233 305.793 85.6681C305.873 85.7127 305.955 85.755 306.041 85.7949C306.156 85.8474 306.276 85.8941 306.399 85.9348C306.474 85.9594 306.55 85.9818 306.627 86.0021C306.68 86.0162 306.734 86.0292 306.788 86.0412C306.792 86.0418 306.795 86.0425 306.798 86.0432C306.859 86.0565 306.921 86.0685 306.984 86.0793C307.01 86.0838 307.037 86.0881 307.063 86.0921C307.302 86.1284 307.552 86.1465 307.813 86.1465C307.828 86.1465 307.842 86.1464 307.857 86.1463C308.147 86.1444 308.422 86.1227 308.68 86.0814C309.077 86.0179 309.436 85.9082 309.757 85.7521C309.759 85.7511 309.761 85.7502 309.763 85.7492C309.923 85.671 310.074 85.5813 310.215 85.48C310.3 85.4184 310.38 85.3542 310.453 85.2874C310.523 85.2237 310.588 85.1576 310.647 85.0892C310.807 84.9048 310.929 84.7034 311.012 84.4849C311.065 84.3454 311.102 84.199 311.124 84.0457C311.134 83.9689 311.141 83.8903 311.144 83.8101C311.145 83.781 311.146 83.7517 311.146 83.7222C311.146 83.6929 311.145 83.6638 311.144 83.635C311.142 83.5827 311.139 83.5312 311.134 83.4805C311.131 83.449 311.128 83.4178 311.124 83.3869C311.049 82.838 310.785 82.391 310.33 82.0461C310.291 82.0163 310.251 81.9874 310.209 81.9592C310.088 81.878 309.956 81.8031 309.811 81.7344C309.751 81.7056 309.688 81.6779 309.624 81.6513C309.611 81.6461 309.599 81.641 309.586 81.6359C309.547 81.6205 309.508 81.6055 309.468 81.5908C309.34 81.544 309.201 81.499 309.052 81.4558C309.037 81.4516 309.022 81.4473 309.007 81.443C308.828 81.3926 308.635 81.3447 308.427 81.2994C308.418 81.2973 308.408 81.2951 308.398 81.293C308.36 81.2848 308.321 81.2767 308.282 81.2686C308.247 81.2614 308.211 81.2542 308.175 81.2471C308.17 81.2462 308.166 81.2452 308.161 81.2443C308.152 81.2426 308.144 81.2409 308.135 81.2393C308.128 81.2377 308.12 81.2361 308.112 81.2346C308.023 81.2161 307.938 81.1971 307.857 81.1776C307.842 81.1739 307.826 81.1702 307.811 81.1664C307.81 81.166 307.808 81.1657 307.807 81.1653C307.806 81.1652 307.806 81.1651 307.806 81.165C307.803 81.1644 307.801 81.1638 307.798 81.1632C307.683 81.1341 307.577 81.1039 307.48 81.0727C307.479 81.0721 307.477 81.0715 307.475 81.071C307.466 81.068 307.457 81.065 307.448 81.0621C307.433 81.0571 307.419 81.0522 307.404 81.0472C307.396 81.0444 307.388 81.0415 307.38 81.0387C307.317 81.016 307.259 80.9928 307.205 80.9691C307.13 80.9357 307.064 80.9013 307.007 80.8657C307.002 80.8622 306.997 80.8586 306.991 80.8549C306.844 80.7525 306.748 80.6291 306.705 80.4849C306.696 80.4564 306.69 80.4271 306.685 80.397C306.68 80.3638 306.678 80.3296 306.678 80.2944C306.678 80.2292 306.684 80.1669 306.698 80.1077C306.698 80.1069 306.698 80.1061 306.698 80.1054C306.736 79.9396 306.827 79.7976 306.971 79.6792C307.032 79.6288 307.101 79.5863 307.178 79.5517C307.243 79.5223 307.314 79.4985 307.39 79.4805C307.512 79.4518 307.648 79.4375 307.798 79.4375C307.801 79.4375 307.803 79.4375 307.806 79.4375C307.84 79.4376 307.873 79.4384 307.906 79.4399C307.923 79.4406 307.94 79.4416 307.956 79.4427C308.027 79.4475 308.094 79.4557 308.158 79.4673C308.161 79.4679 308.164 79.4685 308.168 79.4691C308.186 79.4726 308.204 79.4764 308.222 79.4805C308.292 79.4965 308.358 79.517 308.418 79.542C308.43 79.547 308.442 79.5522 308.454 79.5575C308.456 79.5587 308.459 79.5599 308.462 79.5611C308.466 79.5634 308.471 79.5656 308.476 79.5679C308.568 79.6129 308.647 79.6695 308.714 79.7378C308.846 79.8704 308.934 80.0278 308.977 80.2099C308.977 80.2132 308.978 80.2165 308.979 80.2198C308.984 80.2442 308.989 80.2691 308.993 80.2944C308.998 80.3278 309.002 80.362 309.004 80.397C309.006 80.4257 309.007 80.455 309.007 80.4849H311.124C311.124 80.4554 311.123 80.4261 311.122 80.397C311.121 80.3625 311.119 80.3283 311.117 80.2944C311.109 80.1854 311.095 80.0795 311.074 79.9768C311.038 79.8023 310.983 79.6369 310.908 79.4805C310.823 79.3021 310.713 79.1354 310.578 78.9806C310.543 78.9407 310.507 78.9016 310.469 78.8633C310.467 78.862 310.466 78.8607 310.465 78.8594C310.401 78.7952 310.332 78.7332 310.258 78.6734C310.244 78.6619 310.23 78.6505 310.215 78.6392C310.146 78.5844 310.074 78.5327 309.999 78.4843C309.992 78.4802 309.986 78.4761 309.98 78.472C309.694 78.2906 309.37 78.1546 309.007 78.064C308.969 78.0547 308.931 78.0458 308.893 78.0374C308.871 78.0326 308.849 78.028 308.827 78.0235C308.819 78.0219 308.81 78.0202 308.802 78.0186C308.799 78.0179 308.795 78.0173 308.792 78.0166C308.782 78.0147 308.773 78.0129 308.763 78.0111C308.467 77.9562 308.148 77.9287 307.806 77.9287C307.803 77.9287 307.801 77.9287 307.798 77.9287C307.369 77.9293 306.976 77.9792 306.621 78.0784C306.359 78.1514 306.118 78.251 305.897 78.3773C305.761 78.4546 305.633 78.5419 305.513 78.6392ZM312.555 79.4805C312.439 79.7309 312.375 80.0022 312.363 80.2944C312.362 80.3283 312.361 80.3625 312.361 80.397C312.361 80.4265 312.362 80.4558 312.363 80.4849C312.378 80.8822 312.5 81.234 312.727 81.5404C312.838 81.6906 312.974 81.8299 313.137 81.9582C313.19 82.0007 313.247 82.0419 313.306 82.082C313.439 82.1722 313.586 82.2564 313.748 82.3345C313.753 82.3371 313.759 82.3397 313.764 82.3423C313.772 82.3462 313.78 82.3501 313.789 82.354C313.795 82.3571 313.802 82.3601 313.808 82.3631C313.907 82.4089 314.01 82.4526 314.119 82.494C314.404 82.6026 314.723 82.6962 315.076 82.7751C315.092 82.7785 315.107 82.7819 315.123 82.7853C315.123 82.7854 315.123 82.7853 315.123 82.7853C315.135 82.788 315.148 82.7908 315.161 82.7935C315.17 82.7954 315.179 82.7974 315.188 82.7993C315.229 82.8076 315.268 82.816 315.306 82.8244C315.31 82.8253 315.314 82.8261 315.318 82.827C315.324 82.8284 315.331 82.8298 315.337 82.8313C315.346 82.8331 315.354 82.835 315.362 82.8369C315.416 82.849 315.468 82.8613 315.518 82.8738C315.519 82.8741 315.521 82.8744 315.522 82.8747C315.525 82.8756 315.529 82.8765 315.533 82.8774C315.534 82.8777 315.535 82.878 315.536 82.8783C315.55 82.8817 315.563 82.8851 315.577 82.8885C315.601 82.8948 315.625 82.9011 315.649 82.9074C315.8 82.9479 315.935 82.9902 316.054 83.0342C316.109 83.0543 316.16 83.0747 316.208 83.0955C316.217 83.0995 316.226 83.1036 316.235 83.1076C316.304 83.1384 316.365 83.1699 316.419 83.2021C316.436 83.2116 316.452 83.2212 316.467 83.2311C316.501 83.2527 316.533 83.2753 316.561 83.299C316.562 83.2997 316.563 83.3004 316.564 83.3011C316.583 83.3171 316.601 83.3336 316.618 83.3506C316.662 83.3943 316.698 83.4412 316.727 83.4913C316.767 83.5618 316.792 83.6388 316.802 83.7222C316.805 83.7507 316.807 83.78 316.807 83.8101C316.807 83.8405 316.806 83.8702 316.802 83.8993C316.802 83.9042 316.801 83.9091 316.801 83.9141C316.79 83.9996 316.765 84.079 316.727 84.1523C316.674 84.2522 316.596 84.3407 316.492 84.418C316.459 84.4422 316.424 84.4645 316.386 84.4849C316.301 84.5304 316.203 84.5662 316.093 84.5923C316.091 84.5928 316.089 84.5933 316.086 84.5938C315.946 84.6264 315.784 84.6435 315.602 84.6449C315.594 84.645 315.585 84.645 315.577 84.645C315.571 84.645 315.565 84.645 315.559 84.645C315.55 84.6449 315.541 84.6448 315.533 84.6447C315.415 84.6428 315.303 84.6333 315.198 84.6162C315.188 84.6146 315.178 84.6129 315.168 84.6111C315.146 84.607 315.123 84.6026 315.102 84.5979C315.096 84.5968 315.091 84.5956 315.086 84.5944C314.996 84.5741 314.912 84.5477 314.833 84.5152C314.832 84.5146 314.83 84.5139 314.829 84.5133C314.807 84.5043 314.786 84.4948 314.765 84.4849C314.683 84.4454 314.606 84.3987 314.537 84.3447C314.512 84.3254 314.488 84.3053 314.465 84.2844C314.46 84.2799 314.455 84.2753 314.45 84.2706C314.32 84.1454 314.227 83.9919 314.173 83.8101C314.165 83.7815 314.157 83.7522 314.151 83.7222C314.149 83.7135 314.147 83.7047 314.145 83.6959C314.145 83.692 314.144 83.6881 314.143 83.6842C314.131 83.6194 314.123 83.5515 314.119 83.4805H312.112C312.112 83.5153 312.113 83.5501 312.115 83.5846C312.117 83.6308 312.12 83.6766 312.125 83.7222C312.128 83.7516 312.132 83.7809 312.136 83.8101C312.143 83.8529 312.15 83.8955 312.159 83.9378C312.198 84.1255 312.262 84.3079 312.35 84.4849C312.407 84.5991 312.474 84.711 312.552 84.8208C312.649 84.9576 312.759 85.0848 312.881 85.2026C313.003 85.32 313.137 85.4279 313.283 85.5264C313.357 85.576 313.433 85.6233 313.513 85.6681C313.592 85.7127 313.675 85.755 313.76 85.7949C313.876 85.8474 313.996 85.8941 314.119 85.9348C314.245 85.9764 314.375 86.0118 314.508 86.0412C314.511 86.0418 314.514 86.0425 314.517 86.0432C314.572 86.0551 314.628 86.066 314.684 86.0758C314.69 86.077 314.697 86.0782 314.704 86.0793C314.73 86.0838 314.757 86.0881 314.783 86.0921C315.022 86.1284 315.272 86.1465 315.533 86.1465C315.547 86.1465 315.562 86.1464 315.577 86.1463C316.313 86.1413 316.946 86.0099 317.477 85.7521C317.479 85.7511 317.481 85.7502 317.483 85.7492C317.643 85.671 317.794 85.5813 317.935 85.48C318.32 85.201 318.586 84.8693 318.732 84.4849C318.785 84.3454 318.822 84.199 318.843 84.0457C318.854 83.9689 318.861 83.8903 318.864 83.8101C318.865 83.781 318.865 83.7517 318.865 83.7222C318.865 83.6065 318.858 83.4947 318.843 83.3869C318.769 82.838 318.504 82.391 318.05 82.0461C318.011 82.0163 317.97 81.9874 317.928 81.9592C317.808 81.878 317.675 81.8031 317.531 81.7344C317.471 81.7056 317.408 81.6779 317.344 81.6513C317.331 81.6461 317.318 81.641 317.306 81.6359C317.267 81.6205 317.228 81.6055 317.188 81.5908C317.06 81.544 316.921 81.499 316.771 81.4558C316.757 81.4516 316.742 81.4473 316.727 81.443C316.54 81.3902 316.337 81.3402 316.118 81.293C316.079 81.2848 316.041 81.2767 316.002 81.2686C315.967 81.2614 315.931 81.2542 315.895 81.2471C315.89 81.2462 315.885 81.2452 315.881 81.2443C315.872 81.2426 315.864 81.2409 315.855 81.2393C315.757 81.2193 315.664 81.1987 315.577 81.1776C315.561 81.1739 315.546 81.1702 315.531 81.1664C315.53 81.166 315.528 81.1657 315.527 81.1653C315.526 81.1652 315.526 81.1651 315.525 81.165C315.523 81.1644 315.521 81.1638 315.518 81.1632C315.402 81.1341 315.296 81.1039 315.2 81.0727C315.198 81.0721 315.196 81.0715 315.195 81.071C315.171 81.0631 315.147 81.0552 315.124 81.0472C315.124 81.0471 315.124 81.0473 315.124 81.0472C315.116 81.0444 315.108 81.0415 315.1 81.0387C315.037 81.016 314.978 80.9928 314.925 80.9691C314.849 80.9357 314.783 80.9013 314.727 80.8657C314.722 80.8622 314.716 80.8586 314.711 80.8549C314.563 80.7525 314.468 80.6291 314.424 80.4849C314.416 80.4564 314.409 80.4271 314.405 80.397C314.4 80.3638 314.397 80.3296 314.397 80.2944C314.397 80.2292 314.404 80.1669 314.418 80.1077C314.418 80.1069 314.418 80.1061 314.418 80.1054C314.456 79.9396 314.547 79.7976 314.69 79.6792C314.79 79.5975 314.909 79.5365 315.05 79.4962C315.07 79.4905 315.09 79.4853 315.11 79.4805C315.232 79.4518 315.368 79.4375 315.518 79.4375C315.521 79.4375 315.523 79.4375 315.525 79.4375C315.56 79.4376 315.593 79.4384 315.626 79.4399C315.643 79.4406 315.659 79.4416 315.676 79.4427C315.747 79.4475 315.814 79.4557 315.878 79.4673C315.881 79.4679 315.884 79.4685 315.887 79.4691C315.906 79.4726 315.924 79.4764 315.942 79.4805C316.026 79.4997 316.103 79.5254 316.174 79.5575C316.176 79.5587 316.179 79.5599 316.181 79.5611C316.186 79.5634 316.191 79.5656 316.195 79.5679C316.288 79.6129 316.367 79.6695 316.434 79.7378C316.566 79.8704 316.654 80.0278 316.696 80.2099C316.697 80.2132 316.698 80.2165 316.699 80.2198C316.704 80.2442 316.709 80.2691 316.713 80.2944C316.722 80.3554 316.727 80.4188 316.727 80.4849H318.843C318.843 80.3077 318.827 80.1384 318.794 79.9768C318.706 79.552 318.505 79.1809 318.188 78.8633C318.187 78.862 318.186 78.8607 318.185 78.8594C318.12 78.7952 318.052 78.7332 317.978 78.6734C317.964 78.6619 317.95 78.6505 317.935 78.6392C317.866 78.5844 317.793 78.5327 317.718 78.4843C317.712 78.4802 317.706 78.4761 317.699 78.472C317.414 78.2906 317.09 78.1546 316.727 78.064C316.689 78.0547 316.651 78.0458 316.613 78.0374C316.583 78.0308 316.552 78.0246 316.522 78.0186C316.518 78.0179 316.515 78.0173 316.511 78.0166C316.502 78.0147 316.492 78.0129 316.483 78.0111C316.187 77.9562 315.868 77.9287 315.525 77.9287C315.523 77.9287 315.521 77.9287 315.518 77.9287C315.203 77.9291 314.907 77.9561 314.632 78.0097C314.256 78.0828 313.918 78.2053 313.616 78.3773C313.481 78.4546 313.353 78.5419 313.233 78.6392C313.104 78.7433 312.989 78.8532 312.889 78.969C312.861 79.0003 312.835 79.032 312.81 79.0642C312.708 79.1959 312.623 79.3346 312.555 79.4805ZM288.175 74.0752C287.65 73.9747 287.12 73.9287 286.595 73.9287C284.525 73.9287 282.471 74.6382 280.937 76.3564C279.481 77.9881 278.947 79.9959 278.947 81.9424V82.0815C278.947 84.0355 279.462 86.0962 280.964 87.7545L280.973 87.7645C282.513 89.4542 284.557 90.1465 286.609 90.1465C287.125 90.1465 287.641 90.0994 288.151 90H289.83L289.979 92.396L291.378 90H297.216V89.7655C298.029 90.0252 298.882 90.1465 299.742 90.1465C301.141 90.1465 302.522 89.8252 303.747 89.1059C303.944 89.2199 304.145 89.3244 304.349 89.4197L304.37 89.4293L304.39 89.4387C305.507 89.9442 306.675 90.1465 307.813 90.1465C309.101 90.1465 310.46 89.9059 311.716 89.2438C311.832 89.3056 311.95 89.3642 312.069 89.4197L312.089 89.4293L312.11 89.4387C313.226 89.9442 314.395 90.1465 315.533 90.1465C317.11 90.1465 318.794 89.7856 320.265 88.7315L320.273 88.7254L320.282 88.7193C320.618 88.4759 320.927 88.2051 321.207 87.9097C321.38 88.1049 321.566 88.2915 321.767 88.4686L321.774 88.4749L321.781 88.4812C322.592 89.1921 323.506 89.6517 324.455 89.9043L324.4 90H324.864C325.356 90.0996 325.854 90.1465 326.351 90.1465C326.84 90.1465 327.323 90.0981 327.794 90H345.019C345.563 90.1012 346.108 90.1465 346.646 90.1465C348.224 90.1465 349.907 89.7856 351.378 88.7315L351.387 88.7254L351.395 88.7193C352.784 87.713 353.722 86.2408 353.933 84.4849H353.957V84.2555C353.971 84.0803 353.979 83.9025 353.979 83.7222C353.979 83.5436 353.971 83.3643 353.957 83.1849V80.4849C353.957 78.4781 353.072 76.7116 351.52 75.4939C350.02 74.3136 348.257 73.9287 346.639 73.9287C346.292 73.9287 345.94 73.9478 345.588 73.9895C345.331 73.3929 344.951 72.8336 344.442 72.3473C343.329 71.2844 341.97 70.9331 340.816 70.9331C339.674 70.9331 338.306 71.2749 337.182 72.3473L337.166 72.3632L337.149 72.3792C336.632 72.8842 336.255 73.4627 336.006 74.0752H328.821C328.275 73.9727 327.73 73.9287 327.2 73.9287C326.661 73.9287 326.118 73.9745 325.577 74.0752H324.516L324.649 74.3049C324.39 74.3855 324.134 74.4802 323.879 74.5899C322.96 74.9823 322.078 75.5699 321.357 76.4039C321.077 76.0747 320.759 75.7702 320.406 75.4939C318.906 74.3136 317.144 73.9287 315.525 73.9287C314.26 73.9287 312.933 74.1832 311.718 74.8555C310.458 74.1698 309.086 73.9287 307.806 73.9287C306.458 73.9287 305.041 74.2174 303.762 74.9919C302.525 74.2558 301.134 73.9287 299.727 73.9287C298.869 73.9287 298.005 74.0519 297.168 74.3279L296.868 74.2349L296.858 74.0752H296.282C295.823 73.9736 295.366 73.9287 294.922 73.9287C294.453 73.9287 294.005 73.9797 293.581 74.0752H288.175ZM339.754 86H341.878V78.0752H339.754V86ZM338.626 78.0752H336.363L335.03 80.4409L333.726 78.0752H331.456L333.704 81.957L331.353 86H333.631L335.037 83.5098L336.451 86H338.721L336.37 81.957L338.626 78.0752ZM330.302 79.9619C330.217 79.5976 330.066 79.2789 329.849 79.0056C329.753 78.8843 329.644 78.7719 329.522 78.6685C329.493 78.6435 329.464 78.6191 329.434 78.5954C329.427 78.5902 329.42 78.5851 329.414 78.58C329.332 78.5162 329.246 78.4572 329.156 78.4028C329.152 78.4007 329.149 78.3986 329.145 78.3965C328.884 78.2395 328.589 78.122 328.262 78.044C327.964 77.973 327.64 77.9348 327.288 77.9294C327.284 77.9293 327.279 77.9293 327.275 77.9292C327.25 77.9289 327.225 77.9287 327.2 77.9287C327.163 77.9287 327.127 77.9291 327.09 77.9298C326.978 77.9321 326.867 77.9378 326.759 77.9471C326.475 77.9713 326.205 78.0195 325.948 78.0916C325.778 78.1392 325.615 78.1972 325.457 78.2656C325.345 78.3131 325.239 78.3646 325.138 78.4201C325.132 78.4235 325.125 78.4269 325.119 78.4303C324.762 78.6298 324.474 78.8801 324.256 79.1812C324.246 79.1944 324.237 79.2078 324.227 79.2211C323.963 79.6007 323.831 80.0122 323.831 80.4556H325.948C325.948 80.4397 325.948 80.4239 325.949 80.4084C325.957 80.1931 326.019 80.0125 326.137 79.8666C326.14 79.8626 326.143 79.8586 326.147 79.8546C326.177 79.8183 326.211 79.7843 326.248 79.7524C326.453 79.5815 326.734 79.4961 327.09 79.4961C327.128 79.4961 327.165 79.497 327.2 79.4989C327.228 79.5004 327.255 79.5024 327.281 79.505C327.284 79.5052 327.286 79.5054 327.288 79.5057C327.352 79.5122 327.414 79.5222 327.471 79.5355C327.569 79.5579 327.656 79.59 327.735 79.6317C327.807 79.6703 327.871 79.7171 327.927 79.7722C327.944 79.7892 327.961 79.8071 327.977 79.8257C328.027 79.8836 328.07 79.9466 328.107 80.0147C328.14 80.0758 328.168 80.1411 328.191 80.2104C328.193 80.2174 328.195 80.2243 328.197 80.2314C328.219 80.302 328.235 80.3767 328.246 80.4556C328.249 80.4797 328.252 80.5042 328.254 80.5292C328.26 80.5856 328.262 80.6441 328.262 80.7046V81.1587H327.288C327.259 81.1588 327.229 81.1591 327.2 81.1595C327.163 81.16 327.127 81.1607 327.09 81.1617C327.057 81.1625 327.025 81.1636 326.992 81.1648C326.931 81.1671 326.871 81.1701 326.812 81.1737C326.782 81.1755 326.752 81.1775 326.722 81.1797C326.713 81.1804 326.704 81.181 326.695 81.1817C326.683 81.1826 326.671 81.1836 326.66 81.1845C326.615 81.1882 326.571 81.1922 326.527 81.1966C326.479 81.2014 326.433 81.2066 326.386 81.2123C326.382 81.2128 326.379 81.2133 326.375 81.2137C326.358 81.2158 326.342 81.2179 326.325 81.2201C326.244 81.231 326.164 81.2432 326.087 81.2569C326.069 81.2599 326.052 81.263 326.035 81.2662C326.006 81.2717 325.977 81.2773 325.948 81.2831C325.529 81.3683 325.164 81.4972 324.854 81.6698C324.759 81.7224 324.67 81.7791 324.585 81.8398C324.576 81.8466 324.567 81.8533 324.558 81.8602C324.222 82.1106 323.979 82.4202 323.831 82.7889C323.767 82.9483 323.72 83.1187 323.691 83.3002C323.688 83.3239 323.684 83.3477 323.681 83.3717C323.675 83.4125 323.671 83.4539 323.667 83.4958C323.664 83.5366 323.661 83.5778 323.659 83.6196C323.656 83.6701 323.655 83.7214 323.655 83.7734C323.655 84.0155 323.687 84.2429 323.751 84.4556C323.867 84.8435 324.089 85.1825 324.417 85.4727C324.516 85.5592 324.619 85.6374 324.728 85.7072C324.791 85.7481 324.857 85.7861 324.923 85.8213C325.336 86.0381 325.811 86.1465 326.351 86.1465C326.431 86.1465 326.509 86.1438 326.586 86.1383C326.607 86.1369 326.628 86.1352 326.648 86.1333C326.704 86.1283 326.758 86.1219 326.812 86.114C326.978 86.0897 327.137 86.0517 327.289 86C327.351 85.9789 327.412 85.9555 327.471 85.9299C327.511 85.9128 327.55 85.8946 327.589 85.8755C327.826 85.7577 328.043 85.6016 328.238 85.407C328.243 85.4027 328.247 85.3983 328.252 85.3939C328.255 85.3904 328.259 85.3868 328.262 85.3832C328.292 85.3529 328.321 85.3217 328.35 85.2896C328.382 85.4979 328.429 85.6811 328.491 85.8392C328.495 85.8515 328.5 85.8636 328.505 85.8755C328.516 85.902 328.527 85.9277 328.539 85.9527C328.547 85.9688 328.555 85.9845 328.562 86H330.701V85.8755C330.648 85.7759 330.602 85.6642 330.562 85.5402C330.525 85.4238 330.494 85.2966 330.468 85.1587C330.461 85.1179 330.454 85.0761 330.447 85.0334C330.444 85.011 330.441 84.9885 330.438 84.9656C330.436 84.9554 330.435 84.9452 330.434 84.935C330.404 84.7052 330.388 84.4498 330.386 84.1689V80.7339C330.386 80.7241 330.386 80.7143 330.386 80.7046C330.385 80.5447 330.374 80.3914 330.354 80.2446C330.342 80.1544 330.326 80.0667 330.307 79.9815C330.305 79.975 330.304 79.9684 330.302 79.9619ZM328.262 82.3965H327.471C327.41 82.3965 327.351 82.3977 327.293 82.4001C327.292 82.4002 327.29 82.4003 327.288 82.4003C327.22 82.4033 327.154 82.408 327.09 82.4143C327.061 82.4172 327.033 82.4205 327.005 82.4241C326.938 82.4327 326.874 82.4433 326.812 82.456C326.78 82.4625 326.749 82.4695 326.719 82.4771C326.709 82.4796 326.699 82.4822 326.689 82.4849C326.578 82.5145 326.477 82.5516 326.386 82.5962C326.374 82.6021 326.362 82.6081 326.351 82.6143C326.317 82.6321 326.285 82.651 326.254 82.6709C326.127 82.7535 326.025 82.8547 325.948 82.9745C325.926 83.0084 325.906 83.0438 325.889 83.0806C325.876 83.1076 325.864 83.1354 325.853 83.164C325.816 83.2627 325.791 83.3709 325.78 83.4887C325.78 83.4908 325.779 83.493 325.779 83.4951L325.772 83.6196C325.772 83.6675 325.775 83.7139 325.781 83.7588C325.782 83.7637 325.783 83.7686 325.783 83.7734C325.789 83.8119 325.797 83.8492 325.808 83.8854C325.809 83.8892 325.81 83.8929 325.811 83.8967C325.84 83.9928 325.886 84.0807 325.948 84.1604C325.978 84.1994 326.012 84.2364 326.05 84.2715C326.136 84.3503 326.236 84.4109 326.351 84.4534C326.353 84.4541 326.355 84.4548 326.357 84.4556C326.368 84.4597 326.379 84.4637 326.391 84.4674C326.424 84.4782 326.459 84.4875 326.494 84.4954C326.5 84.4967 326.506 84.498 326.512 84.4992C326.604 84.5183 326.704 84.5278 326.812 84.5278C326.978 84.5278 327.136 84.5086 327.288 84.4703C327.293 84.4691 327.297 84.468 327.302 84.4668C327.316 84.4632 327.329 84.4595 327.343 84.4556C327.362 84.45 327.382 84.4441 327.401 84.4378C327.425 84.4302 327.448 84.4221 327.471 84.4135C327.476 84.4117 327.481 84.4099 327.486 84.4081C327.551 84.3834 327.614 84.355 327.676 84.3228C327.689 84.3161 327.701 84.3093 327.713 84.3025C327.777 84.2662 327.837 84.2271 327.892 84.1851C327.899 84.1798 327.906 84.1744 327.913 84.1689C327.954 84.1366 327.993 84.1027 328.029 84.0671C328.121 83.9772 328.197 83.8768 328.258 83.7659C328.26 83.7635 328.261 83.7612 328.262 83.7588V82.3965ZM338.763 74.0752H342.509L342.681 73.8912C342.384 73.6138 342.036 73.4067 341.674 73.2777C341.323 73.1527 341.021 73.123 340.816 73.123C340.612 73.123 340.305 73.1525 339.946 73.2814C339.588 73.4099 339.242 73.615 338.944 73.8913C338.938 73.8963 338.933 73.9013 338.927 73.9064C338.922 73.9116 338.916 73.9168 338.911 73.9221C338.872 73.9593 338.834 73.9982 338.797 74.0385C338.792 74.0432 338.788 74.0479 338.784 74.0526C338.777 74.0601 338.77 74.0676 338.763 74.0752ZM341.553 75.1374C341.546 75.1324 341.539 75.1275 341.532 75.1227C341.338 74.9963 341.1 74.9331 340.816 74.9331C340.528 74.9331 340.287 74.9964 340.093 75.1229C340.086 75.1277 340.078 75.1325 340.071 75.1375C340.026 75.1684 339.984 75.2028 339.944 75.2407C339.866 75.3169 339.803 75.4007 339.754 75.4923C339.671 75.6475 339.629 75.8249 339.629 76.0244C339.629 76.2247 339.671 76.4024 339.754 76.5574C339.804 76.6518 339.87 76.7378 339.952 76.8154C339.992 76.853 340.034 76.8871 340.079 76.9178C340.185 76.9902 340.304 77.0435 340.435 77.0776C340.552 77.1079 340.679 77.123 340.816 77.123C341.106 77.123 341.35 77.055 341.546 76.9188C341.554 76.9137 341.561 76.9085 341.568 76.9032C341.605 76.8764 341.64 76.8471 341.673 76.8154C341.758 76.7364 341.826 76.6487 341.878 76.5522C341.961 76.3984 342.002 76.2225 342.002 76.0244C342.002 75.9008 341.986 75.7858 341.954 75.6792C341.953 75.676 341.952 75.6728 341.951 75.6696C341.932 75.6096 341.907 75.5523 341.878 75.4977C341.877 75.4962 341.876 75.4947 341.876 75.4932C341.825 75.4013 341.76 75.3171 341.68 75.2407C341.64 75.2028 341.598 75.1683 341.553 75.1374ZM343.754 79.3156C343.723 79.3695 343.694 79.4244 343.668 79.4805C343.553 79.7309 343.489 80.0022 343.477 80.2944C343.475 80.3283 343.475 80.3625 343.475 80.397C343.475 80.4078 343.475 80.4185 343.475 80.4292C343.48 80.7953 343.573 81.1236 343.754 81.4141C343.781 81.457 343.809 81.4991 343.84 81.5404C343.951 81.6906 344.088 81.8299 344.25 81.9582C344.303 82.0007 344.36 82.0419 344.419 82.082C344.552 82.1722 344.7 82.2564 344.861 82.3345C344.866 82.3371 344.872 82.3397 344.877 82.3423C344.885 82.3462 344.894 82.3501 344.902 82.354C344.909 82.3571 344.915 82.3601 344.922 82.3631C345.02 82.4089 345.124 82.4526 345.232 82.494C345.431 82.5697 345.646 82.6381 345.878 82.6994C345.993 82.7298 346.113 82.7585 346.236 82.7853C346.249 82.7881 346.262 82.7908 346.274 82.7935C346.283 82.7954 346.293 82.7974 346.302 82.7993C346.342 82.8076 346.381 82.816 346.42 82.8244C346.423 82.8253 346.427 82.8261 346.431 82.827C346.438 82.8284 346.444 82.8298 346.45 82.8313C346.459 82.8331 346.467 82.835 346.476 82.8369C346.529 82.849 346.581 82.8613 346.631 82.8738C346.633 82.8741 346.634 82.8744 346.635 82.8747C346.639 82.8756 346.642 82.8765 346.646 82.8774C346.647 82.8777 346.648 82.878 346.65 82.8783C346.663 82.8817 346.677 82.8851 346.69 82.8885C346.714 82.8948 346.738 82.9011 346.762 82.9074C346.913 82.9479 347.048 82.9902 347.168 83.0342C347.222 83.0543 347.273 83.0747 347.321 83.0955C347.33 83.0995 347.339 83.1036 347.348 83.1076C347.417 83.1384 347.478 83.1699 347.532 83.2021C347.549 83.2116 347.565 83.2212 347.581 83.2311C347.614 83.2527 347.646 83.2753 347.675 83.299C347.676 83.2997 347.676 83.3004 347.677 83.3011C347.697 83.3171 347.715 83.3336 347.732 83.3506C347.775 83.3943 347.811 83.4412 347.84 83.4913C347.88 83.5618 347.905 83.6388 347.915 83.7222C347.919 83.7507 347.92 83.78 347.92 83.8101C347.92 83.8405 347.919 83.8702 347.916 83.8993C347.915 83.9042 347.915 83.9091 347.914 83.9141C347.903 83.9996 347.878 84.079 347.84 84.1523C347.787 84.2522 347.709 84.3407 347.605 84.418C347.573 84.4422 347.537 84.4645 347.499 84.4849C347.414 84.5304 347.317 84.5662 347.206 84.5923C347.204 84.5928 347.202 84.5933 347.2 84.5938C347.059 84.6264 346.898 84.6435 346.716 84.6449C346.707 84.645 346.699 84.645 346.69 84.645C346.684 84.645 346.678 84.645 346.672 84.645C346.663 84.6449 346.655 84.6448 346.646 84.6447C346.528 84.6428 346.416 84.6333 346.312 84.6162C346.301 84.6146 346.291 84.6129 346.281 84.6111C346.259 84.607 346.237 84.6026 346.215 84.5979C346.119 84.5772 346.03 84.5496 345.947 84.5152C345.945 84.5146 345.944 84.5139 345.942 84.5133C345.92 84.5043 345.899 84.4948 345.878 84.4849C345.878 84.4848 345.879 84.4849 345.878 84.4849C345.796 84.4455 345.72 84.3986 345.65 84.3447C345.625 84.3254 345.601 84.3053 345.578 84.2844C345.573 84.2799 345.569 84.2753 345.564 84.2706C345.433 84.1454 345.341 83.9919 345.287 83.8101C345.276 83.7732 345.266 83.7351 345.259 83.6959C345.258 83.692 345.257 83.6881 345.256 83.6842C345.244 83.6194 345.236 83.5515 345.232 83.4805H343.226C343.226 83.5153 343.226 83.5501 343.228 83.5846C343.233 83.7044 343.248 83.8221 343.272 83.9378C343.337 84.2466 343.467 84.5409 343.665 84.8208C343.694 84.8608 343.723 84.9 343.754 84.9384C343.933 85.162 344.147 85.358 344.396 85.5264C344.47 85.576 344.546 85.6233 344.626 85.6681C344.706 85.7127 344.788 85.755 344.874 85.7949C344.989 85.8474 345.109 85.8941 345.232 85.9348C345.304 85.9585 345.377 85.9803 345.452 86C345.508 86.0149 345.564 86.0286 345.621 86.0412C345.625 86.0418 345.628 86.0425 345.631 86.0432C345.692 86.0565 345.754 86.0685 345.817 86.0793C345.837 86.0827 345.858 86.0861 345.878 86.0892C345.884 86.0902 345.89 86.0912 345.896 86.0921C346.135 86.1284 346.385 86.1465 346.646 86.1465C346.661 86.1465 346.675 86.1464 346.69 86.1463C347.426 86.1413 348.06 86.0099 348.59 85.7521C348.592 85.7511 348.594 85.7502 348.596 85.7492C348.756 85.671 348.907 85.5813 349.048 85.48C349.433 85.201 349.699 84.8693 349.845 84.4849C349.898 84.3454 349.935 84.199 349.957 84.0457C349.967 83.9689 349.974 83.8903 349.977 83.8101C349.978 83.781 349.979 83.7517 349.979 83.7222C349.979 83.6065 349.971 83.4947 349.957 83.3869C349.882 82.838 349.618 82.391 349.163 82.0461C349.124 82.0163 349.084 81.9874 349.042 81.9592C348.921 81.878 348.789 81.8031 348.644 81.7344C348.584 81.7056 348.521 81.6779 348.457 81.6513C348.444 81.6461 348.432 81.641 348.419 81.6359C348.38 81.6205 348.341 81.6055 348.301 81.5908C348.173 81.544 348.034 81.499 347.885 81.4558C347.87 81.4516 347.855 81.4473 347.84 81.443C347.653 81.3902 347.45 81.3402 347.231 81.293C347.193 81.2848 347.154 81.2767 347.115 81.2686C347.08 81.2614 347.044 81.2542 347.008 81.2471C347.003 81.2462 346.999 81.2452 346.994 81.2443C346.985 81.2426 346.977 81.2409 346.968 81.2393C346.87 81.2193 346.777 81.1987 346.69 81.1776C346.675 81.1739 346.659 81.1702 346.644 81.1664C346.643 81.166 346.641 81.1657 346.64 81.1653C346.639 81.1652 346.639 81.1651 346.639 81.165C346.636 81.1644 346.634 81.1638 346.631 81.1632C346.516 81.1341 346.41 81.1039 346.313 81.0727C346.312 81.0721 346.31 81.0715 346.308 81.071C346.284 81.0631 346.26 81.0552 346.237 81.0472C346.229 81.0444 346.221 81.0415 346.213 81.0387C346.15 81.016 346.092 80.9928 346.038 80.9691C345.979 80.9429 345.925 80.916 345.878 80.8884C345.865 80.8809 345.852 80.8733 345.84 80.8657C345.835 80.8622 345.83 80.8586 345.824 80.8549C345.677 80.7525 345.581 80.6291 345.538 80.4849C345.529 80.4564 345.523 80.4271 345.518 80.397C345.513 80.3638 345.511 80.3296 345.511 80.2944C345.511 80.2292 345.517 80.1669 345.531 80.1077C345.531 80.1069 345.531 80.1061 345.531 80.1054C345.569 79.9396 345.66 79.7976 345.804 79.6792C345.827 79.6598 345.852 79.6415 345.878 79.6244C345.976 79.5595 346.091 79.5116 346.223 79.4805C346.345 79.4518 346.481 79.4375 346.631 79.4375C346.634 79.4375 346.636 79.4375 346.639 79.4375C346.673 79.4376 346.706 79.4384 346.739 79.4399C346.756 79.4406 346.773 79.4416 346.789 79.4427C346.86 79.4475 346.927 79.4557 346.991 79.4673C346.994 79.4679 346.997 79.4685 347.001 79.4691C347.019 79.4726 347.037 79.4764 347.055 79.4805C347.139 79.4997 347.217 79.5254 347.287 79.5575C347.289 79.5587 347.292 79.5599 347.295 79.5611C347.299 79.5634 347.304 79.5656 347.309 79.5679C347.401 79.6129 347.48 79.6695 347.547 79.7378C347.679 79.8704 347.767 80.0278 347.81 80.2099C347.81 80.2132 347.811 80.2165 347.812 80.2198C347.817 80.2442 347.822 80.2691 347.826 80.2944C347.835 80.3554 347.84 80.4188 347.84 80.4849H349.957C349.957 80.3077 349.94 80.1384 349.907 79.9768C349.82 79.552 349.618 79.1809 349.302 78.8633C349.3 78.862 349.299 78.8607 349.298 78.8594C349.234 78.7952 349.165 78.7332 349.091 78.6734C349.077 78.6619 349.063 78.6505 349.048 78.6392C348.979 78.5844 348.907 78.5327 348.832 78.4843C348.825 78.4802 348.819 78.4761 348.813 78.472C348.527 78.2906 348.203 78.1546 347.84 78.064C347.802 78.0547 347.764 78.0458 347.726 78.0374C347.696 78.0308 347.666 78.0246 347.635 78.0186C347.632 78.0179 347.628 78.0173 347.625 78.0166C347.615 78.0147 347.606 78.0129 347.596 78.0111C347.3 77.9562 346.981 77.9287 346.639 77.9287C346.636 77.9287 346.634 77.9287 346.631 77.9287C346.366 77.9291 346.115 77.9482 345.878 77.9862C345.782 78.0016 345.687 78.0202 345.596 78.0418C345.552 78.0522 345.508 78.0634 345.465 78.0752C345.199 78.1484 344.954 78.2492 344.73 78.3773C344.594 78.4546 344.467 78.5419 344.346 78.6392C344.16 78.7892 344.004 78.9512 343.878 79.1252C343.87 79.1351 343.863 79.145 343.856 79.1549C343.82 79.2074 343.785 79.2609 343.754 79.3156ZM342.863 74.0752H342.567L342.714 73.922C342.752 73.9592 342.791 73.9978 342.828 74.0379C342.84 74.0502 342.851 74.0626 342.863 74.0752Z" fill="white"/>
<path d="M299.128 153.707C299.519 153.317 299.519 152.683 299.128 152.293L292.764 145.929C292.374 145.538 291.74 145.538 291.35 145.929C290.959 146.319 290.959 146.953 291.35 147.343L297.007 153L291.35 158.657C290.959 159.047 290.959 159.681 291.35 160.071C291.74 160.462 292.374 160.462 292.764 160.071L299.128 153.707ZM0.871698 152.293C0.481174 152.683 0.481174 153.317 0.871698 153.707L7.23566 160.071C7.62618 160.462 8.25935 160.462 8.64987 160.071C9.0404 159.681 9.0404 159.047 8.64987 158.657L2.99302 153L8.64987 147.343C9.0404 146.953 9.0404 146.319 8.64987 145.929C8.25935 145.538 7.62618 145.538 7.23566 145.929L0.871698 152.293ZM298.421 152L295.452 152L295.452 154L298.421 154L298.421 152ZM291.495 152L285.558 152L285.558 154L291.495 154L291.495 152ZM281.6 152L275.663 152L275.663 154L281.6 154L281.6 152ZM271.705 152L265.768 152L265.768 154L271.705 154L271.705 152ZM261.81 152L255.874 152L255.874 154L261.81 154L261.81 152ZM251.916 152L245.979 152L245.979 154L251.916 154L251.916 152ZM242.021 152L236.084 152L236.084 154L242.021 154L242.021 152ZM232.126 152L226.189 152L226.189 154L232.126 154L232.126 152ZM222.231 152L216.295 152L216.295 154L222.231 154L222.231 152ZM212.337 152L206.4 152L206.4 154L212.337 154L212.337 152ZM202.442 152L196.505 152L196.505 154L202.442 154L202.442 152ZM192.547 152L186.61 152L186.61 154L192.547 154L192.547 152ZM182.652 152L176.716 152L176.716 154L182.652 154L182.652 152ZM172.758 152L166.821 152L166.821 154L172.758 154L172.758 152ZM162.863 152L156.926 152L156.926 154L162.863 154L162.863 152ZM152.968 152L147.031 152L147.031 154L152.968 154L152.968 152ZM143.074 152L137.137 152L137.137 154L143.074 154L143.074 152ZM133.179 152L127.242 152L127.242 154L133.179 154L133.179 152ZM123.284 152L117.347 152L117.347 154L123.284 154L123.284 152ZM113.389 152L107.452 152L107.452 154L113.389 154L113.389 152ZM103.495 152L97.5577 152L97.5577 154L103.495 154L103.495 152ZM93.5998 152L87.6629 152L87.6629 154L93.5998 154L93.5998 152ZM83.705 152L77.7682 152L77.7682 154L83.705 154L83.705 152ZM73.8103 152L67.8735 152L67.8735 154L73.8103 154L73.8103 152ZM63.9155 152L57.9787 152L57.9787 154L63.9155 154L63.9155 152ZM54.0208 152L48.084 152L48.084 154L54.0208 154L54.0208 152ZM44.1261 152L38.1892 152L38.1892 154L44.1261 154L44.1261 152ZM34.2313 152L28.2945 152L28.2945 154L34.2313 154L34.2313 152ZM24.3366 152L18.3998 152L18.3998 154L24.3366 154L24.3366 152ZM14.4419 152L8.50508 152L8.50508 154L14.4419 154L14.4419 152ZM4.54719 152L1.57881 152L1.5788 154L4.54719 154L4.54719 152Z" fill="#1E73FF"/>
<path d="M121.028 150.075L121.094 150.961C121.655 150.273 122.415 149.929 123.372 149.929C124.392 149.929 125.093 150.332 125.474 151.137C126.03 150.332 126.824 149.929 127.854 149.929C128.713 149.929 129.353 150.18 129.773 150.683C130.193 151.181 130.403 151.933 130.403 152.939V158H128.279V152.946C128.279 152.497 128.191 152.17 128.015 151.965C127.839 151.755 127.529 151.65 127.085 151.65C126.45 151.65 126.011 151.953 125.767 152.558L125.774 158H123.657V152.954C123.657 152.495 123.567 152.163 123.386 151.958C123.206 151.752 122.898 151.65 122.463 151.65C121.863 151.65 121.428 151.899 121.16 152.397V158H119.043V150.075H121.028Z" fill="#1E73FF"/>
<path d="M136.628 158C136.531 157.81 136.46 157.573 136.416 157.29C135.903 157.861 135.237 158.146 134.417 158.146C133.64 158.146 132.996 157.922 132.483 157.473C131.975 157.023 131.721 156.457 131.721 155.773C131.721 154.934 132.031 154.289 132.651 153.84C133.276 153.391 134.177 153.164 135.354 153.159H136.328V152.705C136.328 152.338 136.233 152.045 136.042 151.826C135.857 151.606 135.562 151.496 135.156 151.496C134.8 151.496 134.519 151.582 134.314 151.752C134.114 151.923 134.014 152.158 134.014 152.456H131.897C131.897 151.997 132.039 151.572 132.322 151.181C132.605 150.791 133.005 150.485 133.523 150.266C134.041 150.041 134.622 149.929 135.266 149.929C136.243 149.929 137.017 150.175 137.588 150.668C138.164 151.157 138.452 151.845 138.452 152.734V156.169C138.457 156.921 138.562 157.49 138.767 157.875V158H136.628ZM134.878 156.528C135.19 156.528 135.479 156.459 135.742 156.323C136.006 156.181 136.201 155.993 136.328 155.759V154.396H135.537C134.478 154.396 133.914 154.763 133.845 155.495L133.838 155.62C133.838 155.883 133.931 156.101 134.116 156.271C134.302 156.442 134.556 156.528 134.878 156.528Z" fill="#1E73FF"/>
<path d="M142.312 158H140.188V150.075H142.312V158ZM140.063 148.024C140.063 147.707 140.168 147.446 140.378 147.241C140.593 147.036 140.884 146.933 141.25 146.933C141.611 146.933 141.899 147.036 142.114 147.241C142.329 147.446 142.437 147.707 142.437 148.024C142.437 148.347 142.327 148.61 142.107 148.815C141.892 149.021 141.606 149.123 141.25 149.123C140.894 149.123 140.605 149.021 140.386 148.815C140.171 148.61 140.063 148.347 140.063 148.024Z" fill="#1E73FF"/>
<path d="M146.011 150.075L146.077 150.991C146.643 150.283 147.402 149.929 148.354 149.929C149.194 149.929 149.819 150.175 150.229 150.668C150.64 151.162 150.85 151.899 150.859 152.88V158H148.743V152.932C148.743 152.482 148.645 152.158 148.45 151.958C148.254 151.752 147.93 151.65 147.476 151.65C146.88 151.65 146.433 151.904 146.135 152.412V158H144.019V150.075H146.011Z" fill="#1E73FF"/>
<path d="M160.798 158C160.701 157.81 160.63 157.573 160.586 157.29C160.073 157.861 159.407 158.146 158.586 158.146C157.81 158.146 157.166 157.922 156.653 157.473C156.145 157.023 155.891 156.457 155.891 155.773C155.891 154.934 156.201 154.289 156.821 153.84C157.446 153.391 158.347 153.164 159.524 153.159H160.498V152.705C160.498 152.338 160.403 152.045 160.212 151.826C160.027 151.606 159.731 151.496 159.326 151.496C158.97 151.496 158.689 151.582 158.484 151.752C158.284 151.923 158.184 152.158 158.184 152.456H156.067C156.067 151.997 156.208 151.572 156.492 151.181C156.775 150.791 157.175 150.485 157.693 150.266C158.21 150.041 158.792 149.929 159.436 149.929C160.413 149.929 161.187 150.175 161.758 150.668C162.334 151.157 162.622 151.845 162.622 152.734V156.169C162.627 156.921 162.732 157.49 162.937 157.875V158H160.798ZM159.048 156.528C159.36 156.528 159.648 156.459 159.912 156.323C160.176 156.181 160.371 155.993 160.498 155.759V154.396H159.707C158.647 154.396 158.083 154.763 158.015 155.495L158.008 155.62C158.008 155.883 158.101 156.101 158.286 156.271C158.472 156.442 158.726 156.528 159.048 156.528Z" fill="#1E73FF"/>
<path d="M167.266 152.441L168.599 150.075H170.862L168.606 153.957L170.957 158H168.687L167.273 155.51L165.867 158H163.589L165.94 153.957L163.691 150.075H165.962L167.266 152.441Z" fill="#1E73FF"/>
<path d="M174.114 158H171.99V150.075H174.114V158ZM171.865 148.024C171.865 147.707 171.97 147.446 172.18 147.241C172.395 147.036 172.686 146.933 173.052 146.933C173.413 146.933 173.701 147.036 173.916 147.241C174.131 147.446 174.238 147.707 174.238 148.024C174.238 148.347 174.128 148.61 173.909 148.815C173.694 149.021 173.408 149.123 173.052 149.123C172.695 149.123 172.407 149.021 172.188 148.815C171.973 148.61 171.865 148.347 171.865 148.024Z" fill="#1E73FF"/>
<path d="M180.156 155.81C180.156 155.551 180.027 155.349 179.768 155.202C179.514 155.051 179.104 154.917 178.538 154.799C176.653 154.404 175.71 153.603 175.71 152.397C175.71 151.694 176.001 151.108 176.582 150.639C177.168 150.166 177.932 149.929 178.875 149.929C179.88 149.929 180.684 150.166 181.284 150.639C181.89 151.113 182.192 151.728 182.192 152.485H180.076C180.076 152.182 179.978 151.933 179.783 151.738C179.587 151.538 179.282 151.438 178.867 151.438C178.511 151.438 178.235 151.518 178.04 151.679C177.844 151.84 177.747 152.045 177.747 152.294C177.747 152.529 177.856 152.719 178.076 152.866C178.301 153.007 178.677 153.132 179.204 153.239C179.731 153.342 180.176 153.459 180.537 153.591C181.655 154.001 182.214 154.711 182.214 155.722C182.214 156.445 181.904 157.031 181.284 157.48C180.664 157.924 179.863 158.146 178.882 158.146C178.218 158.146 177.627 158.029 177.109 157.795C176.597 157.556 176.194 157.231 175.901 156.821C175.608 156.406 175.461 155.959 175.461 155.48H177.468C177.488 155.856 177.627 156.145 177.886 156.345C178.145 156.545 178.491 156.645 178.926 156.645C179.331 156.645 179.636 156.569 179.841 156.418C180.051 156.262 180.156 156.059 180.156 155.81Z" fill="#1E73FF"/>
<path fill-rule="evenodd" clip-rule="evenodd" d="M125.074 150.551C125.06 150.536 125.046 150.522 125.031 150.508C124.707 150.195 124.281 150.008 123.754 149.949C123.632 149.936 123.505 149.929 123.372 149.929C123.102 149.929 122.848 149.956 122.61 150.011C122.56 150.022 122.511 150.035 122.463 150.048C122.433 150.057 122.404 150.066 122.374 150.075C121.871 150.237 121.444 150.532 121.094 150.961L121.028 150.075H119.043V158H121.16V152.397C121.31 152.119 121.512 151.918 121.766 151.795C121.841 151.759 121.922 151.729 122.007 151.706C122.146 151.669 122.299 151.65 122.463 151.65C122.692 151.65 122.885 151.678 123.043 151.735C123.178 151.783 123.288 151.852 123.372 151.941C123.377 151.947 123.381 151.952 123.386 151.958C123.419 151.995 123.449 152.036 123.476 152.082C123.528 152.171 123.569 152.276 123.599 152.397C123.612 152.449 123.622 152.503 123.631 152.561C123.648 152.679 123.657 152.81 123.657 152.954V158H125.774L125.767 152.558C125.914 152.193 126.133 151.937 126.422 151.793C126.612 151.697 126.833 151.65 127.085 151.65C127.256 151.65 127.408 151.666 127.539 151.697C127.662 151.726 127.766 151.768 127.854 151.824C127.879 151.84 127.902 151.857 127.924 151.875C127.958 151.903 127.988 151.932 128.015 151.965C128.045 152 128.073 152.039 128.098 152.082C128.1 152.085 128.102 152.088 128.103 152.091C128.162 152.192 128.205 152.314 128.235 152.456C128.241 152.488 128.247 152.521 128.252 152.555C128.27 152.671 128.279 152.799 128.279 152.939C128.279 152.941 128.279 152.944 128.279 152.946V158H130.403V152.939C130.403 152.771 130.397 152.61 130.385 152.456C130.352 152.017 130.271 151.637 130.142 151.313C130.082 151.161 130.01 151.021 129.929 150.894C129.88 150.819 129.829 150.749 129.773 150.683C129.742 150.646 129.709 150.61 129.675 150.575C129.67 150.569 129.664 150.563 129.658 150.557C129.348 150.246 128.937 150.051 128.425 149.971C128.297 149.951 128.163 149.938 128.023 149.932C127.968 149.93 127.911 149.929 127.854 149.929C127.581 149.929 127.325 149.957 127.085 150.014C127.031 150.026 126.978 150.04 126.926 150.056C126.334 150.233 125.85 150.593 125.474 151.137C125.366 150.91 125.233 150.714 125.074 150.551ZM131.382 146.858C130.247 146.169 128.983 145.929 127.854 145.929C127.069 145.929 126.309 146.047 125.594 146.283C124.833 146.023 124.072 145.929 123.372 145.929C122.868 145.929 122.372 145.977 121.889 146.075H115.043V162H132.93C133.422 162.1 133.92 162.146 134.417 162.146C134.906 162.146 135.389 162.098 135.86 162H154.859V161.11C155.441 161.475 156.058 161.736 156.691 161.904L156.636 162H157.1C157.592 162.1 158.09 162.146 158.586 162.146C159.076 162.146 159.559 162.098 160.03 162H177.255C177.798 162.101 178.344 162.146 178.882 162.146C180.46 162.146 182.143 161.786 183.614 160.731L183.622 160.725L183.631 160.719C185.02 159.713 185.958 158.241 186.169 156.485H186.192V156.256C186.207 156.08 186.214 155.903 186.214 155.722C186.214 155.544 186.207 155.364 186.192 155.185V152.485C186.192 150.478 185.308 148.712 183.755 147.494C182.256 146.314 180.493 145.929 178.875 145.929C178.528 145.929 178.176 145.948 177.824 145.989C177.567 145.393 177.187 144.834 176.678 144.347C175.564 143.284 174.206 142.933 173.052 142.933C171.909 142.933 170.542 143.275 169.418 144.347L169.402 144.363L169.385 144.379C168.868 144.884 168.491 145.463 168.242 146.075H161.057C160.511 145.973 159.966 145.929 159.436 145.929C158.897 145.929 158.353 145.975 157.813 146.075H156.752L156.885 146.305C156.626 146.386 156.369 146.48 156.115 146.59C155.182 146.988 154.287 147.587 153.561 148.441C153.481 148.33 153.395 148.219 153.305 148.111C151.914 146.439 149.989 145.929 148.354 145.929C147.853 145.929 147.36 145.978 146.883 146.075H146.058C145.801 145.446 145.41 144.857 144.876 144.347C143.763 143.284 142.404 142.933 141.25 142.933C140.108 142.933 138.74 143.275 137.617 144.347L137.6 144.363L137.583 144.379C137.085 144.866 136.717 145.42 136.468 146.008C136.063 145.953 135.66 145.929 135.266 145.929C134.156 145.929 133.028 146.123 131.945 146.59C131.756 146.671 131.567 146.76 131.382 146.858ZM132.121 151.509C131.972 151.806 131.897 152.122 131.897 152.456H134.014C134.014 152.44 134.014 152.424 134.015 152.408C134.022 152.193 134.085 152.012 134.203 151.867C134.206 151.863 134.209 151.859 134.212 151.855C134.243 151.818 134.277 151.784 134.314 151.752C134.32 151.747 134.326 151.742 134.332 151.738C134.536 151.577 134.81 151.496 135.156 151.496C135.194 151.496 135.23 151.497 135.266 151.499C135.294 151.5 135.321 151.502 135.347 151.505C135.349 151.505 135.352 151.505 135.354 151.506C135.418 151.512 135.479 151.522 135.537 151.535C135.725 151.579 135.877 151.658 135.993 151.772C136.01 151.789 136.027 151.807 136.042 151.826C136.1 151.892 136.148 151.964 136.188 152.043C136.215 152.096 136.238 152.152 136.257 152.21C136.259 152.217 136.261 152.224 136.263 152.231C136.285 152.302 136.301 152.377 136.312 152.456C136.323 152.534 136.328 152.617 136.328 152.705V153.159H135.354C135.325 153.159 135.295 153.159 135.266 153.159C135.229 153.16 135.193 153.161 135.156 153.162C135.123 153.163 135.09 153.164 135.058 153.165C134.997 153.167 134.937 153.17 134.878 153.174C134.848 153.176 134.817 153.178 134.788 153.18C134.779 153.18 134.77 153.181 134.761 153.182C134.749 153.183 134.737 153.184 134.725 153.185C134.681 153.188 134.637 153.192 134.593 153.197C134.545 153.201 134.498 153.207 134.452 153.212C134.448 153.213 134.445 153.213 134.441 153.214C134.428 153.215 134.415 153.217 134.403 153.219C134.399 153.219 134.395 153.22 134.391 153.22C134.31 153.231 134.23 153.243 134.152 153.257C134.135 153.26 134.118 153.263 134.101 153.266C134.071 153.272 134.042 153.277 134.014 153.283C133.595 153.368 133.23 153.497 132.92 153.67C132.825 153.722 132.736 153.779 132.651 153.84C132.642 153.847 132.633 153.853 132.624 153.86C132.495 153.956 132.38 154.061 132.279 154.174C132.116 154.356 131.989 154.561 131.897 154.789C131.833 154.948 131.786 155.119 131.757 155.3C131.753 155.324 131.75 155.348 131.747 155.372C131.741 155.413 131.737 155.454 131.733 155.496C131.73 155.537 131.727 155.578 131.725 155.62C131.722 155.67 131.721 155.721 131.721 155.773C131.721 156.016 131.753 156.243 131.817 156.456C131.907 156.757 132.061 157.028 132.279 157.271C132.342 157.34 132.41 157.408 132.483 157.473C132.582 157.559 132.685 157.637 132.794 157.707C132.857 157.748 132.922 157.786 132.989 157.821C133.125 157.893 133.267 157.952 133.417 158C133.717 158.096 134.046 158.145 134.403 158.146C134.407 158.146 134.412 158.146 134.417 158.146C134.497 158.146 134.575 158.144 134.652 158.138C134.729 158.133 134.804 158.125 134.878 158.114C135.044 158.09 135.203 158.052 135.355 158C135.417 157.979 135.478 157.956 135.537 157.93C135.577 157.913 135.616 157.895 135.654 157.875C135.846 157.781 136.024 157.661 136.188 157.516C136.228 157.481 136.266 157.445 136.304 157.407C136.309 157.403 136.313 157.398 136.317 157.394C136.321 157.39 136.325 157.387 136.328 157.383C136.358 157.353 136.387 157.322 136.416 157.29C136.448 157.498 136.495 157.681 136.557 157.839C136.561 157.851 136.566 157.864 136.571 157.875C136.582 157.902 136.593 157.928 136.605 157.953C136.613 157.969 136.62 157.985 136.628 158H138.767V157.875C138.664 157.682 138.587 157.443 138.534 157.159C138.527 157.118 138.52 157.076 138.513 157.033C138.51 157.011 138.507 156.988 138.504 156.966C138.502 156.955 138.501 156.945 138.5 156.935C138.47 156.705 138.454 156.45 138.452 156.169V152.734C138.452 152.724 138.452 152.714 138.452 152.705C138.451 152.577 138.444 152.454 138.431 152.336C138.409 152.131 138.37 151.938 138.312 151.758C138.256 151.583 138.184 151.421 138.096 151.269C138.089 151.258 138.082 151.247 138.076 151.236C137.946 151.023 137.784 150.834 137.588 150.668C137.559 150.643 137.529 150.619 137.499 150.595C137.493 150.59 137.486 150.585 137.48 150.58C137.398 150.516 137.312 150.457 137.222 150.403C137.218 150.401 137.215 150.399 137.211 150.396C136.993 150.265 136.751 150.162 136.487 150.086C136.475 150.082 136.462 150.079 136.449 150.075C136.41 150.064 136.369 150.054 136.328 150.044C136.282 150.033 136.235 150.023 136.188 150.013C135.929 149.962 135.651 149.934 135.354 149.929C135.35 149.929 135.345 149.929 135.341 149.929C135.316 149.929 135.291 149.929 135.266 149.929C135.229 149.929 135.193 149.929 135.156 149.93C134.75 149.938 134.369 149.992 134.014 150.092C133.996 150.097 133.979 150.102 133.961 150.107C133.81 150.151 133.664 150.204 133.523 150.266C133.411 150.313 133.305 150.365 133.204 150.42C133.198 150.423 133.191 150.427 133.185 150.43C132.828 150.63 132.54 150.88 132.322 151.181C132.312 151.194 132.303 151.208 132.293 151.221C132.228 151.315 132.171 151.411 132.121 151.509ZM140.188 158H142.312V150.075H140.188V158ZM140.106 147.697C140.099 147.722 140.093 147.747 140.088 147.772C140.072 147.852 140.063 147.936 140.063 148.024C140.063 148.225 140.105 148.402 140.188 148.557C140.239 148.652 140.304 148.738 140.386 148.815C140.426 148.853 140.469 148.887 140.513 148.918C140.713 149.055 140.959 149.123 141.25 149.123C141.325 149.123 141.397 149.119 141.465 149.109C141.663 149.083 141.834 149.02 141.98 148.919C141.988 148.914 141.995 148.909 142.002 148.903C142.039 148.876 142.074 148.847 142.107 148.815C142.192 148.736 142.26 148.649 142.312 148.552C142.395 148.398 142.437 148.222 142.437 148.024C142.437 147.827 142.395 147.652 142.312 147.498C142.261 147.404 142.196 147.318 142.114 147.241C142.075 147.203 142.032 147.168 141.987 147.137C141.98 147.132 141.973 147.128 141.966 147.123C141.772 146.996 141.534 146.933 141.25 146.933C140.962 146.933 140.721 146.996 140.527 147.123C140.52 147.128 140.513 147.133 140.505 147.138C140.46 147.168 140.418 147.203 140.378 147.241C140.3 147.317 140.237 147.401 140.188 147.492C140.171 147.524 140.156 147.557 140.142 147.59C140.128 147.625 140.116 147.66 140.106 147.697ZM142.943 146.075L143.115 145.891C142.818 145.614 142.47 145.407 142.108 145.278C141.757 145.153 141.455 145.123 141.25 145.123C141.046 145.123 140.739 145.152 140.38 145.281C140.022 145.41 139.676 145.615 139.378 145.891C139.372 145.896 139.367 145.901 139.362 145.906C139.356 145.911 139.351 145.917 139.345 145.922C139.306 145.959 139.268 145.998 139.231 146.039C139.227 146.043 139.222 146.048 139.218 146.053C139.211 146.06 139.204 146.068 139.197 146.075H142.943ZM143.001 146.075H143.297C143.285 146.063 143.274 146.05 143.262 146.038C143.225 145.998 143.187 145.959 143.148 145.922L143.001 146.075ZM144.019 158H146.135V152.412C146.189 152.32 146.248 152.236 146.312 152.16C146.496 151.943 146.72 151.796 146.985 151.717C147.135 151.672 147.299 151.65 147.476 151.65C147.684 151.65 147.865 151.671 148.019 151.715C148.151 151.752 148.263 151.804 148.354 151.873C148.389 151.899 148.421 151.927 148.45 151.958C148.483 151.992 148.514 152.03 148.542 152.072C148.605 152.166 148.653 152.28 148.686 152.412C148.721 152.548 148.739 152.704 148.742 152.88C148.742 152.887 148.742 152.894 148.743 152.901C148.743 152.911 148.743 152.922 148.743 152.932V158H150.859V152.88C150.85 151.899 150.64 151.162 150.229 150.668C150.174 150.601 150.114 150.539 150.05 150.481C150.042 150.473 150.033 150.465 150.024 150.458C150.018 150.452 150.011 150.446 150.004 150.441C149.603 150.099 149.053 149.929 148.354 149.929C148.041 149.929 147.748 149.967 147.476 150.044C147.441 150.054 147.407 150.064 147.373 150.075C146.972 150.206 146.618 150.423 146.312 150.728C146.23 150.809 146.152 150.897 146.077 150.991L146.011 150.075H144.019V158ZM171.99 158H174.114V150.075H171.99V158ZM170.862 150.075H168.599L167.266 152.441L165.962 150.075H163.691L165.94 153.957L163.589 158H165.867L167.273 155.51L168.687 158H170.957L168.606 153.957L170.862 150.075ZM162.538 151.962C162.453 151.598 162.302 151.279 162.085 151.006C161.989 150.884 161.88 150.772 161.758 150.668C161.729 150.643 161.699 150.619 161.669 150.595C161.663 150.59 161.656 150.585 161.65 150.58C161.568 150.516 161.482 150.457 161.392 150.403C161.388 150.401 161.385 150.399 161.381 150.396C161.119 150.239 160.825 150.122 160.498 150.044C160.2 149.973 159.876 149.935 159.524 149.929C159.519 149.929 159.515 149.929 159.511 149.929C159.486 149.929 159.461 149.929 159.436 149.929C159.399 149.929 159.363 149.929 159.326 149.93C159.214 149.932 159.103 149.938 158.995 149.947C158.711 149.971 158.44 150.02 158.184 150.092C158.014 150.139 157.851 150.197 157.693 150.266C157.581 150.313 157.475 150.365 157.374 150.42C157.367 150.423 157.361 150.427 157.355 150.43C156.998 150.63 156.71 150.88 156.492 151.181C156.482 151.194 156.473 151.208 156.463 151.221C156.199 151.601 156.067 152.012 156.067 152.456H158.184C158.184 152.44 158.184 152.424 158.184 152.408C158.192 152.193 158.255 152.012 158.373 151.867C158.376 151.863 158.379 151.859 158.382 151.855C158.413 151.818 158.447 151.784 158.484 151.752C158.689 151.582 158.97 151.496 159.326 151.496C159.364 151.496 159.4 151.497 159.436 151.499C159.464 151.5 159.491 151.502 159.517 151.505C159.519 151.505 159.522 151.505 159.524 151.506C159.588 151.512 159.649 151.522 159.707 151.535C159.804 151.558 159.892 151.59 159.97 151.632C160.043 151.67 160.107 151.717 160.163 151.772C160.18 151.789 160.197 151.807 160.212 151.826C160.263 151.884 160.306 151.947 160.343 152.015C160.376 152.076 160.404 152.141 160.427 152.21C160.429 152.217 160.431 152.224 160.433 152.231C160.455 152.302 160.471 152.377 160.482 152.456C160.485 152.48 160.488 152.504 160.49 152.529C160.495 152.586 160.498 152.644 160.498 152.705V153.159H159.524C159.494 153.159 159.465 153.159 159.436 153.159C159.399 153.16 159.363 153.161 159.326 153.162C159.293 153.163 159.26 153.164 159.228 153.165C159.167 153.167 159.107 153.17 159.048 153.174C159.018 153.176 158.987 153.178 158.957 153.18C158.949 153.18 158.94 153.181 158.931 153.182C158.919 153.183 158.907 153.184 158.895 153.185C158.851 153.188 158.806 153.192 158.763 153.197C158.715 153.201 158.668 153.207 158.622 153.212C158.618 153.213 158.615 153.213 158.611 153.214C158.594 153.216 158.578 153.218 158.561 153.22C158.48 153.231 158.4 153.243 158.322 153.257C158.305 153.26 158.288 153.263 158.271 153.266C158.241 153.272 158.212 153.277 158.184 153.283C157.765 153.368 157.4 153.497 157.09 153.67C156.995 153.722 156.906 153.779 156.821 153.84C156.812 153.847 156.803 153.853 156.794 153.86C156.457 154.111 156.215 154.42 156.067 154.789C156.003 154.948 155.956 155.119 155.927 155.3C155.923 155.324 155.92 155.348 155.917 155.372C155.911 155.413 155.907 155.454 155.903 155.496C155.899 155.537 155.897 155.578 155.895 155.62C155.892 155.67 155.891 155.721 155.891 155.773C155.891 156.016 155.923 156.243 155.987 156.456C156.103 156.843 156.325 157.183 156.653 157.473C156.752 157.559 156.855 157.637 156.964 157.707C157.027 157.748 157.092 157.786 157.159 157.821C157.571 158.038 158.047 158.146 158.586 158.146C158.666 158.146 158.745 158.144 158.822 158.138C158.843 158.137 158.864 158.135 158.884 158.133C158.939 158.128 158.994 158.122 159.048 158.114C159.214 158.09 159.373 158.052 159.525 158C159.587 157.979 159.648 157.956 159.707 157.93C159.747 157.913 159.786 157.895 159.824 157.875C160.062 157.758 160.278 157.602 160.474 157.407C160.479 157.403 160.483 157.398 160.487 157.394C160.491 157.39 160.494 157.387 160.498 157.383C160.528 157.353 160.557 157.322 160.586 157.29C160.618 157.498 160.665 157.681 160.727 157.839C160.731 157.851 160.736 157.864 160.741 157.875C160.752 157.902 160.763 157.928 160.775 157.953C160.783 157.969 160.79 157.985 160.798 158H162.937V157.875C162.884 157.776 162.838 157.664 162.798 157.54C162.761 157.424 162.73 157.297 162.704 157.159C162.697 157.118 162.69 157.076 162.683 157.033C162.68 157.011 162.677 156.988 162.674 156.966C162.672 156.955 162.671 156.945 162.669 156.935C162.64 156.705 162.624 156.45 162.622 156.169V152.734C162.622 152.724 162.622 152.714 162.622 152.705C162.621 152.545 162.61 152.391 162.59 152.245C162.578 152.154 162.562 152.067 162.543 151.982C162.541 151.975 162.54 151.968 162.538 151.962ZM160.498 154.396H159.707C159.646 154.396 159.587 154.398 159.529 154.4C159.527 154.4 159.526 154.4 159.524 154.4C159.456 154.403 159.39 154.408 159.326 154.414C159.297 154.417 159.269 154.42 159.241 154.424C159.174 154.433 159.109 154.443 159.048 154.456C159.016 154.462 158.985 154.47 158.955 154.477C158.945 154.48 158.935 154.482 158.925 154.485C158.814 154.515 158.713 154.552 158.622 154.596C158.61 154.602 158.598 154.608 158.586 154.614C158.553 154.632 158.52 154.651 158.49 154.671C158.362 154.754 158.26 154.855 158.184 154.975C158.162 155.008 158.142 155.044 158.125 155.081C158.112 155.108 158.1 155.135 158.089 155.164C158.052 155.263 158.027 155.371 158.016 155.489C158.016 155.491 158.015 155.493 158.015 155.495L158.008 155.62C158.008 155.668 158.011 155.714 158.017 155.759C158.018 155.764 158.018 155.769 158.019 155.773C158.025 155.812 158.033 155.849 158.044 155.885C158.045 155.889 158.046 155.893 158.047 155.897C158.076 155.993 158.122 156.081 158.184 156.16C158.214 156.199 158.248 156.236 158.286 156.271C158.372 156.35 158.472 156.411 158.586 156.453C158.588 156.454 158.59 156.455 158.592 156.456C158.604 156.46 158.615 156.464 158.627 156.467C158.66 156.478 158.694 156.488 158.73 156.495C158.736 156.497 158.742 156.498 158.748 156.499C158.84 156.518 158.94 156.528 159.048 156.528C159.213 156.528 159.372 156.509 159.524 156.47C159.529 156.469 159.533 156.468 159.538 156.467C159.551 156.463 159.565 156.459 159.579 156.456C159.598 156.45 159.618 156.444 159.637 156.438C159.66 156.43 159.684 156.422 159.707 156.413C159.712 156.412 159.717 156.41 159.722 156.408C159.786 156.383 159.85 156.355 159.912 156.323C159.925 156.316 159.937 156.309 159.949 156.302C160.013 156.266 160.072 156.227 160.128 156.185C160.135 156.18 160.142 156.174 160.149 156.169C160.19 156.137 160.229 156.103 160.265 156.067C160.357 155.977 160.433 155.877 160.494 155.766C160.495 155.764 160.497 155.761 160.498 155.759V154.396ZM170.999 146.075H174.745L174.917 145.891C174.62 145.614 174.272 145.407 173.91 145.278C173.558 145.153 173.256 145.123 173.052 145.123C172.848 145.123 172.541 145.152 172.182 145.281C171.824 145.41 171.478 145.615 171.179 145.891C171.174 145.896 171.169 145.901 171.163 145.906C171.158 145.912 171.152 145.917 171.147 145.922C171.108 145.959 171.07 145.998 171.033 146.039C171.028 146.043 171.024 146.048 171.02 146.053C171.013 146.06 171.006 146.068 170.999 146.075ZM172.188 148.815C172.106 148.738 172.04 148.652 171.99 148.557C171.907 148.402 171.865 148.225 171.865 148.024C171.865 147.825 171.907 147.647 171.99 147.492C172.039 147.401 172.102 147.317 172.18 147.241C172.22 147.203 172.262 147.168 172.307 147.138C172.314 147.133 172.322 147.128 172.329 147.123C172.523 146.996 172.764 146.933 173.052 146.933C173.335 146.933 173.574 146.996 173.767 147.123C173.775 147.128 173.782 147.132 173.789 147.137C173.834 147.168 173.876 147.203 173.916 147.241C173.996 147.317 174.061 147.401 174.111 147.493C174.112 147.495 174.113 147.496 174.114 147.498C174.143 147.552 174.167 147.61 174.186 147.67C174.187 147.673 174.188 147.676 174.189 147.679C174.222 147.786 174.238 147.901 174.238 148.024C174.238 148.222 174.197 148.398 174.114 148.552C174.062 148.649 173.993 148.736 173.909 148.815C173.875 148.847 173.841 148.876 173.804 148.903C173.797 148.909 173.789 148.914 173.782 148.919C173.586 149.055 173.342 149.123 173.052 149.123C172.915 149.123 172.788 149.108 172.671 149.078C172.54 149.043 172.421 148.99 172.315 148.918C172.27 148.887 172.228 148.853 172.188 148.815ZM175.99 151.316C175.959 151.369 175.93 151.424 175.904 151.48C175.788 151.731 175.725 152.002 175.713 152.294C175.711 152.328 175.71 152.363 175.71 152.397C175.71 152.408 175.711 152.419 175.711 152.429C175.716 152.795 175.809 153.124 175.99 153.414C176.016 153.457 176.045 153.499 176.076 153.54C176.187 153.691 176.324 153.83 176.486 153.958C176.539 154.001 176.596 154.042 176.655 154.082C176.788 154.172 176.935 154.256 177.097 154.335C177.102 154.337 177.108 154.34 177.113 154.342C177.121 154.346 177.13 154.35 177.138 154.354C177.144 154.357 177.151 154.36 177.157 154.363C177.256 154.409 177.36 154.453 177.468 154.494C177.667 154.57 177.882 154.638 178.114 154.699C178.229 154.73 178.349 154.758 178.472 154.785C178.485 154.788 178.497 154.791 178.51 154.793C178.519 154.795 178.528 154.797 178.538 154.799C178.578 154.808 178.617 154.816 178.655 154.824C178.659 154.825 178.663 154.826 178.667 154.827C178.673 154.828 178.68 154.83 178.686 154.831C178.695 154.833 178.703 154.835 178.711 154.837C178.765 154.849 178.817 154.861 178.867 154.874C178.868 154.874 178.87 154.874 178.871 154.875C178.875 154.876 178.878 154.877 178.882 154.877C178.883 154.878 178.884 154.878 178.885 154.878C178.899 154.882 178.912 154.885 178.926 154.889C178.95 154.895 178.974 154.901 178.998 154.907C179.149 154.948 179.284 154.99 179.403 155.034C179.458 155.054 179.509 155.075 179.557 155.096C179.566 155.1 179.575 155.104 179.584 155.108C179.653 155.138 179.714 155.17 179.768 155.202C179.785 155.212 179.801 155.221 179.816 155.231C179.85 155.253 179.882 155.275 179.911 155.299C179.911 155.3 179.912 155.3 179.913 155.301C179.932 155.317 179.951 155.334 179.968 155.351C180.011 155.394 180.047 155.441 180.076 155.491C180.116 155.562 180.141 155.639 180.151 155.722C180.155 155.751 180.156 155.78 180.156 155.81C180.156 155.84 180.155 155.87 180.152 155.899C180.151 155.904 180.15 155.909 180.15 155.914C180.139 156 180.114 156.079 180.076 156.152C180.023 156.252 179.945 156.341 179.841 156.418C179.808 156.442 179.773 156.465 179.735 156.485C179.65 156.53 179.553 156.566 179.442 156.592C179.44 156.593 179.438 156.593 179.436 156.594C179.295 156.626 179.133 156.643 178.951 156.645C178.943 156.645 178.934 156.645 178.926 156.645C178.92 156.645 178.914 156.645 178.908 156.645C178.899 156.645 178.89 156.645 178.882 156.645C178.764 156.643 178.652 156.633 178.547 156.616C178.537 156.615 178.527 156.613 178.517 156.611C178.495 156.607 178.473 156.603 178.451 156.598C178.355 156.577 178.266 156.55 178.183 156.515C178.181 156.515 178.179 156.514 178.178 156.513C178.156 156.504 178.135 156.495 178.114 156.485C178.114 156.485 178.114 156.485 178.114 156.485C178.032 156.445 177.955 156.399 177.886 156.345C177.861 156.325 177.837 156.305 177.814 156.284C177.809 156.28 177.804 156.275 177.8 156.271C177.669 156.145 177.576 155.992 177.522 155.81C177.512 155.773 177.502 155.735 177.494 155.696C177.494 155.692 177.493 155.688 177.492 155.684C177.48 155.619 177.472 155.552 177.468 155.48H175.461C175.461 155.515 175.462 155.55 175.464 155.585C175.469 155.704 175.484 155.822 175.508 155.938C175.572 156.247 175.703 156.541 175.901 156.821C175.929 156.861 175.959 156.9 175.99 156.938C176.168 157.162 176.383 157.358 176.632 157.526C176.706 157.576 176.782 157.623 176.862 157.668C176.941 157.713 177.024 157.755 177.109 157.795C177.225 157.847 177.345 157.894 177.468 157.935C177.54 157.959 177.613 157.98 177.687 158C177.743 158.015 177.8 158.029 177.857 158.041C177.86 158.042 177.863 158.043 177.866 158.043C177.928 158.056 177.99 158.069 178.053 158.079C178.073 158.083 178.093 158.086 178.114 158.089C178.12 158.09 178.126 158.091 178.132 158.092C178.371 158.128 178.621 158.146 178.882 158.146C178.897 158.146 178.911 158.146 178.926 158.146C179.662 158.141 180.295 158.01 180.826 157.752C180.828 157.751 180.83 157.75 180.832 157.749C180.992 157.671 181.143 157.581 181.284 157.48C181.669 157.201 181.935 156.869 182.081 156.485C182.134 156.345 182.171 156.199 182.192 156.046C182.203 155.969 182.21 155.89 182.213 155.81C182.214 155.781 182.214 155.752 182.214 155.722C182.214 155.606 182.207 155.495 182.192 155.387C182.118 154.838 181.853 154.391 181.399 154.046C181.36 154.016 181.319 153.987 181.278 153.959C181.157 153.878 181.024 153.803 180.88 153.734C180.82 153.706 180.757 153.678 180.693 153.651C180.68 153.646 180.667 153.641 180.655 153.636C180.616 153.62 180.577 153.605 180.537 153.591C180.409 153.544 180.27 153.499 180.121 153.456C180.106 153.452 180.091 153.447 180.076 153.443C179.889 153.39 179.686 153.34 179.467 153.293C179.429 153.285 179.39 153.277 179.351 153.269C179.316 153.261 179.28 153.254 179.244 153.247C179.239 153.246 179.235 153.245 179.23 153.244C179.221 153.243 179.213 153.241 179.204 153.239C179.106 153.219 179.013 153.199 178.926 153.178C178.91 153.174 178.895 153.17 178.88 153.166C178.879 153.166 178.877 153.166 178.876 153.165C178.875 153.165 178.875 153.165 178.875 153.165C178.872 153.164 178.87 153.164 178.867 153.163C178.752 153.134 178.646 153.104 178.549 153.073C178.547 153.072 178.546 153.072 178.544 153.071C178.52 153.063 178.496 153.055 178.473 153.047C178.465 153.044 178.457 153.042 178.449 153.039C178.386 153.016 178.328 152.993 178.274 152.969C178.215 152.943 178.161 152.916 178.114 152.888C178.101 152.881 178.088 152.873 178.076 152.866C178.071 152.862 178.066 152.859 178.06 152.855C177.913 152.752 177.817 152.629 177.774 152.485C177.765 152.456 177.758 152.427 177.754 152.397C177.749 152.364 177.747 152.33 177.747 152.294C177.747 152.229 177.753 152.167 177.767 152.108C177.767 152.107 177.767 152.106 177.767 152.105C177.805 151.94 177.896 151.798 178.04 151.679C178.063 151.66 178.088 151.641 178.114 151.624C178.212 151.56 178.327 151.512 178.459 151.48C178.581 151.452 178.717 151.438 178.867 151.438C178.87 151.438 178.872 151.438 178.875 151.438C178.909 151.438 178.942 151.438 178.975 151.44C178.992 151.441 179.008 151.442 179.025 151.443C179.096 151.448 179.163 151.456 179.227 151.467C179.23 151.468 179.233 151.469 179.236 151.469C179.255 151.473 179.273 151.476 179.291 151.48C179.375 151.5 179.453 151.525 179.523 151.558C179.525 151.559 179.528 151.56 179.53 151.561C179.535 151.563 179.54 151.566 179.545 151.568C179.637 151.613 179.716 151.67 179.783 151.738C179.915 151.87 180.003 152.028 180.045 152.21C180.046 152.213 180.047 152.216 180.048 152.22C180.053 152.244 180.058 152.269 180.062 152.294C180.071 152.355 180.076 152.419 180.076 152.485H182.192C182.192 152.308 182.176 152.138 182.143 151.977C182.055 151.552 181.854 151.181 181.538 150.863C181.536 150.862 181.535 150.861 181.534 150.859C181.47 150.795 181.401 150.733 181.327 150.673C181.313 150.662 181.299 150.65 181.284 150.639C181.215 150.584 181.142 150.533 181.068 150.484C181.061 150.48 181.055 150.476 181.048 150.472C180.763 150.291 180.439 150.155 180.076 150.064C180.038 150.055 180 150.046 179.962 150.037C179.932 150.031 179.902 150.025 179.871 150.019C179.868 150.018 179.864 150.017 179.861 150.017C179.851 150.015 179.841 150.013 179.832 150.011C179.536 149.956 179.217 149.929 178.875 149.929C178.872 149.929 178.87 149.929 178.867 149.929C178.602 149.929 178.351 149.948 178.114 149.986C178.017 150.002 177.923 150.02 177.832 150.042C177.788 150.052 177.744 150.063 177.701 150.075C177.435 150.148 177.19 150.249 176.966 150.377C176.83 150.455 176.702 150.542 176.582 150.639C176.396 150.789 176.24 150.951 176.113 151.125C176.106 151.135 176.099 151.145 176.092 151.155C176.055 151.207 176.021 151.261 175.99 151.316ZM175.098 146.075H174.803L174.949 145.922C174.988 145.959 175.027 145.998 175.064 146.038C175.076 146.05 175.087 146.063 175.098 146.075ZM136.328 154.396H135.537C135.476 154.396 135.417 154.398 135.359 154.4C135.357 154.4 135.356 154.4 135.354 154.4C135.286 154.403 135.22 154.408 135.156 154.414C135.127 154.417 135.099 154.42 135.071 154.424C135.004 154.433 134.94 154.443 134.878 154.456C134.846 154.462 134.815 154.47 134.785 154.477C134.775 154.48 134.765 154.482 134.755 154.485C134.644 154.515 134.543 154.552 134.452 154.596C134.44 154.602 134.428 154.608 134.417 154.614C134.412 154.617 134.407 154.619 134.403 154.622C134.374 154.637 134.346 154.654 134.32 154.671C134.193 154.754 134.09 154.855 134.014 154.975C133.992 155.008 133.972 155.044 133.955 155.081C133.942 155.108 133.93 155.135 133.919 155.164C133.882 155.263 133.857 155.371 133.846 155.489C133.846 155.491 133.845 155.493 133.845 155.495L133.838 155.62C133.838 155.668 133.841 155.714 133.847 155.759C133.848 155.764 133.848 155.769 133.849 155.773C133.855 155.812 133.863 155.849 133.874 155.885C133.875 155.889 133.876 155.893 133.877 155.897C133.906 155.993 133.952 156.081 134.014 156.16C134.044 156.199 134.078 156.236 134.116 156.271C134.198 156.347 134.294 156.406 134.403 156.448C134.407 156.45 134.412 156.452 134.417 156.453C134.418 156.454 134.42 156.455 134.422 156.456C134.434 156.46 134.445 156.464 134.457 156.467C134.49 156.478 134.525 156.488 134.56 156.495C134.566 156.497 134.572 156.498 134.578 156.499C134.67 156.518 134.77 156.528 134.878 156.528C135.043 156.528 135.202 156.509 135.354 156.47C135.359 156.469 135.363 156.468 135.368 156.467C135.381 156.463 135.395 156.459 135.409 156.456C135.428 156.45 135.448 156.444 135.467 156.438C135.49 156.43 135.514 156.422 135.537 156.413C135.542 156.412 135.547 156.41 135.552 156.408C135.616 156.383 135.68 156.355 135.742 156.323C135.82 156.281 135.892 156.235 135.958 156.185C135.965 156.18 135.972 156.174 135.979 156.169C136.057 156.107 136.127 156.04 136.188 155.966C136.24 155.904 136.285 155.837 136.324 155.766C136.326 155.764 136.327 155.761 136.328 155.759V154.396Z" fill="white"/>
</svg>
