<svg width="620" height="283" viewBox="0 0 620 283" fill="none" xmlns="http://www.w3.org/2000/svg">
<rect x="49.5" y="48" width="517" height="205" rx="9" fill="#7187FB" stroke="#001EBB" stroke-width="2"/>
<path d="M416.26 195.49L416.304 196.545C417.001 195.725 417.941 195.314 419.125 195.314C420.455 195.314 421.36 195.824 421.841 196.844C422.157 196.387 422.567 196.018 423.071 195.736C423.581 195.455 424.182 195.314 424.873 195.314C426.959 195.314 428.02 196.419 428.055 198.628V205H426.429V198.725C426.429 198.045 426.273 197.538 425.963 197.204C425.652 196.864 425.131 196.694 424.398 196.694C423.795 196.694 423.294 196.876 422.896 197.239C422.497 197.597 422.266 198.08 422.201 198.689V205H420.566V198.769C420.566 197.386 419.89 196.694 418.536 196.694C417.47 196.694 416.74 197.148 416.348 198.057V205H414.722V195.49H416.26ZM436.387 205C436.293 204.812 436.217 204.479 436.158 203.998C435.402 204.783 434.5 205.176 433.451 205.176C432.514 205.176 431.743 204.912 431.14 204.385C430.542 203.852 430.243 203.178 430.243 202.363C430.243 201.373 430.618 200.605 431.368 200.061C432.124 199.51 433.185 199.234 434.55 199.234H436.132V198.487C436.132 197.919 435.962 197.468 435.622 197.134C435.282 196.794 434.781 196.624 434.119 196.624C433.539 196.624 433.053 196.771 432.66 197.063C432.268 197.356 432.071 197.711 432.071 198.127H430.437C430.437 197.652 430.604 197.195 430.938 196.756C431.277 196.311 431.734 195.959 432.309 195.701C432.889 195.443 433.524 195.314 434.216 195.314C435.312 195.314 436.17 195.59 436.791 196.141C437.412 196.686 437.734 197.438 437.758 198.399V202.776C437.758 203.649 437.869 204.344 438.092 204.859V205H436.387ZM433.688 203.761C434.198 203.761 434.682 203.629 435.139 203.365C435.596 203.102 435.927 202.759 436.132 202.337V200.386H434.857C432.865 200.386 431.869 200.969 431.869 202.135C431.869 202.645 432.039 203.043 432.379 203.33C432.719 203.617 433.155 203.761 433.688 203.761ZM442.073 205H440.447V195.49H442.073V205ZM440.315 192.968C440.315 192.704 440.395 192.481 440.553 192.3C440.717 192.118 440.957 192.027 441.273 192.027C441.59 192.027 441.83 192.118 441.994 192.3C442.158 192.481 442.24 192.704 442.24 192.968C442.24 193.231 442.158 193.451 441.994 193.627C441.83 193.803 441.59 193.891 441.273 193.891C440.957 193.891 440.717 193.803 440.553 193.627C440.395 193.451 440.315 193.231 440.315 192.968ZM446.222 195.49L446.274 196.686C447.001 195.771 447.95 195.314 449.122 195.314C451.132 195.314 452.146 196.448 452.163 198.716V205H450.537V198.707C450.531 198.021 450.373 197.515 450.062 197.187C449.758 196.858 449.28 196.694 448.63 196.694C448.103 196.694 447.64 196.835 447.241 197.116C446.843 197.397 446.532 197.767 446.31 198.224V205H444.684V195.49H446.222ZM464.951 205C464.857 204.812 464.781 204.479 464.723 203.998C463.967 204.783 463.064 205.176 462.016 205.176C461.078 205.176 460.308 204.912 459.704 204.385C459.106 203.852 458.808 203.178 458.808 202.363C458.808 201.373 459.183 200.605 459.933 200.061C460.688 199.51 461.749 199.234 463.114 199.234H464.696V198.487C464.696 197.919 464.526 197.468 464.187 197.134C463.847 196.794 463.346 196.624 462.684 196.624C462.104 196.624 461.617 196.771 461.225 197.063C460.832 197.356 460.636 197.711 460.636 198.127H459.001C459.001 197.652 459.168 197.195 459.502 196.756C459.842 196.311 460.299 195.959 460.873 195.701C461.453 195.443 462.089 195.314 462.78 195.314C463.876 195.314 464.734 195.59 465.355 196.141C465.977 196.686 466.299 197.438 466.322 198.399V202.776C466.322 203.649 466.434 204.344 466.656 204.859V205H464.951ZM462.253 203.761C462.763 203.761 463.246 203.629 463.703 203.365C464.16 203.102 464.491 202.759 464.696 202.337V200.386H463.422C461.43 200.386 460.434 200.969 460.434 202.135C460.434 202.645 460.604 203.043 460.943 203.33C461.283 203.617 461.72 203.761 462.253 203.761ZM472.062 198.962L474.171 195.49H476.069L472.958 200.192L476.166 205H474.285L472.088 201.44L469.891 205H468.001L471.209 200.192L468.098 195.49H469.979L472.062 198.962ZM479.567 205H477.941V195.49H479.567V205ZM477.81 192.968C477.81 192.704 477.889 192.481 478.047 192.3C478.211 192.118 478.451 192.027 478.768 192.027C479.084 192.027 479.324 192.118 479.488 192.3C479.652 192.481 479.734 192.704 479.734 192.968C479.734 193.231 479.652 193.451 479.488 193.627C479.324 193.803 479.084 193.891 478.768 193.891C478.451 193.891 478.211 193.803 478.047 193.627C477.889 193.451 477.81 193.231 477.81 192.968ZM487.715 202.478C487.715 202.038 487.548 201.698 487.214 201.458C486.886 201.212 486.309 201.001 485.482 200.825C484.662 200.649 484.009 200.438 483.522 200.192C483.042 199.946 482.685 199.653 482.45 199.313C482.222 198.974 482.107 198.569 482.107 198.101C482.107 197.321 482.436 196.662 483.092 196.123C483.754 195.584 484.598 195.314 485.623 195.314C486.701 195.314 487.574 195.593 488.242 196.149C488.916 196.706 489.253 197.418 489.253 198.285H487.618C487.618 197.84 487.428 197.456 487.047 197.134C486.672 196.812 486.197 196.65 485.623 196.65C485.031 196.65 484.568 196.779 484.234 197.037C483.9 197.295 483.733 197.632 483.733 198.048C483.733 198.44 483.889 198.736 484.199 198.936C484.51 199.135 485.069 199.325 485.878 199.507C486.692 199.688 487.352 199.905 487.855 200.157C488.359 200.409 488.731 200.714 488.972 201.071C489.218 201.423 489.341 201.854 489.341 202.363C489.341 203.213 489.001 203.896 488.321 204.411C487.642 204.921 486.76 205.176 485.676 205.176C484.914 205.176 484.24 205.041 483.654 204.771C483.068 204.502 482.608 204.127 482.274 203.646C481.946 203.16 481.782 202.636 481.782 202.073H483.408C483.438 202.618 483.654 203.052 484.059 203.374C484.469 203.69 485.008 203.849 485.676 203.849C486.291 203.849 486.783 203.726 487.152 203.479C487.527 203.228 487.715 202.894 487.715 202.478Z" fill="#FFF000"/>
<path d="M59.2598 269.49L59.3037 270.545C60.001 269.725 60.9414 269.314 62.125 269.314C63.4551 269.314 64.3604 269.824 64.8408 270.844C65.1572 270.387 65.5674 270.018 66.0713 269.736C66.5811 269.455 67.1816 269.314 67.873 269.314C69.959 269.314 71.0195 270.419 71.0547 272.628V279H69.4287V272.725C69.4287 272.045 69.2734 271.538 68.9629 271.204C68.6523 270.864 68.1309 270.694 67.3984 270.694C66.7949 270.694 66.2939 270.876 65.8955 271.239C65.4971 271.597 65.2656 272.08 65.2012 272.689V279H63.5664V272.769C63.5664 271.386 62.8896 270.694 61.5361 270.694C60.4697 270.694 59.7402 271.148 59.3477 272.057V279H57.7217V269.49H59.2598ZM79.3867 279C79.293 278.812 79.2168 278.479 79.1582 277.998C78.4023 278.783 77.5 279.176 76.4512 279.176C75.5137 279.176 74.7432 278.912 74.1396 278.385C73.542 277.852 73.2432 277.178 73.2432 276.363C73.2432 275.373 73.6182 274.605 74.3682 274.061C75.124 273.51 76.1846 273.234 77.5498 273.234H79.1318V272.487C79.1318 271.919 78.9619 271.468 78.6221 271.134C78.2822 270.794 77.7812 270.624 77.1191 270.624C76.5391 270.624 76.0527 270.771 75.6602 271.063C75.2676 271.356 75.0713 271.711 75.0713 272.127H73.4365C73.4365 271.652 73.6035 271.195 73.9375 270.756C74.2773 270.311 74.7344 269.959 75.3086 269.701C75.8887 269.443 76.5244 269.314 77.2158 269.314C78.3115 269.314 79.1699 269.59 79.791 270.141C80.4121 270.686 80.7344 271.438 80.7578 272.399V276.776C80.7578 277.649 80.8691 278.344 81.0918 278.859V279H79.3867ZM76.6885 277.761C77.1982 277.761 77.6816 277.629 78.1387 277.365C78.5957 277.102 78.9268 276.759 79.1318 276.337V274.386H77.8574C75.8652 274.386 74.8691 274.969 74.8691 276.135C74.8691 276.645 75.0391 277.043 75.3789 277.33C75.7188 277.617 76.1553 277.761 76.6885 277.761ZM85.0732 279H83.4473V269.49H85.0732V279ZM83.3154 266.968C83.3154 266.704 83.3945 266.481 83.5527 266.3C83.7168 266.118 83.957 266.027 84.2734 266.027C84.5898 266.027 84.8301 266.118 84.9941 266.3C85.1582 266.481 85.2402 266.704 85.2402 266.968C85.2402 267.231 85.1582 267.451 84.9941 267.627C84.8301 267.803 84.5898 267.891 84.2734 267.891C83.957 267.891 83.7168 267.803 83.5527 267.627C83.3945 267.451 83.3154 267.231 83.3154 266.968ZM89.2217 269.49L89.2744 270.686C90.001 269.771 90.9502 269.314 92.1221 269.314C94.1318 269.314 95.1455 270.448 95.1631 272.716V279H93.5371V272.707C93.5312 272.021 93.373 271.515 93.0625 271.187C92.7578 270.858 92.2803 270.694 91.6299 270.694C91.1025 270.694 90.6396 270.835 90.2412 271.116C89.8428 271.397 89.5322 271.767 89.3096 272.224V279H87.6836V269.49H89.2217ZM107.617 276.478C107.617 276.038 107.45 275.698 107.116 275.458C106.788 275.212 106.211 275.001 105.385 274.825C104.564 274.649 103.911 274.438 103.425 274.192C102.944 273.946 102.587 273.653 102.353 273.313C102.124 272.974 102.01 272.569 102.01 272.101C102.01 271.321 102.338 270.662 102.994 270.123C103.656 269.584 104.5 269.314 105.525 269.314C106.604 269.314 107.477 269.593 108.145 270.149C108.818 270.706 109.155 271.418 109.155 272.285H107.521C107.521 271.84 107.33 271.456 106.949 271.134C106.574 270.812 106.1 270.65 105.525 270.65C104.934 270.65 104.471 270.779 104.137 271.037C103.803 271.295 103.636 271.632 103.636 272.048C103.636 272.44 103.791 272.736 104.102 272.936C104.412 273.135 104.972 273.325 105.78 273.507C106.595 273.688 107.254 273.905 107.758 274.157C108.262 274.409 108.634 274.714 108.874 275.071C109.12 275.423 109.243 275.854 109.243 276.363C109.243 277.213 108.903 277.896 108.224 278.411C107.544 278.921 106.662 279.176 105.578 279.176C104.816 279.176 104.143 279.041 103.557 278.771C102.971 278.502 102.511 278.127 102.177 277.646C101.849 277.16 101.685 276.636 101.685 276.073H103.311C103.34 276.618 103.557 277.052 103.961 277.374C104.371 277.69 104.91 277.849 105.578 277.849C106.193 277.849 106.686 277.726 107.055 277.479C107.43 277.228 107.617 276.894 107.617 276.478ZM113.567 267.188V269.49H115.343V270.747H113.567V276.645C113.567 277.025 113.646 277.312 113.805 277.506C113.963 277.693 114.232 277.787 114.613 277.787C114.801 277.787 115.059 277.752 115.387 277.682V279C114.959 279.117 114.543 279.176 114.139 279.176C113.412 279.176 112.864 278.956 112.495 278.517C112.126 278.077 111.941 277.453 111.941 276.645V270.747H110.21V269.49H111.941V267.188H113.567ZM123.121 279C123.027 278.812 122.951 278.479 122.893 277.998C122.137 278.783 121.234 279.176 120.186 279.176C119.248 279.176 118.478 278.912 117.874 278.385C117.276 277.852 116.978 277.178 116.978 276.363C116.978 275.373 117.353 274.605 118.103 274.061C118.858 273.51 119.919 273.234 121.284 273.234H122.866V272.487C122.866 271.919 122.696 271.468 122.356 271.134C122.017 270.794 121.516 270.624 120.854 270.624C120.273 270.624 119.787 270.771 119.395 271.063C119.002 271.356 118.806 271.711 118.806 272.127H117.171C117.171 271.652 117.338 271.195 117.672 270.756C118.012 270.311 118.469 269.959 119.043 269.701C119.623 269.443 120.259 269.314 120.95 269.314C122.046 269.314 122.904 269.59 123.525 270.141C124.146 270.686 124.469 271.438 124.492 272.399V276.776C124.492 277.649 124.604 278.344 124.826 278.859V279H123.121ZM120.423 277.761C120.933 277.761 121.416 277.629 121.873 277.365C122.33 277.102 122.661 276.759 122.866 276.337V274.386H121.592C119.6 274.386 118.604 274.969 118.604 276.135C118.604 276.645 118.773 277.043 119.113 277.33C119.453 277.617 119.89 277.761 120.423 277.761ZM131.638 270.949C131.392 270.908 131.125 270.888 130.838 270.888C129.771 270.888 129.048 271.342 128.667 272.25V279H127.041V269.49H128.623L128.649 270.589C129.183 269.739 129.938 269.314 130.917 269.314C131.233 269.314 131.474 269.355 131.638 269.438V270.949ZM135.786 267.188V269.49H137.562V270.747H135.786V276.645C135.786 277.025 135.865 277.312 136.023 277.506C136.182 277.693 136.451 277.787 136.832 277.787C137.02 277.787 137.277 277.752 137.605 277.682V279C137.178 279.117 136.762 279.176 136.357 279.176C135.631 279.176 135.083 278.956 134.714 278.517C134.345 278.077 134.16 277.453 134.16 276.645V270.747H132.429V269.49H134.16V267.188H135.786Z" fill="#001EBB"/>
<path d="M487.273 269.49L487.317 270.545C488.015 269.725 488.955 269.314 490.139 269.314C491.469 269.314 492.374 269.824 492.854 270.844C493.171 270.387 493.581 270.018 494.085 269.736C494.595 269.455 495.195 269.314 495.887 269.314C497.973 269.314 499.033 270.419 499.068 272.628V279H497.442V272.725C497.442 272.045 497.287 271.538 496.977 271.204C496.666 270.864 496.145 270.694 495.412 270.694C494.809 270.694 494.308 270.876 493.909 271.239C493.511 271.597 493.279 272.08 493.215 272.689V279H491.58V272.769C491.58 271.386 490.903 270.694 489.55 270.694C488.483 270.694 487.754 271.148 487.361 272.057V279H485.735V269.49H487.273ZM507.4 279C507.307 278.812 507.23 278.479 507.172 277.998C506.416 278.783 505.514 279.176 504.465 279.176C503.527 279.176 502.757 278.912 502.153 278.385C501.556 277.852 501.257 277.178 501.257 276.363C501.257 275.373 501.632 274.605 502.382 274.061C503.138 273.51 504.198 273.234 505.563 273.234H507.146V272.487C507.146 271.919 506.976 271.468 506.636 271.134C506.296 270.794 505.795 270.624 505.133 270.624C504.553 270.624 504.066 270.771 503.674 271.063C503.281 271.356 503.085 271.711 503.085 272.127H501.45C501.45 271.652 501.617 271.195 501.951 270.756C502.291 270.311 502.748 269.959 503.322 269.701C503.902 269.443 504.538 269.314 505.229 269.314C506.325 269.314 507.184 269.59 507.805 270.141C508.426 270.686 508.748 271.438 508.771 272.399V276.776C508.771 277.649 508.883 278.344 509.105 278.859V279H507.4ZM504.702 277.761C505.212 277.761 505.695 277.629 506.152 277.365C506.609 277.102 506.94 276.759 507.146 276.337V274.386H505.871C503.879 274.386 502.883 274.969 502.883 276.135C502.883 276.645 503.053 277.043 503.393 277.33C503.732 277.617 504.169 277.761 504.702 277.761ZM513.087 279H511.461V269.49H513.087V279ZM511.329 266.968C511.329 266.704 511.408 266.481 511.566 266.3C511.73 266.118 511.971 266.027 512.287 266.027C512.604 266.027 512.844 266.118 513.008 266.3C513.172 266.481 513.254 266.704 513.254 266.968C513.254 267.231 513.172 267.451 513.008 267.627C512.844 267.803 512.604 267.891 512.287 267.891C511.971 267.891 511.73 267.803 511.566 267.627C511.408 267.451 511.329 267.231 511.329 266.968ZM517.235 269.49L517.288 270.686C518.015 269.771 518.964 269.314 520.136 269.314C522.146 269.314 523.159 270.448 523.177 272.716V279H521.551V272.707C521.545 272.021 521.387 271.515 521.076 271.187C520.771 270.858 520.294 270.694 519.644 270.694C519.116 270.694 518.653 270.835 518.255 271.116C517.856 271.397 517.546 271.767 517.323 272.224V279H515.697V269.49H517.235ZM534.04 279.176C532.751 279.176 531.702 278.754 530.894 277.91C530.085 277.061 529.681 275.927 529.681 274.509V274.21C529.681 273.267 529.859 272.426 530.217 271.688C530.58 270.943 531.084 270.363 531.729 269.947C532.379 269.525 533.082 269.314 533.838 269.314C535.074 269.314 536.035 269.722 536.721 270.536C537.406 271.351 537.749 272.517 537.749 274.034V274.711H531.307C531.33 275.648 531.603 276.407 532.124 276.987C532.651 277.562 533.319 277.849 534.128 277.849C534.702 277.849 535.188 277.731 535.587 277.497C535.985 277.263 536.334 276.952 536.633 276.565L537.626 277.339C536.829 278.563 535.634 279.176 534.04 279.176ZM533.838 270.65C533.182 270.65 532.631 270.891 532.186 271.371C531.74 271.846 531.465 272.514 531.359 273.375H536.123V273.252C536.076 272.426 535.854 271.787 535.455 271.336C535.057 270.879 534.518 270.65 533.838 270.65ZM541.177 269.49L541.229 270.686C541.956 269.771 542.905 269.314 544.077 269.314C546.087 269.314 547.101 270.448 547.118 272.716V279H545.492V272.707C545.486 272.021 545.328 271.515 545.018 271.187C544.713 270.858 544.235 270.694 543.585 270.694C543.058 270.694 542.595 270.835 542.196 271.116C541.798 271.397 541.487 271.767 541.265 272.224V279H539.639V269.49H541.177ZM549.175 274.166C549.175 272.707 549.521 271.535 550.212 270.65C550.903 269.76 551.809 269.314 552.928 269.314C554.041 269.314 554.923 269.695 555.573 270.457V265.5H557.199V279H555.705L555.626 277.98C554.976 278.777 554.07 279.176 552.91 279.176C551.809 279.176 550.909 278.725 550.212 277.822C549.521 276.92 549.175 275.742 549.175 274.289V274.166ZM550.801 274.351C550.801 275.429 551.023 276.272 551.469 276.882C551.914 277.491 552.529 277.796 553.314 277.796C554.346 277.796 555.099 277.333 555.573 276.407V272.039C555.087 271.143 554.34 270.694 553.332 270.694C552.535 270.694 551.914 271.002 551.469 271.617C551.023 272.232 550.801 273.144 550.801 274.351Z" fill="#001EBB"/>
<path d="M579.545 222.849C580.125 222.849 580.632 222.673 581.065 222.321C581.499 221.97 581.739 221.53 581.786 221.003H583.324C583.295 221.548 583.107 222.066 582.762 222.559C582.416 223.051 581.953 223.443 581.373 223.736C580.799 224.029 580.189 224.176 579.545 224.176C578.25 224.176 577.219 223.745 576.451 222.884C575.689 222.017 575.309 220.833 575.309 219.333V219.061C575.309 218.135 575.479 217.312 575.818 216.591C576.158 215.87 576.645 215.311 577.277 214.912C577.916 214.514 578.669 214.314 579.536 214.314C580.603 214.314 581.487 214.634 582.19 215.272C582.899 215.911 583.277 216.74 583.324 217.76H581.786C581.739 217.145 581.505 216.641 581.083 216.248C580.667 215.85 580.151 215.65 579.536 215.65C578.71 215.65 578.068 215.949 577.611 216.547C577.16 217.139 576.935 217.997 576.935 219.122V219.43C576.935 220.525 577.16 221.369 577.611 221.961C578.062 222.553 578.707 222.849 579.545 222.849ZM589.749 215.949C589.503 215.908 589.236 215.888 588.949 215.888C587.883 215.888 587.159 216.342 586.778 217.25V224H585.152V214.49H586.734L586.761 215.589C587.294 214.739 588.05 214.314 589.028 214.314C589.345 214.314 589.585 214.355 589.749 214.438V215.949ZM590.646 219.157C590.646 218.226 590.827 217.388 591.19 216.644C591.56 215.899 592.069 215.325 592.72 214.921C593.376 214.517 594.123 214.314 594.961 214.314C596.256 214.314 597.302 214.763 598.099 215.659C598.901 216.556 599.303 217.748 599.303 219.236V219.351C599.303 220.276 599.124 221.108 598.767 221.847C598.415 222.579 597.908 223.15 597.246 223.561C596.59 223.971 595.834 224.176 594.979 224.176C593.689 224.176 592.644 223.728 591.841 222.831C591.044 221.935 590.646 220.748 590.646 219.271V219.157ZM592.28 219.351C592.28 220.405 592.523 221.252 593.01 221.891C593.502 222.529 594.158 222.849 594.979 222.849C595.805 222.849 596.461 222.526 596.947 221.882C597.434 221.231 597.677 220.323 597.677 219.157C597.677 218.114 597.428 217.271 596.93 216.626C596.438 215.976 595.781 215.65 594.961 215.65C594.158 215.65 593.511 215.97 593.019 216.608C592.526 217.247 592.28 218.161 592.28 219.351ZM606.879 221.478C606.879 221.038 606.712 220.698 606.378 220.458C606.05 220.212 605.473 220.001 604.646 219.825C603.826 219.649 603.173 219.438 602.687 219.192C602.206 218.946 601.849 218.653 601.614 218.313C601.386 217.974 601.271 217.569 601.271 217.101C601.271 216.321 601.6 215.662 602.256 215.123C602.918 214.584 603.762 214.314 604.787 214.314C605.865 214.314 606.738 214.593 607.406 215.149C608.08 215.706 608.417 216.418 608.417 217.285H606.782C606.782 216.84 606.592 216.456 606.211 216.134C605.836 215.812 605.361 215.65 604.787 215.65C604.195 215.65 603.732 215.779 603.398 216.037C603.064 216.295 602.897 216.632 602.897 217.048C602.897 217.44 603.053 217.736 603.363 217.936C603.674 218.135 604.233 218.325 605.042 218.507C605.856 218.688 606.516 218.905 607.02 219.157C607.523 219.409 607.896 219.714 608.136 220.071C608.382 220.423 608.505 220.854 608.505 221.363C608.505 222.213 608.165 222.896 607.485 223.411C606.806 223.921 605.924 224.176 604.84 224.176C604.078 224.176 603.404 224.041 602.818 223.771C602.232 223.502 601.772 223.127 601.438 222.646C601.11 222.16 600.946 221.636 600.946 221.073H602.572C602.602 221.618 602.818 222.052 603.223 222.374C603.633 222.69 604.172 222.849 604.84 222.849C605.455 222.849 605.947 222.726 606.316 222.479C606.691 222.228 606.879 221.894 606.879 221.478ZM616.16 221.478C616.16 221.038 615.993 220.698 615.659 220.458C615.331 220.212 614.754 220.001 613.928 219.825C613.107 219.649 612.454 219.438 611.968 219.192C611.487 218.946 611.13 218.653 610.896 218.313C610.667 217.974 610.553 217.569 610.553 217.101C610.553 216.321 610.881 215.662 611.537 215.123C612.199 214.584 613.043 214.314 614.068 214.314C615.146 214.314 616.02 214.593 616.688 215.149C617.361 215.706 617.698 216.418 617.698 217.285H616.063C616.063 216.84 615.873 216.456 615.492 216.134C615.117 215.812 614.643 215.65 614.068 215.65C613.477 215.65 613.014 215.779 612.68 216.037C612.346 216.295 612.179 216.632 612.179 217.048C612.179 217.44 612.334 217.736 612.645 217.936C612.955 218.135 613.515 218.325 614.323 218.507C615.138 218.688 615.797 218.905 616.301 219.157C616.805 219.409 617.177 219.714 617.417 220.071C617.663 220.423 617.786 220.854 617.786 221.363C617.786 222.213 617.446 222.896 616.767 223.411C616.087 223.921 615.205 224.176 614.121 224.176C613.359 224.176 612.686 224.041 612.1 223.771C611.514 223.502 611.054 223.127 610.72 222.646C610.392 222.16 610.228 221.636 610.228 221.073H611.854C611.883 221.618 612.1 222.052 612.504 222.374C612.914 222.69 613.453 222.849 614.121 222.849C614.736 222.849 615.229 222.726 615.598 222.479C615.973 222.228 616.16 221.894 616.16 221.478ZM579.677 242.176C578.388 242.176 577.339 241.754 576.53 240.91C575.722 240.061 575.317 238.927 575.317 237.509V237.21C575.317 236.267 575.496 235.426 575.854 234.688C576.217 233.943 576.721 233.363 577.365 232.947C578.016 232.525 578.719 232.314 579.475 232.314C580.711 232.314 581.672 232.722 582.357 233.536C583.043 234.351 583.386 235.517 583.386 237.034V237.711H576.943C576.967 238.648 577.239 239.407 577.761 239.987C578.288 240.562 578.956 240.849 579.765 240.849C580.339 240.849 580.825 240.731 581.224 240.497C581.622 240.263 581.971 239.952 582.27 239.565L583.263 240.339C582.466 241.563 581.271 242.176 579.677 242.176ZM579.475 233.65C578.818 233.65 578.268 233.891 577.822 234.371C577.377 234.846 577.102 235.514 576.996 236.375H581.76V236.252C581.713 235.426 581.49 234.787 581.092 234.336C580.693 233.879 580.154 233.65 579.475 233.65ZM586.813 232.49L586.866 233.686C587.593 232.771 588.542 232.314 589.714 232.314C591.724 232.314 592.737 233.448 592.755 235.716V242H591.129V235.707C591.123 235.021 590.965 234.515 590.654 234.187C590.35 233.858 589.872 233.694 589.222 233.694C588.694 233.694 588.231 233.835 587.833 234.116C587.435 234.397 587.124 234.767 586.901 235.224V242H585.275V232.49H586.813ZM594.812 237.166C594.812 235.707 595.157 234.535 595.849 233.65C596.54 232.76 597.445 232.314 598.564 232.314C599.678 232.314 600.56 232.695 601.21 233.457V228.5H602.836V242H601.342L601.263 240.98C600.612 241.777 599.707 242.176 598.547 242.176C597.445 242.176 596.546 241.725 595.849 240.822C595.157 239.92 594.812 238.742 594.812 237.289V237.166ZM596.438 237.351C596.438 238.429 596.66 239.272 597.105 239.882C597.551 240.491 598.166 240.796 598.951 240.796C599.982 240.796 600.735 240.333 601.21 239.407V235.039C600.724 234.143 599.977 233.694 598.969 233.694C598.172 233.694 597.551 234.002 597.105 234.617C596.66 235.232 596.438 236.144 596.438 237.351Z" fill="#001EBB"/>
<path d="M579.545 67.8486C580.125 67.8486 580.632 67.6729 581.065 67.3213C581.499 66.9697 581.739 66.5303 581.786 66.0029H583.324C583.295 66.5479 583.107 67.0664 582.762 67.5586C582.416 68.0508 581.953 68.4434 581.373 68.7363C580.799 69.0293 580.189 69.1758 579.545 69.1758C578.25 69.1758 577.219 68.7451 576.451 67.8838C575.689 67.0166 575.309 65.833 575.309 64.333V64.0605C575.309 63.1348 575.479 62.3115 575.818 61.5908C576.158 60.8701 576.645 60.3105 577.277 59.9121C577.916 59.5137 578.669 59.3145 579.536 59.3145C580.603 59.3145 581.487 59.6338 582.19 60.2725C582.899 60.9111 583.277 61.7402 583.324 62.7598H581.786C581.739 62.1445 581.505 61.6406 581.083 61.248C580.667 60.8496 580.151 60.6504 579.536 60.6504C578.71 60.6504 578.068 60.9492 577.611 61.5469C577.16 62.1387 576.935 62.9971 576.935 64.1221V64.4297C576.935 65.5254 577.16 66.3691 577.611 66.9609C578.062 67.5527 578.707 67.8486 579.545 67.8486ZM589.749 60.9492C589.503 60.9082 589.236 60.8877 588.949 60.8877C587.883 60.8877 587.159 61.3418 586.778 62.25V69H585.152V59.4902H586.734L586.761 60.5889C587.294 59.7393 588.05 59.3145 589.028 59.3145C589.345 59.3145 589.585 59.3555 589.749 59.4375V60.9492ZM590.646 64.1572C590.646 63.2256 590.827 62.3877 591.19 61.6436C591.56 60.8994 592.069 60.3252 592.72 59.9209C593.376 59.5166 594.123 59.3145 594.961 59.3145C596.256 59.3145 597.302 59.7627 598.099 60.6592C598.901 61.5557 599.303 62.748 599.303 64.2363V64.3506C599.303 65.2764 599.124 66.1084 598.767 66.8467C598.415 67.5791 597.908 68.1504 597.246 68.5605C596.59 68.9707 595.834 69.1758 594.979 69.1758C593.689 69.1758 592.644 68.7275 591.841 67.8311C591.044 66.9346 590.646 65.748 590.646 64.2715V64.1572ZM592.28 64.3506C592.28 65.4053 592.523 66.252 593.01 66.8906C593.502 67.5293 594.158 67.8486 594.979 67.8486C595.805 67.8486 596.461 67.5264 596.947 66.8818C597.434 66.2314 597.677 65.3232 597.677 64.1572C597.677 63.1143 597.428 62.2705 596.93 61.626C596.438 60.9756 595.781 60.6504 594.961 60.6504C594.158 60.6504 593.511 60.9697 593.019 61.6084C592.526 62.2471 592.28 63.1611 592.28 64.3506ZM606.879 66.4775C606.879 66.0381 606.712 65.6982 606.378 65.458C606.05 65.2119 605.473 65.001 604.646 64.8252C603.826 64.6494 603.173 64.4385 602.687 64.1924C602.206 63.9463 601.849 63.6533 601.614 63.3135C601.386 62.9736 601.271 62.5693 601.271 62.1006C601.271 61.3213 601.6 60.6621 602.256 60.123C602.918 59.584 603.762 59.3145 604.787 59.3145C605.865 59.3145 606.738 59.5928 607.406 60.1494C608.08 60.7061 608.417 61.418 608.417 62.2852H606.782C606.782 61.8398 606.592 61.4561 606.211 61.1338C605.836 60.8115 605.361 60.6504 604.787 60.6504C604.195 60.6504 603.732 60.7793 603.398 61.0371C603.064 61.2949 602.897 61.6318 602.897 62.0479C602.897 62.4404 603.053 62.7363 603.363 62.9355C603.674 63.1348 604.233 63.3252 605.042 63.5068C605.856 63.6885 606.516 63.9053 607.02 64.1572C607.523 64.4092 607.896 64.7139 608.136 65.0713C608.382 65.4229 608.505 65.8535 608.505 66.3633C608.505 67.2129 608.165 67.8955 607.485 68.4111C606.806 68.9209 605.924 69.1758 604.84 69.1758C604.078 69.1758 603.404 69.041 602.818 68.7715C602.232 68.502 601.772 68.127 601.438 67.6465C601.11 67.1602 600.946 66.6357 600.946 66.0732H602.572C602.602 66.6182 602.818 67.0518 603.223 67.374C603.633 67.6904 604.172 67.8486 604.84 67.8486C605.455 67.8486 605.947 67.7256 606.316 67.4795C606.691 67.2275 606.879 66.8936 606.879 66.4775ZM616.16 66.4775C616.16 66.0381 615.993 65.6982 615.659 65.458C615.331 65.2119 614.754 65.001 613.928 64.8252C613.107 64.6494 612.454 64.4385 611.968 64.1924C611.487 63.9463 611.13 63.6533 610.896 63.3135C610.667 62.9736 610.553 62.5693 610.553 62.1006C610.553 61.3213 610.881 60.6621 611.537 60.123C612.199 59.584 613.043 59.3145 614.068 59.3145C615.146 59.3145 616.02 59.5928 616.688 60.1494C617.361 60.7061 617.698 61.418 617.698 62.2852H616.063C616.063 61.8398 615.873 61.4561 615.492 61.1338C615.117 60.8115 614.643 60.6504 614.068 60.6504C613.477 60.6504 613.014 60.7793 612.68 61.0371C612.346 61.2949 612.179 61.6318 612.179 62.0479C612.179 62.4404 612.334 62.7363 612.645 62.9355C612.955 63.1348 613.515 63.3252 614.323 63.5068C615.138 63.6885 615.797 63.9053 616.301 64.1572C616.805 64.4092 617.177 64.7139 617.417 65.0713C617.663 65.4229 617.786 65.8535 617.786 66.3633C617.786 67.2129 617.446 67.8955 616.767 68.4111C616.087 68.9209 615.205 69.1758 614.121 69.1758C613.359 69.1758 612.686 69.041 612.1 68.7715C611.514 68.502 611.054 68.127 610.72 67.6465C610.392 67.1602 610.228 66.6357 610.228 66.0732H611.854C611.883 66.6182 612.1 67.0518 612.504 67.374C612.914 67.6904 613.453 67.8486 614.121 67.8486C614.736 67.8486 615.229 67.7256 615.598 67.4795C615.973 67.2275 616.16 66.8936 616.16 66.4775ZM581.268 84.4775C581.268 84.0381 581.101 83.6982 580.767 83.458C580.438 83.2119 579.861 83.001 579.035 82.8252C578.215 82.6494 577.562 82.4385 577.075 82.1924C576.595 81.9463 576.237 81.6533 576.003 81.3135C575.774 80.9736 575.66 80.5693 575.66 80.1006C575.66 79.3213 575.988 78.6621 576.645 78.123C577.307 77.584 578.15 77.3145 579.176 77.3145C580.254 77.3145 581.127 77.5928 581.795 78.1494C582.469 78.7061 582.806 79.418 582.806 80.2852H581.171C581.171 79.8398 580.98 79.4561 580.6 79.1338C580.225 78.8115 579.75 78.6504 579.176 78.6504C578.584 78.6504 578.121 78.7793 577.787 79.0371C577.453 79.2949 577.286 79.6318 577.286 80.0479C577.286 80.4404 577.441 80.7363 577.752 80.9355C578.062 81.1348 578.622 81.3252 579.431 81.5068C580.245 81.6885 580.904 81.9053 581.408 82.1572C581.912 82.4092 582.284 82.7139 582.524 83.0713C582.771 83.4229 582.894 83.8535 582.894 84.3633C582.894 85.2129 582.554 85.8955 581.874 86.4111C581.194 86.9209 580.312 87.1758 579.229 87.1758C578.467 87.1758 577.793 87.041 577.207 86.7715C576.621 86.502 576.161 86.127 575.827 85.6465C575.499 85.1602 575.335 84.6357 575.335 84.0732H576.961C576.99 84.6182 577.207 85.0518 577.611 85.374C578.021 85.6904 578.561 85.8486 579.229 85.8486C579.844 85.8486 580.336 85.7256 580.705 85.4795C581.08 85.2275 581.268 84.8936 581.268 84.4775ZM587.218 75.1875V77.4902H588.993V78.7471H587.218V84.6445C587.218 85.0254 587.297 85.3125 587.455 85.5059C587.613 85.6934 587.883 85.7871 588.264 85.7871C588.451 85.7871 588.709 85.752 589.037 85.6816V87C588.609 87.1172 588.193 87.1758 587.789 87.1758C587.062 87.1758 586.515 86.9561 586.146 86.5166C585.776 86.0771 585.592 85.4531 585.592 84.6445V78.7471H583.86V77.4902H585.592V75.1875H587.218ZM596.771 87C596.678 86.8125 596.602 86.4785 596.543 85.998C595.787 86.7832 594.885 87.1758 593.836 87.1758C592.898 87.1758 592.128 86.9121 591.524 86.3848C590.927 85.8516 590.628 85.1777 590.628 84.3633C590.628 83.373 591.003 82.6055 591.753 82.0605C592.509 81.5098 593.569 81.2344 594.935 81.2344H596.517V80.4873C596.517 79.9189 596.347 79.4678 596.007 79.1338C595.667 78.7939 595.166 78.624 594.504 78.624C593.924 78.624 593.438 78.7705 593.045 79.0635C592.652 79.3564 592.456 79.7109 592.456 80.127H590.821C590.821 79.6523 590.988 79.1953 591.322 78.7559C591.662 78.3105 592.119 77.959 592.693 77.7012C593.273 77.4434 593.909 77.3145 594.601 77.3145C595.696 77.3145 596.555 77.5898 597.176 78.1406C597.797 78.6855 598.119 79.4385 598.143 80.3994V84.7764C598.143 85.6494 598.254 86.3438 598.477 86.8594V87H596.771ZM594.073 85.7607C594.583 85.7607 595.066 85.6289 595.523 85.3652C595.98 85.1016 596.312 84.7588 596.517 84.3369V82.3857H595.242C593.25 82.3857 592.254 82.9688 592.254 84.1348C592.254 84.6445 592.424 85.043 592.764 85.3301C593.104 85.6172 593.54 85.7607 594.073 85.7607ZM605.288 78.9492C605.042 78.9082 604.775 78.8877 604.488 78.8877C603.422 78.8877 602.698 79.3418 602.317 80.25V87H600.691V77.4902H602.273L602.3 78.5889C602.833 77.7393 603.589 77.3145 604.567 77.3145C604.884 77.3145 605.124 77.3555 605.288 77.4375V78.9492ZM609.437 75.1875V77.4902H611.212V78.7471H609.437V84.6445C609.437 85.0254 609.516 85.3125 609.674 85.5059C609.832 85.6934 610.102 85.7871 610.482 85.7871C610.67 85.7871 610.928 85.752 611.256 85.6816V87C610.828 87.1172 610.412 87.1758 610.008 87.1758C609.281 87.1758 608.733 86.9561 608.364 86.5166C607.995 86.0771 607.811 85.4531 607.811 84.6445V78.7471H606.079V77.4902H607.811V75.1875H609.437Z" fill="#001EBB"/>
<path d="M272.26 5.49023L272.304 6.54492C273.001 5.72461 273.941 5.31445 275.125 5.31445C276.455 5.31445 277.36 5.82422 277.841 6.84375C278.157 6.38672 278.567 6.01758 279.071 5.73633C279.581 5.45508 280.182 5.31445 280.873 5.31445C282.959 5.31445 284.02 6.41895 284.055 8.62793V15H282.429V8.72461C282.429 8.04492 282.273 7.53809 281.963 7.2041C281.652 6.86426 281.131 6.69434 280.398 6.69434C279.795 6.69434 279.294 6.87598 278.896 7.23926C278.497 7.59668 278.266 8.08008 278.201 8.68945V15H276.566V8.76855C276.566 7.38574 275.89 6.69434 274.536 6.69434C273.47 6.69434 272.74 7.14844 272.348 8.05664V15H270.722V5.49023H272.26ZM292.387 15C292.293 14.8125 292.217 14.4785 292.158 13.998C291.402 14.7832 290.5 15.1758 289.451 15.1758C288.514 15.1758 287.743 14.9121 287.14 14.3848C286.542 13.8516 286.243 13.1777 286.243 12.3633C286.243 11.373 286.618 10.6055 287.368 10.0605C288.124 9.50977 289.185 9.23438 290.55 9.23438H292.132V8.4873C292.132 7.91895 291.962 7.46777 291.622 7.13379C291.282 6.79395 290.781 6.62402 290.119 6.62402C289.539 6.62402 289.053 6.77051 288.66 7.06348C288.268 7.35645 288.071 7.71094 288.071 8.12695H286.437C286.437 7.65234 286.604 7.19531 286.938 6.75586C287.277 6.31055 287.734 5.95898 288.309 5.70117C288.889 5.44336 289.524 5.31445 290.216 5.31445C291.312 5.31445 292.17 5.58984 292.791 6.14062C293.412 6.68555 293.734 7.43848 293.758 8.39941V12.7764C293.758 13.6494 293.869 14.3438 294.092 14.8594V15H292.387ZM289.688 13.7607C290.198 13.7607 290.682 13.6289 291.139 13.3652C291.596 13.1016 291.927 12.7588 292.132 12.3369V10.3857H290.857C288.865 10.3857 287.869 10.9688 287.869 12.1348C287.869 12.6445 288.039 13.043 288.379 13.3301C288.719 13.6172 289.155 13.7607 289.688 13.7607ZM298.073 15H296.447V5.49023H298.073V15ZM296.315 2.96777C296.315 2.7041 296.395 2.48145 296.553 2.2998C296.717 2.11816 296.957 2.02734 297.273 2.02734C297.59 2.02734 297.83 2.11816 297.994 2.2998C298.158 2.48145 298.24 2.7041 298.24 2.96777C298.24 3.23145 298.158 3.45117 297.994 3.62695C297.83 3.80273 297.59 3.89062 297.273 3.89062C296.957 3.89062 296.717 3.80273 296.553 3.62695C296.395 3.45117 296.315 3.23145 296.315 2.96777ZM302.222 5.49023L302.274 6.68555C303.001 5.77148 303.95 5.31445 305.122 5.31445C307.132 5.31445 308.146 6.44824 308.163 8.71582V15H306.537V8.70703C306.531 8.02148 306.373 7.51465 306.062 7.18652C305.758 6.8584 305.28 6.69434 304.63 6.69434C304.103 6.69434 303.64 6.83496 303.241 7.11621C302.843 7.39746 302.532 7.7666 302.31 8.22363V15H300.684V5.49023H302.222ZM320.617 12.4775C320.617 12.0381 320.45 11.6982 320.116 11.458C319.788 11.2119 319.211 11.001 318.385 10.8252C317.564 10.6494 316.911 10.4385 316.425 10.1924C315.944 9.94629 315.587 9.65332 315.353 9.31348C315.124 8.97363 315.01 8.56934 315.01 8.10059C315.01 7.32129 315.338 6.66211 315.994 6.12305C316.656 5.58398 317.5 5.31445 318.525 5.31445C319.604 5.31445 320.477 5.59277 321.145 6.14941C321.818 6.70605 322.155 7.41797 322.155 8.28516H320.521C320.521 7.83984 320.33 7.45605 319.949 7.13379C319.574 6.81152 319.1 6.65039 318.525 6.65039C317.934 6.65039 317.471 6.7793 317.137 7.03711C316.803 7.29492 316.636 7.63184 316.636 8.04785C316.636 8.44043 316.791 8.73633 317.102 8.93555C317.412 9.13477 317.972 9.3252 318.78 9.50684C319.595 9.68848 320.254 9.90527 320.758 10.1572C321.262 10.4092 321.634 10.7139 321.874 11.0713C322.12 11.4229 322.243 11.8535 322.243 12.3633C322.243 13.2129 321.903 13.8955 321.224 14.4111C320.544 14.9209 319.662 15.1758 318.578 15.1758C317.816 15.1758 317.143 15.041 316.557 14.7715C315.971 14.502 315.511 14.127 315.177 13.6465C314.849 13.1602 314.685 12.6357 314.685 12.0732H316.311C316.34 12.6182 316.557 13.0518 316.961 13.374C317.371 13.6904 317.91 13.8486 318.578 13.8486C319.193 13.8486 319.686 13.7256 320.055 13.4795C320.43 13.2275 320.617 12.8936 320.617 12.4775ZM326.128 15H324.502V5.49023H326.128V15ZM324.37 2.96777C324.37 2.7041 324.449 2.48145 324.607 2.2998C324.771 2.11816 325.012 2.02734 325.328 2.02734C325.645 2.02734 325.885 2.11816 326.049 2.2998C326.213 2.48145 326.295 2.7041 326.295 2.96777C326.295 3.23145 326.213 3.45117 326.049 3.62695C325.885 3.80273 325.645 3.89062 325.328 3.89062C325.012 3.89062 324.771 3.80273 324.607 3.62695C324.449 3.45117 324.37 3.23145 324.37 2.96777ZM330.268 13.6729H335.831V15H328.281V13.8047L333.528 6.83496H328.36V5.49023H335.567V6.6416L330.268 13.6729ZM341.474 15.1758C340.185 15.1758 339.136 14.7539 338.327 13.9102C337.519 13.0605 337.114 11.9268 337.114 10.5088V10.21C337.114 9.2666 337.293 8.42578 337.65 7.6875C338.014 6.94336 338.518 6.36328 339.162 5.94727C339.812 5.52539 340.516 5.31445 341.271 5.31445C342.508 5.31445 343.469 5.72168 344.154 6.53613C344.84 7.35059 345.183 8.5166 345.183 10.0342V10.7109H338.74C338.764 11.6484 339.036 12.4072 339.558 12.9873C340.085 13.5615 340.753 13.8486 341.562 13.8486C342.136 13.8486 342.622 13.7314 343.021 13.4971C343.419 13.2627 343.768 12.9521 344.066 12.5654L345.06 13.3389C344.263 14.5635 343.067 15.1758 341.474 15.1758ZM341.271 6.65039C340.615 6.65039 340.064 6.89062 339.619 7.37109C339.174 7.8457 338.898 8.51367 338.793 9.375H343.557V9.25195C343.51 8.42578 343.287 7.78711 342.889 7.33594C342.49 6.87891 341.951 6.65039 341.271 6.65039Z" fill="#00986B"/>
<path d="M13.8486 185.586C13.8486 185.006 13.6729 184.499 13.3213 184.065C12.9697 183.632 12.5303 183.392 12.0029 183.345L12.0029 181.807C12.5479 181.836 13.0664 182.023 13.5586 182.369C14.0508 182.715 14.4434 183.178 14.7363 183.758C15.0293 184.332 15.1758 184.941 15.1758 185.586C15.1758 186.881 14.7451 187.912 13.8838 188.68C13.0166 189.441 11.833 189.822 10.333 189.822L10.0605 189.822C9.13477 189.822 8.31152 189.652 7.59082 189.313C6.87012 188.973 6.31055 188.486 5.91211 187.854C5.51367 187.215 5.31445 186.462 5.31445 185.595C5.31445 184.528 5.63379 183.644 6.27246 182.94C6.91113 182.231 7.74023 181.854 8.75977 181.807L8.75977 183.345C8.14453 183.392 7.64063 183.626 7.24805 184.048C6.84961 184.464 6.65039 184.979 6.65039 185.595C6.65039 186.421 6.94922 187.063 7.54688 187.52C8.13867 187.971 8.99707 188.196 10.1221 188.196L10.4297 188.196C11.5254 188.196 12.3691 187.971 12.9609 187.52C13.5527 187.068 13.8486 186.424 13.8486 185.586ZM6.94922 175.382C6.9082 175.628 6.8877 175.895 6.8877 176.182C6.8877 177.248 7.3418 177.972 8.25 178.353L15 178.353L15 179.979L5.49023 179.979L5.49023 178.396L6.58887 178.37C5.73926 177.837 5.31445 177.081 5.31445 176.103C5.31445 175.786 5.35547 175.546 5.4375 175.382L6.94922 175.382ZM10.1572 174.485C9.22559 174.485 8.3877 174.304 7.64355 173.94C6.89941 173.571 6.3252 173.062 5.9209 172.411C5.5166 171.755 5.31445 171.008 5.31445 170.17C5.31445 168.875 5.7627 167.829 6.65918 167.032C7.55566 166.229 8.74805 165.828 10.2363 165.828L10.3506 165.828C11.2764 165.828 12.1084 166.007 12.8467 166.364C13.5791 166.716 14.1504 167.223 14.5605 167.885C14.9707 168.541 15.1758 169.297 15.1758 170.152C15.1758 171.441 14.7275 172.487 13.8311 173.29C12.9346 174.087 11.748 174.485 10.2715 174.485L10.1572 174.485ZM10.3506 172.851C11.4053 172.851 12.252 172.607 12.8906 172.121C13.5293 171.629 13.8486 170.973 13.8486 170.152C13.8486 169.326 13.5264 168.67 12.8818 168.184C12.2314 167.697 11.3232 167.454 10.1572 167.454C9.11426 167.454 8.27051 167.703 7.62598 168.201C6.97559 168.693 6.65039 169.35 6.65039 170.17C6.65039 170.973 6.96973 171.62 7.6084 172.112C8.24707 172.604 9.16113 172.851 10.3506 172.851ZM12.4775 158.252C12.0381 158.252 11.6982 158.419 11.458 158.753C11.2119 159.081 11.001 159.658 10.8252 160.484C10.6494 161.305 10.4385 161.958 10.1924 162.444C9.94629 162.925 9.65332 163.282 9.31348 163.517C8.97363 163.745 8.56934 163.859 8.10059 163.859C7.32129 163.859 6.66211 163.531 6.12305 162.875C5.58398 162.213 5.31445 161.369 5.31445 160.344C5.31445 159.266 5.59277 158.393 6.14941 157.725C6.70606 157.051 7.41797 156.714 8.28516 156.714L8.28516 158.349C7.83984 158.349 7.45606 158.539 7.13379 158.92C6.81152 159.295 6.65039 159.77 6.65039 160.344C6.65039 160.936 6.7793 161.398 7.03711 161.732C7.29492 162.066 7.63184 162.233 8.04785 162.233C8.44043 162.233 8.73633 162.078 8.93555 161.768C9.13477 161.457 9.3252 160.897 9.50684 160.089C9.68848 159.274 9.90527 158.615 10.1572 158.111C10.4092 157.607 10.7139 157.235 11.0713 156.995C11.4229 156.749 11.8535 156.626 12.3633 156.626C13.2129 156.626 13.8955 156.966 14.4111 157.646C14.9209 158.325 15.1758 159.207 15.1758 160.291C15.1758 161.053 15.041 161.727 14.7715 162.313C14.502 162.898 14.127 163.358 13.6465 163.692C13.1602 164.021 12.6357 164.185 12.0732 164.185L12.0732 162.559C12.6182 162.529 13.0518 162.313 13.374 161.908C13.6904 161.498 13.8486 160.959 13.8486 160.291C13.8486 159.676 13.7256 159.184 13.4795 158.814C13.2275 158.439 12.8936 158.252 12.4775 158.252ZM12.4775 148.971C12.0381 148.971 11.6982 149.138 11.458 149.472C11.2119 149.8 11.001 150.377 10.8252 151.203C10.6494 152.023 10.4385 152.677 10.1924 153.163C9.94629 153.644 9.65332 154.001 9.31348 154.235C8.97363 154.464 8.56934 154.578 8.10059 154.578C7.32129 154.578 6.66211 154.25 6.12305 153.594C5.58398 152.932 5.31445 152.088 5.31445 151.063C5.31445 149.984 5.59277 149.111 6.14941 148.443C6.70606 147.77 7.41797 147.433 8.28516 147.433L8.28516 149.067C7.83984 149.067 7.45606 149.258 7.13379 149.639C6.81152 150.014 6.65039 150.488 6.65039 151.063C6.65039 151.654 6.7793 152.117 7.03711 152.451C7.29492 152.785 7.63184 152.952 8.04785 152.952C8.44043 152.952 8.73633 152.797 8.93555 152.486C9.13477 152.176 9.3252 151.616 9.50684 150.808C9.68848 149.993 9.90527 149.334 10.1572 148.83C10.4092 148.326 10.7139 147.954 11.0713 147.714C11.4229 147.468 11.8535 147.345 12.3633 147.345C13.2129 147.345 13.8955 147.685 14.4111 148.364C14.9209 149.044 15.1758 149.926 15.1758 151.01C15.1758 151.771 15.041 152.445 14.7715 153.031C14.502 153.617 14.127 154.077 13.6465 154.411C13.1602 154.739 12.6357 154.903 12.0732 154.903L12.0732 153.277C12.6182 153.248 13.0518 153.031 13.374 152.627C13.6904 152.217 13.8486 151.678 13.8486 151.01C13.8486 150.395 13.7256 149.902 13.4795 149.533C13.2275 149.158 12.8936 148.971 12.4775 148.971ZM12.4775 135.225C12.0381 135.225 11.6982 135.392 11.458 135.726C11.2119 136.054 11.001 136.631 10.8252 137.457C10.6494 138.277 10.4385 138.931 10.1924 139.417C9.94629 139.897 9.65332 140.255 9.31348 140.489C8.97363 140.718 8.56934 140.832 8.10059 140.832C7.32129 140.832 6.66211 140.504 6.12305 139.848C5.58398 139.186 5.31445 138.342 5.31445 137.316C5.31445 136.238 5.59277 135.365 6.14941 134.697C6.70606 134.023 7.41797 133.687 8.28516 133.687L8.28516 135.321C7.83984 135.321 7.45606 135.512 7.13379 135.893C6.81152 136.268 6.65039 136.742 6.65039 137.316C6.65039 137.908 6.7793 138.371 7.03711 138.705C7.29492 139.039 7.63184 139.206 8.04785 139.206C8.44043 139.206 8.73633 139.051 8.93555 138.74C9.13477 138.43 9.3252 137.87 9.50684 137.062C9.68848 136.247 9.90527 135.588 10.1572 135.084C10.4092 134.58 10.7139 134.208 11.0713 133.968C11.4229 133.722 11.8535 133.599 12.3633 133.599C13.2129 133.599 13.8955 133.938 14.4111 134.618C14.9209 135.298 15.1758 136.18 15.1758 137.264C15.1758 138.025 15.041 138.699 14.7715 139.285C14.502 139.871 14.127 140.331 13.6465 140.665C13.1602 140.993 12.6357 141.157 12.0732 141.157L12.0732 139.531C12.6182 139.502 13.0518 139.285 13.374 138.881C13.6904 138.471 13.8486 137.932 13.8486 137.264C13.8486 136.648 13.7256 136.156 13.4795 135.787C13.2275 135.412 12.8936 135.225 12.4775 135.225ZM15 129.714L15 131.34L5.49024 131.34L5.49024 129.714L15 129.714ZM2.96777 131.472C2.7041 131.472 2.48145 131.393 2.29981 131.234C2.11816 131.07 2.02734 130.83 2.02734 130.514C2.02734 130.197 2.11816 129.957 2.29981 129.793C2.48145 129.629 2.7041 129.547 2.96777 129.547C3.23145 129.547 3.45117 129.629 3.62695 129.793C3.80274 129.957 3.89063 130.197 3.89063 130.514C3.89063 130.83 3.80274 131.07 3.62695 131.234C3.45117 131.393 3.23145 131.472 2.96777 131.472ZM13.6729 125.574L13.6729 120.011L15 120.011L15 127.561L13.8047 127.561L6.83496 122.313L6.83496 127.481L5.49024 127.481L5.49024 120.274L6.6416 120.274L13.6729 125.574ZM15.1758 114.368C15.1758 115.657 14.7539 116.706 13.9102 117.515C13.0605 118.323 11.9268 118.728 10.5088 118.728L10.21 118.728C9.2666 118.728 8.42578 118.549 7.6875 118.191C6.94336 117.828 6.36328 117.324 5.94727 116.68C5.52539 116.029 5.31445 115.326 5.31445 114.57C5.31445 113.334 5.72168 112.373 6.53613 111.688C7.35059 111.002 8.5166 110.659 10.0342 110.659L10.7109 110.659L10.7109 117.102C11.6484 117.078 12.4072 116.806 12.9873 116.284C13.5615 115.757 13.8486 115.089 13.8486 114.28C13.8486 113.706 13.7314 113.22 13.4971 112.821C13.2627 112.423 12.9521 112.074 12.5654 111.775L13.3389 110.782C14.5635 111.579 15.1758 112.774 15.1758 114.368ZM6.65039 114.57C6.65039 115.227 6.89063 115.777 7.37109 116.223C7.8457 116.668 8.51367 116.943 9.375 117.049L9.375 112.285L9.25195 112.285C8.42578 112.332 7.78711 112.555 7.33594 112.953C6.87891 113.352 6.65039 113.891 6.65039 114.57Z" fill="#00986B"/>
<path d="M394.349 176.955C394.349 176.375 394.173 175.868 393.821 175.435C393.47 175.001 393.03 174.761 392.503 174.714L392.503 173.176C393.048 173.205 393.566 173.393 394.059 173.738C394.551 174.084 394.943 174.547 395.236 175.127C395.529 175.701 395.676 176.311 395.676 176.955C395.676 178.25 395.245 179.281 394.384 180.049C393.517 180.811 392.333 181.191 390.833 181.191L390.561 181.191C389.635 181.191 388.812 181.021 388.091 180.682C387.37 180.342 386.811 179.855 386.412 179.223C386.014 178.584 385.814 177.831 385.814 176.964C385.814 175.897 386.134 175.013 386.772 174.31C387.411 173.601 388.24 173.223 389.26 173.176L389.26 174.714C388.645 174.761 388.141 174.995 387.748 175.417C387.35 175.833 387.15 176.349 387.15 176.964C387.15 177.79 387.449 178.432 388.047 178.889C388.639 179.34 389.497 179.565 390.622 179.565L390.93 179.565C392.025 179.565 392.869 179.34 393.461 178.889C394.053 178.437 394.349 177.793 394.349 176.955ZM387.449 166.751C387.408 166.997 387.388 167.264 387.388 167.551C387.388 168.617 387.842 169.341 388.75 169.722L395.5 169.722L395.5 171.348L385.99 171.348L385.99 169.766L387.089 169.739C386.239 169.206 385.814 168.45 385.814 167.472C385.814 167.155 385.855 166.915 385.937 166.751L387.449 166.751ZM390.657 165.854C389.726 165.854 388.888 165.673 388.144 165.31C387.399 164.94 386.825 164.431 386.421 163.78C386.017 163.124 385.814 162.377 385.814 161.539C385.814 160.244 386.263 159.198 387.159 158.401C388.056 157.599 389.248 157.197 390.736 157.197L390.851 157.197C391.776 157.197 392.608 157.376 393.347 157.733C394.079 158.085 394.65 158.592 395.061 159.254C395.471 159.91 395.676 160.666 395.676 161.521C395.676 162.811 395.228 163.856 394.331 164.659C393.435 165.456 392.248 165.854 390.771 165.854L390.657 165.854ZM390.851 164.22C391.905 164.22 392.752 163.977 393.391 163.49C394.029 162.998 394.349 162.342 394.349 161.521C394.349 160.695 394.026 160.039 393.382 159.553C392.731 159.066 391.823 158.823 390.657 158.823C389.614 158.823 388.771 159.072 388.126 159.57C387.476 160.062 387.15 160.719 387.15 161.539C387.15 162.342 387.47 162.989 388.108 163.481C388.747 163.974 389.661 164.22 390.851 164.22ZM392.978 149.621C392.538 149.621 392.198 149.788 391.958 150.122C391.712 150.45 391.501 151.027 391.325 151.854C391.149 152.674 390.938 153.327 390.692 153.813C390.446 154.294 390.153 154.651 389.813 154.886C389.474 155.114 389.069 155.229 388.601 155.229C387.821 155.229 387.162 154.9 386.623 154.244C386.084 153.582 385.814 152.738 385.814 151.713C385.814 150.635 386.093 149.762 386.649 149.094C387.206 148.42 387.918 148.083 388.785 148.083L388.785 149.718C388.34 149.718 387.956 149.908 387.634 150.289C387.312 150.664 387.15 151.139 387.15 151.713C387.15 152.305 387.279 152.768 387.537 153.102C387.795 153.436 388.132 153.603 388.548 153.603C388.94 153.603 389.236 153.447 389.436 153.137C389.635 152.826 389.825 152.267 390.007 151.458C390.188 150.644 390.405 149.984 390.657 149.48C390.909 148.977 391.214 148.604 391.571 148.364C391.923 148.118 392.354 147.995 392.863 147.995C393.713 147.995 394.396 148.335 394.911 149.015C395.421 149.694 395.676 150.576 395.676 151.66C395.676 152.422 395.541 153.096 395.271 153.682C395.002 154.268 394.627 154.728 394.146 155.062C393.66 155.39 393.136 155.554 392.573 155.554L392.573 153.928C393.118 153.898 393.552 153.682 393.874 153.277C394.19 152.867 394.349 152.328 394.349 151.66C394.349 151.045 394.226 150.553 393.979 150.184C393.728 149.809 393.394 149.621 392.978 149.621ZM392.978 140.34C392.538 140.34 392.198 140.507 391.958 140.841C391.712 141.169 391.501 141.746 391.325 142.572C391.149 143.393 390.938 144.046 390.692 144.532C390.446 145.013 390.153 145.37 389.813 145.604C389.474 145.833 389.069 145.947 388.601 145.947C387.821 145.947 387.162 145.619 386.623 144.963C386.084 144.301 385.814 143.457 385.814 142.432C385.814 141.354 386.093 140.48 386.649 139.812C387.206 139.139 387.918 138.802 388.785 138.802L388.785 140.437C388.34 140.437 387.956 140.627 387.634 141.008C387.312 141.383 387.15 141.857 387.15 142.432C387.15 143.023 387.279 143.486 387.537 143.82C387.795 144.154 388.132 144.321 388.548 144.321C388.94 144.321 389.236 144.166 389.436 143.855C389.635 143.545 389.825 142.985 390.007 142.177C390.188 141.362 390.405 140.703 390.657 140.199C390.909 139.695 391.214 139.323 391.571 139.083C391.923 138.837 392.354 138.714 392.863 138.714C393.713 138.714 394.396 139.054 394.911 139.733C395.421 140.413 395.676 141.295 395.676 142.379C395.676 143.141 395.541 143.814 395.271 144.4C395.002 144.986 394.627 145.446 394.146 145.78C393.66 146.108 393.136 146.272 392.573 146.272L392.573 144.646C393.118 144.617 393.552 144.4 393.874 143.996C394.19 143.586 394.349 143.047 394.349 142.379C394.349 141.764 394.226 141.271 393.979 140.902C393.728 140.527 393.394 140.34 392.978 140.34ZM395.5 126.26C395.312 126.354 394.979 126.43 394.498 126.488C395.283 127.244 395.676 128.146 395.676 129.195C395.676 130.133 395.412 130.903 394.885 131.507C394.352 132.104 393.678 132.403 392.863 132.403C391.873 132.403 391.105 132.028 390.561 131.278C390.01 130.522 389.734 129.462 389.734 128.097L389.734 126.515L388.987 126.515C388.419 126.515 387.968 126.685 387.634 127.024C387.294 127.364 387.124 127.865 387.124 128.527C387.124 129.107 387.271 129.594 387.563 129.986C387.856 130.379 388.211 130.575 388.627 130.575L388.627 132.21C388.152 132.21 387.695 132.043 387.256 131.709C386.811 131.369 386.459 130.912 386.201 130.338C385.943 129.758 385.814 129.122 385.814 128.431C385.814 127.335 386.09 126.477 386.641 125.855C387.186 125.234 387.938 124.912 388.899 124.889L393.276 124.889C394.149 124.889 394.844 124.777 395.359 124.555L395.5 124.555L395.5 126.26ZM394.261 128.958C394.261 128.448 394.129 127.965 393.865 127.508C393.602 127.051 393.259 126.72 392.837 126.515L390.886 126.515L390.886 127.789C390.886 129.781 391.469 130.777 392.635 130.777C393.145 130.777 393.543 130.607 393.83 130.268C394.117 129.928 394.261 129.491 394.261 128.958ZM389.462 119.149L385.99 117.04L385.99 115.142L390.692 118.253L395.5 115.045L395.5 116.926L391.94 119.123L395.5 121.32L395.5 123.21L390.692 120.002L385.99 123.113L385.99 121.232L389.462 119.149ZM395.5 111.644L395.5 113.27L385.99 113.27L385.99 111.644L395.5 111.644ZM383.468 113.401C383.204 113.401 382.981 113.322 382.8 113.164C382.618 113 382.527 112.76 382.527 112.443C382.527 112.127 382.618 111.887 382.8 111.723C382.981 111.559 383.204 111.477 383.468 111.477C383.731 111.477 383.951 111.559 384.127 111.723C384.303 111.887 384.391 112.127 384.391 112.443C384.391 112.76 384.303 113 384.127 113.164C383.951 113.322 383.731 113.401 383.468 113.401ZM392.978 103.496C392.538 103.496 392.198 103.663 391.958 103.997C391.712 104.325 391.501 104.902 391.325 105.729C391.149 106.549 390.938 107.202 390.692 107.688C390.446 108.169 390.153 108.526 389.813 108.761C389.474 108.989 389.069 109.104 388.601 109.104C387.821 109.104 387.162 108.775 386.623 108.119C386.084 107.457 385.814 106.613 385.814 105.588C385.814 104.51 386.093 103.637 386.649 102.969C387.206 102.295 387.918 101.958 388.785 101.958L388.785 103.593C388.34 103.593 387.956 103.783 387.634 104.164C387.312 104.539 387.15 105.014 387.15 105.588C387.15 106.18 387.279 106.643 387.537 106.977C387.795 107.311 388.132 107.478 388.548 107.478C388.94 107.478 389.236 107.322 389.436 107.012C389.635 106.701 389.825 106.142 390.007 105.333C390.188 104.519 390.405 103.859 390.657 103.355C390.909 102.852 391.214 102.479 391.571 102.239C391.923 101.993 392.354 101.87 392.863 101.87C393.713 101.87 394.396 102.21 394.911 102.89C395.421 103.569 395.676 104.451 395.676 105.535C395.676 106.297 395.541 106.971 395.271 107.557C395.002 108.143 394.627 108.603 394.146 108.937C393.66 109.265 393.136 109.429 392.573 109.429L392.573 107.803C393.118 107.773 393.552 107.557 393.874 107.152C394.19 106.742 394.349 106.203 394.349 105.535C394.349 104.92 394.226 104.428 393.979 104.059C393.728 103.684 393.394 103.496 392.978 103.496Z" fill="#FFF000"/>
<g filter="url(#filter0_d)">
<rect x="73.5" y="102" width="80" height="80" rx="6" fill="#FFF000"/>
<rect x="74.5" y="103" width="78" height="78" rx="5" stroke="#001EBB" stroke-width="2"/>
</g>
<path d="M106.564 126.196C105.967 126.114 105.451 126.073 105.018 126.073C103.869 126.073 103.295 126.612 103.295 127.69V128.49H105.229V130.072H103.295V138H101.159V130.072H99.709V128.49H101.159V127.638C101.165 126.565 101.481 125.745 102.108 125.177C102.741 124.603 103.632 124.315 104.78 124.315C105.495 124.315 106.802 124.456 108.7 124.737V138H106.564V126.196ZM115.248 138.176C113.895 138.176 112.796 137.751 111.952 136.901C111.114 136.046 110.695 134.909 110.695 133.491V133.228C110.695 132.278 110.877 131.432 111.24 130.688C111.609 129.938 112.125 129.354 112.787 128.938C113.449 128.522 114.188 128.314 115.002 128.314C116.297 128.314 117.296 128.728 117.999 129.554C118.708 130.38 119.062 131.549 119.062 133.061V133.922H112.849C112.913 134.707 113.174 135.328 113.631 135.785C114.094 136.242 114.674 136.471 115.371 136.471C116.35 136.471 117.146 136.075 117.762 135.284L118.913 136.383C118.532 136.951 118.022 137.394 117.384 137.71C116.751 138.021 116.039 138.176 115.248 138.176ZM114.993 130.028C114.407 130.028 113.933 130.233 113.569 130.644C113.212 131.054 112.983 131.625 112.884 132.357H116.953V132.199C116.906 131.484 116.716 130.945 116.382 130.582C116.048 130.213 115.585 130.028 114.993 130.028ZM124.143 131.619L125.953 128.49H128.326L125.417 133.175L128.423 138H126.067L124.169 134.748L122.279 138H119.906L122.912 133.175L120.012 128.49H122.367L124.143 131.619ZM99.4014 159H97.2656V149.49H99.4014V159ZM97.1338 147.021C97.1338 146.692 97.2363 146.42 97.4414 146.203C97.6523 145.986 97.9512 145.878 98.3379 145.878C98.7246 145.878 99.0234 145.986 99.2344 146.203C99.4453 146.42 99.5508 146.692 99.5508 147.021C99.5508 147.343 99.4453 147.612 99.2344 147.829C99.0234 148.04 98.7246 148.146 98.3379 148.146C97.9512 148.146 97.6523 148.04 97.4414 147.829C97.2363 147.612 97.1338 147.343 97.1338 147.021ZM104.411 147.179V149.49H106.09V151.072H104.411V156.381C104.411 156.744 104.481 157.008 104.622 157.172C104.769 157.33 105.026 157.409 105.396 157.409C105.642 157.409 105.891 157.38 106.143 157.321V158.974C105.656 159.108 105.188 159.176 104.736 159.176C103.096 159.176 102.275 158.271 102.275 156.46V151.072H100.711V149.49H102.275V147.179H104.411ZM111.917 159.176C110.563 159.176 109.465 158.751 108.621 157.901C107.783 157.046 107.364 155.909 107.364 154.491V154.228C107.364 153.278 107.546 152.432 107.909 151.688C108.278 150.938 108.794 150.354 109.456 149.938C110.118 149.522 110.856 149.314 111.671 149.314C112.966 149.314 113.965 149.728 114.668 150.554C115.377 151.38 115.731 152.549 115.731 154.061V154.922H109.518C109.582 155.707 109.843 156.328 110.3 156.785C110.763 157.242 111.343 157.471 112.04 157.471C113.019 157.471 113.815 157.075 114.431 156.284L115.582 157.383C115.201 157.951 114.691 158.394 114.053 158.71C113.42 159.021 112.708 159.176 111.917 159.176ZM111.662 151.028C111.076 151.028 110.602 151.233 110.238 151.644C109.881 152.054 109.652 152.625 109.553 153.357H113.622V153.199C113.575 152.484 113.385 151.945 113.051 151.582C112.717 151.213 112.254 151.028 111.662 151.028ZM119.405 149.49L119.467 150.483C120.135 149.704 121.049 149.314 122.209 149.314C123.48 149.314 124.351 149.801 124.819 150.773C125.511 149.801 126.483 149.314 127.737 149.314C128.786 149.314 129.565 149.604 130.075 150.185C130.591 150.765 130.854 151.62 130.866 152.751V159H128.73V152.812C128.73 152.209 128.599 151.767 128.335 151.485C128.071 151.204 127.635 151.063 127.025 151.063C126.539 151.063 126.141 151.195 125.83 151.459C125.525 151.717 125.312 152.057 125.188 152.479L125.197 159H123.062V152.742C123.032 151.623 122.461 151.063 121.348 151.063C120.492 151.063 119.886 151.412 119.528 152.109V159H117.393V149.49H119.405Z" fill="#001EBB"/>
<g filter="url(#filter1_d)">
<rect x="168.5" y="102" width="80" height="80" rx="6" fill="#FFF000"/>
<rect x="169.5" y="103" width="78" height="78" rx="5" stroke="#001EBB" stroke-width="2"/>
</g>
<path d="M201.564 126.196C200.967 126.114 200.451 126.073 200.018 126.073C198.869 126.073 198.295 126.612 198.295 127.69V128.49H200.229V130.072H198.295V138H196.159V130.072H194.709V128.49H196.159V127.638C196.165 126.565 196.481 125.745 197.108 125.177C197.741 124.603 198.632 124.315 199.78 124.315C200.495 124.315 201.802 124.456 203.7 124.737V138H201.564V126.196ZM210.248 138.176C208.895 138.176 207.796 137.751 206.952 136.901C206.114 136.046 205.695 134.909 205.695 133.491V133.228C205.695 132.278 205.877 131.432 206.24 130.688C206.609 129.938 207.125 129.354 207.787 128.938C208.449 128.522 209.188 128.314 210.002 128.314C211.297 128.314 212.296 128.728 212.999 129.554C213.708 130.38 214.062 131.549 214.062 133.061V133.922H207.849C207.913 134.707 208.174 135.328 208.631 135.785C209.094 136.242 209.674 136.471 210.371 136.471C211.35 136.471 212.146 136.075 212.762 135.284L213.913 136.383C213.532 136.951 213.022 137.394 212.384 137.71C211.751 138.021 211.039 138.176 210.248 138.176ZM209.993 130.028C209.407 130.028 208.933 130.233 208.569 130.644C208.212 131.054 207.983 131.625 207.884 132.357H211.953V132.199C211.906 131.484 211.716 130.945 211.382 130.582C211.048 130.213 210.585 130.028 209.993 130.028ZM219.143 131.619L220.953 128.49H223.326L220.417 133.175L223.423 138H221.067L219.169 134.748L217.279 138H214.906L217.912 133.175L215.012 128.49H217.367L219.143 131.619ZM194.401 159H192.266V149.49H194.401V159ZM192.134 147.021C192.134 146.692 192.236 146.42 192.441 146.203C192.652 145.986 192.951 145.878 193.338 145.878C193.725 145.878 194.023 145.986 194.234 146.203C194.445 146.42 194.551 146.692 194.551 147.021C194.551 147.343 194.445 147.612 194.234 147.829C194.023 148.04 193.725 148.146 193.338 148.146C192.951 148.146 192.652 148.04 192.441 147.829C192.236 147.612 192.134 147.343 192.134 147.021ZM199.411 147.179V149.49H201.09V151.072H199.411V156.381C199.411 156.744 199.481 157.008 199.622 157.172C199.769 157.33 200.026 157.409 200.396 157.409C200.642 157.409 200.891 157.38 201.143 157.321V158.974C200.656 159.108 200.188 159.176 199.736 159.176C198.096 159.176 197.275 158.271 197.275 156.46V151.072H195.711V149.49H197.275V147.179H199.411ZM206.917 159.176C205.563 159.176 204.465 158.751 203.621 157.901C202.783 157.046 202.364 155.909 202.364 154.491V154.228C202.364 153.278 202.546 152.432 202.909 151.688C203.278 150.938 203.794 150.354 204.456 149.938C205.118 149.522 205.856 149.314 206.671 149.314C207.966 149.314 208.965 149.728 209.668 150.554C210.377 151.38 210.731 152.549 210.731 154.061V154.922H204.518C204.582 155.707 204.843 156.328 205.3 156.785C205.763 157.242 206.343 157.471 207.04 157.471C208.019 157.471 208.815 157.075 209.431 156.284L210.582 157.383C210.201 157.951 209.691 158.394 209.053 158.71C208.42 159.021 207.708 159.176 206.917 159.176ZM206.662 151.028C206.076 151.028 205.602 151.233 205.238 151.644C204.881 152.054 204.652 152.625 204.553 153.357H208.622V153.199C208.575 152.484 208.385 151.945 208.051 151.582C207.717 151.213 207.254 151.028 206.662 151.028ZM214.405 149.49L214.467 150.483C215.135 149.704 216.049 149.314 217.209 149.314C218.48 149.314 219.351 149.801 219.819 150.773C220.511 149.801 221.483 149.314 222.737 149.314C223.786 149.314 224.565 149.604 225.075 150.185C225.591 150.765 225.854 151.62 225.866 152.751V159H223.73V152.812C223.73 152.209 223.599 151.767 223.335 151.485C223.071 151.204 222.635 151.063 222.025 151.063C221.539 151.063 221.141 151.195 220.83 151.459C220.525 151.717 220.312 152.057 220.188 152.479L220.197 159H218.062V152.742C218.032 151.623 217.461 151.063 216.348 151.063C215.492 151.063 214.886 151.412 214.528 152.109V159H212.393V149.49H214.405Z" fill="#001EBB"/>
<g filter="url(#filter2_d)">
<rect x="263.5" y="102" width="80" height="80" rx="6" fill="#FFF000"/>
<rect x="264.5" y="103" width="78" height="78" rx="5" stroke="#001EBB" stroke-width="2"/>
</g>
<path d="M296.564 126.196C295.967 126.114 295.451 126.073 295.018 126.073C293.869 126.073 293.295 126.612 293.295 127.69V128.49H295.229V130.072H293.295V138H291.159V130.072H289.709V128.49H291.159V127.638C291.165 126.565 291.481 125.745 292.108 125.177C292.741 124.603 293.632 124.315 294.78 124.315C295.495 124.315 296.802 124.456 298.7 124.737V138H296.564V126.196ZM305.248 138.176C303.895 138.176 302.796 137.751 301.952 136.901C301.114 136.046 300.695 134.909 300.695 133.491V133.228C300.695 132.278 300.877 131.432 301.24 130.688C301.609 129.938 302.125 129.354 302.787 128.938C303.449 128.522 304.188 128.314 305.002 128.314C306.297 128.314 307.296 128.728 307.999 129.554C308.708 130.38 309.062 131.549 309.062 133.061V133.922H302.849C302.913 134.707 303.174 135.328 303.631 135.785C304.094 136.242 304.674 136.471 305.371 136.471C306.35 136.471 307.146 136.075 307.762 135.284L308.913 136.383C308.532 136.951 308.022 137.394 307.384 137.71C306.751 138.021 306.039 138.176 305.248 138.176ZM304.993 130.028C304.407 130.028 303.933 130.233 303.569 130.644C303.212 131.054 302.983 131.625 302.884 132.357H306.953V132.199C306.906 131.484 306.716 130.945 306.382 130.582C306.048 130.213 305.585 130.028 304.993 130.028ZM314.143 131.619L315.953 128.49H318.326L315.417 133.175L318.423 138H316.067L314.169 134.748L312.279 138H309.906L312.912 133.175L310.012 128.49H312.367L314.143 131.619ZM289.401 159H287.266V149.49H289.401V159ZM287.134 147.021C287.134 146.692 287.236 146.42 287.441 146.203C287.652 145.986 287.951 145.878 288.338 145.878C288.725 145.878 289.023 145.986 289.234 146.203C289.445 146.42 289.551 146.692 289.551 147.021C289.551 147.343 289.445 147.612 289.234 147.829C289.023 148.04 288.725 148.146 288.338 148.146C287.951 148.146 287.652 148.04 287.441 147.829C287.236 147.612 287.134 147.343 287.134 147.021ZM294.411 147.179V149.49H296.09V151.072H294.411V156.381C294.411 156.744 294.481 157.008 294.622 157.172C294.769 157.33 295.026 157.409 295.396 157.409C295.642 157.409 295.891 157.38 296.143 157.321V158.974C295.656 159.108 295.188 159.176 294.736 159.176C293.096 159.176 292.275 158.271 292.275 156.46V151.072H290.711V149.49H292.275V147.179H294.411ZM301.917 159.176C300.563 159.176 299.465 158.751 298.621 157.901C297.783 157.046 297.364 155.909 297.364 154.491V154.228C297.364 153.278 297.546 152.432 297.909 151.688C298.278 150.938 298.794 150.354 299.456 149.938C300.118 149.522 300.856 149.314 301.671 149.314C302.966 149.314 303.965 149.728 304.668 150.554C305.377 151.38 305.731 152.549 305.731 154.061V154.922H299.518C299.582 155.707 299.843 156.328 300.3 156.785C300.763 157.242 301.343 157.471 302.04 157.471C303.019 157.471 303.815 157.075 304.431 156.284L305.582 157.383C305.201 157.951 304.691 158.394 304.053 158.71C303.42 159.021 302.708 159.176 301.917 159.176ZM301.662 151.028C301.076 151.028 300.602 151.233 300.238 151.644C299.881 152.054 299.652 152.625 299.553 153.357H303.622V153.199C303.575 152.484 303.385 151.945 303.051 151.582C302.717 151.213 302.254 151.028 301.662 151.028ZM309.405 149.49L309.467 150.483C310.135 149.704 311.049 149.314 312.209 149.314C313.48 149.314 314.351 149.801 314.819 150.773C315.511 149.801 316.483 149.314 317.737 149.314C318.786 149.314 319.565 149.604 320.075 150.185C320.591 150.765 320.854 151.62 320.866 152.751V159H318.73V152.812C318.73 152.209 318.599 151.767 318.335 151.485C318.071 151.204 317.635 151.063 317.025 151.063C316.539 151.063 316.141 151.195 315.83 151.459C315.525 151.717 315.312 152.057 315.188 152.479L315.197 159H313.062V152.742C313.032 151.623 312.461 151.063 311.348 151.063C310.492 151.063 309.886 151.412 309.528 152.109V159H307.393V149.49H309.405Z" fill="#001EBB"/>
<path d="M83.6641 72.1875C83.1042 72.1224 82.5833 72.0898 82.1016 72.0898C80.8255 72.0898 80.1875 72.6335 80.1875 73.7207V74.4336H82.2871V76.5039H80.1875V85H77.3555V76.5039H75.7832V74.4336H77.3555V73.6133C77.3685 72.3893 77.7526 71.4486 78.5078 70.791C79.263 70.127 80.3307 69.7949 81.7109 69.7949C82.694 69.7949 84.2891 69.8991 86.4961 70.1074V85H83.6641V72.1875ZM93.7129 85.1953C92.1634 85.1953 90.9004 84.7201 89.9238 83.7695C88.9538 82.819 88.4688 81.5527 88.4688 79.9707V79.6973C88.4688 78.6361 88.6738 77.6888 89.084 76.8555C89.4941 76.0156 90.0736 75.3711 90.8223 74.9219C91.5775 74.4661 92.4368 74.2383 93.4004 74.2383C94.8457 74.2383 95.9818 74.694 96.8086 75.6055C97.6419 76.5169 98.0586 77.8092 98.0586 79.4824V80.6348H91.3301C91.4212 81.3249 91.6947 81.8783 92.1504 82.2949C92.6126 82.7116 93.1953 82.9199 93.8984 82.9199C94.9857 82.9199 95.8353 82.526 96.4473 81.7383L97.834 83.291C97.4108 83.89 96.8379 84.3587 96.1152 84.6973C95.3926 85.0293 94.5918 85.1953 93.7129 85.1953ZM93.3906 76.5234C92.8307 76.5234 92.375 76.7122 92.0234 77.0898C91.6784 77.4674 91.457 78.0078 91.3594 78.7109H95.2852V78.4863C95.2721 77.8613 95.1029 77.3796 94.7773 77.041C94.4518 76.696 93.9896 76.5234 93.3906 76.5234ZM103.693 77.5879L105.471 74.4336H108.488L105.48 79.6094L108.615 85H105.588L103.703 81.6797L101.828 85H98.791L101.926 79.6094L98.9277 74.4336H101.955L103.693 77.5879ZM119.221 82.9199C119.742 82.9199 120.165 82.7767 120.49 82.4902C120.816 82.2038 120.985 81.8229 120.998 81.3477H123.645C123.638 82.0638 123.443 82.7214 123.059 83.3203C122.674 83.9128 122.147 84.375 121.477 84.707C120.812 85.0326 120.077 85.1953 119.27 85.1953C117.759 85.1953 116.568 84.7168 115.695 83.7598C114.823 82.7962 114.387 81.4681 114.387 79.7754V79.5898C114.387 77.9622 114.82 76.6634 115.686 75.6934C116.551 74.7233 117.74 74.2383 119.25 74.2383C120.572 74.2383 121.63 74.6159 122.424 75.3711C123.225 76.1198 123.632 77.1191 123.645 78.3691H120.998C120.985 77.8223 120.816 77.3796 120.49 77.041C120.165 76.696 119.735 76.5234 119.201 76.5234C118.544 76.5234 118.046 76.7643 117.707 77.2461C117.375 77.7214 117.209 78.4961 117.209 79.5703V79.8633C117.209 80.9505 117.375 81.7318 117.707 82.207C118.039 82.6823 118.544 82.9199 119.221 82.9199ZM124.816 79.6191C124.816 78.571 125.018 77.6367 125.422 76.8164C125.826 75.9961 126.405 75.3613 127.16 74.9121C127.922 74.4629 128.804 74.2383 129.807 74.2383C131.232 74.2383 132.395 74.6745 133.293 75.5469C134.198 76.4193 134.702 77.6042 134.807 79.1016L134.826 79.8242C134.826 81.4453 134.374 82.7474 133.469 83.7305C132.564 84.707 131.35 85.1953 129.826 85.1953C128.303 85.1953 127.085 84.707 126.174 83.7305C125.269 82.7539 124.816 81.4258 124.816 79.7461V79.6191ZM127.639 79.8242C127.639 80.8268 127.827 81.5951 128.205 82.1289C128.583 82.6562 129.123 82.9199 129.826 82.9199C130.51 82.9199 131.044 82.6595 131.428 82.1387C131.812 81.6113 132.004 80.7715 132.004 79.6191C132.004 78.6361 131.812 77.8743 131.428 77.334C131.044 76.7936 130.503 76.5234 129.807 76.5234C129.117 76.5234 128.583 76.7936 128.205 77.334C127.827 77.8678 127.639 78.6979 127.639 79.8242ZM139.162 74.4336L139.25 75.6543C140.005 74.7103 141.018 74.2383 142.287 74.2383C143.407 74.2383 144.24 74.5671 144.787 75.2246C145.334 75.8822 145.614 76.8652 145.627 78.1738V85H142.805V78.2422C142.805 77.6432 142.674 77.2103 142.414 76.9434C142.154 76.6699 141.721 76.5332 141.115 76.5332C140.321 76.5332 139.725 76.8717 139.328 77.5488V85H136.506V74.4336H139.162ZM151.154 71.8359V74.4336H152.961V76.5039H151.154V81.7773C151.154 82.168 151.229 82.4479 151.379 82.6172C151.529 82.7865 151.815 82.8711 152.238 82.8711C152.551 82.8711 152.827 82.8483 153.068 82.8027V84.9414C152.515 85.1107 151.945 85.1953 151.359 85.1953C149.38 85.1953 148.371 84.196 148.332 82.1973V76.5039H146.789V74.4336H148.332V71.8359H151.154ZM160.656 85C160.526 84.7461 160.432 84.4303 160.373 84.0527C159.689 84.8145 158.801 85.1953 157.707 85.1953C156.672 85.1953 155.812 84.8958 155.129 84.2969C154.452 83.6979 154.113 82.9427 154.113 82.0312C154.113 80.9115 154.527 80.0521 155.354 79.4531C156.187 78.8542 157.388 78.5514 158.957 78.5449H160.256V77.9395C160.256 77.4512 160.129 77.0605 159.875 76.7676C159.628 76.4746 159.234 76.3281 158.693 76.3281C158.218 76.3281 157.844 76.4421 157.57 76.6699C157.303 76.8978 157.17 77.2103 157.17 77.6074H154.348C154.348 76.9954 154.536 76.429 154.914 75.9082C155.292 75.3874 155.826 74.9805 156.516 74.6875C157.206 74.388 157.98 74.2383 158.84 74.2383C160.142 74.2383 161.174 74.5671 161.936 75.2246C162.704 75.8757 163.088 76.7936 163.088 77.9785V82.5586C163.094 83.5612 163.234 84.3197 163.508 84.834V85H160.656ZM158.322 83.0371C158.739 83.0371 159.123 82.946 159.475 82.7637C159.826 82.5749 160.087 82.3242 160.256 82.0117V80.1953H159.201C157.788 80.1953 157.036 80.6836 156.945 81.6602L156.936 81.8262C156.936 82.1777 157.059 82.4674 157.307 82.6953C157.554 82.9232 157.893 83.0371 158.322 83.0371ZM168.234 85H165.402V74.4336H168.234V85ZM165.236 71.6992C165.236 71.276 165.376 70.9277 165.656 70.6543C165.943 70.3809 166.33 70.2441 166.818 70.2441C167.3 70.2441 167.684 70.3809 167.971 70.6543C168.257 70.9277 168.4 71.276 168.4 71.6992C168.4 72.1289 168.254 72.4805 167.961 72.7539C167.674 73.0273 167.294 73.1641 166.818 73.1641C166.343 73.1641 165.959 73.0273 165.666 72.7539C165.38 72.4805 165.236 72.1289 165.236 71.6992ZM173.166 74.4336L173.254 75.6543C174.009 74.7103 175.021 74.2383 176.291 74.2383C177.411 74.2383 178.244 74.5671 178.791 75.2246C179.338 75.8822 179.618 76.8652 179.631 78.1738V85H176.809V78.2422C176.809 77.6432 176.678 77.2103 176.418 76.9434C176.158 76.6699 175.725 76.5332 175.119 76.5332C174.325 76.5332 173.729 76.8717 173.332 77.5488V85H170.51V74.4336H173.166ZM186.643 85.1953C185.093 85.1953 183.83 84.7201 182.854 83.7695C181.883 82.819 181.398 81.5527 181.398 79.9707V79.6973C181.398 78.6361 181.604 77.6888 182.014 76.8555C182.424 76.0156 183.003 75.3711 183.752 74.9219C184.507 74.4661 185.367 74.2383 186.33 74.2383C187.775 74.2383 188.911 74.694 189.738 75.6055C190.572 76.5169 190.988 77.8092 190.988 79.4824V80.6348H184.26C184.351 81.3249 184.624 81.8783 185.08 82.2949C185.542 82.7116 186.125 82.9199 186.828 82.9199C187.915 82.9199 188.765 82.526 189.377 81.7383L190.764 83.291C190.34 83.89 189.768 84.3587 189.045 84.6973C188.322 85.0293 187.521 85.1953 186.643 85.1953ZM186.32 76.5234C185.76 76.5234 185.305 76.7122 184.953 77.0898C184.608 77.4674 184.387 78.0078 184.289 78.7109H188.215V78.4863C188.202 77.8613 188.033 77.3796 187.707 77.041C187.382 76.696 186.919 76.5234 186.32 76.5234ZM198.537 77.0801C198.153 77.028 197.814 77.002 197.521 77.002C196.454 77.002 195.754 77.3633 195.422 78.0859V85H192.6V74.4336H195.266L195.344 75.6934C195.91 74.7233 196.695 74.2383 197.697 74.2383C198.01 74.2383 198.303 74.2806 198.576 74.3652L198.537 77.0801Z" fill="white"/>
<path d="M376.707 52.2929C376.317 51.9024 375.683 51.9024 375.293 52.2929L368.929 58.6569C368.538 59.0474 368.538 59.6805 368.929 60.0711C369.319 60.4616 369.953 60.4616 370.343 60.0711L376 54.4142L381.657 60.0711C382.047 60.4616 382.681 60.4616 383.071 60.0711C383.462 59.6805 383.462 59.0474 383.071 58.6569L376.707 52.2929ZM375.293 248.707C375.683 249.098 376.317 249.098 376.707 248.707L383.071 242.343C383.462 241.953 383.462 241.319 383.071 240.929C382.681 240.538 382.047 240.538 381.657 240.929L376 246.586L370.343 240.929C369.953 240.538 369.319 240.538 368.929 240.929C368.538 241.319 368.538 241.953 368.929 242.343L375.293 248.707ZM375 53V54.9697H377V53H375ZM375 56.9394V60.8788H377V56.9394H375ZM375 62.8485V66.7879H377V62.8485H375ZM375 68.7576V72.697H377V68.7576H375ZM375 74.6667V78.6061H377V74.6667H375ZM375 80.5758V84.5152H377V80.5758H375ZM375 86.4849V90.4242H377V86.4849H375ZM375 92.3939V96.3333H377V92.3939H375ZM375 98.303V102.242H377V98.303H375ZM375 104.212V108.152H377V104.212H375ZM375 110.121V114.061H377V110.121H375ZM375 116.03V119.97H377V116.03H375ZM375 121.939V125.879H377V121.939H375ZM375 127.848V131.788H377V127.848H375ZM375 133.758V137.697H377V133.758H375ZM375 139.667V143.606H377V139.667H375ZM375 145.576V149.515H377V145.576H375ZM375 151.485V155.424H377V151.485H375ZM375 157.394V161.333H377V157.394H375ZM375 163.303V167.242H377V163.303H375ZM375 169.212V173.151H377V169.212H375ZM375 175.121V179.061H377V175.121H375ZM375 181.03V184.97H377V181.03H375ZM375 186.939V190.879H377V186.939H375ZM375 192.848V196.788H377V192.848H375ZM375 198.758V202.697H377V198.758H375ZM375 204.667V208.606H377V204.667H375ZM375 210.576V214.515H377V210.576H375ZM375 216.485V220.424H377V216.485H375ZM375 222.394V226.333H377V222.394H375ZM375 228.303V232.242H377V228.303H375ZM375 234.212V238.151H377V234.212H375ZM375 240.121V244.061H377V240.121H375ZM375 246.03V248H377V246.03H375Z" fill="white"/>
<path d="M53.7929 213.293C53.4024 213.683 53.4024 214.317 53.7929 214.707L60.1569 221.071C60.5474 221.462 61.1805 221.462 61.5711 221.071C61.9616 220.681 61.9616 220.047 61.5711 219.657L55.9142 214L61.5711 208.343C61.9616 207.953 61.9616 207.319 61.5711 206.929C61.1805 206.538 60.5474 206.538 60.1569 206.929L53.7929 213.293ZM562.207 214.707C562.598 214.317 562.598 213.683 562.207 213.293L555.843 206.929C555.453 206.538 554.819 206.538 554.429 206.929C554.038 207.319 554.038 207.953 554.429 208.343L560.086 214L554.429 219.657C554.038 220.047 554.038 220.681 554.429 221.071C554.819 221.462 555.453 221.462 555.843 221.071L562.207 214.707ZM54.5 215H56.4882V213H54.5V215ZM58.4765 215H62.4529V213H58.4765V215ZM64.4412 215H68.4176V213H64.4412V215ZM70.4059 215H74.3824V213H70.4059V215ZM76.3706 215H80.3471V213H76.3706V215ZM82.3353 215H86.3118V213H82.3353V215ZM88.3 215H92.2765V213H88.3V215ZM94.2647 215H98.2412V213H94.2647V215ZM100.229 215H104.206V213H100.229V215ZM106.194 215H110.171V213H106.194V215ZM112.159 215H116.135V213H112.159V215ZM118.124 215H122.1V213H118.124V215ZM124.088 215H128.065V213H124.088V215ZM130.053 215H134.029V213H130.053V215ZM136.018 215H139.994V213H136.018V215ZM141.982 215H145.959V213H141.982V215ZM147.947 215H151.924V213H147.947V215ZM153.912 215H157.888V213H153.912V215ZM159.876 215H163.853V213H159.876V215ZM165.841 215H169.818V213H165.841V215ZM171.806 215H175.782V213H171.806V215ZM177.771 215H181.747V213H177.771V215ZM183.735 215H187.712V213H183.735V215ZM189.7 215H193.676V213H189.7V215ZM195.665 215H199.641V213H195.665V215ZM201.629 215H205.606V213H201.629V215ZM207.594 215H211.571V213H207.594V215ZM213.559 215H217.535V213H213.559V215ZM219.524 215H223.5V213H219.524V215ZM225.488 215H229.465V213H225.488V215ZM231.453 215H235.429V213H231.453V215ZM237.418 215H241.394V213H237.418V215ZM243.382 215H247.359V213H243.382V215ZM249.347 215H253.324V213H249.347V215ZM255.312 215H259.288V213H255.312V215ZM261.276 215H265.253V213H261.276V215ZM267.241 215H271.218V213H267.241V215ZM273.206 215H277.182V213H273.206V215ZM279.171 215H283.147V213H279.171V215ZM285.135 215H289.112V213L285.135 213V215ZM291.1 215H295.076V213H291.1V215ZM297.065 215H301.041V213H297.065V215ZM303.029 215H307.006V213H303.029V215ZM308.994 215H312.971V213H308.994V215ZM314.959 215H318.935V213H314.959V215ZM320.923 215H324.9V213H320.923V215ZM326.888 215H330.865V213H326.888V215ZM332.853 215H336.829V213H332.853V215ZM338.818 215H342.794V213H338.818V215ZM344.782 215H348.759V213H344.782V215ZM350.747 215H354.723V213H350.747V215ZM356.712 215H360.688V213H356.712V215ZM362.676 215H366.653V213H362.676V215ZM368.641 215H372.618V213H368.641V215ZM374.606 215H378.582V213H374.606V215ZM380.57 215H384.547V213H380.57V215ZM386.535 215H390.512V213H386.535V215ZM392.5 215H396.476V213H392.5V215ZM398.464 215H402.441V213H398.464V215ZM404.429 215H408.406V213H404.429V215ZM410.394 215H414.37V213H410.394V215ZM416.359 215H420.335V213H416.359V215ZM422.323 215H426.3V213H422.323V215ZM428.288 215H432.264V213H428.288V215ZM434.253 215H438.229V213H434.253V215ZM440.217 215H444.194V213H440.217V215ZM446.182 215H450.158V213H446.182V215ZM452.147 215H456.123V213H452.147V215ZM458.111 215H462.088V213H458.111V215ZM464.076 215H468.053V213H464.076V215ZM470.041 215H474.017V213H470.041V215ZM476.005 215H479.982V213H476.005V215ZM481.97 215H485.947V213H481.97V215ZM487.935 215H491.911V213H487.935V215ZM493.9 215H497.876V213H493.9V215ZM499.864 215H503.841V213H499.864V215ZM505.829 215H509.805V213H505.829V215ZM511.794 215H515.77V213H511.794V215ZM517.758 215H521.735V213H517.758V215ZM523.723 215H527.699V213H523.723V215ZM529.688 215H533.664V213H529.688V215ZM535.652 215H539.629V213H535.652V215ZM541.617 215H545.594V213H541.617V215ZM547.582 215H551.558V213H547.582V215ZM553.546 215H557.523V213H553.546V215ZM559.511 215H561.5V213H559.511V215Z" fill="white"/>
<path d="M49.5 256V279" stroke="#001EBB" stroke-width="2" stroke-miterlimit="16" stroke-dasharray="3 2"/>
<path d="M49.5 45V23H566.5V45" stroke="#00986B" stroke-width="2" stroke-miterlimit="16"/>
<path d="M46.5 253L24.5 253L24.5 48L46.5 48" stroke="#00986B" stroke-width="2" stroke-miterlimit="16"/>
<path d="M566.5 256V279" stroke="#001EBB" stroke-width="2" stroke-miterlimit="16" stroke-dasharray="3 2"/>
<path d="M569.5 253L618.5 253" stroke="#001EBB" stroke-width="2" stroke-miterlimit="16" stroke-dasharray="3 2"/>
<path d="M569.5 48L618.5 48" stroke="#001EBB" stroke-width="2" stroke-miterlimit="16" stroke-dasharray="3 2"/>
<defs>
<filter id="filter0_d" x="73.5" y="102" width="86" height="86" filterUnits="userSpaceOnUse" color-interpolation-filters="sRGB">
<feFlood flood-opacity="0" result="BackgroundImageFix"/>
<feColorMatrix in="SourceAlpha" type="matrix" values="0 0 0 0 0 0 0 0 0 0 0 0 0 0 0 0 0 0 127 0"/>
<feOffset dx="6" dy="6"/>
<feColorMatrix type="matrix" values="0 0 0 0 0 0 0 0 0 0 0 0 0 0 0 0 0 0 0.15 0"/>
<feBlend mode="normal" in2="BackgroundImageFix" result="effect1_dropShadow"/>
<feBlend mode="normal" in="SourceGraphic" in2="effect1_dropShadow" result="shape"/>
</filter>
<filter id="filter1_d" x="168.5" y="102" width="86" height="86" filterUnits="userSpaceOnUse" color-interpolation-filters="sRGB">
<feFlood flood-opacity="0" result="BackgroundImageFix"/>
<feColorMatrix in="SourceAlpha" type="matrix" values="0 0 0 0 0 0 0 0 0 0 0 0 0 0 0 0 0 0 127 0"/>
<feOffset dx="6" dy="6"/>
<feColorMatrix type="matrix" values="0 0 0 0 0 0 0 0 0 0 0 0 0 0 0 0 0 0 0.15 0"/>
<feBlend mode="normal" in2="BackgroundImageFix" result="effect1_dropShadow"/>
<feBlend mode="normal" in="SourceGraphic" in2="effect1_dropShadow" result="shape"/>
</filter>
<filter id="filter2_d" x="263.5" y="102" width="86" height="86" filterUnits="userSpaceOnUse" color-interpolation-filters="sRGB">
<feFlood flood-opacity="0" result="BackgroundImageFix"/>
<feColorMatrix in="SourceAlpha" type="matrix" values="0 0 0 0 0 0 0 0 0 0 0 0 0 0 0 0 0 0 127 0"/>
<feOffset dx="6" dy="6"/>
<feColorMatrix type="matrix" values="0 0 0 0 0 0 0 0 0 0 0 0 0 0 0 0 0 0 0.15 0"/>
<feBlend mode="normal" in2="BackgroundImageFix" result="effect1_dropShadow"/>
<feBlend mode="normal" in="SourceGraphic" in2="effect1_dropShadow" result="shape"/>
</filter>
</defs>
</svg>
