<svg width="215" height="344" viewBox="0 0 215 344" fill="none" xmlns="http://www.w3.org/2000/svg">
<rect x="214" y="1" width="342" height="213" rx="9" transform="rotate(90 214 1)" fill="#7187FB" stroke="#001EBB" stroke-width="2"/>
<path d="M160.49 207.643L161.554 207.563C160.728 206.89 160.314 205.979 160.314 204.83C160.314 203.605 160.798 202.765 161.765 202.308C160.798 201.64 160.314 200.687 160.314 199.451C160.314 198.42 160.616 197.652 161.22 197.148C161.817 196.645 162.72 196.393 163.927 196.393L170 196.393L170 198.941L163.936 198.941C163.396 198.941 163.004 199.047 162.758 199.258C162.506 199.469 162.38 199.841 162.38 200.374C162.38 201.136 162.743 201.663 163.47 201.956L170 201.947L170 204.487L163.944 204.487C163.394 204.487 162.995 204.596 162.749 204.812C162.503 205.029 162.38 205.398 162.38 205.92C162.38 206.641 162.679 207.162 163.276 207.484L170 207.484L170 210.024L160.49 210.024L160.49 207.643ZM170 188.922C169.771 189.039 169.487 189.124 169.147 189.177C169.833 189.792 170.176 190.592 170.176 191.576C170.176 192.508 169.906 193.281 169.367 193.896C168.828 194.506 168.148 194.811 167.328 194.811C166.32 194.811 165.547 194.438 165.008 193.694C164.469 192.944 164.196 191.863 164.19 190.451L164.19 189.282L163.646 189.282C163.206 189.282 162.854 189.396 162.591 189.625C162.327 189.848 162.195 190.202 162.195 190.688C162.195 191.116 162.298 191.453 162.503 191.699C162.708 191.939 162.989 192.06 163.347 192.06L163.347 194.6C162.796 194.6 162.286 194.43 161.817 194.09C161.349 193.75 160.982 193.27 160.719 192.648C160.449 192.027 160.314 191.33 160.314 190.557C160.314 189.385 160.61 188.456 161.202 187.771C161.788 187.079 162.614 186.733 163.681 186.733L167.803 186.733C168.705 186.728 169.388 186.602 169.851 186.355L170 186.355L170 188.922ZM168.233 191.022C168.233 190.647 168.151 190.302 167.987 189.985C167.817 189.669 167.592 189.435 167.311 189.282L165.676 189.282L165.676 190.231C165.676 191.503 166.115 192.18 166.994 192.262L167.144 192.271C167.46 192.271 167.721 192.159 167.926 191.937C168.131 191.714 168.233 191.409 168.233 191.022ZM170 182.102L170 184.65L160.49 184.65L160.49 182.102L170 182.102ZM158.029 184.8C157.648 184.8 157.335 184.674 157.089 184.422C156.843 184.164 156.72 183.815 156.72 183.376C156.72 182.942 156.843 182.597 157.089 182.339C157.335 182.081 157.648 181.952 158.029 181.952C158.416 181.952 158.732 182.084 158.979 182.348C159.225 182.605 159.348 182.948 159.348 183.376C159.348 183.804 159.225 184.149 158.979 184.413C158.732 184.671 158.416 184.8 158.029 184.8ZM160.49 177.663L161.589 177.584C160.739 176.904 160.314 175.993 160.314 174.851C160.314 173.843 160.61 173.093 161.202 172.601C161.794 172.108 162.679 171.856 163.856 171.845L170 171.845L170 174.385L163.918 174.385C163.379 174.385 162.989 174.502 162.749 174.736C162.503 174.971 162.38 175.36 162.38 175.905C162.38 176.62 162.685 177.156 163.294 177.514L170 177.514L170 180.054L160.49 180.054L160.49 177.663ZM170 159.918C169.771 160.035 169.487 160.12 169.147 160.173C169.833 160.788 170.176 161.588 170.176 162.572C170.176 163.504 169.906 164.277 169.367 164.893C168.828 165.502 168.148 165.807 167.328 165.807C166.32 165.807 165.547 165.435 165.008 164.69C164.469 163.94 164.196 162.859 164.19 161.447L164.19 160.278L163.646 160.278C163.206 160.278 162.854 160.393 162.591 160.621C162.327 160.844 162.195 161.198 162.195 161.685C162.195 162.112 162.298 162.449 162.503 162.695C162.708 162.936 162.989 163.056 163.347 163.056L163.347 165.596C162.796 165.596 162.286 165.426 161.817 165.086C161.349 164.746 160.982 164.266 160.719 163.645C160.449 163.023 160.314 162.326 160.314 161.553C160.314 160.381 160.61 159.452 161.202 158.767C161.788 158.075 162.614 157.729 163.681 157.729L167.803 157.729C168.705 157.724 169.388 157.598 169.851 157.352L170 157.352L170 159.918ZM168.233 162.019C168.233 161.644 168.151 161.298 167.987 160.981C167.817 160.665 167.592 160.431 167.311 160.278L165.676 160.278L165.676 161.228C165.676 162.499 166.115 163.176 166.994 163.258L167.144 163.267C167.46 163.267 167.721 163.155 167.926 162.933C168.131 162.71 168.233 162.405 168.233 162.019ZM163.329 152.157L160.49 150.558L160.49 147.842L165.148 150.549L170 147.728L170 150.452L167.012 152.148L170 153.836L170 156.569L165.148 153.748L160.49 156.446L160.49 153.722L163.329 152.157ZM170 143.939L170 146.488L160.49 146.488L160.49 143.939L170 143.939ZM158.029 146.638C157.648 146.638 157.335 146.512 157.089 146.26C156.843 146.002 156.72 145.653 156.72 145.214C156.72 144.78 156.843 144.435 157.089 144.177C157.335 143.919 157.648 143.79 158.029 143.79C158.416 143.79 158.732 143.922 158.979 144.186C159.225 144.443 159.348 144.786 159.348 145.214C159.348 145.642 159.225 145.987 158.979 146.251C158.732 146.509 158.416 146.638 158.029 146.638ZM167.372 136.688C167.062 136.688 166.818 136.844 166.643 137.154C166.461 137.459 166.3 137.951 166.159 138.631C165.685 140.893 164.724 142.023 163.276 142.023C162.433 142.023 161.729 141.675 161.167 140.978C160.599 140.274 160.314 139.357 160.314 138.227C160.314 137.02 160.599 136.056 161.167 135.335C161.735 134.608 162.474 134.245 163.382 134.245L163.382 136.785C163.019 136.785 162.72 136.902 162.485 137.137C162.245 137.371 162.125 137.737 162.125 138.235C162.125 138.663 162.222 138.994 162.415 139.229C162.608 139.463 162.854 139.58 163.153 139.58C163.435 139.58 163.663 139.448 163.839 139.185C164.009 138.915 164.158 138.464 164.287 137.831C164.41 137.198 164.551 136.665 164.709 136.231C165.201 134.89 166.054 134.219 167.267 134.219C168.134 134.219 168.837 134.591 169.376 135.335C169.909 136.079 170.176 137.04 170.176 138.218C170.176 139.015 170.035 139.724 169.754 140.345C169.467 140.96 169.077 141.443 168.585 141.795C168.087 142.146 167.551 142.322 166.977 142.322L166.977 139.914C167.428 139.891 167.773 139.724 168.014 139.413C168.254 139.103 168.374 138.687 168.374 138.165C168.374 137.679 168.283 137.312 168.102 137.066C167.914 136.814 167.671 136.688 167.372 136.688Z" fill="#FFF000"/>
<g filter="url(#filter0_d)">
<path d="M26.5312 211.75C26.0833 211.698 25.6667 211.672 25.2812 211.672C24.2604 211.672 23.75 212.107 23.75 212.977V213.547H25.4297V215.203H23.75V222H21.4844V215.203H20.2266V213.547H21.4844V212.891C21.4948 211.911 21.8021 211.159 22.4062 210.633C23.0104 210.102 23.8646 209.836 24.9688 209.836C25.7552 209.836 27.0312 209.919 28.7969 210.086V222H26.5312V211.75ZM34.5703 222.156C33.3307 222.156 32.3203 221.776 31.5391 221.016C30.763 220.255 30.375 219.242 30.375 217.977V217.758C30.375 216.909 30.5391 216.151 30.8672 215.484C31.1953 214.812 31.6589 214.297 32.2578 213.938C32.862 213.573 33.5495 213.391 34.3203 213.391C35.4766 213.391 36.3854 213.755 37.0469 214.484C37.7135 215.214 38.0469 216.247 38.0469 217.586V218.508H32.6641C32.737 219.06 32.9557 219.503 33.3203 219.836C33.6901 220.169 34.1562 220.336 34.7188 220.336C35.5885 220.336 36.2682 220.021 36.7578 219.391L37.8672 220.633C37.5286 221.112 37.0703 221.487 36.4922 221.758C35.9141 222.023 35.2734 222.156 34.5703 222.156ZM34.3125 215.219C33.8646 215.219 33.5 215.37 33.2188 215.672C32.9427 215.974 32.7656 216.406 32.6875 216.969H35.8281V216.789C35.8177 216.289 35.6823 215.904 35.4219 215.633C35.1615 215.357 34.7917 215.219 34.3125 215.219ZM42.5547 216.07L43.9766 213.547H46.3906L43.9844 217.688L46.4922 222H44.0703L42.5625 219.344L41.0625 222H38.6328L41.1406 217.688L38.7422 213.547H41.1641L42.5547 216.07ZM51.8672 218.039H47.4688V216.219H51.8672V218.039ZM53.3281 217.711C53.3281 216.393 53.6224 215.344 54.2109 214.562C54.8047 213.781 55.6146 213.391 56.6406 213.391C57.4635 213.391 58.1432 213.698 58.6797 214.312V210H60.9453V222H58.9062L58.7969 221.102C58.2344 221.805 57.5104 222.156 56.625 222.156C55.6302 222.156 54.8307 221.766 54.2266 220.984C53.6276 220.198 53.3281 219.107 53.3281 217.711ZM55.5859 217.875C55.5859 218.667 55.724 219.273 56 219.695C56.276 220.117 56.6771 220.328 57.2031 220.328C57.901 220.328 58.3932 220.034 58.6797 219.445V216.109C58.3984 215.521 57.9115 215.227 57.2188 215.227C56.1302 215.227 55.5859 216.109 55.5859 217.875ZM65.0781 222H62.8125V213.547H65.0781V222ZM62.6797 211.359C62.6797 211.021 62.7917 210.742 63.0156 210.523C63.2448 210.305 63.5547 210.195 63.9453 210.195C64.3307 210.195 64.638 210.305 64.8672 210.523C65.0964 210.742 65.2109 211.021 65.2109 211.359C65.2109 211.703 65.0938 211.984 64.8594 212.203C64.6302 212.422 64.3255 212.531 63.9453 212.531C63.5651 212.531 63.2578 212.422 63.0234 212.203C62.7943 211.984 62.6797 211.703 62.6797 211.359ZM71.6953 215.664C71.388 215.622 71.1172 215.602 70.8828 215.602C70.0286 215.602 69.4688 215.891 69.2031 216.469V222H66.9453V213.547H69.0781L69.1406 214.555C69.5938 213.779 70.2214 213.391 71.0234 213.391C71.2734 213.391 71.5078 213.424 71.7266 213.492L71.6953 215.664ZM76.5234 222.156C75.2839 222.156 74.2734 221.776 73.4922 221.016C72.7161 220.255 72.3281 219.242 72.3281 217.977V217.758C72.3281 216.909 72.4922 216.151 72.8203 215.484C73.1484 214.812 73.612 214.297 74.2109 213.938C74.8151 213.573 75.5026 213.391 76.2734 213.391C77.4297 213.391 78.3385 213.755 79 214.484C79.6667 215.214 80 216.247 80 217.586V218.508H74.6172C74.6901 219.06 74.9089 219.503 75.2734 219.836C75.6432 220.169 76.1094 220.336 76.6719 220.336C77.5417 220.336 78.2214 220.021 78.7109 219.391L79.8203 220.633C79.4818 221.112 79.0234 221.487 78.4453 221.758C77.8672 222.023 77.2266 222.156 76.5234 222.156ZM76.2656 215.219C75.8177 215.219 75.4531 215.37 75.1719 215.672C74.8958 215.974 74.7188 216.406 74.6406 216.969H77.7812V216.789C77.7708 216.289 77.6354 215.904 77.375 215.633C77.1146 215.357 76.7448 215.219 76.2656 215.219ZM84.8047 220.336C85.2214 220.336 85.5599 220.221 85.8203 219.992C86.0807 219.763 86.2161 219.458 86.2266 219.078H88.3438C88.3385 219.651 88.1823 220.177 87.875 220.656C87.5677 221.13 87.1458 221.5 86.6094 221.766C86.0781 222.026 85.4896 222.156 84.8438 222.156C83.6354 222.156 82.6823 221.773 81.9844 221.008C81.2865 220.237 80.9375 219.174 80.9375 217.82V217.672C80.9375 216.37 81.2839 215.331 81.9766 214.555C82.6693 213.779 83.6198 213.391 84.8281 213.391C85.8854 213.391 86.7318 213.693 87.3672 214.297C88.0078 214.896 88.3333 215.695 88.3438 216.695H86.2266C86.2161 216.258 86.0807 215.904 85.8203 215.633C85.5599 215.357 85.2161 215.219 84.7891 215.219C84.263 215.219 83.8646 215.411 83.5938 215.797C83.3281 216.177 83.1953 216.797 83.1953 217.656V217.891C83.1953 218.76 83.3281 219.385 83.5938 219.766C83.8594 220.146 84.263 220.336 84.8047 220.336ZM92.3359 211.469V213.547H93.7812V215.203H92.3359V219.422C92.3359 219.734 92.3958 219.958 92.5156 220.094C92.6354 220.229 92.8646 220.297 93.2031 220.297C93.4531 220.297 93.6745 220.279 93.8672 220.242V221.953C93.4245 222.089 92.9688 222.156 92.5 222.156C90.9167 222.156 90.1094 221.357 90.0781 219.758V215.203H88.8438V213.547H90.0781V211.469H92.3359ZM97.4219 222H95.1562V213.547H97.4219V222ZM95.0234 211.359C95.0234 211.021 95.1354 210.742 95.3594 210.523C95.5885 210.305 95.8984 210.195 96.2891 210.195C96.6745 210.195 96.9818 210.305 97.2109 210.523C97.4401 210.742 97.5547 211.021 97.5547 211.359C97.5547 211.703 97.4375 211.984 97.2031 212.203C96.974 212.422 96.6693 212.531 96.2891 212.531C95.9089 212.531 95.6016 212.422 95.3672 212.203C95.138 211.984 95.0234 211.703 95.0234 211.359ZM98.9375 217.695C98.9375 216.857 99.099 216.109 99.4219 215.453C99.7448 214.797 100.208 214.289 100.812 213.93C101.422 213.57 102.128 213.391 102.93 213.391C104.07 213.391 105 213.74 105.719 214.438C106.443 215.135 106.846 216.083 106.93 217.281L106.945 217.859C106.945 219.156 106.583 220.198 105.859 220.984C105.135 221.766 104.164 222.156 102.945 222.156C101.727 222.156 100.753 221.766 100.023 220.984C99.2995 220.203 98.9375 219.141 98.9375 217.797V217.695ZM101.195 217.859C101.195 218.661 101.346 219.276 101.648 219.703C101.951 220.125 102.383 220.336 102.945 220.336C103.492 220.336 103.919 220.128 104.227 219.711C104.534 219.289 104.688 218.617 104.688 217.695C104.688 216.909 104.534 216.299 104.227 215.867C103.919 215.435 103.487 215.219 102.93 215.219C102.378 215.219 101.951 215.435 101.648 215.867C101.346 216.294 101.195 216.958 101.195 217.859ZM110.414 213.547L110.484 214.523C111.089 213.768 111.898 213.391 112.914 213.391C113.81 213.391 114.477 213.654 114.914 214.18C115.352 214.706 115.576 215.492 115.586 216.539V222H113.328V216.594C113.328 216.115 113.224 215.768 113.016 215.555C112.807 215.336 112.461 215.227 111.977 215.227C111.341 215.227 110.865 215.497 110.547 216.039V222H108.289V213.547H110.414ZM117.414 220.891C117.414 220.531 117.534 220.24 117.773 220.016C118.018 219.792 118.323 219.68 118.688 219.68C119.057 219.68 119.362 219.792 119.602 220.016C119.846 220.24 119.969 220.531 119.969 220.891C119.969 221.245 119.849 221.534 119.609 221.758C119.37 221.977 119.062 222.086 118.688 222.086C118.318 222.086 118.013 221.977 117.773 221.758C117.534 221.534 117.414 221.245 117.414 220.891ZM117.414 214.492C117.414 214.133 117.534 213.841 117.773 213.617C118.018 213.393 118.323 213.281 118.688 213.281C119.057 213.281 119.362 213.393 119.602 213.617C119.846 213.841 119.969 214.133 119.969 214.492C119.969 214.846 119.849 215.135 119.609 215.359C119.37 215.578 119.062 215.688 118.688 215.688C118.318 215.688 118.013 215.578 117.773 215.359C117.534 215.135 117.414 214.846 117.414 214.492ZM24.3828 239.336C24.7995 239.336 25.138 239.221 25.3984 238.992C25.6589 238.763 25.7943 238.458 25.8047 238.078H27.9219C27.9167 238.651 27.7604 239.177 27.4531 239.656C27.1458 240.13 26.724 240.5 26.1875 240.766C25.6562 241.026 25.0677 241.156 24.4219 241.156C23.2135 241.156 22.2604 240.773 21.5625 240.008C20.8646 239.237 20.5156 238.174 20.5156 236.82V236.672C20.5156 235.37 20.862 234.331 21.5547 233.555C22.2474 232.779 23.1979 232.391 24.4062 232.391C25.4635 232.391 26.3099 232.693 26.9453 233.297C27.5859 233.896 27.9115 234.695 27.9219 235.695H25.8047C25.7943 235.258 25.6589 234.904 25.3984 234.633C25.138 234.357 24.7943 234.219 24.3672 234.219C23.8411 234.219 23.4427 234.411 23.1719 234.797C22.9062 235.177 22.7734 235.797 22.7734 236.656V236.891C22.7734 237.76 22.9062 238.385 23.1719 238.766C23.4375 239.146 23.8411 239.336 24.3828 239.336ZM28.8594 236.695C28.8594 235.857 29.0208 235.109 29.3438 234.453C29.6667 233.797 30.1302 233.289 30.7344 232.93C31.3438 232.57 32.0495 232.391 32.8516 232.391C33.9922 232.391 34.9219 232.74 35.6406 233.438C36.3646 234.135 36.7682 235.083 36.8516 236.281L36.8672 236.859C36.8672 238.156 36.5052 239.198 35.7812 239.984C35.0573 240.766 34.0859 241.156 32.8672 241.156C31.6484 241.156 30.6745 240.766 29.9453 239.984C29.2214 239.203 28.8594 238.141 28.8594 236.797V236.695ZM31.1172 236.859C31.1172 237.661 31.2682 238.276 31.5703 238.703C31.8724 239.125 32.3047 239.336 32.8672 239.336C33.4141 239.336 33.8411 239.128 34.1484 238.711C34.4557 238.289 34.6094 237.617 34.6094 236.695C34.6094 235.909 34.4557 235.299 34.1484 234.867C33.8411 234.435 33.4089 234.219 32.8516 234.219C32.2995 234.219 31.8724 234.435 31.5703 234.867C31.2682 235.294 31.1172 235.958 31.1172 236.859ZM40.6406 241H38.375V229H40.6406V241ZM47.5703 240.141C47.013 240.818 46.2422 241.156 45.2578 241.156C44.3516 241.156 43.6589 240.896 43.1797 240.375C42.7057 239.854 42.4635 239.091 42.4531 238.086V232.547H44.7109V238.008C44.7109 238.888 45.112 239.328 45.9141 239.328C46.6797 239.328 47.2057 239.062 47.4922 238.531V232.547H49.7578V241H47.6328L47.5703 240.141ZM53.5781 232.547L53.6484 233.492C54.2474 232.758 55.0573 232.391 56.0781 232.391C57.1667 232.391 57.9141 232.82 58.3203 233.68C58.9141 232.82 59.7604 232.391 60.8594 232.391C61.776 232.391 62.4583 232.659 62.9062 233.195C63.3542 233.727 63.5781 234.529 63.5781 235.602V241H61.3125V235.609C61.3125 235.13 61.2188 234.781 61.0312 234.562C60.8438 234.339 60.513 234.227 60.0391 234.227C59.362 234.227 58.8932 234.549 58.6328 235.195L58.6406 241H56.3828V235.617C56.3828 235.128 56.2865 234.773 56.0938 234.555C55.901 234.336 55.5729 234.227 55.1094 234.227C54.4688 234.227 54.0052 234.492 53.7188 235.023V241H51.4609V232.547H53.5781ZM67.3984 232.547L67.4688 233.523C68.0729 232.768 68.8828 232.391 69.8984 232.391C70.7943 232.391 71.4609 232.654 71.8984 233.18C72.3359 233.706 72.5599 234.492 72.5703 235.539V241H70.3125V235.594C70.3125 235.115 70.2083 234.768 70 234.555C69.7917 234.336 69.4453 234.227 68.9609 234.227C68.3255 234.227 67.849 234.497 67.5312 235.039V241H65.2734V232.547H67.3984ZM74.2656 233.492C74.2656 233.133 74.3854 232.841 74.625 232.617C74.8698 232.393 75.1745 232.281 75.5391 232.281C75.9089 232.281 76.2135 232.393 76.4531 232.617C76.6979 232.841 76.8203 233.133 76.8203 233.492C76.8203 233.846 76.7005 234.135 76.4609 234.359C76.2214 234.578 75.9141 234.688 75.5391 234.688C75.1693 234.688 74.8646 234.578 74.625 234.359C74.3854 234.135 74.2656 233.846 74.2656 233.492ZM75.0469 243.852L73.8672 243.234L74.1484 242.727C74.4974 242.091 74.6771 241.458 74.6875 240.828V239.078H76.5938L76.5859 240.641C76.5807 241.219 76.4349 241.802 76.1484 242.391C75.862 242.979 75.4948 243.466 75.0469 243.852Z" fill="white"/>
</g>
<path d="M179.707 5.29289C179.317 4.90237 178.683 4.90237 178.293 5.29289L171.929 11.6569C171.538 12.0474 171.538 12.6805 171.929 13.0711C172.319 13.4616 172.953 13.4616 173.343 13.0711L179 7.41421L184.657 13.0711C185.047 13.4616 185.681 13.4616 186.071 13.0711C186.462 12.6805 186.462 12.0474 186.071 11.6569L179.707 5.29289ZM178.293 337.707C178.683 338.098 179.317 338.098 179.707 337.707L186.071 331.343C186.462 330.953 186.462 330.319 186.071 329.929C185.681 329.538 185.047 329.538 184.657 329.929L179 335.586L173.343 329.929C172.953 329.538 172.319 329.538 171.929 329.929C171.538 330.319 171.538 330.953 171.929 331.343L178.293 337.707ZM178 6V8.00606H180V6H178ZM178 10.0121V14.0242H180V10.0121H178ZM178 16.0303V20.0424H180V16.0303H178ZM178 22.0485V26.0606H180V22.0485H178ZM178 28.0667V32.0788H180V28.0667H178ZM178 34.0848V38.097H180V34.0848H178ZM178 40.103V44.1151H180V40.103H178ZM178 46.1212V50.1333H180V46.1212H178ZM178 52.1394V56.1515H180V52.1394H178ZM178 58.1576V62.1697H180V58.1576H178ZM178 64.1758V68.1879H180V64.1758H178ZM178 70.1939V74.2061H180V70.1939H178ZM178 76.2121V80.2242H180V76.2121H178ZM178 82.2303V86.2424H180V82.2303H178ZM178 88.2485V92.2606H180V88.2485H178ZM178 94.2667V98.2788H180V94.2667H178ZM178 100.285V104.297H180V100.285H178ZM178 106.303V110.315H180V106.303H178ZM178 112.321V116.333H180V112.321H178ZM178 118.339V122.352H180V118.339H178ZM178 124.358V128.37H180V124.358H178ZM178 130.376V134.388H180V130.376H178ZM178 136.394V140.406H180V136.394H178ZM178 142.412V146.424H180V142.412H178ZM178 148.43V152.442H180V148.43H178ZM178 154.448V158.461H180V154.448H178ZM178 160.467V164.479H180V160.467H178ZM178 166.485V170.497H180V166.485H178ZM178 172.503V176.515H180V172.503H178ZM178 178.521V182.533H180V178.521H178ZM178 184.539V188.551H180V184.539H178ZM178 190.557V194.57H180V190.557H178ZM178 196.576V200.588H180V196.576H178ZM178 202.594V206.606H180V202.594H178ZM178 208.612V212.624H180V208.612H178ZM178 214.63V218.642H180V214.63H178ZM178 220.648V224.66H180V220.648H178ZM178 226.667V230.679H180V226.667H178ZM178 232.685V236.697H180V232.685H178ZM178 238.703V242.715H180V238.703H178ZM178 244.721V248.733H180V244.721H178ZM178 250.739V254.751H180V250.739H178ZM178 256.757V260.769H180V256.757H178ZM178 262.776V266.788H180V262.776H178ZM178 268.794V272.806H180V268.794H178ZM178 274.812V278.824H180V274.812H178ZM178 280.83V284.842H180V280.83H178ZM178 286.848V290.86H180V286.848H178ZM178 292.867V296.879H180V292.867H178ZM178 298.885V302.897H180V298.885H178ZM178 304.903V308.915H180V304.903H178ZM178 310.921V314.933H180V310.921H178ZM178 316.939V320.951H180V316.939H178ZM178 322.957V326.97H180V322.957H178ZM178 328.976V332.988H180V328.976H178ZM178 334.994V337H180V334.994H178Z" fill="#FFF000"/>
<g filter="url(#filter1_d)">
<rect x="20" y="20" width="50" height="50" rx="6" fill="#FFF000"/>
<rect x="21" y="21" width="48" height="48" rx="5" stroke="#001EBB" stroke-width="2"/>
</g>
<path d="M47.126 51.5H44.999V41.2256L41.8613 42.2979V40.4961L46.8535 38.6592H47.126V51.5Z" fill="#001EBB"/>
<g filter="url(#filter2_d)">
<rect x="20" y="82" width="50" height="50" rx="6" fill="#FFF000"/>
<rect x="21" y="83" width="48" height="48" rx="5" stroke="#001EBB" stroke-width="2"/>
</g>
<path d="M49.9473 113.5H41.3428V112.032L45.6055 107.383C46.2207 106.697 46.6572 106.126 46.915 105.669C47.1787 105.206 47.3105 104.743 47.3105 104.28C47.3105 103.671 47.1377 103.179 46.792 102.804C46.4521 102.429 45.9922 102.241 45.4121 102.241C44.7207 102.241 44.1846 102.452 43.8037 102.874C43.4229 103.296 43.2324 103.873 43.2324 104.605H41.0967C41.0967 103.826 41.2725 103.126 41.624 102.505C41.9814 101.878 42.4883 101.392 43.1445 101.046C43.8066 100.7 44.5684 100.527 45.4297 100.527C46.6719 100.527 47.6504 100.841 48.3652 101.468C49.0859 102.089 49.4463 102.95 49.4463 104.052C49.4463 104.69 49.2646 105.361 48.9014 106.064C48.5439 106.762 47.9551 107.556 47.1348 108.446L44.0059 111.795H49.9473V113.5Z" fill="#001EBB"/>
<g filter="url(#filter3_d)">
<rect x="20" y="144" width="50" height="50" rx="6" fill="#FFF000"/>
<rect x="21" y="145" width="48" height="48" rx="5" stroke="#001EBB" stroke-width="2"/>
</g>
<path d="M43.8125 168.126H45.1133C45.7695 168.12 46.2881 167.95 46.6689 167.616C47.0557 167.282 47.249 166.799 47.249 166.166C47.249 165.557 47.0879 165.085 46.7656 164.751C46.4492 164.411 45.9629 164.241 45.3066 164.241C44.7324 164.241 44.2607 164.408 43.8916 164.742C43.5225 165.07 43.3379 165.501 43.3379 166.034H41.2021C41.2021 165.378 41.375 164.78 41.7207 164.241C42.0723 163.702 42.5586 163.283 43.1797 162.984C43.8066 162.68 44.5068 162.527 45.2803 162.527C46.5576 162.527 47.5596 162.85 48.2861 163.494C49.0186 164.133 49.3848 165.023 49.3848 166.166C49.3848 166.74 49.2002 167.282 48.8311 167.792C48.4678 168.296 47.9961 168.677 47.416 168.935C48.1191 169.175 48.6523 169.553 49.0156 170.068C49.3848 170.584 49.5693 171.199 49.5693 171.914C49.5693 173.062 49.1738 173.977 48.3828 174.656C47.5977 175.336 46.5635 175.676 45.2803 175.676C44.0498 175.676 43.042 175.348 42.2568 174.691C41.4717 174.035 41.0791 173.162 41.0791 172.072H43.2148C43.2148 172.635 43.4023 173.092 43.7773 173.443C44.1582 173.795 44.668 173.971 45.3066 173.971C45.9688 173.971 46.4902 173.795 46.8711 173.443C47.252 173.092 47.4424 172.582 47.4424 171.914C47.4424 171.24 47.2432 170.722 46.8447 170.358C46.4463 169.995 45.8545 169.813 45.0693 169.813H43.8125V168.126Z" fill="#001EBB"/>
<defs>
<filter id="filter0_d" x="20" y="207" width="102" height="39" filterUnits="userSpaceOnUse" color-interpolation-filters="sRGB">
<feFlood flood-opacity="0" result="BackgroundImageFix"/>
<feColorMatrix in="SourceAlpha" type="matrix" values="0 0 0 0 0 0 0 0 0 0 0 0 0 0 0 0 0 0 127 0"/>
<feOffset dx="1" dy="1"/>
<feColorMatrix type="matrix" values="0 0 0 0 0 0 0 0 0 0 0 0 0 0 0 0 0 0 0.25 0"/>
<feBlend mode="normal" in2="BackgroundImageFix" result="effect1_dropShadow"/>
<feBlend mode="normal" in="SourceGraphic" in2="effect1_dropShadow" result="shape"/>
</filter>
<filter id="filter1_d" x="20" y="20" width="56" height="56" filterUnits="userSpaceOnUse" color-interpolation-filters="sRGB">
<feFlood flood-opacity="0" result="BackgroundImageFix"/>
<feColorMatrix in="SourceAlpha" type="matrix" values="0 0 0 0 0 0 0 0 0 0 0 0 0 0 0 0 0 0 127 0"/>
<feOffset dx="6" dy="6"/>
<feColorMatrix type="matrix" values="0 0 0 0 0 0 0 0 0 0 0 0 0 0 0 0 0 0 0.15 0"/>
<feBlend mode="normal" in2="BackgroundImageFix" result="effect1_dropShadow"/>
<feBlend mode="normal" in="SourceGraphic" in2="effect1_dropShadow" result="shape"/>
</filter>
<filter id="filter2_d" x="20" y="82" width="56" height="56" filterUnits="userSpaceOnUse" color-interpolation-filters="sRGB">
<feFlood flood-opacity="0" result="BackgroundImageFix"/>
<feColorMatrix in="SourceAlpha" type="matrix" values="0 0 0 0 0 0 0 0 0 0 0 0 0 0 0 0 0 0 127 0"/>
<feOffset dx="6" dy="6"/>
<feColorMatrix type="matrix" values="0 0 0 0 0 0 0 0 0 0 0 0 0 0 0 0 0 0 0.15 0"/>
<feBlend mode="normal" in2="BackgroundImageFix" result="effect1_dropShadow"/>
<feBlend mode="normal" in="SourceGraphic" in2="effect1_dropShadow" result="shape"/>
</filter>
<filter id="filter3_d" x="20" y="144" width="56" height="56" filterUnits="userSpaceOnUse" color-interpolation-filters="sRGB">
<feFlood flood-opacity="0" result="BackgroundImageFix"/>
<feColorMatrix in="SourceAlpha" type="matrix" values="0 0 0 0 0 0 0 0 0 0 0 0 0 0 0 0 0 0 127 0"/>
<feOffset dx="6" dy="6"/>
<feColorMatrix type="matrix" values="0 0 0 0 0 0 0 0 0 0 0 0 0 0 0 0 0 0 0.15 0"/>
<feBlend mode="normal" in2="BackgroundImageFix" result="effect1_dropShadow"/>
<feBlend mode="normal" in="SourceGraphic" in2="effect1_dropShadow" result="shape"/>
</filter>
</defs>
</svg>
