<svg width="586" height="152" viewBox="0 0 586 152" fill="none" xmlns="http://www.w3.org/2000/svg">
<rect x="1" y="1" width="584" height="150" rx="9" fill="#7187FB" stroke="#001EBB" stroke-width="2"/>
<g filter="url(#filter0_d)">
<rect x="20" y="20" width="72" height="50" rx="6" fill="#FFF000"/>
<rect x="21" y="21" width="70" height="48" rx="5" stroke="#001EBB" stroke-width="2"/>
</g>
<path d="M58.126 51.5H55.999V41.2256L52.8613 42.2979V40.4961L57.8535 38.6592H58.126V51.5Z" fill="#001EBB"/>
<g filter="url(#filter1_d)">
<rect x="104" y="20" width="210" height="50" rx="6" fill="#FFF000"/>
<rect x="105" y="21" width="208" height="48" rx="5" stroke="#001EBB" stroke-width="2"/>
</g>
<path d="M213.947 51.5H205.343V50.0322L209.605 45.3828C210.221 44.6973 210.657 44.126 210.915 43.6689C211.179 43.2061 211.311 42.7432 211.311 42.2803C211.311 41.6709 211.138 41.1787 210.792 40.8037C210.452 40.4287 209.992 40.2412 209.412 40.2412C208.721 40.2412 208.185 40.4521 207.804 40.874C207.423 41.2959 207.232 41.873 207.232 42.6055H205.097C205.097 41.8262 205.272 41.126 205.624 40.5049C205.981 39.8779 206.488 39.3916 207.145 39.0459C207.807 38.7002 208.568 38.5273 209.43 38.5273C210.672 38.5273 211.65 38.8408 212.365 39.4678C213.086 40.0889 213.446 40.9502 213.446 42.0518C213.446 42.6904 213.265 43.3613 212.901 44.0645C212.544 44.7617 211.955 45.5557 211.135 46.4463L208.006 49.7949H213.947V51.5Z" fill="#001EBB"/>
<g filter="url(#filter2_d)">
<rect x="326" y="20" width="72" height="50" rx="6" fill="#FFF000"/>
<rect x="327" y="21" width="70" height="48" rx="5" stroke="#001EBB" stroke-width="2"/>
</g>
<path d="M360.812 44.126H362.113C362.77 44.1201 363.288 43.9502 363.669 43.6162C364.056 43.2822 364.249 42.7988 364.249 42.166C364.249 41.5566 364.088 41.085 363.766 40.751C363.449 40.4111 362.963 40.2412 362.307 40.2412C361.732 40.2412 361.261 40.4082 360.892 40.7422C360.522 41.0703 360.338 41.501 360.338 42.0342H358.202C358.202 41.3779 358.375 40.7803 358.721 40.2412C359.072 39.7021 359.559 39.2832 360.18 38.9844C360.807 38.6797 361.507 38.5273 362.28 38.5273C363.558 38.5273 364.56 38.8496 365.286 39.4941C366.019 40.1328 366.385 41.0234 366.385 42.166C366.385 42.7402 366.2 43.2822 365.831 43.792C365.468 44.2959 364.996 44.6768 364.416 44.9346C365.119 45.1748 365.652 45.5527 366.016 46.0684C366.385 46.584 366.569 47.1992 366.569 47.9141C366.569 49.0625 366.174 49.9766 365.383 50.6562C364.598 51.3359 363.563 51.6758 362.28 51.6758C361.05 51.6758 360.042 51.3477 359.257 50.6914C358.472 50.0352 358.079 49.1621 358.079 48.0723H360.215C360.215 48.6348 360.402 49.0918 360.777 49.4434C361.158 49.7949 361.668 49.9707 362.307 49.9707C362.969 49.9707 363.49 49.7949 363.871 49.4434C364.252 49.0918 364.442 48.582 364.442 47.9141C364.442 47.2402 364.243 46.7217 363.845 46.3584C363.446 45.9951 362.854 45.8135 362.069 45.8135H360.812V44.126Z" fill="#001EBB"/>
<g filter="url(#filter3_d)">
<rect x="410" y="20" width="72" height="50" rx="6" fill="#FFF000"/>
<rect x="411" y="21" width="70" height="48" rx="5" stroke="#001EBB" stroke-width="2"/>
</g>
<path d="M449.567 46.9385H451.158V48.6523H449.567V51.5H447.432V48.6523H441.903L441.842 47.3516L447.361 38.7031H449.567V46.9385ZM444.083 46.9385H447.432V41.5947L447.273 41.876L444.083 46.9385Z" fill="#001EBB"/>
<g filter="url(#filter4_d)">
<rect x="494" y="20" width="72" height="50" rx="6" fill="#FFF000"/>
<rect x="495" y="21" width="70" height="48" rx="5" stroke="#001EBB" stroke-width="2"/>
</g>
<path d="M526.914 45.1543L527.608 38.7031H534.481V40.5488H529.384L529.032 43.6074C529.624 43.2676 530.292 43.0977 531.036 43.0977C532.255 43.0977 533.201 43.4873 533.875 44.2666C534.555 45.0459 534.895 46.0947 534.895 47.4131C534.895 48.7139 534.52 49.751 533.77 50.5244C533.02 51.292 531.991 51.6758 530.685 51.6758C529.513 51.6758 528.54 51.3447 527.767 50.6826C526.999 50.0146 526.583 49.1357 526.519 48.0459H528.584C528.666 48.667 528.889 49.1445 529.252 49.4785C529.615 49.8066 530.09 49.9707 530.676 49.9707C531.332 49.9707 531.842 49.7363 532.205 49.2676C532.574 48.7988 532.759 48.1602 532.759 47.3516C532.759 46.5723 532.557 45.957 532.152 45.5059C531.748 45.0488 531.191 44.8203 530.482 44.8203C530.096 44.8203 529.768 44.873 529.498 44.9785C529.229 45.0781 528.936 45.2773 528.619 45.5762L526.914 45.1543Z" fill="#001EBB"/>
<path d="M31.5942 94.3906C31.1743 94.3418 30.7837 94.3174 30.4224 94.3174C29.4653 94.3174 28.9868 94.7251 28.9868 95.5405V96.0752H30.5615V97.6279H28.9868V104H26.8628V97.6279H25.6836V96.0752H26.8628V95.46C26.8726 94.542 27.1606 93.8364 27.7271 93.3433C28.2935 92.8452 29.0942 92.5962 30.1294 92.5962C30.8667 92.5962 32.063 92.6743 33.7183 92.8306V104H31.5942V94.3906ZM39.1309 104.146C37.9688 104.146 37.0215 103.79 36.2891 103.077C35.5615 102.364 35.1978 101.415 35.1978 100.228V100.023C35.1978 99.2271 35.3516 98.5166 35.6592 97.8916C35.9668 97.2617 36.4014 96.7783 36.9629 96.4414C37.5293 96.0996 38.1738 95.9287 38.8965 95.9287C39.9805 95.9287 40.8325 96.2705 41.4526 96.9541C42.0776 97.6377 42.3901 98.6069 42.3901 99.8618V100.726H37.3438C37.4121 101.244 37.6172 101.659 37.959 101.971C38.3057 102.284 38.7427 102.44 39.27 102.44C40.0854 102.44 40.7227 102.145 41.1816 101.554L42.2217 102.718C41.9043 103.167 41.4746 103.519 40.9326 103.773C40.3906 104.022 39.79 104.146 39.1309 104.146ZM38.8892 97.6426C38.4692 97.6426 38.1274 97.7842 37.8638 98.0674C37.605 98.3506 37.439 98.7559 37.3657 99.2832H40.3101V99.1147C40.3003 98.646 40.1733 98.2847 39.9292 98.0308C39.6851 97.772 39.3384 97.6426 38.8892 97.6426ZM46.6162 98.4409L47.9492 96.0752H50.2124L47.9565 99.957L50.3076 104H48.0371L46.6235 101.51L45.2173 104H42.9395L45.2905 99.957L43.042 96.0752H45.3125L46.6162 98.4409ZM55.3467 100.287H51.2231V98.5801H55.3467V100.287ZM56.7383 99.979C56.7383 98.7632 57.0264 97.7842 57.6025 97.042C58.1836 96.2998 58.9648 95.9287 59.9463 95.9287C60.8154 95.9287 61.4917 96.2266 61.9751 96.8223L62.063 96.0752H63.9819V103.736C63.9819 104.43 63.8232 105.033 63.5059 105.545C63.1934 106.058 62.7515 106.449 62.1802 106.717C61.6089 106.986 60.9399 107.12 60.1733 107.12C59.5923 107.12 59.0259 107.003 58.4741 106.769C57.9224 106.539 57.5049 106.241 57.2217 105.875L58.1592 104.586C58.6865 105.177 59.3262 105.472 60.0781 105.472C60.6396 105.472 61.0767 105.321 61.3892 105.018C61.7017 104.72 61.8579 104.295 61.8579 103.744V103.319C61.3696 103.871 60.7275 104.146 59.9316 104.146C58.9795 104.146 58.208 103.775 57.6172 103.033C57.0312 102.286 56.7383 101.297 56.7383 100.067V99.979ZM58.855 100.133C58.855 100.851 58.999 101.415 59.2871 101.825C59.5752 102.23 59.9707 102.433 60.4736 102.433C61.1182 102.433 61.5796 102.191 61.8579 101.708V98.375C61.5747 97.8916 61.1182 97.6499 60.4883 97.6499C59.9805 97.6499 59.5801 97.8574 59.2871 98.2725C58.999 98.6875 58.855 99.3076 58.855 100.133ZM70.0684 98.0601C69.7803 98.021 69.5264 98.0015 69.3066 98.0015C68.5059 98.0015 67.981 98.2725 67.7319 98.8145V104H65.6152V96.0752H67.6147L67.6733 97.02C68.0981 96.2925 68.6865 95.9287 69.4385 95.9287C69.6729 95.9287 69.8926 95.9604 70.0977 96.0239L70.0684 98.0601ZM70.5005 99.9644C70.5005 99.1782 70.6519 98.4775 70.9546 97.8623C71.2573 97.2471 71.6919 96.771 72.2583 96.4341C72.8296 96.0972 73.4912 95.9287 74.2432 95.9287C75.3125 95.9287 76.1841 96.2559 76.8579 96.9102C77.5366 97.5645 77.915 98.4531 77.9932 99.5762L78.0078 100.118C78.0078 101.334 77.6685 102.311 76.9897 103.048C76.311 103.78 75.4004 104.146 74.2578 104.146C73.1152 104.146 72.2021 103.78 71.5186 103.048C70.8398 102.315 70.5005 101.319 70.5005 100.06V99.9644ZM72.6172 100.118C72.6172 100.87 72.7588 101.446 73.042 101.847C73.3252 102.242 73.7305 102.44 74.2578 102.44C74.7705 102.44 75.1709 102.245 75.459 101.854C75.7471 101.458 75.8911 100.829 75.8911 99.9644C75.8911 99.2271 75.7471 98.6558 75.459 98.2505C75.1709 97.8452 74.7656 97.6426 74.2432 97.6426C73.7256 97.6426 73.3252 97.8452 73.042 98.2505C72.7588 98.6509 72.6172 99.2734 72.6172 100.118ZM86.2036 101.122L87.2437 96.0752H89.2871L87.2656 104H85.4932L83.9917 99.0122L82.4902 104H80.7251L78.7036 96.0752H80.7471L81.7798 101.114L83.23 96.0752H84.7607L86.2036 101.122Z" fill="white"/>
<path d="M59.5801 128H56.7578V117.121L53.3887 118.166V115.871L59.2773 113.762H59.5801V128Z" fill="#FFF000"/>
<path d="M184.594 94.3906C184.174 94.3418 183.784 94.3174 183.422 94.3174C182.465 94.3174 181.987 94.7251 181.987 95.5405V96.0752H183.562V97.6279H181.987V104H179.863V97.6279H178.684V96.0752H179.863V95.46C179.873 94.542 180.161 93.8364 180.727 93.3433C181.293 92.8452 182.094 92.5962 183.129 92.5962C183.867 92.5962 185.063 92.6743 186.718 92.8306V104H184.594V94.3906ZM192.131 104.146C190.969 104.146 190.021 103.79 189.289 103.077C188.562 102.364 188.198 101.415 188.198 100.228V100.023C188.198 99.2271 188.352 98.5166 188.659 97.8916C188.967 97.2617 189.401 96.7783 189.963 96.4414C190.529 96.0996 191.174 95.9287 191.896 95.9287C192.98 95.9287 193.833 96.2705 194.453 96.9541C195.078 97.6377 195.39 98.6069 195.39 99.8618V100.726H190.344C190.412 101.244 190.617 101.659 190.959 101.971C191.306 102.284 191.743 102.44 192.27 102.44C193.085 102.44 193.723 102.145 194.182 101.554L195.222 102.718C194.904 103.167 194.475 103.519 193.933 103.773C193.391 104.022 192.79 104.146 192.131 104.146ZM191.889 97.6426C191.469 97.6426 191.127 97.7842 190.864 98.0674C190.605 98.3506 190.439 98.7559 190.366 99.2832H193.31V99.1147C193.3 98.646 193.173 98.2847 192.929 98.0308C192.685 97.772 192.338 97.6426 191.889 97.6426ZM199.616 98.4409L200.949 96.0752H203.212L200.957 99.957L203.308 104H201.037L199.624 101.51L198.217 104H195.939L198.291 99.957L196.042 96.0752H198.312L199.616 98.4409ZM208.347 100.287H204.223V98.5801H208.347V100.287ZM209.738 99.979C209.738 98.7632 210.026 97.7842 210.603 97.042C211.184 96.2998 211.965 95.9287 212.946 95.9287C213.815 95.9287 214.492 96.2266 214.975 96.8223L215.063 96.0752H216.982V103.736C216.982 104.43 216.823 105.033 216.506 105.545C216.193 106.058 215.751 106.449 215.18 106.717C214.609 106.986 213.94 107.12 213.173 107.12C212.592 107.12 212.026 107.003 211.474 106.769C210.922 106.539 210.505 106.241 210.222 105.875L211.159 104.586C211.687 105.177 212.326 105.472 213.078 105.472C213.64 105.472 214.077 105.321 214.389 105.018C214.702 104.72 214.858 104.295 214.858 103.744V103.319C214.37 103.871 213.728 104.146 212.932 104.146C211.979 104.146 211.208 103.775 210.617 103.033C210.031 102.286 209.738 101.297 209.738 100.067V99.979ZM211.855 100.133C211.855 100.851 211.999 101.415 212.287 101.825C212.575 102.23 212.971 102.433 213.474 102.433C214.118 102.433 214.58 102.191 214.858 101.708V98.375C214.575 97.8916 214.118 97.6499 213.488 97.6499C212.98 97.6499 212.58 97.8574 212.287 98.2725C211.999 98.6875 211.855 99.3076 211.855 100.133ZM223.068 98.0601C222.78 98.021 222.526 98.0015 222.307 98.0015C221.506 98.0015 220.981 98.2725 220.732 98.8145V104H218.615V96.0752H220.615L220.673 97.02C221.098 96.2925 221.687 95.9287 222.438 95.9287C222.673 95.9287 222.893 95.9604 223.098 96.0239L223.068 98.0601ZM223.5 99.9644C223.5 99.1782 223.652 98.4775 223.955 97.8623C224.257 97.2471 224.692 96.771 225.258 96.4341C225.83 96.0972 226.491 95.9287 227.243 95.9287C228.312 95.9287 229.184 96.2559 229.858 96.9102C230.537 97.5645 230.915 98.4531 230.993 99.5762L231.008 100.118C231.008 101.334 230.668 102.311 229.99 103.048C229.311 103.78 228.4 104.146 227.258 104.146C226.115 104.146 225.202 103.78 224.519 103.048C223.84 102.315 223.5 101.319 223.5 100.06V99.9644ZM225.617 100.118C225.617 100.87 225.759 101.446 226.042 101.847C226.325 102.242 226.73 102.44 227.258 102.44C227.771 102.44 228.171 102.245 228.459 101.854C228.747 101.458 228.891 100.829 228.891 99.9644C228.891 99.2271 228.747 98.6558 228.459 98.2505C228.171 97.8452 227.766 97.6426 227.243 97.6426C226.726 97.6426 226.325 97.8452 226.042 98.2505C225.759 98.6509 225.617 99.2734 225.617 100.118ZM239.204 101.122L240.244 96.0752H242.287L240.266 104H238.493L236.992 99.0122L235.49 104H233.725L231.704 96.0752H233.747L234.78 101.114L236.23 96.0752H237.761L239.204 101.122Z" fill="white"/>
<path d="M208.596 119.641H210.1C210.816 119.641 211.346 119.462 211.691 119.104C212.036 118.745 212.209 118.27 212.209 117.678C212.209 117.105 212.036 116.659 211.691 116.34C211.353 116.021 210.884 115.861 210.285 115.861C209.745 115.861 209.292 116.011 208.928 116.311C208.563 116.604 208.381 116.988 208.381 117.463H205.559C205.559 116.721 205.757 116.057 206.154 115.471C206.558 114.878 207.118 114.416 207.834 114.084C208.557 113.752 209.351 113.586 210.217 113.586C211.721 113.586 212.899 113.947 213.752 114.67C214.605 115.386 215.031 116.376 215.031 117.639C215.031 118.29 214.833 118.889 214.436 119.436C214.038 119.982 213.518 120.402 212.873 120.695C213.674 120.982 214.27 121.411 214.66 121.984C215.057 122.557 215.256 123.234 215.256 124.016C215.256 125.279 214.794 126.291 213.869 127.053C212.951 127.814 211.734 128.195 210.217 128.195C208.798 128.195 207.635 127.821 206.73 127.072C205.832 126.324 205.383 125.334 205.383 124.104H208.205C208.205 124.637 208.404 125.074 208.801 125.412C209.204 125.751 209.699 125.92 210.285 125.92C210.956 125.92 211.48 125.744 211.857 125.393C212.242 125.035 212.434 124.562 212.434 123.977C212.434 122.557 211.652 121.848 210.09 121.848H208.596V119.641Z" fill="#FFF000"/>
<path d="M337.594 94.3906C337.174 94.3418 336.784 94.3174 336.422 94.3174C335.465 94.3174 334.987 94.7251 334.987 95.5405V96.0752H336.562V97.6279H334.987V104H332.863V97.6279H331.684V96.0752H332.863V95.46C332.873 94.542 333.161 93.8364 333.727 93.3433C334.293 92.8452 335.094 92.5962 336.129 92.5962C336.867 92.5962 338.063 92.6743 339.718 92.8306V104H337.594V94.3906ZM345.131 104.146C343.969 104.146 343.021 103.79 342.289 103.077C341.562 102.364 341.198 101.415 341.198 100.228V100.023C341.198 99.2271 341.352 98.5166 341.659 97.8916C341.967 97.2617 342.401 96.7783 342.963 96.4414C343.529 96.0996 344.174 95.9287 344.896 95.9287C345.98 95.9287 346.833 96.2705 347.453 96.9541C348.078 97.6377 348.39 98.6069 348.39 99.8618V100.726H343.344C343.412 101.244 343.617 101.659 343.959 101.971C344.306 102.284 344.743 102.44 345.27 102.44C346.085 102.44 346.723 102.145 347.182 101.554L348.222 102.718C347.904 103.167 347.475 103.519 346.933 103.773C346.391 104.022 345.79 104.146 345.131 104.146ZM344.889 97.6426C344.469 97.6426 344.127 97.7842 343.864 98.0674C343.605 98.3506 343.439 98.7559 343.366 99.2832H346.31V99.1147C346.3 98.646 346.173 98.2847 345.929 98.0308C345.685 97.772 345.338 97.6426 344.889 97.6426ZM352.616 98.4409L353.949 96.0752H356.212L353.957 99.957L356.308 104H354.037L352.624 101.51L351.217 104H348.939L351.291 99.957L349.042 96.0752H351.312L352.616 98.4409ZM361.347 100.287H357.223V98.5801H361.347V100.287ZM362.738 99.979C362.738 98.7632 363.026 97.7842 363.603 97.042C364.184 96.2998 364.965 95.9287 365.946 95.9287C366.815 95.9287 367.492 96.2266 367.975 96.8223L368.063 96.0752H369.982V103.736C369.982 104.43 369.823 105.033 369.506 105.545C369.193 106.058 368.751 106.449 368.18 106.717C367.609 106.986 366.94 107.12 366.173 107.12C365.592 107.12 365.026 107.003 364.474 106.769C363.922 106.539 363.505 106.241 363.222 105.875L364.159 104.586C364.687 105.177 365.326 105.472 366.078 105.472C366.64 105.472 367.077 105.321 367.389 105.018C367.702 104.72 367.858 104.295 367.858 103.744V103.319C367.37 103.871 366.728 104.146 365.932 104.146C364.979 104.146 364.208 103.775 363.617 103.033C363.031 102.286 362.738 101.297 362.738 100.067V99.979ZM364.855 100.133C364.855 100.851 364.999 101.415 365.287 101.825C365.575 102.23 365.971 102.433 366.474 102.433C367.118 102.433 367.58 102.191 367.858 101.708V98.375C367.575 97.8916 367.118 97.6499 366.488 97.6499C365.98 97.6499 365.58 97.8574 365.287 98.2725C364.999 98.6875 364.855 99.3076 364.855 100.133ZM376.068 98.0601C375.78 98.021 375.526 98.0015 375.307 98.0015C374.506 98.0015 373.981 98.2725 373.732 98.8145V104H371.615V96.0752H373.615L373.673 97.02C374.098 96.2925 374.687 95.9287 375.438 95.9287C375.673 95.9287 375.893 95.9604 376.098 96.0239L376.068 98.0601ZM376.5 99.9644C376.5 99.1782 376.652 98.4775 376.955 97.8623C377.257 97.2471 377.692 96.771 378.258 96.4341C378.83 96.0972 379.491 95.9287 380.243 95.9287C381.312 95.9287 382.184 96.2559 382.858 96.9102C383.537 97.5645 383.915 98.4531 383.993 99.5762L384.008 100.118C384.008 101.334 383.668 102.311 382.99 103.048C382.311 103.78 381.4 104.146 380.258 104.146C379.115 104.146 378.202 103.78 377.519 103.048C376.84 102.315 376.5 101.319 376.5 100.06V99.9644ZM378.617 100.118C378.617 100.87 378.759 101.446 379.042 101.847C379.325 102.242 379.73 102.44 380.258 102.44C380.771 102.44 381.171 102.245 381.459 101.854C381.747 101.458 381.891 100.829 381.891 99.9644C381.891 99.2271 381.747 98.6558 381.459 98.2505C381.171 97.8452 380.766 97.6426 380.243 97.6426C379.726 97.6426 379.325 97.8452 379.042 98.2505C378.759 98.6509 378.617 99.2734 378.617 100.118ZM392.204 101.122L393.244 96.0752H395.287L393.266 104H391.493L389.992 99.0122L388.49 104H386.725L384.704 96.0752H386.747L387.78 101.114L389.23 96.0752H390.761L392.204 101.122Z" fill="white"/>
<path d="M365.58 128H362.758V117.121L359.389 118.166V115.871L365.277 113.762H365.58V128Z" fill="#FFF000"/>
<path d="M421.594 94.3906C421.174 94.3418 420.784 94.3174 420.422 94.3174C419.465 94.3174 418.987 94.7251 418.987 95.5405V96.0752H420.562V97.6279H418.987V104H416.863V97.6279H415.684V96.0752H416.863V95.46C416.873 94.542 417.161 93.8364 417.727 93.3433C418.293 92.8452 419.094 92.5962 420.129 92.5962C420.867 92.5962 422.063 92.6743 423.718 92.8306V104H421.594V94.3906ZM429.131 104.146C427.969 104.146 427.021 103.79 426.289 103.077C425.562 102.364 425.198 101.415 425.198 100.228V100.023C425.198 99.2271 425.352 98.5166 425.659 97.8916C425.967 97.2617 426.401 96.7783 426.963 96.4414C427.529 96.0996 428.174 95.9287 428.896 95.9287C429.98 95.9287 430.833 96.2705 431.453 96.9541C432.078 97.6377 432.39 98.6069 432.39 99.8618V100.726H427.344C427.412 101.244 427.617 101.659 427.959 101.971C428.306 102.284 428.743 102.44 429.27 102.44C430.085 102.44 430.723 102.145 431.182 101.554L432.222 102.718C431.904 103.167 431.475 103.519 430.933 103.773C430.391 104.022 429.79 104.146 429.131 104.146ZM428.889 97.6426C428.469 97.6426 428.127 97.7842 427.864 98.0674C427.605 98.3506 427.439 98.7559 427.366 99.2832H430.31V99.1147C430.3 98.646 430.173 98.2847 429.929 98.0308C429.685 97.772 429.338 97.6426 428.889 97.6426ZM436.616 98.4409L437.949 96.0752H440.212L437.957 99.957L440.308 104H438.037L436.624 101.51L435.217 104H432.939L435.291 99.957L433.042 96.0752H435.312L436.616 98.4409ZM445.347 100.287H441.223V98.5801H445.347V100.287ZM446.738 99.979C446.738 98.7632 447.026 97.7842 447.603 97.042C448.184 96.2998 448.965 95.9287 449.946 95.9287C450.815 95.9287 451.492 96.2266 451.975 96.8223L452.063 96.0752H453.982V103.736C453.982 104.43 453.823 105.033 453.506 105.545C453.193 106.058 452.751 106.449 452.18 106.717C451.609 106.986 450.94 107.12 450.173 107.12C449.592 107.12 449.026 107.003 448.474 106.769C447.922 106.539 447.505 106.241 447.222 105.875L448.159 104.586C448.687 105.177 449.326 105.472 450.078 105.472C450.64 105.472 451.077 105.321 451.389 105.018C451.702 104.72 451.858 104.295 451.858 103.744V103.319C451.37 103.871 450.728 104.146 449.932 104.146C448.979 104.146 448.208 103.775 447.617 103.033C447.031 102.286 446.738 101.297 446.738 100.067V99.979ZM448.855 100.133C448.855 100.851 448.999 101.415 449.287 101.825C449.575 102.23 449.971 102.433 450.474 102.433C451.118 102.433 451.58 102.191 451.858 101.708V98.375C451.575 97.8916 451.118 97.6499 450.488 97.6499C449.98 97.6499 449.58 97.8574 449.287 98.2725C448.999 98.6875 448.855 99.3076 448.855 100.133ZM460.068 98.0601C459.78 98.021 459.526 98.0015 459.307 98.0015C458.506 98.0015 457.981 98.2725 457.732 98.8145V104H455.615V96.0752H457.615L457.673 97.02C458.098 96.2925 458.687 95.9287 459.438 95.9287C459.673 95.9287 459.893 95.9604 460.098 96.0239L460.068 98.0601ZM460.5 99.9644C460.5 99.1782 460.652 98.4775 460.955 97.8623C461.257 97.2471 461.692 96.771 462.258 96.4341C462.83 96.0972 463.491 95.9287 464.243 95.9287C465.312 95.9287 466.184 96.2559 466.858 96.9102C467.537 97.5645 467.915 98.4531 467.993 99.5762L468.008 100.118C468.008 101.334 467.668 102.311 466.99 103.048C466.311 103.78 465.4 104.146 464.258 104.146C463.115 104.146 462.202 103.78 461.519 103.048C460.84 102.315 460.5 101.319 460.5 100.06V99.9644ZM462.617 100.118C462.617 100.87 462.759 101.446 463.042 101.847C463.325 102.242 463.73 102.44 464.258 102.44C464.771 102.44 465.171 102.245 465.459 101.854C465.747 101.458 465.891 100.829 465.891 99.9644C465.891 99.2271 465.747 98.6558 465.459 98.2505C465.171 97.8452 464.766 97.6426 464.243 97.6426C463.726 97.6426 463.325 97.8452 463.042 98.2505C462.759 98.6509 462.617 99.2734 462.617 100.118ZM476.204 101.122L477.244 96.0752H479.287L477.266 104H475.493L473.992 99.0122L472.49 104H470.725L468.704 96.0752H470.747L471.78 101.114L473.23 96.0752H474.761L476.204 101.122Z" fill="white"/>
<path d="M449.58 128H446.758V117.121L443.389 118.166V115.871L449.277 113.762H449.58V128Z" fill="#FFF000"/>
<path d="M505.594 94.3906C505.174 94.3418 504.784 94.3174 504.422 94.3174C503.465 94.3174 502.987 94.7251 502.987 95.5405V96.0752H504.562V97.6279H502.987V104H500.863V97.6279H499.684V96.0752H500.863V95.46C500.873 94.542 501.161 93.8364 501.727 93.3433C502.293 92.8452 503.094 92.5962 504.129 92.5962C504.867 92.5962 506.063 92.6743 507.718 92.8306V104H505.594V94.3906ZM513.131 104.146C511.969 104.146 511.021 103.79 510.289 103.077C509.562 102.364 509.198 101.415 509.198 100.228V100.023C509.198 99.2271 509.352 98.5166 509.659 97.8916C509.967 97.2617 510.401 96.7783 510.963 96.4414C511.529 96.0996 512.174 95.9287 512.896 95.9287C513.98 95.9287 514.833 96.2705 515.453 96.9541C516.078 97.6377 516.39 98.6069 516.39 99.8618V100.726H511.344C511.412 101.244 511.617 101.659 511.959 101.971C512.306 102.284 512.743 102.44 513.27 102.44C514.085 102.44 514.723 102.145 515.182 101.554L516.222 102.718C515.904 103.167 515.475 103.519 514.933 103.773C514.391 104.022 513.79 104.146 513.131 104.146ZM512.889 97.6426C512.469 97.6426 512.127 97.7842 511.864 98.0674C511.605 98.3506 511.439 98.7559 511.366 99.2832H514.31V99.1147C514.3 98.646 514.173 98.2847 513.929 98.0308C513.685 97.772 513.338 97.6426 512.889 97.6426ZM520.616 98.4409L521.949 96.0752H524.212L521.957 99.957L524.308 104H522.037L520.624 101.51L519.217 104H516.939L519.291 99.957L517.042 96.0752H519.312L520.616 98.4409ZM529.347 100.287H525.223V98.5801H529.347V100.287ZM530.738 99.979C530.738 98.7632 531.026 97.7842 531.603 97.042C532.184 96.2998 532.965 95.9287 533.946 95.9287C534.815 95.9287 535.492 96.2266 535.975 96.8223L536.063 96.0752H537.982V103.736C537.982 104.43 537.823 105.033 537.506 105.545C537.193 106.058 536.751 106.449 536.18 106.717C535.609 106.986 534.94 107.12 534.173 107.12C533.592 107.12 533.026 107.003 532.474 106.769C531.922 106.539 531.505 106.241 531.222 105.875L532.159 104.586C532.687 105.177 533.326 105.472 534.078 105.472C534.64 105.472 535.077 105.321 535.389 105.018C535.702 104.72 535.858 104.295 535.858 103.744V103.319C535.37 103.871 534.728 104.146 533.932 104.146C532.979 104.146 532.208 103.775 531.617 103.033C531.031 102.286 530.738 101.297 530.738 100.067V99.979ZM532.855 100.133C532.855 100.851 532.999 101.415 533.287 101.825C533.575 102.23 533.971 102.433 534.474 102.433C535.118 102.433 535.58 102.191 535.858 101.708V98.375C535.575 97.8916 535.118 97.6499 534.488 97.6499C533.98 97.6499 533.58 97.8574 533.287 98.2725C532.999 98.6875 532.855 99.3076 532.855 100.133ZM544.068 98.0601C543.78 98.021 543.526 98.0015 543.307 98.0015C542.506 98.0015 541.981 98.2725 541.732 98.8145V104H539.615V96.0752H541.615L541.673 97.02C542.098 96.2925 542.687 95.9287 543.438 95.9287C543.673 95.9287 543.893 95.9604 544.098 96.0239L544.068 98.0601ZM544.5 99.9644C544.5 99.1782 544.652 98.4775 544.955 97.8623C545.257 97.2471 545.692 96.771 546.258 96.4341C546.83 96.0972 547.491 95.9287 548.243 95.9287C549.312 95.9287 550.184 96.2559 550.858 96.9102C551.537 97.5645 551.915 98.4531 551.993 99.5762L552.008 100.118C552.008 101.334 551.668 102.311 550.99 103.048C550.311 103.78 549.4 104.146 548.258 104.146C547.115 104.146 546.202 103.78 545.519 103.048C544.84 102.315 544.5 101.319 544.5 100.06V99.9644ZM546.617 100.118C546.617 100.87 546.759 101.446 547.042 101.847C547.325 102.242 547.73 102.44 548.258 102.44C548.771 102.44 549.171 102.245 549.459 101.854C549.747 101.458 549.891 100.829 549.891 99.9644C549.891 99.2271 549.747 98.6558 549.459 98.2505C549.171 97.8452 548.766 97.6426 548.243 97.6426C547.726 97.6426 547.325 97.8452 547.042 98.2505C546.759 98.6509 546.617 99.2734 546.617 100.118ZM560.204 101.122L561.244 96.0752H563.287L561.266 104H559.493L557.992 99.0122L556.49 104H554.725L552.704 96.0752H554.747L555.78 101.114L557.23 96.0752H558.761L560.204 101.122Z" fill="white"/>
<path d="M533.58 128H530.758V117.121L527.389 118.166V115.871L533.277 113.762H533.58V128Z" fill="#FFF000"/>
<path d="M99 80V140" stroke="white" stroke-dasharray="4 2"/>
<path d="M320 80V140" stroke="white" stroke-dasharray="4 2"/>
<path d="M405 83V143" stroke="white" stroke-dasharray="4 2"/>
<path d="M489 80V140" stroke="white" stroke-dasharray="4 2"/>
<defs>
<filter id="filter0_d" x="20" y="20" width="78" height="56" filterUnits="userSpaceOnUse" color-interpolation-filters="sRGB">
<feFlood flood-opacity="0" result="BackgroundImageFix"/>
<feColorMatrix in="SourceAlpha" type="matrix" values="0 0 0 0 0 0 0 0 0 0 0 0 0 0 0 0 0 0 127 0"/>
<feOffset dx="6" dy="6"/>
<feColorMatrix type="matrix" values="0 0 0 0 0 0 0 0 0 0 0 0 0 0 0 0 0 0 0.15 0"/>
<feBlend mode="normal" in2="BackgroundImageFix" result="effect1_dropShadow"/>
<feBlend mode="normal" in="SourceGraphic" in2="effect1_dropShadow" result="shape"/>
</filter>
<filter id="filter1_d" x="104" y="20" width="216" height="56" filterUnits="userSpaceOnUse" color-interpolation-filters="sRGB">
<feFlood flood-opacity="0" result="BackgroundImageFix"/>
<feColorMatrix in="SourceAlpha" type="matrix" values="0 0 0 0 0 0 0 0 0 0 0 0 0 0 0 0 0 0 127 0"/>
<feOffset dx="6" dy="6"/>
<feColorMatrix type="matrix" values="0 0 0 0 0 0 0 0 0 0 0 0 0 0 0 0 0 0 0.15 0"/>
<feBlend mode="normal" in2="BackgroundImageFix" result="effect1_dropShadow"/>
<feBlend mode="normal" in="SourceGraphic" in2="effect1_dropShadow" result="shape"/>
</filter>
<filter id="filter2_d" x="326" y="20" width="78" height="56" filterUnits="userSpaceOnUse" color-interpolation-filters="sRGB">
<feFlood flood-opacity="0" result="BackgroundImageFix"/>
<feColorMatrix in="SourceAlpha" type="matrix" values="0 0 0 0 0 0 0 0 0 0 0 0 0 0 0 0 0 0 127 0"/>
<feOffset dx="6" dy="6"/>
<feColorMatrix type="matrix" values="0 0 0 0 0 0 0 0 0 0 0 0 0 0 0 0 0 0 0.15 0"/>
<feBlend mode="normal" in2="BackgroundImageFix" result="effect1_dropShadow"/>
<feBlend mode="normal" in="SourceGraphic" in2="effect1_dropShadow" result="shape"/>
</filter>
<filter id="filter3_d" x="410" y="20" width="78" height="56" filterUnits="userSpaceOnUse" color-interpolation-filters="sRGB">
<feFlood flood-opacity="0" result="BackgroundImageFix"/>
<feColorMatrix in="SourceAlpha" type="matrix" values="0 0 0 0 0 0 0 0 0 0 0 0 0 0 0 0 0 0 127 0"/>
<feOffset dx="6" dy="6"/>
<feColorMatrix type="matrix" values="0 0 0 0 0 0 0 0 0 0 0 0 0 0 0 0 0 0 0.15 0"/>
<feBlend mode="normal" in2="BackgroundImageFix" result="effect1_dropShadow"/>
<feBlend mode="normal" in="SourceGraphic" in2="effect1_dropShadow" result="shape"/>
</filter>
<filter id="filter4_d" x="494" y="20" width="78" height="56" filterUnits="userSpaceOnUse" color-interpolation-filters="sRGB">
<feFlood flood-opacity="0" result="BackgroundImageFix"/>
<feColorMatrix in="SourceAlpha" type="matrix" values="0 0 0 0 0 0 0 0 0 0 0 0 0 0 0 0 0 0 127 0"/>
<feOffset dx="6" dy="6"/>
<feColorMatrix type="matrix" values="0 0 0 0 0 0 0 0 0 0 0 0 0 0 0 0 0 0 0.15 0"/>
<feBlend mode="normal" in2="BackgroundImageFix" result="effect1_dropShadow"/>
<feBlend mode="normal" in="SourceGraphic" in2="effect1_dropShadow" result="shape"/>
</filter>
</defs>
</svg>
