<svg width="586" height="152" viewBox="0 0 586 152" fill="none" xmlns="http://www.w3.org/2000/svg">
<rect x="1" y="1" width="584" height="150" rx="9" fill="#7187FB" stroke="#001EBB" stroke-width="2"/>
<g filter="url(#filter0_d)">
<rect x="20" y="20" width="72" height="50" rx="6" fill="#FFF000"/>
<rect x="21" y="21" width="70" height="48" rx="5" stroke="#001EBB" stroke-width="2"/>
</g>
<path d="M58.126 51.5H55.999V41.2256L52.8613 42.2979V40.4961L57.8535 38.6592H58.126V51.5Z" fill="#001EBB"/>
<g filter="url(#filter1_d)">
<rect x="104" y="20" width="72" height="50" rx="6" fill="#FFF000"/>
<rect x="105" y="21" width="70" height="48" rx="5" stroke="#001EBB" stroke-width="2"/>
</g>
<path d="M144.947 51.5H136.343V50.0322L140.605 45.3828C141.221 44.6973 141.657 44.126 141.915 43.6689C142.179 43.2061 142.311 42.7432 142.311 42.2803C142.311 41.6709 142.138 41.1787 141.792 40.8037C141.452 40.4287 140.992 40.2412 140.412 40.2412C139.721 40.2412 139.185 40.4521 138.804 40.874C138.423 41.2959 138.232 41.873 138.232 42.6055H136.097C136.097 41.8262 136.272 41.126 136.624 40.5049C136.981 39.8779 137.488 39.3916 138.145 39.0459C138.807 38.7002 139.568 38.5273 140.43 38.5273C141.672 38.5273 142.65 38.8408 143.365 39.4678C144.086 40.0889 144.446 40.9502 144.446 42.0518C144.446 42.6904 144.265 43.3613 143.901 44.0645C143.544 44.7617 142.955 45.5557 142.135 46.4463L139.006 49.7949H144.947V51.5Z" fill="#001EBB"/>
<g filter="url(#filter2_d)">
<rect x="188" y="20" width="72" height="50" rx="6" fill="#FFF000"/>
<rect x="189" y="21" width="70" height="48" rx="5" stroke="#001EBB" stroke-width="2"/>
</g>
<path d="M222.812 44.126H224.113C224.77 44.1201 225.288 43.9502 225.669 43.6162C226.056 43.2822 226.249 42.7988 226.249 42.166C226.249 41.5566 226.088 41.085 225.766 40.751C225.449 40.4111 224.963 40.2412 224.307 40.2412C223.732 40.2412 223.261 40.4082 222.892 40.7422C222.522 41.0703 222.338 41.501 222.338 42.0342H220.202C220.202 41.3779 220.375 40.7803 220.721 40.2412C221.072 39.7021 221.559 39.2832 222.18 38.9844C222.807 38.6797 223.507 38.5273 224.28 38.5273C225.558 38.5273 226.56 38.8496 227.286 39.4941C228.019 40.1328 228.385 41.0234 228.385 42.166C228.385 42.7402 228.2 43.2822 227.831 43.792C227.468 44.2959 226.996 44.6768 226.416 44.9346C227.119 45.1748 227.652 45.5527 228.016 46.0684C228.385 46.584 228.569 47.1992 228.569 47.9141C228.569 49.0625 228.174 49.9766 227.383 50.6562C226.598 51.3359 225.563 51.6758 224.28 51.6758C223.05 51.6758 222.042 51.3477 221.257 50.6914C220.472 50.0352 220.079 49.1621 220.079 48.0723H222.215C222.215 48.6348 222.402 49.0918 222.777 49.4434C223.158 49.7949 223.668 49.9707 224.307 49.9707C224.969 49.9707 225.49 49.7949 225.871 49.4434C226.252 49.0918 226.442 48.582 226.442 47.9141C226.442 47.2402 226.243 46.7217 225.845 46.3584C225.446 45.9951 224.854 45.8135 224.069 45.8135H222.812V44.126Z" fill="#001EBB"/>
<g filter="url(#filter3_d)">
<rect x="272" y="20" width="210" height="50" rx="6" fill="#FFF000"/>
<rect x="273" y="21" width="208" height="48" rx="5" stroke="#001EBB" stroke-width="2"/>
</g>
<path d="M380.567 46.9385H382.158V48.6523H380.567V51.5H378.432V48.6523H372.903L372.842 47.3516L378.361 38.7031H380.567V46.9385ZM375.083 46.9385H378.432V41.5947L378.273 41.876L375.083 46.9385Z" fill="#001EBB"/>
<g filter="url(#filter4_d)">
<rect x="494" y="20" width="72" height="50" rx="6" fill="#FFF000"/>
<rect x="495" y="21" width="70" height="48" rx="5" stroke="#001EBB" stroke-width="2"/>
</g>
<path d="M526.914 45.1543L527.608 38.7031H534.481V40.5488H529.384L529.032 43.6074C529.624 43.2676 530.292 43.0977 531.036 43.0977C532.255 43.0977 533.201 43.4873 533.875 44.2666C534.555 45.0459 534.895 46.0947 534.895 47.4131C534.895 48.7139 534.52 49.751 533.77 50.5244C533.02 51.292 531.991 51.6758 530.685 51.6758C529.513 51.6758 528.54 51.3447 527.767 50.6826C526.999 50.0146 526.583 49.1357 526.519 48.0459H528.584C528.666 48.667 528.889 49.1445 529.252 49.4785C529.615 49.8066 530.09 49.9707 530.676 49.9707C531.332 49.9707 531.842 49.7363 532.205 49.2676C532.574 48.7988 532.759 48.1602 532.759 47.3516C532.759 46.5723 532.557 45.957 532.152 45.5059C531.748 45.0488 531.191 44.8203 530.482 44.8203C530.096 44.8203 529.768 44.873 529.498 44.9785C529.229 45.0781 528.936 45.2773 528.619 45.5762L526.914 45.1543Z" fill="#001EBB"/>
<path d="M30.2832 94.3906C29.8633 94.3418 29.4727 94.3174 29.1113 94.3174C28.1543 94.3174 27.6758 94.7251 27.6758 95.5405V96.0752H29.2505V97.6279H27.6758V104H25.5518V97.6279H24.3726V96.0752H25.5518V95.46C25.5615 94.542 25.8496 93.8364 26.416 93.3433C26.9824 92.8452 27.7832 92.5962 28.8184 92.5962C29.5557 92.5962 30.752 92.6743 32.4072 92.8306V104H30.2832V94.3906ZM37.8198 104.146C36.6577 104.146 35.7104 103.79 34.978 103.077C34.2505 102.364 33.8867 101.415 33.8867 100.228V100.023C33.8867 99.2271 34.0405 98.5166 34.3481 97.8916C34.6558 97.2617 35.0903 96.7783 35.6519 96.4414C36.2183 96.0996 36.8628 95.9287 37.5854 95.9287C38.6694 95.9287 39.5215 96.2705 40.1416 96.9541C40.7666 97.6377 41.0791 98.6069 41.0791 99.8618V100.726H36.0327C36.1011 101.244 36.3062 101.659 36.6479 101.971C36.9946 102.284 37.4316 102.44 37.959 102.44C38.7744 102.44 39.4116 102.145 39.8706 101.554L40.9106 102.718C40.5933 103.167 40.1636 103.519 39.6216 103.773C39.0796 104.022 38.479 104.146 37.8198 104.146ZM37.5781 97.6426C37.1582 97.6426 36.8164 97.7842 36.5527 98.0674C36.2939 98.3506 36.1279 98.7559 36.0547 99.2832H38.999V99.1147C38.9893 98.646 38.8623 98.2847 38.6182 98.0308C38.374 97.772 38.0273 97.6426 37.5781 97.6426ZM45.3052 98.4409L46.6382 96.0752H48.9014L46.6455 99.957L48.9966 104H46.7261L45.3125 101.51L43.9062 104H41.6284L43.9795 99.957L41.731 96.0752H44.0015L45.3052 98.4409ZM54.0356 100.287H49.9121V98.5801H54.0356V100.287ZM62.876 100.111C62.876 101.38 62.605 102.372 62.063 103.084C61.521 103.792 60.7642 104.146 59.7925 104.146C58.9331 104.146 58.2471 103.817 57.7344 103.158L57.6392 104H55.7349V92.75H57.8516V96.7856C58.3398 96.2144 58.9819 95.9287 59.7778 95.9287C60.7446 95.9287 61.5015 96.2852 62.0483 96.998C62.6001 97.7061 62.876 98.7046 62.876 99.9937V100.111ZM60.7593 99.957C60.7593 99.1562 60.6323 98.5728 60.3784 98.2065C60.1245 97.8354 59.7461 97.6499 59.2432 97.6499C58.5693 97.6499 58.1055 97.9258 57.8516 98.4775V101.605C58.1104 102.162 58.5791 102.44 59.2578 102.44C59.9414 102.44 60.3906 102.103 60.6055 101.429C60.708 101.107 60.7593 100.616 60.7593 99.957ZM68.7793 104C68.6816 103.81 68.6108 103.573 68.5669 103.29C68.0542 103.861 67.3877 104.146 66.5674 104.146C65.791 104.146 65.1465 103.922 64.6338 103.473C64.126 103.023 63.8721 102.457 63.8721 101.773C63.8721 100.934 64.1821 100.289 64.8022 99.8398C65.4272 99.3906 66.3281 99.1636 67.5049 99.1587H68.479V98.7046C68.479 98.3384 68.3838 98.0454 68.1934 97.8257C68.0078 97.606 67.7124 97.4961 67.3071 97.4961C66.9507 97.4961 66.6699 97.5815 66.4648 97.7524C66.2646 97.9233 66.1646 98.1577 66.1646 98.4556H64.0479C64.0479 97.9966 64.1895 97.5718 64.4727 97.1812C64.7559 96.7905 65.1562 96.4854 65.6738 96.2656C66.1914 96.041 66.7725 95.9287 67.417 95.9287C68.3936 95.9287 69.1675 96.1753 69.7388 96.6685C70.3149 97.1567 70.603 97.8452 70.603 98.7339V102.169C70.6079 102.921 70.7129 103.49 70.918 103.875V104H68.7793ZM67.0288 102.528C67.3413 102.528 67.6294 102.459 67.8931 102.323C68.1567 102.181 68.3521 101.993 68.479 101.759V100.396H67.688C66.6284 100.396 66.0645 100.763 65.9961 101.495L65.9888 101.62C65.9888 101.883 66.0815 102.101 66.2671 102.271C66.4526 102.442 66.7065 102.528 67.0288 102.528ZM76.521 101.81C76.521 101.551 76.3916 101.349 76.1328 101.202C75.8789 101.051 75.4688 100.917 74.9023 100.799C73.0176 100.404 72.0752 99.603 72.0752 98.397C72.0752 97.6938 72.3657 97.1079 72.9468 96.6392C73.5327 96.1655 74.2969 95.9287 75.2393 95.9287C76.2451 95.9287 77.0483 96.1655 77.6489 96.6392C78.2544 97.1128 78.5571 97.728 78.5571 98.4849H76.4404C76.4404 98.1821 76.3428 97.9331 76.1475 97.7378C75.9521 97.5376 75.647 97.4375 75.2319 97.4375C74.8755 97.4375 74.5996 97.5181 74.4043 97.6792C74.209 97.8403 74.1113 98.0454 74.1113 98.2944C74.1113 98.5288 74.2212 98.7192 74.4409 98.8657C74.6655 99.0073 75.0415 99.1318 75.5688 99.2393C76.0962 99.3418 76.5405 99.459 76.9019 99.5908C78.02 100.001 78.5791 100.711 78.5791 101.722C78.5791 102.445 78.269 103.031 77.6489 103.48C77.0288 103.924 76.228 104.146 75.2466 104.146C74.5825 104.146 73.9917 104.029 73.4741 103.795C72.9614 103.556 72.5586 103.231 72.2656 102.821C71.9727 102.406 71.8262 101.959 71.8262 101.48H73.833C73.8525 101.856 73.9917 102.145 74.2505 102.345C74.5093 102.545 74.856 102.645 75.2905 102.645C75.6958 102.645 76.001 102.569 76.2061 102.418C76.416 102.262 76.521 102.059 76.521 101.81ZM82.1826 104H80.0586V96.0752H82.1826V104ZM79.9341 94.0244C79.9341 93.707 80.0391 93.4458 80.249 93.2407C80.4639 93.0356 80.7544 92.9331 81.1206 92.9331C81.4819 92.9331 81.77 93.0356 81.9849 93.2407C82.1997 93.4458 82.3071 93.707 82.3071 94.0244C82.3071 94.3467 82.1973 94.6104 81.9775 94.8154C81.7627 95.0205 81.4771 95.123 81.1206 95.123C80.7642 95.123 80.4761 95.0205 80.2563 94.8154C80.0415 94.6104 79.9341 94.3467 79.9341 94.0244ZM88.2251 101.81C88.2251 101.551 88.0957 101.349 87.8369 101.202C87.583 101.051 87.1729 100.917 86.6064 100.799C84.7217 100.404 83.7793 99.603 83.7793 98.397C83.7793 97.6938 84.0698 97.1079 84.6509 96.6392C85.2368 96.1655 86.001 95.9287 86.9434 95.9287C87.9492 95.9287 88.7524 96.1655 89.353 96.6392C89.9585 97.1128 90.2612 97.728 90.2612 98.4849H88.1445C88.1445 98.1821 88.0469 97.9331 87.8516 97.7378C87.6562 97.5376 87.3511 97.4375 86.936 97.4375C86.5796 97.4375 86.3037 97.5181 86.1084 97.6792C85.9131 97.8403 85.8154 98.0454 85.8154 98.2944C85.8154 98.5288 85.9253 98.7192 86.145 98.8657C86.3696 99.0073 86.7456 99.1318 87.2729 99.2393C87.8003 99.3418 88.2446 99.459 88.606 99.5908C89.7241 100.001 90.2832 100.711 90.2832 101.722C90.2832 102.445 89.9731 103.031 89.353 103.48C88.7329 103.924 87.9321 104.146 86.9507 104.146C86.2866 104.146 85.6958 104.029 85.1782 103.795C84.6655 103.556 84.2627 103.231 83.9697 102.821C83.6768 102.406 83.5303 101.959 83.5303 101.48H85.5371C85.5566 101.856 85.6958 102.145 85.9546 102.345C86.2134 102.545 86.5601 102.645 86.9946 102.645C87.3999 102.645 87.7051 102.569 87.9102 102.418C88.1201 102.262 88.2251 102.059 88.2251 101.81Z" fill="white"/>
<path d="M44.8633 128C44.7331 127.746 44.6387 127.43 44.5801 127.053C43.8965 127.814 43.0078 128.195 41.9141 128.195C40.8789 128.195 40.0195 127.896 39.3359 127.297C38.6589 126.698 38.3203 125.943 38.3203 125.031C38.3203 123.911 38.7337 123.052 39.5605 122.453C40.3939 121.854 41.5951 121.551 43.1641 121.545H44.4629V120.939C44.4629 120.451 44.3359 120.061 44.082 119.768C43.8346 119.475 43.4408 119.328 42.9004 119.328C42.4251 119.328 42.0508 119.442 41.7773 119.67C41.5104 119.898 41.377 120.21 41.377 120.607H38.5547C38.5547 119.995 38.7435 119.429 39.1211 118.908C39.4987 118.387 40.0326 117.98 40.7227 117.688C41.4128 117.388 42.1875 117.238 43.0469 117.238C44.349 117.238 45.3809 117.567 46.1426 118.225C46.9108 118.876 47.2949 119.794 47.2949 120.979V125.559C47.3014 126.561 47.4414 127.32 47.7148 127.834V128H44.8633ZM42.5293 126.037C42.946 126.037 43.3301 125.946 43.6816 125.764C44.0332 125.575 44.2936 125.324 44.4629 125.012V123.195H43.4082C41.9954 123.195 41.2435 123.684 41.1523 124.66L41.1426 124.826C41.1426 125.178 41.2663 125.467 41.5137 125.695C41.7611 125.923 42.0996 126.037 42.5293 126.037ZM55.791 126.926C55.0944 127.772 54.1309 128.195 52.9004 128.195C51.7676 128.195 50.9017 127.87 50.3027 127.219C49.7103 126.568 49.4076 125.614 49.3945 124.357V117.434H52.2168V124.26C52.2168 125.36 52.7181 125.91 53.7207 125.91C54.6777 125.91 55.3353 125.578 55.6934 124.914V117.434H58.5254V128H55.8691L55.791 126.926ZM64.0332 114.836V117.434H65.8398V119.504H64.0332V124.777C64.0332 125.168 64.1081 125.448 64.2578 125.617C64.4076 125.786 64.694 125.871 65.1172 125.871C65.4297 125.871 65.7064 125.848 65.9473 125.803V127.941C65.3939 128.111 64.8242 128.195 64.2383 128.195C62.2591 128.195 61.25 127.196 61.2109 125.197V119.504H59.668V117.434H61.2109V114.836H64.0332ZM66.6797 122.619C66.6797 121.571 66.8815 120.637 67.2852 119.816C67.6888 118.996 68.2682 118.361 69.0234 117.912C69.7852 117.463 70.6673 117.238 71.6699 117.238C73.0957 117.238 74.2578 117.674 75.1562 118.547C76.0612 119.419 76.5658 120.604 76.6699 122.102L76.6895 122.824C76.6895 124.445 76.237 125.747 75.332 126.73C74.4271 127.707 73.2129 128.195 71.6895 128.195C70.166 128.195 68.9486 127.707 68.0371 126.73C67.1322 125.754 66.6797 124.426 66.6797 122.746V122.619ZM69.502 122.824C69.502 123.827 69.6908 124.595 70.0684 125.129C70.446 125.656 70.9863 125.92 71.6895 125.92C72.373 125.92 72.9069 125.66 73.291 125.139C73.6751 124.611 73.8672 123.771 73.8672 122.619C73.8672 121.636 73.6751 120.874 73.291 120.334C72.9069 119.794 72.3665 119.523 71.6699 119.523C70.9798 119.523 70.446 119.794 70.0684 120.334C69.6908 120.868 69.502 121.698 69.502 122.824Z" fill="#FFF000"/>
<path d="M113.283 94.3906C112.863 94.3418 112.473 94.3174 112.111 94.3174C111.154 94.3174 110.676 94.7251 110.676 95.5405V96.0752H112.25V97.6279H110.676V104H108.552V97.6279H107.373V96.0752H108.552V95.46C108.562 94.542 108.85 93.8364 109.416 93.3433C109.982 92.8452 110.783 92.5962 111.818 92.5962C112.556 92.5962 113.752 92.6743 115.407 92.8306V104H113.283V94.3906ZM120.82 104.146C119.658 104.146 118.71 103.79 117.978 103.077C117.25 102.364 116.887 101.415 116.887 100.228V100.023C116.887 99.2271 117.041 98.5166 117.348 97.8916C117.656 97.2617 118.09 96.7783 118.652 96.4414C119.218 96.0996 119.863 95.9287 120.585 95.9287C121.669 95.9287 122.521 96.2705 123.142 96.9541C123.767 97.6377 124.079 98.6069 124.079 99.8618V100.726H119.033C119.101 101.244 119.306 101.659 119.648 101.971C119.995 102.284 120.432 102.44 120.959 102.44C121.774 102.44 122.412 102.145 122.871 101.554L123.911 102.718C123.593 103.167 123.164 103.519 122.622 103.773C122.08 104.022 121.479 104.146 120.82 104.146ZM120.578 97.6426C120.158 97.6426 119.816 97.7842 119.553 98.0674C119.294 98.3506 119.128 98.7559 119.055 99.2832H121.999V99.1147C121.989 98.646 121.862 98.2847 121.618 98.0308C121.374 97.772 121.027 97.6426 120.578 97.6426ZM128.305 98.4409L129.638 96.0752H131.901L129.646 99.957L131.997 104H129.726L128.312 101.51L126.906 104H124.628L126.979 99.957L124.731 96.0752H127.001L128.305 98.4409ZM137.036 100.287H132.912V98.5801H137.036V100.287ZM145.876 100.111C145.876 101.38 145.605 102.372 145.063 103.084C144.521 103.792 143.764 104.146 142.792 104.146C141.933 104.146 141.247 103.817 140.734 103.158L140.639 104H138.735V92.75H140.852V96.7856C141.34 96.2144 141.982 95.9287 142.778 95.9287C143.745 95.9287 144.501 96.2852 145.048 96.998C145.6 97.7061 145.876 98.7046 145.876 99.9937V100.111ZM143.759 99.957C143.759 99.1562 143.632 98.5728 143.378 98.2065C143.125 97.8354 142.746 97.6499 142.243 97.6499C141.569 97.6499 141.105 97.9258 140.852 98.4775V101.605C141.11 102.162 141.579 102.44 142.258 102.44C142.941 102.44 143.391 102.103 143.605 101.429C143.708 101.107 143.759 100.616 143.759 99.957ZM151.779 104C151.682 103.81 151.611 103.573 151.567 103.29C151.054 103.861 150.388 104.146 149.567 104.146C148.791 104.146 148.146 103.922 147.634 103.473C147.126 103.023 146.872 102.457 146.872 101.773C146.872 100.934 147.182 100.289 147.802 99.8398C148.427 99.3906 149.328 99.1636 150.505 99.1587H151.479V98.7046C151.479 98.3384 151.384 98.0454 151.193 97.8257C151.008 97.606 150.712 97.4961 150.307 97.4961C149.951 97.4961 149.67 97.5815 149.465 97.7524C149.265 97.9233 149.165 98.1577 149.165 98.4556H147.048C147.048 97.9966 147.189 97.5718 147.473 97.1812C147.756 96.7905 148.156 96.4854 148.674 96.2656C149.191 96.041 149.772 95.9287 150.417 95.9287C151.394 95.9287 152.167 96.1753 152.739 96.6685C153.315 97.1567 153.603 97.8452 153.603 98.7339V102.169C153.608 102.921 153.713 103.49 153.918 103.875V104H151.779ZM150.029 102.528C150.341 102.528 150.629 102.459 150.893 102.323C151.157 102.181 151.352 101.993 151.479 101.759V100.396H150.688C149.628 100.396 149.064 100.763 148.996 101.495L148.989 101.62C148.989 101.883 149.082 102.101 149.267 102.271C149.453 102.442 149.707 102.528 150.029 102.528ZM159.521 101.81C159.521 101.551 159.392 101.349 159.133 101.202C158.879 101.051 158.469 100.917 157.902 100.799C156.018 100.404 155.075 99.603 155.075 98.397C155.075 97.6938 155.366 97.1079 155.947 96.6392C156.533 96.1655 157.297 95.9287 158.239 95.9287C159.245 95.9287 160.048 96.1655 160.649 96.6392C161.254 97.1128 161.557 97.728 161.557 98.4849H159.44C159.44 98.1821 159.343 97.9331 159.147 97.7378C158.952 97.5376 158.647 97.4375 158.232 97.4375C157.875 97.4375 157.6 97.5181 157.404 97.6792C157.209 97.8403 157.111 98.0454 157.111 98.2944C157.111 98.5288 157.221 98.7192 157.441 98.8657C157.666 99.0073 158.042 99.1318 158.569 99.2393C159.096 99.3418 159.541 99.459 159.902 99.5908C161.02 100.001 161.579 100.711 161.579 101.722C161.579 102.445 161.269 103.031 160.649 103.48C160.029 103.924 159.228 104.146 158.247 104.146C157.583 104.146 156.992 104.029 156.474 103.795C155.961 103.556 155.559 103.231 155.266 102.821C154.973 102.406 154.826 101.959 154.826 101.48H156.833C156.853 101.856 156.992 102.145 157.25 102.345C157.509 102.545 157.856 102.645 158.291 102.645C158.696 102.645 159.001 102.569 159.206 102.418C159.416 102.262 159.521 102.059 159.521 101.81ZM165.183 104H163.059V96.0752H165.183V104ZM162.934 94.0244C162.934 93.707 163.039 93.4458 163.249 93.2407C163.464 93.0356 163.754 92.9331 164.121 92.9331C164.482 92.9331 164.77 93.0356 164.985 93.2407C165.2 93.4458 165.307 93.707 165.307 94.0244C165.307 94.3467 165.197 94.6104 164.978 94.8154C164.763 95.0205 164.477 95.123 164.121 95.123C163.764 95.123 163.476 95.0205 163.256 94.8154C163.042 94.6104 162.934 94.3467 162.934 94.0244ZM171.225 101.81C171.225 101.551 171.096 101.349 170.837 101.202C170.583 101.051 170.173 100.917 169.606 100.799C167.722 100.404 166.779 99.603 166.779 98.397C166.779 97.6938 167.07 97.1079 167.651 96.6392C168.237 96.1655 169.001 95.9287 169.943 95.9287C170.949 95.9287 171.752 96.1655 172.353 96.6392C172.958 97.1128 173.261 97.728 173.261 98.4849H171.145C171.145 98.1821 171.047 97.9331 170.852 97.7378C170.656 97.5376 170.351 97.4375 169.936 97.4375C169.58 97.4375 169.304 97.5181 169.108 97.6792C168.913 97.8403 168.815 98.0454 168.815 98.2944C168.815 98.5288 168.925 98.7192 169.145 98.8657C169.37 99.0073 169.746 99.1318 170.273 99.2393C170.8 99.3418 171.245 99.459 171.606 99.5908C172.724 100.001 173.283 100.711 173.283 101.722C173.283 102.445 172.973 103.031 172.353 103.48C171.733 103.924 170.932 104.146 169.951 104.146C169.287 104.146 168.696 104.029 168.178 103.795C167.666 103.556 167.263 103.231 166.97 102.821C166.677 102.406 166.53 101.959 166.53 101.48H168.537C168.557 101.856 168.696 102.145 168.955 102.345C169.213 102.545 169.56 102.645 169.995 102.645C170.4 102.645 170.705 102.569 170.91 102.418C171.12 102.262 171.225 102.059 171.225 101.81Z" fill="white"/>
<path d="M127.863 128C127.733 127.746 127.639 127.43 127.58 127.053C126.896 127.814 126.008 128.195 124.914 128.195C123.879 128.195 123.02 127.896 122.336 127.297C121.659 126.698 121.32 125.943 121.32 125.031C121.32 123.911 121.734 123.052 122.561 122.453C123.394 121.854 124.595 121.551 126.164 121.545H127.463V120.939C127.463 120.451 127.336 120.061 127.082 119.768C126.835 119.475 126.441 119.328 125.9 119.328C125.425 119.328 125.051 119.442 124.777 119.67C124.51 119.898 124.377 120.21 124.377 120.607H121.555C121.555 119.995 121.743 119.429 122.121 118.908C122.499 118.387 123.033 117.98 123.723 117.688C124.413 117.388 125.188 117.238 126.047 117.238C127.349 117.238 128.381 117.567 129.143 118.225C129.911 118.876 130.295 119.794 130.295 120.979V125.559C130.301 126.561 130.441 127.32 130.715 127.834V128H127.863ZM125.529 126.037C125.946 126.037 126.33 125.946 126.682 125.764C127.033 125.575 127.294 125.324 127.463 125.012V123.195H126.408C124.995 123.195 124.243 123.684 124.152 124.66L124.143 124.826C124.143 125.178 124.266 125.467 124.514 125.695C124.761 125.923 125.1 126.037 125.529 126.037ZM138.791 126.926C138.094 127.772 137.131 128.195 135.9 128.195C134.768 128.195 133.902 127.87 133.303 127.219C132.71 126.568 132.408 125.614 132.395 124.357V117.434H135.217V124.26C135.217 125.36 135.718 125.91 136.721 125.91C137.678 125.91 138.335 125.578 138.693 124.914V117.434H141.525V128H138.869L138.791 126.926ZM147.033 114.836V117.434H148.84V119.504H147.033V124.777C147.033 125.168 147.108 125.448 147.258 125.617C147.408 125.786 147.694 125.871 148.117 125.871C148.43 125.871 148.706 125.848 148.947 125.803V127.941C148.394 128.111 147.824 128.195 147.238 128.195C145.259 128.195 144.25 127.196 144.211 125.197V119.504H142.668V117.434H144.211V114.836H147.033ZM149.68 122.619C149.68 121.571 149.882 120.637 150.285 119.816C150.689 118.996 151.268 118.361 152.023 117.912C152.785 117.463 153.667 117.238 154.67 117.238C156.096 117.238 157.258 117.674 158.156 118.547C159.061 119.419 159.566 120.604 159.67 122.102L159.689 122.824C159.689 124.445 159.237 125.747 158.332 126.73C157.427 127.707 156.213 128.195 154.689 128.195C153.166 128.195 151.949 127.707 151.037 126.73C150.132 125.754 149.68 124.426 149.68 122.746V122.619ZM152.502 122.824C152.502 123.827 152.691 124.595 153.068 125.129C153.446 125.656 153.986 125.92 154.689 125.92C155.373 125.92 155.907 125.66 156.291 125.139C156.675 124.611 156.867 123.771 156.867 122.619C156.867 121.636 156.675 120.874 156.291 120.334C155.907 119.794 155.367 119.523 154.67 119.523C153.98 119.523 153.446 119.794 153.068 120.334C152.691 120.868 152.502 121.698 152.502 122.824Z" fill="#FFF000"/>
<path d="M197.283 94.3906C196.863 94.3418 196.473 94.3174 196.111 94.3174C195.154 94.3174 194.676 94.7251 194.676 95.5405V96.0752H196.25V97.6279H194.676V104H192.552V97.6279H191.373V96.0752H192.552V95.46C192.562 94.542 192.85 93.8364 193.416 93.3433C193.982 92.8452 194.783 92.5962 195.818 92.5962C196.556 92.5962 197.752 92.6743 199.407 92.8306V104H197.283V94.3906ZM204.82 104.146C203.658 104.146 202.71 103.79 201.978 103.077C201.25 102.364 200.887 101.415 200.887 100.228V100.023C200.887 99.2271 201.041 98.5166 201.348 97.8916C201.656 97.2617 202.09 96.7783 202.652 96.4414C203.218 96.0996 203.863 95.9287 204.585 95.9287C205.669 95.9287 206.521 96.2705 207.142 96.9541C207.767 97.6377 208.079 98.6069 208.079 99.8618V100.726H203.033C203.101 101.244 203.306 101.659 203.648 101.971C203.995 102.284 204.432 102.44 204.959 102.44C205.774 102.44 206.412 102.145 206.871 101.554L207.911 102.718C207.593 103.167 207.164 103.519 206.622 103.773C206.08 104.022 205.479 104.146 204.82 104.146ZM204.578 97.6426C204.158 97.6426 203.816 97.7842 203.553 98.0674C203.294 98.3506 203.128 98.7559 203.055 99.2832H205.999V99.1147C205.989 98.646 205.862 98.2847 205.618 98.0308C205.374 97.772 205.027 97.6426 204.578 97.6426ZM212.305 98.4409L213.638 96.0752H215.901L213.646 99.957L215.997 104H213.726L212.312 101.51L210.906 104H208.628L210.979 99.957L208.731 96.0752H211.001L212.305 98.4409ZM221.036 100.287H216.912V98.5801H221.036V100.287ZM229.876 100.111C229.876 101.38 229.605 102.372 229.063 103.084C228.521 103.792 227.764 104.146 226.792 104.146C225.933 104.146 225.247 103.817 224.734 103.158L224.639 104H222.735V92.75H224.852V96.7856C225.34 96.2144 225.982 95.9287 226.778 95.9287C227.745 95.9287 228.501 96.2852 229.048 96.998C229.6 97.7061 229.876 98.7046 229.876 99.9937V100.111ZM227.759 99.957C227.759 99.1562 227.632 98.5728 227.378 98.2065C227.125 97.8354 226.746 97.6499 226.243 97.6499C225.569 97.6499 225.105 97.9258 224.852 98.4775V101.605C225.11 102.162 225.579 102.44 226.258 102.44C226.941 102.44 227.391 102.103 227.605 101.429C227.708 101.107 227.759 100.616 227.759 99.957ZM235.779 104C235.682 103.81 235.611 103.573 235.567 103.29C235.054 103.861 234.388 104.146 233.567 104.146C232.791 104.146 232.146 103.922 231.634 103.473C231.126 103.023 230.872 102.457 230.872 101.773C230.872 100.934 231.182 100.289 231.802 99.8398C232.427 99.3906 233.328 99.1636 234.505 99.1587H235.479V98.7046C235.479 98.3384 235.384 98.0454 235.193 97.8257C235.008 97.606 234.712 97.4961 234.307 97.4961C233.951 97.4961 233.67 97.5815 233.465 97.7524C233.265 97.9233 233.165 98.1577 233.165 98.4556H231.048C231.048 97.9966 231.189 97.5718 231.473 97.1812C231.756 96.7905 232.156 96.4854 232.674 96.2656C233.191 96.041 233.772 95.9287 234.417 95.9287C235.394 95.9287 236.167 96.1753 236.739 96.6685C237.315 97.1567 237.603 97.8452 237.603 98.7339V102.169C237.608 102.921 237.713 103.49 237.918 103.875V104H235.779ZM234.029 102.528C234.341 102.528 234.629 102.459 234.893 102.323C235.157 102.181 235.352 101.993 235.479 101.759V100.396H234.688C233.628 100.396 233.064 100.763 232.996 101.495L232.989 101.62C232.989 101.883 233.082 102.101 233.267 102.271C233.453 102.442 233.707 102.528 234.029 102.528ZM243.521 101.81C243.521 101.551 243.392 101.349 243.133 101.202C242.879 101.051 242.469 100.917 241.902 100.799C240.018 100.404 239.075 99.603 239.075 98.397C239.075 97.6938 239.366 97.1079 239.947 96.6392C240.533 96.1655 241.297 95.9287 242.239 95.9287C243.245 95.9287 244.048 96.1655 244.649 96.6392C245.254 97.1128 245.557 97.728 245.557 98.4849H243.44C243.44 98.1821 243.343 97.9331 243.147 97.7378C242.952 97.5376 242.647 97.4375 242.232 97.4375C241.875 97.4375 241.6 97.5181 241.404 97.6792C241.209 97.8403 241.111 98.0454 241.111 98.2944C241.111 98.5288 241.221 98.7192 241.441 98.8657C241.666 99.0073 242.042 99.1318 242.569 99.2393C243.096 99.3418 243.541 99.459 243.902 99.5908C245.02 100.001 245.579 100.711 245.579 101.722C245.579 102.445 245.269 103.031 244.649 103.48C244.029 103.924 243.228 104.146 242.247 104.146C241.583 104.146 240.992 104.029 240.474 103.795C239.961 103.556 239.559 103.231 239.266 102.821C238.973 102.406 238.826 101.959 238.826 101.48H240.833C240.853 101.856 240.992 102.145 241.25 102.345C241.509 102.545 241.856 102.645 242.291 102.645C242.696 102.645 243.001 102.569 243.206 102.418C243.416 102.262 243.521 102.059 243.521 101.81ZM249.183 104H247.059V96.0752H249.183V104ZM246.934 94.0244C246.934 93.707 247.039 93.4458 247.249 93.2407C247.464 93.0356 247.754 92.9331 248.121 92.9331C248.482 92.9331 248.77 93.0356 248.985 93.2407C249.2 93.4458 249.307 93.707 249.307 94.0244C249.307 94.3467 249.197 94.6104 248.978 94.8154C248.763 95.0205 248.477 95.123 248.121 95.123C247.764 95.123 247.476 95.0205 247.256 94.8154C247.042 94.6104 246.934 94.3467 246.934 94.0244ZM255.225 101.81C255.225 101.551 255.096 101.349 254.837 101.202C254.583 101.051 254.173 100.917 253.606 100.799C251.722 100.404 250.779 99.603 250.779 98.397C250.779 97.6938 251.07 97.1079 251.651 96.6392C252.237 96.1655 253.001 95.9287 253.943 95.9287C254.949 95.9287 255.752 96.1655 256.353 96.6392C256.958 97.1128 257.261 97.728 257.261 98.4849H255.145C255.145 98.1821 255.047 97.9331 254.852 97.7378C254.656 97.5376 254.351 97.4375 253.936 97.4375C253.58 97.4375 253.304 97.5181 253.108 97.6792C252.913 97.8403 252.815 98.0454 252.815 98.2944C252.815 98.5288 252.925 98.7192 253.145 98.8657C253.37 99.0073 253.746 99.1318 254.273 99.2393C254.8 99.3418 255.245 99.459 255.606 99.5908C256.724 100.001 257.283 100.711 257.283 101.722C257.283 102.445 256.973 103.031 256.353 103.48C255.733 103.924 254.932 104.146 253.951 104.146C253.287 104.146 252.696 104.029 252.178 103.795C251.666 103.556 251.263 103.231 250.97 102.821C250.677 102.406 250.53 101.959 250.53 101.48H252.537C252.557 101.856 252.696 102.145 252.955 102.345C253.213 102.545 253.56 102.645 253.995 102.645C254.4 102.645 254.705 102.569 254.91 102.418C255.12 102.262 255.225 102.059 255.225 101.81Z" fill="white"/>
<path d="M211.863 128C211.733 127.746 211.639 127.43 211.58 127.053C210.896 127.814 210.008 128.195 208.914 128.195C207.879 128.195 207.02 127.896 206.336 127.297C205.659 126.698 205.32 125.943 205.32 125.031C205.32 123.911 205.734 123.052 206.561 122.453C207.394 121.854 208.595 121.551 210.164 121.545H211.463V120.939C211.463 120.451 211.336 120.061 211.082 119.768C210.835 119.475 210.441 119.328 209.9 119.328C209.425 119.328 209.051 119.442 208.777 119.67C208.51 119.898 208.377 120.21 208.377 120.607H205.555C205.555 119.995 205.743 119.429 206.121 118.908C206.499 118.387 207.033 117.98 207.723 117.688C208.413 117.388 209.188 117.238 210.047 117.238C211.349 117.238 212.381 117.567 213.143 118.225C213.911 118.876 214.295 119.794 214.295 120.979V125.559C214.301 126.561 214.441 127.32 214.715 127.834V128H211.863ZM209.529 126.037C209.946 126.037 210.33 125.946 210.682 125.764C211.033 125.575 211.294 125.324 211.463 125.012V123.195H210.408C208.995 123.195 208.243 123.684 208.152 124.66L208.143 124.826C208.143 125.178 208.266 125.467 208.514 125.695C208.761 125.923 209.1 126.037 209.529 126.037ZM222.791 126.926C222.094 127.772 221.131 128.195 219.9 128.195C218.768 128.195 217.902 127.87 217.303 127.219C216.71 126.568 216.408 125.614 216.395 124.357V117.434H219.217V124.26C219.217 125.36 219.718 125.91 220.721 125.91C221.678 125.91 222.335 125.578 222.693 124.914V117.434H225.525V128H222.869L222.791 126.926ZM231.033 114.836V117.434H232.84V119.504H231.033V124.777C231.033 125.168 231.108 125.448 231.258 125.617C231.408 125.786 231.694 125.871 232.117 125.871C232.43 125.871 232.706 125.848 232.947 125.803V127.941C232.394 128.111 231.824 128.195 231.238 128.195C229.259 128.195 228.25 127.196 228.211 125.197V119.504H226.668V117.434H228.211V114.836H231.033ZM233.68 122.619C233.68 121.571 233.882 120.637 234.285 119.816C234.689 118.996 235.268 118.361 236.023 117.912C236.785 117.463 237.667 117.238 238.67 117.238C240.096 117.238 241.258 117.674 242.156 118.547C243.061 119.419 243.566 120.604 243.67 122.102L243.689 122.824C243.689 124.445 243.237 125.747 242.332 126.73C241.427 127.707 240.213 128.195 238.689 128.195C237.166 128.195 235.949 127.707 235.037 126.73C234.132 125.754 233.68 124.426 233.68 122.746V122.619ZM236.502 122.824C236.502 123.827 236.691 124.595 237.068 125.129C237.446 125.656 237.986 125.92 238.689 125.92C239.373 125.92 239.907 125.66 240.291 125.139C240.675 124.611 240.867 123.771 240.867 122.619C240.867 121.636 240.675 120.874 240.291 120.334C239.907 119.794 239.367 119.523 238.67 119.523C237.98 119.523 237.446 119.794 237.068 120.334C236.691 120.868 236.502 121.698 236.502 122.824Z" fill="#FFF000"/>
<path d="M350.283 94.3906C349.863 94.3418 349.473 94.3174 349.111 94.3174C348.154 94.3174 347.676 94.7251 347.676 95.5405V96.0752H349.25V97.6279H347.676V104H345.552V97.6279H344.373V96.0752H345.552V95.46C345.562 94.542 345.85 93.8364 346.416 93.3433C346.982 92.8452 347.783 92.5962 348.818 92.5962C349.556 92.5962 350.752 92.6743 352.407 92.8306V104H350.283V94.3906ZM357.82 104.146C356.658 104.146 355.71 103.79 354.978 103.077C354.25 102.364 353.887 101.415 353.887 100.228V100.023C353.887 99.2271 354.041 98.5166 354.348 97.8916C354.656 97.2617 355.09 96.7783 355.652 96.4414C356.218 96.0996 356.863 95.9287 357.585 95.9287C358.669 95.9287 359.521 96.2705 360.142 96.9541C360.767 97.6377 361.079 98.6069 361.079 99.8618V100.726H356.033C356.101 101.244 356.306 101.659 356.648 101.971C356.995 102.284 357.432 102.44 357.959 102.44C358.774 102.44 359.412 102.145 359.871 101.554L360.911 102.718C360.593 103.167 360.164 103.519 359.622 103.773C359.08 104.022 358.479 104.146 357.82 104.146ZM357.578 97.6426C357.158 97.6426 356.816 97.7842 356.553 98.0674C356.294 98.3506 356.128 98.7559 356.055 99.2832H358.999V99.1147C358.989 98.646 358.862 98.2847 358.618 98.0308C358.374 97.772 358.027 97.6426 357.578 97.6426ZM365.305 98.4409L366.638 96.0752H368.901L366.646 99.957L368.997 104H366.726L365.312 101.51L363.906 104H361.628L363.979 99.957L361.731 96.0752H364.001L365.305 98.4409ZM374.036 100.287H369.912V98.5801H374.036V100.287ZM382.876 100.111C382.876 101.38 382.605 102.372 382.063 103.084C381.521 103.792 380.764 104.146 379.792 104.146C378.933 104.146 378.247 103.817 377.734 103.158L377.639 104H375.735V92.75H377.852V96.7856C378.34 96.2144 378.982 95.9287 379.778 95.9287C380.745 95.9287 381.501 96.2852 382.048 96.998C382.6 97.7061 382.876 98.7046 382.876 99.9937V100.111ZM380.759 99.957C380.759 99.1562 380.632 98.5728 380.378 98.2065C380.125 97.8354 379.746 97.6499 379.243 97.6499C378.569 97.6499 378.105 97.9258 377.852 98.4775V101.605C378.11 102.162 378.579 102.44 379.258 102.44C379.941 102.44 380.391 102.103 380.605 101.429C380.708 101.107 380.759 100.616 380.759 99.957ZM388.779 104C388.682 103.81 388.611 103.573 388.567 103.29C388.054 103.861 387.388 104.146 386.567 104.146C385.791 104.146 385.146 103.922 384.634 103.473C384.126 103.023 383.872 102.457 383.872 101.773C383.872 100.934 384.182 100.289 384.802 99.8398C385.427 99.3906 386.328 99.1636 387.505 99.1587H388.479V98.7046C388.479 98.3384 388.384 98.0454 388.193 97.8257C388.008 97.606 387.712 97.4961 387.307 97.4961C386.951 97.4961 386.67 97.5815 386.465 97.7524C386.265 97.9233 386.165 98.1577 386.165 98.4556H384.048C384.048 97.9966 384.189 97.5718 384.473 97.1812C384.756 96.7905 385.156 96.4854 385.674 96.2656C386.191 96.041 386.772 95.9287 387.417 95.9287C388.394 95.9287 389.167 96.1753 389.739 96.6685C390.315 97.1567 390.603 97.8452 390.603 98.7339V102.169C390.608 102.921 390.713 103.49 390.918 103.875V104H388.779ZM387.029 102.528C387.341 102.528 387.629 102.459 387.893 102.323C388.157 102.181 388.352 101.993 388.479 101.759V100.396H387.688C386.628 100.396 386.064 100.763 385.996 101.495L385.989 101.62C385.989 101.883 386.082 102.101 386.267 102.271C386.453 102.442 386.707 102.528 387.029 102.528ZM396.521 101.81C396.521 101.551 396.392 101.349 396.133 101.202C395.879 101.051 395.469 100.917 394.902 100.799C393.018 100.404 392.075 99.603 392.075 98.397C392.075 97.6938 392.366 97.1079 392.947 96.6392C393.533 96.1655 394.297 95.9287 395.239 95.9287C396.245 95.9287 397.048 96.1655 397.649 96.6392C398.254 97.1128 398.557 97.728 398.557 98.4849H396.44C396.44 98.1821 396.343 97.9331 396.147 97.7378C395.952 97.5376 395.647 97.4375 395.232 97.4375C394.875 97.4375 394.6 97.5181 394.404 97.6792C394.209 97.8403 394.111 98.0454 394.111 98.2944C394.111 98.5288 394.221 98.7192 394.441 98.8657C394.666 99.0073 395.042 99.1318 395.569 99.2393C396.096 99.3418 396.541 99.459 396.902 99.5908C398.02 100.001 398.579 100.711 398.579 101.722C398.579 102.445 398.269 103.031 397.649 103.48C397.029 103.924 396.228 104.146 395.247 104.146C394.583 104.146 393.992 104.029 393.474 103.795C392.961 103.556 392.559 103.231 392.266 102.821C391.973 102.406 391.826 101.959 391.826 101.48H393.833C393.853 101.856 393.992 102.145 394.25 102.345C394.509 102.545 394.856 102.645 395.291 102.645C395.696 102.645 396.001 102.569 396.206 102.418C396.416 102.262 396.521 102.059 396.521 101.81ZM402.183 104H400.059V96.0752H402.183V104ZM399.934 94.0244C399.934 93.707 400.039 93.4458 400.249 93.2407C400.464 93.0356 400.754 92.9331 401.121 92.9331C401.482 92.9331 401.77 93.0356 401.985 93.2407C402.2 93.4458 402.307 93.707 402.307 94.0244C402.307 94.3467 402.197 94.6104 401.978 94.8154C401.763 95.0205 401.477 95.123 401.121 95.123C400.764 95.123 400.476 95.0205 400.256 94.8154C400.042 94.6104 399.934 94.3467 399.934 94.0244ZM408.225 101.81C408.225 101.551 408.096 101.349 407.837 101.202C407.583 101.051 407.173 100.917 406.606 100.799C404.722 100.404 403.779 99.603 403.779 98.397C403.779 97.6938 404.07 97.1079 404.651 96.6392C405.237 96.1655 406.001 95.9287 406.943 95.9287C407.949 95.9287 408.752 96.1655 409.353 96.6392C409.958 97.1128 410.261 97.728 410.261 98.4849H408.145C408.145 98.1821 408.047 97.9331 407.852 97.7378C407.656 97.5376 407.351 97.4375 406.936 97.4375C406.58 97.4375 406.304 97.5181 406.108 97.6792C405.913 97.8403 405.815 98.0454 405.815 98.2944C405.815 98.5288 405.925 98.7192 406.145 98.8657C406.37 99.0073 406.746 99.1318 407.273 99.2393C407.8 99.3418 408.245 99.459 408.606 99.5908C409.724 100.001 410.283 100.711 410.283 101.722C410.283 102.445 409.973 103.031 409.353 103.48C408.733 103.924 407.932 104.146 406.951 104.146C406.287 104.146 405.696 104.029 405.178 103.795C404.666 103.556 404.263 103.231 403.97 102.821C403.677 102.406 403.53 101.959 403.53 101.48H405.537C405.557 101.856 405.696 102.145 405.955 102.345C406.213 102.545 406.56 102.645 406.995 102.645C407.4 102.645 407.705 102.569 407.91 102.418C408.12 102.262 408.225 102.059 408.225 101.81Z" fill="white"/>
<path d="M353.467 119.641H354.971C355.687 119.641 356.217 119.462 356.562 119.104C356.908 118.745 357.08 118.27 357.08 117.678C357.08 117.105 356.908 116.659 356.562 116.34C356.224 116.021 355.755 115.861 355.156 115.861C354.616 115.861 354.163 116.011 353.799 116.311C353.434 116.604 353.252 116.988 353.252 117.463H350.43C350.43 116.721 350.628 116.057 351.025 115.471C351.429 114.878 351.989 114.416 352.705 114.084C353.428 113.752 354.222 113.586 355.088 113.586C356.592 113.586 357.77 113.947 358.623 114.67C359.476 115.386 359.902 116.376 359.902 117.639C359.902 118.29 359.704 118.889 359.307 119.436C358.91 119.982 358.389 120.402 357.744 120.695C358.545 120.982 359.141 121.411 359.531 121.984C359.928 122.557 360.127 123.234 360.127 124.016C360.127 125.279 359.665 126.291 358.74 127.053C357.822 127.814 356.605 128.195 355.088 128.195C353.669 128.195 352.507 127.821 351.602 127.072C350.703 126.324 350.254 125.334 350.254 124.104H353.076C353.076 124.637 353.275 125.074 353.672 125.412C354.076 125.751 354.57 125.92 355.156 125.92C355.827 125.92 356.351 125.744 356.729 125.393C357.113 125.035 357.305 124.562 357.305 123.977C357.305 122.557 356.523 121.848 354.961 121.848H353.467V119.641ZM371.65 122.121C371.65 124.087 371.243 125.591 370.43 126.633C369.616 127.674 368.424 128.195 366.855 128.195C365.306 128.195 364.121 127.684 363.301 126.662C362.48 125.64 362.061 124.175 362.041 122.268V119.65C362.041 117.665 362.451 116.158 363.271 115.129C364.098 114.1 365.286 113.586 366.836 113.586C368.385 113.586 369.57 114.097 370.391 115.119C371.211 116.135 371.631 117.596 371.65 119.504V122.121ZM368.828 119.25C368.828 118.072 368.665 117.215 368.34 116.682C368.021 116.141 367.52 115.871 366.836 115.871C366.172 115.871 365.68 116.128 365.361 116.643C365.049 117.15 364.883 117.948 364.863 119.035V122.492C364.863 123.651 365.02 124.514 365.332 125.08C365.651 125.64 366.159 125.92 366.855 125.92C367.546 125.92 368.044 125.65 368.35 125.109C368.656 124.569 368.815 123.742 368.828 122.629V119.25ZM383.135 122.121C383.135 124.087 382.728 125.591 381.914 126.633C381.1 127.674 379.909 128.195 378.34 128.195C376.79 128.195 375.605 127.684 374.785 126.662C373.965 125.64 373.545 124.175 373.525 122.268V119.65C373.525 117.665 373.936 116.158 374.756 115.129C375.583 114.1 376.771 113.586 378.32 113.586C379.87 113.586 381.055 114.097 381.875 115.119C382.695 116.135 383.115 117.596 383.135 119.504V122.121ZM380.312 119.25C380.312 118.072 380.15 117.215 379.824 116.682C379.505 116.141 379.004 115.871 378.32 115.871C377.656 115.871 377.165 116.128 376.846 116.643C376.533 117.15 376.367 117.948 376.348 119.035V122.492C376.348 123.651 376.504 124.514 376.816 125.08C377.135 125.64 377.643 125.92 378.34 125.92C379.03 125.92 379.528 125.65 379.834 125.109C380.14 124.569 380.299 123.742 380.312 122.629V119.25ZM394.678 122.814C394.678 124.442 394.307 125.747 393.564 126.73C392.829 127.707 391.833 128.195 390.576 128.195C389.508 128.195 388.646 127.824 387.988 127.082V132.062H385.166V117.434H387.783L387.881 118.469C388.564 117.648 389.456 117.238 390.557 117.238C391.859 117.238 392.871 117.72 393.594 118.684C394.316 119.647 394.678 120.975 394.678 122.668V122.814ZM391.855 122.609C391.855 121.626 391.68 120.868 391.328 120.334C390.983 119.8 390.479 119.533 389.814 119.533C388.929 119.533 388.32 119.872 387.988 120.549V124.875C388.333 125.572 388.949 125.92 389.834 125.92C391.182 125.92 391.855 124.816 391.855 122.609ZM400.303 120.588L402.08 117.434H405.098L402.09 122.609L405.225 128H402.197L400.312 124.68L398.438 128H395.4L398.535 122.609L395.537 117.434H398.564L400.303 120.588Z" fill="#FFF000"/>
<path d="M504.283 94.3906C503.863 94.3418 503.473 94.3174 503.111 94.3174C502.154 94.3174 501.676 94.7251 501.676 95.5405V96.0752H503.25V97.6279H501.676V104H499.552V97.6279H498.373V96.0752H499.552V95.46C499.562 94.542 499.85 93.8364 500.416 93.3433C500.982 92.8452 501.783 92.5962 502.818 92.5962C503.556 92.5962 504.752 92.6743 506.407 92.8306V104H504.283V94.3906ZM511.82 104.146C510.658 104.146 509.71 103.79 508.978 103.077C508.25 102.364 507.887 101.415 507.887 100.228V100.023C507.887 99.2271 508.041 98.5166 508.348 97.8916C508.656 97.2617 509.09 96.7783 509.652 96.4414C510.218 96.0996 510.863 95.9287 511.585 95.9287C512.669 95.9287 513.521 96.2705 514.142 96.9541C514.767 97.6377 515.079 98.6069 515.079 99.8618V100.726H510.033C510.101 101.244 510.306 101.659 510.648 101.971C510.995 102.284 511.432 102.44 511.959 102.44C512.774 102.44 513.412 102.145 513.871 101.554L514.911 102.718C514.593 103.167 514.164 103.519 513.622 103.773C513.08 104.022 512.479 104.146 511.82 104.146ZM511.578 97.6426C511.158 97.6426 510.816 97.7842 510.553 98.0674C510.294 98.3506 510.128 98.7559 510.055 99.2832H512.999V99.1147C512.989 98.646 512.862 98.2847 512.618 98.0308C512.374 97.772 512.027 97.6426 511.578 97.6426ZM519.305 98.4409L520.638 96.0752H522.901L520.646 99.957L522.997 104H520.726L519.312 101.51L517.906 104H515.628L517.979 99.957L515.731 96.0752H518.001L519.305 98.4409ZM528.036 100.287H523.912V98.5801H528.036V100.287ZM536.876 100.111C536.876 101.38 536.605 102.372 536.063 103.084C535.521 103.792 534.764 104.146 533.792 104.146C532.933 104.146 532.247 103.817 531.734 103.158L531.639 104H529.735V92.75H531.852V96.7856C532.34 96.2144 532.982 95.9287 533.778 95.9287C534.745 95.9287 535.501 96.2852 536.048 96.998C536.6 97.7061 536.876 98.7046 536.876 99.9937V100.111ZM534.759 99.957C534.759 99.1562 534.632 98.5728 534.378 98.2065C534.125 97.8354 533.746 97.6499 533.243 97.6499C532.569 97.6499 532.105 97.9258 531.852 98.4775V101.605C532.11 102.162 532.579 102.44 533.258 102.44C533.941 102.44 534.391 102.103 534.605 101.429C534.708 101.107 534.759 100.616 534.759 99.957ZM542.779 104C542.682 103.81 542.611 103.573 542.567 103.29C542.054 103.861 541.388 104.146 540.567 104.146C539.791 104.146 539.146 103.922 538.634 103.473C538.126 103.023 537.872 102.457 537.872 101.773C537.872 100.934 538.182 100.289 538.802 99.8398C539.427 99.3906 540.328 99.1636 541.505 99.1587H542.479V98.7046C542.479 98.3384 542.384 98.0454 542.193 97.8257C542.008 97.606 541.712 97.4961 541.307 97.4961C540.951 97.4961 540.67 97.5815 540.465 97.7524C540.265 97.9233 540.165 98.1577 540.165 98.4556H538.048C538.048 97.9966 538.189 97.5718 538.473 97.1812C538.756 96.7905 539.156 96.4854 539.674 96.2656C540.191 96.041 540.772 95.9287 541.417 95.9287C542.394 95.9287 543.167 96.1753 543.739 96.6685C544.315 97.1567 544.603 97.8452 544.603 98.7339V102.169C544.608 102.921 544.713 103.49 544.918 103.875V104H542.779ZM541.029 102.528C541.341 102.528 541.629 102.459 541.893 102.323C542.157 102.181 542.352 101.993 542.479 101.759V100.396H541.688C540.628 100.396 540.064 100.763 539.996 101.495L539.989 101.62C539.989 101.883 540.082 102.101 540.267 102.271C540.453 102.442 540.707 102.528 541.029 102.528ZM550.521 101.81C550.521 101.551 550.392 101.349 550.133 101.202C549.879 101.051 549.469 100.917 548.902 100.799C547.018 100.404 546.075 99.603 546.075 98.397C546.075 97.6938 546.366 97.1079 546.947 96.6392C547.533 96.1655 548.297 95.9287 549.239 95.9287C550.245 95.9287 551.048 96.1655 551.649 96.6392C552.254 97.1128 552.557 97.728 552.557 98.4849H550.44C550.44 98.1821 550.343 97.9331 550.147 97.7378C549.952 97.5376 549.647 97.4375 549.232 97.4375C548.875 97.4375 548.6 97.5181 548.404 97.6792C548.209 97.8403 548.111 98.0454 548.111 98.2944C548.111 98.5288 548.221 98.7192 548.441 98.8657C548.666 99.0073 549.042 99.1318 549.569 99.2393C550.096 99.3418 550.541 99.459 550.902 99.5908C552.02 100.001 552.579 100.711 552.579 101.722C552.579 102.445 552.269 103.031 551.649 103.48C551.029 103.924 550.228 104.146 549.247 104.146C548.583 104.146 547.992 104.029 547.474 103.795C546.961 103.556 546.559 103.231 546.266 102.821C545.973 102.406 545.826 101.959 545.826 101.48H547.833C547.853 101.856 547.992 102.145 548.25 102.345C548.509 102.545 548.856 102.645 549.291 102.645C549.696 102.645 550.001 102.569 550.206 102.418C550.416 102.262 550.521 102.059 550.521 101.81ZM556.183 104H554.059V96.0752H556.183V104ZM553.934 94.0244C553.934 93.707 554.039 93.4458 554.249 93.2407C554.464 93.0356 554.754 92.9331 555.121 92.9331C555.482 92.9331 555.77 93.0356 555.985 93.2407C556.2 93.4458 556.307 93.707 556.307 94.0244C556.307 94.3467 556.197 94.6104 555.978 94.8154C555.763 95.0205 555.477 95.123 555.121 95.123C554.764 95.123 554.476 95.0205 554.256 94.8154C554.042 94.6104 553.934 94.3467 553.934 94.0244ZM562.225 101.81C562.225 101.551 562.096 101.349 561.837 101.202C561.583 101.051 561.173 100.917 560.606 100.799C558.722 100.404 557.779 99.603 557.779 98.397C557.779 97.6938 558.07 97.1079 558.651 96.6392C559.237 96.1655 560.001 95.9287 560.943 95.9287C561.949 95.9287 562.752 96.1655 563.353 96.6392C563.958 97.1128 564.261 97.728 564.261 98.4849H562.145C562.145 98.1821 562.047 97.9331 561.852 97.7378C561.656 97.5376 561.351 97.4375 560.936 97.4375C560.58 97.4375 560.304 97.5181 560.108 97.6792C559.913 97.8403 559.815 98.0454 559.815 98.2944C559.815 98.5288 559.925 98.7192 560.145 98.8657C560.37 99.0073 560.746 99.1318 561.273 99.2393C561.8 99.3418 562.245 99.459 562.606 99.5908C563.724 100.001 564.283 100.711 564.283 101.722C564.283 102.445 563.973 103.031 563.353 103.48C562.733 103.924 561.932 104.146 560.951 104.146C560.287 104.146 559.696 104.029 559.178 103.795C558.666 103.556 558.263 103.231 557.97 102.821C557.677 102.406 557.53 101.959 557.53 101.48H559.537C559.557 101.856 559.696 102.145 559.955 102.345C560.213 102.545 560.56 102.645 560.995 102.645C561.4 102.645 561.705 102.569 561.91 102.418C562.12 102.262 562.225 102.059 562.225 101.81Z" fill="white"/>
<path d="M518.863 128C518.733 127.746 518.639 127.43 518.58 127.053C517.896 127.814 517.008 128.195 515.914 128.195C514.879 128.195 514.02 127.896 513.336 127.297C512.659 126.698 512.32 125.943 512.32 125.031C512.32 123.911 512.734 123.052 513.561 122.453C514.394 121.854 515.595 121.551 517.164 121.545H518.463V120.939C518.463 120.451 518.336 120.061 518.082 119.768C517.835 119.475 517.441 119.328 516.9 119.328C516.425 119.328 516.051 119.442 515.777 119.67C515.51 119.898 515.377 120.21 515.377 120.607H512.555C512.555 119.995 512.743 119.429 513.121 118.908C513.499 118.387 514.033 117.98 514.723 117.688C515.413 117.388 516.188 117.238 517.047 117.238C518.349 117.238 519.381 117.567 520.143 118.225C520.911 118.876 521.295 119.794 521.295 120.979V125.559C521.301 126.561 521.441 127.32 521.715 127.834V128H518.863ZM516.529 126.037C516.946 126.037 517.33 125.946 517.682 125.764C518.033 125.575 518.294 125.324 518.463 125.012V123.195H517.408C515.995 123.195 515.243 123.684 515.152 124.66L515.143 124.826C515.143 125.178 515.266 125.467 515.514 125.695C515.761 125.923 516.1 126.037 516.529 126.037ZM529.791 126.926C529.094 127.772 528.131 128.195 526.9 128.195C525.768 128.195 524.902 127.87 524.303 127.219C523.71 126.568 523.408 125.614 523.395 124.357V117.434H526.217V124.26C526.217 125.36 526.718 125.91 527.721 125.91C528.678 125.91 529.335 125.578 529.693 124.914V117.434H532.525V128H529.869L529.791 126.926ZM538.033 114.836V117.434H539.84V119.504H538.033V124.777C538.033 125.168 538.108 125.448 538.258 125.617C538.408 125.786 538.694 125.871 539.117 125.871C539.43 125.871 539.706 125.848 539.947 125.803V127.941C539.394 128.111 538.824 128.195 538.238 128.195C536.259 128.195 535.25 127.196 535.211 125.197V119.504H533.668V117.434H535.211V114.836H538.033ZM540.68 122.619C540.68 121.571 540.882 120.637 541.285 119.816C541.689 118.996 542.268 118.361 543.023 117.912C543.785 117.463 544.667 117.238 545.67 117.238C547.096 117.238 548.258 117.674 549.156 118.547C550.061 119.419 550.566 120.604 550.67 122.102L550.689 122.824C550.689 124.445 550.237 125.747 549.332 126.73C548.427 127.707 547.213 128.195 545.689 128.195C544.166 128.195 542.949 127.707 542.037 126.73C541.132 125.754 540.68 124.426 540.68 122.746V122.619ZM543.502 122.824C543.502 123.827 543.691 124.595 544.068 125.129C544.446 125.656 544.986 125.92 545.689 125.92C546.373 125.92 546.907 125.66 547.291 125.139C547.675 124.611 547.867 123.771 547.867 122.619C547.867 121.636 547.675 120.874 547.291 120.334C546.907 119.794 546.367 119.523 545.67 119.523C544.98 119.523 544.446 119.794 544.068 120.334C543.691 120.868 543.502 121.698 543.502 122.824Z" fill="#FFF000"/>
<path d="M99 80V140" stroke="white" stroke-dasharray="4 2"/>
<path d="M182 80V140" stroke="white" stroke-dasharray="4 2"/>
<path d="M267 83V143" stroke="white" stroke-dasharray="4 2"/>
<path d="M489 80V140" stroke="white" stroke-dasharray="4 2"/>
<defs>
<filter id="filter0_d" x="20" y="20" width="78" height="56" filterUnits="userSpaceOnUse" color-interpolation-filters="sRGB">
<feFlood flood-opacity="0" result="BackgroundImageFix"/>
<feColorMatrix in="SourceAlpha" type="matrix" values="0 0 0 0 0 0 0 0 0 0 0 0 0 0 0 0 0 0 127 0"/>
<feOffset dx="6" dy="6"/>
<feColorMatrix type="matrix" values="0 0 0 0 0 0 0 0 0 0 0 0 0 0 0 0 0 0 0.15 0"/>
<feBlend mode="normal" in2="BackgroundImageFix" result="effect1_dropShadow"/>
<feBlend mode="normal" in="SourceGraphic" in2="effect1_dropShadow" result="shape"/>
</filter>
<filter id="filter1_d" x="104" y="20" width="78" height="56" filterUnits="userSpaceOnUse" color-interpolation-filters="sRGB">
<feFlood flood-opacity="0" result="BackgroundImageFix"/>
<feColorMatrix in="SourceAlpha" type="matrix" values="0 0 0 0 0 0 0 0 0 0 0 0 0 0 0 0 0 0 127 0"/>
<feOffset dx="6" dy="6"/>
<feColorMatrix type="matrix" values="0 0 0 0 0 0 0 0 0 0 0 0 0 0 0 0 0 0 0.15 0"/>
<feBlend mode="normal" in2="BackgroundImageFix" result="effect1_dropShadow"/>
<feBlend mode="normal" in="SourceGraphic" in2="effect1_dropShadow" result="shape"/>
</filter>
<filter id="filter2_d" x="188" y="20" width="78" height="56" filterUnits="userSpaceOnUse" color-interpolation-filters="sRGB">
<feFlood flood-opacity="0" result="BackgroundImageFix"/>
<feColorMatrix in="SourceAlpha" type="matrix" values="0 0 0 0 0 0 0 0 0 0 0 0 0 0 0 0 0 0 127 0"/>
<feOffset dx="6" dy="6"/>
<feColorMatrix type="matrix" values="0 0 0 0 0 0 0 0 0 0 0 0 0 0 0 0 0 0 0.15 0"/>
<feBlend mode="normal" in2="BackgroundImageFix" result="effect1_dropShadow"/>
<feBlend mode="normal" in="SourceGraphic" in2="effect1_dropShadow" result="shape"/>
</filter>
<filter id="filter3_d" x="272" y="20" width="216" height="56" filterUnits="userSpaceOnUse" color-interpolation-filters="sRGB">
<feFlood flood-opacity="0" result="BackgroundImageFix"/>
<feColorMatrix in="SourceAlpha" type="matrix" values="0 0 0 0 0 0 0 0 0 0 0 0 0 0 0 0 0 0 127 0"/>
<feOffset dx="6" dy="6"/>
<feColorMatrix type="matrix" values="0 0 0 0 0 0 0 0 0 0 0 0 0 0 0 0 0 0 0.15 0"/>
<feBlend mode="normal" in2="BackgroundImageFix" result="effect1_dropShadow"/>
<feBlend mode="normal" in="SourceGraphic" in2="effect1_dropShadow" result="shape"/>
</filter>
<filter id="filter4_d" x="494" y="20" width="78" height="56" filterUnits="userSpaceOnUse" color-interpolation-filters="sRGB">
<feFlood flood-opacity="0" result="BackgroundImageFix"/>
<feColorMatrix in="SourceAlpha" type="matrix" values="0 0 0 0 0 0 0 0 0 0 0 0 0 0 0 0 0 0 127 0"/>
<feOffset dx="6" dy="6"/>
<feColorMatrix type="matrix" values="0 0 0 0 0 0 0 0 0 0 0 0 0 0 0 0 0 0 0.15 0"/>
<feBlend mode="normal" in2="BackgroundImageFix" result="effect1_dropShadow"/>
<feBlend mode="normal" in="SourceGraphic" in2="effect1_dropShadow" result="shape"/>
</filter>
</defs>
</svg>
