<svg width="931" height="498" viewBox="0 0 931 498" fill="none" xmlns="http://www.w3.org/2000/svg">
<rect x="1" y="43" width="212" height="212" rx="5" fill="#F7F7F7" stroke="#AAAAAA" stroke-width="2" stroke-dasharray="6 4"/>
<g opacity="0.8">
<path d="M22 127C22 125.343 23.3431 124 25 124H69C70.6569 124 72 125.343 72 127V171C72 172.657 70.6569 174 69 174H25C23.3431 174 22 172.657 22 171V127Z" fill="#B72DF8"/>
<path d="M48.0356 154.667H46.0269V144.963L43.0635 145.976V144.274L47.7783 142.539H48.0356V154.667Z" fill="white"/>
</g>
<g opacity="0.8">
<path d="M82 127C82 125.343 83.3431 124 85 124H129C130.657 124 132 125.343 132 127V171C132 172.657 130.657 174 129 174H85C83.3431 174 82 172.657 82 171V127Z" fill="#1E73FF"/>
<path d="M110.7 154.667H102.574V153.281L106.6 148.889C107.181 148.242 107.593 147.702 107.836 147.271C108.085 146.834 108.21 146.396 108.21 145.959C108.21 145.384 108.047 144.919 107.72 144.565C107.399 144.211 106.965 144.033 106.417 144.033C105.764 144.033 105.258 144.233 104.898 144.631C104.538 145.03 104.358 145.575 104.358 146.266H102.341C102.341 145.53 102.507 144.869 102.839 144.282C103.177 143.69 103.656 143.231 104.275 142.905C104.901 142.578 105.62 142.415 106.434 142.415C107.607 142.415 108.531 142.711 109.206 143.303C109.887 143.89 110.227 144.703 110.227 145.743C110.227 146.347 110.056 146.98 109.712 147.644C109.375 148.303 108.819 149.053 108.044 149.894L105.089 153.056H110.7V154.667Z" fill="white"/>
</g>
<g opacity="0.8">
<path d="M142 127C142 125.343 143.343 124 145 124H189C190.657 124 192 125.343 192 127V171C192 172.657 190.657 174 189 174H145C143.343 174 142 172.657 142 171V127Z" fill="#00986B"/>
<path d="M164.906 147.702H166.135C166.755 147.697 167.244 147.536 167.604 147.221C167.969 146.906 168.152 146.449 168.152 145.851C168.152 145.276 168 144.83 167.695 144.515C167.396 144.194 166.937 144.033 166.317 144.033C165.775 144.033 165.33 144.191 164.981 144.507C164.632 144.816 164.458 145.223 164.458 145.727H162.441C162.441 145.107 162.604 144.543 162.931 144.033C163.263 143.524 163.722 143.129 164.309 142.846C164.901 142.559 165.562 142.415 166.292 142.415C167.499 142.415 168.445 142.719 169.131 143.328C169.823 143.931 170.169 144.772 170.169 145.851C170.169 146.394 169.995 146.906 169.646 147.387C169.303 147.863 168.857 148.223 168.31 148.466C168.974 148.693 169.477 149.05 169.82 149.537C170.169 150.024 170.343 150.605 170.343 151.28C170.343 152.365 169.97 153.228 169.223 153.87C168.481 154.512 167.504 154.833 166.292 154.833C165.13 154.833 164.179 154.523 163.437 153.903C162.695 153.283 162.325 152.459 162.325 151.429H164.342C164.342 151.961 164.519 152.392 164.873 152.724C165.233 153.056 165.714 153.222 166.317 153.222C166.943 153.222 167.435 153.056 167.795 152.724C168.155 152.392 168.334 151.911 168.334 151.28C168.334 150.644 168.146 150.154 167.77 149.811C167.394 149.468 166.835 149.296 166.093 149.296H164.906V147.702Z" fill="white"/>
</g>
<rect x="240" y="43" width="212" height="212" rx="5" fill="#F7F7F7" stroke="#AAAAAA" stroke-width="2" stroke-dasharray="6 4"/>
<g opacity="0.8">
<path d="M261 127C261 125.343 262.343 124 264 124H308C309.657 124 311 125.343 311 127V171C311 172.657 309.657 174 308 174H264C262.343 174 261 172.657 261 171V127Z" fill="#00986B"/>
<path d="M283.906 147.702H285.135C285.755 147.697 286.244 147.536 286.604 147.221C286.969 146.906 287.152 146.449 287.152 145.851C287.152 145.276 287 144.83 286.695 144.515C286.396 144.194 285.937 144.033 285.317 144.033C284.775 144.033 284.33 144.191 283.981 144.507C283.632 144.816 283.458 145.223 283.458 145.727H281.441C281.441 145.107 281.604 144.543 281.931 144.033C282.263 143.524 282.722 143.129 283.309 142.846C283.901 142.559 284.562 142.415 285.292 142.415C286.499 142.415 287.445 142.719 288.131 143.328C288.823 143.931 289.169 144.772 289.169 145.851C289.169 146.394 288.995 146.906 288.646 147.387C288.303 147.863 287.857 148.223 287.31 148.466C287.974 148.693 288.477 149.05 288.82 149.537C289.169 150.024 289.343 150.605 289.343 151.28C289.343 152.365 288.97 153.228 288.223 153.87C287.481 154.512 286.504 154.833 285.292 154.833C284.13 154.833 283.179 154.523 282.437 153.903C281.695 153.283 281.325 152.459 281.325 151.429H283.342C283.342 151.961 283.519 152.392 283.873 152.724C284.233 153.056 284.714 153.222 285.317 153.222C285.943 153.222 286.435 153.056 286.795 152.724C287.155 152.392 287.334 151.911 287.334 151.28C287.334 150.644 287.146 150.154 286.77 149.811C286.394 149.468 285.835 149.296 285.093 149.296H283.906V147.702Z" fill="white"/>
</g>
<g opacity="0.8">
<path d="M321 127C321 125.343 322.343 124 324 124H368C369.657 124 371 125.343 371 127V171C371 172.657 369.657 174 368 174H324C322.343 174 321 172.657 321 171V127Z" fill="#1E73FF"/>
<path d="M349.7 154.667H341.574V153.281L345.6 148.889C346.181 148.242 346.593 147.702 346.836 147.271C347.085 146.834 347.21 146.396 347.21 145.959C347.21 145.384 347.047 144.919 346.72 144.565C346.399 144.211 345.965 144.033 345.417 144.033C344.764 144.033 344.258 144.233 343.898 144.631C343.538 145.03 343.358 145.575 343.358 146.266H341.341C341.341 145.53 341.507 144.869 341.839 144.282C342.177 143.69 342.656 143.231 343.275 142.905C343.901 142.578 344.62 142.415 345.434 142.415C346.607 142.415 347.531 142.711 348.206 143.303C348.887 143.89 349.227 144.703 349.227 145.743C349.227 146.347 349.056 146.98 348.712 147.644C348.375 148.303 347.819 149.053 347.044 149.894L344.089 153.056H349.7V154.667Z" fill="white"/>
</g>
<g opacity="0.8">
<path d="M381 127C381 125.343 382.343 124 384 124H428C429.657 124 431 125.343 431 127V171C431 172.657 429.657 174 428 174H384C382.343 174 381 172.657 381 171V127Z" fill="#B72DF8"/>
<path d="M407.036 154.667H405.027V144.963L402.063 145.976V144.274L406.778 142.539H407.036V154.667Z" fill="white"/>
</g>
<rect x="479" y="43" width="212" height="212" rx="5" fill="#F7F7F7" stroke="#AAAAAA" stroke-width="2" stroke-dasharray="6 4"/>
<g opacity="0.8">
<path d="M560 67C560 65.3431 561.343 64 563 64H607C608.657 64 610 65.3431 610 67V111C610 112.657 608.657 114 607 114H563C561.343 114 560 112.657 560 111V67Z" fill="#B72DF8"/>
<path d="M586.036 94.6667H584.027V84.9631L581.063 85.9758V84.2742L585.778 82.5393H586.036V94.6667Z" fill="white"/>
</g>
<g opacity="0.8">
<path d="M560 127C560 125.343 561.343 124 563 124H607C608.657 124 610 125.343 610 127V171C610 172.657 608.657 174 607 174H563C561.343 174 560 172.657 560 171V127Z" fill="#1E73FF"/>
<path d="M588.7 154.667H580.574V153.281L584.6 148.889C585.181 148.242 585.593 147.702 585.836 147.271C586.085 146.834 586.21 146.396 586.21 145.959C586.21 145.384 586.047 144.919 585.72 144.565C585.399 144.211 584.965 144.033 584.417 144.033C583.764 144.033 583.258 144.233 582.898 144.631C582.538 145.03 582.358 145.575 582.358 146.266H580.341C580.341 145.53 580.507 144.869 580.839 144.282C581.177 143.69 581.656 143.231 582.275 142.905C582.901 142.578 583.62 142.415 584.434 142.415C585.607 142.415 586.531 142.711 587.206 143.303C587.887 143.89 588.227 144.703 588.227 145.743C588.227 146.347 588.056 146.98 587.712 147.644C587.375 148.303 586.819 149.053 586.044 149.894L583.089 153.056H588.7V154.667Z" fill="white"/>
</g>
<g opacity="0.8">
<path d="M560 187C560 185.343 561.343 184 563 184H607C608.657 184 610 185.343 610 187V231C610 232.657 608.657 234 607 234H563C561.343 234 560 232.657 560 231V187Z" fill="#00986B"/>
<path d="M582.906 207.702H584.135C584.755 207.697 585.244 207.536 585.604 207.221C585.969 206.906 586.152 206.449 586.152 205.851C586.152 205.276 586 204.83 585.695 204.515C585.396 204.194 584.937 204.033 584.317 204.033C583.775 204.033 583.33 204.191 582.981 204.507C582.632 204.816 582.458 205.223 582.458 205.727H580.441C580.441 205.107 580.604 204.543 580.931 204.033C581.263 203.524 581.722 203.129 582.309 202.846C582.901 202.559 583.562 202.415 584.292 202.415C585.499 202.415 586.445 202.719 587.131 203.328C587.823 203.931 588.169 204.772 588.169 205.851C588.169 206.394 587.995 206.906 587.646 207.387C587.303 207.863 586.857 208.223 586.31 208.466C586.974 208.693 587.477 209.05 587.82 209.537C588.169 210.024 588.343 210.605 588.343 211.28C588.343 212.365 587.97 213.228 587.223 213.87C586.481 214.512 585.504 214.833 584.292 214.833C583.13 214.833 582.179 214.523 581.437 213.903C580.695 213.283 580.325 212.459 580.325 211.429H582.342C582.342 211.961 582.519 212.392 582.873 212.724C583.233 213.056 583.714 213.222 584.317 213.222C584.943 213.222 585.435 213.056 585.795 212.724C586.155 212.392 586.334 211.911 586.334 211.28C586.334 210.644 586.146 210.154 585.77 209.811C585.394 209.468 584.835 209.296 584.093 209.296H582.906V207.702Z" fill="white"/>
</g>
<path d="M766.876 13.6929C766.5 13.8368 766.112 13.9419 765.714 14.0083C765.321 14.0802 764.914 14.1162 764.494 14.1162C763.177 14.1162 762.161 13.7593 761.447 13.0454C760.739 12.3315 760.385 11.2884 760.385 9.91602C760.385 9.25749 760.487 8.65983 760.692 8.12305C760.897 7.58626 761.184 7.12695 761.555 6.74512C761.926 6.36328 762.369 6.06999 762.883 5.86523C763.398 5.65495 763.965 5.5498 764.585 5.5498C765.017 5.5498 765.421 5.58024 765.797 5.64111C766.173 5.70199 766.533 5.8016 766.876 5.93994V7.31787C766.516 7.12972 766.148 6.99414 765.772 6.91113C765.401 6.82259 765.017 6.77832 764.618 6.77832C764.247 6.77832 763.896 6.85026 763.564 6.99414C763.237 7.13249 762.95 7.33447 762.701 7.6001C762.452 7.86572 762.255 8.18945 762.111 8.57129C761.967 8.95312 761.896 9.38477 761.896 9.86621C761.896 10.8734 762.139 11.6287 762.626 12.1323C763.118 12.6304 763.799 12.8794 764.668 12.8794C765.061 12.8794 765.44 12.8351 765.805 12.7466C766.176 12.658 766.533 12.5252 766.876 12.3481V13.6929ZM777.003 9.7666C777.003 10.4141 776.912 11.009 776.729 11.5513C776.546 12.0881 776.284 12.5501 775.94 12.9375C775.597 13.3193 775.18 13.6182 774.687 13.834C774.194 14.0443 773.636 14.1494 773.01 14.1494C772.413 14.1494 771.876 14.0581 771.4 13.8755C770.93 13.6873 770.528 13.4134 770.196 13.0537C769.87 12.694 769.618 12.2485 769.441 11.7173C769.269 11.186 769.184 10.5745 769.184 9.88281C769.184 9.23535 769.275 8.646 769.458 8.11475C769.64 7.57796 769.903 7.11865 770.246 6.73682C770.589 6.34945 771.007 6.05062 771.5 5.84033C771.992 5.62451 772.551 5.5166 773.176 5.5166C773.774 5.5166 774.308 5.61068 774.778 5.79883C775.254 5.98145 775.655 6.2526 775.982 6.6123C776.314 6.96647 776.566 7.40918 776.737 7.94043C776.914 8.47168 777.003 9.0804 777.003 9.7666ZM775.525 9.83301C775.525 9.31836 775.467 8.87012 775.351 8.48828C775.24 8.10091 775.08 7.77995 774.87 7.52539C774.659 7.2653 774.402 7.07161 774.098 6.94434C773.799 6.81152 773.464 6.74512 773.093 6.74512C772.662 6.74512 772.291 6.83089 771.981 7.00244C771.677 7.16846 771.425 7.39258 771.226 7.6748C771.032 7.95703 770.888 8.2863 770.794 8.6626C770.705 9.03337 770.661 9.4235 770.661 9.83301C770.661 10.3477 770.716 10.7987 770.827 11.186C770.943 11.5734 771.107 11.8971 771.317 12.1572C771.527 12.4118 771.782 12.6055 772.081 12.7383C772.379 12.8656 772.717 12.9292 773.093 12.9292C773.525 12.9292 773.893 12.8462 774.197 12.6802C774.507 12.5086 774.759 12.2817 774.953 11.9995C775.152 11.7173 775.296 11.3908 775.384 11.02C775.478 10.6437 775.525 10.248 775.525 9.83301ZM781.934 3.45801H779.468V2.271H783.395V12.7964H785.876V14H779.194V12.7964H781.934V3.45801ZM795.14 14H793.845L793.795 12.6553C793.546 12.943 793.308 13.1838 793.082 13.3774C792.86 13.5656 792.639 13.7178 792.417 13.834C792.196 13.9502 791.972 14.0304 791.745 14.0747C791.524 14.1245 791.289 14.1494 791.04 14.1494C790.182 14.1494 789.534 13.8976 789.097 13.394C788.66 12.8905 788.441 12.1296 788.441 11.1113V5.66602H789.886V10.9951C789.886 12.2734 790.367 12.9126 791.33 12.9126C791.507 12.9126 791.679 12.8877 791.845 12.8379C792.016 12.7826 792.193 12.6912 792.376 12.564C792.564 12.4312 792.763 12.2541 792.974 12.0327C793.189 11.8114 793.43 11.5319 793.696 11.1943V5.66602H795.14V14ZM803.731 14V8.01514C803.731 7.75505 803.72 7.54199 803.698 7.37598C803.682 7.20996 803.651 7.07992 803.607 6.98584C803.568 6.88623 803.516 6.81706 803.449 6.77832C803.388 6.73958 803.311 6.72021 803.217 6.72021C803.106 6.72021 803.004 6.75342 802.91 6.81982C802.816 6.88623 802.713 6.99414 802.603 7.14355C802.497 7.29297 802.378 7.49219 802.246 7.74121C802.118 7.9847 801.966 8.2863 801.789 8.646V14H800.469V8.17285C800.469 7.86849 800.458 7.62223 800.436 7.43408C800.419 7.24593 800.389 7.09928 800.345 6.99414C800.306 6.889 800.253 6.81706 800.187 6.77832C800.121 6.73958 800.04 6.72021 799.946 6.72021C799.847 6.72021 799.753 6.74788 799.664 6.80322C799.576 6.85856 799.476 6.95817 799.365 7.10205C799.26 7.24593 799.141 7.44238 799.008 7.69141C798.875 7.94043 798.718 8.25863 798.535 8.646V14H797.207V5.66602H798.311L798.377 7.25146C798.521 6.93604 798.66 6.66764 798.792 6.44629C798.931 6.22493 799.072 6.04785 799.216 5.91504C799.36 5.77669 799.512 5.67708 799.672 5.61621C799.838 5.5498 800.021 5.5166 800.22 5.5166C800.668 5.5166 801.009 5.66325 801.241 5.95654C801.474 6.24984 801.59 6.70361 801.59 7.31787C801.723 7.03011 801.853 6.77555 801.98 6.5542C802.107 6.32731 802.243 6.13916 802.387 5.98975C802.536 5.8348 802.699 5.71859 802.876 5.64111C803.054 5.55811 803.258 5.5166 803.491 5.5166C804.537 5.5166 805.06 6.32178 805.06 7.93213V14H803.731ZM807.135 5.66602H808.421L808.479 7.01074C808.723 6.72298 808.958 6.48503 809.185 6.29688C809.412 6.10319 809.633 5.94824 809.849 5.83203C810.07 5.71582 810.295 5.63558 810.521 5.59131C810.748 5.5415 810.984 5.5166 811.227 5.5166C812.085 5.5166 812.732 5.77116 813.169 6.28027C813.612 6.78385 813.833 7.54476 813.833 8.56299V14H812.389V8.6792C812.389 8.0262 812.267 7.54476 812.024 7.23486C811.78 6.91943 811.418 6.76172 810.937 6.76172C810.759 6.76172 810.585 6.78939 810.414 6.84473C810.248 6.89453 810.073 6.98584 809.891 7.11865C809.708 7.24593 809.509 7.42025 809.293 7.6416C809.083 7.86296 808.845 8.13965 808.579 8.47168V14H807.135V5.66602ZM822.309 10.1567H817.345V8.79541H822.309V10.1567ZM826.168 5.66602H827.488L827.53 7.20166C828.022 6.60954 828.507 6.18066 828.982 5.91504C829.464 5.64941 829.948 5.5166 830.435 5.5166C831.298 5.5166 831.951 5.79606 832.394 6.35498C832.842 6.9139 833.05 7.74398 833.017 8.84521H831.556C831.572 8.11475 831.464 7.58626 831.232 7.25977C831.005 6.92773 830.67 6.76172 830.228 6.76172C830.034 6.76172 829.837 6.79769 829.638 6.86963C829.444 6.93604 829.243 7.04671 829.032 7.20166C828.827 7.35107 828.609 7.54476 828.376 7.78271C828.144 8.02067 827.895 8.30843 827.629 8.646V14H826.168V5.66602ZM842.214 9.39307C842.214 9.59782 842.211 9.76937 842.206 9.90771C842.2 10.0461 842.192 10.1761 842.181 10.2979H836.329C836.329 11.1501 836.567 11.8058 837.042 12.2651C837.518 12.7189 838.205 12.9458 839.101 12.9458C839.345 12.9458 839.588 12.9375 839.832 12.9209C840.075 12.8988 840.31 12.8711 840.537 12.8379C840.764 12.8047 840.98 12.7687 841.185 12.73C841.395 12.6857 841.589 12.6387 841.766 12.5889V13.7759C841.373 13.8866 840.927 13.9751 840.429 14.0415C839.937 14.1134 839.425 14.1494 838.894 14.1494C838.18 14.1494 837.565 14.0526 837.051 13.8589C836.536 13.6652 836.113 13.3857 835.781 13.0205C835.454 12.6497 835.211 12.1987 835.05 11.6675C834.895 11.1307 834.818 10.5247 834.818 9.84961C834.818 9.26302 834.901 8.70964 835.067 8.18945C835.238 7.66374 835.485 7.20443 835.806 6.81152C836.132 6.41309 836.531 6.09766 837.001 5.86523C837.471 5.63281 838.005 5.5166 838.603 5.5166C839.184 5.5166 839.699 5.60791 840.147 5.79053C840.595 5.97314 840.972 6.23324 841.276 6.5708C841.586 6.90283 841.818 7.30957 841.973 7.79102C842.134 8.26693 842.214 8.80094 842.214 9.39307ZM840.711 9.18555C840.728 8.81478 840.692 8.47721 840.604 8.17285C840.515 7.86296 840.377 7.59733 840.188 7.37598C840.006 7.15462 839.776 6.98307 839.5 6.86133C839.223 6.73405 838.902 6.67041 838.537 6.67041C838.221 6.67041 837.933 6.73128 837.673 6.85303C837.413 6.97477 837.189 7.14632 837.001 7.36768C836.813 7.58903 836.661 7.85465 836.544 8.16455C836.428 8.47445 836.356 8.81478 836.329 9.18555H840.711ZM843.741 5.66602H845.385L847.427 11.1777L847.867 12.5225L848.323 11.1445L850.349 5.66602H851.934L848.664 14H847.003L843.741 5.66602ZM860.907 9.39307C860.907 9.59782 860.904 9.76937 860.899 9.90771C860.893 10.0461 860.885 10.1761 860.874 10.2979H855.022C855.022 11.1501 855.26 11.8058 855.736 12.2651C856.212 12.7189 856.898 12.9458 857.794 12.9458C858.038 12.9458 858.281 12.9375 858.525 12.9209C858.768 12.8988 859.004 12.8711 859.23 12.8379C859.457 12.8047 859.673 12.7687 859.878 12.73C860.088 12.6857 860.282 12.6387 860.459 12.5889V13.7759C860.066 13.8866 859.621 13.9751 859.123 14.0415C858.63 14.1134 858.118 14.1494 857.587 14.1494C856.873 14.1494 856.259 14.0526 855.744 13.8589C855.229 13.6652 854.806 13.3857 854.474 13.0205C854.148 12.6497 853.904 12.1987 853.744 11.6675C853.589 11.1307 853.511 10.5247 853.511 9.84961C853.511 9.26302 853.594 8.70964 853.76 8.18945C853.932 7.66374 854.178 7.20443 854.499 6.81152C854.826 6.41309 855.224 6.09766 855.694 5.86523C856.165 5.63281 856.699 5.5166 857.296 5.5166C857.877 5.5166 858.392 5.60791 858.84 5.79053C859.289 5.97314 859.665 6.23324 859.969 6.5708C860.279 6.90283 860.512 7.30957 860.667 7.79102C860.827 8.26693 860.907 8.80094 860.907 9.39307ZM859.405 9.18555C859.421 8.81478 859.385 8.47721 859.297 8.17285C859.208 7.86296 859.07 7.59733 858.882 7.37598C858.699 7.15462 858.47 6.98307 858.193 6.86133C857.916 6.73405 857.595 6.67041 857.23 6.67041C856.915 6.67041 856.627 6.73128 856.367 6.85303C856.107 6.97477 855.882 7.14632 855.694 7.36768C855.506 7.58903 855.354 7.85465 855.238 8.16455C855.122 8.47445 855.05 8.81478 855.022 9.18555H859.405ZM863.555 5.66602H864.875L864.917 7.20166C865.409 6.60954 865.893 6.18066 866.369 5.91504C866.851 5.64941 867.335 5.5166 867.822 5.5166C868.685 5.5166 869.338 5.79606 869.781 6.35498C870.229 6.9139 870.437 7.74398 870.403 8.84521H868.942C868.959 8.11475 868.851 7.58626 868.619 7.25977C868.392 6.92773 868.057 6.76172 867.614 6.76172C867.421 6.76172 867.224 6.79769 867.025 6.86963C866.831 6.93604 866.629 7.04671 866.419 7.20166C866.214 7.35107 865.996 7.54476 865.763 7.78271C865.531 8.02067 865.282 8.30843 865.016 8.646V14H863.555V5.66602ZM879.161 11.7256C879.161 12.0189 879.111 12.2817 879.011 12.5142C878.912 12.7466 878.776 12.9541 878.604 13.1367C878.433 13.3138 878.234 13.466 878.007 13.5933C877.78 13.7205 877.536 13.8257 877.276 13.9087C877.022 13.9917 876.759 14.0526 876.488 14.0913C876.217 14.13 875.951 14.1494 875.691 14.1494C875.126 14.1494 874.606 14.1245 874.13 14.0747C873.66 14.0249 873.198 13.9447 872.744 13.834V12.5059C873.231 12.6442 873.715 12.7493 874.197 12.8213C874.678 12.8932 875.157 12.9292 875.633 12.9292C876.325 12.9292 876.836 12.8351 877.168 12.647C877.5 12.4588 877.667 12.1904 877.667 11.8418C877.667 11.6924 877.639 11.5596 877.583 11.4434C877.534 11.3216 877.44 11.2082 877.301 11.103C877.163 10.9924 876.947 10.8789 876.654 10.7627C876.366 10.6465 875.97 10.5137 875.467 10.3643C875.09 10.2536 874.742 10.1291 874.421 9.99072C874.105 9.84684 873.832 9.67806 873.599 9.48438C873.367 9.29069 873.184 9.0638 873.051 8.80371C872.918 8.54362 872.852 8.23649 872.852 7.88232C872.852 7.6499 872.905 7.39535 873.01 7.11865C873.12 6.84196 873.306 6.58464 873.566 6.34668C873.826 6.10872 874.177 5.91227 874.62 5.75732C875.063 5.59684 875.616 5.5166 876.28 5.5166C876.607 5.5166 876.969 5.53597 877.368 5.57471C877.766 5.60791 878.181 5.66878 878.613 5.75732V7.04395C878.159 6.93327 877.727 6.85303 877.318 6.80322C876.914 6.74788 876.562 6.72021 876.264 6.72021C875.904 6.72021 875.6 6.74788 875.351 6.80322C875.107 6.85856 874.908 6.93604 874.753 7.03564C874.604 7.12972 874.496 7.24316 874.429 7.37598C874.363 7.50326 874.33 7.6416 874.33 7.79102C874.33 7.94043 874.357 8.07601 874.413 8.19775C874.473 8.3195 874.581 8.43848 874.736 8.55469C874.897 8.66536 875.118 8.77881 875.4 8.89502C875.683 9.0057 876.051 9.12744 876.504 9.26025C876.997 9.40413 877.412 9.55632 877.75 9.7168C878.087 9.87174 878.361 10.0461 878.571 10.2397C878.782 10.4334 878.931 10.652 879.02 10.8955C879.114 11.139 879.161 11.4157 879.161 11.7256ZM888.947 9.39307C888.947 9.59782 888.944 9.76937 888.939 9.90771C888.933 10.0461 888.925 10.1761 888.914 10.2979H883.062C883.062 11.1501 883.3 11.8058 883.776 12.2651C884.252 12.7189 884.938 12.9458 885.834 12.9458C886.078 12.9458 886.321 12.9375 886.565 12.9209C886.808 12.8988 887.044 12.8711 887.271 12.8379C887.497 12.8047 887.713 12.7687 887.918 12.73C888.128 12.6857 888.322 12.6387 888.499 12.5889V13.7759C888.106 13.8866 887.661 13.9751 887.163 14.0415C886.67 14.1134 886.158 14.1494 885.627 14.1494C884.913 14.1494 884.299 14.0526 883.784 13.8589C883.27 13.6652 882.846 13.3857 882.514 13.0205C882.188 12.6497 881.944 12.1987 881.784 11.6675C881.629 11.1307 881.551 10.5247 881.551 9.84961C881.551 9.26302 881.634 8.70964 881.8 8.18945C881.972 7.66374 882.218 7.20443 882.539 6.81152C882.866 6.41309 883.264 6.09766 883.734 5.86523C884.205 5.63281 884.739 5.5166 885.336 5.5166C885.917 5.5166 886.432 5.60791 886.88 5.79053C887.329 5.97314 887.705 6.23324 888.009 6.5708C888.319 6.90283 888.552 7.30957 888.707 7.79102C888.867 8.26693 888.947 8.80094 888.947 9.39307ZM887.445 9.18555C887.461 8.81478 887.425 8.47721 887.337 8.17285C887.248 7.86296 887.11 7.59733 886.922 7.37598C886.739 7.15462 886.51 6.98307 886.233 6.86133C885.956 6.73405 885.635 6.67041 885.27 6.67041C884.955 6.67041 884.667 6.73128 884.407 6.85303C884.147 6.97477 883.923 7.14632 883.734 7.36768C883.546 7.58903 883.394 7.85465 883.278 8.16455C883.162 8.47445 883.09 8.81478 883.062 9.18555H887.445Z" fill="#1E73FF"/>
<path d="M565.263 13.6929C564.886 13.8368 564.499 13.9419 564.101 14.0083C563.708 14.0802 563.301 14.1162 562.88 14.1162C561.563 14.1162 560.548 13.7593 559.834 13.0454C559.126 12.3315 558.771 11.2884 558.771 9.91602C558.771 9.25749 558.874 8.65983 559.079 8.12305C559.283 7.58626 559.571 7.12695 559.942 6.74512C560.313 6.36328 560.755 6.06999 561.27 5.86523C561.785 5.65495 562.352 5.5498 562.972 5.5498C563.403 5.5498 563.807 5.58024 564.184 5.64111C564.56 5.70199 564.92 5.8016 565.263 5.93994V7.31787C564.903 7.12972 564.535 6.99414 564.159 6.91113C563.788 6.82259 563.403 6.77832 563.005 6.77832C562.634 6.77832 562.283 6.85026 561.951 6.99414C561.624 7.13249 561.336 7.33447 561.087 7.6001C560.838 7.86572 560.642 8.18945 560.498 8.57129C560.354 8.95312 560.282 9.38477 560.282 9.86621C560.282 10.8734 560.526 11.6287 561.013 12.1323C561.505 12.6304 562.186 12.8794 563.055 12.8794C563.448 12.8794 563.827 12.8351 564.192 12.7466C564.563 12.658 564.92 12.5252 565.263 12.3481V13.6929ZM575.39 9.7666C575.39 10.4141 575.298 11.009 575.116 11.5513C574.933 12.0881 574.67 12.5501 574.327 12.9375C573.984 13.3193 573.566 13.6182 573.074 13.834C572.581 14.0443 572.022 14.1494 571.397 14.1494C570.799 14.1494 570.263 14.0581 569.787 13.8755C569.316 13.6873 568.915 13.4134 568.583 13.0537C568.257 12.694 568.005 12.2485 567.828 11.7173C567.656 11.186 567.57 10.5745 567.57 9.88281C567.57 9.23535 567.662 8.646 567.844 8.11475C568.027 7.57796 568.29 7.11865 568.633 6.73682C568.976 6.34945 569.394 6.05062 569.886 5.84033C570.379 5.62451 570.938 5.5166 571.563 5.5166C572.161 5.5166 572.695 5.61068 573.165 5.79883C573.641 5.98145 574.042 6.2526 574.369 6.6123C574.701 6.96647 574.952 7.40918 575.124 7.94043C575.301 8.47168 575.39 9.0804 575.39 9.7666ZM573.912 9.83301C573.912 9.31836 573.854 8.87012 573.738 8.48828C573.627 8.10091 573.467 7.77995 573.256 7.52539C573.046 7.2653 572.789 7.07161 572.484 6.94434C572.186 6.81152 571.851 6.74512 571.48 6.74512C571.048 6.74512 570.678 6.83089 570.368 7.00244C570.063 7.16846 569.812 7.39258 569.612 7.6748C569.419 7.95703 569.275 8.2863 569.181 8.6626C569.092 9.03337 569.048 9.4235 569.048 9.83301C569.048 10.3477 569.103 10.7987 569.214 11.186C569.33 11.5734 569.493 11.8971 569.704 12.1572C569.914 12.4118 570.168 12.6055 570.467 12.7383C570.766 12.8656 571.104 12.9292 571.48 12.9292C571.912 12.9292 572.28 12.8462 572.584 12.6802C572.894 12.5086 573.146 12.2817 573.339 11.9995C573.539 11.7173 573.682 11.3908 573.771 11.02C573.865 10.6437 573.912 10.248 573.912 9.83301ZM580.32 3.45801H577.855V2.271H581.781V12.7964H584.263V14H577.581V12.7964H580.32V3.45801ZM593.527 14H592.232L592.182 12.6553C591.933 12.943 591.695 13.1838 591.468 13.3774C591.247 13.5656 591.026 13.7178 590.804 13.834C590.583 13.9502 590.359 14.0304 590.132 14.0747C589.91 14.1245 589.675 14.1494 589.426 14.1494C588.569 14.1494 587.921 13.8976 587.484 13.394C587.047 12.8905 586.828 12.1296 586.828 11.1113V5.66602H588.272V10.9951C588.272 12.2734 588.754 12.9126 589.717 12.9126C589.894 12.9126 590.065 12.8877 590.231 12.8379C590.403 12.7826 590.58 12.6912 590.763 12.564C590.951 12.4312 591.15 12.2541 591.36 12.0327C591.576 11.8114 591.817 11.5319 592.083 11.1943V5.66602H593.527V14ZM602.118 14V8.01514C602.118 7.75505 602.107 7.54199 602.085 7.37598C602.068 7.20996 602.038 7.07992 601.994 6.98584C601.955 6.88623 601.902 6.81706 601.836 6.77832C601.775 6.73958 601.698 6.72021 601.604 6.72021C601.493 6.72021 601.39 6.75342 601.296 6.81982C601.202 6.88623 601.1 6.99414 600.989 7.14355C600.884 7.29297 600.765 7.49219 600.632 7.74121C600.505 7.9847 600.353 8.2863 600.176 8.646V14H598.856V8.17285C598.856 7.86849 598.845 7.62223 598.823 7.43408C598.806 7.24593 598.776 7.09928 598.731 6.99414C598.693 6.889 598.64 6.81706 598.574 6.77832C598.507 6.73958 598.427 6.72021 598.333 6.72021C598.233 6.72021 598.139 6.74788 598.051 6.80322C597.962 6.85856 597.863 6.95817 597.752 7.10205C597.647 7.24593 597.528 7.44238 597.395 7.69141C597.262 7.94043 597.104 8.25863 596.922 8.646V14H595.594V5.66602H596.698L596.764 7.25146C596.908 6.93604 597.046 6.66764 597.179 6.44629C597.318 6.22493 597.459 6.04785 597.603 5.91504C597.746 5.77669 597.899 5.67708 598.059 5.61621C598.225 5.5498 598.408 5.5166 598.607 5.5166C599.055 5.5166 599.396 5.66325 599.628 5.95654C599.86 6.24984 599.977 6.70361 599.977 7.31787C600.109 7.03011 600.239 6.77555 600.367 6.5542C600.494 6.32731 600.63 6.13916 600.773 5.98975C600.923 5.8348 601.086 5.71859 601.263 5.64111C601.44 5.55811 601.645 5.5166 601.877 5.5166C602.923 5.5166 603.446 6.32178 603.446 7.93213V14H602.118ZM605.521 5.66602H606.808L606.866 7.01074C607.11 6.72298 607.345 6.48503 607.572 6.29688C607.799 6.10319 608.02 5.94824 608.236 5.83203C608.457 5.71582 608.681 5.63558 608.908 5.59131C609.135 5.5415 609.37 5.5166 609.614 5.5166C610.472 5.5166 611.119 5.77116 611.556 6.28027C611.999 6.78385 612.22 7.54476 612.22 8.56299V14H610.776V8.6792C610.776 8.0262 610.654 7.54476 610.411 7.23486C610.167 6.91943 609.805 6.76172 609.323 6.76172C609.146 6.76172 608.972 6.78939 608.8 6.84473C608.634 6.89453 608.46 6.98584 608.277 7.11865C608.095 7.24593 607.896 7.42025 607.68 7.6416C607.469 7.86296 607.231 8.13965 606.966 8.47168V14H605.521V5.66602Z" fill="#1E73FF"/>
<rect x="718" y="43" width="212" height="212" rx="5" fill="#F7F7F7" stroke="#AAAAAA" stroke-width="2" stroke-dasharray="6 4"/>
<g opacity="0.8">
<path d="M799 67C799 65.3431 800.343 64 802 64H846C847.657 64 849 65.3431 849 67V111C849 112.657 847.657 114 846 114H802C800.343 114 799 112.657 799 111V67Z" fill="#00986B"/>
<path d="M821.906 87.7024H823.135C823.755 87.6969 824.244 87.5364 824.604 87.2209C824.969 86.9055 825.152 86.449 825.152 85.8513C825.152 85.2758 825 84.8303 824.695 84.5149C824.396 84.1939 823.937 84.0334 823.317 84.0334C822.775 84.0334 822.33 84.1912 821.981 84.5066C821.632 84.8165 821.458 85.2232 821.458 85.7268H819.441C819.441 85.107 819.604 84.5426 819.931 84.0334C820.263 83.5243 820.722 83.1287 821.309 82.8464C821.901 82.5587 822.562 82.4148 823.292 82.4148C824.499 82.4148 825.445 82.7192 826.131 83.3279C826.823 83.9311 827.169 84.7722 827.169 85.8513C827.169 86.3936 826.995 86.9055 826.646 87.387C826.303 87.8629 825.857 88.2226 825.31 88.4661C825.974 88.693 826.477 89.0499 826.82 89.5369C827.169 90.0238 827.343 90.6049 827.343 91.28C827.343 92.3647 826.97 93.2279 826.223 93.8699C825.481 94.5118 824.504 94.8328 823.292 94.8328C822.13 94.8328 821.179 94.5229 820.437 93.9031C819.695 93.2833 819.325 92.4587 819.325 91.4294H821.342C821.342 91.9607 821.519 92.3923 821.873 92.7244C822.233 93.0564 822.714 93.2224 823.317 93.2224C823.943 93.2224 824.435 93.0564 824.795 92.7244C825.155 92.3923 825.334 91.9109 825.334 91.28C825.334 90.6436 825.146 90.1539 824.77 89.8108C824.394 89.4677 823.835 89.2961 823.093 89.2961H821.906V87.7024Z" fill="white"/>
</g>
<g opacity="0.8">
<path d="M799 127C799 125.343 800.343 124 802 124H846C847.657 124 849 125.343 849 127V171C849 172.657 847.657 174 846 174H802C800.343 174 799 172.657 799 171V127Z" fill="#1E73FF"/>
<path d="M827.7 154.667H819.574V153.281L823.6 148.889C824.181 148.242 824.593 147.702 824.836 147.271C825.085 146.834 825.21 146.396 825.21 145.959C825.21 145.384 825.047 144.919 824.72 144.565C824.399 144.211 823.965 144.033 823.417 144.033C822.764 144.033 822.258 144.233 821.898 144.631C821.538 145.03 821.358 145.575 821.358 146.266H819.341C819.341 145.53 819.507 144.869 819.839 144.282C820.177 143.69 820.656 143.231 821.275 142.905C821.901 142.578 822.62 142.415 823.434 142.415C824.607 142.415 825.531 142.711 826.206 143.303C826.887 143.89 827.227 144.703 827.227 145.743C827.227 146.347 827.056 146.98 826.712 147.644C826.375 148.303 825.819 149.053 825.044 149.894L822.089 153.056H827.7V154.667Z" fill="white"/>
</g>
<g opacity="0.8">
<path d="M799 187C799 185.343 800.343 184 802 184H846C847.657 184 849 185.343 849 187V231C849 232.657 847.657 234 846 234H802C800.343 234 799 232.657 799 231V187Z" fill="#B72DF8"/>
<path d="M825.036 214.667H823.027V204.963L820.063 205.976V204.274L824.778 202.539H825.036V214.667Z" fill="white"/>
</g>
<rect x="2" y="288" width="210" height="126" fill="white" stroke="#666666" stroke-width="4"/>
<rect x="20" y="290" width="174" height="20" fill="#DDDDDD"/>
<rect opacity="0.8" x="20" y="320" width="20" height="92" fill="#B72DF8"/>
<rect opacity="0.8" x="50" y="320" width="87" height="92" fill="#1E73FF"/>
<rect opacity="0.8" x="147" y="320" width="47" height="92" fill="#00986B"/>
<rect x="241" y="288" width="210" height="126" fill="white" stroke="#666666" stroke-width="4"/>
<rect x="259" y="290" width="174" height="20" fill="#DDDDDD"/>
<rect opacity="0.8" width="20" height="92" transform="matrix(-1 0 0 1 433 320)" fill="#B72DF8"/>
<rect opacity="0.8" width="87" height="92" transform="matrix(-1 0 0 1 403 320)" fill="#1E73FF"/>
<rect opacity="0.8" x="259" y="320" width="47" height="92" fill="#00986B"/>
<path d="M95.1484 5.66602H96.4683L96.5098 7.20166C97.0023 6.60954 97.4865 6.18066 97.9624 5.91504C98.4438 5.64941 98.9281 5.5166 99.415 5.5166C100.278 5.5166 100.931 5.79606 101.374 6.35498C101.822 6.9139 102.03 7.74398 101.997 8.84521H100.536C100.552 8.11475 100.444 7.58626 100.212 7.25977C99.985 6.92773 99.6502 6.76172 99.2075 6.76172C99.0138 6.76172 98.8174 6.79769 98.6182 6.86963C98.4245 6.93604 98.2225 7.04671 98.0122 7.20166C97.8075 7.35107 97.5889 7.54476 97.3564 7.78271C97.124 8.02067 96.875 8.30843 96.6094 8.646V14H95.1484V5.66602ZM111.41 9.7666C111.41 10.4141 111.318 11.009 111.136 11.5513C110.953 12.0881 110.69 12.5501 110.347 12.9375C110.004 13.3193 109.586 13.6182 109.094 13.834C108.601 14.0443 108.042 14.1494 107.417 14.1494C106.819 14.1494 106.283 14.0581 105.807 13.8755C105.336 13.6873 104.935 13.4134 104.603 13.0537C104.277 12.694 104.025 12.2485 103.848 11.7173C103.676 11.186 103.59 10.5745 103.59 9.88281C103.59 9.23535 103.682 8.646 103.864 8.11475C104.047 7.57796 104.31 7.11865 104.653 6.73682C104.996 6.34945 105.414 6.05062 105.906 5.84033C106.399 5.62451 106.958 5.5166 107.583 5.5166C108.181 5.5166 108.715 5.61068 109.185 5.79883C109.661 5.98145 110.062 6.2526 110.389 6.6123C110.721 6.96647 110.972 7.40918 111.144 7.94043C111.321 8.47168 111.41 9.0804 111.41 9.7666ZM109.932 9.83301C109.932 9.31836 109.874 8.87012 109.758 8.48828C109.647 8.10091 109.487 7.77995 109.276 7.52539C109.066 7.2653 108.809 7.07161 108.504 6.94434C108.206 6.81152 107.871 6.74512 107.5 6.74512C107.068 6.74512 106.698 6.83089 106.388 7.00244C106.083 7.16846 105.832 7.39258 105.632 7.6748C105.439 7.95703 105.295 8.2863 105.201 8.6626C105.112 9.03337 105.068 9.4235 105.068 9.83301C105.068 10.3477 105.123 10.7987 105.234 11.186C105.35 11.5734 105.513 11.8971 105.724 12.1572C105.934 12.4118 106.188 12.6055 106.487 12.7383C106.786 12.8656 107.124 12.9292 107.5 12.9292C107.932 12.9292 108.3 12.8462 108.604 12.6802C108.914 12.5086 109.166 12.2817 109.359 11.9995C109.559 11.7173 109.702 11.3908 109.791 11.02C109.885 10.6437 109.932 10.248 109.932 9.83301ZM121.221 5.66602L120.009 14H118.258L117.054 10.5137L116.813 9.66699L116.54 10.5635L115.386 14H113.684L112.48 5.66602H113.892L114.589 11.3271L114.738 12.5889L115.095 11.4849L116.307 7.74121H117.345L118.648 11.4351L119.021 12.5391L119.146 11.3687L119.793 5.66602H121.221Z" fill="#1E73FF"/>
<path d="M296.762 5.66602H298.082L298.123 7.20166C298.616 6.60954 299.1 6.18066 299.576 5.91504C300.057 5.64941 300.541 5.5166 301.028 5.5166C301.892 5.5166 302.545 5.79606 302.987 6.35498C303.436 6.9139 303.643 7.74398 303.61 8.84521H302.149C302.166 8.11475 302.058 7.58626 301.825 7.25977C301.598 6.92773 301.264 6.76172 300.821 6.76172C300.627 6.76172 300.431 6.79769 300.231 6.86963C300.038 6.93604 299.836 7.04671 299.625 7.20166C299.421 7.35107 299.202 7.54476 298.97 7.78271C298.737 8.02067 298.488 8.30843 298.223 8.646V14H296.762V5.66602ZM313.023 9.7666C313.023 10.4141 312.932 11.009 312.749 11.5513C312.566 12.0881 312.304 12.5501 311.96 12.9375C311.617 13.3193 311.2 13.6182 310.707 13.834C310.215 14.0443 309.656 14.1494 309.03 14.1494C308.433 14.1494 307.896 14.0581 307.42 13.8755C306.95 13.6873 306.548 13.4134 306.216 13.0537C305.89 12.694 305.638 12.2485 305.461 11.7173C305.289 11.186 305.204 10.5745 305.204 9.88281C305.204 9.23535 305.295 8.646 305.478 8.11475C305.66 7.57796 305.923 7.11865 306.266 6.73682C306.609 6.34945 307.027 6.05062 307.52 5.84033C308.012 5.62451 308.571 5.5166 309.196 5.5166C309.794 5.5166 310.328 5.61068 310.798 5.79883C311.274 5.98145 311.675 6.2526 312.002 6.6123C312.334 6.96647 312.586 7.40918 312.757 7.94043C312.934 8.47168 313.023 9.0804 313.023 9.7666ZM311.545 9.83301C311.545 9.31836 311.487 8.87012 311.371 8.48828C311.26 8.10091 311.1 7.77995 310.89 7.52539C310.679 7.2653 310.422 7.07161 310.118 6.94434C309.819 6.81152 309.484 6.74512 309.113 6.74512C308.682 6.74512 308.311 6.83089 308.001 7.00244C307.697 7.16846 307.445 7.39258 307.246 7.6748C307.052 7.95703 306.908 8.2863 306.814 8.6626C306.725 9.03337 306.681 9.4235 306.681 9.83301C306.681 10.3477 306.736 10.7987 306.847 11.186C306.963 11.5734 307.127 11.8971 307.337 12.1572C307.547 12.4118 307.802 12.6055 308.101 12.7383C308.399 12.8656 308.737 12.9292 309.113 12.9292C309.545 12.9292 309.913 12.8462 310.217 12.6802C310.527 12.5086 310.779 12.2817 310.973 11.9995C311.172 11.7173 311.316 11.3908 311.404 11.02C311.498 10.6437 311.545 10.248 311.545 9.83301ZM322.834 5.66602L321.623 14H319.871L318.667 10.5137L318.427 9.66699L318.153 10.5635L316.999 14H315.297L314.094 5.66602H315.505L316.202 11.3271L316.352 12.5889L316.708 11.4849L317.92 7.74121H318.958L320.261 11.4351L320.635 12.5391L320.759 11.3687L321.407 5.66602H322.834ZM330.289 10.1567H325.325V8.79541H330.289V10.1567ZM334.148 5.66602H335.468L335.51 7.20166C336.002 6.60954 336.486 6.18066 336.962 5.91504C337.444 5.64941 337.928 5.5166 338.415 5.5166C339.278 5.5166 339.931 5.79606 340.374 6.35498C340.822 6.9139 341.03 7.74398 340.997 8.84521H339.536C339.552 8.11475 339.444 7.58626 339.212 7.25977C338.985 6.92773 338.65 6.76172 338.208 6.76172C338.014 6.76172 337.817 6.79769 337.618 6.86963C337.424 6.93604 337.222 7.04671 337.012 7.20166C336.807 7.35107 336.589 7.54476 336.356 7.78271C336.124 8.02067 335.875 8.30843 335.609 8.646V14H334.148V5.66602ZM350.194 9.39307C350.194 9.59782 350.191 9.76937 350.186 9.90771C350.18 10.0461 350.172 10.1761 350.161 10.2979H344.309C344.309 11.1501 344.547 11.8058 345.022 12.2651C345.498 12.7189 346.185 12.9458 347.081 12.9458C347.325 12.9458 347.568 12.9375 347.812 12.9209C348.055 12.8988 348.29 12.8711 348.517 12.8379C348.744 12.8047 348.96 12.7687 349.165 12.73C349.375 12.6857 349.569 12.6387 349.746 12.5889V13.7759C349.353 13.8866 348.907 13.9751 348.409 14.0415C347.917 14.1134 347.405 14.1494 346.874 14.1494C346.16 14.1494 345.545 14.0526 345.031 13.8589C344.516 13.6652 344.093 13.3857 343.761 13.0205C343.434 12.6497 343.191 12.1987 343.03 11.6675C342.875 11.1307 342.798 10.5247 342.798 9.84961C342.798 9.26302 342.881 8.70964 343.047 8.18945C343.218 7.66374 343.465 7.20443 343.786 6.81152C344.112 6.41309 344.511 6.09766 344.981 5.86523C345.451 5.63281 345.985 5.5166 346.583 5.5166C347.164 5.5166 347.679 5.60791 348.127 5.79053C348.575 5.97314 348.951 6.23324 349.256 6.5708C349.566 6.90283 349.798 7.30957 349.953 7.79102C350.114 8.26693 350.194 8.80094 350.194 9.39307ZM348.691 9.18555C348.708 8.81478 348.672 8.47721 348.583 8.17285C348.495 7.86296 348.357 7.59733 348.168 7.37598C347.986 7.15462 347.756 6.98307 347.479 6.86133C347.203 6.73405 346.882 6.67041 346.517 6.67041C346.201 6.67041 345.913 6.73128 345.653 6.85303C345.393 6.97477 345.169 7.14632 344.981 7.36768C344.793 7.58903 344.641 7.85465 344.524 8.16455C344.408 8.47445 344.336 8.81478 344.309 9.18555H348.691ZM351.721 5.66602H353.365L355.407 11.1777L355.847 12.5225L356.303 11.1445L358.329 5.66602H359.914L356.644 14H354.983L351.721 5.66602ZM368.887 9.39307C368.887 9.59782 368.884 9.76937 368.879 9.90771C368.873 10.0461 368.865 10.1761 368.854 10.2979H363.002C363.002 11.1501 363.24 11.8058 363.716 12.2651C364.192 12.7189 364.878 12.9458 365.774 12.9458C366.018 12.9458 366.261 12.9375 366.505 12.9209C366.748 12.8988 366.984 12.8711 367.21 12.8379C367.437 12.8047 367.653 12.7687 367.858 12.73C368.068 12.6857 368.262 12.6387 368.439 12.5889V13.7759C368.046 13.8866 367.601 13.9751 367.103 14.0415C366.61 14.1134 366.098 14.1494 365.567 14.1494C364.853 14.1494 364.239 14.0526 363.724 13.8589C363.209 13.6652 362.786 13.3857 362.454 13.0205C362.128 12.6497 361.884 12.1987 361.724 11.6675C361.569 11.1307 361.491 10.5247 361.491 9.84961C361.491 9.26302 361.574 8.70964 361.74 8.18945C361.912 7.66374 362.158 7.20443 362.479 6.81152C362.806 6.41309 363.204 6.09766 363.674 5.86523C364.145 5.63281 364.679 5.5166 365.276 5.5166C365.857 5.5166 366.372 5.60791 366.82 5.79053C367.269 5.97314 367.645 6.23324 367.949 6.5708C368.259 6.90283 368.492 7.30957 368.646 7.79102C368.807 8.26693 368.887 8.80094 368.887 9.39307ZM367.385 9.18555C367.401 8.81478 367.365 8.47721 367.277 8.17285C367.188 7.86296 367.05 7.59733 366.862 7.37598C366.679 7.15462 366.45 6.98307 366.173 6.86133C365.896 6.73405 365.575 6.67041 365.21 6.67041C364.895 6.67041 364.607 6.73128 364.347 6.85303C364.087 6.97477 363.862 7.14632 363.674 7.36768C363.486 7.58903 363.334 7.85465 363.218 8.16455C363.102 8.47445 363.03 8.81478 363.002 9.18555H367.385ZM371.535 5.66602H372.855L372.896 7.20166C373.389 6.60954 373.873 6.18066 374.349 5.91504C374.831 5.64941 375.315 5.5166 375.802 5.5166C376.665 5.5166 377.318 5.79606 377.761 6.35498C378.209 6.9139 378.417 7.74398 378.383 8.84521H376.922C376.939 8.11475 376.831 7.58626 376.599 7.25977C376.372 6.92773 376.037 6.76172 375.594 6.76172C375.401 6.76172 375.204 6.79769 375.005 6.86963C374.811 6.93604 374.609 7.04671 374.399 7.20166C374.194 7.35107 373.976 7.54476 373.743 7.78271C373.511 8.02067 373.262 8.30843 372.996 8.646V14H371.535V5.66602ZM387.141 11.7256C387.141 12.0189 387.091 12.2817 386.991 12.5142C386.892 12.7466 386.756 12.9541 386.584 13.1367C386.413 13.3138 386.214 13.466 385.987 13.5933C385.76 13.7205 385.516 13.8257 385.256 13.9087C385.002 13.9917 384.739 14.0526 384.468 14.0913C384.197 14.13 383.931 14.1494 383.671 14.1494C383.106 14.1494 382.586 14.1245 382.11 14.0747C381.64 14.0249 381.178 13.9447 380.724 13.834V12.5059C381.211 12.6442 381.695 12.7493 382.177 12.8213C382.658 12.8932 383.137 12.9292 383.613 12.9292C384.305 12.9292 384.816 12.8351 385.148 12.647C385.48 12.4588 385.646 12.1904 385.646 11.8418C385.646 11.6924 385.619 11.5596 385.563 11.4434C385.514 11.3216 385.42 11.2082 385.281 11.103C385.143 10.9924 384.927 10.8789 384.634 10.7627C384.346 10.6465 383.95 10.5137 383.447 10.3643C383.07 10.2536 382.722 10.1291 382.401 9.99072C382.085 9.84684 381.812 9.67806 381.579 9.48438C381.347 9.29069 381.164 9.0638 381.031 8.80371C380.898 8.54362 380.832 8.23649 380.832 7.88232C380.832 7.6499 380.885 7.39535 380.99 7.11865C381.1 6.84196 381.286 6.58464 381.546 6.34668C381.806 6.10872 382.157 5.91227 382.6 5.75732C383.043 5.59684 383.596 5.5166 384.26 5.5166C384.587 5.5166 384.949 5.53597 385.348 5.57471C385.746 5.60791 386.161 5.66878 386.593 5.75732V7.04395C386.139 6.93327 385.707 6.85303 385.298 6.80322C384.894 6.74788 384.542 6.72021 384.244 6.72021C383.884 6.72021 383.58 6.74788 383.331 6.80322C383.087 6.85856 382.888 6.93604 382.733 7.03564C382.583 7.12972 382.476 7.24316 382.409 7.37598C382.343 7.50326 382.31 7.6416 382.31 7.79102C382.31 7.94043 382.337 8.07601 382.393 8.19775C382.453 8.3195 382.561 8.43848 382.716 8.55469C382.877 8.66536 383.098 8.77881 383.38 8.89502C383.663 9.0057 384.031 9.12744 384.484 9.26025C384.977 9.40413 385.392 9.55632 385.729 9.7168C386.067 9.87174 386.341 10.0461 386.551 10.2397C386.762 10.4334 386.911 10.652 387 10.8955C387.094 11.139 387.141 11.4157 387.141 11.7256ZM396.927 9.39307C396.927 9.59782 396.924 9.76937 396.919 9.90771C396.913 10.0461 396.905 10.1761 396.894 10.2979H391.042C391.042 11.1501 391.28 11.8058 391.756 12.2651C392.232 12.7189 392.918 12.9458 393.814 12.9458C394.058 12.9458 394.301 12.9375 394.545 12.9209C394.788 12.8988 395.024 12.8711 395.25 12.8379C395.477 12.8047 395.693 12.7687 395.898 12.73C396.108 12.6857 396.302 12.6387 396.479 12.5889V13.7759C396.086 13.8866 395.641 13.9751 395.143 14.0415C394.65 14.1134 394.138 14.1494 393.607 14.1494C392.893 14.1494 392.279 14.0526 391.764 13.8589C391.25 13.6652 390.826 13.3857 390.494 13.0205C390.168 12.6497 389.924 12.1987 389.764 11.6675C389.609 11.1307 389.531 10.5247 389.531 9.84961C389.531 9.26302 389.614 8.70964 389.78 8.18945C389.952 7.66374 390.198 7.20443 390.519 6.81152C390.846 6.41309 391.244 6.09766 391.714 5.86523C392.185 5.63281 392.719 5.5166 393.316 5.5166C393.897 5.5166 394.412 5.60791 394.86 5.79053C395.309 5.97314 395.685 6.23324 395.989 6.5708C396.299 6.90283 396.532 7.30957 396.687 7.79102C396.847 8.26693 396.927 8.80094 396.927 9.39307ZM395.425 9.18555C395.441 8.81478 395.405 8.47721 395.317 8.17285C395.228 7.86296 395.09 7.59733 394.902 7.37598C394.719 7.15462 394.49 6.98307 394.213 6.86133C393.936 6.73405 393.615 6.67041 393.25 6.67041C392.935 6.67041 392.647 6.73128 392.387 6.85303C392.127 6.97477 391.903 7.14632 391.714 7.36768C391.526 7.58903 391.374 7.85465 391.258 8.16455C391.142 8.47445 391.07 8.81478 391.042 9.18555H395.425Z" fill="#1E73FF"/>
<rect x="498" y="288" width="174" height="20" fill="#DDDDDD"/>
<rect opacity="0.8" x="498" y="318" width="174" height="20" fill="#B72DF8"/>
<rect opacity="0.8" x="498" y="348" width="174" height="92" fill="#1E73FF"/>
<rect opacity="0.8" x="498" y="451" width="174" height="47" fill="#00986B"/>
<path fill-rule="evenodd" clip-rule="evenodd" d="M688 290H482V412H688V290ZM478 286V416H692V286H478Z" fill="#444444"/>
<rect x="737" y="288" width="174" height="20" fill="#DDDDDD"/>
<rect opacity="0.8" width="174" height="20" transform="matrix(1 0 0 -1 737 498)" fill="#B72DF8"/>
<rect opacity="0.8" width="174" height="92" transform="matrix(1 0 0 -1 737 468)" fill="#1E73FF"/>
<rect opacity="0.8" width="174" height="47" transform="matrix(1 0 0 -1 737 365)" fill="#00986B"/>
<path fill-rule="evenodd" clip-rule="evenodd" d="M927 290H721V412H927V290ZM717 286V416H931V286H717Z" fill="#444444"/>
</svg>
