<svg width="931" height="538" viewBox="0 0 931 538" fill="none" xmlns="http://www.w3.org/2000/svg">
<rect x="1" y="1" width="212" height="212" rx="9" fill="white" stroke="#001EBB" stroke-width="2"/>
<g filter="url(#filter0_d)">
<rect x="20" y="82" width="50" height="50" rx="6" fill="#B72DF8"/>
<rect x="21" y="83" width="48" height="48" rx="5" stroke="#001EBB" stroke-width="2"/>
</g>
<path d="M47.6357 113.5H44.665V104.043L41.7471 104.896V102.646L47.3633 100.703H47.6357V113.5Z" fill="white"/>
<g filter="url(#filter1_d)">
<rect x="82" y="82" width="50" height="50" rx="6" fill="#1E73FF"/>
<rect x="83" y="83" width="48" height="48" rx="5" stroke="#001EBB" stroke-width="2"/>
</g>
<path d="M112 113.5H103.07V111.566L107.184 107.242C108.197 106.088 108.704 105.171 108.704 104.491C108.704 103.94 108.584 103.521 108.344 103.234C108.104 102.947 107.755 102.804 107.298 102.804C106.847 102.804 106.48 102.997 106.199 103.384C105.918 103.765 105.777 104.242 105.777 104.816H102.807C102.807 104.031 103.003 103.308 103.396 102.646C103.788 101.978 104.333 101.456 105.03 101.081C105.728 100.706 106.507 100.519 107.368 100.519C108.751 100.519 109.814 100.838 110.559 101.477C111.309 102.115 111.684 103.032 111.684 104.228C111.684 104.731 111.59 105.224 111.402 105.704C111.215 106.179 110.922 106.68 110.523 107.207C110.131 107.729 109.495 108.429 108.616 109.308L106.964 111.215H112V113.5Z" fill="white"/>
<g filter="url(#filter2_d)">
<rect x="144" y="82" width="50" height="50" rx="6" fill="#00986B"/>
<rect x="145" y="83" width="48" height="48" rx="5" stroke="#001EBB" stroke-width="2"/>
</g>
<path d="M167.777 105.862H169.175C170.282 105.862 170.836 105.32 170.836 104.236C170.836 103.814 170.704 103.472 170.44 103.208C170.177 102.938 169.805 102.804 169.324 102.804C168.932 102.804 168.589 102.918 168.296 103.146C168.009 103.375 167.865 103.659 167.865 103.999H164.903C164.903 103.325 165.091 102.725 165.466 102.197C165.841 101.67 166.359 101.26 167.021 100.967C167.689 100.668 168.422 100.519 169.219 100.519C170.643 100.519 171.762 100.844 172.576 101.494C173.391 102.145 173.798 103.038 173.798 104.175C173.798 104.726 173.628 105.247 173.288 105.739C172.954 106.226 172.465 106.621 171.82 106.926C172.5 107.172 173.033 107.547 173.42 108.051C173.807 108.549 174 109.167 174 109.905C174 111.048 173.561 111.962 172.682 112.647C171.803 113.333 170.648 113.676 169.219 113.676C168.381 113.676 167.602 113.518 166.881 113.201C166.166 112.879 165.624 112.437 165.255 111.874C164.886 111.306 164.701 110.661 164.701 109.94H167.681C167.681 110.333 167.839 110.673 168.155 110.96C168.472 111.247 168.861 111.391 169.324 111.391C169.846 111.391 170.262 111.247 170.572 110.96C170.883 110.667 171.038 110.295 171.038 109.844C171.038 109.199 170.877 108.742 170.555 108.473C170.232 108.203 169.787 108.068 169.219 108.068H167.777V105.862Z" fill="white"/>
<rect x="240" y="1" width="212" height="212" rx="9" fill="white" stroke="#001EBB" stroke-width="2"/>
<g filter="url(#filter3_d)">
<rect x="259" y="82" width="50" height="50" rx="6" fill="#00986B"/>
<rect x="260" y="83" width="48" height="48" rx="5" stroke="#001EBB" stroke-width="2"/>
</g>
<path d="M282.777 105.862H284.175C285.282 105.862 285.836 105.32 285.836 104.236C285.836 103.814 285.704 103.472 285.44 103.208C285.177 102.938 284.805 102.804 284.324 102.804C283.932 102.804 283.589 102.918 283.296 103.146C283.009 103.375 282.865 103.659 282.865 103.999H279.903C279.903 103.325 280.091 102.725 280.466 102.197C280.841 101.67 281.359 101.26 282.021 100.967C282.689 100.668 283.422 100.519 284.219 100.519C285.643 100.519 286.762 100.844 287.576 101.494C288.391 102.145 288.798 103.038 288.798 104.175C288.798 104.726 288.628 105.247 288.288 105.739C287.954 106.226 287.465 106.621 286.82 106.926C287.5 107.172 288.033 107.547 288.42 108.051C288.807 108.549 289 109.167 289 109.905C289 111.048 288.561 111.962 287.682 112.647C286.803 113.333 285.648 113.676 284.219 113.676C283.381 113.676 282.602 113.518 281.881 113.201C281.166 112.879 280.624 112.437 280.255 111.874C279.886 111.306 279.701 110.661 279.701 109.94H282.681C282.681 110.333 282.839 110.673 283.155 110.96C283.472 111.247 283.861 111.391 284.324 111.391C284.846 111.391 285.262 111.247 285.572 110.96C285.883 110.667 286.038 110.295 286.038 109.844C286.038 109.199 285.877 108.742 285.555 108.473C285.232 108.203 284.787 108.068 284.219 108.068H282.777V105.862Z" fill="white"/>
<g filter="url(#filter4_d)">
<rect x="321" y="82" width="50" height="50" rx="6" fill="#1E73FF"/>
<rect x="322" y="83" width="48" height="48" rx="5" stroke="#001EBB" stroke-width="2"/>
</g>
<path d="M351 113.5H342.07V111.566L346.184 107.242C347.197 106.088 347.704 105.171 347.704 104.491C347.704 103.94 347.584 103.521 347.344 103.234C347.104 102.947 346.755 102.804 346.298 102.804C345.847 102.804 345.48 102.997 345.199 103.384C344.918 103.765 344.777 104.242 344.777 104.816H341.807C341.807 104.031 342.003 103.308 342.396 102.646C342.788 101.978 343.333 101.456 344.03 101.081C344.728 100.706 345.507 100.519 346.368 100.519C347.751 100.519 348.814 100.838 349.559 101.477C350.309 102.115 350.684 103.032 350.684 104.228C350.684 104.731 350.59 105.224 350.402 105.704C350.215 106.179 349.922 106.68 349.523 107.207C349.131 107.729 348.495 108.429 347.616 109.308L345.964 111.215H351V113.5Z" fill="white"/>
<g filter="url(#filter5_d)">
<rect x="383" y="82" width="50" height="50" rx="6" fill="#B72DF8"/>
<rect x="384" y="83" width="48" height="48" rx="5" stroke="#001EBB" stroke-width="2"/>
</g>
<path d="M410.636 113.5H407.665V104.043L404.747 104.896V102.646L410.363 100.703H410.636V113.5Z" fill="white"/>
<rect x="479" y="1" width="212" height="212" rx="9" fill="white" stroke="#001EBB" stroke-width="2"/>
<g filter="url(#filter6_d)">
<rect x="560" y="20" width="50" height="50" rx="6" fill="#B72DF8"/>
<rect x="561" y="21" width="48" height="48" rx="5" stroke="#001EBB" stroke-width="2"/>
</g>
<path d="M587.636 51.5H584.665V42.043L581.747 42.8955V40.6455L587.363 38.7031H587.636V51.5Z" fill="white"/>
<g filter="url(#filter7_d)">
<rect x="560" y="82" width="50" height="50" rx="6" fill="#1E73FF"/>
<rect x="561" y="83" width="48" height="48" rx="5" stroke="#001EBB" stroke-width="2"/>
</g>
<path d="M590 113.5H581.07V111.566L585.184 107.242C586.197 106.088 586.704 105.171 586.704 104.491C586.704 103.94 586.584 103.521 586.344 103.234C586.104 102.947 585.755 102.804 585.298 102.804C584.847 102.804 584.48 102.997 584.199 103.384C583.918 103.765 583.777 104.242 583.777 104.816H580.807C580.807 104.031 581.003 103.308 581.396 102.646C581.788 101.978 582.333 101.456 583.03 101.081C583.728 100.706 584.507 100.519 585.368 100.519C586.751 100.519 587.814 100.838 588.559 101.477C589.309 102.115 589.684 103.032 589.684 104.228C589.684 104.731 589.59 105.224 589.402 105.704C589.215 106.179 588.922 106.68 588.523 107.207C588.131 107.729 587.495 108.429 586.616 109.308L584.964 111.215H590V113.5Z" fill="white"/>
<g filter="url(#filter8_d)">
<rect x="560" y="144" width="50" height="50" rx="6" fill="#00986B"/>
<rect x="561" y="145" width="48" height="48" rx="5" stroke="#001EBB" stroke-width="2"/>
</g>
<path d="M583.777 167.862H585.175C586.282 167.862 586.836 167.32 586.836 166.236C586.836 165.814 586.704 165.472 586.44 165.208C586.177 164.938 585.805 164.804 585.324 164.804C584.932 164.804 584.589 164.918 584.296 165.146C584.009 165.375 583.865 165.659 583.865 165.999H580.903C580.903 165.325 581.091 164.725 581.466 164.197C581.841 163.67 582.359 163.26 583.021 162.967C583.689 162.668 584.422 162.519 585.219 162.519C586.643 162.519 587.762 162.844 588.576 163.494C589.391 164.145 589.798 165.038 589.798 166.175C589.798 166.726 589.628 167.247 589.288 167.739C588.954 168.226 588.465 168.621 587.82 168.926C588.5 169.172 589.033 169.547 589.42 170.051C589.807 170.549 590 171.167 590 171.905C590 173.048 589.561 173.962 588.682 174.647C587.803 175.333 586.648 175.676 585.219 175.676C584.381 175.676 583.602 175.518 582.881 175.201C582.166 174.879 581.624 174.437 581.255 173.874C580.886 173.306 580.701 172.661 580.701 171.94H583.681C583.681 172.333 583.839 172.673 584.155 172.96C584.472 173.247 584.861 173.391 585.324 173.391C585.846 173.391 586.262 173.247 586.572 172.96C586.883 172.667 587.038 172.295 587.038 171.844C587.038 171.199 586.877 170.742 586.555 170.473C586.232 170.203 585.787 170.068 585.219 170.068H583.777V167.862Z" fill="white"/>
<path d="M752.178 290.712C752.751 290.712 753.216 290.554 753.574 290.239C753.932 289.924 754.118 289.505 754.133 288.982H757.044C757.037 289.77 756.822 290.493 756.399 291.152C755.977 291.804 755.397 292.312 754.659 292.678C753.929 293.036 753.119 293.215 752.231 293.215C750.57 293.215 749.259 292.688 748.3 291.636C747.34 290.576 746.86 289.115 746.86 287.253V287.049C746.86 285.258 747.337 283.83 748.289 282.763C749.242 281.696 750.549 281.162 752.21 281.162C753.664 281.162 754.827 281.577 755.701 282.408C756.582 283.232 757.03 284.331 757.044 285.706H754.133C754.118 285.104 753.932 284.618 753.574 284.245C753.216 283.866 752.743 283.676 752.156 283.676C751.433 283.676 750.885 283.941 750.513 284.471C750.147 284.993 749.965 285.846 749.965 287.027V287.35C749.965 288.546 750.147 289.405 750.513 289.928C750.878 290.451 751.433 290.712 752.178 290.712ZM758.333 287.081C758.333 285.928 758.555 284.9 758.999 283.998C759.443 283.096 760.08 282.397 760.911 281.903C761.749 281.409 762.719 281.162 763.822 281.162C765.391 281.162 766.669 281.642 767.657 282.602C768.653 283.561 769.208 284.865 769.322 286.512L769.344 287.307C769.344 289.09 768.846 290.522 767.851 291.604C766.855 292.678 765.52 293.215 763.844 293.215C762.168 293.215 760.829 292.678 759.826 291.604C758.831 290.529 758.333 289.068 758.333 287.221V287.081ZM761.438 287.307C761.438 288.41 761.645 289.255 762.061 289.842C762.476 290.422 763.07 290.712 763.844 290.712C764.596 290.712 765.183 290.425 765.605 289.853C766.028 289.272 766.239 288.349 766.239 287.081C766.239 286 766.028 285.162 765.605 284.567C765.183 283.973 764.589 283.676 763.822 283.676C763.063 283.676 762.476 283.973 762.061 284.567C761.645 285.155 761.438 286.068 761.438 287.307ZM774.532 293H771.417V276.5H774.532V293ZM784.061 291.818C783.294 292.749 782.234 293.215 780.881 293.215C779.635 293.215 778.682 292.857 778.023 292.141C777.372 291.424 777.039 290.375 777.024 288.993V281.377H780.129V288.886C780.129 290.096 780.68 290.701 781.783 290.701C782.836 290.701 783.559 290.336 783.953 289.605V281.377H787.068V293H784.146L784.061 291.818ZM792.321 281.377L792.418 282.677C793.242 281.667 794.355 281.162 795.759 281.162C797.256 281.162 798.283 281.753 798.842 282.935C799.658 281.753 800.822 281.162 802.333 281.162C803.593 281.162 804.532 281.531 805.147 282.269C805.763 282.999 806.071 284.102 806.071 285.577V293H802.956V285.588C802.956 284.929 802.827 284.449 802.569 284.148C802.312 283.84 801.857 283.687 801.205 283.687C800.274 283.687 799.63 284.131 799.271 285.019L799.282 293H796.178V285.599C796.178 284.925 796.045 284.438 795.78 284.138C795.515 283.837 795.064 283.687 794.427 283.687C793.546 283.687 792.909 284.052 792.515 284.782V293H789.41V281.377H792.321ZM811.324 281.377L811.421 282.72C812.252 281.681 813.365 281.162 814.762 281.162C815.993 281.162 816.91 281.524 817.512 282.247C818.113 282.97 818.421 284.052 818.436 285.491V293H815.331V285.566C815.331 284.908 815.188 284.431 814.901 284.138C814.615 283.837 814.139 283.687 813.473 283.687C812.599 283.687 811.944 284.059 811.507 284.804V293H808.402V281.377H811.324ZM826.836 287.554H820.788V285.051H826.836V287.554ZM835.859 284.288C835.437 284.231 835.064 284.202 834.742 284.202C833.568 284.202 832.798 284.6 832.433 285.395V293H829.328V281.377H832.261L832.347 282.763C832.97 281.696 833.833 281.162 834.936 281.162C835.279 281.162 835.602 281.209 835.902 281.302L835.859 284.288ZM842.498 293.215C840.794 293.215 839.404 292.692 838.33 291.646C837.263 290.601 836.729 289.208 836.729 287.468V287.167C836.729 286 836.955 284.958 837.406 284.041C837.857 283.117 838.495 282.408 839.318 281.914C840.149 281.413 841.094 281.162 842.154 281.162C843.744 281.162 844.994 281.663 845.903 282.666C846.82 283.669 847.278 285.09 847.278 286.931V288.198H839.877C839.977 288.957 840.278 289.566 840.779 290.024C841.288 290.483 841.929 290.712 842.702 290.712C843.898 290.712 844.833 290.279 845.506 289.412L847.031 291.12C846.566 291.779 845.936 292.295 845.141 292.667C844.346 293.032 843.465 293.215 842.498 293.215ZM842.144 283.676C841.528 283.676 841.026 283.883 840.64 284.299C840.26 284.714 840.017 285.309 839.909 286.082H844.228V285.835C844.213 285.147 844.027 284.618 843.669 284.245C843.311 283.866 842.802 283.676 842.144 283.676ZM853.251 289.208L855.41 281.377H858.654L854.733 293H851.769L847.848 281.377H851.092L853.251 289.208ZM865.229 293.215C863.524 293.215 862.135 292.692 861.061 291.646C859.993 290.601 859.46 289.208 859.46 287.468V287.167C859.46 286 859.686 284.958 860.137 284.041C860.588 283.117 861.225 282.408 862.049 281.914C862.88 281.413 863.825 281.162 864.885 281.162C866.475 281.162 867.724 281.663 868.634 282.666C869.55 283.669 870.009 285.09 870.009 286.931V288.198H862.607C862.708 288.957 863.008 289.566 863.51 290.024C864.018 290.483 864.659 290.712 865.433 290.712C866.629 290.712 867.563 290.279 868.236 289.412L869.762 291.12C869.296 291.779 868.666 292.295 867.871 292.667C867.076 293.032 866.195 293.215 865.229 293.215ZM864.874 283.676C864.258 283.676 863.757 283.883 863.37 284.299C862.991 284.714 862.747 285.309 862.64 286.082H866.958V285.835C866.944 285.147 866.757 284.618 866.399 284.245C866.041 283.866 865.533 283.676 864.874 283.676ZM878.312 284.288C877.89 284.231 877.518 284.202 877.195 284.202C876.021 284.202 875.251 284.6 874.886 285.395V293H871.781V281.377H874.714L874.8 282.763C875.423 281.696 876.286 281.162 877.389 281.162C877.732 281.162 878.055 281.209 878.355 281.302L878.312 284.288ZM886.111 289.788C886.111 289.409 885.922 289.111 885.542 288.896C885.17 288.674 884.568 288.478 883.737 288.306C880.973 287.726 879.591 286.551 879.591 284.782C879.591 283.751 880.017 282.892 880.869 282.204C881.729 281.509 882.849 281.162 884.231 281.162C885.707 281.162 886.885 281.509 887.766 282.204C888.654 282.899 889.098 283.801 889.098 284.911H885.993C885.993 284.467 885.85 284.102 885.563 283.815C885.277 283.522 884.829 283.375 884.221 283.375C883.698 283.375 883.293 283.493 883.007 283.729C882.72 283.966 882.577 284.267 882.577 284.632C882.577 284.976 882.738 285.255 883.061 285.47C883.39 285.677 883.941 285.86 884.715 286.018C885.488 286.168 886.14 286.34 886.67 286.533C888.31 287.135 889.13 288.177 889.13 289.659C889.13 290.719 888.675 291.578 887.766 292.237C886.856 292.889 885.682 293.215 884.242 293.215C883.268 293.215 882.402 293.043 881.643 292.699C880.891 292.348 880.3 291.872 879.87 291.271C879.44 290.662 879.226 290.007 879.226 289.305H882.169C882.198 289.856 882.402 290.279 882.781 290.572C883.161 290.866 883.669 291.013 884.307 291.013C884.901 291.013 885.349 290.902 885.649 290.68C885.957 290.451 886.111 290.153 886.111 289.788ZM896.488 293.215C894.784 293.215 893.395 292.692 892.32 291.646C891.253 290.601 890.72 289.208 890.72 287.468V287.167C890.72 286 890.945 284.958 891.396 284.041C891.848 283.117 892.485 282.408 893.309 281.914C894.139 281.413 895.085 281.162 896.145 281.162C897.734 281.162 898.984 281.663 899.894 282.666C900.81 283.669 901.269 285.09 901.269 286.931V288.198H893.867C893.967 288.957 894.268 289.566 894.77 290.024C895.278 290.483 895.919 290.712 896.692 290.712C897.888 290.712 898.823 290.279 899.496 289.412L901.021 291.12C900.556 291.779 899.926 292.295 899.131 292.667C898.336 293.032 897.455 293.215 896.488 293.215ZM896.134 283.676C895.518 283.676 895.017 283.883 894.63 284.299C894.25 284.714 894.007 285.309 893.899 286.082H898.218V285.835C898.203 285.147 898.017 284.618 897.659 284.245C897.301 283.866 896.793 283.676 896.134 283.676Z" fill="#1E73FF"/>
<path d="M554.299 290.712C554.872 290.712 555.337 290.554 555.695 290.239C556.053 289.924 556.24 289.505 556.254 288.982H559.165C559.158 289.77 558.943 290.493 558.521 291.152C558.098 291.804 557.518 292.312 556.78 292.678C556.05 293.036 555.241 293.215 554.353 293.215C552.691 293.215 551.381 292.688 550.421 291.636C549.461 290.576 548.981 289.115 548.981 287.253V287.049C548.981 285.258 549.458 283.83 550.41 282.763C551.363 281.696 552.67 281.162 554.331 281.162C555.785 281.162 556.949 281.577 557.822 282.408C558.703 283.232 559.151 284.331 559.165 285.706H556.254C556.24 285.104 556.053 284.618 555.695 284.245C555.337 283.866 554.865 283.676 554.277 283.676C553.554 283.676 553.006 283.941 552.634 284.471C552.269 284.993 552.086 285.846 552.086 287.027V287.35C552.086 288.546 552.269 289.405 552.634 289.928C552.999 290.451 553.554 290.712 554.299 290.712ZM560.454 287.081C560.454 285.928 560.676 284.9 561.12 283.998C561.564 283.096 562.201 282.397 563.032 281.903C563.87 281.409 564.84 281.162 565.943 281.162C567.512 281.162 568.79 281.642 569.778 282.602C570.774 283.561 571.329 284.865 571.443 286.512L571.465 287.307C571.465 289.09 570.967 290.522 569.972 291.604C568.976 292.678 567.641 293.215 565.965 293.215C564.289 293.215 562.95 292.678 561.947 291.604C560.952 290.529 560.454 289.068 560.454 287.221V287.081ZM563.559 287.307C563.559 288.41 563.766 289.255 564.182 289.842C564.597 290.422 565.191 290.712 565.965 290.712C566.717 290.712 567.304 290.425 567.727 289.853C568.149 289.272 568.36 288.349 568.36 287.081C568.36 286 568.149 285.162 567.727 284.567C567.304 283.973 566.71 283.676 565.943 283.676C565.184 283.676 564.597 283.973 564.182 284.567C563.766 285.155 563.559 286.068 563.559 287.307ZM576.653 293H573.538V276.5H576.653V293ZM586.182 291.818C585.415 292.749 584.355 293.215 583.002 293.215C581.756 293.215 580.803 292.857 580.145 292.141C579.493 291.424 579.16 290.375 579.146 288.993V281.377H582.25V288.886C582.25 290.096 582.801 290.701 583.904 290.701C584.957 290.701 585.68 290.336 586.074 289.605V281.377H589.189V293H586.268L586.182 291.818ZM594.442 281.377L594.539 282.677C595.363 281.667 596.476 281.162 597.88 281.162C599.377 281.162 600.404 281.753 600.963 282.935C601.779 281.753 602.943 281.162 604.454 281.162C605.715 281.162 606.653 281.531 607.269 282.269C607.884 282.999 608.192 284.102 608.192 285.577V293H605.077V285.588C605.077 284.929 604.948 284.449 604.69 284.148C604.433 283.84 603.978 283.687 603.326 283.687C602.395 283.687 601.751 284.131 601.393 285.019L601.403 293H598.299V285.599C598.299 284.925 598.166 284.438 597.901 284.138C597.636 283.837 597.185 283.687 596.548 283.687C595.667 283.687 595.03 284.052 594.636 284.782V293H591.531V281.377H594.442ZM613.445 281.377L613.542 282.72C614.373 281.681 615.486 281.162 616.883 281.162C618.115 281.162 619.031 281.524 619.633 282.247C620.234 282.97 620.542 284.052 620.557 285.491V293H617.452V285.566C617.452 284.908 617.309 284.431 617.022 284.138C616.736 283.837 616.26 283.687 615.594 283.687C614.72 283.687 614.065 284.059 613.628 284.804V293H610.523V281.377H613.445Z" fill="#1E73FF"/>
<rect x="718" y="1" width="212" height="212" rx="9" fill="white" stroke="#001EBB" stroke-width="2"/>
<g filter="url(#filter9_d)">
<rect x="799" y="20" width="50" height="50" rx="6" fill="#00986B"/>
<rect x="800" y="21" width="48" height="48" rx="5" stroke="#001EBB" stroke-width="2"/>
</g>
<path d="M822.777 43.8623H824.175C825.282 43.8623 825.836 43.3203 825.836 42.2363C825.836 41.8145 825.704 41.4717 825.44 41.208C825.177 40.9385 824.805 40.8037 824.324 40.8037C823.932 40.8037 823.589 40.918 823.296 41.1465C823.009 41.375 822.865 41.6592 822.865 41.999H819.903C819.903 41.3252 820.091 40.7246 820.466 40.1973C820.841 39.6699 821.359 39.2598 822.021 38.9668C822.689 38.668 823.422 38.5186 824.219 38.5186C825.643 38.5186 826.762 38.8438 827.576 39.4941C828.391 40.1445 828.798 41.0381 828.798 42.1748C828.798 42.7256 828.628 43.2471 828.288 43.7393C827.954 44.2256 827.465 44.6211 826.82 44.9258C827.5 45.1719 828.033 45.5469 828.42 46.0508C828.807 46.5488 829 47.167 829 47.9053C829 49.0479 828.561 49.9619 827.682 50.6475C826.803 51.333 825.648 51.6758 824.219 51.6758C823.381 51.6758 822.602 51.5176 821.881 51.2012C821.166 50.8789 820.624 50.4365 820.255 49.874C819.886 49.3057 819.701 48.6611 819.701 47.9404H822.681C822.681 48.333 822.839 48.6729 823.155 48.96C823.472 49.2471 823.861 49.3906 824.324 49.3906C824.846 49.3906 825.262 49.2471 825.572 48.96C825.883 48.667 826.038 48.2949 826.038 47.8438C826.038 47.1992 825.877 46.7422 825.555 46.4727C825.232 46.2031 824.787 46.0684 824.219 46.0684H822.777V43.8623Z" fill="white"/>
<g filter="url(#filter10_d)">
<rect x="799" y="82" width="50" height="50" rx="6" fill="#1E73FF"/>
<rect x="800" y="83" width="48" height="48" rx="5" stroke="#001EBB" stroke-width="2"/>
</g>
<path d="M829 113.5H820.07V111.566L824.184 107.242C825.197 106.088 825.704 105.171 825.704 104.491C825.704 103.94 825.584 103.521 825.344 103.234C825.104 102.947 824.755 102.804 824.298 102.804C823.847 102.804 823.48 102.997 823.199 103.384C822.918 103.765 822.777 104.242 822.777 104.816H819.807C819.807 104.031 820.003 103.308 820.396 102.646C820.788 101.978 821.333 101.456 822.03 101.081C822.728 100.706 823.507 100.519 824.368 100.519C825.751 100.519 826.814 100.838 827.559 101.477C828.309 102.115 828.684 103.032 828.684 104.228C828.684 104.731 828.59 105.224 828.402 105.704C828.215 106.179 827.922 106.68 827.523 107.207C827.131 107.729 826.495 108.429 825.616 109.308L823.964 111.215H829V113.5Z" fill="white"/>
<g filter="url(#filter11_d)">
<rect x="799" y="144" width="50" height="50" rx="6" fill="#B72DF8"/>
<rect x="800" y="145" width="48" height="48" rx="5" stroke="#001EBB" stroke-width="2"/>
</g>
<path d="M826.636 175.5H823.665V166.043L820.747 166.896V164.646L826.363 162.703H826.636V175.5Z" fill="white"/>
<path fill-rule="evenodd" clip-rule="evenodd" d="M8 318C3.58172 318 0 321.582 0 326V454C0 458.418 3.58173 462 8 462H206C210.418 462 214 458.418 214 454V326C214 321.582 210.418 318 206 318H8ZM204 328H10V452H204V328Z" fill="#222222"/>
<rect x="20" y="328" width="174" height="20" fill="#DDDDDD"/>
<rect x="20" y="358" width="20" height="94" fill="#B72DF8"/>
<rect x="50" y="358" width="87" height="94" fill="#1E73FF"/>
<rect x="147" y="358" width="47" height="94" fill="#00986B"/>
<path fill-rule="evenodd" clip-rule="evenodd" d="M247 318C242.582 318 239 321.582 239 326V454C239 458.418 242.582 462 247 462H445C449.418 462 453 458.418 453 454V326C453 321.582 449.418 318 445 318H247ZM443 328H249V452H443V328Z" fill="#222222"/>
<rect x="259" y="328" width="174" height="20" fill="#DDDDDD"/>
<rect x="413" y="358" width="20" height="94" fill="#B72DF8"/>
<rect x="316" y="358" width="87" height="94" fill="#1E73FF"/>
<rect x="259" y="358" width="47" height="94" fill="#00986B"/>
<rect x="498" y="328" width="174" height="20" fill="#DDDDDD"/>
<rect x="498" y="358" width="174" height="20" fill="#B72DF8"/>
<rect x="498" y="388" width="174" height="92" fill="#1E73FF"/>
<rect x="498" y="491" width="174" height="47" fill="#00986B"/>
<path fill-rule="evenodd" clip-rule="evenodd" d="M486 318C481.582 318 478 321.582 478 326V454C478 458.418 481.582 462 486 462H684C688.418 462 692 458.418 692 454V326C692 321.582 688.418 318 684 318H486ZM682 328H488V452H682V328Z" fill="#222222"/>
<rect x="737" y="328" width="174" height="20" fill="#DDDDDD"/>
<rect x="737" y="517" width="174" height="20" fill="#B72DF8"/>
<rect x="737" y="415" width="174" height="92" fill="#1E73FF"/>
<rect x="737" y="358" width="174" height="47" fill="#00986B"/>
<path fill-rule="evenodd" clip-rule="evenodd" d="M725 318C720.582 318 717 321.582 717 326V454C717 458.418 720.582 462 725 462H923C927.418 462 931 458.418 931 454V326C931 321.582 927.418 318 923 318H725ZM921 328H727V452H921V328Z" fill="#222222"/>
<path d="M408.809 240.187C407.921 240.043 407.204 239.972 406.66 239.972C405.228 239.972 404.512 240.724 404.512 242.228V243.377H406.993V244.913H404.512V255H402.524V244.913H400.688V243.377H402.524V242.109C402.532 240.87 402.879 239.922 403.566 239.263C404.254 238.604 405.231 238.274 406.499 238.274C407.222 238.274 408.655 238.493 410.796 238.93V255H408.809V240.187ZM418.874 255.215C417.299 255.215 416.017 254.699 415.028 253.668C414.04 252.63 413.546 251.244 413.546 249.511V249.146C413.546 247.993 413.764 246.965 414.201 246.062C414.645 245.153 415.261 244.444 416.049 243.936C416.844 243.42 417.703 243.162 418.627 243.162C420.138 243.162 421.312 243.66 422.15 244.655C422.988 245.651 423.407 247.076 423.407 248.931V249.758H415.533C415.562 250.904 415.895 251.831 416.532 252.54C417.177 253.242 417.993 253.593 418.981 253.593C419.683 253.593 420.278 253.45 420.765 253.163C421.252 252.877 421.678 252.497 422.043 252.024L423.257 252.97C422.283 254.466 420.822 255.215 418.874 255.215ZM418.627 244.795C417.825 244.795 417.152 245.089 416.607 245.676C416.063 246.256 415.727 247.072 415.598 248.125H421.42V247.975C421.363 246.965 421.09 246.184 420.604 245.633C420.117 245.074 419.458 244.795 418.627 244.795ZM429.616 247.62L432.194 243.377H434.515L430.712 249.124L434.633 255H432.334L429.648 250.649L426.963 255H424.653L428.574 249.124L424.771 243.377H427.07L429.616 247.62ZM440.767 249.167H435.524V247.545H440.767V249.167ZM442.228 249.092C442.228 247.309 442.65 245.876 443.495 244.795C444.34 243.706 445.447 243.162 446.814 243.162C448.175 243.162 449.253 243.628 450.048 244.559V238.5H452.035V255H450.209L450.112 253.754C449.317 254.728 448.211 255.215 446.793 255.215C445.447 255.215 444.347 254.663 443.495 253.561C442.65 252.458 442.228 251.018 442.228 249.242V249.092ZM444.215 249.317C444.215 250.635 444.487 251.666 445.031 252.411C445.576 253.156 446.327 253.528 447.287 253.528C448.548 253.528 449.468 252.963 450.048 251.831V246.492C449.453 245.396 448.54 244.849 447.309 244.849C446.335 244.849 445.576 245.225 445.031 245.977C444.487 246.729 444.215 247.842 444.215 249.317ZM457.288 255H455.301V243.377H457.288V255ZM455.14 240.294C455.14 239.972 455.236 239.7 455.43 239.478C455.63 239.256 455.924 239.145 456.311 239.145C456.697 239.145 456.991 239.256 457.191 239.478C457.392 239.7 457.492 239.972 457.492 240.294C457.492 240.616 457.392 240.885 457.191 241.1C456.991 241.314 456.697 241.422 456.311 241.422C455.924 241.422 455.63 241.314 455.43 241.1C455.236 240.885 455.14 240.616 455.14 240.294ZM466.097 245.16C465.796 245.11 465.47 245.085 465.119 245.085C463.816 245.085 462.931 245.64 462.466 246.75V255H460.479V243.377H462.412L462.444 244.72C463.096 243.681 464.02 243.162 465.216 243.162C465.603 243.162 465.896 243.212 466.097 243.312V245.16ZM472.542 255.215C470.966 255.215 469.685 254.699 468.696 253.668C467.708 252.63 467.214 251.244 467.214 249.511V249.146C467.214 247.993 467.432 246.965 467.869 246.062C468.313 245.153 468.929 244.444 469.717 243.936C470.512 243.42 471.371 243.162 472.295 243.162C473.806 243.162 474.98 243.66 475.818 244.655C476.656 245.651 477.075 247.076 477.075 248.931V249.758H469.201C469.23 250.904 469.563 251.831 470.2 252.54C470.845 253.242 471.661 253.593 472.649 253.593C473.351 253.593 473.946 253.45 474.433 253.163C474.92 252.877 475.346 252.497 475.711 252.024L476.925 252.97C475.951 254.466 474.49 255.215 472.542 255.215ZM472.295 244.795C471.493 244.795 470.82 245.089 470.275 245.676C469.731 246.256 469.395 247.072 469.266 248.125H475.088V247.975C475.031 246.965 474.758 246.184 474.271 245.633C473.785 245.074 473.126 244.795 472.295 244.795ZM484.047 253.593C484.756 253.593 485.375 253.378 485.905 252.948C486.435 252.519 486.729 251.981 486.786 251.337H488.666C488.63 252.003 488.401 252.637 487.979 253.238C487.556 253.84 486.99 254.32 486.281 254.678C485.579 255.036 484.835 255.215 484.047 255.215C482.464 255.215 481.204 254.688 480.266 253.636C479.335 252.576 478.869 251.129 478.869 249.296V248.963C478.869 247.831 479.077 246.825 479.492 245.944C479.908 245.063 480.502 244.38 481.275 243.893C482.056 243.406 482.976 243.162 484.036 243.162C485.34 243.162 486.421 243.552 487.28 244.333C488.147 245.114 488.609 246.127 488.666 247.373H486.786C486.729 246.621 486.442 246.005 485.927 245.525C485.418 245.038 484.788 244.795 484.036 244.795C483.026 244.795 482.242 245.16 481.684 245.891C481.132 246.614 480.856 247.663 480.856 249.038V249.414C480.856 250.753 481.132 251.785 481.684 252.508C482.235 253.231 483.023 253.593 484.047 253.593ZM493.597 240.562V243.377H495.767V244.913H493.597V252.121C493.597 252.587 493.693 252.938 493.887 253.174C494.08 253.403 494.41 253.518 494.875 253.518C495.104 253.518 495.419 253.475 495.82 253.389V255C495.298 255.143 494.789 255.215 494.295 255.215C493.407 255.215 492.737 254.946 492.286 254.409C491.835 253.872 491.609 253.109 491.609 252.121V244.913H489.493V243.377H491.609V240.562H493.597ZM500.257 255H498.27V243.377H500.257V255ZM498.108 240.294C498.108 239.972 498.205 239.7 498.398 239.478C498.599 239.256 498.893 239.145 499.279 239.145C499.666 239.145 499.96 239.256 500.16 239.478C500.361 239.7 500.461 239.972 500.461 240.294C500.461 240.616 500.361 240.885 500.16 241.1C499.96 241.314 499.666 241.422 499.279 241.422C498.893 241.422 498.599 241.314 498.398 241.1C498.205 240.885 498.108 240.616 498.108 240.294ZM502.921 249.081C502.921 247.942 503.143 246.918 503.587 246.009C504.038 245.099 504.661 244.397 505.456 243.903C506.258 243.409 507.171 243.162 508.195 243.162C509.778 243.162 511.056 243.71 512.03 244.806C513.011 245.901 513.502 247.359 513.502 249.178V249.317C513.502 250.449 513.284 251.466 512.847 252.368C512.417 253.263 511.798 253.962 510.988 254.463C510.186 254.964 509.262 255.215 508.217 255.215C506.641 255.215 505.363 254.667 504.382 253.571C503.408 252.476 502.921 251.025 502.921 249.221V249.081ZM504.919 249.317C504.919 250.606 505.216 251.641 505.811 252.422C506.412 253.202 507.214 253.593 508.217 253.593C509.227 253.593 510.029 253.199 510.623 252.411C511.217 251.616 511.515 250.506 511.515 249.081C511.515 247.806 511.21 246.775 510.602 245.987C510 245.192 509.198 244.795 508.195 244.795C507.214 244.795 506.423 245.185 505.821 245.966C505.22 246.746 504.919 247.864 504.919 249.317ZM517.874 243.377L517.938 244.838C518.826 243.721 519.987 243.162 521.419 243.162C523.875 243.162 525.114 244.548 525.136 247.319V255H523.148V247.309C523.141 246.471 522.948 245.851 522.568 245.45C522.196 245.049 521.612 244.849 520.817 244.849C520.173 244.849 519.607 245.021 519.12 245.364C518.633 245.708 518.254 246.159 517.981 246.718V255H515.994V243.377H517.874ZM528.068 253.958C528.068 253.614 528.169 253.328 528.369 253.099C528.577 252.869 528.885 252.755 529.293 252.755C529.701 252.755 530.009 252.869 530.217 253.099C530.432 253.328 530.539 253.614 530.539 253.958C530.539 254.287 530.432 254.563 530.217 254.785C530.009 255.007 529.701 255.118 529.293 255.118C528.885 255.118 528.577 255.007 528.369 254.785C528.169 254.563 528.068 254.287 528.068 253.958ZM528.079 244.473C528.079 244.129 528.179 243.842 528.38 243.613C528.588 243.384 528.896 243.27 529.304 243.27C529.712 243.27 530.02 243.384 530.228 243.613C530.442 243.842 530.55 244.129 530.55 244.473C530.55 244.802 530.442 245.078 530.228 245.3C530.02 245.522 529.712 245.633 529.304 245.633C528.896 245.633 528.588 245.522 528.38 245.3C528.179 245.078 528.079 244.802 528.079 244.473Z" fill="#888888"/>
<path d="M97.0908 284.288C96.6683 284.231 96.2959 284.202 95.9736 284.202C94.7992 284.202 94.0293 284.6 93.6641 285.395V293H90.5596V281.377H93.4922L93.5781 282.763C94.2012 281.696 95.0641 281.162 96.167 281.162C96.5107 281.162 96.833 281.209 97.1338 281.302L97.0908 284.288ZM97.7246 287.081C97.7246 285.928 97.9466 284.9 98.3906 283.998C98.8346 283.096 99.472 282.397 100.303 281.903C101.141 281.409 102.111 281.162 103.214 281.162C104.782 281.162 106.061 281.642 107.049 282.602C108.044 283.561 108.599 284.865 108.714 286.512L108.735 287.307C108.735 289.09 108.238 290.522 107.242 291.604C106.247 292.678 104.911 293.215 103.235 293.215C101.56 293.215 100.22 292.678 99.2178 291.604C98.2223 290.529 97.7246 289.068 97.7246 287.221V287.081ZM100.829 287.307C100.829 288.41 101.037 289.255 101.452 289.842C101.868 290.422 102.462 290.712 103.235 290.712C103.987 290.712 104.575 290.425 104.997 289.853C105.42 289.272 105.631 288.349 105.631 287.081C105.631 286 105.42 285.162 104.997 284.567C104.575 283.973 103.98 283.676 103.214 283.676C102.455 283.676 101.868 283.973 101.452 284.567C101.037 285.155 100.829 286.068 100.829 287.307ZM120.756 288.778L122.281 281.377H125.278L122.313 293H119.714L117.512 285.685L115.31 293H112.721L109.756 281.377H112.753L114.268 288.768L116.395 281.377H118.64L120.756 288.778Z" fill="#1E73FF"/>
<path d="M294.97 284.288C294.547 284.231 294.175 284.202 293.853 284.202C292.678 284.202 291.908 284.6 291.543 285.395V293H288.438V281.377H291.371L291.457 282.763C292.08 281.696 292.943 281.162 294.046 281.162C294.39 281.162 294.712 281.209 295.013 281.302L294.97 284.288ZM295.604 287.081C295.604 285.928 295.826 284.9 296.27 283.998C296.714 283.096 297.351 282.397 298.182 281.903C299.02 281.409 299.99 281.162 301.093 281.162C302.661 281.162 303.939 281.642 304.928 282.602C305.923 283.561 306.478 284.865 306.593 286.512L306.614 287.307C306.614 289.09 306.117 290.522 305.121 291.604C304.126 292.678 302.79 293.215 301.114 293.215C299.438 293.215 298.099 292.678 297.097 291.604C296.101 290.529 295.604 289.068 295.604 287.221V287.081ZM298.708 287.307C298.708 288.41 298.916 289.255 299.331 289.842C299.746 290.422 300.341 290.712 301.114 290.712C301.866 290.712 302.453 290.425 302.876 289.853C303.299 289.272 303.51 288.349 303.51 287.081C303.51 286 303.299 285.162 302.876 284.567C302.453 283.973 301.859 283.676 301.093 283.676C300.334 283.676 299.746 283.973 299.331 284.567C298.916 285.155 298.708 286.068 298.708 287.307ZM318.635 288.778L320.16 281.377H323.157L320.192 293H317.593L315.391 285.685L313.188 293H310.6L307.635 281.377H310.632L312.146 288.768L314.273 281.377H316.519L318.635 288.778ZM330.741 287.554H324.693V285.051H330.741V287.554ZM339.765 284.288C339.342 284.231 338.97 284.202 338.647 284.202C337.473 284.202 336.703 284.6 336.338 285.395V293H333.233V281.377H336.166L336.252 282.763C336.875 281.696 337.738 281.162 338.841 281.162C339.185 281.162 339.507 281.209 339.808 281.302L339.765 284.288ZM346.403 293.215C344.699 293.215 343.31 292.692 342.235 291.646C341.168 290.601 340.635 289.208 340.635 287.468V287.167C340.635 286 340.86 284.958 341.312 284.041C341.763 283.117 342.4 282.408 343.224 281.914C344.054 281.413 345 281.162 346.06 281.162C347.649 281.162 348.899 281.663 349.809 282.666C350.725 283.669 351.184 285.09 351.184 286.931V288.198H343.782C343.882 288.957 344.183 289.566 344.685 290.024C345.193 290.483 345.834 290.712 346.607 290.712C347.803 290.712 348.738 290.279 349.411 289.412L350.937 291.12C350.471 291.779 349.841 292.295 349.046 292.667C348.251 293.032 347.37 293.215 346.403 293.215ZM346.049 283.676C345.433 283.676 344.932 283.883 344.545 284.299C344.165 284.714 343.922 285.309 343.814 286.082H348.133V285.835C348.118 285.147 347.932 284.618 347.574 284.245C347.216 283.866 346.708 283.676 346.049 283.676ZM357.156 289.208L359.315 281.377H362.56L358.639 293H355.674L351.753 281.377H354.997L357.156 289.208ZM369.134 293.215C367.429 293.215 366.04 292.692 364.966 291.646C363.899 290.601 363.365 289.208 363.365 287.468V287.167C363.365 286 363.591 284.958 364.042 284.041C364.493 283.117 365.131 282.408 365.954 281.914C366.785 281.413 367.73 281.162 368.79 281.162C370.38 281.162 371.63 281.663 372.539 282.666C373.456 283.669 373.914 285.09 373.914 286.931V288.198H366.513C366.613 288.957 366.914 289.566 367.415 290.024C367.924 290.483 368.564 290.712 369.338 290.712C370.534 290.712 371.468 290.279 372.142 289.412L373.667 291.12C373.201 291.779 372.571 292.295 371.776 292.667C370.981 293.032 370.101 293.215 369.134 293.215ZM368.779 283.676C368.163 283.676 367.662 283.883 367.275 284.299C366.896 284.714 366.652 285.309 366.545 286.082H370.863V285.835C370.849 285.147 370.663 284.618 370.305 284.245C369.947 283.866 369.438 283.676 368.779 283.676ZM382.218 284.288C381.795 284.231 381.423 284.202 381.101 284.202C379.926 284.202 379.156 284.6 378.791 285.395V293H375.687V281.377H378.619L378.705 282.763C379.328 281.696 380.191 281.162 381.294 281.162C381.638 281.162 381.96 281.209 382.261 281.302L382.218 284.288ZM390.017 289.788C390.017 289.409 389.827 289.111 389.447 288.896C389.075 288.674 388.473 288.478 387.643 288.306C384.878 287.726 383.496 286.551 383.496 284.782C383.496 283.751 383.922 282.892 384.774 282.204C385.634 281.509 386.755 281.162 388.137 281.162C389.612 281.162 390.79 281.509 391.671 282.204C392.559 282.899 393.003 283.801 393.003 284.911H389.898C389.898 284.467 389.755 284.102 389.469 283.815C389.182 283.522 388.735 283.375 388.126 283.375C387.603 283.375 387.199 283.493 386.912 283.729C386.626 283.966 386.482 284.267 386.482 284.632C386.482 284.976 386.644 285.255 386.966 285.47C387.295 285.677 387.847 285.86 388.62 286.018C389.394 286.168 390.045 286.34 390.575 286.533C392.215 287.135 393.035 288.177 393.035 289.659C393.035 290.719 392.58 291.578 391.671 292.237C390.761 292.889 389.587 293.215 388.147 293.215C387.174 293.215 386.307 293.043 385.548 292.699C384.796 292.348 384.205 291.872 383.775 291.271C383.346 290.662 383.131 290.007 383.131 289.305H386.074C386.103 289.856 386.307 290.279 386.687 290.572C387.066 290.866 387.575 291.013 388.212 291.013C388.806 291.013 389.254 290.902 389.555 290.68C389.863 290.451 390.017 290.153 390.017 289.788ZM400.394 293.215C398.689 293.215 397.3 292.692 396.226 291.646C395.159 290.601 394.625 289.208 394.625 287.468V287.167C394.625 286 394.851 284.958 395.302 284.041C395.753 283.117 396.39 282.408 397.214 281.914C398.045 281.413 398.99 281.162 400.05 281.162C401.64 281.162 402.889 281.663 403.799 282.666C404.715 283.669 405.174 285.09 405.174 286.931V288.198H397.772C397.873 288.957 398.174 289.566 398.675 290.024C399.183 290.483 399.824 290.712 400.598 290.712C401.794 290.712 402.728 290.279 403.401 289.412L404.927 291.12C404.461 291.779 403.831 292.295 403.036 292.667C402.241 293.032 401.36 293.215 400.394 293.215ZM400.039 283.676C399.423 283.676 398.922 283.883 398.535 284.299C398.156 284.714 397.912 285.309 397.805 286.082H402.123V285.835C402.109 285.147 401.923 284.618 401.564 284.245C401.206 283.866 400.698 283.676 400.039 283.676Z" fill="#1E73FF"/>
<defs>
<filter id="filter0_d" x="20" y="82" width="56" height="56" filterUnits="userSpaceOnUse" color-interpolation-filters="sRGB">
<feFlood flood-opacity="0" result="BackgroundImageFix"/>
<feColorMatrix in="SourceAlpha" type="matrix" values="0 0 0 0 0 0 0 0 0 0 0 0 0 0 0 0 0 0 127 0"/>
<feOffset dx="6" dy="6"/>
<feColorMatrix type="matrix" values="0 0 0 0 0 0 0 0 0 0 0 0 0 0 0 0 0 0 0.15 0"/>
<feBlend mode="normal" in2="BackgroundImageFix" result="effect1_dropShadow"/>
<feBlend mode="normal" in="SourceGraphic" in2="effect1_dropShadow" result="shape"/>
</filter>
<filter id="filter1_d" x="82" y="82" width="56" height="56" filterUnits="userSpaceOnUse" color-interpolation-filters="sRGB">
<feFlood flood-opacity="0" result="BackgroundImageFix"/>
<feColorMatrix in="SourceAlpha" type="matrix" values="0 0 0 0 0 0 0 0 0 0 0 0 0 0 0 0 0 0 127 0"/>
<feOffset dx="6" dy="6"/>
<feColorMatrix type="matrix" values="0 0 0 0 0 0 0 0 0 0 0 0 0 0 0 0 0 0 0.15 0"/>
<feBlend mode="normal" in2="BackgroundImageFix" result="effect1_dropShadow"/>
<feBlend mode="normal" in="SourceGraphic" in2="effect1_dropShadow" result="shape"/>
</filter>
<filter id="filter2_d" x="144" y="82" width="56" height="56" filterUnits="userSpaceOnUse" color-interpolation-filters="sRGB">
<feFlood flood-opacity="0" result="BackgroundImageFix"/>
<feColorMatrix in="SourceAlpha" type="matrix" values="0 0 0 0 0 0 0 0 0 0 0 0 0 0 0 0 0 0 127 0"/>
<feOffset dx="6" dy="6"/>
<feColorMatrix type="matrix" values="0 0 0 0 0 0 0 0 0 0 0 0 0 0 0 0 0 0 0.15 0"/>
<feBlend mode="normal" in2="BackgroundImageFix" result="effect1_dropShadow"/>
<feBlend mode="normal" in="SourceGraphic" in2="effect1_dropShadow" result="shape"/>
</filter>
<filter id="filter3_d" x="259" y="82" width="56" height="56" filterUnits="userSpaceOnUse" color-interpolation-filters="sRGB">
<feFlood flood-opacity="0" result="BackgroundImageFix"/>
<feColorMatrix in="SourceAlpha" type="matrix" values="0 0 0 0 0 0 0 0 0 0 0 0 0 0 0 0 0 0 127 0"/>
<feOffset dx="6" dy="6"/>
<feColorMatrix type="matrix" values="0 0 0 0 0 0 0 0 0 0 0 0 0 0 0 0 0 0 0.15 0"/>
<feBlend mode="normal" in2="BackgroundImageFix" result="effect1_dropShadow"/>
<feBlend mode="normal" in="SourceGraphic" in2="effect1_dropShadow" result="shape"/>
</filter>
<filter id="filter4_d" x="321" y="82" width="56" height="56" filterUnits="userSpaceOnUse" color-interpolation-filters="sRGB">
<feFlood flood-opacity="0" result="BackgroundImageFix"/>
<feColorMatrix in="SourceAlpha" type="matrix" values="0 0 0 0 0 0 0 0 0 0 0 0 0 0 0 0 0 0 127 0"/>
<feOffset dx="6" dy="6"/>
<feColorMatrix type="matrix" values="0 0 0 0 0 0 0 0 0 0 0 0 0 0 0 0 0 0 0.15 0"/>
<feBlend mode="normal" in2="BackgroundImageFix" result="effect1_dropShadow"/>
<feBlend mode="normal" in="SourceGraphic" in2="effect1_dropShadow" result="shape"/>
</filter>
<filter id="filter5_d" x="383" y="82" width="56" height="56" filterUnits="userSpaceOnUse" color-interpolation-filters="sRGB">
<feFlood flood-opacity="0" result="BackgroundImageFix"/>
<feColorMatrix in="SourceAlpha" type="matrix" values="0 0 0 0 0 0 0 0 0 0 0 0 0 0 0 0 0 0 127 0"/>
<feOffset dx="6" dy="6"/>
<feColorMatrix type="matrix" values="0 0 0 0 0 0 0 0 0 0 0 0 0 0 0 0 0 0 0.15 0"/>
<feBlend mode="normal" in2="BackgroundImageFix" result="effect1_dropShadow"/>
<feBlend mode="normal" in="SourceGraphic" in2="effect1_dropShadow" result="shape"/>
</filter>
<filter id="filter6_d" x="560" y="20" width="56" height="56" filterUnits="userSpaceOnUse" color-interpolation-filters="sRGB">
<feFlood flood-opacity="0" result="BackgroundImageFix"/>
<feColorMatrix in="SourceAlpha" type="matrix" values="0 0 0 0 0 0 0 0 0 0 0 0 0 0 0 0 0 0 127 0"/>
<feOffset dx="6" dy="6"/>
<feColorMatrix type="matrix" values="0 0 0 0 0 0 0 0 0 0 0 0 0 0 0 0 0 0 0.15 0"/>
<feBlend mode="normal" in2="BackgroundImageFix" result="effect1_dropShadow"/>
<feBlend mode="normal" in="SourceGraphic" in2="effect1_dropShadow" result="shape"/>
</filter>
<filter id="filter7_d" x="560" y="82" width="56" height="56" filterUnits="userSpaceOnUse" color-interpolation-filters="sRGB">
<feFlood flood-opacity="0" result="BackgroundImageFix"/>
<feColorMatrix in="SourceAlpha" type="matrix" values="0 0 0 0 0 0 0 0 0 0 0 0 0 0 0 0 0 0 127 0"/>
<feOffset dx="6" dy="6"/>
<feColorMatrix type="matrix" values="0 0 0 0 0 0 0 0 0 0 0 0 0 0 0 0 0 0 0.15 0"/>
<feBlend mode="normal" in2="BackgroundImageFix" result="effect1_dropShadow"/>
<feBlend mode="normal" in="SourceGraphic" in2="effect1_dropShadow" result="shape"/>
</filter>
<filter id="filter8_d" x="560" y="144" width="56" height="56" filterUnits="userSpaceOnUse" color-interpolation-filters="sRGB">
<feFlood flood-opacity="0" result="BackgroundImageFix"/>
<feColorMatrix in="SourceAlpha" type="matrix" values="0 0 0 0 0 0 0 0 0 0 0 0 0 0 0 0 0 0 127 0"/>
<feOffset dx="6" dy="6"/>
<feColorMatrix type="matrix" values="0 0 0 0 0 0 0 0 0 0 0 0 0 0 0 0 0 0 0.15 0"/>
<feBlend mode="normal" in2="BackgroundImageFix" result="effect1_dropShadow"/>
<feBlend mode="normal" in="SourceGraphic" in2="effect1_dropShadow" result="shape"/>
</filter>
<filter id="filter9_d" x="799" y="20" width="56" height="56" filterUnits="userSpaceOnUse" color-interpolation-filters="sRGB">
<feFlood flood-opacity="0" result="BackgroundImageFix"/>
<feColorMatrix in="SourceAlpha" type="matrix" values="0 0 0 0 0 0 0 0 0 0 0 0 0 0 0 0 0 0 127 0"/>
<feOffset dx="6" dy="6"/>
<feColorMatrix type="matrix" values="0 0 0 0 0 0 0 0 0 0 0 0 0 0 0 0 0 0 0.15 0"/>
<feBlend mode="normal" in2="BackgroundImageFix" result="effect1_dropShadow"/>
<feBlend mode="normal" in="SourceGraphic" in2="effect1_dropShadow" result="shape"/>
</filter>
<filter id="filter10_d" x="799" y="82" width="56" height="56" filterUnits="userSpaceOnUse" color-interpolation-filters="sRGB">
<feFlood flood-opacity="0" result="BackgroundImageFix"/>
<feColorMatrix in="SourceAlpha" type="matrix" values="0 0 0 0 0 0 0 0 0 0 0 0 0 0 0 0 0 0 127 0"/>
<feOffset dx="6" dy="6"/>
<feColorMatrix type="matrix" values="0 0 0 0 0 0 0 0 0 0 0 0 0 0 0 0 0 0 0.15 0"/>
<feBlend mode="normal" in2="BackgroundImageFix" result="effect1_dropShadow"/>
<feBlend mode="normal" in="SourceGraphic" in2="effect1_dropShadow" result="shape"/>
</filter>
<filter id="filter11_d" x="799" y="144" width="56" height="56" filterUnits="userSpaceOnUse" color-interpolation-filters="sRGB">
<feFlood flood-opacity="0" result="BackgroundImageFix"/>
<feColorMatrix in="SourceAlpha" type="matrix" values="0 0 0 0 0 0 0 0 0 0 0 0 0 0 0 0 0 0 127 0"/>
<feOffset dx="6" dy="6"/>
<feColorMatrix type="matrix" values="0 0 0 0 0 0 0 0 0 0 0 0 0 0 0 0 0 0 0.15 0"/>
<feBlend mode="normal" in2="BackgroundImageFix" result="effect1_dropShadow"/>
<feBlend mode="normal" in="SourceGraphic" in2="effect1_dropShadow" result="shape"/>
</filter>
</defs>
</svg>
