<svg width="241" height="336" viewBox="0 0 241 336" fill="none" xmlns="http://www.w3.org/2000/svg">
<rect x="1" y="27" width="186" height="278" rx="5" fill="#F7F7F7" stroke="#AAAAAA" stroke-width="2" stroke-dasharray="6 4"/>
<path d="M5.63965 3.81934C5.1748 3.75553 4.77376 3.72363 4.43652 3.72363C3.54329 3.72363 3.09668 4.1429 3.09668 4.98145V5.60352H4.60059V6.83398H3.09668V13H1.43555V6.83398H0.307617V5.60352H1.43555V4.94043C1.4401 4.10645 1.6862 3.46842 2.17383 3.02637C2.66602 2.57975 3.35872 2.35645 4.25195 2.35645C4.80794 2.35645 5.82422 2.46582 7.30078 2.68457V13H5.63965V3.81934ZM12.3936 13.1367C11.3408 13.1367 10.4863 12.8063 9.83008 12.1455C9.17839 11.4801 8.85254 10.596 8.85254 9.49316V9.28809C8.85254 8.5498 8.99382 7.89128 9.27637 7.3125C9.56348 6.72917 9.96452 6.27572 10.4795 5.95215C10.9945 5.62858 11.5687 5.4668 12.2021 5.4668C13.2093 5.4668 13.9863 5.78809 14.5332 6.43066C15.0846 7.07324 15.3604 7.98242 15.3604 9.1582V9.82812H10.5273C10.5775 10.4388 10.7803 10.9219 11.1357 11.2773C11.4958 11.6328 11.9469 11.8105 12.4893 11.8105C13.2503 11.8105 13.8701 11.5029 14.3486 10.8877L15.2441 11.7422C14.9479 12.1842 14.5514 12.5283 14.0547 12.7744C13.5625 13.016 13.0088 13.1367 12.3936 13.1367ZM12.1953 6.7998C11.7396 6.7998 11.3704 6.95931 11.0879 7.27832C10.8099 7.59733 10.6322 8.04167 10.5547 8.61133H13.7197V8.48828C13.6833 7.93229 13.5352 7.51302 13.2754 7.23047C13.0156 6.94336 12.6556 6.7998 12.1953 6.7998ZM19.3115 8.03711L20.7197 5.60352H22.5654L20.3027 9.24707L22.6406 13H20.8086L19.332 10.4707L17.8623 13H16.0166L18.3545 9.24707L16.0986 5.60352H17.9307L19.3115 8.03711ZM30.2217 11.8105C30.6364 11.8105 30.9805 11.6898 31.2539 11.4482C31.5273 11.2067 31.6732 10.9082 31.6914 10.5527H33.2568C33.2386 11.013 33.0951 11.4437 32.8262 11.8447C32.5573 12.2412 32.1927 12.5557 31.7324 12.7881C31.2721 13.0205 30.7754 13.1367 30.2422 13.1367C29.2077 13.1367 28.3874 12.8018 27.7812 12.1318C27.1751 11.4619 26.8721 10.5368 26.8721 9.35645V9.18555C26.8721 8.0599 27.1729 7.15983 27.7744 6.48535C28.376 5.80632 29.1963 5.4668 30.2354 5.4668C31.1149 5.4668 31.8304 5.72428 32.3818 6.23926C32.9378 6.74967 33.2295 7.42188 33.2568 8.25586H31.6914C31.6732 7.83203 31.5273 7.4834 31.2539 7.20996C30.985 6.93652 30.641 6.7998 30.2217 6.7998C29.6839 6.7998 29.2692 6.99577 28.9775 7.3877C28.6859 7.77507 28.5378 8.36523 28.5332 9.1582V9.4248C28.5332 10.2269 28.6768 10.8262 28.9639 11.2227C29.2555 11.6146 29.6748 11.8105 30.2217 11.8105ZM34.2002 9.2334C34.2002 8.50879 34.3438 7.8571 34.6309 7.27832C34.918 6.69499 35.3213 6.24837 35.8408 5.93848C36.3604 5.62402 36.9574 5.4668 37.6318 5.4668C38.6299 5.4668 39.4388 5.78809 40.0586 6.43066C40.6829 7.07324 41.0202 7.92546 41.0703 8.9873L41.0771 9.37695C41.0771 10.1061 40.9359 10.7578 40.6533 11.332C40.3753 11.9062 39.9743 12.3506 39.4502 12.665C38.9307 12.9795 38.3291 13.1367 37.6455 13.1367C36.6019 13.1367 35.7656 12.7904 35.1367 12.0977C34.5124 11.4004 34.2002 10.473 34.2002 9.31543V9.2334ZM35.8613 9.37695C35.8613 10.138 36.0186 10.735 36.333 11.168C36.6475 11.5964 37.085 11.8105 37.6455 11.8105C38.2061 11.8105 38.6413 11.5918 38.9512 11.1543C39.2656 10.7168 39.4229 10.0765 39.4229 9.2334C39.4229 8.486 39.2611 7.89355 38.9375 7.45605C38.6185 7.01855 38.1833 6.7998 37.6318 6.7998C37.0895 6.7998 36.6589 7.01628 36.3398 7.44922C36.0208 7.8776 35.8613 8.52018 35.8613 9.37695ZM44.0234 5.60352L44.0713 6.45801C44.6182 5.7972 45.3359 5.4668 46.2246 5.4668C47.765 5.4668 48.5488 6.34863 48.5762 8.1123V13H46.915V8.20801C46.915 7.73861 46.8125 7.39225 46.6074 7.16895C46.4069 6.94108 46.0765 6.82715 45.6162 6.82715C44.9463 6.82715 44.4473 7.13021 44.1191 7.73633V13H42.458V5.60352H44.0234ZM52.3564 3.80566V5.60352H53.6621V6.83398H52.3564V10.9629C52.3564 11.2454 52.4111 11.4505 52.5205 11.5781C52.6344 11.7012 52.835 11.7627 53.1221 11.7627C53.3135 11.7627 53.5072 11.7399 53.7031 11.6943V12.9795C53.3249 13.0843 52.9603 13.1367 52.6094 13.1367C51.3333 13.1367 50.6953 12.4326 50.6953 11.0244V6.83398H49.4785V5.60352H50.6953V3.80566H52.3564ZM59.3564 13C59.2835 12.8587 59.2197 12.6286 59.165 12.3096C58.6364 12.861 57.9893 13.1367 57.2236 13.1367C56.4808 13.1367 55.8747 12.9248 55.4053 12.501C54.9359 12.0771 54.7012 11.5531 54.7012 10.9287C54.7012 10.1403 54.9928 9.53646 55.5762 9.11719C56.1641 8.69336 57.0026 8.48145 58.0918 8.48145H59.1104V7.99609C59.1104 7.61328 59.0033 7.30794 58.7891 7.08008C58.5749 6.84766 58.249 6.73145 57.8115 6.73145C57.4333 6.73145 57.1234 6.82715 56.8818 7.01855C56.6403 7.2054 56.5195 7.44466 56.5195 7.73633H54.8584C54.8584 7.33073 54.9928 6.95247 55.2617 6.60156C55.5306 6.24609 55.8952 5.9681 56.3555 5.76758C56.8203 5.56706 57.3376 5.4668 57.9072 5.4668C58.7731 5.4668 59.4635 5.68555 59.9785 6.12305C60.4935 6.55599 60.7578 7.16667 60.7715 7.95508V11.291C60.7715 11.9564 60.8649 12.4873 61.0518 12.8838V13H59.3564ZM57.5312 11.8037C57.8594 11.8037 58.167 11.724 58.4541 11.5645C58.7458 11.4049 58.9645 11.1908 59.1104 10.9219V9.52734H58.2148C57.5996 9.52734 57.137 9.63444 56.8271 9.84863C56.5173 10.0628 56.3623 10.3659 56.3623 10.7578C56.3623 11.0768 56.4671 11.332 56.6768 11.5234C56.891 11.7103 57.1758 11.8037 57.5312 11.8037ZM64.2783 13H62.6172V5.60352H64.2783V13ZM62.5146 3.68262C62.5146 3.42741 62.5944 3.21549 62.7539 3.04688C62.918 2.87826 63.1504 2.79395 63.4512 2.79395C63.752 2.79395 63.9844 2.87826 64.1484 3.04688C64.3125 3.21549 64.3945 3.42741 64.3945 3.68262C64.3945 3.93327 64.3125 4.1429 64.1484 4.31152C63.9844 4.47559 63.752 4.55762 63.4512 4.55762C63.1504 4.55762 62.918 4.47559 62.7539 4.31152C62.5944 4.1429 62.5146 3.93327 62.5146 3.68262ZM67.6348 5.60352L67.6826 6.45801C68.2295 5.7972 68.9473 5.4668 69.8359 5.4668C71.3763 5.4668 72.1602 6.34863 72.1875 8.1123V13H70.5264V8.20801C70.5264 7.73861 70.4238 7.39225 70.2188 7.16895C70.0182 6.94108 69.6878 6.82715 69.2275 6.82715C68.5576 6.82715 68.0586 7.13021 67.7305 7.73633V13H66.0693V5.60352H67.6348ZM77.1436 13.1367C76.0908 13.1367 75.2363 12.8063 74.5801 12.1455C73.9284 11.4801 73.6025 10.596 73.6025 9.49316V9.28809C73.6025 8.5498 73.7438 7.89128 74.0264 7.3125C74.3135 6.72917 74.7145 6.27572 75.2295 5.95215C75.7445 5.62858 76.3187 5.4668 76.9521 5.4668C77.9593 5.4668 78.7363 5.78809 79.2832 6.43066C79.8346 7.07324 80.1104 7.98242 80.1104 9.1582V9.82812H75.2773C75.3275 10.4388 75.5303 10.9219 75.8857 11.2773C76.2458 11.6328 76.6969 11.8105 77.2393 11.8105C78.0003 11.8105 78.6201 11.5029 79.0986 10.8877L79.9941 11.7422C79.6979 12.1842 79.3014 12.5283 78.8047 12.7744C78.3125 13.016 77.7588 13.1367 77.1436 13.1367ZM76.9453 6.7998C76.4896 6.7998 76.1204 6.95931 75.8379 7.27832C75.5599 7.59733 75.3822 8.04167 75.3047 8.61133H78.4697V8.48828C78.4333 7.93229 78.2852 7.51302 78.0254 7.23047C77.7656 6.94336 77.4056 6.7998 76.9453 6.7998ZM85.2783 7.12109C85.0596 7.08464 84.834 7.06641 84.6016 7.06641C83.8405 7.06641 83.3278 7.35807 83.0635 7.94141V13H81.4023V5.60352H82.9883L83.0293 6.43066C83.4303 5.78809 83.9863 5.4668 84.6973 5.4668C84.9342 5.4668 85.1302 5.4987 85.2852 5.5625L85.2783 7.12109Z" fill="#BBBBBB"/>
<g opacity="0.8">
<path d="M10 39C10 37.3431 11.3431 36 13 36H67C68.6569 36 70 37.3431 70 39V93C70 94.6569 68.6569 96 67 96H13C11.3431 96 10 94.6569 10 93V39Z" fill="#1E73FF"/>
<path d="M41.855 69.8H40.0825V61.238L37.4678 62.1316V60.6301L41.6279 59.0994H41.855V69.8Z" fill="white"/>
</g>
<g opacity="0.8">
<path d="M10 109C10 107.343 11.3431 106 13 106H67C68.6569 106 70 107.343 70 109V163C70 164.657 68.6569 166 67 166H13C11.3431 166 10 164.657 10 163V109Z" fill="#1E73FF"/>
<path d="M44.2061 139.8H37.0356V138.577L40.5879 134.702C41.1006 134.131 41.4644 133.655 41.6792 133.274C41.8989 132.888 42.0088 132.503 42.0088 132.117C42.0088 131.609 41.8647 131.199 41.5767 130.886C41.2935 130.574 40.9102 130.418 40.4268 130.418C39.8506 130.418 39.4038 130.594 39.0864 130.945C38.769 131.297 38.6104 131.778 38.6104 132.388H36.8306C36.8306 131.739 36.9771 131.155 37.27 130.637C37.5679 130.115 37.9902 129.71 38.5371 129.422C39.0889 129.134 39.7236 128.99 40.4414 128.99C41.4766 128.99 42.292 129.251 42.8877 129.773C43.4883 130.291 43.7886 131.009 43.7886 131.927C43.7886 132.459 43.6372 133.018 43.3345 133.604C43.0366 134.185 42.5459 134.846 41.8623 135.589L39.2549 138.379H44.2061V139.8Z" fill="white"/>
</g>
<g opacity="0.8">
<path d="M10 179C10 177.343 11.3431 176 13 176H67C68.6569 176 70 177.343 70 179V233C70 234.657 68.6569 236 67 236H13C11.3431 236 10 234.657 10 233V179Z" fill="#1E73FF"/>
<path d="M39.0938 203.655H40.1777C40.7246 203.65 41.1567 203.509 41.4741 203.23C41.7964 202.952 41.9575 202.549 41.9575 202.022C41.9575 201.514 41.8232 201.121 41.5547 200.843C41.291 200.559 40.8857 200.418 40.3389 200.418C39.8604 200.418 39.4673 200.557 39.1597 200.835C38.8521 201.109 38.6982 201.468 38.6982 201.912H36.9185C36.9185 201.365 37.0625 200.867 37.3506 200.418C37.6436 199.969 38.0488 199.619 38.5664 199.37C39.0889 199.116 39.6724 198.99 40.3169 198.99C41.3813 198.99 42.2163 199.258 42.8218 199.795C43.4321 200.327 43.7373 201.07 43.7373 202.022C43.7373 202.5 43.5835 202.952 43.2759 203.377C42.9731 203.797 42.5801 204.114 42.0967 204.329C42.6826 204.529 43.127 204.844 43.4297 205.274C43.7373 205.703 43.8911 206.216 43.8911 206.812C43.8911 207.769 43.5615 208.531 42.9023 209.097C42.248 209.663 41.3862 209.947 40.3169 209.947C39.2915 209.947 38.4517 209.673 37.7974 209.126C37.1431 208.579 36.8159 207.852 36.8159 206.944H38.5957C38.5957 207.412 38.752 207.793 39.0645 208.086C39.3818 208.379 39.8066 208.526 40.3389 208.526C40.8906 208.526 41.3252 208.379 41.6426 208.086C41.96 207.793 42.1187 207.368 42.1187 206.812C42.1187 206.25 41.9526 205.818 41.6206 205.515C41.2886 205.213 40.7954 205.061 40.1411 205.061H39.0938V203.655Z" fill="white"/>
</g>
<path d="M205.707 305.233C205.317 305.624 204.683 305.624 204.293 305.233L197.929 298.87C197.538 298.479 197.538 297.846 197.929 297.455C198.319 297.065 198.953 297.065 199.343 297.455L205 303.112L210.657 297.455C211.047 297.065 211.681 297.065 212.071 297.455C212.462 297.846 212.462 298.479 212.071 298.87L205.707 305.233ZM204.293 26.7667C204.683 26.3761 205.317 26.3761 205.707 26.7667L212.071 33.1306C212.462 33.5211 212.462 34.1543 212.071 34.5448C211.681 34.9354 211.047 34.9354 210.657 34.5448L205 28.888L199.343 34.5448C198.953 34.9354 198.319 34.9354 197.929 34.5448C197.538 34.1543 197.538 33.5211 197.929 33.1306L204.293 26.7667ZM204 304.526V301.558H206V304.526H204ZM204 297.6V291.663H206V297.6H204ZM204 287.705V281.768H206V287.705H204ZM204 277.811V271.874H206V277.811H204ZM204 267.916V261.979H206V267.916H204ZM204 258.021V252.084H206V258.021H204ZM204 248.126V242.19H206V248.126H204ZM204 238.232V232.295H206V238.232H204ZM204 228.337V222.4H206V228.337H204ZM204 218.442V212.505H206V218.442H204ZM204 208.547V202.611H206V208.547H204ZM204 198.653V192.716H206V198.653H204ZM204 188.758V182.821H206V188.758H204ZM204 178.863V172.926H206V178.863H204ZM204 168.968V163.032H206V168.968H204ZM204 159.074V153.137H206V159.074H204ZM204 149.179V143.242H206V149.179H204ZM204 139.284V133.347H206V139.284H204ZM204 129.389V123.453H206V129.389H204ZM204 119.495V113.558H206V119.495H204ZM204 109.6V103.663H206V109.6H204ZM204 99.7053V93.7684H206V99.7053H204ZM204 89.8105V83.8737H206V89.8105H204ZM204 79.9158V73.9789H206V79.9158H204ZM204 70.021V64.0842H206V70.021H204ZM204 60.1263V54.1894H206V60.1263H204ZM204 50.2315V44.2947H206V50.2315H204ZM204 40.3368V34.4H206V40.3368H204ZM204 30.4421V27.4738H206V30.4421H204Z" fill="#1E73FF"/>
<path d="M174.985 163.142L175.051 164.028C175.612 163.34 176.372 162.996 177.329 162.996C178.349 162.996 179.05 163.398 179.431 164.204C179.987 163.398 180.781 162.996 181.811 162.996C182.67 162.996 183.31 163.247 183.73 163.75C184.15 164.248 184.36 165 184.36 166.006V171.067H182.236V166.013C182.236 165.564 182.148 165.237 181.972 165.032C181.796 164.822 181.486 164.717 181.042 164.717C180.407 164.717 179.968 165.02 179.724 165.625L179.731 171.067H177.614V166.021C177.614 165.562 177.524 165.229 177.343 165.024C177.163 164.819 176.855 164.717 176.42 164.717C175.82 164.717 175.385 164.966 175.117 165.464V171.067H173V163.142H174.985Z" fill="#1E73FF"/>
<path d="M190.585 171.067C190.488 170.876 190.417 170.64 190.373 170.356C189.86 170.928 189.194 171.213 188.374 171.213C187.597 171.213 186.953 170.989 186.44 170.54C185.932 170.09 185.678 169.524 185.678 168.84C185.678 168 185.988 167.356 186.608 166.907C187.233 166.458 188.134 166.23 189.311 166.226H190.285V165.771C190.285 165.405 190.19 165.112 190 164.893C189.814 164.673 189.519 164.563 189.113 164.563C188.757 164.563 188.476 164.648 188.271 164.819C188.071 164.99 187.971 165.225 187.971 165.522H185.854C185.854 165.063 185.996 164.639 186.279 164.248C186.562 163.857 186.962 163.552 187.48 163.333C187.998 163.108 188.579 162.996 189.223 162.996C190.2 162.996 190.974 163.242 191.545 163.735C192.121 164.224 192.409 164.912 192.409 165.801V169.236C192.414 169.988 192.519 170.557 192.724 170.942V171.067H190.585ZM188.835 169.595C189.147 169.595 189.436 169.526 189.699 169.39C189.963 169.248 190.158 169.06 190.285 168.826V167.463H189.494C188.435 167.463 187.871 167.83 187.802 168.562L187.795 168.687C187.795 168.95 187.888 169.167 188.073 169.338C188.259 169.509 188.513 169.595 188.835 169.595Z" fill="#1E73FF"/>
<path d="M196.269 171.067H194.145V163.142H196.269V171.067ZM194.021 161.091C194.021 160.774 194.125 160.513 194.335 160.308C194.55 160.103 194.841 160 195.207 160C195.568 160 195.856 160.103 196.071 160.308C196.286 160.513 196.394 160.774 196.394 161.091C196.394 161.414 196.284 161.677 196.064 161.882C195.849 162.087 195.563 162.19 195.207 162.19C194.851 162.19 194.562 162.087 194.343 161.882C194.128 161.677 194.021 161.414 194.021 161.091Z" fill="#1E73FF"/>
<path d="M199.968 163.142L200.034 164.058C200.6 163.35 201.359 162.996 202.312 162.996C203.151 162.996 203.776 163.242 204.187 163.735C204.597 164.229 204.807 164.966 204.816 165.947V171.067H202.7V165.999C202.7 165.549 202.602 165.225 202.407 165.024C202.211 164.819 201.887 164.717 201.433 164.717C200.837 164.717 200.39 164.971 200.092 165.479V171.067H197.976V163.142H199.968Z" fill="#1E73FF"/>
<path d="M214.755 171.067C214.658 170.876 214.587 170.64 214.543 170.356C214.03 170.928 213.364 171.213 212.543 171.213C211.767 171.213 211.123 170.989 210.61 170.54C210.102 170.09 209.848 169.524 209.848 168.84C209.848 168 210.158 167.356 210.778 166.907C211.403 166.458 212.304 166.23 213.481 166.226H214.455V165.771C214.455 165.405 214.36 165.112 214.169 164.893C213.984 164.673 213.688 164.563 213.283 164.563C212.927 164.563 212.646 164.648 212.441 164.819C212.241 164.99 212.141 165.225 212.141 165.522H210.024C210.024 165.063 210.166 164.639 210.449 164.248C210.732 163.857 211.132 163.552 211.65 163.333C212.167 163.108 212.749 162.996 213.393 162.996C214.37 162.996 215.144 163.242 215.715 163.735C216.291 164.224 216.579 164.912 216.579 165.801V169.236C216.584 169.988 216.689 170.557 216.894 170.942V171.067H214.755ZM213.005 169.595C213.317 169.595 213.605 169.526 213.869 169.39C214.133 169.248 214.328 169.06 214.455 168.826V167.463H213.664C212.604 167.463 212.041 167.83 211.972 168.562L211.965 168.687C211.965 168.95 212.058 169.167 212.243 169.338C212.429 169.509 212.683 169.595 213.005 169.595Z" fill="#1E73FF"/>
<path d="M221.223 165.508L222.556 163.142H224.819L222.563 167.024L224.914 171.067H222.644L221.23 168.577L219.824 171.067H217.546L219.897 167.024L217.648 163.142H219.919L221.223 165.508Z" fill="#1E73FF"/>
<path d="M228.071 171.067H225.947V163.142H228.071V171.067ZM225.822 161.091C225.822 160.774 225.927 160.513 226.137 160.308C226.352 160.103 226.643 160 227.009 160C227.37 160 227.658 160.103 227.873 160.308C228.088 160.513 228.195 160.774 228.195 161.091C228.195 161.414 228.085 161.677 227.866 161.882C227.651 162.087 227.365 162.19 227.009 162.19C226.652 162.19 226.364 162.087 226.145 161.882C225.93 161.677 225.822 161.414 225.822 161.091Z" fill="#1E73FF"/>
<path d="M234.113 168.877C234.113 168.618 233.984 168.416 233.725 168.269C233.471 168.118 233.061 167.983 232.495 167.866C230.61 167.471 229.667 166.67 229.667 165.464C229.667 164.761 229.958 164.175 230.539 163.706C231.125 163.232 231.889 162.996 232.832 162.996C233.837 162.996 234.641 163.232 235.241 163.706C235.847 164.18 236.149 164.795 236.149 165.552H234.033C234.033 165.249 233.935 165 233.74 164.805C233.544 164.604 233.239 164.504 232.824 164.504C232.468 164.504 232.192 164.585 231.997 164.746C231.801 164.907 231.704 165.112 231.704 165.361C231.704 165.596 231.813 165.786 232.033 165.933C232.258 166.074 232.634 166.199 233.161 166.306C233.688 166.409 234.133 166.526 234.494 166.658C235.612 167.068 236.171 167.778 236.171 168.789C236.171 169.512 235.861 170.098 235.241 170.547C234.621 170.991 233.82 171.213 232.839 171.213C232.175 171.213 231.584 171.096 231.066 170.862C230.554 170.623 230.151 170.298 229.858 169.888C229.565 169.473 229.418 169.026 229.418 168.547H231.425C231.445 168.923 231.584 169.211 231.843 169.412C232.102 169.612 232.448 169.712 232.883 169.712C233.288 169.712 233.593 169.636 233.798 169.485C234.008 169.329 234.113 169.126 234.113 168.877Z" fill="#1E73FF"/>
<path fill-rule="evenodd" clip-rule="evenodd" d="M179.031 163.618C179.017 163.603 179.003 163.589 178.988 163.575C178.664 163.261 178.238 163.075 177.711 163.016C177.589 163.002 177.462 162.996 177.329 162.996C177.059 162.996 176.805 163.023 176.567 163.078C176.517 163.089 176.468 163.101 176.42 163.115C176.39 163.124 176.361 163.133 176.331 163.142C175.828 163.304 175.401 163.599 175.051 164.028L174.985 163.142H173V171.067H175.117V165.464C175.267 165.185 175.469 164.985 175.723 164.862C175.798 164.825 175.879 164.796 175.964 164.773C176.104 164.736 176.256 164.717 176.42 164.717C176.649 164.717 176.842 164.745 177 164.802C177.135 164.85 177.245 164.919 177.329 165.008C177.334 165.014 177.338 165.019 177.343 165.024C177.376 165.062 177.406 165.103 177.433 165.149C177.485 165.238 177.526 165.343 177.556 165.464C177.569 165.516 177.579 165.57 177.588 165.628C177.605 165.746 177.614 165.877 177.614 166.021V171.067H179.731L179.724 165.625C179.871 165.26 180.09 165.004 180.379 164.859C180.569 164.764 180.79 164.717 181.042 164.717C181.213 164.717 181.365 164.732 181.496 164.764C181.619 164.793 181.723 164.835 181.811 164.891C181.836 164.907 181.859 164.924 181.881 164.942C181.915 164.969 181.945 164.999 181.972 165.032C182.002 165.067 182.03 165.106 182.055 165.148C182.057 165.151 182.059 165.155 182.06 165.158C182.119 165.259 182.162 165.381 182.192 165.522C182.198 165.554 182.204 165.588 182.209 165.622C182.227 165.738 182.236 165.866 182.236 166.006C182.236 166.008 182.236 166.011 182.236 166.013V171.067H184.36V166.006C184.36 165.838 184.354 165.676 184.342 165.522C184.309 165.084 184.228 164.703 184.099 164.38C184.039 164.228 183.967 164.088 183.886 163.961C183.837 163.886 183.786 163.816 183.73 163.75C183.699 163.713 183.666 163.676 183.632 163.642C183.627 163.636 183.621 163.63 183.615 163.624C183.305 163.313 182.894 163.118 182.382 163.038C182.254 163.017 182.12 163.005 181.98 162.999C181.925 162.997 181.868 162.996 181.811 162.996C181.538 162.996 181.282 163.024 181.042 163.08C180.988 163.093 180.935 163.107 180.883 163.123C180.291 163.299 179.807 163.66 179.431 164.204C179.323 163.976 179.19 163.781 179.031 163.618ZM185.339 159.925C184.204 159.236 182.94 158.996 181.811 158.996C181.026 158.996 180.266 159.114 179.551 159.35C178.791 159.09 178.029 158.996 177.329 158.996C176.825 158.996 176.329 159.044 175.846 159.142H169V175.067H186.887C187.379 175.167 187.877 175.213 188.374 175.213C188.863 175.213 189.346 175.165 189.817 175.067H208.816V174.177C209.398 174.542 210.015 174.803 210.648 174.971L210.593 175.067H211.057C211.549 175.167 212.047 175.213 212.543 175.213C213.033 175.213 213.516 175.165 213.987 175.067H231.212C231.755 175.168 232.301 175.213 232.839 175.213C234.417 175.213 236.1 174.852 237.571 173.798L237.579 173.792L237.588 173.786C238.977 172.78 239.915 171.308 240.126 169.552H240.149V169.322C240.164 169.147 240.171 168.969 240.171 168.789C240.171 168.611 240.164 168.431 240.149 168.252V165.552C240.149 163.545 239.265 161.778 237.713 160.561C236.213 159.38 234.45 158.996 232.832 158.996C232.485 158.996 232.133 159.015 231.781 159.056C231.524 158.46 231.144 157.9 230.635 157.414C229.521 156.351 228.163 156 227.009 156C225.866 156 224.499 156.342 223.375 157.414L223.359 157.43L223.342 157.446C222.825 157.951 222.448 158.53 222.199 159.142H215.014C214.468 159.04 213.923 158.996 213.393 158.996C212.854 158.996 212.31 159.041 211.77 159.142H210.709L210.842 159.372C210.583 159.452 210.326 159.547 210.072 159.657C209.139 160.055 208.245 160.654 207.518 161.508C207.438 161.397 207.352 161.286 207.262 161.178C205.871 159.506 203.946 158.996 202.312 158.996C201.81 158.996 201.317 159.044 200.84 159.142H200.015C199.758 158.513 199.367 157.924 198.833 157.414C197.72 156.351 196.361 156 195.207 156C194.065 156 192.697 156.342 191.574 157.414L191.557 157.43L191.54 157.446C191.042 157.933 190.674 158.487 190.425 159.075C190.02 159.02 189.617 158.996 189.223 158.996C188.113 158.996 186.985 159.19 185.902 159.657C185.713 159.738 185.525 159.827 185.339 159.925ZM186.079 164.576C185.929 164.873 185.854 165.189 185.854 165.522H187.971C187.971 165.507 187.971 165.491 187.972 165.475C187.979 165.26 188.042 165.079 188.16 164.934C188.163 164.929 188.166 164.925 188.17 164.921C188.2 164.885 188.234 164.851 188.271 164.819C188.277 164.814 188.283 164.809 188.289 164.804C188.493 164.643 188.767 164.563 189.113 164.563C189.151 164.563 189.187 164.564 189.223 164.566C189.251 164.567 189.278 164.569 189.304 164.572C189.306 164.572 189.309 164.572 189.311 164.573C189.375 164.579 189.436 164.589 189.494 164.602C189.682 164.646 189.834 164.725 189.95 164.839C189.967 164.856 189.984 164.874 190 164.893C190.057 164.958 190.105 165.031 190.145 165.11C190.172 165.163 190.195 165.219 190.214 165.277C190.216 165.284 190.218 165.291 190.22 165.298C190.242 165.369 190.258 165.444 190.269 165.522C190.28 165.601 190.285 165.684 190.285 165.771V166.226H189.311C189.282 166.226 189.252 166.226 189.223 166.226C189.186 166.227 189.15 166.228 189.113 166.229C189.08 166.229 189.047 166.23 189.015 166.232C188.954 166.234 188.894 166.237 188.835 166.241C188.805 166.242 188.775 166.244 188.745 166.247C188.736 166.247 188.727 166.248 188.718 166.249C188.706 166.25 188.694 166.25 188.682 166.251C188.638 166.255 188.594 166.259 188.55 166.264C188.502 166.268 188.456 166.274 188.409 166.279C188.405 166.28 188.402 166.28 188.398 166.281C188.385 166.282 188.373 166.284 188.36 166.285C188.356 166.286 188.352 166.287 188.348 166.287C188.267 166.298 188.187 166.31 188.109 166.324C188.092 166.327 188.075 166.33 188.058 166.333C188.028 166.339 187.999 166.344 187.971 166.35C187.552 166.435 187.187 166.564 186.877 166.737C186.782 166.789 186.693 166.846 186.608 166.907C186.599 166.913 186.59 166.92 186.581 166.927C186.452 167.023 186.337 167.128 186.236 167.241C186.073 167.423 185.946 167.628 185.854 167.856C185.79 168.015 185.743 168.186 185.714 168.367C185.71 168.391 185.707 168.415 185.704 168.439C185.698 168.479 185.694 168.521 185.69 168.563C185.687 168.603 185.684 168.645 185.682 168.687C185.679 168.737 185.678 168.788 185.678 168.84C185.678 169.082 185.71 169.31 185.774 169.522C185.864 169.824 186.018 170.095 186.236 170.338C186.299 170.407 186.367 170.475 186.44 170.54C186.539 170.626 186.642 170.704 186.751 170.774C186.814 170.815 186.88 170.853 186.946 170.888C187.082 170.959 187.224 171.019 187.374 171.067C187.674 171.163 188.003 171.212 188.36 171.213C188.364 171.213 188.369 171.213 188.374 171.213C188.454 171.213 188.532 171.211 188.609 171.205C188.686 171.2 188.761 171.192 188.835 171.181C189.001 171.157 189.16 171.119 189.312 171.067C189.374 171.046 189.435 171.022 189.494 170.997C189.534 170.98 189.573 170.962 189.612 170.942C189.803 170.847 189.981 170.728 190.145 170.583C190.185 170.548 190.223 170.512 190.261 170.474C190.266 170.47 190.27 170.465 190.274 170.461C190.278 170.457 190.282 170.454 190.285 170.45C190.315 170.42 190.344 170.389 190.373 170.356C190.405 170.565 190.452 170.748 190.514 170.906C190.518 170.918 190.523 170.93 190.528 170.942C190.539 170.969 190.55 170.995 190.562 171.02C190.57 171.036 190.578 171.051 190.585 171.067H192.724V170.942C192.621 170.749 192.544 170.51 192.491 170.226C192.484 170.185 192.477 170.143 192.47 170.1C192.467 170.078 192.464 170.055 192.461 170.033C192.459 170.022 192.458 170.012 192.457 170.002C192.427 169.772 192.411 169.517 192.409 169.236V165.801C192.409 165.791 192.409 165.781 192.409 165.771C192.408 165.644 192.401 165.521 192.388 165.402C192.366 165.198 192.327 165.005 192.269 164.825C192.213 164.65 192.141 164.487 192.053 164.336C192.046 164.325 192.039 164.314 192.033 164.303C191.903 164.09 191.741 163.901 191.545 163.735C191.516 163.71 191.486 163.686 191.456 163.662C191.45 163.657 191.443 163.652 191.437 163.647C191.355 163.583 191.269 163.524 191.179 163.47C191.175 163.468 191.172 163.465 191.168 163.463C190.95 163.332 190.708 163.229 190.444 163.153C190.432 163.149 190.419 163.146 190.406 163.142C190.367 163.131 190.326 163.121 190.285 163.111C190.239 163.1 190.192 163.09 190.145 163.08C189.886 163.029 189.608 163.001 189.311 162.996C189.307 162.996 189.302 162.996 189.298 162.996C189.273 162.996 189.248 162.996 189.223 162.996C189.186 162.996 189.15 162.996 189.113 162.997C188.707 163.005 188.326 163.059 187.971 163.159C187.953 163.163 187.936 163.169 187.918 163.174C187.767 163.218 187.621 163.271 187.48 163.333C187.368 163.38 187.262 163.432 187.161 163.487C187.155 163.49 187.148 163.494 187.142 163.497C186.785 163.697 186.497 163.947 186.279 164.248C186.269 164.261 186.26 164.275 186.25 164.288C186.185 164.382 186.128 164.478 186.079 164.576ZM194.145 171.067H196.269V163.142H194.145V171.067ZM194.063 160.764C194.056 160.789 194.05 160.814 194.045 160.839C194.029 160.919 194.021 161.003 194.021 161.091C194.021 161.292 194.062 161.469 194.145 161.624C194.196 161.719 194.261 161.805 194.343 161.882C194.383 161.92 194.426 161.954 194.47 161.985C194.67 162.122 194.916 162.19 195.207 162.19C195.282 162.19 195.354 162.185 195.422 162.176C195.62 162.15 195.792 162.087 195.937 161.986C195.945 161.981 195.952 161.975 195.959 161.97C195.996 161.943 196.031 161.914 196.064 161.882C196.149 161.803 196.217 161.716 196.269 161.619C196.352 161.465 196.394 161.289 196.394 161.091C196.394 160.894 196.352 160.718 196.269 160.565C196.219 160.471 196.153 160.385 196.071 160.308C196.032 160.27 195.989 160.235 195.945 160.204C195.937 160.199 195.93 160.194 195.923 160.19C195.729 160.063 195.491 160 195.207 160C194.919 160 194.678 160.063 194.484 160.19C194.477 160.195 194.47 160.199 194.462 160.204C194.417 160.235 194.375 160.27 194.335 160.308C194.258 160.384 194.194 160.468 194.145 160.559C194.128 160.591 194.113 160.623 194.099 160.657C194.085 160.692 194.073 160.727 194.063 160.764ZM196.9 159.142L197.072 158.958C196.775 158.681 196.427 158.474 196.065 158.345C195.714 158.22 195.412 158.19 195.207 158.19C195.003 158.19 194.696 158.219 194.337 158.348C193.979 158.477 193.633 158.682 193.335 158.958C193.329 158.963 193.324 158.968 193.319 158.973C193.313 158.978 193.308 158.984 193.302 158.989C193.263 159.026 193.225 159.065 193.188 159.105C193.184 159.11 193.179 159.115 193.175 159.119C193.168 159.127 193.161 159.135 193.154 159.142H196.9ZM196.958 159.142H197.254C197.242 159.13 197.231 159.117 197.219 159.105C197.182 159.065 197.144 159.026 197.105 158.989L196.958 159.142ZM197.976 171.067H200.092V165.479C200.146 165.386 200.205 165.303 200.269 165.227C200.453 165.01 200.677 164.863 200.942 164.784C201.092 164.739 201.256 164.717 201.433 164.717C201.641 164.717 201.822 164.738 201.976 164.781C202.108 164.818 202.22 164.871 202.312 164.94C202.346 164.966 202.378 164.994 202.407 165.024C202.44 165.059 202.471 165.097 202.499 165.139C202.562 165.233 202.61 165.347 202.643 165.479C202.678 165.615 202.696 165.771 202.699 165.947C202.699 165.954 202.699 165.961 202.7 165.968C202.7 165.978 202.7 165.988 202.7 165.999V171.067H204.816V165.947C204.807 164.966 204.597 164.229 204.187 163.735C204.131 163.668 204.071 163.606 204.007 163.548C203.999 163.54 203.99 163.532 203.981 163.525C203.975 163.519 203.968 163.513 203.961 163.508C203.56 163.166 203.01 162.996 202.312 162.996C201.998 162.996 201.705 163.034 201.433 163.111C201.398 163.121 201.364 163.131 201.33 163.142C200.929 163.273 200.575 163.49 200.269 163.795C200.187 163.876 200.109 163.964 200.034 164.058L199.968 163.142H197.976V171.067ZM225.947 171.067H228.071V163.142H225.947V171.067ZM224.819 163.142H222.556L221.223 165.508L219.919 163.142H217.648L219.897 167.024L217.546 171.067H219.824L221.23 168.577L222.644 171.067H224.914L222.563 167.024L224.819 163.142ZM216.495 165.029C216.41 164.665 216.259 164.346 216.042 164.073C215.946 163.951 215.837 163.839 215.715 163.735C215.686 163.71 215.656 163.686 215.626 163.662C215.62 163.657 215.613 163.652 215.607 163.647C215.525 163.583 215.439 163.524 215.349 163.47C215.345 163.468 215.342 163.465 215.338 163.463C215.076 163.306 214.782 163.189 214.455 163.111C214.157 163.04 213.833 163.002 213.481 162.996C213.476 162.996 213.472 162.996 213.468 162.996C213.443 162.996 213.418 162.996 213.393 162.996C213.356 162.996 213.32 162.996 213.283 162.997C213.171 162.999 213.06 163.005 212.952 163.014C212.668 163.038 212.397 163.086 212.141 163.159C211.971 163.206 211.808 163.264 211.65 163.333C211.538 163.38 211.432 163.432 211.331 163.487C211.324 163.49 211.318 163.494 211.312 163.497C210.955 163.697 210.667 163.947 210.449 164.248C210.439 164.261 210.43 164.275 210.42 164.288C210.156 164.668 210.024 165.079 210.024 165.522H212.141C212.141 165.507 212.141 165.491 212.141 165.475C212.149 165.26 212.212 165.079 212.33 164.934C212.333 164.929 212.336 164.925 212.339 164.921C212.37 164.885 212.404 164.851 212.441 164.819C212.646 164.648 212.927 164.563 213.283 164.563C213.321 164.563 213.357 164.564 213.393 164.566C213.421 164.567 213.448 164.569 213.474 164.572C213.476 164.572 213.479 164.572 213.481 164.573C213.545 164.579 213.606 164.589 213.664 164.602C213.761 164.625 213.849 164.657 213.927 164.699C214 164.737 214.064 164.784 214.12 164.839C214.137 164.856 214.154 164.874 214.169 164.893C214.22 164.95 214.263 165.013 214.3 165.082C214.333 165.143 214.361 165.208 214.384 165.277C214.386 165.284 214.388 165.291 214.39 165.298C214.412 165.369 214.428 165.444 214.439 165.522C214.442 165.547 214.445 165.571 214.447 165.596C214.452 165.653 214.455 165.711 214.455 165.771V166.226H213.481C213.451 166.226 213.422 166.226 213.393 166.226C213.356 166.227 213.32 166.228 213.283 166.229C213.25 166.229 213.217 166.23 213.185 166.232C213.124 166.234 213.064 166.237 213.005 166.241C212.975 166.242 212.944 166.244 212.915 166.247C212.906 166.247 212.897 166.248 212.888 166.249C212.876 166.25 212.864 166.25 212.852 166.251C212.808 166.255 212.763 166.259 212.72 166.264C212.672 166.268 212.625 166.274 212.579 166.279C212.575 166.28 212.572 166.28 212.568 166.281C212.551 166.283 212.535 166.285 212.518 166.287C212.437 166.298 212.357 166.31 212.279 166.324C212.262 166.327 212.245 166.33 212.228 166.333C212.198 166.339 212.169 166.344 212.141 166.35C211.722 166.435 211.357 166.564 211.047 166.737C210.952 166.789 210.863 166.846 210.778 166.907C210.769 166.913 210.76 166.92 210.751 166.927C210.415 167.177 210.172 167.487 210.024 167.856C209.96 168.015 209.913 168.186 209.884 168.367C209.88 168.391 209.877 168.415 209.874 168.439C209.868 168.479 209.864 168.521 209.86 168.563C209.856 168.603 209.854 168.645 209.852 168.687C209.849 168.737 209.848 168.788 209.848 168.84C209.848 169.082 209.88 169.31 209.944 169.522C210.06 169.91 210.282 170.249 210.61 170.54C210.709 170.626 210.812 170.704 210.921 170.774C210.984 170.815 211.049 170.853 211.116 170.888C211.528 171.105 212.004 171.213 212.543 171.213C212.623 171.213 212.702 171.211 212.779 171.205C212.8 171.204 212.821 171.202 212.841 171.2C212.897 171.195 212.951 171.189 213.005 171.181C213.171 171.157 213.33 171.119 213.482 171.067C213.544 171.046 213.605 171.022 213.664 170.997C213.704 170.98 213.743 170.962 213.781 170.942C214.019 170.825 214.235 170.668 214.431 170.474C214.436 170.47 214.44 170.465 214.444 170.461C214.448 170.457 214.452 170.454 214.455 170.45C214.485 170.42 214.514 170.389 214.543 170.356C214.575 170.565 214.622 170.748 214.684 170.906C214.688 170.918 214.693 170.93 214.698 170.942C214.709 170.969 214.72 170.995 214.732 171.02C214.74 171.036 214.747 171.051 214.755 171.067H216.894V170.942C216.841 170.843 216.795 170.731 216.755 170.607C216.718 170.491 216.687 170.364 216.661 170.226C216.654 170.185 216.647 170.143 216.64 170.1C216.637 170.078 216.634 170.055 216.631 170.033C216.629 170.022 216.628 170.012 216.626 170.002C216.597 169.772 216.581 169.517 216.579 169.236V165.801C216.579 165.791 216.579 165.781 216.579 165.771C216.578 165.612 216.567 165.458 216.547 165.312C216.535 165.221 216.519 165.134 216.5 165.048C216.498 165.042 216.497 165.035 216.495 165.029ZM214.455 167.463H213.664C213.603 167.463 213.544 167.465 213.486 167.467C213.484 167.467 213.483 167.467 213.481 167.467C213.413 167.47 213.347 167.475 213.283 167.481C213.254 167.484 213.226 167.487 213.198 167.491C213.131 167.5 213.066 167.51 213.005 167.523C212.973 167.529 212.942 167.536 212.912 167.544C212.902 167.547 212.892 167.549 212.882 167.552C212.771 167.581 212.67 167.619 212.579 167.663C212.567 167.669 212.555 167.675 212.543 167.681C212.51 167.699 212.478 167.718 212.447 167.738C212.319 167.82 212.217 167.922 212.141 168.041C212.119 168.075 212.099 168.111 212.082 168.147C212.069 168.174 212.057 168.202 212.046 168.231C212.009 168.33 211.984 168.438 211.973 168.556C211.973 168.558 211.972 168.56 211.972 168.562L211.965 168.687C211.965 168.734 211.968 168.781 211.974 168.826C211.975 168.831 211.975 168.835 211.976 168.84C211.982 168.879 211.99 168.916 212.001 168.952C212.002 168.956 212.003 168.96 212.004 168.964C212.033 169.06 212.079 169.148 212.141 169.227C212.171 169.266 212.205 169.303 212.243 169.338C212.329 169.417 212.429 169.478 212.543 169.52C212.545 169.521 212.547 169.522 212.549 169.522C212.561 169.527 212.572 169.531 212.584 169.534C212.617 169.545 212.652 169.554 212.687 169.562C212.693 169.564 212.699 169.565 212.705 169.566C212.797 169.585 212.897 169.595 213.005 169.595C213.17 169.595 213.329 169.576 213.481 169.537C213.486 169.536 213.49 169.535 213.495 169.534C213.508 169.53 213.522 169.526 213.536 169.522C213.555 169.517 213.575 169.511 213.594 169.505C213.617 169.497 213.641 169.489 213.664 169.48C213.669 169.479 213.674 169.477 213.679 169.475C213.743 169.45 213.807 169.422 213.869 169.39C213.882 169.383 213.894 169.376 213.906 169.369C213.97 169.333 214.029 169.294 214.085 169.252C214.092 169.247 214.099 169.241 214.106 169.236C214.147 169.204 214.186 169.17 214.222 169.134C214.314 169.044 214.39 168.944 214.451 168.833C214.453 168.83 214.454 168.828 214.455 168.826V167.463ZM224.956 159.142H228.702L228.874 158.958C228.577 158.681 228.229 158.474 227.867 158.345C227.515 158.22 227.213 158.19 227.009 158.19C226.805 158.19 226.498 158.219 226.139 158.348C225.781 158.477 225.435 158.682 225.137 158.958C225.131 158.963 225.126 158.968 225.12 158.973C225.115 158.979 225.109 158.984 225.104 158.989C225.065 159.026 225.027 159.065 224.99 159.105C224.985 159.11 224.981 159.115 224.977 159.119C224.97 159.127 224.963 159.135 224.956 159.142ZM226.145 161.882C226.063 161.805 225.997 161.719 225.947 161.624C225.864 161.469 225.822 161.292 225.822 161.091C225.822 160.892 225.864 160.714 225.947 160.559C225.996 160.468 226.059 160.384 226.137 160.308C226.177 160.27 226.219 160.235 226.264 160.204C226.271 160.199 226.279 160.195 226.286 160.19C226.48 160.063 226.721 160 227.009 160C227.292 160 227.531 160.063 227.724 160.19C227.732 160.194 227.739 160.199 227.746 160.204C227.791 160.235 227.833 160.27 227.873 160.308C227.953 160.384 228.018 160.468 228.068 160.56C228.069 160.562 228.07 160.563 228.071 160.565C228.1 160.619 228.124 160.676 228.143 160.737C228.144 160.74 228.145 160.743 228.146 160.746C228.179 160.853 228.195 160.968 228.195 161.091C228.195 161.289 228.154 161.465 228.071 161.619C228.019 161.716 227.95 161.803 227.866 161.882C227.833 161.914 227.798 161.943 227.761 161.97C227.754 161.975 227.746 161.981 227.739 161.986C227.543 162.122 227.299 162.19 227.009 162.19C226.872 162.19 226.745 162.175 226.628 162.144C226.497 162.11 226.378 162.057 226.272 161.985C226.227 161.954 226.185 161.92 226.145 161.882ZM229.947 164.382C229.916 164.436 229.887 164.491 229.861 164.547C229.746 164.798 229.682 165.069 229.67 165.361C229.668 165.395 229.667 165.429 229.667 165.464C229.667 165.475 229.668 165.485 229.668 165.496C229.673 165.862 229.766 166.19 229.947 166.481C229.974 166.524 230.002 166.566 230.033 166.607C230.144 166.757 230.281 166.897 230.443 167.025C230.496 167.068 230.553 167.109 230.612 167.149C230.745 167.239 230.893 167.323 231.054 167.401C231.059 167.404 231.065 167.407 231.07 167.409C231.078 167.413 231.087 167.417 231.095 167.421C231.101 167.424 231.108 167.427 231.114 167.43C231.213 167.476 231.317 167.519 231.425 167.561C231.624 167.637 231.839 167.705 232.071 167.766C232.186 167.797 232.306 167.825 232.429 167.852C232.442 167.855 232.454 167.858 232.467 167.86C232.476 167.862 232.485 167.864 232.495 167.866C232.535 167.874 232.574 167.883 232.612 167.891C232.616 167.892 232.62 167.893 232.624 167.894C232.63 167.895 232.637 167.897 232.643 167.898C232.652 167.9 232.66 167.902 232.668 167.904C232.722 167.916 232.774 167.928 232.824 167.941C232.825 167.941 232.827 167.941 232.828 167.942C232.832 167.943 232.835 167.943 232.839 167.944C232.84 167.945 232.841 167.945 232.842 167.945C232.856 167.949 232.869 167.952 232.883 167.955C232.907 167.962 232.931 167.968 232.955 167.974C233.106 168.015 233.241 168.057 233.36 168.101C233.415 168.121 233.466 168.142 233.514 168.162C233.523 168.166 233.532 168.17 233.541 168.175C233.61 168.205 233.671 168.237 233.725 168.269C233.742 168.278 233.758 168.288 233.773 168.298C233.807 168.32 233.839 168.342 233.868 168.366C233.868 168.367 233.869 168.367 233.87 168.368C233.889 168.384 233.908 168.401 233.925 168.418C233.968 168.461 234.004 168.508 234.033 168.558C234.073 168.629 234.098 168.706 234.108 168.789C234.112 168.818 234.113 168.847 234.113 168.877C234.113 168.907 234.112 168.937 234.109 168.966C234.108 168.971 234.107 168.976 234.107 168.981C234.096 169.066 234.071 169.146 234.033 169.219C233.98 169.319 233.902 169.408 233.798 169.485C233.765 169.509 233.73 169.531 233.692 169.552C233.607 169.597 233.51 169.633 233.399 169.659C233.397 169.66 233.395 169.66 233.393 169.661C233.252 169.693 233.09 169.71 232.908 169.712C232.9 169.712 232.891 169.712 232.883 169.712C232.877 169.712 232.871 169.712 232.865 169.712C232.856 169.712 232.848 169.712 232.839 169.712C232.721 169.71 232.609 169.7 232.504 169.683C232.494 169.681 232.484 169.68 232.474 169.678C232.452 169.674 232.43 169.67 232.408 169.665C232.312 169.644 232.223 169.616 232.14 169.582C232.138 169.581 232.137 169.581 232.135 169.58C232.113 169.571 232.092 169.562 232.071 169.552C232.071 169.552 232.072 169.552 232.071 169.552C231.989 169.512 231.912 169.465 231.843 169.412C231.818 169.392 231.794 169.372 231.771 169.351C231.766 169.347 231.761 169.342 231.757 169.338C231.626 169.212 231.533 169.059 231.479 168.877C231.469 168.84 231.459 168.802 231.451 168.763C231.451 168.759 231.45 168.755 231.449 168.751C231.437 168.686 231.429 168.618 231.425 168.547H229.418C229.418 168.582 229.419 168.617 229.421 168.651C229.426 168.771 229.441 168.889 229.465 169.005C229.529 169.313 229.66 169.608 229.858 169.888C229.886 169.928 229.916 169.967 229.947 170.005C230.125 170.229 230.34 170.425 230.589 170.593C230.663 170.643 230.739 170.69 230.819 170.735C230.898 170.78 230.981 170.822 231.066 170.862C231.182 170.914 231.302 170.961 231.425 171.002C231.497 171.025 231.57 171.047 231.644 171.067C231.7 171.082 231.757 171.095 231.814 171.108C231.817 171.109 231.82 171.109 231.823 171.11C231.885 171.123 231.947 171.135 232.01 171.146C232.03 171.15 232.05 171.153 232.071 171.156C232.077 171.157 232.083 171.158 232.089 171.159C232.328 171.195 232.578 171.213 232.839 171.213C232.854 171.213 232.868 171.213 232.883 171.213C233.619 171.208 234.252 171.077 234.783 170.819C234.785 170.818 234.787 170.817 234.789 170.816C234.949 170.738 235.1 170.648 235.241 170.547C235.626 170.268 235.892 169.936 236.038 169.552C236.091 169.412 236.128 169.266 236.149 169.113C236.16 169.036 236.167 168.957 236.17 168.877C236.171 168.848 236.171 168.819 236.171 168.789C236.171 168.673 236.164 168.562 236.149 168.454C236.075 167.905 235.81 167.458 235.356 167.113C235.317 167.083 235.277 167.054 235.235 167.026C235.114 166.945 234.981 166.87 234.837 166.801C234.777 166.773 234.714 166.745 234.65 166.718C234.637 166.713 234.624 166.708 234.612 166.703C234.573 166.687 234.534 166.672 234.494 166.658C234.366 166.611 234.227 166.566 234.078 166.523C234.063 166.518 234.048 166.514 234.033 166.51C233.846 166.457 233.643 166.407 233.424 166.36C233.386 166.352 233.347 166.344 233.308 166.335C233.273 166.328 233.237 166.321 233.201 166.314C233.196 166.313 233.192 166.312 233.187 166.311C233.178 166.309 233.17 166.308 233.161 166.306C233.063 166.286 232.97 166.266 232.883 166.244C232.867 166.241 232.852 166.237 232.837 166.233C232.836 166.233 232.834 166.233 232.833 166.232C232.832 166.232 232.832 166.232 232.832 166.232C232.829 166.231 232.827 166.231 232.824 166.23C232.709 166.201 232.603 166.171 232.506 166.14C232.504 166.139 232.503 166.138 232.501 166.138C232.477 166.13 232.453 166.122 232.43 166.114C232.422 166.111 232.414 166.108 232.406 166.106C232.343 166.083 232.285 166.06 232.231 166.036C232.172 166.01 232.118 165.983 232.071 165.955C232.058 165.948 232.045 165.94 232.033 165.933C232.028 165.929 232.023 165.925 232.017 165.922C231.87 165.819 231.774 165.696 231.731 165.552C231.722 165.523 231.716 165.494 231.711 165.464C231.706 165.431 231.704 165.396 231.704 165.361C231.704 165.296 231.71 165.234 231.724 165.175C231.724 165.174 231.724 165.173 231.724 165.172C231.762 165.007 231.853 164.864 231.997 164.746C232.02 164.727 232.045 164.708 232.071 164.691C232.169 164.626 232.284 164.578 232.416 164.547C232.538 164.519 232.674 164.504 232.824 164.504C232.827 164.504 232.829 164.504 232.832 164.504C232.866 164.505 232.899 164.505 232.932 164.507C232.949 164.508 232.966 164.508 232.982 164.51C233.053 164.514 233.12 164.523 233.184 164.534C233.187 164.535 233.19 164.535 233.193 164.536C233.212 164.539 233.23 164.543 233.248 164.547C233.332 164.567 233.41 164.592 233.48 164.624C233.482 164.626 233.485 164.627 233.487 164.628C233.492 164.63 233.497 164.633 233.502 164.635C233.594 164.68 233.673 164.736 233.74 164.805C233.872 164.937 233.96 165.095 234.003 165.277C234.003 165.28 234.004 165.283 234.005 165.287C234.01 165.311 234.015 165.336 234.019 165.361C234.028 165.422 234.033 165.486 234.033 165.552H236.149C236.149 165.375 236.133 165.205 236.1 165.044C236.013 164.619 235.811 164.248 235.495 163.93C235.493 163.929 235.492 163.928 235.491 163.926C235.427 163.862 235.358 163.8 235.284 163.74C235.27 163.729 235.256 163.717 235.241 163.706C235.172 163.651 235.1 163.6 235.025 163.551C235.018 163.547 235.012 163.543 235.006 163.539C234.72 163.357 234.396 163.221 234.033 163.131C233.995 163.122 233.957 163.113 233.919 163.104C233.889 163.098 233.859 163.091 233.828 163.086C233.825 163.085 233.821 163.084 233.818 163.083C233.808 163.082 233.798 163.08 233.789 163.078C233.493 163.023 233.174 162.996 232.832 162.996C232.829 162.996 232.827 162.996 232.824 162.996C232.559 162.996 232.308 163.015 232.071 163.053C231.974 163.069 231.88 163.087 231.789 163.109C231.745 163.119 231.701 163.13 231.658 163.142C231.392 163.215 231.147 163.316 230.923 163.444C230.787 163.522 230.659 163.609 230.539 163.706C230.353 163.856 230.197 164.018 230.07 164.192C230.063 164.202 230.056 164.212 230.049 164.222C230.012 164.274 229.978 164.328 229.947 164.382ZM229.055 159.142H228.76L228.906 158.989C228.945 159.026 228.984 159.065 229.021 159.105C229.033 159.117 229.044 159.13 229.055 159.142ZM190.285 167.463H189.494C189.433 167.463 189.374 167.465 189.316 167.467C189.314 167.467 189.313 167.467 189.311 167.467C189.243 167.47 189.177 167.475 189.113 167.481C189.084 167.484 189.056 167.487 189.028 167.491C188.961 167.5 188.897 167.51 188.835 167.523C188.803 167.529 188.772 167.536 188.742 167.544C188.732 167.547 188.722 167.549 188.712 167.552C188.601 167.581 188.5 167.619 188.409 167.663C188.397 167.669 188.385 167.675 188.374 167.681C188.369 167.684 188.364 167.686 188.36 167.689C188.331 167.704 188.303 167.721 188.277 167.738C188.15 167.82 188.048 167.922 187.971 168.041C187.949 168.075 187.929 168.111 187.912 168.147C187.899 168.174 187.887 168.202 187.876 168.231C187.839 168.33 187.814 168.438 187.803 168.556C187.803 168.558 187.802 168.56 187.802 168.562L187.795 168.687C187.795 168.734 187.798 168.781 187.804 168.826C187.805 168.831 187.805 168.835 187.806 168.84C187.812 168.879 187.82 168.916 187.831 168.952C187.832 168.956 187.833 168.96 187.834 168.964C187.863 169.06 187.909 169.148 187.971 169.227C188.001 169.266 188.035 169.303 188.073 169.338C188.155 169.414 188.251 169.473 188.36 169.515C188.364 169.517 188.369 169.519 188.374 169.52C188.376 169.521 188.377 169.522 188.379 169.522C188.391 169.527 188.402 169.531 188.414 169.534C188.447 169.545 188.482 169.554 188.517 169.562C188.523 169.564 188.529 169.565 188.535 169.566C188.627 169.585 188.727 169.595 188.835 169.595C189.001 169.595 189.159 169.576 189.311 169.537C189.316 169.536 189.32 169.535 189.325 169.534C189.338 169.53 189.352 169.526 189.366 169.522C189.385 169.517 189.405 169.511 189.424 169.505C189.448 169.497 189.471 169.489 189.494 169.48C189.499 169.479 189.504 169.477 189.509 169.475C189.574 169.45 189.637 169.422 189.699 169.39C189.777 169.348 189.849 169.302 189.915 169.252C189.922 169.247 189.929 169.241 189.936 169.236C190.014 169.174 190.084 169.107 190.145 169.033C190.197 168.971 190.242 168.904 190.281 168.833C190.283 168.83 190.284 168.828 190.285 168.826V167.463Z" fill="white"/>
<path d="M187.718 325.707C188.108 325.317 188.108 324.683 187.718 324.293L181.354 317.929C180.963 317.538 180.33 317.538 179.94 317.929C179.549 318.319 179.549 318.953 179.94 319.343L185.597 325L179.94 330.657C179.549 331.047 179.549 331.681 179.94 332.071C180.33 332.462 180.963 332.462 181.354 332.071L187.718 325.707ZM187.011 324L184.074 324L184.074 326L187.011 326L187.011 324ZM180.157 324L174.283 324L174.283 326L180.157 326L180.157 324ZM170.367 324L164.492 324L164.492 326L170.367 326L170.367 324ZM160.576 324L154.702 324L154.702 326L160.576 326L160.576 324ZM150.786 324L144.911 324L144.911 326L150.786 326L150.786 324ZM140.995 324L135.121 324L135.121 326L140.995 326L140.995 324ZM131.204 324L125.33 324L125.33 326L131.204 326L131.204 324ZM121.414 324L115.539 324L115.539 326L121.414 326L121.414 324ZM111.623 324L105.749 324L105.749 326L111.623 326L111.623 324ZM101.833 324L95.9583 324L95.9583 326L101.833 326L101.833 324ZM92.0421 324L86.1678 324L86.1678 326L92.0421 326L92.0421 324ZM82.2515 324L76.3772 324L76.3772 326L82.2515 326L82.2515 324ZM72.4609 324L66.5866 324L66.5866 326L72.4609 326L72.4609 324ZM62.6704 324L56.796 324L56.796 326L62.6704 326L62.6704 324ZM52.8798 324L47.0054 324L47.0054 326L52.8798 326L52.8798 324ZM43.0892 324L37.2149 324L37.2149 326L43.0892 326L43.0892 324ZM33.2986 324L27.4243 324L27.4243 326L33.2986 326L33.2986 324ZM23.5081 324L17.6337 324L17.6337 326L23.5081 326L23.5081 324ZM13.7175 324L7.84316 324L7.84316 326L13.7175 326L13.7175 324ZM3.92692 324L0.989687 324L0.989686 326L3.92692 326L3.92692 324Z" fill="#1E73FF"/>
<path d="M63.6255 327.507C64.0161 327.507 64.3335 327.399 64.5776 327.185C64.8218 326.97 64.9487 326.684 64.9585 326.328H66.9434C66.9385 326.865 66.792 327.358 66.5039 327.807C66.2158 328.251 65.8203 328.598 65.3174 328.847C64.8193 329.091 64.2676 329.213 63.6621 329.213C62.5293 329.213 61.6357 328.854 60.9814 328.137C60.3271 327.414 60 326.418 60 325.148V325.009C60 323.789 60.3247 322.814 60.9741 322.087C61.6235 321.359 62.5146 320.996 63.6475 320.996C64.6387 320.996 65.4321 321.279 66.0278 321.845C66.6284 322.407 66.9336 323.156 66.9434 324.094H64.9585C64.9487 323.684 64.8218 323.352 64.5776 323.098C64.3335 322.839 64.0112 322.709 63.6108 322.709C63.1177 322.709 62.7441 322.89 62.4902 323.251C62.2412 323.608 62.1167 324.189 62.1167 324.995V325.214C62.1167 326.03 62.2412 326.616 62.4902 326.972C62.7393 327.329 63.1177 327.507 63.6255 327.507Z" fill="#1E73FF"/>
<path d="M72.605 323.127C72.3169 323.088 72.063 323.068 71.8433 323.068C71.0425 323.068 70.5176 323.339 70.2686 323.881V329.067H68.1519V321.142H70.1514L70.21 322.087C70.6348 321.359 71.2231 320.996 71.9751 320.996C72.2095 320.996 72.4292 321.027 72.6343 321.091L72.605 323.127Z" fill="#1E73FF"/>
<path d="M73.0371 325.031C73.0371 324.245 73.1885 323.544 73.4912 322.929C73.7939 322.314 74.2285 321.838 74.7949 321.501C75.3662 321.164 76.0278 320.996 76.7798 320.996C77.8491 320.996 78.7207 321.323 79.3945 321.977C80.0732 322.631 80.4517 323.52 80.5298 324.643L80.5444 325.185C80.5444 326.401 80.2051 327.377 79.5264 328.115C78.8477 328.847 77.937 329.213 76.7944 329.213C75.6519 329.213 74.7388 328.847 74.0552 328.115C73.3765 327.382 73.0371 326.386 73.0371 325.126V325.031ZM75.1538 325.185C75.1538 325.937 75.2954 326.513 75.5786 326.914C75.8618 327.309 76.2671 327.507 76.7944 327.507C77.3071 327.507 77.7075 327.312 77.9956 326.921C78.2837 326.525 78.4277 325.896 78.4277 325.031C78.4277 324.294 78.2837 323.723 77.9956 323.317C77.7075 322.912 77.3022 322.709 76.7798 322.709C76.2622 322.709 75.8618 322.912 75.5786 323.317C75.2954 323.718 75.1538 324.34 75.1538 325.185Z" fill="#1E73FF"/>
<path d="M86.1401 326.877C86.1401 326.618 86.0107 326.416 85.752 326.269C85.498 326.118 85.0879 325.983 84.5215 325.866C82.6367 325.471 81.6943 324.67 81.6943 323.464C81.6943 322.761 81.9849 322.175 82.5659 321.706C83.1519 321.232 83.916 320.996 84.8584 320.996C85.8643 320.996 86.6675 321.232 87.2681 321.706C87.8735 322.18 88.1763 322.795 88.1763 323.552H86.0596C86.0596 323.249 85.9619 323 85.7666 322.805C85.5713 322.604 85.2661 322.504 84.8511 322.504C84.4946 322.504 84.2188 322.585 84.0234 322.746C83.8281 322.907 83.7305 323.112 83.7305 323.361C83.7305 323.596 83.8403 323.786 84.0601 323.933C84.2847 324.074 84.6606 324.199 85.188 324.306C85.7153 324.409 86.1597 324.526 86.521 324.658C87.6392 325.068 88.1982 325.778 88.1982 326.789C88.1982 327.512 87.8882 328.098 87.2681 328.547C86.6479 328.991 85.8472 329.213 84.8657 329.213C84.2017 329.213 83.6108 329.096 83.0933 328.862C82.5806 328.623 82.1777 328.298 81.8848 327.888C81.5918 327.473 81.4453 327.026 81.4453 326.547H83.4521C83.4717 326.923 83.6108 327.211 83.8696 327.412C84.1284 327.612 84.4751 327.712 84.9097 327.712C85.3149 327.712 85.6201 327.636 85.8252 327.485C86.0352 327.329 86.1401 327.126 86.1401 326.877Z" fill="#1E73FF"/>
<path d="M93.8599 326.877C93.8599 326.618 93.7305 326.416 93.4717 326.269C93.2178 326.118 92.8076 325.983 92.2412 325.866C90.3564 325.471 89.4141 324.67 89.4141 323.464C89.4141 322.761 89.7046 322.175 90.2856 321.706C90.8716 321.232 91.6357 320.996 92.5781 320.996C93.584 320.996 94.3872 321.232 94.9878 321.706C95.5933 322.18 95.896 322.795 95.896 323.552H93.7793C93.7793 323.249 93.6816 323 93.4863 322.805C93.291 322.604 92.9858 322.504 92.5708 322.504C92.2144 322.504 91.9385 322.585 91.7432 322.746C91.5479 322.907 91.4502 323.112 91.4502 323.361C91.4502 323.596 91.5601 323.786 91.7798 323.933C92.0044 324.074 92.3804 324.199 92.9077 324.306C93.4351 324.409 93.8794 324.526 94.2407 324.658C95.3589 325.068 95.918 325.778 95.918 326.789C95.918 327.512 95.6079 328.098 94.9878 328.547C94.3677 328.991 93.5669 329.213 92.5854 329.213C91.9214 329.213 91.3306 329.096 90.813 328.862C90.3003 328.623 89.8975 328.298 89.6045 327.888C89.3115 327.473 89.165 327.026 89.165 326.547H91.1719C91.1914 326.923 91.3306 327.211 91.5894 327.412C91.8481 327.612 92.1948 327.712 92.6294 327.712C93.0347 327.712 93.3398 327.636 93.5449 327.485C93.7549 327.329 93.8599 327.126 93.8599 326.877Z" fill="#1E73FF"/>
<path d="M105.615 329.067C105.518 328.876 105.447 328.64 105.403 328.356C104.89 328.928 104.224 329.213 103.403 329.213C102.627 329.213 101.982 328.989 101.47 328.54C100.962 328.09 100.708 327.524 100.708 326.84C100.708 326 101.018 325.356 101.638 324.907C102.263 324.458 103.164 324.23 104.341 324.226H105.315V323.771C105.315 323.405 105.22 323.112 105.029 322.893C104.844 322.673 104.548 322.563 104.143 322.563C103.787 322.563 103.506 322.648 103.301 322.819C103.101 322.99 103 323.225 103 323.522H100.884C100.884 323.063 101.025 322.639 101.309 322.248C101.592 321.857 101.992 321.552 102.51 321.333C103.027 321.108 103.608 320.996 104.253 320.996C105.229 320.996 106.003 321.242 106.575 321.735C107.151 322.224 107.439 322.912 107.439 323.801V327.236C107.444 327.988 107.549 328.557 107.754 328.942V329.067H105.615ZM103.865 327.595C104.177 327.595 104.465 327.526 104.729 327.39C104.993 327.248 105.188 327.06 105.315 326.826V325.463H104.524C103.464 325.463 102.9 325.83 102.832 326.562L102.825 326.687C102.825 326.95 102.917 327.167 103.103 327.338C103.289 327.509 103.542 327.595 103.865 327.595Z" fill="#1E73FF"/>
<path d="M112.083 323.508L113.416 321.142H115.679L113.423 325.024L115.774 329.067H113.503L112.09 326.577L110.684 329.067H108.406L110.757 325.024L108.508 321.142H110.779L112.083 323.508Z" fill="#1E73FF"/>
<path d="M118.931 329.067H116.807V321.142H118.931V329.067ZM116.682 319.091C116.682 318.774 116.787 318.513 116.997 318.308C117.212 318.103 117.502 318 117.869 318C118.23 318 118.518 318.103 118.733 318.308C118.948 318.513 119.055 318.774 119.055 319.091C119.055 319.414 118.945 319.677 118.726 319.882C118.511 320.087 118.225 320.19 117.869 320.19C117.512 320.19 117.224 320.087 117.004 319.882C116.79 319.677 116.682 319.414 116.682 319.091Z" fill="#1E73FF"/>
<path d="M124.973 326.877C124.973 326.618 124.844 326.416 124.585 326.269C124.331 326.118 123.921 325.983 123.354 325.866C121.47 325.471 120.527 324.67 120.527 323.464C120.527 322.761 120.818 322.175 121.399 321.706C121.985 321.232 122.749 320.996 123.691 320.996C124.697 320.996 125.5 321.232 126.101 321.706C126.707 322.18 127.009 322.795 127.009 323.552H124.893C124.893 323.249 124.795 323 124.6 322.805C124.404 322.604 124.099 322.504 123.684 322.504C123.328 322.504 123.052 322.585 122.856 322.746C122.661 322.907 122.563 323.112 122.563 323.361C122.563 323.596 122.673 323.786 122.893 323.933C123.118 324.074 123.494 324.199 124.021 324.306C124.548 324.409 124.993 324.526 125.354 324.658C126.472 325.068 127.031 325.778 127.031 326.789C127.031 327.512 126.721 328.098 126.101 328.547C125.481 328.991 124.68 329.213 123.699 329.213C123.035 329.213 122.444 329.096 121.926 328.862C121.414 328.623 121.011 328.298 120.718 327.888C120.425 327.473 120.278 327.026 120.278 326.547H122.285C122.305 326.923 122.444 327.211 122.703 327.412C122.961 327.612 123.308 327.712 123.743 327.712C124.148 327.712 124.453 327.636 124.658 327.485C124.868 327.329 124.973 327.126 124.973 326.877Z" fill="#1E73FF"/>
<path fill-rule="evenodd" clip-rule="evenodd" d="M64.5776 323.098C64.4553 322.968 64.3134 322.871 64.1519 322.806C64.0009 322.746 63.8327 322.714 63.6475 322.71C63.6353 322.71 63.6231 322.709 63.6108 322.709C63.1177 322.709 62.7441 322.89 62.4902 323.251C62.4637 323.289 62.4386 323.33 62.4149 323.373C62.3253 323.536 62.2558 323.735 62.2066 323.971C62.194 324.032 62.1826 324.095 62.1727 324.16C62.1602 324.242 62.1498 324.327 62.1415 324.416C62.125 324.594 62.1167 324.787 62.1167 324.995V325.214C62.1167 325.283 62.1176 325.351 62.1194 325.417C62.1198 325.431 62.1202 325.446 62.1207 325.46C62.1307 325.759 62.1596 326.023 62.2073 326.252C62.21 326.265 62.2128 326.278 62.2156 326.291C62.2627 326.504 62.3267 326.686 62.4075 326.837C62.4085 326.839 62.4096 326.841 62.4107 326.843C62.4356 326.889 62.4621 326.932 62.4902 326.972C62.7393 327.329 63.1177 327.507 63.6255 327.507C63.6378 327.507 63.65 327.507 63.6621 327.507C63.8411 327.503 64.0044 327.477 64.1519 327.428C64.2873 327.383 64.4095 327.318 64.5184 327.233C64.5203 327.232 64.5222 327.231 64.5242 327.229C64.5424 327.215 64.5602 327.2 64.5776 327.185C64.7128 327.066 64.812 326.925 64.8753 326.763C64.8765 326.76 64.8777 326.757 64.8789 326.754C64.9277 326.625 64.9542 326.483 64.9585 326.328H66.9434C66.9432 326.346 66.9429 326.364 66.9424 326.382C66.9292 326.867 66.7992 327.316 66.5522 327.729C66.5366 327.755 66.5205 327.781 66.5039 327.807C66.4387 327.908 66.368 328.003 66.2919 328.094C66.2841 328.103 66.2764 328.112 66.2686 328.121C66.1273 328.285 65.9676 328.432 65.7896 328.562C65.6444 328.668 65.487 328.763 65.3174 328.847C65.2007 328.904 65.0811 328.955 64.9585 328.999C64.8888 329.024 64.8181 329.046 64.7465 329.067C64.5551 329.122 64.3569 329.161 64.1519 329.185C63.9927 329.204 63.8295 329.213 63.6621 329.213C63.6499 329.213 63.6377 329.213 63.6255 329.213C62.51 329.206 61.6287 328.847 60.9814 328.137C60.961 328.114 60.941 328.091 60.9212 328.068C60.3181 327.365 60.0111 326.413 60.0003 325.214C60.0001 325.192 60 325.17 60 325.148V325.009C60 325.004 60 325 60 324.995C60.0025 323.817 60.3082 322.87 60.9171 322.152C60.9182 322.151 60.9194 322.15 60.9205 322.148C60.9381 322.128 60.956 322.107 60.9741 322.087C61.6165 321.367 62.4954 321.004 63.6108 320.996C63.623 320.996 63.6352 320.996 63.6475 320.996C63.8217 320.996 63.9898 321.004 64.1519 321.022C64.3725 321.046 64.5819 321.086 64.7799 321.142C64.8405 321.159 64.9 321.178 64.9585 321.198C65.3334 321.328 65.6647 321.521 65.9523 321.776C65.9568 321.78 65.9614 321.784 65.9659 321.788C65.9868 321.807 66.0074 321.826 66.0278 321.845C66.0875 321.901 66.1442 321.959 66.198 322.018C66.285 322.114 66.3644 322.215 66.4361 322.321C66.4376 322.323 66.4391 322.325 66.4406 322.328C66.4688 322.369 66.4959 322.412 66.5217 322.455C66.765 322.864 66.903 323.339 66.9359 323.881C66.9392 323.936 66.9414 323.991 66.9426 324.047C66.9429 324.062 66.9432 324.078 66.9434 324.094H64.9585C64.957 324.029 64.9525 323.967 64.9452 323.906C64.9151 323.657 64.8361 323.441 64.7082 323.257C64.705 323.252 64.7019 323.248 64.6986 323.243C64.6621 323.192 64.6218 323.144 64.5776 323.098ZM68.1519 329.067H70.2686V323.881C70.4002 323.595 70.6089 323.384 70.8948 323.249C70.9199 323.237 70.9455 323.226 70.9718 323.215C71.0861 323.169 71.2115 323.133 71.3482 323.109C71.3593 323.107 71.3705 323.105 71.3818 323.103C71.5238 323.08 71.6776 323.068 71.8433 323.068C71.8591 323.068 71.8751 323.068 71.8913 323.069C71.9188 323.069 71.9467 323.07 71.9751 323.071C71.9902 323.071 72.0055 323.072 72.021 323.072C72.0635 323.074 72.1071 323.077 72.1519 323.08C72.2921 323.089 72.4432 323.105 72.605 323.127L72.6343 321.091C72.5373 321.061 72.437 321.038 72.3335 321.022C72.3242 321.021 72.3149 321.019 72.3056 321.018C72.2891 321.016 72.2725 321.014 72.2558 321.012C72.1647 321.001 72.0711 320.996 71.9751 320.996C71.9306 320.996 71.8866 320.997 71.8433 320.999C71.7066 321.007 71.5756 321.028 71.4503 321.062C71.4363 321.065 71.4224 321.069 71.4085 321.073C71.3422 321.093 71.2775 321.116 71.2145 321.142C71.0052 321.23 70.8139 321.358 70.6405 321.526C70.6036 321.562 70.5675 321.6 70.5322 321.639C70.416 321.769 70.3086 321.918 70.21 322.087L70.1514 321.142H68.1519V329.067ZM73.9781 322.185C73.9757 322.188 73.9733 322.191 73.9708 322.194C73.7851 322.412 73.6252 322.657 73.4912 322.929C73.4574 322.998 73.4255 323.068 73.3955 323.138C73.3038 323.355 73.2297 323.581 73.1732 323.817C73.1681 323.838 73.1631 323.86 73.1583 323.881C73.1007 324.138 73.0637 324.407 73.0471 324.687C73.0404 324.8 73.0371 324.914 73.0371 325.031V325.126C73.0371 325.135 73.0371 325.144 73.0372 325.153C73.0372 325.161 73.0372 325.17 73.0373 325.178C73.0373 325.18 73.0373 325.183 73.0374 325.185C73.0413 325.655 73.0932 326.088 73.1929 326.484C73.2649 326.769 73.3618 327.036 73.4838 327.283C73.6203 327.559 73.7881 327.811 73.9872 328.039C73.9897 328.042 73.9922 328.045 73.9947 328.048C74.0145 328.07 74.0347 328.093 74.0552 328.115C74.124 328.188 74.1951 328.258 74.2686 328.325C74.9249 328.917 75.7669 329.213 76.7944 329.213C77.2198 329.213 77.6131 329.163 77.9742 329.061C78.583 328.89 79.1004 328.574 79.5264 328.115C79.5382 328.102 79.55 328.089 79.5617 328.076C79.5642 328.073 79.5668 328.07 79.5694 328.067C79.5996 328.033 79.6291 327.999 79.6579 327.964C79.6706 327.948 79.6833 327.933 79.6958 327.917C79.9768 327.564 80.188 327.161 80.3295 326.71C80.3462 326.656 80.3619 326.602 80.3767 326.547C80.4305 326.348 80.4713 326.139 80.4992 325.922C80.5294 325.687 80.5444 325.441 80.5444 325.185L80.5298 324.643C80.5001 324.216 80.427 323.823 80.3105 323.464C80.2993 323.429 80.2877 323.395 80.2757 323.361C80.1713 323.066 80.0365 322.795 79.8714 322.547C79.8525 322.519 79.8332 322.491 79.8136 322.463C79.7444 322.366 79.6704 322.273 79.5914 322.183C79.5289 322.112 79.4632 322.043 79.3945 321.977C79.0272 321.62 78.6011 321.361 78.1162 321.199C77.7117 321.063 77.2662 320.996 76.7798 320.996C76.7315 320.996 76.6836 320.996 76.636 320.998C76.2954 321.008 75.9739 321.053 75.6716 321.135C75.3589 321.219 75.0667 321.341 74.7949 321.501C74.4826 321.687 74.2103 321.915 73.9781 322.185ZM75.7517 323.109C75.7499 323.111 75.7482 323.113 75.7465 323.115C75.7285 323.133 75.7108 323.152 75.6934 323.171C75.6532 323.217 75.615 323.265 75.5786 323.317C75.4771 323.461 75.3938 323.633 75.3287 323.833C75.3065 323.902 75.2865 323.973 75.2685 324.048C75.2134 324.278 75.1781 324.539 75.1627 324.832C75.1623 324.84 75.1619 324.848 75.1615 324.857C75.1587 324.914 75.1567 324.972 75.1554 325.031C75.1548 325.063 75.1543 325.094 75.154 325.126C75.1539 325.146 75.1538 325.165 75.1538 325.185C75.1538 325.236 75.1545 325.287 75.1558 325.336C75.164 325.646 75.1979 325.925 75.2576 326.171C75.313 326.4 75.3906 326.601 75.4904 326.775C75.4916 326.777 75.4928 326.779 75.494 326.781C75.5206 326.827 75.5488 326.871 75.5786 326.914C75.8149 327.244 76.1363 327.436 76.5426 327.491C76.6232 327.501 76.7071 327.507 76.7944 327.507C77.0583 327.507 77.2925 327.455 77.4968 327.352C77.6895 327.254 77.8558 327.11 77.9956 326.921C78.0264 326.879 78.0555 326.834 78.083 326.786C78.0841 326.784 78.0852 326.782 78.0863 326.78C78.1273 326.709 78.1646 326.631 78.1982 326.547C78.2444 326.432 78.2836 326.306 78.3159 326.168C78.3181 326.159 78.3202 326.15 78.3223 326.14C78.3758 325.903 78.4089 325.632 78.4217 325.328C78.422 325.32 78.4223 325.313 78.4226 325.305C78.4234 325.284 78.4241 325.263 78.4247 325.242C78.4253 325.223 78.4258 325.204 78.4262 325.185C78.4272 325.135 78.4277 325.083 78.4277 325.031C78.4277 324.987 78.4272 324.943 78.4262 324.899C78.426 324.891 78.4257 324.883 78.4255 324.875C78.4247 324.846 78.4236 324.818 78.4223 324.79C78.4209 324.76 78.4193 324.73 78.4173 324.7C78.4022 324.467 78.3703 324.253 78.3219 324.058C78.2662 323.835 78.1887 323.637 78.0893 323.464C78.0733 323.436 78.0568 323.409 78.0397 323.382C78.0384 323.38 78.0371 323.378 78.0358 323.376C78.0227 323.356 78.0093 323.337 77.9956 323.317C77.9106 323.198 77.8154 323.096 77.71 323.012C77.628 322.946 77.5397 322.891 77.4453 322.847C77.2499 322.755 77.0281 322.709 76.7798 322.709C76.7222 322.709 76.666 322.712 76.6113 322.717C76.2674 322.749 75.9808 322.879 75.7517 323.109ZM82.5659 321.706C82.3178 321.906 82.1226 322.128 81.9804 322.371C81.9467 322.428 81.9159 322.487 81.8881 322.547C81.7724 322.798 81.7085 323.069 81.6964 323.361C81.695 323.395 81.6943 323.429 81.6943 323.464C81.6943 323.868 81.8002 324.227 82.0119 324.54C82.026 324.561 82.0405 324.581 82.0556 324.602C82.0569 324.604 82.0582 324.605 82.0596 324.607C82.1611 324.744 82.2838 324.872 82.4277 324.991C82.4414 325.003 82.4554 325.014 82.4695 325.025C82.5144 325.061 82.5613 325.095 82.61 325.129C82.6195 325.136 82.6291 325.142 82.6387 325.149C82.6567 325.161 82.6749 325.173 82.6934 325.185C82.812 325.262 82.9411 325.334 83.0809 325.401C83.0862 325.404 83.0916 325.407 83.097 325.409C83.1052 325.413 83.1135 325.417 83.1218 325.421C83.1282 325.424 83.1347 325.427 83.1412 325.43C83.2398 325.476 83.3435 325.519 83.4521 325.561C83.7492 325.674 84.0838 325.771 84.4561 325.852C84.4561 325.852 84.4561 325.852 84.4561 325.852C84.4686 325.855 84.4813 325.858 84.4939 325.86C84.5031 325.862 84.5123 325.864 84.5215 325.866C84.5615 325.874 84.6008 325.883 84.6393 325.891C84.6432 325.892 84.647 325.893 84.6509 325.894C84.6573 325.895 84.6637 325.897 84.6701 325.898C84.6785 325.9 84.6869 325.902 84.6953 325.904C84.7488 325.916 84.8007 325.928 84.8511 325.941C84.8523 325.941 84.8536 325.941 84.8548 325.942C84.8585 325.943 84.8621 325.943 84.8657 325.944C84.8669 325.945 84.8681 325.945 84.8693 325.945C84.8829 325.949 84.8963 325.952 84.9097 325.955C84.934 325.962 84.958 325.968 84.9815 325.974C85.0456 325.991 85.1067 326.009 85.165 326.027C85.2444 326.051 85.3184 326.076 85.3872 326.101C85.4417 326.121 85.4929 326.142 85.5407 326.162C85.55 326.166 85.5592 326.17 85.5682 326.175C85.6366 326.205 85.6978 326.237 85.752 326.269C85.7686 326.278 85.7847 326.288 85.8003 326.298C85.8342 326.32 85.8656 326.342 85.8944 326.366C85.8953 326.367 85.8961 326.367 85.897 326.368C85.9163 326.384 85.9344 326.401 85.9514 326.418C85.9919 326.458 86.0258 326.501 86.0533 326.547C86.0554 326.551 86.0575 326.555 86.0596 326.558C86.0996 326.629 86.1247 326.706 86.1349 326.789C86.1384 326.818 86.1401 326.847 86.1401 326.877C86.1401 326.907 86.1386 326.937 86.1354 326.966C86.1349 326.971 86.1343 326.976 86.1337 326.981C86.1228 327.066 86.0981 327.146 86.0596 327.219C86.0071 327.319 85.929 327.408 85.8252 327.485C85.7924 327.509 85.7569 327.531 85.719 327.552C85.6341 327.597 85.5364 327.633 85.4259 327.659C85.4237 327.66 85.4216 327.66 85.4195 327.661C85.3719 327.672 85.3219 327.681 85.2696 327.688C85.1672 327.703 85.0557 327.711 84.9353 327.712C84.9268 327.712 84.9183 327.712 84.9097 327.712C84.9037 327.712 84.8977 327.712 84.8918 327.712C84.8831 327.712 84.8744 327.712 84.8657 327.712C84.7476 327.71 84.6361 327.7 84.5314 327.683C84.5212 327.681 84.5111 327.68 84.5011 327.678C84.4786 327.674 84.4564 327.67 84.4346 327.665C84.3641 327.649 84.297 327.63 84.2331 327.608C84.2105 327.6 84.1883 327.591 84.1665 327.582C84.1649 327.581 84.1634 327.581 84.1618 327.58C84.1402 327.571 84.119 327.562 84.0982 327.552C84.0156 327.512 83.9394 327.466 83.8696 327.412C83.8447 327.392 83.8209 327.372 83.7982 327.351C83.7932 327.347 83.7883 327.342 83.7835 327.338C83.6526 327.212 83.5602 327.059 83.5064 326.877C83.4954 326.84 83.4861 326.802 83.4783 326.763C83.4775 326.759 83.4768 326.755 83.476 326.751C83.4638 326.686 83.4558 326.618 83.4521 326.547H81.4453C81.4453 326.582 81.4461 326.617 81.4476 326.651C81.453 326.771 81.4678 326.889 81.4919 327.005C81.5563 327.313 81.6872 327.608 81.8848 327.888C81.9028 327.913 81.9212 327.938 81.94 327.962C82.1252 328.204 82.3506 328.414 82.6161 328.593C82.6896 328.643 82.7662 328.69 82.8459 328.735C82.9253 328.78 83.0078 328.822 83.0933 328.862C83.2092 328.914 83.3288 328.961 83.4521 329.002C83.5265 329.026 83.6022 329.049 83.6793 329.069C83.7326 329.083 83.7866 329.096 83.8412 329.108C83.8442 329.109 83.8473 329.109 83.8503 329.11C83.9117 329.123 83.9738 329.135 84.0367 329.146C84.0631 329.151 84.0895 329.155 84.1161 329.159C84.3547 329.195 84.6045 329.213 84.8657 329.213C84.8804 329.213 84.8951 329.213 84.9097 329.213C85.2001 329.211 85.4746 329.19 85.7331 329.148C86.1297 329.085 86.4886 328.975 86.8099 328.819C86.8119 328.818 86.8139 328.817 86.8159 328.816C86.976 328.738 87.1267 328.648 87.2681 328.547C87.3531 328.485 87.4324 328.421 87.5058 328.354C87.5758 328.291 87.6405 328.225 87.6999 328.156C87.8601 327.972 87.9817 327.77 88.0647 327.552C88.1176 327.412 88.1548 327.266 88.1763 327.113C88.187 327.036 88.1938 326.957 88.1967 326.877C88.1977 326.848 88.1982 326.819 88.1982 326.789C88.1982 326.76 88.1978 326.731 88.1968 326.702C88.1951 326.65 88.1919 326.598 88.187 326.547C88.1841 326.516 88.1805 326.485 88.1763 326.454C88.1017 325.905 87.8373 325.458 87.383 325.113C87.3439 325.083 87.3034 325.054 87.2614 325.026C87.1407 324.945 87.0082 324.87 86.8642 324.801C86.8037 324.773 86.7411 324.745 86.6765 324.718C86.6639 324.713 86.6513 324.708 86.6385 324.703C86.6001 324.687 86.5609 324.672 86.521 324.658C86.3926 324.611 86.2538 324.566 86.1044 324.523C86.0896 324.518 86.0746 324.514 86.0596 324.51C85.881 324.459 85.6878 324.412 85.4801 324.366C85.4703 324.364 85.4605 324.362 85.4506 324.36C85.4124 324.352 85.3738 324.344 85.3347 324.335C85.2995 324.328 85.2639 324.321 85.228 324.314C85.2232 324.313 85.2184 324.312 85.2136 324.311C85.2051 324.309 85.1966 324.308 85.188 324.306C85.1803 324.305 85.1727 324.303 85.165 324.301C85.0755 324.283 84.9904 324.264 84.9097 324.244C84.8943 324.241 84.8792 324.237 84.8641 324.233C84.8626 324.233 84.8611 324.233 84.8596 324.232C84.8592 324.232 84.8588 324.232 84.8584 324.232C84.856 324.231 84.8535 324.231 84.8511 324.23C84.7354 324.201 84.6294 324.171 84.533 324.14C84.5312 324.139 84.5295 324.138 84.5277 324.138C84.5187 324.135 84.5097 324.132 84.5008 324.129C84.486 324.124 84.4715 324.119 84.4572 324.114C84.4491 324.111 84.4411 324.108 84.4332 324.106C84.3699 324.083 84.3114 324.06 84.2577 324.036C84.1823 324.003 84.1164 323.968 84.0601 323.933C84.0547 323.929 84.0494 323.925 84.0442 323.922C83.8964 323.819 83.8008 323.696 83.7575 323.552C83.7489 323.523 83.7424 323.494 83.7379 323.464C83.7329 323.431 83.7305 323.396 83.7305 323.361C83.7305 323.296 83.7372 323.234 83.7506 323.175C83.7508 323.174 83.7509 323.173 83.7511 323.172C83.7892 323.007 83.88 322.864 84.0234 322.746C84.0845 322.696 84.1535 322.653 84.2303 322.619C84.2955 322.589 84.3665 322.565 84.4432 322.547C84.5648 322.519 84.7008 322.504 84.8511 322.504C84.8535 322.504 84.856 322.504 84.8584 322.504C84.8927 322.505 84.9262 322.505 84.959 322.507C84.9758 322.508 84.9924 322.508 85.0088 322.51C85.0798 322.514 85.1472 322.523 85.2109 322.534C85.214 322.535 85.2172 322.535 85.2203 322.536C85.2388 322.539 85.257 322.543 85.2749 322.547C85.3451 322.563 85.4105 322.584 85.4709 322.609C85.4829 322.614 85.4948 322.619 85.5065 322.624C85.5091 322.626 85.5117 322.627 85.5143 322.628C85.519 322.63 85.5238 322.633 85.5285 322.635C85.6206 322.68 85.7 322.736 85.7666 322.805C85.8992 322.937 85.9868 323.095 86.0294 323.277C86.0301 323.28 86.0309 323.283 86.0316 323.287C86.0371 323.311 86.0418 323.336 86.0456 323.361C86.0507 323.395 86.0544 323.429 86.0567 323.464C86.0586 323.493 86.0596 323.522 86.0596 323.552H88.1763C88.1763 323.522 88.1758 323.493 88.1749 323.464C88.1738 323.429 88.1721 323.395 88.1697 323.361C88.162 323.252 88.1476 323.146 88.1265 323.044C88.0907 322.869 88.0356 322.704 87.9612 322.547C87.8762 322.369 87.7662 322.202 87.631 322.047C87.5961 322.008 87.5597 321.968 87.5215 321.93C87.5202 321.929 87.5189 321.928 87.5176 321.926C87.4534 321.862 87.3846 321.8 87.311 321.74C87.2969 321.729 87.2826 321.717 87.2681 321.706C87.1986 321.651 87.1264 321.6 87.0515 321.551C87.0451 321.547 87.0388 321.543 87.0324 321.539C86.747 321.357 86.4227 321.221 86.0596 321.131C86.022 321.122 85.984 321.113 85.9456 321.104C85.9238 321.1 85.9018 321.095 85.8797 321.09C85.8715 321.089 85.8632 321.087 85.855 321.086C85.8515 321.085 85.848 321.084 85.8445 321.083C85.8349 321.082 85.8253 321.08 85.8157 321.078C85.5201 321.023 85.201 320.996 84.8584 320.996C84.856 320.996 84.8535 320.996 84.8511 320.996C84.4213 320.996 84.0287 321.046 83.6733 321.145C83.4119 321.218 83.1706 321.318 82.9494 321.444C82.8141 321.522 82.6862 321.609 82.5659 321.706ZM89.6079 322.547C89.4921 322.798 89.4282 323.069 89.4162 323.361C89.4148 323.395 89.4141 323.429 89.4141 323.464C89.4141 323.493 89.4146 323.523 89.4158 323.552C89.4312 323.949 89.5524 324.301 89.7793 324.607C89.8905 324.757 90.0272 324.897 90.1893 325.025C90.2429 325.068 90.2993 325.109 90.3585 325.149C90.4917 325.239 90.6391 325.323 90.8006 325.401C90.8059 325.404 90.8113 325.407 90.8167 325.409C90.8249 325.413 90.8332 325.417 90.8415 325.421C90.848 325.424 90.8545 325.427 90.861 325.43C90.9596 325.476 91.0632 325.519 91.1719 325.561C91.4564 325.669 91.7755 325.763 92.1292 325.842C92.1446 325.845 92.1602 325.849 92.1758 325.852C92.1759 325.852 92.1756 325.852 92.1758 325.852C92.1882 325.855 92.2012 325.858 92.2137 325.86C92.2228 325.862 92.232 325.864 92.2412 325.866C92.2813 325.874 92.3205 325.883 92.359 325.891C92.3629 325.892 92.3668 325.893 92.3706 325.894C92.3771 325.895 92.3835 325.897 92.3898 325.898C92.3983 325.9 92.4066 325.902 92.415 325.904C92.4685 325.916 92.5204 325.928 92.5708 325.941C92.5721 325.941 92.5733 325.941 92.5746 325.942C92.5782 325.943 92.5818 325.943 92.5854 325.944C92.5866 325.945 92.5878 325.945 92.589 325.945C92.6026 325.949 92.6161 325.952 92.6294 325.955C92.6537 325.962 92.6777 325.968 92.7013 325.974C92.8524 326.015 92.9876 326.057 93.107 326.101C93.1614 326.121 93.2126 326.142 93.2605 326.162C93.2697 326.166 93.2789 326.17 93.2879 326.175C93.3563 326.205 93.4175 326.237 93.4717 326.269C93.4883 326.278 93.5045 326.288 93.5201 326.298C93.554 326.32 93.5853 326.342 93.6141 326.366C93.615 326.367 93.6158 326.367 93.6167 326.368C93.636 326.384 93.6541 326.401 93.6711 326.418C93.7148 326.461 93.7508 326.508 93.7793 326.558C93.8193 326.629 93.8444 326.706 93.8546 326.789C93.8581 326.818 93.8599 326.847 93.8599 326.877C93.8599 326.907 93.8583 326.937 93.8552 326.966C93.8546 326.971 93.854 326.976 93.8534 326.981C93.8425 327.066 93.8178 327.146 93.7793 327.219C93.7268 327.319 93.6487 327.408 93.5449 327.485C93.5121 327.509 93.4767 327.531 93.4387 327.552C93.3538 327.597 93.2561 327.633 93.1456 327.659C93.1435 327.66 93.1413 327.66 93.1392 327.661C92.9984 327.693 92.837 327.71 92.655 327.712C92.6465 327.712 92.638 327.712 92.6294 327.712C92.6234 327.712 92.6175 327.712 92.6115 327.712C92.6028 327.712 92.5941 327.712 92.5854 327.712C92.4673 327.71 92.3559 327.7 92.2511 327.683C92.2409 327.681 92.2309 327.68 92.2209 327.678C92.1984 327.674 92.1762 327.67 92.1543 327.665C92.1491 327.664 92.1439 327.663 92.1388 327.661C92.0492 327.641 91.965 327.615 91.8862 327.582C91.8846 327.581 91.8831 327.581 91.8815 327.58C91.8599 327.571 91.8387 327.562 91.8179 327.552C91.7353 327.512 91.6592 327.466 91.5894 327.412C91.5644 327.392 91.5406 327.372 91.5179 327.351C91.513 327.347 91.5081 327.342 91.5032 327.338C91.3724 327.212 91.28 327.059 91.2261 326.877C91.2176 326.848 91.2101 326.819 91.2035 326.789C91.2016 326.78 91.1998 326.772 91.198 326.763C91.1973 326.759 91.1965 326.755 91.1958 326.751C91.1835 326.686 91.1756 326.618 91.1719 326.547H89.165C89.165 326.582 89.1658 326.617 89.1674 326.651C89.1695 326.698 89.1729 326.744 89.1778 326.789C89.1809 326.818 89.1846 326.848 89.1889 326.877C89.1953 326.92 89.2028 326.962 89.2116 327.005C89.2508 327.192 89.3145 327.375 89.4028 327.552C89.4598 327.666 89.527 327.778 89.6045 327.888C89.7022 328.024 89.8121 328.152 89.9342 328.269C90.056 328.387 90.1898 328.495 90.3358 328.593C90.4093 328.643 90.4859 328.69 90.5656 328.735C90.645 328.78 90.7275 328.822 90.813 328.862C90.9289 328.914 91.0486 328.961 91.1719 329.002C91.2977 329.043 91.4274 329.079 91.5609 329.108C91.564 329.109 91.567 329.109 91.5701 329.11C91.6249 329.122 91.6804 329.133 91.7366 329.143C91.7432 329.144 91.7498 329.145 91.7565 329.146C91.7828 329.151 91.8093 329.155 91.8359 329.159C92.0744 329.195 92.3243 329.213 92.5854 329.213C92.6001 329.213 92.6148 329.213 92.6294 329.213C93.3656 329.208 93.999 329.077 94.5296 328.819C94.5316 328.818 94.5336 328.817 94.5356 328.816C94.6957 328.738 94.8464 328.648 94.9878 328.547C95.3729 328.268 95.6384 327.936 95.7844 327.552C95.8373 327.412 95.8745 327.266 95.896 327.113C95.9067 327.036 95.9136 326.957 95.9164 326.877C95.9174 326.848 95.918 326.819 95.918 326.789C95.918 326.673 95.9106 326.562 95.896 326.454C95.8214 325.905 95.557 325.458 95.1028 325.113C95.0636 325.083 95.0231 325.054 94.9811 325.026C94.8604 324.945 94.728 324.87 94.5839 324.801C94.5234 324.773 94.4608 324.745 94.3962 324.718C94.3837 324.713 94.371 324.708 94.3583 324.703C94.3198 324.687 94.2806 324.672 94.2407 324.658C94.1123 324.611 93.9735 324.566 93.8242 324.523C93.8093 324.518 93.7943 324.514 93.7793 324.51C93.5923 324.457 93.3893 324.407 93.1703 324.36C93.1322 324.352 93.0935 324.344 93.0544 324.335C93.0192 324.328 92.9837 324.321 92.9477 324.314C92.9429 324.313 92.9381 324.312 92.9334 324.311C92.9248 324.309 92.9163 324.308 92.9077 324.306C92.8097 324.286 92.7169 324.266 92.6294 324.244C92.6141 324.241 92.5989 324.237 92.5839 324.233C92.5823 324.233 92.5808 324.233 92.5793 324.232C92.5789 324.232 92.5785 324.232 92.5781 324.232C92.5757 324.231 92.5732 324.231 92.5708 324.23C92.4551 324.201 92.3491 324.171 92.2527 324.14C92.251 324.139 92.2492 324.138 92.2474 324.138C92.2233 324.13 92.1998 324.122 92.1769 324.114C92.1767 324.114 92.1772 324.114 92.1769 324.114C92.1691 324.111 92.1606 324.108 92.1529 324.106C92.0896 324.083 92.0311 324.06 91.9775 324.036C91.902 324.003 91.8362 323.968 91.7798 323.933C91.7744 323.929 91.7692 323.925 91.7639 323.922C91.6161 323.819 91.5205 323.696 91.4772 323.552C91.4686 323.523 91.4621 323.494 91.4576 323.464C91.4527 323.431 91.4502 323.396 91.4502 323.361C91.4502 323.296 91.4569 323.234 91.4703 323.175C91.4705 323.174 91.4707 323.173 91.4708 323.172C91.5089 323.007 91.5997 322.864 91.7432 322.746C91.8422 322.664 91.962 322.603 92.1026 322.563C92.1223 322.557 92.1424 322.552 92.1629 322.547C92.2845 322.519 92.4205 322.504 92.5708 322.504C92.5732 322.504 92.5757 322.504 92.5781 322.504C92.6124 322.505 92.6459 322.505 92.6787 322.507C92.6955 322.508 92.7121 322.508 92.7285 322.51C92.7996 322.514 92.8669 322.523 92.9306 322.534C92.9337 322.535 92.9369 322.535 92.94 322.536C92.9586 322.539 92.9768 322.543 92.9946 322.547C93.0789 322.567 93.1561 322.592 93.2262 322.624C93.2289 322.626 93.2314 322.627 93.234 322.628C93.2388 322.63 93.2435 322.633 93.2482 322.635C93.3403 322.68 93.4197 322.736 93.4863 322.805C93.6189 322.937 93.7065 323.095 93.7491 323.277C93.7499 323.28 93.7506 323.283 93.7514 323.287C93.7568 323.311 93.7615 323.336 93.7654 323.361C93.7747 323.422 93.7793 323.486 93.7793 323.552H95.896C95.896 323.375 95.8794 323.205 95.8463 323.044C95.7591 322.619 95.5574 322.248 95.2412 321.93C95.2399 321.929 95.2386 321.928 95.2373 321.926C95.1732 321.862 95.1043 321.8 95.0307 321.74C95.0166 321.729 95.0023 321.717 94.9878 321.706C94.9183 321.651 94.8461 321.6 94.7712 321.551C94.7648 321.547 94.7585 321.543 94.7521 321.539C94.4667 321.357 94.1424 321.221 93.7793 321.131C93.7417 321.122 93.7037 321.113 93.6653 321.104C93.6354 321.098 93.6052 321.091 93.5747 321.086C93.5712 321.085 93.5677 321.084 93.5642 321.083C93.5546 321.082 93.545 321.08 93.5354 321.078C93.2398 321.023 92.9207 320.996 92.5781 320.996C92.5757 320.996 92.5732 320.996 92.5708 320.996C92.2553 320.996 91.9599 321.023 91.6845 321.077C91.3088 321.15 90.9704 321.272 90.6691 321.444C90.5338 321.522 90.406 321.609 90.2856 321.706C90.1565 321.81 90.0418 321.92 89.9414 322.036C89.9142 322.067 89.8881 322.099 89.863 322.131C89.7603 322.263 89.6753 322.402 89.6079 322.547ZM65.2273 317.142C64.7025 317.042 64.1723 316.996 63.6475 316.996C61.5778 316.996 59.5237 317.705 57.99 319.423C56.5335 321.055 56 323.063 56 325.009V325.148C56 327.102 56.5148 329.163 58.0163 330.821L58.0253 330.831C59.5656 332.521 61.6094 333.213 63.6621 333.213C64.1776 333.213 64.6936 333.166 65.2041 333.067H66.8832L67.0318 335.463L68.4308 333.067H74.2686V332.832C75.0819 333.092 75.9342 333.213 76.7944 333.213C78.194 333.213 79.5749 332.892 80.8001 332.173C80.9967 332.287 81.1976 332.391 81.4017 332.487L81.4224 332.496L81.4432 332.506C82.5595 333.011 83.7278 333.213 84.8657 333.213C86.1539 333.213 87.5124 332.973 88.7684 332.311C88.8849 332.373 89.0026 332.431 89.1214 332.487L89.1421 332.496L89.163 332.506C90.2792 333.011 91.4475 333.213 92.5854 333.213C94.1632 333.213 95.8464 332.852 97.3176 331.798L97.326 331.792L97.3344 331.786C97.6705 331.543 97.9802 331.272 98.2595 330.977C98.4324 331.172 98.6192 331.358 98.8194 331.536L98.8265 331.542L98.8337 331.548C99.6451 332.259 100.559 332.719 101.508 332.971L101.453 333.067H101.917C102.409 333.167 102.907 333.213 103.403 333.213C103.893 333.213 104.376 333.165 104.847 333.067H122.072C122.615 333.168 123.16 333.213 123.699 333.213C125.276 333.213 126.96 332.852 128.431 331.798L128.439 331.792L128.448 331.786C129.837 330.78 130.775 329.308 130.986 327.552H131.009V327.322C131.024 327.147 131.031 326.969 131.031 326.789C131.031 326.611 131.024 326.431 131.009 326.252V323.552C131.009 321.545 130.125 319.778 128.572 318.561C127.073 317.38 125.31 316.996 123.691 316.996C123.345 316.996 122.993 317.015 122.641 317.056C122.384 316.46 122.004 315.9 121.495 315.414C120.381 314.351 119.023 314 117.869 314C116.726 314 115.359 314.342 114.235 315.414L114.219 315.43L114.202 315.446C113.685 315.951 113.308 316.53 113.059 317.142H105.874C105.328 317.04 104.783 316.996 104.253 316.996C103.714 316.996 103.17 317.041 102.63 317.142H101.569L101.702 317.372C101.443 317.452 101.186 317.547 100.932 317.657C100.013 318.049 99.1307 318.637 98.4102 319.471C98.1293 319.142 97.8114 318.837 97.4591 318.561C95.9592 317.38 94.1964 316.996 92.5781 316.996C91.3128 316.996 89.9862 317.25 88.7704 317.922C87.5105 317.237 86.1392 316.996 84.8584 316.996C83.5109 316.996 82.0938 317.284 80.8151 318.059C79.5773 317.323 78.1867 316.996 76.7798 316.996C75.9213 316.996 75.0579 317.119 74.2211 317.395L73.9209 317.302L73.911 317.142H73.335C72.8754 317.04 72.419 316.996 71.9751 316.996C71.5056 316.996 71.0579 317.047 70.6338 317.142H65.2273ZM116.807 329.067H118.931V321.142H116.807V329.067ZM115.679 321.142H113.416L112.083 323.508L110.779 321.142H108.508L110.757 325.024L108.406 329.067H110.684L112.09 326.577L113.503 329.067H115.774L113.423 325.024L115.679 321.142ZM107.355 323.029C107.27 322.665 107.119 322.346 106.902 322.073C106.806 321.951 106.697 321.839 106.575 321.735C106.546 321.71 106.516 321.686 106.486 321.662C106.48 321.657 106.473 321.652 106.467 321.647C106.384 321.583 106.299 321.524 106.209 321.47C106.205 321.468 106.202 321.465 106.198 321.463C105.936 321.306 105.642 321.189 105.315 321.111C105.017 321.04 104.692 321.002 104.341 320.996C104.336 320.996 104.332 320.996 104.327 320.996C104.303 320.996 104.278 320.996 104.253 320.996C104.216 320.996 104.179 320.996 104.143 320.997C104.031 320.999 103.92 321.005 103.812 321.014C103.528 321.038 103.257 321.086 103 321.159C102.831 321.206 102.667 321.264 102.51 321.333C102.398 321.38 102.291 321.432 102.191 321.487C102.184 321.49 102.178 321.494 102.172 321.497C101.815 321.697 101.527 321.947 101.309 322.248C101.299 322.261 101.29 322.275 101.28 322.288C101.016 322.668 100.884 323.079 100.884 323.522H103C103 323.507 103.001 323.491 103.001 323.475C103.009 323.26 103.072 323.079 103.189 322.934C103.193 322.929 103.196 322.925 103.199 322.921C103.23 322.885 103.263 322.851 103.301 322.819C103.506 322.648 103.787 322.563 104.143 322.563C104.181 322.563 104.217 322.564 104.253 322.566C104.281 322.567 104.308 322.569 104.334 322.572C104.336 322.572 104.339 322.572 104.341 322.573C104.405 322.579 104.466 322.589 104.524 322.602C104.621 322.625 104.709 322.657 104.787 322.699C104.86 322.737 104.924 322.784 104.98 322.839C104.997 322.856 105.014 322.874 105.029 322.893C105.079 322.95 105.123 323.013 105.16 323.082C105.193 323.143 105.221 323.208 105.244 323.277C105.246 323.284 105.248 323.291 105.25 323.298C105.272 323.369 105.288 323.444 105.299 323.522C105.302 323.547 105.305 323.571 105.307 323.596C105.312 323.653 105.315 323.711 105.315 323.771V324.226H104.341C104.311 324.226 104.282 324.226 104.253 324.226C104.216 324.227 104.179 324.228 104.143 324.229C104.11 324.229 104.077 324.23 104.045 324.232C103.984 324.234 103.924 324.237 103.865 324.241C103.834 324.242 103.804 324.244 103.774 324.247C103.765 324.247 103.757 324.248 103.748 324.249C103.736 324.25 103.724 324.25 103.712 324.251C103.668 324.255 103.623 324.259 103.58 324.264C103.532 324.268 103.485 324.274 103.439 324.279C103.435 324.28 103.431 324.28 103.428 324.281C103.411 324.283 103.394 324.285 103.378 324.287C103.297 324.298 103.217 324.31 103.139 324.324C103.122 324.327 103.105 324.33 103.088 324.333C103.058 324.339 103.029 324.344 103 324.35C102.582 324.435 102.217 324.564 101.907 324.737C101.812 324.789 101.723 324.846 101.638 324.907C101.629 324.913 101.62 324.92 101.611 324.927C101.274 325.177 101.032 325.487 100.884 325.856C100.82 326.015 100.773 326.186 100.744 326.367C100.74 326.391 100.737 326.415 100.734 326.439C100.728 326.479 100.724 326.521 100.72 326.563C100.716 326.603 100.714 326.645 100.712 326.687C100.709 326.737 100.708 326.788 100.708 326.84C100.708 327.082 100.74 327.31 100.804 327.522C100.92 327.91 101.142 328.249 101.47 328.54C101.568 328.626 101.672 328.704 101.781 328.774C101.844 328.815 101.909 328.853 101.976 328.888C102.388 329.105 102.864 329.213 103.403 329.213C103.483 329.213 103.562 329.211 103.639 329.205C103.66 329.204 103.68 329.202 103.701 329.2C103.756 329.195 103.811 329.189 103.865 329.181C104.031 329.157 104.19 329.119 104.342 329.067C104.404 329.046 104.464 329.022 104.524 328.997C104.564 328.98 104.603 328.962 104.641 328.942C104.879 328.825 105.095 328.668 105.291 328.474C105.296 328.47 105.3 328.465 105.304 328.461C105.308 328.457 105.311 328.454 105.315 328.45C105.345 328.42 105.374 328.389 105.403 328.356C105.435 328.565 105.482 328.748 105.543 328.906C105.548 328.918 105.553 328.93 105.558 328.942C105.569 328.969 105.58 328.995 105.592 329.02C105.6 329.036 105.607 329.051 105.615 329.067H107.754V328.942C107.701 328.843 107.655 328.731 107.615 328.607C107.578 328.491 107.547 328.364 107.521 328.226C107.514 328.185 107.507 328.143 107.5 328.1C107.497 328.078 107.494 328.055 107.49 328.033C107.489 328.022 107.488 328.012 107.486 328.002C107.457 327.772 107.441 327.517 107.439 327.236V323.801C107.439 323.791 107.439 323.781 107.439 323.771C107.438 323.612 107.427 323.458 107.407 323.312C107.395 323.221 107.379 323.134 107.36 323.048C107.358 323.042 107.357 323.035 107.355 323.029ZM105.315 325.463H104.524C104.463 325.463 104.404 325.465 104.346 325.467C104.344 325.467 104.343 325.467 104.341 325.467C104.273 325.47 104.207 325.475 104.143 325.481C104.114 325.484 104.086 325.487 104.058 325.491C103.991 325.5 103.926 325.51 103.865 325.523C103.833 325.529 103.802 325.536 103.772 325.544C103.762 325.547 103.752 325.549 103.742 325.552C103.631 325.581 103.53 325.619 103.439 325.663C103.427 325.669 103.415 325.675 103.403 325.681C103.37 325.699 103.337 325.718 103.307 325.738C103.179 325.82 103.077 325.922 103 326.041C102.979 326.075 102.959 326.111 102.941 326.147C102.928 326.174 102.917 326.202 102.906 326.231C102.869 326.33 102.844 326.438 102.833 326.556C102.832 326.558 102.832 326.56 102.832 326.562L102.825 326.687C102.825 326.734 102.828 326.781 102.834 326.826C102.835 326.831 102.835 326.835 102.836 326.84C102.842 326.879 102.85 326.916 102.86 326.952C102.862 326.956 102.863 326.96 102.864 326.964C102.893 327.06 102.939 327.148 103 327.227C103.031 327.266 103.065 327.303 103.103 327.338C103.189 327.417 103.289 327.478 103.403 327.52C103.405 327.521 103.407 327.522 103.409 327.522C103.421 327.527 103.432 327.531 103.444 327.534C103.477 327.545 103.511 327.554 103.547 327.562C103.553 327.564 103.559 327.565 103.565 327.566C103.657 327.585 103.757 327.595 103.865 327.595C104.03 327.595 104.189 327.576 104.341 327.537C104.345 327.536 104.35 327.535 104.355 327.534C104.368 327.53 104.382 327.526 104.395 327.522C104.415 327.517 104.434 327.511 104.454 327.505C104.477 327.497 104.501 327.489 104.524 327.48C104.529 327.479 104.534 327.477 104.538 327.475C104.603 327.45 104.667 327.422 104.729 327.39C104.741 327.383 104.754 327.376 104.766 327.369C104.83 327.333 104.889 327.294 104.945 327.252C104.952 327.247 104.959 327.241 104.966 327.236C105.007 327.204 105.046 327.17 105.082 327.134C105.174 327.044 105.25 326.944 105.311 326.833C105.312 326.83 105.314 326.828 105.315 326.826V325.463ZM115.816 317.142H119.562L119.734 316.958C119.436 316.681 119.089 316.474 118.727 316.345C118.375 316.22 118.073 316.19 117.869 316.19C117.665 316.19 117.358 316.219 116.999 316.348C116.641 316.477 116.295 316.682 115.996 316.958C115.991 316.963 115.986 316.968 115.98 316.973C115.975 316.979 115.969 316.984 115.964 316.989C115.925 317.026 115.887 317.065 115.85 317.105C115.845 317.11 115.841 317.115 115.837 317.119C115.83 317.127 115.823 317.135 115.816 317.142ZM118.606 318.204C118.599 318.199 118.592 318.194 118.584 318.19C118.391 318.063 118.152 318 117.869 318C117.581 318 117.34 318.063 117.146 318.19C117.138 318.195 117.131 318.199 117.124 318.204C117.079 318.235 117.037 318.27 116.997 318.308C116.919 318.384 116.856 318.468 116.807 318.559C116.724 318.714 116.682 318.892 116.682 319.091C116.682 319.292 116.724 319.469 116.807 319.624C116.857 319.719 116.923 319.805 117.004 319.882C117.045 319.92 117.087 319.954 117.132 319.985C117.238 320.057 117.356 320.11 117.488 320.144C117.605 320.175 117.732 320.19 117.869 320.19C118.159 320.19 118.402 320.122 118.599 319.986C118.606 319.981 118.614 319.975 118.621 319.97C118.657 319.943 118.692 319.914 118.726 319.882C118.81 319.803 118.879 319.716 118.931 319.619C119.014 319.465 119.055 319.289 119.055 319.091C119.055 318.968 119.039 318.853 119.006 318.746C119.005 318.743 119.004 318.74 119.003 318.737C118.984 318.676 118.96 318.619 118.931 318.565C118.93 318.563 118.929 318.562 118.928 318.56C118.878 318.468 118.813 318.384 118.733 318.308C118.693 318.27 118.651 318.235 118.606 318.204ZM120.807 322.382C120.776 322.436 120.747 322.491 120.721 322.547C120.605 322.798 120.541 323.069 120.529 323.361C120.528 323.395 120.527 323.429 120.527 323.464C120.527 323.475 120.527 323.485 120.528 323.496C120.533 323.862 120.626 324.19 120.807 324.481C120.833 324.524 120.862 324.566 120.893 324.607C121.004 324.757 121.14 324.897 121.303 325.025C121.356 325.068 121.413 325.109 121.472 325.149C121.605 325.239 121.752 325.323 121.914 325.401C121.919 325.404 121.925 325.407 121.93 325.409C121.938 325.413 121.946 325.417 121.955 325.421C121.961 325.424 121.968 325.427 121.974 325.43C122.073 325.476 122.176 325.519 122.285 325.561C122.484 325.637 122.699 325.705 122.931 325.766C123.046 325.797 123.165 325.825 123.289 325.852C123.302 325.855 123.314 325.858 123.327 325.86C123.336 325.862 123.345 325.864 123.354 325.866C123.395 325.874 123.434 325.883 123.472 325.891C123.476 325.892 123.48 325.893 123.484 325.894C123.49 325.895 123.497 325.897 123.503 325.898C123.512 325.9 123.52 325.902 123.528 325.904C123.582 325.916 123.634 325.928 123.684 325.941C123.685 325.941 123.687 325.941 123.688 325.942C123.691 325.943 123.695 325.943 123.699 325.944C123.7 325.945 123.701 325.945 123.702 325.945C123.716 325.949 123.729 325.952 123.743 325.955C123.767 325.962 123.791 325.968 123.815 325.974C123.966 326.015 124.101 326.057 124.22 326.101C124.275 326.121 124.326 326.142 124.374 326.162C124.383 326.166 124.392 326.17 124.401 326.175C124.47 326.205 124.531 326.237 124.585 326.269C124.602 326.278 124.618 326.288 124.633 326.298C124.667 326.32 124.699 326.342 124.727 326.366C124.728 326.367 124.729 326.367 124.73 326.368C124.749 326.384 124.767 326.401 124.784 326.418C124.828 326.461 124.864 326.508 124.893 326.558C124.933 326.629 124.958 326.706 124.968 326.789C124.971 326.818 124.973 326.847 124.973 326.877C124.973 326.907 124.972 326.937 124.968 326.966C124.968 326.971 124.967 326.976 124.967 326.981C124.956 327.066 124.931 327.146 124.893 327.219C124.84 327.319 124.762 327.408 124.658 327.485C124.625 327.509 124.59 327.531 124.552 327.552C124.467 327.597 124.369 327.633 124.259 327.659C124.257 327.66 124.255 327.66 124.252 327.661C124.112 327.693 123.95 327.71 123.768 327.712C123.76 327.712 123.751 327.712 123.743 327.712C123.737 327.712 123.731 327.712 123.725 327.712C123.716 327.712 123.707 327.712 123.699 327.712C123.581 327.71 123.469 327.7 123.364 327.683C123.354 327.681 123.344 327.68 123.334 327.678C123.312 327.674 123.289 327.67 123.268 327.665C123.172 327.644 123.083 327.616 122.999 327.582C122.998 327.581 122.996 327.581 122.995 327.58C122.973 327.571 122.952 327.562 122.931 327.552C122.931 327.552 122.931 327.552 122.931 327.552C122.849 327.512 122.772 327.465 122.703 327.412C122.678 327.392 122.654 327.372 122.631 327.351C122.626 327.347 122.621 327.342 122.617 327.338C122.486 327.212 122.393 327.059 122.339 326.877C122.328 326.84 122.319 326.802 122.311 326.763C122.311 326.759 122.31 326.755 122.309 326.751C122.297 326.686 122.289 326.618 122.285 326.547H120.278C120.278 326.582 120.279 326.617 120.281 326.651C120.286 326.771 120.301 326.889 120.325 327.005C120.389 327.313 120.52 327.608 120.718 327.888C120.746 327.928 120.776 327.967 120.807 328.005C120.985 328.229 121.199 328.425 121.449 328.593C121.523 328.643 121.599 328.69 121.679 328.735C121.758 328.78 121.841 328.822 121.926 328.862C122.042 328.914 122.162 328.961 122.285 329.002C122.357 329.025 122.43 329.047 122.504 329.067C122.56 329.082 122.617 329.095 122.674 329.108C122.677 329.109 122.68 329.109 122.683 329.11C122.745 329.123 122.807 329.135 122.87 329.146C122.89 329.15 122.91 329.153 122.931 329.156C122.937 329.157 122.943 329.158 122.949 329.159C123.188 329.195 123.438 329.213 123.699 329.213C123.713 329.213 123.728 329.213 123.743 329.213C124.479 329.208 125.112 329.077 125.643 328.819C125.645 328.818 125.647 328.817 125.649 328.816C125.809 328.738 125.96 328.648 126.101 328.547C126.486 328.268 126.752 327.936 126.898 327.552C126.951 327.412 126.988 327.266 127.009 327.113C127.02 327.036 127.027 326.957 127.03 326.877C127.031 326.848 127.031 326.819 127.031 326.789C127.031 326.673 127.024 326.562 127.009 326.454C126.935 325.905 126.67 325.458 126.216 325.113C126.177 325.083 126.136 325.054 126.094 325.026C125.974 324.945 125.841 324.87 125.697 324.801C125.637 324.773 125.574 324.745 125.51 324.718C125.497 324.713 125.484 324.708 125.472 324.703C125.433 324.687 125.394 324.672 125.354 324.658C125.226 324.611 125.087 324.566 124.937 324.523C124.923 324.518 124.908 324.514 124.893 324.51C124.706 324.457 124.503 324.407 124.284 324.36C124.245 324.352 124.207 324.344 124.168 324.335C124.133 324.328 124.097 324.321 124.061 324.314C124.056 324.313 124.051 324.312 124.047 324.311C124.038 324.309 124.03 324.308 124.021 324.306C123.923 324.286 123.83 324.266 123.743 324.244C123.727 324.241 123.712 324.237 123.697 324.233C123.696 324.233 123.694 324.233 123.693 324.232C123.692 324.232 123.692 324.232 123.691 324.232C123.689 324.231 123.687 324.231 123.684 324.23C123.568 324.201 123.462 324.171 123.366 324.14C123.364 324.139 123.362 324.138 123.361 324.138C123.337 324.13 123.313 324.122 123.29 324.114C123.282 324.111 123.274 324.108 123.266 324.106C123.203 324.083 123.144 324.06 123.091 324.036C123.032 324.01 122.978 323.983 122.931 323.955C122.918 323.948 122.905 323.94 122.893 323.933C122.888 323.929 122.882 323.925 122.877 323.922C122.729 323.819 122.634 323.696 122.59 323.552C122.582 323.523 122.575 323.494 122.571 323.464C122.566 323.431 122.563 323.396 122.563 323.361C122.563 323.296 122.57 323.234 122.584 323.175C122.584 323.174 122.584 323.173 122.584 323.172C122.622 323.007 122.713 322.864 122.856 322.746C122.88 322.727 122.905 322.708 122.931 322.691C123.029 322.626 123.144 322.578 123.276 322.547C123.398 322.519 123.534 322.504 123.684 322.504C123.687 322.504 123.689 322.504 123.691 322.504C123.726 322.505 123.759 322.505 123.792 322.507C123.809 322.508 123.825 322.508 123.842 322.51C123.913 322.514 123.98 322.523 124.044 322.534C124.047 322.535 124.05 322.535 124.053 322.536C124.072 322.539 124.09 322.543 124.108 322.547C124.192 322.567 124.269 322.592 124.34 322.624C124.342 322.626 124.345 322.627 124.347 322.628C124.352 322.63 124.357 322.633 124.361 322.635C124.454 322.68 124.533 322.736 124.6 322.805C124.732 322.937 124.82 323.095 124.862 323.277C124.863 323.28 124.864 323.283 124.865 323.287C124.87 323.311 124.875 323.336 124.879 323.361C124.888 323.422 124.893 323.486 124.893 323.552H127.009C127.009 323.375 126.993 323.205 126.96 323.044C126.872 322.619 126.671 322.248 126.355 321.93C126.353 321.929 126.352 321.928 126.351 321.926C126.286 321.862 126.218 321.8 126.144 321.74C126.13 321.729 126.116 321.717 126.101 321.706C126.032 321.651 125.959 321.6 125.884 321.551C125.878 321.547 125.872 321.543 125.865 321.539C125.58 321.357 125.256 321.221 124.893 321.131C124.855 321.122 124.817 321.113 124.779 321.104C124.749 321.098 124.718 321.091 124.688 321.086C124.684 321.085 124.681 321.084 124.677 321.083C124.668 321.082 124.658 321.08 124.649 321.078C124.353 321.023 124.034 320.996 123.691 320.996C123.689 320.996 123.687 320.996 123.684 320.996C123.419 320.996 123.168 321.015 122.931 321.053C122.834 321.069 122.74 321.087 122.648 321.109C122.604 321.119 122.561 321.13 122.518 321.142C122.252 321.215 122.007 321.316 121.782 321.444C121.647 321.522 121.519 321.609 121.399 321.706C121.213 321.856 121.057 322.018 120.93 322.192C120.923 322.202 120.916 322.212 120.909 322.222C120.872 322.274 120.838 322.328 120.807 322.382ZM119.915 317.142H119.62L119.766 316.989C119.805 317.026 119.844 317.065 119.881 317.105C119.893 317.117 119.904 317.13 119.915 317.142Z" fill="white"/>
</svg>
