<svg width="504" height="166" viewBox="0 0 504 166" fill="none" xmlns="http://www.w3.org/2000/svg">
<rect x="1" y="27" width="502" height="138" rx="5" fill="#F7F7F7" stroke="#AAAAAA" stroke-width="2" stroke-dasharray="6 4"/>
<path d="M5.63965 3.81934C5.1748 3.75553 4.77376 3.72363 4.43652 3.72363C3.54329 3.72363 3.09668 4.1429 3.09668 4.98145V5.60352H4.60059V6.83398H3.09668V13H1.43555V6.83398H0.307617V5.60352H1.43555V4.94043C1.4401 4.10645 1.6862 3.46842 2.17383 3.02637C2.66602 2.57975 3.35872 2.35645 4.25195 2.35645C4.80794 2.35645 5.82422 2.46582 7.30078 2.68457V13H5.63965V3.81934ZM12.3936 13.1367C11.3408 13.1367 10.4863 12.8063 9.83008 12.1455C9.17839 11.4801 8.85254 10.596 8.85254 9.49316V9.28809C8.85254 8.5498 8.99382 7.89128 9.27637 7.3125C9.56348 6.72917 9.96452 6.27572 10.4795 5.95215C10.9945 5.62858 11.5687 5.4668 12.2021 5.4668C13.2093 5.4668 13.9863 5.78809 14.5332 6.43066C15.0846 7.07324 15.3604 7.98242 15.3604 9.1582V9.82812H10.5273C10.5775 10.4388 10.7803 10.9219 11.1357 11.2773C11.4958 11.6328 11.9469 11.8105 12.4893 11.8105C13.2503 11.8105 13.8701 11.5029 14.3486 10.8877L15.2441 11.7422C14.9479 12.1842 14.5514 12.5283 14.0547 12.7744C13.5625 13.016 13.0088 13.1367 12.3936 13.1367ZM12.1953 6.7998C11.7396 6.7998 11.3704 6.95931 11.0879 7.27832C10.8099 7.59733 10.6322 8.04167 10.5547 8.61133H13.7197V8.48828C13.6833 7.93229 13.5352 7.51302 13.2754 7.23047C13.0156 6.94336 12.6556 6.7998 12.1953 6.7998ZM19.3115 8.03711L20.7197 5.60352H22.5654L20.3027 9.24707L22.6406 13H20.8086L19.332 10.4707L17.8623 13H16.0166L18.3545 9.24707L16.0986 5.60352H17.9307L19.3115 8.03711ZM30.2217 11.8105C30.6364 11.8105 30.9805 11.6898 31.2539 11.4482C31.5273 11.2067 31.6732 10.9082 31.6914 10.5527H33.2568C33.2386 11.013 33.0951 11.4437 32.8262 11.8447C32.5573 12.2412 32.1927 12.5557 31.7324 12.7881C31.2721 13.0205 30.7754 13.1367 30.2422 13.1367C29.2077 13.1367 28.3874 12.8018 27.7812 12.1318C27.1751 11.4619 26.8721 10.5368 26.8721 9.35645V9.18555C26.8721 8.0599 27.1729 7.15983 27.7744 6.48535C28.376 5.80632 29.1963 5.4668 30.2354 5.4668C31.1149 5.4668 31.8304 5.72428 32.3818 6.23926C32.9378 6.74967 33.2295 7.42188 33.2568 8.25586H31.6914C31.6732 7.83203 31.5273 7.4834 31.2539 7.20996C30.985 6.93652 30.641 6.7998 30.2217 6.7998C29.6839 6.7998 29.2692 6.99577 28.9775 7.3877C28.6859 7.77507 28.5378 8.36523 28.5332 9.1582V9.4248C28.5332 10.2269 28.6768 10.8262 28.9639 11.2227C29.2555 11.6146 29.6748 11.8105 30.2217 11.8105ZM34.2002 9.2334C34.2002 8.50879 34.3438 7.8571 34.6309 7.27832C34.918 6.69499 35.3213 6.24837 35.8408 5.93848C36.3604 5.62402 36.9574 5.4668 37.6318 5.4668C38.6299 5.4668 39.4388 5.78809 40.0586 6.43066C40.6829 7.07324 41.0202 7.92546 41.0703 8.9873L41.0771 9.37695C41.0771 10.1061 40.9359 10.7578 40.6533 11.332C40.3753 11.9062 39.9743 12.3506 39.4502 12.665C38.9307 12.9795 38.3291 13.1367 37.6455 13.1367C36.6019 13.1367 35.7656 12.7904 35.1367 12.0977C34.5124 11.4004 34.2002 10.473 34.2002 9.31543V9.2334ZM35.8613 9.37695C35.8613 10.138 36.0186 10.735 36.333 11.168C36.6475 11.5964 37.085 11.8105 37.6455 11.8105C38.2061 11.8105 38.6413 11.5918 38.9512 11.1543C39.2656 10.7168 39.4229 10.0765 39.4229 9.2334C39.4229 8.486 39.2611 7.89355 38.9375 7.45605C38.6185 7.01855 38.1833 6.7998 37.6318 6.7998C37.0895 6.7998 36.6589 7.01628 36.3398 7.44922C36.0208 7.8776 35.8613 8.52018 35.8613 9.37695ZM44.0234 5.60352L44.0713 6.45801C44.6182 5.7972 45.3359 5.4668 46.2246 5.4668C47.765 5.4668 48.5488 6.34863 48.5762 8.1123V13H46.915V8.20801C46.915 7.73861 46.8125 7.39225 46.6074 7.16895C46.4069 6.94108 46.0765 6.82715 45.6162 6.82715C44.9463 6.82715 44.4473 7.13021 44.1191 7.73633V13H42.458V5.60352H44.0234ZM52.3564 3.80566V5.60352H53.6621V6.83398H52.3564V10.9629C52.3564 11.2454 52.4111 11.4505 52.5205 11.5781C52.6344 11.7012 52.835 11.7627 53.1221 11.7627C53.3135 11.7627 53.5072 11.7399 53.7031 11.6943V12.9795C53.3249 13.0843 52.9603 13.1367 52.6094 13.1367C51.3333 13.1367 50.6953 12.4326 50.6953 11.0244V6.83398H49.4785V5.60352H50.6953V3.80566H52.3564ZM59.3564 13C59.2835 12.8587 59.2197 12.6286 59.165 12.3096C58.6364 12.861 57.9893 13.1367 57.2236 13.1367C56.4808 13.1367 55.8747 12.9248 55.4053 12.501C54.9359 12.0771 54.7012 11.5531 54.7012 10.9287C54.7012 10.1403 54.9928 9.53646 55.5762 9.11719C56.1641 8.69336 57.0026 8.48145 58.0918 8.48145H59.1104V7.99609C59.1104 7.61328 59.0033 7.30794 58.7891 7.08008C58.5749 6.84766 58.249 6.73145 57.8115 6.73145C57.4333 6.73145 57.1234 6.82715 56.8818 7.01855C56.6403 7.2054 56.5195 7.44466 56.5195 7.73633H54.8584C54.8584 7.33073 54.9928 6.95247 55.2617 6.60156C55.5306 6.24609 55.8952 5.9681 56.3555 5.76758C56.8203 5.56706 57.3376 5.4668 57.9072 5.4668C58.7731 5.4668 59.4635 5.68555 59.9785 6.12305C60.4935 6.55599 60.7578 7.16667 60.7715 7.95508V11.291C60.7715 11.9564 60.8649 12.4873 61.0518 12.8838V13H59.3564ZM57.5312 11.8037C57.8594 11.8037 58.167 11.724 58.4541 11.5645C58.7458 11.4049 58.9645 11.1908 59.1104 10.9219V9.52734H58.2148C57.5996 9.52734 57.137 9.63444 56.8271 9.84863C56.5173 10.0628 56.3623 10.3659 56.3623 10.7578C56.3623 11.0768 56.4671 11.332 56.6768 11.5234C56.891 11.7103 57.1758 11.8037 57.5312 11.8037ZM64.2783 13H62.6172V5.60352H64.2783V13ZM62.5146 3.68262C62.5146 3.42741 62.5944 3.21549 62.7539 3.04688C62.918 2.87826 63.1504 2.79395 63.4512 2.79395C63.752 2.79395 63.9844 2.87826 64.1484 3.04688C64.3125 3.21549 64.3945 3.42741 64.3945 3.68262C64.3945 3.93327 64.3125 4.1429 64.1484 4.31152C63.9844 4.47559 63.752 4.55762 63.4512 4.55762C63.1504 4.55762 62.918 4.47559 62.7539 4.31152C62.5944 4.1429 62.5146 3.93327 62.5146 3.68262ZM67.6348 5.60352L67.6826 6.45801C68.2295 5.7972 68.9473 5.4668 69.8359 5.4668C71.3763 5.4668 72.1602 6.34863 72.1875 8.1123V13H70.5264V8.20801C70.5264 7.73861 70.4238 7.39225 70.2188 7.16895C70.0182 6.94108 69.6878 6.82715 69.2275 6.82715C68.5576 6.82715 68.0586 7.13021 67.7305 7.73633V13H66.0693V5.60352H67.6348ZM77.1436 13.1367C76.0908 13.1367 75.2363 12.8063 74.5801 12.1455C73.9284 11.4801 73.6025 10.596 73.6025 9.49316V9.28809C73.6025 8.5498 73.7438 7.89128 74.0264 7.3125C74.3135 6.72917 74.7145 6.27572 75.2295 5.95215C75.7445 5.62858 76.3187 5.4668 76.9521 5.4668C77.9593 5.4668 78.7363 5.78809 79.2832 6.43066C79.8346 7.07324 80.1104 7.98242 80.1104 9.1582V9.82812H75.2773C75.3275 10.4388 75.5303 10.9219 75.8857 11.2773C76.2458 11.6328 76.6969 11.8105 77.2393 11.8105C78.0003 11.8105 78.6201 11.5029 79.0986 10.8877L79.9941 11.7422C79.6979 12.1842 79.3014 12.5283 78.8047 12.7744C78.3125 13.016 77.7588 13.1367 77.1436 13.1367ZM76.9453 6.7998C76.4896 6.7998 76.1204 6.95931 75.8379 7.27832C75.5599 7.59733 75.3822 8.04167 75.3047 8.61133H78.4697V8.48828C78.4333 7.93229 78.2852 7.51302 78.0254 7.23047C77.7656 6.94336 77.4056 6.7998 76.9453 6.7998ZM85.2783 7.12109C85.0596 7.08464 84.834 7.06641 84.6016 7.06641C83.8405 7.06641 83.3278 7.35807 83.0635 7.94141V13H81.4023V5.60352H82.9883L83.0293 6.43066C83.4303 5.78809 83.9863 5.4668 84.6973 5.4668C84.9342 5.4668 85.1302 5.4987 85.2852 5.5625L85.2783 7.12109Z" fill="#BBBBBB"/>
<g opacity="0.8">
<path d="M10 39C10 37.3431 11.3431 36 13 36H75C76.6569 36 78 37.3431 78 39V93C78 94.6569 76.6569 96 75 96H13C11.3431 96 10 94.6569 10 93V39Z" fill="#1E73FF"/>
<path d="M45.4546 69.7998H43.6821V61.2378L41.0674 62.1313V60.6299L45.2275 59.0991H45.4546V69.7998Z" fill="white"/>
</g>
<g opacity="0.8">
<path d="M89 39C89 37.3431 90.3431 36 92 36H254C255.657 36 257 37.3431 257 39V93C257 94.6569 255.657 96 254 96H92C90.3431 96 89 94.6569 89 93V39Z" fill="#1E73FF"/>
<path d="M177.806 69.7998H170.635V68.5767L174.188 64.7021C174.7 64.1309 175.064 63.6548 175.279 63.2739C175.499 62.8882 175.608 62.5024 175.608 62.1167C175.608 61.6089 175.464 61.1987 175.176 60.8862C174.893 60.5737 174.51 60.4175 174.026 60.4175C173.45 60.4175 173.003 60.5933 172.686 60.9448C172.369 61.2964 172.21 61.7773 172.21 62.3877H170.43C170.43 61.7383 170.577 61.1548 170.87 60.6372C171.167 60.1147 171.59 59.7095 172.137 59.4214C172.688 59.1333 173.323 58.9893 174.041 58.9893C175.076 58.9893 175.892 59.2505 176.487 59.7729C177.088 60.2905 177.388 61.0083 177.388 61.9263C177.388 62.4585 177.237 63.0176 176.934 63.6035C176.636 64.1846 176.146 64.8462 175.462 65.5884L172.854 68.3789H177.806V69.7998Z" fill="white"/>
</g>
<g opacity="0.8">
<path d="M268 39C268 37.3431 269.343 36 271 36H333C334.657 36 336 37.3431 336 39V93C336 94.6569 334.657 96 333 96H271C269.343 96 268 94.6569 268 93V39Z" fill="#1E73FF"/>
<path d="M300.693 63.6548H301.777C302.324 63.6499 302.756 63.5083 303.074 63.23C303.396 62.9517 303.557 62.5488 303.557 62.0215C303.557 61.5137 303.423 61.1206 303.154 60.8423C302.891 60.5591 302.485 60.4175 301.938 60.4175C301.46 60.4175 301.067 60.5566 300.759 60.835C300.452 61.1084 300.298 61.4673 300.298 61.9116H298.518C298.518 61.3647 298.662 60.8667 298.95 60.4175C299.243 59.9683 299.648 59.6191 300.166 59.3701C300.688 59.1162 301.272 58.9893 301.917 58.9893C302.981 58.9893 303.816 59.2578 304.421 59.7949C305.032 60.3271 305.337 61.0693 305.337 62.0215C305.337 62.5 305.183 62.9517 304.875 63.3765C304.573 63.7964 304.18 64.1138 303.696 64.3286C304.282 64.5288 304.727 64.8438 305.029 65.2734C305.337 65.7031 305.491 66.2158 305.491 66.8115C305.491 67.7686 305.161 68.5303 304.502 69.0967C303.848 69.6631 302.986 69.9463 301.917 69.9463C300.891 69.9463 300.051 69.6729 299.397 69.126C298.743 68.5791 298.416 67.8516 298.416 66.9434H300.195C300.195 67.4121 300.352 67.793 300.664 68.0859C300.981 68.3789 301.406 68.5254 301.938 68.5254C302.49 68.5254 302.925 68.3789 303.242 68.0859C303.56 67.793 303.718 67.3682 303.718 66.8115C303.718 66.25 303.552 65.8179 303.22 65.5151C302.888 65.2124 302.395 65.061 301.741 65.061H300.693V63.6548Z" fill="white"/>
</g>
<g opacity="0.8">
<path d="M347 39C347 37.3431 348.343 36 350 36H412C413.657 36 415 37.3431 415 39V93C415 94.6569 413.657 96 412 96H350C348.343 96 347 94.6569 347 93V39Z" fill="#1E73FF"/>
<path d="M383.656 65.9985H384.981V67.4268H383.656V69.7998H381.876V67.4268H377.269L377.218 66.3428L381.817 59.1357H383.656V65.9985ZM379.085 65.9985H381.876V61.5454L381.744 61.7798L379.085 65.9985Z" fill="white"/>
</g>
<g opacity="0.8">
<path d="M426 39C426 37.3431 427.343 36 429 36H491C492.657 36 494 37.3431 494 39V93C494 94.6569 492.657 96 491 96H429C427.343 96 426 94.6569 426 93V39Z" fill="#1E73FF"/>
<path d="M457.111 64.5117L457.69 59.1357H463.417V60.6738H459.169L458.876 63.2227C459.37 62.9395 459.926 62.7979 460.546 62.7979C461.562 62.7979 462.351 63.1226 462.912 63.772C463.479 64.4214 463.762 65.2954 463.762 66.394C463.762 67.478 463.449 68.3423 462.824 68.9868C462.199 69.6265 461.342 69.9463 460.253 69.9463C459.277 69.9463 458.466 69.6704 457.822 69.1187C457.182 68.562 456.835 67.8296 456.782 66.9214H458.503C458.571 67.439 458.757 67.8369 459.06 68.1152C459.362 68.3887 459.758 68.5254 460.246 68.5254C460.793 68.5254 461.218 68.3301 461.521 67.9395C461.828 67.5488 461.982 67.0166 461.982 66.3428C461.982 65.6934 461.813 65.1807 461.477 64.8047C461.14 64.4238 460.676 64.2334 460.085 64.2334C459.763 64.2334 459.489 64.2773 459.265 64.3652C459.04 64.4482 458.796 64.6143 458.532 64.8633L457.111 64.5117Z" fill="white"/>
</g>
<path d="M83.5 106L83.4997 154" stroke="#AAAAAA" stroke-dasharray="4 2"/>
<path d="M262.5 106L262.5 154" stroke="#AAAAAA" stroke-dasharray="4 2"/>
<path d="M341.5 106L341.5 154" stroke="#AAAAAA" stroke-dasharray="4 2"/>
<path d="M420.5 106L420.5 154" stroke="#AAAAAA" stroke-dasharray="4 2"/>
<path d="M20.9902 113.573C20.4251 113.482 19.9694 113.437 19.623 113.437C18.7116 113.437 18.2559 113.915 18.2559 114.872V115.604H19.835V116.581H18.2559V123H16.9912V116.581H15.8223V115.604H16.9912V114.797C16.9958 114.008 17.2168 113.405 17.6543 112.985C18.0918 112.566 18.7139 112.356 19.5205 112.356C19.9808 112.356 20.8923 112.495 22.2549 112.773V123H20.9902V113.573ZM27.3955 123.137C26.3929 123.137 25.5771 122.809 24.9482 122.152C24.3193 121.492 24.0049 120.61 24.0049 119.507V119.274C24.0049 118.541 24.1439 117.887 24.4219 117.312C24.7044 116.734 25.0964 116.283 25.5977 115.959C26.1035 115.631 26.6504 115.467 27.2383 115.467C28.1999 115.467 28.9473 115.784 29.4805 116.417C30.0137 117.05 30.2803 117.957 30.2803 119.138V119.664H25.2695C25.2878 120.393 25.4997 120.983 25.9053 121.435C26.3154 121.881 26.835 122.104 27.4639 122.104C27.9105 122.104 28.2887 122.013 28.5986 121.831C28.9085 121.649 29.1797 121.407 29.4121 121.106L30.1846 121.708C29.5648 122.66 28.6351 123.137 27.3955 123.137ZM27.2383 116.506C26.7279 116.506 26.2995 116.693 25.9531 117.066C25.6068 117.436 25.3926 117.955 25.3105 118.625H29.0156V118.529C28.9792 117.887 28.806 117.39 28.4961 117.039C28.1862 116.684 27.7669 116.506 27.2383 116.506ZM34.2314 118.304L35.8721 115.604H37.3486L34.9287 119.261L37.4238 123H35.9609L34.252 120.231L32.543 123H31.0732L33.5684 119.261L31.1484 115.604H32.6113L34.2314 118.304ZM41.3271 119.288H37.9912V118.256H41.3271V119.288ZM42.2637 119.24C42.2637 118.087 42.5303 117.171 43.0635 116.492C43.5967 115.809 44.3031 115.467 45.1826 115.467C46.085 115.467 46.7891 115.786 47.2949 116.424L47.3564 115.604H48.5117V122.822C48.5117 123.779 48.2269 124.534 47.6572 125.085C47.0921 125.636 46.3311 125.912 45.374 125.912C44.8408 125.912 44.319 125.798 43.8086 125.57C43.2982 125.342 42.9085 125.03 42.6396 124.634L43.2959 123.875C43.8382 124.545 44.5013 124.88 45.2852 124.88C45.9004 124.88 46.3789 124.707 46.7207 124.36C47.0671 124.014 47.2402 123.526 47.2402 122.897V122.262C46.7344 122.845 46.0439 123.137 45.1689 123.137C44.3031 123.137 43.6012 122.788 43.0635 122.091C42.5303 121.394 42.2637 120.443 42.2637 119.24ZM43.5352 119.384C43.5352 120.218 43.7061 120.874 44.0479 121.353C44.3896 121.826 44.8682 122.063 45.4834 122.063C46.2809 122.063 46.8665 121.701 47.2402 120.977V117.6C46.8529 116.893 46.2718 116.54 45.4971 116.54C44.8818 116.54 44.401 116.779 44.0547 117.258C43.7083 117.736 43.5352 118.445 43.5352 119.384ZM54.001 116.738C53.8096 116.706 53.6022 116.69 53.3789 116.69C52.5495 116.69 51.9867 117.044 51.6904 117.75V123H50.4258V115.604H51.6562L51.6768 116.458C52.0915 115.797 52.6794 115.467 53.4404 115.467C53.6865 115.467 53.8734 115.499 54.001 115.562V116.738ZM54.6982 119.233C54.6982 118.509 54.8395 117.857 55.1221 117.278C55.4092 116.7 55.8057 116.253 56.3115 115.938C56.8219 115.624 57.403 115.467 58.0547 115.467C59.0618 115.467 59.8753 115.815 60.4951 116.513C61.1195 117.21 61.4316 118.137 61.4316 119.295V119.384C61.4316 120.104 61.2926 120.751 61.0146 121.325C60.7412 121.895 60.347 122.339 59.832 122.658C59.3216 122.977 58.7337 123.137 58.0684 123.137C57.0658 123.137 56.2523 122.788 55.6279 122.091C55.0081 121.394 54.6982 120.471 54.6982 119.322V119.233ZM55.9697 119.384C55.9697 120.204 56.1589 120.863 56.5371 121.359C56.9199 121.856 57.4303 122.104 58.0684 122.104C58.7109 122.104 59.2214 121.854 59.5996 121.353C59.9779 120.847 60.167 120.14 60.167 119.233C60.167 118.422 59.9733 117.766 59.5859 117.265C59.2031 116.759 58.6927 116.506 58.0547 116.506C57.4303 116.506 56.9268 116.754 56.5439 117.251C56.1611 117.748 55.9697 118.459 55.9697 119.384ZM69.5664 121.257L70.9883 115.604H72.2529L70.0996 123H69.0742L67.2764 117.395L65.5264 123H64.501L62.3545 115.604H63.6123L65.0684 121.141L66.791 115.604H67.8096L69.5664 121.257Z" fill="#666666"/>
<path d="M45.8721 147H43.332V137.209L40.2998 138.149V136.084L45.5996 134.186H45.8721V147Z" fill="#1E73FF"/>
<path d="M144.99 113.573C144.425 113.482 143.969 113.437 143.623 113.437C142.712 113.437 142.256 113.915 142.256 114.872V115.604H143.835V116.581H142.256V123H140.991V116.581H139.822V115.604H140.991V114.797C140.996 114.008 141.217 113.405 141.654 112.985C142.092 112.566 142.714 112.356 143.521 112.356C143.981 112.356 144.892 112.495 146.255 112.773V123H144.99V113.573ZM151.396 123.137C150.393 123.137 149.577 122.809 148.948 122.152C148.319 121.492 148.005 120.61 148.005 119.507V119.274C148.005 118.541 148.144 117.887 148.422 117.312C148.704 116.734 149.096 116.283 149.598 115.959C150.104 115.631 150.65 115.467 151.238 115.467C152.2 115.467 152.947 115.784 153.48 116.417C154.014 117.05 154.28 117.957 154.28 119.138V119.664H149.27C149.288 120.393 149.5 120.983 149.905 121.435C150.315 121.881 150.835 122.104 151.464 122.104C151.91 122.104 152.289 122.013 152.599 121.831C152.909 121.649 153.18 121.407 153.412 121.106L154.185 121.708C153.565 122.66 152.635 123.137 151.396 123.137ZM151.238 116.506C150.728 116.506 150.299 116.693 149.953 117.066C149.607 117.436 149.393 117.955 149.311 118.625H153.016V118.529C152.979 117.887 152.806 117.39 152.496 117.039C152.186 116.684 151.767 116.506 151.238 116.506ZM158.231 118.304L159.872 115.604H161.349L158.929 119.261L161.424 123H159.961L158.252 120.231L156.543 123H155.073L157.568 119.261L155.148 115.604H156.611L158.231 118.304ZM165.327 119.288H161.991V118.256H165.327V119.288ZM166.264 119.24C166.264 118.087 166.53 117.171 167.063 116.492C167.597 115.809 168.303 115.467 169.183 115.467C170.085 115.467 170.789 115.786 171.295 116.424L171.356 115.604H172.512V122.822C172.512 123.779 172.227 124.534 171.657 125.085C171.092 125.636 170.331 125.912 169.374 125.912C168.841 125.912 168.319 125.798 167.809 125.57C167.298 125.342 166.909 125.03 166.64 124.634L167.296 123.875C167.838 124.545 168.501 124.88 169.285 124.88C169.9 124.88 170.379 124.707 170.721 124.36C171.067 124.014 171.24 123.526 171.24 122.897V122.262C170.734 122.845 170.044 123.137 169.169 123.137C168.303 123.137 167.601 122.788 167.063 122.091C166.53 121.394 166.264 120.443 166.264 119.24ZM167.535 119.384C167.535 120.218 167.706 120.874 168.048 121.353C168.39 121.826 168.868 122.063 169.483 122.063C170.281 122.063 170.867 121.701 171.24 120.977V117.6C170.853 116.893 170.272 116.54 169.497 116.54C168.882 116.54 168.401 116.779 168.055 117.258C167.708 117.736 167.535 118.445 167.535 119.384ZM178.001 116.738C177.81 116.706 177.602 116.69 177.379 116.69C176.549 116.69 175.987 117.044 175.69 117.75V123H174.426V115.604H175.656L175.677 116.458C176.091 115.797 176.679 115.467 177.44 115.467C177.687 115.467 177.873 115.499 178.001 115.562V116.738ZM178.698 119.233C178.698 118.509 178.84 117.857 179.122 117.278C179.409 116.7 179.806 116.253 180.312 115.938C180.822 115.624 181.403 115.467 182.055 115.467C183.062 115.467 183.875 115.815 184.495 116.513C185.119 117.21 185.432 118.137 185.432 119.295V119.384C185.432 120.104 185.293 120.751 185.015 121.325C184.741 121.895 184.347 122.339 183.832 122.658C183.322 122.977 182.734 123.137 182.068 123.137C181.066 123.137 180.252 122.788 179.628 122.091C179.008 121.394 178.698 120.471 178.698 119.322V119.233ZM179.97 119.384C179.97 120.204 180.159 120.863 180.537 121.359C180.92 121.856 181.43 122.104 182.068 122.104C182.711 122.104 183.221 121.854 183.6 121.353C183.978 120.847 184.167 120.14 184.167 119.233C184.167 118.422 183.973 117.766 183.586 117.265C183.203 116.759 182.693 116.506 182.055 116.506C181.43 116.506 180.927 116.754 180.544 117.251C180.161 117.748 179.97 118.459 179.97 119.384ZM193.566 121.257L194.988 115.604H196.253L194.1 123H193.074L191.276 117.395L189.526 123H188.501L186.354 115.604H187.612L189.068 121.141L190.791 115.604H191.81L193.566 121.257Z" fill="#666666"/>
<path d="M166.286 139.477H167.64C168.284 139.477 168.762 139.315 169.072 138.993C169.383 138.671 169.538 138.243 169.538 137.71C169.538 137.194 169.383 136.793 169.072 136.506C168.768 136.219 168.346 136.075 167.807 136.075C167.32 136.075 166.913 136.21 166.585 136.479C166.257 136.743 166.093 137.089 166.093 137.517H163.553C163.553 136.849 163.731 136.251 164.089 135.724C164.452 135.19 164.956 134.774 165.601 134.476C166.251 134.177 166.966 134.027 167.745 134.027C169.099 134.027 170.159 134.353 170.927 135.003C171.694 135.647 172.078 136.538 172.078 137.675C172.078 138.261 171.899 138.8 171.542 139.292C171.185 139.784 170.716 140.162 170.136 140.426C170.856 140.684 171.393 141.07 171.744 141.586C172.102 142.102 172.28 142.711 172.28 143.414C172.28 144.551 171.864 145.462 171.032 146.147C170.206 146.833 169.11 147.176 167.745 147.176C166.468 147.176 165.422 146.839 164.607 146.165C163.799 145.491 163.395 144.601 163.395 143.493H165.935C165.935 143.974 166.113 144.366 166.471 144.671C166.834 144.976 167.279 145.128 167.807 145.128C168.41 145.128 168.882 144.97 169.222 144.653C169.567 144.331 169.74 143.906 169.74 143.379C169.74 142.102 169.037 141.463 167.631 141.463H166.286V139.477Z" fill="#1E73FF"/>
<path d="M278.99 113.573C278.425 113.482 277.969 113.437 277.623 113.437C276.712 113.437 276.256 113.915 276.256 114.872V115.604H277.835V116.581H276.256V123H274.991V116.581H273.822V115.604H274.991V114.797C274.996 114.008 275.217 113.405 275.654 112.985C276.092 112.566 276.714 112.356 277.521 112.356C277.981 112.356 278.892 112.495 280.255 112.773V123H278.99V113.573ZM285.396 123.137C284.393 123.137 283.577 122.809 282.948 122.152C282.319 121.492 282.005 120.61 282.005 119.507V119.274C282.005 118.541 282.144 117.887 282.422 117.312C282.704 116.734 283.096 116.283 283.598 115.959C284.104 115.631 284.65 115.467 285.238 115.467C286.2 115.467 286.947 115.784 287.48 116.417C288.014 117.05 288.28 117.957 288.28 119.138V119.664H283.27C283.288 120.393 283.5 120.983 283.905 121.435C284.315 121.881 284.835 122.104 285.464 122.104C285.91 122.104 286.289 122.013 286.599 121.831C286.909 121.649 287.18 121.407 287.412 121.106L288.185 121.708C287.565 122.66 286.635 123.137 285.396 123.137ZM285.238 116.506C284.728 116.506 284.299 116.693 283.953 117.066C283.607 117.436 283.393 117.955 283.311 118.625H287.016V118.529C286.979 117.887 286.806 117.39 286.496 117.039C286.186 116.684 285.767 116.506 285.238 116.506ZM292.231 118.304L293.872 115.604H295.349L292.929 119.261L295.424 123H293.961L292.252 120.231L290.543 123H289.073L291.568 119.261L289.148 115.604H290.611L292.231 118.304ZM299.327 119.288H295.991V118.256H299.327V119.288ZM300.264 119.24C300.264 118.087 300.53 117.171 301.063 116.492C301.597 115.809 302.303 115.467 303.183 115.467C304.085 115.467 304.789 115.786 305.295 116.424L305.356 115.604H306.512V122.822C306.512 123.779 306.227 124.534 305.657 125.085C305.092 125.636 304.331 125.912 303.374 125.912C302.841 125.912 302.319 125.798 301.809 125.57C301.298 125.342 300.909 125.03 300.64 124.634L301.296 123.875C301.838 124.545 302.501 124.88 303.285 124.88C303.9 124.88 304.379 124.707 304.721 124.36C305.067 124.014 305.24 123.526 305.24 122.897V122.262C304.734 122.845 304.044 123.137 303.169 123.137C302.303 123.137 301.601 122.788 301.063 122.091C300.53 121.394 300.264 120.443 300.264 119.24ZM301.535 119.384C301.535 120.218 301.706 120.874 302.048 121.353C302.39 121.826 302.868 122.063 303.483 122.063C304.281 122.063 304.867 121.701 305.24 120.977V117.6C304.853 116.893 304.272 116.54 303.497 116.54C302.882 116.54 302.401 116.779 302.055 117.258C301.708 117.736 301.535 118.445 301.535 119.384ZM312.001 116.738C311.81 116.706 311.602 116.69 311.379 116.69C310.549 116.69 309.987 117.044 309.69 117.75V123H308.426V115.604H309.656L309.677 116.458C310.091 115.797 310.679 115.467 311.44 115.467C311.687 115.467 311.873 115.499 312.001 115.562V116.738ZM312.698 119.233C312.698 118.509 312.84 117.857 313.122 117.278C313.409 116.7 313.806 116.253 314.312 115.938C314.822 115.624 315.403 115.467 316.055 115.467C317.062 115.467 317.875 115.815 318.495 116.513C319.119 117.21 319.432 118.137 319.432 119.295V119.384C319.432 120.104 319.293 120.751 319.015 121.325C318.741 121.895 318.347 122.339 317.832 122.658C317.322 122.977 316.734 123.137 316.068 123.137C315.066 123.137 314.252 122.788 313.628 122.091C313.008 121.394 312.698 120.471 312.698 119.322V119.233ZM313.97 119.384C313.97 120.204 314.159 120.863 314.537 121.359C314.92 121.856 315.43 122.104 316.068 122.104C316.711 122.104 317.221 121.854 317.6 121.353C317.978 120.847 318.167 120.14 318.167 119.233C318.167 118.422 317.973 117.766 317.586 117.265C317.203 116.759 316.693 116.506 316.055 116.506C315.43 116.506 314.927 116.754 314.544 117.251C314.161 117.748 313.97 118.459 313.97 119.384ZM327.566 121.257L328.988 115.604H330.253L328.1 123H327.074L325.276 117.395L323.526 123H322.501L320.354 115.604H321.612L323.068 121.141L324.791 115.604H325.81L327.566 121.257Z" fill="#666666"/>
<path d="M303.872 147H301.332V137.209L298.3 138.149V136.084L303.6 134.186H303.872V147Z" fill="#1E73FF"/>
<path d="M357.99 113.573C357.425 113.482 356.969 113.437 356.623 113.437C355.712 113.437 355.256 113.915 355.256 114.872V115.604H356.835V116.581H355.256V123H353.991V116.581H352.822V115.604H353.991V114.797C353.996 114.008 354.217 113.405 354.654 112.985C355.092 112.566 355.714 112.356 356.521 112.356C356.981 112.356 357.892 112.495 359.255 112.773V123H357.99V113.573ZM364.396 123.137C363.393 123.137 362.577 122.809 361.948 122.152C361.319 121.492 361.005 120.61 361.005 119.507V119.274C361.005 118.541 361.144 117.887 361.422 117.312C361.704 116.734 362.096 116.283 362.598 115.959C363.104 115.631 363.65 115.467 364.238 115.467C365.2 115.467 365.947 115.784 366.48 116.417C367.014 117.05 367.28 117.957 367.28 119.138V119.664H362.27C362.288 120.393 362.5 120.983 362.905 121.435C363.315 121.881 363.835 122.104 364.464 122.104C364.91 122.104 365.289 122.013 365.599 121.831C365.909 121.649 366.18 121.407 366.412 121.106L367.185 121.708C366.565 122.66 365.635 123.137 364.396 123.137ZM364.238 116.506C363.728 116.506 363.299 116.693 362.953 117.066C362.607 117.436 362.393 117.955 362.311 118.625H366.016V118.529C365.979 117.887 365.806 117.39 365.496 117.039C365.186 116.684 364.767 116.506 364.238 116.506ZM371.231 118.304L372.872 115.604H374.349L371.929 119.261L374.424 123H372.961L371.252 120.231L369.543 123H368.073L370.568 119.261L368.148 115.604H369.611L371.231 118.304ZM378.327 119.288H374.991V118.256H378.327V119.288ZM379.264 119.24C379.264 118.087 379.53 117.171 380.063 116.492C380.597 115.809 381.303 115.467 382.183 115.467C383.085 115.467 383.789 115.786 384.295 116.424L384.356 115.604H385.512V122.822C385.512 123.779 385.227 124.534 384.657 125.085C384.092 125.636 383.331 125.912 382.374 125.912C381.841 125.912 381.319 125.798 380.809 125.57C380.298 125.342 379.909 125.03 379.64 124.634L380.296 123.875C380.838 124.545 381.501 124.88 382.285 124.88C382.9 124.88 383.379 124.707 383.721 124.36C384.067 124.014 384.24 123.526 384.24 122.897V122.262C383.734 122.845 383.044 123.137 382.169 123.137C381.303 123.137 380.601 122.788 380.063 122.091C379.53 121.394 379.264 120.443 379.264 119.24ZM380.535 119.384C380.535 120.218 380.706 120.874 381.048 121.353C381.39 121.826 381.868 122.063 382.483 122.063C383.281 122.063 383.867 121.701 384.24 120.977V117.6C383.853 116.893 383.272 116.54 382.497 116.54C381.882 116.54 381.401 116.779 381.055 117.258C380.708 117.736 380.535 118.445 380.535 119.384ZM391.001 116.738C390.81 116.706 390.602 116.69 390.379 116.69C389.549 116.69 388.987 117.044 388.69 117.75V123H387.426V115.604H388.656L388.677 116.458C389.091 115.797 389.679 115.467 390.44 115.467C390.687 115.467 390.873 115.499 391.001 115.562V116.738ZM391.698 119.233C391.698 118.509 391.84 117.857 392.122 117.278C392.409 116.7 392.806 116.253 393.312 115.938C393.822 115.624 394.403 115.467 395.055 115.467C396.062 115.467 396.875 115.815 397.495 116.513C398.119 117.21 398.432 118.137 398.432 119.295V119.384C398.432 120.104 398.293 120.751 398.015 121.325C397.741 121.895 397.347 122.339 396.832 122.658C396.322 122.977 395.734 123.137 395.068 123.137C394.066 123.137 393.252 122.788 392.628 122.091C392.008 121.394 391.698 120.471 391.698 119.322V119.233ZM392.97 119.384C392.97 120.204 393.159 120.863 393.537 121.359C393.92 121.856 394.43 122.104 395.068 122.104C395.711 122.104 396.221 121.854 396.6 121.353C396.978 120.847 397.167 120.14 397.167 119.233C397.167 118.422 396.973 117.766 396.586 117.265C396.203 116.759 395.693 116.506 395.055 116.506C394.43 116.506 393.927 116.754 393.544 117.251C393.161 117.748 392.97 118.459 392.97 119.384ZM406.566 121.257L407.988 115.604H409.253L407.1 123H406.074L404.276 117.395L402.526 123H401.501L399.354 115.604H400.612L402.068 121.141L403.791 115.604H404.81L406.566 121.257Z" fill="#666666"/>
<path d="M382.872 147H380.332V137.209L377.3 138.149V136.084L382.6 134.186H382.872V147Z" fill="#1E73FF"/>
<path d="M436.99 113.573C436.425 113.482 435.969 113.437 435.623 113.437C434.712 113.437 434.256 113.915 434.256 114.872V115.604H435.835V116.581H434.256V123H432.991V116.581H431.822V115.604H432.991V114.797C432.996 114.008 433.217 113.405 433.654 112.985C434.092 112.566 434.714 112.356 435.521 112.356C435.981 112.356 436.892 112.495 438.255 112.773V123H436.99V113.573ZM443.396 123.137C442.393 123.137 441.577 122.809 440.948 122.152C440.319 121.492 440.005 120.61 440.005 119.507V119.274C440.005 118.541 440.144 117.887 440.422 117.312C440.704 116.734 441.096 116.283 441.598 115.959C442.104 115.631 442.65 115.467 443.238 115.467C444.2 115.467 444.947 115.784 445.48 116.417C446.014 117.05 446.28 117.957 446.28 119.138V119.664H441.27C441.288 120.393 441.5 120.983 441.905 121.435C442.315 121.881 442.835 122.104 443.464 122.104C443.91 122.104 444.289 122.013 444.599 121.831C444.909 121.649 445.18 121.407 445.412 121.106L446.185 121.708C445.565 122.66 444.635 123.137 443.396 123.137ZM443.238 116.506C442.728 116.506 442.299 116.693 441.953 117.066C441.607 117.436 441.393 117.955 441.311 118.625H445.016V118.529C444.979 117.887 444.806 117.39 444.496 117.039C444.186 116.684 443.767 116.506 443.238 116.506ZM450.231 118.304L451.872 115.604H453.349L450.929 119.261L453.424 123H451.961L450.252 120.231L448.543 123H447.073L449.568 119.261L447.148 115.604H448.611L450.231 118.304ZM457.327 119.288H453.991V118.256H457.327V119.288ZM458.264 119.24C458.264 118.087 458.53 117.171 459.063 116.492C459.597 115.809 460.303 115.467 461.183 115.467C462.085 115.467 462.789 115.786 463.295 116.424L463.356 115.604H464.512V122.822C464.512 123.779 464.227 124.534 463.657 125.085C463.092 125.636 462.331 125.912 461.374 125.912C460.841 125.912 460.319 125.798 459.809 125.57C459.298 125.342 458.909 125.03 458.64 124.634L459.296 123.875C459.838 124.545 460.501 124.88 461.285 124.88C461.9 124.88 462.379 124.707 462.721 124.36C463.067 124.014 463.24 123.526 463.24 122.897V122.262C462.734 122.845 462.044 123.137 461.169 123.137C460.303 123.137 459.601 122.788 459.063 122.091C458.53 121.394 458.264 120.443 458.264 119.24ZM459.535 119.384C459.535 120.218 459.706 120.874 460.048 121.353C460.39 121.826 460.868 122.063 461.483 122.063C462.281 122.063 462.867 121.701 463.24 120.977V117.6C462.853 116.893 462.272 116.54 461.497 116.54C460.882 116.54 460.401 116.779 460.055 117.258C459.708 117.736 459.535 118.445 459.535 119.384ZM470.001 116.738C469.81 116.706 469.602 116.69 469.379 116.69C468.549 116.69 467.987 117.044 467.69 117.75V123H466.426V115.604H467.656L467.677 116.458C468.091 115.797 468.679 115.467 469.44 115.467C469.687 115.467 469.873 115.499 470.001 115.562V116.738ZM470.698 119.233C470.698 118.509 470.84 117.857 471.122 117.278C471.409 116.7 471.806 116.253 472.312 115.938C472.822 115.624 473.403 115.467 474.055 115.467C475.062 115.467 475.875 115.815 476.495 116.513C477.119 117.21 477.432 118.137 477.432 119.295V119.384C477.432 120.104 477.293 120.751 477.015 121.325C476.741 121.895 476.347 122.339 475.832 122.658C475.322 122.977 474.734 123.137 474.068 123.137C473.066 123.137 472.252 122.788 471.628 122.091C471.008 121.394 470.698 120.471 470.698 119.322V119.233ZM471.97 119.384C471.97 120.204 472.159 120.863 472.537 121.359C472.92 121.856 473.43 122.104 474.068 122.104C474.711 122.104 475.221 121.854 475.6 121.353C475.978 120.847 476.167 120.14 476.167 119.233C476.167 118.422 475.973 117.766 475.586 117.265C475.203 116.759 474.693 116.506 474.055 116.506C473.43 116.506 472.927 116.754 472.544 117.251C472.161 117.748 471.97 118.459 471.97 119.384ZM485.566 121.257L486.988 115.604H488.253L486.1 123H485.074L483.276 117.395L481.526 123H480.501L478.354 115.604H479.612L481.068 121.141L482.791 115.604H483.81L485.566 121.257Z" fill="#666666"/>
<path d="M461.872 147H459.332V137.209L456.3 138.149V136.084L461.6 134.186H461.872V147Z" fill="#1E73FF"/>
</svg>
