<svg width="537" height="332" viewBox="0 0 537 332" fill="none" xmlns="http://www.w3.org/2000/svg">
<rect x="406" y="31" width="78" height="78" rx="5" transform="rotate(90 406 31)" fill="#EEEEEE" stroke="#EEEEEE" stroke-width="2"/>
<rect x="406" y="126" width="78" height="78" rx="5" transform="rotate(90 406 126)" fill="#EEEEEE" stroke="#EEEEEE" stroke-width="2"/>
<rect x="406" y="221" width="78" height="78" rx="5" transform="rotate(90 406 221)" fill="#EEEEEE" stroke="#EEEEEE" stroke-width="2"/>
<path d="M369 54C369 52.8954 368.105 52 367 52C365.895 52 365 52.8954 365 54L369 54ZM365.586 277.414C366.367 278.195 367.633 278.195 368.414 277.414L381.142 264.686C381.923 263.905 381.923 262.639 381.142 261.858C380.361 261.077 379.095 261.077 378.314 261.858L367 273.172L355.686 261.858C354.905 261.077 353.639 261.077 352.858 261.858C352.077 262.639 352.077 263.905 352.858 264.686L365.586 277.414ZM365 54L365 276L369 276L369 54L365 54Z" fill="#1E73FF"/>
<rect x="-1" y="-1" width="78" height="78" rx="5" transform="matrix(-4.37114e-08 -1 -1 4.37114e-08 525 298)" fill="#EEEEEE" stroke="#EEEEEE" stroke-width="2"/>
<rect x="-1" y="-1" width="78" height="78" rx="5" transform="matrix(-4.37114e-08 -1 -1 4.37114e-08 525 203)" fill="#EEEEEE" stroke="#EEEEEE" stroke-width="2"/>
<rect x="-1" y="-1" width="78" height="78" rx="5" transform="matrix(-4.37114e-08 -1 -1 4.37114e-08 525 108)" fill="#EEEEEE" stroke="#EEEEEE" stroke-width="2"/>
<path d="M489 276C489 277.105 488.105 278 487 278C485.895 278 485 277.105 485 276L489 276ZM485.586 52.5858C486.367 51.8047 487.633 51.8047 488.414 52.5858L501.142 65.3137C501.923 66.0948 501.923 67.3611 501.142 68.1421C500.361 68.9232 499.095 68.9232 498.314 68.1421L487 56.8284L475.686 68.1421C474.905 68.9232 473.639 68.9232 472.858 68.1421C472.077 67.3611 472.077 66.0948 472.858 65.3137L485.586 52.5858ZM485 276L485 54L489 54L489 276L485 276Z" fill="#00986B"/>
<path d="M330.688 4.22656C330.042 4.1224 329.521 4.07031 329.125 4.07031C328.083 4.07031 327.562 4.61719 327.562 5.71094V6.54688H329.367V7.66406H327.562V15H326.117V7.66406H324.781V6.54688H326.117V5.625C326.122 4.72396 326.375 4.03385 326.875 3.55469C327.375 3.07552 328.086 2.83594 329.008 2.83594C329.534 2.83594 330.576 2.99479 332.133 3.3125V15H330.688V4.22656ZM338.008 15.1563C336.862 15.1563 335.93 14.7813 335.211 14.0313C334.492 13.276 334.133 12.2682 334.133 11.0078V10.7422C334.133 9.90365 334.292 9.15625 334.609 8.5C334.932 7.83854 335.38 7.32292 335.953 6.95313C336.531 6.57813 337.156 6.39063 337.828 6.39063C338.927 6.39063 339.781 6.7526 340.391 7.47656C341 8.20052 341.305 9.23698 341.305 10.5859V11.1875L335.578 11.1875C335.599 12.0208 335.841 12.6953 336.305 13.2109C336.773 13.7214 337.367 13.9766 338.086 13.9766C338.596 13.9766 339.029 13.8724 339.383 13.6641C339.737 13.4557 340.047 13.1797 340.312 12.8359L341.195 13.5234C340.487 14.612 339.424 15.1563 338.008 15.1563ZM337.828 7.57813C337.245 7.57813 336.755 7.79167 336.359 8.21875C335.964 8.64063 335.719 9.23438 335.625 10H339.859V9.89063C339.818 9.15625 339.62 8.58854 339.266 8.1875C338.911 7.78125 338.432 7.57813 337.828 7.57813ZM345.82 9.63281L347.695 6.54688L349.383 6.54688L346.617 10.7266L349.469 15H347.797L345.844 11.8359L343.891 15H342.211L345.062 10.7266L342.297 6.54688L343.969 6.54688L345.82 9.63281ZM353.93 10.7578L350.117 10.7578V9.57813L353.93 9.57813V10.7578ZM354.992 10.7031C354.992 9.40625 355.299 8.36458 355.914 7.57813C356.529 6.78646 357.333 6.39063 358.328 6.39063C359.318 6.39063 360.102 6.72917 360.68 7.40625V3L362.125 3V15H360.797L360.727 14.0938C360.148 14.8021 359.344 15.1563 358.312 15.1563C357.333 15.1563 356.534 14.7552 355.914 13.9531C355.299 13.151 354.992 12.1042 354.992 10.8125V10.7031ZM356.438 10.8672C356.438 11.8255 356.635 12.5755 357.031 13.1172C357.427 13.6589 357.974 13.9297 358.672 13.9297C359.589 13.9297 360.258 13.5182 360.68 12.6953V8.8125C360.247 8.01563 359.583 7.61719 358.688 7.61719C357.979 7.61719 357.427 7.89063 357.031 8.4375C356.635 8.98438 356.438 9.79427 356.438 10.8672ZM365.945 15H364.5V6.54688L365.945 6.54688V15ZM364.383 4.30469C364.383 4.07031 364.453 3.8724 364.594 3.71094C364.74 3.54948 364.953 3.46875 365.234 3.46875C365.516 3.46875 365.729 3.54948 365.875 3.71094C366.021 3.8724 366.094 4.07031 366.094 4.30469C366.094 4.53906 366.021 4.73438 365.875 4.89063C365.729 5.04688 365.516 5.125 365.234 5.125C364.953 5.125 364.74 5.04688 364.594 4.89063C364.453 4.73438 364.383 4.53906 364.383 4.30469ZM372.352 7.84375C372.133 7.80729 371.896 7.78906 371.641 7.78906C370.693 7.78906 370.049 8.19271 369.711 9V15H368.266V6.54688H369.672L369.695 7.52344C370.169 6.76823 370.841 6.39063 371.711 6.39063C371.992 6.39063 372.206 6.42708 372.352 6.5V7.84375ZM377.039 15.1563C375.893 15.1563 374.961 14.7813 374.242 14.0313C373.523 13.276 373.164 12.2682 373.164 11.0078V10.7422C373.164 9.90365 373.323 9.15625 373.641 8.5C373.964 7.83854 374.411 7.32292 374.984 6.95313C375.562 6.57813 376.188 6.39063 376.859 6.39063C377.958 6.39063 378.812 6.7526 379.422 7.47656C380.031 8.20052 380.336 9.23698 380.336 10.5859V11.1875H374.609C374.63 12.0208 374.872 12.6953 375.336 13.2109C375.805 13.7214 376.398 13.9766 377.117 13.9766C377.628 13.9766 378.06 13.8724 378.414 13.6641C378.768 13.4557 379.078 13.1797 379.344 12.8359L380.227 13.5234C379.518 14.612 378.456 15.1563 377.039 15.1563ZM376.859 7.57813C376.276 7.57813 375.786 7.79167 375.391 8.21875C374.995 8.64063 374.75 9.23438 374.656 10H378.891V9.89063C378.849 9.15625 378.651 8.58854 378.297 8.1875C377.943 7.78125 377.464 7.57813 376.859 7.57813ZM385.406 13.9766C385.922 13.9766 386.372 13.8203 386.758 13.5078C387.143 13.1953 387.357 12.8047 387.398 12.3359H388.766C388.74 12.8203 388.573 13.2813 388.266 13.7188C387.958 14.1563 387.547 14.5052 387.031 14.7656C386.521 15.026 385.979 15.1563 385.406 15.1563C384.255 15.1563 383.339 14.7734 382.656 14.0078C381.979 13.237 381.641 12.1849 381.641 10.8516V10.6094C381.641 9.78646 381.792 9.05469 382.094 8.41406C382.396 7.77344 382.828 7.27604 383.391 6.92188C383.958 6.56771 384.628 6.39063 385.398 6.39063C386.346 6.39063 387.133 6.67448 387.758 7.24219C388.388 7.8099 388.724 8.54688 388.766 9.45313H387.398C387.357 8.90625 387.148 8.45833 386.773 8.10938C386.404 7.75521 385.945 7.57813 385.398 7.57813C384.664 7.57813 384.094 7.84375 383.688 8.375C383.286 8.90104 383.086 9.66406 383.086 10.6641V10.9375C383.086 11.9115 383.286 12.6615 383.688 13.1875C384.089 13.7135 384.661 13.9766 385.406 13.9766ZM392.352 4.5V6.54688L393.93 6.54688V7.66406L392.352 7.66406V12.9063C392.352 13.2448 392.422 13.5 392.562 13.6719C392.703 13.8385 392.943 13.9219 393.281 13.9219C393.448 13.9219 393.677 13.8906 393.969 13.8281V15C393.589 15.1042 393.219 15.1563 392.859 15.1563C392.214 15.1563 391.727 14.9609 391.398 14.5703C391.07 14.1797 390.906 13.625 390.906 12.9063V7.66406H389.367V6.54688H390.906V4.5H392.352ZM397.195 15L395.75 15V6.54688H397.195V15ZM395.633 4.30469C395.633 4.07031 395.703 3.8724 395.844 3.71094C395.99 3.54948 396.203 3.46875 396.484 3.46875C396.766 3.46875 396.979 3.54948 397.125 3.71094C397.271 3.8724 397.344 4.07031 397.344 4.30469C397.344 4.53906 397.271 4.73438 397.125 4.89063C396.979 5.04688 396.766 5.125 396.484 5.125C396.203 5.125 395.99 5.04688 395.844 4.89063C395.703 4.73438 395.633 4.53906 395.633 4.30469ZM399.133 10.6953C399.133 9.86719 399.294 9.1224 399.617 8.46094C399.945 7.79948 400.398 7.28906 400.977 6.92969C401.56 6.57031 402.224 6.39063 402.969 6.39063C404.12 6.39063 405.049 6.78906 405.758 7.58594C406.471 8.38281 406.828 9.44271 406.828 10.7656V10.8672C406.828 11.6901 406.669 12.4297 406.352 13.0859C406.039 13.737 405.589 14.2448 405 14.6094C404.417 14.974 403.745 15.1563 402.984 15.1563C401.839 15.1563 400.909 14.7578 400.195 13.9609C399.487 13.1641 399.133 12.1094 399.133 10.7969V10.6953ZM400.586 10.8672C400.586 11.8047 400.802 12.5573 401.234 13.125C401.672 13.6927 402.255 13.9766 402.984 13.9766C403.719 13.9766 404.302 13.6901 404.734 13.1172C405.167 12.5391 405.383 11.7318 405.383 10.6953C405.383 9.76823 405.161 9.01823 404.719 8.44531C404.281 7.86719 403.698 7.57813 402.969 7.57813C402.255 7.57813 401.68 7.86198 401.242 8.42969C400.805 8.9974 400.586 9.8099 400.586 10.8672ZM410.008 6.54688L410.055 7.60938C410.701 6.79688 411.544 6.39063 412.586 6.39063C414.372 6.39063 415.273 7.39844 415.289 9.41406V15H413.844V9.40625C413.839 8.79688 413.698 8.34635 413.422 8.05469C413.151 7.76302 412.727 7.61719 412.148 7.61719C411.68 7.61719 411.268 7.74219 410.914 7.99219C410.56 8.24219 410.284 8.57031 410.086 8.97656V15H408.641V6.54688L410.008 6.54688ZM417.422 14.2422C417.422 13.9922 417.495 13.7839 417.641 13.6172C417.792 13.4505 418.016 13.3672 418.312 13.3672C418.609 13.3672 418.833 13.4505 418.984 13.6172C419.141 13.7839 419.219 13.9922 419.219 14.2422C419.219 14.4818 419.141 14.6823 418.984 14.8438C418.833 15.0052 418.609 15.0859 418.312 15.0859C418.016 15.0859 417.792 15.0052 417.641 14.8438C417.495 14.6823 417.422 14.4818 417.422 14.2422ZM417.43 7.34375C417.43 7.09375 417.503 6.88542 417.648 6.71875C417.799 6.55208 418.023 6.46875 418.32 6.46875C418.617 6.46875 418.841 6.55208 418.992 6.71875C419.148 6.88542 419.227 7.09375 419.227 7.34375C419.227 7.58333 419.148 7.78385 418.992 7.94531C418.841 8.10677 418.617 8.1875 418.32 8.1875C418.023 8.1875 417.799 8.10677 417.648 7.94531C417.503 7.78385 417.43 7.58333 417.43 7.34375ZM428.703 13.9766C429.219 13.9766 429.669 13.8203 430.055 13.5078C430.44 13.1953 430.654 12.8047 430.695 12.3359H432.062C432.036 12.8203 431.87 13.2813 431.562 13.7188C431.255 14.1563 430.844 14.5052 430.328 14.7656C429.818 15.026 429.276 15.1563 428.703 15.1563C427.552 15.1563 426.635 14.7734 425.953 14.0078C425.276 13.237 424.938 12.1849 424.938 10.8516V10.6094C424.938 9.78646 425.089 9.05469 425.391 8.41406C425.693 7.77344 426.125 7.27604 426.688 6.92188C427.255 6.56771 427.924 6.39063 428.695 6.39063C429.643 6.39063 430.43 6.67448 431.055 7.24219C431.685 7.8099 432.021 8.54688 432.062 9.45313H430.695C430.654 8.90625 430.445 8.45833 430.07 8.10938C429.701 7.75521 429.242 7.57813 428.695 7.57813C427.961 7.57813 427.391 7.84375 426.984 8.375C426.583 8.90104 426.383 9.66406 426.383 10.6641V10.9375C426.383 11.9115 426.583 12.6615 426.984 13.1875C427.385 13.7135 427.958 13.9766 428.703 13.9766ZM433.305 10.6953C433.305 9.86719 433.466 9.1224 433.789 8.46094C434.117 7.79948 434.57 7.28906 435.148 6.92969C435.732 6.57031 436.396 6.39063 437.141 6.39063C438.292 6.39063 439.221 6.78906 439.93 7.58594C440.643 8.38281 441 9.44271 441 10.7656V10.8672C441 11.6901 440.841 12.4297 440.523 13.0859C440.211 13.737 439.76 14.2448 439.172 14.6094C438.589 14.974 437.917 15.1563 437.156 15.1563C436.01 15.1563 435.081 14.7578 434.367 13.9609C433.659 13.1641 433.305 12.1094 433.305 10.7969V10.6953ZM434.758 10.8672C434.758 11.8047 434.974 12.5573 435.406 13.125C435.844 13.6927 436.427 13.9766 437.156 13.9766C437.891 13.9766 438.474 13.6901 438.906 13.1172C439.339 12.5391 439.555 11.7318 439.555 10.6953C439.555 9.76823 439.333 9.01823 438.891 8.44531C438.453 7.86719 437.87 7.57813 437.141 7.57813C436.427 7.57813 435.852 7.86198 435.414 8.42969C434.977 8.9974 434.758 9.8099 434.758 10.8672ZM444.383 15H442.938V3L444.383 3V15ZM451.922 14.1641C451.359 14.8255 450.534 15.1563 449.445 15.1563C448.544 15.1563 447.857 14.8958 447.383 14.375C446.914 13.849 446.677 13.0729 446.672 12.0469V6.54688H448.117V12.0078C448.117 13.2891 448.638 13.9297 449.68 13.9297C450.784 13.9297 451.518 13.5182 451.883 12.6953V6.54688H453.328V15H451.953L451.922 14.1641ZM456.891 6.54688L456.93 7.48438C457.549 6.75521 458.385 6.39063 459.438 6.39063C460.62 6.39063 461.424 6.84375 461.852 7.75C462.133 7.34375 462.497 7.01563 462.945 6.76563C463.398 6.51563 463.932 6.39063 464.547 6.39063C466.401 6.39063 467.344 7.3724 467.375 9.33594V15H465.93V9.42188C465.93 8.81771 465.792 8.36719 465.516 8.07031C465.24 7.76823 464.776 7.61719 464.125 7.61719C463.589 7.61719 463.143 7.77865 462.789 8.10156C462.435 8.41927 462.229 8.84896 462.172 9.39063V15L460.719 15V9.46094C460.719 8.23177 460.117 7.61719 458.914 7.61719C457.966 7.61719 457.318 8.02083 456.969 8.82813V15H455.523V6.54688H456.891ZM470.93 6.54688L470.977 7.60938C471.622 6.79688 472.466 6.39063 473.508 6.39063C475.294 6.39063 476.195 7.39844 476.211 9.41406V15H474.766V9.40625C474.76 8.79688 474.62 8.34635 474.344 8.05469C474.073 7.76302 473.648 7.61719 473.07 7.61719C472.602 7.61719 472.19 7.74219 471.836 7.99219C471.482 8.24219 471.206 8.57031 471.008 8.97656V15H469.562V6.54688L470.93 6.54688ZM478.164 7.34375C478.164 7.09375 478.237 6.88542 478.383 6.71875C478.534 6.55208 478.758 6.46875 479.055 6.46875C479.352 6.46875 479.576 6.55208 479.727 6.71875C479.883 6.88542 479.961 7.09375 479.961 7.34375C479.961 7.58333 479.883 7.78385 479.727 7.94531C479.576 8.10677 479.352 8.1875 479.055 8.1875C478.758 8.1875 478.534 8.10677 478.383 7.94531C478.237 7.78385 478.164 7.58333 478.164 7.34375ZM478.438 17.2656L477.617 16.7031C478.107 16.0208 478.362 15.3177 478.383 14.5938V13.2891H479.797V14.4219C479.797 14.9479 479.667 15.474 479.406 16C479.151 16.526 478.828 16.9479 478.438 17.2656Z" fill="#1E73FF"/>
<path d="M330.516 317.227C329.87 317.122 329.349 317.07 328.953 317.07C327.911 317.07 327.391 317.617 327.391 318.711V319.547H329.195V320.664H327.391V328H325.945V320.664H324.609V319.547H325.945V318.625C325.951 317.724 326.203 317.034 326.703 316.555C327.203 316.076 327.914 315.836 328.836 315.836C329.362 315.836 330.404 315.995 331.961 316.312V328H330.516V317.227ZM337.836 328.156C336.69 328.156 335.758 327.781 335.039 327.031C334.32 326.276 333.961 325.268 333.961 324.008V323.742C333.961 322.904 334.12 322.156 334.438 321.5C334.76 320.839 335.208 320.323 335.781 319.953C336.359 319.578 336.984 319.391 337.656 319.391C338.755 319.391 339.609 319.753 340.219 320.477C340.828 321.201 341.133 322.237 341.133 323.586V324.188H335.406C335.427 325.021 335.669 325.695 336.133 326.211C336.602 326.721 337.195 326.977 337.914 326.977C338.424 326.977 338.857 326.872 339.211 326.664C339.565 326.456 339.875 326.18 340.141 325.836L341.023 326.523C340.315 327.612 339.253 328.156 337.836 328.156ZM337.656 320.578C337.073 320.578 336.583 320.792 336.188 321.219C335.792 321.641 335.547 322.234 335.453 323H339.688V322.891C339.646 322.156 339.448 321.589 339.094 321.188C338.74 320.781 338.26 320.578 337.656 320.578ZM345.648 322.633L347.523 319.547H349.211L346.445 323.727L349.297 328H347.625L345.672 324.836L343.719 328H342.039L344.891 323.727L342.125 319.547H343.797L345.648 322.633ZM353.758 323.758H349.945V322.578H353.758V323.758ZM354.82 323.703C354.82 322.406 355.128 321.365 355.742 320.578C356.357 319.786 357.161 319.391 358.156 319.391C359.146 319.391 359.93 319.729 360.508 320.406V316H361.953V328H360.625L360.555 327.094C359.977 327.802 359.172 328.156 358.141 328.156C357.161 328.156 356.362 327.755 355.742 326.953C355.128 326.151 354.82 325.104 354.82 323.812V323.703ZM356.266 323.867C356.266 324.826 356.464 325.576 356.859 326.117C357.255 326.659 357.802 326.93 358.5 326.93C359.417 326.93 360.086 326.518 360.508 325.695V321.812C360.076 321.016 359.411 320.617 358.516 320.617C357.807 320.617 357.255 320.891 356.859 321.438C356.464 321.984 356.266 322.794 356.266 323.867ZM365.773 328H364.328V319.547H365.773V328ZM364.211 317.305C364.211 317.07 364.281 316.872 364.422 316.711C364.568 316.549 364.781 316.469 365.062 316.469C365.344 316.469 365.557 316.549 365.703 316.711C365.849 316.872 365.922 317.07 365.922 317.305C365.922 317.539 365.849 317.734 365.703 317.891C365.557 318.047 365.344 318.125 365.062 318.125C364.781 318.125 364.568 318.047 364.422 317.891C364.281 317.734 364.211 317.539 364.211 317.305ZM372.18 320.844C371.961 320.807 371.724 320.789 371.469 320.789C370.521 320.789 369.878 321.193 369.539 322V328H368.094V319.547H369.5L369.523 320.523C369.997 319.768 370.669 319.391 371.539 319.391C371.82 319.391 372.034 319.427 372.18 319.5V320.844ZM376.867 328.156C375.721 328.156 374.789 327.781 374.07 327.031C373.352 326.276 372.992 325.268 372.992 324.008V323.742C372.992 322.904 373.151 322.156 373.469 321.5C373.792 320.839 374.24 320.323 374.812 319.953C375.391 319.578 376.016 319.391 376.688 319.391C377.786 319.391 378.641 319.753 379.25 320.477C379.859 321.201 380.164 322.237 380.164 323.586V324.188H374.438C374.458 325.021 374.701 325.695 375.164 326.211C375.633 326.721 376.227 326.977 376.945 326.977C377.456 326.977 377.888 326.872 378.242 326.664C378.596 326.456 378.906 326.18 379.172 325.836L380.055 326.523C379.346 327.612 378.284 328.156 376.867 328.156ZM376.688 320.578C376.104 320.578 375.615 320.792 375.219 321.219C374.823 321.641 374.578 322.234 374.484 323H378.719V322.891C378.677 322.156 378.479 321.589 378.125 321.188C377.771 320.781 377.292 320.578 376.688 320.578ZM385.234 326.977C385.75 326.977 386.201 326.82 386.586 326.508C386.971 326.195 387.185 325.805 387.227 325.336H388.594C388.568 325.82 388.401 326.281 388.094 326.719C387.786 327.156 387.375 327.505 386.859 327.766C386.349 328.026 385.807 328.156 385.234 328.156C384.083 328.156 383.167 327.773 382.484 327.008C381.807 326.237 381.469 325.185 381.469 323.852V323.609C381.469 322.786 381.62 322.055 381.922 321.414C382.224 320.773 382.656 320.276 383.219 319.922C383.786 319.568 384.456 319.391 385.227 319.391C386.174 319.391 386.961 319.674 387.586 320.242C388.216 320.81 388.552 321.547 388.594 322.453H387.227C387.185 321.906 386.977 321.458 386.602 321.109C386.232 320.755 385.773 320.578 385.227 320.578C384.492 320.578 383.922 320.844 383.516 321.375C383.115 321.901 382.914 322.664 382.914 323.664V323.938C382.914 324.911 383.115 325.661 383.516 326.188C383.917 326.714 384.49 326.977 385.234 326.977ZM392.18 317.5V319.547H393.758V320.664H392.18V325.906C392.18 326.245 392.25 326.5 392.391 326.672C392.531 326.839 392.771 326.922 393.109 326.922C393.276 326.922 393.505 326.891 393.797 326.828V328C393.417 328.104 393.047 328.156 392.688 328.156C392.042 328.156 391.555 327.961 391.227 327.57C390.898 327.18 390.734 326.625 390.734 325.906V320.664H389.195V319.547H390.734V317.5H392.18ZM397.023 328H395.578V319.547H397.023V328ZM395.461 317.305C395.461 317.07 395.531 316.872 395.672 316.711C395.818 316.549 396.031 316.469 396.312 316.469C396.594 316.469 396.807 316.549 396.953 316.711C397.099 316.872 397.172 317.07 397.172 317.305C397.172 317.539 397.099 317.734 396.953 317.891C396.807 318.047 396.594 318.125 396.312 318.125C396.031 318.125 395.818 318.047 395.672 317.891C395.531 317.734 395.461 317.539 395.461 317.305ZM398.961 323.695C398.961 322.867 399.122 322.122 399.445 321.461C399.773 320.799 400.227 320.289 400.805 319.93C401.388 319.57 402.052 319.391 402.797 319.391C403.948 319.391 404.878 319.789 405.586 320.586C406.299 321.383 406.656 322.443 406.656 323.766V323.867C406.656 324.69 406.497 325.43 406.18 326.086C405.867 326.737 405.417 327.245 404.828 327.609C404.245 327.974 403.573 328.156 402.812 328.156C401.667 328.156 400.737 327.758 400.023 326.961C399.315 326.164 398.961 325.109 398.961 323.797V323.695ZM400.414 323.867C400.414 324.805 400.63 325.557 401.062 326.125C401.5 326.693 402.083 326.977 402.812 326.977C403.547 326.977 404.13 326.69 404.562 326.117C404.995 325.539 405.211 324.732 405.211 323.695C405.211 322.768 404.99 322.018 404.547 321.445C404.109 320.867 403.526 320.578 402.797 320.578C402.083 320.578 401.508 320.862 401.07 321.43C400.633 321.997 400.414 322.81 400.414 323.867ZM409.836 319.547L409.883 320.609C410.529 319.797 411.372 319.391 412.414 319.391C414.201 319.391 415.102 320.398 415.117 322.414V328H413.672V322.406C413.667 321.797 413.526 321.346 413.25 321.055C412.979 320.763 412.555 320.617 411.977 320.617C411.508 320.617 411.096 320.742 410.742 320.992C410.388 321.242 410.112 321.57 409.914 321.977V328H408.469V319.547H409.836ZM417.25 327.242C417.25 326.992 417.323 326.784 417.469 326.617C417.62 326.451 417.844 326.367 418.141 326.367C418.438 326.367 418.661 326.451 418.812 326.617C418.969 326.784 419.047 326.992 419.047 327.242C419.047 327.482 418.969 327.682 418.812 327.844C418.661 328.005 418.438 328.086 418.141 328.086C417.844 328.086 417.62 328.005 417.469 327.844C417.323 327.682 417.25 327.482 417.25 327.242ZM417.258 320.344C417.258 320.094 417.331 319.885 417.477 319.719C417.628 319.552 417.852 319.469 418.148 319.469C418.445 319.469 418.669 319.552 418.82 319.719C418.977 319.885 419.055 320.094 419.055 320.344C419.055 320.583 418.977 320.784 418.82 320.945C418.669 321.107 418.445 321.188 418.148 321.188C417.852 321.188 417.628 321.107 417.477 320.945C417.331 320.784 417.258 320.583 417.258 320.344ZM428.531 326.977C429.047 326.977 429.497 326.82 429.883 326.508C430.268 326.195 430.482 325.805 430.523 325.336H431.891C431.865 325.82 431.698 326.281 431.391 326.719C431.083 327.156 430.672 327.505 430.156 327.766C429.646 328.026 429.104 328.156 428.531 328.156C427.38 328.156 426.464 327.773 425.781 327.008C425.104 326.237 424.766 325.185 424.766 323.852V323.609C424.766 322.786 424.917 322.055 425.219 321.414C425.521 320.773 425.953 320.276 426.516 319.922C427.083 319.568 427.753 319.391 428.523 319.391C429.471 319.391 430.258 319.674 430.883 320.242C431.513 320.81 431.849 321.547 431.891 322.453H430.523C430.482 321.906 430.273 321.458 429.898 321.109C429.529 320.755 429.07 320.578 428.523 320.578C427.789 320.578 427.219 320.844 426.812 321.375C426.411 321.901 426.211 322.664 426.211 323.664V323.938C426.211 324.911 426.411 325.661 426.812 326.188C427.214 326.714 427.786 326.977 428.531 326.977ZM433.133 323.695C433.133 322.867 433.294 322.122 433.617 321.461C433.945 320.799 434.398 320.289 434.977 319.93C435.56 319.57 436.224 319.391 436.969 319.391C438.12 319.391 439.049 319.789 439.758 320.586C440.471 321.383 440.828 322.443 440.828 323.766V323.867C440.828 324.69 440.669 325.43 440.352 326.086C440.039 326.737 439.589 327.245 439 327.609C438.417 327.974 437.745 328.156 436.984 328.156C435.839 328.156 434.909 327.758 434.195 326.961C433.487 326.164 433.133 325.109 433.133 323.797V323.695ZM434.586 323.867C434.586 324.805 434.802 325.557 435.234 326.125C435.672 326.693 436.255 326.977 436.984 326.977C437.719 326.977 438.302 326.69 438.734 326.117C439.167 325.539 439.383 324.732 439.383 323.695C439.383 322.768 439.161 322.018 438.719 321.445C438.281 320.867 437.698 320.578 436.969 320.578C436.255 320.578 435.68 320.862 435.242 321.43C434.805 321.997 434.586 322.81 434.586 323.867ZM444.211 328H442.766V316H444.211V328ZM451.75 327.164C451.188 327.826 450.362 328.156 449.273 328.156C448.372 328.156 447.685 327.896 447.211 327.375C446.742 326.849 446.505 326.073 446.5 325.047V319.547H447.945V325.008C447.945 326.289 448.466 326.93 449.508 326.93C450.612 326.93 451.346 326.518 451.711 325.695V319.547H453.156V328H451.781L451.75 327.164ZM456.719 319.547L456.758 320.484C457.378 319.755 458.214 319.391 459.266 319.391C460.448 319.391 461.253 319.844 461.68 320.75C461.961 320.344 462.326 320.016 462.773 319.766C463.227 319.516 463.76 319.391 464.375 319.391C466.229 319.391 467.172 320.372 467.203 322.336V328H465.758V322.422C465.758 321.818 465.62 321.367 465.344 321.07C465.068 320.768 464.604 320.617 463.953 320.617C463.417 320.617 462.971 320.779 462.617 321.102C462.263 321.419 462.057 321.849 462 322.391V328H460.547V322.461C460.547 321.232 459.945 320.617 458.742 320.617C457.794 320.617 457.146 321.021 456.797 321.828V328H455.352V319.547H456.719ZM470.758 319.547L470.805 320.609C471.451 319.797 472.294 319.391 473.336 319.391C475.122 319.391 476.023 320.398 476.039 322.414V328H474.594V322.406C474.589 321.797 474.448 321.346 474.172 321.055C473.901 320.763 473.477 320.617 472.898 320.617C472.43 320.617 472.018 320.742 471.664 320.992C471.31 321.242 471.034 321.57 470.836 321.977V328H469.391V319.547H470.758ZM481.227 323.758H477.414V322.578H481.227V323.758ZM486.727 320.844C486.508 320.807 486.271 320.789 486.016 320.789C485.068 320.789 484.424 321.193 484.086 322V328H482.641V319.547H484.047L484.07 320.523C484.544 319.768 485.216 319.391 486.086 319.391C486.367 319.391 486.581 319.427 486.727 319.5V320.844ZM491.414 328.156C490.268 328.156 489.336 327.781 488.617 327.031C487.898 326.276 487.539 325.268 487.539 324.008V323.742C487.539 322.904 487.698 322.156 488.016 321.5C488.339 320.839 488.786 320.323 489.359 319.953C489.938 319.578 490.562 319.391 491.234 319.391C492.333 319.391 493.188 319.753 493.797 320.477C494.406 321.201 494.711 322.237 494.711 323.586V324.188H488.984C489.005 325.021 489.247 325.695 489.711 326.211C490.18 326.721 490.773 326.977 491.492 326.977C492.003 326.977 492.435 326.872 492.789 326.664C493.143 326.456 493.453 326.18 493.719 325.836L494.602 326.523C493.893 327.612 492.831 328.156 491.414 328.156ZM491.234 320.578C490.651 320.578 490.161 320.792 489.766 321.219C489.37 321.641 489.125 322.234 489.031 323H493.266V322.891C493.224 322.156 493.026 321.589 492.672 321.188C492.318 320.781 491.839 320.578 491.234 320.578ZM499.07 326.039L501.164 319.547H502.641L499.609 328H498.508L495.445 319.547H496.922L499.07 326.039ZM507.43 328.156C506.284 328.156 505.352 327.781 504.633 327.031C503.914 326.276 503.555 325.268 503.555 324.008V323.742C503.555 322.904 503.714 322.156 504.031 321.5C504.354 320.839 504.802 320.323 505.375 319.953C505.953 319.578 506.578 319.391 507.25 319.391C508.349 319.391 509.203 319.753 509.812 320.477C510.422 321.201 510.727 322.237 510.727 323.586V324.188L505 324.188C505.021 325.021 505.263 325.695 505.727 326.211C506.195 326.721 506.789 326.977 507.508 326.977C508.018 326.977 508.451 326.872 508.805 326.664C509.159 326.456 509.469 326.18 509.734 325.836L510.617 326.523C509.909 327.612 508.846 328.156 507.43 328.156ZM507.25 320.578C506.667 320.578 506.177 320.792 505.781 321.219C505.385 321.641 505.141 322.234 505.047 323L509.281 323V322.891C509.24 322.156 509.042 321.589 508.688 321.188C508.333 320.781 507.854 320.578 507.25 320.578ZM516.492 320.844C516.273 320.807 516.036 320.789 515.781 320.789C514.833 320.789 514.19 321.193 513.852 322V328H512.406V319.547H513.812L513.836 320.523C514.31 319.768 514.982 319.391 515.852 319.391C516.133 319.391 516.346 319.427 516.492 319.5V320.844ZM522.75 325.758C522.75 325.367 522.602 325.065 522.305 324.852C522.013 324.633 521.5 324.445 520.766 324.289C520.036 324.133 519.456 323.945 519.023 323.727C518.596 323.508 518.279 323.247 518.07 322.945C517.867 322.643 517.766 322.284 517.766 321.867C517.766 321.174 518.057 320.589 518.641 320.109C519.229 319.63 519.979 319.391 520.891 319.391C521.849 319.391 522.625 319.638 523.219 320.133C523.818 320.628 524.117 321.26 524.117 322.031H522.664C522.664 321.635 522.495 321.294 522.156 321.008C521.823 320.721 521.401 320.578 520.891 320.578C520.365 320.578 519.953 320.693 519.656 320.922C519.359 321.151 519.211 321.451 519.211 321.82C519.211 322.169 519.349 322.432 519.625 322.609C519.901 322.786 520.398 322.956 521.117 323.117C521.841 323.279 522.427 323.471 522.875 323.695C523.323 323.919 523.654 324.19 523.867 324.508C524.086 324.82 524.195 325.203 524.195 325.656C524.195 326.411 523.893 327.018 523.289 327.477C522.685 327.93 521.901 328.156 520.938 328.156C520.26 328.156 519.661 328.036 519.141 327.797C518.62 327.557 518.211 327.224 517.914 326.797C517.622 326.365 517.477 325.898 517.477 325.398H518.922C518.948 325.883 519.141 326.268 519.5 326.555C519.865 326.836 520.344 326.977 520.938 326.977C521.484 326.977 521.922 326.867 522.25 326.648C522.583 326.424 522.75 326.128 522.75 325.758ZM529.586 328.156C528.44 328.156 527.508 327.781 526.789 327.031C526.07 326.276 525.711 325.268 525.711 324.008V323.742C525.711 322.904 525.87 322.156 526.188 321.5C526.51 320.839 526.958 320.323 527.531 319.953C528.109 319.578 528.734 319.391 529.406 319.391C530.505 319.391 531.359 319.753 531.969 320.477C532.578 321.201 532.883 322.237 532.883 323.586V324.188H527.156C527.177 325.021 527.419 325.695 527.883 326.211C528.352 326.721 528.945 326.977 529.664 326.977C530.174 326.977 530.607 326.872 530.961 326.664C531.315 326.456 531.625 326.18 531.891 325.836L532.773 326.523C532.065 327.612 531.003 328.156 529.586 328.156ZM529.406 320.578C528.823 320.578 528.333 320.792 527.938 321.219C527.542 321.641 527.297 322.234 527.203 323H531.438V322.891C531.396 322.156 531.198 321.589 530.844 321.188C530.49 320.781 530.01 320.578 529.406 320.578ZM534.336 320.344C534.336 320.094 534.409 319.885 534.555 319.719C534.706 319.552 534.93 319.469 535.227 319.469C535.523 319.469 535.747 319.552 535.898 319.719C536.055 319.885 536.133 320.094 536.133 320.344C536.133 320.583 536.055 320.784 535.898 320.945C535.747 321.107 535.523 321.188 535.227 321.188C534.93 321.188 534.706 321.107 534.555 320.945C534.409 320.784 534.336 320.583 534.336 320.344ZM534.609 330.266L533.789 329.703C534.279 329.021 534.534 328.318 534.555 327.594V326.289H535.969V327.422C535.969 327.948 535.839 328.474 535.578 329C535.323 329.526 535 329.948 534.609 330.266Z" fill="#00986B"/>
<rect x="1" y="66" width="78" height="78" rx="5" fill="#EEEEEE" stroke="#EEEEEE" stroke-width="2"/>
<rect x="96" y="66" width="78" height="78" rx="5" fill="#EEEEEE" stroke="#EEEEEE" stroke-width="2"/>
<rect x="191" y="66" width="78" height="78" rx="5" fill="#EEEEEE" stroke="#EEEEEE" stroke-width="2"/>
<rect x="-1" y="1" width="78" height="78" rx="5" transform="matrix(-1 0 0 1 268 185)" fill="#EEEEEE" stroke="#EEEEEE" stroke-width="2"/>
<rect x="-1" y="1" width="78" height="78" rx="5" transform="matrix(-1 0 0 1 173 185)" fill="#EEEEEE" stroke="#EEEEEE" stroke-width="2"/>
<rect x="-1" y="1" width="78" height="78" rx="5" transform="matrix(-1 0 0 1 78 185)" fill="#EEEEEE" stroke="#EEEEEE" stroke-width="2"/>
<path d="M32 103C30.8954 103 30 103.895 30 105C30 106.105 30.8954 107 32 107V103ZM239.414 106.414C240.195 105.633 240.195 104.367 239.414 103.586L226.686 90.8579C225.905 90.0768 224.639 90.0768 223.858 90.8579C223.077 91.6389 223.077 92.9052 223.858 93.6863L235.172 105L223.858 116.314C223.077 117.095 223.077 118.361 223.858 119.142C224.639 119.923 225.905 119.923 226.686 119.142L239.414 106.414ZM32 107H238V103H32V107Z" fill="#1E73FF"/>
<path d="M238 223C239.105 223 240 223.895 240 225C240 226.105 239.105 227 238 227V223ZM30.5858 226.414C29.8047 225.633 29.8047 224.367 30.5858 223.586L43.3137 210.858C44.0948 210.077 45.3611 210.077 46.1421 210.858C46.9232 211.639 46.9232 212.905 46.1421 213.686L34.8284 225L46.1421 236.314C46.9232 237.095 46.9232 238.361 46.1421 239.142C45.3611 239.923 44.0948 239.923 43.3137 239.142L30.5858 226.414ZM238 227H32V223H238V227Z" fill="#00986B"/>
<path d="M46.6484 39.2266C46.0026 39.1224 45.4818 39.0703 45.0859 39.0703C44.0443 39.0703 43.5234 39.6172 43.5234 40.7109V41.5469H45.3281V42.6641H43.5234V50H42.0781V42.6641H40.7422V41.5469H42.0781V40.625C42.0833 39.724 42.3359 39.0339 42.8359 38.5547C43.3359 38.0755 44.0469 37.8359 44.9688 37.8359C45.4948 37.8359 46.5365 37.9948 48.0938 38.3125V50H46.6484V39.2266ZM53.9688 50.1562C52.8229 50.1562 51.8906 49.7812 51.1719 49.0312C50.4531 48.276 50.0938 47.2682 50.0938 46.0078V45.7422C50.0938 44.9036 50.2526 44.1562 50.5703 43.5C50.8932 42.8385 51.3411 42.3229 51.9141 41.9531C52.4922 41.5781 53.1172 41.3906 53.7891 41.3906C54.888 41.3906 55.7422 41.7526 56.3516 42.4766C56.9609 43.2005 57.2656 44.237 57.2656 45.5859V46.1875H51.5391C51.5599 47.0208 51.8021 47.6953 52.2656 48.2109C52.7344 48.7214 53.3281 48.9766 54.0469 48.9766C54.5573 48.9766 54.9896 48.8724 55.3438 48.6641C55.6979 48.4557 56.0078 48.1797 56.2734 47.8359L57.1562 48.5234C56.4479 49.612 55.3854 50.1562 53.9688 50.1562ZM53.7891 42.5781C53.2057 42.5781 52.7161 42.7917 52.3203 43.2188C51.9245 43.6406 51.6797 44.2344 51.5859 45H55.8203V44.8906C55.7786 44.1562 55.5807 43.5885 55.2266 43.1875C54.8724 42.7812 54.3932 42.5781 53.7891 42.5781ZM61.7812 44.6328L63.6562 41.5469H65.3438L62.5781 45.7266L65.4297 50H63.7578L61.8047 46.8359L59.8516 50H58.1719L61.0234 45.7266L58.2578 41.5469H59.9297L61.7812 44.6328ZM69.8906 45.7578H66.0781V44.5781H69.8906V45.7578ZM70.9531 45.7031C70.9531 44.4062 71.2604 43.3646 71.875 42.5781C72.4896 41.7865 73.2943 41.3906 74.2891 41.3906C75.2786 41.3906 76.0625 41.7292 76.6406 42.4062V38H78.0859V50H76.7578L76.6875 49.0938C76.1094 49.8021 75.3047 50.1562 74.2734 50.1562C73.2943 50.1562 72.4948 49.7552 71.875 48.9531C71.2604 48.151 70.9531 47.1042 70.9531 45.8125V45.7031ZM72.3984 45.8672C72.3984 46.8255 72.5964 47.5755 72.9922 48.1172C73.388 48.6589 73.9349 48.9297 74.6328 48.9297C75.5495 48.9297 76.2188 48.5182 76.6406 47.6953V43.8125C76.2083 43.0156 75.5443 42.6172 74.6484 42.6172C73.9401 42.6172 73.388 42.8906 72.9922 43.4375C72.5964 43.9844 72.3984 44.7943 72.3984 45.8672ZM81.9062 50H80.4609V41.5469H81.9062V50ZM80.3438 39.3047C80.3438 39.0703 80.4141 38.8724 80.5547 38.7109C80.7005 38.5495 80.9141 38.4688 81.1953 38.4688C81.4766 38.4688 81.6901 38.5495 81.8359 38.7109C81.9818 38.8724 82.0547 39.0703 82.0547 39.3047C82.0547 39.5391 81.9818 39.7344 81.8359 39.8906C81.6901 40.0469 81.4766 40.125 81.1953 40.125C80.9141 40.125 80.7005 40.0469 80.5547 39.8906C80.4141 39.7344 80.3438 39.5391 80.3438 39.3047ZM88.3125 42.8438C88.0938 42.8073 87.8568 42.7891 87.6016 42.7891C86.6536 42.7891 86.0104 43.1927 85.6719 44V50H84.2266V41.5469H85.6328L85.6562 42.5234C86.1302 41.7682 86.8021 41.3906 87.6719 41.3906C87.9531 41.3906 88.1667 41.4271 88.3125 41.5V42.8438ZM93 50.1562C91.8542 50.1562 90.9219 49.7812 90.2031 49.0312C89.4844 48.276 89.125 47.2682 89.125 46.0078V45.7422C89.125 44.9036 89.2839 44.1562 89.6016 43.5C89.9245 42.8385 90.3724 42.3229 90.9453 41.9531C91.5234 41.5781 92.1484 41.3906 92.8203 41.3906C93.9193 41.3906 94.7734 41.7526 95.3828 42.4766C95.9922 43.2005 96.2969 44.237 96.2969 45.5859V46.1875H90.5703C90.5911 47.0208 90.8333 47.6953 91.2969 48.2109C91.7656 48.7214 92.3594 48.9766 93.0781 48.9766C93.5885 48.9766 94.0208 48.8724 94.375 48.6641C94.7292 48.4557 95.0391 48.1797 95.3047 47.8359L96.1875 48.5234C95.4792 49.612 94.4167 50.1562 93 50.1562ZM92.8203 42.5781C92.237 42.5781 91.7474 42.7917 91.3516 43.2188C90.9557 43.6406 90.7109 44.2344 90.6172 45H94.8516V44.8906C94.8099 44.1562 94.612 43.5885 94.2578 43.1875C93.9036 42.7812 93.4245 42.5781 92.8203 42.5781ZM101.367 48.9766C101.883 48.9766 102.333 48.8203 102.719 48.5078C103.104 48.1953 103.318 47.8047 103.359 47.3359H104.727C104.701 47.8203 104.534 48.2812 104.227 48.7188C103.919 49.1562 103.508 49.5052 102.992 49.7656C102.482 50.026 101.94 50.1562 101.367 50.1562C100.216 50.1562 99.2995 49.7734 98.6172 49.0078C97.9401 48.237 97.6016 47.1849 97.6016 45.8516V45.6094C97.6016 44.7865 97.7526 44.0547 98.0547 43.4141C98.3568 42.7734 98.7891 42.276 99.3516 41.9219C99.9193 41.5677 100.589 41.3906 101.359 41.3906C102.307 41.3906 103.094 41.6745 103.719 42.2422C104.349 42.8099 104.685 43.5469 104.727 44.4531H103.359C103.318 43.9062 103.109 43.4583 102.734 43.1094C102.365 42.7552 101.906 42.5781 101.359 42.5781C100.625 42.5781 100.055 42.8438 99.6484 43.375C99.2474 43.901 99.0469 44.6641 99.0469 45.6641V45.9375C99.0469 46.9115 99.2474 47.6615 99.6484 48.1875C100.049 48.7135 100.622 48.9766 101.367 48.9766ZM108.312 39.5V41.5469H109.891V42.6641H108.312V47.9062C108.312 48.2448 108.383 48.5 108.523 48.6719C108.664 48.8385 108.904 48.9219 109.242 48.9219C109.409 48.9219 109.638 48.8906 109.93 48.8281V50C109.549 50.1042 109.18 50.1562 108.82 50.1562C108.174 50.1562 107.688 49.9609 107.359 49.5703C107.031 49.1797 106.867 48.625 106.867 47.9062V42.6641H105.328V41.5469H106.867V39.5H108.312ZM113.156 50H111.711V41.5469H113.156V50ZM111.594 39.3047C111.594 39.0703 111.664 38.8724 111.805 38.7109C111.951 38.5495 112.164 38.4688 112.445 38.4688C112.727 38.4688 112.94 38.5495 113.086 38.7109C113.232 38.8724 113.305 39.0703 113.305 39.3047C113.305 39.5391 113.232 39.7344 113.086 39.8906C112.94 40.0469 112.727 40.125 112.445 40.125C112.164 40.125 111.951 40.0469 111.805 39.8906C111.664 39.7344 111.594 39.5391 111.594 39.3047ZM115.094 45.6953C115.094 44.8672 115.255 44.1224 115.578 43.4609C115.906 42.7995 116.359 42.2891 116.938 41.9297C117.521 41.5703 118.185 41.3906 118.93 41.3906C120.081 41.3906 121.01 41.7891 121.719 42.5859C122.432 43.3828 122.789 44.4427 122.789 45.7656V45.8672C122.789 46.6901 122.63 47.4297 122.312 48.0859C122 48.737 121.549 49.2448 120.961 49.6094C120.378 49.974 119.706 50.1562 118.945 50.1562C117.799 50.1562 116.87 49.7578 116.156 48.9609C115.448 48.1641 115.094 47.1094 115.094 45.7969V45.6953ZM116.547 45.8672C116.547 46.8047 116.763 47.5573 117.195 48.125C117.633 48.6927 118.216 48.9766 118.945 48.9766C119.68 48.9766 120.263 48.6901 120.695 48.1172C121.128 47.5391 121.344 46.7318 121.344 45.6953C121.344 44.7682 121.122 44.0182 120.68 43.4453C120.242 42.8672 119.659 42.5781 118.93 42.5781C118.216 42.5781 117.641 42.862 117.203 43.4297C116.766 43.9974 116.547 44.8099 116.547 45.8672ZM125.969 41.5469L126.016 42.6094C126.661 41.7969 127.505 41.3906 128.547 41.3906C130.333 41.3906 131.234 42.3984 131.25 44.4141V50H129.805V44.4062C129.799 43.7969 129.659 43.3464 129.383 43.0547C129.112 42.763 128.688 42.6172 128.109 42.6172C127.641 42.6172 127.229 42.7422 126.875 42.9922C126.521 43.2422 126.245 43.5703 126.047 43.9766V50H124.602V41.5469H125.969ZM133.383 49.2422C133.383 48.9922 133.456 48.7839 133.602 48.6172C133.753 48.4505 133.977 48.3672 134.273 48.3672C134.57 48.3672 134.794 48.4505 134.945 48.6172C135.102 48.7839 135.18 48.9922 135.18 49.2422C135.18 49.4818 135.102 49.6823 134.945 49.8438C134.794 50.0052 134.57 50.0859 134.273 50.0859C133.977 50.0859 133.753 50.0052 133.602 49.8438C133.456 49.6823 133.383 49.4818 133.383 49.2422ZM133.391 42.3438C133.391 42.0938 133.464 41.8854 133.609 41.7188C133.76 41.5521 133.984 41.4688 134.281 41.4688C134.578 41.4688 134.802 41.5521 134.953 41.7188C135.109 41.8854 135.188 42.0938 135.188 42.3438C135.188 42.5833 135.109 42.7839 134.953 42.9453C134.802 43.1068 134.578 43.1875 134.281 43.1875C133.984 43.1875 133.76 43.1068 133.609 42.9453C133.464 42.7839 133.391 42.5833 133.391 42.3438ZM145.359 42.8438C145.141 42.8073 144.904 42.7891 144.648 42.7891C143.701 42.7891 143.057 43.1927 142.719 44V50H141.273V41.5469H142.68L142.703 42.5234C143.177 41.7682 143.849 41.3906 144.719 41.3906C145 41.3906 145.214 41.4271 145.359 41.5V42.8438ZM146.156 45.6953C146.156 44.8672 146.318 44.1224 146.641 43.4609C146.969 42.7995 147.422 42.2891 148 41.9297C148.583 41.5703 149.247 41.3906 149.992 41.3906C151.143 41.3906 152.073 41.7891 152.781 42.5859C153.495 43.3828 153.852 44.4427 153.852 45.7656V45.8672C153.852 46.6901 153.693 47.4297 153.375 48.0859C153.062 48.737 152.612 49.2448 152.023 49.6094C151.44 49.974 150.768 50.1562 150.008 50.1562C148.862 50.1562 147.932 49.7578 147.219 48.9609C146.51 48.1641 146.156 47.1094 146.156 45.7969V45.6953ZM147.609 45.8672C147.609 46.8047 147.826 47.5573 148.258 48.125C148.695 48.6927 149.279 48.9766 150.008 48.9766C150.742 48.9766 151.326 48.6901 151.758 48.1172C152.19 47.5391 152.406 46.7318 152.406 45.6953C152.406 44.7682 152.185 44.0182 151.742 43.4453C151.305 42.8672 150.721 42.5781 149.992 42.5781C149.279 42.5781 148.703 42.862 148.266 43.4297C147.828 43.9974 147.609 44.8099 147.609 45.8672ZM163.148 48.0078L164.773 41.5469H166.219L163.758 50H162.586L160.531 43.5938L158.531 50H157.359L154.906 41.5469H156.344L158.008 47.875L159.977 41.5469H161.141L163.148 48.0078ZM167.469 42.3438C167.469 42.0938 167.542 41.8854 167.688 41.7188C167.839 41.5521 168.062 41.4688 168.359 41.4688C168.656 41.4688 168.88 41.5521 169.031 41.7188C169.188 41.8854 169.266 42.0938 169.266 42.3438C169.266 42.5833 169.188 42.7839 169.031 42.9453C168.88 43.1068 168.656 43.1875 168.359 43.1875C168.062 43.1875 167.839 43.1068 167.688 42.9453C167.542 42.7839 167.469 42.5833 167.469 42.3438ZM167.742 52.2656L166.922 51.7031C167.411 51.0208 167.667 50.3177 167.688 49.5938V48.2891H169.102V49.4219C169.102 49.9479 168.971 50.474 168.711 51C168.456 51.526 168.133 51.9479 167.742 52.2656ZM175 45.3828C175 44.2057 175.156 43.0755 175.469 41.9922C175.786 40.9089 176.258 39.9245 176.883 39.0391C177.508 38.1536 178.156 37.5286 178.828 37.1641L179.125 38.1172C178.365 38.7005 177.74 39.5911 177.25 40.7891C176.766 41.987 176.5 43.3281 176.453 44.8125L176.445 45.4766C176.445 47.487 176.812 49.2318 177.547 50.7109C177.99 51.5964 178.516 52.2891 179.125 52.7891L178.828 53.6719C178.135 53.2865 177.474 52.6406 176.844 51.7344C175.615 49.9635 175 47.8464 175 45.3828ZM180.172 45.7031C180.172 44.4062 180.479 43.3646 181.094 42.5781C181.708 41.7865 182.513 41.3906 183.508 41.3906C184.497 41.3906 185.281 41.7292 185.859 42.4062V38H187.305V50H185.977L185.906 49.0938C185.328 49.8021 184.523 50.1562 183.492 50.1562C182.513 50.1562 181.714 49.7552 181.094 48.9531C180.479 48.151 180.172 47.1042 180.172 45.8125V45.7031ZM181.617 45.8672C181.617 46.8255 181.815 47.5755 182.211 48.1172C182.607 48.6589 183.154 48.9297 183.852 48.9297C184.768 48.9297 185.438 48.5182 185.859 47.6953V43.8125C185.427 43.0156 184.763 42.6172 183.867 42.6172C183.159 42.6172 182.607 42.8906 182.211 43.4375C181.815 43.9844 181.617 44.7943 181.617 45.8672ZM193.062 50.1562C191.917 50.1562 190.984 49.7812 190.266 49.0312C189.547 48.276 189.188 47.2682 189.188 46.0078V45.7422C189.188 44.9036 189.346 44.1562 189.664 43.5C189.987 42.8385 190.435 42.3229 191.008 41.9531C191.586 41.5781 192.211 41.3906 192.883 41.3906C193.982 41.3906 194.836 41.7526 195.445 42.4766C196.055 43.2005 196.359 44.237 196.359 45.5859V46.1875H190.633C190.654 47.0208 190.896 47.6953 191.359 48.2109C191.828 48.7214 192.422 48.9766 193.141 48.9766C193.651 48.9766 194.083 48.8724 194.438 48.6641C194.792 48.4557 195.102 48.1797 195.367 47.8359L196.25 48.5234C195.542 49.612 194.479 50.1562 193.062 50.1562ZM192.883 42.5781C192.299 42.5781 191.81 42.7917 191.414 43.2188C191.018 43.6406 190.773 44.2344 190.68 45H194.914V44.8906C194.872 44.1562 194.674 43.5885 194.32 43.1875C193.966 42.7812 193.487 42.5781 192.883 42.5781ZM198.75 50V42.6641H197.414V41.5469H198.75V40.6797C198.75 39.7734 198.992 39.0729 199.477 38.5781C199.961 38.0833 200.646 37.8359 201.531 37.8359C201.865 37.8359 202.195 37.8802 202.523 37.9688L202.445 39.1406C202.201 39.0938 201.94 39.0703 201.664 39.0703C201.195 39.0703 200.833 39.2083 200.578 39.4844C200.323 39.7552 200.195 40.1458 200.195 40.6562V41.5469H202V42.6641H200.195V50H198.75ZM208.82 50C208.737 49.8333 208.669 49.5365 208.617 49.1094C207.945 49.8073 207.143 50.1562 206.211 50.1562C205.378 50.1562 204.693 49.9219 204.156 49.4531C203.625 48.9792 203.359 48.3802 203.359 47.6562C203.359 46.776 203.693 46.0938 204.359 45.6094C205.031 45.1198 205.974 44.875 207.188 44.875H208.594V44.2109C208.594 43.7057 208.443 43.3047 208.141 43.0078C207.839 42.7057 207.393 42.5547 206.805 42.5547C206.289 42.5547 205.857 42.6849 205.508 42.9453C205.159 43.2057 204.984 43.5208 204.984 43.8906H203.531C203.531 43.4688 203.68 43.0625 203.977 42.6719C204.279 42.276 204.685 41.9635 205.195 41.7344C205.711 41.5052 206.276 41.3906 206.891 41.3906C207.865 41.3906 208.628 41.6354 209.18 42.125C209.732 42.6094 210.018 43.2786 210.039 44.1328V48.0234C210.039 48.7995 210.138 49.4167 210.336 49.875V50H208.82ZM206.422 48.8984C206.875 48.8984 207.305 48.7812 207.711 48.5469C208.117 48.3125 208.411 48.0078 208.594 47.6328V45.8984H207.461C205.69 45.8984 204.805 46.4167 204.805 47.4531C204.805 47.9062 204.956 48.2604 205.258 48.5156C205.56 48.7708 205.948 48.8984 206.422 48.8984ZM217.523 49.1641C216.961 49.8255 216.135 50.1562 215.047 50.1562C214.146 50.1562 213.458 49.8958 212.984 49.375C212.516 48.849 212.279 48.0729 212.273 47.0469V41.5469H213.719V47.0078C213.719 48.2891 214.24 48.9297 215.281 48.9297C216.385 48.9297 217.12 48.5182 217.484 47.6953V41.5469H218.93V50H217.555L217.523 49.1641ZM222.703 50H221.258V38H222.703V50ZM226.984 39.5V41.5469H228.562V42.6641H226.984V47.9062C226.984 48.2448 227.055 48.5 227.195 48.6719C227.336 48.8385 227.576 48.9219 227.914 48.9219C228.081 48.9219 228.31 48.8906 228.602 48.8281V50C228.221 50.1042 227.852 50.1562 227.492 50.1562C226.846 50.1562 226.359 49.9609 226.031 49.5703C225.703 49.1797 225.539 48.625 225.539 47.9062V42.6641H224V41.5469H225.539V39.5H226.984ZM233.594 45.4609C233.594 46.6224 233.44 47.737 233.133 48.8047C232.831 49.8672 232.365 50.849 231.734 51.75C231.109 52.651 230.453 53.2917 229.766 53.6719L229.461 52.7891C230.263 52.1745 230.906 51.2214 231.391 49.9297C231.88 48.6328 232.13 47.1953 232.141 45.6172V45.3672C232.141 44.2734 232.026 43.2578 231.797 42.3203C231.568 41.3776 231.247 40.5339 230.836 39.7891C230.43 39.0443 229.971 38.4635 229.461 38.0469L229.766 37.1641C230.453 37.5443 231.107 38.1797 231.727 39.0703C232.352 39.9609 232.818 40.9427 233.125 42.0156C233.438 43.0885 233.594 44.237 233.594 45.4609Z" fill="#1E73FF"/>
<path d="M53.8438 282.227C53.1979 282.122 52.6771 282.07 52.2812 282.07C51.2396 282.07 50.7188 282.617 50.7188 283.711V284.547H52.5234V285.664H50.7188V293H49.2734V285.664H47.9375V284.547H49.2734V283.625C49.2786 282.724 49.5312 282.034 50.0312 281.555C50.5312 281.076 51.2422 280.836 52.1641 280.836C52.6901 280.836 53.7318 280.995 55.2891 281.312V293H53.8438V282.227ZM61.1641 293.156C60.0182 293.156 59.0859 292.781 58.3672 292.031C57.6484 291.276 57.2891 290.268 57.2891 289.008V288.742C57.2891 287.904 57.4479 287.156 57.7656 286.5C58.0885 285.839 58.5365 285.323 59.1094 284.953C59.6875 284.578 60.3125 284.391 60.9844 284.391C62.0833 284.391 62.9375 284.753 63.5469 285.477C64.1562 286.201 64.4609 287.237 64.4609 288.586V289.188H58.7344C58.7552 290.021 58.9974 290.695 59.4609 291.211C59.9297 291.721 60.5234 291.977 61.2422 291.977C61.7526 291.977 62.1849 291.872 62.5391 291.664C62.8932 291.456 63.2031 291.18 63.4688 290.836L64.3516 291.523C63.6432 292.612 62.5807 293.156 61.1641 293.156ZM60.9844 285.578C60.401 285.578 59.9115 285.792 59.5156 286.219C59.1198 286.641 58.875 287.234 58.7812 288H63.0156V287.891C62.974 287.156 62.776 286.589 62.4219 286.188C62.0677 285.781 61.5885 285.578 60.9844 285.578ZM68.9766 287.633L70.8516 284.547H72.5391L69.7734 288.727L72.625 293H70.9531L69 289.836L67.0469 293H65.3672L68.2188 288.727L65.4531 284.547H67.125L68.9766 287.633ZM77.0859 288.758H73.2734V287.578H77.0859V288.758ZM78.1484 288.703C78.1484 287.406 78.4557 286.365 79.0703 285.578C79.6849 284.786 80.4896 284.391 81.4844 284.391C82.474 284.391 83.2578 284.729 83.8359 285.406V281H85.2812V293H83.9531L83.8828 292.094C83.3047 292.802 82.5 293.156 81.4688 293.156C80.4896 293.156 79.6901 292.755 79.0703 291.953C78.4557 291.151 78.1484 290.104 78.1484 288.812V288.703ZM79.5938 288.867C79.5938 289.826 79.7917 290.576 80.1875 291.117C80.5833 291.659 81.1302 291.93 81.8281 291.93C82.7448 291.93 83.4141 291.518 83.8359 290.695V286.812C83.4036 286.016 82.7396 285.617 81.8438 285.617C81.1354 285.617 80.5833 285.891 80.1875 286.438C79.7917 286.984 79.5938 287.794 79.5938 288.867ZM89.1016 293H87.6562V284.547H89.1016V293ZM87.5391 282.305C87.5391 282.07 87.6094 281.872 87.75 281.711C87.8958 281.549 88.1094 281.469 88.3906 281.469C88.6719 281.469 88.8854 281.549 89.0312 281.711C89.1771 281.872 89.25 282.07 89.25 282.305C89.25 282.539 89.1771 282.734 89.0312 282.891C88.8854 283.047 88.6719 283.125 88.3906 283.125C88.1094 283.125 87.8958 283.047 87.75 282.891C87.6094 282.734 87.5391 282.539 87.5391 282.305ZM95.5078 285.844C95.2891 285.807 95.0521 285.789 94.7969 285.789C93.849 285.789 93.2057 286.193 92.8672 287V293H91.4219V284.547H92.8281L92.8516 285.523C93.3255 284.768 93.9974 284.391 94.8672 284.391C95.1484 284.391 95.362 284.427 95.5078 284.5V285.844ZM100.195 293.156C99.0495 293.156 98.1172 292.781 97.3984 292.031C96.6797 291.276 96.3203 290.268 96.3203 289.008V288.742C96.3203 287.904 96.4792 287.156 96.7969 286.5C97.1198 285.839 97.5677 285.323 98.1406 284.953C98.7188 284.578 99.3438 284.391 100.016 284.391C101.115 284.391 101.969 284.753 102.578 285.477C103.188 286.201 103.492 287.237 103.492 288.586V289.188H97.7656C97.7865 290.021 98.0286 290.695 98.4922 291.211C98.9609 291.721 99.5547 291.977 100.273 291.977C100.784 291.977 101.216 291.872 101.57 291.664C101.924 291.456 102.234 291.18 102.5 290.836L103.383 291.523C102.674 292.612 101.612 293.156 100.195 293.156ZM100.016 285.578C99.4323 285.578 98.9427 285.792 98.5469 286.219C98.151 286.641 97.9062 287.234 97.8125 288H102.047V287.891C102.005 287.156 101.807 286.589 101.453 286.188C101.099 285.781 100.62 285.578 100.016 285.578ZM108.562 291.977C109.078 291.977 109.529 291.82 109.914 291.508C110.299 291.195 110.513 290.805 110.555 290.336H111.922C111.896 290.82 111.729 291.281 111.422 291.719C111.115 292.156 110.703 292.505 110.188 292.766C109.677 293.026 109.135 293.156 108.562 293.156C107.411 293.156 106.495 292.773 105.812 292.008C105.135 291.237 104.797 290.185 104.797 288.852V288.609C104.797 287.786 104.948 287.055 105.25 286.414C105.552 285.773 105.984 285.276 106.547 284.922C107.115 284.568 107.784 284.391 108.555 284.391C109.503 284.391 110.289 284.674 110.914 285.242C111.544 285.81 111.88 286.547 111.922 287.453H110.555C110.513 286.906 110.305 286.458 109.93 286.109C109.56 285.755 109.102 285.578 108.555 285.578C107.82 285.578 107.25 285.844 106.844 286.375C106.443 286.901 106.242 287.664 106.242 288.664V288.938C106.242 289.911 106.443 290.661 106.844 291.188C107.245 291.714 107.818 291.977 108.562 291.977ZM115.508 282.5V284.547H117.086V285.664H115.508V290.906C115.508 291.245 115.578 291.5 115.719 291.672C115.859 291.839 116.099 291.922 116.438 291.922C116.604 291.922 116.833 291.891 117.125 291.828V293C116.745 293.104 116.375 293.156 116.016 293.156C115.37 293.156 114.883 292.961 114.555 292.57C114.227 292.18 114.062 291.625 114.062 290.906V285.664H112.523V284.547H114.062V282.5H115.508ZM120.352 293H118.906V284.547H120.352V293ZM118.789 282.305C118.789 282.07 118.859 281.872 119 281.711C119.146 281.549 119.359 281.469 119.641 281.469C119.922 281.469 120.135 281.549 120.281 281.711C120.427 281.872 120.5 282.07 120.5 282.305C120.5 282.539 120.427 282.734 120.281 282.891C120.135 283.047 119.922 283.125 119.641 283.125C119.359 283.125 119.146 283.047 119 282.891C118.859 282.734 118.789 282.539 118.789 282.305ZM122.289 288.695C122.289 287.867 122.451 287.122 122.773 286.461C123.102 285.799 123.555 285.289 124.133 284.93C124.716 284.57 125.38 284.391 126.125 284.391C127.276 284.391 128.206 284.789 128.914 285.586C129.628 286.383 129.984 287.443 129.984 288.766V288.867C129.984 289.69 129.826 290.43 129.508 291.086C129.195 291.737 128.745 292.245 128.156 292.609C127.573 292.974 126.901 293.156 126.141 293.156C124.995 293.156 124.065 292.758 123.352 291.961C122.643 291.164 122.289 290.109 122.289 288.797V288.695ZM123.742 288.867C123.742 289.805 123.958 290.557 124.391 291.125C124.828 291.693 125.411 291.977 126.141 291.977C126.875 291.977 127.458 291.69 127.891 291.117C128.323 290.539 128.539 289.732 128.539 288.695C128.539 287.768 128.318 287.018 127.875 286.445C127.438 285.867 126.854 285.578 126.125 285.578C125.411 285.578 124.836 285.862 124.398 286.43C123.961 286.997 123.742 287.81 123.742 288.867ZM133.164 284.547L133.211 285.609C133.857 284.797 134.701 284.391 135.742 284.391C137.529 284.391 138.43 285.398 138.445 287.414V293H137V287.406C136.995 286.797 136.854 286.346 136.578 286.055C136.307 285.763 135.883 285.617 135.305 285.617C134.836 285.617 134.424 285.742 134.07 285.992C133.716 286.242 133.44 286.57 133.242 286.977V293H131.797V284.547H133.164ZM140.578 292.242C140.578 291.992 140.651 291.784 140.797 291.617C140.948 291.451 141.172 291.367 141.469 291.367C141.766 291.367 141.99 291.451 142.141 291.617C142.297 291.784 142.375 291.992 142.375 292.242C142.375 292.482 142.297 292.682 142.141 292.844C141.99 293.005 141.766 293.086 141.469 293.086C141.172 293.086 140.948 293.005 140.797 292.844C140.651 292.682 140.578 292.482 140.578 292.242ZM140.586 285.344C140.586 285.094 140.659 284.885 140.805 284.719C140.956 284.552 141.18 284.469 141.477 284.469C141.773 284.469 141.997 284.552 142.148 284.719C142.305 284.885 142.383 285.094 142.383 285.344C142.383 285.583 142.305 285.784 142.148 285.945C141.997 286.107 141.773 286.188 141.477 286.188C141.18 286.188 140.956 286.107 140.805 285.945C140.659 285.784 140.586 285.583 140.586 285.344ZM152.555 285.844C152.336 285.807 152.099 285.789 151.844 285.789C150.896 285.789 150.253 286.193 149.914 287V293H148.469V284.547H149.875L149.898 285.523C150.372 284.768 151.044 284.391 151.914 284.391C152.195 284.391 152.409 284.427 152.555 284.5V285.844ZM153.352 288.695C153.352 287.867 153.513 287.122 153.836 286.461C154.164 285.799 154.617 285.289 155.195 284.93C155.779 284.57 156.443 284.391 157.188 284.391C158.339 284.391 159.268 284.789 159.977 285.586C160.69 286.383 161.047 287.443 161.047 288.766V288.867C161.047 289.69 160.888 290.43 160.57 291.086C160.258 291.737 159.807 292.245 159.219 292.609C158.635 292.974 157.964 293.156 157.203 293.156C156.057 293.156 155.128 292.758 154.414 291.961C153.706 291.164 153.352 290.109 153.352 288.797V288.695ZM154.805 288.867C154.805 289.805 155.021 290.557 155.453 291.125C155.891 291.693 156.474 291.977 157.203 291.977C157.938 291.977 158.521 291.69 158.953 291.117C159.385 290.539 159.602 289.732 159.602 288.695C159.602 287.768 159.38 287.018 158.938 286.445C158.5 285.867 157.917 285.578 157.188 285.578C156.474 285.578 155.898 285.862 155.461 286.43C155.023 286.997 154.805 287.81 154.805 288.867ZM170.344 291.008L171.969 284.547H173.414L170.953 293H169.781L167.727 286.594L165.727 293H164.555L162.102 284.547H163.539L165.203 290.875L167.172 284.547H168.336L170.344 291.008ZM177.898 288.758H174.086V287.578H177.898V288.758ZM183.398 285.844C183.18 285.807 182.943 285.789 182.688 285.789C181.74 285.789 181.096 286.193 180.758 287V293H179.312V284.547H180.719L180.742 285.523C181.216 284.768 181.888 284.391 182.758 284.391C183.039 284.391 183.253 284.427 183.398 284.5V285.844ZM188.086 293.156C186.94 293.156 186.008 292.781 185.289 292.031C184.57 291.276 184.211 290.268 184.211 289.008V288.742C184.211 287.904 184.37 287.156 184.688 286.5C185.01 285.839 185.458 285.323 186.031 284.953C186.609 284.578 187.234 284.391 187.906 284.391C189.005 284.391 189.859 284.753 190.469 285.477C191.078 286.201 191.383 287.237 191.383 288.586V289.188H185.656C185.677 290.021 185.919 290.695 186.383 291.211C186.852 291.721 187.445 291.977 188.164 291.977C188.674 291.977 189.107 291.872 189.461 291.664C189.815 291.456 190.125 291.18 190.391 290.836L191.273 291.523C190.565 292.612 189.503 293.156 188.086 293.156ZM187.906 285.578C187.323 285.578 186.833 285.792 186.438 286.219C186.042 286.641 185.797 287.234 185.703 288H189.938V287.891C189.896 287.156 189.698 286.589 189.344 286.188C188.99 285.781 188.51 285.578 187.906 285.578ZM195.742 291.039L197.836 284.547H199.312L196.281 293H195.18L192.117 284.547H193.594L195.742 291.039ZM204.102 293.156C202.956 293.156 202.023 292.781 201.305 292.031C200.586 291.276 200.227 290.268 200.227 289.008V288.742C200.227 287.904 200.385 287.156 200.703 286.5C201.026 285.839 201.474 285.323 202.047 284.953C202.625 284.578 203.25 284.391 203.922 284.391C205.021 284.391 205.875 284.753 206.484 285.477C207.094 286.201 207.398 287.237 207.398 288.586V289.188H201.672C201.693 290.021 201.935 290.695 202.398 291.211C202.867 291.721 203.461 291.977 204.18 291.977C204.69 291.977 205.122 291.872 205.477 291.664C205.831 291.456 206.141 291.18 206.406 290.836L207.289 291.523C206.581 292.612 205.518 293.156 204.102 293.156ZM203.922 285.578C203.339 285.578 202.849 285.792 202.453 286.219C202.057 286.641 201.812 287.234 201.719 288H205.953V287.891C205.911 287.156 205.714 286.589 205.359 286.188C205.005 285.781 204.526 285.578 203.922 285.578ZM213.164 285.844C212.945 285.807 212.708 285.789 212.453 285.789C211.505 285.789 210.862 286.193 210.523 287V293H209.078V284.547H210.484L210.508 285.523C210.982 284.768 211.654 284.391 212.523 284.391C212.805 284.391 213.018 284.427 213.164 284.5V285.844ZM219.422 290.758C219.422 290.367 219.273 290.065 218.977 289.852C218.685 289.633 218.172 289.445 217.438 289.289C216.708 289.133 216.128 288.945 215.695 288.727C215.268 288.508 214.951 288.247 214.742 287.945C214.539 287.643 214.438 287.284 214.438 286.867C214.438 286.174 214.729 285.589 215.312 285.109C215.901 284.63 216.651 284.391 217.562 284.391C218.521 284.391 219.297 284.638 219.891 285.133C220.49 285.628 220.789 286.26 220.789 287.031H219.336C219.336 286.635 219.167 286.294 218.828 286.008C218.495 285.721 218.073 285.578 217.562 285.578C217.036 285.578 216.625 285.693 216.328 285.922C216.031 286.151 215.883 286.451 215.883 286.82C215.883 287.169 216.021 287.432 216.297 287.609C216.573 287.786 217.07 287.956 217.789 288.117C218.513 288.279 219.099 288.471 219.547 288.695C219.995 288.919 220.326 289.19 220.539 289.508C220.758 289.82 220.867 290.203 220.867 290.656C220.867 291.411 220.565 292.018 219.961 292.477C219.357 292.93 218.573 293.156 217.609 293.156C216.932 293.156 216.333 293.036 215.812 292.797C215.292 292.557 214.883 292.224 214.586 291.797C214.294 291.365 214.148 290.898 214.148 290.398H215.594C215.62 290.883 215.812 291.268 216.172 291.555C216.536 291.836 217.016 291.977 217.609 291.977C218.156 291.977 218.594 291.867 218.922 291.648C219.255 291.424 219.422 291.128 219.422 290.758ZM226.258 293.156C225.112 293.156 224.18 292.781 223.461 292.031C222.742 291.276 222.383 290.268 222.383 289.008V288.742C222.383 287.904 222.542 287.156 222.859 286.5C223.182 285.839 223.63 285.323 224.203 284.953C224.781 284.578 225.406 284.391 226.078 284.391C227.177 284.391 228.031 284.753 228.641 285.477C229.25 286.201 229.555 287.237 229.555 288.586V289.188H223.828C223.849 290.021 224.091 290.695 224.555 291.211C225.023 291.721 225.617 291.977 226.336 291.977C226.846 291.977 227.279 291.872 227.633 291.664C227.987 291.456 228.297 291.18 228.562 290.836L229.445 291.523C228.737 292.612 227.674 293.156 226.258 293.156ZM226.078 285.578C225.495 285.578 225.005 285.792 224.609 286.219C224.214 286.641 223.969 287.234 223.875 288H228.109V287.891C228.068 287.156 227.87 286.589 227.516 286.188C227.161 285.781 226.682 285.578 226.078 285.578ZM231.008 285.344C231.008 285.094 231.081 284.885 231.227 284.719C231.378 284.552 231.602 284.469 231.898 284.469C232.195 284.469 232.419 284.552 232.57 284.719C232.727 284.885 232.805 285.094 232.805 285.344C232.805 285.583 232.727 285.784 232.57 285.945C232.419 286.107 232.195 286.188 231.898 286.188C231.602 286.188 231.378 286.107 231.227 285.945C231.081 285.784 231.008 285.583 231.008 285.344ZM231.281 295.266L230.461 294.703C230.951 294.021 231.206 293.318 231.227 292.594V291.289H232.641V292.422C232.641 292.948 232.51 293.474 232.25 294C231.995 294.526 231.672 294.948 231.281 295.266Z" fill="#00986B"/>
</svg>
