<svg width="504" height="166" viewBox="0 0 504 166" fill="none" xmlns="http://www.w3.org/2000/svg">
<rect x="1" y="27" width="502" height="138" rx="5" fill="#F7F7F7" stroke="#AAAAAA" stroke-width="2" stroke-dasharray="6 4"/>
<path d="M5.63965 3.81934C5.1748 3.75553 4.77376 3.72363 4.43652 3.72363C3.54329 3.72363 3.09668 4.1429 3.09668 4.98145V5.60352H4.60059V6.83398H3.09668V13H1.43555V6.83398H0.307617V5.60352H1.43555V4.94043C1.4401 4.10645 1.6862 3.46842 2.17383 3.02637C2.66602 2.57975 3.35872 2.35645 4.25195 2.35645C4.80794 2.35645 5.82422 2.46582 7.30078 2.68457V13H5.63965V3.81934ZM12.3936 13.1367C11.3408 13.1367 10.4863 12.8063 9.83008 12.1455C9.17839 11.4801 8.85254 10.596 8.85254 9.49316V9.28809C8.85254 8.5498 8.99382 7.89128 9.27637 7.3125C9.56348 6.72917 9.96452 6.27572 10.4795 5.95215C10.9945 5.62858 11.5687 5.4668 12.2021 5.4668C13.2093 5.4668 13.9863 5.78809 14.5332 6.43066C15.0846 7.07324 15.3604 7.98242 15.3604 9.1582V9.82812H10.5273C10.5775 10.4388 10.7803 10.9219 11.1357 11.2773C11.4958 11.6328 11.9469 11.8105 12.4893 11.8105C13.2503 11.8105 13.8701 11.5029 14.3486 10.8877L15.2441 11.7422C14.9479 12.1842 14.5514 12.5283 14.0547 12.7744C13.5625 13.016 13.0088 13.1367 12.3936 13.1367ZM12.1953 6.7998C11.7396 6.7998 11.3704 6.95931 11.0879 7.27832C10.8099 7.59733 10.6322 8.04167 10.5547 8.61133H13.7197V8.48828C13.6833 7.93229 13.5352 7.51302 13.2754 7.23047C13.0156 6.94336 12.6556 6.7998 12.1953 6.7998ZM19.3115 8.03711L20.7197 5.60352H22.5654L20.3027 9.24707L22.6406 13H20.8086L19.332 10.4707L17.8623 13H16.0166L18.3545 9.24707L16.0986 5.60352H17.9307L19.3115 8.03711ZM30.2217 11.8105C30.6364 11.8105 30.9805 11.6898 31.2539 11.4482C31.5273 11.2067 31.6732 10.9082 31.6914 10.5527H33.2568C33.2386 11.013 33.0951 11.4437 32.8262 11.8447C32.5573 12.2412 32.1927 12.5557 31.7324 12.7881C31.2721 13.0205 30.7754 13.1367 30.2422 13.1367C29.2077 13.1367 28.3874 12.8018 27.7812 12.1318C27.1751 11.4619 26.8721 10.5368 26.8721 9.35645V9.18555C26.8721 8.0599 27.1729 7.15983 27.7744 6.48535C28.376 5.80632 29.1963 5.4668 30.2354 5.4668C31.1149 5.4668 31.8304 5.72428 32.3818 6.23926C32.9378 6.74967 33.2295 7.42188 33.2568 8.25586H31.6914C31.6732 7.83203 31.5273 7.4834 31.2539 7.20996C30.985 6.93652 30.641 6.7998 30.2217 6.7998C29.6839 6.7998 29.2692 6.99577 28.9775 7.3877C28.6859 7.77507 28.5378 8.36523 28.5332 9.1582V9.4248C28.5332 10.2269 28.6768 10.8262 28.9639 11.2227C29.2555 11.6146 29.6748 11.8105 30.2217 11.8105ZM34.2002 9.2334C34.2002 8.50879 34.3438 7.8571 34.6309 7.27832C34.918 6.69499 35.3213 6.24837 35.8408 5.93848C36.3604 5.62402 36.9574 5.4668 37.6318 5.4668C38.6299 5.4668 39.4388 5.78809 40.0586 6.43066C40.6829 7.07324 41.0202 7.92546 41.0703 8.9873L41.0771 9.37695C41.0771 10.1061 40.9359 10.7578 40.6533 11.332C40.3753 11.9062 39.9743 12.3506 39.4502 12.665C38.9307 12.9795 38.3291 13.1367 37.6455 13.1367C36.6019 13.1367 35.7656 12.7904 35.1367 12.0977C34.5124 11.4004 34.2002 10.473 34.2002 9.31543V9.2334ZM35.8613 9.37695C35.8613 10.138 36.0186 10.735 36.333 11.168C36.6475 11.5964 37.085 11.8105 37.6455 11.8105C38.2061 11.8105 38.6413 11.5918 38.9512 11.1543C39.2656 10.7168 39.4229 10.0765 39.4229 9.2334C39.4229 8.486 39.2611 7.89355 38.9375 7.45605C38.6185 7.01855 38.1833 6.7998 37.6318 6.7998C37.0895 6.7998 36.6589 7.01628 36.3398 7.44922C36.0208 7.8776 35.8613 8.52018 35.8613 9.37695ZM44.0234 5.60352L44.0713 6.45801C44.6182 5.7972 45.3359 5.4668 46.2246 5.4668C47.765 5.4668 48.5488 6.34863 48.5762 8.1123V13H46.915V8.20801C46.915 7.73861 46.8125 7.39225 46.6074 7.16895C46.4069 6.94108 46.0765 6.82715 45.6162 6.82715C44.9463 6.82715 44.4473 7.13021 44.1191 7.73633V13H42.458V5.60352H44.0234ZM52.3564 3.80566V5.60352H53.6621V6.83398H52.3564V10.9629C52.3564 11.2454 52.4111 11.4505 52.5205 11.5781C52.6344 11.7012 52.835 11.7627 53.1221 11.7627C53.3135 11.7627 53.5072 11.7399 53.7031 11.6943V12.9795C53.3249 13.0843 52.9603 13.1367 52.6094 13.1367C51.3333 13.1367 50.6953 12.4326 50.6953 11.0244V6.83398H49.4785V5.60352H50.6953V3.80566H52.3564ZM59.3564 13C59.2835 12.8587 59.2197 12.6286 59.165 12.3096C58.6364 12.861 57.9893 13.1367 57.2236 13.1367C56.4808 13.1367 55.8747 12.9248 55.4053 12.501C54.9359 12.0771 54.7012 11.5531 54.7012 10.9287C54.7012 10.1403 54.9928 9.53646 55.5762 9.11719C56.1641 8.69336 57.0026 8.48145 58.0918 8.48145H59.1104V7.99609C59.1104 7.61328 59.0033 7.30794 58.7891 7.08008C58.5749 6.84766 58.249 6.73145 57.8115 6.73145C57.4333 6.73145 57.1234 6.82715 56.8818 7.01855C56.6403 7.2054 56.5195 7.44466 56.5195 7.73633H54.8584C54.8584 7.33073 54.9928 6.95247 55.2617 6.60156C55.5306 6.24609 55.8952 5.9681 56.3555 5.76758C56.8203 5.56706 57.3376 5.4668 57.9072 5.4668C58.7731 5.4668 59.4635 5.68555 59.9785 6.12305C60.4935 6.55599 60.7578 7.16667 60.7715 7.95508V11.291C60.7715 11.9564 60.8649 12.4873 61.0518 12.8838V13H59.3564ZM57.5312 11.8037C57.8594 11.8037 58.167 11.724 58.4541 11.5645C58.7458 11.4049 58.9645 11.1908 59.1104 10.9219V9.52734H58.2148C57.5996 9.52734 57.137 9.63444 56.8271 9.84863C56.5173 10.0628 56.3623 10.3659 56.3623 10.7578C56.3623 11.0768 56.4671 11.332 56.6768 11.5234C56.891 11.7103 57.1758 11.8037 57.5312 11.8037ZM64.2783 13H62.6172V5.60352H64.2783V13ZM62.5146 3.68262C62.5146 3.42741 62.5944 3.21549 62.7539 3.04688C62.918 2.87826 63.1504 2.79395 63.4512 2.79395C63.752 2.79395 63.9844 2.87826 64.1484 3.04688C64.3125 3.21549 64.3945 3.42741 64.3945 3.68262C64.3945 3.93327 64.3125 4.1429 64.1484 4.31152C63.9844 4.47559 63.752 4.55762 63.4512 4.55762C63.1504 4.55762 62.918 4.47559 62.7539 4.31152C62.5944 4.1429 62.5146 3.93327 62.5146 3.68262ZM67.6348 5.60352L67.6826 6.45801C68.2295 5.7972 68.9473 5.4668 69.8359 5.4668C71.3763 5.4668 72.1602 6.34863 72.1875 8.1123V13H70.5264V8.20801C70.5264 7.73861 70.4238 7.39225 70.2188 7.16895C70.0182 6.94108 69.6878 6.82715 69.2275 6.82715C68.5576 6.82715 68.0586 7.13021 67.7305 7.73633V13H66.0693V5.60352H67.6348ZM77.1436 13.1367C76.0908 13.1367 75.2363 12.8063 74.5801 12.1455C73.9284 11.4801 73.6025 10.596 73.6025 9.49316V9.28809C73.6025 8.5498 73.7438 7.89128 74.0264 7.3125C74.3135 6.72917 74.7145 6.27572 75.2295 5.95215C75.7445 5.62858 76.3187 5.4668 76.9521 5.4668C77.9593 5.4668 78.7363 5.78809 79.2832 6.43066C79.8346 7.07324 80.1104 7.98242 80.1104 9.1582V9.82812H75.2773C75.3275 10.4388 75.5303 10.9219 75.8857 11.2773C76.2458 11.6328 76.6969 11.8105 77.2393 11.8105C78.0003 11.8105 78.6201 11.5029 79.0986 10.8877L79.9941 11.7422C79.6979 12.1842 79.3014 12.5283 78.8047 12.7744C78.3125 13.016 77.7588 13.1367 77.1436 13.1367ZM76.9453 6.7998C76.4896 6.7998 76.1204 6.95931 75.8379 7.27832C75.5599 7.59733 75.3822 8.04167 75.3047 8.61133H78.4697V8.48828C78.4333 7.93229 78.2852 7.51302 78.0254 7.23047C77.7656 6.94336 77.4056 6.7998 76.9453 6.7998ZM85.2783 7.12109C85.0596 7.08464 84.834 7.06641 84.6016 7.06641C83.8405 7.06641 83.3278 7.35807 83.0635 7.94141V13H81.4023V5.60352H82.9883L83.0293 6.43066C83.4303 5.78809 83.9863 5.4668 84.6973 5.4668C84.9342 5.4668 85.1302 5.4987 85.2852 5.5625L85.2783 7.12109Z" fill="#BBBBBB"/>
<g opacity="0.8">
<path d="M10 39C10 37.3431 11.3431 36 13 36H75C76.6569 36 78 37.3431 78 39V93C78 94.6569 76.6569 96 75 96H13C11.3431 96 10 94.6569 10 93V39Z" fill="#1E73FF"/>
<path d="M45.4546 69.7998H43.6821V61.2378L41.0674 62.1313V60.6299L45.2275 59.0991H45.4546V69.7998Z" fill="white"/>
</g>
<g opacity="0.8">
<path d="M89 39C89 37.3431 90.3431 36 92 36H154C155.657 36 157 37.3431 157 39V93C157 94.6569 155.657 96 154 96H92C90.3431 96 89 94.6569 89 93V39Z" fill="#1E73FF"/>
<path d="M121.693 63.6548H122.777C123.324 63.6499 123.756 63.5083 124.074 63.23C124.396 62.9517 124.557 62.5488 124.557 62.0215C124.557 61.5137 124.423 61.1206 124.154 60.8423C123.891 60.5591 123.485 60.4175 122.938 60.4175C122.46 60.4175 122.067 60.5566 121.759 60.835C121.452 61.1084 121.298 61.4673 121.298 61.9116H119.518C119.518 61.3647 119.662 60.8667 119.95 60.4175C120.243 59.9683 120.648 59.6191 121.166 59.3701C121.688 59.1162 122.272 58.9893 122.917 58.9893C123.981 58.9893 124.816 59.2578 125.421 59.7949C126.032 60.3271 126.337 61.0693 126.337 62.0215C126.337 62.5 126.183 62.9517 125.875 63.3765C125.573 63.7964 125.18 64.1138 124.696 64.3286C125.282 64.5288 125.727 64.8438 126.029 65.2734C126.337 65.7031 126.491 66.2158 126.491 66.8115C126.491 67.7686 126.161 68.5303 125.502 69.0967C124.848 69.6631 123.986 69.9463 122.917 69.9463C121.891 69.9463 121.051 69.6729 120.397 69.126C119.743 68.5791 119.416 67.8516 119.416 66.9434H121.195C121.195 67.4121 121.352 67.793 121.664 68.0859C121.981 68.3789 122.406 68.5254 122.938 68.5254C123.49 68.5254 123.925 68.3789 124.242 68.0859C124.56 67.793 124.718 67.3682 124.718 66.8115C124.718 66.25 124.552 65.8179 124.22 65.5151C123.888 65.2124 123.395 65.061 122.741 65.061H121.693V63.6548Z" fill="white"/>
</g>
<g opacity="0.8">
<path d="M168 39C168 37.3431 169.343 36 171 36H333C334.657 36 336 37.3431 336 39V93C336 94.6569 334.657 96 333 96H171C169.343 96 168 94.6569 168 93V39Z" fill="#1E73FF"/>
<path d="M256.806 69.7998H249.635V68.5767L253.188 64.7021C253.7 64.1309 254.064 63.6548 254.279 63.2739C254.499 62.8882 254.608 62.5024 254.608 62.1167C254.608 61.6089 254.464 61.1987 254.176 60.8862C253.893 60.5737 253.51 60.4175 253.026 60.4175C252.45 60.4175 252.003 60.5933 251.686 60.9448C251.369 61.2964 251.21 61.7773 251.21 62.3877H249.43C249.43 61.7383 249.577 61.1548 249.87 60.6372C250.167 60.1147 250.59 59.7095 251.137 59.4214C251.688 59.1333 252.323 58.9893 253.041 58.9893C254.076 58.9893 254.892 59.2505 255.487 59.7729C256.088 60.2905 256.388 61.0083 256.388 61.9263C256.388 62.4585 256.237 63.0176 255.934 63.6035C255.636 64.1846 255.146 64.8462 254.462 65.5884L251.854 68.3789H256.806V69.7998Z" fill="white"/>
</g>
<g opacity="0.8">
<path d="M347 39C347 37.3431 348.343 36 350 36H412C413.657 36 415 37.3431 415 39V93C415 94.6569 413.657 96 412 96H350C348.343 96 347 94.6569 347 93V39Z" fill="#1E73FF"/>
<path d="M383.656 65.9985H384.981V67.4268H383.656V69.7998H381.876V67.4268H377.269L377.218 66.3428L381.817 59.1357H383.656V65.9985ZM379.085 65.9985H381.876V61.5454L381.744 61.7798L379.085 65.9985Z" fill="white"/>
</g>
<g opacity="0.8">
<path d="M426 39C426 37.3431 427.343 36 429 36H491C492.657 36 494 37.3431 494 39V93C494 94.6569 492.657 96 491 96H429C427.343 96 426 94.6569 426 93V39Z" fill="#1E73FF"/>
<path d="M457.111 64.5117L457.69 59.1357H463.417V60.6738H459.169L458.876 63.2227C459.37 62.9395 459.926 62.7979 460.546 62.7979C461.562 62.7979 462.351 63.1226 462.912 63.772C463.479 64.4214 463.762 65.2954 463.762 66.394C463.762 67.478 463.449 68.3423 462.824 68.9868C462.199 69.6265 461.342 69.9463 460.253 69.9463C459.277 69.9463 458.466 69.6704 457.822 69.1187C457.182 68.562 456.835 67.8296 456.782 66.9214H458.503C458.571 67.439 458.757 67.8369 459.06 68.1152C459.362 68.3887 459.758 68.5254 460.246 68.5254C460.793 68.5254 461.218 68.3301 461.521 67.9395C461.828 67.5488 461.982 67.0166 461.982 66.3428C461.982 65.6934 461.813 65.1807 461.477 64.8047C461.14 64.4238 460.676 64.2334 460.085 64.2334C459.763 64.2334 459.489 64.2773 459.265 64.3652C459.04 64.4482 458.796 64.6143 458.532 64.8633L457.111 64.5117Z" fill="white"/>
</g>
<path d="M83.5 106L83.4997 154" stroke="#AAAAAA" stroke-dasharray="4 2"/>
<path d="M162.5 106L162.5 154" stroke="#AAAAAA" stroke-dasharray="4 2"/>
<path d="M341.5 106L341.5 154" stroke="#AAAAAA" stroke-dasharray="4 2"/>
<path d="M420.5 106L420.5 154" stroke="#AAAAAA" stroke-dasharray="4 2"/>
<path d="M19.8213 115.573C19.2562 115.482 18.8005 115.437 18.4541 115.437C17.5426 115.437 17.0869 115.915 17.0869 116.872V117.604H18.666V118.581H17.0869V125H15.8223V118.581H14.6533V117.604H15.8223V116.797C15.8268 116.008 16.0479 115.405 16.4854 114.985C16.9229 114.566 17.5449 114.356 18.3516 114.356C18.8118 114.356 19.7233 114.495 21.0859 114.773V125H19.8213V115.573ZM26.2266 125.137C25.224 125.137 24.4082 124.809 23.7793 124.152C23.1504 123.492 22.8359 122.61 22.8359 121.507V121.274C22.8359 120.541 22.9749 119.887 23.2529 119.312C23.5355 118.734 23.9274 118.283 24.4287 117.959C24.9346 117.631 25.4814 117.467 26.0693 117.467C27.0309 117.467 27.7783 117.784 28.3115 118.417C28.8447 119.05 29.1113 119.957 29.1113 121.138V121.664H24.1006C24.1188 122.393 24.3307 122.983 24.7363 123.435C25.1465 123.881 25.666 124.104 26.2949 124.104C26.7415 124.104 27.1198 124.013 27.4297 123.831C27.7396 123.649 28.0107 123.407 28.2432 123.106L29.0156 123.708C28.3958 124.66 27.4661 125.137 26.2266 125.137ZM26.0693 118.506C25.5589 118.506 25.1305 118.693 24.7842 119.066C24.4378 119.436 24.2236 119.955 24.1416 120.625H27.8467V120.529C27.8102 119.887 27.637 119.39 27.3271 119.039C27.0173 118.684 26.598 118.506 26.0693 118.506ZM33.0625 120.304L34.7031 117.604H36.1797L33.7598 121.261L36.2549 125H34.792L33.083 122.231L31.374 125H29.9043L32.3994 121.261L29.9795 117.604H31.4424L33.0625 120.304ZM40.1582 121.288H36.8223V120.256H40.1582V121.288ZM47.6572 121.384C47.6572 122.514 47.3975 123.423 46.8779 124.111C46.3584 124.795 45.6611 125.137 44.7861 125.137C43.8519 125.137 43.1296 124.806 42.6191 124.146L42.5576 125H41.3955V114.5H42.6602V118.417C43.1706 117.784 43.8747 117.467 44.7725 117.467C45.6702 117.467 46.3743 117.806 46.8848 118.485C47.3997 119.164 47.6572 120.094 47.6572 121.274V121.384ZM46.3926 121.24C46.3926 120.379 46.2262 119.714 45.8936 119.244C45.5609 118.775 45.0824 118.54 44.458 118.54C43.624 118.54 43.0247 118.927 42.6602 119.702V122.901C43.0475 123.676 43.6514 124.063 44.4717 124.063C45.0778 124.063 45.5495 123.829 45.8867 123.359C46.224 122.89 46.3926 122.184 46.3926 121.24ZM53.8232 125C53.7503 124.854 53.6911 124.594 53.6455 124.221C53.0576 124.831 52.3558 125.137 51.54 125.137C50.8109 125.137 50.2116 124.932 49.7422 124.521C49.2773 124.107 49.0449 123.583 49.0449 122.949C49.0449 122.179 49.3366 121.582 49.9199 121.158C50.5078 120.73 51.3327 120.516 52.3945 120.516H53.625V119.935C53.625 119.493 53.4928 119.142 53.2285 118.882C52.9642 118.618 52.5745 118.485 52.0596 118.485C51.6084 118.485 51.2301 118.599 50.9248 118.827C50.6195 119.055 50.4668 119.331 50.4668 119.654H49.1953C49.1953 119.285 49.3252 118.93 49.585 118.588C49.8493 118.242 50.2048 117.968 50.6514 117.768C51.1025 117.567 51.597 117.467 52.1348 117.467C52.987 117.467 53.6546 117.681 54.1377 118.109C54.6208 118.533 54.8714 119.119 54.8896 119.866V123.271C54.8896 123.95 54.9762 124.49 55.1494 124.891V125H53.8232ZM51.7246 124.036C52.1211 124.036 52.4971 123.934 52.8525 123.729C53.208 123.523 53.4655 123.257 53.625 122.929V121.411H52.6338C51.0843 121.411 50.3096 121.865 50.3096 122.771C50.3096 123.168 50.4417 123.478 50.7061 123.701C50.9704 123.924 51.3099 124.036 51.7246 124.036ZM61.1787 123.038C61.1787 122.696 61.0488 122.432 60.7891 122.245C60.5339 122.054 60.085 121.89 59.4424 121.753C58.8044 121.616 58.2962 121.452 57.918 121.261C57.5443 121.069 57.2663 120.841 57.084 120.577C56.9062 120.313 56.8174 119.998 56.8174 119.634C56.8174 119.028 57.0726 118.515 57.583 118.096C58.098 117.676 58.7542 117.467 59.5518 117.467C60.3903 117.467 61.0693 117.683 61.5889 118.116C62.113 118.549 62.375 119.103 62.375 119.777H61.1035C61.1035 119.431 60.9554 119.132 60.6592 118.882C60.3675 118.631 59.9984 118.506 59.5518 118.506C59.0915 118.506 58.7314 118.606 58.4717 118.807C58.2119 119.007 58.082 119.269 58.082 119.593C58.082 119.898 58.2028 120.128 58.4443 120.283C58.6859 120.438 59.1211 120.586 59.75 120.728C60.3835 120.869 60.8962 121.037 61.2881 121.233C61.68 121.429 61.9694 121.666 62.1562 121.944C62.3477 122.218 62.4434 122.553 62.4434 122.949C62.4434 123.61 62.179 124.141 61.6504 124.542C61.1217 124.938 60.4359 125.137 59.5928 125.137C59.0003 125.137 58.4762 125.032 58.0205 124.822C57.5648 124.613 57.207 124.321 56.9473 123.947C56.6921 123.569 56.5645 123.161 56.5645 122.724H57.8291C57.8519 123.147 58.0205 123.485 58.335 123.735C58.654 123.981 59.0732 124.104 59.5928 124.104C60.0713 124.104 60.4541 124.009 60.7412 123.817C61.0329 123.621 61.1787 123.362 61.1787 123.038ZM65.4648 125H64.2002V117.604H65.4648V125ZM64.0977 115.642C64.0977 115.437 64.1592 115.263 64.2822 115.122C64.4098 114.981 64.5967 114.91 64.8428 114.91C65.0889 114.91 65.2757 114.981 65.4033 115.122C65.5309 115.263 65.5947 115.437 65.5947 115.642C65.5947 115.847 65.5309 116.018 65.4033 116.154C65.2757 116.291 65.0889 116.359 64.8428 116.359C64.5967 116.359 64.4098 116.291 64.2822 116.154C64.1592 116.018 64.0977 115.847 64.0977 115.642ZM71.8018 123.038C71.8018 122.696 71.6719 122.432 71.4121 122.245C71.1569 122.054 70.708 121.89 70.0654 121.753C69.4274 121.616 68.9193 121.452 68.541 121.261C68.1673 121.069 67.8893 120.841 67.707 120.577C67.5293 120.313 67.4404 119.998 67.4404 119.634C67.4404 119.028 67.6956 118.515 68.2061 118.096C68.721 117.676 69.3773 117.467 70.1748 117.467C71.0133 117.467 71.6924 117.683 72.2119 118.116C72.736 118.549 72.998 119.103 72.998 119.777H71.7266C71.7266 119.431 71.5785 119.132 71.2822 118.882C70.9906 118.631 70.6214 118.506 70.1748 118.506C69.7145 118.506 69.3545 118.606 69.0947 118.807C68.835 119.007 68.7051 119.269 68.7051 119.593C68.7051 119.898 68.8258 120.128 69.0674 120.283C69.3089 120.438 69.7441 120.586 70.373 120.728C71.0065 120.869 71.5192 121.037 71.9111 121.233C72.3031 121.429 72.5924 121.666 72.7793 121.944C72.9707 122.218 73.0664 122.553 73.0664 122.949C73.0664 123.61 72.8021 124.141 72.2734 124.542C71.7448 124.938 71.0589 125.137 70.2158 125.137C69.6234 125.137 69.0993 125.032 68.6436 124.822C68.1878 124.613 67.8301 124.321 67.5703 123.947C67.3151 123.569 67.1875 123.161 67.1875 122.724H68.4521C68.4749 123.147 68.6436 123.485 68.958 123.735C69.277 123.981 69.6963 124.104 70.2158 124.104C70.6943 124.104 71.0771 124.009 71.3643 123.817C71.6559 123.621 71.8018 123.362 71.8018 123.038Z" fill="#666666"/>
<path d="M34.5225 145C34.4248 144.81 34.354 144.573 34.3101 144.29C33.7974 144.861 33.1309 145.146 32.3105 145.146C31.5342 145.146 30.8896 144.922 30.377 144.473C29.8691 144.023 29.6152 143.457 29.6152 142.773C29.6152 141.934 29.9253 141.289 30.5454 140.84C31.1704 140.391 32.0713 140.164 33.248 140.159H34.2222V139.705C34.2222 139.338 34.127 139.045 33.9365 138.826C33.751 138.606 33.4556 138.496 33.0503 138.496C32.6938 138.496 32.4131 138.582 32.208 138.752C32.0078 138.923 31.9077 139.158 31.9077 139.456H29.791C29.791 138.997 29.9326 138.572 30.2158 138.181C30.499 137.791 30.8994 137.485 31.417 137.266C31.9346 137.041 32.5156 136.929 33.1602 136.929C34.1367 136.929 34.9106 137.175 35.4819 137.668C36.0581 138.157 36.3462 138.845 36.3462 139.734V143.169C36.3511 143.921 36.4561 144.49 36.6611 144.875V145H34.5225ZM32.772 143.528C33.0845 143.528 33.3726 143.459 33.6362 143.323C33.8999 143.181 34.0952 142.993 34.2222 142.759V141.396H33.4312C32.3716 141.396 31.8076 141.763 31.7393 142.495L31.7319 142.62C31.7319 142.883 31.8247 143.101 32.0103 143.271C32.1958 143.442 32.4497 143.528 32.772 143.528ZM42.7183 144.194C42.1958 144.829 41.4731 145.146 40.5503 145.146C39.7007 145.146 39.0513 144.902 38.6021 144.414C38.1577 143.926 37.9307 143.21 37.9209 142.268V137.075H40.0376V142.195C40.0376 143.02 40.4136 143.433 41.1655 143.433C41.8833 143.433 42.3765 143.184 42.645 142.686V137.075H44.769V145H42.7769L42.7183 144.194ZM48.8999 135.127V137.075H50.2549V138.628H48.8999V142.583C48.8999 142.876 48.9561 143.086 49.0684 143.213C49.1807 143.34 49.3955 143.403 49.7129 143.403C49.9473 143.403 50.1548 143.386 50.3354 143.352V144.956C49.9204 145.083 49.4932 145.146 49.0537 145.146C47.5693 145.146 46.8125 144.397 46.7832 142.898V138.628H45.626V137.075H46.7832V135.127H48.8999ZM50.8848 140.964C50.8848 140.178 51.0361 139.478 51.3389 138.862C51.6416 138.247 52.0762 137.771 52.6426 137.434C53.2139 137.097 53.8755 136.929 54.6274 136.929C55.6968 136.929 56.5684 137.256 57.2422 137.91C57.9209 138.564 58.2993 139.453 58.3774 140.576L58.3921 141.118C58.3921 142.334 58.0527 143.311 57.374 144.048C56.6953 144.78 55.7847 145.146 54.6421 145.146C53.4995 145.146 52.5864 144.78 51.9028 144.048C51.2241 143.315 50.8848 142.319 50.8848 141.06V140.964ZM53.0015 141.118C53.0015 141.87 53.1431 142.446 53.4263 142.847C53.7095 143.242 54.1147 143.44 54.6421 143.44C55.1548 143.44 55.5552 143.245 55.8433 142.854C56.1313 142.458 56.2754 141.829 56.2754 140.964C56.2754 140.227 56.1313 139.656 55.8433 139.25C55.5552 138.845 55.1499 138.643 54.6274 138.643C54.1099 138.643 53.7095 138.845 53.4263 139.25C53.1431 139.651 53.0015 140.273 53.0015 141.118Z" fill="#1E73FF"/>
<path d="M227.821 115.573C227.256 115.482 226.8 115.437 226.454 115.437C225.543 115.437 225.087 115.915 225.087 116.872V117.604H226.666V118.581H225.087V125H223.822V118.581H222.653V117.604H223.822V116.797C223.827 116.008 224.048 115.405 224.485 114.985C224.923 114.566 225.545 114.356 226.352 114.356C226.812 114.356 227.723 114.495 229.086 114.773V125H227.821V115.573ZM234.227 125.137C233.224 125.137 232.408 124.809 231.779 124.152C231.15 123.492 230.836 122.61 230.836 121.507V121.274C230.836 120.541 230.975 119.887 231.253 119.312C231.535 118.734 231.927 118.283 232.429 117.959C232.935 117.631 233.481 117.467 234.069 117.467C235.031 117.467 235.778 117.784 236.312 118.417C236.845 119.05 237.111 119.957 237.111 121.138V121.664H232.101C232.119 122.393 232.331 122.983 232.736 123.435C233.146 123.881 233.666 124.104 234.295 124.104C234.742 124.104 235.12 124.013 235.43 123.831C235.74 123.649 236.011 123.407 236.243 123.106L237.016 123.708C236.396 124.66 235.466 125.137 234.227 125.137ZM234.069 118.506C233.559 118.506 233.131 118.693 232.784 119.066C232.438 119.436 232.224 119.955 232.142 120.625H235.847V120.529C235.81 119.887 235.637 119.39 235.327 119.039C235.017 118.684 234.598 118.506 234.069 118.506ZM241.062 120.304L242.703 117.604H244.18L241.76 121.261L244.255 125H242.792L241.083 122.231L239.374 125H237.904L240.399 121.261L237.979 117.604H239.442L241.062 120.304ZM248.158 121.288H244.822V120.256H248.158V121.288ZM255.657 121.384C255.657 122.514 255.397 123.423 254.878 124.111C254.358 124.795 253.661 125.137 252.786 125.137C251.852 125.137 251.13 124.806 250.619 124.146L250.558 125H249.396V114.5H250.66V118.417C251.171 117.784 251.875 117.467 252.772 117.467C253.67 117.467 254.374 117.806 254.885 118.485C255.4 119.164 255.657 120.094 255.657 121.274V121.384ZM254.393 121.24C254.393 120.379 254.226 119.714 253.894 119.244C253.561 118.775 253.082 118.54 252.458 118.54C251.624 118.54 251.025 118.927 250.66 119.702V122.901C251.048 123.676 251.651 124.063 252.472 124.063C253.078 124.063 253.549 123.829 253.887 123.359C254.224 122.89 254.393 122.184 254.393 121.24ZM261.823 125C261.75 124.854 261.691 124.594 261.646 124.221C261.058 124.831 260.356 125.137 259.54 125.137C258.811 125.137 258.212 124.932 257.742 124.521C257.277 124.107 257.045 123.583 257.045 122.949C257.045 122.179 257.337 121.582 257.92 121.158C258.508 120.73 259.333 120.516 260.395 120.516H261.625V119.935C261.625 119.493 261.493 119.142 261.229 118.882C260.964 118.618 260.575 118.485 260.06 118.485C259.608 118.485 259.23 118.599 258.925 118.827C258.619 119.055 258.467 119.331 258.467 119.654H257.195C257.195 119.285 257.325 118.93 257.585 118.588C257.849 118.242 258.205 117.968 258.651 117.768C259.103 117.567 259.597 117.467 260.135 117.467C260.987 117.467 261.655 117.681 262.138 118.109C262.621 118.533 262.871 119.119 262.89 119.866V123.271C262.89 123.95 262.976 124.49 263.149 124.891V125H261.823ZM259.725 124.036C260.121 124.036 260.497 123.934 260.853 123.729C261.208 123.523 261.465 123.257 261.625 122.929V121.411H260.634C259.084 121.411 258.31 121.865 258.31 122.771C258.31 123.168 258.442 123.478 258.706 123.701C258.97 123.924 259.31 124.036 259.725 124.036ZM269.179 123.038C269.179 122.696 269.049 122.432 268.789 122.245C268.534 122.054 268.085 121.89 267.442 121.753C266.804 121.616 266.296 121.452 265.918 121.261C265.544 121.069 265.266 120.841 265.084 120.577C264.906 120.313 264.817 119.998 264.817 119.634C264.817 119.028 265.073 118.515 265.583 118.096C266.098 117.676 266.754 117.467 267.552 117.467C268.39 117.467 269.069 117.683 269.589 118.116C270.113 118.549 270.375 119.103 270.375 119.777H269.104C269.104 119.431 268.955 119.132 268.659 118.882C268.368 118.631 267.998 118.506 267.552 118.506C267.091 118.506 266.731 118.606 266.472 118.807C266.212 119.007 266.082 119.269 266.082 119.593C266.082 119.898 266.203 120.128 266.444 120.283C266.686 120.438 267.121 120.586 267.75 120.728C268.383 120.869 268.896 121.037 269.288 121.233C269.68 121.429 269.969 121.666 270.156 121.944C270.348 122.218 270.443 122.553 270.443 122.949C270.443 123.61 270.179 124.141 269.65 124.542C269.122 124.938 268.436 125.137 267.593 125.137C267 125.137 266.476 125.032 266.021 124.822C265.565 124.613 265.207 124.321 264.947 123.947C264.692 123.569 264.564 123.161 264.564 122.724H265.829C265.852 123.147 266.021 123.485 266.335 123.735C266.654 123.981 267.073 124.104 267.593 124.104C268.071 124.104 268.454 124.009 268.741 123.817C269.033 123.621 269.179 123.362 269.179 123.038ZM273.465 125H272.2V117.604H273.465V125ZM272.098 115.642C272.098 115.437 272.159 115.263 272.282 115.122C272.41 114.981 272.597 114.91 272.843 114.91C273.089 114.91 273.276 114.981 273.403 115.122C273.531 115.263 273.595 115.437 273.595 115.642C273.595 115.847 273.531 116.018 273.403 116.154C273.276 116.291 273.089 116.359 272.843 116.359C272.597 116.359 272.41 116.291 272.282 116.154C272.159 116.018 272.098 115.847 272.098 115.642ZM279.802 123.038C279.802 122.696 279.672 122.432 279.412 122.245C279.157 122.054 278.708 121.89 278.065 121.753C277.427 121.616 276.919 121.452 276.541 121.261C276.167 121.069 275.889 120.841 275.707 120.577C275.529 120.313 275.44 119.998 275.44 119.634C275.44 119.028 275.696 118.515 276.206 118.096C276.721 117.676 277.377 117.467 278.175 117.467C279.013 117.467 279.692 117.683 280.212 118.116C280.736 118.549 280.998 119.103 280.998 119.777H279.727C279.727 119.431 279.578 119.132 279.282 118.882C278.991 118.631 278.621 118.506 278.175 118.506C277.715 118.506 277.354 118.606 277.095 118.807C276.835 119.007 276.705 119.269 276.705 119.593C276.705 119.898 276.826 120.128 277.067 120.283C277.309 120.438 277.744 120.586 278.373 120.728C279.007 120.869 279.519 121.037 279.911 121.233C280.303 121.429 280.592 121.666 280.779 121.944C280.971 122.218 281.066 122.553 281.066 122.949C281.066 123.61 280.802 124.141 280.273 124.542C279.745 124.938 279.059 125.137 278.216 125.137C277.623 125.137 277.099 125.032 276.644 124.822C276.188 124.613 275.83 124.321 275.57 123.947C275.315 123.569 275.188 123.161 275.188 122.724H276.452C276.475 123.147 276.644 123.485 276.958 123.735C277.277 123.981 277.696 124.104 278.216 124.104C278.694 124.104 279.077 124.009 279.364 123.817C279.656 123.621 279.802 123.362 279.802 123.038Z" fill="#666666"/>
<path d="M233.975 138.73H235.103C235.64 138.73 236.038 138.596 236.297 138.328C236.556 138.059 236.685 137.703 236.685 137.258C236.685 136.829 236.556 136.494 236.297 136.255C236.043 136.016 235.691 135.896 235.242 135.896C234.837 135.896 234.498 136.008 234.224 136.233C233.951 136.453 233.814 136.741 233.814 137.097H231.697C231.697 136.541 231.846 136.042 232.144 135.603C232.447 135.159 232.867 134.812 233.404 134.563C233.946 134.314 234.542 134.189 235.191 134.189C236.319 134.189 237.203 134.46 237.842 135.002C238.482 135.54 238.802 136.282 238.802 137.229C238.802 137.717 238.653 138.167 238.355 138.577C238.057 138.987 237.667 139.302 237.183 139.521C237.784 139.736 238.23 140.059 238.523 140.488C238.821 140.918 238.97 141.426 238.97 142.012C238.97 142.959 238.624 143.718 237.93 144.29C237.242 144.861 236.329 145.146 235.191 145.146C234.126 145.146 233.255 144.866 232.576 144.304C231.902 143.743 231.565 143 231.565 142.078H233.682C233.682 142.478 233.831 142.805 234.129 143.059C234.432 143.313 234.803 143.44 235.242 143.44C235.745 143.44 236.138 143.308 236.421 143.044C236.709 142.776 236.854 142.422 236.854 141.982C236.854 140.918 236.268 140.386 235.096 140.386H233.975V138.73ZM247.613 140.591C247.613 142.065 247.308 143.193 246.697 143.975C246.087 144.756 245.193 145.146 244.017 145.146C242.854 145.146 241.966 144.763 241.351 143.997C240.735 143.23 240.42 142.131 240.406 140.701V138.738C240.406 137.249 240.713 136.118 241.329 135.347C241.949 134.575 242.84 134.189 244.002 134.189C245.164 134.189 246.053 134.573 246.668 135.339C247.283 136.101 247.598 137.197 247.613 138.628V140.591ZM245.496 138.438C245.496 137.554 245.374 136.912 245.13 136.511C244.891 136.106 244.515 135.903 244.002 135.903C243.504 135.903 243.135 136.096 242.896 136.482C242.662 136.863 242.537 137.461 242.522 138.276V140.869C242.522 141.738 242.64 142.385 242.874 142.81C243.113 143.23 243.494 143.44 244.017 143.44C244.534 143.44 244.908 143.237 245.137 142.832C245.367 142.427 245.486 141.807 245.496 140.972V138.438ZM256.226 140.591C256.226 142.065 255.921 143.193 255.311 143.975C254.7 144.756 253.807 145.146 252.63 145.146C251.468 145.146 250.579 144.763 249.964 143.997C249.349 143.23 249.034 142.131 249.019 140.701V138.738C249.019 137.249 249.327 136.118 249.942 135.347C250.562 134.575 251.453 134.189 252.615 134.189C253.777 134.189 254.666 134.573 255.281 135.339C255.896 136.101 256.211 137.197 256.226 138.628V140.591ZM254.109 138.438C254.109 137.554 253.987 136.912 253.743 136.511C253.504 136.106 253.128 135.903 252.615 135.903C252.117 135.903 251.749 136.096 251.509 136.482C251.275 136.863 251.15 137.461 251.136 138.276V140.869C251.136 141.738 251.253 142.385 251.487 142.81C251.727 143.23 252.107 143.44 252.63 143.44C253.147 143.44 253.521 143.237 253.75 142.832C253.98 142.427 254.1 141.807 254.109 140.972V138.438ZM264.883 141.111C264.883 142.332 264.605 143.311 264.048 144.048C263.497 144.78 262.75 145.146 261.807 145.146C261.006 145.146 260.359 144.868 259.866 144.312V148.047H257.75V137.075H259.712L259.786 137.852C260.298 137.236 260.967 136.929 261.792 136.929C262.769 136.929 263.528 137.29 264.07 138.013C264.612 138.735 264.883 139.731 264.883 141.001V141.111ZM262.767 140.957C262.767 140.22 262.635 139.651 262.371 139.25C262.112 138.85 261.734 138.65 261.236 138.65C260.572 138.65 260.115 138.904 259.866 139.412V142.656C260.125 143.179 260.586 143.44 261.25 143.44C262.261 143.44 262.767 142.612 262.767 140.957ZM269.102 139.441L270.435 137.075H272.698L270.442 140.957L272.793 145H270.523L269.109 142.51L267.703 145H265.425L267.776 140.957L265.528 137.075H267.798L269.102 139.441Z" fill="#1E73FF"/>
<path d="M98.8213 115.573C98.2562 115.482 97.8005 115.437 97.4541 115.437C96.5426 115.437 96.0869 115.915 96.0869 116.872V117.604H97.666V118.581H96.0869V125H94.8223V118.581H93.6533V117.604H94.8223V116.797C94.8268 116.008 95.0479 115.405 95.4854 114.985C95.9229 114.566 96.5449 114.356 97.3516 114.356C97.8118 114.356 98.7233 114.495 100.086 114.773V125H98.8213V115.573ZM105.227 125.137C104.224 125.137 103.408 124.809 102.779 124.152C102.15 123.492 101.836 122.61 101.836 121.507V121.274C101.836 120.541 101.975 119.887 102.253 119.312C102.535 118.734 102.927 118.283 103.429 117.959C103.935 117.631 104.481 117.467 105.069 117.467C106.031 117.467 106.778 117.784 107.312 118.417C107.845 119.05 108.111 119.957 108.111 121.138V121.664H103.101C103.119 122.393 103.331 122.983 103.736 123.435C104.146 123.881 104.666 124.104 105.295 124.104C105.742 124.104 106.12 124.013 106.43 123.831C106.74 123.649 107.011 123.407 107.243 123.106L108.016 123.708C107.396 124.66 106.466 125.137 105.227 125.137ZM105.069 118.506C104.559 118.506 104.131 118.693 103.784 119.066C103.438 119.436 103.224 119.955 103.142 120.625H106.847V120.529C106.81 119.887 106.637 119.39 106.327 119.039C106.017 118.684 105.598 118.506 105.069 118.506ZM112.062 120.304L113.703 117.604H115.18L112.76 121.261L115.255 125H113.792L112.083 122.231L110.374 125H108.904L111.399 121.261L108.979 117.604H110.442L112.062 120.304ZM119.158 121.288H115.822V120.256H119.158V121.288ZM126.657 121.384C126.657 122.514 126.397 123.423 125.878 124.111C125.358 124.795 124.661 125.137 123.786 125.137C122.852 125.137 122.13 124.806 121.619 124.146L121.558 125H120.396V114.5H121.66V118.417C122.171 117.784 122.875 117.467 123.772 117.467C124.67 117.467 125.374 117.806 125.885 118.485C126.4 119.164 126.657 120.094 126.657 121.274V121.384ZM125.393 121.24C125.393 120.379 125.226 119.714 124.894 119.244C124.561 118.775 124.082 118.54 123.458 118.54C122.624 118.54 122.025 118.927 121.66 119.702V122.901C122.048 123.676 122.651 124.063 123.472 124.063C124.078 124.063 124.549 123.829 124.887 123.359C125.224 122.89 125.393 122.184 125.393 121.24ZM132.823 125C132.75 124.854 132.691 124.594 132.646 124.221C132.058 124.831 131.356 125.137 130.54 125.137C129.811 125.137 129.212 124.932 128.742 124.521C128.277 124.107 128.045 123.583 128.045 122.949C128.045 122.179 128.337 121.582 128.92 121.158C129.508 120.73 130.333 120.516 131.395 120.516H132.625V119.935C132.625 119.493 132.493 119.142 132.229 118.882C131.964 118.618 131.575 118.485 131.06 118.485C130.608 118.485 130.23 118.599 129.925 118.827C129.619 119.055 129.467 119.331 129.467 119.654H128.195C128.195 119.285 128.325 118.93 128.585 118.588C128.849 118.242 129.205 117.968 129.651 117.768C130.103 117.567 130.597 117.467 131.135 117.467C131.987 117.467 132.655 117.681 133.138 118.109C133.621 118.533 133.871 119.119 133.89 119.866V123.271C133.89 123.95 133.976 124.49 134.149 124.891V125H132.823ZM130.725 124.036C131.121 124.036 131.497 123.934 131.853 123.729C132.208 123.523 132.465 123.257 132.625 122.929V121.411H131.634C130.084 121.411 129.31 121.865 129.31 122.771C129.31 123.168 129.442 123.478 129.706 123.701C129.97 123.924 130.31 124.036 130.725 124.036ZM140.179 123.038C140.179 122.696 140.049 122.432 139.789 122.245C139.534 122.054 139.085 121.89 138.442 121.753C137.804 121.616 137.296 121.452 136.918 121.261C136.544 121.069 136.266 120.841 136.084 120.577C135.906 120.313 135.817 119.998 135.817 119.634C135.817 119.028 136.073 118.515 136.583 118.096C137.098 117.676 137.754 117.467 138.552 117.467C139.39 117.467 140.069 117.683 140.589 118.116C141.113 118.549 141.375 119.103 141.375 119.777H140.104C140.104 119.431 139.955 119.132 139.659 118.882C139.368 118.631 138.998 118.506 138.552 118.506C138.091 118.506 137.731 118.606 137.472 118.807C137.212 119.007 137.082 119.269 137.082 119.593C137.082 119.898 137.203 120.128 137.444 120.283C137.686 120.438 138.121 120.586 138.75 120.728C139.383 120.869 139.896 121.037 140.288 121.233C140.68 121.429 140.969 121.666 141.156 121.944C141.348 122.218 141.443 122.553 141.443 122.949C141.443 123.61 141.179 124.141 140.65 124.542C140.122 124.938 139.436 125.137 138.593 125.137C138 125.137 137.476 125.032 137.021 124.822C136.565 124.613 136.207 124.321 135.947 123.947C135.692 123.569 135.564 123.161 135.564 122.724H136.829C136.852 123.147 137.021 123.485 137.335 123.735C137.654 123.981 138.073 124.104 138.593 124.104C139.071 124.104 139.454 124.009 139.741 123.817C140.033 123.621 140.179 123.362 140.179 123.038ZM144.465 125H143.2V117.604H144.465V125ZM143.098 115.642C143.098 115.437 143.159 115.263 143.282 115.122C143.41 114.981 143.597 114.91 143.843 114.91C144.089 114.91 144.276 114.981 144.403 115.122C144.531 115.263 144.595 115.437 144.595 115.642C144.595 115.847 144.531 116.018 144.403 116.154C144.276 116.291 144.089 116.359 143.843 116.359C143.597 116.359 143.41 116.291 143.282 116.154C143.159 116.018 143.098 115.847 143.098 115.642ZM150.802 123.038C150.802 122.696 150.672 122.432 150.412 122.245C150.157 122.054 149.708 121.89 149.065 121.753C148.427 121.616 147.919 121.452 147.541 121.261C147.167 121.069 146.889 120.841 146.707 120.577C146.529 120.313 146.44 119.998 146.44 119.634C146.44 119.028 146.696 118.515 147.206 118.096C147.721 117.676 148.377 117.467 149.175 117.467C150.013 117.467 150.692 117.683 151.212 118.116C151.736 118.549 151.998 119.103 151.998 119.777H150.727C150.727 119.431 150.578 119.132 150.282 118.882C149.991 118.631 149.621 118.506 149.175 118.506C148.715 118.506 148.354 118.606 148.095 118.807C147.835 119.007 147.705 119.269 147.705 119.593C147.705 119.898 147.826 120.128 148.067 120.283C148.309 120.438 148.744 120.586 149.373 120.728C150.007 120.869 150.519 121.037 150.911 121.233C151.303 121.429 151.592 121.666 151.779 121.944C151.971 122.218 152.066 122.553 152.066 122.949C152.066 123.61 151.802 124.141 151.273 124.542C150.745 124.938 150.059 125.137 149.216 125.137C148.623 125.137 148.099 125.032 147.644 124.822C147.188 124.613 146.83 124.321 146.57 123.947C146.315 123.569 146.188 123.161 146.188 122.724H147.452C147.475 123.147 147.644 123.485 147.958 123.735C148.277 123.981 148.696 124.104 149.216 124.104C149.694 124.104 150.077 124.009 150.364 123.817C150.656 123.621 150.802 123.362 150.802 123.038Z" fill="#666666"/>
<path d="M113.522 145C113.425 144.81 113.354 144.573 113.31 144.29C112.797 144.861 112.131 145.146 111.311 145.146C110.534 145.146 109.89 144.922 109.377 144.473C108.869 144.023 108.615 143.457 108.615 142.773C108.615 141.934 108.925 141.289 109.545 140.84C110.17 140.391 111.071 140.164 112.248 140.159H113.222V139.705C113.222 139.338 113.127 139.045 112.937 138.826C112.751 138.606 112.456 138.496 112.05 138.496C111.694 138.496 111.413 138.582 111.208 138.752C111.008 138.923 110.908 139.158 110.908 139.456H108.791C108.791 138.997 108.933 138.572 109.216 138.181C109.499 137.791 109.899 137.485 110.417 137.266C110.935 137.041 111.516 136.929 112.16 136.929C113.137 136.929 113.911 137.175 114.482 137.668C115.058 138.157 115.346 138.845 115.346 139.734V143.169C115.351 143.921 115.456 144.49 115.661 144.875V145H113.522ZM111.772 143.528C112.084 143.528 112.373 143.459 112.636 143.323C112.9 143.181 113.095 142.993 113.222 142.759V141.396H112.431C111.372 141.396 110.808 141.763 110.739 142.495L110.732 142.62C110.732 142.883 110.825 143.101 111.01 143.271C111.196 143.442 111.45 143.528 111.772 143.528ZM121.718 144.194C121.196 144.829 120.473 145.146 119.55 145.146C118.701 145.146 118.051 144.902 117.602 144.414C117.158 143.926 116.931 143.21 116.921 142.268V137.075H119.038V142.195C119.038 143.02 119.414 143.433 120.166 143.433C120.883 143.433 121.376 143.184 121.645 142.686V137.075H123.769V145H121.777L121.718 144.194ZM127.9 135.127V137.075H129.255V138.628H127.9V142.583C127.9 142.876 127.956 143.086 128.068 143.213C128.181 143.34 128.396 143.403 128.713 143.403C128.947 143.403 129.155 143.386 129.335 143.352V144.956C128.92 145.083 128.493 145.146 128.054 145.146C126.569 145.146 125.812 144.397 125.783 142.898V138.628H124.626V137.075H125.783V135.127H127.9ZM129.885 140.964C129.885 140.178 130.036 139.478 130.339 138.862C130.642 138.247 131.076 137.771 131.643 137.434C132.214 137.097 132.875 136.929 133.627 136.929C134.697 136.929 135.568 137.256 136.242 137.91C136.921 138.564 137.299 139.453 137.377 140.576L137.392 141.118C137.392 142.334 137.053 143.311 136.374 144.048C135.695 144.78 134.785 145.146 133.642 145.146C132.5 145.146 131.586 144.78 130.903 144.048C130.224 143.315 129.885 142.319 129.885 141.06V140.964ZM132.001 141.118C132.001 141.87 132.143 142.446 132.426 142.847C132.709 143.242 133.115 143.44 133.642 143.44C134.155 143.44 134.555 143.245 134.843 142.854C135.131 142.458 135.275 141.829 135.275 140.964C135.275 140.227 135.131 139.656 134.843 139.25C134.555 138.845 134.15 138.643 133.627 138.643C133.11 138.643 132.709 138.845 132.426 139.25C132.143 139.651 132.001 140.273 132.001 141.118Z" fill="#1E73FF"/>
<path d="M356.821 115.573C356.256 115.482 355.8 115.437 355.454 115.437C354.543 115.437 354.087 115.915 354.087 116.872V117.604H355.666V118.581H354.087V125H352.822V118.581H351.653V117.604H352.822V116.797C352.827 116.008 353.048 115.405 353.485 114.985C353.923 114.566 354.545 114.356 355.352 114.356C355.812 114.356 356.723 114.495 358.086 114.773V125H356.821V115.573ZM363.227 125.137C362.224 125.137 361.408 124.809 360.779 124.152C360.15 123.492 359.836 122.61 359.836 121.507V121.274C359.836 120.541 359.975 119.887 360.253 119.312C360.535 118.734 360.927 118.283 361.429 117.959C361.935 117.631 362.481 117.467 363.069 117.467C364.031 117.467 364.778 117.784 365.312 118.417C365.845 119.05 366.111 119.957 366.111 121.138V121.664H361.101C361.119 122.393 361.331 122.983 361.736 123.435C362.146 123.881 362.666 124.104 363.295 124.104C363.742 124.104 364.12 124.013 364.43 123.831C364.74 123.649 365.011 123.407 365.243 123.106L366.016 123.708C365.396 124.66 364.466 125.137 363.227 125.137ZM363.069 118.506C362.559 118.506 362.131 118.693 361.784 119.066C361.438 119.436 361.224 119.955 361.142 120.625H364.847V120.529C364.81 119.887 364.637 119.39 364.327 119.039C364.017 118.684 363.598 118.506 363.069 118.506ZM370.062 120.304L371.703 117.604H373.18L370.76 121.261L373.255 125H371.792L370.083 122.231L368.374 125H366.904L369.399 121.261L366.979 117.604H368.442L370.062 120.304ZM377.158 121.288H373.822V120.256H377.158V121.288ZM384.657 121.384C384.657 122.514 384.397 123.423 383.878 124.111C383.358 124.795 382.661 125.137 381.786 125.137C380.852 125.137 380.13 124.806 379.619 124.146L379.558 125H378.396V114.5H379.66V118.417C380.171 117.784 380.875 117.467 381.772 117.467C382.67 117.467 383.374 117.806 383.885 118.485C384.4 119.164 384.657 120.094 384.657 121.274V121.384ZM383.393 121.24C383.393 120.379 383.226 119.714 382.894 119.244C382.561 118.775 382.082 118.54 381.458 118.54C380.624 118.54 380.025 118.927 379.66 119.702V122.901C380.048 123.676 380.651 124.063 381.472 124.063C382.078 124.063 382.549 123.829 382.887 123.359C383.224 122.89 383.393 122.184 383.393 121.24ZM390.823 125C390.75 124.854 390.691 124.594 390.646 124.221C390.058 124.831 389.356 125.137 388.54 125.137C387.811 125.137 387.212 124.932 386.742 124.521C386.277 124.107 386.045 123.583 386.045 122.949C386.045 122.179 386.337 121.582 386.92 121.158C387.508 120.73 388.333 120.516 389.395 120.516H390.625V119.935C390.625 119.493 390.493 119.142 390.229 118.882C389.964 118.618 389.575 118.485 389.06 118.485C388.608 118.485 388.23 118.599 387.925 118.827C387.619 119.055 387.467 119.331 387.467 119.654H386.195C386.195 119.285 386.325 118.93 386.585 118.588C386.849 118.242 387.205 117.968 387.651 117.768C388.103 117.567 388.597 117.467 389.135 117.467C389.987 117.467 390.655 117.681 391.138 118.109C391.621 118.533 391.871 119.119 391.89 119.866V123.271C391.89 123.95 391.976 124.49 392.149 124.891V125H390.823ZM388.725 124.036C389.121 124.036 389.497 123.934 389.853 123.729C390.208 123.523 390.465 123.257 390.625 122.929V121.411H389.634C388.084 121.411 387.31 121.865 387.31 122.771C387.31 123.168 387.442 123.478 387.706 123.701C387.97 123.924 388.31 124.036 388.725 124.036ZM398.179 123.038C398.179 122.696 398.049 122.432 397.789 122.245C397.534 122.054 397.085 121.89 396.442 121.753C395.804 121.616 395.296 121.452 394.918 121.261C394.544 121.069 394.266 120.841 394.084 120.577C393.906 120.313 393.817 119.998 393.817 119.634C393.817 119.028 394.073 118.515 394.583 118.096C395.098 117.676 395.754 117.467 396.552 117.467C397.39 117.467 398.069 117.683 398.589 118.116C399.113 118.549 399.375 119.103 399.375 119.777H398.104C398.104 119.431 397.955 119.132 397.659 118.882C397.368 118.631 396.998 118.506 396.552 118.506C396.091 118.506 395.731 118.606 395.472 118.807C395.212 119.007 395.082 119.269 395.082 119.593C395.082 119.898 395.203 120.128 395.444 120.283C395.686 120.438 396.121 120.586 396.75 120.728C397.383 120.869 397.896 121.037 398.288 121.233C398.68 121.429 398.969 121.666 399.156 121.944C399.348 122.218 399.443 122.553 399.443 122.949C399.443 123.61 399.179 124.141 398.65 124.542C398.122 124.938 397.436 125.137 396.593 125.137C396 125.137 395.476 125.032 395.021 124.822C394.565 124.613 394.207 124.321 393.947 123.947C393.692 123.569 393.564 123.161 393.564 122.724H394.829C394.852 123.147 395.021 123.485 395.335 123.735C395.654 123.981 396.073 124.104 396.593 124.104C397.071 124.104 397.454 124.009 397.741 123.817C398.033 123.621 398.179 123.362 398.179 123.038ZM402.465 125H401.2V117.604H402.465V125ZM401.098 115.642C401.098 115.437 401.159 115.263 401.282 115.122C401.41 114.981 401.597 114.91 401.843 114.91C402.089 114.91 402.276 114.981 402.403 115.122C402.531 115.263 402.595 115.437 402.595 115.642C402.595 115.847 402.531 116.018 402.403 116.154C402.276 116.291 402.089 116.359 401.843 116.359C401.597 116.359 401.41 116.291 401.282 116.154C401.159 116.018 401.098 115.847 401.098 115.642ZM408.802 123.038C408.802 122.696 408.672 122.432 408.412 122.245C408.157 122.054 407.708 121.89 407.065 121.753C406.427 121.616 405.919 121.452 405.541 121.261C405.167 121.069 404.889 120.841 404.707 120.577C404.529 120.313 404.44 119.998 404.44 119.634C404.44 119.028 404.696 118.515 405.206 118.096C405.721 117.676 406.377 117.467 407.175 117.467C408.013 117.467 408.692 117.683 409.212 118.116C409.736 118.549 409.998 119.103 409.998 119.777H408.727C408.727 119.431 408.578 119.132 408.282 118.882C407.991 118.631 407.621 118.506 407.175 118.506C406.715 118.506 406.354 118.606 406.095 118.807C405.835 119.007 405.705 119.269 405.705 119.593C405.705 119.898 405.826 120.128 406.067 120.283C406.309 120.438 406.744 120.586 407.373 120.728C408.007 120.869 408.519 121.037 408.911 121.233C409.303 121.429 409.592 121.666 409.779 121.944C409.971 122.218 410.066 122.553 410.066 122.949C410.066 123.61 409.802 124.141 409.273 124.542C408.745 124.938 408.059 125.137 407.216 125.137C406.623 125.137 406.099 125.032 405.644 124.822C405.188 124.613 404.83 124.321 404.57 123.947C404.315 123.569 404.188 123.161 404.188 122.724H405.452C405.475 123.147 405.644 123.485 405.958 123.735C406.277 123.981 406.696 124.104 407.216 124.104C407.694 124.104 408.077 124.009 408.364 123.817C408.656 123.621 408.802 123.362 408.802 123.038Z" fill="#666666"/>
<path d="M371.522 145C371.425 144.81 371.354 144.573 371.31 144.29C370.797 144.861 370.131 145.146 369.311 145.146C368.534 145.146 367.89 144.922 367.377 144.473C366.869 144.023 366.615 143.457 366.615 142.773C366.615 141.934 366.925 141.289 367.545 140.84C368.17 140.391 369.071 140.164 370.248 140.159H371.222V139.705C371.222 139.338 371.127 139.045 370.937 138.826C370.751 138.606 370.456 138.496 370.05 138.496C369.694 138.496 369.413 138.582 369.208 138.752C369.008 138.923 368.908 139.158 368.908 139.456H366.791C366.791 138.997 366.933 138.572 367.216 138.181C367.499 137.791 367.899 137.485 368.417 137.266C368.935 137.041 369.516 136.929 370.16 136.929C371.137 136.929 371.911 137.175 372.482 137.668C373.058 138.157 373.346 138.845 373.346 139.734V143.169C373.351 143.921 373.456 144.49 373.661 144.875V145H371.522ZM369.772 143.528C370.084 143.528 370.373 143.459 370.636 143.323C370.9 143.181 371.095 142.993 371.222 142.759V141.396H370.431C369.372 141.396 368.808 141.763 368.739 142.495L368.732 142.62C368.732 142.883 368.825 143.101 369.01 143.271C369.196 143.442 369.45 143.528 369.772 143.528ZM379.718 144.194C379.196 144.829 378.473 145.146 377.55 145.146C376.701 145.146 376.051 144.902 375.602 144.414C375.158 143.926 374.931 143.21 374.921 142.268V137.075H377.038V142.195C377.038 143.02 377.414 143.433 378.166 143.433C378.883 143.433 379.376 143.184 379.645 142.686V137.075H381.769V145H379.777L379.718 144.194ZM385.9 135.127V137.075H387.255V138.628H385.9V142.583C385.9 142.876 385.956 143.086 386.068 143.213C386.181 143.34 386.396 143.403 386.713 143.403C386.947 143.403 387.155 143.386 387.335 143.352V144.956C386.92 145.083 386.493 145.146 386.054 145.146C384.569 145.146 383.812 144.397 383.783 142.898V138.628H382.626V137.075H383.783V135.127H385.9ZM387.885 140.964C387.885 140.178 388.036 139.478 388.339 138.862C388.642 138.247 389.076 137.771 389.643 137.434C390.214 137.097 390.875 136.929 391.627 136.929C392.697 136.929 393.568 137.256 394.242 137.91C394.921 138.564 395.299 139.453 395.377 140.576L395.392 141.118C395.392 142.334 395.053 143.311 394.374 144.048C393.695 144.78 392.785 145.146 391.642 145.146C390.5 145.146 389.586 144.78 388.903 144.048C388.224 143.315 387.885 142.319 387.885 141.06V140.964ZM390.001 141.118C390.001 141.87 390.143 142.446 390.426 142.847C390.709 143.242 391.115 143.44 391.642 143.44C392.155 143.44 392.555 143.245 392.843 142.854C393.131 142.458 393.275 141.829 393.275 140.964C393.275 140.227 393.131 139.656 392.843 139.25C392.555 138.845 392.15 138.643 391.627 138.643C391.11 138.643 390.709 138.845 390.426 139.25C390.143 139.651 390.001 140.273 390.001 141.118Z" fill="#1E73FF"/>
<path d="M435.821 115.573C435.256 115.482 434.8 115.437 434.454 115.437C433.543 115.437 433.087 115.915 433.087 116.872V117.604H434.666V118.581H433.087V125H431.822V118.581H430.653V117.604H431.822V116.797C431.827 116.008 432.048 115.405 432.485 114.985C432.923 114.566 433.545 114.356 434.352 114.356C434.812 114.356 435.723 114.495 437.086 114.773V125H435.821V115.573ZM442.227 125.137C441.224 125.137 440.408 124.809 439.779 124.152C439.15 123.492 438.836 122.61 438.836 121.507V121.274C438.836 120.541 438.975 119.887 439.253 119.312C439.535 118.734 439.927 118.283 440.429 117.959C440.935 117.631 441.481 117.467 442.069 117.467C443.031 117.467 443.778 117.784 444.312 118.417C444.845 119.05 445.111 119.957 445.111 121.138V121.664H440.101C440.119 122.393 440.331 122.983 440.736 123.435C441.146 123.881 441.666 124.104 442.295 124.104C442.742 124.104 443.12 124.013 443.43 123.831C443.74 123.649 444.011 123.407 444.243 123.106L445.016 123.708C444.396 124.66 443.466 125.137 442.227 125.137ZM442.069 118.506C441.559 118.506 441.131 118.693 440.784 119.066C440.438 119.436 440.224 119.955 440.142 120.625H443.847V120.529C443.81 119.887 443.637 119.39 443.327 119.039C443.017 118.684 442.598 118.506 442.069 118.506ZM449.062 120.304L450.703 117.604H452.18L449.76 121.261L452.255 125H450.792L449.083 122.231L447.374 125H445.904L448.399 121.261L445.979 117.604H447.442L449.062 120.304ZM456.158 121.288H452.822V120.256H456.158V121.288ZM463.657 121.384C463.657 122.514 463.397 123.423 462.878 124.111C462.358 124.795 461.661 125.137 460.786 125.137C459.852 125.137 459.13 124.806 458.619 124.146L458.558 125H457.396V114.5H458.66V118.417C459.171 117.784 459.875 117.467 460.772 117.467C461.67 117.467 462.374 117.806 462.885 118.485C463.4 119.164 463.657 120.094 463.657 121.274V121.384ZM462.393 121.24C462.393 120.379 462.226 119.714 461.894 119.244C461.561 118.775 461.082 118.54 460.458 118.54C459.624 118.54 459.025 118.927 458.66 119.702V122.901C459.048 123.676 459.651 124.063 460.472 124.063C461.078 124.063 461.549 123.829 461.887 123.359C462.224 122.89 462.393 122.184 462.393 121.24ZM469.823 125C469.75 124.854 469.691 124.594 469.646 124.221C469.058 124.831 468.356 125.137 467.54 125.137C466.811 125.137 466.212 124.932 465.742 124.521C465.277 124.107 465.045 123.583 465.045 122.949C465.045 122.179 465.337 121.582 465.92 121.158C466.508 120.73 467.333 120.516 468.395 120.516H469.625V119.935C469.625 119.493 469.493 119.142 469.229 118.882C468.964 118.618 468.575 118.485 468.06 118.485C467.608 118.485 467.23 118.599 466.925 118.827C466.619 119.055 466.467 119.331 466.467 119.654H465.195C465.195 119.285 465.325 118.93 465.585 118.588C465.849 118.242 466.205 117.968 466.651 117.768C467.103 117.567 467.597 117.467 468.135 117.467C468.987 117.467 469.655 117.681 470.138 118.109C470.621 118.533 470.871 119.119 470.89 119.866V123.271C470.89 123.95 470.976 124.49 471.149 124.891V125H469.823ZM467.725 124.036C468.121 124.036 468.497 123.934 468.853 123.729C469.208 123.523 469.465 123.257 469.625 122.929V121.411H468.634C467.084 121.411 466.31 121.865 466.31 122.771C466.31 123.168 466.442 123.478 466.706 123.701C466.97 123.924 467.31 124.036 467.725 124.036ZM477.179 123.038C477.179 122.696 477.049 122.432 476.789 122.245C476.534 122.054 476.085 121.89 475.442 121.753C474.804 121.616 474.296 121.452 473.918 121.261C473.544 121.069 473.266 120.841 473.084 120.577C472.906 120.313 472.817 119.998 472.817 119.634C472.817 119.028 473.073 118.515 473.583 118.096C474.098 117.676 474.754 117.467 475.552 117.467C476.39 117.467 477.069 117.683 477.589 118.116C478.113 118.549 478.375 119.103 478.375 119.777H477.104C477.104 119.431 476.955 119.132 476.659 118.882C476.368 118.631 475.998 118.506 475.552 118.506C475.091 118.506 474.731 118.606 474.472 118.807C474.212 119.007 474.082 119.269 474.082 119.593C474.082 119.898 474.203 120.128 474.444 120.283C474.686 120.438 475.121 120.586 475.75 120.728C476.383 120.869 476.896 121.037 477.288 121.233C477.68 121.429 477.969 121.666 478.156 121.944C478.348 122.218 478.443 122.553 478.443 122.949C478.443 123.61 478.179 124.141 477.65 124.542C477.122 124.938 476.436 125.137 475.593 125.137C475 125.137 474.476 125.032 474.021 124.822C473.565 124.613 473.207 124.321 472.947 123.947C472.692 123.569 472.564 123.161 472.564 122.724H473.829C473.852 123.147 474.021 123.485 474.335 123.735C474.654 123.981 475.073 124.104 475.593 124.104C476.071 124.104 476.454 124.009 476.741 123.817C477.033 123.621 477.179 123.362 477.179 123.038ZM481.465 125H480.2V117.604H481.465V125ZM480.098 115.642C480.098 115.437 480.159 115.263 480.282 115.122C480.41 114.981 480.597 114.91 480.843 114.91C481.089 114.91 481.276 114.981 481.403 115.122C481.531 115.263 481.595 115.437 481.595 115.642C481.595 115.847 481.531 116.018 481.403 116.154C481.276 116.291 481.089 116.359 480.843 116.359C480.597 116.359 480.41 116.291 480.282 116.154C480.159 116.018 480.098 115.847 480.098 115.642ZM487.802 123.038C487.802 122.696 487.672 122.432 487.412 122.245C487.157 122.054 486.708 121.89 486.065 121.753C485.427 121.616 484.919 121.452 484.541 121.261C484.167 121.069 483.889 120.841 483.707 120.577C483.529 120.313 483.44 119.998 483.44 119.634C483.44 119.028 483.696 118.515 484.206 118.096C484.721 117.676 485.377 117.467 486.175 117.467C487.013 117.467 487.692 117.683 488.212 118.116C488.736 118.549 488.998 119.103 488.998 119.777H487.727C487.727 119.431 487.578 119.132 487.282 118.882C486.991 118.631 486.621 118.506 486.175 118.506C485.715 118.506 485.354 118.606 485.095 118.807C484.835 119.007 484.705 119.269 484.705 119.593C484.705 119.898 484.826 120.128 485.067 120.283C485.309 120.438 485.744 120.586 486.373 120.728C487.007 120.869 487.519 121.037 487.911 121.233C488.303 121.429 488.592 121.666 488.779 121.944C488.971 122.218 489.066 122.553 489.066 122.949C489.066 123.61 488.802 124.141 488.273 124.542C487.745 124.938 487.059 125.137 486.216 125.137C485.623 125.137 485.099 125.032 484.644 124.822C484.188 124.613 483.83 124.321 483.57 123.947C483.315 123.569 483.188 123.161 483.188 122.724H484.452C484.475 123.147 484.644 123.485 484.958 123.735C485.277 123.981 485.696 124.104 486.216 124.104C486.694 124.104 487.077 124.009 487.364 123.817C487.656 123.621 487.802 123.362 487.802 123.038Z" fill="#666666"/>
<path d="M450.522 145C450.425 144.81 450.354 144.573 450.31 144.29C449.797 144.861 449.131 145.146 448.311 145.146C447.534 145.146 446.89 144.922 446.377 144.473C445.869 144.023 445.615 143.457 445.615 142.773C445.615 141.934 445.925 141.289 446.545 140.84C447.17 140.391 448.071 140.164 449.248 140.159H450.222V139.705C450.222 139.338 450.127 139.045 449.937 138.826C449.751 138.606 449.456 138.496 449.05 138.496C448.694 138.496 448.413 138.582 448.208 138.752C448.008 138.923 447.908 139.158 447.908 139.456H445.791C445.791 138.997 445.933 138.572 446.216 138.181C446.499 137.791 446.899 137.485 447.417 137.266C447.935 137.041 448.516 136.929 449.16 136.929C450.137 136.929 450.911 137.175 451.482 137.668C452.058 138.157 452.346 138.845 452.346 139.734V143.169C452.351 143.921 452.456 144.49 452.661 144.875V145H450.522ZM448.772 143.528C449.084 143.528 449.373 143.459 449.636 143.323C449.9 143.181 450.095 142.993 450.222 142.759V141.396H449.431C448.372 141.396 447.808 141.763 447.739 142.495L447.732 142.62C447.732 142.883 447.825 143.101 448.01 143.271C448.196 143.442 448.45 143.528 448.772 143.528ZM458.718 144.194C458.196 144.829 457.473 145.146 456.55 145.146C455.701 145.146 455.051 144.902 454.602 144.414C454.158 143.926 453.931 143.21 453.921 142.268V137.075H456.038V142.195C456.038 143.02 456.414 143.433 457.166 143.433C457.883 143.433 458.376 143.184 458.645 142.686V137.075H460.769V145H458.777L458.718 144.194ZM464.9 135.127V137.075H466.255V138.628H464.9V142.583C464.9 142.876 464.956 143.086 465.068 143.213C465.181 143.34 465.396 143.403 465.713 143.403C465.947 143.403 466.155 143.386 466.335 143.352V144.956C465.92 145.083 465.493 145.146 465.054 145.146C463.569 145.146 462.812 144.397 462.783 142.898V138.628H461.626V137.075H462.783V135.127H464.9ZM466.885 140.964C466.885 140.178 467.036 139.478 467.339 138.862C467.642 138.247 468.076 137.771 468.643 137.434C469.214 137.097 469.875 136.929 470.627 136.929C471.697 136.929 472.568 137.256 473.242 137.91C473.921 138.564 474.299 139.453 474.377 140.576L474.392 141.118C474.392 142.334 474.053 143.311 473.374 144.048C472.695 144.78 471.785 145.146 470.642 145.146C469.5 145.146 468.586 144.78 467.903 144.048C467.224 143.315 466.885 142.319 466.885 141.06V140.964ZM469.001 141.118C469.001 141.87 469.143 142.446 469.426 142.847C469.709 143.242 470.115 143.44 470.642 143.44C471.155 143.44 471.555 143.245 471.843 142.854C472.131 142.458 472.275 141.829 472.275 140.964C472.275 140.227 472.131 139.656 471.843 139.25C471.555 138.845 471.15 138.643 470.627 138.643C470.11 138.643 469.709 138.845 469.426 139.25C469.143 139.651 469.001 140.273 469.001 141.118Z" fill="#1E73FF"/>
</svg>
