<svg width="586" height="152" viewBox="0 0 586 152" fill="none" xmlns="http://www.w3.org/2000/svg">
<rect x="1" y="1" width="584" height="150" rx="9" fill="#7187FB" stroke="#001EBB" stroke-width="2"/>
<g filter="url(#filter0_d)">
<rect x="20" y="20" width="72" height="50" rx="6" fill="#FFF000"/>
<rect x="21" y="21" width="70" height="48" rx="5" stroke="#001EBB" stroke-width="2"/>
</g>
<path d="M58.126 51.5H55.999V41.2256L52.8613 42.2979V40.4961L57.8535 38.6592H58.126V51.5Z" fill="#001EBB"/>
<g filter="url(#filter1_d)">
<rect x="104" y="20" width="210" height="50" rx="6" fill="#FFF000"/>
<rect x="105" y="21" width="208" height="48" rx="5" stroke="#001EBB" stroke-width="2"/>
</g>
<path d="M213.947 51.5H205.343V50.0322L209.605 45.3828C210.221 44.6973 210.657 44.126 210.915 43.6689C211.179 43.2061 211.311 42.7432 211.311 42.2803C211.311 41.6709 211.138 41.1787 210.792 40.8037C210.452 40.4287 209.992 40.2412 209.412 40.2412C208.721 40.2412 208.185 40.4521 207.804 40.874C207.423 41.2959 207.232 41.873 207.232 42.6055H205.097C205.097 41.8262 205.272 41.126 205.624 40.5049C205.981 39.8779 206.488 39.3916 207.145 39.0459C207.807 38.7002 208.568 38.5273 209.43 38.5273C210.672 38.5273 211.65 38.8408 212.365 39.4678C213.086 40.0889 213.446 40.9502 213.446 42.0518C213.446 42.6904 213.265 43.3613 212.901 44.0645C212.544 44.7617 211.955 45.5557 211.135 46.4463L208.006 49.7949H213.947V51.5Z" fill="#001EBB"/>
<g filter="url(#filter2_d)">
<rect x="326" y="20" width="72" height="50" rx="6" fill="#FFF000"/>
<rect x="327" y="21" width="70" height="48" rx="5" stroke="#001EBB" stroke-width="2"/>
</g>
<path d="M360.812 44.126H362.113C362.77 44.1201 363.288 43.9502 363.669 43.6162C364.056 43.2822 364.249 42.7988 364.249 42.166C364.249 41.5566 364.088 41.085 363.766 40.751C363.449 40.4111 362.963 40.2412 362.307 40.2412C361.732 40.2412 361.261 40.4082 360.892 40.7422C360.522 41.0703 360.338 41.501 360.338 42.0342H358.202C358.202 41.3779 358.375 40.7803 358.721 40.2412C359.072 39.7021 359.559 39.2832 360.18 38.9844C360.807 38.6797 361.507 38.5273 362.28 38.5273C363.558 38.5273 364.56 38.8496 365.286 39.4941C366.019 40.1328 366.385 41.0234 366.385 42.166C366.385 42.7402 366.2 43.2822 365.831 43.792C365.468 44.2959 364.996 44.6768 364.416 44.9346C365.119 45.1748 365.652 45.5527 366.016 46.0684C366.385 46.584 366.569 47.1992 366.569 47.9141C366.569 49.0625 366.174 49.9766 365.383 50.6562C364.598 51.3359 363.563 51.6758 362.28 51.6758C361.05 51.6758 360.042 51.3477 359.257 50.6914C358.472 50.0352 358.079 49.1621 358.079 48.0723H360.215C360.215 48.6348 360.402 49.0918 360.777 49.4434C361.158 49.7949 361.668 49.9707 362.307 49.9707C362.969 49.9707 363.49 49.7949 363.871 49.4434C364.252 49.0918 364.442 48.582 364.442 47.9141C364.442 47.2402 364.243 46.7217 363.845 46.3584C363.446 45.9951 362.854 45.8135 362.069 45.8135H360.812V44.126Z" fill="#001EBB"/>
<g filter="url(#filter3_d)">
<rect x="410" y="20" width="72" height="50" rx="6" fill="#FFF000"/>
<rect x="411" y="21" width="70" height="48" rx="5" stroke="#001EBB" stroke-width="2"/>
</g>
<path d="M449.567 46.9385H451.158V48.6523H449.567V51.5H447.432V48.6523H441.903L441.842 47.3516L447.361 38.7031H449.567V46.9385ZM444.083 46.9385H447.432V41.5947L447.273 41.876L444.083 46.9385Z" fill="#001EBB"/>
<g filter="url(#filter4_d)">
<rect x="494" y="20" width="72" height="50" rx="6" fill="#FFF000"/>
<rect x="495" y="21" width="70" height="48" rx="5" stroke="#001EBB" stroke-width="2"/>
</g>
<path d="M526.914 45.1543L527.608 38.7031H534.481V40.5488H529.384L529.032 43.6074C529.624 43.2676 530.292 43.0977 531.036 43.0977C532.255 43.0977 533.201 43.4873 533.875 44.2666C534.555 45.0459 534.895 46.0947 534.895 47.4131C534.895 48.7139 534.52 49.751 533.77 50.5244C533.02 51.292 531.991 51.6758 530.685 51.6758C529.513 51.6758 528.54 51.3447 527.767 50.6826C526.999 50.0146 526.583 49.1357 526.519 48.0459H528.584C528.666 48.667 528.889 49.1445 529.252 49.4785C529.615 49.8066 530.09 49.9707 530.676 49.9707C531.332 49.9707 531.842 49.7363 532.205 49.2676C532.574 48.7988 532.759 48.1602 532.759 47.3516C532.759 46.5723 532.557 45.957 532.152 45.5059C531.748 45.0488 531.191 44.8203 530.482 44.8203C530.096 44.8203 529.768 44.873 529.498 44.9785C529.229 45.0781 528.936 45.2773 528.619 45.5762L526.914 45.1543Z" fill="#001EBB"/>
<path d="M180.244 94.3906C179.824 94.3418 179.433 94.3174 179.072 94.3174C178.115 94.3174 177.636 94.7251 177.636 95.5405V96.0752H179.211V97.6279H177.636V104H175.512V97.6279H174.333V96.0752H175.512V95.46C175.522 94.542 175.81 93.8364 176.376 93.3433C176.943 92.8452 177.744 92.5962 178.779 92.5962C179.516 92.5962 180.712 92.6743 182.368 92.8306V104H180.244V94.3906ZM187.78 104.146C186.618 104.146 185.671 103.79 184.938 103.077C184.211 102.364 183.847 101.415 183.847 100.228V100.023C183.847 99.2271 184.001 98.5166 184.309 97.8916C184.616 97.2617 185.051 96.7783 185.612 96.4414C186.179 96.0996 186.823 95.9287 187.546 95.9287C188.63 95.9287 189.482 96.2705 190.102 96.9541C190.727 97.6377 191.04 98.6069 191.04 99.8618V100.726H185.993C186.062 101.244 186.267 101.659 186.608 101.971C186.955 102.284 187.392 102.44 187.919 102.44C188.735 102.44 189.372 102.145 189.831 101.554L190.871 102.718C190.554 103.167 190.124 103.519 189.582 103.773C189.04 104.022 188.439 104.146 187.78 104.146ZM187.539 97.6426C187.119 97.6426 186.777 97.7842 186.513 98.0674C186.254 98.3506 186.088 98.7559 186.015 99.2832H188.959V99.1147C188.95 98.646 188.823 98.2847 188.579 98.0308C188.334 97.772 187.988 97.6426 187.539 97.6426ZM195.266 98.4409L196.599 96.0752H198.862L196.606 99.957L198.957 104H196.687L195.273 101.51L193.867 104H191.589L193.94 99.957L191.691 96.0752H193.962L195.266 98.4409ZM203.996 100.287H199.873V98.5801H203.996V100.287ZM209.987 101.81C209.987 101.551 209.858 101.349 209.599 101.202C209.345 101.051 208.935 100.917 208.369 100.799C206.484 100.404 205.542 99.603 205.542 98.397C205.542 97.6938 205.832 97.1079 206.413 96.6392C206.999 96.1655 207.763 95.9287 208.706 95.9287C209.711 95.9287 210.515 96.1655 211.115 96.6392C211.721 97.1128 212.023 97.728 212.023 98.4849H209.907C209.907 98.1821 209.809 97.9331 209.614 97.7378C209.418 97.5376 209.113 97.4375 208.698 97.4375C208.342 97.4375 208.066 97.5181 207.871 97.6792C207.675 97.8403 207.578 98.0454 207.578 98.2944C207.578 98.5288 207.688 98.7192 207.907 98.8657C208.132 99.0073 208.508 99.1318 209.035 99.2393C209.562 99.3418 210.007 99.459 210.368 99.5908C211.486 100.001 212.045 100.711 212.045 101.722C212.045 102.445 211.735 103.031 211.115 103.48C210.495 103.924 209.694 104.146 208.713 104.146C208.049 104.146 207.458 104.029 206.94 103.795C206.428 103.556 206.025 103.231 205.732 102.821C205.439 102.406 205.292 101.959 205.292 101.48H207.299C207.319 101.856 207.458 102.145 207.717 102.345C207.976 102.545 208.322 102.645 208.757 102.645C209.162 102.645 209.467 102.569 209.672 102.418C209.882 102.262 209.987 102.059 209.987 101.81ZM215.48 96.9395C216.042 96.2656 216.748 95.9287 217.597 95.9287C219.316 95.9287 220.188 96.9272 220.212 98.9243V104H218.095V98.9829C218.095 98.5288 217.998 98.1943 217.802 97.9795C217.607 97.7598 217.282 97.6499 216.828 97.6499C216.208 97.6499 215.759 97.8892 215.48 98.3677V104H213.364V92.75H215.48V96.9395ZM226.262 98.0601C225.974 98.021 225.72 98.0015 225.5 98.0015C224.699 98.0015 224.174 98.2725 223.925 98.8145V104H221.809V96.0752H223.808L223.867 97.02C224.292 96.2925 224.88 95.9287 225.632 95.9287C225.866 95.9287 226.086 95.9604 226.291 96.0239L226.262 98.0601ZM229.521 104H227.397V96.0752H229.521V104ZM227.272 94.0244C227.272 93.707 227.377 93.4458 227.587 93.2407C227.802 93.0356 228.093 92.9331 228.459 92.9331C228.82 92.9331 229.108 93.0356 229.323 93.2407C229.538 93.4458 229.646 93.707 229.646 94.0244C229.646 94.3467 229.536 94.6104 229.316 94.8154C229.101 95.0205 228.815 95.123 228.459 95.123C228.103 95.123 227.814 95.0205 227.595 94.8154C227.38 94.6104 227.272 94.3467 227.272 94.0244ZM233.22 96.0752L233.286 96.9907C233.852 96.2827 234.611 95.9287 235.563 95.9287C236.403 95.9287 237.028 96.1753 237.438 96.6685C237.849 97.1616 238.059 97.8989 238.068 98.8804V104H235.952V98.9316C235.952 98.4824 235.854 98.1577 235.659 97.9575C235.463 97.7524 235.139 97.6499 234.685 97.6499C234.089 97.6499 233.642 97.9038 233.344 98.4116V104H231.228V96.0752H233.22ZM242.558 100.821L241.796 101.583V104H239.68V92.75H241.796V98.9829L242.207 98.4556L244.235 96.0752H246.777L243.913 99.3784L247.026 104H244.594L242.558 100.821Z" fill="white"/>
<path d="M215.295 122.121C215.295 124.087 214.888 125.591 214.074 126.633C213.26 127.674 212.069 128.195 210.5 128.195C208.951 128.195 207.766 127.684 206.945 126.662C206.125 125.64 205.705 124.175 205.686 122.268V119.65C205.686 117.665 206.096 116.158 206.916 115.129C207.743 114.1 208.931 113.586 210.48 113.586C212.03 113.586 213.215 114.097 214.035 115.119C214.855 116.135 215.275 117.596 215.295 119.504V122.121ZM212.473 119.25C212.473 118.072 212.31 117.215 211.984 116.682C211.665 116.141 211.164 115.871 210.48 115.871C209.816 115.871 209.325 116.128 209.006 116.643C208.693 117.15 208.527 117.948 208.508 119.035V122.492C208.508 123.651 208.664 124.514 208.977 125.08C209.296 125.64 209.803 125.92 210.5 125.92C211.19 125.92 211.688 125.65 211.994 125.109C212.3 124.569 212.46 123.742 212.473 122.629V119.25Z" fill="#FFF000"/>
<path d="M99 80V140" stroke="white" stroke-dasharray="4 2"/>
<path d="M320 80V140" stroke="white" stroke-dasharray="4 2"/>
<path d="M405 83V143" stroke="white" stroke-dasharray="4 2"/>
<path d="M489 80V140" stroke="white" stroke-dasharray="4 2"/>
<defs>
<filter id="filter0_d" x="20" y="20" width="78" height="56" filterUnits="userSpaceOnUse" color-interpolation-filters="sRGB">
<feFlood flood-opacity="0" result="BackgroundImageFix"/>
<feColorMatrix in="SourceAlpha" type="matrix" values="0 0 0 0 0 0 0 0 0 0 0 0 0 0 0 0 0 0 127 0"/>
<feOffset dx="6" dy="6"/>
<feColorMatrix type="matrix" values="0 0 0 0 0 0 0 0 0 0 0 0 0 0 0 0 0 0 0.15 0"/>
<feBlend mode="normal" in2="BackgroundImageFix" result="effect1_dropShadow"/>
<feBlend mode="normal" in="SourceGraphic" in2="effect1_dropShadow" result="shape"/>
</filter>
<filter id="filter1_d" x="104" y="20" width="216" height="56" filterUnits="userSpaceOnUse" color-interpolation-filters="sRGB">
<feFlood flood-opacity="0" result="BackgroundImageFix"/>
<feColorMatrix in="SourceAlpha" type="matrix" values="0 0 0 0 0 0 0 0 0 0 0 0 0 0 0 0 0 0 127 0"/>
<feOffset dx="6" dy="6"/>
<feColorMatrix type="matrix" values="0 0 0 0 0 0 0 0 0 0 0 0 0 0 0 0 0 0 0.15 0"/>
<feBlend mode="normal" in2="BackgroundImageFix" result="effect1_dropShadow"/>
<feBlend mode="normal" in="SourceGraphic" in2="effect1_dropShadow" result="shape"/>
</filter>
<filter id="filter2_d" x="326" y="20" width="78" height="56" filterUnits="userSpaceOnUse" color-interpolation-filters="sRGB">
<feFlood flood-opacity="0" result="BackgroundImageFix"/>
<feColorMatrix in="SourceAlpha" type="matrix" values="0 0 0 0 0 0 0 0 0 0 0 0 0 0 0 0 0 0 127 0"/>
<feOffset dx="6" dy="6"/>
<feColorMatrix type="matrix" values="0 0 0 0 0 0 0 0 0 0 0 0 0 0 0 0 0 0 0.15 0"/>
<feBlend mode="normal" in2="BackgroundImageFix" result="effect1_dropShadow"/>
<feBlend mode="normal" in="SourceGraphic" in2="effect1_dropShadow" result="shape"/>
</filter>
<filter id="filter3_d" x="410" y="20" width="78" height="56" filterUnits="userSpaceOnUse" color-interpolation-filters="sRGB">
<feFlood flood-opacity="0" result="BackgroundImageFix"/>
<feColorMatrix in="SourceAlpha" type="matrix" values="0 0 0 0 0 0 0 0 0 0 0 0 0 0 0 0 0 0 127 0"/>
<feOffset dx="6" dy="6"/>
<feColorMatrix type="matrix" values="0 0 0 0 0 0 0 0 0 0 0 0 0 0 0 0 0 0 0.15 0"/>
<feBlend mode="normal" in2="BackgroundImageFix" result="effect1_dropShadow"/>
<feBlend mode="normal" in="SourceGraphic" in2="effect1_dropShadow" result="shape"/>
</filter>
<filter id="filter4_d" x="494" y="20" width="78" height="56" filterUnits="userSpaceOnUse" color-interpolation-filters="sRGB">
<feFlood flood-opacity="0" result="BackgroundImageFix"/>
<feColorMatrix in="SourceAlpha" type="matrix" values="0 0 0 0 0 0 0 0 0 0 0 0 0 0 0 0 0 0 127 0"/>
<feOffset dx="6" dy="6"/>
<feColorMatrix type="matrix" values="0 0 0 0 0 0 0 0 0 0 0 0 0 0 0 0 0 0 0.15 0"/>
<feBlend mode="normal" in2="BackgroundImageFix" result="effect1_dropShadow"/>
<feBlend mode="normal" in="SourceGraphic" in2="effect1_dropShadow" result="shape"/>
</filter>
</defs>
</svg>
