<svg width="400" height="168" viewBox="0 0 400 168" fill="none" xmlns="http://www.w3.org/2000/svg">
<rect x="1" y="29" width="398" height="138" rx="5" fill="#F7F7F7" stroke="#1E73FF" stroke-width="2" stroke-dasharray="6 4"/>
<path d="M5.63965 4.81934C5.1748 4.75553 4.77376 4.72363 4.43652 4.72363C3.54329 4.72363 3.09668 5.1429 3.09668 5.98145V6.60352H4.60059V7.83398H3.09668V14H1.43555V7.83398H0.307617V6.60352H1.43555V5.94043C1.4401 5.10645 1.6862 4.46842 2.17383 4.02637C2.66602 3.57975 3.35872 3.35645 4.25195 3.35645C4.80794 3.35645 5.82422 3.46582 7.30078 3.68457V14H5.63965V4.81934ZM12.3936 14.1367C11.3408 14.1367 10.4863 13.8063 9.83008 13.1455C9.17839 12.4801 8.85254 11.596 8.85254 10.4932V10.2881C8.85254 9.5498 8.99382 8.89128 9.27637 8.3125C9.56348 7.72917 9.96452 7.27572 10.4795 6.95215C10.9945 6.62858 11.5687 6.4668 12.2021 6.4668C13.2093 6.4668 13.9863 6.78809 14.5332 7.43066C15.0846 8.07324 15.3604 8.98242 15.3604 10.1582V10.8281H10.5273C10.5775 11.4388 10.7803 11.9219 11.1357 12.2773C11.4958 12.6328 11.9469 12.8105 12.4893 12.8105C13.2503 12.8105 13.8701 12.5029 14.3486 11.8877L15.2441 12.7422C14.9479 13.1842 14.5514 13.5283 14.0547 13.7744C13.5625 14.016 13.0088 14.1367 12.3936 14.1367ZM12.1953 7.7998C11.7396 7.7998 11.3704 7.95931 11.0879 8.27832C10.8099 8.59733 10.6322 9.04167 10.5547 9.61133H13.7197V9.48828C13.6833 8.93229 13.5352 8.51302 13.2754 8.23047C13.0156 7.94336 12.6556 7.7998 12.1953 7.7998ZM19.3115 9.03711L20.7197 6.60352H22.5654L20.3027 10.2471L22.6406 14H20.8086L19.332 11.4707L17.8623 14H16.0166L18.3545 10.2471L16.0986 6.60352H17.9307L19.3115 9.03711ZM30.2217 12.8105C30.6364 12.8105 30.9805 12.6898 31.2539 12.4482C31.5273 12.2067 31.6732 11.9082 31.6914 11.5527H33.2568C33.2386 12.013 33.0951 12.4437 32.8262 12.8447C32.5573 13.2412 32.1927 13.5557 31.7324 13.7881C31.2721 14.0205 30.7754 14.1367 30.2422 14.1367C29.2077 14.1367 28.3874 13.8018 27.7812 13.1318C27.1751 12.4619 26.8721 11.5368 26.8721 10.3564V10.1855C26.8721 9.0599 27.1729 8.15983 27.7744 7.48535C28.376 6.80632 29.1963 6.4668 30.2354 6.4668C31.1149 6.4668 31.8304 6.72428 32.3818 7.23926C32.9378 7.74967 33.2295 8.42188 33.2568 9.25586H31.6914C31.6732 8.83203 31.5273 8.4834 31.2539 8.20996C30.985 7.93652 30.641 7.7998 30.2217 7.7998C29.6839 7.7998 29.2692 7.99577 28.9775 8.3877C28.6859 8.77507 28.5378 9.36523 28.5332 10.1582V10.4248C28.5332 11.2269 28.6768 11.8262 28.9639 12.2227C29.2555 12.6146 29.6748 12.8105 30.2217 12.8105ZM34.2002 10.2334C34.2002 9.50879 34.3438 8.8571 34.6309 8.27832C34.918 7.69499 35.3213 7.24837 35.8408 6.93848C36.3604 6.62402 36.9574 6.4668 37.6318 6.4668C38.6299 6.4668 39.4388 6.78809 40.0586 7.43066C40.6829 8.07324 41.0202 8.92546 41.0703 9.9873L41.0771 10.377C41.0771 11.1061 40.9359 11.7578 40.6533 12.332C40.3753 12.9062 39.9743 13.3506 39.4502 13.665C38.9307 13.9795 38.3291 14.1367 37.6455 14.1367C36.6019 14.1367 35.7656 13.7904 35.1367 13.0977C34.5124 12.4004 34.2002 11.473 34.2002 10.3154V10.2334ZM35.8613 10.377C35.8613 11.138 36.0186 11.735 36.333 12.168C36.6475 12.5964 37.085 12.8105 37.6455 12.8105C38.2061 12.8105 38.6413 12.5918 38.9512 12.1543C39.2656 11.7168 39.4229 11.0765 39.4229 10.2334C39.4229 9.486 39.2611 8.89355 38.9375 8.45605C38.6185 8.01855 38.1833 7.7998 37.6318 7.7998C37.0895 7.7998 36.6589 8.01628 36.3398 8.44922C36.0208 8.8776 35.8613 9.52018 35.8613 10.377ZM44.0234 6.60352L44.0713 7.45801C44.6182 6.7972 45.3359 6.4668 46.2246 6.4668C47.765 6.4668 48.5488 7.34863 48.5762 9.1123V14H46.915V9.20801C46.915 8.73861 46.8125 8.39225 46.6074 8.16895C46.4069 7.94108 46.0765 7.82715 45.6162 7.82715C44.9463 7.82715 44.4473 8.13021 44.1191 8.73633V14H42.458V6.60352H44.0234ZM52.3564 4.80566V6.60352H53.6621V7.83398H52.3564V11.9629C52.3564 12.2454 52.4111 12.4505 52.5205 12.5781C52.6344 12.7012 52.835 12.7627 53.1221 12.7627C53.3135 12.7627 53.5072 12.7399 53.7031 12.6943V13.9795C53.3249 14.0843 52.9603 14.1367 52.6094 14.1367C51.3333 14.1367 50.6953 13.4326 50.6953 12.0244V7.83398H49.4785V6.60352H50.6953V4.80566H52.3564ZM59.3564 14C59.2835 13.8587 59.2197 13.6286 59.165 13.3096C58.6364 13.861 57.9893 14.1367 57.2236 14.1367C56.4808 14.1367 55.8747 13.9248 55.4053 13.501C54.9359 13.0771 54.7012 12.5531 54.7012 11.9287C54.7012 11.1403 54.9928 10.5365 55.5762 10.1172C56.1641 9.69336 57.0026 9.48145 58.0918 9.48145H59.1104V8.99609C59.1104 8.61328 59.0033 8.30794 58.7891 8.08008C58.5749 7.84766 58.249 7.73145 57.8115 7.73145C57.4333 7.73145 57.1234 7.82715 56.8818 8.01855C56.6403 8.2054 56.5195 8.44466 56.5195 8.73633H54.8584C54.8584 8.33073 54.9928 7.95247 55.2617 7.60156C55.5306 7.24609 55.8952 6.9681 56.3555 6.76758C56.8203 6.56706 57.3376 6.4668 57.9072 6.4668C58.7731 6.4668 59.4635 6.68555 59.9785 7.12305C60.4935 7.55599 60.7578 8.16667 60.7715 8.95508V12.291C60.7715 12.9564 60.8649 13.4873 61.0518 13.8838V14H59.3564ZM57.5312 12.8037C57.8594 12.8037 58.167 12.724 58.4541 12.5645C58.7458 12.4049 58.9645 12.1908 59.1104 11.9219V10.5273H58.2148C57.5996 10.5273 57.137 10.6344 56.8271 10.8486C56.5173 11.0628 56.3623 11.3659 56.3623 11.7578C56.3623 12.0768 56.4671 12.332 56.6768 12.5234C56.891 12.7103 57.1758 12.8037 57.5312 12.8037ZM64.2783 14H62.6172V6.60352H64.2783V14ZM62.5146 4.68262C62.5146 4.42741 62.5944 4.21549 62.7539 4.04688C62.918 3.87826 63.1504 3.79395 63.4512 3.79395C63.752 3.79395 63.9844 3.87826 64.1484 4.04688C64.3125 4.21549 64.3945 4.42741 64.3945 4.68262C64.3945 4.93327 64.3125 5.1429 64.1484 5.31152C63.9844 5.47559 63.752 5.55762 63.4512 5.55762C63.1504 5.55762 62.918 5.47559 62.7539 5.31152C62.5944 5.1429 62.5146 4.93327 62.5146 4.68262ZM67.6348 6.60352L67.6826 7.45801C68.2295 6.7972 68.9473 6.4668 69.8359 6.4668C71.3763 6.4668 72.1602 7.34863 72.1875 9.1123V14H70.5264V9.20801C70.5264 8.73861 70.4238 8.39225 70.2188 8.16895C70.0182 7.94108 69.6878 7.82715 69.2275 7.82715C68.5576 7.82715 68.0586 8.13021 67.7305 8.73633V14H66.0693V6.60352H67.6348ZM77.1436 14.1367C76.0908 14.1367 75.2363 13.8063 74.5801 13.1455C73.9284 12.4801 73.6025 11.596 73.6025 10.4932V10.2881C73.6025 9.5498 73.7438 8.89128 74.0264 8.3125C74.3135 7.72917 74.7145 7.27572 75.2295 6.95215C75.7445 6.62858 76.3187 6.4668 76.9521 6.4668C77.9593 6.4668 78.7363 6.78809 79.2832 7.43066C79.8346 8.07324 80.1104 8.98242 80.1104 10.1582V10.8281H75.2773C75.3275 11.4388 75.5303 11.9219 75.8857 12.2773C76.2458 12.6328 76.6969 12.8105 77.2393 12.8105C78.0003 12.8105 78.6201 12.5029 79.0986 11.8877L79.9941 12.7422C79.6979 13.1842 79.3014 13.5283 78.8047 13.7744C78.3125 14.016 77.7588 14.1367 77.1436 14.1367ZM76.9453 7.7998C76.4896 7.7998 76.1204 7.95931 75.8379 8.27832C75.5599 8.59733 75.3822 9.04167 75.3047 9.61133H78.4697V9.48828C78.4333 8.93229 78.2852 8.51302 78.0254 8.23047C77.7656 7.94336 77.4056 7.7998 76.9453 7.7998ZM85.2783 8.12109C85.0596 8.08464 84.834 8.06641 84.6016 8.06641C83.8405 8.06641 83.3278 8.35807 83.0635 8.94141V14H81.4023V6.60352H82.9883L83.0293 7.43066C83.4303 6.78809 83.9863 6.4668 84.6973 6.4668C84.9342 6.4668 85.1302 6.4987 85.2852 6.5625L85.2783 8.12109Z" fill="#1E73FF"/>
<g opacity="0.7">
<g opacity="0.8">
<path d="M10 41C10 39.3431 11.3431 38 13 38H87C88.6569 38 90 39.3431 90 41V115C90 116.657 88.6569 118 87 118H13C11.3431 118 10 116.657 10 115V41Z" fill="#1E73FF"/>
<path d="M43.8037 63.2302C43.3057 63.1619 42.876 63.1277 42.5146 63.1277C41.5576 63.1277 41.0791 63.5769 41.0791 64.4753V65.1418H42.6904V66.4602H41.0791V73.0667H39.2993V66.4602H38.0908V65.1418H39.2993V64.4314C39.3042 63.5378 39.5679 62.8542 40.0903 62.3806C40.6177 61.9021 41.3599 61.6628 42.3169 61.6628C42.9126 61.6628 44.0015 61.78 45.5835 62.0144V73.0667H43.8037V63.2302ZM51.04 73.2131C49.9121 73.2131 48.9966 72.8591 48.2935 72.1511C47.5952 71.4382 47.2461 70.491 47.2461 69.3093V69.0896C47.2461 68.2986 47.3975 67.593 47.7002 66.9729C48.0078 66.3479 48.4375 65.8621 48.9893 65.5154C49.541 65.1687 50.1562 64.9954 50.835 64.9954C51.9141 64.9954 52.7466 65.3396 53.3325 66.0281C53.9233 66.7166 54.2188 67.6907 54.2188 68.9504V69.6682H49.0405C49.0942 70.3225 49.3115 70.8401 49.6924 71.2209C50.0781 71.6018 50.5615 71.7922 51.1426 71.7922C51.958 71.7922 52.6221 71.4626 53.1348 70.8035L54.0942 71.719C53.7769 72.1926 53.3521 72.5613 52.8198 72.825C52.2925 73.0837 51.6992 73.2131 51.04 73.2131ZM50.8276 66.4236C50.3394 66.4236 49.9438 66.5945 49.6411 66.9363C49.3433 67.2781 49.1528 67.7542 49.0698 68.3645H52.4609V68.2327C52.4219 67.637 52.2632 67.1877 51.9849 66.885C51.7065 66.5774 51.3208 66.4236 50.8276 66.4236ZM58.4521 67.7493L59.9609 65.1418H61.9385L59.5142 69.0457L62.019 73.0667H60.0562L58.4741 70.3567L56.8994 73.0667H54.9219L57.4268 69.0457L55.0098 65.1418H56.9727L58.4521 67.7493ZM37.8345 91.0667H36.0547V83.1418H37.8345V91.0667ZM35.9448 81.0837C35.9448 80.8103 36.0303 80.5833 36.2012 80.4026C36.377 80.2219 36.626 80.1316 36.9482 80.1316C37.2705 80.1316 37.5195 80.2219 37.6953 80.4026C37.8711 80.5833 37.959 80.8103 37.959 81.0837C37.959 81.3523 37.8711 81.5769 37.6953 81.7576C37.5195 81.9333 37.2705 82.0212 36.9482 82.0212C36.626 82.0212 36.377 81.9333 36.2012 81.7576C36.0303 81.5769 35.9448 81.3523 35.9448 81.0837ZM42.0093 81.2156V83.1418H43.4082V84.4602H42.0093V88.884C42.0093 89.1868 42.0679 89.4065 42.1851 89.5432C42.3071 89.675 42.522 89.741 42.8296 89.741C43.0347 89.741 43.2422 89.7166 43.4521 89.6677V91.0447C43.0469 91.157 42.6562 91.2131 42.2803 91.2131C40.9131 91.2131 40.2295 90.4587 40.2295 88.95V84.4602H38.9258V83.1418H40.2295V81.2156H42.0093ZM48.2642 91.2131C47.1362 91.2131 46.2207 90.8591 45.5176 90.1511C44.8193 89.4382 44.4702 88.491 44.4702 87.3093V87.0896C44.4702 86.2986 44.6216 85.593 44.9243 84.9729C45.2319 84.3479 45.6616 83.8621 46.2134 83.5154C46.7651 83.1687 47.3804 82.9954 48.0591 82.9954C49.1382 82.9954 49.9707 83.3396 50.5566 84.0281C51.1475 84.7166 51.4429 85.6907 51.4429 86.9504V87.6682H46.2646C46.3184 88.3225 46.5356 88.8401 46.9165 89.2209C47.3022 89.6018 47.7856 89.7922 48.3667 89.7922C49.1821 89.7922 49.8462 89.4626 50.3589 88.8035L51.3184 89.719C51.001 90.1926 50.5762 90.5613 50.0439 90.825C49.5166 91.0837 48.9233 91.2131 48.2642 91.2131ZM48.0518 84.4236C47.5635 84.4236 47.168 84.5945 46.8652 84.9363C46.5674 85.2781 46.377 85.7542 46.2939 86.3645H49.6851V86.2327C49.646 85.637 49.4873 85.1877 49.209 84.885C48.9307 84.5774 48.5449 84.4236 48.0518 84.4236ZM54.5044 83.1418L54.5557 83.9695C55.1123 83.3201 55.874 82.9954 56.8408 82.9954C57.9004 82.9954 58.6255 83.4006 59.0161 84.2112C59.5923 83.4006 60.4028 82.9954 61.4478 82.9954C62.3218 82.9954 62.9712 83.2371 63.396 83.7205C63.8257 84.2039 64.0454 84.9167 64.0552 85.8591V91.0667H62.2754V85.9104C62.2754 85.4075 62.1655 85.0388 61.9458 84.8044C61.7261 84.5701 61.3623 84.4529 60.8545 84.4529C60.4492 84.4529 60.1172 84.5627 59.8584 84.7825C59.6045 84.9973 59.4263 85.2805 59.3237 85.6321L59.3311 91.0667H57.5513V85.8518C57.5269 84.9192 57.0508 84.4529 56.123 84.4529C55.4102 84.4529 54.9048 84.7434 54.6069 85.3245V91.0667H52.8271V83.1418H54.5044Z" fill="white"/>
</g>
<g opacity="0.8">
<path d="M100 41C100 39.3431 101.343 38 103 38H177C178.657 38 180 39.3431 180 41V115C180 116.657 178.657 118 177 118H103C101.343 118 100 116.657 100 115V41Z" fill="#1E73FF"/>
<path d="M133.804 63.2302C133.306 63.1619 132.876 63.1277 132.515 63.1277C131.558 63.1277 131.079 63.5769 131.079 64.4753V65.1418H132.69V66.4602H131.079V73.0667H129.299V66.4602H128.091V65.1418H129.299V64.4314C129.304 63.5378 129.568 62.8542 130.09 62.3806C130.618 61.9021 131.36 61.6628 132.317 61.6628C132.913 61.6628 134.001 61.78 135.583 62.0144V73.0667H133.804V63.2302ZM141.04 73.2131C139.912 73.2131 138.997 72.8591 138.293 72.1511C137.595 71.4382 137.246 70.491 137.246 69.3093V69.0896C137.246 68.2986 137.397 67.593 137.7 66.9729C138.008 66.3479 138.438 65.8621 138.989 65.5154C139.541 65.1687 140.156 64.9954 140.835 64.9954C141.914 64.9954 142.747 65.3396 143.333 66.0281C143.923 66.7166 144.219 67.6907 144.219 68.9504V69.6682H139.041C139.094 70.3225 139.312 70.8401 139.692 71.2209C140.078 71.6018 140.562 71.7922 141.143 71.7922C141.958 71.7922 142.622 71.4626 143.135 70.8035L144.094 71.719C143.777 72.1926 143.352 72.5613 142.82 72.825C142.292 73.0837 141.699 73.2131 141.04 73.2131ZM140.828 66.4236C140.339 66.4236 139.944 66.5945 139.641 66.9363C139.343 67.2781 139.153 67.7542 139.07 68.3645H142.461V68.2327C142.422 67.637 142.263 67.1877 141.985 66.885C141.707 66.5774 141.321 66.4236 140.828 66.4236ZM148.452 67.7493L149.961 65.1418H151.938L149.514 69.0457L152.019 73.0667H150.056L148.474 70.3567L146.899 73.0667H144.922L147.427 69.0457L145.01 65.1418H146.973L148.452 67.7493ZM127.834 91.0667H126.055V83.1418H127.834V91.0667ZM125.945 81.0837C125.945 80.8103 126.03 80.5833 126.201 80.4026C126.377 80.2219 126.626 80.1316 126.948 80.1316C127.271 80.1316 127.52 80.2219 127.695 80.4026C127.871 80.5833 127.959 80.8103 127.959 81.0837C127.959 81.3523 127.871 81.5769 127.695 81.7576C127.52 81.9333 127.271 82.0212 126.948 82.0212C126.626 82.0212 126.377 81.9333 126.201 81.7576C126.03 81.5769 125.945 81.3523 125.945 81.0837ZM132.009 81.2156V83.1418H133.408V84.4602H132.009V88.884C132.009 89.1868 132.068 89.4065 132.185 89.5432C132.307 89.675 132.522 89.741 132.83 89.741C133.035 89.741 133.242 89.7166 133.452 89.6677V91.0447C133.047 91.157 132.656 91.2131 132.28 91.2131C130.913 91.2131 130.229 90.4587 130.229 88.95V84.4602H128.926V83.1418H130.229V81.2156H132.009ZM138.264 91.2131C137.136 91.2131 136.221 90.8591 135.518 90.1511C134.819 89.4382 134.47 88.491 134.47 87.3093V87.0896C134.47 86.2986 134.622 85.593 134.924 84.9729C135.232 84.3479 135.662 83.8621 136.213 83.5154C136.765 83.1687 137.38 82.9954 138.059 82.9954C139.138 82.9954 139.971 83.3396 140.557 84.0281C141.147 84.7166 141.443 85.6907 141.443 86.9504V87.6682H136.265C136.318 88.3225 136.536 88.8401 136.917 89.2209C137.302 89.6018 137.786 89.7922 138.367 89.7922C139.182 89.7922 139.846 89.4626 140.359 88.8035L141.318 89.719C141.001 90.1926 140.576 90.5613 140.044 90.825C139.517 91.0837 138.923 91.2131 138.264 91.2131ZM138.052 84.4236C137.563 84.4236 137.168 84.5945 136.865 84.9363C136.567 85.2781 136.377 85.7542 136.294 86.3645H139.685V86.2327C139.646 85.637 139.487 85.1877 139.209 84.885C138.931 84.5774 138.545 84.4236 138.052 84.4236ZM144.504 83.1418L144.556 83.9695C145.112 83.3201 145.874 82.9954 146.841 82.9954C147.9 82.9954 148.625 83.4006 149.016 84.2112C149.592 83.4006 150.403 82.9954 151.448 82.9954C152.322 82.9954 152.971 83.2371 153.396 83.7205C153.826 84.2039 154.045 84.9167 154.055 85.8591V91.0667H152.275V85.9104C152.275 85.4075 152.166 85.0388 151.946 84.8044C151.726 84.5701 151.362 84.4529 150.854 84.4529C150.449 84.4529 150.117 84.5627 149.858 84.7825C149.604 84.9973 149.426 85.2805 149.324 85.6321L149.331 91.0667H147.551V85.8518C147.527 84.9192 147.051 84.4529 146.123 84.4529C145.41 84.4529 144.905 84.7434 144.607 85.3245V91.0667H142.827V83.1418H144.504Z" fill="white"/>
</g>
<g opacity="0.8">
<path d="M190 41C190 39.3431 191.343 38 193 38H267C268.657 38 270 39.3431 270 41V115C270 116.657 268.657 118 267 118H193C191.343 118 190 116.657 190 115V41Z" fill="#1E73FF"/>
<path d="M223.804 63.2302C223.306 63.1619 222.876 63.1277 222.515 63.1277C221.558 63.1277 221.079 63.5769 221.079 64.4753V65.1418H222.69V66.4602H221.079V73.0667H219.299V66.4602H218.091V65.1418H219.299V64.4314C219.304 63.5378 219.568 62.8542 220.09 62.3806C220.618 61.9021 221.36 61.6628 222.317 61.6628C222.913 61.6628 224.001 61.78 225.583 62.0144V73.0667H223.804V63.2302ZM231.04 73.2131C229.912 73.2131 228.997 72.8591 228.293 72.1511C227.595 71.4382 227.246 70.491 227.246 69.3093V69.0896C227.246 68.2986 227.397 67.593 227.7 66.9729C228.008 66.3479 228.438 65.8621 228.989 65.5154C229.541 65.1687 230.156 64.9954 230.835 64.9954C231.914 64.9954 232.747 65.3396 233.333 66.0281C233.923 66.7166 234.219 67.6907 234.219 68.9504V69.6682H229.041C229.094 70.3225 229.312 70.8401 229.692 71.2209C230.078 71.6018 230.562 71.7922 231.143 71.7922C231.958 71.7922 232.622 71.4626 233.135 70.8035L234.094 71.719C233.777 72.1926 233.352 72.5613 232.82 72.825C232.292 73.0837 231.699 73.2131 231.04 73.2131ZM230.828 66.4236C230.339 66.4236 229.944 66.5945 229.641 66.9363C229.343 67.2781 229.153 67.7542 229.07 68.3645H232.461V68.2327C232.422 67.637 232.263 67.1877 231.985 66.885C231.707 66.5774 231.321 66.4236 230.828 66.4236ZM238.452 67.7493L239.961 65.1418H241.938L239.514 69.0457L242.019 73.0667H240.056L238.474 70.3567L236.899 73.0667H234.922L237.427 69.0457L235.01 65.1418H236.973L238.452 67.7493ZM217.834 91.0667H216.055V83.1418H217.834V91.0667ZM215.945 81.0837C215.945 80.8103 216.03 80.5833 216.201 80.4026C216.377 80.2219 216.626 80.1316 216.948 80.1316C217.271 80.1316 217.52 80.2219 217.695 80.4026C217.871 80.5833 217.959 80.8103 217.959 81.0837C217.959 81.3523 217.871 81.5769 217.695 81.7576C217.52 81.9333 217.271 82.0212 216.948 82.0212C216.626 82.0212 216.377 81.9333 216.201 81.7576C216.03 81.5769 215.945 81.3523 215.945 81.0837ZM222.009 81.2156V83.1418H223.408V84.4602H222.009V88.884C222.009 89.1868 222.068 89.4065 222.185 89.5432C222.307 89.675 222.522 89.741 222.83 89.741C223.035 89.741 223.242 89.7166 223.452 89.6677V91.0447C223.047 91.157 222.656 91.2131 222.28 91.2131C220.913 91.2131 220.229 90.4587 220.229 88.95V84.4602H218.926V83.1418H220.229V81.2156H222.009ZM228.264 91.2131C227.136 91.2131 226.221 90.8591 225.518 90.1511C224.819 89.4382 224.47 88.491 224.47 87.3093V87.0896C224.47 86.2986 224.622 85.593 224.924 84.9729C225.232 84.3479 225.662 83.8621 226.213 83.5154C226.765 83.1687 227.38 82.9954 228.059 82.9954C229.138 82.9954 229.971 83.3396 230.557 84.0281C231.147 84.7166 231.443 85.6907 231.443 86.9504V87.6682H226.265C226.318 88.3225 226.536 88.8401 226.917 89.2209C227.302 89.6018 227.786 89.7922 228.367 89.7922C229.182 89.7922 229.846 89.4626 230.359 88.8035L231.318 89.719C231.001 90.1926 230.576 90.5613 230.044 90.825C229.517 91.0837 228.923 91.2131 228.264 91.2131ZM228.052 84.4236C227.563 84.4236 227.168 84.5945 226.865 84.9363C226.567 85.2781 226.377 85.7542 226.294 86.3645H229.685V86.2327C229.646 85.637 229.487 85.1877 229.209 84.885C228.931 84.5774 228.545 84.4236 228.052 84.4236ZM234.504 83.1418L234.556 83.9695C235.112 83.3201 235.874 82.9954 236.841 82.9954C237.9 82.9954 238.625 83.4006 239.016 84.2112C239.592 83.4006 240.403 82.9954 241.448 82.9954C242.322 82.9954 242.971 83.2371 243.396 83.7205C243.826 84.2039 244.045 84.9167 244.055 85.8591V91.0667H242.275V85.9104C242.275 85.4075 242.166 85.0388 241.946 84.8044C241.726 84.5701 241.362 84.4529 240.854 84.4529C240.449 84.4529 240.117 84.5627 239.858 84.7825C239.604 84.9973 239.426 85.2805 239.324 85.6321L239.331 91.0667H237.551V85.8518C237.527 84.9192 237.051 84.4529 236.123 84.4529C235.41 84.4529 234.905 84.7434 234.607 85.3245V91.0667H232.827V83.1418H234.504Z" fill="white"/>
</g>
</g>
</svg>
