<svg width="504" height="166" viewBox="0 0 504 166" fill="none" xmlns="http://www.w3.org/2000/svg">
<rect x="1" y="27" width="502" height="138" rx="5" fill="#F7F7F7" stroke="#AAAAAA" stroke-width="2" stroke-dasharray="6 4"/>
<path d="M5.63965 3.81934C5.1748 3.75553 4.77376 3.72363 4.43652 3.72363C3.54329 3.72363 3.09668 4.1429 3.09668 4.98145V5.60352H4.60059V6.83398H3.09668V13H1.43555V6.83398H0.307617V5.60352H1.43555V4.94043C1.4401 4.10645 1.6862 3.46842 2.17383 3.02637C2.66602 2.57975 3.35872 2.35645 4.25195 2.35645C4.80794 2.35645 5.82422 2.46582 7.30078 2.68457V13H5.63965V3.81934ZM12.3936 13.1367C11.3408 13.1367 10.4863 12.8063 9.83008 12.1455C9.17839 11.4801 8.85254 10.596 8.85254 9.49316V9.28809C8.85254 8.5498 8.99382 7.89128 9.27637 7.3125C9.56348 6.72917 9.96452 6.27572 10.4795 5.95215C10.9945 5.62858 11.5687 5.4668 12.2021 5.4668C13.2093 5.4668 13.9863 5.78809 14.5332 6.43066C15.0846 7.07324 15.3604 7.98242 15.3604 9.1582V9.82812H10.5273C10.5775 10.4388 10.7803 10.9219 11.1357 11.2773C11.4958 11.6328 11.9469 11.8105 12.4893 11.8105C13.2503 11.8105 13.8701 11.5029 14.3486 10.8877L15.2441 11.7422C14.9479 12.1842 14.5514 12.5283 14.0547 12.7744C13.5625 13.016 13.0088 13.1367 12.3936 13.1367ZM12.1953 6.7998C11.7396 6.7998 11.3704 6.95931 11.0879 7.27832C10.8099 7.59733 10.6322 8.04167 10.5547 8.61133H13.7197V8.48828C13.6833 7.93229 13.5352 7.51302 13.2754 7.23047C13.0156 6.94336 12.6556 6.7998 12.1953 6.7998ZM19.3115 8.03711L20.7197 5.60352H22.5654L20.3027 9.24707L22.6406 13H20.8086L19.332 10.4707L17.8623 13H16.0166L18.3545 9.24707L16.0986 5.60352H17.9307L19.3115 8.03711ZM30.2217 11.8105C30.6364 11.8105 30.9805 11.6898 31.2539 11.4482C31.5273 11.2067 31.6732 10.9082 31.6914 10.5527H33.2568C33.2386 11.013 33.0951 11.4437 32.8262 11.8447C32.5573 12.2412 32.1927 12.5557 31.7324 12.7881C31.2721 13.0205 30.7754 13.1367 30.2422 13.1367C29.2077 13.1367 28.3874 12.8018 27.7812 12.1318C27.1751 11.4619 26.8721 10.5368 26.8721 9.35645V9.18555C26.8721 8.0599 27.1729 7.15983 27.7744 6.48535C28.376 5.80632 29.1963 5.4668 30.2354 5.4668C31.1149 5.4668 31.8304 5.72428 32.3818 6.23926C32.9378 6.74967 33.2295 7.42188 33.2568 8.25586H31.6914C31.6732 7.83203 31.5273 7.4834 31.2539 7.20996C30.985 6.93652 30.641 6.7998 30.2217 6.7998C29.6839 6.7998 29.2692 6.99577 28.9775 7.3877C28.6859 7.77507 28.5378 8.36523 28.5332 9.1582V9.4248C28.5332 10.2269 28.6768 10.8262 28.9639 11.2227C29.2555 11.6146 29.6748 11.8105 30.2217 11.8105ZM34.2002 9.2334C34.2002 8.50879 34.3438 7.8571 34.6309 7.27832C34.918 6.69499 35.3213 6.24837 35.8408 5.93848C36.3604 5.62402 36.9574 5.4668 37.6318 5.4668C38.6299 5.4668 39.4388 5.78809 40.0586 6.43066C40.6829 7.07324 41.0202 7.92546 41.0703 8.9873L41.0771 9.37695C41.0771 10.1061 40.9359 10.7578 40.6533 11.332C40.3753 11.9062 39.9743 12.3506 39.4502 12.665C38.9307 12.9795 38.3291 13.1367 37.6455 13.1367C36.6019 13.1367 35.7656 12.7904 35.1367 12.0977C34.5124 11.4004 34.2002 10.473 34.2002 9.31543V9.2334ZM35.8613 9.37695C35.8613 10.138 36.0186 10.735 36.333 11.168C36.6475 11.5964 37.085 11.8105 37.6455 11.8105C38.2061 11.8105 38.6413 11.5918 38.9512 11.1543C39.2656 10.7168 39.4229 10.0765 39.4229 9.2334C39.4229 8.486 39.2611 7.89355 38.9375 7.45605C38.6185 7.01855 38.1833 6.7998 37.6318 6.7998C37.0895 6.7998 36.6589 7.01628 36.3398 7.44922C36.0208 7.8776 35.8613 8.52018 35.8613 9.37695ZM44.0234 5.60352L44.0713 6.45801C44.6182 5.7972 45.3359 5.4668 46.2246 5.4668C47.765 5.4668 48.5488 6.34863 48.5762 8.1123V13H46.915V8.20801C46.915 7.73861 46.8125 7.39225 46.6074 7.16895C46.4069 6.94108 46.0765 6.82715 45.6162 6.82715C44.9463 6.82715 44.4473 7.13021 44.1191 7.73633V13H42.458V5.60352H44.0234ZM52.3564 3.80566V5.60352H53.6621V6.83398H52.3564V10.9629C52.3564 11.2454 52.4111 11.4505 52.5205 11.5781C52.6344 11.7012 52.835 11.7627 53.1221 11.7627C53.3135 11.7627 53.5072 11.7399 53.7031 11.6943V12.9795C53.3249 13.0843 52.9603 13.1367 52.6094 13.1367C51.3333 13.1367 50.6953 12.4326 50.6953 11.0244V6.83398H49.4785V5.60352H50.6953V3.80566H52.3564ZM59.3564 13C59.2835 12.8587 59.2197 12.6286 59.165 12.3096C58.6364 12.861 57.9893 13.1367 57.2236 13.1367C56.4808 13.1367 55.8747 12.9248 55.4053 12.501C54.9359 12.0771 54.7012 11.5531 54.7012 10.9287C54.7012 10.1403 54.9928 9.53646 55.5762 9.11719C56.1641 8.69336 57.0026 8.48145 58.0918 8.48145H59.1104V7.99609C59.1104 7.61328 59.0033 7.30794 58.7891 7.08008C58.5749 6.84766 58.249 6.73145 57.8115 6.73145C57.4333 6.73145 57.1234 6.82715 56.8818 7.01855C56.6403 7.2054 56.5195 7.44466 56.5195 7.73633H54.8584C54.8584 7.33073 54.9928 6.95247 55.2617 6.60156C55.5306 6.24609 55.8952 5.9681 56.3555 5.76758C56.8203 5.56706 57.3376 5.4668 57.9072 5.4668C58.7731 5.4668 59.4635 5.68555 59.9785 6.12305C60.4935 6.55599 60.7578 7.16667 60.7715 7.95508V11.291C60.7715 11.9564 60.8649 12.4873 61.0518 12.8838V13H59.3564ZM57.5312 11.8037C57.8594 11.8037 58.167 11.724 58.4541 11.5645C58.7458 11.4049 58.9645 11.1908 59.1104 10.9219V9.52734H58.2148C57.5996 9.52734 57.137 9.63444 56.8271 9.84863C56.5173 10.0628 56.3623 10.3659 56.3623 10.7578C56.3623 11.0768 56.4671 11.332 56.6768 11.5234C56.891 11.7103 57.1758 11.8037 57.5312 11.8037ZM64.2783 13H62.6172V5.60352H64.2783V13ZM62.5146 3.68262C62.5146 3.42741 62.5944 3.21549 62.7539 3.04688C62.918 2.87826 63.1504 2.79395 63.4512 2.79395C63.752 2.79395 63.9844 2.87826 64.1484 3.04688C64.3125 3.21549 64.3945 3.42741 64.3945 3.68262C64.3945 3.93327 64.3125 4.1429 64.1484 4.31152C63.9844 4.47559 63.752 4.55762 63.4512 4.55762C63.1504 4.55762 62.918 4.47559 62.7539 4.31152C62.5944 4.1429 62.5146 3.93327 62.5146 3.68262ZM67.6348 5.60352L67.6826 6.45801C68.2295 5.7972 68.9473 5.4668 69.8359 5.4668C71.3763 5.4668 72.1602 6.34863 72.1875 8.1123V13H70.5264V8.20801C70.5264 7.73861 70.4238 7.39225 70.2188 7.16895C70.0182 6.94108 69.6878 6.82715 69.2275 6.82715C68.5576 6.82715 68.0586 7.13021 67.7305 7.73633V13H66.0693V5.60352H67.6348ZM77.1436 13.1367C76.0908 13.1367 75.2363 12.8063 74.5801 12.1455C73.9284 11.4801 73.6025 10.596 73.6025 9.49316V9.28809C73.6025 8.5498 73.7438 7.89128 74.0264 7.3125C74.3135 6.72917 74.7145 6.27572 75.2295 5.95215C75.7445 5.62858 76.3187 5.4668 76.9521 5.4668C77.9593 5.4668 78.7363 5.78809 79.2832 6.43066C79.8346 7.07324 80.1104 7.98242 80.1104 9.1582V9.82812H75.2773C75.3275 10.4388 75.5303 10.9219 75.8857 11.2773C76.2458 11.6328 76.6969 11.8105 77.2393 11.8105C78.0003 11.8105 78.6201 11.5029 79.0986 10.8877L79.9941 11.7422C79.6979 12.1842 79.3014 12.5283 78.8047 12.7744C78.3125 13.016 77.7588 13.1367 77.1436 13.1367ZM76.9453 6.7998C76.4896 6.7998 76.1204 6.95931 75.8379 7.27832C75.5599 7.59733 75.3822 8.04167 75.3047 8.61133H78.4697V8.48828C78.4333 7.93229 78.2852 7.51302 78.0254 7.23047C77.7656 6.94336 77.4056 6.7998 76.9453 6.7998ZM85.2783 7.12109C85.0596 7.08464 84.834 7.06641 84.6016 7.06641C83.8405 7.06641 83.3278 7.35807 83.0635 7.94141V13H81.4023V5.60352H82.9883L83.0293 6.43066C83.4303 5.78809 83.9863 5.4668 84.6973 5.4668C84.9342 5.4668 85.1302 5.4987 85.2852 5.5625L85.2783 7.12109Z" fill="#BBBBBB"/>
<g opacity="0.8">
<path d="M10 39C10 37.3431 11.3431 36 13 36H95C96.6569 36 98 37.3431 98 39V93C98 94.6569 96.6569 96 95 96H13C11.3431 96 10 94.6569 10 93V39Z" fill="#1E73FF"/>
<path d="M55.4546 69.7998H53.6821V61.2378L51.0674 62.1313V60.6299L55.2275 59.0991H55.4546V69.7998Z" fill="white"/>
</g>
<g opacity="0.8">
<path d="M109 39C109 37.3431 110.343 36 112 36H194C195.657 36 197 37.3431 197 39V93C197 94.6569 195.657 96 194 96H112C110.343 96 109 94.6569 109 93V39Z" fill="#1E73FF"/>
<path d="M156.806 69.7998H149.635V68.5767L153.188 64.7021C153.7 64.1309 154.064 63.6548 154.279 63.2739C154.499 62.8882 154.608 62.5024 154.608 62.1167C154.608 61.6089 154.464 61.1987 154.176 60.8862C153.893 60.5737 153.51 60.4175 153.026 60.4175C152.45 60.4175 152.003 60.5933 151.686 60.9448C151.369 61.2964 151.21 61.7773 151.21 62.3877H149.43C149.43 61.7383 149.577 61.1548 149.87 60.6372C150.167 60.1147 150.59 59.7095 151.137 59.4214C151.688 59.1333 152.323 58.9893 153.041 58.9893C154.076 58.9893 154.892 59.2505 155.487 59.7729C156.088 60.2905 156.388 61.0083 156.388 61.9263C156.388 62.4585 156.237 63.0176 155.934 63.6035C155.636 64.1846 155.146 64.8462 154.462 65.5884L151.854 68.3789H156.806V69.7998Z" fill="white"/>
</g>
<g opacity="0.8">
<path d="M208 39C208 37.3431 209.343 36 211 36H293C294.657 36 296 37.3431 296 39V93C296 94.6569 294.657 96 293 96H211C209.343 96 208 94.6569 208 93V39Z" fill="#1E73FF"/>
<path d="M250.693 63.6548H251.777C252.324 63.6499 252.756 63.5083 253.074 63.23C253.396 62.9517 253.557 62.5488 253.557 62.0215C253.557 61.5137 253.423 61.1206 253.154 60.8423C252.891 60.5591 252.485 60.4175 251.938 60.4175C251.46 60.4175 251.067 60.5566 250.759 60.835C250.452 61.1084 250.298 61.4673 250.298 61.9116H248.518C248.518 61.3647 248.662 60.8667 248.95 60.4175C249.243 59.9683 249.648 59.6191 250.166 59.3701C250.688 59.1162 251.272 58.9893 251.917 58.9893C252.981 58.9893 253.816 59.2578 254.421 59.7949C255.032 60.3271 255.337 61.0693 255.337 62.0215C255.337 62.5 255.183 62.9517 254.875 63.3765C254.573 63.7964 254.18 64.1138 253.696 64.3286C254.282 64.5288 254.727 64.8438 255.029 65.2734C255.337 65.7031 255.491 66.2158 255.491 66.8115C255.491 67.7686 255.161 68.5303 254.502 69.0967C253.848 69.6631 252.986 69.9463 251.917 69.9463C250.891 69.9463 250.051 69.6729 249.397 69.126C248.743 68.5791 248.416 67.8516 248.416 66.9434H250.195C250.195 67.4121 250.352 67.793 250.664 68.0859C250.981 68.3789 251.406 68.5254 251.938 68.5254C252.49 68.5254 252.925 68.3789 253.242 68.0859C253.56 67.793 253.718 67.3682 253.718 66.8115C253.718 66.25 253.552 65.8179 253.22 65.5151C252.888 65.2124 252.395 65.061 251.741 65.061H250.693V63.6548Z" fill="white"/>
</g>
<g opacity="0.8">
<path d="M307 39C307 37.3431 308.343 36 310 36H392C393.657 36 395 37.3431 395 39V93C395 94.6569 393.657 96 392 96H310C308.343 96 307 94.6569 307 93V39Z" fill="#1E73FF"/>
<path d="M353.656 65.9985H354.981V67.4268H353.656V69.7998H351.876V67.4268H347.269L347.218 66.3428L351.817 59.1357H353.656V65.9985ZM349.085 65.9985H351.876V61.5454L351.744 61.7798L349.085 65.9985Z" fill="white"/>
</g>
<g opacity="0.8">
<path d="M406 39C406 37.3431 407.343 36 409 36H491C492.657 36 494 37.3431 494 39V93C494 94.6569 492.657 96 491 96H409C407.343 96 406 94.6569 406 93V39Z" fill="#1E73FF"/>
<path d="M447.111 64.5117L447.69 59.1357H453.417V60.6738H449.169L448.876 63.2227C449.37 62.9395 449.926 62.7979 450.546 62.7979C451.562 62.7979 452.351 63.1226 452.912 63.772C453.479 64.4214 453.762 65.2954 453.762 66.394C453.762 67.478 453.449 68.3423 452.824 68.9868C452.199 69.6265 451.342 69.9463 450.253 69.9463C449.277 69.9463 448.466 69.6704 447.822 69.1187C447.182 68.562 446.835 67.8296 446.782 66.9214H448.503C448.571 67.439 448.757 67.8369 449.06 68.1152C449.362 68.3887 449.758 68.5254 450.246 68.5254C450.793 68.5254 451.218 68.3301 451.521 67.9395C451.828 67.5488 451.982 67.0166 451.982 66.3428C451.982 65.6934 451.813 65.1807 451.477 64.8047C451.14 64.4238 450.676 64.2334 450.085 64.2334C449.763 64.2334 449.489 64.2773 449.265 64.3652C449.04 64.4482 448.796 64.6143 448.532 64.8633L447.111 64.5117Z" fill="white"/>
</g>
<path d="M103.5 106L103.5 154" stroke="#AAAAAA" stroke-dasharray="4 2"/>
<path d="M202.5 106L202.5 154" stroke="#AAAAAA" stroke-dasharray="4 2"/>
<path d="M301.5 106L301.5 154" stroke="#AAAAAA" stroke-dasharray="4 2"/>
<path d="M400.5 106L400.5 154" stroke="#AAAAAA" stroke-dasharray="4 2"/>
<path d="M30.9902 113.573C30.4251 113.482 29.9694 113.437 29.623 113.437C28.7116 113.437 28.2559 113.915 28.2559 114.872V115.604H29.835V116.581H28.2559V123H26.9912V116.581H25.8223V115.604H26.9912V114.797C26.9958 114.008 27.2168 113.405 27.6543 112.985C28.0918 112.566 28.7139 112.356 29.5205 112.356C29.9808 112.356 30.8923 112.495 32.2549 112.773V123H30.9902V113.573ZM37.3955 123.137C36.3929 123.137 35.5771 122.809 34.9482 122.152C34.3193 121.492 34.0049 120.61 34.0049 119.507V119.274C34.0049 118.541 34.1439 117.887 34.4219 117.312C34.7044 116.734 35.0964 116.283 35.5977 115.959C36.1035 115.631 36.6504 115.467 37.2383 115.467C38.1999 115.467 38.9473 115.784 39.4805 116.417C40.0137 117.05 40.2803 117.957 40.2803 119.138V119.664H35.2695C35.2878 120.393 35.4997 120.983 35.9053 121.435C36.3154 121.881 36.835 122.104 37.4639 122.104C37.9105 122.104 38.2887 122.013 38.5986 121.831C38.9085 121.649 39.1797 121.407 39.4121 121.106L40.1846 121.708C39.5648 122.66 38.6351 123.137 37.3955 123.137ZM37.2383 116.506C36.7279 116.506 36.2995 116.693 35.9531 117.066C35.6068 117.436 35.3926 117.955 35.3105 118.625H39.0156V118.529C38.9792 117.887 38.806 117.39 38.4961 117.039C38.1862 116.684 37.7669 116.506 37.2383 116.506ZM44.2314 118.304L45.8721 115.604H47.3486L44.9287 119.261L47.4238 123H45.9609L44.252 120.231L42.543 123H41.0732L43.5684 119.261L41.1484 115.604H42.6113L44.2314 118.304ZM51.3271 119.288H47.9912V118.256H51.3271V119.288ZM52.2637 119.24C52.2637 118.087 52.5303 117.171 53.0635 116.492C53.5967 115.809 54.3031 115.467 55.1826 115.467C56.085 115.467 56.7891 115.786 57.2949 116.424L57.3564 115.604H58.5117V122.822C58.5117 123.779 58.2269 124.534 57.6572 125.085C57.0921 125.636 56.3311 125.912 55.374 125.912C54.8408 125.912 54.319 125.798 53.8086 125.57C53.2982 125.342 52.9085 125.03 52.6396 124.634L53.2959 123.875C53.8382 124.545 54.5013 124.88 55.2852 124.88C55.9004 124.88 56.3789 124.707 56.7207 124.36C57.0671 124.014 57.2402 123.526 57.2402 122.897V122.262C56.7344 122.845 56.0439 123.137 55.1689 123.137C54.3031 123.137 53.6012 122.788 53.0635 122.091C52.5303 121.394 52.2637 120.443 52.2637 119.24ZM53.5352 119.384C53.5352 120.218 53.7061 120.874 54.0479 121.353C54.3896 121.826 54.8682 122.063 55.4834 122.063C56.2809 122.063 56.8665 121.701 57.2402 120.977V117.6C56.8529 116.893 56.2718 116.54 55.4971 116.54C54.8818 116.54 54.401 116.779 54.0547 117.258C53.7083 117.736 53.5352 118.445 53.5352 119.384ZM64.001 116.738C63.8096 116.706 63.6022 116.69 63.3789 116.69C62.5495 116.69 61.9867 117.044 61.6904 117.75V123H60.4258V115.604H61.6562L61.6768 116.458C62.0915 115.797 62.6794 115.467 63.4404 115.467C63.6865 115.467 63.8734 115.499 64.001 115.562V116.738ZM64.6982 119.233C64.6982 118.509 64.8395 117.857 65.1221 117.278C65.4092 116.7 65.8057 116.253 66.3115 115.938C66.8219 115.624 67.403 115.467 68.0547 115.467C69.0618 115.467 69.8753 115.815 70.4951 116.513C71.1195 117.21 71.4316 118.137 71.4316 119.295V119.384C71.4316 120.104 71.2926 120.751 71.0146 121.325C70.7412 121.895 70.347 122.339 69.832 122.658C69.3216 122.977 68.7337 123.137 68.0684 123.137C67.0658 123.137 66.2523 122.788 65.6279 122.091C65.0081 121.394 64.6982 120.471 64.6982 119.322V119.233ZM65.9697 119.384C65.9697 120.204 66.1589 120.863 66.5371 121.359C66.9199 121.856 67.4303 122.104 68.0684 122.104C68.7109 122.104 69.2214 121.854 69.5996 121.353C69.9779 120.847 70.167 120.14 70.167 119.233C70.167 118.422 69.9733 117.766 69.5859 117.265C69.2031 116.759 68.6927 116.506 68.0547 116.506C67.4303 116.506 66.9268 116.754 66.5439 117.251C66.1611 117.748 65.9697 118.459 65.9697 119.384ZM79.5664 121.257L80.9883 115.604H82.2529L80.0996 123H79.0742L77.2764 117.395L75.5264 123H74.501L72.3545 115.604H73.6123L75.0684 121.141L76.791 115.604H77.8096L79.5664 121.257Z" fill="#666666"/>
<path d="M55.8721 147H53.332V137.209L50.2998 138.149V136.084L55.5996 134.186H55.8721V147Z" fill="#1E73FF"/>
<path d="M129.99 113.573C129.425 113.482 128.969 113.437 128.623 113.437C127.712 113.437 127.256 113.915 127.256 114.872V115.604H128.835V116.581H127.256V123H125.991V116.581H124.822V115.604H125.991V114.797C125.996 114.008 126.217 113.405 126.654 112.985C127.092 112.566 127.714 112.356 128.521 112.356C128.981 112.356 129.892 112.495 131.255 112.773V123H129.99V113.573ZM136.396 123.137C135.393 123.137 134.577 122.809 133.948 122.152C133.319 121.492 133.005 120.61 133.005 119.507V119.274C133.005 118.541 133.144 117.887 133.422 117.312C133.704 116.734 134.096 116.283 134.598 115.959C135.104 115.631 135.65 115.467 136.238 115.467C137.2 115.467 137.947 115.784 138.48 116.417C139.014 117.05 139.28 117.957 139.28 119.138V119.664H134.27C134.288 120.393 134.5 120.983 134.905 121.435C135.315 121.881 135.835 122.104 136.464 122.104C136.91 122.104 137.289 122.013 137.599 121.831C137.909 121.649 138.18 121.407 138.412 121.106L139.185 121.708C138.565 122.66 137.635 123.137 136.396 123.137ZM136.238 116.506C135.728 116.506 135.299 116.693 134.953 117.066C134.607 117.436 134.393 117.955 134.311 118.625H138.016V118.529C137.979 117.887 137.806 117.39 137.496 117.039C137.186 116.684 136.767 116.506 136.238 116.506ZM143.231 118.304L144.872 115.604H146.349L143.929 119.261L146.424 123H144.961L143.252 120.231L141.543 123H140.073L142.568 119.261L140.148 115.604H141.611L143.231 118.304ZM150.327 119.288H146.991V118.256H150.327V119.288ZM151.264 119.24C151.264 118.087 151.53 117.171 152.063 116.492C152.597 115.809 153.303 115.467 154.183 115.467C155.085 115.467 155.789 115.786 156.295 116.424L156.356 115.604H157.512V122.822C157.512 123.779 157.227 124.534 156.657 125.085C156.092 125.636 155.331 125.912 154.374 125.912C153.841 125.912 153.319 125.798 152.809 125.57C152.298 125.342 151.909 125.03 151.64 124.634L152.296 123.875C152.838 124.545 153.501 124.88 154.285 124.88C154.9 124.88 155.379 124.707 155.721 124.36C156.067 124.014 156.24 123.526 156.24 122.897V122.262C155.734 122.845 155.044 123.137 154.169 123.137C153.303 123.137 152.601 122.788 152.063 122.091C151.53 121.394 151.264 120.443 151.264 119.24ZM152.535 119.384C152.535 120.218 152.706 120.874 153.048 121.353C153.39 121.826 153.868 122.063 154.483 122.063C155.281 122.063 155.867 121.701 156.24 120.977V117.6C155.853 116.893 155.272 116.54 154.497 116.54C153.882 116.54 153.401 116.779 153.055 117.258C152.708 117.736 152.535 118.445 152.535 119.384ZM163.001 116.738C162.81 116.706 162.602 116.69 162.379 116.69C161.549 116.69 160.987 117.044 160.69 117.75V123H159.426V115.604H160.656L160.677 116.458C161.091 115.797 161.679 115.467 162.44 115.467C162.687 115.467 162.873 115.499 163.001 115.562V116.738ZM163.698 119.233C163.698 118.509 163.84 117.857 164.122 117.278C164.409 116.7 164.806 116.253 165.312 115.938C165.822 115.624 166.403 115.467 167.055 115.467C168.062 115.467 168.875 115.815 169.495 116.513C170.119 117.21 170.432 118.137 170.432 119.295V119.384C170.432 120.104 170.293 120.751 170.015 121.325C169.741 121.895 169.347 122.339 168.832 122.658C168.322 122.977 167.734 123.137 167.068 123.137C166.066 123.137 165.252 122.788 164.628 122.091C164.008 121.394 163.698 120.471 163.698 119.322V119.233ZM164.97 119.384C164.97 120.204 165.159 120.863 165.537 121.359C165.92 121.856 166.43 122.104 167.068 122.104C167.711 122.104 168.221 121.854 168.6 121.353C168.978 120.847 169.167 120.14 169.167 119.233C169.167 118.422 168.973 117.766 168.586 117.265C168.203 116.759 167.693 116.506 167.055 116.506C166.43 116.506 165.927 116.754 165.544 117.251C165.161 117.748 164.97 118.459 164.97 119.384ZM178.566 121.257L179.988 115.604H181.253L179.1 123H178.074L176.276 117.395L174.526 123H173.501L171.354 115.604H172.612L174.068 121.141L175.791 115.604H176.81L178.566 121.257Z" fill="#666666"/>
<path d="M154.872 147H152.332V137.209L149.3 138.149V136.084L154.6 134.186H154.872V147Z" fill="#1E73FF"/>
<path d="M228.99 113.573C228.425 113.482 227.969 113.437 227.623 113.437C226.712 113.437 226.256 113.915 226.256 114.872V115.604H227.835V116.581H226.256V123H224.991V116.581H223.822V115.604H224.991V114.797C224.996 114.008 225.217 113.405 225.654 112.985C226.092 112.566 226.714 112.356 227.521 112.356C227.981 112.356 228.892 112.495 230.255 112.773V123H228.99V113.573ZM235.396 123.137C234.393 123.137 233.577 122.809 232.948 122.152C232.319 121.492 232.005 120.61 232.005 119.507V119.274C232.005 118.541 232.144 117.887 232.422 117.312C232.704 116.734 233.096 116.283 233.598 115.959C234.104 115.631 234.65 115.467 235.238 115.467C236.2 115.467 236.947 115.784 237.48 116.417C238.014 117.05 238.28 117.957 238.28 119.138V119.664H233.27C233.288 120.393 233.5 120.983 233.905 121.435C234.315 121.881 234.835 122.104 235.464 122.104C235.91 122.104 236.289 122.013 236.599 121.831C236.909 121.649 237.18 121.407 237.412 121.106L238.185 121.708C237.565 122.66 236.635 123.137 235.396 123.137ZM235.238 116.506C234.728 116.506 234.299 116.693 233.953 117.066C233.607 117.436 233.393 117.955 233.311 118.625H237.016V118.529C236.979 117.887 236.806 117.39 236.496 117.039C236.186 116.684 235.767 116.506 235.238 116.506ZM242.231 118.304L243.872 115.604H245.349L242.929 119.261L245.424 123H243.961L242.252 120.231L240.543 123H239.073L241.568 119.261L239.148 115.604H240.611L242.231 118.304ZM249.327 119.288H245.991V118.256H249.327V119.288ZM250.264 119.24C250.264 118.087 250.53 117.171 251.063 116.492C251.597 115.809 252.303 115.467 253.183 115.467C254.085 115.467 254.789 115.786 255.295 116.424L255.356 115.604H256.512V122.822C256.512 123.779 256.227 124.534 255.657 125.085C255.092 125.636 254.331 125.912 253.374 125.912C252.841 125.912 252.319 125.798 251.809 125.57C251.298 125.342 250.909 125.03 250.64 124.634L251.296 123.875C251.838 124.545 252.501 124.88 253.285 124.88C253.9 124.88 254.379 124.707 254.721 124.36C255.067 124.014 255.24 123.526 255.24 122.897V122.262C254.734 122.845 254.044 123.137 253.169 123.137C252.303 123.137 251.601 122.788 251.063 122.091C250.53 121.394 250.264 120.443 250.264 119.24ZM251.535 119.384C251.535 120.218 251.706 120.874 252.048 121.353C252.39 121.826 252.868 122.063 253.483 122.063C254.281 122.063 254.867 121.701 255.24 120.977V117.6C254.853 116.893 254.272 116.54 253.497 116.54C252.882 116.54 252.401 116.779 252.055 117.258C251.708 117.736 251.535 118.445 251.535 119.384ZM262.001 116.738C261.81 116.706 261.602 116.69 261.379 116.69C260.549 116.69 259.987 117.044 259.69 117.75V123H258.426V115.604H259.656L259.677 116.458C260.091 115.797 260.679 115.467 261.44 115.467C261.687 115.467 261.873 115.499 262.001 115.562V116.738ZM262.698 119.233C262.698 118.509 262.84 117.857 263.122 117.278C263.409 116.7 263.806 116.253 264.312 115.938C264.822 115.624 265.403 115.467 266.055 115.467C267.062 115.467 267.875 115.815 268.495 116.513C269.119 117.21 269.432 118.137 269.432 119.295V119.384C269.432 120.104 269.293 120.751 269.015 121.325C268.741 121.895 268.347 122.339 267.832 122.658C267.322 122.977 266.734 123.137 266.068 123.137C265.066 123.137 264.252 122.788 263.628 122.091C263.008 121.394 262.698 120.471 262.698 119.322V119.233ZM263.97 119.384C263.97 120.204 264.159 120.863 264.537 121.359C264.92 121.856 265.43 122.104 266.068 122.104C266.711 122.104 267.221 121.854 267.6 121.353C267.978 120.847 268.167 120.14 268.167 119.233C268.167 118.422 267.973 117.766 267.586 117.265C267.203 116.759 266.693 116.506 266.055 116.506C265.43 116.506 264.927 116.754 264.544 117.251C264.161 117.748 263.97 118.459 263.97 119.384ZM277.566 121.257L278.988 115.604H280.253L278.1 123H277.074L275.276 117.395L273.526 123H272.501L270.354 115.604H271.612L273.068 121.141L274.791 115.604H275.81L277.566 121.257Z" fill="#666666"/>
<path d="M253.872 147H251.332V137.209L248.3 138.149V136.084L253.6 134.186H253.872V147Z" fill="#1E73FF"/>
<path d="M327.99 113.573C327.425 113.482 326.969 113.437 326.623 113.437C325.712 113.437 325.256 113.915 325.256 114.872V115.604H326.835V116.581H325.256V123H323.991V116.581H322.822V115.604H323.991V114.797C323.996 114.008 324.217 113.405 324.654 112.985C325.092 112.566 325.714 112.356 326.521 112.356C326.981 112.356 327.892 112.495 329.255 112.773V123H327.99V113.573ZM334.396 123.137C333.393 123.137 332.577 122.809 331.948 122.152C331.319 121.492 331.005 120.61 331.005 119.507V119.274C331.005 118.541 331.144 117.887 331.422 117.312C331.704 116.734 332.096 116.283 332.598 115.959C333.104 115.631 333.65 115.467 334.238 115.467C335.2 115.467 335.947 115.784 336.48 116.417C337.014 117.05 337.28 117.957 337.28 119.138V119.664H332.27C332.288 120.393 332.5 120.983 332.905 121.435C333.315 121.881 333.835 122.104 334.464 122.104C334.91 122.104 335.289 122.013 335.599 121.831C335.909 121.649 336.18 121.407 336.412 121.106L337.185 121.708C336.565 122.66 335.635 123.137 334.396 123.137ZM334.238 116.506C333.728 116.506 333.299 116.693 332.953 117.066C332.607 117.436 332.393 117.955 332.311 118.625H336.016V118.529C335.979 117.887 335.806 117.39 335.496 117.039C335.186 116.684 334.767 116.506 334.238 116.506ZM341.231 118.304L342.872 115.604H344.349L341.929 119.261L344.424 123H342.961L341.252 120.231L339.543 123H338.073L340.568 119.261L338.148 115.604H339.611L341.231 118.304ZM348.327 119.288H344.991V118.256H348.327V119.288ZM349.264 119.24C349.264 118.087 349.53 117.171 350.063 116.492C350.597 115.809 351.303 115.467 352.183 115.467C353.085 115.467 353.789 115.786 354.295 116.424L354.356 115.604H355.512V122.822C355.512 123.779 355.227 124.534 354.657 125.085C354.092 125.636 353.331 125.912 352.374 125.912C351.841 125.912 351.319 125.798 350.809 125.57C350.298 125.342 349.909 125.03 349.64 124.634L350.296 123.875C350.838 124.545 351.501 124.88 352.285 124.88C352.9 124.88 353.379 124.707 353.721 124.36C354.067 124.014 354.24 123.526 354.24 122.897V122.262C353.734 122.845 353.044 123.137 352.169 123.137C351.303 123.137 350.601 122.788 350.063 122.091C349.53 121.394 349.264 120.443 349.264 119.24ZM350.535 119.384C350.535 120.218 350.706 120.874 351.048 121.353C351.39 121.826 351.868 122.063 352.483 122.063C353.281 122.063 353.867 121.701 354.24 120.977V117.6C353.853 116.893 353.272 116.54 352.497 116.54C351.882 116.54 351.401 116.779 351.055 117.258C350.708 117.736 350.535 118.445 350.535 119.384ZM361.001 116.738C360.81 116.706 360.602 116.69 360.379 116.69C359.549 116.69 358.987 117.044 358.69 117.75V123H357.426V115.604H358.656L358.677 116.458C359.091 115.797 359.679 115.467 360.44 115.467C360.687 115.467 360.873 115.499 361.001 115.562V116.738ZM361.698 119.233C361.698 118.509 361.84 117.857 362.122 117.278C362.409 116.7 362.806 116.253 363.312 115.938C363.822 115.624 364.403 115.467 365.055 115.467C366.062 115.467 366.875 115.815 367.495 116.513C368.119 117.21 368.432 118.137 368.432 119.295V119.384C368.432 120.104 368.293 120.751 368.015 121.325C367.741 121.895 367.347 122.339 366.832 122.658C366.322 122.977 365.734 123.137 365.068 123.137C364.066 123.137 363.252 122.788 362.628 122.091C362.008 121.394 361.698 120.471 361.698 119.322V119.233ZM362.97 119.384C362.97 120.204 363.159 120.863 363.537 121.359C363.92 121.856 364.43 122.104 365.068 122.104C365.711 122.104 366.221 121.854 366.6 121.353C366.978 120.847 367.167 120.14 367.167 119.233C367.167 118.422 366.973 117.766 366.586 117.265C366.203 116.759 365.693 116.506 365.055 116.506C364.43 116.506 363.927 116.754 363.544 117.251C363.161 117.748 362.97 118.459 362.97 119.384ZM376.566 121.257L377.988 115.604H379.253L377.1 123H376.074L374.276 117.395L372.526 123H371.501L369.354 115.604H370.612L372.068 121.141L373.791 115.604H374.81L376.566 121.257Z" fill="#666666"/>
<path d="M352.872 147H350.332V137.209L347.3 138.149V136.084L352.6 134.186H352.872V147Z" fill="#1E73FF"/>
<path d="M426.99 113.573C426.425 113.482 425.969 113.437 425.623 113.437C424.712 113.437 424.256 113.915 424.256 114.872V115.604H425.835V116.581H424.256V123H422.991V116.581H421.822V115.604H422.991V114.797C422.996 114.008 423.217 113.405 423.654 112.985C424.092 112.566 424.714 112.356 425.521 112.356C425.981 112.356 426.892 112.495 428.255 112.773V123H426.99V113.573ZM433.396 123.137C432.393 123.137 431.577 122.809 430.948 122.152C430.319 121.492 430.005 120.61 430.005 119.507V119.274C430.005 118.541 430.144 117.887 430.422 117.312C430.704 116.734 431.096 116.283 431.598 115.959C432.104 115.631 432.65 115.467 433.238 115.467C434.2 115.467 434.947 115.784 435.48 116.417C436.014 117.05 436.28 117.957 436.28 119.138V119.664H431.27C431.288 120.393 431.5 120.983 431.905 121.435C432.315 121.881 432.835 122.104 433.464 122.104C433.91 122.104 434.289 122.013 434.599 121.831C434.909 121.649 435.18 121.407 435.412 121.106L436.185 121.708C435.565 122.66 434.635 123.137 433.396 123.137ZM433.238 116.506C432.728 116.506 432.299 116.693 431.953 117.066C431.607 117.436 431.393 117.955 431.311 118.625H435.016V118.529C434.979 117.887 434.806 117.39 434.496 117.039C434.186 116.684 433.767 116.506 433.238 116.506ZM440.231 118.304L441.872 115.604H443.349L440.929 119.261L443.424 123H441.961L440.252 120.231L438.543 123H437.073L439.568 119.261L437.148 115.604H438.611L440.231 118.304ZM447.327 119.288H443.991V118.256H447.327V119.288ZM448.264 119.24C448.264 118.087 448.53 117.171 449.063 116.492C449.597 115.809 450.303 115.467 451.183 115.467C452.085 115.467 452.789 115.786 453.295 116.424L453.356 115.604H454.512V122.822C454.512 123.779 454.227 124.534 453.657 125.085C453.092 125.636 452.331 125.912 451.374 125.912C450.841 125.912 450.319 125.798 449.809 125.57C449.298 125.342 448.909 125.03 448.64 124.634L449.296 123.875C449.838 124.545 450.501 124.88 451.285 124.88C451.9 124.88 452.379 124.707 452.721 124.36C453.067 124.014 453.24 123.526 453.24 122.897V122.262C452.734 122.845 452.044 123.137 451.169 123.137C450.303 123.137 449.601 122.788 449.063 122.091C448.53 121.394 448.264 120.443 448.264 119.24ZM449.535 119.384C449.535 120.218 449.706 120.874 450.048 121.353C450.39 121.826 450.868 122.063 451.483 122.063C452.281 122.063 452.867 121.701 453.24 120.977V117.6C452.853 116.893 452.272 116.54 451.497 116.54C450.882 116.54 450.401 116.779 450.055 117.258C449.708 117.736 449.535 118.445 449.535 119.384ZM460.001 116.738C459.81 116.706 459.602 116.69 459.379 116.69C458.549 116.69 457.987 117.044 457.69 117.75V123H456.426V115.604H457.656L457.677 116.458C458.091 115.797 458.679 115.467 459.44 115.467C459.687 115.467 459.873 115.499 460.001 115.562V116.738ZM460.698 119.233C460.698 118.509 460.84 117.857 461.122 117.278C461.409 116.7 461.806 116.253 462.312 115.938C462.822 115.624 463.403 115.467 464.055 115.467C465.062 115.467 465.875 115.815 466.495 116.513C467.119 117.21 467.432 118.137 467.432 119.295V119.384C467.432 120.104 467.293 120.751 467.015 121.325C466.741 121.895 466.347 122.339 465.832 122.658C465.322 122.977 464.734 123.137 464.068 123.137C463.066 123.137 462.252 122.788 461.628 122.091C461.008 121.394 460.698 120.471 460.698 119.322V119.233ZM461.97 119.384C461.97 120.204 462.159 120.863 462.537 121.359C462.92 121.856 463.43 122.104 464.068 122.104C464.711 122.104 465.221 121.854 465.6 121.353C465.978 120.847 466.167 120.14 466.167 119.233C466.167 118.422 465.973 117.766 465.586 117.265C465.203 116.759 464.693 116.506 464.055 116.506C463.43 116.506 462.927 116.754 462.544 117.251C462.161 117.748 461.97 118.459 461.97 119.384ZM475.566 121.257L476.988 115.604H478.253L476.1 123H475.074L473.276 117.395L471.526 123H470.501L468.354 115.604H469.612L471.068 121.141L472.791 115.604H473.81L475.566 121.257Z" fill="#666666"/>
<path d="M451.872 147H449.332V137.209L446.3 138.149V136.084L451.6 134.186H451.872V147Z" fill="#1E73FF"/>
</svg>
