<svg width="350" height="207" viewBox="0 0 350 207" fill="none" xmlns="http://www.w3.org/2000/svg">
<rect x="1" y="27" width="348" height="179" rx="5" fill="#F7F7F7" stroke="#AAAAAA" stroke-width="2" stroke-dasharray="6 4"/>
<path d="M5.63965 3.81934C5.1748 3.75553 4.77376 3.72363 4.43652 3.72363C3.54329 3.72363 3.09668 4.1429 3.09668 4.98145V5.60352H4.60059V6.83398H3.09668V13H1.43555V6.83398H0.307617V5.60352H1.43555V4.94043C1.4401 4.10645 1.6862 3.46842 2.17383 3.02637C2.66602 2.57975 3.35872 2.35645 4.25195 2.35645C4.80794 2.35645 5.82422 2.46582 7.30078 2.68457V13H5.63965V3.81934ZM12.3936 13.1367C11.3408 13.1367 10.4863 12.8063 9.83008 12.1455C9.17839 11.4801 8.85254 10.596 8.85254 9.49316V9.28809C8.85254 8.5498 8.99382 7.89128 9.27637 7.3125C9.56348 6.72917 9.96452 6.27572 10.4795 5.95215C10.9945 5.62858 11.5687 5.4668 12.2021 5.4668C13.2093 5.4668 13.9863 5.78809 14.5332 6.43066C15.0846 7.07324 15.3604 7.98242 15.3604 9.1582V9.82812H10.5273C10.5775 10.4388 10.7803 10.9219 11.1357 11.2773C11.4958 11.6328 11.9469 11.8105 12.4893 11.8105C13.2503 11.8105 13.8701 11.5029 14.3486 10.8877L15.2441 11.7422C14.9479 12.1842 14.5514 12.5283 14.0547 12.7744C13.5625 13.016 13.0088 13.1367 12.3936 13.1367ZM12.1953 6.7998C11.7396 6.7998 11.3704 6.95931 11.0879 7.27832C10.8099 7.59733 10.6322 8.04167 10.5547 8.61133H13.7197V8.48828C13.6833 7.93229 13.5352 7.51302 13.2754 7.23047C13.0156 6.94336 12.6556 6.7998 12.1953 6.7998ZM19.3115 8.03711L20.7197 5.60352H22.5654L20.3027 9.24707L22.6406 13H20.8086L19.332 10.4707L17.8623 13H16.0166L18.3545 9.24707L16.0986 5.60352H17.9307L19.3115 8.03711ZM30.2217 11.8105C30.6364 11.8105 30.9805 11.6898 31.2539 11.4482C31.5273 11.2067 31.6732 10.9082 31.6914 10.5527H33.2568C33.2386 11.013 33.0951 11.4437 32.8262 11.8447C32.5573 12.2412 32.1927 12.5557 31.7324 12.7881C31.2721 13.0205 30.7754 13.1367 30.2422 13.1367C29.2077 13.1367 28.3874 12.8018 27.7812 12.1318C27.1751 11.4619 26.8721 10.5368 26.8721 9.35645V9.18555C26.8721 8.0599 27.1729 7.15983 27.7744 6.48535C28.376 5.80632 29.1963 5.4668 30.2354 5.4668C31.1149 5.4668 31.8304 5.72428 32.3818 6.23926C32.9378 6.74967 33.2295 7.42188 33.2568 8.25586H31.6914C31.6732 7.83203 31.5273 7.4834 31.2539 7.20996C30.985 6.93652 30.641 6.7998 30.2217 6.7998C29.6839 6.7998 29.2692 6.99577 28.9775 7.3877C28.6859 7.77507 28.5378 8.36523 28.5332 9.1582V9.4248C28.5332 10.2269 28.6768 10.8262 28.9639 11.2227C29.2555 11.6146 29.6748 11.8105 30.2217 11.8105ZM34.2002 9.2334C34.2002 8.50879 34.3438 7.8571 34.6309 7.27832C34.918 6.69499 35.3213 6.24837 35.8408 5.93848C36.3604 5.62402 36.9574 5.4668 37.6318 5.4668C38.6299 5.4668 39.4388 5.78809 40.0586 6.43066C40.6829 7.07324 41.0202 7.92546 41.0703 8.9873L41.0771 9.37695C41.0771 10.1061 40.9359 10.7578 40.6533 11.332C40.3753 11.9062 39.9743 12.3506 39.4502 12.665C38.9307 12.9795 38.3291 13.1367 37.6455 13.1367C36.6019 13.1367 35.7656 12.7904 35.1367 12.0977C34.5124 11.4004 34.2002 10.473 34.2002 9.31543V9.2334ZM35.8613 9.37695C35.8613 10.138 36.0186 10.735 36.333 11.168C36.6475 11.5964 37.085 11.8105 37.6455 11.8105C38.2061 11.8105 38.6413 11.5918 38.9512 11.1543C39.2656 10.7168 39.4229 10.0765 39.4229 9.2334C39.4229 8.486 39.2611 7.89355 38.9375 7.45605C38.6185 7.01855 38.1833 6.7998 37.6318 6.7998C37.0895 6.7998 36.6589 7.01628 36.3398 7.44922C36.0208 7.8776 35.8613 8.52018 35.8613 9.37695ZM44.0234 5.60352L44.0713 6.45801C44.6182 5.7972 45.3359 5.4668 46.2246 5.4668C47.765 5.4668 48.5488 6.34863 48.5762 8.1123V13H46.915V8.20801C46.915 7.73861 46.8125 7.39225 46.6074 7.16895C46.4069 6.94108 46.0765 6.82715 45.6162 6.82715C44.9463 6.82715 44.4473 7.13021 44.1191 7.73633V13H42.458V5.60352H44.0234ZM52.3564 3.80566V5.60352H53.6621V6.83398H52.3564V10.9629C52.3564 11.2454 52.4111 11.4505 52.5205 11.5781C52.6344 11.7012 52.835 11.7627 53.1221 11.7627C53.3135 11.7627 53.5072 11.7399 53.7031 11.6943V12.9795C53.3249 13.0843 52.9603 13.1367 52.6094 13.1367C51.3333 13.1367 50.6953 12.4326 50.6953 11.0244V6.83398H49.4785V5.60352H50.6953V3.80566H52.3564ZM59.3564 13C59.2835 12.8587 59.2197 12.6286 59.165 12.3096C58.6364 12.861 57.9893 13.1367 57.2236 13.1367C56.4808 13.1367 55.8747 12.9248 55.4053 12.501C54.9359 12.0771 54.7012 11.5531 54.7012 10.9287C54.7012 10.1403 54.9928 9.53646 55.5762 9.11719C56.1641 8.69336 57.0026 8.48145 58.0918 8.48145H59.1104V7.99609C59.1104 7.61328 59.0033 7.30794 58.7891 7.08008C58.5749 6.84766 58.249 6.73145 57.8115 6.73145C57.4333 6.73145 57.1234 6.82715 56.8818 7.01855C56.6403 7.2054 56.5195 7.44466 56.5195 7.73633H54.8584C54.8584 7.33073 54.9928 6.95247 55.2617 6.60156C55.5306 6.24609 55.8952 5.9681 56.3555 5.76758C56.8203 5.56706 57.3376 5.4668 57.9072 5.4668C58.7731 5.4668 59.4635 5.68555 59.9785 6.12305C60.4935 6.55599 60.7578 7.16667 60.7715 7.95508V11.291C60.7715 11.9564 60.8649 12.4873 61.0518 12.8838V13H59.3564ZM57.5312 11.8037C57.8594 11.8037 58.167 11.724 58.4541 11.5645C58.7458 11.4049 58.9645 11.1908 59.1104 10.9219V9.52734H58.2148C57.5996 9.52734 57.137 9.63444 56.8271 9.84863C56.5173 10.0628 56.3623 10.3659 56.3623 10.7578C56.3623 11.0768 56.4671 11.332 56.6768 11.5234C56.891 11.7103 57.1758 11.8037 57.5312 11.8037ZM64.2783 13H62.6172V5.60352H64.2783V13ZM62.5146 3.68262C62.5146 3.42741 62.5944 3.21549 62.7539 3.04688C62.918 2.87826 63.1504 2.79395 63.4512 2.79395C63.752 2.79395 63.9844 2.87826 64.1484 3.04688C64.3125 3.21549 64.3945 3.42741 64.3945 3.68262C64.3945 3.93327 64.3125 4.1429 64.1484 4.31152C63.9844 4.47559 63.752 4.55762 63.4512 4.55762C63.1504 4.55762 62.918 4.47559 62.7539 4.31152C62.5944 4.1429 62.5146 3.93327 62.5146 3.68262ZM67.6348 5.60352L67.6826 6.45801C68.2295 5.7972 68.9473 5.4668 69.8359 5.4668C71.3763 5.4668 72.1602 6.34863 72.1875 8.1123V13H70.5264V8.20801C70.5264 7.73861 70.4238 7.39225 70.2188 7.16895C70.0182 6.94108 69.6878 6.82715 69.2275 6.82715C68.5576 6.82715 68.0586 7.13021 67.7305 7.73633V13H66.0693V5.60352H67.6348ZM77.1436 13.1367C76.0908 13.1367 75.2363 12.8063 74.5801 12.1455C73.9284 11.4801 73.6025 10.596 73.6025 9.49316V9.28809C73.6025 8.5498 73.7438 7.89128 74.0264 7.3125C74.3135 6.72917 74.7145 6.27572 75.2295 5.95215C75.7445 5.62858 76.3187 5.4668 76.9521 5.4668C77.9593 5.4668 78.7363 5.78809 79.2832 6.43066C79.8346 7.07324 80.1104 7.98242 80.1104 9.1582V9.82812H75.2773C75.3275 10.4388 75.5303 10.9219 75.8857 11.2773C76.2458 11.6328 76.6969 11.8105 77.2393 11.8105C78.0003 11.8105 78.6201 11.5029 79.0986 10.8877L79.9941 11.7422C79.6979 12.1842 79.3014 12.5283 78.8047 12.7744C78.3125 13.016 77.7588 13.1367 77.1436 13.1367ZM76.9453 6.7998C76.4896 6.7998 76.1204 6.95931 75.8379 7.27832C75.5599 7.59733 75.3822 8.04167 75.3047 8.61133H78.4697V8.48828C78.4333 7.93229 78.2852 7.51302 78.0254 7.23047C77.7656 6.94336 77.4056 6.7998 76.9453 6.7998ZM85.2783 7.12109C85.0596 7.08464 84.834 7.06641 84.6016 7.06641C83.8405 7.06641 83.3278 7.35807 83.0635 7.94141V13H81.4023V5.60352H82.9883L83.0293 6.43066C83.4303 5.78809 83.9863 5.4668 84.6973 5.4668C84.9342 5.4668 85.1302 5.4987 85.2852 5.5625L85.2783 7.12109Z" fill="#BBBBBB"/>
<g opacity="0.8">
<path d="M10 39C10 37.3431 11.3431 36 13 36H58C59.6569 36 61 37.3431 61 39V80C61 81.6569 59.6569 83 58 83H13C11.3431 83 10 81.6569 10 80V39Z" fill="#1E73FF"/>
<path d="M36.8052 63.7266H35.0327V55.1646L32.418 56.0581V54.5566L36.5781 53.0259H36.8052V63.7266Z" fill="white"/>
</g>
<g opacity="0.8">
<path d="M71 39C71 37.3431 72.3431 36 74 36H100C101.657 36 103 37.3431 103 39V80C103 81.6569 101.657 83 100 83H74C72.3431 83 71 81.6569 71 80V39Z" fill="#1E73FF"/>
<path d="M90.6064 63.7266H83.436V62.5034L86.9883 58.6289C87.501 58.0576 87.8647 57.5815 88.0796 57.2007C88.2993 56.8149 88.4092 56.4292 88.4092 56.0435C88.4092 55.5356 88.2651 55.1255 87.9771 54.813C87.6938 54.5005 87.3105 54.3442 86.8271 54.3442C86.251 54.3442 85.8042 54.52 85.4868 54.8716C85.1694 55.2231 85.0107 55.7041 85.0107 56.3145H83.231C83.231 55.665 83.3774 55.0815 83.6704 54.564C83.9683 54.0415 84.3906 53.6362 84.9375 53.3481C85.4893 53.0601 86.124 52.916 86.8418 52.916C87.877 52.916 88.6924 53.1772 89.2881 53.6997C89.8887 54.2173 90.189 54.9351 90.189 55.853C90.189 56.3853 90.0376 56.9443 89.7349 57.5303C89.437 58.1113 88.9463 58.7729 88.2627 59.5151L85.6553 62.3057H90.6064V63.7266Z" fill="white"/>
</g>
<g opacity="0.8">
<path d="M113 39C113 37.3431 114.343 36 116 36H163C164.657 36 166 37.3431 166 39V80C166 81.6569 164.657 83 163 83H116C114.343 83 113 81.6569 113 80V39Z" fill="#1E73FF"/>
<path d="M137.943 57.5815H139.027C139.574 57.5767 140.006 57.4351 140.324 57.1567C140.646 56.8784 140.807 56.4756 140.807 55.9482C140.807 55.4404 140.673 55.0474 140.404 54.769C140.141 54.4858 139.735 54.3442 139.188 54.3442C138.71 54.3442 138.317 54.4834 138.009 54.7617C137.702 55.0352 137.548 55.394 137.548 55.8384H135.768C135.768 55.2915 135.912 54.7935 136.2 54.3442C136.493 53.895 136.898 53.5459 137.416 53.2969C137.938 53.043 138.522 52.916 139.167 52.916C140.231 52.916 141.066 53.1846 141.671 53.7217C142.282 54.2539 142.587 54.9961 142.587 55.9482C142.587 56.4268 142.433 56.8784 142.125 57.3032C141.823 57.7231 141.43 58.0405 140.946 58.2554C141.532 58.4556 141.977 58.7705 142.279 59.2002C142.587 59.6299 142.741 60.1426 142.741 60.7383C142.741 61.6953 142.411 62.457 141.752 63.0234C141.098 63.5898 140.236 63.873 139.167 63.873C138.141 63.873 137.301 63.5996 136.647 63.0527C135.993 62.5059 135.666 61.7783 135.666 60.8701H137.445C137.445 61.3389 137.602 61.7197 137.914 62.0127C138.231 62.3057 138.656 62.4521 139.188 62.4521C139.74 62.4521 140.175 62.3057 140.492 62.0127C140.81 61.7197 140.968 61.2949 140.968 60.7383C140.968 60.1768 140.802 59.7446 140.47 59.4419C140.138 59.1392 139.645 58.9878 138.991 58.9878H137.943V57.5815Z" fill="white"/>
</g>
<g opacity="0.8">
<path d="M176 39C176 37.3431 177.343 36 179 36H205C206.657 36 208 37.3431 208 39V80C208 81.6569 206.657 83 205 83H179C177.343 83 176 81.6569 176 80V39Z" fill="#1E73FF"/>
<path d="M194.457 59.9253H195.782V61.3535H194.457V63.7266H192.677V61.3535H188.07L188.019 60.2695L192.618 53.0625H194.457V59.9253ZM189.886 59.9253H192.677V55.4722L192.545 55.7065L189.886 59.9253Z" fill="white"/>
</g>
<g opacity="0.8">
<path d="M218 39C218 37.3431 219.343 36 221 36H262C263.657 36 265 37.3431 265 39V80C265 81.6569 263.657 83 262 83H221C219.343 83 218 81.6569 218 80V39Z" fill="#1E73FF"/>
<path d="M238.662 58.4385L239.241 53.0625H244.968V54.6006H240.72L240.427 57.1494C240.92 56.8662 241.477 56.7246 242.097 56.7246C243.113 56.7246 243.901 57.0493 244.463 57.6987C245.029 58.3481 245.312 59.2222 245.312 60.3208C245.312 61.4048 245 62.269 244.375 62.9136C243.75 63.5532 242.893 63.873 241.804 63.873C240.828 63.873 240.017 63.5972 239.373 63.0454C238.733 62.4888 238.386 61.7563 238.333 60.8481H240.054C240.122 61.3657 240.308 61.7637 240.61 62.042C240.913 62.3154 241.309 62.4521 241.797 62.4521C242.344 62.4521 242.769 62.2568 243.071 61.8662C243.379 61.4756 243.533 60.9434 243.533 60.2695C243.533 59.6201 243.364 59.1074 243.027 58.7314C242.69 58.3506 242.227 58.1602 241.636 58.1602C241.313 58.1602 241.04 58.2041 240.815 58.292C240.591 58.375 240.347 58.541 240.083 58.79L238.662 58.4385Z" fill="white"/>
</g>
<g opacity="0.8">
<path d="M10 96C10 94.3431 11.3431 93 13 93H51C52.6569 93 54 94.3431 54 96V137C54 138.657 52.6569 140 51 140H13C11.3431 140 10 138.657 10 137V96Z" fill="#1E73FF"/>
<path d="M34.3726 110.011V111.483H34.1528C33.1567 111.498 32.3608 111.771 31.7651 112.304C31.1694 112.836 30.8154 113.59 30.7031 114.567C31.2744 113.966 32.0044 113.666 32.8931 113.666C33.8354 113.666 34.5776 113.998 35.1196 114.662C35.6665 115.326 35.9399 116.183 35.9399 117.233C35.9399 118.317 35.6201 119.196 34.9805 119.87C34.3457 120.539 33.5107 120.873 32.4756 120.873C31.4111 120.873 30.5469 120.48 29.8828 119.694C29.2236 118.908 28.894 117.877 28.894 116.603V115.995C28.894 114.125 29.3481 112.66 30.2563 111.601C31.1694 110.541 32.4805 110.011 34.1895 110.011H34.3726ZM32.4609 115.102C32.0703 115.102 31.7114 115.211 31.3843 115.431C31.062 115.651 30.8252 115.944 30.6738 116.31V116.852C30.6738 117.643 30.8398 118.273 31.1719 118.742C31.5039 119.206 31.9336 119.438 32.4609 119.438C32.9883 119.438 33.4058 119.24 33.7134 118.844C34.021 118.449 34.1748 117.929 34.1748 117.284C34.1748 116.64 34.0186 116.115 33.7061 115.709C33.3936 115.304 32.9785 115.102 32.4609 115.102Z" fill="white"/>
</g>
<g opacity="0.8">
<path d="M64 96C64 94.3431 65.3431 93 67 93H139C140.657 93 142 94.3431 142 96V137C142 138.657 140.657 140 139 140H67C65.3431 140 64 138.657 64 137V96Z" fill="#1E73FF"/>
<path d="M107.232 111.051L102.97 120.727H101.102L105.357 111.491H99.8423V110.062H107.232V111.051Z" fill="white"/>
</g>
<g opacity="0.8">
<path d="M152 96C152 94.3431 153.343 93 155 93H193C194.657 93 196 94.3431 196 96V137C196 138.657 194.657 140 193 140H155C153.343 140 152 138.657 152 137V96Z" fill="#1E73FF"/>
<path d="M177.552 112.875C177.552 113.397 177.417 113.864 177.149 114.274C176.88 114.679 176.514 114.999 176.05 115.233C176.607 115.492 177.034 115.846 177.332 116.295C177.635 116.745 177.786 117.252 177.786 117.819C177.786 118.756 177.469 119.501 176.834 120.053C176.199 120.6 175.354 120.873 174.3 120.873C173.24 120.873 172.391 120.597 171.751 120.045C171.116 119.494 170.799 118.751 170.799 117.819C170.799 117.248 170.95 116.735 171.253 116.281C171.556 115.827 171.98 115.478 172.527 115.233C172.068 114.999 171.705 114.679 171.436 114.274C171.172 113.864 171.041 113.397 171.041 112.875C171.041 111.967 171.333 111.247 171.919 110.714C172.505 110.182 173.296 109.916 174.292 109.916C175.293 109.916 176.087 110.182 176.673 110.714C177.259 111.247 177.552 111.967 177.552 112.875ZM176.006 117.731C176.006 117.204 175.848 116.779 175.53 116.457C175.218 116.129 174.803 115.966 174.285 115.966C173.768 115.966 173.353 116.127 173.04 116.449C172.732 116.771 172.579 117.199 172.579 117.731C172.579 118.253 172.73 118.671 173.033 118.983C173.34 119.296 173.763 119.452 174.3 119.452C174.837 119.452 175.254 119.301 175.552 118.998C175.855 118.695 176.006 118.273 176.006 117.731ZM175.779 112.941C175.779 112.477 175.645 112.096 175.376 111.798C175.108 111.496 174.747 111.344 174.292 111.344C173.838 111.344 173.479 111.488 173.216 111.776C172.952 112.06 172.82 112.448 172.82 112.941C172.82 113.429 172.952 113.817 173.216 114.105C173.484 114.394 173.846 114.538 174.3 114.538C174.754 114.538 175.113 114.394 175.376 114.105C175.645 113.817 175.779 113.429 175.779 112.941Z" fill="white"/>
</g>
<g opacity="0.8">
<path d="M206 96C206 94.3431 207.343 93 209 93H262C263.657 93 265 94.3431 265 96V137C265 138.657 263.657 140 262 140H209C207.343 140 206 138.657 206 137V96Z" fill="#1E73FF"/>
<path d="M237.632 116.266C237.036 116.896 236.34 117.211 235.544 117.211C234.607 117.211 233.86 116.884 233.303 116.229C232.747 115.57 232.468 114.706 232.468 113.637C232.468 112.934 232.61 112.296 232.893 111.725C233.176 111.154 233.579 110.709 234.102 110.392C234.624 110.075 235.229 109.916 235.918 109.916C236.992 109.916 237.844 110.316 238.474 111.117C239.104 111.918 239.419 112.99 239.419 114.333V114.831C239.419 116.754 238.984 118.222 238.115 119.232C237.246 120.243 235.95 120.756 234.226 120.771H234.014V119.298H234.27C235.32 119.284 236.125 119.032 236.687 118.544C237.249 118.051 237.563 117.292 237.632 116.266ZM235.918 115.819C236.274 115.819 236.609 115.717 236.921 115.512C237.234 115.307 237.476 115.023 237.646 114.662V113.966C237.646 113.18 237.485 112.548 237.163 112.069C236.841 111.591 236.423 111.352 235.911 111.352C235.398 111.352 234.988 111.564 234.68 111.989C234.377 112.409 234.226 112.941 234.226 113.585C234.226 114.254 234.38 114.794 234.688 115.204C234.995 115.614 235.405 115.819 235.918 115.819Z" fill="white"/>
</g>
<g opacity="0.8">
<path d="M10 153C10 151.343 11.3431 150 13 150H63.25C64.9069 150 66.25 151.343 66.25 153V194C66.25 195.657 64.9069 197 63.25 197H13C11.3431 197 10 195.657 10 194V153Z" fill="#1E73FF"/>
<path d="M35.4048 177.727H33.6323V169.165L31.0176 170.058V168.557L35.1777 167.026H35.4048V177.727ZM46.0615 173.237C46.0615 174.77 45.7734 175.927 45.1973 176.708C44.626 177.485 43.7544 177.873 42.5825 177.873C41.4302 177.873 40.561 177.495 39.9751 176.738C39.394 175.976 39.0962 174.851 39.0815 173.361V171.516C39.0815 169.982 39.3672 168.833 39.9385 168.066C40.5146 167.299 41.3911 166.916 42.5679 166.916C43.7349 166.916 44.604 167.29 45.1753 168.037C45.7515 168.784 46.0469 169.902 46.0615 171.391V173.237ZM44.2817 171.245C44.2817 170.244 44.145 169.511 43.8716 169.047C43.5981 168.579 43.1636 168.344 42.5679 168.344C41.9868 168.344 41.5596 168.566 41.2861 169.011C41.0127 169.45 40.8687 170.139 40.854 171.076V173.493C40.854 174.489 40.9932 175.231 41.2715 175.72C41.5498 176.208 41.9868 176.452 42.5825 176.452C43.1538 176.452 43.5762 176.228 43.8496 175.778C44.123 175.324 44.2671 174.616 44.2817 173.654V171.245Z" fill="white"/>
</g>
<g opacity="0.8">
<path d="M76.25 153C76.25 151.343 77.5931 150 79.25 150H129.5C131.157 150 132.5 151.343 132.5 153V194C132.5 195.657 131.157 197 129.5 197H79.25C77.5931 197 76.25 195.657 76.25 194V153Z" fill="#1E73FF"/>
<path d="M101.655 177.727H99.8823V169.165L97.2676 170.058V168.557L101.428 167.026H101.655V177.727ZM110.18 177.727H108.408V169.165L105.793 170.058V168.557L109.953 167.026H110.18V177.727Z" fill="white"/>
</g>
</svg>
