<svg width="350" height="136" viewBox="0 0 350 136" fill="none" xmlns="http://www.w3.org/2000/svg">
<rect x="1" y="27" width="348" height="108" rx="5" fill="#F7F7F7" stroke="#AAAAAA" stroke-width="2" stroke-dasharray="6 4"/>
<path d="M5.63965 3.81934C5.1748 3.75553 4.77376 3.72363 4.43652 3.72363C3.54329 3.72363 3.09668 4.1429 3.09668 4.98145V5.60352H4.60059V6.83398H3.09668V13H1.43555V6.83398H0.307617V5.60352H1.43555V4.94043C1.4401 4.10645 1.6862 3.46842 2.17383 3.02637C2.66602 2.57975 3.35872 2.35645 4.25195 2.35645C4.80794 2.35645 5.82422 2.46582 7.30078 2.68457V13H5.63965V3.81934ZM12.3936 13.1367C11.3408 13.1367 10.4863 12.8063 9.83008 12.1455C9.17839 11.4801 8.85254 10.596 8.85254 9.49316V9.28809C8.85254 8.5498 8.99382 7.89128 9.27637 7.3125C9.56348 6.72917 9.96452 6.27572 10.4795 5.95215C10.9945 5.62858 11.5687 5.4668 12.2021 5.4668C13.2093 5.4668 13.9863 5.78809 14.5332 6.43066C15.0846 7.07324 15.3604 7.98242 15.3604 9.1582V9.82812H10.5273C10.5775 10.4388 10.7803 10.9219 11.1357 11.2773C11.4958 11.6328 11.9469 11.8105 12.4893 11.8105C13.2503 11.8105 13.8701 11.5029 14.3486 10.8877L15.2441 11.7422C14.9479 12.1842 14.5514 12.5283 14.0547 12.7744C13.5625 13.016 13.0088 13.1367 12.3936 13.1367ZM12.1953 6.7998C11.7396 6.7998 11.3704 6.95931 11.0879 7.27832C10.8099 7.59733 10.6322 8.04167 10.5547 8.61133H13.7197V8.48828C13.6833 7.93229 13.5352 7.51302 13.2754 7.23047C13.0156 6.94336 12.6556 6.7998 12.1953 6.7998ZM19.3115 8.03711L20.7197 5.60352H22.5654L20.3027 9.24707L22.6406 13H20.8086L19.332 10.4707L17.8623 13H16.0166L18.3545 9.24707L16.0986 5.60352H17.9307L19.3115 8.03711ZM30.2217 11.8105C30.6364 11.8105 30.9805 11.6898 31.2539 11.4482C31.5273 11.2067 31.6732 10.9082 31.6914 10.5527H33.2568C33.2386 11.013 33.0951 11.4437 32.8262 11.8447C32.5573 12.2412 32.1927 12.5557 31.7324 12.7881C31.2721 13.0205 30.7754 13.1367 30.2422 13.1367C29.2077 13.1367 28.3874 12.8018 27.7812 12.1318C27.1751 11.4619 26.8721 10.5368 26.8721 9.35645V9.18555C26.8721 8.0599 27.1729 7.15983 27.7744 6.48535C28.376 5.80632 29.1963 5.4668 30.2354 5.4668C31.1149 5.4668 31.8304 5.72428 32.3818 6.23926C32.9378 6.74967 33.2295 7.42188 33.2568 8.25586H31.6914C31.6732 7.83203 31.5273 7.4834 31.2539 7.20996C30.985 6.93652 30.641 6.7998 30.2217 6.7998C29.6839 6.7998 29.2692 6.99577 28.9775 7.3877C28.6859 7.77507 28.5378 8.36523 28.5332 9.1582V9.4248C28.5332 10.2269 28.6768 10.8262 28.9639 11.2227C29.2555 11.6146 29.6748 11.8105 30.2217 11.8105ZM34.2002 9.2334C34.2002 8.50879 34.3438 7.8571 34.6309 7.27832C34.918 6.69499 35.3213 6.24837 35.8408 5.93848C36.3604 5.62402 36.9574 5.4668 37.6318 5.4668C38.6299 5.4668 39.4388 5.78809 40.0586 6.43066C40.6829 7.07324 41.0202 7.92546 41.0703 8.9873L41.0771 9.37695C41.0771 10.1061 40.9359 10.7578 40.6533 11.332C40.3753 11.9062 39.9743 12.3506 39.4502 12.665C38.9307 12.9795 38.3291 13.1367 37.6455 13.1367C36.6019 13.1367 35.7656 12.7904 35.1367 12.0977C34.5124 11.4004 34.2002 10.473 34.2002 9.31543V9.2334ZM35.8613 9.37695C35.8613 10.138 36.0186 10.735 36.333 11.168C36.6475 11.5964 37.085 11.8105 37.6455 11.8105C38.2061 11.8105 38.6413 11.5918 38.9512 11.1543C39.2656 10.7168 39.4229 10.0765 39.4229 9.2334C39.4229 8.486 39.2611 7.89355 38.9375 7.45605C38.6185 7.01855 38.1833 6.7998 37.6318 6.7998C37.0895 6.7998 36.6589 7.01628 36.3398 7.44922C36.0208 7.8776 35.8613 8.52018 35.8613 9.37695ZM44.0234 5.60352L44.0713 6.45801C44.6182 5.7972 45.3359 5.4668 46.2246 5.4668C47.765 5.4668 48.5488 6.34863 48.5762 8.1123V13H46.915V8.20801C46.915 7.73861 46.8125 7.39225 46.6074 7.16895C46.4069 6.94108 46.0765 6.82715 45.6162 6.82715C44.9463 6.82715 44.4473 7.13021 44.1191 7.73633V13H42.458V5.60352H44.0234ZM52.3564 3.80566V5.60352H53.6621V6.83398H52.3564V10.9629C52.3564 11.2454 52.4111 11.4505 52.5205 11.5781C52.6344 11.7012 52.835 11.7627 53.1221 11.7627C53.3135 11.7627 53.5072 11.7399 53.7031 11.6943V12.9795C53.3249 13.0843 52.9603 13.1367 52.6094 13.1367C51.3333 13.1367 50.6953 12.4326 50.6953 11.0244V6.83398H49.4785V5.60352H50.6953V3.80566H52.3564ZM59.3564 13C59.2835 12.8587 59.2197 12.6286 59.165 12.3096C58.6364 12.861 57.9893 13.1367 57.2236 13.1367C56.4808 13.1367 55.8747 12.9248 55.4053 12.501C54.9359 12.0771 54.7012 11.5531 54.7012 10.9287C54.7012 10.1403 54.9928 9.53646 55.5762 9.11719C56.1641 8.69336 57.0026 8.48145 58.0918 8.48145H59.1104V7.99609C59.1104 7.61328 59.0033 7.30794 58.7891 7.08008C58.5749 6.84766 58.249 6.73145 57.8115 6.73145C57.4333 6.73145 57.1234 6.82715 56.8818 7.01855C56.6403 7.2054 56.5195 7.44466 56.5195 7.73633H54.8584C54.8584 7.33073 54.9928 6.95247 55.2617 6.60156C55.5306 6.24609 55.8952 5.9681 56.3555 5.76758C56.8203 5.56706 57.3376 5.4668 57.9072 5.4668C58.7731 5.4668 59.4635 5.68555 59.9785 6.12305C60.4935 6.55599 60.7578 7.16667 60.7715 7.95508V11.291C60.7715 11.9564 60.8649 12.4873 61.0518 12.8838V13H59.3564ZM57.5312 11.8037C57.8594 11.8037 58.167 11.724 58.4541 11.5645C58.7458 11.4049 58.9645 11.1908 59.1104 10.9219V9.52734H58.2148C57.5996 9.52734 57.137 9.63444 56.8271 9.84863C56.5173 10.0628 56.3623 10.3659 56.3623 10.7578C56.3623 11.0768 56.4671 11.332 56.6768 11.5234C56.891 11.7103 57.1758 11.8037 57.5312 11.8037ZM64.2783 13H62.6172V5.60352H64.2783V13ZM62.5146 3.68262C62.5146 3.42741 62.5944 3.21549 62.7539 3.04688C62.918 2.87826 63.1504 2.79395 63.4512 2.79395C63.752 2.79395 63.9844 2.87826 64.1484 3.04688C64.3125 3.21549 64.3945 3.42741 64.3945 3.68262C64.3945 3.93327 64.3125 4.1429 64.1484 4.31152C63.9844 4.47559 63.752 4.55762 63.4512 4.55762C63.1504 4.55762 62.918 4.47559 62.7539 4.31152C62.5944 4.1429 62.5146 3.93327 62.5146 3.68262ZM67.6348 5.60352L67.6826 6.45801C68.2295 5.7972 68.9473 5.4668 69.8359 5.4668C71.3763 5.4668 72.1602 6.34863 72.1875 8.1123V13H70.5264V8.20801C70.5264 7.73861 70.4238 7.39225 70.2188 7.16895C70.0182 6.94108 69.6878 6.82715 69.2275 6.82715C68.5576 6.82715 68.0586 7.13021 67.7305 7.73633V13H66.0693V5.60352H67.6348ZM77.1436 13.1367C76.0908 13.1367 75.2363 12.8063 74.5801 12.1455C73.9284 11.4801 73.6025 10.596 73.6025 9.49316V9.28809C73.6025 8.5498 73.7438 7.89128 74.0264 7.3125C74.3135 6.72917 74.7145 6.27572 75.2295 5.95215C75.7445 5.62858 76.3187 5.4668 76.9521 5.4668C77.9593 5.4668 78.7363 5.78809 79.2832 6.43066C79.8346 7.07324 80.1104 7.98242 80.1104 9.1582V9.82812H75.2773C75.3275 10.4388 75.5303 10.9219 75.8857 11.2773C76.2458 11.6328 76.6969 11.8105 77.2393 11.8105C78.0003 11.8105 78.6201 11.5029 79.0986 10.8877L79.9941 11.7422C79.6979 12.1842 79.3014 12.5283 78.8047 12.7744C78.3125 13.016 77.7588 13.1367 77.1436 13.1367ZM76.9453 6.7998C76.4896 6.7998 76.1204 6.95931 75.8379 7.27832C75.5599 7.59733 75.3822 8.04167 75.3047 8.61133H78.4697V8.48828C78.4333 7.93229 78.2852 7.51302 78.0254 7.23047C77.7656 6.94336 77.4056 6.7998 76.9453 6.7998ZM85.2783 7.12109C85.0596 7.08464 84.834 7.06641 84.6016 7.06641C83.8405 7.06641 83.3278 7.35807 83.0635 7.94141V13H81.4023V5.60352H82.9883L83.0293 6.43066C83.4303 5.78809 83.9863 5.4668 84.6973 5.4668C84.9342 5.4668 85.1302 5.4987 85.2852 5.5625L85.2783 7.12109Z" fill="#BBBBBB"/>
<g opacity="0.8">
<path d="M30 39C30 37.3431 31.3431 36 33 36H87C88.6569 36 90 37.3431 90 39V93C90 94.6569 88.6569 96 87 96H33C31.3431 96 30 94.6569 30 93V39Z" fill="#1E73FF"/>
<path d="M61.855 69.7998H60.0825V61.2378L57.4678 62.1313V60.6299L61.6279 59.0991H61.855V69.7998Z" fill="white"/>
</g>
<g opacity="0.8">
<path d="M145 39C145 37.3431 146.343 36 148 36H202C203.657 36 205 37.3431 205 39V93C205 94.6569 203.657 96 202 96H148C146.343 96 145 94.6569 145 93V39Z" fill="#1E73FF"/>
<path d="M179.206 69.7998H172.036V68.5767L175.588 64.7021C176.101 64.1309 176.464 63.6548 176.679 63.2739C176.899 62.8882 177.009 62.5024 177.009 62.1167C177.009 61.6089 176.865 61.1987 176.577 60.8862C176.293 60.5737 175.91 60.4175 175.427 60.4175C174.851 60.4175 174.404 60.5933 174.086 60.9448C173.769 61.2964 173.61 61.7773 173.61 62.3877H171.831C171.831 61.7383 171.977 61.1548 172.27 60.6372C172.568 60.1147 172.99 59.7095 173.537 59.4214C174.089 59.1333 174.724 58.9893 175.441 58.9893C176.477 58.9893 177.292 59.2505 177.888 59.7729C178.488 60.2905 178.789 61.0083 178.789 61.9263C178.789 62.4585 178.637 63.0176 178.334 63.6035C178.037 64.1846 177.546 64.8462 176.862 65.5884L174.255 68.3789H179.206V69.7998Z" fill="white"/>
</g>
<g opacity="0.8">
<path d="M261 39C261 37.3431 262.343 36 264 36H318C319.657 36 321 37.3431 321 39V93C321 94.6569 319.657 96 318 96H264C262.343 96 261 94.6569 261 93V39Z" fill="#1E73FF"/>
<path d="M290.094 63.6548H291.178C291.725 63.6499 292.157 63.5083 292.474 63.23C292.796 62.9517 292.958 62.5488 292.958 62.0215C292.958 61.5137 292.823 61.1206 292.555 60.8423C292.291 60.5591 291.886 60.4175 291.339 60.4175C290.86 60.4175 290.467 60.5566 290.16 60.835C289.852 61.1084 289.698 61.4673 289.698 61.9116H287.918C287.918 61.3647 288.062 60.8667 288.351 60.4175C288.644 59.9683 289.049 59.6191 289.566 59.3701C290.089 59.1162 290.672 58.9893 291.317 58.9893C292.381 58.9893 293.216 59.2578 293.822 59.7949C294.432 60.3271 294.737 61.0693 294.737 62.0215C294.737 62.5 294.583 62.9517 294.276 63.3765C293.973 63.7964 293.58 64.1138 293.097 64.3286C293.683 64.5288 294.127 64.8438 294.43 65.2734C294.737 65.7031 294.891 66.2158 294.891 66.8115C294.891 67.7686 294.562 68.5303 293.902 69.0967C293.248 69.6631 292.386 69.9463 291.317 69.9463C290.292 69.9463 289.452 69.6729 288.797 69.126C288.143 68.5791 287.816 67.8516 287.816 66.9434H289.596C289.596 67.4121 289.752 67.793 290.064 68.0859C290.382 68.3789 290.807 68.5254 291.339 68.5254C291.891 68.5254 292.325 68.3789 292.643 68.0859C292.96 67.793 293.119 67.3682 293.119 66.8115C293.119 66.25 292.953 65.8179 292.621 65.5151C292.289 65.2124 291.795 65.061 291.141 65.061H290.094V63.6548Z" fill="white"/>
</g>
<path d="M117.5 36L117.5 124" stroke="#AAAAAA" stroke-dasharray="4 2"/>
<path d="M232.5 36L232.5 124" stroke="#AAAAAA" stroke-dasharray="4 2"/>
<path d="M6 116.5L11 119.387V113.613L6 116.5ZM113 116.5L108 113.613V119.387L113 116.5ZM9.96296 117H13.9259V116H9.96296V117ZM15.9074 117H19.8704V116H15.9074V117ZM21.8519 117H25.8148V116H21.8519V117ZM27.7963 117H31.7593V116H27.7963V117ZM33.7407 117H37.7037V116H33.7407V117ZM39.6852 117H43.6481V116H39.6852V117ZM45.6296 117H49.5926V116H45.6296V117ZM51.5741 117L55.537 117V116L51.5741 116V117ZM57.5185 117H61.4815V116H57.5185V117ZM63.463 117H67.4259V116H63.463V117ZM69.4074 117H73.3704V116H69.4074V117ZM75.3518 117H79.3148V116H75.3518V117ZM81.2963 117H85.2592V116H81.2963V117ZM87.2407 117H91.2037V116H87.2407V117ZM93.1852 117H97.1481V116H93.1852V117ZM99.1296 117H103.093V116H99.1296V117ZM105.074 117H109.037V116H105.074V117Z" fill="#AAAAAA"/>
<path d="M122 116.5L127 119.387V113.613L122 116.5ZM228 116.5L223 113.613V119.387L228 116.5ZM125.926 117H129.852V116H125.926V117ZM131.815 117H135.741V116H131.815V117ZM137.704 117H141.63V116H137.704V117ZM143.593 117H147.519V116H143.593V117ZM149.481 117H153.407V116H149.481V117ZM155.37 117H159.296V116H155.37V117ZM161.259 117H165.185V116H161.259V117ZM167.148 117L171.074 117V116L167.148 116V117ZM173.037 117H176.963V116H173.037V117ZM178.926 117H182.852V116H178.926V117ZM184.815 117H188.741V116H184.815V117ZM190.704 117H194.63V116H190.704V117ZM196.593 117H200.519V116H196.593V117ZM202.481 117H206.407V116H202.481V117ZM208.37 117H212.296V116H208.37V117ZM214.259 117H218.185V116H214.259V117ZM220.148 117H224.074V116H220.148V117Z" fill="#AAAAAA"/>
<path d="M237 116.5L242 119.387V113.613L237 116.5ZM344 116.5L339 113.613V119.387L344 116.5ZM240.963 117H244.926V116H240.963V117ZM246.907 117H250.87V116H246.907V117ZM252.852 117H256.815V116H252.852V117ZM258.796 117H262.759V116H258.796V117ZM264.741 117H268.704V116H264.741V117ZM270.685 117H274.648V116H270.685V117ZM276.63 117H280.593V116H276.63V117ZM282.574 117L286.537 117V116L282.574 116V117ZM288.519 117H292.481V116H288.519V117ZM294.463 117H298.426V116H294.463V117ZM300.407 117H304.37V116H300.407V117ZM306.352 117H310.315V116H306.352V117ZM312.296 117H316.259V116H312.296V117ZM318.241 117H322.204V116H318.241V117ZM324.185 117H328.148V116H324.185V117ZM330.13 117H334.093V116H330.13V117ZM336.074 117H340.037V116H336.074V117Z" fill="#AAAAAA"/>
</svg>
