<svg width="383" height="120" viewBox="0 0 383 120" fill="none" xmlns="http://www.w3.org/2000/svg">
<rect x="1" y="1" width="381" height="118" rx="9" fill="#7187FB" stroke="#001EBB" stroke-width="2"/>
<g filter="url(#filter0_d)">
<rect x="189" y="20" width="50" height="50" rx="6" fill="#FFF000"/>
<rect x="190" y="21" width="48" height="48" rx="5" stroke="#001EBB" stroke-width="2"/>
</g>
<path d="M212.812 44.126H214.113C214.77 44.1201 215.288 43.9502 215.669 43.6162C216.056 43.2822 216.249 42.7988 216.249 42.166C216.249 41.5566 216.088 41.085 215.766 40.751C215.449 40.4111 214.963 40.2412 214.307 40.2412C213.732 40.2412 213.261 40.4082 212.892 40.7422C212.522 41.0703 212.338 41.501 212.338 42.0342H210.202C210.202 41.3779 210.375 40.7803 210.721 40.2412C211.072 39.7021 211.559 39.2832 212.18 38.9844C212.807 38.6797 213.507 38.5273 214.28 38.5273C215.558 38.5273 216.56 38.8496 217.286 39.4941C218.019 40.1328 218.385 41.0234 218.385 42.166C218.385 42.7402 218.2 43.2822 217.831 43.792C217.468 44.2959 216.996 44.6768 216.416 44.9346C217.119 45.1748 217.652 45.5527 218.016 46.0684C218.385 46.584 218.569 47.1992 218.569 47.9141C218.569 49.0625 218.174 49.9766 217.383 50.6562C216.598 51.3359 215.563 51.6758 214.28 51.6758C213.05 51.6758 212.042 51.3477 211.257 50.6914C210.472 50.0352 210.079 49.1621 210.079 48.0723H212.215C212.215 48.6348 212.402 49.0918 212.777 49.4434C213.158 49.7949 213.668 49.9707 214.307 49.9707C214.969 49.9707 215.49 49.7949 215.871 49.4434C216.252 49.0918 216.442 48.582 216.442 47.9141C216.442 47.2402 216.243 46.7217 215.845 46.3584C215.446 45.9951 214.854 45.8135 214.069 45.8135H212.812V44.126Z" fill="#001EBB"/>
<g filter="url(#filter1_d)">
<rect x="251" y="20" width="50" height="50" rx="6" fill="#FFF000"/>
<rect x="252" y="21" width="48" height="48" rx="5" stroke="#001EBB" stroke-width="2"/>
</g>
<path d="M280.947 51.5H272.343V50.0322L276.605 45.3828C277.221 44.6973 277.657 44.126 277.915 43.6689C278.179 43.2061 278.311 42.7432 278.311 42.2803C278.311 41.6709 278.138 41.1787 277.792 40.8037C277.452 40.4287 276.992 40.2412 276.412 40.2412C275.721 40.2412 275.185 40.4521 274.804 40.874C274.423 41.2959 274.232 41.873 274.232 42.6055H272.097C272.097 41.8262 272.272 41.126 272.624 40.5049C272.981 39.8779 273.488 39.3916 274.145 39.0459C274.807 38.7002 275.568 38.5273 276.43 38.5273C277.672 38.5273 278.65 38.8408 279.365 39.4678C280.086 40.0889 280.446 40.9502 280.446 42.0518C280.446 42.6904 280.265 43.3613 279.901 44.0645C279.544 44.7617 278.955 45.5557 278.135 46.4463L275.006 49.7949H280.947V51.5Z" fill="#001EBB"/>
<g filter="url(#filter2_d)">
<rect x="313" y="20" width="50" height="50" rx="6" fill="#FFF000"/>
<rect x="314" y="21" width="48" height="48" rx="5" stroke="#001EBB" stroke-width="2"/>
</g>
<path d="M340.126 51.5H337.999V41.2256L334.861 42.2979V40.4961L339.854 38.6592H340.126V51.5Z" fill="#001EBB"/>
<path d="M362 93C362.552 93 363 93.4477 363 94C363 94.5523 362.552 95 362 95V93ZM189.293 94.7071C188.902 94.3166 188.902 93.6834 189.293 93.2929L195.657 86.9289C196.047 86.5384 196.681 86.5384 197.071 86.9289C197.462 87.3195 197.462 87.9526 197.071 88.3431L191.414 94L197.071 99.6569C197.462 100.047 197.462 100.681 197.071 101.071C196.681 101.462 196.047 101.462 195.657 101.071L189.293 94.7071ZM362 95H190V93H362V95Z" fill="white"/>
<defs>
<filter id="filter0_d" x="189" y="20" width="56" height="56" filterUnits="userSpaceOnUse" color-interpolation-filters="sRGB">
<feFlood flood-opacity="0" result="BackgroundImageFix"/>
<feColorMatrix in="SourceAlpha" type="matrix" values="0 0 0 0 0 0 0 0 0 0 0 0 0 0 0 0 0 0 127 0"/>
<feOffset dx="6" dy="6"/>
<feColorMatrix type="matrix" values="0 0 0 0 0 0 0 0 0 0 0 0 0 0 0 0 0 0 0.15 0"/>
<feBlend mode="normal" in2="BackgroundImageFix" result="effect1_dropShadow"/>
<feBlend mode="normal" in="SourceGraphic" in2="effect1_dropShadow" result="shape"/>
</filter>
<filter id="filter1_d" x="251" y="20" width="56" height="56" filterUnits="userSpaceOnUse" color-interpolation-filters="sRGB">
<feFlood flood-opacity="0" result="BackgroundImageFix"/>
<feColorMatrix in="SourceAlpha" type="matrix" values="0 0 0 0 0 0 0 0 0 0 0 0 0 0 0 0 0 0 127 0"/>
<feOffset dx="6" dy="6"/>
<feColorMatrix type="matrix" values="0 0 0 0 0 0 0 0 0 0 0 0 0 0 0 0 0 0 0.15 0"/>
<feBlend mode="normal" in2="BackgroundImageFix" result="effect1_dropShadow"/>
<feBlend mode="normal" in="SourceGraphic" in2="effect1_dropShadow" result="shape"/>
</filter>
<filter id="filter2_d" x="313" y="20" width="56" height="56" filterUnits="userSpaceOnUse" color-interpolation-filters="sRGB">
<feFlood flood-opacity="0" result="BackgroundImageFix"/>
<feColorMatrix in="SourceAlpha" type="matrix" values="0 0 0 0 0 0 0 0 0 0 0 0 0 0 0 0 0 0 127 0"/>
<feOffset dx="6" dy="6"/>
<feColorMatrix type="matrix" values="0 0 0 0 0 0 0 0 0 0 0 0 0 0 0 0 0 0 0.15 0"/>
<feBlend mode="normal" in2="BackgroundImageFix" result="effect1_dropShadow"/>
<feBlend mode="normal" in="SourceGraphic" in2="effect1_dropShadow" result="shape"/>
</filter>
</defs>
</svg>
