<svg width="586" height="516" viewBox="0 0 586 516" fill="none" xmlns="http://www.w3.org/2000/svg">
<rect x="1" y="1" width="584" height="150" rx="9" fill="#7187FB" stroke="#001EBB" stroke-width="2"/>
<g filter="url(#filter0_d)">
<rect x="20" y="20" width="99.6" height="50" rx="6" fill="#FFF000"/>
<rect x="21" y="21" width="97.6" height="48" rx="5" stroke="#001EBB" stroke-width="2"/>
</g>
<path d="M68.8125 44.126H70.1133C70.7695 44.1201 71.2881 43.9502 71.6689 43.6162C72.0557 43.2822 72.249 42.7988 72.249 42.166C72.249 41.5566 72.0879 41.085 71.7656 40.751C71.4492 40.4111 70.9629 40.2412 70.3066 40.2412C69.7324 40.2412 69.2607 40.4082 68.8916 40.7422C68.5225 41.0703 68.3379 41.501 68.3379 42.0342H66.2021C66.2021 41.3779 66.375 40.7803 66.7207 40.2412C67.0723 39.7021 67.5586 39.2832 68.1797 38.9844C68.8066 38.6797 69.5068 38.5273 70.2803 38.5273C71.5576 38.5273 72.5596 38.8496 73.2861 39.4941C74.0186 40.1328 74.3848 41.0234 74.3848 42.166C74.3848 42.7402 74.2002 43.2822 73.8311 43.792C73.4678 44.2959 72.9961 44.6768 72.416 44.9346C73.1191 45.1748 73.6523 45.5527 74.0156 46.0684C74.3848 46.584 74.5693 47.1992 74.5693 47.9141C74.5693 49.0625 74.1738 49.9766 73.3828 50.6562C72.5977 51.3359 71.5635 51.6758 70.2803 51.6758C69.0498 51.6758 68.042 51.3477 67.2568 50.6914C66.4717 50.0352 66.0791 49.1621 66.0791 48.0723H68.2148C68.2148 48.6348 68.4023 49.0918 68.7773 49.4434C69.1582 49.7949 69.668 49.9707 70.3066 49.9707C70.9688 49.9707 71.4902 49.7949 71.8711 49.4434C72.252 49.0918 72.4424 48.582 72.4424 47.9141C72.4424 47.2402 72.2432 46.7217 71.8447 46.3584C71.4463 45.9951 70.8545 45.8135 70.0693 45.8135H68.8125V44.126Z" fill="#001EBB"/>
<g filter="url(#filter1_d)">
<rect x="131.6" y="20" width="99.6" height="50" rx="6" fill="#FFF000"/>
<rect x="132.6" y="21" width="97.6" height="48" rx="5" stroke="#001EBB" stroke-width="2"/>
</g>
<path d="M183.726 51.5H181.599V41.2256L178.461 42.2979V40.4961L183.454 38.6592H183.726V51.5Z" fill="#001EBB"/>
<g filter="url(#filter2_d)">
<rect x="243.2" y="20" width="99.6" height="50" rx="6" fill="#FFF000"/>
<rect x="244.2" y="21" width="97.6" height="48" rx="5" stroke="#001EBB" stroke-width="2"/>
</g>
<path d="M296.768 46.9385H298.358V48.6523H296.768V51.5H294.632V48.6523H289.104L289.042 47.3516L294.562 38.7031H296.768V46.9385ZM291.283 46.9385H294.632V41.5947L294.474 41.876L291.283 46.9385Z" fill="#001EBB"/>
<g filter="url(#filter3_d)">
<rect x="354.8" y="20" width="99.6" height="50" rx="6" fill="#FFF000"/>
<rect x="355.8" y="21" width="97.6" height="48" rx="5" stroke="#001EBB" stroke-width="2"/>
</g>
<path d="M409.747 51.5H401.143V50.0322L405.405 45.3828C406.021 44.6973 406.457 44.126 406.715 43.6689C406.979 43.2061 407.11 42.7432 407.11 42.2803C407.11 41.6709 406.938 41.1787 406.592 40.8037C406.252 40.4287 405.792 40.2412 405.212 40.2412C404.521 40.2412 403.984 40.4521 403.604 40.874C403.223 41.2959 403.032 41.873 403.032 42.6055H400.896C400.896 41.8262 401.072 41.126 401.424 40.5049C401.781 39.8779 402.288 39.3916 402.944 39.0459C403.606 38.7002 404.368 38.5273 405.229 38.5273C406.472 38.5273 407.45 38.8408 408.165 39.4678C408.886 40.0889 409.246 40.9502 409.246 42.0518C409.246 42.6904 409.064 43.3613 408.701 44.0645C408.344 44.7617 407.755 45.5557 406.935 46.4463L403.806 49.7949H409.747V51.5Z" fill="#001EBB"/>
<g filter="url(#filter4_d)">
<rect x="466.4" y="20" width="99.6" height="50" rx="6" fill="#FFF000"/>
<rect x="467.4" y="21" width="97.6" height="48" rx="5" stroke="#001EBB" stroke-width="2"/>
</g>
<path d="M513.314 45.1543L514.008 38.7031H520.881V40.5488H515.784L515.432 43.6074C516.024 43.2676 516.692 43.0977 517.436 43.0977C518.655 43.0977 519.601 43.4873 520.275 44.2666C520.955 45.0459 521.294 46.0947 521.294 47.4131C521.294 48.7139 520.919 49.751 520.169 50.5244C519.419 51.292 518.391 51.6758 517.084 51.6758C515.913 51.6758 514.94 51.3447 514.167 50.6826C513.399 50.0146 512.983 49.1357 512.918 48.0459H514.984C515.066 48.667 515.289 49.1445 515.652 49.4785C516.015 49.8066 516.49 49.9707 517.076 49.9707C517.732 49.9707 518.242 49.7363 518.605 49.2676C518.974 48.7988 519.159 48.1602 519.159 47.3516C519.159 46.5723 518.957 45.957 518.552 45.5059C518.148 45.0488 517.591 44.8203 516.882 44.8203C516.496 44.8203 516.167 44.873 515.898 44.9785C515.628 45.0781 515.335 45.2773 515.019 45.5762L513.314 45.1543Z" fill="#001EBB"/>
<path d="M52.5537 99.9644C52.5537 99.1782 52.7051 98.4775 53.0078 97.8623C53.3105 97.2471 53.7451 96.771 54.3115 96.4341C54.8828 96.0972 55.5444 95.9287 56.2964 95.9287C57.3657 95.9287 58.2373 96.2559 58.9111 96.9102C59.5898 97.5645 59.9683 98.4531 60.0464 99.5762L60.061 100.118C60.061 101.334 59.7217 102.311 59.043 103.048C58.3643 103.78 57.4536 104.146 56.311 104.146C55.1685 104.146 54.2554 103.78 53.5718 103.048C52.8931 102.315 52.5537 101.319 52.5537 100.06V99.9644ZM54.6704 100.118C54.6704 100.87 54.812 101.446 55.0952 101.847C55.3784 102.242 55.7837 102.44 56.311 102.44C56.8237 102.44 57.2241 102.245 57.5122 101.854C57.8003 101.458 57.9443 100.829 57.9443 99.9644C57.9443 99.2271 57.8003 98.6558 57.5122 98.2505C57.2241 97.8452 56.8188 97.6426 56.2964 97.6426C55.7788 97.6426 55.3784 97.8452 55.0952 98.2505C54.812 98.6509 54.6704 99.2734 54.6704 100.118ZM65.8179 98.0601C65.5298 98.021 65.2759 98.0015 65.0562 98.0015C64.2554 98.0015 63.7305 98.2725 63.4814 98.8145V104H61.3647V96.0752H63.3643L63.4229 97.02C63.8477 96.2925 64.436 95.9287 65.188 95.9287C65.4224 95.9287 65.6421 95.9604 65.8472 96.0239L65.8179 98.0601ZM66.3672 99.979C66.3672 98.7437 66.6431 97.7598 67.1948 97.0273C67.7515 96.2949 68.5107 95.9287 69.4727 95.9287C70.2441 95.9287 70.8813 96.2168 71.3843 96.793V92.75H73.5083V104H71.5967L71.4941 103.158C70.9668 103.817 70.2881 104.146 69.458 104.146C68.5254 104.146 67.7759 103.78 67.2095 103.048C66.6479 102.311 66.3672 101.288 66.3672 99.979ZM68.4839 100.133C68.4839 100.875 68.6133 101.444 68.8721 101.839C69.1309 102.235 69.5068 102.433 70 102.433C70.6543 102.433 71.1157 102.157 71.3843 101.605V98.4775C71.1206 97.9258 70.6641 97.6499 70.0146 97.6499C68.9941 97.6499 68.4839 98.4775 68.4839 100.133ZM78.7964 104.146C77.6343 104.146 76.687 103.79 75.9546 103.077C75.2271 102.364 74.8633 101.415 74.8633 100.228V100.023C74.8633 99.2271 75.0171 98.5166 75.3247 97.8916C75.6323 97.2617 76.0669 96.7783 76.6284 96.4414C77.1948 96.0996 77.8394 95.9287 78.562 95.9287C79.646 95.9287 80.498 96.2705 81.1182 96.9541C81.7432 97.6377 82.0557 98.6069 82.0557 99.8618V100.726H77.0093C77.0776 101.244 77.2827 101.659 77.6245 101.971C77.9712 102.284 78.4082 102.44 78.9355 102.44C79.751 102.44 80.3882 102.145 80.8472 101.554L81.8872 102.718C81.5698 103.167 81.1401 103.519 80.5981 103.773C80.0562 104.022 79.4556 104.146 78.7964 104.146ZM78.5547 97.6426C78.1348 97.6426 77.793 97.7842 77.5293 98.0674C77.2705 98.3506 77.1045 98.7559 77.0312 99.2832H79.9756V99.1147C79.9658 98.646 79.8389 98.2847 79.5947 98.0308C79.3506 97.772 79.0039 97.6426 78.5547 97.6426ZM87.7173 98.0601C87.4292 98.021 87.1753 98.0015 86.9556 98.0015C86.1548 98.0015 85.6299 98.2725 85.3809 98.8145V104H83.2642V96.0752H85.2637L85.3223 97.02C85.7471 96.2925 86.3354 95.9287 87.0874 95.9287C87.3218 95.9287 87.5415 95.9604 87.7466 96.0239L87.7173 98.0601Z" fill="white"/>
<path d="M66.9531 123.049H61.4551V120.773H66.9531V123.049ZM75.957 128H73.1348V117.121L69.7656 118.166V115.871L75.6543 113.762H75.957V128Z" fill="#FFF000"/>
<path d="M163.554 99.9644C163.554 99.1782 163.705 98.4775 164.008 97.8623C164.311 97.2471 164.745 96.771 165.312 96.4341C165.883 96.0972 166.544 95.9287 167.296 95.9287C168.366 95.9287 169.237 96.2559 169.911 96.9102C170.59 97.5645 170.968 98.4531 171.046 99.5762L171.061 100.118C171.061 101.334 170.722 102.311 170.043 103.048C169.364 103.78 168.454 104.146 167.311 104.146C166.168 104.146 165.255 103.78 164.572 103.048C163.893 102.315 163.554 101.319 163.554 100.06V99.9644ZM165.67 100.118C165.67 100.87 165.812 101.446 166.095 101.847C166.378 102.242 166.784 102.44 167.311 102.44C167.824 102.44 168.224 102.245 168.512 101.854C168.8 101.458 168.944 100.829 168.944 99.9644C168.944 99.2271 168.8 98.6558 168.512 98.2505C168.224 97.8452 167.819 97.6426 167.296 97.6426C166.779 97.6426 166.378 97.8452 166.095 98.2505C165.812 98.6509 165.67 99.2734 165.67 100.118ZM176.818 98.0601C176.53 98.021 176.276 98.0015 176.056 98.0015C175.255 98.0015 174.73 98.2725 174.481 98.8145V104H172.365V96.0752H174.364L174.423 97.02C174.848 96.2925 175.436 95.9287 176.188 95.9287C176.422 95.9287 176.642 95.9604 176.847 96.0239L176.818 98.0601ZM177.367 99.979C177.367 98.7437 177.643 97.7598 178.195 97.0273C178.751 96.2949 179.511 95.9287 180.473 95.9287C181.244 95.9287 181.881 96.2168 182.384 96.793V92.75H184.508V104H182.597L182.494 103.158C181.967 103.817 181.288 104.146 180.458 104.146C179.525 104.146 178.776 103.78 178.209 103.048C177.648 102.311 177.367 101.288 177.367 99.979ZM179.484 100.133C179.484 100.875 179.613 101.444 179.872 101.839C180.131 102.235 180.507 102.433 181 102.433C181.654 102.433 182.116 102.157 182.384 101.605V98.4775C182.121 97.9258 181.664 97.6499 181.015 97.6499C179.994 97.6499 179.484 98.4775 179.484 100.133ZM189.796 104.146C188.634 104.146 187.687 103.79 186.955 103.077C186.227 102.364 185.863 101.415 185.863 100.228V100.023C185.863 99.2271 186.017 98.5166 186.325 97.8916C186.632 97.2617 187.067 96.7783 187.628 96.4414C188.195 96.0996 188.839 95.9287 189.562 95.9287C190.646 95.9287 191.498 96.2705 192.118 96.9541C192.743 97.6377 193.056 98.6069 193.056 99.8618V100.726H188.009C188.078 101.244 188.283 101.659 188.625 101.971C188.971 102.284 189.408 102.44 189.936 102.44C190.751 102.44 191.388 102.145 191.847 101.554L192.887 102.718C192.57 103.167 192.14 103.519 191.598 103.773C191.056 104.022 190.456 104.146 189.796 104.146ZM189.555 97.6426C189.135 97.6426 188.793 97.7842 188.529 98.0674C188.271 98.3506 188.104 98.7559 188.031 99.2832H190.976V99.1147C190.966 98.646 190.839 98.2847 190.595 98.0308C190.351 97.772 190.004 97.6426 189.555 97.6426ZM198.717 98.0601C198.429 98.021 198.175 98.0015 197.956 98.0015C197.155 98.0015 196.63 98.2725 196.381 98.8145V104H194.264V96.0752H196.264L196.322 97.02C196.747 96.2925 197.335 95.9287 198.087 95.9287C198.322 95.9287 198.542 95.9604 198.747 96.0239L198.717 98.0601Z" fill="white"/>
<path d="M185.795 122.121C185.795 124.087 185.388 125.591 184.574 126.633C183.76 127.674 182.569 128.195 181 128.195C179.451 128.195 178.266 127.684 177.445 126.662C176.625 125.64 176.205 124.175 176.186 122.268V119.65C176.186 117.665 176.596 116.158 177.416 115.129C178.243 114.1 179.431 113.586 180.98 113.586C182.53 113.586 183.715 114.097 184.535 115.119C185.355 116.135 185.775 117.596 185.795 119.504V122.121ZM182.973 119.25C182.973 118.072 182.81 117.215 182.484 116.682C182.165 116.141 181.664 115.871 180.98 115.871C180.316 115.871 179.825 116.128 179.506 116.643C179.193 117.15 179.027 117.948 179.008 119.035V122.492C179.008 123.651 179.164 124.514 179.477 125.08C179.796 125.64 180.303 125.92 181 125.92C181.69 125.92 182.188 125.65 182.494 125.109C182.8 124.569 182.96 123.742 182.973 122.629V119.25Z" fill="#FFF000"/>
<path d="M275.554 99.9644C275.554 99.1782 275.705 98.4775 276.008 97.8623C276.311 97.2471 276.745 96.771 277.312 96.4341C277.883 96.0972 278.544 95.9287 279.296 95.9287C280.366 95.9287 281.237 96.2559 281.911 96.9102C282.59 97.5645 282.968 98.4531 283.046 99.5762L283.061 100.118C283.061 101.334 282.722 102.311 282.043 103.048C281.364 103.78 280.454 104.146 279.311 104.146C278.168 104.146 277.255 103.78 276.572 103.048C275.893 102.315 275.554 101.319 275.554 100.06V99.9644ZM277.67 100.118C277.67 100.87 277.812 101.446 278.095 101.847C278.378 102.242 278.784 102.44 279.311 102.44C279.824 102.44 280.224 102.245 280.512 101.854C280.8 101.458 280.944 100.829 280.944 99.9644C280.944 99.2271 280.8 98.6558 280.512 98.2505C280.224 97.8452 279.819 97.6426 279.296 97.6426C278.779 97.6426 278.378 97.8452 278.095 98.2505C277.812 98.6509 277.67 99.2734 277.67 100.118ZM288.818 98.0601C288.53 98.021 288.276 98.0015 288.056 98.0015C287.255 98.0015 286.73 98.2725 286.481 98.8145V104H284.365V96.0752H286.364L286.423 97.02C286.848 96.2925 287.436 95.9287 288.188 95.9287C288.422 95.9287 288.642 95.9604 288.847 96.0239L288.818 98.0601ZM289.367 99.979C289.367 98.7437 289.643 97.7598 290.195 97.0273C290.751 96.2949 291.511 95.9287 292.473 95.9287C293.244 95.9287 293.881 96.2168 294.384 96.793V92.75H296.508V104H294.597L294.494 103.158C293.967 103.817 293.288 104.146 292.458 104.146C291.525 104.146 290.776 103.78 290.209 103.048C289.648 102.311 289.367 101.288 289.367 99.979ZM291.484 100.133C291.484 100.875 291.613 101.444 291.872 101.839C292.131 102.235 292.507 102.433 293 102.433C293.654 102.433 294.116 102.157 294.384 101.605V98.4775C294.121 97.9258 293.664 97.6499 293.015 97.6499C291.994 97.6499 291.484 98.4775 291.484 100.133ZM301.796 104.146C300.634 104.146 299.687 103.79 298.955 103.077C298.227 102.364 297.863 101.415 297.863 100.228V100.023C297.863 99.2271 298.017 98.5166 298.325 97.8916C298.632 97.2617 299.067 96.7783 299.628 96.4414C300.195 96.0996 300.839 95.9287 301.562 95.9287C302.646 95.9287 303.498 96.2705 304.118 96.9541C304.743 97.6377 305.056 98.6069 305.056 99.8618V100.726H300.009C300.078 101.244 300.283 101.659 300.625 101.971C300.971 102.284 301.408 102.44 301.936 102.44C302.751 102.44 303.388 102.145 303.847 101.554L304.887 102.718C304.57 103.167 304.14 103.519 303.598 103.773C303.056 104.022 302.456 104.146 301.796 104.146ZM301.555 97.6426C301.135 97.6426 300.793 97.7842 300.529 98.0674C300.271 98.3506 300.104 98.7559 300.031 99.2832H302.976V99.1147C302.966 98.646 302.839 98.2847 302.595 98.0308C302.351 97.772 302.004 97.6426 301.555 97.6426ZM310.717 98.0601C310.429 98.021 310.175 98.0015 309.956 98.0015C309.155 98.0015 308.63 98.2725 308.381 98.8145V104H306.264V96.0752H308.264L308.322 97.02C308.747 96.2925 309.335 95.9287 310.087 95.9287C310.322 95.9287 310.542 95.9604 310.747 96.0239L310.717 98.0601Z" fill="white"/>
<path d="M297.795 122.121C297.795 124.087 297.388 125.591 296.574 126.633C295.76 127.674 294.569 128.195 293 128.195C291.451 128.195 290.266 127.684 289.445 126.662C288.625 125.64 288.205 124.175 288.186 122.268V119.65C288.186 117.665 288.596 116.158 289.416 115.129C290.243 114.1 291.431 113.586 292.98 113.586C294.53 113.586 295.715 114.097 296.535 115.119C297.355 116.135 297.775 117.596 297.795 119.504V122.121ZM294.973 119.25C294.973 118.072 294.81 117.215 294.484 116.682C294.165 116.141 293.664 115.871 292.98 115.871C292.316 115.871 291.825 116.128 291.506 116.643C291.193 117.15 291.027 117.948 291.008 119.035V122.492C291.008 123.651 291.164 124.514 291.477 125.08C291.796 125.64 292.303 125.92 293 125.92C293.69 125.92 294.188 125.65 294.494 125.109C294.8 124.569 294.96 123.742 294.973 122.629V119.25Z" fill="#FFF000"/>
<path d="M387.554 99.9644C387.554 99.1782 387.705 98.4775 388.008 97.8623C388.311 97.2471 388.745 96.771 389.312 96.4341C389.883 96.0972 390.544 95.9287 391.296 95.9287C392.366 95.9287 393.237 96.2559 393.911 96.9102C394.59 97.5645 394.968 98.4531 395.046 99.5762L395.061 100.118C395.061 101.334 394.722 102.311 394.043 103.048C393.364 103.78 392.454 104.146 391.311 104.146C390.168 104.146 389.255 103.78 388.572 103.048C387.893 102.315 387.554 101.319 387.554 100.06V99.9644ZM389.67 100.118C389.67 100.87 389.812 101.446 390.095 101.847C390.378 102.242 390.784 102.44 391.311 102.44C391.824 102.44 392.224 102.245 392.512 101.854C392.8 101.458 392.944 100.829 392.944 99.9644C392.944 99.2271 392.8 98.6558 392.512 98.2505C392.224 97.8452 391.819 97.6426 391.296 97.6426C390.779 97.6426 390.378 97.8452 390.095 98.2505C389.812 98.6509 389.67 99.2734 389.67 100.118ZM400.818 98.0601C400.53 98.021 400.276 98.0015 400.056 98.0015C399.255 98.0015 398.73 98.2725 398.481 98.8145V104H396.365V96.0752H398.364L398.423 97.02C398.848 96.2925 399.436 95.9287 400.188 95.9287C400.422 95.9287 400.642 95.9604 400.847 96.0239L400.818 98.0601ZM401.367 99.979C401.367 98.7437 401.643 97.7598 402.195 97.0273C402.751 96.2949 403.511 95.9287 404.473 95.9287C405.244 95.9287 405.881 96.2168 406.384 96.793V92.75H408.508V104H406.597L406.494 103.158C405.967 103.817 405.288 104.146 404.458 104.146C403.525 104.146 402.776 103.78 402.209 103.048C401.648 102.311 401.367 101.288 401.367 99.979ZM403.484 100.133C403.484 100.875 403.613 101.444 403.872 101.839C404.131 102.235 404.507 102.433 405 102.433C405.654 102.433 406.116 102.157 406.384 101.605V98.4775C406.121 97.9258 405.664 97.6499 405.015 97.6499C403.994 97.6499 403.484 98.4775 403.484 100.133ZM413.796 104.146C412.634 104.146 411.687 103.79 410.955 103.077C410.227 102.364 409.863 101.415 409.863 100.228V100.023C409.863 99.2271 410.017 98.5166 410.325 97.8916C410.632 97.2617 411.067 96.7783 411.628 96.4414C412.195 96.0996 412.839 95.9287 413.562 95.9287C414.646 95.9287 415.498 96.2705 416.118 96.9541C416.743 97.6377 417.056 98.6069 417.056 99.8618V100.726H412.009C412.078 101.244 412.283 101.659 412.625 101.971C412.971 102.284 413.408 102.44 413.936 102.44C414.751 102.44 415.388 102.145 415.847 101.554L416.887 102.718C416.57 103.167 416.14 103.519 415.598 103.773C415.056 104.022 414.456 104.146 413.796 104.146ZM413.555 97.6426C413.135 97.6426 412.793 97.7842 412.529 98.0674C412.271 98.3506 412.104 98.7559 412.031 99.2832H414.976V99.1147C414.966 98.646 414.839 98.2847 414.595 98.0308C414.351 97.772 414.004 97.6426 413.555 97.6426ZM422.717 98.0601C422.429 98.021 422.175 98.0015 421.956 98.0015C421.155 98.0015 420.63 98.2725 420.381 98.8145V104H418.264V96.0752H420.264L420.322 97.02C420.747 96.2925 421.335 95.9287 422.087 95.9287C422.322 95.9287 422.542 95.9604 422.747 96.0239L422.717 98.0601Z" fill="white"/>
<path d="M407.08 128H404.258V117.121L400.889 118.166V115.871L406.777 113.762H407.08V128Z" fill="#FFF000"/>
<path d="M498.554 99.9644C498.554 99.1782 498.705 98.4775 499.008 97.8623C499.311 97.2471 499.745 96.771 500.312 96.4341C500.883 96.0972 501.544 95.9287 502.296 95.9287C503.366 95.9287 504.237 96.2559 504.911 96.9102C505.59 97.5645 505.968 98.4531 506.046 99.5762L506.061 100.118C506.061 101.334 505.722 102.311 505.043 103.048C504.364 103.78 503.454 104.146 502.311 104.146C501.168 104.146 500.255 103.78 499.572 103.048C498.893 102.315 498.554 101.319 498.554 100.06V99.9644ZM500.67 100.118C500.67 100.87 500.812 101.446 501.095 101.847C501.378 102.242 501.784 102.44 502.311 102.44C502.824 102.44 503.224 102.245 503.512 101.854C503.8 101.458 503.944 100.829 503.944 99.9644C503.944 99.2271 503.8 98.6558 503.512 98.2505C503.224 97.8452 502.819 97.6426 502.296 97.6426C501.779 97.6426 501.378 97.8452 501.095 98.2505C500.812 98.6509 500.67 99.2734 500.67 100.118ZM511.818 98.0601C511.53 98.021 511.276 98.0015 511.056 98.0015C510.255 98.0015 509.73 98.2725 509.481 98.8145V104H507.365V96.0752H509.364L509.423 97.02C509.848 96.2925 510.436 95.9287 511.188 95.9287C511.422 95.9287 511.642 95.9604 511.847 96.0239L511.818 98.0601ZM512.367 99.979C512.367 98.7437 512.643 97.7598 513.195 97.0273C513.751 96.2949 514.511 95.9287 515.473 95.9287C516.244 95.9287 516.881 96.2168 517.384 96.793V92.75H519.508V104H517.597L517.494 103.158C516.967 103.817 516.288 104.146 515.458 104.146C514.525 104.146 513.776 103.78 513.209 103.048C512.648 102.311 512.367 101.288 512.367 99.979ZM514.484 100.133C514.484 100.875 514.613 101.444 514.872 101.839C515.131 102.235 515.507 102.433 516 102.433C516.654 102.433 517.116 102.157 517.384 101.605V98.4775C517.121 97.9258 516.664 97.6499 516.015 97.6499C514.994 97.6499 514.484 98.4775 514.484 100.133ZM524.796 104.146C523.634 104.146 522.687 103.79 521.955 103.077C521.227 102.364 520.863 101.415 520.863 100.228V100.023C520.863 99.2271 521.017 98.5166 521.325 97.8916C521.632 97.2617 522.067 96.7783 522.628 96.4414C523.195 96.0996 523.839 95.9287 524.562 95.9287C525.646 95.9287 526.498 96.2705 527.118 96.9541C527.743 97.6377 528.056 98.6069 528.056 99.8618V100.726H523.009C523.078 101.244 523.283 101.659 523.625 101.971C523.971 102.284 524.408 102.44 524.936 102.44C525.751 102.44 526.388 102.145 526.847 101.554L527.887 102.718C527.57 103.167 527.14 103.519 526.598 103.773C526.056 104.022 525.456 104.146 524.796 104.146ZM524.555 97.6426C524.135 97.6426 523.793 97.7842 523.529 98.0674C523.271 98.3506 523.104 98.7559 523.031 99.2832H525.976V99.1147C525.966 98.646 525.839 98.2847 525.595 98.0308C525.351 97.772 525.004 97.6426 524.555 97.6426ZM533.717 98.0601C533.429 98.021 533.175 98.0015 532.956 98.0015C532.155 98.0015 531.63 98.2725 531.381 98.8145V104H529.264V96.0752H531.264L531.322 97.02C531.747 96.2925 532.335 95.9287 533.087 95.9287C533.322 95.9287 533.542 95.9604 533.747 96.0239L533.717 98.0601Z" fill="white"/>
<path d="M520.971 128H511.225V126.066L515.824 121.164C516.456 120.474 516.921 119.872 517.221 119.357C517.527 118.843 517.68 118.355 517.68 117.893C517.68 117.261 517.52 116.766 517.201 116.408C516.882 116.044 516.426 115.861 515.834 115.861C515.196 115.861 514.691 116.083 514.32 116.525C513.956 116.962 513.773 117.538 513.773 118.254H510.941C510.941 117.388 511.146 116.597 511.557 115.881C511.973 115.165 512.559 114.605 513.314 114.201C514.07 113.791 514.926 113.586 515.883 113.586C517.348 113.586 518.484 113.938 519.291 114.641C520.105 115.344 520.512 116.337 520.512 117.619C520.512 118.322 520.329 119.038 519.965 119.768C519.6 120.497 518.975 121.346 518.09 122.316L514.857 125.725H520.971V128Z" fill="#FFF000"/>
<path d="M126 80V140" stroke="white" stroke-dasharray="4 2"/>
<path d="M239 80V140" stroke="white" stroke-dasharray="4 2"/>
<path d="M350 80V140" stroke="white" stroke-dasharray="4 2"/>
<path d="M462 80V140" stroke="white" stroke-dasharray="4 2"/>
<rect x="1" y="183" width="584" height="150" rx="9" fill="#7187FB" stroke="#001EBB" stroke-width="2"/>
<g filter="url(#filter5_d)">
<rect x="20" y="202" width="99.6" height="50" rx="6" fill="#FFF000"/>
<rect x="21" y="203" width="97.6" height="48" rx="5" stroke="#001EBB" stroke-width="2"/>
</g>
<path d="M66.9141 227.154L67.6084 220.703H74.4814V222.549H69.3838L69.0322 225.607C69.624 225.268 70.292 225.098 71.0361 225.098C72.2549 225.098 73.2012 225.487 73.875 226.267C74.5547 227.046 74.8945 228.095 74.8945 229.413C74.8945 230.714 74.5195 231.751 73.7695 232.524C73.0195 233.292 71.9912 233.676 70.6846 233.676C69.5127 233.676 68.54 233.345 67.7666 232.683C66.999 232.015 66.583 231.136 66.5186 230.046H68.584C68.666 230.667 68.8887 231.145 69.252 231.479C69.6152 231.807 70.0898 231.971 70.6758 231.971C71.332 231.971 71.8418 231.736 72.2051 231.268C72.5742 230.799 72.7588 230.16 72.7588 229.352C72.7588 228.572 72.5566 227.957 72.1523 227.506C71.748 227.049 71.1914 226.82 70.4824 226.82C70.0957 226.82 69.7676 226.873 69.498 226.979C69.2285 227.078 68.9355 227.277 68.6191 227.576L66.9141 227.154Z" fill="#001EBB"/>
<g filter="url(#filter6_d)">
<rect x="131.6" y="202" width="99.6" height="50" rx="6" fill="#FFF000"/>
<rect x="132.6" y="203" width="97.6" height="48" rx="5" stroke="#001EBB" stroke-width="2"/>
</g>
<path d="M185.167 228.938H186.758V230.652H185.167V233.5H183.032V230.652H177.503L177.442 229.352L182.961 220.703H185.167V228.938ZM179.683 228.938H183.032V223.595L182.874 223.876L179.683 228.938Z" fill="#001EBB"/>
<g filter="url(#filter7_d)">
<rect x="243.2" y="202" width="99.6" height="50" rx="6" fill="#FFF000"/>
<rect x="244.2" y="203" width="97.6" height="48" rx="5" stroke="#001EBB" stroke-width="2"/>
</g>
<path d="M292.013 226.126H293.313C293.97 226.12 294.488 225.95 294.869 225.616C295.256 225.282 295.449 224.799 295.449 224.166C295.449 223.557 295.288 223.085 294.966 222.751C294.649 222.411 294.163 222.241 293.507 222.241C292.933 222.241 292.461 222.408 292.092 222.742C291.723 223.07 291.538 223.501 291.538 224.034H289.402C289.402 223.378 289.575 222.78 289.921 222.241C290.272 221.702 290.759 221.283 291.38 220.984C292.007 220.68 292.707 220.527 293.48 220.527C294.758 220.527 295.76 220.85 296.486 221.494C297.219 222.133 297.585 223.023 297.585 224.166C297.585 224.74 297.4 225.282 297.031 225.792C296.668 226.296 296.196 226.677 295.616 226.935C296.319 227.175 296.853 227.553 297.216 228.068C297.585 228.584 297.77 229.199 297.77 229.914C297.77 231.062 297.374 231.977 296.583 232.656C295.798 233.336 294.764 233.676 293.48 233.676C292.25 233.676 291.242 233.348 290.457 232.691C289.672 232.035 289.279 231.162 289.279 230.072H291.415C291.415 230.635 291.603 231.092 291.978 231.443C292.358 231.795 292.868 231.971 293.507 231.971C294.169 231.971 294.69 231.795 295.071 231.443C295.452 231.092 295.643 230.582 295.643 229.914C295.643 229.24 295.443 228.722 295.045 228.358C294.646 227.995 294.055 227.813 293.27 227.813H292.013V226.126Z" fill="#001EBB"/>
<g filter="url(#filter8_d)">
<rect x="354.8" y="202" width="99.6" height="50" rx="6" fill="#FFF000"/>
<rect x="355.8" y="203" width="97.6" height="48" rx="5" stroke="#001EBB" stroke-width="2"/>
</g>
<path d="M409.747 233.5H401.143V232.032L405.405 227.383C406.021 226.697 406.457 226.126 406.715 225.669C406.979 225.206 407.11 224.743 407.11 224.28C407.11 223.671 406.938 223.179 406.592 222.804C406.252 222.429 405.792 222.241 405.212 222.241C404.521 222.241 403.984 222.452 403.604 222.874C403.223 223.296 403.032 223.873 403.032 224.605H400.896C400.896 223.826 401.072 223.126 401.424 222.505C401.781 221.878 402.288 221.392 402.944 221.046C403.606 220.7 404.368 220.527 405.229 220.527C406.472 220.527 407.45 220.841 408.165 221.468C408.886 222.089 409.246 222.95 409.246 224.052C409.246 224.69 409.064 225.361 408.701 226.064C408.344 226.762 407.755 227.556 406.935 228.446L403.806 231.795H409.747V233.5Z" fill="#001EBB"/>
<g filter="url(#filter9_d)">
<rect x="466.4" y="202" width="99.6" height="50" rx="6" fill="#FFF000"/>
<rect x="467.4" y="203" width="97.6" height="48" rx="5" stroke="#001EBB" stroke-width="2"/>
</g>
<path d="M518.526 233.5H516.399V223.226L513.261 224.298V222.496L518.253 220.659H518.526V233.5Z" fill="#001EBB"/>
<path d="M52.5537 281.964C52.5537 281.178 52.7051 280.478 53.0078 279.862C53.3105 279.247 53.7451 278.771 54.3115 278.434C54.8828 278.097 55.5444 277.929 56.2964 277.929C57.3657 277.929 58.2373 278.256 58.9111 278.91C59.5898 279.564 59.9683 280.453 60.0464 281.576L60.061 282.118C60.061 283.334 59.7217 284.311 59.043 285.048C58.3643 285.78 57.4536 286.146 56.311 286.146C55.1685 286.146 54.2554 285.78 53.5718 285.048C52.8931 284.315 52.5537 283.319 52.5537 282.06V281.964ZM54.6704 282.118C54.6704 282.87 54.812 283.446 55.0952 283.847C55.3784 284.242 55.7837 284.44 56.311 284.44C56.8237 284.44 57.2241 284.245 57.5122 283.854C57.8003 283.458 57.9443 282.829 57.9443 281.964C57.9443 281.227 57.8003 280.656 57.5122 280.25C57.2241 279.845 56.8188 279.643 56.2964 279.643C55.7788 279.643 55.3784 279.845 55.0952 280.25C54.812 280.651 54.6704 281.273 54.6704 282.118ZM65.8179 280.06C65.5298 280.021 65.2759 280.001 65.0562 280.001C64.2554 280.001 63.7305 280.272 63.4814 280.814V286H61.3647V278.075H63.3643L63.4229 279.02C63.8477 278.292 64.436 277.929 65.188 277.929C65.4224 277.929 65.6421 277.96 65.8472 278.024L65.8179 280.06ZM66.3672 281.979C66.3672 280.744 66.6431 279.76 67.1948 279.027C67.7515 278.295 68.5107 277.929 69.4727 277.929C70.2441 277.929 70.8813 278.217 71.3843 278.793V274.75H73.5083V286H71.5967L71.4941 285.158C70.9668 285.817 70.2881 286.146 69.458 286.146C68.5254 286.146 67.7759 285.78 67.2095 285.048C66.6479 284.311 66.3672 283.288 66.3672 281.979ZM68.4839 282.133C68.4839 282.875 68.6133 283.444 68.8721 283.839C69.1309 284.235 69.5068 284.433 70 284.433C70.6543 284.433 71.1157 284.157 71.3843 283.605V280.478C71.1206 279.926 70.6641 279.65 70.0146 279.65C68.9941 279.65 68.4839 280.478 68.4839 282.133ZM78.7964 286.146C77.6343 286.146 76.687 285.79 75.9546 285.077C75.2271 284.364 74.8633 283.415 74.8633 282.228V282.023C74.8633 281.227 75.0171 280.517 75.3247 279.892C75.6323 279.262 76.0669 278.778 76.6284 278.441C77.1948 278.1 77.8394 277.929 78.562 277.929C79.646 277.929 80.498 278.271 81.1182 278.954C81.7432 279.638 82.0557 280.607 82.0557 281.862V282.726H77.0093C77.0776 283.244 77.2827 283.659 77.6245 283.971C77.9712 284.284 78.4082 284.44 78.9355 284.44C79.751 284.44 80.3882 284.145 80.8472 283.554L81.8872 284.718C81.5698 285.167 81.1401 285.519 80.5981 285.773C80.0562 286.022 79.4556 286.146 78.7964 286.146ZM78.5547 279.643C78.1348 279.643 77.793 279.784 77.5293 280.067C77.2705 280.351 77.1045 280.756 77.0312 281.283H79.9756V281.115C79.9658 280.646 79.8389 280.285 79.5947 280.031C79.3506 279.772 79.0039 279.643 78.5547 279.643ZM87.7173 280.06C87.4292 280.021 87.1753 280.001 86.9556 280.001C86.1548 280.001 85.6299 280.272 85.3809 280.814V286H83.2642V278.075H85.2637L85.3223 279.02C85.7471 278.292 86.3354 277.929 87.0874 277.929C87.3218 277.929 87.5415 277.96 87.7466 278.024L87.7173 280.06Z" fill="white"/>
<path d="M66.9531 305.049H61.4551V302.773H66.9531V305.049ZM77.4512 304.648H79.0625V306.924H77.4512V310H74.6289V306.924H68.7988L68.6719 305.146L74.5996 295.781H77.4512V304.648ZM71.4844 304.648H74.6289V299.629L74.4434 299.951L71.4844 304.648Z" fill="#FFF000"/>
<path d="M163.554 281.964C163.554 281.178 163.705 280.478 164.008 279.862C164.311 279.247 164.745 278.771 165.312 278.434C165.883 278.097 166.544 277.929 167.296 277.929C168.366 277.929 169.237 278.256 169.911 278.91C170.59 279.564 170.968 280.453 171.046 281.576L171.061 282.118C171.061 283.334 170.722 284.311 170.043 285.048C169.364 285.78 168.454 286.146 167.311 286.146C166.168 286.146 165.255 285.78 164.572 285.048C163.893 284.315 163.554 283.319 163.554 282.06V281.964ZM165.67 282.118C165.67 282.87 165.812 283.446 166.095 283.847C166.378 284.242 166.784 284.44 167.311 284.44C167.824 284.44 168.224 284.245 168.512 283.854C168.8 283.458 168.944 282.829 168.944 281.964C168.944 281.227 168.8 280.656 168.512 280.25C168.224 279.845 167.819 279.643 167.296 279.643C166.779 279.643 166.378 279.845 166.095 280.25C165.812 280.651 165.67 281.273 165.67 282.118ZM176.818 280.06C176.53 280.021 176.276 280.001 176.056 280.001C175.255 280.001 174.73 280.272 174.481 280.814V286H172.365V278.075H174.364L174.423 279.02C174.848 278.292 175.436 277.929 176.188 277.929C176.422 277.929 176.642 277.96 176.847 278.024L176.818 280.06ZM177.367 281.979C177.367 280.744 177.643 279.76 178.195 279.027C178.751 278.295 179.511 277.929 180.473 277.929C181.244 277.929 181.881 278.217 182.384 278.793V274.75H184.508V286H182.597L182.494 285.158C181.967 285.817 181.288 286.146 180.458 286.146C179.525 286.146 178.776 285.78 178.209 285.048C177.648 284.311 177.367 283.288 177.367 281.979ZM179.484 282.133C179.484 282.875 179.613 283.444 179.872 283.839C180.131 284.235 180.507 284.433 181 284.433C181.654 284.433 182.116 284.157 182.384 283.605V280.478C182.121 279.926 181.664 279.65 181.015 279.65C179.994 279.65 179.484 280.478 179.484 282.133ZM189.796 286.146C188.634 286.146 187.687 285.79 186.955 285.077C186.227 284.364 185.863 283.415 185.863 282.228V282.023C185.863 281.227 186.017 280.517 186.325 279.892C186.632 279.262 187.067 278.778 187.628 278.441C188.195 278.1 188.839 277.929 189.562 277.929C190.646 277.929 191.498 278.271 192.118 278.954C192.743 279.638 193.056 280.607 193.056 281.862V282.726H188.009C188.078 283.244 188.283 283.659 188.625 283.971C188.971 284.284 189.408 284.44 189.936 284.44C190.751 284.44 191.388 284.145 191.847 283.554L192.887 284.718C192.57 285.167 192.14 285.519 191.598 285.773C191.056 286.022 190.456 286.146 189.796 286.146ZM189.555 279.643C189.135 279.643 188.793 279.784 188.529 280.067C188.271 280.351 188.104 280.756 188.031 281.283H190.976V281.115C190.966 280.646 190.839 280.285 190.595 280.031C190.351 279.772 190.004 279.643 189.555 279.643ZM198.717 280.06C198.429 280.021 198.175 280.001 197.956 280.001C197.155 280.001 196.63 280.272 196.381 280.814V286H194.264V278.075H196.264L196.322 279.02C196.747 278.292 197.335 277.929 198.087 277.929C198.322 277.929 198.542 277.96 198.747 278.024L198.717 280.06Z" fill="white"/>
<path d="M177.953 305.049H172.455V302.773H177.953V305.049ZM182.973 301.641H184.477C185.193 301.641 185.723 301.462 186.068 301.104C186.413 300.745 186.586 300.27 186.586 299.678C186.586 299.105 186.413 298.659 186.068 298.34C185.73 298.021 185.261 297.861 184.662 297.861C184.122 297.861 183.669 298.011 183.305 298.311C182.94 298.604 182.758 298.988 182.758 299.463H179.936C179.936 298.721 180.134 298.057 180.531 297.471C180.935 296.878 181.495 296.416 182.211 296.084C182.934 295.752 183.728 295.586 184.594 295.586C186.098 295.586 187.276 295.947 188.129 296.67C188.982 297.386 189.408 298.376 189.408 299.639C189.408 300.29 189.21 300.889 188.812 301.436C188.415 301.982 187.895 302.402 187.25 302.695C188.051 302.982 188.646 303.411 189.037 303.984C189.434 304.557 189.633 305.234 189.633 306.016C189.633 307.279 189.171 308.291 188.246 309.053C187.328 309.814 186.111 310.195 184.594 310.195C183.174 310.195 182.012 309.821 181.107 309.072C180.209 308.324 179.76 307.334 179.76 306.104H182.582C182.582 306.637 182.781 307.074 183.178 307.412C183.581 307.751 184.076 307.92 184.662 307.92C185.333 307.92 185.857 307.744 186.234 307.393C186.618 307.035 186.811 306.562 186.811 305.977C186.811 304.557 186.029 303.848 184.467 303.848H182.973V301.641Z" fill="#FFF000"/>
<path d="M275.554 281.964C275.554 281.178 275.705 280.478 276.008 279.862C276.311 279.247 276.745 278.771 277.312 278.434C277.883 278.097 278.544 277.929 279.296 277.929C280.366 277.929 281.237 278.256 281.911 278.91C282.59 279.564 282.968 280.453 283.046 281.576L283.061 282.118C283.061 283.334 282.722 284.311 282.043 285.048C281.364 285.78 280.454 286.146 279.311 286.146C278.168 286.146 277.255 285.78 276.572 285.048C275.893 284.315 275.554 283.319 275.554 282.06V281.964ZM277.67 282.118C277.67 282.87 277.812 283.446 278.095 283.847C278.378 284.242 278.784 284.44 279.311 284.44C279.824 284.44 280.224 284.245 280.512 283.854C280.8 283.458 280.944 282.829 280.944 281.964C280.944 281.227 280.8 280.656 280.512 280.25C280.224 279.845 279.819 279.643 279.296 279.643C278.779 279.643 278.378 279.845 278.095 280.25C277.812 280.651 277.67 281.273 277.67 282.118ZM288.818 280.06C288.53 280.021 288.276 280.001 288.056 280.001C287.255 280.001 286.73 280.272 286.481 280.814V286H284.365V278.075H286.364L286.423 279.02C286.848 278.292 287.436 277.929 288.188 277.929C288.422 277.929 288.642 277.96 288.847 278.024L288.818 280.06ZM289.367 281.979C289.367 280.744 289.643 279.76 290.195 279.027C290.751 278.295 291.511 277.929 292.473 277.929C293.244 277.929 293.881 278.217 294.384 278.793V274.75H296.508V286H294.597L294.494 285.158C293.967 285.817 293.288 286.146 292.458 286.146C291.525 286.146 290.776 285.78 290.209 285.048C289.648 284.311 289.367 283.288 289.367 281.979ZM291.484 282.133C291.484 282.875 291.613 283.444 291.872 283.839C292.131 284.235 292.507 284.433 293 284.433C293.654 284.433 294.116 284.157 294.384 283.605V280.478C294.121 279.926 293.664 279.65 293.015 279.65C291.994 279.65 291.484 280.478 291.484 282.133ZM301.796 286.146C300.634 286.146 299.687 285.79 298.955 285.077C298.227 284.364 297.863 283.415 297.863 282.228V282.023C297.863 281.227 298.017 280.517 298.325 279.892C298.632 279.262 299.067 278.778 299.628 278.441C300.195 278.1 300.839 277.929 301.562 277.929C302.646 277.929 303.498 278.271 304.118 278.954C304.743 279.638 305.056 280.607 305.056 281.862V282.726H300.009C300.078 283.244 300.283 283.659 300.625 283.971C300.971 284.284 301.408 284.44 301.936 284.44C302.751 284.44 303.388 284.145 303.847 283.554L304.887 284.718C304.57 285.167 304.14 285.519 303.598 285.773C303.056 286.022 302.456 286.146 301.796 286.146ZM301.555 279.643C301.135 279.643 300.793 279.784 300.529 280.067C300.271 280.351 300.104 280.756 300.031 281.283H302.976V281.115C302.966 280.646 302.839 280.285 302.595 280.031C302.351 279.772 302.004 279.643 301.555 279.643ZM310.717 280.06C310.429 280.021 310.175 280.001 309.956 280.001C309.155 280.001 308.63 280.272 308.381 280.814V286H306.264V278.075H308.264L308.322 279.02C308.747 278.292 309.335 277.929 310.087 277.929C310.322 277.929 310.542 277.96 310.747 278.024L310.717 280.06Z" fill="white"/>
<path d="M289.953 305.049H284.455V302.773H289.953V305.049ZM301.848 310H292.102V308.066L296.701 303.164C297.333 302.474 297.798 301.872 298.098 301.357C298.404 300.843 298.557 300.355 298.557 299.893C298.557 299.261 298.397 298.766 298.078 298.408C297.759 298.044 297.303 297.861 296.711 297.861C296.073 297.861 295.568 298.083 295.197 298.525C294.833 298.962 294.65 299.538 294.65 300.254H291.818C291.818 299.388 292.023 298.597 292.434 297.881C292.85 297.165 293.436 296.605 294.191 296.201C294.947 295.791 295.803 295.586 296.76 295.586C298.225 295.586 299.361 295.938 300.168 296.641C300.982 297.344 301.389 298.337 301.389 299.619C301.389 300.322 301.206 301.038 300.842 301.768C300.477 302.497 299.852 303.346 298.967 304.316L295.734 307.725H301.848V310Z" fill="#FFF000"/>
<path d="M387.554 281.964C387.554 281.178 387.705 280.478 388.008 279.862C388.311 279.247 388.745 278.771 389.312 278.434C389.883 278.097 390.544 277.929 391.296 277.929C392.366 277.929 393.237 278.256 393.911 278.91C394.59 279.564 394.968 280.453 395.046 281.576L395.061 282.118C395.061 283.334 394.722 284.311 394.043 285.048C393.364 285.78 392.454 286.146 391.311 286.146C390.168 286.146 389.255 285.78 388.572 285.048C387.893 284.315 387.554 283.319 387.554 282.06V281.964ZM389.67 282.118C389.67 282.87 389.812 283.446 390.095 283.847C390.378 284.242 390.784 284.44 391.311 284.44C391.824 284.44 392.224 284.245 392.512 283.854C392.8 283.458 392.944 282.829 392.944 281.964C392.944 281.227 392.8 280.656 392.512 280.25C392.224 279.845 391.819 279.643 391.296 279.643C390.779 279.643 390.378 279.845 390.095 280.25C389.812 280.651 389.67 281.273 389.67 282.118ZM400.818 280.06C400.53 280.021 400.276 280.001 400.056 280.001C399.255 280.001 398.73 280.272 398.481 280.814V286H396.365V278.075H398.364L398.423 279.02C398.848 278.292 399.436 277.929 400.188 277.929C400.422 277.929 400.642 277.96 400.847 278.024L400.818 280.06ZM401.367 281.979C401.367 280.744 401.643 279.76 402.195 279.027C402.751 278.295 403.511 277.929 404.473 277.929C405.244 277.929 405.881 278.217 406.384 278.793V274.75H408.508V286H406.597L406.494 285.158C405.967 285.817 405.288 286.146 404.458 286.146C403.525 286.146 402.776 285.78 402.209 285.048C401.648 284.311 401.367 283.288 401.367 281.979ZM403.484 282.133C403.484 282.875 403.613 283.444 403.872 283.839C404.131 284.235 404.507 284.433 405 284.433C405.654 284.433 406.116 284.157 406.384 283.605V280.478C406.121 279.926 405.664 279.65 405.015 279.65C403.994 279.65 403.484 280.478 403.484 282.133ZM413.796 286.146C412.634 286.146 411.687 285.79 410.955 285.077C410.227 284.364 409.863 283.415 409.863 282.228V282.023C409.863 281.227 410.017 280.517 410.325 279.892C410.632 279.262 411.067 278.778 411.628 278.441C412.195 278.1 412.839 277.929 413.562 277.929C414.646 277.929 415.498 278.271 416.118 278.954C416.743 279.638 417.056 280.607 417.056 281.862V282.726H412.009C412.078 283.244 412.283 283.659 412.625 283.971C412.971 284.284 413.408 284.44 413.936 284.44C414.751 284.44 415.388 284.145 415.847 283.554L416.887 284.718C416.57 285.167 416.14 285.519 415.598 285.773C415.056 286.022 414.456 286.146 413.796 286.146ZM413.555 279.643C413.135 279.643 412.793 279.784 412.529 280.067C412.271 280.351 412.104 280.756 412.031 281.283H414.976V281.115C414.966 280.646 414.839 280.285 414.595 280.031C414.351 279.772 414.004 279.643 413.555 279.643ZM422.717 280.06C422.429 280.021 422.175 280.001 421.956 280.001C421.155 280.001 420.63 280.272 420.381 280.814V286H418.264V278.075H420.264L420.322 279.02C420.747 278.292 421.335 277.929 422.087 277.929C422.322 277.929 422.542 277.96 422.747 278.024L422.717 280.06Z" fill="white"/>
<path d="M401.953 305.049H396.455V302.773H401.953V305.049ZM410.957 310H408.135V299.121L404.766 300.166V297.871L410.654 295.762H410.957V310Z" fill="#FFF000"/>
<path d="M498.554 281.964C498.554 281.178 498.705 280.478 499.008 279.862C499.311 279.247 499.745 278.771 500.312 278.434C500.883 278.097 501.544 277.929 502.296 277.929C503.366 277.929 504.237 278.256 504.911 278.91C505.59 279.564 505.968 280.453 506.046 281.576L506.061 282.118C506.061 283.334 505.722 284.311 505.043 285.048C504.364 285.78 503.454 286.146 502.311 286.146C501.168 286.146 500.255 285.78 499.572 285.048C498.893 284.315 498.554 283.319 498.554 282.06V281.964ZM500.67 282.118C500.67 282.87 500.812 283.446 501.095 283.847C501.378 284.242 501.784 284.44 502.311 284.44C502.824 284.44 503.224 284.245 503.512 283.854C503.8 283.458 503.944 282.829 503.944 281.964C503.944 281.227 503.8 280.656 503.512 280.25C503.224 279.845 502.819 279.643 502.296 279.643C501.779 279.643 501.378 279.845 501.095 280.25C500.812 280.651 500.67 281.273 500.67 282.118ZM511.818 280.06C511.53 280.021 511.276 280.001 511.056 280.001C510.255 280.001 509.73 280.272 509.481 280.814V286H507.365V278.075H509.364L509.423 279.02C509.848 278.292 510.436 277.929 511.188 277.929C511.422 277.929 511.642 277.96 511.847 278.024L511.818 280.06ZM512.367 281.979C512.367 280.744 512.643 279.76 513.195 279.027C513.751 278.295 514.511 277.929 515.473 277.929C516.244 277.929 516.881 278.217 517.384 278.793V274.75H519.508V286H517.597L517.494 285.158C516.967 285.817 516.288 286.146 515.458 286.146C514.525 286.146 513.776 285.78 513.209 285.048C512.648 284.311 512.367 283.288 512.367 281.979ZM514.484 282.133C514.484 282.875 514.613 283.444 514.872 283.839C515.131 284.235 515.507 284.433 516 284.433C516.654 284.433 517.116 284.157 517.384 283.605V280.478C517.121 279.926 516.664 279.65 516.015 279.65C514.994 279.65 514.484 280.478 514.484 282.133ZM524.796 286.146C523.634 286.146 522.687 285.79 521.955 285.077C521.227 284.364 520.863 283.415 520.863 282.228V282.023C520.863 281.227 521.017 280.517 521.325 279.892C521.632 279.262 522.067 278.778 522.628 278.441C523.195 278.1 523.839 277.929 524.562 277.929C525.646 277.929 526.498 278.271 527.118 278.954C527.743 279.638 528.056 280.607 528.056 281.862V282.726H523.009C523.078 283.244 523.283 283.659 523.625 283.971C523.971 284.284 524.408 284.44 524.936 284.44C525.751 284.44 526.388 284.145 526.847 283.554L527.887 284.718C527.57 285.167 527.14 285.519 526.598 285.773C526.056 286.022 525.456 286.146 524.796 286.146ZM524.555 279.643C524.135 279.643 523.793 279.784 523.529 280.067C523.271 280.351 523.104 280.756 523.031 281.283H525.976V281.115C525.966 280.646 525.839 280.285 525.595 280.031C525.351 279.772 525.004 279.643 524.555 279.643ZM533.717 280.06C533.429 280.021 533.175 280.001 532.956 280.001C532.155 280.001 531.63 280.272 531.381 280.814V286H529.264V278.075H531.264L531.322 279.02C531.747 278.292 532.335 277.929 533.087 277.929C533.322 277.929 533.542 277.96 533.747 278.024L533.717 280.06Z" fill="white"/>
<path d="M520.795 304.121C520.795 306.087 520.388 307.591 519.574 308.633C518.76 309.674 517.569 310.195 516 310.195C514.451 310.195 513.266 309.684 512.445 308.662C511.625 307.64 511.205 306.175 511.186 304.268V301.65C511.186 299.665 511.596 298.158 512.416 297.129C513.243 296.1 514.431 295.586 515.98 295.586C517.53 295.586 518.715 296.097 519.535 297.119C520.355 298.135 520.775 299.596 520.795 301.504V304.121ZM517.973 301.25C517.973 300.072 517.81 299.215 517.484 298.682C517.165 298.141 516.664 297.871 515.98 297.871C515.316 297.871 514.825 298.128 514.506 298.643C514.193 299.15 514.027 299.948 514.008 301.035V304.492C514.008 305.651 514.164 306.514 514.477 307.08C514.796 307.64 515.303 307.92 516 307.92C516.69 307.92 517.188 307.65 517.494 307.109C517.8 306.569 517.96 305.742 517.973 304.629V301.25Z" fill="#FFF000"/>
<path d="M126 262V322" stroke="white" stroke-dasharray="4 2"/>
<path d="M239 262V322" stroke="white" stroke-dasharray="4 2"/>
<path d="M350 262V322" stroke="white" stroke-dasharray="4 2"/>
<path d="M462 262V322" stroke="white" stroke-dasharray="4 2"/>
<rect x="1" y="365" width="584" height="150" rx="9" fill="#7187FB" stroke="#001EBB" stroke-width="2"/>
<g filter="url(#filter10_d)">
<rect x="20" y="384" width="99.6" height="50" rx="6" fill="#FFF000"/>
<rect x="21" y="385" width="97.6" height="48" rx="5" stroke="#001EBB" stroke-width="2"/>
</g>
<path d="M66.9141 409.154L67.6084 402.703H74.4814V404.549H69.3838L69.0322 407.607C69.624 407.268 70.292 407.098 71.0361 407.098C72.2549 407.098 73.2012 407.487 73.875 408.267C74.5547 409.046 74.8945 410.095 74.8945 411.413C74.8945 412.714 74.5195 413.751 73.7695 414.524C73.0195 415.292 71.9912 415.676 70.6846 415.676C69.5127 415.676 68.54 415.345 67.7666 414.683C66.999 414.015 66.583 413.136 66.5186 412.046H68.584C68.666 412.667 68.8887 413.145 69.252 413.479C69.6152 413.807 70.0898 413.971 70.6758 413.971C71.332 413.971 71.8418 413.736 72.2051 413.268C72.5742 412.799 72.7588 412.16 72.7588 411.352C72.7588 410.572 72.5566 409.957 72.1523 409.506C71.748 409.049 71.1914 408.82 70.4824 408.82C70.0957 408.82 69.7676 408.873 69.498 408.979C69.2285 409.078 68.9355 409.277 68.6191 409.576L66.9141 409.154Z" fill="#001EBB"/>
<g filter="url(#filter11_d)">
<rect x="131.6" y="384" width="99.6" height="50" rx="6" fill="#FFF000"/>
<rect x="132.6" y="385" width="97.6" height="48" rx="5" stroke="#001EBB" stroke-width="2"/>
</g>
<path d="M180.413 408.126H181.713C182.37 408.12 182.888 407.95 183.269 407.616C183.656 407.282 183.849 406.799 183.849 406.166C183.849 405.557 183.688 405.085 183.366 404.751C183.049 404.411 182.563 404.241 181.907 404.241C181.333 404.241 180.861 404.408 180.492 404.742C180.123 405.07 179.938 405.501 179.938 406.034H177.802C177.802 405.378 177.975 404.78 178.321 404.241C178.672 403.702 179.159 403.283 179.78 402.984C180.407 402.68 181.107 402.527 181.88 402.527C183.158 402.527 184.16 402.85 184.886 403.494C185.619 404.133 185.985 405.023 185.985 406.166C185.985 406.74 185.8 407.282 185.431 407.792C185.068 408.296 184.596 408.677 184.016 408.935C184.719 409.175 185.252 409.553 185.616 410.068C185.985 410.584 186.169 411.199 186.169 411.914C186.169 413.062 185.774 413.977 184.983 414.656C184.198 415.336 183.164 415.676 181.88 415.676C180.65 415.676 179.642 415.348 178.857 414.691C178.072 414.035 177.679 413.162 177.679 412.072H179.815C179.815 412.635 180.002 413.092 180.377 413.443C180.758 413.795 181.268 413.971 181.907 413.971C182.569 413.971 183.09 413.795 183.471 413.443C183.852 413.092 184.042 412.582 184.042 411.914C184.042 411.24 183.843 410.722 183.445 410.358C183.046 409.995 182.455 409.813 181.669 409.813H180.413V408.126Z" fill="#001EBB"/>
<g filter="url(#filter12_d)">
<rect x="243.2" y="384" width="99.6" height="50" rx="6" fill="#FFF000"/>
<rect x="244.2" y="385" width="97.6" height="48" rx="5" stroke="#001EBB" stroke-width="2"/>
</g>
<path d="M295.326 415.5H293.199V405.226L290.062 406.298V404.496L295.054 402.659H295.326V415.5Z" fill="#001EBB"/>
<g filter="url(#filter13_d)">
<rect x="354.8" y="384" width="99.6" height="50" rx="6" fill="#FFF000"/>
<rect x="355.8" y="385" width="97.6" height="48" rx="5" stroke="#001EBB" stroke-width="2"/>
</g>
<path d="M409.747 415.5H401.143V414.032L405.405 409.383C406.021 408.697 406.457 408.126 406.715 407.669C406.979 407.206 407.11 406.743 407.11 406.28C407.11 405.671 406.938 405.179 406.592 404.804C406.252 404.429 405.792 404.241 405.212 404.241C404.521 404.241 403.984 404.452 403.604 404.874C403.223 405.296 403.032 405.873 403.032 406.605H400.896C400.896 405.826 401.072 405.126 401.424 404.505C401.781 403.878 402.288 403.392 402.944 403.046C403.606 402.7 404.368 402.527 405.229 402.527C406.472 402.527 407.45 402.841 408.165 403.468C408.886 404.089 409.246 404.95 409.246 406.052C409.246 406.69 409.064 407.361 408.701 408.064C408.344 408.762 407.755 409.556 406.935 410.446L403.806 413.795H409.747V415.5Z" fill="#001EBB"/>
<g filter="url(#filter14_d)">
<rect x="466.4" y="384" width="99.6" height="50" rx="6" fill="#FFF000"/>
<rect x="467.4" y="385" width="97.6" height="48" rx="5" stroke="#001EBB" stroke-width="2"/>
</g>
<path d="M519.967 410.938H521.558V412.652H519.967V415.5H517.832V412.652H512.303L512.242 411.352L517.761 402.703H519.967V410.938ZM514.483 410.938H517.832V405.595L517.673 405.876L514.483 410.938Z" fill="#001EBB"/>
<path d="M52.5537 463.964C52.5537 463.178 52.7051 462.478 53.0078 461.862C53.3105 461.247 53.7451 460.771 54.3115 460.434C54.8828 460.097 55.5444 459.929 56.2964 459.929C57.3657 459.929 58.2373 460.256 58.9111 460.91C59.5898 461.564 59.9683 462.453 60.0464 463.576L60.061 464.118C60.061 465.334 59.7217 466.311 59.043 467.048C58.3643 467.78 57.4536 468.146 56.311 468.146C55.1685 468.146 54.2554 467.78 53.5718 467.048C52.8931 466.315 52.5537 465.319 52.5537 464.06V463.964ZM54.6704 464.118C54.6704 464.87 54.812 465.446 55.0952 465.847C55.3784 466.242 55.7837 466.44 56.311 466.44C56.8237 466.44 57.2241 466.245 57.5122 465.854C57.8003 465.458 57.9443 464.829 57.9443 463.964C57.9443 463.227 57.8003 462.656 57.5122 462.25C57.2241 461.845 56.8188 461.643 56.2964 461.643C55.7788 461.643 55.3784 461.845 55.0952 462.25C54.812 462.651 54.6704 463.273 54.6704 464.118ZM65.8179 462.06C65.5298 462.021 65.2759 462.001 65.0562 462.001C64.2554 462.001 63.7305 462.272 63.4814 462.814V468H61.3647V460.075H63.3643L63.4229 461.02C63.8477 460.292 64.436 459.929 65.188 459.929C65.4224 459.929 65.6421 459.96 65.8472 460.024L65.8179 462.06ZM66.3672 463.979C66.3672 462.744 66.6431 461.76 67.1948 461.027C67.7515 460.295 68.5107 459.929 69.4727 459.929C70.2441 459.929 70.8813 460.217 71.3843 460.793V456.75H73.5083V468H71.5967L71.4941 467.158C70.9668 467.817 70.2881 468.146 69.458 468.146C68.5254 468.146 67.7759 467.78 67.2095 467.048C66.6479 466.311 66.3672 465.288 66.3672 463.979ZM68.4839 464.133C68.4839 464.875 68.6133 465.444 68.8721 465.839C69.1309 466.235 69.5068 466.433 70 466.433C70.6543 466.433 71.1157 466.157 71.3843 465.605V462.478C71.1206 461.926 70.6641 461.65 70.0146 461.65C68.9941 461.65 68.4839 462.478 68.4839 464.133ZM78.7964 468.146C77.6343 468.146 76.687 467.79 75.9546 467.077C75.2271 466.364 74.8633 465.415 74.8633 464.228V464.023C74.8633 463.227 75.0171 462.517 75.3247 461.892C75.6323 461.262 76.0669 460.778 76.6284 460.441C77.1948 460.1 77.8394 459.929 78.562 459.929C79.646 459.929 80.498 460.271 81.1182 460.954C81.7432 461.638 82.0557 462.607 82.0557 463.862V464.726H77.0093C77.0776 465.244 77.2827 465.659 77.6245 465.971C77.9712 466.284 78.4082 466.44 78.9355 466.44C79.751 466.44 80.3882 466.145 80.8472 465.554L81.8872 466.718C81.5698 467.167 81.1401 467.519 80.5981 467.773C80.0562 468.022 79.4556 468.146 78.7964 468.146ZM78.5547 461.643C78.1348 461.643 77.793 461.784 77.5293 462.067C77.2705 462.351 77.1045 462.756 77.0312 463.283H79.9756V463.115C79.9658 462.646 79.8389 462.285 79.5947 462.031C79.3506 461.772 79.0039 461.643 78.5547 461.643ZM87.7173 462.06C87.4292 462.021 87.1753 462.001 86.9556 462.001C86.1548 462.001 85.6299 462.272 85.3809 462.814V468H83.2642V460.075H85.2637L85.3223 461.02C85.7471 460.292 86.3354 459.929 87.0874 459.929C87.3218 459.929 87.5415 459.96 87.7466 460.024L87.7173 462.06Z" fill="white"/>
<path d="M66.9531 487.049H61.4551V484.773H66.9531V487.049ZM78.8477 492H69.1016V490.066L73.7012 485.164C74.3327 484.474 74.7982 483.872 75.0977 483.357C75.4036 482.843 75.5566 482.355 75.5566 481.893C75.5566 481.261 75.3971 480.766 75.0781 480.408C74.7591 480.044 74.3034 479.861 73.7109 479.861C73.0729 479.861 72.5684 480.083 72.1973 480.525C71.8327 480.962 71.6504 481.538 71.6504 482.254H68.8184C68.8184 481.388 69.0234 480.597 69.4336 479.881C69.8503 479.165 70.4362 478.605 71.1914 478.201C71.9466 477.791 72.8027 477.586 73.7598 477.586C75.2246 477.586 76.3607 477.938 77.168 478.641C77.9818 479.344 78.3887 480.337 78.3887 481.619C78.3887 482.322 78.2064 483.038 77.8418 483.768C77.4772 484.497 76.8522 485.346 75.9668 486.316L72.7344 489.725H78.8477V492Z" fill="#FFF000"/>
<path d="M163.554 463.964C163.554 463.178 163.705 462.478 164.008 461.862C164.311 461.247 164.745 460.771 165.312 460.434C165.883 460.097 166.544 459.929 167.296 459.929C168.366 459.929 169.237 460.256 169.911 460.91C170.59 461.564 170.968 462.453 171.046 463.576L171.061 464.118C171.061 465.334 170.722 466.311 170.043 467.048C169.364 467.78 168.454 468.146 167.311 468.146C166.168 468.146 165.255 467.78 164.572 467.048C163.893 466.315 163.554 465.319 163.554 464.06V463.964ZM165.67 464.118C165.67 464.87 165.812 465.446 166.095 465.847C166.378 466.242 166.784 466.44 167.311 466.44C167.824 466.44 168.224 466.245 168.512 465.854C168.8 465.458 168.944 464.829 168.944 463.964C168.944 463.227 168.8 462.656 168.512 462.25C168.224 461.845 167.819 461.643 167.296 461.643C166.779 461.643 166.378 461.845 166.095 462.25C165.812 462.651 165.67 463.273 165.67 464.118ZM176.818 462.06C176.53 462.021 176.276 462.001 176.056 462.001C175.255 462.001 174.73 462.272 174.481 462.814V468H172.365V460.075H174.364L174.423 461.02C174.848 460.292 175.436 459.929 176.188 459.929C176.422 459.929 176.642 459.96 176.847 460.024L176.818 462.06ZM177.367 463.979C177.367 462.744 177.643 461.76 178.195 461.027C178.751 460.295 179.511 459.929 180.473 459.929C181.244 459.929 181.881 460.217 182.384 460.793V456.75H184.508V468H182.597L182.494 467.158C181.967 467.817 181.288 468.146 180.458 468.146C179.525 468.146 178.776 467.78 178.209 467.048C177.648 466.311 177.367 465.288 177.367 463.979ZM179.484 464.133C179.484 464.875 179.613 465.444 179.872 465.839C180.131 466.235 180.507 466.433 181 466.433C181.654 466.433 182.116 466.157 182.384 465.605V462.478C182.121 461.926 181.664 461.65 181.015 461.65C179.994 461.65 179.484 462.478 179.484 464.133ZM189.796 468.146C188.634 468.146 187.687 467.79 186.955 467.077C186.227 466.364 185.863 465.415 185.863 464.228V464.023C185.863 463.227 186.017 462.517 186.325 461.892C186.632 461.262 187.067 460.778 187.628 460.441C188.195 460.1 188.839 459.929 189.562 459.929C190.646 459.929 191.498 460.271 192.118 460.954C192.743 461.638 193.056 462.607 193.056 463.862V464.726H188.009C188.078 465.244 188.283 465.659 188.625 465.971C188.971 466.284 189.408 466.44 189.936 466.44C190.751 466.44 191.388 466.145 191.847 465.554L192.887 466.718C192.57 467.167 192.14 467.519 191.598 467.773C191.056 468.022 190.456 468.146 189.796 468.146ZM189.555 461.643C189.135 461.643 188.793 461.784 188.529 462.067C188.271 462.351 188.104 462.756 188.031 463.283H190.976V463.115C190.966 462.646 190.839 462.285 190.595 462.031C190.351 461.772 190.004 461.643 189.555 461.643ZM198.717 462.06C198.429 462.021 198.175 462.001 197.956 462.001C197.155 462.001 196.63 462.272 196.381 462.814V468H194.264V460.075H196.264L196.322 461.02C196.747 460.292 197.335 459.929 198.087 459.929C198.322 459.929 198.542 459.96 198.747 460.024L198.717 462.06Z" fill="white"/>
<path d="M177.953 487.049H172.455V484.773H177.953V487.049ZM186.957 492H184.135V481.121L180.766 482.166V479.871L186.654 477.762H186.957V492Z" fill="#FFF000"/>
<path d="M275.554 463.964C275.554 463.178 275.705 462.478 276.008 461.862C276.311 461.247 276.745 460.771 277.312 460.434C277.883 460.097 278.544 459.929 279.296 459.929C280.366 459.929 281.237 460.256 281.911 460.91C282.59 461.564 282.968 462.453 283.046 463.576L283.061 464.118C283.061 465.334 282.722 466.311 282.043 467.048C281.364 467.78 280.454 468.146 279.311 468.146C278.168 468.146 277.255 467.78 276.572 467.048C275.893 466.315 275.554 465.319 275.554 464.06V463.964ZM277.67 464.118C277.67 464.87 277.812 465.446 278.095 465.847C278.378 466.242 278.784 466.44 279.311 466.44C279.824 466.44 280.224 466.245 280.512 465.854C280.8 465.458 280.944 464.829 280.944 463.964C280.944 463.227 280.8 462.656 280.512 462.25C280.224 461.845 279.819 461.643 279.296 461.643C278.779 461.643 278.378 461.845 278.095 462.25C277.812 462.651 277.67 463.273 277.67 464.118ZM288.818 462.06C288.53 462.021 288.276 462.001 288.056 462.001C287.255 462.001 286.73 462.272 286.481 462.814V468H284.365V460.075H286.364L286.423 461.02C286.848 460.292 287.436 459.929 288.188 459.929C288.422 459.929 288.642 459.96 288.847 460.024L288.818 462.06ZM289.367 463.979C289.367 462.744 289.643 461.76 290.195 461.027C290.751 460.295 291.511 459.929 292.473 459.929C293.244 459.929 293.881 460.217 294.384 460.793V456.75H296.508V468H294.597L294.494 467.158C293.967 467.817 293.288 468.146 292.458 468.146C291.525 468.146 290.776 467.78 290.209 467.048C289.648 466.311 289.367 465.288 289.367 463.979ZM291.484 464.133C291.484 464.875 291.613 465.444 291.872 465.839C292.131 466.235 292.507 466.433 293 466.433C293.654 466.433 294.116 466.157 294.384 465.605V462.478C294.121 461.926 293.664 461.65 293.015 461.65C291.994 461.65 291.484 462.478 291.484 464.133ZM301.796 468.146C300.634 468.146 299.687 467.79 298.955 467.077C298.227 466.364 297.863 465.415 297.863 464.228V464.023C297.863 463.227 298.017 462.517 298.325 461.892C298.632 461.262 299.067 460.778 299.628 460.441C300.195 460.1 300.839 459.929 301.562 459.929C302.646 459.929 303.498 460.271 304.118 460.954C304.743 461.638 305.056 462.607 305.056 463.862V464.726H300.009C300.078 465.244 300.283 465.659 300.625 465.971C300.971 466.284 301.408 466.44 301.936 466.44C302.751 466.44 303.388 466.145 303.847 465.554L304.887 466.718C304.57 467.167 304.14 467.519 303.598 467.773C303.056 468.022 302.456 468.146 301.796 468.146ZM301.555 461.643C301.135 461.643 300.793 461.784 300.529 462.067C300.271 462.351 300.104 462.756 300.031 463.283H302.976V463.115C302.966 462.646 302.839 462.285 302.595 462.031C302.351 461.772 302.004 461.643 301.555 461.643ZM310.717 462.06C310.429 462.021 310.175 462.001 309.956 462.001C309.155 462.001 308.63 462.272 308.381 462.814V468H306.264V460.075H308.264L308.322 461.02C308.747 460.292 309.335 459.929 310.087 459.929C310.322 459.929 310.542 459.96 310.747 460.024L310.717 462.06Z" fill="white"/>
<path d="M297.795 486.121C297.795 488.087 297.388 489.591 296.574 490.633C295.76 491.674 294.569 492.195 293 492.195C291.451 492.195 290.266 491.684 289.445 490.662C288.625 489.64 288.205 488.175 288.186 486.268V483.65C288.186 481.665 288.596 480.158 289.416 479.129C290.243 478.1 291.431 477.586 292.98 477.586C294.53 477.586 295.715 478.097 296.535 479.119C297.355 480.135 297.775 481.596 297.795 483.504V486.121ZM294.973 483.25C294.973 482.072 294.81 481.215 294.484 480.682C294.165 480.141 293.664 479.871 292.98 479.871C292.316 479.871 291.825 480.128 291.506 480.643C291.193 481.15 291.027 481.948 291.008 483.035V486.492C291.008 487.651 291.164 488.514 291.477 489.08C291.796 489.64 292.303 489.92 293 489.92C293.69 489.92 294.188 489.65 294.494 489.109C294.8 488.569 294.96 487.742 294.973 486.629V483.25Z" fill="#FFF000"/>
<path d="M387.554 463.964C387.554 463.178 387.705 462.478 388.008 461.862C388.311 461.247 388.745 460.771 389.312 460.434C389.883 460.097 390.544 459.929 391.296 459.929C392.366 459.929 393.237 460.256 393.911 460.91C394.59 461.564 394.968 462.453 395.046 463.576L395.061 464.118C395.061 465.334 394.722 466.311 394.043 467.048C393.364 467.78 392.454 468.146 391.311 468.146C390.168 468.146 389.255 467.78 388.572 467.048C387.893 466.315 387.554 465.319 387.554 464.06V463.964ZM389.67 464.118C389.67 464.87 389.812 465.446 390.095 465.847C390.378 466.242 390.784 466.44 391.311 466.44C391.824 466.44 392.224 466.245 392.512 465.854C392.8 465.458 392.944 464.829 392.944 463.964C392.944 463.227 392.8 462.656 392.512 462.25C392.224 461.845 391.819 461.643 391.296 461.643C390.779 461.643 390.378 461.845 390.095 462.25C389.812 462.651 389.67 463.273 389.67 464.118ZM400.818 462.06C400.53 462.021 400.276 462.001 400.056 462.001C399.255 462.001 398.73 462.272 398.481 462.814V468H396.365V460.075H398.364L398.423 461.02C398.848 460.292 399.436 459.929 400.188 459.929C400.422 459.929 400.642 459.96 400.847 460.024L400.818 462.06ZM401.367 463.979C401.367 462.744 401.643 461.76 402.195 461.027C402.751 460.295 403.511 459.929 404.473 459.929C405.244 459.929 405.881 460.217 406.384 460.793V456.75H408.508V468H406.597L406.494 467.158C405.967 467.817 405.288 468.146 404.458 468.146C403.525 468.146 402.776 467.78 402.209 467.048C401.648 466.311 401.367 465.288 401.367 463.979ZM403.484 464.133C403.484 464.875 403.613 465.444 403.872 465.839C404.131 466.235 404.507 466.433 405 466.433C405.654 466.433 406.116 466.157 406.384 465.605V462.478C406.121 461.926 405.664 461.65 405.015 461.65C403.994 461.65 403.484 462.478 403.484 464.133ZM413.796 468.146C412.634 468.146 411.687 467.79 410.955 467.077C410.227 466.364 409.863 465.415 409.863 464.228V464.023C409.863 463.227 410.017 462.517 410.325 461.892C410.632 461.262 411.067 460.778 411.628 460.441C412.195 460.1 412.839 459.929 413.562 459.929C414.646 459.929 415.498 460.271 416.118 460.954C416.743 461.638 417.056 462.607 417.056 463.862V464.726H412.009C412.078 465.244 412.283 465.659 412.625 465.971C412.971 466.284 413.408 466.44 413.936 466.44C414.751 466.44 415.388 466.145 415.847 465.554L416.887 466.718C416.57 467.167 416.14 467.519 415.598 467.773C415.056 468.022 414.456 468.146 413.796 468.146ZM413.555 461.643C413.135 461.643 412.793 461.784 412.529 462.067C412.271 462.351 412.104 462.756 412.031 463.283H414.976V463.115C414.966 462.646 414.839 462.285 414.595 462.031C414.351 461.772 414.004 461.643 413.555 461.643ZM422.717 462.06C422.429 462.021 422.175 462.001 421.956 462.001C421.155 462.001 420.63 462.272 420.381 462.814V468H418.264V460.075H420.264L420.322 461.02C420.747 460.292 421.335 459.929 422.087 459.929C422.322 459.929 422.542 459.96 422.747 460.024L422.717 462.06Z" fill="white"/>
<path d="M409.795 486.121C409.795 488.087 409.388 489.591 408.574 490.633C407.76 491.674 406.569 492.195 405 492.195C403.451 492.195 402.266 491.684 401.445 490.662C400.625 489.64 400.205 488.175 400.186 486.268V483.65C400.186 481.665 400.596 480.158 401.416 479.129C402.243 478.1 403.431 477.586 404.98 477.586C406.53 477.586 407.715 478.097 408.535 479.119C409.355 480.135 409.775 481.596 409.795 483.504V486.121ZM406.973 483.25C406.973 482.072 406.81 481.215 406.484 480.682C406.165 480.141 405.664 479.871 404.98 479.871C404.316 479.871 403.825 480.128 403.506 480.643C403.193 481.15 403.027 481.948 403.008 483.035V486.492C403.008 487.651 403.164 488.514 403.477 489.08C403.796 489.64 404.303 489.92 405 489.92C405.69 489.92 406.188 489.65 406.494 489.109C406.8 488.569 406.96 487.742 406.973 486.629V483.25Z" fill="#FFF000"/>
<path d="M498.554 463.964C498.554 463.178 498.705 462.478 499.008 461.862C499.311 461.247 499.745 460.771 500.312 460.434C500.883 460.097 501.544 459.929 502.296 459.929C503.366 459.929 504.237 460.256 504.911 460.91C505.59 461.564 505.968 462.453 506.046 463.576L506.061 464.118C506.061 465.334 505.722 466.311 505.043 467.048C504.364 467.78 503.454 468.146 502.311 468.146C501.168 468.146 500.255 467.78 499.572 467.048C498.893 466.315 498.554 465.319 498.554 464.06V463.964ZM500.67 464.118C500.67 464.87 500.812 465.446 501.095 465.847C501.378 466.242 501.784 466.44 502.311 466.44C502.824 466.44 503.224 466.245 503.512 465.854C503.8 465.458 503.944 464.829 503.944 463.964C503.944 463.227 503.8 462.656 503.512 462.25C503.224 461.845 502.819 461.643 502.296 461.643C501.779 461.643 501.378 461.845 501.095 462.25C500.812 462.651 500.67 463.273 500.67 464.118ZM511.818 462.06C511.53 462.021 511.276 462.001 511.056 462.001C510.255 462.001 509.73 462.272 509.481 462.814V468H507.365V460.075H509.364L509.423 461.02C509.848 460.292 510.436 459.929 511.188 459.929C511.422 459.929 511.642 459.96 511.847 460.024L511.818 462.06ZM512.367 463.979C512.367 462.744 512.643 461.76 513.195 461.027C513.751 460.295 514.511 459.929 515.473 459.929C516.244 459.929 516.881 460.217 517.384 460.793V456.75H519.508V468H517.597L517.494 467.158C516.967 467.817 516.288 468.146 515.458 468.146C514.525 468.146 513.776 467.78 513.209 467.048C512.648 466.311 512.367 465.288 512.367 463.979ZM514.484 464.133C514.484 464.875 514.613 465.444 514.872 465.839C515.131 466.235 515.507 466.433 516 466.433C516.654 466.433 517.116 466.157 517.384 465.605V462.478C517.121 461.926 516.664 461.65 516.015 461.65C514.994 461.65 514.484 462.478 514.484 464.133ZM524.796 468.146C523.634 468.146 522.687 467.79 521.955 467.077C521.227 466.364 520.863 465.415 520.863 464.228V464.023C520.863 463.227 521.017 462.517 521.325 461.892C521.632 461.262 522.067 460.778 522.628 460.441C523.195 460.1 523.839 459.929 524.562 459.929C525.646 459.929 526.498 460.271 527.118 460.954C527.743 461.638 528.056 462.607 528.056 463.862V464.726H523.009C523.078 465.244 523.283 465.659 523.625 465.971C523.971 466.284 524.408 466.44 524.936 466.44C525.751 466.44 526.388 466.145 526.847 465.554L527.887 466.718C527.57 467.167 527.14 467.519 526.598 467.773C526.056 468.022 525.456 468.146 524.796 468.146ZM524.555 461.643C524.135 461.643 523.793 461.784 523.529 462.067C523.271 462.351 523.104 462.756 523.031 463.283H525.976V463.115C525.966 462.646 525.839 462.285 525.595 462.031C525.351 461.772 525.004 461.643 524.555 461.643ZM533.717 462.06C533.429 462.021 533.175 462.001 532.956 462.001C532.155 462.001 531.63 462.272 531.381 462.814V468H529.264V460.075H531.264L531.322 461.02C531.747 460.292 532.335 459.929 533.087 459.929C533.322 459.929 533.542 459.96 533.747 460.024L533.717 462.06Z" fill="white"/>
<path d="M520.795 486.121C520.795 488.087 520.388 489.591 519.574 490.633C518.76 491.674 517.569 492.195 516 492.195C514.451 492.195 513.266 491.684 512.445 490.662C511.625 489.64 511.205 488.175 511.186 486.268V483.65C511.186 481.665 511.596 480.158 512.416 479.129C513.243 478.1 514.431 477.586 515.98 477.586C517.53 477.586 518.715 478.097 519.535 479.119C520.355 480.135 520.775 481.596 520.795 483.504V486.121ZM517.973 483.25C517.973 482.072 517.81 481.215 517.484 480.682C517.165 480.141 516.664 479.871 515.98 479.871C515.316 479.871 514.825 480.128 514.506 480.643C514.193 481.15 514.027 481.948 514.008 483.035V486.492C514.008 487.651 514.164 488.514 514.477 489.08C514.796 489.64 515.303 489.92 516 489.92C516.69 489.92 517.188 489.65 517.494 489.109C517.8 488.569 517.96 487.742 517.973 486.629V483.25Z" fill="#FFF000"/>
<path d="M126 444V504" stroke="white" stroke-dasharray="4 2"/>
<path d="M239 444V504" stroke="white" stroke-dasharray="4 2"/>
<path d="M350 444V504" stroke="white" stroke-dasharray="4 2"/>
<path d="M462 444V504" stroke="white" stroke-dasharray="4 2"/>
<defs>
<filter id="filter0_d" x="20" y="20" width="105.6" height="56" filterUnits="userSpaceOnUse" color-interpolation-filters="sRGB">
<feFlood flood-opacity="0" result="BackgroundImageFix"/>
<feColorMatrix in="SourceAlpha" type="matrix" values="0 0 0 0 0 0 0 0 0 0 0 0 0 0 0 0 0 0 127 0"/>
<feOffset dx="6" dy="6"/>
<feColorMatrix type="matrix" values="0 0 0 0 0 0 0 0 0 0 0 0 0 0 0 0 0 0 0.15 0"/>
<feBlend mode="normal" in2="BackgroundImageFix" result="effect1_dropShadow"/>
<feBlend mode="normal" in="SourceGraphic" in2="effect1_dropShadow" result="shape"/>
</filter>
<filter id="filter1_d" x="131.6" y="20" width="105.6" height="56" filterUnits="userSpaceOnUse" color-interpolation-filters="sRGB">
<feFlood flood-opacity="0" result="BackgroundImageFix"/>
<feColorMatrix in="SourceAlpha" type="matrix" values="0 0 0 0 0 0 0 0 0 0 0 0 0 0 0 0 0 0 127 0"/>
<feOffset dx="6" dy="6"/>
<feColorMatrix type="matrix" values="0 0 0 0 0 0 0 0 0 0 0 0 0 0 0 0 0 0 0.15 0"/>
<feBlend mode="normal" in2="BackgroundImageFix" result="effect1_dropShadow"/>
<feBlend mode="normal" in="SourceGraphic" in2="effect1_dropShadow" result="shape"/>
</filter>
<filter id="filter2_d" x="243.2" y="20" width="105.6" height="56" filterUnits="userSpaceOnUse" color-interpolation-filters="sRGB">
<feFlood flood-opacity="0" result="BackgroundImageFix"/>
<feColorMatrix in="SourceAlpha" type="matrix" values="0 0 0 0 0 0 0 0 0 0 0 0 0 0 0 0 0 0 127 0"/>
<feOffset dx="6" dy="6"/>
<feColorMatrix type="matrix" values="0 0 0 0 0 0 0 0 0 0 0 0 0 0 0 0 0 0 0.15 0"/>
<feBlend mode="normal" in2="BackgroundImageFix" result="effect1_dropShadow"/>
<feBlend mode="normal" in="SourceGraphic" in2="effect1_dropShadow" result="shape"/>
</filter>
<filter id="filter3_d" x="354.8" y="20" width="105.6" height="56" filterUnits="userSpaceOnUse" color-interpolation-filters="sRGB">
<feFlood flood-opacity="0" result="BackgroundImageFix"/>
<feColorMatrix in="SourceAlpha" type="matrix" values="0 0 0 0 0 0 0 0 0 0 0 0 0 0 0 0 0 0 127 0"/>
<feOffset dx="6" dy="6"/>
<feColorMatrix type="matrix" values="0 0 0 0 0 0 0 0 0 0 0 0 0 0 0 0 0 0 0.15 0"/>
<feBlend mode="normal" in2="BackgroundImageFix" result="effect1_dropShadow"/>
<feBlend mode="normal" in="SourceGraphic" in2="effect1_dropShadow" result="shape"/>
</filter>
<filter id="filter4_d" x="466.4" y="20" width="105.6" height="56" filterUnits="userSpaceOnUse" color-interpolation-filters="sRGB">
<feFlood flood-opacity="0" result="BackgroundImageFix"/>
<feColorMatrix in="SourceAlpha" type="matrix" values="0 0 0 0 0 0 0 0 0 0 0 0 0 0 0 0 0 0 127 0"/>
<feOffset dx="6" dy="6"/>
<feColorMatrix type="matrix" values="0 0 0 0 0 0 0 0 0 0 0 0 0 0 0 0 0 0 0.15 0"/>
<feBlend mode="normal" in2="BackgroundImageFix" result="effect1_dropShadow"/>
<feBlend mode="normal" in="SourceGraphic" in2="effect1_dropShadow" result="shape"/>
</filter>
<filter id="filter5_d" x="20" y="202" width="105.6" height="56" filterUnits="userSpaceOnUse" color-interpolation-filters="sRGB">
<feFlood flood-opacity="0" result="BackgroundImageFix"/>
<feColorMatrix in="SourceAlpha" type="matrix" values="0 0 0 0 0 0 0 0 0 0 0 0 0 0 0 0 0 0 127 0"/>
<feOffset dx="6" dy="6"/>
<feColorMatrix type="matrix" values="0 0 0 0 0 0 0 0 0 0 0 0 0 0 0 0 0 0 0.15 0"/>
<feBlend mode="normal" in2="BackgroundImageFix" result="effect1_dropShadow"/>
<feBlend mode="normal" in="SourceGraphic" in2="effect1_dropShadow" result="shape"/>
</filter>
<filter id="filter6_d" x="131.6" y="202" width="105.6" height="56" filterUnits="userSpaceOnUse" color-interpolation-filters="sRGB">
<feFlood flood-opacity="0" result="BackgroundImageFix"/>
<feColorMatrix in="SourceAlpha" type="matrix" values="0 0 0 0 0 0 0 0 0 0 0 0 0 0 0 0 0 0 127 0"/>
<feOffset dx="6" dy="6"/>
<feColorMatrix type="matrix" values="0 0 0 0 0 0 0 0 0 0 0 0 0 0 0 0 0 0 0.15 0"/>
<feBlend mode="normal" in2="BackgroundImageFix" result="effect1_dropShadow"/>
<feBlend mode="normal" in="SourceGraphic" in2="effect1_dropShadow" result="shape"/>
</filter>
<filter id="filter7_d" x="243.2" y="202" width="105.6" height="56" filterUnits="userSpaceOnUse" color-interpolation-filters="sRGB">
<feFlood flood-opacity="0" result="BackgroundImageFix"/>
<feColorMatrix in="SourceAlpha" type="matrix" values="0 0 0 0 0 0 0 0 0 0 0 0 0 0 0 0 0 0 127 0"/>
<feOffset dx="6" dy="6"/>
<feColorMatrix type="matrix" values="0 0 0 0 0 0 0 0 0 0 0 0 0 0 0 0 0 0 0.15 0"/>
<feBlend mode="normal" in2="BackgroundImageFix" result="effect1_dropShadow"/>
<feBlend mode="normal" in="SourceGraphic" in2="effect1_dropShadow" result="shape"/>
</filter>
<filter id="filter8_d" x="354.8" y="202" width="105.6" height="56" filterUnits="userSpaceOnUse" color-interpolation-filters="sRGB">
<feFlood flood-opacity="0" result="BackgroundImageFix"/>
<feColorMatrix in="SourceAlpha" type="matrix" values="0 0 0 0 0 0 0 0 0 0 0 0 0 0 0 0 0 0 127 0"/>
<feOffset dx="6" dy="6"/>
<feColorMatrix type="matrix" values="0 0 0 0 0 0 0 0 0 0 0 0 0 0 0 0 0 0 0.15 0"/>
<feBlend mode="normal" in2="BackgroundImageFix" result="effect1_dropShadow"/>
<feBlend mode="normal" in="SourceGraphic" in2="effect1_dropShadow" result="shape"/>
</filter>
<filter id="filter9_d" x="466.4" y="202" width="105.6" height="56" filterUnits="userSpaceOnUse" color-interpolation-filters="sRGB">
<feFlood flood-opacity="0" result="BackgroundImageFix"/>
<feColorMatrix in="SourceAlpha" type="matrix" values="0 0 0 0 0 0 0 0 0 0 0 0 0 0 0 0 0 0 127 0"/>
<feOffset dx="6" dy="6"/>
<feColorMatrix type="matrix" values="0 0 0 0 0 0 0 0 0 0 0 0 0 0 0 0 0 0 0.15 0"/>
<feBlend mode="normal" in2="BackgroundImageFix" result="effect1_dropShadow"/>
<feBlend mode="normal" in="SourceGraphic" in2="effect1_dropShadow" result="shape"/>
</filter>
<filter id="filter10_d" x="20" y="384" width="105.6" height="56" filterUnits="userSpaceOnUse" color-interpolation-filters="sRGB">
<feFlood flood-opacity="0" result="BackgroundImageFix"/>
<feColorMatrix in="SourceAlpha" type="matrix" values="0 0 0 0 0 0 0 0 0 0 0 0 0 0 0 0 0 0 127 0"/>
<feOffset dx="6" dy="6"/>
<feColorMatrix type="matrix" values="0 0 0 0 0 0 0 0 0 0 0 0 0 0 0 0 0 0 0.15 0"/>
<feBlend mode="normal" in2="BackgroundImageFix" result="effect1_dropShadow"/>
<feBlend mode="normal" in="SourceGraphic" in2="effect1_dropShadow" result="shape"/>
</filter>
<filter id="filter11_d" x="131.6" y="384" width="105.6" height="56" filterUnits="userSpaceOnUse" color-interpolation-filters="sRGB">
<feFlood flood-opacity="0" result="BackgroundImageFix"/>
<feColorMatrix in="SourceAlpha" type="matrix" values="0 0 0 0 0 0 0 0 0 0 0 0 0 0 0 0 0 0 127 0"/>
<feOffset dx="6" dy="6"/>
<feColorMatrix type="matrix" values="0 0 0 0 0 0 0 0 0 0 0 0 0 0 0 0 0 0 0.15 0"/>
<feBlend mode="normal" in2="BackgroundImageFix" result="effect1_dropShadow"/>
<feBlend mode="normal" in="SourceGraphic" in2="effect1_dropShadow" result="shape"/>
</filter>
<filter id="filter12_d" x="243.2" y="384" width="105.6" height="56" filterUnits="userSpaceOnUse" color-interpolation-filters="sRGB">
<feFlood flood-opacity="0" result="BackgroundImageFix"/>
<feColorMatrix in="SourceAlpha" type="matrix" values="0 0 0 0 0 0 0 0 0 0 0 0 0 0 0 0 0 0 127 0"/>
<feOffset dx="6" dy="6"/>
<feColorMatrix type="matrix" values="0 0 0 0 0 0 0 0 0 0 0 0 0 0 0 0 0 0 0.15 0"/>
<feBlend mode="normal" in2="BackgroundImageFix" result="effect1_dropShadow"/>
<feBlend mode="normal" in="SourceGraphic" in2="effect1_dropShadow" result="shape"/>
</filter>
<filter id="filter13_d" x="354.8" y="384" width="105.6" height="56" filterUnits="userSpaceOnUse" color-interpolation-filters="sRGB">
<feFlood flood-opacity="0" result="BackgroundImageFix"/>
<feColorMatrix in="SourceAlpha" type="matrix" values="0 0 0 0 0 0 0 0 0 0 0 0 0 0 0 0 0 0 127 0"/>
<feOffset dx="6" dy="6"/>
<feColorMatrix type="matrix" values="0 0 0 0 0 0 0 0 0 0 0 0 0 0 0 0 0 0 0.15 0"/>
<feBlend mode="normal" in2="BackgroundImageFix" result="effect1_dropShadow"/>
<feBlend mode="normal" in="SourceGraphic" in2="effect1_dropShadow" result="shape"/>
</filter>
<filter id="filter14_d" x="466.4" y="384" width="105.6" height="56" filterUnits="userSpaceOnUse" color-interpolation-filters="sRGB">
<feFlood flood-opacity="0" result="BackgroundImageFix"/>
<feColorMatrix in="SourceAlpha" type="matrix" values="0 0 0 0 0 0 0 0 0 0 0 0 0 0 0 0 0 0 127 0"/>
<feOffset dx="6" dy="6"/>
<feColorMatrix type="matrix" values="0 0 0 0 0 0 0 0 0 0 0 0 0 0 0 0 0 0 0.15 0"/>
<feBlend mode="normal" in2="BackgroundImageFix" result="effect1_dropShadow"/>
<feBlend mode="normal" in="SourceGraphic" in2="effect1_dropShadow" result="shape"/>
</filter>
</defs>
</svg>
