<svg width="586" height="152" viewBox="0 0 586 152" fill="none" xmlns="http://www.w3.org/2000/svg">
<rect x="1" y="1" width="584" height="150" rx="9" fill="#7187FB" stroke="#001EBB" stroke-width="2"/>
<g filter="url(#filter0_d)">
<rect x="20" y="20" width="50" height="50" rx="6" fill="#FFF000"/>
<rect x="21" y="21" width="48" height="48" rx="5" stroke="#001EBB" stroke-width="2"/>
</g>
<path d="M47.126 51.5H44.999V41.2256L41.8613 42.2979V40.4961L46.8535 38.6592H47.126V51.5Z" fill="#001EBB"/>
<g filter="url(#filter1_d)">
<rect x="82" y="20" width="50" height="50" rx="6" fill="#FFF000"/>
<rect x="83" y="21" width="48" height="48" rx="5" stroke="#001EBB" stroke-width="2"/>
</g>
<path d="M111.947 51.5H103.343V50.0322L107.605 45.3828C108.221 44.6973 108.657 44.126 108.915 43.6689C109.179 43.2061 109.311 42.7432 109.311 42.2803C109.311 41.6709 109.138 41.1787 108.792 40.8037C108.452 40.4287 107.992 40.2412 107.412 40.2412C106.721 40.2412 106.185 40.4521 105.804 40.874C105.423 41.2959 105.232 41.873 105.232 42.6055H103.097C103.097 41.8262 103.272 41.126 103.624 40.5049C103.981 39.8779 104.488 39.3916 105.145 39.0459C105.807 38.7002 106.568 38.5273 107.43 38.5273C108.672 38.5273 109.65 38.8408 110.365 39.4678C111.086 40.0889 111.446 40.9502 111.446 42.0518C111.446 42.6904 111.265 43.3613 110.901 44.0645C110.544 44.7617 109.955 45.5557 109.135 46.4463L106.006 49.7949H111.947V51.5Z" fill="#001EBB"/>
<g filter="url(#filter2_d)">
<rect x="144" y="20" width="50" height="50" rx="6" fill="#FFF000"/>
<rect x="145" y="21" width="48" height="48" rx="5" stroke="#001EBB" stroke-width="2"/>
</g>
<path d="M167.812 44.126H169.113C169.77 44.1201 170.288 43.9502 170.669 43.6162C171.056 43.2822 171.249 42.7988 171.249 42.166C171.249 41.5566 171.088 41.085 170.766 40.751C170.449 40.4111 169.963 40.2412 169.307 40.2412C168.732 40.2412 168.261 40.4082 167.892 40.7422C167.522 41.0703 167.338 41.501 167.338 42.0342H165.202C165.202 41.3779 165.375 40.7803 165.721 40.2412C166.072 39.7021 166.559 39.2832 167.18 38.9844C167.807 38.6797 168.507 38.5273 169.28 38.5273C170.558 38.5273 171.56 38.8496 172.286 39.4941C173.019 40.1328 173.385 41.0234 173.385 42.166C173.385 42.7402 173.2 43.2822 172.831 43.792C172.468 44.2959 171.996 44.6768 171.416 44.9346C172.119 45.1748 172.652 45.5527 173.016 46.0684C173.385 46.584 173.569 47.1992 173.569 47.9141C173.569 49.0625 173.174 49.9766 172.383 50.6562C171.598 51.3359 170.563 51.6758 169.28 51.6758C168.05 51.6758 167.042 51.3477 166.257 50.6914C165.472 50.0352 165.079 49.1621 165.079 48.0723H167.215C167.215 48.6348 167.402 49.0918 167.777 49.4434C168.158 49.7949 168.668 49.9707 169.307 49.9707C169.969 49.9707 170.49 49.7949 170.871 49.4434C171.252 49.0918 171.442 48.582 171.442 47.9141C171.442 47.2402 171.243 46.7217 170.845 46.3584C170.446 45.9951 169.854 45.8135 169.069 45.8135H167.812V44.126Z" fill="#001EBB"/>
<g filter="url(#filter3_d)">
<rect x="206" y="20" width="50" height="50" rx="6" fill="#FFF000"/>
<rect x="207" y="21" width="48" height="48" rx="5" stroke="#001EBB" stroke-width="2"/>
</g>
<path d="M234.567 46.9385H236.158V48.6523H234.567V51.5H232.432V48.6523H226.903L226.842 47.3516L232.361 38.7031H234.567V46.9385ZM229.083 46.9385H232.432V41.5947L232.273 41.876L229.083 46.9385Z" fill="#001EBB"/>
<g filter="url(#filter4_d)">
<rect x="268" y="20" width="50" height="50" rx="6" fill="#FFF000"/>
<rect x="269" y="21" width="48" height="48" rx="5" stroke="#001EBB" stroke-width="2"/>
</g>
<path d="M289.914 45.1543L290.608 38.7031H297.481V40.5488H292.384L292.032 43.6074C292.624 43.2676 293.292 43.0977 294.036 43.0977C295.255 43.0977 296.201 43.4873 296.875 44.2666C297.555 45.0459 297.895 46.0947 297.895 47.4131C297.895 48.7139 297.52 49.751 296.77 50.5244C296.02 51.292 294.991 51.6758 293.685 51.6758C292.513 51.6758 291.54 51.3447 290.767 50.6826C289.999 50.0146 289.583 49.1357 289.519 48.0459H291.584C291.666 48.667 291.889 49.1445 292.252 49.4785C292.615 49.8066 293.09 49.9707 293.676 49.9707C294.332 49.9707 294.842 49.7363 295.205 49.2676C295.574 48.7988 295.759 48.1602 295.759 47.3516C295.759 46.5723 295.557 45.957 295.152 45.5059C294.748 45.0488 294.191 44.8203 293.482 44.8203C293.096 44.8203 292.768 44.873 292.498 44.9785C292.229 45.0781 291.936 45.2773 291.619 45.5762L289.914 45.1543Z" fill="#001EBB"/>
<g filter="url(#filter5_d)">
<rect x="330" y="20" width="50" height="50" rx="6" fill="#FFF000"/>
<rect x="331" y="21" width="48" height="48" rx="5" stroke="#001EBB" stroke-width="2"/>
</g>
<path d="M357.987 38.6416V40.4082H357.724C356.528 40.4258 355.573 40.7539 354.858 41.3926C354.144 42.0312 353.719 42.9365 353.584 44.1084C354.27 43.3877 355.146 43.0273 356.212 43.0273C357.343 43.0273 358.233 43.4258 358.884 44.2227C359.54 45.0195 359.868 46.0479 359.868 47.3076C359.868 48.6084 359.484 49.6631 358.717 50.4717C357.955 51.2744 356.953 51.6758 355.711 51.6758C354.434 51.6758 353.396 51.2041 352.6 50.2607C351.809 49.3174 351.413 48.0811 351.413 46.5518V45.8223C351.413 43.5781 351.958 41.8203 353.048 40.5488C354.144 39.2773 355.717 38.6416 357.768 38.6416H357.987ZM355.693 44.75C355.225 44.75 354.794 44.8818 354.401 45.1455C354.015 45.4092 353.73 45.7607 353.549 46.2002V46.8506C353.549 47.7998 353.748 48.5557 354.146 49.1182C354.545 49.6748 355.061 49.9531 355.693 49.9531C356.326 49.9531 356.827 49.7158 357.196 49.2412C357.565 48.7666 357.75 48.1426 357.75 47.3691C357.75 46.5957 357.562 45.9658 357.188 45.4795C356.812 44.9932 356.314 44.75 355.693 44.75Z" fill="#001EBB"/>
<g filter="url(#filter6_d)">
<rect x="392" y="20" width="50" height="50" rx="6" fill="#FFF000"/>
<rect x="393" y="21" width="48" height="48" rx="5" stroke="#001EBB" stroke-width="2"/>
</g>
<path d="M421.859 39.8896L416.744 51.5H414.503L419.609 40.417H412.991V38.7031H421.859V39.8896Z" fill="#001EBB"/>
<g filter="url(#filter7_d)">
<rect x="454" y="20" width="50" height="50" rx="6" fill="#FFF000"/>
<rect x="455" y="21" width="48" height="48" rx="5" stroke="#001EBB" stroke-width="2"/>
</g>
<path d="M483.402 42.0781C483.402 42.7051 483.241 43.2646 482.919 43.7568C482.597 44.2432 482.157 44.627 481.601 44.9082C482.269 45.2188 482.781 45.6436 483.139 46.1826C483.502 46.7217 483.684 47.3311 483.684 48.0107C483.684 49.1357 483.303 50.0293 482.541 50.6914C481.779 51.3477 480.766 51.6758 479.5 51.6758C478.229 51.6758 477.209 51.3447 476.441 50.6826C475.68 50.0205 475.299 49.1299 475.299 48.0107C475.299 47.3252 475.48 46.71 475.844 46.165C476.207 45.6201 476.717 45.2012 477.373 44.9082C476.822 44.627 476.386 44.2432 476.063 43.7568C475.747 43.2646 475.589 42.7051 475.589 42.0781C475.589 40.9883 475.94 40.124 476.644 39.4854C477.347 38.8467 478.296 38.5273 479.491 38.5273C480.692 38.5273 481.645 38.8467 482.348 39.4854C483.051 40.124 483.402 40.9883 483.402 42.0781ZM481.548 47.9053C481.548 47.2725 481.357 46.7627 480.977 46.376C480.602 45.9834 480.104 45.7871 479.482 45.7871C478.861 45.7871 478.363 45.9805 477.988 46.3672C477.619 46.7539 477.435 47.2666 477.435 47.9053C477.435 48.5322 477.616 49.0332 477.979 49.4082C478.349 49.7832 478.855 49.9707 479.5 49.9707C480.145 49.9707 480.646 49.7891 481.003 49.4258C481.366 49.0625 481.548 48.5557 481.548 47.9053ZM481.275 42.1572C481.275 41.6006 481.114 41.1436 480.792 40.7861C480.47 40.4229 480.036 40.2412 479.491 40.2412C478.946 40.2412 478.516 40.4141 478.199 40.7598C477.883 41.0996 477.725 41.5654 477.725 42.1572C477.725 42.7432 477.883 43.209 478.199 43.5547C478.521 43.9004 478.955 44.0732 479.5 44.0732C480.045 44.0732 480.476 43.9004 480.792 43.5547C481.114 43.209 481.275 42.7432 481.275 42.1572Z" fill="#001EBB"/>
<g filter="url(#filter8_d)">
<rect x="516" y="20" width="50" height="50" rx="6" fill="#FFF000"/>
<rect x="517" y="21" width="48" height="48" rx="5" stroke="#001EBB" stroke-width="2"/>
</g>
<path d="M543.398 46.1475C542.684 46.9033 541.849 47.2812 540.894 47.2812C539.769 47.2812 538.872 46.8887 538.204 46.1035C537.536 45.3125 537.202 44.2754 537.202 42.9922C537.202 42.1484 537.372 41.3838 537.712 40.6982C538.052 40.0127 538.535 39.4795 539.162 39.0986C539.789 38.7178 540.516 38.5273 541.342 38.5273C542.631 38.5273 543.653 39.0078 544.409 39.9688C545.165 40.9297 545.543 42.2158 545.543 43.8271V44.4248C545.543 46.7334 545.021 48.4941 543.979 49.707C542.936 50.9199 541.38 51.5352 539.312 51.5527H539.057V49.7861H539.364C540.624 49.7686 541.591 49.4668 542.265 48.8809C542.938 48.2891 543.316 47.3779 543.398 46.1475ZM541.342 45.6113C541.77 45.6113 542.171 45.4883 542.546 45.2422C542.921 44.9961 543.211 44.6562 543.416 44.2227V43.3877C543.416 42.4443 543.223 41.6855 542.836 41.1113C542.449 40.5371 541.948 40.25 541.333 40.25C540.718 40.25 540.226 40.5049 539.856 41.0146C539.493 41.5186 539.312 42.1572 539.312 42.9307C539.312 43.7334 539.496 44.3809 539.865 44.873C540.234 45.3652 540.727 45.6113 541.342 45.6113Z" fill="#001EBB"/>
<defs>
<filter id="filter0_d" x="20" y="20" width="56" height="56" filterUnits="userSpaceOnUse" color-interpolation-filters="sRGB">
<feFlood flood-opacity="0" result="BackgroundImageFix"/>
<feColorMatrix in="SourceAlpha" type="matrix" values="0 0 0 0 0 0 0 0 0 0 0 0 0 0 0 0 0 0 127 0"/>
<feOffset dx="6" dy="6"/>
<feColorMatrix type="matrix" values="0 0 0 0 0 0 0 0 0 0 0 0 0 0 0 0 0 0 0.15 0"/>
<feBlend mode="normal" in2="BackgroundImageFix" result="effect1_dropShadow"/>
<feBlend mode="normal" in="SourceGraphic" in2="effect1_dropShadow" result="shape"/>
</filter>
<filter id="filter1_d" x="82" y="20" width="56" height="56" filterUnits="userSpaceOnUse" color-interpolation-filters="sRGB">
<feFlood flood-opacity="0" result="BackgroundImageFix"/>
<feColorMatrix in="SourceAlpha" type="matrix" values="0 0 0 0 0 0 0 0 0 0 0 0 0 0 0 0 0 0 127 0"/>
<feOffset dx="6" dy="6"/>
<feColorMatrix type="matrix" values="0 0 0 0 0 0 0 0 0 0 0 0 0 0 0 0 0 0 0.15 0"/>
<feBlend mode="normal" in2="BackgroundImageFix" result="effect1_dropShadow"/>
<feBlend mode="normal" in="SourceGraphic" in2="effect1_dropShadow" result="shape"/>
</filter>
<filter id="filter2_d" x="144" y="20" width="56" height="56" filterUnits="userSpaceOnUse" color-interpolation-filters="sRGB">
<feFlood flood-opacity="0" result="BackgroundImageFix"/>
<feColorMatrix in="SourceAlpha" type="matrix" values="0 0 0 0 0 0 0 0 0 0 0 0 0 0 0 0 0 0 127 0"/>
<feOffset dx="6" dy="6"/>
<feColorMatrix type="matrix" values="0 0 0 0 0 0 0 0 0 0 0 0 0 0 0 0 0 0 0.15 0"/>
<feBlend mode="normal" in2="BackgroundImageFix" result="effect1_dropShadow"/>
<feBlend mode="normal" in="SourceGraphic" in2="effect1_dropShadow" result="shape"/>
</filter>
<filter id="filter3_d" x="206" y="20" width="56" height="56" filterUnits="userSpaceOnUse" color-interpolation-filters="sRGB">
<feFlood flood-opacity="0" result="BackgroundImageFix"/>
<feColorMatrix in="SourceAlpha" type="matrix" values="0 0 0 0 0 0 0 0 0 0 0 0 0 0 0 0 0 0 127 0"/>
<feOffset dx="6" dy="6"/>
<feColorMatrix type="matrix" values="0 0 0 0 0 0 0 0 0 0 0 0 0 0 0 0 0 0 0.15 0"/>
<feBlend mode="normal" in2="BackgroundImageFix" result="effect1_dropShadow"/>
<feBlend mode="normal" in="SourceGraphic" in2="effect1_dropShadow" result="shape"/>
</filter>
<filter id="filter4_d" x="268" y="20" width="56" height="56" filterUnits="userSpaceOnUse" color-interpolation-filters="sRGB">
<feFlood flood-opacity="0" result="BackgroundImageFix"/>
<feColorMatrix in="SourceAlpha" type="matrix" values="0 0 0 0 0 0 0 0 0 0 0 0 0 0 0 0 0 0 127 0"/>
<feOffset dx="6" dy="6"/>
<feColorMatrix type="matrix" values="0 0 0 0 0 0 0 0 0 0 0 0 0 0 0 0 0 0 0.15 0"/>
<feBlend mode="normal" in2="BackgroundImageFix" result="effect1_dropShadow"/>
<feBlend mode="normal" in="SourceGraphic" in2="effect1_dropShadow" result="shape"/>
</filter>
<filter id="filter5_d" x="330" y="20" width="56" height="56" filterUnits="userSpaceOnUse" color-interpolation-filters="sRGB">
<feFlood flood-opacity="0" result="BackgroundImageFix"/>
<feColorMatrix in="SourceAlpha" type="matrix" values="0 0 0 0 0 0 0 0 0 0 0 0 0 0 0 0 0 0 127 0"/>
<feOffset dx="6" dy="6"/>
<feColorMatrix type="matrix" values="0 0 0 0 0 0 0 0 0 0 0 0 0 0 0 0 0 0 0.15 0"/>
<feBlend mode="normal" in2="BackgroundImageFix" result="effect1_dropShadow"/>
<feBlend mode="normal" in="SourceGraphic" in2="effect1_dropShadow" result="shape"/>
</filter>
<filter id="filter6_d" x="392" y="20" width="56" height="56" filterUnits="userSpaceOnUse" color-interpolation-filters="sRGB">
<feFlood flood-opacity="0" result="BackgroundImageFix"/>
<feColorMatrix in="SourceAlpha" type="matrix" values="0 0 0 0 0 0 0 0 0 0 0 0 0 0 0 0 0 0 127 0"/>
<feOffset dx="6" dy="6"/>
<feColorMatrix type="matrix" values="0 0 0 0 0 0 0 0 0 0 0 0 0 0 0 0 0 0 0.15 0"/>
<feBlend mode="normal" in2="BackgroundImageFix" result="effect1_dropShadow"/>
<feBlend mode="normal" in="SourceGraphic" in2="effect1_dropShadow" result="shape"/>
</filter>
<filter id="filter7_d" x="454" y="20" width="56" height="56" filterUnits="userSpaceOnUse" color-interpolation-filters="sRGB">
<feFlood flood-opacity="0" result="BackgroundImageFix"/>
<feColorMatrix in="SourceAlpha" type="matrix" values="0 0 0 0 0 0 0 0 0 0 0 0 0 0 0 0 0 0 127 0"/>
<feOffset dx="6" dy="6"/>
<feColorMatrix type="matrix" values="0 0 0 0 0 0 0 0 0 0 0 0 0 0 0 0 0 0 0.15 0"/>
<feBlend mode="normal" in2="BackgroundImageFix" result="effect1_dropShadow"/>
<feBlend mode="normal" in="SourceGraphic" in2="effect1_dropShadow" result="shape"/>
</filter>
<filter id="filter8_d" x="516" y="20" width="56" height="56" filterUnits="userSpaceOnUse" color-interpolation-filters="sRGB">
<feFlood flood-opacity="0" result="BackgroundImageFix"/>
<feColorMatrix in="SourceAlpha" type="matrix" values="0 0 0 0 0 0 0 0 0 0 0 0 0 0 0 0 0 0 127 0"/>
<feOffset dx="6" dy="6"/>
<feColorMatrix type="matrix" values="0 0 0 0 0 0 0 0 0 0 0 0 0 0 0 0 0 0 0.15 0"/>
<feBlend mode="normal" in2="BackgroundImageFix" result="effect1_dropShadow"/>
<feBlend mode="normal" in="SourceGraphic" in2="effect1_dropShadow" result="shape"/>
</filter>
</defs>
</svg>
