<svg width="350" height="242" viewBox="0 0 350 242" fill="none" xmlns="http://www.w3.org/2000/svg">
<rect x="1" y="27" width="348" height="78" rx="5" fill="#F7F7F7" stroke="#AAAAAA" stroke-width="2" stroke-dasharray="6 4"/>
<path d="M5.63965 3.81934C5.1748 3.75553 4.77376 3.72363 4.43652 3.72363C3.54329 3.72363 3.09668 4.1429 3.09668 4.98145V5.60352H4.60059V6.83398H3.09668V13H1.43555V6.83398H0.307617V5.60352H1.43555V4.94043C1.4401 4.10645 1.6862 3.46842 2.17383 3.02637C2.66602 2.57975 3.35872 2.35645 4.25195 2.35645C4.80794 2.35645 5.82422 2.46582 7.30078 2.68457V13H5.63965V3.81934ZM12.3936 13.1367C11.3408 13.1367 10.4863 12.8063 9.83008 12.1455C9.17839 11.4801 8.85254 10.596 8.85254 9.49316V9.28809C8.85254 8.5498 8.99382 7.89128 9.27637 7.3125C9.56348 6.72917 9.96452 6.27572 10.4795 5.95215C10.9945 5.62858 11.5687 5.4668 12.2021 5.4668C13.2093 5.4668 13.9863 5.78809 14.5332 6.43066C15.0846 7.07324 15.3604 7.98242 15.3604 9.1582V9.82812H10.5273C10.5775 10.4388 10.7803 10.9219 11.1357 11.2773C11.4958 11.6328 11.9469 11.8105 12.4893 11.8105C13.2503 11.8105 13.8701 11.5029 14.3486 10.8877L15.2441 11.7422C14.9479 12.1842 14.5514 12.5283 14.0547 12.7744C13.5625 13.016 13.0088 13.1367 12.3936 13.1367ZM12.1953 6.7998C11.7396 6.7998 11.3704 6.95931 11.0879 7.27832C10.8099 7.59733 10.6322 8.04167 10.5547 8.61133H13.7197V8.48828C13.6833 7.93229 13.5352 7.51302 13.2754 7.23047C13.0156 6.94336 12.6556 6.7998 12.1953 6.7998ZM19.3115 8.03711L20.7197 5.60352H22.5654L20.3027 9.24707L22.6406 13H20.8086L19.332 10.4707L17.8623 13H16.0166L18.3545 9.24707L16.0986 5.60352H17.9307L19.3115 8.03711ZM30.2217 11.8105C30.6364 11.8105 30.9805 11.6898 31.2539 11.4482C31.5273 11.2067 31.6732 10.9082 31.6914 10.5527H33.2568C33.2386 11.013 33.0951 11.4437 32.8262 11.8447C32.5573 12.2412 32.1927 12.5557 31.7324 12.7881C31.2721 13.0205 30.7754 13.1367 30.2422 13.1367C29.2077 13.1367 28.3874 12.8018 27.7812 12.1318C27.1751 11.4619 26.8721 10.5368 26.8721 9.35645V9.18555C26.8721 8.0599 27.1729 7.15983 27.7744 6.48535C28.376 5.80632 29.1963 5.4668 30.2354 5.4668C31.1149 5.4668 31.8304 5.72428 32.3818 6.23926C32.9378 6.74967 33.2295 7.42188 33.2568 8.25586H31.6914C31.6732 7.83203 31.5273 7.4834 31.2539 7.20996C30.985 6.93652 30.641 6.7998 30.2217 6.7998C29.6839 6.7998 29.2692 6.99577 28.9775 7.3877C28.6859 7.77507 28.5378 8.36523 28.5332 9.1582V9.4248C28.5332 10.2269 28.6768 10.8262 28.9639 11.2227C29.2555 11.6146 29.6748 11.8105 30.2217 11.8105ZM34.2002 9.2334C34.2002 8.50879 34.3438 7.8571 34.6309 7.27832C34.918 6.69499 35.3213 6.24837 35.8408 5.93848C36.3604 5.62402 36.9574 5.4668 37.6318 5.4668C38.6299 5.4668 39.4388 5.78809 40.0586 6.43066C40.6829 7.07324 41.0202 7.92546 41.0703 8.9873L41.0771 9.37695C41.0771 10.1061 40.9359 10.7578 40.6533 11.332C40.3753 11.9062 39.9743 12.3506 39.4502 12.665C38.9307 12.9795 38.3291 13.1367 37.6455 13.1367C36.6019 13.1367 35.7656 12.7904 35.1367 12.0977C34.5124 11.4004 34.2002 10.473 34.2002 9.31543V9.2334ZM35.8613 9.37695C35.8613 10.138 36.0186 10.735 36.333 11.168C36.6475 11.5964 37.085 11.8105 37.6455 11.8105C38.2061 11.8105 38.6413 11.5918 38.9512 11.1543C39.2656 10.7168 39.4229 10.0765 39.4229 9.2334C39.4229 8.486 39.2611 7.89355 38.9375 7.45605C38.6185 7.01855 38.1833 6.7998 37.6318 6.7998C37.0895 6.7998 36.6589 7.01628 36.3398 7.44922C36.0208 7.8776 35.8613 8.52018 35.8613 9.37695ZM44.0234 5.60352L44.0713 6.45801C44.6182 5.7972 45.3359 5.4668 46.2246 5.4668C47.765 5.4668 48.5488 6.34863 48.5762 8.1123V13H46.915V8.20801C46.915 7.73861 46.8125 7.39225 46.6074 7.16895C46.4069 6.94108 46.0765 6.82715 45.6162 6.82715C44.9463 6.82715 44.4473 7.13021 44.1191 7.73633V13H42.458V5.60352H44.0234ZM52.3564 3.80566V5.60352H53.6621V6.83398H52.3564V10.9629C52.3564 11.2454 52.4111 11.4505 52.5205 11.5781C52.6344 11.7012 52.835 11.7627 53.1221 11.7627C53.3135 11.7627 53.5072 11.7399 53.7031 11.6943V12.9795C53.3249 13.0843 52.9603 13.1367 52.6094 13.1367C51.3333 13.1367 50.6953 12.4326 50.6953 11.0244V6.83398H49.4785V5.60352H50.6953V3.80566H52.3564ZM59.3564 13C59.2835 12.8587 59.2197 12.6286 59.165 12.3096C58.6364 12.861 57.9893 13.1367 57.2236 13.1367C56.4808 13.1367 55.8747 12.9248 55.4053 12.501C54.9359 12.0771 54.7012 11.5531 54.7012 10.9287C54.7012 10.1403 54.9928 9.53646 55.5762 9.11719C56.1641 8.69336 57.0026 8.48145 58.0918 8.48145H59.1104V7.99609C59.1104 7.61328 59.0033 7.30794 58.7891 7.08008C58.5749 6.84766 58.249 6.73145 57.8115 6.73145C57.4333 6.73145 57.1234 6.82715 56.8818 7.01855C56.6403 7.2054 56.5195 7.44466 56.5195 7.73633H54.8584C54.8584 7.33073 54.9928 6.95247 55.2617 6.60156C55.5306 6.24609 55.8952 5.9681 56.3555 5.76758C56.8203 5.56706 57.3376 5.4668 57.9072 5.4668C58.7731 5.4668 59.4635 5.68555 59.9785 6.12305C60.4935 6.55599 60.7578 7.16667 60.7715 7.95508V11.291C60.7715 11.9564 60.8649 12.4873 61.0518 12.8838V13H59.3564ZM57.5312 11.8037C57.8594 11.8037 58.167 11.724 58.4541 11.5645C58.7458 11.4049 58.9645 11.1908 59.1104 10.9219V9.52734H58.2148C57.5996 9.52734 57.137 9.63444 56.8271 9.84863C56.5173 10.0628 56.3623 10.3659 56.3623 10.7578C56.3623 11.0768 56.4671 11.332 56.6768 11.5234C56.891 11.7103 57.1758 11.8037 57.5312 11.8037ZM64.2783 13H62.6172V5.60352H64.2783V13ZM62.5146 3.68262C62.5146 3.42741 62.5944 3.21549 62.7539 3.04688C62.918 2.87826 63.1504 2.79395 63.4512 2.79395C63.752 2.79395 63.9844 2.87826 64.1484 3.04688C64.3125 3.21549 64.3945 3.42741 64.3945 3.68262C64.3945 3.93327 64.3125 4.1429 64.1484 4.31152C63.9844 4.47559 63.752 4.55762 63.4512 4.55762C63.1504 4.55762 62.918 4.47559 62.7539 4.31152C62.5944 4.1429 62.5146 3.93327 62.5146 3.68262ZM67.6348 5.60352L67.6826 6.45801C68.2295 5.7972 68.9473 5.4668 69.8359 5.4668C71.3763 5.4668 72.1602 6.34863 72.1875 8.1123V13H70.5264V8.20801C70.5264 7.73861 70.4238 7.39225 70.2188 7.16895C70.0182 6.94108 69.6878 6.82715 69.2275 6.82715C68.5576 6.82715 68.0586 7.13021 67.7305 7.73633V13H66.0693V5.60352H67.6348ZM77.1436 13.1367C76.0908 13.1367 75.2363 12.8063 74.5801 12.1455C73.9284 11.4801 73.6025 10.596 73.6025 9.49316V9.28809C73.6025 8.5498 73.7438 7.89128 74.0264 7.3125C74.3135 6.72917 74.7145 6.27572 75.2295 5.95215C75.7445 5.62858 76.3187 5.4668 76.9521 5.4668C77.9593 5.4668 78.7363 5.78809 79.2832 6.43066C79.8346 7.07324 80.1104 7.98242 80.1104 9.1582V9.82812H75.2773C75.3275 10.4388 75.5303 10.9219 75.8857 11.2773C76.2458 11.6328 76.6969 11.8105 77.2393 11.8105C78.0003 11.8105 78.6201 11.5029 79.0986 10.8877L79.9941 11.7422C79.6979 12.1842 79.3014 12.5283 78.8047 12.7744C78.3125 13.016 77.7588 13.1367 77.1436 13.1367ZM76.9453 6.7998C76.4896 6.7998 76.1204 6.95931 75.8379 7.27832C75.5599 7.59733 75.3822 8.04167 75.3047 8.61133H78.4697V8.48828C78.4333 7.93229 78.2852 7.51302 78.0254 7.23047C77.7656 6.94336 77.4056 6.7998 76.9453 6.7998ZM85.2783 7.12109C85.0596 7.08464 84.834 7.06641 84.6016 7.06641C83.8405 7.06641 83.3278 7.35807 83.0635 7.94141V13H81.4023V5.60352H82.9883L83.0293 6.43066C83.4303 5.78809 83.9863 5.4668 84.6973 5.4668C84.9342 5.4668 85.1302 5.4987 85.2852 5.5625L85.2783 7.12109Z" fill="#BBBBBB"/>
<g opacity="0.8">
<path d="M10 39C10 37.3431 11.3431 36 13 36H111C112.657 36 114 37.3431 114 39V93C114 94.6569 112.657 96 111 96H13C11.3431 96 10 94.6569 10 93V39Z" fill="#1E73FF"/>
<path d="M63.6548 69.7998H61.8823V61.2378L59.2676 62.1313V60.6299L63.4277 59.0991H63.6548V69.7998Z" fill="white"/>
</g>
<g opacity="0.8">
<path d="M124 39C124 37.3431 125.343 36 127 36H224C225.657 36 227 37.3431 227 39V93C227 94.6569 225.657 96 224 96H127C125.343 96 124 94.6569 124 93V39Z" fill="#1E73FF"/>
<path d="M179.556 69.7998H172.385V68.5767L175.938 64.7021C176.45 64.1309 176.814 63.6548 177.029 63.2739C177.249 62.8882 177.358 62.5024 177.358 62.1167C177.358 61.6089 177.214 61.1987 176.926 60.8862C176.643 60.5737 176.26 60.4175 175.776 60.4175C175.2 60.4175 174.753 60.5933 174.436 60.9448C174.119 61.2964 173.96 61.7773 173.96 62.3877H172.18C172.18 61.7383 172.327 61.1548 172.62 60.6372C172.917 60.1147 173.34 59.7095 173.887 59.4214C174.438 59.1333 175.073 58.9893 175.791 58.9893C176.826 58.9893 177.642 59.2505 178.237 59.7729C178.838 60.2905 179.138 61.0083 179.138 61.9263C179.138 62.4585 178.987 63.0176 178.684 63.6035C178.386 64.1846 177.896 64.8462 177.212 65.5884L174.604 68.3789H179.556V69.7998Z" fill="white"/>
</g>
<g opacity="0.8">
<path d="M237 39C237 37.3431 238.343 36 240 36H337C338.657 36 340 37.3431 340 39V93C340 94.6569 338.657 96 337 96H240C238.343 96 237 94.6569 237 93V39Z" fill="#1E73FF"/>
<path d="M287.443 63.6548H288.527C289.074 63.6499 289.506 63.5083 289.824 63.23C290.146 62.9517 290.307 62.5488 290.307 62.0215C290.307 61.5137 290.173 61.1206 289.904 60.8423C289.641 60.5591 289.235 60.4175 288.688 60.4175C288.21 60.4175 287.817 60.5566 287.509 60.835C287.202 61.1084 287.048 61.4673 287.048 61.9116H285.268C285.268 61.3647 285.412 60.8667 285.7 60.4175C285.993 59.9683 286.398 59.6191 286.916 59.3701C287.438 59.1162 288.022 58.9893 288.667 58.9893C289.731 58.9893 290.566 59.2578 291.171 59.7949C291.782 60.3271 292.087 61.0693 292.087 62.0215C292.087 62.5 291.933 62.9517 291.625 63.3765C291.323 63.7964 290.93 64.1138 290.446 64.3286C291.032 64.5288 291.477 64.8438 291.779 65.2734C292.087 65.7031 292.241 66.2158 292.241 66.8115C292.241 67.7686 291.911 68.5303 291.252 69.0967C290.598 69.6631 289.736 69.9463 288.667 69.9463C287.641 69.9463 286.801 69.6729 286.147 69.126C285.493 68.5791 285.166 67.8516 285.166 66.9434H286.945C286.945 67.4121 287.102 67.793 287.414 68.0859C287.731 68.3789 288.156 68.5254 288.688 68.5254C289.24 68.5254 289.675 68.3789 289.992 68.0859C290.31 67.793 290.468 67.3682 290.468 66.8115C290.468 66.25 290.302 65.8179 289.97 65.5151C289.638 65.2124 289.145 65.061 288.491 65.061H287.443V63.6548Z" fill="white"/>
</g>
<rect x="1" y="163" width="348" height="78" rx="5" fill="#F7F7F7" stroke="#AAAAAA" stroke-width="2" stroke-dasharray="6 4"/>
<path d="M5.63965 139.819C5.1748 139.756 4.77376 139.724 4.43652 139.724C3.54329 139.724 3.09668 140.143 3.09668 140.981V141.604H4.60059V142.834H3.09668V149H1.43555V142.834H0.307617V141.604H1.43555V140.94C1.4401 140.106 1.6862 139.468 2.17383 139.026C2.66602 138.58 3.35872 138.356 4.25195 138.356C4.80794 138.356 5.82422 138.466 7.30078 138.685V149H5.63965V139.819ZM12.3936 149.137C11.3408 149.137 10.4863 148.806 9.83008 148.146C9.17839 147.48 8.85254 146.596 8.85254 145.493V145.288C8.85254 144.55 8.99382 143.891 9.27637 143.312C9.56348 142.729 9.96452 142.276 10.4795 141.952C10.9945 141.629 11.5687 141.467 12.2021 141.467C13.2093 141.467 13.9863 141.788 14.5332 142.431C15.0846 143.073 15.3604 143.982 15.3604 145.158V145.828H10.5273C10.5775 146.439 10.7803 146.922 11.1357 147.277C11.4958 147.633 11.9469 147.811 12.4893 147.811C13.2503 147.811 13.8701 147.503 14.3486 146.888L15.2441 147.742C14.9479 148.184 14.5514 148.528 14.0547 148.774C13.5625 149.016 13.0088 149.137 12.3936 149.137ZM12.1953 142.8C11.7396 142.8 11.3704 142.959 11.0879 143.278C10.8099 143.597 10.6322 144.042 10.5547 144.611H13.7197V144.488C13.6833 143.932 13.5352 143.513 13.2754 143.23C13.0156 142.943 12.6556 142.8 12.1953 142.8ZM19.3115 144.037L20.7197 141.604H22.5654L20.3027 145.247L22.6406 149H20.8086L19.332 146.471L17.8623 149H16.0166L18.3545 145.247L16.0986 141.604H17.9307L19.3115 144.037ZM30.2217 147.811C30.6364 147.811 30.9805 147.69 31.2539 147.448C31.5273 147.207 31.6732 146.908 31.6914 146.553H33.2568C33.2386 147.013 33.0951 147.444 32.8262 147.845C32.5573 148.241 32.1927 148.556 31.7324 148.788C31.2721 149.021 30.7754 149.137 30.2422 149.137C29.2077 149.137 28.3874 148.802 27.7812 148.132C27.1751 147.462 26.8721 146.537 26.8721 145.356V145.186C26.8721 144.06 27.1729 143.16 27.7744 142.485C28.376 141.806 29.1963 141.467 30.2354 141.467C31.1149 141.467 31.8304 141.724 32.3818 142.239C32.9378 142.75 33.2295 143.422 33.2568 144.256H31.6914C31.6732 143.832 31.5273 143.483 31.2539 143.21C30.985 142.937 30.641 142.8 30.2217 142.8C29.6839 142.8 29.2692 142.996 28.9775 143.388C28.6859 143.775 28.5378 144.365 28.5332 145.158V145.425C28.5332 146.227 28.6768 146.826 28.9639 147.223C29.2555 147.615 29.6748 147.811 30.2217 147.811ZM34.2002 145.233C34.2002 144.509 34.3438 143.857 34.6309 143.278C34.918 142.695 35.3213 142.248 35.8408 141.938C36.3604 141.624 36.9574 141.467 37.6318 141.467C38.6299 141.467 39.4388 141.788 40.0586 142.431C40.6829 143.073 41.0202 143.925 41.0703 144.987L41.0771 145.377C41.0771 146.106 40.9359 146.758 40.6533 147.332C40.3753 147.906 39.9743 148.351 39.4502 148.665C38.9307 148.979 38.3291 149.137 37.6455 149.137C36.6019 149.137 35.7656 148.79 35.1367 148.098C34.5124 147.4 34.2002 146.473 34.2002 145.315V145.233ZM35.8613 145.377C35.8613 146.138 36.0186 146.735 36.333 147.168C36.6475 147.596 37.085 147.811 37.6455 147.811C38.2061 147.811 38.6413 147.592 38.9512 147.154C39.2656 146.717 39.4229 146.076 39.4229 145.233C39.4229 144.486 39.2611 143.894 38.9375 143.456C38.6185 143.019 38.1833 142.8 37.6318 142.8C37.0895 142.8 36.6589 143.016 36.3398 143.449C36.0208 143.878 35.8613 144.52 35.8613 145.377ZM44.0234 141.604L44.0713 142.458C44.6182 141.797 45.3359 141.467 46.2246 141.467C47.765 141.467 48.5488 142.349 48.5762 144.112V149H46.915V144.208C46.915 143.739 46.8125 143.392 46.6074 143.169C46.4069 142.941 46.0765 142.827 45.6162 142.827C44.9463 142.827 44.4473 143.13 44.1191 143.736V149H42.458V141.604H44.0234ZM52.3564 139.806V141.604H53.6621V142.834H52.3564V146.963C52.3564 147.245 52.4111 147.451 52.5205 147.578C52.6344 147.701 52.835 147.763 53.1221 147.763C53.3135 147.763 53.5072 147.74 53.7031 147.694V148.979C53.3249 149.084 52.9603 149.137 52.6094 149.137C51.3333 149.137 50.6953 148.433 50.6953 147.024V142.834H49.4785V141.604H50.6953V139.806H52.3564ZM59.3564 149C59.2835 148.859 59.2197 148.629 59.165 148.31C58.6364 148.861 57.9893 149.137 57.2236 149.137C56.4808 149.137 55.8747 148.925 55.4053 148.501C54.9359 148.077 54.7012 147.553 54.7012 146.929C54.7012 146.14 54.9928 145.536 55.5762 145.117C56.1641 144.693 57.0026 144.481 58.0918 144.481H59.1104V143.996C59.1104 143.613 59.0033 143.308 58.7891 143.08C58.5749 142.848 58.249 142.731 57.8115 142.731C57.4333 142.731 57.1234 142.827 56.8818 143.019C56.6403 143.205 56.5195 143.445 56.5195 143.736H54.8584C54.8584 143.331 54.9928 142.952 55.2617 142.602C55.5306 142.246 55.8952 141.968 56.3555 141.768C56.8203 141.567 57.3376 141.467 57.9072 141.467C58.7731 141.467 59.4635 141.686 59.9785 142.123C60.4935 142.556 60.7578 143.167 60.7715 143.955V147.291C60.7715 147.956 60.8649 148.487 61.0518 148.884V149H59.3564ZM57.5312 147.804C57.8594 147.804 58.167 147.724 58.4541 147.564C58.7458 147.405 58.9645 147.191 59.1104 146.922V145.527H58.2148C57.5996 145.527 57.137 145.634 56.8271 145.849C56.5173 146.063 56.3623 146.366 56.3623 146.758C56.3623 147.077 56.4671 147.332 56.6768 147.523C56.891 147.71 57.1758 147.804 57.5312 147.804ZM64.2783 149H62.6172V141.604H64.2783V149ZM62.5146 139.683C62.5146 139.427 62.5944 139.215 62.7539 139.047C62.918 138.878 63.1504 138.794 63.4512 138.794C63.752 138.794 63.9844 138.878 64.1484 139.047C64.3125 139.215 64.3945 139.427 64.3945 139.683C64.3945 139.933 64.3125 140.143 64.1484 140.312C63.9844 140.476 63.752 140.558 63.4512 140.558C63.1504 140.558 62.918 140.476 62.7539 140.312C62.5944 140.143 62.5146 139.933 62.5146 139.683ZM67.6348 141.604L67.6826 142.458C68.2295 141.797 68.9473 141.467 69.8359 141.467C71.3763 141.467 72.1602 142.349 72.1875 144.112V149H70.5264V144.208C70.5264 143.739 70.4238 143.392 70.2188 143.169C70.0182 142.941 69.6878 142.827 69.2275 142.827C68.5576 142.827 68.0586 143.13 67.7305 143.736V149H66.0693V141.604H67.6348ZM77.1436 149.137C76.0908 149.137 75.2363 148.806 74.5801 148.146C73.9284 147.48 73.6025 146.596 73.6025 145.493V145.288C73.6025 144.55 73.7438 143.891 74.0264 143.312C74.3135 142.729 74.7145 142.276 75.2295 141.952C75.7445 141.629 76.3187 141.467 76.9521 141.467C77.9593 141.467 78.7363 141.788 79.2832 142.431C79.8346 143.073 80.1104 143.982 80.1104 145.158V145.828H75.2773C75.3275 146.439 75.5303 146.922 75.8857 147.277C76.2458 147.633 76.6969 147.811 77.2393 147.811C78.0003 147.811 78.6201 147.503 79.0986 146.888L79.9941 147.742C79.6979 148.184 79.3014 148.528 78.8047 148.774C78.3125 149.016 77.7588 149.137 77.1436 149.137ZM76.9453 142.8C76.4896 142.8 76.1204 142.959 75.8379 143.278C75.5599 143.597 75.3822 144.042 75.3047 144.611H78.4697V144.488C78.4333 143.932 78.2852 143.513 78.0254 143.23C77.7656 142.943 77.4056 142.8 76.9453 142.8ZM85.2783 143.121C85.0596 143.085 84.834 143.066 84.6016 143.066C83.8405 143.066 83.3278 143.358 83.0635 143.941V149H81.4023V141.604H82.9883L83.0293 142.431C83.4303 141.788 83.9863 141.467 84.6973 141.467C84.9342 141.467 85.1302 141.499 85.2852 141.562L85.2783 143.121Z" fill="#BBBBBB"/>
<g opacity="0.8">
<path d="M10 175C10 173.343 11.3431 172 13 172H80C81.6569 172 83 173.343 83 175V229C83 230.657 81.6569 232 80 232H13C11.3431 232 10 230.657 10 229V175Z" fill="#1E73FF"/>
<path d="M48.7046 205.8H46.9321V197.238L44.3174 198.131V196.63L48.4775 195.099H48.7046V205.8Z" fill="white"/>
</g>
<g opacity="0.8">
<path d="M93 175C93 173.343 94.3431 172 96 172H254C255.657 172 257 173.343 257 175V229C257 230.657 255.657 232 254 232H96C94.3431 232 93 230.657 93 229V175Z" fill="#1E73FF"/>
<path d="M180.006 205.8H172.835V204.577L176.388 200.702C176.9 200.131 177.264 199.655 177.479 199.274C177.699 198.888 177.809 198.502 177.809 198.117C177.809 197.609 177.665 197.199 177.376 196.886C177.093 196.574 176.71 196.417 176.227 196.417C175.65 196.417 175.204 196.593 174.886 196.945C174.569 197.296 174.41 197.777 174.41 198.388H172.63C172.63 197.738 172.777 197.155 173.07 196.637C173.368 196.115 173.79 195.709 174.337 195.421C174.889 195.133 175.523 194.989 176.241 194.989C177.276 194.989 178.092 195.25 178.688 195.773C179.288 196.291 179.588 197.008 179.588 197.926C179.588 198.458 179.437 199.018 179.134 199.604C178.836 200.185 178.346 200.846 177.662 201.588L175.055 204.379H180.006V205.8Z" fill="white"/>
</g>
<g opacity="0.8">
<path d="M267 175C267 173.343 268.343 172 270 172H337C338.657 172 340 173.343 340 175V229C340 230.657 338.657 232 337 232H270C268.343 232 267 230.657 267 229V175Z" fill="#1E73FF"/>
<path d="M302.943 199.655H304.027C304.574 199.65 305.006 199.508 305.324 199.23C305.646 198.952 305.807 198.549 305.807 198.021C305.807 197.514 305.673 197.121 305.404 196.842C305.141 196.559 304.735 196.417 304.188 196.417C303.71 196.417 303.317 196.557 303.009 196.835C302.702 197.108 302.548 197.467 302.548 197.912H300.768C300.768 197.365 300.912 196.867 301.2 196.417C301.493 195.968 301.898 195.619 302.416 195.37C302.938 195.116 303.522 194.989 304.167 194.989C305.231 194.989 306.066 195.258 306.671 195.795C307.282 196.327 307.587 197.069 307.587 198.021C307.587 198.5 307.433 198.952 307.125 199.376C306.823 199.796 306.43 200.114 305.946 200.329C306.532 200.529 306.977 200.844 307.279 201.273C307.587 201.703 307.741 202.216 307.741 202.812C307.741 203.769 307.411 204.53 306.752 205.097C306.098 205.663 305.236 205.946 304.167 205.946C303.141 205.946 302.301 205.673 301.647 205.126C300.993 204.579 300.666 203.852 300.666 202.943H302.445C302.445 203.412 302.602 203.793 302.914 204.086C303.231 204.379 303.656 204.525 304.188 204.525C304.74 204.525 305.175 204.379 305.492 204.086C305.81 203.793 305.968 203.368 305.968 202.812C305.968 202.25 305.802 201.818 305.47 201.515C305.138 201.212 304.645 201.061 303.991 201.061H302.943V199.655Z" fill="white"/>
</g>
</svg>
