<svg width="588" height="228" viewBox="0 0 588 228" fill="none" xmlns="http://www.w3.org/2000/svg">
<rect x="1" y="1" width="586" height="226" rx="9" fill="#7187FB" stroke="#001EBB" stroke-width="2"/>
<g filter="url(#filter0_d)">
<rect x="20" y="20" width="100" height="100" rx="6" fill="#FFF000"/>
<rect x="21" y="21" width="98" height="98" rx="5" stroke="#001EBB" stroke-width="2"/>
</g>
<path d="M45.9316 63.5C45.8587 63.3542 45.7995 63.0944 45.7539 62.7207C45.166 63.3314 44.4642 63.6367 43.6484 63.6367C42.9193 63.6367 42.32 63.4316 41.8506 63.0215C41.3857 62.6068 41.1533 62.0827 41.1533 61.4492C41.1533 60.679 41.445 60.082 42.0283 59.6582C42.6162 59.2298 43.4411 59.0156 44.5029 59.0156H45.7334V58.4346C45.7334 57.9925 45.6012 57.6416 45.3369 57.3818C45.0726 57.1175 44.6829 56.9854 44.168 56.9854C43.7168 56.9854 43.3385 57.0993 43.0332 57.3271C42.7279 57.555 42.5752 57.8307 42.5752 58.1543H41.3037C41.3037 57.7852 41.4336 57.4297 41.6934 57.0879C41.9577 56.7415 42.3132 56.4681 42.7598 56.2676C43.2109 56.0671 43.7054 55.9668 44.2432 55.9668C45.0954 55.9668 45.763 56.181 46.2461 56.6094C46.7292 57.0332 46.9798 57.6188 46.998 58.3662V61.7705C46.998 62.4495 47.0846 62.9896 47.2578 63.3906V63.5H45.9316ZM43.833 62.5361C44.2295 62.5361 44.6055 62.4336 44.9609 62.2285C45.3164 62.0234 45.5739 61.7568 45.7334 61.4287V59.9111H44.7422C43.1927 59.9111 42.418 60.3646 42.418 61.2715C42.418 61.668 42.5501 61.9779 42.8145 62.2012C43.0788 62.4245 43.4183 62.5361 43.833 62.5361ZM50.3545 63.5H49.0898V53H50.3545V63.5ZM53.7588 63.5H52.4941V56.1035H53.7588V63.5ZM52.3916 54.1416C52.3916 53.9365 52.4531 53.7633 52.5762 53.6221C52.7038 53.4808 52.8906 53.4102 53.1367 53.4102C53.3828 53.4102 53.5697 53.4808 53.6973 53.6221C53.8249 53.7633 53.8887 53.9365 53.8887 54.1416C53.8887 54.3467 53.8249 54.5176 53.6973 54.6543C53.5697 54.791 53.3828 54.8594 53.1367 54.8594C52.8906 54.8594 52.7038 54.791 52.5762 54.6543C52.4531 54.5176 52.3916 54.3467 52.3916 54.1416ZM55.4883 59.7402C55.4883 58.5872 55.7549 57.6712 56.2881 56.9922C56.8213 56.3086 57.5277 55.9668 58.4072 55.9668C59.3096 55.9668 60.0137 56.2858 60.5195 56.9238L60.5811 56.1035H61.7363V63.3223C61.7363 64.2793 61.4515 65.0335 60.8818 65.585C60.3167 66.1364 59.5557 66.4121 58.5986 66.4121C58.0654 66.4121 57.5436 66.2982 57.0332 66.0703C56.5228 65.8424 56.1331 65.5303 55.8643 65.1338L56.5205 64.375C57.0628 65.0449 57.7259 65.3799 58.5098 65.3799C59.125 65.3799 59.6035 65.2067 59.9453 64.8604C60.2917 64.514 60.4648 64.0264 60.4648 63.3975V62.7617C59.959 63.3451 59.2686 63.6367 58.3936 63.6367C57.5277 63.6367 56.8258 63.2881 56.2881 62.5908C55.7549 61.8936 55.4883 60.9434 55.4883 59.7402ZM56.7598 59.8838C56.7598 60.7178 56.9307 61.374 57.2725 61.8525C57.6143 62.3265 58.0928 62.5635 58.708 62.5635C59.5055 62.5635 60.0911 62.2012 60.4648 61.4766V58.0996C60.0775 57.3932 59.4964 57.04 58.7217 57.04C58.1064 57.04 57.6257 57.2793 57.2793 57.7578C56.9329 58.2363 56.7598 58.945 56.7598 59.8838ZM64.8467 56.1035L64.8877 57.0332C65.4528 56.3223 66.1911 55.9668 67.1025 55.9668C68.6657 55.9668 69.4541 56.8486 69.4678 58.6123V63.5H68.2031V58.6055C68.1986 58.0723 68.0755 57.6781 67.834 57.4229C67.597 57.1676 67.2256 57.04 66.7197 57.04C66.3096 57.04 65.9495 57.1494 65.6396 57.3682C65.3298 57.5869 65.0882 57.874 64.915 58.2295V63.5H63.6504V56.1035H64.8467ZM74.0068 59.7881H70.6709V58.7559H74.0068V59.7881ZM79.5508 61.5381C79.5508 61.1963 79.4209 60.932 79.1611 60.7451C78.9059 60.5537 78.457 60.3896 77.8145 60.2529C77.1764 60.1162 76.6683 59.9521 76.29 59.7607C75.9163 59.5693 75.6383 59.3415 75.4561 59.0771C75.2783 58.8128 75.1895 58.4984 75.1895 58.1338C75.1895 57.5277 75.4447 57.015 75.9551 56.5957C76.4701 56.1764 77.1263 55.9668 77.9238 55.9668C78.7624 55.9668 79.4414 56.1833 79.9609 56.6162C80.485 57.0492 80.7471 57.6029 80.7471 58.2773H79.4756C79.4756 57.931 79.3275 57.6325 79.0312 57.3818C78.7396 57.1312 78.3704 57.0059 77.9238 57.0059C77.4635 57.0059 77.1035 57.1061 76.8438 57.3066C76.584 57.5072 76.4541 57.7692 76.4541 58.0928C76.4541 58.3981 76.5749 58.6283 76.8164 58.7832C77.0579 58.9382 77.4932 59.0863 78.1221 59.2275C78.7555 59.3688 79.2682 59.5374 79.6602 59.7334C80.0521 59.9294 80.3415 60.1663 80.5283 60.4443C80.7197 60.7178 80.8154 61.0527 80.8154 61.4492C80.8154 62.11 80.5511 62.641 80.0225 63.042C79.4938 63.4385 78.8079 63.6367 77.9648 63.6367C77.3724 63.6367 76.8483 63.5319 76.3926 63.3223C75.9368 63.1126 75.5791 62.821 75.3193 62.4473C75.0641 62.069 74.9365 61.6611 74.9365 61.2236H76.2012C76.224 61.6475 76.3926 61.9847 76.707 62.2354C77.026 62.4814 77.4453 62.6045 77.9648 62.6045C78.4434 62.6045 78.8262 62.5088 79.1133 62.3174C79.4049 62.1214 79.5508 61.8617 79.5508 61.5381ZM85.5322 63.6367C84.5296 63.6367 83.7139 63.3086 83.085 62.6523C82.4561 61.9915 82.1416 61.1097 82.1416 60.0068V59.7744C82.1416 59.0407 82.2806 58.3867 82.5586 57.8125C82.8411 57.2337 83.2331 56.7826 83.7344 56.459C84.2402 56.1309 84.7871 55.9668 85.375 55.9668C86.3366 55.9668 87.084 56.2835 87.6172 56.917C88.1504 57.5505 88.417 58.4574 88.417 59.6377V60.1641H83.4062C83.4245 60.8932 83.6364 61.4834 84.042 61.9346C84.4521 62.3812 84.9717 62.6045 85.6006 62.6045C86.0472 62.6045 86.4255 62.5133 86.7354 62.3311C87.0452 62.1488 87.3164 61.9072 87.5488 61.6064L88.3213 62.208C87.7015 63.1605 86.7718 63.6367 85.5322 63.6367ZM85.375 57.0059C84.8646 57.0059 84.4362 57.1927 84.0898 57.5664C83.7435 57.9355 83.5293 58.4551 83.4473 59.125H87.1523V59.0293C87.1159 58.3867 86.9427 57.89 86.6328 57.5391C86.3229 57.1836 85.9036 57.0059 85.375 57.0059ZM91.2607 63.5H89.9961V53H91.2607V63.5ZM93.9131 63.5V57.0811H92.7441V56.1035H93.9131V55.3447C93.9131 54.5518 94.125 53.9388 94.5488 53.5059C94.9727 53.0729 95.5719 52.8564 96.3467 52.8564C96.6383 52.8564 96.9277 52.8952 97.2148 52.9727L97.1465 53.998C96.9323 53.957 96.7044 53.9365 96.4629 53.9365C96.0527 53.9365 95.736 54.0573 95.5127 54.2988C95.2894 54.5358 95.1777 54.8776 95.1777 55.3242V56.1035H96.7568V57.0811H95.1777V63.5H93.9131ZM98.1172 62.8369C98.1172 62.6182 98.181 62.4359 98.3086 62.29C98.4408 62.1442 98.6367 62.0713 98.8965 62.0713C99.1562 62.0713 99.3522 62.1442 99.4844 62.29C99.6211 62.4359 99.6895 62.6182 99.6895 62.8369C99.6895 63.0465 99.6211 63.222 99.4844 63.3633C99.3522 63.5046 99.1562 63.5752 98.8965 63.5752C98.6367 63.5752 98.4408 63.5046 98.3086 63.3633C98.181 63.222 98.1172 63.0465 98.1172 62.8369ZM98.124 56.8008C98.124 56.582 98.1878 56.3997 98.3154 56.2539C98.4476 56.1081 98.6436 56.0352 98.9033 56.0352C99.1631 56.0352 99.359 56.1081 99.4912 56.2539C99.6279 56.3997 99.6963 56.582 99.6963 56.8008C99.6963 57.0104 99.6279 57.1859 99.4912 57.3271C99.359 57.4684 99.1631 57.5391 98.9033 57.5391C98.6436 57.5391 98.4476 57.4684 98.3154 57.3271C98.1878 57.1859 98.124 57.0104 98.124 56.8008ZM59.127 84.5C59.0098 84.2715 58.9248 83.9873 58.8721 83.6475C58.2568 84.333 57.457 84.6758 56.4727 84.6758C55.541 84.6758 54.7676 84.4062 54.1523 83.8672C53.543 83.3281 53.2383 82.6484 53.2383 81.8281C53.2383 80.8203 53.6104 80.0469 54.3545 79.5078C55.1045 78.9688 56.1855 78.6963 57.5977 78.6904H58.7666V78.1455C58.7666 77.7061 58.6523 77.3545 58.4238 77.0908C58.2012 76.8271 57.8467 76.6953 57.3604 76.6953C56.9326 76.6953 56.5957 76.7979 56.3496 77.0029C56.1094 77.208 55.9893 77.4893 55.9893 77.8467H53.4492C53.4492 77.2959 53.6191 76.7861 53.959 76.3174C54.2988 75.8486 54.7793 75.4824 55.4004 75.2188C56.0215 74.9492 56.7188 74.8145 57.4922 74.8145C58.6641 74.8145 59.5928 75.1104 60.2783 75.7021C60.9697 76.2881 61.3154 77.1143 61.3154 78.1807V82.3027C61.3213 83.2051 61.4473 83.8877 61.6934 84.3506V84.5H59.127ZM57.0264 82.7334C57.4014 82.7334 57.7471 82.6514 58.0635 82.4873C58.3799 82.3174 58.6143 82.0918 58.7666 81.8105V80.1758H57.8174C56.5459 80.1758 55.8691 80.6152 55.7871 81.4941L55.7783 81.6436C55.7783 81.96 55.8896 82.2207 56.1123 82.4258C56.335 82.6309 56.6396 82.7334 57.0264 82.7334ZM68.9619 83.5332C68.335 84.2949 67.4678 84.6758 66.3604 84.6758C65.3408 84.6758 64.5615 84.3828 64.0225 83.7969C63.4893 83.2109 63.2168 82.3525 63.2051 81.2217V74.9902H65.7451V81.1338C65.7451 82.124 66.1963 82.6191 67.0986 82.6191C67.96 82.6191 68.5518 82.3203 68.874 81.7227V74.9902H71.4229V84.5H69.0322L68.9619 83.5332ZM76.3799 72.6523V74.9902H78.0059V76.8535H76.3799V81.5996C76.3799 81.9512 76.4473 82.2031 76.582 82.3555C76.7168 82.5078 76.9746 82.584 77.3555 82.584C77.6367 82.584 77.8857 82.5635 78.1025 82.5225V84.4473C77.6045 84.5996 77.0918 84.6758 76.5645 84.6758C74.7832 84.6758 73.875 83.7764 73.8398 81.9775V76.8535H72.4512V74.9902H73.8398V72.6523H76.3799ZM78.7617 79.6572C78.7617 78.7139 78.9434 77.873 79.3066 77.1348C79.6699 76.3965 80.1914 75.8252 80.8711 75.4209C81.5566 75.0166 82.3506 74.8145 83.2529 74.8145C84.5361 74.8145 85.582 75.207 86.3906 75.9922C87.2051 76.7773 87.6592 77.8438 87.7529 79.1914L87.7705 79.8418C87.7705 81.3008 87.3633 82.4727 86.5488 83.3574C85.7344 84.2363 84.6416 84.6758 83.2705 84.6758C81.8994 84.6758 80.8037 84.2363 79.9834 83.3574C79.1689 82.4785 78.7617 81.2832 78.7617 79.7715V79.6572ZM81.3018 79.8418C81.3018 80.7441 81.4717 81.4355 81.8115 81.916C82.1514 82.3906 82.6377 82.6279 83.2705 82.6279C83.8857 82.6279 84.3662 82.3936 84.7119 81.9248C85.0576 81.4502 85.2305 80.6943 85.2305 79.6572C85.2305 78.7725 85.0576 78.0869 84.7119 77.6006C84.3662 77.1143 83.8799 76.8711 83.2529 76.8711C82.6318 76.8711 82.1514 77.1143 81.8115 77.6006C81.4717 78.0811 81.3018 78.8281 81.3018 79.8418Z" fill="#001EBB"/>
<g filter="url(#filter1_d)">
<rect x="132" y="20" width="100" height="100" rx="6" fill="#FFF000"/>
<rect x="133" y="21" width="98" height="98" rx="5" stroke="#001EBB" stroke-width="2"/>
</g>
<path d="M157.932 63.5C157.859 63.3542 157.799 63.0944 157.754 62.7207C157.166 63.3314 156.464 63.6367 155.648 63.6367C154.919 63.6367 154.32 63.4316 153.851 63.0215C153.386 62.6068 153.153 62.0827 153.153 61.4492C153.153 60.679 153.445 60.082 154.028 59.6582C154.616 59.2298 155.441 59.0156 156.503 59.0156H157.733V58.4346C157.733 57.9925 157.601 57.6416 157.337 57.3818C157.073 57.1175 156.683 56.9854 156.168 56.9854C155.717 56.9854 155.339 57.0993 155.033 57.3271C154.728 57.555 154.575 57.8307 154.575 58.1543H153.304C153.304 57.7852 153.434 57.4297 153.693 57.0879C153.958 56.7415 154.313 56.4681 154.76 56.2676C155.211 56.0671 155.705 55.9668 156.243 55.9668C157.095 55.9668 157.763 56.181 158.246 56.6094C158.729 57.0332 158.98 57.6188 158.998 58.3662V61.7705C158.998 62.4495 159.085 62.9896 159.258 63.3906V63.5H157.932ZM155.833 62.5361C156.229 62.5361 156.605 62.4336 156.961 62.2285C157.316 62.0234 157.574 61.7568 157.733 61.4287V59.9111H156.742C155.193 59.9111 154.418 60.3646 154.418 61.2715C154.418 61.668 154.55 61.9779 154.814 62.2012C155.079 62.4245 155.418 62.5361 155.833 62.5361ZM162.354 63.5H161.09V53H162.354V63.5ZM165.759 63.5H164.494V56.1035H165.759V63.5ZM164.392 54.1416C164.392 53.9365 164.453 53.7633 164.576 53.6221C164.704 53.4808 164.891 53.4102 165.137 53.4102C165.383 53.4102 165.57 53.4808 165.697 53.6221C165.825 53.7633 165.889 53.9365 165.889 54.1416C165.889 54.3467 165.825 54.5176 165.697 54.6543C165.57 54.791 165.383 54.8594 165.137 54.8594C164.891 54.8594 164.704 54.791 164.576 54.6543C164.453 54.5176 164.392 54.3467 164.392 54.1416ZM167.488 59.7402C167.488 58.5872 167.755 57.6712 168.288 56.9922C168.821 56.3086 169.528 55.9668 170.407 55.9668C171.31 55.9668 172.014 56.2858 172.52 56.9238L172.581 56.1035H173.736V63.3223C173.736 64.2793 173.451 65.0335 172.882 65.585C172.317 66.1364 171.556 66.4121 170.599 66.4121C170.065 66.4121 169.544 66.2982 169.033 66.0703C168.523 65.8424 168.133 65.5303 167.864 65.1338L168.521 64.375C169.063 65.0449 169.726 65.3799 170.51 65.3799C171.125 65.3799 171.604 65.2067 171.945 64.8604C172.292 64.514 172.465 64.0264 172.465 63.3975V62.7617C171.959 63.3451 171.269 63.6367 170.394 63.6367C169.528 63.6367 168.826 63.2881 168.288 62.5908C167.755 61.8936 167.488 60.9434 167.488 59.7402ZM168.76 59.8838C168.76 60.7178 168.931 61.374 169.272 61.8525C169.614 62.3265 170.093 62.5635 170.708 62.5635C171.506 62.5635 172.091 62.2012 172.465 61.4766V58.0996C172.077 57.3932 171.496 57.04 170.722 57.04C170.106 57.04 169.626 57.2793 169.279 57.7578C168.933 58.2363 168.76 58.945 168.76 59.8838ZM176.847 56.1035L176.888 57.0332C177.453 56.3223 178.191 55.9668 179.103 55.9668C180.666 55.9668 181.454 56.8486 181.468 58.6123V63.5H180.203V58.6055C180.199 58.0723 180.076 57.6781 179.834 57.4229C179.597 57.1676 179.226 57.04 178.72 57.04C178.31 57.04 177.95 57.1494 177.64 57.3682C177.33 57.5869 177.088 57.874 176.915 58.2295V63.5H175.65V56.1035H176.847ZM186.007 59.7881H182.671V58.7559H186.007V59.7881ZM191.551 61.5381C191.551 61.1963 191.421 60.932 191.161 60.7451C190.906 60.5537 190.457 60.3896 189.814 60.2529C189.176 60.1162 188.668 59.9521 188.29 59.7607C187.916 59.5693 187.638 59.3415 187.456 59.0771C187.278 58.8128 187.189 58.4984 187.189 58.1338C187.189 57.5277 187.445 57.015 187.955 56.5957C188.47 56.1764 189.126 55.9668 189.924 55.9668C190.762 55.9668 191.441 56.1833 191.961 56.6162C192.485 57.0492 192.747 57.6029 192.747 58.2773H191.476C191.476 57.931 191.327 57.6325 191.031 57.3818C190.74 57.1312 190.37 57.0059 189.924 57.0059C189.464 57.0059 189.104 57.1061 188.844 57.3066C188.584 57.5072 188.454 57.7692 188.454 58.0928C188.454 58.3981 188.575 58.6283 188.816 58.7832C189.058 58.9382 189.493 59.0863 190.122 59.2275C190.756 59.3688 191.268 59.5374 191.66 59.7334C192.052 59.9294 192.341 60.1663 192.528 60.4443C192.72 60.7178 192.815 61.0527 192.815 61.4492C192.815 62.11 192.551 62.641 192.022 63.042C191.494 63.4385 190.808 63.6367 189.965 63.6367C189.372 63.6367 188.848 63.5319 188.393 63.3223C187.937 63.1126 187.579 62.821 187.319 62.4473C187.064 62.069 186.937 61.6611 186.937 61.2236H188.201C188.224 61.6475 188.393 61.9847 188.707 62.2354C189.026 62.4814 189.445 62.6045 189.965 62.6045C190.443 62.6045 190.826 62.5088 191.113 62.3174C191.405 62.1214 191.551 61.8617 191.551 61.5381ZM197.532 63.6367C196.53 63.6367 195.714 63.3086 195.085 62.6523C194.456 61.9915 194.142 61.1097 194.142 60.0068V59.7744C194.142 59.0407 194.281 58.3867 194.559 57.8125C194.841 57.2337 195.233 56.7826 195.734 56.459C196.24 56.1309 196.787 55.9668 197.375 55.9668C198.337 55.9668 199.084 56.2835 199.617 56.917C200.15 57.5505 200.417 58.4574 200.417 59.6377V60.1641H195.406C195.424 60.8932 195.636 61.4834 196.042 61.9346C196.452 62.3812 196.972 62.6045 197.601 62.6045C198.047 62.6045 198.425 62.5133 198.735 62.3311C199.045 62.1488 199.316 61.9072 199.549 61.6064L200.321 62.208C199.701 63.1605 198.772 63.6367 197.532 63.6367ZM197.375 57.0059C196.865 57.0059 196.436 57.1927 196.09 57.5664C195.743 57.9355 195.529 58.4551 195.447 59.125H199.152V59.0293C199.116 58.3867 198.943 57.89 198.633 57.5391C198.323 57.1836 197.904 57.0059 197.375 57.0059ZM203.261 63.5H201.996V53H203.261V63.5ZM205.913 63.5V57.0811H204.744V56.1035H205.913V55.3447C205.913 54.5518 206.125 53.9388 206.549 53.5059C206.973 53.0729 207.572 52.8564 208.347 52.8564C208.638 52.8564 208.928 52.8952 209.215 52.9727L209.146 53.998C208.932 53.957 208.704 53.9365 208.463 53.9365C208.053 53.9365 207.736 54.0573 207.513 54.2988C207.289 54.5358 207.178 54.8776 207.178 55.3242V56.1035H208.757V57.0811H207.178V63.5H205.913ZM210.117 62.8369C210.117 62.6182 210.181 62.4359 210.309 62.29C210.441 62.1442 210.637 62.0713 210.896 62.0713C211.156 62.0713 211.352 62.1442 211.484 62.29C211.621 62.4359 211.689 62.6182 211.689 62.8369C211.689 63.0465 211.621 63.222 211.484 63.3633C211.352 63.5046 211.156 63.5752 210.896 63.5752C210.637 63.5752 210.441 63.5046 210.309 63.3633C210.181 63.222 210.117 63.0465 210.117 62.8369ZM210.124 56.8008C210.124 56.582 210.188 56.3997 210.315 56.2539C210.448 56.1081 210.644 56.0352 210.903 56.0352C211.163 56.0352 211.359 56.1081 211.491 56.2539C211.628 56.3997 211.696 56.582 211.696 56.8008C211.696 57.0104 211.628 57.1859 211.491 57.3271C211.359 57.4684 211.163 57.5391 210.903 57.5391C210.644 57.5391 210.448 57.4684 210.315 57.3271C210.188 57.1859 210.124 57.0104 210.124 56.8008ZM152.345 72.9688C151.841 72.9102 151.372 72.8809 150.938 72.8809C149.79 72.8809 149.216 73.3701 149.216 74.3486V74.9902H151.105V76.8535H149.216V84.5H146.667V76.8535H145.252V74.9902H146.667V74.252C146.679 73.1504 147.024 72.3037 147.704 71.7119C148.384 71.1143 149.345 70.8154 150.587 70.8154C151.472 70.8154 152.907 70.9092 154.894 71.0967V84.5H152.345V72.9688ZM161.389 84.6758C159.994 84.6758 158.857 84.248 157.979 83.3926C157.105 82.5371 156.669 81.3975 156.669 79.9736V79.7275C156.669 78.7725 156.854 77.9199 157.223 77.1699C157.592 76.4141 158.113 75.834 158.787 75.4297C159.467 75.0195 160.24 74.8145 161.107 74.8145C162.408 74.8145 163.431 75.2246 164.175 76.0449C164.925 76.8652 165.3 78.0283 165.3 79.5342V80.5713H159.244C159.326 81.1924 159.572 81.6904 159.982 82.0654C160.398 82.4404 160.923 82.6279 161.556 82.6279C162.534 82.6279 163.299 82.2734 163.85 81.5645L165.098 82.9619C164.717 83.501 164.201 83.9229 163.551 84.2275C162.9 84.5264 162.18 84.6758 161.389 84.6758ZM161.099 76.8711C160.595 76.8711 160.185 77.041 159.868 77.3809C159.558 77.7207 159.358 78.207 159.271 78.8398H162.804V78.6377C162.792 78.0752 162.64 77.6416 162.347 77.3369C162.054 77.0264 161.638 76.8711 161.099 76.8711ZM170.371 77.8291L171.971 74.9902H174.687L171.979 79.6484L174.801 84.5H172.076L170.38 81.5117L168.692 84.5H165.959L168.78 79.6484L166.082 74.9902H168.807L170.371 77.8291ZM180.848 80.0439H175.899V77.9961H180.848V80.0439ZM188.037 81.8721C188.037 81.5615 187.882 81.3184 187.571 81.1426C187.267 80.9609 186.774 80.7998 186.095 80.6592C183.833 80.1846 182.702 79.2236 182.702 77.7764C182.702 76.9326 183.051 76.2295 183.748 75.667C184.451 75.0986 185.368 74.8145 186.499 74.8145C187.706 74.8145 188.67 75.0986 189.391 75.667C190.117 76.2354 190.48 76.9736 190.48 77.8818H187.94C187.94 77.5186 187.823 77.2197 187.589 76.9854C187.354 76.7451 186.988 76.625 186.49 76.625C186.062 76.625 185.731 76.7217 185.497 76.915C185.263 77.1084 185.146 77.3545 185.146 77.6533C185.146 77.9346 185.277 78.1631 185.541 78.3389C185.811 78.5088 186.262 78.6582 186.895 78.7871C187.527 78.9102 188.061 79.0508 188.494 79.209C189.836 79.7012 190.507 80.5537 190.507 81.7666C190.507 82.6338 190.135 83.3369 189.391 83.876C188.646 84.4092 187.686 84.6758 186.508 84.6758C185.711 84.6758 185.002 84.5352 184.381 84.2539C183.766 83.9668 183.282 83.5771 182.931 83.085C182.579 82.5869 182.403 82.0508 182.403 81.4766H184.812C184.835 81.9277 185.002 82.2734 185.312 82.5137C185.623 82.7539 186.039 82.874 186.561 82.874C187.047 82.874 187.413 82.7832 187.659 82.6016C187.911 82.4141 188.037 82.1709 188.037 81.8721ZM195.191 72.6523V74.9902H196.817V76.8535H195.191V81.5996C195.191 81.9512 195.259 82.2031 195.394 82.3555C195.528 82.5078 195.786 82.584 196.167 82.584C196.448 82.584 196.697 82.5635 196.914 82.5225V84.4473C196.416 84.5996 195.903 84.6758 195.376 84.6758C193.595 84.6758 192.687 83.7764 192.651 81.9775V76.8535H191.263V74.9902H192.651V72.6523H195.191ZM203.743 84.5C203.626 84.2715 203.541 83.9873 203.488 83.6475C202.873 84.333 202.073 84.6758 201.089 84.6758C200.157 84.6758 199.384 84.4062 198.769 83.8672C198.159 83.3281 197.854 82.6484 197.854 81.8281C197.854 80.8203 198.227 80.0469 198.971 79.5078C199.721 78.9688 200.802 78.6963 202.214 78.6904H203.383V78.1455C203.383 77.7061 203.269 77.3545 203.04 77.0908C202.817 76.8271 202.463 76.6953 201.977 76.6953C201.549 76.6953 201.212 76.7979 200.966 77.0029C200.726 77.208 200.605 77.4893 200.605 77.8467H198.065C198.065 77.2959 198.235 76.7861 198.575 76.3174C198.915 75.8486 199.396 75.4824 200.017 75.2188C200.638 74.9492 201.335 74.8145 202.108 74.8145C203.28 74.8145 204.209 75.1104 204.895 75.7021C205.586 76.2881 205.932 77.1143 205.932 78.1807V82.3027C205.938 83.2051 206.063 83.8877 206.31 84.3506V84.5H203.743ZM201.643 82.7334C202.018 82.7334 202.363 82.6514 202.68 82.4873C202.996 82.3174 203.23 82.0918 203.383 81.8105V80.1758H202.434C201.162 80.1758 200.485 80.6152 200.403 81.4941L200.395 81.6436C200.395 81.96 200.506 82.2207 200.729 82.4258C200.951 82.6309 201.256 82.7334 201.643 82.7334ZM213.227 77.3721C212.881 77.3252 212.576 77.3018 212.312 77.3018C211.352 77.3018 210.722 77.627 210.423 78.2773V84.5H207.883V74.9902H210.282L210.353 76.124C210.862 75.251 211.568 74.8145 212.471 74.8145C212.752 74.8145 213.016 74.8525 213.262 74.9287L213.227 77.3721ZM217.938 72.6523V74.9902H219.563V76.8535H217.938V81.5996C217.938 81.9512 218.005 82.2031 218.14 82.3555C218.274 82.5078 218.532 82.584 218.913 82.584C219.194 82.584 219.443 82.5635 219.66 82.5225V84.4473C219.162 84.5996 218.649 84.6758 218.122 84.6758C216.341 84.6758 215.433 83.7764 215.397 81.9775V76.8535H214.009V74.9902H215.397V72.6523H217.938Z" fill="#001EBB"/>
<g filter="url(#filter2_d)">
<rect x="244" y="108" width="100" height="100" rx="6" fill="#FFF000"/>
<rect x="245" y="109" width="98" height="98" rx="5" stroke="#001EBB" stroke-width="2"/>
</g>
<path d="M269.932 151.5C269.859 151.354 269.799 151.094 269.754 150.721C269.166 151.331 268.464 151.637 267.648 151.637C266.919 151.637 266.32 151.432 265.851 151.021C265.386 150.607 265.153 150.083 265.153 149.449C265.153 148.679 265.445 148.082 266.028 147.658C266.616 147.23 267.441 147.016 268.503 147.016H269.733V146.435C269.733 145.993 269.601 145.642 269.337 145.382C269.073 145.118 268.683 144.985 268.168 144.985C267.717 144.985 267.339 145.099 267.033 145.327C266.728 145.555 266.575 145.831 266.575 146.154H265.304C265.304 145.785 265.434 145.43 265.693 145.088C265.958 144.742 266.313 144.468 266.76 144.268C267.211 144.067 267.705 143.967 268.243 143.967C269.095 143.967 269.763 144.181 270.246 144.609C270.729 145.033 270.98 145.619 270.998 146.366V149.771C270.998 150.45 271.085 150.99 271.258 151.391V151.5H269.932ZM267.833 150.536C268.229 150.536 268.605 150.434 268.961 150.229C269.316 150.023 269.574 149.757 269.733 149.429V147.911H268.742C267.193 147.911 266.418 148.365 266.418 149.271C266.418 149.668 266.55 149.978 266.814 150.201C267.079 150.424 267.418 150.536 267.833 150.536ZM274.354 151.5H273.09V141H274.354V151.5ZM277.759 151.5H276.494V144.104H277.759V151.5ZM276.392 142.142C276.392 141.937 276.453 141.763 276.576 141.622C276.704 141.481 276.891 141.41 277.137 141.41C277.383 141.41 277.57 141.481 277.697 141.622C277.825 141.763 277.889 141.937 277.889 142.142C277.889 142.347 277.825 142.518 277.697 142.654C277.57 142.791 277.383 142.859 277.137 142.859C276.891 142.859 276.704 142.791 276.576 142.654C276.453 142.518 276.392 142.347 276.392 142.142ZM279.488 147.74C279.488 146.587 279.755 145.671 280.288 144.992C280.821 144.309 281.528 143.967 282.407 143.967C283.31 143.967 284.014 144.286 284.52 144.924L284.581 144.104H285.736V151.322C285.736 152.279 285.451 153.034 284.882 153.585C284.317 154.136 283.556 154.412 282.599 154.412C282.065 154.412 281.544 154.298 281.033 154.07C280.523 153.842 280.133 153.53 279.864 153.134L280.521 152.375C281.063 153.045 281.726 153.38 282.51 153.38C283.125 153.38 283.604 153.207 283.945 152.86C284.292 152.514 284.465 152.026 284.465 151.397V150.762C283.959 151.345 283.269 151.637 282.394 151.637C281.528 151.637 280.826 151.288 280.288 150.591C279.755 149.894 279.488 148.943 279.488 147.74ZM280.76 147.884C280.76 148.718 280.931 149.374 281.272 149.853C281.614 150.326 282.093 150.563 282.708 150.563C283.506 150.563 284.091 150.201 284.465 149.477V146.1C284.077 145.393 283.496 145.04 282.722 145.04C282.106 145.04 281.626 145.279 281.279 145.758C280.933 146.236 280.76 146.945 280.76 147.884ZM288.847 144.104L288.888 145.033C289.453 144.322 290.191 143.967 291.103 143.967C292.666 143.967 293.454 144.849 293.468 146.612V151.5H292.203V146.605C292.199 146.072 292.076 145.678 291.834 145.423C291.597 145.168 291.226 145.04 290.72 145.04C290.31 145.04 289.95 145.149 289.64 145.368C289.33 145.587 289.088 145.874 288.915 146.229V151.5H287.65V144.104H288.847ZM298.007 147.788H294.671V146.756H298.007V147.788ZM303.551 149.538C303.551 149.196 303.421 148.932 303.161 148.745C302.906 148.554 302.457 148.39 301.814 148.253C301.176 148.116 300.668 147.952 300.29 147.761C299.916 147.569 299.638 147.341 299.456 147.077C299.278 146.813 299.189 146.498 299.189 146.134C299.189 145.528 299.445 145.015 299.955 144.596C300.47 144.176 301.126 143.967 301.924 143.967C302.762 143.967 303.441 144.183 303.961 144.616C304.485 145.049 304.747 145.603 304.747 146.277H303.476C303.476 145.931 303.327 145.632 303.031 145.382C302.74 145.131 302.37 145.006 301.924 145.006C301.464 145.006 301.104 145.106 300.844 145.307C300.584 145.507 300.454 145.769 300.454 146.093C300.454 146.398 300.575 146.628 300.816 146.783C301.058 146.938 301.493 147.086 302.122 147.228C302.756 147.369 303.268 147.537 303.66 147.733C304.052 147.929 304.341 148.166 304.528 148.444C304.72 148.718 304.815 149.053 304.815 149.449C304.815 150.11 304.551 150.641 304.022 151.042C303.494 151.438 302.808 151.637 301.965 151.637C301.372 151.637 300.848 151.532 300.393 151.322C299.937 151.113 299.579 150.821 299.319 150.447C299.064 150.069 298.937 149.661 298.937 149.224H300.201C300.224 149.647 300.393 149.985 300.707 150.235C301.026 150.481 301.445 150.604 301.965 150.604C302.443 150.604 302.826 150.509 303.113 150.317C303.405 150.121 303.551 149.862 303.551 149.538ZM309.532 151.637C308.53 151.637 307.714 151.309 307.085 150.652C306.456 149.992 306.142 149.11 306.142 148.007V147.774C306.142 147.041 306.281 146.387 306.559 145.812C306.841 145.234 307.233 144.783 307.734 144.459C308.24 144.131 308.787 143.967 309.375 143.967C310.337 143.967 311.084 144.284 311.617 144.917C312.15 145.55 312.417 146.457 312.417 147.638V148.164H307.406C307.424 148.893 307.636 149.483 308.042 149.935C308.452 150.381 308.972 150.604 309.601 150.604C310.047 150.604 310.425 150.513 310.735 150.331C311.045 150.149 311.316 149.907 311.549 149.606L312.321 150.208C311.701 151.16 310.772 151.637 309.532 151.637ZM309.375 145.006C308.865 145.006 308.436 145.193 308.09 145.566C307.743 145.936 307.529 146.455 307.447 147.125H311.152V147.029C311.116 146.387 310.943 145.89 310.633 145.539C310.323 145.184 309.904 145.006 309.375 145.006ZM315.261 151.5H313.996V141H315.261V151.5ZM317.913 151.5V145.081H316.744V144.104H317.913V143.345C317.913 142.552 318.125 141.939 318.549 141.506C318.973 141.073 319.572 140.856 320.347 140.856C320.638 140.856 320.928 140.895 321.215 140.973L321.146 141.998C320.932 141.957 320.704 141.937 320.463 141.937C320.053 141.937 319.736 142.057 319.513 142.299C319.289 142.536 319.178 142.878 319.178 143.324V144.104H320.757V145.081H319.178V151.5H317.913ZM322.117 150.837C322.117 150.618 322.181 150.436 322.309 150.29C322.441 150.144 322.637 150.071 322.896 150.071C323.156 150.071 323.352 150.144 323.484 150.29C323.621 150.436 323.689 150.618 323.689 150.837C323.689 151.047 323.621 151.222 323.484 151.363C323.352 151.505 323.156 151.575 322.896 151.575C322.637 151.575 322.441 151.505 322.309 151.363C322.181 151.222 322.117 151.047 322.117 150.837ZM322.124 144.801C322.124 144.582 322.188 144.4 322.315 144.254C322.448 144.108 322.644 144.035 322.903 144.035C323.163 144.035 323.359 144.108 323.491 144.254C323.628 144.4 323.696 144.582 323.696 144.801C323.696 145.01 323.628 145.186 323.491 145.327C323.359 145.468 323.163 145.539 322.903 145.539C322.644 145.539 322.448 145.468 322.315 145.327C322.188 145.186 322.124 145.01 322.124 144.801ZM268.405 160.969C267.901 160.91 267.433 160.881 266.999 160.881C265.851 160.881 265.276 161.37 265.276 162.349V162.99H267.166V164.854H265.276V172.5H262.728V164.854H261.312V162.99H262.728V162.252C262.739 161.15 263.085 160.304 263.765 159.712C264.444 159.114 265.405 158.815 266.647 158.815C267.532 158.815 268.968 158.909 270.954 159.097V172.5H268.405V160.969ZM277.449 172.676C276.055 172.676 274.918 172.248 274.039 171.393C273.166 170.537 272.729 169.397 272.729 167.974V167.728C272.729 166.772 272.914 165.92 273.283 165.17C273.652 164.414 274.174 163.834 274.848 163.43C275.527 163.02 276.301 162.814 277.168 162.814C278.469 162.814 279.491 163.225 280.235 164.045C280.985 164.865 281.36 166.028 281.36 167.534V168.571H275.305C275.387 169.192 275.633 169.69 276.043 170.065C276.459 170.44 276.983 170.628 277.616 170.628C278.595 170.628 279.359 170.273 279.91 169.564L281.158 170.962C280.777 171.501 280.262 171.923 279.611 172.228C278.961 172.526 278.24 172.676 277.449 172.676ZM277.159 164.871C276.655 164.871 276.245 165.041 275.929 165.381C275.618 165.721 275.419 166.207 275.331 166.84H278.864V166.638C278.853 166.075 278.7 165.642 278.407 165.337C278.114 165.026 277.698 164.871 277.159 164.871ZM286.432 165.829L288.031 162.99H290.747L288.04 167.648L290.861 172.5H288.137L286.44 169.512L284.753 172.5H282.02L284.841 167.648L282.143 162.99H284.867L286.432 165.829ZM296.908 168.044H291.96V165.996H296.908V168.044ZM303.324 172.676C301.93 172.676 300.793 172.248 299.914 171.393C299.041 170.537 298.604 169.397 298.604 167.974V167.728C298.604 166.772 298.789 165.92 299.158 165.17C299.527 164.414 300.049 163.834 300.723 163.43C301.402 163.02 302.176 162.814 303.043 162.814C304.344 162.814 305.366 163.225 306.11 164.045C306.86 164.865 307.235 166.028 307.235 167.534V168.571H301.18C301.262 169.192 301.508 169.69 301.918 170.065C302.334 170.44 302.858 170.628 303.491 170.628C304.47 170.628 305.234 170.273 305.785 169.564L307.033 170.962C306.652 171.501 306.137 171.923 305.486 172.228C304.836 172.526 304.115 172.676 303.324 172.676ZM303.034 164.871C302.53 164.871 302.12 165.041 301.804 165.381C301.493 165.721 301.294 166.207 301.206 166.84H304.739V166.638C304.728 166.075 304.575 165.642 304.282 165.337C303.989 165.026 303.573 164.871 303.034 164.871ZM311.023 162.99L311.103 164.089C311.782 163.239 312.693 162.814 313.836 162.814C314.844 162.814 315.594 163.11 316.086 163.702C316.578 164.294 316.83 165.179 316.842 166.356V172.5H314.302V166.418C314.302 165.879 314.185 165.489 313.95 165.249C313.716 165.003 313.326 164.88 312.781 164.88C312.066 164.88 311.53 165.185 311.173 165.794V172.5H308.633V162.99H311.023ZM318.38 167.675C318.38 166.192 318.711 165.012 319.373 164.133C320.041 163.254 320.952 162.814 322.106 162.814C323.032 162.814 323.797 163.16 324.4 163.852V159H326.949V172.5H324.655L324.532 171.489C323.899 172.28 323.085 172.676 322.089 172.676C320.97 172.676 320.07 172.236 319.391 171.357C318.717 170.473 318.38 169.245 318.38 167.675ZM320.92 167.859C320.92 168.75 321.075 169.433 321.386 169.907C321.696 170.382 322.147 170.619 322.739 170.619C323.524 170.619 324.078 170.288 324.4 169.626V165.873C324.084 165.211 323.536 164.88 322.757 164.88C321.532 164.88 320.92 165.873 320.92 167.859Z" fill="#001EBB"/>
<g filter="url(#filter3_d)">
<rect x="356" y="64" width="100" height="100" rx="6" fill="#FFF000"/>
<rect x="357" y="65" width="98" height="98" rx="5" stroke="#001EBB" stroke-width="2"/>
</g>
<path d="M381.932 107.5C381.859 107.354 381.799 107.094 381.754 106.721C381.166 107.331 380.464 107.637 379.648 107.637C378.919 107.637 378.32 107.432 377.851 107.021C377.386 106.607 377.153 106.083 377.153 105.449C377.153 104.679 377.445 104.082 378.028 103.658C378.616 103.23 379.441 103.016 380.503 103.016H381.733V102.435C381.733 101.993 381.601 101.642 381.337 101.382C381.073 101.118 380.683 100.985 380.168 100.985C379.717 100.985 379.339 101.099 379.033 101.327C378.728 101.555 378.575 101.831 378.575 102.154H377.304C377.304 101.785 377.434 101.43 377.693 101.088C377.958 100.742 378.313 100.468 378.76 100.268C379.211 100.067 379.705 99.9668 380.243 99.9668C381.095 99.9668 381.763 100.181 382.246 100.609C382.729 101.033 382.98 101.619 382.998 102.366V105.771C382.998 106.45 383.085 106.99 383.258 107.391V107.5H381.932ZM379.833 106.536C380.229 106.536 380.605 106.434 380.961 106.229C381.316 106.023 381.574 105.757 381.733 105.429V103.911H380.742C379.193 103.911 378.418 104.365 378.418 105.271C378.418 105.668 378.55 105.978 378.814 106.201C379.079 106.424 379.418 106.536 379.833 106.536ZM386.354 107.5H385.09V97H386.354V107.5ZM389.759 107.5H388.494V100.104H389.759V107.5ZM388.392 98.1416C388.392 97.9365 388.453 97.7633 388.576 97.6221C388.704 97.4808 388.891 97.4102 389.137 97.4102C389.383 97.4102 389.57 97.4808 389.697 97.6221C389.825 97.7633 389.889 97.9365 389.889 98.1416C389.889 98.3467 389.825 98.5176 389.697 98.6543C389.57 98.791 389.383 98.8594 389.137 98.8594C388.891 98.8594 388.704 98.791 388.576 98.6543C388.453 98.5176 388.392 98.3467 388.392 98.1416ZM391.488 103.74C391.488 102.587 391.755 101.671 392.288 100.992C392.821 100.309 393.528 99.9668 394.407 99.9668C395.31 99.9668 396.014 100.286 396.52 100.924L396.581 100.104H397.736V107.322C397.736 108.279 397.451 109.034 396.882 109.585C396.317 110.136 395.556 110.412 394.599 110.412C394.065 110.412 393.544 110.298 393.033 110.07C392.523 109.842 392.133 109.53 391.864 109.134L392.521 108.375C393.063 109.045 393.726 109.38 394.51 109.38C395.125 109.38 395.604 109.207 395.945 108.86C396.292 108.514 396.465 108.026 396.465 107.397V106.762C395.959 107.345 395.269 107.637 394.394 107.637C393.528 107.637 392.826 107.288 392.288 106.591C391.755 105.894 391.488 104.943 391.488 103.74ZM392.76 103.884C392.76 104.718 392.931 105.374 393.272 105.853C393.614 106.326 394.093 106.563 394.708 106.563C395.506 106.563 396.091 106.201 396.465 105.477V102.1C396.077 101.393 395.496 101.04 394.722 101.04C394.106 101.04 393.626 101.279 393.279 101.758C392.933 102.236 392.76 102.945 392.76 103.884ZM400.847 100.104L400.888 101.033C401.453 100.322 402.191 99.9668 403.103 99.9668C404.666 99.9668 405.454 100.849 405.468 102.612V107.5H404.203V102.605C404.199 102.072 404.076 101.678 403.834 101.423C403.597 101.168 403.226 101.04 402.72 101.04C402.31 101.04 401.95 101.149 401.64 101.368C401.33 101.587 401.088 101.874 400.915 102.229V107.5H399.65V100.104H400.847ZM410.007 103.788H406.671V102.756H410.007V103.788ZM415.551 105.538C415.551 105.196 415.421 104.932 415.161 104.745C414.906 104.554 414.457 104.39 413.814 104.253C413.176 104.116 412.668 103.952 412.29 103.761C411.916 103.569 411.638 103.341 411.456 103.077C411.278 102.813 411.189 102.498 411.189 102.134C411.189 101.528 411.445 101.015 411.955 100.596C412.47 100.176 413.126 99.9668 413.924 99.9668C414.762 99.9668 415.441 100.183 415.961 100.616C416.485 101.049 416.747 101.603 416.747 102.277H415.476C415.476 101.931 415.327 101.632 415.031 101.382C414.74 101.131 414.37 101.006 413.924 101.006C413.464 101.006 413.104 101.106 412.844 101.307C412.584 101.507 412.454 101.769 412.454 102.093C412.454 102.398 412.575 102.628 412.816 102.783C413.058 102.938 413.493 103.086 414.122 103.228C414.756 103.369 415.268 103.537 415.66 103.733C416.052 103.929 416.341 104.166 416.528 104.444C416.72 104.718 416.815 105.053 416.815 105.449C416.815 106.11 416.551 106.641 416.022 107.042C415.494 107.438 414.808 107.637 413.965 107.637C413.372 107.637 412.848 107.532 412.393 107.322C411.937 107.113 411.579 106.821 411.319 106.447C411.064 106.069 410.937 105.661 410.937 105.224H412.201C412.224 105.647 412.393 105.985 412.707 106.235C413.026 106.481 413.445 106.604 413.965 106.604C414.443 106.604 414.826 106.509 415.113 106.317C415.405 106.121 415.551 105.862 415.551 105.538ZM421.532 107.637C420.53 107.637 419.714 107.309 419.085 106.652C418.456 105.992 418.142 105.11 418.142 104.007V103.774C418.142 103.041 418.281 102.387 418.559 101.812C418.841 101.234 419.233 100.783 419.734 100.459C420.24 100.131 420.787 99.9668 421.375 99.9668C422.337 99.9668 423.084 100.284 423.617 100.917C424.15 101.55 424.417 102.457 424.417 103.638V104.164H419.406C419.424 104.893 419.636 105.483 420.042 105.935C420.452 106.381 420.972 106.604 421.601 106.604C422.047 106.604 422.425 106.513 422.735 106.331C423.045 106.149 423.316 105.907 423.549 105.606L424.321 106.208C423.701 107.16 422.772 107.637 421.532 107.637ZM421.375 101.006C420.865 101.006 420.436 101.193 420.09 101.566C419.743 101.936 419.529 102.455 419.447 103.125H423.152V103.029C423.116 102.387 422.943 101.89 422.633 101.539C422.323 101.184 421.904 101.006 421.375 101.006ZM427.261 107.5H425.996V97H427.261V107.5ZM429.913 107.5V101.081H428.744V100.104H429.913V99.3447C429.913 98.5518 430.125 97.9388 430.549 97.5059C430.973 97.0729 431.572 96.8564 432.347 96.8564C432.638 96.8564 432.928 96.8952 433.215 96.9727L433.146 97.998C432.932 97.957 432.704 97.9365 432.463 97.9365C432.053 97.9365 431.736 98.0573 431.513 98.2988C431.289 98.5358 431.178 98.8776 431.178 99.3242V100.104H432.757V101.081H431.178V107.5H429.913ZM434.117 106.837C434.117 106.618 434.181 106.436 434.309 106.29C434.441 106.144 434.637 106.071 434.896 106.071C435.156 106.071 435.352 106.144 435.484 106.29C435.621 106.436 435.689 106.618 435.689 106.837C435.689 107.047 435.621 107.222 435.484 107.363C435.352 107.505 435.156 107.575 434.896 107.575C434.637 107.575 434.441 107.505 434.309 107.363C434.181 107.222 434.117 107.047 434.117 106.837ZM434.124 100.801C434.124 100.582 434.188 100.4 434.315 100.254C434.448 100.108 434.644 100.035 434.903 100.035C435.163 100.035 435.359 100.108 435.491 100.254C435.628 100.4 435.696 100.582 435.696 100.801C435.696 101.01 435.628 101.186 435.491 101.327C435.359 101.468 435.163 101.539 434.903 101.539C434.644 101.539 434.448 101.468 434.315 101.327C434.188 101.186 434.124 101.01 434.124 100.801ZM385.626 126.628C386.095 126.628 386.476 126.499 386.769 126.241C387.062 125.983 387.214 125.641 387.226 125.213H389.607C389.602 125.857 389.426 126.449 389.08 126.988C388.734 127.521 388.26 127.938 387.656 128.236C387.059 128.529 386.396 128.676 385.67 128.676C384.311 128.676 383.238 128.245 382.453 127.384C381.668 126.517 381.275 125.321 381.275 123.798V123.631C381.275 122.166 381.665 120.997 382.444 120.124C383.224 119.251 384.293 118.814 385.652 118.814C386.842 118.814 387.794 119.154 388.509 119.834C389.229 120.508 389.596 121.407 389.607 122.532H387.226C387.214 122.04 387.062 121.642 386.769 121.337C386.476 121.026 386.089 120.871 385.608 120.871C385.017 120.871 384.568 121.088 384.264 121.521C383.965 121.949 383.815 122.646 383.815 123.613V123.877C383.815 124.855 383.965 125.559 384.264 125.986C384.562 126.414 385.017 126.628 385.626 126.628ZM395.435 128.676C394.04 128.676 392.903 128.248 392.024 127.393C391.151 126.537 390.715 125.397 390.715 123.974V123.728C390.715 122.772 390.899 121.92 391.269 121.17C391.638 120.414 392.159 119.834 392.833 119.43C393.513 119.02 394.286 118.814 395.153 118.814C396.454 118.814 397.477 119.225 398.221 120.045C398.971 120.865 399.346 122.028 399.346 123.534V124.571H393.29C393.372 125.192 393.618 125.69 394.028 126.065C394.444 126.44 394.969 126.628 395.602 126.628C396.58 126.628 397.345 126.273 397.896 125.564L399.144 126.962C398.763 127.501 398.247 127.923 397.597 128.228C396.946 128.526 396.226 128.676 395.435 128.676ZM395.145 120.871C394.641 120.871 394.23 121.041 393.914 121.381C393.604 121.721 393.404 122.207 393.316 122.84H396.85V122.638C396.838 122.075 396.686 121.642 396.393 121.337C396.1 121.026 395.684 120.871 395.145 120.871ZM403.134 118.99L403.213 120.089C403.893 119.239 404.804 118.814 405.946 118.814C406.954 118.814 407.704 119.11 408.196 119.702C408.688 120.294 408.94 121.179 408.952 122.356V128.5H406.412V122.418C406.412 121.879 406.295 121.489 406.061 121.249C405.826 121.003 405.437 120.88 404.892 120.88C404.177 120.88 403.641 121.185 403.283 121.794V128.5H400.743V118.99H403.134ZM413.927 116.652V118.99H415.553V120.854H413.927V125.6C413.927 125.951 413.994 126.203 414.129 126.355C414.264 126.508 414.521 126.584 414.902 126.584C415.184 126.584 415.433 126.563 415.649 126.522V128.447C415.151 128.6 414.639 128.676 414.111 128.676C412.33 128.676 411.422 127.776 411.387 125.978V120.854H409.998V118.99H411.387V116.652H413.927ZM421.345 128.676C419.95 128.676 418.813 128.248 417.935 127.393C417.062 126.537 416.625 125.397 416.625 123.974V123.728C416.625 122.772 416.81 121.92 417.179 121.17C417.548 120.414 418.069 119.834 418.743 119.43C419.423 119.02 420.196 118.814 421.063 118.814C422.364 118.814 423.387 119.225 424.131 120.045C424.881 120.865 425.256 122.028 425.256 123.534V124.571H419.2C419.282 125.192 419.528 125.69 419.938 126.065C420.354 126.44 420.879 126.628 421.512 126.628C422.49 126.628 423.255 126.273 423.806 125.564L425.054 126.962C424.673 127.501 424.157 127.923 423.507 128.228C422.856 128.526 422.136 128.676 421.345 128.676ZM421.055 120.871C420.551 120.871 420.141 121.041 419.824 121.381C419.514 121.721 419.314 122.207 419.227 122.84H422.76V122.638C422.748 122.075 422.596 121.642 422.303 121.337C422.01 121.026 421.594 120.871 421.055 120.871ZM432.05 121.372C431.704 121.325 431.399 121.302 431.136 121.302C430.175 121.302 429.545 121.627 429.246 122.277V128.5H426.706V118.99H429.105L429.176 120.124C429.686 119.251 430.392 118.814 431.294 118.814C431.575 118.814 431.839 118.853 432.085 118.929L432.05 121.372Z" fill="#001EBB"/>
<g filter="url(#filter4_d)">
<rect x="468" y="20" width="100" height="188" rx="6" fill="#FFF000"/>
<rect x="469" y="21" width="98" height="186" rx="5" stroke="#001EBB" stroke-width="2"/>
</g>
<path d="M493.932 107.5C493.859 107.354 493.799 107.094 493.754 106.721C493.166 107.331 492.464 107.637 491.648 107.637C490.919 107.637 490.32 107.432 489.851 107.021C489.386 106.607 489.153 106.083 489.153 105.449C489.153 104.679 489.445 104.082 490.028 103.658C490.616 103.23 491.441 103.016 492.503 103.016H493.733V102.435C493.733 101.993 493.601 101.642 493.337 101.382C493.073 101.118 492.683 100.985 492.168 100.985C491.717 100.985 491.339 101.099 491.033 101.327C490.728 101.555 490.575 101.831 490.575 102.154H489.304C489.304 101.785 489.434 101.43 489.693 101.088C489.958 100.742 490.313 100.468 490.76 100.268C491.211 100.067 491.705 99.9668 492.243 99.9668C493.095 99.9668 493.763 100.181 494.246 100.609C494.729 101.033 494.98 101.619 494.998 102.366V105.771C494.998 106.45 495.085 106.99 495.258 107.391V107.5H493.932ZM491.833 106.536C492.229 106.536 492.605 106.434 492.961 106.229C493.316 106.023 493.574 105.757 493.733 105.429V103.911H492.742C491.193 103.911 490.418 104.365 490.418 105.271C490.418 105.668 490.55 105.978 490.814 106.201C491.079 106.424 491.418 106.536 491.833 106.536ZM498.354 107.5H497.09V97H498.354V107.5ZM501.759 107.5H500.494V100.104H501.759V107.5ZM500.392 98.1416C500.392 97.9365 500.453 97.7633 500.576 97.6221C500.704 97.4808 500.891 97.4102 501.137 97.4102C501.383 97.4102 501.57 97.4808 501.697 97.6221C501.825 97.7633 501.889 97.9365 501.889 98.1416C501.889 98.3467 501.825 98.5176 501.697 98.6543C501.57 98.791 501.383 98.8594 501.137 98.8594C500.891 98.8594 500.704 98.791 500.576 98.6543C500.453 98.5176 500.392 98.3467 500.392 98.1416ZM503.488 103.74C503.488 102.587 503.755 101.671 504.288 100.992C504.821 100.309 505.528 99.9668 506.407 99.9668C507.31 99.9668 508.014 100.286 508.52 100.924L508.581 100.104H509.736V107.322C509.736 108.279 509.451 109.034 508.882 109.585C508.317 110.136 507.556 110.412 506.599 110.412C506.065 110.412 505.544 110.298 505.033 110.07C504.523 109.842 504.133 109.53 503.864 109.134L504.521 108.375C505.063 109.045 505.726 109.38 506.51 109.38C507.125 109.38 507.604 109.207 507.945 108.86C508.292 108.514 508.465 108.026 508.465 107.397V106.762C507.959 107.345 507.269 107.637 506.394 107.637C505.528 107.637 504.826 107.288 504.288 106.591C503.755 105.894 503.488 104.943 503.488 103.74ZM504.76 103.884C504.76 104.718 504.931 105.374 505.272 105.853C505.614 106.326 506.093 106.563 506.708 106.563C507.506 106.563 508.091 106.201 508.465 105.477V102.1C508.077 101.393 507.496 101.04 506.722 101.04C506.106 101.04 505.626 101.279 505.279 101.758C504.933 102.236 504.76 102.945 504.76 103.884ZM512.847 100.104L512.888 101.033C513.453 100.322 514.191 99.9668 515.103 99.9668C516.666 99.9668 517.454 100.849 517.468 102.612V107.5H516.203V102.605C516.199 102.072 516.076 101.678 515.834 101.423C515.597 101.168 515.226 101.04 514.72 101.04C514.31 101.04 513.95 101.149 513.64 101.368C513.33 101.587 513.088 101.874 512.915 102.229V107.5H511.65V100.104H512.847ZM522.007 103.788H518.671V102.756H522.007V103.788ZM527.551 105.538C527.551 105.196 527.421 104.932 527.161 104.745C526.906 104.554 526.457 104.39 525.814 104.253C525.176 104.116 524.668 103.952 524.29 103.761C523.916 103.569 523.638 103.341 523.456 103.077C523.278 102.813 523.189 102.498 523.189 102.134C523.189 101.528 523.445 101.015 523.955 100.596C524.47 100.176 525.126 99.9668 525.924 99.9668C526.762 99.9668 527.441 100.183 527.961 100.616C528.485 101.049 528.747 101.603 528.747 102.277H527.476C527.476 101.931 527.327 101.632 527.031 101.382C526.74 101.131 526.37 101.006 525.924 101.006C525.464 101.006 525.104 101.106 524.844 101.307C524.584 101.507 524.454 101.769 524.454 102.093C524.454 102.398 524.575 102.628 524.816 102.783C525.058 102.938 525.493 103.086 526.122 103.228C526.756 103.369 527.268 103.537 527.66 103.733C528.052 103.929 528.341 104.166 528.528 104.444C528.72 104.718 528.815 105.053 528.815 105.449C528.815 106.11 528.551 106.641 528.022 107.042C527.494 107.438 526.808 107.637 525.965 107.637C525.372 107.637 524.848 107.532 524.393 107.322C523.937 107.113 523.579 106.821 523.319 106.447C523.064 106.069 522.937 105.661 522.937 105.224H524.201C524.224 105.647 524.393 105.985 524.707 106.235C525.026 106.481 525.445 106.604 525.965 106.604C526.443 106.604 526.826 106.509 527.113 106.317C527.405 106.121 527.551 105.862 527.551 105.538ZM533.532 107.637C532.53 107.637 531.714 107.309 531.085 106.652C530.456 105.992 530.142 105.11 530.142 104.007V103.774C530.142 103.041 530.281 102.387 530.559 101.812C530.841 101.234 531.233 100.783 531.734 100.459C532.24 100.131 532.787 99.9668 533.375 99.9668C534.337 99.9668 535.084 100.284 535.617 100.917C536.15 101.55 536.417 102.457 536.417 103.638V104.164H531.406C531.424 104.893 531.636 105.483 532.042 105.935C532.452 106.381 532.972 106.604 533.601 106.604C534.047 106.604 534.425 106.513 534.735 106.331C535.045 106.149 535.316 105.907 535.549 105.606L536.321 106.208C535.701 107.16 534.772 107.637 533.532 107.637ZM533.375 101.006C532.865 101.006 532.436 101.193 532.09 101.566C531.743 101.936 531.529 102.455 531.447 103.125H535.152V103.029C535.116 102.387 534.943 101.89 534.633 101.539C534.323 101.184 533.904 101.006 533.375 101.006ZM539.261 107.5H537.996V97H539.261V107.5ZM541.913 107.5V101.081H540.744V100.104H541.913V99.3447C541.913 98.5518 542.125 97.9388 542.549 97.5059C542.973 97.0729 543.572 96.8564 544.347 96.8564C544.638 96.8564 544.928 96.8952 545.215 96.9727L545.146 97.998C544.932 97.957 544.704 97.9365 544.463 97.9365C544.053 97.9365 543.736 98.0573 543.513 98.2988C543.289 98.5358 543.178 98.8776 543.178 99.3242V100.104H544.757V101.081H543.178V107.5H541.913ZM546.117 106.837C546.117 106.618 546.181 106.436 546.309 106.29C546.441 106.144 546.637 106.071 546.896 106.071C547.156 106.071 547.352 106.144 547.484 106.29C547.621 106.436 547.689 106.618 547.689 106.837C547.689 107.047 547.621 107.222 547.484 107.363C547.352 107.505 547.156 107.575 546.896 107.575C546.637 107.575 546.441 107.505 546.309 107.363C546.181 107.222 546.117 107.047 546.117 106.837ZM546.124 100.801C546.124 100.582 546.188 100.4 546.315 100.254C546.448 100.108 546.644 100.035 546.903 100.035C547.163 100.035 547.359 100.108 547.491 100.254C547.628 100.4 547.696 100.582 547.696 100.801C547.696 101.01 547.628 101.186 547.491 101.327C547.359 101.468 547.163 101.539 546.903 101.539C546.644 101.539 546.448 101.468 546.315 101.327C546.188 101.186 546.124 101.01 546.124 100.801ZM496.114 125.872C496.114 125.562 495.959 125.318 495.648 125.143C495.344 124.961 494.852 124.8 494.172 124.659C491.91 124.185 490.779 123.224 490.779 121.776C490.779 120.933 491.128 120.229 491.825 119.667C492.528 119.099 493.445 118.814 494.576 118.814C495.783 118.814 496.747 119.099 497.468 119.667C498.194 120.235 498.558 120.974 498.558 121.882H496.018C496.018 121.519 495.9 121.22 495.666 120.985C495.432 120.745 495.065 120.625 494.567 120.625C494.14 120.625 493.809 120.722 493.574 120.915C493.34 121.108 493.223 121.354 493.223 121.653C493.223 121.935 493.354 122.163 493.618 122.339C493.888 122.509 494.339 122.658 494.972 122.787C495.604 122.91 496.138 123.051 496.571 123.209C497.913 123.701 498.584 124.554 498.584 125.767C498.584 126.634 498.212 127.337 497.468 127.876C496.724 128.409 495.763 128.676 494.585 128.676C493.788 128.676 493.079 128.535 492.458 128.254C491.843 127.967 491.359 127.577 491.008 127.085C490.656 126.587 490.48 126.051 490.48 125.477H492.889C492.912 125.928 493.079 126.273 493.39 126.514C493.7 126.754 494.116 126.874 494.638 126.874C495.124 126.874 495.49 126.783 495.736 126.602C495.988 126.414 496.114 126.171 496.114 125.872ZM503.269 116.652V118.99H504.895V120.854H503.269V125.6C503.269 125.951 503.336 126.203 503.471 126.355C503.605 126.508 503.863 126.584 504.244 126.584C504.525 126.584 504.774 126.563 504.991 126.522V128.447C504.493 128.6 503.98 128.676 503.453 128.676C501.672 128.676 500.764 127.776 500.729 125.978V120.854H499.34V118.99H500.729V116.652H503.269ZM511.653 121.372C511.308 121.325 511.003 121.302 510.739 121.302C509.778 121.302 509.148 121.627 508.85 122.277V128.5H506.31V118.99H508.709L508.779 120.124C509.289 119.251 509.995 118.814 510.897 118.814C511.179 118.814 511.442 118.853 511.688 118.929L511.653 121.372ZM517.085 128.676C515.69 128.676 514.554 128.248 513.675 127.393C512.802 126.537 512.365 125.397 512.365 123.974V123.728C512.365 122.772 512.55 121.92 512.919 121.17C513.288 120.414 513.81 119.834 514.483 119.43C515.163 119.02 515.937 118.814 516.804 118.814C518.104 118.814 519.127 119.225 519.871 120.045C520.621 120.865 520.996 122.028 520.996 123.534V124.571H514.94C515.022 125.192 515.269 125.69 515.679 126.065C516.095 126.44 516.619 126.628 517.252 126.628C518.23 126.628 518.995 126.273 519.546 125.564L520.794 126.962C520.413 127.501 519.897 127.923 519.247 128.228C518.597 128.526 517.876 128.676 517.085 128.676ZM516.795 120.871C516.291 120.871 515.881 121.041 515.564 121.381C515.254 121.721 515.055 122.207 514.967 122.84H518.5V122.638C518.488 122.075 518.336 121.642 518.043 121.337C517.75 121.026 517.334 120.871 516.795 120.871ZM525.487 116.652V118.99H527.113V120.854H525.487V125.6C525.487 125.951 525.555 126.203 525.689 126.355C525.824 126.508 526.082 126.584 526.463 126.584C526.744 126.584 526.993 126.563 527.21 126.522V128.447C526.712 128.6 526.199 128.676 525.672 128.676C523.891 128.676 522.982 127.776 522.947 125.978V120.854H521.559V118.99H522.947V116.652H525.487ZM532.483 126.628C532.952 126.628 533.333 126.499 533.626 126.241C533.919 125.983 534.071 125.641 534.083 125.213H536.465C536.459 125.857 536.283 126.449 535.938 126.988C535.592 127.521 535.117 127.938 534.514 128.236C533.916 128.529 533.254 128.676 532.527 128.676C531.168 128.676 530.096 128.245 529.311 127.384C528.525 126.517 528.133 125.321 528.133 123.798V123.631C528.133 122.166 528.522 120.997 529.302 120.124C530.081 119.251 531.15 118.814 532.51 118.814C533.699 118.814 534.651 119.154 535.366 119.834C536.087 120.508 536.453 121.407 536.465 122.532H534.083C534.071 122.04 533.919 121.642 533.626 121.337C533.333 121.026 532.946 120.871 532.466 120.871C531.874 120.871 531.426 121.088 531.121 121.521C530.822 121.949 530.673 122.646 530.673 123.613V123.877C530.673 124.855 530.822 125.559 531.121 125.986C531.42 126.414 531.874 126.628 532.483 126.628ZM540.394 120.027C541.067 119.219 541.914 118.814 542.934 118.814C544.996 118.814 546.042 120.013 546.071 122.409V128.5H543.531V122.479C543.531 121.935 543.414 121.533 543.18 121.275C542.945 121.012 542.556 120.88 542.011 120.88C541.267 120.88 540.728 121.167 540.394 121.741V128.5H537.854V115H540.394V120.027Z" fill="#001EBB"/>
<defs>
<filter id="filter0_d" x="20" y="20" width="106" height="106" filterUnits="userSpaceOnUse" color-interpolation-filters="sRGB">
<feFlood flood-opacity="0" result="BackgroundImageFix"/>
<feColorMatrix in="SourceAlpha" type="matrix" values="0 0 0 0 0 0 0 0 0 0 0 0 0 0 0 0 0 0 127 0"/>
<feOffset dx="6" dy="6"/>
<feColorMatrix type="matrix" values="0 0 0 0 0 0 0 0 0 0 0 0 0 0 0 0 0 0 0.15 0"/>
<feBlend mode="normal" in2="BackgroundImageFix" result="effect1_dropShadow"/>
<feBlend mode="normal" in="SourceGraphic" in2="effect1_dropShadow" result="shape"/>
</filter>
<filter id="filter1_d" x="132" y="20" width="106" height="106" filterUnits="userSpaceOnUse" color-interpolation-filters="sRGB">
<feFlood flood-opacity="0" result="BackgroundImageFix"/>
<feColorMatrix in="SourceAlpha" type="matrix" values="0 0 0 0 0 0 0 0 0 0 0 0 0 0 0 0 0 0 127 0"/>
<feOffset dx="6" dy="6"/>
<feColorMatrix type="matrix" values="0 0 0 0 0 0 0 0 0 0 0 0 0 0 0 0 0 0 0.15 0"/>
<feBlend mode="normal" in2="BackgroundImageFix" result="effect1_dropShadow"/>
<feBlend mode="normal" in="SourceGraphic" in2="effect1_dropShadow" result="shape"/>
</filter>
<filter id="filter2_d" x="244" y="108" width="106" height="106" filterUnits="userSpaceOnUse" color-interpolation-filters="sRGB">
<feFlood flood-opacity="0" result="BackgroundImageFix"/>
<feColorMatrix in="SourceAlpha" type="matrix" values="0 0 0 0 0 0 0 0 0 0 0 0 0 0 0 0 0 0 127 0"/>
<feOffset dx="6" dy="6"/>
<feColorMatrix type="matrix" values="0 0 0 0 0 0 0 0 0 0 0 0 0 0 0 0 0 0 0.15 0"/>
<feBlend mode="normal" in2="BackgroundImageFix" result="effect1_dropShadow"/>
<feBlend mode="normal" in="SourceGraphic" in2="effect1_dropShadow" result="shape"/>
</filter>
<filter id="filter3_d" x="356" y="64" width="106" height="106" filterUnits="userSpaceOnUse" color-interpolation-filters="sRGB">
<feFlood flood-opacity="0" result="BackgroundImageFix"/>
<feColorMatrix in="SourceAlpha" type="matrix" values="0 0 0 0 0 0 0 0 0 0 0 0 0 0 0 0 0 0 127 0"/>
<feOffset dx="6" dy="6"/>
<feColorMatrix type="matrix" values="0 0 0 0 0 0 0 0 0 0 0 0 0 0 0 0 0 0 0.15 0"/>
<feBlend mode="normal" in2="BackgroundImageFix" result="effect1_dropShadow"/>
<feBlend mode="normal" in="SourceGraphic" in2="effect1_dropShadow" result="shape"/>
</filter>
<filter id="filter4_d" x="468" y="20" width="106" height="194" filterUnits="userSpaceOnUse" color-interpolation-filters="sRGB">
<feFlood flood-opacity="0" result="BackgroundImageFix"/>
<feColorMatrix in="SourceAlpha" type="matrix" values="0 0 0 0 0 0 0 0 0 0 0 0 0 0 0 0 0 0 127 0"/>
<feOffset dx="6" dy="6"/>
<feColorMatrix type="matrix" values="0 0 0 0 0 0 0 0 0 0 0 0 0 0 0 0 0 0 0.15 0"/>
<feBlend mode="normal" in2="BackgroundImageFix" result="effect1_dropShadow"/>
<feBlend mode="normal" in="SourceGraphic" in2="effect1_dropShadow" result="shape"/>
</filter>
</defs>
</svg>
