<svg width="495" height="337" viewBox="0 0 495 337" fill="none" xmlns="http://www.w3.org/2000/svg">
<rect x="1" y="92" width="244" height="150" rx="9" fill="#7187FB" stroke="#001EBB" stroke-width="2"/>
<g filter="url(#filter0_d)">
<rect x="20" y="111" width="50" height="50" rx="6" fill="#FFF000"/>
<rect x="21" y="112" width="48" height="48" rx="5" stroke="#001EBB" stroke-width="2"/>
</g>
<path d="M47.9697 139.521H43.0127L41.9756 142.5H39.6641L44.498 129.703H46.4932L51.3359 142.5H49.0156L47.9697 139.521ZM43.6367 137.728H47.3457L45.4912 132.419L43.6367 137.728Z" fill="#001EBB"/>
<g filter="url(#filter1_d)">
<rect x="82" y="111" width="50" height="50" rx="6" fill="#FFF000"/>
<rect x="83" y="112" width="48" height="48" rx="5" stroke="#001EBB" stroke-width="2"/>
</g>
<path d="M103.123 142.5V129.703H107.509C108.956 129.703 110.058 129.993 110.813 130.573C111.569 131.153 111.947 132.018 111.947 133.166C111.947 133.752 111.789 134.279 111.473 134.748C111.156 135.217 110.693 135.58 110.084 135.838C110.775 136.025 111.309 136.38 111.684 136.901C112.064 137.417 112.255 138.038 112.255 138.765C112.255 139.966 111.868 140.889 111.095 141.533C110.327 142.178 109.226 142.5 107.79 142.5H103.123ZM105.347 136.726V140.725H107.816C108.514 140.725 109.059 140.552 109.451 140.206C109.844 139.86 110.04 139.38 110.04 138.765C110.04 137.435 109.36 136.755 108.001 136.726H105.347ZM105.347 135.091H107.526C108.218 135.091 108.757 134.936 109.144 134.625C109.536 134.309 109.732 133.863 109.732 133.289C109.732 132.656 109.551 132.199 109.188 131.918C108.83 131.637 108.271 131.496 107.509 131.496H105.347V135.091Z" fill="#001EBB"/>
<g filter="url(#filter2_d)">
<rect x="144" y="111" width="50" height="50" rx="6" fill="#FFF000"/>
<rect x="145" y="112" width="48" height="48" rx="5" stroke="#001EBB" stroke-width="2"/>
</g>
<path d="M174.686 138.334C174.557 139.699 174.053 140.766 173.174 141.533C172.295 142.295 171.126 142.676 169.667 142.676C168.647 142.676 167.748 142.436 166.969 141.955C166.195 141.469 165.598 140.78 165.176 139.89C164.754 138.999 164.534 137.965 164.517 136.787V135.592C164.517 134.385 164.73 133.321 165.158 132.401C165.586 131.481 166.198 130.772 166.995 130.274C167.798 129.776 168.724 129.527 169.772 129.527C171.185 129.527 172.321 129.911 173.183 130.679C174.044 131.446 174.545 132.53 174.686 133.931H172.471C172.365 133.011 172.096 132.349 171.662 131.944C171.234 131.534 170.604 131.329 169.772 131.329C168.806 131.329 168.062 131.684 167.54 132.393C167.024 133.096 166.761 134.13 166.749 135.495V136.629C166.749 138.012 166.995 139.066 167.487 139.793C167.985 140.52 168.712 140.883 169.667 140.883C170.54 140.883 171.196 140.687 171.636 140.294C172.075 139.901 172.354 139.248 172.471 138.334H174.686Z" fill="#001EBB"/>
<g filter="url(#filter3_d)">
<rect x="20" y="173" width="50" height="50" rx="6" fill="#FFF000"/>
<rect x="21" y="174" width="48" height="48" rx="5" stroke="#001EBB" stroke-width="2"/>
</g>
<path d="M40.9209 204.5V191.703H44.7002C45.8311 191.703 46.833 191.955 47.7061 192.459C48.585 192.963 49.2646 193.678 49.7451 194.604C50.2256 195.529 50.4658 196.59 50.4658 197.785V198.427C50.4658 199.64 50.2227 200.706 49.7363 201.626C49.2559 202.546 48.5674 203.255 47.6709 203.753C46.7803 204.251 45.7578 204.5 44.6035 204.5H40.9209ZM43.1445 193.496V202.725H44.5947C45.7607 202.725 46.6543 202.361 47.2754 201.635C47.9023 200.902 48.2217 199.854 48.2334 198.488V197.776C48.2334 196.388 47.9316 195.327 47.3281 194.595C46.7246 193.862 45.8486 193.496 44.7002 193.496H43.1445Z" fill="#001EBB"/>
<rect x="463" y="92" width="244" height="150" rx="9" transform="rotate(90 463 92)" fill="#7187FB" stroke="#001EBB" stroke-width="2"/>
<g filter="url(#filter4_d)">
<rect x="394" y="111" width="50" height="50" rx="6" fill="#FFF000"/>
<rect x="395" y="112" width="48" height="48" rx="5" stroke="#001EBB" stroke-width="2"/>
</g>
<path d="M411.148 136.404L411.31 136.98H427.438C427.744 136.98 427.942 136.89 427.996 136.692C427.006 135.756 425.35 134.316 425.35 134.316L423.856 136.404H411.148Z" fill="#001EBB"/>
<g filter="url(#filter5_d)">
<rect x="394" y="173" width="50" height="50" rx="6" fill="#FFF000"/>
<rect x="395" y="174" width="48" height="48" rx="5" stroke="#001EBB" stroke-width="2"/>
</g>
<path d="M411.256 204.308L411.4 204.83H427.348C427.6 204.83 427.816 204.74 427.87 204.542C426.934 203.714 425.404 202.508 425.404 202.508L424.036 204.308H411.256ZM413.002 194.192L413.146 194.696H425.53C425.782 194.696 425.998 194.606 426.052 194.408C425.152 193.616 423.64 192.428 423.64 192.428L422.308 194.192H413.002Z" fill="#001EBB"/>
<g filter="url(#filter6_d)">
<rect x="394" y="235" width="50" height="50" rx="6" fill="#FFF000"/>
<rect x="395" y="236" width="48" height="48" rx="5" stroke="#001EBB" stroke-width="2"/>
</g>
<path d="M411.094 267.352L411.238 267.856H427.582C427.852 267.856 428.05 267.766 428.104 267.568C427.186 266.794 425.71 265.66 425.71 265.66L424.378 267.352H411.094ZM413.272 260.818L413.416 261.34H425.152C425.422 261.34 425.62 261.25 425.674 261.052C424.81 260.314 423.388 259.252 423.388 259.252L422.128 260.818H413.272ZM412.066 254.896L412.21 255.418H426.61C426.862 255.418 427.078 255.328 427.132 255.13C426.25 254.374 424.792 253.258 424.792 253.258L423.496 254.896H412.066Z" fill="#001EBB"/>
<g filter="url(#filter7_d)">
<rect x="332" y="111" width="50" height="50" rx="6" fill="#FFF000"/>
<rect x="333" y="112" width="48" height="48" rx="5" stroke="#001EBB" stroke-width="2"/>
</g>
<path d="M352.172 142.704V140.364L352.262 140.472C356.042 138.492 356.384 135.54 356.474 131.688H358.004V137.79C358.004 138.978 358.166 139.374 359.498 139.374H360.344C362.072 139.374 362.666 138.996 362.666 138.276C362.666 137.916 362.576 137.664 362.144 137.448L362.072 135.684H361.874C361.658 136.422 361.424 137.214 361.298 137.394C361.226 137.52 361.118 137.538 360.992 137.556C360.902 137.574 360.74 137.574 360.542 137.574H360.11C359.858 137.574 359.822 137.502 359.822 137.268V131.796V131.688H362.756V142.704H352.172ZM354.494 131.688C354.476 135.108 354.458 137.862 352.172 140.094V131.688H354.494ZM363.584 130.068L362.576 131.184H352.334L350.12 130.284V144.954H350.462C351.326 144.954 352.172 144.45 352.172 144.198V143.208H362.756V144.81H363.098C363.836 144.81 364.808 144.324 364.826 144.162V132.03C365.204 131.958 365.456 131.796 365.582 131.652L363.584 130.068Z" fill="#001EBB"/>
<g filter="url(#filter8_d)">
<rect x="332" y="173" width="50" height="50" rx="6" fill="#FFF000"/>
<rect x="333" y="174" width="48" height="48" rx="5" stroke="#001EBB" stroke-width="2"/>
</g>
<path d="M360.002 198.944V205.982H355.07C355.538 204.128 356.132 201.518 356.69 198.944H360.002ZM362.756 205.982H362.162V199.25C362.54 199.196 362.774 199.052 362.882 198.908L360.866 197.324L359.822 198.44H356.798C357.158 196.694 357.5 194.984 357.77 193.562H364.466C364.736 193.562 364.934 193.472 364.988 193.274C364.178 192.518 362.774 191.384 362.774 191.384L361.55 193.04H350.12L350.264 193.562H355.538C355.286 194.966 354.962 196.676 354.584 198.44H350.966L351.128 198.944H354.476C353.936 201.5 353.342 204.11 352.856 205.982H349.022L349.166 206.486H365.546C365.816 206.486 366.014 206.396 366.068 206.198C365.294 205.424 363.962 204.218 363.962 204.218L362.756 205.982Z" fill="#001EBB"/>
<path d="M102.144 11.4541H97.0811V14.8818H103.022V17H94.4443V4.20312H103.005V6.33887H97.0811V9.38867H102.144V11.4541ZM106.74 7.49023L106.819 8.58887C107.499 7.73926 108.41 7.31445 109.553 7.31445C110.561 7.31445 111.311 7.61035 111.803 8.20215C112.295 8.79395 112.547 9.67871 112.559 10.8564V17H110.019V10.918C110.019 10.3789 109.901 9.98926 109.667 9.74902C109.433 9.50293 109.043 9.37988 108.498 9.37988C107.783 9.37988 107.247 9.68457 106.89 10.2939V17H104.35V7.49023H106.74ZM114.123 12.1748C114.123 10.7158 114.469 9.54102 115.16 8.65039C115.857 7.75977 116.795 7.31445 117.973 7.31445C119.016 7.31445 119.827 7.67188 120.407 8.38672L120.513 7.49023H122.815V16.6836C122.815 17.5156 122.625 18.2393 122.244 18.8545C121.869 19.4697 121.339 19.9385 120.653 20.2607C119.968 20.583 119.165 20.7441 118.245 20.7441C117.548 20.7441 116.868 20.6035 116.206 20.3223C115.544 20.0469 115.043 19.6895 114.703 19.25L115.828 17.7031C116.461 18.4121 117.229 18.7666 118.131 18.7666C118.805 18.7666 119.329 18.585 119.704 18.2217C120.079 17.8643 120.267 17.3545 120.267 16.6924V16.1826C119.681 16.8447 118.91 17.1758 117.955 17.1758C116.812 17.1758 115.887 16.7305 115.178 15.8398C114.475 14.9434 114.123 13.7568 114.123 12.2803V12.1748ZM116.663 12.3594C116.663 13.2207 116.836 13.8975 117.182 14.3896C117.527 14.876 118.002 15.1191 118.605 15.1191C119.379 15.1191 119.933 14.8291 120.267 14.249V10.25C119.927 9.66992 119.379 9.37988 118.623 9.37988C118.014 9.37988 117.533 9.62891 117.182 10.127C116.836 10.625 116.663 11.3691 116.663 12.3594ZM127.456 17H124.907V3.5H127.456V17ZM132.237 17H129.688V7.49023H132.237V17ZM129.539 5.0293C129.539 4.64844 129.665 4.33496 129.917 4.08887C130.175 3.84277 130.523 3.71973 130.963 3.71973C131.396 3.71973 131.742 3.84277 132 4.08887C132.258 4.33496 132.387 4.64844 132.387 5.0293C132.387 5.41602 132.255 5.73242 131.991 5.97852C131.733 6.22461 131.391 6.34766 130.963 6.34766C130.535 6.34766 130.189 6.22461 129.926 5.97852C129.668 5.73242 129.539 5.41602 129.539 5.0293ZM139.488 14.3721C139.488 14.0615 139.333 13.8184 139.022 13.6426C138.718 13.4609 138.226 13.2998 137.546 13.1592C135.284 12.6846 134.153 11.7236 134.153 10.2764C134.153 9.43262 134.502 8.72949 135.199 8.16699C135.902 7.59863 136.819 7.31445 137.95 7.31445C139.157 7.31445 140.121 7.59863 140.842 8.16699C141.568 8.73535 141.932 9.47363 141.932 10.3818H139.392C139.392 10.0186 139.274 9.71973 139.04 9.48535C138.806 9.24512 138.439 9.125 137.941 9.125C137.514 9.125 137.183 9.22168 136.948 9.41504C136.714 9.6084 136.597 9.85449 136.597 10.1533C136.597 10.4346 136.729 10.6631 136.992 10.8389C137.262 11.0088 137.713 11.1582 138.346 11.2871C138.979 11.4102 139.512 11.5508 139.945 11.709C141.287 12.2012 141.958 13.0537 141.958 14.2666C141.958 15.1338 141.586 15.8369 140.842 16.376C140.098 16.9092 139.137 17.1758 137.959 17.1758C137.162 17.1758 136.453 17.0352 135.832 16.7539C135.217 16.4668 134.733 16.0771 134.382 15.585C134.03 15.0869 133.854 14.5508 133.854 13.9766H136.263C136.286 14.4277 136.453 14.7734 136.764 15.0137C137.074 15.2539 137.49 15.374 138.012 15.374C138.498 15.374 138.864 15.2832 139.11 15.1016C139.362 14.9141 139.488 14.6709 139.488 14.3721ZM146.08 8.52734C146.754 7.71875 147.601 7.31445 148.62 7.31445C150.683 7.31445 151.729 8.5127 151.758 10.9092V17H149.218V10.9795C149.218 10.4346 149.101 10.0332 148.866 9.77539C148.632 9.51172 148.242 9.37988 147.697 9.37988C146.953 9.37988 146.414 9.66699 146.08 10.2412V17H143.54V3.5H146.08V8.52734Z" fill="#222222"/>
<path d="M354.638 4.20312H357.274V13.0625C357.274 13.877 357.093 14.5977 356.729 15.2246C356.372 15.8457 355.865 16.3262 355.209 16.666C354.553 17.0059 353.812 17.1758 352.985 17.1758C351.632 17.1758 350.577 16.833 349.821 16.1475C349.065 15.4561 348.688 14.4805 348.688 13.2207H351.342C351.342 13.8477 351.474 14.3105 351.737 14.6094C352.001 14.9082 352.417 15.0576 352.985 15.0576C353.489 15.0576 353.891 14.8848 354.189 14.5391C354.488 14.1934 354.638 13.7012 354.638 13.0625V4.20312ZM364.877 17C364.76 16.7715 364.675 16.4873 364.622 16.1475C364.007 16.833 363.207 17.1758 362.223 17.1758C361.291 17.1758 360.518 16.9062 359.902 16.3672C359.293 15.8281 358.988 15.1484 358.988 14.3281C358.988 13.3203 359.36 12.5469 360.104 12.0078C360.854 11.4688 361.936 11.1963 363.348 11.1904H364.517V10.6455C364.517 10.2061 364.402 9.85449 364.174 9.59082C363.951 9.32715 363.597 9.19531 363.11 9.19531C362.683 9.19531 362.346 9.29785 362.1 9.50293C361.859 9.70801 361.739 9.98926 361.739 10.3467H359.199C359.199 9.7959 359.369 9.28613 359.709 8.81738C360.049 8.34863 360.529 7.98242 361.15 7.71875C361.771 7.44922 362.469 7.31445 363.242 7.31445C364.414 7.31445 365.343 7.61035 366.028 8.20215C366.72 8.78809 367.065 9.61426 367.065 10.6807V14.8027C367.071 15.7051 367.197 16.3877 367.443 16.8506V17H364.877ZM362.776 15.2334C363.151 15.2334 363.497 15.1514 363.813 14.9873C364.13 14.8174 364.364 14.5918 364.517 14.3105V12.6758H363.567C362.296 12.6758 361.619 13.1152 361.537 13.9941L361.528 14.1436C361.528 14.46 361.64 14.7207 361.862 14.9258C362.085 15.1309 362.39 15.2334 362.776 15.2334ZM377.577 12.333C377.577 13.7979 377.243 14.9727 376.575 15.8574C375.913 16.7363 375.017 17.1758 373.886 17.1758C372.925 17.1758 372.148 16.8418 371.557 16.1738V20.6562H369.017V7.49023H371.372L371.46 8.42188C372.075 7.68359 372.878 7.31445 373.868 7.31445C375.04 7.31445 375.951 7.74805 376.602 8.61523C377.252 9.48242 377.577 10.6777 377.577 12.2012V12.333ZM375.037 12.1484C375.037 11.2637 374.879 10.5811 374.562 10.1006C374.252 9.62012 373.798 9.37988 373.2 9.37988C372.403 9.37988 371.855 9.68457 371.557 10.2939V14.1875C371.867 14.8145 372.421 15.1279 373.218 15.1279C374.431 15.1279 375.037 14.1348 375.037 12.1484ZM384.67 17C384.553 16.7715 384.468 16.4873 384.415 16.1475C383.8 16.833 383 17.1758 382.016 17.1758C381.084 17.1758 380.311 16.9062 379.695 16.3672C379.086 15.8281 378.781 15.1484 378.781 14.3281C378.781 13.3203 379.153 12.5469 379.897 12.0078C380.647 11.4688 381.729 11.1963 383.141 11.1904H384.31V10.6455C384.31 10.2061 384.195 9.85449 383.967 9.59082C383.744 9.32715 383.39 9.19531 382.903 9.19531C382.476 9.19531 382.139 9.29785 381.893 9.50293C381.652 9.70801 381.532 9.98926 381.532 10.3467H378.992C378.992 9.7959 379.162 9.28613 379.502 8.81738C379.842 8.34863 380.322 7.98242 380.943 7.71875C381.564 7.44922 382.262 7.31445 383.035 7.31445C384.207 7.31445 385.136 7.61035 385.821 8.20215C386.513 8.78809 386.858 9.61426 386.858 10.6807V14.8027C386.864 15.7051 386.99 16.3877 387.236 16.8506V17H384.67ZM382.569 15.2334C382.944 15.2334 383.29 15.1514 383.606 14.9873C383.923 14.8174 384.157 14.5918 384.31 14.3105V12.6758H383.36C382.089 12.6758 381.412 13.1152 381.33 13.9941L381.321 14.1436C381.321 14.46 381.433 14.7207 381.655 14.9258C381.878 15.1309 382.183 15.2334 382.569 15.2334ZM391.147 7.49023L391.227 8.58887C391.906 7.73926 392.817 7.31445 393.96 7.31445C394.968 7.31445 395.718 7.61035 396.21 8.20215C396.702 8.79395 396.954 9.67871 396.966 10.8564V17H394.426V10.918C394.426 10.3789 394.309 9.98926 394.074 9.74902C393.84 9.50293 393.45 9.37988 392.905 9.37988C392.19 9.37988 391.654 9.68457 391.297 10.2939V17H388.757V7.49023H391.147ZM403.276 17.1758C401.882 17.1758 400.745 16.748 399.866 15.8926C398.993 15.0371 398.557 13.8975 398.557 12.4736V12.2275C398.557 11.2725 398.741 10.4199 399.11 9.66992C399.479 8.91406 400.001 8.33398 400.675 7.92969C401.354 7.51953 402.128 7.31445 402.995 7.31445C404.296 7.31445 405.318 7.72461 406.062 8.54492C406.812 9.36523 407.188 10.5283 407.188 12.0342V13.0713H401.132C401.214 13.6924 401.46 14.1904 401.87 14.5654C402.286 14.9404 402.811 15.1279 403.443 15.1279C404.422 15.1279 405.187 14.7734 405.737 14.0645L406.985 15.4619C406.604 16.001 406.089 16.4229 405.438 16.7275C404.788 17.0264 404.067 17.1758 403.276 17.1758ZM402.986 9.37109C402.482 9.37109 402.072 9.54102 401.756 9.88086C401.445 10.2207 401.246 10.707 401.158 11.3398H404.691V11.1377C404.68 10.5752 404.527 10.1416 404.234 9.83691C403.941 9.52637 403.525 9.37109 402.986 9.37109ZM413.788 14.3721C413.788 14.0615 413.633 13.8184 413.322 13.6426C413.018 13.4609 412.525 13.2998 411.846 13.1592C409.584 12.6846 408.453 11.7236 408.453 10.2764C408.453 9.43262 408.802 8.72949 409.499 8.16699C410.202 7.59863 411.119 7.31445 412.25 7.31445C413.457 7.31445 414.421 7.59863 415.142 8.16699C415.868 8.73535 416.231 9.47363 416.231 10.3818H413.691C413.691 10.0186 413.574 9.71973 413.34 9.48535C413.105 9.24512 412.739 9.125 412.241 9.125C411.813 9.125 411.482 9.22168 411.248 9.41504C411.014 9.6084 410.896 9.85449 410.896 10.1533C410.896 10.4346 411.028 10.6631 411.292 10.8389C411.562 11.0088 412.013 11.1582 412.646 11.2871C413.278 11.4102 413.812 11.5508 414.245 11.709C415.587 12.2012 416.258 13.0537 416.258 14.2666C416.258 15.1338 415.886 15.8369 415.142 16.376C414.397 16.9092 413.437 17.1758 412.259 17.1758C411.462 17.1758 410.753 17.0352 410.132 16.7539C409.517 16.4668 409.033 16.0771 408.682 15.585C408.33 15.0869 408.154 14.5508 408.154 13.9766H410.562C410.586 14.4277 410.753 14.7734 411.063 15.0137C411.374 15.2539 411.79 15.374 412.312 15.374C412.798 15.374 413.164 15.2832 413.41 15.1016C413.662 14.9141 413.788 14.6709 413.788 14.3721ZM422.278 17.1758C420.884 17.1758 419.747 16.748 418.868 15.8926C417.995 15.0371 417.559 13.8975 417.559 12.4736V12.2275C417.559 11.2725 417.743 10.4199 418.112 9.66992C418.481 8.91406 419.003 8.33398 419.677 7.92969C420.356 7.51953 421.13 7.31445 421.997 7.31445C423.298 7.31445 424.32 7.72461 425.064 8.54492C425.814 9.36523 426.189 10.5283 426.189 12.0342V13.0713H420.134C420.216 13.6924 420.462 14.1904 420.872 14.5654C421.288 14.9404 421.812 15.1279 422.445 15.1279C423.424 15.1279 424.188 14.7734 424.739 14.0645L425.987 15.4619C425.606 16.001 425.091 16.4229 424.44 16.7275C423.79 17.0264 423.069 17.1758 422.278 17.1758ZM421.988 9.37109C421.484 9.37109 421.074 9.54102 420.758 9.88086C420.447 10.2207 420.248 10.707 420.16 11.3398H423.693V11.1377C423.682 10.5752 423.529 10.1416 423.236 9.83691C422.943 9.52637 422.527 9.37109 421.988 9.37109Z" fill="#222222"/>
<path d="M48.7271 37.8374C48.0581 37.6958 47.4819 37.625 46.9985 37.625C45.8511 37.625 45.2773 38.2256 45.2773 39.4268V40.7158H48.5V41.7778H45.2773V47H43.981V41.7778H41.6152V40.7158H43.981V39.5C43.981 37.542 45.0015 36.563 47.0425 36.563C47.5503 36.563 48.1118 36.6216 48.7271 36.7388V37.8374ZM52.9531 37.6982H50.7778V36.6509H54.2422V45.938H56.4321V47H50.5361V45.938H52.9531V37.6982ZM64.9062 42.9351C64.9062 43.1157 64.9038 43.2671 64.8989 43.3892C64.894 43.5112 64.8867 43.626 64.877 43.7334H59.7134C59.7134 44.4854 59.9233 45.064 60.3433 45.4692C60.7632 45.8696 61.3687 46.0698 62.1597 46.0698C62.3745 46.0698 62.5894 46.0625 62.8042 46.0479C63.019 46.0283 63.2266 46.0039 63.4268 45.9746C63.627 45.9453 63.8174 45.9136 63.998 45.8794C64.1836 45.8403 64.3545 45.7988 64.5107 45.7549V46.8022C64.1641 46.8999 63.771 46.978 63.3315 47.0366C62.897 47.1001 62.4453 47.1318 61.9766 47.1318C61.3467 47.1318 60.8047 47.0464 60.3506 46.8755C59.8965 46.7046 59.5229 46.458 59.23 46.1357C58.9419 45.8086 58.7271 45.4106 58.5854 44.9419C58.4487 44.4683 58.3804 43.9336 58.3804 43.3379C58.3804 42.8203 58.4536 42.332 58.6001 41.873C58.7515 41.4092 58.9688 41.0039 59.252 40.6572C59.54 40.3057 59.8916 40.0273 60.3066 39.8223C60.7217 39.6172 61.1929 39.5146 61.7202 39.5146C62.2329 39.5146 62.687 39.5952 63.0825 39.7563C63.478 39.9175 63.8101 40.147 64.0786 40.4448C64.3521 40.7378 64.5571 41.0967 64.6938 41.5215C64.8354 41.9414 64.9062 42.4126 64.9062 42.9351ZM63.5806 42.752C63.5952 42.4248 63.5635 42.127 63.4854 41.8584C63.4072 41.585 63.2852 41.3506 63.1191 41.1553C62.958 40.96 62.7554 40.8086 62.5112 40.7012C62.2671 40.5889 61.9839 40.5327 61.6616 40.5327C61.3833 40.5327 61.1294 40.5864 60.8999 40.6938C60.6704 40.8013 60.4727 40.9526 60.3066 41.1479C60.1406 41.3433 60.0063 41.5776 59.9038 41.8511C59.8013 42.1245 59.7378 42.4248 59.7134 42.752H63.5806ZM73.5708 47H71.8789L69.894 44.1948L67.9312 47H66.2832L69.1323 43.3086L66.415 39.6465H68.0483L69.9819 42.4736L71.8789 39.6465H73.4536L70.6924 43.3379L73.5708 47ZM80.3311 43.6089H75.9512V42.4077H80.3311V43.6089ZM89.9624 37.8374C89.2935 37.6958 88.7173 37.625 88.2339 37.625C87.0864 37.625 86.5127 38.2256 86.5127 39.4268V40.7158H89.7354V41.7778H86.5127V47H85.2163V41.7778H82.8506V40.7158H85.2163V39.5C85.2163 37.542 86.2368 36.563 88.2778 36.563C88.7856 36.563 89.3472 36.6216 89.9624 36.7388V37.8374ZM94.1885 37.6982H92.0132V36.6509H95.4775V45.938H97.6675V47H91.7715V45.938H94.1885V37.6982ZM106.332 43.2646C106.332 43.8359 106.251 44.3608 106.09 44.8394C105.929 45.313 105.697 45.7207 105.395 46.0625C105.092 46.3994 104.723 46.6631 104.289 46.8535C103.854 47.0391 103.361 47.1318 102.809 47.1318C102.282 47.1318 101.808 47.0513 101.388 46.8901C100.973 46.7241 100.619 46.4824 100.326 46.165C100.038 45.8477 99.8159 45.4546 99.6597 44.9858C99.5083 44.5171 99.4326 43.9775 99.4326 43.3672C99.4326 42.7959 99.5132 42.2759 99.6743 41.8071C99.8354 41.3335 100.067 40.9282 100.37 40.5913C100.673 40.2495 101.042 39.9858 101.476 39.8003C101.911 39.6099 102.404 39.5146 102.956 39.5146C103.483 39.5146 103.954 39.5977 104.369 39.7637C104.789 39.9248 105.143 40.1641 105.431 40.4814C105.724 40.7939 105.946 41.1846 106.098 41.6533C106.254 42.1221 106.332 42.6592 106.332 43.2646ZM105.028 43.3232C105.028 42.8691 104.977 42.4736 104.875 42.1367C104.777 41.7949 104.635 41.5117 104.45 41.2871C104.264 41.0576 104.037 40.8867 103.769 40.7744C103.505 40.6572 103.209 40.5986 102.882 40.5986C102.501 40.5986 102.174 40.6743 101.901 40.8257C101.632 40.9722 101.41 41.1699 101.234 41.4189C101.063 41.668 100.937 41.9585 100.854 42.2905C100.775 42.6177 100.736 42.9619 100.736 43.3232C100.736 43.7773 100.785 44.1753 100.883 44.5171C100.985 44.8589 101.129 45.1445 101.315 45.374C101.5 45.5986 101.725 45.7695 101.989 45.8867C102.252 45.999 102.55 46.0552 102.882 46.0552C103.263 46.0552 103.588 45.9819 103.856 45.8354C104.13 45.6841 104.352 45.4839 104.523 45.2349C104.699 44.9858 104.826 44.6978 104.904 44.3706C104.987 44.0386 105.028 43.6895 105.028 43.3232ZM114.989 39.6465L113.92 47H112.375L111.312 43.9238L111.1 43.1768L110.858 43.9678L109.84 47H108.339L107.277 39.6465H108.522L109.137 44.6416L109.269 45.7549L109.584 44.7808L110.653 41.4775H111.569L112.719 44.7368L113.048 45.7109L113.158 44.6782L113.729 39.6465H114.989ZM119.376 39.5146C119.528 39.5146 119.672 39.5464 119.809 39.6099C119.945 39.6685 120.065 39.749 120.167 39.8516C120.27 39.9541 120.351 40.0737 120.409 40.2104C120.473 40.3472 120.504 40.4912 120.504 40.6426C120.504 40.7988 120.473 40.9453 120.409 41.082C120.351 41.2139 120.27 41.3311 120.167 41.4336C120.065 41.5361 119.945 41.6167 119.809 41.6753C119.672 41.7339 119.528 41.7632 119.376 41.7632C119.22 41.7632 119.074 41.7339 118.937 41.6753C118.805 41.6167 118.688 41.5361 118.585 41.4336C118.483 41.3311 118.402 41.2139 118.344 41.082C118.285 40.9453 118.256 40.7988 118.256 40.6426C118.256 40.4912 118.285 40.3472 118.344 40.2104C118.402 40.0737 118.483 39.9541 118.585 39.8516C118.688 39.749 118.805 39.6685 118.937 39.6099C119.074 39.5464 119.22 39.5146 119.376 39.5146ZM119.376 44.8833C119.528 44.8833 119.672 44.915 119.809 44.9785C119.945 45.0371 120.065 45.1177 120.167 45.2202C120.27 45.3228 120.351 45.4424 120.409 45.5791C120.473 45.7158 120.504 45.8599 120.504 46.0112C120.504 46.1675 120.473 46.314 120.409 46.4507C120.351 46.5825 120.27 46.6997 120.167 46.8022C120.065 46.9048 119.945 46.9854 119.809 47.0439C119.672 47.1025 119.528 47.1318 119.376 47.1318C119.22 47.1318 119.074 47.1025 118.937 47.0439C118.805 46.9854 118.688 46.9048 118.585 46.8022C118.483 46.6997 118.402 46.5825 118.344 46.4507C118.285 46.314 118.256 46.1675 118.256 46.0112C118.256 45.8599 118.285 45.7158 118.344 45.5791C118.402 45.4424 118.483 45.3228 118.585 45.2202C118.688 45.1177 118.805 45.0371 118.937 44.9785C119.074 44.915 119.22 44.8833 119.376 44.8833ZM133.219 39.6465H134.384L134.42 41.0015C134.855 40.479 135.282 40.1006 135.702 39.8662C136.127 39.6318 136.554 39.5146 136.984 39.5146C137.746 39.5146 138.322 39.7612 138.712 40.2544C139.108 40.7476 139.291 41.48 139.262 42.4517H137.973C137.987 41.8071 137.892 41.3408 137.687 41.0527C137.487 40.7598 137.191 40.6133 136.801 40.6133C136.63 40.6133 136.457 40.645 136.281 40.7085C136.11 40.7671 135.932 40.8647 135.746 41.0015C135.565 41.1333 135.373 41.3042 135.167 41.5142C134.962 41.7241 134.743 41.978 134.508 42.2759V47H133.219V39.6465ZM147.567 43.2646C147.567 43.8359 147.487 44.3608 147.326 44.8394C147.165 45.313 146.933 45.7207 146.63 46.0625C146.327 46.3994 145.958 46.6631 145.524 46.8535C145.089 47.0391 144.596 47.1318 144.044 47.1318C143.517 47.1318 143.043 47.0513 142.624 46.8901C142.208 46.7241 141.854 46.4824 141.562 46.165C141.273 45.8477 141.051 45.4546 140.895 44.9858C140.744 44.5171 140.668 43.9775 140.668 43.3672C140.668 42.7959 140.749 42.2759 140.91 41.8071C141.071 41.3335 141.303 40.9282 141.605 40.5913C141.908 40.2495 142.277 39.9858 142.711 39.8003C143.146 39.6099 143.639 39.5146 144.191 39.5146C144.718 39.5146 145.189 39.5977 145.604 39.7637C146.024 39.9248 146.378 40.1641 146.667 40.4814C146.959 40.7939 147.182 41.1846 147.333 41.6533C147.489 42.1221 147.567 42.6592 147.567 43.2646ZM146.264 43.3232C146.264 42.8691 146.212 42.4736 146.11 42.1367C146.012 41.7949 145.871 41.5117 145.685 41.2871C145.5 41.0576 145.272 40.8867 145.004 40.7744C144.74 40.6572 144.445 40.5986 144.118 40.5986C143.737 40.5986 143.41 40.6743 143.136 40.8257C142.868 40.9722 142.646 41.1699 142.47 41.4189C142.299 41.668 142.172 41.9585 142.089 42.2905C142.011 42.6177 141.972 42.9619 141.972 43.3232C141.972 43.7773 142.021 44.1753 142.118 44.5171C142.221 44.8589 142.365 45.1445 142.55 45.374C142.736 45.5986 142.96 45.7695 143.224 45.8867C143.488 45.999 143.786 46.0552 144.118 46.0552C144.499 46.0552 144.823 45.9819 145.092 45.8354C145.365 45.6841 145.587 45.4839 145.758 45.2349C145.934 44.9858 146.061 44.6978 146.139 44.3706C146.222 44.0386 146.264 43.6895 146.264 43.3232ZM156.225 39.6465L155.155 47H153.61L152.548 43.9238L152.335 43.1768L152.094 43.9678L151.076 47H149.574L148.512 39.6465H149.757L150.373 44.6416L150.504 45.7549L150.819 44.7808L151.889 41.4775H152.804L153.954 44.7368L154.284 45.7109L154.394 44.6782L154.965 39.6465H156.225ZM172.719 39.6465L171.649 47H170.104L169.042 43.9238L168.83 43.1768L168.588 43.9678L167.57 47H166.068L165.006 39.6465H166.251L166.867 44.6416L166.999 45.7549L167.313 44.7808L168.383 41.4775H169.298L170.448 44.7368L170.778 45.7109L170.888 44.6782L171.459 39.6465H172.719ZM174.455 39.6465H175.619L175.656 41.0015C176.09 40.479 176.518 40.1006 176.938 39.8662C177.362 39.6318 177.79 39.5146 178.219 39.5146C178.981 39.5146 179.557 39.7612 179.948 40.2544C180.343 40.7476 180.526 41.48 180.497 42.4517H179.208C179.223 41.8071 179.127 41.3408 178.922 41.0527C178.722 40.7598 178.427 40.6133 178.036 40.6133C177.865 40.6133 177.692 40.645 177.516 40.7085C177.345 40.7671 177.167 40.8647 176.981 41.0015C176.801 41.1333 176.608 41.3042 176.403 41.5142C176.198 41.7241 175.978 41.978 175.744 42.2759V47H174.455V39.6465ZM187.125 47L187.096 46.0112C186.696 46.4067 186.288 46.6924 185.873 46.8682C185.463 47.0439 185.031 47.1318 184.577 47.1318C184.157 47.1318 183.798 47.0781 183.5 46.9707C183.202 46.8633 182.956 46.7168 182.76 46.5312C182.57 46.3408 182.428 46.1187 182.335 45.8647C182.248 45.6108 182.204 45.335 182.204 45.0371C182.204 44.2998 182.477 43.7236 183.024 43.3086C183.576 42.8887 184.389 42.6787 185.463 42.6787H186.986V42.0342C186.986 41.5996 186.847 41.2529 186.569 40.9941C186.291 40.7305 185.866 40.5986 185.294 40.5986C184.879 40.5986 184.469 40.645 184.064 40.7378C183.664 40.8306 183.249 40.9624 182.819 41.1333V39.9834C182.98 39.9248 183.158 39.8687 183.354 39.8149C183.554 39.7563 183.764 39.7051 183.983 39.6611C184.203 39.6172 184.433 39.583 184.672 39.5586C184.911 39.5293 185.153 39.5146 185.397 39.5146C185.841 39.5146 186.242 39.5635 186.598 39.6611C186.955 39.7588 187.255 39.9077 187.499 40.1079C187.748 40.3081 187.938 40.5596 188.07 40.8623C188.202 41.165 188.268 41.5215 188.268 41.9316V47H187.125ZM186.986 43.6528H185.368C185.05 43.6528 184.777 43.6846 184.547 43.748C184.318 43.8115 184.13 43.9019 183.983 44.019C183.837 44.1362 183.727 44.2778 183.654 44.4438C183.585 44.605 183.551 44.7881 183.551 44.9932C183.551 45.1348 183.573 45.2715 183.617 45.4033C183.661 45.5303 183.732 45.645 183.83 45.7476C183.927 45.8452 184.054 45.9233 184.21 45.9819C184.367 46.0405 184.557 46.0698 184.782 46.0698C185.075 46.0698 185.409 45.9819 185.785 45.8062C186.166 45.6255 186.566 45.3423 186.986 44.9565V43.6528ZM196.933 43.1914C196.933 43.8457 196.84 44.417 196.654 44.9053C196.474 45.3936 196.222 45.7988 195.9 46.1211C195.578 46.4434 195.197 46.6851 194.757 46.8462C194.318 47.0073 193.842 47.0879 193.329 47.0879C193.095 47.0879 192.86 47.0757 192.626 47.0513C192.396 47.0269 192.162 46.9854 191.923 46.9268V50.0029H190.648V39.6465H191.784L191.864 40.877C192.23 40.374 192.621 40.0225 193.036 39.8223C193.451 39.6172 193.9 39.5146 194.384 39.5146C194.804 39.5146 195.172 39.6025 195.49 39.7783C195.807 39.9541 196.073 40.2031 196.288 40.5254C196.503 40.8428 196.664 41.2285 196.771 41.6826C196.879 42.1318 196.933 42.6348 196.933 43.1914ZM195.629 43.25C195.629 42.8643 195.6 42.5103 195.541 42.188C195.487 41.8657 195.399 41.5898 195.277 41.3604C195.155 41.1309 194.999 40.9526 194.809 40.8257C194.618 40.6938 194.391 40.6279 194.127 40.6279C193.966 40.6279 193.803 40.6548 193.637 40.7085C193.471 40.7573 193.297 40.8428 193.117 40.9648C192.941 41.082 192.753 41.2407 192.553 41.4409C192.357 41.6362 192.147 41.8804 191.923 42.1733V45.7402C192.157 45.8379 192.404 45.916 192.663 45.9746C192.921 46.0283 193.175 46.0552 193.424 46.0552C194.113 46.0552 194.652 45.8232 195.043 45.3594C195.434 44.8906 195.629 44.1875 195.629 43.25ZM199.555 48.5015C199.804 48.5112 200.045 48.4893 200.28 48.4355C200.514 48.3818 200.719 48.3013 200.895 48.1938C201.076 48.0913 201.22 47.9619 201.327 47.8057C201.435 47.6494 201.488 47.4712 201.488 47.271C201.488 47.0659 201.452 46.8999 201.378 46.7729C201.31 46.646 201.232 46.5288 201.144 46.4214C201.056 46.314 200.976 46.1992 200.902 46.0771C200.834 45.9551 200.8 45.7915 200.8 45.5864C200.8 45.4839 200.819 45.3765 200.858 45.2642C200.897 45.1519 200.956 45.0493 201.034 44.9565C201.117 44.8638 201.22 44.7881 201.342 44.7295C201.469 44.6709 201.618 44.6416 201.789 44.6416C201.959 44.6416 202.123 44.6782 202.279 44.7515C202.44 44.8198 202.58 44.9272 202.697 45.0737C202.819 45.2202 202.914 45.4033 202.982 45.623C203.056 45.8428 203.092 46.1016 203.092 46.3994C203.092 46.8047 203.017 47.1929 202.865 47.564C202.719 47.9399 202.497 48.272 202.199 48.5601C201.906 48.8481 201.537 49.0776 201.093 49.2485C200.653 49.4194 200.141 49.5049 199.555 49.5049V48.5015ZM201.847 39.5146C201.999 39.5146 202.143 39.5464 202.279 39.6099C202.416 39.6685 202.536 39.749 202.638 39.8516C202.741 39.9541 202.821 40.0737 202.88 40.2104C202.943 40.3472 202.975 40.4912 202.975 40.6426C202.975 40.7988 202.943 40.9453 202.88 41.082C202.821 41.2139 202.741 41.3311 202.638 41.4336C202.536 41.5361 202.416 41.6167 202.279 41.6753C202.143 41.7339 201.999 41.7632 201.847 41.7632C201.691 41.7632 201.544 41.7339 201.408 41.6753C201.276 41.6167 201.159 41.5361 201.056 41.4336C200.954 41.3311 200.873 41.2139 200.814 41.082C200.756 40.9453 200.727 40.7988 200.727 40.6426C200.727 40.4912 200.756 40.3472 200.814 40.2104C200.873 40.0737 200.954 39.9541 201.056 39.8516C201.159 39.749 201.276 39.6685 201.408 39.6099C201.544 39.5464 201.691 39.5146 201.847 39.5146ZM16.0244 57.6465L14.9551 65H13.4097L12.3477 61.9238L12.1353 61.1768L11.8936 61.9678L10.8755 65H9.37402L8.31201 57.6465H9.55713L10.1724 62.6416L10.3042 63.7549L10.6191 62.7808L11.6885 59.4775H12.604L13.7539 62.7368L14.0835 63.7109L14.1934 62.6782L14.7646 57.6465H16.0244ZM17.7603 57.6465H18.9248L18.9614 59.0015C19.396 58.479 19.8232 58.1006 20.2432 57.8662C20.668 57.6318 21.0952 57.5146 21.5249 57.5146C22.2866 57.5146 22.8628 57.7612 23.2534 58.2544C23.6489 58.7476 23.832 59.48 23.8027 60.4517H22.5137C22.5283 59.8071 22.4331 59.3408 22.228 59.0527C22.0278 58.7598 21.7324 58.6133 21.3418 58.6133C21.1709 58.6133 20.9976 58.645 20.8218 58.7085C20.6509 58.7671 20.4727 58.8647 20.2871 59.0015C20.1064 59.1333 19.9136 59.3042 19.7085 59.5142C19.5034 59.7241 19.2837 59.978 19.0493 60.2759V65H17.7603V57.6465ZM28.2119 58.7012H26.0366V57.6465H29.501V63.938H31.6909V65H25.7949V63.938H28.2119V58.7012ZM28.6587 54.563C28.8003 54.563 28.9321 54.5898 29.0542 54.6436C29.1763 54.6924 29.2812 54.7632 29.3691 54.856C29.4619 54.9487 29.5327 55.0562 29.5815 55.1782C29.6353 55.2954 29.6621 55.4248 29.6621 55.5664C29.6621 55.7031 29.6353 55.8325 29.5815 55.9546C29.5327 56.0767 29.4619 56.1841 29.3691 56.2769C29.2812 56.3696 29.1763 56.4429 29.0542 56.4966C28.9321 56.5454 28.8003 56.5698 28.6587 56.5698C28.5171 56.5698 28.3853 56.5454 28.2632 56.4966C28.1411 56.4429 28.0337 56.3696 27.9409 56.2769C27.853 56.1841 27.7822 56.0767 27.7285 55.9546C27.6797 55.8325 27.6553 55.7031 27.6553 55.5664C27.6553 55.4248 27.6797 55.2954 27.7285 55.1782C27.7822 55.0562 27.853 54.9487 27.9409 54.856C28.0337 54.7632 28.1411 54.6924 28.2632 54.6436C28.3853 54.5898 28.5171 54.563 28.6587 54.563ZM39.8794 64.8975C39.5913 64.9707 39.2935 65.022 38.9858 65.0513C38.6782 65.0854 38.3657 65.1025 38.0483 65.1025C37.1255 65.1025 36.437 64.895 35.9829 64.48C35.5288 64.0601 35.3018 63.418 35.3018 62.5537V58.7158H33.2437V57.6465H35.3018V55.625L36.5762 55.2954V57.6465H39.8794V58.7158H36.5762V62.4512C36.5762 62.9785 36.7153 63.374 36.9937 63.6377C37.2769 63.8965 37.6919 64.0259 38.2388 64.0259C38.4731 64.0259 38.7295 64.0088 39.0078 63.9746C39.2861 63.9355 39.5767 63.877 39.8794 63.7988V64.8975ZM44.7061 58.7012H42.5308V57.6465H45.9951V63.938H48.1851V65H42.2891V63.938H44.7061V58.7012ZM45.1528 54.563C45.2944 54.563 45.4263 54.5898 45.5483 54.6436C45.6704 54.6924 45.7754 54.7632 45.8633 54.856C45.9561 54.9487 46.0269 55.0562 46.0757 55.1782C46.1294 55.2954 46.1562 55.4248 46.1562 55.5664C46.1562 55.7031 46.1294 55.8325 46.0757 55.9546C46.0269 56.0767 45.9561 56.1841 45.8633 56.2769C45.7754 56.3696 45.6704 56.4429 45.5483 56.4966C45.4263 56.5454 45.2944 56.5698 45.1528 56.5698C45.0112 56.5698 44.8794 56.5454 44.7573 56.4966C44.6353 56.4429 44.5278 56.3696 44.4351 56.2769C44.3472 56.1841 44.2764 56.0767 44.2227 55.9546C44.1738 55.8325 44.1494 55.7031 44.1494 55.5664C44.1494 55.4248 44.1738 55.2954 44.2227 55.1782C44.2764 55.0562 44.3472 54.9487 44.4351 54.856C44.5278 54.7632 44.6353 54.6924 44.7573 54.6436C44.8794 54.5898 45.0112 54.563 45.1528 54.563ZM50.4482 57.6465H51.5835L51.6348 58.833C51.8496 58.5791 52.0571 58.3691 52.2573 58.2031C52.4575 58.0322 52.6528 57.8955 52.8433 57.793C53.0386 57.6904 53.2363 57.6196 53.4365 57.5806C53.6367 57.5366 53.8442 57.5146 54.0591 57.5146C54.8159 57.5146 55.3872 57.7393 55.7729 58.1885C56.1636 58.6328 56.3589 59.3042 56.3589 60.2026V65H55.0845V60.3052C55.0845 59.729 54.9771 59.3042 54.7622 59.0308C54.5474 58.7524 54.2275 58.6133 53.8027 58.6133C53.6465 58.6133 53.4927 58.6377 53.3413 58.6865C53.1948 58.7305 53.041 58.811 52.8799 58.9282C52.7188 59.0405 52.543 59.1943 52.3525 59.3896C52.167 59.585 51.957 59.8291 51.7227 60.1221V65H50.4482V57.6465ZM63.9907 58.6865C64.1274 58.8574 64.2324 59.0576 64.3057 59.2871C64.3838 59.5117 64.4229 59.7559 64.4229 60.0195C64.4229 60.4004 64.3521 60.7495 64.2104 61.0669C64.0737 61.3794 63.8784 61.6479 63.6245 61.8726C63.3706 62.0972 63.0654 62.2729 62.709 62.3999C62.3574 62.522 61.9692 62.583 61.5444 62.583C61.2368 62.583 60.9487 62.5513 60.6802 62.4878C60.4116 62.4194 60.1992 62.3364 60.043 62.2388C59.9502 62.3755 59.8721 62.5049 59.8086 62.627C59.7451 62.749 59.7134 62.8857 59.7134 63.0371C59.7134 63.2227 59.8013 63.3765 59.9771 63.4985C60.1577 63.6206 60.3945 63.6865 60.6875 63.6963L62.6211 63.7695C62.9873 63.7793 63.3242 63.8257 63.6318 63.9087C63.9443 63.9917 64.2104 64.1113 64.4302 64.2676C64.6548 64.4238 64.8281 64.6167 64.9502 64.8462C65.0771 65.0757 65.1406 65.3418 65.1406 65.6445C65.1406 65.9717 65.0698 66.2817 64.9282 66.5747C64.7866 66.8677 64.5669 67.124 64.269 67.3438C63.9761 67.5684 63.6025 67.7466 63.1484 67.8784C62.6943 68.0103 62.1548 68.0762 61.5298 68.0762C60.9341 68.0762 60.4263 68.0273 60.0063 67.9297C59.5913 67.8369 59.2495 67.7051 58.981 67.5342C58.7124 67.3682 58.5171 67.168 58.395 66.9336C58.2729 66.7041 58.2119 66.4502 58.2119 66.1719C58.2119 65.8154 58.2949 65.5029 58.4609 65.2344C58.627 64.9658 58.8833 64.707 59.23 64.458C59.103 64.3994 58.9932 64.3262 58.9004 64.2383C58.8076 64.1504 58.7319 64.0552 58.6733 63.9526C58.6147 63.8452 58.5708 63.7329 58.5415 63.6157C58.5122 63.4985 58.4976 63.3838 58.4976 63.2715C58.4976 62.9541 58.5708 62.6636 58.7173 62.3999C58.8687 62.1362 59.0469 61.8872 59.252 61.6528C59.1592 61.5405 59.0762 61.4307 59.0029 61.3232C58.9346 61.2158 58.8735 61.1011 58.8198 60.979C58.771 60.8521 58.7319 60.7178 58.7026 60.5762C58.6782 60.4297 58.666 60.2637 58.666 60.0781C58.666 59.6973 58.7344 59.3506 58.8711 59.0381C59.0127 58.7207 59.208 58.4497 59.457 58.2251C59.7109 58.0005 60.0137 57.8271 60.3652 57.7051C60.7217 57.5781 61.1147 57.5146 61.5444 57.5146C61.7251 57.5146 61.8984 57.5269 62.0645 57.5513C62.2305 57.5757 62.377 57.6074 62.5039 57.6465H65.1699V58.6865H63.9907ZM59.5669 66.062C59.5669 66.4087 59.7476 66.6602 60.1089 66.8164C60.4702 66.9775 60.9731 67.0581 61.6177 67.0581C62.0229 67.0581 62.3623 67.0215 62.6357 66.9482C62.9141 66.875 63.1362 66.7773 63.3022 66.6553C63.4731 66.5381 63.5952 66.4014 63.6685 66.2451C63.7417 66.0938 63.7783 65.9375 63.7783 65.7764C63.7783 65.4785 63.6562 65.2588 63.4121 65.1172C63.168 64.9756 62.7944 64.8926 62.2915 64.8682L60.3726 64.8022C60.2114 64.9097 60.0771 65.0146 59.9697 65.1172C59.8672 65.2197 59.7866 65.3223 59.728 65.4248C59.6694 65.5322 59.6279 65.6372 59.6035 65.7397C59.5791 65.8472 59.5669 65.9546 59.5669 66.062ZM59.9551 60.0488C59.9551 60.2832 59.9941 60.498 60.0723 60.6934C60.1504 60.8887 60.2603 61.0547 60.4019 61.1914C60.5435 61.3281 60.7095 61.4355 60.8999 61.5137C61.0952 61.5869 61.3101 61.6235 61.5444 61.6235C61.7983 61.6235 62.0229 61.582 62.2183 61.499C62.4185 61.4111 62.5845 61.2939 62.7163 61.1475C62.853 61.001 62.9556 60.8325 63.0239 60.6421C63.0972 60.4517 63.1338 60.2539 63.1338 60.0488C63.1338 59.8145 63.0947 59.5996 63.0166 59.4043C62.9385 59.209 62.8286 59.043 62.687 58.9062C62.5454 58.7695 62.377 58.6646 62.1816 58.5913C61.9912 58.5132 61.7788 58.4741 61.5444 58.4741C61.2905 58.4741 61.0635 58.5181 60.8633 58.606C60.668 58.6938 60.502 58.811 60.3652 58.9575C60.2334 59.0991 60.1309 59.2651 60.0576 59.4556C59.9893 59.646 59.9551 59.8438 59.9551 60.0488ZM72.084 61.6089H67.7041V60.4077H72.084V61.6089ZM80.4336 65V59.7192C80.4336 59.4897 80.4238 59.3018 80.4043 59.1553C80.3896 59.0088 80.3628 58.894 80.3237 58.811C80.2896 58.7231 80.2432 58.6621 80.1846 58.6279C80.1309 58.5938 80.0625 58.5767 79.9795 58.5767C79.8818 58.5767 79.7915 58.606 79.7085 58.6646C79.6255 58.7231 79.5352 58.8184 79.4375 58.9502C79.3447 59.082 79.2397 59.2578 79.1226 59.4775C79.0103 59.6924 78.876 59.9585 78.7197 60.2759V65H77.5552V59.8584C77.5552 59.5898 77.5454 59.3726 77.5259 59.2065C77.5112 59.0405 77.4844 58.9111 77.4453 58.8184C77.4111 58.7256 77.3647 58.6621 77.3062 58.6279C77.2476 58.5938 77.1768 58.5767 77.0938 58.5767C77.0059 58.5767 76.9229 58.6011 76.8447 58.6499C76.7666 58.6987 76.6787 58.7866 76.5811 58.9136C76.4883 59.0405 76.3833 59.2139 76.2661 59.4336C76.1489 59.6533 76.0098 59.9341 75.8486 60.2759V65H74.6768V57.6465H75.6509L75.7095 59.0454C75.8364 58.7671 75.9585 58.5303 76.0757 58.335C76.1978 58.1396 76.3223 57.9834 76.4492 57.8662C76.5762 57.7441 76.7104 57.6562 76.8521 57.6025C76.9985 57.5439 77.1597 57.5146 77.3354 57.5146C77.731 57.5146 78.0312 57.644 78.2363 57.9028C78.4414 58.1616 78.5439 58.562 78.5439 59.104C78.6611 58.8501 78.7759 58.6255 78.8882 58.4302C79.0005 58.23 79.1201 58.064 79.2471 57.9321C79.3789 57.7954 79.5229 57.6929 79.6792 57.6245C79.8354 57.5513 80.0161 57.5146 80.2212 57.5146C81.144 57.5146 81.6055 58.2251 81.6055 59.646V65H80.4336ZM89.8379 61.2646C89.8379 61.8359 89.7573 62.3608 89.5962 62.8394C89.4351 63.313 89.2031 63.7207 88.9004 64.0625C88.5977 64.3994 88.229 64.6631 87.7944 64.8535C87.3599 65.0391 86.8667 65.1318 86.3149 65.1318C85.7876 65.1318 85.314 65.0513 84.894 64.8901C84.479 64.7241 84.125 64.4824 83.832 64.165C83.5439 63.8477 83.3218 63.4546 83.1655 62.9858C83.0142 62.5171 82.9385 61.9775 82.9385 61.3672C82.9385 60.7959 83.019 60.2759 83.1802 59.8071C83.3413 59.3335 83.5732 58.9282 83.876 58.5913C84.1787 58.2495 84.5474 57.9858 84.9819 57.8003C85.4165 57.6099 85.9097 57.5146 86.4614 57.5146C86.9888 57.5146 87.46 57.5977 87.875 57.7637C88.2949 57.9248 88.6489 58.1641 88.937 58.4814C89.23 58.7939 89.4521 59.1846 89.6035 59.6533C89.7598 60.1221 89.8379 60.6592 89.8379 61.2646ZM88.5342 61.3232C88.5342 60.8691 88.4829 60.4736 88.3804 60.1367C88.2827 59.7949 88.1411 59.5117 87.9556 59.2871C87.77 59.0576 87.543 58.8867 87.2744 58.7744C87.0107 58.6572 86.7153 58.5986 86.3882 58.5986C86.0073 58.5986 85.6802 58.6743 85.4067 58.8257C85.1382 58.9722 84.916 59.1699 84.7402 59.4189C84.5693 59.668 84.4424 59.9585 84.3594 60.2905C84.2812 60.6177 84.2422 60.9619 84.2422 61.3232C84.2422 61.7773 84.291 62.1753 84.3887 62.5171C84.4912 62.8589 84.6353 63.1445 84.8208 63.374C85.0063 63.5986 85.231 63.7695 85.4946 63.8867C85.7583 63.999 86.0562 64.0552 86.3882 64.0552C86.769 64.0552 87.0938 63.9819 87.3623 63.8354C87.6357 63.6841 87.8579 63.4839 88.0288 63.2349C88.2046 62.9858 88.3315 62.6978 88.4097 62.3706C88.4927 62.0386 88.5342 61.6895 88.5342 61.3232ZM91.3101 61.4771C91.3101 60.8521 91.3955 60.2979 91.5664 59.8145C91.7373 59.3262 91.979 58.916 92.2915 58.584C92.6089 58.2471 92.9873 57.9932 93.4268 57.8223C93.8711 57.6465 94.3643 57.5586 94.9062 57.5586C95.1406 57.5586 95.3701 57.5732 95.5947 57.6025C95.8242 57.6318 96.0488 57.6782 96.2686 57.7417V54.6509H97.5503V65H96.4077L96.3638 63.6084C96.0073 64.126 95.6216 64.5093 95.2065 64.7583C94.7915 65.0073 94.3423 65.1318 93.8589 65.1318C93.439 65.1318 93.0679 65.0439 92.7456 64.8682C92.4282 64.6924 92.1621 64.4458 91.9473 64.1284C91.7373 63.8062 91.5786 63.4204 91.4712 62.9712C91.3638 62.522 91.3101 62.0239 91.3101 61.4771ZM92.6138 61.3965C92.6138 62.2852 92.7432 62.9492 93.002 63.3887C93.2656 63.8232 93.6367 64.0405 94.1152 64.0405C94.4375 64.0405 94.7769 63.8965 95.1333 63.6084C95.4946 63.3203 95.873 62.8931 96.2686 62.3267V58.9136C96.0586 58.8159 95.8267 58.7427 95.5728 58.6938C95.3188 58.6401 95.0674 58.6133 94.8184 58.6133C94.125 58.6133 93.583 58.8379 93.1924 59.2871C92.8066 59.7363 92.6138 60.4395 92.6138 61.3965ZM106.142 60.9351C106.142 61.1157 106.139 61.2671 106.134 61.3892C106.129 61.5112 106.122 61.626 106.112 61.7334H100.949C100.949 62.4854 101.159 63.064 101.579 63.4692C101.999 63.8696 102.604 64.0698 103.395 64.0698C103.61 64.0698 103.825 64.0625 104.04 64.0479C104.254 64.0283 104.462 64.0039 104.662 63.9746C104.862 63.9453 105.053 63.9136 105.233 63.8794C105.419 63.8403 105.59 63.7988 105.746 63.7549V64.8022C105.399 64.8999 105.006 64.978 104.567 65.0366C104.132 65.1001 103.681 65.1318 103.212 65.1318C102.582 65.1318 102.04 65.0464 101.586 64.8755C101.132 64.7046 100.758 64.458 100.465 64.1357C100.177 63.8086 99.9624 63.4106 99.8208 62.9419C99.6841 62.4683 99.6157 61.9336 99.6157 61.3379C99.6157 60.8203 99.689 60.332 99.8354 59.873C99.9868 59.4092 100.204 59.0039 100.487 58.6572C100.775 58.3057 101.127 58.0273 101.542 57.8223C101.957 57.6172 102.428 57.5146 102.956 57.5146C103.468 57.5146 103.922 57.5952 104.318 57.7563C104.713 57.9175 105.045 58.147 105.314 58.4448C105.587 58.7378 105.792 59.0967 105.929 59.5215C106.071 59.9414 106.142 60.4126 106.142 60.9351ZM104.816 60.752C104.831 60.4248 104.799 60.127 104.721 59.8584C104.643 59.585 104.521 59.3506 104.354 59.1553C104.193 58.96 103.991 58.8086 103.747 58.7012C103.502 58.5889 103.219 58.5327 102.897 58.5327C102.619 58.5327 102.365 58.5864 102.135 58.6938C101.906 58.8013 101.708 58.9526 101.542 59.1479C101.376 59.3433 101.242 59.5776 101.139 59.8511C101.037 60.1245 100.973 60.4248 100.949 60.752H104.816ZM111.129 57.5146C111.281 57.5146 111.425 57.5464 111.562 57.6099C111.698 57.6685 111.818 57.749 111.92 57.8516C112.023 57.9541 112.104 58.0737 112.162 58.2104C112.226 58.3472 112.257 58.4912 112.257 58.6426C112.257 58.7988 112.226 58.9453 112.162 59.082C112.104 59.2139 112.023 59.3311 111.92 59.4336C111.818 59.5361 111.698 59.6167 111.562 59.6753C111.425 59.7339 111.281 59.7632 111.129 59.7632C110.973 59.7632 110.827 59.7339 110.69 59.6753C110.558 59.6167 110.441 59.5361 110.338 59.4336C110.236 59.3311 110.155 59.2139 110.097 59.082C110.038 58.9453 110.009 58.7988 110.009 58.6426C110.009 58.4912 110.038 58.3472 110.097 58.2104C110.155 58.0737 110.236 57.9541 110.338 57.8516C110.441 57.749 110.558 57.6685 110.69 57.6099C110.827 57.5464 110.973 57.5146 111.129 57.5146ZM111.129 62.8833C111.281 62.8833 111.425 62.915 111.562 62.9785C111.698 63.0371 111.818 63.1177 111.92 63.2202C112.023 63.3228 112.104 63.4424 112.162 63.5791C112.226 63.7158 112.257 63.8599 112.257 64.0112C112.257 64.1675 112.226 64.314 112.162 64.4507C112.104 64.5825 112.023 64.6997 111.92 64.8022C111.818 64.9048 111.698 64.9854 111.562 65.0439C111.425 65.1025 111.281 65.1318 111.129 65.1318C110.973 65.1318 110.827 65.1025 110.69 65.0439C110.558 64.9854 110.441 64.9048 110.338 64.8022C110.236 64.6997 110.155 64.5825 110.097 64.4507C110.038 64.314 110.009 64.1675 110.009 64.0112C110.009 63.8599 110.038 63.7158 110.097 63.5791C110.155 63.4424 110.236 63.3228 110.338 63.2202C110.441 63.1177 110.558 63.0371 110.69 62.9785C110.827 62.915 110.973 62.8833 111.129 62.8833ZM130.583 65H129.308V60.3052C129.308 59.7388 129.201 59.3164 128.986 59.0381C128.776 58.7549 128.473 58.6133 128.078 58.6133C127.907 58.6133 127.746 58.6377 127.594 58.6865C127.448 58.7305 127.294 58.811 127.133 58.9282C126.972 59.0405 126.796 59.1943 126.605 59.3896C126.415 59.585 126.195 59.8291 125.946 60.1221V65H124.672V54.6509H125.946V57.6465L125.902 58.8037C126.103 58.5645 126.298 58.3643 126.488 58.2031C126.684 58.0371 126.876 57.9028 127.067 57.8003C127.262 57.6978 127.46 57.6245 127.66 57.5806C127.86 57.5366 128.068 57.5146 128.283 57.5146C129.015 57.5146 129.582 57.7393 129.982 58.1885C130.382 58.6328 130.583 59.3042 130.583 60.2026V65ZM139.32 61.2646C139.32 61.8359 139.24 62.3608 139.079 62.8394C138.917 63.313 138.686 63.7207 138.383 64.0625C138.08 64.3994 137.711 64.6631 137.277 64.8535C136.842 65.0391 136.349 65.1318 135.797 65.1318C135.27 65.1318 134.796 65.0513 134.376 64.8901C133.961 64.7241 133.607 64.4824 133.314 64.165C133.026 63.8477 132.804 63.4546 132.648 62.9858C132.497 62.5171 132.421 61.9775 132.421 61.3672C132.421 60.7959 132.501 60.2759 132.663 59.8071C132.824 59.3335 133.056 58.9282 133.358 58.5913C133.661 58.2495 134.03 57.9858 134.464 57.8003C134.899 57.6099 135.392 57.5146 135.944 57.5146C136.471 57.5146 136.942 57.5977 137.357 57.7637C137.777 57.9248 138.131 58.1641 138.419 58.4814C138.712 58.7939 138.935 59.1846 139.086 59.6533C139.242 60.1221 139.32 60.6592 139.32 61.2646ZM138.017 61.3232C138.017 60.8691 137.965 60.4736 137.863 60.1367C137.765 59.7949 137.624 59.5117 137.438 59.2871C137.252 59.0576 137.025 58.8867 136.757 58.7744C136.493 58.6572 136.198 58.5986 135.871 58.5986C135.49 58.5986 135.163 58.6743 134.889 58.8257C134.621 58.9722 134.398 59.1699 134.223 59.4189C134.052 59.668 133.925 59.9585 133.842 60.2905C133.764 60.6177 133.725 60.9619 133.725 61.3232C133.725 61.7773 133.773 62.1753 133.871 62.5171C133.974 62.8589 134.118 63.1445 134.303 63.374C134.489 63.5986 134.713 63.7695 134.977 63.8867C135.241 63.999 135.539 64.0552 135.871 64.0552C136.251 64.0552 136.576 63.9819 136.845 63.8354C137.118 63.6841 137.34 63.4839 137.511 63.2349C137.687 62.9858 137.814 62.6978 137.892 62.3706C137.975 62.0386 138.017 61.6895 138.017 61.3232ZM141.466 57.6465H142.631L142.667 59.0015C143.102 58.479 143.529 58.1006 143.949 57.8662C144.374 57.6318 144.801 57.5146 145.231 57.5146C145.993 57.5146 146.569 57.7612 146.959 58.2544C147.355 58.7476 147.538 59.48 147.509 60.4517H146.22C146.234 59.8071 146.139 59.3408 145.934 59.0527C145.734 58.7598 145.438 58.6133 145.048 58.6133C144.877 58.6133 144.704 58.645 144.528 58.7085C144.357 58.7671 144.179 58.8647 143.993 59.0015C143.812 59.1333 143.62 59.3042 143.415 59.5142C143.209 59.7241 142.99 59.978 142.755 60.2759V65H141.466V57.6465ZM151.918 58.7012H149.743V57.6465H153.207V63.938H155.397V65H149.501V63.938H151.918V58.7012ZM152.365 54.563C152.506 54.563 152.638 54.5898 152.76 54.6436C152.882 54.6924 152.987 54.7632 153.075 54.856C153.168 54.9487 153.239 55.0562 153.288 55.1782C153.341 55.2954 153.368 55.4248 153.368 55.5664C153.368 55.7031 153.341 55.8325 153.288 55.9546C153.239 56.0767 153.168 56.1841 153.075 56.2769C152.987 56.3696 152.882 56.4429 152.76 56.4966C152.638 56.5454 152.506 56.5698 152.365 56.5698C152.223 56.5698 152.091 56.5454 151.969 56.4966C151.847 56.4429 151.74 56.3696 151.647 56.2769C151.559 56.1841 151.488 56.0767 151.435 55.9546C151.386 55.8325 151.361 55.7031 151.361 55.5664C151.361 55.4248 151.386 55.2954 151.435 55.1782C151.488 55.0562 151.559 54.9487 151.647 54.856C151.74 54.7632 151.847 54.6924 151.969 54.6436C152.091 54.5898 152.223 54.563 152.365 54.563ZM163.615 65H157.689V64.0845L161.842 58.7158H157.792V57.6465H163.373V58.6426L159.293 63.9233H163.615V65ZM172.309 61.2646C172.309 61.8359 172.228 62.3608 172.067 62.8394C171.906 63.313 171.674 63.7207 171.371 64.0625C171.068 64.3994 170.7 64.6631 170.265 64.8535C169.831 65.0391 169.337 65.1318 168.786 65.1318C168.258 65.1318 167.785 65.0513 167.365 64.8901C166.95 64.7241 166.596 64.4824 166.303 64.165C166.015 63.8477 165.792 63.4546 165.636 62.9858C165.485 62.5171 165.409 61.9775 165.409 61.3672C165.409 60.7959 165.49 60.2759 165.651 59.8071C165.812 59.3335 166.044 58.9282 166.347 58.5913C166.649 58.2495 167.018 57.9858 167.453 57.8003C167.887 57.6099 168.38 57.5146 168.932 57.5146C169.459 57.5146 169.931 57.5977 170.346 57.7637C170.766 57.9248 171.12 58.1641 171.408 58.4814C171.701 58.7939 171.923 59.1846 172.074 59.6533C172.23 60.1221 172.309 60.6592 172.309 61.2646ZM171.005 61.3232C171.005 60.8691 170.954 60.4736 170.851 60.1367C170.753 59.7949 170.612 59.5117 170.426 59.2871C170.241 59.0576 170.014 58.8867 169.745 58.7744C169.481 58.6572 169.186 58.5986 168.859 58.5986C168.478 58.5986 168.151 58.6743 167.877 58.8257C167.609 58.9722 167.387 59.1699 167.211 59.4189C167.04 59.668 166.913 59.9585 166.83 60.2905C166.752 60.6177 166.713 60.9619 166.713 61.3232C166.713 61.7773 166.762 62.1753 166.859 62.5171C166.962 62.8589 167.106 63.1445 167.292 63.374C167.477 63.5986 167.702 63.7695 167.965 63.8867C168.229 63.999 168.527 64.0552 168.859 64.0552C169.24 64.0552 169.564 63.9819 169.833 63.8354C170.106 63.6841 170.329 63.4839 170.5 63.2349C170.675 62.9858 170.802 62.6978 170.88 62.3706C170.963 62.0386 171.005 61.6895 171.005 61.3232ZM174.154 57.6465H175.29L175.341 58.833C175.556 58.5791 175.763 58.3691 175.963 58.2031C176.164 58.0322 176.359 57.8955 176.549 57.793C176.745 57.6904 176.942 57.6196 177.143 57.5806C177.343 57.5366 177.55 57.5146 177.765 57.5146C178.522 57.5146 179.093 57.7393 179.479 58.1885C179.87 58.6328 180.065 59.3042 180.065 60.2026V65H178.791V60.3052C178.791 59.729 178.683 59.3042 178.468 59.0308C178.253 58.7524 177.934 58.6133 177.509 58.6133C177.353 58.6133 177.199 58.6377 177.047 58.6865C176.901 58.7305 176.747 58.811 176.586 58.9282C176.425 59.0405 176.249 59.1943 176.059 59.3896C175.873 59.585 175.663 59.8291 175.429 60.1221V65H174.154V57.6465ZM188.327 64.8975C188.039 64.9707 187.741 65.022 187.433 65.0513C187.125 65.0854 186.813 65.1025 186.496 65.1025C185.573 65.1025 184.884 64.895 184.43 64.48C183.976 64.0601 183.749 63.418 183.749 62.5537V58.7158H181.691V57.6465H183.749V55.625L185.023 55.2954V57.6465H188.327V58.7158H185.023V62.4512C185.023 62.9785 185.163 63.374 185.441 63.6377C185.724 63.8965 186.139 64.0259 186.686 64.0259C186.92 64.0259 187.177 64.0088 187.455 63.9746C187.733 63.9355 188.024 63.877 188.327 63.7988V64.8975ZM195.373 65L195.343 64.0112C194.943 64.4067 194.535 64.6924 194.12 64.8682C193.71 65.0439 193.278 65.1318 192.824 65.1318C192.404 65.1318 192.045 65.0781 191.747 64.9707C191.449 64.8633 191.203 64.7168 191.007 64.5312C190.817 64.3408 190.675 64.1187 190.583 63.8647C190.495 63.6108 190.451 63.335 190.451 63.0371C190.451 62.2998 190.724 61.7236 191.271 61.3086C191.823 60.8887 192.636 60.6787 193.71 60.6787H195.233V60.0342C195.233 59.5996 195.094 59.2529 194.816 58.9941C194.538 58.7305 194.113 58.5986 193.542 58.5986C193.126 58.5986 192.716 58.645 192.311 58.7378C191.911 58.8306 191.496 58.9624 191.066 59.1333V57.9834C191.227 57.9248 191.405 57.8687 191.601 57.8149C191.801 57.7563 192.011 57.7051 192.23 57.6611C192.45 57.6172 192.68 57.583 192.919 57.5586C193.158 57.5293 193.4 57.5146 193.644 57.5146C194.088 57.5146 194.489 57.5635 194.845 57.6611C195.202 57.7588 195.502 57.9077 195.746 58.1079C195.995 58.3081 196.186 58.5596 196.317 58.8623C196.449 59.165 196.515 59.5215 196.515 59.9316V65H195.373ZM195.233 61.6528H193.615C193.297 61.6528 193.024 61.6846 192.794 61.748C192.565 61.8115 192.377 61.9019 192.23 62.019C192.084 62.1362 191.974 62.2778 191.901 62.4438C191.833 62.605 191.798 62.7881 191.798 62.9932C191.798 63.1348 191.82 63.2715 191.864 63.4033C191.908 63.5303 191.979 63.645 192.077 63.7476C192.174 63.8452 192.301 63.9233 192.458 63.9819C192.614 64.0405 192.804 64.0698 193.029 64.0698C193.322 64.0698 193.656 63.9819 194.032 63.8062C194.413 63.6255 194.813 63.3423 195.233 62.9565V61.6528ZM201.4 55.6982H199.225V54.6509H202.689V63.938H204.879V65H198.983V63.938H201.4V55.6982ZM212.284 61.6089H207.904V60.4077H212.284V61.6089ZM221.315 64.8975C221.027 64.9707 220.729 65.022 220.421 65.0513C220.114 65.0854 219.801 65.1025 219.484 65.1025C218.561 65.1025 217.873 64.895 217.418 64.48C216.964 64.0601 216.737 63.418 216.737 62.5537V58.7158H214.679V57.6465H216.737V55.625L218.012 55.2954V57.6465H221.315V58.7158H218.012V62.4512C218.012 62.9785 218.151 63.374 218.429 63.6377C218.712 63.8965 219.127 64.0259 219.674 64.0259C219.909 64.0259 220.165 64.0088 220.443 63.9746C220.722 63.9355 221.012 63.877 221.315 63.7988V64.8975ZM229.921 61.1914C229.921 61.8018 229.835 62.3486 229.665 62.832C229.499 63.3105 229.259 63.7183 228.947 64.0552C228.639 64.3872 228.263 64.6436 227.819 64.8242C227.375 65 226.874 65.0879 226.317 65.0879C225.883 65.0879 225.438 65.0464 224.984 64.9634C224.53 64.8804 224.081 64.7485 223.637 64.5679V54.6509H224.911V57.5L224.853 58.8623C225.219 58.3691 225.609 58.0225 226.024 57.8223C226.444 57.6172 226.894 57.5146 227.372 57.5146C227.792 57.5146 228.161 57.6025 228.478 57.7783C228.795 57.9541 229.062 58.2031 229.276 58.5254C229.491 58.8428 229.652 59.2285 229.76 59.6826C229.867 60.1318 229.921 60.6348 229.921 61.1914ZM228.617 61.25C228.617 60.8643 228.588 60.5103 228.529 60.188C228.476 59.8657 228.388 59.5898 228.266 59.3604C228.144 59.1309 227.987 58.9526 227.797 58.8257C227.606 58.6938 227.379 58.6279 227.116 58.6279C226.955 58.6279 226.791 58.6548 226.625 58.7085C226.459 58.7573 226.286 58.8428 226.105 58.9648C225.929 59.082 225.741 59.2407 225.541 59.4409C225.346 59.6362 225.136 59.8804 224.911 60.1733V63.7402C225.16 63.8379 225.414 63.916 225.673 63.9746C225.932 64.0283 226.178 64.0552 226.413 64.0552C226.706 64.0552 226.984 64.0088 227.248 63.916C227.516 63.8232 227.75 63.6694 227.951 63.4546C228.156 63.2349 228.317 62.9468 228.434 62.5903C228.556 62.229 228.617 61.7822 228.617 61.25ZM232.543 66.5015C232.792 66.5112 233.034 66.4893 233.268 66.4355C233.502 66.3818 233.708 66.3013 233.883 66.1938C234.064 66.0913 234.208 65.9619 234.315 65.8057C234.423 65.6494 234.477 65.4712 234.477 65.271C234.477 65.0659 234.44 64.8999 234.367 64.7729C234.298 64.646 234.22 64.5288 234.132 64.4214C234.044 64.314 233.964 64.1992 233.891 64.0771C233.822 63.9551 233.788 63.7915 233.788 63.5864C233.788 63.4839 233.808 63.3765 233.847 63.2642C233.886 63.1519 233.944 63.0493 234.022 62.9565C234.105 62.8638 234.208 62.7881 234.33 62.7295C234.457 62.6709 234.606 62.6416 234.777 62.6416C234.948 62.6416 235.111 62.6782 235.268 62.7515C235.429 62.8198 235.568 62.9272 235.685 63.0737C235.807 63.2202 235.902 63.4033 235.971 63.623C236.044 63.8428 236.081 64.1016 236.081 64.3994C236.081 64.8047 236.005 65.1929 235.854 65.564C235.707 65.9399 235.485 66.272 235.187 66.5601C234.894 66.8481 234.525 67.0776 234.081 67.2485C233.642 67.4194 233.129 67.5049 232.543 67.5049V66.5015ZM234.835 57.5146C234.987 57.5146 235.131 57.5464 235.268 57.6099C235.404 57.6685 235.524 57.749 235.626 57.8516C235.729 57.9541 235.81 58.0737 235.868 58.2104C235.932 58.3472 235.963 58.4912 235.963 58.6426C235.963 58.7988 235.932 58.9453 235.868 59.082C235.81 59.2139 235.729 59.3311 235.626 59.4336C235.524 59.5361 235.404 59.6167 235.268 59.6753C235.131 59.7339 234.987 59.7632 234.835 59.7632C234.679 59.7632 234.533 59.7339 234.396 59.6753C234.264 59.6167 234.147 59.5361 234.044 59.4336C233.942 59.3311 233.861 59.2139 233.803 59.082C233.744 58.9453 233.715 58.7988 233.715 58.6426C233.715 58.4912 233.744 58.3472 233.803 58.2104C233.861 58.0737 233.942 57.9541 234.044 57.8516C234.147 57.749 234.264 57.6685 234.396 57.6099C234.533 57.5464 234.679 57.5146 234.835 57.5146Z" fill="#444444"/>
<path d="M312.727 37.8374C312.058 37.6958 311.482 37.625 310.999 37.625C309.851 37.625 309.277 38.2256 309.277 39.4268V40.7158H312.5V41.7778H309.277V47H307.981V41.7778H305.615V40.7158H307.981V39.5C307.981 37.542 309.001 36.563 311.042 36.563C311.55 36.563 312.112 36.6216 312.727 36.7388V37.8374ZM316.953 37.6982H314.778V36.6509H318.242V45.938H320.432V47H314.536V45.938H316.953V37.6982ZM328.906 42.9351C328.906 43.1157 328.904 43.2671 328.899 43.3892C328.894 43.5112 328.887 43.626 328.877 43.7334H323.713C323.713 44.4854 323.923 45.064 324.343 45.4692C324.763 45.8696 325.369 46.0698 326.16 46.0698C326.375 46.0698 326.589 46.0625 326.804 46.0479C327.019 46.0283 327.227 46.0039 327.427 45.9746C327.627 45.9453 327.817 45.9136 327.998 45.8794C328.184 45.8403 328.354 45.7988 328.511 45.7549V46.8022C328.164 46.8999 327.771 46.978 327.332 47.0366C326.897 47.1001 326.445 47.1318 325.977 47.1318C325.347 47.1318 324.805 47.0464 324.351 46.8755C323.896 46.7046 323.523 46.458 323.23 46.1357C322.942 45.8086 322.727 45.4106 322.585 44.9419C322.449 44.4683 322.38 43.9336 322.38 43.3379C322.38 42.8203 322.454 42.332 322.6 41.873C322.751 41.4092 322.969 41.0039 323.252 40.6572C323.54 40.3057 323.892 40.0273 324.307 39.8223C324.722 39.6172 325.193 39.5146 325.72 39.5146C326.233 39.5146 326.687 39.5952 327.083 39.7563C327.478 39.9175 327.81 40.147 328.079 40.4448C328.352 40.7378 328.557 41.0967 328.694 41.5215C328.835 41.9414 328.906 42.4126 328.906 42.9351ZM327.581 42.752C327.595 42.4248 327.563 42.127 327.485 41.8584C327.407 41.585 327.285 41.3506 327.119 41.1553C326.958 40.96 326.755 40.8086 326.511 40.7012C326.267 40.5889 325.984 40.5327 325.662 40.5327C325.383 40.5327 325.129 40.5864 324.9 40.6938C324.67 40.8013 324.473 40.9526 324.307 41.1479C324.141 41.3433 324.006 41.5776 323.904 41.8511C323.801 42.1245 323.738 42.4248 323.713 42.752H327.581ZM337.571 47H335.879L333.894 44.1948L331.931 47H330.283L333.132 43.3086L330.415 39.6465H332.048L333.982 42.4736L335.879 39.6465H337.454L334.692 43.3379L337.571 47ZM344.331 43.6089H339.951V42.4077H344.331V43.6089ZM353.962 37.8374C353.293 37.6958 352.717 37.625 352.234 37.625C351.086 37.625 350.513 38.2256 350.513 39.4268V40.7158H353.735V41.7778H350.513V47H349.216V41.7778H346.851V40.7158H349.216V39.5C349.216 37.542 350.237 36.563 352.278 36.563C352.786 36.563 353.347 36.6216 353.962 36.7388V37.8374ZM358.188 37.6982H356.013V36.6509H359.478V45.938H361.667V47H355.771V45.938H358.188V37.6982ZM370.332 43.2646C370.332 43.8359 370.251 44.3608 370.09 44.8394C369.929 45.313 369.697 45.7207 369.395 46.0625C369.092 46.3994 368.723 46.6631 368.289 46.8535C367.854 47.0391 367.361 47.1318 366.809 47.1318C366.282 47.1318 365.808 47.0513 365.388 46.8901C364.973 46.7241 364.619 46.4824 364.326 46.165C364.038 45.8477 363.816 45.4546 363.66 44.9858C363.508 44.5171 363.433 43.9775 363.433 43.3672C363.433 42.7959 363.513 42.2759 363.674 41.8071C363.835 41.3335 364.067 40.9282 364.37 40.5913C364.673 40.2495 365.042 39.9858 365.476 39.8003C365.911 39.6099 366.404 39.5146 366.956 39.5146C367.483 39.5146 367.954 39.5977 368.369 39.7637C368.789 39.9248 369.143 40.1641 369.431 40.4814C369.724 40.7939 369.946 41.1846 370.098 41.6533C370.254 42.1221 370.332 42.6592 370.332 43.2646ZM369.028 43.3232C369.028 42.8691 368.977 42.4736 368.875 42.1367C368.777 41.7949 368.635 41.5117 368.45 41.2871C368.264 41.0576 368.037 40.8867 367.769 40.7744C367.505 40.6572 367.209 40.5986 366.882 40.5986C366.501 40.5986 366.174 40.6743 365.901 40.8257C365.632 40.9722 365.41 41.1699 365.234 41.4189C365.063 41.668 364.937 41.9585 364.854 42.2905C364.775 42.6177 364.736 42.9619 364.736 43.3232C364.736 43.7773 364.785 44.1753 364.883 44.5171C364.985 44.8589 365.129 45.1445 365.315 45.374C365.5 45.5986 365.725 45.7695 365.989 45.8867C366.252 45.999 366.55 46.0552 366.882 46.0552C367.263 46.0552 367.588 45.9819 367.856 45.8354C368.13 45.6841 368.352 45.4839 368.523 45.2349C368.699 44.9858 368.826 44.6978 368.904 44.3706C368.987 44.0386 369.028 43.6895 369.028 43.3232ZM378.989 39.6465L377.92 47H376.375L375.312 43.9238L375.1 43.1768L374.858 43.9678L373.84 47H372.339L371.277 39.6465H372.522L373.137 44.6416L373.269 45.7549L373.584 44.7808L374.653 41.4775H375.569L376.719 44.7368L377.048 45.7109L377.158 44.6782L377.729 39.6465H378.989ZM383.376 39.5146C383.528 39.5146 383.672 39.5464 383.809 39.6099C383.945 39.6685 384.065 39.749 384.167 39.8516C384.27 39.9541 384.351 40.0737 384.409 40.2104C384.473 40.3472 384.504 40.4912 384.504 40.6426C384.504 40.7988 384.473 40.9453 384.409 41.082C384.351 41.2139 384.27 41.3311 384.167 41.4336C384.065 41.5361 383.945 41.6167 383.809 41.6753C383.672 41.7339 383.528 41.7632 383.376 41.7632C383.22 41.7632 383.074 41.7339 382.937 41.6753C382.805 41.6167 382.688 41.5361 382.585 41.4336C382.483 41.3311 382.402 41.2139 382.344 41.082C382.285 40.9453 382.256 40.7988 382.256 40.6426C382.256 40.4912 382.285 40.3472 382.344 40.2104C382.402 40.0737 382.483 39.9541 382.585 39.8516C382.688 39.749 382.805 39.6685 382.937 39.6099C383.074 39.5464 383.22 39.5146 383.376 39.5146ZM383.376 44.8833C383.528 44.8833 383.672 44.915 383.809 44.9785C383.945 45.0371 384.065 45.1177 384.167 45.2202C384.27 45.3228 384.351 45.4424 384.409 45.5791C384.473 45.7158 384.504 45.8599 384.504 46.0112C384.504 46.1675 384.473 46.314 384.409 46.4507C384.351 46.5825 384.27 46.6997 384.167 46.8022C384.065 46.9048 383.945 46.9854 383.809 47.0439C383.672 47.1025 383.528 47.1318 383.376 47.1318C383.22 47.1318 383.074 47.1025 382.937 47.0439C382.805 46.9854 382.688 46.9048 382.585 46.8022C382.483 46.6997 382.402 46.5825 382.344 46.4507C382.285 46.314 382.256 46.1675 382.256 46.0112C382.256 45.8599 382.285 45.7158 382.344 45.5791C382.402 45.4424 382.483 45.3228 382.585 45.2202C382.688 45.1177 382.805 45.0371 382.937 44.9785C383.074 44.915 383.22 44.8833 383.376 44.8833ZM397.219 39.6465H398.384L398.42 41.0015C398.855 40.479 399.282 40.1006 399.702 39.8662C400.127 39.6318 400.554 39.5146 400.984 39.5146C401.746 39.5146 402.322 39.7612 402.712 40.2544C403.108 40.7476 403.291 41.48 403.262 42.4517H401.973C401.987 41.8071 401.892 41.3408 401.687 41.0527C401.487 40.7598 401.191 40.6133 400.801 40.6133C400.63 40.6133 400.457 40.645 400.281 40.7085C400.11 40.7671 399.932 40.8647 399.746 41.0015C399.565 41.1333 399.373 41.3042 399.167 41.5142C398.962 41.7241 398.743 41.978 398.508 42.2759V47H397.219V39.6465ZM411.567 43.2646C411.567 43.8359 411.487 44.3608 411.326 44.8394C411.165 45.313 410.933 45.7207 410.63 46.0625C410.327 46.3994 409.958 46.6631 409.524 46.8535C409.089 47.0391 408.596 47.1318 408.044 47.1318C407.517 47.1318 407.043 47.0513 406.624 46.8901C406.208 46.7241 405.854 46.4824 405.562 46.165C405.273 45.8477 405.051 45.4546 404.895 44.9858C404.744 44.5171 404.668 43.9775 404.668 43.3672C404.668 42.7959 404.749 42.2759 404.91 41.8071C405.071 41.3335 405.303 40.9282 405.605 40.5913C405.908 40.2495 406.277 39.9858 406.711 39.8003C407.146 39.6099 407.639 39.5146 408.191 39.5146C408.718 39.5146 409.189 39.5977 409.604 39.7637C410.024 39.9248 410.378 40.1641 410.667 40.4814C410.959 40.7939 411.182 41.1846 411.333 41.6533C411.489 42.1221 411.567 42.6592 411.567 43.2646ZM410.264 43.3232C410.264 42.8691 410.212 42.4736 410.11 42.1367C410.012 41.7949 409.871 41.5117 409.685 41.2871C409.5 41.0576 409.272 40.8867 409.004 40.7744C408.74 40.6572 408.445 40.5986 408.118 40.5986C407.737 40.5986 407.41 40.6743 407.136 40.8257C406.868 40.9722 406.646 41.1699 406.47 41.4189C406.299 41.668 406.172 41.9585 406.089 42.2905C406.011 42.6177 405.972 42.9619 405.972 43.3232C405.972 43.7773 406.021 44.1753 406.118 44.5171C406.221 44.8589 406.365 45.1445 406.55 45.374C406.736 45.5986 406.96 45.7695 407.224 45.8867C407.488 45.999 407.786 46.0552 408.118 46.0552C408.499 46.0552 408.823 45.9819 409.092 45.8354C409.365 45.6841 409.587 45.4839 409.758 45.2349C409.934 44.9858 410.061 44.6978 410.139 44.3706C410.222 44.0386 410.264 43.6895 410.264 43.3232ZM420.225 39.6465L419.155 47H417.61L416.548 43.9238L416.335 43.1768L416.094 43.9678L415.076 47H413.574L412.512 39.6465H413.757L414.373 44.6416L414.504 45.7549L414.819 44.7808L415.889 41.4775H416.804L417.954 44.7368L418.284 45.7109L418.394 44.6782L418.965 39.6465H420.225ZM436.719 39.6465L435.649 47H434.104L433.042 43.9238L432.83 43.1768L432.588 43.9678L431.57 47H430.068L429.006 39.6465H430.251L430.867 44.6416L430.999 45.7549L431.313 44.7808L432.383 41.4775H433.298L434.448 44.7368L434.778 45.7109L434.888 44.6782L435.459 39.6465H436.719ZM438.455 39.6465H439.619L439.656 41.0015C440.09 40.479 440.518 40.1006 440.938 39.8662C441.362 39.6318 441.79 39.5146 442.219 39.5146C442.981 39.5146 443.557 39.7612 443.948 40.2544C444.343 40.7476 444.526 41.48 444.497 42.4517H443.208C443.223 41.8071 443.127 41.3408 442.922 41.0527C442.722 40.7598 442.427 40.6133 442.036 40.6133C441.865 40.6133 441.692 40.645 441.516 40.7085C441.345 40.7671 441.167 40.8647 440.981 41.0015C440.801 41.1333 440.608 41.3042 440.403 41.5142C440.198 41.7241 439.978 41.978 439.744 42.2759V47H438.455V39.6465ZM451.125 47L451.096 46.0112C450.696 46.4067 450.288 46.6924 449.873 46.8682C449.463 47.0439 449.031 47.1318 448.577 47.1318C448.157 47.1318 447.798 47.0781 447.5 46.9707C447.202 46.8633 446.956 46.7168 446.76 46.5312C446.57 46.3408 446.428 46.1187 446.335 45.8647C446.248 45.6108 446.204 45.335 446.204 45.0371C446.204 44.2998 446.477 43.7236 447.024 43.3086C447.576 42.8887 448.389 42.6787 449.463 42.6787H450.986V42.0342C450.986 41.5996 450.847 41.2529 450.569 40.9941C450.291 40.7305 449.866 40.5986 449.294 40.5986C448.879 40.5986 448.469 40.645 448.064 40.7378C447.664 40.8306 447.249 40.9624 446.819 41.1333V39.9834C446.98 39.9248 447.158 39.8687 447.354 39.8149C447.554 39.7563 447.764 39.7051 447.983 39.6611C448.203 39.6172 448.433 39.583 448.672 39.5586C448.911 39.5293 449.153 39.5146 449.397 39.5146C449.841 39.5146 450.242 39.5635 450.598 39.6611C450.955 39.7588 451.255 39.9077 451.499 40.1079C451.748 40.3081 451.938 40.5596 452.07 40.8623C452.202 41.165 452.268 41.5215 452.268 41.9316V47H451.125ZM450.986 43.6528H449.368C449.05 43.6528 448.777 43.6846 448.547 43.748C448.318 43.8115 448.13 43.9019 447.983 44.019C447.837 44.1362 447.727 44.2778 447.654 44.4438C447.585 44.605 447.551 44.7881 447.551 44.9932C447.551 45.1348 447.573 45.2715 447.617 45.4033C447.661 45.5303 447.732 45.645 447.83 45.7476C447.927 45.8452 448.054 45.9233 448.21 45.9819C448.367 46.0405 448.557 46.0698 448.782 46.0698C449.075 46.0698 449.409 45.9819 449.785 45.8062C450.166 45.6255 450.566 45.3423 450.986 44.9565V43.6528ZM460.933 43.1914C460.933 43.8457 460.84 44.417 460.654 44.9053C460.474 45.3936 460.222 45.7988 459.9 46.1211C459.578 46.4434 459.197 46.6851 458.757 46.8462C458.318 47.0073 457.842 47.0879 457.329 47.0879C457.095 47.0879 456.86 47.0757 456.626 47.0513C456.396 47.0269 456.162 46.9854 455.923 46.9268V50.0029H454.648V39.6465H455.784L455.864 40.877C456.23 40.374 456.621 40.0225 457.036 39.8223C457.451 39.6172 457.9 39.5146 458.384 39.5146C458.804 39.5146 459.172 39.6025 459.49 39.7783C459.807 39.9541 460.073 40.2031 460.288 40.5254C460.503 40.8428 460.664 41.2285 460.771 41.6826C460.879 42.1318 460.933 42.6348 460.933 43.1914ZM459.629 43.25C459.629 42.8643 459.6 42.5103 459.541 42.188C459.487 41.8657 459.399 41.5898 459.277 41.3604C459.155 41.1309 458.999 40.9526 458.809 40.8257C458.618 40.6938 458.391 40.6279 458.127 40.6279C457.966 40.6279 457.803 40.6548 457.637 40.7085C457.471 40.7573 457.297 40.8428 457.117 40.9648C456.941 41.082 456.753 41.2407 456.553 41.4409C456.357 41.6362 456.147 41.8804 455.923 42.1733V45.7402C456.157 45.8379 456.404 45.916 456.663 45.9746C456.921 46.0283 457.175 46.0552 457.424 46.0552C458.113 46.0552 458.652 45.8232 459.043 45.3594C459.434 44.8906 459.629 44.1875 459.629 43.25ZM463.555 48.5015C463.804 48.5112 464.045 48.4893 464.28 48.4355C464.514 48.3818 464.719 48.3013 464.895 48.1938C465.076 48.0913 465.22 47.9619 465.327 47.8057C465.435 47.6494 465.488 47.4712 465.488 47.271C465.488 47.0659 465.452 46.8999 465.378 46.7729C465.31 46.646 465.232 46.5288 465.144 46.4214C465.056 46.314 464.976 46.1992 464.902 46.0771C464.834 45.9551 464.8 45.7915 464.8 45.5864C464.8 45.4839 464.819 45.3765 464.858 45.2642C464.897 45.1519 464.956 45.0493 465.034 44.9565C465.117 44.8638 465.22 44.7881 465.342 44.7295C465.469 44.6709 465.618 44.6416 465.789 44.6416C465.959 44.6416 466.123 44.6782 466.279 44.7515C466.44 44.8198 466.58 44.9272 466.697 45.0737C466.819 45.2202 466.914 45.4033 466.982 45.623C467.056 45.8428 467.092 46.1016 467.092 46.3994C467.092 46.8047 467.017 47.1929 466.865 47.564C466.719 47.9399 466.497 48.272 466.199 48.5601C465.906 48.8481 465.537 49.0776 465.093 49.2485C464.653 49.4194 464.141 49.5049 463.555 49.5049V48.5015ZM465.847 39.5146C465.999 39.5146 466.143 39.5464 466.279 39.6099C466.416 39.6685 466.536 39.749 466.638 39.8516C466.741 39.9541 466.821 40.0737 466.88 40.2104C466.943 40.3472 466.975 40.4912 466.975 40.6426C466.975 40.7988 466.943 40.9453 466.88 41.082C466.821 41.2139 466.741 41.3311 466.638 41.4336C466.536 41.5361 466.416 41.6167 466.279 41.6753C466.143 41.7339 465.999 41.7632 465.847 41.7632C465.691 41.7632 465.544 41.7339 465.408 41.6753C465.276 41.6167 465.159 41.5361 465.056 41.4336C464.954 41.3311 464.873 41.2139 464.814 41.082C464.756 40.9453 464.727 40.7988 464.727 40.6426C464.727 40.4912 464.756 40.3472 464.814 40.2104C464.873 40.0737 464.954 39.9541 465.056 39.8516C465.159 39.749 465.276 39.6685 465.408 39.6099C465.544 39.5464 465.691 39.5146 465.847 39.5146ZM288.271 57.6465L287.202 65H285.657L284.595 61.9238L284.382 61.1768L284.141 61.9678L283.123 65H281.621L280.559 57.6465H281.804L282.419 62.6416L282.551 63.7549L282.866 62.7808L283.936 59.4775H284.851L286.001 62.7368L286.331 63.7109L286.44 62.6782L287.012 57.6465H288.271ZM290.007 57.6465H291.172L291.208 59.0015C291.643 58.479 292.07 58.1006 292.49 57.8662C292.915 57.6318 293.342 57.5146 293.772 57.5146C294.534 57.5146 295.11 57.7612 295.5 58.2544C295.896 58.7476 296.079 59.48 296.05 60.4517H294.761C294.775 59.8071 294.68 59.3408 294.475 59.0527C294.275 58.7598 293.979 58.6133 293.589 58.6133C293.418 58.6133 293.245 58.645 293.069 58.7085C292.898 58.7671 292.72 58.8647 292.534 59.0015C292.354 59.1333 292.161 59.3042 291.956 59.5142C291.75 59.7241 291.531 59.978 291.296 60.2759V65H290.007V57.6465ZM300.459 58.7012H298.284V57.6465H301.748V63.938H303.938V65H298.042V63.938H300.459V58.7012ZM300.906 54.563C301.047 54.563 301.179 54.5898 301.301 54.6436C301.423 54.6924 301.528 54.7632 301.616 54.856C301.709 54.9487 301.78 55.0562 301.829 55.1782C301.882 55.2954 301.909 55.4248 301.909 55.5664C301.909 55.7031 301.882 55.8325 301.829 55.9546C301.78 56.0767 301.709 56.1841 301.616 56.2769C301.528 56.3696 301.423 56.4429 301.301 56.4966C301.179 56.5454 301.047 56.5698 300.906 56.5698C300.764 56.5698 300.632 56.5454 300.51 56.4966C300.388 56.4429 300.281 56.3696 300.188 56.2769C300.1 56.1841 300.029 56.0767 299.976 55.9546C299.927 55.8325 299.902 55.7031 299.902 55.5664C299.902 55.4248 299.927 55.2954 299.976 55.1782C300.029 55.0562 300.1 54.9487 300.188 54.856C300.281 54.7632 300.388 54.6924 300.51 54.6436C300.632 54.5898 300.764 54.563 300.906 54.563ZM312.126 64.8975C311.838 64.9707 311.541 65.022 311.233 65.0513C310.925 65.0854 310.613 65.1025 310.295 65.1025C309.373 65.1025 308.684 64.895 308.23 64.48C307.776 64.0601 307.549 63.418 307.549 62.5537V58.7158H305.491V57.6465H307.549V55.625L308.823 55.2954V57.6465H312.126V58.7158H308.823V62.4512C308.823 62.9785 308.962 63.374 309.241 63.6377C309.524 63.8965 309.939 64.0259 310.486 64.0259C310.72 64.0259 310.977 64.0088 311.255 63.9746C311.533 63.9355 311.824 63.877 312.126 63.7988V64.8975ZM316.953 58.7012H314.778V57.6465H318.242V63.938H320.432V65H314.536V63.938H316.953V58.7012ZM317.4 54.563C317.542 54.563 317.673 54.5898 317.795 54.6436C317.917 54.6924 318.022 54.7632 318.11 54.856C318.203 54.9487 318.274 55.0562 318.323 55.1782C318.376 55.2954 318.403 55.4248 318.403 55.5664C318.403 55.7031 318.376 55.8325 318.323 55.9546C318.274 56.0767 318.203 56.1841 318.11 56.2769C318.022 56.3696 317.917 56.4429 317.795 56.4966C317.673 56.5454 317.542 56.5698 317.4 56.5698C317.258 56.5698 317.126 56.5454 317.004 56.4966C316.882 56.4429 316.775 56.3696 316.682 56.2769C316.594 56.1841 316.523 56.0767 316.47 55.9546C316.421 55.8325 316.396 55.7031 316.396 55.5664C316.396 55.4248 316.421 55.2954 316.47 55.1782C316.523 55.0562 316.594 54.9487 316.682 54.856C316.775 54.7632 316.882 54.6924 317.004 54.6436C317.126 54.5898 317.258 54.563 317.4 54.563ZM322.695 57.6465H323.831L323.882 58.833C324.097 58.5791 324.304 58.3691 324.504 58.2031C324.705 58.0322 324.9 57.8955 325.09 57.793C325.286 57.6904 325.483 57.6196 325.684 57.5806C325.884 57.5366 326.091 57.5146 326.306 57.5146C327.063 57.5146 327.634 57.7393 328.02 58.1885C328.411 58.6328 328.606 59.3042 328.606 60.2026V65H327.332V60.3052C327.332 59.729 327.224 59.3042 327.009 59.0308C326.794 58.7524 326.475 58.6133 326.05 58.6133C325.894 58.6133 325.74 58.6377 325.588 58.6865C325.442 58.7305 325.288 58.811 325.127 58.9282C324.966 59.0405 324.79 59.1943 324.6 59.3896C324.414 59.585 324.204 59.8291 323.97 60.1221V65H322.695V57.6465ZM336.238 58.6865C336.375 58.8574 336.479 59.0576 336.553 59.2871C336.631 59.5117 336.67 59.7559 336.67 60.0195C336.67 60.4004 336.599 60.7495 336.458 61.0669C336.321 61.3794 336.125 61.6479 335.872 61.8726C335.618 62.0972 335.312 62.2729 334.956 62.3999C334.604 62.522 334.216 62.583 333.792 62.583C333.484 62.583 333.196 62.5513 332.927 62.4878C332.659 62.4194 332.446 62.3364 332.29 62.2388C332.197 62.3755 332.119 62.5049 332.056 62.627C331.992 62.749 331.96 62.8857 331.96 63.0371C331.96 63.2227 332.048 63.3765 332.224 63.4985C332.405 63.6206 332.642 63.6865 332.935 63.6963L334.868 63.7695C335.234 63.7793 335.571 63.8257 335.879 63.9087C336.191 63.9917 336.458 64.1113 336.677 64.2676C336.902 64.4238 337.075 64.6167 337.197 64.8462C337.324 65.0757 337.388 65.3418 337.388 65.6445C337.388 65.9717 337.317 66.2817 337.175 66.5747C337.034 66.8677 336.814 67.124 336.516 67.3438C336.223 67.5684 335.85 67.7466 335.396 67.8784C334.941 68.0103 334.402 68.0762 333.777 68.0762C333.181 68.0762 332.673 68.0273 332.253 67.9297C331.838 67.8369 331.497 67.7051 331.228 67.5342C330.959 67.3682 330.764 67.168 330.642 66.9336C330.52 66.7041 330.459 66.4502 330.459 66.1719C330.459 65.8154 330.542 65.5029 330.708 65.2344C330.874 64.9658 331.13 64.707 331.477 64.458C331.35 64.3994 331.24 64.3262 331.147 64.2383C331.055 64.1504 330.979 64.0552 330.92 63.9526C330.862 63.8452 330.818 63.7329 330.789 63.6157C330.759 63.4985 330.745 63.3838 330.745 63.2715C330.745 62.9541 330.818 62.6636 330.964 62.3999C331.116 62.1362 331.294 61.8872 331.499 61.6528C331.406 61.5405 331.323 61.4307 331.25 61.3232C331.182 61.2158 331.121 61.1011 331.067 60.979C331.018 60.8521 330.979 60.7178 330.95 60.5762C330.925 60.4297 330.913 60.2637 330.913 60.0781C330.913 59.6973 330.981 59.3506 331.118 59.0381C331.26 58.7207 331.455 58.4497 331.704 58.2251C331.958 58.0005 332.261 57.8271 332.612 57.7051C332.969 57.5781 333.362 57.5146 333.792 57.5146C333.972 57.5146 334.146 57.5269 334.312 57.5513C334.478 57.5757 334.624 57.6074 334.751 57.6465H337.417V58.6865H336.238ZM331.814 66.062C331.814 66.4087 331.995 66.6602 332.356 66.8164C332.717 66.9775 333.22 67.0581 333.865 67.0581C334.27 67.0581 334.609 67.0215 334.883 66.9482C335.161 66.875 335.383 66.7773 335.549 66.6553C335.72 66.5381 335.842 66.4014 335.916 66.2451C335.989 66.0938 336.025 65.9375 336.025 65.7764C336.025 65.4785 335.903 65.2588 335.659 65.1172C335.415 64.9756 335.042 64.8926 334.539 64.8682L332.62 64.8022C332.458 64.9097 332.324 65.0146 332.217 65.1172C332.114 65.2197 332.034 65.3223 331.975 65.4248C331.917 65.5322 331.875 65.6372 331.851 65.7397C331.826 65.8472 331.814 65.9546 331.814 66.062ZM332.202 60.0488C332.202 60.2832 332.241 60.498 332.319 60.6934C332.397 60.8887 332.507 61.0547 332.649 61.1914C332.791 61.3281 332.957 61.4355 333.147 61.5137C333.342 61.5869 333.557 61.6235 333.792 61.6235C334.045 61.6235 334.27 61.582 334.465 61.499C334.666 61.4111 334.832 61.2939 334.963 61.1475C335.1 61.001 335.203 60.8325 335.271 60.6421C335.344 60.4517 335.381 60.2539 335.381 60.0488C335.381 59.8145 335.342 59.5996 335.264 59.4043C335.186 59.209 335.076 59.043 334.934 58.9062C334.792 58.7695 334.624 58.6646 334.429 58.5913C334.238 58.5132 334.026 58.4741 333.792 58.4741C333.538 58.4741 333.311 58.5181 333.11 58.606C332.915 58.6938 332.749 58.811 332.612 58.9575C332.48 59.0991 332.378 59.2651 332.305 59.4556C332.236 59.646 332.202 59.8438 332.202 60.0488ZM344.331 61.6089H339.951V60.4077H344.331V61.6089ZM352.681 65V59.7192C352.681 59.4897 352.671 59.3018 352.651 59.1553C352.637 59.0088 352.61 58.894 352.571 58.811C352.537 58.7231 352.49 58.6621 352.432 58.6279C352.378 58.5938 352.31 58.5767 352.227 58.5767C352.129 58.5767 352.039 58.606 351.956 58.6646C351.873 58.7231 351.782 58.8184 351.685 58.9502C351.592 59.082 351.487 59.2578 351.37 59.4775C351.257 59.6924 351.123 59.9585 350.967 60.2759V65H349.802V59.8584C349.802 59.5898 349.792 59.3726 349.773 59.2065C349.758 59.0405 349.731 58.9111 349.692 58.8184C349.658 58.7256 349.612 58.6621 349.553 58.6279C349.495 58.5938 349.424 58.5767 349.341 58.5767C349.253 58.5767 349.17 58.6011 349.092 58.6499C349.014 58.6987 348.926 58.7866 348.828 58.9136C348.735 59.0405 348.63 59.2139 348.513 59.4336C348.396 59.6533 348.257 59.9341 348.096 60.2759V65H346.924V57.6465H347.898L347.957 59.0454C348.083 58.7671 348.206 58.5303 348.323 58.335C348.445 58.1396 348.569 57.9834 348.696 57.8662C348.823 57.7441 348.958 57.6562 349.099 57.6025C349.246 57.5439 349.407 57.5146 349.583 57.5146C349.978 57.5146 350.278 57.644 350.483 57.9028C350.688 58.1616 350.791 58.562 350.791 59.104C350.908 58.8501 351.023 58.6255 351.135 58.4302C351.248 58.23 351.367 58.064 351.494 57.9321C351.626 57.7954 351.77 57.6929 351.926 57.6245C352.083 57.5513 352.263 57.5146 352.468 57.5146C353.391 57.5146 353.853 58.2251 353.853 59.646V65H352.681ZM362.085 61.2646C362.085 61.8359 362.004 62.3608 361.843 62.8394C361.682 63.313 361.45 63.7207 361.147 64.0625C360.845 64.3994 360.476 64.6631 360.042 64.8535C359.607 65.0391 359.114 65.1318 358.562 65.1318C358.035 65.1318 357.561 65.0513 357.141 64.8901C356.726 64.7241 356.372 64.4824 356.079 64.165C355.791 63.8477 355.569 63.4546 355.413 62.9858C355.261 62.5171 355.186 61.9775 355.186 61.3672C355.186 60.7959 355.266 60.2759 355.427 59.8071C355.588 59.3335 355.82 58.9282 356.123 58.5913C356.426 58.2495 356.794 57.9858 357.229 57.8003C357.664 57.6099 358.157 57.5146 358.708 57.5146C359.236 57.5146 359.707 57.5977 360.122 57.7637C360.542 57.9248 360.896 58.1641 361.184 58.4814C361.477 58.7939 361.699 59.1846 361.851 59.6533C362.007 60.1221 362.085 60.6592 362.085 61.2646ZM360.781 61.3232C360.781 60.8691 360.73 60.4736 360.627 60.1367C360.53 59.7949 360.388 59.5117 360.203 59.2871C360.017 59.0576 359.79 58.8867 359.521 58.7744C359.258 58.6572 358.962 58.5986 358.635 58.5986C358.254 58.5986 357.927 58.6743 357.654 58.8257C357.385 58.9722 357.163 59.1699 356.987 59.4189C356.816 59.668 356.689 59.9585 356.606 60.2905C356.528 60.6177 356.489 60.9619 356.489 61.3232C356.489 61.7773 356.538 62.1753 356.636 62.5171C356.738 62.8589 356.882 63.1445 357.068 63.374C357.253 63.5986 357.478 63.7695 357.742 63.8867C358.005 63.999 358.303 64.0552 358.635 64.0552C359.016 64.0552 359.341 63.9819 359.609 63.8354C359.883 63.6841 360.105 63.4839 360.276 63.2349C360.452 62.9858 360.579 62.6978 360.657 62.3706C360.74 62.0386 360.781 61.6895 360.781 61.3232ZM363.557 61.4771C363.557 60.8521 363.643 60.2979 363.813 59.8145C363.984 59.3262 364.226 58.916 364.539 58.584C364.856 58.2471 365.234 57.9932 365.674 57.8223C366.118 57.6465 366.611 57.5586 367.153 57.5586C367.388 57.5586 367.617 57.5732 367.842 57.6025C368.071 57.6318 368.296 57.6782 368.516 57.7417V54.6509H369.797V65H368.655L368.611 63.6084C368.254 64.126 367.869 64.5093 367.454 64.7583C367.039 65.0073 366.589 65.1318 366.106 65.1318C365.686 65.1318 365.315 65.0439 364.993 64.8682C364.675 64.6924 364.409 64.4458 364.194 64.1284C363.984 63.8062 363.826 63.4204 363.718 62.9712C363.611 62.522 363.557 62.0239 363.557 61.4771ZM364.861 61.3965C364.861 62.2852 364.99 62.9492 365.249 63.3887C365.513 63.8232 365.884 64.0405 366.362 64.0405C366.685 64.0405 367.024 63.8965 367.38 63.6084C367.742 63.3203 368.12 62.8931 368.516 62.3267V58.9136C368.306 58.8159 368.074 58.7427 367.82 58.6938C367.566 58.6401 367.314 58.6133 367.065 58.6133C366.372 58.6133 365.83 58.8379 365.439 59.2871C365.054 59.7363 364.861 60.4395 364.861 61.3965ZM378.389 60.9351C378.389 61.1157 378.386 61.2671 378.381 61.3892C378.376 61.5112 378.369 61.626 378.359 61.7334H373.196C373.196 62.4854 373.406 63.064 373.826 63.4692C374.246 63.8696 374.851 64.0698 375.642 64.0698C375.857 64.0698 376.072 64.0625 376.287 64.0479C376.501 64.0283 376.709 64.0039 376.909 63.9746C377.109 63.9453 377.3 63.9136 377.48 63.8794C377.666 63.8403 377.837 63.7988 377.993 63.7549V64.8022C377.646 64.8999 377.253 64.978 376.814 65.0366C376.379 65.1001 375.928 65.1318 375.459 65.1318C374.829 65.1318 374.287 65.0464 373.833 64.8755C373.379 64.7046 373.005 64.458 372.712 64.1357C372.424 63.8086 372.209 63.4106 372.068 62.9419C371.931 62.4683 371.863 61.9336 371.863 61.3379C371.863 60.8203 371.936 60.332 372.083 59.873C372.234 59.4092 372.451 59.0039 372.734 58.6572C373.022 58.3057 373.374 58.0273 373.789 57.8223C374.204 57.6172 374.675 57.5146 375.203 57.5146C375.715 57.5146 376.169 57.5952 376.565 57.7563C376.96 57.9175 377.292 58.147 377.561 58.4448C377.834 58.7378 378.04 59.0967 378.176 59.5215C378.318 59.9414 378.389 60.4126 378.389 60.9351ZM377.063 60.752C377.078 60.4248 377.046 60.127 376.968 59.8584C376.89 59.585 376.768 59.3506 376.602 59.1553C376.44 58.96 376.238 58.8086 375.994 58.7012C375.75 58.5889 375.466 58.5327 375.144 58.5327C374.866 58.5327 374.612 58.5864 374.382 58.6938C374.153 58.8013 373.955 58.9526 373.789 59.1479C373.623 59.3433 373.489 59.5776 373.386 59.8511C373.284 60.1245 373.22 60.4248 373.196 60.752H377.063ZM383.376 57.5146C383.528 57.5146 383.672 57.5464 383.809 57.6099C383.945 57.6685 384.065 57.749 384.167 57.8516C384.27 57.9541 384.351 58.0737 384.409 58.2104C384.473 58.3472 384.504 58.4912 384.504 58.6426C384.504 58.7988 384.473 58.9453 384.409 59.082C384.351 59.2139 384.27 59.3311 384.167 59.4336C384.065 59.5361 383.945 59.6167 383.809 59.6753C383.672 59.7339 383.528 59.7632 383.376 59.7632C383.22 59.7632 383.074 59.7339 382.937 59.6753C382.805 59.6167 382.688 59.5361 382.585 59.4336C382.483 59.3311 382.402 59.2139 382.344 59.082C382.285 58.9453 382.256 58.7988 382.256 58.6426C382.256 58.4912 382.285 58.3472 382.344 58.2104C382.402 58.0737 382.483 57.9541 382.585 57.8516C382.688 57.749 382.805 57.6685 382.937 57.6099C383.074 57.5464 383.22 57.5146 383.376 57.5146ZM383.376 62.8833C383.528 62.8833 383.672 62.915 383.809 62.9785C383.945 63.0371 384.065 63.1177 384.167 63.2202C384.27 63.3228 384.351 63.4424 384.409 63.5791C384.473 63.7158 384.504 63.8599 384.504 64.0112C384.504 64.1675 384.473 64.314 384.409 64.4507C384.351 64.5825 384.27 64.6997 384.167 64.8022C384.065 64.9048 383.945 64.9854 383.809 65.0439C383.672 65.1025 383.528 65.1318 383.376 65.1318C383.22 65.1318 383.074 65.1025 382.937 65.0439C382.805 64.9854 382.688 64.9048 382.585 64.8022C382.483 64.6997 382.402 64.5825 382.344 64.4507C382.285 64.314 382.256 64.1675 382.256 64.0112C382.256 63.8599 382.285 63.7158 382.344 63.5791C382.402 63.4424 382.483 63.3228 382.585 63.2202C382.688 63.1177 382.805 63.0371 382.937 62.9785C383.074 62.915 383.22 62.8833 383.376 62.8833ZM396.23 57.6465H397.681L399.482 62.5098L399.871 63.6963L400.273 62.4805L402.061 57.6465H403.459L400.574 65H399.109L396.23 57.6465ZM411.377 60.9351C411.377 61.1157 411.375 61.2671 411.37 61.3892C411.365 61.5112 411.357 61.626 411.348 61.7334H406.184C406.184 62.4854 406.394 63.064 406.814 63.4692C407.234 63.8696 407.839 64.0698 408.63 64.0698C408.845 64.0698 409.06 64.0625 409.275 64.0479C409.49 64.0283 409.697 64.0039 409.897 63.9746C410.098 63.9453 410.288 63.9136 410.469 63.8794C410.654 63.8403 410.825 63.7988 410.981 63.7549V64.8022C410.635 64.8999 410.242 64.978 409.802 65.0366C409.368 65.1001 408.916 65.1318 408.447 65.1318C407.817 65.1318 407.275 65.0464 406.821 64.8755C406.367 64.7046 405.994 64.458 405.701 64.1357C405.413 63.8086 405.198 63.4106 405.056 62.9419C404.919 62.4683 404.851 61.9336 404.851 61.3379C404.851 60.8203 404.924 60.332 405.071 59.873C405.222 59.4092 405.439 59.0039 405.723 58.6572C406.011 58.3057 406.362 58.0273 406.777 57.8223C407.192 57.6172 407.664 57.5146 408.191 57.5146C408.704 57.5146 409.158 57.5952 409.553 57.7563C409.949 57.9175 410.281 58.147 410.549 58.4448C410.823 58.7378 411.028 59.0967 411.165 59.5215C411.306 59.9414 411.377 60.4126 411.377 60.9351ZM410.051 60.752C410.066 60.4248 410.034 60.127 409.956 59.8584C409.878 59.585 409.756 59.3506 409.59 59.1553C409.429 58.96 409.226 58.8086 408.982 58.7012C408.738 58.5889 408.455 58.5327 408.132 58.5327C407.854 58.5327 407.6 58.5864 407.371 58.6938C407.141 58.8013 406.943 58.9526 406.777 59.1479C406.611 59.3433 406.477 59.5776 406.375 59.8511C406.272 60.1245 406.208 60.4248 406.184 60.752H410.051ZM413.713 57.6465H414.878L414.915 59.0015C415.349 58.479 415.776 58.1006 416.196 57.8662C416.621 57.6318 417.048 57.5146 417.478 57.5146C418.24 57.5146 418.816 57.7612 419.207 58.2544C419.602 58.7476 419.785 59.48 419.756 60.4517H418.467C418.481 59.8071 418.386 59.3408 418.181 59.0527C417.981 58.7598 417.686 58.6133 417.295 58.6133C417.124 58.6133 416.951 58.645 416.775 58.7085C416.604 58.7671 416.426 58.8647 416.24 59.0015C416.06 59.1333 415.867 59.3042 415.662 59.5142C415.457 59.7241 415.237 59.978 415.002 60.2759V65H413.713V57.6465ZM427.585 64.8975C427.297 64.9707 427 65.022 426.692 65.0513C426.384 65.0854 426.072 65.1025 425.754 65.1025C424.832 65.1025 424.143 64.895 423.689 64.48C423.235 64.0601 423.008 63.418 423.008 62.5537V58.7158H420.95V57.6465H423.008V55.625L424.282 55.2954V57.6465H427.585V58.7158H424.282V62.4512C424.282 62.9785 424.421 63.374 424.7 63.6377C424.983 63.8965 425.398 64.0259 425.945 64.0259C426.179 64.0259 426.436 64.0088 426.714 63.9746C426.992 63.9355 427.283 63.877 427.585 63.7988V64.8975ZM432.412 58.7012H430.237V57.6465H433.701V63.938H435.891V65H429.995V63.938H432.412V58.7012ZM432.859 54.563C433 54.563 433.132 54.5898 433.254 54.6436C433.376 54.6924 433.481 54.7632 433.569 54.856C433.662 54.9487 433.733 55.0562 433.782 55.1782C433.835 55.2954 433.862 55.4248 433.862 55.5664C433.862 55.7031 433.835 55.8325 433.782 55.9546C433.733 56.0767 433.662 56.1841 433.569 56.2769C433.481 56.3696 433.376 56.4429 433.254 56.4966C433.132 56.5454 433 56.5698 432.859 56.5698C432.717 56.5698 432.585 56.5454 432.463 56.4966C432.341 56.4429 432.234 56.3696 432.141 56.2769C432.053 56.1841 431.982 56.0767 431.929 55.9546C431.88 55.8325 431.855 55.7031 431.855 55.5664C431.855 55.4248 431.88 55.2954 431.929 55.1782C431.982 55.0562 432.053 54.9487 432.141 54.856C432.234 54.7632 432.341 54.6924 432.463 54.6436C432.585 54.5898 432.717 54.563 432.859 54.563ZM443.867 64.729C443.535 64.856 443.193 64.9487 442.842 65.0073C442.495 65.0708 442.136 65.1025 441.765 65.1025C440.603 65.1025 439.707 64.7876 439.077 64.1577C438.452 63.5278 438.14 62.6074 438.14 61.3965C438.14 60.8154 438.23 60.2881 438.411 59.8145C438.591 59.3408 438.845 58.9355 439.172 58.5986C439.5 58.2617 439.89 58.0029 440.344 57.8223C440.798 57.6367 441.299 57.5439 441.846 57.5439C442.227 57.5439 442.583 57.5708 442.915 57.6245C443.247 57.6782 443.564 57.7661 443.867 57.8882V59.104C443.55 58.938 443.225 58.8184 442.893 58.7451C442.566 58.667 442.227 58.6279 441.875 58.6279C441.548 58.6279 441.238 58.6914 440.945 58.8184C440.657 58.9404 440.403 59.1187 440.183 59.353C439.963 59.5874 439.79 59.873 439.663 60.21C439.536 60.5469 439.473 60.9277 439.473 61.3525C439.473 62.2412 439.688 62.9077 440.117 63.3521C440.552 63.7915 441.152 64.0112 441.919 64.0112C442.266 64.0112 442.6 63.9722 442.922 63.894C443.25 63.8159 443.564 63.6987 443.867 63.5425V64.729ZM451.125 65L451.096 64.0112C450.696 64.4067 450.288 64.6924 449.873 64.8682C449.463 65.0439 449.031 65.1318 448.577 65.1318C448.157 65.1318 447.798 65.0781 447.5 64.9707C447.202 64.8633 446.956 64.7168 446.76 64.5312C446.57 64.3408 446.428 64.1187 446.335 63.8647C446.248 63.6108 446.204 63.335 446.204 63.0371C446.204 62.2998 446.477 61.7236 447.024 61.3086C447.576 60.8887 448.389 60.6787 449.463 60.6787H450.986V60.0342C450.986 59.5996 450.847 59.2529 450.569 58.9941C450.291 58.7305 449.866 58.5986 449.294 58.5986C448.879 58.5986 448.469 58.645 448.064 58.7378C447.664 58.8306 447.249 58.9624 446.819 59.1333V57.9834C446.98 57.9248 447.158 57.8687 447.354 57.8149C447.554 57.7563 447.764 57.7051 447.983 57.6611C448.203 57.6172 448.433 57.583 448.672 57.5586C448.911 57.5293 449.153 57.5146 449.397 57.5146C449.841 57.5146 450.242 57.5635 450.598 57.6611C450.955 57.7588 451.255 57.9077 451.499 58.1079C451.748 58.3081 451.938 58.5596 452.07 58.8623C452.202 59.165 452.268 59.5215 452.268 59.9316V65H451.125ZM450.986 61.6528H449.368C449.05 61.6528 448.777 61.6846 448.547 61.748C448.318 61.8115 448.13 61.9019 447.983 62.019C447.837 62.1362 447.727 62.2778 447.654 62.4438C447.585 62.605 447.551 62.7881 447.551 62.9932C447.551 63.1348 447.573 63.2715 447.617 63.4033C447.661 63.5303 447.732 63.645 447.83 63.7476C447.927 63.8452 448.054 63.9233 448.21 63.9819C448.367 64.0405 448.557 64.0698 448.782 64.0698C449.075 64.0698 449.409 63.9819 449.785 63.8062C450.166 63.6255 450.566 63.3423 450.986 62.9565V61.6528ZM457.153 55.6982H454.978V54.6509H458.442V63.938H460.632V65H454.736V63.938H457.153V55.6982ZM468.037 61.6089H463.657V60.4077H468.037V61.6089ZM471.443 57.6465H472.607L472.644 59.0015C473.079 58.479 473.506 58.1006 473.926 57.8662C474.351 57.6318 474.778 57.5146 475.208 57.5146C475.969 57.5146 476.545 57.7612 476.936 58.2544C477.332 58.7476 477.515 59.48 477.485 60.4517H476.196C476.211 59.8071 476.116 59.3408 475.911 59.0527C475.71 58.7598 475.415 58.6133 475.024 58.6133C474.854 58.6133 474.68 58.645 474.504 58.7085C474.333 58.7671 474.155 58.8647 473.97 59.0015C473.789 59.1333 473.596 59.3042 473.391 59.5142C473.186 59.7241 472.966 59.978 472.732 60.2759V65H471.443V57.6465ZM481.895 55.6982H479.719V54.6509H483.184V63.938H485.374V65H479.478V63.938H481.895V55.6982ZM488.296 66.5015C488.545 66.5112 488.787 66.4893 489.021 66.4355C489.255 66.3818 489.46 66.3013 489.636 66.1938C489.817 66.0913 489.961 65.9619 490.068 65.8057C490.176 65.6494 490.229 65.4712 490.229 65.271C490.229 65.0659 490.193 64.8999 490.12 64.7729C490.051 64.646 489.973 64.5288 489.885 64.4214C489.797 64.314 489.717 64.1992 489.644 64.0771C489.575 63.9551 489.541 63.7915 489.541 63.5864C489.541 63.4839 489.561 63.3765 489.6 63.2642C489.639 63.1519 489.697 63.0493 489.775 62.9565C489.858 62.8638 489.961 62.7881 490.083 62.7295C490.21 62.6709 490.359 62.6416 490.53 62.6416C490.701 62.6416 490.864 62.6782 491.021 62.7515C491.182 62.8198 491.321 62.9272 491.438 63.0737C491.56 63.2202 491.655 63.4033 491.724 63.623C491.797 63.8428 491.833 64.1016 491.833 64.3994C491.833 64.8047 491.758 65.1929 491.606 65.564C491.46 65.9399 491.238 66.272 490.94 66.5601C490.647 66.8481 490.278 67.0776 489.834 67.2485C489.395 67.4194 488.882 67.5049 488.296 67.5049V66.5015ZM490.588 57.5146C490.74 57.5146 490.884 57.5464 491.021 57.6099C491.157 57.6685 491.277 57.749 491.379 57.8516C491.482 57.9541 491.562 58.0737 491.621 58.2104C491.685 58.3472 491.716 58.4912 491.716 58.6426C491.716 58.7988 491.685 58.9453 491.621 59.082C491.562 59.2139 491.482 59.3311 491.379 59.4336C491.277 59.5361 491.157 59.6167 491.021 59.6753C490.884 59.7339 490.74 59.7632 490.588 59.7632C490.432 59.7632 490.286 59.7339 490.149 59.6753C490.017 59.6167 489.9 59.5361 489.797 59.4336C489.695 59.3311 489.614 59.2139 489.556 59.082C489.497 58.9453 489.468 58.7988 489.468 58.6426C489.468 58.4912 489.497 58.3472 489.556 58.2104C489.614 58.0737 489.695 57.9541 489.797 57.8516C489.9 57.749 490.017 57.6685 490.149 57.6099C490.286 57.5464 490.432 57.5146 490.588 57.5146Z" fill="#444444"/>
<defs>
<filter id="filter0_d" x="20" y="111" width="56" height="56" filterUnits="userSpaceOnUse" color-interpolation-filters="sRGB">
<feFlood flood-opacity="0" result="BackgroundImageFix"/>
<feColorMatrix in="SourceAlpha" type="matrix" values="0 0 0 0 0 0 0 0 0 0 0 0 0 0 0 0 0 0 127 0"/>
<feOffset dx="6" dy="6"/>
<feColorMatrix type="matrix" values="0 0 0 0 0 0 0 0 0 0 0 0 0 0 0 0 0 0 0.15 0"/>
<feBlend mode="normal" in2="BackgroundImageFix" result="effect1_dropShadow"/>
<feBlend mode="normal" in="SourceGraphic" in2="effect1_dropShadow" result="shape"/>
</filter>
<filter id="filter1_d" x="82" y="111" width="56" height="56" filterUnits="userSpaceOnUse" color-interpolation-filters="sRGB">
<feFlood flood-opacity="0" result="BackgroundImageFix"/>
<feColorMatrix in="SourceAlpha" type="matrix" values="0 0 0 0 0 0 0 0 0 0 0 0 0 0 0 0 0 0 127 0"/>
<feOffset dx="6" dy="6"/>
<feColorMatrix type="matrix" values="0 0 0 0 0 0 0 0 0 0 0 0 0 0 0 0 0 0 0.15 0"/>
<feBlend mode="normal" in2="BackgroundImageFix" result="effect1_dropShadow"/>
<feBlend mode="normal" in="SourceGraphic" in2="effect1_dropShadow" result="shape"/>
</filter>
<filter id="filter2_d" x="144" y="111" width="56" height="56" filterUnits="userSpaceOnUse" color-interpolation-filters="sRGB">
<feFlood flood-opacity="0" result="BackgroundImageFix"/>
<feColorMatrix in="SourceAlpha" type="matrix" values="0 0 0 0 0 0 0 0 0 0 0 0 0 0 0 0 0 0 127 0"/>
<feOffset dx="6" dy="6"/>
<feColorMatrix type="matrix" values="0 0 0 0 0 0 0 0 0 0 0 0 0 0 0 0 0 0 0.15 0"/>
<feBlend mode="normal" in2="BackgroundImageFix" result="effect1_dropShadow"/>
<feBlend mode="normal" in="SourceGraphic" in2="effect1_dropShadow" result="shape"/>
</filter>
<filter id="filter3_d" x="20" y="173" width="56" height="56" filterUnits="userSpaceOnUse" color-interpolation-filters="sRGB">
<feFlood flood-opacity="0" result="BackgroundImageFix"/>
<feColorMatrix in="SourceAlpha" type="matrix" values="0 0 0 0 0 0 0 0 0 0 0 0 0 0 0 0 0 0 127 0"/>
<feOffset dx="6" dy="6"/>
<feColorMatrix type="matrix" values="0 0 0 0 0 0 0 0 0 0 0 0 0 0 0 0 0 0 0.15 0"/>
<feBlend mode="normal" in2="BackgroundImageFix" result="effect1_dropShadow"/>
<feBlend mode="normal" in="SourceGraphic" in2="effect1_dropShadow" result="shape"/>
</filter>
<filter id="filter4_d" x="394" y="111" width="56" height="56" filterUnits="userSpaceOnUse" color-interpolation-filters="sRGB">
<feFlood flood-opacity="0" result="BackgroundImageFix"/>
<feColorMatrix in="SourceAlpha" type="matrix" values="0 0 0 0 0 0 0 0 0 0 0 0 0 0 0 0 0 0 127 0"/>
<feOffset dx="6" dy="6"/>
<feColorMatrix type="matrix" values="0 0 0 0 0 0 0 0 0 0 0 0 0 0 0 0 0 0 0.15 0"/>
<feBlend mode="normal" in2="BackgroundImageFix" result="effect1_dropShadow"/>
<feBlend mode="normal" in="SourceGraphic" in2="effect1_dropShadow" result="shape"/>
</filter>
<filter id="filter5_d" x="394" y="173" width="56" height="56" filterUnits="userSpaceOnUse" color-interpolation-filters="sRGB">
<feFlood flood-opacity="0" result="BackgroundImageFix"/>
<feColorMatrix in="SourceAlpha" type="matrix" values="0 0 0 0 0 0 0 0 0 0 0 0 0 0 0 0 0 0 127 0"/>
<feOffset dx="6" dy="6"/>
<feColorMatrix type="matrix" values="0 0 0 0 0 0 0 0 0 0 0 0 0 0 0 0 0 0 0.15 0"/>
<feBlend mode="normal" in2="BackgroundImageFix" result="effect1_dropShadow"/>
<feBlend mode="normal" in="SourceGraphic" in2="effect1_dropShadow" result="shape"/>
</filter>
<filter id="filter6_d" x="394" y="235" width="56" height="56" filterUnits="userSpaceOnUse" color-interpolation-filters="sRGB">
<feFlood flood-opacity="0" result="BackgroundImageFix"/>
<feColorMatrix in="SourceAlpha" type="matrix" values="0 0 0 0 0 0 0 0 0 0 0 0 0 0 0 0 0 0 127 0"/>
<feOffset dx="6" dy="6"/>
<feColorMatrix type="matrix" values="0 0 0 0 0 0 0 0 0 0 0 0 0 0 0 0 0 0 0.15 0"/>
<feBlend mode="normal" in2="BackgroundImageFix" result="effect1_dropShadow"/>
<feBlend mode="normal" in="SourceGraphic" in2="effect1_dropShadow" result="shape"/>
</filter>
<filter id="filter7_d" x="332" y="111" width="56" height="56" filterUnits="userSpaceOnUse" color-interpolation-filters="sRGB">
<feFlood flood-opacity="0" result="BackgroundImageFix"/>
<feColorMatrix in="SourceAlpha" type="matrix" values="0 0 0 0 0 0 0 0 0 0 0 0 0 0 0 0 0 0 127 0"/>
<feOffset dx="6" dy="6"/>
<feColorMatrix type="matrix" values="0 0 0 0 0 0 0 0 0 0 0 0 0 0 0 0 0 0 0.15 0"/>
<feBlend mode="normal" in2="BackgroundImageFix" result="effect1_dropShadow"/>
<feBlend mode="normal" in="SourceGraphic" in2="effect1_dropShadow" result="shape"/>
</filter>
<filter id="filter8_d" x="332" y="173" width="56" height="56" filterUnits="userSpaceOnUse" color-interpolation-filters="sRGB">
<feFlood flood-opacity="0" result="BackgroundImageFix"/>
<feColorMatrix in="SourceAlpha" type="matrix" values="0 0 0 0 0 0 0 0 0 0 0 0 0 0 0 0 0 0 127 0"/>
<feOffset dx="6" dy="6"/>
<feColorMatrix type="matrix" values="0 0 0 0 0 0 0 0 0 0 0 0 0 0 0 0 0 0 0.15 0"/>
<feBlend mode="normal" in2="BackgroundImageFix" result="effect1_dropShadow"/>
<feBlend mode="normal" in="SourceGraphic" in2="effect1_dropShadow" result="shape"/>
</filter>
</defs>
</svg>
