<svg width="350" height="156" viewBox="0 0 350 156" fill="none" xmlns="http://www.w3.org/2000/svg">
<rect x="1" y="27" width="348" height="128" rx="5" fill="#F7F7F7" stroke="#AAAAAA" stroke-width="2" stroke-dasharray="6 4"/>
<path d="M5.63965 3.81934C5.1748 3.75553 4.77376 3.72363 4.43652 3.72363C3.54329 3.72363 3.09668 4.1429 3.09668 4.98145V5.60352H4.60059V6.83398H3.09668V13H1.43555V6.83398H0.307617V5.60352H1.43555V4.94043C1.4401 4.10645 1.6862 3.46842 2.17383 3.02637C2.66602 2.57975 3.35872 2.35645 4.25195 2.35645C4.80794 2.35645 5.82422 2.46582 7.30078 2.68457V13H5.63965V3.81934ZM12.3936 13.1367C11.3408 13.1367 10.4863 12.8063 9.83008 12.1455C9.17839 11.4801 8.85254 10.596 8.85254 9.49316V9.28809C8.85254 8.5498 8.99382 7.89128 9.27637 7.3125C9.56348 6.72917 9.96452 6.27572 10.4795 5.95215C10.9945 5.62858 11.5687 5.4668 12.2021 5.4668C13.2093 5.4668 13.9863 5.78809 14.5332 6.43066C15.0846 7.07324 15.3604 7.98242 15.3604 9.1582V9.82812H10.5273C10.5775 10.4388 10.7803 10.9219 11.1357 11.2773C11.4958 11.6328 11.9469 11.8105 12.4893 11.8105C13.2503 11.8105 13.8701 11.5029 14.3486 10.8877L15.2441 11.7422C14.9479 12.1842 14.5514 12.5283 14.0547 12.7744C13.5625 13.016 13.0088 13.1367 12.3936 13.1367ZM12.1953 6.7998C11.7396 6.7998 11.3704 6.95931 11.0879 7.27832C10.8099 7.59733 10.6322 8.04167 10.5547 8.61133H13.7197V8.48828C13.6833 7.93229 13.5352 7.51302 13.2754 7.23047C13.0156 6.94336 12.6556 6.7998 12.1953 6.7998ZM19.3115 8.03711L20.7197 5.60352H22.5654L20.3027 9.24707L22.6406 13H20.8086L19.332 10.4707L17.8623 13H16.0166L18.3545 9.24707L16.0986 5.60352H17.9307L19.3115 8.03711ZM30.2217 11.8105C30.6364 11.8105 30.9805 11.6898 31.2539 11.4482C31.5273 11.2067 31.6732 10.9082 31.6914 10.5527H33.2568C33.2386 11.013 33.0951 11.4437 32.8262 11.8447C32.5573 12.2412 32.1927 12.5557 31.7324 12.7881C31.2721 13.0205 30.7754 13.1367 30.2422 13.1367C29.2077 13.1367 28.3874 12.8018 27.7812 12.1318C27.1751 11.4619 26.8721 10.5368 26.8721 9.35645V9.18555C26.8721 8.0599 27.1729 7.15983 27.7744 6.48535C28.376 5.80632 29.1963 5.4668 30.2354 5.4668C31.1149 5.4668 31.8304 5.72428 32.3818 6.23926C32.9378 6.74967 33.2295 7.42188 33.2568 8.25586H31.6914C31.6732 7.83203 31.5273 7.4834 31.2539 7.20996C30.985 6.93652 30.641 6.7998 30.2217 6.7998C29.6839 6.7998 29.2692 6.99577 28.9775 7.3877C28.6859 7.77507 28.5378 8.36523 28.5332 9.1582V9.4248C28.5332 10.2269 28.6768 10.8262 28.9639 11.2227C29.2555 11.6146 29.6748 11.8105 30.2217 11.8105ZM34.2002 9.2334C34.2002 8.50879 34.3438 7.8571 34.6309 7.27832C34.918 6.69499 35.3213 6.24837 35.8408 5.93848C36.3604 5.62402 36.9574 5.4668 37.6318 5.4668C38.6299 5.4668 39.4388 5.78809 40.0586 6.43066C40.6829 7.07324 41.0202 7.92546 41.0703 8.9873L41.0771 9.37695C41.0771 10.1061 40.9359 10.7578 40.6533 11.332C40.3753 11.9062 39.9743 12.3506 39.4502 12.665C38.9307 12.9795 38.3291 13.1367 37.6455 13.1367C36.6019 13.1367 35.7656 12.7904 35.1367 12.0977C34.5124 11.4004 34.2002 10.473 34.2002 9.31543V9.2334ZM35.8613 9.37695C35.8613 10.138 36.0186 10.735 36.333 11.168C36.6475 11.5964 37.085 11.8105 37.6455 11.8105C38.2061 11.8105 38.6413 11.5918 38.9512 11.1543C39.2656 10.7168 39.4229 10.0765 39.4229 9.2334C39.4229 8.486 39.2611 7.89355 38.9375 7.45605C38.6185 7.01855 38.1833 6.7998 37.6318 6.7998C37.0895 6.7998 36.6589 7.01628 36.3398 7.44922C36.0208 7.8776 35.8613 8.52018 35.8613 9.37695ZM44.0234 5.60352L44.0713 6.45801C44.6182 5.7972 45.3359 5.4668 46.2246 5.4668C47.765 5.4668 48.5488 6.34863 48.5762 8.1123V13H46.915V8.20801C46.915 7.73861 46.8125 7.39225 46.6074 7.16895C46.4069 6.94108 46.0765 6.82715 45.6162 6.82715C44.9463 6.82715 44.4473 7.13021 44.1191 7.73633V13H42.458V5.60352H44.0234ZM52.3564 3.80566V5.60352H53.6621V6.83398H52.3564V10.9629C52.3564 11.2454 52.4111 11.4505 52.5205 11.5781C52.6344 11.7012 52.835 11.7627 53.1221 11.7627C53.3135 11.7627 53.5072 11.7399 53.7031 11.6943V12.9795C53.3249 13.0843 52.9603 13.1367 52.6094 13.1367C51.3333 13.1367 50.6953 12.4326 50.6953 11.0244V6.83398H49.4785V5.60352H50.6953V3.80566H52.3564ZM59.3564 13C59.2835 12.8587 59.2197 12.6286 59.165 12.3096C58.6364 12.861 57.9893 13.1367 57.2236 13.1367C56.4808 13.1367 55.8747 12.9248 55.4053 12.501C54.9359 12.0771 54.7012 11.5531 54.7012 10.9287C54.7012 10.1403 54.9928 9.53646 55.5762 9.11719C56.1641 8.69336 57.0026 8.48145 58.0918 8.48145H59.1104V7.99609C59.1104 7.61328 59.0033 7.30794 58.7891 7.08008C58.5749 6.84766 58.249 6.73145 57.8115 6.73145C57.4333 6.73145 57.1234 6.82715 56.8818 7.01855C56.6403 7.2054 56.5195 7.44466 56.5195 7.73633H54.8584C54.8584 7.33073 54.9928 6.95247 55.2617 6.60156C55.5306 6.24609 55.8952 5.9681 56.3555 5.76758C56.8203 5.56706 57.3376 5.4668 57.9072 5.4668C58.7731 5.4668 59.4635 5.68555 59.9785 6.12305C60.4935 6.55599 60.7578 7.16667 60.7715 7.95508V11.291C60.7715 11.9564 60.8649 12.4873 61.0518 12.8838V13H59.3564ZM57.5312 11.8037C57.8594 11.8037 58.167 11.724 58.4541 11.5645C58.7458 11.4049 58.9645 11.1908 59.1104 10.9219V9.52734H58.2148C57.5996 9.52734 57.137 9.63444 56.8271 9.84863C56.5173 10.0628 56.3623 10.3659 56.3623 10.7578C56.3623 11.0768 56.4671 11.332 56.6768 11.5234C56.891 11.7103 57.1758 11.8037 57.5312 11.8037ZM64.2783 13H62.6172V5.60352H64.2783V13ZM62.5146 3.68262C62.5146 3.42741 62.5944 3.21549 62.7539 3.04688C62.918 2.87826 63.1504 2.79395 63.4512 2.79395C63.752 2.79395 63.9844 2.87826 64.1484 3.04688C64.3125 3.21549 64.3945 3.42741 64.3945 3.68262C64.3945 3.93327 64.3125 4.1429 64.1484 4.31152C63.9844 4.47559 63.752 4.55762 63.4512 4.55762C63.1504 4.55762 62.918 4.47559 62.7539 4.31152C62.5944 4.1429 62.5146 3.93327 62.5146 3.68262ZM67.6348 5.60352L67.6826 6.45801C68.2295 5.7972 68.9473 5.4668 69.8359 5.4668C71.3763 5.4668 72.1602 6.34863 72.1875 8.1123V13H70.5264V8.20801C70.5264 7.73861 70.4238 7.39225 70.2188 7.16895C70.0182 6.94108 69.6878 6.82715 69.2275 6.82715C68.5576 6.82715 68.0586 7.13021 67.7305 7.73633V13H66.0693V5.60352H67.6348ZM77.1436 13.1367C76.0908 13.1367 75.2363 12.8063 74.5801 12.1455C73.9284 11.4801 73.6025 10.596 73.6025 9.49316V9.28809C73.6025 8.5498 73.7438 7.89128 74.0264 7.3125C74.3135 6.72917 74.7145 6.27572 75.2295 5.95215C75.7445 5.62858 76.3187 5.4668 76.9521 5.4668C77.9593 5.4668 78.7363 5.78809 79.2832 6.43066C79.8346 7.07324 80.1104 7.98242 80.1104 9.1582V9.82812H75.2773C75.3275 10.4388 75.5303 10.9219 75.8857 11.2773C76.2458 11.6328 76.6969 11.8105 77.2393 11.8105C78.0003 11.8105 78.6201 11.5029 79.0986 10.8877L79.9941 11.7422C79.6979 12.1842 79.3014 12.5283 78.8047 12.7744C78.3125 13.016 77.7588 13.1367 77.1436 13.1367ZM76.9453 6.7998C76.4896 6.7998 76.1204 6.95931 75.8379 7.27832C75.5599 7.59733 75.3822 8.04167 75.3047 8.61133H78.4697V8.48828C78.4333 7.93229 78.2852 7.51302 78.0254 7.23047C77.7656 6.94336 77.4056 6.7998 76.9453 6.7998ZM85.2783 7.12109C85.0596 7.08464 84.834 7.06641 84.6016 7.06641C83.8405 7.06641 83.3278 7.35807 83.0635 7.94141V13H81.4023V5.60352H82.9883L83.0293 6.43066C83.4303 5.78809 83.9863 5.4668 84.6973 5.4668C84.9342 5.4668 85.1302 5.4987 85.2852 5.5625L85.2783 7.12109Z" fill="#BBBBBB"/>
<g opacity="0.8">
<path d="M10 99C10 97.3431 11.3431 96 13 96H110C111.657 96 113 97.3431 113 99V143C113 144.657 111.657 146 110 146H13C11.3431 146 10 144.657 10 143V99Z" fill="#1E73FF"/>
<path d="M63.2046 125.667H61.4321V117.104L58.8174 117.998V116.497L62.9775 114.966H63.2046V125.667Z" fill="white"/>
</g>
<g opacity="0.8">
<path d="M123 99C123 97.3431 124.343 96 126 96H222C223.657 96 225 97.3431 225 99V143C225 144.657 223.657 146 222 146H126C124.343 146 123 144.657 123 143V99Z" fill="#1E73FF"/>
<path d="M178.106 125.667H170.936V124.443L174.488 120.569C175.001 119.998 175.365 119.521 175.58 119.141C175.799 118.755 175.909 118.369 175.909 117.983C175.909 117.476 175.765 117.065 175.477 116.753C175.194 116.44 174.811 116.284 174.327 116.284C173.751 116.284 173.304 116.46 172.987 116.812C172.669 117.163 172.511 117.644 172.511 118.254H170.731C170.731 117.605 170.877 117.021 171.17 116.504C171.468 115.981 171.891 115.576 172.438 115.288C172.989 115 173.624 114.856 174.342 114.856C175.377 114.856 176.192 115.117 176.788 115.64C177.389 116.157 177.689 116.875 177.689 117.793C177.689 118.325 177.538 118.884 177.235 119.47C176.937 120.051 176.446 120.713 175.763 121.455L173.155 124.246H178.106V125.667Z" fill="white"/>
</g>
<g opacity="0.8">
<path d="M235 99C235 97.3431 236.343 96 238 96H337C338.657 96 340 97.3431 340 99V143C340 144.657 338.657 146 337 146H238C236.343 146 235 144.657 235 143V99Z" fill="#1E73FF"/>
<path d="M286.344 119.521H287.428C287.975 119.517 288.407 119.375 288.724 119.097C289.046 118.818 289.208 118.416 289.208 117.888C289.208 117.38 289.073 116.987 288.805 116.709C288.541 116.426 288.136 116.284 287.589 116.284C287.11 116.284 286.717 116.423 286.41 116.702C286.102 116.975 285.948 117.334 285.948 117.778H284.168C284.168 117.231 284.312 116.733 284.601 116.284C284.894 115.835 285.299 115.486 285.816 115.237C286.339 114.983 286.922 114.856 287.567 114.856C288.631 114.856 289.466 115.125 290.072 115.662C290.682 116.194 290.987 116.936 290.987 117.888C290.987 118.367 290.833 118.818 290.526 119.243C290.223 119.663 289.83 119.98 289.347 120.195C289.933 120.396 290.377 120.71 290.68 121.14C290.987 121.57 291.141 122.083 291.141 122.678C291.141 123.635 290.812 124.397 290.152 124.963C289.498 125.53 288.636 125.813 287.567 125.813C286.542 125.813 285.702 125.54 285.047 124.993C284.393 124.446 284.066 123.718 284.066 122.81H285.846C285.846 123.279 286.002 123.66 286.314 123.953C286.632 124.246 287.057 124.392 287.589 124.392C288.141 124.392 288.575 124.246 288.893 123.953C289.21 123.66 289.369 123.235 289.369 122.678C289.369 122.117 289.203 121.685 288.871 121.382C288.539 121.079 288.045 120.928 287.391 120.928H286.344V119.521Z" fill="white"/>
</g>
<g opacity="0.8">
<path d="M10 39C10 37.3431 11.3431 36 13 36H110C111.657 36 113 37.3431 113 39V83C113 84.6569 111.657 86 110 86H13C11.3431 86 10 84.6569 10 83V39Z" fill="#1E73FF"/>
<path d="M64.4058 61.8652H65.7314V63.2935H64.4058V65.6665H62.626V63.2935H58.019L57.9678 62.2095L62.5674 55.0024H64.4058V61.8652ZM59.8354 61.8652H62.626V57.4121L62.4941 57.6465L59.8354 61.8652Z" fill="white"/>
</g>
<g opacity="0.8">
<path d="M123 39C123 37.3431 124.343 36 126 36H222C223.657 36 225 37.3431 225 39V83C225 84.6569 223.657 86 222 86H126C124.343 86 123 84.6569 123 83V39Z" fill="#1E73FF"/>
<path d="M171.412 60.3784L171.991 55.0024H177.718V56.5405H173.47L173.177 59.0894C173.67 58.8062 174.227 58.6646 174.847 58.6646C175.863 58.6646 176.651 58.9893 177.213 59.6387C177.779 60.2881 178.062 61.1621 178.062 62.2607C178.062 63.3447 177.75 64.209 177.125 64.8535C176.5 65.4932 175.643 65.813 174.554 65.813C173.578 65.813 172.767 65.5371 172.123 64.9854C171.483 64.4287 171.136 63.6963 171.083 62.7881H172.804C172.872 63.3057 173.058 63.7036 173.36 63.9819C173.663 64.2554 174.059 64.3921 174.547 64.3921C175.094 64.3921 175.519 64.1968 175.821 63.8062C176.129 63.4155 176.283 62.8833 176.283 62.2095C176.283 61.5601 176.114 61.0474 175.777 60.6714C175.44 60.2905 174.977 60.1001 174.386 60.1001C174.063 60.1001 173.79 60.144 173.565 60.2319C173.341 60.3149 173.097 60.481 172.833 60.73L171.412 60.3784Z" fill="white"/>
</g>
</svg>
