<svg width="383" height="181" viewBox="0 0 383 181" fill="none" xmlns="http://www.w3.org/2000/svg">
<rect x="1" y="1" width="381" height="179" rx="9" fill="#7187FB" stroke="#001EBB" stroke-width="2"/>
<path d="M155.357 127.49L155.437 128.554C156.11 127.728 157.021 127.314 158.17 127.314C159.395 127.314 160.235 127.798 160.692 128.765C161.36 127.798 162.312 127.314 163.549 127.314C164.58 127.314 165.348 127.616 165.852 128.22C166.355 128.817 166.607 129.72 166.607 130.927V137H164.059V130.936C164.059 130.396 163.953 130.004 163.742 129.758C163.531 129.506 163.159 129.38 162.626 129.38C161.864 129.38 161.337 129.743 161.044 130.47L161.053 137H158.513V130.944C158.513 130.394 158.404 129.995 158.188 129.749C157.971 129.503 157.602 129.38 157.08 129.38C156.359 129.38 155.838 129.679 155.516 130.276V137H152.976V127.49H155.357ZM174.078 137C173.961 136.771 173.876 136.487 173.823 136.147C173.208 136.833 172.408 137.176 171.424 137.176C170.492 137.176 169.719 136.906 169.104 136.367C168.494 135.828 168.189 135.148 168.189 134.328C168.189 133.32 168.562 132.547 169.306 132.008C170.056 131.469 171.137 131.196 172.549 131.19H173.718V130.646C173.718 130.206 173.604 129.854 173.375 129.591C173.152 129.327 172.798 129.195 172.312 129.195C171.884 129.195 171.547 129.298 171.301 129.503C171.061 129.708 170.94 129.989 170.94 130.347H168.4C168.4 129.796 168.57 129.286 168.91 128.817C169.25 128.349 169.73 127.982 170.352 127.719C170.973 127.449 171.67 127.314 172.443 127.314C173.615 127.314 174.544 127.61 175.229 128.202C175.921 128.788 176.267 129.614 176.267 130.681V134.803C176.272 135.705 176.398 136.388 176.645 136.851V137H174.078ZM171.978 135.233C172.353 135.233 172.698 135.151 173.015 134.987C173.331 134.817 173.565 134.592 173.718 134.311V132.676H172.769C171.497 132.676 170.82 133.115 170.738 133.994L170.729 134.144C170.729 134.46 170.841 134.721 171.063 134.926C171.286 135.131 171.591 135.233 171.978 135.233ZM180.898 137H178.35V127.49H180.898V137ZM178.2 125.029C178.2 124.648 178.326 124.335 178.578 124.089C178.836 123.843 179.185 123.72 179.624 123.72C180.058 123.72 180.403 123.843 180.661 124.089C180.919 124.335 181.048 124.648 181.048 125.029C181.048 125.416 180.916 125.732 180.652 125.979C180.395 126.225 180.052 126.348 179.624 126.348C179.196 126.348 178.851 126.225 178.587 125.979C178.329 125.732 178.2 125.416 178.2 125.029ZM185.337 127.49L185.416 128.589C186.096 127.739 187.007 127.314 188.149 127.314C189.157 127.314 189.907 127.61 190.399 128.202C190.892 128.794 191.144 129.679 191.155 130.856V137H188.615V130.918C188.615 130.379 188.498 129.989 188.264 129.749C188.029 129.503 187.64 129.38 187.095 129.38C186.38 129.38 185.844 129.685 185.486 130.294V137H182.946V127.49H185.337ZM203.082 137C202.965 136.771 202.88 136.487 202.827 136.147C202.212 136.833 201.412 137.176 200.428 137.176C199.496 137.176 198.723 136.906 198.107 136.367C197.498 135.828 197.193 135.148 197.193 134.328C197.193 133.32 197.565 132.547 198.31 132.008C199.06 131.469 200.141 131.196 201.553 131.19H202.722V130.646C202.722 130.206 202.607 129.854 202.379 129.591C202.156 129.327 201.802 129.195 201.315 129.195C200.888 129.195 200.551 129.298 200.305 129.503C200.064 129.708 199.944 129.989 199.944 130.347H197.404C197.404 129.796 197.574 129.286 197.914 128.817C198.254 128.349 198.734 127.982 199.355 127.719C199.977 127.449 200.674 127.314 201.447 127.314C202.619 127.314 203.548 127.61 204.233 128.202C204.925 128.788 205.271 129.614 205.271 130.681V134.803C205.276 135.705 205.402 136.388 205.648 136.851V137H203.082ZM200.981 135.233C201.356 135.233 201.702 135.151 202.019 134.987C202.335 134.817 202.569 134.592 202.722 134.311V132.676H201.772C200.501 132.676 199.824 133.115 199.742 133.994L199.733 134.144C199.733 134.46 199.845 134.721 200.067 134.926C200.29 135.131 200.595 135.233 200.981 135.233ZM210.843 130.329L212.442 127.49H215.158L212.451 132.148L215.272 137H212.548L210.852 134.012L209.164 137H206.431L209.252 132.148L206.554 127.49H209.278L210.843 130.329ZM219.061 137H216.512V127.49H219.061V137ZM216.362 125.029C216.362 124.648 216.488 124.335 216.74 124.089C216.998 123.843 217.347 123.72 217.786 123.72C218.22 123.72 218.565 123.843 218.823 124.089C219.081 124.335 219.21 124.648 219.21 125.029C219.21 125.416 219.078 125.732 218.814 125.979C218.557 126.225 218.214 126.348 217.786 126.348C217.358 126.348 217.013 126.225 216.749 125.979C216.491 125.732 216.362 125.416 216.362 125.029ZM226.312 134.372C226.312 134.062 226.156 133.818 225.846 133.643C225.541 133.461 225.049 133.3 224.369 133.159C222.107 132.685 220.977 131.724 220.977 130.276C220.977 129.433 221.325 128.729 222.022 128.167C222.726 127.599 223.643 127.314 224.773 127.314C225.98 127.314 226.944 127.599 227.665 128.167C228.392 128.735 228.755 129.474 228.755 130.382H226.215C226.215 130.019 226.098 129.72 225.863 129.485C225.629 129.245 225.263 129.125 224.765 129.125C224.337 129.125 224.006 129.222 223.771 129.415C223.537 129.608 223.42 129.854 223.42 130.153C223.42 130.435 223.552 130.663 223.815 130.839C224.085 131.009 224.536 131.158 225.169 131.287C225.802 131.41 226.335 131.551 226.769 131.709C228.11 132.201 228.781 133.054 228.781 134.267C228.781 135.134 228.409 135.837 227.665 136.376C226.921 136.909 225.96 137.176 224.782 137.176C223.985 137.176 223.276 137.035 222.655 136.754C222.04 136.467 221.557 136.077 221.205 135.585C220.854 135.087 220.678 134.551 220.678 133.977H223.086C223.109 134.428 223.276 134.773 223.587 135.014C223.897 135.254 224.313 135.374 224.835 135.374C225.321 135.374 225.688 135.283 225.934 135.102C226.186 134.914 226.312 134.671 226.312 134.372Z" fill="#FFF000"/>
<g filter="url(#filter0_d)">
<path d="M28.0312 19.75C27.5833 19.6979 27.1667 19.6719 26.7812 19.6719C25.7604 19.6719 25.25 20.1068 25.25 20.9766V21.5469H26.9297V23.2031H25.25V30H22.9844V23.2031H21.7266V21.5469H22.9844V20.8906C22.9948 19.9115 23.3021 19.1589 23.9062 18.6328C24.5104 18.1016 25.3646 17.8359 26.4688 17.8359C27.2552 17.8359 28.5312 17.9193 30.2969 18.0859V30H28.0312V19.75ZM36.0703 30.1562C34.8307 30.1562 33.8203 29.776 33.0391 29.0156C32.263 28.2552 31.875 27.2422 31.875 25.9766V25.7578C31.875 24.9089 32.0391 24.151 32.3672 23.4844C32.6953 22.8125 33.1589 22.2969 33.7578 21.9375C34.362 21.5729 35.0495 21.3906 35.8203 21.3906C36.9766 21.3906 37.8854 21.7552 38.5469 22.4844C39.2135 23.2135 39.5469 24.2474 39.5469 25.5859V26.5078H34.1641C34.237 27.0599 34.4557 27.5026 34.8203 27.8359C35.1901 28.1693 35.6562 28.3359 36.2188 28.3359C37.0885 28.3359 37.7682 28.0208 38.2578 27.3906L39.3672 28.6328C39.0286 29.112 38.5703 29.487 37.9922 29.7578C37.4141 30.0234 36.7734 30.1562 36.0703 30.1562ZM35.8125 23.2188C35.3646 23.2188 35 23.3698 34.7188 23.6719C34.4427 23.974 34.2656 24.4062 34.1875 24.9688H37.3281V24.7891C37.3177 24.2891 37.1823 23.9036 36.9219 23.6328C36.6615 23.3568 36.2917 23.2188 35.8125 23.2188ZM44.0547 24.0703L45.4766 21.5469H47.8906L45.4844 25.6875L47.9922 30H45.5703L44.0625 27.3438L42.5625 30H40.1328L42.6406 25.6875L40.2422 21.5469H42.6641L44.0547 24.0703ZM53.3672 26.0391H48.9688V24.2188H53.3672V26.0391ZM54.8281 25.7109C54.8281 24.3932 55.1224 23.3438 55.7109 22.5625C56.3047 21.7812 57.1146 21.3906 58.1406 21.3906C58.9635 21.3906 59.6432 21.6979 60.1797 22.3125V18H62.4453V30H60.4062L60.2969 29.1016C59.7344 29.8047 59.0104 30.1562 58.125 30.1562C57.1302 30.1562 56.3307 29.7656 55.7266 28.9844C55.1276 28.1979 54.8281 27.1068 54.8281 25.7109ZM57.0859 25.875C57.0859 26.6667 57.224 27.2734 57.5 27.6953C57.776 28.1172 58.1771 28.3281 58.7031 28.3281C59.401 28.3281 59.8932 28.0339 60.1797 27.4453V24.1094C59.8984 23.5208 59.4115 23.2266 58.7188 23.2266C57.6302 23.2266 57.0859 24.1094 57.0859 25.875ZM66.5781 30H64.3125V21.5469H66.5781V30ZM64.1797 19.3594C64.1797 19.0208 64.2917 18.7422 64.5156 18.5234C64.7448 18.3047 65.0547 18.1953 65.4453 18.1953C65.8307 18.1953 66.138 18.3047 66.3672 18.5234C66.5964 18.7422 66.7109 19.0208 66.7109 19.3594C66.7109 19.7031 66.5938 19.9844 66.3594 20.2031C66.1302 20.4219 65.8255 20.5312 65.4453 20.5312C65.0651 20.5312 64.7578 20.4219 64.5234 20.2031C64.2943 19.9844 64.1797 19.7031 64.1797 19.3594ZM73.1953 23.6641C72.888 23.6224 72.6172 23.6016 72.3828 23.6016C71.5286 23.6016 70.9688 23.8906 70.7031 24.4688V30H68.4453V21.5469H70.5781L70.6406 22.5547C71.0938 21.7786 71.7214 21.3906 72.5234 21.3906C72.7734 21.3906 73.0078 21.4245 73.2266 21.4922L73.1953 23.6641ZM78.0234 30.1562C76.7839 30.1562 75.7734 29.776 74.9922 29.0156C74.2161 28.2552 73.8281 27.2422 73.8281 25.9766V25.7578C73.8281 24.9089 73.9922 24.151 74.3203 23.4844C74.6484 22.8125 75.112 22.2969 75.7109 21.9375C76.3151 21.5729 77.0026 21.3906 77.7734 21.3906C78.9297 21.3906 79.8385 21.7552 80.5 22.4844C81.1667 23.2135 81.5 24.2474 81.5 25.5859V26.5078H76.1172C76.1901 27.0599 76.4089 27.5026 76.7734 27.8359C77.1432 28.1693 77.6094 28.3359 78.1719 28.3359C79.0417 28.3359 79.7214 28.0208 80.2109 27.3906L81.3203 28.6328C80.9818 29.112 80.5234 29.487 79.9453 29.7578C79.3672 30.0234 78.7266 30.1562 78.0234 30.1562ZM77.7656 23.2188C77.3177 23.2188 76.9531 23.3698 76.6719 23.6719C76.3958 23.974 76.2188 24.4062 76.1406 24.9688H79.2812V24.7891C79.2708 24.2891 79.1354 23.9036 78.875 23.6328C78.6146 23.3568 78.2448 23.2188 77.7656 23.2188ZM86.3047 28.3359C86.7214 28.3359 87.0599 28.2214 87.3203 27.9922C87.5807 27.763 87.7161 27.4583 87.7266 27.0781H89.8438C89.8385 27.651 89.6823 28.1771 89.375 28.6562C89.0677 29.1302 88.6458 29.5 88.1094 29.7656C87.5781 30.026 86.9896 30.1562 86.3438 30.1562C85.1354 30.1562 84.1823 29.7734 83.4844 29.0078C82.7865 28.237 82.4375 27.1745 82.4375 25.8203V25.6719C82.4375 24.3698 82.7839 23.3307 83.4766 22.5547C84.1693 21.7786 85.1198 21.3906 86.3281 21.3906C87.3854 21.3906 88.2318 21.6927 88.8672 22.2969C89.5078 22.8958 89.8333 23.6953 89.8438 24.6953H87.7266C87.7161 24.2578 87.5807 23.9036 87.3203 23.6328C87.0599 23.3568 86.7161 23.2188 86.2891 23.2188C85.763 23.2188 85.3646 23.4115 85.0938 23.7969C84.8281 24.1771 84.6953 24.7969 84.6953 25.6562V25.8906C84.6953 26.7604 84.8281 27.3854 85.0938 27.7656C85.3594 28.1458 85.763 28.3359 86.3047 28.3359ZM93.8359 19.4688V21.5469H95.2812V23.2031H93.8359V27.4219C93.8359 27.7344 93.8958 27.9583 94.0156 28.0938C94.1354 28.2292 94.3646 28.2969 94.7031 28.2969C94.9531 28.2969 95.1745 28.2786 95.3672 28.2422V29.9531C94.9245 30.0885 94.4688 30.1562 94 30.1562C92.4167 30.1562 91.6094 29.3568 91.5781 27.7578V23.2031H90.3438V21.5469H91.5781V19.4688H93.8359ZM98.9219 30H96.6562V21.5469H98.9219V30ZM96.5234 19.3594C96.5234 19.0208 96.6354 18.7422 96.8594 18.5234C97.0885 18.3047 97.3984 18.1953 97.7891 18.1953C98.1745 18.1953 98.4818 18.3047 98.7109 18.5234C98.9401 18.7422 99.0547 19.0208 99.0547 19.3594C99.0547 19.7031 98.9375 19.9844 98.7031 20.2031C98.474 20.4219 98.1693 20.5312 97.7891 20.5312C97.4089 20.5312 97.1016 20.4219 96.8672 20.2031C96.638 19.9844 96.5234 19.7031 96.5234 19.3594ZM100.438 25.6953C100.438 24.8568 100.599 24.1094 100.922 23.4531C101.245 22.7969 101.708 22.2891 102.312 21.9297C102.922 21.5703 103.628 21.3906 104.43 21.3906C105.57 21.3906 106.5 21.7396 107.219 22.4375C107.943 23.1354 108.346 24.0833 108.43 25.2812L108.445 25.8594C108.445 27.1562 108.083 28.1979 107.359 28.9844C106.635 29.7656 105.664 30.1562 104.445 30.1562C103.227 30.1562 102.253 29.7656 101.523 28.9844C100.799 28.2031 100.438 27.1406 100.438 25.7969V25.6953ZM102.695 25.8594C102.695 26.6615 102.846 27.276 103.148 27.7031C103.451 28.125 103.883 28.3359 104.445 28.3359C104.992 28.3359 105.419 28.1276 105.727 27.7109C106.034 27.2891 106.188 26.6172 106.188 25.6953C106.188 24.9089 106.034 24.2995 105.727 23.8672C105.419 23.4349 104.987 23.2188 104.43 23.2188C103.878 23.2188 103.451 23.4349 103.148 23.8672C102.846 24.2943 102.695 24.9583 102.695 25.8594ZM111.914 21.5469L111.984 22.5234C112.589 21.7682 113.398 21.3906 114.414 21.3906C115.31 21.3906 115.977 21.6536 116.414 22.1797C116.852 22.7057 117.076 23.4922 117.086 24.5391V30H114.828V24.5938C114.828 24.1146 114.724 23.7682 114.516 23.5547C114.307 23.3359 113.961 23.2266 113.477 23.2266C112.841 23.2266 112.365 23.4974 112.047 24.0391V30H109.789V21.5469H111.914ZM118.914 28.8906C118.914 28.5312 119.034 28.2396 119.273 28.0156C119.518 27.7917 119.823 27.6797 120.188 27.6797C120.557 27.6797 120.862 27.7917 121.102 28.0156C121.346 28.2396 121.469 28.5312 121.469 28.8906C121.469 29.2448 121.349 29.5339 121.109 29.7578C120.87 29.9766 120.562 30.0859 120.188 30.0859C119.818 30.0859 119.513 29.9766 119.273 29.7578C119.034 29.5339 118.914 29.2448 118.914 28.8906ZM118.914 22.4922C118.914 22.1328 119.034 21.8411 119.273 21.6172C119.518 21.3932 119.823 21.2812 120.188 21.2812C120.557 21.2812 120.862 21.3932 121.102 21.6172C121.346 21.8411 121.469 22.1328 121.469 22.4922C121.469 22.8464 121.349 23.1354 121.109 23.3594C120.87 23.5781 120.562 23.6875 120.188 23.6875C119.818 23.6875 119.513 23.5781 119.273 23.3594C119.034 23.1354 118.914 22.8464 118.914 22.4922ZM132.055 23.6641C131.747 23.6224 131.477 23.6016 131.242 23.6016C130.388 23.6016 129.828 23.8906 129.562 24.4688V30H127.305V21.5469H129.438L129.5 22.5547C129.953 21.7786 130.581 21.3906 131.383 21.3906C131.633 21.3906 131.867 21.4245 132.086 21.4922L132.055 23.6641ZM132.516 25.6953C132.516 24.8568 132.677 24.1094 133 23.4531C133.323 22.7969 133.786 22.2891 134.391 21.9297C135 21.5703 135.706 21.3906 136.508 21.3906C137.648 21.3906 138.578 21.7396 139.297 22.4375C140.021 23.1354 140.424 24.0833 140.508 25.2812L140.523 25.8594C140.523 27.1562 140.161 28.1979 139.438 28.9844C138.714 29.7656 137.742 30.1562 136.523 30.1562C135.305 30.1562 134.331 29.7656 133.602 28.9844C132.878 28.2031 132.516 27.1406 132.516 25.7969V25.6953ZM134.773 25.8594C134.773 26.6615 134.924 27.276 135.227 27.7031C135.529 28.125 135.961 28.3359 136.523 28.3359C137.07 28.3359 137.497 28.1276 137.805 27.7109C138.112 27.2891 138.266 26.6172 138.266 25.6953C138.266 24.9089 138.112 24.2995 137.805 23.8672C137.497 23.4349 137.065 23.2188 136.508 23.2188C135.956 23.2188 135.529 23.4349 135.227 23.8672C134.924 24.2943 134.773 24.9583 134.773 25.8594ZM149.266 26.9297L150.375 21.5469H152.555L150.398 30H148.508L146.906 24.6797L145.305 30H143.422L141.266 21.5469H143.445L144.547 26.9219L146.094 21.5469H147.727L149.266 26.9297ZM153.656 22.4922C153.656 22.1328 153.776 21.8411 154.016 21.6172C154.26 21.3932 154.565 21.2812 154.93 21.2812C155.299 21.2812 155.604 21.3932 155.844 21.6172C156.089 21.8411 156.211 22.1328 156.211 22.4922C156.211 22.8464 156.091 23.1354 155.852 23.3594C155.612 23.5781 155.305 23.6875 154.93 23.6875C154.56 23.6875 154.255 23.5781 154.016 23.3594C153.776 23.1354 153.656 22.8464 153.656 22.4922ZM154.438 32.8516L153.258 32.2344L153.539 31.7266C153.888 31.0911 154.068 30.4583 154.078 29.8281V28.0781H155.984L155.977 29.6406C155.971 30.2188 155.826 30.8021 155.539 31.3906C155.253 31.9792 154.885 32.4661 154.438 32.8516Z" fill="white"/>
<path d="M161.969 25.375C161.969 24.1823 162.128 23.0469 162.445 21.9688C162.763 20.8906 163.232 19.9375 163.852 19.1094C164.471 18.276 165.143 17.6979 165.867 17.375L166.305 18.5938C165.544 19.1562 164.951 20.026 164.523 21.2031C164.096 22.3802 163.883 23.7552 163.883 25.3281V25.5703C163.883 27.1484 164.094 28.5286 164.516 29.7109C164.938 30.8932 165.534 31.776 166.305 32.3594L165.867 33.5547C165.159 33.237 164.497 32.6745 163.883 31.8672C163.273 31.0651 162.807 30.138 162.484 29.0859C162.161 28.0339 161.99 26.9349 161.969 25.7891V25.375ZM167.141 25.7109C167.141 24.3932 167.435 23.3438 168.023 22.5625C168.617 21.7812 169.427 21.3906 170.453 21.3906C171.276 21.3906 171.956 21.6979 172.492 22.3125V18H174.758V30H172.719L172.609 29.1016C172.047 29.8047 171.323 30.1562 170.438 30.1562C169.443 30.1562 168.643 29.7656 168.039 28.9844C167.44 28.1979 167.141 27.1068 167.141 25.7109ZM169.398 25.875C169.398 26.6667 169.536 27.2734 169.812 27.6953C170.089 28.1172 170.49 28.3281 171.016 28.3281C171.714 28.3281 172.206 28.0339 172.492 27.4453V24.1094C172.211 23.5208 171.724 23.2266 171.031 23.2266C169.943 23.2266 169.398 24.1094 169.398 25.875ZM180.398 30.1562C179.159 30.1562 178.148 29.776 177.367 29.0156C176.591 28.2552 176.203 27.2422 176.203 25.9766V25.7578C176.203 24.9089 176.367 24.151 176.695 23.4844C177.023 22.8125 177.487 22.2969 178.086 21.9375C178.69 21.5729 179.378 21.3906 180.148 21.3906C181.305 21.3906 182.214 21.7552 182.875 22.4844C183.542 23.2135 183.875 24.2474 183.875 25.5859V26.5078H178.492C178.565 27.0599 178.784 27.5026 179.148 27.8359C179.518 28.1693 179.984 28.3359 180.547 28.3359C181.417 28.3359 182.096 28.0208 182.586 27.3906L183.695 28.6328C183.357 29.112 182.898 29.487 182.32 29.7578C181.742 30.0234 181.102 30.1562 180.398 30.1562ZM180.141 23.2188C179.693 23.2188 179.328 23.3698 179.047 23.6719C178.771 23.974 178.594 24.4062 178.516 24.9688H181.656V24.7891C181.646 24.2891 181.51 23.9036 181.25 23.6328C180.99 23.3568 180.62 23.2188 180.141 23.2188ZM185.781 30V23.2031H184.523V21.5469H185.781V20.8281C185.781 19.8802 186.052 19.1458 186.594 18.625C187.141 18.099 187.904 17.8359 188.883 17.8359C189.195 17.8359 189.578 17.888 190.031 17.9922L190.008 19.7422C189.82 19.6953 189.591 19.6719 189.32 19.6719C188.471 19.6719 188.047 20.0703 188.047 20.8672V21.5469H189.727V23.2031H188.047V30H185.781ZM195.797 30C195.693 29.7969 195.617 29.5443 195.57 29.2422C195.023 29.8516 194.312 30.1562 193.438 30.1562C192.609 30.1562 191.922 29.9167 191.375 29.4375C190.833 28.9583 190.562 28.3542 190.562 27.625C190.562 26.7292 190.893 26.0417 191.555 25.5625C192.221 25.0833 193.182 24.8411 194.438 24.8359H195.477V24.3516C195.477 23.9609 195.375 23.6484 195.172 23.4141C194.974 23.1797 194.659 23.0625 194.227 23.0625C193.846 23.0625 193.547 23.1536 193.328 23.3359C193.115 23.5182 193.008 23.7682 193.008 24.0859H190.75C190.75 23.5964 190.901 23.1432 191.203 22.7266C191.505 22.3099 191.932 21.9844 192.484 21.75C193.036 21.5104 193.656 21.3906 194.344 21.3906C195.385 21.3906 196.211 21.6536 196.82 22.1797C197.435 22.7005 197.742 23.4349 197.742 24.3828V28.0469C197.747 28.849 197.859 29.4557 198.078 29.8672V30H195.797ZM193.93 28.4297C194.263 28.4297 194.57 28.3568 194.852 28.2109C195.133 28.0599 195.341 27.8594 195.477 27.6094V26.1562H194.633C193.503 26.1562 192.901 26.5469 192.828 27.3281L192.82 27.4609C192.82 27.7422 192.919 27.974 193.117 28.1562C193.315 28.3385 193.586 28.4297 193.93 28.4297ZM204.539 29.1406C203.982 29.8177 203.211 30.1562 202.227 30.1562C201.32 30.1562 200.628 29.8958 200.148 29.375C199.674 28.8542 199.432 28.0911 199.422 27.0859V21.5469H201.68V27.0078C201.68 27.888 202.081 28.3281 202.883 28.3281C203.648 28.3281 204.174 28.0625 204.461 27.5312V21.5469H206.727V30H204.602L204.539 29.1406ZM210.812 30H208.547V18H210.812V30ZM215.383 19.4688V21.5469H216.828V23.2031H215.383V27.4219C215.383 27.7344 215.443 27.9583 215.562 28.0938C215.682 28.2292 215.911 28.2969 216.25 28.2969C216.5 28.2969 216.721 28.2786 216.914 28.2422V29.9531C216.471 30.0885 216.016 30.1562 215.547 30.1562C213.964 30.1562 213.156 29.3568 213.125 27.7578V23.2031H211.891V21.5469H213.125V19.4688H215.383ZM221.977 25.5547C221.977 26.7318 221.807 27.8646 221.469 28.9531C221.13 30.0417 220.643 31.0026 220.008 31.8359C219.372 32.6693 218.693 33.2422 217.969 33.5547L217.531 32.3594C218.271 31.8021 218.854 30.9427 219.281 29.7812C219.708 28.6198 219.93 27.2839 219.945 25.7734V25.3594C219.945 23.8021 219.732 22.4297 219.305 21.2422C218.883 20.0547 218.292 19.1641 217.531 18.5703L217.969 17.375C218.677 17.6823 219.344 18.2396 219.969 19.0469C220.599 19.8542 221.086 20.7943 221.43 21.8672C221.779 22.9401 221.961 24.0521 221.977 25.2031V25.5547Z" fill="#FFF000"/>
</g>
<path d="M5.29289 145.293C4.90237 145.683 4.90237 146.317 5.29289 146.707L11.6569 153.071C12.0474 153.462 12.6805 153.462 13.0711 153.071C13.4616 152.681 13.4616 152.047 13.0711 151.657L7.41421 146L13.0711 140.343C13.4616 139.953 13.4616 139.319 13.0711 138.929C12.6805 138.538 12.0474 138.538 11.6569 138.929L5.29289 145.293ZM378.207 146.707C378.598 146.317 378.598 145.683 378.207 145.293L371.843 138.929C371.453 138.538 370.819 138.538 370.429 138.929C370.038 139.319 370.038 139.953 370.429 140.343L376.086 146L370.429 151.657C370.038 152.047 370.038 152.681 370.429 153.071C370.819 153.462 371.453 153.462 371.843 153.071L378.207 146.707ZM377.5 145H375.503V147H377.5V145ZM373.505 145H369.511V147H373.505V145ZM367.513 145H363.519V147H367.513V145ZM361.522 145H357.527V147H361.522V145ZM355.53 145H351.535V147H355.53V145ZM349.538 145H345.543V147H349.538V145ZM343.546 145H339.551V147H343.546V145ZM337.554 145H333.559V147H337.554V145ZM331.562 145H327.567V147H331.562V145ZM325.57 145H321.575V147H325.57V145ZM319.578 145H315.583V147H319.578V145ZM313.586 145H309.591V147H313.586V145ZM307.594 145H303.599V147H307.594V145ZM301.602 145H297.608V147H301.602V145ZM295.61 145H291.616V147H295.61V145ZM289.618 145H285.624V147H289.618V145ZM283.626 145H279.632V147H283.626V145ZM277.634 145L273.64 145V147L277.634 147V145ZM271.642 145H267.648V147H271.642V145ZM265.651 145H261.656V147H265.651V145ZM259.659 145H255.664V147H259.659V145ZM253.667 145H249.672V147H253.667V145ZM247.675 145H243.68V147H247.675V145ZM241.683 145H237.688V147H241.683V145ZM235.691 145H231.696V147H235.691V145ZM229.699 145H225.704V147H229.699V145ZM223.707 145H219.712V147H223.707V145ZM217.715 145H213.72V147H217.715V145ZM211.723 145H207.728V147H211.723V145ZM205.731 145H201.736V147H205.731V145ZM199.739 145H195.745V147H199.739V145ZM193.747 145H189.753V147H193.747V145ZM187.755 145H183.761V147H187.755V145ZM181.763 145H177.769V147H181.763V145ZM175.771 145H171.777V147H175.771V145ZM169.779 145H165.785V147H169.779V145ZM163.788 145H159.793V147H163.788V145ZM157.796 145H153.801V147H157.796V145ZM151.804 145H147.809V147H151.804V145ZM145.812 145H141.817V147H145.812V145ZM139.82 145H135.825V147H139.82V145ZM133.828 145H129.833V147H133.828V145ZM127.836 145H123.841V147H127.836V145ZM121.844 145H117.849V147H121.844V145ZM115.852 145H111.857V147H115.852V145ZM109.86 145H105.865V147H109.86V145ZM103.868 145H99.8735V147H103.868V145ZM97.8762 145H93.8815V147H97.8762V145ZM91.8842 145H87.8896V147H91.8842V145ZM85.8923 145H81.8976V147H85.8923V145ZM79.9003 145H75.9057V147H79.9003V145ZM73.9084 145H69.9138V147H73.9084V145ZM67.9165 145H63.9218V147H67.9165V145ZM61.9245 145H57.9299V147H61.9245V145ZM55.9325 145H51.9379V147H55.9325V145ZM49.9406 145H45.946V147H49.9406V145ZM43.9487 145H39.954V147H43.9487V145ZM37.9567 145H33.9621V147H37.9567V145ZM31.9648 145H27.9701V147H31.9648V145ZM25.9728 145H21.9782V147H25.9728V145ZM19.9809 145H15.9863V147H19.9809V145ZM13.989 145H9.99433V147H13.989V145ZM7.997 145H6V147H7.997V145Z" fill="#FFF000"/>
<g filter="url(#filter1_d)">
<rect x="20" y="46" width="50" height="50" rx="6" fill="#FFF000"/>
<rect x="21" y="47" width="48" height="48" rx="5" stroke="#001EBB" stroke-width="2"/>
</g>
<path d="M47.126 77.5H44.999V67.2256L41.8613 68.2979V66.4961L46.8535 64.6592H47.126V77.5Z" fill="#001EBB"/>
<g filter="url(#filter2_d)">
<rect x="82" y="46" width="50" height="50" rx="6" fill="#FFF000"/>
<rect x="83" y="47" width="48" height="48" rx="5" stroke="#001EBB" stroke-width="2"/>
</g>
<path d="M111.947 77.5H103.343V76.0322L107.605 71.3828C108.221 70.6973 108.657 70.126 108.915 69.6689C109.179 69.2061 109.311 68.7432 109.311 68.2803C109.311 67.6709 109.138 67.1787 108.792 66.8037C108.452 66.4287 107.992 66.2412 107.412 66.2412C106.721 66.2412 106.185 66.4521 105.804 66.874C105.423 67.2959 105.232 67.873 105.232 68.6055H103.097C103.097 67.8262 103.272 67.126 103.624 66.5049C103.981 65.8779 104.488 65.3916 105.145 65.0459C105.807 64.7002 106.568 64.5273 107.43 64.5273C108.672 64.5273 109.65 64.8408 110.365 65.4678C111.086 66.0889 111.446 66.9502 111.446 68.0518C111.446 68.6904 111.265 69.3613 110.901 70.0645C110.544 70.7617 109.955 71.5557 109.135 72.4463L106.006 75.7949H111.947V77.5Z" fill="#001EBB"/>
<g filter="url(#filter3_d)">
<rect x="144" y="46" width="50" height="50" rx="6" fill="#FFF000"/>
<rect x="145" y="47" width="48" height="48" rx="5" stroke="#001EBB" stroke-width="2"/>
</g>
<path d="M167.812 70.126H169.113C169.77 70.1201 170.288 69.9502 170.669 69.6162C171.056 69.2822 171.249 68.7988 171.249 68.166C171.249 67.5566 171.088 67.085 170.766 66.751C170.449 66.4111 169.963 66.2412 169.307 66.2412C168.732 66.2412 168.261 66.4082 167.892 66.7422C167.522 67.0703 167.338 67.501 167.338 68.0342H165.202C165.202 67.3779 165.375 66.7803 165.721 66.2412C166.072 65.7021 166.559 65.2832 167.18 64.9844C167.807 64.6797 168.507 64.5273 169.28 64.5273C170.558 64.5273 171.56 64.8496 172.286 65.4941C173.019 66.1328 173.385 67.0234 173.385 68.166C173.385 68.7402 173.2 69.2822 172.831 69.792C172.468 70.2959 171.996 70.6768 171.416 70.9346C172.119 71.1748 172.652 71.5527 173.016 72.0684C173.385 72.584 173.569 73.1992 173.569 73.9141C173.569 75.0625 173.174 75.9766 172.383 76.6562C171.598 77.3359 170.563 77.6758 169.28 77.6758C168.05 77.6758 167.042 77.3477 166.257 76.6914C165.472 76.0352 165.079 75.1621 165.079 74.0723H167.215C167.215 74.6348 167.402 75.0918 167.777 75.4434C168.158 75.7949 168.668 75.9707 169.307 75.9707C169.969 75.9707 170.49 75.7949 170.871 75.4434C171.252 75.0918 171.442 74.582 171.442 73.9141C171.442 73.2402 171.243 72.7217 170.845 72.3584C170.446 71.9951 169.854 71.8135 169.069 71.8135H167.812V70.126Z" fill="#001EBB"/>
<defs>
<filter id="filter0_d" x="21.7266" y="17.375" width="201.25" height="17.1797" filterUnits="userSpaceOnUse" color-interpolation-filters="sRGB">
<feFlood flood-opacity="0" result="BackgroundImageFix"/>
<feColorMatrix in="SourceAlpha" type="matrix" values="0 0 0 0 0 0 0 0 0 0 0 0 0 0 0 0 0 0 127 0"/>
<feOffset dx="1" dy="1"/>
<feColorMatrix type="matrix" values="0 0 0 0 0 0 0 0 0 0 0 0 0 0 0 0 0 0 0.25 0"/>
<feBlend mode="normal" in2="BackgroundImageFix" result="effect1_dropShadow"/>
<feBlend mode="normal" in="SourceGraphic" in2="effect1_dropShadow" result="shape"/>
</filter>
<filter id="filter1_d" x="20" y="46" width="56" height="56" filterUnits="userSpaceOnUse" color-interpolation-filters="sRGB">
<feFlood flood-opacity="0" result="BackgroundImageFix"/>
<feColorMatrix in="SourceAlpha" type="matrix" values="0 0 0 0 0 0 0 0 0 0 0 0 0 0 0 0 0 0 127 0"/>
<feOffset dx="6" dy="6"/>
<feColorMatrix type="matrix" values="0 0 0 0 0 0 0 0 0 0 0 0 0 0 0 0 0 0 0.15 0"/>
<feBlend mode="normal" in2="BackgroundImageFix" result="effect1_dropShadow"/>
<feBlend mode="normal" in="SourceGraphic" in2="effect1_dropShadow" result="shape"/>
</filter>
<filter id="filter2_d" x="82" y="46" width="56" height="56" filterUnits="userSpaceOnUse" color-interpolation-filters="sRGB">
<feFlood flood-opacity="0" result="BackgroundImageFix"/>
<feColorMatrix in="SourceAlpha" type="matrix" values="0 0 0 0 0 0 0 0 0 0 0 0 0 0 0 0 0 0 127 0"/>
<feOffset dx="6" dy="6"/>
<feColorMatrix type="matrix" values="0 0 0 0 0 0 0 0 0 0 0 0 0 0 0 0 0 0 0.15 0"/>
<feBlend mode="normal" in2="BackgroundImageFix" result="effect1_dropShadow"/>
<feBlend mode="normal" in="SourceGraphic" in2="effect1_dropShadow" result="shape"/>
</filter>
<filter id="filter3_d" x="144" y="46" width="56" height="56" filterUnits="userSpaceOnUse" color-interpolation-filters="sRGB">
<feFlood flood-opacity="0" result="BackgroundImageFix"/>
<feColorMatrix in="SourceAlpha" type="matrix" values="0 0 0 0 0 0 0 0 0 0 0 0 0 0 0 0 0 0 127 0"/>
<feOffset dx="6" dy="6"/>
<feColorMatrix type="matrix" values="0 0 0 0 0 0 0 0 0 0 0 0 0 0 0 0 0 0 0.15 0"/>
<feBlend mode="normal" in2="BackgroundImageFix" result="effect1_dropShadow"/>
<feBlend mode="normal" in="SourceGraphic" in2="effect1_dropShadow" result="shape"/>
</filter>
</defs>
</svg>
