<svg width="504" height="166" viewBox="0 0 504 166" fill="none" xmlns="http://www.w3.org/2000/svg">
<rect x="1" y="27" width="502" height="138" rx="5" fill="#F7F7F7" stroke="#AAAAAA" stroke-width="2" stroke-dasharray="6 4"/>
<path d="M5.63965 3.81934C5.1748 3.75553 4.77376 3.72363 4.43652 3.72363C3.54329 3.72363 3.09668 4.1429 3.09668 4.98145V5.60352H4.60059V6.83398H3.09668V13H1.43555V6.83398H0.307617V5.60352H1.43555V4.94043C1.4401 4.10645 1.6862 3.46842 2.17383 3.02637C2.66602 2.57975 3.35872 2.35645 4.25195 2.35645C4.80794 2.35645 5.82422 2.46582 7.30078 2.68457V13H5.63965V3.81934ZM12.3936 13.1367C11.3408 13.1367 10.4863 12.8063 9.83008 12.1455C9.17839 11.4801 8.85254 10.596 8.85254 9.49316V9.28809C8.85254 8.5498 8.99382 7.89128 9.27637 7.3125C9.56348 6.72917 9.96452 6.27572 10.4795 5.95215C10.9945 5.62858 11.5687 5.4668 12.2021 5.4668C13.2093 5.4668 13.9863 5.78809 14.5332 6.43066C15.0846 7.07324 15.3604 7.98242 15.3604 9.1582V9.82812H10.5273C10.5775 10.4388 10.7803 10.9219 11.1357 11.2773C11.4958 11.6328 11.9469 11.8105 12.4893 11.8105C13.2503 11.8105 13.8701 11.5029 14.3486 10.8877L15.2441 11.7422C14.9479 12.1842 14.5514 12.5283 14.0547 12.7744C13.5625 13.016 13.0088 13.1367 12.3936 13.1367ZM12.1953 6.7998C11.7396 6.7998 11.3704 6.95931 11.0879 7.27832C10.8099 7.59733 10.6322 8.04167 10.5547 8.61133H13.7197V8.48828C13.6833 7.93229 13.5352 7.51302 13.2754 7.23047C13.0156 6.94336 12.6556 6.7998 12.1953 6.7998ZM19.3115 8.03711L20.7197 5.60352H22.5654L20.3027 9.24707L22.6406 13H20.8086L19.332 10.4707L17.8623 13H16.0166L18.3545 9.24707L16.0986 5.60352H17.9307L19.3115 8.03711ZM30.2217 11.8105C30.6364 11.8105 30.9805 11.6898 31.2539 11.4482C31.5273 11.2067 31.6732 10.9082 31.6914 10.5527H33.2568C33.2386 11.013 33.0951 11.4437 32.8262 11.8447C32.5573 12.2412 32.1927 12.5557 31.7324 12.7881C31.2721 13.0205 30.7754 13.1367 30.2422 13.1367C29.2077 13.1367 28.3874 12.8018 27.7812 12.1318C27.1751 11.4619 26.8721 10.5368 26.8721 9.35645V9.18555C26.8721 8.0599 27.1729 7.15983 27.7744 6.48535C28.376 5.80632 29.1963 5.4668 30.2354 5.4668C31.1149 5.4668 31.8304 5.72428 32.3818 6.23926C32.9378 6.74967 33.2295 7.42188 33.2568 8.25586H31.6914C31.6732 7.83203 31.5273 7.4834 31.2539 7.20996C30.985 6.93652 30.641 6.7998 30.2217 6.7998C29.6839 6.7998 29.2692 6.99577 28.9775 7.3877C28.6859 7.77507 28.5378 8.36523 28.5332 9.1582V9.4248C28.5332 10.2269 28.6768 10.8262 28.9639 11.2227C29.2555 11.6146 29.6748 11.8105 30.2217 11.8105ZM34.2002 9.2334C34.2002 8.50879 34.3438 7.8571 34.6309 7.27832C34.918 6.69499 35.3213 6.24837 35.8408 5.93848C36.3604 5.62402 36.9574 5.4668 37.6318 5.4668C38.6299 5.4668 39.4388 5.78809 40.0586 6.43066C40.6829 7.07324 41.0202 7.92546 41.0703 8.9873L41.0771 9.37695C41.0771 10.1061 40.9359 10.7578 40.6533 11.332C40.3753 11.9062 39.9743 12.3506 39.4502 12.665C38.9307 12.9795 38.3291 13.1367 37.6455 13.1367C36.6019 13.1367 35.7656 12.7904 35.1367 12.0977C34.5124 11.4004 34.2002 10.473 34.2002 9.31543V9.2334ZM35.8613 9.37695C35.8613 10.138 36.0186 10.735 36.333 11.168C36.6475 11.5964 37.085 11.8105 37.6455 11.8105C38.2061 11.8105 38.6413 11.5918 38.9512 11.1543C39.2656 10.7168 39.4229 10.0765 39.4229 9.2334C39.4229 8.486 39.2611 7.89355 38.9375 7.45605C38.6185 7.01855 38.1833 6.7998 37.6318 6.7998C37.0895 6.7998 36.6589 7.01628 36.3398 7.44922C36.0208 7.8776 35.8613 8.52018 35.8613 9.37695ZM44.0234 5.60352L44.0713 6.45801C44.6182 5.7972 45.3359 5.4668 46.2246 5.4668C47.765 5.4668 48.5488 6.34863 48.5762 8.1123V13H46.915V8.20801C46.915 7.73861 46.8125 7.39225 46.6074 7.16895C46.4069 6.94108 46.0765 6.82715 45.6162 6.82715C44.9463 6.82715 44.4473 7.13021 44.1191 7.73633V13H42.458V5.60352H44.0234ZM52.3564 3.80566V5.60352H53.6621V6.83398H52.3564V10.9629C52.3564 11.2454 52.4111 11.4505 52.5205 11.5781C52.6344 11.7012 52.835 11.7627 53.1221 11.7627C53.3135 11.7627 53.5072 11.7399 53.7031 11.6943V12.9795C53.3249 13.0843 52.9603 13.1367 52.6094 13.1367C51.3333 13.1367 50.6953 12.4326 50.6953 11.0244V6.83398H49.4785V5.60352H50.6953V3.80566H52.3564ZM59.3564 13C59.2835 12.8587 59.2197 12.6286 59.165 12.3096C58.6364 12.861 57.9893 13.1367 57.2236 13.1367C56.4808 13.1367 55.8747 12.9248 55.4053 12.501C54.9359 12.0771 54.7012 11.5531 54.7012 10.9287C54.7012 10.1403 54.9928 9.53646 55.5762 9.11719C56.1641 8.69336 57.0026 8.48145 58.0918 8.48145H59.1104V7.99609C59.1104 7.61328 59.0033 7.30794 58.7891 7.08008C58.5749 6.84766 58.249 6.73145 57.8115 6.73145C57.4333 6.73145 57.1234 6.82715 56.8818 7.01855C56.6403 7.2054 56.5195 7.44466 56.5195 7.73633H54.8584C54.8584 7.33073 54.9928 6.95247 55.2617 6.60156C55.5306 6.24609 55.8952 5.9681 56.3555 5.76758C56.8203 5.56706 57.3376 5.4668 57.9072 5.4668C58.7731 5.4668 59.4635 5.68555 59.9785 6.12305C60.4935 6.55599 60.7578 7.16667 60.7715 7.95508V11.291C60.7715 11.9564 60.8649 12.4873 61.0518 12.8838V13H59.3564ZM57.5312 11.8037C57.8594 11.8037 58.167 11.724 58.4541 11.5645C58.7458 11.4049 58.9645 11.1908 59.1104 10.9219V9.52734H58.2148C57.5996 9.52734 57.137 9.63444 56.8271 9.84863C56.5173 10.0628 56.3623 10.3659 56.3623 10.7578C56.3623 11.0768 56.4671 11.332 56.6768 11.5234C56.891 11.7103 57.1758 11.8037 57.5312 11.8037ZM64.2783 13H62.6172V5.60352H64.2783V13ZM62.5146 3.68262C62.5146 3.42741 62.5944 3.21549 62.7539 3.04688C62.918 2.87826 63.1504 2.79395 63.4512 2.79395C63.752 2.79395 63.9844 2.87826 64.1484 3.04688C64.3125 3.21549 64.3945 3.42741 64.3945 3.68262C64.3945 3.93327 64.3125 4.1429 64.1484 4.31152C63.9844 4.47559 63.752 4.55762 63.4512 4.55762C63.1504 4.55762 62.918 4.47559 62.7539 4.31152C62.5944 4.1429 62.5146 3.93327 62.5146 3.68262ZM67.6348 5.60352L67.6826 6.45801C68.2295 5.7972 68.9473 5.4668 69.8359 5.4668C71.3763 5.4668 72.1602 6.34863 72.1875 8.1123V13H70.5264V8.20801C70.5264 7.73861 70.4238 7.39225 70.2188 7.16895C70.0182 6.94108 69.6878 6.82715 69.2275 6.82715C68.5576 6.82715 68.0586 7.13021 67.7305 7.73633V13H66.0693V5.60352H67.6348ZM77.1436 13.1367C76.0908 13.1367 75.2363 12.8063 74.5801 12.1455C73.9284 11.4801 73.6025 10.596 73.6025 9.49316V9.28809C73.6025 8.5498 73.7438 7.89128 74.0264 7.3125C74.3135 6.72917 74.7145 6.27572 75.2295 5.95215C75.7445 5.62858 76.3187 5.4668 76.9521 5.4668C77.9593 5.4668 78.7363 5.78809 79.2832 6.43066C79.8346 7.07324 80.1104 7.98242 80.1104 9.1582V9.82812H75.2773C75.3275 10.4388 75.5303 10.9219 75.8857 11.2773C76.2458 11.6328 76.6969 11.8105 77.2393 11.8105C78.0003 11.8105 78.6201 11.5029 79.0986 10.8877L79.9941 11.7422C79.6979 12.1842 79.3014 12.5283 78.8047 12.7744C78.3125 13.016 77.7588 13.1367 77.1436 13.1367ZM76.9453 6.7998C76.4896 6.7998 76.1204 6.95931 75.8379 7.27832C75.5599 7.59733 75.3822 8.04167 75.3047 8.61133H78.4697V8.48828C78.4333 7.93229 78.2852 7.51302 78.0254 7.23047C77.7656 6.94336 77.4056 6.7998 76.9453 6.7998ZM85.2783 7.12109C85.0596 7.08464 84.834 7.06641 84.6016 7.06641C83.8405 7.06641 83.3278 7.35807 83.0635 7.94141V13H81.4023V5.60352H82.9883L83.0293 6.43066C83.4303 5.78809 83.9863 5.4668 84.6973 5.4668C84.9342 5.4668 85.1302 5.4987 85.2852 5.5625L85.2783 7.12109Z" fill="#BBBBBB"/>
<g opacity="0.8">
<path d="M10 39C10 37.3431 11.3431 36 13 36H95C96.6569 36 98 37.3431 98 39V93C98 94.6569 96.6569 96 95 96H13C11.3431 96 10 94.6569 10 93V39Z" fill="#1E73FF"/>
<path d="M44.3638 69.7998C44.2856 69.6484 44.2173 69.4019 44.1587 69.0601C43.5923 69.6509 42.8989 69.9463 42.0786 69.9463C41.2827 69.9463 40.6333 69.7192 40.1304 69.2651C39.6274 68.811 39.376 68.2495 39.376 67.5806C39.376 66.7358 39.6885 66.0889 40.3135 65.6396C40.9434 65.1855 41.8418 64.9585 43.0088 64.9585H44.1001V64.4385C44.1001 64.0283 43.9854 63.7012 43.7559 63.457C43.5264 63.208 43.1772 63.0835 42.7085 63.0835C42.3032 63.0835 41.9712 63.186 41.7124 63.3911C41.4536 63.5913 41.3242 63.8477 41.3242 64.1602H39.5444C39.5444 63.7256 39.6885 63.3203 39.9766 62.9443C40.2646 62.5635 40.6553 62.2656 41.1484 62.0508C41.6465 61.8359 42.2007 61.7285 42.811 61.7285C43.7388 61.7285 44.4785 61.9629 45.0303 62.4316C45.582 62.8955 45.8652 63.5498 45.8799 64.3945V67.9688C45.8799 68.6816 45.98 69.2505 46.1802 69.6753V69.7998H44.3638ZM42.4082 68.5181C42.7598 68.5181 43.0894 68.4326 43.397 68.2617C43.7095 68.0908 43.9438 67.8613 44.1001 67.5732V66.0791H43.1406C42.4814 66.0791 41.9858 66.1938 41.6538 66.4233C41.3218 66.6528 41.1558 66.9775 41.1558 67.3975C41.1558 67.7393 41.2681 68.0127 41.4927 68.2178C41.7222 68.418 42.0273 68.5181 42.4082 68.5181ZM52.5449 69.0234C52.0225 69.6387 51.2803 69.9463 50.3184 69.9463C49.459 69.9463 48.8071 69.6948 48.3628 69.1919C47.9233 68.689 47.7036 67.9614 47.7036 67.0093V61.875H49.4834V66.9873C49.4834 67.9932 49.9009 68.4961 50.7358 68.4961C51.6001 68.4961 52.1836 68.186 52.4863 67.5659V61.875H54.2661V69.7998H52.5889L52.5449 69.0234ZM58.3091 59.9487V61.875H59.708V63.1934H58.3091V67.6172C58.3091 67.9199 58.3677 68.1396 58.4849 68.2764C58.6069 68.4082 58.8218 68.4741 59.1294 68.4741C59.3345 68.4741 59.542 68.4497 59.752 68.4009V69.7778C59.3467 69.8901 58.9561 69.9463 58.5801 69.9463C57.2129 69.9463 56.5293 69.1919 56.5293 67.6831V63.1934H55.2256V61.875H56.5293V59.9487H58.3091ZM60.521 65.7642C60.521 64.9878 60.6748 64.2896 60.9824 63.6694C61.29 63.0444 61.7222 62.5659 62.2788 62.2339C62.8354 61.897 63.4751 61.7285 64.1978 61.7285C65.2671 61.7285 66.1338 62.0728 66.7979 62.7612C67.4668 63.4497 67.8281 64.3628 67.8818 65.5005L67.8892 65.918C67.8892 66.6992 67.7378 67.3975 67.4351 68.0127C67.1372 68.6279 66.7075 69.104 66.146 69.4409C65.5894 69.7778 64.9448 69.9463 64.2124 69.9463C63.0942 69.9463 62.1982 69.5752 61.5244 68.833C60.8555 68.0859 60.521 67.0923 60.521 65.8521V65.7642ZM62.3008 65.918C62.3008 66.7334 62.4692 67.373 62.8062 67.8369C63.1431 68.2959 63.6118 68.5254 64.2124 68.5254C64.813 68.5254 65.2793 68.291 65.6113 67.8223C65.9482 67.3535 66.1167 66.6675 66.1167 65.7642C66.1167 64.9634 65.9434 64.3286 65.5967 63.8599C65.2549 63.3911 64.7886 63.1567 64.1978 63.1567C63.6167 63.1567 63.1553 63.3887 62.8135 63.8525C62.4717 64.3115 62.3008 65 62.3008 65.918Z" fill="white"/>
</g>
<g opacity="0.8">
<path d="M109 39C109 37.3431 110.343 36 112 36H194C195.657 36 197 37.3431 197 39V93C197 94.6569 195.657 96 194 96H112C110.343 96 109 94.6569 109 93V39Z" fill="#1E73FF"/>
<path d="M128.695 59.9634C128.197 59.895 127.768 59.8608 127.406 59.8608C126.449 59.8608 125.971 60.3101 125.971 61.2085V61.875H127.582V63.1934H125.971V69.7998H124.191V63.1934H122.982V61.875H124.191V61.1646C124.196 60.271 124.459 59.5874 124.982 59.1138C125.509 58.6353 126.251 58.396 127.208 58.396C127.804 58.396 128.893 58.5132 130.475 58.7476V69.7998H128.695V59.9634ZM135.932 69.9463C134.804 69.9463 133.888 69.5923 133.185 68.8843C132.487 68.1714 132.138 67.2241 132.138 66.0425V65.8228C132.138 65.0317 132.289 64.3262 132.592 63.7061C132.899 63.0811 133.329 62.5952 133.881 62.2485C134.433 61.9019 135.048 61.7285 135.727 61.7285C136.806 61.7285 137.638 62.0728 138.224 62.7612C138.815 63.4497 139.11 64.4238 139.11 65.6836V66.4014H133.932C133.986 67.0557 134.203 67.5732 134.584 67.9541C134.97 68.335 135.453 68.5254 136.034 68.5254C136.85 68.5254 137.514 68.1958 138.026 67.5366L138.986 68.4521C138.668 68.9258 138.244 69.2944 137.711 69.5581C137.184 69.8169 136.591 69.9463 135.932 69.9463ZM135.719 63.1567C135.231 63.1567 134.835 63.3276 134.533 63.6694C134.235 64.0112 134.044 64.4873 133.961 65.0977H137.353V64.9658C137.313 64.3701 137.155 63.9209 136.876 63.6182C136.598 63.3105 136.212 63.1567 135.719 63.1567ZM143.344 64.4824L144.853 61.875H146.83L144.406 65.7788L146.911 69.7998H144.948L143.366 67.0898L141.791 69.7998H139.813L142.318 65.7788L139.901 61.875H141.864L143.344 64.4824ZM151.496 65.9839H147.65V64.5483H151.496V65.9839ZM157.406 67.6465C157.406 67.3291 157.274 67.0874 157.011 66.9214C156.752 66.7554 156.32 66.6089 155.714 66.4819C155.109 66.355 154.604 66.1938 154.198 65.9985C153.31 65.5688 152.865 64.9463 152.865 64.1309C152.865 63.4473 153.153 62.876 153.729 62.417C154.306 61.958 155.038 61.7285 155.927 61.7285C156.874 61.7285 157.638 61.9629 158.219 62.4316C158.805 62.9004 159.098 63.5083 159.098 64.2554H157.318C157.318 63.9136 157.191 63.6304 156.938 63.4058C156.684 63.1763 156.347 63.0615 155.927 63.0615C155.536 63.0615 155.216 63.1519 154.967 63.3325C154.723 63.5132 154.601 63.7549 154.601 64.0576C154.601 64.3311 154.716 64.5435 154.945 64.6948C155.175 64.8462 155.639 65 156.337 65.1562C157.035 65.3076 157.582 65.4907 157.978 65.7056C158.378 65.9155 158.673 66.1694 158.864 66.4673C159.059 66.7651 159.157 67.1265 159.157 67.5513C159.157 68.2642 158.861 68.8428 158.271 69.2871C157.68 69.7266 156.906 69.9463 155.949 69.9463C155.299 69.9463 154.721 69.8291 154.213 69.5947C153.705 69.3604 153.31 69.0381 153.026 68.6279C152.743 68.2178 152.602 67.7759 152.602 67.3022H154.33C154.354 67.7222 154.513 68.0469 154.806 68.2764C155.099 68.501 155.487 68.6133 155.971 68.6133C156.439 68.6133 156.796 68.5254 157.04 68.3496C157.284 68.1689 157.406 67.9346 157.406 67.6465ZM162.943 59.9487V61.875H164.342V63.1934H162.943V67.6172C162.943 67.9199 163.002 68.1396 163.119 68.2764C163.241 68.4082 163.456 68.4741 163.764 68.4741C163.969 68.4741 164.176 68.4497 164.386 68.4009V69.7778C163.981 69.8901 163.59 69.9463 163.214 69.9463C161.847 69.9463 161.164 69.1919 161.164 67.6831V63.1934H159.86V61.875H161.164V59.9487H162.943ZM170.443 69.7998C170.365 69.6484 170.297 69.4019 170.238 69.0601C169.672 69.6509 168.979 69.9463 168.158 69.9463C167.362 69.9463 166.713 69.7192 166.21 69.2651C165.707 68.811 165.456 68.2495 165.456 67.5806C165.456 66.7358 165.768 66.0889 166.393 65.6396C167.023 65.1855 167.921 64.9585 169.088 64.9585H170.18V64.4385C170.18 64.0283 170.065 63.7012 169.835 63.457C169.606 63.208 169.257 63.0835 168.788 63.0835C168.383 63.0835 168.051 63.186 167.792 63.3911C167.533 63.5913 167.404 63.8477 167.404 64.1602H165.624C165.624 63.7256 165.768 63.3203 166.056 62.9443C166.344 62.5635 166.735 62.2656 167.228 62.0508C167.726 61.8359 168.28 61.7285 168.891 61.7285C169.818 61.7285 170.558 61.9629 171.11 62.4316C171.662 62.8955 171.945 63.5498 171.959 64.3945V67.9688C171.959 68.6816 172.06 69.2505 172.26 69.6753V69.7998H170.443ZM168.488 68.5181C168.839 68.5181 169.169 68.4326 169.477 68.2617C169.789 68.0908 170.023 67.8613 170.18 67.5732V66.0791H169.22C168.561 66.0791 168.065 66.1938 167.733 66.4233C167.401 66.6528 167.235 66.9775 167.235 67.3975C167.235 67.7393 167.348 68.0127 167.572 68.2178C167.802 68.418 168.107 68.5181 168.488 68.5181ZM177.973 63.501C177.738 63.4619 177.497 63.4424 177.248 63.4424C176.432 63.4424 175.883 63.7549 175.6 64.3799V69.7998H173.82V61.875H175.519L175.563 62.7612C175.993 62.0728 176.588 61.7285 177.35 61.7285C177.604 61.7285 177.814 61.7627 177.98 61.8311L177.973 63.501ZM181.693 59.9487V61.875H183.092V63.1934H181.693V67.6172C181.693 67.9199 181.752 68.1396 181.869 68.2764C181.991 68.4082 182.206 68.4741 182.514 68.4741C182.719 68.4741 182.926 68.4497 183.136 68.4009V69.7778C182.731 69.8901 182.34 69.9463 181.964 69.9463C180.597 69.9463 179.914 69.1919 179.914 67.6831V63.1934H178.61V61.875H179.914V59.9487H181.693Z" fill="white"/>
</g>
<g opacity="0.8">
<path d="M208 69C208 67.3431 209.343 66 211 66H293C294.657 66 296 67.3431 296 69V123C296 124.657 294.657 126 293 126H211C209.343 126 208 124.657 208 123V69Z" fill="#1E73FF"/>
<path d="M234.976 98.5254C235.42 98.5254 235.789 98.396 236.082 98.1372C236.375 97.8784 236.531 97.5586 236.55 97.1777H238.228C238.208 97.6709 238.054 98.1323 237.766 98.562C237.478 98.9868 237.087 99.3237 236.594 99.5728C236.101 99.8218 235.569 99.9463 234.998 99.9463C233.889 99.9463 233.01 99.5874 232.361 98.8696C231.711 98.1519 231.387 97.1606 231.387 95.896V95.7129C231.387 94.5068 231.709 93.5425 232.354 92.8198C232.998 92.0923 233.877 91.7285 234.99 91.7285C235.933 91.7285 236.699 92.0044 237.29 92.5562C237.886 93.103 238.198 93.8232 238.228 94.7168H236.55C236.531 94.2627 236.375 93.8892 236.082 93.5962C235.793 93.3032 235.425 93.1567 234.976 93.1567C234.399 93.1567 233.955 93.3667 233.643 93.7866C233.33 94.2017 233.171 94.834 233.167 95.6836V95.9692C233.167 96.8286 233.32 97.4707 233.628 97.8955C233.94 98.3154 234.39 98.5254 234.976 98.5254ZM243.062 99.9463C241.934 99.9463 241.018 99.5923 240.315 98.8843C239.617 98.1714 239.268 97.2241 239.268 96.0425V95.8228C239.268 95.0317 239.419 94.3262 239.722 93.7061C240.029 93.0811 240.459 92.5952 241.011 92.2485C241.562 91.9019 242.178 91.7285 242.856 91.7285C243.936 91.7285 244.768 92.0728 245.354 92.7612C245.945 93.4497 246.24 94.4238 246.24 95.6836V96.4014H241.062C241.116 97.0557 241.333 97.5732 241.714 97.9541C242.1 98.335 242.583 98.5254 243.164 98.5254C243.979 98.5254 244.644 98.1958 245.156 97.5366L246.116 98.4521C245.798 98.9258 245.374 99.2944 244.841 99.5581C244.314 99.8169 243.721 99.9463 243.062 99.9463ZM242.849 93.1567C242.361 93.1567 241.965 93.3276 241.663 93.6694C241.365 94.0112 241.174 94.4873 241.091 95.0977H244.482V94.9658C244.443 94.3701 244.285 93.9209 244.006 93.6182C243.728 93.3105 243.342 93.1567 242.849 93.1567ZM249.28 91.875L249.331 92.7905C249.917 92.0825 250.686 91.7285 251.638 91.7285C253.289 91.7285 254.128 92.6733 254.158 94.563V99.7998H252.378V94.6655C252.378 94.1626 252.268 93.7915 252.048 93.5522C251.833 93.3081 251.479 93.186 250.986 93.186C250.269 93.186 249.734 93.5107 249.382 94.1602V99.7998H247.603V91.875H249.28ZM258.208 89.9487V91.875H259.607V93.1934H258.208V97.6172C258.208 97.9199 258.267 98.1396 258.384 98.2764C258.506 98.4082 258.721 98.4741 259.028 98.4741C259.233 98.4741 259.441 98.4497 259.651 98.4009V99.7778C259.246 99.8901 258.855 99.9463 258.479 99.9463C257.112 99.9463 256.428 99.1919 256.428 97.6831V93.1934H255.125V91.875H256.428V89.9487H258.208ZM264.463 99.9463C263.335 99.9463 262.419 99.5923 261.716 98.8843C261.018 98.1714 260.669 97.2241 260.669 96.0425V95.8228C260.669 95.0317 260.82 94.3262 261.123 93.7061C261.431 93.0811 261.86 92.5952 262.412 92.2485C262.964 91.9019 263.579 91.7285 264.258 91.7285C265.337 91.7285 266.169 92.0728 266.755 92.7612C267.346 93.4497 267.642 94.4238 267.642 95.6836V96.4014H262.463C262.517 97.0557 262.734 97.5732 263.115 97.9541C263.501 98.335 263.984 98.5254 264.565 98.5254C265.381 98.5254 266.045 98.1958 266.558 97.5366L267.517 98.4521C267.2 98.9258 266.775 99.2944 266.243 99.5581C265.715 99.8169 265.122 99.9463 264.463 99.9463ZM264.25 93.1567C263.762 93.1567 263.367 93.3276 263.064 93.6694C262.766 94.0112 262.576 94.4873 262.493 95.0977H265.884V94.9658C265.845 94.3701 265.686 93.9209 265.408 93.6182C265.129 93.3105 264.744 93.1567 264.25 93.1567ZM273.179 93.501C272.944 93.4619 272.703 93.4424 272.454 93.4424C271.638 93.4424 271.089 93.7549 270.806 94.3799V99.7998H269.026V91.875H270.725L270.769 92.7612C271.199 92.0728 271.794 91.7285 272.556 91.7285C272.81 91.7285 273.02 91.7627 273.186 91.8311L273.179 93.501Z" fill="white"/>
</g>
<g opacity="0.8">
<path d="M307 99C307 97.3431 308.343 96 310 96H392C393.657 96 395 97.3431 395 99V153C395 154.657 393.657 156 392 156H310C308.343 156 307 154.657 307 153V99Z" fill="#1E73FF"/>
<path d="M330.006 119.963C329.508 119.895 329.078 119.861 328.717 119.861C327.76 119.861 327.281 120.31 327.281 121.208V121.875H328.893V123.193H327.281V129.8H325.501V123.193H324.293V121.875H325.501V121.165C325.506 120.271 325.77 119.587 326.292 119.114C326.82 118.635 327.562 118.396 328.519 118.396C329.115 118.396 330.204 118.513 331.786 118.748V129.8H330.006V119.963ZM337.242 129.946C336.114 129.946 335.199 129.592 334.496 128.884C333.797 128.171 333.448 127.224 333.448 126.042V125.823C333.448 125.032 333.6 124.326 333.902 123.706C334.21 123.081 334.64 122.595 335.191 122.249C335.743 121.902 336.358 121.729 337.037 121.729C338.116 121.729 338.949 122.073 339.535 122.761C340.125 123.45 340.421 124.424 340.421 125.684V126.401H335.243C335.296 127.056 335.514 127.573 335.895 127.954C336.28 128.335 336.764 128.525 337.345 128.525C338.16 128.525 338.824 128.196 339.337 127.537L340.296 128.452C339.979 128.926 339.554 129.294 339.022 129.558C338.495 129.817 337.901 129.946 337.242 129.946ZM337.03 123.157C336.542 123.157 336.146 123.328 335.843 123.669C335.545 124.011 335.355 124.487 335.272 125.098H338.663V124.966C338.624 124.37 338.465 123.921 338.187 123.618C337.909 123.311 337.523 123.157 337.03 123.157ZM344.654 124.482L346.163 121.875H348.141L345.716 125.779L348.221 129.8H346.258L344.676 127.09L343.102 129.8H341.124L343.629 125.779L341.212 121.875H343.175L344.654 124.482ZM352.806 125.984H348.961V124.548H352.806V125.984ZM357.765 129.946C356.637 129.946 355.721 129.592 355.018 128.884C354.32 128.171 353.971 127.224 353.971 126.042V125.823C353.971 125.032 354.122 124.326 354.425 123.706C354.732 123.081 355.162 122.595 355.714 122.249C356.266 121.902 356.881 121.729 357.56 121.729C358.639 121.729 359.471 122.073 360.057 122.761C360.648 123.45 360.943 124.424 360.943 125.684V126.401H355.765C355.819 127.056 356.036 127.573 356.417 127.954C356.803 128.335 357.286 128.525 357.867 128.525C358.683 128.525 359.347 128.196 359.859 127.537L360.819 128.452C360.501 128.926 360.077 129.294 359.544 129.558C359.017 129.817 358.424 129.946 357.765 129.946ZM357.552 123.157C357.064 123.157 356.668 123.328 356.366 123.669C356.068 124.011 355.877 124.487 355.794 125.098H359.186V124.966C359.146 124.37 358.988 123.921 358.709 123.618C358.431 123.311 358.045 123.157 357.552 123.157ZM363.983 121.875L364.034 122.791C364.62 122.083 365.389 121.729 366.341 121.729C367.992 121.729 368.832 122.673 368.861 124.563V129.8H367.081V124.666C367.081 124.163 366.971 123.792 366.751 123.552C366.537 123.308 366.183 123.186 365.689 123.186C364.972 123.186 364.437 123.511 364.085 124.16V129.8H362.306V121.875H363.983ZM370.348 125.779C370.348 124.558 370.631 123.579 371.197 122.842C371.764 122.1 372.523 121.729 373.475 121.729C374.315 121.729 374.994 122.021 375.511 122.607V118.55H377.291V129.8H375.68L375.592 128.979C375.06 129.624 374.349 129.946 373.46 129.946C372.533 129.946 371.781 129.573 371.205 128.826C370.633 128.079 370.348 127.063 370.348 125.779ZM372.127 125.933C372.127 126.738 372.281 127.368 372.589 127.822C372.901 128.271 373.343 128.496 373.915 128.496C374.642 128.496 375.174 128.171 375.511 127.522V124.138C375.184 123.503 374.657 123.186 373.929 123.186C373.353 123.186 372.909 123.416 372.596 123.875C372.284 124.329 372.127 125.015 372.127 125.933Z" fill="white"/>
</g>
<g opacity="0.8">
<path d="M406 39C406 37.3431 407.343 36 409 36H491C492.657 36 494 37.3431 494 39V153C494 154.657 492.657 156 491 156H409C407.343 156 406 154.657 406 153V39Z" fill="#1E73FF"/>
<path d="M431.399 97.4463C431.399 97.1289 431.267 96.8872 431.003 96.7212C430.745 96.5552 430.312 96.4087 429.707 96.2817C429.102 96.1548 428.596 95.9937 428.191 95.7983C427.302 95.3687 426.858 94.7461 426.858 93.9307C426.858 93.2471 427.146 92.6758 427.722 92.2168C428.298 91.7578 429.031 91.5283 429.919 91.5283C430.867 91.5283 431.631 91.7627 432.212 92.2314C432.798 92.7002 433.091 93.3081 433.091 94.0552H431.311C431.311 93.7134 431.184 93.4302 430.93 93.2056C430.676 92.9761 430.339 92.8613 429.919 92.8613C429.529 92.8613 429.209 92.9517 428.96 93.1323C428.716 93.313 428.594 93.5547 428.594 93.8574C428.594 94.1309 428.708 94.3433 428.938 94.4946C429.167 94.646 429.631 94.7998 430.33 94.9561C431.028 95.1074 431.575 95.2905 431.97 95.5054C432.371 95.7153 432.666 95.9692 432.856 96.2671C433.052 96.5649 433.149 96.9263 433.149 97.3511C433.149 98.064 432.854 98.6426 432.263 99.0869C431.672 99.5264 430.898 99.7461 429.941 99.7461C429.292 99.7461 428.713 99.6289 428.206 99.3945C427.698 99.1602 427.302 98.8379 427.019 98.4277C426.736 98.0176 426.594 97.5757 426.594 97.1021H428.323C428.347 97.522 428.506 97.8467 428.799 98.0762C429.092 98.3008 429.48 98.4131 429.963 98.4131C430.432 98.4131 430.789 98.3252 431.033 98.1494C431.277 97.9688 431.399 97.7344 431.399 97.4463ZM436.936 89.7485V91.6748H438.335V92.9932H436.936V97.417C436.936 97.7197 436.995 97.9395 437.112 98.0762C437.234 98.208 437.449 98.2739 437.756 98.2739C437.961 98.2739 438.169 98.2495 438.379 98.2007V99.5776C437.974 99.6899 437.583 99.7461 437.207 99.7461C435.84 99.7461 435.156 98.9917 435.156 97.4829V92.9932H433.853V91.6748H435.156V89.7485H436.936ZM443.85 93.3008C443.616 93.2617 443.374 93.2422 443.125 93.2422C442.31 93.2422 441.76 93.5547 441.477 94.1797V99.5996H439.697V91.6748H441.396L441.44 92.561C441.87 91.8726 442.466 91.5283 443.228 91.5283C443.481 91.5283 443.691 91.5625 443.857 91.6309L443.85 93.3008ZM448.318 99.7461C447.19 99.7461 446.274 99.3921 445.571 98.6841C444.873 97.9712 444.524 97.0239 444.524 95.8423V95.6226C444.524 94.8315 444.675 94.126 444.978 93.5059C445.286 92.8809 445.715 92.395 446.267 92.0483C446.819 91.7017 447.434 91.5283 448.113 91.5283C449.192 91.5283 450.024 91.8726 450.61 92.561C451.201 93.2495 451.497 94.2236 451.497 95.4834V96.2012H446.318C446.372 96.8555 446.589 97.373 446.97 97.7539C447.356 98.1348 447.839 98.3252 448.42 98.3252C449.236 98.3252 449.9 97.9956 450.413 97.3364L451.372 98.252C451.055 98.7256 450.63 99.0942 450.098 99.3579C449.57 99.6167 448.977 99.7461 448.318 99.7461ZM448.105 92.9565C447.617 92.9565 447.222 93.1274 446.919 93.4692C446.621 93.811 446.431 94.2871 446.348 94.8975H449.739V94.7656C449.7 94.1699 449.541 93.7207 449.263 93.418C448.984 93.1104 448.599 92.9565 448.105 92.9565ZM455.115 89.7485V91.6748H456.514V92.9932H455.115V97.417C455.115 97.7197 455.173 97.9395 455.291 98.0762C455.413 98.208 455.627 98.2739 455.935 98.2739C456.14 98.2739 456.348 98.2495 456.558 98.2007V99.5776C456.152 99.6899 455.762 99.7461 455.386 99.7461C454.019 99.7461 453.335 98.9917 453.335 97.4829V92.9932H452.031V91.6748H453.335V89.7485H455.115ZM461.135 98.3252C461.58 98.3252 461.948 98.1958 462.241 97.937C462.534 97.6782 462.69 97.3584 462.71 96.9775H464.387C464.368 97.4707 464.214 97.9321 463.926 98.3618C463.638 98.7866 463.247 99.1235 462.754 99.3726C462.261 99.6216 461.729 99.7461 461.157 99.7461C460.049 99.7461 459.17 99.3872 458.521 98.6694C457.871 97.9517 457.546 96.9604 457.546 95.6958V95.5127C457.546 94.3066 457.869 93.3423 458.513 92.6196C459.158 91.8921 460.037 91.5283 461.15 91.5283C462.092 91.5283 462.859 91.8042 463.45 92.356C464.045 92.9028 464.358 93.623 464.387 94.5166H462.71C462.69 94.0625 462.534 93.689 462.241 93.396C461.953 93.103 461.584 92.9565 461.135 92.9565C460.559 92.9565 460.115 93.1665 459.802 93.5864C459.49 94.0015 459.331 94.6338 459.326 95.4834V95.769C459.326 96.6284 459.48 97.2705 459.788 97.6953C460.1 98.1152 460.549 98.3252 461.135 98.3252ZM467.485 92.5391C468.066 91.8652 468.801 91.5283 469.69 91.5283C471.379 91.5283 472.236 92.4927 472.261 94.4214V99.5996H470.481V94.4873C470.481 93.9404 470.361 93.5547 470.122 93.3301C469.888 93.1006 469.541 92.9858 469.082 92.9858C468.369 92.9858 467.837 93.3032 467.485 93.938V99.5996H465.706V88.3496H467.485V92.5391Z" fill="white"/>
</g>
</svg>
