<svg width="519" height="130" viewBox="0 0 519 130" fill="none" xmlns="http://www.w3.org/2000/svg">
<rect x="1" y="1" width="517" height="128" rx="9" fill="#7187FB" stroke="#001EBB" stroke-width="2"/>
<g filter="url(#filter0_d)">
<rect x="25" y="25" width="80" height="80" rx="6" fill="#FFF000"/>
<rect x="26" y="26" width="78" height="78" rx="5" stroke="#001EBB" stroke-width="2"/>
</g>
<path d="M58.0645 49.1963C57.4668 49.1143 56.9512 49.0732 56.5176 49.0732C55.3691 49.0732 54.7949 49.6123 54.7949 50.6904V51.4902H56.7285V53.0723H54.7949V61H52.6592V53.0723H51.209V51.4902H52.6592V50.6377C52.665 49.5654 52.9814 48.7451 53.6084 48.1768C54.2412 47.6025 55.1318 47.3154 56.2803 47.3154C56.9951 47.3154 58.3018 47.4561 60.2002 47.7373V61H58.0645V49.1963ZM66.748 61.1758C65.3945 61.1758 64.2959 60.751 63.4521 59.9014C62.6143 59.0459 62.1953 57.9092 62.1953 56.4912V56.2275C62.1953 55.2783 62.377 54.4316 62.7402 53.6875C63.1094 52.9375 63.625 52.3545 64.2871 51.9385C64.9492 51.5225 65.6875 51.3145 66.502 51.3145C67.7969 51.3145 68.7959 51.7275 69.499 52.5537C70.208 53.3799 70.5625 54.5488 70.5625 56.0605V56.9219H64.3486C64.4131 57.707 64.6738 58.3281 65.1309 58.7852C65.5938 59.2422 66.1738 59.4707 66.8711 59.4707C67.8496 59.4707 68.6465 59.0752 69.2617 58.2842L70.4131 59.3828C70.0322 59.9512 69.5225 60.3936 68.8838 60.71C68.251 61.0205 67.5391 61.1758 66.748 61.1758ZM66.4932 53.0283C65.9072 53.0283 65.4326 53.2334 65.0693 53.6436C64.7119 54.0537 64.4834 54.625 64.3838 55.3574H68.4531V55.1992C68.4062 54.4844 68.2158 53.9453 67.8818 53.582C67.5479 53.2129 67.085 53.0283 66.4932 53.0283ZM75.6426 54.6191L77.4531 51.4902H79.8262L76.917 56.1748L79.9229 61H77.5674L75.6689 57.748L73.7793 61H71.4062L74.4121 56.1748L71.5117 51.4902H73.8672L75.6426 54.6191ZM46.252 82H44.1162V72.4902H46.252V82ZM43.9844 70.0205C43.9844 69.6924 44.0869 69.4199 44.292 69.2031C44.5029 68.9863 44.8018 68.8779 45.1885 68.8779C45.5752 68.8779 45.874 68.9863 46.085 69.2031C46.2959 69.4199 46.4014 69.6924 46.4014 70.0205C46.4014 70.3428 46.2959 70.6123 46.085 70.8291C45.874 71.04 45.5752 71.1455 45.1885 71.1455C44.8018 71.1455 44.5029 71.04 44.292 70.8291C44.0869 70.6123 43.9844 70.3428 43.9844 70.0205ZM51.2617 70.1787V72.4902H52.9404V74.0723H51.2617V79.3809C51.2617 79.7441 51.332 80.0078 51.4727 80.1719C51.6191 80.3301 51.877 80.4092 52.2461 80.4092C52.4922 80.4092 52.7412 80.3799 52.9932 80.3213V81.9736C52.5068 82.1084 52.0381 82.1758 51.5869 82.1758C49.9463 82.1758 49.126 81.2705 49.126 79.46V74.0723H47.5615V72.4902H49.126V70.1787H51.2617ZM58.7676 82.1758C57.4141 82.1758 56.3154 81.751 55.4717 80.9014C54.6338 80.0459 54.2148 78.9092 54.2148 77.4912V77.2275C54.2148 76.2783 54.3965 75.4316 54.7598 74.6875C55.1289 73.9375 55.6445 73.3545 56.3066 72.9385C56.9688 72.5225 57.707 72.3145 58.5215 72.3145C59.8164 72.3145 60.8154 72.7275 61.5186 73.5537C62.2275 74.3799 62.582 75.5488 62.582 77.0605V77.9219H56.3682C56.4326 78.707 56.6934 79.3281 57.1504 79.7852C57.6133 80.2422 58.1934 80.4707 58.8906 80.4707C59.8691 80.4707 60.666 80.0752 61.2812 79.2842L62.4326 80.3828C62.0518 80.9512 61.542 81.3936 60.9033 81.71C60.2705 82.0205 59.5586 82.1758 58.7676 82.1758ZM58.5127 74.0283C57.9268 74.0283 57.4521 74.2334 57.0889 74.6436C56.7314 75.0537 56.5029 75.625 56.4033 76.3574H60.4727V76.1992C60.4258 75.4844 60.2354 74.9453 59.9014 74.582C59.5674 74.2129 59.1045 74.0283 58.5127 74.0283ZM66.2559 72.4902L66.3174 73.4834C66.9854 72.7041 67.8994 72.3145 69.0596 72.3145C70.3311 72.3145 71.2012 72.8008 71.6699 73.7734C72.3613 72.8008 73.334 72.3145 74.5879 72.3145C75.6367 72.3145 76.416 72.6045 76.9258 73.1846C77.4414 73.7646 77.7051 74.6201 77.7168 75.751V82H75.5811V75.8125C75.5811 75.209 75.4492 74.7666 75.1855 74.4854C74.9219 74.2041 74.4854 74.0635 73.876 74.0635C73.3896 74.0635 72.9912 74.1953 72.6807 74.459C72.376 74.7168 72.1621 75.0566 72.0391 75.4785L72.0479 82H69.9121V75.7422C69.8828 74.623 69.3115 74.0635 68.1982 74.0635C67.3428 74.0635 66.7363 74.4121 66.3789 75.1094V82H64.2432V72.4902H66.2559ZM85.2402 79.416C85.2402 79.0352 85.082 78.7451 84.7656 78.5459C84.4551 78.3467 83.9365 78.1709 83.21 78.0186C82.4834 77.8662 81.877 77.6729 81.3906 77.4385C80.3242 76.9229 79.791 76.1758 79.791 75.1973C79.791 74.377 80.1367 73.6914 80.8281 73.1406C81.5195 72.5898 82.3984 72.3145 83.4648 72.3145C84.6016 72.3145 85.5186 72.5957 86.2158 73.1582C86.9189 73.7207 87.2705 74.4502 87.2705 75.3467H85.1348C85.1348 74.9365 84.9824 74.5967 84.6777 74.3271C84.373 74.0518 83.9688 73.9141 83.4648 73.9141C82.9961 73.9141 82.6123 74.0225 82.3135 74.2393C82.0205 74.4561 81.874 74.7461 81.874 75.1094C81.874 75.4375 82.0117 75.6924 82.2871 75.874C82.5625 76.0557 83.1191 76.2402 83.957 76.4277C84.7949 76.6094 85.4512 76.8291 85.9258 77.0869C86.4062 77.3389 86.7607 77.6436 86.9893 78.001C87.2236 78.3584 87.3408 78.792 87.3408 79.3018C87.3408 80.1572 86.9863 80.8516 86.2773 81.3848C85.5684 81.9121 84.6396 82.1758 83.4912 82.1758C82.7119 82.1758 82.0176 82.0352 81.4082 81.7539C80.7988 81.4727 80.3242 81.0859 79.9844 80.5938C79.6445 80.1016 79.4746 79.5713 79.4746 79.0029H81.5488C81.5781 79.5068 81.7686 79.8965 82.1201 80.1719C82.4717 80.4414 82.9375 80.5762 83.5176 80.5762C84.0801 80.5762 84.5078 80.4707 84.8008 80.2598C85.0938 80.043 85.2402 79.7617 85.2402 79.416Z" fill="#001EBB"/>
<g filter="url(#filter1_d)">
<rect x="120" y="25" width="80" height="80" rx="6" fill="#FFF000"/>
<rect x="121" y="26" width="78" height="78" rx="5" stroke="#001EBB" stroke-width="2"/>
</g>
<path d="M153.064 49.1963C152.467 49.1143 151.951 49.0732 151.518 49.0732C150.369 49.0732 149.795 49.6123 149.795 50.6904V51.4902H151.729V53.0723H149.795V61H147.659V53.0723H146.209V51.4902H147.659V50.6377C147.665 49.5654 147.981 48.7451 148.608 48.1768C149.241 47.6025 150.132 47.3154 151.28 47.3154C151.995 47.3154 153.302 47.4561 155.2 47.7373V61H153.064V49.1963ZM161.748 61.1758C160.395 61.1758 159.296 60.751 158.452 59.9014C157.614 59.0459 157.195 57.9092 157.195 56.4912V56.2275C157.195 55.2783 157.377 54.4316 157.74 53.6875C158.109 52.9375 158.625 52.3545 159.287 51.9385C159.949 51.5225 160.688 51.3145 161.502 51.3145C162.797 51.3145 163.796 51.7275 164.499 52.5537C165.208 53.3799 165.562 54.5488 165.562 56.0605V56.9219H159.349C159.413 57.707 159.674 58.3281 160.131 58.7852C160.594 59.2422 161.174 59.4707 161.871 59.4707C162.85 59.4707 163.646 59.0752 164.262 58.2842L165.413 59.3828C165.032 59.9512 164.522 60.3936 163.884 60.71C163.251 61.0205 162.539 61.1758 161.748 61.1758ZM161.493 53.0283C160.907 53.0283 160.433 53.2334 160.069 53.6436C159.712 54.0537 159.483 54.625 159.384 55.3574H163.453V55.1992C163.406 54.4844 163.216 53.9453 162.882 53.582C162.548 53.2129 162.085 53.0283 161.493 53.0283ZM170.643 54.6191L172.453 51.4902H174.826L171.917 56.1748L174.923 61H172.567L170.669 57.748L168.779 61H166.406L169.412 56.1748L166.512 51.4902H168.867L170.643 54.6191ZM141.252 82H139.116V72.4902H141.252V82ZM138.984 70.0205C138.984 69.6924 139.087 69.4199 139.292 69.2031C139.503 68.9863 139.802 68.8779 140.188 68.8779C140.575 68.8779 140.874 68.9863 141.085 69.2031C141.296 69.4199 141.401 69.6924 141.401 70.0205C141.401 70.3428 141.296 70.6123 141.085 70.8291C140.874 71.04 140.575 71.1455 140.188 71.1455C139.802 71.1455 139.503 71.04 139.292 70.8291C139.087 70.6123 138.984 70.3428 138.984 70.0205ZM146.262 70.1787V72.4902H147.94V74.0723H146.262V79.3809C146.262 79.7441 146.332 80.0078 146.473 80.1719C146.619 80.3301 146.877 80.4092 147.246 80.4092C147.492 80.4092 147.741 80.3799 147.993 80.3213V81.9736C147.507 82.1084 147.038 82.1758 146.587 82.1758C144.946 82.1758 144.126 81.2705 144.126 79.46V74.0723H142.562V72.4902H144.126V70.1787H146.262ZM153.768 82.1758C152.414 82.1758 151.315 81.751 150.472 80.9014C149.634 80.0459 149.215 78.9092 149.215 77.4912V77.2275C149.215 76.2783 149.396 75.4316 149.76 74.6875C150.129 73.9375 150.645 73.3545 151.307 72.9385C151.969 72.5225 152.707 72.3145 153.521 72.3145C154.816 72.3145 155.815 72.7275 156.519 73.5537C157.228 74.3799 157.582 75.5488 157.582 77.0605V77.9219H151.368C151.433 78.707 151.693 79.3281 152.15 79.7852C152.613 80.2422 153.193 80.4707 153.891 80.4707C154.869 80.4707 155.666 80.0752 156.281 79.2842L157.433 80.3828C157.052 80.9512 156.542 81.3936 155.903 81.71C155.271 82.0205 154.559 82.1758 153.768 82.1758ZM153.513 74.0283C152.927 74.0283 152.452 74.2334 152.089 74.6436C151.731 75.0537 151.503 75.625 151.403 76.3574H155.473V76.1992C155.426 75.4844 155.235 74.9453 154.901 74.582C154.567 74.2129 154.104 74.0283 153.513 74.0283ZM161.256 72.4902L161.317 73.4834C161.985 72.7041 162.899 72.3145 164.06 72.3145C165.331 72.3145 166.201 72.8008 166.67 73.7734C167.361 72.8008 168.334 72.3145 169.588 72.3145C170.637 72.3145 171.416 72.6045 171.926 73.1846C172.441 73.7646 172.705 74.6201 172.717 75.751V82H170.581V75.8125C170.581 75.209 170.449 74.7666 170.186 74.4854C169.922 74.2041 169.485 74.0635 168.876 74.0635C168.39 74.0635 167.991 74.1953 167.681 74.459C167.376 74.7168 167.162 75.0566 167.039 75.4785L167.048 82H164.912V75.7422C164.883 74.623 164.312 74.0635 163.198 74.0635C162.343 74.0635 161.736 74.4121 161.379 75.1094V82H159.243V72.4902H161.256ZM180.24 79.416C180.24 79.0352 180.082 78.7451 179.766 78.5459C179.455 78.3467 178.937 78.1709 178.21 78.0186C177.483 77.8662 176.877 77.6729 176.391 77.4385C175.324 76.9229 174.791 76.1758 174.791 75.1973C174.791 74.377 175.137 73.6914 175.828 73.1406C176.52 72.5898 177.398 72.3145 178.465 72.3145C179.602 72.3145 180.519 72.5957 181.216 73.1582C181.919 73.7207 182.271 74.4502 182.271 75.3467H180.135C180.135 74.9365 179.982 74.5967 179.678 74.3271C179.373 74.0518 178.969 73.9141 178.465 73.9141C177.996 73.9141 177.612 74.0225 177.313 74.2393C177.021 74.4561 176.874 74.7461 176.874 75.1094C176.874 75.4375 177.012 75.6924 177.287 75.874C177.562 76.0557 178.119 76.2402 178.957 76.4277C179.795 76.6094 180.451 76.8291 180.926 77.0869C181.406 77.3389 181.761 77.6436 181.989 78.001C182.224 78.3584 182.341 78.792 182.341 79.3018C182.341 80.1572 181.986 80.8516 181.277 81.3848C180.568 81.9121 179.64 82.1758 178.491 82.1758C177.712 82.1758 177.018 82.0352 176.408 81.7539C175.799 81.4727 175.324 81.0859 174.984 80.5938C174.645 80.1016 174.475 79.5713 174.475 79.0029H176.549C176.578 79.5068 176.769 79.8965 177.12 80.1719C177.472 80.4414 177.938 80.5762 178.518 80.5762C179.08 80.5762 179.508 80.4707 179.801 80.2598C180.094 80.043 180.24 79.7617 180.24 79.416Z" fill="#001EBB"/>
<g filter="url(#filter2_d)">
<rect x="215" y="25" width="80" height="80" rx="6" fill="#FFF000"/>
<rect x="216" y="26" width="78" height="78" rx="5" stroke="#001EBB" stroke-width="2"/>
</g>
<path d="M248.064 49.1963C247.467 49.1143 246.951 49.0732 246.518 49.0732C245.369 49.0732 244.795 49.6123 244.795 50.6904V51.4902H246.729V53.0723H244.795V61H242.659V53.0723H241.209V51.4902H242.659V50.6377C242.665 49.5654 242.981 48.7451 243.608 48.1768C244.241 47.6025 245.132 47.3154 246.28 47.3154C246.995 47.3154 248.302 47.4561 250.2 47.7373V61H248.064V49.1963ZM256.748 61.1758C255.395 61.1758 254.296 60.751 253.452 59.9014C252.614 59.0459 252.195 57.9092 252.195 56.4912V56.2275C252.195 55.2783 252.377 54.4316 252.74 53.6875C253.109 52.9375 253.625 52.3545 254.287 51.9385C254.949 51.5225 255.688 51.3145 256.502 51.3145C257.797 51.3145 258.796 51.7275 259.499 52.5537C260.208 53.3799 260.562 54.5488 260.562 56.0605V56.9219H254.349C254.413 57.707 254.674 58.3281 255.131 58.7852C255.594 59.2422 256.174 59.4707 256.871 59.4707C257.85 59.4707 258.646 59.0752 259.262 58.2842L260.413 59.3828C260.032 59.9512 259.522 60.3936 258.884 60.71C258.251 61.0205 257.539 61.1758 256.748 61.1758ZM256.493 53.0283C255.907 53.0283 255.433 53.2334 255.069 53.6436C254.712 54.0537 254.483 54.625 254.384 55.3574H258.453V55.1992C258.406 54.4844 258.216 53.9453 257.882 53.582C257.548 53.2129 257.085 53.0283 256.493 53.0283ZM265.643 54.6191L267.453 51.4902H269.826L266.917 56.1748L269.923 61H267.567L265.669 57.748L263.779 61H261.406L264.412 56.1748L261.512 51.4902H263.867L265.643 54.6191ZM236.252 82H234.116V72.4902H236.252V82ZM233.984 70.0205C233.984 69.6924 234.087 69.4199 234.292 69.2031C234.503 68.9863 234.802 68.8779 235.188 68.8779C235.575 68.8779 235.874 68.9863 236.085 69.2031C236.296 69.4199 236.401 69.6924 236.401 70.0205C236.401 70.3428 236.296 70.6123 236.085 70.8291C235.874 71.04 235.575 71.1455 235.188 71.1455C234.802 71.1455 234.503 71.04 234.292 70.8291C234.087 70.6123 233.984 70.3428 233.984 70.0205ZM241.262 70.1787V72.4902H242.94V74.0723H241.262V79.3809C241.262 79.7441 241.332 80.0078 241.473 80.1719C241.619 80.3301 241.877 80.4092 242.246 80.4092C242.492 80.4092 242.741 80.3799 242.993 80.3213V81.9736C242.507 82.1084 242.038 82.1758 241.587 82.1758C239.946 82.1758 239.126 81.2705 239.126 79.46V74.0723H237.562V72.4902H239.126V70.1787H241.262ZM248.768 82.1758C247.414 82.1758 246.315 81.751 245.472 80.9014C244.634 80.0459 244.215 78.9092 244.215 77.4912V77.2275C244.215 76.2783 244.396 75.4316 244.76 74.6875C245.129 73.9375 245.645 73.3545 246.307 72.9385C246.969 72.5225 247.707 72.3145 248.521 72.3145C249.816 72.3145 250.815 72.7275 251.519 73.5537C252.228 74.3799 252.582 75.5488 252.582 77.0605V77.9219H246.368C246.433 78.707 246.693 79.3281 247.15 79.7852C247.613 80.2422 248.193 80.4707 248.891 80.4707C249.869 80.4707 250.666 80.0752 251.281 79.2842L252.433 80.3828C252.052 80.9512 251.542 81.3936 250.903 81.71C250.271 82.0205 249.559 82.1758 248.768 82.1758ZM248.513 74.0283C247.927 74.0283 247.452 74.2334 247.089 74.6436C246.731 75.0537 246.503 75.625 246.403 76.3574H250.473V76.1992C250.426 75.4844 250.235 74.9453 249.901 74.582C249.567 74.2129 249.104 74.0283 248.513 74.0283ZM256.256 72.4902L256.317 73.4834C256.985 72.7041 257.899 72.3145 259.06 72.3145C260.331 72.3145 261.201 72.8008 261.67 73.7734C262.361 72.8008 263.334 72.3145 264.588 72.3145C265.637 72.3145 266.416 72.6045 266.926 73.1846C267.441 73.7646 267.705 74.6201 267.717 75.751V82H265.581V75.8125C265.581 75.209 265.449 74.7666 265.186 74.4854C264.922 74.2041 264.485 74.0635 263.876 74.0635C263.39 74.0635 262.991 74.1953 262.681 74.459C262.376 74.7168 262.162 75.0566 262.039 75.4785L262.048 82H259.912V75.7422C259.883 74.623 259.312 74.0635 258.198 74.0635C257.343 74.0635 256.736 74.4121 256.379 75.1094V82H254.243V72.4902H256.256ZM275.24 79.416C275.24 79.0352 275.082 78.7451 274.766 78.5459C274.455 78.3467 273.937 78.1709 273.21 78.0186C272.483 77.8662 271.877 77.6729 271.391 77.4385C270.324 76.9229 269.791 76.1758 269.791 75.1973C269.791 74.377 270.137 73.6914 270.828 73.1406C271.52 72.5898 272.398 72.3145 273.465 72.3145C274.602 72.3145 275.519 72.5957 276.216 73.1582C276.919 73.7207 277.271 74.4502 277.271 75.3467H275.135C275.135 74.9365 274.982 74.5967 274.678 74.3271C274.373 74.0518 273.969 73.9141 273.465 73.9141C272.996 73.9141 272.612 74.0225 272.313 74.2393C272.021 74.4561 271.874 74.7461 271.874 75.1094C271.874 75.4375 272.012 75.6924 272.287 75.874C272.562 76.0557 273.119 76.2402 273.957 76.4277C274.795 76.6094 275.451 76.8291 275.926 77.0869C276.406 77.3389 276.761 77.6436 276.989 78.001C277.224 78.3584 277.341 78.792 277.341 79.3018C277.341 80.1572 276.986 80.8516 276.277 81.3848C275.568 81.9121 274.64 82.1758 273.491 82.1758C272.712 82.1758 272.018 82.0352 271.408 81.7539C270.799 81.4727 270.324 81.0859 269.984 80.5938C269.645 80.1016 269.475 79.5713 269.475 79.0029H271.549C271.578 79.5068 271.769 79.8965 272.12 80.1719C272.472 80.4414 272.938 80.5762 273.518 80.5762C274.08 80.5762 274.508 80.4707 274.801 80.2598C275.094 80.043 275.24 79.7617 275.24 79.416Z" fill="#001EBB"/>
<defs>
<filter id="filter0_d" x="25" y="25" width="86" height="86" filterUnits="userSpaceOnUse" color-interpolation-filters="sRGB">
<feFlood flood-opacity="0" result="BackgroundImageFix"/>
<feColorMatrix in="SourceAlpha" type="matrix" values="0 0 0 0 0 0 0 0 0 0 0 0 0 0 0 0 0 0 127 0"/>
<feOffset dx="6" dy="6"/>
<feColorMatrix type="matrix" values="0 0 0 0 0 0 0 0 0 0 0 0 0 0 0 0 0 0 0.15 0"/>
<feBlend mode="normal" in2="BackgroundImageFix" result="effect1_dropShadow"/>
<feBlend mode="normal" in="SourceGraphic" in2="effect1_dropShadow" result="shape"/>
</filter>
<filter id="filter1_d" x="120" y="25" width="86" height="86" filterUnits="userSpaceOnUse" color-interpolation-filters="sRGB">
<feFlood flood-opacity="0" result="BackgroundImageFix"/>
<feColorMatrix in="SourceAlpha" type="matrix" values="0 0 0 0 0 0 0 0 0 0 0 0 0 0 0 0 0 0 127 0"/>
<feOffset dx="6" dy="6"/>
<feColorMatrix type="matrix" values="0 0 0 0 0 0 0 0 0 0 0 0 0 0 0 0 0 0 0.15 0"/>
<feBlend mode="normal" in2="BackgroundImageFix" result="effect1_dropShadow"/>
<feBlend mode="normal" in="SourceGraphic" in2="effect1_dropShadow" result="shape"/>
</filter>
<filter id="filter2_d" x="215" y="25" width="86" height="86" filterUnits="userSpaceOnUse" color-interpolation-filters="sRGB">
<feFlood flood-opacity="0" result="BackgroundImageFix"/>
<feColorMatrix in="SourceAlpha" type="matrix" values="0 0 0 0 0 0 0 0 0 0 0 0 0 0 0 0 0 0 127 0"/>
<feOffset dx="6" dy="6"/>
<feColorMatrix type="matrix" values="0 0 0 0 0 0 0 0 0 0 0 0 0 0 0 0 0 0 0.15 0"/>
<feBlend mode="normal" in2="BackgroundImageFix" result="effect1_dropShadow"/>
<feBlend mode="normal" in="SourceGraphic" in2="effect1_dropShadow" result="shape"/>
</filter>
</defs>
</svg>
