<svg width="785" height="409" viewBox="0 0 785 409" fill="none" xmlns="http://www.w3.org/2000/svg">
<rect x="13" y="56" width="348" height="108" rx="5" fill="#F7F7F7" stroke="#AAAAAA" stroke-width="2" stroke-dasharray="6 4"/>
<path d="M17.6396 32.8193C17.1748 32.7555 16.7738 32.7236 16.4365 32.7236C15.5433 32.7236 15.0967 33.1429 15.0967 33.9814V34.6035H16.6006V35.834H15.0967V42H13.4355V35.834H12.3076V34.6035H13.4355V33.9404C13.4401 33.1064 13.6862 32.4684 14.1738 32.0264C14.666 31.5798 15.3587 31.3564 16.252 31.3564C16.8079 31.3564 17.8242 31.4658 19.3008 31.6846V42H17.6396V32.8193ZM24.3936 42.1367C23.3408 42.1367 22.4863 41.8063 21.8301 41.1455C21.1784 40.4801 20.8525 39.596 20.8525 38.4932V38.2881C20.8525 37.5498 20.9938 36.8913 21.2764 36.3125C21.5635 35.7292 21.9645 35.2757 22.4795 34.9521C22.9945 34.6286 23.5687 34.4668 24.2021 34.4668C25.2093 34.4668 25.9863 34.7881 26.5332 35.4307C27.0846 36.0732 27.3604 36.9824 27.3604 38.1582V38.8281H22.5273C22.5775 39.4388 22.7803 39.9219 23.1357 40.2773C23.4958 40.6328 23.9469 40.8105 24.4893 40.8105C25.2503 40.8105 25.8701 40.5029 26.3486 39.8877L27.2441 40.7422C26.9479 41.1842 26.5514 41.5283 26.0547 41.7744C25.5625 42.016 25.0088 42.1367 24.3936 42.1367ZM24.1953 35.7998C23.7396 35.7998 23.3704 35.9593 23.0879 36.2783C22.8099 36.5973 22.6322 37.0417 22.5547 37.6113H25.7197V37.4883C25.6833 36.9323 25.5352 36.513 25.2754 36.2305C25.0156 35.9434 24.6556 35.7998 24.1953 35.7998ZM31.3115 37.0371L32.7197 34.6035H34.5654L32.3027 38.2471L34.6406 42H32.8086L31.332 39.4707L29.8623 42H28.0166L30.3545 38.2471L28.0986 34.6035H29.9307L31.3115 37.0371ZM42.2217 40.8105C42.6364 40.8105 42.9805 40.6898 43.2539 40.4482C43.5273 40.2067 43.6732 39.9082 43.6914 39.5527H45.2568C45.2386 40.013 45.0951 40.4437 44.8262 40.8447C44.5573 41.2412 44.1927 41.5557 43.7324 41.7881C43.2721 42.0205 42.7754 42.1367 42.2422 42.1367C41.2077 42.1367 40.3874 41.8018 39.7812 41.1318C39.1751 40.4619 38.8721 39.5368 38.8721 38.3564V38.1855C38.8721 37.0599 39.1729 36.1598 39.7744 35.4854C40.376 34.8063 41.1963 34.4668 42.2354 34.4668C43.1149 34.4668 43.8304 34.7243 44.3818 35.2393C44.9378 35.7497 45.2295 36.4219 45.2568 37.2559H43.6914C43.6732 36.832 43.5273 36.4834 43.2539 36.21C42.985 35.9365 42.641 35.7998 42.2217 35.7998C41.6839 35.7998 41.2692 35.9958 40.9775 36.3877C40.6859 36.7751 40.5378 37.3652 40.5332 38.1582V38.4248C40.5332 39.2269 40.6768 39.8262 40.9639 40.2227C41.2555 40.6146 41.6748 40.8105 42.2217 40.8105ZM46.2002 38.2334C46.2002 37.5088 46.3438 36.8571 46.6309 36.2783C46.918 35.695 47.3213 35.2484 47.8408 34.9385C48.3604 34.624 48.9574 34.4668 49.6318 34.4668C50.6299 34.4668 51.4388 34.7881 52.0586 35.4307C52.6829 36.0732 53.0202 36.9255 53.0703 37.9873L53.0771 38.377C53.0771 39.1061 52.9359 39.7578 52.6533 40.332C52.3753 40.9062 51.9743 41.3506 51.4502 41.665C50.9307 41.9795 50.3291 42.1367 49.6455 42.1367C48.6019 42.1367 47.7656 41.7904 47.1367 41.0977C46.5124 40.4004 46.2002 39.473 46.2002 38.3154V38.2334ZM47.8613 38.377C47.8613 39.138 48.0186 39.735 48.333 40.168C48.6475 40.5964 49.085 40.8105 49.6455 40.8105C50.2061 40.8105 50.6413 40.5918 50.9512 40.1543C51.2656 39.7168 51.4229 39.0765 51.4229 38.2334C51.4229 37.486 51.2611 36.8936 50.9375 36.4561C50.6185 36.0186 50.1833 35.7998 49.6318 35.7998C49.0895 35.7998 48.6589 36.0163 48.3398 36.4492C48.0208 36.8776 47.8613 37.5202 47.8613 38.377ZM56.0234 34.6035L56.0713 35.458C56.6182 34.7972 57.3359 34.4668 58.2246 34.4668C59.765 34.4668 60.5488 35.3486 60.5762 37.1123V42H58.915V37.208C58.915 36.7386 58.8125 36.3923 58.6074 36.1689C58.4069 35.9411 58.0765 35.8271 57.6162 35.8271C56.9463 35.8271 56.4473 36.1302 56.1191 36.7363V42H54.458V34.6035H56.0234ZM64.3564 32.8057V34.6035H65.6621V35.834H64.3564V39.9629C64.3564 40.2454 64.4111 40.4505 64.5205 40.5781C64.6344 40.7012 64.835 40.7627 65.1221 40.7627C65.3135 40.7627 65.5072 40.7399 65.7031 40.6943V41.9795C65.3249 42.0843 64.9603 42.1367 64.6094 42.1367C63.3333 42.1367 62.6953 41.4326 62.6953 40.0244V35.834H61.4785V34.6035H62.6953V32.8057H64.3564ZM71.3564 42C71.2835 41.8587 71.2197 41.6286 71.165 41.3096C70.6364 41.861 69.9893 42.1367 69.2236 42.1367C68.4808 42.1367 67.8747 41.9248 67.4053 41.501C66.9359 41.0771 66.7012 40.5531 66.7012 39.9287C66.7012 39.1403 66.9928 38.5365 67.5762 38.1172C68.1641 37.6934 69.0026 37.4814 70.0918 37.4814H71.1104V36.9961C71.1104 36.6133 71.0033 36.3079 70.7891 36.0801C70.5749 35.8477 70.249 35.7314 69.8115 35.7314C69.4333 35.7314 69.1234 35.8271 68.8818 36.0186C68.6403 36.2054 68.5195 36.4447 68.5195 36.7363H66.8584C66.8584 36.3307 66.9928 35.9525 67.2617 35.6016C67.5306 35.2461 67.8952 34.9681 68.3555 34.7676C68.8203 34.5671 69.3376 34.4668 69.9072 34.4668C70.7731 34.4668 71.4635 34.6855 71.9785 35.123C72.4935 35.556 72.7578 36.1667 72.7715 36.9551V40.291C72.7715 40.9564 72.8649 41.4873 73.0518 41.8838V42H71.3564ZM69.5312 40.8037C69.8594 40.8037 70.167 40.724 70.4541 40.5645C70.7458 40.4049 70.9645 40.1908 71.1104 39.9219V38.5273H70.2148C69.5996 38.5273 69.137 38.6344 68.8271 38.8486C68.5173 39.0628 68.3623 39.3659 68.3623 39.7578C68.3623 40.0768 68.4671 40.332 68.6768 40.5234C68.891 40.7103 69.1758 40.8037 69.5312 40.8037ZM76.2783 42H74.6172V34.6035H76.2783V42ZM74.5146 32.6826C74.5146 32.4274 74.5944 32.2155 74.7539 32.0469C74.918 31.8783 75.1504 31.7939 75.4512 31.7939C75.752 31.7939 75.9844 31.8783 76.1484 32.0469C76.3125 32.2155 76.3945 32.4274 76.3945 32.6826C76.3945 32.9333 76.3125 33.1429 76.1484 33.3115C75.9844 33.4756 75.752 33.5576 75.4512 33.5576C75.1504 33.5576 74.918 33.4756 74.7539 33.3115C74.5944 33.1429 74.5146 32.9333 74.5146 32.6826ZM79.6348 34.6035L79.6826 35.458C80.2295 34.7972 80.9473 34.4668 81.8359 34.4668C83.3763 34.4668 84.1602 35.3486 84.1875 37.1123V42H82.5264V37.208C82.5264 36.7386 82.4238 36.3923 82.2188 36.1689C82.0182 35.9411 81.6878 35.8271 81.2275 35.8271C80.5576 35.8271 80.0586 36.1302 79.7305 36.7363V42H78.0693V34.6035H79.6348ZM89.1436 42.1367C88.0908 42.1367 87.2363 41.8063 86.5801 41.1455C85.9284 40.4801 85.6025 39.596 85.6025 38.4932V38.2881C85.6025 37.5498 85.7438 36.8913 86.0264 36.3125C86.3135 35.7292 86.7145 35.2757 87.2295 34.9521C87.7445 34.6286 88.3187 34.4668 88.9521 34.4668C89.9593 34.4668 90.7363 34.7881 91.2832 35.4307C91.8346 36.0732 92.1104 36.9824 92.1104 38.1582V38.8281H87.2773C87.3275 39.4388 87.5303 39.9219 87.8857 40.2773C88.2458 40.6328 88.6969 40.8105 89.2393 40.8105C90.0003 40.8105 90.6201 40.5029 91.0986 39.8877L91.9941 40.7422C91.6979 41.1842 91.3014 41.5283 90.8047 41.7744C90.3125 42.016 89.7588 42.1367 89.1436 42.1367ZM88.9453 35.7998C88.4896 35.7998 88.1204 35.9593 87.8379 36.2783C87.5599 36.5973 87.3822 37.0417 87.3047 37.6113H90.4697V37.4883C90.4333 36.9323 90.2852 36.513 90.0254 36.2305C89.7656 35.9434 89.4056 35.7998 88.9453 35.7998ZM97.2783 36.1211C97.0596 36.0846 96.834 36.0664 96.6016 36.0664C95.8405 36.0664 95.3278 36.3581 95.0635 36.9414V42H93.4023V34.6035H94.9883L95.0293 35.4307C95.4303 34.7881 95.9863 34.4668 96.6973 34.4668C96.9342 34.4668 97.1302 34.4987 97.2852 34.5625L97.2783 36.1211Z" fill="#BBBBBB"/>
<g opacity="0.8">
<path d="M22 68C22 66.3431 23.3431 65 25 65H77C78.6569 65 80 66.3431 80 68V112C80 113.657 78.6569 115 77 115H25C23.3431 115 22 113.657 22 112V68Z" fill="#1E73FF"/>
<path d="M52.9546 94.6667H51.1821V86.1047L48.5674 86.9983V85.4968L52.7275 83.9661H52.9546V94.6667Z" fill="white"/>
</g>
<g opacity="0.8">
<path d="M90 68C90 66.3431 91.3431 65 93 65H145C146.657 65 148 66.3431 148 68V112C148 113.657 146.657 115 145 115H93C91.3431 115 90 113.657 90 112V68Z" fill="#1E73FF"/>
<path d="M123.306 94.6667H116.135V93.4436L119.688 89.5691C120.2 88.9978 120.564 88.5217 120.779 88.1409C120.999 87.7551 121.108 87.3694 121.108 86.9836C121.108 86.4758 120.964 86.0657 120.676 85.7532C120.393 85.4407 120.01 85.2844 119.526 85.2844C118.95 85.2844 118.503 85.4602 118.186 85.8118C117.869 86.1633 117.71 86.6443 117.71 87.2546H115.93C115.93 86.6052 116.077 86.0217 116.37 85.5042C116.667 84.9817 117.09 84.5764 117.637 84.2883C118.188 84.0002 118.823 83.8562 119.541 83.8562C120.576 83.8562 121.392 84.1174 121.987 84.6399C122.588 85.1575 122.888 85.8752 122.888 86.7932C122.888 87.3254 122.737 87.8845 122.434 88.4705C122.136 89.0515 121.646 89.7131 120.962 90.4553L118.354 93.2458H123.306V94.6667Z" fill="white"/>
</g>
<g opacity="0.8">
<path d="M158 68C158 66.3431 159.343 65 161 65H214C215.657 65 217 66.3431 217 68V112C217 113.657 215.657 115 214 115H161C159.343 115 158 113.657 158 112V68Z" fill="#1E73FF"/>
<path d="M186.644 88.5217H187.728C188.274 88.5168 188.707 88.3752 189.024 88.0969C189.346 87.8186 189.507 87.4158 189.507 86.8884C189.507 86.3806 189.373 85.9875 189.104 85.7092C188.841 85.426 188.436 85.2844 187.889 85.2844C187.41 85.2844 187.017 85.4236 186.709 85.7019C186.402 85.9753 186.248 86.3342 186.248 86.7786H184.468C184.468 86.2317 184.612 85.7336 184.9 85.2844C185.193 84.8352 185.599 84.4861 186.116 84.2371C186.639 83.9832 187.222 83.8562 187.867 83.8562C188.931 83.8562 189.766 84.1248 190.372 84.6619C190.982 85.1941 191.287 85.9363 191.287 86.8884C191.287 87.3669 191.133 87.8186 190.826 88.2434C190.523 88.6633 190.13 88.9807 189.646 89.1956C190.232 89.3958 190.677 89.7107 190.979 90.1404C191.287 90.5701 191.441 91.0828 191.441 91.6785C191.441 92.6355 191.111 93.3972 190.452 93.9636C189.798 94.53 188.936 94.8132 187.867 94.8132C186.841 94.8132 186.001 94.5398 185.347 93.9929C184.693 93.446 184.366 92.7185 184.366 91.8103H186.146C186.146 92.2791 186.302 92.6599 186.614 92.9529C186.932 93.2458 187.356 93.3923 187.889 93.3923C188.44 93.3923 188.875 93.2458 189.192 92.9529C189.51 92.6599 189.668 92.2351 189.668 91.6785C189.668 91.1169 189.502 90.6848 189.17 90.3821C188.838 90.0793 188.345 89.928 187.691 89.928H186.644V88.5217Z" fill="white"/>
</g>
<g opacity="0.8">
<path d="M227 68C227 66.3431 228.343 65 230 65H282C283.657 65 285 66.3431 285 68V112C285 113.657 283.657 115 282 115H230C228.343 115 227 113.657 227 112V68Z" fill="#1E73FF"/>
<path d="M259.156 90.8655H260.481V92.2937H259.156V94.6667H257.376V92.2937H252.769L252.718 91.2097L257.317 84.0027H259.156V90.8655ZM254.585 90.8655H257.376V86.4124L257.244 86.6467L254.585 90.8655Z" fill="white"/>
</g>
<g opacity="0.8">
<path d="M295 68C295 66.3431 296.343 65 298 65H350C351.657 65 353 66.3431 353 68V112C353 113.657 351.657 115 350 115H298C296.343 115 295 113.657 295 112V68Z" fill="#1E73FF"/>
<path d="M321.611 89.3787L322.19 84.0027H327.917V85.5408H323.669L323.376 88.0896C323.87 87.8064 324.426 87.6648 325.046 87.6648C326.062 87.6648 326.851 87.9895 327.412 88.6389C327.979 89.2883 328.262 90.1624 328.262 91.261C328.262 92.345 327.949 93.2092 327.324 93.8538C326.699 94.4934 325.842 94.8132 324.753 94.8132C323.777 94.8132 322.966 94.5374 322.322 93.9856C321.682 93.429 321.335 92.6965 321.282 91.7883H323.003C323.071 92.3059 323.257 92.7039 323.56 92.9822C323.862 93.2556 324.258 93.3923 324.746 93.3923C325.293 93.3923 325.718 93.197 326.021 92.8064C326.328 92.4158 326.482 91.8835 326.482 91.2097C326.482 90.5603 326.313 90.0476 325.977 89.6716C325.64 89.2908 325.176 89.1003 324.585 89.1003C324.263 89.1003 323.989 89.1443 323.765 89.2322C323.54 89.3152 323.296 89.4812 323.032 89.7302L321.611 89.3787Z" fill="white"/>
</g>
<path d="M95.5469 4.50781C95.0156 4.4349 94.5573 4.39844 94.1719 4.39844C93.151 4.39844 92.6406 4.8776 92.6406 5.83594V6.54688H94.3594V7.95312H92.6406V15H90.7422V7.95312H89.4531V6.54688H90.7422V5.78906C90.7474 4.83594 91.0286 4.10677 91.5859 3.60156C92.1484 3.09115 92.9401 2.83594 93.9609 2.83594C94.5964 2.83594 95.7578 2.96094 97.4453 3.21094V15H95.5469V4.50781ZM103.266 15.1562C102.062 15.1562 101.086 14.7786 100.336 14.0234C99.5911 13.263 99.2188 12.2526 99.2188 10.9922V10.7578C99.2188 9.91406 99.3802 9.16146 99.7031 8.5C100.031 7.83333 100.49 7.3151 101.078 6.94531C101.667 6.57552 102.323 6.39062 103.047 6.39062C104.198 6.39062 105.086 6.75781 105.711 7.49219C106.341 8.22656 106.656 9.26562 106.656 10.6094V11.375H101.133C101.19 12.0729 101.422 12.625 101.828 13.0312C102.24 13.4375 102.755 13.6406 103.375 13.6406C104.245 13.6406 104.953 13.2891 105.5 12.5859L106.523 13.5625C106.185 14.0677 105.732 14.4609 105.164 14.7422C104.602 15.0182 103.969 15.1562 103.266 15.1562ZM103.039 7.91406C102.518 7.91406 102.096 8.09635 101.773 8.46094C101.456 8.82552 101.253 9.33333 101.164 9.98438H104.781V9.84375C104.74 9.20833 104.57 8.72917 104.273 8.40625C103.977 8.07812 103.565 7.91406 103.039 7.91406ZM111.172 9.32812L112.781 6.54688H114.891L112.305 10.7109L114.977 15H112.883L111.195 12.1094L109.516 15H107.406L110.078 10.7109L107.5 6.54688H109.594L111.172 9.32812ZM119.867 10.9297H115.766V9.39844H119.867V10.9297ZM128.859 12.3828L130.203 6.54688H132.055L129.75 15H128.188L126.375 9.19531L124.594 15H123.031L120.719 6.54688H122.57L123.938 12.3203L125.672 6.54688H127.102L128.859 12.3828ZM137.75 8.28125C137.5 8.23958 137.242 8.21875 136.977 8.21875C136.107 8.21875 135.521 8.55208 135.219 9.21875V15H133.32V6.54688H135.133L135.18 7.49219C135.638 6.75781 136.273 6.39062 137.086 6.39062C137.357 6.39062 137.581 6.42708 137.758 6.5L137.75 8.28125ZM143.766 15C143.682 14.8385 143.609 14.5755 143.547 14.2109C142.943 14.8411 142.203 15.1562 141.328 15.1562C140.479 15.1562 139.786 14.9141 139.25 14.4297C138.714 13.9453 138.445 13.3464 138.445 12.6328C138.445 11.7318 138.779 11.0417 139.445 10.5625C140.117 10.0781 141.076 9.83594 142.32 9.83594H143.484V9.28125C143.484 8.84375 143.362 8.49479 143.117 8.23438C142.872 7.96875 142.5 7.83594 142 7.83594C141.568 7.83594 141.214 7.94531 140.938 8.16406C140.661 8.3776 140.523 8.65104 140.523 8.98438H138.625C138.625 8.52083 138.779 8.08854 139.086 7.6875C139.393 7.28125 139.81 6.96354 140.336 6.73438C140.867 6.50521 141.458 6.39062 142.109 6.39062C143.099 6.39062 143.888 6.64062 144.477 7.14062C145.065 7.63542 145.367 8.33333 145.383 9.23438V13.0469C145.383 13.8073 145.49 14.4141 145.703 14.8672V15H143.766ZM141.68 13.6328C142.055 13.6328 142.406 13.5417 142.734 13.3594C143.068 13.1771 143.318 12.9323 143.484 12.625V11.0312H142.461C141.758 11.0312 141.229 11.1536 140.875 11.3984C140.521 11.6432 140.344 11.9896 140.344 12.4375C140.344 12.8021 140.464 13.0938 140.703 13.3125C140.948 13.526 141.273 13.6328 141.68 13.6328ZM154.773 10.8594C154.773 12.1667 154.477 13.2109 153.883 13.9922C153.289 14.7682 152.492 15.1562 151.492 15.1562C150.565 15.1562 149.823 14.8516 149.266 14.2422V18.25H147.367V6.54688H149.117L149.195 7.40625C149.753 6.72917 150.51 6.39062 151.469 6.39062C152.5 6.39062 153.307 6.77604 153.891 7.54688C154.479 8.3125 154.773 9.3776 154.773 10.7422V10.8594ZM152.883 10.6953C152.883 9.85156 152.714 9.18229 152.375 8.6875C152.042 8.19271 151.562 7.94531 150.938 7.94531C150.161 7.94531 149.604 8.26562 149.266 8.90625V12.6562C149.609 13.3125 150.172 13.6406 150.953 13.6406C151.557 13.6406 152.029 13.3984 152.367 12.9141C152.711 12.4245 152.883 11.6849 152.883 10.6953ZM157.531 13C157.885 13 158.159 13.1016 158.352 13.3047C158.544 13.5026 158.641 13.7526 158.641 14.0547C158.641 14.3516 158.544 14.599 158.352 14.7969C158.159 14.9896 157.885 15.0859 157.531 15.0859C157.193 15.0859 156.924 14.9896 156.727 14.7969C156.529 14.6042 156.43 14.3568 156.43 14.0547C156.43 13.7526 156.526 13.5026 156.719 13.3047C156.911 13.1016 157.182 13 157.531 13ZM157.531 6.36719C157.885 6.36719 158.159 6.46875 158.352 6.67188C158.544 6.86979 158.641 7.11979 158.641 7.42188C158.641 7.71875 158.544 7.96615 158.352 8.16406C158.159 8.35677 157.885 8.45312 157.531 8.45312C157.193 8.45312 156.924 8.35677 156.727 8.16406C156.529 7.97135 156.43 7.72396 156.43 7.42188C156.43 7.11979 156.526 6.86979 156.719 6.67188C156.911 6.46875 157.182 6.36719 157.531 6.36719ZM218.57 6.36719C218.924 6.36719 219.198 6.46875 219.391 6.67188C219.583 6.86979 219.68 7.11979 219.68 7.42188C219.68 7.71875 219.583 7.96615 219.391 8.16406C219.198 8.35677 218.924 8.45312 218.57 8.45312C218.232 8.45312 217.964 8.35677 217.766 8.16406C217.568 7.97135 217.469 7.72396 217.469 7.42188C217.469 7.11979 217.565 6.86979 217.758 6.67188C217.951 6.46875 218.221 6.36719 218.57 6.36719ZM218 17.5625L216.977 16.9531C217.279 16.4792 217.484 16.0651 217.594 15.7109C217.708 15.362 217.768 15.0052 217.773 14.6406V13.1641H219.484L219.477 14.5312C219.471 15.0833 219.331 15.6354 219.055 16.1875C218.784 16.7448 218.432 17.2031 218 17.5625Z" fill="#444444"/>
<path d="M166.383 6.54688L166.438 7.52344C167.062 6.76823 167.883 6.39062 168.898 6.39062C170.659 6.39062 171.555 7.39844 171.586 9.41406V15H169.688V9.52344C169.688 8.98698 169.57 8.59115 169.336 8.33594C169.107 8.07552 168.729 7.94531 168.203 7.94531C167.438 7.94531 166.867 8.29167 166.492 8.98438V15H164.594V6.54688H166.383ZM173.172 10.6953C173.172 9.86719 173.336 9.1224 173.664 8.46094C173.992 7.79427 174.453 7.28385 175.047 6.92969C175.641 6.57031 176.323 6.39062 177.094 6.39062C178.234 6.39062 179.159 6.75781 179.867 7.49219C180.581 8.22656 180.966 9.20052 181.023 10.4141L181.031 10.8594C181.031 11.6927 180.87 12.4375 180.547 13.0938C180.229 13.75 179.771 14.2578 179.172 14.6172C178.578 14.9766 177.891 15.1562 177.109 15.1562C175.917 15.1562 174.961 14.7604 174.242 13.9688C173.529 13.1719 173.172 12.112 173.172 10.7891V10.6953ZM175.07 10.8594C175.07 11.7292 175.25 12.4115 175.609 12.9062C175.969 13.3958 176.469 13.6406 177.109 13.6406C177.75 13.6406 178.247 13.3906 178.602 12.8906C178.961 12.3906 179.141 11.6589 179.141 10.6953C179.141 9.84115 178.956 9.16406 178.586 8.66406C178.221 8.16406 177.724 7.91406 177.094 7.91406C176.474 7.91406 175.982 8.16146 175.617 8.65625C175.253 9.14583 175.07 9.88021 175.07 10.8594ZM190.062 12.3828L191.406 6.54688H193.258L190.953 15H189.391L187.578 9.19531L185.797 15H184.234L181.922 6.54688H183.773L185.141 12.3203L186.875 6.54688H188.305L190.062 12.3828ZM198.953 8.28125C198.703 8.23958 198.445 8.21875 198.18 8.21875C197.31 8.21875 196.724 8.55208 196.422 9.21875V15H194.523V6.54688H196.336L196.383 7.49219C196.841 6.75781 197.477 6.39062 198.289 6.39062C198.56 6.39062 198.784 6.42708 198.961 6.5L198.953 8.28125ZM204.969 15C204.885 14.8385 204.812 14.5755 204.75 14.2109C204.146 14.8411 203.406 15.1562 202.531 15.1562C201.682 15.1562 200.99 14.9141 200.453 14.4297C199.917 13.9453 199.648 13.3464 199.648 12.6328C199.648 11.7318 199.982 11.0417 200.648 10.5625C201.32 10.0781 202.279 9.83594 203.523 9.83594H204.688V9.28125C204.688 8.84375 204.565 8.49479 204.32 8.23438C204.076 7.96875 203.703 7.83594 203.203 7.83594C202.771 7.83594 202.417 7.94531 202.141 8.16406C201.865 8.3776 201.727 8.65104 201.727 8.98438H199.828C199.828 8.52083 199.982 8.08854 200.289 7.6875C200.596 7.28125 201.013 6.96354 201.539 6.73438C202.07 6.50521 202.661 6.39062 203.312 6.39062C204.302 6.39062 205.091 6.64062 205.68 7.14062C206.268 7.63542 206.57 8.33333 206.586 9.23438V13.0469C206.586 13.8073 206.693 14.4141 206.906 14.8672V15H204.969ZM202.883 13.6328C203.258 13.6328 203.609 13.5417 203.938 13.3594C204.271 13.1771 204.521 12.9323 204.688 12.625V11.0312H203.664C202.961 11.0312 202.432 11.1536 202.078 11.3984C201.724 11.6432 201.547 11.9896 201.547 12.4375C201.547 12.8021 201.667 13.0938 201.906 13.3125C202.151 13.526 202.477 13.6328 202.883 13.6328ZM215.977 10.8594C215.977 12.1667 215.68 13.2109 215.086 13.9922C214.492 14.7682 213.695 15.1562 212.695 15.1562C211.768 15.1562 211.026 14.8516 210.469 14.2422V18.25H208.57V6.54688H210.32L210.398 7.40625C210.956 6.72917 211.714 6.39062 212.672 6.39062C213.703 6.39062 214.51 6.77604 215.094 7.54688C215.682 8.3125 215.977 9.3776 215.977 10.7422V10.8594ZM214.086 10.6953C214.086 9.85156 213.917 9.18229 213.578 8.6875C213.245 8.19271 212.766 7.94531 212.141 7.94531C211.365 7.94531 210.807 8.26562 210.469 8.90625V12.6562C210.812 13.3125 211.375 13.6406 212.156 13.6406C212.76 13.6406 213.232 13.3984 213.57 12.9141C213.914 12.4245 214.086 11.6849 214.086 10.6953Z" fill="#1E73FF"/>
<path d="M225.414 10.375C225.414 9.17188 225.576 8.03125 225.898 6.95312C226.221 5.86979 226.695 4.90365 227.32 4.05469C227.945 3.20052 228.607 2.60156 229.305 2.25781L229.68 3.36719C228.945 3.92448 228.349 4.77604 227.891 5.92188C227.438 7.0625 227.19 8.36979 227.148 9.84375L227.141 10.5156C227.141 12.0938 227.362 13.5026 227.805 14.7422C228.253 15.9766 228.878 16.9167 229.68 17.5625L229.305 18.6172C228.607 18.2734 227.943 17.6719 227.312 16.8125C226.688 15.9583 226.214 14.9948 225.891 13.9219C225.573 12.8438 225.414 11.6615 225.414 10.375ZM230.609 10.7109C230.609 9.40885 230.911 8.36458 231.516 7.57812C232.12 6.78646 232.93 6.39062 233.945 6.39062C234.841 6.39062 235.565 6.70312 236.117 7.32812V3H238.016V15H236.297L236.203 14.125C235.635 14.8125 234.878 15.1562 233.93 15.1562C232.94 15.1562 232.138 14.7578 231.523 13.9609C230.914 13.1641 230.609 12.0807 230.609 10.7109ZM232.508 10.875C232.508 11.7344 232.672 12.4062 233 12.8906C233.333 13.3698 233.805 13.6094 234.414 13.6094C235.19 13.6094 235.758 13.263 236.117 12.5703V8.96094C235.768 8.28385 235.206 7.94531 234.43 7.94531C233.815 7.94531 233.341 8.1901 233.008 8.67969C232.674 9.16406 232.508 9.89583 232.508 10.875ZM243.719 15.1562C242.516 15.1562 241.539 14.7786 240.789 14.0234C240.044 13.263 239.672 12.2526 239.672 10.9922V10.7578C239.672 9.91406 239.833 9.16146 240.156 8.5C240.484 7.83333 240.943 7.3151 241.531 6.94531C242.12 6.57552 242.776 6.39062 243.5 6.39062C244.651 6.39062 245.539 6.75781 246.164 7.49219C246.794 8.22656 247.109 9.26562 247.109 10.6094V11.375H241.586C241.643 12.0729 241.875 12.625 242.281 13.0312C242.693 13.4375 243.208 13.6406 243.828 13.6406C244.698 13.6406 245.406 13.2891 245.953 12.5859L246.977 13.5625C246.638 14.0677 246.185 14.4609 245.617 14.7422C245.055 15.0182 244.422 15.1562 243.719 15.1562ZM243.492 7.91406C242.971 7.91406 242.549 8.09635 242.227 8.46094C241.909 8.82552 241.706 9.33333 241.617 9.98438H245.234V9.84375C245.193 9.20833 245.023 8.72917 244.727 8.40625C244.43 8.07812 244.018 7.91406 243.492 7.91406ZM249.258 15V7.95312H247.969V6.54688H249.258V5.77344C249.258 4.83594 249.518 4.11198 250.039 3.60156C250.56 3.09115 251.289 2.83594 252.227 2.83594C252.56 2.83594 252.914 2.88281 253.289 2.97656L253.242 4.46094C253.034 4.41927 252.792 4.39844 252.516 4.39844C251.609 4.39844 251.156 4.86458 251.156 5.79688V6.54688H252.875V7.95312H251.156V15H249.258ZM259.312 15C259.229 14.8385 259.156 14.5755 259.094 14.2109C258.49 14.8411 257.75 15.1562 256.875 15.1562C256.026 15.1562 255.333 14.9141 254.797 14.4297C254.26 13.9453 253.992 13.3464 253.992 12.6328C253.992 11.7318 254.326 11.0417 254.992 10.5625C255.664 10.0781 256.622 9.83594 257.867 9.83594H259.031V9.28125C259.031 8.84375 258.909 8.49479 258.664 8.23438C258.419 7.96875 258.047 7.83594 257.547 7.83594C257.115 7.83594 256.76 7.94531 256.484 8.16406C256.208 8.3776 256.07 8.65104 256.07 8.98438H254.172C254.172 8.52083 254.326 8.08854 254.633 7.6875C254.94 7.28125 255.357 6.96354 255.883 6.73438C256.414 6.50521 257.005 6.39062 257.656 6.39062C258.646 6.39062 259.435 6.64062 260.023 7.14062C260.612 7.63542 260.914 8.33333 260.93 9.23438V13.0469C260.93 13.8073 261.036 14.4141 261.25 14.8672V15H259.312ZM257.227 13.6328C257.602 13.6328 257.953 13.5417 258.281 13.3594C258.615 13.1771 258.865 12.9323 259.031 12.625V11.0312H258.008C257.305 11.0312 256.776 11.1536 256.422 11.3984C256.068 11.6432 255.891 11.9896 255.891 12.4375C255.891 12.8021 256.01 13.0938 256.25 13.3125C256.495 13.526 256.82 13.6328 257.227 13.6328ZM268.039 14.1719C267.482 14.8281 266.69 15.1562 265.664 15.1562C264.747 15.1562 264.052 14.888 263.578 14.3516C263.109 13.8151 262.875 13.0391 262.875 12.0234V6.54688H264.773V12C264.773 13.0729 265.219 13.6094 266.109 13.6094C267.031 13.6094 267.654 13.2786 267.977 12.6172V6.54688H269.875V15H268.086L268.039 14.1719ZM273.828 15H271.93V3H273.828V15ZM278.281 4.49219V6.54688H279.773V7.95312H278.281V12.6719C278.281 12.9948 278.344 13.2292 278.469 13.375C278.599 13.5156 278.828 13.5859 279.156 13.5859C279.375 13.5859 279.596 13.5599 279.82 13.5078V14.9766C279.388 15.0964 278.971 15.1562 278.57 15.1562C277.112 15.1562 276.383 14.3516 276.383 12.7422V7.95312H274.992V6.54688H276.383V4.49219H278.281ZM284.891 10.5C284.891 11.6562 284.732 12.7734 284.414 13.8516C284.096 14.9245 283.615 15.901 282.969 16.7812C282.323 17.6667 281.648 18.2786 280.945 18.6172L280.57 17.5625C281.352 16.9583 281.969 16.0365 282.422 14.7969C282.88 13.5521 283.109 12.1328 283.109 10.5391V10.3594C283.109 8.91146 282.911 7.59375 282.516 6.40625C282.12 5.21354 281.552 4.25781 280.812 3.53906L280.57 3.32031L280.945 2.25781C281.612 2.58073 282.258 3.15365 282.883 3.97656C283.508 4.79948 283.987 5.72135 284.32 6.74219C284.654 7.75781 284.841 8.80729 284.883 9.89062L284.891 10.5Z" fill="#888888"/>
<rect x="13" y="251" width="348" height="157" rx="5" fill="#F7F7F7" stroke="#AAAAAA" stroke-width="2" stroke-dasharray="6 4"/>
<path d="M17.6396 227.819C17.1748 227.756 16.7738 227.724 16.4365 227.724C15.5433 227.724 15.0967 228.143 15.0967 228.981V229.604H16.6006V230.834H15.0967V237H13.4355V230.834H12.3076V229.604H13.4355V228.94C13.4401 228.106 13.6862 227.468 14.1738 227.026C14.666 226.58 15.3587 226.356 16.252 226.356C16.8079 226.356 17.8242 226.466 19.3008 226.685V237H17.6396V227.819ZM24.3936 237.137C23.3408 237.137 22.4863 236.806 21.8301 236.146C21.1784 235.48 20.8525 234.596 20.8525 233.493V233.288C20.8525 232.55 20.9938 231.891 21.2764 231.312C21.5635 230.729 21.9645 230.276 22.4795 229.952C22.9945 229.629 23.5687 229.467 24.2021 229.467C25.2093 229.467 25.9863 229.788 26.5332 230.431C27.0846 231.073 27.3604 231.982 27.3604 233.158V233.828H22.5273C22.5775 234.439 22.7803 234.922 23.1357 235.277C23.4958 235.633 23.9469 235.811 24.4893 235.811C25.2503 235.811 25.8701 235.503 26.3486 234.888L27.2441 235.742C26.9479 236.184 26.5514 236.528 26.0547 236.774C25.5625 237.016 25.0088 237.137 24.3936 237.137ZM24.1953 230.8C23.7396 230.8 23.3704 230.959 23.0879 231.278C22.8099 231.597 22.6322 232.042 22.5547 232.611H25.7197V232.488C25.6833 231.932 25.5352 231.513 25.2754 231.23C25.0156 230.943 24.6556 230.8 24.1953 230.8ZM31.3115 232.037L32.7197 229.604H34.5654L32.3027 233.247L34.6406 237H32.8086L31.332 234.471L29.8623 237H28.0166L30.3545 233.247L28.0986 229.604H29.9307L31.3115 232.037ZM42.2217 235.811C42.6364 235.811 42.9805 235.69 43.2539 235.448C43.5273 235.207 43.6732 234.908 43.6914 234.553H45.2568C45.2386 235.013 45.0951 235.444 44.8262 235.845C44.5573 236.241 44.1927 236.556 43.7324 236.788C43.2721 237.021 42.7754 237.137 42.2422 237.137C41.2077 237.137 40.3874 236.802 39.7812 236.132C39.1751 235.462 38.8721 234.537 38.8721 233.356V233.186C38.8721 232.06 39.1729 231.16 39.7744 230.485C40.376 229.806 41.1963 229.467 42.2354 229.467C43.1149 229.467 43.8304 229.724 44.3818 230.239C44.9378 230.75 45.2295 231.422 45.2568 232.256H43.6914C43.6732 231.832 43.5273 231.483 43.2539 231.21C42.985 230.937 42.641 230.8 42.2217 230.8C41.6839 230.8 41.2692 230.996 40.9775 231.388C40.6859 231.775 40.5378 232.365 40.5332 233.158V233.425C40.5332 234.227 40.6768 234.826 40.9639 235.223C41.2555 235.615 41.6748 235.811 42.2217 235.811ZM46.2002 233.233C46.2002 232.509 46.3438 231.857 46.6309 231.278C46.918 230.695 47.3213 230.248 47.8408 229.938C48.3604 229.624 48.9574 229.467 49.6318 229.467C50.6299 229.467 51.4388 229.788 52.0586 230.431C52.6829 231.073 53.0202 231.925 53.0703 232.987L53.0771 233.377C53.0771 234.106 52.9359 234.758 52.6533 235.332C52.3753 235.906 51.9743 236.351 51.4502 236.665C50.9307 236.979 50.3291 237.137 49.6455 237.137C48.6019 237.137 47.7656 236.79 47.1367 236.098C46.5124 235.4 46.2002 234.473 46.2002 233.315V233.233ZM47.8613 233.377C47.8613 234.138 48.0186 234.735 48.333 235.168C48.6475 235.596 49.085 235.811 49.6455 235.811C50.2061 235.811 50.6413 235.592 50.9512 235.154C51.2656 234.717 51.4229 234.076 51.4229 233.233C51.4229 232.486 51.2611 231.894 50.9375 231.456C50.6185 231.019 50.1833 230.8 49.6318 230.8C49.0895 230.8 48.6589 231.016 48.3398 231.449C48.0208 231.878 47.8613 232.52 47.8613 233.377ZM56.0234 229.604L56.0713 230.458C56.6182 229.797 57.3359 229.467 58.2246 229.467C59.765 229.467 60.5488 230.349 60.5762 232.112V237H58.915V232.208C58.915 231.739 58.8125 231.392 58.6074 231.169C58.4069 230.941 58.0765 230.827 57.6162 230.827C56.9463 230.827 56.4473 231.13 56.1191 231.736V237H54.458V229.604H56.0234ZM64.3564 227.806V229.604H65.6621V230.834H64.3564V234.963C64.3564 235.245 64.4111 235.451 64.5205 235.578C64.6344 235.701 64.835 235.763 65.1221 235.763C65.3135 235.763 65.5072 235.74 65.7031 235.694V236.979C65.3249 237.084 64.9603 237.137 64.6094 237.137C63.3333 237.137 62.6953 236.433 62.6953 235.024V230.834H61.4785V229.604H62.6953V227.806H64.3564ZM71.3564 237C71.2835 236.859 71.2197 236.629 71.165 236.31C70.6364 236.861 69.9893 237.137 69.2236 237.137C68.4808 237.137 67.8747 236.925 67.4053 236.501C66.9359 236.077 66.7012 235.553 66.7012 234.929C66.7012 234.14 66.9928 233.536 67.5762 233.117C68.1641 232.693 69.0026 232.481 70.0918 232.481H71.1104V231.996C71.1104 231.613 71.0033 231.308 70.7891 231.08C70.5749 230.848 70.249 230.731 69.8115 230.731C69.4333 230.731 69.1234 230.827 68.8818 231.019C68.6403 231.205 68.5195 231.445 68.5195 231.736H66.8584C66.8584 231.331 66.9928 230.952 67.2617 230.602C67.5306 230.246 67.8952 229.968 68.3555 229.768C68.8203 229.567 69.3376 229.467 69.9072 229.467C70.7731 229.467 71.4635 229.686 71.9785 230.123C72.4935 230.556 72.7578 231.167 72.7715 231.955V235.291C72.7715 235.956 72.8649 236.487 73.0518 236.884V237H71.3564ZM69.5312 235.804C69.8594 235.804 70.167 235.724 70.4541 235.564C70.7458 235.405 70.9645 235.191 71.1104 234.922V233.527H70.2148C69.5996 233.527 69.137 233.634 68.8271 233.849C68.5173 234.063 68.3623 234.366 68.3623 234.758C68.3623 235.077 68.4671 235.332 68.6768 235.523C68.891 235.71 69.1758 235.804 69.5312 235.804ZM76.2783 237H74.6172V229.604H76.2783V237ZM74.5146 227.683C74.5146 227.427 74.5944 227.215 74.7539 227.047C74.918 226.878 75.1504 226.794 75.4512 226.794C75.752 226.794 75.9844 226.878 76.1484 227.047C76.3125 227.215 76.3945 227.427 76.3945 227.683C76.3945 227.933 76.3125 228.143 76.1484 228.312C75.9844 228.476 75.752 228.558 75.4512 228.558C75.1504 228.558 74.918 228.476 74.7539 228.312C74.5944 228.143 74.5146 227.933 74.5146 227.683ZM79.6348 229.604L79.6826 230.458C80.2295 229.797 80.9473 229.467 81.8359 229.467C83.3763 229.467 84.1602 230.349 84.1875 232.112V237H82.5264V232.208C82.5264 231.739 82.4238 231.392 82.2188 231.169C82.0182 230.941 81.6878 230.827 81.2275 230.827C80.5576 230.827 80.0586 231.13 79.7305 231.736V237H78.0693V229.604H79.6348ZM89.1436 237.137C88.0908 237.137 87.2363 236.806 86.5801 236.146C85.9284 235.48 85.6025 234.596 85.6025 233.493V233.288C85.6025 232.55 85.7438 231.891 86.0264 231.312C86.3135 230.729 86.7145 230.276 87.2295 229.952C87.7445 229.629 88.3187 229.467 88.9521 229.467C89.9593 229.467 90.7363 229.788 91.2832 230.431C91.8346 231.073 92.1104 231.982 92.1104 233.158V233.828H87.2773C87.3275 234.439 87.5303 234.922 87.8857 235.277C88.2458 235.633 88.6969 235.811 89.2393 235.811C90.0003 235.811 90.6201 235.503 91.0986 234.888L91.9941 235.742C91.6979 236.184 91.3014 236.528 90.8047 236.774C90.3125 237.016 89.7588 237.137 89.1436 237.137ZM88.9453 230.8C88.4896 230.8 88.1204 230.959 87.8379 231.278C87.5599 231.597 87.3822 232.042 87.3047 232.611H90.4697V232.488C90.4333 231.932 90.2852 231.513 90.0254 231.23C89.7656 230.943 89.4056 230.8 88.9453 230.8ZM97.2783 231.121C97.0596 231.085 96.834 231.066 96.6016 231.066C95.8405 231.066 95.3278 231.358 95.0635 231.941V237H93.4023V229.604H94.9883L95.0293 230.431C95.4303 229.788 95.9863 229.467 96.6973 229.467C96.9342 229.467 97.1302 229.499 97.2852 229.562L97.2783 231.121Z" fill="#BBBBBB"/>
<g opacity="0.8">
<path d="M22 263C22 261.343 23.3431 260 25 260H122C123.657 260 125 261.343 125 263V307C125 308.657 123.657 310 122 310H25C23.3431 310 22 308.657 22 307V263Z" fill="#1E73FF"/>
<path d="M75.2046 289.667H73.4321V281.104L70.8174 281.998V280.497L74.9775 278.966H75.2046V289.667Z" fill="white"/>
</g>
<g opacity="0.8">
<path d="M135 263C135 261.343 136.343 260 138 260H234C235.657 260 237 261.343 237 263V307C237 308.657 235.657 310 234 310H138C136.343 310 135 308.657 135 307V263Z" fill="#1E73FF"/>
<path d="M190.106 289.667H182.936V288.443L186.488 284.569C187.001 283.998 187.365 283.521 187.58 283.141C187.799 282.755 187.909 282.369 187.909 281.983C187.909 281.476 187.765 281.065 187.477 280.753C187.194 280.44 186.811 280.284 186.327 280.284C185.751 280.284 185.304 280.46 184.987 280.812C184.669 281.163 184.511 281.644 184.511 282.254H182.731C182.731 281.605 182.877 281.021 183.17 280.504C183.468 279.981 183.891 279.576 184.438 279.288C184.989 279 185.624 278.856 186.342 278.856C187.377 278.856 188.192 279.117 188.788 279.64C189.389 280.157 189.689 280.875 189.689 281.793C189.689 282.325 189.538 282.884 189.235 283.47C188.937 284.051 188.446 284.713 187.763 285.455L185.155 288.246H190.106V289.667Z" fill="white"/>
</g>
<g opacity="0.8">
<path d="M247 263C247 261.343 248.343 260 250 260H349C350.657 260 352 261.343 352 263V307C352 308.657 350.657 310 349 310H250C248.343 310 247 308.657 247 307V263Z" fill="#1E73FF"/>
<path d="M298.344 283.521H299.428C299.975 283.517 300.407 283.375 300.724 283.097C301.046 282.818 301.208 282.416 301.208 281.888C301.208 281.38 301.073 280.987 300.805 280.709C300.541 280.426 300.136 280.284 299.589 280.284C299.11 280.284 298.717 280.423 298.41 280.702C298.102 280.975 297.948 281.334 297.948 281.778H296.168C296.168 281.231 296.312 280.733 296.601 280.284C296.894 279.835 297.299 279.486 297.816 279.237C298.339 278.983 298.922 278.856 299.567 278.856C300.631 278.856 301.466 279.125 302.072 279.662C302.682 280.194 302.987 280.936 302.987 281.888C302.987 282.367 302.833 282.818 302.526 283.243C302.223 283.663 301.83 283.98 301.347 284.195C301.933 284.396 302.377 284.71 302.68 285.14C302.987 285.57 303.141 286.083 303.141 286.678C303.141 287.635 302.812 288.397 302.152 288.963C301.498 289.53 300.636 289.813 299.567 289.813C298.542 289.813 297.702 289.54 297.047 288.993C296.393 288.446 296.066 287.718 296.066 286.81H297.846C297.846 287.279 298.002 287.66 298.314 287.953C298.632 288.246 299.057 288.392 299.589 288.392C300.141 288.392 300.575 288.246 300.893 287.953C301.21 287.66 301.369 287.235 301.369 286.678C301.369 286.117 301.203 285.685 300.871 285.382C300.539 285.079 300.045 284.928 299.391 284.928H298.344V283.521Z" fill="white"/>
</g>
<g opacity="0.8">
<path d="M22 352C22 350.343 23.3431 349 25 349H122C123.657 349 125 350.343 125 352V396C125 397.657 123.657 399 122 399H25C23.3431 399 22 397.657 22 396V352Z" fill="#1E73FF"/>
<path d="M76.4058 374.865H77.7314V376.293H76.4058V378.667H74.626V376.293H70.019L69.9678 375.209L74.5674 368.002H76.4058V374.865ZM71.8354 374.865H74.626V370.412L74.4941 370.646L71.8354 374.865Z" fill="white"/>
</g>
<g opacity="0.8">
<path d="M135 352C135 350.343 136.343 349 138 349H234C235.657 349 237 350.343 237 352V396C237 397.657 235.657 399 234 399H138C136.343 399 135 397.657 135 396V352Z" fill="#1E73FF"/>
<path d="M183.412 373.378L183.991 368.002H189.718V369.541H185.47L185.177 372.089C185.67 371.806 186.227 371.665 186.847 371.665C187.863 371.665 188.651 371.989 189.213 372.639C189.779 373.288 190.062 374.162 190.062 375.261C190.062 376.345 189.75 377.209 189.125 377.854C188.5 378.493 187.643 378.813 186.554 378.813C185.578 378.813 184.767 378.537 184.123 377.985C183.483 377.429 183.136 376.696 183.083 375.788H184.804C184.872 376.306 185.058 376.704 185.36 376.982C185.663 377.255 186.059 377.392 186.547 377.392C187.094 377.392 187.519 377.197 187.821 376.806C188.129 376.416 188.283 375.883 188.283 375.209C188.283 374.56 188.114 374.047 187.777 373.671C187.44 373.291 186.977 373.1 186.386 373.1C186.063 373.1 185.79 373.144 185.565 373.232C185.341 373.315 185.097 373.481 184.833 373.73L183.412 373.378Z" fill="white"/>
</g>
<path d="M136.789 199.508C136.258 199.435 135.799 199.398 135.414 199.398C134.393 199.398 133.883 199.878 133.883 200.836V201.547H135.602V202.953H133.883V210H131.984V202.953H130.695V201.547H131.984V200.789C131.99 199.836 132.271 199.107 132.828 198.602C133.391 198.091 134.182 197.836 135.203 197.836C135.839 197.836 137 197.961 138.688 198.211V210H136.789V199.508ZM144.508 210.156C143.305 210.156 142.328 209.779 141.578 209.023C140.833 208.263 140.461 207.253 140.461 205.992V205.758C140.461 204.914 140.622 204.161 140.945 203.5C141.273 202.833 141.732 202.315 142.32 201.945C142.909 201.576 143.565 201.391 144.289 201.391C145.44 201.391 146.328 201.758 146.953 202.492C147.583 203.227 147.898 204.266 147.898 205.609V206.375H142.375C142.432 207.073 142.664 207.625 143.07 208.031C143.482 208.438 143.997 208.641 144.617 208.641C145.487 208.641 146.195 208.289 146.742 207.586L147.766 208.562C147.427 209.068 146.974 209.461 146.406 209.742C145.844 210.018 145.211 210.156 144.508 210.156ZM144.281 202.914C143.76 202.914 143.339 203.096 143.016 203.461C142.698 203.826 142.495 204.333 142.406 204.984H146.023V204.844C145.982 204.208 145.812 203.729 145.516 203.406C145.219 203.078 144.807 202.914 144.281 202.914ZM152.414 204.328L154.023 201.547H156.133L153.547 205.711L156.219 210H154.125L152.438 207.109L150.758 210H148.648L151.32 205.711L148.742 201.547H150.836L152.414 204.328ZM161.109 205.93H157.008V204.398H161.109V205.93ZM170.102 207.383L171.445 201.547H173.297L170.992 210H169.43L167.617 204.195L165.836 210H164.273L161.961 201.547H163.812L165.18 207.32L166.914 201.547H168.344L170.102 207.383ZM178.992 203.281C178.742 203.24 178.484 203.219 178.219 203.219C177.349 203.219 176.763 203.552 176.461 204.219V210H174.562V201.547H176.375L176.422 202.492C176.88 201.758 177.516 201.391 178.328 201.391C178.599 201.391 178.823 201.427 179 201.5L178.992 203.281ZM185.008 210C184.924 209.839 184.852 209.576 184.789 209.211C184.185 209.841 183.445 210.156 182.57 210.156C181.721 210.156 181.029 209.914 180.492 209.43C179.956 208.945 179.688 208.346 179.688 207.633C179.688 206.732 180.021 206.042 180.688 205.562C181.359 205.078 182.318 204.836 183.562 204.836H184.727V204.281C184.727 203.844 184.604 203.495 184.359 203.234C184.115 202.969 183.742 202.836 183.242 202.836C182.81 202.836 182.456 202.945 182.18 203.164C181.904 203.378 181.766 203.651 181.766 203.984H179.867C179.867 203.521 180.021 203.089 180.328 202.688C180.635 202.281 181.052 201.964 181.578 201.734C182.109 201.505 182.701 201.391 183.352 201.391C184.341 201.391 185.13 201.641 185.719 202.141C186.307 202.635 186.609 203.333 186.625 204.234V208.047C186.625 208.807 186.732 209.414 186.945 209.867V210H185.008ZM182.922 208.633C183.297 208.633 183.648 208.542 183.977 208.359C184.31 208.177 184.56 207.932 184.727 207.625V206.031H183.703C183 206.031 182.471 206.154 182.117 206.398C181.763 206.643 181.586 206.99 181.586 207.438C181.586 207.802 181.706 208.094 181.945 208.312C182.19 208.526 182.516 208.633 182.922 208.633ZM196.016 205.859C196.016 207.167 195.719 208.211 195.125 208.992C194.531 209.768 193.734 210.156 192.734 210.156C191.807 210.156 191.065 209.852 190.508 209.242V213.25H188.609V201.547H190.359L190.438 202.406C190.995 201.729 191.753 201.391 192.711 201.391C193.742 201.391 194.549 201.776 195.133 202.547C195.721 203.312 196.016 204.378 196.016 205.742V205.859ZM194.125 205.695C194.125 204.852 193.956 204.182 193.617 203.688C193.284 203.193 192.805 202.945 192.18 202.945C191.404 202.945 190.846 203.266 190.508 203.906V207.656C190.852 208.312 191.414 208.641 192.195 208.641C192.799 208.641 193.271 208.398 193.609 207.914C193.953 207.424 194.125 206.685 194.125 205.695ZM198.773 208C199.128 208 199.401 208.102 199.594 208.305C199.786 208.503 199.883 208.753 199.883 209.055C199.883 209.352 199.786 209.599 199.594 209.797C199.401 209.99 199.128 210.086 198.773 210.086C198.435 210.086 198.167 209.99 197.969 209.797C197.771 209.604 197.672 209.357 197.672 209.055C197.672 208.753 197.768 208.503 197.961 208.305C198.154 208.102 198.424 208 198.773 208ZM198.773 201.367C199.128 201.367 199.401 201.469 199.594 201.672C199.786 201.87 199.883 202.12 199.883 202.422C199.883 202.719 199.786 202.966 199.594 203.164C199.401 203.357 199.128 203.453 198.773 203.453C198.435 203.453 198.167 203.357 197.969 203.164C197.771 202.971 197.672 202.724 197.672 202.422C197.672 202.12 197.768 201.87 197.961 201.672C198.154 201.469 198.424 201.367 198.773 201.367ZM241.797 201.367C242.151 201.367 242.424 201.469 242.617 201.672C242.81 201.87 242.906 202.12 242.906 202.422C242.906 202.719 242.81 202.966 242.617 203.164C242.424 203.357 242.151 203.453 241.797 203.453C241.458 203.453 241.19 203.357 240.992 203.164C240.794 202.971 240.695 202.724 240.695 202.422C240.695 202.12 240.792 201.87 240.984 201.672C241.177 201.469 241.448 201.367 241.797 201.367ZM241.227 212.562L240.203 211.953C240.505 211.479 240.711 211.065 240.82 210.711C240.935 210.362 240.995 210.005 241 209.641V208.164H242.711L242.703 209.531C242.698 210.083 242.557 210.635 242.281 211.188C242.01 211.745 241.659 212.203 241.227 212.562Z" fill="#444444"/>
<path d="M213.289 207.383L214.633 201.547H216.484L214.18 210H212.617L210.805 204.195L209.023 210H207.461L205.148 201.547H207L208.367 207.32L210.102 201.547H211.531L213.289 207.383ZM222.18 203.281C221.93 203.24 221.672 203.219 221.406 203.219C220.536 203.219 219.951 203.552 219.648 204.219V210H217.75V201.547H219.562L219.609 202.492C220.068 201.758 220.703 201.391 221.516 201.391C221.786 201.391 222.01 201.427 222.188 201.5L222.18 203.281ZM228.195 210C228.112 209.839 228.039 209.576 227.977 209.211C227.372 209.841 226.633 210.156 225.758 210.156C224.909 210.156 224.216 209.914 223.68 209.43C223.143 208.945 222.875 208.346 222.875 207.633C222.875 206.732 223.208 206.042 223.875 205.562C224.547 205.078 225.505 204.836 226.75 204.836H227.914V204.281C227.914 203.844 227.792 203.495 227.547 203.234C227.302 202.969 226.93 202.836 226.43 202.836C225.997 202.836 225.643 202.945 225.367 203.164C225.091 203.378 224.953 203.651 224.953 203.984H223.055C223.055 203.521 223.208 203.089 223.516 202.688C223.823 202.281 224.24 201.964 224.766 201.734C225.297 201.505 225.888 201.391 226.539 201.391C227.529 201.391 228.318 201.641 228.906 202.141C229.495 202.635 229.797 203.333 229.812 204.234V208.047C229.812 208.807 229.919 209.414 230.133 209.867V210H228.195ZM226.109 208.633C226.484 208.633 226.836 208.542 227.164 208.359C227.497 208.177 227.747 207.932 227.914 207.625V206.031H226.891C226.188 206.031 225.659 206.154 225.305 206.398C224.951 206.643 224.773 206.99 224.773 207.438C224.773 207.802 224.893 208.094 225.133 208.312C225.378 208.526 225.703 208.633 226.109 208.633ZM239.203 205.859C239.203 207.167 238.906 208.211 238.312 208.992C237.719 209.768 236.922 210.156 235.922 210.156C234.995 210.156 234.253 209.852 233.695 209.242V213.25H231.797V201.547H233.547L233.625 202.406C234.182 201.729 234.94 201.391 235.898 201.391C236.93 201.391 237.737 201.776 238.32 202.547C238.909 203.312 239.203 204.378 239.203 205.742V205.859ZM237.312 205.695C237.312 204.852 237.143 204.182 236.805 203.688C236.471 203.193 235.992 202.945 235.367 202.945C234.591 202.945 234.034 203.266 233.695 203.906V207.656C234.039 208.312 234.602 208.641 235.383 208.641C235.987 208.641 236.458 208.398 236.797 207.914C237.141 207.424 237.312 206.685 237.312 205.695Z" fill="#1E73FF"/>
<path d="M19.9368 374L9.93683 368.226V379.774L19.9368 374ZM14.9579 373H9.97894V375H14.9579V373ZM7.48947 373H5V375H7.48947V373ZM5 373C4.45181 373 3.94078 372.854 3.50049 372.599L2.49887 374.33C3.23542 374.756 4.09078 375 5 375V373ZM2.40087 371.5C2.14612 371.059 2 370.548 2 370H0C0 370.909 0.243597 371.765 0.669754 372.501L2.40087 371.5ZM2 370V368H0V370H2ZM2 366V362H0V366H2ZM2 360V356H0V360H2ZM2 354V350H0V354H2ZM2 348V344H0V348H2ZM2 342V338H0V342H2ZM2 336V334H0V336H2ZM2 334C2 333.452 2.14612 332.941 2.40087 332.5L0.669753 331.499C0.243596 332.235 0 333.091 0 334H2ZM3.50048 331.401C3.94078 331.146 4.45181 331 5 331V329C4.09077 329 3.23541 329.244 2.49887 329.67L3.50048 331.401ZM5 331H6.98907V329H5V331ZM8.97814 331H12.9563V329H8.97814V331ZM14.9454 331H18.9235V329H14.9454V331ZM20.9126 331H24.8907V329H20.9126V331ZM26.8798 331H30.8579V329H26.8798V331ZM32.847 331H36.8251V329H32.847V331ZM38.8142 331H42.7923V329H38.8142V331ZM44.7814 331H48.7596V329H44.7814V331ZM50.7486 331H54.7268V329H50.7486V331ZM56.7158 331H60.694V329H56.7158V331ZM62.6831 331H66.6612V329H62.6831V331ZM68.6503 331H72.6284V329H68.6503V331ZM74.6175 331H78.5956V329H74.6175V331ZM80.5847 331H84.5628V329H80.5847V331ZM86.5519 331H90.5301V329H86.5519V331ZM92.5191 331H96.4973V329H92.5191V331ZM98.4864 331H102.464V329H98.4864V331ZM104.454 331H108.432V329H104.454V331ZM110.421 331H114.399V329H110.421V331ZM116.388 331H120.366V329H116.388V331ZM122.355 331H126.333V329H122.355V331ZM128.322 331H132.301V329H128.322V331ZM134.29 331H138.268V329H134.29V331ZM140.257 331H144.235V329H140.257V331ZM146.224 331H150.202V329H146.224V331ZM152.191 331H156.169V329H152.191V331ZM158.159 331H162.137V329H158.159V331ZM164.126 331H168.104V329H164.126V331ZM170.093 331H174.071V329H170.093V331ZM176.06 331H180.038V329H176.06V331ZM182.027 331H186.006V329H182.027V331ZM187.995 331H191.973V329H187.995V331ZM193.962 331H197.94V329H193.962V331ZM199.929 331H203.907V329H199.929V331ZM205.896 331H209.874V329H205.896V331ZM211.864 331H215.842V329H211.864V331ZM217.831 331H221.809V329H217.831V331ZM223.798 331H227.776V329H223.798V331ZM229.765 331H233.743V329H229.765V331ZM235.732 331H239.711V329H235.732V331ZM241.7 331H245.678V329H241.7V331ZM247.667 331H251.645V329H247.667V331ZM253.634 331H257.612V329H253.634V331ZM259.601 331H263.579V329H259.601V331ZM265.569 331H269.547V329H265.569V331ZM271.536 331H275.514V329H271.536V331ZM277.503 331H281.481V329H277.503V331ZM283.47 331H287.448V329H283.47V331ZM289.437 331H293.416V329H289.437V331ZM295.405 331H299.383V329H295.405V331ZM301.372 331H305.35V329H301.372V331ZM307.339 331H311.317V329H307.339V331ZM313.306 331H317.285V329H313.306V331ZM319.274 331H323.252V329H319.274V331ZM325.241 331H329.219V329H325.241V331ZM331.208 331H335.186V329H331.208V331ZM337.175 331H341.153V329H337.175V331ZM343.142 331H347.121V329H343.142V331ZM349.11 331H353.088V329H349.11V331ZM355.077 331H359.055V329H355.077V331ZM361.044 331H365.022V329H361.044V331ZM367.011 331H369V329H367.011V331ZM369 331C369.909 331 370.765 330.756 371.501 330.33L370.5 328.599C370.059 328.854 369.548 329 369 329V331ZM373.33 328.501C373.756 327.765 374 326.909 374 326H372C372 326.548 371.854 327.059 371.599 327.5L373.33 328.501ZM374 326V323.944H372V326H374ZM374 321.889V317.778H372V321.889H374ZM374 315.722V311.611H372V315.722H374ZM374 309.556V305.444H372V309.556H374ZM374 303.389V299.278H372V303.389H374ZM374 297.222V293.111H372V297.222H374ZM374 291.056V289H372V291.056H374ZM374 289C374 288.091 373.756 287.235 373.33 286.499L371.599 287.5C371.854 287.941 372 288.452 372 289H374ZM371.501 284.67C370.765 284.244 369.909 284 369 284V286C369.548 286 370.059 286.146 370.5 286.401L371.501 284.67ZM369 284H367.333V286H369V284ZM365.667 284H362.333V286H365.667V284ZM360.667 284H357.333V286H360.667V284ZM355.667 284H354V286H355.667V284Z" fill="#1E73FF"/>
<rect x="424" y="251" width="348" height="157" rx="5" fill="#F7F7F7" stroke="#AAAAAA" stroke-width="2" stroke-dasharray="6 4"/>
<path d="M428.64 227.819C428.175 227.756 427.774 227.724 427.437 227.724C426.543 227.724 426.097 228.143 426.097 228.981V229.604H427.601V230.834H426.097V237H424.436V230.834H423.308V229.604H424.436V228.94C424.44 228.106 424.686 227.468 425.174 227.026C425.666 226.58 426.359 226.356 427.252 226.356C427.808 226.356 428.824 226.466 430.301 226.685V237H428.64V227.819ZM435.394 237.137C434.341 237.137 433.486 236.806 432.83 236.146C432.178 235.48 431.853 234.596 431.853 233.493V233.288C431.853 232.55 431.994 231.891 432.276 231.312C432.563 230.729 432.965 230.276 433.479 229.952C433.994 229.629 434.569 229.467 435.202 229.467C436.209 229.467 436.986 229.788 437.533 230.431C438.085 231.073 438.36 231.982 438.36 233.158V233.828H433.527C433.577 234.439 433.78 234.922 434.136 235.277C434.496 235.633 434.947 235.811 435.489 235.811C436.25 235.811 436.87 235.503 437.349 234.888L438.244 235.742C437.948 236.184 437.551 236.528 437.055 236.774C436.562 237.016 436.009 237.137 435.394 237.137ZM435.195 230.8C434.74 230.8 434.37 230.959 434.088 231.278C433.81 231.597 433.632 232.042 433.555 232.611H436.72V232.488C436.683 231.932 436.535 231.513 436.275 231.23C436.016 230.943 435.656 230.8 435.195 230.8ZM442.312 232.037L443.72 229.604H445.565L443.303 233.247L445.641 237H443.809L442.332 234.471L440.862 237H439.017L441.354 233.247L439.099 229.604H440.931L442.312 232.037ZM453.222 235.811C453.636 235.811 453.98 235.69 454.254 235.448C454.527 235.207 454.673 234.908 454.691 234.553H456.257C456.239 235.013 456.095 235.444 455.826 235.845C455.557 236.241 455.193 236.556 454.732 236.788C454.272 237.021 453.775 237.137 453.242 237.137C452.208 237.137 451.387 236.802 450.781 236.132C450.175 235.462 449.872 234.537 449.872 233.356V233.186C449.872 232.06 450.173 231.16 450.774 230.485C451.376 229.806 452.196 229.467 453.235 229.467C454.115 229.467 454.83 229.724 455.382 230.239C455.938 230.75 456.229 231.422 456.257 232.256H454.691C454.673 231.832 454.527 231.483 454.254 231.21C453.985 230.937 453.641 230.8 453.222 230.8C452.684 230.8 452.269 230.996 451.978 231.388C451.686 231.775 451.538 232.365 451.533 233.158V233.425C451.533 234.227 451.677 234.826 451.964 235.223C452.256 235.615 452.675 235.811 453.222 235.811ZM457.2 233.233C457.2 232.509 457.344 231.857 457.631 231.278C457.918 230.695 458.321 230.248 458.841 229.938C459.36 229.624 459.957 229.467 460.632 229.467C461.63 229.467 462.439 229.788 463.059 230.431C463.683 231.073 464.02 231.925 464.07 232.987L464.077 233.377C464.077 234.106 463.936 234.758 463.653 235.332C463.375 235.906 462.974 236.351 462.45 236.665C461.931 236.979 461.329 237.137 460.646 237.137C459.602 237.137 458.766 236.79 458.137 236.098C457.512 235.4 457.2 234.473 457.2 233.315V233.233ZM458.861 233.377C458.861 234.138 459.019 234.735 459.333 235.168C459.647 235.596 460.085 235.811 460.646 235.811C461.206 235.811 461.641 235.592 461.951 235.154C462.266 234.717 462.423 234.076 462.423 233.233C462.423 232.486 462.261 231.894 461.938 231.456C461.618 231.019 461.183 230.8 460.632 230.8C460.09 230.8 459.659 231.016 459.34 231.449C459.021 231.878 458.861 232.52 458.861 233.377ZM467.023 229.604L467.071 230.458C467.618 229.797 468.336 229.467 469.225 229.467C470.765 229.467 471.549 230.349 471.576 232.112V237H469.915V232.208C469.915 231.739 469.812 231.392 469.607 231.169C469.407 230.941 469.076 230.827 468.616 230.827C467.946 230.827 467.447 231.13 467.119 231.736V237H465.458V229.604H467.023ZM475.356 227.806V229.604H476.662V230.834H475.356V234.963C475.356 235.245 475.411 235.451 475.521 235.578C475.634 235.701 475.835 235.763 476.122 235.763C476.313 235.763 476.507 235.74 476.703 235.694V236.979C476.325 237.084 475.96 237.137 475.609 237.137C474.333 237.137 473.695 236.433 473.695 235.024V230.834H472.479V229.604H473.695V227.806H475.356ZM482.356 237C482.284 236.859 482.22 236.629 482.165 236.31C481.636 236.861 480.989 237.137 480.224 237.137C479.481 237.137 478.875 236.925 478.405 236.501C477.936 236.077 477.701 235.553 477.701 234.929C477.701 234.14 477.993 233.536 478.576 233.117C479.164 232.693 480.003 232.481 481.092 232.481H482.11V231.996C482.11 231.613 482.003 231.308 481.789 231.08C481.575 230.848 481.249 230.731 480.812 230.731C480.433 230.731 480.123 230.827 479.882 231.019C479.64 231.205 479.52 231.445 479.52 231.736H477.858C477.858 231.331 477.993 230.952 478.262 230.602C478.531 230.246 478.895 229.968 479.355 229.768C479.82 229.567 480.338 229.467 480.907 229.467C481.773 229.467 482.464 229.686 482.979 230.123C483.493 230.556 483.758 231.167 483.771 231.955V235.291C483.771 235.956 483.865 236.487 484.052 236.884V237H482.356ZM480.531 235.804C480.859 235.804 481.167 235.724 481.454 235.564C481.746 235.405 481.965 235.191 482.11 234.922V233.527H481.215C480.6 233.527 480.137 233.634 479.827 233.849C479.517 234.063 479.362 234.366 479.362 234.758C479.362 235.077 479.467 235.332 479.677 235.523C479.891 235.71 480.176 235.804 480.531 235.804ZM487.278 237H485.617V229.604H487.278V237ZM485.515 227.683C485.515 227.427 485.594 227.215 485.754 227.047C485.918 226.878 486.15 226.794 486.451 226.794C486.752 226.794 486.984 226.878 487.148 227.047C487.312 227.215 487.395 227.427 487.395 227.683C487.395 227.933 487.312 228.143 487.148 228.312C486.984 228.476 486.752 228.558 486.451 228.558C486.15 228.558 485.918 228.476 485.754 228.312C485.594 228.143 485.515 227.933 485.515 227.683ZM490.635 229.604L490.683 230.458C491.229 229.797 491.947 229.467 492.836 229.467C494.376 229.467 495.16 230.349 495.188 232.112V237H493.526V232.208C493.526 231.739 493.424 231.392 493.219 231.169C493.018 230.941 492.688 230.827 492.228 230.827C491.558 230.827 491.059 231.13 490.73 231.736V237H489.069V229.604H490.635ZM500.144 237.137C499.091 237.137 498.236 236.806 497.58 236.146C496.928 235.48 496.603 234.596 496.603 233.493V233.288C496.603 232.55 496.744 231.891 497.026 231.312C497.313 230.729 497.715 230.276 498.229 229.952C498.744 229.629 499.319 229.467 499.952 229.467C500.959 229.467 501.736 229.788 502.283 230.431C502.835 231.073 503.11 231.982 503.11 233.158V233.828H498.277C498.327 234.439 498.53 234.922 498.886 235.277C499.246 235.633 499.697 235.811 500.239 235.811C501 235.811 501.62 235.503 502.099 234.888L502.994 235.742C502.698 236.184 502.301 236.528 501.805 236.774C501.312 237.016 500.759 237.137 500.144 237.137ZM499.945 230.8C499.49 230.8 499.12 230.959 498.838 231.278C498.56 231.597 498.382 232.042 498.305 232.611H501.47V232.488C501.433 231.932 501.285 231.513 501.025 231.23C500.766 230.943 500.406 230.8 499.945 230.8ZM508.278 231.121C508.06 231.085 507.834 231.066 507.602 231.066C506.84 231.066 506.328 231.358 506.063 231.941V237H504.402V229.604H505.988L506.029 230.431C506.43 229.788 506.986 229.467 507.697 229.467C507.934 229.467 508.13 229.499 508.285 229.562L508.278 231.121Z" fill="#BBBBBB"/>
<g opacity="0.8">
<path d="M433 352C433 350.343 434.343 349 436 349H533C534.657 349 536 350.343 536 352V396C536 397.657 534.657 399 533 399H436C434.343 399 433 397.657 433 396V352Z" fill="#1E73FF"/>
<path d="M486.205 378.667H484.432V370.104L481.817 370.998V369.497L485.978 367.966H486.205V378.667Z" fill="white"/>
</g>
<g opacity="0.8">
<path d="M546 352C546 350.343 547.343 349 549 349H645C646.657 349 648 350.343 648 352V396C648 397.657 646.657 399 645 399H549C547.343 399 546 397.657 546 396V352Z" fill="#1E73FF"/>
<path d="M601.106 378.667H593.936V377.443L597.488 373.569C598.001 372.998 598.365 372.521 598.58 372.141C598.799 371.755 598.909 371.369 598.909 370.983C598.909 370.476 598.765 370.065 598.477 369.753C598.194 369.44 597.811 369.284 597.327 369.284C596.751 369.284 596.304 369.46 595.987 369.812C595.669 370.163 595.511 370.644 595.511 371.254H593.731C593.731 370.605 593.877 370.021 594.17 369.504C594.468 368.981 594.891 368.576 595.438 368.288C595.989 368 596.624 367.856 597.342 367.856C598.377 367.856 599.192 368.117 599.788 368.64C600.389 369.157 600.689 369.875 600.689 370.793C600.689 371.325 600.538 371.884 600.235 372.47C599.937 373.051 599.446 373.713 598.763 374.455L596.155 377.246H601.106V378.667Z" fill="white"/>
</g>
<g opacity="0.8">
<path d="M658 352C658 350.343 659.343 349 661 349H760C761.657 349 763 350.343 763 352V396C763 397.657 761.657 399 760 399H661C659.343 399 658 397.657 658 396V352Z" fill="#1E73FF"/>
<path d="M709.344 372.521H710.428C710.975 372.517 711.407 372.375 711.724 372.097C712.046 371.818 712.208 371.416 712.208 370.888C712.208 370.38 712.073 369.987 711.805 369.709C711.541 369.426 711.136 369.284 710.589 369.284C710.11 369.284 709.717 369.423 709.41 369.702C709.102 369.975 708.948 370.334 708.948 370.778H707.168C707.168 370.231 707.312 369.733 707.601 369.284C707.894 368.835 708.299 368.486 708.816 368.237C709.339 367.983 709.922 367.856 710.567 367.856C711.631 367.856 712.466 368.125 713.072 368.662C713.682 369.194 713.987 369.936 713.987 370.888C713.987 371.367 713.833 371.818 713.526 372.243C713.223 372.663 712.83 372.98 712.347 373.195C712.933 373.396 713.377 373.71 713.68 374.14C713.987 374.57 714.141 375.083 714.141 375.678C714.141 376.635 713.812 377.397 713.152 377.963C712.498 378.53 711.636 378.813 710.567 378.813C709.542 378.813 708.702 378.54 708.047 377.993C707.393 377.446 707.066 376.718 707.066 375.81H708.846C708.846 376.279 709.002 376.66 709.314 376.953C709.632 377.246 710.057 377.392 710.589 377.392C711.141 377.392 711.575 377.246 711.893 376.953C712.21 376.66 712.369 376.235 712.369 375.678C712.369 375.117 712.203 374.685 711.871 374.382C711.539 374.079 711.045 373.928 710.391 373.928H709.344V372.521Z" fill="white"/>
</g>
<g opacity="0.8">
<path d="M433 263C433 261.343 434.343 260 436 260H533C534.657 260 536 261.343 536 263V307C536 308.657 534.657 310 533 310H436C434.343 310 433 308.657 433 307V263Z" fill="#1E73FF"/>
<path d="M487.406 285.865H488.731V287.293H487.406V289.667H485.626V287.293H481.019L480.968 286.209L485.567 279.002H487.406V285.865ZM482.835 285.865H485.626V281.412L485.494 281.646L482.835 285.865Z" fill="white"/>
</g>
<g opacity="0.8">
<path d="M546 263C546 261.343 547.343 260 549 260H645C646.657 260 648 261.343 648 263V307C648 308.657 646.657 310 645 310H549C547.343 310 546 308.657 546 307V263Z" fill="#1E73FF"/>
<path d="M594.412 284.378L594.991 279.002H600.718V280.541H596.47L596.177 283.089C596.67 282.806 597.227 282.665 597.847 282.665C598.863 282.665 599.651 282.989 600.213 283.639C600.779 284.288 601.062 285.162 601.062 286.261C601.062 287.345 600.75 288.209 600.125 288.854C599.5 289.493 598.643 289.813 597.554 289.813C596.578 289.813 595.767 289.537 595.123 288.985C594.483 288.429 594.136 287.696 594.083 286.788H595.804C595.872 287.306 596.058 287.704 596.36 287.982C596.663 288.255 597.059 288.392 597.547 288.392C598.094 288.392 598.519 288.197 598.821 287.806C599.129 287.416 599.283 286.883 599.283 286.209C599.283 285.56 599.114 285.047 598.777 284.671C598.44 284.291 597.977 284.1 597.386 284.1C597.063 284.1 596.79 284.144 596.565 284.232C596.341 284.315 596.097 284.481 595.833 284.73L594.412 284.378Z" fill="white"/>
</g>
<path d="M518.742 199.508C518.211 199.435 517.753 199.398 517.367 199.398C516.346 199.398 515.836 199.878 515.836 200.836V201.547H517.555V202.953H515.836V210H513.938V202.953H512.648V201.547H513.938V200.789C513.943 199.836 514.224 199.107 514.781 198.602C515.344 198.091 516.135 197.836 517.156 197.836C517.792 197.836 518.953 197.961 520.641 198.211V210H518.742V199.508ZM526.461 210.156C525.258 210.156 524.281 209.779 523.531 209.023C522.786 208.263 522.414 207.253 522.414 205.992V205.758C522.414 204.914 522.576 204.161 522.898 203.5C523.227 202.833 523.685 202.315 524.273 201.945C524.862 201.576 525.518 201.391 526.242 201.391C527.393 201.391 528.281 201.758 528.906 202.492C529.536 203.227 529.852 204.266 529.852 205.609V206.375H524.328C524.385 207.073 524.617 207.625 525.023 208.031C525.435 208.438 525.951 208.641 526.57 208.641C527.44 208.641 528.148 208.289 528.695 207.586L529.719 208.562C529.38 209.068 528.927 209.461 528.359 209.742C527.797 210.018 527.164 210.156 526.461 210.156ZM526.234 202.914C525.714 202.914 525.292 203.096 524.969 203.461C524.651 203.826 524.448 204.333 524.359 204.984H527.977V204.844C527.935 204.208 527.766 203.729 527.469 203.406C527.172 203.078 526.76 202.914 526.234 202.914ZM534.367 204.328L535.977 201.547H538.086L535.5 205.711L538.172 210H536.078L534.391 207.109L532.711 210H530.602L533.273 205.711L530.695 201.547H532.789L534.367 204.328ZM543.062 205.93H538.961V204.398H543.062V205.93ZM552.055 207.383L553.398 201.547H555.25L552.945 210H551.383L549.57 204.195L547.789 210H546.227L543.914 201.547H545.766L547.133 207.32L548.867 201.547H550.297L552.055 207.383ZM560.945 203.281C560.695 203.24 560.438 203.219 560.172 203.219C559.302 203.219 558.716 203.552 558.414 204.219V210H556.516V201.547H558.328L558.375 202.492C558.833 201.758 559.469 201.391 560.281 201.391C560.552 201.391 560.776 201.427 560.953 201.5L560.945 203.281ZM566.961 210C566.878 209.839 566.805 209.576 566.742 209.211C566.138 209.841 565.398 210.156 564.523 210.156C563.674 210.156 562.982 209.914 562.445 209.43C561.909 208.945 561.641 208.346 561.641 207.633C561.641 206.732 561.974 206.042 562.641 205.562C563.312 205.078 564.271 204.836 565.516 204.836H566.68V204.281C566.68 203.844 566.557 203.495 566.312 203.234C566.068 202.969 565.695 202.836 565.195 202.836C564.763 202.836 564.409 202.945 564.133 203.164C563.857 203.378 563.719 203.651 563.719 203.984H561.82C561.82 203.521 561.974 203.089 562.281 202.688C562.589 202.281 563.005 201.964 563.531 201.734C564.062 201.505 564.654 201.391 565.305 201.391C566.294 201.391 567.083 201.641 567.672 202.141C568.26 202.635 568.562 203.333 568.578 204.234V208.047C568.578 208.807 568.685 209.414 568.898 209.867V210H566.961ZM564.875 208.633C565.25 208.633 565.602 208.542 565.93 208.359C566.263 208.177 566.513 207.932 566.68 207.625V206.031H565.656C564.953 206.031 564.424 206.154 564.07 206.398C563.716 206.643 563.539 206.99 563.539 207.438C563.539 207.802 563.659 208.094 563.898 208.312C564.143 208.526 564.469 208.633 564.875 208.633ZM577.969 205.859C577.969 207.167 577.672 208.211 577.078 208.992C576.484 209.768 575.688 210.156 574.688 210.156C573.76 210.156 573.018 209.852 572.461 209.242V213.25H570.562V201.547H572.312L572.391 202.406C572.948 201.729 573.706 201.391 574.664 201.391C575.695 201.391 576.503 201.776 577.086 202.547C577.674 203.312 577.969 204.378 577.969 205.742V205.859ZM576.078 205.695C576.078 204.852 575.909 204.182 575.57 203.688C575.237 203.193 574.758 202.945 574.133 202.945C573.357 202.945 572.799 203.266 572.461 203.906V207.656C572.805 208.312 573.367 208.641 574.148 208.641C574.753 208.641 575.224 208.398 575.562 207.914C575.906 207.424 576.078 206.685 576.078 205.695ZM580.727 208C581.081 208 581.354 208.102 581.547 208.305C581.74 208.503 581.836 208.753 581.836 209.055C581.836 209.352 581.74 209.599 581.547 209.797C581.354 209.99 581.081 210.086 580.727 210.086C580.388 210.086 580.12 209.99 579.922 209.797C579.724 209.604 579.625 209.357 579.625 209.055C579.625 208.753 579.721 208.503 579.914 208.305C580.107 208.102 580.378 208 580.727 208ZM580.727 201.367C581.081 201.367 581.354 201.469 581.547 201.672C581.74 201.87 581.836 202.12 581.836 202.422C581.836 202.719 581.74 202.966 581.547 203.164C581.354 203.357 581.081 203.453 580.727 203.453C580.388 203.453 580.12 203.357 579.922 203.164C579.724 202.971 579.625 202.724 579.625 202.422C579.625 202.12 579.721 201.87 579.914 201.672C580.107 201.469 580.378 201.367 580.727 201.367ZM681.844 201.367C682.198 201.367 682.471 201.469 682.664 201.672C682.857 201.87 682.953 202.12 682.953 202.422C682.953 202.719 682.857 202.966 682.664 203.164C682.471 203.357 682.198 203.453 681.844 203.453C681.505 203.453 681.237 203.357 681.039 203.164C680.841 202.971 680.742 202.724 680.742 202.422C680.742 202.12 680.839 201.87 681.031 201.672C681.224 201.469 681.495 201.367 681.844 201.367ZM681.273 212.562L680.25 211.953C680.552 211.479 680.758 211.065 680.867 210.711C680.982 210.362 681.042 210.005 681.047 209.641V208.164H682.758L682.75 209.531C682.745 210.083 682.604 210.635 682.328 211.188C682.057 211.745 681.706 212.203 681.273 212.562Z" fill="#444444"/>
<path d="M595.242 207.383L596.586 201.547H598.438L596.133 210H594.57L592.758 204.195L590.977 210H589.414L587.102 201.547H588.953L590.32 207.32L592.055 201.547H593.484L595.242 207.383ZM604.133 203.281C603.883 203.24 603.625 203.219 603.359 203.219C602.49 203.219 601.904 203.552 601.602 204.219V210H599.703V201.547H601.516L601.562 202.492C602.021 201.758 602.656 201.391 603.469 201.391C603.74 201.391 603.964 201.427 604.141 201.5L604.133 203.281ZM610.148 210C610.065 209.839 609.992 209.576 609.93 209.211C609.326 209.841 608.586 210.156 607.711 210.156C606.862 210.156 606.169 209.914 605.633 209.43C605.096 208.945 604.828 208.346 604.828 207.633C604.828 206.732 605.161 206.042 605.828 205.562C606.5 205.078 607.458 204.836 608.703 204.836H609.867V204.281C609.867 203.844 609.745 203.495 609.5 203.234C609.255 202.969 608.883 202.836 608.383 202.836C607.951 202.836 607.596 202.945 607.32 203.164C607.044 203.378 606.906 203.651 606.906 203.984H605.008C605.008 203.521 605.161 203.089 605.469 202.688C605.776 202.281 606.193 201.964 606.719 201.734C607.25 201.505 607.841 201.391 608.492 201.391C609.482 201.391 610.271 201.641 610.859 202.141C611.448 202.635 611.75 203.333 611.766 204.234V208.047C611.766 208.807 611.872 209.414 612.086 209.867V210H610.148ZM608.062 208.633C608.438 208.633 608.789 208.542 609.117 208.359C609.451 208.177 609.701 207.932 609.867 207.625V206.031H608.844C608.141 206.031 607.612 206.154 607.258 206.398C606.904 206.643 606.727 206.99 606.727 207.438C606.727 207.802 606.846 208.094 607.086 208.312C607.331 208.526 607.656 208.633 608.062 208.633ZM621.156 205.859C621.156 207.167 620.859 208.211 620.266 208.992C619.672 209.768 618.875 210.156 617.875 210.156C616.948 210.156 616.206 209.852 615.648 209.242V213.25H613.75V201.547H615.5L615.578 202.406C616.135 201.729 616.893 201.391 617.852 201.391C618.883 201.391 619.69 201.776 620.273 202.547C620.862 203.312 621.156 204.378 621.156 205.742V205.859ZM619.266 205.695C619.266 204.852 619.096 204.182 618.758 203.688C618.424 203.193 617.945 202.945 617.32 202.945C616.544 202.945 615.987 203.266 615.648 203.906V207.656C615.992 208.312 616.555 208.641 617.336 208.641C617.94 208.641 618.411 208.398 618.75 207.914C619.094 207.424 619.266 206.685 619.266 205.695ZM626.453 205.93H622.352V204.398H626.453V205.93ZM632.445 203.281C632.195 203.24 631.938 203.219 631.672 203.219C630.802 203.219 630.216 203.552 629.914 204.219V210H628.016V201.547H629.828L629.875 202.492C630.333 201.758 630.969 201.391 631.781 201.391C632.052 201.391 632.276 201.427 632.453 201.5L632.445 203.281ZM637.211 210.156C636.008 210.156 635.031 209.779 634.281 209.023C633.536 208.263 633.164 207.253 633.164 205.992V205.758C633.164 204.914 633.326 204.161 633.648 203.5C633.977 202.833 634.435 202.315 635.023 201.945C635.612 201.576 636.268 201.391 636.992 201.391C638.143 201.391 639.031 201.758 639.656 202.492C640.286 203.227 640.602 204.266 640.602 205.609V206.375H635.078C635.135 207.073 635.367 207.625 635.773 208.031C636.185 208.438 636.701 208.641 637.32 208.641C638.19 208.641 638.898 208.289 639.445 207.586L640.469 208.562C640.13 209.068 639.677 209.461 639.109 209.742C638.547 210.018 637.914 210.156 637.211 210.156ZM636.984 202.914C636.464 202.914 636.042 203.096 635.719 203.461C635.401 203.826 635.198 204.333 635.109 204.984H638.727V204.844C638.685 204.208 638.516 203.729 638.219 203.406C637.922 203.078 637.51 202.914 636.984 202.914ZM644.953 207.594L646.742 201.547H648.703L645.773 210H644.125L641.172 201.547H643.141L644.953 207.594ZM653.508 210.156C652.305 210.156 651.328 209.779 650.578 209.023C649.833 208.263 649.461 207.253 649.461 205.992V205.758C649.461 204.914 649.622 204.161 649.945 203.5C650.273 202.833 650.732 202.315 651.32 201.945C651.909 201.576 652.565 201.391 653.289 201.391C654.44 201.391 655.328 201.758 655.953 202.492C656.583 203.227 656.898 204.266 656.898 205.609V206.375H651.375C651.432 207.073 651.664 207.625 652.07 208.031C652.482 208.438 652.997 208.641 653.617 208.641C654.487 208.641 655.195 208.289 655.742 207.586L656.766 208.562C656.427 209.068 655.974 209.461 655.406 209.742C654.844 210.018 654.211 210.156 653.508 210.156ZM653.281 202.914C652.76 202.914 652.339 203.096 652.016 203.461C651.698 203.826 651.495 204.333 651.406 204.984H655.023V204.844C654.982 204.208 654.812 203.729 654.516 203.406C654.219 203.078 653.807 202.914 653.281 202.914ZM662.805 203.281C662.555 203.24 662.297 203.219 662.031 203.219C661.161 203.219 660.576 203.552 660.273 204.219V210H658.375V201.547H660.188L660.234 202.492C660.693 201.758 661.328 201.391 662.141 201.391C662.411 201.391 662.635 201.427 662.812 201.5L662.805 203.281ZM668.742 207.703C668.742 207.365 668.602 207.107 668.32 206.93C668.044 206.753 667.583 206.596 666.938 206.461C666.292 206.326 665.753 206.154 665.32 205.945C664.372 205.487 663.898 204.823 663.898 203.953C663.898 203.224 664.206 202.615 664.82 202.125C665.435 201.635 666.216 201.391 667.164 201.391C668.174 201.391 668.99 201.641 669.609 202.141C670.234 202.641 670.547 203.289 670.547 204.086H668.648C668.648 203.721 668.513 203.419 668.242 203.18C667.971 202.935 667.612 202.812 667.164 202.812C666.747 202.812 666.406 202.909 666.141 203.102C665.88 203.294 665.75 203.552 665.75 203.875C665.75 204.167 665.872 204.393 666.117 204.555C666.362 204.716 666.857 204.88 667.602 205.047C668.346 205.208 668.93 205.404 669.352 205.633C669.779 205.857 670.094 206.128 670.297 206.445C670.505 206.763 670.609 207.148 670.609 207.602C670.609 208.362 670.294 208.979 669.664 209.453C669.034 209.922 668.208 210.156 667.188 210.156C666.495 210.156 665.878 210.031 665.336 209.781C664.794 209.531 664.372 209.188 664.07 208.75C663.768 208.312 663.617 207.841 663.617 207.336H665.461C665.487 207.784 665.656 208.13 665.969 208.375C666.281 208.615 666.695 208.734 667.211 208.734C667.711 208.734 668.091 208.641 668.352 208.453C668.612 208.26 668.742 208.01 668.742 207.703ZM675.992 210.156C674.789 210.156 673.812 209.779 673.062 209.023C672.318 208.263 671.945 207.253 671.945 205.992V205.758C671.945 204.914 672.107 204.161 672.43 203.5C672.758 202.833 673.216 202.315 673.805 201.945C674.393 201.576 675.049 201.391 675.773 201.391C676.924 201.391 677.812 201.758 678.438 202.492C679.068 203.227 679.383 204.266 679.383 205.609V206.375H673.859C673.917 207.073 674.148 207.625 674.555 208.031C674.966 208.438 675.482 208.641 676.102 208.641C676.971 208.641 677.68 208.289 678.227 207.586L679.25 208.562C678.911 209.068 678.458 209.461 677.891 209.742C677.328 210.018 676.695 210.156 675.992 210.156ZM675.766 202.914C675.245 202.914 674.823 203.096 674.5 203.461C674.182 203.826 673.979 204.333 673.891 204.984H677.508V204.844C677.466 204.208 677.297 203.729 677 203.406C676.703 203.078 676.292 202.914 675.766 202.914Z" fill="#1E73FF"/>
<path d="M430.937 285L420.937 290.774V279.226L430.937 285ZM425.958 286H420.979V284H425.958V286ZM418.489 286H416V284H418.489V286ZM416 286C415.452 286 414.941 286.146 414.5 286.401L413.499 284.67C414.235 284.244 415.091 284 416 284V286ZM413.401 287.5C413.146 287.941 413 288.452 413 289H411C411 288.091 411.244 287.235 411.67 286.499L413.401 287.5ZM413 289V291H411V289H413ZM413 293V297H411V293H413ZM413 299V303H411V299H413ZM413 305V309H411V305H413ZM413 311V315H411V311H413ZM413 317V321H411V317H413ZM413 323V325H411V323H413ZM413 325C413 325.548 413.146 326.059 413.401 326.5L411.67 327.501C411.244 326.765 411 325.909 411 325H413ZM414.5 327.599C414.941 327.854 415.452 328 416 328V330C415.091 330 414.235 329.756 413.499 329.33L414.5 327.599ZM416 328H417.989V330H416V328ZM419.978 328H423.956V330H419.978V328ZM425.945 328H429.923V330H425.945V328ZM431.913 328H435.891V330H431.913V328ZM437.88 328H441.858V330H437.88V328ZM443.847 328H447.825V330H443.847V328ZM449.814 328H453.792V330H449.814V328ZM455.781 328H459.76V330H455.781V328ZM461.749 328H465.727V330H461.749V328ZM467.716 328H471.694V330H467.716V328ZM473.683 328H477.661V330H473.683V328ZM479.65 328H483.628V330H479.65V328ZM485.617 328H489.596V330H485.617V328ZM491.585 328H495.563V330H491.585V328ZM497.552 328H501.53V330H497.552V328ZM503.519 328H507.497V330H503.519V328ZM509.486 328H513.464V330H509.486V328ZM515.454 328H519.432V330H515.454V328ZM521.421 328H525.399V330H521.421V328ZM527.388 328H531.366V330H527.388V328ZM533.355 328H537.333V330H533.355V328ZM539.322 328H543.301V330H539.322V328ZM545.29 328H549.268V330H545.29V328ZM551.257 328H555.235V330H551.257V328ZM557.224 328H561.202V330H557.224V328ZM563.191 328H567.169V330H563.191V328ZM569.159 328H573.137V330H569.159V328ZM575.126 328H579.104V330H575.126V328ZM581.093 328H585.071V330H581.093V328ZM587.06 328H591.038V330H587.06V328ZM593.027 328H597.006V330H593.027V328ZM598.995 328H602.973V330H598.995V328ZM604.962 328H608.94V330H604.962V328ZM610.929 328H614.907V330H610.929V328ZM616.896 328H620.874V330H616.896V328ZM622.864 328H626.842V330H622.864V328ZM628.831 328H632.809V330H628.831V328ZM634.798 328H638.776V330H634.798V328ZM640.765 328H644.743V330H640.765V328ZM646.732 328H650.711V330H646.732V328ZM652.7 328H656.678V330H652.7V328ZM658.667 328H662.645V330H658.667V328ZM664.634 328H668.612V330H664.634V328ZM670.601 328H674.579V330H670.601V328ZM676.569 328H680.547V330H676.569V328ZM682.536 328H686.514V330H682.536V328ZM688.503 328H692.481V330H688.503V328ZM694.47 328H698.448V330H694.47V328ZM700.437 328H704.416V330H700.437V328ZM706.405 328H710.383V330H706.405V328ZM712.372 328H716.35V330H712.372V328ZM718.339 328H722.317V330H718.339V328ZM724.306 328H728.285V330H724.306V328ZM730.274 328H734.252V330H730.274V328ZM736.241 328H740.219V330H736.241V328ZM742.208 328H746.186V330H742.208V328ZM748.175 328H752.153V330H748.175V328ZM754.142 328H758.121V330H754.142V328ZM760.11 328H764.088V330H760.11V328ZM766.077 328H770.055V330H766.077V328ZM772.044 328H776.022V330H772.044V328ZM778.011 328H780V330H778.011V328ZM780 328C780.909 328 781.765 328.244 782.501 328.67L781.5 330.401C781.059 330.146 780.548 330 780 330V328ZM784.33 330.499C784.756 331.235 785 332.091 785 333H783C783 332.452 782.854 331.941 782.599 331.5L784.33 330.499ZM785 333V335.056H783V333H785ZM785 337.111V341.222H783V337.111H785ZM785 343.278V347.389H783V343.278H785ZM785 349.444V353.556H783V349.444H785ZM785 355.611V359.722H783V355.611H785ZM785 361.778V365.889H783V361.778H785ZM785 367.944V370H783V367.944H785ZM785 370C785 370.909 784.756 371.765 784.33 372.501L782.599 371.5C782.854 371.059 783 370.548 783 370H785ZM782.501 374.33C781.765 374.756 780.909 375 780 375V373C780.548 373 781.059 372.854 781.5 372.599L782.501 374.33ZM780 375H778.333V373H780V375ZM776.667 375H773.333V373H776.667V375ZM771.667 375H768.333V373H771.667V375ZM766.667 375H765V373H766.667V375Z" fill="#1E73FF"/>
</svg>
