<svg width="519" height="160" viewBox="0 0 519 160" fill="none" xmlns="http://www.w3.org/2000/svg">
<rect x="1" y="1" width="517" height="158" rx="9" fill="#7187FB" stroke="#001EBB" stroke-width="2"/>
<g filter="url(#filter0_d)">
<rect x="25" y="55" width="80" height="80" rx="6" fill="#FFF000"/>
<rect x="26" y="56" width="78" height="78" rx="5" stroke="#001EBB" stroke-width="2"/>
</g>
<path d="M58.0645 79.1963C57.4668 79.1143 56.9512 79.0732 56.5176 79.0732C55.3691 79.0732 54.7949 79.6123 54.7949 80.6904V81.4902H56.7285V83.0723H54.7949V91H52.6592V83.0723H51.209V81.4902H52.6592V80.6377C52.665 79.5654 52.9814 78.7451 53.6084 78.1768C54.2412 77.6025 55.1318 77.3154 56.2803 77.3154C56.9951 77.3154 58.3018 77.4561 60.2002 77.7373V91H58.0645V79.1963ZM66.748 91.1758C65.3945 91.1758 64.2959 90.751 63.4521 89.9014C62.6143 89.0459 62.1953 87.9092 62.1953 86.4912V86.2275C62.1953 85.2783 62.377 84.4316 62.7402 83.6875C63.1094 82.9375 63.625 82.3545 64.2871 81.9385C64.9492 81.5225 65.6875 81.3145 66.502 81.3145C67.7969 81.3145 68.7959 81.7275 69.499 82.5537C70.208 83.3799 70.5625 84.5488 70.5625 86.0605V86.9219H64.3486C64.4131 87.707 64.6738 88.3281 65.1309 88.7852C65.5938 89.2422 66.1738 89.4707 66.8711 89.4707C67.8496 89.4707 68.6465 89.0752 69.2617 88.2842L70.4131 89.3828C70.0322 89.9512 69.5225 90.3936 68.8838 90.71C68.251 91.0205 67.5391 91.1758 66.748 91.1758ZM66.4932 83.0283C65.9072 83.0283 65.4326 83.2334 65.0693 83.6436C64.7119 84.0537 64.4834 84.625 64.3838 85.3574H68.4531V85.1992C68.4062 84.4844 68.2158 83.9453 67.8818 83.582C67.5479 83.2129 67.085 83.0283 66.4932 83.0283ZM75.6426 84.6191L77.4531 81.4902H79.8262L76.917 86.1748L79.9229 91H77.5674L75.6689 87.748L73.7793 91H71.4062L74.4121 86.1748L71.5117 81.4902H73.8672L75.6426 84.6191ZM50.9014 112H48.7656V102.49H50.9014V112ZM48.6338 100.021C48.6338 99.6924 48.7363 99.4199 48.9414 99.2031C49.1523 98.9863 49.4512 98.8779 49.8379 98.8779C50.2246 98.8779 50.5234 98.9863 50.7344 99.2031C50.9453 99.4199 51.0508 99.6924 51.0508 100.021C51.0508 100.343 50.9453 100.612 50.7344 100.829C50.5234 101.04 50.2246 101.146 49.8379 101.146C49.4512 101.146 49.1523 101.04 48.9414 100.829C48.7363 100.612 48.6338 100.343 48.6338 100.021ZM55.9111 100.179V102.49H57.5898V104.072H55.9111V109.381C55.9111 109.744 55.9814 110.008 56.1221 110.172C56.2686 110.33 56.5264 110.409 56.8955 110.409C57.1416 110.409 57.3906 110.38 57.6426 110.321V111.974C57.1562 112.108 56.6875 112.176 56.2363 112.176C54.5957 112.176 53.7754 111.271 53.7754 109.46V104.072H52.2109V102.49H53.7754V100.179H55.9111ZM63.417 112.176C62.0635 112.176 60.9648 111.751 60.1211 110.901C59.2832 110.046 58.8643 108.909 58.8643 107.491V107.228C58.8643 106.278 59.0459 105.432 59.4092 104.688C59.7783 103.938 60.2939 103.354 60.9561 102.938C61.6182 102.522 62.3564 102.314 63.1709 102.314C64.4658 102.314 65.4648 102.728 66.168 103.554C66.877 104.38 67.2314 105.549 67.2314 107.061V107.922H61.0176C61.082 108.707 61.3428 109.328 61.7998 109.785C62.2627 110.242 62.8428 110.471 63.54 110.471C64.5186 110.471 65.3154 110.075 65.9307 109.284L67.082 110.383C66.7012 110.951 66.1914 111.394 65.5527 111.71C64.9199 112.021 64.208 112.176 63.417 112.176ZM63.1621 104.028C62.5762 104.028 62.1016 104.233 61.7383 104.644C61.3809 105.054 61.1523 105.625 61.0527 106.357H65.1221V106.199C65.0752 105.484 64.8848 104.945 64.5508 104.582C64.2168 104.213 63.7539 104.028 63.1621 104.028ZM70.9053 102.49L70.9668 103.483C71.6348 102.704 72.5488 102.314 73.709 102.314C74.9805 102.314 75.8506 102.801 76.3193 103.773C77.0107 102.801 77.9834 102.314 79.2373 102.314C80.2861 102.314 81.0654 102.604 81.5752 103.185C82.0908 103.765 82.3545 104.62 82.3662 105.751V112H80.2305V105.812C80.2305 105.209 80.0986 104.767 79.835 104.485C79.5713 104.204 79.1348 104.063 78.5254 104.063C78.0391 104.063 77.6406 104.195 77.3301 104.459C77.0254 104.717 76.8115 105.057 76.6885 105.479L76.6973 112H74.5615V105.742C74.5322 104.623 73.9609 104.063 72.8477 104.063C71.9922 104.063 71.3857 104.412 71.0283 105.109V112H68.8926V102.49H70.9053Z" fill="#001EBB"/>
<g filter="url(#filter1_d)">
<rect x="120" y="55" width="80" height="80" rx="6" fill="#FFF000"/>
<rect x="121" y="56" width="78" height="78" rx="5" stroke="#001EBB" stroke-width="2"/>
</g>
<path d="M153.064 79.1963C152.467 79.1143 151.951 79.0732 151.518 79.0732C150.369 79.0732 149.795 79.6123 149.795 80.6904V81.4902H151.729V83.0723H149.795V91H147.659V83.0723H146.209V81.4902H147.659V80.6377C147.665 79.5654 147.981 78.7451 148.608 78.1768C149.241 77.6025 150.132 77.3154 151.28 77.3154C151.995 77.3154 153.302 77.4561 155.2 77.7373V91H153.064V79.1963ZM161.748 91.1758C160.395 91.1758 159.296 90.751 158.452 89.9014C157.614 89.0459 157.195 87.9092 157.195 86.4912V86.2275C157.195 85.2783 157.377 84.4316 157.74 83.6875C158.109 82.9375 158.625 82.3545 159.287 81.9385C159.949 81.5225 160.688 81.3145 161.502 81.3145C162.797 81.3145 163.796 81.7275 164.499 82.5537C165.208 83.3799 165.562 84.5488 165.562 86.0605V86.9219H159.349C159.413 87.707 159.674 88.3281 160.131 88.7852C160.594 89.2422 161.174 89.4707 161.871 89.4707C162.85 89.4707 163.646 89.0752 164.262 88.2842L165.413 89.3828C165.032 89.9512 164.522 90.3936 163.884 90.71C163.251 91.0205 162.539 91.1758 161.748 91.1758ZM161.493 83.0283C160.907 83.0283 160.433 83.2334 160.069 83.6436C159.712 84.0537 159.483 84.625 159.384 85.3574H163.453V85.1992C163.406 84.4844 163.216 83.9453 162.882 83.582C162.548 83.2129 162.085 83.0283 161.493 83.0283ZM170.643 84.6191L172.453 81.4902H174.826L171.917 86.1748L174.923 91H172.567L170.669 87.748L168.779 91H166.406L169.412 86.1748L166.512 81.4902H168.867L170.643 84.6191ZM145.901 112H143.766V102.49H145.901V112ZM143.634 100.021C143.634 99.6924 143.736 99.4199 143.941 99.2031C144.152 98.9863 144.451 98.8779 144.838 98.8779C145.225 98.8779 145.523 98.9863 145.734 99.2031C145.945 99.4199 146.051 99.6924 146.051 100.021C146.051 100.343 145.945 100.612 145.734 100.829C145.523 101.04 145.225 101.146 144.838 101.146C144.451 101.146 144.152 101.04 143.941 100.829C143.736 100.612 143.634 100.343 143.634 100.021ZM150.911 100.179V102.49H152.59V104.072H150.911V109.381C150.911 109.744 150.981 110.008 151.122 110.172C151.269 110.33 151.526 110.409 151.896 110.409C152.142 110.409 152.391 110.38 152.643 110.321V111.974C152.156 112.108 151.688 112.176 151.236 112.176C149.596 112.176 148.775 111.271 148.775 109.46V104.072H147.211V102.49H148.775V100.179H150.911ZM158.417 112.176C157.063 112.176 155.965 111.751 155.121 110.901C154.283 110.046 153.864 108.909 153.864 107.491V107.228C153.864 106.278 154.046 105.432 154.409 104.688C154.778 103.938 155.294 103.354 155.956 102.938C156.618 102.522 157.356 102.314 158.171 102.314C159.466 102.314 160.465 102.728 161.168 103.554C161.877 104.38 162.231 105.549 162.231 107.061V107.922H156.018C156.082 108.707 156.343 109.328 156.8 109.785C157.263 110.242 157.843 110.471 158.54 110.471C159.519 110.471 160.315 110.075 160.931 109.284L162.082 110.383C161.701 110.951 161.191 111.394 160.553 111.71C159.92 112.021 159.208 112.176 158.417 112.176ZM158.162 104.028C157.576 104.028 157.102 104.233 156.738 104.644C156.381 105.054 156.152 105.625 156.053 106.357H160.122V106.199C160.075 105.484 159.885 104.945 159.551 104.582C159.217 104.213 158.754 104.028 158.162 104.028ZM165.905 102.49L165.967 103.483C166.635 102.704 167.549 102.314 168.709 102.314C169.98 102.314 170.851 102.801 171.319 103.773C172.011 102.801 172.983 102.314 174.237 102.314C175.286 102.314 176.065 102.604 176.575 103.185C177.091 103.765 177.354 104.62 177.366 105.751V112H175.23V105.812C175.23 105.209 175.099 104.767 174.835 104.485C174.571 104.204 174.135 104.063 173.525 104.063C173.039 104.063 172.641 104.195 172.33 104.459C172.025 104.717 171.812 105.057 171.688 105.479L171.697 112H169.562V105.742C169.532 104.623 168.961 104.063 167.848 104.063C166.992 104.063 166.386 104.412 166.028 105.109V112H163.893V102.49H165.905Z" fill="#001EBB"/>
<g filter="url(#filter2_d)">
<rect x="215" y="55" width="80" height="80" rx="6" fill="#FFF000"/>
<rect x="216" y="56" width="78" height="78" rx="5" stroke="#001EBB" stroke-width="2"/>
</g>
<path d="M248.064 79.1963C247.467 79.1143 246.951 79.0732 246.518 79.0732C245.369 79.0732 244.795 79.6123 244.795 80.6904V81.4902H246.729V83.0723H244.795V91H242.659V83.0723H241.209V81.4902H242.659V80.6377C242.665 79.5654 242.981 78.7451 243.608 78.1768C244.241 77.6025 245.132 77.3154 246.28 77.3154C246.995 77.3154 248.302 77.4561 250.2 77.7373V91H248.064V79.1963ZM256.748 91.1758C255.395 91.1758 254.296 90.751 253.452 89.9014C252.614 89.0459 252.195 87.9092 252.195 86.4912V86.2275C252.195 85.2783 252.377 84.4316 252.74 83.6875C253.109 82.9375 253.625 82.3545 254.287 81.9385C254.949 81.5225 255.688 81.3145 256.502 81.3145C257.797 81.3145 258.796 81.7275 259.499 82.5537C260.208 83.3799 260.562 84.5488 260.562 86.0605V86.9219H254.349C254.413 87.707 254.674 88.3281 255.131 88.7852C255.594 89.2422 256.174 89.4707 256.871 89.4707C257.85 89.4707 258.646 89.0752 259.262 88.2842L260.413 89.3828C260.032 89.9512 259.522 90.3936 258.884 90.71C258.251 91.0205 257.539 91.1758 256.748 91.1758ZM256.493 83.0283C255.907 83.0283 255.433 83.2334 255.069 83.6436C254.712 84.0537 254.483 84.625 254.384 85.3574H258.453V85.1992C258.406 84.4844 258.216 83.9453 257.882 83.582C257.548 83.2129 257.085 83.0283 256.493 83.0283ZM265.643 84.6191L267.453 81.4902H269.826L266.917 86.1748L269.923 91H267.567L265.669 87.748L263.779 91H261.406L264.412 86.1748L261.512 81.4902H263.867L265.643 84.6191ZM240.901 112H238.766V102.49H240.901V112ZM238.634 100.021C238.634 99.6924 238.736 99.4199 238.941 99.2031C239.152 98.9863 239.451 98.8779 239.838 98.8779C240.225 98.8779 240.523 98.9863 240.734 99.2031C240.945 99.4199 241.051 99.6924 241.051 100.021C241.051 100.343 240.945 100.612 240.734 100.829C240.523 101.04 240.225 101.146 239.838 101.146C239.451 101.146 239.152 101.04 238.941 100.829C238.736 100.612 238.634 100.343 238.634 100.021ZM245.911 100.179V102.49H247.59V104.072H245.911V109.381C245.911 109.744 245.981 110.008 246.122 110.172C246.269 110.33 246.526 110.409 246.896 110.409C247.142 110.409 247.391 110.38 247.643 110.321V111.974C247.156 112.108 246.688 112.176 246.236 112.176C244.596 112.176 243.775 111.271 243.775 109.46V104.072H242.211V102.49H243.775V100.179H245.911ZM253.417 112.176C252.063 112.176 250.965 111.751 250.121 110.901C249.283 110.046 248.864 108.909 248.864 107.491V107.228C248.864 106.278 249.046 105.432 249.409 104.688C249.778 103.938 250.294 103.354 250.956 102.938C251.618 102.522 252.356 102.314 253.171 102.314C254.466 102.314 255.465 102.728 256.168 103.554C256.877 104.38 257.231 105.549 257.231 107.061V107.922H251.018C251.082 108.707 251.343 109.328 251.8 109.785C252.263 110.242 252.843 110.471 253.54 110.471C254.519 110.471 255.315 110.075 255.931 109.284L257.082 110.383C256.701 110.951 256.191 111.394 255.553 111.71C254.92 112.021 254.208 112.176 253.417 112.176ZM253.162 104.028C252.576 104.028 252.102 104.233 251.738 104.644C251.381 105.054 251.152 105.625 251.053 106.357H255.122V106.199C255.075 105.484 254.885 104.945 254.551 104.582C254.217 104.213 253.754 104.028 253.162 104.028ZM260.905 102.49L260.967 103.483C261.635 102.704 262.549 102.314 263.709 102.314C264.98 102.314 265.851 102.801 266.319 103.773C267.011 102.801 267.983 102.314 269.237 102.314C270.286 102.314 271.065 102.604 271.575 103.185C272.091 103.765 272.354 104.62 272.366 105.751V112H270.23V105.812C270.23 105.209 270.099 104.767 269.835 104.485C269.571 104.204 269.135 104.063 268.525 104.063C268.039 104.063 267.641 104.195 267.33 104.459C267.025 104.717 266.812 105.057 266.688 105.479L266.697 112H264.562V105.742C264.532 104.623 263.961 104.063 262.848 104.063C261.992 104.063 261.386 104.412 261.028 105.109V112H258.893V102.49H260.905Z" fill="#001EBB"/>
<g filter="url(#filter3_d)">
<path d="M35.1641 25.1875C34.6042 25.1224 34.0833 25.0898 33.6016 25.0898C32.3255 25.0898 31.6875 25.6335 31.6875 26.7207V27.4336H33.7871V29.5039H31.6875V38H28.8555V29.5039H27.2832V27.4336H28.8555V26.6133C28.8685 25.3893 29.2526 24.4486 30.0078 23.791C30.763 23.127 31.8307 22.7949 33.2109 22.7949C34.194 22.7949 35.7891 22.8991 37.9961 23.1074V38H35.1641V25.1875ZM45.2129 38.1953C43.6634 38.1953 42.4004 37.7201 41.4238 36.7695C40.4538 35.819 39.9688 34.5527 39.9688 32.9707V32.6973C39.9688 31.6361 40.1738 30.6888 40.584 29.8555C40.9941 29.0156 41.5736 28.3711 42.3223 27.9219C43.0775 27.4661 43.9368 27.2383 44.9004 27.2383C46.3457 27.2383 47.4818 27.694 48.3086 28.6055C49.1419 29.5169 49.5586 30.8092 49.5586 32.4824V33.6348H42.8301C42.9212 34.3249 43.1947 34.8783 43.6504 35.2949C44.1126 35.7116 44.6953 35.9199 45.3984 35.9199C46.4857 35.9199 47.3353 35.526 47.9473 34.7383L49.334 36.291C48.9108 36.89 48.3379 37.3587 47.6152 37.6973C46.8926 38.0293 46.0918 38.1953 45.2129 38.1953ZM44.8906 29.5234C44.3307 29.5234 43.875 29.7122 43.5234 30.0898C43.1784 30.4674 42.957 31.0078 42.8594 31.7109H46.7852V31.4863C46.7721 30.8613 46.6029 30.3796 46.2773 30.041C45.9518 29.696 45.4896 29.5234 44.8906 29.5234ZM55.1934 30.5879L56.9707 27.4336H59.9883L56.9805 32.6094L60.1152 38H57.0879L55.2031 34.6797L53.3281 38H50.291L53.4258 32.6094L50.4277 27.4336H53.4551L55.1934 30.5879ZM70.7207 35.9199C71.2415 35.9199 71.6647 35.7767 71.9902 35.4902C72.3158 35.2038 72.485 34.8229 72.498 34.3477H75.1445C75.138 35.0638 74.9427 35.7214 74.5586 36.3203C74.1745 36.9128 73.6471 37.375 72.9766 37.707C72.3125 38.0326 71.5768 38.1953 70.7695 38.1953C69.2591 38.1953 68.0677 37.7168 67.1953 36.7598C66.3229 35.7962 65.8867 34.4681 65.8867 32.7754V32.5898C65.8867 30.9622 66.3197 29.6634 67.1855 28.6934C68.0514 27.7233 69.2396 27.2383 70.75 27.2383C72.0716 27.2383 73.1296 27.6159 73.9238 28.3711C74.7246 29.1198 75.1315 30.1191 75.1445 31.3691H72.498C72.485 30.8223 72.3158 30.3796 71.9902 30.041C71.6647 29.696 71.235 29.5234 70.7012 29.5234C70.0436 29.5234 69.5456 29.7643 69.207 30.2461C68.875 30.7214 68.709 31.4961 68.709 32.5703V32.8633C68.709 33.9505 68.875 34.7318 69.207 35.207C69.5391 35.6823 70.0436 35.9199 70.7207 35.9199ZM76.3164 32.6191C76.3164 31.571 76.5182 30.6367 76.9219 29.8164C77.3255 28.9961 77.9049 28.3613 78.6602 27.9121C79.4219 27.4629 80.304 27.2383 81.3066 27.2383C82.7324 27.2383 83.8945 27.6745 84.793 28.5469C85.6979 29.4193 86.2025 30.6042 86.3066 32.1016L86.3262 32.8242C86.3262 34.4453 85.8737 35.7474 84.9688 36.7305C84.0638 37.707 82.8496 38.1953 81.3262 38.1953C79.8027 38.1953 78.5853 37.707 77.6738 36.7305C76.7689 35.7539 76.3164 34.4258 76.3164 32.7461V32.6191ZM79.1387 32.8242C79.1387 33.8268 79.3275 34.5951 79.7051 35.1289C80.0827 35.6562 80.623 35.9199 81.3262 35.9199C82.0098 35.9199 82.5436 35.6595 82.9277 35.1387C83.3118 34.6113 83.5039 33.7715 83.5039 32.6191C83.5039 31.6361 83.3118 30.8743 82.9277 30.334C82.5436 29.7936 82.0033 29.5234 81.3066 29.5234C80.6165 29.5234 80.0827 29.7936 79.7051 30.334C79.3275 30.8678 79.1387 31.6979 79.1387 32.8242ZM90.6621 27.4336L90.75 28.6543C91.5052 27.7103 92.5176 27.2383 93.7871 27.2383C94.9069 27.2383 95.7402 27.5671 96.2871 28.2246C96.834 28.8822 97.1139 29.8652 97.127 31.1738V38H94.3047V31.2422C94.3047 30.6432 94.1745 30.2103 93.9141 29.9434C93.6536 29.6699 93.2207 29.5332 92.6152 29.5332C91.821 29.5332 91.2253 29.8717 90.8281 30.5488V38H88.0059V27.4336H90.6621ZM102.654 24.8359V27.4336H104.461V29.5039H102.654V34.7773C102.654 35.168 102.729 35.4479 102.879 35.6172C103.029 35.7865 103.315 35.8711 103.738 35.8711C104.051 35.8711 104.327 35.8483 104.568 35.8027V37.9414C104.015 38.1107 103.445 38.1953 102.859 38.1953C100.88 38.1953 99.8711 37.196 99.832 35.1973V29.5039H98.2891V27.4336H99.832V24.8359H102.654ZM112.156 38C112.026 37.7461 111.932 37.4303 111.873 37.0527C111.189 37.8145 110.301 38.1953 109.207 38.1953C108.172 38.1953 107.312 37.8958 106.629 37.2969C105.952 36.6979 105.613 35.9427 105.613 35.0312C105.613 33.9115 106.027 33.0521 106.854 32.4531C107.687 31.8542 108.888 31.5514 110.457 31.5449H111.756V30.9395C111.756 30.4512 111.629 30.0605 111.375 29.7676C111.128 29.4746 110.734 29.3281 110.193 29.3281C109.718 29.3281 109.344 29.4421 109.07 29.6699C108.803 29.8978 108.67 30.2103 108.67 30.6074H105.848C105.848 29.9954 106.036 29.429 106.414 28.9082C106.792 28.3874 107.326 27.9805 108.016 27.6875C108.706 27.388 109.48 27.2383 110.34 27.2383C111.642 27.2383 112.674 27.5671 113.436 28.2246C114.204 28.8757 114.588 29.7936 114.588 30.9785V35.5586C114.594 36.5612 114.734 37.3197 115.008 37.834V38H112.156ZM109.822 36.0371C110.239 36.0371 110.623 35.946 110.975 35.7637C111.326 35.5749 111.587 35.3242 111.756 35.0117V33.1953H110.701C109.288 33.1953 108.536 33.6836 108.445 34.6602L108.436 34.8262C108.436 35.1777 108.559 35.4674 108.807 35.6953C109.054 35.9232 109.393 36.0371 109.822 36.0371ZM119.734 38H116.902V27.4336H119.734V38ZM116.736 24.6992C116.736 24.276 116.876 23.9277 117.156 23.6543C117.443 23.3809 117.83 23.2441 118.318 23.2441C118.8 23.2441 119.184 23.3809 119.471 23.6543C119.757 23.9277 119.9 24.276 119.9 24.6992C119.9 25.1289 119.754 25.4805 119.461 25.7539C119.174 26.0273 118.794 26.1641 118.318 26.1641C117.843 26.1641 117.459 26.0273 117.166 25.7539C116.88 25.4805 116.736 25.1289 116.736 24.6992ZM124.666 27.4336L124.754 28.6543C125.509 27.7103 126.521 27.2383 127.791 27.2383C128.911 27.2383 129.744 27.5671 130.291 28.2246C130.838 28.8822 131.118 29.8652 131.131 31.1738V38H128.309V31.2422C128.309 30.6432 128.178 30.2103 127.918 29.9434C127.658 29.6699 127.225 29.5332 126.619 29.5332C125.825 29.5332 125.229 29.8717 124.832 30.5488V38H122.01V27.4336H124.666ZM138.143 38.1953C136.593 38.1953 135.33 37.7201 134.354 36.7695C133.383 35.819 132.898 34.5527 132.898 32.9707V32.6973C132.898 31.6361 133.104 30.6888 133.514 29.8555C133.924 29.0156 134.503 28.3711 135.252 27.9219C136.007 27.4661 136.867 27.2383 137.83 27.2383C139.275 27.2383 140.411 27.694 141.238 28.6055C142.072 29.5169 142.488 30.8092 142.488 32.4824V33.6348H135.76C135.851 34.3249 136.124 34.8783 136.58 35.2949C137.042 35.7116 137.625 35.9199 138.328 35.9199C139.415 35.9199 140.265 35.526 140.877 34.7383L142.264 36.291C141.84 36.89 141.268 37.3587 140.545 37.6973C139.822 38.0293 139.021 38.1953 138.143 38.1953ZM137.82 29.5234C137.26 29.5234 136.805 29.7122 136.453 30.0898C136.108 30.4674 135.887 31.0078 135.789 31.7109H139.715V31.4863C139.702 30.8613 139.533 30.3796 139.207 30.041C138.882 29.696 138.419 29.5234 137.82 29.5234ZM150.037 30.0801C149.653 30.028 149.314 30.002 149.021 30.002C147.954 30.002 147.254 30.3633 146.922 31.0859V38H144.1V27.4336H146.766L146.844 28.6934C147.41 27.7233 148.195 27.2383 149.197 27.2383C149.51 27.2383 149.803 27.2806 150.076 27.3652L150.037 30.0801Z" fill="white"/>
</g>
<defs>
<filter id="filter0_d" x="25" y="55" width="86" height="86" filterUnits="userSpaceOnUse" color-interpolation-filters="sRGB">
<feFlood flood-opacity="0" result="BackgroundImageFix"/>
<feColorMatrix in="SourceAlpha" type="matrix" values="0 0 0 0 0 0 0 0 0 0 0 0 0 0 0 0 0 0 127 0"/>
<feOffset dx="6" dy="6"/>
<feColorMatrix type="matrix" values="0 0 0 0 0 0 0 0 0 0 0 0 0 0 0 0 0 0 0.15 0"/>
<feBlend mode="normal" in2="BackgroundImageFix" result="effect1_dropShadow"/>
<feBlend mode="normal" in="SourceGraphic" in2="effect1_dropShadow" result="shape"/>
</filter>
<filter id="filter1_d" x="120" y="55" width="86" height="86" filterUnits="userSpaceOnUse" color-interpolation-filters="sRGB">
<feFlood flood-opacity="0" result="BackgroundImageFix"/>
<feColorMatrix in="SourceAlpha" type="matrix" values="0 0 0 0 0 0 0 0 0 0 0 0 0 0 0 0 0 0 127 0"/>
<feOffset dx="6" dy="6"/>
<feColorMatrix type="matrix" values="0 0 0 0 0 0 0 0 0 0 0 0 0 0 0 0 0 0 0.15 0"/>
<feBlend mode="normal" in2="BackgroundImageFix" result="effect1_dropShadow"/>
<feBlend mode="normal" in="SourceGraphic" in2="effect1_dropShadow" result="shape"/>
</filter>
<filter id="filter2_d" x="215" y="55" width="86" height="86" filterUnits="userSpaceOnUse" color-interpolation-filters="sRGB">
<feFlood flood-opacity="0" result="BackgroundImageFix"/>
<feColorMatrix in="SourceAlpha" type="matrix" values="0 0 0 0 0 0 0 0 0 0 0 0 0 0 0 0 0 0 127 0"/>
<feOffset dx="6" dy="6"/>
<feColorMatrix type="matrix" values="0 0 0 0 0 0 0 0 0 0 0 0 0 0 0 0 0 0 0.15 0"/>
<feBlend mode="normal" in2="BackgroundImageFix" result="effect1_dropShadow"/>
<feBlend mode="normal" in="SourceGraphic" in2="effect1_dropShadow" result="shape"/>
</filter>
<filter id="filter3_d" x="27" y="20" width="125" height="24" filterUnits="userSpaceOnUse" color-interpolation-filters="sRGB">
<feFlood flood-opacity="0" result="BackgroundImageFix"/>
<feColorMatrix in="SourceAlpha" type="matrix" values="0 0 0 0 0 0 0 0 0 0 0 0 0 0 0 0 0 0 127 0"/>
<feOffset dx="1" dy="1"/>
<feColorMatrix type="matrix" values="0 0 0 0 0 0 0 0 0 0 0 0 0 0 0 0 0 0 0.25 0"/>
<feBlend mode="normal" in2="BackgroundImageFix" result="effect1_dropShadow"/>
<feBlend mode="normal" in="SourceGraphic" in2="effect1_dropShadow" result="shape"/>
</filter>
</defs>
</svg>
