<svg width="350" height="207" viewBox="0 0 350 207" fill="none" xmlns="http://www.w3.org/2000/svg">
<rect x="1" y="27" width="348" height="179" rx="5" fill="#F7F7F7" stroke="#AAAAAA" stroke-width="2" stroke-dasharray="6 4"/>
<path d="M5.63965 3.81934C5.1748 3.75553 4.77376 3.72363 4.43652 3.72363C3.54329 3.72363 3.09668 4.1429 3.09668 4.98145V5.60352H4.60059V6.83398H3.09668V13H1.43555V6.83398H0.307617V5.60352H1.43555V4.94043C1.4401 4.10645 1.6862 3.46842 2.17383 3.02637C2.66602 2.57975 3.35872 2.35645 4.25195 2.35645C4.80794 2.35645 5.82422 2.46582 7.30078 2.68457V13H5.63965V3.81934ZM12.3936 13.1367C11.3408 13.1367 10.4863 12.8063 9.83008 12.1455C9.17839 11.4801 8.85254 10.596 8.85254 9.49316V9.28809C8.85254 8.5498 8.99382 7.89128 9.27637 7.3125C9.56348 6.72917 9.96452 6.27572 10.4795 5.95215C10.9945 5.62858 11.5687 5.4668 12.2021 5.4668C13.2093 5.4668 13.9863 5.78809 14.5332 6.43066C15.0846 7.07324 15.3604 7.98242 15.3604 9.1582V9.82812H10.5273C10.5775 10.4388 10.7803 10.9219 11.1357 11.2773C11.4958 11.6328 11.9469 11.8105 12.4893 11.8105C13.2503 11.8105 13.8701 11.5029 14.3486 10.8877L15.2441 11.7422C14.9479 12.1842 14.5514 12.5283 14.0547 12.7744C13.5625 13.016 13.0088 13.1367 12.3936 13.1367ZM12.1953 6.7998C11.7396 6.7998 11.3704 6.95931 11.0879 7.27832C10.8099 7.59733 10.6322 8.04167 10.5547 8.61133H13.7197V8.48828C13.6833 7.93229 13.5352 7.51302 13.2754 7.23047C13.0156 6.94336 12.6556 6.7998 12.1953 6.7998ZM19.3115 8.03711L20.7197 5.60352H22.5654L20.3027 9.24707L22.6406 13H20.8086L19.332 10.4707L17.8623 13H16.0166L18.3545 9.24707L16.0986 5.60352H17.9307L19.3115 8.03711ZM30.2217 11.8105C30.6364 11.8105 30.9805 11.6898 31.2539 11.4482C31.5273 11.2067 31.6732 10.9082 31.6914 10.5527H33.2568C33.2386 11.013 33.0951 11.4437 32.8262 11.8447C32.5573 12.2412 32.1927 12.5557 31.7324 12.7881C31.2721 13.0205 30.7754 13.1367 30.2422 13.1367C29.2077 13.1367 28.3874 12.8018 27.7812 12.1318C27.1751 11.4619 26.8721 10.5368 26.8721 9.35645V9.18555C26.8721 8.0599 27.1729 7.15983 27.7744 6.48535C28.376 5.80632 29.1963 5.4668 30.2354 5.4668C31.1149 5.4668 31.8304 5.72428 32.3818 6.23926C32.9378 6.74967 33.2295 7.42188 33.2568 8.25586H31.6914C31.6732 7.83203 31.5273 7.4834 31.2539 7.20996C30.985 6.93652 30.641 6.7998 30.2217 6.7998C29.6839 6.7998 29.2692 6.99577 28.9775 7.3877C28.6859 7.77507 28.5378 8.36523 28.5332 9.1582V9.4248C28.5332 10.2269 28.6768 10.8262 28.9639 11.2227C29.2555 11.6146 29.6748 11.8105 30.2217 11.8105ZM34.2002 9.2334C34.2002 8.50879 34.3438 7.8571 34.6309 7.27832C34.918 6.69499 35.3213 6.24837 35.8408 5.93848C36.3604 5.62402 36.9574 5.4668 37.6318 5.4668C38.6299 5.4668 39.4388 5.78809 40.0586 6.43066C40.6829 7.07324 41.0202 7.92546 41.0703 8.9873L41.0771 9.37695C41.0771 10.1061 40.9359 10.7578 40.6533 11.332C40.3753 11.9062 39.9743 12.3506 39.4502 12.665C38.9307 12.9795 38.3291 13.1367 37.6455 13.1367C36.6019 13.1367 35.7656 12.7904 35.1367 12.0977C34.5124 11.4004 34.2002 10.473 34.2002 9.31543V9.2334ZM35.8613 9.37695C35.8613 10.138 36.0186 10.735 36.333 11.168C36.6475 11.5964 37.085 11.8105 37.6455 11.8105C38.2061 11.8105 38.6413 11.5918 38.9512 11.1543C39.2656 10.7168 39.4229 10.0765 39.4229 9.2334C39.4229 8.486 39.2611 7.89355 38.9375 7.45605C38.6185 7.01855 38.1833 6.7998 37.6318 6.7998C37.0895 6.7998 36.6589 7.01628 36.3398 7.44922C36.0208 7.8776 35.8613 8.52018 35.8613 9.37695ZM44.0234 5.60352L44.0713 6.45801C44.6182 5.7972 45.3359 5.4668 46.2246 5.4668C47.765 5.4668 48.5488 6.34863 48.5762 8.1123V13H46.915V8.20801C46.915 7.73861 46.8125 7.39225 46.6074 7.16895C46.4069 6.94108 46.0765 6.82715 45.6162 6.82715C44.9463 6.82715 44.4473 7.13021 44.1191 7.73633V13H42.458V5.60352H44.0234ZM52.3564 3.80566V5.60352H53.6621V6.83398H52.3564V10.9629C52.3564 11.2454 52.4111 11.4505 52.5205 11.5781C52.6344 11.7012 52.835 11.7627 53.1221 11.7627C53.3135 11.7627 53.5072 11.7399 53.7031 11.6943V12.9795C53.3249 13.0843 52.9603 13.1367 52.6094 13.1367C51.3333 13.1367 50.6953 12.4326 50.6953 11.0244V6.83398H49.4785V5.60352H50.6953V3.80566H52.3564ZM59.3564 13C59.2835 12.8587 59.2197 12.6286 59.165 12.3096C58.6364 12.861 57.9893 13.1367 57.2236 13.1367C56.4808 13.1367 55.8747 12.9248 55.4053 12.501C54.9359 12.0771 54.7012 11.5531 54.7012 10.9287C54.7012 10.1403 54.9928 9.53646 55.5762 9.11719C56.1641 8.69336 57.0026 8.48145 58.0918 8.48145H59.1104V7.99609C59.1104 7.61328 59.0033 7.30794 58.7891 7.08008C58.5749 6.84766 58.249 6.73145 57.8115 6.73145C57.4333 6.73145 57.1234 6.82715 56.8818 7.01855C56.6403 7.2054 56.5195 7.44466 56.5195 7.73633H54.8584C54.8584 7.33073 54.9928 6.95247 55.2617 6.60156C55.5306 6.24609 55.8952 5.9681 56.3555 5.76758C56.8203 5.56706 57.3376 5.4668 57.9072 5.4668C58.7731 5.4668 59.4635 5.68555 59.9785 6.12305C60.4935 6.55599 60.7578 7.16667 60.7715 7.95508V11.291C60.7715 11.9564 60.8649 12.4873 61.0518 12.8838V13H59.3564ZM57.5312 11.8037C57.8594 11.8037 58.167 11.724 58.4541 11.5645C58.7458 11.4049 58.9645 11.1908 59.1104 10.9219V9.52734H58.2148C57.5996 9.52734 57.137 9.63444 56.8271 9.84863C56.5173 10.0628 56.3623 10.3659 56.3623 10.7578C56.3623 11.0768 56.4671 11.332 56.6768 11.5234C56.891 11.7103 57.1758 11.8037 57.5312 11.8037ZM64.2783 13H62.6172V5.60352H64.2783V13ZM62.5146 3.68262C62.5146 3.42741 62.5944 3.21549 62.7539 3.04688C62.918 2.87826 63.1504 2.79395 63.4512 2.79395C63.752 2.79395 63.9844 2.87826 64.1484 3.04688C64.3125 3.21549 64.3945 3.42741 64.3945 3.68262C64.3945 3.93327 64.3125 4.1429 64.1484 4.31152C63.9844 4.47559 63.752 4.55762 63.4512 4.55762C63.1504 4.55762 62.918 4.47559 62.7539 4.31152C62.5944 4.1429 62.5146 3.93327 62.5146 3.68262ZM67.6348 5.60352L67.6826 6.45801C68.2295 5.7972 68.9473 5.4668 69.8359 5.4668C71.3763 5.4668 72.1602 6.34863 72.1875 8.1123V13H70.5264V8.20801C70.5264 7.73861 70.4238 7.39225 70.2188 7.16895C70.0182 6.94108 69.6878 6.82715 69.2275 6.82715C68.5576 6.82715 68.0586 7.13021 67.7305 7.73633V13H66.0693V5.60352H67.6348ZM77.1436 13.1367C76.0908 13.1367 75.2363 12.8063 74.5801 12.1455C73.9284 11.4801 73.6025 10.596 73.6025 9.49316V9.28809C73.6025 8.5498 73.7438 7.89128 74.0264 7.3125C74.3135 6.72917 74.7145 6.27572 75.2295 5.95215C75.7445 5.62858 76.3187 5.4668 76.9521 5.4668C77.9593 5.4668 78.7363 5.78809 79.2832 6.43066C79.8346 7.07324 80.1104 7.98242 80.1104 9.1582V9.82812H75.2773C75.3275 10.4388 75.5303 10.9219 75.8857 11.2773C76.2458 11.6328 76.6969 11.8105 77.2393 11.8105C78.0003 11.8105 78.6201 11.5029 79.0986 10.8877L79.9941 11.7422C79.6979 12.1842 79.3014 12.5283 78.8047 12.7744C78.3125 13.016 77.7588 13.1367 77.1436 13.1367ZM76.9453 6.7998C76.4896 6.7998 76.1204 6.95931 75.8379 7.27832C75.5599 7.59733 75.3822 8.04167 75.3047 8.61133H78.4697V8.48828C78.4333 7.93229 78.2852 7.51302 78.0254 7.23047C77.7656 6.94336 77.4056 6.7998 76.9453 6.7998ZM85.2783 7.12109C85.0596 7.08464 84.834 7.06641 84.6016 7.06641C83.8405 7.06641 83.3278 7.35807 83.0635 7.94141V13H81.4023V5.60352H82.9883L83.0293 6.43066C83.4303 5.78809 83.9863 5.4668 84.6973 5.4668C84.9342 5.4668 85.1302 5.4987 85.2852 5.5625L85.2783 7.12109Z" fill="#BBBBBB"/>
<g opacity="0.8">
<path d="M10 47C10 45.3431 11.3431 44 13 44H58C59.6569 44 61 45.3431 61 47V68C61 69.6569 59.6569 71 58 71H13C11.3431 71 10 69.6569 10 68V47Z" fill="#1E73FF"/>
<path d="M36.8052 61.46H35.0327V52.8979L32.418 53.7915V52.29L36.5781 50.7593H36.8052V61.46Z" fill="white"/>
</g>
<g opacity="0.8">
<path d="M71 47C71 45.3431 72.3431 44 74 44H100C101.657 44 103 45.3431 103 47V68C103 69.6569 101.657 71 100 71H74C72.3431 71 71 69.6569 71 68V47Z" fill="#1E73FF"/>
<path d="M90.6064 61.46H83.436V60.2368L86.9883 56.3623C87.501 55.791 87.8647 55.3149 88.0796 54.9341C88.2993 54.5483 88.4092 54.1626 88.4092 53.7769C88.4092 53.269 88.2651 52.8589 87.9771 52.5464C87.6938 52.2339 87.3105 52.0776 86.8271 52.0776C86.251 52.0776 85.8042 52.2534 85.4868 52.605C85.1694 52.9565 85.0107 53.4375 85.0107 54.0479H83.231C83.231 53.3984 83.3774 52.8149 83.6704 52.2974C83.9683 51.7749 84.3906 51.3696 84.9375 51.0815C85.4893 50.7935 86.124 50.6494 86.8418 50.6494C87.877 50.6494 88.6924 50.9106 89.2881 51.4331C89.8887 51.9507 90.189 52.6685 90.189 53.5864C90.189 54.1187 90.0376 54.6777 89.7349 55.2637C89.437 55.8447 88.9463 56.5063 88.2627 57.2485L85.6553 60.0391H90.6064V61.46Z" fill="white"/>
</g>
<g opacity="0.8">
<path d="M113 47C113 45.3431 114.343 44 116 44H163C164.657 44 166 45.3431 166 47V68C166 69.6569 164.657 71 163 71H116C114.343 71 113 69.6569 113 68V47Z" fill="#1E73FF"/>
<path d="M137.943 55.3149H139.027C139.574 55.3101 140.006 55.1685 140.324 54.8901C140.646 54.6118 140.807 54.209 140.807 53.6816C140.807 53.1738 140.673 52.7808 140.404 52.5024C140.141 52.2192 139.735 52.0776 139.188 52.0776C138.71 52.0776 138.317 52.2168 138.009 52.4951C137.702 52.7686 137.548 53.1274 137.548 53.5718H135.768C135.768 53.0249 135.912 52.5269 136.2 52.0776C136.493 51.6284 136.898 51.2793 137.416 51.0303C137.938 50.7764 138.522 50.6494 139.167 50.6494C140.231 50.6494 141.066 50.918 141.671 51.4551C142.282 51.9873 142.587 52.7295 142.587 53.6816C142.587 54.1602 142.433 54.6118 142.125 55.0366C141.823 55.4565 141.43 55.7739 140.946 55.9888C141.532 56.189 141.977 56.5039 142.279 56.9336C142.587 57.3633 142.741 57.876 142.741 58.4717C142.741 59.4287 142.411 60.1904 141.752 60.7568C141.098 61.3232 140.236 61.6064 139.167 61.6064C138.141 61.6064 137.301 61.333 136.647 60.7861C135.993 60.2393 135.666 59.5117 135.666 58.6035H137.445C137.445 59.0723 137.602 59.4531 137.914 59.7461C138.231 60.0391 138.656 60.1855 139.188 60.1855C139.74 60.1855 140.175 60.0391 140.492 59.7461C140.81 59.4531 140.968 59.0283 140.968 58.4717C140.968 57.9102 140.802 57.478 140.47 57.1753C140.138 56.8726 139.645 56.7212 138.991 56.7212H137.943V55.3149Z" fill="white"/>
</g>
<g opacity="0.8">
<path d="M176 47C176 45.3431 177.343 44 179 44H205C206.657 44 208 45.3431 208 47V68C208 69.6569 206.657 71 205 71H179C177.343 71 176 69.6569 176 68V47Z" fill="#1E73FF"/>
<path d="M194.457 57.6587H195.782V59.0869H194.457V61.46H192.677V59.0869H188.07L188.019 58.0029L192.618 50.7959H194.457V57.6587ZM189.886 57.6587H192.677V53.2056L192.545 53.4399L189.886 57.6587Z" fill="white"/>
</g>
<g opacity="0.8">
<path d="M218 47C218 45.3431 219.343 44 221 44H262C263.657 44 265 45.3431 265 47V68C265 69.6569 263.657 71 262 71H221C219.343 71 218 69.6569 218 68V47Z" fill="#1E73FF"/>
<path d="M238.662 56.1719L239.241 50.7959H244.968V52.334H240.72L240.427 54.8828C240.92 54.5996 241.477 54.458 242.097 54.458C243.113 54.458 243.901 54.7827 244.463 55.4321C245.029 56.0815 245.312 56.9556 245.312 58.0542C245.312 59.1382 245 60.0024 244.375 60.647C243.75 61.2866 242.893 61.6064 241.804 61.6064C240.828 61.6064 240.017 61.3306 239.373 60.7788C238.733 60.2222 238.386 59.4897 238.333 58.5815H240.054C240.122 59.0991 240.308 59.4971 240.61 59.7754C240.913 60.0488 241.309 60.1855 241.797 60.1855C242.344 60.1855 242.769 59.9902 243.071 59.5996C243.379 59.209 243.533 58.6768 243.533 58.0029C243.533 57.3535 243.364 56.8408 243.027 56.4648C242.69 56.084 242.227 55.8936 241.636 55.8936C241.313 55.8936 241.04 55.9375 240.815 56.0254C240.591 56.1084 240.347 56.2744 240.083 56.5234L238.662 56.1719Z" fill="white"/>
</g>
<g opacity="0.8">
<path d="M10 106C10 104.343 11.3431 103 13 103H51C52.6569 103 54 104.343 54 106V127C54 128.657 52.6569 130 51 130H13C11.3431 130 10 128.657 10 127V106Z" fill="#1E73FF"/>
<path d="M34.3726 109.745V111.217H34.1528C33.1567 111.231 32.3608 111.505 31.7651 112.037C31.1694 112.569 30.8154 113.324 30.7031 114.3C31.2744 113.7 32.0044 113.399 32.8931 113.399C33.8354 113.399 34.5776 113.731 35.1196 114.396C35.6665 115.06 35.9399 115.917 35.9399 116.966C35.9399 118.05 35.6201 118.929 34.9805 119.603C34.3457 120.272 33.5107 120.606 32.4756 120.606C31.4111 120.606 30.5469 120.213 29.8828 119.427C29.2236 118.641 28.894 117.611 28.894 116.336V115.729C28.894 113.858 29.3481 112.394 30.2563 111.334C31.1694 110.274 32.4805 109.745 34.1895 109.745H34.3726ZM32.4609 114.835C32.0703 114.835 31.7114 114.945 31.3843 115.165C31.062 115.384 30.8252 115.677 30.6738 116.043V116.585C30.6738 117.376 30.8398 118.006 31.1719 118.475C31.5039 118.939 31.9336 119.171 32.4609 119.171C32.9883 119.171 33.4058 118.973 33.7134 118.578C34.021 118.182 34.1748 117.662 34.1748 117.018C34.1748 116.373 34.0186 115.848 33.7061 115.443C33.3936 115.038 32.9785 114.835 32.4609 114.835Z" fill="white"/>
</g>
<g opacity="0.8">
<path d="M64 106C64 104.343 65.3431 103 67 103H139C140.657 103 142 104.343 142 106V127C142 128.657 140.657 130 139 130H67C65.3431 130 64 128.657 64 127V106Z" fill="#1E73FF"/>
<path d="M107.232 110.785L102.97 120.46H101.102L105.357 111.224H99.8423V109.796H107.232V110.785Z" fill="white"/>
</g>
<g opacity="0.8">
<path d="M152 106C152 104.343 153.343 103 155 103H193C194.657 103 196 104.343 196 106V127C196 128.657 194.657 130 193 130H155C153.343 130 152 128.657 152 127V106Z" fill="#1E73FF"/>
<path d="M177.552 112.608C177.552 113.131 177.417 113.597 177.149 114.007C176.88 114.413 176.514 114.732 176.05 114.967C176.607 115.226 177.034 115.58 177.332 116.029C177.635 116.478 177.786 116.986 177.786 117.552C177.786 118.49 177.469 119.234 176.834 119.786C176.199 120.333 175.354 120.606 174.3 120.606C173.24 120.606 172.391 120.331 171.751 119.779C171.116 119.227 170.799 118.485 170.799 117.552C170.799 116.981 170.95 116.468 171.253 116.014C171.556 115.56 171.98 115.211 172.527 114.967C172.068 114.732 171.705 114.413 171.436 114.007C171.172 113.597 171.041 113.131 171.041 112.608C171.041 111.7 171.333 110.98 171.919 110.448C172.505 109.916 173.296 109.649 174.292 109.649C175.293 109.649 176.087 109.916 176.673 110.448C177.259 110.98 177.552 111.7 177.552 112.608ZM176.006 117.464C176.006 116.937 175.848 116.512 175.53 116.19C175.218 115.863 174.803 115.699 174.285 115.699C173.768 115.699 173.353 115.86 173.04 116.183C172.732 116.505 172.579 116.932 172.579 117.464C172.579 117.987 172.73 118.404 173.033 118.717C173.34 119.029 173.763 119.186 174.3 119.186C174.837 119.186 175.254 119.034 175.552 118.731C175.855 118.429 176.006 118.006 176.006 117.464ZM175.779 112.674C175.779 112.21 175.645 111.83 175.376 111.532C175.108 111.229 174.747 111.078 174.292 111.078C173.838 111.078 173.479 111.222 173.216 111.51C172.952 111.793 172.82 112.181 172.82 112.674C172.82 113.163 172.952 113.551 173.216 113.839C173.484 114.127 173.846 114.271 174.3 114.271C174.754 114.271 175.113 114.127 175.376 113.839C175.645 113.551 175.779 113.163 175.779 112.674Z" fill="white"/>
</g>
<g opacity="0.8">
<path d="M206 106C206 104.343 207.343 103 209 103H262C263.657 103 265 104.343 265 106V127C265 128.657 263.657 130 262 130H209C207.343 130 206 128.657 206 127V106Z" fill="#1E73FF"/>
<path opacity="0.9" d="M237.632 116C237.036 116.629 236.34 116.944 235.544 116.944C234.607 116.944 233.86 116.617 233.303 115.963C232.747 115.304 232.468 114.439 232.468 113.37C232.468 112.667 232.61 112.03 232.893 111.458C233.176 110.887 233.579 110.443 234.102 110.125C234.624 109.808 235.229 109.649 235.918 109.649C236.992 109.649 237.844 110.05 238.474 110.851C239.104 111.651 239.419 112.723 239.419 114.066V114.564C239.419 116.488 238.984 117.955 238.115 118.966C237.246 119.977 235.95 120.489 234.226 120.504H234.014V119.032H234.27C235.32 119.017 236.125 118.766 236.687 118.277C237.249 117.784 237.563 117.025 237.632 116ZM235.918 115.553C236.274 115.553 236.609 115.45 236.921 115.245C237.234 115.04 237.476 114.757 237.646 114.396V113.7C237.646 112.914 237.485 112.281 237.163 111.803C236.841 111.324 236.423 111.085 235.911 111.085C235.398 111.085 234.988 111.297 234.68 111.722C234.377 112.142 234.226 112.674 234.226 113.319C234.226 113.988 234.38 114.527 234.688 114.938C234.995 115.348 235.405 115.553 235.918 115.553Z" fill="white"/>
</g>
<g opacity="0.8">
<path d="M10 166C10 164.343 11.3431 163 13 163H63.25C64.9069 163 66.25 164.343 66.25 166V187C66.25 188.657 64.9069 190 63.25 190H13C11.3431 190 10 188.657 10 187V166Z" fill="#1E73FF"/>
<path d="M35.4048 180.46H33.6323V171.898L31.0176 172.792V171.29L35.1777 169.759H35.4048V180.46ZM46.0615 175.97C46.0615 177.503 45.7734 178.661 45.1973 179.442C44.626 180.218 43.7544 180.606 42.5825 180.606C41.4302 180.606 40.561 180.228 39.9751 179.471C39.394 178.709 39.0962 177.584 39.0815 176.095V174.249C39.0815 172.716 39.3672 171.566 39.9385 170.799C40.5146 170.033 41.3911 169.649 42.5679 169.649C43.7349 169.649 44.604 170.023 45.1753 170.77C45.7515 171.517 46.0469 172.635 46.0615 174.125V175.97ZM44.2817 173.978C44.2817 172.977 44.145 172.245 43.8716 171.781C43.5981 171.312 43.1636 171.078 42.5679 171.078C41.9868 171.078 41.5596 171.3 41.2861 171.744C41.0127 172.184 40.8687 172.872 40.854 173.81V176.227C40.854 177.223 40.9932 177.965 41.2715 178.453C41.5498 178.941 41.9868 179.186 42.5825 179.186C43.1538 179.186 43.5762 178.961 43.8496 178.512C44.123 178.058 44.2671 177.35 44.2817 176.388V173.978Z" fill="white"/>
</g>
<g opacity="0.8">
<path d="M76.25 166C76.25 164.343 77.5931 163 79.25 163H129.5C131.157 163 132.5 164.343 132.5 166V187C132.5 188.657 131.157 190 129.5 190H79.25C77.5931 190 76.25 188.657 76.25 187V166Z" fill="#1E73FF"/>
<path d="M101.655 180.46H99.8823V171.898L97.2676 172.792V171.29L101.428 169.759H101.655V180.46ZM110.18 180.46H108.408V171.898L105.793 172.792V171.29L109.953 169.759H110.18V180.46Z" fill="white"/>
</g>
<path d="M10 86.4995L338 86.4998" stroke="#AAAAAA" stroke-dasharray="4 2"/>
<path d="M10 146.5L338 146.5" stroke="#AAAAAA" stroke-dasharray="4 2"/>
<path d="M319.5 82L322.387 77L316.613 77L319.5 82ZM319.5 32L316.613 37L322.387 37L319.5 32ZM320 77.8333L320 73.6667L319 73.6667L319 77.8333L320 77.8333ZM320 71.5833L320 67.4167L319 67.4167L319 71.5833L320 71.5833ZM320 65.3333L320 61.1667L319 61.1667L319 65.3333L320 65.3333ZM320 59.0833L320 54.9167L319 54.9167L319 59.0833L320 59.0833ZM320 52.8333L320 48.6667L319 48.6667L319 52.8333L320 52.8333ZM320 46.5833L320 42.4167L319 42.4167L319 46.5833L320 46.5833ZM320 40.3333L320 36.1667L319 36.1667L319 40.3333L320 40.3333Z" fill="#AAAAAA"/>
<path d="M319.5 142L322.387 137L316.613 137L319.5 142ZM319.5 91L316.613 96L322.387 96L319.5 91ZM320 138.222L320 134.444L319 134.444L319 138.222L320 138.222ZM320 132.556L320 128.778L319 128.778L319 132.556L320 132.556ZM320 126.889L320 123.111L319 123.111L319 126.889L320 126.889ZM320 121.222L320 117.444L319 117.444L319 121.222L320 121.222ZM320 115.556L320 111.778L319 111.778L319 115.556L320 115.556ZM320 109.889L320 106.111L319 106.111L319 109.889L320 109.889ZM320 104.222L320 100.444L319 100.444L319 104.222L320 104.222ZM320 98.5556L320 94.7778L319 94.7778L319 98.5556L320 98.5556Z" fill="#AAAAAA"/>
<path d="M319.5 201L322.387 196L316.613 196L319.5 201ZM319.5 151L316.613 156L322.387 156L319.5 151ZM320 196.833L320 192.667L319 192.667L319 196.833L320 196.833ZM320 190.583L320 186.417L319 186.417L319 190.583L320 190.583ZM320 184.333L320 180.167L319 180.167L319 184.333L320 184.333ZM320 178.083L320 173.917L319 173.917L319 178.083L320 178.083ZM320 171.833L320 167.667L319 167.667L319 171.833L320 171.833ZM320 165.583L320 161.417L319 161.417L319 165.583L320 165.583ZM320 159.333L320 155.167L319 155.167L319 159.333L320 159.333Z" fill="#AAAAAA"/>
</svg>
