<svg width="485" height="306" viewBox="0 0 485 306" fill="none" xmlns="http://www.w3.org/2000/svg">
<rect x="450" y="92" width="213" height="144" rx="5" transform="rotate(90 450 92)" fill="#F7F7F7" stroke="#AAAAAA" stroke-width="2" stroke-dasharray="6 4"/>
<g opacity="0.8">
<path d="M383 104C383 102.343 384.343 101 386 101H438C439.657 101 441 102.343 441 104V148C441 149.657 439.657 151 438 151H386C384.343 151 383 149.657 383 148V104Z" fill="#1E73FF"/>
<path d="M402.68 126.307L402.86 126.947H421.06C421.4 126.947 421.64 126.847 421.7 126.627C420.5 125.487 418.42 123.667 418.42 123.667L416.56 126.307H402.68Z" fill="white"/>
</g>
<g opacity="0.8">
<path d="M383 164C383 162.343 384.343 161 386 161H438C439.657 161 441 162.343 441 164V208C441 209.657 439.657 211 438 211H386C384.343 211 383 209.657 383 208V164Z" fill="#1E73FF"/>
<path d="M402.84 192.847L403 193.407H420.9C421.2 193.407 421.44 193.307 421.5 193.087C420.36 192.067 418.44 190.547 418.44 190.547L416.72 192.847H402.84ZM404.84 181.507L405 182.067H418.84C419.14 182.067 419.38 181.967 419.44 181.747C418.34 180.767 416.46 179.267 416.46 179.267L414.8 181.507H404.84Z" fill="white"/>
</g>
<g opacity="0.8">
<path d="M383 224C383 222.343 384.343 221 386 221H439C440.657 221 442 222.343 442 224V268C442 269.657 440.657 271 439 271H386C384.343 271 383 269.657 383 268V224Z" fill="#1E73FF"/>
<path d="M403.13 253.907L403.29 254.467H421.61C421.91 254.467 422.15 254.367 422.21 254.147C421.09 253.207 419.23 251.807 419.23 251.807L417.57 253.907H403.13ZM405.47 246.647L405.63 247.207H419.05C419.35 247.207 419.59 247.107 419.65 246.887C418.57 245.987 416.81 244.667 416.81 244.667L415.23 246.647H405.47ZM404.17 240.027L404.33 240.587H420.51C420.81 240.587 421.05 240.487 421.11 240.267C420.01 239.347 418.17 237.967 418.17 237.967L416.55 240.027H404.17Z" fill="white"/>
</g>
<g opacity="0.8">
<path d="M315 104C315 102.343 316.343 101 318 101H370C371.657 101 373 102.343 373 104V148C373 149.657 371.657 151 370 151H318C316.343 151 315 149.657 315 148V104Z" fill="#1E73FF"/>
<path d="M338.18 133.227V130.627L338.28 130.747C342.48 128.547 342.86 125.267 342.96 120.987H344.66V127.767C344.66 129.087 344.84 129.527 346.32 129.527H347.26C349.18 129.527 349.84 129.107 349.84 128.307C349.84 127.907 349.74 127.627 349.26 127.387L349.18 125.427H348.96C348.72 126.247 348.46 127.127 348.32 127.327C348.24 127.467 348.12 127.487 347.98 127.507C347.88 127.527 347.7 127.527 347.48 127.527H347C346.72 127.527 346.68 127.447 346.68 127.187V121.107V120.987H349.94V133.227H338.18ZM340.76 120.987C340.74 124.787 340.72 127.847 338.18 130.327V120.987H340.76ZM350.86 119.187L349.74 120.427H338.36L335.9 119.427V135.727H336.28C337.24 135.727 338.18 135.167 338.18 134.887V133.787H349.94V135.567H350.32C351.14 135.567 352.22 135.027 352.24 134.847V121.367C352.66 121.287 352.94 121.107 353.08 120.947L350.86 119.187Z" fill="white"/>
</g>
<g opacity="0.8">
<path d="M315 164C315 162.343 316.343 161 318 161H370C371.657 161 373 162.343 373 164V208C373 209.657 371.657 211 370 211H318C316.343 211 315 209.657 315 208V164Z" fill="#1E73FF"/>
<path d="M346.88 186.827V194.647H341.4C341.92 192.587 342.58 189.687 343.2 186.827H346.88ZM349.94 194.647H349.28V187.167C349.7 187.107 349.96 186.947 350.08 186.787L347.84 185.027L346.68 186.267H343.32C343.72 184.327 344.1 182.427 344.4 180.847H351.84C352.14 180.847 352.36 180.747 352.42 180.527C351.52 179.687 349.96 178.427 349.96 178.427L348.6 180.267H335.9L336.06 180.847H341.92C341.64 182.407 341.28 184.307 340.86 186.267H336.84L337.02 186.827H340.74C340.14 189.667 339.48 192.567 338.94 194.647H334.68L334.84 195.207H353.04C353.34 195.207 353.56 195.107 353.62 194.887C352.76 194.027 351.28 192.687 351.28 192.687L349.94 194.647Z" fill="white"/>
</g>
<path d="M95.1436 11.4541H90.0811V14.8818H96.0225V17H87.4443V4.20312H96.0049V6.33887H90.0811V9.38867H95.1436V11.4541ZM99.7402 7.49023L99.8193 8.58887C100.499 7.73926 101.41 7.31445 102.553 7.31445C103.561 7.31445 104.311 7.61035 104.803 8.20215C105.295 8.79395 105.547 9.67871 105.559 10.8564V17H103.019V10.918C103.019 10.3789 102.901 9.98926 102.667 9.74902C102.433 9.50293 102.043 9.37988 101.498 9.37988C100.783 9.37988 100.247 9.68457 99.8896 10.2939V17H97.3496V7.49023H99.7402ZM107.123 12.1748C107.123 10.7158 107.469 9.54102 108.16 8.65039C108.857 7.75977 109.795 7.31445 110.973 7.31445C112.016 7.31445 112.827 7.67188 113.407 8.38672L113.513 7.49023H115.815V16.6836C115.815 17.5156 115.625 18.2393 115.244 18.8545C114.869 19.4697 114.339 19.9385 113.653 20.2607C112.968 20.583 112.165 20.7441 111.245 20.7441C110.548 20.7441 109.868 20.6035 109.206 20.3223C108.544 20.0469 108.043 19.6895 107.703 19.25L108.828 17.7031C109.461 18.4121 110.229 18.7666 111.131 18.7666C111.805 18.7666 112.329 18.585 112.704 18.2217C113.079 17.8643 113.267 17.3545 113.267 16.6924V16.1826C112.681 16.8447 111.91 17.1758 110.955 17.1758C109.812 17.1758 108.887 16.7305 108.178 15.8398C107.475 14.9434 107.123 13.7568 107.123 12.2803V12.1748ZM109.663 12.3594C109.663 13.2207 109.836 13.8975 110.182 14.3896C110.527 14.876 111.002 15.1191 111.605 15.1191C112.379 15.1191 112.933 14.8291 113.267 14.249V10.25C112.927 9.66992 112.379 9.37988 111.623 9.37988C111.014 9.37988 110.533 9.62891 110.182 10.127C109.836 10.625 109.663 11.3691 109.663 12.3594ZM120.456 17H117.907V3.5H120.456V17ZM125.237 17H122.688V7.49023H125.237V17ZM122.539 5.0293C122.539 4.64844 122.665 4.33496 122.917 4.08887C123.175 3.84277 123.523 3.71973 123.963 3.71973C124.396 3.71973 124.742 3.84277 125 4.08887C125.258 4.33496 125.387 4.64844 125.387 5.0293C125.387 5.41602 125.255 5.73242 124.991 5.97852C124.733 6.22461 124.391 6.34766 123.963 6.34766C123.535 6.34766 123.189 6.22461 122.926 5.97852C122.668 5.73242 122.539 5.41602 122.539 5.0293ZM132.488 14.3721C132.488 14.0615 132.333 13.8184 132.022 13.6426C131.718 13.4609 131.226 13.2998 130.546 13.1592C128.284 12.6846 127.153 11.7236 127.153 10.2764C127.153 9.43262 127.502 8.72949 128.199 8.16699C128.902 7.59863 129.819 7.31445 130.95 7.31445C132.157 7.31445 133.121 7.59863 133.842 8.16699C134.568 8.73535 134.932 9.47363 134.932 10.3818H132.392C132.392 10.0186 132.274 9.71973 132.04 9.48535C131.806 9.24512 131.439 9.125 130.941 9.125C130.514 9.125 130.183 9.22168 129.948 9.41504C129.714 9.6084 129.597 9.85449 129.597 10.1533C129.597 10.4346 129.729 10.6631 129.992 10.8389C130.262 11.0088 130.713 11.1582 131.346 11.2871C131.979 11.4102 132.512 11.5508 132.945 11.709C134.287 12.2012 134.958 13.0537 134.958 14.2666C134.958 15.1338 134.586 15.8369 133.842 16.376C133.098 16.9092 132.137 17.1758 130.959 17.1758C130.162 17.1758 129.453 17.0352 128.832 16.7539C128.217 16.4668 127.733 16.0771 127.382 15.585C127.03 15.0869 126.854 14.5508 126.854 13.9766H129.263C129.286 14.4277 129.453 14.7734 129.764 15.0137C130.074 15.2539 130.49 15.374 131.012 15.374C131.498 15.374 131.864 15.2832 132.11 15.1016C132.362 14.9141 132.488 14.6709 132.488 14.3721ZM139.08 8.52734C139.754 7.71875 140.601 7.31445 141.62 7.31445C143.683 7.31445 144.729 8.5127 144.758 10.9092V17H142.218V10.9795C142.218 10.4346 142.101 10.0332 141.866 9.77539C141.632 9.51172 141.242 9.37988 140.697 9.37988C139.953 9.37988 139.414 9.66699 139.08 10.2412V17H136.54V3.5H139.08V8.52734Z" fill="#222222"/>
<path d="M40.7271 37.8374C40.0581 37.6958 39.4819 37.625 38.9985 37.625C37.8511 37.625 37.2773 38.2256 37.2773 39.4268V40.7158H40.5V41.7778H37.2773V47H35.981V41.7778H33.6152V40.7158H35.981V39.5C35.981 37.542 37.0015 36.563 39.0425 36.563C39.5503 36.563 40.1118 36.6216 40.7271 36.7388V37.8374ZM44.9531 37.6982H42.7778V36.6509H46.2422V45.938H48.4321V47H42.5361V45.938H44.9531V37.6982ZM56.9062 42.9351C56.9062 43.1157 56.9038 43.2671 56.8989 43.3892C56.894 43.5112 56.8867 43.626 56.877 43.7334H51.7134C51.7134 44.4854 51.9233 45.064 52.3433 45.4692C52.7632 45.8696 53.3687 46.0698 54.1597 46.0698C54.3745 46.0698 54.5894 46.0625 54.8042 46.0479C55.019 46.0283 55.2266 46.0039 55.4268 45.9746C55.627 45.9453 55.8174 45.9136 55.998 45.8794C56.1836 45.8403 56.3545 45.7988 56.5107 45.7549V46.8022C56.1641 46.8999 55.771 46.978 55.3315 47.0366C54.897 47.1001 54.4453 47.1318 53.9766 47.1318C53.3467 47.1318 52.8047 47.0464 52.3506 46.8755C51.8965 46.7046 51.5229 46.458 51.23 46.1357C50.9419 45.8086 50.7271 45.4106 50.5854 44.9419C50.4487 44.4683 50.3804 43.9336 50.3804 43.3379C50.3804 42.8203 50.4536 42.332 50.6001 41.873C50.7515 41.4092 50.9688 41.0039 51.252 40.6572C51.54 40.3057 51.8916 40.0273 52.3066 39.8223C52.7217 39.6172 53.1929 39.5146 53.7202 39.5146C54.2329 39.5146 54.687 39.5952 55.0825 39.7563C55.478 39.9175 55.8101 40.147 56.0786 40.4448C56.3521 40.7378 56.5571 41.0967 56.6938 41.5215C56.8354 41.9414 56.9062 42.4126 56.9062 42.9351ZM55.5806 42.752C55.5952 42.4248 55.5635 42.127 55.4854 41.8584C55.4072 41.585 55.2852 41.3506 55.1191 41.1553C54.958 40.96 54.7554 40.8086 54.5112 40.7012C54.2671 40.5889 53.9839 40.5327 53.6616 40.5327C53.3833 40.5327 53.1294 40.5864 52.8999 40.6938C52.6704 40.8013 52.4727 40.9526 52.3066 41.1479C52.1406 41.3433 52.0063 41.5776 51.9038 41.8511C51.8013 42.1245 51.7378 42.4248 51.7134 42.752H55.5806ZM65.5708 47H63.8789L61.894 44.1948L59.9312 47H58.2832L61.1323 43.3086L58.415 39.6465H60.0483L61.9819 42.4736L63.8789 39.6465H65.4536L62.6924 43.3379L65.5708 47ZM72.3311 43.6089H67.9512V42.4077H72.3311V43.6089ZM81.9624 37.8374C81.2935 37.6958 80.7173 37.625 80.2339 37.625C79.0864 37.625 78.5127 38.2256 78.5127 39.4268V40.7158H81.7354V41.7778H78.5127V47H77.2163V41.7778H74.8506V40.7158H77.2163V39.5C77.2163 37.542 78.2368 36.563 80.2778 36.563C80.7856 36.563 81.3472 36.6216 81.9624 36.7388V37.8374ZM86.1885 37.6982H84.0132V36.6509H87.4775V45.938H89.6675V47H83.7715V45.938H86.1885V37.6982ZM98.332 43.2646C98.332 43.8359 98.2515 44.3608 98.0903 44.8394C97.9292 45.313 97.6973 45.7207 97.3945 46.0625C97.0918 46.3994 96.7231 46.6631 96.2886 46.8535C95.854 47.0391 95.3608 47.1318 94.8091 47.1318C94.2817 47.1318 93.8081 47.0513 93.3882 46.8901C92.9731 46.7241 92.6191 46.4824 92.3262 46.165C92.0381 45.8477 91.8159 45.4546 91.6597 44.9858C91.5083 44.5171 91.4326 43.9775 91.4326 43.3672C91.4326 42.7959 91.5132 42.2759 91.6743 41.8071C91.8354 41.3335 92.0674 40.9282 92.3701 40.5913C92.6729 40.2495 93.0415 39.9858 93.4761 39.8003C93.9106 39.6099 94.4038 39.5146 94.9556 39.5146C95.4829 39.5146 95.9541 39.5977 96.3691 39.7637C96.7891 39.9248 97.1431 40.1641 97.4312 40.4814C97.7241 40.7939 97.9463 41.1846 98.0977 41.6533C98.2539 42.1221 98.332 42.6592 98.332 43.2646ZM97.0283 43.3232C97.0283 42.8691 96.9771 42.4736 96.8745 42.1367C96.7769 41.7949 96.6353 41.5117 96.4497 41.2871C96.2642 41.0576 96.0371 40.8867 95.7686 40.7744C95.5049 40.6572 95.2095 40.5986 94.8823 40.5986C94.5015 40.5986 94.1743 40.6743 93.9009 40.8257C93.6323 40.9722 93.4102 41.1699 93.2344 41.4189C93.0635 41.668 92.9365 41.9585 92.8535 42.2905C92.7754 42.6177 92.7363 42.9619 92.7363 43.3232C92.7363 43.7773 92.7852 44.1753 92.8828 44.5171C92.9854 44.8589 93.1294 45.1445 93.3149 45.374C93.5005 45.5986 93.7251 45.7695 93.9888 45.8867C94.2524 45.999 94.5503 46.0552 94.8823 46.0552C95.2632 46.0552 95.5879 45.9819 95.8564 45.8354C96.1299 45.6841 96.3521 45.4839 96.5229 45.2349C96.6987 44.9858 96.8257 44.6978 96.9038 44.3706C96.9868 44.0386 97.0283 43.6895 97.0283 43.3232ZM106.989 39.6465L105.92 47H104.375L103.312 43.9238L103.1 43.1768L102.858 43.9678L101.84 47H100.339L99.2769 39.6465H100.522L101.137 44.6416L101.269 45.7549L101.584 44.7808L102.653 41.4775H103.569L104.719 44.7368L105.048 45.7109L105.158 44.6782L105.729 39.6465H106.989ZM111.376 39.5146C111.528 39.5146 111.672 39.5464 111.809 39.6099C111.945 39.6685 112.065 39.749 112.167 39.8516C112.27 39.9541 112.351 40.0737 112.409 40.2104C112.473 40.3472 112.504 40.4912 112.504 40.6426C112.504 40.7988 112.473 40.9453 112.409 41.082C112.351 41.2139 112.27 41.3311 112.167 41.4336C112.065 41.5361 111.945 41.6167 111.809 41.6753C111.672 41.7339 111.528 41.7632 111.376 41.7632C111.22 41.7632 111.074 41.7339 110.937 41.6753C110.805 41.6167 110.688 41.5361 110.585 41.4336C110.483 41.3311 110.402 41.2139 110.344 41.082C110.285 40.9453 110.256 40.7988 110.256 40.6426C110.256 40.4912 110.285 40.3472 110.344 40.2104C110.402 40.0737 110.483 39.9541 110.585 39.8516C110.688 39.749 110.805 39.6685 110.937 39.6099C111.074 39.5464 111.22 39.5146 111.376 39.5146ZM111.376 44.8833C111.528 44.8833 111.672 44.915 111.809 44.9785C111.945 45.0371 112.065 45.1177 112.167 45.2202C112.27 45.3228 112.351 45.4424 112.409 45.5791C112.473 45.7158 112.504 45.8599 112.504 46.0112C112.504 46.1675 112.473 46.314 112.409 46.4507C112.351 46.5825 112.27 46.6997 112.167 46.8022C112.065 46.9048 111.945 46.9854 111.809 47.0439C111.672 47.1025 111.528 47.1318 111.376 47.1318C111.22 47.1318 111.074 47.1025 110.937 47.0439C110.805 46.9854 110.688 46.9048 110.585 46.8022C110.483 46.6997 110.402 46.5825 110.344 46.4507C110.285 46.314 110.256 46.1675 110.256 46.0112C110.256 45.8599 110.285 45.7158 110.344 45.5791C110.402 45.4424 110.483 45.3228 110.585 45.2202C110.688 45.1177 110.805 45.0371 110.937 44.9785C111.074 44.915 111.22 44.8833 111.376 44.8833ZM125.219 39.6465H126.384L126.42 41.0015C126.855 40.479 127.282 40.1006 127.702 39.8662C128.127 39.6318 128.554 39.5146 128.984 39.5146C129.746 39.5146 130.322 39.7612 130.712 40.2544C131.108 40.7476 131.291 41.48 131.262 42.4517H129.973C129.987 41.8071 129.892 41.3408 129.687 41.0527C129.487 40.7598 129.191 40.6133 128.801 40.6133C128.63 40.6133 128.457 40.645 128.281 40.7085C128.11 40.7671 127.932 40.8647 127.746 41.0015C127.565 41.1333 127.373 41.3042 127.167 41.5142C126.962 41.7241 126.743 41.978 126.508 42.2759V47H125.219V39.6465ZM139.567 43.2646C139.567 43.8359 139.487 44.3608 139.326 44.8394C139.165 45.313 138.933 45.7207 138.63 46.0625C138.327 46.3994 137.958 46.6631 137.524 46.8535C137.089 47.0391 136.596 47.1318 136.044 47.1318C135.517 47.1318 135.043 47.0513 134.624 46.8901C134.208 46.7241 133.854 46.4824 133.562 46.165C133.273 45.8477 133.051 45.4546 132.895 44.9858C132.744 44.5171 132.668 43.9775 132.668 43.3672C132.668 42.7959 132.749 42.2759 132.91 41.8071C133.071 41.3335 133.303 40.9282 133.605 40.5913C133.908 40.2495 134.277 39.9858 134.711 39.8003C135.146 39.6099 135.639 39.5146 136.191 39.5146C136.718 39.5146 137.189 39.5977 137.604 39.7637C138.024 39.9248 138.378 40.1641 138.667 40.4814C138.959 40.7939 139.182 41.1846 139.333 41.6533C139.489 42.1221 139.567 42.6592 139.567 43.2646ZM138.264 43.3232C138.264 42.8691 138.212 42.4736 138.11 42.1367C138.012 41.7949 137.871 41.5117 137.685 41.2871C137.5 41.0576 137.272 40.8867 137.004 40.7744C136.74 40.6572 136.445 40.5986 136.118 40.5986C135.737 40.5986 135.41 40.6743 135.136 40.8257C134.868 40.9722 134.646 41.1699 134.47 41.4189C134.299 41.668 134.172 41.9585 134.089 42.2905C134.011 42.6177 133.972 42.9619 133.972 43.3232C133.972 43.7773 134.021 44.1753 134.118 44.5171C134.221 44.8589 134.365 45.1445 134.55 45.374C134.736 45.5986 134.96 45.7695 135.224 45.8867C135.488 45.999 135.786 46.0552 136.118 46.0552C136.499 46.0552 136.823 45.9819 137.092 45.8354C137.365 45.6841 137.587 45.4839 137.758 45.2349C137.934 44.9858 138.061 44.6978 138.139 44.3706C138.222 44.0386 138.264 43.6895 138.264 43.3232ZM148.225 39.6465L147.155 47H145.61L144.548 43.9238L144.335 43.1768L144.094 43.9678L143.076 47H141.574L140.512 39.6465H141.757L142.373 44.6416L142.504 45.7549L142.819 44.7808L143.889 41.4775H144.804L145.954 44.7368L146.284 45.7109L146.394 44.6782L146.965 39.6465H148.225ZM164.719 39.6465L163.649 47H162.104L161.042 43.9238L160.83 43.1768L160.588 43.9678L159.57 47H158.068L157.006 39.6465H158.251L158.867 44.6416L158.999 45.7549L159.313 44.7808L160.383 41.4775H161.298L162.448 44.7368L162.778 45.7109L162.888 44.6782L163.459 39.6465H164.719ZM166.455 39.6465H167.619L167.656 41.0015C168.09 40.479 168.518 40.1006 168.938 39.8662C169.362 39.6318 169.79 39.5146 170.219 39.5146C170.981 39.5146 171.557 39.7612 171.948 40.2544C172.343 40.7476 172.526 41.48 172.497 42.4517H171.208C171.223 41.8071 171.127 41.3408 170.922 41.0527C170.722 40.7598 170.427 40.6133 170.036 40.6133C169.865 40.6133 169.692 40.645 169.516 40.7085C169.345 40.7671 169.167 40.8647 168.981 41.0015C168.801 41.1333 168.608 41.3042 168.403 41.5142C168.198 41.7241 167.978 41.978 167.744 42.2759V47H166.455V39.6465ZM179.125 47L179.096 46.0112C178.696 46.4067 178.288 46.6924 177.873 46.8682C177.463 47.0439 177.031 47.1318 176.577 47.1318C176.157 47.1318 175.798 47.0781 175.5 46.9707C175.202 46.8633 174.956 46.7168 174.76 46.5312C174.57 46.3408 174.428 46.1187 174.335 45.8647C174.248 45.6108 174.204 45.335 174.204 45.0371C174.204 44.2998 174.477 43.7236 175.024 43.3086C175.576 42.8887 176.389 42.6787 177.463 42.6787H178.986V42.0342C178.986 41.5996 178.847 41.2529 178.569 40.9941C178.291 40.7305 177.866 40.5986 177.294 40.5986C176.879 40.5986 176.469 40.645 176.064 40.7378C175.664 40.8306 175.249 40.9624 174.819 41.1333V39.9834C174.98 39.9248 175.158 39.8687 175.354 39.8149C175.554 39.7563 175.764 39.7051 175.983 39.6611C176.203 39.6172 176.433 39.583 176.672 39.5586C176.911 39.5293 177.153 39.5146 177.397 39.5146C177.841 39.5146 178.242 39.5635 178.598 39.6611C178.955 39.7588 179.255 39.9077 179.499 40.1079C179.748 40.3081 179.938 40.5596 180.07 40.8623C180.202 41.165 180.268 41.5215 180.268 41.9316V47H179.125ZM178.986 43.6528H177.368C177.05 43.6528 176.777 43.6846 176.547 43.748C176.318 43.8115 176.13 43.9019 175.983 44.019C175.837 44.1362 175.727 44.2778 175.654 44.4438C175.585 44.605 175.551 44.7881 175.551 44.9932C175.551 45.1348 175.573 45.2715 175.617 45.4033C175.661 45.5303 175.732 45.645 175.83 45.7476C175.927 45.8452 176.054 45.9233 176.21 45.9819C176.367 46.0405 176.557 46.0698 176.782 46.0698C177.075 46.0698 177.409 45.9819 177.785 45.8062C178.166 45.6255 178.566 45.3423 178.986 44.9565V43.6528ZM188.933 43.1914C188.933 43.8457 188.84 44.417 188.654 44.9053C188.474 45.3936 188.222 45.7988 187.9 46.1211C187.578 46.4434 187.197 46.6851 186.757 46.8462C186.318 47.0073 185.842 47.0879 185.329 47.0879C185.095 47.0879 184.86 47.0757 184.626 47.0513C184.396 47.0269 184.162 46.9854 183.923 46.9268V50.0029H182.648V39.6465H183.784L183.864 40.877C184.23 40.374 184.621 40.0225 185.036 39.8223C185.451 39.6172 185.9 39.5146 186.384 39.5146C186.804 39.5146 187.172 39.6025 187.49 39.7783C187.807 39.9541 188.073 40.2031 188.288 40.5254C188.503 40.8428 188.664 41.2285 188.771 41.6826C188.879 42.1318 188.933 42.6348 188.933 43.1914ZM187.629 43.25C187.629 42.8643 187.6 42.5103 187.541 42.188C187.487 41.8657 187.399 41.5898 187.277 41.3604C187.155 41.1309 186.999 40.9526 186.809 40.8257C186.618 40.6938 186.391 40.6279 186.127 40.6279C185.966 40.6279 185.803 40.6548 185.637 40.7085C185.471 40.7573 185.297 40.8428 185.117 40.9648C184.941 41.082 184.753 41.2407 184.553 41.4409C184.357 41.6362 184.147 41.8804 183.923 42.1733V45.7402C184.157 45.8379 184.404 45.916 184.663 45.9746C184.921 46.0283 185.175 46.0552 185.424 46.0552C186.113 46.0552 186.652 45.8232 187.043 45.3594C187.434 44.8906 187.629 44.1875 187.629 43.25ZM191.555 48.5015C191.804 48.5112 192.045 48.4893 192.28 48.4355C192.514 48.3818 192.719 48.3013 192.895 48.1938C193.076 48.0913 193.22 47.9619 193.327 47.8057C193.435 47.6494 193.488 47.4712 193.488 47.271C193.488 47.0659 193.452 46.8999 193.378 46.7729C193.31 46.646 193.232 46.5288 193.144 46.4214C193.056 46.314 192.976 46.1992 192.902 46.0771C192.834 45.9551 192.8 45.7915 192.8 45.5864C192.8 45.4839 192.819 45.3765 192.858 45.2642C192.897 45.1519 192.956 45.0493 193.034 44.9565C193.117 44.8638 193.22 44.7881 193.342 44.7295C193.469 44.6709 193.618 44.6416 193.789 44.6416C193.959 44.6416 194.123 44.6782 194.279 44.7515C194.44 44.8198 194.58 44.9272 194.697 45.0737C194.819 45.2202 194.914 45.4033 194.982 45.623C195.056 45.8428 195.092 46.1016 195.092 46.3994C195.092 46.8047 195.017 47.1929 194.865 47.564C194.719 47.9399 194.497 48.272 194.199 48.5601C193.906 48.8481 193.537 49.0776 193.093 49.2485C192.653 49.4194 192.141 49.5049 191.555 49.5049V48.5015ZM193.847 39.5146C193.999 39.5146 194.143 39.5464 194.279 39.6099C194.416 39.6685 194.536 39.749 194.638 39.8516C194.741 39.9541 194.821 40.0737 194.88 40.2104C194.943 40.3472 194.975 40.4912 194.975 40.6426C194.975 40.7988 194.943 40.9453 194.88 41.082C194.821 41.2139 194.741 41.3311 194.638 41.4336C194.536 41.5361 194.416 41.6167 194.279 41.6753C194.143 41.7339 193.999 41.7632 193.847 41.7632C193.691 41.7632 193.544 41.7339 193.408 41.6753C193.276 41.6167 193.159 41.5361 193.056 41.4336C192.954 41.3311 192.873 41.2139 192.814 41.082C192.756 40.9453 192.727 40.7988 192.727 40.6426C192.727 40.4912 192.756 40.3472 192.814 40.2104C192.873 40.0737 192.954 39.9541 193.056 39.8516C193.159 39.749 193.276 39.6685 193.408 39.6099C193.544 39.5464 193.691 39.5146 193.847 39.5146ZM8.02441 57.6465L6.95508 65H5.40967L4.34766 61.9238L4.13525 61.1768L3.89355 61.9678L2.87549 65H1.37402L0.312012 57.6465H1.55713L2.17236 62.6416L2.3042 63.7549L2.61914 62.7808L3.68848 59.4775H4.604L5.75391 62.7368L6.0835 63.7109L6.19336 62.6782L6.76465 57.6465H8.02441ZM9.76025 57.6465H10.9248L10.9614 59.0015C11.396 58.479 11.8232 58.1006 12.2432 57.8662C12.668 57.6318 13.0952 57.5146 13.5249 57.5146C14.2866 57.5146 14.8628 57.7612 15.2534 58.2544C15.6489 58.7476 15.832 59.48 15.8027 60.4517H14.5137C14.5283 59.8071 14.4331 59.3408 14.228 59.0527C14.0278 58.7598 13.7324 58.6133 13.3418 58.6133C13.1709 58.6133 12.9976 58.645 12.8218 58.7085C12.6509 58.7671 12.4727 58.8647 12.2871 59.0015C12.1064 59.1333 11.9136 59.3042 11.7085 59.5142C11.5034 59.7241 11.2837 59.978 11.0493 60.2759V65H9.76025V57.6465ZM20.2119 58.7012H18.0366V57.6465H21.501V63.938H23.6909V65H17.7949V63.938H20.2119V58.7012ZM20.6587 54.563C20.8003 54.563 20.9321 54.5898 21.0542 54.6436C21.1763 54.6924 21.2812 54.7632 21.3691 54.856C21.4619 54.9487 21.5327 55.0562 21.5815 55.1782C21.6353 55.2954 21.6621 55.4248 21.6621 55.5664C21.6621 55.7031 21.6353 55.8325 21.5815 55.9546C21.5327 56.0767 21.4619 56.1841 21.3691 56.2769C21.2812 56.3696 21.1763 56.4429 21.0542 56.4966C20.9321 56.5454 20.8003 56.5698 20.6587 56.5698C20.5171 56.5698 20.3853 56.5454 20.2632 56.4966C20.1411 56.4429 20.0337 56.3696 19.9409 56.2769C19.853 56.1841 19.7822 56.0767 19.7285 55.9546C19.6797 55.8325 19.6553 55.7031 19.6553 55.5664C19.6553 55.4248 19.6797 55.2954 19.7285 55.1782C19.7822 55.0562 19.853 54.9487 19.9409 54.856C20.0337 54.7632 20.1411 54.6924 20.2632 54.6436C20.3853 54.5898 20.5171 54.563 20.6587 54.563ZM31.8794 64.8975C31.5913 64.9707 31.2935 65.022 30.9858 65.0513C30.6782 65.0854 30.3657 65.1025 30.0483 65.1025C29.1255 65.1025 28.437 64.895 27.9829 64.48C27.5288 64.0601 27.3018 63.418 27.3018 62.5537V58.7158H25.2437V57.6465H27.3018V55.625L28.5762 55.2954V57.6465H31.8794V58.7158H28.5762V62.4512C28.5762 62.9785 28.7153 63.374 28.9937 63.6377C29.2769 63.8965 29.6919 64.0259 30.2388 64.0259C30.4731 64.0259 30.7295 64.0088 31.0078 63.9746C31.2861 63.9355 31.5767 63.877 31.8794 63.7988V64.8975ZM36.7061 58.7012H34.5308V57.6465H37.9951V63.938H40.1851V65H34.2891V63.938H36.7061V58.7012ZM37.1528 54.563C37.2944 54.563 37.4263 54.5898 37.5483 54.6436C37.6704 54.6924 37.7754 54.7632 37.8633 54.856C37.9561 54.9487 38.0269 55.0562 38.0757 55.1782C38.1294 55.2954 38.1562 55.4248 38.1562 55.5664C38.1562 55.7031 38.1294 55.8325 38.0757 55.9546C38.0269 56.0767 37.9561 56.1841 37.8633 56.2769C37.7754 56.3696 37.6704 56.4429 37.5483 56.4966C37.4263 56.5454 37.2944 56.5698 37.1528 56.5698C37.0112 56.5698 36.8794 56.5454 36.7573 56.4966C36.6353 56.4429 36.5278 56.3696 36.4351 56.2769C36.3472 56.1841 36.2764 56.0767 36.2227 55.9546C36.1738 55.8325 36.1494 55.7031 36.1494 55.5664C36.1494 55.4248 36.1738 55.2954 36.2227 55.1782C36.2764 55.0562 36.3472 54.9487 36.4351 54.856C36.5278 54.7632 36.6353 54.6924 36.7573 54.6436C36.8794 54.5898 37.0112 54.563 37.1528 54.563ZM42.4482 57.6465H43.5835L43.6348 58.833C43.8496 58.5791 44.0571 58.3691 44.2573 58.2031C44.4575 58.0322 44.6528 57.8955 44.8433 57.793C45.0386 57.6904 45.2363 57.6196 45.4365 57.5806C45.6367 57.5366 45.8442 57.5146 46.0591 57.5146C46.8159 57.5146 47.3872 57.7393 47.7729 58.1885C48.1636 58.6328 48.3589 59.3042 48.3589 60.2026V65H47.0845V60.3052C47.0845 59.729 46.9771 59.3042 46.7622 59.0308C46.5474 58.7524 46.2275 58.6133 45.8027 58.6133C45.6465 58.6133 45.4927 58.6377 45.3413 58.6865C45.1948 58.7305 45.041 58.811 44.8799 58.9282C44.7188 59.0405 44.543 59.1943 44.3525 59.3896C44.167 59.585 43.957 59.8291 43.7227 60.1221V65H42.4482V57.6465ZM55.9907 58.6865C56.1274 58.8574 56.2324 59.0576 56.3057 59.2871C56.3838 59.5117 56.4229 59.7559 56.4229 60.0195C56.4229 60.4004 56.3521 60.7495 56.2104 61.0669C56.0737 61.3794 55.8784 61.6479 55.6245 61.8726C55.3706 62.0972 55.0654 62.2729 54.709 62.3999C54.3574 62.522 53.9692 62.583 53.5444 62.583C53.2368 62.583 52.9487 62.5513 52.6802 62.4878C52.4116 62.4194 52.1992 62.3364 52.043 62.2388C51.9502 62.3755 51.8721 62.5049 51.8086 62.627C51.7451 62.749 51.7134 62.8857 51.7134 63.0371C51.7134 63.2227 51.8013 63.3765 51.9771 63.4985C52.1577 63.6206 52.3945 63.6865 52.6875 63.6963L54.6211 63.7695C54.9873 63.7793 55.3242 63.8257 55.6318 63.9087C55.9443 63.9917 56.2104 64.1113 56.4302 64.2676C56.6548 64.4238 56.8281 64.6167 56.9502 64.8462C57.0771 65.0757 57.1406 65.3418 57.1406 65.6445C57.1406 65.9717 57.0698 66.2817 56.9282 66.5747C56.7866 66.8677 56.5669 67.124 56.269 67.3438C55.9761 67.5684 55.6025 67.7466 55.1484 67.8784C54.6943 68.0103 54.1548 68.0762 53.5298 68.0762C52.9341 68.0762 52.4263 68.0273 52.0063 67.9297C51.5913 67.8369 51.2495 67.7051 50.981 67.5342C50.7124 67.3682 50.5171 67.168 50.395 66.9336C50.2729 66.7041 50.2119 66.4502 50.2119 66.1719C50.2119 65.8154 50.2949 65.5029 50.4609 65.2344C50.627 64.9658 50.8833 64.707 51.23 64.458C51.103 64.3994 50.9932 64.3262 50.9004 64.2383C50.8076 64.1504 50.7319 64.0552 50.6733 63.9526C50.6147 63.8452 50.5708 63.7329 50.5415 63.6157C50.5122 63.4985 50.4976 63.3838 50.4976 63.2715C50.4976 62.9541 50.5708 62.6636 50.7173 62.3999C50.8687 62.1362 51.0469 61.8872 51.252 61.6528C51.1592 61.5405 51.0762 61.4307 51.0029 61.3232C50.9346 61.2158 50.8735 61.1011 50.8198 60.979C50.771 60.8521 50.7319 60.7178 50.7026 60.5762C50.6782 60.4297 50.666 60.2637 50.666 60.0781C50.666 59.6973 50.7344 59.3506 50.8711 59.0381C51.0127 58.7207 51.208 58.4497 51.457 58.2251C51.7109 58.0005 52.0137 57.8271 52.3652 57.7051C52.7217 57.5781 53.1147 57.5146 53.5444 57.5146C53.7251 57.5146 53.8984 57.5269 54.0645 57.5513C54.2305 57.5757 54.377 57.6074 54.5039 57.6465H57.1699V58.6865H55.9907ZM51.5669 66.062C51.5669 66.4087 51.7476 66.6602 52.1089 66.8164C52.4702 66.9775 52.9731 67.0581 53.6177 67.0581C54.0229 67.0581 54.3623 67.0215 54.6357 66.9482C54.9141 66.875 55.1362 66.7773 55.3022 66.6553C55.4731 66.5381 55.5952 66.4014 55.6685 66.2451C55.7417 66.0938 55.7783 65.9375 55.7783 65.7764C55.7783 65.4785 55.6562 65.2588 55.4121 65.1172C55.168 64.9756 54.7944 64.8926 54.2915 64.8682L52.3726 64.8022C52.2114 64.9097 52.0771 65.0146 51.9697 65.1172C51.8672 65.2197 51.7866 65.3223 51.728 65.4248C51.6694 65.5322 51.6279 65.6372 51.6035 65.7397C51.5791 65.8472 51.5669 65.9546 51.5669 66.062ZM51.9551 60.0488C51.9551 60.2832 51.9941 60.498 52.0723 60.6934C52.1504 60.8887 52.2603 61.0547 52.4019 61.1914C52.5435 61.3281 52.7095 61.4355 52.8999 61.5137C53.0952 61.5869 53.3101 61.6235 53.5444 61.6235C53.7983 61.6235 54.0229 61.582 54.2183 61.499C54.4185 61.4111 54.5845 61.2939 54.7163 61.1475C54.853 61.001 54.9556 60.8325 55.0239 60.6421C55.0972 60.4517 55.1338 60.2539 55.1338 60.0488C55.1338 59.8145 55.0947 59.5996 55.0166 59.4043C54.9385 59.209 54.8286 59.043 54.687 58.9062C54.5454 58.7695 54.377 58.6646 54.1816 58.5913C53.9912 58.5132 53.7788 58.4741 53.5444 58.4741C53.2905 58.4741 53.0635 58.5181 52.8633 58.606C52.668 58.6938 52.502 58.811 52.3652 58.9575C52.2334 59.0991 52.1309 59.2651 52.0576 59.4556C51.9893 59.646 51.9551 59.8438 51.9551 60.0488ZM64.084 61.6089H59.7041V60.4077H64.084V61.6089ZM72.4336 65V59.7192C72.4336 59.4897 72.4238 59.3018 72.4043 59.1553C72.3896 59.0088 72.3628 58.894 72.3237 58.811C72.2896 58.7231 72.2432 58.6621 72.1846 58.6279C72.1309 58.5938 72.0625 58.5767 71.9795 58.5767C71.8818 58.5767 71.7915 58.606 71.7085 58.6646C71.6255 58.7231 71.5352 58.8184 71.4375 58.9502C71.3447 59.082 71.2397 59.2578 71.1226 59.4775C71.0103 59.6924 70.876 59.9585 70.7197 60.2759V65H69.5552V59.8584C69.5552 59.5898 69.5454 59.3726 69.5259 59.2065C69.5112 59.0405 69.4844 58.9111 69.4453 58.8184C69.4111 58.7256 69.3647 58.6621 69.3062 58.6279C69.2476 58.5938 69.1768 58.5767 69.0938 58.5767C69.0059 58.5767 68.9229 58.6011 68.8447 58.6499C68.7666 58.6987 68.6787 58.7866 68.5811 58.9136C68.4883 59.0405 68.3833 59.2139 68.2661 59.4336C68.1489 59.6533 68.0098 59.9341 67.8486 60.2759V65H66.6768V57.6465H67.6509L67.7095 59.0454C67.8364 58.7671 67.9585 58.5303 68.0757 58.335C68.1978 58.1396 68.3223 57.9834 68.4492 57.8662C68.5762 57.7441 68.7104 57.6562 68.8521 57.6025C68.9985 57.5439 69.1597 57.5146 69.3354 57.5146C69.731 57.5146 70.0312 57.644 70.2363 57.9028C70.4414 58.1616 70.5439 58.562 70.5439 59.104C70.6611 58.8501 70.7759 58.6255 70.8882 58.4302C71.0005 58.23 71.1201 58.064 71.2471 57.9321C71.3789 57.7954 71.5229 57.6929 71.6792 57.6245C71.8354 57.5513 72.0161 57.5146 72.2212 57.5146C73.144 57.5146 73.6055 58.2251 73.6055 59.646V65H72.4336ZM81.8379 61.2646C81.8379 61.8359 81.7573 62.3608 81.5962 62.8394C81.4351 63.313 81.2031 63.7207 80.9004 64.0625C80.5977 64.3994 80.229 64.6631 79.7944 64.8535C79.3599 65.0391 78.8667 65.1318 78.3149 65.1318C77.7876 65.1318 77.314 65.0513 76.894 64.8901C76.479 64.7241 76.125 64.4824 75.832 64.165C75.5439 63.8477 75.3218 63.4546 75.1655 62.9858C75.0142 62.5171 74.9385 61.9775 74.9385 61.3672C74.9385 60.7959 75.019 60.2759 75.1802 59.8071C75.3413 59.3335 75.5732 58.9282 75.876 58.5913C76.1787 58.2495 76.5474 57.9858 76.9819 57.8003C77.4165 57.6099 77.9097 57.5146 78.4614 57.5146C78.9888 57.5146 79.46 57.5977 79.875 57.7637C80.2949 57.9248 80.6489 58.1641 80.937 58.4814C81.23 58.7939 81.4521 59.1846 81.6035 59.6533C81.7598 60.1221 81.8379 60.6592 81.8379 61.2646ZM80.5342 61.3232C80.5342 60.8691 80.4829 60.4736 80.3804 60.1367C80.2827 59.7949 80.1411 59.5117 79.9556 59.2871C79.77 59.0576 79.543 58.8867 79.2744 58.7744C79.0107 58.6572 78.7153 58.5986 78.3882 58.5986C78.0073 58.5986 77.6802 58.6743 77.4067 58.8257C77.1382 58.9722 76.916 59.1699 76.7402 59.4189C76.5693 59.668 76.4424 59.9585 76.3594 60.2905C76.2812 60.6177 76.2422 60.9619 76.2422 61.3232C76.2422 61.7773 76.291 62.1753 76.3887 62.5171C76.4912 62.8589 76.6353 63.1445 76.8208 63.374C77.0063 63.5986 77.231 63.7695 77.4946 63.8867C77.7583 63.999 78.0562 64.0552 78.3882 64.0552C78.769 64.0552 79.0938 63.9819 79.3623 63.8354C79.6357 63.6841 79.8579 63.4839 80.0288 63.2349C80.2046 62.9858 80.3315 62.6978 80.4097 62.3706C80.4927 62.0386 80.5342 61.6895 80.5342 61.3232ZM83.3101 61.4771C83.3101 60.8521 83.3955 60.2979 83.5664 59.8145C83.7373 59.3262 83.979 58.916 84.2915 58.584C84.6089 58.2471 84.9873 57.9932 85.4268 57.8223C85.8711 57.6465 86.3643 57.5586 86.9062 57.5586C87.1406 57.5586 87.3701 57.5732 87.5947 57.6025C87.8242 57.6318 88.0488 57.6782 88.2686 57.7417V54.6509H89.5503V65H88.4077L88.3638 63.6084C88.0073 64.126 87.6216 64.5093 87.2065 64.7583C86.7915 65.0073 86.3423 65.1318 85.8589 65.1318C85.439 65.1318 85.0679 65.0439 84.7456 64.8682C84.4282 64.6924 84.1621 64.4458 83.9473 64.1284C83.7373 63.8062 83.5786 63.4204 83.4712 62.9712C83.3638 62.522 83.3101 62.0239 83.3101 61.4771ZM84.6138 61.3965C84.6138 62.2852 84.7432 62.9492 85.002 63.3887C85.2656 63.8232 85.6367 64.0405 86.1152 64.0405C86.4375 64.0405 86.7769 63.8965 87.1333 63.6084C87.4946 63.3203 87.873 62.8931 88.2686 62.3267V58.9136C88.0586 58.8159 87.8267 58.7427 87.5728 58.6938C87.3188 58.6401 87.0674 58.6133 86.8184 58.6133C86.125 58.6133 85.583 58.8379 85.1924 59.2871C84.8066 59.7363 84.6138 60.4395 84.6138 61.3965ZM98.1416 60.9351C98.1416 61.1157 98.1392 61.2671 98.1343 61.3892C98.1294 61.5112 98.1221 61.626 98.1123 61.7334H92.9487C92.9487 62.4854 93.1587 63.064 93.5786 63.4692C93.9985 63.8696 94.604 64.0698 95.395 64.0698C95.6099 64.0698 95.8247 64.0625 96.0396 64.0479C96.2544 64.0283 96.4619 64.0039 96.6621 63.9746C96.8623 63.9453 97.0527 63.9136 97.2334 63.8794C97.4189 63.8403 97.5898 63.7988 97.7461 63.7549V64.8022C97.3994 64.8999 97.0063 64.978 96.5669 65.0366C96.1323 65.1001 95.6807 65.1318 95.2119 65.1318C94.582 65.1318 94.04 65.0464 93.5859 64.8755C93.1318 64.7046 92.7583 64.458 92.4653 64.1357C92.1772 63.8086 91.9624 63.4106 91.8208 62.9419C91.6841 62.4683 91.6157 61.9336 91.6157 61.3379C91.6157 60.8203 91.689 60.332 91.8354 59.873C91.9868 59.4092 92.2041 59.0039 92.4873 58.6572C92.7754 58.3057 93.127 58.0273 93.542 57.8223C93.957 57.6172 94.4282 57.5146 94.9556 57.5146C95.4683 57.5146 95.9224 57.5952 96.3179 57.7563C96.7134 57.9175 97.0454 58.147 97.314 58.4448C97.5874 58.7378 97.7925 59.0967 97.9292 59.5215C98.0708 59.9414 98.1416 60.4126 98.1416 60.9351ZM96.8159 60.752C96.8306 60.4248 96.7988 60.127 96.7207 59.8584C96.6426 59.585 96.5205 59.3506 96.3545 59.1553C96.1934 58.96 95.9907 58.8086 95.7466 58.7012C95.5024 58.5889 95.2192 58.5327 94.897 58.5327C94.6187 58.5327 94.3647 58.5864 94.1353 58.6938C93.9058 58.8013 93.708 58.9526 93.542 59.1479C93.376 59.3433 93.2417 59.5776 93.1392 59.8511C93.0366 60.1245 92.9731 60.4248 92.9487 60.752H96.8159ZM103.129 57.5146C103.281 57.5146 103.425 57.5464 103.562 57.6099C103.698 57.6685 103.818 57.749 103.92 57.8516C104.023 57.9541 104.104 58.0737 104.162 58.2104C104.226 58.3472 104.257 58.4912 104.257 58.6426C104.257 58.7988 104.226 58.9453 104.162 59.082C104.104 59.2139 104.023 59.3311 103.92 59.4336C103.818 59.5361 103.698 59.6167 103.562 59.6753C103.425 59.7339 103.281 59.7632 103.129 59.7632C102.973 59.7632 102.827 59.7339 102.69 59.6753C102.558 59.6167 102.441 59.5361 102.338 59.4336C102.236 59.3311 102.155 59.2139 102.097 59.082C102.038 58.9453 102.009 58.7988 102.009 58.6426C102.009 58.4912 102.038 58.3472 102.097 58.2104C102.155 58.0737 102.236 57.9541 102.338 57.8516C102.441 57.749 102.558 57.6685 102.69 57.6099C102.827 57.5464 102.973 57.5146 103.129 57.5146ZM103.129 62.8833C103.281 62.8833 103.425 62.915 103.562 62.9785C103.698 63.0371 103.818 63.1177 103.92 63.2202C104.023 63.3228 104.104 63.4424 104.162 63.5791C104.226 63.7158 104.257 63.8599 104.257 64.0112C104.257 64.1675 104.226 64.314 104.162 64.4507C104.104 64.5825 104.023 64.6997 103.92 64.8022C103.818 64.9048 103.698 64.9854 103.562 65.0439C103.425 65.1025 103.281 65.1318 103.129 65.1318C102.973 65.1318 102.827 65.1025 102.69 65.0439C102.558 64.9854 102.441 64.9048 102.338 64.8022C102.236 64.6997 102.155 64.5825 102.097 64.4507C102.038 64.314 102.009 64.1675 102.009 64.0112C102.009 63.8599 102.038 63.7158 102.097 63.5791C102.155 63.4424 102.236 63.3228 102.338 63.2202C102.441 63.1177 102.558 63.0371 102.69 62.9785C102.827 62.915 102.973 62.8833 103.129 62.8833ZM122.583 65H121.308V60.3052C121.308 59.7388 121.201 59.3164 120.986 59.0381C120.776 58.7549 120.473 58.6133 120.078 58.6133C119.907 58.6133 119.746 58.6377 119.594 58.6865C119.448 58.7305 119.294 58.811 119.133 58.9282C118.972 59.0405 118.796 59.1943 118.605 59.3896C118.415 59.585 118.195 59.8291 117.946 60.1221V65H116.672V54.6509H117.946V57.6465L117.902 58.8037C118.103 58.5645 118.298 58.3643 118.488 58.2031C118.684 58.0371 118.876 57.9028 119.067 57.8003C119.262 57.6978 119.46 57.6245 119.66 57.5806C119.86 57.5366 120.068 57.5146 120.283 57.5146C121.015 57.5146 121.582 57.7393 121.982 58.1885C122.382 58.6328 122.583 59.3042 122.583 60.2026V65ZM131.32 61.2646C131.32 61.8359 131.24 62.3608 131.079 62.8394C130.917 63.313 130.686 63.7207 130.383 64.0625C130.08 64.3994 129.711 64.6631 129.277 64.8535C128.842 65.0391 128.349 65.1318 127.797 65.1318C127.27 65.1318 126.796 65.0513 126.376 64.8901C125.961 64.7241 125.607 64.4824 125.314 64.165C125.026 63.8477 124.804 63.4546 124.648 62.9858C124.497 62.5171 124.421 61.9775 124.421 61.3672C124.421 60.7959 124.501 60.2759 124.663 59.8071C124.824 59.3335 125.056 58.9282 125.358 58.5913C125.661 58.2495 126.03 57.9858 126.464 57.8003C126.899 57.6099 127.392 57.5146 127.944 57.5146C128.471 57.5146 128.942 57.5977 129.357 57.7637C129.777 57.9248 130.131 58.1641 130.419 58.4814C130.712 58.7939 130.935 59.1846 131.086 59.6533C131.242 60.1221 131.32 60.6592 131.32 61.2646ZM130.017 61.3232C130.017 60.8691 129.965 60.4736 129.863 60.1367C129.765 59.7949 129.624 59.5117 129.438 59.2871C129.252 59.0576 129.025 58.8867 128.757 58.7744C128.493 58.6572 128.198 58.5986 127.871 58.5986C127.49 58.5986 127.163 58.6743 126.889 58.8257C126.621 58.9722 126.398 59.1699 126.223 59.4189C126.052 59.668 125.925 59.9585 125.842 60.2905C125.764 60.6177 125.725 60.9619 125.725 61.3232C125.725 61.7773 125.773 62.1753 125.871 62.5171C125.974 62.8589 126.118 63.1445 126.303 63.374C126.489 63.5986 126.713 63.7695 126.977 63.8867C127.241 63.999 127.539 64.0552 127.871 64.0552C128.251 64.0552 128.576 63.9819 128.845 63.8354C129.118 63.6841 129.34 63.4839 129.511 63.2349C129.687 62.9858 129.814 62.6978 129.892 62.3706C129.975 62.0386 130.017 61.6895 130.017 61.3232ZM133.466 57.6465H134.631L134.667 59.0015C135.102 58.479 135.529 58.1006 135.949 57.8662C136.374 57.6318 136.801 57.5146 137.231 57.5146C137.993 57.5146 138.569 57.7612 138.959 58.2544C139.355 58.7476 139.538 59.48 139.509 60.4517H138.22C138.234 59.8071 138.139 59.3408 137.934 59.0527C137.734 58.7598 137.438 58.6133 137.048 58.6133C136.877 58.6133 136.704 58.645 136.528 58.7085C136.357 58.7671 136.179 58.8647 135.993 59.0015C135.812 59.1333 135.62 59.3042 135.415 59.5142C135.209 59.7241 134.99 59.978 134.755 60.2759V65H133.466V57.6465ZM143.918 58.7012H141.743V57.6465H145.207V63.938H147.397V65H141.501V63.938H143.918V58.7012ZM144.365 54.563C144.506 54.563 144.638 54.5898 144.76 54.6436C144.882 54.6924 144.987 54.7632 145.075 54.856C145.168 54.9487 145.239 55.0562 145.288 55.1782C145.341 55.2954 145.368 55.4248 145.368 55.5664C145.368 55.7031 145.341 55.8325 145.288 55.9546C145.239 56.0767 145.168 56.1841 145.075 56.2769C144.987 56.3696 144.882 56.4429 144.76 56.4966C144.638 56.5454 144.506 56.5698 144.365 56.5698C144.223 56.5698 144.091 56.5454 143.969 56.4966C143.847 56.4429 143.74 56.3696 143.647 56.2769C143.559 56.1841 143.488 56.0767 143.435 55.9546C143.386 55.8325 143.361 55.7031 143.361 55.5664C143.361 55.4248 143.386 55.2954 143.435 55.1782C143.488 55.0562 143.559 54.9487 143.647 54.856C143.74 54.7632 143.847 54.6924 143.969 54.6436C144.091 54.5898 144.223 54.563 144.365 54.563ZM155.615 65H149.689V64.0845L153.842 58.7158H149.792V57.6465H155.373V58.6426L151.293 63.9233H155.615V65ZM164.309 61.2646C164.309 61.8359 164.228 62.3608 164.067 62.8394C163.906 63.313 163.674 63.7207 163.371 64.0625C163.068 64.3994 162.7 64.6631 162.265 64.8535C161.831 65.0391 161.337 65.1318 160.786 65.1318C160.258 65.1318 159.785 65.0513 159.365 64.8901C158.95 64.7241 158.596 64.4824 158.303 64.165C158.015 63.8477 157.792 63.4546 157.636 62.9858C157.485 62.5171 157.409 61.9775 157.409 61.3672C157.409 60.7959 157.49 60.2759 157.651 59.8071C157.812 59.3335 158.044 58.9282 158.347 58.5913C158.649 58.2495 159.018 57.9858 159.453 57.8003C159.887 57.6099 160.38 57.5146 160.932 57.5146C161.459 57.5146 161.931 57.5977 162.346 57.7637C162.766 57.9248 163.12 58.1641 163.408 58.4814C163.701 58.7939 163.923 59.1846 164.074 59.6533C164.23 60.1221 164.309 60.6592 164.309 61.2646ZM163.005 61.3232C163.005 60.8691 162.954 60.4736 162.851 60.1367C162.753 59.7949 162.612 59.5117 162.426 59.2871C162.241 59.0576 162.014 58.8867 161.745 58.7744C161.481 58.6572 161.186 58.5986 160.859 58.5986C160.478 58.5986 160.151 58.6743 159.877 58.8257C159.609 58.9722 159.387 59.1699 159.211 59.4189C159.04 59.668 158.913 59.9585 158.83 60.2905C158.752 60.6177 158.713 60.9619 158.713 61.3232C158.713 61.7773 158.762 62.1753 158.859 62.5171C158.962 62.8589 159.106 63.1445 159.292 63.374C159.477 63.5986 159.702 63.7695 159.965 63.8867C160.229 63.999 160.527 64.0552 160.859 64.0552C161.24 64.0552 161.564 63.9819 161.833 63.8354C162.106 63.6841 162.329 63.4839 162.5 63.2349C162.675 62.9858 162.802 62.6978 162.88 62.3706C162.963 62.0386 163.005 61.6895 163.005 61.3232ZM166.154 57.6465H167.29L167.341 58.833C167.556 58.5791 167.763 58.3691 167.963 58.2031C168.164 58.0322 168.359 57.8955 168.549 57.793C168.745 57.6904 168.942 57.6196 169.143 57.5806C169.343 57.5366 169.55 57.5146 169.765 57.5146C170.522 57.5146 171.093 57.7393 171.479 58.1885C171.87 58.6328 172.065 59.3042 172.065 60.2026V65H170.791V60.3052C170.791 59.729 170.683 59.3042 170.468 59.0308C170.253 58.7524 169.934 58.6133 169.509 58.6133C169.353 58.6133 169.199 58.6377 169.047 58.6865C168.901 58.7305 168.747 58.811 168.586 58.9282C168.425 59.0405 168.249 59.1943 168.059 59.3896C167.873 59.585 167.663 59.8291 167.429 60.1221V65H166.154V57.6465ZM180.327 64.8975C180.039 64.9707 179.741 65.022 179.433 65.0513C179.125 65.0854 178.813 65.1025 178.496 65.1025C177.573 65.1025 176.884 64.895 176.43 64.48C175.976 64.0601 175.749 63.418 175.749 62.5537V58.7158H173.691V57.6465H175.749V55.625L177.023 55.2954V57.6465H180.327V58.7158H177.023V62.4512C177.023 62.9785 177.163 63.374 177.441 63.6377C177.724 63.8965 178.139 64.0259 178.686 64.0259C178.92 64.0259 179.177 64.0088 179.455 63.9746C179.733 63.9355 180.024 63.877 180.327 63.7988V64.8975ZM187.373 65L187.343 64.0112C186.943 64.4067 186.535 64.6924 186.12 64.8682C185.71 65.0439 185.278 65.1318 184.824 65.1318C184.404 65.1318 184.045 65.0781 183.747 64.9707C183.449 64.8633 183.203 64.7168 183.007 64.5312C182.817 64.3408 182.675 64.1187 182.583 63.8647C182.495 63.6108 182.451 63.335 182.451 63.0371C182.451 62.2998 182.724 61.7236 183.271 61.3086C183.823 60.8887 184.636 60.6787 185.71 60.6787H187.233V60.0342C187.233 59.5996 187.094 59.2529 186.816 58.9941C186.538 58.7305 186.113 58.5986 185.542 58.5986C185.126 58.5986 184.716 58.645 184.311 58.7378C183.911 58.8306 183.496 58.9624 183.066 59.1333V57.9834C183.227 57.9248 183.405 57.8687 183.601 57.8149C183.801 57.7563 184.011 57.7051 184.23 57.6611C184.45 57.6172 184.68 57.583 184.919 57.5586C185.158 57.5293 185.4 57.5146 185.644 57.5146C186.088 57.5146 186.489 57.5635 186.845 57.6611C187.202 57.7588 187.502 57.9077 187.746 58.1079C187.995 58.3081 188.186 58.5596 188.317 58.8623C188.449 59.165 188.515 59.5215 188.515 59.9316V65H187.373ZM187.233 61.6528H185.615C185.297 61.6528 185.024 61.6846 184.794 61.748C184.565 61.8115 184.377 61.9019 184.23 62.019C184.084 62.1362 183.974 62.2778 183.901 62.4438C183.833 62.605 183.798 62.7881 183.798 62.9932C183.798 63.1348 183.82 63.2715 183.864 63.4033C183.908 63.5303 183.979 63.645 184.077 63.7476C184.174 63.8452 184.301 63.9233 184.458 63.9819C184.614 64.0405 184.804 64.0698 185.029 64.0698C185.322 64.0698 185.656 63.9819 186.032 63.8062C186.413 63.6255 186.813 63.3423 187.233 62.9565V61.6528ZM193.4 55.6982H191.225V54.6509H194.689V63.938H196.879V65H190.983V63.938H193.4V55.6982ZM204.284 61.6089H199.904V60.4077H204.284V61.6089ZM213.315 64.8975C213.027 64.9707 212.729 65.022 212.421 65.0513C212.114 65.0854 211.801 65.1025 211.484 65.1025C210.561 65.1025 209.873 64.895 209.418 64.48C208.964 64.0601 208.737 63.418 208.737 62.5537V58.7158H206.679V57.6465H208.737V55.625L210.012 55.2954V57.6465H213.315V58.7158H210.012V62.4512C210.012 62.9785 210.151 63.374 210.429 63.6377C210.712 63.8965 211.127 64.0259 211.674 64.0259C211.909 64.0259 212.165 64.0088 212.443 63.9746C212.722 63.9355 213.012 63.877 213.315 63.7988V64.8975ZM221.921 61.1914C221.921 61.8018 221.835 62.3486 221.665 62.832C221.499 63.3105 221.259 63.7183 220.947 64.0552C220.639 64.3872 220.263 64.6436 219.819 64.8242C219.375 65 218.874 65.0879 218.317 65.0879C217.883 65.0879 217.438 65.0464 216.984 64.9634C216.53 64.8804 216.081 64.7485 215.637 64.5679V54.6509H216.911V57.5L216.853 58.8623C217.219 58.3691 217.609 58.0225 218.024 57.8223C218.444 57.6172 218.894 57.5146 219.372 57.5146C219.792 57.5146 220.161 57.6025 220.478 57.7783C220.795 57.9541 221.062 58.2031 221.276 58.5254C221.491 58.8428 221.652 59.2285 221.76 59.6826C221.867 60.1318 221.921 60.6348 221.921 61.1914ZM220.617 61.25C220.617 60.8643 220.588 60.5103 220.529 60.188C220.476 59.8657 220.388 59.5898 220.266 59.3604C220.144 59.1309 219.987 58.9526 219.797 58.8257C219.606 58.6938 219.379 58.6279 219.116 58.6279C218.955 58.6279 218.791 58.6548 218.625 58.7085C218.459 58.7573 218.286 58.8428 218.105 58.9648C217.929 59.082 217.741 59.2407 217.541 59.4409C217.346 59.6362 217.136 59.8804 216.911 60.1733V63.7402C217.16 63.8379 217.414 63.916 217.673 63.9746C217.932 64.0283 218.178 64.0552 218.413 64.0552C218.706 64.0552 218.984 64.0088 219.248 63.916C219.516 63.8232 219.75 63.6694 219.951 63.4546C220.156 63.2349 220.317 62.9468 220.434 62.5903C220.556 62.229 220.617 61.7822 220.617 61.25ZM224.543 66.5015C224.792 66.5112 225.034 66.4893 225.268 66.4355C225.502 66.3818 225.708 66.3013 225.883 66.1938C226.064 66.0913 226.208 65.9619 226.315 65.8057C226.423 65.6494 226.477 65.4712 226.477 65.271C226.477 65.0659 226.44 64.8999 226.367 64.7729C226.298 64.646 226.22 64.5288 226.132 64.4214C226.044 64.314 225.964 64.1992 225.891 64.0771C225.822 63.9551 225.788 63.7915 225.788 63.5864C225.788 63.4839 225.808 63.3765 225.847 63.2642C225.886 63.1519 225.944 63.0493 226.022 62.9565C226.105 62.8638 226.208 62.7881 226.33 62.7295C226.457 62.6709 226.606 62.6416 226.777 62.6416C226.948 62.6416 227.111 62.6782 227.268 62.7515C227.429 62.8198 227.568 62.9272 227.685 63.0737C227.807 63.2202 227.902 63.4033 227.971 63.623C228.044 63.8428 228.081 64.1016 228.081 64.3994C228.081 64.8047 228.005 65.1929 227.854 65.564C227.707 65.9399 227.485 66.272 227.187 66.5601C226.894 66.8481 226.525 67.0776 226.081 67.2485C225.642 67.4194 225.129 67.5049 224.543 67.5049V66.5015ZM226.835 57.5146C226.987 57.5146 227.131 57.5464 227.268 57.6099C227.404 57.6685 227.524 57.749 227.626 57.8516C227.729 57.9541 227.81 58.0737 227.868 58.2104C227.932 58.3472 227.963 58.4912 227.963 58.6426C227.963 58.7988 227.932 58.9453 227.868 59.082C227.81 59.2139 227.729 59.3311 227.626 59.4336C227.524 59.5361 227.404 59.6167 227.268 59.6753C227.131 59.7339 226.987 59.7632 226.835 59.7632C226.679 59.7632 226.533 59.7339 226.396 59.6753C226.264 59.6167 226.147 59.5361 226.044 59.4336C225.942 59.3311 225.861 59.2139 225.803 59.082C225.744 58.9453 225.715 58.7988 225.715 58.6426C225.715 58.4912 225.744 58.3472 225.803 58.2104C225.861 58.0737 225.942 57.9541 226.044 57.8516C226.147 57.749 226.264 57.6685 226.396 57.6099C226.533 57.5464 226.679 57.5146 226.835 57.5146Z" fill="#444444"/>
<path d="M344.638 4.20312H347.274V13.0625C347.274 13.877 347.093 14.5977 346.729 15.2246C346.372 15.8457 345.865 16.3262 345.209 16.666C344.553 17.0059 343.812 17.1758 342.985 17.1758C341.632 17.1758 340.577 16.833 339.821 16.1475C339.065 15.4561 338.688 14.4805 338.688 13.2207H341.342C341.342 13.8477 341.474 14.3105 341.737 14.6094C342.001 14.9082 342.417 15.0576 342.985 15.0576C343.489 15.0576 343.891 14.8848 344.189 14.5391C344.488 14.1934 344.638 13.7012 344.638 13.0625V4.20312ZM354.877 17C354.76 16.7715 354.675 16.4873 354.622 16.1475C354.007 16.833 353.207 17.1758 352.223 17.1758C351.291 17.1758 350.518 16.9062 349.902 16.3672C349.293 15.8281 348.988 15.1484 348.988 14.3281C348.988 13.3203 349.36 12.5469 350.104 12.0078C350.854 11.4688 351.936 11.1963 353.348 11.1904H354.517V10.6455C354.517 10.2061 354.402 9.85449 354.174 9.59082C353.951 9.32715 353.597 9.19531 353.11 9.19531C352.683 9.19531 352.346 9.29785 352.1 9.50293C351.859 9.70801 351.739 9.98926 351.739 10.3467H349.199C349.199 9.7959 349.369 9.28613 349.709 8.81738C350.049 8.34863 350.529 7.98242 351.15 7.71875C351.771 7.44922 352.469 7.31445 353.242 7.31445C354.414 7.31445 355.343 7.61035 356.028 8.20215C356.72 8.78809 357.065 9.61426 357.065 10.6807V14.8027C357.071 15.7051 357.197 16.3877 357.443 16.8506V17H354.877ZM352.776 15.2334C353.151 15.2334 353.497 15.1514 353.813 14.9873C354.13 14.8174 354.364 14.5918 354.517 14.3105V12.6758H353.567C352.296 12.6758 351.619 13.1152 351.537 13.9941L351.528 14.1436C351.528 14.46 351.64 14.7207 351.862 14.9258C352.085 15.1309 352.39 15.2334 352.776 15.2334ZM367.577 12.333C367.577 13.7979 367.243 14.9727 366.575 15.8574C365.913 16.7363 365.017 17.1758 363.886 17.1758C362.925 17.1758 362.148 16.8418 361.557 16.1738V20.6562H359.017V7.49023H361.372L361.46 8.42188C362.075 7.68359 362.878 7.31445 363.868 7.31445C365.04 7.31445 365.951 7.74805 366.602 8.61523C367.252 9.48242 367.577 10.6777 367.577 12.2012V12.333ZM365.037 12.1484C365.037 11.2637 364.879 10.5811 364.562 10.1006C364.252 9.62012 363.798 9.37988 363.2 9.37988C362.403 9.37988 361.855 9.68457 361.557 10.2939V14.1875C361.867 14.8145 362.421 15.1279 363.218 15.1279C364.431 15.1279 365.037 14.1348 365.037 12.1484ZM374.67 17C374.553 16.7715 374.468 16.4873 374.415 16.1475C373.8 16.833 373 17.1758 372.016 17.1758C371.084 17.1758 370.311 16.9062 369.695 16.3672C369.086 15.8281 368.781 15.1484 368.781 14.3281C368.781 13.3203 369.153 12.5469 369.897 12.0078C370.647 11.4688 371.729 11.1963 373.141 11.1904H374.31V10.6455C374.31 10.2061 374.195 9.85449 373.967 9.59082C373.744 9.32715 373.39 9.19531 372.903 9.19531C372.476 9.19531 372.139 9.29785 371.893 9.50293C371.652 9.70801 371.532 9.98926 371.532 10.3467H368.992C368.992 9.7959 369.162 9.28613 369.502 8.81738C369.842 8.34863 370.322 7.98242 370.943 7.71875C371.564 7.44922 372.262 7.31445 373.035 7.31445C374.207 7.31445 375.136 7.61035 375.821 8.20215C376.513 8.78809 376.858 9.61426 376.858 10.6807V14.8027C376.864 15.7051 376.99 16.3877 377.236 16.8506V17H374.67ZM372.569 15.2334C372.944 15.2334 373.29 15.1514 373.606 14.9873C373.923 14.8174 374.157 14.5918 374.31 14.3105V12.6758H373.36C372.089 12.6758 371.412 13.1152 371.33 13.9941L371.321 14.1436C371.321 14.46 371.433 14.7207 371.655 14.9258C371.878 15.1309 372.183 15.2334 372.569 15.2334ZM381.147 7.49023L381.227 8.58887C381.906 7.73926 382.817 7.31445 383.96 7.31445C384.968 7.31445 385.718 7.61035 386.21 8.20215C386.702 8.79395 386.954 9.67871 386.966 10.8564V17H384.426V10.918C384.426 10.3789 384.309 9.98926 384.074 9.74902C383.84 9.50293 383.45 9.37988 382.905 9.37988C382.19 9.37988 381.654 9.68457 381.297 10.2939V17H378.757V7.49023H381.147ZM393.276 17.1758C391.882 17.1758 390.745 16.748 389.866 15.8926C388.993 15.0371 388.557 13.8975 388.557 12.4736V12.2275C388.557 11.2725 388.741 10.4199 389.11 9.66992C389.479 8.91406 390.001 8.33398 390.675 7.92969C391.354 7.51953 392.128 7.31445 392.995 7.31445C394.296 7.31445 395.318 7.72461 396.062 8.54492C396.812 9.36523 397.188 10.5283 397.188 12.0342V13.0713H391.132C391.214 13.6924 391.46 14.1904 391.87 14.5654C392.286 14.9404 392.811 15.1279 393.443 15.1279C394.422 15.1279 395.187 14.7734 395.737 14.0645L396.985 15.4619C396.604 16.001 396.089 16.4229 395.438 16.7275C394.788 17.0264 394.067 17.1758 393.276 17.1758ZM392.986 9.37109C392.482 9.37109 392.072 9.54102 391.756 9.88086C391.445 10.2207 391.246 10.707 391.158 11.3398H394.691V11.1377C394.68 10.5752 394.527 10.1416 394.234 9.83691C393.941 9.52637 393.525 9.37109 392.986 9.37109ZM403.788 14.3721C403.788 14.0615 403.633 13.8184 403.322 13.6426C403.018 13.4609 402.525 13.2998 401.846 13.1592C399.584 12.6846 398.453 11.7236 398.453 10.2764C398.453 9.43262 398.802 8.72949 399.499 8.16699C400.202 7.59863 401.119 7.31445 402.25 7.31445C403.457 7.31445 404.421 7.59863 405.142 8.16699C405.868 8.73535 406.231 9.47363 406.231 10.3818H403.691C403.691 10.0186 403.574 9.71973 403.34 9.48535C403.105 9.24512 402.739 9.125 402.241 9.125C401.813 9.125 401.482 9.22168 401.248 9.41504C401.014 9.6084 400.896 9.85449 400.896 10.1533C400.896 10.4346 401.028 10.6631 401.292 10.8389C401.562 11.0088 402.013 11.1582 402.646 11.2871C403.278 11.4102 403.812 11.5508 404.245 11.709C405.587 12.2012 406.258 13.0537 406.258 14.2666C406.258 15.1338 405.886 15.8369 405.142 16.376C404.397 16.9092 403.437 17.1758 402.259 17.1758C401.462 17.1758 400.753 17.0352 400.132 16.7539C399.517 16.4668 399.033 16.0771 398.682 15.585C398.33 15.0869 398.154 14.5508 398.154 13.9766H400.562C400.586 14.4277 400.753 14.7734 401.063 15.0137C401.374 15.2539 401.79 15.374 402.312 15.374C402.798 15.374 403.164 15.2832 403.41 15.1016C403.662 14.9141 403.788 14.6709 403.788 14.3721ZM412.278 17.1758C410.884 17.1758 409.747 16.748 408.868 15.8926C407.995 15.0371 407.559 13.8975 407.559 12.4736V12.2275C407.559 11.2725 407.743 10.4199 408.112 9.66992C408.481 8.91406 409.003 8.33398 409.677 7.92969C410.356 7.51953 411.13 7.31445 411.997 7.31445C413.298 7.31445 414.32 7.72461 415.064 8.54492C415.814 9.36523 416.189 10.5283 416.189 12.0342V13.0713H410.134C410.216 13.6924 410.462 14.1904 410.872 14.5654C411.288 14.9404 411.812 15.1279 412.445 15.1279C413.424 15.1279 414.188 14.7734 414.739 14.0645L415.987 15.4619C415.606 16.001 415.091 16.4229 414.44 16.7275C413.79 17.0264 413.069 17.1758 412.278 17.1758ZM411.988 9.37109C411.484 9.37109 411.074 9.54102 410.758 9.88086C410.447 10.2207 410.248 10.707 410.16 11.3398H413.693V11.1377C413.682 10.5752 413.529 10.1416 413.236 9.83691C412.943 9.52637 412.527 9.37109 411.988 9.37109Z" fill="#222222"/>
<path d="M302.727 37.8374C302.058 37.6958 301.482 37.625 300.999 37.625C299.851 37.625 299.277 38.2256 299.277 39.4268V40.7158H302.5V41.7778H299.277V47H297.981V41.7778H295.615V40.7158H297.981V39.5C297.981 37.542 299.001 36.563 301.042 36.563C301.55 36.563 302.112 36.6216 302.727 36.7388V37.8374ZM306.953 37.6982H304.778V36.6509H308.242V45.938H310.432V47H304.536V45.938H306.953V37.6982ZM318.906 42.9351C318.906 43.1157 318.904 43.2671 318.899 43.3892C318.894 43.5112 318.887 43.626 318.877 43.7334H313.713C313.713 44.4854 313.923 45.064 314.343 45.4692C314.763 45.8696 315.369 46.0698 316.16 46.0698C316.375 46.0698 316.589 46.0625 316.804 46.0479C317.019 46.0283 317.227 46.0039 317.427 45.9746C317.627 45.9453 317.817 45.9136 317.998 45.8794C318.184 45.8403 318.354 45.7988 318.511 45.7549V46.8022C318.164 46.8999 317.771 46.978 317.332 47.0366C316.897 47.1001 316.445 47.1318 315.977 47.1318C315.347 47.1318 314.805 47.0464 314.351 46.8755C313.896 46.7046 313.523 46.458 313.23 46.1357C312.942 45.8086 312.727 45.4106 312.585 44.9419C312.449 44.4683 312.38 43.9336 312.38 43.3379C312.38 42.8203 312.454 42.332 312.6 41.873C312.751 41.4092 312.969 41.0039 313.252 40.6572C313.54 40.3057 313.892 40.0273 314.307 39.8223C314.722 39.6172 315.193 39.5146 315.72 39.5146C316.233 39.5146 316.687 39.5952 317.083 39.7563C317.478 39.9175 317.81 40.147 318.079 40.4448C318.352 40.7378 318.557 41.0967 318.694 41.5215C318.835 41.9414 318.906 42.4126 318.906 42.9351ZM317.581 42.752C317.595 42.4248 317.563 42.127 317.485 41.8584C317.407 41.585 317.285 41.3506 317.119 41.1553C316.958 40.96 316.755 40.8086 316.511 40.7012C316.267 40.5889 315.984 40.5327 315.662 40.5327C315.383 40.5327 315.129 40.5864 314.9 40.6938C314.67 40.8013 314.473 40.9526 314.307 41.1479C314.141 41.3433 314.006 41.5776 313.904 41.8511C313.801 42.1245 313.738 42.4248 313.713 42.752H317.581ZM327.571 47H325.879L323.894 44.1948L321.931 47H320.283L323.132 43.3086L320.415 39.6465H322.048L323.982 42.4736L325.879 39.6465H327.454L324.692 43.3379L327.571 47ZM334.331 43.6089H329.951V42.4077H334.331V43.6089ZM343.962 37.8374C343.293 37.6958 342.717 37.625 342.234 37.625C341.086 37.625 340.513 38.2256 340.513 39.4268V40.7158H343.735V41.7778H340.513V47H339.216V41.7778H336.851V40.7158H339.216V39.5C339.216 37.542 340.237 36.563 342.278 36.563C342.786 36.563 343.347 36.6216 343.962 36.7388V37.8374ZM348.188 37.6982H346.013V36.6509H349.478V45.938H351.667V47H345.771V45.938H348.188V37.6982ZM360.332 43.2646C360.332 43.8359 360.251 44.3608 360.09 44.8394C359.929 45.313 359.697 45.7207 359.395 46.0625C359.092 46.3994 358.723 46.6631 358.289 46.8535C357.854 47.0391 357.361 47.1318 356.809 47.1318C356.282 47.1318 355.808 47.0513 355.388 46.8901C354.973 46.7241 354.619 46.4824 354.326 46.165C354.038 45.8477 353.816 45.4546 353.66 44.9858C353.508 44.5171 353.433 43.9775 353.433 43.3672C353.433 42.7959 353.513 42.2759 353.674 41.8071C353.835 41.3335 354.067 40.9282 354.37 40.5913C354.673 40.2495 355.042 39.9858 355.476 39.8003C355.911 39.6099 356.404 39.5146 356.956 39.5146C357.483 39.5146 357.954 39.5977 358.369 39.7637C358.789 39.9248 359.143 40.1641 359.431 40.4814C359.724 40.7939 359.946 41.1846 360.098 41.6533C360.254 42.1221 360.332 42.6592 360.332 43.2646ZM359.028 43.3232C359.028 42.8691 358.977 42.4736 358.875 42.1367C358.777 41.7949 358.635 41.5117 358.45 41.2871C358.264 41.0576 358.037 40.8867 357.769 40.7744C357.505 40.6572 357.209 40.5986 356.882 40.5986C356.501 40.5986 356.174 40.6743 355.901 40.8257C355.632 40.9722 355.41 41.1699 355.234 41.4189C355.063 41.668 354.937 41.9585 354.854 42.2905C354.775 42.6177 354.736 42.9619 354.736 43.3232C354.736 43.7773 354.785 44.1753 354.883 44.5171C354.985 44.8589 355.129 45.1445 355.315 45.374C355.5 45.5986 355.725 45.7695 355.989 45.8867C356.252 45.999 356.55 46.0552 356.882 46.0552C357.263 46.0552 357.588 45.9819 357.856 45.8354C358.13 45.6841 358.352 45.4839 358.523 45.2349C358.699 44.9858 358.826 44.6978 358.904 44.3706C358.987 44.0386 359.028 43.6895 359.028 43.3232ZM368.989 39.6465L367.92 47H366.375L365.312 43.9238L365.1 43.1768L364.858 43.9678L363.84 47H362.339L361.277 39.6465H362.522L363.137 44.6416L363.269 45.7549L363.584 44.7808L364.653 41.4775H365.569L366.719 44.7368L367.048 45.7109L367.158 44.6782L367.729 39.6465H368.989ZM373.376 39.5146C373.528 39.5146 373.672 39.5464 373.809 39.6099C373.945 39.6685 374.065 39.749 374.167 39.8516C374.27 39.9541 374.351 40.0737 374.409 40.2104C374.473 40.3472 374.504 40.4912 374.504 40.6426C374.504 40.7988 374.473 40.9453 374.409 41.082C374.351 41.2139 374.27 41.3311 374.167 41.4336C374.065 41.5361 373.945 41.6167 373.809 41.6753C373.672 41.7339 373.528 41.7632 373.376 41.7632C373.22 41.7632 373.074 41.7339 372.937 41.6753C372.805 41.6167 372.688 41.5361 372.585 41.4336C372.483 41.3311 372.402 41.2139 372.344 41.082C372.285 40.9453 372.256 40.7988 372.256 40.6426C372.256 40.4912 372.285 40.3472 372.344 40.2104C372.402 40.0737 372.483 39.9541 372.585 39.8516C372.688 39.749 372.805 39.6685 372.937 39.6099C373.074 39.5464 373.22 39.5146 373.376 39.5146ZM373.376 44.8833C373.528 44.8833 373.672 44.915 373.809 44.9785C373.945 45.0371 374.065 45.1177 374.167 45.2202C374.27 45.3228 374.351 45.4424 374.409 45.5791C374.473 45.7158 374.504 45.8599 374.504 46.0112C374.504 46.1675 374.473 46.314 374.409 46.4507C374.351 46.5825 374.27 46.6997 374.167 46.8022C374.065 46.9048 373.945 46.9854 373.809 47.0439C373.672 47.1025 373.528 47.1318 373.376 47.1318C373.22 47.1318 373.074 47.1025 372.937 47.0439C372.805 46.9854 372.688 46.9048 372.585 46.8022C372.483 46.6997 372.402 46.5825 372.344 46.4507C372.285 46.314 372.256 46.1675 372.256 46.0112C372.256 45.8599 372.285 45.7158 372.344 45.5791C372.402 45.4424 372.483 45.3228 372.585 45.2202C372.688 45.1177 372.805 45.0371 372.937 44.9785C373.074 44.915 373.22 44.8833 373.376 44.8833ZM387.219 39.6465H388.384L388.42 41.0015C388.855 40.479 389.282 40.1006 389.702 39.8662C390.127 39.6318 390.554 39.5146 390.984 39.5146C391.746 39.5146 392.322 39.7612 392.712 40.2544C393.108 40.7476 393.291 41.48 393.262 42.4517H391.973C391.987 41.8071 391.892 41.3408 391.687 41.0527C391.487 40.7598 391.191 40.6133 390.801 40.6133C390.63 40.6133 390.457 40.645 390.281 40.7085C390.11 40.7671 389.932 40.8647 389.746 41.0015C389.565 41.1333 389.373 41.3042 389.167 41.5142C388.962 41.7241 388.743 41.978 388.508 42.2759V47H387.219V39.6465ZM401.567 43.2646C401.567 43.8359 401.487 44.3608 401.326 44.8394C401.165 45.313 400.933 45.7207 400.63 46.0625C400.327 46.3994 399.958 46.6631 399.524 46.8535C399.089 47.0391 398.596 47.1318 398.044 47.1318C397.517 47.1318 397.043 47.0513 396.624 46.8901C396.208 46.7241 395.854 46.4824 395.562 46.165C395.273 45.8477 395.051 45.4546 394.895 44.9858C394.744 44.5171 394.668 43.9775 394.668 43.3672C394.668 42.7959 394.749 42.2759 394.91 41.8071C395.071 41.3335 395.303 40.9282 395.605 40.5913C395.908 40.2495 396.277 39.9858 396.711 39.8003C397.146 39.6099 397.639 39.5146 398.191 39.5146C398.718 39.5146 399.189 39.5977 399.604 39.7637C400.024 39.9248 400.378 40.1641 400.667 40.4814C400.959 40.7939 401.182 41.1846 401.333 41.6533C401.489 42.1221 401.567 42.6592 401.567 43.2646ZM400.264 43.3232C400.264 42.8691 400.212 42.4736 400.11 42.1367C400.012 41.7949 399.871 41.5117 399.685 41.2871C399.5 41.0576 399.272 40.8867 399.004 40.7744C398.74 40.6572 398.445 40.5986 398.118 40.5986C397.737 40.5986 397.41 40.6743 397.136 40.8257C396.868 40.9722 396.646 41.1699 396.47 41.4189C396.299 41.668 396.172 41.9585 396.089 42.2905C396.011 42.6177 395.972 42.9619 395.972 43.3232C395.972 43.7773 396.021 44.1753 396.118 44.5171C396.221 44.8589 396.365 45.1445 396.55 45.374C396.736 45.5986 396.96 45.7695 397.224 45.8867C397.488 45.999 397.786 46.0552 398.118 46.0552C398.499 46.0552 398.823 45.9819 399.092 45.8354C399.365 45.6841 399.587 45.4839 399.758 45.2349C399.934 44.9858 400.061 44.6978 400.139 44.3706C400.222 44.0386 400.264 43.6895 400.264 43.3232ZM410.225 39.6465L409.155 47H407.61L406.548 43.9238L406.335 43.1768L406.094 43.9678L405.076 47H403.574L402.512 39.6465H403.757L404.373 44.6416L404.504 45.7549L404.819 44.7808L405.889 41.4775H406.804L407.954 44.7368L408.284 45.7109L408.394 44.6782L408.965 39.6465H410.225ZM426.719 39.6465L425.649 47H424.104L423.042 43.9238L422.83 43.1768L422.588 43.9678L421.57 47H420.068L419.006 39.6465H420.251L420.867 44.6416L420.999 45.7549L421.313 44.7808L422.383 41.4775H423.298L424.448 44.7368L424.778 45.7109L424.888 44.6782L425.459 39.6465H426.719ZM428.455 39.6465H429.619L429.656 41.0015C430.09 40.479 430.518 40.1006 430.938 39.8662C431.362 39.6318 431.79 39.5146 432.219 39.5146C432.981 39.5146 433.557 39.7612 433.948 40.2544C434.343 40.7476 434.526 41.48 434.497 42.4517H433.208C433.223 41.8071 433.127 41.3408 432.922 41.0527C432.722 40.7598 432.427 40.6133 432.036 40.6133C431.865 40.6133 431.692 40.645 431.516 40.7085C431.345 40.7671 431.167 40.8647 430.981 41.0015C430.801 41.1333 430.608 41.3042 430.403 41.5142C430.198 41.7241 429.978 41.978 429.744 42.2759V47H428.455V39.6465ZM441.125 47L441.096 46.0112C440.696 46.4067 440.288 46.6924 439.873 46.8682C439.463 47.0439 439.031 47.1318 438.577 47.1318C438.157 47.1318 437.798 47.0781 437.5 46.9707C437.202 46.8633 436.956 46.7168 436.76 46.5312C436.57 46.3408 436.428 46.1187 436.335 45.8647C436.248 45.6108 436.204 45.335 436.204 45.0371C436.204 44.2998 436.477 43.7236 437.024 43.3086C437.576 42.8887 438.389 42.6787 439.463 42.6787H440.986V42.0342C440.986 41.5996 440.847 41.2529 440.569 40.9941C440.291 40.7305 439.866 40.5986 439.294 40.5986C438.879 40.5986 438.469 40.645 438.064 40.7378C437.664 40.8306 437.249 40.9624 436.819 41.1333V39.9834C436.98 39.9248 437.158 39.8687 437.354 39.8149C437.554 39.7563 437.764 39.7051 437.983 39.6611C438.203 39.6172 438.433 39.583 438.672 39.5586C438.911 39.5293 439.153 39.5146 439.397 39.5146C439.841 39.5146 440.242 39.5635 440.598 39.6611C440.955 39.7588 441.255 39.9077 441.499 40.1079C441.748 40.3081 441.938 40.5596 442.07 40.8623C442.202 41.165 442.268 41.5215 442.268 41.9316V47H441.125ZM440.986 43.6528H439.368C439.05 43.6528 438.777 43.6846 438.547 43.748C438.318 43.8115 438.13 43.9019 437.983 44.019C437.837 44.1362 437.727 44.2778 437.654 44.4438C437.585 44.605 437.551 44.7881 437.551 44.9932C437.551 45.1348 437.573 45.2715 437.617 45.4033C437.661 45.5303 437.732 45.645 437.83 45.7476C437.927 45.8452 438.054 45.9233 438.21 45.9819C438.367 46.0405 438.557 46.0698 438.782 46.0698C439.075 46.0698 439.409 45.9819 439.785 45.8062C440.166 45.6255 440.566 45.3423 440.986 44.9565V43.6528ZM450.933 43.1914C450.933 43.8457 450.84 44.417 450.654 44.9053C450.474 45.3936 450.222 45.7988 449.9 46.1211C449.578 46.4434 449.197 46.6851 448.757 46.8462C448.318 47.0073 447.842 47.0879 447.329 47.0879C447.095 47.0879 446.86 47.0757 446.626 47.0513C446.396 47.0269 446.162 46.9854 445.923 46.9268V50.0029H444.648V39.6465H445.784L445.864 40.877C446.23 40.374 446.621 40.0225 447.036 39.8223C447.451 39.6172 447.9 39.5146 448.384 39.5146C448.804 39.5146 449.172 39.6025 449.49 39.7783C449.807 39.9541 450.073 40.2031 450.288 40.5254C450.503 40.8428 450.664 41.2285 450.771 41.6826C450.879 42.1318 450.933 42.6348 450.933 43.1914ZM449.629 43.25C449.629 42.8643 449.6 42.5103 449.541 42.188C449.487 41.8657 449.399 41.5898 449.277 41.3604C449.155 41.1309 448.999 40.9526 448.809 40.8257C448.618 40.6938 448.391 40.6279 448.127 40.6279C447.966 40.6279 447.803 40.6548 447.637 40.7085C447.471 40.7573 447.297 40.8428 447.117 40.9648C446.941 41.082 446.753 41.2407 446.553 41.4409C446.357 41.6362 446.147 41.8804 445.923 42.1733V45.7402C446.157 45.8379 446.404 45.916 446.663 45.9746C446.921 46.0283 447.175 46.0552 447.424 46.0552C448.113 46.0552 448.652 45.8232 449.043 45.3594C449.434 44.8906 449.629 44.1875 449.629 43.25ZM453.555 48.5015C453.804 48.5112 454.045 48.4893 454.28 48.4355C454.514 48.3818 454.719 48.3013 454.895 48.1938C455.076 48.0913 455.22 47.9619 455.327 47.8057C455.435 47.6494 455.488 47.4712 455.488 47.271C455.488 47.0659 455.452 46.8999 455.378 46.7729C455.31 46.646 455.232 46.5288 455.144 46.4214C455.056 46.314 454.976 46.1992 454.902 46.0771C454.834 45.9551 454.8 45.7915 454.8 45.5864C454.8 45.4839 454.819 45.3765 454.858 45.2642C454.897 45.1519 454.956 45.0493 455.034 44.9565C455.117 44.8638 455.22 44.7881 455.342 44.7295C455.469 44.6709 455.618 44.6416 455.789 44.6416C455.959 44.6416 456.123 44.6782 456.279 44.7515C456.44 44.8198 456.58 44.9272 456.697 45.0737C456.819 45.2202 456.914 45.4033 456.982 45.623C457.056 45.8428 457.092 46.1016 457.092 46.3994C457.092 46.8047 457.017 47.1929 456.865 47.564C456.719 47.9399 456.497 48.272 456.199 48.5601C455.906 48.8481 455.537 49.0776 455.093 49.2485C454.653 49.4194 454.141 49.5049 453.555 49.5049V48.5015ZM455.847 39.5146C455.999 39.5146 456.143 39.5464 456.279 39.6099C456.416 39.6685 456.536 39.749 456.638 39.8516C456.741 39.9541 456.821 40.0737 456.88 40.2104C456.943 40.3472 456.975 40.4912 456.975 40.6426C456.975 40.7988 456.943 40.9453 456.88 41.082C456.821 41.2139 456.741 41.3311 456.638 41.4336C456.536 41.5361 456.416 41.6167 456.279 41.6753C456.143 41.7339 455.999 41.7632 455.847 41.7632C455.691 41.7632 455.544 41.7339 455.408 41.6753C455.276 41.6167 455.159 41.5361 455.056 41.4336C454.954 41.3311 454.873 41.2139 454.814 41.082C454.756 40.9453 454.727 40.7988 454.727 40.6426C454.727 40.4912 454.756 40.3472 454.814 40.2104C454.873 40.0737 454.954 39.9541 455.056 39.8516C455.159 39.749 455.276 39.6685 455.408 39.6099C455.544 39.5464 455.691 39.5146 455.847 39.5146ZM278.271 57.6465L277.202 65H275.657L274.595 61.9238L274.382 61.1768L274.141 61.9678L273.123 65H271.621L270.559 57.6465H271.804L272.419 62.6416L272.551 63.7549L272.866 62.7808L273.936 59.4775H274.851L276.001 62.7368L276.331 63.7109L276.44 62.6782L277.012 57.6465H278.271ZM280.007 57.6465H281.172L281.208 59.0015C281.643 58.479 282.07 58.1006 282.49 57.8662C282.915 57.6318 283.342 57.5146 283.772 57.5146C284.534 57.5146 285.11 57.7612 285.5 58.2544C285.896 58.7476 286.079 59.48 286.05 60.4517H284.761C284.775 59.8071 284.68 59.3408 284.475 59.0527C284.275 58.7598 283.979 58.6133 283.589 58.6133C283.418 58.6133 283.245 58.645 283.069 58.7085C282.898 58.7671 282.72 58.8647 282.534 59.0015C282.354 59.1333 282.161 59.3042 281.956 59.5142C281.75 59.7241 281.531 59.978 281.296 60.2759V65H280.007V57.6465ZM290.459 58.7012H288.284V57.6465H291.748V63.938H293.938V65H288.042V63.938H290.459V58.7012ZM290.906 54.563C291.047 54.563 291.179 54.5898 291.301 54.6436C291.423 54.6924 291.528 54.7632 291.616 54.856C291.709 54.9487 291.78 55.0562 291.829 55.1782C291.882 55.2954 291.909 55.4248 291.909 55.5664C291.909 55.7031 291.882 55.8325 291.829 55.9546C291.78 56.0767 291.709 56.1841 291.616 56.2769C291.528 56.3696 291.423 56.4429 291.301 56.4966C291.179 56.5454 291.047 56.5698 290.906 56.5698C290.764 56.5698 290.632 56.5454 290.51 56.4966C290.388 56.4429 290.281 56.3696 290.188 56.2769C290.1 56.1841 290.029 56.0767 289.976 55.9546C289.927 55.8325 289.902 55.7031 289.902 55.5664C289.902 55.4248 289.927 55.2954 289.976 55.1782C290.029 55.0562 290.1 54.9487 290.188 54.856C290.281 54.7632 290.388 54.6924 290.51 54.6436C290.632 54.5898 290.764 54.563 290.906 54.563ZM302.126 64.8975C301.838 64.9707 301.541 65.022 301.233 65.0513C300.925 65.0854 300.613 65.1025 300.295 65.1025C299.373 65.1025 298.684 64.895 298.23 64.48C297.776 64.0601 297.549 63.418 297.549 62.5537V58.7158H295.491V57.6465H297.549V55.625L298.823 55.2954V57.6465H302.126V58.7158H298.823V62.4512C298.823 62.9785 298.962 63.374 299.241 63.6377C299.524 63.8965 299.939 64.0259 300.486 64.0259C300.72 64.0259 300.977 64.0088 301.255 63.9746C301.533 63.9355 301.824 63.877 302.126 63.7988V64.8975ZM306.953 58.7012H304.778V57.6465H308.242V63.938H310.432V65H304.536V63.938H306.953V58.7012ZM307.4 54.563C307.542 54.563 307.673 54.5898 307.795 54.6436C307.917 54.6924 308.022 54.7632 308.11 54.856C308.203 54.9487 308.274 55.0562 308.323 55.1782C308.376 55.2954 308.403 55.4248 308.403 55.5664C308.403 55.7031 308.376 55.8325 308.323 55.9546C308.274 56.0767 308.203 56.1841 308.11 56.2769C308.022 56.3696 307.917 56.4429 307.795 56.4966C307.673 56.5454 307.542 56.5698 307.4 56.5698C307.258 56.5698 307.126 56.5454 307.004 56.4966C306.882 56.4429 306.775 56.3696 306.682 56.2769C306.594 56.1841 306.523 56.0767 306.47 55.9546C306.421 55.8325 306.396 55.7031 306.396 55.5664C306.396 55.4248 306.421 55.2954 306.47 55.1782C306.523 55.0562 306.594 54.9487 306.682 54.856C306.775 54.7632 306.882 54.6924 307.004 54.6436C307.126 54.5898 307.258 54.563 307.4 54.563ZM312.695 57.6465H313.831L313.882 58.833C314.097 58.5791 314.304 58.3691 314.504 58.2031C314.705 58.0322 314.9 57.8955 315.09 57.793C315.286 57.6904 315.483 57.6196 315.684 57.5806C315.884 57.5366 316.091 57.5146 316.306 57.5146C317.063 57.5146 317.634 57.7393 318.02 58.1885C318.411 58.6328 318.606 59.3042 318.606 60.2026V65H317.332V60.3052C317.332 59.729 317.224 59.3042 317.009 59.0308C316.794 58.7524 316.475 58.6133 316.05 58.6133C315.894 58.6133 315.74 58.6377 315.588 58.6865C315.442 58.7305 315.288 58.811 315.127 58.9282C314.966 59.0405 314.79 59.1943 314.6 59.3896C314.414 59.585 314.204 59.8291 313.97 60.1221V65H312.695V57.6465ZM326.238 58.6865C326.375 58.8574 326.479 59.0576 326.553 59.2871C326.631 59.5117 326.67 59.7559 326.67 60.0195C326.67 60.4004 326.599 60.7495 326.458 61.0669C326.321 61.3794 326.125 61.6479 325.872 61.8726C325.618 62.0972 325.312 62.2729 324.956 62.3999C324.604 62.522 324.216 62.583 323.792 62.583C323.484 62.583 323.196 62.5513 322.927 62.4878C322.659 62.4194 322.446 62.3364 322.29 62.2388C322.197 62.3755 322.119 62.5049 322.056 62.627C321.992 62.749 321.96 62.8857 321.96 63.0371C321.96 63.2227 322.048 63.3765 322.224 63.4985C322.405 63.6206 322.642 63.6865 322.935 63.6963L324.868 63.7695C325.234 63.7793 325.571 63.8257 325.879 63.9087C326.191 63.9917 326.458 64.1113 326.677 64.2676C326.902 64.4238 327.075 64.6167 327.197 64.8462C327.324 65.0757 327.388 65.3418 327.388 65.6445C327.388 65.9717 327.317 66.2817 327.175 66.5747C327.034 66.8677 326.814 67.124 326.516 67.3438C326.223 67.5684 325.85 67.7466 325.396 67.8784C324.941 68.0103 324.402 68.0762 323.777 68.0762C323.181 68.0762 322.673 68.0273 322.253 67.9297C321.838 67.8369 321.497 67.7051 321.228 67.5342C320.959 67.3682 320.764 67.168 320.642 66.9336C320.52 66.7041 320.459 66.4502 320.459 66.1719C320.459 65.8154 320.542 65.5029 320.708 65.2344C320.874 64.9658 321.13 64.707 321.477 64.458C321.35 64.3994 321.24 64.3262 321.147 64.2383C321.055 64.1504 320.979 64.0552 320.92 63.9526C320.862 63.8452 320.818 63.7329 320.789 63.6157C320.759 63.4985 320.745 63.3838 320.745 63.2715C320.745 62.9541 320.818 62.6636 320.964 62.3999C321.116 62.1362 321.294 61.8872 321.499 61.6528C321.406 61.5405 321.323 61.4307 321.25 61.3232C321.182 61.2158 321.121 61.1011 321.067 60.979C321.018 60.8521 320.979 60.7178 320.95 60.5762C320.925 60.4297 320.913 60.2637 320.913 60.0781C320.913 59.6973 320.981 59.3506 321.118 59.0381C321.26 58.7207 321.455 58.4497 321.704 58.2251C321.958 58.0005 322.261 57.8271 322.612 57.7051C322.969 57.5781 323.362 57.5146 323.792 57.5146C323.972 57.5146 324.146 57.5269 324.312 57.5513C324.478 57.5757 324.624 57.6074 324.751 57.6465H327.417V58.6865H326.238ZM321.814 66.062C321.814 66.4087 321.995 66.6602 322.356 66.8164C322.717 66.9775 323.22 67.0581 323.865 67.0581C324.27 67.0581 324.609 67.0215 324.883 66.9482C325.161 66.875 325.383 66.7773 325.549 66.6553C325.72 66.5381 325.842 66.4014 325.916 66.2451C325.989 66.0938 326.025 65.9375 326.025 65.7764C326.025 65.4785 325.903 65.2588 325.659 65.1172C325.415 64.9756 325.042 64.8926 324.539 64.8682L322.62 64.8022C322.458 64.9097 322.324 65.0146 322.217 65.1172C322.114 65.2197 322.034 65.3223 321.975 65.4248C321.917 65.5322 321.875 65.6372 321.851 65.7397C321.826 65.8472 321.814 65.9546 321.814 66.062ZM322.202 60.0488C322.202 60.2832 322.241 60.498 322.319 60.6934C322.397 60.8887 322.507 61.0547 322.649 61.1914C322.791 61.3281 322.957 61.4355 323.147 61.5137C323.342 61.5869 323.557 61.6235 323.792 61.6235C324.045 61.6235 324.27 61.582 324.465 61.499C324.666 61.4111 324.832 61.2939 324.963 61.1475C325.1 61.001 325.203 60.8325 325.271 60.6421C325.344 60.4517 325.381 60.2539 325.381 60.0488C325.381 59.8145 325.342 59.5996 325.264 59.4043C325.186 59.209 325.076 59.043 324.934 58.9062C324.792 58.7695 324.624 58.6646 324.429 58.5913C324.238 58.5132 324.026 58.4741 323.792 58.4741C323.538 58.4741 323.311 58.5181 323.11 58.606C322.915 58.6938 322.749 58.811 322.612 58.9575C322.48 59.0991 322.378 59.2651 322.305 59.4556C322.236 59.646 322.202 59.8438 322.202 60.0488ZM334.331 61.6089H329.951V60.4077H334.331V61.6089ZM342.681 65V59.7192C342.681 59.4897 342.671 59.3018 342.651 59.1553C342.637 59.0088 342.61 58.894 342.571 58.811C342.537 58.7231 342.49 58.6621 342.432 58.6279C342.378 58.5938 342.31 58.5767 342.227 58.5767C342.129 58.5767 342.039 58.606 341.956 58.6646C341.873 58.7231 341.782 58.8184 341.685 58.9502C341.592 59.082 341.487 59.2578 341.37 59.4775C341.257 59.6924 341.123 59.9585 340.967 60.2759V65H339.802V59.8584C339.802 59.5898 339.792 59.3726 339.773 59.2065C339.758 59.0405 339.731 58.9111 339.692 58.8184C339.658 58.7256 339.612 58.6621 339.553 58.6279C339.495 58.5938 339.424 58.5767 339.341 58.5767C339.253 58.5767 339.17 58.6011 339.092 58.6499C339.014 58.6987 338.926 58.7866 338.828 58.9136C338.735 59.0405 338.63 59.2139 338.513 59.4336C338.396 59.6533 338.257 59.9341 338.096 60.2759V65H336.924V57.6465H337.898L337.957 59.0454C338.083 58.7671 338.206 58.5303 338.323 58.335C338.445 58.1396 338.569 57.9834 338.696 57.8662C338.823 57.7441 338.958 57.6562 339.099 57.6025C339.246 57.5439 339.407 57.5146 339.583 57.5146C339.978 57.5146 340.278 57.644 340.483 57.9028C340.688 58.1616 340.791 58.562 340.791 59.104C340.908 58.8501 341.023 58.6255 341.135 58.4302C341.248 58.23 341.367 58.064 341.494 57.9321C341.626 57.7954 341.77 57.6929 341.926 57.6245C342.083 57.5513 342.263 57.5146 342.468 57.5146C343.391 57.5146 343.853 58.2251 343.853 59.646V65H342.681ZM352.085 61.2646C352.085 61.8359 352.004 62.3608 351.843 62.8394C351.682 63.313 351.45 63.7207 351.147 64.0625C350.845 64.3994 350.476 64.6631 350.042 64.8535C349.607 65.0391 349.114 65.1318 348.562 65.1318C348.035 65.1318 347.561 65.0513 347.141 64.8901C346.726 64.7241 346.372 64.4824 346.079 64.165C345.791 63.8477 345.569 63.4546 345.413 62.9858C345.261 62.5171 345.186 61.9775 345.186 61.3672C345.186 60.7959 345.266 60.2759 345.427 59.8071C345.588 59.3335 345.82 58.9282 346.123 58.5913C346.426 58.2495 346.794 57.9858 347.229 57.8003C347.664 57.6099 348.157 57.5146 348.708 57.5146C349.236 57.5146 349.707 57.5977 350.122 57.7637C350.542 57.9248 350.896 58.1641 351.184 58.4814C351.477 58.7939 351.699 59.1846 351.851 59.6533C352.007 60.1221 352.085 60.6592 352.085 61.2646ZM350.781 61.3232C350.781 60.8691 350.73 60.4736 350.627 60.1367C350.53 59.7949 350.388 59.5117 350.203 59.2871C350.017 59.0576 349.79 58.8867 349.521 58.7744C349.258 58.6572 348.962 58.5986 348.635 58.5986C348.254 58.5986 347.927 58.6743 347.654 58.8257C347.385 58.9722 347.163 59.1699 346.987 59.4189C346.816 59.668 346.689 59.9585 346.606 60.2905C346.528 60.6177 346.489 60.9619 346.489 61.3232C346.489 61.7773 346.538 62.1753 346.636 62.5171C346.738 62.8589 346.882 63.1445 347.068 63.374C347.253 63.5986 347.478 63.7695 347.742 63.8867C348.005 63.999 348.303 64.0552 348.635 64.0552C349.016 64.0552 349.341 63.9819 349.609 63.8354C349.883 63.6841 350.105 63.4839 350.276 63.2349C350.452 62.9858 350.579 62.6978 350.657 62.3706C350.74 62.0386 350.781 61.6895 350.781 61.3232ZM353.557 61.4771C353.557 60.8521 353.643 60.2979 353.813 59.8145C353.984 59.3262 354.226 58.916 354.539 58.584C354.856 58.2471 355.234 57.9932 355.674 57.8223C356.118 57.6465 356.611 57.5586 357.153 57.5586C357.388 57.5586 357.617 57.5732 357.842 57.6025C358.071 57.6318 358.296 57.6782 358.516 57.7417V54.6509H359.797V65H358.655L358.611 63.6084C358.254 64.126 357.869 64.5093 357.454 64.7583C357.039 65.0073 356.589 65.1318 356.106 65.1318C355.686 65.1318 355.315 65.0439 354.993 64.8682C354.675 64.6924 354.409 64.4458 354.194 64.1284C353.984 63.8062 353.826 63.4204 353.718 62.9712C353.611 62.522 353.557 62.0239 353.557 61.4771ZM354.861 61.3965C354.861 62.2852 354.99 62.9492 355.249 63.3887C355.513 63.8232 355.884 64.0405 356.362 64.0405C356.685 64.0405 357.024 63.8965 357.38 63.6084C357.742 63.3203 358.12 62.8931 358.516 62.3267V58.9136C358.306 58.8159 358.074 58.7427 357.82 58.6938C357.566 58.6401 357.314 58.6133 357.065 58.6133C356.372 58.6133 355.83 58.8379 355.439 59.2871C355.054 59.7363 354.861 60.4395 354.861 61.3965ZM368.389 60.9351C368.389 61.1157 368.386 61.2671 368.381 61.3892C368.376 61.5112 368.369 61.626 368.359 61.7334H363.196C363.196 62.4854 363.406 63.064 363.826 63.4692C364.246 63.8696 364.851 64.0698 365.642 64.0698C365.857 64.0698 366.072 64.0625 366.287 64.0479C366.501 64.0283 366.709 64.0039 366.909 63.9746C367.109 63.9453 367.3 63.9136 367.48 63.8794C367.666 63.8403 367.837 63.7988 367.993 63.7549V64.8022C367.646 64.8999 367.253 64.978 366.814 65.0366C366.379 65.1001 365.928 65.1318 365.459 65.1318C364.829 65.1318 364.287 65.0464 363.833 64.8755C363.379 64.7046 363.005 64.458 362.712 64.1357C362.424 63.8086 362.209 63.4106 362.068 62.9419C361.931 62.4683 361.863 61.9336 361.863 61.3379C361.863 60.8203 361.936 60.332 362.083 59.873C362.234 59.4092 362.451 59.0039 362.734 58.6572C363.022 58.3057 363.374 58.0273 363.789 57.8223C364.204 57.6172 364.675 57.5146 365.203 57.5146C365.715 57.5146 366.169 57.5952 366.565 57.7563C366.96 57.9175 367.292 58.147 367.561 58.4448C367.834 58.7378 368.04 59.0967 368.176 59.5215C368.318 59.9414 368.389 60.4126 368.389 60.9351ZM367.063 60.752C367.078 60.4248 367.046 60.127 366.968 59.8584C366.89 59.585 366.768 59.3506 366.602 59.1553C366.44 58.96 366.238 58.8086 365.994 58.7012C365.75 58.5889 365.466 58.5327 365.144 58.5327C364.866 58.5327 364.612 58.5864 364.382 58.6938C364.153 58.8013 363.955 58.9526 363.789 59.1479C363.623 59.3433 363.489 59.5776 363.386 59.8511C363.284 60.1245 363.22 60.4248 363.196 60.752H367.063ZM373.376 57.5146C373.528 57.5146 373.672 57.5464 373.809 57.6099C373.945 57.6685 374.065 57.749 374.167 57.8516C374.27 57.9541 374.351 58.0737 374.409 58.2104C374.473 58.3472 374.504 58.4912 374.504 58.6426C374.504 58.7988 374.473 58.9453 374.409 59.082C374.351 59.2139 374.27 59.3311 374.167 59.4336C374.065 59.5361 373.945 59.6167 373.809 59.6753C373.672 59.7339 373.528 59.7632 373.376 59.7632C373.22 59.7632 373.074 59.7339 372.937 59.6753C372.805 59.6167 372.688 59.5361 372.585 59.4336C372.483 59.3311 372.402 59.2139 372.344 59.082C372.285 58.9453 372.256 58.7988 372.256 58.6426C372.256 58.4912 372.285 58.3472 372.344 58.2104C372.402 58.0737 372.483 57.9541 372.585 57.8516C372.688 57.749 372.805 57.6685 372.937 57.6099C373.074 57.5464 373.22 57.5146 373.376 57.5146ZM373.376 62.8833C373.528 62.8833 373.672 62.915 373.809 62.9785C373.945 63.0371 374.065 63.1177 374.167 63.2202C374.27 63.3228 374.351 63.4424 374.409 63.5791C374.473 63.7158 374.504 63.8599 374.504 64.0112C374.504 64.1675 374.473 64.314 374.409 64.4507C374.351 64.5825 374.27 64.6997 374.167 64.8022C374.065 64.9048 373.945 64.9854 373.809 65.0439C373.672 65.1025 373.528 65.1318 373.376 65.1318C373.22 65.1318 373.074 65.1025 372.937 65.0439C372.805 64.9854 372.688 64.9048 372.585 64.8022C372.483 64.6997 372.402 64.5825 372.344 64.4507C372.285 64.314 372.256 64.1675 372.256 64.0112C372.256 63.8599 372.285 63.7158 372.344 63.5791C372.402 63.4424 372.483 63.3228 372.585 63.2202C372.688 63.1177 372.805 63.0371 372.937 62.9785C373.074 62.915 373.22 62.8833 373.376 62.8833ZM386.23 57.6465H387.681L389.482 62.5098L389.871 63.6963L390.273 62.4805L392.061 57.6465H393.459L390.574 65H389.109L386.23 57.6465ZM401.377 60.9351C401.377 61.1157 401.375 61.2671 401.37 61.3892C401.365 61.5112 401.357 61.626 401.348 61.7334H396.184C396.184 62.4854 396.394 63.064 396.814 63.4692C397.234 63.8696 397.839 64.0698 398.63 64.0698C398.845 64.0698 399.06 64.0625 399.275 64.0479C399.49 64.0283 399.697 64.0039 399.897 63.9746C400.098 63.9453 400.288 63.9136 400.469 63.8794C400.654 63.8403 400.825 63.7988 400.981 63.7549V64.8022C400.635 64.8999 400.242 64.978 399.802 65.0366C399.368 65.1001 398.916 65.1318 398.447 65.1318C397.817 65.1318 397.275 65.0464 396.821 64.8755C396.367 64.7046 395.994 64.458 395.701 64.1357C395.413 63.8086 395.198 63.4106 395.056 62.9419C394.919 62.4683 394.851 61.9336 394.851 61.3379C394.851 60.8203 394.924 60.332 395.071 59.873C395.222 59.4092 395.439 59.0039 395.723 58.6572C396.011 58.3057 396.362 58.0273 396.777 57.8223C397.192 57.6172 397.664 57.5146 398.191 57.5146C398.704 57.5146 399.158 57.5952 399.553 57.7563C399.949 57.9175 400.281 58.147 400.549 58.4448C400.823 58.7378 401.028 59.0967 401.165 59.5215C401.306 59.9414 401.377 60.4126 401.377 60.9351ZM400.051 60.752C400.066 60.4248 400.034 60.127 399.956 59.8584C399.878 59.585 399.756 59.3506 399.59 59.1553C399.429 58.96 399.226 58.8086 398.982 58.7012C398.738 58.5889 398.455 58.5327 398.132 58.5327C397.854 58.5327 397.6 58.5864 397.371 58.6938C397.141 58.8013 396.943 58.9526 396.777 59.1479C396.611 59.3433 396.477 59.5776 396.375 59.8511C396.272 60.1245 396.208 60.4248 396.184 60.752H400.051ZM403.713 57.6465H404.878L404.915 59.0015C405.349 58.479 405.776 58.1006 406.196 57.8662C406.621 57.6318 407.048 57.5146 407.478 57.5146C408.24 57.5146 408.816 57.7612 409.207 58.2544C409.602 58.7476 409.785 59.48 409.756 60.4517H408.467C408.481 59.8071 408.386 59.3408 408.181 59.0527C407.981 58.7598 407.686 58.6133 407.295 58.6133C407.124 58.6133 406.951 58.645 406.775 58.7085C406.604 58.7671 406.426 58.8647 406.24 59.0015C406.06 59.1333 405.867 59.3042 405.662 59.5142C405.457 59.7241 405.237 59.978 405.002 60.2759V65H403.713V57.6465ZM417.585 64.8975C417.297 64.9707 417 65.022 416.692 65.0513C416.384 65.0854 416.072 65.1025 415.754 65.1025C414.832 65.1025 414.143 64.895 413.689 64.48C413.235 64.0601 413.008 63.418 413.008 62.5537V58.7158H410.95V57.6465H413.008V55.625L414.282 55.2954V57.6465H417.585V58.7158H414.282V62.4512C414.282 62.9785 414.421 63.374 414.7 63.6377C414.983 63.8965 415.398 64.0259 415.945 64.0259C416.179 64.0259 416.436 64.0088 416.714 63.9746C416.992 63.9355 417.283 63.877 417.585 63.7988V64.8975ZM422.412 58.7012H420.237V57.6465H423.701V63.938H425.891V65H419.995V63.938H422.412V58.7012ZM422.859 54.563C423 54.563 423.132 54.5898 423.254 54.6436C423.376 54.6924 423.481 54.7632 423.569 54.856C423.662 54.9487 423.733 55.0562 423.782 55.1782C423.835 55.2954 423.862 55.4248 423.862 55.5664C423.862 55.7031 423.835 55.8325 423.782 55.9546C423.733 56.0767 423.662 56.1841 423.569 56.2769C423.481 56.3696 423.376 56.4429 423.254 56.4966C423.132 56.5454 423 56.5698 422.859 56.5698C422.717 56.5698 422.585 56.5454 422.463 56.4966C422.341 56.4429 422.234 56.3696 422.141 56.2769C422.053 56.1841 421.982 56.0767 421.929 55.9546C421.88 55.8325 421.855 55.7031 421.855 55.5664C421.855 55.4248 421.88 55.2954 421.929 55.1782C421.982 55.0562 422.053 54.9487 422.141 54.856C422.234 54.7632 422.341 54.6924 422.463 54.6436C422.585 54.5898 422.717 54.563 422.859 54.563ZM433.867 64.729C433.535 64.856 433.193 64.9487 432.842 65.0073C432.495 65.0708 432.136 65.1025 431.765 65.1025C430.603 65.1025 429.707 64.7876 429.077 64.1577C428.452 63.5278 428.14 62.6074 428.14 61.3965C428.14 60.8154 428.23 60.2881 428.411 59.8145C428.591 59.3408 428.845 58.9355 429.172 58.5986C429.5 58.2617 429.89 58.0029 430.344 57.8223C430.798 57.6367 431.299 57.5439 431.846 57.5439C432.227 57.5439 432.583 57.5708 432.915 57.6245C433.247 57.6782 433.564 57.7661 433.867 57.8882V59.104C433.55 58.938 433.225 58.8184 432.893 58.7451C432.566 58.667 432.227 58.6279 431.875 58.6279C431.548 58.6279 431.238 58.6914 430.945 58.8184C430.657 58.9404 430.403 59.1187 430.183 59.353C429.963 59.5874 429.79 59.873 429.663 60.21C429.536 60.5469 429.473 60.9277 429.473 61.3525C429.473 62.2412 429.688 62.9077 430.117 63.3521C430.552 63.7915 431.152 64.0112 431.919 64.0112C432.266 64.0112 432.6 63.9722 432.922 63.894C433.25 63.8159 433.564 63.6987 433.867 63.5425V64.729ZM441.125 65L441.096 64.0112C440.696 64.4067 440.288 64.6924 439.873 64.8682C439.463 65.0439 439.031 65.1318 438.577 65.1318C438.157 65.1318 437.798 65.0781 437.5 64.9707C437.202 64.8633 436.956 64.7168 436.76 64.5312C436.57 64.3408 436.428 64.1187 436.335 63.8647C436.248 63.6108 436.204 63.335 436.204 63.0371C436.204 62.2998 436.477 61.7236 437.024 61.3086C437.576 60.8887 438.389 60.6787 439.463 60.6787H440.986V60.0342C440.986 59.5996 440.847 59.2529 440.569 58.9941C440.291 58.7305 439.866 58.5986 439.294 58.5986C438.879 58.5986 438.469 58.645 438.064 58.7378C437.664 58.8306 437.249 58.9624 436.819 59.1333V57.9834C436.98 57.9248 437.158 57.8687 437.354 57.8149C437.554 57.7563 437.764 57.7051 437.983 57.6611C438.203 57.6172 438.433 57.583 438.672 57.5586C438.911 57.5293 439.153 57.5146 439.397 57.5146C439.841 57.5146 440.242 57.5635 440.598 57.6611C440.955 57.7588 441.255 57.9077 441.499 58.1079C441.748 58.3081 441.938 58.5596 442.07 58.8623C442.202 59.165 442.268 59.5215 442.268 59.9316V65H441.125ZM440.986 61.6528H439.368C439.05 61.6528 438.777 61.6846 438.547 61.748C438.318 61.8115 438.13 61.9019 437.983 62.019C437.837 62.1362 437.727 62.2778 437.654 62.4438C437.585 62.605 437.551 62.7881 437.551 62.9932C437.551 63.1348 437.573 63.2715 437.617 63.4033C437.661 63.5303 437.732 63.645 437.83 63.7476C437.927 63.8452 438.054 63.9233 438.21 63.9819C438.367 64.0405 438.557 64.0698 438.782 64.0698C439.075 64.0698 439.409 63.9819 439.785 63.8062C440.166 63.6255 440.566 63.3423 440.986 62.9565V61.6528ZM447.153 55.6982H444.978V54.6509H448.442V63.938H450.632V65H444.736V63.938H447.153V55.6982ZM458.037 61.6089H453.657V60.4077H458.037V61.6089ZM461.443 57.6465H462.607L462.644 59.0015C463.079 58.479 463.506 58.1006 463.926 57.8662C464.351 57.6318 464.778 57.5146 465.208 57.5146C465.969 57.5146 466.545 57.7612 466.936 58.2544C467.332 58.7476 467.515 59.48 467.485 60.4517H466.196C466.211 59.8071 466.116 59.3408 465.911 59.0527C465.71 58.7598 465.415 58.6133 465.024 58.6133C464.854 58.6133 464.68 58.645 464.504 58.7085C464.333 58.7671 464.155 58.8647 463.97 59.0015C463.789 59.1333 463.596 59.3042 463.391 59.5142C463.186 59.7241 462.966 59.978 462.732 60.2759V65H461.443V57.6465ZM471.895 55.6982H469.719V54.6509H473.184V63.938H475.374V65H469.478V63.938H471.895V55.6982ZM478.296 66.5015C478.545 66.5112 478.787 66.4893 479.021 66.4355C479.255 66.3818 479.46 66.3013 479.636 66.1938C479.817 66.0913 479.961 65.9619 480.068 65.8057C480.176 65.6494 480.229 65.4712 480.229 65.271C480.229 65.0659 480.193 64.8999 480.12 64.7729C480.051 64.646 479.973 64.5288 479.885 64.4214C479.797 64.314 479.717 64.1992 479.644 64.0771C479.575 63.9551 479.541 63.7915 479.541 63.5864C479.541 63.4839 479.561 63.3765 479.6 63.2642C479.639 63.1519 479.697 63.0493 479.775 62.9565C479.858 62.8638 479.961 62.7881 480.083 62.7295C480.21 62.6709 480.359 62.6416 480.53 62.6416C480.701 62.6416 480.864 62.6782 481.021 62.7515C481.182 62.8198 481.321 62.9272 481.438 63.0737C481.56 63.2202 481.655 63.4033 481.724 63.623C481.797 63.8428 481.833 64.1016 481.833 64.3994C481.833 64.8047 481.758 65.1929 481.606 65.564C481.46 65.9399 481.238 66.272 480.94 66.5601C480.647 66.8481 480.278 67.0776 479.834 67.2485C479.395 67.4194 478.882 67.5049 478.296 67.5049V66.5015ZM480.588 57.5146C480.74 57.5146 480.884 57.5464 481.021 57.6099C481.157 57.6685 481.277 57.749 481.379 57.8516C481.482 57.9541 481.562 58.0737 481.621 58.2104C481.685 58.3472 481.716 58.4912 481.716 58.6426C481.716 58.7988 481.685 58.9453 481.621 59.082C481.562 59.2139 481.482 59.3311 481.379 59.4336C481.277 59.5361 481.157 59.6167 481.021 59.6753C480.884 59.7339 480.74 59.7632 480.588 59.7632C480.432 59.7632 480.286 59.7339 480.149 59.6753C480.017 59.6167 479.9 59.5361 479.797 59.4336C479.695 59.3311 479.614 59.2139 479.556 59.082C479.497 58.9453 479.468 58.7988 479.468 58.6426C479.468 58.4912 479.497 58.3472 479.556 58.2104C479.614 58.0737 479.695 57.9541 479.797 57.8516C479.9 57.749 480.017 57.6685 480.149 57.6099C480.286 57.5464 480.432 57.5146 480.588 57.5146Z" fill="#444444"/>
<rect x="9" y="92" width="213" height="128" rx="5" fill="#F7F7F7" stroke="#AAAAAA" stroke-width="2" stroke-dasharray="6 4"/>
<g opacity="0.8">
<path d="M18 104C18 102.343 19.3431 101 21 101H73C74.6569 101 76 102.343 76 104V148C76 149.657 74.6569 151 73 151H21C19.3431 151 18 149.657 18 148V104Z" fill="#1E73FF"/>
<path d="M49.5693 129.687H44.6123L43.5752 132.667H41.2637L46.0977 119.87H48.0928L52.9355 132.667H50.6152L49.5693 129.687ZM45.2363 127.894H48.9453L47.0908 122.585L45.2363 127.894Z" fill="white"/>
</g>
<g opacity="0.8">
<path d="M86 104C86 102.343 87.3431 101 89 101H141C142.657 101 144 102.343 144 104V148C144 149.657 142.657 151 141 151H89C87.3431 151 86 149.657 86 148V104Z" fill="#1E73FF"/>
<path d="M110.723 132.667V119.87H115.108C116.556 119.87 117.657 120.16 118.413 120.74C119.169 121.32 119.547 122.184 119.547 123.333C119.547 123.918 119.389 124.446 119.072 124.915C118.756 125.383 118.293 125.747 117.684 126.004C118.375 126.192 118.908 126.546 119.283 127.068C119.664 127.583 119.854 128.205 119.854 128.931C119.854 130.132 119.468 131.055 118.694 131.7C117.927 132.344 116.825 132.667 115.39 132.667H110.723ZM112.946 126.892V130.891H115.416C116.113 130.891 116.658 130.718 117.051 130.373C117.443 130.027 117.64 129.546 117.64 128.931C117.64 127.601 116.96 126.921 115.601 126.892H112.946ZM112.946 125.257H115.126C115.817 125.257 116.356 125.102 116.743 124.792C117.136 124.475 117.332 124.03 117.332 123.456C117.332 122.823 117.15 122.366 116.787 122.084C116.43 121.803 115.87 121.663 115.108 121.663H112.946V125.257Z" fill="white"/>
</g>
<g opacity="0.8">
<path d="M154 104C154 102.343 155.343 101 157 101H210C211.657 101 213 102.343 213 104V148C213 149.657 211.657 151 210 151H157C155.343 151 154 149.657 154 148V104Z" fill="#1E73FF"/>
<path d="M188.735 128.5C188.606 129.866 188.103 130.932 187.224 131.7C186.345 132.461 185.176 132.842 183.717 132.842C182.697 132.842 181.798 132.602 181.019 132.122C180.245 131.635 179.647 130.947 179.226 130.056C178.804 129.166 178.584 128.131 178.566 126.954V125.758C178.566 124.551 178.78 123.488 179.208 122.568C179.636 121.648 180.248 120.939 181.045 120.441C181.848 119.943 182.773 119.694 183.822 119.694C185.234 119.694 186.371 120.078 187.232 120.845C188.094 121.613 188.595 122.697 188.735 124.097H186.521C186.415 123.177 186.146 122.515 185.712 122.111C185.284 121.701 184.654 121.496 183.822 121.496C182.855 121.496 182.111 121.85 181.59 122.559C181.074 123.262 180.811 124.296 180.799 125.662V126.795C180.799 128.178 181.045 129.233 181.537 129.959C182.035 130.686 182.762 131.049 183.717 131.049C184.59 131.049 185.246 130.853 185.686 130.46C186.125 130.068 186.403 129.415 186.521 128.5H188.735Z" fill="white"/>
</g>
<g opacity="0.8">
<path d="M18 164C18 162.343 19.3431 161 21 161H73C74.6569 161 76 162.343 76 164V208C76 209.657 74.6569 211 73 211H21C19.3431 211 18 209.657 18 208V164Z" fill="#1E73FF"/>
<path d="M42.5205 192.667V179.87H46.2998C47.4307 179.87 48.4326 180.122 49.3057 180.625C50.1846 181.129 50.8643 181.844 51.3447 182.77C51.8252 183.696 52.0654 184.756 52.0654 185.952V186.593C52.0654 187.806 51.8223 188.873 51.3359 189.792C50.8555 190.712 50.167 191.421 49.2705 191.919C48.3799 192.417 47.3574 192.667 46.2031 192.667H42.5205ZM44.7441 181.663V190.891H46.1943C47.3604 190.891 48.2539 190.528 48.875 189.801C49.502 189.069 49.8213 188.02 49.833 186.655V185.943C49.833 184.554 49.5312 183.494 48.9277 182.761C48.3242 182.029 47.4482 181.663 46.2998 181.663H44.7441Z" fill="white"/>
</g>
<g opacity="0.8">
<path d="M86 164C86 162.343 87.3431 161 89 161H141C142.657 161 144 162.343 144 164V208C144 209.657 142.657 211 141 211H89C87.3431 211 86 209.657 86 208V164Z" fill="#1E73FF"/>
<path d="M119.291 186.954H114.035V190.891H120.179V192.667H111.812V179.87H120.117V181.663H114.035V185.196H119.291V186.954Z" fill="white"/>
</g>
</svg>
