<svg width="380" height="154" viewBox="0 0 380 154" fill="none" xmlns="http://www.w3.org/2000/svg">
<rect x="1" y="1" width="378" height="152" rx="9" fill="#7187FB" stroke="#001EBB" stroke-width="2"/>
<path d="M2 77H378" stroke="white" stroke-width="2" stroke-dasharray="4 2"/>
<g filter="url(#filter0_d)">
<rect x="20" y="17.4736" width="74" height="51.5263" rx="6" fill="#FFF000"/>
<rect x="21" y="18.4736" width="72" height="49.5263" rx="5" stroke="#001EBB" stroke-width="2"/>
</g>
<path d="M40.8281 43.3008C41.2578 43.3008 41.5605 43.2715 41.7363 43.2129C41.9316 43.1348 42.1367 43.0957 42.3516 43.0957C42.5664 43.0957 42.7617 43.1836 42.9375 43.3594C43.1133 43.5156 43.2012 43.7598 43.2012 44.0918C43.2012 44.4043 43.0449 44.6289 42.7324 44.7656C42.0488 45.0781 41.4629 45.2344 40.9746 45.2344C40.4863 45.2344 40.0371 45.2051 39.627 45.1465C39.2363 45.1074 38.8555 44.9805 38.4844 44.7656C37.6055 44.2578 37.166 43.3594 37.166 42.0703V34.6289H35.4668C35.1738 34.6289 35.0176 34.4727 34.998 34.1602C34.998 34.0234 35.0762 33.8965 35.2324 33.7793L38.4844 30.5859C38.6211 30.4492 38.7578 30.3809 38.8945 30.3809C39.0312 30.3613 39.1387 30.4004 39.2168 30.498C39.2949 30.5957 39.334 30.7129 39.334 30.8496V32.7539H42.0586C42.332 32.7539 42.5566 32.8418 42.7324 33.0176C42.9082 33.1934 42.9961 33.418 42.9961 33.6914C42.9961 33.9648 42.9082 34.1895 42.7324 34.3652C42.5566 34.541 42.332 34.6289 42.0586 34.6289H39.334V41.8945C39.334 42.5 39.5195 42.9102 39.8906 43.125C40.0859 43.2422 40.3984 43.3008 40.8281 43.3008ZM47.0391 39.668C47.1758 40.7422 47.5859 41.6016 48.2695 42.2461C48.9727 42.8711 49.9297 43.1836 51.1406 43.1836C52.3711 43.1836 53.416 42.9883 54.2754 42.5977C54.5488 42.4609 54.793 42.3926 55.0078 42.3926C55.2227 42.373 55.418 42.4512 55.5938 42.627C55.7891 42.8027 55.8867 42.998 55.8867 43.2129C55.8867 43.6426 55.7109 43.9453 55.3594 44.1211C55.0273 44.2969 54.7246 44.4531 54.4512 44.5898C54.1777 44.7266 53.8848 44.8438 53.5723 44.9414C52.8496 45.1367 52.0098 45.2344 51.0527 45.2344C49.0801 45.2344 47.5469 44.6875 46.4531 43.5938C45.3789 42.4805 44.8418 40.9082 44.8418 38.877C44.8418 37.1191 45.3008 35.6543 46.2188 34.4824C47.2539 33.1738 48.709 32.5195 50.584 32.5195C52.3809 32.5195 53.7969 33.125 54.832 34.3359C55.8086 35.4688 56.2969 36.8848 56.2969 38.584C56.2969 38.877 56.1895 39.1309 55.9746 39.3457C55.7793 39.5605 55.5254 39.668 55.2129 39.668H47.0391ZM50.584 34.3652C49.1582 34.3652 48.123 35 47.4785 36.2695C47.2441 36.7188 47.0977 37.2559 47.0391 37.8809H54.1289C54.0703 36.748 53.6504 35.8496 52.8691 35.1855C52.2441 34.6387 51.4824 34.3652 50.584 34.3652ZM68.8652 43.3008C69.041 43.4961 69.1191 43.7305 69.0996 44.0039C69.0996 44.2773 69.002 44.5312 68.8066 44.7656C68.6309 45 68.3574 45.1172 67.9863 45.1172C67.6348 45.1172 67.3613 44.9805 67.166 44.707L63.7383 40.6055L60.5449 44.6484C60.3105 44.9609 60.0176 45.1172 59.666 45.1172C59.3145 45.1172 59.041 45.0195 58.8457 44.8242C58.6504 44.6289 58.5527 44.3848 58.5527 44.0918C58.5527 43.7988 58.6309 43.5449 58.7871 43.3301L62.5371 38.9648L58.7871 34.3945C58.6113 34.1797 58.5234 33.9355 58.5234 33.6621C58.543 33.3691 58.6504 33.125 58.8457 32.9297C59.0605 32.7344 59.334 32.6367 59.666 32.6367C60.0176 32.6367 60.291 32.7734 60.4863 33.0469L63.8555 37.207L67.1953 33.0469C67.3906 32.7734 67.6543 32.6367 67.9863 32.6367C68.3379 32.6367 68.6113 32.7344 68.8066 32.9297C69.0215 33.125 69.1289 33.3594 69.1289 33.6328C69.1289 33.9062 69.0508 34.1406 68.8945 34.3359L65.1152 38.8184L68.8652 43.3008ZM76.6875 43.3008C77.1172 43.3008 77.4199 43.2715 77.5957 43.2129C77.791 43.1348 77.9961 43.0957 78.2109 43.0957C78.4258 43.0957 78.6211 43.1836 78.7969 43.3594C78.9727 43.5156 79.0605 43.7598 79.0605 44.0918C79.0605 44.4043 78.9043 44.6289 78.5918 44.7656C77.9082 45.0781 77.3223 45.2344 76.834 45.2344C76.3457 45.2344 75.8965 45.2051 75.4863 45.1465C75.0957 45.1074 74.7148 44.9805 74.3438 44.7656C73.4648 44.2578 73.0254 43.3594 73.0254 42.0703V34.6289H71.3262C71.0332 34.6289 70.877 34.4727 70.8574 34.1602C70.8574 34.0234 70.9355 33.8965 71.0918 33.7793L74.3438 30.5859C74.4805 30.4492 74.6172 30.3809 74.7539 30.3809C74.8906 30.3613 74.998 30.4004 75.0762 30.498C75.1543 30.5957 75.1934 30.7129 75.1934 30.8496V32.7539H77.918C78.1914 32.7539 78.416 32.8418 78.5918 33.0176C78.7676 33.1934 78.8555 33.418 78.8555 33.6914C78.8555 33.9648 78.7676 34.1895 78.5918 34.3652C78.416 34.541 78.1914 34.6289 77.918 34.6289H75.1934V41.8945C75.1934 42.5 75.3789 42.9102 75.75 43.125C75.9453 43.2422 76.2578 43.3008 76.6875 43.3008Z" fill="black"/>
<g filter="url(#filter1_d)">
<rect x="20" y="87.4736" width="74" height="51.5263" rx="6" fill="#FFF000"/>
<rect x="21" y="88.4736" width="72" height="49.5263" rx="5" stroke="#001EBB" stroke-width="2"/>
</g>
<path d="M45.3169 116.78C44.7569 117.18 44.3169 117.36 43.7969 117.36C42.9769 117.36 42.4969 116.86 42.4969 115.68V108.64H45.5169V107.72H42.5169L42.6369 104.7H41.5369L41.0569 107.66L39.0169 107.9V108.64H40.9769V114.02C40.9769 114.8 40.9569 115.26 40.9569 115.76C40.9569 117.46 41.7969 118.28 43.3169 118.28C44.3369 118.28 45.1569 117.92 45.7169 117.28L45.3169 116.78ZM48.5272 111.98C48.7672 109.44 50.2272 108.24 51.6872 108.24C53.2272 108.24 54.2872 109.5 54.2872 110.9C54.2872 111.54 54.0872 111.98 53.2072 111.98H48.5272ZM55.6472 112.76C55.7472 112.46 55.7872 112.04 55.7872 111.52C55.7872 109.02 54.1072 107.44 51.7872 107.44C49.1472 107.44 46.8872 109.58 46.8872 112.92C46.8872 116.34 48.9072 118.28 51.7072 118.28C53.5672 118.28 54.9472 117.36 55.7672 115.92L55.3472 115.6C54.5672 116.54 53.6272 117.16 52.2072 117.16C50.0872 117.16 48.5272 115.7 48.5072 112.74L55.6472 112.76ZM66.3638 117.12L63.1638 112.62L66.3838 108.62L67.6838 108.42V107.72H63.6838V108.42L65.2238 108.66L62.7038 111.96L60.3838 108.64L61.8438 108.42V107.72H57.2038V108.42L58.6838 108.62L61.7238 113.02L58.4638 117.12L57.0438 117.36V118H61.2638V117.36L59.5638 117.1L62.1638 113.64L64.5838 117.12L62.9038 117.36L62.9238 118H67.9038V117.36L66.3638 117.12ZM74.6528 116.78C74.0928 117.18 73.6528 117.36 73.1328 117.36C72.3128 117.36 71.8328 116.86 71.8328 115.68V108.64H74.8528V107.72H71.8528L71.9728 104.7H70.8728L70.3928 107.66L68.3528 107.9V108.64H70.3128V114.02C70.3128 114.8 70.2928 115.26 70.2928 115.76C70.2928 117.46 71.1328 118.28 72.6528 118.28C73.6728 118.28 74.4928 117.92 75.0528 117.28L74.6528 116.78Z" fill="black"/>
<g filter="url(#filter2_d)">
<rect x="108" y="24" width="75" height="37.5" rx="6" fill="#FFF000"/>
<rect x="109" y="25" width="73" height="35.5" rx="5" stroke="#001EBB" stroke-width="2"/>
</g>
<path d="M133.305 37.9042V37.5842H134.777V35.3922H136.377V37.5842H138.057V37.9042H136.377V42.8482C136.377 44.1709 136.665 44.8322 137.241 44.8322C137.465 44.8322 137.673 44.7629 137.865 44.6242C138.057 44.4749 138.206 44.3309 138.313 44.1922C138.419 44.0429 138.494 43.9682 138.537 43.9682C138.579 43.9682 138.601 43.9949 138.601 44.0482C138.601 44.0909 138.585 44.1442 138.553 44.2082C138.233 44.8375 137.646 45.1522 136.793 45.1522C136.11 45.1522 135.603 44.8909 135.273 44.3682C134.942 43.8455 134.777 43.1469 134.777 42.2722V37.9042H133.305ZM141.658 44.4322C141.808 44.5389 141.994 44.6295 142.218 44.7042C142.453 44.7789 142.736 44.8162 143.066 44.8162C143.397 44.8162 143.749 44.7415 144.122 44.5922C144.496 44.4322 144.757 44.1975 144.906 43.8882H145.37C144.954 44.7309 144.08 45.1522 142.746 45.1522C141.722 45.1522 140.853 44.7895 140.138 44.0642C139.434 43.3282 139.082 42.4109 139.082 41.3122C139.082 40.2029 139.456 39.2802 140.202 38.5442C140.949 37.7975 141.76 37.4242 142.634 37.4242C143.52 37.4242 144.213 37.6695 144.714 38.1602C145.226 38.6402 145.482 39.2109 145.482 39.8722C145.482 40.5335 145.21 41.1202 144.666 41.6322C144.122 42.1442 143.408 42.4002 142.522 42.4002C141.637 42.4002 141.018 42.0215 140.666 41.2642C140.677 41.3389 140.688 41.4989 140.698 41.7442C140.72 41.9895 140.736 42.1815 140.746 42.3202C140.757 42.4589 140.784 42.6509 140.826 42.8962C140.88 43.1415 140.933 43.3389 140.986 43.4882C141.05 43.6375 141.141 43.8082 141.258 44.0002C141.376 44.1815 141.509 44.3255 141.658 44.4322ZM144.106 39.7922C144.106 38.4162 143.584 37.7282 142.538 37.7282C142.026 37.7282 141.605 37.9789 141.274 38.4802C140.954 38.9709 140.773 39.5682 140.73 40.2722C140.858 39.9735 141.05 39.7335 141.306 39.5522C141.573 39.3709 141.845 39.2802 142.122 39.2802C142.41 39.2802 142.554 39.3335 142.554 39.4402C142.554 39.5362 142.49 39.5842 142.362 39.5842C141.872 39.6162 141.509 39.7389 141.274 39.9522C141.05 40.1655 140.938 40.4535 140.938 40.8162C140.938 41.1789 141.066 41.4882 141.322 41.7442C141.589 41.9895 141.898 42.1122 142.25 42.1122C142.826 42.1122 143.28 41.8829 143.61 41.4242C143.941 40.9549 144.106 40.4109 144.106 39.7922ZM154.058 43.0882C154.154 43.0882 154.202 43.1522 154.202 43.2802C154.191 43.7495 153.999 44.1655 153.626 44.5282C153.263 44.8909 152.874 45.0722 152.458 45.0722C152.052 45.0722 151.684 44.9602 151.354 44.7362C151.023 44.5122 150.756 44.2029 150.554 43.8082L149.562 41.8722C148.783 42.3842 148.18 42.8855 147.754 43.3762C147.327 43.8669 147.103 44.4055 147.082 44.9922H146.762C146.762 44.2882 146.975 43.6962 147.402 43.2162C147.828 42.7362 148.5 42.1922 149.418 41.5842L148.506 39.7762C147.951 38.6882 147.492 38.1442 147.13 38.1442C146.735 38.1442 146.452 38.4802 146.282 39.1522C146.228 39.3869 146.191 39.5095 146.17 39.5202C146.074 39.5202 146.026 39.4615 146.026 39.3442C146.026 39.2162 146.074 39.0242 146.17 38.7682C146.276 38.5122 146.479 38.2455 146.778 37.9682C147.076 37.6802 147.418 37.5362 147.802 37.5362C148.186 37.5362 148.554 37.6749 148.906 37.9522C149.268 38.2189 149.567 38.5922 149.802 39.0722L150.698 40.8482C151.476 40.3469 152.063 39.8402 152.458 39.3282C152.863 38.8055 153.082 38.2242 153.114 37.5842H153.434C153.434 38.3309 153.236 38.9602 152.842 39.4722C152.447 39.9735 151.786 40.5282 150.858 41.1362L152.25 43.8882C152.452 44.2722 152.735 44.4642 153.098 44.4642C153.332 44.4642 153.519 44.3575 153.658 44.1442C153.807 43.9202 153.908 43.6909 153.962 43.4562L154.058 43.0882ZM154.336 37.9042V37.5842H155.808V35.3922H157.408V37.5842H159.088V37.9042H157.408V42.8482C157.408 44.1709 157.696 44.8322 158.272 44.8322C158.496 44.8322 158.704 44.7629 158.896 44.6242C159.088 44.4749 159.237 44.3309 159.344 44.1922C159.451 44.0429 159.525 43.9682 159.568 43.9682C159.611 43.9682 159.632 43.9949 159.632 44.0482C159.632 44.0909 159.616 44.1442 159.584 44.2082C159.264 44.8375 158.677 45.1522 157.824 45.1522C157.141 45.1522 156.635 44.8909 156.304 44.3682C155.973 43.8455 155.808 43.1469 155.808 42.2722V37.9042H154.336Z" fill="black"/>
<g filter="url(#filter3_d)">
<rect x="108" y="99" width="75" height="37.5" rx="6" fill="#FFF000"/>
<rect x="109" y="100" width="73" height="35.5" rx="5" stroke="#001EBB" stroke-width="2"/>
</g>
<path d="M131.838 110.617V118H131.111V110.617H127.449V109.949H135.5V110.617H131.838ZM144.951 117.578C144.623 117.68 144.318 117.768 144.037 117.842C143.756 117.912 143.479 117.969 143.205 118.012C142.932 118.059 142.652 118.092 142.367 118.111C142.086 118.135 141.775 118.146 141.436 118.146C140.646 118.146 139.934 118.051 139.297 117.859C138.66 117.668 138.117 117.395 137.668 117.039C137.223 116.68 136.879 116.246 136.637 115.738C136.395 115.23 136.273 114.66 136.273 114.027C136.273 113.414 136.389 112.852 136.619 112.34C136.854 111.828 137.18 111.389 137.598 111.021C138.016 110.654 138.516 110.369 139.098 110.166C139.68 109.963 140.322 109.861 141.025 109.861C141.756 109.861 142.406 109.959 142.977 110.154C143.547 110.35 144.027 110.629 144.418 110.992C144.809 111.355 145.105 111.797 145.309 112.316C145.512 112.832 145.613 113.414 145.613 114.062V114.244H137.029C137.072 114.744 137.197 115.195 137.404 115.598C137.611 116 137.904 116.342 138.283 116.623C138.666 116.904 139.135 117.121 139.689 117.273C140.248 117.422 140.898 117.496 141.641 117.496C141.957 117.496 142.277 117.475 142.602 117.432C142.926 117.389 143.236 117.332 143.533 117.262C143.83 117.188 144.102 117.105 144.348 117.016C144.594 116.922 144.795 116.826 144.951 116.729V117.578ZM144.893 113.605C144.865 113.195 144.773 112.805 144.617 112.434C144.461 112.059 144.227 111.729 143.914 111.443C143.605 111.158 143.211 110.932 142.73 110.764C142.254 110.596 141.682 110.512 141.014 110.512C140.385 110.512 139.834 110.596 139.361 110.764C138.889 110.932 138.488 111.158 138.16 111.443C137.832 111.725 137.574 112.053 137.387 112.428C137.199 112.799 137.08 113.191 137.029 113.605H144.893ZM151.338 114.361L147.869 118H146.943L150.881 113.869L147.137 109.949H148.062L151.338 113.395L154.625 109.949H155.551L151.807 113.869L155.738 118H154.818L151.338 114.361ZM160.889 110.617V118H160.162V110.617H156.5V109.949H164.551V110.617H160.889Z" fill="black"/>
<g filter="url(#filter4_d)">
<rect x="197" y="16" width="75" height="36.5" rx="6" fill="#FFF000"/>
<rect x="198" y="17" width="73" height="34.5" rx="5" stroke="#001EBB" stroke-width="2"/>
</g>
<path d="M225.04 45.608C224.464 45.608 223.996 45.428 223.636 45.068C223.288 44.708 223.114 44.168 223.114 43.448C223.114 43.148 223.162 42.758 223.258 42.278L224.338 37.22H223.744L223.888 36.5H224.482L225.022 34.016L227.686 33.656L227.074 36.5H228.154L228.01 37.22H226.93L225.778 42.62C225.73 42.8 225.706 42.992 225.706 43.196C225.706 43.436 225.76 43.61 225.868 43.718C225.988 43.814 226.18 43.862 226.444 43.862C226.792 43.862 227.116 43.718 227.416 43.43C227.716 43.13 227.932 42.746 228.064 42.278H228.82C228.376 43.574 227.806 44.456 227.11 44.924C226.414 45.38 225.724 45.608 225.04 45.608ZM231.027 45.608C230.067 45.608 229.293 45.374 228.705 44.906C228.117 44.438 227.823 43.694 227.823 42.674C227.823 41.882 227.985 40.994 228.309 40.01C228.633 39.026 229.161 38.168 229.893 37.436C230.625 36.704 231.555 36.338 232.683 36.338C234.003 36.338 234.663 36.914 234.663 38.066C234.663 38.738 234.471 39.356 234.087 39.92C233.703 40.484 233.193 40.94 232.557 41.288C231.921 41.624 231.237 41.816 230.505 41.864C230.493 41.972 230.487 42.134 230.487 42.35C230.487 43.538 231.087 44.132 232.287 44.132C232.971 44.132 233.703 43.952 234.483 43.592C235.263 43.232 235.941 42.728 236.517 42.08L235.491 36.5H238.029L238.731 40.388C239.271 39.812 239.691 39.272 239.991 38.768C240.291 38.264 240.441 37.85 240.441 37.526C240.441 37.418 240.435 37.346 240.423 37.31C240.255 37.334 240.147 37.346 240.099 37.346C239.811 37.346 239.601 37.256 239.469 37.076C239.337 36.896 239.271 36.674 239.271 36.41C239.271 36.11 239.361 35.882 239.541 35.726C239.721 35.57 239.955 35.492 240.243 35.492C240.651 35.492 240.963 35.642 241.179 35.942C241.395 36.23 241.503 36.602 241.503 37.058C241.503 37.634 241.305 38.252 240.909 38.912C240.513 39.572 239.853 40.4 238.929 41.396L239.091 42.278C239.103 42.338 239.139 42.53 239.199 42.854C239.271 43.166 239.385 43.412 239.541 43.592C239.697 43.772 239.901 43.862 240.153 43.862C240.501 43.862 240.825 43.718 241.125 43.43C241.425 43.13 241.641 42.746 241.773 42.278H242.529C242.085 43.574 241.527 44.456 240.855 44.924C240.183 45.38 239.523 45.608 238.875 45.608C238.275 45.608 237.819 45.422 237.507 45.05C237.195 44.678 236.931 44.03 236.715 43.106C235.995 43.862 235.113 44.468 234.069 44.924C233.037 45.38 232.023 45.608 231.027 45.608ZM230.649 41C231.105 40.988 231.531 40.838 231.927 40.55C232.335 40.262 232.659 39.896 232.899 39.452C233.151 38.996 233.277 38.522 233.277 38.03C233.277 37.538 233.127 37.292 232.827 37.292C232.407 37.292 231.987 37.682 231.567 38.462C231.147 39.23 230.841 40.076 230.649 41ZM243.46 45.608C242.848 45.608 242.392 45.422 242.092 45.05C241.804 44.678 241.66 44.186 241.66 43.574C241.66 43.262 241.696 42.944 241.768 42.62L242.92 37.22H242.326L242.47 36.5H243.064L243.604 34.016L246.268 33.656C246.16 34.112 246.1 34.382 246.088 34.466C246.004 34.802 245.86 35.48 245.656 36.5H246.736L246.592 37.22H245.512L244.36 42.62C244.3 42.884 244.27 43.094 244.27 43.25C244.27 43.682 244.48 43.898 244.9 43.898C245.116 43.898 245.272 43.88 245.368 43.844C245.128 44.54 244.846 45.008 244.522 45.248C244.198 45.488 243.844 45.608 243.46 45.608Z" fill="black"/>
<g filter="url(#filter5_d)">
<rect x="286" y="27" width="74" height="32" rx="6" fill="#FFF000"/>
<rect x="287" y="28" width="72" height="30" rx="5" stroke="#001EBB" stroke-width="2"/>
</g>
<path d="M308.028 45.2002H305.436C305.234 45.2002 305.084 45.1575 304.988 45.0722C304.903 44.9762 304.86 44.8269 304.86 44.6242V36.7682H302.508C302.306 36.7682 302.156 36.7255 302.06 36.6402C301.975 36.5442 301.932 36.3949 301.932 36.1922V34.2562C301.932 34.0535 301.975 33.9095 302.06 33.8242C302.156 33.7282 302.306 33.6802 302.508 33.6802H310.956C311.159 33.6802 311.303 33.7282 311.388 33.8242C311.484 33.9095 311.532 34.0535 311.532 34.2562V36.1922C311.532 36.3949 311.484 36.5442 311.388 36.6402C311.303 36.7255 311.159 36.7682 310.956 36.7682H308.604V44.6242C308.604 44.8269 308.556 44.9762 308.46 45.0722C308.375 45.1575 308.231 45.2002 308.028 45.2002ZM321.088 45.2002H313.664C313.462 45.2002 313.312 45.1575 313.216 45.0722C313.131 44.9762 313.088 44.8269 313.088 44.6242V34.2562C313.088 34.0535 313.131 33.9095 313.216 33.8242C313.312 33.7282 313.462 33.6802 313.664 33.6802H321.088C321.291 33.6802 321.435 33.7282 321.52 33.8242C321.616 33.9095 321.664 34.0535 321.664 34.2562V36.1282C321.664 36.3309 321.616 36.4802 321.52 36.5762C321.435 36.6615 321.291 36.7042 321.088 36.7042H316.672V37.9362H319.792C319.995 37.9362 320.139 37.9842 320.224 38.0802C320.32 38.1655 320.368 38.3095 320.368 38.5122V40.2242C320.368 40.4269 320.32 40.5762 320.224 40.6722C320.139 40.7575 319.995 40.8002 319.792 40.8002H316.672V42.1762H321.088C321.291 42.1762 321.435 42.2242 321.52 42.3202C321.616 42.4055 321.664 42.5495 321.664 42.7522V44.6242C321.664 44.8269 321.616 44.9762 321.52 45.0722C321.435 45.1575 321.291 45.2002 321.088 45.2002ZM326.997 44.6242C326.997 44.8269 326.949 44.9762 326.853 45.0722C326.768 45.1575 326.624 45.2002 326.421 45.2002H323.989C323.786 45.2002 323.637 45.1575 323.541 45.0722C323.456 44.9762 323.413 44.8269 323.413 44.6242V42.9122C323.413 42.4215 323.456 42.0535 323.541 41.8082C323.626 41.5629 323.786 41.2749 324.021 40.9442L325.317 39.2002L324.021 37.4562C323.776 37.1255 323.61 36.8375 323.525 36.5922C323.45 36.3469 323.413 35.9789 323.413 35.4882V34.2562C323.413 34.0535 323.456 33.9095 323.541 33.8242C323.637 33.7282 323.786 33.6802 323.989 33.6802H326.453C326.656 33.6802 326.8 33.7282 326.885 33.8242C326.981 33.9095 327.029 34.0535 327.029 34.2562V35.3602C327.029 35.4669 327.034 35.5789 327.045 35.6962C327.056 35.8135 327.098 35.9255 327.173 36.0322L327.877 37.0402C327.93 37.1255 327.984 37.1949 328.037 37.2482C328.101 37.2909 328.176 37.3122 328.261 37.3122H328.453C328.538 37.3122 328.608 37.2909 328.661 37.2482C328.714 37.1949 328.773 37.1255 328.837 37.0402L329.557 36.0322C329.632 35.9255 329.674 35.8135 329.685 35.6962C329.696 35.5789 329.701 35.4669 329.701 35.3602V34.2562C329.701 34.0535 329.744 33.9095 329.829 33.8242C329.925 33.7282 330.074 33.6802 330.277 33.6802H332.709C332.912 33.6802 333.056 33.7282 333.141 33.8242C333.237 33.9095 333.285 34.0535 333.285 34.2562V35.4882C333.285 35.9789 333.242 36.3469 333.157 36.5922C333.072 36.8375 332.912 37.1255 332.677 37.4562L331.381 39.2162L332.677 40.9442C332.922 41.2749 333.082 41.5629 333.157 41.8082C333.242 42.0535 333.285 42.4215 333.285 42.9122V44.6242C333.285 44.8269 333.237 44.9762 333.141 45.0722C333.056 45.1575 332.912 45.2002 332.709 45.2002H330.277C330.074 45.2002 329.925 45.1575 329.829 45.0722C329.744 44.9762 329.701 44.8269 329.701 44.6242V43.0402C329.701 42.9335 329.696 42.8215 329.685 42.7042C329.674 42.5869 329.632 42.4749 329.557 42.3682L328.853 41.3602C328.789 41.2642 328.73 41.1949 328.677 41.1522C328.624 41.1095 328.554 41.0882 328.469 41.0882H328.245C328.16 41.0882 328.09 41.1095 328.037 41.1522C327.984 41.1949 327.925 41.2642 327.861 41.3602L327.141 42.3682C327.066 42.4749 327.024 42.5869 327.013 42.7042C327.002 42.8215 326.997 42.9335 326.997 43.0402V44.6242ZM340.56 45.2002H337.968C337.765 45.2002 337.616 45.1575 337.52 45.0722C337.434 44.9762 337.392 44.8269 337.392 44.6242V36.7682H335.04C334.837 36.7682 334.688 36.7255 334.592 36.6402C334.506 36.5442 334.464 36.3949 334.464 36.1922V34.2562C334.464 34.0535 334.506 33.9095 334.592 33.8242C334.688 33.7282 334.837 33.6802 335.04 33.6802H343.488C343.69 33.6802 343.834 33.7282 343.92 33.8242C344.016 33.9095 344.064 34.0535 344.064 34.2562V36.1922C344.064 36.3949 344.016 36.5442 343.92 36.6402C343.834 36.7255 343.69 36.7682 343.488 36.7682H341.136V44.6242C341.136 44.8269 341.088 44.9762 340.992 45.0722C340.906 45.1575 340.762 45.2002 340.56 45.2002Z" fill="black"/>
<path d="M10 46H370" stroke="#E44D26" stroke-width="2" stroke-linecap="round"/>
<path d="M10 119H370" stroke="#E44D26" stroke-width="2" stroke-linecap="round"/>
<defs>
<filter id="filter0_d" x="20" y="17.4736" width="80" height="57.5263" filterUnits="userSpaceOnUse" color-interpolation-filters="sRGB">
<feFlood flood-opacity="0" result="BackgroundImageFix"/>
<feColorMatrix in="SourceAlpha" type="matrix" values="0 0 0 0 0 0 0 0 0 0 0 0 0 0 0 0 0 0 127 0"/>
<feOffset dx="6" dy="6"/>
<feColorMatrix type="matrix" values="0 0 0 0 0 0 0 0 0 0 0 0 0 0 0 0 0 0 0.15 0"/>
<feBlend mode="normal" in2="BackgroundImageFix" result="effect1_dropShadow"/>
<feBlend mode="normal" in="SourceGraphic" in2="effect1_dropShadow" result="shape"/>
</filter>
<filter id="filter1_d" x="20" y="87.4736" width="80" height="57.5263" filterUnits="userSpaceOnUse" color-interpolation-filters="sRGB">
<feFlood flood-opacity="0" result="BackgroundImageFix"/>
<feColorMatrix in="SourceAlpha" type="matrix" values="0 0 0 0 0 0 0 0 0 0 0 0 0 0 0 0 0 0 127 0"/>
<feOffset dx="6" dy="6"/>
<feColorMatrix type="matrix" values="0 0 0 0 0 0 0 0 0 0 0 0 0 0 0 0 0 0 0.15 0"/>
<feBlend mode="normal" in2="BackgroundImageFix" result="effect1_dropShadow"/>
<feBlend mode="normal" in="SourceGraphic" in2="effect1_dropShadow" result="shape"/>
</filter>
<filter id="filter2_d" x="108" y="24" width="81" height="43.5" filterUnits="userSpaceOnUse" color-interpolation-filters="sRGB">
<feFlood flood-opacity="0" result="BackgroundImageFix"/>
<feColorMatrix in="SourceAlpha" type="matrix" values="0 0 0 0 0 0 0 0 0 0 0 0 0 0 0 0 0 0 127 0"/>
<feOffset dx="6" dy="6"/>
<feColorMatrix type="matrix" values="0 0 0 0 0 0 0 0 0 0 0 0 0 0 0 0 0 0 0.15 0"/>
<feBlend mode="normal" in2="BackgroundImageFix" result="effect1_dropShadow"/>
<feBlend mode="normal" in="SourceGraphic" in2="effect1_dropShadow" result="shape"/>
</filter>
<filter id="filter3_d" x="108" y="99" width="81" height="43.5" filterUnits="userSpaceOnUse" color-interpolation-filters="sRGB">
<feFlood flood-opacity="0" result="BackgroundImageFix"/>
<feColorMatrix in="SourceAlpha" type="matrix" values="0 0 0 0 0 0 0 0 0 0 0 0 0 0 0 0 0 0 127 0"/>
<feOffset dx="6" dy="6"/>
<feColorMatrix type="matrix" values="0 0 0 0 0 0 0 0 0 0 0 0 0 0 0 0 0 0 0.15 0"/>
<feBlend mode="normal" in2="BackgroundImageFix" result="effect1_dropShadow"/>
<feBlend mode="normal" in="SourceGraphic" in2="effect1_dropShadow" result="shape"/>
</filter>
<filter id="filter4_d" x="197" y="16" width="81" height="42.5" filterUnits="userSpaceOnUse" color-interpolation-filters="sRGB">
<feFlood flood-opacity="0" result="BackgroundImageFix"/>
<feColorMatrix in="SourceAlpha" type="matrix" values="0 0 0 0 0 0 0 0 0 0 0 0 0 0 0 0 0 0 127 0"/>
<feOffset dx="6" dy="6"/>
<feColorMatrix type="matrix" values="0 0 0 0 0 0 0 0 0 0 0 0 0 0 0 0 0 0 0.15 0"/>
<feBlend mode="normal" in2="BackgroundImageFix" result="effect1_dropShadow"/>
<feBlend mode="normal" in="SourceGraphic" in2="effect1_dropShadow" result="shape"/>
</filter>
<filter id="filter5_d" x="286" y="27" width="80" height="38" filterUnits="userSpaceOnUse" color-interpolation-filters="sRGB">
<feFlood flood-opacity="0" result="BackgroundImageFix"/>
<feColorMatrix in="SourceAlpha" type="matrix" values="0 0 0 0 0 0 0 0 0 0 0 0 0 0 0 0 0 0 127 0"/>
<feOffset dx="6" dy="6"/>
<feColorMatrix type="matrix" values="0 0 0 0 0 0 0 0 0 0 0 0 0 0 0 0 0 0 0.15 0"/>
<feBlend mode="normal" in2="BackgroundImageFix" result="effect1_dropShadow"/>
<feBlend mode="normal" in="SourceGraphic" in2="effect1_dropShadow" result="shape"/>
</filter>
</defs>
</svg>
