<svg width="504" height="166" viewBox="0 0 504 166" fill="none" xmlns="http://www.w3.org/2000/svg">
<rect x="1" y="27" width="502" height="138" rx="5" fill="#F7F7F7" stroke="#AAAAAA" stroke-width="2" stroke-dasharray="6 4"/>
<path d="M5.63965 3.81934C5.1748 3.75553 4.77376 3.72363 4.43652 3.72363C3.54329 3.72363 3.09668 4.1429 3.09668 4.98145V5.60352H4.60059V6.83398H3.09668V13H1.43555V6.83398H0.307617V5.60352H1.43555V4.94043C1.4401 4.10645 1.6862 3.46842 2.17383 3.02637C2.66602 2.57975 3.35872 2.35645 4.25195 2.35645C4.80794 2.35645 5.82422 2.46582 7.30078 2.68457V13H5.63965V3.81934ZM12.3936 13.1367C11.3408 13.1367 10.4863 12.8063 9.83008 12.1455C9.17839 11.4801 8.85254 10.596 8.85254 9.49316V9.28809C8.85254 8.5498 8.99382 7.89128 9.27637 7.3125C9.56348 6.72917 9.96452 6.27572 10.4795 5.95215C10.9945 5.62858 11.5687 5.4668 12.2021 5.4668C13.2093 5.4668 13.9863 5.78809 14.5332 6.43066C15.0846 7.07324 15.3604 7.98242 15.3604 9.1582V9.82812H10.5273C10.5775 10.4388 10.7803 10.9219 11.1357 11.2773C11.4958 11.6328 11.9469 11.8105 12.4893 11.8105C13.2503 11.8105 13.8701 11.5029 14.3486 10.8877L15.2441 11.7422C14.9479 12.1842 14.5514 12.5283 14.0547 12.7744C13.5625 13.016 13.0088 13.1367 12.3936 13.1367ZM12.1953 6.7998C11.7396 6.7998 11.3704 6.95931 11.0879 7.27832C10.8099 7.59733 10.6322 8.04167 10.5547 8.61133H13.7197V8.48828C13.6833 7.93229 13.5352 7.51302 13.2754 7.23047C13.0156 6.94336 12.6556 6.7998 12.1953 6.7998ZM19.3115 8.03711L20.7197 5.60352H22.5654L20.3027 9.24707L22.6406 13H20.8086L19.332 10.4707L17.8623 13H16.0166L18.3545 9.24707L16.0986 5.60352H17.9307L19.3115 8.03711ZM30.2217 11.8105C30.6364 11.8105 30.9805 11.6898 31.2539 11.4482C31.5273 11.2067 31.6732 10.9082 31.6914 10.5527H33.2568C33.2386 11.013 33.0951 11.4437 32.8262 11.8447C32.5573 12.2412 32.1927 12.5557 31.7324 12.7881C31.2721 13.0205 30.7754 13.1367 30.2422 13.1367C29.2077 13.1367 28.3874 12.8018 27.7812 12.1318C27.1751 11.4619 26.8721 10.5368 26.8721 9.35645V9.18555C26.8721 8.0599 27.1729 7.15983 27.7744 6.48535C28.376 5.80632 29.1963 5.4668 30.2354 5.4668C31.1149 5.4668 31.8304 5.72428 32.3818 6.23926C32.9378 6.74967 33.2295 7.42188 33.2568 8.25586H31.6914C31.6732 7.83203 31.5273 7.4834 31.2539 7.20996C30.985 6.93652 30.641 6.7998 30.2217 6.7998C29.6839 6.7998 29.2692 6.99577 28.9775 7.3877C28.6859 7.77507 28.5378 8.36523 28.5332 9.1582V9.4248C28.5332 10.2269 28.6768 10.8262 28.9639 11.2227C29.2555 11.6146 29.6748 11.8105 30.2217 11.8105ZM34.2002 9.2334C34.2002 8.50879 34.3438 7.8571 34.6309 7.27832C34.918 6.69499 35.3213 6.24837 35.8408 5.93848C36.3604 5.62402 36.9574 5.4668 37.6318 5.4668C38.6299 5.4668 39.4388 5.78809 40.0586 6.43066C40.6829 7.07324 41.0202 7.92546 41.0703 8.9873L41.0771 9.37695C41.0771 10.1061 40.9359 10.7578 40.6533 11.332C40.3753 11.9062 39.9743 12.3506 39.4502 12.665C38.9307 12.9795 38.3291 13.1367 37.6455 13.1367C36.6019 13.1367 35.7656 12.7904 35.1367 12.0977C34.5124 11.4004 34.2002 10.473 34.2002 9.31543V9.2334ZM35.8613 9.37695C35.8613 10.138 36.0186 10.735 36.333 11.168C36.6475 11.5964 37.085 11.8105 37.6455 11.8105C38.2061 11.8105 38.6413 11.5918 38.9512 11.1543C39.2656 10.7168 39.4229 10.0765 39.4229 9.2334C39.4229 8.486 39.2611 7.89355 38.9375 7.45605C38.6185 7.01855 38.1833 6.7998 37.6318 6.7998C37.0895 6.7998 36.6589 7.01628 36.3398 7.44922C36.0208 7.8776 35.8613 8.52018 35.8613 9.37695ZM44.0234 5.60352L44.0713 6.45801C44.6182 5.7972 45.3359 5.4668 46.2246 5.4668C47.765 5.4668 48.5488 6.34863 48.5762 8.1123V13H46.915V8.20801C46.915 7.73861 46.8125 7.39225 46.6074 7.16895C46.4069 6.94108 46.0765 6.82715 45.6162 6.82715C44.9463 6.82715 44.4473 7.13021 44.1191 7.73633V13H42.458V5.60352H44.0234ZM52.3564 3.80566V5.60352H53.6621V6.83398H52.3564V10.9629C52.3564 11.2454 52.4111 11.4505 52.5205 11.5781C52.6344 11.7012 52.835 11.7627 53.1221 11.7627C53.3135 11.7627 53.5072 11.7399 53.7031 11.6943V12.9795C53.3249 13.0843 52.9603 13.1367 52.6094 13.1367C51.3333 13.1367 50.6953 12.4326 50.6953 11.0244V6.83398H49.4785V5.60352H50.6953V3.80566H52.3564ZM59.3564 13C59.2835 12.8587 59.2197 12.6286 59.165 12.3096C58.6364 12.861 57.9893 13.1367 57.2236 13.1367C56.4808 13.1367 55.8747 12.9248 55.4053 12.501C54.9359 12.0771 54.7012 11.5531 54.7012 10.9287C54.7012 10.1403 54.9928 9.53646 55.5762 9.11719C56.1641 8.69336 57.0026 8.48145 58.0918 8.48145H59.1104V7.99609C59.1104 7.61328 59.0033 7.30794 58.7891 7.08008C58.5749 6.84766 58.249 6.73145 57.8115 6.73145C57.4333 6.73145 57.1234 6.82715 56.8818 7.01855C56.6403 7.2054 56.5195 7.44466 56.5195 7.73633H54.8584C54.8584 7.33073 54.9928 6.95247 55.2617 6.60156C55.5306 6.24609 55.8952 5.9681 56.3555 5.76758C56.8203 5.56706 57.3376 5.4668 57.9072 5.4668C58.7731 5.4668 59.4635 5.68555 59.9785 6.12305C60.4935 6.55599 60.7578 7.16667 60.7715 7.95508V11.291C60.7715 11.9564 60.8649 12.4873 61.0518 12.8838V13H59.3564ZM57.5312 11.8037C57.8594 11.8037 58.167 11.724 58.4541 11.5645C58.7458 11.4049 58.9645 11.1908 59.1104 10.9219V9.52734H58.2148C57.5996 9.52734 57.137 9.63444 56.8271 9.84863C56.5173 10.0628 56.3623 10.3659 56.3623 10.7578C56.3623 11.0768 56.4671 11.332 56.6768 11.5234C56.891 11.7103 57.1758 11.8037 57.5312 11.8037ZM64.2783 13H62.6172V5.60352H64.2783V13ZM62.5146 3.68262C62.5146 3.42741 62.5944 3.21549 62.7539 3.04688C62.918 2.87826 63.1504 2.79395 63.4512 2.79395C63.752 2.79395 63.9844 2.87826 64.1484 3.04688C64.3125 3.21549 64.3945 3.42741 64.3945 3.68262C64.3945 3.93327 64.3125 4.1429 64.1484 4.31152C63.9844 4.47559 63.752 4.55762 63.4512 4.55762C63.1504 4.55762 62.918 4.47559 62.7539 4.31152C62.5944 4.1429 62.5146 3.93327 62.5146 3.68262ZM67.6348 5.60352L67.6826 6.45801C68.2295 5.7972 68.9473 5.4668 69.8359 5.4668C71.3763 5.4668 72.1602 6.34863 72.1875 8.1123V13H70.5264V8.20801C70.5264 7.73861 70.4238 7.39225 70.2188 7.16895C70.0182 6.94108 69.6878 6.82715 69.2275 6.82715C68.5576 6.82715 68.0586 7.13021 67.7305 7.73633V13H66.0693V5.60352H67.6348ZM77.1436 13.1367C76.0908 13.1367 75.2363 12.8063 74.5801 12.1455C73.9284 11.4801 73.6025 10.596 73.6025 9.49316V9.28809C73.6025 8.5498 73.7438 7.89128 74.0264 7.3125C74.3135 6.72917 74.7145 6.27572 75.2295 5.95215C75.7445 5.62858 76.3187 5.4668 76.9521 5.4668C77.9593 5.4668 78.7363 5.78809 79.2832 6.43066C79.8346 7.07324 80.1104 7.98242 80.1104 9.1582V9.82812H75.2773C75.3275 10.4388 75.5303 10.9219 75.8857 11.2773C76.2458 11.6328 76.6969 11.8105 77.2393 11.8105C78.0003 11.8105 78.6201 11.5029 79.0986 10.8877L79.9941 11.7422C79.6979 12.1842 79.3014 12.5283 78.8047 12.7744C78.3125 13.016 77.7588 13.1367 77.1436 13.1367ZM76.9453 6.7998C76.4896 6.7998 76.1204 6.95931 75.8379 7.27832C75.5599 7.59733 75.3822 8.04167 75.3047 8.61133H78.4697V8.48828C78.4333 7.93229 78.2852 7.51302 78.0254 7.23047C77.7656 6.94336 77.4056 6.7998 76.9453 6.7998ZM85.2783 7.12109C85.0596 7.08464 84.834 7.06641 84.6016 7.06641C83.8405 7.06641 83.3278 7.35807 83.0635 7.94141V13H81.4023V5.60352H82.9883L83.0293 6.43066C83.4303 5.78809 83.9863 5.4668 84.6973 5.4668C84.9342 5.4668 85.1302 5.4987 85.2852 5.5625L85.2783 7.12109Z" fill="#BBBBBB"/>
<g opacity="0.8">
<path d="M10 39C10 37.3431 11.3431 36 13 36H75C76.6569 36 78 37.3431 78 39V93C78 94.6569 76.6569 96 75 96H13C11.3431 96 10 94.6569 10 93V39Z" fill="#1E73FF"/>
<path d="M45.4546 69.7998H43.6821V61.2378L41.0674 62.1313V60.6299L45.2275 59.0991H45.4546V69.7998Z" fill="white"/>
</g>
<g opacity="0.8">
<path d="M89 39C89 37.3431 90.3431 36 92 36H154C155.657 36 157 37.3431 157 39V93C157 94.6569 155.657 96 154 96H92C90.3431 96 89 94.6569 89 93V39Z" fill="#1E73FF"/>
<path d="M126.806 69.7998H119.635V68.5767L123.188 64.7021C123.7 64.1309 124.064 63.6548 124.279 63.2739C124.499 62.8882 124.608 62.5024 124.608 62.1167C124.608 61.6089 124.464 61.1987 124.176 60.8862C123.893 60.5737 123.51 60.4175 123.026 60.4175C122.45 60.4175 122.003 60.5933 121.686 60.9448C121.369 61.2964 121.21 61.7773 121.21 62.3877H119.43C119.43 61.7383 119.577 61.1548 119.87 60.6372C120.167 60.1147 120.59 59.7095 121.137 59.4214C121.688 59.1333 122.323 58.9893 123.041 58.9893C124.076 58.9893 124.892 59.2505 125.487 59.7729C126.088 60.2905 126.388 61.0083 126.388 61.9263C126.388 62.4585 126.237 63.0176 125.934 63.6035C125.636 64.1846 125.146 64.8462 124.462 65.5884L121.854 68.3789H126.806V69.7998Z" fill="white"/>
</g>
<g opacity="0.8">
<path d="M168 39C168 37.3431 169.343 36 171 36H233C234.657 36 236 37.3431 236 39V93C236 94.6569 234.657 96 233 96H171C169.343 96 168 94.6569 168 93V39Z" fill="#1E73FF"/>
<path d="M200.693 63.6548H201.777C202.324 63.6499 202.756 63.5083 203.074 63.23C203.396 62.9517 203.557 62.5488 203.557 62.0215C203.557 61.5137 203.423 61.1206 203.154 60.8423C202.891 60.5591 202.485 60.4175 201.938 60.4175C201.46 60.4175 201.067 60.5566 200.759 60.835C200.452 61.1084 200.298 61.4673 200.298 61.9116H198.518C198.518 61.3647 198.662 60.8667 198.95 60.4175C199.243 59.9683 199.648 59.6191 200.166 59.3701C200.688 59.1162 201.272 58.9893 201.917 58.9893C202.981 58.9893 203.816 59.2578 204.421 59.7949C205.032 60.3271 205.337 61.0693 205.337 62.0215C205.337 62.5 205.183 62.9517 204.875 63.3765C204.573 63.7964 204.18 64.1138 203.696 64.3286C204.282 64.5288 204.727 64.8438 205.029 65.2734C205.337 65.7031 205.491 66.2158 205.491 66.8115C205.491 67.7686 205.161 68.5303 204.502 69.0967C203.848 69.6631 202.986 69.9463 201.917 69.9463C200.891 69.9463 200.051 69.6729 199.397 69.126C198.743 68.5791 198.416 67.8516 198.416 66.9434H200.195C200.195 67.4121 200.352 67.793 200.664 68.0859C200.981 68.3789 201.406 68.5254 201.938 68.5254C202.49 68.5254 202.925 68.3789 203.242 68.0859C203.56 67.793 203.718 67.3682 203.718 66.8115C203.718 66.25 203.552 65.8179 203.22 65.5151C202.888 65.2124 202.395 65.061 201.741 65.061H200.693V63.6548Z" fill="white"/>
</g>
<g opacity="0.8">
<path d="M247 39C247 37.3431 248.343 36 250 36H412C413.657 36 415 37.3431 415 39V93C415 94.6569 413.657 96 412 96H250C248.343 96 247 94.6569 247 93V39Z" fill="#1E73FF"/>
<path d="M334.656 65.9985H335.981V67.4268H334.656V69.7998H332.876V67.4268H328.269L328.218 66.3428L332.817 59.1357H334.656V65.9985ZM330.085 65.9985H332.876V61.5454L332.744 61.7798L330.085 65.9985Z" fill="white"/>
</g>
<g opacity="0.8">
<path d="M426 39C426 37.3431 427.343 36 429 36H491C492.657 36 494 37.3431 494 39V93C494 94.6569 492.657 96 491 96H429C427.343 96 426 94.6569 426 93V39Z" fill="#1E73FF"/>
<path d="M457.111 64.5117L457.69 59.1357H463.417V60.6738H459.169L458.876 63.2227C459.37 62.9395 459.926 62.7979 460.546 62.7979C461.562 62.7979 462.351 63.1226 462.912 63.772C463.479 64.4214 463.762 65.2954 463.762 66.394C463.762 67.478 463.449 68.3423 462.824 68.9868C462.199 69.6265 461.342 69.9463 460.253 69.9463C459.277 69.9463 458.466 69.6704 457.822 69.1187C457.182 68.562 456.835 67.8296 456.782 66.9214H458.503C458.571 67.439 458.757 67.8369 459.06 68.1152C459.362 68.3887 459.758 68.5254 460.246 68.5254C460.793 68.5254 461.218 68.3301 461.521 67.9395C461.828 67.5488 461.982 67.0166 461.982 66.3428C461.982 65.6934 461.813 65.1807 461.477 64.8047C461.14 64.4238 460.676 64.2334 460.085 64.2334C459.763 64.2334 459.489 64.2773 459.265 64.3652C459.04 64.4482 458.796 64.6143 458.532 64.8633L457.111 64.5117Z" fill="white"/>
</g>
<path d="M420.5 106L420.5 154" stroke="#AAAAAA" stroke-dasharray="4 2"/>
<path d="M241.5 106L241.5 154" stroke="#AAAAAA" stroke-dasharray="4 2"/>
<path d="M162.5 106L162.5 154" stroke="#AAAAAA" stroke-dasharray="4 2"/>
<path d="M83.5 106L83.5003 154" stroke="#AAAAAA" stroke-dasharray="4 2"/>
<path d="M305.031 113.573C304.466 113.482 304.01 113.437 303.664 113.437C302.753 113.437 302.297 113.915 302.297 114.872V115.604H303.876V116.581H302.297V123H301.032V116.581H299.863V115.604H301.032V114.797C301.037 114.008 301.258 113.405 301.695 112.985C302.133 112.566 302.755 112.356 303.562 112.356C304.022 112.356 304.933 112.495 306.296 112.773V123H305.031V113.573ZM311.437 123.137C310.434 123.137 309.618 122.809 308.989 122.152C308.36 121.492 308.046 120.61 308.046 119.507V119.274C308.046 118.541 308.185 117.887 308.463 117.312C308.745 116.734 309.137 116.283 309.639 115.959C310.145 115.631 310.691 115.467 311.279 115.467C312.241 115.467 312.988 115.784 313.521 116.417C314.055 117.05 314.321 117.957 314.321 119.138V119.664H309.311C309.329 120.393 309.541 120.983 309.946 121.435C310.356 121.881 310.876 122.104 311.505 122.104C311.951 122.104 312.33 122.013 312.64 121.831C312.95 121.649 313.221 121.407 313.453 121.106L314.226 121.708C313.606 122.66 312.676 123.137 311.437 123.137ZM311.279 116.506C310.769 116.506 310.34 116.693 309.994 117.066C309.648 117.436 309.434 117.955 309.352 118.625H313.057V118.529C313.02 117.887 312.847 117.39 312.537 117.039C312.227 116.684 311.808 116.506 311.279 116.506ZM318.272 118.304L319.913 115.604H321.39L318.97 119.261L321.465 123H320.002L318.293 120.231L316.584 123H315.114L317.609 119.261L315.189 115.604H316.652L318.272 118.304ZM325.368 119.288H322.032V118.256H325.368V119.288ZM330.912 121.038C330.912 120.696 330.782 120.432 330.522 120.245C330.267 120.054 329.818 119.89 329.176 119.753C328.538 119.616 328.03 119.452 327.651 119.261C327.278 119.069 327 118.841 326.817 118.577C326.64 118.313 326.551 117.998 326.551 117.634C326.551 117.028 326.806 116.515 327.316 116.096C327.831 115.676 328.488 115.467 329.285 115.467C330.124 115.467 330.803 115.683 331.322 116.116C331.846 116.549 332.108 117.103 332.108 117.777H330.837C330.837 117.431 330.689 117.132 330.393 116.882C330.101 116.631 329.732 116.506 329.285 116.506C328.825 116.506 328.465 116.606 328.205 116.807C327.945 117.007 327.815 117.269 327.815 117.593C327.815 117.898 327.936 118.128 328.178 118.283C328.419 118.438 328.854 118.586 329.483 118.728C330.117 118.869 330.63 119.037 331.021 119.233C331.413 119.429 331.703 119.666 331.89 119.944C332.081 120.218 332.177 120.553 332.177 120.949C332.177 121.61 331.912 122.141 331.384 122.542C330.855 122.938 330.169 123.137 329.326 123.137C328.734 123.137 328.21 123.032 327.754 122.822C327.298 122.613 326.94 122.321 326.681 121.947C326.425 121.569 326.298 121.161 326.298 120.724H327.562C327.585 121.147 327.754 121.485 328.068 121.735C328.387 121.981 328.807 122.104 329.326 122.104C329.805 122.104 330.188 122.009 330.475 121.817C330.766 121.621 330.912 121.362 330.912 121.038ZM335.089 116.499C335.649 115.811 336.379 115.467 337.276 115.467C338.84 115.467 339.628 116.349 339.642 118.112V123H338.377V118.105C338.372 117.572 338.249 117.178 338.008 116.923C337.771 116.668 337.399 116.54 336.894 116.54C336.483 116.54 336.123 116.649 335.813 116.868C335.504 117.087 335.262 117.374 335.089 117.729V123H333.824V112.5H335.089V116.499ZM345.11 116.738C344.919 116.706 344.712 116.69 344.488 116.69C343.659 116.69 343.096 117.044 342.8 117.75V123H341.535V115.604H342.766L342.786 116.458C343.201 115.797 343.789 115.467 344.55 115.467C344.796 115.467 344.983 115.499 345.11 115.562V116.738ZM347.653 123H346.389V115.604H347.653V123ZM346.286 113.642C346.286 113.437 346.348 113.263 346.471 113.122C346.598 112.981 346.785 112.91 347.031 112.91C347.277 112.91 347.464 112.981 347.592 113.122C347.719 113.263 347.783 113.437 347.783 113.642C347.783 113.847 347.719 114.018 347.592 114.154C347.464 114.291 347.277 114.359 347.031 114.359C346.785 114.359 346.598 114.291 346.471 114.154C346.348 114.018 346.286 113.847 346.286 113.642ZM350.88 115.604L350.921 116.533C351.486 115.822 352.224 115.467 353.136 115.467C354.699 115.467 355.487 116.349 355.501 118.112V123H354.236V118.105C354.232 117.572 354.109 117.178 353.867 116.923C353.63 116.668 353.259 116.54 352.753 116.54C352.343 116.54 351.983 116.649 351.673 116.868C351.363 117.087 351.121 117.374 350.948 117.729V123H349.684V115.604H350.88ZM359.473 119.575L358.68 120.402V123H357.415V112.5H358.68V118.851L359.356 118.037L361.66 115.604H363.198L360.32 118.693L363.533 123H362.05L359.473 119.575Z" fill="#666666"/>
<path d="M335.815 141.709C335.815 143.479 335.449 144.832 334.717 145.77C333.984 146.707 332.912 147.176 331.5 147.176C330.105 147.176 329.039 146.716 328.301 145.796C327.562 144.876 327.185 143.558 327.167 141.841V139.485C327.167 137.698 327.536 136.342 328.274 135.416C329.019 134.49 330.088 134.027 331.482 134.027C332.877 134.027 333.943 134.487 334.682 135.407C335.42 136.321 335.798 137.637 335.815 139.354V141.709ZM333.275 139.125C333.275 138.064 333.129 137.294 332.836 136.813C332.549 136.327 332.098 136.084 331.482 136.084C330.885 136.084 330.442 136.315 330.155 136.778C329.874 137.235 329.725 137.953 329.707 138.932V142.043C329.707 143.086 329.848 143.862 330.129 144.372C330.416 144.876 330.873 145.128 331.5 145.128C332.121 145.128 332.569 144.885 332.845 144.398C333.12 143.912 333.264 143.168 333.275 142.166V139.125Z" fill="#1E73FF"/>
</svg>
