<svg width="293" height="306" viewBox="0 0 293 306" fill="none" xmlns="http://www.w3.org/2000/svg">
<rect x="53" y="27" width="186" height="278" rx="5" fill="#F7F7F7" stroke="#AAAAAA" stroke-width="2" stroke-dasharray="6 4"/>
<path d="M57.6396 3.81934C57.1748 3.75553 56.7738 3.72363 56.4365 3.72363C55.5433 3.72363 55.0967 4.1429 55.0967 4.98145V5.60352H56.6006V6.83398H55.0967V13H53.4355V6.83398H52.3076V5.60352H53.4355V4.94043C53.4401 4.10645 53.6862 3.46842 54.1738 3.02637C54.666 2.57975 55.3587 2.35645 56.252 2.35645C56.8079 2.35645 57.8242 2.46582 59.3008 2.68457V13H57.6396V3.81934ZM64.3936 13.1367C63.3408 13.1367 62.4863 12.8063 61.8301 12.1455C61.1784 11.4801 60.8525 10.596 60.8525 9.49316V9.28809C60.8525 8.5498 60.9938 7.89128 61.2764 7.3125C61.5635 6.72917 61.9645 6.27572 62.4795 5.95215C62.9945 5.62858 63.5687 5.4668 64.2021 5.4668C65.2093 5.4668 65.9863 5.78809 66.5332 6.43066C67.0846 7.07324 67.3604 7.98242 67.3604 9.1582V9.82812H62.5273C62.5775 10.4388 62.7803 10.9219 63.1357 11.2773C63.4958 11.6328 63.9469 11.8105 64.4893 11.8105C65.2503 11.8105 65.8701 11.5029 66.3486 10.8877L67.2441 11.7422C66.9479 12.1842 66.5514 12.5283 66.0547 12.7744C65.5625 13.016 65.0088 13.1367 64.3936 13.1367ZM64.1953 6.7998C63.7396 6.7998 63.3704 6.95931 63.0879 7.27832C62.8099 7.59733 62.6322 8.04167 62.5547 8.61133H65.7197V8.48828C65.6833 7.93229 65.5352 7.51302 65.2754 7.23047C65.0156 6.94336 64.6556 6.7998 64.1953 6.7998ZM71.3115 8.03711L72.7197 5.60352H74.5654L72.3027 9.24707L74.6406 13H72.8086L71.332 10.4707L69.8623 13H68.0166L70.3545 9.24707L68.0986 5.60352H69.9307L71.3115 8.03711ZM82.2217 11.8105C82.6364 11.8105 82.9805 11.6898 83.2539 11.4482C83.5273 11.2067 83.6732 10.9082 83.6914 10.5527H85.2568C85.2386 11.013 85.0951 11.4437 84.8262 11.8447C84.5573 12.2412 84.1927 12.5557 83.7324 12.7881C83.2721 13.0205 82.7754 13.1367 82.2422 13.1367C81.2077 13.1367 80.3874 12.8018 79.7812 12.1318C79.1751 11.4619 78.8721 10.5368 78.8721 9.35645V9.18555C78.8721 8.0599 79.1729 7.15983 79.7744 6.48535C80.376 5.80632 81.1963 5.4668 82.2354 5.4668C83.1149 5.4668 83.8304 5.72428 84.3818 6.23926C84.9378 6.74967 85.2295 7.42188 85.2568 8.25586H83.6914C83.6732 7.83203 83.5273 7.4834 83.2539 7.20996C82.985 6.93652 82.641 6.7998 82.2217 6.7998C81.6839 6.7998 81.2692 6.99577 80.9775 7.3877C80.6859 7.77507 80.5378 8.36523 80.5332 9.1582V9.4248C80.5332 10.2269 80.6768 10.8262 80.9639 11.2227C81.2555 11.6146 81.6748 11.8105 82.2217 11.8105ZM86.2002 9.2334C86.2002 8.50879 86.3438 7.8571 86.6309 7.27832C86.918 6.69499 87.3213 6.24837 87.8408 5.93848C88.3604 5.62402 88.9574 5.4668 89.6318 5.4668C90.6299 5.4668 91.4388 5.78809 92.0586 6.43066C92.6829 7.07324 93.0202 7.92546 93.0703 8.9873L93.0771 9.37695C93.0771 10.1061 92.9359 10.7578 92.6533 11.332C92.3753 11.9062 91.9743 12.3506 91.4502 12.665C90.9307 12.9795 90.3291 13.1367 89.6455 13.1367C88.6019 13.1367 87.7656 12.7904 87.1367 12.0977C86.5124 11.4004 86.2002 10.473 86.2002 9.31543V9.2334ZM87.8613 9.37695C87.8613 10.138 88.0186 10.735 88.333 11.168C88.6475 11.5964 89.085 11.8105 89.6455 11.8105C90.2061 11.8105 90.6413 11.5918 90.9512 11.1543C91.2656 10.7168 91.4229 10.0765 91.4229 9.2334C91.4229 8.486 91.2611 7.89355 90.9375 7.45605C90.6185 7.01855 90.1833 6.7998 89.6318 6.7998C89.0895 6.7998 88.6589 7.01628 88.3398 7.44922C88.0208 7.8776 87.8613 8.52018 87.8613 9.37695ZM96.0234 5.60352L96.0713 6.45801C96.6182 5.7972 97.3359 5.4668 98.2246 5.4668C99.765 5.4668 100.549 6.34863 100.576 8.1123V13H98.915V8.20801C98.915 7.73861 98.8125 7.39225 98.6074 7.16895C98.4069 6.94108 98.0765 6.82715 97.6162 6.82715C96.9463 6.82715 96.4473 7.13021 96.1191 7.73633V13H94.458V5.60352H96.0234ZM104.356 3.80566V5.60352H105.662V6.83398H104.356V10.9629C104.356 11.2454 104.411 11.4505 104.521 11.5781C104.634 11.7012 104.835 11.7627 105.122 11.7627C105.313 11.7627 105.507 11.7399 105.703 11.6943V12.9795C105.325 13.0843 104.96 13.1367 104.609 13.1367C103.333 13.1367 102.695 12.4326 102.695 11.0244V6.83398H101.479V5.60352H102.695V3.80566H104.356ZM111.356 13C111.284 12.8587 111.22 12.6286 111.165 12.3096C110.636 12.861 109.989 13.1367 109.224 13.1367C108.481 13.1367 107.875 12.9248 107.405 12.501C106.936 12.0771 106.701 11.5531 106.701 10.9287C106.701 10.1403 106.993 9.53646 107.576 9.11719C108.164 8.69336 109.003 8.48145 110.092 8.48145H111.11V7.99609C111.11 7.61328 111.003 7.30794 110.789 7.08008C110.575 6.84766 110.249 6.73145 109.812 6.73145C109.433 6.73145 109.123 6.82715 108.882 7.01855C108.64 7.2054 108.52 7.44466 108.52 7.73633H106.858C106.858 7.33073 106.993 6.95247 107.262 6.60156C107.531 6.24609 107.895 5.9681 108.355 5.76758C108.82 5.56706 109.338 5.4668 109.907 5.4668C110.773 5.4668 111.464 5.68555 111.979 6.12305C112.493 6.55599 112.758 7.16667 112.771 7.95508V11.291C112.771 11.9564 112.865 12.4873 113.052 12.8838V13H111.356ZM109.531 11.8037C109.859 11.8037 110.167 11.724 110.454 11.5645C110.746 11.4049 110.965 11.1908 111.11 10.9219V9.52734H110.215C109.6 9.52734 109.137 9.63444 108.827 9.84863C108.517 10.0628 108.362 10.3659 108.362 10.7578C108.362 11.0768 108.467 11.332 108.677 11.5234C108.891 11.7103 109.176 11.8037 109.531 11.8037ZM116.278 13H114.617V5.60352H116.278V13ZM114.515 3.68262C114.515 3.42741 114.594 3.21549 114.754 3.04688C114.918 2.87826 115.15 2.79395 115.451 2.79395C115.752 2.79395 115.984 2.87826 116.148 3.04688C116.312 3.21549 116.395 3.42741 116.395 3.68262C116.395 3.93327 116.312 4.1429 116.148 4.31152C115.984 4.47559 115.752 4.55762 115.451 4.55762C115.15 4.55762 114.918 4.47559 114.754 4.31152C114.594 4.1429 114.515 3.93327 114.515 3.68262ZM119.635 5.60352L119.683 6.45801C120.229 5.7972 120.947 5.4668 121.836 5.4668C123.376 5.4668 124.16 6.34863 124.188 8.1123V13H122.526V8.20801C122.526 7.73861 122.424 7.39225 122.219 7.16895C122.018 6.94108 121.688 6.82715 121.228 6.82715C120.558 6.82715 120.059 7.13021 119.73 7.73633V13H118.069V5.60352H119.635ZM129.144 13.1367C128.091 13.1367 127.236 12.8063 126.58 12.1455C125.928 11.4801 125.603 10.596 125.603 9.49316V9.28809C125.603 8.5498 125.744 7.89128 126.026 7.3125C126.313 6.72917 126.715 6.27572 127.229 5.95215C127.744 5.62858 128.319 5.4668 128.952 5.4668C129.959 5.4668 130.736 5.78809 131.283 6.43066C131.835 7.07324 132.11 7.98242 132.11 9.1582V9.82812H127.277C127.327 10.4388 127.53 10.9219 127.886 11.2773C128.246 11.6328 128.697 11.8105 129.239 11.8105C130 11.8105 130.62 11.5029 131.099 10.8877L131.994 11.7422C131.698 12.1842 131.301 12.5283 130.805 12.7744C130.312 13.016 129.759 13.1367 129.144 13.1367ZM128.945 6.7998C128.49 6.7998 128.12 6.95931 127.838 7.27832C127.56 7.59733 127.382 8.04167 127.305 8.61133H130.47V8.48828C130.433 7.93229 130.285 7.51302 130.025 7.23047C129.766 6.94336 129.406 6.7998 128.945 6.7998ZM137.278 7.12109C137.06 7.08464 136.834 7.06641 136.602 7.06641C135.84 7.06641 135.328 7.35807 135.063 7.94141V13H133.402V5.60352H134.988L135.029 6.43066C135.43 5.78809 135.986 5.4668 136.697 5.4668C136.934 5.4668 137.13 5.4987 137.285 5.5625L137.278 7.12109Z" fill="#BBBBBB"/>
<g opacity="0.8">
<path d="M62 99C62 97.3431 63.3431 96 65 96H119C120.657 96 122 97.3431 122 99V153C122 154.657 120.657 156 119 156H65C63.3431 156 62 154.657 62 153V99Z" fill="#1E73FF"/>
<path d="M91.0938 123.655H92.1777C92.7246 123.65 93.1567 123.509 93.4741 123.23C93.7964 122.952 93.9575 122.549 93.9575 122.022C93.9575 121.514 93.8232 121.121 93.5547 120.843C93.291 120.559 92.8857 120.418 92.3389 120.418C91.8604 120.418 91.4673 120.557 91.1597 120.835C90.8521 121.109 90.6982 121.468 90.6982 121.912H88.9185C88.9185 121.365 89.0625 120.867 89.3506 120.418C89.6436 119.969 90.0488 119.619 90.5664 119.37C91.0889 119.116 91.6724 118.99 92.3169 118.99C93.3813 118.99 94.2163 119.258 94.8218 119.795C95.4321 120.327 95.7373 121.07 95.7373 122.022C95.7373 122.5 95.5835 122.952 95.2759 123.377C94.9731 123.797 94.5801 124.114 94.0967 124.329C94.6826 124.529 95.127 124.844 95.4297 125.274C95.7373 125.703 95.8911 126.216 95.8911 126.812C95.8911 127.769 95.5615 128.531 94.9023 129.097C94.248 129.663 93.3862 129.947 92.3169 129.947C91.2915 129.947 90.4517 129.673 89.7974 129.126C89.1431 128.579 88.8159 127.852 88.8159 126.944H90.5957C90.5957 127.412 90.752 127.793 91.0645 128.086C91.3818 128.379 91.8066 128.526 92.3389 128.526C92.8906 128.526 93.3252 128.379 93.6426 128.086C93.96 127.793 94.1187 127.368 94.1187 126.812C94.1187 126.25 93.9526 125.818 93.6206 125.515C93.2886 125.213 92.7954 125.061 92.1411 125.061H91.0938V123.655Z" fill="white"/>
</g>
<g opacity="0.8">
<path d="M62 169C62 167.343 63.3431 166 65 166H119C120.657 166 122 167.343 122 169V223C122 224.657 120.657 226 119 226H65C63.3431 226 62 224.657 62 223V169Z" fill="#1E73FF"/>
<path d="M96.2061 199.8H89.0356V198.577L92.5879 194.702C93.1006 194.131 93.4644 193.655 93.6792 193.274C93.8989 192.888 94.0088 192.503 94.0088 192.117C94.0088 191.609 93.8647 191.199 93.5767 190.886C93.2935 190.574 92.9102 190.418 92.4268 190.418C91.8506 190.418 91.4038 190.594 91.0864 190.945C90.769 191.297 90.6104 191.778 90.6104 192.388H88.8306C88.8306 191.739 88.9771 191.155 89.27 190.637C89.5679 190.115 89.9902 189.71 90.5371 189.422C91.0889 189.134 91.7236 188.99 92.4414 188.99C93.4766 188.99 94.292 189.251 94.8877 189.773C95.4883 190.291 95.7886 191.009 95.7886 191.927C95.7886 192.459 95.6372 193.018 95.3345 193.604C95.0366 194.185 94.5459 194.846 93.8623 195.589L91.2549 198.379H96.2061V199.8Z" fill="white"/>
</g>
<g opacity="0.8">
<path d="M62 239C62 237.343 63.3431 236 65 236H119C120.657 236 122 237.343 122 239V293C122 294.657 120.657 296 119 296H65C63.3431 296 62 294.657 62 293V239Z" fill="#1E73FF"/>
<path d="M93.855 269.8H92.0825V261.238L89.4678 262.132V260.63L93.6279 259.099H93.855V269.8Z" fill="white"/>
</g>
<path d="M257.707 26.7665C257.317 26.376 256.683 26.376 256.293 26.7665L249.929 33.1305C249.538 33.521 249.538 34.1542 249.929 34.5447C250.319 34.9352 250.953 34.9352 251.343 34.5447L257 28.8878L262.657 34.5447C263.047 34.9352 263.681 34.9352 264.071 34.5447C264.462 34.1542 264.462 33.521 264.071 33.1305L257.707 26.7665ZM256 27.4736V30.4421H258V27.4736H256ZM256 34.3999V40.3368H258V34.3999H256ZM256 44.2947V50.2315H258V44.2947H256ZM256 54.1894V60.1263H258V54.1894H256ZM256 64.0842V70.021H258V64.0842H256ZM256 73.9789V79.9157H258V73.9789H256ZM256 83.8736V89.8105H258V83.8736H256ZM256 93.7684V99.7052H258V93.7684H256ZM256 103.663V109.6H258V103.663H256ZM256 113.558V119.495H258V113.558H256ZM256 123.453V129.389H258V123.453H256ZM256 133.347V139.284H258V133.347H256ZM256 143.242V149.179H258V143.242H256ZM256 153.137V159.074H258V153.137H256ZM256 163.032V168.968H258V163.032H256ZM256 172.926V178.863H258V172.926H256ZM256 182.821V188.758H258V182.821H256ZM256 192.716V198.653H258V192.716H256ZM256 202.611V208.547H258V202.611H256ZM256 212.505V218.442H258V212.505H256ZM256 222.4V228.337H258V222.4H256ZM256 232.295V238.232H258V232.295H256ZM256 242.189V248.126H258V242.189H256ZM256 252.084V258.021H258V252.084H256ZM256 261.979V267.916H258V261.979H256ZM256 271.874V277.811H258V271.874H256ZM256 281.768V287.705H258V281.768H256ZM256 291.663V297.6H258V291.663H256ZM256 301.558V304.526H258V301.558H256Z" fill="#1E73FF"/>
<path d="M226.985 163.142L227.051 164.028C227.612 163.34 228.372 162.996 229.329 162.996C230.349 162.996 231.05 163.398 231.431 164.204C231.987 163.398 232.781 162.996 233.811 162.996C234.67 162.996 235.31 163.247 235.73 163.75C236.15 164.248 236.36 165 236.36 166.006V171.067H234.236V166.013C234.236 165.564 234.148 165.237 233.972 165.032C233.796 164.822 233.486 164.717 233.042 164.717C232.407 164.717 231.968 165.02 231.724 165.625L231.731 171.067H229.614V166.021C229.614 165.562 229.524 165.229 229.343 165.024C229.163 164.819 228.855 164.717 228.42 164.717C227.82 164.717 227.385 164.966 227.117 165.464V171.067H225V163.142H226.985Z" fill="#1E73FF"/>
<path d="M242.585 171.067C242.488 170.876 242.417 170.64 242.373 170.356C241.86 170.928 241.194 171.213 240.374 171.213C239.597 171.213 238.953 170.989 238.44 170.54C237.932 170.09 237.678 169.524 237.678 168.84C237.678 168 237.988 167.356 238.608 166.907C239.233 166.458 240.134 166.23 241.311 166.226H242.285V165.771C242.285 165.405 242.19 165.112 242 164.893C241.814 164.673 241.519 164.563 241.113 164.563C240.757 164.563 240.476 164.648 240.271 164.819C240.071 164.99 239.971 165.225 239.971 165.522H237.854C237.854 165.063 237.996 164.639 238.279 164.248C238.562 163.857 238.962 163.552 239.48 163.333C239.998 163.108 240.579 162.996 241.223 162.996C242.2 162.996 242.974 163.242 243.545 163.735C244.121 164.224 244.409 164.912 244.409 165.801V169.236C244.414 169.988 244.519 170.557 244.724 170.942V171.067H242.585ZM240.835 169.595C241.147 169.595 241.436 169.526 241.699 169.39C241.963 169.248 242.158 169.06 242.285 168.826V167.463H241.494C240.435 167.463 239.871 167.83 239.802 168.562L239.795 168.687C239.795 168.95 239.888 169.167 240.073 169.338C240.259 169.509 240.513 169.595 240.835 169.595Z" fill="#1E73FF"/>
<path d="M248.269 171.067H246.145V163.142H248.269V171.067ZM246.021 161.091C246.021 160.774 246.125 160.513 246.335 160.308C246.55 160.103 246.841 160 247.207 160C247.568 160 247.856 160.103 248.071 160.308C248.286 160.513 248.394 160.774 248.394 161.091C248.394 161.414 248.284 161.677 248.064 161.882C247.849 162.087 247.563 162.19 247.207 162.19C246.851 162.19 246.562 162.087 246.343 161.882C246.128 161.677 246.021 161.414 246.021 161.091Z" fill="#1E73FF"/>
<path d="M251.968 163.142L252.034 164.058C252.6 163.35 253.359 162.996 254.312 162.996C255.151 162.996 255.776 163.242 256.187 163.735C256.597 164.229 256.807 164.966 256.816 165.947V171.067H254.7V165.999C254.7 165.549 254.602 165.225 254.407 165.024C254.211 164.819 253.887 164.717 253.433 164.717C252.837 164.717 252.39 164.971 252.092 165.479V171.067H249.976V163.142H251.968Z" fill="#1E73FF"/>
<path d="M266.755 171.067C266.658 170.876 266.587 170.64 266.543 170.356C266.03 170.928 265.364 171.213 264.543 171.213C263.767 171.213 263.123 170.989 262.61 170.54C262.102 170.09 261.848 169.524 261.848 168.84C261.848 168 262.158 167.356 262.778 166.907C263.403 166.458 264.304 166.23 265.481 166.226H266.455V165.771C266.455 165.405 266.36 165.112 266.169 164.893C265.984 164.673 265.688 164.563 265.283 164.563C264.927 164.563 264.646 164.648 264.441 164.819C264.241 164.99 264.141 165.225 264.141 165.522H262.024C262.024 165.063 262.166 164.639 262.449 164.248C262.732 163.857 263.132 163.552 263.65 163.333C264.167 163.108 264.749 162.996 265.393 162.996C266.37 162.996 267.144 163.242 267.715 163.735C268.291 164.224 268.579 164.912 268.579 165.801V169.236C268.584 169.988 268.689 170.557 268.894 170.942V171.067H266.755ZM265.005 169.595C265.317 169.595 265.605 169.526 265.869 169.39C266.133 169.248 266.328 169.06 266.455 168.826V167.463H265.664C264.604 167.463 264.041 167.83 263.972 168.562L263.965 168.687C263.965 168.95 264.058 169.167 264.243 169.338C264.429 169.509 264.683 169.595 265.005 169.595Z" fill="#1E73FF"/>
<path d="M273.223 165.508L274.556 163.142H276.819L274.563 167.024L276.914 171.067H274.644L273.23 168.577L271.824 171.067H269.546L271.897 167.024L269.648 163.142H271.919L273.223 165.508Z" fill="#1E73FF"/>
<path d="M280.071 171.067H277.947V163.142H280.071V171.067ZM277.822 161.091C277.822 160.774 277.927 160.513 278.137 160.308C278.352 160.103 278.643 160 279.009 160C279.37 160 279.658 160.103 279.873 160.308C280.088 160.513 280.195 160.774 280.195 161.091C280.195 161.414 280.085 161.677 279.866 161.882C279.651 162.087 279.365 162.19 279.009 162.19C278.652 162.19 278.364 162.087 278.145 161.882C277.93 161.677 277.822 161.414 277.822 161.091Z" fill="#1E73FF"/>
<path d="M286.113 168.877C286.113 168.618 285.984 168.416 285.725 168.269C285.471 168.118 285.061 167.983 284.495 167.866C282.61 167.471 281.667 166.67 281.667 165.464C281.667 164.761 281.958 164.175 282.539 163.706C283.125 163.232 283.889 162.996 284.832 162.996C285.837 162.996 286.641 163.232 287.241 163.706C287.847 164.18 288.149 164.795 288.149 165.552H286.033C286.033 165.249 285.935 165 285.74 164.805C285.544 164.604 285.239 164.504 284.824 164.504C284.468 164.504 284.192 164.585 283.997 164.746C283.801 164.907 283.704 165.112 283.704 165.361C283.704 165.596 283.813 165.786 284.033 165.933C284.258 166.074 284.634 166.199 285.161 166.306C285.688 166.409 286.133 166.526 286.494 166.658C287.612 167.068 288.171 167.778 288.171 168.789C288.171 169.512 287.861 170.098 287.241 170.547C286.621 170.991 285.82 171.213 284.839 171.213C284.175 171.213 283.584 171.096 283.066 170.862C282.554 170.623 282.151 170.298 281.858 169.888C281.565 169.473 281.418 169.026 281.418 168.547H283.425C283.445 168.923 283.584 169.211 283.843 169.412C284.102 169.612 284.448 169.712 284.883 169.712C285.288 169.712 285.593 169.636 285.798 169.485C286.008 169.329 286.113 169.126 286.113 168.877Z" fill="#1E73FF"/>
<path fill-rule="evenodd" clip-rule="evenodd" d="M231.031 163.618C231.017 163.603 231.003 163.589 230.988 163.575C230.664 163.261 230.238 163.075 229.711 163.016C229.589 163.002 229.462 162.996 229.329 162.996C229.059 162.996 228.805 163.023 228.567 163.078C228.517 163.089 228.468 163.101 228.42 163.115C228.39 163.124 228.361 163.133 228.331 163.142C227.828 163.304 227.401 163.599 227.051 164.028L226.985 163.142H225V171.067H227.117V165.464C227.267 165.185 227.469 164.985 227.723 164.862C227.798 164.825 227.879 164.796 227.964 164.773C228.104 164.736 228.256 164.717 228.42 164.717C228.649 164.717 228.842 164.745 229 164.802C229.135 164.85 229.245 164.919 229.329 165.008C229.334 165.014 229.338 165.019 229.343 165.024C229.376 165.062 229.406 165.103 229.433 165.149C229.485 165.238 229.526 165.343 229.556 165.464C229.569 165.516 229.579 165.57 229.588 165.628C229.605 165.746 229.614 165.877 229.614 166.021V171.067H231.731L231.724 165.625C231.871 165.26 232.09 165.004 232.379 164.859C232.569 164.764 232.79 164.717 233.042 164.717C233.213 164.717 233.365 164.732 233.496 164.764C233.619 164.793 233.723 164.835 233.811 164.891C233.836 164.907 233.859 164.924 233.881 164.942C233.915 164.969 233.945 164.999 233.972 165.032C234.002 165.067 234.03 165.106 234.055 165.148C234.057 165.151 234.059 165.155 234.06 165.158C234.119 165.259 234.162 165.381 234.192 165.522C234.198 165.554 234.204 165.588 234.209 165.622C234.227 165.738 234.236 165.866 234.236 166.006C234.236 166.008 234.236 166.011 234.236 166.013V171.067H236.36V166.006C236.36 165.838 236.354 165.676 236.342 165.522C236.309 165.084 236.228 164.703 236.099 164.38C236.039 164.228 235.967 164.088 235.886 163.961C235.837 163.886 235.786 163.816 235.73 163.75C235.699 163.713 235.666 163.676 235.632 163.642C235.627 163.636 235.621 163.63 235.615 163.624C235.305 163.313 234.894 163.118 234.382 163.038C234.254 163.017 234.12 163.005 233.98 162.999C233.925 162.997 233.868 162.996 233.811 162.996C233.538 162.996 233.282 163.024 233.042 163.08C232.988 163.093 232.935 163.107 232.883 163.123C232.291 163.299 231.807 163.66 231.431 164.204C231.323 163.976 231.19 163.781 231.031 163.618ZM237.339 159.925C236.204 159.236 234.94 158.996 233.811 158.996C233.026 158.996 232.266 159.114 231.551 159.35C230.791 159.09 230.029 158.996 229.329 158.996C228.825 158.996 228.329 159.044 227.846 159.142H221V175.067H238.887C239.379 175.167 239.877 175.213 240.374 175.213C240.863 175.213 241.346 175.165 241.817 175.067H260.816V174.177C261.398 174.542 262.015 174.803 262.648 174.971L262.593 175.067H263.057C263.549 175.167 264.047 175.213 264.543 175.213C265.033 175.213 265.516 175.165 265.987 175.067H283.212C283.755 175.168 284.301 175.213 284.839 175.213C286.417 175.213 288.1 174.852 289.571 173.798L289.579 173.792L289.588 173.786C290.977 172.78 291.915 171.308 292.126 169.552H292.149V169.322C292.164 169.147 292.171 168.969 292.171 168.789C292.171 168.611 292.164 168.431 292.149 168.252V165.552C292.149 163.545 291.265 161.778 289.713 160.561C288.213 159.38 286.45 158.996 284.832 158.996C284.485 158.996 284.133 159.015 283.781 159.056C283.524 158.46 283.144 157.9 282.635 157.414C281.521 156.351 280.163 156 279.009 156C277.866 156 276.499 156.342 275.375 157.414L275.359 157.43L275.342 157.446C274.825 157.951 274.448 158.53 274.199 159.142H267.014C266.468 159.04 265.923 158.996 265.393 158.996C264.854 158.996 264.31 159.041 263.77 159.142H262.709L262.842 159.372C262.583 159.452 262.326 159.547 262.072 159.657C261.139 160.055 260.245 160.654 259.518 161.508C259.438 161.397 259.352 161.286 259.262 161.178C257.871 159.506 255.946 158.996 254.312 158.996C253.81 158.996 253.317 159.044 252.84 159.142H252.015C251.758 158.513 251.367 157.924 250.833 157.414C249.72 156.351 248.361 156 247.207 156C246.065 156 244.697 156.342 243.574 157.414L243.557 157.43L243.54 157.446C243.042 157.933 242.674 158.487 242.425 159.075C242.02 159.02 241.617 158.996 241.223 158.996C240.113 158.996 238.985 159.19 237.902 159.657C237.713 159.738 237.525 159.827 237.339 159.925ZM238.079 164.576C237.929 164.873 237.854 165.189 237.854 165.522H239.971C239.971 165.507 239.971 165.491 239.972 165.475C239.979 165.26 240.042 165.079 240.16 164.934C240.163 164.929 240.166 164.925 240.17 164.921C240.2 164.885 240.234 164.851 240.271 164.819C240.277 164.814 240.283 164.809 240.289 164.804C240.493 164.643 240.767 164.563 241.113 164.563C241.151 164.563 241.187 164.564 241.223 164.566C241.251 164.567 241.278 164.569 241.304 164.572C241.306 164.572 241.309 164.572 241.311 164.573C241.375 164.579 241.436 164.589 241.494 164.602C241.682 164.646 241.834 164.725 241.95 164.839C241.967 164.856 241.984 164.874 242 164.893C242.057 164.958 242.105 165.031 242.145 165.11C242.172 165.163 242.195 165.219 242.214 165.277C242.216 165.284 242.218 165.291 242.22 165.298C242.242 165.369 242.258 165.444 242.269 165.522C242.28 165.601 242.285 165.684 242.285 165.771V166.226H241.311C241.282 166.226 241.252 166.226 241.223 166.226C241.186 166.227 241.15 166.228 241.113 166.229C241.08 166.229 241.047 166.23 241.015 166.232C240.954 166.234 240.894 166.237 240.835 166.241C240.805 166.242 240.775 166.244 240.745 166.247C240.736 166.247 240.727 166.248 240.718 166.249C240.706 166.25 240.694 166.25 240.682 166.251C240.638 166.255 240.594 166.259 240.55 166.264C240.502 166.268 240.456 166.274 240.409 166.279C240.405 166.28 240.402 166.28 240.398 166.281C240.385 166.282 240.373 166.284 240.36 166.285C240.356 166.286 240.352 166.287 240.348 166.287C240.267 166.298 240.187 166.31 240.109 166.324C240.092 166.327 240.075 166.33 240.058 166.333C240.028 166.339 239.999 166.344 239.971 166.35C239.552 166.435 239.187 166.564 238.877 166.737C238.782 166.789 238.693 166.846 238.608 166.907C238.599 166.913 238.59 166.92 238.581 166.927C238.452 167.023 238.337 167.128 238.236 167.241C238.073 167.423 237.946 167.628 237.854 167.856C237.79 168.015 237.743 168.186 237.714 168.367C237.71 168.391 237.707 168.415 237.704 168.439C237.698 168.479 237.694 168.521 237.69 168.563C237.687 168.603 237.684 168.645 237.682 168.687C237.679 168.737 237.678 168.788 237.678 168.84C237.678 169.082 237.71 169.31 237.774 169.522C237.864 169.824 238.018 170.095 238.236 170.338C238.299 170.407 238.367 170.475 238.44 170.54C238.539 170.626 238.642 170.704 238.751 170.774C238.814 170.815 238.88 170.853 238.946 170.888C239.082 170.959 239.224 171.019 239.374 171.067C239.674 171.163 240.003 171.212 240.36 171.213C240.364 171.213 240.369 171.213 240.374 171.213C240.454 171.213 240.532 171.211 240.609 171.205C240.686 171.2 240.761 171.192 240.835 171.181C241.001 171.157 241.16 171.119 241.312 171.067C241.374 171.046 241.435 171.022 241.494 170.997C241.534 170.98 241.573 170.962 241.612 170.942C241.803 170.847 241.981 170.728 242.145 170.583C242.185 170.548 242.223 170.512 242.261 170.474C242.266 170.47 242.27 170.465 242.274 170.461C242.278 170.457 242.282 170.454 242.285 170.45C242.315 170.42 242.344 170.389 242.373 170.356C242.405 170.565 242.452 170.748 242.514 170.906C242.518 170.918 242.523 170.93 242.528 170.942C242.539 170.969 242.55 170.995 242.562 171.02C242.57 171.036 242.578 171.051 242.585 171.067H244.724V170.942C244.621 170.749 244.544 170.51 244.491 170.226C244.484 170.185 244.477 170.143 244.47 170.1C244.467 170.078 244.464 170.055 244.461 170.033C244.459 170.022 244.458 170.012 244.457 170.002C244.427 169.772 244.411 169.517 244.409 169.236V165.801C244.409 165.791 244.409 165.781 244.409 165.771C244.408 165.644 244.401 165.521 244.388 165.402C244.366 165.198 244.327 165.005 244.269 164.825C244.213 164.65 244.141 164.487 244.053 164.336C244.046 164.325 244.039 164.314 244.033 164.303C243.903 164.09 243.741 163.901 243.545 163.735C243.516 163.71 243.486 163.686 243.456 163.662C243.45 163.657 243.443 163.652 243.437 163.647C243.355 163.583 243.269 163.524 243.179 163.47C243.175 163.468 243.172 163.465 243.168 163.463C242.95 163.332 242.708 163.229 242.444 163.153C242.432 163.149 242.419 163.146 242.406 163.142C242.367 163.131 242.326 163.121 242.285 163.111C242.239 163.1 242.192 163.09 242.145 163.08C241.886 163.029 241.608 163.001 241.311 162.996C241.307 162.996 241.302 162.996 241.298 162.996C241.273 162.996 241.248 162.996 241.223 162.996C241.186 162.996 241.15 162.996 241.113 162.997C240.707 163.005 240.326 163.059 239.971 163.159C239.953 163.163 239.936 163.169 239.918 163.174C239.767 163.218 239.621 163.271 239.48 163.333C239.368 163.38 239.262 163.432 239.161 163.487C239.155 163.49 239.148 163.494 239.142 163.497C238.785 163.697 238.497 163.947 238.279 164.248C238.269 164.261 238.26 164.275 238.25 164.288C238.185 164.382 238.128 164.478 238.079 164.576ZM246.145 171.067H248.269V163.142H246.145V171.067ZM246.063 160.764C246.056 160.789 246.05 160.814 246.045 160.839C246.029 160.919 246.021 161.003 246.021 161.091C246.021 161.292 246.062 161.469 246.145 161.624C246.196 161.719 246.261 161.805 246.343 161.882C246.383 161.92 246.426 161.954 246.47 161.985C246.67 162.122 246.916 162.19 247.207 162.19C247.282 162.19 247.354 162.185 247.422 162.176C247.62 162.15 247.792 162.087 247.937 161.986C247.945 161.981 247.952 161.975 247.959 161.97C247.996 161.943 248.031 161.914 248.064 161.882C248.149 161.803 248.217 161.716 248.269 161.619C248.352 161.465 248.394 161.289 248.394 161.091C248.394 160.894 248.352 160.718 248.269 160.565C248.219 160.471 248.153 160.385 248.071 160.308C248.032 160.27 247.989 160.235 247.945 160.204C247.937 160.199 247.93 160.194 247.923 160.19C247.729 160.063 247.491 160 247.207 160C246.919 160 246.678 160.063 246.484 160.19C246.477 160.195 246.47 160.199 246.462 160.204C246.417 160.235 246.375 160.27 246.335 160.308C246.258 160.384 246.194 160.468 246.145 160.559C246.128 160.591 246.113 160.623 246.099 160.657C246.085 160.692 246.073 160.727 246.063 160.764ZM248.9 159.142L249.072 158.958C248.775 158.681 248.427 158.474 248.065 158.345C247.714 158.22 247.412 158.19 247.207 158.19C247.003 158.19 246.696 158.219 246.337 158.348C245.979 158.477 245.633 158.682 245.335 158.958C245.329 158.963 245.324 158.968 245.319 158.973C245.313 158.978 245.308 158.984 245.302 158.989C245.263 159.026 245.225 159.065 245.188 159.105C245.184 159.11 245.179 159.115 245.175 159.119C245.168 159.127 245.161 159.135 245.154 159.142H248.9ZM248.958 159.142H249.254C249.242 159.13 249.231 159.117 249.219 159.105C249.182 159.065 249.144 159.026 249.105 158.989L248.958 159.142ZM249.976 171.067H252.092V165.479C252.146 165.386 252.205 165.303 252.269 165.227C252.453 165.01 252.677 164.863 252.942 164.784C253.092 164.739 253.256 164.717 253.433 164.717C253.641 164.717 253.822 164.738 253.976 164.781C254.108 164.818 254.22 164.871 254.312 164.94C254.346 164.966 254.378 164.994 254.407 165.024C254.44 165.059 254.471 165.097 254.499 165.139C254.562 165.233 254.61 165.347 254.643 165.479C254.678 165.615 254.696 165.771 254.699 165.947C254.699 165.954 254.699 165.961 254.7 165.968C254.7 165.978 254.7 165.988 254.7 165.999V171.067H256.816V165.947C256.807 164.966 256.597 164.229 256.187 163.735C256.131 163.668 256.071 163.606 256.007 163.548C255.999 163.54 255.99 163.532 255.981 163.525C255.975 163.519 255.968 163.513 255.961 163.508C255.56 163.166 255.01 162.996 254.312 162.996C253.998 162.996 253.705 163.034 253.433 163.111C253.398 163.121 253.364 163.131 253.33 163.142C252.929 163.273 252.575 163.49 252.269 163.795C252.187 163.876 252.109 163.964 252.034 164.058L251.968 163.142H249.976V171.067ZM277.947 171.067H280.071V163.142H277.947V171.067ZM276.819 163.142H274.556L273.223 165.508L271.919 163.142H269.648L271.897 167.024L269.546 171.067H271.824L273.23 168.577L274.644 171.067H276.914L274.563 167.024L276.819 163.142ZM268.495 165.029C268.41 164.665 268.259 164.346 268.042 164.073C267.946 163.951 267.837 163.839 267.715 163.735C267.686 163.71 267.656 163.686 267.626 163.662C267.62 163.657 267.613 163.652 267.607 163.647C267.525 163.583 267.439 163.524 267.349 163.47C267.345 163.468 267.342 163.465 267.338 163.463C267.076 163.306 266.782 163.189 266.455 163.111C266.157 163.04 265.833 163.002 265.481 162.996C265.476 162.996 265.472 162.996 265.468 162.996C265.443 162.996 265.418 162.996 265.393 162.996C265.356 162.996 265.32 162.996 265.283 162.997C265.171 162.999 265.06 163.005 264.952 163.014C264.668 163.038 264.397 163.086 264.141 163.159C263.971 163.206 263.808 163.264 263.65 163.333C263.538 163.38 263.432 163.432 263.331 163.487C263.324 163.49 263.318 163.494 263.312 163.497C262.955 163.697 262.667 163.947 262.449 164.248C262.439 164.261 262.43 164.275 262.42 164.288C262.156 164.668 262.024 165.079 262.024 165.522H264.141C264.141 165.507 264.141 165.491 264.141 165.475C264.149 165.26 264.212 165.079 264.33 164.934C264.333 164.929 264.336 164.925 264.339 164.921C264.37 164.885 264.404 164.851 264.441 164.819C264.646 164.648 264.927 164.563 265.283 164.563C265.321 164.563 265.357 164.564 265.393 164.566C265.421 164.567 265.448 164.569 265.474 164.572C265.476 164.572 265.479 164.572 265.481 164.573C265.545 164.579 265.606 164.589 265.664 164.602C265.761 164.625 265.849 164.657 265.927 164.699C266 164.737 266.064 164.784 266.12 164.839C266.137 164.856 266.154 164.874 266.169 164.893C266.22 164.95 266.263 165.013 266.3 165.082C266.333 165.143 266.361 165.208 266.384 165.277C266.386 165.284 266.388 165.291 266.39 165.298C266.412 165.369 266.428 165.444 266.439 165.522C266.442 165.547 266.445 165.571 266.447 165.596C266.452 165.653 266.455 165.711 266.455 165.771V166.226H265.481C265.451 166.226 265.422 166.226 265.393 166.226C265.356 166.227 265.32 166.228 265.283 166.229C265.25 166.229 265.217 166.23 265.185 166.232C265.124 166.234 265.064 166.237 265.005 166.241C264.975 166.242 264.944 166.244 264.915 166.247C264.906 166.247 264.897 166.248 264.888 166.249C264.876 166.25 264.864 166.25 264.852 166.251C264.808 166.255 264.763 166.259 264.72 166.264C264.672 166.268 264.625 166.274 264.579 166.279C264.575 166.28 264.572 166.28 264.568 166.281C264.551 166.283 264.535 166.285 264.518 166.287C264.437 166.298 264.357 166.31 264.279 166.324C264.262 166.327 264.245 166.33 264.228 166.333C264.198 166.339 264.169 166.344 264.141 166.35C263.722 166.435 263.357 166.564 263.047 166.737C262.952 166.789 262.863 166.846 262.778 166.907C262.769 166.913 262.76 166.92 262.751 166.927C262.415 167.177 262.172 167.487 262.024 167.856C261.96 168.015 261.913 168.186 261.884 168.367C261.88 168.391 261.877 168.415 261.874 168.439C261.868 168.479 261.864 168.521 261.86 168.563C261.856 168.603 261.854 168.645 261.852 168.687C261.849 168.737 261.848 168.788 261.848 168.84C261.848 169.082 261.88 169.31 261.944 169.522C262.06 169.91 262.282 170.249 262.61 170.54C262.709 170.626 262.812 170.704 262.921 170.774C262.984 170.815 263.049 170.853 263.116 170.888C263.528 171.105 264.004 171.213 264.543 171.213C264.623 171.213 264.702 171.211 264.779 171.205C264.8 171.204 264.821 171.202 264.841 171.2C264.897 171.195 264.951 171.189 265.005 171.181C265.171 171.157 265.33 171.119 265.482 171.067C265.544 171.046 265.605 171.022 265.664 170.997C265.704 170.98 265.743 170.962 265.781 170.942C266.019 170.825 266.235 170.668 266.431 170.474C266.436 170.47 266.44 170.465 266.444 170.461C266.448 170.457 266.452 170.454 266.455 170.45C266.485 170.42 266.514 170.389 266.543 170.356C266.575 170.565 266.622 170.748 266.684 170.906C266.688 170.918 266.693 170.93 266.698 170.942C266.709 170.969 266.72 170.995 266.732 171.02C266.74 171.036 266.747 171.051 266.755 171.067H268.894V170.942C268.841 170.843 268.795 170.731 268.755 170.607C268.718 170.491 268.687 170.364 268.661 170.226C268.654 170.185 268.647 170.143 268.64 170.1C268.637 170.078 268.634 170.055 268.631 170.033C268.629 170.022 268.628 170.012 268.626 170.002C268.597 169.772 268.581 169.517 268.579 169.236V165.801C268.579 165.791 268.579 165.781 268.579 165.771C268.578 165.612 268.567 165.458 268.547 165.312C268.535 165.221 268.519 165.134 268.5 165.048C268.498 165.042 268.497 165.035 268.495 165.029ZM266.455 167.463H265.664C265.603 167.463 265.544 167.465 265.486 167.467C265.484 167.467 265.483 167.467 265.481 167.467C265.413 167.47 265.347 167.475 265.283 167.481C265.254 167.484 265.226 167.487 265.198 167.491C265.131 167.5 265.066 167.51 265.005 167.523C264.973 167.529 264.942 167.536 264.912 167.544C264.902 167.547 264.892 167.549 264.882 167.552C264.771 167.581 264.67 167.619 264.579 167.663C264.567 167.669 264.555 167.675 264.543 167.681C264.51 167.699 264.478 167.718 264.447 167.738C264.319 167.82 264.217 167.922 264.141 168.041C264.119 168.075 264.099 168.111 264.082 168.147C264.069 168.174 264.057 168.202 264.046 168.231C264.009 168.33 263.984 168.438 263.973 168.556C263.973 168.558 263.972 168.56 263.972 168.562L263.965 168.687C263.965 168.734 263.968 168.781 263.974 168.826C263.975 168.831 263.975 168.835 263.976 168.84C263.982 168.879 263.99 168.916 264.001 168.952C264.002 168.956 264.003 168.96 264.004 168.964C264.033 169.06 264.079 169.148 264.141 169.227C264.171 169.266 264.205 169.303 264.243 169.338C264.329 169.417 264.429 169.478 264.543 169.52C264.545 169.521 264.547 169.522 264.549 169.522C264.561 169.527 264.572 169.531 264.584 169.534C264.617 169.545 264.652 169.554 264.687 169.562C264.693 169.564 264.699 169.565 264.705 169.566C264.797 169.585 264.897 169.595 265.005 169.595C265.17 169.595 265.329 169.576 265.481 169.537C265.486 169.536 265.49 169.535 265.495 169.534C265.508 169.53 265.522 169.526 265.536 169.522C265.555 169.517 265.575 169.511 265.594 169.505C265.617 169.497 265.641 169.489 265.664 169.48C265.669 169.479 265.674 169.477 265.679 169.475C265.743 169.45 265.807 169.422 265.869 169.39C265.882 169.383 265.894 169.376 265.906 169.369C265.97 169.333 266.029 169.294 266.085 169.252C266.092 169.247 266.099 169.241 266.106 169.236C266.147 169.204 266.186 169.17 266.222 169.134C266.314 169.044 266.39 168.944 266.451 168.833C266.453 168.83 266.454 168.828 266.455 168.826V167.463ZM276.956 159.142H280.702L280.874 158.958C280.577 158.681 280.229 158.474 279.867 158.345C279.515 158.22 279.213 158.19 279.009 158.19C278.805 158.19 278.498 158.219 278.139 158.348C277.781 158.477 277.435 158.682 277.137 158.958C277.131 158.963 277.126 158.968 277.12 158.973C277.115 158.979 277.109 158.984 277.104 158.989C277.065 159.026 277.027 159.065 276.99 159.105C276.985 159.11 276.981 159.115 276.977 159.119C276.97 159.127 276.963 159.135 276.956 159.142ZM278.145 161.882C278.063 161.805 277.997 161.719 277.947 161.624C277.864 161.469 277.822 161.292 277.822 161.091C277.822 160.892 277.864 160.714 277.947 160.559C277.996 160.468 278.059 160.384 278.137 160.308C278.177 160.27 278.219 160.235 278.264 160.204C278.271 160.199 278.279 160.195 278.286 160.19C278.48 160.063 278.721 160 279.009 160C279.292 160 279.531 160.063 279.724 160.19C279.732 160.194 279.739 160.199 279.746 160.204C279.791 160.235 279.833 160.27 279.873 160.308C279.953 160.384 280.018 160.468 280.068 160.56C280.069 160.562 280.07 160.563 280.071 160.565C280.1 160.619 280.124 160.676 280.143 160.737C280.144 160.74 280.145 160.743 280.146 160.746C280.179 160.853 280.195 160.968 280.195 161.091C280.195 161.289 280.154 161.465 280.071 161.619C280.019 161.716 279.95 161.803 279.866 161.882C279.833 161.914 279.798 161.943 279.761 161.97C279.754 161.975 279.746 161.981 279.739 161.986C279.543 162.122 279.299 162.19 279.009 162.19C278.872 162.19 278.745 162.175 278.628 162.144C278.497 162.11 278.378 162.057 278.272 161.985C278.227 161.954 278.185 161.92 278.145 161.882ZM281.947 164.382C281.916 164.436 281.887 164.491 281.861 164.547C281.746 164.798 281.682 165.069 281.67 165.361C281.668 165.395 281.667 165.429 281.667 165.464C281.667 165.475 281.668 165.485 281.668 165.496C281.673 165.862 281.766 166.19 281.947 166.481C281.974 166.524 282.002 166.566 282.033 166.607C282.144 166.757 282.281 166.897 282.443 167.025C282.496 167.068 282.553 167.109 282.612 167.149C282.745 167.239 282.893 167.323 283.054 167.401C283.059 167.404 283.065 167.407 283.07 167.409C283.078 167.413 283.087 167.417 283.095 167.421C283.101 167.424 283.108 167.427 283.114 167.43C283.213 167.476 283.317 167.519 283.425 167.561C283.624 167.637 283.839 167.705 284.071 167.766C284.186 167.797 284.306 167.825 284.429 167.852C284.442 167.855 284.454 167.858 284.467 167.86C284.476 167.862 284.485 167.864 284.495 167.866C284.535 167.874 284.574 167.883 284.612 167.891C284.616 167.892 284.62 167.893 284.624 167.894C284.63 167.895 284.637 167.897 284.643 167.898C284.652 167.9 284.66 167.902 284.668 167.904C284.722 167.916 284.774 167.928 284.824 167.941C284.825 167.941 284.827 167.941 284.828 167.942C284.832 167.943 284.835 167.943 284.839 167.944C284.84 167.945 284.841 167.945 284.842 167.945C284.856 167.949 284.869 167.952 284.883 167.955C284.907 167.962 284.931 167.968 284.955 167.974C285.106 168.015 285.241 168.057 285.36 168.101C285.415 168.121 285.466 168.142 285.514 168.162C285.523 168.166 285.532 168.17 285.541 168.175C285.61 168.205 285.671 168.237 285.725 168.269C285.742 168.278 285.758 168.288 285.773 168.298C285.807 168.32 285.839 168.342 285.868 168.366C285.868 168.367 285.869 168.367 285.87 168.368C285.889 168.384 285.908 168.401 285.925 168.418C285.968 168.461 286.004 168.508 286.033 168.558C286.073 168.629 286.098 168.706 286.108 168.789C286.112 168.818 286.113 168.847 286.113 168.877C286.113 168.907 286.112 168.937 286.109 168.966C286.108 168.971 286.107 168.976 286.107 168.981C286.096 169.066 286.071 169.146 286.033 169.219C285.98 169.319 285.902 169.408 285.798 169.485C285.765 169.509 285.73 169.531 285.692 169.552C285.607 169.597 285.51 169.633 285.399 169.659C285.397 169.66 285.395 169.66 285.393 169.661C285.252 169.693 285.09 169.71 284.908 169.712C284.9 169.712 284.891 169.712 284.883 169.712C284.877 169.712 284.871 169.712 284.865 169.712C284.856 169.712 284.848 169.712 284.839 169.712C284.721 169.71 284.609 169.7 284.504 169.683C284.494 169.681 284.484 169.68 284.474 169.678C284.452 169.674 284.43 169.67 284.408 169.665C284.312 169.644 284.223 169.616 284.14 169.582C284.138 169.581 284.137 169.581 284.135 169.58C284.113 169.571 284.092 169.562 284.071 169.552C284.071 169.552 284.072 169.552 284.071 169.552C283.989 169.512 283.912 169.465 283.843 169.412C283.818 169.392 283.794 169.372 283.771 169.351C283.766 169.347 283.761 169.342 283.757 169.338C283.626 169.212 283.533 169.059 283.479 168.877C283.469 168.84 283.459 168.802 283.451 168.763C283.451 168.759 283.45 168.755 283.449 168.751C283.437 168.686 283.429 168.618 283.425 168.547H281.418C281.418 168.582 281.419 168.617 281.421 168.651C281.426 168.771 281.441 168.889 281.465 169.005C281.529 169.313 281.66 169.608 281.858 169.888C281.886 169.928 281.916 169.967 281.947 170.005C282.125 170.229 282.34 170.425 282.589 170.593C282.663 170.643 282.739 170.69 282.819 170.735C282.898 170.78 282.981 170.822 283.066 170.862C283.182 170.914 283.302 170.961 283.425 171.002C283.497 171.025 283.57 171.047 283.644 171.067C283.7 171.082 283.757 171.095 283.814 171.108C283.817 171.109 283.82 171.109 283.823 171.11C283.885 171.123 283.947 171.135 284.01 171.146C284.03 171.15 284.05 171.153 284.071 171.156C284.077 171.157 284.083 171.158 284.089 171.159C284.328 171.195 284.578 171.213 284.839 171.213C284.854 171.213 284.868 171.213 284.883 171.213C285.619 171.208 286.252 171.077 286.783 170.819C286.785 170.818 286.787 170.817 286.789 170.816C286.949 170.738 287.1 170.648 287.241 170.547C287.626 170.268 287.892 169.936 288.038 169.552C288.091 169.412 288.128 169.266 288.149 169.113C288.16 169.036 288.167 168.957 288.17 168.877C288.171 168.848 288.171 168.819 288.171 168.789C288.171 168.673 288.164 168.562 288.149 168.454C288.075 167.905 287.81 167.458 287.356 167.113C287.317 167.083 287.277 167.054 287.235 167.026C287.114 166.945 286.981 166.87 286.837 166.801C286.777 166.773 286.714 166.745 286.65 166.718C286.637 166.713 286.624 166.708 286.612 166.703C286.573 166.687 286.534 166.672 286.494 166.658C286.366 166.611 286.227 166.566 286.078 166.523C286.063 166.518 286.048 166.514 286.033 166.51C285.846 166.457 285.643 166.407 285.424 166.36C285.386 166.352 285.347 166.344 285.308 166.335C285.273 166.328 285.237 166.321 285.201 166.314C285.196 166.313 285.192 166.312 285.187 166.311C285.178 166.309 285.17 166.308 285.161 166.306C285.063 166.286 284.97 166.266 284.883 166.244C284.867 166.241 284.852 166.237 284.837 166.233C284.836 166.233 284.834 166.233 284.833 166.232C284.832 166.232 284.832 166.232 284.832 166.232C284.829 166.231 284.827 166.231 284.824 166.23C284.709 166.201 284.603 166.171 284.506 166.14C284.504 166.139 284.503 166.138 284.501 166.138C284.477 166.13 284.453 166.122 284.43 166.114C284.422 166.111 284.414 166.108 284.406 166.106C284.343 166.083 284.285 166.06 284.231 166.036C284.172 166.01 284.118 165.983 284.071 165.955C284.058 165.948 284.045 165.94 284.033 165.933C284.028 165.929 284.023 165.925 284.017 165.922C283.87 165.819 283.774 165.696 283.731 165.552C283.722 165.523 283.716 165.494 283.711 165.464C283.706 165.431 283.704 165.396 283.704 165.361C283.704 165.296 283.71 165.234 283.724 165.175C283.724 165.174 283.724 165.173 283.724 165.172C283.762 165.007 283.853 164.864 283.997 164.746C284.02 164.727 284.045 164.708 284.071 164.691C284.169 164.626 284.284 164.578 284.416 164.547C284.538 164.519 284.674 164.504 284.824 164.504C284.827 164.504 284.829 164.504 284.832 164.504C284.866 164.505 284.899 164.505 284.932 164.507C284.949 164.508 284.966 164.508 284.982 164.51C285.053 164.514 285.12 164.523 285.184 164.534C285.187 164.535 285.19 164.535 285.193 164.536C285.212 164.539 285.23 164.543 285.248 164.547C285.332 164.567 285.41 164.592 285.48 164.624C285.482 164.626 285.485 164.627 285.487 164.628C285.492 164.63 285.497 164.633 285.502 164.635C285.594 164.68 285.673 164.736 285.74 164.805C285.872 164.937 285.96 165.095 286.003 165.277C286.003 165.28 286.004 165.283 286.005 165.287C286.01 165.311 286.015 165.336 286.019 165.361C286.028 165.422 286.033 165.486 286.033 165.552H288.149C288.149 165.375 288.133 165.205 288.1 165.044C288.013 164.619 287.811 164.248 287.495 163.93C287.493 163.929 287.492 163.928 287.491 163.926C287.427 163.862 287.358 163.8 287.284 163.74C287.27 163.729 287.256 163.717 287.241 163.706C287.172 163.651 287.1 163.6 287.025 163.551C287.018 163.547 287.012 163.543 287.006 163.539C286.72 163.357 286.396 163.221 286.033 163.131C285.995 163.122 285.957 163.113 285.919 163.104C285.889 163.098 285.859 163.091 285.828 163.086C285.825 163.085 285.821 163.084 285.818 163.083C285.808 163.082 285.798 163.08 285.789 163.078C285.493 163.023 285.174 162.996 284.832 162.996C284.829 162.996 284.827 162.996 284.824 162.996C284.559 162.996 284.308 163.015 284.071 163.053C283.974 163.069 283.88 163.087 283.789 163.109C283.745 163.119 283.701 163.13 283.658 163.142C283.392 163.215 283.147 163.316 282.923 163.444C282.787 163.522 282.659 163.609 282.539 163.706C282.353 163.856 282.197 164.018 282.07 164.192C282.063 164.202 282.056 164.212 282.049 164.222C282.012 164.274 281.978 164.328 281.947 164.382ZM281.055 159.142H280.76L280.906 158.989C280.945 159.026 280.984 159.065 281.021 159.105C281.033 159.117 281.044 159.13 281.055 159.142ZM242.285 167.463H241.494C241.433 167.463 241.374 167.465 241.316 167.467C241.314 167.467 241.313 167.467 241.311 167.467C241.243 167.47 241.177 167.475 241.113 167.481C241.084 167.484 241.056 167.487 241.028 167.491C240.961 167.5 240.897 167.51 240.835 167.523C240.803 167.529 240.772 167.536 240.742 167.544C240.732 167.547 240.722 167.549 240.712 167.552C240.601 167.581 240.5 167.619 240.409 167.663C240.397 167.669 240.385 167.675 240.374 167.681C240.369 167.684 240.364 167.686 240.36 167.689C240.331 167.704 240.303 167.721 240.277 167.738C240.15 167.82 240.048 167.922 239.971 168.041C239.949 168.075 239.929 168.111 239.912 168.147C239.899 168.174 239.887 168.202 239.876 168.231C239.839 168.33 239.814 168.438 239.803 168.556C239.803 168.558 239.802 168.56 239.802 168.562L239.795 168.687C239.795 168.734 239.798 168.781 239.804 168.826C239.805 168.831 239.805 168.835 239.806 168.84C239.812 168.879 239.82 168.916 239.831 168.952C239.832 168.956 239.833 168.96 239.834 168.964C239.863 169.06 239.909 169.148 239.971 169.227C240.001 169.266 240.035 169.303 240.073 169.338C240.155 169.414 240.251 169.473 240.36 169.515C240.364 169.517 240.369 169.519 240.374 169.52C240.376 169.521 240.377 169.522 240.379 169.522C240.391 169.527 240.402 169.531 240.414 169.534C240.447 169.545 240.482 169.554 240.517 169.562C240.523 169.564 240.529 169.565 240.535 169.566C240.627 169.585 240.727 169.595 240.835 169.595C241.001 169.595 241.159 169.576 241.311 169.537C241.316 169.536 241.32 169.535 241.325 169.534C241.338 169.53 241.352 169.526 241.366 169.522C241.385 169.517 241.405 169.511 241.424 169.505C241.448 169.497 241.471 169.489 241.494 169.48C241.499 169.479 241.504 169.477 241.509 169.475C241.574 169.45 241.637 169.422 241.699 169.39C241.777 169.348 241.849 169.302 241.915 169.252C241.922 169.247 241.929 169.241 241.936 169.236C242.014 169.174 242.084 169.107 242.145 169.033C242.197 168.971 242.242 168.904 242.281 168.833C242.283 168.83 242.284 168.828 242.285 168.826V167.463Z" fill="white"/>
</svg>
