<svg width="706" height="456" viewBox="0 0 706 456" fill="none" xmlns="http://www.w3.org/2000/svg">
<rect x="1" y="35" width="336" height="177" rx="9" fill="#7187FB" stroke="#001EBB" stroke-width="2"/>
<g filter="url(#filter0_d)">
<rect x="20" y="54" width="50" height="50" rx="6" fill="#FFF000"/>
<rect x="21" y="55" width="48" height="48" rx="5" stroke="#001EBB" stroke-width="2"/>
</g>
<path d="M47.126 85.5H44.999V75.2256L41.8613 76.2979V74.4961L46.8535 72.6592H47.126V85.5Z" fill="#001EBB"/>
<g filter="url(#filter1_d)">
<rect x="82" y="54" width="50" height="50" rx="6" fill="#FFF000"/>
<rect x="83" y="55" width="48" height="48" rx="5" stroke="#001EBB" stroke-width="2"/>
</g>
<path d="M111.947 85.5H103.343V84.0322L107.605 79.3828C108.221 78.6973 108.657 78.126 108.915 77.6689C109.179 77.2061 109.311 76.7432 109.311 76.2803C109.311 75.6709 109.138 75.1787 108.792 74.8037C108.452 74.4287 107.992 74.2412 107.412 74.2412C106.721 74.2412 106.185 74.4521 105.804 74.874C105.423 75.2959 105.232 75.873 105.232 76.6055H103.097C103.097 75.8262 103.272 75.126 103.624 74.5049C103.981 73.8779 104.488 73.3916 105.145 73.0459C105.807 72.7002 106.568 72.5273 107.43 72.5273C108.672 72.5273 109.65 72.8408 110.365 73.4678C111.086 74.0889 111.446 74.9502 111.446 76.0518C111.446 76.6904 111.265 77.3613 110.901 78.0645C110.544 78.7617 109.955 79.5557 109.135 80.4463L106.006 83.7949H111.947V85.5Z" fill="#001EBB"/>
<g filter="url(#filter2_d)">
<rect x="144" y="54" width="50" height="50" rx="6" fill="#FFF000"/>
<rect x="145" y="55" width="48" height="48" rx="5" stroke="#001EBB" stroke-width="2"/>
</g>
<path d="M167.812 78.126H169.113C169.77 78.1201 170.288 77.9502 170.669 77.6162C171.056 77.2822 171.249 76.7988 171.249 76.166C171.249 75.5566 171.088 75.085 170.766 74.751C170.449 74.4111 169.963 74.2412 169.307 74.2412C168.732 74.2412 168.261 74.4082 167.892 74.7422C167.522 75.0703 167.338 75.501 167.338 76.0342H165.202C165.202 75.3779 165.375 74.7803 165.721 74.2412C166.072 73.7021 166.559 73.2832 167.18 72.9844C167.807 72.6797 168.507 72.5273 169.28 72.5273C170.558 72.5273 171.56 72.8496 172.286 73.4941C173.019 74.1328 173.385 75.0234 173.385 76.166C173.385 76.7402 173.2 77.2822 172.831 77.792C172.468 78.2959 171.996 78.6768 171.416 78.9346C172.119 79.1748 172.652 79.5527 173.016 80.0684C173.385 80.584 173.569 81.1992 173.569 81.9141C173.569 83.0625 173.174 83.9766 172.383 84.6562C171.598 85.3359 170.563 85.6758 169.28 85.6758C168.05 85.6758 167.042 85.3477 166.257 84.6914C165.472 84.0352 165.079 83.1621 165.079 82.0723H167.215C167.215 82.6348 167.402 83.0918 167.777 83.4434C168.158 83.7949 168.668 83.9707 169.307 83.9707C169.969 83.9707 170.49 83.7949 170.871 83.4434C171.252 83.0918 171.442 82.582 171.442 81.9141C171.442 81.2402 171.243 80.7217 170.845 80.3584C170.446 79.9951 169.854 79.8135 169.069 79.8135H167.812V78.126Z" fill="#001EBB"/>
<g filter="url(#filter3_d)">
<rect x="206" y="54" width="50" height="50" rx="6" fill="#FFF000"/>
<rect x="207" y="55" width="48" height="48" rx="5" stroke="#001EBB" stroke-width="2"/>
</g>
<path d="M234.567 80.9385H236.158V82.6523H234.567V85.5H232.432V82.6523H226.903L226.842 81.3516L232.361 72.7031H234.567V80.9385ZM229.083 80.9385H232.432V75.5947L232.273 75.876L229.083 80.9385Z" fill="#001EBB"/>
<g filter="url(#filter4_d)">
<rect x="268" y="54" width="50" height="50" rx="6" fill="#FFF000"/>
<rect x="269" y="55" width="48" height="48" rx="5" stroke="#001EBB" stroke-width="2"/>
</g>
<path d="M289.914 79.1543L290.608 72.7031H297.481V74.5488H292.384L292.032 77.6074C292.624 77.2676 293.292 77.0977 294.036 77.0977C295.255 77.0977 296.201 77.4873 296.875 78.2666C297.555 79.0459 297.895 80.0947 297.895 81.4131C297.895 82.7139 297.52 83.751 296.77 84.5244C296.02 85.292 294.991 85.6758 293.685 85.6758C292.513 85.6758 291.54 85.3447 290.767 84.6826C289.999 84.0146 289.583 83.1357 289.519 82.0459H291.584C291.666 82.667 291.889 83.1445 292.252 83.4785C292.615 83.8066 293.09 83.9707 293.676 83.9707C294.332 83.9707 294.842 83.7363 295.205 83.2676C295.574 82.7988 295.759 82.1602 295.759 81.3516C295.759 80.5723 295.557 79.957 295.152 79.5059C294.748 79.0488 294.191 78.8203 293.482 78.8203C293.096 78.8203 292.768 78.873 292.498 78.9785C292.229 79.0781 291.936 79.2773 291.619 79.5762L289.914 79.1543Z" fill="#001EBB"/>
<rect x="1" y="278" width="336" height="177" rx="9" fill="#7187FB" stroke="#001EBB" stroke-width="2"/>
<g filter="url(#filter5_d)">
<rect x="37" y="297" width="80" height="50" rx="6" fill="#FFF000"/>
<rect x="38" y="298" width="78" height="48" rx="5" stroke="#001EBB" stroke-width="2"/>
</g>
<path d="M79.126 328.5H76.999V318.226L73.8613 319.298V317.496L78.8535 315.659H79.126V328.5Z" fill="#001EBB"/>
<g filter="url(#filter6_d)">
<rect x="129" y="297" width="80" height="50" rx="6" fill="#FFF000"/>
<rect x="130" y="298" width="78" height="48" rx="5" stroke="#001EBB" stroke-width="2"/>
</g>
<path d="M173.947 328.5H165.343V327.032L169.605 322.383C170.221 321.697 170.657 321.126 170.915 320.669C171.179 320.206 171.311 319.743 171.311 319.28C171.311 318.671 171.138 318.179 170.792 317.804C170.452 317.429 169.992 317.241 169.412 317.241C168.721 317.241 168.185 317.452 167.804 317.874C167.423 318.296 167.232 318.873 167.232 319.605H165.097C165.097 318.826 165.272 318.126 165.624 317.505C165.981 316.878 166.488 316.392 167.145 316.046C167.807 315.7 168.568 315.527 169.43 315.527C170.672 315.527 171.65 315.841 172.365 316.468C173.086 317.089 173.446 317.95 173.446 319.052C173.446 319.69 173.265 320.361 172.901 321.064C172.544 321.762 171.955 322.556 171.135 323.446L168.006 326.795H173.947V328.5Z" fill="#001EBB"/>
<g filter="url(#filter7_d)">
<rect x="221" y="297" width="80" height="50" rx="6" fill="#FFF000"/>
<rect x="222" y="298" width="78" height="48" rx="5" stroke="#001EBB" stroke-width="2"/>
</g>
<path d="M259.812 321.126H261.113C261.77 321.12 262.288 320.95 262.669 320.616C263.056 320.282 263.249 319.799 263.249 319.166C263.249 318.557 263.088 318.085 262.766 317.751C262.449 317.411 261.963 317.241 261.307 317.241C260.732 317.241 260.261 317.408 259.892 317.742C259.522 318.07 259.338 318.501 259.338 319.034H257.202C257.202 318.378 257.375 317.78 257.721 317.241C258.072 316.702 258.559 316.283 259.18 315.984C259.807 315.68 260.507 315.527 261.28 315.527C262.558 315.527 263.56 315.85 264.286 316.494C265.019 317.133 265.385 318.023 265.385 319.166C265.385 319.74 265.2 320.282 264.831 320.792C264.468 321.296 263.996 321.677 263.416 321.935C264.119 322.175 264.652 322.553 265.016 323.068C265.385 323.584 265.569 324.199 265.569 324.914C265.569 326.062 265.174 326.977 264.383 327.656C263.598 328.336 262.563 328.676 261.28 328.676C260.05 328.676 259.042 328.348 258.257 327.691C257.472 327.035 257.079 326.162 257.079 325.072H259.215C259.215 325.635 259.402 326.092 259.777 326.443C260.158 326.795 260.668 326.971 261.307 326.971C261.969 326.971 262.49 326.795 262.871 326.443C263.252 326.092 263.442 325.582 263.442 324.914C263.442 324.24 263.243 323.722 262.845 323.358C262.446 322.995 261.854 322.813 261.069 322.813H259.812V321.126Z" fill="#001EBB"/>
<g filter="url(#filter8_d)">
<rect x="37" y="387" width="80" height="50" rx="6" fill="#FFF000"/>
<rect x="38" y="388" width="78" height="48" rx="5" stroke="#001EBB" stroke-width="2"/>
</g>
<path d="M80.5674 413.938H82.1582V415.652H80.5674V418.5H78.4316V415.652H72.9033L72.8418 414.352L78.3613 405.703H80.5674V413.938ZM75.083 413.938H78.4316V408.595L78.2734 408.876L75.083 413.938Z" fill="#001EBB"/>
<g filter="url(#filter9_d)">
<rect x="129" y="387" width="80" height="50" rx="6" fill="#FFF000"/>
<rect x="130" y="388" width="78" height="48" rx="5" stroke="#001EBB" stroke-width="2"/>
</g>
<path d="M165.914 412.154L166.608 405.703H173.481V407.549H168.384L168.032 410.607C168.624 410.268 169.292 410.098 170.036 410.098C171.255 410.098 172.201 410.487 172.875 411.267C173.555 412.046 173.895 413.095 173.895 414.413C173.895 415.714 173.52 416.751 172.77 417.524C172.02 418.292 170.991 418.676 169.685 418.676C168.513 418.676 167.54 418.345 166.767 417.683C165.999 417.015 165.583 416.136 165.519 415.046H167.584C167.666 415.667 167.889 416.145 168.252 416.479C168.615 416.807 169.09 416.971 169.676 416.971C170.332 416.971 170.842 416.736 171.205 416.268C171.574 415.799 171.759 415.16 171.759 414.352C171.759 413.572 171.557 412.957 171.152 412.506C170.748 412.049 170.191 411.82 169.482 411.82C169.096 411.82 168.768 411.873 168.498 411.979C168.229 412.078 167.936 412.277 167.619 412.576L165.914 412.154Z" fill="#001EBB"/>
<path d="M304.458 321C303.906 321 303.458 321.448 303.458 322C303.458 322.552 303.906 323 304.458 323V321ZM34.2458 412.707C34.6364 412.317 34.6364 411.683 34.2458 411.293L27.8819 404.929C27.4913 404.538 26.8582 404.538 26.4677 404.929C26.0771 405.319 26.0771 405.953 26.4677 406.343L32.1245 412L26.4677 417.657C26.0771 418.047 26.0771 418.681 26.4677 419.071C26.8582 419.462 27.4913 419.462 27.8819 419.071L34.2458 412.707ZM32.7438 411C32.1915 411 31.7438 411.448 31.7438 412C31.7438 412.552 32.1915 413 32.7438 413V411ZM29.5643 413C30.1165 413 30.5643 412.552 30.5643 412C30.5643 411.448 30.1165 411 29.5643 411V413ZM27.9745 411C27.4222 411 26.9745 411.448 26.9745 412C26.9745 412.552 27.4222 413 27.9745 413V411ZM24.7949 413C25.3472 413 25.7949 412.552 25.7949 412C25.7949 411.448 25.3472 411 24.7949 411V413ZM23.2226 410.899C22.689 410.756 22.1409 411.073 21.9983 411.606C21.8556 412.14 22.1726 412.688 22.7061 412.831L23.2226 410.899ZM19.1693 409.294C19.3119 409.827 19.8601 410.144 20.3936 410.002C20.9272 409.859 21.2441 409.311 21.1015 408.777L19.1693 409.294ZM21 406.92C21 406.368 20.5523 405.92 20 405.92C19.4477 405.92 19 406.368 19 406.92H21ZM19 402.6C19 403.153 19.4477 403.6 20 403.6C20.5523 403.6 21 403.153 21 402.6H19ZM21 400.441C21 399.888 20.5523 399.441 20 399.441C19.4477 399.441 19 399.888 19 400.441H21ZM19 396.121C19 396.673 19.4477 397.121 20 397.121C20.5523 397.121 21 396.673 21 396.121H19ZM21 393.961C21 393.409 20.5523 392.961 20 392.961C19.4477 392.961 19 393.409 19 393.961H21ZM19 389.641C19 390.194 19.4477 390.641 20 390.641C20.5523 390.641 21 390.194 21 389.641H19ZM21 387.481C21 386.929 20.5523 386.481 20 386.481C19.4477 386.481 19 386.929 19 387.481H21ZM19 383.162C19 383.714 19.4477 384.162 20 384.162C20.5523 384.162 21 383.714 21 383.162H19ZM21 381.002C21 380.45 20.5523 380.002 20 380.002C19.4477 380.002 19 380.45 19 381.002H21ZM19 376.682C19 377.234 19.4477 377.682 20 377.682C20.5523 377.682 21 377.234 21 376.682H19ZM21.1015 374.825C21.2441 374.291 20.9272 373.743 20.3936 373.601C19.8601 373.458 19.3119 373.775 19.1693 374.308L21.1015 374.825ZM22.7061 370.772C22.1726 370.914 21.8557 371.462 21.9983 371.996C22.1409 372.529 22.689 372.846 23.2226 372.704L22.7061 370.772ZM25.007 372.602C25.5592 372.602 26.007 372.155 26.007 371.602C26.007 371.05 25.5592 370.602 25.007 370.602V372.602ZM29.0347 370.602C28.4824 370.602 28.0347 371.05 28.0347 371.602C28.0347 372.155 28.4824 372.602 29.0347 372.602V370.602ZM31.0486 372.602C31.6009 372.602 32.0486 372.155 32.0486 371.602C32.0486 371.05 31.6009 370.602 31.0486 370.602V372.602ZM35.0764 370.602C34.5241 370.602 34.0764 371.05 34.0764 371.602C34.0764 372.155 34.5241 372.602 35.0764 372.602V370.602ZM37.0903 372.602C37.6426 372.602 38.0903 372.155 38.0903 371.602C38.0903 371.05 37.6426 370.602 37.0903 370.602V372.602ZM41.1181 370.602C40.5658 370.602 40.1181 371.05 40.1181 371.602C40.1181 372.155 40.5658 372.602 41.1181 372.602V370.602ZM43.132 372.602C43.6842 372.602 44.132 372.155 44.132 371.602C44.132 371.05 43.6842 370.602 43.132 370.602V372.602ZM47.1597 370.602C46.6074 370.602 46.1597 371.05 46.1597 371.602C46.1597 372.155 46.6074 372.602 47.1597 372.602V370.602ZM49.1736 372.602C49.7259 372.602 50.1736 372.155 50.1736 371.602C50.1736 371.05 49.7259 370.602 49.1736 370.602V372.602ZM53.2014 370.602C52.6491 370.602 52.2014 371.05 52.2014 371.602C52.2014 372.155 52.6491 372.602 53.2014 372.602V370.602ZM55.2153 372.602C55.7676 372.602 56.2153 372.155 56.2153 371.602C56.2153 371.05 55.7676 370.602 55.2153 370.602V372.602ZM59.2431 370.602C58.6908 370.602 58.2431 371.05 58.2431 371.602C58.2431 372.155 58.6908 372.602 59.2431 372.602V370.602ZM61.2569 372.602C61.8092 372.602 62.2569 372.155 62.2569 371.602C62.2569 371.05 61.8092 370.602 61.2569 370.602V372.602ZM65.2847 370.602C64.7324 370.602 64.2847 371.05 64.2847 371.602C64.2847 372.155 64.7324 372.602 65.2847 372.602V370.602ZM67.2986 372.602C67.8509 372.602 68.2986 372.155 68.2986 371.602C68.2986 371.05 67.8509 370.602 67.2986 370.602V372.602ZM71.3264 370.602C70.7741 370.602 70.3264 371.05 70.3264 371.602C70.3264 372.155 70.7741 372.602 71.3264 372.602V370.602ZM73.3403 372.602C73.8926 372.602 74.3403 372.155 74.3403 371.602C74.3403 371.05 73.8926 370.602 73.3403 370.602V372.602ZM77.3681 370.602C76.8158 370.602 76.3681 371.05 76.3681 371.602C76.3681 372.155 76.8158 372.602 77.3681 372.602V370.602ZM79.382 372.602C79.9342 372.602 80.382 372.155 80.382 371.602C80.382 371.05 79.9342 370.602 79.382 370.602V372.602ZM83.4097 370.602C82.8574 370.602 82.4097 371.05 82.4097 371.602C82.4097 372.155 82.8574 372.602 83.4097 372.602V370.602ZM85.4236 372.602C85.9759 372.602 86.4236 372.155 86.4236 371.602C86.4236 371.05 85.9759 370.602 85.4236 370.602V372.602ZM89.4514 370.602C88.8991 370.602 88.4514 371.05 88.4514 371.602C88.4514 372.155 88.8991 372.602 89.4514 372.602V370.602ZM91.4653 372.602C92.0176 372.602 92.4653 372.155 92.4653 371.602C92.4653 371.05 92.0176 370.602 91.4653 370.602V372.602ZM95.4931 370.602C94.9408 370.602 94.4931 371.05 94.4931 371.602C94.4931 372.155 94.9408 372.602 95.4931 372.602V370.602ZM97.5069 372.602C98.0592 372.602 98.5069 372.155 98.5069 371.602C98.5069 371.05 98.0592 370.602 97.5069 370.602V372.602ZM101.535 370.602C100.982 370.602 100.535 371.05 100.535 371.602C100.535 372.155 100.982 372.602 101.535 372.602V370.602ZM103.549 372.602C104.101 372.602 104.549 372.155 104.549 371.602C104.549 371.05 104.101 370.602 103.549 370.602V372.602ZM107.576 370.602C107.024 370.602 106.576 371.05 106.576 371.602C106.576 372.155 107.024 372.602 107.576 372.602V370.602ZM109.59 372.602C110.143 372.602 110.59 372.155 110.59 371.602C110.59 371.05 110.143 370.602 109.59 370.602V372.602ZM113.618 370.602C113.066 370.602 112.618 371.05 112.618 371.602C112.618 372.155 113.066 372.602 113.618 372.602V370.602ZM115.632 372.602C116.184 372.602 116.632 372.155 116.632 371.602C116.632 371.05 116.184 370.602 115.632 370.602V372.602ZM119.66 370.602C119.107 370.602 118.66 371.05 118.66 371.602C118.66 372.155 119.107 372.602 119.66 372.602V370.602ZM121.674 372.602C122.226 372.602 122.674 372.155 122.674 371.602C122.674 371.05 122.226 370.602 121.674 370.602V372.602ZM125.701 370.602C125.149 370.602 124.701 371.05 124.701 371.602C124.701 372.155 125.149 372.602 125.701 372.602V370.602ZM127.715 372.602C128.268 372.602 128.715 372.155 128.715 371.602C128.715 371.05 128.268 370.602 127.715 370.602V372.602ZM131.743 370.602C131.191 370.602 130.743 371.05 130.743 371.602C130.743 372.155 131.191 372.602 131.743 372.602V370.602ZM133.757 372.602C134.309 372.602 134.757 372.155 134.757 371.602C134.757 371.05 134.309 370.602 133.757 370.602V372.602ZM137.785 370.602C137.232 370.602 136.785 371.05 136.785 371.602C136.785 372.155 137.232 372.602 137.785 372.602V370.602ZM139.799 372.602C140.351 372.602 140.799 372.155 140.799 371.602C140.799 371.05 140.351 370.602 139.799 370.602V372.602ZM143.826 370.602C143.274 370.602 142.826 371.05 142.826 371.602C142.826 372.155 143.274 372.602 143.826 372.602V370.602ZM145.84 372.602C146.393 372.602 146.84 372.155 146.84 371.602C146.84 371.05 146.393 370.602 145.84 370.602V372.602ZM149.868 370.602C149.316 370.602 148.868 371.05 148.868 371.602C148.868 372.155 149.316 372.602 149.868 372.602V370.602ZM151.882 372.602C152.434 372.602 152.882 372.155 152.882 371.602C152.882 371.05 152.434 370.602 151.882 370.602V372.602ZM155.91 370.602C155.357 370.602 154.91 371.05 154.91 371.602C154.91 372.155 155.357 372.602 155.91 372.602V370.602ZM157.924 372.602C158.476 372.602 158.924 372.155 158.924 371.602C158.924 371.05 158.476 370.602 157.924 370.602V372.602ZM161.951 370.602C161.399 370.602 160.951 371.05 160.951 371.602C160.951 372.155 161.399 372.602 161.951 372.602V370.602ZM163.965 372.602C164.518 372.602 164.965 372.155 164.965 371.602C164.965 371.05 164.518 370.602 163.965 370.602V372.602ZM167.993 370.602C167.441 370.602 166.993 371.05 166.993 371.602C166.993 372.155 167.441 372.602 167.993 372.602V370.602ZM170.007 372.602C170.559 372.602 171.007 372.155 171.007 371.602C171.007 371.05 170.559 370.602 170.007 370.602V372.602ZM174.035 370.602C173.482 370.602 173.035 371.05 173.035 371.602C173.035 372.155 173.482 372.602 174.035 372.602V370.602ZM176.049 372.602C176.601 372.602 177.049 372.155 177.049 371.602C177.049 371.05 176.601 370.602 176.049 370.602V372.602ZM180.076 370.602C179.524 370.602 179.076 371.05 179.076 371.602C179.076 372.155 179.524 372.602 180.076 372.602V370.602ZM182.09 372.602C182.642 372.602 183.09 372.155 183.09 371.602C183.09 371.05 182.642 370.602 182.09 370.602V372.602ZM186.118 370.602C185.566 370.602 185.118 371.05 185.118 371.602C185.118 372.155 185.566 372.602 186.118 372.602V370.602ZM188.132 372.602C188.684 372.602 189.132 372.155 189.132 371.602C189.132 371.05 188.684 370.602 188.132 370.602V372.602ZM192.16 370.602C191.607 370.602 191.16 371.05 191.16 371.602C191.16 372.155 191.607 372.602 192.16 372.602V370.602ZM194.174 372.602C194.726 372.602 195.174 372.155 195.174 371.602C195.174 371.05 194.726 370.602 194.174 370.602V372.602ZM198.201 370.602C197.649 370.602 197.201 371.05 197.201 371.602C197.201 372.155 197.649 372.602 198.201 372.602V370.602ZM200.215 372.602C200.767 372.602 201.215 372.155 201.215 371.602C201.215 371.05 200.767 370.602 200.215 370.602V372.602ZM204.243 370.602C203.691 370.602 203.243 371.05 203.243 371.602C203.243 372.155 203.691 372.602 204.243 372.602V370.602ZM206.257 372.602C206.809 372.602 207.257 372.155 207.257 371.602C207.257 371.05 206.809 370.602 206.257 370.602V372.602ZM210.285 370.602C209.732 370.602 209.285 371.05 209.285 371.602C209.285 372.155 209.732 372.602 210.285 372.602V370.602ZM212.298 372.602C212.851 372.602 213.298 372.155 213.298 371.602C213.298 371.05 212.851 370.602 212.298 370.602V372.602ZM216.326 370.602C215.774 370.602 215.326 371.05 215.326 371.602C215.326 372.155 215.774 372.602 216.326 372.602V370.602ZM218.34 372.602C218.892 372.602 219.34 372.155 219.34 371.602C219.34 371.05 218.892 370.602 218.34 370.602V372.602ZM222.368 370.602C221.816 370.602 221.368 371.05 221.368 371.602C221.368 372.155 221.816 372.602 222.368 372.602V370.602ZM224.382 372.602C224.934 372.602 225.382 372.155 225.382 371.602C225.382 371.05 224.934 370.602 224.382 370.602V372.602ZM228.41 370.602C227.857 370.602 227.41 371.05 227.41 371.602C227.41 372.155 227.857 372.602 228.41 372.602V370.602ZM230.423 372.602C230.976 372.602 231.423 372.155 231.423 371.602C231.423 371.05 230.976 370.602 230.423 370.602V372.602ZM234.451 370.602C233.899 370.602 233.451 371.05 233.451 371.602C233.451 372.155 233.899 372.602 234.451 372.602V370.602ZM236.465 372.602C237.017 372.602 237.465 372.155 237.465 371.602C237.465 371.05 237.017 370.602 236.465 370.602V372.602ZM240.493 370.602C239.941 370.602 239.493 371.05 239.493 371.602C239.493 372.155 239.941 372.602 240.493 372.602V370.602ZM242.507 372.602C243.059 372.602 243.507 372.155 243.507 371.602C243.507 371.05 243.059 370.602 242.507 370.602V372.602ZM246.535 370.602C245.982 370.602 245.535 371.05 245.535 371.602C245.535 372.155 245.982 372.602 246.535 372.602V370.602ZM248.548 372.602C249.101 372.602 249.548 372.155 249.548 371.602C249.548 371.05 249.101 370.602 248.548 370.602V372.602ZM252.576 370.602C252.024 370.602 251.576 371.05 251.576 371.602C251.576 372.155 252.024 372.602 252.576 372.602V370.602ZM254.59 372.602C255.142 372.602 255.59 372.155 255.59 371.602C255.59 371.05 255.142 370.602 254.59 370.602V372.602ZM258.618 370.602C258.066 370.602 257.618 371.05 257.618 371.602C257.618 372.155 258.066 372.602 258.618 372.602V370.602ZM260.632 372.602C261.184 372.602 261.632 372.155 261.632 371.602C261.632 371.05 261.184 370.602 260.632 370.602V372.602ZM264.66 370.602C264.107 370.602 263.66 371.05 263.66 371.602C263.66 372.155 264.107 372.602 264.66 372.602V370.602ZM266.673 372.602C267.226 372.602 267.673 372.155 267.673 371.602C267.673 371.05 267.226 370.602 266.673 370.602V372.602ZM270.701 370.602C270.149 370.602 269.701 371.05 269.701 371.602C269.701 372.155 270.149 372.602 270.701 372.602V370.602ZM272.715 372.602C273.267 372.602 273.715 372.155 273.715 371.602C273.715 371.05 273.267 370.602 272.715 370.602V372.602ZM276.743 370.602C276.191 370.602 275.743 371.05 275.743 371.602C275.743 372.155 276.191 372.602 276.743 372.602V370.602ZM278.757 372.602C279.309 372.602 279.757 372.155 279.757 371.602C279.757 371.05 279.309 370.602 278.757 370.602V372.602ZM282.784 370.602C282.232 370.602 281.784 371.05 281.784 371.602C281.784 372.155 282.232 372.602 282.784 372.602V370.602ZM284.798 372.602C285.351 372.602 285.798 372.155 285.798 371.602C285.798 371.05 285.351 370.602 284.798 370.602V372.602ZM288.826 370.602C288.274 370.602 287.826 371.05 287.826 371.602C287.826 372.155 288.274 372.602 288.826 372.602V370.602ZM290.84 372.602C291.392 372.602 291.84 372.155 291.84 371.602C291.84 371.05 291.392 370.602 290.84 370.602V372.602ZM294.868 370.602C294.316 370.602 293.868 371.05 293.868 371.602C293.868 372.155 294.316 372.602 294.868 372.602V370.602ZM296.882 372.602C297.434 372.602 297.882 372.155 297.882 371.602C297.882 371.05 297.434 370.602 296.882 370.602V372.602ZM300.909 370.602C300.357 370.602 299.909 371.05 299.909 371.602C299.909 372.155 300.357 372.602 300.909 372.602V370.602ZM302.923 372.602C303.476 372.602 303.923 372.155 303.923 371.602C303.923 371.05 303.476 370.602 302.923 370.602V372.602ZM306.951 370.602C306.399 370.602 305.951 371.05 305.951 371.602C305.951 372.155 306.399 372.602 306.951 372.602V370.602ZM308.965 372.602C309.517 372.602 309.965 372.155 309.965 371.602C309.965 371.05 309.517 370.602 308.965 370.602V372.602ZM312.993 370.602C312.44 370.602 311.993 371.05 311.993 371.602C311.993 372.155 312.44 372.602 312.993 372.602V370.602ZM315.294 372.433C315.827 372.29 316.144 371.742 316.002 371.209C315.859 370.675 315.311 370.358 314.777 370.501L315.294 372.433ZM316.899 368.38C316.756 368.913 317.073 369.461 317.606 369.604C318.14 369.747 318.688 369.43 318.831 368.896L316.899 368.38ZM319 366.612C319 366.059 318.552 365.612 318 365.612C317.448 365.612 317 366.059 317 366.612H319ZM317 362.65C317 363.202 317.448 363.65 318 363.65C318.552 363.65 319 363.202 319 362.65H317ZM319 360.669C319 360.116 318.552 359.669 318 359.669C317.448 359.669 317 360.116 317 360.669H319ZM317 356.706C317 357.259 317.448 357.706 318 357.706C318.552 357.706 319 357.259 319 356.706H317ZM319 354.725C319 354.173 318.552 353.725 318 353.725C317.448 353.725 317 354.173 317 354.725H319ZM317 350.763C317 351.316 317.448 351.763 318 351.763C318.552 351.763 319 351.316 319 350.763H317ZM319 348.782C319 348.23 318.552 347.782 318 347.782C317.448 347.782 317 348.23 317 348.782H319ZM317 344.82C317 345.372 317.448 345.82 318 345.82C318.552 345.82 319 345.372 319 344.82H317ZM319 342.839C319 342.287 318.552 341.839 318 341.839C317.448 341.839 317 342.287 317 342.839H319ZM317 338.877C317 339.429 317.448 339.877 318 339.877C318.552 339.877 319 339.429 319 338.877H317ZM319 336.896C319 336.344 318.552 335.896 318 335.896C317.448 335.896 317 336.344 317 336.896H319ZM317 332.934C317 333.486 317.448 333.934 318 333.934C318.552 333.934 319 333.486 319 332.934H317ZM319 330.953C319 330.4 318.552 329.953 318 329.953C317.448 329.953 317 330.4 317 330.953H319ZM317 326.991C317 327.543 317.448 327.991 318 327.991C318.552 327.991 319 327.543 319 326.991H317ZM318.831 324.706C318.688 324.173 318.14 323.856 317.606 323.998C317.073 324.141 316.756 324.689 316.899 325.223L318.831 324.706ZM314.777 323.101C315.311 323.244 315.859 322.927 316.002 322.394C316.144 321.86 315.827 321.312 315.294 321.169L314.777 323.101ZM313.205 321C312.653 321 312.205 321.448 312.205 322C312.205 322.552 312.653 323 313.205 323V321ZM310.024 323C310.576 323 311.024 322.552 311.024 322C311.024 321.448 310.576 321 310.024 321V323ZM308.434 321C307.881 321 307.434 321.448 307.434 322C307.434 322.552 307.881 323 308.434 323V321ZM305.253 323C305.805 323 306.253 322.552 306.253 322C306.253 321.448 305.805 321 305.253 321V323ZM33.5387 411H32.7438V413H33.5387V411ZM29.5643 411H27.9745V413H29.5643V411ZM24.7949 411H24V413H24.7949V411ZM24 411C23.7298 411 23.4694 410.965 23.2226 410.899L22.7061 412.831C23.1199 412.941 23.5539 413 24 413V411ZM21.1015 408.777C21.0355 408.531 21 408.27 21 408H19C19 408.446 19.0587 408.88 19.1693 409.294L21.1015 408.777ZM21 408V406.92H19V408H21ZM21 402.6V400.441H19V402.6H21ZM21 396.121V393.961H19V396.121H21ZM21 389.641V387.481H19V389.641H21ZM21 383.162V381.002H19V383.162H21ZM21 376.682V375.602H19V376.682H21ZM21 375.602C21 375.332 21.0355 375.072 21.1015 374.825L19.1693 374.308C19.0587 374.722 19 375.156 19 375.602H21ZM23.2226 372.704C23.4694 372.638 23.7298 372.602 24 372.602V370.602C23.5539 370.602 23.1199 370.661 22.7061 370.772L23.2226 372.704ZM24 372.602H25.007V370.602H24V372.602ZM29.0347 372.602H31.0486V370.602H29.0347V372.602ZM35.0764 372.602H37.0903V370.602H35.0764V372.602ZM41.1181 372.602H43.132V370.602H41.1181V372.602ZM47.1597 372.602H49.1736V370.602H47.1597V372.602ZM53.2014 372.602H55.2153V370.602H53.2014V372.602ZM59.2431 372.602H61.2569V370.602H59.2431V372.602ZM65.2847 372.602H67.2986V370.602H65.2847V372.602ZM71.3264 372.602H73.3403V370.602H71.3264V372.602ZM77.3681 372.602H79.382V370.602H77.3681V372.602ZM83.4097 372.602H85.4236V370.602H83.4097V372.602ZM89.4514 372.602H91.4653V370.602H89.4514V372.602ZM95.4931 372.602H97.5069V370.602H95.4931V372.602ZM101.535 372.602H103.549V370.602H101.535V372.602ZM107.576 372.602H109.59V370.602H107.576V372.602ZM113.618 372.602H115.632V370.602H113.618V372.602ZM119.66 372.602H121.674V370.602H119.66V372.602ZM125.701 372.602H127.715V370.602H125.701V372.602ZM131.743 372.602H133.757V370.602H131.743V372.602ZM137.785 372.602H139.799V370.602H137.785V372.602ZM143.826 372.602H145.84V370.602H143.826V372.602ZM149.868 372.602H151.882V370.602H149.868V372.602ZM155.91 372.602H157.924V370.602H155.91V372.602ZM161.951 372.602H163.965V370.602H161.951V372.602ZM167.993 372.602H170.007V370.602H167.993V372.602ZM174.035 372.602H176.049V370.602H174.035V372.602ZM180.076 372.602H182.09V370.602H180.076V372.602ZM186.118 372.602H188.132V370.602H186.118V372.602ZM192.16 372.602H194.174V370.602H192.16V372.602ZM198.201 372.602H200.215V370.602H198.201V372.602ZM204.243 372.602H206.257V370.602H204.243V372.602ZM210.285 372.602H212.298V370.602H210.285V372.602ZM216.326 372.602H218.34V370.602H216.326V372.602ZM222.368 372.602H224.382V370.602H222.368V372.602ZM228.41 372.602H230.423V370.602H228.41V372.602ZM234.451 372.602H236.465V370.602H234.451V372.602ZM240.493 372.602H242.507V370.602H240.493V372.602ZM246.535 372.602H248.548V370.602H246.535V372.602ZM252.576 372.602H254.59V370.602H252.576V372.602ZM258.618 372.602H260.632V370.602H258.618V372.602ZM264.66 372.602H266.673V370.602H264.66V372.602ZM270.701 372.602H272.715V370.602H270.701V372.602ZM276.743 372.602H278.757V370.602H276.743V372.602ZM282.784 372.602H284.798V370.602H282.784V372.602ZM288.826 372.602H290.84V370.602H288.826V372.602ZM294.868 372.602H296.882V370.602H294.868V372.602ZM300.909 372.602H302.923V370.602H300.909V372.602ZM306.951 372.602H308.965V370.602H306.951V372.602ZM312.993 372.602H314V370.602H312.993V372.602ZM314 372.602C314.446 372.602 314.88 372.544 315.294 372.433L314.777 370.501C314.531 370.567 314.27 370.602 314 370.602V372.602ZM318.831 368.896C318.941 368.482 319 368.048 319 367.602H317C317 367.872 316.965 368.133 316.899 368.38L318.831 368.896ZM319 367.602V366.612H317V367.602H319ZM319 362.65V360.669H317V362.65H319ZM319 356.706V354.725H317V356.706H319ZM319 350.763V348.782H317V350.763H319ZM319 344.82V342.839H317V344.82H319ZM319 338.877V336.896H317V338.877H319ZM319 332.934V330.953H317V332.934H319ZM319 326.991V326H317V326.991H319ZM319 326C319 325.554 318.941 325.12 318.831 324.706L316.899 325.223C316.965 325.469 317 325.73 317 326H319ZM315.294 321.169C314.88 321.059 314.446 321 314 321V323C314.27 323 314.531 323.035 314.777 323.101L315.294 321.169ZM314 321H313.205V323H314V321ZM310.024 321H308.434V323H310.024V321ZM305.253 321H304.458V323H305.253V321Z" fill="white"/>
<rect x="369" y="278" width="336" height="177" rx="9" fill="#7187FB" stroke="#001EBB" stroke-width="2"/>
<g filter="url(#filter10_d)">
<rect x="405" y="386" width="80" height="50" rx="6" fill="#FFF000"/>
<rect x="406" y="387" width="78" height="48" rx="5" stroke="#001EBB" stroke-width="2"/>
</g>
<path d="M447.126 417.5H444.999V407.226L441.861 408.298V406.496L446.854 404.659H447.126V417.5Z" fill="#001EBB"/>
<g filter="url(#filter11_d)">
<rect x="497" y="386" width="80" height="50" rx="6" fill="#FFF000"/>
<rect x="498" y="387" width="78" height="48" rx="5" stroke="#001EBB" stroke-width="2"/>
</g>
<path d="M541.947 417.5H533.343V416.032L537.605 411.383C538.221 410.697 538.657 410.126 538.915 409.669C539.179 409.206 539.311 408.743 539.311 408.28C539.311 407.671 539.138 407.179 538.792 406.804C538.452 406.429 537.992 406.241 537.412 406.241C536.721 406.241 536.185 406.452 535.804 406.874C535.423 407.296 535.232 407.873 535.232 408.605H533.097C533.097 407.826 533.272 407.126 533.624 406.505C533.981 405.878 534.488 405.392 535.145 405.046C535.807 404.7 536.568 404.527 537.43 404.527C538.672 404.527 539.65 404.841 540.365 405.468C541.086 406.089 541.446 406.95 541.446 408.052C541.446 408.69 541.265 409.361 540.901 410.064C540.544 410.762 539.955 411.556 539.135 412.446L536.006 415.795H541.947V417.5Z" fill="#001EBB"/>
<g filter="url(#filter12_d)">
<rect x="589" y="386" width="80" height="50" rx="6" fill="#FFF000"/>
<rect x="590" y="387" width="78" height="48" rx="5" stroke="#001EBB" stroke-width="2"/>
</g>
<path d="M627.812 410.126H629.113C629.77 410.12 630.288 409.95 630.669 409.616C631.056 409.282 631.249 408.799 631.249 408.166C631.249 407.557 631.088 407.085 630.766 406.751C630.449 406.411 629.963 406.241 629.307 406.241C628.732 406.241 628.261 406.408 627.892 406.742C627.522 407.07 627.338 407.501 627.338 408.034H625.202C625.202 407.378 625.375 406.78 625.721 406.241C626.072 405.702 626.559 405.283 627.18 404.984C627.807 404.68 628.507 404.527 629.28 404.527C630.558 404.527 631.56 404.85 632.286 405.494C633.019 406.133 633.385 407.023 633.385 408.166C633.385 408.74 633.2 409.282 632.831 409.792C632.468 410.296 631.996 410.677 631.416 410.935C632.119 411.175 632.652 411.553 633.016 412.068C633.385 412.584 633.569 413.199 633.569 413.914C633.569 415.062 633.174 415.977 632.383 416.656C631.598 417.336 630.563 417.676 629.28 417.676C628.05 417.676 627.042 417.348 626.257 416.691C625.472 416.035 625.079 415.162 625.079 414.072H627.215C627.215 414.635 627.402 415.092 627.777 415.443C628.158 415.795 628.668 415.971 629.307 415.971C629.969 415.971 630.49 415.795 630.871 415.443C631.252 415.092 631.442 414.582 631.442 413.914C631.442 413.24 631.243 412.722 630.845 412.358C630.446 411.995 629.854 411.813 629.069 411.813H627.812V410.126Z" fill="#001EBB"/>
<g filter="url(#filter13_d)">
<rect x="405" y="297" width="80" height="50" rx="6" fill="#FFF000"/>
<rect x="406" y="298" width="78" height="48" rx="5" stroke="#001EBB" stroke-width="2"/>
</g>
<path d="M448.567 323.938H450.158V325.652H448.567V328.5H446.432V325.652H440.903L440.842 324.352L446.361 315.703H448.567V323.938ZM443.083 323.938H446.432V318.595L446.273 318.876L443.083 323.938Z" fill="#001EBB"/>
<g filter="url(#filter14_d)">
<rect x="497" y="297" width="80" height="50" rx="6" fill="#FFF000"/>
<rect x="498" y="298" width="78" height="48" rx="5" stroke="#001EBB" stroke-width="2"/>
</g>
<path d="M533.914 322.154L534.608 315.703H541.481V317.549H536.384L536.032 320.607C536.624 320.268 537.292 320.098 538.036 320.098C539.255 320.098 540.201 320.487 540.875 321.267C541.555 322.046 541.895 323.095 541.895 324.413C541.895 325.714 541.52 326.751 540.77 327.524C540.02 328.292 538.991 328.676 537.685 328.676C536.513 328.676 535.54 328.345 534.767 327.683C533.999 327.015 533.583 326.136 533.519 325.046H535.584C535.666 325.667 535.889 326.145 536.252 326.479C536.615 326.807 537.09 326.971 537.676 326.971C538.332 326.971 538.842 326.736 539.205 326.268C539.574 325.799 539.759 325.16 539.759 324.352C539.759 323.572 539.557 322.957 539.152 322.506C538.748 322.049 538.191 321.82 537.482 321.82C537.096 321.82 536.768 321.873 536.498 321.979C536.229 322.078 535.936 322.277 535.619 322.576L533.914 322.154Z" fill="#001EBB"/>
<path d="M672.458 413C671.906 413 671.458 412.552 671.458 412C671.458 411.448 671.906 411 672.458 411V413ZM402.246 321.293C402.636 321.683 402.636 322.317 402.246 322.707L395.882 329.071C395.491 329.462 394.858 329.462 394.468 329.071C394.077 328.681 394.077 328.047 394.468 327.657L400.125 322L394.468 316.343C394.077 315.953 394.077 315.319 394.468 314.929C394.858 314.538 395.491 314.538 395.882 314.929L402.246 321.293ZM400.744 323C400.192 323 399.744 322.552 399.744 322C399.744 321.448 400.192 321 400.744 321V323ZM397.564 321C398.117 321 398.564 321.448 398.564 322C398.564 322.552 398.117 323 397.564 323V321ZM395.974 323C395.422 323 394.974 322.552 394.974 322C394.974 321.448 395.422 321 395.974 321V323ZM392.795 321C393.347 321 393.795 321.448 393.795 322C393.795 322.552 393.347 323 392.795 323V321ZM391.223 323.101C390.689 323.244 390.141 322.927 389.998 322.394C389.856 321.86 390.173 321.312 390.706 321.169L391.223 323.101ZM387.169 324.706C387.312 324.173 387.86 323.856 388.394 323.998C388.927 324.141 389.244 324.689 389.101 325.223L387.169 324.706ZM389 327.08C389 327.632 388.552 328.08 388 328.08C387.448 328.08 387 327.632 387 327.08H389ZM387 331.4C387 330.847 387.448 330.4 388 330.4C388.552 330.4 389 330.847 389 331.4H387ZM389 333.559C389 334.112 388.552 334.559 388 334.559C387.448 334.559 387 334.112 387 333.559H389ZM387 337.879C387 337.327 387.448 336.879 388 336.879C388.552 336.879 389 337.327 389 337.879H387ZM389 340.039C389 340.591 388.552 341.039 388 341.039C387.448 341.039 387 340.591 387 340.039H389ZM387 344.359C387 343.806 387.448 343.359 388 343.359C388.552 343.359 389 343.806 389 344.359H387ZM389 346.519C389 347.071 388.552 347.519 388 347.519C387.448 347.519 387 347.071 387 346.519H389ZM387 350.838C387 350.286 387.448 349.838 388 349.838C388.552 349.838 389 350.286 389 350.838H387ZM389 352.998C389 353.55 388.552 353.998 388 353.998C387.448 353.998 387 353.55 387 352.998H389ZM387 357.318C387 356.766 387.448 356.318 388 356.318C388.552 356.318 389 356.766 389 357.318H387ZM389.101 359.175C389.244 359.709 388.927 360.257 388.394 360.399C387.86 360.542 387.312 360.225 387.169 359.692L389.101 359.175ZM390.706 363.228C390.173 363.086 389.856 362.538 389.998 362.004C390.141 361.471 390.689 361.154 391.223 361.296L390.706 363.228ZM393.007 361.398C393.559 361.398 394.007 361.845 394.007 362.398C394.007 362.95 393.559 363.398 393.007 363.398V361.398ZM397.035 363.398C396.482 363.398 396.035 362.95 396.035 362.398C396.035 361.845 396.482 361.398 397.035 361.398V363.398ZM399.049 361.398C399.601 361.398 400.049 361.845 400.049 362.398C400.049 362.95 399.601 363.398 399.049 363.398V361.398ZM403.076 363.398C402.524 363.398 402.076 362.95 402.076 362.398C402.076 361.845 402.524 361.398 403.076 361.398V363.398ZM405.09 361.398C405.643 361.398 406.09 361.845 406.09 362.398C406.09 362.95 405.643 363.398 405.09 363.398V361.398ZM409.118 363.398C408.566 363.398 408.118 362.95 408.118 362.398C408.118 361.845 408.566 361.398 409.118 361.398V363.398ZM411.132 361.398C411.684 361.398 412.132 361.845 412.132 362.398C412.132 362.95 411.684 363.398 411.132 363.398V361.398ZM415.16 363.398C414.607 363.398 414.16 362.95 414.16 362.398C414.16 361.845 414.607 361.398 415.16 361.398V363.398ZM417.174 361.398C417.726 361.398 418.174 361.845 418.174 362.398C418.174 362.95 417.726 363.398 417.174 363.398V361.398ZM421.201 363.398C420.649 363.398 420.201 362.95 420.201 362.398C420.201 361.845 420.649 361.398 421.201 361.398V363.398ZM423.215 361.398C423.768 361.398 424.215 361.845 424.215 362.398C424.215 362.95 423.768 363.398 423.215 363.398V361.398ZM427.243 363.398C426.691 363.398 426.243 362.95 426.243 362.398C426.243 361.845 426.691 361.398 427.243 361.398V363.398ZM429.257 361.398C429.809 361.398 430.257 361.845 430.257 362.398C430.257 362.95 429.809 363.398 429.257 363.398V361.398ZM433.285 363.398C432.732 363.398 432.285 362.95 432.285 362.398C432.285 361.845 432.732 361.398 433.285 361.398V363.398ZM435.299 361.398C435.851 361.398 436.299 361.845 436.299 362.398C436.299 362.95 435.851 363.398 435.299 363.398V361.398ZM439.326 363.398C438.774 363.398 438.326 362.95 438.326 362.398C438.326 361.845 438.774 361.398 439.326 361.398V363.398ZM441.34 361.398C441.893 361.398 442.34 361.845 442.34 362.398C442.34 362.95 441.893 363.398 441.34 363.398V361.398ZM445.368 363.398C444.816 363.398 444.368 362.95 444.368 362.398C444.368 361.845 444.816 361.398 445.368 361.398V363.398ZM447.382 361.398C447.934 361.398 448.382 361.845 448.382 362.398C448.382 362.95 447.934 363.398 447.382 363.398V361.398ZM451.41 363.398C450.857 363.398 450.41 362.95 450.41 362.398C450.41 361.845 450.857 361.398 451.41 361.398V363.398ZM453.424 361.398C453.976 361.398 454.424 361.845 454.424 362.398C454.424 362.95 453.976 363.398 453.424 363.398V361.398ZM457.451 363.398C456.899 363.398 456.451 362.95 456.451 362.398C456.451 361.845 456.899 361.398 457.451 361.398V363.398ZM459.465 361.398C460.018 361.398 460.465 361.845 460.465 362.398C460.465 362.95 460.018 363.398 459.465 363.398V361.398ZM463.493 363.398C462.941 363.398 462.493 362.95 462.493 362.398C462.493 361.845 462.941 361.398 463.493 361.398V363.398ZM465.507 361.398C466.059 361.398 466.507 361.845 466.507 362.398C466.507 362.95 466.059 363.398 465.507 363.398V361.398ZM469.535 363.398C468.982 363.398 468.535 362.95 468.535 362.398C468.535 361.845 468.982 361.398 469.535 361.398V363.398ZM471.549 361.398C472.101 361.398 472.549 361.845 472.549 362.398C472.549 362.95 472.101 363.398 471.549 363.398V361.398ZM475.576 363.398C475.024 363.398 474.576 362.95 474.576 362.398C474.576 361.845 475.024 361.398 475.576 361.398V363.398ZM477.59 361.398C478.143 361.398 478.59 361.845 478.59 362.398C478.59 362.95 478.143 363.398 477.59 363.398V361.398ZM481.618 363.398C481.066 363.398 480.618 362.95 480.618 362.398C480.618 361.845 481.066 361.398 481.618 361.398V363.398ZM483.632 361.398C484.184 361.398 484.632 361.845 484.632 362.398C484.632 362.95 484.184 363.398 483.632 363.398V361.398ZM487.66 363.398C487.107 363.398 486.66 362.95 486.66 362.398C486.66 361.845 487.107 361.398 487.66 361.398V363.398ZM489.674 361.398C490.226 361.398 490.674 361.845 490.674 362.398C490.674 362.95 490.226 363.398 489.674 363.398V361.398ZM493.701 363.398C493.149 363.398 492.701 362.95 492.701 362.398C492.701 361.845 493.149 361.398 493.701 361.398V363.398ZM495.715 361.398C496.268 361.398 496.715 361.845 496.715 362.398C496.715 362.95 496.268 363.398 495.715 363.398V361.398ZM499.743 363.398C499.191 363.398 498.743 362.95 498.743 362.398C498.743 361.845 499.191 361.398 499.743 361.398V363.398ZM501.757 361.398C502.309 361.398 502.757 361.845 502.757 362.398C502.757 362.95 502.309 363.398 501.757 363.398V361.398ZM505.785 363.398C505.232 363.398 504.785 362.95 504.785 362.398C504.785 361.845 505.232 361.398 505.785 361.398V363.398ZM507.799 361.398C508.351 361.398 508.799 361.845 508.799 362.398C508.799 362.95 508.351 363.398 507.799 363.398V361.398ZM511.826 363.398C511.274 363.398 510.826 362.95 510.826 362.398C510.826 361.845 511.274 361.398 511.826 361.398V363.398ZM513.84 361.398C514.393 361.398 514.84 361.845 514.84 362.398C514.84 362.95 514.393 363.398 513.84 363.398V361.398ZM517.868 363.398C517.316 363.398 516.868 362.95 516.868 362.398C516.868 361.845 517.316 361.398 517.868 361.398V363.398ZM519.882 361.398C520.434 361.398 520.882 361.845 520.882 362.398C520.882 362.95 520.434 363.398 519.882 363.398V361.398ZM523.91 363.398C523.357 363.398 522.91 362.95 522.91 362.398C522.91 361.845 523.357 361.398 523.91 361.398V363.398ZM525.924 361.398C526.476 361.398 526.924 361.845 526.924 362.398C526.924 362.95 526.476 363.398 525.924 363.398V361.398ZM529.951 363.398C529.399 363.398 528.951 362.95 528.951 362.398C528.951 361.845 529.399 361.398 529.951 361.398V363.398ZM531.965 361.398C532.518 361.398 532.965 361.845 532.965 362.398C532.965 362.95 532.518 363.398 531.965 363.398V361.398ZM535.993 363.398C535.441 363.398 534.993 362.95 534.993 362.398C534.993 361.845 535.441 361.398 535.993 361.398V363.398ZM538.007 361.398C538.559 361.398 539.007 361.845 539.007 362.398C539.007 362.95 538.559 363.398 538.007 363.398V361.398ZM542.035 363.398C541.482 363.398 541.035 362.95 541.035 362.398C541.035 361.845 541.482 361.398 542.035 361.398V363.398ZM544.049 361.398C544.601 361.398 545.049 361.845 545.049 362.398C545.049 362.95 544.601 363.398 544.049 363.398V361.398ZM548.076 363.398C547.524 363.398 547.076 362.95 547.076 362.398C547.076 361.845 547.524 361.398 548.076 361.398V363.398ZM550.09 361.398C550.642 361.398 551.09 361.845 551.09 362.398C551.09 362.95 550.642 363.398 550.09 363.398V361.398ZM554.118 363.398C553.566 363.398 553.118 362.95 553.118 362.398C553.118 361.845 553.566 361.398 554.118 361.398V363.398ZM556.132 361.398C556.684 361.398 557.132 361.845 557.132 362.398C557.132 362.95 556.684 363.398 556.132 363.398V361.398ZM560.16 363.398C559.607 363.398 559.16 362.95 559.16 362.398C559.16 361.845 559.607 361.398 560.16 361.398V363.398ZM562.174 361.398C562.726 361.398 563.174 361.845 563.174 362.398C563.174 362.95 562.726 363.398 562.174 363.398V361.398ZM566.201 363.398C565.649 363.398 565.201 362.95 565.201 362.398C565.201 361.845 565.649 361.398 566.201 361.398V363.398ZM568.215 361.398C568.767 361.398 569.215 361.845 569.215 362.398C569.215 362.95 568.767 363.398 568.215 363.398V361.398ZM572.243 363.398C571.691 363.398 571.243 362.95 571.243 362.398C571.243 361.845 571.691 361.398 572.243 361.398V363.398ZM574.257 361.398C574.809 361.398 575.257 361.845 575.257 362.398C575.257 362.95 574.809 363.398 574.257 363.398V361.398ZM578.285 363.398C577.732 363.398 577.285 362.95 577.285 362.398C577.285 361.845 577.732 361.398 578.285 361.398V363.398ZM580.298 361.398C580.851 361.398 581.298 361.845 581.298 362.398C581.298 362.95 580.851 363.398 580.298 363.398V361.398ZM584.326 363.398C583.774 363.398 583.326 362.95 583.326 362.398C583.326 361.845 583.774 361.398 584.326 361.398V363.398ZM586.34 361.398C586.892 361.398 587.34 361.845 587.34 362.398C587.34 362.95 586.892 363.398 586.34 363.398V361.398ZM590.368 363.398C589.816 363.398 589.368 362.95 589.368 362.398C589.368 361.845 589.816 361.398 590.368 361.398V363.398ZM592.382 361.398C592.934 361.398 593.382 361.845 593.382 362.398C593.382 362.95 592.934 363.398 592.382 363.398V361.398ZM596.41 363.398C595.857 363.398 595.41 362.95 595.41 362.398C595.41 361.845 595.857 361.398 596.41 361.398V363.398ZM598.423 361.398C598.976 361.398 599.423 361.845 599.423 362.398C599.423 362.95 598.976 363.398 598.423 363.398V361.398ZM602.451 363.398C601.899 363.398 601.451 362.95 601.451 362.398C601.451 361.845 601.899 361.398 602.451 361.398V363.398ZM604.465 361.398C605.017 361.398 605.465 361.845 605.465 362.398C605.465 362.95 605.017 363.398 604.465 363.398V361.398ZM608.493 363.398C607.941 363.398 607.493 362.95 607.493 362.398C607.493 361.845 607.941 361.398 608.493 361.398V363.398ZM610.507 361.398C611.059 361.398 611.507 361.845 611.507 362.398C611.507 362.95 611.059 363.398 610.507 363.398V361.398ZM614.535 363.398C613.982 363.398 613.535 362.95 613.535 362.398C613.535 361.845 613.982 361.398 614.535 361.398V363.398ZM616.548 361.398C617.101 361.398 617.548 361.845 617.548 362.398C617.548 362.95 617.101 363.398 616.548 363.398V361.398ZM620.576 363.398C620.024 363.398 619.576 362.95 619.576 362.398C619.576 361.845 620.024 361.398 620.576 361.398V363.398ZM622.59 361.398C623.142 361.398 623.59 361.845 623.59 362.398C623.59 362.95 623.142 363.398 622.59 363.398V361.398ZM626.618 363.398C626.066 363.398 625.618 362.95 625.618 362.398C625.618 361.845 626.066 361.398 626.618 361.398V363.398ZM628.632 361.398C629.184 361.398 629.632 361.845 629.632 362.398C629.632 362.95 629.184 363.398 628.632 363.398V361.398ZM632.66 363.398C632.107 363.398 631.66 362.95 631.66 362.398C631.66 361.845 632.107 361.398 632.66 361.398V363.398ZM634.673 361.398C635.226 361.398 635.673 361.845 635.673 362.398C635.673 362.95 635.226 363.398 634.673 363.398V361.398ZM638.701 363.398C638.149 363.398 637.701 362.95 637.701 362.398C637.701 361.845 638.149 361.398 638.701 361.398V363.398ZM640.715 361.398C641.267 361.398 641.715 361.845 641.715 362.398C641.715 362.95 641.267 363.398 640.715 363.398V361.398ZM644.743 363.398C644.191 363.398 643.743 362.95 643.743 362.398C643.743 361.845 644.191 361.398 644.743 361.398V363.398ZM646.757 361.398C647.309 361.398 647.757 361.845 647.757 362.398C647.757 362.95 647.309 363.398 646.757 363.398V361.398ZM650.784 363.398C650.232 363.398 649.784 362.95 649.784 362.398C649.784 361.845 650.232 361.398 650.784 361.398V363.398ZM652.798 361.398C653.351 361.398 653.798 361.845 653.798 362.398C653.798 362.95 653.351 363.398 652.798 363.398V361.398ZM656.826 363.398C656.274 363.398 655.826 362.95 655.826 362.398C655.826 361.845 656.274 361.398 656.826 361.398V363.398ZM658.84 361.398C659.392 361.398 659.84 361.845 659.84 362.398C659.84 362.95 659.392 363.398 658.84 363.398V361.398ZM662.868 363.398C662.316 363.398 661.868 362.95 661.868 362.398C661.868 361.845 662.316 361.398 662.868 361.398V363.398ZM664.882 361.398C665.434 361.398 665.882 361.845 665.882 362.398C665.882 362.95 665.434 363.398 664.882 363.398V361.398ZM668.909 363.398C668.357 363.398 667.909 362.95 667.909 362.398C667.909 361.845 668.357 361.398 668.909 361.398V363.398ZM670.923 361.398C671.476 361.398 671.923 361.845 671.923 362.398C671.923 362.95 671.476 363.398 670.923 363.398V361.398ZM674.951 363.398C674.399 363.398 673.951 362.95 673.951 362.398C673.951 361.845 674.399 361.398 674.951 361.398V363.398ZM676.965 361.398C677.517 361.398 677.965 361.845 677.965 362.398C677.965 362.95 677.517 363.398 676.965 363.398V361.398ZM680.993 363.398C680.44 363.398 679.993 362.95 679.993 362.398C679.993 361.845 680.44 361.398 680.993 361.398V363.398ZM683.294 361.567C683.827 361.71 684.144 362.258 684.002 362.791C683.859 363.325 683.311 363.642 682.777 363.499L683.294 361.567ZM684.899 365.62C684.756 365.087 685.073 364.539 685.606 364.396C686.14 364.253 686.688 364.57 686.831 365.104L684.899 365.62ZM687 367.388C687 367.941 686.552 368.388 686 368.388C685.448 368.388 685 367.941 685 367.388H687ZM685 371.35C685 370.798 685.448 370.35 686 370.35C686.552 370.35 687 370.798 687 371.35H685ZM687 373.331C687 373.884 686.552 374.331 686 374.331C685.448 374.331 685 373.884 685 373.331H687ZM685 377.294C685 376.741 685.448 376.294 686 376.294C686.552 376.294 687 376.741 687 377.294H685ZM687 379.275C687 379.827 686.552 380.275 686 380.275C685.448 380.275 685 379.827 685 379.275H687ZM685 383.237C685 382.684 685.448 382.237 686 382.237C686.552 382.237 687 382.684 687 383.237H685ZM687 385.218C687 385.77 686.552 386.218 686 386.218C685.448 386.218 685 385.77 685 385.218H687ZM685 389.18C685 388.628 685.448 388.18 686 388.18C686.552 388.18 687 388.628 687 389.18H685ZM687 391.161C687 391.713 686.552 392.161 686 392.161C685.448 392.161 685 391.713 685 391.161H687ZM685 395.123C685 394.571 685.448 394.123 686 394.123C686.552 394.123 687 394.571 687 395.123H685ZM687 397.104C687 397.656 686.552 398.104 686 398.104C685.448 398.104 685 397.656 685 397.104H687ZM685 401.066C685 400.514 685.448 400.066 686 400.066C686.552 400.066 687 400.514 687 401.066H685ZM687 403.047C687 403.6 686.552 404.047 686 404.047C685.448 404.047 685 403.6 685 403.047H687ZM685 407.009C685 406.457 685.448 406.009 686 406.009C686.552 406.009 687 406.457 687 407.009H685ZM686.831 409.294C686.688 409.827 686.14 410.144 685.606 410.002C685.073 409.859 684.756 409.311 684.899 408.777L686.831 409.294ZM682.777 410.899C683.311 410.756 683.859 411.073 684.002 411.606C684.144 412.14 683.827 412.688 683.294 412.831L682.777 410.899ZM681.205 413C680.653 413 680.205 412.552 680.205 412C680.205 411.448 680.653 411 681.205 411V413ZM678.024 411C678.576 411 679.024 411.448 679.024 412C679.024 412.552 678.576 413 678.024 413V411ZM676.434 413C675.881 413 675.434 412.552 675.434 412C675.434 411.448 675.881 411 676.434 411V413ZM673.253 411C673.805 411 674.253 411.448 674.253 412C674.253 412.552 673.805 413 673.253 413V411ZM401.539 323H400.744V321H401.539V323ZM397.564 323H395.974V321H397.564V323ZM392.795 323H392V321H392.795V323ZM392 323C391.73 323 391.469 323.035 391.223 323.101L390.706 321.169C391.12 321.059 391.554 321 392 321V323ZM389.101 325.223C389.035 325.469 389 325.73 389 326H387C387 325.554 387.059 325.12 387.169 324.706L389.101 325.223ZM389 326V327.08H387V326H389ZM389 331.4V333.559H387V331.4H389ZM389 337.879V340.039H387V337.879H389ZM389 344.359V346.519H387V344.359H389ZM389 350.838V352.998H387V350.838H389ZM389 357.318V358.398H387V357.318H389ZM389 358.398C389 358.668 389.035 358.928 389.101 359.175L387.169 359.692C387.059 359.278 387 358.844 387 358.398H389ZM391.223 361.296C391.469 361.362 391.73 361.398 392 361.398V363.398C391.554 363.398 391.12 363.339 390.706 363.228L391.223 361.296ZM392 361.398H393.007V363.398H392V361.398ZM397.035 361.398H399.049V363.398H397.035V361.398ZM403.076 361.398H405.09V363.398H403.076V361.398ZM409.118 361.398H411.132V363.398H409.118V361.398ZM415.16 361.398H417.174V363.398H415.16V361.398ZM421.201 361.398H423.215V363.398H421.201V361.398ZM427.243 361.398H429.257V363.398H427.243V361.398ZM433.285 361.398H435.299V363.398H433.285V361.398ZM439.326 361.398H441.34V363.398H439.326V361.398ZM445.368 361.398H447.382V363.398H445.368V361.398ZM451.41 361.398H453.424V363.398H451.41V361.398ZM457.451 361.398H459.465V363.398H457.451V361.398ZM463.493 361.398H465.507V363.398H463.493V361.398ZM469.535 361.398H471.549V363.398H469.535V361.398ZM475.576 361.398H477.59V363.398H475.576V361.398ZM481.618 361.398H483.632V363.398H481.618V361.398ZM487.66 361.398H489.674V363.398H487.66V361.398ZM493.701 361.398H495.715V363.398H493.701V361.398ZM499.743 361.398H501.757V363.398H499.743V361.398ZM505.785 361.398H507.799V363.398H505.785V361.398ZM511.826 361.398H513.84V363.398H511.826V361.398ZM517.868 361.398H519.882V363.398H517.868V361.398ZM523.91 361.398H525.924V363.398H523.91V361.398ZM529.951 361.398H531.965V363.398H529.951V361.398ZM535.993 361.398H538.007V363.398H535.993V361.398ZM542.035 361.398H544.049V363.398H542.035V361.398ZM548.076 361.398H550.09V363.398H548.076V361.398ZM554.118 361.398H556.132V363.398H554.118V361.398ZM560.16 361.398H562.174V363.398H560.16V361.398ZM566.201 361.398H568.215V363.398H566.201V361.398ZM572.243 361.398H574.257V363.398H572.243V361.398ZM578.285 361.398H580.298V363.398H578.285V361.398ZM584.326 361.398H586.34V363.398H584.326V361.398ZM590.368 361.398H592.382V363.398H590.368V361.398ZM596.41 361.398H598.423V363.398H596.41V361.398ZM602.451 361.398H604.465V363.398H602.451V361.398ZM608.493 361.398H610.507V363.398H608.493V361.398ZM614.535 361.398H616.548V363.398H614.535V361.398ZM620.576 361.398H622.59V363.398H620.576V361.398ZM626.618 361.398H628.632V363.398H626.618V361.398ZM632.66 361.398H634.673V363.398H632.66V361.398ZM638.701 361.398H640.715V363.398H638.701V361.398ZM644.743 361.398H646.757V363.398H644.743V361.398ZM650.784 361.398H652.798V363.398H650.784V361.398ZM656.826 361.398H658.84V363.398H656.826V361.398ZM662.868 361.398H664.882V363.398H662.868V361.398ZM668.909 361.398H670.923V363.398H668.909V361.398ZM674.951 361.398H676.965V363.398H674.951V361.398ZM680.993 361.398H682V363.398H680.993V361.398ZM682 361.398C682.446 361.398 682.88 361.456 683.294 361.567L682.777 363.499C682.531 363.433 682.27 363.398 682 363.398V361.398ZM686.831 365.104C686.941 365.518 687 365.952 687 366.398H685C685 366.128 684.965 365.867 684.899 365.62L686.831 365.104ZM687 366.398V367.388H685V366.398H687ZM687 371.35V373.331H685V371.35H687ZM687 377.294V379.275H685V377.294H687ZM687 383.237V385.218H685V383.237H687ZM687 389.18V391.161H685V389.18H687ZM687 395.123V397.104H685V395.123H687ZM687 401.066V403.047H685V401.066H687ZM687 407.009V408H685V407.009H687ZM687 408C687 408.446 686.941 408.88 686.831 409.294L684.899 408.777C684.965 408.531 685 408.27 685 408H687ZM683.294 412.831C682.88 412.941 682.446 413 682 413V411C682.27 411 682.531 410.965 682.777 410.899L683.294 412.831ZM682 413H681.205V411H682V413ZM678.024 413H676.434V411H678.024V413ZM673.253 413H672.458V411H673.253V413Z" fill="white"/>
<path d="M77.5469 4.50781C77.0156 4.4349 76.5573 4.39844 76.1719 4.39844C75.151 4.39844 74.6406 4.8776 74.6406 5.83594V6.54688H76.3594V7.95312H74.6406V15H72.7422V7.95312H71.4531V6.54688H72.7422V5.78906C72.7474 4.83594 73.0286 4.10677 73.5859 3.60156C74.1484 3.09115 74.9401 2.83594 75.9609 2.83594C76.5964 2.83594 77.7578 2.96094 79.4453 3.21094V15H77.5469V4.50781ZM85.2656 15.1562C84.0625 15.1562 83.0859 14.7786 82.3359 14.0234C81.5911 13.263 81.2188 12.2526 81.2188 10.9922V10.7578C81.2188 9.91406 81.3802 9.16146 81.7031 8.5C82.0312 7.83333 82.4896 7.3151 83.0781 6.94531C83.6667 6.57552 84.3229 6.39062 85.0469 6.39062C86.1979 6.39062 87.0859 6.75781 87.7109 7.49219C88.3411 8.22656 88.6562 9.26562 88.6562 10.6094V11.375H83.1328C83.1901 12.0729 83.4219 12.625 83.8281 13.0312C84.2396 13.4375 84.7552 13.6406 85.375 13.6406C86.2448 13.6406 86.9531 13.2891 87.5 12.5859L88.5234 13.5625C88.1849 14.0677 87.7318 14.4609 87.1641 14.7422C86.6016 15.0182 85.9688 15.1562 85.2656 15.1562ZM85.0391 7.91406C84.5182 7.91406 84.0964 8.09635 83.7734 8.46094C83.4557 8.82552 83.2526 9.33333 83.1641 9.98438H86.7812V9.84375C86.7396 9.20833 86.5703 8.72917 86.2734 8.40625C85.9766 8.07812 85.5651 7.91406 85.0391 7.91406ZM93.1719 9.32812L94.7812 6.54688H96.8906L94.3047 10.7109L96.9766 15H94.8828L93.1953 12.1094L91.5156 15H89.4062L92.0781 10.7109L89.5 6.54688H91.5938L93.1719 9.32812ZM101.867 10.9297H97.7656V9.39844H101.867V10.9297ZM110.859 12.3828L112.203 6.54688H114.055L111.75 15H110.188L108.375 9.19531L106.594 15H105.031L102.719 6.54688H104.57L105.938 12.3203L107.672 6.54688H109.102L110.859 12.3828ZM119.75 8.28125C119.5 8.23958 119.242 8.21875 118.977 8.21875C118.107 8.21875 117.521 8.55208 117.219 9.21875V15H115.32V6.54688H117.133L117.18 7.49219C117.638 6.75781 118.273 6.39062 119.086 6.39062C119.357 6.39062 119.581 6.42708 119.758 6.5L119.75 8.28125ZM125.766 15C125.682 14.8385 125.609 14.5755 125.547 14.2109C124.943 14.8411 124.203 15.1562 123.328 15.1562C122.479 15.1562 121.786 14.9141 121.25 14.4297C120.714 13.9453 120.445 13.3464 120.445 12.6328C120.445 11.7318 120.779 11.0417 121.445 10.5625C122.117 10.0781 123.076 9.83594 124.32 9.83594H125.484V9.28125C125.484 8.84375 125.362 8.49479 125.117 8.23438C124.872 7.96875 124.5 7.83594 124 7.83594C123.568 7.83594 123.214 7.94531 122.938 8.16406C122.661 8.3776 122.523 8.65104 122.523 8.98438H120.625C120.625 8.52083 120.779 8.08854 121.086 7.6875C121.393 7.28125 121.81 6.96354 122.336 6.73438C122.867 6.50521 123.458 6.39062 124.109 6.39062C125.099 6.39062 125.888 6.64062 126.477 7.14062C127.065 7.63542 127.367 8.33333 127.383 9.23438V13.0469C127.383 13.8073 127.49 14.4141 127.703 14.8672V15H125.766ZM123.68 13.6328C124.055 13.6328 124.406 13.5417 124.734 13.3594C125.068 13.1771 125.318 12.9323 125.484 12.625V11.0312H124.461C123.758 11.0312 123.229 11.1536 122.875 11.3984C122.521 11.6432 122.344 11.9896 122.344 12.4375C122.344 12.8021 122.464 13.0938 122.703 13.3125C122.948 13.526 123.273 13.6328 123.68 13.6328ZM136.773 10.8594C136.773 12.1667 136.477 13.2109 135.883 13.9922C135.289 14.7682 134.492 15.1562 133.492 15.1562C132.565 15.1562 131.823 14.8516 131.266 14.2422V18.25H129.367V6.54688H131.117L131.195 7.40625C131.753 6.72917 132.51 6.39062 133.469 6.39062C134.5 6.39062 135.307 6.77604 135.891 7.54688C136.479 8.3125 136.773 9.3776 136.773 10.7422V10.8594ZM134.883 10.6953C134.883 9.85156 134.714 9.18229 134.375 8.6875C134.042 8.19271 133.562 7.94531 132.938 7.94531C132.161 7.94531 131.604 8.26562 131.266 8.90625V12.6562C131.609 13.3125 132.172 13.6406 132.953 13.6406C133.557 13.6406 134.029 13.3984 134.367 12.9141C134.711 12.4245 134.883 11.6849 134.883 10.6953ZM139.531 13C139.885 13 140.159 13.1016 140.352 13.3047C140.544 13.5026 140.641 13.7526 140.641 14.0547C140.641 14.3516 140.544 14.599 140.352 14.7969C140.159 14.9896 139.885 15.0859 139.531 15.0859C139.193 15.0859 138.924 14.9896 138.727 14.7969C138.529 14.6042 138.43 14.3568 138.43 14.0547C138.43 13.7526 138.526 13.5026 138.719 13.3047C138.911 13.1016 139.182 13 139.531 13ZM139.531 6.36719C139.885 6.36719 140.159 6.46875 140.352 6.67188C140.544 6.86979 140.641 7.11979 140.641 7.42188C140.641 7.71875 140.544 7.96615 140.352 8.16406C140.159 8.35677 139.885 8.45312 139.531 8.45312C139.193 8.45312 138.924 8.35677 138.727 8.16406C138.529 7.97135 138.43 7.72396 138.43 7.42188C138.43 7.11979 138.526 6.86979 138.719 6.67188C138.911 6.46875 139.182 6.36719 139.531 6.36719ZM200.57 6.36719C200.924 6.36719 201.198 6.46875 201.391 6.67188C201.583 6.86979 201.68 7.11979 201.68 7.42188C201.68 7.71875 201.583 7.96615 201.391 8.16406C201.198 8.35677 200.924 8.45312 200.57 8.45312C200.232 8.45312 199.964 8.35677 199.766 8.16406C199.568 7.97135 199.469 7.72396 199.469 7.42188C199.469 7.11979 199.565 6.86979 199.758 6.67188C199.951 6.46875 200.221 6.36719 200.57 6.36719ZM200 17.5625L198.977 16.9531C199.279 16.4792 199.484 16.0651 199.594 15.7109C199.708 15.362 199.768 15.0052 199.773 14.6406V13.1641H201.484L201.477 14.5312C201.471 15.0833 201.331 15.6354 201.055 16.1875C200.784 16.7448 200.432 17.2031 200 17.5625ZM207.414 10.375C207.414 9.17188 207.576 8.03125 207.898 6.95312C208.221 5.86979 208.695 4.90365 209.32 4.05469C209.945 3.20052 210.607 2.60156 211.305 2.25781L211.68 3.36719C210.945 3.92448 210.349 4.77604 209.891 5.92188C209.438 7.0625 209.19 8.36979 209.148 9.84375L209.141 10.5156C209.141 12.0938 209.362 13.5026 209.805 14.7422C210.253 15.9766 210.878 16.9167 211.68 17.5625L211.305 18.6172C210.607 18.2734 209.943 17.6719 209.312 16.8125C208.688 15.9583 208.214 14.9948 207.891 13.9219C207.573 12.8438 207.414 11.6615 207.414 10.375ZM212.609 10.7109C212.609 9.40885 212.911 8.36458 213.516 7.57812C214.12 6.78646 214.93 6.39062 215.945 6.39062C216.841 6.39062 217.565 6.70312 218.117 7.32812V3H220.016V15H218.297L218.203 14.125C217.635 14.8125 216.878 15.1562 215.93 15.1562C214.94 15.1562 214.138 14.7578 213.523 13.9609C212.914 13.1641 212.609 12.0807 212.609 10.7109ZM214.508 10.875C214.508 11.7344 214.672 12.4062 215 12.8906C215.333 13.3698 215.805 13.6094 216.414 13.6094C217.19 13.6094 217.758 13.263 218.117 12.5703V8.96094C217.768 8.28385 217.206 7.94531 216.43 7.94531C215.815 7.94531 215.341 8.1901 215.008 8.67969C214.674 9.16406 214.508 9.89583 214.508 10.875ZM225.719 15.1562C224.516 15.1562 223.539 14.7786 222.789 14.0234C222.044 13.263 221.672 12.2526 221.672 10.9922V10.7578C221.672 9.91406 221.833 9.16146 222.156 8.5C222.484 7.83333 222.943 7.3151 223.531 6.94531C224.12 6.57552 224.776 6.39062 225.5 6.39062C226.651 6.39062 227.539 6.75781 228.164 7.49219C228.794 8.22656 229.109 9.26562 229.109 10.6094V11.375H223.586C223.643 12.0729 223.875 12.625 224.281 13.0312C224.693 13.4375 225.208 13.6406 225.828 13.6406C226.698 13.6406 227.406 13.2891 227.953 12.5859L228.977 13.5625C228.638 14.0677 228.185 14.4609 227.617 14.7422C227.055 15.0182 226.422 15.1562 225.719 15.1562ZM225.492 7.91406C224.971 7.91406 224.549 8.09635 224.227 8.46094C223.909 8.82552 223.706 9.33333 223.617 9.98438H227.234V9.84375C227.193 9.20833 227.023 8.72917 226.727 8.40625C226.43 8.07812 226.018 7.91406 225.492 7.91406ZM231.258 15V7.95312H229.969V6.54688H231.258V5.77344C231.258 4.83594 231.518 4.11198 232.039 3.60156C232.56 3.09115 233.289 2.83594 234.227 2.83594C234.56 2.83594 234.914 2.88281 235.289 2.97656L235.242 4.46094C235.034 4.41927 234.792 4.39844 234.516 4.39844C233.609 4.39844 233.156 4.86458 233.156 5.79688V6.54688H234.875V7.95312H233.156V15H231.258ZM241.312 15C241.229 14.8385 241.156 14.5755 241.094 14.2109C240.49 14.8411 239.75 15.1562 238.875 15.1562C238.026 15.1562 237.333 14.9141 236.797 14.4297C236.26 13.9453 235.992 13.3464 235.992 12.6328C235.992 11.7318 236.326 11.0417 236.992 10.5625C237.664 10.0781 238.622 9.83594 239.867 9.83594H241.031V9.28125C241.031 8.84375 240.909 8.49479 240.664 8.23438C240.419 7.96875 240.047 7.83594 239.547 7.83594C239.115 7.83594 238.76 7.94531 238.484 8.16406C238.208 8.3776 238.07 8.65104 238.07 8.98438H236.172C236.172 8.52083 236.326 8.08854 236.633 7.6875C236.94 7.28125 237.357 6.96354 237.883 6.73438C238.414 6.50521 239.005 6.39062 239.656 6.39062C240.646 6.39062 241.435 6.64062 242.023 7.14062C242.612 7.63542 242.914 8.33333 242.93 9.23438V13.0469C242.93 13.8073 243.036 14.4141 243.25 14.8672V15H241.312ZM239.227 13.6328C239.602 13.6328 239.953 13.5417 240.281 13.3594C240.615 13.1771 240.865 12.9323 241.031 12.625V11.0312H240.008C239.305 11.0312 238.776 11.1536 238.422 11.3984C238.068 11.6432 237.891 11.9896 237.891 12.4375C237.891 12.8021 238.01 13.0938 238.25 13.3125C238.495 13.526 238.82 13.6328 239.227 13.6328ZM250.039 14.1719C249.482 14.8281 248.69 15.1562 247.664 15.1562C246.747 15.1562 246.052 14.888 245.578 14.3516C245.109 13.8151 244.875 13.0391 244.875 12.0234V6.54688H246.773V12C246.773 13.0729 247.219 13.6094 248.109 13.6094C249.031 13.6094 249.654 13.2786 249.977 12.6172V6.54688H251.875V15H250.086L250.039 14.1719ZM255.828 15H253.93V3H255.828V15ZM260.281 4.49219V6.54688H261.773V7.95312H260.281V12.6719C260.281 12.9948 260.344 13.2292 260.469 13.375C260.599 13.5156 260.828 13.5859 261.156 13.5859C261.375 13.5859 261.596 13.5599 261.82 13.5078V14.9766C261.388 15.0964 260.971 15.1562 260.57 15.1562C259.112 15.1562 258.383 14.3516 258.383 12.7422V7.95312H256.992V6.54688H258.383V4.49219H260.281ZM266.891 10.5C266.891 11.6562 266.732 12.7734 266.414 13.8516C266.096 14.9245 265.615 15.901 264.969 16.7812C264.323 17.6667 263.648 18.2786 262.945 18.6172L262.57 17.5625C263.352 16.9583 263.969 16.0365 264.422 14.7969C264.88 13.5521 265.109 12.1328 265.109 10.5391V10.3594C265.109 8.91146 264.911 7.59375 264.516 6.40625C264.12 5.21354 263.552 4.25781 262.812 3.53906L262.57 3.32031L262.945 2.25781C263.612 2.58073 264.258 3.15365 264.883 3.97656C265.508 4.79948 265.987 5.72135 266.32 6.74219C266.654 7.75781 266.841 8.80729 266.883 9.89062L266.891 10.5Z" fill="#222222"/>
<path d="M148.383 6.54688L148.438 7.52344C149.062 6.76823 149.883 6.39062 150.898 6.39062C152.659 6.39062 153.555 7.39844 153.586 9.41406V15H151.688V9.52344C151.688 8.98698 151.57 8.59115 151.336 8.33594C151.107 8.07552 150.729 7.94531 150.203 7.94531C149.438 7.94531 148.867 8.29167 148.492 8.98438V15H146.594V6.54688H148.383ZM155.172 10.6953C155.172 9.86719 155.336 9.1224 155.664 8.46094C155.992 7.79427 156.453 7.28385 157.047 6.92969C157.641 6.57031 158.323 6.39062 159.094 6.39062C160.234 6.39062 161.159 6.75781 161.867 7.49219C162.581 8.22656 162.966 9.20052 163.023 10.4141L163.031 10.8594C163.031 11.6927 162.87 12.4375 162.547 13.0938C162.229 13.75 161.771 14.2578 161.172 14.6172C160.578 14.9766 159.891 15.1562 159.109 15.1562C157.917 15.1562 156.961 14.7604 156.242 13.9688C155.529 13.1719 155.172 12.112 155.172 10.7891V10.6953ZM157.07 10.8594C157.07 11.7292 157.25 12.4115 157.609 12.9062C157.969 13.3958 158.469 13.6406 159.109 13.6406C159.75 13.6406 160.247 13.3906 160.602 12.8906C160.961 12.3906 161.141 11.6589 161.141 10.6953C161.141 9.84115 160.956 9.16406 160.586 8.66406C160.221 8.16406 159.724 7.91406 159.094 7.91406C158.474 7.91406 157.982 8.16146 157.617 8.65625C157.253 9.14583 157.07 9.88021 157.07 10.8594ZM172.062 12.3828L173.406 6.54688H175.258L172.953 15H171.391L169.578 9.19531L167.797 15H166.234L163.922 6.54688H165.773L167.141 12.3203L168.875 6.54688H170.305L172.062 12.3828ZM180.953 8.28125C180.703 8.23958 180.445 8.21875 180.18 8.21875C179.31 8.21875 178.724 8.55208 178.422 9.21875V15H176.523V6.54688H178.336L178.383 7.49219C178.841 6.75781 179.477 6.39062 180.289 6.39062C180.56 6.39062 180.784 6.42708 180.961 6.5L180.953 8.28125ZM186.969 15C186.885 14.8385 186.812 14.5755 186.75 14.2109C186.146 14.8411 185.406 15.1562 184.531 15.1562C183.682 15.1562 182.99 14.9141 182.453 14.4297C181.917 13.9453 181.648 13.3464 181.648 12.6328C181.648 11.7318 181.982 11.0417 182.648 10.5625C183.32 10.0781 184.279 9.83594 185.523 9.83594H186.688V9.28125C186.688 8.84375 186.565 8.49479 186.32 8.23438C186.076 7.96875 185.703 7.83594 185.203 7.83594C184.771 7.83594 184.417 7.94531 184.141 8.16406C183.865 8.3776 183.727 8.65104 183.727 8.98438H181.828C181.828 8.52083 181.982 8.08854 182.289 7.6875C182.596 7.28125 183.013 6.96354 183.539 6.73438C184.07 6.50521 184.661 6.39062 185.312 6.39062C186.302 6.39062 187.091 6.64062 187.68 7.14062C188.268 7.63542 188.57 8.33333 188.586 9.23438V13.0469C188.586 13.8073 188.693 14.4141 188.906 14.8672V15H186.969ZM184.883 13.6328C185.258 13.6328 185.609 13.5417 185.938 13.3594C186.271 13.1771 186.521 12.9323 186.688 12.625V11.0312H185.664C184.961 11.0312 184.432 11.1536 184.078 11.3984C183.724 11.6432 183.547 11.9896 183.547 12.4375C183.547 12.8021 183.667 13.0938 183.906 13.3125C184.151 13.526 184.477 13.6328 184.883 13.6328ZM197.977 10.8594C197.977 12.1667 197.68 13.2109 197.086 13.9922C196.492 14.7682 195.695 15.1562 194.695 15.1562C193.768 15.1562 193.026 14.8516 192.469 14.2422V18.25H190.57V6.54688H192.32L192.398 7.40625C192.956 6.72917 193.714 6.39062 194.672 6.39062C195.703 6.39062 196.51 6.77604 197.094 7.54688C197.682 8.3125 197.977 9.3776 197.977 10.7422V10.8594ZM196.086 10.6953C196.086 9.85156 195.917 9.18229 195.578 8.6875C195.245 8.19271 194.766 7.94531 194.141 7.94531C193.365 7.94531 192.807 8.26562 192.469 8.90625V12.6562C192.812 13.3125 193.375 13.6406 194.156 13.6406C194.76 13.6406 195.232 13.3984 195.57 12.9141C195.914 12.4245 196.086 11.6849 196.086 10.6953Z" fill="#1E73FF"/>
<path d="M118.789 247.508C118.258 247.435 117.799 247.398 117.414 247.398C116.393 247.398 115.883 247.878 115.883 248.836V249.547H117.602V250.953H115.883V258H113.984V250.953H112.695V249.547H113.984V248.789C113.99 247.836 114.271 247.107 114.828 246.602C115.391 246.091 116.182 245.836 117.203 245.836C117.839 245.836 119 245.961 120.688 246.211V258H118.789V247.508ZM126.508 258.156C125.305 258.156 124.328 257.779 123.578 257.023C122.833 256.263 122.461 255.253 122.461 253.992V253.758C122.461 252.914 122.622 252.161 122.945 251.5C123.273 250.833 123.732 250.315 124.32 249.945C124.909 249.576 125.565 249.391 126.289 249.391C127.44 249.391 128.328 249.758 128.953 250.492C129.583 251.227 129.898 252.266 129.898 253.609V254.375H124.375C124.432 255.073 124.664 255.625 125.07 256.031C125.482 256.438 125.997 256.641 126.617 256.641C127.487 256.641 128.195 256.289 128.742 255.586L129.766 256.562C129.427 257.068 128.974 257.461 128.406 257.742C127.844 258.018 127.211 258.156 126.508 258.156ZM126.281 250.914C125.76 250.914 125.339 251.096 125.016 251.461C124.698 251.826 124.495 252.333 124.406 252.984H128.023V252.844C127.982 252.208 127.812 251.729 127.516 251.406C127.219 251.078 126.807 250.914 126.281 250.914ZM134.414 252.328L136.023 249.547H138.133L135.547 253.711L138.219 258H136.125L134.438 255.109L132.758 258H130.648L133.32 253.711L130.742 249.547H132.836L134.414 252.328ZM143.109 253.93H139.008V252.398H143.109V253.93ZM152.102 255.383L153.445 249.547H155.297L152.992 258H151.43L149.617 252.195L147.836 258H146.273L143.961 249.547H145.812L147.18 255.32L148.914 249.547H150.344L152.102 255.383ZM160.992 251.281C160.742 251.24 160.484 251.219 160.219 251.219C159.349 251.219 158.763 251.552 158.461 252.219V258H156.562V249.547H158.375L158.422 250.492C158.88 249.758 159.516 249.391 160.328 249.391C160.599 249.391 160.823 249.427 161 249.5L160.992 251.281ZM167.008 258C166.924 257.839 166.852 257.576 166.789 257.211C166.185 257.841 165.445 258.156 164.57 258.156C163.721 258.156 163.029 257.914 162.492 257.43C161.956 256.945 161.688 256.346 161.688 255.633C161.688 254.732 162.021 254.042 162.688 253.562C163.359 253.078 164.318 252.836 165.562 252.836H166.727V252.281C166.727 251.844 166.604 251.495 166.359 251.234C166.115 250.969 165.742 250.836 165.242 250.836C164.81 250.836 164.456 250.945 164.18 251.164C163.904 251.378 163.766 251.651 163.766 251.984H161.867C161.867 251.521 162.021 251.089 162.328 250.688C162.635 250.281 163.052 249.964 163.578 249.734C164.109 249.505 164.701 249.391 165.352 249.391C166.341 249.391 167.13 249.641 167.719 250.141C168.307 250.635 168.609 251.333 168.625 252.234V256.047C168.625 256.807 168.732 257.414 168.945 257.867V258H167.008ZM164.922 256.633C165.297 256.633 165.648 256.542 165.977 256.359C166.31 256.177 166.56 255.932 166.727 255.625V254.031H165.703C165 254.031 164.471 254.154 164.117 254.398C163.763 254.643 163.586 254.99 163.586 255.438C163.586 255.802 163.706 256.094 163.945 256.312C164.19 256.526 164.516 256.633 164.922 256.633ZM178.016 253.859C178.016 255.167 177.719 256.211 177.125 256.992C176.531 257.768 175.734 258.156 174.734 258.156C173.807 258.156 173.065 257.852 172.508 257.242V261.25H170.609V249.547H172.359L172.438 250.406C172.995 249.729 173.753 249.391 174.711 249.391C175.742 249.391 176.549 249.776 177.133 250.547C177.721 251.312 178.016 252.378 178.016 253.742V253.859ZM176.125 253.695C176.125 252.852 175.956 252.182 175.617 251.688C175.284 251.193 174.805 250.945 174.18 250.945C173.404 250.945 172.846 251.266 172.508 251.906V255.656C172.852 256.312 173.414 256.641 174.195 256.641C174.799 256.641 175.271 256.398 175.609 255.914C175.953 255.424 176.125 254.685 176.125 253.695ZM180.773 256C181.128 256 181.401 256.102 181.594 256.305C181.786 256.503 181.883 256.753 181.883 257.055C181.883 257.352 181.786 257.599 181.594 257.797C181.401 257.99 181.128 258.086 180.773 258.086C180.435 258.086 180.167 257.99 179.969 257.797C179.771 257.604 179.672 257.357 179.672 257.055C179.672 256.753 179.768 256.503 179.961 256.305C180.154 256.102 180.424 256 180.773 256ZM180.773 249.367C181.128 249.367 181.401 249.469 181.594 249.672C181.786 249.87 181.883 250.12 181.883 250.422C181.883 250.719 181.786 250.966 181.594 251.164C181.401 251.357 181.128 251.453 180.773 251.453C180.435 251.453 180.167 251.357 179.969 251.164C179.771 250.971 179.672 250.724 179.672 250.422C179.672 250.12 179.768 249.87 179.961 249.672C180.154 249.469 180.424 249.367 180.773 249.367ZM223.797 249.367C224.151 249.367 224.424 249.469 224.617 249.672C224.81 249.87 224.906 250.12 224.906 250.422C224.906 250.719 224.81 250.966 224.617 251.164C224.424 251.357 224.151 251.453 223.797 251.453C223.458 251.453 223.19 251.357 222.992 251.164C222.794 250.971 222.695 250.724 222.695 250.422C222.695 250.12 222.792 249.87 222.984 249.672C223.177 249.469 223.448 249.367 223.797 249.367ZM223.227 260.562L222.203 259.953C222.505 259.479 222.711 259.065 222.82 258.711C222.935 258.362 222.995 258.005 223 257.641V256.164H224.711L224.703 257.531C224.698 258.083 224.557 258.635 224.281 259.188C224.01 259.745 223.659 260.203 223.227 260.562Z" fill="#222222"/>
<path d="M195.289 255.383L196.633 249.547H198.484L196.18 258H194.617L192.805 252.195L191.023 258H189.461L187.148 249.547H189L190.367 255.32L192.102 249.547H193.531L195.289 255.383ZM204.18 251.281C203.93 251.24 203.672 251.219 203.406 251.219C202.536 251.219 201.951 251.552 201.648 252.219V258H199.75V249.547H201.562L201.609 250.492C202.068 249.758 202.703 249.391 203.516 249.391C203.786 249.391 204.01 249.427 204.188 249.5L204.18 251.281ZM210.195 258C210.112 257.839 210.039 257.576 209.977 257.211C209.372 257.841 208.633 258.156 207.758 258.156C206.909 258.156 206.216 257.914 205.68 257.43C205.143 256.945 204.875 256.346 204.875 255.633C204.875 254.732 205.208 254.042 205.875 253.562C206.547 253.078 207.505 252.836 208.75 252.836H209.914V252.281C209.914 251.844 209.792 251.495 209.547 251.234C209.302 250.969 208.93 250.836 208.43 250.836C207.997 250.836 207.643 250.945 207.367 251.164C207.091 251.378 206.953 251.651 206.953 251.984H205.055C205.055 251.521 205.208 251.089 205.516 250.688C205.823 250.281 206.24 249.964 206.766 249.734C207.297 249.505 207.888 249.391 208.539 249.391C209.529 249.391 210.318 249.641 210.906 250.141C211.495 250.635 211.797 251.333 211.812 252.234V256.047C211.812 256.807 211.919 257.414 212.133 257.867V258H210.195ZM208.109 256.633C208.484 256.633 208.836 256.542 209.164 256.359C209.497 256.177 209.747 255.932 209.914 255.625V254.031H208.891C208.188 254.031 207.659 254.154 207.305 254.398C206.951 254.643 206.773 254.99 206.773 255.438C206.773 255.802 206.893 256.094 207.133 256.312C207.378 256.526 207.703 256.633 208.109 256.633ZM221.203 253.859C221.203 255.167 220.906 256.211 220.312 256.992C219.719 257.768 218.922 258.156 217.922 258.156C216.995 258.156 216.253 257.852 215.695 257.242V261.25H213.797V249.547H215.547L215.625 250.406C216.182 249.729 216.94 249.391 217.898 249.391C218.93 249.391 219.737 249.776 220.32 250.547C220.909 251.312 221.203 252.378 221.203 253.742V253.859ZM219.312 253.695C219.312 252.852 219.143 252.182 218.805 251.688C218.471 251.193 217.992 250.945 217.367 250.945C216.591 250.945 216.034 251.266 215.695 251.906V255.656C216.039 256.312 216.602 256.641 217.383 256.641C217.987 256.641 218.458 256.398 218.797 255.914C219.141 255.424 219.312 254.685 219.312 253.695Z" fill="#1E73FF"/>
<path d="M457.742 247.508C457.211 247.435 456.753 247.398 456.367 247.398C455.346 247.398 454.836 247.878 454.836 248.836V249.547H456.555V250.953H454.836V258H452.938V250.953H451.648V249.547H452.938V248.789C452.943 247.836 453.224 247.107 453.781 246.602C454.344 246.091 455.135 245.836 456.156 245.836C456.792 245.836 457.953 245.961 459.641 246.211V258H457.742V247.508ZM465.461 258.156C464.258 258.156 463.281 257.779 462.531 257.023C461.786 256.263 461.414 255.253 461.414 253.992V253.758C461.414 252.914 461.576 252.161 461.898 251.5C462.227 250.833 462.685 250.315 463.273 249.945C463.862 249.576 464.518 249.391 465.242 249.391C466.393 249.391 467.281 249.758 467.906 250.492C468.536 251.227 468.852 252.266 468.852 253.609V254.375H463.328C463.385 255.073 463.617 255.625 464.023 256.031C464.435 256.438 464.951 256.641 465.57 256.641C466.44 256.641 467.148 256.289 467.695 255.586L468.719 256.562C468.38 257.068 467.927 257.461 467.359 257.742C466.797 258.018 466.164 258.156 465.461 258.156ZM465.234 250.914C464.714 250.914 464.292 251.096 463.969 251.461C463.651 251.826 463.448 252.333 463.359 252.984H466.977V252.844C466.935 252.208 466.766 251.729 466.469 251.406C466.172 251.078 465.76 250.914 465.234 250.914ZM473.367 252.328L474.977 249.547H477.086L474.5 253.711L477.172 258H475.078L473.391 255.109L471.711 258H469.602L472.273 253.711L469.695 249.547H471.789L473.367 252.328ZM482.062 253.93H477.961V252.398H482.062V253.93ZM491.055 255.383L492.398 249.547H494.25L491.945 258H490.383L488.57 252.195L486.789 258H485.227L482.914 249.547H484.766L486.133 255.32L487.867 249.547H489.297L491.055 255.383ZM499.945 251.281C499.695 251.24 499.438 251.219 499.172 251.219C498.302 251.219 497.716 251.552 497.414 252.219V258H495.516V249.547H497.328L497.375 250.492C497.833 249.758 498.469 249.391 499.281 249.391C499.552 249.391 499.776 249.427 499.953 249.5L499.945 251.281ZM505.961 258C505.878 257.839 505.805 257.576 505.742 257.211C505.138 257.841 504.398 258.156 503.523 258.156C502.674 258.156 501.982 257.914 501.445 257.43C500.909 256.945 500.641 256.346 500.641 255.633C500.641 254.732 500.974 254.042 501.641 253.562C502.312 253.078 503.271 252.836 504.516 252.836H505.68V252.281C505.68 251.844 505.557 251.495 505.312 251.234C505.068 250.969 504.695 250.836 504.195 250.836C503.763 250.836 503.409 250.945 503.133 251.164C502.857 251.378 502.719 251.651 502.719 251.984H500.82C500.82 251.521 500.974 251.089 501.281 250.688C501.589 250.281 502.005 249.964 502.531 249.734C503.062 249.505 503.654 249.391 504.305 249.391C505.294 249.391 506.083 249.641 506.672 250.141C507.26 250.635 507.562 251.333 507.578 252.234V256.047C507.578 256.807 507.685 257.414 507.898 257.867V258H505.961ZM503.875 256.633C504.25 256.633 504.602 256.542 504.93 256.359C505.263 256.177 505.513 255.932 505.68 255.625V254.031H504.656C503.953 254.031 503.424 254.154 503.07 254.398C502.716 254.643 502.539 254.99 502.539 255.438C502.539 255.802 502.659 256.094 502.898 256.312C503.143 256.526 503.469 256.633 503.875 256.633ZM516.969 253.859C516.969 255.167 516.672 256.211 516.078 256.992C515.484 257.768 514.688 258.156 513.688 258.156C512.76 258.156 512.018 257.852 511.461 257.242V261.25H509.562V249.547H511.312L511.391 250.406C511.948 249.729 512.706 249.391 513.664 249.391C514.695 249.391 515.503 249.776 516.086 250.547C516.674 251.312 516.969 252.378 516.969 253.742V253.859ZM515.078 253.695C515.078 252.852 514.909 252.182 514.57 251.688C514.237 251.193 513.758 250.945 513.133 250.945C512.357 250.945 511.799 251.266 511.461 251.906V255.656C511.805 256.312 512.367 256.641 513.148 256.641C513.753 256.641 514.224 256.398 514.562 255.914C514.906 255.424 515.078 254.685 515.078 253.695ZM519.727 256C520.081 256 520.354 256.102 520.547 256.305C520.74 256.503 520.836 256.753 520.836 257.055C520.836 257.352 520.74 257.599 520.547 257.797C520.354 257.99 520.081 258.086 519.727 258.086C519.388 258.086 519.12 257.99 518.922 257.797C518.724 257.604 518.625 257.357 518.625 257.055C518.625 256.753 518.721 256.503 518.914 256.305C519.107 256.102 519.378 256 519.727 256ZM519.727 249.367C520.081 249.367 520.354 249.469 520.547 249.672C520.74 249.87 520.836 250.12 520.836 250.422C520.836 250.719 520.74 250.966 520.547 251.164C520.354 251.357 520.081 251.453 519.727 251.453C519.388 251.453 519.12 251.357 518.922 251.164C518.724 250.971 518.625 250.724 518.625 250.422C518.625 250.12 518.721 249.87 518.914 249.672C519.107 249.469 519.378 249.367 519.727 249.367ZM620.844 249.367C621.198 249.367 621.471 249.469 621.664 249.672C621.857 249.87 621.953 250.12 621.953 250.422C621.953 250.719 621.857 250.966 621.664 251.164C621.471 251.357 621.198 251.453 620.844 251.453C620.505 251.453 620.237 251.357 620.039 251.164C619.841 250.971 619.742 250.724 619.742 250.422C619.742 250.12 619.839 249.87 620.031 249.672C620.224 249.469 620.495 249.367 620.844 249.367ZM620.273 260.562L619.25 259.953C619.552 259.479 619.758 259.065 619.867 258.711C619.982 258.362 620.042 258.005 620.047 257.641V256.164H621.758L621.75 257.531C621.745 258.083 621.604 258.635 621.328 259.188C621.057 259.745 620.706 260.203 620.273 260.562Z" fill="#222222"/>
<path d="M534.242 255.383L535.586 249.547H537.438L535.133 258H533.57L531.758 252.195L529.977 258H528.414L526.102 249.547H527.953L529.32 255.32L531.055 249.547H532.484L534.242 255.383ZM543.133 251.281C542.883 251.24 542.625 251.219 542.359 251.219C541.49 251.219 540.904 251.552 540.602 252.219V258H538.703V249.547H540.516L540.562 250.492C541.021 249.758 541.656 249.391 542.469 249.391C542.74 249.391 542.964 249.427 543.141 249.5L543.133 251.281ZM549.148 258C549.065 257.839 548.992 257.576 548.93 257.211C548.326 257.841 547.586 258.156 546.711 258.156C545.862 258.156 545.169 257.914 544.633 257.43C544.096 256.945 543.828 256.346 543.828 255.633C543.828 254.732 544.161 254.042 544.828 253.562C545.5 253.078 546.458 252.836 547.703 252.836H548.867V252.281C548.867 251.844 548.745 251.495 548.5 251.234C548.255 250.969 547.883 250.836 547.383 250.836C546.951 250.836 546.596 250.945 546.32 251.164C546.044 251.378 545.906 251.651 545.906 251.984H544.008C544.008 251.521 544.161 251.089 544.469 250.688C544.776 250.281 545.193 249.964 545.719 249.734C546.25 249.505 546.841 249.391 547.492 249.391C548.482 249.391 549.271 249.641 549.859 250.141C550.448 250.635 550.75 251.333 550.766 252.234V256.047C550.766 256.807 550.872 257.414 551.086 257.867V258H549.148ZM547.062 256.633C547.438 256.633 547.789 256.542 548.117 256.359C548.451 256.177 548.701 255.932 548.867 255.625V254.031H547.844C547.141 254.031 546.612 254.154 546.258 254.398C545.904 254.643 545.727 254.99 545.727 255.438C545.727 255.802 545.846 256.094 546.086 256.312C546.331 256.526 546.656 256.633 547.062 256.633ZM560.156 253.859C560.156 255.167 559.859 256.211 559.266 256.992C558.672 257.768 557.875 258.156 556.875 258.156C555.948 258.156 555.206 257.852 554.648 257.242V261.25H552.75V249.547H554.5L554.578 250.406C555.135 249.729 555.893 249.391 556.852 249.391C557.883 249.391 558.69 249.776 559.273 250.547C559.862 251.312 560.156 252.378 560.156 253.742V253.859ZM558.266 253.695C558.266 252.852 558.096 252.182 557.758 251.688C557.424 251.193 556.945 250.945 556.32 250.945C555.544 250.945 554.987 251.266 554.648 251.906V255.656C554.992 256.312 555.555 256.641 556.336 256.641C556.94 256.641 557.411 256.398 557.75 255.914C558.094 255.424 558.266 254.685 558.266 253.695ZM565.453 253.93H561.352V252.398H565.453V253.93ZM571.445 251.281C571.195 251.24 570.938 251.219 570.672 251.219C569.802 251.219 569.216 251.552 568.914 252.219V258H567.016V249.547H568.828L568.875 250.492C569.333 249.758 569.969 249.391 570.781 249.391C571.052 249.391 571.276 249.427 571.453 249.5L571.445 251.281ZM576.211 258.156C575.008 258.156 574.031 257.779 573.281 257.023C572.536 256.263 572.164 255.253 572.164 253.992V253.758C572.164 252.914 572.326 252.161 572.648 251.5C572.977 250.833 573.435 250.315 574.023 249.945C574.612 249.576 575.268 249.391 575.992 249.391C577.143 249.391 578.031 249.758 578.656 250.492C579.286 251.227 579.602 252.266 579.602 253.609V254.375H574.078C574.135 255.073 574.367 255.625 574.773 256.031C575.185 256.438 575.701 256.641 576.32 256.641C577.19 256.641 577.898 256.289 578.445 255.586L579.469 256.562C579.13 257.068 578.677 257.461 578.109 257.742C577.547 258.018 576.914 258.156 576.211 258.156ZM575.984 250.914C575.464 250.914 575.042 251.096 574.719 251.461C574.401 251.826 574.198 252.333 574.109 252.984H577.727V252.844C577.685 252.208 577.516 251.729 577.219 251.406C576.922 251.078 576.51 250.914 575.984 250.914ZM583.953 255.594L585.742 249.547H587.703L584.773 258H583.125L580.172 249.547H582.141L583.953 255.594ZM592.508 258.156C591.305 258.156 590.328 257.779 589.578 257.023C588.833 256.263 588.461 255.253 588.461 253.992V253.758C588.461 252.914 588.622 252.161 588.945 251.5C589.273 250.833 589.732 250.315 590.32 249.945C590.909 249.576 591.565 249.391 592.289 249.391C593.44 249.391 594.328 249.758 594.953 250.492C595.583 251.227 595.898 252.266 595.898 253.609V254.375H590.375C590.432 255.073 590.664 255.625 591.07 256.031C591.482 256.438 591.997 256.641 592.617 256.641C593.487 256.641 594.195 256.289 594.742 255.586L595.766 256.562C595.427 257.068 594.974 257.461 594.406 257.742C593.844 258.018 593.211 258.156 592.508 258.156ZM592.281 250.914C591.76 250.914 591.339 251.096 591.016 251.461C590.698 251.826 590.495 252.333 590.406 252.984H594.023V252.844C593.982 252.208 593.812 251.729 593.516 251.406C593.219 251.078 592.807 250.914 592.281 250.914ZM601.805 251.281C601.555 251.24 601.297 251.219 601.031 251.219C600.161 251.219 599.576 251.552 599.273 252.219V258H597.375V249.547H599.188L599.234 250.492C599.693 249.758 600.328 249.391 601.141 249.391C601.411 249.391 601.635 249.427 601.812 249.5L601.805 251.281ZM607.742 255.703C607.742 255.365 607.602 255.107 607.32 254.93C607.044 254.753 606.583 254.596 605.938 254.461C605.292 254.326 604.753 254.154 604.32 253.945C603.372 253.487 602.898 252.823 602.898 251.953C602.898 251.224 603.206 250.615 603.82 250.125C604.435 249.635 605.216 249.391 606.164 249.391C607.174 249.391 607.99 249.641 608.609 250.141C609.234 250.641 609.547 251.289 609.547 252.086H607.648C607.648 251.721 607.513 251.419 607.242 251.18C606.971 250.935 606.612 250.812 606.164 250.812C605.747 250.812 605.406 250.909 605.141 251.102C604.88 251.294 604.75 251.552 604.75 251.875C604.75 252.167 604.872 252.393 605.117 252.555C605.362 252.716 605.857 252.88 606.602 253.047C607.346 253.208 607.93 253.404 608.352 253.633C608.779 253.857 609.094 254.128 609.297 254.445C609.505 254.763 609.609 255.148 609.609 255.602C609.609 256.362 609.294 256.979 608.664 257.453C608.034 257.922 607.208 258.156 606.188 258.156C605.495 258.156 604.878 258.031 604.336 257.781C603.794 257.531 603.372 257.188 603.07 256.75C602.768 256.312 602.617 255.841 602.617 255.336H604.461C604.487 255.784 604.656 256.13 604.969 256.375C605.281 256.615 605.695 256.734 606.211 256.734C606.711 256.734 607.091 256.641 607.352 256.453C607.612 256.26 607.742 256.01 607.742 255.703ZM614.992 258.156C613.789 258.156 612.812 257.779 612.062 257.023C611.318 256.263 610.945 255.253 610.945 253.992V253.758C610.945 252.914 611.107 252.161 611.43 251.5C611.758 250.833 612.216 250.315 612.805 249.945C613.393 249.576 614.049 249.391 614.773 249.391C615.924 249.391 616.812 249.758 617.438 250.492C618.068 251.227 618.383 252.266 618.383 253.609V254.375H612.859C612.917 255.073 613.148 255.625 613.555 256.031C613.966 256.438 614.482 256.641 615.102 256.641C615.971 256.641 616.68 256.289 617.227 255.586L618.25 256.562C617.911 257.068 617.458 257.461 616.891 257.742C616.328 258.018 615.695 258.156 614.992 258.156ZM614.766 250.914C614.245 250.914 613.823 251.096 613.5 251.461C613.182 251.826 612.979 252.333 612.891 252.984H616.508V252.844C616.466 252.208 616.297 251.729 616 251.406C615.703 251.078 615.292 250.914 614.766 250.914Z" fill="#1E73FF"/>
<defs>
<filter id="filter0_d" x="20" y="54" width="56" height="56" filterUnits="userSpaceOnUse" color-interpolation-filters="sRGB">
<feFlood flood-opacity="0" result="BackgroundImageFix"/>
<feColorMatrix in="SourceAlpha" type="matrix" values="0 0 0 0 0 0 0 0 0 0 0 0 0 0 0 0 0 0 127 0"/>
<feOffset dx="6" dy="6"/>
<feColorMatrix type="matrix" values="0 0 0 0 0 0 0 0 0 0 0 0 0 0 0 0 0 0 0.15 0"/>
<feBlend mode="normal" in2="BackgroundImageFix" result="effect1_dropShadow"/>
<feBlend mode="normal" in="SourceGraphic" in2="effect1_dropShadow" result="shape"/>
</filter>
<filter id="filter1_d" x="82" y="54" width="56" height="56" filterUnits="userSpaceOnUse" color-interpolation-filters="sRGB">
<feFlood flood-opacity="0" result="BackgroundImageFix"/>
<feColorMatrix in="SourceAlpha" type="matrix" values="0 0 0 0 0 0 0 0 0 0 0 0 0 0 0 0 0 0 127 0"/>
<feOffset dx="6" dy="6"/>
<feColorMatrix type="matrix" values="0 0 0 0 0 0 0 0 0 0 0 0 0 0 0 0 0 0 0.15 0"/>
<feBlend mode="normal" in2="BackgroundImageFix" result="effect1_dropShadow"/>
<feBlend mode="normal" in="SourceGraphic" in2="effect1_dropShadow" result="shape"/>
</filter>
<filter id="filter2_d" x="144" y="54" width="56" height="56" filterUnits="userSpaceOnUse" color-interpolation-filters="sRGB">
<feFlood flood-opacity="0" result="BackgroundImageFix"/>
<feColorMatrix in="SourceAlpha" type="matrix" values="0 0 0 0 0 0 0 0 0 0 0 0 0 0 0 0 0 0 127 0"/>
<feOffset dx="6" dy="6"/>
<feColorMatrix type="matrix" values="0 0 0 0 0 0 0 0 0 0 0 0 0 0 0 0 0 0 0.15 0"/>
<feBlend mode="normal" in2="BackgroundImageFix" result="effect1_dropShadow"/>
<feBlend mode="normal" in="SourceGraphic" in2="effect1_dropShadow" result="shape"/>
</filter>
<filter id="filter3_d" x="206" y="54" width="56" height="56" filterUnits="userSpaceOnUse" color-interpolation-filters="sRGB">
<feFlood flood-opacity="0" result="BackgroundImageFix"/>
<feColorMatrix in="SourceAlpha" type="matrix" values="0 0 0 0 0 0 0 0 0 0 0 0 0 0 0 0 0 0 127 0"/>
<feOffset dx="6" dy="6"/>
<feColorMatrix type="matrix" values="0 0 0 0 0 0 0 0 0 0 0 0 0 0 0 0 0 0 0.15 0"/>
<feBlend mode="normal" in2="BackgroundImageFix" result="effect1_dropShadow"/>
<feBlend mode="normal" in="SourceGraphic" in2="effect1_dropShadow" result="shape"/>
</filter>
<filter id="filter4_d" x="268" y="54" width="56" height="56" filterUnits="userSpaceOnUse" color-interpolation-filters="sRGB">
<feFlood flood-opacity="0" result="BackgroundImageFix"/>
<feColorMatrix in="SourceAlpha" type="matrix" values="0 0 0 0 0 0 0 0 0 0 0 0 0 0 0 0 0 0 127 0"/>
<feOffset dx="6" dy="6"/>
<feColorMatrix type="matrix" values="0 0 0 0 0 0 0 0 0 0 0 0 0 0 0 0 0 0 0.15 0"/>
<feBlend mode="normal" in2="BackgroundImageFix" result="effect1_dropShadow"/>
<feBlend mode="normal" in="SourceGraphic" in2="effect1_dropShadow" result="shape"/>
</filter>
<filter id="filter5_d" x="37" y="297" width="86" height="56" filterUnits="userSpaceOnUse" color-interpolation-filters="sRGB">
<feFlood flood-opacity="0" result="BackgroundImageFix"/>
<feColorMatrix in="SourceAlpha" type="matrix" values="0 0 0 0 0 0 0 0 0 0 0 0 0 0 0 0 0 0 127 0"/>
<feOffset dx="6" dy="6"/>
<feColorMatrix type="matrix" values="0 0 0 0 0 0 0 0 0 0 0 0 0 0 0 0 0 0 0.15 0"/>
<feBlend mode="normal" in2="BackgroundImageFix" result="effect1_dropShadow"/>
<feBlend mode="normal" in="SourceGraphic" in2="effect1_dropShadow" result="shape"/>
</filter>
<filter id="filter6_d" x="129" y="297" width="86" height="56" filterUnits="userSpaceOnUse" color-interpolation-filters="sRGB">
<feFlood flood-opacity="0" result="BackgroundImageFix"/>
<feColorMatrix in="SourceAlpha" type="matrix" values="0 0 0 0 0 0 0 0 0 0 0 0 0 0 0 0 0 0 127 0"/>
<feOffset dx="6" dy="6"/>
<feColorMatrix type="matrix" values="0 0 0 0 0 0 0 0 0 0 0 0 0 0 0 0 0 0 0.15 0"/>
<feBlend mode="normal" in2="BackgroundImageFix" result="effect1_dropShadow"/>
<feBlend mode="normal" in="SourceGraphic" in2="effect1_dropShadow" result="shape"/>
</filter>
<filter id="filter7_d" x="221" y="297" width="86" height="56" filterUnits="userSpaceOnUse" color-interpolation-filters="sRGB">
<feFlood flood-opacity="0" result="BackgroundImageFix"/>
<feColorMatrix in="SourceAlpha" type="matrix" values="0 0 0 0 0 0 0 0 0 0 0 0 0 0 0 0 0 0 127 0"/>
<feOffset dx="6" dy="6"/>
<feColorMatrix type="matrix" values="0 0 0 0 0 0 0 0 0 0 0 0 0 0 0 0 0 0 0.15 0"/>
<feBlend mode="normal" in2="BackgroundImageFix" result="effect1_dropShadow"/>
<feBlend mode="normal" in="SourceGraphic" in2="effect1_dropShadow" result="shape"/>
</filter>
<filter id="filter8_d" x="37" y="387" width="86" height="56" filterUnits="userSpaceOnUse" color-interpolation-filters="sRGB">
<feFlood flood-opacity="0" result="BackgroundImageFix"/>
<feColorMatrix in="SourceAlpha" type="matrix" values="0 0 0 0 0 0 0 0 0 0 0 0 0 0 0 0 0 0 127 0"/>
<feOffset dx="6" dy="6"/>
<feColorMatrix type="matrix" values="0 0 0 0 0 0 0 0 0 0 0 0 0 0 0 0 0 0 0.15 0"/>
<feBlend mode="normal" in2="BackgroundImageFix" result="effect1_dropShadow"/>
<feBlend mode="normal" in="SourceGraphic" in2="effect1_dropShadow" result="shape"/>
</filter>
<filter id="filter9_d" x="129" y="387" width="86" height="56" filterUnits="userSpaceOnUse" color-interpolation-filters="sRGB">
<feFlood flood-opacity="0" result="BackgroundImageFix"/>
<feColorMatrix in="SourceAlpha" type="matrix" values="0 0 0 0 0 0 0 0 0 0 0 0 0 0 0 0 0 0 127 0"/>
<feOffset dx="6" dy="6"/>
<feColorMatrix type="matrix" values="0 0 0 0 0 0 0 0 0 0 0 0 0 0 0 0 0 0 0.15 0"/>
<feBlend mode="normal" in2="BackgroundImageFix" result="effect1_dropShadow"/>
<feBlend mode="normal" in="SourceGraphic" in2="effect1_dropShadow" result="shape"/>
</filter>
<filter id="filter10_d" x="405" y="386" width="86" height="56" filterUnits="userSpaceOnUse" color-interpolation-filters="sRGB">
<feFlood flood-opacity="0" result="BackgroundImageFix"/>
<feColorMatrix in="SourceAlpha" type="matrix" values="0 0 0 0 0 0 0 0 0 0 0 0 0 0 0 0 0 0 127 0"/>
<feOffset dx="6" dy="6"/>
<feColorMatrix type="matrix" values="0 0 0 0 0 0 0 0 0 0 0 0 0 0 0 0 0 0 0.15 0"/>
<feBlend mode="normal" in2="BackgroundImageFix" result="effect1_dropShadow"/>
<feBlend mode="normal" in="SourceGraphic" in2="effect1_dropShadow" result="shape"/>
</filter>
<filter id="filter11_d" x="497" y="386" width="86" height="56" filterUnits="userSpaceOnUse" color-interpolation-filters="sRGB">
<feFlood flood-opacity="0" result="BackgroundImageFix"/>
<feColorMatrix in="SourceAlpha" type="matrix" values="0 0 0 0 0 0 0 0 0 0 0 0 0 0 0 0 0 0 127 0"/>
<feOffset dx="6" dy="6"/>
<feColorMatrix type="matrix" values="0 0 0 0 0 0 0 0 0 0 0 0 0 0 0 0 0 0 0.15 0"/>
<feBlend mode="normal" in2="BackgroundImageFix" result="effect1_dropShadow"/>
<feBlend mode="normal" in="SourceGraphic" in2="effect1_dropShadow" result="shape"/>
</filter>
<filter id="filter12_d" x="589" y="386" width="86" height="56" filterUnits="userSpaceOnUse" color-interpolation-filters="sRGB">
<feFlood flood-opacity="0" result="BackgroundImageFix"/>
<feColorMatrix in="SourceAlpha" type="matrix" values="0 0 0 0 0 0 0 0 0 0 0 0 0 0 0 0 0 0 127 0"/>
<feOffset dx="6" dy="6"/>
<feColorMatrix type="matrix" values="0 0 0 0 0 0 0 0 0 0 0 0 0 0 0 0 0 0 0.15 0"/>
<feBlend mode="normal" in2="BackgroundImageFix" result="effect1_dropShadow"/>
<feBlend mode="normal" in="SourceGraphic" in2="effect1_dropShadow" result="shape"/>
</filter>
<filter id="filter13_d" x="405" y="297" width="86" height="56" filterUnits="userSpaceOnUse" color-interpolation-filters="sRGB">
<feFlood flood-opacity="0" result="BackgroundImageFix"/>
<feColorMatrix in="SourceAlpha" type="matrix" values="0 0 0 0 0 0 0 0 0 0 0 0 0 0 0 0 0 0 127 0"/>
<feOffset dx="6" dy="6"/>
<feColorMatrix type="matrix" values="0 0 0 0 0 0 0 0 0 0 0 0 0 0 0 0 0 0 0.15 0"/>
<feBlend mode="normal" in2="BackgroundImageFix" result="effect1_dropShadow"/>
<feBlend mode="normal" in="SourceGraphic" in2="effect1_dropShadow" result="shape"/>
</filter>
<filter id="filter14_d" x="497" y="297" width="86" height="56" filterUnits="userSpaceOnUse" color-interpolation-filters="sRGB">
<feFlood flood-opacity="0" result="BackgroundImageFix"/>
<feColorMatrix in="SourceAlpha" type="matrix" values="0 0 0 0 0 0 0 0 0 0 0 0 0 0 0 0 0 0 127 0"/>
<feOffset dx="6" dy="6"/>
<feColorMatrix type="matrix" values="0 0 0 0 0 0 0 0 0 0 0 0 0 0 0 0 0 0 0.15 0"/>
<feBlend mode="normal" in2="BackgroundImageFix" result="effect1_dropShadow"/>
<feBlend mode="normal" in="SourceGraphic" in2="effect1_dropShadow" result="shape"/>
</filter>
</defs>
</svg>
