<svg width="350" height="187" viewBox="0 0 350 187" fill="none" xmlns="http://www.w3.org/2000/svg">
<rect x="1" y="27" width="348" height="159" rx="5" fill="#F7F7F7" stroke="#AAAAAA" stroke-width="2" stroke-dasharray="6 4"/>
<path d="M10 106.5L338 106.5" stroke="#AAAAAA" stroke-dasharray="4 2"/>
<path d="M5.63965 3.81934C5.1748 3.75553 4.77376 3.72363 4.43652 3.72363C3.54329 3.72363 3.09668 4.1429 3.09668 4.98145V5.60352H4.60059V6.83398H3.09668V13H1.43555V6.83398H0.307617V5.60352H1.43555V4.94043C1.4401 4.10645 1.6862 3.46842 2.17383 3.02637C2.66602 2.57975 3.35872 2.35645 4.25195 2.35645C4.80794 2.35645 5.82422 2.46582 7.30078 2.68457V13H5.63965V3.81934ZM12.3936 13.1367C11.3408 13.1367 10.4863 12.8063 9.83008 12.1455C9.17839 11.4801 8.85254 10.596 8.85254 9.49316V9.28809C8.85254 8.5498 8.99382 7.89128 9.27637 7.3125C9.56348 6.72917 9.96452 6.27572 10.4795 5.95215C10.9945 5.62858 11.5687 5.4668 12.2021 5.4668C13.2093 5.4668 13.9863 5.78809 14.5332 6.43066C15.0846 7.07324 15.3604 7.98242 15.3604 9.1582V9.82812H10.5273C10.5775 10.4388 10.7803 10.9219 11.1357 11.2773C11.4958 11.6328 11.9469 11.8105 12.4893 11.8105C13.2503 11.8105 13.8701 11.5029 14.3486 10.8877L15.2441 11.7422C14.9479 12.1842 14.5514 12.5283 14.0547 12.7744C13.5625 13.016 13.0088 13.1367 12.3936 13.1367ZM12.1953 6.7998C11.7396 6.7998 11.3704 6.95931 11.0879 7.27832C10.8099 7.59733 10.6322 8.04167 10.5547 8.61133H13.7197V8.48828C13.6833 7.93229 13.5352 7.51302 13.2754 7.23047C13.0156 6.94336 12.6556 6.7998 12.1953 6.7998ZM19.3115 8.03711L20.7197 5.60352H22.5654L20.3027 9.24707L22.6406 13H20.8086L19.332 10.4707L17.8623 13H16.0166L18.3545 9.24707L16.0986 5.60352H17.9307L19.3115 8.03711ZM30.2217 11.8105C30.6364 11.8105 30.9805 11.6898 31.2539 11.4482C31.5273 11.2067 31.6732 10.9082 31.6914 10.5527H33.2568C33.2386 11.013 33.0951 11.4437 32.8262 11.8447C32.5573 12.2412 32.1927 12.5557 31.7324 12.7881C31.2721 13.0205 30.7754 13.1367 30.2422 13.1367C29.2077 13.1367 28.3874 12.8018 27.7812 12.1318C27.1751 11.4619 26.8721 10.5368 26.8721 9.35645V9.18555C26.8721 8.0599 27.1729 7.15983 27.7744 6.48535C28.376 5.80632 29.1963 5.4668 30.2354 5.4668C31.1149 5.4668 31.8304 5.72428 32.3818 6.23926C32.9378 6.74967 33.2295 7.42188 33.2568 8.25586H31.6914C31.6732 7.83203 31.5273 7.4834 31.2539 7.20996C30.985 6.93652 30.641 6.7998 30.2217 6.7998C29.6839 6.7998 29.2692 6.99577 28.9775 7.3877C28.6859 7.77507 28.5378 8.36523 28.5332 9.1582V9.4248C28.5332 10.2269 28.6768 10.8262 28.9639 11.2227C29.2555 11.6146 29.6748 11.8105 30.2217 11.8105ZM34.2002 9.2334C34.2002 8.50879 34.3438 7.8571 34.6309 7.27832C34.918 6.69499 35.3213 6.24837 35.8408 5.93848C36.3604 5.62402 36.9574 5.4668 37.6318 5.4668C38.6299 5.4668 39.4388 5.78809 40.0586 6.43066C40.6829 7.07324 41.0202 7.92546 41.0703 8.9873L41.0771 9.37695C41.0771 10.1061 40.9359 10.7578 40.6533 11.332C40.3753 11.9062 39.9743 12.3506 39.4502 12.665C38.9307 12.9795 38.3291 13.1367 37.6455 13.1367C36.6019 13.1367 35.7656 12.7904 35.1367 12.0977C34.5124 11.4004 34.2002 10.473 34.2002 9.31543V9.2334ZM35.8613 9.37695C35.8613 10.138 36.0186 10.735 36.333 11.168C36.6475 11.5964 37.085 11.8105 37.6455 11.8105C38.2061 11.8105 38.6413 11.5918 38.9512 11.1543C39.2656 10.7168 39.4229 10.0765 39.4229 9.2334C39.4229 8.486 39.2611 7.89355 38.9375 7.45605C38.6185 7.01855 38.1833 6.7998 37.6318 6.7998C37.0895 6.7998 36.6589 7.01628 36.3398 7.44922C36.0208 7.8776 35.8613 8.52018 35.8613 9.37695ZM44.0234 5.60352L44.0713 6.45801C44.6182 5.7972 45.3359 5.4668 46.2246 5.4668C47.765 5.4668 48.5488 6.34863 48.5762 8.1123V13H46.915V8.20801C46.915 7.73861 46.8125 7.39225 46.6074 7.16895C46.4069 6.94108 46.0765 6.82715 45.6162 6.82715C44.9463 6.82715 44.4473 7.13021 44.1191 7.73633V13H42.458V5.60352H44.0234ZM52.3564 3.80566V5.60352H53.6621V6.83398H52.3564V10.9629C52.3564 11.2454 52.4111 11.4505 52.5205 11.5781C52.6344 11.7012 52.835 11.7627 53.1221 11.7627C53.3135 11.7627 53.5072 11.7399 53.7031 11.6943V12.9795C53.3249 13.0843 52.9603 13.1367 52.6094 13.1367C51.3333 13.1367 50.6953 12.4326 50.6953 11.0244V6.83398H49.4785V5.60352H50.6953V3.80566H52.3564ZM59.3564 13C59.2835 12.8587 59.2197 12.6286 59.165 12.3096C58.6364 12.861 57.9893 13.1367 57.2236 13.1367C56.4808 13.1367 55.8747 12.9248 55.4053 12.501C54.9359 12.0771 54.7012 11.5531 54.7012 10.9287C54.7012 10.1403 54.9928 9.53646 55.5762 9.11719C56.1641 8.69336 57.0026 8.48145 58.0918 8.48145H59.1104V7.99609C59.1104 7.61328 59.0033 7.30794 58.7891 7.08008C58.5749 6.84766 58.249 6.73145 57.8115 6.73145C57.4333 6.73145 57.1234 6.82715 56.8818 7.01855C56.6403 7.2054 56.5195 7.44466 56.5195 7.73633H54.8584C54.8584 7.33073 54.9928 6.95247 55.2617 6.60156C55.5306 6.24609 55.8952 5.9681 56.3555 5.76758C56.8203 5.56706 57.3376 5.4668 57.9072 5.4668C58.7731 5.4668 59.4635 5.68555 59.9785 6.12305C60.4935 6.55599 60.7578 7.16667 60.7715 7.95508V11.291C60.7715 11.9564 60.8649 12.4873 61.0518 12.8838V13H59.3564ZM57.5312 11.8037C57.8594 11.8037 58.167 11.724 58.4541 11.5645C58.7458 11.4049 58.9645 11.1908 59.1104 10.9219V9.52734H58.2148C57.5996 9.52734 57.137 9.63444 56.8271 9.84863C56.5173 10.0628 56.3623 10.3659 56.3623 10.7578C56.3623 11.0768 56.4671 11.332 56.6768 11.5234C56.891 11.7103 57.1758 11.8037 57.5312 11.8037ZM64.2783 13H62.6172V5.60352H64.2783V13ZM62.5146 3.68262C62.5146 3.42741 62.5944 3.21549 62.7539 3.04688C62.918 2.87826 63.1504 2.79395 63.4512 2.79395C63.752 2.79395 63.9844 2.87826 64.1484 3.04688C64.3125 3.21549 64.3945 3.42741 64.3945 3.68262C64.3945 3.93327 64.3125 4.1429 64.1484 4.31152C63.9844 4.47559 63.752 4.55762 63.4512 4.55762C63.1504 4.55762 62.918 4.47559 62.7539 4.31152C62.5944 4.1429 62.5146 3.93327 62.5146 3.68262ZM67.6348 5.60352L67.6826 6.45801C68.2295 5.7972 68.9473 5.4668 69.8359 5.4668C71.3763 5.4668 72.1602 6.34863 72.1875 8.1123V13H70.5264V8.20801C70.5264 7.73861 70.4238 7.39225 70.2188 7.16895C70.0182 6.94108 69.6878 6.82715 69.2275 6.82715C68.5576 6.82715 68.0586 7.13021 67.7305 7.73633V13H66.0693V5.60352H67.6348ZM77.1436 13.1367C76.0908 13.1367 75.2363 12.8063 74.5801 12.1455C73.9284 11.4801 73.6025 10.596 73.6025 9.49316V9.28809C73.6025 8.5498 73.7438 7.89128 74.0264 7.3125C74.3135 6.72917 74.7145 6.27572 75.2295 5.95215C75.7445 5.62858 76.3187 5.4668 76.9521 5.4668C77.9593 5.4668 78.7363 5.78809 79.2832 6.43066C79.8346 7.07324 80.1104 7.98242 80.1104 9.1582V9.82812H75.2773C75.3275 10.4388 75.5303 10.9219 75.8857 11.2773C76.2458 11.6328 76.6969 11.8105 77.2393 11.8105C78.0003 11.8105 78.6201 11.5029 79.0986 10.8877L79.9941 11.7422C79.6979 12.1842 79.3014 12.5283 78.8047 12.7744C78.3125 13.016 77.7588 13.1367 77.1436 13.1367ZM76.9453 6.7998C76.4896 6.7998 76.1204 6.95931 75.8379 7.27832C75.5599 7.59733 75.3822 8.04167 75.3047 8.61133H78.4697V8.48828C78.4333 7.93229 78.2852 7.51302 78.0254 7.23047C77.7656 6.94336 77.4056 6.7998 76.9453 6.7998ZM85.2783 7.12109C85.0596 7.08464 84.834 7.06641 84.6016 7.06641C83.8405 7.06641 83.3278 7.35807 83.0635 7.94141V13H81.4023V5.60352H82.9883L83.0293 6.43066C83.4303 5.78809 83.9863 5.4668 84.6973 5.4668C84.9342 5.4668 85.1302 5.4987 85.2852 5.5625L85.2783 7.12109Z" fill="#BBBBBB"/>
<g opacity="0.8">
<path d="M10 52C10 50.3431 11.3431 49 13 49H67C68.6569 49 70 50.3431 70 52V85C70 86.6569 68.6569 88 67 88H13C11.3431 88 10 86.6569 10 85V52Z" fill="#1E73FF"/>
<path d="M23.8281 72.5205C24.2578 72.5205 24.5605 72.4912 24.7363 72.4326C24.9316 72.3545 25.1367 72.3154 25.3516 72.3154C25.5664 72.3154 25.7617 72.4033 25.9375 72.5791C26.1133 72.7354 26.2012 72.9795 26.2012 73.3115C26.2012 73.624 26.0449 73.8486 25.7324 73.9854C25.0488 74.2979 24.4629 74.4541 23.9746 74.4541C23.4863 74.4541 23.0371 74.4248 22.627 74.3662C22.2363 74.3271 21.8555 74.2002 21.4844 73.9854C20.6055 73.4775 20.166 72.5791 20.166 71.29V63.8486H18.4668C18.1738 63.8486 18.0176 63.6924 17.998 63.3799C17.998 63.2432 18.0762 63.1162 18.2324 62.999L21.4844 59.8057C21.6211 59.6689 21.7578 59.6006 21.8945 59.6006C22.0312 59.5811 22.1387 59.6201 22.2168 59.7178C22.2949 59.8154 22.334 59.9326 22.334 60.0693V61.9736H25.0586C25.332 61.9736 25.5566 62.0615 25.7324 62.2373C25.9082 62.4131 25.9961 62.6377 25.9961 62.9111C25.9961 63.1846 25.9082 63.4092 25.7324 63.585C25.5566 63.7607 25.332 63.8486 25.0586 63.8486H22.334V71.1143C22.334 71.7197 22.5195 72.1299 22.8906 72.3447C23.0859 72.4619 23.3984 72.5205 23.8281 72.5205ZM30.0391 68.8877C30.1758 69.9619 30.5859 70.8213 31.2695 71.4658C31.9727 72.0908 32.9297 72.4033 34.1406 72.4033C35.3711 72.4033 36.416 72.208 37.2754 71.8174C37.5488 71.6807 37.793 71.6123 38.0078 71.6123C38.2227 71.5928 38.418 71.6709 38.5938 71.8467C38.7891 72.0225 38.8867 72.2178 38.8867 72.4326C38.8867 72.8623 38.7109 73.165 38.3594 73.3408C38.0273 73.5166 37.7246 73.6729 37.4512 73.8096C37.1777 73.9463 36.8848 74.0635 36.5723 74.1611C35.8496 74.3564 35.0098 74.4541 34.0527 74.4541C32.0801 74.4541 30.5469 73.9072 29.4531 72.8135C28.3789 71.7002 27.8418 70.1279 27.8418 68.0967C27.8418 66.3389 28.3008 64.874 29.2188 63.7021C30.2539 62.3936 31.709 61.7393 33.584 61.7393C35.3809 61.7393 36.7969 62.3447 37.832 63.5557C38.8086 64.6885 39.2969 66.1045 39.2969 67.8037C39.2969 68.0967 39.1895 68.3506 38.9746 68.5654C38.7793 68.7803 38.5254 68.8877 38.2129 68.8877H30.0391ZM33.584 63.585C32.1582 63.585 31.123 64.2197 30.4785 65.4893C30.2441 65.9385 30.0977 66.4756 30.0391 67.1006H37.1289C37.0703 65.9678 36.6504 65.0693 35.8691 64.4053C35.2441 63.8584 34.4824 63.585 33.584 63.585ZM51.8652 72.5205C52.041 72.7158 52.1191 72.9502 52.0996 73.2236C52.0996 73.4971 52.002 73.751 51.8066 73.9854C51.6309 74.2197 51.3574 74.3369 50.9863 74.3369C50.6348 74.3369 50.3613 74.2002 50.166 73.9268L46.7383 69.8252L43.5449 73.8682C43.3105 74.1807 43.0176 74.3369 42.666 74.3369C42.3145 74.3369 42.041 74.2393 41.8457 74.0439C41.6504 73.8486 41.5527 73.6045 41.5527 73.3115C41.5527 73.0186 41.6309 72.7646 41.7871 72.5498L45.5371 68.1846L41.7871 63.6143C41.6113 63.3994 41.5234 63.1553 41.5234 62.8818C41.543 62.5889 41.6504 62.3447 41.8457 62.1494C42.0605 61.9541 42.334 61.8564 42.666 61.8564C43.0176 61.8564 43.291 61.9932 43.4863 62.2666L46.8555 66.4268L50.1953 62.2666C50.3906 61.9932 50.6543 61.8564 50.9863 61.8564C51.3379 61.8564 51.6113 61.9541 51.8066 62.1494C52.0215 62.3447 52.1289 62.5791 52.1289 62.8525C52.1289 63.126 52.0508 63.3604 51.8945 63.5557L48.1152 68.0381L51.8652 72.5205ZM59.6875 72.5205C60.1172 72.5205 60.4199 72.4912 60.5957 72.4326C60.791 72.3545 60.9961 72.3154 61.2109 72.3154C61.4258 72.3154 61.6211 72.4033 61.7969 72.5791C61.9727 72.7354 62.0605 72.9795 62.0605 73.3115C62.0605 73.624 61.9043 73.8486 61.5918 73.9854C60.9082 74.2979 60.3223 74.4541 59.834 74.4541C59.3457 74.4541 58.8965 74.4248 58.4863 74.3662C58.0957 74.3271 57.7148 74.2002 57.3438 73.9854C56.4648 73.4775 56.0254 72.5791 56.0254 71.29V63.8486H54.3262C54.0332 63.8486 53.877 63.6924 53.8574 63.3799C53.8574 63.2432 53.9355 63.1162 54.0918 62.999L57.3438 59.8057C57.4805 59.6689 57.6172 59.6006 57.7539 59.6006C57.8906 59.5811 57.998 59.6201 58.0762 59.7178C58.1543 59.8154 58.1934 59.9326 58.1934 60.0693V61.9736H60.918C61.1914 61.9736 61.416 62.0615 61.5918 62.2373C61.7676 62.4131 61.8555 62.6377 61.8555 62.9111C61.8555 63.1846 61.7676 63.4092 61.5918 63.585C61.416 63.7607 61.1914 63.8486 60.918 63.8486H58.1934V71.1143C58.1934 71.7197 58.3789 72.1299 58.75 72.3447C58.9453 72.4619 59.2578 72.5205 59.6875 72.5205Z" fill="white"/>
</g>
<g opacity="0.8">
<path d="M80 47C80 45.3431 81.3431 44 83 44H137C138.657 44 140 45.3431 140 47V91C140 92.6569 138.657 94 137 94H83C81.3431 94 80 92.6569 80 91V47Z" fill="#1E73FF"/>
<path d="M97.3047 66.579V66.259H98.7767V64.067H100.377V66.259H102.057V66.579H100.377V71.523C100.377 72.8457 100.665 73.507 101.241 73.507C101.465 73.507 101.673 73.4377 101.865 73.299C102.057 73.1497 102.206 73.0057 102.313 72.867C102.419 72.7177 102.494 72.643 102.537 72.643C102.579 72.643 102.601 72.6697 102.601 72.723C102.601 72.7657 102.585 72.819 102.553 72.883C102.233 73.5123 101.646 73.827 100.793 73.827C100.11 73.827 99.6034 73.5657 99.2727 73.043C98.942 72.5203 98.7767 71.8217 98.7767 70.947V66.579H97.3047ZM105.658 73.107C105.808 73.2137 105.994 73.3043 106.218 73.379C106.453 73.4537 106.736 73.491 107.066 73.491C107.397 73.491 107.749 73.4163 108.122 73.267C108.496 73.107 108.757 72.8723 108.906 72.563H109.37C108.954 73.4057 108.08 73.827 106.746 73.827C105.722 73.827 104.853 73.4643 104.138 72.739C103.434 72.003 103.082 71.0857 103.082 69.987C103.082 68.8777 103.456 67.955 104.202 67.219C104.949 66.4723 105.76 66.099 106.634 66.099C107.52 66.099 108.213 66.3443 108.714 66.835C109.226 67.315 109.482 67.8857 109.482 68.547C109.482 69.2083 109.21 69.795 108.666 70.307C108.122 70.819 107.408 71.075 106.522 71.075C105.637 71.075 105.018 70.6963 104.666 69.939C104.677 70.0137 104.688 70.1737 104.698 70.419C104.72 70.6643 104.736 70.8563 104.746 70.995C104.757 71.1337 104.784 71.3257 104.826 71.571C104.88 71.8163 104.933 72.0137 104.986 72.163C105.05 72.3123 105.141 72.483 105.258 72.675C105.376 72.8563 105.509 73.0003 105.658 73.107ZM108.106 68.467C108.106 67.091 107.584 66.403 106.538 66.403C106.026 66.403 105.605 66.6537 105.274 67.155C104.954 67.6457 104.773 68.243 104.73 68.947C104.858 68.6483 105.05 68.4083 105.306 68.227C105.573 68.0457 105.845 67.955 106.122 67.955C106.41 67.955 106.554 68.0083 106.554 68.115C106.554 68.211 106.49 68.259 106.362 68.259C105.872 68.291 105.509 68.4137 105.274 68.627C105.05 68.8403 104.938 69.1283 104.938 69.491C104.938 69.8537 105.066 70.163 105.322 70.419C105.589 70.6643 105.898 70.787 106.25 70.787C106.826 70.787 107.28 70.5577 107.61 70.099C107.941 69.6297 108.106 69.0857 108.106 68.467ZM118.058 71.763C118.154 71.763 118.202 71.827 118.202 71.955C118.191 72.4243 117.999 72.8403 117.626 73.203C117.263 73.5657 116.874 73.747 116.458 73.747C116.052 73.747 115.684 73.635 115.354 73.411C115.023 73.187 114.756 72.8777 114.554 72.483L113.562 70.547C112.783 71.059 112.18 71.5603 111.754 72.051C111.327 72.5417 111.103 73.0803 111.082 73.667H110.762C110.762 72.963 110.975 72.371 111.402 71.891C111.828 71.411 112.5 70.867 113.418 70.259L112.506 68.451C111.951 67.363 111.492 66.819 111.13 66.819C110.735 66.819 110.452 67.155 110.282 67.827C110.228 68.0617 110.191 68.1843 110.17 68.195C110.074 68.195 110.026 68.1363 110.026 68.019C110.026 67.891 110.074 67.699 110.17 67.443C110.276 67.187 110.479 66.9203 110.778 66.643C111.076 66.355 111.418 66.211 111.802 66.211C112.186 66.211 112.554 66.3497 112.906 66.627C113.268 66.8937 113.567 67.267 113.802 67.747L114.698 69.523C115.476 69.0217 116.063 68.515 116.458 68.003C116.863 67.4803 117.082 66.899 117.114 66.259H117.434C117.434 67.0057 117.236 67.635 116.842 68.147C116.447 68.6483 115.786 69.203 114.858 69.811L116.25 72.563C116.452 72.947 116.735 73.139 117.098 73.139C117.332 73.139 117.519 73.0323 117.658 72.819C117.807 72.595 117.908 72.3657 117.962 72.131L118.058 71.763ZM118.336 66.579V66.259H119.808V64.067H121.408V66.259H123.088V66.579H121.408V71.523C121.408 72.8457 121.696 73.507 122.272 73.507C122.496 73.507 122.704 73.4377 122.896 73.299C123.088 73.1497 123.237 73.0057 123.344 72.867C123.451 72.7177 123.525 72.643 123.568 72.643C123.611 72.643 123.632 72.6697 123.632 72.723C123.632 72.7657 123.616 72.819 123.584 72.883C123.264 73.5123 122.677 73.827 121.824 73.827C121.141 73.827 120.635 73.5657 120.304 73.043C119.973 72.5203 119.808 71.8217 119.808 70.947V66.579H118.336Z" fill="white"/>
</g>
<g opacity="0.8">
<path d="M150 60C150 58.3431 151.343 57 153 57H207C208.657 57 210 58.3431 210 60V76C210 77.6569 208.657 79 207 79H153C151.343 79 150 77.6569 150 76V60Z" fill="#1E73FF"/>
<path d="M170.04 74.0016C169.464 74.0016 168.996 73.8216 168.636 73.4616C168.288 73.1016 168.114 72.5616 168.114 71.8416C168.114 71.5416 168.162 71.1516 168.258 70.6716L169.338 65.6136H168.744L168.888 64.8936H169.482L170.022 62.4096L172.686 62.0496L172.074 64.8936H173.154L173.01 65.6136H171.93L170.778 71.0136C170.73 71.1936 170.706 71.3856 170.706 71.5896C170.706 71.8296 170.76 72.0036 170.868 72.1116C170.988 72.2076 171.18 72.2556 171.444 72.2556C171.792 72.2556 172.116 72.1116 172.416 71.8236C172.716 71.5236 172.932 71.1396 173.064 70.6716H173.82C173.376 71.9676 172.806 72.8496 172.11 73.3176C171.414 73.7736 170.724 74.0016 170.04 74.0016ZM176.027 74.0016C175.067 74.0016 174.293 73.7676 173.705 73.2996C173.117 72.8316 172.823 72.0876 172.823 71.0676C172.823 70.2756 172.985 69.3876 173.309 68.4036C173.633 67.4196 174.161 66.5616 174.893 65.8296C175.625 65.0976 176.555 64.7316 177.683 64.7316C179.003 64.7316 179.663 65.3076 179.663 66.4596C179.663 67.1316 179.471 67.7496 179.087 68.3136C178.703 68.8776 178.193 69.3336 177.557 69.6816C176.921 70.0176 176.237 70.2096 175.505 70.2576C175.493 70.3656 175.487 70.5276 175.487 70.7436C175.487 71.9316 176.087 72.5256 177.287 72.5256C177.971 72.5256 178.703 72.3456 179.483 71.9856C180.263 71.6256 180.941 71.1216 181.517 70.4736L180.491 64.8936H183.029L183.731 68.7816C184.271 68.2056 184.691 67.6656 184.991 67.1616C185.291 66.6576 185.441 66.2436 185.441 65.9196C185.441 65.8116 185.435 65.7396 185.423 65.7036C185.255 65.7276 185.147 65.7396 185.099 65.7396C184.811 65.7396 184.601 65.6496 184.469 65.4696C184.337 65.2896 184.271 65.0676 184.271 64.8036C184.271 64.5036 184.361 64.2756 184.541 64.1196C184.721 63.9636 184.955 63.8856 185.243 63.8856C185.651 63.8856 185.963 64.0356 186.179 64.3356C186.395 64.6236 186.503 64.9956 186.503 65.4516C186.503 66.0276 186.305 66.6456 185.909 67.3056C185.513 67.9656 184.853 68.7936 183.929 69.7896L184.091 70.6716C184.103 70.7316 184.139 70.9236 184.199 71.2476C184.271 71.5596 184.385 71.8056 184.541 71.9856C184.697 72.1656 184.901 72.2556 185.153 72.2556C185.501 72.2556 185.825 72.1116 186.125 71.8236C186.425 71.5236 186.641 71.1396 186.773 70.6716H187.529C187.085 71.9676 186.527 72.8496 185.855 73.3176C185.183 73.7736 184.523 74.0016 183.875 74.0016C183.275 74.0016 182.819 73.8156 182.507 73.4436C182.195 73.0716 181.931 72.4236 181.715 71.4996C180.995 72.2556 180.113 72.8616 179.069 73.3176C178.037 73.7736 177.023 74.0016 176.027 74.0016ZM175.649 69.3936C176.105 69.3816 176.531 69.2316 176.927 68.9436C177.335 68.6556 177.659 68.2896 177.899 67.8456C178.151 67.3896 178.277 66.9156 178.277 66.4236C178.277 65.9316 178.127 65.6856 177.827 65.6856C177.407 65.6856 176.987 66.0756 176.567 66.8556C176.147 67.6236 175.841 68.4696 175.649 69.3936ZM188.46 74.0016C187.848 74.0016 187.392 73.8156 187.092 73.4436C186.804 73.0716 186.66 72.5796 186.66 71.9676C186.66 71.6556 186.696 71.3376 186.768 71.0136L187.92 65.6136H187.326L187.47 64.8936H188.064L188.604 62.4096L191.268 62.0496C191.16 62.5056 191.1 62.7756 191.088 62.8596C191.004 63.1956 190.86 63.8736 190.656 64.8936H191.736L191.592 65.6136H190.512L189.36 71.0136C189.3 71.2776 189.27 71.4876 189.27 71.6436C189.27 72.0756 189.48 72.2916 189.9 72.2916C190.116 72.2916 190.272 72.2736 190.368 72.2376C190.128 72.9336 189.846 73.4016 189.522 73.6416C189.198 73.8816 188.844 74.0016 188.46 74.0016Z" fill="white"/>
</g>
<g opacity="0.8">
<path d="M220 51C220 49.3431 221.343 48 223 48H277C278.657 48 280 49.3431 280 51V88C280 89.6569 278.657 91 277 91H223C221.343 91 220 89.6569 220 88V51Z" fill="#1E73FF"/>
<path d="M235.028 74.4736H232.436C232.234 74.4736 232.084 74.431 231.988 74.3456C231.903 74.2496 231.86 74.1003 231.86 73.8976V66.0416H229.508C229.306 66.0416 229.156 65.999 229.06 65.9136C228.975 65.8176 228.932 65.6683 228.932 65.4656V63.5296C228.932 63.327 228.975 63.183 229.06 63.0976C229.156 63.0016 229.306 62.9536 229.508 62.9536H237.956C238.159 62.9536 238.303 63.0016 238.388 63.0976C238.484 63.183 238.532 63.327 238.532 63.5296V65.4656C238.532 65.6683 238.484 65.8176 238.388 65.9136C238.303 65.999 238.159 66.0416 237.956 66.0416H235.604V73.8976C235.604 74.1003 235.556 74.2496 235.46 74.3456C235.375 74.431 235.231 74.4736 235.028 74.4736ZM248.088 74.4736H240.664C240.462 74.4736 240.312 74.431 240.216 74.3456C240.131 74.2496 240.088 74.1003 240.088 73.8976V63.5296C240.088 63.327 240.131 63.183 240.216 63.0976C240.312 63.0016 240.462 62.9536 240.664 62.9536H248.088C248.291 62.9536 248.435 63.0016 248.52 63.0976C248.616 63.183 248.664 63.327 248.664 63.5296V65.4016C248.664 65.6043 248.616 65.7536 248.52 65.8496C248.435 65.935 248.291 65.9776 248.088 65.9776H243.672V67.2096H246.792C246.995 67.2096 247.139 67.2576 247.224 67.3536C247.32 67.439 247.368 67.583 247.368 67.7856V69.4976C247.368 69.7003 247.32 69.8496 247.224 69.9456C247.139 70.031 246.995 70.0736 246.792 70.0736H243.672V71.4496H248.088C248.291 71.4496 248.435 71.4976 248.52 71.5936C248.616 71.679 248.664 71.823 248.664 72.0256V73.8976C248.664 74.1003 248.616 74.2496 248.52 74.3456C248.435 74.431 248.291 74.4736 248.088 74.4736ZM253.997 73.8976C253.997 74.1003 253.949 74.2496 253.853 74.3456C253.768 74.431 253.624 74.4736 253.421 74.4736H250.989C250.786 74.4736 250.637 74.431 250.541 74.3456C250.456 74.2496 250.413 74.1003 250.413 73.8976V72.1856C250.413 71.695 250.456 71.327 250.541 71.0816C250.626 70.8363 250.786 70.5483 251.021 70.2176L252.317 68.4736L251.021 66.7296C250.776 66.399 250.61 66.111 250.525 65.8656C250.45 65.6203 250.413 65.2523 250.413 64.7616V63.5296C250.413 63.327 250.456 63.183 250.541 63.0976C250.637 63.0016 250.786 62.9536 250.989 62.9536H253.453C253.656 62.9536 253.8 63.0016 253.885 63.0976C253.981 63.183 254.029 63.327 254.029 63.5296V64.6336C254.029 64.7403 254.034 64.8523 254.045 64.9696C254.056 65.087 254.098 65.199 254.173 65.3056L254.877 66.3136C254.93 66.399 254.984 66.4683 255.037 66.5216C255.101 66.5643 255.176 66.5856 255.261 66.5856H255.453C255.538 66.5856 255.608 66.5643 255.661 66.5216C255.714 66.4683 255.773 66.399 255.837 66.3136L256.557 65.3056C256.632 65.199 256.674 65.087 256.685 64.9696C256.696 64.8523 256.701 64.7403 256.701 64.6336V63.5296C256.701 63.327 256.744 63.183 256.829 63.0976C256.925 63.0016 257.074 62.9536 257.277 62.9536H259.709C259.912 62.9536 260.056 63.0016 260.141 63.0976C260.237 63.183 260.285 63.327 260.285 63.5296V64.7616C260.285 65.2523 260.242 65.6203 260.157 65.8656C260.072 66.111 259.912 66.399 259.677 66.7296L258.381 68.4896L259.677 70.2176C259.922 70.5483 260.082 70.8363 260.157 71.0816C260.242 71.327 260.285 71.695 260.285 72.1856V73.8976C260.285 74.1003 260.237 74.2496 260.141 74.3456C260.056 74.431 259.912 74.4736 259.709 74.4736H257.277C257.074 74.4736 256.925 74.431 256.829 74.3456C256.744 74.2496 256.701 74.1003 256.701 73.8976V72.3136C256.701 72.207 256.696 72.095 256.685 71.9776C256.674 71.8603 256.632 71.7483 256.557 71.6416L255.853 70.6336C255.789 70.5376 255.73 70.4683 255.677 70.4256C255.624 70.383 255.554 70.3616 255.469 70.3616H255.245C255.16 70.3616 255.09 70.383 255.037 70.4256C254.984 70.4683 254.925 70.5376 254.861 70.6336L254.141 71.6416C254.066 71.7483 254.024 71.8603 254.013 71.9776C254.002 72.095 253.997 72.207 253.997 72.3136V73.8976ZM267.56 74.4736H264.968C264.765 74.4736 264.616 74.431 264.52 74.3456C264.434 74.2496 264.392 74.1003 264.392 73.8976V66.0416H262.04C261.837 66.0416 261.688 65.999 261.592 65.9136C261.506 65.8176 261.464 65.6683 261.464 65.4656V63.5296C261.464 63.327 261.506 63.183 261.592 63.0976C261.688 63.0016 261.837 62.9536 262.04 62.9536H270.488C270.69 62.9536 270.834 63.0016 270.92 63.0976C271.016 63.183 271.064 63.327 271.064 63.5296V65.4656C271.064 65.6683 271.016 65.8176 270.92 65.9136C270.834 65.999 270.69 66.0416 270.488 66.0416H268.136V73.8976C268.136 74.1003 268.088 74.2496 267.992 74.3456C267.906 74.431 267.762 74.4736 267.56 74.4736Z" fill="white"/>
</g>
<g opacity="0.8">
<path d="M10 128C10 126.343 11.3431 125 13 125H67C68.6569 125 70 126.343 70 128V153C70 154.657 68.6569 156 67 156H13C11.3431 156 10 154.657 10 153V128Z" fill="#1E73FF"/>
<path d="M28.8169 147.493C28.2569 147.893 27.8169 148.073 27.2969 148.073C26.4769 148.073 25.9969 147.573 25.9969 146.393V139.353H29.0169V138.433H26.0169L26.1369 135.413H25.0369L24.5569 138.373L22.5169 138.613V139.353H24.4769V144.733C24.4769 145.513 24.4569 145.973 24.4569 146.473C24.4569 148.173 25.2969 148.993 26.8169 148.993C27.8369 148.993 28.6569 148.633 29.2169 147.993L28.8169 147.493ZM32.0272 142.693C32.2672 140.153 33.7272 138.953 35.1872 138.953C36.7272 138.953 37.7872 140.213 37.7872 141.613C37.7872 142.253 37.5872 142.693 36.7072 142.693H32.0272ZM39.1472 143.473C39.2472 143.173 39.2872 142.753 39.2872 142.233C39.2872 139.733 37.6072 138.153 35.2872 138.153C32.6472 138.153 30.3872 140.293 30.3872 143.633C30.3872 147.053 32.4072 148.993 35.2072 148.993C37.0672 148.993 38.4472 148.073 39.2672 146.633L38.8472 146.313C38.0672 147.253 37.1272 147.873 35.7072 147.873C33.5872 147.873 32.0272 146.413 32.0072 143.453L39.1472 143.473ZM49.8638 147.833L46.6638 143.333L49.8838 139.333L51.1838 139.133V138.433H47.1838V139.133L48.7238 139.373L46.2038 142.673L43.8838 139.353L45.3438 139.133V138.433H40.7038V139.133L42.1838 139.333L45.2238 143.733L41.9638 147.833L40.5438 148.073V148.713H44.7638V148.073L43.0638 147.813L45.6638 144.353L48.0838 147.833L46.4038 148.073L46.4238 148.713H51.4038V148.073L49.8638 147.833ZM58.1528 147.493C57.5928 147.893 57.1528 148.073 56.6328 148.073C55.8128 148.073 55.3328 147.573 55.3328 146.393V139.353H58.3528V138.433H55.3528L55.4728 135.413H54.3728L53.8928 138.373L51.8528 138.613V139.353H53.8128V144.733C53.8128 145.513 53.7928 145.973 53.7928 146.473C53.7928 148.173 54.6328 148.993 56.1528 148.993C57.1728 148.993 57.9928 148.633 58.5528 147.993L58.1528 147.493Z" fill="white"/>
</g>
<g opacity="0.8">
<path d="M80 131C80 129.343 81.3431 128 83 128H137C138.657 128 140 129.343 140 131V162C140 163.657 138.657 165 137 165H83C81.3431 165 80 163.657 80 162V131Z" fill="#1E73FF"/>
<path d="M95.8379 141.211V148.594H95.1113V141.211H91.4492V140.543H99.5V141.211H95.8379ZM108.951 148.172C108.623 148.273 108.318 148.361 108.037 148.436C107.756 148.506 107.479 148.562 107.205 148.605C106.932 148.652 106.652 148.686 106.367 148.705C106.086 148.729 105.775 148.74 105.436 148.74C104.646 148.74 103.934 148.645 103.297 148.453C102.66 148.262 102.117 147.988 101.668 147.633C101.223 147.273 100.879 146.84 100.637 146.332C100.395 145.824 100.273 145.254 100.273 144.621C100.273 144.008 100.389 143.445 100.619 142.934C100.854 142.422 101.18 141.982 101.598 141.615C102.016 141.248 102.516 140.963 103.098 140.76C103.68 140.557 104.322 140.455 105.025 140.455C105.756 140.455 106.406 140.553 106.977 140.748C107.547 140.943 108.027 141.223 108.418 141.586C108.809 141.949 109.105 142.391 109.309 142.91C109.512 143.426 109.613 144.008 109.613 144.656V144.838H101.029C101.072 145.338 101.197 145.789 101.404 146.191C101.611 146.594 101.904 146.936 102.283 147.217C102.666 147.498 103.135 147.715 103.689 147.867C104.248 148.016 104.898 148.09 105.641 148.09C105.957 148.09 106.277 148.068 106.602 148.025C106.926 147.982 107.236 147.926 107.533 147.855C107.83 147.781 108.102 147.699 108.348 147.609C108.594 147.516 108.795 147.42 108.951 147.322V148.172ZM108.893 144.199C108.865 143.789 108.773 143.398 108.617 143.027C108.461 142.652 108.227 142.322 107.914 142.037C107.605 141.752 107.211 141.525 106.73 141.357C106.254 141.189 105.682 141.105 105.014 141.105C104.385 141.105 103.834 141.189 103.361 141.357C102.889 141.525 102.488 141.752 102.16 142.037C101.832 142.318 101.574 142.646 101.387 143.021C101.199 143.393 101.08 143.785 101.029 144.199H108.893ZM115.338 144.955L111.869 148.594H110.943L114.881 144.463L111.137 140.543H112.062L115.338 143.988L118.625 140.543H119.551L115.807 144.463L119.738 148.594H118.818L115.338 144.955ZM124.889 141.211V148.594H124.162V141.211H120.5V140.543H128.551V141.211H124.889Z" fill="white"/>
</g>
<path d="M0 74.5H350" stroke="#E44D26"/>
<path d="M0 149.5H350" stroke="#E44D26"/>
</svg>
