<svg width="300" height="163" viewBox="0 0 300 163" fill="none" xmlns="http://www.w3.org/2000/svg">
<rect x="1" y="27" width="298" height="108" rx="5" fill="#F7F7F7" stroke="#AAAAAA" stroke-width="2" stroke-dasharray="6 4"/>
<path d="M5.63965 3.81934C5.1748 3.75553 4.77376 3.72363 4.43652 3.72363C3.54329 3.72363 3.09668 4.1429 3.09668 4.98145V5.60352H4.60059V6.83398H3.09668V13H1.43555V6.83398H0.307617V5.60352H1.43555V4.94043C1.4401 4.10645 1.6862 3.46842 2.17383 3.02637C2.66602 2.57975 3.35872 2.35645 4.25195 2.35645C4.80794 2.35645 5.82422 2.46582 7.30078 2.68457V13H5.63965V3.81934ZM12.3936 13.1367C11.3408 13.1367 10.4863 12.8063 9.83008 12.1455C9.17839 11.4801 8.85254 10.596 8.85254 9.49316V9.28809C8.85254 8.5498 8.99382 7.89128 9.27637 7.3125C9.56348 6.72917 9.96452 6.27572 10.4795 5.95215C10.9945 5.62858 11.5687 5.4668 12.2021 5.4668C13.2093 5.4668 13.9863 5.78809 14.5332 6.43066C15.0846 7.07324 15.3604 7.98242 15.3604 9.1582V9.82812H10.5273C10.5775 10.4388 10.7803 10.9219 11.1357 11.2773C11.4958 11.6328 11.9469 11.8105 12.4893 11.8105C13.2503 11.8105 13.8701 11.5029 14.3486 10.8877L15.2441 11.7422C14.9479 12.1842 14.5514 12.5283 14.0547 12.7744C13.5625 13.016 13.0088 13.1367 12.3936 13.1367ZM12.1953 6.7998C11.7396 6.7998 11.3704 6.95931 11.0879 7.27832C10.8099 7.59733 10.6322 8.04167 10.5547 8.61133H13.7197V8.48828C13.6833 7.93229 13.5352 7.51302 13.2754 7.23047C13.0156 6.94336 12.6556 6.7998 12.1953 6.7998ZM19.3115 8.03711L20.7197 5.60352H22.5654L20.3027 9.24707L22.6406 13H20.8086L19.332 10.4707L17.8623 13H16.0166L18.3545 9.24707L16.0986 5.60352H17.9307L19.3115 8.03711ZM30.2217 11.8105C30.6364 11.8105 30.9805 11.6898 31.2539 11.4482C31.5273 11.2067 31.6732 10.9082 31.6914 10.5527H33.2568C33.2386 11.013 33.0951 11.4437 32.8262 11.8447C32.5573 12.2412 32.1927 12.5557 31.7324 12.7881C31.2721 13.0205 30.7754 13.1367 30.2422 13.1367C29.2077 13.1367 28.3874 12.8018 27.7812 12.1318C27.1751 11.4619 26.8721 10.5368 26.8721 9.35645V9.18555C26.8721 8.0599 27.1729 7.15983 27.7744 6.48535C28.376 5.80632 29.1963 5.4668 30.2354 5.4668C31.1149 5.4668 31.8304 5.72428 32.3818 6.23926C32.9378 6.74967 33.2295 7.42188 33.2568 8.25586H31.6914C31.6732 7.83203 31.5273 7.4834 31.2539 7.20996C30.985 6.93652 30.641 6.7998 30.2217 6.7998C29.6839 6.7998 29.2692 6.99577 28.9775 7.3877C28.6859 7.77507 28.5378 8.36523 28.5332 9.1582V9.4248C28.5332 10.2269 28.6768 10.8262 28.9639 11.2227C29.2555 11.6146 29.6748 11.8105 30.2217 11.8105ZM34.2002 9.2334C34.2002 8.50879 34.3438 7.8571 34.6309 7.27832C34.918 6.69499 35.3213 6.24837 35.8408 5.93848C36.3604 5.62402 36.9574 5.4668 37.6318 5.4668C38.6299 5.4668 39.4388 5.78809 40.0586 6.43066C40.6829 7.07324 41.0202 7.92546 41.0703 8.9873L41.0771 9.37695C41.0771 10.1061 40.9359 10.7578 40.6533 11.332C40.3753 11.9062 39.9743 12.3506 39.4502 12.665C38.9307 12.9795 38.3291 13.1367 37.6455 13.1367C36.6019 13.1367 35.7656 12.7904 35.1367 12.0977C34.5124 11.4004 34.2002 10.473 34.2002 9.31543V9.2334ZM35.8613 9.37695C35.8613 10.138 36.0186 10.735 36.333 11.168C36.6475 11.5964 37.085 11.8105 37.6455 11.8105C38.2061 11.8105 38.6413 11.5918 38.9512 11.1543C39.2656 10.7168 39.4229 10.0765 39.4229 9.2334C39.4229 8.486 39.2611 7.89355 38.9375 7.45605C38.6185 7.01855 38.1833 6.7998 37.6318 6.7998C37.0895 6.7998 36.6589 7.01628 36.3398 7.44922C36.0208 7.8776 35.8613 8.52018 35.8613 9.37695ZM44.0234 5.60352L44.0713 6.45801C44.6182 5.7972 45.3359 5.4668 46.2246 5.4668C47.765 5.4668 48.5488 6.34863 48.5762 8.1123V13H46.915V8.20801C46.915 7.73861 46.8125 7.39225 46.6074 7.16895C46.4069 6.94108 46.0765 6.82715 45.6162 6.82715C44.9463 6.82715 44.4473 7.13021 44.1191 7.73633V13H42.458V5.60352H44.0234ZM52.3564 3.80566V5.60352H53.6621V6.83398H52.3564V10.9629C52.3564 11.2454 52.4111 11.4505 52.5205 11.5781C52.6344 11.7012 52.835 11.7627 53.1221 11.7627C53.3135 11.7627 53.5072 11.7399 53.7031 11.6943V12.9795C53.3249 13.0843 52.9603 13.1367 52.6094 13.1367C51.3333 13.1367 50.6953 12.4326 50.6953 11.0244V6.83398H49.4785V5.60352H50.6953V3.80566H52.3564ZM59.3564 13C59.2835 12.8587 59.2197 12.6286 59.165 12.3096C58.6364 12.861 57.9893 13.1367 57.2236 13.1367C56.4808 13.1367 55.8747 12.9248 55.4053 12.501C54.9359 12.0771 54.7012 11.5531 54.7012 10.9287C54.7012 10.1403 54.9928 9.53646 55.5762 9.11719C56.1641 8.69336 57.0026 8.48145 58.0918 8.48145H59.1104V7.99609C59.1104 7.61328 59.0033 7.30794 58.7891 7.08008C58.5749 6.84766 58.249 6.73145 57.8115 6.73145C57.4333 6.73145 57.1234 6.82715 56.8818 7.01855C56.6403 7.2054 56.5195 7.44466 56.5195 7.73633H54.8584C54.8584 7.33073 54.9928 6.95247 55.2617 6.60156C55.5306 6.24609 55.8952 5.9681 56.3555 5.76758C56.8203 5.56706 57.3376 5.4668 57.9072 5.4668C58.7731 5.4668 59.4635 5.68555 59.9785 6.12305C60.4935 6.55599 60.7578 7.16667 60.7715 7.95508V11.291C60.7715 11.9564 60.8649 12.4873 61.0518 12.8838V13H59.3564ZM57.5312 11.8037C57.8594 11.8037 58.167 11.724 58.4541 11.5645C58.7458 11.4049 58.9645 11.1908 59.1104 10.9219V9.52734H58.2148C57.5996 9.52734 57.137 9.63444 56.8271 9.84863C56.5173 10.0628 56.3623 10.3659 56.3623 10.7578C56.3623 11.0768 56.4671 11.332 56.6768 11.5234C56.891 11.7103 57.1758 11.8037 57.5312 11.8037ZM64.2783 13H62.6172V5.60352H64.2783V13ZM62.5146 3.68262C62.5146 3.42741 62.5944 3.21549 62.7539 3.04688C62.918 2.87826 63.1504 2.79395 63.4512 2.79395C63.752 2.79395 63.9844 2.87826 64.1484 3.04688C64.3125 3.21549 64.3945 3.42741 64.3945 3.68262C64.3945 3.93327 64.3125 4.1429 64.1484 4.31152C63.9844 4.47559 63.752 4.55762 63.4512 4.55762C63.1504 4.55762 62.918 4.47559 62.7539 4.31152C62.5944 4.1429 62.5146 3.93327 62.5146 3.68262ZM67.6348 5.60352L67.6826 6.45801C68.2295 5.7972 68.9473 5.4668 69.8359 5.4668C71.3763 5.4668 72.1602 6.34863 72.1875 8.1123V13H70.5264V8.20801C70.5264 7.73861 70.4238 7.39225 70.2188 7.16895C70.0182 6.94108 69.6878 6.82715 69.2275 6.82715C68.5576 6.82715 68.0586 7.13021 67.7305 7.73633V13H66.0693V5.60352H67.6348ZM77.1436 13.1367C76.0908 13.1367 75.2363 12.8063 74.5801 12.1455C73.9284 11.4801 73.6025 10.596 73.6025 9.49316V9.28809C73.6025 8.5498 73.7438 7.89128 74.0264 7.3125C74.3135 6.72917 74.7145 6.27572 75.2295 5.95215C75.7445 5.62858 76.3187 5.4668 76.9521 5.4668C77.9593 5.4668 78.7363 5.78809 79.2832 6.43066C79.8346 7.07324 80.1104 7.98242 80.1104 9.1582V9.82812H75.2773C75.3275 10.4388 75.5303 10.9219 75.8857 11.2773C76.2458 11.6328 76.6969 11.8105 77.2393 11.8105C78.0003 11.8105 78.6201 11.5029 79.0986 10.8877L79.9941 11.7422C79.6979 12.1842 79.3014 12.5283 78.8047 12.7744C78.3125 13.016 77.7588 13.1367 77.1436 13.1367ZM76.9453 6.7998C76.4896 6.7998 76.1204 6.95931 75.8379 7.27832C75.5599 7.59733 75.3822 8.04167 75.3047 8.61133H78.4697V8.48828C78.4333 7.93229 78.2852 7.51302 78.0254 7.23047C77.7656 6.94336 77.4056 6.7998 76.9453 6.7998ZM85.2783 7.12109C85.0596 7.08464 84.834 7.06641 84.6016 7.06641C83.8405 7.06641 83.3278 7.35807 83.0635 7.94141V13H81.4023V5.60352H82.9883L83.0293 6.43066C83.4303 5.78809 83.9863 5.4668 84.6973 5.4668C84.9342 5.4668 85.1302 5.4987 85.2852 5.5625L85.2783 7.12109Z" fill="#BBBBBB"/>
<g opacity="0.8">
<path d="M90 39C90 37.3431 91.3431 36 93 36H147C148.657 36 150 37.3431 150 39V93C150 94.6569 148.657 96 147 96H93C91.3431 96 90 94.6569 90 93V39Z" fill="#1E73FF"/>
<path d="M119.094 63.655H120.178C120.725 63.6501 121.157 63.5085 121.474 63.2302C121.796 62.9519 121.958 62.5491 121.958 62.0217C121.958 61.5139 121.823 61.1208 121.555 60.8425C121.291 60.5593 120.886 60.4177 120.339 60.4177C119.86 60.4177 119.467 60.5569 119.16 60.8352C118.852 61.1086 118.698 61.4675 118.698 61.9119H116.918C116.918 61.365 117.062 60.8669 117.351 60.4177C117.644 59.9685 118.049 59.6194 118.566 59.3704C119.089 59.1165 119.672 58.9895 120.317 58.9895C121.381 58.9895 122.216 59.2581 122.822 59.7952C123.432 60.3274 123.737 61.0696 123.737 62.0217C123.737 62.5002 123.583 62.9519 123.276 63.3767C122.973 63.7966 122.58 64.114 122.097 64.3289C122.683 64.5291 123.127 64.844 123.43 65.2737C123.737 65.7034 123.891 66.2161 123.891 66.8118C123.891 67.7688 123.562 68.5305 122.902 69.0969C122.248 69.6633 121.386 69.9465 120.317 69.9465C119.292 69.9465 118.452 69.6731 117.797 69.1262C117.143 68.5793 116.816 67.8518 116.816 66.9436H118.596C118.596 67.4124 118.752 67.7932 119.064 68.0862C119.382 68.3792 119.807 68.5256 120.339 68.5256C120.891 68.5256 121.325 68.3792 121.643 68.0862C121.96 67.7932 122.119 67.3684 122.119 66.8118C122.119 66.2502 121.953 65.8181 121.621 65.5154C121.289 65.2126 120.795 65.0613 120.141 65.0613H119.094V63.655Z" fill="white"/>
</g>
<g opacity="0.8">
<path d="M160 39C160 37.3431 161.343 36 163 36H217C218.657 36 220 37.3431 220 39V93C220 94.6569 218.657 96 217 96H163C161.343 96 160 94.6569 160 93V39Z" fill="#1E73FF"/>
<path d="M194.206 69.8H187.036V68.5769L190.588 64.7024C191.101 64.1311 191.464 63.655 191.679 63.2742C191.899 62.8884 192.009 62.5027 192.009 62.1169C192.009 61.6091 191.865 61.199 191.577 60.8865C191.293 60.574 190.91 60.4177 190.427 60.4177C189.851 60.4177 189.404 60.5935 189.086 60.9451C188.769 61.2966 188.61 61.7776 188.61 62.3879H186.831C186.831 61.7385 186.977 61.155 187.27 60.6375C187.568 60.115 187.99 59.7097 188.537 59.4216C189.089 59.1335 189.724 58.9895 190.441 58.9895C191.477 58.9895 192.292 59.2507 192.888 59.7732C193.488 60.2908 193.789 61.0085 193.789 61.9265C193.789 62.4587 193.637 63.0178 193.334 63.6038C193.037 64.1848 192.546 64.8464 191.862 65.5886L189.255 68.3792H194.206V69.8Z" fill="white"/>
</g>
<g opacity="0.8">
<path d="M230 39C230 37.3431 231.343 36 233 36H287C288.657 36 290 37.3431 290 39V93C290 94.6569 288.657 96 287 96H233C231.343 96 230 94.6569 230 93V39Z" fill="#1E73FF"/>
<path d="M261.855 69.8H260.083V61.238L257.468 62.1316V60.6301L261.628 59.0994H261.855V69.8Z" fill="white"/>
</g>
<path d="M0.871995 153.707C0.48147 153.317 0.48147 152.683 0.871995 152.293L7.23596 145.929C7.62648 145.538 8.25964 145.538 8.65017 145.929C9.04069 146.319 9.04069 146.953 8.65017 147.343L2.99332 153L8.65017 158.657C9.04069 159.047 9.04069 159.681 8.65017 160.071C8.25965 160.462 7.62648 160.462 7.23596 160.071L0.871995 153.707ZM1.5791 152L4.54752 152L4.54752 154L1.5791 154L1.5791 152ZM8.50542 152L14.4423 152L14.4423 154L8.50542 154L8.50542 152ZM18.4002 152L24.337 152L24.337 154L18.4002 154L18.4002 152ZM28.2949 152L34.2317 152L34.2317 154L28.2949 154L28.2949 152ZM38.1896 152L44.1265 152L44.1265 154L38.1896 154L38.1896 152ZM48.0844 152L54.0212 152L54.0212 154L48.0844 154L48.0844 152ZM57.9791 152L63.9159 152L63.9159 154L57.9791 154L57.9791 152ZM67.8738 152L73.8107 152L73.8107 154L67.8738 154L67.8738 152ZM77.7686 152L83.7054 152L83.7054 154L77.7686 154L77.7686 152ZM87.6633 152L93.6002 152L93.6002 154L87.6633 154L87.6633 152ZM97.5581 152L103.495 152L103.495 154L97.5581 154L97.5581 152ZM107.453 152L113.39 152L113.39 154L107.453 154L107.453 152ZM117.348 152L123.284 152L123.284 154L117.348 154L117.348 152ZM127.242 152L133.179 152L133.179 154L127.242 154L127.242 152ZM137.137 152L143.074 152L143.074 154L137.137 154L137.137 152ZM147.032 152L152.969 152L152.969 154L147.032 154L147.032 152ZM156.926 152L162.863 152L162.863 154L156.926 154L156.926 152ZM166.821 152L172.758 152L172.758 154L166.821 154L166.821 152ZM176.716 152L182.653 152L182.653 154L176.716 154L176.716 152ZM186.611 152L192.548 152L192.548 154L186.611 154L186.611 152ZM196.505 152L202.442 152L202.442 154L196.505 154L196.505 152ZM206.4 152L212.337 152L212.337 154L206.4 154L206.4 152ZM216.295 152L222.232 152L222.232 154L216.295 154L216.295 152ZM226.19 152L232.127 152L232.127 154L226.19 154L226.19 152ZM236.084 152L242.021 152L242.021 154L236.084 154L236.084 152ZM245.979 152L251.916 152L251.916 154L245.979 154L245.979 152ZM255.874 152L261.811 152L261.811 154L255.874 154L255.874 152ZM265.769 152L271.706 152L271.706 154L265.769 154L265.769 152ZM275.663 152L281.6 152L281.6 154L275.663 154L275.663 152ZM285.558 152L291.495 152L291.495 154L285.558 154L285.558 152ZM295.453 152L298.421 152L298.421 154L295.453 154L295.453 152Z" fill="#1E73FF"/>
<path d="M121.028 150.075L121.094 150.961C121.655 150.273 122.415 149.929 123.372 149.929C124.392 149.929 125.093 150.332 125.474 151.137C126.03 150.332 126.824 149.929 127.854 149.929C128.713 149.929 129.353 150.18 129.773 150.683C130.193 151.181 130.403 151.933 130.403 152.939V158H128.279V152.946C128.279 152.497 128.191 152.17 128.015 151.965C127.839 151.755 127.529 151.65 127.085 151.65C126.45 151.65 126.011 151.953 125.767 152.558L125.774 158H123.657V152.954C123.657 152.495 123.567 152.163 123.386 151.958C123.206 151.752 122.898 151.65 122.463 151.65C121.863 151.65 121.428 151.899 121.16 152.397V158H119.043V150.075H121.028Z" fill="#1E73FF"/>
<path d="M136.628 158C136.531 157.81 136.46 157.573 136.416 157.29C135.903 157.861 135.237 158.146 134.417 158.146C133.64 158.146 132.996 157.922 132.483 157.473C131.975 157.023 131.721 156.457 131.721 155.773C131.721 154.934 132.031 154.289 132.651 153.84C133.276 153.391 134.177 153.164 135.354 153.159H136.328V152.705C136.328 152.338 136.233 152.045 136.042 151.826C135.857 151.606 135.562 151.496 135.156 151.496C134.8 151.496 134.519 151.582 134.314 151.752C134.114 151.923 134.014 152.158 134.014 152.456H131.897C131.897 151.997 132.039 151.572 132.322 151.181C132.605 150.791 133.005 150.485 133.523 150.266C134.041 150.041 134.622 149.929 135.266 149.929C136.243 149.929 137.017 150.175 137.588 150.668C138.164 151.157 138.452 151.845 138.452 152.734V156.169C138.457 156.921 138.562 157.49 138.767 157.875V158H136.628ZM134.878 156.528C135.19 156.528 135.479 156.459 135.742 156.323C136.006 156.181 136.201 155.993 136.328 155.759V154.396H135.537C134.478 154.396 133.914 154.763 133.845 155.495L133.838 155.62C133.838 155.883 133.931 156.101 134.116 156.271C134.302 156.442 134.556 156.528 134.878 156.528Z" fill="#1E73FF"/>
<path d="M142.312 158H140.188V150.075H142.312V158ZM140.063 148.024C140.063 147.707 140.168 147.446 140.378 147.241C140.593 147.036 140.884 146.933 141.25 146.933C141.611 146.933 141.899 147.036 142.114 147.241C142.329 147.446 142.437 147.707 142.437 148.024C142.437 148.347 142.327 148.61 142.107 148.815C141.892 149.021 141.606 149.123 141.25 149.123C140.894 149.123 140.605 149.021 140.386 148.815C140.171 148.61 140.063 148.347 140.063 148.024Z" fill="#1E73FF"/>
<path d="M146.011 150.075L146.077 150.991C146.643 150.283 147.402 149.929 148.354 149.929C149.194 149.929 149.819 150.175 150.229 150.668C150.64 151.162 150.85 151.899 150.859 152.88V158H148.743V152.932C148.743 152.482 148.645 152.158 148.45 151.958C148.254 151.752 147.93 151.65 147.476 151.65C146.88 151.65 146.433 151.904 146.135 152.412V158H144.019V150.075H146.011Z" fill="#1E73FF"/>
<path d="M160.798 158C160.701 157.81 160.63 157.573 160.586 157.29C160.073 157.861 159.407 158.146 158.586 158.146C157.81 158.146 157.166 157.922 156.653 157.473C156.145 157.023 155.891 156.457 155.891 155.773C155.891 154.934 156.201 154.289 156.821 153.84C157.446 153.391 158.347 153.164 159.524 153.159H160.498V152.705C160.498 152.338 160.403 152.045 160.212 151.826C160.027 151.606 159.731 151.496 159.326 151.496C158.97 151.496 158.689 151.582 158.484 151.752C158.284 151.923 158.184 152.158 158.184 152.456H156.067C156.067 151.997 156.208 151.572 156.492 151.181C156.775 150.791 157.175 150.485 157.693 150.266C158.21 150.041 158.792 149.929 159.436 149.929C160.413 149.929 161.187 150.175 161.758 150.668C162.334 151.157 162.622 151.845 162.622 152.734V156.169C162.627 156.921 162.732 157.49 162.937 157.875V158H160.798ZM159.048 156.528C159.36 156.528 159.648 156.459 159.912 156.323C160.176 156.181 160.371 155.993 160.498 155.759V154.396H159.707C158.647 154.396 158.083 154.763 158.015 155.495L158.008 155.62C158.008 155.883 158.101 156.101 158.286 156.271C158.472 156.442 158.726 156.528 159.048 156.528Z" fill="#1E73FF"/>
<path d="M167.266 152.441L168.599 150.075H170.862L168.606 153.957L170.957 158H168.687L167.273 155.51L165.867 158H163.589L165.94 153.957L163.691 150.075H165.962L167.266 152.441Z" fill="#1E73FF"/>
<path d="M174.114 158H171.99V150.075H174.114V158ZM171.865 148.024C171.865 147.707 171.97 147.446 172.18 147.241C172.395 147.036 172.686 146.933 173.052 146.933C173.413 146.933 173.701 147.036 173.916 147.241C174.131 147.446 174.238 147.707 174.238 148.024C174.238 148.347 174.128 148.61 173.909 148.815C173.694 149.021 173.408 149.123 173.052 149.123C172.695 149.123 172.407 149.021 172.188 148.815C171.973 148.61 171.865 148.347 171.865 148.024Z" fill="#1E73FF"/>
<path d="M180.156 155.81C180.156 155.551 180.027 155.349 179.768 155.202C179.514 155.051 179.104 154.917 178.538 154.799C176.653 154.404 175.71 153.603 175.71 152.397C175.71 151.694 176.001 151.108 176.582 150.639C177.168 150.166 177.932 149.929 178.875 149.929C179.88 149.929 180.684 150.166 181.284 150.639C181.89 151.113 182.192 151.728 182.192 152.485H180.076C180.076 152.182 179.978 151.933 179.783 151.738C179.587 151.538 179.282 151.438 178.867 151.438C178.511 151.438 178.235 151.518 178.04 151.679C177.844 151.84 177.747 152.045 177.747 152.294C177.747 152.529 177.856 152.719 178.076 152.866C178.301 153.007 178.677 153.132 179.204 153.239C179.731 153.342 180.176 153.459 180.537 153.591C181.655 154.001 182.214 154.711 182.214 155.722C182.214 156.445 181.904 157.031 181.284 157.48C180.664 157.924 179.863 158.146 178.882 158.146C178.218 158.146 177.627 158.029 177.109 157.795C176.597 157.556 176.194 157.231 175.901 156.821C175.608 156.406 175.461 155.959 175.461 155.48H177.468C177.488 155.856 177.627 156.145 177.886 156.345C178.145 156.545 178.491 156.645 178.926 156.645C179.331 156.645 179.636 156.569 179.841 156.418C180.051 156.262 180.156 156.059 180.156 155.81Z" fill="#1E73FF"/>
<path fill-rule="evenodd" clip-rule="evenodd" d="M125.074 150.551C125.06 150.536 125.046 150.522 125.031 150.508C124.707 150.195 124.281 150.008 123.754 149.949C123.632 149.936 123.505 149.929 123.372 149.929C123.102 149.929 122.848 149.956 122.61 150.011C122.56 150.022 122.511 150.035 122.463 150.048C122.433 150.057 122.404 150.066 122.374 150.075C121.871 150.237 121.444 150.532 121.094 150.961L121.028 150.075H119.043V158H121.16V152.397C121.31 152.119 121.512 151.918 121.766 151.795C121.841 151.759 121.922 151.729 122.007 151.706C122.146 151.669 122.299 151.65 122.463 151.65C122.692 151.65 122.885 151.678 123.043 151.735C123.178 151.783 123.288 151.852 123.372 151.941C123.377 151.947 123.381 151.952 123.386 151.958C123.419 151.995 123.449 152.036 123.476 152.082C123.528 152.171 123.569 152.276 123.599 152.397C123.612 152.449 123.622 152.503 123.631 152.561C123.648 152.679 123.657 152.81 123.657 152.954V158H125.774L125.767 152.558C125.914 152.193 126.133 151.937 126.422 151.793C126.612 151.697 126.833 151.65 127.085 151.65C127.256 151.65 127.408 151.666 127.539 151.697C127.662 151.726 127.766 151.768 127.854 151.824C127.879 151.84 127.902 151.857 127.924 151.875C127.958 151.903 127.988 151.932 128.015 151.965C128.045 152 128.073 152.039 128.098 152.082C128.1 152.085 128.102 152.088 128.103 152.091C128.162 152.192 128.205 152.314 128.235 152.456C128.241 152.488 128.247 152.521 128.252 152.555C128.27 152.671 128.279 152.799 128.279 152.939C128.279 152.941 128.279 152.944 128.279 152.946V158H130.403V152.939C130.403 152.771 130.397 152.61 130.385 152.456C130.352 152.017 130.271 151.637 130.142 151.313C130.082 151.161 130.01 151.021 129.929 150.894C129.88 150.819 129.829 150.749 129.773 150.683C129.742 150.646 129.709 150.61 129.675 150.575C129.67 150.569 129.664 150.563 129.658 150.557C129.348 150.246 128.937 150.051 128.425 149.971C128.297 149.951 128.163 149.938 128.023 149.932C127.968 149.93 127.911 149.929 127.854 149.929C127.581 149.929 127.325 149.957 127.085 150.014C127.031 150.026 126.978 150.04 126.926 150.056C126.334 150.233 125.85 150.593 125.474 151.137C125.366 150.91 125.233 150.714 125.074 150.551ZM131.382 146.858C130.247 146.169 128.983 145.929 127.854 145.929C127.069 145.929 126.309 146.047 125.594 146.283C124.833 146.023 124.072 145.929 123.372 145.929C122.868 145.929 122.372 145.977 121.889 146.075H115.043V162H132.93C133.422 162.1 133.92 162.146 134.417 162.146C134.906 162.146 135.389 162.098 135.86 162H154.859V161.11C155.441 161.475 156.058 161.736 156.691 161.904L156.636 162H157.1C157.592 162.1 158.09 162.146 158.586 162.146C159.076 162.146 159.559 162.098 160.03 162H177.255C177.798 162.101 178.344 162.146 178.882 162.146C180.46 162.146 182.143 161.786 183.614 160.731L183.622 160.725L183.631 160.719C185.02 159.713 185.958 158.241 186.169 156.485H186.192V156.256C186.207 156.08 186.214 155.903 186.214 155.722C186.214 155.544 186.207 155.364 186.192 155.185V152.485C186.192 150.478 185.308 148.712 183.755 147.494C182.256 146.314 180.493 145.929 178.875 145.929C178.528 145.929 178.176 145.948 177.824 145.989C177.567 145.393 177.187 144.834 176.678 144.347C175.564 143.284 174.206 142.933 173.052 142.933C171.909 142.933 170.542 143.275 169.418 144.347L169.402 144.363L169.385 144.379C168.868 144.884 168.491 145.463 168.242 146.075H161.057C160.511 145.973 159.966 145.929 159.436 145.929C158.897 145.929 158.353 145.975 157.813 146.075H156.752L156.885 146.305C156.626 146.386 156.369 146.48 156.115 146.59C155.182 146.988 154.287 147.587 153.561 148.441C153.481 148.33 153.395 148.219 153.305 148.111C151.914 146.439 149.989 145.929 148.354 145.929C147.853 145.929 147.36 145.978 146.883 146.075H146.058C145.801 145.446 145.41 144.857 144.876 144.347C143.763 143.284 142.404 142.933 141.25 142.933C140.108 142.933 138.74 143.275 137.617 144.347L137.6 144.363L137.583 144.379C137.085 144.866 136.717 145.42 136.468 146.008C136.063 145.953 135.66 145.929 135.266 145.929C134.156 145.929 133.028 146.123 131.945 146.59C131.756 146.671 131.567 146.76 131.382 146.858ZM132.121 151.509C131.972 151.806 131.897 152.122 131.897 152.456H134.014C134.014 152.44 134.014 152.424 134.015 152.408C134.022 152.193 134.085 152.012 134.203 151.867C134.206 151.863 134.209 151.859 134.212 151.855C134.243 151.818 134.277 151.784 134.314 151.752C134.32 151.747 134.326 151.742 134.332 151.738C134.536 151.577 134.81 151.496 135.156 151.496C135.194 151.496 135.23 151.497 135.266 151.499C135.294 151.5 135.321 151.502 135.347 151.505C135.349 151.505 135.352 151.505 135.354 151.506C135.418 151.512 135.479 151.522 135.537 151.535C135.725 151.579 135.877 151.658 135.993 151.772C136.01 151.789 136.027 151.807 136.042 151.826C136.1 151.892 136.148 151.964 136.188 152.043C136.215 152.096 136.238 152.152 136.257 152.21C136.259 152.217 136.261 152.224 136.263 152.231C136.285 152.302 136.301 152.377 136.312 152.456C136.323 152.534 136.328 152.617 136.328 152.705V153.159H135.354C135.325 153.159 135.295 153.159 135.266 153.159C135.229 153.16 135.193 153.161 135.156 153.162C135.123 153.163 135.09 153.164 135.058 153.165C134.997 153.167 134.937 153.17 134.878 153.174C134.848 153.176 134.817 153.178 134.788 153.18C134.779 153.18 134.77 153.181 134.761 153.182C134.749 153.183 134.737 153.184 134.725 153.185C134.681 153.188 134.637 153.192 134.593 153.197C134.545 153.201 134.498 153.207 134.452 153.212C134.448 153.213 134.445 153.213 134.441 153.214C134.428 153.215 134.415 153.217 134.403 153.219C134.399 153.219 134.395 153.22 134.391 153.22C134.31 153.231 134.23 153.243 134.152 153.257C134.135 153.26 134.118 153.263 134.101 153.266C134.071 153.272 134.042 153.277 134.014 153.283C133.595 153.368 133.23 153.497 132.92 153.67C132.825 153.722 132.736 153.779 132.651 153.84C132.642 153.847 132.633 153.853 132.624 153.86C132.495 153.956 132.38 154.061 132.279 154.174C132.116 154.356 131.989 154.561 131.897 154.789C131.833 154.948 131.786 155.119 131.757 155.3C131.753 155.324 131.75 155.348 131.747 155.372C131.741 155.413 131.737 155.454 131.733 155.496C131.73 155.537 131.727 155.578 131.725 155.62C131.722 155.67 131.721 155.721 131.721 155.773C131.721 156.016 131.753 156.243 131.817 156.456C131.907 156.757 132.061 157.028 132.279 157.271C132.342 157.34 132.41 157.408 132.483 157.473C132.582 157.559 132.685 157.637 132.794 157.707C132.857 157.748 132.922 157.786 132.989 157.821C133.125 157.893 133.267 157.952 133.417 158C133.717 158.096 134.046 158.145 134.403 158.146C134.407 158.146 134.412 158.146 134.417 158.146C134.497 158.146 134.575 158.144 134.652 158.138C134.729 158.133 134.804 158.125 134.878 158.114C135.044 158.09 135.203 158.052 135.355 158C135.417 157.979 135.478 157.956 135.537 157.93C135.577 157.913 135.616 157.895 135.654 157.875C135.846 157.781 136.024 157.661 136.188 157.516C136.228 157.481 136.266 157.445 136.304 157.407C136.309 157.403 136.313 157.398 136.317 157.394C136.321 157.39 136.325 157.387 136.328 157.383C136.358 157.353 136.387 157.322 136.416 157.29C136.448 157.498 136.495 157.681 136.557 157.839C136.561 157.851 136.566 157.864 136.571 157.875C136.582 157.902 136.593 157.928 136.605 157.953C136.613 157.969 136.62 157.985 136.628 158H138.767V157.875C138.664 157.682 138.587 157.443 138.534 157.159C138.527 157.118 138.52 157.076 138.513 157.033C138.51 157.011 138.507 156.988 138.504 156.966C138.502 156.955 138.501 156.945 138.5 156.935C138.47 156.705 138.454 156.45 138.452 156.169V152.734C138.452 152.724 138.452 152.714 138.452 152.705C138.451 152.577 138.444 152.454 138.431 152.336C138.409 152.131 138.37 151.938 138.312 151.758C138.256 151.583 138.184 151.421 138.096 151.269C138.089 151.258 138.082 151.247 138.076 151.236C137.946 151.023 137.784 150.834 137.588 150.668C137.559 150.643 137.529 150.619 137.499 150.595C137.493 150.59 137.486 150.585 137.48 150.58C137.398 150.516 137.312 150.457 137.222 150.403C137.218 150.401 137.215 150.399 137.211 150.396C136.993 150.265 136.751 150.162 136.487 150.086C136.475 150.082 136.462 150.079 136.449 150.075C136.41 150.064 136.369 150.054 136.328 150.044C136.282 150.033 136.235 150.023 136.188 150.013C135.929 149.962 135.651 149.934 135.354 149.929C135.35 149.929 135.345 149.929 135.341 149.929C135.316 149.929 135.291 149.929 135.266 149.929C135.229 149.929 135.193 149.929 135.156 149.93C134.75 149.938 134.369 149.992 134.014 150.092C133.996 150.097 133.979 150.102 133.961 150.107C133.81 150.151 133.664 150.204 133.523 150.266C133.411 150.313 133.305 150.365 133.204 150.42C133.198 150.423 133.191 150.427 133.185 150.43C132.828 150.63 132.54 150.88 132.322 151.181C132.312 151.194 132.303 151.208 132.293 151.221C132.228 151.315 132.171 151.411 132.121 151.509ZM140.188 158H142.312V150.075H140.188V158ZM140.106 147.697C140.099 147.722 140.093 147.747 140.088 147.772C140.072 147.852 140.063 147.936 140.063 148.024C140.063 148.225 140.105 148.402 140.188 148.557C140.239 148.652 140.304 148.738 140.386 148.815C140.426 148.853 140.469 148.887 140.513 148.918C140.713 149.055 140.959 149.123 141.25 149.123C141.325 149.123 141.397 149.119 141.465 149.109C141.663 149.083 141.834 149.02 141.98 148.919C141.988 148.914 141.995 148.909 142.002 148.903C142.039 148.876 142.074 148.847 142.107 148.815C142.192 148.736 142.26 148.649 142.312 148.552C142.395 148.398 142.437 148.222 142.437 148.024C142.437 147.827 142.395 147.652 142.312 147.498C142.261 147.404 142.196 147.318 142.114 147.241C142.075 147.203 142.032 147.168 141.987 147.137C141.98 147.132 141.973 147.128 141.966 147.123C141.772 146.996 141.534 146.933 141.25 146.933C140.962 146.933 140.721 146.996 140.527 147.123C140.52 147.128 140.513 147.133 140.505 147.138C140.46 147.168 140.418 147.203 140.378 147.241C140.3 147.317 140.237 147.401 140.188 147.492C140.171 147.524 140.156 147.557 140.142 147.59C140.128 147.625 140.116 147.66 140.106 147.697ZM142.943 146.075L143.115 145.891C142.818 145.614 142.47 145.407 142.108 145.278C141.757 145.153 141.455 145.123 141.25 145.123C141.046 145.123 140.739 145.152 140.38 145.281C140.022 145.41 139.676 145.615 139.378 145.891C139.372 145.896 139.367 145.901 139.362 145.906C139.356 145.911 139.351 145.917 139.345 145.922C139.306 145.959 139.268 145.998 139.231 146.039C139.227 146.043 139.222 146.048 139.218 146.053C139.211 146.06 139.204 146.068 139.197 146.075H142.943ZM143.001 146.075H143.297C143.285 146.063 143.274 146.05 143.262 146.038C143.225 145.998 143.187 145.959 143.148 145.922L143.001 146.075ZM144.019 158H146.135V152.412C146.189 152.32 146.248 152.236 146.312 152.16C146.496 151.943 146.72 151.796 146.985 151.717C147.135 151.672 147.299 151.65 147.476 151.65C147.684 151.65 147.865 151.671 148.019 151.715C148.151 151.752 148.263 151.804 148.354 151.873C148.389 151.899 148.421 151.927 148.45 151.958C148.483 151.992 148.514 152.03 148.542 152.072C148.605 152.166 148.653 152.28 148.686 152.412C148.721 152.548 148.739 152.704 148.742 152.88C148.742 152.887 148.742 152.894 148.743 152.901C148.743 152.911 148.743 152.922 148.743 152.932V158H150.859V152.88C150.85 151.899 150.64 151.162 150.229 150.668C150.174 150.601 150.114 150.539 150.05 150.481C150.042 150.473 150.033 150.465 150.024 150.458C150.018 150.452 150.011 150.446 150.004 150.441C149.603 150.099 149.053 149.929 148.354 149.929C148.041 149.929 147.748 149.967 147.476 150.044C147.441 150.054 147.407 150.064 147.373 150.075C146.972 150.206 146.618 150.423 146.312 150.728C146.23 150.809 146.152 150.897 146.077 150.991L146.011 150.075H144.019V158ZM171.99 158H174.114V150.075H171.99V158ZM170.862 150.075H168.599L167.266 152.441L165.962 150.075H163.691L165.94 153.957L163.589 158H165.867L167.273 155.51L168.687 158H170.957L168.606 153.957L170.862 150.075ZM162.538 151.962C162.453 151.598 162.302 151.279 162.085 151.006C161.989 150.884 161.88 150.772 161.758 150.668C161.729 150.643 161.699 150.619 161.669 150.595C161.663 150.59 161.656 150.585 161.65 150.58C161.568 150.516 161.482 150.457 161.392 150.403C161.388 150.401 161.385 150.399 161.381 150.396C161.119 150.239 160.825 150.122 160.498 150.044C160.2 149.973 159.876 149.935 159.524 149.929C159.519 149.929 159.515 149.929 159.511 149.929C159.486 149.929 159.461 149.929 159.436 149.929C159.399 149.929 159.363 149.929 159.326 149.93C159.214 149.932 159.103 149.938 158.995 149.947C158.711 149.971 158.44 150.02 158.184 150.092C158.014 150.139 157.851 150.197 157.693 150.266C157.581 150.313 157.475 150.365 157.374 150.42C157.367 150.423 157.361 150.427 157.355 150.43C156.998 150.63 156.71 150.88 156.492 151.181C156.482 151.194 156.473 151.208 156.463 151.221C156.199 151.601 156.067 152.012 156.067 152.456H158.184C158.184 152.44 158.184 152.424 158.184 152.408C158.192 152.193 158.255 152.012 158.373 151.867C158.376 151.863 158.379 151.859 158.382 151.855C158.413 151.818 158.447 151.784 158.484 151.752C158.689 151.582 158.97 151.496 159.326 151.496C159.364 151.496 159.4 151.497 159.436 151.499C159.464 151.5 159.491 151.502 159.517 151.505C159.519 151.505 159.522 151.505 159.524 151.506C159.588 151.512 159.649 151.522 159.707 151.535C159.804 151.558 159.892 151.59 159.97 151.632C160.043 151.67 160.107 151.717 160.163 151.772C160.18 151.789 160.197 151.807 160.212 151.826C160.263 151.884 160.306 151.947 160.343 152.015C160.376 152.076 160.404 152.141 160.427 152.21C160.429 152.217 160.431 152.224 160.433 152.231C160.455 152.302 160.471 152.377 160.482 152.456C160.485 152.48 160.488 152.504 160.49 152.529C160.495 152.586 160.498 152.644 160.498 152.705V153.159H159.524C159.494 153.159 159.465 153.159 159.436 153.159C159.399 153.16 159.363 153.161 159.326 153.162C159.293 153.163 159.26 153.164 159.228 153.165C159.167 153.167 159.107 153.17 159.048 153.174C159.018 153.176 158.987 153.178 158.957 153.18C158.949 153.18 158.94 153.181 158.931 153.182C158.919 153.183 158.907 153.184 158.895 153.185C158.851 153.188 158.806 153.192 158.763 153.197C158.715 153.201 158.668 153.207 158.622 153.212C158.618 153.213 158.615 153.213 158.611 153.214C158.594 153.216 158.578 153.218 158.561 153.22C158.48 153.231 158.4 153.243 158.322 153.257C158.305 153.26 158.288 153.263 158.271 153.266C158.241 153.272 158.212 153.277 158.184 153.283C157.765 153.368 157.4 153.497 157.09 153.67C156.995 153.722 156.906 153.779 156.821 153.84C156.812 153.847 156.803 153.853 156.794 153.86C156.457 154.111 156.215 154.42 156.067 154.789C156.003 154.948 155.956 155.119 155.927 155.3C155.923 155.324 155.92 155.348 155.917 155.372C155.911 155.413 155.907 155.454 155.903 155.496C155.899 155.537 155.897 155.578 155.895 155.62C155.892 155.67 155.891 155.721 155.891 155.773C155.891 156.016 155.923 156.243 155.987 156.456C156.103 156.843 156.325 157.183 156.653 157.473C156.752 157.559 156.855 157.637 156.964 157.707C157.027 157.748 157.092 157.786 157.159 157.821C157.571 158.038 158.047 158.146 158.586 158.146C158.666 158.146 158.745 158.144 158.822 158.138C158.843 158.137 158.864 158.135 158.884 158.133C158.939 158.128 158.994 158.122 159.048 158.114C159.214 158.09 159.373 158.052 159.525 158C159.587 157.979 159.648 157.956 159.707 157.93C159.747 157.913 159.786 157.895 159.824 157.875C160.062 157.758 160.278 157.602 160.474 157.407C160.479 157.403 160.483 157.398 160.487 157.394C160.491 157.39 160.494 157.387 160.498 157.383C160.528 157.353 160.557 157.322 160.586 157.29C160.618 157.498 160.665 157.681 160.727 157.839C160.731 157.851 160.736 157.864 160.741 157.875C160.752 157.902 160.763 157.928 160.775 157.953C160.783 157.969 160.79 157.985 160.798 158H162.937V157.875C162.884 157.776 162.838 157.664 162.798 157.54C162.761 157.424 162.73 157.297 162.704 157.159C162.697 157.118 162.69 157.076 162.683 157.033C162.68 157.011 162.677 156.988 162.674 156.966C162.672 156.955 162.671 156.945 162.669 156.935C162.64 156.705 162.624 156.45 162.622 156.169V152.734C162.622 152.724 162.622 152.714 162.622 152.705C162.621 152.545 162.61 152.391 162.59 152.245C162.578 152.154 162.562 152.067 162.543 151.982C162.541 151.975 162.54 151.968 162.538 151.962ZM160.498 154.396H159.707C159.646 154.396 159.587 154.398 159.529 154.4C159.527 154.4 159.526 154.4 159.524 154.4C159.456 154.403 159.39 154.408 159.326 154.414C159.297 154.417 159.269 154.42 159.241 154.424C159.174 154.433 159.109 154.443 159.048 154.456C159.016 154.462 158.985 154.47 158.955 154.477C158.945 154.48 158.935 154.482 158.925 154.485C158.814 154.515 158.713 154.552 158.622 154.596C158.61 154.602 158.598 154.608 158.586 154.614C158.553 154.632 158.52 154.651 158.49 154.671C158.362 154.754 158.26 154.855 158.184 154.975C158.162 155.008 158.142 155.044 158.125 155.081C158.112 155.108 158.1 155.135 158.089 155.164C158.052 155.263 158.027 155.371 158.016 155.489C158.016 155.491 158.015 155.493 158.015 155.495L158.008 155.62C158.008 155.668 158.011 155.714 158.017 155.759C158.018 155.764 158.018 155.769 158.019 155.773C158.025 155.812 158.033 155.849 158.044 155.885C158.045 155.889 158.046 155.893 158.047 155.897C158.076 155.993 158.122 156.081 158.184 156.16C158.214 156.199 158.248 156.236 158.286 156.271C158.372 156.35 158.472 156.411 158.586 156.453C158.588 156.454 158.59 156.455 158.592 156.456C158.604 156.46 158.615 156.464 158.627 156.467C158.66 156.478 158.694 156.488 158.73 156.495C158.736 156.497 158.742 156.498 158.748 156.499C158.84 156.518 158.94 156.528 159.048 156.528C159.213 156.528 159.372 156.509 159.524 156.47C159.529 156.469 159.533 156.468 159.538 156.467C159.551 156.463 159.565 156.459 159.579 156.456C159.598 156.45 159.618 156.444 159.637 156.438C159.66 156.43 159.684 156.422 159.707 156.413C159.712 156.412 159.717 156.41 159.722 156.408C159.786 156.383 159.85 156.355 159.912 156.323C159.925 156.316 159.937 156.309 159.949 156.302C160.013 156.266 160.072 156.227 160.128 156.185C160.135 156.18 160.142 156.174 160.149 156.169C160.19 156.137 160.229 156.103 160.265 156.067C160.357 155.977 160.433 155.877 160.494 155.766C160.495 155.764 160.497 155.761 160.498 155.759V154.396ZM170.999 146.075H174.745L174.917 145.891C174.62 145.614 174.272 145.407 173.91 145.278C173.558 145.153 173.256 145.123 173.052 145.123C172.848 145.123 172.541 145.152 172.182 145.281C171.824 145.41 171.478 145.615 171.179 145.891C171.174 145.896 171.169 145.901 171.163 145.906C171.158 145.912 171.152 145.917 171.147 145.922C171.108 145.959 171.07 145.998 171.033 146.039C171.028 146.043 171.024 146.048 171.02 146.053C171.013 146.06 171.006 146.068 170.999 146.075ZM172.188 148.815C172.106 148.738 172.04 148.652 171.99 148.557C171.907 148.402 171.865 148.225 171.865 148.024C171.865 147.825 171.907 147.647 171.99 147.492C172.039 147.401 172.102 147.317 172.18 147.241C172.22 147.203 172.262 147.168 172.307 147.138C172.314 147.133 172.322 147.128 172.329 147.123C172.523 146.996 172.764 146.933 173.052 146.933C173.335 146.933 173.574 146.996 173.767 147.123C173.775 147.128 173.782 147.132 173.789 147.137C173.834 147.168 173.876 147.203 173.916 147.241C173.996 147.317 174.061 147.401 174.111 147.493C174.112 147.495 174.113 147.496 174.114 147.498C174.143 147.552 174.167 147.61 174.186 147.67C174.187 147.673 174.188 147.676 174.189 147.679C174.222 147.786 174.238 147.901 174.238 148.024C174.238 148.222 174.197 148.398 174.114 148.552C174.062 148.649 173.993 148.736 173.909 148.815C173.875 148.847 173.841 148.876 173.804 148.903C173.797 148.909 173.789 148.914 173.782 148.919C173.586 149.055 173.342 149.123 173.052 149.123C172.915 149.123 172.788 149.108 172.671 149.078C172.54 149.043 172.421 148.99 172.315 148.918C172.27 148.887 172.228 148.853 172.188 148.815ZM175.99 151.316C175.959 151.369 175.93 151.424 175.904 151.48C175.788 151.731 175.725 152.002 175.713 152.294C175.711 152.328 175.71 152.363 175.71 152.397C175.71 152.408 175.711 152.419 175.711 152.429C175.716 152.795 175.809 153.124 175.99 153.414C176.016 153.457 176.045 153.499 176.076 153.54C176.187 153.691 176.324 153.83 176.486 153.958C176.539 154.001 176.596 154.042 176.655 154.082C176.788 154.172 176.935 154.256 177.097 154.335C177.102 154.337 177.108 154.34 177.113 154.342C177.121 154.346 177.13 154.35 177.138 154.354C177.144 154.357 177.151 154.36 177.157 154.363C177.256 154.409 177.36 154.453 177.468 154.494C177.667 154.57 177.882 154.638 178.114 154.699C178.229 154.73 178.349 154.758 178.472 154.785C178.485 154.788 178.497 154.791 178.51 154.793C178.519 154.795 178.528 154.797 178.538 154.799C178.578 154.808 178.617 154.816 178.655 154.824C178.659 154.825 178.663 154.826 178.667 154.827C178.673 154.828 178.68 154.83 178.686 154.831C178.695 154.833 178.703 154.835 178.711 154.837C178.765 154.849 178.817 154.861 178.867 154.874C178.868 154.874 178.87 154.874 178.871 154.875C178.875 154.876 178.878 154.877 178.882 154.877C178.883 154.878 178.884 154.878 178.885 154.878C178.899 154.882 178.912 154.885 178.926 154.889C178.95 154.895 178.974 154.901 178.998 154.907C179.149 154.948 179.284 154.99 179.403 155.034C179.458 155.054 179.509 155.075 179.557 155.096C179.566 155.1 179.575 155.104 179.584 155.108C179.653 155.138 179.714 155.17 179.768 155.202C179.785 155.212 179.801 155.221 179.816 155.231C179.85 155.253 179.882 155.275 179.911 155.299C179.911 155.3 179.912 155.3 179.913 155.301C179.932 155.317 179.951 155.334 179.968 155.351C180.011 155.394 180.047 155.441 180.076 155.491C180.116 155.562 180.141 155.639 180.151 155.722C180.155 155.751 180.156 155.78 180.156 155.81C180.156 155.84 180.155 155.87 180.152 155.899C180.151 155.904 180.15 155.909 180.15 155.914C180.139 156 180.114 156.079 180.076 156.152C180.023 156.252 179.945 156.341 179.841 156.418C179.808 156.442 179.773 156.465 179.735 156.485C179.65 156.53 179.553 156.566 179.442 156.592C179.44 156.593 179.438 156.593 179.436 156.594C179.295 156.626 179.133 156.643 178.951 156.645C178.943 156.645 178.934 156.645 178.926 156.645C178.92 156.645 178.914 156.645 178.908 156.645C178.899 156.645 178.89 156.645 178.882 156.645C178.764 156.643 178.652 156.633 178.547 156.616C178.537 156.615 178.527 156.613 178.517 156.611C178.495 156.607 178.473 156.603 178.451 156.598C178.355 156.577 178.266 156.55 178.183 156.515C178.181 156.515 178.179 156.514 178.178 156.513C178.156 156.504 178.135 156.495 178.114 156.485C178.114 156.485 178.114 156.485 178.114 156.485C178.032 156.445 177.955 156.399 177.886 156.345C177.861 156.325 177.837 156.305 177.814 156.284C177.809 156.28 177.804 156.275 177.8 156.271C177.669 156.145 177.576 155.992 177.522 155.81C177.512 155.773 177.502 155.735 177.494 155.696C177.494 155.692 177.493 155.688 177.492 155.684C177.48 155.619 177.472 155.552 177.468 155.48H175.461C175.461 155.515 175.462 155.55 175.464 155.585C175.469 155.704 175.484 155.822 175.508 155.938C175.572 156.247 175.703 156.541 175.901 156.821C175.929 156.861 175.959 156.9 175.99 156.938C176.168 157.162 176.383 157.358 176.632 157.526C176.706 157.576 176.782 157.623 176.862 157.668C176.941 157.713 177.024 157.755 177.109 157.795C177.225 157.847 177.345 157.894 177.468 157.935C177.54 157.959 177.613 157.98 177.687 158C177.743 158.015 177.8 158.029 177.857 158.041C177.86 158.042 177.863 158.043 177.866 158.043C177.928 158.056 177.99 158.069 178.053 158.079C178.073 158.083 178.093 158.086 178.114 158.089C178.12 158.09 178.126 158.091 178.132 158.092C178.371 158.128 178.621 158.146 178.882 158.146C178.897 158.146 178.911 158.146 178.926 158.146C179.662 158.141 180.295 158.01 180.826 157.752C180.828 157.751 180.83 157.75 180.832 157.749C180.992 157.671 181.143 157.581 181.284 157.48C181.669 157.201 181.935 156.869 182.081 156.485C182.134 156.345 182.171 156.199 182.192 156.046C182.203 155.969 182.21 155.89 182.213 155.81C182.214 155.781 182.214 155.752 182.214 155.722C182.214 155.606 182.207 155.495 182.192 155.387C182.118 154.838 181.853 154.391 181.399 154.046C181.36 154.016 181.319 153.987 181.278 153.959C181.157 153.878 181.024 153.803 180.88 153.734C180.82 153.706 180.757 153.678 180.693 153.651C180.68 153.646 180.667 153.641 180.655 153.636C180.616 153.62 180.577 153.605 180.537 153.591C180.409 153.544 180.27 153.499 180.121 153.456C180.106 153.452 180.091 153.447 180.076 153.443C179.889 153.39 179.686 153.34 179.467 153.293C179.429 153.285 179.39 153.277 179.351 153.269C179.316 153.261 179.28 153.254 179.244 153.247C179.239 153.246 179.235 153.245 179.23 153.244C179.221 153.243 179.213 153.241 179.204 153.239C179.106 153.219 179.013 153.199 178.926 153.178C178.91 153.174 178.895 153.17 178.88 153.166C178.879 153.166 178.877 153.166 178.876 153.165C178.875 153.165 178.875 153.165 178.875 153.165C178.872 153.164 178.87 153.164 178.867 153.163C178.752 153.134 178.646 153.104 178.549 153.073C178.547 153.072 178.546 153.072 178.544 153.071C178.52 153.063 178.496 153.055 178.473 153.047C178.465 153.044 178.457 153.042 178.449 153.039C178.386 153.016 178.328 152.993 178.274 152.969C178.215 152.943 178.161 152.916 178.114 152.888C178.101 152.881 178.088 152.873 178.076 152.866C178.071 152.862 178.066 152.859 178.06 152.855C177.913 152.752 177.817 152.629 177.774 152.485C177.765 152.456 177.758 152.427 177.754 152.397C177.749 152.364 177.747 152.33 177.747 152.294C177.747 152.229 177.753 152.167 177.767 152.108C177.767 152.107 177.767 152.106 177.767 152.105C177.805 151.94 177.896 151.798 178.04 151.679C178.063 151.66 178.088 151.641 178.114 151.624C178.212 151.56 178.327 151.512 178.459 151.48C178.581 151.452 178.717 151.438 178.867 151.438C178.87 151.438 178.872 151.438 178.875 151.438C178.909 151.438 178.942 151.438 178.975 151.44C178.992 151.441 179.008 151.442 179.025 151.443C179.096 151.448 179.163 151.456 179.227 151.467C179.23 151.468 179.233 151.469 179.236 151.469C179.255 151.473 179.273 151.476 179.291 151.48C179.375 151.5 179.453 151.525 179.523 151.558C179.525 151.559 179.528 151.56 179.53 151.561C179.535 151.563 179.54 151.566 179.545 151.568C179.637 151.613 179.716 151.67 179.783 151.738C179.915 151.87 180.003 152.028 180.045 152.21C180.046 152.213 180.047 152.216 180.048 152.22C180.053 152.244 180.058 152.269 180.062 152.294C180.071 152.355 180.076 152.419 180.076 152.485H182.192C182.192 152.308 182.176 152.138 182.143 151.977C182.055 151.552 181.854 151.181 181.538 150.863C181.536 150.862 181.535 150.861 181.534 150.859C181.47 150.795 181.401 150.733 181.327 150.673C181.313 150.662 181.299 150.65 181.284 150.639C181.215 150.584 181.142 150.533 181.068 150.484C181.061 150.48 181.055 150.476 181.048 150.472C180.763 150.291 180.439 150.155 180.076 150.064C180.038 150.055 180 150.046 179.962 150.037C179.932 150.031 179.902 150.025 179.871 150.019C179.868 150.018 179.864 150.017 179.861 150.017C179.851 150.015 179.841 150.013 179.832 150.011C179.536 149.956 179.217 149.929 178.875 149.929C178.872 149.929 178.87 149.929 178.867 149.929C178.602 149.929 178.351 149.948 178.114 149.986C178.017 150.002 177.923 150.02 177.832 150.042C177.788 150.052 177.744 150.063 177.701 150.075C177.435 150.148 177.19 150.249 176.966 150.377C176.83 150.455 176.702 150.542 176.582 150.639C176.396 150.789 176.24 150.951 176.113 151.125C176.106 151.135 176.099 151.145 176.092 151.155C176.055 151.207 176.021 151.261 175.99 151.316ZM175.098 146.075H174.803L174.949 145.922C174.988 145.959 175.027 145.998 175.064 146.038C175.076 146.05 175.087 146.063 175.098 146.075ZM136.328 154.396H135.537C135.476 154.396 135.417 154.398 135.359 154.4C135.357 154.4 135.356 154.4 135.354 154.4C135.286 154.403 135.22 154.408 135.156 154.414C135.127 154.417 135.099 154.42 135.071 154.424C135.004 154.433 134.94 154.443 134.878 154.456C134.846 154.462 134.815 154.47 134.785 154.477C134.775 154.48 134.765 154.482 134.755 154.485C134.644 154.515 134.543 154.552 134.452 154.596C134.44 154.602 134.428 154.608 134.417 154.614C134.412 154.617 134.407 154.619 134.403 154.622C134.374 154.637 134.346 154.654 134.32 154.671C134.193 154.754 134.09 154.855 134.014 154.975C133.992 155.008 133.972 155.044 133.955 155.081C133.942 155.108 133.93 155.135 133.919 155.164C133.882 155.263 133.857 155.371 133.846 155.489C133.846 155.491 133.845 155.493 133.845 155.495L133.838 155.62C133.838 155.668 133.841 155.714 133.847 155.759C133.848 155.764 133.848 155.769 133.849 155.773C133.855 155.812 133.863 155.849 133.874 155.885C133.875 155.889 133.876 155.893 133.877 155.897C133.906 155.993 133.952 156.081 134.014 156.16C134.044 156.199 134.078 156.236 134.116 156.271C134.198 156.347 134.294 156.406 134.403 156.448C134.407 156.45 134.412 156.452 134.417 156.453C134.418 156.454 134.42 156.455 134.422 156.456C134.434 156.46 134.445 156.464 134.457 156.467C134.49 156.478 134.525 156.488 134.56 156.495C134.566 156.497 134.572 156.498 134.578 156.499C134.67 156.518 134.77 156.528 134.878 156.528C135.043 156.528 135.202 156.509 135.354 156.47C135.359 156.469 135.363 156.468 135.368 156.467C135.381 156.463 135.395 156.459 135.409 156.456C135.428 156.45 135.448 156.444 135.467 156.438C135.49 156.43 135.514 156.422 135.537 156.413C135.542 156.412 135.547 156.41 135.552 156.408C135.616 156.383 135.68 156.355 135.742 156.323C135.82 156.281 135.892 156.235 135.958 156.185C135.965 156.18 135.972 156.174 135.979 156.169C136.057 156.107 136.127 156.04 136.188 155.966C136.24 155.904 136.285 155.837 136.324 155.766C136.326 155.764 136.327 155.761 136.328 155.759V154.396Z" fill="white"/>
</svg>
