<svg width="519" height="160" viewBox="0 0 519 160" fill="none" xmlns="http://www.w3.org/2000/svg">
<rect x="1" y="1" width="517" height="158" rx="9" fill="#7187FB" stroke="#001EBB" stroke-width="2"/>
<g filter="url(#filter0_d)">
<rect x="25" y="55" width="80" height="80" rx="6" fill="#FFF000"/>
<rect x="26" y="56" width="78" height="78" rx="5" stroke="#001EBB" stroke-width="2"/>
</g>
<g filter="url(#filter1_d)">
<rect x="120" y="55" width="80" height="80" rx="6" fill="#FFF000"/>
<rect x="121" y="56" width="78" height="78" rx="5" stroke="#001EBB" stroke-width="2"/>
</g>
<g filter="url(#filter2_d)">
<rect x="215" y="55" width="80" height="80" rx="6" fill="#FFF000"/>
<rect x="216" y="56" width="78" height="78" rx="5" stroke="#001EBB" stroke-width="2"/>
</g>
<g filter="url(#filter3_d)">
<path d="M35.1641 25.1875C34.6042 25.1224 34.0833 25.0898 33.6016 25.0898C32.3255 25.0898 31.6875 25.6335 31.6875 26.7207V27.4336H33.7871V29.5039H31.6875V38H28.8555V29.5039H27.2832V27.4336H28.8555V26.6133C28.8685 25.3893 29.2526 24.4486 30.0078 23.791C30.763 23.127 31.8307 22.7949 33.2109 22.7949C34.194 22.7949 35.7891 22.8991 37.9961 23.1074V38H35.1641V25.1875ZM45.2129 38.1953C43.6634 38.1953 42.4004 37.7201 41.4238 36.7695C40.4538 35.819 39.9688 34.5527 39.9688 32.9707V32.6973C39.9688 31.6361 40.1738 30.6888 40.584 29.8555C40.9941 29.0156 41.5736 28.3711 42.3223 27.9219C43.0775 27.4661 43.9368 27.2383 44.9004 27.2383C46.3457 27.2383 47.4818 27.694 48.3086 28.6055C49.1419 29.5169 49.5586 30.8092 49.5586 32.4824V33.6348H42.8301C42.9212 34.3249 43.1947 34.8783 43.6504 35.2949C44.1126 35.7116 44.6953 35.9199 45.3984 35.9199C46.4857 35.9199 47.3353 35.526 47.9473 34.7383L49.334 36.291C48.9108 36.89 48.3379 37.3587 47.6152 37.6973C46.8926 38.0293 46.0918 38.1953 45.2129 38.1953ZM44.8906 29.5234C44.3307 29.5234 43.875 29.7122 43.5234 30.0898C43.1784 30.4674 42.957 31.0078 42.8594 31.7109H46.7852V31.4863C46.7721 30.8613 46.6029 30.3796 46.2773 30.041C45.9518 29.696 45.4896 29.5234 44.8906 29.5234ZM55.1934 30.5879L56.9707 27.4336H59.9883L56.9805 32.6094L60.1152 38H57.0879L55.2031 34.6797L53.3281 38H50.291L53.4258 32.6094L50.4277 27.4336H53.4551L55.1934 30.5879ZM70.7207 35.9199C71.2415 35.9199 71.6647 35.7767 71.9902 35.4902C72.3158 35.2038 72.485 34.8229 72.498 34.3477H75.1445C75.138 35.0638 74.9427 35.7214 74.5586 36.3203C74.1745 36.9128 73.6471 37.375 72.9766 37.707C72.3125 38.0326 71.5768 38.1953 70.7695 38.1953C69.2591 38.1953 68.0677 37.7168 67.1953 36.7598C66.3229 35.7962 65.8867 34.4681 65.8867 32.7754V32.5898C65.8867 30.9622 66.3197 29.6634 67.1855 28.6934C68.0514 27.7233 69.2396 27.2383 70.75 27.2383C72.0716 27.2383 73.1296 27.6159 73.9238 28.3711C74.7246 29.1198 75.1315 30.1191 75.1445 31.3691H72.498C72.485 30.8223 72.3158 30.3796 71.9902 30.041C71.6647 29.696 71.235 29.5234 70.7012 29.5234C70.0436 29.5234 69.5456 29.7643 69.207 30.2461C68.875 30.7214 68.709 31.4961 68.709 32.5703V32.8633C68.709 33.9505 68.875 34.7318 69.207 35.207C69.5391 35.6823 70.0436 35.9199 70.7207 35.9199ZM76.3164 32.6191C76.3164 31.571 76.5182 30.6367 76.9219 29.8164C77.3255 28.9961 77.9049 28.3613 78.6602 27.9121C79.4219 27.4629 80.304 27.2383 81.3066 27.2383C82.7324 27.2383 83.8945 27.6745 84.793 28.5469C85.6979 29.4193 86.2025 30.6042 86.3066 32.1016L86.3262 32.8242C86.3262 34.4453 85.8737 35.7474 84.9688 36.7305C84.0638 37.707 82.8496 38.1953 81.3262 38.1953C79.8027 38.1953 78.5853 37.707 77.6738 36.7305C76.7689 35.7539 76.3164 34.4258 76.3164 32.7461V32.6191ZM79.1387 32.8242C79.1387 33.8268 79.3275 34.5951 79.7051 35.1289C80.0827 35.6562 80.623 35.9199 81.3262 35.9199C82.0098 35.9199 82.5436 35.6595 82.9277 35.1387C83.3118 34.6113 83.5039 33.7715 83.5039 32.6191C83.5039 31.6361 83.3118 30.8743 82.9277 30.334C82.5436 29.7936 82.0033 29.5234 81.3066 29.5234C80.6165 29.5234 80.0827 29.7936 79.7051 30.334C79.3275 30.8678 79.1387 31.6979 79.1387 32.8242ZM90.6621 27.4336L90.75 28.6543C91.5052 27.7103 92.5176 27.2383 93.7871 27.2383C94.9069 27.2383 95.7402 27.5671 96.2871 28.2246C96.834 28.8822 97.1139 29.8652 97.127 31.1738V38H94.3047V31.2422C94.3047 30.6432 94.1745 30.2103 93.9141 29.9434C93.6536 29.6699 93.2207 29.5332 92.6152 29.5332C91.821 29.5332 91.2253 29.8717 90.8281 30.5488V38H88.0059V27.4336H90.6621ZM102.654 24.8359V27.4336H104.461V29.5039H102.654V34.7773C102.654 35.168 102.729 35.4479 102.879 35.6172C103.029 35.7865 103.315 35.8711 103.738 35.8711C104.051 35.8711 104.327 35.8483 104.568 35.8027V37.9414C104.015 38.1107 103.445 38.1953 102.859 38.1953C100.88 38.1953 99.8711 37.196 99.832 35.1973V29.5039H98.2891V27.4336H99.832V24.8359H102.654ZM112.156 38C112.026 37.7461 111.932 37.4303 111.873 37.0527C111.189 37.8145 110.301 38.1953 109.207 38.1953C108.172 38.1953 107.312 37.8958 106.629 37.2969C105.952 36.6979 105.613 35.9427 105.613 35.0312C105.613 33.9115 106.027 33.0521 106.854 32.4531C107.687 31.8542 108.888 31.5514 110.457 31.5449H111.756V30.9395C111.756 30.4512 111.629 30.0605 111.375 29.7676C111.128 29.4746 110.734 29.3281 110.193 29.3281C109.718 29.3281 109.344 29.4421 109.07 29.6699C108.803 29.8978 108.67 30.2103 108.67 30.6074H105.848C105.848 29.9954 106.036 29.429 106.414 28.9082C106.792 28.3874 107.326 27.9805 108.016 27.6875C108.706 27.388 109.48 27.2383 110.34 27.2383C111.642 27.2383 112.674 27.5671 113.436 28.2246C114.204 28.8757 114.588 29.7936 114.588 30.9785V35.5586C114.594 36.5612 114.734 37.3197 115.008 37.834V38H112.156ZM109.822 36.0371C110.239 36.0371 110.623 35.946 110.975 35.7637C111.326 35.5749 111.587 35.3242 111.756 35.0117V33.1953H110.701C109.288 33.1953 108.536 33.6836 108.445 34.6602L108.436 34.8262C108.436 35.1777 108.559 35.4674 108.807 35.6953C109.054 35.9232 109.393 36.0371 109.822 36.0371ZM119.734 38H116.902V27.4336H119.734V38ZM116.736 24.6992C116.736 24.276 116.876 23.9277 117.156 23.6543C117.443 23.3809 117.83 23.2441 118.318 23.2441C118.8 23.2441 119.184 23.3809 119.471 23.6543C119.757 23.9277 119.9 24.276 119.9 24.6992C119.9 25.1289 119.754 25.4805 119.461 25.7539C119.174 26.0273 118.794 26.1641 118.318 26.1641C117.843 26.1641 117.459 26.0273 117.166 25.7539C116.88 25.4805 116.736 25.1289 116.736 24.6992ZM124.666 27.4336L124.754 28.6543C125.509 27.7103 126.521 27.2383 127.791 27.2383C128.911 27.2383 129.744 27.5671 130.291 28.2246C130.838 28.8822 131.118 29.8652 131.131 31.1738V38H128.309V31.2422C128.309 30.6432 128.178 30.2103 127.918 29.9434C127.658 29.6699 127.225 29.5332 126.619 29.5332C125.825 29.5332 125.229 29.8717 124.832 30.5488V38H122.01V27.4336H124.666ZM138.143 38.1953C136.593 38.1953 135.33 37.7201 134.354 36.7695C133.383 35.819 132.898 34.5527 132.898 32.9707V32.6973C132.898 31.6361 133.104 30.6888 133.514 29.8555C133.924 29.0156 134.503 28.3711 135.252 27.9219C136.007 27.4661 136.867 27.2383 137.83 27.2383C139.275 27.2383 140.411 27.694 141.238 28.6055C142.072 29.5169 142.488 30.8092 142.488 32.4824V33.6348H135.76C135.851 34.3249 136.124 34.8783 136.58 35.2949C137.042 35.7116 137.625 35.9199 138.328 35.9199C139.415 35.9199 140.265 35.526 140.877 34.7383L142.264 36.291C141.84 36.89 141.268 37.3587 140.545 37.6973C139.822 38.0293 139.021 38.1953 138.143 38.1953ZM137.82 29.5234C137.26 29.5234 136.805 29.7122 136.453 30.0898C136.108 30.4674 135.887 31.0078 135.789 31.7109H139.715V31.4863C139.702 30.8613 139.533 30.3796 139.207 30.041C138.882 29.696 138.419 29.5234 137.82 29.5234ZM150.037 30.0801C149.653 30.028 149.314 30.002 149.021 30.002C147.954 30.002 147.254 30.3633 146.922 31.0859V38H144.1V27.4336H146.766L146.844 28.6934C147.41 27.7233 148.195 27.2383 149.197 27.2383C149.51 27.2383 149.803 27.2806 150.076 27.3652L150.037 30.0801Z" fill="white"/>
</g>
<defs>
<filter id="filter0_d" x="25" y="55" width="86" height="86" filterUnits="userSpaceOnUse" color-interpolation-filters="sRGB">
<feFlood flood-opacity="0" result="BackgroundImageFix"/>
<feColorMatrix in="SourceAlpha" type="matrix" values="0 0 0 0 0 0 0 0 0 0 0 0 0 0 0 0 0 0 127 0"/>
<feOffset dx="6" dy="6"/>
<feColorMatrix type="matrix" values="0 0 0 0 0 0 0 0 0 0 0 0 0 0 0 0 0 0 0.15 0"/>
<feBlend mode="normal" in2="BackgroundImageFix" result="effect1_dropShadow"/>
<feBlend mode="normal" in="SourceGraphic" in2="effect1_dropShadow" result="shape"/>
</filter>
<filter id="filter1_d" x="120" y="55" width="86" height="86" filterUnits="userSpaceOnUse" color-interpolation-filters="sRGB">
<feFlood flood-opacity="0" result="BackgroundImageFix"/>
<feColorMatrix in="SourceAlpha" type="matrix" values="0 0 0 0 0 0 0 0 0 0 0 0 0 0 0 0 0 0 127 0"/>
<feOffset dx="6" dy="6"/>
<feColorMatrix type="matrix" values="0 0 0 0 0 0 0 0 0 0 0 0 0 0 0 0 0 0 0.15 0"/>
<feBlend mode="normal" in2="BackgroundImageFix" result="effect1_dropShadow"/>
<feBlend mode="normal" in="SourceGraphic" in2="effect1_dropShadow" result="shape"/>
</filter>
<filter id="filter2_d" x="215" y="55" width="86" height="86" filterUnits="userSpaceOnUse" color-interpolation-filters="sRGB">
<feFlood flood-opacity="0" result="BackgroundImageFix"/>
<feColorMatrix in="SourceAlpha" type="matrix" values="0 0 0 0 0 0 0 0 0 0 0 0 0 0 0 0 0 0 127 0"/>
<feOffset dx="6" dy="6"/>
<feColorMatrix type="matrix" values="0 0 0 0 0 0 0 0 0 0 0 0 0 0 0 0 0 0 0.15 0"/>
<feBlend mode="normal" in2="BackgroundImageFix" result="effect1_dropShadow"/>
<feBlend mode="normal" in="SourceGraphic" in2="effect1_dropShadow" result="shape"/>
</filter>
<filter id="filter3_d" x="27" y="20" width="125" height="24" filterUnits="userSpaceOnUse" color-interpolation-filters="sRGB">
<feFlood flood-opacity="0" result="BackgroundImageFix"/>
<feColorMatrix in="SourceAlpha" type="matrix" values="0 0 0 0 0 0 0 0 0 0 0 0 0 0 0 0 0 0 127 0"/>
<feOffset dx="1" dy="1"/>
<feColorMatrix type="matrix" values="0 0 0 0 0 0 0 0 0 0 0 0 0 0 0 0 0 0 0.25 0"/>
<feBlend mode="normal" in2="BackgroundImageFix" result="effect1_dropShadow"/>
<feBlend mode="normal" in="SourceGraphic" in2="effect1_dropShadow" result="shape"/>
</filter>
</defs>
</svg>
