<svg width="570" height="240" viewBox="0 0 570 240" fill="none" xmlns="http://www.w3.org/2000/svg">
<rect x="1" y="36" width="568" height="68" fill="#F7F7F7" stroke="#AAAAAA" stroke-width="2" stroke-dasharray="6 4"/>
<path d="M262.447 16C262.358 15.8285 262.281 15.549 262.214 15.1616C261.572 15.8312 260.787 16.166 259.857 16.166C258.955 16.166 258.219 15.9087 257.649 15.394C257.079 14.8794 256.794 14.243 256.794 13.4849C256.794 12.5275 257.148 11.7943 257.856 11.2852C258.57 10.7705 259.589 10.5132 260.911 10.5132H262.148V9.92383C262.148 9.45898 262.018 9.08822 261.758 8.81152C261.498 8.5293 261.102 8.38818 260.571 8.38818C260.111 8.38818 259.735 8.50439 259.442 8.73682C259.149 8.9637 259.002 9.25423 259.002 9.6084H256.985C256.985 9.11589 257.148 8.65658 257.475 8.23047C257.801 7.79883 258.244 7.46126 258.803 7.21777C259.367 6.97428 259.995 6.85254 260.687 6.85254C261.738 6.85254 262.577 7.11816 263.202 7.64941C263.827 8.17513 264.148 8.91667 264.165 9.87402V13.9248C264.165 14.7327 264.278 15.3774 264.505 15.8589V16H262.447ZM260.23 14.5474C260.629 14.5474 261.002 14.4505 261.351 14.2568C261.705 14.0632 261.971 13.8031 262.148 13.4766V11.7832H261.061C260.313 11.7832 259.752 11.9132 259.375 12.1733C258.999 12.4334 258.811 12.8014 258.811 13.2773C258.811 13.6647 258.938 13.9746 259.193 14.207C259.453 14.4339 259.799 14.5474 260.23 14.5474ZM271.719 15.1201C271.127 15.8174 270.285 16.166 269.195 16.166C268.221 16.166 267.483 15.881 266.979 15.311C266.481 14.741 266.232 13.9165 266.232 12.8374V7.01855H268.249V12.8125C268.249 13.9525 268.722 14.5225 269.668 14.5225C270.648 14.5225 271.309 14.1711 271.652 13.4683V7.01855H273.669V16H271.769L271.719 15.1201ZM278.251 4.83545V7.01855H279.837V8.5127H278.251V13.5264C278.251 13.8695 278.318 14.1185 278.451 14.2734C278.589 14.4229 278.833 14.4976 279.181 14.4976C279.414 14.4976 279.649 14.4699 279.887 14.4146V15.9751C279.427 16.1024 278.985 16.166 278.559 16.166C277.009 16.166 276.234 15.311 276.234 13.6011V8.5127H274.757V7.01855H276.234V4.83545H278.251ZM280.758 11.4263C280.758 10.5464 280.933 9.75505 281.281 9.05225C281.63 8.34391 282.12 7.8016 282.75 7.42529C283.381 7.04346 284.106 6.85254 284.925 6.85254C286.137 6.85254 287.119 7.24268 287.872 8.02295C288.63 8.80322 289.04 9.83805 289.101 11.1274L289.109 11.6006C289.109 12.486 288.937 13.2773 288.594 13.9746C288.257 14.6719 287.77 15.2114 287.133 15.5933C286.502 15.9751 285.772 16.166 284.942 16.166C283.675 16.166 282.659 15.7454 281.896 14.9043C281.137 14.0576 280.758 12.9315 280.758 11.5259V11.4263ZM282.775 11.6006C282.775 12.5247 282.966 13.2497 283.348 13.7754C283.73 14.2956 284.261 14.5557 284.942 14.5557C285.623 14.5557 286.151 14.29 286.527 13.7588C286.909 13.2275 287.1 12.45 287.1 11.4263C287.1 10.5187 286.904 9.79932 286.511 9.26807C286.123 8.73682 285.595 8.47119 284.925 8.47119C284.267 8.47119 283.744 8.73405 283.356 9.25977C282.969 9.77995 282.775 10.5602 282.775 11.6006ZM294.729 11.6753H290.371V10.0483H294.729V11.6753ZM296.928 16V8.5127H295.559V7.01855H296.928V6.4043C296.934 5.7015 297.083 5.09831 297.376 4.59473C297.67 4.09115 298.085 3.71208 298.622 3.45752C299.158 3.20296 299.803 3.07568 300.556 3.07568C300.998 3.07568 301.422 3.12272 301.826 3.2168C302.235 3.31087 302.659 3.42985 303.096 3.57373L302.789 5.24219C302.025 4.97656 301.328 4.84375 300.697 4.84375C300.083 4.84375 299.637 4.97933 299.36 5.25049C299.084 5.51611 298.945 5.91732 298.945 6.4541V7.01855H300.713V8.5127H298.945V16H296.928ZM304.05 16H302.033V7.01855H304.05V16ZM308.433 16H306.416V3.25H308.433V16ZM312.783 16H310.766V3.25H312.783V16Z" fill="#444444"/>
<rect x="10" y="45" width="80" height="50" rx="5" fill="#1E73FF"/>
<rect x="100" y="45" width="80" height="50" rx="5" fill="#1E73FF"/>
<rect x="190" y="45" width="80" height="50" rx="5" fill="#1E73FF"/>
<rect x="280" y="45" width="80" height="50" rx="5" fill="#1E73FF"/>
<path d="M52.0801 77H49.2578V66.1211L45.8887 67.166V64.8711L51.7773 62.7617H52.0801V77Z" fill="white"/>
<path d="M144.971 77H135.225V75.0664L139.824 70.1641C140.456 69.474 140.921 68.8717 141.221 68.3574C141.527 67.8431 141.68 67.3548 141.68 66.8926C141.68 66.2611 141.52 65.7663 141.201 65.4082C140.882 65.0436 140.426 64.8613 139.834 64.8613C139.196 64.8613 138.691 65.0827 138.32 65.5254C137.956 65.9616 137.773 66.5378 137.773 67.2539H134.941C134.941 66.388 135.146 65.597 135.557 64.8809C135.973 64.1647 136.559 63.6048 137.314 63.2012C138.07 62.791 138.926 62.5859 139.883 62.5859C141.348 62.5859 142.484 62.9375 143.291 63.6406C144.105 64.3438 144.512 65.3366 144.512 66.6191C144.512 67.3223 144.329 68.0384 143.965 68.7676C143.6 69.4967 142.975 70.3464 142.09 71.3164L138.857 74.7246H144.971V77Z" fill="white"/>
<path d="M228.096 68.6406H229.6C230.316 68.6406 230.846 68.4616 231.191 68.1035C231.536 67.7454 231.709 67.2702 231.709 66.6777C231.709 66.1048 231.536 65.6589 231.191 65.3398C230.853 65.0208 230.384 64.8613 229.785 64.8613C229.245 64.8613 228.792 65.0111 228.428 65.3105C228.063 65.6035 227.881 65.9876 227.881 66.4629H225.059C225.059 65.7207 225.257 65.0566 225.654 64.4707C226.058 63.8783 226.618 63.416 227.334 63.084C228.057 62.752 228.851 62.5859 229.717 62.5859C231.221 62.5859 232.399 62.9473 233.252 63.6699C234.105 64.3861 234.531 65.3757 234.531 66.6387C234.531 67.2897 234.333 67.8887 233.936 68.4355C233.538 68.9824 233.018 69.4023 232.373 69.6953C233.174 69.9818 233.77 70.4115 234.16 70.9844C234.557 71.5573 234.756 72.2344 234.756 73.0156C234.756 74.2786 234.294 75.291 233.369 76.0527C232.451 76.8145 231.234 77.1953 229.717 77.1953C228.298 77.1953 227.135 76.821 226.23 76.0723C225.332 75.3236 224.883 74.334 224.883 73.1035H227.705C227.705 73.6374 227.904 74.0736 228.301 74.4121C228.704 74.7507 229.199 74.9199 229.785 74.9199C230.456 74.9199 230.98 74.7441 231.357 74.3926C231.742 74.0345 231.934 73.5625 231.934 72.9766C231.934 71.5573 231.152 70.8477 229.59 70.8477H228.096V68.6406Z" fill="white"/>
<path d="M323.574 71.6484H325.186V73.9238H323.574V77H320.752V73.9238H314.922L314.795 72.1465L320.723 62.7812H323.574V71.6484ZM317.607 71.6484H320.752V66.6289L320.566 66.9512L317.607 71.6484Z" fill="white"/>
<rect x="1" y="171" width="568" height="68" fill="#F7F7F7" stroke="#AAAAAA" stroke-width="2" stroke-dasharray="6 4"/>
<path d="M264.466 151C264.377 150.828 264.3 150.549 264.233 150.162C263.591 150.831 262.806 151.166 261.876 151.166C260.974 151.166 260.238 150.909 259.668 150.394C259.098 149.879 258.813 149.243 258.813 148.485C258.813 147.528 259.167 146.794 259.875 146.285C260.589 145.771 261.608 145.513 262.93 145.513H264.167V144.924C264.167 144.459 264.037 144.088 263.777 143.812C263.517 143.529 263.121 143.388 262.59 143.388C262.131 143.388 261.754 143.504 261.461 143.737C261.168 143.964 261.021 144.254 261.021 144.608H259.004C259.004 144.116 259.167 143.657 259.494 143.23C259.82 142.799 260.263 142.461 260.822 142.218C261.386 141.974 262.014 141.853 262.706 141.853C263.757 141.853 264.596 142.118 265.221 142.649C265.847 143.175 266.167 143.917 266.184 144.874V148.925C266.184 149.733 266.298 150.377 266.524 150.859V151H264.466ZM262.25 149.547C262.648 149.547 263.021 149.451 263.37 149.257C263.724 149.063 263.99 148.803 264.167 148.477V146.783H263.08C262.333 146.783 261.771 146.913 261.395 147.173C261.018 147.433 260.83 147.801 260.83 148.277C260.83 148.665 260.957 148.975 261.212 149.207C261.472 149.434 261.818 149.547 262.25 149.547ZM273.738 150.12C273.146 150.817 272.305 151.166 271.214 151.166C270.24 151.166 269.502 150.881 268.998 150.311C268.5 149.741 268.251 148.917 268.251 147.837V142.019H270.268V147.812C270.268 148.952 270.741 149.522 271.688 149.522C272.667 149.522 273.328 149.171 273.671 148.468V142.019H275.688V151H273.788L273.738 150.12ZM280.271 139.835V142.019H281.856V143.513H280.271V148.526C280.271 148.869 280.337 149.118 280.47 149.273C280.608 149.423 280.852 149.498 281.2 149.498C281.433 149.498 281.668 149.47 281.906 149.415V150.975C281.446 151.102 281.004 151.166 280.578 151.166C279.028 151.166 278.253 150.311 278.253 148.601V143.513H276.776V142.019H278.253V139.835H280.271ZM282.777 146.426C282.777 145.546 282.952 144.755 283.3 144.052C283.649 143.344 284.139 142.802 284.77 142.425C285.4 142.043 286.125 141.853 286.944 141.853C288.156 141.853 289.139 142.243 289.891 143.023C290.649 143.803 291.059 144.838 291.12 146.127L291.128 146.601C291.128 147.486 290.956 148.277 290.613 148.975C290.276 149.672 289.789 150.211 289.152 150.593C288.521 150.975 287.791 151.166 286.961 151.166C285.694 151.166 284.678 150.745 283.915 149.904C283.156 149.058 282.777 147.931 282.777 146.526V146.426ZM284.794 146.601C284.794 147.525 284.985 148.25 285.367 148.775C285.749 149.296 286.28 149.556 286.961 149.556C287.642 149.556 288.17 149.29 288.546 148.759C288.928 148.228 289.119 147.45 289.119 146.426C289.119 145.519 288.923 144.799 288.53 144.268C288.142 143.737 287.614 143.471 286.944 143.471C286.286 143.471 285.763 143.734 285.375 144.26C284.988 144.78 284.794 145.56 284.794 146.601ZM296.748 146.675H292.39V145.048H296.748V146.675ZM298.947 151V143.513H297.578V142.019H298.947V141.404C298.953 140.701 299.102 140.098 299.396 139.595C299.689 139.091 300.104 138.712 300.641 138.458C301.177 138.203 301.822 138.076 302.575 138.076C303.017 138.076 303.441 138.123 303.845 138.217C304.254 138.311 304.678 138.43 305.115 138.574L304.808 140.242C304.044 139.977 303.347 139.844 302.716 139.844C302.102 139.844 301.656 139.979 301.379 140.25C301.103 140.516 300.964 140.917 300.964 141.454V142.019H302.732V143.513H300.964V151H298.947ZM306.069 151H304.052V142.019H306.069V151ZM310.834 139.835V142.019H312.419V143.513H310.834V148.526C310.834 148.869 310.9 149.118 311.033 149.273C311.172 149.423 311.415 149.498 311.764 149.498C311.996 149.498 312.231 149.47 312.469 149.415V150.975C312.01 151.102 311.567 151.166 311.141 151.166C309.592 151.166 308.817 150.311 308.817 148.601V143.513H307.339V142.019H308.817V139.835H310.834Z" fill="#444444"/>
<rect x="10" y="180" width="130" height="50" rx="5" fill="#1E73FF"/>
<rect x="150" y="180" width="130" height="50" rx="5" fill="#1E73FF"/>
<rect x="290" y="180" width="130" height="50" rx="5" fill="#1E73FF"/>
<rect x="430" y="180" width="130" height="50" rx="5" fill="#1E73FF"/>
<path d="M77.0801 212H74.2578V201.121L70.8887 202.166V199.871L76.7773 197.762H77.0801V212Z" fill="white"/>
<path d="M219.971 212H210.225V210.066L214.824 205.164C215.456 204.474 215.921 203.872 216.221 203.357C216.527 202.843 216.68 202.355 216.68 201.893C216.68 201.261 216.52 200.766 216.201 200.408C215.882 200.044 215.426 199.861 214.834 199.861C214.196 199.861 213.691 200.083 213.32 200.525C212.956 200.962 212.773 201.538 212.773 202.254H209.941C209.941 201.388 210.146 200.597 210.557 199.881C210.973 199.165 211.559 198.605 212.314 198.201C213.07 197.791 213.926 197.586 214.883 197.586C216.348 197.586 217.484 197.938 218.291 198.641C219.105 199.344 219.512 200.337 219.512 201.619C219.512 202.322 219.329 203.038 218.965 203.768C218.6 204.497 217.975 205.346 217.09 206.316L213.857 209.725H219.971V212Z" fill="white"/>
<path d="M353.096 203.641H354.6C355.316 203.641 355.846 203.462 356.191 203.104C356.536 202.745 356.709 202.27 356.709 201.678C356.709 201.105 356.536 200.659 356.191 200.34C355.853 200.021 355.384 199.861 354.785 199.861C354.245 199.861 353.792 200.011 353.428 200.311C353.063 200.604 352.881 200.988 352.881 201.463H350.059C350.059 200.721 350.257 200.057 350.654 199.471C351.058 198.878 351.618 198.416 352.334 198.084C353.057 197.752 353.851 197.586 354.717 197.586C356.221 197.586 357.399 197.947 358.252 198.67C359.105 199.386 359.531 200.376 359.531 201.639C359.531 202.29 359.333 202.889 358.936 203.436C358.538 203.982 358.018 204.402 357.373 204.695C358.174 204.982 358.77 205.411 359.16 205.984C359.557 206.557 359.756 207.234 359.756 208.016C359.756 209.279 359.294 210.291 358.369 211.053C357.451 211.814 356.234 212.195 354.717 212.195C353.298 212.195 352.135 211.821 351.23 211.072C350.332 210.324 349.883 209.334 349.883 208.104H352.705C352.705 208.637 352.904 209.074 353.301 209.412C353.704 209.751 354.199 209.92 354.785 209.92C355.456 209.92 355.98 209.744 356.357 209.393C356.742 209.035 356.934 208.562 356.934 207.977C356.934 206.557 356.152 205.848 354.59 205.848H353.096V203.641Z" fill="white"/>
<path d="M498.574 206.648H500.186V208.924H498.574V212H495.752V208.924H489.922L489.795 207.146L495.723 197.781H498.574V206.648ZM492.607 206.648H495.752V201.629L495.566 201.951L492.607 206.648Z" fill="white"/>
</svg>
