<svg width="635" height="332" viewBox="0 0 635 332" fill="none" xmlns="http://www.w3.org/2000/svg">
<g clip-path="url(#clip0)">
<rect width="635" height="332" fill="#F7F7F7"/>
<path d="M19 7C19 5.89543 19.8954 5 21 5H35C36.1046 5 37 5.89543 37 7V16.1857C37 16.7167 36.7888 17.2259 36.413 17.6011L29.413 24.5894C28.6323 25.3688 27.3677 25.3688 26.587 24.5894L19.587 17.6011C19.2112 17.2259 19 16.7167 19 16.1857V7Z" fill="#CCCCCC"/>
<path d="M29.084 17H27.666V10.1504L25.5742 10.8652V9.66406L28.9023 8.43945H29.084V17Z" fill="white"/>
<path d="M117 7C117 5.89543 117.895 5 119 5H133C134.105 5 135 5.89543 135 7V16.1857C135 16.7167 134.789 17.2259 134.413 17.6011L127.413 24.5894C126.632 25.3688 125.368 25.3688 124.587 24.5894L117.587 17.6011C117.211 17.2259 117 16.7167 117 16.1857V7Z" fill="#CCCCCC"/>
<path d="M128.965 17H123.229V16.0215L126.07 12.9219C126.48 12.4648 126.771 12.084 126.943 11.7793C127.119 11.4707 127.207 11.1621 127.207 10.8535C127.207 10.4473 127.092 10.1191 126.861 9.86914C126.635 9.61914 126.328 9.49414 125.941 9.49414C125.48 9.49414 125.123 9.63477 124.869 9.91602C124.615 10.1973 124.488 10.582 124.488 11.0703H123.064C123.064 10.5508 123.182 10.084 123.416 9.66992C123.654 9.25195 123.992 8.92773 124.43 8.69727C124.871 8.4668 125.379 8.35156 125.953 8.35156C126.781 8.35156 127.434 8.56055 127.91 8.97852C128.391 9.39258 128.631 9.9668 128.631 10.7012C128.631 11.127 128.51 11.5742 128.268 12.043C128.029 12.5078 127.637 13.0371 127.09 13.6309L125.004 15.8633H128.965V17Z" fill="white"/>
<path d="M218 7C218 5.89543 218.895 5 220 5H234C235.105 5 236 5.89543 236 7V16.1857C236 16.7167 235.789 17.2259 235.413 17.6011L228.413 24.5894C227.632 25.3688 226.368 25.3688 225.587 24.5894L218.587 17.6011C218.211 17.2259 218 16.7167 218 16.1857V7Z" fill="#CCCCCC"/>
<path d="M225.875 12.084H226.742C227.18 12.0801 227.525 11.9668 227.779 11.7441C228.037 11.5215 228.166 11.1992 228.166 10.7773C228.166 10.3711 228.059 10.0566 227.844 9.83398C227.633 9.60742 227.309 9.49414 226.871 9.49414C226.488 9.49414 226.174 9.60547 225.928 9.82812C225.682 10.0469 225.559 10.334 225.559 10.6895H224.135C224.135 10.252 224.25 9.85352 224.48 9.49414C224.715 9.13477 225.039 8.85547 225.453 8.65625C225.871 8.45312 226.338 8.35156 226.854 8.35156C227.705 8.35156 228.373 8.56641 228.857 8.99609C229.346 9.42188 229.59 10.0156 229.59 10.7773C229.59 11.1602 229.467 11.5215 229.221 11.8613C228.979 12.1973 228.664 12.4512 228.277 12.623C228.746 12.7832 229.102 13.0352 229.344 13.3789C229.59 13.7227 229.713 14.1328 229.713 14.6094C229.713 15.375 229.449 15.9844 228.922 16.4375C228.398 16.8906 227.709 17.1172 226.854 17.1172C226.033 17.1172 225.361 16.8984 224.838 16.4609C224.314 16.0234 224.053 15.4414 224.053 14.7148H225.477C225.477 15.0898 225.602 15.3945 225.852 15.6289C226.105 15.8633 226.445 15.9805 226.871 15.9805C227.312 15.9805 227.66 15.8633 227.914 15.6289C228.168 15.3945 228.295 15.0547 228.295 14.6094C228.295 14.1602 228.162 13.8145 227.896 13.5723C227.631 13.3301 227.236 13.209 226.713 13.209H225.875V12.084Z" fill="white"/>
<path d="M319 7C319 5.89543 319.895 5 321 5H335C336.105 5 337 5.89543 337 7V16.1857C337 16.7167 336.789 17.2259 336.413 17.6011L329.413 24.5894C328.632 25.3688 327.368 25.3688 326.587 24.5894L319.587 17.6011C319.211 17.2259 319 16.7167 319 16.1857V7Z" fill="#CCCCCC"/>
<path d="M330.045 13.959H331.105V15.1016H330.045V17H328.621V15.1016H324.936L324.895 14.2344L328.574 8.46875H330.045V13.959ZM326.389 13.959H328.621V10.3965L328.516 10.584L326.389 13.959Z" fill="white"/>
<path d="M420 7C420 5.89543 420.895 5 422 5H436C437.105 5 438 5.89543 438 7V16.1857C438 16.7167 437.789 17.2259 437.413 17.6011L430.413 24.5894C429.632 25.3688 428.368 25.3688 427.587 24.5894L420.587 17.6011C420.211 17.2259 420 16.7167 420 16.1857V7Z" fill="#CCCCCC"/>
<path d="M426.609 12.7695L427.072 8.46875H431.654V9.69922H428.256L428.021 11.7383C428.416 11.5117 428.861 11.3984 429.357 11.3984C430.17 11.3984 430.801 11.6582 431.25 12.1777C431.703 12.6973 431.93 13.3965 431.93 14.2754C431.93 15.1426 431.68 15.834 431.18 16.3496C430.68 16.8613 429.994 17.1172 429.123 17.1172C428.342 17.1172 427.693 16.8965 427.178 16.4551C426.666 16.0098 426.389 15.4238 426.346 14.6973H427.723C427.777 15.1113 427.926 15.4297 428.168 15.6523C428.41 15.8711 428.727 15.9805 429.117 15.9805C429.555 15.9805 429.895 15.8242 430.137 15.5117C430.383 15.1992 430.506 14.7734 430.506 14.2344C430.506 13.7148 430.371 13.3047 430.102 13.0039C429.832 12.6992 429.461 12.5469 428.988 12.5469C428.73 12.5469 428.512 12.582 428.332 12.6523C428.152 12.7188 427.957 12.8516 427.746 13.0508L426.609 12.7695Z" fill="white"/>
<path d="M604 7C604 5.89543 604.895 5 606 5H620C621.105 5 622 5.89543 622 7V16.1857C622 16.7167 621.789 17.2259 621.413 17.6011L614.413 24.5894C613.632 25.3688 612.368 25.3688 611.587 24.5894L604.587 17.6011C604.211 17.2259 604 16.7167 604 16.1857V7Z" fill="#CCCCCC"/>
<path d="M614.658 8.42773V9.60547H614.482C613.686 9.61719 613.049 9.83594 612.572 10.2617C612.096 10.6875 611.812 11.291 611.723 12.0723C612.18 11.5918 612.764 11.3516 613.475 11.3516C614.229 11.3516 614.822 11.6172 615.256 12.1484C615.693 12.6797 615.912 13.3652 615.912 14.2051C615.912 15.0723 615.656 15.7754 615.145 16.3145C614.637 16.8496 613.969 17.1172 613.141 17.1172C612.289 17.1172 611.598 16.8027 611.066 16.1738C610.539 15.5449 610.275 14.7207 610.275 13.7012V13.2148C610.275 11.7188 610.639 10.5469 611.365 9.69922C612.096 8.85156 613.145 8.42773 614.512 8.42773H614.658ZM613.129 12.5C612.816 12.5 612.529 12.5879 612.268 12.7637C612.01 12.9395 611.82 13.1738 611.699 13.4668V13.9004C611.699 14.5332 611.832 15.0371 612.098 15.4121C612.363 15.7832 612.707 15.9688 613.129 15.9688C613.551 15.9688 613.885 15.8105 614.131 15.4941C614.377 15.1777 614.5 14.7617 614.5 14.2461C614.5 13.7305 614.375 13.3105 614.125 12.9863C613.875 12.6621 613.543 12.5 613.129 12.5Z" fill="white"/>
<path d="M7 37C5.89543 37 5 36.1046 5 35L5 21C5 19.8954 5.89543 19 7 19L16.1857 19C16.7167 19 17.2259 19.2112 17.6011 19.587L24.5894 26.587C25.3688 27.3677 25.3688 28.6323 24.5894 29.413L17.6011 36.413C17.2259 36.7888 16.7167 37 16.1857 37L7 37Z" fill="#CCCCCC"/>
<path d="M14.084 32H12.666V25.1504L10.5742 25.8652V24.6641L13.9023 23.4395H14.084V32Z" fill="white"/>
<path d="M7 135C5.89543 135 5 134.105 5 133L5 119C5 117.895 5.89543 117 7 117L16.1857 117C16.7167 117 17.2259 117.211 17.6011 117.587L24.5894 124.587C25.3688 125.368 25.3688 126.632 24.5894 127.413L17.6011 134.413C17.2259 134.789 16.7167 135 16.1857 135L7 135Z" fill="#CCCCCC"/>
<path d="M15.9648 130H10.2285V129.021L13.0703 125.922C13.4805 125.465 13.7715 125.084 13.9434 124.779C14.1191 124.471 14.207 124.162 14.207 123.854C14.207 123.447 14.0918 123.119 13.8613 122.869C13.6348 122.619 13.3281 122.494 12.9414 122.494C12.4805 122.494 12.123 122.635 11.8691 122.916C11.6152 123.197 11.4883 123.582 11.4883 124.07H10.0645C10.0645 123.551 10.1816 123.084 10.416 122.67C10.6543 122.252 10.9922 121.928 11.4297 121.697C11.8711 121.467 12.3789 121.352 12.9531 121.352C13.7812 121.352 14.4336 121.561 14.9102 121.979C15.3906 122.393 15.6309 122.967 15.6309 123.701C15.6309 124.127 15.5098 124.574 15.2676 125.043C15.0293 125.508 14.6367 126.037 14.0898 126.631L12.0039 128.863H15.9648V130Z" fill="white"/>
<path d="M7 279C5.89543 279 5 278.105 5 277L5 263C5 261.895 5.89543 261 7 261L16.1857 261C16.7167 261 17.2259 261.211 17.6011 261.587L24.5894 268.587C25.3688 269.368 25.3688 270.632 24.5894 271.413L17.6011 278.413C17.2259 278.789 16.7167 279 16.1857 279L7 279Z" fill="#CCCCCC"/>
<path d="M15.0449 270.959H16.1055V272.102H15.0449V274H13.6211V272.102H9.93555L9.89453 271.234L13.5742 265.469H15.0449V270.959ZM11.3887 270.959H13.6211V267.396L13.5156 267.584L11.3887 270.959Z" fill="white"/>
<path d="M7 236C5.89543 236 5 235.105 5 234L5 220C5 218.895 5.89543 218 7 218L16.1857 218C16.7167 218 17.2259 218.211 17.6011 218.587L24.5894 225.587C25.3688 226.368 25.3688 227.632 24.5894 228.413L17.6011 235.413C17.2259 235.789 16.7167 236 16.1857 236L7 236Z" fill="#CCCCCC"/>
<path d="M11.875 226.084H12.7422C13.1797 226.08 13.5254 225.967 13.7793 225.744C14.0371 225.521 14.166 225.199 14.166 224.777C14.166 224.371 14.0586 224.057 13.8438 223.834C13.6328 223.607 13.3086 223.494 12.8711 223.494C12.4883 223.494 12.1738 223.605 11.9277 223.828C11.6816 224.047 11.5586 224.334 11.5586 224.689H10.1348C10.1348 224.252 10.25 223.854 10.4805 223.494C10.7148 223.135 11.0391 222.855 11.4531 222.656C11.8711 222.453 12.3379 222.352 12.8535 222.352C13.7051 222.352 14.373 222.566 14.8574 222.996C15.3457 223.422 15.5898 224.016 15.5898 224.777C15.5898 225.16 15.4668 225.521 15.2207 225.861C14.9785 226.197 14.6641 226.451 14.2773 226.623C14.7461 226.783 15.1016 227.035 15.3438 227.379C15.5898 227.723 15.7129 228.133 15.7129 228.609C15.7129 229.375 15.4492 229.984 14.9219 230.438C14.3984 230.891 13.709 231.117 12.8535 231.117C12.0332 231.117 11.3613 230.898 10.8379 230.461C10.3145 230.023 10.0527 229.441 10.0527 228.715H11.4766C11.4766 229.09 11.6016 229.395 11.8516 229.629C12.1055 229.863 12.4453 229.98 12.8711 229.98C13.3125 229.98 13.6602 229.863 13.9141 229.629C14.168 229.395 14.2949 229.055 14.2949 228.609C14.2949 228.16 14.1621 227.814 13.8965 227.572C13.6309 227.33 13.2363 227.209 12.7129 227.209H11.875V226.084Z" fill="white"/>
<path d="M7 319C5.89543 319 5 318.105 5 317L5 303C5 301.895 5.89543 301 7 301L16.1857 301C16.7167 301 17.2259 301.211 17.6011 301.587L24.5894 308.587C25.3688 309.368 25.3688 310.632 24.5894 311.413L17.6011 318.413C17.2259 318.789 16.7167 319 16.1857 319L7 319Z" fill="#CCCCCC"/>
<path d="M10.6094 309.77L11.0723 305.469H15.6543V306.699H12.2559L12.0215 308.738C12.416 308.512 12.8613 308.398 13.3574 308.398C14.1699 308.398 14.8008 308.658 15.25 309.178C15.7031 309.697 15.9297 310.396 15.9297 311.275C15.9297 312.143 15.6797 312.834 15.1797 313.35C14.6797 313.861 13.9941 314.117 13.123 314.117C12.3418 314.117 11.6934 313.896 11.1777 313.455C10.666 313.01 10.3887 312.424 10.3457 311.697H11.7227C11.7773 312.111 11.9258 312.43 12.168 312.652C12.4102 312.871 12.7266 312.98 13.1172 312.98C13.5547 312.98 13.8945 312.824 14.1367 312.512C14.3828 312.199 14.5059 311.773 14.5059 311.234C14.5059 310.715 14.3711 310.305 14.1016 310.004C13.832 309.699 13.4609 309.547 12.9883 309.547C12.7305 309.547 12.5117 309.582 12.332 309.652C12.1523 309.719 11.957 309.852 11.7461 310.051L10.6094 309.77Z" fill="white"/>
<path d="M613.5 28L613.5 356" stroke="#AAAAAA" stroke-dasharray="3 2"/>
<path d="M701 28.5L426 28.5" stroke="#AAAAAA" stroke-dasharray="3 2"/>
<path d="M28 230.5L639 230.5" stroke="#AAAAAA" stroke-dasharray="3 2"/>
<path d="M28 223.5L639 223.5" stroke="#AAAAAA" stroke-dasharray="3 2"/>
<path d="M28 273.5L639 273.5" stroke="#AAAAAA" stroke-dasharray="3 2"/>
<path d="M28 266.5L639 266.5" stroke="#AAAAAA" stroke-dasharray="3 2"/>
<path d="M28 309.5L639 309.5" stroke="#AAAAAA" stroke-dasharray="3 2"/>
<path d="M425.5 29L425.5 356" stroke="#AAAAAA" stroke-dasharray="3 2"/>
<path d="M432.5 29L432.5 356" stroke="#AAAAAA" stroke-dasharray="3 2"/>
<rect x="28.5" y="28.5" width="397" height="195" fill="white"/>
<path d="M435 36C435 33.2386 437.239 31 440 31H606C608.761 31 611 33.2386 611 36V115C611 117.761 608.761 120 606 120H440C437.239 120 435 117.761 435 115V36Z" fill="#1E73FF"/>
<path d="M505.404 79.8867H503.625V71.9619H505.404V79.8867ZM503.515 69.9038C503.515 69.6304 503.6 69.4033 503.771 69.2227C503.947 69.042 504.196 68.9517 504.518 68.9517C504.84 68.9517 505.089 69.042 505.265 69.2227C505.441 69.4033 505.529 69.6304 505.529 69.9038C505.529 70.1724 505.441 70.397 505.265 70.5776C505.089 70.7534 504.84 70.8413 504.518 70.8413C504.196 70.8413 503.947 70.7534 503.771 70.5776C503.6 70.397 503.515 70.1724 503.515 69.9038ZM509.579 70.0356V71.9619H510.978V73.2803H509.579V77.7041C509.579 78.0068 509.638 78.2266 509.755 78.3633C509.877 78.4951 510.092 78.561 510.399 78.561C510.604 78.561 510.812 78.5366 511.022 78.4878V79.8647C510.617 79.9771 510.226 80.0332 509.85 80.0332C508.483 80.0332 507.799 79.2788 507.799 77.77V73.2803H506.496V71.9619H507.799V70.0356H509.579ZM515.834 80.0332C514.706 80.0332 513.791 79.6792 513.087 78.9712C512.389 78.2583 512.04 77.311 512.04 76.1294V75.9097C512.04 75.1187 512.191 74.4131 512.494 73.793C512.802 73.168 513.231 72.6821 513.783 72.3354C514.335 71.9888 514.95 71.8154 515.629 71.8154C516.708 71.8154 517.541 72.1597 518.126 72.8481C518.717 73.5366 519.013 74.5107 519.013 75.7705V76.4883H513.834C513.888 77.1426 514.105 77.6602 514.486 78.041C514.872 78.4219 515.355 78.6123 515.937 78.6123C516.752 78.6123 517.416 78.2827 517.929 77.6235L518.888 78.5391C518.571 79.0127 518.146 79.3813 517.614 79.645C517.086 79.9038 516.493 80.0332 515.834 80.0332ZM515.622 73.2437C515.133 73.2437 514.738 73.4146 514.435 73.7563C514.137 74.0981 513.947 74.5742 513.864 75.1846H517.255V75.0527C517.216 74.457 517.057 74.0078 516.779 73.7051C516.5 73.3975 516.115 73.2437 515.622 73.2437ZM522.074 71.9619L522.125 72.7896C522.682 72.1401 523.444 71.8154 524.411 71.8154C525.47 71.8154 526.195 72.2207 526.586 73.0312C527.162 72.2207 527.973 71.8154 529.018 71.8154C529.892 71.8154 530.541 72.0571 530.966 72.5405C531.396 73.0239 531.615 73.7368 531.625 74.6792V79.8867H529.845V74.7305C529.845 74.2275 529.735 73.8589 529.516 73.6245C529.296 73.3901 528.932 73.2729 528.424 73.2729C528.019 73.2729 527.687 73.3828 527.428 73.6025C527.174 73.8174 526.996 74.1006 526.894 74.4521L526.901 79.8867H525.121V74.6719C525.097 73.7393 524.621 73.2729 523.693 73.2729C522.98 73.2729 522.475 73.5635 522.177 74.1445V79.8867H520.397V71.9619H522.074ZM541.894 79.8867H540.121V71.3247L537.506 72.2183V70.7168L541.667 69.186H541.894V79.8867Z" fill="white"/>
<path d="M122.5 29L122.5 356" stroke="#AAAAAA" stroke-dasharray="3 2"/>
<path d="M129.5 29L129.5 356" stroke="#AAAAAA" stroke-dasharray="3 2"/>
<path d="M223.5 29L223.5 356" stroke="#AAAAAA" stroke-dasharray="3 2"/>
<path d="M230.5 29L230.5 356" stroke="#AAAAAA" stroke-dasharray="3 2"/>
<path d="M324.5 29L324.5 356" stroke="#AAAAAA" stroke-dasharray="3 2"/>
<path d="M331.5 29L331.5 356" stroke="#AAAAAA" stroke-dasharray="3 2"/>
<path d="M29 129.5L639 129.5" stroke="#AAAAAA" stroke-dasharray="3 2"/>
<path d="M29 122.5L639 122.5" stroke="#AAAAAA" stroke-dasharray="3 2"/>
<rect x="28.5" y="28.5" width="397" height="195" stroke="#666666"/>
<path d="M28.5 374L28.5 224" stroke="#AAAAAA" stroke-dasharray="3 2"/>
<path d="M31 281C31 278.239 33.2386 276 36 276H115C117.761 276 120 278.239 120 281V302C120 304.761 117.761 307 115 307H36C33.2386 307 31 304.761 31 302V281Z" fill="#1E73FF"/>
<path d="M58.2539 295.713H56.4741V287.789H58.2539V295.713ZM56.3643 285.73C56.3643 285.457 56.4497 285.23 56.6206 285.049C56.7964 284.869 57.0454 284.778 57.3677 284.778C57.6899 284.778 57.939 284.869 58.1147 285.049C58.2905 285.23 58.3784 285.457 58.3784 285.73C58.3784 285.999 58.2905 286.224 58.1147 286.404C57.939 286.58 57.6899 286.668 57.3677 286.668C57.0454 286.668 56.7964 286.58 56.6206 286.404C56.4497 286.224 56.3643 285.999 56.3643 285.73ZM62.4287 285.862V287.789H63.8276V289.107H62.4287V293.531C62.4287 293.833 62.4873 294.053 62.6045 294.19C62.7266 294.322 62.9414 294.388 63.249 294.388C63.4541 294.388 63.6616 294.363 63.8716 294.314V295.691C63.4663 295.804 63.0757 295.86 62.6997 295.86C61.3325 295.86 60.6489 295.105 60.6489 293.597V289.107H59.3452V287.789H60.6489V285.862H62.4287ZM68.6836 295.86C67.5557 295.86 66.6401 295.506 65.937 294.798C65.2388 294.085 64.8896 293.138 64.8896 291.956V291.736C64.8896 290.945 65.041 290.24 65.3438 289.62C65.6514 288.995 66.0811 288.509 66.6328 288.162C67.1846 287.815 67.7998 287.642 68.4785 287.642C69.5576 287.642 70.3901 287.986 70.9761 288.675C71.5669 289.363 71.8623 290.337 71.8623 291.597V292.315H66.6841C66.7378 292.969 66.9551 293.487 67.3359 293.868C67.7217 294.249 68.2051 294.439 68.7861 294.439C69.6016 294.439 70.2656 294.109 70.7783 293.45L71.7378 294.366C71.4204 294.839 70.9956 295.208 70.4634 295.472C69.936 295.73 69.3428 295.86 68.6836 295.86ZM68.4712 289.07C67.9829 289.07 67.5874 289.241 67.2847 289.583C66.9868 289.925 66.7964 290.401 66.7134 291.011H70.1045V290.879C70.0654 290.284 69.9067 289.834 69.6284 289.532C69.3501 289.224 68.9644 289.07 68.4712 289.07ZM74.9238 287.789L74.9751 288.616C75.5317 287.967 76.2935 287.642 77.2603 287.642C78.3198 287.642 79.0449 288.047 79.4355 288.858C80.0117 288.047 80.8223 287.642 81.8672 287.642C82.7412 287.642 83.3906 287.884 83.8154 288.367C84.2451 288.851 84.4648 289.563 84.4746 290.506V295.713H82.6948V290.557C82.6948 290.054 82.585 289.686 82.3652 289.451C82.1455 289.217 81.7817 289.1 81.2739 289.1C80.8687 289.1 80.5366 289.209 80.2778 289.429C80.0239 289.644 79.8457 289.927 79.7432 290.279L79.7505 295.713H77.9707V290.499C77.9463 289.566 77.4702 289.1 76.5425 289.1C75.8296 289.1 75.3242 289.39 75.0264 289.971V295.713H73.2466V287.789H74.9238ZM97.0942 295.713H89.9238V294.49L93.4761 290.616C93.9888 290.044 94.3525 289.568 94.5674 289.188C94.7871 288.802 94.897 288.416 94.897 288.03C94.897 287.522 94.7529 287.112 94.4648 286.8C94.1816 286.487 93.7983 286.331 93.3149 286.331C92.7388 286.331 92.292 286.507 91.9746 286.858C91.6572 287.21 91.4985 287.691 91.4985 288.301H89.7188C89.7188 287.652 89.8652 287.068 90.1582 286.551C90.4561 286.028 90.8784 285.623 91.4253 285.335C91.9771 285.047 92.6118 284.903 93.3296 284.903C94.3647 284.903 95.1802 285.164 95.7759 285.687C96.3765 286.204 96.6768 286.922 96.6768 287.84C96.6768 288.372 96.5254 288.931 96.2227 289.517C95.9248 290.098 95.4341 290.76 94.7505 291.502L92.1431 294.292H97.0942V295.713Z" fill="white"/>
</g>
<defs>
<clipPath id="clip0">
<rect width="635" height="332" fill="white"/>
</clipPath>
</defs>
</svg>
