<svg width="594" height="306" viewBox="0 0 594 306" fill="none" xmlns="http://www.w3.org/2000/svg">
<rect x="78" y="27" width="504" height="272" fill="white"/>
<path d="M173.5 27.8267L173.5 298.173" stroke="#BBBBBB" stroke-dasharray="3 2"/>
<path d="M180.5 27.8267L180.5 298.173" stroke="#BBBBBB" stroke-dasharray="3 2"/>
<path d="M275.5 27.8267L275.5 298.173" stroke="#BBBBBB" stroke-dasharray="3 2"/>
<path d="M282.5 27.8267L282.5 298.173" stroke="#BBBBBB" stroke-dasharray="3 2"/>
<path d="M377.5 27.8267L377.5 298.173" stroke="#BBBBBB" stroke-dasharray="3 2"/>
<path d="M384.5 27.8267L384.5 298.173" stroke="#BBBBBB" stroke-dasharray="3 2"/>
<path d="M479.5 27.8267L479.5 298.173" stroke="#BBBBBB" stroke-dasharray="3 2"/>
<path d="M486.5 27.8267L486.5 298.173" stroke="#BBBBBB" stroke-dasharray="3 2"/>
<path d="M79 89.5L581 89.5" stroke="#BBBBBB" stroke-dasharray="3 2"/>
<path d="M79 82.5L581 82.5" stroke="#BBBBBB" stroke-dasharray="3 2"/>
<path d="M79 197.5L581 197.5" stroke="#BBBBBB" stroke-dasharray="3 2"/>
<path d="M79 190.5L581 190.5" stroke="#BBBBBB" stroke-dasharray="3 2"/>
<rect x="78" y="27" width="504" height="272" stroke="#AAAAAA" stroke-width="2"/>
<path d="M67.3096 13V6.83398H66.1816V5.60352H67.3096V5.09766C67.3141 4.51888 67.4372 4.02214 67.6787 3.60742C67.9202 3.19271 68.262 2.88053 68.7041 2.6709C69.1462 2.46126 69.6771 2.35645 70.2969 2.35645C70.6615 2.35645 71.0101 2.39518 71.3428 2.47266C71.68 2.55013 72.0286 2.64811 72.3887 2.7666L72.1357 4.14062C71.5068 3.92188 70.9326 3.8125 70.4131 3.8125C69.9072 3.8125 69.5404 3.92415 69.3125 4.14746C69.0846 4.36621 68.9707 4.69661 68.9707 5.13867V5.60352H70.4268V6.83398H68.9707V13H67.3096ZM73.1748 13H71.5137V5.60352H73.1748V13ZM78.8896 7.12109C78.6709 7.08464 78.4453 7.06641 78.2129 7.06641C77.4518 7.06641 76.9391 7.35807 76.6748 7.94141V13H75.0137V5.60352H76.5996L76.6406 6.43066C77.0417 5.78809 77.5977 5.4668 78.3086 5.4668C78.5456 5.4668 78.7415 5.4987 78.8965 5.5625L78.8896 7.12109ZM84.085 10.9902C84.085 10.694 83.9619 10.4684 83.7158 10.3135C83.4743 10.1585 83.071 10.0218 82.5059 9.90332C81.9408 9.78483 81.4691 9.63444 81.0908 9.45215C80.2614 9.05111 79.8467 8.47005 79.8467 7.70898C79.8467 7.07096 80.1156 6.53776 80.6533 6.10938C81.1911 5.68099 81.8747 5.4668 82.7041 5.4668C83.5882 5.4668 84.3014 5.68555 84.8438 6.12305C85.3906 6.56055 85.6641 7.12793 85.6641 7.8252H84.0029C84.0029 7.50618 83.8844 7.24186 83.6475 7.03223C83.4105 6.81803 83.096 6.71094 82.7041 6.71094C82.3395 6.71094 82.041 6.79525 81.8086 6.96387C81.5807 7.13249 81.4668 7.35807 81.4668 7.64062C81.4668 7.89583 81.5739 8.09408 81.7881 8.23535C82.0023 8.37663 82.4352 8.52018 83.0869 8.66602C83.7386 8.80729 84.249 8.97819 84.6182 9.17871C84.9919 9.37467 85.2676 9.61165 85.4453 9.88965C85.6276 10.1676 85.7188 10.5049 85.7188 10.9014C85.7188 11.5667 85.443 12.1068 84.8916 12.5215C84.3402 12.9316 83.6178 13.1367 82.7246 13.1367C82.1185 13.1367 81.5785 13.0273 81.1045 12.8086C80.6305 12.5898 80.2614 12.2891 79.9971 11.9062C79.7327 11.5234 79.6006 11.111 79.6006 10.6689H81.2139C81.2367 11.0609 81.3848 11.3639 81.6582 11.5781C81.9316 11.7878 82.2939 11.8926 82.7451 11.8926C83.1826 11.8926 83.5153 11.8105 83.7432 11.6465C83.971 11.4779 84.085 11.2591 84.085 10.9902ZM89.2529 3.80566V5.60352H90.5586V6.83398H89.2529V10.9629C89.2529 11.2454 89.3076 11.4505 89.417 11.5781C89.5309 11.7012 89.7314 11.7627 90.0186 11.7627C90.21 11.7627 90.4036 11.7399 90.5996 11.6943V12.9795C90.2214 13.0843 89.8568 13.1367 89.5059 13.1367C88.2298 13.1367 87.5918 12.4326 87.5918 11.0244V6.83398H86.375V5.60352H87.5918V3.80566H89.2529Z" fill="#666666"/>
<path d="M78 23L75.4019 18.5L80.5981 18.5L78 23Z" fill="#666666"/>
<path d="M164.901 13H163.24V2.5H164.901V13ZM168.483 13H166.822V5.60352H168.483V13ZM166.72 3.68262C166.72 3.42741 166.799 3.21549 166.959 3.04688C167.123 2.87826 167.355 2.79395 167.656 2.79395C167.957 2.79395 168.189 2.87826 168.354 3.04688C168.518 3.21549 168.6 3.42741 168.6 3.68262C168.6 3.93327 168.518 4.1429 168.354 4.31152C168.189 4.47559 167.957 4.55762 167.656 4.55762C167.355 4.55762 167.123 4.47559 166.959 4.31152C166.799 4.1429 166.72 3.93327 166.72 3.68262ZM171.84 5.60352L171.888 6.45801C172.435 5.7972 173.152 5.4668 174.041 5.4668C175.581 5.4668 176.365 6.34863 176.393 8.1123V13H174.731V8.20801C174.731 7.73861 174.629 7.39225 174.424 7.16895C174.223 6.94108 173.893 6.82715 173.433 6.82715C172.763 6.82715 172.264 7.13021 171.936 7.73633V13H170.274V5.60352H171.84ZM181.349 13.1367C180.296 13.1367 179.441 12.8063 178.785 12.1455C178.133 11.4801 177.808 10.596 177.808 9.49316V9.28809C177.808 8.5498 177.949 7.89128 178.231 7.3125C178.519 6.72917 178.92 6.27572 179.435 5.95215C179.95 5.62858 180.524 5.4668 181.157 5.4668C182.164 5.4668 182.941 5.78809 183.488 6.43066C184.04 7.07324 184.315 7.98242 184.315 9.1582V9.82812H179.482C179.533 10.4388 179.735 10.9219 180.091 11.2773C180.451 11.6328 180.902 11.8105 181.444 11.8105C182.205 11.8105 182.825 11.5029 183.304 10.8877L184.199 11.7422C183.903 12.1842 183.507 12.5283 183.01 12.7744C182.518 13.016 181.964 13.1367 181.349 13.1367ZM181.15 6.7998C180.695 6.7998 180.326 6.95931 180.043 7.27832C179.765 7.59733 179.587 8.04167 179.51 8.61133H182.675V8.48828C182.638 7.93229 182.49 7.51302 182.23 7.23047C181.971 6.94336 181.611 6.7998 181.15 6.7998ZM192.197 13H185.505V11.8584L188.82 8.24219C189.299 7.70898 189.638 7.26465 189.839 6.90918C190.044 6.54915 190.146 6.18913 190.146 5.8291C190.146 5.35514 190.012 4.97233 189.743 4.68066C189.479 4.389 189.121 4.24316 188.67 4.24316C188.132 4.24316 187.715 4.40723 187.419 4.73535C187.123 5.06348 186.975 5.51237 186.975 6.08203H185.313C185.313 5.47591 185.45 4.93132 185.724 4.44824C186.002 3.96061 186.396 3.58236 186.906 3.31348C187.421 3.0446 188.014 2.91016 188.684 2.91016C189.65 2.91016 190.411 3.15397 190.967 3.6416C191.527 4.12467 191.808 4.7946 191.808 5.65137C191.808 6.14811 191.666 6.66992 191.384 7.2168C191.106 7.75911 190.648 8.37663 190.01 9.06934L187.576 11.6738H192.197V13Z" fill="#00986B"/>
<path d="M177 23L174.402 18.5L179.598 18.5L177 23Z" fill="#00986B"/>
<path d="M266.901 13H265.24V2.5H266.901V13ZM270.483 13H268.822V5.60352H270.483V13ZM268.72 3.68262C268.72 3.42741 268.799 3.21549 268.959 3.04688C269.123 2.87826 269.355 2.79395 269.656 2.79395C269.957 2.79395 270.189 2.87826 270.354 3.04688C270.518 3.21549 270.6 3.42741 270.6 3.68262C270.6 3.93327 270.518 4.1429 270.354 4.31152C270.189 4.47559 269.957 4.55762 269.656 4.55762C269.355 4.55762 269.123 4.47559 268.959 4.31152C268.799 4.1429 268.72 3.93327 268.72 3.68262ZM273.84 5.60352L273.888 6.45801C274.435 5.7972 275.152 5.4668 276.041 5.4668C277.581 5.4668 278.365 6.34863 278.393 8.1123V13H276.731V8.20801C276.731 7.73861 276.629 7.39225 276.424 7.16895C276.223 6.94108 275.893 6.82715 275.433 6.82715C274.763 6.82715 274.264 7.13021 273.936 7.73633V13H272.274V5.60352H273.84ZM283.349 13.1367C282.296 13.1367 281.441 12.8063 280.785 12.1455C280.133 11.4801 279.808 10.596 279.808 9.49316V9.28809C279.808 8.5498 279.949 7.89128 280.231 7.3125C280.519 6.72917 280.92 6.27572 281.435 5.95215C281.95 5.62858 282.524 5.4668 283.157 5.4668C284.164 5.4668 284.941 5.78809 285.488 6.43066C286.04 7.07324 286.315 7.98242 286.315 9.1582V9.82812H281.482C281.533 10.4388 281.735 10.9219 282.091 11.2773C282.451 11.6328 282.902 11.8105 283.444 11.8105C284.205 11.8105 284.825 11.5029 285.304 10.8877L286.199 11.7422C285.903 12.1842 285.507 12.5283 285.01 12.7744C284.518 13.016 283.964 13.1367 283.349 13.1367ZM283.15 6.7998C282.695 6.7998 282.326 6.95931 282.043 7.27832C281.765 7.59733 281.587 8.04167 281.51 8.61133H284.675V8.48828C284.638 7.93229 284.49 7.51302 284.23 7.23047C283.971 6.94336 283.611 6.7998 283.15 6.7998ZM289.426 7.26465H290.438C290.948 7.26009 291.351 7.12793 291.647 6.86816C291.948 6.6084 292.099 6.23242 292.099 5.74023C292.099 5.26628 291.973 4.89941 291.723 4.63965C291.477 4.37533 291.098 4.24316 290.588 4.24316C290.141 4.24316 289.774 4.37305 289.487 4.63281C289.2 4.88802 289.057 5.22298 289.057 5.6377H287.396C287.396 5.12728 287.53 4.66243 287.799 4.24316C288.072 3.82389 288.451 3.49805 288.934 3.26562C289.421 3.02865 289.966 2.91016 290.567 2.91016C291.561 2.91016 292.34 3.16081 292.905 3.66211C293.475 4.15885 293.76 4.85156 293.76 5.74023C293.76 6.18685 293.616 6.6084 293.329 7.00488C293.047 7.39681 292.68 7.69303 292.229 7.89355C292.775 8.0804 293.19 8.37435 293.473 8.77539C293.76 9.17643 293.903 9.65495 293.903 10.2109C293.903 11.1042 293.596 11.8151 292.98 12.3438C292.37 12.8724 291.565 13.1367 290.567 13.1367C289.61 13.1367 288.826 12.8815 288.216 12.3711C287.605 11.8607 287.3 11.1816 287.3 10.334H288.961C288.961 10.7715 289.107 11.127 289.398 11.4004C289.695 11.6738 290.091 11.8105 290.588 11.8105C291.103 11.8105 291.508 11.6738 291.805 11.4004C292.101 11.127 292.249 10.7305 292.249 10.2109C292.249 9.68685 292.094 9.28353 291.784 9.00098C291.474 8.71842 291.014 8.57715 290.403 8.57715H289.426V7.26465Z" fill="#666666"/>
<path d="M279 23L276.402 18.5L281.598 18.5L279 23Z" fill="#666666"/>
<path d="M354.977 11.8105C355.391 11.8105 355.735 11.6898 356.009 11.4482C356.282 11.2067 356.428 10.9082 356.446 10.5527H358.012C357.993 11.013 357.85 11.4437 357.581 11.8447C357.312 12.2412 356.948 12.5557 356.487 12.7881C356.027 13.0205 355.53 13.1367 354.997 13.1367C353.963 13.1367 353.142 12.8018 352.536 12.1318C351.93 11.4619 351.627 10.5368 351.627 9.35645V9.18555C351.627 8.0599 351.928 7.15983 352.529 6.48535C353.131 5.80632 353.951 5.4668 354.99 5.4668C355.87 5.4668 356.585 5.72428 357.137 6.23926C357.693 6.74967 357.984 7.42188 358.012 8.25586H356.446C356.428 7.83203 356.282 7.4834 356.009 7.20996C355.74 6.93652 355.396 6.7998 354.977 6.7998C354.439 6.7998 354.024 6.99577 353.732 7.3877C353.441 7.77507 353.293 8.36523 353.288 9.1582V9.4248C353.288 10.2269 353.432 10.8262 353.719 11.2227C354.01 11.6146 354.43 11.8105 354.977 11.8105ZM358.955 9.2334C358.955 8.50879 359.099 7.8571 359.386 7.27832C359.673 6.69499 360.076 6.24837 360.596 5.93848C361.115 5.62402 361.712 5.4668 362.387 5.4668C363.385 5.4668 364.194 5.78809 364.813 6.43066C365.438 7.07324 365.775 7.92546 365.825 8.9873L365.832 9.37695C365.832 10.1061 365.691 10.7578 365.408 11.332C365.13 11.9062 364.729 12.3506 364.205 12.665C363.686 12.9795 363.084 13.1367 362.4 13.1367C361.357 13.1367 360.521 12.7904 359.892 12.0977C359.267 11.4004 358.955 10.473 358.955 9.31543V9.2334ZM360.616 9.37695C360.616 10.138 360.773 10.735 361.088 11.168C361.402 11.5964 361.84 11.8105 362.4 11.8105C362.961 11.8105 363.396 11.5918 363.706 11.1543C364.021 10.7168 364.178 10.0765 364.178 9.2334C364.178 8.486 364.016 7.89355 363.692 7.45605C363.373 7.01855 362.938 6.7998 362.387 6.7998C361.844 6.7998 361.414 7.01628 361.095 7.44922C360.776 7.8776 360.616 8.52018 360.616 9.37695ZM369.004 13H367.343V2.5H369.004V13ZM376.332 9.45215H377.569V10.7852H376.332V13H374.671V10.7852H370.371L370.323 9.77344L374.616 3.04688H376.332V9.45215ZM372.066 9.45215H374.671V5.2959L374.548 5.51465L372.066 9.45215ZM381.999 9.43848H378.41V8.09863H381.999V9.43848ZM387.516 10.9902C387.516 10.694 387.393 10.4684 387.146 10.3135C386.905 10.1585 386.502 10.0218 385.937 9.90332C385.371 9.78483 384.9 9.63444 384.521 9.45215C383.692 9.05111 383.277 8.47005 383.277 7.70898C383.277 7.07096 383.546 6.53776 384.084 6.10938C384.622 5.68099 385.305 5.4668 386.135 5.4668C387.019 5.4668 387.732 5.68555 388.274 6.12305C388.821 6.56055 389.095 7.12793 389.095 7.8252H387.434C387.434 7.50618 387.315 7.24186 387.078 7.03223C386.841 6.81803 386.527 6.71094 386.135 6.71094C385.77 6.71094 385.472 6.79525 385.239 6.96387C385.011 7.13249 384.897 7.35807 384.897 7.64062C384.897 7.89583 385.005 8.09408 385.219 8.23535C385.433 8.37663 385.866 8.52018 386.518 8.66602C387.169 8.80729 387.68 8.97819 388.049 9.17871C388.423 9.37467 388.698 9.61165 388.876 9.88965C389.058 10.1676 389.149 10.5049 389.149 10.9014C389.149 11.5667 388.874 12.1068 388.322 12.5215C387.771 12.9316 387.049 13.1367 386.155 13.1367C385.549 13.1367 385.009 13.0273 384.535 12.8086C384.061 12.5898 383.692 12.2891 383.428 11.9062C383.163 11.5234 383.031 11.111 383.031 10.6689H384.645C384.667 11.0609 384.815 11.3639 385.089 11.5781C385.362 11.7878 385.725 11.8926 386.176 11.8926C386.613 11.8926 386.946 11.8105 387.174 11.6465C387.402 11.4779 387.516 11.2591 387.516 10.9902ZM392.684 3.80566V5.60352H393.989V6.83398H392.684V10.9629C392.684 11.2454 392.738 11.4505 392.848 11.5781C392.962 11.7012 393.162 11.7627 393.449 11.7627C393.641 11.7627 393.834 11.7399 394.03 11.6943V12.9795C393.652 13.0843 393.287 13.1367 392.937 13.1367C391.66 13.1367 391.022 12.4326 391.022 11.0244V6.83398H389.806V5.60352H391.022V3.80566H392.684ZM399.684 13C399.611 12.8587 399.547 12.6286 399.492 12.3096C398.964 12.861 398.316 13.1367 397.551 13.1367C396.808 13.1367 396.202 12.9248 395.732 12.501C395.263 12.0771 395.028 11.5531 395.028 10.9287C395.028 10.1403 395.32 9.53646 395.903 9.11719C396.491 8.69336 397.33 8.48145 398.419 8.48145H399.438V7.99609C399.438 7.61328 399.33 7.30794 399.116 7.08008C398.902 6.84766 398.576 6.73145 398.139 6.73145C397.76 6.73145 397.451 6.82715 397.209 7.01855C396.967 7.2054 396.847 7.44466 396.847 7.73633H395.186C395.186 7.33073 395.32 6.95247 395.589 6.60156C395.858 6.24609 396.222 5.9681 396.683 5.76758C397.147 5.56706 397.665 5.4668 398.234 5.4668C399.1 5.4668 399.791 5.68555 400.306 6.12305C400.821 6.55599 401.085 7.16667 401.099 7.95508V11.291C401.099 11.9564 401.192 12.4873 401.379 12.8838V13H399.684ZM397.858 11.8037C398.187 11.8037 398.494 11.724 398.781 11.5645C399.073 11.4049 399.292 11.1908 399.438 10.9219V9.52734H398.542C397.927 9.52734 397.464 9.63444 397.154 9.84863C396.844 10.0628 396.689 10.3659 396.689 10.7578C396.689 11.0768 396.794 11.332 397.004 11.5234C397.218 11.7103 397.503 11.8037 397.858 11.8037ZM406.711 7.12109C406.492 7.08464 406.267 7.06641 406.034 7.06641C405.273 7.06641 404.76 7.35807 404.496 7.94141V13H402.835V5.60352H404.421L404.462 6.43066C404.863 5.78809 405.419 5.4668 406.13 5.4668C406.367 5.4668 406.563 5.4987 406.718 5.5625L406.711 7.12109ZM410.184 3.80566V5.60352H411.489V6.83398H410.184V10.9629C410.184 11.2454 410.238 11.4505 410.348 11.5781C410.462 11.7012 410.662 11.7627 410.949 11.7627C411.141 11.7627 411.334 11.7399 411.53 11.6943V12.9795C411.152 13.0843 410.787 13.1367 410.437 13.1367C409.16 13.1367 408.522 12.4326 408.522 11.0244V6.83398H407.306V5.60352H408.522V3.80566H410.184Z" fill="#666666"/>
<path d="M381 23L378.402 18.5L383.598 18.5L381 23Z" fill="#666666"/>
<path d="M473.54 13V6.83398H472.412V5.60352H473.54V5.09766C473.545 4.51888 473.668 4.02214 473.909 3.60742C474.151 3.19271 474.493 2.88053 474.935 2.6709C475.377 2.46126 475.908 2.35645 476.527 2.35645C476.892 2.35645 477.241 2.39518 477.573 2.47266C477.91 2.55013 478.259 2.64811 478.619 2.7666L478.366 4.14062C477.737 3.92188 477.163 3.8125 476.644 3.8125C476.138 3.8125 475.771 3.92415 475.543 4.14746C475.315 4.36621 475.201 4.69661 475.201 5.13867V5.60352H476.657V6.83398H475.201V13H473.54ZM479.405 13H477.744V5.60352H479.405V13ZM483.855 10.8945L485.421 5.60352H487.137L484.573 13H483.131L480.547 5.60352H482.27L483.855 10.8945ZM491.341 13.1367C490.288 13.1367 489.434 12.8063 488.777 12.1455C488.126 11.4801 487.8 10.596 487.8 9.49316V9.28809C487.8 8.5498 487.941 7.89128 488.224 7.3125C488.511 6.72917 488.912 6.27572 489.427 5.95215C489.942 5.62858 490.516 5.4668 491.149 5.4668C492.157 5.4668 492.934 5.78809 493.48 6.43066C494.032 7.07324 494.308 7.98242 494.308 9.1582V9.82812H489.475C489.525 10.4388 489.728 10.9219 490.083 11.2773C490.443 11.6328 490.894 11.8105 491.437 11.8105C492.198 11.8105 492.817 11.5029 493.296 10.8877L494.191 11.7422C493.895 12.1842 493.499 12.5283 493.002 12.7744C492.51 13.016 491.956 13.1367 491.341 13.1367ZM491.143 6.7998C490.687 6.7998 490.318 6.95931 490.035 7.27832C489.757 7.59733 489.579 8.04167 489.502 8.61133H492.667V8.48828C492.631 7.93229 492.482 7.51302 492.223 7.23047C491.963 6.94336 491.603 6.7998 491.143 6.7998Z" fill="#00986B"/>
<path d="M483 23L480.402 18.5L485.598 18.5L483 23Z" fill="#00986B"/>
<path d="M574.501 13.1367C573.448 13.1367 572.594 12.8063 571.938 12.1455C571.286 11.4801 570.96 10.596 570.96 9.49316V9.28809C570.96 8.5498 571.101 7.89128 571.384 7.3125C571.671 6.72917 572.072 6.27572 572.587 5.95215C573.102 5.62858 573.676 5.4668 574.31 5.4668C575.317 5.4668 576.094 5.78809 576.641 6.43066C577.192 7.07324 577.468 7.98242 577.468 9.1582V9.82812H572.635C572.685 10.4388 572.888 10.9219 573.243 11.2773C573.603 11.6328 574.054 11.8105 574.597 11.8105C575.358 11.8105 575.978 11.5029 576.456 10.8877L577.352 11.7422C577.055 12.1842 576.659 12.5283 576.162 12.7744C575.67 13.016 575.116 13.1367 574.501 13.1367ZM574.303 6.7998C573.847 6.7998 573.478 6.95931 573.195 7.27832C572.917 7.59733 572.74 8.04167 572.662 8.61133H575.827V8.48828C575.791 7.93229 575.643 7.51302 575.383 7.23047C575.123 6.94336 574.763 6.7998 574.303 6.7998ZM580.305 5.60352L580.353 6.45801C580.899 5.7972 581.617 5.4668 582.506 5.4668C584.046 5.4668 584.83 6.34863 584.857 8.1123V13H583.196V8.20801C583.196 7.73861 583.094 7.39225 582.889 7.16895C582.688 6.94108 582.358 6.82715 581.897 6.82715C581.228 6.82715 580.729 7.13021 580.4 7.73633V13H578.739V5.60352H580.305ZM586.245 9.24707C586.245 8.10775 586.509 7.19401 587.038 6.50586C587.567 5.81315 588.275 5.4668 589.164 5.4668C589.948 5.4668 590.581 5.74023 591.064 6.28711V2.5H592.726V13H591.222L591.14 12.2344C590.643 12.8359 589.98 13.1367 589.15 13.1367C588.285 13.1367 587.583 12.7881 587.045 12.0908C586.512 11.3936 586.245 10.4456 586.245 9.24707ZM587.906 9.39062C587.906 10.1426 588.05 10.7305 588.337 11.1543C588.629 11.5736 589.041 11.7832 589.574 11.7832C590.253 11.7832 590.75 11.4801 591.064 10.874V7.71582C590.759 7.12337 590.267 6.82715 589.588 6.82715C589.05 6.82715 588.635 7.04134 588.344 7.46973C588.052 7.89355 587.906 8.53385 587.906 9.39062Z" fill="#666666"/>
<path d="M582 23L579.402 18.5L584.598 18.5L582 23Z" fill="#666666"/>
<path d="M4.72754 26.1211C4.50879 26.0846 4.2832 26.0664 4.05078 26.0664C3.28971 26.0664 2.77702 26.3581 2.5127 26.9414V32H0.851562V24.6035H2.4375L2.47852 25.4307C2.87956 24.7881 3.43555 24.4668 4.14648 24.4668C4.38346 24.4668 4.57943 24.4987 4.73438 24.5625L4.72754 26.1211ZM5.21973 28.2334C5.21973 27.5088 5.36328 26.8571 5.65039 26.2783C5.9375 25.695 6.34082 25.2484 6.86035 24.9385C7.37988 24.624 7.97689 24.4668 8.65137 24.4668C9.64941 24.4668 10.4583 24.7881 11.0781 25.4307C11.7025 26.0732 12.0397 26.9255 12.0898 27.9873L12.0967 28.377C12.0967 29.1061 11.9554 29.7578 11.6729 30.332C11.3949 30.9062 10.9938 31.3506 10.4697 31.665C9.9502 31.9795 9.34863 32.1367 8.66504 32.1367C7.62142 32.1367 6.78516 31.7904 6.15625 31.0977C5.5319 30.4004 5.21973 29.473 5.21973 28.3154V28.2334ZM6.88086 28.377C6.88086 29.138 7.03809 29.735 7.35254 30.168C7.66699 30.5964 8.10449 30.8105 8.66504 30.8105C9.22559 30.8105 9.66081 30.5918 9.9707 30.1543C10.2852 29.7168 10.4424 29.0765 10.4424 28.2334C10.4424 27.486 10.2806 26.8936 9.95703 26.4561C9.63802 26.0186 9.2028 25.7998 8.65137 25.7998C8.10905 25.7998 7.67839 26.0163 7.35938 26.4492C7.04036 26.8776 6.88086 27.5202 6.88086 28.377ZM19.999 29.71L21.1748 24.6035H22.7949L20.7783 32H19.4111L17.8252 26.9209L16.2666 32H14.8994L12.876 24.6035H14.4961L15.6924 29.6553L17.21 24.6035H18.4609L19.999 29.71ZM28.2979 32H26.6436V24.0088L24.2031 24.8428V23.4414L28.0859 22.0127H28.2979V32ZM35.0859 28.4385H31.4971V27.0986H35.0859V28.4385ZM40.6025 29.9902C40.6025 29.694 40.4795 29.4684 40.2334 29.3135C39.9919 29.1585 39.5885 29.0218 39.0234 28.9033C38.4583 28.7848 37.9867 28.6344 37.6084 28.4521C36.779 28.0511 36.3643 27.4701 36.3643 26.709C36.3643 26.071 36.6331 25.5378 37.1709 25.1094C37.7087 24.681 38.3923 24.4668 39.2217 24.4668C40.1058 24.4668 40.819 24.6855 41.3613 25.123C41.9082 25.5605 42.1816 26.1279 42.1816 26.8252H40.5205C40.5205 26.5062 40.402 26.2419 40.165 26.0322C39.9281 25.818 39.6136 25.7109 39.2217 25.7109C38.8571 25.7109 38.5586 25.7952 38.3262 25.9639C38.0983 26.1325 37.9844 26.3581 37.9844 26.6406C37.9844 26.8958 38.0915 27.0941 38.3057 27.2354C38.5199 27.3766 38.9528 27.5202 39.6045 27.666C40.2562 27.8073 40.7666 27.9782 41.1357 28.1787C41.5094 28.3747 41.7852 28.6117 41.9629 28.8896C42.1452 29.1676 42.2363 29.5049 42.2363 29.9014C42.2363 30.5667 41.9606 31.1068 41.4092 31.5215C40.8577 31.9316 40.1354 32.1367 39.2422 32.1367C38.6361 32.1367 38.096 32.0273 37.6221 31.8086C37.1481 31.5898 36.779 31.2891 36.5146 30.9062C36.2503 30.5234 36.1182 30.111 36.1182 29.6689H37.7314C37.7542 30.0609 37.9023 30.3639 38.1758 30.5781C38.4492 30.7878 38.8115 30.8926 39.2627 30.8926C39.7002 30.8926 40.0329 30.8105 40.2607 30.6465C40.4886 30.4779 40.6025 30.2591 40.6025 29.9902ZM45.7705 22.8057V24.6035H47.0762V25.834H45.7705V29.9629C45.7705 30.2454 45.8252 30.4505 45.9346 30.5781C46.0485 30.7012 46.249 30.7627 46.5361 30.7627C46.7275 30.7627 46.9212 30.7399 47.1172 30.6943V31.9795C46.7389 32.0843 46.3743 32.1367 46.0234 32.1367C44.7474 32.1367 44.1094 31.4326 44.1094 30.0244V25.834H42.8926V24.6035H44.1094V22.8057H45.7705ZM52.7705 32C52.6976 31.8587 52.6338 31.6286 52.5791 31.3096C52.0505 31.861 51.4033 32.1367 50.6377 32.1367C49.8949 32.1367 49.2887 31.9248 48.8193 31.501C48.3499 31.0771 48.1152 30.5531 48.1152 29.9287C48.1152 29.1403 48.4069 28.5365 48.9902 28.1172C49.5781 27.6934 50.4167 27.4814 51.5059 27.4814H52.5244V26.9961C52.5244 26.6133 52.4173 26.3079 52.2031 26.0801C51.9889 25.8477 51.6631 25.7314 51.2256 25.7314C50.8473 25.7314 50.5374 25.8271 50.2959 26.0186C50.0544 26.2054 49.9336 26.4447 49.9336 26.7363H48.2725C48.2725 26.3307 48.4069 25.9525 48.6758 25.6016C48.9447 25.2461 49.3092 24.9681 49.7695 24.7676C50.2344 24.5671 50.7516 24.4668 51.3213 24.4668C52.1872 24.4668 52.8776 24.6855 53.3926 25.123C53.9076 25.556 54.1719 26.1667 54.1855 26.9551V30.291C54.1855 30.9564 54.279 31.4873 54.4658 31.8838V32H52.7705ZM50.9453 30.8037C51.2734 30.8037 51.5811 30.724 51.8682 30.5645C52.1598 30.4049 52.3786 30.1908 52.5244 29.9219V28.5273H51.6289C51.0137 28.5273 50.5511 28.6344 50.2412 28.8486C49.9313 29.0628 49.7764 29.3659 49.7764 29.7578C49.7764 30.0768 49.8812 30.332 50.0908 30.5234C50.305 30.7103 50.5898 30.8037 50.9453 30.8037ZM59.7979 26.1211C59.5791 26.0846 59.3535 26.0664 59.1211 26.0664C58.36 26.0664 57.8473 26.3581 57.583 26.9414V32H55.9219V24.6035H57.5078L57.5488 25.4307C57.9499 24.7881 58.5059 24.4668 59.2168 24.4668C59.4538 24.4668 59.6497 24.4987 59.8047 24.5625L59.7979 26.1211ZM63.2705 22.8057V24.6035H64.5762V25.834H63.2705V29.9629C63.2705 30.2454 63.3252 30.4505 63.4346 30.5781C63.5485 30.7012 63.749 30.7627 64.0361 30.7627C64.2275 30.7627 64.4212 30.7399 64.6172 30.6943V31.9795C64.2389 32.0843 63.8743 32.1367 63.5234 32.1367C62.2474 32.1367 61.6094 31.4326 61.6094 30.0244V25.834H60.3926V24.6035H61.6094V22.8057H63.2705Z" fill="#00986B"/>
<path d="M74 27L69.5 29.5981L69.5 24.4019L74 27Z" fill="#00986B"/>
<path d="M10.9072 84.1211C10.6885 84.0846 10.4629 84.0664 10.2305 84.0664C9.4694 84.0664 8.95671 84.3581 8.69238 84.9414V90H7.03125V82.6035H8.61719L8.6582 83.4307C9.05924 82.7881 9.61523 82.4668 10.3262 82.4668C10.5632 82.4668 10.7591 82.4987 10.9141 82.5625L10.9072 84.1211ZM11.3994 86.2334C11.3994 85.5088 11.543 84.8571 11.8301 84.2783C12.1172 83.695 12.5205 83.2484 13.04 82.9385C13.5596 82.624 14.1566 82.4668 14.8311 82.4668C15.8291 82.4668 16.638 82.7881 17.2578 83.4307C17.8822 84.0732 18.2194 84.9255 18.2695 85.9873L18.2764 86.377C18.2764 87.1061 18.1351 87.7578 17.8525 88.332C17.5745 88.9062 17.1735 89.3506 16.6494 89.665C16.1299 89.9795 15.5283 90.1367 14.8447 90.1367C13.8011 90.1367 12.9648 89.7904 12.3359 89.0977C11.7116 88.4004 11.3994 87.473 11.3994 86.3154V86.2334ZM13.0605 86.377C13.0605 87.138 13.2178 87.735 13.5322 88.168C13.8467 88.5964 14.2842 88.8105 14.8447 88.8105C15.4053 88.8105 15.8405 88.5918 16.1504 88.1543C16.4648 87.7168 16.6221 87.0765 16.6221 86.2334C16.6221 85.486 16.4603 84.8936 16.1367 84.4561C15.8177 84.0186 15.3825 83.7998 14.8311 83.7998C14.2887 83.7998 13.8581 84.0163 13.5391 84.4492C13.2201 84.8776 13.0605 85.5202 13.0605 86.377ZM26.1787 87.71L27.3545 82.6035H28.9746L26.958 90H25.5908L24.0049 84.9209L22.4463 90H21.0791L19.0557 82.6035H20.6758L21.8721 87.6553L23.3896 82.6035H24.6406L26.1787 87.71ZM34.4775 90H32.8232V82.0088L30.3828 82.8428V81.4414L34.2656 80.0127H34.4775V90ZM41.2656 86.4385H37.6768V85.0986H41.2656V86.4385ZM45.8936 90.1367C44.8408 90.1367 43.9863 89.8063 43.3301 89.1455C42.6784 88.4801 42.3525 87.596 42.3525 86.4932V86.2881C42.3525 85.5498 42.4938 84.8913 42.7764 84.3125C43.0635 83.7292 43.4645 83.2757 43.9795 82.9521C44.4945 82.6286 45.0687 82.4668 45.7021 82.4668C46.7093 82.4668 47.4863 82.7881 48.0332 83.4307C48.5846 84.0732 48.8604 84.9824 48.8604 86.1582V86.8281H44.0273C44.0775 87.4388 44.2803 87.9219 44.6357 88.2773C44.9958 88.6328 45.4469 88.8105 45.9893 88.8105C46.7503 88.8105 47.3701 88.5029 47.8486 87.8877L48.7441 88.7422C48.4479 89.1842 48.0514 89.5283 47.5547 89.7744C47.0625 90.016 46.5088 90.1367 45.8936 90.1367ZM45.6953 83.7998C45.2396 83.7998 44.8704 83.9593 44.5879 84.2783C44.3099 84.5973 44.1322 85.0417 44.0547 85.6113H47.2197V85.4883C47.1833 84.9323 47.0352 84.513 46.7754 84.2305C46.5156 83.9434 46.1556 83.7998 45.6953 83.7998ZM51.6973 82.6035L51.7451 83.458C52.292 82.7972 53.0098 82.4668 53.8984 82.4668C55.4388 82.4668 56.2227 83.3486 56.25 85.1123V90H54.5889V85.208C54.5889 84.7386 54.4863 84.3923 54.2812 84.1689C54.0807 83.9411 53.7503 83.8271 53.29 83.8271C52.6201 83.8271 52.1211 84.1302 51.793 84.7363V90H50.1318V82.6035H51.6973ZM57.6377 86.2471C57.6377 85.1077 57.902 84.194 58.4307 83.5059C58.9593 82.8132 59.668 82.4668 60.5566 82.4668C61.3405 82.4668 61.974 82.7402 62.457 83.2871V79.5H64.1182V90H62.6143L62.5322 89.2344C62.0355 89.8359 61.3724 90.1367 60.543 90.1367C59.6771 90.1367 58.9753 89.7881 58.4375 89.0908C57.9043 88.3936 57.6377 87.4456 57.6377 86.2471ZM59.2988 86.3906C59.2988 87.1426 59.4424 87.7305 59.7295 88.1543C60.0212 88.5736 60.4336 88.7832 60.9668 88.7832C61.6458 88.7832 62.1426 88.4801 62.457 87.874V84.7158C62.1517 84.1234 61.6595 83.8271 60.9805 83.8271C60.4427 83.8271 60.028 84.0413 59.7363 84.4697C59.4447 84.8936 59.2988 85.5339 59.2988 86.3906Z" fill="#666666"/>
<path d="M74 86L69.5 88.5981L69.5 83.4019L74 86Z" fill="#666666"/>
<path d="M12.1514 188.806V190.604H13.457V191.834H12.1514V195.963C12.1514 196.245 12.2061 196.451 12.3154 196.578C12.4294 196.701 12.6299 196.763 12.917 196.763C13.1084 196.763 13.3021 196.74 13.498 196.694V197.979C13.1198 198.084 12.7552 198.137 12.4043 198.137C11.1283 198.137 10.4902 197.433 10.4902 196.024V191.834H9.27344V190.604H10.4902V188.806H12.1514ZM16.3691 191.41C16.9115 190.781 17.5973 190.467 18.4268 190.467C20.0036 190.467 20.8034 191.367 20.8262 193.167V198H19.165V193.229C19.165 192.718 19.0534 192.358 18.8301 192.148C18.6113 191.934 18.2878 191.827 17.8594 191.827C17.194 191.827 16.6973 192.123 16.3691 192.716V198H14.708V187.5H16.3691V191.41ZM24.2783 198H22.6172V190.604H24.2783V198ZM22.5146 188.683C22.5146 188.427 22.5944 188.215 22.7539 188.047C22.918 187.878 23.1504 187.794 23.4512 187.794C23.752 187.794 23.9844 187.878 24.1484 188.047C24.3125 188.215 24.3945 188.427 24.3945 188.683C24.3945 188.933 24.3125 189.143 24.1484 189.312C23.9844 189.476 23.752 189.558 23.4512 189.558C23.1504 189.558 22.918 189.476 22.7539 189.312C22.5944 189.143 22.5146 188.933 22.5146 188.683ZM29.9658 192.121C29.7471 192.085 29.5215 192.066 29.2891 192.066C28.528 192.066 28.0153 192.358 27.751 192.941V198H26.0898V190.604H27.6758L27.7168 191.431C28.1178 190.788 28.6738 190.467 29.3848 190.467C29.6217 190.467 29.8177 190.499 29.9727 190.562L29.9658 192.121ZM30.5674 194.247C30.5674 193.108 30.8317 192.194 31.3604 191.506C31.889 190.813 32.5977 190.467 33.4863 190.467C34.2702 190.467 34.9036 190.74 35.3867 191.287V187.5H37.0479V198H35.5439L35.4619 197.234C34.9652 197.836 34.3021 198.137 33.4727 198.137C32.6068 198.137 31.9049 197.788 31.3672 197.091C30.834 196.394 30.5674 195.446 30.5674 194.247ZM32.2285 194.391C32.2285 195.143 32.3721 195.73 32.6592 196.154C32.9508 196.574 33.3633 196.783 33.8965 196.783C34.5755 196.783 35.0723 196.48 35.3867 195.874V192.716C35.0814 192.123 34.5892 191.827 33.9102 191.827C33.3724 191.827 32.9577 192.041 32.666 192.47C32.3743 192.894 32.2285 193.534 32.2285 194.391ZM42.0039 194.438H38.415V193.099H42.0039V194.438ZM45.1416 198H43.4805V187.5H45.1416V198ZM48.7236 198H47.0625V190.604H48.7236V198ZM46.96 188.683C46.96 188.427 47.0397 188.215 47.1992 188.047C47.3633 187.878 47.5957 187.794 47.8965 187.794C48.1973 187.794 48.4297 187.878 48.5938 188.047C48.7578 188.215 48.8398 188.427 48.8398 188.683C48.8398 188.933 48.7578 189.143 48.5938 189.312C48.4297 189.476 48.1973 189.558 47.8965 189.558C47.5957 189.558 47.3633 189.476 47.1992 189.312C47.0397 189.143 46.96 188.933 46.96 188.683ZM52.0801 190.604L52.1279 191.458C52.6748 190.797 53.3926 190.467 54.2812 190.467C55.8216 190.467 56.6055 191.349 56.6328 193.112V198H54.9717V193.208C54.9717 192.739 54.8691 192.392 54.6641 192.169C54.4635 191.941 54.1331 191.827 53.6729 191.827C53.0029 191.827 52.5039 192.13 52.1758 192.736V198H50.5146V190.604H52.0801ZM61.5889 198.137C60.5361 198.137 59.6816 197.806 59.0254 197.146C58.3737 196.48 58.0479 195.596 58.0479 194.493V194.288C58.0479 193.55 58.1891 192.891 58.4717 192.312C58.7588 191.729 59.1598 191.276 59.6748 190.952C60.1898 190.629 60.764 190.467 61.3975 190.467C62.4046 190.467 63.1816 190.788 63.7285 191.431C64.2799 192.073 64.5557 192.982 64.5557 194.158V194.828H59.7227C59.7728 195.439 59.9756 195.922 60.3311 196.277C60.6911 196.633 61.1423 196.811 61.6846 196.811C62.4456 196.811 63.0654 196.503 63.5439 195.888L64.4395 196.742C64.1432 197.184 63.7467 197.528 63.25 197.774C62.7578 198.016 62.2041 198.137 61.5889 198.137ZM61.3906 191.8C60.9349 191.8 60.5658 191.959 60.2832 192.278C60.0052 192.597 59.8275 193.042 59.75 193.611H62.915V193.488C62.8786 192.932 62.7305 192.513 62.4707 192.23C62.2109 191.943 61.8509 191.8 61.3906 191.8Z" fill="#00986B"/>
<path d="M74 194L69.5 196.598L69.5 191.402L74 194Z" fill="#00986B"/>
<path d="M17.4971 303H15.8359V292.5H17.4971V303ZM23.7314 303C23.6585 302.859 23.5947 302.629 23.54 302.31C23.0114 302.861 22.3643 303.137 21.5986 303.137C20.8558 303.137 20.2497 302.925 19.7803 302.501C19.3109 302.077 19.0762 301.553 19.0762 300.929C19.0762 300.14 19.3678 299.536 19.9512 299.117C20.5391 298.693 21.3776 298.481 22.4668 298.481H23.4854V297.996C23.4854 297.613 23.3783 297.308 23.1641 297.08C22.9499 296.848 22.624 296.731 22.1865 296.731C21.8083 296.731 21.4984 296.827 21.2568 297.019C21.0153 297.205 20.8945 297.445 20.8945 297.736H19.2334C19.2334 297.331 19.3678 296.952 19.6367 296.602C19.9056 296.246 20.2702 295.968 20.7305 295.768C21.1953 295.567 21.7126 295.467 22.2822 295.467C23.1481 295.467 23.8385 295.686 24.3535 296.123C24.8685 296.556 25.1328 297.167 25.1465 297.955V301.291C25.1465 301.956 25.2399 302.487 25.4268 302.884V303H23.7314ZM21.9062 301.804C22.2344 301.804 22.542 301.724 22.8291 301.564C23.1208 301.405 23.3395 301.191 23.4854 300.922V299.527H22.5898C21.9746 299.527 21.512 299.634 21.2021 299.849C20.8923 300.063 20.7373 300.366 20.7373 300.758C20.7373 301.077 20.8421 301.332 21.0518 301.523C21.266 301.71 21.5508 301.804 21.9062 301.804ZM31.0322 300.99C31.0322 300.694 30.9092 300.468 30.6631 300.313C30.4215 300.159 30.0182 300.022 29.4531 299.903C28.888 299.785 28.4163 299.634 28.0381 299.452C27.2087 299.051 26.7939 298.47 26.7939 297.709C26.7939 297.071 27.0628 296.538 27.6006 296.109C28.1383 295.681 28.8219 295.467 29.6514 295.467C30.5355 295.467 31.2487 295.686 31.791 296.123C32.3379 296.561 32.6113 297.128 32.6113 297.825H30.9502C30.9502 297.506 30.8317 297.242 30.5947 297.032C30.3577 296.818 30.0433 296.711 29.6514 296.711C29.2868 296.711 28.9883 296.795 28.7559 296.964C28.528 297.132 28.4141 297.358 28.4141 297.641C28.4141 297.896 28.5212 298.094 28.7354 298.235C28.9495 298.377 29.3825 298.52 30.0342 298.666C30.6859 298.807 31.1963 298.978 31.5654 299.179C31.9391 299.375 32.2148 299.612 32.3926 299.89C32.5749 300.168 32.666 300.505 32.666 300.901C32.666 301.567 32.3903 302.107 31.8389 302.521C31.2874 302.932 30.5651 303.137 29.6719 303.137C29.0658 303.137 28.5257 303.027 28.0518 302.809C27.5778 302.59 27.2087 302.289 26.9443 301.906C26.68 301.523 26.5479 301.111 26.5479 300.669H28.1611C28.1839 301.061 28.332 301.364 28.6055 301.578C28.8789 301.788 29.2412 301.893 29.6924 301.893C30.1299 301.893 30.4626 301.811 30.6904 301.646C30.9183 301.478 31.0322 301.259 31.0322 300.99ZM36.2002 293.806V295.604H37.5059V296.834H36.2002V300.963C36.2002 301.245 36.2549 301.451 36.3643 301.578C36.4782 301.701 36.6787 301.763 36.9658 301.763C37.1572 301.763 37.3509 301.74 37.5469 301.694V302.979C37.1686 303.084 36.804 303.137 36.4531 303.137C35.1771 303.137 34.5391 302.433 34.5391 301.024V296.834H33.3223V295.604H34.5391V293.806H36.2002ZM42.0039 299.438H38.415V298.099H42.0039V299.438ZM45.1416 303H43.4805V292.5H45.1416V303ZM48.7236 303H47.0625V295.604H48.7236V303ZM46.96 293.683C46.96 293.427 47.0397 293.215 47.1992 293.047C47.3633 292.878 47.5957 292.794 47.8965 292.794C48.1973 292.794 48.4297 292.878 48.5938 293.047C48.7578 293.215 48.8398 293.427 48.8398 293.683C48.8398 293.933 48.7578 294.143 48.5938 294.312C48.4297 294.476 48.1973 294.558 47.8965 294.558C47.5957 294.558 47.3633 294.476 47.1992 294.312C47.0397 294.143 46.96 293.933 46.96 293.683ZM52.0801 295.604L52.1279 296.458C52.6748 295.797 53.3926 295.467 54.2812 295.467C55.8216 295.467 56.6055 296.349 56.6328 298.112V303H54.9717V298.208C54.9717 297.739 54.8691 297.392 54.6641 297.169C54.4635 296.941 54.1331 296.827 53.6729 296.827C53.0029 296.827 52.5039 297.13 52.1758 297.736V303H50.5146V295.604H52.0801ZM61.5889 303.137C60.5361 303.137 59.6816 302.806 59.0254 302.146C58.3737 301.48 58.0479 300.596 58.0479 299.493V299.288C58.0479 298.55 58.1891 297.891 58.4717 297.312C58.7588 296.729 59.1598 296.276 59.6748 295.952C60.1898 295.629 60.764 295.467 61.3975 295.467C62.4046 295.467 63.1816 295.788 63.7285 296.431C64.2799 297.073 64.5557 297.982 64.5557 299.158V299.828H59.7227C59.7728 300.439 59.9756 300.922 60.3311 301.277C60.6911 301.633 61.1423 301.811 61.6846 301.811C62.4456 301.811 63.0654 301.503 63.5439 300.888L64.4395 301.742C64.1432 302.184 63.7467 302.528 63.25 302.774C62.7578 303.016 62.2041 303.137 61.5889 303.137ZM61.3906 296.8C60.9349 296.8 60.5658 296.959 60.2832 297.278C60.0052 297.597 59.8275 298.042 59.75 298.611H62.915V298.488C62.8786 297.932 62.7305 297.513 62.4707 297.23C62.2109 296.943 61.8509 296.8 61.3906 296.8Z" fill="#666666"/>
<path d="M74 299L69.5 301.598L69.5 296.402L74 299Z" fill="#666666"/>
<g opacity="0.75">
<path d="M183 35C183 32.2386 185.239 30 188 30H472C474.761 30 477 32.2386 477 35V183C477 185.761 474.761 188 472 188H188C185.239 188 183 185.761 183 183V35Z" fill="#00986B"/>
<path d="M300.774 113.12C300.774 112.671 300.924 112.306 301.224 112.026C301.53 111.746 301.91 111.606 302.366 111.606C302.828 111.606 303.209 111.746 303.509 112.026C303.815 112.306 303.968 112.671 303.968 113.12C303.968 113.563 303.818 113.924 303.519 114.204C303.219 114.477 302.835 114.614 302.366 114.614C301.904 114.614 301.523 114.477 301.224 114.204C300.924 113.924 300.774 113.563 300.774 113.12ZM309.427 114.507H306.595V103.94H309.427V114.507ZM306.429 101.206C306.429 100.783 306.569 100.434 306.849 100.161C307.135 99.8876 307.522 99.7509 308.011 99.7509C308.493 99.7509 308.877 99.8876 309.163 100.161C309.45 100.434 309.593 100.783 309.593 101.206C309.593 101.636 309.446 101.987 309.153 102.261C308.867 102.534 308.486 102.671 308.011 102.671C307.535 102.671 307.151 102.534 306.858 102.261C306.572 101.987 306.429 101.636 306.429 101.206ZM315.14 101.343V103.94H316.946V106.011H315.14V111.284C315.14 111.675 315.215 111.955 315.364 112.124C315.514 112.293 315.8 112.378 316.224 112.378C316.536 112.378 316.813 112.355 317.054 112.309V114.448C316.5 114.617 315.931 114.702 315.345 114.702C313.366 114.702 312.356 113.703 312.317 111.704V106.011H310.774V103.94H312.317V101.343H315.14ZM323.382 114.702C321.832 114.702 320.569 114.227 319.593 113.276C318.623 112.326 318.138 111.059 318.138 109.477V109.204C318.138 108.143 318.343 107.196 318.753 106.362C319.163 105.522 319.743 104.878 320.491 104.429C321.246 103.973 322.106 103.745 323.069 103.745C324.515 103.745 325.651 104.201 326.478 105.112C327.311 106.024 327.728 107.316 327.728 108.989V110.141H320.999C321.09 110.832 321.364 111.385 321.819 111.802C322.282 112.218 322.864 112.427 323.567 112.427C324.655 112.427 325.504 112.033 326.116 111.245L327.503 112.798C327.08 113.397 326.507 113.865 325.784 114.204C325.062 114.536 324.261 114.702 323.382 114.702ZM323.06 106.03C322.5 106.03 322.044 106.219 321.692 106.597C321.347 106.974 321.126 107.515 321.028 108.218H324.954V107.993C324.941 107.368 324.772 106.886 324.446 106.548C324.121 106.203 323.659 106.03 323.06 106.03ZM331.985 103.94L332.073 105.122C332.822 104.204 333.834 103.745 335.11 103.745C336.471 103.745 337.405 104.282 337.913 105.356C338.655 104.282 339.713 103.745 341.087 103.745C342.233 103.745 343.086 104.08 343.646 104.751C344.205 105.415 344.485 106.418 344.485 107.759V114.507H341.653V107.768C341.653 107.169 341.536 106.733 341.302 106.46C341.067 106.18 340.654 106.04 340.062 106.04C339.215 106.04 338.629 106.444 338.304 107.251L338.313 114.507H335.491V107.778C335.491 107.166 335.371 106.724 335.13 106.45C334.889 106.177 334.479 106.04 333.899 106.04C333.099 106.04 332.519 106.372 332.161 107.036V114.507H329.339V103.94H331.985ZM352.151 109.556H346.653V107.28H352.151V109.556ZM360.54 114.507C360.41 114.253 360.315 113.937 360.257 113.559C359.573 114.321 358.685 114.702 357.591 114.702C356.556 114.702 355.696 114.403 355.013 113.804C354.336 113.205 353.997 112.449 353.997 111.538C353.997 110.418 354.41 109.559 355.237 108.96C356.071 108.361 357.272 108.058 358.841 108.052H360.14V107.446C360.14 106.958 360.013 106.567 359.759 106.274C359.511 105.981 359.118 105.835 358.577 105.835C358.102 105.835 357.728 105.949 357.454 106.177C357.187 106.405 357.054 106.717 357.054 107.114H354.231C354.231 106.502 354.42 105.936 354.798 105.415C355.175 104.894 355.709 104.487 356.399 104.194C357.09 103.895 357.864 103.745 358.724 103.745C360.026 103.745 361.058 104.074 361.819 104.731C362.588 105.382 362.972 106.3 362.972 107.485V112.065C362.978 113.068 363.118 113.826 363.392 114.341V114.507H360.54ZM358.206 112.544C358.623 112.544 359.007 112.453 359.358 112.27C359.71 112.082 359.97 111.831 360.14 111.518V109.702H359.085C357.672 109.702 356.92 110.19 356.829 111.167L356.819 111.333C356.819 111.684 356.943 111.974 357.19 112.202C357.438 112.43 357.776 112.544 358.206 112.544Z" fill="white"/>
</g>
</svg>
