<svg width="590" height="296" viewBox="0 0 590 296" fill="none" xmlns="http://www.w3.org/2000/svg">
<rect width="590" height="296" fill="#F7F7F7"/>
<path d="M37 289C37 290.105 36.1046 291 35 291L21 291C19.8954 291 19 290.105 19 289L19 279.814C19 279.283 19.2112 278.774 19.587 278.399L26.587 271.411C27.3678 270.631 28.6323 270.631 29.413 271.411L36.413 278.399C36.7888 278.774 37 279.283 37 279.814L37 289Z" fill="#DDDDDD"/>
<path d="M26.1133 283.947H23.0371V282.799H26.1133V283.947ZM31.627 278.428V279.605H31.4512C30.6543 279.617 30.0176 279.836 29.541 280.262C29.0645 280.688 28.7812 281.291 28.6914 282.072C29.1484 281.592 29.7324 281.352 30.4434 281.352C31.1973 281.352 31.791 281.617 32.2246 282.148C32.6621 282.68 32.8809 283.365 32.8809 284.205C32.8809 285.072 32.625 285.775 32.1133 286.314C31.6055 286.85 30.9375 287.117 30.1094 287.117C29.2578 287.117 28.5664 286.803 28.0352 286.174C27.5078 285.545 27.2441 284.721 27.2441 283.701V283.215C27.2441 281.719 27.6074 280.547 28.334 279.699C29.0645 278.852 30.1133 278.428 31.4805 278.428H31.627ZM30.0977 282.5C29.7852 282.5 29.498 282.588 29.2363 282.764C28.9785 282.939 28.7891 283.174 28.668 283.467V283.9C28.668 284.533 28.8008 285.037 29.0664 285.412C29.332 285.783 29.6758 285.969 30.0977 285.969C30.5195 285.969 30.8535 285.811 31.0996 285.494C31.3457 285.178 31.4688 284.762 31.4688 284.246C31.4688 283.73 31.3438 283.311 31.0938 282.986C30.8438 282.662 30.5117 282.5 30.0977 282.5Z" fill="white"/>
<path d="M298 289C298 290.105 297.105 291 296 291L282 291C280.895 291 280 290.105 280 289L280 279.814C280 279.283 280.211 278.774 280.587 278.399L287.587 271.411C288.368 270.631 289.632 270.631 290.413 271.411L297.413 278.399C297.789 278.774 298 279.283 298 279.814L298 289Z" fill="#DDDDDD"/>
<path d="M287.113 283.947H284.037V282.799H287.113V283.947ZM293.014 283.959H294.074V285.102H293.014V287H291.59V285.102H287.904L287.863 284.234L291.543 278.469H293.014V283.959ZM289.357 283.959H291.59V280.396L291.484 280.584L289.357 283.959Z" fill="white"/>
<path d="M206 289C206 290.105 205.105 291 204 291L190 291C188.895 291 188 290.105 188 289L188 279.814C188 279.283 188.211 278.774 188.587 278.399L195.587 271.411C196.368 270.631 197.632 270.631 198.413 271.411L205.413 278.399C205.789 278.774 206 279.283 206 279.814L206 289Z" fill="#DDDDDD"/>
<path d="M195.113 283.947H192.037V282.799H195.113V283.947ZM196.578 282.77L197.041 278.469H201.623V279.699H198.225L197.99 281.738C198.385 281.512 198.83 281.398 199.326 281.398C200.139 281.398 200.77 281.658 201.219 282.178C201.672 282.697 201.898 283.396 201.898 284.275C201.898 285.143 201.648 285.834 201.148 286.35C200.648 286.861 199.963 287.117 199.092 287.117C198.311 287.117 197.662 286.896 197.146 286.455C196.635 286.01 196.357 285.424 196.314 284.697H197.691C197.746 285.111 197.895 285.43 198.137 285.652C198.379 285.871 198.695 285.98 199.086 285.98C199.523 285.98 199.863 285.824 200.105 285.512C200.352 285.199 200.475 284.773 200.475 284.234C200.475 283.715 200.34 283.305 200.07 283.004C199.801 282.699 199.43 282.547 198.957 282.547C198.699 282.547 198.48 282.582 198.301 282.652C198.121 282.719 197.926 282.852 197.715 283.051L196.578 282.77Z" fill="white"/>
<path d="M390 289C390 290.105 389.105 291 388 291L374 291C372.895 291 372 290.105 372 289L372 279.814C372 279.283 372.211 278.774 372.587 278.399L379.587 271.411C380.368 270.631 381.632 270.631 382.413 271.411L389.413 278.399C389.789 278.774 390 279.283 390 279.814L390 289Z" fill="#DDDDDD"/>
<path d="M379.113 283.947H376.037V282.799H379.113V283.947ZM381.844 282.084H382.711C383.148 282.08 383.494 281.967 383.748 281.744C384.006 281.521 384.135 281.199 384.135 280.777C384.135 280.371 384.027 280.057 383.812 279.834C383.602 279.607 383.277 279.494 382.84 279.494C382.457 279.494 382.143 279.605 381.896 279.828C381.65 280.047 381.527 280.334 381.527 280.689H380.104C380.104 280.252 380.219 279.854 380.449 279.494C380.684 279.135 381.008 278.855 381.422 278.656C381.84 278.453 382.307 278.352 382.822 278.352C383.674 278.352 384.342 278.566 384.826 278.996C385.314 279.422 385.559 280.016 385.559 280.777C385.559 281.16 385.436 281.521 385.189 281.861C384.947 282.197 384.633 282.451 384.246 282.623C384.715 282.783 385.07 283.035 385.312 283.379C385.559 283.723 385.682 284.133 385.682 284.609C385.682 285.375 385.418 285.984 384.891 286.438C384.367 286.891 383.678 287.117 382.822 287.117C382.002 287.117 381.33 286.898 380.807 286.461C380.283 286.023 380.021 285.441 380.021 284.715H381.445C381.445 285.09 381.57 285.395 381.82 285.629C382.074 285.863 382.414 285.98 382.84 285.98C383.281 285.98 383.629 285.863 383.883 285.629C384.137 285.395 384.264 285.055 384.264 284.609C384.264 284.16 384.131 283.814 383.865 283.572C383.6 283.33 383.205 283.209 382.682 283.209H381.844V282.084Z" fill="white"/>
<path d="M482 289C482 290.105 481.105 291 480 291L466 291C464.895 291 464 290.105 464 289L464 279.814C464 279.283 464.211 278.774 464.587 278.399L471.587 271.411C472.368 270.631 473.632 270.631 474.413 271.411L481.413 278.399C481.789 278.774 482 279.283 482 279.814L482 289Z" fill="#DDDDDD"/>
<path d="M471.113 283.947H468.037V282.799H471.113V283.947ZM477.934 287H472.197V286.021L475.039 282.922C475.449 282.465 475.74 282.084 475.912 281.779C476.088 281.471 476.176 281.162 476.176 280.854C476.176 280.447 476.061 280.119 475.83 279.869C475.604 279.619 475.297 279.494 474.91 279.494C474.449 279.494 474.092 279.635 473.838 279.916C473.584 280.197 473.457 280.582 473.457 281.07H472.033C472.033 280.551 472.15 280.084 472.385 279.67C472.623 279.252 472.961 278.928 473.398 278.697C473.84 278.467 474.348 278.352 474.922 278.352C475.75 278.352 476.402 278.561 476.879 278.979C477.359 279.393 477.6 279.967 477.6 280.701C477.6 281.127 477.479 281.574 477.236 282.043C476.998 282.508 476.605 283.037 476.059 283.631L473.973 285.863H477.934V287Z" fill="white"/>
<path d="M571 289C571 290.105 570.105 291 569 291L555 291C553.895 291 553 290.105 553 289L553 279.814C553 279.283 553.211 278.774 553.587 278.399L560.587 271.411C561.368 270.631 562.632 270.631 563.413 271.411L570.413 278.399C570.789 278.774 571 279.283 571 279.814L571 289Z" fill="#DDDDDD"/>
<path d="M560.113 283.947H557.037V282.799H560.113V283.947ZM565.053 287H563.635V280.15L561.543 280.865V279.664L564.871 278.439H565.053V287Z" fill="white"/>
<rect x="29" y="5" width="164" height="20" fill="#FFF000"/>
<rect x="25" y="29" width="54" height="20" transform="rotate(90 25 29)" fill="#FFF000"/>
<path d="M19 7C19 5.89543 19.8954 5 21 5H35C36.1046 5 37 5.89543 37 7V16.1857C37 16.7167 36.7888 17.2259 36.413 17.6011L29.413 24.5894C28.6323 25.3688 27.3677 25.3688 26.587 24.5894L19.587 17.6011C19.2112 17.2259 19 16.7167 19 16.1857V7Z" fill="#CCCCCC"/>
<path d="M29.084 17H27.666V10.1504L25.5742 10.8652V9.66406L28.9023 8.43945H29.084V17Z" fill="white"/>
<path d="M188 7C188 5.89543 188.895 5 190 5H204C205.105 5 206 5.89543 206 7V16.1857C206 16.7167 205.789 17.2259 205.413 17.6011L198.413 24.5894C197.632 25.3688 196.368 25.3688 195.587 24.5894L188.587 17.6011C188.211 17.2259 188 16.7167 188 16.1857V7Z" fill="#CCCCCC"/>
<path d="M199.965 17H194.229V16.0215L197.07 12.9219C197.48 12.4648 197.771 12.084 197.943 11.7793C198.119 11.4707 198.207 11.1621 198.207 10.8535C198.207 10.4473 198.092 10.1191 197.861 9.86914C197.635 9.61914 197.328 9.49414 196.941 9.49414C196.48 9.49414 196.123 9.63477 195.869 9.91602C195.615 10.1973 195.488 10.582 195.488 11.0703H194.064C194.064 10.5508 194.182 10.084 194.416 9.66992C194.654 9.25195 194.992 8.92773 195.43 8.69727C195.871 8.4668 196.379 8.35156 196.953 8.35156C197.781 8.35156 198.434 8.56055 198.91 8.97852C199.391 9.39258 199.631 9.9668 199.631 10.7012C199.631 11.127 199.51 11.5742 199.268 12.043C199.029 12.5078 198.637 13.0371 198.09 13.6309L196.004 15.8633H199.965V17Z" fill="white"/>
<path d="M280 7C280 5.89543 280.895 5 282 5H296C297.105 5 298 5.89543 298 7V16.1857C298 16.7167 297.789 17.2259 297.413 17.6011L290.413 24.5894C289.632 25.3688 288.368 25.3688 287.587 24.5894L280.587 17.6011C280.211 17.2259 280 16.7167 280 16.1857V7Z" fill="#CCCCCC"/>
<path d="M287.875 12.084H288.742C289.18 12.0801 289.525 11.9668 289.779 11.7441C290.037 11.5215 290.166 11.1992 290.166 10.7773C290.166 10.3711 290.059 10.0566 289.844 9.83398C289.633 9.60742 289.309 9.49414 288.871 9.49414C288.488 9.49414 288.174 9.60547 287.928 9.82812C287.682 10.0469 287.559 10.334 287.559 10.6895H286.135C286.135 10.252 286.25 9.85352 286.48 9.49414C286.715 9.13477 287.039 8.85547 287.453 8.65625C287.871 8.45312 288.338 8.35156 288.854 8.35156C289.705 8.35156 290.373 8.56641 290.857 8.99609C291.346 9.42188 291.59 10.0156 291.59 10.7773C291.59 11.1602 291.467 11.5215 291.221 11.8613C290.979 12.1973 290.664 12.4512 290.277 12.623C290.746 12.7832 291.102 13.0352 291.344 13.3789C291.59 13.7227 291.713 14.1328 291.713 14.6094C291.713 15.375 291.449 15.9844 290.922 16.4375C290.398 16.8906 289.709 17.1172 288.854 17.1172C288.033 17.1172 287.361 16.8984 286.838 16.4609C286.314 16.0234 286.053 15.4414 286.053 14.7148H287.477C287.477 15.0898 287.602 15.3945 287.852 15.6289C288.105 15.8633 288.445 15.9805 288.871 15.9805C289.312 15.9805 289.66 15.8633 289.914 15.6289C290.168 15.3945 290.295 15.0547 290.295 14.6094C290.295 14.1602 290.162 13.8145 289.896 13.5723C289.631 13.3301 289.236 13.209 288.713 13.209H287.875V12.084Z" fill="white"/>
<path d="M372 7C372 5.89543 372.895 5 374 5H388C389.105 5 390 5.89543 390 7V16.1857C390 16.7167 389.789 17.2259 389.413 17.6011L382.413 24.5894C381.632 25.3688 380.368 25.3688 379.587 24.5894L372.587 17.6011C372.211 17.2259 372 16.7167 372 16.1857V7Z" fill="#CCCCCC"/>
<path d="M383.045 13.959H384.105V15.1016H383.045V17H381.621V15.1016H377.936L377.895 14.2344L381.574 8.46875H383.045V13.959ZM379.389 13.959H381.621V10.3965L381.516 10.584L379.389 13.959Z" fill="white"/>
<path d="M464 7C464 5.89543 464.895 5 466 5H480C481.105 5 482 5.89543 482 7V16.1857C482 16.7167 481.789 17.2259 481.413 17.6011L474.413 24.5894C473.632 25.3688 472.368 25.3688 471.587 24.5894L464.587 17.6011C464.211 17.2259 464 16.7167 464 16.1857V7Z" fill="#CCCCCC"/>
<path d="M470.609 12.7695L471.072 8.46875H475.654V9.69922H472.256L472.021 11.7383C472.416 11.5117 472.861 11.3984 473.357 11.3984C474.17 11.3984 474.801 11.6582 475.25 12.1777C475.703 12.6973 475.93 13.3965 475.93 14.2754C475.93 15.1426 475.68 15.834 475.18 16.3496C474.68 16.8613 473.994 17.1172 473.123 17.1172C472.342 17.1172 471.693 16.8965 471.178 16.4551C470.666 16.0098 470.389 15.4238 470.346 14.6973H471.723C471.777 15.1113 471.926 15.4297 472.168 15.6523C472.41 15.8711 472.727 15.9805 473.117 15.9805C473.555 15.9805 473.895 15.8242 474.137 15.5117C474.383 15.1992 474.506 14.7734 474.506 14.2344C474.506 13.7148 474.371 13.3047 474.102 13.0039C473.832 12.6992 473.461 12.5469 472.988 12.5469C472.73 12.5469 472.512 12.582 472.332 12.6523C472.152 12.7188 471.957 12.8516 471.746 13.0508L470.609 12.7695Z" fill="white"/>
<path d="M553 7C553 5.89543 553.895 5 555 5H569C570.105 5 571 5.89543 571 7V16.1857C571 16.7167 570.789 17.2259 570.413 17.6011L563.413 24.5894C562.632 25.3688 561.368 25.3688 560.587 24.5894L553.587 17.6011C553.211 17.2259 553 16.7167 553 16.1857V7Z" fill="#CCCCCC"/>
<path d="M563.658 8.42773V9.60547H563.482C562.686 9.61719 562.049 9.83594 561.572 10.2617C561.096 10.6875 560.812 11.291 560.723 12.0723C561.18 11.5918 561.764 11.3516 562.475 11.3516C563.229 11.3516 563.822 11.6172 564.256 12.1484C564.693 12.6797 564.912 13.3652 564.912 14.2051C564.912 15.0723 564.656 15.7754 564.145 16.3145C563.637 16.8496 562.969 17.1172 562.141 17.1172C561.289 17.1172 560.598 16.8027 560.066 16.1738C559.539 15.5449 559.275 14.7207 559.275 13.7012V13.2148C559.275 11.7188 559.639 10.5469 560.365 9.69922C561.096 8.85156 562.145 8.42773 563.512 8.42773H563.658ZM562.129 12.5C561.816 12.5 561.529 12.5879 561.268 12.7637C561.01 12.9395 560.82 13.1738 560.699 13.4668V13.9004C560.699 14.5332 560.832 15.0371 561.098 15.4121C561.363 15.7832 561.707 15.9688 562.129 15.9688C562.551 15.9688 562.885 15.8105 563.131 15.4941C563.377 15.1777 563.5 14.7617 563.5 14.2461C563.5 13.7305 563.375 13.3105 563.125 12.9863C562.875 12.6621 562.543 12.5 562.129 12.5Z" fill="white"/>
<path d="M7 37C5.89543 37 5 36.1046 5 35L5 21C5 19.8954 5.89543 19 7 19L16.1857 19C16.7167 19 17.2259 19.2112 17.6011 19.587L24.5894 26.587C25.3688 27.3677 25.3688 28.6323 24.5894 29.413L17.6011 36.413C17.2259 36.7888 16.7167 37 16.1857 37L7 37Z" fill="#CCCCCC"/>
<path d="M14.084 32H12.666V25.1504L10.5742 25.8652V24.6641L13.9023 23.4395H14.084V32Z" fill="white"/>
<path d="M7 96C5.89543 96 5 95.1046 5 94L5 80C5 78.8954 5.89543 78 7 78L16.1857 78C16.7167 78 17.2259 78.2112 17.6011 78.587L24.5894 85.587C25.3688 86.3677 25.3688 87.6323 24.5894 88.413L17.6011 95.413C17.2259 95.7888 16.7167 96 16.1857 96L7 96Z" fill="#CCCCCC"/>
<path d="M15.9648 91H10.2285V90.0215L13.0703 86.9219C13.4805 86.4648 13.7715 86.084 13.9434 85.7793C14.1191 85.4707 14.207 85.1621 14.207 84.8535C14.207 84.4473 14.0918 84.1191 13.8613 83.8691C13.6348 83.6191 13.3281 83.4941 12.9414 83.4941C12.4805 83.4941 12.123 83.6348 11.8691 83.916C11.6152 84.1973 11.4883 84.582 11.4883 85.0703H10.0645C10.0645 84.5508 10.1816 84.084 10.416 83.6699C10.6543 83.252 10.9922 82.9277 11.4297 82.6973C11.8711 82.4668 12.3789 82.3516 12.9531 82.3516C13.7812 82.3516 14.4336 82.5605 14.9102 82.9785C15.3906 83.3926 15.6309 83.9668 15.6309 84.7012C15.6309 85.127 15.5098 85.5742 15.2676 86.043C15.0293 86.5078 14.6367 87.0371 14.0898 87.6309L12.0039 89.8633H15.9648V91Z" fill="white"/>
<path d="M7 188C5.89543 188 5 187.105 5 186L5 172C5 170.895 5.89543 170 7 170L16.1857 170C16.7167 170 17.2259 170.211 17.6011 170.587L24.5894 177.587C25.3688 178.368 25.3688 179.632 24.5894 180.413L17.6011 187.413C17.2259 187.789 16.7167 188 16.1857 188L7 188Z" fill="#CCCCCC"/>
<path d="M11.875 178.084H12.7422C13.1797 178.08 13.5254 177.967 13.7793 177.744C14.0371 177.521 14.166 177.199 14.166 176.777C14.166 176.371 14.0586 176.057 13.8438 175.834C13.6328 175.607 13.3086 175.494 12.8711 175.494C12.4883 175.494 12.1738 175.605 11.9277 175.828C11.6816 176.047 11.5586 176.334 11.5586 176.689H10.1348C10.1348 176.252 10.25 175.854 10.4805 175.494C10.7148 175.135 11.0391 174.855 11.4531 174.656C11.8711 174.453 12.3379 174.352 12.8535 174.352C13.7051 174.352 14.373 174.566 14.8574 174.996C15.3457 175.422 15.5898 176.016 15.5898 176.777C15.5898 177.16 15.4668 177.521 15.2207 177.861C14.9785 178.197 14.6641 178.451 14.2773 178.623C14.7461 178.783 15.1016 179.035 15.3438 179.379C15.5898 179.723 15.7129 180.133 15.7129 180.609C15.7129 181.375 15.4492 181.984 14.9219 182.438C14.3984 182.891 13.709 183.117 12.8535 183.117C12.0332 183.117 11.3613 182.898 10.8379 182.461C10.3145 182.023 10.0527 181.441 10.0527 180.715H11.4766C11.4766 181.09 11.6016 181.395 11.8516 181.629C12.1055 181.863 12.4453 181.98 12.8711 181.98C13.3125 181.98 13.6602 181.863 13.9141 181.629C14.168 181.395 14.2949 181.055 14.2949 180.609C14.2949 180.16 14.1621 179.814 13.8965 179.572C13.6309 179.33 13.2363 179.209 12.7129 179.209H11.875V178.084Z" fill="white"/>
<path d="M7 277C5.89543 277 5 276.105 5 275L5 261C5 259.895 5.89543 259 7 259L16.1857 259C16.7167 259 17.2259 259.211 17.6011 259.587L24.5894 266.587C25.3688 267.368 25.3688 268.632 24.5894 269.413L17.6011 276.413C17.2259 276.789 16.7167 277 16.1857 277L7 277Z" fill="#CCCCCC"/>
<path d="M15.0449 268.959H16.1055V270.102H15.0449V272H13.6211V270.102H9.93555L9.89453 269.234L13.5742 263.469H15.0449V268.959ZM11.3887 268.959H13.6211V265.396L13.5156 265.584L11.3887 268.959Z" fill="white"/>
<path d="M583 19C584.105 19 585 19.8954 585 21L585 35C585 36.1046 584.105 37 583 37L573.814 37C573.283 37 572.774 36.7888 572.399 36.413L565.411 29.413C564.631 28.6322 564.631 27.3677 565.411 26.587L572.399 19.587C572.774 19.2112 573.283 19 573.814 19L583 19Z" fill="#DDDDDD"/>
<path d="M575.113 28.9473H572.037V27.7988H575.113V28.9473ZM581.014 28.959H582.074V30.1016H581.014V32H579.59V30.1016H575.904L575.863 29.2344L579.543 23.4688H581.014V28.959ZM577.357 28.959H579.59V25.3965L579.484 25.584L577.357 28.959Z" fill="white"/>
<path d="M583 78C584.105 78 585 78.8954 585 80L585 94C585 95.1046 584.105 96 583 96L573.814 96C573.283 96 572.774 95.7888 572.399 95.413L565.411 88.413C564.631 87.6322 564.631 86.3677 565.411 85.587L572.399 78.587C572.774 78.2112 573.283 78 573.814 78L583 78Z" fill="#DDDDDD"/>
<path d="M575.113 87.9473H572.037V86.7988H575.113V87.9473ZM577.844 86.084H578.711C579.148 86.0801 579.494 85.9668 579.748 85.7441C580.006 85.5215 580.135 85.1992 580.135 84.7773C580.135 84.3711 580.027 84.0566 579.812 83.834C579.602 83.6074 579.277 83.4941 578.84 83.4941C578.457 83.4941 578.143 83.6055 577.896 83.8281C577.65 84.0469 577.527 84.334 577.527 84.6895H576.104C576.104 84.252 576.219 83.8535 576.449 83.4941C576.684 83.1348 577.008 82.8555 577.422 82.6562C577.84 82.4531 578.307 82.3516 578.822 82.3516C579.674 82.3516 580.342 82.5664 580.826 82.9961C581.314 83.4219 581.559 84.0156 581.559 84.7773C581.559 85.1602 581.436 85.5215 581.189 85.8613C580.947 86.1973 580.633 86.4512 580.246 86.623C580.715 86.7832 581.07 87.0352 581.312 87.3789C581.559 87.7227 581.682 88.1328 581.682 88.6094C581.682 89.375 581.418 89.9844 580.891 90.4375C580.367 90.8906 579.678 91.1172 578.822 91.1172C578.002 91.1172 577.33 90.8984 576.807 90.4609C576.283 90.0234 576.021 89.4414 576.021 88.7148H577.445C577.445 89.0898 577.57 89.3945 577.82 89.6289C578.074 89.8633 578.414 89.9805 578.84 89.9805C579.281 89.9805 579.629 89.8633 579.883 89.6289C580.137 89.3945 580.264 89.0547 580.264 88.6094C580.264 88.1602 580.131 87.8145 579.865 87.5723C579.6 87.3301 579.205 87.209 578.682 87.209H577.844V86.084Z" fill="white"/>
<path d="M583 170C584.105 170 585 170.895 585 172L585 186C585 187.105 584.105 188 583 188L573.814 188C573.283 188 572.774 187.789 572.399 187.413L565.411 180.413C564.631 179.632 564.631 178.368 565.411 177.587L572.399 170.587C572.774 170.211 573.283 170 573.814 170L583 170Z" fill="#DDDDDD"/>
<path d="M575.113 179.947H572.037V178.799H575.113V179.947ZM581.934 183H576.197V182.021L579.039 178.922C579.449 178.465 579.74 178.084 579.912 177.779C580.088 177.471 580.176 177.162 580.176 176.854C580.176 176.447 580.061 176.119 579.83 175.869C579.604 175.619 579.297 175.494 578.91 175.494C578.449 175.494 578.092 175.635 577.838 175.916C577.584 176.197 577.457 176.582 577.457 177.07H576.033C576.033 176.551 576.15 176.084 576.385 175.67C576.623 175.252 576.961 174.928 577.398 174.697C577.84 174.467 578.348 174.352 578.922 174.352C579.75 174.352 580.402 174.561 580.879 174.979C581.359 175.393 581.6 175.967 581.6 176.701C581.6 177.127 581.479 177.574 581.236 178.043C580.998 178.508 580.605 179.037 580.059 179.631L577.973 181.863H581.934V183Z" fill="white"/>
<path d="M583 259C584.105 259 585 259.895 585 261L585 275C585 276.105 584.105 277 583 277L573.814 277C573.283 277 572.774 276.789 572.399 276.413L565.411 269.413C564.631 268.632 564.631 267.368 565.411 266.587L572.399 259.587C572.774 259.211 573.283 259 573.814 259L583 259Z" fill="#DDDDDD"/>
<path d="M575.113 268.947H572.037V267.799H575.113V268.947ZM580.053 272H578.635V265.15L576.543 265.865V264.664L579.871 263.439H580.053V272Z" fill="white"/>
<rect x="28" y="28" width="534" height="240" fill="white"/>
<path d="M193.5 29L193.5 267" stroke="#BBBBBB" stroke-dasharray="3 2"/>
<path d="M200.5 29L200.5 267" stroke="#BBBBBB" stroke-dasharray="3 2"/>
<path d="M285.5 29L285.5 267" stroke="#BBBBBB" stroke-dasharray="3 2"/>
<path d="M292.5 29L292.5 267" stroke="#BBBBBB" stroke-dasharray="3 2"/>
<path d="M377.5 29L377.5 267" stroke="#BBBBBB" stroke-dasharray="3 2"/>
<path d="M384.5 29L384.5 267" stroke="#BBBBBB" stroke-dasharray="3 2"/>
<path d="M469.5 29L469.5 267" stroke="#BBBBBB" stroke-dasharray="3 2"/>
<path d="M476.5 29L476.5 267" stroke="#BBBBBB" stroke-dasharray="3 2"/>
<path d="M29 90.5L561 90.5" stroke="#BBBBBB" stroke-dasharray="3 2"/>
<path d="M29 83.5L561 83.5" stroke="#BBBBBB" stroke-dasharray="3 2"/>
<path d="M29 182.5L561 182.5" stroke="#BBBBBB" stroke-dasharray="3 2"/>
<path d="M29 175.5L561 175.5" stroke="#BBBBBB" stroke-dasharray="3 2"/>
<g opacity="0.75">
<path d="M31 36C31 33.2386 33.2386 31 36 31H186C188.761 31 191 33.2386 191 36V168C191 170.761 188.761 173 186 173H36C33.2386 173 31 170.761 31 168V36Z" fill="#1E73FF"/>
<path d="M94.2041 105.493H92.4243V97.5686H94.2041V105.493ZM92.3145 95.5105C92.3145 95.2371 92.3999 95.01 92.5708 94.8293C92.7466 94.6487 92.9956 94.5583 93.3179 94.5583C93.6401 94.5583 93.8892 94.6487 94.0649 94.8293C94.2407 95.01 94.3286 95.2371 94.3286 95.5105C94.3286 95.7791 94.2407 96.0037 94.0649 96.1843C93.8892 96.3601 93.6401 96.448 93.3179 96.448C92.9956 96.448 92.7466 96.3601 92.5708 96.1843C92.3999 96.0037 92.3145 95.7791 92.3145 95.5105ZM98.3789 95.6423V97.5686H99.7778V98.887H98.3789V103.311C98.3789 103.614 98.4375 103.833 98.5547 103.97C98.6768 104.102 98.8916 104.168 99.1992 104.168C99.4043 104.168 99.6118 104.143 99.8218 104.094V105.471C99.4165 105.584 99.0259 105.64 98.6499 105.64C97.2827 105.64 96.5991 104.885 96.5991 103.377V98.887H95.2954V97.5686H96.5991V95.6423H98.3789ZM104.634 105.64C103.506 105.64 102.59 105.286 101.887 104.578C101.189 103.865 100.84 102.918 100.84 101.736V101.516C100.84 100.725 100.991 100.02 101.294 99.3997C101.602 98.7747 102.031 98.2888 102.583 97.9421C103.135 97.5955 103.75 97.4221 104.429 97.4221C105.508 97.4221 106.34 97.7664 106.926 98.4548C107.517 99.1433 107.812 100.117 107.812 101.377V102.095H102.634C102.688 102.749 102.905 103.267 103.286 103.648C103.672 104.029 104.155 104.219 104.736 104.219C105.552 104.219 106.216 103.889 106.729 103.23L107.688 104.146C107.371 104.619 106.946 104.988 106.414 105.252C105.886 105.51 105.293 105.64 104.634 105.64ZM104.421 98.8503C103.933 98.8503 103.538 99.0212 103.235 99.363C102.937 99.7048 102.747 100.181 102.664 100.791H106.055V100.659C106.016 100.064 105.857 99.6145 105.579 99.3118C105.3 99.0042 104.915 98.8503 104.421 98.8503ZM110.874 97.5686L110.925 98.3962C111.482 97.7468 112.244 97.4221 113.21 97.4221C114.27 97.4221 114.995 97.8274 115.386 98.6379C115.962 97.8274 116.772 97.4221 117.817 97.4221C118.691 97.4221 119.341 97.6638 119.766 98.1472C120.195 98.6306 120.415 99.3435 120.425 100.286V105.493H118.645V100.337C118.645 99.8342 118.535 99.4656 118.315 99.2312C118.096 98.9968 117.732 98.8796 117.224 98.8796C116.819 98.8796 116.487 98.9895 116.228 99.2092C115.974 99.4241 115.796 99.7073 115.693 100.059L115.701 105.493H113.921V100.279C113.896 99.3459 113.42 98.8796 112.493 98.8796C111.78 98.8796 111.274 99.1702 110.977 99.7512V105.493H109.197V97.5686H110.874ZM130.693 105.493H128.921V96.9314L126.306 97.825V96.3235L130.466 94.7927H130.693V105.493Z" fill="white"/>
</g>
<g opacity="0.75">
<path d="M31 190C31 187.239 33.2386 185 36 185H278C280.761 185 283 187.239 283 190V260C283 262.761 280.761 265 278 265H36C33.2386 265 31 262.761 31 260V190Z" fill="#1E73FF"/>
<path d="M140.604 229.067H138.825V221.142H140.604V229.067ZM138.715 219.084C138.715 218.81 138.8 218.583 138.971 218.403C139.147 218.222 139.396 218.132 139.718 218.132C140.041 218.132 140.29 218.222 140.465 218.403C140.641 218.583 140.729 218.81 140.729 219.084C140.729 219.352 140.641 219.577 140.465 219.758C140.29 219.933 140.041 220.021 139.718 220.021C139.396 220.021 139.147 219.933 138.971 219.758C138.8 219.577 138.715 219.352 138.715 219.084ZM144.779 219.216V221.142H146.178V222.46H144.779V226.884C144.779 227.187 144.838 227.406 144.955 227.543C145.077 227.675 145.292 227.741 145.6 227.741C145.805 227.741 146.012 227.717 146.222 227.668V229.045C145.817 229.157 145.426 229.213 145.05 229.213C143.683 229.213 143 228.459 143 226.95V222.46H141.696V221.142H143V219.216H144.779ZM151.034 229.213C149.906 229.213 148.991 228.859 148.288 228.151C147.589 227.438 147.24 226.491 147.24 225.309V225.09C147.24 224.299 147.392 223.593 147.694 222.973C148.002 222.348 148.432 221.862 148.983 221.515C149.535 221.169 150.15 220.995 150.829 220.995C151.908 220.995 152.741 221.34 153.327 222.028C153.917 222.717 154.213 223.691 154.213 224.95V225.668H149.035C149.088 226.323 149.306 226.84 149.687 227.221C150.072 227.602 150.556 227.792 151.137 227.792C151.952 227.792 152.616 227.463 153.129 226.803L154.088 227.719C153.771 228.193 153.346 228.561 152.814 228.825C152.287 229.084 151.693 229.213 151.034 229.213ZM150.822 222.424C150.333 222.424 149.938 222.594 149.635 222.936C149.337 223.278 149.147 223.754 149.064 224.365H152.455V224.233C152.416 223.637 152.257 223.188 151.979 222.885C151.701 222.577 151.315 222.424 150.822 222.424ZM157.274 221.142L157.326 221.969C157.882 221.32 158.644 220.995 159.611 220.995C160.67 220.995 161.396 221.401 161.786 222.211C162.362 221.401 163.173 220.995 164.218 220.995C165.092 220.995 165.741 221.237 166.166 221.72C166.596 222.204 166.815 222.917 166.825 223.859V229.067H165.045V223.91C165.045 223.407 164.936 223.039 164.716 222.804C164.496 222.57 164.132 222.453 163.625 222.453C163.219 222.453 162.887 222.563 162.628 222.782C162.375 222.997 162.196 223.281 162.094 223.632L162.101 229.067H160.321V223.852C160.297 222.919 159.821 222.453 158.893 222.453C158.18 222.453 157.675 222.743 157.377 223.324V229.067H155.597V221.142H157.274ZM179.445 229.067H172.274V227.844L175.827 223.969C176.339 223.398 176.703 222.922 176.918 222.541C177.138 222.155 177.248 221.769 177.248 221.384C177.248 220.876 177.104 220.466 176.815 220.153C176.532 219.841 176.149 219.684 175.666 219.684C175.089 219.684 174.643 219.86 174.325 220.212C174.008 220.563 173.849 221.044 173.849 221.655H172.069C172.069 221.005 172.216 220.422 172.509 219.904C172.807 219.382 173.229 218.976 173.776 218.688C174.328 218.4 174.962 218.256 175.68 218.256C176.715 218.256 177.531 218.517 178.126 219.04C178.727 219.557 179.027 220.275 179.027 221.193C179.027 221.725 178.876 222.284 178.573 222.87C178.275 223.451 177.785 224.113 177.101 224.855L174.494 227.646H179.445V229.067Z" fill="white"/>
</g>
<rect x="28" y="28" width="534" height="240" stroke="#AAAAAA" stroke-width="2"/>
</svg>
