<svg width="646" height="279" viewBox="0 0 646 279" fill="none" xmlns="http://www.w3.org/2000/svg">
<rect x="1" y="36" width="644" height="242" fill="#F7F7F7" stroke="#AAAAAA" stroke-width="2" stroke-dasharray="6 4"/>
<rect x="20" y="55" width="196" height="204" rx="5" fill="#1E73FF"/>
<rect x="526" y="55" width="100" height="204" rx="5" fill="#B72DF8"/>
<rect x="221" y="55" width="300" height="204" rx="5" fill="#00986B"/>
<path d="M32.506 68.004H31.358V75.774H32.156C33.514 75.774 34.956 75.704 36.65 75.382L36.538 74.388C35.04 74.682 33.71 74.766 32.506 74.78V68.004ZM40.29 66.478V71.588H38.512V66.758H37.434V78.392H38.512V72.54H40.29V79.022H41.396V66.478H40.29ZM48.2909 78.14C46.3169 78.14 45.1549 77.65 45.1549 76.796C45.1549 75.942 46.3169 75.452 48.2909 75.452C50.2509 75.452 51.4269 75.942 51.4269 76.796C51.4269 77.65 50.2509 78.14 48.2909 78.14ZM48.2909 74.556C45.6029 74.556 43.9929 75.354 43.9929 76.796C43.9929 78.238 45.6029 79.022 48.2909 79.022C50.9929 79.022 52.5889 78.238 52.5889 76.796C52.5889 75.354 50.9929 74.556 48.2909 74.556ZM46.5549 71.224C47.0729 71.308 47.6609 71.364 48.2909 71.364C48.9349 71.364 49.5229 71.308 50.0409 71.224V72.694H46.5549V71.224ZM45.0569 69.04C45.0569 68.13 46.2889 67.598 48.2909 67.598C50.2929 67.598 51.5249 68.13 51.5249 69.04C51.5249 69.936 50.2929 70.482 48.2909 70.482C46.2889 70.482 45.0569 69.936 45.0569 69.04ZM51.1749 72.694V70.916C52.1409 70.524 52.7009 69.88 52.7009 69.04C52.7009 67.57 51.0209 66.702 48.2909 66.702C45.5749 66.702 43.8809 67.57 43.8809 69.04C43.8809 69.894 44.4269 70.524 45.4209 70.93V72.694H42.6069V73.618H53.9749V72.694H51.1749ZM59.6658 72.498H56.1378V68.522H59.6658V72.498ZM60.7858 67.598H55.0178V73.408H60.7858V67.598ZM57.5798 74.808H56.4318V78.756H64.8038V77.818H57.5798V74.808ZM64.2438 70.3V66.464H63.0958V75.662H64.2438V71.266H66.0918V70.3H64.2438ZM68.8987 75.522H75.2127V77.944H68.8987V75.522ZM67.7787 78.868H76.3467V74.612H67.7787V78.868ZM75.9547 72.232C76.3047 70.454 76.3047 69.166 76.3047 68.032V67.01H67.8207V67.948H75.1707V68.032C75.1707 68.466 75.1707 68.928 75.1427 69.432L67.5127 69.684L67.6667 70.622L75.0867 70.286C75.0307 70.874 74.9607 71.504 74.7927 72.232H66.3647V73.156H77.7747V72.232H75.9547ZM83.4236 72.498H79.8956V68.522H83.4236V72.498ZM84.5436 67.598H78.7756V73.408H84.5436V67.598ZM81.3376 74.808H80.1896V78.756H88.5616V77.818H81.3376V74.808ZM88.0016 70.3V66.464H86.8536V75.662H88.0016V71.266H89.8496V70.3H88.0016ZM104.24 72.61C102.42 71.966 101.188 70.384 101.188 68.774V68.27H103.946V67.332H97.2398V68.27H100.04V68.774C100.04 70.552 98.7378 72.232 96.8758 72.89L97.4778 73.8C98.9478 73.254 100.096 72.106 100.628 70.664C101.188 71.966 102.266 73.002 103.666 73.506L104.24 72.61ZM98.7798 75.606H106.018V79.05H107.18V74.682H98.7798V75.606ZM106.018 66.478V69.754H103.568V70.692H106.018V73.996H107.18V66.478H106.018ZM114.383 78.14C112.409 78.14 111.247 77.65 111.247 76.796C111.247 75.942 112.409 75.452 114.383 75.452C116.343 75.452 117.519 75.942 117.519 76.796C117.519 77.65 116.343 78.14 114.383 78.14ZM114.383 74.556C111.695 74.556 110.085 75.354 110.085 76.796C110.085 78.238 111.695 79.022 114.383 79.022C117.085 79.022 118.681 78.238 118.681 76.796C118.681 75.354 117.085 74.556 114.383 74.556ZM112.647 71.224C113.165 71.308 113.753 71.364 114.383 71.364C115.027 71.364 115.615 71.308 116.133 71.224V72.694H112.647V71.224ZM111.149 69.04C111.149 68.13 112.381 67.598 114.383 67.598C116.385 67.598 117.617 68.13 117.617 69.04C117.617 69.936 116.385 70.482 114.383 70.482C112.381 70.482 111.149 69.936 111.149 69.04ZM117.267 72.694V70.916C118.233 70.524 118.793 69.88 118.793 69.04C118.793 67.57 117.113 66.702 114.383 66.702C111.667 66.702 109.973 67.57 109.973 69.04C109.973 69.894 110.519 70.524 111.513 70.93V72.694H108.699V73.618H120.067V72.694H117.267ZM125.31 72.834H128.012V71.896H122.734V68.606H127.956V67.654H121.6V72.834H124.162V75.326C122.944 75.368 121.754 75.368 120.676 75.368L120.816 76.334C123.196 76.334 126.206 76.278 128.95 75.858L128.852 75.018C127.732 75.158 126.514 75.228 125.31 75.284V72.834ZM129.678 66.464V79.064H130.826V66.464H129.678ZM142.537 70.258H135.145V66.94H133.997V71.196H142.537V70.258ZM135.061 75.06H133.913V78.728H142.607V77.79H135.061V75.06ZM132.457 72.876V73.8H143.839V72.876H132.457ZM161.645 66.492H160.539V73.184H161.645V66.492ZM158.089 73.058H159.167V66.73H158.089V68.844H156.171V69.782H158.089V73.058ZM157.221 71.826C155.667 71.196 154.771 69.768 154.771 68.34V66.996H153.651V68.284C153.651 69.782 152.685 71.462 151.061 72.204L151.691 73.058C152.895 72.498 153.777 71.42 154.211 70.202C154.631 71.28 155.443 72.204 156.605 72.694L157.221 71.826ZM154.519 77.986V76.67H161.645V73.744H153.357V74.654H160.511V75.816H153.385V78.896H162.121V77.986H154.519ZM167 67.402C165.054 67.402 163.64 68.592 163.64 70.356C163.64 72.106 165.054 73.31 167 73.31C168.96 73.31 170.36 72.106 170.36 70.356C170.36 68.592 168.96 67.402 167 67.402ZM167 68.382C168.302 68.382 169.24 69.18 169.24 70.356C169.24 71.518 168.302 72.33 167 72.33C165.712 72.33 164.76 71.518 164.76 70.356C164.76 69.18 165.712 68.382 167 68.382ZM172.012 66.478V79.064H173.16V66.478H172.012ZM163.15 76.306C165.418 76.306 168.456 76.278 171.284 75.76L171.186 74.906C168.442 75.326 165.292 75.34 163.01 75.34L163.15 76.306ZM182.538 71.574L182.706 72.526L190.28 72.106C190.21 73.072 190.07 74.108 189.79 75.312L190.924 75.424C191.47 72.848 191.47 71.154 191.47 69.292V67.752H182.86V68.69H190.35V69.292C190.35 69.936 190.35 70.58 190.322 71.238L182.538 71.574ZM181.516 76.348V77.286H192.87V76.348H181.516ZM194.123 67.836V68.76H198.841C198.603 71.742 196.923 74.15 193.549 75.76L194.165 76.698C198.337 74.654 200.003 71.462 200.003 67.836H194.123ZM202.537 66.478V79.036H203.685V66.478H202.537Z" fill="white"/>
<path d="M542.398 67.906C544.316 67.906 545.618 68.606 545.618 69.712C545.618 70.818 544.316 71.532 542.398 71.532C540.494 71.532 539.192 70.818 539.192 69.712C539.192 68.606 540.494 67.906 542.398 67.906ZM542.398 72.456C545.016 72.456 546.794 71.392 546.794 69.712C546.794 68.032 545.016 66.982 542.398 66.982C539.794 66.982 538.016 68.032 538.016 69.712C538.016 71.392 539.794 72.456 542.398 72.456ZM548.11 73.632H536.742V74.57H539.668V79.036H540.83V74.57H543.98V79.036H545.142V74.57H548.11V73.632ZM549.909 70.426C549.909 69.18 550.819 68.284 552.051 68.284C553.269 68.284 554.179 69.18 554.179 70.426C554.179 71.672 553.269 72.568 552.051 72.568C550.819 72.568 549.909 71.672 549.909 70.426ZM557.805 69.376V71.462H555.103C555.215 71.14 555.271 70.79 555.271 70.426C555.271 70.048 555.215 69.698 555.103 69.376H557.805ZM557.805 72.386V75.76H558.967V66.492H557.805V68.452H554.613C554.025 67.724 553.129 67.276 552.051 67.276C550.203 67.276 548.817 68.592 548.817 70.426C548.817 72.26 550.203 73.576 552.051 73.576C553.129 73.576 554.039 73.128 554.627 72.386H557.805ZM552.093 77.818V74.808H550.931V78.756H559.317V77.818H552.093ZM567.948 68.018H564.812V66.478H563.664V68.018H560.542V68.942H567.948V68.018ZM562.334 71.966C562.334 71.098 563.104 70.538 564.238 70.538C565.372 70.538 566.156 71.098 566.156 71.966C566.156 72.848 565.372 73.408 564.238 73.408C563.104 73.408 562.334 72.848 562.334 71.966ZM567.248 71.966C567.248 70.566 566.016 69.642 564.238 69.642C562.46 69.642 561.242 70.566 561.242 71.966C561.242 73.38 562.46 74.304 564.238 74.304C566.016 74.304 567.248 73.38 567.248 71.966ZM563.58 75.158H562.432V78.756H570.804V77.818H563.58V75.158ZM570.244 70.622V66.478H569.096V75.9H570.244V71.588H572.092V70.622H570.244ZM589.674 66.492H588.568V73.184H589.674V66.492ZM586.118 73.058H587.196V66.73H586.118V68.844H584.2V69.782H586.118V73.058ZM585.25 71.826C583.696 71.196 582.8 69.768 582.8 68.34V66.996H581.68V68.284C581.68 69.782 580.714 71.462 579.09 72.204L579.72 73.058C580.924 72.498 581.806 71.42 582.24 70.202C582.66 71.28 583.472 72.204 584.634 72.694L585.25 71.826ZM582.548 77.986V76.67H589.674V73.744H581.386V74.654H588.54V75.816H581.414V78.896H590.15V77.986H582.548ZM600.111 66.492V73.226H601.259V66.492H600.111ZM593.167 73.842V78.868H601.259V73.842H600.125V75.382H594.301V73.842H593.167ZM594.301 76.278H600.125V77.944H594.301V76.278ZM594.511 67.08C592.621 67.08 591.249 68.256 591.249 69.964C591.249 71.7 592.621 72.862 594.511 72.862C596.415 72.862 597.801 71.7 597.801 69.964C597.801 68.256 596.415 67.08 594.511 67.08ZM594.511 68.032C595.785 68.032 596.681 68.83 596.681 69.964C596.681 71.112 595.785 71.91 594.511 71.91C593.265 71.91 592.369 71.112 592.369 69.964C592.369 68.83 593.265 68.032 594.511 68.032ZM538.674 93.696H537.526V101.788H538.562C540.564 101.788 542.538 101.648 544.722 101.2L544.596 100.22C542.51 100.64 540.564 100.808 538.674 100.808V93.696ZM545.884 92.478V105.022H547.032V92.478H545.884ZM550.301 94.634H554.991V93.682H549.153V101.928H550.147C552.513 101.928 554.165 101.844 556.083 101.48L555.957 100.528C554.137 100.85 552.527 100.948 550.301 100.948V94.634ZM560.353 97.434H558.281V92.478H557.133V105.064H558.281V98.386H560.353V97.434ZM563.552 101.847C563.707 101.847 563.853 101.876 563.989 101.936C564.131 101.995 564.251 102.077 564.352 102.182C564.456 102.286 564.538 102.41 564.598 102.551C564.657 102.688 564.687 102.836 564.687 102.995C564.687 103.15 564.657 103.296 564.598 103.433C564.538 103.569 564.456 103.69 564.352 103.795C564.251 103.895 564.131 103.975 563.989 104.034C563.853 104.093 563.707 104.123 563.552 104.123C563.392 104.123 563.244 104.093 563.107 104.034C562.971 103.975 562.85 103.895 562.745 103.795C562.645 103.69 562.565 103.569 562.506 103.433C562.447 103.296 562.417 103.15 562.417 102.995C562.417 102.836 562.447 102.688 562.506 102.551C562.565 102.41 562.645 102.286 562.745 102.182C562.85 102.077 562.971 101.995 563.107 101.936C563.244 101.876 563.392 101.847 563.552 101.847Z" fill="white"/>
<path d="M236.908 71.518H233.38V68.214H236.908V71.518ZM238.028 67.29H232.26V72.428H238.028V67.29ZM234.178 74.038H233.058V78.714H233.66C234.514 78.714 235.69 78.644 236.88 78.252L236.698 77.342C235.83 77.622 234.906 77.734 234.178 77.762V74.038ZM239.582 78.21C238.812 78.21 238.28 77.832 238.28 77.244C238.28 76.67 238.812 76.306 239.582 76.306C240.338 76.306 240.884 76.67 240.884 77.244C240.884 77.832 240.338 78.21 239.582 78.21ZM239.582 75.48C238.224 75.48 237.258 76.166 237.258 77.244C237.258 78.336 238.224 79.022 239.582 79.022C240.94 79.022 241.906 78.336 241.906 77.244C241.906 76.166 240.94 75.48 239.582 75.48ZM240.142 73.058H239.022V74.164H236.418V75.018H242.732V74.164H240.142V73.058ZM241.486 69.292V66.478H240.338V72.876H241.486V70.258H243.348V69.292H241.486ZM249.291 67.836C251.265 67.836 252.525 68.424 252.525 69.418C252.525 70.412 251.265 70.986 249.291 70.986C247.317 70.986 246.057 70.412 246.057 69.418C246.057 68.424 247.317 67.836 249.291 67.836ZM249.291 71.91C251.979 71.91 253.701 70.986 253.701 69.418C253.701 67.85 251.979 66.912 249.291 66.912C246.603 66.912 244.881 67.85 244.881 69.418C244.881 70.986 246.603 71.91 249.291 71.91ZM246.225 75.116H245.077V78.756H253.715V77.818H246.225V75.116ZM243.607 73.086V74.01H254.961V73.086H243.607ZM269.267 74.15H270.359V66.758H269.267V69.782H267.601V70.72H269.267V74.15ZM268.091 72.246C266.775 72.512 265.655 72.568 263.877 72.568V70.818H267.027V69.922H263.877V68.298H267.517V67.374H262.771V73.492H263.569C265.571 73.492 266.747 73.45 268.189 73.156L268.091 72.246ZM264.339 75.774H271.647V79.036H272.795V74.85H264.339V75.774ZM271.689 66.492V74.262H272.795V66.492H271.689ZM284.898 72.792C282.7 72.372 280.32 70.468 280.32 68.326V67.36H279.116V68.326C279.116 70.468 276.75 72.358 274.552 72.792L275.07 73.744C276.96 73.296 278.92 71.952 279.718 70.118C280.516 71.966 282.476 73.31 284.38 73.744L284.898 72.792ZM274.076 76.404V77.356H285.458V76.404H274.076ZM296.035 73.254H288.573V71.266H295.629V70.356H288.573V68.494H295.909V67.57H287.411V74.178H296.035V73.254ZM285.941 76.474V77.412H297.337V76.474H285.941ZM298.506 67.822V68.774H303.112C302.846 71.742 301.124 74.15 297.918 75.76L298.548 76.656C302.608 74.626 304.246 71.392 304.246 67.822H298.506ZM309.51 71.574H307.494V66.478H306.346V79.036H307.494V72.526H309.51V71.574ZM326.714 66.492H325.566V73.66H326.714V66.492ZM319.966 68.172C321.212 68.172 322.136 68.998 322.136 70.146C322.136 71.308 321.212 72.12 319.966 72.12C318.72 72.12 317.824 71.308 317.824 70.146C317.824 68.998 318.72 68.172 319.966 68.172ZM319.966 73.072C321.87 73.072 323.256 71.882 323.256 70.146C323.256 68.41 321.87 67.22 319.966 67.22C318.076 67.22 316.704 68.41 316.704 70.146C316.704 71.882 318.076 73.072 319.966 73.072ZM325.314 74.206H324.194V74.878C324.194 75.858 323.592 77.118 322.388 77.86C321.226 77.174 320.652 75.984 320.652 74.878V74.206H319.546V74.878C319.546 76.082 318.608 77.44 317.026 78L317.6 78.868C318.776 78.42 319.63 77.552 320.078 76.544C320.456 77.594 321.212 78.504 322.416 78.98C323.578 78.476 324.348 77.524 324.74 76.502C325.16 77.552 326.028 78.42 327.26 78.868L327.834 78C326.238 77.468 325.314 76.18 325.314 74.878V74.206ZM338.355 70.258H330.963V66.94H329.815V71.196H338.355V70.258ZM330.879 75.06H329.731V78.728H338.425V77.79H330.879V75.06ZM328.275 72.876V73.8H339.657V72.876H328.275ZM356.049 69.726V71.406H352.759V72.344H356.049V73.996H357.211V66.492H356.049V68.788H353.207C353.291 68.354 353.347 67.892 353.347 67.43H347.677V68.354H352.101C351.891 70.524 350.029 72.19 347.033 73.086L347.495 73.996C350.197 73.212 352.101 71.742 352.913 69.726H356.049ZM353.109 78.084C351.261 78.084 350.085 77.51 350.085 76.558C350.085 75.62 351.261 75.046 353.109 75.046C354.957 75.046 356.133 75.62 356.133 76.558C356.133 77.51 354.957 78.084 353.109 78.084ZM353.109 74.136C350.575 74.136 348.951 75.046 348.951 76.558C348.951 78.07 350.575 78.98 353.109 78.98C355.643 78.98 357.267 78.07 357.267 76.558C357.267 75.046 355.643 74.136 353.109 74.136ZM364.4 67.906C366.318 67.906 367.62 68.62 367.62 69.726C367.62 70.846 366.318 71.56 364.4 71.56C362.496 71.56 361.194 70.846 361.194 69.726C361.194 68.62 362.496 67.906 364.4 67.906ZM364.4 72.484C367.018 72.484 368.796 71.42 368.796 69.726C368.796 68.046 367.018 66.982 364.4 66.982C361.796 66.982 360.018 68.046 360.018 69.726C360.018 71.42 361.796 72.484 364.4 72.484ZM370.112 73.674H358.744V74.626H363.826V79.05H364.974V74.626H370.112V73.674ZM383.763 69.4482C383.138 69.3161 382.601 69.25 382.149 69.25C381.078 69.25 380.543 69.8105 380.543 70.9316V72.1348H383.551V73.126H380.543V78H379.333V73.126H377.125V72.1348H379.333V71C379.333 69.1725 380.285 68.2588 382.19 68.2588C382.664 68.2588 383.188 68.3135 383.763 68.4229V69.4482ZM386.707 72.1211H384.677V71.1367H387.91V77.0088H389.954V78H384.451V77.0088H386.707V72.1211ZM387.124 68.2588C387.256 68.2588 387.379 68.2839 387.493 68.334C387.607 68.3796 387.705 68.4456 387.787 68.5322C387.874 68.6188 387.94 68.7191 387.985 68.833C388.035 68.9424 388.061 69.0632 388.061 69.1953C388.061 69.3229 388.035 69.4437 387.985 69.5576C387.94 69.6715 387.874 69.7718 387.787 69.8584C387.705 69.945 387.607 70.0133 387.493 70.0635C387.379 70.109 387.256 70.1318 387.124 70.1318C386.992 70.1318 386.869 70.109 386.755 70.0635C386.641 70.0133 386.541 69.945 386.454 69.8584C386.372 69.7718 386.306 69.6715 386.256 69.5576C386.21 69.4437 386.188 69.3229 386.188 69.1953C386.188 69.0632 386.21 68.9424 386.256 68.833C386.306 68.7191 386.372 68.6188 386.454 68.5322C386.541 68.4456 386.641 68.3796 386.755 68.334C386.869 68.2839 386.992 68.2588 387.124 68.2588ZM396.597 77.9043C396.328 77.9727 396.05 78.0205 395.763 78.0479C395.476 78.0798 395.184 78.0957 394.888 78.0957C394.026 78.0957 393.384 77.902 392.96 77.5146C392.536 77.1227 392.324 76.5234 392.324 75.7168V72.1348H390.403V71.1367H392.324V69.25L393.514 68.9424V71.1367H396.597V72.1348H393.514V75.6211C393.514 76.1133 393.644 76.4824 393.903 76.7285C394.168 76.9701 394.555 77.0908 395.065 77.0908C395.284 77.0908 395.523 77.0749 395.783 77.043C396.043 77.0065 396.314 76.9518 396.597 76.8789V77.9043ZM402.562 74.835H398.475V73.7139H402.562V74.835ZM409.793 77.7471C409.483 77.8656 409.164 77.9521 408.836 78.0068C408.512 78.0661 408.177 78.0957 407.831 78.0957C406.746 78.0957 405.91 77.8018 405.322 77.2139C404.739 76.626 404.447 75.7669 404.447 74.6367C404.447 74.0944 404.532 73.6022 404.7 73.1602C404.869 72.7181 405.106 72.3398 405.411 72.0254C405.716 71.7109 406.081 71.4694 406.505 71.3008C406.929 71.1276 407.396 71.041 407.906 71.041C408.262 71.041 408.594 71.0661 408.904 71.1162C409.214 71.1663 409.51 71.2484 409.793 71.3623V72.4971C409.497 72.3421 409.194 72.2305 408.884 72.1621C408.578 72.0892 408.262 72.0527 407.934 72.0527C407.628 72.0527 407.339 72.112 407.065 72.2305C406.797 72.3444 406.56 72.5107 406.354 72.7295C406.149 72.9482 405.988 73.2148 405.869 73.5293C405.751 73.8438 405.691 74.1992 405.691 74.5957C405.691 75.4251 405.892 76.0472 406.293 76.4619C406.699 76.8721 407.259 77.0771 407.975 77.0771C408.298 77.0771 408.61 77.0407 408.911 76.9678C409.216 76.8949 409.51 76.7855 409.793 76.6396V77.7471ZM417.133 74.5137C417.133 75.0469 417.058 75.5368 416.907 75.9834C416.757 76.4255 416.54 76.806 416.258 77.125C415.975 77.4395 415.631 77.6855 415.226 77.8633C414.82 78.0365 414.36 78.123 413.845 78.123C413.353 78.123 412.91 78.0479 412.519 77.8975C412.131 77.7425 411.801 77.5169 411.527 77.2207C411.258 76.9245 411.051 76.5576 410.905 76.1201C410.764 75.6826 410.693 75.179 410.693 74.6094C410.693 74.0762 410.769 73.5908 410.919 73.1533C411.069 72.7113 411.286 72.333 411.568 72.0186C411.851 71.6995 412.195 71.4535 412.601 71.2803C413.006 71.1025 413.466 71.0137 413.981 71.0137C414.474 71.0137 414.913 71.0911 415.301 71.2461C415.693 71.3965 416.023 71.6198 416.292 71.916C416.565 72.2077 416.773 72.5723 416.914 73.0098C417.06 73.4473 417.133 73.9486 417.133 74.5137ZM415.916 74.5684C415.916 74.1445 415.868 73.7754 415.772 73.4609C415.681 73.1419 415.549 72.8776 415.376 72.668C415.203 72.4538 414.991 72.2943 414.74 72.1895C414.494 72.0801 414.218 72.0254 413.913 72.0254C413.558 72.0254 413.252 72.096 412.997 72.2373C412.746 72.374 412.539 72.5586 412.375 72.791C412.215 73.0234 412.097 73.2946 412.02 73.6045C411.947 73.9098 411.91 74.2311 411.91 74.5684C411.91 74.9922 411.956 75.3636 412.047 75.6826C412.143 76.0016 412.277 76.2682 412.45 76.4824C412.623 76.6921 412.833 76.8516 413.079 76.9609C413.325 77.0658 413.603 77.1182 413.913 77.1182C414.269 77.1182 414.572 77.0498 414.822 76.9131C415.077 76.7718 415.285 76.585 415.444 76.3525C415.608 76.1201 415.727 75.8512 415.8 75.5459C415.877 75.236 415.916 74.9102 415.916 74.5684ZM417.855 71.1367H418.915L418.963 72.2441C419.163 72.0072 419.357 71.8112 419.544 71.6562C419.731 71.4967 419.913 71.3691 420.091 71.2734C420.273 71.1777 420.458 71.1117 420.645 71.0752C420.831 71.0342 421.025 71.0137 421.226 71.0137C421.932 71.0137 422.465 71.2233 422.825 71.6426C423.19 72.0573 423.372 72.6839 423.372 73.5225V78H422.183V73.6182C422.183 73.0804 422.082 72.6839 421.882 72.4287C421.681 72.1689 421.383 72.0391 420.986 72.0391C420.84 72.0391 420.697 72.0618 420.556 72.1074C420.419 72.1484 420.275 72.2236 420.125 72.333C419.975 72.4378 419.811 72.5814 419.633 72.7637C419.46 72.946 419.264 73.1738 419.045 73.4473V78H417.855V71.1367ZM430.083 77.9043C429.814 77.9727 429.536 78.0205 429.249 78.0479C428.962 78.0798 428.67 78.0957 428.374 78.0957C427.513 78.0957 426.87 77.902 426.446 77.5146C426.022 77.1227 425.811 76.5234 425.811 75.7168V72.1348H423.89V71.1367H425.811V69.25L427 68.9424V71.1367H430.083V72.1348H427V75.6211C427 76.1133 427.13 76.4824 427.39 76.7285C427.654 76.9701 428.041 77.0908 428.552 77.0908C428.771 77.0908 429.01 77.0749 429.27 77.043C429.529 77.0065 429.8 76.9518 430.083 76.8789V77.9043ZM437.047 74.2061C437.047 74.3747 437.045 74.516 437.04 74.6299C437.035 74.7438 437.029 74.8509 437.02 74.9512H432.2C432.2 75.653 432.396 76.193 432.788 76.5713C433.18 76.945 433.745 77.1318 434.483 77.1318C434.684 77.1318 434.884 77.125 435.085 77.1113C435.285 77.0931 435.479 77.0703 435.666 77.043C435.853 77.0156 436.031 76.986 436.199 76.9541C436.372 76.9176 436.532 76.8789 436.678 76.8379V77.8154C436.354 77.9066 435.987 77.9795 435.577 78.0342C435.172 78.0934 434.75 78.123 434.312 78.123C433.725 78.123 433.219 78.0433 432.795 77.8838C432.371 77.7243 432.022 77.4941 431.749 77.1934C431.48 76.888 431.28 76.5166 431.147 76.0791C431.02 75.637 430.956 75.138 430.956 74.582C430.956 74.099 431.024 73.6432 431.161 73.2148C431.302 72.7819 431.505 72.4036 431.77 72.0801C432.038 71.752 432.367 71.4922 432.754 71.3008C433.141 71.1094 433.581 71.0137 434.073 71.0137C434.552 71.0137 434.976 71.0889 435.345 71.2393C435.714 71.3896 436.024 71.6038 436.274 71.8818C436.53 72.1553 436.721 72.4902 436.849 72.8867C436.981 73.2786 437.047 73.7184 437.047 74.2061ZM435.81 74.0352C435.823 73.7298 435.794 73.4518 435.721 73.2012C435.648 72.946 435.534 72.7272 435.379 72.5449C435.229 72.3626 435.039 72.2214 434.812 72.1211C434.584 72.0163 434.319 71.9639 434.019 71.9639C433.759 71.9639 433.522 72.014 433.308 72.1143C433.093 72.2145 432.909 72.3558 432.754 72.5381C432.599 72.7204 432.474 72.9391 432.378 73.1943C432.282 73.4495 432.223 73.7298 432.2 74.0352H435.81ZM437.947 71.1367H439.007L439.055 72.2441C439.255 72.0072 439.449 71.8112 439.636 71.6562C439.823 71.4967 440.005 71.3691 440.183 71.2734C440.365 71.1777 440.549 71.1117 440.736 71.0752C440.923 71.0342 441.117 71.0137 441.317 71.0137C442.024 71.0137 442.557 71.2233 442.917 71.6426C443.282 72.0573 443.464 72.6839 443.464 73.5225V78H442.274V73.6182C442.274 73.0804 442.174 72.6839 441.974 72.4287C441.773 72.1689 441.475 72.0391 441.078 72.0391C440.932 72.0391 440.789 72.0618 440.647 72.1074C440.511 72.1484 440.367 72.2236 440.217 72.333C440.066 72.4378 439.902 72.5814 439.725 72.7637C439.551 72.946 439.355 73.1738 439.137 73.4473V78H437.947V71.1367ZM450.175 77.9043C449.906 77.9727 449.628 78.0205 449.341 78.0479C449.054 78.0798 448.762 78.0957 448.466 78.0957C447.604 78.0957 446.962 77.902 446.538 77.5146C446.114 77.1227 445.902 76.5234 445.902 75.7168V72.1348H443.981V71.1367H445.902V69.25L447.092 68.9424V71.1367H450.175V72.1348H447.092V75.6211C447.092 76.1133 447.222 76.4824 447.481 76.7285C447.746 76.9701 448.133 77.0908 448.644 77.0908C448.862 77.0908 449.102 77.0749 449.361 77.043C449.621 77.0065 449.892 76.9518 450.175 76.8789V77.9043ZM457.248 76.544V74.178H461.266V73.254H453.538V71.224H460.972V67.402H452.376V68.34H459.852V70.3H452.404V74.178H456.086V76.544H450.976V77.482H462.386V76.544H457.248ZM476.272 69.74V70.678H478.75V73.968H479.912V66.492H478.75V69.74H476.272ZM476.972 72.596C475.152 71.952 473.92 70.37 473.92 68.76V68.326H476.678V67.402H469.972V68.326H472.772V68.76C472.772 70.566 471.484 72.26 469.608 72.946L470.21 73.856C471.68 73.296 472.842 72.12 473.374 70.664C473.92 71.952 474.998 72.988 476.398 73.492L476.972 72.596ZM475.768 78.14C473.878 78.14 472.73 77.608 472.73 76.698C472.73 75.788 473.878 75.242 475.768 75.242C477.658 75.242 478.806 75.788 478.806 76.698C478.806 77.608 477.658 78.14 475.768 78.14ZM475.768 74.36C473.192 74.36 471.582 75.214 471.582 76.698C471.582 78.182 473.192 79.036 475.768 79.036C478.344 79.036 479.954 78.182 479.954 76.698C479.954 75.214 478.344 74.36 475.768 74.36ZM485.519 67.402C483.573 67.402 482.159 68.592 482.159 70.356C482.159 72.106 483.573 73.31 485.519 73.31C487.479 73.31 488.879 72.106 488.879 70.356C488.879 68.592 487.479 67.402 485.519 67.402ZM485.519 68.382C486.821 68.382 487.759 69.18 487.759 70.356C487.759 71.518 486.821 72.33 485.519 72.33C484.231 72.33 483.279 71.518 483.279 70.356C483.279 69.18 484.231 68.382 485.519 68.382ZM490.531 66.478V79.064H491.679V66.478H490.531ZM481.669 76.306C483.937 76.306 486.975 76.278 489.803 75.76L489.705 74.906C486.961 75.326 483.811 75.34 481.529 75.34L481.669 76.306ZM500.772 68.018H497.636V66.478H496.488V68.018H493.366V68.942H500.772V68.018ZM495.158 71.966C495.158 71.098 495.928 70.538 497.062 70.538C498.196 70.538 498.98 71.098 498.98 71.966C498.98 72.848 498.196 73.408 497.062 73.408C495.928 73.408 495.158 72.848 495.158 71.966ZM500.072 71.966C500.072 70.566 498.84 69.642 497.062 69.642C495.284 69.642 494.066 70.566 494.066 71.966C494.066 73.38 495.284 74.304 497.062 74.304C498.84 74.304 500.072 73.38 500.072 71.966ZM496.404 75.158H495.256V78.756H503.628V77.818H496.404V75.158ZM503.068 70.622V66.478H501.92V75.9H503.068V71.588H504.916V70.622H503.068ZM232.778 97.574L232.946 98.526L240.52 98.106C240.45 99.072 240.31 100.108 240.03 101.312L241.164 101.424C241.71 98.848 241.71 97.154 241.71 95.292V93.752H233.1V94.69H240.59V95.292C240.59 95.936 240.59 96.58 240.562 97.238L232.778 97.574ZM231.756 102.348V103.286H243.11V102.348H231.756ZM244.363 93.836V94.76H249.081C248.843 97.742 247.163 100.15 243.789 101.76L244.405 102.698C248.577 100.654 250.243 97.462 250.243 93.836H244.363ZM252.777 92.478V105.036H253.925V92.478H252.777ZM256.172 93.822V94.774H260.778C260.512 97.742 258.79 100.15 255.584 101.76L256.214 102.656C260.274 100.626 261.912 97.392 261.912 93.822H256.172ZM267.176 97.574H265.16V92.478H264.012V105.036H265.16V98.526H267.176V97.574ZM284.674 92.492H283.568V99.184H284.674V92.492ZM281.118 99.058H282.196V92.73H281.118V94.844H279.2V95.782H281.118V99.058ZM280.25 97.826C278.696 97.196 277.8 95.768 277.8 94.34V92.996H276.68V94.284C276.68 95.782 275.714 97.462 274.09 98.204L274.72 99.058C275.924 98.498 276.806 97.42 277.24 96.202C277.66 97.28 278.472 98.204 279.634 98.694L280.25 97.826ZM277.548 103.986V102.67H284.674V99.744H276.386V100.654H283.54V101.816H276.414V104.896H285.15V103.986H277.548ZM290.029 93.402C288.083 93.402 286.669 94.592 286.669 96.356C286.669 98.106 288.083 99.31 290.029 99.31C291.989 99.31 293.389 98.106 293.389 96.356C293.389 94.592 291.989 93.402 290.029 93.402ZM290.029 94.382C291.331 94.382 292.269 95.18 292.269 96.356C292.269 97.518 291.331 98.33 290.029 98.33C288.741 98.33 287.789 97.518 287.789 96.356C287.789 95.18 288.741 94.382 290.029 94.382ZM295.041 92.478V105.064H296.189V92.478H295.041ZM286.179 102.306C288.447 102.306 291.485 102.278 294.313 101.76L294.215 100.906C291.471 101.326 288.321 101.34 286.039 101.34L286.179 102.306ZM305.511 99.534C307.009 99.058 308.171 98.064 308.717 96.748C309.291 97.994 310.439 98.946 311.923 99.394L312.455 98.512C310.621 97.966 309.305 96.636 309.277 95.04H312.175V94.116H309.277V92.562H308.129V94.116H305.273V95.04H308.129C308.101 96.692 306.827 98.078 304.979 98.638L305.511 99.534ZM309.277 99.114H308.129V101.452C306.855 101.494 305.637 101.494 304.601 101.494L304.755 102.46C306.995 102.446 310.075 102.432 312.889 101.914L312.791 101.06C311.671 101.242 310.453 101.326 309.277 101.396V99.114ZM313.617 92.478V105.05H314.765V92.478H313.617ZM317.992 94.942H321.534V94.004H316.858V101.942H317.684C319.56 101.942 320.834 101.886 322.332 101.564L322.234 100.612C320.862 100.906 319.672 100.976 317.992 100.99V94.942ZM325.972 92.478V97.518H324.194V92.758H323.116V104.406H324.194V98.456H325.972V105.036H327.078V92.478H325.972ZM336.022 97.574L336.19 98.526L343.764 98.106C343.694 99.072 343.554 100.108 343.274 101.312L344.408 101.424C344.954 98.848 344.954 97.154 344.954 95.292V93.752H336.344V94.69H343.834V95.292C343.834 95.936 343.834 96.58 343.806 97.238L336.022 97.574ZM335 102.348V103.286H346.354V102.348H335ZM347.607 93.836V94.76H352.325C352.087 97.742 350.407 100.15 347.033 101.76L347.649 102.698C351.821 100.654 353.487 97.462 353.487 93.836H347.607ZM356.021 92.478V105.036H357.169V92.478H356.021ZM359.416 93.822V94.774H364.022C363.756 97.742 362.034 100.15 358.828 101.76L359.458 102.656C363.518 100.626 365.156 97.392 365.156 93.822H359.416ZM370.42 97.574H368.404V92.478H367.256V105.036H368.404V98.526H370.42V97.574ZM385.454 98.064C384.362 98.232 383.214 98.316 382.052 98.386V97.084H384.53V96.146H379.63V94.046H384.404V93.108H378.496V97.084H380.904V98.428C379.644 98.484 378.412 98.484 377.362 98.484L377.53 99.408C379.784 99.394 382.794 99.352 385.524 98.89L385.454 98.064ZM386.49 103.944H380.54V102.488H386.49V103.944ZM386.49 101.592H380.54V100.276H379.392V104.868H387.624V100.276H386.49V101.592ZM386.476 92.492V99.716H387.624V92.492H386.476ZM391.131 93.696H389.983V101.788H391.019C393.021 101.788 394.995 101.648 397.179 101.2L397.053 100.22C394.967 100.64 393.021 100.808 391.131 100.808V93.696ZM398.341 92.478V105.022H399.489V92.478H398.341ZM402.758 94.634H407.448V93.682H401.61V101.928H402.604C404.97 101.928 406.622 101.844 408.54 101.48L408.414 100.528C406.594 100.85 404.984 100.948 402.758 100.948V94.634ZM412.81 97.434H410.738V92.478H409.59V105.064H410.738V98.386H412.81V97.434ZM416.009 101.847C416.164 101.847 416.31 101.876 416.446 101.936C416.588 101.995 416.708 102.077 416.809 102.182C416.913 102.286 416.995 102.41 417.055 102.551C417.114 102.688 417.144 102.836 417.144 102.995C417.144 103.15 417.114 103.296 417.055 103.433C416.995 103.569 416.913 103.69 416.809 103.795C416.708 103.895 416.588 103.975 416.446 104.034C416.31 104.093 416.164 104.123 416.009 104.123C415.849 104.123 415.701 104.093 415.564 104.034C415.428 103.975 415.307 103.895 415.202 103.795C415.102 103.69 415.022 103.569 414.963 103.433C414.904 103.296 414.874 103.15 414.874 102.995C414.874 102.836 414.904 102.688 414.963 102.551C415.022 102.41 415.102 102.286 415.202 102.182C415.307 102.077 415.428 101.995 415.564 101.936C415.701 101.876 415.849 101.847 416.009 101.847ZM238.185 121.448C237.56 121.316 237.022 121.25 236.571 121.25C235.5 121.25 234.965 121.811 234.965 122.932V124.135H237.973V125.126H234.965V130H233.755V125.126H231.547V124.135H233.755V123C233.755 121.173 234.707 120.259 236.612 120.259C237.086 120.259 237.61 120.313 238.185 120.423V121.448ZM241.129 124.121H239.099V123.137H242.332V129.009H244.376V130H238.873V129.009H241.129V124.121ZM241.546 120.259C241.678 120.259 241.801 120.284 241.915 120.334C242.029 120.38 242.127 120.446 242.209 120.532C242.296 120.619 242.362 120.719 242.407 120.833C242.457 120.942 242.482 121.063 242.482 121.195C242.482 121.323 242.457 121.444 242.407 121.558C242.362 121.672 242.296 121.772 242.209 121.858C242.127 121.945 242.029 122.013 241.915 122.063C241.801 122.109 241.678 122.132 241.546 122.132C241.414 122.132 241.291 122.109 241.177 122.063C241.063 122.013 240.963 121.945 240.876 121.858C240.794 121.772 240.728 121.672 240.678 121.558C240.632 121.444 240.609 121.323 240.609 121.195C240.609 121.063 240.632 120.942 240.678 120.833C240.728 120.719 240.794 120.619 240.876 120.532C240.963 120.446 241.063 120.38 241.177 120.334C241.291 120.284 241.414 120.259 241.546 120.259ZM251.019 129.904C250.75 129.973 250.472 130.021 250.185 130.048C249.897 130.08 249.606 130.096 249.31 130.096C248.448 130.096 247.806 129.902 247.382 129.515C246.958 129.123 246.746 128.523 246.746 127.717V124.135H244.825V123.137H246.746V121.25L247.936 120.942V123.137H251.019V124.135H247.936V127.621C247.936 128.113 248.065 128.482 248.325 128.729C248.59 128.97 248.977 129.091 249.487 129.091C249.706 129.091 249.945 129.075 250.205 129.043C250.465 129.007 250.736 128.952 251.019 128.879V129.904ZM256.984 126.835H252.896V125.714H256.984V126.835ZM264.215 129.747C263.905 129.866 263.586 129.952 263.258 130.007C262.934 130.066 262.599 130.096 262.253 130.096C261.168 130.096 260.332 129.802 259.744 129.214C259.161 128.626 258.869 127.767 258.869 126.637C258.869 126.094 258.953 125.602 259.122 125.16C259.291 124.718 259.528 124.34 259.833 124.025C260.138 123.711 260.503 123.469 260.927 123.301C261.351 123.128 261.818 123.041 262.328 123.041C262.684 123.041 263.016 123.066 263.326 123.116C263.636 123.166 263.932 123.248 264.215 123.362V124.497C263.919 124.342 263.616 124.23 263.306 124.162C263 124.089 262.684 124.053 262.355 124.053C262.05 124.053 261.761 124.112 261.487 124.23C261.218 124.344 260.981 124.511 260.776 124.729C260.571 124.948 260.41 125.215 260.291 125.529C260.173 125.844 260.113 126.199 260.113 126.596C260.113 127.425 260.314 128.047 260.715 128.462C261.12 128.872 261.681 129.077 262.396 129.077C262.72 129.077 263.032 129.041 263.333 128.968C263.638 128.895 263.932 128.785 264.215 128.64V129.747ZM271.555 126.514C271.555 127.047 271.479 127.537 271.329 127.983C271.179 128.425 270.962 128.806 270.68 129.125C270.397 129.439 270.053 129.686 269.647 129.863C269.242 130.036 268.782 130.123 268.267 130.123C267.774 130.123 267.332 130.048 266.94 129.897C266.553 129.743 266.223 129.517 265.949 129.221C265.68 128.924 265.473 128.558 265.327 128.12C265.186 127.683 265.115 127.179 265.115 126.609C265.115 126.076 265.19 125.591 265.341 125.153C265.491 124.711 265.708 124.333 265.99 124.019C266.273 123.7 266.617 123.453 267.022 123.28C267.428 123.103 267.888 123.014 268.403 123.014C268.896 123.014 269.335 123.091 269.723 123.246C270.115 123.396 270.445 123.62 270.714 123.916C270.987 124.208 271.195 124.572 271.336 125.01C271.482 125.447 271.555 125.949 271.555 126.514ZM270.338 126.568C270.338 126.145 270.29 125.775 270.194 125.461C270.103 125.142 269.971 124.878 269.798 124.668C269.625 124.454 269.413 124.294 269.162 124.189C268.916 124.08 268.64 124.025 268.335 124.025C267.979 124.025 267.674 124.096 267.419 124.237C267.168 124.374 266.961 124.559 266.797 124.791C266.637 125.023 266.519 125.295 266.441 125.604C266.368 125.91 266.332 126.231 266.332 126.568C266.332 126.992 266.378 127.364 266.469 127.683C266.564 128.002 266.699 128.268 266.872 128.482C267.045 128.692 267.255 128.852 267.501 128.961C267.747 129.066 268.025 129.118 268.335 129.118C268.69 129.118 268.993 129.05 269.244 128.913C269.499 128.772 269.707 128.585 269.866 128.353C270.03 128.12 270.149 127.851 270.222 127.546C270.299 127.236 270.338 126.91 270.338 126.568ZM272.277 123.137H273.337L273.385 124.244C273.585 124.007 273.779 123.811 273.966 123.656C274.153 123.497 274.335 123.369 274.513 123.273C274.695 123.178 274.88 123.112 275.066 123.075C275.253 123.034 275.447 123.014 275.647 123.014C276.354 123.014 276.887 123.223 277.247 123.643C277.612 124.057 277.794 124.684 277.794 125.522V130H276.604V125.618C276.604 125.08 276.504 124.684 276.304 124.429C276.103 124.169 275.805 124.039 275.408 124.039C275.262 124.039 275.119 124.062 274.978 124.107C274.841 124.148 274.697 124.224 274.547 124.333C274.396 124.438 274.232 124.581 274.055 124.764C273.882 124.946 273.686 125.174 273.467 125.447V130H272.277V123.137ZM284.505 129.904C284.236 129.973 283.958 130.021 283.671 130.048C283.384 130.08 283.092 130.096 282.796 130.096C281.935 130.096 281.292 129.902 280.868 129.515C280.444 129.123 280.232 128.523 280.232 127.717V124.135H278.312V123.137H280.232V121.25L281.422 120.942V123.137H284.505V124.135H281.422V127.621C281.422 128.113 281.552 128.482 281.812 128.729C282.076 128.97 282.463 129.091 282.974 129.091C283.192 129.091 283.432 129.075 283.691 129.043C283.951 129.007 284.222 128.952 284.505 128.879V129.904ZM291.469 126.206C291.469 126.375 291.466 126.516 291.462 126.63C291.457 126.744 291.451 126.851 291.441 126.951H286.622C286.622 127.653 286.818 128.193 287.21 128.571C287.602 128.945 288.167 129.132 288.905 129.132C289.106 129.132 289.306 129.125 289.507 129.111C289.707 129.093 289.901 129.07 290.088 129.043C290.275 129.016 290.452 128.986 290.621 128.954C290.794 128.918 290.954 128.879 291.1 128.838V129.815C290.776 129.907 290.409 129.979 289.999 130.034C289.593 130.093 289.172 130.123 288.734 130.123C288.146 130.123 287.641 130.043 287.217 129.884C286.793 129.724 286.444 129.494 286.171 129.193C285.902 128.888 285.701 128.517 285.569 128.079C285.442 127.637 285.378 127.138 285.378 126.582C285.378 126.099 285.446 125.643 285.583 125.215C285.724 124.782 285.927 124.404 286.191 124.08C286.46 123.752 286.788 123.492 287.176 123.301C287.563 123.109 288.003 123.014 288.495 123.014C288.974 123.014 289.397 123.089 289.767 123.239C290.136 123.39 290.446 123.604 290.696 123.882C290.951 124.155 291.143 124.49 291.271 124.887C291.403 125.279 291.469 125.718 291.469 126.206ZM290.231 126.035C290.245 125.73 290.215 125.452 290.143 125.201C290.07 124.946 289.956 124.727 289.801 124.545C289.65 124.363 289.461 124.221 289.233 124.121C289.006 124.016 288.741 123.964 288.44 123.964C288.181 123.964 287.944 124.014 287.729 124.114C287.515 124.215 287.331 124.356 287.176 124.538C287.021 124.72 286.896 124.939 286.8 125.194C286.704 125.45 286.645 125.73 286.622 126.035H290.231ZM292.369 123.137H293.429L293.477 124.244C293.677 124.007 293.871 123.811 294.058 123.656C294.244 123.497 294.427 123.369 294.604 123.273C294.787 123.178 294.971 123.112 295.158 123.075C295.345 123.034 295.539 123.014 295.739 123.014C296.446 123.014 296.979 123.223 297.339 123.643C297.703 124.057 297.886 124.684 297.886 125.522V130H296.696V125.618C296.696 125.08 296.596 124.684 296.396 124.429C296.195 124.169 295.896 124.039 295.5 124.039C295.354 124.039 295.211 124.062 295.069 124.107C294.933 124.148 294.789 124.224 294.639 124.333C294.488 124.438 294.324 124.581 294.146 124.764C293.973 124.946 293.777 125.174 293.559 125.447V130H292.369V123.137ZM304.597 129.904C304.328 129.973 304.05 130.021 303.763 130.048C303.476 130.08 303.184 130.096 302.888 130.096C302.026 130.096 301.384 129.902 300.96 129.515C300.536 129.123 300.324 128.523 300.324 127.717V124.135H298.403V123.137H300.324V121.25L301.514 120.942V123.137H304.597V124.135H301.514V127.621C301.514 128.113 301.644 128.482 301.903 128.729C302.168 128.97 302.555 129.091 303.065 129.091C303.284 129.091 303.523 129.075 303.783 129.043C304.043 129.007 304.314 128.952 304.597 128.879V129.904ZM309.872 132.871C307.771 130.925 306.721 128.774 306.721 126.418C306.721 125.867 306.775 125.317 306.885 124.771C306.999 124.219 307.179 123.668 307.425 123.116C307.675 122.565 308.004 122.013 308.409 121.462C308.819 120.91 309.316 120.364 309.899 119.821L310.59 120.525C308.822 122.271 307.938 124.205 307.938 126.329C307.938 127.386 308.161 128.403 308.607 129.378C309.054 130.353 309.715 131.274 310.59 132.14L309.872 132.871ZM318.087 127.286C318.087 127.678 318.007 128.047 317.848 128.394C317.688 128.735 317.449 129.036 317.13 129.296C316.811 129.551 316.41 129.754 315.927 129.904C315.444 130.05 314.881 130.123 314.238 130.123C313.883 130.123 313.564 130.112 313.281 130.089C312.999 130.066 312.734 130.036 312.488 130V128.934C312.771 128.984 313.069 129.022 313.384 129.05C313.698 129.077 314.02 129.091 314.348 129.091C314.794 129.091 315.175 129.052 315.489 128.975C315.808 128.893 316.068 128.776 316.269 128.626C316.469 128.476 316.615 128.293 316.706 128.079C316.797 127.865 316.843 127.623 316.843 127.354C316.843 127.108 316.788 126.894 316.679 126.712C316.569 126.53 316.414 126.377 316.214 126.254C316.018 126.131 315.781 126.04 315.503 125.98C315.229 125.917 314.929 125.885 314.601 125.885H313.582V124.907H314.614C314.883 124.907 315.127 124.873 315.346 124.805C315.569 124.732 315.758 124.629 315.913 124.497C316.073 124.365 316.193 124.203 316.275 124.012C316.362 123.816 316.405 123.595 316.405 123.349C316.405 122.87 316.259 122.521 315.968 122.303C315.676 122.084 315.248 121.975 314.683 121.975C314.382 121.975 314.072 122.004 313.753 122.063C313.434 122.123 313.092 122.212 312.728 122.33V121.291C312.882 121.236 313.047 121.188 313.22 121.147C313.397 121.102 313.573 121.065 313.746 121.038C313.924 121.006 314.099 120.983 314.272 120.97C314.446 120.951 314.612 120.942 314.771 120.942C315.245 120.942 315.662 120.995 316.022 121.1C316.382 121.2 316.683 121.346 316.925 121.537C317.166 121.729 317.349 121.961 317.472 122.234C317.595 122.508 317.656 122.815 317.656 123.157C317.656 123.668 317.524 124.096 317.26 124.442C317 124.789 316.642 125.064 316.187 125.27C316.419 125.306 316.647 125.379 316.87 125.488C317.098 125.598 317.301 125.739 317.479 125.912C317.661 126.081 317.807 126.281 317.916 126.514C318.03 126.746 318.087 127.004 318.087 127.286ZM325.16 125.536C325.16 126.22 325.092 126.844 324.955 127.409C324.818 127.97 324.611 128.453 324.333 128.858C324.055 129.259 323.709 129.572 323.294 129.795C322.884 130.014 322.401 130.123 321.845 130.123C321.366 130.123 320.931 130.034 320.539 129.856C320.147 129.674 319.812 129.396 319.534 129.022C319.256 128.649 319.042 128.173 318.892 127.594C318.741 127.015 318.666 126.329 318.666 125.536C318.666 124.853 318.734 124.228 318.871 123.663C319.012 123.098 319.22 122.615 319.493 122.214C319.771 121.808 320.118 121.496 320.532 121.277C320.947 121.054 321.43 120.942 321.981 120.942C322.46 120.942 322.895 121.034 323.287 121.216C323.679 121.394 324.014 121.672 324.292 122.05C324.57 122.424 324.784 122.9 324.935 123.479C325.085 124.057 325.16 124.743 325.16 125.536ZM323.957 125.577C323.957 125.422 323.95 125.27 323.937 125.119C323.927 124.964 323.916 124.814 323.902 124.668L320.122 127.478C320.19 127.715 320.277 127.933 320.382 128.134C320.487 128.334 320.612 128.507 320.758 128.653C320.908 128.795 321.077 128.906 321.264 128.988C321.455 129.066 321.672 129.104 321.913 129.104C322.223 129.104 322.503 129.029 322.754 128.879C323.009 128.729 323.226 128.505 323.403 128.209C323.581 127.913 323.718 127.546 323.813 127.108C323.909 126.666 323.957 126.156 323.957 125.577ZM319.869 125.495C319.869 125.636 319.869 125.778 319.869 125.919C319.874 126.06 319.883 126.197 319.896 126.329L323.677 123.533C323.608 123.301 323.522 123.089 323.417 122.897C323.312 122.706 323.187 122.542 323.041 122.405C322.895 122.264 322.729 122.155 322.542 122.077C322.355 122 322.146 121.961 321.913 121.961C321.603 121.961 321.321 122.036 321.065 122.187C320.815 122.337 320.601 122.562 320.423 122.863C320.245 123.16 320.108 123.529 320.013 123.971C319.917 124.408 319.869 124.916 319.869 125.495ZM331.857 125.536C331.857 126.22 331.789 126.844 331.652 127.409C331.516 127.97 331.308 128.453 331.03 128.858C330.752 129.259 330.406 129.572 329.991 129.795C329.581 130.014 329.098 130.123 328.542 130.123C328.063 130.123 327.628 130.034 327.236 129.856C326.844 129.674 326.509 129.396 326.231 129.022C325.953 128.649 325.739 128.173 325.589 127.594C325.438 127.015 325.363 126.329 325.363 125.536C325.363 124.853 325.432 124.228 325.568 123.663C325.71 123.098 325.917 122.615 326.19 122.214C326.468 121.808 326.815 121.496 327.229 121.277C327.644 121.054 328.127 120.942 328.679 120.942C329.157 120.942 329.592 121.034 329.984 121.216C330.376 121.394 330.711 121.672 330.989 122.05C331.267 122.424 331.481 122.9 331.632 123.479C331.782 124.057 331.857 124.743 331.857 125.536ZM330.654 125.577C330.654 125.422 330.647 125.27 330.634 125.119C330.625 124.964 330.613 124.814 330.6 124.668L326.819 127.478C326.888 127.715 326.974 127.933 327.079 128.134C327.184 128.334 327.309 128.507 327.455 128.653C327.605 128.795 327.774 128.906 327.961 128.988C328.152 129.066 328.369 129.104 328.61 129.104C328.92 129.104 329.201 129.029 329.451 128.879C329.706 128.729 329.923 128.505 330.101 128.209C330.278 127.913 330.415 127.546 330.511 127.108C330.606 126.666 330.654 126.156 330.654 125.577ZM326.566 125.495C326.566 125.636 326.566 125.778 326.566 125.919C326.571 126.06 326.58 126.197 326.594 126.329L330.374 123.533C330.306 123.301 330.219 123.089 330.114 122.897C330.009 122.706 329.884 122.542 329.738 122.405C329.592 122.264 329.426 122.155 329.239 122.077C329.052 122 328.843 121.961 328.61 121.961C328.3 121.961 328.018 122.036 327.763 122.187C327.512 122.337 327.298 122.562 327.12 122.863C326.942 123.16 326.806 123.529 326.71 123.971C326.614 124.408 326.566 124.916 326.566 125.495ZM338.418 126.445C338.418 127.056 338.331 127.589 338.158 128.045C337.99 128.501 337.755 128.879 337.454 129.18C337.153 129.48 336.798 129.706 336.388 129.856C335.978 130.007 335.533 130.082 335.055 130.082C334.836 130.082 334.617 130.071 334.398 130.048C334.184 130.025 333.965 129.986 333.742 129.932V132.803H332.553V123.137H333.612L333.688 124.285C334.029 123.816 334.394 123.488 334.781 123.301C335.169 123.109 335.588 123.014 336.039 123.014C336.431 123.014 336.775 123.096 337.071 123.26C337.368 123.424 337.616 123.656 337.816 123.957C338.017 124.253 338.167 124.613 338.268 125.037C338.368 125.456 338.418 125.926 338.418 126.445ZM337.201 126.5C337.201 126.14 337.174 125.81 337.119 125.509C337.069 125.208 336.987 124.951 336.873 124.736C336.759 124.522 336.613 124.356 336.436 124.237C336.258 124.114 336.046 124.053 335.8 124.053C335.649 124.053 335.497 124.078 335.342 124.128C335.187 124.174 335.025 124.253 334.856 124.367C334.692 124.477 334.517 124.625 334.33 124.812C334.148 124.994 333.952 125.222 333.742 125.495V128.824C333.961 128.915 334.191 128.988 334.433 129.043C334.674 129.093 334.911 129.118 335.144 129.118C335.786 129.118 336.29 128.902 336.654 128.469C337.019 128.031 337.201 127.375 337.201 126.5ZM345.437 130H343.857L342.005 127.382L340.173 130H338.635L341.294 126.555L338.758 123.137H340.282L342.087 125.775L343.857 123.137H345.327L342.75 126.582L345.437 130ZM347.349 119.821C349.45 121.767 350.5 123.932 350.5 126.315C350.5 126.808 350.45 127.318 350.35 127.847C350.249 128.375 350.078 128.918 349.837 129.474C349.595 130.025 349.27 130.586 348.859 131.155C348.454 131.725 347.941 132.297 347.321 132.871L346.631 132.167C347.52 131.287 348.183 130.369 348.62 129.412C349.058 128.455 349.276 127.452 349.276 126.404C349.276 124.235 348.395 122.285 346.631 120.553L347.349 119.821Z" fill="white"/>
<path d="M77.9048 11.4429C77.9048 10.0483 78.2313 8.93604 78.8843 8.10596C79.5428 7.27035 80.4144 6.85254 81.499 6.85254C82.5228 6.85254 83.328 7.20947 83.9146 7.92334L84.0059 7.01855H85.8237V15.7261C85.8237 16.9048 85.4557 17.8345 84.7197 18.5151C83.9893 19.1958 83.0015 19.5361 81.7563 19.5361C81.0978 19.5361 80.4531 19.3978 79.8223 19.1211C79.1969 18.8499 78.721 18.493 78.3945 18.0503L79.3491 16.8384C79.9689 17.5744 80.7326 17.9424 81.6401 17.9424C82.3097 17.9424 82.8382 17.7598 83.2256 17.3945C83.613 17.0348 83.8066 16.5036 83.8066 15.8008V15.1948C83.2256 15.8423 82.4508 16.166 81.4824 16.166C80.431 16.166 79.5705 15.7482 78.9009 14.9126C78.2368 14.077 77.9048 12.9204 77.9048 11.4429ZM79.9136 11.6172C79.9136 12.5192 80.0962 13.2303 80.4614 13.7505C80.8322 14.2651 81.3441 14.5225 81.9971 14.5225C82.8105 14.5225 83.4137 14.1738 83.8066 13.4766V9.52539C83.4248 8.84473 82.8271 8.50439 82.0137 8.50439C81.3496 8.50439 80.8322 8.76725 80.4614 9.29297C80.0962 9.81868 79.9136 10.5934 79.9136 11.6172ZM92.6055 8.86133C92.3398 8.81706 92.0659 8.79492 91.7837 8.79492C90.8595 8.79492 90.237 9.14909 89.916 9.85742V16H87.8989V7.01855H89.8247L89.8745 8.02295C90.3615 7.24268 91.0366 6.85254 91.8999 6.85254C92.1877 6.85254 92.4256 6.89128 92.6138 6.96875L92.6055 8.86133ZM96.0254 16H94.0083V7.01855H96.0254V16ZM93.8838 4.68604C93.8838 4.37614 93.9806 4.11882 94.1743 3.91406C94.3735 3.70931 94.6558 3.60693 95.021 3.60693C95.3862 3.60693 95.6685 3.70931 95.8677 3.91406C96.0669 4.11882 96.1665 4.37614 96.1665 4.68604C96.1665 4.9904 96.0669 5.24495 95.8677 5.44971C95.6685 5.64893 95.3862 5.74854 95.021 5.74854C94.6558 5.74854 94.3735 5.64893 94.1743 5.44971C93.9806 5.24495 93.8838 4.9904 93.8838 4.68604ZM97.8516 11.4429C97.8516 10.0594 98.1725 8.94987 98.8145 8.11426C99.4564 7.27311 100.317 6.85254 101.396 6.85254C102.348 6.85254 103.117 7.18457 103.704 7.84863V3.25H105.721V16H103.895L103.795 15.0703C103.192 15.8008 102.387 16.166 101.379 16.166C100.328 16.166 99.4757 15.7427 98.8228 14.896C98.1753 14.0493 97.8516 12.8983 97.8516 11.4429ZM99.8687 11.6172C99.8687 12.5303 100.043 13.2441 100.392 13.7588C100.746 14.2679 101.247 14.5225 101.894 14.5225C102.719 14.5225 103.322 14.1545 103.704 13.4185V9.5835C103.333 8.8641 102.735 8.50439 101.911 8.50439C101.258 8.50439 100.754 8.76449 100.4 9.28467C100.046 9.79932 99.8687 10.5768 99.8687 11.6172ZM111.739 11.6753H107.381V10.0483H111.739V11.6753ZM115.931 4.83545V7.01855H117.516V8.5127H115.931V13.5264C115.931 13.8695 115.997 14.1185 116.13 14.2734C116.268 14.4229 116.512 14.4976 116.86 14.4976C117.093 14.4976 117.328 14.4699 117.566 14.4146V15.9751C117.107 16.1024 116.664 16.166 116.238 16.166C114.688 16.166 113.914 15.311 113.914 13.6011V8.5127H112.436V7.01855H113.914V4.83545H115.931ZM123.02 16.166C121.741 16.166 120.704 15.7648 119.907 14.9624C119.115 14.1545 118.72 13.0809 118.72 11.7417V11.4927C118.72 10.5962 118.891 9.79655 119.234 9.09375C119.583 8.38542 120.07 7.8348 120.695 7.44189C121.321 7.04899 122.018 6.85254 122.787 6.85254C124.01 6.85254 124.954 7.24268 125.618 8.02295C126.287 8.80322 126.622 9.90723 126.622 11.335V12.1484H120.753C120.814 12.89 121.061 13.4766 121.492 13.9082C121.929 14.3398 122.477 14.5557 123.136 14.5557C124.06 14.5557 124.812 14.1821 125.394 13.4351L126.481 14.4727C126.121 15.0094 125.64 15.4272 125.037 15.7261C124.439 16.0194 123.767 16.166 123.02 16.166ZM122.779 8.47119C122.225 8.47119 121.777 8.66488 121.434 9.05225C121.097 9.43962 120.881 9.97917 120.787 10.6709H124.63V10.5215C124.586 9.84635 124.406 9.33724 124.09 8.99414C123.775 8.64551 123.338 8.47119 122.779 8.47119ZM130.092 7.01855L130.15 7.95654C130.781 7.22054 131.644 6.85254 132.74 6.85254C133.941 6.85254 134.762 7.31185 135.205 8.23047C135.858 7.31185 136.777 6.85254 137.961 6.85254C138.951 6.85254 139.688 7.12646 140.169 7.67432C140.656 8.22217 140.905 9.03011 140.916 10.0981V16H138.899V10.1562C138.899 9.58626 138.774 9.16846 138.525 8.90283C138.276 8.63721 137.864 8.50439 137.289 8.50439C136.829 8.50439 136.453 8.62891 136.16 8.87793C135.872 9.12142 135.67 9.44238 135.554 9.84082L135.562 16H133.545V10.0898C133.517 9.03288 132.978 8.50439 131.926 8.50439C131.118 8.50439 130.546 8.83366 130.208 9.49219V16H128.191V7.01855H130.092ZM150.852 11.6006C150.852 12.9896 150.537 14.0991 149.906 14.9292C149.275 15.7537 148.428 16.166 147.366 16.166C146.381 16.166 145.592 15.8423 145 15.1948V19.4531H142.983V7.01855H144.842L144.925 7.93164C145.517 7.21224 146.323 6.85254 147.341 6.85254C148.437 6.85254 149.294 7.26204 149.914 8.08105C150.539 8.89453 150.852 10.0262 150.852 11.4761V11.6006ZM148.843 11.4263C148.843 10.5298 148.663 9.81868 148.304 9.29297C147.95 8.76725 147.44 8.50439 146.776 8.50439C145.952 8.50439 145.36 8.84473 145 9.52539V13.5098C145.365 14.207 145.963 14.5557 146.793 14.5557C147.435 14.5557 147.936 14.2983 148.295 13.7837C148.661 13.2635 148.843 12.4777 148.843 11.4263ZM154.712 16H152.695V3.25H154.712V16ZM162.282 16C162.194 15.8285 162.116 15.549 162.05 15.1616C161.408 15.8312 160.622 16.166 159.692 16.166C158.79 16.166 158.054 15.9087 157.484 15.394C156.914 14.8794 156.629 14.243 156.629 13.4849C156.629 12.5275 156.984 11.7943 157.692 11.2852C158.406 10.7705 159.424 10.5132 160.747 10.5132H161.983V9.92383C161.983 9.45898 161.853 9.08822 161.593 8.81152C161.333 8.5293 160.938 8.38818 160.406 8.38818C159.947 8.38818 159.571 8.50439 159.277 8.73682C158.984 8.9637 158.837 9.25423 158.837 9.6084H156.82C156.82 9.11589 156.984 8.65658 157.31 8.23047C157.637 7.79883 158.079 7.46126 158.638 7.21777C159.203 6.97428 159.831 6.85254 160.522 6.85254C161.574 6.85254 162.412 7.11816 163.038 7.64941C163.663 8.17513 163.984 8.91667 164 9.87402V13.9248C164 14.7327 164.114 15.3774 164.341 15.8589V16H162.282ZM160.066 14.5474C160.464 14.5474 160.838 14.4505 161.187 14.2568C161.541 14.0632 161.806 13.8031 161.983 13.4766V11.7832H160.896C160.149 11.7832 159.587 11.9132 159.211 12.1733C158.835 12.4334 158.646 12.8014 158.646 13.2773C158.646 13.6647 158.774 13.9746 159.028 14.207C159.288 14.4339 159.634 14.5474 160.066 14.5474ZM168.641 4.83545V7.01855H170.226V8.5127H168.641V13.5264C168.641 13.8695 168.707 14.1185 168.84 14.2734C168.978 14.4229 169.222 14.4976 169.57 14.4976C169.803 14.4976 170.038 14.4699 170.276 14.4146V15.9751C169.817 16.1024 169.374 16.166 168.948 16.166C167.398 16.166 166.624 15.311 166.624 13.6011V8.5127H165.146V7.01855H166.624V4.83545H168.641ZM175.729 16.166C174.451 16.166 173.414 15.7648 172.617 14.9624C171.825 14.1545 171.43 13.0809 171.43 11.7417V11.4927C171.43 10.5962 171.601 9.79655 171.944 9.09375C172.293 8.38542 172.78 7.8348 173.405 7.44189C174.031 7.04899 174.728 6.85254 175.497 6.85254C176.72 6.85254 177.664 7.24268 178.328 8.02295C178.997 8.80322 179.332 9.90723 179.332 11.335V12.1484H173.463C173.524 12.89 173.771 13.4766 174.202 13.9082C174.639 14.3398 175.187 14.5557 175.846 14.5557C176.77 14.5557 177.522 14.1821 178.104 13.4351L179.191 14.4727C178.831 15.0094 178.35 15.4272 177.747 15.7261C177.149 16.0194 176.477 16.166 175.729 16.166ZM175.489 8.47119C174.935 8.47119 174.487 8.66488 174.144 9.05225C173.806 9.43962 173.591 9.97917 173.497 10.6709H177.34V10.5215C177.296 9.84635 177.116 9.33724 176.8 8.99414C176.485 8.64551 176.048 8.47119 175.489 8.47119ZM184.819 11.6753H180.461V10.0483H184.819V11.6753ZM190.173 14.5557C190.676 14.5557 191.094 14.409 191.426 14.1157C191.758 13.8224 191.935 13.46 191.958 13.0283H193.858C193.836 13.5872 193.662 14.1102 193.335 14.5972C193.009 15.0786 192.566 15.4604 192.007 15.7427C191.448 16.0249 190.845 16.166 190.198 16.166C188.942 16.166 187.945 15.7593 187.209 14.9458C186.473 14.1323 186.105 13.009 186.105 11.5757V11.3682C186.105 10.0013 186.471 8.90837 187.201 8.08936C187.932 7.26481 188.928 6.85254 190.189 6.85254C191.257 6.85254 192.126 7.1652 192.796 7.79053C193.471 8.41032 193.825 9.22656 193.858 10.2393H191.958C191.935 9.72461 191.758 9.30127 191.426 8.96924C191.1 8.63721 190.682 8.47119 190.173 8.47119C189.52 8.47119 189.016 8.70915 188.662 9.18506C188.308 9.65544 188.128 10.3721 188.123 11.335V11.6587C188.123 12.6326 188.297 13.3604 188.646 13.8418C189 14.3177 189.509 14.5557 190.173 14.5557ZM195.004 11.4263C195.004 10.5464 195.178 9.75505 195.527 9.05225C195.875 8.34391 196.365 7.8016 196.996 7.42529C197.627 7.04346 198.352 6.85254 199.171 6.85254C200.383 6.85254 201.365 7.24268 202.118 8.02295C202.876 8.80322 203.285 9.83805 203.346 11.1274L203.354 11.6006C203.354 12.486 203.183 13.2773 202.84 13.9746C202.502 14.6719 202.015 15.2114 201.379 15.5933C200.748 15.9751 200.018 16.166 199.188 16.166C197.92 16.166 196.905 15.7454 196.141 14.9043C195.383 14.0576 195.004 12.9315 195.004 11.5259V11.4263ZM197.021 11.6006C197.021 12.5247 197.212 13.2497 197.594 13.7754C197.976 14.2956 198.507 14.5557 199.188 14.5557C199.868 14.5557 200.397 14.29 200.773 13.7588C201.155 13.2275 201.346 12.45 201.346 11.4263C201.346 10.5187 201.149 9.79932 200.756 9.26807C200.369 8.73682 199.84 8.47119 199.171 8.47119C198.512 8.47119 197.989 8.73405 197.602 9.25977C197.215 9.77995 197.021 10.5602 197.021 11.6006ZM207.206 16H205.189V3.25H207.206V16ZM214.851 15.1201C214.259 15.8174 213.418 16.166 212.328 16.166C211.354 16.166 210.615 15.881 210.111 15.311C209.613 14.741 209.364 13.9165 209.364 12.8374V7.01855H211.381V12.8125C211.381 13.9525 211.854 14.5225 212.801 14.5225C213.78 14.5225 214.442 14.1711 214.785 13.4683V7.01855H216.802V16H214.901L214.851 15.1201ZM220.753 7.01855L220.811 7.95654C221.442 7.22054 222.305 6.85254 223.401 6.85254C224.602 6.85254 225.424 7.31185 225.866 8.23047C226.519 7.31185 227.438 6.85254 228.622 6.85254C229.613 6.85254 230.349 7.12646 230.83 7.67432C231.317 8.22217 231.566 9.03011 231.577 10.0981V16H229.56V10.1562C229.56 9.58626 229.436 9.16846 229.187 8.90283C228.938 8.63721 228.525 8.50439 227.95 8.50439C227.49 8.50439 227.114 8.62891 226.821 8.87793C226.533 9.12142 226.331 9.44238 226.215 9.84082L226.223 16H224.206V10.0898C224.178 9.03288 223.639 8.50439 222.587 8.50439C221.779 8.50439 221.207 8.83366 220.869 9.49219V16H218.852V7.01855H220.753ZM235.52 7.01855L235.578 8.05615C236.242 7.25374 237.114 6.85254 238.193 6.85254C240.063 6.85254 241.015 7.92334 241.048 10.0649V16H239.031V10.1812C239.031 9.61117 238.907 9.19059 238.658 8.91943C238.414 8.64274 238.013 8.50439 237.454 8.50439C236.641 8.50439 236.035 8.8724 235.636 9.6084V16H233.619V7.01855H235.52ZM248.146 13.5596C248.146 13.1999 247.996 12.9259 247.697 12.7378C247.404 12.5496 246.914 12.3836 246.228 12.2397C245.542 12.0959 244.969 11.9132 244.51 11.6919C243.503 11.2049 242.999 10.4993 242.999 9.5752C242.999 8.80046 243.326 8.15299 243.979 7.63281C244.632 7.11263 245.462 6.85254 246.469 6.85254C247.542 6.85254 248.408 7.11816 249.067 7.64941C249.731 8.18066 250.063 8.86963 250.063 9.71631H248.046C248.046 9.32894 247.902 9.00798 247.614 8.75342C247.326 8.49333 246.945 8.36328 246.469 8.36328C246.026 8.36328 245.664 8.46566 245.381 8.67041C245.105 8.87516 244.966 9.14909 244.966 9.49219C244.966 9.80208 245.096 10.0428 245.356 10.2144C245.617 10.3859 246.142 10.5602 246.934 10.7373C247.725 10.9089 248.345 11.1164 248.793 11.3599C249.247 11.5978 249.582 11.8856 249.797 12.2231C250.019 12.5607 250.129 12.9702 250.129 13.4517C250.129 14.2596 249.795 14.9154 249.125 15.4189C248.455 15.917 247.578 16.166 246.494 16.166C245.758 16.166 245.102 16.0332 244.526 15.7676C243.951 15.502 243.503 15.1367 243.182 14.6719C242.861 14.207 242.7 13.7062 242.7 13.1694H244.659C244.687 13.6453 244.867 14.0133 245.199 14.2734C245.531 14.528 245.971 14.6553 246.519 14.6553C247.05 14.6553 247.454 14.5557 247.73 14.3564C248.007 14.1517 248.146 13.8861 248.146 13.5596ZM253.109 13.875C253.486 13.875 253.776 13.9829 253.981 14.1987C254.186 14.409 254.288 14.6746 254.288 14.9956C254.288 15.311 254.186 15.5739 253.981 15.7842C253.776 15.9889 253.486 16.0913 253.109 16.0913C252.75 16.0913 252.465 15.9889 252.254 15.7842C252.044 15.5794 251.939 15.3166 251.939 14.9956C251.939 14.6746 252.041 14.409 252.246 14.1987C252.451 13.9829 252.739 13.875 253.109 13.875ZM253.109 6.82764C253.486 6.82764 253.776 6.93555 253.981 7.15137C254.186 7.36165 254.288 7.62728 254.288 7.94824C254.288 8.26367 254.186 8.52653 253.981 8.73682C253.776 8.94157 253.486 9.04395 253.109 9.04395C252.75 9.04395 252.465 8.94157 252.254 8.73682C252.044 8.53206 251.939 8.26921 251.939 7.94824C251.939 7.62728 252.041 7.36165 252.246 7.15137C252.451 6.93555 252.739 6.82764 253.109 6.82764ZM567.8 6.82764C568.177 6.82764 568.467 6.93555 568.672 7.15137C568.877 7.36165 568.979 7.62728 568.979 7.94824C568.979 8.26367 568.877 8.52653 568.672 8.73682C568.467 8.94157 568.177 9.04395 567.8 9.04395C567.441 9.04395 567.156 8.94157 566.945 8.73682C566.735 8.53206 566.63 8.26921 566.63 7.94824C566.63 7.62728 566.732 7.36165 566.937 7.15137C567.142 6.93555 567.43 6.82764 567.8 6.82764ZM567.194 18.7227L566.107 18.0752C566.428 17.5716 566.646 17.1317 566.763 16.7554C566.884 16.3846 566.948 16.0055 566.954 15.6182V14.0493H568.771L568.763 15.502C568.758 16.0885 568.608 16.6751 568.315 17.2617C568.027 17.8538 567.654 18.3408 567.194 18.7227Z" fill="#222222"/>
<path d="M261.178 16V8.5127H259.808V7.01855H261.178V6.4043C261.183 5.7015 261.333 5.09831 261.626 4.59473C261.919 4.09115 262.334 3.71208 262.871 3.45752C263.408 3.20296 264.053 3.07568 264.805 3.07568C265.248 3.07568 265.671 3.12272 266.075 3.2168C266.485 3.31087 266.908 3.42985 267.345 3.57373L267.038 5.24219C266.274 4.97656 265.577 4.84375 264.946 4.84375C264.332 4.84375 263.887 4.97933 263.61 5.25049C263.333 5.51611 263.195 5.91732 263.195 6.4541V7.01855H264.963V8.5127H263.195V16H261.178ZM268.3 16H266.283V7.01855H268.3V16ZM273.064 4.83545V7.01855H274.65V8.5127H273.064V13.5264C273.064 13.8695 273.131 14.1185 273.264 14.2734C273.402 14.4229 273.646 14.4976 273.994 14.4976C274.227 14.4976 274.462 14.4699 274.7 14.4146V15.9751C274.24 16.1024 273.798 16.166 273.372 16.166C271.822 16.166 271.047 15.311 271.047 13.6011V8.5127H269.57V7.01855H271.047V4.83545H273.064ZM280.112 11.6753H275.754V10.0483H280.112V11.6753ZM285.466 14.5557C285.969 14.5557 286.387 14.409 286.719 14.1157C287.051 13.8224 287.228 13.46 287.25 13.0283H289.151C289.129 13.5872 288.955 14.1102 288.628 14.5972C288.302 15.0786 287.859 15.4604 287.3 15.7427C286.741 16.0249 286.138 16.166 285.491 16.166C284.235 16.166 283.238 15.7593 282.502 14.9458C281.766 14.1323 281.398 13.009 281.398 11.5757V11.3682C281.398 10.0013 281.764 8.90837 282.494 8.08936C283.225 7.26481 284.221 6.85254 285.482 6.85254C286.55 6.85254 287.419 7.1652 288.089 7.79053C288.764 8.41032 289.118 9.22656 289.151 10.2393H287.25C287.228 9.72461 287.051 9.30127 286.719 8.96924C286.393 8.63721 285.975 8.47119 285.466 8.47119C284.813 8.47119 284.309 8.70915 283.955 9.18506C283.601 9.65544 283.421 10.3721 283.416 11.335V11.6587C283.416 12.6326 283.59 13.3604 283.938 13.8418C284.293 14.3177 284.802 14.5557 285.466 14.5557ZM290.297 11.4263C290.297 10.5464 290.471 9.75505 290.82 9.05225C291.168 8.34391 291.658 7.8016 292.289 7.42529C292.92 7.04346 293.645 6.85254 294.464 6.85254C295.676 6.85254 296.658 7.24268 297.411 8.02295C298.169 8.80322 298.578 9.83805 298.639 11.1274L298.647 11.6006C298.647 12.486 298.476 13.2773 298.133 13.9746C297.795 14.6719 297.308 15.2114 296.672 15.5933C296.041 15.9751 295.311 16.166 294.48 16.166C293.213 16.166 292.198 15.7454 291.434 14.9043C290.676 14.0576 290.297 12.9315 290.297 11.5259V11.4263ZM292.314 11.6006C292.314 12.5247 292.505 13.2497 292.887 13.7754C293.269 14.2956 293.8 14.5557 294.48 14.5557C295.161 14.5557 295.69 14.29 296.066 13.7588C296.448 13.2275 296.639 12.45 296.639 11.4263C296.639 10.5187 296.442 9.79932 296.049 9.26807C295.662 8.73682 295.133 8.47119 294.464 8.47119C293.805 8.47119 293.282 8.73405 292.895 9.25977C292.508 9.77995 292.314 10.5602 292.314 11.6006ZM302.225 7.01855L302.283 8.05615C302.947 7.25374 303.819 6.85254 304.898 6.85254C306.768 6.85254 307.72 7.92334 307.753 10.0649V16H305.736V10.1812C305.736 9.61117 305.612 9.19059 305.363 8.91943C305.119 8.64274 304.718 8.50439 304.159 8.50439C303.346 8.50439 302.74 8.8724 302.341 9.6084V16H300.324V7.01855H302.225ZM312.344 4.83545V7.01855H313.929V8.5127H312.344V13.5264C312.344 13.8695 312.41 14.1185 312.543 14.2734C312.681 14.4229 312.925 14.4976 313.273 14.4976C313.506 14.4976 313.741 14.4699 313.979 14.4146V15.9751C313.52 16.1024 313.077 16.166 312.651 16.166C311.101 16.166 310.327 15.311 310.327 13.6011V8.5127H308.849V7.01855H310.327V4.83545H312.344ZM319.433 16.166C318.154 16.166 317.117 15.7648 316.32 14.9624C315.528 14.1545 315.133 13.0809 315.133 11.7417V11.4927C315.133 10.5962 315.304 9.79655 315.647 9.09375C315.996 8.38542 316.483 7.8348 317.108 7.44189C317.734 7.04899 318.431 6.85254 319.2 6.85254C320.423 6.85254 321.367 7.24268 322.031 8.02295C322.7 8.80322 323.035 9.90723 323.035 11.335V12.1484H317.167C317.227 12.89 317.474 13.4766 317.905 13.9082C318.342 14.3398 318.89 14.5557 319.549 14.5557C320.473 14.5557 321.226 14.1821 321.807 13.4351L322.894 14.4727C322.534 15.0094 322.053 15.4272 321.45 15.7261C320.852 16.0194 320.18 16.166 319.433 16.166ZM319.192 8.47119C318.639 8.47119 318.19 8.66488 317.847 9.05225C317.51 9.43962 317.294 9.97917 317.2 10.6709H321.043V10.5215C320.999 9.84635 320.819 9.33724 320.503 8.99414C320.188 8.64551 319.751 8.47119 319.192 8.47119ZM326.48 7.01855L326.538 8.05615C327.202 7.25374 328.074 6.85254 329.153 6.85254C331.023 6.85254 331.975 7.92334 332.008 10.0649V16H329.991V10.1812C329.991 9.61117 329.867 9.19059 329.618 8.91943C329.374 8.64274 328.973 8.50439 328.414 8.50439C327.601 8.50439 326.995 8.8724 326.596 9.6084V16H324.579V7.01855H326.48ZM336.599 4.83545V7.01855H338.184V8.5127H336.599V13.5264C336.599 13.8695 336.665 14.1185 336.798 14.2734C336.936 14.4229 337.18 14.4976 337.528 14.4976C337.761 14.4976 337.996 14.4699 338.234 14.4146V15.9751C337.775 16.1024 337.332 16.166 336.906 16.166C335.356 16.166 334.582 15.311 334.582 13.6011V8.5127H333.104V7.01855H334.582V4.83545H336.599ZM339.761 11.0859C339.761 9.80762 339.933 8.5957 340.276 7.4502C340.619 6.29915 341.123 5.27262 341.787 4.37061C342.451 3.46305 343.153 2.82666 343.895 2.46143L344.293 3.64014C343.513 4.23226 342.88 5.13704 342.393 6.35449C341.911 7.56641 341.648 8.9554 341.604 10.5215L341.596 11.2354C341.596 12.9121 341.831 14.409 342.301 15.7261C342.777 17.0376 343.441 18.0365 344.293 18.7227L343.895 19.8433C343.153 19.478 342.448 18.8389 341.778 17.9258C341.114 17.0182 340.611 15.9945 340.268 14.8545C339.93 13.709 339.761 12.4528 339.761 11.0859ZM347.863 9.03564H349.091C349.711 9.03011 350.201 8.86963 350.561 8.5542C350.926 8.23877 351.108 7.78223 351.108 7.18457C351.108 6.60905 350.956 6.16357 350.652 5.84814C350.353 5.52718 349.894 5.3667 349.274 5.3667C348.732 5.3667 348.286 5.52441 347.938 5.83984C347.589 6.14974 347.415 6.55648 347.415 7.06006H345.397C345.397 6.44027 345.561 5.87581 345.887 5.3667C346.219 4.85758 346.679 4.46191 347.265 4.17969C347.857 3.89193 348.519 3.74805 349.249 3.74805C350.455 3.74805 351.402 4.05241 352.088 4.66113C352.78 5.26432 353.125 6.10547 353.125 7.18457C353.125 7.72689 352.951 8.23877 352.603 8.72021C352.259 9.19613 351.814 9.55583 351.266 9.79932C351.93 10.0262 352.434 10.3831 352.777 10.8701C353.125 11.3571 353.3 11.9382 353.3 12.6133C353.3 13.6979 352.926 14.5612 352.179 15.2031C351.438 15.8451 350.461 16.166 349.249 16.166C348.087 16.166 347.135 15.8561 346.394 15.2363C345.652 14.6165 345.281 13.792 345.281 12.7627H347.298C347.298 13.2939 347.475 13.7256 347.83 14.0576C348.189 14.3896 348.671 14.5557 349.274 14.5557C349.899 14.5557 350.392 14.3896 350.751 14.0576C351.111 13.7256 351.291 13.2441 351.291 12.6133C351.291 11.9769 351.103 11.4871 350.727 11.144C350.35 10.8009 349.791 10.6294 349.05 10.6294H347.863V9.03564ZM363.07 10.9116C363.07 12.6493 362.743 13.9608 362.09 14.8462C361.443 15.7261 360.455 16.166 359.127 16.166C357.821 16.166 356.836 15.7371 356.172 14.8794C355.513 14.0161 355.176 12.7406 355.159 11.0527V8.96094C355.159 7.22331 355.483 5.92008 356.13 5.05127C356.783 4.18245 357.777 3.74805 359.11 3.74805C360.433 3.74805 361.418 4.17139 362.065 5.01807C362.718 5.86475 363.053 7.132 363.07 8.81982V10.9116ZM361.053 8.65381C361.053 7.51937 360.898 6.68929 360.588 6.16357C360.278 5.63232 359.785 5.3667 359.11 5.3667C358.452 5.3667 357.968 5.61849 357.658 6.12207C357.348 6.62012 357.185 7.40039 357.168 8.46289V11.2021C357.168 12.3311 357.326 13.1722 357.641 13.7256C357.957 14.279 358.452 14.5557 359.127 14.5557C359.774 14.5557 360.253 14.3011 360.563 13.792C360.873 13.2773 361.036 12.4749 361.053 11.3848V8.65381ZM372.732 10.9116C372.732 12.6493 372.405 13.9608 371.752 14.8462C371.105 15.7261 370.117 16.166 368.789 16.166C367.483 16.166 366.498 15.7371 365.834 14.8794C365.175 14.0161 364.838 12.7406 364.821 11.0527V8.96094C364.821 7.22331 365.145 5.92008 365.792 5.05127C366.445 4.18245 367.439 3.74805 368.772 3.74805C370.095 3.74805 371.08 4.17139 371.728 5.01807C372.381 5.86475 372.715 7.132 372.732 8.81982V10.9116ZM370.715 8.65381C370.715 7.51937 370.56 6.68929 370.25 6.16357C369.94 5.63232 369.448 5.3667 368.772 5.3667C368.114 5.3667 367.63 5.61849 367.32 6.12207C367.01 6.62012 366.847 7.40039 366.83 8.46289V11.2021C366.83 12.3311 366.988 13.1722 367.303 13.7256C367.619 14.279 368.114 14.5557 368.789 14.5557C369.437 14.5557 369.915 14.3011 370.225 13.792C370.535 13.2773 370.698 12.4749 370.715 11.3848V8.65381ZM382.51 11.6006C382.51 12.9896 382.195 14.0991 381.564 14.9292C380.933 15.7537 380.086 16.166 379.024 16.166C378.039 16.166 377.25 15.8423 376.658 15.1948V19.4531H374.641V7.01855H376.5L376.583 7.93164C377.176 7.21224 377.981 6.85254 378.999 6.85254C380.095 6.85254 380.952 7.26204 381.572 8.08105C382.198 8.89453 382.51 10.0262 382.51 11.4761V11.6006ZM380.501 11.4263C380.501 10.5298 380.322 9.81868 379.962 9.29297C379.608 8.76725 379.099 8.50439 378.435 8.50439C377.61 8.50439 377.018 8.84473 376.658 9.52539V13.5098C377.023 14.207 377.621 14.5557 378.451 14.5557C379.093 14.5557 379.594 14.2983 379.954 13.7837C380.319 13.2635 380.501 12.4777 380.501 11.4263ZM387.316 9.97363L389.026 7.01855H391.268L388.52 11.4429L391.359 16H389.134L387.341 12.9287L385.557 16H383.315L386.154 11.4429L383.415 7.01855H385.64L387.316 9.97363ZM396.53 11.2188C396.53 12.4473 396.361 13.6343 396.024 14.7798C395.686 15.9198 395.174 16.9574 394.488 17.8926C393.802 18.8333 393.085 19.4836 392.338 19.8433L391.94 18.7227C392.77 18.0807 393.426 17.1012 393.907 15.7842C394.394 14.4616 394.638 12.9536 394.638 11.2603V11.0693C394.638 9.53092 394.427 8.13086 394.007 6.86914C393.586 5.60189 392.983 4.58643 392.197 3.82275L391.94 3.59033L392.338 2.46143C393.047 2.80452 393.733 3.41325 394.397 4.2876C395.061 5.16195 395.57 6.14144 395.924 7.22607C396.278 8.30518 396.478 9.42025 396.522 10.5713L396.53 11.2188Z" fill="#1E73FF"/>
<path d="M403.403 16V8.5127H402.034V7.01855H403.403V6.4043C403.409 5.7015 403.558 5.09831 403.852 4.59473C404.145 4.09115 404.56 3.71208 405.097 3.45752C405.633 3.20296 406.278 3.07568 407.031 3.07568C407.473 3.07568 407.897 3.12272 408.301 3.2168C408.71 3.31087 409.134 3.42985 409.571 3.57373L409.264 5.24219C408.5 4.97656 407.803 4.84375 407.172 4.84375C406.558 4.84375 406.112 4.97933 405.835 5.25049C405.559 5.51611 405.42 5.91732 405.42 6.4541V7.01855H407.188V8.5127H405.42V16H403.403ZM410.525 16H408.508V7.01855H410.525V16ZM415.29 4.83545V7.01855H416.875V8.5127H415.29V13.5264C415.29 13.8695 415.356 14.1185 415.489 14.2734C415.628 14.4229 415.871 14.4976 416.22 14.4976C416.452 14.4976 416.687 14.4699 416.925 14.4146V15.9751C416.466 16.1024 416.023 16.166 415.597 16.166C414.048 16.166 413.273 15.311 413.273 13.6011V8.5127H411.795V7.01855H413.273V4.83545H415.29ZM422.337 11.6753H417.979V10.0483H422.337V11.6753ZM427.691 14.5557C428.195 14.5557 428.613 14.409 428.945 14.1157C429.277 13.8224 429.454 13.46 429.476 13.0283H431.377C431.355 13.5872 431.181 14.1102 430.854 14.5972C430.528 15.0786 430.085 15.4604 429.526 15.7427C428.967 16.0249 428.364 16.166 427.716 16.166C426.46 16.166 425.464 15.7593 424.728 14.9458C423.992 14.1323 423.624 13.009 423.624 11.5757V11.3682C423.624 10.0013 423.989 8.90837 424.72 8.08936C425.45 7.26481 426.446 6.85254 427.708 6.85254C428.776 6.85254 429.645 7.1652 430.314 7.79053C430.99 8.41032 431.344 9.22656 431.377 10.2393H429.476C429.454 9.72461 429.277 9.30127 428.945 8.96924C428.618 8.63721 428.201 8.47119 427.691 8.47119C427.038 8.47119 426.535 8.70915 426.181 9.18506C425.826 9.65544 425.647 10.3721 425.641 11.335V11.6587C425.641 12.6326 425.815 13.3604 426.164 13.8418C426.518 14.3177 427.027 14.5557 427.691 14.5557ZM432.522 11.4263C432.522 10.5464 432.697 9.75505 433.045 9.05225C433.394 8.34391 433.884 7.8016 434.515 7.42529C435.146 7.04346 435.87 6.85254 436.689 6.85254C437.901 6.85254 438.884 7.24268 439.636 8.02295C440.394 8.80322 440.804 9.83805 440.865 11.1274L440.873 11.6006C440.873 12.486 440.701 13.2773 440.358 13.9746C440.021 14.6719 439.534 15.2114 438.897 15.5933C438.267 15.9751 437.536 16.166 436.706 16.166C435.439 16.166 434.423 15.7454 433.66 14.9043C432.902 14.0576 432.522 12.9315 432.522 11.5259V11.4263ZM434.54 11.6006C434.54 12.5247 434.73 13.2497 435.112 13.7754C435.494 14.2956 436.025 14.5557 436.706 14.5557C437.387 14.5557 437.915 14.29 438.292 13.7588C438.673 13.2275 438.864 12.45 438.864 11.4263C438.864 10.5187 438.668 9.79932 438.275 9.26807C437.888 8.73682 437.359 8.47119 436.689 8.47119C436.031 8.47119 435.508 8.73405 435.121 9.25977C434.733 9.77995 434.54 10.5602 434.54 11.6006ZM444.451 7.01855L444.509 8.05615C445.173 7.25374 446.044 6.85254 447.124 6.85254C448.994 6.85254 449.946 7.92334 449.979 10.0649V16H447.962V10.1812C447.962 9.61117 447.837 9.19059 447.588 8.91943C447.345 8.64274 446.944 8.50439 446.385 8.50439C445.571 8.50439 444.965 8.8724 444.567 9.6084V16H442.55V7.01855H444.451ZM454.569 4.83545V7.01855H456.155V8.5127H454.569V13.5264C454.569 13.8695 454.636 14.1185 454.769 14.2734C454.907 14.4229 455.15 14.4976 455.499 14.4976C455.731 14.4976 455.967 14.4699 456.205 14.4146V15.9751C455.745 16.1024 455.303 16.166 454.876 16.166C453.327 16.166 452.552 15.311 452.552 13.6011V8.5127H451.075V7.01855H452.552V4.83545H454.569ZM461.658 16.166C460.38 16.166 459.342 15.7648 458.545 14.9624C457.754 14.1545 457.358 13.0809 457.358 11.7417V11.4927C457.358 10.5962 457.53 9.79655 457.873 9.09375C458.222 8.38542 458.709 7.8348 459.334 7.44189C459.959 7.04899 460.657 6.85254 461.426 6.85254C462.649 6.85254 463.592 7.24268 464.256 8.02295C464.926 8.80322 465.261 9.90723 465.261 11.335V12.1484H459.392C459.453 12.89 459.699 13.4766 460.131 13.9082C460.568 14.3398 461.116 14.5557 461.774 14.5557C462.699 14.5557 463.451 14.1821 464.032 13.4351L465.12 14.4727C464.76 15.0094 464.278 15.4272 463.675 15.7261C463.078 16.0194 462.405 16.166 461.658 16.166ZM461.417 8.47119C460.864 8.47119 460.416 8.66488 460.073 9.05225C459.735 9.43962 459.519 9.97917 459.425 10.6709H463.269V10.5215C463.224 9.84635 463.044 9.33724 462.729 8.99414C462.414 8.64551 461.976 8.47119 461.417 8.47119ZM468.706 7.01855L468.764 8.05615C469.428 7.25374 470.299 6.85254 471.378 6.85254C473.249 6.85254 474.201 7.92334 474.234 10.0649V16H472.217V10.1812C472.217 9.61117 472.092 9.19059 471.843 8.91943C471.6 8.64274 471.199 8.50439 470.64 8.50439C469.826 8.50439 469.22 8.8724 468.822 9.6084V16H466.805V7.01855H468.706ZM478.824 4.83545V7.01855H480.41V8.5127H478.824V13.5264C478.824 13.8695 478.891 14.1185 479.023 14.2734C479.162 14.4229 479.405 14.4976 479.754 14.4976C479.986 14.4976 480.222 14.4699 480.459 14.4146V15.9751C480 16.1024 479.557 16.166 479.131 16.166C477.582 16.166 476.807 15.311 476.807 13.6011V8.5127H475.33V7.01855H476.807V4.83545H478.824ZM481.987 11.0859C481.987 9.80762 482.158 8.5957 482.501 7.4502C482.845 6.29915 483.348 5.27262 484.012 4.37061C484.676 3.46305 485.379 2.82666 486.121 2.46143L486.519 3.64014C485.739 4.23226 485.105 5.13704 484.618 6.35449C484.137 7.56641 483.874 8.9554 483.83 10.5215L483.821 11.2354C483.821 12.9121 484.056 14.409 484.527 15.7261C485.003 17.0376 485.667 18.0365 486.519 18.7227L486.121 19.8433C485.379 19.478 484.674 18.8389 484.004 17.9258C483.34 17.0182 482.836 15.9945 482.493 14.8545C482.156 13.709 481.987 12.4528 481.987 11.0859ZM490.088 9.03564H491.317C491.937 9.03011 492.426 8.86963 492.786 8.5542C493.151 8.23877 493.334 7.78223 493.334 7.18457C493.334 6.60905 493.182 6.16357 492.877 5.84814C492.579 5.52718 492.119 5.3667 491.5 5.3667C490.957 5.3667 490.512 5.52441 490.163 5.83984C489.814 6.14974 489.64 6.55648 489.64 7.06006H487.623C487.623 6.44027 487.786 5.87581 488.113 5.3667C488.445 4.85758 488.904 4.46191 489.491 4.17969C490.083 3.89193 490.744 3.74805 491.475 3.74805C492.681 3.74805 493.627 4.05241 494.313 4.66113C495.005 5.26432 495.351 6.10547 495.351 7.18457C495.351 7.72689 495.177 8.23877 494.828 8.72021C494.485 9.19613 494.04 9.55583 493.492 9.79932C494.156 10.0262 494.659 10.3831 495.002 10.8701C495.351 11.3571 495.525 11.9382 495.525 12.6133C495.525 13.6979 495.152 14.5612 494.405 15.2031C493.663 15.8451 492.687 16.166 491.475 16.166C490.312 16.166 489.361 15.8561 488.619 15.2363C487.878 14.6165 487.507 13.792 487.507 12.7627H489.524C489.524 13.2939 489.701 13.7256 490.055 14.0576C490.415 14.3896 490.896 14.5557 491.5 14.5557C492.125 14.5557 492.617 14.3896 492.977 14.0576C493.337 13.7256 493.517 13.2441 493.517 12.6133C493.517 11.9769 493.328 11.4871 492.952 11.144C492.576 10.8009 492.017 10.6294 491.275 10.6294H490.088V9.03564ZM505.295 10.9116C505.295 12.6493 504.969 13.9608 504.316 14.8462C503.668 15.7261 502.681 16.166 501.353 16.166C500.047 16.166 499.062 15.7371 498.397 14.8794C497.739 14.0161 497.401 12.7406 497.385 11.0527V8.96094C497.385 7.22331 497.708 5.92008 498.356 5.05127C499.009 4.18245 500.002 3.74805 501.336 3.74805C502.659 3.74805 503.644 4.17139 504.291 5.01807C504.944 5.86475 505.279 7.132 505.295 8.81982V10.9116ZM503.278 8.65381C503.278 7.51937 503.123 6.68929 502.813 6.16357C502.504 5.63232 502.011 5.3667 501.336 5.3667C500.677 5.3667 500.193 5.61849 499.883 6.12207C499.573 6.62012 499.41 7.40039 499.394 8.46289V11.2021C499.394 12.3311 499.551 13.1722 499.867 13.7256C500.182 14.279 500.677 14.5557 501.353 14.5557C502 14.5557 502.479 14.3011 502.789 13.792C503.098 13.2773 503.262 12.4749 503.278 11.3848V8.65381ZM514.958 10.9116C514.958 12.6493 514.631 13.9608 513.978 14.8462C513.331 15.7261 512.343 16.166 511.015 16.166C509.709 16.166 508.724 15.7371 508.06 14.8794C507.401 14.0161 507.063 12.7406 507.047 11.0527V8.96094C507.047 7.22331 507.371 5.92008 508.018 5.05127C508.671 4.18245 509.664 3.74805 510.998 3.74805C512.321 3.74805 513.306 4.17139 513.953 5.01807C514.606 5.86475 514.941 7.132 514.958 8.81982V10.9116ZM512.94 8.65381C512.94 7.51937 512.785 6.68929 512.476 6.16357C512.166 5.63232 511.673 5.3667 510.998 5.3667C510.34 5.3667 509.855 5.61849 509.545 6.12207C509.236 6.62012 509.072 7.40039 509.056 8.46289V11.2021C509.056 12.3311 509.213 13.1722 509.529 13.7256C509.844 14.279 510.34 14.5557 511.015 14.5557C511.662 14.5557 512.141 14.3011 512.451 13.792C512.761 13.2773 512.924 12.4749 512.94 11.3848V8.65381ZM524.736 11.6006C524.736 12.9896 524.42 14.0991 523.79 14.9292C523.159 15.7537 522.312 16.166 521.25 16.166C520.264 16.166 519.476 15.8423 518.884 15.1948V19.4531H516.867V7.01855H518.726L518.809 7.93164C519.401 7.21224 520.206 6.85254 521.225 6.85254C522.32 6.85254 523.178 7.26204 523.798 8.08105C524.423 8.89453 524.736 10.0262 524.736 11.4761V11.6006ZM522.727 11.4263C522.727 10.5298 522.547 9.81868 522.188 9.29297C521.833 8.76725 521.324 8.50439 520.66 8.50439C519.836 8.50439 519.243 8.84473 518.884 9.52539V13.5098C519.249 14.207 519.847 14.5557 520.677 14.5557C521.319 14.5557 521.819 14.2983 522.179 13.7837C522.544 13.2635 522.727 12.4777 522.727 11.4263ZM529.542 9.97363L531.252 7.01855H533.493L530.746 11.4429L533.584 16H531.36L529.567 12.9287L527.782 16H525.541L528.38 11.4429L525.641 7.01855H527.865L529.542 9.97363ZM538.756 11.2188C538.756 12.4473 538.587 13.6343 538.25 14.7798C537.912 15.9198 537.4 16.9574 536.714 17.8926C536.028 18.8333 535.311 19.4836 534.564 19.8433L534.166 18.7227C534.996 18.0807 535.651 17.1012 536.133 15.7842C536.62 14.4616 536.863 12.9536 536.863 11.2603V11.0693C536.863 9.53092 536.653 8.13086 536.232 6.86914C535.812 5.60189 535.209 4.58643 534.423 3.82275L534.166 3.59033L534.564 2.46143C535.272 2.80452 535.958 3.41325 536.623 4.2876C537.287 5.16195 537.796 6.14144 538.15 7.22607C538.504 8.30518 538.703 9.42025 538.748 10.5713L538.756 11.2188Z" fill="#00986B"/>
<path d="M550.427 16H548.418V6.29639L545.455 7.30908V5.60742L550.169 3.87256H550.427V16ZM555.465 16V8.5127H554.096V7.01855H555.465V6.19678C555.465 5.20068 555.742 4.43148 556.295 3.88916C556.849 3.34684 557.624 3.07568 558.62 3.07568C558.974 3.07568 559.35 3.12549 559.749 3.2251L559.699 4.80225C559.477 4.75798 559.22 4.73584 558.927 4.73584C557.964 4.73584 557.482 5.23112 557.482 6.22168V7.01855H559.309V8.5127H557.482V16H555.465ZM565.484 8.86133C565.219 8.81706 564.945 8.79492 564.663 8.79492C563.738 8.79492 563.116 9.14909 562.795 9.85742V16H560.778V7.01855H562.704L562.753 8.02295C563.24 7.24268 563.916 6.85254 564.779 6.85254C565.067 6.85254 565.305 6.89128 565.493 6.96875L565.484 8.86133Z" fill="#B72DF8"/>
</svg>
