<svg width="578" height="112" viewBox="0 0 578 112" fill="none" xmlns="http://www.w3.org/2000/svg">
<rect width="578" height="112" fill="#F7F7F7"/>
<path d="M37 105C37 106.105 36.1046 107 35 107L21 107C19.8954 107 19 106.105 19 105L19 95.8143C19 95.2833 19.2112 94.7741 19.587 94.3989L26.587 87.4106C27.3678 86.6312 28.6323 86.6312 29.413 87.4106L36.413 94.3989C36.7888 94.7741 37 95.2833 37 95.8143L37 105Z" fill="#DDDDDD"/>
<path d="M26.1133 99.9473H23.0371V98.7988H26.1133V99.9473ZM27.5781 98.7695L28.041 94.4688H32.623V95.6992H29.2246L28.9902 97.7383C29.3848 97.5117 29.8301 97.3984 30.3262 97.3984C31.1387 97.3984 31.7695 97.6582 32.2188 98.1777C32.6719 98.6973 32.8984 99.3965 32.8984 100.275C32.8984 101.143 32.6484 101.834 32.1484 102.35C31.6484 102.861 30.9629 103.117 30.0918 103.117C29.3105 103.117 28.6621 102.896 28.1465 102.455C27.6348 102.01 27.3574 101.424 27.3145 100.697H28.6914C28.7461 101.111 28.8945 101.43 29.1367 101.652C29.3789 101.871 29.6953 101.98 30.0859 101.98C30.5234 101.98 30.8633 101.824 31.1055 101.512C31.3516 101.199 31.4746 100.773 31.4746 100.234C31.4746 99.7148 31.3398 99.3047 31.0703 99.0039C30.8008 98.6992 30.4297 98.5469 29.957 98.5469C29.6992 98.5469 29.4805 98.582 29.3008 98.6523C29.1211 98.7188 28.9258 98.8516 28.7148 99.0508L27.5781 98.7695Z" fill="white"/>
<path d="M166 105C166 106.105 165.105 107 164 107L150 107C148.895 107 148 106.105 148 105L148 95.8143C148 95.2833 148.211 94.7741 148.587 94.3989L155.587 87.4106C156.368 86.6312 157.632 86.6312 158.413 87.4106L165.413 94.3989C165.789 94.7741 166 95.2833 166 95.8143L166 105Z" fill="#DDDDDD"/>
<path d="M155.113 99.9473H152.037V98.7988H155.113V99.9473ZM161.014 99.959H162.074V101.102H161.014V103H159.59V101.102H155.904L155.863 100.234L159.543 94.4688H161.014V99.959ZM157.357 99.959H159.59V96.3965L159.484 96.584L157.357 99.959Z" fill="white"/>
<path d="M298 105C298 106.105 297.105 107 296 107L282 107C280.895 107 280 106.105 280 105L280 95.8143C280 95.2833 280.211 94.7741 280.587 94.3989L287.587 87.4106C288.368 86.6312 289.632 86.6312 290.413 87.4106L297.413 94.3989C297.789 94.7741 298 95.2833 298 95.8143L298 105Z" fill="#DDDDDD"/>
<path d="M287.113 99.9473H284.037V98.7988H287.113V99.9473ZM289.844 98.084H290.711C291.148 98.0801 291.494 97.9668 291.748 97.7441C292.006 97.5215 292.135 97.1992 292.135 96.7773C292.135 96.3711 292.027 96.0566 291.812 95.834C291.602 95.6074 291.277 95.4941 290.84 95.4941C290.457 95.4941 290.143 95.6055 289.896 95.8281C289.65 96.0469 289.527 96.334 289.527 96.6895H288.104C288.104 96.252 288.219 95.8535 288.449 95.4941C288.684 95.1348 289.008 94.8555 289.422 94.6562C289.84 94.4531 290.307 94.3516 290.822 94.3516C291.674 94.3516 292.342 94.5664 292.826 94.9961C293.314 95.4219 293.559 96.0156 293.559 96.7773C293.559 97.1602 293.436 97.5215 293.189 97.8613C292.947 98.1973 292.633 98.4512 292.246 98.623C292.715 98.7832 293.07 99.0352 293.312 99.3789C293.559 99.7227 293.682 100.133 293.682 100.609C293.682 101.375 293.418 101.984 292.891 102.438C292.367 102.891 291.678 103.117 290.822 103.117C290.002 103.117 289.33 102.898 288.807 102.461C288.283 102.023 288.021 101.441 288.021 100.715H289.445C289.445 101.09 289.57 101.395 289.82 101.629C290.074 101.863 290.414 101.98 290.84 101.98C291.281 101.98 291.629 101.863 291.883 101.629C292.137 101.395 292.264 101.055 292.264 100.609C292.264 100.16 292.131 99.8145 291.865 99.5723C291.6 99.3301 291.205 99.209 290.682 99.209H289.844V98.084Z" fill="white"/>
<path d="M430 105C430 106.105 429.105 107 428 107L414 107C412.895 107 412 106.105 412 105L412 95.8143C412 95.2833 412.211 94.7741 412.587 94.3989L419.587 87.4106C420.368 86.6312 421.632 86.6312 422.413 87.4106L429.413 94.3989C429.789 94.7741 430 95.2833 430 95.8143L430 105Z" fill="#DDDDDD"/>
<path d="M419.113 99.9473H416.037V98.7988H419.113V99.9473ZM425.934 103H420.197V102.021L423.039 98.9219C423.449 98.4648 423.74 98.084 423.912 97.7793C424.088 97.4707 424.176 97.1621 424.176 96.8535C424.176 96.4473 424.061 96.1191 423.83 95.8691C423.604 95.6191 423.297 95.4941 422.91 95.4941C422.449 95.4941 422.092 95.6348 421.838 95.916C421.584 96.1973 421.457 96.582 421.457 97.0703H420.033C420.033 96.5508 420.15 96.084 420.385 95.6699C420.623 95.252 420.961 94.9277 421.398 94.6973C421.84 94.4668 422.348 94.3516 422.922 94.3516C423.75 94.3516 424.402 94.5605 424.879 94.9785C425.359 95.3926 425.6 95.9668 425.6 96.7012C425.6 97.127 425.479 97.5742 425.236 98.043C424.998 98.5078 424.605 99.0371 424.059 99.6309L421.973 101.863H425.934V103Z" fill="white"/>
<path d="M559 105C559 106.105 558.105 107 557 107L543 107C541.895 107 541 106.105 541 105L541 95.8143C541 95.2833 541.211 94.7741 541.587 94.3989L548.587 87.4106C549.368 86.6312 550.632 86.6312 551.413 87.4106L558.413 94.3989C558.789 94.7741 559 95.2833 559 95.8143L559 105Z" fill="#DDDDDD"/>
<path d="M548.113 99.9473H545.037V98.7988H548.113V99.9473ZM553.053 103H551.635V96.1504L549.543 96.8652V95.6641L552.871 94.4395H553.053V103Z" fill="white"/>
<path d="M19 7C19 5.89543 19.8954 5 21 5H35C36.1046 5 37 5.89543 37 7V16.1857C37 16.7167 36.7888 17.2259 36.413 17.6011L29.413 24.5894C28.6323 25.3688 27.3677 25.3688 26.587 24.5894L19.587 17.6011C19.2112 17.2259 19 16.7167 19 16.1857V7Z" fill="#CCCCCC"/>
<path d="M29.084 17H27.666V10.1504L25.5742 10.8652V9.66406L28.9023 8.43945H29.084V17Z" fill="white"/>
<path d="M148 7C148 5.89543 148.895 5 150 5H164C165.105 5 166 5.89543 166 7V16.1857C166 16.7167 165.789 17.2259 165.413 17.6011L158.413 24.5894C157.632 25.3688 156.368 25.3688 155.587 24.5894L148.587 17.6011C148.211 17.2259 148 16.7167 148 16.1857V7Z" fill="#CCCCCC"/>
<path d="M159.965 17H154.229V16.0215L157.07 12.9219C157.48 12.4648 157.771 12.084 157.943 11.7793C158.119 11.4707 158.207 11.1621 158.207 10.8535C158.207 10.4473 158.092 10.1191 157.861 9.86914C157.635 9.61914 157.328 9.49414 156.941 9.49414C156.48 9.49414 156.123 9.63477 155.869 9.91602C155.615 10.1973 155.488 10.582 155.488 11.0703H154.064C154.064 10.5508 154.182 10.084 154.416 9.66992C154.654 9.25195 154.992 8.92773 155.43 8.69727C155.871 8.4668 156.379 8.35156 156.953 8.35156C157.781 8.35156 158.434 8.56055 158.91 8.97852C159.391 9.39258 159.631 9.9668 159.631 10.7012C159.631 11.127 159.51 11.5742 159.268 12.043C159.029 12.5078 158.637 13.0371 158.09 13.6309L156.004 15.8633H159.965V17Z" fill="white"/>
<path d="M280 7C280 5.89543 280.895 5 282 5H296C297.105 5 298 5.89543 298 7V16.1857C298 16.7167 297.789 17.2259 297.413 17.6011L290.413 24.5894C289.632 25.3688 288.368 25.3688 287.587 24.5894L280.587 17.6011C280.211 17.2259 280 16.7167 280 16.1857V7Z" fill="#CCCCCC"/>
<path d="M287.875 12.084H288.742C289.18 12.0801 289.525 11.9668 289.779 11.7441C290.037 11.5215 290.166 11.1992 290.166 10.7773C290.166 10.3711 290.059 10.0566 289.844 9.83398C289.633 9.60742 289.309 9.49414 288.871 9.49414C288.488 9.49414 288.174 9.60547 287.928 9.82812C287.682 10.0469 287.559 10.334 287.559 10.6895H286.135C286.135 10.252 286.25 9.85352 286.48 9.49414C286.715 9.13477 287.039 8.85547 287.453 8.65625C287.871 8.45312 288.338 8.35156 288.854 8.35156C289.705 8.35156 290.373 8.56641 290.857 8.99609C291.346 9.42188 291.59 10.0156 291.59 10.7773C291.59 11.1602 291.467 11.5215 291.221 11.8613C290.979 12.1973 290.664 12.4512 290.277 12.623C290.746 12.7832 291.102 13.0352 291.344 13.3789C291.59 13.7227 291.713 14.1328 291.713 14.6094C291.713 15.375 291.449 15.9844 290.922 16.4375C290.398 16.8906 289.709 17.1172 288.854 17.1172C288.033 17.1172 287.361 16.8984 286.838 16.4609C286.314 16.0234 286.053 15.4414 286.053 14.7148H287.477C287.477 15.0898 287.602 15.3945 287.852 15.6289C288.105 15.8633 288.445 15.9805 288.871 15.9805C289.312 15.9805 289.66 15.8633 289.914 15.6289C290.168 15.3945 290.295 15.0547 290.295 14.6094C290.295 14.1602 290.162 13.8145 289.896 13.5723C289.631 13.3301 289.236 13.209 288.713 13.209H287.875V12.084Z" fill="white"/>
<path d="M412 7C412 5.89543 412.895 5 414 5H428C429.105 5 430 5.89543 430 7V16.1857C430 16.7167 429.789 17.2259 429.413 17.6011L422.413 24.5894C421.632 25.3688 420.368 25.3688 419.587 24.5894L412.587 17.6011C412.211 17.2259 412 16.7167 412 16.1857V7Z" fill="#CCCCCC"/>
<path d="M423.045 13.959H424.105V15.1016H423.045V17H421.621V15.1016H417.936L417.895 14.2344L421.574 8.46875H423.045V13.959ZM419.389 13.959H421.621V10.3965L421.516 10.584L419.389 13.959Z" fill="white"/>
<path d="M541 7C541 5.89543 541.895 5 543 5H557C558.105 5 559 5.89543 559 7V16.1857C559 16.7167 558.789 17.2259 558.413 17.6011L551.413 24.5894C550.632 25.3688 549.368 25.3688 548.587 24.5894L541.587 17.6011C541.211 17.2259 541 16.7167 541 16.1857V7Z" fill="#CCCCCC"/>
<path d="M547.609 12.7695L548.072 8.46875H552.654V9.69922H549.256L549.021 11.7383C549.416 11.5117 549.861 11.3984 550.357 11.3984C551.17 11.3984 551.801 11.6582 552.25 12.1777C552.703 12.6973 552.93 13.3965 552.93 14.2754C552.93 15.1426 552.68 15.834 552.18 16.3496C551.68 16.8613 550.994 17.1172 550.123 17.1172C549.342 17.1172 548.693 16.8965 548.178 16.4551C547.666 16.0098 547.389 15.4238 547.346 14.6973H548.723C548.777 15.1113 548.926 15.4297 549.168 15.6523C549.41 15.8711 549.727 15.9805 550.117 15.9805C550.555 15.9805 550.895 15.8242 551.137 15.5117C551.383 15.1992 551.506 14.7734 551.506 14.2344C551.506 13.7148 551.371 13.3047 551.102 13.0039C550.832 12.6992 550.461 12.5469 549.988 12.5469C549.73 12.5469 549.512 12.582 549.332 12.6523C549.152 12.7188 548.957 12.8516 548.746 13.0508L547.609 12.7695Z" fill="white"/>
<path d="M7 37C5.89543 37 5 36.1046 5 35L5 21C5 19.8954 5.89543 19 7 19L16.1857 19C16.7167 19 17.2259 19.2112 17.6011 19.587L24.5894 26.587C25.3688 27.3677 25.3688 28.6323 24.5894 29.413L17.6011 36.413C17.2259 36.7888 16.7167 37 16.1857 37L7 37Z" fill="#CCCCCC"/>
<path d="M14.084 32H12.666V25.1504L10.5742 25.8652V24.6641L13.9023 23.4395H14.084V32Z" fill="white"/>
<path d="M7 93C5.89543 93 5 92.1046 5 91L5 77C5 75.8954 5.89543 75 7 75L16.1857 75C16.7167 75 17.2259 75.2112 17.6011 75.587L24.5894 82.587C25.3688 83.3677 25.3688 84.6323 24.5894 85.413L17.6011 92.413C17.2259 92.7888 16.7167 93 16.1857 93L7 93Z" fill="#CCCCCC"/>
<path d="M15.9648 88H10.2285V87.0215L13.0703 83.9219C13.4805 83.4648 13.7715 83.084 13.9434 82.7793C14.1191 82.4707 14.207 82.1621 14.207 81.8535C14.207 81.4473 14.0918 81.1191 13.8613 80.8691C13.6348 80.6191 13.3281 80.4941 12.9414 80.4941C12.4805 80.4941 12.123 80.6348 11.8691 80.916C11.6152 81.1973 11.4883 81.582 11.4883 82.0703H10.0645C10.0645 81.5508 10.1816 81.084 10.416 80.6699C10.6543 80.252 10.9922 79.9277 11.4297 79.6973C11.8711 79.4668 12.3789 79.3516 12.9531 79.3516C13.7812 79.3516 14.4336 79.5605 14.9102 79.9785C15.3906 80.3926 15.6309 80.9668 15.6309 81.7012C15.6309 82.127 15.5098 82.5742 15.2676 83.043C15.0293 83.5078 14.6367 84.0371 14.0898 84.6309L12.0039 86.8633H15.9648V88Z" fill="white"/>
<path d="M571 19C572.105 19 573 19.8954 573 21L573 35C573 36.1046 572.105 37 571 37L561.814 37C561.283 37 560.774 36.7888 560.399 36.413L553.411 29.413C552.631 28.6322 552.631 27.3677 553.411 26.587L560.399 19.587C560.774 19.2112 561.283 19 561.814 19L571 19Z" fill="#DDDDDD"/>
<path d="M563.113 28.9473H560.037V27.7988H563.113V28.9473ZM565.844 27.084H566.711C567.148 27.0801 567.494 26.9668 567.748 26.7441C568.006 26.5215 568.135 26.1992 568.135 25.7773C568.135 25.3711 568.027 25.0566 567.812 24.834C567.602 24.6074 567.277 24.4941 566.84 24.4941C566.457 24.4941 566.143 24.6055 565.896 24.8281C565.65 25.0469 565.527 25.334 565.527 25.6895H564.104C564.104 25.252 564.219 24.8535 564.449 24.4941C564.684 24.1348 565.008 23.8555 565.422 23.6562C565.84 23.4531 566.307 23.3516 566.822 23.3516C567.674 23.3516 568.342 23.5664 568.826 23.9961C569.314 24.4219 569.559 25.0156 569.559 25.7773C569.559 26.1602 569.436 26.5215 569.189 26.8613C568.947 27.1973 568.633 27.4512 568.246 27.623C568.715 27.7832 569.07 28.0352 569.312 28.3789C569.559 28.7227 569.682 29.1328 569.682 29.6094C569.682 30.375 569.418 30.9844 568.891 31.4375C568.367 31.8906 567.678 32.1172 566.822 32.1172C566.002 32.1172 565.33 31.8984 564.807 31.4609C564.283 31.0234 564.021 30.4414 564.021 29.7148H565.445C565.445 30.0898 565.57 30.3945 565.82 30.6289C566.074 30.8633 566.414 30.9805 566.84 30.9805C567.281 30.9805 567.629 30.8633 567.883 30.6289C568.137 30.3945 568.264 30.0547 568.264 29.6094C568.264 29.1602 568.131 28.8145 567.865 28.5723C567.6 28.3301 567.205 28.209 566.682 28.209H565.844V27.084Z" fill="white"/>
<path d="M571 75C572.105 75 573 75.8954 573 77L573 91C573 92.1046 572.105 93 571 93L561.814 93C561.283 93 560.774 92.7888 560.399 92.413L553.411 85.413C552.631 84.6322 552.631 83.3677 553.411 82.587L560.399 75.587C560.774 75.2112 561.283 75 561.814 75L571 75Z" fill="#DDDDDD"/>
<path d="M563.113 84.9473H560.037V83.7988H563.113V84.9473ZM569.934 88H564.197V87.0215L567.039 83.9219C567.449 83.4648 567.74 83.084 567.912 82.7793C568.088 82.4707 568.176 82.1621 568.176 81.8535C568.176 81.4473 568.061 81.1191 567.83 80.8691C567.604 80.6191 567.297 80.4941 566.91 80.4941C566.449 80.4941 566.092 80.6348 565.838 80.916C565.584 81.1973 565.457 81.582 565.457 82.0703H564.033C564.033 81.5508 564.15 81.084 564.385 80.6699C564.623 80.252 564.961 79.9277 565.398 79.6973C565.84 79.4668 566.348 79.3516 566.922 79.3516C567.75 79.3516 568.402 79.5605 568.879 79.9785C569.359 80.3926 569.6 80.9668 569.6 81.7012C569.6 82.127 569.479 82.5742 569.236 83.043C568.998 83.5078 568.605 84.0371 568.059 84.6309L565.973 86.8633H569.934V88Z" fill="white"/>
<rect x="28" y="28" width="522" height="56" fill="white"/>
<path d="M31 36C31 33.2386 33.2386 31 36 31H146C148.761 31 151 33.2386 151 36V76C151 78.7614 148.761 81 146 81H36C33.2386 81 31 78.7614 31 76V36Z" fill="#1E73FF"/>
<path d="M75.0718 60.6667H73.292V52.7419H75.0718V60.6667ZM73.1821 50.6837C73.1821 50.4103 73.2676 50.1833 73.4385 50.0026C73.6143 49.8219 73.8633 49.7316 74.1855 49.7316C74.5078 49.7316 74.7568 49.8219 74.9326 50.0026C75.1084 50.1833 75.1963 50.4103 75.1963 50.6837C75.1963 50.9523 75.1084 51.1769 74.9326 51.3576C74.7568 51.5334 74.5078 51.6212 74.1855 51.6212C73.8633 51.6212 73.6143 51.5334 73.4385 51.3576C73.2676 51.1769 73.1821 50.9523 73.1821 50.6837ZM79.2466 50.8156V52.7419H80.6455V54.0602H79.2466V58.484C79.2466 58.7868 79.3052 59.0065 79.4224 59.1432C79.5444 59.2751 79.7593 59.341 80.0669 59.341C80.272 59.341 80.4795 59.3166 80.6895 59.2677V60.6447C80.2842 60.757 79.8936 60.8131 79.5176 60.8131C78.1504 60.8131 77.4668 60.0587 77.4668 58.55V54.0602H76.1631V52.7419H77.4668V50.8156H79.2466ZM85.5015 60.8131C84.3735 60.8131 83.458 60.4591 82.7549 59.7511C82.0566 59.0382 81.7075 58.091 81.7075 56.9093V56.6896C81.7075 55.8986 81.8589 55.193 82.1616 54.5729C82.4692 53.9479 82.8989 53.4621 83.4507 53.1154C84.0024 52.7687 84.6177 52.5954 85.2964 52.5954C86.3755 52.5954 87.208 52.9396 87.7939 53.6281C88.3848 54.3166 88.6802 55.2907 88.6802 56.5504V57.2682H83.502C83.5557 57.9225 83.7729 58.4401 84.1538 58.821C84.5396 59.2018 85.0229 59.3922 85.604 59.3922C86.4194 59.3922 87.0835 59.0627 87.5962 58.4035L88.5557 59.319C88.2383 59.7926 87.8135 60.1613 87.2812 60.425C86.7539 60.6837 86.1606 60.8131 85.5015 60.8131ZM85.2891 54.0236C84.8008 54.0236 84.4053 54.1945 84.1025 54.5363C83.8047 54.8781 83.6143 55.3542 83.5312 55.9645H86.9224V55.8327C86.8833 55.237 86.7246 54.7878 86.4463 54.485C86.168 54.1774 85.7822 54.0236 85.2891 54.0236ZM91.7417 52.7419L91.793 53.5695C92.3496 52.9201 93.1113 52.5954 94.0781 52.5954C95.1377 52.5954 95.8628 53.0006 96.2534 53.8112C96.8296 53.0006 97.6401 52.5954 98.6851 52.5954C99.5591 52.5954 100.208 52.8371 100.633 53.3205C101.063 53.8039 101.283 54.5168 101.292 55.4591V60.6667H99.5127V55.5104C99.5127 55.0075 99.4028 54.6388 99.1831 54.4044C98.9634 54.1701 98.5996 54.0529 98.0918 54.0529C97.6865 54.0529 97.3545 54.1628 97.0957 54.3825C96.8418 54.5973 96.6636 54.8805 96.561 55.2321L96.5684 60.6667H94.7886V55.4518C94.7642 54.5192 94.2881 54.0529 93.3604 54.0529C92.6475 54.0529 92.1421 54.3434 91.8442 54.9245V60.6667H90.0645V52.7419H91.7417ZM107.826 60.6667H106.053V52.1046L103.438 52.9982V51.4967L107.599 49.966H107.826V60.6667Z" fill="white"/>
<path d="M163 36C163 33.2386 165.239 31 168 31H278C280.761 31 283 33.2386 283 36V76C283 78.7614 280.761 81 278 81H168C165.239 81 163 78.7614 163 76V36Z" fill="#1E73FF"/>
<path d="M207.072 60.6667H205.292V52.7419H207.072V60.6667ZM205.182 50.6837C205.182 50.4103 205.268 50.1833 205.438 50.0026C205.614 49.8219 205.863 49.7316 206.186 49.7316C206.508 49.7316 206.757 49.8219 206.933 50.0026C207.108 50.1833 207.196 50.4103 207.196 50.6837C207.196 50.9523 207.108 51.1769 206.933 51.3576C206.757 51.5334 206.508 51.6212 206.186 51.6212C205.863 51.6212 205.614 51.5334 205.438 51.3576C205.268 51.1769 205.182 50.9523 205.182 50.6837ZM211.247 50.8156V52.7419H212.646V54.0602H211.247V58.484C211.247 58.7868 211.305 59.0065 211.422 59.1432C211.544 59.2751 211.759 59.341 212.067 59.341C212.272 59.341 212.479 59.3166 212.689 59.2677V60.6447C212.284 60.757 211.894 60.8131 211.518 60.8131C210.15 60.8131 209.467 60.0587 209.467 58.55V54.0602H208.163V52.7419H209.467V50.8156H211.247ZM217.501 60.8131C216.374 60.8131 215.458 60.4591 214.755 59.7511C214.057 59.0382 213.708 58.091 213.708 56.9093V56.6896C213.708 55.8986 213.859 55.193 214.162 54.5729C214.469 53.9479 214.899 53.4621 215.451 53.1154C216.002 52.7687 216.618 52.5954 217.296 52.5954C218.375 52.5954 219.208 52.9396 219.794 53.6281C220.385 54.3166 220.68 55.2907 220.68 56.5504V57.2682H215.502C215.556 57.9225 215.773 58.4401 216.154 58.821C216.54 59.2018 217.023 59.3922 217.604 59.3922C218.419 59.3922 219.083 59.0627 219.596 58.4035L220.556 59.319C220.238 59.7926 219.813 60.1613 219.281 60.425C218.754 60.6837 218.161 60.8131 217.501 60.8131ZM217.289 54.0236C216.801 54.0236 216.405 54.1945 216.103 54.5363C215.805 54.8781 215.614 55.3542 215.531 55.9645H218.922V55.8327C218.883 55.237 218.725 54.7878 218.446 54.485C218.168 54.1774 217.782 54.0236 217.289 54.0236ZM223.742 52.7419L223.793 53.5695C224.35 52.9201 225.111 52.5954 226.078 52.5954C227.138 52.5954 227.863 53.0006 228.253 53.8112C228.83 53.0006 229.64 52.5954 230.685 52.5954C231.559 52.5954 232.208 52.8371 232.633 53.3205C233.063 53.8039 233.283 54.5168 233.292 55.4591V60.6667H231.513V55.5104C231.513 55.0075 231.403 54.6388 231.183 54.4044C230.963 54.1701 230.6 54.0529 230.092 54.0529C229.687 54.0529 229.354 54.1628 229.096 54.3825C228.842 54.5973 228.664 54.8805 228.561 55.2321L228.568 60.6667H226.789V55.4518C226.764 54.5192 226.288 54.0529 225.36 54.0529C224.647 54.0529 224.142 54.3434 223.844 54.9245V60.6667H222.064V52.7419H223.742ZM239.826 60.6667H238.053V52.1046L235.438 52.9982V51.4967L239.599 49.966H239.826V60.6667Z" fill="white"/>
<path d="M295 36C295 33.2386 297.239 31 300 31H410C412.761 31 415 33.2386 415 36V76C415 78.7614 412.761 81 410 81H300C297.239 81 295 78.7614 295 76V36Z" fill="#1E73FF"/>
<path d="M339.072 60.6667H337.292V52.7419H339.072V60.6667ZM337.182 50.6837C337.182 50.4103 337.268 50.1833 337.438 50.0026C337.614 49.8219 337.863 49.7316 338.186 49.7316C338.508 49.7316 338.757 49.8219 338.933 50.0026C339.108 50.1833 339.196 50.4103 339.196 50.6837C339.196 50.9523 339.108 51.1769 338.933 51.3576C338.757 51.5334 338.508 51.6212 338.186 51.6212C337.863 51.6212 337.614 51.5334 337.438 51.3576C337.268 51.1769 337.182 50.9523 337.182 50.6837ZM343.247 50.8156V52.7419H344.646V54.0602H343.247V58.484C343.247 58.7868 343.305 59.0065 343.422 59.1432C343.544 59.2751 343.759 59.341 344.067 59.341C344.272 59.341 344.479 59.3166 344.689 59.2677V60.6447C344.284 60.757 343.894 60.8131 343.518 60.8131C342.15 60.8131 341.467 60.0587 341.467 58.55V54.0602H340.163V52.7419H341.467V50.8156H343.247ZM349.501 60.8131C348.374 60.8131 347.458 60.4591 346.755 59.7511C346.057 59.0382 345.708 58.091 345.708 56.9093V56.6896C345.708 55.8986 345.859 55.193 346.162 54.5729C346.469 53.9479 346.899 53.4621 347.451 53.1154C348.002 52.7687 348.618 52.5954 349.296 52.5954C350.375 52.5954 351.208 52.9396 351.794 53.6281C352.385 54.3166 352.68 55.2907 352.68 56.5504V57.2682H347.502C347.556 57.9225 347.773 58.4401 348.154 58.821C348.54 59.2018 349.023 59.3922 349.604 59.3922C350.419 59.3922 351.083 59.0627 351.596 58.4035L352.556 59.319C352.238 59.7926 351.813 60.1613 351.281 60.425C350.754 60.6837 350.161 60.8131 349.501 60.8131ZM349.289 54.0236C348.801 54.0236 348.405 54.1945 348.103 54.5363C347.805 54.8781 347.614 55.3542 347.531 55.9645H350.922V55.8327C350.883 55.237 350.725 54.7878 350.446 54.485C350.168 54.1774 349.782 54.0236 349.289 54.0236ZM355.742 52.7419L355.793 53.5695C356.35 52.9201 357.111 52.5954 358.078 52.5954C359.138 52.5954 359.863 53.0006 360.253 53.8112C360.83 53.0006 361.64 52.5954 362.685 52.5954C363.559 52.5954 364.208 52.8371 364.633 53.3205C365.063 53.8039 365.283 54.5168 365.292 55.4591V60.6667H363.513V55.5104C363.513 55.0075 363.403 54.6388 363.183 54.4044C362.963 54.1701 362.6 54.0529 362.092 54.0529C361.687 54.0529 361.354 54.1628 361.096 54.3825C360.842 54.5973 360.664 54.8805 360.561 55.2321L360.568 60.6667H358.789V55.4518C358.764 54.5192 358.288 54.0529 357.36 54.0529C356.647 54.0529 356.142 54.3434 355.844 54.9245V60.6667H354.064V52.7419H355.742ZM371.826 60.6667H370.053V52.1046L367.438 52.9982V51.4967L371.599 49.966H371.826V60.6667Z" fill="white"/>
<path d="M427 36C427 33.2386 429.239 31 432 31H542C544.761 31 547 33.2386 547 36V76C547 78.7614 544.761 81 542 81H432C429.239 81 427 78.7614 427 76V36Z" fill="#1E73FF"/>
<path d="M471.072 60.6667H469.292V52.7419H471.072V60.6667ZM469.182 50.6837C469.182 50.4103 469.268 50.1833 469.438 50.0026C469.614 49.8219 469.863 49.7316 470.186 49.7316C470.508 49.7316 470.757 49.8219 470.933 50.0026C471.108 50.1833 471.196 50.4103 471.196 50.6837C471.196 50.9523 471.108 51.1769 470.933 51.3576C470.757 51.5334 470.508 51.6212 470.186 51.6212C469.863 51.6212 469.614 51.5334 469.438 51.3576C469.268 51.1769 469.182 50.9523 469.182 50.6837ZM475.247 50.8156V52.7419H476.646V54.0602H475.247V58.484C475.247 58.7868 475.305 59.0065 475.422 59.1432C475.544 59.2751 475.759 59.341 476.067 59.341C476.272 59.341 476.479 59.3166 476.689 59.2677V60.6447C476.284 60.757 475.894 60.8131 475.518 60.8131C474.15 60.8131 473.467 60.0587 473.467 58.55V54.0602H472.163V52.7419H473.467V50.8156H475.247ZM481.501 60.8131C480.374 60.8131 479.458 60.4591 478.755 59.7511C478.057 59.0382 477.708 58.091 477.708 56.9093V56.6896C477.708 55.8986 477.859 55.193 478.162 54.5729C478.469 53.9479 478.899 53.4621 479.451 53.1154C480.002 52.7687 480.618 52.5954 481.296 52.5954C482.375 52.5954 483.208 52.9396 483.794 53.6281C484.385 54.3166 484.68 55.2907 484.68 56.5504V57.2682H479.502C479.556 57.9225 479.773 58.4401 480.154 58.821C480.54 59.2018 481.023 59.3922 481.604 59.3922C482.419 59.3922 483.083 59.0627 483.596 58.4035L484.556 59.319C484.238 59.7926 483.813 60.1613 483.281 60.425C482.754 60.6837 482.161 60.8131 481.501 60.8131ZM481.289 54.0236C480.801 54.0236 480.405 54.1945 480.103 54.5363C479.805 54.8781 479.614 55.3542 479.531 55.9645H482.922V55.8327C482.883 55.237 482.725 54.7878 482.446 54.485C482.168 54.1774 481.782 54.0236 481.289 54.0236ZM487.742 52.7419L487.793 53.5695C488.35 52.9201 489.111 52.5954 490.078 52.5954C491.138 52.5954 491.863 53.0006 492.253 53.8112C492.83 53.0006 493.64 52.5954 494.685 52.5954C495.559 52.5954 496.208 52.8371 496.633 53.3205C497.063 53.8039 497.283 54.5168 497.292 55.4591V60.6667H495.513V55.5104C495.513 55.0075 495.403 54.6388 495.183 54.4044C494.963 54.1701 494.6 54.0529 494.092 54.0529C493.687 54.0529 493.354 54.1628 493.096 54.3825C492.842 54.5973 492.664 54.8805 492.561 55.2321L492.568 60.6667H490.789V55.4518C490.764 54.5192 490.288 54.0529 489.36 54.0529C488.647 54.0529 488.142 54.3434 487.844 54.9245V60.6667H486.064V52.7419H487.742ZM503.826 60.6667H502.053V52.1046L499.438 52.9982V51.4967L503.599 49.966H503.826V60.6667Z" fill="white"/>
<path d="M153.5 29L153.5 83" stroke="#BBBBBB" stroke-dasharray="3 2"/>
<path d="M160.5 29L160.5 83" stroke="#BBBBBB" stroke-dasharray="3 2"/>
<path d="M285.5 29L285.5 83" stroke="#BBBBBB" stroke-dasharray="3 2"/>
<path d="M292.5 29L292.5 83" stroke="#BBBBBB" stroke-dasharray="3 2"/>
<path d="M417.5 29L417.5 83" stroke="#BBBBBB" stroke-dasharray="3 2"/>
<path d="M424.5 29L424.5 83" stroke="#BBBBBB" stroke-dasharray="3 2"/>
<rect x="28" y="28" width="522" height="56" stroke="#AAAAAA" stroke-width="2"/>
</svg>
