<svg width="578" height="378" viewBox="0 0 578 378" fill="none" xmlns="http://www.w3.org/2000/svg">
<rect width="578" height="174" fill="#F7F7F7"/>
<path d="M37 167C37 168.105 36.1046 169 35 169L21 169C19.8954 169 19 168.105 19 167L19 157.814C19 157.283 19.2112 156.774 19.587 156.399L26.587 149.411C27.3678 148.631 28.6323 148.631 29.413 149.411L36.413 156.399C36.7888 156.774 37 157.283 37 157.814L37 167Z" fill="#DDDDDD"/>
<path d="M26.1133 161.947H23.0371V160.799H26.1133V161.947ZM27.5781 160.77L28.041 156.469H32.623V157.699H29.2246L28.9902 159.738C29.3848 159.512 29.8301 159.398 30.3262 159.398C31.1387 159.398 31.7695 159.658 32.2188 160.178C32.6719 160.697 32.8984 161.396 32.8984 162.275C32.8984 163.143 32.6484 163.834 32.1484 164.35C31.6484 164.861 30.9629 165.117 30.0918 165.117C29.3105 165.117 28.6621 164.896 28.1465 164.455C27.6348 164.01 27.3574 163.424 27.3145 162.697H28.6914C28.7461 163.111 28.8945 163.43 29.1367 163.652C29.3789 163.871 29.6953 163.98 30.0859 163.98C30.5234 163.98 30.8633 163.824 31.1055 163.512C31.3516 163.199 31.4746 162.773 31.4746 162.234C31.4746 161.715 31.3398 161.305 31.0703 161.004C30.8008 160.699 30.4297 160.547 29.957 160.547C29.6992 160.547 29.4805 160.582 29.3008 160.652C29.1211 160.719 28.9258 160.852 28.7148 161.051L27.5781 160.77Z" fill="white"/>
<path d="M166 167C166 168.105 165.105 169 164 169L150 169C148.895 169 148 168.105 148 167L148 157.814C148 157.283 148.211 156.774 148.587 156.399L155.587 149.411C156.368 148.631 157.632 148.631 158.413 149.411L165.413 156.399C165.789 156.774 166 157.283 166 157.814L166 167Z" fill="#DDDDDD"/>
<path d="M155.113 161.947H152.037V160.799H155.113V161.947ZM161.014 161.959H162.074V163.102H161.014V165H159.59V163.102H155.904L155.863 162.234L159.543 156.469H161.014V161.959ZM157.357 161.959H159.59V158.396L159.484 158.584L157.357 161.959Z" fill="white"/>
<path d="M298 167C298 168.105 297.105 169 296 169L282 169C280.895 169 280 168.105 280 167L280 157.814C280 157.283 280.211 156.774 280.587 156.399L287.587 149.411C288.368 148.631 289.632 148.631 290.413 149.411L297.413 156.399C297.789 156.774 298 157.283 298 157.814L298 167Z" fill="#DDDDDD"/>
<path d="M287.113 161.947H284.037V160.799H287.113V161.947ZM289.844 160.084H290.711C291.148 160.08 291.494 159.967 291.748 159.744C292.006 159.521 292.135 159.199 292.135 158.777C292.135 158.371 292.027 158.057 291.812 157.834C291.602 157.607 291.277 157.494 290.84 157.494C290.457 157.494 290.143 157.605 289.896 157.828C289.65 158.047 289.527 158.334 289.527 158.689H288.104C288.104 158.252 288.219 157.854 288.449 157.494C288.684 157.135 289.008 156.855 289.422 156.656C289.84 156.453 290.307 156.352 290.822 156.352C291.674 156.352 292.342 156.566 292.826 156.996C293.314 157.422 293.559 158.016 293.559 158.777C293.559 159.16 293.436 159.521 293.189 159.861C292.947 160.197 292.633 160.451 292.246 160.623C292.715 160.783 293.07 161.035 293.312 161.379C293.559 161.723 293.682 162.133 293.682 162.609C293.682 163.375 293.418 163.984 292.891 164.438C292.367 164.891 291.678 165.117 290.822 165.117C290.002 165.117 289.33 164.898 288.807 164.461C288.283 164.023 288.021 163.441 288.021 162.715H289.445C289.445 163.09 289.57 163.395 289.82 163.629C290.074 163.863 290.414 163.98 290.84 163.98C291.281 163.98 291.629 163.863 291.883 163.629C292.137 163.395 292.264 163.055 292.264 162.609C292.264 162.16 292.131 161.814 291.865 161.572C291.6 161.33 291.205 161.209 290.682 161.209H289.844V160.084Z" fill="white"/>
<path d="M430 167C430 168.105 429.105 169 428 169L414 169C412.895 169 412 168.105 412 167L412 157.814C412 157.283 412.211 156.774 412.587 156.399L419.587 149.411C420.368 148.631 421.632 148.631 422.413 149.411L429.413 156.399C429.789 156.774 430 157.283 430 157.814L430 167Z" fill="#DDDDDD"/>
<path d="M419.113 161.947H416.037V160.799H419.113V161.947ZM425.934 165H420.197V164.021L423.039 160.922C423.449 160.465 423.74 160.084 423.912 159.779C424.088 159.471 424.176 159.162 424.176 158.854C424.176 158.447 424.061 158.119 423.83 157.869C423.604 157.619 423.297 157.494 422.91 157.494C422.449 157.494 422.092 157.635 421.838 157.916C421.584 158.197 421.457 158.582 421.457 159.07H420.033C420.033 158.551 420.15 158.084 420.385 157.67C420.623 157.252 420.961 156.928 421.398 156.697C421.84 156.467 422.348 156.352 422.922 156.352C423.75 156.352 424.402 156.561 424.879 156.979C425.359 157.393 425.6 157.967 425.6 158.701C425.6 159.127 425.479 159.574 425.236 160.043C424.998 160.508 424.605 161.037 424.059 161.631L421.973 163.863H425.934V165Z" fill="white"/>
<path d="M559 167C559 168.105 558.105 169 557 169L543 169C541.895 169 541 168.105 541 167L541 157.814C541 157.283 541.211 156.774 541.587 156.399L548.587 149.411C549.368 148.631 550.632 148.631 551.413 149.411L558.413 156.399C558.789 156.774 559 157.283 559 157.814L559 167Z" fill="#DDDDDD"/>
<path d="M548.113 161.947H545.037V160.799H548.113V161.947ZM553.053 165H551.635V158.15L549.543 158.865V157.664L552.871 156.439H553.053V165Z" fill="white"/>
<path d="M19 7C19 5.89543 19.8954 5 21 5H35C36.1046 5 37 5.89543 37 7V16.1857C37 16.7167 36.7888 17.2259 36.413 17.6011L29.413 24.5894C28.6323 25.3688 27.3677 25.3688 26.587 24.5894L19.587 17.6011C19.2112 17.2259 19 16.7167 19 16.1857V7Z" fill="#CCCCCC"/>
<path d="M29.084 17H27.666V10.1504L25.5742 10.8652V9.66406L28.9023 8.43945H29.084V17Z" fill="white"/>
<path d="M148 7C148 5.89543 148.895 5 150 5H164C165.105 5 166 5.89543 166 7V16.1857C166 16.7167 165.789 17.2259 165.413 17.6011L158.413 24.5894C157.632 25.3688 156.368 25.3688 155.587 24.5894L148.587 17.6011C148.211 17.2259 148 16.7167 148 16.1857V7Z" fill="#CCCCCC"/>
<path d="M159.965 17H154.229V16.0215L157.07 12.9219C157.48 12.4648 157.771 12.084 157.943 11.7793C158.119 11.4707 158.207 11.1621 158.207 10.8535C158.207 10.4473 158.092 10.1191 157.861 9.86914C157.635 9.61914 157.328 9.49414 156.941 9.49414C156.48 9.49414 156.123 9.63477 155.869 9.91602C155.615 10.1973 155.488 10.582 155.488 11.0703H154.064C154.064 10.5508 154.182 10.084 154.416 9.66992C154.654 9.25195 154.992 8.92773 155.43 8.69727C155.871 8.4668 156.379 8.35156 156.953 8.35156C157.781 8.35156 158.434 8.56055 158.91 8.97852C159.391 9.39258 159.631 9.9668 159.631 10.7012C159.631 11.127 159.51 11.5742 159.268 12.043C159.029 12.5078 158.637 13.0371 158.09 13.6309L156.004 15.8633H159.965V17Z" fill="white"/>
<path d="M280 7C280 5.89543 280.895 5 282 5H296C297.105 5 298 5.89543 298 7V16.1857C298 16.7167 297.789 17.2259 297.413 17.6011L290.413 24.5894C289.632 25.3688 288.368 25.3688 287.587 24.5894L280.587 17.6011C280.211 17.2259 280 16.7167 280 16.1857V7Z" fill="#CCCCCC"/>
<path d="M287.875 12.084H288.742C289.18 12.0801 289.525 11.9668 289.779 11.7441C290.037 11.5215 290.166 11.1992 290.166 10.7773C290.166 10.3711 290.059 10.0566 289.844 9.83398C289.633 9.60742 289.309 9.49414 288.871 9.49414C288.488 9.49414 288.174 9.60547 287.928 9.82812C287.682 10.0469 287.559 10.334 287.559 10.6895H286.135C286.135 10.252 286.25 9.85352 286.48 9.49414C286.715 9.13477 287.039 8.85547 287.453 8.65625C287.871 8.45312 288.338 8.35156 288.854 8.35156C289.705 8.35156 290.373 8.56641 290.857 8.99609C291.346 9.42188 291.59 10.0156 291.59 10.7773C291.59 11.1602 291.467 11.5215 291.221 11.8613C290.979 12.1973 290.664 12.4512 290.277 12.623C290.746 12.7832 291.102 13.0352 291.344 13.3789C291.59 13.7227 291.713 14.1328 291.713 14.6094C291.713 15.375 291.449 15.9844 290.922 16.4375C290.398 16.8906 289.709 17.1172 288.854 17.1172C288.033 17.1172 287.361 16.8984 286.838 16.4609C286.314 16.0234 286.053 15.4414 286.053 14.7148H287.477C287.477 15.0898 287.602 15.3945 287.852 15.6289C288.105 15.8633 288.445 15.9805 288.871 15.9805C289.312 15.9805 289.66 15.8633 289.914 15.6289C290.168 15.3945 290.295 15.0547 290.295 14.6094C290.295 14.1602 290.162 13.8145 289.896 13.5723C289.631 13.3301 289.236 13.209 288.713 13.209H287.875V12.084Z" fill="white"/>
<path d="M412 7C412 5.89543 412.895 5 414 5H428C429.105 5 430 5.89543 430 7V16.1857C430 16.7167 429.789 17.2259 429.413 17.6011L422.413 24.5894C421.632 25.3688 420.368 25.3688 419.587 24.5894L412.587 17.6011C412.211 17.2259 412 16.7167 412 16.1857V7Z" fill="#CCCCCC"/>
<path d="M423.045 13.959H424.105V15.1016H423.045V17H421.621V15.1016H417.936L417.895 14.2344L421.574 8.46875H423.045V13.959ZM419.389 13.959H421.621V10.3965L421.516 10.584L419.389 13.959Z" fill="white"/>
<path d="M541 7C541 5.89543 541.895 5 543 5H557C558.105 5 559 5.89543 559 7V16.1857C559 16.7167 558.789 17.2259 558.413 17.6011L551.413 24.5894C550.632 25.3688 549.368 25.3688 548.587 24.5894L541.587 17.6011C541.211 17.2259 541 16.7167 541 16.1857V7Z" fill="#CCCCCC"/>
<path d="M547.609 12.7695L548.072 8.46875H552.654V9.69922H549.256L549.021 11.7383C549.416 11.5117 549.861 11.3984 550.357 11.3984C551.17 11.3984 551.801 11.6582 552.25 12.1777C552.703 12.6973 552.93 13.3965 552.93 14.2754C552.93 15.1426 552.68 15.834 552.18 16.3496C551.68 16.8613 550.994 17.1172 550.123 17.1172C549.342 17.1172 548.693 16.8965 548.178 16.4551C547.666 16.0098 547.389 15.4238 547.346 14.6973H548.723C548.777 15.1113 548.926 15.4297 549.168 15.6523C549.41 15.8711 549.727 15.9805 550.117 15.9805C550.555 15.9805 550.895 15.8242 551.137 15.5117C551.383 15.1992 551.506 14.7734 551.506 14.2344C551.506 13.7148 551.371 13.3047 551.102 13.0039C550.832 12.6992 550.461 12.5469 549.988 12.5469C549.73 12.5469 549.512 12.582 549.332 12.6523C549.152 12.7188 548.957 12.8516 548.746 13.0508L547.609 12.7695Z" fill="white"/>
<path d="M7 37C5.89543 37 5 36.1046 5 35L5 21C5 19.8954 5.89543 19 7 19L16.1857 19C16.7167 19 17.2259 19.2112 17.6011 19.587L24.5894 26.587C25.3688 27.3677 25.3688 28.6323 24.5894 29.413L17.6011 36.413C17.2259 36.7888 16.7167 37 16.1857 37L7 37Z" fill="#CCCCCC"/>
<path d="M14.084 32H12.666V25.1504L10.5742 25.8652V24.6641L13.9023 23.4395H14.084V32Z" fill="white"/>
<path d="M7 96C5.89543 96 5 95.1046 5 94L5 80C5 78.8954 5.89543 78 7 78L16.1857 78C16.7167 78 17.2259 78.2112 17.6011 78.587L24.5894 85.587C25.3688 86.3677 25.3688 87.6323 24.5894 88.413L17.6011 95.413C17.2259 95.7888 16.7167 96 16.1857 96L7 96Z" fill="#CCCCCC"/>
<path d="M15.9648 91H10.2285V90.0215L13.0703 86.9219C13.4805 86.4648 13.7715 86.084 13.9434 85.7793C14.1191 85.4707 14.207 85.1621 14.207 84.8535C14.207 84.4473 14.0918 84.1191 13.8613 83.8691C13.6348 83.6191 13.3281 83.4941 12.9414 83.4941C12.4805 83.4941 12.123 83.6348 11.8691 83.916C11.6152 84.1973 11.4883 84.582 11.4883 85.0703H10.0645C10.0645 84.5508 10.1816 84.084 10.416 83.6699C10.6543 83.252 10.9922 82.9277 11.4297 82.6973C11.8711 82.4668 12.3789 82.3516 12.9531 82.3516C13.7812 82.3516 14.4336 82.5605 14.9102 82.9785C15.3906 83.3926 15.6309 83.9668 15.6309 84.7012C15.6309 85.127 15.5098 85.5742 15.2676 86.043C15.0293 86.5078 14.6367 87.0371 14.0898 87.6309L12.0039 89.8633H15.9648V91Z" fill="white"/>
<path d="M7 155C5.89543 155 5 154.105 5 153L5 139C5 137.895 5.89543 137 7 137L16.1857 137C16.7167 137 17.2259 137.211 17.6011 137.587L24.5894 144.587C25.3688 145.368 25.3688 146.632 24.5894 147.413L17.6011 154.413C17.2259 154.789 16.7167 155 16.1857 155L7 155Z" fill="#CCCCCC"/>
<path d="M11.875 145.084H12.7422C13.1797 145.08 13.5254 144.967 13.7793 144.744C14.0371 144.521 14.166 144.199 14.166 143.777C14.166 143.371 14.0586 143.057 13.8438 142.834C13.6328 142.607 13.3086 142.494 12.8711 142.494C12.4883 142.494 12.1738 142.605 11.9277 142.828C11.6816 143.047 11.5586 143.334 11.5586 143.689H10.1348C10.1348 143.252 10.25 142.854 10.4805 142.494C10.7148 142.135 11.0391 141.855 11.4531 141.656C11.8711 141.453 12.3379 141.352 12.8535 141.352C13.7051 141.352 14.373 141.566 14.8574 141.996C15.3457 142.422 15.5898 143.016 15.5898 143.777C15.5898 144.16 15.4668 144.521 15.2207 144.861C14.9785 145.197 14.6641 145.451 14.2773 145.623C14.7461 145.783 15.1016 146.035 15.3438 146.379C15.5898 146.723 15.7129 147.133 15.7129 147.609C15.7129 148.375 15.4492 148.984 14.9219 149.438C14.3984 149.891 13.709 150.117 12.8535 150.117C12.0332 150.117 11.3613 149.898 10.8379 149.461C10.3145 149.023 10.0527 148.441 10.0527 147.715H11.4766C11.4766 148.09 11.6016 148.395 11.8516 148.629C12.1055 148.863 12.4453 148.98 12.8711 148.98C13.3125 148.98 13.6602 148.863 13.9141 148.629C14.168 148.395 14.2949 148.055 14.2949 147.609C14.2949 147.16 14.1621 146.814 13.8965 146.572C13.6309 146.33 13.2363 146.209 12.7129 146.209H11.875V145.084Z" fill="white"/>
<path d="M571 19C572.105 19 573 19.8954 573 21L573 35C573 36.1046 572.105 37 571 37L561.814 37C561.283 37 560.774 36.7888 560.399 36.413L553.411 29.413C552.631 28.6322 552.631 27.3677 553.411 26.587L560.399 19.587C560.774 19.2112 561.283 19 561.814 19L571 19Z" fill="#DDDDDD"/>
<path d="M563.113 28.9473H560.037V27.7988H563.113V28.9473ZM565.844 27.084H566.711C567.148 27.0801 567.494 26.9668 567.748 26.7441C568.006 26.5215 568.135 26.1992 568.135 25.7773C568.135 25.3711 568.027 25.0566 567.812 24.834C567.602 24.6074 567.277 24.4941 566.84 24.4941C566.457 24.4941 566.143 24.6055 565.896 24.8281C565.65 25.0469 565.527 25.334 565.527 25.6895H564.104C564.104 25.252 564.219 24.8535 564.449 24.4941C564.684 24.1348 565.008 23.8555 565.422 23.6562C565.84 23.4531 566.307 23.3516 566.822 23.3516C567.674 23.3516 568.342 23.5664 568.826 23.9961C569.314 24.4219 569.559 25.0156 569.559 25.7773C569.559 26.1602 569.436 26.5215 569.189 26.8613C568.947 27.1973 568.633 27.4512 568.246 27.623C568.715 27.7832 569.07 28.0352 569.312 28.3789C569.559 28.7227 569.682 29.1328 569.682 29.6094C569.682 30.375 569.418 30.9844 568.891 31.4375C568.367 31.8906 567.678 32.1172 566.822 32.1172C566.002 32.1172 565.33 31.8984 564.807 31.4609C564.283 31.0234 564.021 30.4414 564.021 29.7148H565.445C565.445 30.0898 565.57 30.3945 565.82 30.6289C566.074 30.8633 566.414 30.9805 566.84 30.9805C567.281 30.9805 567.629 30.8633 567.883 30.6289C568.137 30.3945 568.264 30.0547 568.264 29.6094C568.264 29.1602 568.131 28.8145 567.865 28.5723C567.6 28.3301 567.205 28.209 566.682 28.209H565.844V27.084Z" fill="white"/>
<path d="M571 78C572.105 78 573 78.8954 573 80L573 94C573 95.1046 572.105 96 571 96L561.814 96C561.283 96 560.774 95.7888 560.399 95.413L553.411 88.413C552.631 87.6322 552.631 86.3677 553.411 85.587L560.399 78.587C560.774 78.2112 561.283 78 561.814 78L571 78Z" fill="#DDDDDD"/>
<path d="M563.113 87.9473H560.037V86.7988H563.113V87.9473ZM569.934 91H564.197V90.0215L567.039 86.9219C567.449 86.4648 567.74 86.084 567.912 85.7793C568.088 85.4707 568.176 85.1621 568.176 84.8535C568.176 84.4473 568.061 84.1191 567.83 83.8691C567.604 83.6191 567.297 83.4941 566.91 83.4941C566.449 83.4941 566.092 83.6348 565.838 83.916C565.584 84.1973 565.457 84.582 565.457 85.0703H564.033C564.033 84.5508 564.15 84.084 564.385 83.6699C564.623 83.252 564.961 82.9277 565.398 82.6973C565.84 82.4668 566.348 82.3516 566.922 82.3516C567.75 82.3516 568.402 82.5605 568.879 82.9785C569.359 83.3926 569.6 83.9668 569.6 84.7012C569.6 85.127 569.479 85.5742 569.236 86.043C568.998 86.5078 568.605 87.0371 568.059 87.6309L565.973 89.8633H569.934V91Z" fill="white"/>
<path d="M571 137C572.105 137 573 137.895 573 139L573 153C573 154.105 572.105 155 571 155L561.814 155C561.283 155 560.774 154.789 560.399 154.413L553.411 147.413C552.631 146.632 552.631 145.368 553.411 144.587L560.399 137.587C560.774 137.211 561.283 137 561.814 137L571 137Z" fill="#DDDDDD"/>
<path d="M563.113 146.947H560.037V145.799H563.113V146.947ZM568.053 150H566.635V143.15L564.543 143.865V142.664L567.871 141.439H568.053V150Z" fill="white"/>
<rect x="28" y="28" width="522" height="118" fill="white"/>
<path d="M31 36C31 33.2386 33.2386 31 36 31H146C148.761 31 151 33.2386 151 36V76C151 78.7614 148.761 81 146 81H36C33.2386 81 31 78.7614 31 76V36Z" fill="#1E73FF"/>
<path d="M73.2041 60.6667H71.4243V52.7419H73.2041V60.6667ZM71.3145 50.6838C71.3145 50.4104 71.3999 50.1833 71.5708 50.0027C71.7466 49.822 71.9956 49.7317 72.3179 49.7317C72.6401 49.7317 72.8892 49.822 73.0649 50.0027C73.2407 50.1833 73.3286 50.4104 73.3286 50.6838C73.3286 50.9524 73.2407 51.177 73.0649 51.3577C72.8892 51.5334 72.6401 51.6213 72.3179 51.6213C71.9956 51.6213 71.7466 51.5334 71.5708 51.3577C71.3999 51.177 71.3145 50.9524 71.3145 50.6838ZM77.3789 50.8157V52.7419H78.7778V54.0603H77.3789V58.4841C77.3789 58.7869 77.4375 59.0066 77.5547 59.1433C77.6768 59.2751 77.8916 59.3411 78.1992 59.3411C78.4043 59.3411 78.6118 59.3167 78.8218 59.2678V60.6448C78.4165 60.7571 78.0259 60.8132 77.6499 60.8132C76.2827 60.8132 75.5991 60.0588 75.5991 58.55V54.0603H74.2954V52.7419H75.5991V50.8157H77.3789ZM83.6338 60.8132C82.5059 60.8132 81.5903 60.4592 80.8872 59.7512C80.189 59.0383 79.8398 58.0911 79.8398 56.9094V56.6897C79.8398 55.8987 79.9912 55.1931 80.2939 54.573C80.6016 53.948 81.0312 53.4622 81.583 53.1155C82.1348 52.7688 82.75 52.5955 83.4287 52.5955C84.5078 52.5955 85.3403 52.9397 85.9263 53.6282C86.5171 54.3167 86.8125 55.2908 86.8125 56.5505V57.2683H81.6343C81.688 57.9226 81.9053 58.4402 82.2861 58.821C82.6719 59.2019 83.1553 59.3923 83.7363 59.3923C84.5518 59.3923 85.2158 59.0627 85.7285 58.4036L86.688 59.3191C86.3706 59.7927 85.9458 60.1614 85.4136 60.425C84.8862 60.6838 84.293 60.8132 83.6338 60.8132ZM83.4214 54.0237C82.9331 54.0237 82.5376 54.1946 82.2349 54.5364C81.937 54.8782 81.7466 55.3542 81.6636 55.9646H85.0547V55.8328C85.0156 55.2371 84.8569 54.7878 84.5786 54.4851C84.3003 54.1775 83.9146 54.0237 83.4214 54.0237ZM89.874 52.7419L89.9253 53.5696C90.4819 52.9202 91.2437 52.5955 92.2104 52.5955C93.27 52.5955 93.9951 53.0007 94.3857 53.8113C94.9619 53.0007 95.7725 52.5955 96.8174 52.5955C97.6914 52.5955 98.3408 52.8372 98.7656 53.3206C99.1953 53.804 99.415 54.5168 99.4248 55.4592V60.6667H97.645V55.5105C97.645 55.0076 97.5352 54.6389 97.3154 54.4045C97.0957 54.1702 96.7319 54.053 96.2241 54.053C95.8188 54.053 95.4868 54.1628 95.228 54.3826C94.9741 54.5974 94.7959 54.8806 94.6934 55.2322L94.7007 60.6667H92.9209V55.4519C92.8965 54.5193 92.4204 54.053 91.4927 54.053C90.7798 54.053 90.2744 54.3435 89.9766 54.9246V60.6667H88.1968V52.7419H89.874ZM109.693 60.6667H107.921V52.1047L105.306 52.9983V51.4968L109.466 49.9661H109.693V60.6667Z" fill="white"/>
<path d="M163 36C163 33.2386 165.239 31 168 31H278C280.761 31 283 33.2386 283 36V76C283 78.7614 280.761 81 278 81H168C165.239 81 163 78.7614 163 76V36Z" fill="#1E73FF"/>
<path d="M205.204 60.6667H203.424V52.7419H205.204V60.6667ZM203.314 50.6838C203.314 50.4104 203.4 50.1833 203.571 50.0027C203.747 49.822 203.996 49.7317 204.318 49.7317C204.64 49.7317 204.889 49.822 205.065 50.0027C205.241 50.1833 205.329 50.4104 205.329 50.6838C205.329 50.9524 205.241 51.177 205.065 51.3577C204.889 51.5334 204.64 51.6213 204.318 51.6213C203.996 51.6213 203.747 51.5334 203.571 51.3577C203.4 51.177 203.314 50.9524 203.314 50.6838ZM209.379 50.8157V52.7419H210.778V54.0603H209.379V58.4841C209.379 58.7869 209.438 59.0066 209.555 59.1433C209.677 59.2751 209.892 59.3411 210.199 59.3411C210.404 59.3411 210.612 59.3167 210.822 59.2678V60.6448C210.417 60.7571 210.026 60.8132 209.65 60.8132C208.283 60.8132 207.599 60.0588 207.599 58.55V54.0603H206.295V52.7419H207.599V50.8157H209.379ZM215.634 60.8132C214.506 60.8132 213.59 60.4592 212.887 59.7512C212.189 59.0383 211.84 58.0911 211.84 56.9094V56.6897C211.84 55.8987 211.991 55.1931 212.294 54.573C212.602 53.948 213.031 53.4622 213.583 53.1155C214.135 52.7688 214.75 52.5955 215.429 52.5955C216.508 52.5955 217.34 52.9397 217.926 53.6282C218.517 54.3167 218.812 55.2908 218.812 56.5505V57.2683H213.634C213.688 57.9226 213.905 58.4402 214.286 58.821C214.672 59.2019 215.155 59.3923 215.736 59.3923C216.552 59.3923 217.216 59.0627 217.729 58.4036L218.688 59.3191C218.371 59.7927 217.946 60.1614 217.414 60.425C216.886 60.6838 216.293 60.8132 215.634 60.8132ZM215.421 54.0237C214.933 54.0237 214.538 54.1946 214.235 54.5364C213.937 54.8782 213.747 55.3542 213.664 55.9646H217.055V55.8328C217.016 55.2371 216.857 54.7878 216.579 54.4851C216.3 54.1775 215.915 54.0237 215.421 54.0237ZM221.874 52.7419L221.925 53.5696C222.482 52.9202 223.244 52.5955 224.21 52.5955C225.27 52.5955 225.995 53.0007 226.386 53.8113C226.962 53.0007 227.772 52.5955 228.817 52.5955C229.691 52.5955 230.341 52.8372 230.766 53.3206C231.195 53.804 231.415 54.5168 231.425 55.4592V60.6667H229.645V55.5105C229.645 55.0076 229.535 54.6389 229.315 54.4045C229.096 54.1702 228.732 54.053 228.224 54.053C227.819 54.053 227.487 54.1628 227.228 54.3826C226.974 54.5974 226.796 54.8806 226.693 55.2322L226.701 60.6667H224.921V55.4519C224.896 54.5193 224.42 54.053 223.493 54.053C222.78 54.053 222.274 54.3435 221.977 54.9246V60.6667H220.197V52.7419H221.874ZM244.044 60.6667H236.874V59.4436L240.426 55.5691C240.939 54.9978 241.303 54.5217 241.518 54.1409C241.737 53.7551 241.847 53.3694 241.847 52.9836C241.847 52.4758 241.703 52.0657 241.415 51.7532C241.132 51.4407 240.749 51.2844 240.265 51.2844C239.689 51.2844 239.242 51.4602 238.925 51.8118C238.607 52.1633 238.449 52.6443 238.449 53.2546H236.669C236.669 52.6052 236.815 52.0217 237.108 51.5042C237.406 50.9817 237.829 50.5764 238.375 50.2883C238.927 50.0002 239.562 49.8562 240.28 49.8562C241.315 49.8562 242.13 50.1174 242.726 50.6399C243.327 51.1575 243.627 51.8752 243.627 52.7932C243.627 53.3254 243.476 53.8845 243.173 54.4705C242.875 55.0515 242.384 55.7131 241.701 56.4553L239.093 59.2458H244.044V60.6667Z" fill="white"/>
<path d="M295 36C295 33.2386 297.239 31 300 31H410C412.761 31 415 33.2386 415 36V76C415 78.7614 412.761 81 410 81H300C297.239 81 295 78.7614 295 76V36Z" fill="#1E73FF"/>
<path d="M337.204 60.6667H335.424V52.7419H337.204V60.6667ZM335.314 50.6838C335.314 50.4104 335.4 50.1833 335.571 50.0027C335.747 49.822 335.996 49.7317 336.318 49.7317C336.64 49.7317 336.889 49.822 337.065 50.0027C337.241 50.1833 337.329 50.4104 337.329 50.6838C337.329 50.9524 337.241 51.177 337.065 51.3577C336.889 51.5334 336.64 51.6213 336.318 51.6213C335.996 51.6213 335.747 51.5334 335.571 51.3577C335.4 51.177 335.314 50.9524 335.314 50.6838ZM341.379 50.8157V52.7419H342.778V54.0603H341.379V58.4841C341.379 58.7869 341.438 59.0066 341.555 59.1433C341.677 59.2751 341.892 59.3411 342.199 59.3411C342.404 59.3411 342.612 59.3167 342.822 59.2678V60.6448C342.417 60.7571 342.026 60.8132 341.65 60.8132C340.283 60.8132 339.599 60.0588 339.599 58.55V54.0603H338.295V52.7419H339.599V50.8157H341.379ZM347.634 60.8132C346.506 60.8132 345.59 60.4592 344.887 59.7512C344.189 59.0383 343.84 58.0911 343.84 56.9094V56.6897C343.84 55.8987 343.991 55.1931 344.294 54.573C344.602 53.948 345.031 53.4622 345.583 53.1155C346.135 52.7688 346.75 52.5955 347.429 52.5955C348.508 52.5955 349.34 52.9397 349.926 53.6282C350.517 54.3167 350.812 55.2908 350.812 56.5505V57.2683H345.634C345.688 57.9226 345.905 58.4402 346.286 58.821C346.672 59.2019 347.155 59.3923 347.736 59.3923C348.552 59.3923 349.216 59.0627 349.729 58.4036L350.688 59.3191C350.371 59.7927 349.946 60.1614 349.414 60.425C348.886 60.6838 348.293 60.8132 347.634 60.8132ZM347.421 54.0237C346.933 54.0237 346.538 54.1946 346.235 54.5364C345.937 54.8782 345.747 55.3542 345.664 55.9646H349.055V55.8328C349.016 55.2371 348.857 54.7878 348.579 54.4851C348.3 54.1775 347.915 54.0237 347.421 54.0237ZM353.874 52.7419L353.925 53.5696C354.482 52.9202 355.244 52.5955 356.21 52.5955C357.27 52.5955 357.995 53.0007 358.386 53.8113C358.962 53.0007 359.772 52.5955 360.817 52.5955C361.691 52.5955 362.341 52.8372 362.766 53.3206C363.195 53.804 363.415 54.5168 363.425 55.4592V60.6667H361.645V55.5105C361.645 55.0076 361.535 54.6389 361.315 54.4045C361.096 54.1702 360.732 54.053 360.224 54.053C359.819 54.053 359.487 54.1628 359.228 54.3826C358.974 54.5974 358.796 54.8806 358.693 55.2322L358.701 60.6667H356.921V55.4519C356.896 54.5193 356.42 54.053 355.493 54.053C354.78 54.053 354.274 54.3435 353.977 54.9246V60.6667H352.197V52.7419H353.874ZM370.932 54.5217H372.016C372.563 54.5168 372.995 54.3752 373.312 54.0969C373.635 53.8186 373.796 53.4158 373.796 52.8884C373.796 52.3806 373.662 51.9875 373.393 51.7092C373.129 51.426 372.724 51.2844 372.177 51.2844C371.699 51.2844 371.306 51.4236 370.998 51.7019C370.69 51.9753 370.537 52.3342 370.537 52.7786H368.757C368.757 52.2317 368.901 51.7336 369.189 51.2844C369.482 50.8352 369.887 50.4861 370.405 50.2371C370.927 49.9832 371.511 49.8562 372.155 49.8562C373.22 49.8562 374.055 50.1248 374.66 50.6619C375.271 51.1941 375.576 51.9363 375.576 52.8884C375.576 53.3669 375.422 53.8186 375.114 54.2434C374.812 54.6633 374.418 54.9807 373.935 55.1956C374.521 55.3958 374.965 55.7107 375.268 56.1404C375.576 56.5701 375.729 57.0828 375.729 57.6785C375.729 58.6355 375.4 59.3972 374.741 59.9636C374.086 60.53 373.225 60.8132 372.155 60.8132C371.13 60.8132 370.29 60.5398 369.636 59.9929C368.981 59.446 368.654 58.7185 368.654 57.8103H370.434C370.434 58.2791 370.59 58.6599 370.903 58.9529C371.22 59.2458 371.645 59.3923 372.177 59.3923C372.729 59.3923 373.164 59.2458 373.481 58.9529C373.798 58.6599 373.957 58.2351 373.957 57.6785C373.957 57.1169 373.791 56.6848 373.459 56.3821C373.127 56.0793 372.634 55.928 371.979 55.928H370.932V54.5217Z" fill="white"/>
<path d="M427 36C427 33.2386 429.239 31 432 31H542C544.761 31 547 33.2386 547 36V76C547 78.7614 544.761 81 542 81H432C429.239 81 427 78.7614 427 76V36Z" fill="#1E73FF"/>
<path d="M469.204 60.6667H467.424V52.7419H469.204V60.6667ZM467.314 50.6838C467.314 50.4104 467.4 50.1833 467.571 50.0027C467.747 49.822 467.996 49.7317 468.318 49.7317C468.64 49.7317 468.889 49.822 469.065 50.0027C469.241 50.1833 469.329 50.4104 469.329 50.6838C469.329 50.9524 469.241 51.177 469.065 51.3577C468.889 51.5334 468.64 51.6213 468.318 51.6213C467.996 51.6213 467.747 51.5334 467.571 51.3577C467.4 51.177 467.314 50.9524 467.314 50.6838ZM473.379 50.8157V52.7419H474.778V54.0603H473.379V58.4841C473.379 58.7869 473.438 59.0066 473.555 59.1433C473.677 59.2751 473.892 59.3411 474.199 59.3411C474.404 59.3411 474.612 59.3167 474.822 59.2678V60.6448C474.417 60.7571 474.026 60.8132 473.65 60.8132C472.283 60.8132 471.599 60.0588 471.599 58.55V54.0603H470.295V52.7419H471.599V50.8157H473.379ZM479.634 60.8132C478.506 60.8132 477.59 60.4592 476.887 59.7512C476.189 59.0383 475.84 58.0911 475.84 56.9094V56.6897C475.84 55.8987 475.991 55.1931 476.294 54.573C476.602 53.948 477.031 53.4622 477.583 53.1155C478.135 52.7688 478.75 52.5955 479.429 52.5955C480.508 52.5955 481.34 52.9397 481.926 53.6282C482.517 54.3167 482.812 55.2908 482.812 56.5505V57.2683H477.634C477.688 57.9226 477.905 58.4402 478.286 58.821C478.672 59.2019 479.155 59.3923 479.736 59.3923C480.552 59.3923 481.216 59.0627 481.729 58.4036L482.688 59.3191C482.371 59.7927 481.946 60.1614 481.414 60.425C480.886 60.6838 480.293 60.8132 479.634 60.8132ZM479.421 54.0237C478.933 54.0237 478.538 54.1946 478.235 54.5364C477.937 54.8782 477.747 55.3542 477.664 55.9646H481.055V55.8328C481.016 55.2371 480.857 54.7878 480.579 54.4851C480.3 54.1775 479.915 54.0237 479.421 54.0237ZM485.874 52.7419L485.925 53.5696C486.482 52.9202 487.244 52.5955 488.21 52.5955C489.27 52.5955 489.995 53.0007 490.386 53.8113C490.962 53.0007 491.772 52.5955 492.817 52.5955C493.691 52.5955 494.341 52.8372 494.766 53.3206C495.195 53.804 495.415 54.5168 495.425 55.4592V60.6667H493.645V55.5105C493.645 55.0076 493.535 54.6389 493.315 54.4045C493.096 54.1702 492.732 54.053 492.224 54.053C491.819 54.053 491.487 54.1628 491.228 54.3826C490.974 54.5974 490.796 54.8806 490.693 55.2322L490.701 60.6667H488.921V55.4519C488.896 54.5193 488.42 54.053 487.493 54.053C486.78 54.053 486.274 54.3435 485.977 54.9246V60.6667H484.197V52.7419H485.874ZM506.895 56.8655H508.22V58.2937H506.895V60.6667H505.115V58.2937H500.508L500.457 57.2097L505.056 50.0027H506.895V56.8655ZM502.324 56.8655H505.115V52.4124L504.983 52.6467L502.324 56.8655Z" fill="white"/>
<path d="M31 98C31 95.2386 33.2386 93 36 93H146C148.761 93 151 95.2386 151 98V138C151 140.761 148.761 143 146 143H36C33.2386 143 31 140.761 31 138V98Z" fill="#1E73FF"/>
<path d="M73.2041 122.667H71.4243V114.742H73.2041V122.667ZM71.3145 112.684C71.3145 112.41 71.3999 112.183 71.5708 112.003C71.7466 111.822 71.9956 111.732 72.3179 111.732C72.6401 111.732 72.8892 111.822 73.0649 112.003C73.2407 112.183 73.3286 112.41 73.3286 112.684C73.3286 112.952 73.2407 113.177 73.0649 113.358C72.8892 113.533 72.6401 113.621 72.3179 113.621C71.9956 113.621 71.7466 113.533 71.5708 113.358C71.3999 113.177 71.3145 112.952 71.3145 112.684ZM77.3789 112.816V114.742H78.7778V116.06H77.3789V120.484C77.3789 120.787 77.4375 121.007 77.5547 121.143C77.6768 121.275 77.8916 121.341 78.1992 121.341C78.4043 121.341 78.6118 121.317 78.8218 121.268V122.645C78.4165 122.757 78.0259 122.813 77.6499 122.813C76.2827 122.813 75.5991 122.059 75.5991 120.55V116.06H74.2954V114.742H75.5991V112.816H77.3789ZM83.6338 122.813C82.5059 122.813 81.5903 122.459 80.8872 121.751C80.189 121.038 79.8398 120.091 79.8398 118.909V118.69C79.8398 117.899 79.9912 117.193 80.2939 116.573C80.6016 115.948 81.0312 115.462 81.583 115.115C82.1348 114.769 82.75 114.595 83.4287 114.595C84.5078 114.595 85.3403 114.94 85.9263 115.628C86.5171 116.317 86.8125 117.291 86.8125 118.551V119.268H81.6343C81.688 119.923 81.9053 120.44 82.2861 120.821C82.6719 121.202 83.1553 121.392 83.7363 121.392C84.5518 121.392 85.2158 121.063 85.7285 120.404L86.688 121.319C86.3706 121.793 85.9458 122.161 85.4136 122.425C84.8862 122.684 84.293 122.813 83.6338 122.813ZM83.4214 116.024C82.9331 116.024 82.5376 116.195 82.2349 116.536C81.937 116.878 81.7466 117.354 81.6636 117.965H85.0547V117.833C85.0156 117.237 84.8569 116.788 84.5786 116.485C84.3003 116.177 83.9146 116.024 83.4214 116.024ZM89.874 114.742L89.9253 115.57C90.4819 114.92 91.2437 114.595 92.2104 114.595C93.27 114.595 93.9951 115.001 94.3857 115.811C94.9619 115.001 95.7725 114.595 96.8174 114.595C97.6914 114.595 98.3408 114.837 98.7656 115.321C99.1953 115.804 99.415 116.517 99.4248 117.459V122.667H97.645V117.51C97.645 117.008 97.5352 116.639 97.3154 116.405C97.0957 116.17 96.7319 116.053 96.2241 116.053C95.8188 116.053 95.4868 116.163 95.228 116.383C94.9741 116.597 94.7959 116.881 94.6934 117.232L94.7007 122.667H92.9209V117.452C92.8965 116.519 92.4204 116.053 91.4927 116.053C90.7798 116.053 90.2744 116.344 89.9766 116.925V122.667H88.1968V114.742H89.874ZM105.35 117.379L105.929 112.003H111.656V113.541H107.408L107.115 116.09C107.608 115.806 108.165 115.665 108.785 115.665C109.801 115.665 110.589 115.99 111.151 116.639C111.717 117.288 112 118.162 112 119.261C112 120.345 111.688 121.209 111.063 121.854C110.438 122.493 109.581 122.813 108.492 122.813C107.516 122.813 106.705 122.537 106.061 121.986C105.421 121.429 105.074 120.697 105.021 119.788H106.742C106.81 120.306 106.996 120.704 107.298 120.982C107.601 121.256 107.997 121.392 108.485 121.392C109.032 121.392 109.457 121.197 109.759 120.806C110.067 120.416 110.221 119.884 110.221 119.21C110.221 118.56 110.052 118.048 109.715 117.672C109.378 117.291 108.915 117.1 108.324 117.1C108.001 117.1 107.728 117.144 107.503 117.232C107.279 117.315 107.035 117.481 106.771 117.73L105.35 117.379Z" fill="white"/>
<path d="M163 98C163 95.2386 165.239 93 168 93H278C280.761 93 283 95.2386 283 98V138C283 140.761 280.761 143 278 143H168C165.239 143 163 140.761 163 138V98Z" fill="#1E73FF"/>
<path d="M205.204 122.667H203.424V114.742H205.204V122.667ZM203.314 112.684C203.314 112.41 203.4 112.183 203.571 112.003C203.747 111.822 203.996 111.732 204.318 111.732C204.64 111.732 204.889 111.822 205.065 112.003C205.241 112.183 205.329 112.41 205.329 112.684C205.329 112.952 205.241 113.177 205.065 113.358C204.889 113.533 204.64 113.621 204.318 113.621C203.996 113.621 203.747 113.533 203.571 113.358C203.4 113.177 203.314 112.952 203.314 112.684ZM209.379 112.816V114.742H210.778V116.06H209.379V120.484C209.379 120.787 209.438 121.007 209.555 121.143C209.677 121.275 209.892 121.341 210.199 121.341C210.404 121.341 210.612 121.317 210.822 121.268V122.645C210.417 122.757 210.026 122.813 209.65 122.813C208.283 122.813 207.599 122.059 207.599 120.55V116.06H206.295V114.742H207.599V112.816H209.379ZM215.634 122.813C214.506 122.813 213.59 122.459 212.887 121.751C212.189 121.038 211.84 120.091 211.84 118.909V118.69C211.84 117.899 211.991 117.193 212.294 116.573C212.602 115.948 213.031 115.462 213.583 115.115C214.135 114.769 214.75 114.595 215.429 114.595C216.508 114.595 217.34 114.94 217.926 115.628C218.517 116.317 218.812 117.291 218.812 118.551V119.268H213.634C213.688 119.923 213.905 120.44 214.286 120.821C214.672 121.202 215.155 121.392 215.736 121.392C216.552 121.392 217.216 121.063 217.729 120.404L218.688 121.319C218.371 121.793 217.946 122.161 217.414 122.425C216.886 122.684 216.293 122.813 215.634 122.813ZM215.421 116.024C214.933 116.024 214.538 116.195 214.235 116.536C213.937 116.878 213.747 117.354 213.664 117.965H217.055V117.833C217.016 117.237 216.857 116.788 216.579 116.485C216.3 116.177 215.915 116.024 215.421 116.024ZM221.874 114.742L221.925 115.57C222.482 114.92 223.244 114.595 224.21 114.595C225.27 114.595 225.995 115.001 226.386 115.811C226.962 115.001 227.772 114.595 228.817 114.595C229.691 114.595 230.341 114.837 230.766 115.321C231.195 115.804 231.415 116.517 231.425 117.459V122.667H229.645V117.51C229.645 117.008 229.535 116.639 229.315 116.405C229.096 116.17 228.732 116.053 228.224 116.053C227.819 116.053 227.487 116.163 227.228 116.383C226.974 116.597 226.796 116.881 226.693 117.232L226.701 122.667H224.921V117.452C224.896 116.519 224.42 116.053 223.493 116.053C222.78 116.053 222.274 116.344 221.977 116.925V122.667H220.197V114.742H221.874ZM242.411 111.951V113.424H242.191C241.195 113.438 240.399 113.712 239.804 114.244C239.208 114.776 238.854 115.531 238.742 116.507C239.313 115.906 240.043 115.606 240.932 115.606C241.874 115.606 242.616 115.938 243.158 116.602C243.705 117.266 243.979 118.123 243.979 119.173C243.979 120.257 243.659 121.136 243.019 121.81C242.384 122.479 241.549 122.813 240.514 122.813C239.45 122.813 238.585 122.42 237.921 121.634C237.262 120.848 236.933 119.818 236.933 118.543V117.935C236.933 116.065 237.387 114.6 238.295 113.541C239.208 112.481 240.519 111.951 242.228 111.951H242.411ZM240.5 117.042C240.109 117.042 239.75 117.152 239.423 117.371C239.101 117.591 238.864 117.884 238.712 118.25V118.792C238.712 119.583 238.878 120.213 239.21 120.682C239.542 121.146 239.972 121.378 240.5 121.378C241.027 121.378 241.444 121.18 241.752 120.784C242.06 120.389 242.213 119.869 242.213 119.224C242.213 118.58 242.057 118.055 241.745 117.65C241.432 117.244 241.017 117.042 240.5 117.042Z" fill="white"/>
<path d="M153.5 29L153.5 145" stroke="#BBBBBB" stroke-dasharray="3 2"/>
<path d="M160.5 29L160.5 145" stroke="#BBBBBB" stroke-dasharray="3 2"/>
<path d="M285.5 29L285.5 145" stroke="#BBBBBB" stroke-dasharray="3 2"/>
<path d="M292.5 29L292.5 145" stroke="#BBBBBB" stroke-dasharray="3 2"/>
<path d="M417.5 29L417.5 145" stroke="#BBBBBB" stroke-dasharray="3 2"/>
<path d="M424.5 29L424.5 145" stroke="#BBBBBB" stroke-dasharray="3 2"/>
<path d="M29 90.5L549 90.5" stroke="#BBBBBB" stroke-dasharray="3 2"/>
<path d="M29 83.5L549 83.5" stroke="#BBBBBB" stroke-dasharray="3 2"/>
<rect x="28" y="28" width="522" height="118" stroke="#AAAAAA" stroke-width="2"/>
<rect width="578" height="174" transform="translate(0 204)" fill="#F7F7F7"/>
<path d="M37 371C37 372.105 36.1046 373 35 373L21 373C19.8954 373 19 372.105 19 371L19 361.814C19 361.283 19.2112 360.774 19.587 360.399L26.587 353.411C27.3678 352.631 28.6323 352.631 29.413 353.411L36.413 360.399C36.7888 360.774 37 361.283 37 361.814L37 371Z" fill="#DDDDDD"/>
<path d="M26.1133 365.947H23.0371V364.799H26.1133V365.947ZM27.5781 364.77L28.041 360.469H32.623V361.699H29.2246L28.9902 363.738C29.3848 363.512 29.8301 363.398 30.3262 363.398C31.1387 363.398 31.7695 363.658 32.2188 364.178C32.6719 364.697 32.8984 365.396 32.8984 366.275C32.8984 367.143 32.6484 367.834 32.1484 368.35C31.6484 368.861 30.9629 369.117 30.0918 369.117C29.3105 369.117 28.6621 368.896 28.1465 368.455C27.6348 368.01 27.3574 367.424 27.3145 366.697H28.6914C28.7461 367.111 28.8945 367.43 29.1367 367.652C29.3789 367.871 29.6953 367.98 30.0859 367.98C30.5234 367.98 30.8633 367.824 31.1055 367.512C31.3516 367.199 31.4746 366.773 31.4746 366.234C31.4746 365.715 31.3398 365.305 31.0703 365.004C30.8008 364.699 30.4297 364.547 29.957 364.547C29.6992 364.547 29.4805 364.582 29.3008 364.652C29.1211 364.719 28.9258 364.852 28.7148 365.051L27.5781 364.77Z" fill="white"/>
<path d="M166 371C166 372.105 165.105 373 164 373L150 373C148.895 373 148 372.105 148 371L148 361.814C148 361.283 148.211 360.774 148.587 360.399L155.587 353.411C156.368 352.631 157.632 352.631 158.413 353.411L165.413 360.399C165.789 360.774 166 361.283 166 361.814L166 371Z" fill="#DDDDDD"/>
<path d="M155.113 365.947H152.037V364.799H155.113V365.947ZM161.014 365.959H162.074V367.102H161.014V369H159.59V367.102H155.904L155.863 366.234L159.543 360.469H161.014V365.959ZM157.357 365.959H159.59V362.396L159.484 362.584L157.357 365.959Z" fill="white"/>
<path d="M298 371C298 372.105 297.105 373 296 373L282 373C280.895 373 280 372.105 280 371L280 361.814C280 361.283 280.211 360.774 280.587 360.399L287.587 353.411C288.368 352.631 289.632 352.631 290.413 353.411L297.413 360.399C297.789 360.774 298 361.283 298 361.814L298 371Z" fill="#DDDDDD"/>
<path d="M287.113 365.947H284.037V364.799H287.113V365.947ZM289.844 364.084H290.711C291.148 364.08 291.494 363.967 291.748 363.744C292.006 363.521 292.135 363.199 292.135 362.777C292.135 362.371 292.027 362.057 291.812 361.834C291.602 361.607 291.277 361.494 290.84 361.494C290.457 361.494 290.143 361.605 289.896 361.828C289.65 362.047 289.527 362.334 289.527 362.689H288.104C288.104 362.252 288.219 361.854 288.449 361.494C288.684 361.135 289.008 360.855 289.422 360.656C289.84 360.453 290.307 360.352 290.822 360.352C291.674 360.352 292.342 360.566 292.826 360.996C293.314 361.422 293.559 362.016 293.559 362.777C293.559 363.16 293.436 363.521 293.189 363.861C292.947 364.197 292.633 364.451 292.246 364.623C292.715 364.783 293.07 365.035 293.312 365.379C293.559 365.723 293.682 366.133 293.682 366.609C293.682 367.375 293.418 367.984 292.891 368.438C292.367 368.891 291.678 369.117 290.822 369.117C290.002 369.117 289.33 368.898 288.807 368.461C288.283 368.023 288.021 367.441 288.021 366.715H289.445C289.445 367.09 289.57 367.395 289.82 367.629C290.074 367.863 290.414 367.98 290.84 367.98C291.281 367.98 291.629 367.863 291.883 367.629C292.137 367.395 292.264 367.055 292.264 366.609C292.264 366.16 292.131 365.814 291.865 365.572C291.6 365.33 291.205 365.209 290.682 365.209H289.844V364.084Z" fill="white"/>
<path d="M430 371C430 372.105 429.105 373 428 373L414 373C412.895 373 412 372.105 412 371L412 361.814C412 361.283 412.211 360.774 412.587 360.399L419.587 353.411C420.368 352.631 421.632 352.631 422.413 353.411L429.413 360.399C429.789 360.774 430 361.283 430 361.814L430 371Z" fill="#DDDDDD"/>
<path d="M419.113 365.947H416.037V364.799H419.113V365.947ZM425.934 369H420.197V368.021L423.039 364.922C423.449 364.465 423.74 364.084 423.912 363.779C424.088 363.471 424.176 363.162 424.176 362.854C424.176 362.447 424.061 362.119 423.83 361.869C423.604 361.619 423.297 361.494 422.91 361.494C422.449 361.494 422.092 361.635 421.838 361.916C421.584 362.197 421.457 362.582 421.457 363.07H420.033C420.033 362.551 420.15 362.084 420.385 361.67C420.623 361.252 420.961 360.928 421.398 360.697C421.84 360.467 422.348 360.352 422.922 360.352C423.75 360.352 424.402 360.561 424.879 360.979C425.359 361.393 425.6 361.967 425.6 362.701C425.6 363.127 425.479 363.574 425.236 364.043C424.998 364.508 424.605 365.037 424.059 365.631L421.973 367.863H425.934V369Z" fill="white"/>
<path d="M559 371C559 372.105 558.105 373 557 373L543 373C541.895 373 541 372.105 541 371L541 361.814C541 361.283 541.211 360.774 541.587 360.399L548.587 353.411C549.368 352.631 550.632 352.631 551.413 353.411L558.413 360.399C558.789 360.774 559 361.283 559 361.814L559 371Z" fill="#DDDDDD"/>
<path d="M548.113 365.947H545.037V364.799H548.113V365.947ZM553.053 369H551.635V362.15L549.543 362.865V361.664L552.871 360.439H553.053V369Z" fill="white"/>
<path d="M19 211C19 209.895 19.8954 209 21 209H35C36.1046 209 37 209.895 37 211V220.186C37 220.717 36.7888 221.226 36.413 221.601L29.413 228.589C28.6323 229.369 27.3677 229.369 26.587 228.589L19.587 221.601C19.2112 221.226 19 220.717 19 220.186V211Z" fill="#CCCCCC"/>
<path d="M29.084 221H27.666V214.15L25.5742 214.865V213.664L28.9023 212.439H29.084V221Z" fill="white"/>
<path d="M148 211C148 209.895 148.895 209 150 209H164C165.105 209 166 209.895 166 211V220.186C166 220.717 165.789 221.226 165.413 221.601L158.413 228.589C157.632 229.369 156.368 229.369 155.587 228.589L148.587 221.601C148.211 221.226 148 220.717 148 220.186V211Z" fill="#CCCCCC"/>
<path d="M159.965 221H154.229V220.021L157.07 216.922C157.48 216.465 157.771 216.084 157.943 215.779C158.119 215.471 158.207 215.162 158.207 214.854C158.207 214.447 158.092 214.119 157.861 213.869C157.635 213.619 157.328 213.494 156.941 213.494C156.48 213.494 156.123 213.635 155.869 213.916C155.615 214.197 155.488 214.582 155.488 215.07H154.064C154.064 214.551 154.182 214.084 154.416 213.67C154.654 213.252 154.992 212.928 155.43 212.697C155.871 212.467 156.379 212.352 156.953 212.352C157.781 212.352 158.434 212.561 158.91 212.979C159.391 213.393 159.631 213.967 159.631 214.701C159.631 215.127 159.51 215.574 159.268 216.043C159.029 216.508 158.637 217.037 158.09 217.631L156.004 219.863H159.965V221Z" fill="white"/>
<path d="M280 211C280 209.895 280.895 209 282 209H296C297.105 209 298 209.895 298 211V220.186C298 220.717 297.789 221.226 297.413 221.601L290.413 228.589C289.632 229.369 288.368 229.369 287.587 228.589L280.587 221.601C280.211 221.226 280 220.717 280 220.186V211Z" fill="#CCCCCC"/>
<path d="M287.875 216.084H288.742C289.18 216.08 289.525 215.967 289.779 215.744C290.037 215.521 290.166 215.199 290.166 214.777C290.166 214.371 290.059 214.057 289.844 213.834C289.633 213.607 289.309 213.494 288.871 213.494C288.488 213.494 288.174 213.605 287.928 213.828C287.682 214.047 287.559 214.334 287.559 214.689H286.135C286.135 214.252 286.25 213.854 286.48 213.494C286.715 213.135 287.039 212.855 287.453 212.656C287.871 212.453 288.338 212.352 288.854 212.352C289.705 212.352 290.373 212.566 290.857 212.996C291.346 213.422 291.59 214.016 291.59 214.777C291.59 215.16 291.467 215.521 291.221 215.861C290.979 216.197 290.664 216.451 290.277 216.623C290.746 216.783 291.102 217.035 291.344 217.379C291.59 217.723 291.713 218.133 291.713 218.609C291.713 219.375 291.449 219.984 290.922 220.438C290.398 220.891 289.709 221.117 288.854 221.117C288.033 221.117 287.361 220.898 286.838 220.461C286.314 220.023 286.053 219.441 286.053 218.715H287.477C287.477 219.09 287.602 219.395 287.852 219.629C288.105 219.863 288.445 219.98 288.871 219.98C289.312 219.98 289.66 219.863 289.914 219.629C290.168 219.395 290.295 219.055 290.295 218.609C290.295 218.16 290.162 217.814 289.896 217.572C289.631 217.33 289.236 217.209 288.713 217.209H287.875V216.084Z" fill="white"/>
<path d="M412 211C412 209.895 412.895 209 414 209H428C429.105 209 430 209.895 430 211V220.186C430 220.717 429.789 221.226 429.413 221.601L422.413 228.589C421.632 229.369 420.368 229.369 419.587 228.589L412.587 221.601C412.211 221.226 412 220.717 412 220.186V211Z" fill="#CCCCCC"/>
<path d="M423.045 217.959H424.105V219.102H423.045V221H421.621V219.102H417.936L417.895 218.234L421.574 212.469H423.045V217.959ZM419.389 217.959H421.621V214.396L421.516 214.584L419.389 217.959Z" fill="white"/>
<path d="M541 211C541 209.895 541.895 209 543 209H557C558.105 209 559 209.895 559 211V220.186C559 220.717 558.789 221.226 558.413 221.601L551.413 228.589C550.632 229.369 549.368 229.369 548.587 228.589L541.587 221.601C541.211 221.226 541 220.717 541 220.186V211Z" fill="#CCCCCC"/>
<path d="M547.609 216.77L548.072 212.469H552.654V213.699H549.256L549.021 215.738C549.416 215.512 549.861 215.398 550.357 215.398C551.17 215.398 551.801 215.658 552.25 216.178C552.703 216.697 552.93 217.396 552.93 218.275C552.93 219.143 552.68 219.834 552.18 220.35C551.68 220.861 550.994 221.117 550.123 221.117C549.342 221.117 548.693 220.896 548.178 220.455C547.666 220.01 547.389 219.424 547.346 218.697H548.723C548.777 219.111 548.926 219.43 549.168 219.652C549.41 219.871 549.727 219.98 550.117 219.98C550.555 219.98 550.895 219.824 551.137 219.512C551.383 219.199 551.506 218.773 551.506 218.234C551.506 217.715 551.371 217.305 551.102 217.004C550.832 216.699 550.461 216.547 549.988 216.547C549.73 216.547 549.512 216.582 549.332 216.652C549.152 216.719 548.957 216.852 548.746 217.051L547.609 216.77Z" fill="white"/>
<path d="M7 241C5.89543 241 5 240.105 5 239L5 225C5 223.895 5.89543 223 7 223L16.1857 223C16.7167 223 17.2259 223.211 17.6011 223.587L24.5894 230.587C25.3688 231.368 25.3688 232.632 24.5894 233.413L17.6011 240.413C17.2259 240.789 16.7167 241 16.1857 241L7 241Z" fill="#CCCCCC"/>
<path d="M14.084 236H12.666V229.15L10.5742 229.865V228.664L13.9023 227.439H14.084V236Z" fill="white"/>
<path d="M7 300C5.89543 300 5 299.105 5 298L5 284C5 282.895 5.89543 282 7 282L16.1857 282C16.7167 282 17.2259 282.211 17.6011 282.587L24.5894 289.587C25.3688 290.368 25.3688 291.632 24.5894 292.413L17.6011 299.413C17.2259 299.789 16.7167 300 16.1857 300L7 300Z" fill="#CCCCCC"/>
<path d="M15.9648 295H10.2285V294.021L13.0703 290.922C13.4805 290.465 13.7715 290.084 13.9434 289.779C14.1191 289.471 14.207 289.162 14.207 288.854C14.207 288.447 14.0918 288.119 13.8613 287.869C13.6348 287.619 13.3281 287.494 12.9414 287.494C12.4805 287.494 12.123 287.635 11.8691 287.916C11.6152 288.197 11.4883 288.582 11.4883 289.07H10.0645C10.0645 288.551 10.1816 288.084 10.416 287.67C10.6543 287.252 10.9922 286.928 11.4297 286.697C11.8711 286.467 12.3789 286.352 12.9531 286.352C13.7812 286.352 14.4336 286.561 14.9102 286.979C15.3906 287.393 15.6309 287.967 15.6309 288.701C15.6309 289.127 15.5098 289.574 15.2676 290.043C15.0293 290.508 14.6367 291.037 14.0898 291.631L12.0039 293.863H15.9648V295Z" fill="white"/>
<path d="M7 359C5.89543 359 5 358.105 5 357L5 343C5 341.895 5.89543 341 7 341L16.1857 341C16.7167 341 17.2259 341.211 17.6011 341.587L24.5894 348.587C25.3688 349.368 25.3688 350.632 24.5894 351.413L17.6011 358.413C17.2259 358.789 16.7167 359 16.1857 359L7 359Z" fill="#CCCCCC"/>
<path d="M11.875 349.084H12.7422C13.1797 349.08 13.5254 348.967 13.7793 348.744C14.0371 348.521 14.166 348.199 14.166 347.777C14.166 347.371 14.0586 347.057 13.8438 346.834C13.6328 346.607 13.3086 346.494 12.8711 346.494C12.4883 346.494 12.1738 346.605 11.9277 346.828C11.6816 347.047 11.5586 347.334 11.5586 347.689H10.1348C10.1348 347.252 10.25 346.854 10.4805 346.494C10.7148 346.135 11.0391 345.855 11.4531 345.656C11.8711 345.453 12.3379 345.352 12.8535 345.352C13.7051 345.352 14.373 345.566 14.8574 345.996C15.3457 346.422 15.5898 347.016 15.5898 347.777C15.5898 348.16 15.4668 348.521 15.2207 348.861C14.9785 349.197 14.6641 349.451 14.2773 349.623C14.7461 349.783 15.1016 350.035 15.3438 350.379C15.5898 350.723 15.7129 351.133 15.7129 351.609C15.7129 352.375 15.4492 352.984 14.9219 353.438C14.3984 353.891 13.709 354.117 12.8535 354.117C12.0332 354.117 11.3613 353.898 10.8379 353.461C10.3145 353.023 10.0527 352.441 10.0527 351.715H11.4766C11.4766 352.09 11.6016 352.395 11.8516 352.629C12.1055 352.863 12.4453 352.98 12.8711 352.98C13.3125 352.98 13.6602 352.863 13.9141 352.629C14.168 352.395 14.2949 352.055 14.2949 351.609C14.2949 351.16 14.1621 350.814 13.8965 350.572C13.6309 350.33 13.2363 350.209 12.7129 350.209H11.875V349.084Z" fill="white"/>
<path d="M571 223C572.105 223 573 223.895 573 225L573 239C573 240.105 572.105 241 571 241L561.814 241C561.283 241 560.774 240.789 560.399 240.413L553.411 233.413C552.631 232.632 552.631 231.368 553.411 230.587L560.399 223.587C560.774 223.211 561.283 223 561.814 223L571 223Z" fill="#DDDDDD"/>
<path d="M563.113 232.947H560.037V231.799H563.113V232.947ZM565.844 231.084H566.711C567.148 231.08 567.494 230.967 567.748 230.744C568.006 230.521 568.135 230.199 568.135 229.777C568.135 229.371 568.027 229.057 567.812 228.834C567.602 228.607 567.277 228.494 566.84 228.494C566.457 228.494 566.143 228.605 565.896 228.828C565.65 229.047 565.527 229.334 565.527 229.689H564.104C564.104 229.252 564.219 228.854 564.449 228.494C564.684 228.135 565.008 227.855 565.422 227.656C565.84 227.453 566.307 227.352 566.822 227.352C567.674 227.352 568.342 227.566 568.826 227.996C569.314 228.422 569.559 229.016 569.559 229.777C569.559 230.16 569.436 230.521 569.189 230.861C568.947 231.197 568.633 231.451 568.246 231.623C568.715 231.783 569.07 232.035 569.312 232.379C569.559 232.723 569.682 233.133 569.682 233.609C569.682 234.375 569.418 234.984 568.891 235.438C568.367 235.891 567.678 236.117 566.822 236.117C566.002 236.117 565.33 235.898 564.807 235.461C564.283 235.023 564.021 234.441 564.021 233.715H565.445C565.445 234.09 565.57 234.395 565.82 234.629C566.074 234.863 566.414 234.98 566.84 234.98C567.281 234.98 567.629 234.863 567.883 234.629C568.137 234.395 568.264 234.055 568.264 233.609C568.264 233.16 568.131 232.814 567.865 232.572C567.6 232.33 567.205 232.209 566.682 232.209H565.844V231.084Z" fill="white"/>
<path d="M571 282C572.105 282 573 282.895 573 284L573 298C573 299.105 572.105 300 571 300L561.814 300C561.283 300 560.774 299.789 560.399 299.413L553.411 292.413C552.631 291.632 552.631 290.368 553.411 289.587L560.399 282.587C560.774 282.211 561.283 282 561.814 282L571 282Z" fill="#DDDDDD"/>
<path d="M563.113 291.947H560.037V290.799H563.113V291.947ZM569.934 295H564.197V294.021L567.039 290.922C567.449 290.465 567.74 290.084 567.912 289.779C568.088 289.471 568.176 289.162 568.176 288.854C568.176 288.447 568.061 288.119 567.83 287.869C567.604 287.619 567.297 287.494 566.91 287.494C566.449 287.494 566.092 287.635 565.838 287.916C565.584 288.197 565.457 288.582 565.457 289.07H564.033C564.033 288.551 564.15 288.084 564.385 287.67C564.623 287.252 564.961 286.928 565.398 286.697C565.84 286.467 566.348 286.352 566.922 286.352C567.75 286.352 568.402 286.561 568.879 286.979C569.359 287.393 569.6 287.967 569.6 288.701C569.6 289.127 569.479 289.574 569.236 290.043C568.998 290.508 568.605 291.037 568.059 291.631L565.973 293.863H569.934V295Z" fill="white"/>
<path d="M571 341C572.105 341 573 341.895 573 343L573 357C573 358.105 572.105 359 571 359L561.814 359C561.283 359 560.774 358.789 560.399 358.413L553.411 351.413C552.631 350.632 552.631 349.368 553.411 348.587L560.399 341.587C560.774 341.211 561.283 341 561.814 341L571 341Z" fill="#DDDDDD"/>
<path d="M563.113 350.947H560.037V349.799H563.113V350.947ZM568.053 354H566.635V347.15L564.543 347.865V346.664L567.871 345.439H568.053V354Z" fill="white"/>
<rect x="28" y="232" width="522" height="118" fill="white"/>
<path d="M31 240C31 237.239 33.2386 235 36 235H146C148.761 235 151 237.239 151 240V280C151 282.761 148.761 285 146 285H36C33.2386 285 31 282.761 31 280V240Z" fill="#1E73FF"/>
<path d="M73.2041 264.667H71.4243V256.742H73.2041V264.667ZM71.3145 254.684C71.3145 254.41 71.3999 254.183 71.5708 254.003C71.7466 253.822 71.9956 253.732 72.3179 253.732C72.6401 253.732 72.8892 253.822 73.0649 254.003C73.2407 254.183 73.3286 254.41 73.3286 254.684C73.3286 254.952 73.2407 255.177 73.0649 255.358C72.8892 255.533 72.6401 255.621 72.3179 255.621C71.9956 255.621 71.7466 255.533 71.5708 255.358C71.3999 255.177 71.3145 254.952 71.3145 254.684ZM77.3789 254.816V256.742H78.7778V258.06H77.3789V262.484C77.3789 262.787 77.4375 263.007 77.5547 263.143C77.6768 263.275 77.8916 263.341 78.1992 263.341C78.4043 263.341 78.6118 263.317 78.8218 263.268V264.645C78.4165 264.757 78.0259 264.813 77.6499 264.813C76.2827 264.813 75.5991 264.059 75.5991 262.55V258.06H74.2954V256.742H75.5991V254.816H77.3789ZM83.6338 264.813C82.5059 264.813 81.5903 264.459 80.8872 263.751C80.189 263.038 79.8398 262.091 79.8398 260.909V260.69C79.8398 259.899 79.9912 259.193 80.2939 258.573C80.6016 257.948 81.0312 257.462 81.583 257.115C82.1348 256.769 82.75 256.595 83.4287 256.595C84.5078 256.595 85.3403 256.94 85.9263 257.628C86.5171 258.317 86.8125 259.291 86.8125 260.551V261.268H81.6343C81.688 261.923 81.9053 262.44 82.2861 262.821C82.6719 263.202 83.1553 263.392 83.7363 263.392C84.5518 263.392 85.2158 263.063 85.7285 262.404L86.688 263.319C86.3706 263.793 85.9458 264.161 85.4136 264.425C84.8862 264.684 84.293 264.813 83.6338 264.813ZM83.4214 258.024C82.9331 258.024 82.5376 258.195 82.2349 258.536C81.937 258.878 81.7466 259.354 81.6636 259.965H85.0547V259.833C85.0156 259.237 84.8569 258.788 84.5786 258.485C84.3003 258.177 83.9146 258.024 83.4214 258.024ZM89.874 256.742L89.9253 257.57C90.4819 256.92 91.2437 256.595 92.2104 256.595C93.27 256.595 93.9951 257.001 94.3857 257.811C94.9619 257.001 95.7725 256.595 96.8174 256.595C97.6914 256.595 98.3408 256.837 98.7656 257.321C99.1953 257.804 99.415 258.517 99.4248 259.459V264.667H97.645V259.51C97.645 259.008 97.5352 258.639 97.3154 258.405C97.0957 258.17 96.7319 258.053 96.2241 258.053C95.8188 258.053 95.4868 258.163 95.228 258.383C94.9741 258.597 94.7959 258.881 94.6934 259.232L94.7007 264.667H92.9209V259.452C92.8965 258.519 92.4204 258.053 91.4927 258.053C90.7798 258.053 90.2744 258.344 89.9766 258.925V264.667H88.1968V256.742H89.874ZM109.693 264.667H107.921V256.105L105.306 256.998V255.497L109.466 253.966H109.693V264.667Z" fill="white"/>
<path d="M163 240C163 237.239 165.239 235 168 235H278C280.761 235 283 237.239 283 240V280C283 282.761 280.761 285 278 285H168C165.239 285 163 282.761 163 280V240Z" fill="#1E73FF"/>
<path d="M205.204 264.667H203.424V256.742H205.204V264.667ZM203.314 254.684C203.314 254.41 203.4 254.183 203.571 254.003C203.747 253.822 203.996 253.732 204.318 253.732C204.64 253.732 204.889 253.822 205.065 254.003C205.241 254.183 205.329 254.41 205.329 254.684C205.329 254.952 205.241 255.177 205.065 255.358C204.889 255.533 204.64 255.621 204.318 255.621C203.996 255.621 203.747 255.533 203.571 255.358C203.4 255.177 203.314 254.952 203.314 254.684ZM209.379 254.816V256.742H210.778V258.06H209.379V262.484C209.379 262.787 209.438 263.007 209.555 263.143C209.677 263.275 209.892 263.341 210.199 263.341C210.404 263.341 210.612 263.317 210.822 263.268V264.645C210.417 264.757 210.026 264.813 209.65 264.813C208.283 264.813 207.599 264.059 207.599 262.55V258.06H206.295V256.742H207.599V254.816H209.379ZM215.634 264.813C214.506 264.813 213.59 264.459 212.887 263.751C212.189 263.038 211.84 262.091 211.84 260.909V260.69C211.84 259.899 211.991 259.193 212.294 258.573C212.602 257.948 213.031 257.462 213.583 257.115C214.135 256.769 214.75 256.595 215.429 256.595C216.508 256.595 217.34 256.94 217.926 257.628C218.517 258.317 218.812 259.291 218.812 260.551V261.268H213.634C213.688 261.923 213.905 262.44 214.286 262.821C214.672 263.202 215.155 263.392 215.736 263.392C216.552 263.392 217.216 263.063 217.729 262.404L218.688 263.319C218.371 263.793 217.946 264.161 217.414 264.425C216.886 264.684 216.293 264.813 215.634 264.813ZM215.421 258.024C214.933 258.024 214.538 258.195 214.235 258.536C213.937 258.878 213.747 259.354 213.664 259.965H217.055V259.833C217.016 259.237 216.857 258.788 216.579 258.485C216.3 258.177 215.915 258.024 215.421 258.024ZM221.874 256.742L221.925 257.57C222.482 256.92 223.244 256.595 224.21 256.595C225.27 256.595 225.995 257.001 226.386 257.811C226.962 257.001 227.772 256.595 228.817 256.595C229.691 256.595 230.341 256.837 230.766 257.321C231.195 257.804 231.415 258.517 231.425 259.459V264.667H229.645V259.51C229.645 259.008 229.535 258.639 229.315 258.405C229.096 258.17 228.732 258.053 228.224 258.053C227.819 258.053 227.487 258.163 227.228 258.383C226.974 258.597 226.796 258.881 226.693 259.232L226.701 264.667H224.921V259.452C224.896 258.519 224.42 258.053 223.493 258.053C222.78 258.053 222.274 258.344 221.977 258.925V264.667H220.197V256.742H221.874ZM238.932 258.522H240.016C240.563 258.517 240.995 258.375 241.312 258.097C241.635 257.819 241.796 257.416 241.796 256.888C241.796 256.381 241.662 255.988 241.393 255.709C241.129 255.426 240.724 255.284 240.177 255.284C239.699 255.284 239.306 255.424 238.998 255.702C238.69 255.975 238.537 256.334 238.537 256.779H236.757C236.757 256.232 236.901 255.734 237.189 255.284C237.482 254.835 237.887 254.486 238.405 254.237C238.927 253.983 239.511 253.856 240.155 253.856C241.22 253.856 242.055 254.125 242.66 254.662C243.271 255.194 243.576 255.936 243.576 256.888C243.576 257.367 243.422 257.819 243.114 258.243C242.812 258.663 242.418 258.981 241.935 259.196C242.521 259.396 242.965 259.711 243.268 260.14C243.576 260.57 243.729 261.083 243.729 261.678C243.729 262.635 243.4 263.397 242.741 263.964C242.086 264.53 241.225 264.813 240.155 264.813C239.13 264.813 238.29 264.54 237.636 263.993C236.981 263.446 236.654 262.719 236.654 261.81H238.434C238.434 262.279 238.59 262.66 238.903 262.953C239.22 263.246 239.645 263.392 240.177 263.392C240.729 263.392 241.164 263.246 241.481 262.953C241.798 262.66 241.957 262.235 241.957 261.678C241.957 261.117 241.791 260.685 241.459 260.382C241.127 260.079 240.634 259.928 239.979 259.928H238.932V258.522Z" fill="white"/>
<path d="M295 240C295 237.239 297.239 235 300 235H410C412.761 235 415 237.239 415 240V280C415 282.761 412.761 285 410 285H300C297.239 285 295 282.761 295 280V240Z" fill="#1E73FF"/>
<path d="M337.204 264.667H335.424V256.742H337.204V264.667ZM335.314 254.684C335.314 254.41 335.4 254.183 335.571 254.003C335.747 253.822 335.996 253.732 336.318 253.732C336.64 253.732 336.889 253.822 337.065 254.003C337.241 254.183 337.329 254.41 337.329 254.684C337.329 254.952 337.241 255.177 337.065 255.358C336.889 255.533 336.64 255.621 336.318 255.621C335.996 255.621 335.747 255.533 335.571 255.358C335.4 255.177 335.314 254.952 335.314 254.684ZM341.379 254.816V256.742H342.778V258.06H341.379V262.484C341.379 262.787 341.438 263.007 341.555 263.143C341.677 263.275 341.892 263.341 342.199 263.341C342.404 263.341 342.612 263.317 342.822 263.268V264.645C342.417 264.757 342.026 264.813 341.65 264.813C340.283 264.813 339.599 264.059 339.599 262.55V258.06H338.295V256.742H339.599V254.816H341.379ZM347.634 264.813C346.506 264.813 345.59 264.459 344.887 263.751C344.189 263.038 343.84 262.091 343.84 260.909V260.69C343.84 259.899 343.991 259.193 344.294 258.573C344.602 257.948 345.031 257.462 345.583 257.115C346.135 256.769 346.75 256.595 347.429 256.595C348.508 256.595 349.34 256.94 349.926 257.628C350.517 258.317 350.812 259.291 350.812 260.551V261.268H345.634C345.688 261.923 345.905 262.44 346.286 262.821C346.672 263.202 347.155 263.392 347.736 263.392C348.552 263.392 349.216 263.063 349.729 262.404L350.688 263.319C350.371 263.793 349.946 264.161 349.414 264.425C348.886 264.684 348.293 264.813 347.634 264.813ZM347.421 258.024C346.933 258.024 346.538 258.195 346.235 258.536C345.937 258.878 345.747 259.354 345.664 259.965H349.055V259.833C349.016 259.237 348.857 258.788 348.579 258.485C348.3 258.177 347.915 258.024 347.421 258.024ZM353.874 256.742L353.925 257.57C354.482 256.92 355.244 256.595 356.21 256.595C357.27 256.595 357.995 257.001 358.386 257.811C358.962 257.001 359.772 256.595 360.817 256.595C361.691 256.595 362.341 256.837 362.766 257.321C363.195 257.804 363.415 258.517 363.425 259.459V264.667H361.645V259.51C361.645 259.008 361.535 258.639 361.315 258.405C361.096 258.17 360.732 258.053 360.224 258.053C359.819 258.053 359.487 258.163 359.228 258.383C358.974 258.597 358.796 258.881 358.693 259.232L358.701 264.667H356.921V259.452C356.896 258.519 356.42 258.053 355.493 258.053C354.78 258.053 354.274 258.344 353.977 258.925V264.667H352.197V256.742H353.874ZM369.35 259.379L369.929 254.003H375.656V255.541H371.408L371.115 258.09C371.608 257.806 372.165 257.665 372.785 257.665C373.801 257.665 374.589 257.99 375.151 258.639C375.717 259.288 376 260.162 376 261.261C376 262.345 375.688 263.209 375.063 263.854C374.438 264.493 373.581 264.813 372.492 264.813C371.516 264.813 370.705 264.537 370.061 263.986C369.421 263.429 369.074 262.697 369.021 261.788H370.742C370.81 262.306 370.996 262.704 371.298 262.982C371.601 263.256 371.997 263.392 372.485 263.392C373.032 263.392 373.457 263.197 373.759 262.806C374.067 262.416 374.221 261.884 374.221 261.21C374.221 260.56 374.052 260.048 373.715 259.672C373.378 259.291 372.915 259.1 372.324 259.1C372.001 259.1 371.728 259.144 371.503 259.232C371.279 259.315 371.035 259.481 370.771 259.73L369.35 259.379Z" fill="white"/>
<path d="M31 302C31 299.239 33.2386 297 36 297H146C148.761 297 151 299.239 151 302V342C151 344.761 148.761 347 146 347H36C33.2386 347 31 344.761 31 342V302Z" fill="#1E73FF"/>
<path d="M73.2041 326.667H71.4243V318.742H73.2041V326.667ZM71.3145 316.684C71.3145 316.41 71.3999 316.183 71.5708 316.003C71.7466 315.822 71.9956 315.732 72.3179 315.732C72.6401 315.732 72.8892 315.822 73.0649 316.003C73.2407 316.183 73.3286 316.41 73.3286 316.684C73.3286 316.952 73.2407 317.177 73.0649 317.358C72.8892 317.533 72.6401 317.621 72.3179 317.621C71.9956 317.621 71.7466 317.533 71.5708 317.358C71.3999 317.177 71.3145 316.952 71.3145 316.684ZM77.3789 316.816V318.742H78.7778V320.06H77.3789V324.484C77.3789 324.787 77.4375 325.007 77.5547 325.143C77.6768 325.275 77.8916 325.341 78.1992 325.341C78.4043 325.341 78.6118 325.317 78.8218 325.268V326.645C78.4165 326.757 78.0259 326.813 77.6499 326.813C76.2827 326.813 75.5991 326.059 75.5991 324.55V320.06H74.2954V318.742H75.5991V316.816H77.3789ZM83.6338 326.813C82.5059 326.813 81.5903 326.459 80.8872 325.751C80.189 325.038 79.8398 324.091 79.8398 322.909V322.69C79.8398 321.899 79.9912 321.193 80.2939 320.573C80.6016 319.948 81.0312 319.462 81.583 319.115C82.1348 318.769 82.75 318.595 83.4287 318.595C84.5078 318.595 85.3403 318.94 85.9263 319.628C86.5171 320.317 86.8125 321.291 86.8125 322.551V323.268H81.6343C81.688 323.923 81.9053 324.44 82.2861 324.821C82.6719 325.202 83.1553 325.392 83.7363 325.392C84.5518 325.392 85.2158 325.063 85.7285 324.404L86.688 325.319C86.3706 325.793 85.9458 326.161 85.4136 326.425C84.8862 326.684 84.293 326.813 83.6338 326.813ZM83.4214 320.024C82.9331 320.024 82.5376 320.195 82.2349 320.536C81.937 320.878 81.7466 321.354 81.6636 321.965H85.0547V321.833C85.0156 321.237 84.8569 320.788 84.5786 320.485C84.3003 320.177 83.9146 320.024 83.4214 320.024ZM89.874 318.742L89.9253 319.57C90.4819 318.92 91.2437 318.595 92.2104 318.595C93.27 318.595 93.9951 319.001 94.3857 319.811C94.9619 319.001 95.7725 318.595 96.8174 318.595C97.6914 318.595 98.3408 318.837 98.7656 319.321C99.1953 319.804 99.415 320.517 99.4248 321.459V326.667H97.645V321.51C97.645 321.008 97.5352 320.639 97.3154 320.405C97.0957 320.17 96.7319 320.053 96.2241 320.053C95.8188 320.053 95.4868 320.163 95.228 320.383C94.9741 320.597 94.7959 320.881 94.6934 321.232L94.7007 326.667H92.9209V321.452C92.8965 320.519 92.4204 320.053 91.4927 320.053C90.7798 320.053 90.2744 320.344 89.9766 320.925V326.667H88.1968V318.742H89.874ZM112.044 326.667H104.874V325.444L108.426 321.569C108.939 320.998 109.303 320.522 109.518 320.141C109.737 319.755 109.847 319.369 109.847 318.984C109.847 318.476 109.703 318.066 109.415 317.753C109.132 317.441 108.749 317.284 108.265 317.284C107.689 317.284 107.242 317.46 106.925 317.812C106.607 318.163 106.449 318.644 106.449 319.255H104.669C104.669 318.605 104.815 318.022 105.108 317.504C105.406 316.982 105.829 316.576 106.375 316.288C106.927 316 107.562 315.856 108.28 315.856C109.315 315.856 110.13 316.117 110.726 316.64C111.327 317.157 111.627 317.875 111.627 318.793C111.627 319.325 111.476 319.885 111.173 320.47C110.875 321.052 110.384 321.713 109.701 322.455L107.093 325.246H112.044V326.667Z" fill="white"/>
<path d="M163 302C163 299.239 165.239 297 168 297H278C280.761 297 283 299.239 283 302V342C283 344.761 280.761 347 278 347H168C165.239 347 163 344.761 163 342V302Z" fill="#1E73FF"/>
<path d="M205.204 326.667H203.424V318.742H205.204V326.667ZM203.314 316.684C203.314 316.41 203.4 316.183 203.571 316.003C203.747 315.822 203.996 315.732 204.318 315.732C204.64 315.732 204.889 315.822 205.065 316.003C205.241 316.183 205.329 316.41 205.329 316.684C205.329 316.952 205.241 317.177 205.065 317.358C204.889 317.533 204.64 317.621 204.318 317.621C203.996 317.621 203.747 317.533 203.571 317.358C203.4 317.177 203.314 316.952 203.314 316.684ZM209.379 316.816V318.742H210.778V320.06H209.379V324.484C209.379 324.787 209.438 325.007 209.555 325.143C209.677 325.275 209.892 325.341 210.199 325.341C210.404 325.341 210.612 325.317 210.822 325.268V326.645C210.417 326.757 210.026 326.813 209.65 326.813C208.283 326.813 207.599 326.059 207.599 324.55V320.06H206.295V318.742H207.599V316.816H209.379ZM215.634 326.813C214.506 326.813 213.59 326.459 212.887 325.751C212.189 325.038 211.84 324.091 211.84 322.909V322.69C211.84 321.899 211.991 321.193 212.294 320.573C212.602 319.948 213.031 319.462 213.583 319.115C214.135 318.769 214.75 318.595 215.429 318.595C216.508 318.595 217.34 318.94 217.926 319.628C218.517 320.317 218.812 321.291 218.812 322.551V323.268H213.634C213.688 323.923 213.905 324.44 214.286 324.821C214.672 325.202 215.155 325.392 215.736 325.392C216.552 325.392 217.216 325.063 217.729 324.404L218.688 325.319C218.371 325.793 217.946 326.161 217.414 326.425C216.886 326.684 216.293 326.813 215.634 326.813ZM215.421 320.024C214.933 320.024 214.538 320.195 214.235 320.536C213.937 320.878 213.747 321.354 213.664 321.965H217.055V321.833C217.016 321.237 216.857 320.788 216.579 320.485C216.3 320.177 215.915 320.024 215.421 320.024ZM221.874 318.742L221.925 319.57C222.482 318.92 223.244 318.595 224.21 318.595C225.27 318.595 225.995 319.001 226.386 319.811C226.962 319.001 227.772 318.595 228.817 318.595C229.691 318.595 230.341 318.837 230.766 319.321C231.195 319.804 231.415 320.517 231.425 321.459V326.667H229.645V321.51C229.645 321.008 229.535 320.639 229.315 320.405C229.096 320.17 228.732 320.053 228.224 320.053C227.819 320.053 227.487 320.163 227.228 320.383C226.974 320.597 226.796 320.881 226.693 321.232L226.701 326.667H224.921V321.452C224.896 320.519 224.42 320.053 223.493 320.053C222.78 320.053 222.274 320.344 221.977 320.925V326.667H220.197V318.742H221.874ZM242.895 322.865H244.22V324.294H242.895V326.667H241.115V324.294H236.508L236.457 323.21L241.056 316.003H242.895V322.865ZM238.324 322.865H241.115V318.412L240.983 318.647L238.324 322.865Z" fill="white"/>
<path d="M295 302C295 299.239 297.239 297 300 297H410C412.761 297 415 299.239 415 302V342C415 344.761 412.761 347 410 347H300C297.239 347 295 344.761 295 342V302Z" fill="#1E73FF"/>
<path d="M337.204 326.667H335.424V318.742H337.204V326.667ZM335.314 316.684C335.314 316.41 335.4 316.183 335.571 316.003C335.747 315.822 335.996 315.732 336.318 315.732C336.64 315.732 336.889 315.822 337.065 316.003C337.241 316.183 337.329 316.41 337.329 316.684C337.329 316.952 337.241 317.177 337.065 317.358C336.889 317.533 336.64 317.621 336.318 317.621C335.996 317.621 335.747 317.533 335.571 317.358C335.4 317.177 335.314 316.952 335.314 316.684ZM341.379 316.816V318.742H342.778V320.06H341.379V324.484C341.379 324.787 341.438 325.007 341.555 325.143C341.677 325.275 341.892 325.341 342.199 325.341C342.404 325.341 342.612 325.317 342.822 325.268V326.645C342.417 326.757 342.026 326.813 341.65 326.813C340.283 326.813 339.599 326.059 339.599 324.55V320.06H338.295V318.742H339.599V316.816H341.379ZM347.634 326.813C346.506 326.813 345.59 326.459 344.887 325.751C344.189 325.038 343.84 324.091 343.84 322.909V322.69C343.84 321.899 343.991 321.193 344.294 320.573C344.602 319.948 345.031 319.462 345.583 319.115C346.135 318.769 346.75 318.595 347.429 318.595C348.508 318.595 349.34 318.94 349.926 319.628C350.517 320.317 350.812 321.291 350.812 322.551V323.268H345.634C345.688 323.923 345.905 324.44 346.286 324.821C346.672 325.202 347.155 325.392 347.736 325.392C348.552 325.392 349.216 325.063 349.729 324.404L350.688 325.319C350.371 325.793 349.946 326.161 349.414 326.425C348.886 326.684 348.293 326.813 347.634 326.813ZM347.421 320.024C346.933 320.024 346.538 320.195 346.235 320.536C345.937 320.878 345.747 321.354 345.664 321.965H349.055V321.833C349.016 321.237 348.857 320.788 348.579 320.485C348.3 320.177 347.915 320.024 347.421 320.024ZM353.874 318.742L353.925 319.57C354.482 318.92 355.244 318.595 356.21 318.595C357.27 318.595 357.995 319.001 358.386 319.811C358.962 319.001 359.772 318.595 360.817 318.595C361.691 318.595 362.341 318.837 362.766 319.321C363.195 319.804 363.415 320.517 363.425 321.459V326.667H361.645V321.51C361.645 321.008 361.535 320.639 361.315 320.405C361.096 320.17 360.732 320.053 360.224 320.053C359.819 320.053 359.487 320.163 359.228 320.383C358.974 320.597 358.796 320.881 358.693 321.232L358.701 326.667H356.921V321.452C356.896 320.519 356.42 320.053 355.493 320.053C354.78 320.053 354.274 320.344 353.977 320.925V326.667H352.197V318.742H353.874ZM374.411 315.951V317.424H374.191C373.195 317.438 372.399 317.712 371.804 318.244C371.208 318.776 370.854 319.531 370.742 320.507C371.313 319.906 372.043 319.606 372.932 319.606C373.874 319.606 374.616 319.938 375.158 320.602C375.705 321.266 375.979 322.123 375.979 323.173C375.979 324.257 375.659 325.136 375.019 325.81C374.384 326.479 373.549 326.813 372.514 326.813C371.45 326.813 370.585 326.42 369.921 325.634C369.262 324.848 368.933 323.818 368.933 322.543V321.935C368.933 320.065 369.387 318.6 370.295 317.541C371.208 316.481 372.519 315.951 374.228 315.951H374.411ZM372.5 321.042C372.109 321.042 371.75 321.152 371.423 321.371C371.101 321.591 370.864 321.884 370.712 322.25V322.792C370.712 323.583 370.878 324.213 371.21 324.682C371.542 325.146 371.972 325.378 372.5 325.378C373.027 325.378 373.444 325.18 373.752 324.784C374.06 324.389 374.213 323.869 374.213 323.224C374.213 322.58 374.057 322.055 373.745 321.65C373.432 321.244 373.017 321.042 372.5 321.042Z" fill="white"/>
<path d="M153.5 233L153.5 349" stroke="#BBBBBB" stroke-dasharray="3 2"/>
<path d="M160.5 233L160.5 349" stroke="#BBBBBB" stroke-dasharray="3 2"/>
<path d="M285.5 233L285.5 349" stroke="#BBBBBB" stroke-dasharray="3 2"/>
<path d="M292.5 233L292.5 349" stroke="#BBBBBB" stroke-dasharray="3 2"/>
<path d="M417.5 233L417.5 349" stroke="#BBBBBB" stroke-dasharray="3 2"/>
<path d="M424.5 233L424.5 349" stroke="#BBBBBB" stroke-dasharray="3 2"/>
<path d="M29 294.5L549 294.5" stroke="#BBBBBB" stroke-dasharray="3 2"/>
<path d="M29 287.5L549 287.5" stroke="#BBBBBB" stroke-dasharray="3 2"/>
<rect x="28" y="232" width="522" height="118" stroke="#AAAAAA" stroke-width="2"/>
</svg>
