<svg width="510" height="360" viewBox="0 0 510 360" fill="none" xmlns="http://www.w3.org/2000/svg">
<g opacity="0.8">
<rect width="510" height="360" fill="#F7F7F7"/>
<path d="M19 7C19 5.89543 19.8954 5 21 5H35C36.1046 5 37 5.89543 37 7V16.1857C37 16.7167 36.7888 17.2259 36.413 17.6011L29.413 24.5894C28.6323 25.3688 27.3677 25.3688 26.587 24.5894L19.587 17.6011C19.2112 17.2259 19 16.7167 19 16.1857V7Z" fill="#CCCCCC"/>
<path d="M29.084 17H27.666V10.1504L25.5742 10.8652V9.66406L28.9023 8.43945H29.084V17Z" fill="white"/>
<path d="M108 7C108 5.89543 108.895 5 110 5H124C125.105 5 126 5.89543 126 7V16.1857C126 16.7167 125.789 17.2259 125.413 17.6011L118.413 24.5894C117.632 25.3688 116.368 25.3688 115.587 24.5894L108.587 17.6011C108.211 17.2259 108 16.7167 108 16.1857V7Z" fill="#CCCCCC"/>
<path d="M119.965 17H114.229V16.0215L117.07 12.9219C117.48 12.4648 117.771 12.084 117.943 11.7793C118.119 11.4707 118.207 11.1621 118.207 10.8535C118.207 10.4473 118.092 10.1191 117.861 9.86914C117.635 9.61914 117.328 9.49414 116.941 9.49414C116.48 9.49414 116.123 9.63477 115.869 9.91602C115.615 10.1973 115.488 10.582 115.488 11.0703H114.064C114.064 10.5508 114.182 10.084 114.416 9.66992C114.654 9.25195 114.992 8.92773 115.43 8.69727C115.871 8.4668 116.379 8.35156 116.953 8.35156C117.781 8.35156 118.434 8.56055 118.91 8.97852C119.391 9.39258 119.631 9.9668 119.631 10.7012C119.631 11.127 119.51 11.5742 119.268 12.043C119.029 12.5078 118.637 13.0371 118.09 13.6309L116.004 15.8633H119.965V17Z" fill="white"/>
<path d="M200 7C200 5.89543 200.895 5 202 5H216C217.105 5 218 5.89543 218 7V16.1857C218 16.7167 217.789 17.2259 217.413 17.6011L210.413 24.5894C209.632 25.3688 208.368 25.3688 207.587 24.5894L200.587 17.6011C200.211 17.2259 200 16.7167 200 16.1857V7Z" fill="#CCCCCC"/>
<path d="M207.875 12.084H208.742C209.18 12.0801 209.525 11.9668 209.779 11.7441C210.037 11.5215 210.166 11.1992 210.166 10.7773C210.166 10.3711 210.059 10.0566 209.844 9.83398C209.633 9.60742 209.309 9.49414 208.871 9.49414C208.488 9.49414 208.174 9.60547 207.928 9.82812C207.682 10.0469 207.559 10.334 207.559 10.6895H206.135C206.135 10.252 206.25 9.85352 206.48 9.49414C206.715 9.13477 207.039 8.85547 207.453 8.65625C207.871 8.45312 208.338 8.35156 208.854 8.35156C209.705 8.35156 210.373 8.56641 210.857 8.99609C211.346 9.42188 211.59 10.0156 211.59 10.7773C211.59 11.1602 211.467 11.5215 211.221 11.8613C210.979 12.1973 210.664 12.4512 210.277 12.623C210.746 12.7832 211.102 13.0352 211.344 13.3789C211.59 13.7227 211.713 14.1328 211.713 14.6094C211.713 15.375 211.449 15.9844 210.922 16.4375C210.398 16.8906 209.709 17.1172 208.854 17.1172C208.033 17.1172 207.361 16.8984 206.838 16.4609C206.314 16.0234 206.053 15.4414 206.053 14.7148H207.477C207.477 15.0898 207.602 15.3945 207.852 15.6289C208.105 15.8633 208.445 15.9805 208.871 15.9805C209.312 15.9805 209.66 15.8633 209.914 15.6289C210.168 15.3945 210.295 15.0547 210.295 14.6094C210.295 14.1602 210.162 13.8145 209.896 13.5723C209.631 13.3301 209.236 13.209 208.713 13.209H207.875V12.084Z" fill="white"/>
<path d="M292 7C292 5.89543 292.895 5 294 5H308C309.105 5 310 5.89543 310 7V16.1857C310 16.7167 309.789 17.2259 309.413 17.6011L302.413 24.5894C301.632 25.3688 300.368 25.3688 299.587 24.5894L292.587 17.6011C292.211 17.2259 292 16.7167 292 16.1857V7Z" fill="#CCCCCC"/>
<path d="M303.045 13.959H304.105V15.1016H303.045V17H301.621V15.1016H297.936L297.895 14.2344L301.574 8.46875H303.045V13.959ZM299.389 13.959H301.621V10.3965L301.516 10.584L299.389 13.959Z" fill="white"/>
<path d="M384 7C384 5.89543 384.895 5 386 5H400C401.105 5 402 5.89543 402 7V16.1857C402 16.7167 401.789 17.2259 401.413 17.6011L394.413 24.5894C393.632 25.3688 392.368 25.3688 391.587 24.5894L384.587 17.6011C384.211 17.2259 384 16.7167 384 16.1857V7Z" fill="#CCCCCC"/>
<path d="M390.609 12.7695L391.072 8.46875H395.654V9.69922H392.256L392.021 11.7383C392.416 11.5117 392.861 11.3984 393.357 11.3984C394.17 11.3984 394.801 11.6582 395.25 12.1777C395.703 12.6973 395.93 13.3965 395.93 14.2754C395.93 15.1426 395.68 15.834 395.18 16.3496C394.68 16.8613 393.994 17.1172 393.123 17.1172C392.342 17.1172 391.693 16.8965 391.178 16.4551C390.666 16.0098 390.389 15.4238 390.346 14.6973H391.723C391.777 15.1113 391.926 15.4297 392.168 15.6523C392.41 15.8711 392.727 15.9805 393.117 15.9805C393.555 15.9805 393.895 15.8242 394.137 15.5117C394.383 15.1992 394.506 14.7734 394.506 14.2344C394.506 13.7148 394.371 13.3047 394.102 13.0039C393.832 12.6992 393.461 12.5469 392.988 12.5469C392.73 12.5469 392.512 12.582 392.332 12.6523C392.152 12.7188 391.957 12.8516 391.746 13.0508L390.609 12.7695Z" fill="white"/>
<path d="M473 7C473 5.89543 473.895 5 475 5H489C490.105 5 491 5.89543 491 7V16.1857C491 16.7167 490.789 17.2259 490.413 17.6011L483.413 24.5894C482.632 25.3688 481.368 25.3688 480.587 24.5894L473.587 17.6011C473.211 17.2259 473 16.7167 473 16.1857V7Z" fill="#CCCCCC"/>
<path d="M483.658 8.42773V9.60547H483.482C482.686 9.61719 482.049 9.83594 481.572 10.2617C481.096 10.6875 480.812 11.291 480.723 12.0723C481.18 11.5918 481.764 11.3516 482.475 11.3516C483.229 11.3516 483.822 11.6172 484.256 12.1484C484.693 12.6797 484.912 13.3652 484.912 14.2051C484.912 15.0723 484.656 15.7754 484.145 16.3145C483.637 16.8496 482.969 17.1172 482.141 17.1172C481.289 17.1172 480.598 16.8027 480.066 16.1738C479.539 15.5449 479.275 14.7207 479.275 13.7012V13.2148C479.275 11.7188 479.639 10.5469 480.365 9.69922C481.096 8.85156 482.145 8.42773 483.512 8.42773H483.658ZM482.129 12.5C481.816 12.5 481.529 12.5879 481.268 12.7637C481.01 12.9395 480.82 13.1738 480.699 13.4668V13.9004C480.699 14.5332 480.832 15.0371 481.098 15.4121C481.363 15.7832 481.707 15.9688 482.129 15.9688C482.551 15.9688 482.885 15.8105 483.131 15.4941C483.377 15.1777 483.5 14.7617 483.5 14.2461C483.5 13.7305 483.375 13.3105 483.125 12.9863C482.875 12.6621 482.543 12.5 482.129 12.5Z" fill="white"/>
<path d="M37 353C37 354.105 36.1046 355 35 355L21 355C19.8954 355 19 354.105 19 353L19 343.814C19 343.283 19.2112 342.774 19.587 342.399L26.587 335.411C27.3678 334.631 28.6323 334.631 29.413 335.411L36.413 342.399C36.7888 342.774 37 343.283 37 343.814L37 353Z" fill="#DDDDDD"/>
<path d="M26.1133 347.947H23.0371V346.799H26.1133V347.947ZM31.627 342.428V343.605H31.4512C30.6543 343.617 30.0176 343.836 29.541 344.262C29.0645 344.688 28.7812 345.291 28.6914 346.072C29.1484 345.592 29.7324 345.352 30.4434 345.352C31.1973 345.352 31.791 345.617 32.2246 346.148C32.6621 346.68 32.8809 347.365 32.8809 348.205C32.8809 349.072 32.625 349.775 32.1133 350.314C31.6055 350.85 30.9375 351.117 30.1094 351.117C29.2578 351.117 28.5664 350.803 28.0352 350.174C27.5078 349.545 27.2441 348.721 27.2441 347.701V347.215C27.2441 345.719 27.6074 344.547 28.334 343.699C29.0645 342.852 30.1133 342.428 31.4805 342.428H31.627ZM30.0977 346.5C29.7852 346.5 29.498 346.588 29.2363 346.764C28.9785 346.939 28.7891 347.174 28.668 347.467V347.9C28.668 348.533 28.8008 349.037 29.0664 349.412C29.332 349.783 29.6758 349.969 30.0977 349.969C30.5195 349.969 30.8535 349.811 31.0996 349.494C31.3457 349.178 31.4688 348.762 31.4688 348.246C31.4688 347.73 31.3438 347.311 31.0938 346.986C30.8438 346.662 30.5117 346.5 30.0977 346.5Z" fill="white"/>
<path d="M126 353C126 354.105 125.105 355 124 355L110 355C108.895 355 108 354.105 108 353L108 343.814C108 343.283 108.211 342.774 108.587 342.399L115.587 335.411C116.368 334.631 117.632 334.631 118.413 335.411L125.413 342.399C125.789 342.774 126 343.283 126 343.814L126 353Z" fill="#DDDDDD"/>
<path d="M115.113 347.947H112.037V346.799H115.113V347.947ZM116.578 346.77L117.041 342.469H121.623V343.699H118.225L117.99 345.738C118.385 345.512 118.83 345.398 119.326 345.398C120.139 345.398 120.77 345.658 121.219 346.178C121.672 346.697 121.898 347.396 121.898 348.275C121.898 349.143 121.648 349.834 121.148 350.35C120.648 350.861 119.963 351.117 119.092 351.117C118.311 351.117 117.662 350.896 117.146 350.455C116.635 350.01 116.357 349.424 116.314 348.697H117.691C117.746 349.111 117.895 349.43 118.137 349.652C118.379 349.871 118.695 349.98 119.086 349.98C119.523 349.98 119.863 349.824 120.105 349.512C120.352 349.199 120.475 348.773 120.475 348.234C120.475 347.715 120.34 347.305 120.07 347.004C119.801 346.699 119.43 346.547 118.957 346.547C118.699 346.547 118.48 346.582 118.301 346.652C118.121 346.719 117.926 346.852 117.715 347.051L116.578 346.77Z" fill="white"/>
<path d="M218 353C218 354.105 217.105 355 216 355L202 355C200.895 355 200 354.105 200 353L200 343.814C200 343.283 200.211 342.774 200.587 342.399L207.587 335.411C208.368 334.631 209.632 334.631 210.413 335.411L217.413 342.399C217.789 342.774 218 343.283 218 343.814L218 353Z" fill="#DDDDDD"/>
<path d="M207.113 347.947H204.037V346.799H207.113V347.947ZM213.014 347.959H214.074V349.102H213.014V351H211.59V349.102H207.904L207.863 348.234L211.543 342.469H213.014V347.959ZM209.357 347.959H211.59V344.396L211.484 344.584L209.357 347.959Z" fill="white"/>
<path d="M310 353C310 354.105 309.105 355 308 355L294 355C292.895 355 292 354.105 292 353L292 343.814C292 343.283 292.211 342.774 292.587 342.399L299.587 335.411C300.368 334.631 301.632 334.631 302.413 335.411L309.413 342.399C309.789 342.774 310 343.283 310 343.814L310 353Z" fill="#DDDDDD"/>
<path d="M299.113 347.947H296.037V346.799H299.113V347.947ZM301.844 346.084H302.711C303.148 346.08 303.494 345.967 303.748 345.744C304.006 345.521 304.135 345.199 304.135 344.777C304.135 344.371 304.027 344.057 303.812 343.834C303.602 343.607 303.277 343.494 302.84 343.494C302.457 343.494 302.143 343.605 301.896 343.828C301.65 344.047 301.527 344.334 301.527 344.689H300.104C300.104 344.252 300.219 343.854 300.449 343.494C300.684 343.135 301.008 342.855 301.422 342.656C301.84 342.453 302.307 342.352 302.822 342.352C303.674 342.352 304.342 342.566 304.826 342.996C305.314 343.422 305.559 344.016 305.559 344.777C305.559 345.16 305.436 345.521 305.189 345.861C304.947 346.197 304.633 346.451 304.246 346.623C304.715 346.783 305.07 347.035 305.312 347.379C305.559 347.723 305.682 348.133 305.682 348.609C305.682 349.375 305.418 349.984 304.891 350.438C304.367 350.891 303.678 351.117 302.822 351.117C302.002 351.117 301.33 350.898 300.807 350.461C300.283 350.023 300.021 349.441 300.021 348.715H301.445C301.445 349.09 301.57 349.395 301.82 349.629C302.074 349.863 302.414 349.98 302.84 349.98C303.281 349.98 303.629 349.863 303.883 349.629C304.137 349.395 304.264 349.055 304.264 348.609C304.264 348.16 304.131 347.814 303.865 347.572C303.6 347.33 303.205 347.209 302.682 347.209H301.844V346.084Z" fill="white"/>
<path d="M402 353C402 354.105 401.105 355 400 355L386 355C384.895 355 384 354.105 384 353L384 343.814C384 343.283 384.211 342.774 384.587 342.399L391.587 335.411C392.368 334.631 393.632 334.631 394.413 335.411L401.413 342.399C401.789 342.774 402 343.283 402 343.814L402 353Z" fill="#DDDDDD"/>
<path d="M391.113 347.947H388.037V346.799H391.113V347.947ZM397.934 351H392.197V350.021L395.039 346.922C395.449 346.465 395.74 346.084 395.912 345.779C396.088 345.471 396.176 345.162 396.176 344.854C396.176 344.447 396.061 344.119 395.83 343.869C395.604 343.619 395.297 343.494 394.91 343.494C394.449 343.494 394.092 343.635 393.838 343.916C393.584 344.197 393.457 344.582 393.457 345.07H392.033C392.033 344.551 392.15 344.084 392.385 343.67C392.623 343.252 392.961 342.928 393.398 342.697C393.84 342.467 394.348 342.352 394.922 342.352C395.75 342.352 396.402 342.561 396.879 342.979C397.359 343.393 397.6 343.967 397.6 344.701C397.6 345.127 397.479 345.574 397.236 346.043C396.998 346.508 396.605 347.037 396.059 347.631L393.973 349.863H397.934V351Z" fill="white"/>
<path d="M491 353C491 354.105 490.105 355 489 355L475 355C473.895 355 473 354.105 473 353L473 343.814C473 343.283 473.211 342.774 473.587 342.399L480.587 335.411C481.368 334.631 482.632 334.631 483.413 335.411L490.413 342.399C490.789 342.774 491 343.283 491 343.814L491 353Z" fill="#DDDDDD"/>
<path d="M480.113 347.947H477.037V346.799H480.113V347.947ZM485.053 351H483.635V344.15L481.543 344.865V343.664L484.871 342.439H485.053V351Z" fill="white"/>
<path d="M7 37C5.89543 37 5 36.1046 5 35L5 21C5 19.8954 5.89543 19 7 19L16.1857 19C16.7167 19 17.2259 19.2112 17.6011 19.587L24.5894 26.587C25.3688 27.3677 25.3688 28.6323 24.5894 29.413L17.6011 36.413C17.2259 36.7888 16.7167 37 16.1857 37L7 37Z" fill="#CCCCCC"/>
<path d="M14.084 32H12.666V25.1504L10.5742 25.8652V24.6641L13.9023 23.4395H14.084V32Z" fill="white"/>
<path d="M7 96C5.89543 96 5 95.1046 5 94L5 80C5 78.8954 5.89543 78 7 78L16.1857 78C16.7167 78 17.2259 78.2112 17.6011 78.587L24.5894 85.587C25.3688 86.3677 25.3688 87.6323 24.5894 88.413L17.6011 95.413C17.2259 95.7888 16.7167 96 16.1857 96L7 96Z" fill="#CCCCCC"/>
<path d="M15.9648 91H10.2285V90.0215L13.0703 86.9219C13.4805 86.4648 13.7715 86.084 13.9434 85.7793C14.1191 85.4707 14.207 85.1621 14.207 84.8535C14.207 84.4473 14.0918 84.1191 13.8613 83.8691C13.6348 83.6191 13.3281 83.4941 12.9414 83.4941C12.4805 83.4941 12.123 83.6348 11.8691 83.916C11.6152 84.1973 11.4883 84.582 11.4883 85.0703H10.0645C10.0645 84.5508 10.1816 84.084 10.416 83.6699C10.6543 83.252 10.9922 82.9277 11.4297 82.6973C11.8711 82.4668 12.3789 82.3516 12.9531 82.3516C13.7812 82.3516 14.4336 82.5605 14.9102 82.9785C15.3906 83.3926 15.6309 83.9668 15.6309 84.7012C15.6309 85.127 15.5098 85.5742 15.2676 86.043C15.0293 86.5078 14.6367 87.0371 14.0898 87.6309L12.0039 89.8633H15.9648V91Z" fill="white"/>
<path d="M7 158C5.89543 158 5 157.105 5 156L5 142C5 140.895 5.89543 140 7 140L16.1857 140C16.7167 140 17.2259 140.211 17.6011 140.587L24.5894 147.587C25.3688 148.368 25.3688 149.632 24.5894 150.413L17.6011 157.413C17.2259 157.789 16.7167 158 16.1857 158L7 158Z" fill="#CCCCCC"/>
<path d="M11.875 148.084H12.7422C13.1797 148.08 13.5254 147.967 13.7793 147.744C14.0371 147.521 14.166 147.199 14.166 146.777C14.166 146.371 14.0586 146.057 13.8438 145.834C13.6328 145.607 13.3086 145.494 12.8711 145.494C12.4883 145.494 12.1738 145.605 11.9277 145.828C11.6816 146.047 11.5586 146.334 11.5586 146.689H10.1348C10.1348 146.252 10.25 145.854 10.4805 145.494C10.7148 145.135 11.0391 144.855 11.4531 144.656C11.8711 144.453 12.3379 144.352 12.8535 144.352C13.7051 144.352 14.373 144.566 14.8574 144.996C15.3457 145.422 15.5898 146.016 15.5898 146.777C15.5898 147.16 15.4668 147.521 15.2207 147.861C14.9785 148.197 14.6641 148.451 14.2773 148.623C14.7461 148.783 15.1016 149.035 15.3438 149.379C15.5898 149.723 15.7129 150.133 15.7129 150.609C15.7129 151.375 15.4492 151.984 14.9219 152.438C14.3984 152.891 13.709 153.117 12.8535 153.117C12.0332 153.117 11.3613 152.898 10.8379 152.461C10.3145 152.023 10.0527 151.441 10.0527 150.715H11.4766C11.4766 151.09 11.6016 151.395 11.8516 151.629C12.1055 151.863 12.4453 151.98 12.8711 151.98C13.3125 151.98 13.6602 151.863 13.9141 151.629C14.168 151.395 14.2949 151.055 14.2949 150.609C14.2949 150.16 14.1621 149.814 13.8965 149.572C13.6309 149.33 13.2363 149.209 12.7129 149.209H11.875V148.084Z" fill="white"/>
<path d="M7 220C5.89543 220 5 219.105 5 218L5 204C5 202.895 5.89543 202 7 202L16.1857 202C16.7167 202 17.2259 202.211 17.6011 202.587L24.5894 209.587C25.3688 210.368 25.3688 211.632 24.5894 212.413L17.6011 219.413C17.2259 219.789 16.7167 220 16.1857 220L7 220Z" fill="#CCCCCC"/>
<path d="M15.0449 211.959H16.1055V213.102H15.0449V215H13.6211V213.102H9.93555L9.89453 212.234L13.5742 206.469H15.0449V211.959ZM11.3887 211.959H13.6211V208.396L13.5156 208.584L11.3887 211.959Z" fill="white"/>
<path d="M7 282C5.89543 282 5 281.105 5 280L5 266C5 264.895 5.89543 264 7 264L16.1857 264C16.7167 264 17.2259 264.211 17.6011 264.587L24.5894 271.587C25.3688 272.368 25.3688 273.632 24.5894 274.413L17.6011 281.413C17.2259 281.789 16.7167 282 16.1857 282L7 282Z" fill="#CCCCCC"/>
<path d="M10.6094 272.77L11.0723 268.469H15.6543V269.699H12.2559L12.0215 271.738C12.416 271.512 12.8613 271.398 13.3574 271.398C14.1699 271.398 14.8008 271.658 15.25 272.178C15.7031 272.697 15.9297 273.396 15.9297 274.275C15.9297 275.143 15.6797 275.834 15.1797 276.35C14.6797 276.861 13.9941 277.117 13.123 277.117C12.3418 277.117 11.6934 276.896 11.1777 276.455C10.666 276.01 10.3887 275.424 10.3457 274.697H11.7227C11.7773 275.111 11.9258 275.43 12.168 275.652C12.4102 275.871 12.7266 275.98 13.1172 275.98C13.5547 275.98 13.8945 275.824 14.1367 275.512C14.3828 275.199 14.5059 274.773 14.5059 274.234C14.5059 273.715 14.3711 273.305 14.1016 273.004C13.832 272.699 13.4609 272.547 12.9883 272.547C12.7305 272.547 12.5117 272.582 12.332 272.652C12.1523 272.719 11.957 272.852 11.7461 273.051L10.6094 272.77Z" fill="white"/>
<path d="M7 341C5.89543 341 5 340.105 5 339L5 325C5 323.895 5.89543 323 7 323L16.1857 323C16.7167 323 17.2259 323.211 17.6011 323.587L24.5894 330.587C25.3688 331.368 25.3688 332.632 24.5894 333.413L17.6011 340.413C17.2259 340.789 16.7167 341 16.1857 341L7 341Z" fill="#CCCCCC"/>
<path d="M14.6582 327.428V328.605H14.4824C13.6855 328.617 13.0488 328.836 12.5723 329.262C12.0957 329.688 11.8125 330.291 11.7227 331.072C12.1797 330.592 12.7637 330.352 13.4746 330.352C14.2285 330.352 14.8223 330.617 15.2559 331.148C15.6934 331.68 15.9121 332.365 15.9121 333.205C15.9121 334.072 15.6562 334.775 15.1445 335.314C14.6367 335.85 13.9688 336.117 13.1406 336.117C12.2891 336.117 11.5977 335.803 11.0664 335.174C10.5391 334.545 10.2754 333.721 10.2754 332.701V332.215C10.2754 330.719 10.6387 329.547 11.3652 328.699C12.0957 327.852 13.1445 327.428 14.5117 327.428H14.6582ZM13.1289 331.5C12.8164 331.5 12.5293 331.588 12.2676 331.764C12.0098 331.939 11.8203 332.174 11.6992 332.467V332.9C11.6992 333.533 11.832 334.037 12.0977 334.412C12.3633 334.783 12.707 334.969 13.1289 334.969C13.5508 334.969 13.8848 334.811 14.1309 334.494C14.377 334.178 14.5 333.762 14.5 333.246C14.5 332.73 14.375 332.311 14.125 331.986C13.875 331.662 13.543 331.5 13.1289 331.5Z" fill="white"/>
<path d="M503 19C504.105 19 505 19.8954 505 21L505 35C505 36.1046 504.105 37 503 37L493.814 37C493.283 37 492.774 36.7888 492.399 36.413L485.411 29.413C484.631 28.6322 484.631 27.3677 485.411 26.587L492.399 19.587C492.774 19.2112 493.283 19 493.814 19L503 19Z" fill="#DDDDDD"/>
<path d="M495.113 28.9473H492.037V27.7988H495.113V28.9473ZM500.627 23.4277V24.6055H500.451C499.654 24.6172 499.018 24.8359 498.541 25.2617C498.064 25.6875 497.781 26.291 497.691 27.0723C498.148 26.5918 498.732 26.3516 499.443 26.3516C500.197 26.3516 500.791 26.6172 501.225 27.1484C501.662 27.6797 501.881 28.3652 501.881 29.2051C501.881 30.0723 501.625 30.7754 501.113 31.3145C500.605 31.8496 499.938 32.1172 499.109 32.1172C498.258 32.1172 497.566 31.8027 497.035 31.1738C496.508 30.5449 496.244 29.7207 496.244 28.7012V28.2148C496.244 26.7188 496.607 25.5469 497.334 24.6992C498.064 23.8516 499.113 23.4277 500.48 23.4277H500.627ZM499.098 27.5C498.785 27.5 498.498 27.5879 498.236 27.7637C497.979 27.9395 497.789 28.1738 497.668 28.4668V28.9004C497.668 29.5332 497.801 30.0371 498.066 30.4121C498.332 30.7832 498.676 30.9688 499.098 30.9688C499.52 30.9688 499.854 30.8105 500.1 30.4941C500.346 30.1777 500.469 29.7617 500.469 29.2461C500.469 28.7305 500.344 28.3105 500.094 27.9863C499.844 27.6621 499.512 27.5 499.098 27.5Z" fill="white"/>
<path d="M503 78C504.105 78 505 78.8954 505 80L505 94C505 95.1046 504.105 96 503 96L493.814 96C493.283 96 492.774 95.7888 492.399 95.413L485.411 88.413C484.631 87.6322 484.631 86.3677 485.411 85.587L492.399 78.587C492.774 78.2112 493.283 78 493.814 78L503 78Z" fill="#DDDDDD"/>
<path d="M495.113 87.9473H492.037V86.7988H495.113V87.9473ZM496.578 86.7695L497.041 82.4688H501.623V83.6992H498.225L497.99 85.7383C498.385 85.5117 498.83 85.3984 499.326 85.3984C500.139 85.3984 500.77 85.6582 501.219 86.1777C501.672 86.6973 501.898 87.3965 501.898 88.2754C501.898 89.1426 501.648 89.834 501.148 90.3496C500.648 90.8613 499.963 91.1172 499.092 91.1172C498.311 91.1172 497.662 90.8965 497.146 90.4551C496.635 90.0098 496.357 89.4238 496.314 88.6973H497.691C497.746 89.1113 497.895 89.4297 498.137 89.6523C498.379 89.8711 498.695 89.9805 499.086 89.9805C499.523 89.9805 499.863 89.8242 500.105 89.5117C500.352 89.1992 500.475 88.7734 500.475 88.2344C500.475 87.7148 500.34 87.3047 500.07 87.0039C499.801 86.6992 499.43 86.5469 498.957 86.5469C498.699 86.5469 498.48 86.582 498.301 86.6523C498.121 86.7188 497.926 86.8516 497.715 87.0508L496.578 86.7695Z" fill="white"/>
<path d="M503 140C504.105 140 505 140.895 505 142L505 156C505 157.105 504.105 158 503 158L493.814 158C493.283 158 492.774 157.789 492.399 157.413L485.411 150.413C484.631 149.632 484.631 148.368 485.411 147.587L492.399 140.587C492.774 140.211 493.283 140 493.814 140L503 140Z" fill="#DDDDDD"/>
<path d="M495.113 149.947H492.037V148.799H495.113V149.947ZM501.014 149.959H502.074V151.102H501.014V153H499.59V151.102H495.904L495.863 150.234L499.543 144.469H501.014V149.959ZM497.357 149.959H499.59V146.396L499.484 146.584L497.357 149.959Z" fill="white"/>
<path d="M503 202C504.105 202 505 202.895 505 204L505 218C505 219.105 504.105 220 503 220L493.814 220C493.283 220 492.774 219.789 492.399 219.413L485.411 212.413C484.631 211.632 484.631 210.368 485.411 209.587L492.399 202.587C492.774 202.211 493.283 202 493.814 202L503 202Z" fill="#DDDDDD"/>
<path d="M495.113 211.947H492.037V210.799H495.113V211.947ZM497.844 210.084H498.711C499.148 210.08 499.494 209.967 499.748 209.744C500.006 209.521 500.135 209.199 500.135 208.777C500.135 208.371 500.027 208.057 499.812 207.834C499.602 207.607 499.277 207.494 498.84 207.494C498.457 207.494 498.143 207.605 497.896 207.828C497.65 208.047 497.527 208.334 497.527 208.689H496.104C496.104 208.252 496.219 207.854 496.449 207.494C496.684 207.135 497.008 206.855 497.422 206.656C497.84 206.453 498.307 206.352 498.822 206.352C499.674 206.352 500.342 206.566 500.826 206.996C501.314 207.422 501.559 208.016 501.559 208.777C501.559 209.16 501.436 209.521 501.189 209.861C500.947 210.197 500.633 210.451 500.246 210.623C500.715 210.783 501.07 211.035 501.312 211.379C501.559 211.723 501.682 212.133 501.682 212.609C501.682 213.375 501.418 213.984 500.891 214.438C500.367 214.891 499.678 215.117 498.822 215.117C498.002 215.117 497.33 214.898 496.807 214.461C496.283 214.023 496.021 213.441 496.021 212.715H497.445C497.445 213.09 497.57 213.395 497.82 213.629C498.074 213.863 498.414 213.98 498.84 213.98C499.281 213.98 499.629 213.863 499.883 213.629C500.137 213.395 500.264 213.055 500.264 212.609C500.264 212.16 500.131 211.814 499.865 211.572C499.6 211.33 499.205 211.209 498.682 211.209H497.844V210.084Z" fill="white"/>
<path d="M503 264C504.105 264 505 264.895 505 266L505 280C505 281.105 504.105 282 503 282L493.814 282C493.283 282 492.774 281.789 492.399 281.413L485.411 274.413C484.631 273.632 484.631 272.368 485.411 271.587L492.399 264.587C492.774 264.211 493.283 264 493.814 264L503 264Z" fill="#DDDDDD"/>
<path d="M495.113 273.947H492.037V272.799H495.113V273.947ZM501.934 277H496.197V276.021L499.039 272.922C499.449 272.465 499.74 272.084 499.912 271.779C500.088 271.471 500.176 271.162 500.176 270.854C500.176 270.447 500.061 270.119 499.83 269.869C499.604 269.619 499.297 269.494 498.91 269.494C498.449 269.494 498.092 269.635 497.838 269.916C497.584 270.197 497.457 270.582 497.457 271.07H496.033C496.033 270.551 496.15 270.084 496.385 269.67C496.623 269.252 496.961 268.928 497.398 268.697C497.84 268.467 498.348 268.352 498.922 268.352C499.75 268.352 500.402 268.561 500.879 268.979C501.359 269.393 501.6 269.967 501.6 270.701C501.6 271.127 501.479 271.574 501.236 272.043C500.998 272.508 500.605 273.037 500.059 273.631L497.973 275.863H501.934V277Z" fill="white"/>
<path d="M503 323C504.105 323 505 323.895 505 325L505 339C505 340.105 504.105 341 503 341L493.814 341C493.283 341 492.774 340.789 492.399 340.413L485.411 333.413C484.631 332.632 484.631 331.368 485.411 330.587L492.399 323.587C492.774 323.211 493.283 323 493.814 323L503 323Z" fill="#DDDDDD"/>
<path d="M495.113 332.947H492.037V331.799H495.113V332.947ZM500.053 336H498.635V329.15L496.543 329.865V328.664L499.871 327.439H500.053V336Z" fill="white"/>
<rect width="452" height="302" transform="translate(29 29)" fill="white"/>
<path d="M31 36C31 33.2386 33.2386 31 36 31H106C108.761 31 111 33.2386 111 36V76C111 78.7614 108.761 81 106 81H36C33.2386 81 31 78.7614 31 76V36Z" fill="#DDDDDD"/>
<path d="M72.855 60.6667H71.0825V52.1047L68.4678 52.9983V51.4968L72.6279 49.9661H72.855V60.6667Z" fill="#444444"/>
<path d="M123 36C123 33.2386 125.239 31 128 31H198C200.761 31 203 33.2386 203 36V76C203 78.7614 200.761 81 198 81H128C125.239 81 123 78.7614 123 76V36Z" fill="#DDDDDD"/>
<path d="M167.206 60.6667H160.036V59.4436L163.588 55.5691C164.101 54.9978 164.464 54.5217 164.679 54.1409C164.899 53.7551 165.009 53.3694 165.009 52.9836C165.009 52.4758 164.865 52.0657 164.577 51.7532C164.293 51.4407 163.91 51.2844 163.427 51.2844C162.851 51.2844 162.404 51.4602 162.086 51.8118C161.769 52.1633 161.61 52.6443 161.61 53.2546H159.831C159.831 52.6052 159.977 52.0217 160.27 51.5042C160.568 50.9817 160.99 50.5764 161.537 50.2883C162.089 50.0002 162.724 49.8562 163.441 49.8562C164.477 49.8562 165.292 50.1174 165.888 50.6399C166.488 51.1575 166.789 51.8752 166.789 52.7932C166.789 53.3254 166.637 53.8845 166.334 54.4705C166.037 55.0515 165.546 55.7131 164.862 56.4553L162.255 59.2458H167.206V60.6667Z" fill="#444444"/>
<path d="M215 36C215 33.2386 217.239 31 220 31H290C292.761 31 295 33.2386 295 36V76C295 78.7614 292.761 81 290 81H220C217.239 81 215 78.7614 215 76V36Z" fill="#DDDDDD"/>
<path d="M254.094 54.5217H255.178C255.725 54.5168 256.157 54.3752 256.474 54.0969C256.796 53.8186 256.958 53.4158 256.958 52.8884C256.958 52.3806 256.823 51.9875 256.555 51.7092C256.291 51.426 255.886 51.2844 255.339 51.2844C254.86 51.2844 254.467 51.4236 254.16 51.7019C253.852 51.9753 253.698 52.3342 253.698 52.7786H251.918C251.918 52.2317 252.062 51.7336 252.351 51.2844C252.644 50.8352 253.049 50.4861 253.566 50.2371C254.089 49.9832 254.672 49.8562 255.317 49.8562C256.381 49.8562 257.216 50.1248 257.822 50.6619C258.432 51.1941 258.737 51.9363 258.737 52.8884C258.737 53.3669 258.583 53.8186 258.276 54.2434C257.973 54.6633 257.58 54.9807 257.097 55.1956C257.683 55.3958 258.127 55.7107 258.43 56.1404C258.737 56.5701 258.891 57.0828 258.891 57.6785C258.891 58.6355 258.562 59.3972 257.902 59.9636C257.248 60.53 256.386 60.8132 255.317 60.8132C254.292 60.8132 253.452 60.5398 252.797 59.9929C252.143 59.446 251.816 58.7185 251.816 57.8103H253.596C253.596 58.2791 253.752 58.6599 254.064 58.9529C254.382 59.2458 254.807 59.3923 255.339 59.3923C255.891 59.3923 256.325 59.2458 256.643 58.9529C256.96 58.6599 257.119 58.2351 257.119 57.6785C257.119 57.1169 256.953 56.6848 256.621 56.3821C256.289 56.0793 255.795 55.928 255.141 55.928H254.094V54.5217Z" fill="#444444"/>
<path d="M307 36C307 33.2386 309.239 31 312 31H382C384.761 31 387 33.2386 387 36V76C387 78.7614 384.761 81 382 81H312C309.239 81 307 78.7614 307 76V36Z" fill="#DDDDDD"/>
<path d="M350.056 56.8655H351.382V58.2937H350.056V60.6667H348.276V58.2937H343.669L343.618 57.2097L348.218 50.0027H350.056V56.8655ZM345.486 56.8655H348.276V52.4124L348.145 52.6467L345.486 56.8655Z" fill="#444444"/>
<path d="M399 36C399 33.2386 401.239 31 404 31H474C476.761 31 479 33.2386 479 36V76C479 78.7614 476.761 81 474 81H404C401.239 81 399 78.7614 399 76V36Z" fill="#DDDDDD"/>
<path d="M436.512 55.3787L437.09 50.0027H442.818V51.5408H438.57L438.277 54.0896C438.77 53.8064 439.327 53.6648 439.947 53.6648C440.962 53.6648 441.751 53.9895 442.312 54.6389C442.879 55.2883 443.162 56.1624 443.162 57.261C443.162 58.345 442.85 59.2092 442.225 59.8538C441.6 60.4934 440.743 60.8132 439.654 60.8132C438.677 60.8132 437.867 60.5374 437.222 59.9856C436.583 59.429 436.236 58.6965 436.182 57.7883H437.903C437.972 58.3059 438.157 58.7039 438.46 58.9822C438.763 59.2556 439.158 59.3923 439.646 59.3923C440.193 59.3923 440.618 59.197 440.921 58.8064C441.229 58.4158 441.382 57.8835 441.382 57.2097C441.382 56.5603 441.214 56.0476 440.877 55.6716C440.54 55.2908 440.076 55.1003 439.485 55.1003C439.163 55.1003 438.89 55.1443 438.665 55.2322C438.44 55.3152 438.196 55.4812 437.933 55.7302L436.512 55.3787Z" fill="#444444"/>
<path d="M31 98C31 95.2386 33.2386 93 36 93H106C108.761 93 111 95.2386 111 98V138C111 140.761 108.761 143 106 143H36C33.2386 143 31 140.761 31 138V98Z" fill="#DDDDDD"/>
<path d="M73.5728 111.951V113.424H73.353C72.3569 113.438 71.561 113.712 70.9653 114.244C70.3696 114.776 70.0156 115.531 69.9033 116.507C70.4746 115.906 71.2046 115.606 72.0933 115.606C73.0356 115.606 73.7778 115.938 74.3198 116.602C74.8667 117.266 75.1401 118.123 75.1401 119.173C75.1401 120.257 74.8203 121.136 74.1807 121.81C73.5459 122.479 72.7109 122.813 71.6758 122.813C70.6113 122.813 69.7471 122.42 69.083 121.634C68.4238 120.848 68.0942 119.818 68.0942 118.543V117.935C68.0942 116.065 68.5483 114.6 69.4565 113.541C70.3696 112.481 71.6807 111.951 73.3896 111.951H73.5728ZM71.6611 117.042C71.2705 117.042 70.9116 117.152 70.5845 117.371C70.2622 117.591 70.0254 117.884 69.874 118.25V118.792C69.874 119.583 70.04 120.213 70.3721 120.682C70.7041 121.146 71.1338 121.378 71.6611 121.378C72.1885 121.378 72.606 121.18 72.9136 120.784C73.2212 120.389 73.375 119.869 73.375 119.224C73.375 118.58 73.2188 118.055 72.9062 117.65C72.5938 117.244 72.1787 117.042 71.6611 117.042Z" fill="#444444"/>
<path d="M123 98C123 95.2386 125.239 93 128 93H198C200.761 93 203 95.2386 203 98V138C203 140.761 200.761 143 198 143H128C125.239 143 123 140.761 123 138V98Z" fill="#DDDDDD"/>
<path d="M167.133 112.991L162.87 122.667H161.002L165.258 113.431H159.743V112.003H167.133V112.991Z" fill="#444444"/>
<path d="M215 98C215 95.2386 217.239 93 220 93H290C292.761 93 295 95.2386 295 98V138C295 140.761 292.761 143 290 143H220C217.239 143 215 140.761 215 138V98Z" fill="#DDDDDD"/>
<path d="M258.752 114.815C258.752 115.338 258.618 115.804 258.349 116.214C258.081 116.619 257.714 116.939 257.25 117.174C257.807 117.432 258.234 117.786 258.532 118.236C258.835 118.685 258.986 119.193 258.986 119.759C258.986 120.697 258.669 121.441 258.034 121.993C257.399 122.54 256.555 122.813 255.5 122.813C254.44 122.813 253.591 122.537 252.951 121.986C252.316 121.434 251.999 120.692 251.999 119.759C251.999 119.188 252.15 118.675 252.453 118.221C252.756 117.767 253.181 117.418 253.728 117.174C253.269 116.939 252.905 116.619 252.636 116.214C252.373 115.804 252.241 115.338 252.241 114.815C252.241 113.907 252.534 113.187 253.12 112.655C253.706 112.122 254.497 111.856 255.493 111.856C256.494 111.856 257.287 112.122 257.873 112.655C258.459 113.187 258.752 113.907 258.752 114.815ZM257.207 119.671C257.207 119.144 257.048 118.719 256.73 118.397C256.418 118.07 256.003 117.906 255.485 117.906C254.968 117.906 254.553 118.067 254.24 118.389C253.933 118.712 253.779 119.139 253.779 119.671C253.779 120.194 253.93 120.611 254.233 120.924C254.541 121.236 254.963 121.392 255.5 121.392C256.037 121.392 256.455 121.241 256.752 120.938C257.055 120.635 257.207 120.213 257.207 119.671ZM256.979 114.881C256.979 114.417 256.845 114.036 256.577 113.739C256.308 113.436 255.947 113.284 255.493 113.284C255.039 113.284 254.68 113.428 254.416 113.717C254.152 114 254.021 114.388 254.021 114.881C254.021 115.369 254.152 115.758 254.416 116.046C254.685 116.334 255.046 116.478 255.5 116.478C255.954 116.478 256.313 116.334 256.577 116.046C256.845 115.758 256.979 115.369 256.979 114.881Z" fill="#444444"/>
<path d="M307 98C307 95.2386 309.239 93 312 93H382C384.761 93 387 95.2386 387 98V138C387 140.761 384.761 143 382 143H312C309.239 143 307 140.761 307 138V98Z" fill="#DDDDDD"/>
<path d="M349.082 118.206C348.486 118.836 347.791 119.151 346.995 119.151C346.057 119.151 345.31 118.824 344.753 118.17C344.197 117.51 343.918 116.646 343.918 115.577C343.918 114.874 344.06 114.237 344.343 113.665C344.626 113.094 345.029 112.65 345.552 112.332C346.074 112.015 346.68 111.856 347.368 111.856C348.442 111.856 349.294 112.257 349.924 113.057C350.554 113.858 350.869 114.93 350.869 116.273V116.771C350.869 118.695 350.435 120.162 349.565 121.173C348.696 122.183 347.4 122.696 345.676 122.711H345.464V121.239H345.72C346.77 121.224 347.576 120.972 348.137 120.484C348.699 119.991 349.014 119.232 349.082 118.206ZM347.368 117.76C347.725 117.76 348.059 117.657 348.372 117.452C348.684 117.247 348.926 116.964 349.097 116.602V115.906C349.097 115.12 348.936 114.488 348.613 114.01C348.291 113.531 347.874 113.292 347.361 113.292C346.848 113.292 346.438 113.504 346.13 113.929C345.828 114.349 345.676 114.881 345.676 115.526C345.676 116.195 345.83 116.734 346.138 117.144C346.445 117.554 346.855 117.76 347.368 117.76Z" fill="#444444"/>
<path d="M399 98C399 95.2386 401.239 93 404 93H474C476.761 93 479 95.2386 479 98V138C479 140.761 476.761 143 474 143H404C401.239 143 399 140.761 399 138V98Z" fill="#DDDDDD"/>
<path d="M436.092 122.667H434.32V114.105L431.705 114.998V113.497L435.865 111.966H436.092V122.667ZM446.749 118.177C446.749 119.71 446.461 120.867 445.885 121.649C445.313 122.425 444.442 122.813 443.27 122.813C442.118 122.813 441.249 122.435 440.663 121.678C440.082 120.916 439.784 119.791 439.769 118.302V116.456C439.769 114.923 440.055 113.773 440.626 113.006C441.202 112.24 442.079 111.856 443.255 111.856C444.422 111.856 445.292 112.23 445.863 112.977C446.439 113.724 446.734 114.842 446.749 116.331V118.177ZM444.969 116.185C444.969 115.184 444.833 114.451 444.559 113.988C444.286 113.519 443.851 113.284 443.255 113.284C442.674 113.284 442.247 113.507 441.974 113.951C441.7 114.39 441.556 115.079 441.542 116.016V118.433C441.542 119.429 441.681 120.172 441.959 120.66C442.237 121.148 442.674 121.392 443.27 121.392C443.841 121.392 444.264 121.168 444.537 120.719C444.811 120.264 444.955 119.556 444.969 118.594V116.185Z" fill="#444444"/>
<path d="M31 160C31 157.239 33.2386 155 36 155H106C108.761 155 111 157.239 111 160V200C111 202.761 108.761 205 106 205H36C33.2386 205 31 202.761 31 200V160Z" fill="#DDDDDD"/>
<path d="M68.0923 184.667H66.3198V176.105L63.7051 176.998V175.497L67.8652 173.966H68.0923V184.667ZM76.6177 184.667H74.8452V176.105L72.2305 176.998V175.497L76.3906 173.966H76.6177V184.667Z" fill="#444444"/>
<path d="M123 160C123 157.239 125.239 155 128 155H198C200.761 155 203 157.239 203 160V200C203 202.761 200.761 205 198 205H128C125.239 205 123 202.761 123 200V160Z" fill="#DDDDDD"/>
<path d="M160.092 184.667H158.32V176.105L155.705 176.998V175.497L159.865 173.966H160.092V184.667ZM170.969 184.667H163.798V183.444L167.351 179.569C167.863 178.998 168.227 178.522 168.442 178.141C168.662 177.755 168.771 177.369 168.771 176.984C168.771 176.476 168.627 176.066 168.339 175.753C168.056 175.441 167.673 175.284 167.189 175.284C166.613 175.284 166.167 175.46 165.849 175.812C165.532 176.163 165.373 176.644 165.373 177.255H163.593C163.593 176.605 163.74 176.022 164.033 175.504C164.331 174.982 164.753 174.576 165.3 174.288C165.852 174 166.486 173.856 167.204 173.856C168.239 173.856 169.055 174.117 169.65 174.64C170.251 175.157 170.551 175.875 170.551 176.793C170.551 177.325 170.4 177.885 170.097 178.47C169.799 179.052 169.309 179.713 168.625 180.455L166.018 183.246H170.969V184.667Z" fill="#444444"/>
<path d="M215 160C215 157.239 217.239 155 220 155H290C292.761 155 295 157.239 295 160V200C295 202.761 292.761 205 290 205H220C217.239 205 215 202.761 215 200V160Z" fill="#DDDDDD"/>
<path d="M252.092 184.667H250.32V176.105L247.705 176.998V175.497L251.865 173.966H252.092V184.667ZM257.856 178.522H258.94C259.487 178.517 259.919 178.375 260.237 178.097C260.559 177.819 260.72 177.416 260.72 176.888C260.72 176.381 260.586 175.988 260.317 175.709C260.054 175.426 259.648 175.284 259.102 175.284C258.623 175.284 258.23 175.424 257.922 175.702C257.615 175.975 257.461 176.334 257.461 176.779H255.681C255.681 176.232 255.825 175.734 256.113 175.284C256.406 174.835 256.812 174.486 257.329 174.237C257.852 173.983 258.435 173.856 259.08 173.856C260.144 173.856 260.979 174.125 261.584 174.662C262.195 175.194 262.5 175.936 262.5 176.888C262.5 177.367 262.346 177.819 262.039 178.243C261.736 178.663 261.343 178.981 260.859 179.196C261.445 179.396 261.89 179.711 262.192 180.14C262.5 180.57 262.654 181.083 262.654 181.678C262.654 182.635 262.324 183.397 261.665 183.964C261.011 184.53 260.149 184.813 259.08 184.813C258.054 184.813 257.214 184.54 256.56 183.993C255.906 183.446 255.579 182.719 255.579 181.81H257.358C257.358 182.279 257.515 182.66 257.827 182.953C258.145 183.246 258.569 183.392 259.102 183.392C259.653 183.392 260.088 183.246 260.405 182.953C260.723 182.66 260.881 182.235 260.881 181.678C260.881 181.117 260.715 180.685 260.383 180.382C260.051 180.079 259.558 179.928 258.904 179.928H257.856V178.522Z" fill="#444444"/>
<path d="M307 160C307 157.239 309.239 155 312 155H382C384.761 155 387 157.239 387 160V200C387 202.761 384.761 205 382 205H312C309.239 205 307 202.761 307 200V160Z" fill="#DDDDDD"/>
<path d="M344.092 184.667H342.32V176.105L339.705 176.998V175.497L343.865 173.966H344.092V184.667ZM353.819 180.865H355.145V182.294H353.819V184.667H352.039V182.294H347.432L347.381 181.21L351.98 174.003H353.819V180.865ZM349.249 180.865H352.039V176.412L351.907 176.647L349.249 180.865Z" fill="#444444"/>
<path d="M399 160C399 157.239 401.239 155 404 155H474C476.761 155 479 157.239 479 160V200C479 202.761 476.761 205 474 205H404C401.239 205 399 202.761 399 200V160Z" fill="#DDDDDD"/>
<path d="M436.092 184.667H434.32V176.105L431.705 176.998V175.497L435.865 173.966H436.092V184.667ZM440.274 179.379L440.853 174.003H446.581V175.541H442.333L442.04 178.09C442.533 177.806 443.089 177.665 443.709 177.665C444.725 177.665 445.514 177.99 446.075 178.639C446.642 179.288 446.925 180.162 446.925 181.261C446.925 182.345 446.612 183.209 445.987 183.854C445.362 184.493 444.505 184.813 443.417 184.813C442.44 184.813 441.629 184.537 440.985 183.986C440.345 183.429 439.999 182.697 439.945 181.788H441.666C441.734 182.306 441.92 182.704 442.223 182.982C442.525 183.256 442.921 183.392 443.409 183.392C443.956 183.392 444.381 183.197 444.684 182.806C444.991 182.416 445.145 181.884 445.145 181.21C445.145 180.56 444.977 180.048 444.64 179.672C444.303 179.291 443.839 179.1 443.248 179.1C442.926 179.1 442.652 179.144 442.428 179.232C442.203 179.315 441.959 179.481 441.695 179.73L440.274 179.379Z" fill="#444444"/>
<path d="M31 222C31 219.239 33.2386 217 36 217H106C108.761 217 111 219.239 111 222V262C111 264.761 108.761 267 106 267H36C33.2386 267 31 264.761 31 262V222Z" fill="#DDDDDD"/>
<path d="M68.0923 246.667H66.3198V238.105L63.7051 238.998V237.497L67.8652 235.966H68.0923V246.667ZM77.3354 235.951V237.424H77.1157C76.1196 237.438 75.3237 237.712 74.728 238.244C74.1323 238.776 73.7783 239.531 73.666 240.507C74.2373 239.906 74.9673 239.606 75.856 239.606C76.7983 239.606 77.5405 239.938 78.0825 240.602C78.6294 241.266 78.9028 242.123 78.9028 243.173C78.9028 244.257 78.583 245.136 77.9434 245.81C77.3086 246.479 76.4736 246.813 75.4385 246.813C74.374 246.813 73.5098 246.42 72.8457 245.634C72.1865 244.848 71.8569 243.818 71.8569 242.543V241.935C71.8569 240.065 72.311 238.6 73.2192 237.541C74.1323 236.481 75.4434 235.951 77.1523 235.951H77.3354ZM75.4238 241.042C75.0332 241.042 74.6743 241.152 74.3472 241.371C74.0249 241.591 73.7881 241.884 73.6367 242.25V242.792C73.6367 243.583 73.8027 244.213 74.1348 244.682C74.4668 245.146 74.8965 245.378 75.4238 245.378C75.9512 245.378 76.3687 245.18 76.6763 244.784C76.9839 244.389 77.1377 243.869 77.1377 243.224C77.1377 242.58 76.9814 242.055 76.6689 241.65C76.3564 241.244 75.9414 241.042 75.4238 241.042Z" fill="#444444"/>
<path d="M123 222C123 219.239 125.239 217 128 217H198C200.761 217 203 219.239 203 222V262C203 264.761 200.761 267 198 267H128C125.239 267 123 264.761 123 262V222Z" fill="#DDDDDD"/>
<path d="M160.092 246.667H158.32V238.105L155.705 238.998V237.497L159.865 235.966H160.092V246.667ZM170.896 236.991L166.633 246.667H164.765L169.021 237.431H163.505V236.003H170.896V236.991Z" fill="#444444"/>
<path d="M215 222C215 219.239 217.239 217 220 217H290C292.761 217 295 219.239 295 222V262C295 264.761 292.761 267 290 267H220C217.239 267 215 264.761 215 262V222Z" fill="#DDDDDD"/>
<path d="M252.092 246.667H250.32V238.105L247.705 238.998V237.497L251.865 235.966H252.092V246.667ZM262.515 238.815C262.515 239.338 262.38 239.804 262.112 240.214C261.843 240.619 261.477 240.939 261.013 241.174C261.57 241.432 261.997 241.786 262.295 242.236C262.598 242.685 262.749 243.193 262.749 243.759C262.749 244.697 262.432 245.441 261.797 245.993C261.162 246.54 260.317 246.813 259.263 246.813C258.203 246.813 257.354 246.537 256.714 245.986C256.079 245.434 255.762 244.692 255.762 243.759C255.762 243.188 255.913 242.675 256.216 242.221C256.519 241.767 256.943 241.418 257.49 241.174C257.031 240.939 256.667 240.619 256.399 240.214C256.135 239.804 256.003 239.338 256.003 238.815C256.003 237.907 256.296 237.187 256.882 236.655C257.468 236.122 258.259 235.856 259.255 235.856C260.256 235.856 261.05 236.122 261.636 236.655C262.222 237.187 262.515 237.907 262.515 238.815ZM260.969 243.671C260.969 243.144 260.811 242.719 260.493 242.397C260.181 242.07 259.766 241.906 259.248 241.906C258.73 241.906 258.315 242.067 258.003 242.389C257.695 242.712 257.542 243.139 257.542 243.671C257.542 244.194 257.693 244.611 257.996 244.924C258.303 245.236 258.726 245.392 259.263 245.392C259.8 245.392 260.217 245.241 260.515 244.938C260.818 244.635 260.969 244.213 260.969 243.671ZM260.742 238.881C260.742 238.417 260.608 238.036 260.339 237.739C260.071 237.436 259.709 237.284 259.255 237.284C258.801 237.284 258.442 237.428 258.179 237.717C257.915 238 257.783 238.388 257.783 238.881C257.783 239.369 257.915 239.758 258.179 240.046C258.447 240.334 258.809 240.478 259.263 240.478C259.717 240.478 260.076 240.334 260.339 240.046C260.608 239.758 260.742 239.369 260.742 238.881Z" fill="#444444"/>
<path d="M307 222C307 219.239 309.239 217 312 217H382C384.761 217 387 219.239 387 222V262C387 264.761 384.761 267 382 267H312C309.239 267 307 264.761 307 262V222Z" fill="#DDDDDD"/>
<path d="M344.092 246.667H342.32V238.105L339.705 238.998V237.497L343.865 235.966H344.092V246.667ZM352.845 242.206C352.249 242.836 351.553 243.151 350.757 243.151C349.82 243.151 349.073 242.824 348.516 242.17C347.959 241.51 347.681 240.646 347.681 239.577C347.681 238.874 347.823 238.237 348.106 237.665C348.389 237.094 348.792 236.65 349.314 236.332C349.837 236.015 350.442 235.856 351.131 235.856C352.205 235.856 353.057 236.257 353.687 237.057C354.317 237.858 354.632 238.93 354.632 240.273V240.771C354.632 242.695 354.197 244.162 353.328 245.173C352.459 246.183 351.163 246.696 349.439 246.711H349.227V245.239H349.483C350.533 245.224 351.338 244.972 351.9 244.484C352.461 243.991 352.776 243.232 352.845 242.206ZM351.131 241.76C351.487 241.76 351.822 241.657 352.134 241.452C352.447 241.247 352.688 240.964 352.859 240.602V239.906C352.859 239.12 352.698 238.488 352.376 238.01C352.054 237.531 351.636 237.292 351.124 237.292C350.611 237.292 350.201 237.504 349.893 237.929C349.59 238.349 349.439 238.881 349.439 239.526C349.439 240.195 349.593 240.734 349.9 241.144C350.208 241.554 350.618 241.76 351.131 241.76Z" fill="#444444"/>
<path d="M399 222C399 219.239 401.239 217 404 217H474C476.761 217 479 219.239 479 222V262C479 264.761 476.761 267 474 267H404C401.239 267 399 264.761 399 262V222Z" fill="#DDDDDD"/>
<path d="M438.443 246.667H431.273V245.444L434.825 241.569C435.338 240.998 435.702 240.522 435.917 240.141C436.136 239.755 436.246 239.369 436.246 238.984C436.246 238.476 436.102 238.066 435.814 237.753C435.531 237.441 435.147 237.284 434.664 237.284C434.088 237.284 433.641 237.46 433.324 237.812C433.006 238.163 432.848 238.644 432.848 239.255H431.068C431.068 238.605 431.214 238.022 431.507 237.504C431.805 236.982 432.228 236.576 432.774 236.288C433.326 236 433.961 235.856 434.679 235.856C435.714 235.856 436.529 236.117 437.125 236.64C437.726 237.157 438.026 237.875 438.026 238.793C438.026 239.325 437.875 239.885 437.572 240.47C437.274 241.052 436.783 241.713 436.1 242.455L433.492 245.246H438.443V246.667ZM446.749 242.177C446.749 243.71 446.461 244.867 445.885 245.649C445.313 246.425 444.442 246.813 443.27 246.813C442.118 246.813 441.249 246.435 440.663 245.678C440.082 244.916 439.784 243.791 439.769 242.302V240.456C439.769 238.923 440.055 237.773 440.626 237.006C441.202 236.24 442.079 235.856 443.255 235.856C444.422 235.856 445.292 236.23 445.863 236.977C446.439 237.724 446.734 238.842 446.749 240.331V242.177ZM444.969 240.185C444.969 239.184 444.833 238.451 444.559 237.988C444.286 237.519 443.851 237.284 443.255 237.284C442.674 237.284 442.247 237.507 441.974 237.951C441.7 238.39 441.556 239.079 441.542 240.016V242.433C441.542 243.429 441.681 244.172 441.959 244.66C442.237 245.148 442.674 245.392 443.27 245.392C443.841 245.392 444.264 245.168 444.537 244.719C444.811 244.264 444.955 243.556 444.969 242.594V240.185Z" fill="#444444"/>
<path d="M31 284C31 281.239 33.2386 279 36 279H106C108.761 279 111 281.239 111 284V324C111 326.761 108.761 329 106 329H36C33.2386 329 31 326.761 31 324V284Z" fill="#DDDDDD"/>
<path d="M70.4434 308.667H63.2729V307.444L66.8252 303.569C67.3379 302.998 67.7017 302.522 67.9165 302.141C68.1362 301.755 68.2461 301.369 68.2461 300.984C68.2461 300.476 68.1021 300.066 67.814 299.753C67.5308 299.441 67.1475 299.284 66.6641 299.284C66.0879 299.284 65.6411 299.46 65.3237 299.812C65.0063 300.163 64.8477 300.644 64.8477 301.255H63.0679C63.0679 300.605 63.2144 300.022 63.5073 299.504C63.8052 298.982 64.2275 298.576 64.7744 298.288C65.3262 298 65.9609 297.856 66.6787 297.856C67.7139 297.856 68.5293 298.117 69.125 298.64C69.7256 299.157 70.0259 299.875 70.0259 300.793C70.0259 301.325 69.8745 301.885 69.5718 302.47C69.2739 303.052 68.7832 303.713 68.0996 304.455L65.4922 307.246H70.4434V308.667ZM76.6177 308.667H74.8452V300.105L72.2305 300.998V299.497L76.3906 297.966H76.6177V308.667Z" fill="#444444"/>
<path d="M123 284C123 281.239 125.239 279 128 279H198C200.761 279 203 281.239 203 284V324C203 326.761 200.761 329 198 329H128C125.239 329 123 326.761 123 324V284Z" fill="#DDDDDD"/>
<path d="M162.443 308.667H155.273V307.444L158.825 303.569C159.338 302.998 159.702 302.522 159.917 302.141C160.136 301.755 160.246 301.369 160.246 300.984C160.246 300.476 160.102 300.066 159.814 299.753C159.531 299.441 159.147 299.284 158.664 299.284C158.088 299.284 157.641 299.46 157.324 299.812C157.006 300.163 156.848 300.644 156.848 301.255H155.068C155.068 300.605 155.214 300.022 155.507 299.504C155.805 298.982 156.228 298.576 156.774 298.288C157.326 298 157.961 297.856 158.679 297.856C159.714 297.856 160.529 298.117 161.125 298.64C161.726 299.157 162.026 299.875 162.026 300.793C162.026 301.325 161.875 301.885 161.572 302.47C161.274 303.052 160.783 303.713 160.1 304.455L157.492 307.246H162.443V308.667ZM170.969 308.667H163.798V307.444L167.351 303.569C167.863 302.998 168.227 302.522 168.442 302.141C168.662 301.755 168.771 301.369 168.771 300.984C168.771 300.476 168.627 300.066 168.339 299.753C168.056 299.441 167.673 299.284 167.189 299.284C166.613 299.284 166.167 299.46 165.849 299.812C165.532 300.163 165.373 300.644 165.373 301.255H163.593C163.593 300.605 163.74 300.022 164.033 299.504C164.331 298.982 164.753 298.576 165.3 298.288C165.852 298 166.486 297.856 167.204 297.856C168.239 297.856 169.055 298.117 169.65 298.64C170.251 299.157 170.551 299.875 170.551 300.793C170.551 301.325 170.4 301.885 170.097 302.47C169.799 303.052 169.309 303.713 168.625 304.455L166.018 307.246H170.969V308.667Z" fill="#444444"/>
<path d="M28 28V27H27V28H28ZM482 28H483V27H482V28ZM482 332V333H483V332H482ZM28 332H27V333H28V332ZM28 29H482V27H28V29ZM481 28V332H483V28H481ZM482 331H28V333H482V331ZM29 332V28H27V332H29Z" fill="#444444"/>
<path d="M113.5 29L113.5 331" stroke="#BBBBBB" stroke-dasharray="3 2"/>
<path d="M120.5 29L120.5 331" stroke="#BBBBBB" stroke-dasharray="3 2"/>
<path d="M205.5 29L205.5 331" stroke="#BBBBBB" stroke-dasharray="3 2"/>
<path d="M212.5 29L212.5 331" stroke="#BBBBBB" stroke-dasharray="3 2"/>
<path d="M297.5 29L297.5 331" stroke="#BBBBBB" stroke-dasharray="3 2"/>
<path d="M304.5 29L304.5 331" stroke="#BBBBBB" stroke-dasharray="3 2"/>
<path d="M389.5 29L389.5 331" stroke="#BBBBBB" stroke-dasharray="3 2"/>
<path d="M396.5 29L396.5 331" stroke="#BBBBBB" stroke-dasharray="3 2"/>
<g clip-path="url(#clip0)">
<path d="M29 90.5L481 90.5" stroke="#BBBBBB" stroke-dasharray="3 2"/>
<path d="M29 83.5L481 83.5" stroke="#BBBBBB" stroke-dasharray="3 2"/>
</g>
<g clip-path="url(#clip1)">
<path d="M29 152.5L481 152.5" stroke="#BBBBBB" stroke-dasharray="3 2"/>
<path d="M29 145.5L481 145.5" stroke="#BBBBBB" stroke-dasharray="3 2"/>
</g>
<g clip-path="url(#clip2)">
<path d="M29 214.5L481 214.5" stroke="#BBBBBB" stroke-dasharray="3 2"/>
<path d="M29 207.5L481 207.5" stroke="#BBBBBB" stroke-dasharray="3 2"/>
</g>
<g clip-path="url(#clip3)">
<path d="M29 276.5L481 276.5" stroke="#BBBBBB" stroke-dasharray="3 2"/>
<path d="M29 269.5L481 269.5" stroke="#BBBBBB" stroke-dasharray="3 2"/>
</g>
</g>
<rect opacity="0.75" x="29" y="90" width="452" height="56" fill="#00986B"/>
<rect opacity="0.75" x="206" y="29" width="302" height="86" transform="rotate(90 206 29)" fill="#1E73FF"/>
<path d="M245.091 117.288C244.668 117.231 244.296 117.202 243.974 117.202C242.799 117.202 242.029 117.6 241.664 118.395V126H238.56V114.377H241.492L241.578 115.763C242.201 114.696 243.064 114.162 244.167 114.162C244.511 114.162 244.833 114.209 245.134 114.302L245.091 117.288ZM245.725 120.081C245.725 118.928 245.947 117.9 246.391 116.998C246.835 116.096 247.472 115.397 248.303 114.903C249.141 114.409 250.111 114.162 251.214 114.162C252.782 114.162 254.061 114.642 255.049 115.602C256.044 116.561 256.599 117.865 256.714 119.512L256.735 120.307C256.735 122.09 256.238 123.522 255.242 124.604C254.247 125.678 252.911 126.215 251.235 126.215C249.56 126.215 248.22 125.678 247.218 124.604C246.222 123.529 245.725 122.068 245.725 120.221V120.081ZM248.829 120.307C248.829 121.41 249.037 122.255 249.452 122.842C249.868 123.422 250.462 123.712 251.235 123.712C251.987 123.712 252.575 123.425 252.997 122.853C253.42 122.272 253.631 121.349 253.631 120.081C253.631 119 253.42 118.162 252.997 117.567C252.575 116.973 251.98 116.676 251.214 116.676C250.455 116.676 249.868 116.973 249.452 117.567C249.037 118.155 248.829 119.068 248.829 120.307ZM268.756 121.778L270.281 114.377H273.278L270.313 126H267.714L265.512 118.685L263.31 126H260.721L257.756 114.377H260.753L262.268 121.768L264.395 114.377H266.64L268.756 121.778Z" fill="white"/>
<path d="M132.299 185.712C132.872 185.712 133.337 185.554 133.695 185.239C134.053 184.924 134.24 184.505 134.254 183.982H137.165C137.158 184.77 136.943 185.493 136.521 186.152C136.098 186.804 135.518 187.312 134.78 187.678C134.05 188.036 133.241 188.215 132.353 188.215C130.691 188.215 129.381 187.688 128.421 186.636C127.461 185.576 126.981 184.115 126.981 182.253V182.049C126.981 180.258 127.458 178.83 128.41 177.763C129.363 176.696 130.67 176.162 132.331 176.162C133.785 176.162 134.949 176.577 135.822 177.408C136.703 178.232 137.151 179.331 137.165 180.706H134.254C134.24 180.104 134.053 179.618 133.695 179.245C133.337 178.866 132.865 178.676 132.277 178.676C131.554 178.676 131.006 178.941 130.634 179.471C130.269 179.993 130.086 180.846 130.086 182.027V182.35C130.086 183.546 130.269 184.405 130.634 184.928C130.999 185.451 131.554 185.712 132.299 185.712ZM138.454 182.081C138.454 180.928 138.676 179.9 139.12 178.998C139.564 178.096 140.201 177.397 141.032 176.903C141.87 176.409 142.84 176.162 143.943 176.162C145.512 176.162 146.79 176.642 147.778 177.602C148.774 178.561 149.329 179.865 149.443 181.512L149.465 182.307C149.465 184.09 148.967 185.522 147.972 186.604C146.976 187.678 145.641 188.215 143.965 188.215C142.289 188.215 140.95 187.678 139.947 186.604C138.952 185.529 138.454 184.068 138.454 182.221V182.081ZM141.559 182.307C141.559 183.41 141.766 184.255 142.182 184.842C142.597 185.422 143.191 185.712 143.965 185.712C144.717 185.712 145.304 185.425 145.727 184.853C146.149 184.272 146.36 183.349 146.36 182.081C146.36 181 146.149 180.162 145.727 179.567C145.304 178.973 144.71 178.676 143.943 178.676C143.184 178.676 142.597 178.973 142.182 179.567C141.766 180.155 141.559 181.068 141.559 182.307ZM154.653 188H151.538V171.5H154.653V188ZM164.182 186.818C163.415 187.749 162.355 188.215 161.002 188.215C159.756 188.215 158.803 187.857 158.145 187.141C157.493 186.424 157.16 185.375 157.146 183.993V176.377H160.25V183.886C160.25 185.096 160.801 185.701 161.904 185.701C162.957 185.701 163.68 185.336 164.074 184.605V176.377H167.189V188H164.268L164.182 186.818ZM172.442 176.377L172.539 177.677C173.363 176.667 174.476 176.162 175.88 176.162C177.377 176.162 178.404 176.753 178.963 177.935C179.779 176.753 180.943 176.162 182.454 176.162C183.715 176.162 184.653 176.531 185.269 177.269C185.884 177.999 186.192 179.102 186.192 180.577V188H183.077V180.588C183.077 179.929 182.948 179.449 182.69 179.148C182.433 178.84 181.978 178.687 181.326 178.687C180.395 178.687 179.751 179.131 179.393 180.019L179.403 188H176.299V180.599C176.299 179.925 176.166 179.438 175.901 179.138C175.636 178.837 175.185 178.687 174.548 178.687C173.667 178.687 173.03 179.052 172.636 179.782V188H169.531V176.377H172.442ZM191.445 176.377L191.542 177.72C192.373 176.681 193.486 176.162 194.883 176.162C196.115 176.162 197.031 176.524 197.633 177.247C198.234 177.97 198.542 179.052 198.557 180.491V188H195.452V180.566C195.452 179.908 195.309 179.431 195.022 179.138C194.736 178.837 194.26 178.687 193.594 178.687C192.72 178.687 192.065 179.059 191.628 179.804V188H188.523V176.377H191.445Z" fill="white"/>
<defs>
<clipPath id="clip0">
<rect width="7.99998" height="452" fill="white" transform="translate(29 91) rotate(-90)"/>
</clipPath>
<clipPath id="clip1">
<rect width="7.99998" height="452" fill="white" transform="translate(29 153) rotate(-90)"/>
</clipPath>
<clipPath id="clip2">
<rect width="7.99998" height="452" fill="white" transform="translate(29 215) rotate(-90)"/>
</clipPath>
<clipPath id="clip3">
<rect width="7.99998" height="452" fill="white" transform="translate(29 277) rotate(-90)"/>
</clipPath>
</defs>
</svg>
