<svg width="425" height="162" viewBox="0 0 425 162" fill="none" xmlns="http://www.w3.org/2000/svg">
<rect x="2" y="27" width="158" height="108" fill="#F7F7F7" stroke="#AAAAAA" stroke-width="2" stroke-dasharray="6 4"/>
<path d="M3.61816 12H1.95703V4.60352H3.61816V12ZM1.85449 2.68262C1.85449 2.42741 1.93424 2.21549 2.09375 2.04688C2.25781 1.87826 2.49023 1.79395 2.79102 1.79395C3.0918 1.79395 3.32422 1.87826 3.48828 2.04688C3.65234 2.21549 3.73438 2.42741 3.73438 2.68262C3.73438 2.93327 3.65234 3.1429 3.48828 3.31152C3.32422 3.47559 3.0918 3.55762 2.79102 3.55762C2.49023 3.55762 2.25781 3.47559 2.09375 3.31152C1.93424 3.1429 1.85449 2.93327 1.85449 2.68262ZM6.97461 4.60352L7.02246 5.45801C7.56934 4.7972 8.28711 4.4668 9.17578 4.4668C10.7161 4.4668 11.5 5.34863 11.5273 7.1123V12H9.86621V7.20801C9.86621 6.73861 9.76367 6.39225 9.55859 6.16895C9.35807 5.94108 9.02767 5.82715 8.56738 5.82715C7.89746 5.82715 7.39844 6.13021 7.07031 6.73633V12H5.40918V4.60352H6.97461ZM14.9932 12H13.332V4.60352H14.9932V12ZM13.2295 2.68262C13.2295 2.42741 13.3092 2.21549 13.4688 2.04688C13.6328 1.87826 13.8652 1.79395 14.166 1.79395C14.4668 1.79395 14.6992 1.87826 14.8633 2.04688C15.0273 2.21549 15.1094 2.42741 15.1094 2.68262C15.1094 2.93327 15.0273 3.1429 14.8633 3.31152C14.6992 3.47559 14.4668 3.55762 14.166 3.55762C13.8652 3.55762 13.6328 3.47559 13.4688 3.31152C13.3092 3.1429 13.2295 2.93327 13.2295 2.68262ZM18.8896 2.80566V4.60352H20.1953V5.83398H18.8896V9.96289C18.8896 10.2454 18.9443 10.4505 19.0537 10.5781C19.1676 10.7012 19.3682 10.7627 19.6553 10.7627C19.8467 10.7627 20.0404 10.7399 20.2363 10.6943V11.9795C19.8581 12.0843 19.4935 12.1367 19.1426 12.1367C17.8665 12.1367 17.2285 11.4326 17.2285 10.0244V5.83398H16.0117V4.60352H17.2285V2.80566H18.8896ZM23.2373 12H21.5762V4.60352H23.2373V12ZM21.4736 2.68262C21.4736 2.42741 21.5534 2.21549 21.7129 2.04688C21.877 1.87826 22.1094 1.79395 22.4102 1.79395C22.7109 1.79395 22.9434 1.87826 23.1074 2.04688C23.2715 2.21549 23.3535 2.42741 23.3535 2.68262C23.3535 2.93327 23.2715 3.1429 23.1074 3.31152C22.9434 3.47559 22.7109 3.55762 22.4102 3.55762C22.1094 3.55762 21.877 3.47559 21.7129 3.31152C21.5534 3.1429 21.4736 2.93327 21.4736 2.68262ZM29.4717 12C29.3988 11.8587 29.335 11.6286 29.2803 11.3096C28.7516 11.861 28.1045 12.1367 27.3389 12.1367C26.596 12.1367 25.9899 11.9248 25.5205 11.501C25.0511 11.0771 24.8164 10.5531 24.8164 9.92871C24.8164 9.1403 25.1081 8.53646 25.6914 8.11719C26.2793 7.69336 27.1178 7.48145 28.207 7.48145H29.2256V6.99609C29.2256 6.61328 29.1185 6.30794 28.9043 6.08008C28.6901 5.84766 28.3643 5.73145 27.9268 5.73145C27.5485 5.73145 27.2386 5.82715 26.9971 6.01855C26.7555 6.2054 26.6348 6.44466 26.6348 6.73633H24.9736C24.9736 6.33073 25.1081 5.95247 25.377 5.60156C25.6458 5.24609 26.0104 4.9681 26.4707 4.76758C26.9355 4.56706 27.4528 4.4668 28.0225 4.4668C28.8883 4.4668 29.5788 4.68555 30.0938 5.12305C30.6087 5.55599 30.873 6.16667 30.8867 6.95508V10.291C30.8867 10.9564 30.9801 11.4873 31.167 11.8838V12H29.4717ZM27.6465 10.8037C27.9746 10.8037 28.2822 10.724 28.5693 10.5645C28.861 10.4049 29.0798 10.1908 29.2256 9.92188V8.52734H28.3301C27.7148 8.52734 27.2523 8.63444 26.9424 8.84863C26.6325 9.06283 26.4775 9.36589 26.4775 9.75781C26.4775 10.0768 26.5824 10.332 26.792 10.5234C27.0062 10.7103 27.291 10.8037 27.6465 10.8037ZM34.3936 12H32.7324V1.5H34.3936V12ZM42.3027 9.89453L43.8682 4.60352H45.584L43.0205 12H41.5781L38.9941 4.60352H40.7168L42.3027 9.89453ZM50.9365 12C50.8636 11.8587 50.7998 11.6286 50.7451 11.3096C50.2165 11.861 49.5693 12.1367 48.8037 12.1367C48.0609 12.1367 47.4548 11.9248 46.9854 11.501C46.516 11.0771 46.2812 10.5531 46.2812 9.92871C46.2812 9.1403 46.5729 8.53646 47.1562 8.11719C47.7441 7.69336 48.5827 7.48145 49.6719 7.48145H50.6904V6.99609C50.6904 6.61328 50.5833 6.30794 50.3691 6.08008C50.1549 5.84766 49.8291 5.73145 49.3916 5.73145C49.0133 5.73145 48.7035 5.82715 48.4619 6.01855C48.2204 6.2054 48.0996 6.44466 48.0996 6.73633H46.4385C46.4385 6.33073 46.5729 5.95247 46.8418 5.60156C47.1107 5.24609 47.4753 4.9681 47.9355 4.76758C48.4004 4.56706 48.9176 4.4668 49.4873 4.4668C50.3532 4.4668 51.0436 4.68555 51.5586 5.12305C52.0736 5.55599 52.3379 6.16667 52.3516 6.95508V10.291C52.3516 10.9564 52.445 11.4873 52.6318 11.8838V12H50.9365ZM49.1113 10.8037C49.4395 10.8037 49.7471 10.724 50.0342 10.5645C50.3258 10.4049 50.5446 10.1908 50.6904 9.92188V8.52734H49.7949C49.1797 8.52734 48.7171 8.63444 48.4072 8.84863C48.0973 9.06283 47.9424 9.36589 47.9424 9.75781C47.9424 10.0768 48.0472 10.332 48.2568 10.5234C48.471 10.7103 48.7559 10.8037 49.1113 10.8037ZM55.8584 12H54.1973V1.5H55.8584V12ZM62.1543 11.2754C61.6667 11.8496 60.974 12.1367 60.0762 12.1367C59.2741 12.1367 58.6657 11.902 58.251 11.4326C57.8408 10.9632 57.6357 10.2842 57.6357 9.39551V4.60352H59.2969V9.375C59.2969 10.3138 59.6865 10.7832 60.4658 10.7832C61.2725 10.7832 61.8171 10.4938 62.0996 9.91504V4.60352H63.7607V12H62.1953L62.1543 11.2754ZM68.71 12.1367C67.6572 12.1367 66.8027 11.8063 66.1465 11.1455C65.4948 10.4801 65.1689 9.59603 65.1689 8.49316V8.28809C65.1689 7.5498 65.3102 6.89128 65.5928 6.3125C65.8799 5.72917 66.2809 5.27572 66.7959 4.95215C67.3109 4.62858 67.8851 4.4668 68.5186 4.4668C69.5257 4.4668 70.3027 4.78809 70.8496 5.43066C71.401 6.07324 71.6768 6.98242 71.6768 8.1582V8.82812H66.8438C66.8939 9.4388 67.0967 9.92188 67.4521 10.2773C67.8122 10.6328 68.2633 10.8105 68.8057 10.8105C69.5667 10.8105 70.1865 10.5029 70.665 9.8877L71.5605 10.7422C71.2643 11.1842 70.8678 11.5283 70.3711 11.7744C69.8789 12.016 69.3252 12.1367 68.71 12.1367ZM68.5117 5.7998C68.056 5.7998 67.6868 5.95931 67.4043 6.27832C67.1263 6.59733 66.9486 7.04167 66.8711 7.61133H70.0361V7.48828C69.9997 6.93229 69.8516 6.51302 69.5918 6.23047C69.332 5.94336 68.972 5.7998 68.5117 5.7998Z" fill="#444444"/>
<path d="M180.707 136.128C180.317 136.519 179.683 136.519 179.293 136.128L172.929 129.764C172.538 129.374 172.538 128.74 172.929 128.35C173.319 127.959 173.953 127.959 174.343 128.35L180 134.007L185.657 128.35C186.047 127.959 186.681 127.959 187.071 128.35C187.462 128.74 187.462 129.374 187.071 129.764L180.707 136.128ZM179.293 25.8717C179.683 25.4812 180.317 25.4812 180.707 25.8717L187.071 32.2356C187.462 32.6262 187.462 33.2593 187.071 33.6499C186.681 34.0404 186.047 34.0404 185.657 33.6499L180 27.993L174.343 33.6499C173.953 34.0404 173.319 34.0404 172.929 33.6499C172.538 33.2593 172.538 32.6262 172.929 32.2356L179.293 25.8717ZM179 135.421V132.452H181V135.421H179ZM179 128.495V122.558H181V128.495H179ZM179 118.6V112.663H181V118.6H179ZM179 108.705V102.768H181V108.705H179ZM179 98.8104V92.8735H181V98.8104H179ZM179 88.9156V82.9788H181V88.9156H179ZM179 79.0209V73.0841H181V79.0209H179ZM179 69.1262V63.1893H181V69.1262H179ZM179 59.2314V53.2946H181V59.2314H179ZM179 49.3367V43.3998H181V49.3367H179ZM179 39.4419V33.5051H181V39.4419H179ZM179 29.5472V26.5788H181V29.5472H179Z" fill="#00986B"/>
<rect width="32" height="40" transform="translate(164 60)" fill="white"/>
<path d="M170.8 73.377C170.8 74.5254 170.542 75.4391 170.027 76.1182C169.517 76.7972 168.813 77.1367 167.915 77.1367C167.049 77.1367 166.375 76.8245 165.892 76.2002L165.81 77H164.306V66.5H165.967V70.3145C166.445 69.7493 167.09 69.4668 167.901 69.4668C168.804 69.4668 169.512 69.8018 170.027 70.4717C170.542 71.1416 170.8 72.0781 170.8 73.2812V73.377ZM169.139 73.2334C169.139 72.4313 168.997 71.8298 168.715 71.4287C168.432 71.0277 168.022 70.8271 167.484 70.8271C166.764 70.8271 166.258 71.1416 165.967 71.7705V74.8193C166.263 75.4619 166.773 75.7832 167.498 75.7832C168.018 75.7832 168.419 75.5895 168.701 75.2021C168.984 74.8148 169.13 74.2292 169.139 73.4453V73.2334ZM173.965 77H172.304V66.5H173.965V77ZM175.469 73.2334C175.469 72.5088 175.612 71.8571 175.899 71.2783C176.187 70.695 176.59 70.2484 177.109 69.9385C177.629 69.624 178.226 69.4668 178.9 69.4668C179.898 69.4668 180.707 69.7881 181.327 70.4307C181.951 71.0732 182.289 71.9255 182.339 72.9873L182.346 73.377C182.346 74.1061 182.204 74.7578 181.922 75.332C181.644 75.9062 181.243 76.3506 180.719 76.665C180.199 76.9795 179.598 77.1367 178.914 77.1367C177.87 77.1367 177.034 76.7904 176.405 76.0977C175.781 75.4004 175.469 74.473 175.469 73.3154V73.2334ZM177.13 73.377C177.13 74.138 177.287 74.735 177.602 75.168C177.916 75.5964 178.354 75.8105 178.914 75.8105C179.475 75.8105 179.91 75.5918 180.22 75.1543C180.534 74.7168 180.691 74.0765 180.691 73.2334C180.691 72.486 180.53 71.8936 180.206 71.4561C179.887 71.0186 179.452 70.7998 178.9 70.7998C178.358 70.7998 177.927 71.0163 177.608 71.4492C177.289 71.8776 177.13 72.5202 177.13 73.377ZM186.789 75.8105C187.204 75.8105 187.548 75.6898 187.821 75.4482C188.095 75.2067 188.241 74.9082 188.259 74.5527H189.824C189.806 75.013 189.662 75.4437 189.394 75.8447C189.125 76.2412 188.76 76.5557 188.3 76.7881C187.84 77.0205 187.343 77.1367 186.81 77.1367C185.775 77.1367 184.955 76.8018 184.349 76.1318C183.743 75.4619 183.439 74.5368 183.439 73.3564V73.1855C183.439 72.0599 183.74 71.1598 184.342 70.4854C184.943 69.8063 185.764 69.4668 186.803 69.4668C187.682 69.4668 188.398 69.7243 188.949 70.2393C189.505 70.7497 189.797 71.4219 189.824 72.2559H188.259C188.241 71.832 188.095 71.4834 187.821 71.21C187.552 70.9365 187.208 70.7998 186.789 70.7998C186.251 70.7998 185.837 70.9958 185.545 71.3877C185.253 71.7751 185.105 72.3652 185.101 73.1582V73.4248C185.101 74.2269 185.244 74.8262 185.531 75.2227C185.823 75.6146 186.242 75.8105 186.789 75.8105ZM193.481 73.8281L192.743 74.5869V77H191.082V66.5H192.743V72.5566L193.263 71.9072L195.307 69.6035H197.303L194.555 72.6865L197.597 77H195.676L193.481 73.8281ZM173.056 92C172.983 91.8587 172.919 91.6286 172.864 91.3096C172.336 91.861 171.688 92.1367 170.923 92.1367C170.18 92.1367 169.574 91.9248 169.104 91.501C168.635 91.0771 168.4 90.5531 168.4 89.9287C168.4 89.1403 168.692 88.5365 169.275 88.1172C169.863 87.6934 170.702 87.4814 171.791 87.4814H172.81V86.9961C172.81 86.6133 172.702 86.3079 172.488 86.0801C172.274 85.8477 171.948 85.7314 171.511 85.7314C171.132 85.7314 170.823 85.8271 170.581 86.0186C170.34 86.2054 170.219 86.4447 170.219 86.7363H168.558C168.558 86.3307 168.692 85.9525 168.961 85.6016C169.23 85.2461 169.594 84.9681 170.055 84.7676C170.52 84.5671 171.037 84.4668 171.606 84.4668C172.472 84.4668 173.163 84.6855 173.678 85.123C174.193 85.556 174.457 86.1667 174.471 86.9551V90.291C174.471 90.9564 174.564 91.4873 174.751 91.8838V92H173.056ZM171.23 90.8037C171.559 90.8037 171.866 90.724 172.153 90.5645C172.445 90.4049 172.664 90.1908 172.81 89.9219V88.5273H171.914C171.299 88.5273 170.836 88.6344 170.526 88.8486C170.216 89.0628 170.062 89.3659 170.062 89.7578C170.062 90.0768 170.166 90.332 170.376 90.5234C170.59 90.7103 170.875 90.8037 171.23 90.8037ZM178.866 87.0371L180.274 84.6035H182.12L179.857 88.2471L182.195 92H180.363L178.887 89.4707L177.417 92H175.571L177.909 88.2471L175.653 84.6035H177.485L178.866 87.0371ZM185.019 92H183.357V84.6035H185.019V92ZM183.255 82.6826C183.255 82.4274 183.335 82.2155 183.494 82.0469C183.658 81.8783 183.891 81.7939 184.191 81.7939C184.492 81.7939 184.725 81.8783 184.889 82.0469C185.053 82.2155 185.135 82.4274 185.135 82.6826C185.135 82.9333 185.053 83.1429 184.889 83.3115C184.725 83.4756 184.492 83.5576 184.191 83.5576C183.891 83.5576 183.658 83.4756 183.494 83.3115C183.335 83.1429 183.255 82.9333 183.255 82.6826ZM190.979 89.9902C190.979 89.694 190.856 89.4684 190.61 89.3135C190.369 89.1585 189.965 89.0218 189.4 88.9033C188.835 88.7848 188.364 88.6344 187.985 88.4521C187.156 88.0511 186.741 87.4701 186.741 86.709C186.741 86.071 187.01 85.5378 187.548 85.1094C188.086 84.681 188.769 84.4668 189.599 84.4668C190.483 84.4668 191.196 84.6855 191.738 85.123C192.285 85.5605 192.559 86.1279 192.559 86.8252H190.897C190.897 86.5062 190.779 86.2419 190.542 86.0322C190.305 85.818 189.991 85.7109 189.599 85.7109C189.234 85.7109 188.936 85.7952 188.703 85.9639C188.475 86.1325 188.361 86.3581 188.361 86.6406C188.361 86.8958 188.468 87.0941 188.683 87.2354C188.897 87.3766 189.33 87.5202 189.981 87.666C190.633 87.8073 191.144 87.9782 191.513 88.1787C191.886 88.3747 192.162 88.6117 192.34 88.8896C192.522 89.1676 192.613 89.5049 192.613 89.9014C192.613 90.5667 192.338 91.1068 191.786 91.5215C191.235 91.9316 190.512 92.1367 189.619 92.1367C189.013 92.1367 188.473 92.0273 187.999 91.8086C187.525 91.5898 187.156 91.2891 186.892 90.9062C186.627 90.5234 186.495 90.111 186.495 89.6689H188.108C188.131 90.0609 188.279 90.3639 188.553 90.5781C188.826 90.7878 189.188 90.8926 189.64 90.8926C190.077 90.8926 190.41 90.8105 190.638 90.6465C190.866 90.4779 190.979 90.2591 190.979 89.9902Z" fill="#00986B"/>
<path d="M162.854 153.707C163.244 153.317 163.244 152.683 162.854 152.293L156.49 145.929C156.099 145.538 155.466 145.538 155.075 145.929C154.685 146.319 154.685 146.953 155.075 147.343L160.732 153L155.075 158.657C154.685 159.047 154.685 159.681 155.075 160.071C155.466 160.462 156.099 160.462 156.49 160.071L162.854 153.707ZM1.14464 152.293C0.754118 152.683 0.754118 153.317 1.14464 153.707L7.5086 160.071C7.89913 160.462 8.53229 160.462 8.92282 160.071C9.31334 159.681 9.31334 159.047 8.92282 158.657L3.26596 153L8.92282 147.343C9.31334 146.953 9.31334 146.319 8.92282 145.929C8.53229 145.538 7.89913 145.538 7.5086 145.929L1.14464 152.293ZM162.146 152L159.141 152L159.141 154L162.146 154L162.146 152ZM155.134 152L149.123 152L149.123 154L155.134 154L155.134 152ZM145.115 152L139.104 152L139.104 154L145.115 154L145.115 152ZM135.097 152L129.086 152L129.086 154L135.097 154L135.097 152ZM125.078 152L119.067 152L119.067 154L125.078 154L125.078 152ZM115.06 152L109.049 152L109.049 154L115.06 154L115.06 152ZM105.041 152L99.0304 152L99.0304 154L105.041 154L105.041 152ZM95.0231 152L89.012 152L89.012 154L95.0231 154L95.0231 152ZM85.0046 152L78.9936 152L78.9936 154L85.0046 154L85.0046 152ZM74.9862 152L68.9752 152L68.9752 154L74.9862 154L74.9862 152ZM64.9678 152L58.9567 152L58.9567 154L64.9678 154L64.9678 152ZM54.9494 152L48.9383 152L48.9383 154L54.9494 154L54.9494 152ZM44.9309 152L38.9199 152L38.9199 154L44.9309 154L44.9309 152ZM34.9125 152L28.9015 152L28.9015 154L34.9125 154L34.9125 152ZM24.8941 152L18.883 152L18.883 154L24.8941 154L24.8941 152ZM14.8757 152L8.86462 152L8.86462 154L14.8757 154L14.8757 152ZM4.85726 152L1.85175 152L1.85175 154L4.85726 154L4.85726 152Z" fill="#1E73FF"/>
<rect width="70" height="18" transform="translate(47 144)" fill="white"/>
<path d="M53.7344 158H52.0732V150.604H53.7344V158ZM51.9707 148.683C51.9707 148.427 52.0505 148.215 52.21 148.047C52.374 147.878 52.6064 147.794 52.9072 147.794C53.208 147.794 53.4404 147.878 53.6045 148.047C53.7686 148.215 53.8506 148.427 53.8506 148.683C53.8506 148.933 53.7686 149.143 53.6045 149.312C53.4404 149.476 53.208 149.558 52.9072 149.558C52.6064 149.558 52.374 149.476 52.21 149.312C52.0505 149.143 51.9707 148.933 51.9707 148.683ZM57.0908 150.604L57.1387 151.458C57.6855 150.797 58.4033 150.467 59.292 150.467C60.8324 150.467 61.6162 151.349 61.6436 153.112V158H59.9824V153.208C59.9824 152.739 59.8799 152.392 59.6748 152.169C59.4743 151.941 59.1439 151.827 58.6836 151.827C58.0137 151.827 57.5146 152.13 57.1865 152.736V158H55.5254V150.604H57.0908ZM65.1094 158H63.4482V147.5H65.1094V158ZM68.6914 158H67.0303V150.604H68.6914V158ZM66.9277 148.683C66.9277 148.427 67.0075 148.215 67.167 148.047C67.3311 147.878 67.5635 147.794 67.8643 147.794C68.165 147.794 68.3975 147.878 68.5615 148.047C68.7256 148.215 68.8076 148.427 68.8076 148.683C68.8076 148.933 68.7256 149.143 68.5615 149.312C68.3975 149.476 68.165 149.558 67.8643 149.558C67.5635 149.558 67.3311 149.476 67.167 149.312C67.0075 149.143 66.9277 148.933 66.9277 148.683ZM72.0479 150.604L72.0957 151.458C72.6426 150.797 73.3604 150.467 74.249 150.467C75.7894 150.467 76.5732 151.349 76.6006 153.112V158H74.9395V153.208C74.9395 152.739 74.8369 152.392 74.6318 152.169C74.4313 151.941 74.1009 151.827 73.6406 151.827C72.9707 151.827 72.4717 152.13 72.1436 152.736V158H70.4824V150.604H72.0479ZM81.5566 158.137C80.5039 158.137 79.6494 157.806 78.9932 157.146C78.3415 156.48 78.0156 155.596 78.0156 154.493V154.288C78.0156 153.55 78.1569 152.891 78.4395 152.312C78.7266 151.729 79.1276 151.276 79.6426 150.952C80.1576 150.629 80.7318 150.467 81.3652 150.467C82.3724 150.467 83.1494 150.788 83.6963 151.431C84.2477 152.073 84.5234 152.982 84.5234 154.158V154.828H79.6904C79.7406 155.439 79.9434 155.922 80.2988 156.277C80.6589 156.633 81.11 156.811 81.6523 156.811C82.4134 156.811 83.0332 156.503 83.5117 155.888L84.4072 156.742C84.111 157.184 83.7145 157.528 83.2178 157.774C82.7256 158.016 82.1719 158.137 81.5566 158.137ZM81.3584 151.8C80.9027 151.8 80.5335 151.959 80.251 152.278C79.973 152.597 79.7952 153.042 79.7178 153.611H82.8828V153.488C82.8464 152.932 82.6982 152.513 82.4385 152.23C82.1787 151.943 81.8187 151.8 81.3584 151.8ZM93.7246 158C93.6517 157.859 93.5879 157.629 93.5332 157.31C93.0046 157.861 92.3574 158.137 91.5918 158.137C90.849 158.137 90.2428 157.925 89.7734 157.501C89.304 157.077 89.0693 156.553 89.0693 155.929C89.0693 155.14 89.361 154.536 89.9443 154.117C90.5322 153.693 91.3708 153.481 92.46 153.481H93.4785V152.996C93.4785 152.613 93.3714 152.308 93.1572 152.08C92.943 151.848 92.6172 151.731 92.1797 151.731C91.8014 151.731 91.4915 151.827 91.25 152.019C91.0085 152.205 90.8877 152.445 90.8877 152.736H89.2266C89.2266 152.331 89.361 151.952 89.6299 151.602C89.8988 151.246 90.2633 150.968 90.7236 150.768C91.1885 150.567 91.7057 150.467 92.2754 150.467C93.1413 150.467 93.8317 150.686 94.3467 151.123C94.8617 151.556 95.126 152.167 95.1396 152.955V156.291C95.1396 156.956 95.2331 157.487 95.4199 157.884V158H93.7246ZM91.8994 156.804C92.2275 156.804 92.5352 156.724 92.8223 156.564C93.1139 156.405 93.3327 156.191 93.4785 155.922V154.527H92.583C91.9678 154.527 91.5052 154.634 91.1953 154.849C90.8854 155.063 90.7305 155.366 90.7305 155.758C90.7305 156.077 90.8353 156.332 91.0449 156.523C91.2591 156.71 91.5439 156.804 91.8994 156.804ZM99.5352 153.037L100.943 150.604H102.789L100.526 154.247L102.864 158H101.032L99.5557 155.471L98.0859 158H96.2402L98.5781 154.247L96.3223 150.604H98.1543L99.5352 153.037ZM105.688 158H104.026V150.604H105.688V158ZM103.924 148.683C103.924 148.427 104.004 148.215 104.163 148.047C104.327 147.878 104.56 147.794 104.86 147.794C105.161 147.794 105.394 147.878 105.558 148.047C105.722 148.215 105.804 148.427 105.804 148.683C105.804 148.933 105.722 149.143 105.558 149.312C105.394 149.476 105.161 149.558 104.86 149.558C104.56 149.558 104.327 149.476 104.163 149.312C104.004 149.143 103.924 148.933 103.924 148.683ZM111.648 155.99C111.648 155.694 111.525 155.468 111.279 155.313C111.038 155.159 110.634 155.022 110.069 154.903C109.504 154.785 109.033 154.634 108.654 154.452C107.825 154.051 107.41 153.47 107.41 152.709C107.41 152.071 107.679 151.538 108.217 151.109C108.755 150.681 109.438 150.467 110.268 150.467C111.152 150.467 111.865 150.686 112.407 151.123C112.954 151.561 113.228 152.128 113.228 152.825H111.566C111.566 152.506 111.448 152.242 111.211 152.032C110.974 151.818 110.66 151.711 110.268 151.711C109.903 151.711 109.604 151.795 109.372 151.964C109.144 152.132 109.03 152.358 109.03 152.641C109.03 152.896 109.137 153.094 109.352 153.235C109.566 153.377 109.999 153.52 110.65 153.666C111.302 153.807 111.812 153.978 112.182 154.179C112.555 154.375 112.831 154.612 113.009 154.89C113.191 155.168 113.282 155.505 113.282 155.901C113.282 156.567 113.007 157.107 112.455 157.521C111.904 157.932 111.181 158.137 110.288 158.137C109.682 158.137 109.142 158.027 108.668 157.809C108.194 157.59 107.825 157.289 107.561 156.906C107.296 156.523 107.164 156.111 107.164 155.669H108.777C108.8 156.061 108.948 156.364 109.222 156.578C109.495 156.788 109.857 156.893 110.309 156.893C110.746 156.893 111.079 156.811 111.307 156.646C111.535 156.478 111.648 156.259 111.648 155.99Z" fill="#1E73FF"/>
<g opacity="0.75">
<rect width="67" height="38" transform="translate(6 31)" fill="#1E73FF"/>
</g>
<g opacity="0.75">
<rect width="67" height="59" transform="translate(6 72)" fill="#1E73FF"/>
</g>
<g opacity="0.75">
<rect width="80" height="38" transform="translate(76 31)" fill="#1E73FF"/>
</g>
<g opacity="0.75">
<rect width="80" height="59" transform="translate(76 72)" fill="#1E73FF"/>
</g>
<rect x="229" y="27" width="158" height="108" fill="#F7F7F7" stroke="#AAAAAA" stroke-width="2" stroke-dasharray="6 4"/>
<path d="M233.271 12C233.198 11.8587 233.134 11.6286 233.079 11.3096C232.55 11.861 231.903 12.1367 231.138 12.1367C230.395 12.1367 229.789 11.9248 229.319 11.501C228.85 11.0771 228.615 10.5531 228.615 9.92871C228.615 9.1403 228.907 8.53646 229.49 8.11719C230.078 7.69336 230.917 7.48145 232.006 7.48145H233.024V6.99609C233.024 6.61328 232.917 6.30794 232.703 6.08008C232.489 5.84766 232.163 5.73145 231.726 5.73145C231.347 5.73145 231.037 5.82715 230.796 6.01855C230.554 6.2054 230.434 6.44466 230.434 6.73633H228.772C228.772 6.33073 228.907 5.95247 229.176 5.60156C229.445 5.24609 229.809 4.9681 230.27 4.76758C230.734 4.56706 231.252 4.4668 231.821 4.4668C232.687 4.4668 233.378 4.68555 233.893 5.12305C234.408 5.55599 234.672 6.16667 234.686 6.95508V10.291C234.686 10.9564 234.779 11.4873 234.966 11.8838V12H233.271ZM231.445 10.8037C231.773 10.8037 232.081 10.724 232.368 10.5645C232.66 10.4049 232.879 10.1908 233.024 9.92188V8.52734H232.129C231.514 8.52734 231.051 8.63444 230.741 8.84863C230.431 9.06283 230.276 9.36589 230.276 9.75781C230.276 10.0768 230.381 10.332 230.591 10.5234C230.805 10.7103 231.09 10.8037 231.445 10.8037ZM238.192 12H236.531V1.5H238.192V12ZM241.774 12H240.113V4.60352H241.774V12ZM240.011 2.68262C240.011 2.42741 240.09 2.21549 240.25 2.04688C240.414 1.87826 240.646 1.79395 240.947 1.79395C241.248 1.79395 241.48 1.87826 241.645 2.04688C241.809 2.21549 241.891 2.42741 241.891 2.68262C241.891 2.93327 241.809 3.1429 241.645 3.31152C241.48 3.47559 241.248 3.55762 240.947 3.55762C240.646 3.55762 240.414 3.47559 240.25 3.31152C240.09 3.1429 240.011 2.93327 240.011 2.68262ZM243.299 8.24707C243.299 7.09863 243.568 6.18262 244.105 5.49902C244.648 4.81087 245.366 4.4668 246.259 4.4668C247.102 4.4668 247.765 4.76074 248.248 5.34863L248.323 4.60352H249.82V11.7744C249.82 12.7451 249.517 13.5107 248.911 14.0713C248.31 14.6318 247.496 14.9121 246.471 14.9121C245.928 14.9121 245.397 14.7982 244.878 14.5703C244.363 14.347 243.971 14.0531 243.702 13.6885L244.488 12.6904C244.999 13.2965 245.628 13.5996 246.375 13.5996C246.926 13.5996 247.362 13.4492 247.681 13.1484C248 12.8522 248.159 12.4147 248.159 11.8359V11.3369C247.681 11.8701 247.043 12.1367 246.245 12.1367C245.379 12.1367 244.671 11.7926 244.119 11.1045C243.572 10.4163 243.299 9.46387 243.299 8.24707ZM244.953 8.39062C244.953 9.13346 245.104 9.71908 245.404 10.1475C245.71 10.5713 246.131 10.7832 246.669 10.7832C247.339 10.7832 247.836 10.4961 248.159 9.92188V6.66797C247.845 6.10742 247.353 5.82715 246.683 5.82715C246.136 5.82715 245.71 6.04362 245.404 6.47656C245.104 6.90951 244.953 7.54753 244.953 8.39062ZM253.074 4.60352L253.122 5.45801C253.669 4.7972 254.387 4.4668 255.275 4.4668C256.816 4.4668 257.6 5.34863 257.627 7.1123V12H255.966V7.20801C255.966 6.73861 255.863 6.39225 255.658 6.16895C255.458 5.94108 255.127 5.82715 254.667 5.82715C253.997 5.82715 253.498 6.13021 253.17 6.73633V12H251.509V4.60352H253.074ZM262.549 8.43848H258.96V7.09863H262.549V8.43848ZM265.687 12H264.025V4.60352H265.687V12ZM263.923 2.68262C263.923 2.42741 264.003 2.21549 264.162 2.04688C264.326 1.87826 264.559 1.79395 264.859 1.79395C265.16 1.79395 265.393 1.87826 265.557 2.04688C265.721 2.21549 265.803 2.42741 265.803 2.68262C265.803 2.93327 265.721 3.1429 265.557 3.31152C265.393 3.47559 265.16 3.55762 264.859 3.55762C264.559 3.55762 264.326 3.47559 264.162 3.31152C264.003 3.1429 263.923 2.93327 263.923 2.68262ZM269.583 2.80566V4.60352H270.889V5.83398H269.583V9.96289C269.583 10.2454 269.638 10.4505 269.747 10.5781C269.861 10.7012 270.062 10.7627 270.349 10.7627C270.54 10.7627 270.734 10.7399 270.93 10.6943V11.9795C270.551 12.0843 270.187 12.1367 269.836 12.1367C268.56 12.1367 267.922 11.4326 267.922 10.0244V5.83398H266.705V4.60352H267.922V2.80566H269.583ZM275.421 12.1367C274.368 12.1367 273.514 11.8063 272.857 11.1455C272.206 10.4801 271.88 9.59603 271.88 8.49316V8.28809C271.88 7.5498 272.021 6.89128 272.304 6.3125C272.591 5.72917 272.992 5.27572 273.507 4.95215C274.022 4.62858 274.596 4.4668 275.229 4.4668C276.237 4.4668 277.014 4.78809 277.561 5.43066C278.112 6.07324 278.388 6.98242 278.388 8.1582V8.82812H273.555C273.605 9.4388 273.808 9.92188 274.163 10.2773C274.523 10.6328 274.974 10.8105 275.517 10.8105C276.278 10.8105 276.897 10.5029 277.376 9.8877L278.271 10.7422C277.975 11.1842 277.579 11.5283 277.082 11.7744C276.59 12.016 276.036 12.1367 275.421 12.1367ZM275.223 5.7998C274.767 5.7998 274.398 5.95931 274.115 6.27832C273.837 6.59733 273.66 7.04167 273.582 7.61133H276.747V7.48828C276.711 6.93229 276.562 6.51302 276.303 6.23047C276.043 5.94336 275.683 5.7998 275.223 5.7998ZM281.245 4.60352L281.293 5.37598C281.812 4.76986 282.523 4.4668 283.426 4.4668C284.415 4.4668 285.091 4.84505 285.456 5.60156C285.994 4.84505 286.75 4.4668 287.726 4.4668C288.541 4.4668 289.147 4.69238 289.544 5.14355C289.945 5.59473 290.15 6.26009 290.159 7.13965V12H288.498V7.1875C288.498 6.7181 288.396 6.37402 288.19 6.15527C287.985 5.93652 287.646 5.82715 287.172 5.82715C286.794 5.82715 286.484 5.92969 286.242 6.13477C286.005 6.33529 285.839 6.59961 285.743 6.92773L285.75 12H284.089V7.13281C284.066 6.26237 283.622 5.82715 282.756 5.82715C282.09 5.82715 281.619 6.09831 281.341 6.64062V12H279.68V4.60352H281.245ZM296.011 9.99023C296.011 9.69401 295.888 9.46842 295.642 9.31348C295.4 9.15853 294.997 9.02181 294.432 8.90332C293.867 8.78483 293.395 8.63444 293.017 8.45215C292.187 8.05111 291.772 7.47005 291.772 6.70898C291.772 6.07096 292.041 5.53776 292.579 5.10938C293.117 4.68099 293.8 4.4668 294.63 4.4668C295.514 4.4668 296.227 4.68555 296.77 5.12305C297.316 5.56055 297.59 6.12793 297.59 6.8252H295.929C295.929 6.50618 295.81 6.24186 295.573 6.03223C295.336 5.81803 295.022 5.71094 294.63 5.71094C294.265 5.71094 293.967 5.79525 293.734 5.96387C293.507 6.13249 293.393 6.35807 293.393 6.64062C293.393 6.89583 293.5 7.09408 293.714 7.23535C293.928 7.37663 294.361 7.52018 295.013 7.66602C295.664 7.80729 296.175 7.97819 296.544 8.17871C296.918 8.37467 297.193 8.61165 297.371 8.88965C297.553 9.16764 297.645 9.50488 297.645 9.90137C297.645 10.5667 297.369 11.1068 296.817 11.5215C296.266 11.9316 295.544 12.1367 294.65 12.1367C294.044 12.1367 293.504 12.0273 293.03 11.8086C292.556 11.5898 292.187 11.2891 291.923 10.9062C291.659 10.5234 291.526 10.111 291.526 9.66895H293.14C293.162 10.0609 293.311 10.3639 293.584 10.5781C293.857 10.7878 294.22 10.8926 294.671 10.8926C295.108 10.8926 295.441 10.8105 295.669 10.6465C295.897 10.4779 296.011 10.2591 296.011 9.99023ZM300.099 10.25C300.409 10.25 300.648 10.3389 300.816 10.5166C300.985 10.6898 301.069 10.9085 301.069 11.1729C301.069 11.4326 300.985 11.6491 300.816 11.8223C300.648 11.9909 300.409 12.0752 300.099 12.0752C299.802 12.0752 299.568 11.9909 299.395 11.8223C299.221 11.6536 299.135 11.4372 299.135 11.1729C299.135 10.9085 299.219 10.6898 299.388 10.5166C299.556 10.3389 299.793 10.25 300.099 10.25ZM300.099 4.44629C300.409 4.44629 300.648 4.53516 300.816 4.71289C300.985 4.88607 301.069 5.10482 301.069 5.36914C301.069 5.62891 300.985 5.84538 300.816 6.01855C300.648 6.18717 300.409 6.27148 300.099 6.27148C299.802 6.27148 299.568 6.18717 299.395 6.01855C299.221 5.84993 299.135 5.63346 299.135 5.36914C299.135 5.10482 299.219 4.88607 299.388 4.71289C299.556 4.53516 299.793 4.44629 300.099 4.44629ZM336.555 4.44629C336.865 4.44629 337.104 4.53516 337.272 4.71289C337.441 4.88607 337.525 5.10482 337.525 5.36914C337.525 5.62891 337.441 5.84538 337.272 6.01855C337.104 6.18717 336.865 6.27148 336.555 6.27148C336.258 6.27148 336.024 6.18717 335.851 6.01855C335.677 5.84993 335.591 5.63346 335.591 5.36914C335.591 5.10482 335.675 4.88607 335.844 4.71289C336.012 4.53516 336.249 4.44629 336.555 4.44629ZM336.056 14.2422L335.16 13.709C335.424 13.2943 335.604 12.932 335.7 12.6221C335.8 12.3167 335.853 12.0046 335.857 11.6855V10.3936H337.354L337.348 11.5898C337.343 12.0729 337.22 12.556 336.979 13.0391C336.742 13.5267 336.434 13.9277 336.056 14.2422Z" fill="#444444"/>
<path d="M310.448 9.99023C310.448 9.69401 310.325 9.46842 310.079 9.31348C309.838 9.15853 309.434 9.02181 308.869 8.90332C308.304 8.78483 307.832 8.63444 307.454 8.45215C306.625 8.05111 306.21 7.47005 306.21 6.70898C306.21 6.07096 306.479 5.53776 307.017 5.10938C307.554 4.68099 308.238 4.4668 309.067 4.4668C309.951 4.4668 310.665 4.68555 311.207 5.12305C311.754 5.56055 312.027 6.12793 312.027 6.8252H310.366C310.366 6.50618 310.248 6.24186 310.011 6.03223C309.774 5.81803 309.459 5.71094 309.067 5.71094C308.703 5.71094 308.404 5.79525 308.172 5.96387C307.944 6.13249 307.83 6.35807 307.83 6.64062C307.83 6.89583 307.937 7.09408 308.151 7.23535C308.366 7.37663 308.799 7.52018 309.45 7.66602C310.102 7.80729 310.612 7.97819 310.981 8.17871C311.355 8.37467 311.631 8.61165 311.809 8.88965C311.991 9.16764 312.082 9.50488 312.082 9.90137C312.082 10.5667 311.806 11.1068 311.255 11.5215C310.703 11.9316 309.981 12.1367 309.088 12.1367C308.482 12.1367 307.942 12.0273 307.468 11.8086C306.994 11.5898 306.625 11.2891 306.36 10.9062C306.096 10.5234 305.964 10.111 305.964 9.66895H307.577C307.6 10.0609 307.748 10.3639 308.021 10.5781C308.295 10.7878 308.657 10.8926 309.108 10.8926C309.546 10.8926 309.879 10.8105 310.106 10.6465C310.334 10.4779 310.448 10.2591 310.448 9.99023ZM315.616 2.80566V4.60352H316.922V5.83398H315.616V9.96289C315.616 10.2454 315.671 10.4505 315.78 10.5781C315.894 10.7012 316.095 10.7627 316.382 10.7627C316.573 10.7627 316.767 10.7399 316.963 10.6943V11.9795C316.585 12.0843 316.22 12.1367 315.869 12.1367C314.593 12.1367 313.955 11.4326 313.955 10.0244V5.83398H312.738V4.60352H313.955V2.80566H315.616ZM322.616 12C322.543 11.8587 322.479 11.6286 322.425 11.3096C321.896 11.861 321.249 12.1367 320.483 12.1367C319.741 12.1367 319.134 11.9248 318.665 11.501C318.196 11.0771 317.961 10.5531 317.961 9.92871C317.961 9.1403 318.253 8.53646 318.836 8.11719C319.424 7.69336 320.262 7.48145 321.352 7.48145H322.37V6.99609C322.37 6.61328 322.263 6.30794 322.049 6.08008C321.835 5.84766 321.509 5.73145 321.071 5.73145C320.693 5.73145 320.383 5.82715 320.142 6.01855C319.9 6.2054 319.779 6.44466 319.779 6.73633H318.118C318.118 6.33073 318.253 5.95247 318.521 5.60156C318.79 5.24609 319.155 4.9681 319.615 4.76758C320.08 4.56706 320.597 4.4668 321.167 4.4668C322.033 4.4668 322.723 4.68555 323.238 5.12305C323.753 5.55599 324.018 6.16667 324.031 6.95508V10.291C324.031 10.9564 324.125 11.4873 324.312 11.8838V12H322.616ZM320.791 10.8037C321.119 10.8037 321.427 10.724 321.714 10.5645C322.006 10.4049 322.224 10.1908 322.37 9.92188V8.52734H321.475C320.859 8.52734 320.397 8.63444 320.087 8.84863C319.777 9.06283 319.622 9.36589 319.622 9.75781C319.622 10.0768 319.727 10.332 319.937 10.5234C320.151 10.7103 320.436 10.8037 320.791 10.8037ZM329.644 6.12109C329.425 6.08464 329.199 6.06641 328.967 6.06641C328.206 6.06641 327.693 6.35807 327.429 6.94141V12H325.768V4.60352H327.354L327.395 5.43066C327.796 4.78809 328.352 4.4668 329.062 4.4668C329.299 4.4668 329.495 4.4987 329.65 4.5625L329.644 6.12109ZM333.116 2.80566V4.60352H334.422V5.83398H333.116V9.96289C333.116 10.2454 333.171 10.4505 333.28 10.5781C333.394 10.7012 333.595 10.7627 333.882 10.7627C334.073 10.7627 334.267 10.7399 334.463 10.6943V11.9795C334.085 12.0843 333.72 12.1367 333.369 12.1367C332.093 12.1367 331.455 11.4326 331.455 10.0244V5.83398H330.238V4.60352H331.455V2.80566H333.116Z" fill="#1E73FF"/>
<path d="M407.707 136.128C407.317 136.519 406.683 136.519 406.293 136.128L399.929 129.764C399.538 129.374 399.538 128.74 399.929 128.35C400.319 127.959 400.953 127.959 401.343 128.35L407 134.007L412.657 128.35C413.047 127.959 413.681 127.959 414.071 128.35C414.462 128.74 414.462 129.374 414.071 129.764L407.707 136.128ZM406.293 25.8717C406.683 25.4812 407.317 25.4812 407.707 25.8717L414.071 32.2356C414.462 32.6262 414.462 33.2593 414.071 33.6499C413.681 34.0404 413.047 34.0404 412.657 33.6499L407 27.993L401.343 33.6499C400.953 34.0404 400.319 34.0404 399.929 33.6499C399.538 33.2593 399.538 32.6262 399.929 32.2356L406.293 25.8717ZM406 135.421V132.452H408V135.421H406ZM406 128.495V122.558H408V128.495H406ZM406 118.6V112.663H408V118.6H406ZM406 108.705V102.768H408V108.705H406ZM406 98.8104V92.8735H408V98.8104H406ZM406 88.9156V82.9788H408V88.9156H406ZM406 79.0209V73.0841H408V79.0209H406ZM406 69.1262V63.1893H408V69.1262H406ZM406 59.2314V53.2946H408V59.2314H406ZM406 49.3367V43.3998H408V49.3367H406ZM406 39.4419V33.5051H408V39.4419H406ZM406 29.5472V26.5788H408V29.5472H406Z" fill="#00986B"/>
<rect width="32" height="40" transform="translate(391 60)" fill="white"/>
<path d="M397.8 73.377C397.8 74.5254 397.542 75.4391 397.027 76.1182C396.517 76.7972 395.813 77.1367 394.915 77.1367C394.049 77.1367 393.375 76.8245 392.892 76.2002L392.81 77H391.306V66.5H392.967V70.3145C393.445 69.7493 394.09 69.4668 394.901 69.4668C395.804 69.4668 396.512 69.8018 397.027 70.4717C397.542 71.1416 397.8 72.0781 397.8 73.2812V73.377ZM396.139 73.2334C396.139 72.4313 395.997 71.8298 395.715 71.4287C395.432 71.0277 395.022 70.8271 394.484 70.8271C393.764 70.8271 393.258 71.1416 392.967 71.7705V74.8193C393.263 75.4619 393.773 75.7832 394.498 75.7832C395.018 75.7832 395.419 75.5895 395.701 75.2021C395.984 74.8148 396.13 74.2292 396.139 73.4453V73.2334ZM400.965 77H399.304V66.5H400.965V77ZM402.469 73.2334C402.469 72.5088 402.612 71.8571 402.899 71.2783C403.187 70.695 403.59 70.2484 404.109 69.9385C404.629 69.624 405.226 69.4668 405.9 69.4668C406.898 69.4668 407.707 69.7881 408.327 70.4307C408.951 71.0732 409.289 71.9255 409.339 72.9873L409.346 73.377C409.346 74.1061 409.204 74.7578 408.922 75.332C408.644 75.9062 408.243 76.3506 407.719 76.665C407.199 76.9795 406.598 77.1367 405.914 77.1367C404.87 77.1367 404.034 76.7904 403.405 76.0977C402.781 75.4004 402.469 74.473 402.469 73.3154V73.2334ZM404.13 73.377C404.13 74.138 404.287 74.735 404.602 75.168C404.916 75.5964 405.354 75.8105 405.914 75.8105C406.475 75.8105 406.91 75.5918 407.22 75.1543C407.534 74.7168 407.691 74.0765 407.691 73.2334C407.691 72.486 407.53 71.8936 407.206 71.4561C406.887 71.0186 406.452 70.7998 405.9 70.7998C405.358 70.7998 404.927 71.0163 404.608 71.4492C404.289 71.8776 404.13 72.5202 404.13 73.377ZM413.789 75.8105C414.204 75.8105 414.548 75.6898 414.821 75.4482C415.095 75.2067 415.241 74.9082 415.259 74.5527H416.824C416.806 75.013 416.662 75.4437 416.394 75.8447C416.125 76.2412 415.76 76.5557 415.3 76.7881C414.84 77.0205 414.343 77.1367 413.81 77.1367C412.775 77.1367 411.955 76.8018 411.349 76.1318C410.743 75.4619 410.439 74.5368 410.439 73.3564V73.1855C410.439 72.0599 410.74 71.1598 411.342 70.4854C411.943 69.8063 412.764 69.4668 413.803 69.4668C414.682 69.4668 415.398 69.7243 415.949 70.2393C416.505 70.7497 416.797 71.4219 416.824 72.2559H415.259C415.241 71.832 415.095 71.4834 414.821 71.21C414.552 70.9365 414.208 70.7998 413.789 70.7998C413.251 70.7998 412.837 70.9958 412.545 71.3877C412.253 71.7751 412.105 72.3652 412.101 73.1582V73.4248C412.101 74.2269 412.244 74.8262 412.531 75.2227C412.823 75.6146 413.242 75.8105 413.789 75.8105ZM420.481 73.8281L419.743 74.5869V77H418.082V66.5H419.743V72.5566L420.263 71.9072L422.307 69.6035H424.303L421.555 72.6865L424.597 77H422.676L420.481 73.8281ZM400.056 92C399.983 91.8587 399.919 91.6286 399.864 91.3096C399.336 91.861 398.688 92.1367 397.923 92.1367C397.18 92.1367 396.574 91.9248 396.104 91.501C395.635 91.0771 395.4 90.5531 395.4 89.9287C395.4 89.1403 395.692 88.5365 396.275 88.1172C396.863 87.6934 397.702 87.4814 398.791 87.4814H399.81V86.9961C399.81 86.6133 399.702 86.3079 399.488 86.0801C399.274 85.8477 398.948 85.7314 398.511 85.7314C398.132 85.7314 397.823 85.8271 397.581 86.0186C397.34 86.2054 397.219 86.4447 397.219 86.7363H395.558C395.558 86.3307 395.692 85.9525 395.961 85.6016C396.23 85.2461 396.594 84.9681 397.055 84.7676C397.52 84.5671 398.037 84.4668 398.606 84.4668C399.472 84.4668 400.163 84.6855 400.678 85.123C401.193 85.556 401.457 86.1667 401.471 86.9551V90.291C401.471 90.9564 401.564 91.4873 401.751 91.8838V92H400.056ZM398.23 90.8037C398.559 90.8037 398.866 90.724 399.153 90.5645C399.445 90.4049 399.664 90.1908 399.81 89.9219V88.5273H398.914C398.299 88.5273 397.836 88.6344 397.526 88.8486C397.216 89.0628 397.062 89.3659 397.062 89.7578C397.062 90.0768 397.166 90.332 397.376 90.5234C397.59 90.7103 397.875 90.8037 398.23 90.8037ZM405.866 87.0371L407.274 84.6035H409.12L406.857 88.2471L409.195 92H407.363L405.887 89.4707L404.417 92H402.571L404.909 88.2471L402.653 84.6035H404.485L405.866 87.0371ZM412.019 92H410.357V84.6035H412.019V92ZM410.255 82.6826C410.255 82.4274 410.335 82.2155 410.494 82.0469C410.658 81.8783 410.891 81.7939 411.191 81.7939C411.492 81.7939 411.725 81.8783 411.889 82.0469C412.053 82.2155 412.135 82.4274 412.135 82.6826C412.135 82.9333 412.053 83.1429 411.889 83.3115C411.725 83.4756 411.492 83.5576 411.191 83.5576C410.891 83.5576 410.658 83.4756 410.494 83.3115C410.335 83.1429 410.255 82.9333 410.255 82.6826ZM417.979 89.9902C417.979 89.694 417.856 89.4684 417.61 89.3135C417.369 89.1585 416.965 89.0218 416.4 88.9033C415.835 88.7848 415.364 88.6344 414.985 88.4521C414.156 88.0511 413.741 87.4701 413.741 86.709C413.741 86.071 414.01 85.5378 414.548 85.1094C415.086 84.681 415.769 84.4668 416.599 84.4668C417.483 84.4668 418.196 84.6855 418.738 85.123C419.285 85.5605 419.559 86.1279 419.559 86.8252H417.897C417.897 86.5062 417.779 86.2419 417.542 86.0322C417.305 85.818 416.991 85.7109 416.599 85.7109C416.234 85.7109 415.936 85.7952 415.703 85.9639C415.475 86.1325 415.361 86.3581 415.361 86.6406C415.361 86.8958 415.468 87.0941 415.683 87.2354C415.897 87.3766 416.33 87.5202 416.981 87.666C417.633 87.8073 418.144 87.9782 418.513 88.1787C418.886 88.3747 419.162 88.6117 419.34 88.8896C419.522 89.1676 419.613 89.5049 419.613 89.9014C419.613 90.5667 419.338 91.1068 418.786 91.5215C418.235 91.9316 417.512 92.1367 416.619 92.1367C416.013 92.1367 415.473 92.0273 414.999 91.8086C414.525 91.5898 414.156 91.2891 413.892 90.9062C413.627 90.5234 413.495 90.111 413.495 89.6689H415.108C415.131 90.0609 415.279 90.3639 415.553 90.5781C415.826 90.7878 416.188 90.8926 416.64 90.8926C417.077 90.8926 417.41 90.8105 417.638 90.6465C417.866 90.4779 417.979 90.2591 417.979 89.9902Z" fill="#00986B"/>
<path d="M389.854 153.707C390.244 153.317 390.244 152.683 389.854 152.293L383.49 145.929C383.099 145.538 382.466 145.538 382.075 145.929C381.685 146.319 381.685 146.953 382.075 147.343L387.732 153L382.075 158.657C381.685 159.047 381.685 159.681 382.075 160.071C382.466 160.462 383.099 160.462 383.49 160.071L389.854 153.707ZM228.145 152.293C227.754 152.683 227.754 153.317 228.145 153.707L234.509 160.071C234.899 160.462 235.532 160.462 235.923 160.071C236.313 159.681 236.313 159.047 235.923 158.657L230.266 153L235.923 147.343C236.313 146.953 236.313 146.319 235.923 145.929C235.532 145.538 234.899 145.538 234.509 145.929L228.145 152.293ZM389.146 152L386.141 152L386.141 154L389.146 154L389.146 152ZM382.134 152L376.123 152L376.123 154L382.134 154L382.134 152ZM372.115 152L366.104 152L366.104 154L372.115 154L372.115 152ZM362.097 152L356.086 152L356.086 154L362.097 154L362.097 152ZM352.078 152L346.067 152L346.067 154L352.078 154L352.078 152ZM342.06 152L336.049 152L336.049 154L342.06 154L342.06 152ZM332.041 152L326.03 152L326.03 154L332.041 154L332.041 152ZM322.023 152L316.012 152L316.012 154L322.023 154L322.023 152ZM312.005 152L305.994 152L305.994 154L312.005 154L312.005 152ZM301.986 152L295.975 152L295.975 154L301.986 154L301.986 152ZM291.968 152L285.957 152L285.957 154L291.968 154L291.968 152ZM281.949 152L275.938 152L275.938 154L281.949 154L281.949 152ZM271.931 152L265.92 152L265.92 154L271.931 154L271.931 152ZM261.913 152L255.901 152L255.901 154L261.913 154L261.913 152ZM251.894 152L245.883 152L245.883 154L251.894 154L251.894 152ZM241.876 152L235.865 152L235.865 154L241.876 154L241.876 152ZM231.857 152L228.852 152L228.852 154L231.857 154L231.857 152Z" fill="#1E73FF"/>
<rect width="70" height="18" transform="translate(274 144)" fill="white"/>
<path d="M280.734 158H279.073V150.604H280.734V158ZM278.971 148.683C278.971 148.427 279.05 148.215 279.21 148.047C279.374 147.878 279.606 147.794 279.907 147.794C280.208 147.794 280.44 147.878 280.604 148.047C280.769 148.215 280.851 148.427 280.851 148.683C280.851 148.933 280.769 149.143 280.604 149.312C280.44 149.476 280.208 149.558 279.907 149.558C279.606 149.558 279.374 149.476 279.21 149.312C279.05 149.143 278.971 148.933 278.971 148.683ZM284.091 150.604L284.139 151.458C284.686 150.797 285.403 150.467 286.292 150.467C287.832 150.467 288.616 151.349 288.644 153.112V158H286.982V153.208C286.982 152.739 286.88 152.392 286.675 152.169C286.474 151.941 286.144 151.827 285.684 151.827C285.014 151.827 284.515 152.13 284.187 152.736V158H282.525V150.604H284.091ZM292.109 158H290.448V147.5H292.109V158ZM295.691 158H294.03V150.604H295.691V158ZM293.928 148.683C293.928 148.427 294.007 148.215 294.167 148.047C294.331 147.878 294.563 147.794 294.864 147.794C295.165 147.794 295.397 147.878 295.562 148.047C295.726 148.215 295.808 148.427 295.808 148.683C295.808 148.933 295.726 149.143 295.562 149.312C295.397 149.476 295.165 149.558 294.864 149.558C294.563 149.558 294.331 149.476 294.167 149.312C294.007 149.143 293.928 148.933 293.928 148.683ZM299.048 150.604L299.096 151.458C299.643 150.797 300.36 150.467 301.249 150.467C302.789 150.467 303.573 151.349 303.601 153.112V158H301.939V153.208C301.939 152.739 301.837 152.392 301.632 152.169C301.431 151.941 301.101 151.827 300.641 151.827C299.971 151.827 299.472 152.13 299.144 152.736V158H297.482V150.604H299.048ZM308.557 158.137C307.504 158.137 306.649 157.806 305.993 157.146C305.341 156.48 305.016 155.596 305.016 154.493V154.288C305.016 153.55 305.157 152.891 305.439 152.312C305.727 151.729 306.128 151.276 306.643 150.952C307.158 150.629 307.732 150.467 308.365 150.467C309.372 150.467 310.149 150.788 310.696 151.431C311.248 152.073 311.523 152.982 311.523 154.158V154.828H306.69C306.741 155.439 306.943 155.922 307.299 156.277C307.659 156.633 308.11 156.811 308.652 156.811C309.413 156.811 310.033 156.503 310.512 155.888L311.407 156.742C311.111 157.184 310.715 157.528 310.218 157.774C309.726 158.016 309.172 158.137 308.557 158.137ZM308.358 151.8C307.903 151.8 307.534 151.959 307.251 152.278C306.973 152.597 306.795 153.042 306.718 153.611H309.883V153.488C309.846 152.932 309.698 152.513 309.438 152.23C309.179 151.943 308.819 151.8 308.358 151.8ZM320.725 158C320.652 157.859 320.588 157.629 320.533 157.31C320.005 157.861 319.357 158.137 318.592 158.137C317.849 158.137 317.243 157.925 316.773 157.501C316.304 157.077 316.069 156.553 316.069 155.929C316.069 155.14 316.361 154.536 316.944 154.117C317.532 153.693 318.371 153.481 319.46 153.481H320.479V152.996C320.479 152.613 320.371 152.308 320.157 152.08C319.943 151.848 319.617 151.731 319.18 151.731C318.801 151.731 318.492 151.827 318.25 152.019C318.008 152.205 317.888 152.445 317.888 152.736H316.227C316.227 152.331 316.361 151.952 316.63 151.602C316.899 151.246 317.263 150.968 317.724 150.768C318.188 150.567 318.706 150.467 319.275 150.467C320.141 150.467 320.832 150.686 321.347 151.123C321.862 151.556 322.126 152.167 322.14 152.955V156.291C322.14 156.956 322.233 157.487 322.42 157.884V158H320.725ZM318.899 156.804C319.228 156.804 319.535 156.724 319.822 156.564C320.114 156.405 320.333 156.191 320.479 155.922V154.527H319.583C318.968 154.527 318.505 154.634 318.195 154.849C317.885 155.063 317.73 155.366 317.73 155.758C317.73 156.077 317.835 156.332 318.045 156.523C318.259 156.71 318.544 156.804 318.899 156.804ZM326.535 153.037L327.943 150.604H329.789L327.526 154.247L329.864 158H328.032L326.556 155.471L325.086 158H323.24L325.578 154.247L323.322 150.604H325.154L326.535 153.037ZM332.688 158H331.026V150.604H332.688V158ZM330.924 148.683C330.924 148.427 331.004 148.215 331.163 148.047C331.327 147.878 331.56 147.794 331.86 147.794C332.161 147.794 332.394 147.878 332.558 148.047C332.722 148.215 332.804 148.427 332.804 148.683C332.804 148.933 332.722 149.143 332.558 149.312C332.394 149.476 332.161 149.558 331.86 149.558C331.56 149.558 331.327 149.476 331.163 149.312C331.004 149.143 330.924 148.933 330.924 148.683ZM338.648 155.99C338.648 155.694 338.525 155.468 338.279 155.313C338.038 155.159 337.634 155.022 337.069 154.903C336.504 154.785 336.033 154.634 335.654 154.452C334.825 154.051 334.41 153.47 334.41 152.709C334.41 152.071 334.679 151.538 335.217 151.109C335.755 150.681 336.438 150.467 337.268 150.467C338.152 150.467 338.865 150.686 339.407 151.123C339.954 151.561 340.228 152.128 340.228 152.825H338.566C338.566 152.506 338.448 152.242 338.211 152.032C337.974 151.818 337.66 151.711 337.268 151.711C336.903 151.711 336.604 151.795 336.372 151.964C336.144 152.132 336.03 152.358 336.03 152.641C336.03 152.896 336.137 153.094 336.352 153.235C336.566 153.377 336.999 153.52 337.65 153.666C338.302 153.807 338.812 153.978 339.182 154.179C339.555 154.375 339.831 154.612 340.009 154.89C340.191 155.168 340.282 155.505 340.282 155.901C340.282 156.567 340.007 157.107 339.455 157.521C338.904 157.932 338.181 158.137 337.288 158.137C336.682 158.137 336.142 158.027 335.668 157.809C335.194 157.59 334.825 157.289 334.561 156.906C334.296 156.523 334.164 156.111 334.164 155.669H335.777C335.8 156.061 335.948 156.364 336.222 156.578C336.495 156.788 336.857 156.893 337.309 156.893C337.746 156.893 338.079 156.811 338.307 156.646C338.535 156.478 338.648 156.259 338.648 155.99Z" fill="#1E73FF"/>
<g opacity="0.75">
<rect width="67" height="17" transform="translate(233 31)" fill="#1E73FF"/>
</g>
<g opacity="0.75">
<rect width="67" height="43" transform="translate(233 62)" fill="#1E73FF"/>
</g>
<g opacity="0.75">
<rect width="80" height="28" transform="translate(303 31)" fill="#1E73FF"/>
</g>
<g opacity="0.75">
<rect width="80" height="43" transform="translate(303 62)" fill="#1E73FF"/>
</g>
</svg>
