<svg width="425" height="162" viewBox="0 0 425 162" fill="none" xmlns="http://www.w3.org/2000/svg">
<rect x="2" y="27" width="158" height="108" fill="#F7F7F7" stroke="#AAAAAA" stroke-width="2" stroke-dasharray="6 4"/>
<path d="M3.61816 12H1.95703V4.60352H3.61816V12ZM1.85449 2.68262C1.85449 2.42741 1.93424 2.21549 2.09375 2.04688C2.25781 1.87826 2.49023 1.79395 2.79102 1.79395C3.0918 1.79395 3.32422 1.87826 3.48828 2.04688C3.65234 2.21549 3.73438 2.42741 3.73438 2.68262C3.73438 2.93327 3.65234 3.1429 3.48828 3.31152C3.32422 3.47559 3.0918 3.55762 2.79102 3.55762C2.49023 3.55762 2.25781 3.47559 2.09375 3.31152C1.93424 3.1429 1.85449 2.93327 1.85449 2.68262ZM6.97461 4.60352L7.02246 5.45801C7.56934 4.7972 8.28711 4.4668 9.17578 4.4668C10.7161 4.4668 11.5 5.34863 11.5273 7.1123V12H9.86621V7.20801C9.86621 6.73861 9.76367 6.39225 9.55859 6.16895C9.35807 5.94108 9.02767 5.82715 8.56738 5.82715C7.89746 5.82715 7.39844 6.13021 7.07031 6.73633V12H5.40918V4.60352H6.97461ZM14.9932 12H13.332V4.60352H14.9932V12ZM13.2295 2.68262C13.2295 2.42741 13.3092 2.21549 13.4688 2.04688C13.6328 1.87826 13.8652 1.79395 14.166 1.79395C14.4668 1.79395 14.6992 1.87826 14.8633 2.04688C15.0273 2.21549 15.1094 2.42741 15.1094 2.68262C15.1094 2.93327 15.0273 3.1429 14.8633 3.31152C14.6992 3.47559 14.4668 3.55762 14.166 3.55762C13.8652 3.55762 13.6328 3.47559 13.4688 3.31152C13.3092 3.1429 13.2295 2.93327 13.2295 2.68262ZM18.8896 2.80566V4.60352H20.1953V5.83398H18.8896V9.96289C18.8896 10.2454 18.9443 10.4505 19.0537 10.5781C19.1676 10.7012 19.3682 10.7627 19.6553 10.7627C19.8467 10.7627 20.0404 10.7399 20.2363 10.6943V11.9795C19.8581 12.0843 19.4935 12.1367 19.1426 12.1367C17.8665 12.1367 17.2285 11.4326 17.2285 10.0244V5.83398H16.0117V4.60352H17.2285V2.80566H18.8896ZM23.2373 12H21.5762V4.60352H23.2373V12ZM21.4736 2.68262C21.4736 2.42741 21.5534 2.21549 21.7129 2.04688C21.877 1.87826 22.1094 1.79395 22.4102 1.79395C22.7109 1.79395 22.9434 1.87826 23.1074 2.04688C23.2715 2.21549 23.3535 2.42741 23.3535 2.68262C23.3535 2.93327 23.2715 3.1429 23.1074 3.31152C22.9434 3.47559 22.7109 3.55762 22.4102 3.55762C22.1094 3.55762 21.877 3.47559 21.7129 3.31152C21.5534 3.1429 21.4736 2.93327 21.4736 2.68262ZM29.4717 12C29.3988 11.8587 29.335 11.6286 29.2803 11.3096C28.7516 11.861 28.1045 12.1367 27.3389 12.1367C26.596 12.1367 25.9899 11.9248 25.5205 11.501C25.0511 11.0771 24.8164 10.5531 24.8164 9.92871C24.8164 9.1403 25.1081 8.53646 25.6914 8.11719C26.2793 7.69336 27.1178 7.48145 28.207 7.48145H29.2256V6.99609C29.2256 6.61328 29.1185 6.30794 28.9043 6.08008C28.6901 5.84766 28.3643 5.73145 27.9268 5.73145C27.5485 5.73145 27.2386 5.82715 26.9971 6.01855C26.7555 6.2054 26.6348 6.44466 26.6348 6.73633H24.9736C24.9736 6.33073 25.1081 5.95247 25.377 5.60156C25.6458 5.24609 26.0104 4.9681 26.4707 4.76758C26.9355 4.56706 27.4528 4.4668 28.0225 4.4668C28.8883 4.4668 29.5788 4.68555 30.0938 5.12305C30.6087 5.55599 30.873 6.16667 30.8867 6.95508V10.291C30.8867 10.9564 30.9801 11.4873 31.167 11.8838V12H29.4717ZM27.6465 10.8037C27.9746 10.8037 28.2822 10.724 28.5693 10.5645C28.861 10.4049 29.0798 10.1908 29.2256 9.92188V8.52734H28.3301C27.7148 8.52734 27.2523 8.63444 26.9424 8.84863C26.6325 9.06283 26.4775 9.36589 26.4775 9.75781C26.4775 10.0768 26.5824 10.332 26.792 10.5234C27.0062 10.7103 27.291 10.8037 27.6465 10.8037ZM34.3936 12H32.7324V1.5H34.3936V12ZM42.3027 9.89453L43.8682 4.60352H45.584L43.0205 12H41.5781L38.9941 4.60352H40.7168L42.3027 9.89453ZM50.9365 12C50.8636 11.8587 50.7998 11.6286 50.7451 11.3096C50.2165 11.861 49.5693 12.1367 48.8037 12.1367C48.0609 12.1367 47.4548 11.9248 46.9854 11.501C46.516 11.0771 46.2812 10.5531 46.2812 9.92871C46.2812 9.1403 46.5729 8.53646 47.1562 8.11719C47.7441 7.69336 48.5827 7.48145 49.6719 7.48145H50.6904V6.99609C50.6904 6.61328 50.5833 6.30794 50.3691 6.08008C50.1549 5.84766 49.8291 5.73145 49.3916 5.73145C49.0133 5.73145 48.7035 5.82715 48.4619 6.01855C48.2204 6.2054 48.0996 6.44466 48.0996 6.73633H46.4385C46.4385 6.33073 46.5729 5.95247 46.8418 5.60156C47.1107 5.24609 47.4753 4.9681 47.9355 4.76758C48.4004 4.56706 48.9176 4.4668 49.4873 4.4668C50.3532 4.4668 51.0436 4.68555 51.5586 5.12305C52.0736 5.55599 52.3379 6.16667 52.3516 6.95508V10.291C52.3516 10.9564 52.445 11.4873 52.6318 11.8838V12H50.9365ZM49.1113 10.8037C49.4395 10.8037 49.7471 10.724 50.0342 10.5645C50.3258 10.4049 50.5446 10.1908 50.6904 9.92188V8.52734H49.7949C49.1797 8.52734 48.7171 8.63444 48.4072 8.84863C48.0973 9.06283 47.9424 9.36589 47.9424 9.75781C47.9424 10.0768 48.0472 10.332 48.2568 10.5234C48.471 10.7103 48.7559 10.8037 49.1113 10.8037ZM55.8584 12H54.1973V1.5H55.8584V12ZM62.1543 11.2754C61.6667 11.8496 60.974 12.1367 60.0762 12.1367C59.2741 12.1367 58.6657 11.902 58.251 11.4326C57.8408 10.9632 57.6357 10.2842 57.6357 9.39551V4.60352H59.2969V9.375C59.2969 10.3138 59.6865 10.7832 60.4658 10.7832C61.2725 10.7832 61.8171 10.4938 62.0996 9.91504V4.60352H63.7607V12H62.1953L62.1543 11.2754ZM68.71 12.1367C67.6572 12.1367 66.8027 11.8063 66.1465 11.1455C65.4948 10.4801 65.1689 9.59603 65.1689 8.49316V8.28809C65.1689 7.5498 65.3102 6.89128 65.5928 6.3125C65.8799 5.72917 66.2809 5.27572 66.7959 4.95215C67.3109 4.62858 67.8851 4.4668 68.5186 4.4668C69.5257 4.4668 70.3027 4.78809 70.8496 5.43066C71.401 6.07324 71.6768 6.98242 71.6768 8.1582V8.82812H66.8438C66.8939 9.4388 67.0967 9.92188 67.4521 10.2773C67.8122 10.6328 68.2633 10.8105 68.8057 10.8105C69.5667 10.8105 70.1865 10.5029 70.665 9.8877L71.5605 10.7422C71.2643 11.1842 70.8678 11.5283 70.3711 11.7744C69.8789 12.016 69.3252 12.1367 68.71 12.1367ZM68.5117 5.7998C68.056 5.7998 67.6868 5.95931 67.4043 6.27832C67.1263 6.59733 66.9486 7.04167 66.8711 7.61133H70.0361V7.48828C69.9997 6.93229 69.8516 6.51302 69.5918 6.23047C69.332 5.94336 68.972 5.7998 68.5117 5.7998Z" fill="#444444"/>
<path d="M180.707 136.128C180.317 136.519 179.683 136.519 179.293 136.128L172.929 129.764C172.538 129.374 172.538 128.74 172.929 128.35C173.319 127.959 173.953 127.959 174.343 128.35L180 134.007L185.657 128.35C186.047 127.959 186.681 127.959 187.071 128.35C187.462 128.74 187.462 129.374 187.071 129.764L180.707 136.128ZM179.293 25.8717C179.683 25.4812 180.317 25.4812 180.707 25.8717L187.071 32.2356C187.462 32.6262 187.462 33.2593 187.071 33.6499C186.681 34.0404 186.047 34.0404 185.657 33.6499L180 27.993L174.343 33.6499C173.953 34.0404 173.319 34.0404 172.929 33.6499C172.538 33.2593 172.538 32.6262 172.929 32.2356L179.293 25.8717ZM179 135.421V132.452H181V135.421H179ZM179 128.495V122.558H181V128.495H179ZM179 118.6V112.663H181V118.6H179ZM179 108.705V102.768H181V108.705H179ZM179 98.8104V92.8735H181V98.8104H179ZM179 88.9156V82.9788H181V88.9156H179ZM179 79.0209V73.0841H181V79.0209H179ZM179 69.1262V63.1893H181V69.1262H179ZM179 59.2314V53.2946H181V59.2314H179ZM179 49.3367V43.3998H181V49.3367H179ZM179 39.4419V33.5051H181V39.4419H179ZM179 29.5472V26.5788H181V29.5472H179Z" fill="#00986B"/>
<rect width="32" height="40" transform="translate(164 60)" fill="white"/>
<path d="M170.8 73.377C170.8 74.5254 170.542 75.4391 170.027 76.1182C169.517 76.7972 168.813 77.1367 167.915 77.1367C167.049 77.1367 166.375 76.8245 165.892 76.2002L165.81 77H164.306V66.5H165.967V70.3145C166.445 69.7493 167.09 69.4668 167.901 69.4668C168.804 69.4668 169.512 69.8018 170.027 70.4717C170.542 71.1416 170.8 72.0781 170.8 73.2812V73.377ZM169.139 73.2334C169.139 72.4313 168.997 71.8298 168.715 71.4287C168.432 71.0277 168.022 70.8271 167.484 70.8271C166.764 70.8271 166.258 71.1416 165.967 71.7705V74.8193C166.263 75.4619 166.773 75.7832 167.498 75.7832C168.018 75.7832 168.419 75.5895 168.701 75.2021C168.984 74.8148 169.13 74.2292 169.139 73.4453V73.2334ZM173.965 77H172.304V66.5H173.965V77ZM175.469 73.2334C175.469 72.5088 175.612 71.8571 175.899 71.2783C176.187 70.695 176.59 70.2484 177.109 69.9385C177.629 69.624 178.226 69.4668 178.9 69.4668C179.898 69.4668 180.707 69.7881 181.327 70.4307C181.951 71.0732 182.289 71.9255 182.339 72.9873L182.346 73.377C182.346 74.1061 182.204 74.7578 181.922 75.332C181.644 75.9062 181.243 76.3506 180.719 76.665C180.199 76.9795 179.598 77.1367 178.914 77.1367C177.87 77.1367 177.034 76.7904 176.405 76.0977C175.781 75.4004 175.469 74.473 175.469 73.3154V73.2334ZM177.13 73.377C177.13 74.138 177.287 74.735 177.602 75.168C177.916 75.5964 178.354 75.8105 178.914 75.8105C179.475 75.8105 179.91 75.5918 180.22 75.1543C180.534 74.7168 180.691 74.0765 180.691 73.2334C180.691 72.486 180.53 71.8936 180.206 71.4561C179.887 71.0186 179.452 70.7998 178.9 70.7998C178.358 70.7998 177.927 71.0163 177.608 71.4492C177.289 71.8776 177.13 72.5202 177.13 73.377ZM186.789 75.8105C187.204 75.8105 187.548 75.6898 187.821 75.4482C188.095 75.2067 188.241 74.9082 188.259 74.5527H189.824C189.806 75.013 189.662 75.4437 189.394 75.8447C189.125 76.2412 188.76 76.5557 188.3 76.7881C187.84 77.0205 187.343 77.1367 186.81 77.1367C185.775 77.1367 184.955 76.8018 184.349 76.1318C183.743 75.4619 183.439 74.5368 183.439 73.3564V73.1855C183.439 72.0599 183.74 71.1598 184.342 70.4854C184.943 69.8063 185.764 69.4668 186.803 69.4668C187.682 69.4668 188.398 69.7243 188.949 70.2393C189.505 70.7497 189.797 71.4219 189.824 72.2559H188.259C188.241 71.832 188.095 71.4834 187.821 71.21C187.552 70.9365 187.208 70.7998 186.789 70.7998C186.251 70.7998 185.837 70.9958 185.545 71.3877C185.253 71.7751 185.105 72.3652 185.101 73.1582V73.4248C185.101 74.2269 185.244 74.8262 185.531 75.2227C185.823 75.6146 186.242 75.8105 186.789 75.8105ZM193.481 73.8281L192.743 74.5869V77H191.082V66.5H192.743V72.5566L193.263 71.9072L195.307 69.6035H197.303L194.555 72.6865L197.597 77H195.676L193.481 73.8281ZM173.056 92C172.983 91.8587 172.919 91.6286 172.864 91.3096C172.336 91.861 171.688 92.1367 170.923 92.1367C170.18 92.1367 169.574 91.9248 169.104 91.501C168.635 91.0771 168.4 90.5531 168.4 89.9287C168.4 89.1403 168.692 88.5365 169.275 88.1172C169.863 87.6934 170.702 87.4814 171.791 87.4814H172.81V86.9961C172.81 86.6133 172.702 86.3079 172.488 86.0801C172.274 85.8477 171.948 85.7314 171.511 85.7314C171.132 85.7314 170.823 85.8271 170.581 86.0186C170.34 86.2054 170.219 86.4447 170.219 86.7363H168.558C168.558 86.3307 168.692 85.9525 168.961 85.6016C169.23 85.2461 169.594 84.9681 170.055 84.7676C170.52 84.5671 171.037 84.4668 171.606 84.4668C172.472 84.4668 173.163 84.6855 173.678 85.123C174.193 85.556 174.457 86.1667 174.471 86.9551V90.291C174.471 90.9564 174.564 91.4873 174.751 91.8838V92H173.056ZM171.23 90.8037C171.559 90.8037 171.866 90.724 172.153 90.5645C172.445 90.4049 172.664 90.1908 172.81 89.9219V88.5273H171.914C171.299 88.5273 170.836 88.6344 170.526 88.8486C170.216 89.0628 170.062 89.3659 170.062 89.7578C170.062 90.0768 170.166 90.332 170.376 90.5234C170.59 90.7103 170.875 90.8037 171.23 90.8037ZM178.866 87.0371L180.274 84.6035H182.12L179.857 88.2471L182.195 92H180.363L178.887 89.4707L177.417 92H175.571L177.909 88.2471L175.653 84.6035H177.485L178.866 87.0371ZM185.019 92H183.357V84.6035H185.019V92ZM183.255 82.6826C183.255 82.4274 183.335 82.2155 183.494 82.0469C183.658 81.8783 183.891 81.7939 184.191 81.7939C184.492 81.7939 184.725 81.8783 184.889 82.0469C185.053 82.2155 185.135 82.4274 185.135 82.6826C185.135 82.9333 185.053 83.1429 184.889 83.3115C184.725 83.4756 184.492 83.5576 184.191 83.5576C183.891 83.5576 183.658 83.4756 183.494 83.3115C183.335 83.1429 183.255 82.9333 183.255 82.6826ZM190.979 89.9902C190.979 89.694 190.856 89.4684 190.61 89.3135C190.369 89.1585 189.965 89.0218 189.4 88.9033C188.835 88.7848 188.364 88.6344 187.985 88.4521C187.156 88.0511 186.741 87.4701 186.741 86.709C186.741 86.071 187.01 85.5378 187.548 85.1094C188.086 84.681 188.769 84.4668 189.599 84.4668C190.483 84.4668 191.196 84.6855 191.738 85.123C192.285 85.5605 192.559 86.1279 192.559 86.8252H190.897C190.897 86.5062 190.779 86.2419 190.542 86.0322C190.305 85.818 189.991 85.7109 189.599 85.7109C189.234 85.7109 188.936 85.7952 188.703 85.9639C188.475 86.1325 188.361 86.3581 188.361 86.6406C188.361 86.8958 188.468 87.0941 188.683 87.2354C188.897 87.3766 189.33 87.5202 189.981 87.666C190.633 87.8073 191.144 87.9782 191.513 88.1787C191.886 88.3747 192.162 88.6117 192.34 88.8896C192.522 89.1676 192.613 89.5049 192.613 89.9014C192.613 90.5667 192.338 91.1068 191.786 91.5215C191.235 91.9316 190.512 92.1367 189.619 92.1367C189.013 92.1367 188.473 92.0273 187.999 91.8086C187.525 91.5898 187.156 91.2891 186.892 90.9062C186.627 90.5234 186.495 90.111 186.495 89.6689H188.108C188.131 90.0609 188.279 90.3639 188.553 90.5781C188.826 90.7878 189.188 90.8926 189.64 90.8926C190.077 90.8926 190.41 90.8105 190.638 90.6465C190.866 90.4779 190.979 90.2591 190.979 89.9902Z" fill="#00986B"/>
<path d="M162.854 153.707C163.244 153.317 163.244 152.683 162.854 152.293L156.49 145.929C156.099 145.538 155.466 145.538 155.075 145.929C154.685 146.319 154.685 146.953 155.075 147.343L160.732 153L155.075 158.657C154.685 159.047 154.685 159.681 155.075 160.071C155.466 160.462 156.099 160.462 156.49 160.071L162.854 153.707ZM1.14464 152.293C0.754118 152.683 0.754118 153.317 1.14464 153.707L7.5086 160.071C7.89913 160.462 8.53229 160.462 8.92282 160.071C9.31334 159.681 9.31334 159.047 8.92282 158.657L3.26596 153L8.92282 147.343C9.31334 146.953 9.31334 146.319 8.92282 145.929C8.53229 145.538 7.89913 145.538 7.5086 145.929L1.14464 152.293ZM162.146 152L159.141 152L159.141 154L162.146 154L162.146 152ZM155.134 152L149.123 152L149.123 154L155.134 154L155.134 152ZM145.115 152L139.104 152L139.104 154L145.115 154L145.115 152ZM135.097 152L129.086 152L129.086 154L135.097 154L135.097 152ZM125.078 152L119.067 152L119.067 154L125.078 154L125.078 152ZM115.06 152L109.049 152L109.049 154L115.06 154L115.06 152ZM105.041 152L99.0304 152L99.0304 154L105.041 154L105.041 152ZM95.0231 152L89.012 152L89.012 154L95.0231 154L95.0231 152ZM85.0046 152L78.9936 152L78.9936 154L85.0046 154L85.0046 152ZM74.9862 152L68.9752 152L68.9752 154L74.9862 154L74.9862 152ZM64.9678 152L58.9567 152L58.9567 154L64.9678 154L64.9678 152ZM54.9494 152L48.9383 152L48.9383 154L54.9494 154L54.9494 152ZM44.9309 152L38.9199 152L38.9199 154L44.9309 154L44.9309 152ZM34.9125 152L28.9015 152L28.9015 154L34.9125 154L34.9125 152ZM24.8941 152L18.883 152L18.883 154L24.8941 154L24.8941 152ZM14.8757 152L8.86462 152L8.86462 154L14.8757 154L14.8757 152ZM4.85726 152L1.85175 152L1.85175 154L4.85726 154L4.85726 152Z" fill="#1E73FF"/>
<rect width="70" height="18" transform="translate(47 144)" fill="white"/>
<path d="M53.7344 158H52.0732V150.604H53.7344V158ZM51.9707 148.683C51.9707 148.427 52.0505 148.215 52.21 148.047C52.374 147.878 52.6064 147.794 52.9072 147.794C53.208 147.794 53.4404 147.878 53.6045 148.047C53.7686 148.215 53.8506 148.427 53.8506 148.683C53.8506 148.933 53.7686 149.143 53.6045 149.312C53.4404 149.476 53.208 149.558 52.9072 149.558C52.6064 149.558 52.374 149.476 52.21 149.312C52.0505 149.143 51.9707 148.933 51.9707 148.683ZM57.0908 150.604L57.1387 151.458C57.6855 150.797 58.4033 150.467 59.292 150.467C60.8324 150.467 61.6162 151.349 61.6436 153.112V158H59.9824V153.208C59.9824 152.739 59.8799 152.392 59.6748 152.169C59.4743 151.941 59.1439 151.827 58.6836 151.827C58.0137 151.827 57.5146 152.13 57.1865 152.736V158H55.5254V150.604H57.0908ZM65.1094 158H63.4482V147.5H65.1094V158ZM68.6914 158H67.0303V150.604H68.6914V158ZM66.9277 148.683C66.9277 148.427 67.0075 148.215 67.167 148.047C67.3311 147.878 67.5635 147.794 67.8643 147.794C68.165 147.794 68.3975 147.878 68.5615 148.047C68.7256 148.215 68.8076 148.427 68.8076 148.683C68.8076 148.933 68.7256 149.143 68.5615 149.312C68.3975 149.476 68.165 149.558 67.8643 149.558C67.5635 149.558 67.3311 149.476 67.167 149.312C67.0075 149.143 66.9277 148.933 66.9277 148.683ZM72.0479 150.604L72.0957 151.458C72.6426 150.797 73.3604 150.467 74.249 150.467C75.7894 150.467 76.5732 151.349 76.6006 153.112V158H74.9395V153.208C74.9395 152.739 74.8369 152.392 74.6318 152.169C74.4313 151.941 74.1009 151.827 73.6406 151.827C72.9707 151.827 72.4717 152.13 72.1436 152.736V158H70.4824V150.604H72.0479ZM81.5566 158.137C80.5039 158.137 79.6494 157.806 78.9932 157.146C78.3415 156.48 78.0156 155.596 78.0156 154.493V154.288C78.0156 153.55 78.1569 152.891 78.4395 152.312C78.7266 151.729 79.1276 151.276 79.6426 150.952C80.1576 150.629 80.7318 150.467 81.3652 150.467C82.3724 150.467 83.1494 150.788 83.6963 151.431C84.2477 152.073 84.5234 152.982 84.5234 154.158V154.828H79.6904C79.7406 155.439 79.9434 155.922 80.2988 156.277C80.6589 156.633 81.11 156.811 81.6523 156.811C82.4134 156.811 83.0332 156.503 83.5117 155.888L84.4072 156.742C84.111 157.184 83.7145 157.528 83.2178 157.774C82.7256 158.016 82.1719 158.137 81.5566 158.137ZM81.3584 151.8C80.9027 151.8 80.5335 151.959 80.251 152.278C79.973 152.597 79.7952 153.042 79.7178 153.611H82.8828V153.488C82.8464 152.932 82.6982 152.513 82.4385 152.23C82.1787 151.943 81.8187 151.8 81.3584 151.8ZM93.7246 158C93.6517 157.859 93.5879 157.629 93.5332 157.31C93.0046 157.861 92.3574 158.137 91.5918 158.137C90.849 158.137 90.2428 157.925 89.7734 157.501C89.304 157.077 89.0693 156.553 89.0693 155.929C89.0693 155.14 89.361 154.536 89.9443 154.117C90.5322 153.693 91.3708 153.481 92.46 153.481H93.4785V152.996C93.4785 152.613 93.3714 152.308 93.1572 152.08C92.943 151.848 92.6172 151.731 92.1797 151.731C91.8014 151.731 91.4915 151.827 91.25 152.019C91.0085 152.205 90.8877 152.445 90.8877 152.736H89.2266C89.2266 152.331 89.361 151.952 89.6299 151.602C89.8988 151.246 90.2633 150.968 90.7236 150.768C91.1885 150.567 91.7057 150.467 92.2754 150.467C93.1413 150.467 93.8317 150.686 94.3467 151.123C94.8617 151.556 95.126 152.167 95.1396 152.955V156.291C95.1396 156.956 95.2331 157.487 95.4199 157.884V158H93.7246ZM91.8994 156.804C92.2275 156.804 92.5352 156.724 92.8223 156.564C93.1139 156.405 93.3327 156.191 93.4785 155.922V154.527H92.583C91.9678 154.527 91.5052 154.634 91.1953 154.849C90.8854 155.063 90.7305 155.366 90.7305 155.758C90.7305 156.077 90.8353 156.332 91.0449 156.523C91.2591 156.71 91.5439 156.804 91.8994 156.804ZM99.5352 153.037L100.943 150.604H102.789L100.526 154.247L102.864 158H101.032L99.5557 155.471L98.0859 158H96.2402L98.5781 154.247L96.3223 150.604H98.1543L99.5352 153.037ZM105.688 158H104.026V150.604H105.688V158ZM103.924 148.683C103.924 148.427 104.004 148.215 104.163 148.047C104.327 147.878 104.56 147.794 104.86 147.794C105.161 147.794 105.394 147.878 105.558 148.047C105.722 148.215 105.804 148.427 105.804 148.683C105.804 148.933 105.722 149.143 105.558 149.312C105.394 149.476 105.161 149.558 104.86 149.558C104.56 149.558 104.327 149.476 104.163 149.312C104.004 149.143 103.924 148.933 103.924 148.683ZM111.648 155.99C111.648 155.694 111.525 155.468 111.279 155.313C111.038 155.159 110.634 155.022 110.069 154.903C109.504 154.785 109.033 154.634 108.654 154.452C107.825 154.051 107.41 153.47 107.41 152.709C107.41 152.071 107.679 151.538 108.217 151.109C108.755 150.681 109.438 150.467 110.268 150.467C111.152 150.467 111.865 150.686 112.407 151.123C112.954 151.561 113.228 152.128 113.228 152.825H111.566C111.566 152.506 111.448 152.242 111.211 152.032C110.974 151.818 110.66 151.711 110.268 151.711C109.903 151.711 109.604 151.795 109.372 151.964C109.144 152.132 109.03 152.358 109.03 152.641C109.03 152.896 109.137 153.094 109.352 153.235C109.566 153.377 109.999 153.52 110.65 153.666C111.302 153.807 111.812 153.978 112.182 154.179C112.555 154.375 112.831 154.612 113.009 154.89C113.191 155.168 113.282 155.505 113.282 155.901C113.282 156.567 113.007 157.107 112.455 157.521C111.904 157.932 111.181 158.137 110.288 158.137C109.682 158.137 109.142 158.027 108.668 157.809C108.194 157.59 107.825 157.289 107.561 156.906C107.296 156.523 107.164 156.111 107.164 155.669H108.777C108.8 156.061 108.948 156.364 109.222 156.578C109.495 156.788 109.857 156.893 110.309 156.893C110.746 156.893 111.079 156.811 111.307 156.646C111.535 156.478 111.648 156.259 111.648 155.99Z" fill="#1E73FF"/>
<g opacity="0.75">
<rect width="55" height="26" transform="translate(6 31)" fill="#1E73FF"/>
</g>
<g opacity="0.75">
<rect width="55" height="41" transform="translate(6 60)" fill="#1E73FF"/>
</g>
<g opacity="0.75">
<rect width="65" height="26" transform="translate(64 31)" fill="#1E73FF"/>
</g>
<g opacity="0.75">
<rect width="65" height="41" transform="translate(64 60)" fill="#1E73FF"/>
</g>
<rect x="229" y="27" width="158" height="108" fill="#F7F7F7" stroke="#AAAAAA" stroke-width="2" stroke-dasharray="6 4"/>
<path d="M233.271 12C233.198 11.8587 233.134 11.6286 233.079 11.3096C232.55 11.861 231.903 12.1367 231.138 12.1367C230.395 12.1367 229.789 11.9248 229.319 11.501C228.85 11.0771 228.615 10.5531 228.615 9.92871C228.615 9.1403 228.907 8.53646 229.49 8.11719C230.078 7.69336 230.917 7.48145 232.006 7.48145H233.024V6.99609C233.024 6.61328 232.917 6.30794 232.703 6.08008C232.489 5.84766 232.163 5.73145 231.726 5.73145C231.347 5.73145 231.037 5.82715 230.796 6.01855C230.554 6.2054 230.434 6.44466 230.434 6.73633H228.772C228.772 6.33073 228.907 5.95247 229.176 5.60156C229.445 5.24609 229.809 4.9681 230.27 4.76758C230.734 4.56706 231.252 4.4668 231.821 4.4668C232.687 4.4668 233.378 4.68555 233.893 5.12305C234.408 5.55599 234.672 6.16667 234.686 6.95508V10.291C234.686 10.9564 234.779 11.4873 234.966 11.8838V12H233.271ZM231.445 10.8037C231.773 10.8037 232.081 10.724 232.368 10.5645C232.66 10.4049 232.879 10.1908 233.024 9.92188V8.52734H232.129C231.514 8.52734 231.051 8.63444 230.741 8.84863C230.431 9.06283 230.276 9.36589 230.276 9.75781C230.276 10.0768 230.381 10.332 230.591 10.5234C230.805 10.7103 231.09 10.8037 231.445 10.8037ZM238.192 12H236.531V1.5H238.192V12ZM241.774 12H240.113V4.60352H241.774V12ZM240.011 2.68262C240.011 2.42741 240.09 2.21549 240.25 2.04688C240.414 1.87826 240.646 1.79395 240.947 1.79395C241.248 1.79395 241.48 1.87826 241.645 2.04688C241.809 2.21549 241.891 2.42741 241.891 2.68262C241.891 2.93327 241.809 3.1429 241.645 3.31152C241.48 3.47559 241.248 3.55762 240.947 3.55762C240.646 3.55762 240.414 3.47559 240.25 3.31152C240.09 3.1429 240.011 2.93327 240.011 2.68262ZM243.299 8.24707C243.299 7.09863 243.568 6.18262 244.105 5.49902C244.648 4.81087 245.366 4.4668 246.259 4.4668C247.102 4.4668 247.765 4.76074 248.248 5.34863L248.323 4.60352H249.82V11.7744C249.82 12.7451 249.517 13.5107 248.911 14.0713C248.31 14.6318 247.496 14.9121 246.471 14.9121C245.928 14.9121 245.397 14.7982 244.878 14.5703C244.363 14.347 243.971 14.0531 243.702 13.6885L244.488 12.6904C244.999 13.2965 245.628 13.5996 246.375 13.5996C246.926 13.5996 247.362 13.4492 247.681 13.1484C248 12.8522 248.159 12.4147 248.159 11.8359V11.3369C247.681 11.8701 247.043 12.1367 246.245 12.1367C245.379 12.1367 244.671 11.7926 244.119 11.1045C243.572 10.4163 243.299 9.46387 243.299 8.24707ZM244.953 8.39062C244.953 9.13346 245.104 9.71908 245.404 10.1475C245.71 10.5713 246.131 10.7832 246.669 10.7832C247.339 10.7832 247.836 10.4961 248.159 9.92188V6.66797C247.845 6.10742 247.353 5.82715 246.683 5.82715C246.136 5.82715 245.71 6.04362 245.404 6.47656C245.104 6.90951 244.953 7.54753 244.953 8.39062ZM253.074 4.60352L253.122 5.45801C253.669 4.7972 254.387 4.4668 255.275 4.4668C256.816 4.4668 257.6 5.34863 257.627 7.1123V12H255.966V7.20801C255.966 6.73861 255.863 6.39225 255.658 6.16895C255.458 5.94108 255.127 5.82715 254.667 5.82715C253.997 5.82715 253.498 6.13021 253.17 6.73633V12H251.509V4.60352H253.074ZM262.549 8.43848H258.96V7.09863H262.549V8.43848ZM266.958 10.8105C267.373 10.8105 267.717 10.6898 267.99 10.4482C268.264 10.2067 268.41 9.9082 268.428 9.55273H269.993C269.975 10.013 269.831 10.4437 269.562 10.8447C269.294 11.2412 268.929 11.5557 268.469 11.7881C268.008 12.0205 267.512 12.1367 266.979 12.1367C265.944 12.1367 265.124 11.8018 264.518 11.1318C263.911 10.4619 263.608 9.53678 263.608 8.35645V8.18555C263.608 7.0599 263.909 6.15983 264.511 5.48535C265.112 4.80632 265.933 4.4668 266.972 4.4668C267.851 4.4668 268.567 4.72428 269.118 5.23926C269.674 5.74967 269.966 6.42188 269.993 7.25586H268.428C268.41 6.83203 268.264 6.4834 267.99 6.20996C267.721 5.93652 267.377 5.7998 266.958 5.7998C266.42 5.7998 266.006 5.99577 265.714 6.3877C265.422 6.77507 265.274 7.36523 265.27 8.1582V8.4248C265.27 9.22689 265.413 9.82617 265.7 10.2227C265.992 10.6146 266.411 10.8105 266.958 10.8105ZM270.937 8.2334C270.937 7.50879 271.08 6.8571 271.367 6.27832C271.654 5.69499 272.058 5.24837 272.577 4.93848C273.097 4.62402 273.694 4.4668 274.368 4.4668C275.366 4.4668 276.175 4.78809 276.795 5.43066C277.419 6.07324 277.757 6.92546 277.807 7.9873L277.813 8.37695C277.813 9.10612 277.672 9.75781 277.39 10.332C277.112 10.9062 276.711 11.3506 276.187 11.665C275.667 11.9795 275.065 12.1367 274.382 12.1367C273.338 12.1367 272.502 11.7904 271.873 11.0977C271.249 10.4004 270.937 9.47298 270.937 8.31543V8.2334ZM272.598 8.37695C272.598 9.13802 272.755 9.73503 273.069 10.168C273.384 10.5964 273.821 10.8105 274.382 10.8105C274.942 10.8105 275.378 10.5918 275.688 10.1543C276.002 9.7168 276.159 9.0765 276.159 8.2334C276.159 7.486 275.997 6.89355 275.674 6.45605C275.355 6.01855 274.92 5.7998 274.368 5.7998C273.826 5.7998 273.395 6.01628 273.076 6.44922C272.757 6.8776 272.598 7.52018 272.598 8.37695ZM280.76 4.60352L280.808 5.45801C281.354 4.7972 282.072 4.4668 282.961 4.4668C284.501 4.4668 285.285 5.34863 285.312 7.1123V12H283.651V7.20801C283.651 6.73861 283.549 6.39225 283.344 6.16895C283.143 5.94108 282.813 5.82715 282.353 5.82715C281.683 5.82715 281.184 6.13021 280.855 6.73633V12H279.194V4.60352H280.76ZM289.093 2.80566V4.60352H290.398V5.83398H289.093V9.96289C289.093 10.2454 289.147 10.4505 289.257 10.5781C289.371 10.7012 289.571 10.7627 289.858 10.7627C290.05 10.7627 290.243 10.7399 290.439 10.6943V11.9795C290.061 12.0843 289.697 12.1367 289.346 12.1367C288.07 12.1367 287.432 11.4326 287.432 10.0244V5.83398H286.215V4.60352H287.432V2.80566H289.093ZM294.931 12.1367C293.878 12.1367 293.023 11.8063 292.367 11.1455C291.715 10.4801 291.39 9.59603 291.39 8.49316V8.28809C291.39 7.5498 291.531 6.89128 291.813 6.3125C292.101 5.72917 292.502 5.27572 293.017 4.95215C293.532 4.62858 294.106 4.4668 294.739 4.4668C295.746 4.4668 296.523 4.78809 297.07 5.43066C297.622 6.07324 297.897 6.98242 297.897 8.1582V8.82812H293.064C293.115 9.4388 293.317 9.92188 293.673 10.2773C294.033 10.6328 294.484 10.8105 295.026 10.8105C295.787 10.8105 296.407 10.5029 296.886 9.8877L297.781 10.7422C297.485 11.1842 297.089 11.5283 296.592 11.7744C296.1 12.016 295.546 12.1367 294.931 12.1367ZM294.732 5.7998C294.277 5.7998 293.908 5.95931 293.625 6.27832C293.347 6.59733 293.169 7.04167 293.092 7.61133H296.257V7.48828C296.22 6.93229 296.072 6.51302 295.812 6.23047C295.553 5.94336 295.193 5.7998 294.732 5.7998ZM300.734 4.60352L300.782 5.45801C301.329 4.7972 302.047 4.4668 302.936 4.4668C304.476 4.4668 305.26 5.34863 305.287 7.1123V12H303.626V7.20801C303.626 6.73861 303.523 6.39225 303.318 6.16895C303.118 5.94108 302.787 5.82715 302.327 5.82715C301.657 5.82715 301.158 6.13021 300.83 6.73633V12H299.169V4.60352H300.734ZM309.067 2.80566V4.60352H310.373V5.83398H309.067V9.96289C309.067 10.2454 309.122 10.4505 309.231 10.5781C309.345 10.7012 309.546 10.7627 309.833 10.7627C310.024 10.7627 310.218 10.7399 310.414 10.6943V11.9795C310.036 12.0843 309.671 12.1367 309.32 12.1367C308.044 12.1367 307.406 11.4326 307.406 10.0244V5.83398H306.189V4.60352H307.406V2.80566H309.067ZM312.649 10.25C312.959 10.25 313.199 10.3389 313.367 10.5166C313.536 10.6898 313.62 10.9085 313.62 11.1729C313.62 11.4326 313.536 11.6491 313.367 11.8223C313.199 11.9909 312.959 12.0752 312.649 12.0752C312.353 12.0752 312.118 11.9909 311.945 11.8223C311.772 11.6536 311.686 11.4372 311.686 11.1729C311.686 10.9085 311.77 10.6898 311.938 10.5166C312.107 10.3389 312.344 10.25 312.649 10.25ZM312.649 4.44629C312.959 4.44629 313.199 4.53516 313.367 4.71289C313.536 4.88607 313.62 5.10482 313.62 5.36914C313.62 5.62891 313.536 5.84538 313.367 6.01855C313.199 6.18717 312.959 6.27148 312.649 6.27148C312.353 6.27148 312.118 6.18717 311.945 6.01855C311.772 5.84993 311.686 5.63346 311.686 5.36914C311.686 5.10482 311.77 4.88607 311.938 4.71289C312.107 4.53516 312.344 4.44629 312.649 4.44629ZM415.154 4.44629C415.464 4.44629 415.703 4.53516 415.872 4.71289C416.041 4.88607 416.125 5.10482 416.125 5.36914C416.125 5.62891 416.041 5.84538 415.872 6.01855C415.703 6.18717 415.464 6.27148 415.154 6.27148C414.858 6.27148 414.623 6.18717 414.45 6.01855C414.277 5.84993 414.19 5.63346 414.19 5.36914C414.19 5.10482 414.275 4.88607 414.443 4.71289C414.612 4.53516 414.849 4.44629 415.154 4.44629ZM414.655 14.2422L413.76 13.709C414.024 13.2943 414.204 12.932 414.3 12.6221C414.4 12.3167 414.452 12.0046 414.457 11.6855V10.3936H415.954L415.947 11.5898C415.943 12.0729 415.82 12.556 415.578 13.0391C415.341 13.5267 415.034 13.9277 414.655 14.2422Z" fill="#444444"/>
<path d="M322.999 9.99023C322.999 9.69401 322.876 9.46842 322.63 9.31348C322.388 9.15853 321.985 9.02181 321.42 8.90332C320.855 8.78483 320.383 8.63444 320.005 8.45215C319.175 8.05111 318.761 7.47005 318.761 6.70898C318.761 6.07096 319.03 5.53776 319.567 5.10938C320.105 4.68099 320.789 4.4668 321.618 4.4668C322.502 4.4668 323.215 4.68555 323.758 5.12305C324.305 5.56055 324.578 6.12793 324.578 6.8252H322.917C322.917 6.50618 322.799 6.24186 322.562 6.03223C322.325 5.81803 322.01 5.71094 321.618 5.71094C321.254 5.71094 320.955 5.79525 320.723 5.96387C320.495 6.13249 320.381 6.35807 320.381 6.64062C320.381 6.89583 320.488 7.09408 320.702 7.23535C320.916 7.37663 321.349 7.52018 322.001 7.66602C322.653 7.80729 323.163 7.97819 323.532 8.17871C323.906 8.37467 324.182 8.61165 324.359 8.88965C324.542 9.16764 324.633 9.50488 324.633 9.90137C324.633 10.5667 324.357 11.1068 323.806 11.5215C323.254 11.9316 322.532 12.1367 321.639 12.1367C321.033 12.1367 320.493 12.0273 320.019 11.8086C319.545 11.5898 319.175 11.2891 318.911 10.9062C318.647 10.5234 318.515 10.111 318.515 9.66895H320.128C320.151 10.0609 320.299 10.3639 320.572 10.5781C320.846 10.7878 321.208 10.8926 321.659 10.8926C322.097 10.8926 322.429 10.8105 322.657 10.6465C322.885 10.4779 322.999 10.2591 322.999 9.99023ZM332.562 8.37695C332.562 9.52083 332.303 10.4346 331.783 11.1182C331.264 11.7972 330.566 12.1367 329.691 12.1367C328.88 12.1367 328.231 11.8701 327.743 11.3369V14.8438H326.082V4.60352H327.613L327.682 5.35547C328.169 4.76302 328.832 4.4668 329.671 4.4668C330.573 4.4668 331.28 4.80404 331.79 5.47852C332.305 6.14844 332.562 7.0804 332.562 8.27441V8.37695ZM330.908 8.2334C330.908 7.49512 330.76 6.90951 330.464 6.47656C330.172 6.04362 329.753 5.82715 329.206 5.82715C328.527 5.82715 328.039 6.10742 327.743 6.66797V9.94922C328.044 10.5234 328.536 10.8105 329.22 10.8105C329.748 10.8105 330.161 10.5986 330.457 10.1748C330.758 9.74642 330.908 9.09928 330.908 8.2334ZM338.394 12C338.321 11.8587 338.257 11.6286 338.202 11.3096C337.674 11.861 337.026 12.1367 336.261 12.1367C335.518 12.1367 334.912 11.9248 334.442 11.501C333.973 11.0771 333.738 10.5531 333.738 9.92871C333.738 9.1403 334.03 8.53646 334.613 8.11719C335.201 7.69336 336.04 7.48145 337.129 7.48145H338.147V6.99609C338.147 6.61328 338.04 6.30794 337.826 6.08008C337.612 5.84766 337.286 5.73145 336.849 5.73145C336.47 5.73145 336.16 5.82715 335.919 6.01855C335.677 6.2054 335.557 6.44466 335.557 6.73633H333.896C333.896 6.33073 334.03 5.95247 334.299 5.60156C334.568 5.24609 334.932 4.9681 335.393 4.76758C335.857 4.56706 336.375 4.4668 336.944 4.4668C337.81 4.4668 338.501 4.68555 339.016 5.12305C339.531 5.55599 339.795 6.16667 339.809 6.95508V10.291C339.809 10.9564 339.902 11.4873 340.089 11.8838V12H338.394ZM336.568 10.8037C336.896 10.8037 337.204 10.724 337.491 10.5645C337.783 10.4049 338.002 10.1908 338.147 9.92188V8.52734H337.252C336.637 8.52734 336.174 8.63444 335.864 8.84863C335.554 9.06283 335.399 9.36589 335.399 9.75781C335.399 10.0768 335.504 10.332 335.714 10.5234C335.928 10.7103 336.213 10.8037 336.568 10.8037ZM344.587 10.8105C345.002 10.8105 345.346 10.6898 345.619 10.4482C345.893 10.2067 346.038 9.9082 346.057 9.55273H347.622C347.604 10.013 347.46 10.4437 347.191 10.8447C346.923 11.2412 346.558 11.5557 346.098 11.7881C345.637 12.0205 345.141 12.1367 344.607 12.1367C343.573 12.1367 342.753 11.8018 342.146 11.1318C341.54 10.4619 341.237 9.53678 341.237 8.35645V8.18555C341.237 7.0599 341.538 6.15983 342.14 5.48535C342.741 4.80632 343.562 4.4668 344.601 4.4668C345.48 4.4668 346.196 4.72428 346.747 5.23926C347.303 5.74967 347.595 6.42188 347.622 7.25586H346.057C346.038 6.83203 345.893 6.4834 345.619 6.20996C345.35 5.93652 345.006 5.7998 344.587 5.7998C344.049 5.7998 343.634 5.99577 343.343 6.3877C343.051 6.77507 342.903 7.36523 342.898 8.1582V8.4248C342.898 9.22689 343.042 9.82617 343.329 10.2227C343.621 10.6146 344.04 10.8105 344.587 10.8105ZM352.134 12.1367C351.081 12.1367 350.227 11.8063 349.57 11.1455C348.919 10.4801 348.593 9.59603 348.593 8.49316V8.28809C348.593 7.5498 348.734 6.89128 349.017 6.3125C349.304 5.72917 349.705 5.27572 350.22 4.95215C350.735 4.62858 351.309 4.4668 351.942 4.4668C352.95 4.4668 353.727 4.78809 354.273 5.43066C354.825 6.07324 355.101 6.98242 355.101 8.1582V8.82812H350.268C350.318 9.4388 350.521 9.92188 350.876 10.2773C351.236 10.6328 351.687 10.8105 352.229 10.8105C352.991 10.8105 353.61 10.5029 354.089 9.8877L354.984 10.7422C354.688 11.1842 354.292 11.5283 353.795 11.7744C353.303 12.016 352.749 12.1367 352.134 12.1367ZM351.936 5.7998C351.48 5.7998 351.111 5.95931 350.828 6.27832C350.55 6.59733 350.372 7.04167 350.295 7.61133H353.46V7.48828C353.424 6.93229 353.275 6.51302 353.016 6.23047C352.756 5.94336 352.396 5.7998 351.936 5.7998ZM359.619 8.43848H356.03V7.09863H359.619V8.43848ZM367.48 8.37695C367.48 9.52539 367.223 10.4391 366.708 11.1182C366.198 11.7972 365.493 12.1367 364.596 12.1367C363.73 12.1367 363.055 11.8245 362.572 11.2002L362.49 12H360.986V1.5H362.647V5.31445C363.126 4.74935 363.771 4.4668 364.582 4.4668C365.484 4.4668 366.193 4.80176 366.708 5.47168C367.223 6.1416 367.48 7.07812 367.48 8.28125V8.37695ZM365.819 8.2334C365.819 7.43132 365.678 6.82975 365.396 6.42871C365.113 6.02767 364.703 5.82715 364.165 5.82715C363.445 5.82715 362.939 6.1416 362.647 6.77051V9.81934C362.944 10.4619 363.454 10.7832 364.179 10.7832C364.698 10.7832 365.099 10.5895 365.382 10.2021C365.664 9.81478 365.81 9.22917 365.819 8.44531V8.2334ZM372.136 12.1367C371.083 12.1367 370.229 11.8063 369.572 11.1455C368.921 10.4801 368.595 9.59603 368.595 8.49316V8.28809C368.595 7.5498 368.736 6.89128 369.019 6.3125C369.306 5.72917 369.707 5.27572 370.222 4.95215C370.737 4.62858 371.311 4.4668 371.944 4.4668C372.951 4.4668 373.729 4.78809 374.275 5.43066C374.827 6.07324 375.103 6.98242 375.103 8.1582V8.82812H370.27C370.32 9.4388 370.522 9.92188 370.878 10.2773C371.238 10.6328 371.689 10.8105 372.231 10.8105C372.993 10.8105 373.612 10.5029 374.091 9.8877L374.986 10.7422C374.69 11.1842 374.294 11.5283 373.797 11.7744C373.305 12.016 372.751 12.1367 372.136 12.1367ZM371.938 5.7998C371.482 5.7998 371.113 5.95931 370.83 6.27832C370.552 6.59733 370.374 7.04167 370.297 7.61133H373.462V7.48828C373.425 6.93229 373.277 6.51302 373.018 6.23047C372.758 5.94336 372.398 5.7998 371.938 5.7998ZM378.479 2.80566V4.60352H379.785V5.83398H378.479V9.96289C378.479 10.2454 378.534 10.4505 378.644 10.5781C378.757 10.7012 378.958 10.7627 379.245 10.7627C379.437 10.7627 379.63 10.7399 379.826 10.6943V11.9795C379.448 12.0843 379.083 12.1367 378.732 12.1367C377.456 12.1367 376.818 11.4326 376.818 10.0244V5.83398H375.602V4.60352H376.818V2.80566H378.479ZM387.558 9.70996L388.733 4.60352H390.354L388.337 12H386.97L385.384 6.9209L383.825 12H382.458L380.435 4.60352H382.055L383.251 9.65527L384.769 4.60352H386.02L387.558 9.70996ZM394.722 12.1367C393.669 12.1367 392.814 11.8063 392.158 11.1455C391.507 10.4801 391.181 9.59603 391.181 8.49316V8.28809C391.181 7.5498 391.322 6.89128 391.604 6.3125C391.892 5.72917 392.293 5.27572 392.808 4.95215C393.323 4.62858 393.897 4.4668 394.53 4.4668C395.537 4.4668 396.314 4.78809 396.861 5.43066C397.413 6.07324 397.688 6.98242 397.688 8.1582V8.82812H392.855C392.906 9.4388 393.108 9.92188 393.464 10.2773C393.824 10.6328 394.275 10.8105 394.817 10.8105C395.578 10.8105 396.198 10.5029 396.677 9.8877L397.572 10.7422C397.276 11.1842 396.88 11.5283 396.383 11.7744C395.891 12.016 395.337 12.1367 394.722 12.1367ZM394.523 5.7998C394.068 5.7998 393.699 5.95931 393.416 6.27832C393.138 6.59733 392.96 7.04167 392.883 7.61133H396.048V7.48828C396.011 6.93229 395.863 6.51302 395.604 6.23047C395.344 5.94336 394.984 5.7998 394.523 5.7998ZM402.241 12.1367C401.188 12.1367 400.334 11.8063 399.678 11.1455C399.026 10.4801 398.7 9.59603 398.7 8.49316V8.28809C398.7 7.5498 398.841 6.89128 399.124 6.3125C399.411 5.72917 399.812 5.27572 400.327 4.95215C400.842 4.62858 401.416 4.4668 402.05 4.4668C403.057 4.4668 403.834 4.78809 404.381 5.43066C404.932 6.07324 405.208 6.98242 405.208 8.1582V8.82812H400.375C400.425 9.4388 400.628 9.92188 400.983 10.2773C401.343 10.6328 401.795 10.8105 402.337 10.8105C403.098 10.8105 403.718 10.5029 404.196 9.8877L405.092 10.7422C404.796 11.1842 404.399 11.5283 403.902 11.7744C403.41 12.016 402.856 12.1367 402.241 12.1367ZM402.043 5.7998C401.587 5.7998 401.218 5.95931 400.936 6.27832C400.658 6.59733 400.48 7.04167 400.402 7.61133H403.567V7.48828C403.531 6.93229 403.383 6.51302 403.123 6.23047C402.863 5.94336 402.503 5.7998 402.043 5.7998ZM408.045 4.60352L408.093 5.45801C408.64 4.7972 409.357 4.4668 410.246 4.4668C411.786 4.4668 412.57 5.34863 412.598 7.1123V12H410.937V7.20801C410.937 6.73861 410.834 6.39225 410.629 6.16895C410.428 5.94108 410.098 5.82715 409.638 5.82715C408.968 5.82715 408.469 6.13021 408.141 6.73633V12H406.479V4.60352H408.045Z" fill="#1E73FF"/>
<path d="M407.707 136.128C407.317 136.519 406.683 136.519 406.293 136.128L399.929 129.764C399.538 129.374 399.538 128.74 399.929 128.35C400.319 127.959 400.953 127.959 401.343 128.35L407 134.007L412.657 128.35C413.047 127.959 413.681 127.959 414.071 128.35C414.462 128.74 414.462 129.374 414.071 129.764L407.707 136.128ZM406.293 25.8717C406.683 25.4812 407.317 25.4812 407.707 25.8717L414.071 32.2356C414.462 32.6262 414.462 33.2593 414.071 33.6499C413.681 34.0404 413.047 34.0404 412.657 33.6499L407 27.993L401.343 33.6499C400.953 34.0404 400.319 34.0404 399.929 33.6499C399.538 33.2593 399.538 32.6262 399.929 32.2356L406.293 25.8717ZM406 135.421V132.452H408V135.421H406ZM406 128.495V122.558H408V128.495H406ZM406 118.6V112.663H408V118.6H406ZM406 108.705V102.768H408V108.705H406ZM406 98.8104V92.8735H408V98.8104H406ZM406 88.9156V82.9788H408V88.9156H406ZM406 79.0209V73.0841H408V79.0209H406ZM406 69.1262V63.1893H408V69.1262H406ZM406 59.2314V53.2946H408V59.2314H406ZM406 49.3367V43.3998H408V49.3367H406ZM406 39.4419V33.5051H408V39.4419H406ZM406 29.5472V26.5788H408V29.5472H406Z" fill="#00986B"/>
<rect width="32" height="40" transform="translate(391 60)" fill="white"/>
<path d="M397.8 73.377C397.8 74.5254 397.542 75.4391 397.027 76.1182C396.517 76.7972 395.813 77.1367 394.915 77.1367C394.049 77.1367 393.375 76.8245 392.892 76.2002L392.81 77H391.306V66.5H392.967V70.3145C393.445 69.7493 394.09 69.4668 394.901 69.4668C395.804 69.4668 396.512 69.8018 397.027 70.4717C397.542 71.1416 397.8 72.0781 397.8 73.2812V73.377ZM396.139 73.2334C396.139 72.4313 395.997 71.8298 395.715 71.4287C395.432 71.0277 395.022 70.8271 394.484 70.8271C393.764 70.8271 393.258 71.1416 392.967 71.7705V74.8193C393.263 75.4619 393.773 75.7832 394.498 75.7832C395.018 75.7832 395.419 75.5895 395.701 75.2021C395.984 74.8148 396.13 74.2292 396.139 73.4453V73.2334ZM400.965 77H399.304V66.5H400.965V77ZM402.469 73.2334C402.469 72.5088 402.612 71.8571 402.899 71.2783C403.187 70.695 403.59 70.2484 404.109 69.9385C404.629 69.624 405.226 69.4668 405.9 69.4668C406.898 69.4668 407.707 69.7881 408.327 70.4307C408.951 71.0732 409.289 71.9255 409.339 72.9873L409.346 73.377C409.346 74.1061 409.204 74.7578 408.922 75.332C408.644 75.9062 408.243 76.3506 407.719 76.665C407.199 76.9795 406.598 77.1367 405.914 77.1367C404.87 77.1367 404.034 76.7904 403.405 76.0977C402.781 75.4004 402.469 74.473 402.469 73.3154V73.2334ZM404.13 73.377C404.13 74.138 404.287 74.735 404.602 75.168C404.916 75.5964 405.354 75.8105 405.914 75.8105C406.475 75.8105 406.91 75.5918 407.22 75.1543C407.534 74.7168 407.691 74.0765 407.691 73.2334C407.691 72.486 407.53 71.8936 407.206 71.4561C406.887 71.0186 406.452 70.7998 405.9 70.7998C405.358 70.7998 404.927 71.0163 404.608 71.4492C404.289 71.8776 404.13 72.5202 404.13 73.377ZM413.789 75.8105C414.204 75.8105 414.548 75.6898 414.821 75.4482C415.095 75.2067 415.241 74.9082 415.259 74.5527H416.824C416.806 75.013 416.662 75.4437 416.394 75.8447C416.125 76.2412 415.76 76.5557 415.3 76.7881C414.84 77.0205 414.343 77.1367 413.81 77.1367C412.775 77.1367 411.955 76.8018 411.349 76.1318C410.743 75.4619 410.439 74.5368 410.439 73.3564V73.1855C410.439 72.0599 410.74 71.1598 411.342 70.4854C411.943 69.8063 412.764 69.4668 413.803 69.4668C414.682 69.4668 415.398 69.7243 415.949 70.2393C416.505 70.7497 416.797 71.4219 416.824 72.2559H415.259C415.241 71.832 415.095 71.4834 414.821 71.21C414.552 70.9365 414.208 70.7998 413.789 70.7998C413.251 70.7998 412.837 70.9958 412.545 71.3877C412.253 71.7751 412.105 72.3652 412.101 73.1582V73.4248C412.101 74.2269 412.244 74.8262 412.531 75.2227C412.823 75.6146 413.242 75.8105 413.789 75.8105ZM420.481 73.8281L419.743 74.5869V77H418.082V66.5H419.743V72.5566L420.263 71.9072L422.307 69.6035H424.303L421.555 72.6865L424.597 77H422.676L420.481 73.8281ZM400.056 92C399.983 91.8587 399.919 91.6286 399.864 91.3096C399.336 91.861 398.688 92.1367 397.923 92.1367C397.18 92.1367 396.574 91.9248 396.104 91.501C395.635 91.0771 395.4 90.5531 395.4 89.9287C395.4 89.1403 395.692 88.5365 396.275 88.1172C396.863 87.6934 397.702 87.4814 398.791 87.4814H399.81V86.9961C399.81 86.6133 399.702 86.3079 399.488 86.0801C399.274 85.8477 398.948 85.7314 398.511 85.7314C398.132 85.7314 397.823 85.8271 397.581 86.0186C397.34 86.2054 397.219 86.4447 397.219 86.7363H395.558C395.558 86.3307 395.692 85.9525 395.961 85.6016C396.23 85.2461 396.594 84.9681 397.055 84.7676C397.52 84.5671 398.037 84.4668 398.606 84.4668C399.472 84.4668 400.163 84.6855 400.678 85.123C401.193 85.556 401.457 86.1667 401.471 86.9551V90.291C401.471 90.9564 401.564 91.4873 401.751 91.8838V92H400.056ZM398.23 90.8037C398.559 90.8037 398.866 90.724 399.153 90.5645C399.445 90.4049 399.664 90.1908 399.81 89.9219V88.5273H398.914C398.299 88.5273 397.836 88.6344 397.526 88.8486C397.216 89.0628 397.062 89.3659 397.062 89.7578C397.062 90.0768 397.166 90.332 397.376 90.5234C397.59 90.7103 397.875 90.8037 398.23 90.8037ZM405.866 87.0371L407.274 84.6035H409.12L406.857 88.2471L409.195 92H407.363L405.887 89.4707L404.417 92H402.571L404.909 88.2471L402.653 84.6035H404.485L405.866 87.0371ZM412.019 92H410.357V84.6035H412.019V92ZM410.255 82.6826C410.255 82.4274 410.335 82.2155 410.494 82.0469C410.658 81.8783 410.891 81.7939 411.191 81.7939C411.492 81.7939 411.725 81.8783 411.889 82.0469C412.053 82.2155 412.135 82.4274 412.135 82.6826C412.135 82.9333 412.053 83.1429 411.889 83.3115C411.725 83.4756 411.492 83.5576 411.191 83.5576C410.891 83.5576 410.658 83.4756 410.494 83.3115C410.335 83.1429 410.255 82.9333 410.255 82.6826ZM417.979 89.9902C417.979 89.694 417.856 89.4684 417.61 89.3135C417.369 89.1585 416.965 89.0218 416.4 88.9033C415.835 88.7848 415.364 88.6344 414.985 88.4521C414.156 88.0511 413.741 87.4701 413.741 86.709C413.741 86.071 414.01 85.5378 414.548 85.1094C415.086 84.681 415.769 84.4668 416.599 84.4668C417.483 84.4668 418.196 84.6855 418.738 85.123C419.285 85.5605 419.559 86.1279 419.559 86.8252H417.897C417.897 86.5062 417.779 86.2419 417.542 86.0322C417.305 85.818 416.991 85.7109 416.599 85.7109C416.234 85.7109 415.936 85.7952 415.703 85.9639C415.475 86.1325 415.361 86.3581 415.361 86.6406C415.361 86.8958 415.468 87.0941 415.683 87.2354C415.897 87.3766 416.33 87.5202 416.981 87.666C417.633 87.8073 418.144 87.9782 418.513 88.1787C418.886 88.3747 419.162 88.6117 419.34 88.8896C419.522 89.1676 419.613 89.5049 419.613 89.9014C419.613 90.5667 419.338 91.1068 418.786 91.5215C418.235 91.9316 417.512 92.1367 416.619 92.1367C416.013 92.1367 415.473 92.0273 414.999 91.8086C414.525 91.5898 414.156 91.2891 413.892 90.9062C413.627 90.5234 413.495 90.111 413.495 89.6689H415.108C415.131 90.0609 415.279 90.3639 415.553 90.5781C415.826 90.7878 416.188 90.8926 416.64 90.8926C417.077 90.8926 417.41 90.8105 417.638 90.6465C417.866 90.4779 417.979 90.2591 417.979 89.9902Z" fill="#00986B"/>
<path d="M389.854 153.707C390.244 153.317 390.244 152.683 389.854 152.293L383.49 145.929C383.099 145.538 382.466 145.538 382.075 145.929C381.685 146.319 381.685 146.953 382.075 147.343L387.732 153L382.075 158.657C381.685 159.047 381.685 159.681 382.075 160.071C382.466 160.462 383.099 160.462 383.49 160.071L389.854 153.707ZM228.145 152.293C227.754 152.683 227.754 153.317 228.145 153.707L234.509 160.071C234.899 160.462 235.532 160.462 235.923 160.071C236.313 159.681 236.313 159.047 235.923 158.657L230.266 153L235.923 147.343C236.313 146.953 236.313 146.319 235.923 145.929C235.532 145.538 234.899 145.538 234.509 145.929L228.145 152.293ZM389.146 152L386.141 152L386.141 154L389.146 154L389.146 152ZM382.134 152L376.123 152L376.123 154L382.134 154L382.134 152ZM372.115 152L366.104 152L366.104 154L372.115 154L372.115 152ZM362.097 152L356.086 152L356.086 154L362.097 154L362.097 152ZM352.078 152L346.067 152L346.067 154L352.078 154L352.078 152ZM342.06 152L336.049 152L336.049 154L342.06 154L342.06 152ZM332.041 152L326.03 152L326.03 154L332.041 154L332.041 152ZM322.023 152L316.012 152L316.012 154L322.023 154L322.023 152ZM312.005 152L305.994 152L305.994 154L312.005 154L312.005 152ZM301.986 152L295.975 152L295.975 154L301.986 154L301.986 152ZM291.968 152L285.957 152L285.957 154L291.968 154L291.968 152ZM281.949 152L275.938 152L275.938 154L281.949 154L281.949 152ZM271.931 152L265.92 152L265.92 154L271.931 154L271.931 152ZM261.913 152L255.901 152L255.901 154L261.913 154L261.913 152ZM251.894 152L245.883 152L245.883 154L251.894 154L251.894 152ZM241.876 152L235.865 152L235.865 154L241.876 154L241.876 152ZM231.857 152L228.852 152L228.852 154L231.857 154L231.857 152Z" fill="#1E73FF"/>
<rect width="70" height="18" transform="translate(274 144)" fill="white"/>
<path d="M280.734 158H279.073V150.604H280.734V158ZM278.971 148.683C278.971 148.427 279.05 148.215 279.21 148.047C279.374 147.878 279.606 147.794 279.907 147.794C280.208 147.794 280.44 147.878 280.604 148.047C280.769 148.215 280.851 148.427 280.851 148.683C280.851 148.933 280.769 149.143 280.604 149.312C280.44 149.476 280.208 149.558 279.907 149.558C279.606 149.558 279.374 149.476 279.21 149.312C279.05 149.143 278.971 148.933 278.971 148.683ZM284.091 150.604L284.139 151.458C284.686 150.797 285.403 150.467 286.292 150.467C287.832 150.467 288.616 151.349 288.644 153.112V158H286.982V153.208C286.982 152.739 286.88 152.392 286.675 152.169C286.474 151.941 286.144 151.827 285.684 151.827C285.014 151.827 284.515 152.13 284.187 152.736V158H282.525V150.604H284.091ZM292.109 158H290.448V147.5H292.109V158ZM295.691 158H294.03V150.604H295.691V158ZM293.928 148.683C293.928 148.427 294.007 148.215 294.167 148.047C294.331 147.878 294.563 147.794 294.864 147.794C295.165 147.794 295.397 147.878 295.562 148.047C295.726 148.215 295.808 148.427 295.808 148.683C295.808 148.933 295.726 149.143 295.562 149.312C295.397 149.476 295.165 149.558 294.864 149.558C294.563 149.558 294.331 149.476 294.167 149.312C294.007 149.143 293.928 148.933 293.928 148.683ZM299.048 150.604L299.096 151.458C299.643 150.797 300.36 150.467 301.249 150.467C302.789 150.467 303.573 151.349 303.601 153.112V158H301.939V153.208C301.939 152.739 301.837 152.392 301.632 152.169C301.431 151.941 301.101 151.827 300.641 151.827C299.971 151.827 299.472 152.13 299.144 152.736V158H297.482V150.604H299.048ZM308.557 158.137C307.504 158.137 306.649 157.806 305.993 157.146C305.341 156.48 305.016 155.596 305.016 154.493V154.288C305.016 153.55 305.157 152.891 305.439 152.312C305.727 151.729 306.128 151.276 306.643 150.952C307.158 150.629 307.732 150.467 308.365 150.467C309.372 150.467 310.149 150.788 310.696 151.431C311.248 152.073 311.523 152.982 311.523 154.158V154.828H306.69C306.741 155.439 306.943 155.922 307.299 156.277C307.659 156.633 308.11 156.811 308.652 156.811C309.413 156.811 310.033 156.503 310.512 155.888L311.407 156.742C311.111 157.184 310.715 157.528 310.218 157.774C309.726 158.016 309.172 158.137 308.557 158.137ZM308.358 151.8C307.903 151.8 307.534 151.959 307.251 152.278C306.973 152.597 306.795 153.042 306.718 153.611H309.883V153.488C309.846 152.932 309.698 152.513 309.438 152.23C309.179 151.943 308.819 151.8 308.358 151.8ZM320.725 158C320.652 157.859 320.588 157.629 320.533 157.31C320.005 157.861 319.357 158.137 318.592 158.137C317.849 158.137 317.243 157.925 316.773 157.501C316.304 157.077 316.069 156.553 316.069 155.929C316.069 155.14 316.361 154.536 316.944 154.117C317.532 153.693 318.371 153.481 319.46 153.481H320.479V152.996C320.479 152.613 320.371 152.308 320.157 152.08C319.943 151.848 319.617 151.731 319.18 151.731C318.801 151.731 318.492 151.827 318.25 152.019C318.008 152.205 317.888 152.445 317.888 152.736H316.227C316.227 152.331 316.361 151.952 316.63 151.602C316.899 151.246 317.263 150.968 317.724 150.768C318.188 150.567 318.706 150.467 319.275 150.467C320.141 150.467 320.832 150.686 321.347 151.123C321.862 151.556 322.126 152.167 322.14 152.955V156.291C322.14 156.956 322.233 157.487 322.42 157.884V158H320.725ZM318.899 156.804C319.228 156.804 319.535 156.724 319.822 156.564C320.114 156.405 320.333 156.191 320.479 155.922V154.527H319.583C318.968 154.527 318.505 154.634 318.195 154.849C317.885 155.063 317.73 155.366 317.73 155.758C317.73 156.077 317.835 156.332 318.045 156.523C318.259 156.71 318.544 156.804 318.899 156.804ZM326.535 153.037L327.943 150.604H329.789L327.526 154.247L329.864 158H328.032L326.556 155.471L325.086 158H323.24L325.578 154.247L323.322 150.604H325.154L326.535 153.037ZM332.688 158H331.026V150.604H332.688V158ZM330.924 148.683C330.924 148.427 331.004 148.215 331.163 148.047C331.327 147.878 331.56 147.794 331.86 147.794C332.161 147.794 332.394 147.878 332.558 148.047C332.722 148.215 332.804 148.427 332.804 148.683C332.804 148.933 332.722 149.143 332.558 149.312C332.394 149.476 332.161 149.558 331.86 149.558C331.56 149.558 331.327 149.476 331.163 149.312C331.004 149.143 330.924 148.933 330.924 148.683ZM338.648 155.99C338.648 155.694 338.525 155.468 338.279 155.313C338.038 155.159 337.634 155.022 337.069 154.903C336.504 154.785 336.033 154.634 335.654 154.452C334.825 154.051 334.41 153.47 334.41 152.709C334.41 152.071 334.679 151.538 335.217 151.109C335.755 150.681 336.438 150.467 337.268 150.467C338.152 150.467 338.865 150.686 339.407 151.123C339.954 151.561 340.228 152.128 340.228 152.825H338.566C338.566 152.506 338.448 152.242 338.211 152.032C337.974 151.818 337.66 151.711 337.268 151.711C336.903 151.711 336.604 151.795 336.372 151.964C336.144 152.132 336.03 152.358 336.03 152.641C336.03 152.896 336.137 153.094 336.352 153.235C336.566 153.377 336.999 153.52 337.65 153.666C338.302 153.807 338.812 153.978 339.182 154.179C339.555 154.375 339.831 154.612 340.009 154.89C340.191 155.168 340.282 155.505 340.282 155.901C340.282 156.567 340.007 157.107 339.455 157.521C338.904 157.932 338.181 158.137 337.288 158.137C336.682 158.137 336.142 158.027 335.668 157.809C335.194 157.59 334.825 157.289 334.561 156.906C334.296 156.523 334.164 156.111 334.164 155.669H335.777C335.8 156.061 335.948 156.364 336.222 156.578C336.495 156.788 336.857 156.893 337.309 156.893C337.746 156.893 338.079 156.811 338.307 156.646C338.535 156.478 338.648 156.259 338.648 155.99Z" fill="#1E73FF"/>
<g opacity="0.75">
<rect width="55" height="26" transform="translate(233 31)" fill="#1E73FF"/>
</g>
<g opacity="0.75">
<rect width="55" height="41" transform="translate(233 90)" fill="#1E73FF"/>
</g>
<g opacity="0.75">
<rect width="65" height="26" transform="translate(291 31)" fill="#1E73FF"/>
</g>
<g opacity="0.75">
<rect width="65" height="41" transform="translate(291 90)" fill="#1E73FF"/>
</g>
</svg>
