<svg width="640" height="448" viewBox="0 0 640 448" fill="none" xmlns="http://www.w3.org/2000/svg">
<path d="M101 18L81 6.45299V29.547L101 18ZM31 20H83V16H31V20Z" fill="#1E73FF"/>
<path d="M12 344L23.547 324L0.452992 324L12 344ZM10 274L10 326L14 326L14 274L10 274Z" fill="#1E73FF"/>
<path d="M212.09 11.4429C212.09 10.0483 212.416 8.93604 213.069 8.10596C213.728 7.27035 214.599 6.85254 215.684 6.85254C216.708 6.85254 217.513 7.20947 218.1 7.92334L218.191 7.01855H220.009V15.7261C220.009 16.9048 219.641 17.8345 218.905 18.5151C218.174 19.1958 217.187 19.5361 215.941 19.5361C215.283 19.5361 214.638 19.3978 214.007 19.1211C213.382 18.8499 212.906 18.493 212.58 18.0503L213.534 16.8384C214.154 17.5744 214.918 17.9424 215.825 17.9424C216.495 17.9424 217.023 17.7598 217.411 17.3945C217.798 17.0348 217.992 16.5036 217.992 15.8008V15.1948C217.411 15.8423 216.636 16.166 215.667 16.166C214.616 16.166 213.756 15.7482 213.086 14.9126C212.422 14.077 212.09 12.9204 212.09 11.4429ZM214.099 11.6172C214.099 12.5192 214.281 13.2303 214.646 13.7505C215.017 14.2651 215.529 14.5225 216.182 14.5225C216.996 14.5225 217.599 14.1738 217.992 13.4766V9.52539C217.61 8.84473 217.012 8.50439 216.199 8.50439C215.535 8.50439 215.017 8.76725 214.646 9.29297C214.281 9.81868 214.099 10.5934 214.099 11.6172ZM226.791 8.86133C226.525 8.81706 226.251 8.79492 225.969 8.79492C225.045 8.79492 224.422 9.14909 224.101 9.85742V16H222.084V7.01855H224.01L224.06 8.02295C224.547 7.24268 225.222 6.85254 226.085 6.85254C226.373 6.85254 226.611 6.89128 226.799 6.96875L226.791 8.86133ZM230.21 16H228.193V7.01855H230.21V16ZM228.069 4.68604C228.069 4.37614 228.166 4.11882 228.359 3.91406C228.559 3.70931 228.841 3.60693 229.206 3.60693C229.571 3.60693 229.854 3.70931 230.053 3.91406C230.252 4.11882 230.352 4.37614 230.352 4.68604C230.352 4.9904 230.252 5.24495 230.053 5.44971C229.854 5.64893 229.571 5.74854 229.206 5.74854C228.841 5.74854 228.559 5.64893 228.359 5.44971C228.166 5.24495 228.069 4.9904 228.069 4.68604ZM232.037 11.4429C232.037 10.0594 232.358 8.94987 233 8.11426C233.641 7.27311 234.502 6.85254 235.581 6.85254C236.533 6.85254 237.302 7.18457 237.889 7.84863V3.25H239.906V16H238.08L237.98 15.0703C237.377 15.8008 236.572 16.166 235.564 16.166C234.513 16.166 233.661 15.7427 233.008 14.896C232.36 14.0493 232.037 12.8983 232.037 11.4429ZM234.054 11.6172C234.054 12.5303 234.228 13.2441 234.577 13.7588C234.931 14.2679 235.432 14.5225 236.079 14.5225C236.904 14.5225 237.507 14.1545 237.889 13.4185V9.5835C237.518 8.8641 236.92 8.50439 236.096 8.50439C235.443 8.50439 234.939 8.76449 234.585 9.28467C234.231 9.79932 234.054 10.5768 234.054 11.6172ZM245.924 11.6753H241.566V10.0483H245.924V11.6753ZM252.955 16C252.866 15.8285 252.789 15.549 252.722 15.1616C252.08 15.8312 251.294 16.166 250.365 16.166C249.463 16.166 248.727 15.9087 248.157 15.394C247.587 14.8794 247.302 14.243 247.302 13.4849C247.302 12.5275 247.656 11.7943 248.364 11.2852C249.078 10.7705 250.096 10.5132 251.419 10.5132H252.656V9.92383C252.656 9.45898 252.526 9.08822 252.266 8.81152C252.006 8.5293 251.61 8.38818 251.079 8.38818C250.619 8.38818 250.243 8.50439 249.95 8.73682C249.656 8.9637 249.51 9.25423 249.51 9.6084H247.493C247.493 9.11589 247.656 8.65658 247.982 8.23047C248.309 7.79883 248.752 7.46126 249.311 7.21777C249.875 6.97428 250.503 6.85254 251.195 6.85254C252.246 6.85254 253.085 7.11816 253.71 7.64941C254.335 8.17513 254.656 8.91667 254.673 9.87402V13.9248C254.673 14.7327 254.786 15.3774 255.013 15.8589V16H252.955ZM250.738 14.5474C251.137 14.5474 251.51 14.4505 251.859 14.2568C252.213 14.0632 252.479 13.8031 252.656 13.4766V11.7832H251.568C250.821 11.7832 250.26 11.9132 249.883 12.1733C249.507 12.4334 249.319 12.8014 249.319 13.2773C249.319 13.6647 249.446 13.9746 249.701 14.207C249.961 14.4339 250.307 14.5474 250.738 14.5474ZM262.227 15.1201C261.634 15.8174 260.793 16.166 259.703 16.166C258.729 16.166 257.99 15.881 257.487 15.311C256.989 14.741 256.74 13.9165 256.74 12.8374V7.01855H258.757V12.8125C258.757 13.9525 259.23 14.5225 260.176 14.5225C261.156 14.5225 261.817 14.1711 262.16 13.4683V7.01855H264.177V16H262.276L262.227 15.1201ZM268.759 4.83545V7.01855H270.345V8.5127H268.759V13.5264C268.759 13.8695 268.826 14.1185 268.958 14.2734C269.097 14.4229 269.34 14.4976 269.689 14.4976C269.921 14.4976 270.157 14.4699 270.395 14.4146V15.9751C269.935 16.1024 269.493 16.166 269.066 16.166C267.517 16.166 266.742 15.311 266.742 13.6011V8.5127H265.265V7.01855H266.742V4.83545H268.759ZM271.266 11.4263C271.266 10.5464 271.44 9.75505 271.789 9.05225C272.138 8.34391 272.627 7.8016 273.258 7.42529C273.889 7.04346 274.614 6.85254 275.433 6.85254C276.645 6.85254 277.627 7.24268 278.38 8.02295C279.138 8.80322 279.548 9.83805 279.608 11.1274L279.617 11.6006C279.617 12.486 279.445 13.2773 279.102 13.9746C278.764 14.6719 278.278 15.2114 277.641 15.5933C277.01 15.9751 276.28 16.166 275.45 16.166C274.182 16.166 273.167 15.7454 272.403 14.9043C271.645 14.0576 271.266 12.9315 271.266 11.5259V11.4263ZM273.283 11.6006C273.283 12.5247 273.474 13.2497 273.856 13.7754C274.238 14.2956 274.769 14.5557 275.45 14.5557C276.13 14.5557 276.659 14.29 277.035 13.7588C277.417 13.2275 277.608 12.45 277.608 11.4263C277.608 10.5187 277.411 9.79932 277.019 9.26807C276.631 8.73682 276.103 8.47119 275.433 8.47119C274.775 8.47119 274.252 8.73405 273.864 9.25977C273.477 9.77995 273.283 10.5602 273.283 11.6006ZM285.236 11.6753H280.878V10.0483H285.236V11.6753ZM292.715 4.85205C292.151 4.77458 291.664 4.73584 291.254 4.73584C290.17 4.73584 289.627 5.24495 289.627 6.26318V7.01855H291.454V8.5127H289.627V16H287.61V8.5127H286.241V7.01855H287.61V6.21338C287.616 5.20068 287.915 4.42594 288.507 3.88916C289.104 3.34684 289.946 3.07568 291.03 3.07568C291.705 3.07568 292.939 3.2085 294.732 3.47412V16H292.715V4.85205ZM296.583 11.4263C296.583 10.5464 296.758 9.75505 297.106 9.05225C297.455 8.34391 297.945 7.8016 298.576 7.42529C299.207 7.04346 299.931 6.85254 300.75 6.85254C301.962 6.85254 302.945 7.24268 303.697 8.02295C304.455 8.80322 304.865 9.83805 304.926 11.1274L304.934 11.6006C304.934 12.486 304.763 13.2773 304.419 13.9746C304.082 14.6719 303.595 15.2114 302.958 15.5933C302.328 15.9751 301.597 16.166 300.767 16.166C299.5 16.166 298.484 15.7454 297.721 14.9043C296.963 14.0576 296.583 12.9315 296.583 11.5259V11.4263ZM298.601 11.6006C298.601 12.5247 298.792 13.2497 299.173 13.7754C299.555 14.2956 300.086 14.5557 300.767 14.5557C301.448 14.5557 301.976 14.29 302.353 13.7588C302.734 13.2275 302.925 12.45 302.925 11.4263C302.925 10.5187 302.729 9.79932 302.336 9.26807C301.949 8.73682 301.42 8.47119 300.75 8.47119C300.092 8.47119 299.569 8.73405 299.182 9.25977C298.794 9.77995 298.601 10.5602 298.601 11.6006ZM314.53 13.2192L315.958 7.01855H317.925L315.476 16H313.816L311.89 9.83252L309.998 16H308.337L305.88 7.01855H307.848L309.3 13.1528L311.143 7.01855H312.662L314.53 13.2192ZM320.49 13.875C320.866 13.875 321.157 13.9829 321.361 14.1987C321.566 14.409 321.668 14.6746 321.668 14.9956C321.668 15.311 321.566 15.5739 321.361 15.7842C321.157 15.9889 320.866 16.0913 320.49 16.0913C320.13 16.0913 319.845 15.9889 319.635 15.7842C319.424 15.5794 319.319 15.3166 319.319 14.9956C319.319 14.6746 319.422 14.409 319.626 14.1987C319.831 13.9829 320.119 13.875 320.49 13.875ZM320.49 6.82764C320.866 6.82764 321.157 6.93555 321.361 7.15137C321.566 7.36165 321.668 7.62728 321.668 7.94824C321.668 8.26367 321.566 8.52653 321.361 8.73682C321.157 8.94157 320.866 9.04395 320.49 9.04395C320.13 9.04395 319.845 8.94157 319.635 8.73682C319.424 8.53206 319.319 8.26921 319.319 7.94824C319.319 7.62728 319.422 7.36165 319.626 7.15137C319.831 6.93555 320.119 6.82764 320.49 6.82764ZM357.055 6.82764C357.431 6.82764 357.722 6.93555 357.926 7.15137C358.131 7.36165 358.233 7.62728 358.233 7.94824C358.233 8.26367 358.131 8.52653 357.926 8.73682C357.722 8.94157 357.431 9.04395 357.055 9.04395C356.695 9.04395 356.41 8.94157 356.2 8.73682C355.989 8.53206 355.884 8.26921 355.884 7.94824C355.884 7.62728 355.987 7.36165 356.191 7.15137C356.396 6.93555 356.684 6.82764 357.055 6.82764ZM356.449 18.7227L355.361 18.0752C355.682 17.5716 355.901 17.1317 356.017 16.7554C356.139 16.3846 356.202 16.0055 356.208 15.6182V14.0493H358.026L358.018 15.502C358.012 16.0885 357.863 16.6751 357.569 17.2617C357.282 17.8538 356.908 18.3408 356.449 18.7227ZM364.326 11.0859C364.326 9.80762 364.498 8.5957 364.841 7.4502C365.184 6.29915 365.688 5.27262 366.352 4.37061C367.016 3.46305 367.718 2.82666 368.46 2.46143L368.858 3.64014C368.078 4.23226 367.444 5.13704 366.958 6.35449C366.476 7.56641 366.213 8.9554 366.169 10.5215L366.161 11.2354C366.161 12.9121 366.396 14.409 366.866 15.7261C367.342 17.0376 368.006 18.0365 368.858 18.7227L368.46 19.8433C367.718 19.478 367.013 18.8389 366.343 17.9258C365.679 17.0182 365.176 15.9945 364.833 14.8545C364.495 13.709 364.326 12.4528 364.326 11.0859ZM369.846 11.4429C369.846 10.0594 370.167 8.94987 370.809 8.11426C371.451 7.27311 372.312 6.85254 373.391 6.85254C374.342 6.85254 375.112 7.18457 375.698 7.84863V3.25H377.715V16H375.889L375.79 15.0703C375.186 15.8008 374.381 16.166 373.374 16.166C372.323 16.166 371.47 15.7427 370.817 14.896C370.17 14.0493 369.846 12.8983 369.846 11.4429ZM371.863 11.6172C371.863 12.5303 372.038 13.2441 372.386 13.7588C372.74 14.2679 373.241 14.5225 373.889 14.5225C374.713 14.5225 375.316 14.1545 375.698 13.4185V9.5835C375.327 8.8641 374.73 8.50439 373.905 8.50439C373.252 8.50439 372.749 8.76449 372.395 9.28467C372.04 9.79932 371.863 10.5768 371.863 11.6172ZM383.775 16.166C382.497 16.166 381.459 15.7648 380.662 14.9624C379.871 14.1545 379.475 13.0809 379.475 11.7417V11.4927C379.475 10.5962 379.647 9.79655 379.99 9.09375C380.338 8.38542 380.825 7.8348 381.451 7.44189C382.076 7.04899 382.773 6.85254 383.542 6.85254C384.765 6.85254 385.709 7.24268 386.373 8.02295C387.043 8.80322 387.377 9.90723 387.377 11.335V12.1484H381.509C381.57 12.89 381.816 13.4766 382.248 13.9082C382.685 14.3398 383.233 14.5557 383.891 14.5557C384.815 14.5557 385.568 14.1821 386.149 13.4351L387.236 14.4727C386.877 15.0094 386.395 15.4272 385.792 15.7261C385.194 16.0194 384.522 16.166 383.775 16.166ZM383.534 8.47119C382.981 8.47119 382.533 8.66488 382.189 9.05225C381.852 9.43962 381.636 9.97917 381.542 10.6709H385.385V10.5215C385.341 9.84635 385.161 9.33724 384.846 8.99414C384.53 8.64551 384.093 8.47119 383.534 8.47119ZM389.66 16V8.5127H388.291V7.01855H389.66V6.19678C389.66 5.20068 389.937 4.43148 390.49 3.88916C391.044 3.34684 391.818 3.07568 392.814 3.07568C393.169 3.07568 393.545 3.12549 393.943 3.2251L393.894 4.80225C393.672 4.75798 393.415 4.73584 393.122 4.73584C392.159 4.73584 391.677 5.23112 391.677 6.22168V7.01855H393.503V8.5127H391.677V16H389.66ZM400.343 16C400.255 15.8285 400.177 15.549 400.111 15.1616C399.469 15.8312 398.683 16.166 397.753 16.166C396.851 16.166 396.115 15.9087 395.545 15.394C394.975 14.8794 394.69 14.243 394.69 13.4849C394.69 12.5275 395.045 11.7943 395.753 11.2852C396.467 10.7705 397.485 10.5132 398.808 10.5132H400.044V9.92383C400.044 9.45898 399.914 9.08822 399.654 8.81152C399.394 8.5293 398.999 8.38818 398.467 8.38818C398.008 8.38818 397.632 8.50439 397.338 8.73682C397.045 8.9637 396.898 9.25423 396.898 9.6084H394.881C394.881 9.11589 395.045 8.65658 395.371 8.23047C395.698 7.79883 396.14 7.46126 396.699 7.21777C397.264 6.97428 397.892 6.85254 398.583 6.85254C399.635 6.85254 400.473 7.11816 401.099 7.64941C401.724 8.17513 402.045 8.91667 402.062 9.87402V13.9248C402.062 14.7327 402.175 15.3774 402.402 15.8589V16H400.343ZM398.127 14.5474C398.525 14.5474 398.899 14.4505 399.248 14.2568C399.602 14.0632 399.867 13.8031 400.044 13.4766V11.7832H398.957C398.21 11.7832 397.648 11.9132 397.272 12.1733C396.896 12.4334 396.708 12.8014 396.708 13.2773C396.708 13.6647 396.835 13.9746 397.089 14.207C397.349 14.4339 397.695 14.5474 398.127 14.5474ZM409.615 15.1201C409.023 15.8174 408.182 16.166 407.092 16.166C406.118 16.166 405.379 15.881 404.875 15.311C404.377 14.741 404.128 13.9165 404.128 12.8374V7.01855H406.146V12.8125C406.146 13.9525 406.619 14.5225 407.565 14.5225C408.544 14.5225 409.206 14.1711 409.549 13.4683V7.01855H411.566V16H409.665L409.615 15.1201ZM415.766 16H413.749V3.25H415.766V16ZM420.498 4.83545V7.01855H422.083V8.5127H420.498V13.5264C420.498 13.8695 420.564 14.1185 420.697 14.2734C420.835 14.4229 421.079 14.4976 421.427 14.4976C421.66 14.4976 421.895 14.4699 422.133 14.4146V15.9751C421.674 16.1024 421.231 16.166 420.805 16.166C419.255 16.166 418.48 15.311 418.48 13.6011V8.5127H417.003V7.01855H418.48V4.83545H420.498ZM427.52 11.2188C427.52 12.4473 427.351 13.6343 427.014 14.7798C426.676 15.9198 426.164 16.9574 425.478 17.8926C424.792 18.8333 424.075 19.4836 423.328 19.8433L422.93 18.7227C423.76 18.0807 424.416 17.1012 424.897 15.7842C425.384 14.4616 425.627 12.9536 425.627 11.2603V11.0693C425.627 9.53092 425.417 8.13086 424.997 6.86914C424.576 5.60189 423.973 4.58643 423.187 3.82275L422.93 3.59033L423.328 2.46143C424.036 2.80452 424.723 3.41325 425.387 4.2876C426.051 5.16195 426.56 6.14144 426.914 7.22607C427.268 8.30518 427.467 9.42025 427.512 10.5713L427.52 11.2188Z" fill="#444444"/>
<path d="M332.725 8.86133C332.459 8.81706 332.186 8.79492 331.903 8.79492C330.979 8.79492 330.357 9.14909 330.036 9.85742V16H328.019V7.01855H329.944L329.994 8.02295C330.481 7.24268 331.156 6.85254 332.02 6.85254C332.307 6.85254 332.545 6.89128 332.733 6.96875L332.725 8.86133ZM333.323 11.4263C333.323 10.5464 333.497 9.75505 333.846 9.05225C334.194 8.34391 334.684 7.8016 335.315 7.42529C335.946 7.04346 336.671 6.85254 337.49 6.85254C338.702 6.85254 339.684 7.24268 340.437 8.02295C341.195 8.80322 341.604 9.83805 341.665 11.1274L341.673 11.6006C341.673 12.486 341.502 13.2773 341.159 13.9746C340.821 14.6719 340.334 15.2114 339.698 15.5933C339.067 15.9751 338.336 16.166 337.506 16.166C336.239 16.166 335.224 15.7454 334.46 14.9043C333.702 14.0576 333.323 12.9315 333.323 11.5259V11.4263ZM335.34 11.6006C335.34 12.5247 335.531 13.2497 335.913 13.7754C336.294 14.2956 336.826 14.5557 337.506 14.5557C338.187 14.5557 338.715 14.29 339.092 13.7588C339.474 13.2275 339.665 12.45 339.665 11.4263C339.665 10.5187 339.468 9.79932 339.075 9.26807C338.688 8.73682 338.159 8.47119 337.49 8.47119C336.831 8.47119 336.308 8.73405 335.921 9.25977C335.534 9.77995 335.34 10.5602 335.34 11.6006ZM351.269 13.2192L352.697 7.01855H354.664L352.215 16H350.555L348.629 9.83252L346.737 16H345.077L342.62 7.01855H344.587L346.04 13.1528L347.882 7.01855H349.401L351.269 13.2192Z" fill="#1E73FF"/>
<path d="M233.051 250.443C233.051 249.048 233.378 247.936 234.031 247.106C234.689 246.27 235.561 245.853 236.646 245.853C237.669 245.853 238.474 246.209 239.061 246.923L239.152 246.019H240.97V254.726C240.97 255.905 240.602 256.834 239.866 257.515C239.136 258.196 238.148 258.536 236.903 258.536C236.244 258.536 235.6 258.398 234.969 258.121C234.343 257.85 233.868 257.493 233.541 257.05L234.496 255.838C235.115 256.574 235.879 256.942 236.787 256.942C237.456 256.942 237.985 256.76 238.372 256.395C238.759 256.035 238.953 255.504 238.953 254.801V254.195C238.372 254.842 237.597 255.166 236.629 255.166C235.577 255.166 234.717 254.748 234.047 253.913C233.383 253.077 233.051 251.92 233.051 250.443ZM235.06 250.617C235.06 251.519 235.243 252.23 235.608 252.75C235.979 253.265 236.491 253.522 237.144 253.522C237.957 253.522 238.56 253.174 238.953 252.477V248.525C238.571 247.845 237.974 247.504 237.16 247.504C236.496 247.504 235.979 247.767 235.608 248.293C235.243 248.819 235.06 249.593 235.06 250.617ZM247.752 247.861C247.486 247.817 247.212 247.795 246.93 247.795C246.006 247.795 245.383 248.149 245.062 248.857V255H243.045V246.019H244.971L245.021 247.023C245.508 246.243 246.183 245.853 247.046 245.853C247.334 245.853 247.572 245.891 247.76 245.969L247.752 247.861ZM251.172 255H249.155V246.019H251.172V255ZM249.03 243.686C249.03 243.376 249.127 243.119 249.321 242.914C249.52 242.709 249.802 242.607 250.167 242.607C250.533 242.607 250.815 242.709 251.014 242.914C251.213 243.119 251.313 243.376 251.313 243.686C251.313 243.99 251.213 244.245 251.014 244.45C250.815 244.649 250.533 244.749 250.167 244.749C249.802 244.749 249.52 244.649 249.321 244.45C249.127 244.245 249.03 243.99 249.03 243.686ZM252.998 250.443C252.998 249.059 253.319 247.95 253.961 247.114C254.603 246.273 255.463 245.853 256.542 245.853C257.494 245.853 258.264 246.185 258.85 246.849V242.25H260.867V255H259.041L258.941 254.07C258.338 254.801 257.533 255.166 256.526 255.166C255.474 255.166 254.622 254.743 253.969 253.896C253.322 253.049 252.998 251.898 252.998 250.443ZM255.015 250.617C255.015 251.53 255.189 252.244 255.538 252.759C255.892 253.268 256.393 253.522 257.041 253.522C257.865 253.522 258.468 253.154 258.85 252.418V248.583C258.479 247.864 257.882 247.504 257.057 247.504C256.404 247.504 255.901 247.764 255.546 248.285C255.192 248.799 255.015 249.577 255.015 250.617ZM266.885 250.675H262.527V249.048H266.885V250.675ZM273.916 255C273.827 254.828 273.75 254.549 273.684 254.162C273.042 254.831 272.256 255.166 271.326 255.166C270.424 255.166 269.688 254.909 269.118 254.394C268.548 253.879 268.263 253.243 268.263 252.485C268.263 251.528 268.617 250.794 269.326 250.285C270.04 249.771 271.058 249.513 272.38 249.513H273.617V248.924C273.617 248.459 273.487 248.088 273.227 247.812C272.967 247.529 272.571 247.388 272.04 247.388C271.581 247.388 271.204 247.504 270.911 247.737C270.618 247.964 270.471 248.254 270.471 248.608H268.454C268.454 248.116 268.617 247.657 268.944 247.23C269.27 246.799 269.713 246.461 270.272 246.218C270.836 245.974 271.465 245.853 272.156 245.853C273.208 245.853 274.046 246.118 274.671 246.649C275.297 247.175 275.618 247.917 275.634 248.874V252.925C275.634 253.733 275.748 254.377 275.975 254.859V255H273.916ZM271.7 253.547C272.098 253.547 272.472 253.451 272.82 253.257C273.174 253.063 273.44 252.803 273.617 252.477V250.783H272.53C271.783 250.783 271.221 250.913 270.845 251.173C270.468 251.433 270.28 251.801 270.28 252.277C270.28 252.665 270.408 252.975 270.662 253.207C270.922 253.434 271.268 253.547 271.7 253.547ZM283.188 254.12C282.596 254.817 281.755 255.166 280.665 255.166C279.691 255.166 278.952 254.881 278.448 254.311C277.95 253.741 277.701 252.917 277.701 251.837V246.019H279.718V251.812C279.718 252.952 280.191 253.522 281.138 253.522C282.117 253.522 282.778 253.171 283.122 252.468V246.019H285.139V255H283.238L283.188 254.12ZM289.721 243.835V246.019H291.306V247.513H289.721V252.526C289.721 252.869 289.787 253.118 289.92 253.273C290.058 253.423 290.302 253.498 290.65 253.498C290.883 253.498 291.118 253.47 291.356 253.415V254.975C290.897 255.102 290.454 255.166 290.028 255.166C288.478 255.166 287.704 254.311 287.704 252.601V247.513H286.226V246.019H287.704V243.835H289.721ZM292.228 250.426C292.228 249.546 292.402 248.755 292.75 248.052C293.099 247.344 293.589 246.802 294.22 246.425C294.851 246.043 295.576 245.853 296.395 245.853C297.606 245.853 298.589 246.243 299.341 247.023C300.099 247.803 300.509 248.838 300.57 250.127L300.578 250.601C300.578 251.486 300.407 252.277 300.063 252.975C299.726 253.672 299.239 254.211 298.603 254.593C297.972 254.975 297.241 255.166 296.411 255.166C295.144 255.166 294.128 254.745 293.365 253.904C292.607 253.058 292.228 251.931 292.228 250.526V250.426ZM294.245 250.601C294.245 251.525 294.436 252.25 294.817 252.775C295.199 253.296 295.73 253.556 296.411 253.556C297.092 253.556 297.62 253.29 297.997 252.759C298.378 252.228 298.569 251.45 298.569 250.426C298.569 249.519 298.373 248.799 297.98 248.268C297.593 247.737 297.064 247.471 296.395 247.471C295.736 247.471 295.213 247.734 294.826 248.26C294.438 248.78 294.245 249.56 294.245 250.601ZM306.198 250.675H301.84V249.048H306.198V250.675ZM313.677 243.852C313.112 243.775 312.625 243.736 312.216 243.736C311.131 243.736 310.589 244.245 310.589 245.263V246.019H312.415V247.513H310.589V255H308.572V247.513H307.202V246.019H308.572V245.213C308.577 244.201 308.876 243.426 309.468 242.889C310.066 242.347 310.907 242.076 311.992 242.076C312.667 242.076 313.901 242.208 315.694 242.474V255H313.677V243.852ZM317.545 250.426C317.545 249.546 317.719 248.755 318.068 248.052C318.417 247.344 318.906 246.802 319.537 246.425C320.168 246.043 320.893 245.853 321.712 245.853C322.924 245.853 323.906 246.243 324.659 247.023C325.417 247.803 325.826 248.838 325.887 250.127L325.896 250.601C325.896 251.486 325.724 252.277 325.381 252.975C325.043 253.672 324.556 254.211 323.92 254.593C323.289 254.975 322.559 255.166 321.729 255.166C320.461 255.166 319.446 254.745 318.682 253.904C317.924 253.058 317.545 251.931 317.545 250.526V250.426ZM319.562 250.601C319.562 251.525 319.753 252.25 320.135 252.775C320.517 253.296 321.048 253.556 321.729 253.556C322.409 253.556 322.938 253.29 323.314 252.759C323.696 252.228 323.887 251.45 323.887 250.426C323.887 249.519 323.69 248.799 323.297 248.268C322.91 247.737 322.382 247.471 321.712 247.471C321.053 247.471 320.53 247.734 320.143 248.26C319.756 248.78 319.562 249.56 319.562 250.601ZM335.491 252.219L336.919 246.019H338.886L336.438 255H334.777L332.852 248.833L330.959 255H329.299L326.842 246.019H328.809L330.262 252.153L332.104 246.019H333.624L335.491 252.219ZM341.451 252.875C341.827 252.875 342.118 252.983 342.323 253.199C342.528 253.409 342.63 253.675 342.63 253.996C342.63 254.311 342.528 254.574 342.323 254.784C342.118 254.989 341.827 255.091 341.451 255.091C341.091 255.091 340.806 254.989 340.596 254.784C340.386 254.579 340.281 254.317 340.281 253.996C340.281 253.675 340.383 253.409 340.588 253.199C340.793 252.983 341.08 252.875 341.451 252.875ZM341.451 245.828C341.827 245.828 342.118 245.936 342.323 246.151C342.528 246.362 342.63 246.627 342.63 246.948C342.63 247.264 342.528 247.527 342.323 247.737C342.118 247.942 341.827 248.044 341.451 248.044C341.091 248.044 340.806 247.942 340.596 247.737C340.386 247.532 340.281 247.269 340.281 246.948C340.281 246.627 340.383 246.362 340.588 246.151C340.793 245.936 341.08 245.828 341.451 245.828ZM406.654 245.828C407.03 245.828 407.321 245.936 407.525 246.151C407.73 246.362 407.833 246.627 407.833 246.948C407.833 247.264 407.73 247.527 407.525 247.737C407.321 247.942 407.03 248.044 406.654 248.044C406.294 248.044 406.009 247.942 405.799 247.737C405.589 247.532 405.483 247.269 405.483 246.948C405.483 246.627 405.586 246.362 405.791 246.151C405.995 245.936 406.283 245.828 406.654 245.828ZM406.048 257.723L404.96 257.075C405.281 256.572 405.5 256.132 405.616 255.755C405.738 255.385 405.802 255.006 405.807 254.618V253.049H407.625L407.617 254.502C407.611 255.089 407.462 255.675 407.168 256.262C406.881 256.854 406.507 257.341 406.048 257.723Z" fill="#444444"/>
<path d="M352.674 253.556C353.177 253.556 353.595 253.409 353.927 253.116C354.259 252.822 354.436 252.46 354.458 252.028H356.359C356.337 252.587 356.163 253.11 355.836 253.597C355.51 254.079 355.067 254.46 354.508 254.743C353.949 255.025 353.346 255.166 352.699 255.166C351.443 255.166 350.446 254.759 349.71 253.946C348.974 253.132 348.606 252.009 348.606 250.576V250.368C348.606 249.001 348.972 247.908 349.702 247.089C350.433 246.265 351.429 245.853 352.69 245.853C353.758 245.853 354.627 246.165 355.297 246.791C355.972 247.41 356.326 248.227 356.359 249.239H354.458C354.436 248.725 354.259 248.301 353.927 247.969C353.601 247.637 353.183 247.471 352.674 247.471C352.021 247.471 351.517 247.709 351.163 248.185C350.809 248.655 350.629 249.372 350.624 250.335V250.659C350.624 251.633 350.798 252.36 351.146 252.842C351.501 253.318 352.01 253.556 352.674 253.556ZM357.505 250.426C357.505 249.546 357.679 248.755 358.028 248.052C358.376 247.344 358.866 246.802 359.497 246.425C360.128 246.043 360.853 245.853 361.672 245.853C362.884 245.853 363.866 246.243 364.619 247.023C365.377 247.803 365.786 248.838 365.847 250.127L365.855 250.601C365.855 251.486 365.684 252.277 365.341 252.975C365.003 253.672 364.516 254.211 363.88 254.593C363.249 254.975 362.519 255.166 361.688 255.166C360.421 255.166 359.406 254.745 358.642 253.904C357.884 253.058 357.505 251.931 357.505 250.526V250.426ZM359.522 250.601C359.522 251.525 359.713 252.25 360.095 252.775C360.477 253.296 361.008 253.556 361.688 253.556C362.369 253.556 362.898 253.29 363.274 252.759C363.656 252.228 363.847 251.45 363.847 250.426C363.847 249.519 363.65 248.799 363.257 248.268C362.87 247.737 362.341 247.471 361.672 247.471C361.013 247.471 360.49 247.734 360.103 248.26C359.716 248.78 359.522 249.56 359.522 250.601ZM369.707 255H367.69V242.25H369.707V255ZM377.352 254.12C376.76 254.817 375.919 255.166 374.829 255.166C373.855 255.166 373.116 254.881 372.612 254.311C372.114 253.741 371.865 252.917 371.865 251.837V246.019H373.882V251.812C373.882 252.952 374.355 253.522 375.302 253.522C376.281 253.522 376.943 253.171 377.286 252.468V246.019H379.303V255H377.402L377.352 254.12ZM383.254 246.019L383.312 246.957C383.943 246.221 384.806 245.853 385.902 245.853C387.103 245.853 387.924 246.312 388.367 247.23C389.02 246.312 389.939 245.853 391.123 245.853C392.114 245.853 392.85 246.126 393.331 246.674C393.818 247.222 394.067 248.03 394.078 249.098V255H392.061V249.156C392.061 248.586 391.937 248.168 391.688 247.903C391.438 247.637 391.026 247.504 390.451 247.504C389.991 247.504 389.615 247.629 389.322 247.878C389.034 248.121 388.832 248.442 388.716 248.841L388.724 255H386.707V249.09C386.679 248.033 386.14 247.504 385.088 247.504C384.28 247.504 383.708 247.834 383.37 248.492V255H381.353V246.019H383.254ZM398.021 246.019L398.079 247.056C398.743 246.254 399.615 245.853 400.694 245.853C402.564 245.853 403.516 246.923 403.549 249.065V255H401.532V249.181C401.532 248.611 401.408 248.191 401.159 247.919C400.915 247.643 400.514 247.504 399.955 247.504C399.142 247.504 398.536 247.872 398.137 248.608V255H396.12V246.019H398.021Z" fill="#1E73FF"/>
<rect width="578" height="174" transform="translate(31 35)" fill="#F7F7F7"/>
<path d="M68 202C68 203.105 67.1046 204 66 204L52 204C50.8954 204 50 203.105 50 202L50 192.814C50 192.283 50.2112 191.774 50.587 191.399L57.587 184.411C58.3678 183.631 59.6323 183.631 60.413 184.411L67.413 191.399C67.7888 191.774 68 192.283 68 192.814L68 202Z" fill="#DDDDDD"/>
<path d="M57.1133 196.947H54.0371V195.799H57.1133V196.947ZM58.5781 195.77L59.041 191.469H63.623V192.699H60.2246L59.9902 194.738C60.3848 194.512 60.8301 194.398 61.3262 194.398C62.1387 194.398 62.7695 194.658 63.2188 195.178C63.6719 195.697 63.8984 196.396 63.8984 197.275C63.8984 198.143 63.6484 198.834 63.1484 199.35C62.6484 199.861 61.9629 200.117 61.0918 200.117C60.3105 200.117 59.6621 199.896 59.1465 199.455C58.6348 199.01 58.3574 198.424 58.3145 197.697H59.6914C59.7461 198.111 59.8945 198.43 60.1367 198.652C60.3789 198.871 60.6953 198.98 61.0859 198.98C61.5234 198.98 61.8633 198.824 62.1055 198.512C62.3516 198.199 62.4746 197.773 62.4746 197.234C62.4746 196.715 62.3398 196.305 62.0703 196.004C61.8008 195.699 61.4297 195.547 60.957 195.547C60.6992 195.547 60.4805 195.582 60.3008 195.652C60.1211 195.719 59.9258 195.852 59.7148 196.051L58.5781 195.77Z" fill="white"/>
<path d="M197 202C197 203.105 196.105 204 195 204L181 204C179.895 204 179 203.105 179 202L179 192.814C179 192.283 179.211 191.774 179.587 191.399L186.587 184.411C187.368 183.631 188.632 183.631 189.413 184.411L196.413 191.399C196.789 191.774 197 192.283 197 192.814L197 202Z" fill="#DDDDDD"/>
<path d="M186.113 196.947H183.037V195.799H186.113V196.947ZM192.014 196.959H193.074V198.102H192.014V200H190.59V198.102H186.904L186.863 197.234L190.543 191.469H192.014V196.959ZM188.357 196.959H190.59V193.396L190.484 193.584L188.357 196.959Z" fill="white"/>
<path d="M329 202C329 203.105 328.105 204 327 204L313 204C311.895 204 311 203.105 311 202L311 192.814C311 192.283 311.211 191.774 311.587 191.399L318.587 184.411C319.368 183.631 320.632 183.631 321.413 184.411L328.413 191.399C328.789 191.774 329 192.283 329 192.814L329 202Z" fill="#DDDDDD"/>
<path d="M318.113 196.947H315.037V195.799H318.113V196.947ZM320.844 195.084H321.711C322.148 195.08 322.494 194.967 322.748 194.744C323.006 194.521 323.135 194.199 323.135 193.777C323.135 193.371 323.027 193.057 322.812 192.834C322.602 192.607 322.277 192.494 321.84 192.494C321.457 192.494 321.143 192.605 320.896 192.828C320.65 193.047 320.527 193.334 320.527 193.689H319.104C319.104 193.252 319.219 192.854 319.449 192.494C319.684 192.135 320.008 191.855 320.422 191.656C320.84 191.453 321.307 191.352 321.822 191.352C322.674 191.352 323.342 191.566 323.826 191.996C324.314 192.422 324.559 193.016 324.559 193.777C324.559 194.16 324.436 194.521 324.189 194.861C323.947 195.197 323.633 195.451 323.246 195.623C323.715 195.783 324.07 196.035 324.312 196.379C324.559 196.723 324.682 197.133 324.682 197.609C324.682 198.375 324.418 198.984 323.891 199.438C323.367 199.891 322.678 200.117 321.822 200.117C321.002 200.117 320.33 199.898 319.807 199.461C319.283 199.023 319.021 198.441 319.021 197.715H320.445C320.445 198.09 320.57 198.395 320.82 198.629C321.074 198.863 321.414 198.98 321.84 198.98C322.281 198.98 322.629 198.863 322.883 198.629C323.137 198.395 323.264 198.055 323.264 197.609C323.264 197.16 323.131 196.814 322.865 196.572C322.6 196.33 322.205 196.209 321.682 196.209H320.844V195.084Z" fill="white"/>
<path d="M461 202C461 203.105 460.105 204 459 204L445 204C443.895 204 443 203.105 443 202L443 192.814C443 192.283 443.211 191.774 443.587 191.399L450.587 184.411C451.368 183.631 452.632 183.631 453.413 184.411L460.413 191.399C460.789 191.774 461 192.283 461 192.814L461 202Z" fill="#DDDDDD"/>
<path d="M450.113 196.947H447.037V195.799H450.113V196.947ZM456.934 200H451.197V199.021L454.039 195.922C454.449 195.465 454.74 195.084 454.912 194.779C455.088 194.471 455.176 194.162 455.176 193.854C455.176 193.447 455.061 193.119 454.83 192.869C454.604 192.619 454.297 192.494 453.91 192.494C453.449 192.494 453.092 192.635 452.838 192.916C452.584 193.197 452.457 193.582 452.457 194.07H451.033C451.033 193.551 451.15 193.084 451.385 192.67C451.623 192.252 451.961 191.928 452.398 191.697C452.84 191.467 453.348 191.352 453.922 191.352C454.75 191.352 455.402 191.561 455.879 191.979C456.359 192.393 456.6 192.967 456.6 193.701C456.6 194.127 456.479 194.574 456.236 195.043C455.998 195.508 455.605 196.037 455.059 196.631L452.973 198.863H456.934V200Z" fill="white"/>
<path d="M590 202C590 203.105 589.105 204 588 204L574 204C572.895 204 572 203.105 572 202L572 192.814C572 192.283 572.211 191.774 572.587 191.399L579.587 184.411C580.368 183.631 581.632 183.631 582.413 184.411L589.413 191.399C589.789 191.774 590 192.283 590 192.814L590 202Z" fill="#DDDDDD"/>
<path d="M579.113 196.947H576.037V195.799H579.113V196.947ZM584.053 200H582.635V193.15L580.543 193.865V192.664L583.871 191.439H584.053V200Z" fill="white"/>
<path d="M50 42C50 40.8954 50.8954 40 52 40H66C67.1046 40 68 40.8954 68 42V51.1857C68 51.7167 67.7888 52.2259 67.413 52.6011L60.413 59.5894C59.6323 60.3688 58.3677 60.3688 57.587 59.5894L50.587 52.6011C50.2112 52.2259 50 51.7167 50 51.1857V42Z" fill="#CCCCCC"/>
<path d="M60.084 52H58.666V45.1504L56.5742 45.8652V44.6641L59.9023 43.4395H60.084V52Z" fill="white"/>
<path d="M179 42C179 40.8954 179.895 40 181 40H195C196.105 40 197 40.8954 197 42V51.1857C197 51.7167 196.789 52.2259 196.413 52.6011L189.413 59.5894C188.632 60.3688 187.368 60.3688 186.587 59.5894L179.587 52.6011C179.211 52.2259 179 51.7167 179 51.1857V42Z" fill="#CCCCCC"/>
<path d="M190.965 52H185.229V51.0215L188.07 47.9219C188.48 47.4648 188.771 47.084 188.943 46.7793C189.119 46.4707 189.207 46.1621 189.207 45.8535C189.207 45.4473 189.092 45.1191 188.861 44.8691C188.635 44.6191 188.328 44.4941 187.941 44.4941C187.48 44.4941 187.123 44.6348 186.869 44.916C186.615 45.1973 186.488 45.582 186.488 46.0703H185.064C185.064 45.5508 185.182 45.084 185.416 44.6699C185.654 44.252 185.992 43.9277 186.43 43.6973C186.871 43.4668 187.379 43.3516 187.953 43.3516C188.781 43.3516 189.434 43.5605 189.91 43.9785C190.391 44.3926 190.631 44.9668 190.631 45.7012C190.631 46.127 190.51 46.5742 190.268 47.043C190.029 47.5078 189.637 48.0371 189.09 48.6309L187.004 50.8633H190.965V52Z" fill="white"/>
<path d="M311 42C311 40.8954 311.895 40 313 40H327C328.105 40 329 40.8954 329 42V51.1857C329 51.7167 328.789 52.2259 328.413 52.6011L321.413 59.5894C320.632 60.3688 319.368 60.3688 318.587 59.5894L311.587 52.6011C311.211 52.2259 311 51.7167 311 51.1857V42Z" fill="#CCCCCC"/>
<path d="M318.875 47.084H319.742C320.18 47.0801 320.525 46.9668 320.779 46.7441C321.037 46.5215 321.166 46.1992 321.166 45.7773C321.166 45.3711 321.059 45.0566 320.844 44.834C320.633 44.6074 320.309 44.4941 319.871 44.4941C319.488 44.4941 319.174 44.6055 318.928 44.8281C318.682 45.0469 318.559 45.334 318.559 45.6895H317.135C317.135 45.252 317.25 44.8535 317.48 44.4941C317.715 44.1348 318.039 43.8555 318.453 43.6562C318.871 43.4531 319.338 43.3516 319.854 43.3516C320.705 43.3516 321.373 43.5664 321.857 43.9961C322.346 44.4219 322.59 45.0156 322.59 45.7773C322.59 46.1602 322.467 46.5215 322.221 46.8613C321.979 47.1973 321.664 47.4512 321.277 47.623C321.746 47.7832 322.102 48.0352 322.344 48.3789C322.59 48.7227 322.713 49.1328 322.713 49.6094C322.713 50.375 322.449 50.9844 321.922 51.4375C321.398 51.8906 320.709 52.1172 319.854 52.1172C319.033 52.1172 318.361 51.8984 317.838 51.4609C317.314 51.0234 317.053 50.4414 317.053 49.7148H318.477C318.477 50.0898 318.602 50.3945 318.852 50.6289C319.105 50.8633 319.445 50.9805 319.871 50.9805C320.312 50.9805 320.66 50.8633 320.914 50.6289C321.168 50.3945 321.295 50.0547 321.295 49.6094C321.295 49.1602 321.162 48.8145 320.896 48.5723C320.631 48.3301 320.236 48.209 319.713 48.209H318.875V47.084Z" fill="white"/>
<path d="M443 42C443 40.8954 443.895 40 445 40H459C460.105 40 461 40.8954 461 42V51.1857C461 51.7167 460.789 52.2259 460.413 52.6011L453.413 59.5894C452.632 60.3688 451.368 60.3688 450.587 59.5894L443.587 52.6011C443.211 52.2259 443 51.7167 443 51.1857V42Z" fill="#CCCCCC"/>
<path d="M454.045 48.959H455.105V50.1016H454.045V52H452.621V50.1016H448.936L448.895 49.2344L452.574 43.4688H454.045V48.959ZM450.389 48.959H452.621V45.3965L452.516 45.584L450.389 48.959Z" fill="white"/>
<path d="M572 42C572 40.8954 572.895 40 574 40H588C589.105 40 590 40.8954 590 42V51.1857C590 51.7167 589.789 52.2259 589.413 52.6011L582.413 59.5894C581.632 60.3688 580.368 60.3688 579.587 59.5894L572.587 52.6011C572.211 52.2259 572 51.7167 572 51.1857V42Z" fill="#CCCCCC"/>
<path d="M578.609 47.7695L579.072 43.4688H583.654V44.6992H580.256L580.021 46.7383C580.416 46.5117 580.861 46.3984 581.357 46.3984C582.17 46.3984 582.801 46.6582 583.25 47.1777C583.703 47.6973 583.93 48.3965 583.93 49.2754C583.93 50.1426 583.68 50.834 583.18 51.3496C582.68 51.8613 581.994 52.1172 581.123 52.1172C580.342 52.1172 579.693 51.8965 579.178 51.4551C578.666 51.0098 578.389 50.4238 578.346 49.6973H579.723C579.777 50.1113 579.926 50.4297 580.168 50.6523C580.41 50.8711 580.727 50.9805 581.117 50.9805C581.555 50.9805 581.895 50.8242 582.137 50.5117C582.383 50.1992 582.506 49.7734 582.506 49.2344C582.506 48.7148 582.371 48.3047 582.102 48.0039C581.832 47.6992 581.461 47.5469 580.988 47.5469C580.73 47.5469 580.512 47.582 580.332 47.6523C580.152 47.7188 579.957 47.8516 579.746 48.0508L578.609 47.7695Z" fill="white"/>
<path d="M38 72C36.8954 72 36 71.1046 36 70L36 56C36 54.8954 36.8954 54 38 54L47.1857 54C47.7167 54 48.2259 54.2112 48.6011 54.587L55.5894 61.587C56.3688 62.3677 56.3688 63.6323 55.5894 64.413L48.6011 71.413C48.2259 71.7888 47.7167 72 47.1857 72L38 72Z" fill="#CCCCCC"/>
<path d="M45.084 67H43.666V60.1504L41.5742 60.8652V59.6641L44.9023 58.4395H45.084V67Z" fill="white"/>
<path d="M38 131C36.8954 131 36 130.105 36 129L36 115C36 113.895 36.8954 113 38 113L47.1857 113C47.7167 113 48.2259 113.211 48.6011 113.587L55.5894 120.587C56.3688 121.368 56.3688 122.632 55.5894 123.413L48.6011 130.413C48.2259 130.789 47.7167 131 47.1857 131L38 131Z" fill="#CCCCCC"/>
<path d="M46.9648 126H41.2285V125.021L44.0703 121.922C44.4805 121.465 44.7715 121.084 44.9434 120.779C45.1191 120.471 45.207 120.162 45.207 119.854C45.207 119.447 45.0918 119.119 44.8613 118.869C44.6348 118.619 44.3281 118.494 43.9414 118.494C43.4805 118.494 43.123 118.635 42.8691 118.916C42.6152 119.197 42.4883 119.582 42.4883 120.07H41.0645C41.0645 119.551 41.1816 119.084 41.416 118.67C41.6543 118.252 41.9922 117.928 42.4297 117.697C42.8711 117.467 43.3789 117.352 43.9531 117.352C44.7812 117.352 45.4336 117.561 45.9102 117.979C46.3906 118.393 46.6309 118.967 46.6309 119.701C46.6309 120.127 46.5098 120.574 46.2676 121.043C46.0293 121.508 45.6367 122.037 45.0898 122.631L43.0039 124.863H46.9648V126Z" fill="white"/>
<path d="M38 190C36.8954 190 36 189.105 36 188L36 174C36 172.895 36.8954 172 38 172L47.1857 172C47.7167 172 48.2259 172.211 48.6011 172.587L55.5894 179.587C56.3688 180.368 56.3688 181.632 55.5894 182.413L48.6011 189.413C48.2259 189.789 47.7167 190 47.1857 190L38 190Z" fill="#CCCCCC"/>
<path d="M42.875 180.084H43.7422C44.1797 180.08 44.5254 179.967 44.7793 179.744C45.0371 179.521 45.166 179.199 45.166 178.777C45.166 178.371 45.0586 178.057 44.8438 177.834C44.6328 177.607 44.3086 177.494 43.8711 177.494C43.4883 177.494 43.1738 177.605 42.9277 177.828C42.6816 178.047 42.5586 178.334 42.5586 178.689H41.1348C41.1348 178.252 41.25 177.854 41.4805 177.494C41.7148 177.135 42.0391 176.855 42.4531 176.656C42.8711 176.453 43.3379 176.352 43.8535 176.352C44.7051 176.352 45.373 176.566 45.8574 176.996C46.3457 177.422 46.5898 178.016 46.5898 178.777C46.5898 179.16 46.4668 179.521 46.2207 179.861C45.9785 180.197 45.6641 180.451 45.2773 180.623C45.7461 180.783 46.1016 181.035 46.3438 181.379C46.5898 181.723 46.7129 182.133 46.7129 182.609C46.7129 183.375 46.4492 183.984 45.9219 184.438C45.3984 184.891 44.709 185.117 43.8535 185.117C43.0332 185.117 42.3613 184.898 41.8379 184.461C41.3145 184.023 41.0527 183.441 41.0527 182.715H42.4766C42.4766 183.09 42.6016 183.395 42.8516 183.629C43.1055 183.863 43.4453 183.98 43.8711 183.98C44.3125 183.98 44.6602 183.863 44.9141 183.629C45.168 183.395 45.2949 183.055 45.2949 182.609C45.2949 182.16 45.1621 181.814 44.8965 181.572C44.6309 181.33 44.2363 181.209 43.7129 181.209H42.875V180.084Z" fill="white"/>
<path d="M602 54C603.105 54 604 54.8954 604 56L604 70C604 71.1046 603.105 72 602 72L592.814 72C592.283 72 591.774 71.7888 591.399 71.413L584.411 64.413C583.631 63.6322 583.631 62.3677 584.411 61.587L591.399 54.587C591.774 54.2112 592.283 54 592.814 54L602 54Z" fill="#DDDDDD"/>
<path d="M594.113 63.9473H591.037V62.7988H594.113V63.9473ZM596.844 62.084H597.711C598.148 62.0801 598.494 61.9668 598.748 61.7441C599.006 61.5215 599.135 61.1992 599.135 60.7773C599.135 60.3711 599.027 60.0566 598.812 59.834C598.602 59.6074 598.277 59.4941 597.84 59.4941C597.457 59.4941 597.143 59.6055 596.896 59.8281C596.65 60.0469 596.527 60.334 596.527 60.6895H595.104C595.104 60.252 595.219 59.8535 595.449 59.4941C595.684 59.1348 596.008 58.8555 596.422 58.6562C596.84 58.4531 597.307 58.3516 597.822 58.3516C598.674 58.3516 599.342 58.5664 599.826 58.9961C600.314 59.4219 600.559 60.0156 600.559 60.7773C600.559 61.1602 600.436 61.5215 600.189 61.8613C599.947 62.1973 599.633 62.4512 599.246 62.623C599.715 62.7832 600.07 63.0352 600.312 63.3789C600.559 63.7227 600.682 64.1328 600.682 64.6094C600.682 65.375 600.418 65.9844 599.891 66.4375C599.367 66.8906 598.678 67.1172 597.822 67.1172C597.002 67.1172 596.33 66.8984 595.807 66.4609C595.283 66.0234 595.021 65.4414 595.021 64.7148H596.445C596.445 65.0898 596.57 65.3945 596.82 65.6289C597.074 65.8633 597.414 65.9805 597.84 65.9805C598.281 65.9805 598.629 65.8633 598.883 65.6289C599.137 65.3945 599.264 65.0547 599.264 64.6094C599.264 64.1602 599.131 63.8145 598.865 63.5723C598.6 63.3301 598.205 63.209 597.682 63.209H596.844V62.084Z" fill="white"/>
<path d="M602 113C603.105 113 604 113.895 604 115L604 129C604 130.105 603.105 131 602 131L592.814 131C592.283 131 591.774 130.789 591.399 130.413L584.411 123.413C583.631 122.632 583.631 121.368 584.411 120.587L591.399 113.587C591.774 113.211 592.283 113 592.814 113L602 113Z" fill="#DDDDDD"/>
<path d="M594.113 122.947H591.037V121.799H594.113V122.947ZM600.934 126H595.197V125.021L598.039 121.922C598.449 121.465 598.74 121.084 598.912 120.779C599.088 120.471 599.176 120.162 599.176 119.854C599.176 119.447 599.061 119.119 598.83 118.869C598.604 118.619 598.297 118.494 597.91 118.494C597.449 118.494 597.092 118.635 596.838 118.916C596.584 119.197 596.457 119.582 596.457 120.07H595.033C595.033 119.551 595.15 119.084 595.385 118.67C595.623 118.252 595.961 117.928 596.398 117.697C596.84 117.467 597.348 117.352 597.922 117.352C598.75 117.352 599.402 117.561 599.879 117.979C600.359 118.393 600.6 118.967 600.6 119.701C600.6 120.127 600.479 120.574 600.236 121.043C599.998 121.508 599.605 122.037 599.059 122.631L596.973 124.863H600.934V126Z" fill="white"/>
<path d="M602 172C603.105 172 604 172.895 604 174L604 188C604 189.105 603.105 190 602 190L592.814 190C592.283 190 591.774 189.789 591.399 189.413L584.411 182.413C583.631 181.632 583.631 180.368 584.411 179.587L591.399 172.587C591.774 172.211 592.283 172 592.814 172L602 172Z" fill="#DDDDDD"/>
<path d="M594.113 181.947H591.037V180.799H594.113V181.947ZM599.053 185H597.635V178.15L595.543 178.865V177.664L598.871 176.439H599.053V185Z" fill="white"/>
<rect x="59" y="63" width="522" height="118" fill="white"/>
<path d="M62 71C62 68.2386 64.2386 66 67 66H177C179.761 66 182 68.2386 182 71V111C182 113.761 179.761 116 177 116H67C64.2386 116 62 113.761 62 111V71Z" fill="#1E73FF"/>
<path d="M104.204 95.6667H102.424V87.7419H104.204V95.6667ZM102.314 85.6838C102.314 85.4104 102.4 85.1833 102.571 85.0027C102.747 84.822 102.996 84.7317 103.318 84.7317C103.64 84.7317 103.889 84.822 104.065 85.0027C104.241 85.1833 104.329 85.4104 104.329 85.6838C104.329 85.9524 104.241 86.177 104.065 86.3577C103.889 86.5334 103.64 86.6213 103.318 86.6213C102.996 86.6213 102.747 86.5334 102.571 86.3577C102.4 86.177 102.314 85.9524 102.314 85.6838ZM108.379 85.8157V87.7419H109.778V89.0603H108.379V93.4841C108.379 93.7869 108.438 94.0066 108.555 94.1433C108.677 94.2751 108.892 94.3411 109.199 94.3411C109.404 94.3411 109.612 94.3167 109.822 94.2678V95.6448C109.417 95.7571 109.026 95.8132 108.65 95.8132C107.283 95.8132 106.599 95.0588 106.599 93.55V89.0603H105.295V87.7419H106.599V85.8157H108.379ZM114.634 95.8132C113.506 95.8132 112.59 95.4592 111.887 94.7512C111.189 94.0383 110.84 93.0911 110.84 91.9094V91.6897C110.84 90.8987 110.991 90.1931 111.294 89.573C111.602 88.948 112.031 88.4622 112.583 88.1155C113.135 87.7688 113.75 87.5955 114.429 87.5955C115.508 87.5955 116.34 87.9397 116.926 88.6282C117.517 89.3167 117.812 90.2908 117.812 91.5505V92.2683H112.634C112.688 92.9226 112.905 93.4402 113.286 93.821C113.672 94.2019 114.155 94.3923 114.736 94.3923C115.552 94.3923 116.216 94.0627 116.729 93.4036L117.688 94.3191C117.371 94.7927 116.946 95.1614 116.414 95.425C115.886 95.6838 115.293 95.8132 114.634 95.8132ZM114.421 89.0237C113.933 89.0237 113.538 89.1946 113.235 89.5364C112.937 89.8782 112.747 90.3542 112.664 90.9646H116.055V90.8328C116.016 90.2371 115.857 89.7878 115.579 89.4851C115.3 89.1775 114.915 89.0237 114.421 89.0237ZM120.874 87.7419L120.925 88.5696C121.482 87.9202 122.244 87.5955 123.21 87.5955C124.27 87.5955 124.995 88.0007 125.386 88.8113C125.962 88.0007 126.772 87.5955 127.817 87.5955C128.691 87.5955 129.341 87.8372 129.766 88.3206C130.195 88.804 130.415 89.5168 130.425 90.4592V95.6667H128.645V90.5105C128.645 90.0076 128.535 89.6389 128.315 89.4045C128.096 89.1702 127.732 89.053 127.224 89.053C126.819 89.053 126.487 89.1628 126.228 89.3826C125.974 89.5974 125.796 89.8806 125.693 90.2322L125.701 95.6667H123.921V90.4519C123.896 89.5193 123.42 89.053 122.493 89.053C121.78 89.053 121.274 89.3435 120.977 89.9246V95.6667H119.197V87.7419H120.874ZM140.693 95.6667H138.921V87.1047L136.306 87.9983V86.4968L140.466 84.9661H140.693V95.6667Z" fill="white"/>
<path d="M194 71C194 68.2386 196.239 66 199 66H309C311.761 66 314 68.2386 314 71V111C314 113.761 311.761 116 309 116H199C196.239 116 194 113.761 194 111V71Z" fill="#1E73FF"/>
<path d="M236.204 95.6667H234.424V87.7419H236.204V95.6667ZM234.314 85.6838C234.314 85.4104 234.4 85.1833 234.571 85.0027C234.747 84.822 234.996 84.7317 235.318 84.7317C235.64 84.7317 235.889 84.822 236.065 85.0027C236.241 85.1833 236.329 85.4104 236.329 85.6838C236.329 85.9524 236.241 86.177 236.065 86.3577C235.889 86.5334 235.64 86.6213 235.318 86.6213C234.996 86.6213 234.747 86.5334 234.571 86.3577C234.4 86.177 234.314 85.9524 234.314 85.6838ZM240.379 85.8157V87.7419H241.778V89.0603H240.379V93.4841C240.379 93.7869 240.438 94.0066 240.555 94.1433C240.677 94.2751 240.892 94.3411 241.199 94.3411C241.404 94.3411 241.612 94.3167 241.822 94.2678V95.6448C241.417 95.7571 241.026 95.8132 240.65 95.8132C239.283 95.8132 238.599 95.0588 238.599 93.55V89.0603H237.295V87.7419H238.599V85.8157H240.379ZM246.634 95.8132C245.506 95.8132 244.59 95.4592 243.887 94.7512C243.189 94.0383 242.84 93.0911 242.84 91.9094V91.6897C242.84 90.8987 242.991 90.1931 243.294 89.573C243.602 88.948 244.031 88.4622 244.583 88.1155C245.135 87.7688 245.75 87.5955 246.429 87.5955C247.508 87.5955 248.34 87.9397 248.926 88.6282C249.517 89.3167 249.812 90.2908 249.812 91.5505V92.2683H244.634C244.688 92.9226 244.905 93.4402 245.286 93.821C245.672 94.2019 246.155 94.3923 246.736 94.3923C247.552 94.3923 248.216 94.0627 248.729 93.4036L249.688 94.3191C249.371 94.7927 248.946 95.1614 248.414 95.425C247.886 95.6838 247.293 95.8132 246.634 95.8132ZM246.421 89.0237C245.933 89.0237 245.538 89.1946 245.235 89.5364C244.937 89.8782 244.747 90.3542 244.664 90.9646H248.055V90.8328C248.016 90.2371 247.857 89.7878 247.579 89.4851C247.3 89.1775 246.915 89.0237 246.421 89.0237ZM252.874 87.7419L252.925 88.5696C253.482 87.9202 254.244 87.5955 255.21 87.5955C256.27 87.5955 256.995 88.0007 257.386 88.8113C257.962 88.0007 258.772 87.5955 259.817 87.5955C260.691 87.5955 261.341 87.8372 261.766 88.3206C262.195 88.804 262.415 89.5168 262.425 90.4592V95.6667H260.645V90.5105C260.645 90.0076 260.535 89.6389 260.315 89.4045C260.096 89.1702 259.732 89.053 259.224 89.053C258.819 89.053 258.487 89.1628 258.228 89.3826C257.974 89.5974 257.796 89.8806 257.693 90.2322L257.701 95.6667H255.921V90.4519C255.896 89.5193 255.42 89.053 254.493 89.053C253.78 89.053 253.274 89.3435 252.977 89.9246V95.6667H251.197V87.7419H252.874ZM275.044 95.6667H267.874V94.4436L271.426 90.5691C271.939 89.9978 272.303 89.5217 272.518 89.1409C272.737 88.7551 272.847 88.3694 272.847 87.9836C272.847 87.4758 272.703 87.0657 272.415 86.7532C272.132 86.4407 271.749 86.2844 271.265 86.2844C270.689 86.2844 270.242 86.4602 269.925 86.8118C269.607 87.1633 269.449 87.6443 269.449 88.2546H267.669C267.669 87.6052 267.815 87.0217 268.108 86.5042C268.406 85.9817 268.829 85.5764 269.375 85.2883C269.927 85.0002 270.562 84.8562 271.28 84.8562C272.315 84.8562 273.13 85.1174 273.726 85.6399C274.327 86.1575 274.627 86.8752 274.627 87.7932C274.627 88.3254 274.476 88.8845 274.173 89.4705C273.875 90.0515 273.384 90.7131 272.701 91.4553L270.093 94.2458H275.044V95.6667Z" fill="white"/>
<path d="M326 71C326 68.2386 328.239 66 331 66H441C443.761 66 446 68.2386 446 71V111C446 113.761 443.761 116 441 116H331C328.239 116 326 113.761 326 111V71Z" fill="#1E73FF"/>
<path d="M368.204 95.6667H366.424V87.7419H368.204V95.6667ZM366.314 85.6838C366.314 85.4104 366.4 85.1833 366.571 85.0027C366.747 84.822 366.996 84.7317 367.318 84.7317C367.64 84.7317 367.889 84.822 368.065 85.0027C368.241 85.1833 368.329 85.4104 368.329 85.6838C368.329 85.9524 368.241 86.177 368.065 86.3577C367.889 86.5334 367.64 86.6213 367.318 86.6213C366.996 86.6213 366.747 86.5334 366.571 86.3577C366.4 86.177 366.314 85.9524 366.314 85.6838ZM372.379 85.8157V87.7419H373.778V89.0603H372.379V93.4841C372.379 93.7869 372.438 94.0066 372.555 94.1433C372.677 94.2751 372.892 94.3411 373.199 94.3411C373.404 94.3411 373.612 94.3167 373.822 94.2678V95.6448C373.417 95.7571 373.026 95.8132 372.65 95.8132C371.283 95.8132 370.599 95.0588 370.599 93.55V89.0603H369.295V87.7419H370.599V85.8157H372.379ZM378.634 95.8132C377.506 95.8132 376.59 95.4592 375.887 94.7512C375.189 94.0383 374.84 93.0911 374.84 91.9094V91.6897C374.84 90.8987 374.991 90.1931 375.294 89.573C375.602 88.948 376.031 88.4622 376.583 88.1155C377.135 87.7688 377.75 87.5955 378.429 87.5955C379.508 87.5955 380.34 87.9397 380.926 88.6282C381.517 89.3167 381.812 90.2908 381.812 91.5505V92.2683H376.634C376.688 92.9226 376.905 93.4402 377.286 93.821C377.672 94.2019 378.155 94.3923 378.736 94.3923C379.552 94.3923 380.216 94.0627 380.729 93.4036L381.688 94.3191C381.371 94.7927 380.946 95.1614 380.414 95.425C379.886 95.6838 379.293 95.8132 378.634 95.8132ZM378.421 89.0237C377.933 89.0237 377.538 89.1946 377.235 89.5364C376.937 89.8782 376.747 90.3542 376.664 90.9646H380.055V90.8328C380.016 90.2371 379.857 89.7878 379.579 89.4851C379.3 89.1775 378.915 89.0237 378.421 89.0237ZM384.874 87.7419L384.925 88.5696C385.482 87.9202 386.244 87.5955 387.21 87.5955C388.27 87.5955 388.995 88.0007 389.386 88.8113C389.962 88.0007 390.772 87.5955 391.817 87.5955C392.691 87.5955 393.341 87.8372 393.766 88.3206C394.195 88.804 394.415 89.5168 394.425 90.4592V95.6667H392.645V90.5105C392.645 90.0076 392.535 89.6389 392.315 89.4045C392.096 89.1702 391.732 89.053 391.224 89.053C390.819 89.053 390.487 89.1628 390.228 89.3826C389.974 89.5974 389.796 89.8806 389.693 90.2322L389.701 95.6667H387.921V90.4519C387.896 89.5193 387.42 89.053 386.493 89.053C385.78 89.053 385.274 89.3435 384.977 89.9246V95.6667H383.197V87.7419H384.874ZM401.932 89.5217H403.016C403.563 89.5168 403.995 89.3752 404.312 89.0969C404.635 88.8186 404.796 88.4158 404.796 87.8884C404.796 87.3806 404.662 86.9875 404.393 86.7092C404.129 86.426 403.724 86.2844 403.177 86.2844C402.699 86.2844 402.306 86.4236 401.998 86.7019C401.69 86.9753 401.537 87.3342 401.537 87.7786H399.757C399.757 87.2317 399.901 86.7336 400.189 86.2844C400.482 85.8352 400.887 85.4861 401.405 85.2371C401.927 84.9832 402.511 84.8562 403.155 84.8562C404.22 84.8562 405.055 85.1248 405.66 85.6619C406.271 86.1941 406.576 86.9363 406.576 87.8884C406.576 88.3669 406.422 88.8186 406.114 89.2434C405.812 89.6633 405.418 89.9807 404.935 90.1956C405.521 90.3958 405.965 90.7107 406.268 91.1404C406.576 91.5701 406.729 92.0828 406.729 92.6785C406.729 93.6355 406.4 94.3972 405.741 94.9636C405.086 95.53 404.225 95.8132 403.155 95.8132C402.13 95.8132 401.29 95.5398 400.636 94.9929C399.981 94.446 399.654 93.7185 399.654 92.8103H401.434C401.434 93.2791 401.59 93.6599 401.903 93.9529C402.22 94.2458 402.645 94.3923 403.177 94.3923C403.729 94.3923 404.164 94.2458 404.481 93.9529C404.798 93.6599 404.957 93.2351 404.957 92.6785C404.957 92.1169 404.791 91.6848 404.459 91.3821C404.127 91.0793 403.634 90.928 402.979 90.928H401.932V89.5217Z" fill="white"/>
<path d="M458 71C458 68.2386 460.239 66 463 66H573C575.761 66 578 68.2386 578 71V111C578 113.761 575.761 116 573 116H463C460.239 116 458 113.761 458 111V71Z" fill="#1E73FF"/>
<path d="M500.204 95.6667H498.424V87.7419H500.204V95.6667ZM498.314 85.6838C498.314 85.4104 498.4 85.1833 498.571 85.0027C498.747 84.822 498.996 84.7317 499.318 84.7317C499.64 84.7317 499.889 84.822 500.065 85.0027C500.241 85.1833 500.329 85.4104 500.329 85.6838C500.329 85.9524 500.241 86.177 500.065 86.3577C499.889 86.5334 499.64 86.6213 499.318 86.6213C498.996 86.6213 498.747 86.5334 498.571 86.3577C498.4 86.177 498.314 85.9524 498.314 85.6838ZM504.379 85.8157V87.7419H505.778V89.0603H504.379V93.4841C504.379 93.7869 504.438 94.0066 504.555 94.1433C504.677 94.2751 504.892 94.3411 505.199 94.3411C505.404 94.3411 505.612 94.3167 505.822 94.2678V95.6448C505.417 95.7571 505.026 95.8132 504.65 95.8132C503.283 95.8132 502.599 95.0588 502.599 93.55V89.0603H501.295V87.7419H502.599V85.8157H504.379ZM510.634 95.8132C509.506 95.8132 508.59 95.4592 507.887 94.7512C507.189 94.0383 506.84 93.0911 506.84 91.9094V91.6897C506.84 90.8987 506.991 90.1931 507.294 89.573C507.602 88.948 508.031 88.4622 508.583 88.1155C509.135 87.7688 509.75 87.5955 510.429 87.5955C511.508 87.5955 512.34 87.9397 512.926 88.6282C513.517 89.3167 513.812 90.2908 513.812 91.5505V92.2683H508.634C508.688 92.9226 508.905 93.4402 509.286 93.821C509.672 94.2019 510.155 94.3923 510.736 94.3923C511.552 94.3923 512.216 94.0627 512.729 93.4036L513.688 94.3191C513.371 94.7927 512.946 95.1614 512.414 95.425C511.886 95.6838 511.293 95.8132 510.634 95.8132ZM510.421 89.0237C509.933 89.0237 509.538 89.1946 509.235 89.5364C508.937 89.8782 508.747 90.3542 508.664 90.9646H512.055V90.8328C512.016 90.2371 511.857 89.7878 511.579 89.4851C511.3 89.1775 510.915 89.0237 510.421 89.0237ZM516.874 87.7419L516.925 88.5696C517.482 87.9202 518.244 87.5955 519.21 87.5955C520.27 87.5955 520.995 88.0007 521.386 88.8113C521.962 88.0007 522.772 87.5955 523.817 87.5955C524.691 87.5955 525.341 87.8372 525.766 88.3206C526.195 88.804 526.415 89.5168 526.425 90.4592V95.6667H524.645V90.5105C524.645 90.0076 524.535 89.6389 524.315 89.4045C524.096 89.1702 523.732 89.053 523.224 89.053C522.819 89.053 522.487 89.1628 522.228 89.3826C521.974 89.5974 521.796 89.8806 521.693 90.2322L521.701 95.6667H519.921V90.4519C519.896 89.5193 519.42 89.053 518.493 89.053C517.78 89.053 517.274 89.3435 516.977 89.9246V95.6667H515.197V87.7419H516.874ZM537.895 91.8655H539.22V93.2937H537.895V95.6667H536.115V93.2937H531.508L531.457 92.2097L536.056 85.0027H537.895V91.8655ZM533.324 91.8655H536.115V87.4124L535.983 87.6467L533.324 91.8655Z" fill="white"/>
<path d="M62 133C62 130.239 64.2386 128 67 128H177C179.761 128 182 130.239 182 133V173C182 175.761 179.761 178 177 178H67C64.2386 178 62 175.761 62 173V133Z" fill="#1E73FF"/>
<path d="M104.204 157.667H102.424V149.742H104.204V157.667ZM102.314 147.684C102.314 147.41 102.4 147.183 102.571 147.003C102.747 146.822 102.996 146.732 103.318 146.732C103.64 146.732 103.889 146.822 104.065 147.003C104.241 147.183 104.329 147.41 104.329 147.684C104.329 147.952 104.241 148.177 104.065 148.358C103.889 148.533 103.64 148.621 103.318 148.621C102.996 148.621 102.747 148.533 102.571 148.358C102.4 148.177 102.314 147.952 102.314 147.684ZM108.379 147.816V149.742H109.778V151.06H108.379V155.484C108.379 155.787 108.438 156.007 108.555 156.143C108.677 156.275 108.892 156.341 109.199 156.341C109.404 156.341 109.612 156.317 109.822 156.268V157.645C109.417 157.757 109.026 157.813 108.65 157.813C107.283 157.813 106.599 157.059 106.599 155.55V151.06H105.295V149.742H106.599V147.816H108.379ZM114.634 157.813C113.506 157.813 112.59 157.459 111.887 156.751C111.189 156.038 110.84 155.091 110.84 153.909V153.69C110.84 152.899 110.991 152.193 111.294 151.573C111.602 150.948 112.031 150.462 112.583 150.115C113.135 149.769 113.75 149.595 114.429 149.595C115.508 149.595 116.34 149.94 116.926 150.628C117.517 151.317 117.812 152.291 117.812 153.551V154.268H112.634C112.688 154.923 112.905 155.44 113.286 155.821C113.672 156.202 114.155 156.392 114.736 156.392C115.552 156.392 116.216 156.063 116.729 155.404L117.688 156.319C117.371 156.793 116.946 157.161 116.414 157.425C115.886 157.684 115.293 157.813 114.634 157.813ZM114.421 151.024C113.933 151.024 113.538 151.195 113.235 151.536C112.937 151.878 112.747 152.354 112.664 152.965H116.055V152.833C116.016 152.237 115.857 151.788 115.579 151.485C115.3 151.177 114.915 151.024 114.421 151.024ZM120.874 149.742L120.925 150.57C121.482 149.92 122.244 149.595 123.21 149.595C124.27 149.595 124.995 150.001 125.386 150.811C125.962 150.001 126.772 149.595 127.817 149.595C128.691 149.595 129.341 149.837 129.766 150.321C130.195 150.804 130.415 151.517 130.425 152.459V157.667H128.645V152.51C128.645 152.008 128.535 151.639 128.315 151.405C128.096 151.17 127.732 151.053 127.224 151.053C126.819 151.053 126.487 151.163 126.228 151.383C125.974 151.597 125.796 151.881 125.693 152.232L125.701 157.667H123.921V152.452C123.896 151.519 123.42 151.053 122.493 151.053C121.78 151.053 121.274 151.344 120.977 151.925V157.667H119.197V149.742H120.874ZM136.35 152.379L136.929 147.003H142.656V148.541H138.408L138.115 151.09C138.608 150.806 139.165 150.665 139.785 150.665C140.801 150.665 141.589 150.99 142.151 151.639C142.717 152.288 143 153.162 143 154.261C143 155.345 142.688 156.209 142.063 156.854C141.438 157.493 140.581 157.813 139.492 157.813C138.516 157.813 137.705 157.537 137.061 156.986C136.421 156.429 136.074 155.697 136.021 154.788H137.742C137.81 155.306 137.996 155.704 138.298 155.982C138.601 156.256 138.997 156.392 139.485 156.392C140.032 156.392 140.457 156.197 140.759 155.806C141.067 155.416 141.221 154.884 141.221 154.21C141.221 153.56 141.052 153.048 140.715 152.672C140.378 152.291 139.915 152.1 139.324 152.1C139.001 152.1 138.728 152.144 138.503 152.232C138.279 152.315 138.035 152.481 137.771 152.73L136.35 152.379Z" fill="white"/>
<path d="M194 133C194 130.239 196.239 128 199 128H309C311.761 128 314 130.239 314 133V173C314 175.761 311.761 178 309 178H199C196.239 178 194 175.761 194 173V133Z" fill="#1E73FF"/>
<path d="M236.204 157.667H234.424V149.742H236.204V157.667ZM234.314 147.684C234.314 147.41 234.4 147.183 234.571 147.003C234.747 146.822 234.996 146.732 235.318 146.732C235.64 146.732 235.889 146.822 236.065 147.003C236.241 147.183 236.329 147.41 236.329 147.684C236.329 147.952 236.241 148.177 236.065 148.358C235.889 148.533 235.64 148.621 235.318 148.621C234.996 148.621 234.747 148.533 234.571 148.358C234.4 148.177 234.314 147.952 234.314 147.684ZM240.379 147.816V149.742H241.778V151.06H240.379V155.484C240.379 155.787 240.438 156.007 240.555 156.143C240.677 156.275 240.892 156.341 241.199 156.341C241.404 156.341 241.612 156.317 241.822 156.268V157.645C241.417 157.757 241.026 157.813 240.65 157.813C239.283 157.813 238.599 157.059 238.599 155.55V151.06H237.295V149.742H238.599V147.816H240.379ZM246.634 157.813C245.506 157.813 244.59 157.459 243.887 156.751C243.189 156.038 242.84 155.091 242.84 153.909V153.69C242.84 152.899 242.991 152.193 243.294 151.573C243.602 150.948 244.031 150.462 244.583 150.115C245.135 149.769 245.75 149.595 246.429 149.595C247.508 149.595 248.34 149.94 248.926 150.628C249.517 151.317 249.812 152.291 249.812 153.551V154.268H244.634C244.688 154.923 244.905 155.44 245.286 155.821C245.672 156.202 246.155 156.392 246.736 156.392C247.552 156.392 248.216 156.063 248.729 155.404L249.688 156.319C249.371 156.793 248.946 157.161 248.414 157.425C247.886 157.684 247.293 157.813 246.634 157.813ZM246.421 151.024C245.933 151.024 245.538 151.195 245.235 151.536C244.937 151.878 244.747 152.354 244.664 152.965H248.055V152.833C248.016 152.237 247.857 151.788 247.579 151.485C247.3 151.177 246.915 151.024 246.421 151.024ZM252.874 149.742L252.925 150.57C253.482 149.92 254.244 149.595 255.21 149.595C256.27 149.595 256.995 150.001 257.386 150.811C257.962 150.001 258.772 149.595 259.817 149.595C260.691 149.595 261.341 149.837 261.766 150.321C262.195 150.804 262.415 151.517 262.425 152.459V157.667H260.645V152.51C260.645 152.008 260.535 151.639 260.315 151.405C260.096 151.17 259.732 151.053 259.224 151.053C258.819 151.053 258.487 151.163 258.228 151.383C257.974 151.597 257.796 151.881 257.693 152.232L257.701 157.667H255.921V152.452C255.896 151.519 255.42 151.053 254.493 151.053C253.78 151.053 253.274 151.344 252.977 151.925V157.667H251.197V149.742H252.874ZM273.411 146.951V148.424H273.191C272.195 148.438 271.399 148.712 270.804 149.244C270.208 149.776 269.854 150.531 269.742 151.507C270.313 150.906 271.043 150.606 271.932 150.606C272.874 150.606 273.616 150.938 274.158 151.602C274.705 152.266 274.979 153.123 274.979 154.173C274.979 155.257 274.659 156.136 274.019 156.81C273.384 157.479 272.549 157.813 271.514 157.813C270.45 157.813 269.585 157.42 268.921 156.634C268.262 155.848 267.933 154.818 267.933 153.543V152.935C267.933 151.065 268.387 149.6 269.295 148.541C270.208 147.481 271.519 146.951 273.228 146.951H273.411ZM271.5 152.042C271.109 152.042 270.75 152.152 270.423 152.371C270.101 152.591 269.864 152.884 269.712 153.25V153.792C269.712 154.583 269.878 155.213 270.21 155.682C270.542 156.146 270.972 156.378 271.5 156.378C272.027 156.378 272.444 156.18 272.752 155.784C273.06 155.389 273.213 154.869 273.213 154.224C273.213 153.58 273.057 153.055 272.745 152.65C272.432 152.244 272.017 152.042 271.5 152.042Z" fill="white"/>
<path d="M184.5 64L184.5 180" stroke="#BBBBBB" stroke-dasharray="3 2"/>
<path d="M191.5 64L191.5 180" stroke="#BBBBBB" stroke-dasharray="3 2"/>
<path d="M316.5 64L316.5 180" stroke="#BBBBBB" stroke-dasharray="3 2"/>
<path d="M323.5 64L323.5 180" stroke="#BBBBBB" stroke-dasharray="3 2"/>
<path d="M448.5 64L448.5 180" stroke="#BBBBBB" stroke-dasharray="3 2"/>
<path d="M455.5 64L455.5 180" stroke="#BBBBBB" stroke-dasharray="3 2"/>
<path d="M60 125.5L580 125.5" stroke="#BBBBBB" stroke-dasharray="3 2"/>
<path d="M60 118.5L580 118.5" stroke="#BBBBBB" stroke-dasharray="3 2"/>
<rect x="59" y="63" width="522" height="118" stroke="#AAAAAA" stroke-width="2"/>
<rect width="578" height="174" transform="translate(31 274)" fill="#F7F7F7"/>
<path d="M68 441C68 442.105 67.1046 443 66 443L52 443C50.8954 443 50 442.105 50 441L50 431.814C50 431.283 50.2112 430.774 50.587 430.399L57.587 423.411C58.3678 422.631 59.6323 422.631 60.413 423.411L67.413 430.399C67.7888 430.774 68 431.283 68 431.814L68 441Z" fill="#DDDDDD"/>
<path d="M57.1133 435.947H54.0371V434.799H57.1133V435.947ZM58.5781 434.77L59.041 430.469H63.623V431.699H60.2246L59.9902 433.738C60.3848 433.512 60.8301 433.398 61.3262 433.398C62.1387 433.398 62.7695 433.658 63.2188 434.178C63.6719 434.697 63.8984 435.396 63.8984 436.275C63.8984 437.143 63.6484 437.834 63.1484 438.35C62.6484 438.861 61.9629 439.117 61.0918 439.117C60.3105 439.117 59.6621 438.896 59.1465 438.455C58.6348 438.01 58.3574 437.424 58.3145 436.697H59.6914C59.7461 437.111 59.8945 437.43 60.1367 437.652C60.3789 437.871 60.6953 437.98 61.0859 437.98C61.5234 437.98 61.8633 437.824 62.1055 437.512C62.3516 437.199 62.4746 436.773 62.4746 436.234C62.4746 435.715 62.3398 435.305 62.0703 435.004C61.8008 434.699 61.4297 434.547 60.957 434.547C60.6992 434.547 60.4805 434.582 60.3008 434.652C60.1211 434.719 59.9258 434.852 59.7148 435.051L58.5781 434.77Z" fill="white"/>
<path d="M197 441C197 442.105 196.105 443 195 443L181 443C179.895 443 179 442.105 179 441L179 431.814C179 431.283 179.211 430.774 179.587 430.399L186.587 423.411C187.368 422.631 188.632 422.631 189.413 423.411L196.413 430.399C196.789 430.774 197 431.283 197 431.814L197 441Z" fill="#DDDDDD"/>
<path d="M186.113 435.947H183.037V434.799H186.113V435.947ZM192.014 435.959H193.074V437.102H192.014V439H190.59V437.102H186.904L186.863 436.234L190.543 430.469H192.014V435.959ZM188.357 435.959H190.59V432.396L190.484 432.584L188.357 435.959Z" fill="white"/>
<path d="M329 441C329 442.105 328.105 443 327 443L313 443C311.895 443 311 442.105 311 441L311 431.814C311 431.283 311.211 430.774 311.587 430.399L318.587 423.411C319.368 422.631 320.632 422.631 321.413 423.411L328.413 430.399C328.789 430.774 329 431.283 329 431.814L329 441Z" fill="#DDDDDD"/>
<path d="M318.113 435.947H315.037V434.799H318.113V435.947ZM320.844 434.084H321.711C322.148 434.08 322.494 433.967 322.748 433.744C323.006 433.521 323.135 433.199 323.135 432.777C323.135 432.371 323.027 432.057 322.812 431.834C322.602 431.607 322.277 431.494 321.84 431.494C321.457 431.494 321.143 431.605 320.896 431.828C320.65 432.047 320.527 432.334 320.527 432.689H319.104C319.104 432.252 319.219 431.854 319.449 431.494C319.684 431.135 320.008 430.855 320.422 430.656C320.84 430.453 321.307 430.352 321.822 430.352C322.674 430.352 323.342 430.566 323.826 430.996C324.314 431.422 324.559 432.016 324.559 432.777C324.559 433.16 324.436 433.521 324.189 433.861C323.947 434.197 323.633 434.451 323.246 434.623C323.715 434.783 324.07 435.035 324.312 435.379C324.559 435.723 324.682 436.133 324.682 436.609C324.682 437.375 324.418 437.984 323.891 438.438C323.367 438.891 322.678 439.117 321.822 439.117C321.002 439.117 320.33 438.898 319.807 438.461C319.283 438.023 319.021 437.441 319.021 436.715H320.445C320.445 437.09 320.57 437.395 320.82 437.629C321.074 437.863 321.414 437.98 321.84 437.98C322.281 437.98 322.629 437.863 322.883 437.629C323.137 437.395 323.264 437.055 323.264 436.609C323.264 436.16 323.131 435.814 322.865 435.572C322.6 435.33 322.205 435.209 321.682 435.209H320.844V434.084Z" fill="white"/>
<path d="M461 441C461 442.105 460.105 443 459 443L445 443C443.895 443 443 442.105 443 441L443 431.814C443 431.283 443.211 430.774 443.587 430.399L450.587 423.411C451.368 422.631 452.632 422.631 453.413 423.411L460.413 430.399C460.789 430.774 461 431.283 461 431.814L461 441Z" fill="#DDDDDD"/>
<path d="M450.113 435.947H447.037V434.799H450.113V435.947ZM456.934 439H451.197V438.021L454.039 434.922C454.449 434.465 454.74 434.084 454.912 433.779C455.088 433.471 455.176 433.162 455.176 432.854C455.176 432.447 455.061 432.119 454.83 431.869C454.604 431.619 454.297 431.494 453.91 431.494C453.449 431.494 453.092 431.635 452.838 431.916C452.584 432.197 452.457 432.582 452.457 433.07H451.033C451.033 432.551 451.15 432.084 451.385 431.67C451.623 431.252 451.961 430.928 452.398 430.697C452.84 430.467 453.348 430.352 453.922 430.352C454.75 430.352 455.402 430.561 455.879 430.979C456.359 431.393 456.6 431.967 456.6 432.701C456.6 433.127 456.479 433.574 456.236 434.043C455.998 434.508 455.605 435.037 455.059 435.631L452.973 437.863H456.934V439Z" fill="white"/>
<path d="M590 441C590 442.105 589.105 443 588 443L574 443C572.895 443 572 442.105 572 441L572 431.814C572 431.283 572.211 430.774 572.587 430.399L579.587 423.411C580.368 422.631 581.632 422.631 582.413 423.411L589.413 430.399C589.789 430.774 590 431.283 590 431.814L590 441Z" fill="#DDDDDD"/>
<path d="M579.113 435.947H576.037V434.799H579.113V435.947ZM584.053 439H582.635V432.15L580.543 432.865V431.664L583.871 430.439H584.053V439Z" fill="white"/>
<path d="M50 281C50 279.895 50.8954 279 52 279H66C67.1046 279 68 279.895 68 281V290.186C68 290.717 67.7888 291.226 67.413 291.601L60.413 298.589C59.6323 299.369 58.3677 299.369 57.587 298.589L50.587 291.601C50.2112 291.226 50 290.717 50 290.186V281Z" fill="#CCCCCC"/>
<path d="M60.084 291H58.666V284.15L56.5742 284.865V283.664L59.9023 282.439H60.084V291Z" fill="white"/>
<path d="M179 281C179 279.895 179.895 279 181 279H195C196.105 279 197 279.895 197 281V290.186C197 290.717 196.789 291.226 196.413 291.601L189.413 298.589C188.632 299.369 187.368 299.369 186.587 298.589L179.587 291.601C179.211 291.226 179 290.717 179 290.186V281Z" fill="#CCCCCC"/>
<path d="M190.965 291H185.229V290.021L188.07 286.922C188.48 286.465 188.771 286.084 188.943 285.779C189.119 285.471 189.207 285.162 189.207 284.854C189.207 284.447 189.092 284.119 188.861 283.869C188.635 283.619 188.328 283.494 187.941 283.494C187.48 283.494 187.123 283.635 186.869 283.916C186.615 284.197 186.488 284.582 186.488 285.07H185.064C185.064 284.551 185.182 284.084 185.416 283.67C185.654 283.252 185.992 282.928 186.43 282.697C186.871 282.467 187.379 282.352 187.953 282.352C188.781 282.352 189.434 282.561 189.91 282.979C190.391 283.393 190.631 283.967 190.631 284.701C190.631 285.127 190.51 285.574 190.268 286.043C190.029 286.508 189.637 287.037 189.09 287.631L187.004 289.863H190.965V291Z" fill="white"/>
<path d="M311 281C311 279.895 311.895 279 313 279H327C328.105 279 329 279.895 329 281V290.186C329 290.717 328.789 291.226 328.413 291.601L321.413 298.589C320.632 299.369 319.368 299.369 318.587 298.589L311.587 291.601C311.211 291.226 311 290.717 311 290.186V281Z" fill="#CCCCCC"/>
<path d="M318.875 286.084H319.742C320.18 286.08 320.525 285.967 320.779 285.744C321.037 285.521 321.166 285.199 321.166 284.777C321.166 284.371 321.059 284.057 320.844 283.834C320.633 283.607 320.309 283.494 319.871 283.494C319.488 283.494 319.174 283.605 318.928 283.828C318.682 284.047 318.559 284.334 318.559 284.689H317.135C317.135 284.252 317.25 283.854 317.48 283.494C317.715 283.135 318.039 282.855 318.453 282.656C318.871 282.453 319.338 282.352 319.854 282.352C320.705 282.352 321.373 282.566 321.857 282.996C322.346 283.422 322.59 284.016 322.59 284.777C322.59 285.16 322.467 285.521 322.221 285.861C321.979 286.197 321.664 286.451 321.277 286.623C321.746 286.783 322.102 287.035 322.344 287.379C322.59 287.723 322.713 288.133 322.713 288.609C322.713 289.375 322.449 289.984 321.922 290.438C321.398 290.891 320.709 291.117 319.854 291.117C319.033 291.117 318.361 290.898 317.838 290.461C317.314 290.023 317.053 289.441 317.053 288.715H318.477C318.477 289.09 318.602 289.395 318.852 289.629C319.105 289.863 319.445 289.98 319.871 289.98C320.312 289.98 320.66 289.863 320.914 289.629C321.168 289.395 321.295 289.055 321.295 288.609C321.295 288.16 321.162 287.814 320.896 287.572C320.631 287.33 320.236 287.209 319.713 287.209H318.875V286.084Z" fill="white"/>
<path d="M443 281C443 279.895 443.895 279 445 279H459C460.105 279 461 279.895 461 281V290.186C461 290.717 460.789 291.226 460.413 291.601L453.413 298.589C452.632 299.369 451.368 299.369 450.587 298.589L443.587 291.601C443.211 291.226 443 290.717 443 290.186V281Z" fill="#CCCCCC"/>
<path d="M454.045 287.959H455.105V289.102H454.045V291H452.621V289.102H448.936L448.895 288.234L452.574 282.469H454.045V287.959ZM450.389 287.959H452.621V284.396L452.516 284.584L450.389 287.959Z" fill="white"/>
<path d="M572 281C572 279.895 572.895 279 574 279H588C589.105 279 590 279.895 590 281V290.186C590 290.717 589.789 291.226 589.413 291.601L582.413 298.589C581.632 299.369 580.368 299.369 579.587 298.589L572.587 291.601C572.211 291.226 572 290.717 572 290.186V281Z" fill="#CCCCCC"/>
<path d="M578.609 286.77L579.072 282.469H583.654V283.699H580.256L580.021 285.738C580.416 285.512 580.861 285.398 581.357 285.398C582.17 285.398 582.801 285.658 583.25 286.178C583.703 286.697 583.93 287.396 583.93 288.275C583.93 289.143 583.68 289.834 583.18 290.35C582.68 290.861 581.994 291.117 581.123 291.117C580.342 291.117 579.693 290.896 579.178 290.455C578.666 290.01 578.389 289.424 578.346 288.697H579.723C579.777 289.111 579.926 289.43 580.168 289.652C580.41 289.871 580.727 289.98 581.117 289.98C581.555 289.98 581.895 289.824 582.137 289.512C582.383 289.199 582.506 288.773 582.506 288.234C582.506 287.715 582.371 287.305 582.102 287.004C581.832 286.699 581.461 286.547 580.988 286.547C580.73 286.547 580.512 286.582 580.332 286.652C580.152 286.719 579.957 286.852 579.746 287.051L578.609 286.77Z" fill="white"/>
<path d="M38 311C36.8954 311 36 310.105 36 309L36 295C36 293.895 36.8954 293 38 293L47.1857 293C47.7167 293 48.2259 293.211 48.6011 293.587L55.5894 300.587C56.3688 301.368 56.3688 302.632 55.5894 303.413L48.6011 310.413C48.2259 310.789 47.7167 311 47.1857 311L38 311Z" fill="#CCCCCC"/>
<path d="M45.084 306H43.666V299.15L41.5742 299.865V298.664L44.9023 297.439H45.084V306Z" fill="white"/>
<path d="M38 370C36.8954 370 36 369.105 36 368L36 354C36 352.895 36.8954 352 38 352L47.1857 352C47.7167 352 48.2259 352.211 48.6011 352.587L55.5894 359.587C56.3688 360.368 56.3688 361.632 55.5894 362.413L48.6011 369.413C48.2259 369.789 47.7167 370 47.1857 370L38 370Z" fill="#CCCCCC"/>
<path d="M46.9648 365H41.2285V364.021L44.0703 360.922C44.4805 360.465 44.7715 360.084 44.9434 359.779C45.1191 359.471 45.207 359.162 45.207 358.854C45.207 358.447 45.0918 358.119 44.8613 357.869C44.6348 357.619 44.3281 357.494 43.9414 357.494C43.4805 357.494 43.123 357.635 42.8691 357.916C42.6152 358.197 42.4883 358.582 42.4883 359.07H41.0645C41.0645 358.551 41.1816 358.084 41.416 357.67C41.6543 357.252 41.9922 356.928 42.4297 356.697C42.8711 356.467 43.3789 356.352 43.9531 356.352C44.7812 356.352 45.4336 356.561 45.9102 356.979C46.3906 357.393 46.6309 357.967 46.6309 358.701C46.6309 359.127 46.5098 359.574 46.2676 360.043C46.0293 360.508 45.6367 361.037 45.0898 361.631L43.0039 363.863H46.9648V365Z" fill="white"/>
<path d="M38 429C36.8954 429 36 428.105 36 427L36 413C36 411.895 36.8954 411 38 411L47.1857 411C47.7167 411 48.2259 411.211 48.6011 411.587L55.5894 418.587C56.3688 419.368 56.3688 420.632 55.5894 421.413L48.6011 428.413C48.2259 428.789 47.7167 429 47.1857 429L38 429Z" fill="#CCCCCC"/>
<path d="M42.875 419.084H43.7422C44.1797 419.08 44.5254 418.967 44.7793 418.744C45.0371 418.521 45.166 418.199 45.166 417.777C45.166 417.371 45.0586 417.057 44.8438 416.834C44.6328 416.607 44.3086 416.494 43.8711 416.494C43.4883 416.494 43.1738 416.605 42.9277 416.828C42.6816 417.047 42.5586 417.334 42.5586 417.689H41.1348C41.1348 417.252 41.25 416.854 41.4805 416.494C41.7148 416.135 42.0391 415.855 42.4531 415.656C42.8711 415.453 43.3379 415.352 43.8535 415.352C44.7051 415.352 45.373 415.566 45.8574 415.996C46.3457 416.422 46.5898 417.016 46.5898 417.777C46.5898 418.16 46.4668 418.521 46.2207 418.861C45.9785 419.197 45.6641 419.451 45.2773 419.623C45.7461 419.783 46.1016 420.035 46.3438 420.379C46.5898 420.723 46.7129 421.133 46.7129 421.609C46.7129 422.375 46.4492 422.984 45.9219 423.438C45.3984 423.891 44.709 424.117 43.8535 424.117C43.0332 424.117 42.3613 423.898 41.8379 423.461C41.3145 423.023 41.0527 422.441 41.0527 421.715H42.4766C42.4766 422.09 42.6016 422.395 42.8516 422.629C43.1055 422.863 43.4453 422.98 43.8711 422.98C44.3125 422.98 44.6602 422.863 44.9141 422.629C45.168 422.395 45.2949 422.055 45.2949 421.609C45.2949 421.16 45.1621 420.814 44.8965 420.572C44.6309 420.33 44.2363 420.209 43.7129 420.209H42.875V419.084Z" fill="white"/>
<path d="M602 293C603.105 293 604 293.895 604 295L604 309C604 310.105 603.105 311 602 311L592.814 311C592.283 311 591.774 310.789 591.399 310.413L584.411 303.413C583.631 302.632 583.631 301.368 584.411 300.587L591.399 293.587C591.774 293.211 592.283 293 592.814 293L602 293Z" fill="#DDDDDD"/>
<path d="M594.113 302.947H591.037V301.799H594.113V302.947ZM596.844 301.084H597.711C598.148 301.08 598.494 300.967 598.748 300.744C599.006 300.521 599.135 300.199 599.135 299.777C599.135 299.371 599.027 299.057 598.812 298.834C598.602 298.607 598.277 298.494 597.84 298.494C597.457 298.494 597.143 298.605 596.896 298.828C596.65 299.047 596.527 299.334 596.527 299.689H595.104C595.104 299.252 595.219 298.854 595.449 298.494C595.684 298.135 596.008 297.855 596.422 297.656C596.84 297.453 597.307 297.352 597.822 297.352C598.674 297.352 599.342 297.566 599.826 297.996C600.314 298.422 600.559 299.016 600.559 299.777C600.559 300.16 600.436 300.521 600.189 300.861C599.947 301.197 599.633 301.451 599.246 301.623C599.715 301.783 600.07 302.035 600.312 302.379C600.559 302.723 600.682 303.133 600.682 303.609C600.682 304.375 600.418 304.984 599.891 305.438C599.367 305.891 598.678 306.117 597.822 306.117C597.002 306.117 596.33 305.898 595.807 305.461C595.283 305.023 595.021 304.441 595.021 303.715H596.445C596.445 304.09 596.57 304.395 596.82 304.629C597.074 304.863 597.414 304.98 597.84 304.98C598.281 304.98 598.629 304.863 598.883 304.629C599.137 304.395 599.264 304.055 599.264 303.609C599.264 303.16 599.131 302.814 598.865 302.572C598.6 302.33 598.205 302.209 597.682 302.209H596.844V301.084Z" fill="white"/>
<path d="M602 352C603.105 352 604 352.895 604 354L604 368C604 369.105 603.105 370 602 370L592.814 370C592.283 370 591.774 369.789 591.399 369.413L584.411 362.413C583.631 361.632 583.631 360.368 584.411 359.587L591.399 352.587C591.774 352.211 592.283 352 592.814 352L602 352Z" fill="#DDDDDD"/>
<path d="M594.113 361.947H591.037V360.799H594.113V361.947ZM600.934 365H595.197V364.021L598.039 360.922C598.449 360.465 598.74 360.084 598.912 359.779C599.088 359.471 599.176 359.162 599.176 358.854C599.176 358.447 599.061 358.119 598.83 357.869C598.604 357.619 598.297 357.494 597.91 357.494C597.449 357.494 597.092 357.635 596.838 357.916C596.584 358.197 596.457 358.582 596.457 359.07H595.033C595.033 358.551 595.15 358.084 595.385 357.67C595.623 357.252 595.961 356.928 596.398 356.697C596.84 356.467 597.348 356.352 597.922 356.352C598.75 356.352 599.402 356.561 599.879 356.979C600.359 357.393 600.6 357.967 600.6 358.701C600.6 359.127 600.479 359.574 600.236 360.043C599.998 360.508 599.605 361.037 599.059 361.631L596.973 363.863H600.934V365Z" fill="white"/>
<path d="M602 411C603.105 411 604 411.895 604 413L604 427C604 428.105 603.105 429 602 429L592.814 429C592.283 429 591.774 428.789 591.399 428.413L584.411 421.413C583.631 420.632 583.631 419.368 584.411 418.587L591.399 411.587C591.774 411.211 592.283 411 592.814 411L602 411Z" fill="#DDDDDD"/>
<path d="M594.113 420.947H591.037V419.799H594.113V420.947ZM599.053 424H597.635V417.15L595.543 417.865V416.664L598.871 415.439H599.053V424Z" fill="white"/>
<rect x="59" y="302" width="522" height="118" fill="white"/>
<path d="M62 310C62 307.239 64.2386 305 67 305H177C179.761 305 182 307.239 182 310V350C182 352.761 179.761 355 177 355H67C64.2386 355 62 352.761 62 350V310Z" fill="#1E73FF"/>
<path d="M104.204 334.667H102.424V326.742H104.204V334.667ZM102.314 324.684C102.314 324.41 102.4 324.183 102.571 324.003C102.747 323.822 102.996 323.732 103.318 323.732C103.64 323.732 103.889 323.822 104.065 324.003C104.241 324.183 104.329 324.41 104.329 324.684C104.329 324.952 104.241 325.177 104.065 325.358C103.889 325.533 103.64 325.621 103.318 325.621C102.996 325.621 102.747 325.533 102.571 325.358C102.4 325.177 102.314 324.952 102.314 324.684ZM108.379 324.816V326.742H109.778V328.06H108.379V332.484C108.379 332.787 108.438 333.007 108.555 333.143C108.677 333.275 108.892 333.341 109.199 333.341C109.404 333.341 109.612 333.317 109.822 333.268V334.645C109.417 334.757 109.026 334.813 108.65 334.813C107.283 334.813 106.599 334.059 106.599 332.55V328.06H105.295V326.742H106.599V324.816H108.379ZM114.634 334.813C113.506 334.813 112.59 334.459 111.887 333.751C111.189 333.038 110.84 332.091 110.84 330.909V330.69C110.84 329.899 110.991 329.193 111.294 328.573C111.602 327.948 112.031 327.462 112.583 327.115C113.135 326.769 113.75 326.595 114.429 326.595C115.508 326.595 116.34 326.94 116.926 327.628C117.517 328.317 117.812 329.291 117.812 330.551V331.268H112.634C112.688 331.923 112.905 332.44 113.286 332.821C113.672 333.202 114.155 333.392 114.736 333.392C115.552 333.392 116.216 333.063 116.729 332.404L117.688 333.319C117.371 333.793 116.946 334.161 116.414 334.425C115.886 334.684 115.293 334.813 114.634 334.813ZM114.421 328.024C113.933 328.024 113.538 328.195 113.235 328.536C112.937 328.878 112.747 329.354 112.664 329.965H116.055V329.833C116.016 329.237 115.857 328.788 115.579 328.485C115.3 328.177 114.915 328.024 114.421 328.024ZM120.874 326.742L120.925 327.57C121.482 326.92 122.244 326.595 123.21 326.595C124.27 326.595 124.995 327.001 125.386 327.811C125.962 327.001 126.772 326.595 127.817 326.595C128.691 326.595 129.341 326.837 129.766 327.321C130.195 327.804 130.415 328.517 130.425 329.459V334.667H128.645V329.51C128.645 329.008 128.535 328.639 128.315 328.405C128.096 328.17 127.732 328.053 127.224 328.053C126.819 328.053 126.487 328.163 126.228 328.383C125.974 328.597 125.796 328.881 125.693 329.232L125.701 334.667H123.921V329.452C123.896 328.519 123.42 328.053 122.493 328.053C121.78 328.053 121.274 328.344 120.977 328.925V334.667H119.197V326.742H120.874ZM140.693 334.667H138.921V326.105L136.306 326.998V325.497L140.466 323.966H140.693V334.667Z" fill="white"/>
<path d="M194 310C194 307.239 196.239 305 199 305H309C311.761 305 314 307.239 314 310V350C314 352.761 311.761 355 309 355H199C196.239 355 194 352.761 194 350V310Z" fill="#1E73FF"/>
<path d="M236.204 334.667H234.424V326.742H236.204V334.667ZM234.314 324.684C234.314 324.41 234.4 324.183 234.571 324.003C234.747 323.822 234.996 323.732 235.318 323.732C235.64 323.732 235.889 323.822 236.065 324.003C236.241 324.183 236.329 324.41 236.329 324.684C236.329 324.952 236.241 325.177 236.065 325.358C235.889 325.533 235.64 325.621 235.318 325.621C234.996 325.621 234.747 325.533 234.571 325.358C234.4 325.177 234.314 324.952 234.314 324.684ZM240.379 324.816V326.742H241.778V328.06H240.379V332.484C240.379 332.787 240.438 333.007 240.555 333.143C240.677 333.275 240.892 333.341 241.199 333.341C241.404 333.341 241.612 333.317 241.822 333.268V334.645C241.417 334.757 241.026 334.813 240.65 334.813C239.283 334.813 238.599 334.059 238.599 332.55V328.06H237.295V326.742H238.599V324.816H240.379ZM246.634 334.813C245.506 334.813 244.59 334.459 243.887 333.751C243.189 333.038 242.84 332.091 242.84 330.909V330.69C242.84 329.899 242.991 329.193 243.294 328.573C243.602 327.948 244.031 327.462 244.583 327.115C245.135 326.769 245.75 326.595 246.429 326.595C247.508 326.595 248.34 326.94 248.926 327.628C249.517 328.317 249.812 329.291 249.812 330.551V331.268H244.634C244.688 331.923 244.905 332.44 245.286 332.821C245.672 333.202 246.155 333.392 246.736 333.392C247.552 333.392 248.216 333.063 248.729 332.404L249.688 333.319C249.371 333.793 248.946 334.161 248.414 334.425C247.886 334.684 247.293 334.813 246.634 334.813ZM246.421 328.024C245.933 328.024 245.538 328.195 245.235 328.536C244.937 328.878 244.747 329.354 244.664 329.965H248.055V329.833C248.016 329.237 247.857 328.788 247.579 328.485C247.3 328.177 246.915 328.024 246.421 328.024ZM252.874 326.742L252.925 327.57C253.482 326.92 254.244 326.595 255.21 326.595C256.27 326.595 256.995 327.001 257.386 327.811C257.962 327.001 258.772 326.595 259.817 326.595C260.691 326.595 261.341 326.837 261.766 327.321C262.195 327.804 262.415 328.517 262.425 329.459V334.667H260.645V329.51C260.645 329.008 260.535 328.639 260.315 328.405C260.096 328.17 259.732 328.053 259.224 328.053C258.819 328.053 258.487 328.163 258.228 328.383C257.974 328.597 257.796 328.881 257.693 329.232L257.701 334.667H255.921V329.452C255.896 328.519 255.42 328.053 254.493 328.053C253.78 328.053 253.274 328.344 252.977 328.925V334.667H251.197V326.742H252.874ZM269.932 328.522H271.016C271.563 328.517 271.995 328.375 272.312 328.097C272.635 327.819 272.796 327.416 272.796 326.888C272.796 326.381 272.662 325.988 272.393 325.709C272.129 325.426 271.724 325.284 271.177 325.284C270.699 325.284 270.306 325.424 269.998 325.702C269.69 325.975 269.537 326.334 269.537 326.779H267.757C267.757 326.232 267.901 325.734 268.189 325.284C268.482 324.835 268.887 324.486 269.405 324.237C269.927 323.983 270.511 323.856 271.155 323.856C272.22 323.856 273.055 324.125 273.66 324.662C274.271 325.194 274.576 325.936 274.576 326.888C274.576 327.367 274.422 327.819 274.114 328.243C273.812 328.663 273.418 328.981 272.935 329.196C273.521 329.396 273.965 329.711 274.268 330.14C274.576 330.57 274.729 331.083 274.729 331.678C274.729 332.635 274.4 333.397 273.741 333.964C273.086 334.53 272.225 334.813 271.155 334.813C270.13 334.813 269.29 334.54 268.636 333.993C267.981 333.446 267.654 332.719 267.654 331.81H269.434C269.434 332.279 269.59 332.66 269.903 332.953C270.22 333.246 270.645 333.392 271.177 333.392C271.729 333.392 272.164 333.246 272.481 332.953C272.798 332.66 272.957 332.235 272.957 331.678C272.957 331.117 272.791 330.685 272.459 330.382C272.127 330.079 271.634 329.928 270.979 329.928H269.932V328.522Z" fill="white"/>
<path d="M326 310C326 307.239 328.239 305 331 305H441C443.761 305 446 307.239 446 310V350C446 352.761 443.761 355 441 355H331C328.239 355 326 352.761 326 350V310Z" fill="#1E73FF"/>
<path d="M368.204 334.667H366.424V326.742H368.204V334.667ZM366.314 324.684C366.314 324.41 366.4 324.183 366.571 324.003C366.747 323.822 366.996 323.732 367.318 323.732C367.64 323.732 367.889 323.822 368.065 324.003C368.241 324.183 368.329 324.41 368.329 324.684C368.329 324.952 368.241 325.177 368.065 325.358C367.889 325.533 367.64 325.621 367.318 325.621C366.996 325.621 366.747 325.533 366.571 325.358C366.4 325.177 366.314 324.952 366.314 324.684ZM372.379 324.816V326.742H373.778V328.06H372.379V332.484C372.379 332.787 372.438 333.007 372.555 333.143C372.677 333.275 372.892 333.341 373.199 333.341C373.404 333.341 373.612 333.317 373.822 333.268V334.645C373.417 334.757 373.026 334.813 372.65 334.813C371.283 334.813 370.599 334.059 370.599 332.55V328.06H369.295V326.742H370.599V324.816H372.379ZM378.634 334.813C377.506 334.813 376.59 334.459 375.887 333.751C375.189 333.038 374.84 332.091 374.84 330.909V330.69C374.84 329.899 374.991 329.193 375.294 328.573C375.602 327.948 376.031 327.462 376.583 327.115C377.135 326.769 377.75 326.595 378.429 326.595C379.508 326.595 380.34 326.94 380.926 327.628C381.517 328.317 381.812 329.291 381.812 330.551V331.268H376.634C376.688 331.923 376.905 332.44 377.286 332.821C377.672 333.202 378.155 333.392 378.736 333.392C379.552 333.392 380.216 333.063 380.729 332.404L381.688 333.319C381.371 333.793 380.946 334.161 380.414 334.425C379.886 334.684 379.293 334.813 378.634 334.813ZM378.421 328.024C377.933 328.024 377.538 328.195 377.235 328.536C376.937 328.878 376.747 329.354 376.664 329.965H380.055V329.833C380.016 329.237 379.857 328.788 379.579 328.485C379.3 328.177 378.915 328.024 378.421 328.024ZM384.874 326.742L384.925 327.57C385.482 326.92 386.244 326.595 387.21 326.595C388.27 326.595 388.995 327.001 389.386 327.811C389.962 327.001 390.772 326.595 391.817 326.595C392.691 326.595 393.341 326.837 393.766 327.321C394.195 327.804 394.415 328.517 394.425 329.459V334.667H392.645V329.51C392.645 329.008 392.535 328.639 392.315 328.405C392.096 328.17 391.732 328.053 391.224 328.053C390.819 328.053 390.487 328.163 390.228 328.383C389.974 328.597 389.796 328.881 389.693 329.232L389.701 334.667H387.921V329.452C387.896 328.519 387.42 328.053 386.493 328.053C385.78 328.053 385.274 328.344 384.977 328.925V334.667H383.197V326.742H384.874ZM400.35 329.379L400.929 324.003H406.656V325.541H402.408L402.115 328.09C402.608 327.806 403.165 327.665 403.785 327.665C404.801 327.665 405.589 327.99 406.151 328.639C406.717 329.288 407 330.162 407 331.261C407 332.345 406.688 333.209 406.063 333.854C405.438 334.493 404.581 334.813 403.492 334.813C402.516 334.813 401.705 334.537 401.061 333.986C400.421 333.429 400.074 332.697 400.021 331.788H401.742C401.81 332.306 401.996 332.704 402.298 332.982C402.601 333.256 402.997 333.392 403.485 333.392C404.032 333.392 404.457 333.197 404.759 332.806C405.067 332.416 405.221 331.884 405.221 331.21C405.221 330.56 405.052 330.048 404.715 329.672C404.378 329.291 403.915 329.1 403.324 329.1C403.001 329.1 402.728 329.144 402.503 329.232C402.279 329.315 402.035 329.481 401.771 329.73L400.35 329.379Z" fill="white"/>
<path d="M62 372C62 369.239 64.2386 367 67 367H177C179.761 367 182 369.239 182 372V412C182 414.761 179.761 417 177 417H67C64.2386 417 62 414.761 62 412V372Z" fill="#1E73FF"/>
<path d="M104.204 396.667H102.424V388.742H104.204V396.667ZM102.314 386.684C102.314 386.41 102.4 386.183 102.571 386.003C102.747 385.822 102.996 385.732 103.318 385.732C103.64 385.732 103.889 385.822 104.065 386.003C104.241 386.183 104.329 386.41 104.329 386.684C104.329 386.952 104.241 387.177 104.065 387.358C103.889 387.533 103.64 387.621 103.318 387.621C102.996 387.621 102.747 387.533 102.571 387.358C102.4 387.177 102.314 386.952 102.314 386.684ZM108.379 386.816V388.742H109.778V390.06H108.379V394.484C108.379 394.787 108.438 395.007 108.555 395.143C108.677 395.275 108.892 395.341 109.199 395.341C109.404 395.341 109.612 395.317 109.822 395.268V396.645C109.417 396.757 109.026 396.813 108.65 396.813C107.283 396.813 106.599 396.059 106.599 394.55V390.06H105.295V388.742H106.599V386.816H108.379ZM114.634 396.813C113.506 396.813 112.59 396.459 111.887 395.751C111.189 395.038 110.84 394.091 110.84 392.909V392.69C110.84 391.899 110.991 391.193 111.294 390.573C111.602 389.948 112.031 389.462 112.583 389.115C113.135 388.769 113.75 388.595 114.429 388.595C115.508 388.595 116.34 388.94 116.926 389.628C117.517 390.317 117.812 391.291 117.812 392.551V393.268H112.634C112.688 393.923 112.905 394.44 113.286 394.821C113.672 395.202 114.155 395.392 114.736 395.392C115.552 395.392 116.216 395.063 116.729 394.404L117.688 395.319C117.371 395.793 116.946 396.161 116.414 396.425C115.886 396.684 115.293 396.813 114.634 396.813ZM114.421 390.024C113.933 390.024 113.538 390.195 113.235 390.536C112.937 390.878 112.747 391.354 112.664 391.965H116.055V391.833C116.016 391.237 115.857 390.788 115.579 390.485C115.3 390.177 114.915 390.024 114.421 390.024ZM120.874 388.742L120.925 389.57C121.482 388.92 122.244 388.595 123.21 388.595C124.27 388.595 124.995 389.001 125.386 389.811C125.962 389.001 126.772 388.595 127.817 388.595C128.691 388.595 129.341 388.837 129.766 389.321C130.195 389.804 130.415 390.517 130.425 391.459V396.667H128.645V391.51C128.645 391.008 128.535 390.639 128.315 390.405C128.096 390.17 127.732 390.053 127.224 390.053C126.819 390.053 126.487 390.163 126.228 390.383C125.974 390.597 125.796 390.881 125.693 391.232L125.701 396.667H123.921V391.452C123.896 390.519 123.42 390.053 122.493 390.053C121.78 390.053 121.274 390.344 120.977 390.925V396.667H119.197V388.742H120.874ZM143.044 396.667H135.874V395.444L139.426 391.569C139.939 390.998 140.303 390.522 140.518 390.141C140.737 389.755 140.847 389.369 140.847 388.984C140.847 388.476 140.703 388.066 140.415 387.753C140.132 387.441 139.749 387.284 139.265 387.284C138.689 387.284 138.242 387.46 137.925 387.812C137.607 388.163 137.449 388.644 137.449 389.255H135.669C135.669 388.605 135.815 388.022 136.108 387.504C136.406 386.982 136.829 386.576 137.375 386.288C137.927 386 138.562 385.856 139.28 385.856C140.315 385.856 141.13 386.117 141.726 386.64C142.327 387.157 142.627 387.875 142.627 388.793C142.627 389.325 142.476 389.885 142.173 390.47C141.875 391.052 141.384 391.713 140.701 392.455L138.093 395.246H143.044V396.667Z" fill="white"/>
<path d="M194 372C194 369.239 196.239 367 199 367H309C311.761 367 314 369.239 314 372V412C314 414.761 311.761 417 309 417H199C196.239 417 194 414.761 194 412V372Z" fill="#1E73FF"/>
<path d="M236.204 396.667H234.424V388.742H236.204V396.667ZM234.314 386.684C234.314 386.41 234.4 386.183 234.571 386.003C234.747 385.822 234.996 385.732 235.318 385.732C235.64 385.732 235.889 385.822 236.065 386.003C236.241 386.183 236.329 386.41 236.329 386.684C236.329 386.952 236.241 387.177 236.065 387.358C235.889 387.533 235.64 387.621 235.318 387.621C234.996 387.621 234.747 387.533 234.571 387.358C234.4 387.177 234.314 386.952 234.314 386.684ZM240.379 386.816V388.742H241.778V390.06H240.379V394.484C240.379 394.787 240.438 395.007 240.555 395.143C240.677 395.275 240.892 395.341 241.199 395.341C241.404 395.341 241.612 395.317 241.822 395.268V396.645C241.417 396.757 241.026 396.813 240.65 396.813C239.283 396.813 238.599 396.059 238.599 394.55V390.06H237.295V388.742H238.599V386.816H240.379ZM246.634 396.813C245.506 396.813 244.59 396.459 243.887 395.751C243.189 395.038 242.84 394.091 242.84 392.909V392.69C242.84 391.899 242.991 391.193 243.294 390.573C243.602 389.948 244.031 389.462 244.583 389.115C245.135 388.769 245.75 388.595 246.429 388.595C247.508 388.595 248.34 388.94 248.926 389.628C249.517 390.317 249.812 391.291 249.812 392.551V393.268H244.634C244.688 393.923 244.905 394.44 245.286 394.821C245.672 395.202 246.155 395.392 246.736 395.392C247.552 395.392 248.216 395.063 248.729 394.404L249.688 395.319C249.371 395.793 248.946 396.161 248.414 396.425C247.886 396.684 247.293 396.813 246.634 396.813ZM246.421 390.024C245.933 390.024 245.538 390.195 245.235 390.536C244.937 390.878 244.747 391.354 244.664 391.965H248.055V391.833C248.016 391.237 247.857 390.788 247.579 390.485C247.3 390.177 246.915 390.024 246.421 390.024ZM252.874 388.742L252.925 389.57C253.482 388.92 254.244 388.595 255.21 388.595C256.27 388.595 256.995 389.001 257.386 389.811C257.962 389.001 258.772 388.595 259.817 388.595C260.691 388.595 261.341 388.837 261.766 389.321C262.195 389.804 262.415 390.517 262.425 391.459V396.667H260.645V391.51C260.645 391.008 260.535 390.639 260.315 390.405C260.096 390.17 259.732 390.053 259.224 390.053C258.819 390.053 258.487 390.163 258.228 390.383C257.974 390.597 257.796 390.881 257.693 391.232L257.701 396.667H255.921V391.452C255.896 390.519 255.42 390.053 254.493 390.053C253.78 390.053 253.274 390.344 252.977 390.925V396.667H251.197V388.742H252.874ZM273.895 392.865H275.22V394.294H273.895V396.667H272.115V394.294H267.508L267.457 393.21L272.056 386.003H273.895V392.865ZM269.324 392.865H272.115V388.412L271.983 388.647L269.324 392.865Z" fill="white"/>
<path d="M326 372C326 369.239 328.239 367 331 367H441C443.761 367 446 369.239 446 372V412C446 414.761 443.761 417 441 417H331C328.239 417 326 414.761 326 412V372Z" fill="#1E73FF"/>
<path d="M368.204 396.667H366.424V388.742H368.204V396.667ZM366.314 386.684C366.314 386.41 366.4 386.183 366.571 386.003C366.747 385.822 366.996 385.732 367.318 385.732C367.64 385.732 367.889 385.822 368.065 386.003C368.241 386.183 368.329 386.41 368.329 386.684C368.329 386.952 368.241 387.177 368.065 387.358C367.889 387.533 367.64 387.621 367.318 387.621C366.996 387.621 366.747 387.533 366.571 387.358C366.4 387.177 366.314 386.952 366.314 386.684ZM372.379 386.816V388.742H373.778V390.06H372.379V394.484C372.379 394.787 372.438 395.007 372.555 395.143C372.677 395.275 372.892 395.341 373.199 395.341C373.404 395.341 373.612 395.317 373.822 395.268V396.645C373.417 396.757 373.026 396.813 372.65 396.813C371.283 396.813 370.599 396.059 370.599 394.55V390.06H369.295V388.742H370.599V386.816H372.379ZM378.634 396.813C377.506 396.813 376.59 396.459 375.887 395.751C375.189 395.038 374.84 394.091 374.84 392.909V392.69C374.84 391.899 374.991 391.193 375.294 390.573C375.602 389.948 376.031 389.462 376.583 389.115C377.135 388.769 377.75 388.595 378.429 388.595C379.508 388.595 380.34 388.94 380.926 389.628C381.517 390.317 381.812 391.291 381.812 392.551V393.268H376.634C376.688 393.923 376.905 394.44 377.286 394.821C377.672 395.202 378.155 395.392 378.736 395.392C379.552 395.392 380.216 395.063 380.729 394.404L381.688 395.319C381.371 395.793 380.946 396.161 380.414 396.425C379.886 396.684 379.293 396.813 378.634 396.813ZM378.421 390.024C377.933 390.024 377.538 390.195 377.235 390.536C376.937 390.878 376.747 391.354 376.664 391.965H380.055V391.833C380.016 391.237 379.857 390.788 379.579 390.485C379.3 390.177 378.915 390.024 378.421 390.024ZM384.874 388.742L384.925 389.57C385.482 388.92 386.244 388.595 387.21 388.595C388.27 388.595 388.995 389.001 389.386 389.811C389.962 389.001 390.772 388.595 391.817 388.595C392.691 388.595 393.341 388.837 393.766 389.321C394.195 389.804 394.415 390.517 394.425 391.459V396.667H392.645V391.51C392.645 391.008 392.535 390.639 392.315 390.405C392.096 390.17 391.732 390.053 391.224 390.053C390.819 390.053 390.487 390.163 390.228 390.383C389.974 390.597 389.796 390.881 389.693 391.232L389.701 396.667H387.921V391.452C387.896 390.519 387.42 390.053 386.493 390.053C385.78 390.053 385.274 390.344 384.977 390.925V396.667H383.197V388.742H384.874ZM405.411 385.951V387.424H405.191C404.195 387.438 403.399 387.712 402.804 388.244C402.208 388.776 401.854 389.531 401.742 390.507C402.313 389.906 403.043 389.606 403.932 389.606C404.874 389.606 405.616 389.938 406.158 390.602C406.705 391.266 406.979 392.123 406.979 393.173C406.979 394.257 406.659 395.136 406.019 395.81C405.384 396.479 404.549 396.813 403.514 396.813C402.45 396.813 401.585 396.42 400.921 395.634C400.262 394.848 399.933 393.818 399.933 392.543V391.935C399.933 390.065 400.387 388.6 401.295 387.541C402.208 386.481 403.519 385.951 405.228 385.951H405.411ZM403.5 391.042C403.109 391.042 402.75 391.152 402.423 391.371C402.101 391.591 401.864 391.884 401.712 392.25V392.792C401.712 393.583 401.878 394.213 402.21 394.682C402.542 395.146 402.972 395.378 403.5 395.378C404.027 395.378 404.444 395.18 404.752 394.784C405.06 394.389 405.213 393.869 405.213 393.224C405.213 392.58 405.057 392.055 404.745 391.65C404.432 391.244 404.017 391.042 403.5 391.042Z" fill="white"/>
<path d="M184.5 303L184.5 419" stroke="#BBBBBB" stroke-dasharray="3 2"/>
<path d="M191.5 303L191.5 419" stroke="#BBBBBB" stroke-dasharray="3 2"/>
<path d="M316.5 303L316.5 419" stroke="#BBBBBB" stroke-dasharray="3 2"/>
<path d="M323.5 303L323.5 419" stroke="#BBBBBB" stroke-dasharray="3 2"/>
<path d="M448.5 303L448.5 419" stroke="#BBBBBB" stroke-dasharray="3 2"/>
<path d="M455.5 303L455.5 419" stroke="#BBBBBB" stroke-dasharray="3 2"/>
<path d="M60 364.5L580 364.5" stroke="#BBBBBB" stroke-dasharray="3 2"/>
<path d="M60 357.5L580 357.5" stroke="#BBBBBB" stroke-dasharray="3 2"/>
<rect x="59" y="302" width="522" height="118" stroke="#AAAAAA" stroke-width="2"/>
</svg>
