<svg width="425" height="162" viewBox="0 0 425 162" fill="none" xmlns="http://www.w3.org/2000/svg">
<rect x="2" y="27" width="158" height="108" fill="#F7F7F7" stroke="#AAAAAA" stroke-width="2" stroke-dasharray="6 4"/>
<path d="M3.61816 12H1.95703V4.60352H3.61816V12ZM1.85449 2.68262C1.85449 2.42741 1.93424 2.21549 2.09375 2.04688C2.25781 1.87826 2.49023 1.79395 2.79102 1.79395C3.0918 1.79395 3.32422 1.87826 3.48828 2.04688C3.65234 2.21549 3.73438 2.42741 3.73438 2.68262C3.73438 2.93327 3.65234 3.1429 3.48828 3.31152C3.32422 3.47559 3.0918 3.55762 2.79102 3.55762C2.49023 3.55762 2.25781 3.47559 2.09375 3.31152C1.93424 3.1429 1.85449 2.93327 1.85449 2.68262ZM6.97461 4.60352L7.02246 5.45801C7.56934 4.7972 8.28711 4.4668 9.17578 4.4668C10.7161 4.4668 11.5 5.34863 11.5273 7.1123V12H9.86621V7.20801C9.86621 6.73861 9.76367 6.39225 9.55859 6.16895C9.35807 5.94108 9.02767 5.82715 8.56738 5.82715C7.89746 5.82715 7.39844 6.13021 7.07031 6.73633V12H5.40918V4.60352H6.97461ZM14.9932 12H13.332V4.60352H14.9932V12ZM13.2295 2.68262C13.2295 2.42741 13.3092 2.21549 13.4688 2.04688C13.6328 1.87826 13.8652 1.79395 14.166 1.79395C14.4668 1.79395 14.6992 1.87826 14.8633 2.04688C15.0273 2.21549 15.1094 2.42741 15.1094 2.68262C15.1094 2.93327 15.0273 3.1429 14.8633 3.31152C14.6992 3.47559 14.4668 3.55762 14.166 3.55762C13.8652 3.55762 13.6328 3.47559 13.4688 3.31152C13.3092 3.1429 13.2295 2.93327 13.2295 2.68262ZM18.8896 2.80566V4.60352H20.1953V5.83398H18.8896V9.96289C18.8896 10.2454 18.9443 10.4505 19.0537 10.5781C19.1676 10.7012 19.3682 10.7627 19.6553 10.7627C19.8467 10.7627 20.0404 10.7399 20.2363 10.6943V11.9795C19.8581 12.0843 19.4935 12.1367 19.1426 12.1367C17.8665 12.1367 17.2285 11.4326 17.2285 10.0244V5.83398H16.0117V4.60352H17.2285V2.80566H18.8896ZM23.2373 12H21.5762V4.60352H23.2373V12ZM21.4736 2.68262C21.4736 2.42741 21.5534 2.21549 21.7129 2.04688C21.877 1.87826 22.1094 1.79395 22.4102 1.79395C22.7109 1.79395 22.9434 1.87826 23.1074 2.04688C23.2715 2.21549 23.3535 2.42741 23.3535 2.68262C23.3535 2.93327 23.2715 3.1429 23.1074 3.31152C22.9434 3.47559 22.7109 3.55762 22.4102 3.55762C22.1094 3.55762 21.877 3.47559 21.7129 3.31152C21.5534 3.1429 21.4736 2.93327 21.4736 2.68262ZM29.4717 12C29.3988 11.8587 29.335 11.6286 29.2803 11.3096C28.7516 11.861 28.1045 12.1367 27.3389 12.1367C26.596 12.1367 25.9899 11.9248 25.5205 11.501C25.0511 11.0771 24.8164 10.5531 24.8164 9.92871C24.8164 9.1403 25.1081 8.53646 25.6914 8.11719C26.2793 7.69336 27.1178 7.48145 28.207 7.48145H29.2256V6.99609C29.2256 6.61328 29.1185 6.30794 28.9043 6.08008C28.6901 5.84766 28.3643 5.73145 27.9268 5.73145C27.5485 5.73145 27.2386 5.82715 26.9971 6.01855C26.7555 6.2054 26.6348 6.44466 26.6348 6.73633H24.9736C24.9736 6.33073 25.1081 5.95247 25.377 5.60156C25.6458 5.24609 26.0104 4.9681 26.4707 4.76758C26.9355 4.56706 27.4528 4.4668 28.0225 4.4668C28.8883 4.4668 29.5788 4.68555 30.0938 5.12305C30.6087 5.55599 30.873 6.16667 30.8867 6.95508V10.291C30.8867 10.9564 30.9801 11.4873 31.167 11.8838V12H29.4717ZM27.6465 10.8037C27.9746 10.8037 28.2822 10.724 28.5693 10.5645C28.861 10.4049 29.0798 10.1908 29.2256 9.92188V8.52734H28.3301C27.7148 8.52734 27.2523 8.63444 26.9424 8.84863C26.6325 9.06283 26.4775 9.36589 26.4775 9.75781C26.4775 10.0768 26.5824 10.332 26.792 10.5234C27.0062 10.7103 27.291 10.8037 27.6465 10.8037ZM34.3936 12H32.7324V1.5H34.3936V12ZM42.3027 9.89453L43.8682 4.60352H45.584L43.0205 12H41.5781L38.9941 4.60352H40.7168L42.3027 9.89453ZM50.9365 12C50.8636 11.8587 50.7998 11.6286 50.7451 11.3096C50.2165 11.861 49.5693 12.1367 48.8037 12.1367C48.0609 12.1367 47.4548 11.9248 46.9854 11.501C46.516 11.0771 46.2812 10.5531 46.2812 9.92871C46.2812 9.1403 46.5729 8.53646 47.1562 8.11719C47.7441 7.69336 48.5827 7.48145 49.6719 7.48145H50.6904V6.99609C50.6904 6.61328 50.5833 6.30794 50.3691 6.08008C50.1549 5.84766 49.8291 5.73145 49.3916 5.73145C49.0133 5.73145 48.7035 5.82715 48.4619 6.01855C48.2204 6.2054 48.0996 6.44466 48.0996 6.73633H46.4385C46.4385 6.33073 46.5729 5.95247 46.8418 5.60156C47.1107 5.24609 47.4753 4.9681 47.9355 4.76758C48.4004 4.56706 48.9176 4.4668 49.4873 4.4668C50.3532 4.4668 51.0436 4.68555 51.5586 5.12305C52.0736 5.55599 52.3379 6.16667 52.3516 6.95508V10.291C52.3516 10.9564 52.445 11.4873 52.6318 11.8838V12H50.9365ZM49.1113 10.8037C49.4395 10.8037 49.7471 10.724 50.0342 10.5645C50.3258 10.4049 50.5446 10.1908 50.6904 9.92188V8.52734H49.7949C49.1797 8.52734 48.7171 8.63444 48.4072 8.84863C48.0973 9.06283 47.9424 9.36589 47.9424 9.75781C47.9424 10.0768 48.0472 10.332 48.2568 10.5234C48.471 10.7103 48.7559 10.8037 49.1113 10.8037ZM55.8584 12H54.1973V1.5H55.8584V12ZM62.1543 11.2754C61.6667 11.8496 60.974 12.1367 60.0762 12.1367C59.2741 12.1367 58.6657 11.902 58.251 11.4326C57.8408 10.9632 57.6357 10.2842 57.6357 9.39551V4.60352H59.2969V9.375C59.2969 10.3138 59.6865 10.7832 60.4658 10.7832C61.2725 10.7832 61.8171 10.4938 62.0996 9.91504V4.60352H63.7607V12H62.1953L62.1543 11.2754ZM68.71 12.1367C67.6572 12.1367 66.8027 11.8063 66.1465 11.1455C65.4948 10.4801 65.1689 9.59603 65.1689 8.49316V8.28809C65.1689 7.5498 65.3102 6.89128 65.5928 6.3125C65.8799 5.72917 66.2809 5.27572 66.7959 4.95215C67.3109 4.62858 67.8851 4.4668 68.5186 4.4668C69.5257 4.4668 70.3027 4.78809 70.8496 5.43066C71.401 6.07324 71.6768 6.98242 71.6768 8.1582V8.82812H66.8438C66.8939 9.4388 67.0967 9.92188 67.4521 10.2773C67.8122 10.6328 68.2633 10.8105 68.8057 10.8105C69.5667 10.8105 70.1865 10.5029 70.665 9.8877L71.5605 10.7422C71.2643 11.1842 70.8678 11.5283 70.3711 11.7744C69.8789 12.016 69.3252 12.1367 68.71 12.1367ZM68.5117 5.7998C68.056 5.7998 67.6868 5.95931 67.4043 6.27832C67.1263 6.59733 66.9486 7.04167 66.8711 7.61133H70.0361V7.48828C69.9997 6.93229 69.8516 6.51302 69.5918 6.23047C69.332 5.94336 68.972 5.7998 68.5117 5.7998Z" fill="#444444"/>
<path d="M180.707 136.128C180.317 136.519 179.683 136.519 179.293 136.128L172.929 129.764C172.538 129.374 172.538 128.74 172.929 128.35C173.319 127.959 173.953 127.959 174.343 128.35L180 134.007L185.657 128.35C186.047 127.959 186.681 127.959 187.071 128.35C187.462 128.74 187.462 129.374 187.071 129.764L180.707 136.128ZM179.293 25.8717C179.683 25.4812 180.317 25.4812 180.707 25.8717L187.071 32.2356C187.462 32.6262 187.462 33.2593 187.071 33.6499C186.681 34.0404 186.047 34.0404 185.657 33.6499L180 27.993L174.343 33.6499C173.953 34.0404 173.319 34.0404 172.929 33.6499C172.538 33.2593 172.538 32.6262 172.929 32.2356L179.293 25.8717ZM179 135.421V132.452H181V135.421H179ZM179 128.495V122.558H181V128.495H179ZM179 118.6V112.663H181V118.6H179ZM179 108.705V102.768H181V108.705H179ZM179 98.8104V92.8735H181V98.8104H179ZM179 88.9156V82.9788H181V88.9156H179ZM179 79.0209V73.0841H181V79.0209H179ZM179 69.1262V63.1893H181V69.1262H179ZM179 59.2314V53.2946H181V59.2314H179ZM179 49.3367V43.3998H181V49.3367H179ZM179 39.4419V33.5051H181V39.4419H179ZM179 29.5472V26.5788H181V29.5472H179Z" fill="#00986B"/>
<rect width="32" height="40" transform="translate(164 60)" fill="white"/>
<path d="M170.8 73.377C170.8 74.5254 170.542 75.4391 170.027 76.1182C169.517 76.7972 168.813 77.1367 167.915 77.1367C167.049 77.1367 166.375 76.8245 165.892 76.2002L165.81 77H164.306V66.5H165.967V70.3145C166.445 69.7493 167.09 69.4668 167.901 69.4668C168.804 69.4668 169.512 69.8018 170.027 70.4717C170.542 71.1416 170.8 72.0781 170.8 73.2812V73.377ZM169.139 73.2334C169.139 72.4313 168.997 71.8298 168.715 71.4287C168.432 71.0277 168.022 70.8271 167.484 70.8271C166.764 70.8271 166.258 71.1416 165.967 71.7705V74.8193C166.263 75.4619 166.773 75.7832 167.498 75.7832C168.018 75.7832 168.419 75.5895 168.701 75.2021C168.984 74.8148 169.13 74.2292 169.139 73.4453V73.2334ZM173.965 77H172.304V66.5H173.965V77ZM175.469 73.2334C175.469 72.5088 175.612 71.8571 175.899 71.2783C176.187 70.695 176.59 70.2484 177.109 69.9385C177.629 69.624 178.226 69.4668 178.9 69.4668C179.898 69.4668 180.707 69.7881 181.327 70.4307C181.951 71.0732 182.289 71.9255 182.339 72.9873L182.346 73.377C182.346 74.1061 182.204 74.7578 181.922 75.332C181.644 75.9062 181.243 76.3506 180.719 76.665C180.199 76.9795 179.598 77.1367 178.914 77.1367C177.87 77.1367 177.034 76.7904 176.405 76.0977C175.781 75.4004 175.469 74.473 175.469 73.3154V73.2334ZM177.13 73.377C177.13 74.138 177.287 74.735 177.602 75.168C177.916 75.5964 178.354 75.8105 178.914 75.8105C179.475 75.8105 179.91 75.5918 180.22 75.1543C180.534 74.7168 180.691 74.0765 180.691 73.2334C180.691 72.486 180.53 71.8936 180.206 71.4561C179.887 71.0186 179.452 70.7998 178.9 70.7998C178.358 70.7998 177.927 71.0163 177.608 71.4492C177.289 71.8776 177.13 72.5202 177.13 73.377ZM186.789 75.8105C187.204 75.8105 187.548 75.6898 187.821 75.4482C188.095 75.2067 188.241 74.9082 188.259 74.5527H189.824C189.806 75.013 189.662 75.4437 189.394 75.8447C189.125 76.2412 188.76 76.5557 188.3 76.7881C187.84 77.0205 187.343 77.1367 186.81 77.1367C185.775 77.1367 184.955 76.8018 184.349 76.1318C183.743 75.4619 183.439 74.5368 183.439 73.3564V73.1855C183.439 72.0599 183.74 71.1598 184.342 70.4854C184.943 69.8063 185.764 69.4668 186.803 69.4668C187.682 69.4668 188.398 69.7243 188.949 70.2393C189.505 70.7497 189.797 71.4219 189.824 72.2559H188.259C188.241 71.832 188.095 71.4834 187.821 71.21C187.552 70.9365 187.208 70.7998 186.789 70.7998C186.251 70.7998 185.837 70.9958 185.545 71.3877C185.253 71.7751 185.105 72.3652 185.101 73.1582V73.4248C185.101 74.2269 185.244 74.8262 185.531 75.2227C185.823 75.6146 186.242 75.8105 186.789 75.8105ZM193.481 73.8281L192.743 74.5869V77H191.082V66.5H192.743V72.5566L193.263 71.9072L195.307 69.6035H197.303L194.555 72.6865L197.597 77H195.676L193.481 73.8281ZM173.056 92C172.983 91.8587 172.919 91.6286 172.864 91.3096C172.336 91.861 171.688 92.1367 170.923 92.1367C170.18 92.1367 169.574 91.9248 169.104 91.501C168.635 91.0771 168.4 90.5531 168.4 89.9287C168.4 89.1403 168.692 88.5365 169.275 88.1172C169.863 87.6934 170.702 87.4814 171.791 87.4814H172.81V86.9961C172.81 86.6133 172.702 86.3079 172.488 86.0801C172.274 85.8477 171.948 85.7314 171.511 85.7314C171.132 85.7314 170.823 85.8271 170.581 86.0186C170.34 86.2054 170.219 86.4447 170.219 86.7363H168.558C168.558 86.3307 168.692 85.9525 168.961 85.6016C169.23 85.2461 169.594 84.9681 170.055 84.7676C170.52 84.5671 171.037 84.4668 171.606 84.4668C172.472 84.4668 173.163 84.6855 173.678 85.123C174.193 85.556 174.457 86.1667 174.471 86.9551V90.291C174.471 90.9564 174.564 91.4873 174.751 91.8838V92H173.056ZM171.23 90.8037C171.559 90.8037 171.866 90.724 172.153 90.5645C172.445 90.4049 172.664 90.1908 172.81 89.9219V88.5273H171.914C171.299 88.5273 170.836 88.6344 170.526 88.8486C170.216 89.0628 170.062 89.3659 170.062 89.7578C170.062 90.0768 170.166 90.332 170.376 90.5234C170.59 90.7103 170.875 90.8037 171.23 90.8037ZM178.866 87.0371L180.274 84.6035H182.12L179.857 88.2471L182.195 92H180.363L178.887 89.4707L177.417 92H175.571L177.909 88.2471L175.653 84.6035H177.485L178.866 87.0371ZM185.019 92H183.357V84.6035H185.019V92ZM183.255 82.6826C183.255 82.4274 183.335 82.2155 183.494 82.0469C183.658 81.8783 183.891 81.7939 184.191 81.7939C184.492 81.7939 184.725 81.8783 184.889 82.0469C185.053 82.2155 185.135 82.4274 185.135 82.6826C185.135 82.9333 185.053 83.1429 184.889 83.3115C184.725 83.4756 184.492 83.5576 184.191 83.5576C183.891 83.5576 183.658 83.4756 183.494 83.3115C183.335 83.1429 183.255 82.9333 183.255 82.6826ZM190.979 89.9902C190.979 89.694 190.856 89.4684 190.61 89.3135C190.369 89.1585 189.965 89.0218 189.4 88.9033C188.835 88.7848 188.364 88.6344 187.985 88.4521C187.156 88.0511 186.741 87.4701 186.741 86.709C186.741 86.071 187.01 85.5378 187.548 85.1094C188.086 84.681 188.769 84.4668 189.599 84.4668C190.483 84.4668 191.196 84.6855 191.738 85.123C192.285 85.5605 192.559 86.1279 192.559 86.8252H190.897C190.897 86.5062 190.779 86.2419 190.542 86.0322C190.305 85.818 189.991 85.7109 189.599 85.7109C189.234 85.7109 188.936 85.7952 188.703 85.9639C188.475 86.1325 188.361 86.3581 188.361 86.6406C188.361 86.8958 188.468 87.0941 188.683 87.2354C188.897 87.3766 189.33 87.5202 189.981 87.666C190.633 87.8073 191.144 87.9782 191.513 88.1787C191.886 88.3747 192.162 88.6117 192.34 88.8896C192.522 89.1676 192.613 89.5049 192.613 89.9014C192.613 90.5667 192.338 91.1068 191.786 91.5215C191.235 91.9316 190.512 92.1367 189.619 92.1367C189.013 92.1367 188.473 92.0273 187.999 91.8086C187.525 91.5898 187.156 91.2891 186.892 90.9062C186.627 90.5234 186.495 90.111 186.495 89.6689H188.108C188.131 90.0609 188.279 90.3639 188.553 90.5781C188.826 90.7878 189.188 90.8926 189.64 90.8926C190.077 90.8926 190.41 90.8105 190.638 90.6465C190.866 90.4779 190.979 90.2591 190.979 89.9902Z" fill="#00986B"/>
<path d="M162.854 153.707C163.244 153.317 163.244 152.683 162.854 152.293L156.49 145.929C156.099 145.538 155.466 145.538 155.075 145.929C154.685 146.319 154.685 146.953 155.075 147.343L160.732 153L155.075 158.657C154.685 159.047 154.685 159.681 155.075 160.071C155.466 160.462 156.099 160.462 156.49 160.071L162.854 153.707ZM1.14464 152.293C0.754118 152.683 0.754118 153.317 1.14464 153.707L7.5086 160.071C7.89913 160.462 8.53229 160.462 8.92282 160.071C9.31334 159.681 9.31334 159.047 8.92282 158.657L3.26596 153L8.92282 147.343C9.31334 146.953 9.31334 146.319 8.92282 145.929C8.53229 145.538 7.89913 145.538 7.5086 145.929L1.14464 152.293ZM162.146 152L159.141 152L159.141 154L162.146 154L162.146 152ZM155.134 152L149.123 152L149.123 154L155.134 154L155.134 152ZM145.115 152L139.104 152L139.104 154L145.115 154L145.115 152ZM135.097 152L129.086 152L129.086 154L135.097 154L135.097 152ZM125.078 152L119.067 152L119.067 154L125.078 154L125.078 152ZM115.06 152L109.049 152L109.049 154L115.06 154L115.06 152ZM105.041 152L99.0304 152L99.0304 154L105.041 154L105.041 152ZM95.0231 152L89.012 152L89.012 154L95.0231 154L95.0231 152ZM85.0046 152L78.9936 152L78.9936 154L85.0046 154L85.0046 152ZM74.9862 152L68.9752 152L68.9752 154L74.9862 154L74.9862 152ZM64.9678 152L58.9567 152L58.9567 154L64.9678 154L64.9678 152ZM54.9494 152L48.9383 152L48.9383 154L54.9494 154L54.9494 152ZM44.9309 152L38.9199 152L38.9199 154L44.9309 154L44.9309 152ZM34.9125 152L28.9015 152L28.9015 154L34.9125 154L34.9125 152ZM24.8941 152L18.883 152L18.883 154L24.8941 154L24.8941 152ZM14.8757 152L8.86462 152L8.86462 154L14.8757 154L14.8757 152ZM4.85726 152L1.85175 152L1.85175 154L4.85726 154L4.85726 152Z" fill="#1E73FF"/>
<rect width="70" height="18" transform="translate(47 144)" fill="white"/>
<path d="M53.7344 158H52.0732V150.604H53.7344V158ZM51.9707 148.683C51.9707 148.427 52.0505 148.215 52.21 148.047C52.374 147.878 52.6064 147.794 52.9072 147.794C53.208 147.794 53.4404 147.878 53.6045 148.047C53.7686 148.215 53.8506 148.427 53.8506 148.683C53.8506 148.933 53.7686 149.143 53.6045 149.312C53.4404 149.476 53.208 149.558 52.9072 149.558C52.6064 149.558 52.374 149.476 52.21 149.312C52.0505 149.143 51.9707 148.933 51.9707 148.683ZM57.0908 150.604L57.1387 151.458C57.6855 150.797 58.4033 150.467 59.292 150.467C60.8324 150.467 61.6162 151.349 61.6436 153.112V158H59.9824V153.208C59.9824 152.739 59.8799 152.392 59.6748 152.169C59.4743 151.941 59.1439 151.827 58.6836 151.827C58.0137 151.827 57.5146 152.13 57.1865 152.736V158H55.5254V150.604H57.0908ZM65.1094 158H63.4482V147.5H65.1094V158ZM68.6914 158H67.0303V150.604H68.6914V158ZM66.9277 148.683C66.9277 148.427 67.0075 148.215 67.167 148.047C67.3311 147.878 67.5635 147.794 67.8643 147.794C68.165 147.794 68.3975 147.878 68.5615 148.047C68.7256 148.215 68.8076 148.427 68.8076 148.683C68.8076 148.933 68.7256 149.143 68.5615 149.312C68.3975 149.476 68.165 149.558 67.8643 149.558C67.5635 149.558 67.3311 149.476 67.167 149.312C67.0075 149.143 66.9277 148.933 66.9277 148.683ZM72.0479 150.604L72.0957 151.458C72.6426 150.797 73.3604 150.467 74.249 150.467C75.7894 150.467 76.5732 151.349 76.6006 153.112V158H74.9395V153.208C74.9395 152.739 74.8369 152.392 74.6318 152.169C74.4313 151.941 74.1009 151.827 73.6406 151.827C72.9707 151.827 72.4717 152.13 72.1436 152.736V158H70.4824V150.604H72.0479ZM81.5566 158.137C80.5039 158.137 79.6494 157.806 78.9932 157.146C78.3415 156.48 78.0156 155.596 78.0156 154.493V154.288C78.0156 153.55 78.1569 152.891 78.4395 152.312C78.7266 151.729 79.1276 151.276 79.6426 150.952C80.1576 150.629 80.7318 150.467 81.3652 150.467C82.3724 150.467 83.1494 150.788 83.6963 151.431C84.2477 152.073 84.5234 152.982 84.5234 154.158V154.828H79.6904C79.7406 155.439 79.9434 155.922 80.2988 156.277C80.6589 156.633 81.11 156.811 81.6523 156.811C82.4134 156.811 83.0332 156.503 83.5117 155.888L84.4072 156.742C84.111 157.184 83.7145 157.528 83.2178 157.774C82.7256 158.016 82.1719 158.137 81.5566 158.137ZM81.3584 151.8C80.9027 151.8 80.5335 151.959 80.251 152.278C79.973 152.597 79.7952 153.042 79.7178 153.611H82.8828V153.488C82.8464 152.932 82.6982 152.513 82.4385 152.23C82.1787 151.943 81.8187 151.8 81.3584 151.8ZM93.7246 158C93.6517 157.859 93.5879 157.629 93.5332 157.31C93.0046 157.861 92.3574 158.137 91.5918 158.137C90.849 158.137 90.2428 157.925 89.7734 157.501C89.304 157.077 89.0693 156.553 89.0693 155.929C89.0693 155.14 89.361 154.536 89.9443 154.117C90.5322 153.693 91.3708 153.481 92.46 153.481H93.4785V152.996C93.4785 152.613 93.3714 152.308 93.1572 152.08C92.943 151.848 92.6172 151.731 92.1797 151.731C91.8014 151.731 91.4915 151.827 91.25 152.019C91.0085 152.205 90.8877 152.445 90.8877 152.736H89.2266C89.2266 152.331 89.361 151.952 89.6299 151.602C89.8988 151.246 90.2633 150.968 90.7236 150.768C91.1885 150.567 91.7057 150.467 92.2754 150.467C93.1413 150.467 93.8317 150.686 94.3467 151.123C94.8617 151.556 95.126 152.167 95.1396 152.955V156.291C95.1396 156.956 95.2331 157.487 95.4199 157.884V158H93.7246ZM91.8994 156.804C92.2275 156.804 92.5352 156.724 92.8223 156.564C93.1139 156.405 93.3327 156.191 93.4785 155.922V154.527H92.583C91.9678 154.527 91.5052 154.634 91.1953 154.849C90.8854 155.063 90.7305 155.366 90.7305 155.758C90.7305 156.077 90.8353 156.332 91.0449 156.523C91.2591 156.71 91.5439 156.804 91.8994 156.804ZM99.5352 153.037L100.943 150.604H102.789L100.526 154.247L102.864 158H101.032L99.5557 155.471L98.0859 158H96.2402L98.5781 154.247L96.3223 150.604H98.1543L99.5352 153.037ZM105.688 158H104.026V150.604H105.688V158ZM103.924 148.683C103.924 148.427 104.004 148.215 104.163 148.047C104.327 147.878 104.56 147.794 104.86 147.794C105.161 147.794 105.394 147.878 105.558 148.047C105.722 148.215 105.804 148.427 105.804 148.683C105.804 148.933 105.722 149.143 105.558 149.312C105.394 149.476 105.161 149.558 104.86 149.558C104.56 149.558 104.327 149.476 104.163 149.312C104.004 149.143 103.924 148.933 103.924 148.683ZM111.648 155.99C111.648 155.694 111.525 155.468 111.279 155.313C111.038 155.159 110.634 155.022 110.069 154.903C109.504 154.785 109.033 154.634 108.654 154.452C107.825 154.051 107.41 153.47 107.41 152.709C107.41 152.071 107.679 151.538 108.217 151.109C108.755 150.681 109.438 150.467 110.268 150.467C111.152 150.467 111.865 150.686 112.407 151.123C112.954 151.561 113.228 152.128 113.228 152.825H111.566C111.566 152.506 111.448 152.242 111.211 152.032C110.974 151.818 110.66 151.711 110.268 151.711C109.903 151.711 109.604 151.795 109.372 151.964C109.144 152.132 109.03 152.358 109.03 152.641C109.03 152.896 109.137 153.094 109.352 153.235C109.566 153.377 109.999 153.52 110.65 153.666C111.302 153.807 111.812 153.978 112.182 154.179C112.555 154.375 112.831 154.612 113.009 154.89C113.191 155.168 113.282 155.505 113.282 155.901C113.282 156.567 113.007 157.107 112.455 157.521C111.904 157.932 111.181 158.137 110.288 158.137C109.682 158.137 109.142 158.027 108.668 157.809C108.194 157.59 107.825 157.289 107.561 156.906C107.296 156.523 107.164 156.111 107.164 155.669H108.777C108.8 156.061 108.948 156.364 109.222 156.578C109.495 156.788 109.857 156.893 110.309 156.893C110.746 156.893 111.079 156.811 111.307 156.646C111.535 156.478 111.648 156.259 111.648 155.99Z" fill="#1E73FF"/>
<g opacity="0.75">
<rect width="67" height="38" transform="translate(6 31)" fill="#1E73FF"/>
</g>
<g opacity="0.75">
<rect width="67" height="59" transform="translate(6 72)" fill="#1E73FF"/>
</g>
<g opacity="0.75">
<rect width="80" height="38" transform="translate(76 31)" fill="#1E73FF"/>
</g>
<g opacity="0.75">
<rect width="80" height="59" transform="translate(76 72)" fill="#1E73FF"/>
</g>
<rect x="229" y="27" width="158" height="108" fill="#F7F7F7" stroke="#AAAAAA" stroke-width="2" stroke-dasharray="6 4"/>
<path d="M230.584 4.60352V12.6562C230.584 13.4128 230.395 13.9893 230.017 14.3857C229.643 14.7868 229.094 14.9873 228.369 14.9873C228.064 14.9873 227.77 14.9486 227.487 14.8711V13.5586C227.66 13.5996 227.856 13.6201 228.075 13.6201C228.627 13.6201 228.909 13.3193 228.923 12.7178V4.60352H230.584ZM228.779 2.68262C228.779 2.42741 228.859 2.21549 229.019 2.04688C229.183 1.87826 229.415 1.79395 229.716 1.79395C230.017 1.79395 230.249 1.87826 230.413 2.04688C230.577 2.21549 230.659 2.42741 230.659 2.68262C230.659 2.93327 230.577 3.1429 230.413 3.31152C230.249 3.47559 230.017 3.55762 229.716 3.55762C229.415 3.55762 229.183 3.47559 229.019 3.31152C228.859 3.1429 228.779 2.93327 228.779 2.68262ZM236.846 11.2754C236.358 11.8496 235.665 12.1367 234.768 12.1367C233.965 12.1367 233.357 11.902 232.942 11.4326C232.532 10.9632 232.327 10.2842 232.327 9.39551V4.60352H233.988V9.375C233.988 10.3138 234.378 10.7832 235.157 10.7832C235.964 10.7832 236.508 10.4938 236.791 9.91504V4.60352H238.452V12H236.887L236.846 11.2754ZM244.29 9.99023C244.29 9.69401 244.167 9.46842 243.921 9.31348C243.679 9.15853 243.276 9.02181 242.711 8.90332C242.146 8.78483 241.674 8.63444 241.296 8.45215C240.466 8.05111 240.052 7.47005 240.052 6.70898C240.052 6.07096 240.321 5.53776 240.858 5.10938C241.396 4.68099 242.08 4.4668 242.909 4.4668C243.793 4.4668 244.507 4.68555 245.049 5.12305C245.596 5.56055 245.869 6.12793 245.869 6.8252H244.208C244.208 6.50618 244.09 6.24186 243.853 6.03223C243.616 5.81803 243.301 5.71094 242.909 5.71094C242.545 5.71094 242.246 5.79525 242.014 5.96387C241.786 6.13249 241.672 6.35807 241.672 6.64062C241.672 6.89583 241.779 7.09408 241.993 7.23535C242.207 7.37663 242.64 7.52018 243.292 7.66602C243.944 7.80729 244.454 7.97819 244.823 8.17871C245.197 8.37467 245.473 8.61165 245.65 8.88965C245.833 9.16764 245.924 9.50488 245.924 9.90137C245.924 10.5667 245.648 11.1068 245.097 11.5215C244.545 11.9316 243.823 12.1367 242.93 12.1367C242.324 12.1367 241.784 12.0273 241.31 11.8086C240.836 11.5898 240.466 11.2891 240.202 10.9062C239.938 10.5234 239.806 10.111 239.806 9.66895H241.419C241.442 10.0609 241.59 10.3639 241.863 10.5781C242.137 10.7878 242.499 10.8926 242.95 10.8926C243.388 10.8926 243.72 10.8105 243.948 10.6465C244.176 10.4779 244.29 10.2591 244.29 9.99023ZM249.458 2.80566V4.60352H250.764V5.83398H249.458V9.96289C249.458 10.2454 249.513 10.4505 249.622 10.5781C249.736 10.7012 249.937 10.7627 250.224 10.7627C250.415 10.7627 250.609 10.7399 250.805 10.6943V11.9795C250.426 12.0843 250.062 12.1367 249.711 12.1367C248.435 12.1367 247.797 11.4326 247.797 10.0244V5.83398H246.58V4.60352H247.797V2.80566H249.458ZM253.806 12H252.145V4.60352H253.806V12ZM252.042 2.68262C252.042 2.42741 252.122 2.21549 252.281 2.04688C252.445 1.87826 252.678 1.79395 252.979 1.79395C253.279 1.79395 253.512 1.87826 253.676 2.04688C253.84 2.21549 253.922 2.42741 253.922 2.68262C253.922 2.93327 253.84 3.1429 253.676 3.31152C253.512 3.47559 253.279 3.55762 252.979 3.55762C252.678 3.55762 252.445 3.47559 252.281 3.31152C252.122 3.1429 252.042 2.93327 252.042 2.68262ZM256.205 12V5.83398H255.077V4.60352H256.205V3.92676C256.205 3.10645 256.433 2.47298 256.889 2.02637C257.344 1.57975 257.982 1.35645 258.803 1.35645C259.094 1.35645 259.404 1.39746 259.732 1.47949L259.691 2.77832C259.509 2.74186 259.297 2.72363 259.056 2.72363C258.263 2.72363 257.866 3.13151 257.866 3.94727V4.60352H259.37V5.83398H257.866V12H256.205ZM263.171 9.62109L264.675 4.60352H266.445L263.506 13.1211C263.055 14.3652 262.289 14.9873 261.209 14.9873C260.967 14.9873 260.701 14.9463 260.409 14.8643V13.5791L260.724 13.5996C261.143 13.5996 261.457 13.5221 261.667 13.3672C261.881 13.2168 262.05 12.9616 262.173 12.6016L262.412 11.9658L259.814 4.60352H261.605L263.171 9.62109ZM270.629 8.43848H267.04V7.09863H270.629V8.43848ZM273.767 12H272.105V4.60352H273.767V12ZM272.003 2.68262C272.003 2.42741 272.083 2.21549 272.242 2.04688C272.406 1.87826 272.639 1.79395 272.939 1.79395C273.24 1.79395 273.473 1.87826 273.637 2.04688C273.801 2.21549 273.883 2.42741 273.883 2.68262C273.883 2.93327 273.801 3.1429 273.637 3.31152C273.473 3.47559 273.24 3.55762 272.939 3.55762C272.639 3.55762 272.406 3.47559 272.242 3.31152C272.083 3.1429 272.003 2.93327 272.003 2.68262ZM277.663 2.80566V4.60352H278.969V5.83398H277.663V9.96289C277.663 10.2454 277.718 10.4505 277.827 10.5781C277.941 10.7012 278.142 10.7627 278.429 10.7627C278.62 10.7627 278.814 10.7399 279.01 10.6943V11.9795C278.632 12.0843 278.267 12.1367 277.916 12.1367C276.64 12.1367 276.002 11.4326 276.002 10.0244V5.83398H274.785V4.60352H276.002V2.80566H277.663ZM283.501 12.1367C282.448 12.1367 281.594 11.8063 280.938 11.1455C280.286 10.4801 279.96 9.59603 279.96 8.49316V8.28809C279.96 7.5498 280.101 6.89128 280.384 6.3125C280.671 5.72917 281.072 5.27572 281.587 4.95215C282.102 4.62858 282.676 4.4668 283.31 4.4668C284.317 4.4668 285.094 4.78809 285.641 5.43066C286.192 6.07324 286.468 6.98242 286.468 8.1582V8.82812H281.635C281.685 9.4388 281.888 9.92188 282.243 10.2773C282.603 10.6328 283.054 10.8105 283.597 10.8105C284.358 10.8105 284.978 10.5029 285.456 9.8877L286.352 10.7422C286.055 11.1842 285.659 11.5283 285.162 11.7744C284.67 12.016 284.116 12.1367 283.501 12.1367ZM283.303 5.7998C282.847 5.7998 282.478 5.95931 282.195 6.27832C281.917 6.59733 281.74 7.04167 281.662 7.61133H284.827V7.48828C284.791 6.93229 284.643 6.51302 284.383 6.23047C284.123 5.94336 283.763 5.7998 283.303 5.7998ZM289.325 4.60352L289.373 5.37598C289.893 4.76986 290.604 4.4668 291.506 4.4668C292.495 4.4668 293.172 4.84505 293.536 5.60156C294.074 4.84505 294.83 4.4668 295.806 4.4668C296.621 4.4668 297.228 4.69238 297.624 5.14355C298.025 5.59473 298.23 6.26009 298.239 7.13965V12H296.578V7.1875C296.578 6.7181 296.476 6.37402 296.271 6.15527C296.065 5.93652 295.726 5.82715 295.252 5.82715C294.874 5.82715 294.564 5.92969 294.322 6.13477C294.085 6.33529 293.919 6.59961 293.823 6.92773L293.83 12H292.169V7.13281C292.146 6.26237 291.702 5.82715 290.836 5.82715C290.171 5.82715 289.699 6.09831 289.421 6.64062V12H287.76V4.60352H289.325ZM304.091 9.99023C304.091 9.69401 303.968 9.46842 303.722 9.31348C303.48 9.15853 303.077 9.02181 302.512 8.90332C301.947 8.78483 301.475 8.63444 301.097 8.45215C300.267 8.05111 299.853 7.47005 299.853 6.70898C299.853 6.07096 300.121 5.53776 300.659 5.10938C301.197 4.68099 301.881 4.4668 302.71 4.4668C303.594 4.4668 304.307 4.68555 304.85 5.12305C305.396 5.56055 305.67 6.12793 305.67 6.8252H304.009C304.009 6.50618 303.89 6.24186 303.653 6.03223C303.416 5.81803 303.102 5.71094 302.71 5.71094C302.345 5.71094 302.047 5.79525 301.814 5.96387C301.587 6.13249 301.473 6.35807 301.473 6.64062C301.473 6.89583 301.58 7.09408 301.794 7.23535C302.008 7.37663 302.441 7.52018 303.093 7.66602C303.744 7.80729 304.255 7.97819 304.624 8.17871C304.998 8.37467 305.273 8.61165 305.451 8.88965C305.633 9.16764 305.725 9.50488 305.725 9.90137C305.725 10.5667 305.449 11.1068 304.897 11.5215C304.346 11.9316 303.624 12.1367 302.73 12.1367C302.124 12.1367 301.584 12.0273 301.11 11.8086C300.636 11.5898 300.267 11.2891 300.003 10.9062C299.739 10.5234 299.606 10.111 299.606 9.66895H301.22C301.243 10.0609 301.391 10.3639 301.664 10.5781C301.938 10.7878 302.3 10.8926 302.751 10.8926C303.188 10.8926 303.521 10.8105 303.749 10.6465C303.977 10.4779 304.091 10.2591 304.091 9.99023ZM308.179 10.25C308.489 10.25 308.728 10.3389 308.896 10.5166C309.065 10.6898 309.149 10.9085 309.149 11.1729C309.149 11.4326 309.065 11.6491 308.896 11.8223C308.728 11.9909 308.489 12.0752 308.179 12.0752C307.882 12.0752 307.648 11.9909 307.475 11.8223C307.301 11.6536 307.215 11.4372 307.215 11.1729C307.215 10.9085 307.299 10.6898 307.468 10.5166C307.636 10.3389 307.873 10.25 308.179 10.25ZM308.179 4.44629C308.489 4.44629 308.728 4.53516 308.896 4.71289C309.065 4.88607 309.149 5.10482 309.149 5.36914C309.149 5.62891 309.065 5.84538 308.896 6.01855C308.728 6.18717 308.489 6.27148 308.179 6.27148C307.882 6.27148 307.648 6.18717 307.475 6.01855C307.301 5.84993 307.215 5.63346 307.215 5.36914C307.215 5.10482 307.299 4.88607 307.468 4.71289C307.636 4.53516 307.873 4.44629 308.179 4.44629ZM344.635 4.44629C344.945 4.44629 345.184 4.53516 345.353 4.71289C345.521 4.88607 345.605 5.10482 345.605 5.36914C345.605 5.62891 345.521 5.84538 345.353 6.01855C345.184 6.18717 344.945 6.27148 344.635 6.27148C344.339 6.27148 344.104 6.18717 343.931 6.01855C343.757 5.84993 343.671 5.63346 343.671 5.36914C343.671 5.10482 343.755 4.88607 343.924 4.71289C344.092 4.53516 344.329 4.44629 344.635 4.44629ZM344.136 14.2422L343.24 13.709C343.505 13.2943 343.685 12.932 343.78 12.6221C343.881 12.3167 343.933 12.0046 343.938 11.6855V10.3936H345.435L345.428 11.5898C345.423 12.0729 345.3 12.556 345.059 13.0391C344.822 13.5267 344.514 13.9277 344.136 14.2422Z" fill="#444444"/>
<path d="M318.528 9.99023C318.528 9.69401 318.405 9.46842 318.159 9.31348C317.918 9.15853 317.514 9.02181 316.949 8.90332C316.384 8.78483 315.912 8.63444 315.534 8.45215C314.705 8.05111 314.29 7.47005 314.29 6.70898C314.29 6.07096 314.559 5.53776 315.097 5.10938C315.634 4.68099 316.318 4.4668 317.147 4.4668C318.032 4.4668 318.745 4.68555 319.287 5.12305C319.834 5.56055 320.107 6.12793 320.107 6.8252H318.446C318.446 6.50618 318.328 6.24186 318.091 6.03223C317.854 5.81803 317.539 5.71094 317.147 5.71094C316.783 5.71094 316.484 5.79525 316.252 5.96387C316.024 6.13249 315.91 6.35807 315.91 6.64062C315.91 6.89583 316.017 7.09408 316.231 7.23535C316.446 7.37663 316.879 7.52018 317.53 7.66602C318.182 7.80729 318.692 7.97819 319.062 8.17871C319.435 8.37467 319.711 8.61165 319.889 8.88965C320.071 9.16764 320.162 9.50488 320.162 9.90137C320.162 10.5667 319.886 11.1068 319.335 11.5215C318.784 11.9316 318.061 12.1367 317.168 12.1367C316.562 12.1367 316.022 12.0273 315.548 11.8086C315.074 11.5898 314.705 11.2891 314.44 10.9062C314.176 10.5234 314.044 10.111 314.044 9.66895H315.657C315.68 10.0609 315.828 10.3639 316.102 10.5781C316.375 10.7878 316.737 10.8926 317.188 10.8926C317.626 10.8926 317.959 10.8105 318.187 10.6465C318.414 10.4779 318.528 10.2591 318.528 9.99023ZM323.696 2.80566V4.60352H325.002V5.83398H323.696V9.96289C323.696 10.2454 323.751 10.4505 323.86 10.5781C323.974 10.7012 324.175 10.7627 324.462 10.7627C324.653 10.7627 324.847 10.7399 325.043 10.6943V11.9795C324.665 12.0843 324.3 12.1367 323.949 12.1367C322.673 12.1367 322.035 11.4326 322.035 10.0244V5.83398H320.818V4.60352H322.035V2.80566H323.696ZM330.696 12C330.623 11.8587 330.56 11.6286 330.505 11.3096C329.976 11.861 329.329 12.1367 328.563 12.1367C327.821 12.1367 327.215 11.9248 326.745 11.501C326.276 11.0771 326.041 10.5531 326.041 9.92871C326.041 9.1403 326.333 8.53646 326.916 8.11719C327.504 7.69336 328.342 7.48145 329.432 7.48145H330.45V6.99609C330.45 6.61328 330.343 6.30794 330.129 6.08008C329.915 5.84766 329.589 5.73145 329.151 5.73145C328.773 5.73145 328.463 5.82715 328.222 6.01855C327.98 6.2054 327.859 6.44466 327.859 6.73633H326.198C326.198 6.33073 326.333 5.95247 326.602 5.60156C326.87 5.24609 327.235 4.9681 327.695 4.76758C328.16 4.56706 328.677 4.4668 329.247 4.4668C330.113 4.4668 330.803 4.68555 331.318 5.12305C331.833 5.55599 332.098 6.16667 332.111 6.95508V10.291C332.111 10.9564 332.205 11.4873 332.392 11.8838V12H330.696ZM328.871 10.8037C329.199 10.8037 329.507 10.724 329.794 10.5645C330.086 10.4049 330.304 10.1908 330.45 9.92188V8.52734H329.555C328.939 8.52734 328.477 8.63444 328.167 8.84863C327.857 9.06283 327.702 9.36589 327.702 9.75781C327.702 10.0768 327.807 10.332 328.017 10.5234C328.231 10.7103 328.516 10.8037 328.871 10.8037ZM337.724 6.12109C337.505 6.08464 337.279 6.06641 337.047 6.06641C336.286 6.06641 335.773 6.35807 335.509 6.94141V12H333.848V4.60352H335.434L335.475 5.43066C335.876 4.78809 336.432 4.4668 337.143 4.4668C337.38 4.4668 337.576 4.4987 337.73 4.5625L337.724 6.12109ZM341.196 2.80566V4.60352H342.502V5.83398H341.196V9.96289C341.196 10.2454 341.251 10.4505 341.36 10.5781C341.474 10.7012 341.675 10.7627 341.962 10.7627C342.153 10.7627 342.347 10.7399 342.543 10.6943V11.9795C342.165 12.0843 341.8 12.1367 341.449 12.1367C340.173 12.1367 339.535 11.4326 339.535 10.0244V5.83398H338.318V4.60352H339.535V2.80566H341.196Z" fill="#1E73FF"/>
<path d="M407.707 136.128C407.317 136.519 406.683 136.519 406.293 136.128L399.929 129.764C399.538 129.374 399.538 128.74 399.929 128.35C400.319 127.959 400.953 127.959 401.343 128.35L407 134.007L412.657 128.35C413.047 127.959 413.681 127.959 414.071 128.35C414.462 128.74 414.462 129.374 414.071 129.764L407.707 136.128ZM406.293 25.8717C406.683 25.4812 407.317 25.4812 407.707 25.8717L414.071 32.2356C414.462 32.6262 414.462 33.2593 414.071 33.6499C413.681 34.0404 413.047 34.0404 412.657 33.6499L407 27.993L401.343 33.6499C400.953 34.0404 400.319 34.0404 399.929 33.6499C399.538 33.2593 399.538 32.6262 399.929 32.2356L406.293 25.8717ZM406 135.421V132.452H408V135.421H406ZM406 128.495V122.558H408V128.495H406ZM406 118.6V112.663H408V118.6H406ZM406 108.705V102.768H408V108.705H406ZM406 98.8104V92.8735H408V98.8104H406ZM406 88.9156V82.9788H408V88.9156H406ZM406 79.0209V73.0841H408V79.0209H406ZM406 69.1262V63.1893H408V69.1262H406ZM406 59.2314V53.2946H408V59.2314H406ZM406 49.3367V43.3998H408V49.3367H406ZM406 39.4419V33.5051H408V39.4419H406ZM406 29.5472V26.5788H408V29.5472H406Z" fill="#00986B"/>
<rect width="32" height="40" transform="translate(391 60)" fill="white"/>
<path d="M397.8 73.377C397.8 74.5254 397.542 75.4391 397.027 76.1182C396.517 76.7972 395.813 77.1367 394.915 77.1367C394.049 77.1367 393.375 76.8245 392.892 76.2002L392.81 77H391.306V66.5H392.967V70.3145C393.445 69.7493 394.09 69.4668 394.901 69.4668C395.804 69.4668 396.512 69.8018 397.027 70.4717C397.542 71.1416 397.8 72.0781 397.8 73.2812V73.377ZM396.139 73.2334C396.139 72.4313 395.997 71.8298 395.715 71.4287C395.432 71.0277 395.022 70.8271 394.484 70.8271C393.764 70.8271 393.258 71.1416 392.967 71.7705V74.8193C393.263 75.4619 393.773 75.7832 394.498 75.7832C395.018 75.7832 395.419 75.5895 395.701 75.2021C395.984 74.8148 396.13 74.2292 396.139 73.4453V73.2334ZM400.965 77H399.304V66.5H400.965V77ZM402.469 73.2334C402.469 72.5088 402.612 71.8571 402.899 71.2783C403.187 70.695 403.59 70.2484 404.109 69.9385C404.629 69.624 405.226 69.4668 405.9 69.4668C406.898 69.4668 407.707 69.7881 408.327 70.4307C408.951 71.0732 409.289 71.9255 409.339 72.9873L409.346 73.377C409.346 74.1061 409.204 74.7578 408.922 75.332C408.644 75.9062 408.243 76.3506 407.719 76.665C407.199 76.9795 406.598 77.1367 405.914 77.1367C404.87 77.1367 404.034 76.7904 403.405 76.0977C402.781 75.4004 402.469 74.473 402.469 73.3154V73.2334ZM404.13 73.377C404.13 74.138 404.287 74.735 404.602 75.168C404.916 75.5964 405.354 75.8105 405.914 75.8105C406.475 75.8105 406.91 75.5918 407.22 75.1543C407.534 74.7168 407.691 74.0765 407.691 73.2334C407.691 72.486 407.53 71.8936 407.206 71.4561C406.887 71.0186 406.452 70.7998 405.9 70.7998C405.358 70.7998 404.927 71.0163 404.608 71.4492C404.289 71.8776 404.13 72.5202 404.13 73.377ZM413.789 75.8105C414.204 75.8105 414.548 75.6898 414.821 75.4482C415.095 75.2067 415.241 74.9082 415.259 74.5527H416.824C416.806 75.013 416.662 75.4437 416.394 75.8447C416.125 76.2412 415.76 76.5557 415.3 76.7881C414.84 77.0205 414.343 77.1367 413.81 77.1367C412.775 77.1367 411.955 76.8018 411.349 76.1318C410.743 75.4619 410.439 74.5368 410.439 73.3564V73.1855C410.439 72.0599 410.74 71.1598 411.342 70.4854C411.943 69.8063 412.764 69.4668 413.803 69.4668C414.682 69.4668 415.398 69.7243 415.949 70.2393C416.505 70.7497 416.797 71.4219 416.824 72.2559H415.259C415.241 71.832 415.095 71.4834 414.821 71.21C414.552 70.9365 414.208 70.7998 413.789 70.7998C413.251 70.7998 412.837 70.9958 412.545 71.3877C412.253 71.7751 412.105 72.3652 412.101 73.1582V73.4248C412.101 74.2269 412.244 74.8262 412.531 75.2227C412.823 75.6146 413.242 75.8105 413.789 75.8105ZM420.481 73.8281L419.743 74.5869V77H418.082V66.5H419.743V72.5566L420.263 71.9072L422.307 69.6035H424.303L421.555 72.6865L424.597 77H422.676L420.481 73.8281ZM400.056 92C399.983 91.8587 399.919 91.6286 399.864 91.3096C399.336 91.861 398.688 92.1367 397.923 92.1367C397.18 92.1367 396.574 91.9248 396.104 91.501C395.635 91.0771 395.4 90.5531 395.4 89.9287C395.4 89.1403 395.692 88.5365 396.275 88.1172C396.863 87.6934 397.702 87.4814 398.791 87.4814H399.81V86.9961C399.81 86.6133 399.702 86.3079 399.488 86.0801C399.274 85.8477 398.948 85.7314 398.511 85.7314C398.132 85.7314 397.823 85.8271 397.581 86.0186C397.34 86.2054 397.219 86.4447 397.219 86.7363H395.558C395.558 86.3307 395.692 85.9525 395.961 85.6016C396.23 85.2461 396.594 84.9681 397.055 84.7676C397.52 84.5671 398.037 84.4668 398.606 84.4668C399.472 84.4668 400.163 84.6855 400.678 85.123C401.193 85.556 401.457 86.1667 401.471 86.9551V90.291C401.471 90.9564 401.564 91.4873 401.751 91.8838V92H400.056ZM398.23 90.8037C398.559 90.8037 398.866 90.724 399.153 90.5645C399.445 90.4049 399.664 90.1908 399.81 89.9219V88.5273H398.914C398.299 88.5273 397.836 88.6344 397.526 88.8486C397.216 89.0628 397.062 89.3659 397.062 89.7578C397.062 90.0768 397.166 90.332 397.376 90.5234C397.59 90.7103 397.875 90.8037 398.23 90.8037ZM405.866 87.0371L407.274 84.6035H409.12L406.857 88.2471L409.195 92H407.363L405.887 89.4707L404.417 92H402.571L404.909 88.2471L402.653 84.6035H404.485L405.866 87.0371ZM412.019 92H410.357V84.6035H412.019V92ZM410.255 82.6826C410.255 82.4274 410.335 82.2155 410.494 82.0469C410.658 81.8783 410.891 81.7939 411.191 81.7939C411.492 81.7939 411.725 81.8783 411.889 82.0469C412.053 82.2155 412.135 82.4274 412.135 82.6826C412.135 82.9333 412.053 83.1429 411.889 83.3115C411.725 83.4756 411.492 83.5576 411.191 83.5576C410.891 83.5576 410.658 83.4756 410.494 83.3115C410.335 83.1429 410.255 82.9333 410.255 82.6826ZM417.979 89.9902C417.979 89.694 417.856 89.4684 417.61 89.3135C417.369 89.1585 416.965 89.0218 416.4 88.9033C415.835 88.7848 415.364 88.6344 414.985 88.4521C414.156 88.0511 413.741 87.4701 413.741 86.709C413.741 86.071 414.01 85.5378 414.548 85.1094C415.086 84.681 415.769 84.4668 416.599 84.4668C417.483 84.4668 418.196 84.6855 418.738 85.123C419.285 85.5605 419.559 86.1279 419.559 86.8252H417.897C417.897 86.5062 417.779 86.2419 417.542 86.0322C417.305 85.818 416.991 85.7109 416.599 85.7109C416.234 85.7109 415.936 85.7952 415.703 85.9639C415.475 86.1325 415.361 86.3581 415.361 86.6406C415.361 86.8958 415.468 87.0941 415.683 87.2354C415.897 87.3766 416.33 87.5202 416.981 87.666C417.633 87.8073 418.144 87.9782 418.513 88.1787C418.886 88.3747 419.162 88.6117 419.34 88.8896C419.522 89.1676 419.613 89.5049 419.613 89.9014C419.613 90.5667 419.338 91.1068 418.786 91.5215C418.235 91.9316 417.512 92.1367 416.619 92.1367C416.013 92.1367 415.473 92.0273 414.999 91.8086C414.525 91.5898 414.156 91.2891 413.892 90.9062C413.627 90.5234 413.495 90.111 413.495 89.6689H415.108C415.131 90.0609 415.279 90.3639 415.553 90.5781C415.826 90.7878 416.188 90.8926 416.64 90.8926C417.077 90.8926 417.41 90.8105 417.638 90.6465C417.866 90.4779 417.979 90.2591 417.979 89.9902Z" fill="#00986B"/>
<path d="M389.854 153.707C390.244 153.317 390.244 152.683 389.854 152.293L383.49 145.929C383.099 145.538 382.466 145.538 382.075 145.929C381.685 146.319 381.685 146.953 382.075 147.343L387.732 153L382.075 158.657C381.685 159.047 381.685 159.681 382.075 160.071C382.466 160.462 383.099 160.462 383.49 160.071L389.854 153.707ZM228.145 152.293C227.754 152.683 227.754 153.317 228.145 153.707L234.509 160.071C234.899 160.462 235.532 160.462 235.923 160.071C236.313 159.681 236.313 159.047 235.923 158.657L230.266 153L235.923 147.343C236.313 146.953 236.313 146.319 235.923 145.929C235.532 145.538 234.899 145.538 234.509 145.929L228.145 152.293ZM389.146 152L386.141 152L386.141 154L389.146 154L389.146 152ZM382.134 152L376.123 152L376.123 154L382.134 154L382.134 152ZM372.115 152L366.104 152L366.104 154L372.115 154L372.115 152ZM362.097 152L356.086 152L356.086 154L362.097 154L362.097 152ZM352.078 152L346.067 152L346.067 154L352.078 154L352.078 152ZM342.06 152L336.049 152L336.049 154L342.06 154L342.06 152ZM332.041 152L326.03 152L326.03 154L332.041 154L332.041 152ZM322.023 152L316.012 152L316.012 154L322.023 154L322.023 152ZM312.005 152L305.994 152L305.994 154L312.005 154L312.005 152ZM301.986 152L295.975 152L295.975 154L301.986 154L301.986 152ZM291.968 152L285.957 152L285.957 154L291.968 154L291.968 152ZM281.949 152L275.938 152L275.938 154L281.949 154L281.949 152ZM271.931 152L265.92 152L265.92 154L271.931 154L271.931 152ZM261.913 152L255.901 152L255.901 154L261.913 154L261.913 152ZM251.894 152L245.883 152L245.883 154L251.894 154L251.894 152ZM241.876 152L235.865 152L235.865 154L241.876 154L241.876 152ZM231.857 152L228.852 152L228.852 154L231.857 154L231.857 152Z" fill="#1E73FF"/>
<rect width="70" height="18" transform="translate(274 144)" fill="white"/>
<path d="M280.734 158H279.073V150.604H280.734V158ZM278.971 148.683C278.971 148.427 279.05 148.215 279.21 148.047C279.374 147.878 279.606 147.794 279.907 147.794C280.208 147.794 280.44 147.878 280.604 148.047C280.769 148.215 280.851 148.427 280.851 148.683C280.851 148.933 280.769 149.143 280.604 149.312C280.44 149.476 280.208 149.558 279.907 149.558C279.606 149.558 279.374 149.476 279.21 149.312C279.05 149.143 278.971 148.933 278.971 148.683ZM284.091 150.604L284.139 151.458C284.686 150.797 285.403 150.467 286.292 150.467C287.832 150.467 288.616 151.349 288.644 153.112V158H286.982V153.208C286.982 152.739 286.88 152.392 286.675 152.169C286.474 151.941 286.144 151.827 285.684 151.827C285.014 151.827 284.515 152.13 284.187 152.736V158H282.525V150.604H284.091ZM292.109 158H290.448V147.5H292.109V158ZM295.691 158H294.03V150.604H295.691V158ZM293.928 148.683C293.928 148.427 294.007 148.215 294.167 148.047C294.331 147.878 294.563 147.794 294.864 147.794C295.165 147.794 295.397 147.878 295.562 148.047C295.726 148.215 295.808 148.427 295.808 148.683C295.808 148.933 295.726 149.143 295.562 149.312C295.397 149.476 295.165 149.558 294.864 149.558C294.563 149.558 294.331 149.476 294.167 149.312C294.007 149.143 293.928 148.933 293.928 148.683ZM299.048 150.604L299.096 151.458C299.643 150.797 300.36 150.467 301.249 150.467C302.789 150.467 303.573 151.349 303.601 153.112V158H301.939V153.208C301.939 152.739 301.837 152.392 301.632 152.169C301.431 151.941 301.101 151.827 300.641 151.827C299.971 151.827 299.472 152.13 299.144 152.736V158H297.482V150.604H299.048ZM308.557 158.137C307.504 158.137 306.649 157.806 305.993 157.146C305.341 156.48 305.016 155.596 305.016 154.493V154.288C305.016 153.55 305.157 152.891 305.439 152.312C305.727 151.729 306.128 151.276 306.643 150.952C307.158 150.629 307.732 150.467 308.365 150.467C309.372 150.467 310.149 150.788 310.696 151.431C311.248 152.073 311.523 152.982 311.523 154.158V154.828H306.69C306.741 155.439 306.943 155.922 307.299 156.277C307.659 156.633 308.11 156.811 308.652 156.811C309.413 156.811 310.033 156.503 310.512 155.888L311.407 156.742C311.111 157.184 310.715 157.528 310.218 157.774C309.726 158.016 309.172 158.137 308.557 158.137ZM308.358 151.8C307.903 151.8 307.534 151.959 307.251 152.278C306.973 152.597 306.795 153.042 306.718 153.611H309.883V153.488C309.846 152.932 309.698 152.513 309.438 152.23C309.179 151.943 308.819 151.8 308.358 151.8ZM320.725 158C320.652 157.859 320.588 157.629 320.533 157.31C320.005 157.861 319.357 158.137 318.592 158.137C317.849 158.137 317.243 157.925 316.773 157.501C316.304 157.077 316.069 156.553 316.069 155.929C316.069 155.14 316.361 154.536 316.944 154.117C317.532 153.693 318.371 153.481 319.46 153.481H320.479V152.996C320.479 152.613 320.371 152.308 320.157 152.08C319.943 151.848 319.617 151.731 319.18 151.731C318.801 151.731 318.492 151.827 318.25 152.019C318.008 152.205 317.888 152.445 317.888 152.736H316.227C316.227 152.331 316.361 151.952 316.63 151.602C316.899 151.246 317.263 150.968 317.724 150.768C318.188 150.567 318.706 150.467 319.275 150.467C320.141 150.467 320.832 150.686 321.347 151.123C321.862 151.556 322.126 152.167 322.14 152.955V156.291C322.14 156.956 322.233 157.487 322.42 157.884V158H320.725ZM318.899 156.804C319.228 156.804 319.535 156.724 319.822 156.564C320.114 156.405 320.333 156.191 320.479 155.922V154.527H319.583C318.968 154.527 318.505 154.634 318.195 154.849C317.885 155.063 317.73 155.366 317.73 155.758C317.73 156.077 317.835 156.332 318.045 156.523C318.259 156.71 318.544 156.804 318.899 156.804ZM326.535 153.037L327.943 150.604H329.789L327.526 154.247L329.864 158H328.032L326.556 155.471L325.086 158H323.24L325.578 154.247L323.322 150.604H325.154L326.535 153.037ZM332.688 158H331.026V150.604H332.688V158ZM330.924 148.683C330.924 148.427 331.004 148.215 331.163 148.047C331.327 147.878 331.56 147.794 331.86 147.794C332.161 147.794 332.394 147.878 332.558 148.047C332.722 148.215 332.804 148.427 332.804 148.683C332.804 148.933 332.722 149.143 332.558 149.312C332.394 149.476 332.161 149.558 331.86 149.558C331.56 149.558 331.327 149.476 331.163 149.312C331.004 149.143 330.924 148.933 330.924 148.683ZM338.648 155.99C338.648 155.694 338.525 155.468 338.279 155.313C338.038 155.159 337.634 155.022 337.069 154.903C336.504 154.785 336.033 154.634 335.654 154.452C334.825 154.051 334.41 153.47 334.41 152.709C334.41 152.071 334.679 151.538 335.217 151.109C335.755 150.681 336.438 150.467 337.268 150.467C338.152 150.467 338.865 150.686 339.407 151.123C339.954 151.561 340.228 152.128 340.228 152.825H338.566C338.566 152.506 338.448 152.242 338.211 152.032C337.974 151.818 337.66 151.711 337.268 151.711C336.903 151.711 336.604 151.795 336.372 151.964C336.144 152.132 336.03 152.358 336.03 152.641C336.03 152.896 336.137 153.094 336.352 153.235C336.566 153.377 336.999 153.52 337.65 153.666C338.302 153.807 338.812 153.978 339.182 154.179C339.555 154.375 339.831 154.612 340.009 154.89C340.191 155.168 340.282 155.505 340.282 155.901C340.282 156.567 340.007 157.107 339.455 157.521C338.904 157.932 338.181 158.137 337.288 158.137C336.682 158.137 336.142 158.027 335.668 157.809C335.194 157.59 334.825 157.289 334.561 156.906C334.296 156.523 334.164 156.111 334.164 155.669H335.777C335.8 156.061 335.948 156.364 336.222 156.578C336.495 156.788 336.857 156.893 337.309 156.893C337.746 156.893 338.079 156.811 338.307 156.646C338.535 156.478 338.648 156.259 338.648 155.99Z" fill="#1E73FF"/>
<g opacity="0.75">
<rect width="51" height="38" transform="translate(233 31)" fill="#1E73FF"/>
</g>
<g opacity="0.75">
<rect width="23" height="59" transform="translate(233 72)" fill="#1E73FF"/>
</g>
<g opacity="0.75">
<rect width="44" height="38" transform="translate(303 31)" fill="#1E73FF"/>
</g>
<g opacity="0.75">
<rect width="54" height="59" transform="translate(303 72)" fill="#1E73FF"/>
</g>
</svg>
