<svg width="578" height="174" viewBox="0 0 578 174" fill="none" xmlns="http://www.w3.org/2000/svg">
<rect width="578" height="174" fill="#F7F7F7"/>
<path d="M37 167C37 168.105 36.1046 169 35 169L21 169C19.8954 169 19 168.105 19 167L19 157.814C19 157.283 19.2112 156.774 19.587 156.399L26.587 149.411C27.3678 148.631 28.6323 148.631 29.413 149.411L36.413 156.399C36.7888 156.774 37 157.283 37 157.814L37 167Z" fill="#DDDDDD"/>
<path d="M22.7031 161.947H19.627V160.799H22.7031V161.947ZM27.6426 165H26.2246V158.15L24.1328 158.865V157.664L27.4609 156.439H27.6426V165ZM34.4629 165H33.0449V158.15L30.9531 158.865V157.664L34.2812 156.439H34.4629V165Z" fill="white"/>
<path d="M166 167C166 168.105 165.105 169 164 169L150 169C148.895 169 148 168.105 148 167L148 157.814C148 157.283 148.211 156.774 148.587 156.399L155.587 149.411C156.368 148.631 157.632 148.631 158.413 149.411L165.413 156.399C165.789 156.774 166 157.283 166 157.814L166 167Z" fill="#DDDDDD"/>
<path d="M151.703 161.947H148.627V160.799H151.703V161.947ZM156.643 165H155.225V158.15L153.133 158.865V157.664L156.461 156.439H156.643V165ZM165.168 161.408C165.168 162.635 164.938 163.561 164.477 164.186C164.02 164.807 163.322 165.117 162.385 165.117C161.463 165.117 160.768 164.814 160.299 164.209C159.834 163.6 159.596 162.699 159.584 161.508V160.031C159.584 158.805 159.812 157.885 160.27 157.271C160.73 156.658 161.432 156.352 162.373 156.352C163.307 156.352 164.002 156.65 164.459 157.248C164.92 157.846 165.156 158.74 165.168 159.932V161.408ZM163.744 159.814C163.744 159.014 163.635 158.428 163.416 158.057C163.197 157.682 162.85 157.494 162.373 157.494C161.908 157.494 161.566 157.672 161.348 158.027C161.129 158.379 161.014 158.93 161.002 159.68V161.613C161.002 162.41 161.113 163.004 161.336 163.395C161.559 163.785 161.908 163.98 162.385 163.98C162.842 163.98 163.18 163.801 163.398 163.441C163.617 163.078 163.732 162.512 163.744 161.742V159.814Z" fill="white"/>
<path d="M298 167C298 168.105 297.105 169 296 169L282 169C280.895 169 280 168.105 280 167L280 157.814C280 157.283 280.211 156.774 280.587 156.399L287.587 149.411C288.368 148.631 289.632 148.631 290.413 149.411L297.413 156.399C297.789 156.774 298 157.283 298 157.814L298 167Z" fill="#DDDDDD"/>
<path d="M287.113 161.947H284.037V160.799H287.113V161.947ZM292.627 156.428V157.605H292.451C291.654 157.617 291.018 157.836 290.541 158.262C290.064 158.688 289.781 159.291 289.691 160.072C290.148 159.592 290.732 159.352 291.443 159.352C292.197 159.352 292.791 159.617 293.225 160.148C293.662 160.68 293.881 161.365 293.881 162.205C293.881 163.072 293.625 163.775 293.113 164.314C292.605 164.85 291.938 165.117 291.109 165.117C290.258 165.117 289.566 164.803 289.035 164.174C288.508 163.545 288.244 162.721 288.244 161.701V161.215C288.244 159.719 288.607 158.547 289.334 157.699C290.064 156.852 291.113 156.428 292.48 156.428H292.627ZM291.098 160.5C290.785 160.5 290.498 160.588 290.236 160.764C289.979 160.939 289.789 161.174 289.668 161.467V161.9C289.668 162.533 289.801 163.037 290.066 163.412C290.332 163.783 290.676 163.969 291.098 163.969C291.52 163.969 291.854 163.811 292.1 163.494C292.346 163.178 292.469 162.762 292.469 162.246C292.469 161.73 292.344 161.311 292.094 160.986C291.844 160.662 291.512 160.5 291.098 160.5Z" fill="white"/>
<path d="M430 167C430 168.105 429.105 169 428 169L414 169C412.895 169 412 168.105 412 167L412 157.814C412 157.283 412.211 156.774 412.587 156.399L419.587 149.411C420.368 148.631 421.632 148.631 422.413 149.411L429.413 156.399C429.789 156.774 430 157.283 430 157.814L430 167Z" fill="#DDDDDD"/>
<path d="M419.113 161.947H416.037V160.799H419.113V161.947ZM420.578 160.77L421.041 156.469H425.623V157.699H422.225L421.99 159.738C422.385 159.512 422.83 159.398 423.326 159.398C424.139 159.398 424.77 159.658 425.219 160.178C425.672 160.697 425.898 161.396 425.898 162.275C425.898 163.143 425.648 163.834 425.148 164.35C424.648 164.861 423.963 165.117 423.092 165.117C422.311 165.117 421.662 164.896 421.146 164.455C420.635 164.01 420.357 163.424 420.314 162.697H421.691C421.746 163.111 421.895 163.43 422.137 163.652C422.379 163.871 422.695 163.98 423.086 163.98C423.523 163.98 423.863 163.824 424.105 163.512C424.352 163.199 424.475 162.773 424.475 162.234C424.475 161.715 424.34 161.305 424.07 161.004C423.801 160.699 423.43 160.547 422.957 160.547C422.699 160.547 422.48 160.582 422.301 160.652C422.121 160.719 421.926 160.852 421.715 161.051L420.578 160.77Z" fill="white"/>
<path d="M559 167C559 168.105 558.105 169 557 169L543 169C541.895 169 541 168.105 541 167L541 157.814C541 157.283 541.211 156.774 541.587 156.399L548.587 149.411C549.368 148.631 550.632 148.631 551.413 149.411L558.413 156.399C558.789 156.774 559 157.283 559 157.814L559 167Z" fill="#DDDDDD"/>
<path d="M548.113 161.947H545.037V160.799H548.113V161.947ZM553.053 165H551.635V158.15L549.543 158.865V157.664L552.871 156.439H553.053V165Z" fill="white"/>
<path d="M19 7C19 5.89543 19.8954 5 21 5H35C36.1046 5 37 5.89543 37 7V16.1857C37 16.7167 36.7888 17.2259 36.413 17.6011L29.413 24.5894C28.6323 25.3688 27.3677 25.3688 26.587 24.5894L19.587 17.6011C19.2112 17.2259 19 16.7167 19 16.1857V7Z" fill="#CCCCCC"/>
<path d="M29.084 17H27.666V10.1504L25.5742 10.8652V9.66406L28.9023 8.43945H29.084V17Z" fill="white"/>
<path d="M148 7C148 5.89543 148.895 5 150 5H164C165.105 5 166 5.89543 166 7V16.1857C166 16.7167 165.789 17.2259 165.413 17.6011L158.413 24.5894C157.632 25.3688 156.368 25.3688 155.587 24.5894L148.587 17.6011C148.211 17.2259 148 16.7167 148 16.1857V7Z" fill="#CCCCCC"/>
<path d="M159.965 17H154.229V16.0215L157.07 12.9219C157.48 12.4648 157.771 12.084 157.943 11.7793C158.119 11.4707 158.207 11.1621 158.207 10.8535C158.207 10.4473 158.092 10.1191 157.861 9.86914C157.635 9.61914 157.328 9.49414 156.941 9.49414C156.48 9.49414 156.123 9.63477 155.869 9.91602C155.615 10.1973 155.488 10.582 155.488 11.0703H154.064C154.064 10.5508 154.182 10.084 154.416 9.66992C154.654 9.25195 154.992 8.92773 155.43 8.69727C155.871 8.4668 156.379 8.35156 156.953 8.35156C157.781 8.35156 158.434 8.56055 158.91 8.97852C159.391 9.39258 159.631 9.9668 159.631 10.7012C159.631 11.127 159.51 11.5742 159.268 12.043C159.029 12.5078 158.637 13.0371 158.09 13.6309L156.004 15.8633H159.965V17Z" fill="white"/>
<path d="M280 7C280 5.89543 280.895 5 282 5H296C297.105 5 298 5.89543 298 7V16.1857C298 16.7167 297.789 17.2259 297.413 17.6011L290.413 24.5894C289.632 25.3688 288.368 25.3688 287.587 24.5894L280.587 17.6011C280.211 17.2259 280 16.7167 280 16.1857V7Z" fill="#CCCCCC"/>
<path d="M287.875 12.084H288.742C289.18 12.0801 289.525 11.9668 289.779 11.7441C290.037 11.5215 290.166 11.1992 290.166 10.7773C290.166 10.3711 290.059 10.0566 289.844 9.83398C289.633 9.60742 289.309 9.49414 288.871 9.49414C288.488 9.49414 288.174 9.60547 287.928 9.82812C287.682 10.0469 287.559 10.334 287.559 10.6895H286.135C286.135 10.252 286.25 9.85352 286.48 9.49414C286.715 9.13477 287.039 8.85547 287.453 8.65625C287.871 8.45312 288.338 8.35156 288.854 8.35156C289.705 8.35156 290.373 8.56641 290.857 8.99609C291.346 9.42188 291.59 10.0156 291.59 10.7773C291.59 11.1602 291.467 11.5215 291.221 11.8613C290.979 12.1973 290.664 12.4512 290.277 12.623C290.746 12.7832 291.102 13.0352 291.344 13.3789C291.59 13.7227 291.713 14.1328 291.713 14.6094C291.713 15.375 291.449 15.9844 290.922 16.4375C290.398 16.8906 289.709 17.1172 288.854 17.1172C288.033 17.1172 287.361 16.8984 286.838 16.4609C286.314 16.0234 286.053 15.4414 286.053 14.7148H287.477C287.477 15.0898 287.602 15.3945 287.852 15.6289C288.105 15.8633 288.445 15.9805 288.871 15.9805C289.312 15.9805 289.66 15.8633 289.914 15.6289C290.168 15.3945 290.295 15.0547 290.295 14.6094C290.295 14.1602 290.162 13.8145 289.896 13.5723C289.631 13.3301 289.236 13.209 288.713 13.209H287.875V12.084Z" fill="white"/>
<path d="M412 7C412 5.89543 412.895 5 414 5H428C429.105 5 430 5.89543 430 7V16.1857C430 16.7167 429.789 17.2259 429.413 17.6011L422.413 24.5894C421.632 25.3688 420.368 25.3688 419.587 24.5894L412.587 17.6011C412.211 17.2259 412 16.7167 412 16.1857V7Z" fill="#CCCCCC"/>
<path d="M423.045 13.959H424.105V15.1016H423.045V17H421.621V15.1016H417.936L417.895 14.2344L421.574 8.46875H423.045V13.959ZM419.389 13.959H421.621V10.3965L421.516 10.584L419.389 13.959Z" fill="white"/>
<path d="M541 7C541 5.89543 541.895 5 543 5H557C558.105 5 559 5.89543 559 7V16.1857C559 16.7167 558.789 17.2259 558.413 17.6011L551.413 24.5894C550.632 25.3688 549.368 25.3688 548.587 24.5894L541.587 17.6011C541.211 17.2259 541 16.7167 541 16.1857V7Z" fill="#CCCCCC"/>
<path d="M547.674 17H546.256V10.1504L544.164 10.8652V9.66406L547.492 8.43945H547.674V17ZM554.494 17H553.076V10.1504L550.984 10.8652V9.66406L554.312 8.43945H554.494V17Z" fill="white"/>
<path d="M7 37C5.89543 37 5 36.1046 5 35L5 21C5 19.8954 5.89543 19 7 19L16.1857 19C16.7167 19 17.2259 19.2112 17.6011 19.587L24.5894 26.587C25.3688 27.3677 25.3688 28.6323 24.5894 29.413L17.6011 36.413C17.2259 36.7888 16.7167 37 16.1857 37L7 37Z" fill="#CCCCCC"/>
<path d="M14.084 32H12.666V25.1504L10.5742 25.8652V24.6641L13.9023 23.4395H14.084V32Z" fill="white"/>
<path d="M7 96C5.89543 96 5 95.1046 5 94L5 80C5 78.8954 5.89543 78 7 78L16.1857 78C16.7167 78 17.2259 78.2112 17.6011 78.587L24.5894 85.587C25.3688 86.3677 25.3688 87.6323 24.5894 88.413L17.6011 95.413C17.2259 95.7888 16.7167 96 16.1857 96L7 96Z" fill="#CCCCCC"/>
<path d="M15.9648 91H10.2285V90.0215L13.0703 86.9219C13.4805 86.4648 13.7715 86.084 13.9434 85.7793C14.1191 85.4707 14.207 85.1621 14.207 84.8535C14.207 84.4473 14.0918 84.1191 13.8613 83.8691C13.6348 83.6191 13.3281 83.4941 12.9414 83.4941C12.4805 83.4941 12.123 83.6348 11.8691 83.916C11.6152 84.1973 11.4883 84.582 11.4883 85.0703H10.0645C10.0645 84.5508 10.1816 84.084 10.416 83.6699C10.6543 83.252 10.9922 82.9277 11.4297 82.6973C11.8711 82.4668 12.3789 82.3516 12.9531 82.3516C13.7812 82.3516 14.4336 82.5605 14.9102 82.9785C15.3906 83.3926 15.6309 83.9668 15.6309 84.7012C15.6309 85.127 15.5098 85.5742 15.2676 86.043C15.0293 86.5078 14.6367 87.0371 14.0898 87.6309L12.0039 89.8633H15.9648V91Z" fill="white"/>
<path d="M7 155C5.89543 155 5 154.105 5 153L5 139C5 137.895 5.89543 137 7 137L16.1857 137C16.7167 137 17.2259 137.211 17.6011 137.587L24.5894 144.587C25.3688 145.368 25.3688 146.632 24.5894 147.413L17.6011 154.413C17.2259 154.789 16.7167 155 16.1857 155L7 155Z" fill="#CCCCCC"/>
<path d="M15.9648 150H10.2285V149.021L13.0703 145.922C13.4805 145.465 13.7715 145.084 13.9434 144.779C14.1191 144.471 14.207 144.162 14.207 143.854C14.207 143.447 14.0918 143.119 13.8613 142.869C13.6348 142.619 13.3281 142.494 12.9414 142.494C12.4805 142.494 12.123 142.635 11.8691 142.916C11.6152 143.197 11.4883 143.582 11.4883 144.07H10.0645C10.0645 143.551 10.1816 143.084 10.416 142.67C10.6543 142.252 10.9922 141.928 11.4297 141.697C11.8711 141.467 12.3789 141.352 12.9531 141.352C13.7812 141.352 14.4336 141.561 14.9102 141.979C15.3906 142.393 15.6309 142.967 15.6309 143.701C15.6309 144.127 15.5098 144.574 15.2676 145.043C15.0293 145.508 14.6367 146.037 14.0898 146.631L12.0039 148.863H15.9648V150Z" fill="white"/>
<path d="M571 19C572.105 19 573 19.8954 573 21L573 35C573 36.1046 572.105 37 571 37L561.814 37C561.283 37 560.774 36.7888 560.399 36.413L553.411 29.413C552.631 28.6322 552.631 27.3677 553.411 26.587L560.399 19.587C560.774 19.2112 561.283 19 561.814 19L571 19Z" fill="#DDDDDD"/>
<path d="M563.113 28.9473H560.037V27.7988H563.113V28.9473ZM569.934 32H564.197V31.0215L567.039 27.9219C567.449 27.4648 567.74 27.084 567.912 26.7793C568.088 26.4707 568.176 26.1621 568.176 25.8535C568.176 25.4473 568.061 25.1191 567.83 24.8691C567.604 24.6191 567.297 24.4941 566.91 24.4941C566.449 24.4941 566.092 24.6348 565.838 24.916C565.584 25.1973 565.457 25.582 565.457 26.0703H564.033C564.033 25.5508 564.15 25.084 564.385 24.6699C564.623 24.252 564.961 23.9277 565.398 23.6973C565.84 23.4668 566.348 23.3516 566.922 23.3516C567.75 23.3516 568.402 23.5605 568.879 23.9785C569.359 24.3926 569.6 24.9668 569.6 25.7012C569.6 26.127 569.479 26.5742 569.236 27.043C568.998 27.5078 568.605 28.0371 568.059 28.6309L565.973 30.8633H569.934V32Z" fill="white"/>
<path d="M571 78C572.105 78 573 78.8954 573 80L573 94C573 95.1046 572.105 96 571 96L561.814 96C561.283 96 560.774 95.7888 560.399 95.413L553.411 88.413C552.631 87.6322 552.631 86.3677 553.411 85.587L560.399 78.587C560.774 78.2112 561.283 78 561.814 78L571 78Z" fill="#DDDDDD"/>
<path d="M563.113 87.9473H560.037V86.7988H563.113V87.9473ZM568.053 91H566.635V84.1504L564.543 84.8652V83.6641L567.871 82.4395H568.053V91Z" fill="white"/>
<path d="M571 137C572.105 137 573 137.895 573 139L573 153C573 154.105 572.105 155 571 155L561.814 155C561.283 155 560.774 154.789 560.399 154.413L553.411 147.413C552.631 146.632 552.631 145.368 553.411 144.587L560.399 137.587C560.774 137.211 561.283 137 561.814 137L571 137Z" fill="#DDDDDD"/>
<path d="M563.113 146.947H560.037V145.799H563.113V146.947ZM568.053 150H566.635V143.15L564.543 143.865V142.664L567.871 141.439H568.053V150Z" fill="white"/>
<rect x="28" y="28" width="522" height="118" fill="white"/>
<path d="M31 36C31 33.2386 33.2386 31 36 31H146C148.761 31 151 33.2386 151 36V76C151 78.7614 148.761 81 146 81H36C33.2386 81 31 78.7614 31 76V36Z" fill="#1E73FF"/>
<path d="M75.0718 60.6667H73.292V52.7419H75.0718V60.6667ZM73.1821 50.6838C73.1821 50.4103 73.2676 50.1833 73.4385 50.0026C73.6143 49.8219 73.8633 49.7316 74.1855 49.7316C74.5078 49.7316 74.7568 49.8219 74.9326 50.0026C75.1084 50.1833 75.1963 50.4103 75.1963 50.6838C75.1963 50.9523 75.1084 51.1769 74.9326 51.3576C74.7568 51.5334 74.5078 51.6213 74.1855 51.6213C73.8633 51.6213 73.6143 51.5334 73.4385 51.3576C73.2676 51.1769 73.1821 50.9523 73.1821 50.6838ZM79.2466 50.8156V52.7419H80.6455V54.0602H79.2466V58.4841C79.2466 58.7868 79.3052 59.0065 79.4224 59.1432C79.5444 59.2751 79.7593 59.341 80.0669 59.341C80.272 59.341 80.4795 59.3166 80.6895 59.2677V60.6447C80.2842 60.757 79.8936 60.8132 79.5176 60.8132C78.1504 60.8132 77.4668 60.0588 77.4668 58.55V54.0602H76.1631V52.7419H77.4668V50.8156H79.2466ZM85.5015 60.8132C84.3735 60.8132 83.458 60.4592 82.7549 59.7511C82.0566 59.0383 81.7075 58.091 81.7075 56.9093V56.6896C81.7075 55.8986 81.8589 55.193 82.1616 54.5729C82.4692 53.9479 82.8989 53.4621 83.4507 53.1154C84.0024 52.7687 84.6177 52.5954 85.2964 52.5954C86.3755 52.5954 87.208 52.9396 87.7939 53.6281C88.3848 54.3166 88.6802 55.2907 88.6802 56.5505V57.2682H83.502C83.5557 57.9225 83.7729 58.4401 84.1538 58.821C84.5396 59.2018 85.0229 59.3923 85.604 59.3923C86.4194 59.3923 87.0835 59.0627 87.5962 58.4035L88.5557 59.319C88.2383 59.7926 87.8135 60.1613 87.2812 60.425C86.7539 60.6838 86.1606 60.8132 85.5015 60.8132ZM85.2891 54.0236C84.8008 54.0236 84.4053 54.1945 84.1025 54.5363C83.8047 54.8781 83.6143 55.3542 83.5312 55.9645H86.9224V55.8327C86.8833 55.237 86.7246 54.7878 86.4463 54.485C86.168 54.1774 85.7822 54.0236 85.2891 54.0236ZM91.7417 52.7419L91.793 53.5695C92.3496 52.9201 93.1113 52.5954 94.0781 52.5954C95.1377 52.5954 95.8628 53.0007 96.2534 53.8112C96.8296 53.0007 97.6401 52.5954 98.6851 52.5954C99.5591 52.5954 100.208 52.8371 100.633 53.3205C101.063 53.8039 101.283 54.5168 101.292 55.4592V60.6667H99.5127V55.5104C99.5127 55.0075 99.4028 54.6388 99.1831 54.4045C98.9634 54.1701 98.5996 54.0529 98.0918 54.0529C97.6865 54.0529 97.3545 54.1628 97.0957 54.3825C96.8418 54.5973 96.6636 54.8805 96.561 55.2321L96.5684 60.6667H94.7886V55.4518C94.7642 54.5192 94.2881 54.0529 93.3604 54.0529C92.6475 54.0529 92.1421 54.3434 91.8442 54.9245V60.6667H90.0645V52.7419H91.7417ZM107.826 60.6667H106.053V52.1047L103.438 52.9982V51.4967L107.599 49.966H107.826V60.6667Z" fill="white"/>
<path d="M163 36C163 33.2386 165.239 31 168 31H278C280.761 31 283 33.2386 283 36V76C283 78.7614 280.761 81 278 81H168C165.239 81 163 78.7614 163 76V36Z" fill="#1E73FF"/>
<path d="M207.072 60.6667H205.292V52.7419H207.072V60.6667ZM205.182 50.6838C205.182 50.4103 205.268 50.1833 205.438 50.0026C205.614 49.8219 205.863 49.7316 206.186 49.7316C206.508 49.7316 206.757 49.8219 206.933 50.0026C207.108 50.1833 207.196 50.4103 207.196 50.6838C207.196 50.9523 207.108 51.1769 206.933 51.3576C206.757 51.5334 206.508 51.6213 206.186 51.6213C205.863 51.6213 205.614 51.5334 205.438 51.3576C205.268 51.1769 205.182 50.9523 205.182 50.6838ZM211.247 50.8156V52.7419H212.646V54.0602H211.247V58.4841C211.247 58.7868 211.305 59.0065 211.422 59.1432C211.544 59.2751 211.759 59.341 212.067 59.341C212.272 59.341 212.479 59.3166 212.689 59.2677V60.6447C212.284 60.757 211.894 60.8132 211.518 60.8132C210.15 60.8132 209.467 60.0588 209.467 58.55V54.0602H208.163V52.7419H209.467V50.8156H211.247ZM217.501 60.8132C216.374 60.8132 215.458 60.4592 214.755 59.7511C214.057 59.0383 213.708 58.091 213.708 56.9093V56.6896C213.708 55.8986 213.859 55.193 214.162 54.5729C214.469 53.9479 214.899 53.4621 215.451 53.1154C216.002 52.7687 216.618 52.5954 217.296 52.5954C218.375 52.5954 219.208 52.9396 219.794 53.6281C220.385 54.3166 220.68 55.2907 220.68 56.5505V57.2682H215.502C215.556 57.9225 215.773 58.4401 216.154 58.821C216.54 59.2018 217.023 59.3923 217.604 59.3923C218.419 59.3923 219.083 59.0627 219.596 58.4035L220.556 59.319C220.238 59.7926 219.813 60.1613 219.281 60.425C218.754 60.6838 218.161 60.8132 217.501 60.8132ZM217.289 54.0236C216.801 54.0236 216.405 54.1945 216.103 54.5363C215.805 54.8781 215.614 55.3542 215.531 55.9645H218.922V55.8327C218.883 55.237 218.725 54.7878 218.446 54.485C218.168 54.1774 217.782 54.0236 217.289 54.0236ZM223.742 52.7419L223.793 53.5695C224.35 52.9201 225.111 52.5954 226.078 52.5954C227.138 52.5954 227.863 53.0007 228.253 53.8112C228.83 53.0007 229.64 52.5954 230.685 52.5954C231.559 52.5954 232.208 52.8371 232.633 53.3205C233.063 53.8039 233.283 54.5168 233.292 55.4592V60.6667H231.513V55.5104C231.513 55.0075 231.403 54.6388 231.183 54.4045C230.963 54.1701 230.6 54.0529 230.092 54.0529C229.687 54.0529 229.354 54.1628 229.096 54.3825C228.842 54.5973 228.664 54.8805 228.561 55.2321L228.568 60.6667H226.789V55.4518C226.764 54.5192 226.288 54.0529 225.36 54.0529C224.647 54.0529 224.142 54.3434 223.844 54.9245V60.6667H222.064V52.7419H223.742ZM239.826 60.6667H238.053V52.1047L235.438 52.9982V51.4967L239.599 49.966H239.826V60.6667Z" fill="white"/>
<path d="M153.5 29L153.5 145" stroke="#BBBBBB" stroke-dasharray="3 2"/>
<path d="M160.5 29L160.5 145" stroke="#BBBBBB" stroke-dasharray="3 2"/>
<path d="M285.5 29L285.5 145" stroke="#BBBBBB" stroke-dasharray="3 2"/>
<path d="M292.5 29L292.5 145" stroke="#BBBBBB" stroke-dasharray="3 2"/>
<path d="M417.5 29L417.5 145" stroke="#BBBBBB" stroke-dasharray="3 2"/>
<path d="M424.5 29L424.5 145" stroke="#BBBBBB" stroke-dasharray="3 2"/>
<path d="M29 90.5L549 90.5" stroke="#BBBBBB" stroke-dasharray="3 2"/>
<path d="M29 83.5L549 83.5" stroke="#BBBBBB" stroke-dasharray="3 2"/>
<rect x="28" y="28" width="522" height="118" stroke="#AAAAAA" stroke-width="2"/>
</svg>
