<svg width="578" height="174" viewBox="0 0 578 174" fill="none" xmlns="http://www.w3.org/2000/svg">
<rect width="578" height="174" fill="#F7F7F7"/>
<path d="M37 167C37 168.105 36.1046 169 35 169L21 169C19.8954 169 19 168.105 19 167L19 157.814C19 157.283 19.2112 156.774 19.587 156.399L26.587 149.411C27.3678 148.631 28.6323 148.631 29.413 149.411L36.413 156.399C36.7888 156.774 37 157.283 37 157.814L37 167Z" fill="#DDDDDD"/>
<path d="M26.1133 161.947H23.0371V160.799H26.1133V161.947ZM27.5781 160.77L28.041 156.469H32.623V157.699H29.2246L28.9902 159.738C29.3848 159.512 29.8301 159.398 30.3262 159.398C31.1387 159.398 31.7695 159.658 32.2188 160.178C32.6719 160.697 32.8984 161.396 32.8984 162.275C32.8984 163.143 32.6484 163.834 32.1484 164.35C31.6484 164.861 30.9629 165.117 30.0918 165.117C29.3105 165.117 28.6621 164.896 28.1465 164.455C27.6348 164.01 27.3574 163.424 27.3145 162.697H28.6914C28.7461 163.111 28.8945 163.43 29.1367 163.652C29.3789 163.871 29.6953 163.98 30.0859 163.98C30.5234 163.98 30.8633 163.824 31.1055 163.512C31.3516 163.199 31.4746 162.773 31.4746 162.234C31.4746 161.715 31.3398 161.305 31.0703 161.004C30.8008 160.699 30.4297 160.547 29.957 160.547C29.6992 160.547 29.4805 160.582 29.3008 160.652C29.1211 160.719 28.9258 160.852 28.7148 161.051L27.5781 160.77Z" fill="white"/>
<path d="M166 167C166 168.105 165.105 169 164 169L150 169C148.895 169 148 168.105 148 167L148 157.814C148 157.283 148.211 156.774 148.587 156.399L155.587 149.411C156.368 148.631 157.632 148.631 158.413 149.411L165.413 156.399C165.789 156.774 166 157.283 166 157.814L166 167Z" fill="#DDDDDD"/>
<path d="M155.113 161.947H152.037V160.799H155.113V161.947ZM161.014 161.959H162.074V163.102H161.014V165H159.59V163.102H155.904L155.863 162.234L159.543 156.469H161.014V161.959ZM157.357 161.959H159.59V158.396L159.484 158.584L157.357 161.959Z" fill="white"/>
<path d="M298 167C298 168.105 297.105 169 296 169L282 169C280.895 169 280 168.105 280 167L280 157.814C280 157.283 280.211 156.774 280.587 156.399L287.587 149.411C288.368 148.631 289.632 148.631 290.413 149.411L297.413 156.399C297.789 156.774 298 157.283 298 157.814L298 167Z" fill="#DDDDDD"/>
<path d="M287.113 161.947H284.037V160.799H287.113V161.947ZM289.844 160.084H290.711C291.148 160.08 291.494 159.967 291.748 159.744C292.006 159.521 292.135 159.199 292.135 158.777C292.135 158.371 292.027 158.057 291.812 157.834C291.602 157.607 291.277 157.494 290.84 157.494C290.457 157.494 290.143 157.605 289.896 157.828C289.65 158.047 289.527 158.334 289.527 158.689H288.104C288.104 158.252 288.219 157.854 288.449 157.494C288.684 157.135 289.008 156.855 289.422 156.656C289.84 156.453 290.307 156.352 290.822 156.352C291.674 156.352 292.342 156.566 292.826 156.996C293.314 157.422 293.559 158.016 293.559 158.777C293.559 159.16 293.436 159.521 293.189 159.861C292.947 160.197 292.633 160.451 292.246 160.623C292.715 160.783 293.07 161.035 293.312 161.379C293.559 161.723 293.682 162.133 293.682 162.609C293.682 163.375 293.418 163.984 292.891 164.438C292.367 164.891 291.678 165.117 290.822 165.117C290.002 165.117 289.33 164.898 288.807 164.461C288.283 164.023 288.021 163.441 288.021 162.715H289.445C289.445 163.09 289.57 163.395 289.82 163.629C290.074 163.863 290.414 163.98 290.84 163.98C291.281 163.98 291.629 163.863 291.883 163.629C292.137 163.395 292.264 163.055 292.264 162.609C292.264 162.16 292.131 161.814 291.865 161.572C291.6 161.33 291.205 161.209 290.682 161.209H289.844V160.084Z" fill="white"/>
<path d="M430 167C430 168.105 429.105 169 428 169L414 169C412.895 169 412 168.105 412 167L412 157.814C412 157.283 412.211 156.774 412.587 156.399L419.587 149.411C420.368 148.631 421.632 148.631 422.413 149.411L429.413 156.399C429.789 156.774 430 157.283 430 157.814L430 167Z" fill="#DDDDDD"/>
<path d="M419.113 161.947H416.037V160.799H419.113V161.947ZM425.934 165H420.197V164.021L423.039 160.922C423.449 160.465 423.74 160.084 423.912 159.779C424.088 159.471 424.176 159.162 424.176 158.854C424.176 158.447 424.061 158.119 423.83 157.869C423.604 157.619 423.297 157.494 422.91 157.494C422.449 157.494 422.092 157.635 421.838 157.916C421.584 158.197 421.457 158.582 421.457 159.07H420.033C420.033 158.551 420.15 158.084 420.385 157.67C420.623 157.252 420.961 156.928 421.398 156.697C421.84 156.467 422.348 156.352 422.922 156.352C423.75 156.352 424.402 156.561 424.879 156.979C425.359 157.393 425.6 157.967 425.6 158.701C425.6 159.127 425.479 159.574 425.236 160.043C424.998 160.508 424.605 161.037 424.059 161.631L421.973 163.863H425.934V165Z" fill="white"/>
<path d="M559 167C559 168.105 558.105 169 557 169L543 169C541.895 169 541 168.105 541 167L541 157.814C541 157.283 541.211 156.774 541.587 156.399L548.587 149.411C549.368 148.631 550.632 148.631 551.413 149.411L558.413 156.399C558.789 156.774 559 157.283 559 157.814L559 167Z" fill="#DDDDDD"/>
<path d="M548.113 161.947H545.037V160.799H548.113V161.947ZM553.053 165H551.635V158.15L549.543 158.865V157.664L552.871 156.439H553.053V165Z" fill="white"/>
<path d="M19 7C19 5.89543 19.8954 5 21 5H35C36.1046 5 37 5.89543 37 7V16.1857C37 16.7167 36.7888 17.2259 36.413 17.6011L29.413 24.5894C28.6323 25.3688 27.3678 25.3688 26.587 24.5894L19.587 17.6011C19.2112 17.2259 19 16.7167 19 16.1857V7Z" fill="#CCCCCC"/>
<path d="M29.084 17H27.666V10.1504L25.5742 10.8652V9.66406L28.9023 8.43945H29.084V17Z" fill="white"/>
<path d="M148 7C148 5.89543 148.895 5 150 5H164C165.105 5 166 5.89543 166 7V16.1857C166 16.7167 165.789 17.2259 165.413 17.6011L158.413 24.5894C157.632 25.3688 156.368 25.3688 155.587 24.5894L148.587 17.6011C148.211 17.2259 148 16.7167 148 16.1857V7Z" fill="#CCCCCC"/>
<path d="M159.965 17H154.229V16.0215L157.07 12.9219C157.48 12.4648 157.771 12.084 157.943 11.7793C158.119 11.4707 158.207 11.1621 158.207 10.8535C158.207 10.4473 158.092 10.1191 157.861 9.86914C157.635 9.61914 157.328 9.49414 156.941 9.49414C156.48 9.49414 156.123 9.63477 155.869 9.91602C155.615 10.1973 155.488 10.582 155.488 11.0703H154.064C154.064 10.5508 154.182 10.084 154.416 9.66992C154.654 9.25195 154.992 8.92773 155.43 8.69727C155.871 8.4668 156.379 8.35156 156.953 8.35156C157.781 8.35156 158.434 8.56055 158.91 8.97852C159.391 9.39258 159.631 9.9668 159.631 10.7012C159.631 11.127 159.51 11.5742 159.268 12.043C159.029 12.5078 158.637 13.0371 158.09 13.6309L156.004 15.8633H159.965V17Z" fill="white"/>
<path d="M280 7C280 5.89543 280.895 5 282 5H296C297.105 5 298 5.89543 298 7V16.1857C298 16.7167 297.789 17.2259 297.413 17.6011L290.413 24.5894C289.632 25.3688 288.368 25.3688 287.587 24.5894L280.587 17.6011C280.211 17.2259 280 16.7167 280 16.1857V7Z" fill="#CCCCCC"/>
<path d="M287.875 12.084H288.742C289.18 12.0801 289.525 11.9668 289.779 11.7441C290.037 11.5215 290.166 11.1992 290.166 10.7773C290.166 10.3711 290.059 10.0566 289.844 9.83398C289.633 9.60742 289.309 9.49414 288.871 9.49414C288.488 9.49414 288.174 9.60547 287.928 9.82812C287.682 10.0469 287.559 10.334 287.559 10.6895H286.135C286.135 10.252 286.25 9.85352 286.48 9.49414C286.715 9.13477 287.039 8.85547 287.453 8.65625C287.871 8.45312 288.338 8.35156 288.854 8.35156C289.705 8.35156 290.373 8.56641 290.857 8.99609C291.346 9.42188 291.59 10.0156 291.59 10.7773C291.59 11.1602 291.467 11.5215 291.221 11.8613C290.979 12.1973 290.664 12.4512 290.277 12.623C290.746 12.7832 291.102 13.0352 291.344 13.3789C291.59 13.7227 291.713 14.1328 291.713 14.6094C291.713 15.375 291.449 15.9844 290.922 16.4375C290.398 16.8906 289.709 17.1172 288.854 17.1172C288.033 17.1172 287.361 16.8984 286.838 16.4609C286.314 16.0234 286.053 15.4414 286.053 14.7148H287.477C287.477 15.0898 287.602 15.3945 287.852 15.6289C288.105 15.8633 288.445 15.9805 288.871 15.9805C289.312 15.9805 289.66 15.8633 289.914 15.6289C290.168 15.3945 290.295 15.0547 290.295 14.6094C290.295 14.1602 290.162 13.8145 289.896 13.5723C289.631 13.3301 289.236 13.209 288.713 13.209H287.875V12.084Z" fill="white"/>
<path d="M412 7C412 5.89543 412.895 5 414 5H428C429.105 5 430 5.89543 430 7V16.1857C430 16.7167 429.789 17.2259 429.413 17.6011L422.413 24.5894C421.632 25.3688 420.368 25.3688 419.587 24.5894L412.587 17.6011C412.211 17.2259 412 16.7167 412 16.1857V7Z" fill="#CCCCCC"/>
<path d="M423.045 13.959H424.105V15.1016H423.045V17H421.621V15.1016H417.936L417.895 14.2344L421.574 8.46875H423.045V13.959ZM419.389 13.959H421.621V10.3965L421.516 10.584L419.389 13.959Z" fill="white"/>
<path d="M541 7C541 5.89543 541.895 5 543 5H557C558.105 5 559 5.89543 559 7V16.1857C559 16.7167 558.789 17.2259 558.413 17.6011L551.413 24.5894C550.632 25.3688 549.368 25.3688 548.587 24.5894L541.587 17.6011C541.211 17.2259 541 16.7167 541 16.1857V7Z" fill="#CCCCCC"/>
<path d="M547.609 12.7695L548.072 8.46875H552.654V9.69922H549.256L549.021 11.7383C549.416 11.5117 549.861 11.3984 550.357 11.3984C551.17 11.3984 551.801 11.6582 552.25 12.1777C552.703 12.6973 552.93 13.3965 552.93 14.2754C552.93 15.1426 552.68 15.834 552.18 16.3496C551.68 16.8613 550.994 17.1172 550.123 17.1172C549.342 17.1172 548.693 16.8965 548.178 16.4551C547.666 16.0098 547.389 15.4238 547.346 14.6973H548.723C548.777 15.1113 548.926 15.4297 549.168 15.6523C549.41 15.8711 549.727 15.9805 550.117 15.9805C550.555 15.9805 550.895 15.8242 551.137 15.5117C551.383 15.1992 551.506 14.7734 551.506 14.2344C551.506 13.7148 551.371 13.3047 551.102 13.0039C550.832 12.6992 550.461 12.5469 549.988 12.5469C549.73 12.5469 549.512 12.582 549.332 12.6523C549.152 12.7188 548.957 12.8516 548.746 13.0508L547.609 12.7695Z" fill="white"/>
<path d="M7 37C5.89543 37 5 36.1046 5 35L5 21C5 19.8954 5.89543 19 7 19L16.1857 19C16.7167 19 17.2259 19.2112 17.6011 19.587L24.5894 26.587C25.3688 27.3677 25.3688 28.6323 24.5894 29.413L17.6011 36.413C17.2259 36.7888 16.7167 37 16.1857 37L7 37Z" fill="#CCCCCC"/>
<path d="M14.084 32H12.666V25.1504L10.5742 25.8652V24.6641L13.9023 23.4395H14.084V32Z" fill="white"/>
<path d="M7 96C5.89543 96 5 95.1046 5 94L5 80C5 78.8954 5.89543 78 7 78L16.1857 78C16.7167 78 17.2259 78.2112 17.6011 78.587L24.5894 85.587C25.3688 86.3677 25.3688 87.6323 24.5894 88.413L17.6011 95.413C17.2259 95.7888 16.7167 96 16.1857 96L7 96Z" fill="#CCCCCC"/>
<path d="M15.9648 91H10.2285V90.0215L13.0703 86.9219C13.4805 86.4648 13.7715 86.084 13.9434 85.7793C14.1191 85.4707 14.207 85.1621 14.207 84.8535C14.207 84.4473 14.0918 84.1191 13.8613 83.8691C13.6348 83.6191 13.3281 83.4941 12.9414 83.4941C12.4805 83.4941 12.123 83.6348 11.8691 83.916C11.6152 84.1973 11.4883 84.582 11.4883 85.0703H10.0645C10.0645 84.5508 10.1816 84.084 10.416 83.6699C10.6543 83.252 10.9922 82.9277 11.4297 82.6973C11.8711 82.4668 12.3789 82.3516 12.9531 82.3516C13.7812 82.3516 14.4336 82.5605 14.9102 82.9785C15.3906 83.3926 15.6309 83.9668 15.6309 84.7012C15.6309 85.127 15.5098 85.5742 15.2676 86.043C15.0293 86.5078 14.6367 87.0371 14.0898 87.6309L12.0039 89.8633H15.9648V91Z" fill="white"/>
<path d="M7 155C5.89543 155 5 154.105 5 153L5 139C5 137.895 5.89543 137 7 137L16.1857 137C16.7167 137 17.2259 137.211 17.6011 137.587L24.5894 144.587C25.3688 145.368 25.3688 146.632 24.5894 147.413L17.6011 154.413C17.2259 154.789 16.7167 155 16.1857 155L7 155Z" fill="#CCCCCC"/>
<path d="M11.875 145.084H12.7422C13.1797 145.08 13.5254 144.967 13.7793 144.744C14.0371 144.521 14.166 144.199 14.166 143.777C14.166 143.371 14.0586 143.057 13.8438 142.834C13.6328 142.607 13.3086 142.494 12.8711 142.494C12.4883 142.494 12.1738 142.605 11.9277 142.828C11.6816 143.047 11.5586 143.334 11.5586 143.689H10.1348C10.1348 143.252 10.25 142.854 10.4805 142.494C10.7148 142.135 11.0391 141.855 11.4531 141.656C11.8711 141.453 12.3379 141.352 12.8535 141.352C13.7051 141.352 14.373 141.566 14.8574 141.996C15.3457 142.422 15.5898 143.016 15.5898 143.777C15.5898 144.16 15.4668 144.521 15.2207 144.861C14.9785 145.197 14.6641 145.451 14.2773 145.623C14.7461 145.783 15.1016 146.035 15.3438 146.379C15.5898 146.723 15.7129 147.133 15.7129 147.609C15.7129 148.375 15.4492 148.984 14.9219 149.438C14.3984 149.891 13.709 150.117 12.8535 150.117C12.0332 150.117 11.3613 149.898 10.8379 149.461C10.3145 149.023 10.0527 148.441 10.0527 147.715H11.4766C11.4766 148.09 11.6016 148.395 11.8516 148.629C12.1055 148.863 12.4453 148.98 12.8711 148.98C13.3125 148.98 13.6602 148.863 13.9141 148.629C14.168 148.395 14.2949 148.055 14.2949 147.609C14.2949 147.16 14.1621 146.814 13.8965 146.572C13.6309 146.33 13.2363 146.209 12.7129 146.209H11.875V145.084Z" fill="white"/>
<path d="M571 19C572.105 19 573 19.8954 573 21L573 35C573 36.1046 572.105 37 571 37L561.814 37C561.283 37 560.774 36.7888 560.399 36.413L553.411 29.413C552.631 28.6322 552.631 27.3677 553.411 26.587L560.399 19.587C560.774 19.2112 561.283 19 561.814 19L571 19Z" fill="#DDDDDD"/>
<path d="M563.113 28.9473H560.037V27.7988H563.113V28.9473ZM565.844 27.084H566.711C567.148 27.0801 567.494 26.9668 567.748 26.7441C568.006 26.5215 568.135 26.1992 568.135 25.7773C568.135 25.3711 568.027 25.0566 567.812 24.834C567.602 24.6074 567.277 24.4941 566.84 24.4941C566.457 24.4941 566.143 24.6055 565.896 24.8281C565.65 25.0469 565.527 25.334 565.527 25.6895H564.104C564.104 25.252 564.219 24.8535 564.449 24.4941C564.684 24.1348 565.008 23.8555 565.422 23.6562C565.84 23.4531 566.307 23.3516 566.822 23.3516C567.674 23.3516 568.342 23.5664 568.826 23.9961C569.314 24.4219 569.559 25.0156 569.559 25.7773C569.559 26.1602 569.436 26.5215 569.189 26.8613C568.947 27.1973 568.633 27.4512 568.246 27.623C568.715 27.7832 569.07 28.0352 569.312 28.3789C569.559 28.7227 569.682 29.1328 569.682 29.6094C569.682 30.375 569.418 30.9844 568.891 31.4375C568.367 31.8906 567.678 32.1172 566.822 32.1172C566.002 32.1172 565.33 31.8984 564.807 31.4609C564.283 31.0234 564.021 30.4414 564.021 29.7148H565.445C565.445 30.0898 565.57 30.3945 565.82 30.6289C566.074 30.8633 566.414 30.9805 566.84 30.9805C567.281 30.9805 567.629 30.8633 567.883 30.6289C568.137 30.3945 568.264 30.0547 568.264 29.6094C568.264 29.1602 568.131 28.8145 567.865 28.5723C567.6 28.3301 567.205 28.209 566.682 28.209H565.844V27.084Z" fill="white"/>
<path d="M571 78C572.105 78 573 78.8954 573 80L573 94C573 95.1046 572.105 96 571 96L561.814 96C561.283 96 560.774 95.7888 560.399 95.413L553.411 88.413C552.631 87.6322 552.631 86.3677 553.411 85.587L560.399 78.587C560.774 78.2112 561.283 78 561.814 78L571 78Z" fill="#DDDDDD"/>
<path d="M563.113 87.9473H560.037V86.7988H563.113V87.9473ZM569.934 91H564.197V90.0215L567.039 86.9219C567.449 86.4648 567.74 86.084 567.912 85.7793C568.088 85.4707 568.176 85.1621 568.176 84.8535C568.176 84.4473 568.061 84.1191 567.83 83.8691C567.604 83.6191 567.297 83.4941 566.91 83.4941C566.449 83.4941 566.092 83.6348 565.838 83.916C565.584 84.1973 565.457 84.582 565.457 85.0703H564.033C564.033 84.5508 564.15 84.084 564.385 83.6699C564.623 83.252 564.961 82.9277 565.398 82.6973C565.84 82.4668 566.348 82.3516 566.922 82.3516C567.75 82.3516 568.402 82.5605 568.879 82.9785C569.359 83.3926 569.6 83.9668 569.6 84.7012C569.6 85.127 569.479 85.5742 569.236 86.043C568.998 86.5078 568.605 87.0371 568.059 87.6309L565.973 89.8633H569.934V91Z" fill="white"/>
<path d="M571 137C572.105 137 573 137.895 573 139L573 153C573 154.105 572.105 155 571 155L561.814 155C561.283 155 560.774 154.789 560.399 154.413L553.411 147.413C552.631 146.632 552.631 145.368 553.411 144.587L560.399 137.587C560.774 137.211 561.283 137 561.814 137L571 137Z" fill="#DDDDDD"/>
<path d="M563.113 146.947H560.037V145.799H563.113V146.947ZM568.053 150H566.635V143.15L564.543 143.865V142.664L567.871 141.439H568.053V150Z" fill="white"/>
<rect x="28" y="28" width="522" height="118" fill="white"/>
<path d="M31 36C31 33.2386 33.2386 31 36 31H146C148.761 31 151 33.2386 151 36V76C151 78.7614 148.761 81 146 81H36C33.2386 81 31 78.7614 31 76V36Z" fill="#1E73FF"/>
<path d="M73.2041 60.6667H71.4243V52.7419H73.2041V60.6667ZM71.3145 50.6838C71.3145 50.4103 71.3999 50.1833 71.5708 50.0026C71.7466 49.8219 71.9956 49.7316 72.3179 49.7316C72.6401 49.7316 72.8892 49.8219 73.0649 50.0026C73.2407 50.1833 73.3286 50.4103 73.3286 50.6838C73.3286 50.9523 73.2407 51.1769 73.0649 51.3576C72.8892 51.5334 72.6401 51.6213 72.3179 51.6213C71.9956 51.6213 71.7466 51.5334 71.5708 51.3576C71.3999 51.1769 71.3145 50.9523 71.3145 50.6838ZM77.3789 50.8156V52.7419H78.7778V54.0602H77.3789V58.4841C77.3789 58.7868 77.4375 59.0065 77.5547 59.1432C77.6768 59.2751 77.8916 59.341 78.1992 59.341C78.4043 59.341 78.6118 59.3166 78.8218 59.2677V60.6447C78.4165 60.757 78.0259 60.8132 77.6499 60.8132C76.2827 60.8132 75.5991 60.0588 75.5991 58.55V54.0602H74.2954V52.7419H75.5991V50.8156H77.3789ZM83.6338 60.8132C82.5059 60.8132 81.5903 60.4592 80.8872 59.7511C80.189 59.0383 79.8398 58.091 79.8398 56.9093V56.6896C79.8398 55.8986 79.9912 55.193 80.2939 54.5729C80.6016 53.9479 81.0312 53.4621 81.583 53.1154C82.1348 52.7687 82.75 52.5954 83.4287 52.5954C84.5078 52.5954 85.3403 52.9396 85.9263 53.6281C86.5171 54.3166 86.8125 55.2907 86.8125 56.5505V57.2682H81.6343C81.688 57.9225 81.9053 58.4401 82.2861 58.821C82.6719 59.2018 83.1553 59.3923 83.7363 59.3923C84.5518 59.3923 85.2158 59.0627 85.7285 58.4035L86.688 59.319C86.3706 59.7926 85.9458 60.1613 85.4136 60.425C84.8862 60.6838 84.293 60.8132 83.6338 60.8132ZM83.4214 54.0236C82.9331 54.0236 82.5376 54.1945 82.2349 54.5363C81.937 54.8781 81.7466 55.3542 81.6636 55.9645H85.0547V55.8327C85.0156 55.237 84.8569 54.7878 84.5786 54.485C84.3003 54.1774 83.9146 54.0236 83.4214 54.0236ZM89.874 52.7419L89.9253 53.5695C90.4819 52.9201 91.2437 52.5954 92.2104 52.5954C93.27 52.5954 93.9951 53.0007 94.3857 53.8112C94.9619 53.0007 95.7725 52.5954 96.8174 52.5954C97.6914 52.5954 98.3408 52.8371 98.7656 53.3205C99.1953 53.8039 99.415 54.5168 99.4248 55.4592V60.6667H97.645V55.5104C97.645 55.0075 97.5352 54.6388 97.3154 54.4045C97.0957 54.1701 96.7319 54.0529 96.2241 54.0529C95.8188 54.0529 95.4868 54.1628 95.228 54.3825C94.9741 54.5973 94.7959 54.8805 94.6934 55.2321L94.7007 60.6667H92.9209V55.4518C92.8965 54.5192 92.4204 54.0529 91.4927 54.0529C90.7798 54.0529 90.2744 54.3434 89.9766 54.9245V60.6667H88.1968V52.7419H89.874ZM109.693 60.6667H107.921V52.1047L105.306 52.9982V51.4967L109.466 49.966H109.693V60.6667Z" fill="white"/>
<path d="M163 36C163 33.2386 165.239 31 168 31H278C280.761 31 283 33.2386 283 36V76C283 78.7614 280.761 81 278 81H168C165.239 81 163 78.7614 163 76V36Z" fill="#1E73FF"/>
<path d="M205.204 60.6667H203.424V52.7419H205.204V60.6667ZM203.314 50.6838C203.314 50.4103 203.4 50.1833 203.571 50.0026C203.747 49.8219 203.996 49.7316 204.318 49.7316C204.64 49.7316 204.889 49.8219 205.065 50.0026C205.241 50.1833 205.329 50.4103 205.329 50.6838C205.329 50.9523 205.241 51.1769 205.065 51.3576C204.889 51.5334 204.64 51.6213 204.318 51.6213C203.996 51.6213 203.747 51.5334 203.571 51.3576C203.4 51.1769 203.314 50.9523 203.314 50.6838ZM209.379 50.8156V52.7419H210.778V54.0602H209.379V58.4841C209.379 58.7868 209.438 59.0065 209.555 59.1432C209.677 59.2751 209.892 59.341 210.199 59.341C210.404 59.341 210.612 59.3166 210.822 59.2677V60.6447C210.417 60.757 210.026 60.8132 209.65 60.8132C208.283 60.8132 207.599 60.0588 207.599 58.55V54.0602H206.295V52.7419H207.599V50.8156H209.379ZM215.634 60.8132C214.506 60.8132 213.59 60.4592 212.887 59.7511C212.189 59.0383 211.84 58.091 211.84 56.9093V56.6896C211.84 55.8986 211.991 55.193 212.294 54.5729C212.602 53.9479 213.031 53.4621 213.583 53.1154C214.135 52.7687 214.75 52.5954 215.429 52.5954C216.508 52.5954 217.34 52.9396 217.926 53.6281C218.517 54.3166 218.812 55.2907 218.812 56.5505V57.2682H213.634C213.688 57.9225 213.905 58.4401 214.286 58.821C214.672 59.2018 215.155 59.3923 215.736 59.3923C216.552 59.3923 217.216 59.0627 217.729 58.4035L218.688 59.319C218.371 59.7926 217.946 60.1613 217.414 60.425C216.886 60.6838 216.293 60.8132 215.634 60.8132ZM215.421 54.0236C214.933 54.0236 214.538 54.1945 214.235 54.5363C213.937 54.8781 213.747 55.3542 213.664 55.9645H217.055V55.8327C217.016 55.237 216.857 54.7878 216.579 54.485C216.3 54.1774 215.915 54.0236 215.421 54.0236ZM221.874 52.7419L221.925 53.5695C222.482 52.9201 223.244 52.5954 224.21 52.5954C225.27 52.5954 225.995 53.0007 226.386 53.8112C226.962 53.0007 227.772 52.5954 228.817 52.5954C229.691 52.5954 230.341 52.8371 230.766 53.3205C231.195 53.8039 231.415 54.5168 231.425 55.4592V60.6667H229.645V55.5104C229.645 55.0075 229.535 54.6388 229.315 54.4045C229.096 54.1701 228.732 54.0529 228.224 54.0529C227.819 54.0529 227.487 54.1628 227.228 54.3825C226.974 54.5973 226.796 54.8805 226.693 55.2321L226.701 60.6667H224.921V55.4518C224.896 54.5192 224.42 54.0529 223.493 54.0529C222.78 54.0529 222.274 54.3434 221.977 54.9245V60.6667H220.197V52.7419H221.874ZM244.044 60.6667H236.874V59.4435L240.426 55.569C240.939 54.9977 241.303 54.5217 241.518 54.1408C241.737 53.7551 241.847 53.3693 241.847 52.9836C241.847 52.4758 241.703 52.0656 241.415 51.7531C241.132 51.4406 240.749 51.2843 240.265 51.2843C239.689 51.2843 239.242 51.4601 238.925 51.8117C238.607 52.1633 238.449 52.6442 238.449 53.2546H236.669C236.669 52.6051 236.815 52.0217 237.108 51.5041C237.406 50.9816 237.829 50.5763 238.375 50.2883C238.927 50.0002 239.562 49.8561 240.28 49.8561C241.315 49.8561 242.13 50.1174 242.726 50.6398C243.327 51.1574 243.627 51.8752 243.627 52.7931C243.627 53.3254 243.476 53.8844 243.173 54.4704C242.875 55.0514 242.384 55.7131 241.701 56.4552L239.093 59.2458H244.044V60.6667Z" fill="white"/>
<path d="M153.5 29L153.5 145" stroke="#BBBBBB" stroke-dasharray="3 2"/>
<path d="M160.5 29L160.5 145" stroke="#BBBBBB" stroke-dasharray="3 2"/>
<path d="M285.5 29L285.5 145" stroke="#BBBBBB" stroke-dasharray="3 2"/>
<path d="M292.5 29L292.5 145" stroke="#BBBBBB" stroke-dasharray="3 2"/>
<path d="M417.5 29L417.5 145" stroke="#BBBBBB" stroke-dasharray="3 2"/>
<path d="M424.5 29L424.5 145" stroke="#BBBBBB" stroke-dasharray="3 2"/>
<path d="M29 90.5L549 90.5" stroke="#BBBBBB" stroke-dasharray="3 2"/>
<path d="M29 83.5L549 83.5" stroke="#BBBBBB" stroke-dasharray="3 2"/>
<rect x="28" y="28" width="522" height="118" stroke="#AAAAAA" stroke-width="2"/>
</svg>
