<svg width="570" height="240" viewBox="0 0 570 240" fill="none" xmlns="http://www.w3.org/2000/svg">
<rect x="1" y="171" width="568" height="68" fill="#F7F7F7" stroke="#AAAAAA" stroke-width="2" stroke-dasharray="6 4"/>
<path d="M214.128 146.443C214.128 145.059 214.449 143.95 215.091 143.114C215.733 142.273 216.593 141.853 217.672 141.853C218.624 141.853 219.393 142.185 219.98 142.849V138.25H221.997V151H220.171L220.071 150.07C219.468 150.801 218.663 151.166 217.656 151.166C216.604 151.166 215.752 150.743 215.099 149.896C214.452 149.049 214.128 147.898 214.128 146.443ZM216.145 146.617C216.145 147.53 216.319 148.244 216.668 148.759C217.022 149.268 217.523 149.522 218.17 149.522C218.995 149.522 219.598 149.154 219.98 148.418V144.583C219.609 143.864 219.012 143.504 218.187 143.504C217.534 143.504 217.03 143.764 216.676 144.285C216.322 144.799 216.145 145.577 216.145 146.617ZM226.247 151H224.23V142.019H226.247V151ZM224.105 139.686C224.105 139.376 224.202 139.119 224.396 138.914C224.595 138.709 224.877 138.607 225.243 138.607C225.608 138.607 225.89 138.709 226.089 138.914C226.289 139.119 226.388 139.376 226.388 139.686C226.388 139.99 226.289 140.245 226.089 140.45C225.89 140.649 225.608 140.749 225.243 140.749C224.877 140.749 224.595 140.649 224.396 140.45C224.202 140.245 224.105 139.99 224.105 139.686ZM233.485 148.56C233.485 148.2 233.336 147.926 233.037 147.738C232.744 147.55 232.254 147.384 231.568 147.24C230.882 147.096 230.309 146.913 229.85 146.692C228.842 146.205 228.339 145.499 228.339 144.575C228.339 143.8 228.665 143.153 229.318 142.633C229.971 142.113 230.801 141.853 231.809 141.853C232.882 141.853 233.748 142.118 234.407 142.649C235.071 143.181 235.403 143.87 235.403 144.716H233.386C233.386 144.329 233.242 144.008 232.954 143.753C232.666 143.493 232.285 143.363 231.809 143.363C231.366 143.363 231.003 143.466 230.721 143.67C230.444 143.875 230.306 144.149 230.306 144.492C230.306 144.802 230.436 145.043 230.696 145.214C230.956 145.386 231.482 145.56 232.273 145.737C233.065 145.909 233.685 146.116 234.133 146.36C234.587 146.598 234.921 146.886 235.137 147.223C235.359 147.561 235.469 147.97 235.469 148.452C235.469 149.26 235.134 149.915 234.465 150.419C233.795 150.917 232.918 151.166 231.833 151.166C231.097 151.166 230.442 151.033 229.866 150.768C229.291 150.502 228.842 150.137 228.521 149.672C228.201 149.207 228.04 148.706 228.04 148.169H229.999C230.027 148.645 230.207 149.013 230.539 149.273C230.871 149.528 231.311 149.655 231.858 149.655C232.39 149.655 232.794 149.556 233.07 149.356C233.347 149.152 233.485 148.886 233.485 148.56ZM245.098 146.601C245.098 147.99 244.783 149.099 244.152 149.929C243.521 150.754 242.674 151.166 241.612 151.166C240.627 151.166 239.838 150.842 239.246 150.195V154.453H237.229V142.019H239.088L239.171 142.932C239.764 142.212 240.569 141.853 241.587 141.853C242.683 141.853 243.54 142.262 244.16 143.081C244.785 143.895 245.098 145.026 245.098 146.476V146.601ZM243.089 146.426C243.089 145.53 242.91 144.819 242.55 144.293C242.196 143.767 241.687 143.504 241.022 143.504C240.198 143.504 239.606 143.845 239.246 144.525V148.51C239.611 149.207 240.209 149.556 241.039 149.556C241.681 149.556 242.182 149.298 242.542 148.784C242.907 148.264 243.089 147.478 243.089 146.426ZM248.958 151H246.941V138.25H248.958V151ZM256.528 151C256.44 150.828 256.362 150.549 256.296 150.162C255.654 150.831 254.868 151.166 253.938 151.166C253.036 151.166 252.3 150.909 251.73 150.394C251.16 149.879 250.875 149.243 250.875 148.485C250.875 147.528 251.23 146.794 251.938 146.285C252.652 145.771 253.67 145.513 254.993 145.513H256.229V144.924C256.229 144.459 256.099 144.088 255.839 143.812C255.579 143.529 255.184 143.388 254.652 143.388C254.193 143.388 253.817 143.504 253.523 143.737C253.23 143.964 253.083 144.254 253.083 144.608H251.066C251.066 144.116 251.23 143.657 251.556 143.23C251.883 142.799 252.325 142.461 252.884 142.218C253.449 141.974 254.077 141.853 254.769 141.853C255.82 141.853 256.658 142.118 257.284 142.649C257.909 143.175 258.23 143.917 258.247 144.874V148.925C258.247 149.733 258.36 150.377 258.587 150.859V151H256.528ZM254.312 149.547C254.71 149.547 255.084 149.451 255.433 149.257C255.787 149.063 256.052 148.803 256.229 148.477V146.783H255.142C254.395 146.783 253.833 146.913 253.457 147.173C253.081 147.433 252.893 147.801 252.893 148.277C252.893 148.665 253.02 148.975 253.274 149.207C253.535 149.434 253.88 149.547 254.312 149.547ZM263.368 148.111L265.194 142.019H267.344L263.775 152.361C263.227 153.872 262.297 154.627 260.986 154.627C260.693 154.627 260.369 154.578 260.015 154.478V152.917L260.396 152.942C260.906 152.942 261.287 152.848 261.542 152.66C261.802 152.478 262.007 152.168 262.156 151.73L262.447 150.958L259.292 142.019H261.467L263.368 148.111ZM269.727 148.875C270.103 148.875 270.393 148.983 270.598 149.199C270.803 149.409 270.905 149.675 270.905 149.996C270.905 150.311 270.803 150.574 270.598 150.784C270.393 150.989 270.103 151.091 269.727 151.091C269.367 151.091 269.082 150.989 268.872 150.784C268.661 150.579 268.556 150.317 268.556 149.996C268.556 149.675 268.659 149.409 268.863 149.199C269.068 148.983 269.356 148.875 269.727 148.875ZM269.727 141.828C270.103 141.828 270.393 141.936 270.598 142.151C270.803 142.362 270.905 142.627 270.905 142.948C270.905 143.264 270.803 143.527 270.598 143.737C270.393 143.942 270.103 144.044 269.727 144.044C269.367 144.044 269.082 143.942 268.872 143.737C268.661 143.532 268.556 143.269 268.556 142.948C268.556 142.627 268.659 142.362 268.863 142.151C269.068 141.936 269.356 141.828 269.727 141.828ZM354.552 141.828C354.929 141.828 355.219 141.936 355.424 142.151C355.629 142.362 355.731 142.627 355.731 142.948C355.731 143.264 355.629 143.527 355.424 143.737C355.219 143.942 354.929 144.044 354.552 144.044C354.193 144.044 353.908 143.942 353.697 143.737C353.487 143.532 353.382 143.269 353.382 142.948C353.382 142.627 353.484 142.362 353.689 142.151C353.894 141.936 354.181 141.828 354.552 141.828ZM353.946 153.723L352.859 153.075C353.18 152.572 353.398 152.132 353.515 151.755C353.636 151.385 353.7 151.006 353.706 150.618V149.049H355.523L355.515 150.502C355.51 151.089 355.36 151.675 355.067 152.262C354.779 152.854 354.406 153.341 353.946 153.723Z" fill="#444444"/>
<path d="M279.405 151H277.388V142.019H279.405V151ZM277.264 139.686C277.264 139.376 277.361 139.119 277.554 138.914C277.753 138.709 278.036 138.607 278.401 138.607C278.766 138.607 279.048 138.709 279.248 138.914C279.447 139.119 279.546 139.376 279.546 139.686C279.546 139.99 279.447 140.245 279.248 140.45C279.048 140.649 278.766 140.749 278.401 140.749C278.036 140.749 277.753 140.649 277.554 140.45C277.361 140.245 277.264 139.99 277.264 139.686ZM283.481 142.019L283.539 143.056C284.203 142.254 285.075 141.853 286.154 141.853C288.024 141.853 288.976 142.923 289.009 145.065V151H286.992V145.181C286.992 144.611 286.868 144.191 286.619 143.919C286.375 143.643 285.974 143.504 285.415 143.504C284.602 143.504 283.996 143.872 283.597 144.608V151H281.58V142.019H283.481ZM293.218 151H291.201V138.25H293.218V151ZM297.567 151H295.55V142.019H297.567V151ZM295.426 139.686C295.426 139.376 295.523 139.119 295.716 138.914C295.916 138.709 296.198 138.607 296.563 138.607C296.928 138.607 297.21 138.709 297.41 138.914C297.609 139.119 297.708 139.376 297.708 139.686C297.708 139.99 297.609 140.245 297.41 140.45C297.21 140.649 296.928 140.749 296.563 140.749C296.198 140.749 295.916 140.649 295.716 140.45C295.523 140.245 295.426 139.99 295.426 139.686ZM301.643 142.019L301.701 143.056C302.365 142.254 303.237 141.853 304.316 141.853C306.186 141.853 307.138 142.923 307.171 145.065V151H305.154V145.181C305.154 144.611 305.03 144.191 304.781 143.919C304.537 143.643 304.136 143.504 303.577 143.504C302.764 143.504 302.158 143.872 301.759 144.608V151H299.742V142.019H301.643ZM313.189 151.166C311.911 151.166 310.874 150.765 310.077 149.962C309.285 149.154 308.89 148.081 308.89 146.742V146.493C308.89 145.596 309.061 144.797 309.404 144.094C309.753 143.385 310.24 142.835 310.865 142.442C311.491 142.049 312.188 141.853 312.957 141.853C314.18 141.853 315.124 142.243 315.788 143.023C316.457 143.803 316.792 144.907 316.792 146.335V147.148H310.923C310.984 147.89 311.23 148.477 311.662 148.908C312.099 149.34 312.647 149.556 313.306 149.556C314.23 149.556 314.982 149.182 315.563 148.435L316.651 149.473C316.291 150.009 315.81 150.427 315.207 150.726C314.609 151.019 313.937 151.166 313.189 151.166ZM312.949 143.471C312.395 143.471 311.947 143.665 311.604 144.052C311.266 144.44 311.051 144.979 310.957 145.671H314.8V145.521C314.756 144.846 314.576 144.337 314.26 143.994C313.945 143.646 313.508 143.471 312.949 143.471ZM322.279 146.675H317.921V145.048H322.279V146.675ZM323.59 146.443C323.59 145.048 323.917 143.936 324.57 143.106C325.228 142.27 326.1 141.853 327.185 141.853C328.208 141.853 329.014 142.209 329.6 142.923L329.691 142.019H331.509V150.726C331.509 151.905 331.141 152.834 330.405 153.515C329.675 154.196 328.687 154.536 327.442 154.536C326.783 154.536 326.139 154.398 325.508 154.121C324.882 153.85 324.407 153.493 324.08 153.05L325.035 151.838C325.654 152.574 326.418 152.942 327.326 152.942C327.995 152.942 328.524 152.76 328.911 152.395C329.299 152.035 329.492 151.504 329.492 150.801V150.195C328.911 150.842 328.136 151.166 327.168 151.166C326.117 151.166 325.256 150.748 324.586 149.913C323.922 149.077 323.59 147.92 323.59 146.443ZM325.599 146.617C325.599 147.519 325.782 148.23 326.147 148.75C326.518 149.265 327.03 149.522 327.683 149.522C328.496 149.522 329.099 149.174 329.492 148.477V144.525C329.11 143.845 328.513 143.504 327.699 143.504C327.035 143.504 326.518 143.767 326.147 144.293C325.782 144.819 325.599 145.593 325.599 146.617ZM338.291 143.861C338.025 143.817 337.751 143.795 337.469 143.795C336.545 143.795 335.923 144.149 335.602 144.857V151H333.584V142.019H335.51L335.56 143.023C336.047 142.243 336.722 141.853 337.585 141.853C337.873 141.853 338.111 141.891 338.299 141.969L338.291 143.861ZM341.711 151H339.694V142.019H341.711V151ZM339.569 139.686C339.569 139.376 339.666 139.119 339.86 138.914C340.059 138.709 340.341 138.607 340.707 138.607C341.072 138.607 341.354 138.709 341.553 138.914C341.752 139.119 341.852 139.376 341.852 139.686C341.852 139.99 341.752 140.245 341.553 140.45C341.354 140.649 341.072 140.749 340.707 140.749C340.341 140.749 340.059 140.649 339.86 140.45C339.666 140.245 339.569 139.99 339.569 139.686ZM343.537 146.443C343.537 145.059 343.858 143.95 344.5 143.114C345.142 142.273 346.002 141.853 347.082 141.853C348.033 141.853 348.803 142.185 349.389 142.849V138.25H351.406V151H349.58L349.48 150.07C348.877 150.801 348.072 151.166 347.065 151.166C346.014 151.166 345.161 150.743 344.508 149.896C343.861 149.049 343.537 147.898 343.537 146.443ZM345.554 146.617C345.554 147.53 345.729 148.244 346.077 148.759C346.431 149.268 346.932 149.522 347.58 149.522C348.404 149.522 349.007 149.154 349.389 148.418V144.583C349.018 143.864 348.421 143.504 347.596 143.504C346.943 143.504 346.44 143.764 346.085 144.285C345.731 144.799 345.554 145.577 345.554 146.617Z" fill="#1E73FF"/>
<rect x="10" y="180" width="80" height="50" rx="5" fill="#1E73FF"/>
<rect x="100" y="180" width="80" height="50" rx="5" fill="#1E73FF"/>
<rect x="190" y="180" width="80" height="50" rx="5" fill="#1E73FF"/>
<rect x="280" y="180" width="80" height="50" rx="5" fill="#1E73FF"/>
<path d="M52.0801 212H49.2578V201.121L45.8887 202.166V199.871L51.7773 197.762H52.0801V212Z" fill="white"/>
<path d="M144.971 212H135.225V210.066L139.824 205.164C140.456 204.474 140.921 203.872 141.221 203.357C141.527 202.843 141.68 202.355 141.68 201.893C141.68 201.261 141.52 200.766 141.201 200.408C140.882 200.044 140.426 199.861 139.834 199.861C139.196 199.861 138.691 200.083 138.32 200.525C137.956 200.962 137.773 201.538 137.773 202.254H134.941C134.941 201.388 135.146 200.597 135.557 199.881C135.973 199.165 136.559 198.605 137.314 198.201C138.07 197.791 138.926 197.586 139.883 197.586C141.348 197.586 142.484 197.938 143.291 198.641C144.105 199.344 144.512 200.337 144.512 201.619C144.512 202.322 144.329 203.038 143.965 203.768C143.6 204.497 142.975 205.346 142.09 206.316L138.857 209.725H144.971V212Z" fill="white"/>
<path d="M228.096 203.641H229.6C230.316 203.641 230.846 203.462 231.191 203.104C231.536 202.745 231.709 202.27 231.709 201.678C231.709 201.105 231.536 200.659 231.191 200.34C230.853 200.021 230.384 199.861 229.785 199.861C229.245 199.861 228.792 200.011 228.428 200.311C228.063 200.604 227.881 200.988 227.881 201.463H225.059C225.059 200.721 225.257 200.057 225.654 199.471C226.058 198.878 226.618 198.416 227.334 198.084C228.057 197.752 228.851 197.586 229.717 197.586C231.221 197.586 232.399 197.947 233.252 198.67C234.105 199.386 234.531 200.376 234.531 201.639C234.531 202.29 234.333 202.889 233.936 203.436C233.538 203.982 233.018 204.402 232.373 204.695C233.174 204.982 233.77 205.411 234.16 205.984C234.557 206.557 234.756 207.234 234.756 208.016C234.756 209.279 234.294 210.291 233.369 211.053C232.451 211.814 231.234 212.195 229.717 212.195C228.298 212.195 227.135 211.821 226.23 211.072C225.332 210.324 224.883 209.334 224.883 208.104H227.705C227.705 208.637 227.904 209.074 228.301 209.412C228.704 209.751 229.199 209.92 229.785 209.92C230.456 209.92 230.98 209.744 231.357 209.393C231.742 209.035 231.934 208.562 231.934 207.977C231.934 206.557 231.152 205.848 229.59 205.848H228.096V203.641Z" fill="white"/>
<path d="M323.574 206.648H325.186V208.924H323.574V212H320.752V208.924H314.922L314.795 207.146L320.723 197.781H323.574V206.648ZM317.607 206.648H320.752V201.629L320.566 201.951L317.607 206.648Z" fill="white"/>
<path d="M378 205L398 216.547V193.453L378 205ZM547 203L396 203V207L547 207V203Z" fill="#1E73FF"/>
<rect x="1" y="36" width="568" height="68" fill="#F7F7F7" stroke="#AAAAAA" stroke-width="2" stroke-dasharray="6 4"/>
<path d="M237.97 11.4429C237.97 10.0594 238.291 8.94987 238.933 8.11426C239.575 7.27311 240.435 6.85254 241.514 6.85254C242.466 6.85254 243.235 7.18457 243.822 7.84863V3.25H245.839V16H244.013L243.913 15.0703C243.31 15.8008 242.505 16.166 241.498 16.166C240.446 16.166 239.594 15.7427 238.941 14.896C238.293 14.0493 237.97 12.8983 237.97 11.4429ZM239.987 11.6172C239.987 12.5303 240.161 13.2441 240.51 13.7588C240.864 14.2679 241.365 14.5225 242.012 14.5225C242.837 14.5225 243.44 14.1545 243.822 13.4185V9.5835C243.451 8.8641 242.853 8.50439 242.029 8.50439C241.376 8.50439 240.872 8.76449 240.518 9.28467C240.164 9.79932 239.987 10.5768 239.987 11.6172ZM250.089 16H248.072V7.01855H250.089V16ZM247.947 4.68604C247.947 4.37614 248.044 4.11882 248.238 3.91406C248.437 3.70931 248.719 3.60693 249.084 3.60693C249.45 3.60693 249.732 3.70931 249.931 3.91406C250.13 4.11882 250.23 4.37614 250.23 4.68604C250.23 4.9904 250.13 5.24495 249.931 5.44971C249.732 5.64893 249.45 5.74854 249.084 5.74854C248.719 5.74854 248.437 5.64893 248.238 5.44971C248.044 5.24495 247.947 4.9904 247.947 4.68604ZM257.327 13.5596C257.327 13.1999 257.178 12.9259 256.879 12.7378C256.586 12.5496 256.096 12.3836 255.41 12.2397C254.723 12.0959 254.151 11.9132 253.691 11.6919C252.684 11.2049 252.181 10.4993 252.181 9.5752C252.181 8.80046 252.507 8.15299 253.16 7.63281C253.813 7.11263 254.643 6.85254 255.65 6.85254C256.724 6.85254 257.59 7.11816 258.249 7.64941C258.913 8.18066 259.245 8.86963 259.245 9.71631H257.228C257.228 9.32894 257.084 9.00798 256.796 8.75342C256.508 8.49333 256.126 8.36328 255.65 8.36328C255.208 8.36328 254.845 8.46566 254.563 8.67041C254.286 8.87516 254.148 9.14909 254.148 9.49219C254.148 9.80208 254.278 10.0428 254.538 10.2144C254.798 10.3859 255.324 10.5602 256.115 10.7373C256.907 10.9089 257.526 11.1164 257.975 11.3599C258.428 11.5978 258.763 11.8856 258.979 12.2231C259.2 12.5607 259.311 12.9702 259.311 13.4517C259.311 14.2596 258.976 14.9154 258.307 15.4189C257.637 15.917 256.76 16.166 255.675 16.166C254.939 16.166 254.284 16.0332 253.708 15.7676C253.132 15.502 252.684 15.1367 252.363 14.6719C252.042 14.207 251.882 13.7062 251.882 13.1694H253.841C253.868 13.6453 254.048 14.0133 254.38 14.2734C254.712 14.528 255.152 14.6553 255.7 14.6553C256.231 14.6553 256.635 14.5557 256.912 14.3564C257.189 14.1517 257.327 13.8861 257.327 13.5596ZM268.94 11.6006C268.94 12.9896 268.625 14.0991 267.994 14.9292C267.363 15.7537 266.516 16.166 265.454 16.166C264.469 16.166 263.68 15.8423 263.088 15.1948V19.4531H261.071V7.01855H262.93L263.013 7.93164C263.605 7.21224 264.41 6.85254 265.429 6.85254C266.524 6.85254 267.382 7.26204 268.002 8.08105C268.627 8.89453 268.94 10.0262 268.94 11.4761V11.6006ZM266.931 11.4263C266.931 10.5298 266.751 9.81868 266.392 9.29297C266.037 8.76725 265.528 8.50439 264.864 8.50439C264.04 8.50439 263.448 8.84473 263.088 9.52539V13.5098C263.453 14.207 264.051 14.5557 264.881 14.5557C265.523 14.5557 266.024 14.2983 266.383 13.7837C266.749 13.2635 266.931 12.4777 266.931 11.4263ZM272.8 16H270.783V3.25H272.8V16ZM280.37 16C280.282 15.8285 280.204 15.549 280.138 15.1616C279.496 15.8312 278.71 16.166 277.78 16.166C276.878 16.166 276.142 15.9087 275.572 15.394C275.002 14.8794 274.717 14.243 274.717 13.4849C274.717 12.5275 275.071 11.7943 275.78 11.2852C276.494 10.7705 277.512 10.5132 278.834 10.5132H280.071V9.92383C280.071 9.45898 279.941 9.08822 279.681 8.81152C279.421 8.5293 279.025 8.38818 278.494 8.38818C278.035 8.38818 277.659 8.50439 277.365 8.73682C277.072 8.9637 276.925 9.25423 276.925 9.6084H274.908C274.908 9.11589 275.071 8.65658 275.398 8.23047C275.724 7.79883 276.167 7.46126 276.726 7.21777C277.291 6.97428 277.919 6.85254 278.61 6.85254C279.662 6.85254 280.5 7.11816 281.125 7.64941C281.751 8.17513 282.072 8.91667 282.088 9.87402V13.9248C282.088 14.7327 282.202 15.3774 282.429 15.8589V16H280.37ZM278.154 14.5474C278.552 14.5474 278.926 14.4505 279.274 14.2568C279.629 14.0632 279.894 13.8031 280.071 13.4766V11.7832H278.984C278.237 11.7832 277.675 11.9132 277.299 12.1733C276.923 12.4334 276.734 12.8014 276.734 13.2773C276.734 13.6647 276.862 13.9746 277.116 14.207C277.376 14.4339 277.722 14.5474 278.154 14.5474ZM287.21 13.1113L289.036 7.01855H291.186L287.617 17.3613C287.069 18.8721 286.139 19.6274 284.828 19.6274C284.534 19.6274 284.211 19.5776 283.856 19.478V17.9175L284.238 17.9424C284.747 17.9424 285.129 17.8483 285.384 17.6602C285.644 17.4775 285.849 17.1676 285.998 16.7305L286.289 15.9585L283.134 7.01855H285.309L287.21 13.1113ZM293.568 13.875C293.945 13.875 294.235 13.9829 294.44 14.1987C294.645 14.409 294.747 14.6746 294.747 14.9956C294.747 15.311 294.645 15.5739 294.44 15.7842C294.235 15.9889 293.945 16.0913 293.568 16.0913C293.209 16.0913 292.924 15.9889 292.713 15.7842C292.503 15.5794 292.398 15.3166 292.398 14.9956C292.398 14.6746 292.5 14.409 292.705 14.1987C292.91 13.9829 293.198 13.875 293.568 13.875ZM293.568 6.82764C293.945 6.82764 294.235 6.93555 294.44 7.15137C294.645 7.36165 294.747 7.62728 294.747 7.94824C294.747 8.26367 294.645 8.52653 294.44 8.73682C294.235 8.94157 293.945 9.04395 293.568 9.04395C293.209 9.04395 292.924 8.94157 292.713 8.73682C292.503 8.53206 292.398 8.26921 292.398 7.94824C292.398 7.62728 292.5 7.36165 292.705 7.15137C292.91 6.93555 293.198 6.82764 293.568 6.82764ZM331.71 6.82764C332.087 6.82764 332.377 6.93555 332.582 7.15137C332.787 7.36165 332.889 7.62728 332.889 7.94824C332.889 8.26367 332.787 8.52653 332.582 8.73682C332.377 8.94157 332.087 9.04395 331.71 9.04395C331.351 9.04395 331.066 8.94157 330.855 8.73682C330.645 8.53206 330.54 8.26921 330.54 7.94824C330.54 7.62728 330.642 7.36165 330.847 7.15137C331.052 6.93555 331.34 6.82764 331.71 6.82764ZM331.104 18.7227L330.017 18.0752C330.338 17.5716 330.557 17.1317 330.673 16.7554C330.795 16.3846 330.858 16.0055 330.864 15.6182V14.0493H332.682L332.673 15.502C332.668 16.0885 332.518 16.6751 332.225 17.2617C331.937 17.8538 331.564 18.3408 331.104 18.7227Z" fill="#444444"/>
<path d="M300.749 11.4429C300.749 10.0483 301.075 8.93604 301.728 8.10596C302.387 7.27035 303.258 6.85254 304.343 6.85254C305.367 6.85254 306.172 7.20947 306.758 7.92334L306.85 7.01855H308.667V15.7261C308.667 16.9048 308.299 17.8345 307.563 18.5151C306.833 19.1958 305.845 19.5361 304.6 19.5361C303.942 19.5361 303.297 19.3978 302.666 19.1211C302.041 18.8499 301.565 18.493 301.238 18.0503L302.193 16.8384C302.813 17.5744 303.576 17.9424 304.484 17.9424C305.153 17.9424 305.682 17.7598 306.069 17.3945C306.457 17.0348 306.65 16.5036 306.65 15.8008V15.1948C306.069 15.8423 305.295 16.166 304.326 16.166C303.275 16.166 302.414 15.7482 301.745 14.9126C301.081 14.077 300.749 12.9204 300.749 11.4429ZM302.757 11.6172C302.757 12.5192 302.94 13.2303 303.305 13.7505C303.676 14.2651 304.188 14.5225 304.841 14.5225C305.654 14.5225 306.257 14.1738 306.65 13.4766V9.52539C306.269 8.84473 305.671 8.50439 304.857 8.50439C304.193 8.50439 303.676 8.76725 303.305 9.29297C302.94 9.81868 302.757 10.5934 302.757 11.6172ZM315.449 8.86133C315.184 8.81706 314.91 8.79492 314.627 8.79492C313.703 8.79492 313.081 9.14909 312.76 9.85742V16H310.743V7.01855H312.668L312.718 8.02295C313.205 7.24268 313.88 6.85254 314.744 6.85254C315.031 6.85254 315.269 6.89128 315.458 6.96875L315.449 8.86133ZM318.869 16H316.852V7.01855H318.869V16ZM316.728 4.68604C316.728 4.37614 316.824 4.11882 317.018 3.91406C317.217 3.70931 317.5 3.60693 317.865 3.60693C318.23 3.60693 318.512 3.70931 318.711 3.91406C318.911 4.11882 319.01 4.37614 319.01 4.68604C319.01 4.9904 318.911 5.24495 318.711 5.44971C318.512 5.64893 318.23 5.74854 317.865 5.74854C317.5 5.74854 317.217 5.64893 317.018 5.44971C316.824 5.24495 316.728 4.9904 316.728 4.68604ZM320.695 11.4429C320.695 10.0594 321.016 8.94987 321.658 8.11426C322.3 7.27311 323.161 6.85254 324.24 6.85254C325.192 6.85254 325.961 7.18457 326.547 7.84863V3.25H328.564V16H326.738L326.639 15.0703C326.035 15.8008 325.23 16.166 324.223 16.166C323.172 16.166 322.319 15.7427 321.667 14.896C321.019 14.0493 320.695 12.8983 320.695 11.4429ZM322.712 11.6172C322.712 12.5303 322.887 13.2441 323.235 13.7588C323.59 14.2679 324.09 14.5225 324.738 14.5225C325.562 14.5225 326.166 14.1545 326.547 13.4185V9.5835C326.177 8.8641 325.579 8.50439 324.754 8.50439C324.101 8.50439 323.598 8.76449 323.244 9.28467C322.889 9.79932 322.712 10.5768 322.712 11.6172Z" fill="#1E73FF"/>
<rect x="10" y="45" width="130" height="50" rx="5" fill="#1E73FF"/>
<rect x="150" y="45" width="130" height="50" rx="5" fill="#1E73FF"/>
<rect x="290" y="45" width="130" height="50" rx="5" fill="#1E73FF"/>
<rect x="430" y="45" width="130" height="50" rx="5" fill="#1E73FF"/>
<path d="M77.0801 77H74.2578V66.1211L70.8887 67.166V64.8711L76.7773 62.7617H77.0801V77Z" fill="white"/>
<path d="M219.971 77H210.225V75.0664L214.824 70.1641C215.456 69.474 215.921 68.8717 216.221 68.3574C216.527 67.8431 216.68 67.3548 216.68 66.8926C216.68 66.2611 216.52 65.7663 216.201 65.4082C215.882 65.0436 215.426 64.8613 214.834 64.8613C214.196 64.8613 213.691 65.0827 213.32 65.5254C212.956 65.9616 212.773 66.5378 212.773 67.2539H209.941C209.941 66.388 210.146 65.597 210.557 64.8809C210.973 64.1647 211.559 63.6048 212.314 63.2012C213.07 62.791 213.926 62.5859 214.883 62.5859C216.348 62.5859 217.484 62.9375 218.291 63.6406C219.105 64.3438 219.512 65.3366 219.512 66.6191C219.512 67.3223 219.329 68.0384 218.965 68.7676C218.6 69.4967 217.975 70.3464 217.09 71.3164L213.857 74.7246H219.971V77Z" fill="white"/>
<path d="M353.096 68.6406H354.6C355.316 68.6406 355.846 68.4616 356.191 68.1035C356.536 67.7454 356.709 67.2702 356.709 66.6777C356.709 66.1048 356.536 65.6589 356.191 65.3398C355.853 65.0208 355.384 64.8613 354.785 64.8613C354.245 64.8613 353.792 65.0111 353.428 65.3105C353.063 65.6035 352.881 65.9876 352.881 66.4629H350.059C350.059 65.7207 350.257 65.0566 350.654 64.4707C351.058 63.8783 351.618 63.416 352.334 63.084C353.057 62.752 353.851 62.5859 354.717 62.5859C356.221 62.5859 357.399 62.9473 358.252 63.6699C359.105 64.3861 359.531 65.3757 359.531 66.6387C359.531 67.2897 359.333 67.8887 358.936 68.4355C358.538 68.9824 358.018 69.4023 357.373 69.6953C358.174 69.9818 358.77 70.4115 359.16 70.9844C359.557 71.5573 359.756 72.2344 359.756 73.0156C359.756 74.2786 359.294 75.291 358.369 76.0527C357.451 76.8145 356.234 77.1953 354.717 77.1953C353.298 77.1953 352.135 76.821 351.23 76.0723C350.332 75.3236 349.883 74.334 349.883 73.1035H352.705C352.705 73.6374 352.904 74.0736 353.301 74.4121C353.704 74.7507 354.199 74.9199 354.785 74.9199C355.456 74.9199 355.98 74.7441 356.357 74.3926C356.742 74.0345 356.934 73.5625 356.934 72.9766C356.934 71.5573 356.152 70.8477 354.59 70.8477H353.096V68.6406Z" fill="white"/>
<path d="M498.574 71.6484H500.186V73.9238H498.574V77H495.752V73.9238H489.922L489.795 72.1465L495.723 62.7812H498.574V71.6484ZM492.607 71.6484H495.752V66.6289L495.566 66.9512L492.607 71.6484Z" fill="white"/>
</svg>
