<svg width="710" height="560" viewBox="0 0 710 560" fill="none" xmlns="http://www.w3.org/2000/svg">
<rect width="578" height="174" transform="translate(0 162)" fill="#F7F7F7"/>
<path d="M37 329C37 330.105 36.1046 331 35 331L21 331C19.8954 331 19 330.105 19 329L19 319.814C19 319.283 19.2112 318.774 19.587 318.399L26.587 311.411C27.3678 310.631 28.6323 310.631 29.413 311.411L36.413 318.399C36.7888 318.774 37 319.283 37 319.814L37 329Z" fill="#DDDDDD"/>
<path d="M26.1133 323.947H23.0371V322.799H26.1133V323.947ZM27.5781 322.77L28.041 318.469H32.623V319.699H29.2246L28.9902 321.738C29.3848 321.512 29.8301 321.398 30.3262 321.398C31.1387 321.398 31.7695 321.658 32.2188 322.178C32.6719 322.697 32.8984 323.396 32.8984 324.275C32.8984 325.143 32.6484 325.834 32.1484 326.35C31.6484 326.861 30.9629 327.117 30.0918 327.117C29.3105 327.117 28.6621 326.896 28.1465 326.455C27.6348 326.01 27.3574 325.424 27.3145 324.697H28.6914C28.7461 325.111 28.8945 325.43 29.1367 325.652C29.3789 325.871 29.6953 325.98 30.0859 325.98C30.5234 325.98 30.8633 325.824 31.1055 325.512C31.3516 325.199 31.4746 324.773 31.4746 324.234C31.4746 323.715 31.3398 323.305 31.0703 323.004C30.8008 322.699 30.4297 322.547 29.957 322.547C29.6992 322.547 29.4805 322.582 29.3008 322.652C29.1211 322.719 28.9258 322.852 28.7148 323.051L27.5781 322.77Z" fill="white"/>
<path d="M166 329C166 330.105 165.105 331 164 331L150 331C148.895 331 148 330.105 148 329L148 319.814C148 319.283 148.211 318.774 148.587 318.399L155.587 311.411C156.368 310.631 157.632 310.631 158.413 311.411L165.413 318.399C165.789 318.774 166 319.283 166 319.814L166 329Z" fill="#DDDDDD"/>
<path d="M155.113 323.947H152.037V322.799H155.113V323.947ZM161.014 323.959H162.074V325.102H161.014V327H159.59V325.102H155.904L155.863 324.234L159.543 318.469H161.014V323.959ZM157.357 323.959H159.59V320.396L159.484 320.584L157.357 323.959Z" fill="white"/>
<path d="M298 329C298 330.105 297.105 331 296 331L282 331C280.895 331 280 330.105 280 329L280 319.814C280 319.283 280.211 318.774 280.587 318.399L287.587 311.411C288.368 310.631 289.632 310.631 290.413 311.411L297.413 318.399C297.789 318.774 298 319.283 298 319.814L298 329Z" fill="#DDDDDD"/>
<path d="M287.113 323.947H284.037V322.799H287.113V323.947ZM289.844 322.084H290.711C291.148 322.08 291.494 321.967 291.748 321.744C292.006 321.521 292.135 321.199 292.135 320.777C292.135 320.371 292.027 320.057 291.812 319.834C291.602 319.607 291.277 319.494 290.84 319.494C290.457 319.494 290.143 319.605 289.896 319.828C289.65 320.047 289.527 320.334 289.527 320.689H288.104C288.104 320.252 288.219 319.854 288.449 319.494C288.684 319.135 289.008 318.855 289.422 318.656C289.84 318.453 290.307 318.352 290.822 318.352C291.674 318.352 292.342 318.566 292.826 318.996C293.314 319.422 293.559 320.016 293.559 320.777C293.559 321.16 293.436 321.521 293.189 321.861C292.947 322.197 292.633 322.451 292.246 322.623C292.715 322.783 293.07 323.035 293.312 323.379C293.559 323.723 293.682 324.133 293.682 324.609C293.682 325.375 293.418 325.984 292.891 326.438C292.367 326.891 291.678 327.117 290.822 327.117C290.002 327.117 289.33 326.898 288.807 326.461C288.283 326.023 288.021 325.441 288.021 324.715H289.445C289.445 325.09 289.57 325.395 289.82 325.629C290.074 325.863 290.414 325.98 290.84 325.98C291.281 325.98 291.629 325.863 291.883 325.629C292.137 325.395 292.264 325.055 292.264 324.609C292.264 324.16 292.131 323.814 291.865 323.572C291.6 323.33 291.205 323.209 290.682 323.209H289.844V322.084Z" fill="white"/>
<path d="M430 329C430 330.105 429.105 331 428 331L414 331C412.895 331 412 330.105 412 329L412 319.814C412 319.283 412.211 318.774 412.587 318.399L419.587 311.411C420.368 310.631 421.632 310.631 422.413 311.411L429.413 318.399C429.789 318.774 430 319.283 430 319.814L430 329Z" fill="#DDDDDD"/>
<path d="M419.113 323.947H416.037V322.799H419.113V323.947ZM425.934 327H420.197V326.021L423.039 322.922C423.449 322.465 423.74 322.084 423.912 321.779C424.088 321.471 424.176 321.162 424.176 320.854C424.176 320.447 424.061 320.119 423.83 319.869C423.604 319.619 423.297 319.494 422.91 319.494C422.449 319.494 422.092 319.635 421.838 319.916C421.584 320.197 421.457 320.582 421.457 321.07H420.033C420.033 320.551 420.15 320.084 420.385 319.67C420.623 319.252 420.961 318.928 421.398 318.697C421.84 318.467 422.348 318.352 422.922 318.352C423.75 318.352 424.402 318.561 424.879 318.979C425.359 319.393 425.6 319.967 425.6 320.701C425.6 321.127 425.479 321.574 425.236 322.043C424.998 322.508 424.605 323.037 424.059 323.631L421.973 325.863H425.934V327Z" fill="white"/>
<path d="M559 329C559 330.105 558.105 331 557 331L543 331C541.895 331 541 330.105 541 329L541 319.814C541 319.283 541.211 318.774 541.587 318.399L548.587 311.411C549.368 310.631 550.632 310.631 551.413 311.411L558.413 318.399C558.789 318.774 559 319.283 559 319.814L559 329Z" fill="#DDDDDD"/>
<path d="M548.113 323.947H545.037V322.799H548.113V323.947ZM553.053 327H551.635V320.15L549.543 320.865V319.664L552.871 318.439H553.053V327Z" fill="white"/>
<path d="M19 169C19 167.895 19.8954 167 21 167H35C36.1046 167 37 167.895 37 169V178.186C37 178.717 36.7888 179.226 36.413 179.601L29.413 186.589C28.6323 187.369 27.3677 187.369 26.587 186.589L19.587 179.601C19.2112 179.226 19 178.717 19 178.186V169Z" fill="#CCCCCC"/>
<path d="M29.084 179H27.666V172.15L25.5742 172.865V171.664L28.9023 170.439H29.084V179Z" fill="white"/>
<path d="M148 169C148 167.895 148.895 167 150 167H164C165.105 167 166 167.895 166 169V178.186C166 178.717 165.789 179.226 165.413 179.601L158.413 186.589C157.632 187.369 156.368 187.369 155.587 186.589L148.587 179.601C148.211 179.226 148 178.717 148 178.186V169Z" fill="#CCCCCC"/>
<path d="M159.965 179H154.229V178.021L157.07 174.922C157.48 174.465 157.771 174.084 157.943 173.779C158.119 173.471 158.207 173.162 158.207 172.854C158.207 172.447 158.092 172.119 157.861 171.869C157.635 171.619 157.328 171.494 156.941 171.494C156.48 171.494 156.123 171.635 155.869 171.916C155.615 172.197 155.488 172.582 155.488 173.07H154.064C154.064 172.551 154.182 172.084 154.416 171.67C154.654 171.252 154.992 170.928 155.43 170.697C155.871 170.467 156.379 170.352 156.953 170.352C157.781 170.352 158.434 170.561 158.91 170.979C159.391 171.393 159.631 171.967 159.631 172.701C159.631 173.127 159.51 173.574 159.268 174.043C159.029 174.508 158.637 175.037 158.09 175.631L156.004 177.863H159.965V179Z" fill="white"/>
<path d="M280 169C280 167.895 280.895 167 282 167H296C297.105 167 298 167.895 298 169V178.186C298 178.717 297.789 179.226 297.413 179.601L290.413 186.589C289.632 187.369 288.368 187.369 287.587 186.589L280.587 179.601C280.211 179.226 280 178.717 280 178.186V169Z" fill="#CCCCCC"/>
<path d="M287.875 174.084H288.742C289.18 174.08 289.525 173.967 289.779 173.744C290.037 173.521 290.166 173.199 290.166 172.777C290.166 172.371 290.059 172.057 289.844 171.834C289.633 171.607 289.309 171.494 288.871 171.494C288.488 171.494 288.174 171.605 287.928 171.828C287.682 172.047 287.559 172.334 287.559 172.689H286.135C286.135 172.252 286.25 171.854 286.48 171.494C286.715 171.135 287.039 170.855 287.453 170.656C287.871 170.453 288.338 170.352 288.854 170.352C289.705 170.352 290.373 170.566 290.857 170.996C291.346 171.422 291.59 172.016 291.59 172.777C291.59 173.16 291.467 173.521 291.221 173.861C290.979 174.197 290.664 174.451 290.277 174.623C290.746 174.783 291.102 175.035 291.344 175.379C291.59 175.723 291.713 176.133 291.713 176.609C291.713 177.375 291.449 177.984 290.922 178.438C290.398 178.891 289.709 179.117 288.854 179.117C288.033 179.117 287.361 178.898 286.838 178.461C286.314 178.023 286.053 177.441 286.053 176.715H287.477C287.477 177.09 287.602 177.395 287.852 177.629C288.105 177.863 288.445 177.98 288.871 177.98C289.312 177.98 289.66 177.863 289.914 177.629C290.168 177.395 290.295 177.055 290.295 176.609C290.295 176.16 290.162 175.814 289.896 175.572C289.631 175.33 289.236 175.209 288.713 175.209H287.875V174.084Z" fill="white"/>
<path d="M412 169C412 167.895 412.895 167 414 167H428C429.105 167 430 167.895 430 169V178.186C430 178.717 429.789 179.226 429.413 179.601L422.413 186.589C421.632 187.369 420.368 187.369 419.587 186.589L412.587 179.601C412.211 179.226 412 178.717 412 178.186V169Z" fill="#CCCCCC"/>
<path d="M423.045 175.959H424.105V177.102H423.045V179H421.621V177.102H417.936L417.895 176.234L421.574 170.469H423.045V175.959ZM419.389 175.959H421.621V172.396L421.516 172.584L419.389 175.959Z" fill="white"/>
<path d="M541 169C541 167.895 541.895 167 543 167H557C558.105 167 559 167.895 559 169V178.186C559 178.717 558.789 179.226 558.413 179.601L551.413 186.589C550.632 187.369 549.368 187.369 548.587 186.589L541.587 179.601C541.211 179.226 541 178.717 541 178.186V169Z" fill="#CCCCCC"/>
<path d="M547.609 174.77L548.072 170.469H552.654V171.699H549.256L549.021 173.738C549.416 173.512 549.861 173.398 550.357 173.398C551.17 173.398 551.801 173.658 552.25 174.178C552.703 174.697 552.93 175.396 552.93 176.275C552.93 177.143 552.68 177.834 552.18 178.35C551.68 178.861 550.994 179.117 550.123 179.117C549.342 179.117 548.693 178.896 548.178 178.455C547.666 178.01 547.389 177.424 547.346 176.697H548.723C548.777 177.111 548.926 177.43 549.168 177.652C549.41 177.871 549.727 177.98 550.117 177.98C550.555 177.98 550.895 177.824 551.137 177.512C551.383 177.199 551.506 176.773 551.506 176.234C551.506 175.715 551.371 175.305 551.102 175.004C550.832 174.699 550.461 174.547 549.988 174.547C549.73 174.547 549.512 174.582 549.332 174.652C549.152 174.719 548.957 174.852 548.746 175.051L547.609 174.77Z" fill="white"/>
<path d="M7 199C5.89543 199 5 198.105 5 197L5 183C5 181.895 5.89543 181 7 181L16.1857 181C16.7167 181 17.2259 181.211 17.6011 181.587L24.5894 188.587C25.3688 189.368 25.3688 190.632 24.5894 191.413L17.6011 198.413C17.2259 198.789 16.7167 199 16.1857 199L7 199Z" fill="#CCCCCC"/>
<path d="M14.084 194H12.666V187.15L10.5742 187.865V186.664L13.9023 185.439H14.084V194Z" fill="white"/>
<path d="M7 258C5.89543 258 5 257.105 5 256L5 242C5 240.895 5.89543 240 7 240L16.1857 240C16.7167 240 17.2259 240.211 17.6011 240.587L24.5894 247.587C25.3688 248.368 25.3688 249.632 24.5894 250.413L17.6011 257.413C17.2259 257.789 16.7167 258 16.1857 258L7 258Z" fill="#CCCCCC"/>
<path d="M15.9648 253H10.2285V252.021L13.0703 248.922C13.4805 248.465 13.7715 248.084 13.9434 247.779C14.1191 247.471 14.207 247.162 14.207 246.854C14.207 246.447 14.0918 246.119 13.8613 245.869C13.6348 245.619 13.3281 245.494 12.9414 245.494C12.4805 245.494 12.123 245.635 11.8691 245.916C11.6152 246.197 11.4883 246.582 11.4883 247.07H10.0645C10.0645 246.551 10.1816 246.084 10.416 245.67C10.6543 245.252 10.9922 244.928 11.4297 244.697C11.8711 244.467 12.3789 244.352 12.9531 244.352C13.7812 244.352 14.4336 244.561 14.9102 244.979C15.3906 245.393 15.6309 245.967 15.6309 246.701C15.6309 247.127 15.5098 247.574 15.2676 248.043C15.0293 248.508 14.6367 249.037 14.0898 249.631L12.0039 251.863H15.9648V253Z" fill="white"/>
<path d="M7 317C5.89543 317 5 316.105 5 315L5 301C5 299.895 5.89543 299 7 299L16.1857 299C16.7167 299 17.2259 299.211 17.6011 299.587L24.5894 306.587C25.3688 307.368 25.3688 308.632 24.5894 309.413L17.6011 316.413C17.2259 316.789 16.7167 317 16.1857 317L7 317Z" fill="#CCCCCC"/>
<path d="M11.875 307.084H12.7422C13.1797 307.08 13.5254 306.967 13.7793 306.744C14.0371 306.521 14.166 306.199 14.166 305.777C14.166 305.371 14.0586 305.057 13.8438 304.834C13.6328 304.607 13.3086 304.494 12.8711 304.494C12.4883 304.494 12.1738 304.605 11.9277 304.828C11.6816 305.047 11.5586 305.334 11.5586 305.689H10.1348C10.1348 305.252 10.25 304.854 10.4805 304.494C10.7148 304.135 11.0391 303.855 11.4531 303.656C11.8711 303.453 12.3379 303.352 12.8535 303.352C13.7051 303.352 14.373 303.566 14.8574 303.996C15.3457 304.422 15.5898 305.016 15.5898 305.777C15.5898 306.16 15.4668 306.521 15.2207 306.861C14.9785 307.197 14.6641 307.451 14.2773 307.623C14.7461 307.783 15.1016 308.035 15.3438 308.379C15.5898 308.723 15.7129 309.133 15.7129 309.609C15.7129 310.375 15.4492 310.984 14.9219 311.438C14.3984 311.891 13.709 312.117 12.8535 312.117C12.0332 312.117 11.3613 311.898 10.8379 311.461C10.3145 311.023 10.0527 310.441 10.0527 309.715H11.4766C11.4766 310.09 11.6016 310.395 11.8516 310.629C12.1055 310.863 12.4453 310.98 12.8711 310.98C13.3125 310.98 13.6602 310.863 13.9141 310.629C14.168 310.395 14.2949 310.055 14.2949 309.609C14.2949 309.16 14.1621 308.814 13.8965 308.572C13.6309 308.33 13.2363 308.209 12.7129 308.209H11.875V307.084Z" fill="white"/>
<path d="M571 181C572.105 181 573 181.895 573 183L573 197C573 198.105 572.105 199 571 199L561.814 199C561.283 199 560.774 198.789 560.399 198.413L553.411 191.413C552.631 190.632 552.631 189.368 553.411 188.587L560.399 181.587C560.774 181.211 561.283 181 561.814 181L571 181Z" fill="#DDDDDD"/>
<path d="M563.113 190.947H560.037V189.799H563.113V190.947ZM565.844 189.084H566.711C567.148 189.08 567.494 188.967 567.748 188.744C568.006 188.521 568.135 188.199 568.135 187.777C568.135 187.371 568.027 187.057 567.812 186.834C567.602 186.607 567.277 186.494 566.84 186.494C566.457 186.494 566.143 186.605 565.896 186.828C565.65 187.047 565.527 187.334 565.527 187.689H564.104C564.104 187.252 564.219 186.854 564.449 186.494C564.684 186.135 565.008 185.855 565.422 185.656C565.84 185.453 566.307 185.352 566.822 185.352C567.674 185.352 568.342 185.566 568.826 185.996C569.314 186.422 569.559 187.016 569.559 187.777C569.559 188.16 569.436 188.521 569.189 188.861C568.947 189.197 568.633 189.451 568.246 189.623C568.715 189.783 569.07 190.035 569.312 190.379C569.559 190.723 569.682 191.133 569.682 191.609C569.682 192.375 569.418 192.984 568.891 193.438C568.367 193.891 567.678 194.117 566.822 194.117C566.002 194.117 565.33 193.898 564.807 193.461C564.283 193.023 564.021 192.441 564.021 191.715H565.445C565.445 192.09 565.57 192.395 565.82 192.629C566.074 192.863 566.414 192.98 566.84 192.98C567.281 192.98 567.629 192.863 567.883 192.629C568.137 192.395 568.264 192.055 568.264 191.609C568.264 191.16 568.131 190.814 567.865 190.572C567.6 190.33 567.205 190.209 566.682 190.209H565.844V189.084Z" fill="white"/>
<path d="M571 240C572.105 240 573 240.895 573 242L573 256C573 257.105 572.105 258 571 258L561.814 258C561.283 258 560.774 257.789 560.399 257.413L553.411 250.413C552.631 249.632 552.631 248.368 553.411 247.587L560.399 240.587C560.774 240.211 561.283 240 561.814 240L571 240Z" fill="#DDDDDD"/>
<path d="M563.113 249.947H560.037V248.799H563.113V249.947ZM569.934 253H564.197V252.021L567.039 248.922C567.449 248.465 567.74 248.084 567.912 247.779C568.088 247.471 568.176 247.162 568.176 246.854C568.176 246.447 568.061 246.119 567.83 245.869C567.604 245.619 567.297 245.494 566.91 245.494C566.449 245.494 566.092 245.635 565.838 245.916C565.584 246.197 565.457 246.582 565.457 247.07H564.033C564.033 246.551 564.15 246.084 564.385 245.67C564.623 245.252 564.961 244.928 565.398 244.697C565.84 244.467 566.348 244.352 566.922 244.352C567.75 244.352 568.402 244.561 568.879 244.979C569.359 245.393 569.6 245.967 569.6 246.701C569.6 247.127 569.479 247.574 569.236 248.043C568.998 248.508 568.605 249.037 568.059 249.631L565.973 251.863H569.934V253Z" fill="white"/>
<path d="M571 299C572.105 299 573 299.895 573 301L573 315C573 316.105 572.105 317 571 317L561.814 317C561.283 317 560.774 316.789 560.399 316.413L553.411 309.413C552.631 308.632 552.631 307.368 553.411 306.587L560.399 299.587C560.774 299.211 561.283 299 561.814 299L571 299Z" fill="#DDDDDD"/>
<path d="M563.113 308.947H560.037V307.799H563.113V308.947ZM568.053 312H566.635V305.15L564.543 305.865V304.664L567.871 303.439H568.053V312Z" fill="white"/>
<rect x="28" y="190" width="522" height="118" fill="white"/>
<path d="M31 198C31 195.239 33.2386 193 36 193H146C148.761 193 151 195.239 151 198V238C151 240.761 148.761 243 146 243H36C33.2386 243 31 240.761 31 238V198Z" fill="#1E73FF"/>
<path d="M73.2041 222.667H71.4243V214.742H73.2041V222.667ZM71.3145 212.684C71.3145 212.41 71.3999 212.183 71.5708 212.003C71.7466 211.822 71.9956 211.732 72.3179 211.732C72.6401 211.732 72.8892 211.822 73.0649 212.003C73.2407 212.183 73.3286 212.41 73.3286 212.684C73.3286 212.952 73.2407 213.177 73.0649 213.358C72.8892 213.533 72.6401 213.621 72.3179 213.621C71.9956 213.621 71.7466 213.533 71.5708 213.358C71.3999 213.177 71.3145 212.952 71.3145 212.684ZM77.3789 212.816V214.742H78.7778V216.06H77.3789V220.484C77.3789 220.787 77.4375 221.007 77.5547 221.143C77.6768 221.275 77.8916 221.341 78.1992 221.341C78.4043 221.341 78.6118 221.317 78.8218 221.268V222.645C78.4165 222.757 78.0259 222.813 77.6499 222.813C76.2827 222.813 75.5991 222.059 75.5991 220.55V216.06H74.2954V214.742H75.5991V212.816H77.3789ZM83.6338 222.813C82.5059 222.813 81.5903 222.459 80.8872 221.751C80.189 221.038 79.8398 220.091 79.8398 218.909V218.69C79.8398 217.899 79.9912 217.193 80.2939 216.573C80.6016 215.948 81.0312 215.462 81.583 215.115C82.1348 214.769 82.75 214.595 83.4287 214.595C84.5078 214.595 85.3403 214.94 85.9263 215.628C86.5171 216.317 86.8125 217.291 86.8125 218.55V219.268H81.6343C81.688 219.923 81.9053 220.44 82.2861 220.821C82.6719 221.202 83.1553 221.392 83.7363 221.392C84.5518 221.392 85.2158 221.063 85.7285 220.404L86.688 221.319C86.3706 221.793 85.9458 222.161 85.4136 222.425C84.8862 222.684 84.293 222.813 83.6338 222.813ZM83.4214 216.024C82.9331 216.024 82.5376 216.195 82.2349 216.536C81.937 216.878 81.7466 217.354 81.6636 217.965H85.0547V217.833C85.0156 217.237 84.8569 216.788 84.5786 216.485C84.3003 216.177 83.9146 216.024 83.4214 216.024ZM89.874 214.742L89.9253 215.57C90.4819 214.92 91.2437 214.595 92.2104 214.595C93.27 214.595 93.9951 215.001 94.3857 215.811C94.9619 215.001 95.7725 214.595 96.8174 214.595C97.6914 214.595 98.3408 214.837 98.7656 215.32C99.1953 215.804 99.415 216.517 99.4248 217.459V222.667H97.645V217.51C97.645 217.008 97.5352 216.639 97.3154 216.404C97.0957 216.17 96.7319 216.053 96.2241 216.053C95.8188 216.053 95.4868 216.163 95.228 216.383C94.9741 216.597 94.7959 216.881 94.6934 217.232L94.7007 222.667H92.9209V217.452C92.8965 216.519 92.4204 216.053 91.4927 216.053C90.7798 216.053 90.2744 216.343 89.9766 216.924V222.667H88.1968V214.742H89.874ZM109.693 222.667H107.921V214.105L105.306 214.998V213.497L109.466 211.966H109.693V222.667Z" fill="white"/>
<path d="M163 198C163 195.239 165.239 193 168 193H278C280.761 193 283 195.239 283 198V238C283 240.761 280.761 243 278 243H168C165.239 243 163 240.761 163 238V198Z" fill="#1E73FF"/>
<path d="M205.204 222.667H203.424V214.742H205.204V222.667ZM203.314 212.684C203.314 212.41 203.4 212.183 203.571 212.003C203.747 211.822 203.996 211.732 204.318 211.732C204.64 211.732 204.889 211.822 205.065 212.003C205.241 212.183 205.329 212.41 205.329 212.684C205.329 212.952 205.241 213.177 205.065 213.358C204.889 213.533 204.64 213.621 204.318 213.621C203.996 213.621 203.747 213.533 203.571 213.358C203.4 213.177 203.314 212.952 203.314 212.684ZM209.379 212.816V214.742H210.778V216.06H209.379V220.484C209.379 220.787 209.438 221.007 209.555 221.143C209.677 221.275 209.892 221.341 210.199 221.341C210.404 221.341 210.612 221.317 210.822 221.268V222.645C210.417 222.757 210.026 222.813 209.65 222.813C208.283 222.813 207.599 222.059 207.599 220.55V216.06H206.295V214.742H207.599V212.816H209.379ZM215.634 222.813C214.506 222.813 213.59 222.459 212.887 221.751C212.189 221.038 211.84 220.091 211.84 218.909V218.69C211.84 217.899 211.991 217.193 212.294 216.573C212.602 215.948 213.031 215.462 213.583 215.115C214.135 214.769 214.75 214.595 215.429 214.595C216.508 214.595 217.34 214.94 217.926 215.628C218.517 216.317 218.812 217.291 218.812 218.55V219.268H213.634C213.688 219.923 213.905 220.44 214.286 220.821C214.672 221.202 215.155 221.392 215.736 221.392C216.552 221.392 217.216 221.063 217.729 220.404L218.688 221.319C218.371 221.793 217.946 222.161 217.414 222.425C216.886 222.684 216.293 222.813 215.634 222.813ZM215.421 216.024C214.933 216.024 214.538 216.195 214.235 216.536C213.937 216.878 213.747 217.354 213.664 217.965H217.055V217.833C217.016 217.237 216.857 216.788 216.579 216.485C216.3 216.177 215.915 216.024 215.421 216.024ZM221.874 214.742L221.925 215.57C222.482 214.92 223.244 214.595 224.21 214.595C225.27 214.595 225.995 215.001 226.386 215.811C226.962 215.001 227.772 214.595 228.817 214.595C229.691 214.595 230.341 214.837 230.766 215.32C231.195 215.804 231.415 216.517 231.425 217.459V222.667H229.645V217.51C229.645 217.008 229.535 216.639 229.315 216.404C229.096 216.17 228.732 216.053 228.224 216.053C227.819 216.053 227.487 216.163 227.228 216.383C226.974 216.597 226.796 216.881 226.693 217.232L226.701 222.667H224.921V217.452C224.896 216.519 224.42 216.053 223.493 216.053C222.78 216.053 222.274 216.343 221.977 216.924V222.667H220.197V214.742H221.874ZM244.044 222.667H236.874V221.444L240.426 217.569C240.939 216.998 241.303 216.522 241.518 216.141C241.737 215.755 241.847 215.369 241.847 214.984C241.847 214.476 241.703 214.066 241.415 213.753C241.132 213.441 240.749 213.284 240.265 213.284C239.689 213.284 239.242 213.46 238.925 213.812C238.607 214.163 238.449 214.644 238.449 215.255H236.669C236.669 214.605 236.815 214.022 237.108 213.504C237.406 212.982 237.829 212.576 238.375 212.288C238.927 212 239.562 211.856 240.28 211.856C241.315 211.856 242.13 212.117 242.726 212.64C243.327 213.157 243.627 213.875 243.627 214.793C243.627 215.325 243.476 215.884 243.173 216.47C242.875 217.051 242.384 217.713 241.701 218.455L239.093 221.246H244.044V222.667Z" fill="white"/>
<path d="M295 198C295 195.239 297.239 193 300 193H410C412.761 193 415 195.239 415 198V238C415 240.761 412.761 243 410 243H300C297.239 243 295 240.761 295 238V198Z" fill="#1E73FF"/>
<path d="M337.204 222.667H335.424V214.742H337.204V222.667ZM335.314 212.684C335.314 212.41 335.4 212.183 335.571 212.003C335.747 211.822 335.996 211.732 336.318 211.732C336.64 211.732 336.889 211.822 337.065 212.003C337.241 212.183 337.329 212.41 337.329 212.684C337.329 212.952 337.241 213.177 337.065 213.358C336.889 213.533 336.64 213.621 336.318 213.621C335.996 213.621 335.747 213.533 335.571 213.358C335.4 213.177 335.314 212.952 335.314 212.684ZM341.379 212.816V214.742H342.778V216.06H341.379V220.484C341.379 220.787 341.438 221.007 341.555 221.143C341.677 221.275 341.892 221.341 342.199 221.341C342.404 221.341 342.612 221.317 342.822 221.268V222.645C342.417 222.757 342.026 222.813 341.65 222.813C340.283 222.813 339.599 222.059 339.599 220.55V216.06H338.295V214.742H339.599V212.816H341.379ZM347.634 222.813C346.506 222.813 345.59 222.459 344.887 221.751C344.189 221.038 343.84 220.091 343.84 218.909V218.69C343.84 217.899 343.991 217.193 344.294 216.573C344.602 215.948 345.031 215.462 345.583 215.115C346.135 214.769 346.75 214.595 347.429 214.595C348.508 214.595 349.34 214.94 349.926 215.628C350.517 216.317 350.812 217.291 350.812 218.55V219.268H345.634C345.688 219.923 345.905 220.44 346.286 220.821C346.672 221.202 347.155 221.392 347.736 221.392C348.552 221.392 349.216 221.063 349.729 220.404L350.688 221.319C350.371 221.793 349.946 222.161 349.414 222.425C348.886 222.684 348.293 222.813 347.634 222.813ZM347.421 216.024C346.933 216.024 346.538 216.195 346.235 216.536C345.937 216.878 345.747 217.354 345.664 217.965H349.055V217.833C349.016 217.237 348.857 216.788 348.579 216.485C348.3 216.177 347.915 216.024 347.421 216.024ZM353.874 214.742L353.925 215.57C354.482 214.92 355.244 214.595 356.21 214.595C357.27 214.595 357.995 215.001 358.386 215.811C358.962 215.001 359.772 214.595 360.817 214.595C361.691 214.595 362.341 214.837 362.766 215.32C363.195 215.804 363.415 216.517 363.425 217.459V222.667H361.645V217.51C361.645 217.008 361.535 216.639 361.315 216.404C361.096 216.17 360.732 216.053 360.224 216.053C359.819 216.053 359.487 216.163 359.228 216.383C358.974 216.597 358.796 216.881 358.693 217.232L358.701 222.667H356.921V217.452C356.896 216.519 356.42 216.053 355.493 216.053C354.78 216.053 354.274 216.343 353.977 216.924V222.667H352.197V214.742H353.874ZM370.932 216.522H372.016C372.563 216.517 372.995 216.375 373.312 216.097C373.635 215.819 373.796 215.416 373.796 214.888C373.796 214.381 373.662 213.987 373.393 213.709C373.129 213.426 372.724 213.284 372.177 213.284C371.699 213.284 371.306 213.424 370.998 213.702C370.69 213.975 370.537 214.334 370.537 214.779H368.757C368.757 214.232 368.901 213.734 369.189 213.284C369.482 212.835 369.887 212.486 370.405 212.237C370.927 211.983 371.511 211.856 372.155 211.856C373.22 211.856 374.055 212.125 374.66 212.662C375.271 213.194 375.576 213.936 375.576 214.888C375.576 215.367 375.422 215.819 375.114 216.243C374.812 216.663 374.418 216.981 373.935 217.195C374.521 217.396 374.965 217.711 375.268 218.14C375.576 218.57 375.729 219.083 375.729 219.678C375.729 220.635 375.4 221.397 374.741 221.964C374.086 222.53 373.225 222.813 372.155 222.813C371.13 222.813 370.29 222.54 369.636 221.993C368.981 221.446 368.654 220.718 368.654 219.81H370.434C370.434 220.279 370.59 220.66 370.903 220.953C371.22 221.246 371.645 221.392 372.177 221.392C372.729 221.392 373.164 221.246 373.481 220.953C373.798 220.66 373.957 220.235 373.957 219.678C373.957 219.117 373.791 218.685 373.459 218.382C373.127 218.079 372.634 217.928 371.979 217.928H370.932V216.522Z" fill="white"/>
<path d="M427 198C427 195.239 429.239 193 432 193H542C544.761 193 547 195.239 547 198V238C547 240.761 544.761 243 542 243H432C429.239 243 427 240.761 427 238V198Z" fill="#1E73FF"/>
<path d="M469.204 222.667H467.424V214.742H469.204V222.667ZM467.314 212.684C467.314 212.41 467.4 212.183 467.571 212.003C467.747 211.822 467.996 211.732 468.318 211.732C468.64 211.732 468.889 211.822 469.065 212.003C469.241 212.183 469.329 212.41 469.329 212.684C469.329 212.952 469.241 213.177 469.065 213.358C468.889 213.533 468.64 213.621 468.318 213.621C467.996 213.621 467.747 213.533 467.571 213.358C467.4 213.177 467.314 212.952 467.314 212.684ZM473.379 212.816V214.742H474.778V216.06H473.379V220.484C473.379 220.787 473.438 221.007 473.555 221.143C473.677 221.275 473.892 221.341 474.199 221.341C474.404 221.341 474.612 221.317 474.822 221.268V222.645C474.417 222.757 474.026 222.813 473.65 222.813C472.283 222.813 471.599 222.059 471.599 220.55V216.06H470.295V214.742H471.599V212.816H473.379ZM479.634 222.813C478.506 222.813 477.59 222.459 476.887 221.751C476.189 221.038 475.84 220.091 475.84 218.909V218.69C475.84 217.899 475.991 217.193 476.294 216.573C476.602 215.948 477.031 215.462 477.583 215.115C478.135 214.769 478.75 214.595 479.429 214.595C480.508 214.595 481.34 214.94 481.926 215.628C482.517 216.317 482.812 217.291 482.812 218.55V219.268H477.634C477.688 219.923 477.905 220.44 478.286 220.821C478.672 221.202 479.155 221.392 479.736 221.392C480.552 221.392 481.216 221.063 481.729 220.404L482.688 221.319C482.371 221.793 481.946 222.161 481.414 222.425C480.886 222.684 480.293 222.813 479.634 222.813ZM479.421 216.024C478.933 216.024 478.538 216.195 478.235 216.536C477.937 216.878 477.747 217.354 477.664 217.965H481.055V217.833C481.016 217.237 480.857 216.788 480.579 216.485C480.3 216.177 479.915 216.024 479.421 216.024ZM485.874 214.742L485.925 215.57C486.482 214.92 487.244 214.595 488.21 214.595C489.27 214.595 489.995 215.001 490.386 215.811C490.962 215.001 491.772 214.595 492.817 214.595C493.691 214.595 494.341 214.837 494.766 215.32C495.195 215.804 495.415 216.517 495.425 217.459V222.667H493.645V217.51C493.645 217.008 493.535 216.639 493.315 216.404C493.096 216.17 492.732 216.053 492.224 216.053C491.819 216.053 491.487 216.163 491.228 216.383C490.974 216.597 490.796 216.881 490.693 217.232L490.701 222.667H488.921V217.452C488.896 216.519 488.42 216.053 487.493 216.053C486.78 216.053 486.274 216.343 485.977 216.924V222.667H484.197V214.742H485.874ZM506.895 218.865H508.22V220.294H506.895V222.667H505.115V220.294H500.508L500.457 219.21L505.056 212.003H506.895V218.865ZM502.324 218.865H505.115V214.412L504.983 214.647L502.324 218.865Z" fill="white"/>
<path d="M31 260C31 257.239 33.2386 255 36 255H146C148.761 255 151 257.239 151 260V300C151 302.761 148.761 305 146 305H36C33.2386 305 31 302.761 31 300V260Z" fill="#1E73FF"/>
<path d="M73.2041 284.667H71.4243V276.742H73.2041V284.667ZM71.3145 274.684C71.3145 274.41 71.3999 274.183 71.5708 274.003C71.7466 273.822 71.9956 273.732 72.3179 273.732C72.6401 273.732 72.8892 273.822 73.0649 274.003C73.2407 274.183 73.3286 274.41 73.3286 274.684C73.3286 274.952 73.2407 275.177 73.0649 275.358C72.8892 275.533 72.6401 275.621 72.3179 275.621C71.9956 275.621 71.7466 275.533 71.5708 275.358C71.3999 275.177 71.3145 274.952 71.3145 274.684ZM77.3789 274.816V276.742H78.7778V278.06H77.3789V282.484C77.3789 282.787 77.4375 283.007 77.5547 283.143C77.6768 283.275 77.8916 283.341 78.1992 283.341C78.4043 283.341 78.6118 283.317 78.8218 283.268V284.645C78.4165 284.757 78.0259 284.813 77.6499 284.813C76.2827 284.813 75.5991 284.059 75.5991 282.55V278.06H74.2954V276.742H75.5991V274.816H77.3789ZM83.6338 284.813C82.5059 284.813 81.5903 284.459 80.8872 283.751C80.189 283.038 79.8398 282.091 79.8398 280.909V280.69C79.8398 279.899 79.9912 279.193 80.2939 278.573C80.6016 277.948 81.0312 277.462 81.583 277.115C82.1348 276.769 82.75 276.595 83.4287 276.595C84.5078 276.595 85.3403 276.94 85.9263 277.628C86.5171 278.317 86.8125 279.291 86.8125 280.55V281.268H81.6343C81.688 281.923 81.9053 282.44 82.2861 282.821C82.6719 283.202 83.1553 283.392 83.7363 283.392C84.5518 283.392 85.2158 283.063 85.7285 282.404L86.688 283.319C86.3706 283.793 85.9458 284.161 85.4136 284.425C84.8862 284.684 84.293 284.813 83.6338 284.813ZM83.4214 278.024C82.9331 278.024 82.5376 278.195 82.2349 278.536C81.937 278.878 81.7466 279.354 81.6636 279.965H85.0547V279.833C85.0156 279.237 84.8569 278.788 84.5786 278.485C84.3003 278.177 83.9146 278.024 83.4214 278.024ZM89.874 276.742L89.9253 277.57C90.4819 276.92 91.2437 276.595 92.2104 276.595C93.27 276.595 93.9951 277.001 94.3857 277.811C94.9619 277.001 95.7725 276.595 96.8174 276.595C97.6914 276.595 98.3408 276.837 98.7656 277.32C99.1953 277.804 99.415 278.517 99.4248 279.459V284.667H97.645V279.51C97.645 279.008 97.5352 278.639 97.3154 278.404C97.0957 278.17 96.7319 278.053 96.2241 278.053C95.8188 278.053 95.4868 278.163 95.228 278.383C94.9741 278.597 94.7959 278.881 94.6934 279.232L94.7007 284.667H92.9209V279.452C92.8965 278.519 92.4204 278.053 91.4927 278.053C90.7798 278.053 90.2744 278.343 89.9766 278.924V284.667H88.1968V276.742H89.874ZM105.35 279.379L105.929 274.003H111.656V275.541H107.408L107.115 278.09C107.608 277.806 108.165 277.665 108.785 277.665C109.801 277.665 110.589 277.989 111.151 278.639C111.717 279.288 112 280.162 112 281.261C112 282.345 111.688 283.209 111.063 283.854C110.438 284.493 109.581 284.813 108.492 284.813C107.516 284.813 106.705 284.537 106.061 283.986C105.421 283.429 105.074 282.696 105.021 281.788H106.742C106.81 282.306 106.996 282.704 107.298 282.982C107.601 283.256 107.997 283.392 108.485 283.392C109.032 283.392 109.457 283.197 109.759 282.806C110.067 282.416 110.221 281.883 110.221 281.21C110.221 280.56 110.052 280.048 109.715 279.672C109.378 279.291 108.915 279.1 108.324 279.1C108.001 279.1 107.728 279.144 107.503 279.232C107.279 279.315 107.035 279.481 106.771 279.73L105.35 279.379Z" fill="white"/>
<path d="M153.5 191L153.5 307" stroke="#BBBBBB" stroke-dasharray="3 2"/>
<path d="M160.5 191L160.5 307" stroke="#BBBBBB" stroke-dasharray="3 2"/>
<path d="M285.5 191L285.5 307" stroke="#BBBBBB" stroke-dasharray="3 2"/>
<path d="M292.5 191L292.5 307" stroke="#BBBBBB" stroke-dasharray="3 2"/>
<path d="M417.5 191L417.5 307" stroke="#BBBBBB" stroke-dasharray="3 2"/>
<path d="M424.5 191L424.5 307" stroke="#BBBBBB" stroke-dasharray="3 2"/>
<path d="M29 252.5L549 252.5" stroke="#BBBBBB" stroke-dasharray="3 2"/>
<path d="M29 245.5L549 245.5" stroke="#BBBBBB" stroke-dasharray="3 2"/>
<rect x="28" y="190" width="522" height="118" stroke="#AAAAAA" stroke-width="2"/>
<rect width="710" height="112" fill="#F7F7F7"/>
<path d="M37 105C37 106.105 36.1046 107 35 107L21 107C19.8954 107 19 106.105 19 105L19 95.8143C19 95.2833 19.2112 94.7741 19.587 94.3989L26.587 87.4106C27.3678 86.6312 28.6323 86.6312 29.413 87.4106L36.413 94.3989C36.7888 94.7741 37 95.2833 37 95.8143L37 105Z" fill="#DDDDDD"/>
<path d="M26.1133 99.9473H23.0371V98.7988H26.1133V99.9473ZM31.627 94.4277V95.6055H31.4512C30.6543 95.6172 30.0176 95.8359 29.541 96.2617C29.0645 96.6875 28.7812 97.291 28.6914 98.0723C29.1484 97.5918 29.7324 97.3516 30.4434 97.3516C31.1973 97.3516 31.791 97.6172 32.2246 98.1484C32.6621 98.6797 32.8809 99.3652 32.8809 100.205C32.8809 101.072 32.625 101.775 32.1133 102.314C31.6055 102.85 30.9375 103.117 30.1094 103.117C29.2578 103.117 28.5664 102.803 28.0352 102.174C27.5078 101.545 27.2441 100.721 27.2441 99.7012V99.2148C27.2441 97.7188 27.6074 96.5469 28.334 95.6992C29.0645 94.8516 30.1133 94.4277 31.4805 94.4277H31.627ZM30.0977 98.5C29.7852 98.5 29.498 98.5879 29.2363 98.7637C28.9785 98.9395 28.7891 99.1738 28.668 99.4668V99.9004C28.668 100.533 28.8008 101.037 29.0664 101.412C29.332 101.783 29.6758 101.969 30.0977 101.969C30.5195 101.969 30.8535 101.811 31.0996 101.494C31.3457 101.178 31.4688 100.762 31.4688 100.246C31.4688 99.7305 31.3438 99.3105 31.0938 98.9863C30.8438 98.6621 30.5117 98.5 30.0977 98.5Z" fill="white"/>
<path d="M166 105C166 106.105 165.105 107 164 107L150 107C148.895 107 148 106.105 148 105L148 95.8143C148 95.2833 148.211 94.7741 148.587 94.3989L155.587 87.4106C156.368 86.6312 157.632 86.6312 158.413 87.4106L165.413 94.3989C165.789 94.7741 166 95.2833 166 95.8143L166 105Z" fill="#DDDDDD"/>
<path d="M155.113 99.9473H152.037V98.7988H155.113V99.9473ZM156.578 98.7695L157.041 94.4688H161.623V95.6992H158.225L157.99 97.7383C158.385 97.5117 158.83 97.3984 159.326 97.3984C160.139 97.3984 160.77 97.6582 161.219 98.1777C161.672 98.6973 161.898 99.3965 161.898 100.275C161.898 101.143 161.648 101.834 161.148 102.35C160.648 102.861 159.963 103.117 159.092 103.117C158.311 103.117 157.662 102.896 157.146 102.455C156.635 102.01 156.357 101.424 156.314 100.697H157.691C157.746 101.111 157.895 101.43 158.137 101.652C158.379 101.871 158.695 101.98 159.086 101.98C159.523 101.98 159.863 101.824 160.105 101.512C160.352 101.199 160.475 100.773 160.475 100.234C160.475 99.7148 160.34 99.3047 160.07 99.0039C159.801 98.6992 159.43 98.5469 158.957 98.5469C158.699 98.5469 158.48 98.582 158.301 98.6523C158.121 98.7188 157.926 98.8516 157.715 99.0508L156.578 98.7695Z" fill="white"/>
<path d="M298 105C298 106.105 297.105 107 296 107L282 107C280.895 107 280 106.105 280 105L280 95.8143C280 95.2833 280.211 94.7741 280.587 94.3989L287.587 87.4106C288.368 86.6312 289.632 86.6312 290.413 87.4106L297.413 94.3989C297.789 94.7741 298 95.2833 298 95.8143L298 105Z" fill="#DDDDDD"/>
<path d="M287.113 99.9473H284.037V98.7988H287.113V99.9473ZM293.014 99.959H294.074V101.102H293.014V103H291.59V101.102H287.904L287.863 100.234L291.543 94.4688H293.014V99.959ZM289.357 99.959H291.59V96.3965L291.484 96.584L289.357 99.959Z" fill="white"/>
<path d="M430 105C430 106.105 429.105 107 428 107L414 107C412.895 107 412 106.105 412 105L412 95.8143C412 95.2833 412.211 94.7741 412.587 94.3989L419.587 87.4106C420.368 86.6312 421.632 86.6312 422.413 87.4106L429.413 94.3989C429.789 94.7741 430 95.2833 430 95.8143L430 105Z" fill="#DDDDDD"/>
<path d="M419.113 99.9473H416.037V98.7988H419.113V99.9473ZM421.844 98.084H422.711C423.148 98.0801 423.494 97.9668 423.748 97.7441C424.006 97.5215 424.135 97.1992 424.135 96.7773C424.135 96.3711 424.027 96.0566 423.812 95.834C423.602 95.6074 423.277 95.4941 422.84 95.4941C422.457 95.4941 422.143 95.6055 421.896 95.8281C421.65 96.0469 421.527 96.334 421.527 96.6895H420.104C420.104 96.252 420.219 95.8535 420.449 95.4941C420.684 95.1348 421.008 94.8555 421.422 94.6562C421.84 94.4531 422.307 94.3516 422.822 94.3516C423.674 94.3516 424.342 94.5664 424.826 94.9961C425.314 95.4219 425.559 96.0156 425.559 96.7773C425.559 97.1602 425.436 97.5215 425.189 97.8613C424.947 98.1973 424.633 98.4512 424.246 98.623C424.715 98.7832 425.07 99.0352 425.312 99.3789C425.559 99.7227 425.682 100.133 425.682 100.609C425.682 101.375 425.418 101.984 424.891 102.438C424.367 102.891 423.678 103.117 422.822 103.117C422.002 103.117 421.33 102.898 420.807 102.461C420.283 102.023 420.021 101.441 420.021 100.715H421.445C421.445 101.09 421.57 101.395 421.82 101.629C422.074 101.863 422.414 101.98 422.84 101.98C423.281 101.98 423.629 101.863 423.883 101.629C424.137 101.395 424.264 101.055 424.264 100.609C424.264 100.16 424.131 99.8145 423.865 99.5723C423.6 99.3301 423.205 99.209 422.682 99.209H421.844V98.084Z" fill="white"/>
<path d="M559 105C559 106.105 558.105 107 557 107L543 107C541.895 107 541 106.105 541 105L541 95.8143C541 95.2833 541.211 94.7741 541.587 94.3989L548.587 87.4106C549.368 86.6312 550.632 86.6312 551.413 87.4106L558.413 94.3989C558.789 94.7741 559 95.2833 559 95.8143L559 105Z" fill="#DDDDDD"/>
<path d="M548.113 99.9473H545.037V98.7988H548.113V99.9473ZM554.934 103H549.197V102.021L552.039 98.9219C552.449 98.4648 552.74 98.084 552.912 97.7793C553.088 97.4707 553.176 97.1621 553.176 96.8535C553.176 96.4473 553.061 96.1191 552.83 95.8691C552.604 95.6191 552.297 95.4941 551.91 95.4941C551.449 95.4941 551.092 95.6348 550.838 95.916C550.584 96.1973 550.457 96.582 550.457 97.0703H549.033C549.033 96.5508 549.15 96.084 549.385 95.6699C549.623 95.252 549.961 94.9277 550.398 94.6973C550.84 94.4668 551.348 94.3516 551.922 94.3516C552.75 94.3516 553.402 94.5605 553.879 94.9785C554.359 95.3926 554.6 95.9668 554.6 96.7012C554.6 97.127 554.479 97.5742 554.236 98.043C553.998 98.5078 553.605 99.0371 553.059 99.6309L550.973 101.863H554.934V103Z" fill="white"/>
<path d="M691 105C691 106.105 690.105 107 689 107L675 107C673.895 107 673 106.105 673 105L673 95.8143C673 95.2833 673.211 94.7741 673.587 94.3989L680.587 87.4106C681.368 86.6312 682.632 86.6312 683.413 87.4106L690.413 94.3989C690.789 94.7741 691 95.2833 691 95.8143L691 105Z" fill="#DDDDDD"/>
<path d="M680.113 99.9473H677.037V98.7988H680.113V99.9473ZM685.053 103H683.635V96.1504L681.543 96.8652V95.6641L684.871 94.4395H685.053V103Z" fill="white"/>
<path d="M19 7C19 5.89543 19.8954 5 21 5H35C36.1046 5 37 5.89543 37 7V16.1857C37 16.7167 36.7888 17.2259 36.413 17.6011L29.413 24.5894C28.6323 25.3688 27.3677 25.3688 26.587 24.5894L19.587 17.6011C19.2112 17.2259 19 16.7167 19 16.1857V7Z" fill="#CCCCCC"/>
<path d="M29.084 17H27.666V10.1504L25.5742 10.8652V9.66406L28.9023 8.43945H29.084V17Z" fill="white"/>
<path d="M148 7C148 5.89543 148.895 5 150 5H164C165.105 5 166 5.89543 166 7V16.1857C166 16.7167 165.789 17.2259 165.413 17.6011L158.413 24.5894C157.632 25.3688 156.368 25.3688 155.587 24.5894L148.587 17.6011C148.211 17.2259 148 16.7167 148 16.1857V7Z" fill="#CCCCCC"/>
<path d="M159.965 17H154.229V16.0215L157.07 12.9219C157.48 12.4648 157.771 12.084 157.943 11.7793C158.119 11.4707 158.207 11.1621 158.207 10.8535C158.207 10.4473 158.092 10.1191 157.861 9.86914C157.635 9.61914 157.328 9.49414 156.941 9.49414C156.48 9.49414 156.123 9.63477 155.869 9.91602C155.615 10.1973 155.488 10.582 155.488 11.0703H154.064C154.064 10.5508 154.182 10.084 154.416 9.66992C154.654 9.25195 154.992 8.92773 155.43 8.69727C155.871 8.4668 156.379 8.35156 156.953 8.35156C157.781 8.35156 158.434 8.56055 158.91 8.97852C159.391 9.39258 159.631 9.9668 159.631 10.7012C159.631 11.127 159.51 11.5742 159.268 12.043C159.029 12.5078 158.637 13.0371 158.09 13.6309L156.004 15.8633H159.965V17Z" fill="white"/>
<path d="M280 7C280 5.89543 280.895 5 282 5H296C297.105 5 298 5.89543 298 7V16.1857C298 16.7167 297.789 17.2259 297.413 17.6011L290.413 24.5894C289.632 25.3688 288.368 25.3688 287.587 24.5894L280.587 17.6011C280.211 17.2259 280 16.7167 280 16.1857V7Z" fill="#CCCCCC"/>
<path d="M287.875 12.084H288.742C289.18 12.0801 289.525 11.9668 289.779 11.7441C290.037 11.5215 290.166 11.1992 290.166 10.7773C290.166 10.3711 290.059 10.0566 289.844 9.83398C289.633 9.60742 289.309 9.49414 288.871 9.49414C288.488 9.49414 288.174 9.60547 287.928 9.82812C287.682 10.0469 287.559 10.334 287.559 10.6895H286.135C286.135 10.252 286.25 9.85352 286.48 9.49414C286.715 9.13477 287.039 8.85547 287.453 8.65625C287.871 8.45312 288.338 8.35156 288.854 8.35156C289.705 8.35156 290.373 8.56641 290.857 8.99609C291.346 9.42188 291.59 10.0156 291.59 10.7773C291.59 11.1602 291.467 11.5215 291.221 11.8613C290.979 12.1973 290.664 12.4512 290.277 12.623C290.746 12.7832 291.102 13.0352 291.344 13.3789C291.59 13.7227 291.713 14.1328 291.713 14.6094C291.713 15.375 291.449 15.9844 290.922 16.4375C290.398 16.8906 289.709 17.1172 288.854 17.1172C288.033 17.1172 287.361 16.8984 286.838 16.4609C286.314 16.0234 286.053 15.4414 286.053 14.7148H287.477C287.477 15.0898 287.602 15.3945 287.852 15.6289C288.105 15.8633 288.445 15.9805 288.871 15.9805C289.312 15.9805 289.66 15.8633 289.914 15.6289C290.168 15.3945 290.295 15.0547 290.295 14.6094C290.295 14.1602 290.162 13.8145 289.896 13.5723C289.631 13.3301 289.236 13.209 288.713 13.209H287.875V12.084Z" fill="white"/>
<path d="M412 7C412 5.89543 412.895 5 414 5H428C429.105 5 430 5.89543 430 7V16.1857C430 16.7167 429.789 17.2259 429.413 17.6011L422.413 24.5894C421.632 25.3688 420.368 25.3688 419.587 24.5894L412.587 17.6011C412.211 17.2259 412 16.7167 412 16.1857V7Z" fill="#CCCCCC"/>
<path d="M423.045 13.959H424.105V15.1016H423.045V17H421.621V15.1016H417.936L417.895 14.2344L421.574 8.46875H423.045V13.959ZM419.389 13.959H421.621V10.3965L421.516 10.584L419.389 13.959Z" fill="white"/>
<path d="M541 7C541 5.89543 541.895 5 543 5H557C558.105 5 559 5.89543 559 7V16.1857C559 16.7167 558.789 17.2259 558.413 17.6011L551.413 24.5894C550.632 25.3688 549.368 25.3688 548.587 24.5894L541.587 17.6011C541.211 17.2259 541 16.7167 541 16.1857V7Z" fill="#CCCCCC"/>
<path d="M547.609 12.7695L548.072 8.46875H552.654V9.69922H549.256L549.021 11.7383C549.416 11.5117 549.861 11.3984 550.357 11.3984C551.17 11.3984 551.801 11.6582 552.25 12.1777C552.703 12.6973 552.93 13.3965 552.93 14.2754C552.93 15.1426 552.68 15.834 552.18 16.3496C551.68 16.8613 550.994 17.1172 550.123 17.1172C549.342 17.1172 548.693 16.8965 548.178 16.4551C547.666 16.0098 547.389 15.4238 547.346 14.6973H548.723C548.777 15.1113 548.926 15.4297 549.168 15.6523C549.41 15.8711 549.727 15.9805 550.117 15.9805C550.555 15.9805 550.895 15.8242 551.137 15.5117C551.383 15.1992 551.506 14.7734 551.506 14.2344C551.506 13.7148 551.371 13.3047 551.102 13.0039C550.832 12.6992 550.461 12.5469 549.988 12.5469C549.73 12.5469 549.512 12.582 549.332 12.6523C549.152 12.7188 548.957 12.8516 548.746 13.0508L547.609 12.7695Z" fill="white"/>
<path d="M673 7C673 5.89543 673.895 5 675 5H689C690.105 5 691 5.89543 691 7V16.1857C691 16.7167 690.789 17.2259 690.413 17.6011L683.413 24.5894C682.632 25.3688 681.368 25.3688 680.587 24.5894L673.587 17.6011C673.211 17.2259 673 16.7167 673 16.1857V7Z" fill="#CCCCCC"/>
<path d="M683.658 8.42773V9.60547H683.482C682.686 9.61719 682.049 9.83594 681.572 10.2617C681.096 10.6875 680.812 11.291 680.723 12.0723C681.18 11.5918 681.764 11.3516 682.475 11.3516C683.229 11.3516 683.822 11.6172 684.256 12.1484C684.693 12.6797 684.912 13.3652 684.912 14.2051C684.912 15.0723 684.656 15.7754 684.145 16.3145C683.637 16.8496 682.969 17.1172 682.141 17.1172C681.289 17.1172 680.598 16.8027 680.066 16.1738C679.539 15.5449 679.275 14.7207 679.275 13.7012V13.2148C679.275 11.7188 679.639 10.5469 680.365 9.69922C681.096 8.85156 682.145 8.42773 683.512 8.42773H683.658ZM682.129 12.5C681.816 12.5 681.529 12.5879 681.268 12.7637C681.01 12.9395 680.82 13.1738 680.699 13.4668V13.9004C680.699 14.5332 680.832 15.0371 681.098 15.4121C681.363 15.7832 681.707 15.9688 682.129 15.9688C682.551 15.9688 682.885 15.8105 683.131 15.4941C683.377 15.1777 683.5 14.7617 683.5 14.2461C683.5 13.7305 683.375 13.3105 683.125 12.9863C682.875 12.6621 682.543 12.5 682.129 12.5Z" fill="white"/>
<path d="M7 37C5.89543 37 5 36.1046 5 35L5 21C5 19.8954 5.89543 19 7 19L16.1857 19C16.7167 19 17.2259 19.2112 17.6011 19.587L24.5894 26.587C25.3688 27.3677 25.3688 28.6323 24.5894 29.413L17.6011 36.413C17.2259 36.7888 16.7167 37 16.1857 37L7 37Z" fill="#CCCCCC"/>
<path d="M14.084 32H12.666V25.1504L10.5742 25.8652V24.6641L13.9023 23.4395H14.084V32Z" fill="white"/>
<path d="M7 93C5.89543 93 5 92.1046 5 91L5 77C5 75.8954 5.89543 75 7 75L16.1857 75C16.7167 75 17.2259 75.2112 17.6011 75.587L24.5894 82.587C25.3688 83.3677 25.3688 84.6323 24.5894 85.413L17.6011 92.413C17.2259 92.7888 16.7167 93 16.1857 93L7 93Z" fill="#CCCCCC"/>
<path d="M15.9648 88H10.2285V87.0215L13.0703 83.9219C13.4805 83.4648 13.7715 83.084 13.9434 82.7793C14.1191 82.4707 14.207 82.1621 14.207 81.8535C14.207 81.4473 14.0918 81.1191 13.8613 80.8691C13.6348 80.6191 13.3281 80.4941 12.9414 80.4941C12.4805 80.4941 12.123 80.6348 11.8691 80.916C11.6152 81.1973 11.4883 81.582 11.4883 82.0703H10.0645C10.0645 81.5508 10.1816 81.084 10.416 80.6699C10.6543 80.252 10.9922 79.9277 11.4297 79.6973C11.8711 79.4668 12.3789 79.3516 12.9531 79.3516C13.7812 79.3516 14.4336 79.5605 14.9102 79.9785C15.3906 80.3926 15.6309 80.9668 15.6309 81.7012C15.6309 82.127 15.5098 82.5742 15.2676 83.043C15.0293 83.5078 14.6367 84.0371 14.0898 84.6309L12.0039 86.8633H15.9648V88Z" fill="white"/>
<path d="M703 19C704.105 19 705 19.8954 705 21L705 35C705 36.1046 704.105 37 703 37L693.814 37C693.283 37 692.774 36.7888 692.399 36.413L685.411 29.413C684.631 28.6322 684.631 27.3677 685.411 26.587L692.399 19.587C692.774 19.2112 693.283 19 693.814 19L703 19Z" fill="#DDDDDD"/>
<path d="M695.113 28.9473H692.037V27.7988H695.113V28.9473ZM701.934 32H696.197V31.0215L699.039 27.9219C699.449 27.4648 699.74 27.084 699.912 26.7793C700.088 26.4707 700.176 26.1621 700.176 25.8535C700.176 25.4473 700.061 25.1191 699.83 24.8691C699.604 24.6191 699.297 24.4941 698.91 24.4941C698.449 24.4941 698.092 24.6348 697.838 24.916C697.584 25.1973 697.457 25.582 697.457 26.0703H696.033C696.033 25.5508 696.15 25.084 696.385 24.6699C696.623 24.252 696.961 23.9277 697.398 23.6973C697.84 23.4668 698.348 23.3516 698.922 23.3516C699.75 23.3516 700.402 23.5605 700.879 23.9785C701.359 24.3926 701.6 24.9668 701.6 25.7012C701.6 26.127 701.479 26.5742 701.236 27.043C700.998 27.5078 700.605 28.0371 700.059 28.6309L697.973 30.8633H701.934V32Z" fill="white"/>
<path d="M703 75C704.105 75 705 75.8954 705 77L705 91C705 92.1046 704.105 93 703 93L693.814 93C693.283 93 692.774 92.7888 692.399 92.413L685.411 85.413C684.631 84.6322 684.631 83.3677 685.411 82.587L692.399 75.587C692.774 75.2112 693.283 75 693.814 75L703 75Z" fill="#DDDDDD"/>
<path d="M695.113 84.9473H692.037V83.7988H695.113V84.9473ZM700.053 88H698.635V81.1504L696.543 81.8652V80.6641L699.871 79.4395H700.053V88Z" fill="white"/>
<rect x="28" y="28" width="654" height="56" fill="white"/>
<path d="M31 36C31 33.2386 33.2386 31 36 31H146C148.761 31 151 33.2386 151 36V76C151 78.7614 148.761 81 146 81H36C33.2386 81 31 78.7614 31 76V36Z" fill="#1E73FF"/>
<path d="M73.2041 60.6667H71.4243V52.7419H73.2041V60.6667ZM71.3145 50.6838C71.3145 50.4103 71.3999 50.1833 71.5708 50.0026C71.7466 49.822 71.9956 49.7316 72.3179 49.7316C72.6401 49.7316 72.8892 49.822 73.0649 50.0026C73.2407 50.1833 73.3286 50.4103 73.3286 50.6838C73.3286 50.9523 73.2407 51.1769 73.0649 51.3576C72.8892 51.5334 72.6401 51.6213 72.3179 51.6213C71.9956 51.6213 71.7466 51.5334 71.5708 51.3576C71.3999 51.1769 71.3145 50.9523 71.3145 50.6838ZM77.3789 50.8156V52.7419H78.7778V54.0602H77.3789V58.4841C77.3789 58.7868 77.4375 59.0065 77.5547 59.1432C77.6768 59.2751 77.8916 59.341 78.1992 59.341C78.4043 59.341 78.6118 59.3166 78.8218 59.2678V60.6447C78.4165 60.757 78.0259 60.8132 77.6499 60.8132C76.2827 60.8132 75.5991 60.0588 75.5991 58.55V54.0602H74.2954V52.7419H75.5991V50.8156H77.3789ZM83.6338 60.8132C82.5059 60.8132 81.5903 60.4592 80.8872 59.7512C80.189 59.0383 79.8398 58.091 79.8398 56.9094V56.6896C79.8398 55.8986 79.9912 55.1931 80.2939 54.5729C80.6016 53.9479 81.0312 53.4621 81.583 53.1154C82.1348 52.7687 82.75 52.5954 83.4287 52.5954C84.5078 52.5954 85.3403 52.9396 85.9263 53.6281C86.5171 54.3166 86.8125 55.2907 86.8125 56.5505V57.2682H81.6343C81.688 57.9225 81.9053 58.4401 82.2861 58.821C82.6719 59.2018 83.1553 59.3923 83.7363 59.3923C84.5518 59.3923 85.2158 59.0627 85.7285 58.4035L86.688 59.319C86.3706 59.7927 85.9458 60.1613 85.4136 60.425C84.8862 60.6838 84.293 60.8132 83.6338 60.8132ZM83.4214 54.0236C82.9331 54.0236 82.5376 54.1945 82.2349 54.5363C81.937 54.8781 81.7466 55.3542 81.6636 55.9645H85.0547V55.8327C85.0156 55.237 84.8569 54.7878 84.5786 54.485C84.3003 54.1774 83.9146 54.0236 83.4214 54.0236ZM89.874 52.7419L89.9253 53.5695C90.4819 52.9201 91.2437 52.5954 92.2104 52.5954C93.27 52.5954 93.9951 53.0007 94.3857 53.8112C94.9619 53.0007 95.7725 52.5954 96.8174 52.5954C97.6914 52.5954 98.3408 52.8371 98.7656 53.3205C99.1953 53.8039 99.415 54.5168 99.4248 55.4592V60.6667H97.645V55.5104C97.645 55.0075 97.5352 54.6389 97.3154 54.4045C97.0957 54.1701 96.7319 54.0529 96.2241 54.0529C95.8188 54.0529 95.4868 54.1628 95.228 54.3825C94.9741 54.5974 94.7959 54.8806 94.6934 55.2321L94.7007 60.6667H92.9209V55.4518C92.8965 54.5192 92.4204 54.0529 91.4927 54.0529C90.7798 54.0529 90.2744 54.3434 89.9766 54.9245V60.6667H88.1968V52.7419H89.874ZM109.693 60.6667H107.921V52.1047L105.306 52.9982V51.4968L109.466 49.966H109.693V60.6667Z" fill="white"/>
<path d="M163 36C163 33.2386 165.239 31 168 31H278C280.761 31 283 33.2386 283 36V76C283 78.7614 280.761 81 278 81H168C165.239 81 163 78.7614 163 76V36Z" fill="#1E73FF"/>
<path d="M205.204 60.6667H203.424V52.7419H205.204V60.6667ZM203.314 50.6838C203.314 50.4103 203.4 50.1833 203.571 50.0026C203.747 49.822 203.996 49.7316 204.318 49.7316C204.64 49.7316 204.889 49.822 205.065 50.0026C205.241 50.1833 205.329 50.4103 205.329 50.6838C205.329 50.9523 205.241 51.1769 205.065 51.3576C204.889 51.5334 204.64 51.6213 204.318 51.6213C203.996 51.6213 203.747 51.5334 203.571 51.3576C203.4 51.1769 203.314 50.9523 203.314 50.6838ZM209.379 50.8156V52.7419H210.778V54.0602H209.379V58.4841C209.379 58.7868 209.438 59.0065 209.555 59.1432C209.677 59.2751 209.892 59.341 210.199 59.341C210.404 59.341 210.612 59.3166 210.822 59.2678V60.6447C210.417 60.757 210.026 60.8132 209.65 60.8132C208.283 60.8132 207.599 60.0588 207.599 58.55V54.0602H206.295V52.7419H207.599V50.8156H209.379ZM215.634 60.8132C214.506 60.8132 213.59 60.4592 212.887 59.7512C212.189 59.0383 211.84 58.091 211.84 56.9094V56.6896C211.84 55.8986 211.991 55.1931 212.294 54.5729C212.602 53.9479 213.031 53.4621 213.583 53.1154C214.135 52.7687 214.75 52.5954 215.429 52.5954C216.508 52.5954 217.34 52.9396 217.926 53.6281C218.517 54.3166 218.812 55.2907 218.812 56.5505V57.2682H213.634C213.688 57.9225 213.905 58.4401 214.286 58.821C214.672 59.2018 215.155 59.3923 215.736 59.3923C216.552 59.3923 217.216 59.0627 217.729 58.4035L218.688 59.319C218.371 59.7927 217.946 60.1613 217.414 60.425C216.886 60.6838 216.293 60.8132 215.634 60.8132ZM215.421 54.0236C214.933 54.0236 214.538 54.1945 214.235 54.5363C213.937 54.8781 213.747 55.3542 213.664 55.9645H217.055V55.8327C217.016 55.237 216.857 54.7878 216.579 54.485C216.3 54.1774 215.915 54.0236 215.421 54.0236ZM221.874 52.7419L221.925 53.5695C222.482 52.9201 223.244 52.5954 224.21 52.5954C225.27 52.5954 225.995 53.0007 226.386 53.8112C226.962 53.0007 227.772 52.5954 228.817 52.5954C229.691 52.5954 230.341 52.8371 230.766 53.3205C231.195 53.8039 231.415 54.5168 231.425 55.4592V60.6667H229.645V55.5104C229.645 55.0075 229.535 54.6389 229.315 54.4045C229.096 54.1701 228.732 54.0529 228.224 54.0529C227.819 54.0529 227.487 54.1628 227.228 54.3825C226.974 54.5974 226.796 54.8806 226.693 55.2321L226.701 60.6667H224.921V55.4518C224.896 54.5192 224.42 54.0529 223.493 54.0529C222.78 54.0529 222.274 54.3434 221.977 54.9245V60.6667H220.197V52.7419H221.874ZM244.044 60.6667H236.874V59.4435L240.426 55.569C240.939 54.9977 241.303 54.5217 241.518 54.1408C241.737 53.7551 241.847 53.3693 241.847 52.9836C241.847 52.4758 241.703 52.0656 241.415 51.7531C241.132 51.4406 240.749 51.2844 240.265 51.2844C239.689 51.2844 239.242 51.4601 238.925 51.8117C238.607 52.1633 238.449 52.6442 238.449 53.2546H236.669C236.669 52.6052 236.815 52.0217 237.108 51.5041C237.406 50.9816 237.829 50.5764 238.375 50.2883C238.927 50.0002 239.562 49.8561 240.28 49.8561C241.315 49.8561 242.13 50.1174 242.726 50.6398C243.327 51.1574 243.627 51.8752 243.627 52.7932C243.627 53.3254 243.476 53.8845 243.173 54.4704C242.875 55.0515 242.384 55.7131 241.701 56.4553L239.093 59.2458H244.044V60.6667Z" fill="white"/>
<path d="M295 36C295 33.2386 297.239 31 300 31H410C412.761 31 415 33.2386 415 36V76C415 78.7614 412.761 81 410 81H300C297.239 81 295 78.7614 295 76V36Z" fill="#1E73FF"/>
<path d="M337.204 60.6667H335.424V52.7419H337.204V60.6667ZM335.314 50.6838C335.314 50.4103 335.4 50.1833 335.571 50.0026C335.747 49.822 335.996 49.7316 336.318 49.7316C336.64 49.7316 336.889 49.822 337.065 50.0026C337.241 50.1833 337.329 50.4103 337.329 50.6838C337.329 50.9523 337.241 51.1769 337.065 51.3576C336.889 51.5334 336.64 51.6213 336.318 51.6213C335.996 51.6213 335.747 51.5334 335.571 51.3576C335.4 51.1769 335.314 50.9523 335.314 50.6838ZM341.379 50.8156V52.7419H342.778V54.0602H341.379V58.4841C341.379 58.7868 341.438 59.0065 341.555 59.1432C341.677 59.2751 341.892 59.341 342.199 59.341C342.404 59.341 342.612 59.3166 342.822 59.2678V60.6447C342.417 60.757 342.026 60.8132 341.65 60.8132C340.283 60.8132 339.599 60.0588 339.599 58.55V54.0602H338.295V52.7419H339.599V50.8156H341.379ZM347.634 60.8132C346.506 60.8132 345.59 60.4592 344.887 59.7512C344.189 59.0383 343.84 58.091 343.84 56.9094V56.6896C343.84 55.8986 343.991 55.1931 344.294 54.5729C344.602 53.9479 345.031 53.4621 345.583 53.1154C346.135 52.7687 346.75 52.5954 347.429 52.5954C348.508 52.5954 349.34 52.9396 349.926 53.6281C350.517 54.3166 350.812 55.2907 350.812 56.5505V57.2682H345.634C345.688 57.9225 345.905 58.4401 346.286 58.821C346.672 59.2018 347.155 59.3923 347.736 59.3923C348.552 59.3923 349.216 59.0627 349.729 58.4035L350.688 59.319C350.371 59.7927 349.946 60.1613 349.414 60.425C348.886 60.6838 348.293 60.8132 347.634 60.8132ZM347.421 54.0236C346.933 54.0236 346.538 54.1945 346.235 54.5363C345.937 54.8781 345.747 55.3542 345.664 55.9645H349.055V55.8327C349.016 55.237 348.857 54.7878 348.579 54.485C348.3 54.1774 347.915 54.0236 347.421 54.0236ZM353.874 52.7419L353.925 53.5695C354.482 52.9201 355.244 52.5954 356.21 52.5954C357.27 52.5954 357.995 53.0007 358.386 53.8112C358.962 53.0007 359.772 52.5954 360.817 52.5954C361.691 52.5954 362.341 52.8371 362.766 53.3205C363.195 53.8039 363.415 54.5168 363.425 55.4592V60.6667H361.645V55.5104C361.645 55.0075 361.535 54.6389 361.315 54.4045C361.096 54.1701 360.732 54.0529 360.224 54.0529C359.819 54.0529 359.487 54.1628 359.228 54.3825C358.974 54.5974 358.796 54.8806 358.693 55.2321L358.701 60.6667H356.921V55.4518C356.896 54.5192 356.42 54.0529 355.493 54.0529C354.78 54.0529 354.274 54.3434 353.977 54.9245V60.6667H352.197V52.7419H353.874ZM370.932 54.5217H372.016C372.563 54.5168 372.995 54.3752 373.312 54.0969C373.635 53.8185 373.796 53.4157 373.796 52.8884C373.796 52.3806 373.662 51.9875 373.393 51.7092C373.129 51.426 372.724 51.2844 372.177 51.2844C371.699 51.2844 371.306 51.4235 370.998 51.7018C370.69 51.9753 370.537 52.3342 370.537 52.7785H368.757C368.757 52.2316 368.901 51.7336 369.189 51.2844C369.482 50.8351 369.887 50.486 370.405 50.237C370.927 49.9831 371.511 49.8561 372.155 49.8561C373.22 49.8561 374.055 50.1247 374.66 50.6618C375.271 51.194 375.576 51.9362 375.576 52.8884C375.576 53.3669 375.422 53.8185 375.114 54.2433C374.812 54.6633 374.418 54.9807 373.935 55.1955C374.521 55.3957 374.965 55.7106 375.268 56.1403C375.576 56.57 375.729 57.0827 375.729 57.6784C375.729 58.6354 375.4 59.3972 374.741 59.9636C374.086 60.53 373.225 60.8132 372.155 60.8132C371.13 60.8132 370.29 60.5397 369.636 59.9929C368.981 59.446 368.654 58.7184 368.654 57.8102H370.434C370.434 58.279 370.59 58.6599 370.903 58.9528C371.22 59.2458 371.645 59.3923 372.177 59.3923C372.729 59.3923 373.164 59.2458 373.481 58.9528C373.798 58.6599 373.957 58.235 373.957 57.6784C373.957 57.1169 373.791 56.6848 373.459 56.382C373.127 56.0793 372.634 55.9279 371.979 55.9279H370.932V54.5217Z" fill="white"/>
<path d="M427 36C427 33.2386 429.239 31 432 31H542C544.761 31 547 33.2386 547 36V76C547 78.7614 544.761 81 542 81H432C429.239 81 427 78.7614 427 76V36Z" fill="#1E73FF"/>
<path d="M469.204 60.6667H467.424V52.7419H469.204V60.6667ZM467.314 50.6838C467.314 50.4103 467.4 50.1833 467.571 50.0026C467.747 49.822 467.996 49.7316 468.318 49.7316C468.64 49.7316 468.889 49.822 469.065 50.0026C469.241 50.1833 469.329 50.4103 469.329 50.6838C469.329 50.9523 469.241 51.1769 469.065 51.3576C468.889 51.5334 468.64 51.6213 468.318 51.6213C467.996 51.6213 467.747 51.5334 467.571 51.3576C467.4 51.1769 467.314 50.9523 467.314 50.6838ZM473.379 50.8156V52.7419H474.778V54.0602H473.379V58.4841C473.379 58.7868 473.438 59.0065 473.555 59.1432C473.677 59.2751 473.892 59.341 474.199 59.341C474.404 59.341 474.612 59.3166 474.822 59.2678V60.6447C474.417 60.757 474.026 60.8132 473.65 60.8132C472.283 60.8132 471.599 60.0588 471.599 58.55V54.0602H470.295V52.7419H471.599V50.8156H473.379ZM479.634 60.8132C478.506 60.8132 477.59 60.4592 476.887 59.7512C476.189 59.0383 475.84 58.091 475.84 56.9094V56.6896C475.84 55.8986 475.991 55.1931 476.294 54.5729C476.602 53.9479 477.031 53.4621 477.583 53.1154C478.135 52.7687 478.75 52.5954 479.429 52.5954C480.508 52.5954 481.34 52.9396 481.926 53.6281C482.517 54.3166 482.812 55.2907 482.812 56.5505V57.2682H477.634C477.688 57.9225 477.905 58.4401 478.286 58.821C478.672 59.2018 479.155 59.3923 479.736 59.3923C480.552 59.3923 481.216 59.0627 481.729 58.4035L482.688 59.319C482.371 59.7927 481.946 60.1613 481.414 60.425C480.886 60.6838 480.293 60.8132 479.634 60.8132ZM479.421 54.0236C478.933 54.0236 478.538 54.1945 478.235 54.5363C477.937 54.8781 477.747 55.3542 477.664 55.9645H481.055V55.8327C481.016 55.237 480.857 54.7878 480.579 54.485C480.3 54.1774 479.915 54.0236 479.421 54.0236ZM485.874 52.7419L485.925 53.5695C486.482 52.9201 487.244 52.5954 488.21 52.5954C489.27 52.5954 489.995 53.0007 490.386 53.8112C490.962 53.0007 491.772 52.5954 492.817 52.5954C493.691 52.5954 494.341 52.8371 494.766 53.3205C495.195 53.8039 495.415 54.5168 495.425 55.4592V60.6667H493.645V55.5104C493.645 55.0075 493.535 54.6389 493.315 54.4045C493.096 54.1701 492.732 54.0529 492.224 54.0529C491.819 54.0529 491.487 54.1628 491.228 54.3825C490.974 54.5974 490.796 54.8806 490.693 55.2321L490.701 60.6667H488.921V55.4518C488.896 54.5192 488.42 54.0529 487.493 54.0529C486.78 54.0529 486.274 54.3434 485.977 54.9245V60.6667H484.197V52.7419H485.874ZM506.895 56.8654H508.22V58.2936H506.895V60.6667H505.115V58.2936H500.508L500.457 57.2097L505.056 50.0026H506.895V56.8654ZM502.324 56.8654H505.115V52.4123L504.983 52.6467L502.324 56.8654Z" fill="white"/>
<path d="M559 36C559 33.2386 561.239 31 564 31H674C676.761 31 679 33.2386 679 36V76C679 78.7614 676.761 81 674 81H564C561.239 81 559 78.7614 559 76V36Z" fill="#1E73FF"/>
<path d="M601.204 60.6667H599.424V52.7419H601.204V60.6667ZM599.314 50.6838C599.314 50.4103 599.4 50.1833 599.571 50.0026C599.747 49.822 599.996 49.7316 600.318 49.7316C600.64 49.7316 600.889 49.822 601.065 50.0026C601.241 50.1833 601.329 50.4103 601.329 50.6838C601.329 50.9523 601.241 51.1769 601.065 51.3576C600.889 51.5334 600.64 51.6213 600.318 51.6213C599.996 51.6213 599.747 51.5334 599.571 51.3576C599.4 51.1769 599.314 50.9523 599.314 50.6838ZM605.379 50.8156V52.7419H606.778V54.0602H605.379V58.4841C605.379 58.7868 605.438 59.0065 605.555 59.1432C605.677 59.2751 605.892 59.341 606.199 59.341C606.404 59.341 606.612 59.3166 606.822 59.2678V60.6447C606.417 60.757 606.026 60.8132 605.65 60.8132C604.283 60.8132 603.599 60.0588 603.599 58.55V54.0602H602.295V52.7419H603.599V50.8156H605.379ZM611.634 60.8132C610.506 60.8132 609.59 60.4592 608.887 59.7512C608.189 59.0383 607.84 58.091 607.84 56.9094V56.6896C607.84 55.8986 607.991 55.1931 608.294 54.5729C608.602 53.9479 609.031 53.4621 609.583 53.1154C610.135 52.7687 610.75 52.5954 611.429 52.5954C612.508 52.5954 613.34 52.9396 613.926 53.6281C614.517 54.3166 614.812 55.2907 614.812 56.5505V57.2682H609.634C609.688 57.9225 609.905 58.4401 610.286 58.821C610.672 59.2018 611.155 59.3923 611.736 59.3923C612.552 59.3923 613.216 59.0627 613.729 58.4035L614.688 59.319C614.371 59.7927 613.946 60.1613 613.414 60.425C612.886 60.6838 612.293 60.8132 611.634 60.8132ZM611.421 54.0236C610.933 54.0236 610.538 54.1945 610.235 54.5363C609.937 54.8781 609.747 55.3542 609.664 55.9645H613.055V55.8327C613.016 55.237 612.857 54.7878 612.579 54.485C612.3 54.1774 611.915 54.0236 611.421 54.0236ZM617.874 52.7419L617.925 53.5695C618.482 52.9201 619.244 52.5954 620.21 52.5954C621.27 52.5954 621.995 53.0007 622.386 53.8112C622.962 53.0007 623.772 52.5954 624.817 52.5954C625.691 52.5954 626.341 52.8371 626.766 53.3205C627.195 53.8039 627.415 54.5168 627.425 55.4592V60.6667H625.645V55.5104C625.645 55.0075 625.535 54.6389 625.315 54.4045C625.096 54.1701 624.732 54.0529 624.224 54.0529C623.819 54.0529 623.487 54.1628 623.228 54.3825C622.974 54.5974 622.796 54.8806 622.693 55.2321L622.701 60.6667H620.921V55.4518C620.896 54.5192 620.42 54.0529 619.493 54.0529C618.78 54.0529 618.274 54.3434 617.977 54.9245V60.6667H616.197V52.7419H617.874ZM633.35 55.3786L633.929 50.0026H639.656V51.5407H635.408L635.115 54.0895C635.608 53.8063 636.165 53.6647 636.785 53.6647C637.801 53.6647 638.589 53.9894 639.151 54.6389C639.717 55.2883 640 56.1623 640 57.2609C640 58.3449 639.688 59.2092 639.063 59.8537C638.438 60.4933 637.581 60.8132 636.492 60.8132C635.516 60.8132 634.705 60.5373 634.061 59.9855C633.421 59.4289 633.074 58.6965 633.021 57.7883H634.742C634.81 58.3058 634.996 58.7038 635.298 58.9821C635.601 59.2556 635.997 59.3923 636.485 59.3923C637.032 59.3923 637.457 59.197 637.759 58.8063C638.067 58.4157 638.221 57.8835 638.221 57.2097C638.221 56.5602 638.052 56.0475 637.715 55.6716C637.378 55.2907 636.915 55.1003 636.324 55.1003C636.001 55.1003 635.728 55.1442 635.503 55.2321C635.279 55.3151 635.035 55.4811 634.771 55.7302L633.35 55.3786Z" fill="white"/>
<path d="M153.5 29L153.5 83" stroke="#BBBBBB" stroke-dasharray="3 2"/>
<path d="M160.5 29L160.5 83" stroke="#BBBBBB" stroke-dasharray="3 2"/>
<path d="M285.5 29L285.5 83" stroke="#BBBBBB" stroke-dasharray="3 2"/>
<path d="M292.5 29L292.5 83" stroke="#BBBBBB" stroke-dasharray="3 2"/>
<path d="M417.5 29L417.5 83" stroke="#BBBBBB" stroke-dasharray="3 2"/>
<path d="M424.5 29L424.5 83" stroke="#BBBBBB" stroke-dasharray="3 2"/>
<path d="M549.5 29L549.5 83" stroke="#BBBBBB" stroke-dasharray="3 2"/>
<path d="M556.5 29L556.5 83" stroke="#BBBBBB" stroke-dasharray="3 2"/>
<rect x="28" y="28" width="654" height="56" stroke="#AAAAAA" stroke-width="2"/>
<rect width="446" height="174" transform="translate(0 386)" fill="#F7F7F7"/>
<path d="M37 553C37 554.105 36.1046 555 35 555L21 555C19.8954 555 19 554.105 19 553L19 543.814C19 543.283 19.2112 542.774 19.587 542.399L26.587 535.411C27.3678 534.631 28.6323 534.631 29.413 535.411L36.413 542.399C36.7888 542.774 37 543.283 37 543.814L37 553Z" fill="#DDDDDD"/>
<path d="M26.1133 547.947H23.0371V546.799H26.1133V547.947ZM32.0137 547.959H33.0742V549.102H32.0137V551H30.5898V549.102H26.9043L26.8633 548.234L30.543 542.469H32.0137V547.959ZM28.3574 547.959H30.5898V544.396L30.4844 544.584L28.3574 547.959Z" fill="white"/>
<path d="M166 553C166 554.105 165.105 555 164 555L150 555C148.895 555 148 554.105 148 553L148 543.814C148 543.283 148.211 542.774 148.587 542.399L155.587 535.411C156.368 534.631 157.632 534.631 158.413 535.411L165.413 542.399C165.789 542.774 166 543.283 166 543.814L166 553Z" fill="#DDDDDD"/>
<path d="M155.113 547.947H152.037V546.799H155.113V547.947ZM157.844 546.084H158.711C159.148 546.08 159.494 545.967 159.748 545.744C160.006 545.521 160.135 545.199 160.135 544.777C160.135 544.371 160.027 544.057 159.812 543.834C159.602 543.607 159.277 543.494 158.84 543.494C158.457 543.494 158.143 543.605 157.896 543.828C157.65 544.047 157.527 544.334 157.527 544.689H156.104C156.104 544.252 156.219 543.854 156.449 543.494C156.684 543.135 157.008 542.855 157.422 542.656C157.84 542.453 158.307 542.352 158.822 542.352C159.674 542.352 160.342 542.566 160.826 542.996C161.314 543.422 161.559 544.016 161.559 544.777C161.559 545.16 161.436 545.521 161.189 545.861C160.947 546.197 160.633 546.451 160.246 546.623C160.715 546.783 161.07 547.035 161.312 547.379C161.559 547.723 161.682 548.133 161.682 548.609C161.682 549.375 161.418 549.984 160.891 550.438C160.367 550.891 159.678 551.117 158.822 551.117C158.002 551.117 157.33 550.898 156.807 550.461C156.283 550.023 156.021 549.441 156.021 548.715H157.445C157.445 549.09 157.57 549.395 157.82 549.629C158.074 549.863 158.414 549.98 158.84 549.98C159.281 549.98 159.629 549.863 159.883 549.629C160.137 549.395 160.264 549.055 160.264 548.609C160.264 548.16 160.131 547.814 159.865 547.572C159.6 547.33 159.205 547.209 158.682 547.209H157.844V546.084Z" fill="white"/>
<path d="M298 553C298 554.105 297.105 555 296 555L282 555C280.895 555 280 554.105 280 553L280 543.814C280 543.283 280.211 542.774 280.587 542.399L287.587 535.411C288.368 534.631 289.632 534.631 290.413 535.411L297.413 542.399C297.789 542.774 298 543.283 298 543.814L298 553Z" fill="#DDDDDD"/>
<path d="M287.113 547.947H284.037V546.799H287.113V547.947ZM293.934 551H288.197V550.021L291.039 546.922C291.449 546.465 291.74 546.084 291.912 545.779C292.088 545.471 292.176 545.162 292.176 544.854C292.176 544.447 292.061 544.119 291.83 543.869C291.604 543.619 291.297 543.494 290.91 543.494C290.449 543.494 290.092 543.635 289.838 543.916C289.584 544.197 289.457 544.582 289.457 545.07H288.033C288.033 544.551 288.15 544.084 288.385 543.67C288.623 543.252 288.961 542.928 289.398 542.697C289.84 542.467 290.348 542.352 290.922 542.352C291.75 542.352 292.402 542.561 292.879 542.979C293.359 543.393 293.6 543.967 293.6 544.701C293.6 545.127 293.479 545.574 293.236 546.043C292.998 546.508 292.605 547.037 292.059 547.631L289.973 549.863H293.934V551Z" fill="white"/>
<path d="M427 553C427 554.105 426.105 555 425 555L411 555C409.895 555 409 554.105 409 553L409 543.814C409 543.283 409.211 542.774 409.587 542.399L416.587 535.411C417.368 534.631 418.632 534.631 419.413 535.411L426.413 542.399C426.789 542.774 427 543.283 427 543.814L427 553Z" fill="#DDDDDD"/>
<path d="M416.113 547.947H413.037V546.799H416.113V547.947ZM421.053 551H419.635V544.15L417.543 544.865V543.664L420.871 542.439H421.053V551Z" fill="white"/>
<path d="M19 393C19 391.895 19.8954 391 21 391H35C36.1046 391 37 391.895 37 393V402.186C37 402.717 36.7888 403.226 36.413 403.601L29.413 410.589C28.6323 411.369 27.3677 411.369 26.587 410.589L19.587 403.601C19.2112 403.226 19 402.717 19 402.186V393Z" fill="#CCCCCC"/>
<path d="M29.084 403H27.666V396.15L25.5742 396.865V395.664L28.9023 394.439H29.084V403Z" fill="white"/>
<path d="M148 393C148 391.895 148.895 391 150 391H164C165.105 391 166 391.895 166 393V402.186C166 402.717 165.789 403.226 165.413 403.601L158.413 410.589C157.632 411.369 156.368 411.369 155.587 410.589L148.587 403.601C148.211 403.226 148 402.717 148 402.186V393Z" fill="#CCCCCC"/>
<path d="M159.965 403H154.229V402.021L157.07 398.922C157.48 398.465 157.771 398.084 157.943 397.779C158.119 397.471 158.207 397.162 158.207 396.854C158.207 396.447 158.092 396.119 157.861 395.869C157.635 395.619 157.328 395.494 156.941 395.494C156.48 395.494 156.123 395.635 155.869 395.916C155.615 396.197 155.488 396.582 155.488 397.07H154.064C154.064 396.551 154.182 396.084 154.416 395.67C154.654 395.252 154.992 394.928 155.43 394.697C155.871 394.467 156.379 394.352 156.953 394.352C157.781 394.352 158.434 394.561 158.91 394.979C159.391 395.393 159.631 395.967 159.631 396.701C159.631 397.127 159.51 397.574 159.268 398.043C159.029 398.508 158.637 399.037 158.09 399.631L156.004 401.863H159.965V403Z" fill="white"/>
<path d="M280 393C280 391.895 280.895 391 282 391H296C297.105 391 298 391.895 298 393V402.186C298 402.717 297.789 403.226 297.413 403.601L290.413 410.589C289.632 411.369 288.368 411.369 287.587 410.589L280.587 403.601C280.211 403.226 280 402.717 280 402.186V393Z" fill="#CCCCCC"/>
<path d="M287.875 398.084H288.742C289.18 398.08 289.525 397.967 289.779 397.744C290.037 397.521 290.166 397.199 290.166 396.777C290.166 396.371 290.059 396.057 289.844 395.834C289.633 395.607 289.309 395.494 288.871 395.494C288.488 395.494 288.174 395.605 287.928 395.828C287.682 396.047 287.559 396.334 287.559 396.689H286.135C286.135 396.252 286.25 395.854 286.48 395.494C286.715 395.135 287.039 394.855 287.453 394.656C287.871 394.453 288.338 394.352 288.854 394.352C289.705 394.352 290.373 394.566 290.857 394.996C291.346 395.422 291.59 396.016 291.59 396.777C291.59 397.16 291.467 397.521 291.221 397.861C290.979 398.197 290.664 398.451 290.277 398.623C290.746 398.783 291.102 399.035 291.344 399.379C291.59 399.723 291.713 400.133 291.713 400.609C291.713 401.375 291.449 401.984 290.922 402.438C290.398 402.891 289.709 403.117 288.854 403.117C288.033 403.117 287.361 402.898 286.838 402.461C286.314 402.023 286.053 401.441 286.053 400.715H287.477C287.477 401.09 287.602 401.395 287.852 401.629C288.105 401.863 288.445 401.98 288.871 401.98C289.312 401.98 289.66 401.863 289.914 401.629C290.168 401.395 290.295 401.055 290.295 400.609C290.295 400.16 290.162 399.814 289.896 399.572C289.631 399.33 289.236 399.209 288.713 399.209H287.875V398.084Z" fill="white"/>
<path d="M409 393C409 391.895 409.895 391 411 391H425C426.105 391 427 391.895 427 393V402.186C427 402.717 426.789 403.226 426.413 403.601L419.413 410.589C418.632 411.369 417.368 411.369 416.587 410.589L409.587 403.601C409.211 403.226 409 402.717 409 402.186V393Z" fill="#CCCCCC"/>
<path d="M420.045 399.959H421.105V401.102H420.045V403H418.621V401.102H414.936L414.895 400.234L418.574 394.469H420.045V399.959ZM416.389 399.959H418.621V396.396L418.516 396.584L416.389 399.959Z" fill="white"/>
<path d="M7 423C5.89543 423 5 422.105 5 421L5 407C5 405.895 5.89543 405 7 405L16.1857 405C16.7167 405 17.2259 405.211 17.6011 405.587L24.5894 412.587C25.3688 413.368 25.3688 414.632 24.5894 415.413L17.6011 422.413C17.2259 422.789 16.7167 423 16.1857 423L7 423Z" fill="#CCCCCC"/>
<path d="M14.084 418H12.666V411.15L10.5742 411.865V410.664L13.9023 409.439H14.084V418Z" fill="white"/>
<path d="M7 482C5.89543 482 5 481.105 5 480L5 466C5 464.895 5.89543 464 7 464L16.1857 464C16.7167 464 17.2259 464.211 17.6011 464.587L24.5894 471.587C25.3688 472.368 25.3688 473.632 24.5894 474.413L17.6011 481.413C17.2259 481.789 16.7167 482 16.1857 482L7 482Z" fill="#CCCCCC"/>
<path d="M15.9648 477H10.2285V476.021L13.0703 472.922C13.4805 472.465 13.7715 472.084 13.9434 471.779C14.1191 471.471 14.207 471.162 14.207 470.854C14.207 470.447 14.0918 470.119 13.8613 469.869C13.6348 469.619 13.3281 469.494 12.9414 469.494C12.4805 469.494 12.123 469.635 11.8691 469.916C11.6152 470.197 11.4883 470.582 11.4883 471.07H10.0645C10.0645 470.551 10.1816 470.084 10.416 469.67C10.6543 469.252 10.9922 468.928 11.4297 468.697C11.8711 468.467 12.3789 468.352 12.9531 468.352C13.7812 468.352 14.4336 468.561 14.9102 468.979C15.3906 469.393 15.6309 469.967 15.6309 470.701C15.6309 471.127 15.5098 471.574 15.2676 472.043C15.0293 472.508 14.6367 473.037 14.0898 473.631L12.0039 475.863H15.9648V477Z" fill="white"/>
<path d="M7 541C5.89543 541 5 540.105 5 539L5 525C5 523.895 5.89543 523 7 523L16.1857 523C16.7167 523 17.2259 523.211 17.6011 523.587L24.5894 530.587C25.3688 531.368 25.3688 532.632 24.5894 533.413L17.6011 540.413C17.2259 540.789 16.7167 541 16.1857 541L7 541Z" fill="#CCCCCC"/>
<path d="M11.875 531.084H12.7422C13.1797 531.08 13.5254 530.967 13.7793 530.744C14.0371 530.521 14.166 530.199 14.166 529.777C14.166 529.371 14.0586 529.057 13.8438 528.834C13.6328 528.607 13.3086 528.494 12.8711 528.494C12.4883 528.494 12.1738 528.605 11.9277 528.828C11.6816 529.047 11.5586 529.334 11.5586 529.689H10.1348C10.1348 529.252 10.25 528.854 10.4805 528.494C10.7148 528.135 11.0391 527.855 11.4531 527.656C11.8711 527.453 12.3379 527.352 12.8535 527.352C13.7051 527.352 14.373 527.566 14.8574 527.996C15.3457 528.422 15.5898 529.016 15.5898 529.777C15.5898 530.16 15.4668 530.521 15.2207 530.861C14.9785 531.197 14.6641 531.451 14.2773 531.623C14.7461 531.783 15.1016 532.035 15.3438 532.379C15.5898 532.723 15.7129 533.133 15.7129 533.609C15.7129 534.375 15.4492 534.984 14.9219 535.438C14.3984 535.891 13.709 536.117 12.8535 536.117C12.0332 536.117 11.3613 535.898 10.8379 535.461C10.3145 535.023 10.0527 534.441 10.0527 533.715H11.4766C11.4766 534.09 11.6016 534.395 11.8516 534.629C12.1055 534.863 12.4453 534.98 12.8711 534.98C13.3125 534.98 13.6602 534.863 13.9141 534.629C14.168 534.395 14.2949 534.055 14.2949 533.609C14.2949 533.16 14.1621 532.814 13.8965 532.572C13.6309 532.33 13.2363 532.209 12.7129 532.209H11.875V531.084Z" fill="white"/>
<path d="M439 405C440.105 405 441 405.895 441 407L441 421C441 422.105 440.105 423 439 423L429.814 423C429.283 423 428.774 422.789 428.399 422.413L421.411 415.413C420.631 414.632 420.631 413.368 421.411 412.587L428.399 405.587C428.774 405.211 429.283 405 429.814 405L439 405Z" fill="#DDDDDD"/>
<path d="M431.113 414.947H428.037V413.799H431.113V414.947ZM433.844 413.084H434.711C435.148 413.08 435.494 412.967 435.748 412.744C436.006 412.521 436.135 412.199 436.135 411.777C436.135 411.371 436.027 411.057 435.812 410.834C435.602 410.607 435.277 410.494 434.84 410.494C434.457 410.494 434.143 410.605 433.896 410.828C433.65 411.047 433.527 411.334 433.527 411.689H432.104C432.104 411.252 432.219 410.854 432.449 410.494C432.684 410.135 433.008 409.855 433.422 409.656C433.84 409.453 434.307 409.352 434.822 409.352C435.674 409.352 436.342 409.566 436.826 409.996C437.314 410.422 437.559 411.016 437.559 411.777C437.559 412.16 437.436 412.521 437.189 412.861C436.947 413.197 436.633 413.451 436.246 413.623C436.715 413.783 437.07 414.035 437.312 414.379C437.559 414.723 437.682 415.133 437.682 415.609C437.682 416.375 437.418 416.984 436.891 417.438C436.367 417.891 435.678 418.117 434.822 418.117C434.002 418.117 433.33 417.898 432.807 417.461C432.283 417.023 432.021 416.441 432.021 415.715H433.445C433.445 416.09 433.57 416.395 433.82 416.629C434.074 416.863 434.414 416.98 434.84 416.98C435.281 416.98 435.629 416.863 435.883 416.629C436.137 416.395 436.264 416.055 436.264 415.609C436.264 415.16 436.131 414.814 435.865 414.572C435.6 414.33 435.205 414.209 434.682 414.209H433.844V413.084Z" fill="white"/>
<path d="M439 464C440.105 464 441 464.895 441 466L441 480C441 481.105 440.105 482 439 482L429.814 482C429.283 482 428.774 481.789 428.399 481.413L421.411 474.413C420.631 473.632 420.631 472.368 421.411 471.587L428.399 464.587C428.774 464.211 429.283 464 429.814 464L439 464Z" fill="#DDDDDD"/>
<path d="M431.113 473.947H428.037V472.799H431.113V473.947ZM437.934 477H432.197V476.021L435.039 472.922C435.449 472.465 435.74 472.084 435.912 471.779C436.088 471.471 436.176 471.162 436.176 470.854C436.176 470.447 436.061 470.119 435.83 469.869C435.604 469.619 435.297 469.494 434.91 469.494C434.449 469.494 434.092 469.635 433.838 469.916C433.584 470.197 433.457 470.582 433.457 471.07H432.033C432.033 470.551 432.15 470.084 432.385 469.67C432.623 469.252 432.961 468.928 433.398 468.697C433.84 468.467 434.348 468.352 434.922 468.352C435.75 468.352 436.402 468.561 436.879 468.979C437.359 469.393 437.6 469.967 437.6 470.701C437.6 471.127 437.479 471.574 437.236 472.043C436.998 472.508 436.605 473.037 436.059 473.631L433.973 475.863H437.934V477Z" fill="white"/>
<path d="M439 523C440.105 523 441 523.895 441 525L441 539C441 540.105 440.105 541 439 541L429.814 541C429.283 541 428.774 540.789 428.399 540.413L421.411 533.413C420.631 532.632 420.631 531.368 421.411 530.587L428.399 523.587C428.774 523.211 429.283 523 429.814 523L439 523Z" fill="#DDDDDD"/>
<path d="M431.113 532.947H428.037V531.799H431.113V532.947ZM436.053 536H434.635V529.15L432.543 529.865V528.664L435.871 527.439H436.053V536Z" fill="white"/>
<rect x="28" y="414" width="390" height="118" fill="white"/>
<path d="M31 422C31 419.239 33.2386 417 36 417H146C148.761 417 151 419.239 151 422V462C151 464.761 148.761 467 146 467H36C33.2386 467 31 464.761 31 462V422Z" fill="#1E73FF"/>
<path d="M73.2041 446.667H71.4243V438.742H73.2041V446.667ZM71.3145 436.684C71.3145 436.41 71.3999 436.183 71.5708 436.003C71.7466 435.822 71.9956 435.732 72.3179 435.732C72.6401 435.732 72.8892 435.822 73.0649 436.003C73.2407 436.183 73.3286 436.41 73.3286 436.684C73.3286 436.952 73.2407 437.177 73.0649 437.358C72.8892 437.533 72.6401 437.621 72.3179 437.621C71.9956 437.621 71.7466 437.533 71.5708 437.358C71.3999 437.177 71.3145 436.952 71.3145 436.684ZM77.3789 436.816V438.742H78.7778V440.06H77.3789V444.484C77.3789 444.787 77.4375 445.006 77.5547 445.143C77.6768 445.275 77.8916 445.341 78.1992 445.341C78.4043 445.341 78.6118 445.317 78.8218 445.268V446.645C78.4165 446.757 78.0259 446.813 77.6499 446.813C76.2827 446.813 75.5991 446.059 75.5991 444.55V440.06H74.2954V438.742H75.5991V436.816H77.3789ZM83.6338 446.813C82.5059 446.813 81.5903 446.459 80.8872 445.751C80.189 445.038 79.8398 444.091 79.8398 442.909V442.69C79.8398 441.899 79.9912 441.193 80.2939 440.573C80.6016 439.948 81.0312 439.462 81.583 439.115C82.1348 438.769 82.75 438.595 83.4287 438.595C84.5078 438.595 85.3403 438.94 85.9263 439.628C86.5171 440.317 86.8125 441.291 86.8125 442.55V443.268H81.6343C81.688 443.922 81.9053 444.44 82.2861 444.821C82.6719 445.202 83.1553 445.392 83.7363 445.392C84.5518 445.392 85.2158 445.063 85.7285 444.403L86.688 445.319C86.3706 445.793 85.9458 446.161 85.4136 446.425C84.8862 446.684 84.293 446.813 83.6338 446.813ZM83.4214 440.024C82.9331 440.024 82.5376 440.194 82.2349 440.536C81.937 440.878 81.7466 441.354 81.6636 441.964H85.0547V441.833C85.0156 441.237 84.8569 440.788 84.5786 440.485C84.3003 440.177 83.9146 440.024 83.4214 440.024ZM89.874 438.742L89.9253 439.569C90.4819 438.92 91.2437 438.595 92.2104 438.595C93.27 438.595 93.9951 439.001 94.3857 439.811C94.9619 439.001 95.7725 438.595 96.8174 438.595C97.6914 438.595 98.3408 438.837 98.7656 439.32C99.1953 439.804 99.415 440.517 99.4248 441.459V446.667H97.645V441.51C97.645 441.007 97.5352 440.639 97.3154 440.404C97.0957 440.17 96.7319 440.053 96.2241 440.053C95.8188 440.053 95.4868 440.163 95.228 440.382C94.9741 440.597 94.7959 440.88 94.6934 441.232L94.7007 446.667H92.9209V441.452C92.8965 440.519 92.4204 440.053 91.4927 440.053C90.7798 440.053 90.2744 440.343 89.9766 440.924V446.667H88.1968V438.742H89.874ZM109.693 446.667H107.921V438.105L105.306 438.998V437.497L109.466 435.966H109.693V446.667Z" fill="white"/>
<path d="M163 422C163 419.239 165.239 417 168 417H278C280.761 417 283 419.239 283 422V462C283 464.761 280.761 467 278 467H168C165.239 467 163 464.761 163 462V422Z" fill="#1E73FF"/>
<path d="M205.204 446.667H203.424V438.742H205.204V446.667ZM203.314 436.684C203.314 436.41 203.4 436.183 203.571 436.003C203.747 435.822 203.996 435.732 204.318 435.732C204.64 435.732 204.889 435.822 205.065 436.003C205.241 436.183 205.329 436.41 205.329 436.684C205.329 436.952 205.241 437.177 205.065 437.358C204.889 437.533 204.64 437.621 204.318 437.621C203.996 437.621 203.747 437.533 203.571 437.358C203.4 437.177 203.314 436.952 203.314 436.684ZM209.379 436.816V438.742H210.778V440.06H209.379V444.484C209.379 444.787 209.438 445.006 209.555 445.143C209.677 445.275 209.892 445.341 210.199 445.341C210.404 445.341 210.612 445.317 210.822 445.268V446.645C210.417 446.757 210.026 446.813 209.65 446.813C208.283 446.813 207.599 446.059 207.599 444.55V440.06H206.295V438.742H207.599V436.816H209.379ZM215.634 446.813C214.506 446.813 213.59 446.459 212.887 445.751C212.189 445.038 211.84 444.091 211.84 442.909V442.69C211.84 441.899 211.991 441.193 212.294 440.573C212.602 439.948 213.031 439.462 213.583 439.115C214.135 438.769 214.75 438.595 215.429 438.595C216.508 438.595 217.34 438.94 217.926 439.628C218.517 440.317 218.812 441.291 218.812 442.55V443.268H213.634C213.688 443.922 213.905 444.44 214.286 444.821C214.672 445.202 215.155 445.392 215.736 445.392C216.552 445.392 217.216 445.063 217.729 444.403L218.688 445.319C218.371 445.793 217.946 446.161 217.414 446.425C216.886 446.684 216.293 446.813 215.634 446.813ZM215.421 440.024C214.933 440.024 214.538 440.194 214.235 440.536C213.937 440.878 213.747 441.354 213.664 441.964H217.055V441.833C217.016 441.237 216.857 440.788 216.579 440.485C216.3 440.177 215.915 440.024 215.421 440.024ZM221.874 438.742L221.925 439.569C222.482 438.92 223.244 438.595 224.21 438.595C225.27 438.595 225.995 439.001 226.386 439.811C226.962 439.001 227.772 438.595 228.817 438.595C229.691 438.595 230.341 438.837 230.766 439.32C231.195 439.804 231.415 440.517 231.425 441.459V446.667H229.645V441.51C229.645 441.007 229.535 440.639 229.315 440.404C229.096 440.17 228.732 440.053 228.224 440.053C227.819 440.053 227.487 440.163 227.228 440.382C226.974 440.597 226.796 440.88 226.693 441.232L226.701 446.667H224.921V441.452C224.896 440.519 224.42 440.053 223.493 440.053C222.78 440.053 222.274 440.343 221.977 440.924V446.667H220.197V438.742H221.874ZM244.044 446.667H236.874V445.443L240.426 441.569C240.939 440.998 241.303 440.522 241.518 440.141C241.737 439.755 241.847 439.369 241.847 438.984C241.847 438.476 241.703 438.066 241.415 437.753C241.132 437.441 240.749 437.284 240.265 437.284C239.689 437.284 239.242 437.46 238.925 437.812C238.607 438.163 238.449 438.644 238.449 439.255H236.669C236.669 438.605 236.815 438.022 237.108 437.504C237.406 436.982 237.829 436.576 238.375 436.288C238.927 436 239.562 435.856 240.28 435.856C241.315 435.856 242.13 436.117 242.726 436.64C243.327 437.157 243.627 437.875 243.627 438.793C243.627 439.325 243.476 439.884 243.173 440.47C242.875 441.051 242.384 441.713 241.701 442.455L239.093 445.246H244.044V446.667Z" fill="white"/>
<path d="M295 422C295 419.239 297.239 417 300 417H410C412.761 417 415 419.239 415 422V462C415 464.761 412.761 467 410 467H300C297.239 467 295 464.761 295 462V422Z" fill="#1E73FF"/>
<path d="M337.204 446.667H335.424V438.742H337.204V446.667ZM335.314 436.684C335.314 436.41 335.4 436.183 335.571 436.003C335.747 435.822 335.996 435.732 336.318 435.732C336.64 435.732 336.889 435.822 337.065 436.003C337.241 436.183 337.329 436.41 337.329 436.684C337.329 436.952 337.241 437.177 337.065 437.358C336.889 437.533 336.64 437.621 336.318 437.621C335.996 437.621 335.747 437.533 335.571 437.358C335.4 437.177 335.314 436.952 335.314 436.684ZM341.379 436.816V438.742H342.778V440.06H341.379V444.484C341.379 444.787 341.438 445.006 341.555 445.143C341.677 445.275 341.892 445.341 342.199 445.341C342.404 445.341 342.612 445.317 342.822 445.268V446.645C342.417 446.757 342.026 446.813 341.65 446.813C340.283 446.813 339.599 446.059 339.599 444.55V440.06H338.295V438.742H339.599V436.816H341.379ZM347.634 446.813C346.506 446.813 345.59 446.459 344.887 445.751C344.189 445.038 343.84 444.091 343.84 442.909V442.69C343.84 441.899 343.991 441.193 344.294 440.573C344.602 439.948 345.031 439.462 345.583 439.115C346.135 438.769 346.75 438.595 347.429 438.595C348.508 438.595 349.34 438.94 349.926 439.628C350.517 440.317 350.812 441.291 350.812 442.55V443.268H345.634C345.688 443.922 345.905 444.44 346.286 444.821C346.672 445.202 347.155 445.392 347.736 445.392C348.552 445.392 349.216 445.063 349.729 444.403L350.688 445.319C350.371 445.793 349.946 446.161 349.414 446.425C348.886 446.684 348.293 446.813 347.634 446.813ZM347.421 440.024C346.933 440.024 346.538 440.194 346.235 440.536C345.937 440.878 345.747 441.354 345.664 441.964H349.055V441.833C349.016 441.237 348.857 440.788 348.579 440.485C348.3 440.177 347.915 440.024 347.421 440.024ZM353.874 438.742L353.925 439.569C354.482 438.92 355.244 438.595 356.21 438.595C357.27 438.595 357.995 439.001 358.386 439.811C358.962 439.001 359.772 438.595 360.817 438.595C361.691 438.595 362.341 438.837 362.766 439.32C363.195 439.804 363.415 440.517 363.425 441.459V446.667H361.645V441.51C361.645 441.007 361.535 440.639 361.315 440.404C361.096 440.17 360.732 440.053 360.224 440.053C359.819 440.053 359.487 440.163 359.228 440.382C358.974 440.597 358.796 440.88 358.693 441.232L358.701 446.667H356.921V441.452C356.896 440.519 356.42 440.053 355.493 440.053C354.78 440.053 354.274 440.343 353.977 440.924V446.667H352.197V438.742H353.874ZM370.932 440.522H372.016C372.563 440.517 372.995 440.375 373.312 440.097C373.635 439.818 373.796 439.416 373.796 438.888C373.796 438.38 373.662 437.987 373.393 437.709C373.129 437.426 372.724 437.284 372.177 437.284C371.699 437.284 371.306 437.423 370.998 437.702C370.69 437.975 370.537 438.334 370.537 438.778H368.757C368.757 438.232 368.901 437.734 369.189 437.284C369.482 436.835 369.887 436.486 370.405 436.237C370.927 435.983 371.511 435.856 372.155 435.856C373.22 435.856 374.055 436.125 374.66 436.662C375.271 437.194 375.576 437.936 375.576 438.888C375.576 439.367 375.422 439.818 375.114 440.243C374.812 440.663 374.418 440.981 373.935 441.195C374.521 441.396 374.965 441.711 375.268 442.14C375.576 442.57 375.729 443.083 375.729 443.678C375.729 444.635 375.4 445.397 374.741 445.964C374.086 446.53 373.225 446.813 372.155 446.813C371.13 446.813 370.29 446.54 369.636 445.993C368.981 445.446 368.654 444.718 368.654 443.81H370.434C370.434 444.279 370.59 444.66 370.903 444.953C371.22 445.246 371.645 445.392 372.177 445.392C372.729 445.392 373.164 445.246 373.481 444.953C373.798 444.66 373.957 444.235 373.957 443.678C373.957 443.117 373.791 442.685 373.459 442.382C373.127 442.079 372.634 441.928 371.979 441.928H370.932V440.522Z" fill="white"/>
<path d="M31 484C31 481.239 33.2386 479 36 479H146C148.761 479 151 481.239 151 484V524C151 526.761 148.761 529 146 529H36C33.2386 529 31 526.761 31 524V484Z" fill="#1E73FF"/>
<path d="M73.2041 508.667H71.4243V500.742H73.2041V508.667ZM71.3145 498.684C71.3145 498.41 71.3999 498.183 71.5708 498.003C71.7466 497.822 71.9956 497.732 72.3179 497.732C72.6401 497.732 72.8892 497.822 73.0649 498.003C73.2407 498.183 73.3286 498.41 73.3286 498.684C73.3286 498.952 73.2407 499.177 73.0649 499.358C72.8892 499.533 72.6401 499.621 72.3179 499.621C71.9956 499.621 71.7466 499.533 71.5708 499.358C71.3999 499.177 71.3145 498.952 71.3145 498.684ZM77.3789 498.816V500.742H78.7778V502.06H77.3789V506.484C77.3789 506.787 77.4375 507.006 77.5547 507.143C77.6768 507.275 77.8916 507.341 78.1992 507.341C78.4043 507.341 78.6118 507.317 78.8218 507.268V508.645C78.4165 508.757 78.0259 508.813 77.6499 508.813C76.2827 508.813 75.5991 508.059 75.5991 506.55V502.06H74.2954V500.742H75.5991V498.816H77.3789ZM83.6338 508.813C82.5059 508.813 81.5903 508.459 80.8872 507.751C80.189 507.038 79.8398 506.091 79.8398 504.909V504.69C79.8398 503.899 79.9912 503.193 80.2939 502.573C80.6016 501.948 81.0312 501.462 81.583 501.115C82.1348 500.769 82.75 500.595 83.4287 500.595C84.5078 500.595 85.3403 500.94 85.9263 501.628C86.5171 502.317 86.8125 503.291 86.8125 504.55V505.268H81.6343C81.688 505.922 81.9053 506.44 82.2861 506.821C82.6719 507.202 83.1553 507.392 83.7363 507.392C84.5518 507.392 85.2158 507.063 85.7285 506.403L86.688 507.319C86.3706 507.793 85.9458 508.161 85.4136 508.425C84.8862 508.684 84.293 508.813 83.6338 508.813ZM83.4214 502.024C82.9331 502.024 82.5376 502.194 82.2349 502.536C81.937 502.878 81.7466 503.354 81.6636 503.964H85.0547V503.833C85.0156 503.237 84.8569 502.788 84.5786 502.485C84.3003 502.177 83.9146 502.024 83.4214 502.024ZM89.874 500.742L89.9253 501.569C90.4819 500.92 91.2437 500.595 92.2104 500.595C93.27 500.595 93.9951 501.001 94.3857 501.811C94.9619 501.001 95.7725 500.595 96.8174 500.595C97.6914 500.595 98.3408 500.837 98.7656 501.32C99.1953 501.804 99.415 502.517 99.4248 503.459V508.667H97.645V503.51C97.645 503.007 97.5352 502.639 97.3154 502.404C97.0957 502.17 96.7319 502.053 96.2241 502.053C95.8188 502.053 95.4868 502.163 95.228 502.382C94.9741 502.597 94.7959 502.88 94.6934 503.232L94.7007 508.667H92.9209V503.452C92.8965 502.519 92.4204 502.053 91.4927 502.053C90.7798 502.053 90.2744 502.343 89.9766 502.924V508.667H88.1968V500.742H89.874ZM105.35 503.379L105.929 498.003H111.656V499.541H107.408L107.115 502.089C107.608 501.806 108.165 501.665 108.785 501.665C109.801 501.665 110.589 501.989 111.151 502.639C111.717 503.288 112 504.162 112 505.261C112 506.345 111.688 507.209 111.063 507.854C110.438 508.493 109.581 508.813 108.492 508.813C107.516 508.813 106.705 508.537 106.061 507.985C105.421 507.429 105.074 506.696 105.021 505.788H106.742C106.81 506.306 106.996 506.704 107.298 506.982C107.601 507.255 107.997 507.392 108.485 507.392C109.032 507.392 109.457 507.197 109.759 506.806C110.067 506.416 110.221 505.883 110.221 505.21C110.221 504.56 110.052 504.047 109.715 503.672C109.378 503.291 108.915 503.1 108.324 503.1C108.001 503.1 107.728 503.144 107.503 503.232C107.279 503.315 107.035 503.481 106.771 503.73L105.35 503.379Z" fill="white"/>
<path d="M163 484C163 481.239 165.239 479 168 479H278C280.761 479 283 481.239 283 484V524C283 526.761 280.761 529 278 529H168C165.239 529 163 526.761 163 524V484Z" fill="#1E73FF"/>
<path d="M205.204 508.667H203.424V500.742H205.204V508.667ZM203.314 498.684C203.314 498.41 203.4 498.183 203.571 498.003C203.747 497.822 203.996 497.732 204.318 497.732C204.64 497.732 204.889 497.822 205.065 498.003C205.241 498.183 205.329 498.41 205.329 498.684C205.329 498.952 205.241 499.177 205.065 499.358C204.889 499.533 204.64 499.621 204.318 499.621C203.996 499.621 203.747 499.533 203.571 499.358C203.4 499.177 203.314 498.952 203.314 498.684ZM209.379 498.816V500.742H210.778V502.06H209.379V506.484C209.379 506.787 209.438 507.006 209.555 507.143C209.677 507.275 209.892 507.341 210.199 507.341C210.404 507.341 210.612 507.317 210.822 507.268V508.645C210.417 508.757 210.026 508.813 209.65 508.813C208.283 508.813 207.599 508.059 207.599 506.55V502.06H206.295V500.742H207.599V498.816H209.379ZM215.634 508.813C214.506 508.813 213.59 508.459 212.887 507.751C212.189 507.038 211.84 506.091 211.84 504.909V504.69C211.84 503.899 211.991 503.193 212.294 502.573C212.602 501.948 213.031 501.462 213.583 501.115C214.135 500.769 214.75 500.595 215.429 500.595C216.508 500.595 217.34 500.94 217.926 501.628C218.517 502.317 218.812 503.291 218.812 504.55V505.268H213.634C213.688 505.922 213.905 506.44 214.286 506.821C214.672 507.202 215.155 507.392 215.736 507.392C216.552 507.392 217.216 507.063 217.729 506.403L218.688 507.319C218.371 507.793 217.946 508.161 217.414 508.425C216.886 508.684 216.293 508.813 215.634 508.813ZM215.421 502.024C214.933 502.024 214.538 502.194 214.235 502.536C213.937 502.878 213.747 503.354 213.664 503.964H217.055V503.833C217.016 503.237 216.857 502.788 216.579 502.485C216.3 502.177 215.915 502.024 215.421 502.024ZM221.874 500.742L221.925 501.569C222.482 500.92 223.244 500.595 224.21 500.595C225.27 500.595 225.995 501.001 226.386 501.811C226.962 501.001 227.772 500.595 228.817 500.595C229.691 500.595 230.341 500.837 230.766 501.32C231.195 501.804 231.415 502.517 231.425 503.459V508.667H229.645V503.51C229.645 503.007 229.535 502.639 229.315 502.404C229.096 502.17 228.732 502.053 228.224 502.053C227.819 502.053 227.487 502.163 227.228 502.382C226.974 502.597 226.796 502.88 226.693 503.232L226.701 508.667H224.921V503.452C224.896 502.519 224.42 502.053 223.493 502.053C222.78 502.053 222.274 502.343 221.977 502.924V508.667H220.197V500.742H221.874ZM244.044 508.667H236.874V507.443L240.426 503.569C240.939 502.998 241.303 502.522 241.518 502.141C241.737 501.755 241.847 501.369 241.847 500.984C241.847 500.476 241.703 500.066 241.415 499.753C241.132 499.441 240.749 499.284 240.265 499.284C239.689 499.284 239.242 499.46 238.925 499.812C238.607 500.163 238.449 500.644 238.449 501.255H236.669C236.669 500.605 236.815 500.022 237.108 499.504C237.406 498.982 237.829 498.576 238.375 498.288C238.927 498 239.562 497.856 240.28 497.856C241.315 497.856 242.13 498.117 242.726 498.64C243.327 499.157 243.627 499.875 243.627 500.793C243.627 501.325 243.476 501.884 243.173 502.47C242.875 503.051 242.384 503.713 241.701 504.455L239.093 507.246H244.044V508.667Z" fill="white"/>
<path d="M153.5 415L153.5 531" stroke="#BBBBBB" stroke-dasharray="3 2"/>
<path d="M160.5 415L160.5 531" stroke="#BBBBBB" stroke-dasharray="3 2"/>
<path d="M285.5 415L285.5 531" stroke="#BBBBBB" stroke-dasharray="3 2"/>
<path d="M292.5 415L292.5 531" stroke="#BBBBBB" stroke-dasharray="3 2"/>
<path d="M29 476.5L417 476.5" stroke="#BBBBBB" stroke-dasharray="3 2"/>
<path d="M29 469.5L417 469.5" stroke="#BBBBBB" stroke-dasharray="3 2"/>
<rect x="28" y="414" width="390" height="118" stroke="#AAAAAA" stroke-width="2"/>
<path fill-rule="evenodd" clip-rule="evenodd" d="M343.547 139L334 152L324.453 139L332 139L332 122L336 122L336 139L343.547 139Z" fill="#1E73FF"/>
<path fill-rule="evenodd" clip-rule="evenodd" d="M386.547 135L377 122L367.453 135L375 135L375 152L379 152L379 135L386.547 135Z" fill="#1E73FF"/>
<path fill-rule="evenodd" clip-rule="evenodd" d="M343.547 363L334 376L324.453 363L332 363L332 346L336 346L336 363L343.547 363Z" fill="#1E73FF"/>
<path fill-rule="evenodd" clip-rule="evenodd" d="M386.547 359L377 346L367.453 359L375 359L375 376L379 376L379 359L386.547 359Z" fill="#1E73FF"/>
</svg>
