<svg width="439" height="185" viewBox="0 0 439 185" fill="none" xmlns="http://www.w3.org/2000/svg">
<path d="M0.560547 10.2471C0.560547 9.09863 0.829427 8.18262 1.36719 7.49902C1.90951 6.81087 2.62728 6.4668 3.52051 6.4668C4.36361 6.4668 5.02669 6.76074 5.50977 7.34863L5.58496 6.60352H7.08203V13.7744C7.08203 14.7451 6.77897 15.5107 6.17285 16.0713C5.57129 16.6318 4.75781 16.9121 3.73242 16.9121C3.1901 16.9121 2.65918 16.7982 2.13965 16.5703C1.62467 16.347 1.23275 16.0531 0.963867 15.6885L1.75 14.6904C2.26042 15.2965 2.88932 15.5996 3.63672 15.5996C4.18815 15.5996 4.62337 15.4492 4.94238 15.1484C5.26139 14.8522 5.4209 14.4147 5.4209 13.8359V13.3369C4.94238 13.8701 4.30436 14.1367 3.50684 14.1367C2.64095 14.1367 1.93229 13.7926 1.38086 13.1045C0.833984 12.4163 0.560547 11.4639 0.560547 10.2471ZM2.21484 10.3906C2.21484 11.1335 2.36523 11.7191 2.66602 12.1475C2.97135 12.5713 3.3929 12.7832 3.93066 12.7832C4.60059 12.7832 5.09733 12.4961 5.4209 11.9219V8.66797C5.10645 8.10742 4.61426 7.82715 3.94434 7.82715C3.39746 7.82715 2.97135 8.04362 2.66602 8.47656C2.36523 8.90951 2.21484 9.54753 2.21484 10.3906ZM12.667 8.12109C12.4482 8.08464 12.2227 8.06641 11.9902 8.06641C11.2292 8.06641 10.7165 8.35807 10.4521 8.94141V14H8.79102V6.60352H10.377L10.418 7.43066C10.819 6.78809 11.375 6.4668 12.0859 6.4668C12.3229 6.4668 12.5189 6.4987 12.6738 6.5625L12.667 8.12109ZM15.4834 14H13.8223V6.60352H15.4834V14ZM13.7197 4.68262C13.7197 4.42741 13.7995 4.21549 13.959 4.04688C14.123 3.87826 14.3555 3.79395 14.6562 3.79395C14.957 3.79395 15.1895 3.87826 15.3535 4.04688C15.5176 4.21549 15.5996 4.42741 15.5996 4.68262C15.5996 4.93327 15.5176 5.1429 15.3535 5.31152C15.1895 5.47559 14.957 5.55762 14.6562 5.55762C14.3555 5.55762 14.123 5.47559 13.959 5.31152C13.7995 5.1429 13.7197 4.93327 13.7197 4.68262ZM16.9873 10.2471C16.9873 9.10775 17.2516 8.19401 17.7803 7.50586C18.3089 6.81315 19.0176 6.4668 19.9062 6.4668C20.6901 6.4668 21.3236 6.74023 21.8066 7.28711V3.5H23.4678V14H21.9639L21.8818 13.2344C21.3851 13.8359 20.722 14.1367 19.8926 14.1367C19.0267 14.1367 18.3249 13.7881 17.7871 13.0908C17.2539 12.3936 16.9873 11.4456 16.9873 10.2471ZM18.6484 10.3906C18.6484 11.1426 18.792 11.7305 19.0791 12.1543C19.3708 12.5736 19.7832 12.7832 20.3164 12.7832C20.9954 12.7832 21.4922 12.4801 21.8066 11.874V8.71582C21.5013 8.12337 21.0091 7.82715 20.3301 7.82715C19.7923 7.82715 19.3776 8.04134 19.0859 8.46973C18.7943 8.89355 18.6484 9.53385 18.6484 10.3906ZM31.7256 12.8105C32.1403 12.8105 32.4844 12.6898 32.7578 12.4482C33.0312 12.2067 33.1771 11.9082 33.1953 11.5527H34.7607C34.7425 12.013 34.599 12.4437 34.3301 12.8447C34.0612 13.2412 33.6966 13.5557 33.2363 13.7881C32.776 14.0205 32.2793 14.1367 31.7461 14.1367C30.7116 14.1367 29.8913 13.8018 29.2852 13.1318C28.679 12.4619 28.376 11.5368 28.376 10.3564V10.1855C28.376 9.0599 28.6768 8.15983 29.2783 7.48535C29.8799 6.80632 30.7002 6.4668 31.7393 6.4668C32.6188 6.4668 33.3343 6.72428 33.8857 7.23926C34.4417 7.74967 34.7334 8.42188 34.7607 9.25586H33.1953C33.1771 8.83203 33.0312 8.4834 32.7578 8.20996C32.4889 7.93652 32.1449 7.7998 31.7256 7.7998C31.1878 7.7998 30.7731 7.99577 30.4814 8.3877C30.1898 8.77507 30.0417 9.36523 30.0371 10.1582V10.4248C30.0371 11.2269 30.1807 11.8262 30.4678 12.2227C30.7594 12.6146 31.1787 12.8105 31.7256 12.8105ZM35.7041 10.2334C35.7041 9.50879 35.8477 8.8571 36.1348 8.27832C36.4219 7.69499 36.8252 7.24837 37.3447 6.93848C37.8643 6.62402 38.4613 6.4668 39.1357 6.4668C40.1338 6.4668 40.9427 6.78809 41.5625 7.43066C42.1868 8.07324 42.5241 8.92546 42.5742 9.9873L42.5811 10.377C42.5811 11.1061 42.4398 11.7578 42.1572 12.332C41.8792 12.9062 41.4782 13.3506 40.9541 13.665C40.4346 13.9795 39.833 14.1367 39.1494 14.1367C38.1058 14.1367 37.2695 13.7904 36.6406 13.0977C36.0163 12.4004 35.7041 11.473 35.7041 10.3154V10.2334ZM37.3652 10.377C37.3652 11.138 37.5225 11.735 37.8369 12.168C38.1514 12.5964 38.5889 12.8105 39.1494 12.8105C39.71 12.8105 40.1452 12.5918 40.4551 12.1543C40.7695 11.7168 40.9268 11.0765 40.9268 10.2334C40.9268 9.486 40.765 8.89355 40.4414 8.45605C40.1224 8.01855 39.6872 7.7998 39.1357 7.7998C38.5934 7.7998 38.1628 8.01628 37.8438 8.44922C37.5247 8.8776 37.3652 9.52018 37.3652 10.377ZM45.5273 6.60352L45.5752 7.45801C46.1221 6.7972 46.8398 6.4668 47.7285 6.4668C49.2689 6.4668 50.0527 7.34863 50.0801 9.1123V14H48.4189V9.20801C48.4189 8.73861 48.3164 8.39225 48.1113 8.16895C47.9108 7.94108 47.5804 7.82715 47.1201 7.82715C46.4502 7.82715 45.9512 8.13021 45.623 8.73633V14H43.9619V6.60352H45.5273ZM53.8604 4.80566V6.60352H55.166V7.83398H53.8604V11.9629C53.8604 12.2454 53.915 12.4505 54.0244 12.5781C54.1383 12.7012 54.3389 12.7627 54.626 12.7627C54.8174 12.7627 55.0111 12.7399 55.207 12.6943V13.9795C54.8288 14.0843 54.4642 14.1367 54.1133 14.1367C52.8372 14.1367 52.1992 13.4326 52.1992 12.0244V7.83398H50.9824V6.60352H52.1992V4.80566H53.8604ZM60.8604 14C60.7874 13.8587 60.7236 13.6286 60.6689 13.3096C60.1403 13.861 59.4932 14.1367 58.7275 14.1367C57.9847 14.1367 57.3786 13.9248 56.9092 13.501C56.4398 13.0771 56.2051 12.5531 56.2051 11.9287C56.2051 11.1403 56.4967 10.5365 57.0801 10.1172C57.668 9.69336 58.5065 9.48145 59.5957 9.48145H60.6143V8.99609C60.6143 8.61328 60.5072 8.30794 60.293 8.08008C60.0788 7.84766 59.7529 7.73145 59.3154 7.73145C58.9372 7.73145 58.6273 7.82715 58.3857 8.01855C58.1442 8.2054 58.0234 8.44466 58.0234 8.73633H56.3623C56.3623 8.33073 56.4967 7.95247 56.7656 7.60156C57.0345 7.24609 57.3991 6.9681 57.8594 6.76758C58.3242 6.56706 58.8415 6.4668 59.4111 6.4668C60.277 6.4668 60.9674 6.68555 61.4824 7.12305C61.9974 7.55599 62.2617 8.16667 62.2754 8.95508V12.291C62.2754 12.9564 62.3688 13.4873 62.5557 13.8838V14H60.8604ZM59.0352 12.8037C59.3633 12.8037 59.6709 12.724 59.958 12.5645C60.2497 12.4049 60.4684 12.1908 60.6143 11.9219V10.5273H59.7188C59.1035 10.5273 58.641 10.6344 58.3311 10.8486C58.0212 11.0628 57.8662 11.3659 57.8662 11.7578C57.8662 12.0768 57.971 12.332 58.1807 12.5234C58.3949 12.7103 58.6797 12.8037 59.0352 12.8037ZM65.7822 14H64.1211V6.60352H65.7822V14ZM64.0186 4.68262C64.0186 4.42741 64.0983 4.21549 64.2578 4.04688C64.4219 3.87826 64.6543 3.79395 64.9551 3.79395C65.2559 3.79395 65.4883 3.87826 65.6523 4.04688C65.8164 4.21549 65.8984 4.42741 65.8984 4.68262C65.8984 4.93327 65.8164 5.1429 65.6523 5.31152C65.4883 5.47559 65.2559 5.55762 64.9551 5.55762C64.6543 5.55762 64.4219 5.47559 64.2578 5.31152C64.0983 5.1429 64.0186 4.93327 64.0186 4.68262ZM69.1387 6.60352L69.1865 7.45801C69.7334 6.7972 70.4512 6.4668 71.3398 6.4668C72.8802 6.4668 73.6641 7.34863 73.6914 9.1123V14H72.0303V9.20801C72.0303 8.73861 71.9277 8.39225 71.7227 8.16895C71.5221 7.94108 71.1917 7.82715 70.7314 7.82715C70.0615 7.82715 69.5625 8.13021 69.2344 8.73633V14H67.5732V6.60352H69.1387ZM78.6475 14.1367C77.5947 14.1367 76.7402 13.8063 76.084 13.1455C75.4323 12.4801 75.1064 11.596 75.1064 10.4932V10.2881C75.1064 9.5498 75.2477 8.89128 75.5303 8.3125C75.8174 7.72917 76.2184 7.27572 76.7334 6.95215C77.2484 6.62858 77.8226 6.4668 78.4561 6.4668C79.4632 6.4668 80.2402 6.78809 80.7871 7.43066C81.3385 8.07324 81.6143 8.98242 81.6143 10.1582V10.8281H76.7812C76.8314 11.4388 77.0342 11.9219 77.3896 12.2773C77.7497 12.6328 78.2008 12.8105 78.7432 12.8105C79.5042 12.8105 80.124 12.5029 80.6025 11.8877L81.498 12.7422C81.2018 13.1842 80.8053 13.5283 80.3086 13.7744C79.8164 14.016 79.2627 14.1367 78.6475 14.1367ZM78.4492 7.7998C77.9935 7.7998 77.6243 7.95931 77.3418 8.27832C77.0638 8.59733 76.8861 9.04167 76.8086 9.61133H79.9736V9.48828C79.9372 8.93229 79.7891 8.51302 79.5293 8.23047C79.2695 7.94336 78.9095 7.7998 78.4492 7.7998ZM86.7822 8.12109C86.5635 8.08464 86.3379 8.06641 86.1055 8.06641C85.3444 8.06641 84.8317 8.35807 84.5674 8.94141V14H82.9062V6.60352H84.4922L84.5332 7.43066C84.9342 6.78809 85.4902 6.4668 86.2012 6.4668C86.4382 6.4668 86.6341 6.4987 86.7891 6.5625L86.7822 8.12109Z" fill="#BBBBBB"/>
<rect x="1" y="29" width="437" height="155" rx="5" fill="#EEEEEE" stroke="#AAAAAA" stroke-width="2" stroke-dasharray="6 4"/>
<path d="M2 34C2 31.7909 3.79086 30 6 30H433C435.209 30 437 31.7909 437 34V101H2V34Z" fill="white"/>
<path d="M110.5 32L110.5 181" stroke="#AAAAAA" stroke-dasharray="4 2"/>
<path d="M219.5 32L219.5 181" stroke="#AAAAAA" stroke-dasharray="4 2"/>
<path d="M328.5 32L328.5 181" stroke="#AAAAAA" stroke-dasharray="4 2"/>
<path d="M435 101.5L4 101.5" stroke="#AAAAAA" stroke-dasharray="4 2"/>
<path d="M435 142.5L4.00001 142.5" stroke="#AAAAAA" stroke-dasharray="4 2"/>
<g opacity="0.75">
<path d="M6 38C6 35.7909 7.79086 34 10 34H62C64.2091 34 66 35.7909 66 38V93C66 95.2091 64.2091 97 62 97H10C7.79086 97 6 95.2091 6 93V38Z" fill="#1E73FF"/>
<path d="M25.6069 67.5867C25.6069 67.2693 25.4751 67.0276 25.2114 66.8616C24.9526 66.6956 24.5205 66.5491 23.915 66.4221C23.3096 66.2952 22.8042 66.134 22.3989 65.9387C21.5103 65.509 21.0659 64.8865 21.0659 64.071C21.0659 63.3875 21.354 62.8162 21.9302 62.3572C22.5063 61.8982 23.2388 61.6687 24.1274 61.6687C25.0747 61.6687 25.8389 61.9031 26.4199 62.3718C27.0059 62.8406 27.2988 63.4485 27.2988 64.1956H25.519C25.519 63.8538 25.3921 63.5706 25.1382 63.3459C24.8843 63.1165 24.5474 63.0017 24.1274 63.0017C23.7368 63.0017 23.417 63.092 23.168 63.2727C22.9238 63.4534 22.8018 63.6951 22.8018 63.9978C22.8018 64.2712 22.9165 64.4836 23.146 64.635C23.3755 64.7864 23.8394 64.9402 24.5376 65.0964C25.2358 65.2478 25.7827 65.4309 26.1782 65.6458C26.5786 65.8557 26.874 66.1096 27.0645 66.4075C27.2598 66.7053 27.3574 67.0667 27.3574 67.4915C27.3574 68.2043 27.062 68.783 26.4712 69.2273C25.8804 69.6667 25.1064 69.8865 24.1494 69.8865C23.5 69.8865 22.9214 69.7693 22.4136 69.5349C21.9058 69.3005 21.5103 68.9783 21.2271 68.5681C20.9438 68.158 20.8022 67.7161 20.8022 67.2424H22.5308C22.5552 67.6624 22.7139 67.9871 23.0068 68.2166C23.2998 68.4412 23.688 68.5535 24.1714 68.5535C24.6401 68.5535 24.9966 68.4656 25.2407 68.2898C25.4849 68.1091 25.6069 67.8748 25.6069 67.5867ZM31.144 59.8889V61.8152H32.543V63.1335H31.144V67.5574C31.144 67.8601 31.2026 68.0798 31.3198 68.2166C31.4419 68.3484 31.6567 68.4143 31.9644 68.4143C32.1694 68.4143 32.377 68.3899 32.5869 68.3411V69.718C32.1816 69.8303 31.791 69.8865 31.415 69.8865C30.0479 69.8865 29.3643 69.1321 29.3643 67.6233V63.1335H28.0605V61.8152H29.3643V59.8889H31.144ZM38.644 69.74C38.5659 69.5886 38.4976 69.342 38.439 69.0002C37.8726 69.5911 37.1792 69.8865 36.3589 69.8865C35.563 69.8865 34.9136 69.6594 34.4106 69.2053C33.9077 68.7512 33.6562 68.1897 33.6562 67.5208C33.6562 66.676 33.9688 66.0291 34.5938 65.5798C35.2236 65.1257 36.1221 64.8987 37.2891 64.8987H38.3804V64.3787C38.3804 63.9685 38.2656 63.6414 38.0361 63.3972C37.8066 63.1482 37.4575 63.0237 36.9888 63.0237C36.5835 63.0237 36.2515 63.1262 35.9927 63.3313C35.7339 63.5315 35.6045 63.7878 35.6045 64.1003H33.8247C33.8247 63.6658 33.9688 63.2605 34.2568 62.8845C34.5449 62.5037 34.9355 62.2058 35.4287 61.991C35.9268 61.7761 36.481 61.6687 37.0913 61.6687C38.019 61.6687 38.7588 61.9031 39.3105 62.3718C39.8623 62.8357 40.1455 63.49 40.1602 64.3347V67.9089C40.1602 68.6218 40.2603 69.1907 40.4604 69.6155V69.74H38.644ZM36.6885 68.4583C37.04 68.4583 37.3696 68.3728 37.6772 68.2019C37.9897 68.031 38.2241 67.8015 38.3804 67.5134V66.0193H37.4209C36.7617 66.0193 36.2661 66.134 35.9341 66.3635C35.6021 66.593 35.436 66.9177 35.436 67.3376C35.436 67.6794 35.5483 67.9529 35.7729 68.158C36.0024 68.3582 36.3076 68.4583 36.6885 68.4583ZM46.1733 63.4412C45.939 63.4021 45.6973 63.3826 45.4482 63.3826C44.6328 63.3826 44.0835 63.6951 43.8003 64.3201V69.74H42.0205V61.8152H43.7197L43.7637 62.7014C44.1934 62.0129 44.7891 61.6687 45.5508 61.6687C45.8047 61.6687 46.0146 61.7029 46.1807 61.7712L46.1733 63.4412ZM49.894 59.8889V61.8152H51.293V63.1335H49.894V67.5574C49.894 67.8601 49.9526 68.0798 50.0698 68.2166C50.1919 68.3484 50.4067 68.4143 50.7144 68.4143C50.9194 68.4143 51.127 68.3899 51.3369 68.3411V69.718C50.9316 69.8303 50.541 69.8865 50.165 69.8865C48.7979 69.8865 48.1143 69.1321 48.1143 67.6233V63.1335H46.8105V61.8152H48.1143V59.8889H49.894Z" fill="white"/>
</g>
<g opacity="0.75">
<path d="M135 38C135 35.7909 136.791 34 139 34H191C193.209 34 195 35.7909 195 38V93C195 95.2091 193.209 97 191 97H139C136.791 97 135 95.2091 135 93V38Z" fill="#1E73FF"/>
<path d="M148.376 68.4656C148.82 68.4656 149.189 68.3362 149.482 68.0774C149.775 67.8186 149.931 67.4988 149.951 67.1179H151.628C151.608 67.6111 151.455 68.0725 151.167 68.5022C150.878 68.927 150.488 69.2639 149.995 69.5129C149.501 69.762 148.969 69.8865 148.398 69.8865C147.29 69.8865 146.411 69.5276 145.761 68.8098C145.112 68.092 144.787 67.1008 144.787 65.8362V65.6531C144.787 64.447 145.109 63.4827 145.754 62.76C146.398 62.0325 147.277 61.6687 148.391 61.6687C149.333 61.6687 150.1 61.9446 150.69 62.4963C151.286 63.0432 151.599 63.7634 151.628 64.657H149.951C149.931 64.2029 149.775 63.8293 149.482 63.5364C149.194 63.2434 148.825 63.0969 148.376 63.0969C147.8 63.0969 147.355 63.3069 147.043 63.7268C146.73 64.1418 146.572 64.7742 146.567 65.6238V65.9094C146.567 66.7688 146.721 67.4109 147.028 67.8357C147.341 68.2556 147.79 68.4656 148.376 68.4656ZM156.462 69.8865C155.334 69.8865 154.418 69.5325 153.715 68.8245C153.017 68.1116 152.668 67.1643 152.668 65.9827V65.7629C152.668 64.9719 152.819 64.2664 153.122 63.6462C153.43 63.0212 153.859 62.5354 154.411 62.1887C154.963 61.842 155.578 61.6687 156.257 61.6687C157.336 61.6687 158.168 62.0129 158.754 62.7014C159.345 63.3899 159.641 64.364 159.641 65.6238V66.3416H154.462C154.516 66.9958 154.733 67.5134 155.114 67.8943C155.5 68.2751 155.983 68.4656 156.564 68.4656C157.38 68.4656 158.044 68.136 158.557 67.4768L159.516 68.3923C159.199 68.866 158.774 69.2346 158.242 69.4983C157.714 69.7571 157.121 69.8865 156.462 69.8865ZM156.25 63.0969C155.761 63.0969 155.366 63.2678 155.063 63.6096C154.765 63.9514 154.575 64.4275 154.492 65.0378H157.883V64.906C157.844 64.3103 157.685 63.8611 157.407 63.5583C157.128 63.2507 156.743 63.0969 156.25 63.0969ZM162.68 61.8152L162.731 62.7307C163.317 62.0227 164.086 61.6687 165.039 61.6687C166.689 61.6687 167.529 62.6135 167.558 64.5032V69.74H165.778V64.6057C165.778 64.1028 165.668 63.7317 165.449 63.4924C165.234 63.2483 164.88 63.1262 164.387 63.1262C163.669 63.1262 163.134 63.4509 162.783 64.1003V69.74H161.003V61.8152H162.68ZM171.608 59.8889V61.8152H173.007V63.1335H171.608V67.5574C171.608 67.8601 171.667 68.0798 171.784 68.2166C171.906 68.3484 172.121 68.4143 172.429 68.4143C172.634 68.4143 172.841 68.3899 173.051 68.3411V69.718C172.646 69.8303 172.255 69.8865 171.879 69.8865C170.512 69.8865 169.829 69.1321 169.829 67.6233V63.1335H168.525V61.8152H169.829V59.8889H171.608ZM177.863 69.8865C176.735 69.8865 175.82 69.5325 175.117 68.8245C174.418 68.1116 174.069 67.1643 174.069 65.9827V65.7629C174.069 64.9719 174.221 64.2664 174.523 63.6462C174.831 63.0212 175.261 62.5354 175.812 62.1887C176.364 61.842 176.979 61.6687 177.658 61.6687C178.737 61.6687 179.57 62.0129 180.156 62.7014C180.747 63.3899 181.042 64.364 181.042 65.6238V66.3416H175.864C175.917 66.9958 176.135 67.5134 176.516 67.8943C176.901 68.2751 177.385 68.4656 177.966 68.4656C178.781 68.4656 179.445 68.136 179.958 67.4768L180.917 68.3923C180.6 68.866 180.175 69.2346 179.643 69.4983C179.116 69.7571 178.522 69.8865 177.863 69.8865ZM177.651 63.0969C177.163 63.0969 176.767 63.2678 176.464 63.6096C176.167 63.9514 175.976 64.4275 175.893 65.0378H179.284V64.906C179.245 64.3103 179.086 63.8611 178.808 63.5583C178.53 63.2507 178.144 63.0969 177.651 63.0969ZM186.579 63.4412C186.345 63.4021 186.103 63.3826 185.854 63.3826C185.039 63.3826 184.489 63.6951 184.206 64.3201V69.74H182.426V61.8152H184.125L184.169 62.7014C184.599 62.0129 185.195 61.6687 185.957 61.6687C186.21 61.6687 186.42 61.7029 186.586 61.7712L186.579 63.4412Z" fill="white"/>
</g>
<g opacity="0.75">
<path d="M263 38C263 35.7909 264.791 34 267 34H319C321.209 34 323 35.7909 323 38V93C323 95.2091 321.209 97 319 97H267C264.791 97 263 95.2091 263 93V38Z" fill="#1E73FF"/>
<path d="M285.465 69.8865C284.337 69.8865 283.422 69.5325 282.719 68.8245C282.021 68.1116 281.671 67.1643 281.671 65.9827V65.7629C281.671 64.9719 281.823 64.2664 282.125 63.6462C282.433 63.0212 282.863 62.5354 283.415 62.1887C283.966 61.842 284.582 61.6687 285.26 61.6687C286.339 61.6687 287.172 62.0129 287.758 62.7014C288.349 63.3899 288.644 64.364 288.644 65.6238V66.3416H283.466C283.52 66.9958 283.737 67.5134 284.118 67.8943C284.503 68.2751 284.987 68.4656 285.568 68.4656C286.383 68.4656 287.047 68.136 287.56 67.4768L288.52 68.3923C288.202 68.866 287.777 69.2346 287.245 69.4983C286.718 69.7571 286.125 69.8865 285.465 69.8865ZM285.253 63.0969C284.765 63.0969 284.369 63.2678 284.066 63.6096C283.769 63.9514 283.578 64.4275 283.495 65.0378H286.886V64.906C286.847 64.3103 286.688 63.8611 286.41 63.5583C286.132 63.2507 285.746 63.0969 285.253 63.0969ZM291.684 61.8152L291.735 62.7307C292.321 62.0227 293.09 61.6687 294.042 61.6687C295.692 61.6687 296.532 62.6135 296.562 64.5032V69.74H294.782V64.6057C294.782 64.1028 294.672 63.7317 294.452 63.4924C294.237 63.2483 293.883 63.1262 293.39 63.1262C292.672 63.1262 292.138 63.4509 291.786 64.1003V69.74H290.006V61.8152H291.684ZM298.048 65.719C298.048 64.4983 298.332 63.5193 298.898 62.782C299.464 62.0398 300.224 61.6687 301.176 61.6687C302.016 61.6687 302.694 61.9617 303.212 62.5476V58.49H304.992V69.74H303.38L303.292 68.9197C302.76 69.5642 302.05 69.8865 301.161 69.8865C300.233 69.8865 299.481 69.5129 298.905 68.7659C298.334 68.0188 298.048 67.0032 298.048 65.719ZM299.828 65.8728C299.828 66.6785 299.982 67.3083 300.29 67.7625C300.602 68.2117 301.044 68.4363 301.615 68.4363C302.343 68.4363 302.875 68.1116 303.212 67.4622V64.0784C302.885 63.4436 302.357 63.1262 301.63 63.1262C301.054 63.1262 300.609 63.3557 300.297 63.8147C299.984 64.2688 299.828 64.9548 299.828 65.8728Z" fill="white"/>
</g>
<g opacity="0.75">
<path d="M333 38C333 35.7909 334.791 34 337 34H429C431.209 34 433 35.7909 433 38V93C433 95.2091 431.209 97 429 97H337C334.791 97 333 95.2091 333 93V38Z" fill="#1E73FF"/>
<path d="M364.799 67.5867C364.799 67.2693 364.667 67.0276 364.404 66.8616C364.145 66.6956 363.713 66.5491 363.107 66.4221C362.502 66.2952 361.997 66.134 361.591 65.9387C360.703 65.509 360.258 64.8865 360.258 64.071C360.258 63.3875 360.546 62.8162 361.123 62.3572C361.699 61.8982 362.431 61.6687 363.32 61.6687C364.267 61.6687 365.031 61.9031 365.612 62.3718C366.198 62.8406 366.491 63.4485 366.491 64.1956H364.711C364.711 63.8538 364.584 63.5706 364.331 63.3459C364.077 63.1165 363.74 63.0017 363.32 63.0017C362.929 63.0017 362.609 63.092 362.36 63.2727C362.116 63.4534 361.994 63.6951 361.994 63.9978C361.994 64.2712 362.109 64.4836 362.338 64.635C362.568 64.7864 363.032 64.9402 363.73 65.0964C364.428 65.2478 364.975 65.4309 365.371 65.6458C365.771 65.8557 366.066 66.1096 366.257 66.4075C366.452 66.7053 366.55 67.0667 366.55 67.4915C366.55 68.2043 366.254 68.783 365.664 69.2273C365.073 69.6667 364.299 69.8865 363.342 69.8865C362.692 69.8865 362.114 69.7693 361.606 69.5349C361.098 69.3005 360.703 68.9783 360.419 68.5681C360.136 68.158 359.995 67.7161 359.995 67.2424H361.723C361.748 67.6624 361.906 67.9871 362.199 68.2166C362.492 68.4412 362.88 68.5535 363.364 68.5535C363.833 68.5535 364.189 68.4656 364.433 68.2898C364.677 68.1091 364.799 67.8748 364.799 67.5867ZM370.336 59.8889V61.8152H371.735V63.1335H370.336V67.5574C370.336 67.8601 370.395 68.0798 370.512 68.2166C370.634 68.3484 370.849 68.4143 371.157 68.4143C371.362 68.4143 371.569 68.3899 371.779 68.3411V69.718C371.374 69.8303 370.983 69.8865 370.607 69.8865C369.24 69.8865 368.557 69.1321 368.557 67.6233V63.1335H367.253V61.8152H368.557V59.8889H370.336ZM377.25 63.4412C377.016 63.4021 376.774 63.3826 376.525 63.3826C375.71 63.3826 375.161 63.6951 374.877 64.3201V69.74H373.098V61.8152H374.797L374.841 62.7014C375.271 62.0129 375.866 61.6687 376.628 61.6687C376.882 61.6687 377.092 61.7029 377.258 61.7712L377.25 63.4412ZM381.718 69.8865C380.59 69.8865 379.675 69.5325 378.972 68.8245C378.273 68.1116 377.924 67.1643 377.924 65.9827V65.7629C377.924 64.9719 378.076 64.2664 378.378 63.6462C378.686 63.0212 379.116 62.5354 379.667 62.1887C380.219 61.842 380.834 61.6687 381.513 61.6687C382.592 61.6687 383.425 62.0129 384.011 62.7014C384.602 63.3899 384.897 64.364 384.897 65.6238V66.3416H379.719C379.772 66.9958 379.99 67.5134 380.371 67.8943C380.756 68.2751 381.24 68.4656 381.821 68.4656C382.636 68.4656 383.3 68.136 383.813 67.4768L384.772 68.3923C384.455 68.866 384.03 69.2346 383.498 69.4983C382.971 69.7571 382.377 69.8865 381.718 69.8865ZM381.506 63.0969C381.018 63.0969 380.622 63.2678 380.319 63.6096C380.021 63.9514 379.831 64.4275 379.748 65.0378H383.139V64.906C383.1 64.3103 382.941 63.8611 382.663 63.5583C382.385 63.2507 381.999 63.0969 381.506 63.0969ZM388.515 59.8889V61.8152H389.914V63.1335H388.515V67.5574C388.515 67.8601 388.574 68.0798 388.691 68.2166C388.813 68.3484 389.028 68.4143 389.335 68.4143C389.541 68.4143 389.748 68.3899 389.958 68.3411V69.718C389.553 69.8303 389.162 69.8865 388.786 69.8865C387.419 69.8865 386.735 69.1321 386.735 67.6233V63.1335H385.432V61.8152H386.735V59.8889H388.515ZM394.536 68.4656C394.98 68.4656 395.349 68.3362 395.642 68.0774C395.935 67.8186 396.091 67.4988 396.11 67.1179H397.788C397.768 67.6111 397.614 68.0725 397.326 68.5022C397.038 68.927 396.647 69.2639 396.154 69.5129C395.661 69.762 395.129 69.8865 394.558 69.8865C393.449 69.8865 392.57 69.5276 391.921 68.8098C391.271 68.092 390.947 67.1008 390.947 65.8362V65.6531C390.947 64.447 391.269 63.4827 391.914 62.76C392.558 62.0325 393.437 61.6687 394.55 61.6687C395.493 61.6687 396.259 61.9446 396.85 62.4963C397.446 63.0432 397.758 63.7634 397.788 64.657H396.11C396.091 64.2029 395.935 63.8293 395.642 63.5364C395.354 63.2434 394.985 63.0969 394.536 63.0969C393.959 63.0969 393.515 63.3069 393.203 63.7268C392.89 64.1418 392.731 64.7742 392.727 65.6238V65.9094C392.727 66.7688 392.88 67.4109 393.188 67.8357C393.5 68.2556 393.95 68.4656 394.536 68.4656ZM400.886 62.6794C401.467 62.0056 402.202 61.6687 403.09 61.6687C404.78 61.6687 405.637 62.6331 405.661 64.5618V69.74H403.881V64.6277C403.881 64.0808 403.762 63.6951 403.522 63.4705C403.288 63.241 402.941 63.1262 402.482 63.1262C401.77 63.1262 401.237 63.4436 400.886 64.0784V69.74H399.106V58.49H400.886V62.6794Z" fill="white"/>
</g>
</svg>
