<svg width="425" height="184" viewBox="0 0 425 184" fill="none" xmlns="http://www.w3.org/2000/svg">
<rect x="2" y="47" width="158" height="108" fill="#F7F7F7" stroke="#AAAAAA" stroke-width="2" stroke-dasharray="6 4"/>
<path d="M6.63965 4.81934C6.1748 4.75553 5.77376 4.72363 5.43652 4.72363C4.54329 4.72363 4.09668 5.1429 4.09668 5.98145V6.60352H5.60059V7.83398H4.09668V14H2.43555V7.83398H1.30762V6.60352H2.43555V5.94043C2.4401 5.10645 2.6862 4.46842 3.17383 4.02637C3.66602 3.57975 4.35872 3.35645 5.25195 3.35645C5.80794 3.35645 6.82422 3.46582 8.30078 3.68457V14H6.63965V4.81934ZM13.3936 14.1367C12.3408 14.1367 11.4863 13.8063 10.8301 13.1455C10.1784 12.4801 9.85254 11.596 9.85254 10.4932V10.2881C9.85254 9.5498 9.99382 8.89128 10.2764 8.3125C10.5635 7.72917 10.9645 7.27572 11.4795 6.95215C11.9945 6.62858 12.5687 6.4668 13.2021 6.4668C14.2093 6.4668 14.9863 6.78809 15.5332 7.43066C16.0846 8.07324 16.3604 8.98242 16.3604 10.1582V10.8281H11.5273C11.5775 11.4388 11.7803 11.9219 12.1357 12.2773C12.4958 12.6328 12.9469 12.8105 13.4893 12.8105C14.2503 12.8105 14.8701 12.5029 15.3486 11.8877L16.2441 12.7422C15.9479 13.1842 15.5514 13.5283 15.0547 13.7744C14.5625 14.016 14.0088 14.1367 13.3936 14.1367ZM13.1953 7.7998C12.7396 7.7998 12.3704 7.95931 12.0879 8.27832C11.8099 8.59733 11.6322 9.04167 11.5547 9.61133H14.7197V9.48828C14.6833 8.93229 14.5352 8.51302 14.2754 8.23047C14.0156 7.94336 13.6556 7.7998 13.1953 7.7998ZM20.3115 9.03711L21.7197 6.60352H23.5654L21.3027 10.2471L23.6406 14H21.8086L20.332 11.4707L18.8623 14H17.0166L19.3545 10.2471L17.0986 6.60352H18.9307L20.3115 9.03711ZM27.9199 10.4385H24.3311V9.09863H27.9199V10.4385ZM28.9795 10.2471C28.9795 9.10775 29.2438 8.19401 29.7725 7.50586C30.3011 6.81315 31.0098 6.4668 31.8984 6.4668C32.6823 6.4668 33.3158 6.74023 33.7988 7.28711V3.5H35.46V14H33.9561L33.874 13.2344C33.3773 13.8359 32.7142 14.1367 31.8848 14.1367C31.0189 14.1367 30.3171 13.7881 29.7793 13.0908C29.2461 12.3936 28.9795 11.4456 28.9795 10.2471ZM30.6406 10.3906C30.6406 11.1426 30.7842 11.7305 31.0713 12.1543C31.363 12.5736 31.7754 12.7832 32.3086 12.7832C32.9876 12.7832 33.4844 12.4801 33.7988 11.874V8.71582C33.4935 8.12337 33.0013 7.82715 32.3223 7.82715C31.7845 7.82715 31.3698 8.04134 31.0781 8.46973C30.7865 8.89355 30.6406 9.53385 30.6406 10.3906ZM38.96 14H37.2988V6.60352H38.96V14ZM37.1963 4.68262C37.1963 4.42741 37.276 4.21549 37.4355 4.04688C37.5996 3.87826 37.832 3.79395 38.1328 3.79395C38.4336 3.79395 38.666 3.87826 38.8301 4.04688C38.9941 4.21549 39.0762 4.42741 39.0762 4.68262C39.0762 4.93327 38.9941 5.1429 38.8301 5.31152C38.666 5.47559 38.4336 5.55762 38.1328 5.55762C37.832 5.55762 37.5996 5.47559 37.4355 5.31152C37.276 5.1429 37.1963 4.93327 37.1963 4.68262ZM44.6475 8.12109C44.4287 8.08464 44.2031 8.06641 43.9707 8.06641C43.2096 8.06641 42.6969 8.35807 42.4326 8.94141V14H40.7715V6.60352H42.3574L42.3984 7.43066C42.7995 6.78809 43.3555 6.4668 44.0664 6.4668C44.3034 6.4668 44.4993 6.4987 44.6543 6.5625L44.6475 8.12109ZM48.8174 14.1367C47.7646 14.1367 46.9102 13.8063 46.2539 13.1455C45.6022 12.4801 45.2764 11.596 45.2764 10.4932V10.2881C45.2764 9.5498 45.4176 8.89128 45.7002 8.3125C45.9873 7.72917 46.3883 7.27572 46.9033 6.95215C47.4183 6.62858 47.9925 6.4668 48.626 6.4668C49.6331 6.4668 50.4102 6.78809 50.957 7.43066C51.5085 8.07324 51.7842 8.98242 51.7842 10.1582V10.8281H46.9512C47.0013 11.4388 47.2041 11.9219 47.5596 12.2773C47.9196 12.6328 48.3708 12.8105 48.9131 12.8105C49.6742 12.8105 50.2939 12.5029 50.7725 11.8877L51.668 12.7422C51.3717 13.1842 50.9753 13.5283 50.4785 13.7744C49.9863 14.016 49.4326 14.1367 48.8174 14.1367ZM48.6191 7.7998C48.1634 7.7998 47.7943 7.95931 47.5117 8.27832C47.2337 8.59733 47.056 9.04167 46.9785 9.61133H50.1436V9.48828C50.1071 8.93229 49.959 8.51302 49.6992 8.23047C49.4395 7.94336 49.0794 7.7998 48.6191 7.7998ZM56.1182 12.8105C56.5329 12.8105 56.877 12.6898 57.1504 12.4482C57.4238 12.2067 57.5697 11.9082 57.5879 11.5527H59.1533C59.1351 12.013 58.9915 12.4437 58.7227 12.8447C58.4538 13.2412 58.0892 13.5557 57.6289 13.7881C57.1686 14.0205 56.6719 14.1367 56.1387 14.1367C55.1042 14.1367 54.2839 13.8018 53.6777 13.1318C53.0716 12.4619 52.7686 11.5368 52.7686 10.3564V10.1855C52.7686 9.0599 53.0693 8.15983 53.6709 7.48535C54.2725 6.80632 55.0928 6.4668 56.1318 6.4668C57.0114 6.4668 57.7269 6.72428 58.2783 7.23926C58.8343 7.74967 59.126 8.42188 59.1533 9.25586H57.5879C57.5697 8.83203 57.4238 8.4834 57.1504 8.20996C56.8815 7.93652 56.5374 7.7998 56.1182 7.7998C55.5804 7.7998 55.1657 7.99577 54.874 8.3877C54.5824 8.77507 54.4342 9.36523 54.4297 10.1582V10.4248C54.4297 11.2269 54.5732 11.8262 54.8604 12.2227C55.152 12.6146 55.5713 12.8105 56.1182 12.8105ZM62.4893 4.80566V6.60352H63.7949V7.83398H62.4893V11.9629C62.4893 12.2454 62.5439 12.4505 62.6533 12.5781C62.7673 12.7012 62.9678 12.7627 63.2549 12.7627C63.4463 12.7627 63.64 12.7399 63.8359 12.6943V13.9795C63.4577 14.0843 63.0931 14.1367 62.7422 14.1367C61.4661 14.1367 60.8281 13.4326 60.8281 12.0244V7.83398H59.6113V6.60352H60.8281V4.80566H62.4893ZM66.8369 14H65.1758V6.60352H66.8369V14ZM65.0732 4.68262C65.0732 4.42741 65.153 4.21549 65.3125 4.04688C65.4766 3.87826 65.709 3.79395 66.0098 3.79395C66.3105 3.79395 66.543 3.87826 66.707 4.04688C66.8711 4.21549 66.9531 4.42741 66.9531 4.68262C66.9531 4.93327 66.8711 5.1429 66.707 5.31152C66.543 5.47559 66.3105 5.55762 66.0098 5.55762C65.709 5.55762 65.4766 5.47559 65.3125 5.31152C65.153 5.1429 65.0732 4.93327 65.0732 4.68262ZM68.3408 10.2334C68.3408 9.50879 68.4844 8.8571 68.7715 8.27832C69.0586 7.69499 69.4619 7.24837 69.9814 6.93848C70.501 6.62402 71.098 6.4668 71.7725 6.4668C72.7705 6.4668 73.5794 6.78809 74.1992 7.43066C74.8236 8.07324 75.1608 8.92546 75.2109 9.9873L75.2178 10.377C75.2178 11.1061 75.0765 11.7578 74.7939 12.332C74.516 12.9062 74.1149 13.3506 73.5908 13.665C73.0713 13.9795 72.4697 14.1367 71.7861 14.1367C70.7425 14.1367 69.9062 13.7904 69.2773 13.0977C68.653 12.4004 68.3408 11.473 68.3408 10.3154V10.2334ZM70.002 10.377C70.002 11.138 70.1592 11.735 70.4736 12.168C70.7881 12.5964 71.2256 12.8105 71.7861 12.8105C72.3467 12.8105 72.7819 12.5918 73.0918 12.1543C73.4062 11.7168 73.5635 11.0765 73.5635 10.2334C73.5635 9.486 73.4017 8.89355 73.0781 8.45605C72.7591 8.01855 72.3239 7.7998 71.7725 7.7998C71.2301 7.7998 70.7995 8.01628 70.4805 8.44922C70.1615 8.8776 70.002 9.52018 70.002 10.377ZM78.1641 6.60352L78.2119 7.45801C78.7588 6.7972 79.4766 6.4668 80.3652 6.4668C81.9056 6.4668 82.6895 7.34863 82.7168 9.1123V14H81.0557V9.20801C81.0557 8.73861 80.9531 8.39225 80.748 8.16895C80.5475 7.94108 80.2171 7.82715 79.7568 7.82715C79.0869 7.82715 78.5879 8.13021 78.2598 8.73633V14H76.5986V6.60352H78.1641ZM85.417 12.25C85.7269 12.25 85.9661 12.3389 86.1348 12.5166C86.3034 12.6898 86.3877 12.9085 86.3877 13.1729C86.3877 13.4326 86.3034 13.6491 86.1348 13.8223C85.9661 13.9909 85.7269 14.0752 85.417 14.0752C85.1208 14.0752 84.8861 13.9909 84.7129 13.8223C84.5397 13.6536 84.4531 13.4372 84.4531 13.1729C84.4531 12.9085 84.5374 12.6898 84.7061 12.5166C84.8747 12.3389 85.1117 12.25 85.417 12.25ZM85.417 6.44629C85.7269 6.44629 85.9661 6.53516 86.1348 6.71289C86.3034 6.88607 86.3877 7.10482 86.3877 7.36914C86.3877 7.62891 86.3034 7.84538 86.1348 8.01855C85.9661 8.18717 85.7269 8.27148 85.417 8.27148C85.1208 8.27148 84.8861 8.18717 84.7129 8.01855C84.5397 7.84993 84.4531 7.63346 84.4531 7.36914C84.4531 7.10482 84.5374 6.88607 84.7061 6.71289C84.8747 6.53516 85.1117 6.44629 85.417 6.44629ZM115.529 6.44629C115.839 6.44629 116.078 6.53516 116.247 6.71289C116.416 6.88607 116.5 7.10482 116.5 7.36914C116.5 7.62891 116.416 7.84538 116.247 8.01855C116.078 8.18717 115.839 8.27148 115.529 8.27148C115.233 8.27148 114.998 8.18717 114.825 8.01855C114.652 7.84993 114.565 7.63346 114.565 7.36914C114.565 7.10482 114.65 6.88607 114.818 6.71289C114.987 6.53516 115.224 6.44629 115.529 6.44629ZM115.03 16.2422L114.135 15.709C114.399 15.2943 114.579 14.932 114.675 14.6221C114.775 14.3167 114.827 14.0046 114.832 13.6855V12.3936H116.329L116.322 13.5898C116.318 14.0729 116.195 14.556 115.953 15.0391C115.716 15.5267 115.409 15.9277 115.03 16.2422ZM3.58398 24.6035V32.6562C3.58398 33.4128 3.39486 33.9893 3.0166 34.3857C2.6429 34.7868 2.09375 34.9873 1.36914 34.9873C1.0638 34.9873 0.769857 34.9486 0.487305 34.8711V33.5586C0.660482 33.5996 0.856445 33.6201 1.0752 33.6201C1.62663 33.6201 1.90918 33.3193 1.92285 32.7178V24.6035H3.58398ZM1.7793 22.6826C1.7793 22.4274 1.85905 22.2155 2.01855 22.0469C2.18262 21.8783 2.41504 21.7939 2.71582 21.7939C3.0166 21.7939 3.24902 21.8783 3.41309 22.0469C3.57715 22.2155 3.65918 22.4274 3.65918 22.6826C3.65918 22.9333 3.57715 23.1429 3.41309 23.3115C3.24902 23.4756 3.0166 23.5576 2.71582 23.5576C2.41504 23.5576 2.18262 23.4756 2.01855 23.3115C1.85905 23.1429 1.7793 22.9333 1.7793 22.6826ZM9.8457 31.2754C9.35807 31.8496 8.66536 32.1367 7.76758 32.1367C6.96549 32.1367 6.3571 31.902 5.94238 31.4326C5.53223 30.9632 5.32715 30.2842 5.32715 29.3955V24.6035H6.98828V29.375C6.98828 30.3138 7.37793 30.7832 8.15723 30.7832C8.96387 30.7832 9.50846 30.4938 9.79102 29.915V24.6035H11.4521V32H9.88672L9.8457 31.2754ZM17.29 29.9902C17.29 29.694 17.167 29.4684 16.9209 29.3135C16.6794 29.1585 16.276 29.0218 15.7109 28.9033C15.1458 28.7848 14.6742 28.6344 14.2959 28.4521C13.4665 28.0511 13.0518 27.4701 13.0518 26.709C13.0518 26.071 13.3206 25.5378 13.8584 25.1094C14.3962 24.681 15.0798 24.4668 15.9092 24.4668C16.7933 24.4668 17.5065 24.6855 18.0488 25.123C18.5957 25.5605 18.8691 26.1279 18.8691 26.8252H17.208C17.208 26.5062 17.0895 26.2419 16.8525 26.0322C16.6156 25.818 16.3011 25.7109 15.9092 25.7109C15.5446 25.7109 15.2461 25.7952 15.0137 25.9639C14.7858 26.1325 14.6719 26.3581 14.6719 26.6406C14.6719 26.8958 14.779 27.0941 14.9932 27.2354C15.2074 27.3766 15.6403 27.5202 16.292 27.666C16.9437 27.8073 17.4541 27.9782 17.8232 28.1787C18.1969 28.3747 18.4727 28.6117 18.6504 28.8896C18.8327 29.1676 18.9238 29.5049 18.9238 29.9014C18.9238 30.5667 18.6481 31.1068 18.0967 31.5215C17.5452 31.9316 16.8229 32.1367 15.9297 32.1367C15.3236 32.1367 14.7835 32.0273 14.3096 31.8086C13.8356 31.5898 13.4665 31.2891 13.2021 30.9062C12.9378 30.5234 12.8057 30.111 12.8057 29.6689H14.4189C14.4417 30.0609 14.5898 30.3639 14.8633 30.5781C15.1367 30.7878 15.499 30.8926 15.9502 30.8926C16.3877 30.8926 16.7204 30.8105 16.9482 30.6465C17.1761 30.4779 17.29 30.2591 17.29 29.9902ZM22.458 22.8057V24.6035H23.7637V25.834H22.458V29.9629C22.458 30.2454 22.5127 30.4505 22.6221 30.5781C22.736 30.7012 22.9365 30.7627 23.2236 30.7627C23.415 30.7627 23.6087 30.7399 23.8047 30.6943V31.9795C23.4264 32.0843 23.0618 32.1367 22.7109 32.1367C21.4349 32.1367 20.7969 31.4326 20.7969 30.0244V25.834H19.5801V24.6035H20.7969V22.8057H22.458ZM26.8057 32H25.1445V24.6035H26.8057V32ZM25.042 22.6826C25.042 22.4274 25.1217 22.2155 25.2812 22.0469C25.4453 21.8783 25.6777 21.7939 25.9785 21.7939C26.2793 21.7939 26.5117 21.8783 26.6758 22.0469C26.8398 22.2155 26.9219 22.4274 26.9219 22.6826C26.9219 22.9333 26.8398 23.1429 26.6758 23.3115C26.5117 23.4756 26.2793 23.5576 25.9785 23.5576C25.6777 23.5576 25.4453 23.4756 25.2812 23.3115C25.1217 23.1429 25.042 22.9333 25.042 22.6826ZM29.2051 32V25.834H28.0771V24.6035H29.2051V23.9268C29.2051 23.1064 29.4329 22.473 29.8887 22.0264C30.3444 21.5798 30.9824 21.3564 31.8027 21.3564C32.0944 21.3564 32.4043 21.3975 32.7324 21.4795L32.6914 22.7783C32.5091 22.7419 32.2972 22.7236 32.0557 22.7236C31.2627 22.7236 30.8662 23.1315 30.8662 23.9473V24.6035H32.3701V25.834H30.8662V32H29.2051ZM36.1709 29.6211L37.6748 24.6035H39.4453L36.5059 33.1211C36.0547 34.3652 35.2891 34.9873 34.209 34.9873C33.9674 34.9873 33.7008 34.9463 33.4092 34.8643V33.5791L33.7236 33.5996C34.1429 33.5996 34.4574 33.5221 34.667 33.3672C34.8812 33.2168 35.0498 32.9616 35.1729 32.6016L35.4121 31.9658L32.8145 24.6035H34.6055L36.1709 29.6211ZM43.6289 28.4385H40.04V27.0986H43.6289V28.4385ZM48.0381 30.8105C48.4528 30.8105 48.7969 30.6898 49.0703 30.4482C49.3438 30.2067 49.4896 29.9082 49.5078 29.5527H51.0732C51.055 30.013 50.9115 30.4437 50.6426 30.8447C50.3737 31.2412 50.0091 31.5557 49.5488 31.7881C49.0885 32.0205 48.5918 32.1367 48.0586 32.1367C47.0241 32.1367 46.2038 31.8018 45.5977 31.1318C44.9915 30.4619 44.6885 29.5368 44.6885 28.3564V28.1855C44.6885 27.0599 44.9893 26.1598 45.5908 25.4854C46.1924 24.8063 47.0127 24.4668 48.0518 24.4668C48.9313 24.4668 49.6468 24.7243 50.1982 25.2393C50.7542 25.7497 51.0459 26.4219 51.0732 27.2559H49.5078C49.4896 26.832 49.3438 26.4834 49.0703 26.21C48.8014 25.9365 48.4574 25.7998 48.0381 25.7998C47.5003 25.7998 47.0856 25.9958 46.7939 26.3877C46.5023 26.7751 46.3542 27.3652 46.3496 28.1582V28.4248C46.3496 29.2269 46.4932 29.8262 46.7803 30.2227C47.0719 30.6146 47.4912 30.8105 48.0381 30.8105ZM52.0166 28.2334C52.0166 27.5088 52.1602 26.8571 52.4473 26.2783C52.7344 25.695 53.1377 25.2484 53.6572 24.9385C54.1768 24.624 54.7738 24.4668 55.4482 24.4668C56.4463 24.4668 57.2552 24.7881 57.875 25.4307C58.4993 26.0732 58.8366 26.9255 58.8867 27.9873L58.8936 28.377C58.8936 29.1061 58.7523 29.7578 58.4697 30.332C58.1917 30.9062 57.7907 31.3506 57.2666 31.665C56.7471 31.9795 56.1455 32.1367 55.4619 32.1367C54.4183 32.1367 53.582 31.7904 52.9531 31.0977C52.3288 30.4004 52.0166 29.473 52.0166 28.3154V28.2334ZM53.6777 28.377C53.6777 29.138 53.835 29.735 54.1494 30.168C54.4639 30.5964 54.9014 30.8105 55.4619 30.8105C56.0225 30.8105 56.4577 30.5918 56.7676 30.1543C57.082 29.7168 57.2393 29.0765 57.2393 28.2334C57.2393 27.486 57.0775 26.8936 56.7539 26.4561C56.4349 26.0186 55.9997 25.7998 55.4482 25.7998C54.9059 25.7998 54.4753 26.0163 54.1562 26.4492C53.8372 26.8776 53.6777 27.5202 53.6777 28.377ZM61.8398 24.6035L61.8877 25.458C62.4346 24.7972 63.1523 24.4668 64.041 24.4668C65.5814 24.4668 66.3652 25.3486 66.3926 27.1123V32H64.7314V27.208C64.7314 26.7386 64.6289 26.3923 64.4238 26.1689C64.2233 25.9411 63.8929 25.8271 63.4326 25.8271C62.7627 25.8271 62.2637 26.1302 61.9355 26.7363V32H60.2744V24.6035H61.8398ZM70.1729 22.8057V24.6035H71.4785V25.834H70.1729V29.9629C70.1729 30.2454 70.2275 30.4505 70.3369 30.5781C70.4508 30.7012 70.6514 30.7627 70.9385 30.7627C71.1299 30.7627 71.3236 30.7399 71.5195 30.6943V31.9795C71.1413 32.0843 70.7767 32.1367 70.4258 32.1367C69.1497 32.1367 68.5117 31.4326 68.5117 30.0244V25.834H67.2949V24.6035H68.5117V22.8057H70.1729ZM76.0107 32.1367C74.958 32.1367 74.1035 31.8063 73.4473 31.1455C72.7956 30.4801 72.4697 29.596 72.4697 28.4932V28.2881C72.4697 27.5498 72.611 26.8913 72.8936 26.3125C73.1807 25.7292 73.5817 25.2757 74.0967 24.9521C74.6117 24.6286 75.1859 24.4668 75.8193 24.4668C76.8265 24.4668 77.6035 24.7881 78.1504 25.4307C78.7018 26.0732 78.9775 26.9824 78.9775 28.1582V28.8281H74.1445C74.1947 29.4388 74.3975 29.9219 74.7529 30.2773C75.113 30.6328 75.5641 30.8105 76.1064 30.8105C76.8675 30.8105 77.4873 30.5029 77.9658 29.8877L78.8613 30.7422C78.5651 31.1842 78.1686 31.5283 77.6719 31.7744C77.1797 32.016 76.626 32.1367 76.0107 32.1367ZM75.8125 25.7998C75.3568 25.7998 74.9876 25.9593 74.7051 26.2783C74.4271 26.5973 74.2493 27.0417 74.1719 27.6113H77.3369V27.4883C77.3005 26.9323 77.1523 26.513 76.8926 26.2305C76.6328 25.9434 76.2728 25.7998 75.8125 25.7998ZM81.8145 24.6035L81.8623 25.458C82.4092 24.7972 83.127 24.4668 84.0156 24.4668C85.556 24.4668 86.3398 25.3486 86.3672 27.1123V32H84.7061V27.208C84.7061 26.7386 84.6035 26.3923 84.3984 26.1689C84.1979 25.9411 83.8675 25.8271 83.4072 25.8271C82.7373 25.8271 82.2383 26.1302 81.9102 26.7363V32H80.249V24.6035H81.8145ZM90.1475 22.8057V24.6035H91.4531V25.834H90.1475V29.9629C90.1475 30.2454 90.2021 30.4505 90.3115 30.5781C90.4255 30.7012 90.626 30.7627 90.9131 30.7627C91.1045 30.7627 91.2982 30.7399 91.4941 30.6943V31.9795C91.1159 32.0843 90.7513 32.1367 90.4004 32.1367C89.1243 32.1367 88.4863 31.4326 88.4863 30.0244V25.834H87.2695V24.6035H88.4863V22.8057H90.1475ZM93.7295 30.25C94.0394 30.25 94.2786 30.3389 94.4473 30.5166C94.6159 30.6898 94.7002 30.9085 94.7002 31.1729C94.7002 31.4326 94.6159 31.6491 94.4473 31.8223C94.2786 31.9909 94.0394 32.0752 93.7295 32.0752C93.4333 32.0752 93.1986 31.9909 93.0254 31.8223C92.8522 31.6536 92.7656 31.4372 92.7656 31.1729C92.7656 30.9085 92.8499 30.6898 93.0186 30.5166C93.1872 30.3389 93.4242 30.25 93.7295 30.25ZM93.7295 24.4463C94.0394 24.4463 94.2786 24.5352 94.4473 24.7129C94.6159 24.8861 94.7002 25.1048 94.7002 25.3691C94.7002 25.6289 94.6159 25.8454 94.4473 26.0186C94.2786 26.1872 94.0394 26.2715 93.7295 26.2715C93.4333 26.2715 93.1986 26.1872 93.0254 26.0186C92.8522 25.8499 92.7656 25.6335 92.7656 25.3691C92.7656 25.1048 92.8499 24.8861 93.0186 24.7129C93.1872 24.5352 93.4242 24.4463 93.7295 24.4463ZM196.234 24.4463C196.544 24.4463 196.784 24.5352 196.952 24.7129C197.121 24.8861 197.205 25.1048 197.205 25.3691C197.205 25.6289 197.121 25.8454 196.952 26.0186C196.784 26.1872 196.544 26.2715 196.234 26.2715C195.938 26.2715 195.703 26.1872 195.53 26.0186C195.357 25.8499 195.271 25.6335 195.271 25.3691C195.271 25.1048 195.355 24.8861 195.523 24.7129C195.692 24.5352 195.929 24.4463 196.234 24.4463ZM195.735 34.2422L194.84 33.709C195.104 33.2943 195.284 32.932 195.38 32.6221C195.48 32.3167 195.533 32.0046 195.537 31.6855V30.3936H197.034L197.027 31.5898C197.023 32.0729 196.9 32.556 196.658 33.0391C196.421 33.5267 196.114 33.9277 195.735 34.2422Z" fill="#444444"/>
<path d="M95.4932 8.12109C95.2744 8.08464 95.0488 8.06641 94.8164 8.06641C94.0553 8.06641 93.5426 8.35807 93.2783 8.94141V14H91.6172V6.60352H93.2031L93.2441 7.43066C93.6452 6.78809 94.2012 6.4668 94.9121 6.4668C95.1491 6.4668 95.3451 6.4987 95.5 6.5625L95.4932 8.12109ZM95.9854 10.2334C95.9854 9.50879 96.1289 8.8571 96.416 8.27832C96.7031 7.69499 97.1064 7.24837 97.626 6.93848C98.1455 6.62402 98.7425 6.4668 99.417 6.4668C100.415 6.4668 101.224 6.78809 101.844 7.43066C102.468 8.07324 102.805 8.92546 102.855 9.9873L102.862 10.377C102.862 11.1061 102.721 11.7578 102.438 12.332C102.16 12.9062 101.759 13.3506 101.235 13.665C100.716 13.9795 100.114 14.1367 99.4307 14.1367C98.387 14.1367 97.5508 13.7904 96.9219 13.0977C96.2975 12.4004 95.9854 11.473 95.9854 10.3154V10.2334ZM97.6465 10.377C97.6465 11.138 97.8037 11.735 98.1182 12.168C98.4326 12.5964 98.8701 12.8105 99.4307 12.8105C99.9912 12.8105 100.426 12.5918 100.736 12.1543C101.051 11.7168 101.208 11.0765 101.208 10.2334C101.208 9.486 101.046 8.89355 100.723 8.45605C100.404 8.01855 99.9684 7.7998 99.417 7.7998C98.8747 7.7998 98.444 8.01628 98.125 8.44922C97.806 8.8776 97.6465 9.52018 97.6465 10.377ZM110.765 11.71L111.94 6.60352H113.561L111.544 14H110.177L108.591 8.9209L107.032 14H105.665L103.642 6.60352H105.262L106.458 11.6553L107.976 6.60352H109.227L110.765 11.71ZM104.079 29.9902C104.079 29.694 103.956 29.4684 103.71 29.3135C103.468 29.1585 103.065 29.0218 102.5 28.9033C101.935 28.7848 101.463 28.6344 101.085 28.4521C100.256 28.0511 99.8408 27.4701 99.8408 26.709C99.8408 26.071 100.11 25.5378 100.647 25.1094C101.185 24.681 101.869 24.4668 102.698 24.4668C103.582 24.4668 104.296 24.6855 104.838 25.123C105.385 25.5605 105.658 26.1279 105.658 26.8252H103.997C103.997 26.5062 103.879 26.2419 103.642 26.0322C103.405 25.818 103.09 25.7109 102.698 25.7109C102.334 25.7109 102.035 25.7952 101.803 25.9639C101.575 26.1325 101.461 26.3581 101.461 26.6406C101.461 26.8958 101.568 27.0941 101.782 27.2354C101.996 27.3766 102.429 27.5202 103.081 27.666C103.733 27.8073 104.243 27.9782 104.612 28.1787C104.986 28.3747 105.262 28.6117 105.439 28.8896C105.622 29.1676 105.713 29.5049 105.713 29.9014C105.713 30.5667 105.437 31.1068 104.886 31.5215C104.334 31.9316 103.612 32.1367 102.719 32.1367C102.113 32.1367 101.573 32.0273 101.099 31.8086C100.625 31.5898 100.256 31.2891 99.9912 30.9062C99.7269 30.5234 99.5947 30.111 99.5947 29.6689H101.208C101.231 30.0609 101.379 30.3639 101.652 30.5781C101.926 30.7878 102.288 30.8926 102.739 30.8926C103.177 30.8926 103.509 30.8105 103.737 30.6465C103.965 30.4779 104.079 30.2591 104.079 29.9902ZM113.643 28.377C113.643 29.5208 113.383 30.4346 112.863 31.1182C112.344 31.7972 111.646 32.1367 110.771 32.1367C109.96 32.1367 109.311 31.8701 108.823 31.3369V34.8438H107.162V24.6035H108.693L108.762 25.3555C109.249 24.763 109.912 24.4668 110.751 24.4668C111.653 24.4668 112.36 24.804 112.87 25.4785C113.385 26.1484 113.643 27.0804 113.643 28.2744V28.377ZM111.988 28.2334C111.988 27.4951 111.84 26.9095 111.544 26.4766C111.252 26.0436 110.833 25.8271 110.286 25.8271C109.607 25.8271 109.119 26.1074 108.823 26.668V29.9492C109.124 30.5234 109.616 30.8105 110.3 30.8105C110.828 30.8105 111.241 30.5986 111.537 30.1748C111.838 29.7464 111.988 29.0993 111.988 28.2334ZM119.474 32C119.401 31.8587 119.337 31.6286 119.282 31.3096C118.754 31.861 118.106 32.1367 117.341 32.1367C116.598 32.1367 115.992 31.9248 115.522 31.501C115.053 31.0771 114.818 30.5531 114.818 29.9287C114.818 29.1403 115.11 28.5365 115.693 28.1172C116.281 27.6934 117.12 27.4814 118.209 27.4814H119.228V26.9961C119.228 26.6133 119.12 26.3079 118.906 26.0801C118.692 25.8477 118.366 25.7314 117.929 25.7314C117.55 25.7314 117.241 25.8271 116.999 26.0186C116.757 26.2054 116.637 26.4447 116.637 26.7363H114.976C114.976 26.3307 115.11 25.9525 115.379 25.6016C115.648 25.2461 116.012 24.9681 116.473 24.7676C116.938 24.5671 117.455 24.4668 118.024 24.4668C118.89 24.4668 119.581 24.6855 120.096 25.123C120.611 25.556 120.875 26.1667 120.889 26.9551V30.291C120.889 30.9564 120.982 31.4873 121.169 31.8838V32H119.474ZM117.648 30.8037C117.977 30.8037 118.284 30.724 118.571 30.5645C118.863 30.4049 119.082 30.1908 119.228 29.9219V28.5273H118.332C117.717 28.5273 117.254 28.6344 116.944 28.8486C116.634 29.0628 116.479 29.3659 116.479 29.7578C116.479 30.0768 116.584 30.332 116.794 30.5234C117.008 30.7103 117.293 30.8037 117.648 30.8037ZM125.667 30.8105C126.082 30.8105 126.426 30.6898 126.699 30.4482C126.973 30.2067 127.118 29.9082 127.137 29.5527H128.702C128.684 30.013 128.54 30.4437 128.271 30.8447C128.003 31.2412 127.638 31.5557 127.178 31.7881C126.717 32.0205 126.221 32.1367 125.688 32.1367C124.653 32.1367 123.833 31.8018 123.227 31.1318C122.62 30.4619 122.317 29.5368 122.317 28.3564V28.1855C122.317 27.0599 122.618 26.1598 123.22 25.4854C123.821 24.8063 124.642 24.4668 125.681 24.4668C126.56 24.4668 127.276 24.7243 127.827 25.2393C128.383 25.7497 128.675 26.4219 128.702 27.2559H127.137C127.118 26.832 126.973 26.4834 126.699 26.21C126.43 25.9365 126.086 25.7998 125.667 25.7998C125.129 25.7998 124.715 25.9958 124.423 26.3877C124.131 26.7751 123.983 27.3652 123.979 28.1582V28.4248C123.979 29.2269 124.122 29.8262 124.409 30.2227C124.701 30.6146 125.12 30.8105 125.667 30.8105ZM133.214 32.1367C132.161 32.1367 131.307 31.8063 130.65 31.1455C129.999 30.4801 129.673 29.596 129.673 28.4932V28.2881C129.673 27.5498 129.814 26.8913 130.097 26.3125C130.384 25.7292 130.785 25.2757 131.3 24.9521C131.815 24.6286 132.389 24.4668 133.022 24.4668C134.03 24.4668 134.807 24.7881 135.354 25.4307C135.905 26.0732 136.181 26.9824 136.181 28.1582V28.8281H131.348C131.398 29.4388 131.601 29.9219 131.956 30.2773C132.316 30.6328 132.767 30.8105 133.31 30.8105C134.071 30.8105 134.69 30.5029 135.169 29.8877L136.064 30.7422C135.768 31.1842 135.372 31.5283 134.875 31.7744C134.383 32.016 133.829 32.1367 133.214 32.1367ZM133.016 25.7998C132.56 25.7998 132.191 25.9593 131.908 26.2783C131.63 26.5973 131.452 27.0417 131.375 27.6113H134.54V27.4883C134.504 26.9323 134.355 26.513 134.096 26.2305C133.836 25.9434 133.476 25.7998 133.016 25.7998ZM140.699 28.4385H137.11V27.0986H140.699V28.4385ZM148.561 28.377C148.561 29.5254 148.303 30.4391 147.788 31.1182C147.278 31.7972 146.574 32.1367 145.676 32.1367C144.81 32.1367 144.135 31.8245 143.652 31.2002L143.57 32H142.066V21.5H143.728V25.3145C144.206 24.7493 144.851 24.4668 145.662 24.4668C146.564 24.4668 147.273 24.8018 147.788 25.4717C148.303 26.1416 148.561 27.0781 148.561 28.2812V28.377ZM146.899 28.2334C146.899 27.4313 146.758 26.8298 146.476 26.4287C146.193 26.0277 145.783 25.8271 145.245 25.8271C144.525 25.8271 144.019 26.1416 143.728 26.7705V29.8193C144.024 30.4619 144.534 30.7832 145.259 30.7832C145.778 30.7832 146.179 30.5895 146.462 30.2021C146.744 29.8148 146.89 29.2292 146.899 28.4453V28.2334ZM153.216 32.1367C152.163 32.1367 151.309 31.8063 150.652 31.1455C150.001 30.4801 149.675 29.596 149.675 28.4932V28.2881C149.675 27.5498 149.816 26.8913 150.099 26.3125C150.386 25.7292 150.787 25.2757 151.302 24.9521C151.817 24.6286 152.391 24.4668 153.024 24.4668C154.032 24.4668 154.809 24.7881 155.355 25.4307C155.907 26.0732 156.183 26.9824 156.183 28.1582V28.8281H151.35C151.4 29.4388 151.603 29.9219 151.958 30.2773C152.318 30.6328 152.769 30.8105 153.312 30.8105C154.073 30.8105 154.692 30.5029 155.171 29.8877L156.066 30.7422C155.77 31.1842 155.374 31.5283 154.877 31.7744C154.385 32.016 153.831 32.1367 153.216 32.1367ZM153.018 25.7998C152.562 25.7998 152.193 25.9593 151.91 26.2783C151.632 26.5973 151.454 27.0417 151.377 27.6113H154.542V27.4883C154.506 26.9323 154.357 26.513 154.098 26.2305C153.838 25.9434 153.478 25.7998 153.018 25.7998ZM159.56 22.8057V24.6035H160.865V25.834H159.56V29.9629C159.56 30.2454 159.614 30.4505 159.724 30.5781C159.838 30.7012 160.038 30.7627 160.325 30.7627C160.517 30.7627 160.71 30.7399 160.906 30.6943V31.9795C160.528 32.0843 160.163 32.1367 159.812 32.1367C158.536 32.1367 157.898 31.4326 157.898 30.0244V25.834H156.682V24.6035H157.898V22.8057H159.56ZM168.638 29.71L169.813 24.6035H171.434L169.417 32H168.05L166.464 26.9209L164.905 32H163.538L161.515 24.6035H163.135L164.331 29.6553L165.849 24.6035H167.1L168.638 29.71ZM175.802 32.1367C174.749 32.1367 173.895 31.8063 173.238 31.1455C172.587 30.4801 172.261 29.596 172.261 28.4932V28.2881C172.261 27.5498 172.402 26.8913 172.685 26.3125C172.972 25.7292 173.373 25.2757 173.888 24.9521C174.403 24.6286 174.977 24.4668 175.61 24.4668C176.618 24.4668 177.395 24.7881 177.941 25.4307C178.493 26.0732 178.769 26.9824 178.769 28.1582V28.8281H173.936C173.986 29.4388 174.188 29.9219 174.544 30.2773C174.904 30.6328 175.355 30.8105 175.897 30.8105C176.659 30.8105 177.278 30.5029 177.757 29.8877L178.652 30.7422C178.356 31.1842 177.96 31.5283 177.463 31.7744C176.971 32.016 176.417 32.1367 175.802 32.1367ZM175.604 25.7998C175.148 25.7998 174.779 25.9593 174.496 26.2783C174.218 26.5973 174.04 27.0417 173.963 27.6113H177.128V27.4883C177.091 26.9323 176.943 26.513 176.684 26.2305C176.424 25.9434 176.064 25.7998 175.604 25.7998ZM183.321 32.1367C182.269 32.1367 181.414 31.8063 180.758 31.1455C180.106 30.4801 179.78 29.596 179.78 28.4932V28.2881C179.78 27.5498 179.922 26.8913 180.204 26.3125C180.491 25.7292 180.892 25.2757 181.407 24.9521C181.922 24.6286 182.496 24.4668 183.13 24.4668C184.137 24.4668 184.914 24.7881 185.461 25.4307C186.012 26.0732 186.288 26.9824 186.288 28.1582V28.8281H181.455C181.505 29.4388 181.708 29.9219 182.063 30.2773C182.424 30.6328 182.875 30.8105 183.417 30.8105C184.178 30.8105 184.798 30.5029 185.276 29.8877L186.172 30.7422C185.876 31.1842 185.479 31.5283 184.982 31.7744C184.49 32.016 183.937 32.1367 183.321 32.1367ZM183.123 25.7998C182.667 25.7998 182.298 25.9593 182.016 26.2783C181.738 26.5973 181.56 27.0417 181.482 27.6113H184.647V27.4883C184.611 26.9323 184.463 26.513 184.203 26.2305C183.943 25.9434 183.583 25.7998 183.123 25.7998ZM189.125 24.6035L189.173 25.458C189.72 24.7972 190.438 24.4668 191.326 24.4668C192.867 24.4668 193.65 25.3486 193.678 27.1123V32H192.017V27.208C192.017 26.7386 191.914 26.3923 191.709 26.1689C191.508 25.9411 191.178 25.8271 190.718 25.8271C190.048 25.8271 189.549 26.1302 189.221 26.7363V32H187.56V24.6035H189.125Z" fill="#1E73FF"/>
<path d="M180.707 156.128C180.317 156.519 179.683 156.519 179.293 156.128L172.929 149.764C172.538 149.374 172.538 148.74 172.929 148.35C173.319 147.959 173.953 147.959 174.343 148.35L180 154.007L185.657 148.35C186.047 147.959 186.681 147.959 187.071 148.35C187.462 148.74 187.462 149.374 187.071 149.764L180.707 156.128ZM179.293 45.8717C179.683 45.4812 180.317 45.4812 180.707 45.8717L187.071 52.2356C187.462 52.6262 187.462 53.2593 187.071 53.6499C186.681 54.0404 186.047 54.0404 185.657 53.6499L180 47.993L174.343 53.6499C173.953 54.0404 173.319 54.0404 172.929 53.6499C172.538 53.2593 172.538 52.6262 172.929 52.2356L179.293 45.8717ZM179 155.421V152.452H181V155.421H179ZM179 148.495V142.558H181V148.495H179ZM179 138.6V132.663H181V138.6H179ZM179 128.705V122.768H181V128.705H179ZM179 118.81V112.874H181V118.81H179ZM179 108.916V102.979H181V108.916H179ZM179 99.0209V93.0841H181V99.0209H179ZM179 89.1262V83.1893H181V89.1262H179ZM179 79.2314V73.2946H181V79.2314H179ZM179 69.3367V63.3998H181V69.3367H179ZM179 59.4419V53.5051H181V59.4419H179ZM179 49.5472V46.5788H181V49.5472H179Z" fill="#00986B"/>
<rect width="32" height="39" transform="translate(164 80)" fill="white"/>
<path d="M167.17 95.8105C167.585 95.8105 167.929 95.6898 168.202 95.4482C168.476 95.2067 168.621 94.9082 168.64 94.5527H170.205C170.187 95.013 170.043 95.4437 169.774 95.8447C169.506 96.2412 169.141 96.5557 168.681 96.7881C168.22 97.0205 167.724 97.1367 167.19 97.1367C166.156 97.1367 165.336 96.8018 164.729 96.1318C164.123 95.4619 163.82 94.5368 163.82 93.3564V93.1855C163.82 92.0599 164.121 91.1598 164.723 90.4854C165.324 89.8063 166.145 89.4668 167.184 89.4668C168.063 89.4668 168.779 89.7243 169.33 90.2393C169.886 90.7497 170.178 91.4219 170.205 92.2559H168.64C168.621 91.832 168.476 91.4834 168.202 91.21C167.933 90.9365 167.589 90.7998 167.17 90.7998C166.632 90.7998 166.217 90.9958 165.926 91.3877C165.634 91.7751 165.486 92.3652 165.481 93.1582V93.4248C165.481 94.2269 165.625 94.8262 165.912 95.2227C166.204 95.6146 166.623 95.8105 167.17 95.8105ZM175.332 91.1211C175.113 91.0846 174.888 91.0664 174.655 91.0664C173.894 91.0664 173.382 91.3581 173.117 91.9414V97H171.456V89.6035H173.042L173.083 90.4307C173.484 89.7881 174.04 89.4668 174.751 89.4668C174.988 89.4668 175.184 89.4987 175.339 89.5625L175.332 91.1211ZM175.824 93.2334C175.824 92.5088 175.968 91.8571 176.255 91.2783C176.542 90.695 176.945 90.2484 177.465 89.9385C177.984 89.624 178.581 89.4668 179.256 89.4668C180.254 89.4668 181.063 89.7881 181.683 90.4307C182.307 91.0732 182.644 91.9255 182.694 92.9873L182.701 93.377C182.701 94.1061 182.56 94.7578 182.277 95.332C181.999 95.9062 181.598 96.3506 181.074 96.665C180.555 96.9795 179.953 97.1367 179.27 97.1367C178.226 97.1367 177.39 96.7904 176.761 96.0977C176.136 95.4004 175.824 94.473 175.824 93.3154V93.2334ZM177.485 93.377C177.485 94.138 177.643 94.735 177.957 95.168C178.271 95.5964 178.709 95.8105 179.27 95.8105C179.83 95.8105 180.265 95.5918 180.575 95.1543C180.89 94.7168 181.047 94.0765 181.047 93.2334C181.047 92.486 180.885 91.8936 180.562 91.4561C180.243 91.0186 179.807 90.7998 179.256 90.7998C178.714 90.7998 178.283 91.0163 177.964 91.4492C177.645 91.8776 177.485 92.5202 177.485 93.377ZM188.252 94.9902C188.252 94.694 188.129 94.4684 187.883 94.3135C187.641 94.1585 187.238 94.0218 186.673 93.9033C186.108 93.7848 185.636 93.6344 185.258 93.4521C184.428 93.0511 184.014 92.4701 184.014 91.709C184.014 91.071 184.283 90.5378 184.82 90.1094C185.358 89.681 186.042 89.4668 186.871 89.4668C187.755 89.4668 188.468 89.6855 189.011 90.123C189.558 90.5605 189.831 91.1279 189.831 91.8252H188.17C188.17 91.5062 188.051 91.2419 187.814 91.0322C187.577 90.818 187.263 90.7109 186.871 90.7109C186.507 90.7109 186.208 90.7952 185.976 90.9639C185.748 91.1325 185.634 91.3581 185.634 91.6406C185.634 91.8958 185.741 92.0941 185.955 92.2354C186.169 92.3766 186.602 92.5202 187.254 92.666C187.906 92.8073 188.416 92.9782 188.785 93.1787C189.159 93.3747 189.435 93.6117 189.612 93.8896C189.795 94.1676 189.886 94.5049 189.886 94.9014C189.886 95.5667 189.61 96.1068 189.059 96.5215C188.507 96.9316 187.785 97.1367 186.892 97.1367C186.285 97.1367 185.745 97.0273 185.271 96.8086C184.798 96.5898 184.428 96.2891 184.164 95.9062C183.9 95.5234 183.768 95.111 183.768 94.6689H185.381C185.404 95.0609 185.552 95.3639 185.825 95.5781C186.099 95.7878 186.461 95.8926 186.912 95.8926C187.35 95.8926 187.682 95.8105 187.91 95.6465C188.138 95.4779 188.252 95.2591 188.252 94.9902ZM195.484 94.9902C195.484 94.694 195.361 94.4684 195.115 94.3135C194.874 94.1585 194.47 94.0218 193.905 93.9033C193.34 93.7848 192.868 93.6344 192.49 93.4521C191.661 93.0511 191.246 92.4701 191.246 91.709C191.246 91.071 191.515 90.5378 192.053 90.1094C192.59 89.681 193.274 89.4668 194.104 89.4668C194.988 89.4668 195.701 89.6855 196.243 90.123C196.79 90.5605 197.063 91.1279 197.063 91.8252H195.402C195.402 91.5062 195.284 91.2419 195.047 91.0322C194.81 90.818 194.495 90.7109 194.104 90.7109C193.739 90.7109 193.44 90.7952 193.208 90.9639C192.98 91.1325 192.866 91.3581 192.866 91.6406C192.866 91.8958 192.973 92.0941 193.188 92.2354C193.402 92.3766 193.835 92.5202 194.486 92.666C195.138 92.8073 195.648 92.9782 196.018 93.1787C196.391 93.3747 196.667 93.6117 196.845 93.8896C197.027 94.1676 197.118 94.5049 197.118 94.9014C197.118 95.5667 196.842 96.1068 196.291 96.5215C195.74 96.9316 195.017 97.1367 194.124 97.1367C193.518 97.1367 192.978 97.0273 192.504 96.8086C192.03 96.5898 191.661 96.2891 191.396 95.9062C191.132 95.5234 191 95.111 191 94.6689H192.613C192.636 95.0609 192.784 95.3639 193.058 95.5781C193.331 95.7878 193.693 95.8926 194.145 95.8926C194.582 95.8926 194.915 95.8105 195.143 95.6465C195.37 95.4779 195.484 95.2591 195.484 94.9902ZM173.056 112C172.983 111.859 172.919 111.629 172.864 111.31C172.336 111.861 171.688 112.137 170.923 112.137C170.18 112.137 169.574 111.925 169.104 111.501C168.635 111.077 168.4 110.553 168.4 109.929C168.4 109.14 168.692 108.536 169.275 108.117C169.863 107.693 170.702 107.481 171.791 107.481H172.81V106.996C172.81 106.613 172.702 106.308 172.488 106.08C172.274 105.848 171.948 105.731 171.511 105.731C171.132 105.731 170.823 105.827 170.581 106.019C170.34 106.205 170.219 106.445 170.219 106.736H168.558C168.558 106.331 168.692 105.952 168.961 105.602C169.23 105.246 169.594 104.968 170.055 104.768C170.52 104.567 171.037 104.467 171.606 104.467C172.472 104.467 173.163 104.686 173.678 105.123C174.193 105.556 174.457 106.167 174.471 106.955V110.291C174.471 110.956 174.564 111.487 174.751 111.884V112H173.056ZM171.23 110.804C171.559 110.804 171.866 110.724 172.153 110.564C172.445 110.405 172.664 110.191 172.81 109.922V108.527H171.914C171.299 108.527 170.836 108.634 170.526 108.849C170.216 109.063 170.062 109.366 170.062 109.758C170.062 110.077 170.166 110.332 170.376 110.523C170.59 110.71 170.875 110.804 171.23 110.804ZM178.866 107.037L180.274 104.604H182.12L179.857 108.247L182.195 112H180.363L178.887 109.471L177.417 112H175.571L177.909 108.247L175.653 104.604H177.485L178.866 107.037ZM185.019 112H183.357V104.604H185.019V112ZM183.255 102.683C183.255 102.427 183.335 102.215 183.494 102.047C183.658 101.878 183.891 101.794 184.191 101.794C184.492 101.794 184.725 101.878 184.889 102.047C185.053 102.215 185.135 102.427 185.135 102.683C185.135 102.933 185.053 103.143 184.889 103.312C184.725 103.476 184.492 103.558 184.191 103.558C183.891 103.558 183.658 103.476 183.494 103.312C183.335 103.143 183.255 102.933 183.255 102.683ZM190.979 109.99C190.979 109.694 190.856 109.468 190.61 109.313C190.369 109.159 189.965 109.022 189.4 108.903C188.835 108.785 188.364 108.634 187.985 108.452C187.156 108.051 186.741 107.47 186.741 106.709C186.741 106.071 187.01 105.538 187.548 105.109C188.086 104.681 188.769 104.467 189.599 104.467C190.483 104.467 191.196 104.686 191.738 105.123C192.285 105.561 192.559 106.128 192.559 106.825H190.897C190.897 106.506 190.779 106.242 190.542 106.032C190.305 105.818 189.991 105.711 189.599 105.711C189.234 105.711 188.936 105.795 188.703 105.964C188.475 106.132 188.361 106.358 188.361 106.641C188.361 106.896 188.468 107.094 188.683 107.235C188.897 107.377 189.33 107.52 189.981 107.666C190.633 107.807 191.144 107.978 191.513 108.179C191.886 108.375 192.162 108.612 192.34 108.89C192.522 109.168 192.613 109.505 192.613 109.901C192.613 110.567 192.338 111.107 191.786 111.521C191.235 111.932 190.512 112.137 189.619 112.137C189.013 112.137 188.473 112.027 187.999 111.809C187.525 111.59 187.156 111.289 186.892 110.906C186.627 110.523 186.495 110.111 186.495 109.669H188.108C188.131 110.061 188.279 110.364 188.553 110.578C188.826 110.788 189.188 110.893 189.64 110.893C190.077 110.893 190.41 110.811 190.638 110.646C190.866 110.478 190.979 110.259 190.979 109.99Z" fill="#00986B"/>
<path d="M160.865 173.707C161.256 173.317 161.256 172.683 160.865 172.293L154.501 165.929C154.111 165.538 153.478 165.538 153.087 165.929C152.697 166.319 152.697 166.953 153.087 167.343L158.744 173L153.087 178.657C152.697 179.047 152.697 179.681 153.087 180.071C153.478 180.462 154.111 180.462 154.501 180.071L160.865 173.707ZM1.13531 172.293C0.744781 172.683 0.744781 173.317 1.13531 173.707L7.49927 180.071C7.88979 180.462 8.52296 180.462 8.91348 180.071C9.304 179.681 9.304 179.047 8.91348 178.657L3.25663 173L8.91348 167.343C9.304 166.953 9.304 166.319 8.91348 165.929C8.52296 165.538 7.88979 165.538 7.49927 165.929L1.13531 172.293ZM160.158 172L157.19 172L157.19 174L160.158 174L160.158 172ZM153.232 172L147.295 172L147.295 174L153.232 174L153.232 172ZM143.337 172L137.4 172L137.4 174L143.337 174L143.337 172ZM133.442 172L127.506 172L127.506 174L133.442 174L133.442 172ZM123.548 172L117.611 172L117.611 174L123.548 174L123.548 172ZM113.653 172L107.716 172L107.716 174L113.653 174L113.653 172ZM103.758 172L97.8214 172L97.8214 174L103.758 174L103.758 172ZM93.8635 172L87.9266 172L87.9266 174L93.8635 174L93.8635 172ZM83.9687 172L78.0319 172L78.0319 174L83.9687 174L83.9687 172ZM74.074 172L68.1371 172L68.1371 174L74.074 174L74.074 172ZM64.1793 172L58.2424 172L58.2424 174L64.1793 174L64.1793 172ZM54.2845 172L48.3477 172L48.3477 174L54.2845 174L54.2845 172ZM44.3898 172L38.4529 172L38.4529 174L44.3898 174L44.3898 172ZM34.495 172L28.5582 172L28.5582 174L34.495 174L34.495 172ZM24.6003 172L18.6635 172L18.6635 174L24.6003 174L24.6003 172ZM14.7056 172L8.76872 172L8.76872 174L14.7056 174L14.7056 172ZM4.81081 172L1.84241 172L1.84241 174L4.81081 174L4.81081 172Z" fill="#1E73FF"/>
<rect width="66" height="18" transform="translate(48 164)" fill="white"/>
<path d="M53.8896 170.604L53.9375 171.376C54.457 170.77 55.168 170.467 56.0703 170.467C57.0592 170.467 57.736 170.845 58.1006 171.602C58.6383 170.845 59.3949 170.467 60.3701 170.467C61.1859 170.467 61.792 170.692 62.1885 171.144C62.5895 171.595 62.7946 172.26 62.8037 173.14V178H61.1426V173.188C61.1426 172.718 61.04 172.374 60.835 172.155C60.6299 171.937 60.2904 171.827 59.8164 171.827C59.4382 171.827 59.1283 171.93 58.8867 172.135C58.6497 172.335 58.4834 172.6 58.3877 172.928L58.3945 178H56.7334V173.133C56.7106 172.262 56.2663 171.827 55.4004 171.827C54.735 171.827 54.2633 172.098 53.9854 172.641V178H52.3242V170.604H53.8896ZM68.9287 178C68.8558 177.859 68.792 177.629 68.7373 177.31C68.2087 177.861 67.5615 178.137 66.7959 178.137C66.0531 178.137 65.4469 177.925 64.9775 177.501C64.5081 177.077 64.2734 176.553 64.2734 175.929C64.2734 175.14 64.5651 174.536 65.1484 174.117C65.7363 173.693 66.5749 173.481 67.6641 173.481H68.6826V172.996C68.6826 172.613 68.5755 172.308 68.3613 172.08C68.1471 171.848 67.8213 171.731 67.3838 171.731C67.0055 171.731 66.6956 171.827 66.4541 172.019C66.2126 172.205 66.0918 172.445 66.0918 172.736H64.4307C64.4307 172.331 64.5651 171.952 64.834 171.602C65.1029 171.246 65.4674 170.968 65.9277 170.768C66.3926 170.567 66.9098 170.467 67.4795 170.467C68.3454 170.467 69.0358 170.686 69.5508 171.123C70.0658 171.556 70.3301 172.167 70.3438 172.955V176.291C70.3438 176.956 70.4372 177.487 70.624 177.884V178H68.9287ZM67.1035 176.804C67.4316 176.804 67.7393 176.724 68.0264 176.564C68.318 176.405 68.5368 176.191 68.6826 175.922V174.527H67.7871C67.1719 174.527 66.7093 174.634 66.3994 174.849C66.0895 175.063 65.9346 175.366 65.9346 175.758C65.9346 176.077 66.0394 176.332 66.249 176.523C66.4632 176.71 66.748 176.804 67.1035 176.804ZM73.8506 178H72.1895V170.604H73.8506V178ZM72.0869 168.683C72.0869 168.427 72.1667 168.215 72.3262 168.047C72.4902 167.878 72.7227 167.794 73.0234 167.794C73.3242 167.794 73.5566 167.878 73.7207 168.047C73.8848 168.215 73.9668 168.427 73.9668 168.683C73.9668 168.933 73.8848 169.143 73.7207 169.312C73.5566 169.476 73.3242 169.558 73.0234 169.558C72.7227 169.558 72.4902 169.476 72.3262 169.312C72.1667 169.143 72.0869 168.933 72.0869 168.683ZM77.207 170.604L77.2549 171.458C77.8018 170.797 78.5195 170.467 79.4082 170.467C80.9486 170.467 81.7324 171.349 81.7598 173.112V178H80.0986V173.208C80.0986 172.739 79.9961 172.392 79.791 172.169C79.5905 171.941 79.2601 171.827 78.7998 171.827C78.1299 171.827 77.6309 172.13 77.3027 172.736V178H75.6416V170.604H77.207ZM91.3643 178C91.2913 177.859 91.2275 177.629 91.1729 177.31C90.6442 177.861 89.9971 178.137 89.2314 178.137C88.4886 178.137 87.8825 177.925 87.4131 177.501C86.9437 177.077 86.709 176.553 86.709 175.929C86.709 175.14 87.0007 174.536 87.584 174.117C88.1719 173.693 89.0104 173.481 90.0996 173.481H91.1182V172.996C91.1182 172.613 91.0111 172.308 90.7969 172.08C90.5827 171.848 90.2568 171.731 89.8193 171.731C89.4411 171.731 89.1312 171.827 88.8896 172.019C88.6481 172.205 88.5273 172.445 88.5273 172.736H86.8662C86.8662 172.331 87.0007 171.952 87.2695 171.602C87.5384 171.246 87.903 170.968 88.3633 170.768C88.8281 170.567 89.3454 170.467 89.915 170.467C90.7809 170.467 91.4714 170.686 91.9863 171.123C92.5013 171.556 92.7656 172.167 92.7793 172.955V176.291C92.7793 176.956 92.8727 177.487 93.0596 177.884V178H91.3643ZM89.5391 176.804C89.8672 176.804 90.1748 176.724 90.4619 176.564C90.7536 176.405 90.9723 176.191 91.1182 175.922V174.527H90.2227C89.6074 174.527 89.1449 174.634 88.835 174.849C88.5251 175.063 88.3701 175.366 88.3701 175.758C88.3701 176.077 88.4749 176.332 88.6846 176.523C88.8988 176.71 89.1836 176.804 89.5391 176.804ZM97.1748 173.037L98.583 170.604H100.429L98.166 174.247L100.504 178H98.6719L97.1953 175.471L95.7256 178H93.8799L96.2178 174.247L93.9619 170.604H95.7939L97.1748 173.037ZM103.327 178H101.666V170.604H103.327V178ZM101.563 168.683C101.563 168.427 101.643 168.215 101.803 168.047C101.967 167.878 102.199 167.794 102.5 167.794C102.801 167.794 103.033 167.878 103.197 168.047C103.361 168.215 103.443 168.427 103.443 168.683C103.443 168.933 103.361 169.143 103.197 169.312C103.033 169.476 102.801 169.558 102.5 169.558C102.199 169.558 101.967 169.476 101.803 169.312C101.643 169.143 101.563 168.933 101.563 168.683ZM109.288 175.99C109.288 175.694 109.165 175.468 108.919 175.313C108.677 175.159 108.274 175.022 107.709 174.903C107.144 174.785 106.672 174.634 106.294 174.452C105.465 174.051 105.05 173.47 105.05 172.709C105.05 172.071 105.319 171.538 105.856 171.109C106.394 170.681 107.078 170.467 107.907 170.467C108.791 170.467 109.505 170.686 110.047 171.123C110.594 171.561 110.867 172.128 110.867 172.825H109.206C109.206 172.506 109.088 172.242 108.851 172.032C108.614 171.818 108.299 171.711 107.907 171.711C107.543 171.711 107.244 171.795 107.012 171.964C106.784 172.132 106.67 172.358 106.67 172.641C106.67 172.896 106.777 173.094 106.991 173.235C107.205 173.377 107.638 173.52 108.29 173.666C108.942 173.807 109.452 173.978 109.821 174.179C110.195 174.375 110.471 174.612 110.648 174.89C110.831 175.168 110.922 175.505 110.922 175.901C110.922 176.567 110.646 177.107 110.095 177.521C109.543 177.932 108.821 178.137 107.928 178.137C107.322 178.137 106.782 178.027 106.308 177.809C105.834 177.59 105.465 177.289 105.2 176.906C104.936 176.523 104.804 176.111 104.804 175.669H106.417C106.44 176.061 106.588 176.364 106.861 176.578C107.135 176.788 107.497 176.893 107.948 176.893C108.386 176.893 108.718 176.811 108.946 176.646C109.174 176.478 109.288 176.259 109.288 175.99Z" fill="#1E73FF"/>
<g opacity="0.75">
<rect width="30" height="100" transform="translate(6 51)" fill="#1E73FF"/>
</g>
<g opacity="0.75">
<rect width="30" height="100" transform="translate(66 51)" fill="#1E73FF"/>
</g>
<g opacity="0.75">
<rect width="30" height="100" transform="translate(126 51)" fill="#1E73FF"/>
</g>
<rect x="229" y="49" width="158" height="108" fill="#F7F7F7" stroke="#AAAAAA" stroke-width="2" stroke-dasharray="6 4"/>
<path d="M233.64 6.81934C233.175 6.75553 232.774 6.72363 232.437 6.72363C231.543 6.72363 231.097 7.1429 231.097 7.98145V8.60352H232.601V9.83398H231.097V16H229.436V9.83398H228.308V8.60352H229.436V7.94043C229.44 7.10645 229.686 6.46842 230.174 6.02637C230.666 5.57975 231.359 5.35645 232.252 5.35645C232.808 5.35645 233.824 5.46582 235.301 5.68457V16H233.64V6.81934ZM240.394 16.1367C239.341 16.1367 238.486 15.8063 237.83 15.1455C237.178 14.4801 236.853 13.596 236.853 12.4932V12.2881C236.853 11.5498 236.994 10.8913 237.276 10.3125C237.563 9.72917 237.965 9.27572 238.479 8.95215C238.994 8.62858 239.569 8.4668 240.202 8.4668C241.209 8.4668 241.986 8.78809 242.533 9.43066C243.085 10.0732 243.36 10.9824 243.36 12.1582V12.8281H238.527C238.577 13.4388 238.78 13.9219 239.136 14.2773C239.496 14.6328 239.947 14.8105 240.489 14.8105C241.25 14.8105 241.87 14.5029 242.349 13.8877L243.244 14.7422C242.948 15.1842 242.551 15.5283 242.055 15.7744C241.562 16.016 241.009 16.1367 240.394 16.1367ZM240.195 9.7998C239.74 9.7998 239.37 9.95931 239.088 10.2783C238.81 10.5973 238.632 11.0417 238.555 11.6113H241.72V11.4883C241.683 10.9323 241.535 10.513 241.275 10.2305C241.016 9.94336 240.656 9.7998 240.195 9.7998ZM247.312 11.0371L248.72 8.60352H250.565L248.303 12.2471L250.641 16H248.809L247.332 13.4707L245.862 16H244.017L246.354 12.2471L244.099 8.60352H245.931L247.312 11.0371ZM254.92 12.4385H251.331V11.0986H254.92V12.4385ZM255.979 12.2471C255.979 11.1077 256.244 10.194 256.772 9.50586C257.301 8.81315 258.01 8.4668 258.898 8.4668C259.682 8.4668 260.316 8.74023 260.799 9.28711V5.5H262.46V16H260.956L260.874 15.2344C260.377 15.8359 259.714 16.1367 258.885 16.1367C258.019 16.1367 257.317 15.7881 256.779 15.0908C256.246 14.3936 255.979 13.4456 255.979 12.2471ZM257.641 12.3906C257.641 13.1426 257.784 13.7305 258.071 14.1543C258.363 14.5736 258.775 14.7832 259.309 14.7832C259.988 14.7832 260.484 14.4801 260.799 13.874V10.7158C260.493 10.1234 260.001 9.82715 259.322 9.82715C258.785 9.82715 258.37 10.0413 258.078 10.4697C257.786 10.8936 257.641 11.5339 257.641 12.3906ZM265.96 16H264.299V8.60352H265.96V16ZM264.196 6.68262C264.196 6.42741 264.276 6.21549 264.436 6.04688C264.6 5.87826 264.832 5.79395 265.133 5.79395C265.434 5.79395 265.666 5.87826 265.83 6.04688C265.994 6.21549 266.076 6.42741 266.076 6.68262C266.076 6.93327 265.994 7.1429 265.83 7.31152C265.666 7.47559 265.434 7.55762 265.133 7.55762C264.832 7.55762 264.6 7.47559 264.436 7.31152C264.276 7.1429 264.196 6.93327 264.196 6.68262ZM271.647 10.1211C271.429 10.0846 271.203 10.0664 270.971 10.0664C270.21 10.0664 269.697 10.3581 269.433 10.9414V16H267.771V8.60352H269.357L269.398 9.43066C269.799 8.78809 270.355 8.4668 271.066 8.4668C271.303 8.4668 271.499 8.4987 271.654 8.5625L271.647 10.1211ZM275.817 16.1367C274.765 16.1367 273.91 15.8063 273.254 15.1455C272.602 14.4801 272.276 13.596 272.276 12.4932V12.2881C272.276 11.5498 272.418 10.8913 272.7 10.3125C272.987 9.72917 273.388 9.27572 273.903 8.95215C274.418 8.62858 274.993 8.4668 275.626 8.4668C276.633 8.4668 277.41 8.78809 277.957 9.43066C278.508 10.0732 278.784 10.9824 278.784 12.1582V12.8281H273.951C274.001 13.4388 274.204 13.9219 274.56 14.2773C274.92 14.6328 275.371 14.8105 275.913 14.8105C276.674 14.8105 277.294 14.5029 277.772 13.8877L278.668 14.7422C278.372 15.1842 277.975 15.5283 277.479 15.7744C276.986 16.016 276.433 16.1367 275.817 16.1367ZM275.619 9.7998C275.163 9.7998 274.794 9.95931 274.512 10.2783C274.234 10.5973 274.056 11.0417 273.979 11.6113H277.144V11.4883C277.107 10.9323 276.959 10.513 276.699 10.2305C276.439 9.94336 276.079 9.7998 275.619 9.7998ZM283.118 14.8105C283.533 14.8105 283.877 14.6898 284.15 14.4482C284.424 14.2067 284.57 13.9082 284.588 13.5527H286.153C286.135 14.013 285.992 14.4437 285.723 14.8447C285.454 15.2412 285.089 15.5557 284.629 15.7881C284.169 16.0205 283.672 16.1367 283.139 16.1367C282.104 16.1367 281.284 15.8018 280.678 15.1318C280.072 14.4619 279.769 13.5368 279.769 12.3564V12.1855C279.769 11.0599 280.069 10.1598 280.671 9.48535C281.272 8.80632 282.093 8.4668 283.132 8.4668C284.011 8.4668 284.727 8.72428 285.278 9.23926C285.834 9.74967 286.126 10.4219 286.153 11.2559H284.588C284.57 10.832 284.424 10.4834 284.15 10.21C283.882 9.93652 283.537 9.7998 283.118 9.7998C282.58 9.7998 282.166 9.99577 281.874 10.3877C281.582 10.7751 281.434 11.3652 281.43 12.1582V12.4248C281.43 13.2269 281.573 13.8262 281.86 14.2227C282.152 14.6146 282.571 14.8105 283.118 14.8105ZM289.489 6.80566V8.60352H290.795V9.83398H289.489V13.9629C289.489 14.2454 289.544 14.4505 289.653 14.5781C289.767 14.7012 289.968 14.7627 290.255 14.7627C290.446 14.7627 290.64 14.7399 290.836 14.6943V15.9795C290.458 16.0843 290.093 16.1367 289.742 16.1367C288.466 16.1367 287.828 15.4326 287.828 14.0244V9.83398H286.611V8.60352H287.828V6.80566H289.489ZM293.837 16H292.176V8.60352H293.837V16ZM292.073 6.68262C292.073 6.42741 292.153 6.21549 292.312 6.04688C292.477 5.87826 292.709 5.79395 293.01 5.79395C293.311 5.79395 293.543 5.87826 293.707 6.04688C293.871 6.21549 293.953 6.42741 293.953 6.68262C293.953 6.93327 293.871 7.1429 293.707 7.31152C293.543 7.47559 293.311 7.55762 293.01 7.55762C292.709 7.55762 292.477 7.47559 292.312 7.31152C292.153 7.1429 292.073 6.93327 292.073 6.68262ZM295.341 12.2334C295.341 11.5088 295.484 10.8571 295.771 10.2783C296.059 9.69499 296.462 9.24837 296.981 8.93848C297.501 8.62402 298.098 8.4668 298.772 8.4668C299.771 8.4668 300.579 8.78809 301.199 9.43066C301.824 10.0732 302.161 10.9255 302.211 11.9873L302.218 12.377C302.218 13.1061 302.076 13.7578 301.794 14.332C301.516 14.9062 301.115 15.3506 300.591 15.665C300.071 15.9795 299.47 16.1367 298.786 16.1367C297.743 16.1367 296.906 15.7904 296.277 15.0977C295.653 14.4004 295.341 13.473 295.341 12.3154V12.2334ZM297.002 12.377C297.002 13.138 297.159 13.735 297.474 14.168C297.788 14.5964 298.226 14.8105 298.786 14.8105C299.347 14.8105 299.782 14.5918 300.092 14.1543C300.406 13.7168 300.563 13.0765 300.563 12.2334C300.563 11.486 300.402 10.8936 300.078 10.4561C299.759 10.0186 299.324 9.7998 298.772 9.7998C298.23 9.7998 297.799 10.0163 297.48 10.4492C297.161 10.8776 297.002 11.5202 297.002 12.377ZM305.164 8.60352L305.212 9.45801C305.759 8.7972 306.477 8.4668 307.365 8.4668C308.906 8.4668 309.689 9.34863 309.717 11.1123V16H308.056V11.208C308.056 10.7386 307.953 10.3923 307.748 10.1689C307.548 9.94108 307.217 9.82715 306.757 9.82715C306.087 9.82715 305.588 10.1302 305.26 10.7363V16H303.599V8.60352H305.164ZM312.417 14.25C312.727 14.25 312.966 14.3389 313.135 14.5166C313.303 14.6898 313.388 14.9085 313.388 15.1729C313.388 15.4326 313.303 15.6491 313.135 15.8223C312.966 15.9909 312.727 16.0752 312.417 16.0752C312.121 16.0752 311.886 15.9909 311.713 15.8223C311.54 15.6536 311.453 15.4372 311.453 15.1729C311.453 14.9085 311.537 14.6898 311.706 14.5166C311.875 14.3389 312.112 14.25 312.417 14.25ZM312.417 8.44629C312.727 8.44629 312.966 8.53516 313.135 8.71289C313.303 8.88607 313.388 9.10482 313.388 9.36914C313.388 9.62891 313.303 9.84538 313.135 10.0186C312.966 10.1872 312.727 10.2715 312.417 10.2715C312.121 10.2715 311.886 10.1872 311.713 10.0186C311.54 9.84993 311.453 9.63346 311.453 9.36914C311.453 9.10482 311.537 8.88607 311.706 8.71289C311.875 8.53516 312.112 8.44629 312.417 8.44629ZM366.113 8.44629C366.423 8.44629 366.662 8.53516 366.831 8.71289C367 8.88607 367.084 9.10482 367.084 9.36914C367.084 9.62891 367 9.84538 366.831 10.0186C366.662 10.1872 366.423 10.2715 366.113 10.2715C365.817 10.2715 365.582 10.1872 365.409 10.0186C365.236 9.84993 365.149 9.63346 365.149 9.36914C365.149 9.10482 365.234 8.88607 365.402 8.71289C365.571 8.53516 365.808 8.44629 366.113 8.44629ZM365.614 18.2422L364.719 17.709C364.983 17.2943 365.163 16.932 365.259 16.6221C365.359 16.3167 365.411 16.0046 365.416 15.6855V14.3936H366.913L366.906 15.5898C366.902 16.0729 366.779 16.556 366.537 17.0391C366.3 17.5267 365.993 17.9277 365.614 18.2422ZM230.584 26.6035V34.6562C230.584 35.4128 230.395 35.9893 230.017 36.3857C229.643 36.7868 229.094 36.9873 228.369 36.9873C228.064 36.9873 227.77 36.9486 227.487 36.8711V35.5586C227.66 35.5996 227.856 35.6201 228.075 35.6201C228.627 35.6201 228.909 35.3193 228.923 34.7178V26.6035H230.584ZM228.779 24.6826C228.779 24.4274 228.859 24.2155 229.019 24.0469C229.183 23.8783 229.415 23.7939 229.716 23.7939C230.017 23.7939 230.249 23.8783 230.413 24.0469C230.577 24.2155 230.659 24.4274 230.659 24.6826C230.659 24.9333 230.577 25.1429 230.413 25.3115C230.249 25.4756 230.017 25.5576 229.716 25.5576C229.415 25.5576 229.183 25.4756 229.019 25.3115C228.859 25.1429 228.779 24.9333 228.779 24.6826ZM236.846 33.2754C236.358 33.8496 235.665 34.1367 234.768 34.1367C233.965 34.1367 233.357 33.902 232.942 33.4326C232.532 32.9632 232.327 32.2842 232.327 31.3955V26.6035H233.988V31.375C233.988 32.3138 234.378 32.7832 235.157 32.7832C235.964 32.7832 236.508 32.4938 236.791 31.915V26.6035H238.452V34H236.887L236.846 33.2754ZM244.29 31.9902C244.29 31.694 244.167 31.4684 243.921 31.3135C243.679 31.1585 243.276 31.0218 242.711 30.9033C242.146 30.7848 241.674 30.6344 241.296 30.4521C240.466 30.0511 240.052 29.4701 240.052 28.709C240.052 28.071 240.321 27.5378 240.858 27.1094C241.396 26.681 242.08 26.4668 242.909 26.4668C243.793 26.4668 244.507 26.6855 245.049 27.123C245.596 27.5605 245.869 28.1279 245.869 28.8252H244.208C244.208 28.5062 244.09 28.2419 243.853 28.0322C243.616 27.818 243.301 27.7109 242.909 27.7109C242.545 27.7109 242.246 27.7952 242.014 27.9639C241.786 28.1325 241.672 28.3581 241.672 28.6406C241.672 28.8958 241.779 29.0941 241.993 29.2354C242.207 29.3766 242.64 29.5202 243.292 29.666C243.944 29.8073 244.454 29.9782 244.823 30.1787C245.197 30.3747 245.473 30.6117 245.65 30.8896C245.833 31.1676 245.924 31.5049 245.924 31.9014C245.924 32.5667 245.648 33.1068 245.097 33.5215C244.545 33.9316 243.823 34.1367 242.93 34.1367C242.324 34.1367 241.784 34.0273 241.31 33.8086C240.836 33.5898 240.466 33.2891 240.202 32.9062C239.938 32.5234 239.806 32.111 239.806 31.6689H241.419C241.442 32.0609 241.59 32.3639 241.863 32.5781C242.137 32.7878 242.499 32.8926 242.95 32.8926C243.388 32.8926 243.72 32.8105 243.948 32.6465C244.176 32.4779 244.29 32.2591 244.29 31.9902ZM249.458 24.8057V26.6035H250.764V27.834H249.458V31.9629C249.458 32.2454 249.513 32.4505 249.622 32.5781C249.736 32.7012 249.937 32.7627 250.224 32.7627C250.415 32.7627 250.609 32.7399 250.805 32.6943V33.9795C250.426 34.0843 250.062 34.1367 249.711 34.1367C248.435 34.1367 247.797 33.4326 247.797 32.0244V27.834H246.58V26.6035H247.797V24.8057H249.458ZM253.806 34H252.145V26.6035H253.806V34ZM252.042 24.6826C252.042 24.4274 252.122 24.2155 252.281 24.0469C252.445 23.8783 252.678 23.7939 252.979 23.7939C253.279 23.7939 253.512 23.8783 253.676 24.0469C253.84 24.2155 253.922 24.4274 253.922 24.6826C253.922 24.9333 253.84 25.1429 253.676 25.3115C253.512 25.4756 253.279 25.5576 252.979 25.5576C252.678 25.5576 252.445 25.4756 252.281 25.3115C252.122 25.1429 252.042 24.9333 252.042 24.6826ZM256.205 34V27.834H255.077V26.6035H256.205V25.9268C256.205 25.1064 256.433 24.473 256.889 24.0264C257.344 23.5798 257.982 23.3564 258.803 23.3564C259.094 23.3564 259.404 23.3975 259.732 23.4795L259.691 24.7783C259.509 24.7419 259.297 24.7236 259.056 24.7236C258.263 24.7236 257.866 25.1315 257.866 25.9473V26.6035H259.37V27.834H257.866V34H256.205ZM263.171 31.6211L264.675 26.6035H266.445L263.506 35.1211C263.055 36.3652 262.289 36.9873 261.209 36.9873C260.967 36.9873 260.701 36.9463 260.409 36.8643V35.5791L260.724 35.5996C261.143 35.5996 261.457 35.5221 261.667 35.3672C261.881 35.2168 262.05 34.9616 262.173 34.6016L262.412 33.9658L259.814 26.6035H261.605L263.171 31.6211ZM270.629 30.4385H267.04V29.0986H270.629V30.4385ZM275.038 32.8105C275.453 32.8105 275.797 32.6898 276.07 32.4482C276.344 32.2067 276.49 31.9082 276.508 31.5527H278.073C278.055 32.013 277.911 32.4437 277.643 32.8447C277.374 33.2412 277.009 33.5557 276.549 33.7881C276.089 34.0205 275.592 34.1367 275.059 34.1367C274.024 34.1367 273.204 33.8018 272.598 33.1318C271.992 32.4619 271.688 31.5368 271.688 30.3564V30.1855C271.688 29.0599 271.989 28.1598 272.591 27.4854C273.192 26.8063 274.013 26.4668 275.052 26.4668C275.931 26.4668 276.647 26.7243 277.198 27.2393C277.754 27.7497 278.046 28.4219 278.073 29.2559H276.508C276.49 28.832 276.344 28.4834 276.07 28.21C275.801 27.9365 275.457 27.7998 275.038 27.7998C274.5 27.7998 274.086 27.9958 273.794 28.3877C273.502 28.7751 273.354 29.3652 273.35 30.1582V30.4248C273.35 31.2269 273.493 31.8262 273.78 32.2227C274.072 32.6146 274.491 32.8105 275.038 32.8105ZM279.017 30.2334C279.017 29.5088 279.16 28.8571 279.447 28.2783C279.734 27.695 280.138 27.2484 280.657 26.9385C281.177 26.624 281.774 26.4668 282.448 26.4668C283.446 26.4668 284.255 26.7881 284.875 27.4307C285.499 28.0732 285.837 28.9255 285.887 29.9873L285.894 30.377C285.894 31.1061 285.752 31.7578 285.47 32.332C285.192 32.9062 284.791 33.3506 284.267 33.665C283.747 33.9795 283.146 34.1367 282.462 34.1367C281.418 34.1367 280.582 33.7904 279.953 33.0977C279.329 32.4004 279.017 31.473 279.017 30.3154V30.2334ZM280.678 30.377C280.678 31.138 280.835 31.735 281.149 32.168C281.464 32.5964 281.901 32.8105 282.462 32.8105C283.022 32.8105 283.458 32.5918 283.768 32.1543C284.082 31.7168 284.239 31.0765 284.239 30.2334C284.239 29.486 284.077 28.8936 283.754 28.4561C283.435 28.0186 283 27.7998 282.448 27.7998C281.906 27.7998 281.475 28.0163 281.156 28.4492C280.837 28.8776 280.678 29.5202 280.678 30.377ZM288.84 26.6035L288.888 27.458C289.435 26.7972 290.152 26.4668 291.041 26.4668C292.581 26.4668 293.365 27.3486 293.393 29.1123V34H291.731V29.208C291.731 28.7386 291.629 28.3923 291.424 28.1689C291.223 27.9411 290.893 27.8271 290.433 27.8271C289.763 27.8271 289.264 28.1302 288.936 28.7363V34H287.274V26.6035H288.84ZM297.173 24.8057V26.6035H298.479V27.834H297.173V31.9629C297.173 32.2454 297.228 32.4505 297.337 32.5781C297.451 32.7012 297.651 32.7627 297.938 32.7627C298.13 32.7627 298.324 32.7399 298.52 32.6943V33.9795C298.141 34.0843 297.777 34.1367 297.426 34.1367C296.15 34.1367 295.512 33.4326 295.512 32.0244V27.834H294.295V26.6035H295.512V24.8057H297.173ZM303.011 34.1367C301.958 34.1367 301.104 33.8063 300.447 33.1455C299.796 32.4801 299.47 31.596 299.47 30.4932V30.2881C299.47 29.5498 299.611 28.8913 299.894 28.3125C300.181 27.7292 300.582 27.2757 301.097 26.9521C301.612 26.6286 302.186 26.4668 302.819 26.4668C303.826 26.4668 304.604 26.7881 305.15 27.4307C305.702 28.0732 305.978 28.9824 305.978 30.1582V30.8281H301.145C301.195 31.4388 301.397 31.9219 301.753 32.2773C302.113 32.6328 302.564 32.8105 303.106 32.8105C303.868 32.8105 304.487 32.5029 304.966 31.8877L305.861 32.7422C305.565 33.1842 305.169 33.5283 304.672 33.7744C304.18 34.016 303.626 34.1367 303.011 34.1367ZM302.812 27.7998C302.357 27.7998 301.988 27.9593 301.705 28.2783C301.427 28.5973 301.249 29.0417 301.172 29.6113H304.337V29.4883C304.3 28.9323 304.152 28.513 303.893 28.2305C303.633 27.9434 303.273 27.7998 302.812 27.7998ZM308.814 26.6035L308.862 27.458C309.409 26.7972 310.127 26.4668 311.016 26.4668C312.556 26.4668 313.34 27.3486 313.367 29.1123V34H311.706V29.208C311.706 28.7386 311.604 28.3923 311.398 28.1689C311.198 27.9411 310.868 27.8271 310.407 27.8271C309.737 27.8271 309.238 28.1302 308.91 28.7363V34H307.249V26.6035H308.814ZM317.147 24.8057V26.6035H318.453V27.834H317.147V31.9629C317.147 32.2454 317.202 32.4505 317.312 32.5781C317.425 32.7012 317.626 32.7627 317.913 32.7627C318.104 32.7627 318.298 32.7399 318.494 32.6943V33.9795C318.116 34.0843 317.751 34.1367 317.4 34.1367C316.124 34.1367 315.486 33.4326 315.486 32.0244V27.834H314.27V26.6035H315.486V24.8057H317.147ZM320.729 32.25C321.039 32.25 321.279 32.3389 321.447 32.5166C321.616 32.6898 321.7 32.9085 321.7 33.1729C321.7 33.4326 321.616 33.6491 321.447 33.8223C321.279 33.9909 321.039 34.0752 320.729 34.0752C320.433 34.0752 320.199 33.9909 320.025 33.8223C319.852 33.6536 319.766 33.4372 319.766 33.1729C319.766 32.9085 319.85 32.6898 320.019 32.5166C320.187 32.3389 320.424 32.25 320.729 32.25ZM320.729 26.4463C321.039 26.4463 321.279 26.5352 321.447 26.7129C321.616 26.8861 321.7 27.1048 321.7 27.3691C321.7 27.6289 321.616 27.8454 321.447 28.0186C321.279 28.1872 321.039 28.2715 320.729 28.2715C320.433 28.2715 320.199 28.1872 320.025 28.0186C319.852 27.8499 319.766 27.6335 319.766 27.3691C319.766 27.1048 319.85 26.8861 320.019 26.7129C320.187 26.5352 320.424 26.4463 320.729 26.4463ZM423.234 26.4463C423.544 26.4463 423.784 26.5352 423.952 26.7129C424.121 26.8861 424.205 27.1048 424.205 27.3691C424.205 27.6289 424.121 27.8454 423.952 28.0186C423.784 28.1872 423.544 28.2715 423.234 28.2715C422.938 28.2715 422.703 28.1872 422.53 28.0186C422.357 27.8499 422.271 27.6335 422.271 27.3691C422.271 27.1048 422.355 26.8861 422.523 26.7129C422.692 26.5352 422.929 26.4463 423.234 26.4463ZM422.735 36.2422L421.84 35.709C422.104 35.2943 422.284 34.932 422.38 34.6221C422.48 34.3167 422.533 34.0046 422.537 33.6855V32.3936H424.034L424.027 33.5898C424.023 34.0729 423.9 34.556 423.658 35.0391C423.421 35.5267 423.114 35.9277 422.735 36.2422Z" fill="#444444"/>
<path d="M321.659 14.8105C322.074 14.8105 322.418 14.6898 322.691 14.4482C322.965 14.2067 323.111 13.9082 323.129 13.5527H324.694C324.676 14.013 324.533 14.4437 324.264 14.8447C323.995 15.2412 323.63 15.5557 323.17 15.7881C322.71 16.0205 322.213 16.1367 321.68 16.1367C320.645 16.1367 319.825 15.8018 319.219 15.1318C318.613 14.4619 318.31 13.5368 318.31 12.3564V12.1855C318.31 11.0599 318.61 10.1598 319.212 9.48535C319.813 8.80632 320.634 8.4668 321.673 8.4668C322.552 8.4668 323.268 8.72428 323.819 9.23926C324.375 9.74967 324.667 10.4219 324.694 11.2559H323.129C323.111 10.832 322.965 10.4834 322.691 10.21C322.423 9.93652 322.078 9.7998 321.659 9.7998C321.121 9.7998 320.707 9.99577 320.415 10.3877C320.123 10.7751 319.975 11.3652 319.971 12.1582V12.4248C319.971 13.2269 320.114 13.8262 320.401 14.2227C320.693 14.6146 321.112 14.8105 321.659 14.8105ZM325.638 12.2334C325.638 11.5088 325.781 10.8571 326.068 10.2783C326.355 9.69499 326.759 9.24837 327.278 8.93848C327.798 8.62402 328.395 8.4668 329.069 8.4668C330.067 8.4668 330.876 8.78809 331.496 9.43066C332.12 10.0732 332.458 10.9255 332.508 11.9873L332.515 12.377C332.515 13.1061 332.373 13.7578 332.091 14.332C331.813 14.9062 331.412 15.3506 330.888 15.665C330.368 15.9795 329.767 16.1367 329.083 16.1367C328.039 16.1367 327.203 15.7904 326.574 15.0977C325.95 14.4004 325.638 13.473 325.638 12.3154V12.2334ZM327.299 12.377C327.299 13.138 327.456 13.735 327.771 14.168C328.085 14.5964 328.522 14.8105 329.083 14.8105C329.644 14.8105 330.079 14.5918 330.389 14.1543C330.703 13.7168 330.86 13.0765 330.86 12.2334C330.86 11.486 330.699 10.8936 330.375 10.4561C330.056 10.0186 329.621 9.7998 329.069 9.7998C328.527 9.7998 328.096 10.0163 327.777 10.4492C327.458 10.8776 327.299 11.5202 327.299 12.377ZM335.687 16H334.025V5.5H335.687V16ZM341.982 15.2754C341.495 15.8496 340.802 16.1367 339.904 16.1367C339.102 16.1367 338.494 15.902 338.079 15.4326C337.669 14.9632 337.464 14.2842 337.464 13.3955V8.60352H339.125V13.375C339.125 14.3138 339.515 14.7832 340.294 14.7832C341.101 14.7832 341.645 14.4938 341.928 13.915V8.60352H343.589V16H342.023L341.982 15.2754ZM346.843 8.60352L346.891 9.37598C347.41 8.76986 348.121 8.4668 349.023 8.4668C350.012 8.4668 350.689 8.84505 351.054 9.60156C351.591 8.84505 352.348 8.4668 353.323 8.4668C354.139 8.4668 354.745 8.69238 355.142 9.14355C355.543 9.59473 355.748 10.2601 355.757 11.1396V16H354.096V11.1875C354.096 10.7181 353.993 10.374 353.788 10.1553C353.583 9.93652 353.243 9.82715 352.77 9.82715C352.391 9.82715 352.081 9.92969 351.84 10.1348C351.603 10.3353 351.437 10.5996 351.341 10.9277L351.348 16H349.687V11.1328C349.664 10.2624 349.219 9.82715 348.354 9.82715C347.688 9.82715 347.216 10.0983 346.938 10.6406V16H345.277V8.60352H346.843ZM359.004 8.60352L359.052 9.45801C359.599 8.7972 360.316 8.4668 361.205 8.4668C362.745 8.4668 363.529 9.34863 363.557 11.1123V16H361.896V11.208C361.896 10.7386 361.793 10.3923 361.588 10.1689C361.387 9.94108 361.057 9.82715 360.597 9.82715C359.927 9.82715 359.428 10.1302 359.1 10.7363V16H357.438V8.60352H359.004ZM331.079 31.9902C331.079 31.694 330.956 31.4684 330.71 31.3135C330.468 31.1585 330.065 31.0218 329.5 30.9033C328.935 30.7848 328.463 30.6344 328.085 30.4521C327.256 30.0511 326.841 29.4701 326.841 28.709C326.841 28.071 327.11 27.5378 327.647 27.1094C328.185 26.681 328.869 26.4668 329.698 26.4668C330.582 26.4668 331.296 26.6855 331.838 27.123C332.385 27.5605 332.658 28.1279 332.658 28.8252H330.997C330.997 28.5062 330.879 28.2419 330.642 28.0322C330.405 27.818 330.09 27.7109 329.698 27.7109C329.334 27.7109 329.035 27.7952 328.803 27.9639C328.575 28.1325 328.461 28.3581 328.461 28.6406C328.461 28.8958 328.568 29.0941 328.782 29.2354C328.996 29.3766 329.429 29.5202 330.081 29.666C330.733 29.8073 331.243 29.9782 331.612 30.1787C331.986 30.3747 332.262 30.6117 332.439 30.8896C332.622 31.1676 332.713 31.5049 332.713 31.9014C332.713 32.5667 332.437 33.1068 331.886 33.5215C331.334 33.9316 330.612 34.1367 329.719 34.1367C329.113 34.1367 328.573 34.0273 328.099 33.8086C327.625 33.5898 327.256 33.2891 326.991 32.9062C326.727 32.5234 326.595 32.111 326.595 31.6689H328.208C328.231 32.0609 328.379 32.3639 328.652 32.5781C328.926 32.7878 329.288 32.8926 329.739 32.8926C330.177 32.8926 330.509 32.8105 330.737 32.6465C330.965 32.4779 331.079 32.2591 331.079 31.9902ZM340.643 30.377C340.643 31.5208 340.383 32.4346 339.863 33.1182C339.344 33.7972 338.646 34.1367 337.771 34.1367C336.96 34.1367 336.311 33.8701 335.823 33.3369V36.8438H334.162V26.6035H335.693L335.762 27.3555C336.249 26.763 336.912 26.4668 337.751 26.4668C338.653 26.4668 339.36 26.804 339.87 27.4785C340.385 28.1484 340.643 29.0804 340.643 30.2744V30.377ZM338.988 30.2334C338.988 29.4951 338.84 28.9095 338.544 28.4766C338.252 28.0436 337.833 27.8271 337.286 27.8271C336.607 27.8271 336.119 28.1074 335.823 28.668V31.9492C336.124 32.5234 336.616 32.8105 337.3 32.8105C337.828 32.8105 338.241 32.5986 338.537 32.1748C338.838 31.7464 338.988 31.0993 338.988 30.2334ZM346.474 34C346.401 33.8587 346.337 33.6286 346.282 33.3096C345.754 33.861 345.106 34.1367 344.341 34.1367C343.598 34.1367 342.992 33.9248 342.522 33.501C342.053 33.0771 341.818 32.5531 341.818 31.9287C341.818 31.1403 342.11 30.5365 342.693 30.1172C343.281 29.6934 344.12 29.4814 345.209 29.4814H346.228V28.9961C346.228 28.6133 346.12 28.3079 345.906 28.0801C345.692 27.8477 345.366 27.7314 344.929 27.7314C344.55 27.7314 344.241 27.8271 343.999 28.0186C343.757 28.2054 343.637 28.4447 343.637 28.7363H341.976C341.976 28.3307 342.11 27.9525 342.379 27.6016C342.648 27.2461 343.012 26.9681 343.473 26.7676C343.938 26.5671 344.455 26.4668 345.024 26.4668C345.89 26.4668 346.581 26.6855 347.096 27.123C347.611 27.556 347.875 28.1667 347.889 28.9551V32.291C347.889 32.9564 347.982 33.4873 348.169 33.8838V34H346.474ZM344.648 32.8037C344.977 32.8037 345.284 32.724 345.571 32.5645C345.863 32.4049 346.082 32.1908 346.228 31.9219V30.5273H345.332C344.717 30.5273 344.254 30.6344 343.944 30.8486C343.634 31.0628 343.479 31.3659 343.479 31.7578C343.479 32.0768 343.584 32.332 343.794 32.5234C344.008 32.7103 344.293 32.8037 344.648 32.8037ZM352.667 32.8105C353.082 32.8105 353.426 32.6898 353.699 32.4482C353.973 32.2067 354.118 31.9082 354.137 31.5527H355.702C355.684 32.013 355.54 32.4437 355.271 32.8447C355.003 33.2412 354.638 33.5557 354.178 33.7881C353.717 34.0205 353.221 34.1367 352.688 34.1367C351.653 34.1367 350.833 33.8018 350.227 33.1318C349.62 32.4619 349.317 31.5368 349.317 30.3564V30.1855C349.317 29.0599 349.618 28.1598 350.22 27.4854C350.821 26.8063 351.642 26.4668 352.681 26.4668C353.56 26.4668 354.276 26.7243 354.827 27.2393C355.383 27.7497 355.675 28.4219 355.702 29.2559H354.137C354.118 28.832 353.973 28.4834 353.699 28.21C353.43 27.9365 353.086 27.7998 352.667 27.7998C352.129 27.7998 351.715 27.9958 351.423 28.3877C351.131 28.7751 350.983 29.3652 350.979 30.1582V30.4248C350.979 31.2269 351.122 31.8262 351.409 32.2227C351.701 32.6146 352.12 32.8105 352.667 32.8105ZM360.214 34.1367C359.161 34.1367 358.307 33.8063 357.65 33.1455C356.999 32.4801 356.673 31.596 356.673 30.4932V30.2881C356.673 29.5498 356.814 28.8913 357.097 28.3125C357.384 27.7292 357.785 27.2757 358.3 26.9521C358.815 26.6286 359.389 26.4668 360.022 26.4668C361.03 26.4668 361.807 26.7881 362.354 27.4307C362.905 28.0732 363.181 28.9824 363.181 30.1582V30.8281H358.348C358.398 31.4388 358.601 31.9219 358.956 32.2773C359.316 32.6328 359.767 32.8105 360.31 32.8105C361.071 32.8105 361.69 32.5029 362.169 31.8877L363.064 32.7422C362.768 33.1842 362.372 33.5283 361.875 33.7744C361.383 34.016 360.829 34.1367 360.214 34.1367ZM360.016 27.7998C359.56 27.7998 359.191 27.9593 358.908 28.2783C358.63 28.5973 358.452 29.0417 358.375 29.6113H361.54V29.4883C361.504 28.9323 361.355 28.513 361.096 28.2305C360.836 27.9434 360.476 27.7998 360.016 27.7998ZM367.699 30.4385H364.11V29.0986H367.699V30.4385ZM375.561 30.377C375.561 31.5254 375.303 32.4391 374.788 33.1182C374.278 33.7972 373.574 34.1367 372.676 34.1367C371.81 34.1367 371.135 33.8245 370.652 33.2002L370.57 34H369.066V23.5H370.728V27.3145C371.206 26.7493 371.851 26.4668 372.662 26.4668C373.564 26.4668 374.273 26.8018 374.788 27.4717C375.303 28.1416 375.561 29.0781 375.561 30.2812V30.377ZM373.899 30.2334C373.899 29.4313 373.758 28.8298 373.476 28.4287C373.193 28.0277 372.783 27.8271 372.245 27.8271C371.525 27.8271 371.019 28.1416 370.728 28.7705V31.8193C371.024 32.4619 371.534 32.7832 372.259 32.7832C372.778 32.7832 373.179 32.5895 373.462 32.2021C373.744 31.8148 373.89 31.2292 373.899 30.4453V30.2334ZM380.216 34.1367C379.163 34.1367 378.309 33.8063 377.652 33.1455C377.001 32.4801 376.675 31.596 376.675 30.4932V30.2881C376.675 29.5498 376.816 28.8913 377.099 28.3125C377.386 27.7292 377.787 27.2757 378.302 26.9521C378.817 26.6286 379.391 26.4668 380.024 26.4668C381.032 26.4668 381.809 26.7881 382.355 27.4307C382.907 28.0732 383.183 28.9824 383.183 30.1582V30.8281H378.35C378.4 31.4388 378.603 31.9219 378.958 32.2773C379.318 32.6328 379.769 32.8105 380.312 32.8105C381.073 32.8105 381.692 32.5029 382.171 31.8877L383.066 32.7422C382.77 33.1842 382.374 33.5283 381.877 33.7744C381.385 34.016 380.831 34.1367 380.216 34.1367ZM380.018 27.7998C379.562 27.7998 379.193 27.9593 378.91 28.2783C378.632 28.5973 378.454 29.0417 378.377 29.6113H381.542V29.4883C381.506 28.9323 381.357 28.513 381.098 28.2305C380.838 27.9434 380.478 27.7998 380.018 27.7998ZM386.56 24.8057V26.6035H387.865V27.834H386.56V31.9629C386.56 32.2454 386.614 32.4505 386.724 32.5781C386.838 32.7012 387.038 32.7627 387.325 32.7627C387.517 32.7627 387.71 32.7399 387.906 32.6943V33.9795C387.528 34.0843 387.163 34.1367 386.812 34.1367C385.536 34.1367 384.898 33.4326 384.898 32.0244V27.834H383.682V26.6035H384.898V24.8057H386.56ZM395.638 31.71L396.813 26.6035H398.434L396.417 34H395.05L393.464 28.9209L391.905 34H390.538L388.515 26.6035H390.135L391.331 31.6553L392.849 26.6035H394.1L395.638 31.71ZM402.802 34.1367C401.749 34.1367 400.895 33.8063 400.238 33.1455C399.587 32.4801 399.261 31.596 399.261 30.4932V30.2881C399.261 29.5498 399.402 28.8913 399.685 28.3125C399.972 27.7292 400.373 27.2757 400.888 26.9521C401.403 26.6286 401.977 26.4668 402.61 26.4668C403.618 26.4668 404.395 26.7881 404.941 27.4307C405.493 28.0732 405.769 28.9824 405.769 30.1582V30.8281H400.936C400.986 31.4388 401.188 31.9219 401.544 32.2773C401.904 32.6328 402.355 32.8105 402.897 32.8105C403.659 32.8105 404.278 32.5029 404.757 31.8877L405.652 32.7422C405.356 33.1842 404.96 33.5283 404.463 33.7744C403.971 34.016 403.417 34.1367 402.802 34.1367ZM402.604 27.7998C402.148 27.7998 401.779 27.9593 401.496 28.2783C401.218 28.5973 401.04 29.0417 400.963 29.6113H404.128V29.4883C404.091 28.9323 403.943 28.513 403.684 28.2305C403.424 27.9434 403.064 27.7998 402.604 27.7998ZM410.321 34.1367C409.269 34.1367 408.414 33.8063 407.758 33.1455C407.106 32.4801 406.78 31.596 406.78 30.4932V30.2881C406.78 29.5498 406.922 28.8913 407.204 28.3125C407.491 27.7292 407.892 27.2757 408.407 26.9521C408.922 26.6286 409.496 26.4668 410.13 26.4668C411.137 26.4668 411.914 26.7881 412.461 27.4307C413.012 28.0732 413.288 28.9824 413.288 30.1582V30.8281H408.455C408.505 31.4388 408.708 31.9219 409.063 32.2773C409.424 32.6328 409.875 32.8105 410.417 32.8105C411.178 32.8105 411.798 32.5029 412.276 31.8877L413.172 32.7422C412.876 33.1842 412.479 33.5283 411.982 33.7744C411.49 34.016 410.937 34.1367 410.321 34.1367ZM410.123 27.7998C409.667 27.7998 409.298 27.9593 409.016 28.2783C408.738 28.5973 408.56 29.0417 408.482 29.6113H411.647V29.4883C411.611 28.9323 411.463 28.513 411.203 28.2305C410.943 27.9434 410.583 27.7998 410.123 27.7998ZM416.125 26.6035L416.173 27.458C416.72 26.7972 417.438 26.4668 418.326 26.4668C419.867 26.4668 420.65 27.3486 420.678 29.1123V34H419.017V29.208C419.017 28.7386 418.914 28.3923 418.709 28.1689C418.508 27.9411 418.178 27.8271 417.718 27.8271C417.048 27.8271 416.549 28.1302 416.221 28.7363V34H414.56V26.6035H416.125Z" fill="#1E73FF"/>
<path d="M407.707 158.128C407.317 158.519 406.683 158.519 406.293 158.128L399.929 151.764C399.538 151.374 399.538 150.74 399.929 150.35C400.319 149.959 400.953 149.959 401.343 150.35L407 156.007L412.657 150.35C413.047 149.959 413.681 149.959 414.071 150.35C414.462 150.74 414.462 151.374 414.071 151.764L407.707 158.128ZM406.293 47.8717C406.683 47.4812 407.317 47.4812 407.707 47.8717L414.071 54.2356C414.462 54.6262 414.462 55.2593 414.071 55.6499C413.681 56.0404 413.047 56.0404 412.657 55.6499L407 49.993L401.343 55.6499C400.953 56.0404 400.319 56.0404 399.929 55.6499C399.538 55.2593 399.538 54.6262 399.929 54.2356L406.293 47.8717ZM406 157.421V154.452H408V157.421H406ZM406 150.495V144.558H408V150.495H406ZM406 140.6V134.663H408V140.6H406ZM406 130.705V124.768H408V130.705H406ZM406 120.81V114.874H408V120.81H406ZM406 110.916V104.979H408V110.916H406ZM406 101.021V95.0841H408V101.021H406ZM406 91.1262V85.1893H408V91.1262H406ZM406 81.2314V75.2946H408V81.2314H406ZM406 71.3367V65.3998H408V71.3367H406ZM406 61.4419V55.5051H408V61.4419H406ZM406 51.5472V48.5788H408V51.5472H406Z" fill="#1E73FF"/>
<rect width="32" height="39" transform="translate(391 82)" fill="white"/>
<path d="M393.848 91.6035L393.896 92.376C394.415 91.7699 395.126 91.4668 396.028 91.4668C397.017 91.4668 397.694 91.8451 398.059 92.6016C398.596 91.8451 399.353 91.4668 400.328 91.4668C401.144 91.4668 401.75 91.6924 402.146 92.1436C402.548 92.5947 402.753 93.2601 402.762 94.1396V99H401.101V94.1875C401.101 93.7181 400.998 93.374 400.793 93.1553C400.588 92.9365 400.248 92.8271 399.774 92.8271C399.396 92.8271 399.086 92.9297 398.845 93.1348C398.608 93.3353 398.441 93.5996 398.346 93.9277L398.353 99H396.691V94.1328C396.669 93.2624 396.224 92.8271 395.358 92.8271C394.693 92.8271 394.221 93.0983 393.943 93.6406V99H392.282V91.6035H393.848ZM408.887 99C408.814 98.8587 408.75 98.6286 408.695 98.3096C408.167 98.861 407.52 99.1367 406.754 99.1367C406.011 99.1367 405.405 98.9248 404.936 98.501C404.466 98.0771 404.231 97.5531 404.231 96.9287C404.231 96.1403 404.523 95.5365 405.106 95.1172C405.694 94.6934 406.533 94.4814 407.622 94.4814H408.641V93.9961C408.641 93.6133 408.534 93.3079 408.319 93.0801C408.105 92.8477 407.779 92.7314 407.342 92.7314C406.964 92.7314 406.654 92.8271 406.412 93.0186C406.171 93.2054 406.05 93.4447 406.05 93.7363H404.389C404.389 93.3307 404.523 92.9525 404.792 92.6016C405.061 92.2461 405.425 91.9681 405.886 91.7676C406.351 91.5671 406.868 91.4668 407.438 91.4668C408.303 91.4668 408.994 91.6855 409.509 92.123C410.024 92.556 410.288 93.1667 410.302 93.9551V97.291C410.302 97.9564 410.395 98.4873 410.582 98.8838V99H408.887ZM407.062 97.8037C407.39 97.8037 407.697 97.724 407.984 97.5645C408.276 97.4049 408.495 97.1908 408.641 96.9219V95.5273H407.745C407.13 95.5273 406.667 95.6344 406.357 95.8486C406.048 96.0628 405.893 96.3659 405.893 96.7578C405.893 97.0768 405.997 97.332 406.207 97.5234C406.421 97.7103 406.706 97.8037 407.062 97.8037ZM413.809 99H412.147V91.6035H413.809V99ZM412.045 89.6826C412.045 89.4274 412.125 89.2155 412.284 89.0469C412.448 88.8783 412.681 88.7939 412.981 88.7939C413.282 88.7939 413.515 88.8783 413.679 89.0469C413.843 89.2155 413.925 89.4274 413.925 89.6826C413.925 89.9333 413.843 90.1429 413.679 90.3115C413.515 90.4756 413.282 90.5576 412.981 90.5576C412.681 90.5576 412.448 90.4756 412.284 90.3115C412.125 90.1429 412.045 89.9333 412.045 89.6826ZM417.165 91.6035L417.213 92.458C417.76 91.7972 418.478 91.4668 419.366 91.4668C420.907 91.4668 421.69 92.3486 421.718 94.1123V99H420.057V94.208C420.057 93.7386 419.954 93.3923 419.749 93.1689C419.549 92.9411 419.218 92.8271 418.758 92.8271C418.088 92.8271 417.589 93.1302 417.261 93.7363V99H415.6V91.6035H417.165ZM399.556 114C399.483 113.859 399.419 113.629 399.364 113.31C398.836 113.861 398.188 114.137 397.423 114.137C396.68 114.137 396.074 113.925 395.604 113.501C395.135 113.077 394.9 112.553 394.9 111.929C394.9 111.14 395.192 110.536 395.775 110.117C396.363 109.693 397.202 109.481 398.291 109.481H399.31V108.996C399.31 108.613 399.202 108.308 398.988 108.08C398.774 107.848 398.448 107.731 398.011 107.731C397.632 107.731 397.323 107.827 397.081 108.019C396.84 108.205 396.719 108.445 396.719 108.736H395.058C395.058 108.331 395.192 107.952 395.461 107.602C395.73 107.246 396.094 106.968 396.555 106.768C397.02 106.567 397.537 106.467 398.106 106.467C398.972 106.467 399.663 106.686 400.178 107.123C400.693 107.556 400.957 108.167 400.971 108.955V112.291C400.971 112.956 401.064 113.487 401.251 113.884V114H399.556ZM397.73 112.804C398.059 112.804 398.366 112.724 398.653 112.564C398.945 112.405 399.164 112.191 399.31 111.922V110.527H398.414C397.799 110.527 397.336 110.634 397.026 110.849C396.716 111.063 396.562 111.366 396.562 111.758C396.562 112.077 396.666 112.332 396.876 112.523C397.09 112.71 397.375 112.804 397.73 112.804ZM405.366 109.037L406.774 106.604H408.62L406.357 110.247L408.695 114H406.863L405.387 111.471L403.917 114H402.071L404.409 110.247L402.153 106.604H403.985L405.366 109.037ZM411.519 114H409.857V106.604H411.519V114ZM409.755 104.683C409.755 104.427 409.835 104.215 409.994 104.047C410.158 103.878 410.391 103.794 410.691 103.794C410.992 103.794 411.225 103.878 411.389 104.047C411.553 104.215 411.635 104.427 411.635 104.683C411.635 104.933 411.553 105.143 411.389 105.312C411.225 105.476 410.992 105.558 410.691 105.558C410.391 105.558 410.158 105.476 409.994 105.312C409.835 105.143 409.755 104.933 409.755 104.683ZM417.479 111.99C417.479 111.694 417.356 111.468 417.11 111.313C416.869 111.159 416.465 111.022 415.9 110.903C415.335 110.785 414.864 110.634 414.485 110.452C413.656 110.051 413.241 109.47 413.241 108.709C413.241 108.071 413.51 107.538 414.048 107.109C414.586 106.681 415.269 106.467 416.099 106.467C416.983 106.467 417.696 106.686 418.238 107.123C418.785 107.561 419.059 108.128 419.059 108.825H417.397C417.397 108.506 417.279 108.242 417.042 108.032C416.805 107.818 416.491 107.711 416.099 107.711C415.734 107.711 415.436 107.795 415.203 107.964C414.975 108.132 414.861 108.358 414.861 108.641C414.861 108.896 414.968 109.094 415.183 109.235C415.397 109.377 415.83 109.52 416.481 109.666C417.133 109.807 417.644 109.978 418.013 110.179C418.386 110.375 418.662 110.612 418.84 110.89C419.022 111.168 419.113 111.505 419.113 111.901C419.113 112.567 418.838 113.107 418.286 113.521C417.735 113.932 417.012 114.137 416.119 114.137C415.513 114.137 414.973 114.027 414.499 113.809C414.025 113.59 413.656 113.289 413.392 112.906C413.127 112.523 412.995 112.111 412.995 111.669H414.608C414.631 112.061 414.779 112.364 415.053 112.578C415.326 112.788 415.688 112.893 416.14 112.893C416.577 112.893 416.91 112.811 417.138 112.646C417.366 112.478 417.479 112.259 417.479 111.99Z" fill="#1E73FF"/>
<path d="M387.865 175.707C388.256 175.317 388.256 174.683 387.865 174.293L381.501 167.929C381.111 167.538 380.478 167.538 380.087 167.929C379.697 168.319 379.697 168.953 380.087 169.343L385.744 175L380.087 180.657C379.697 181.047 379.697 181.681 380.087 182.071C380.478 182.462 381.111 182.462 381.501 182.071L387.865 175.707ZM228.135 174.293C227.745 174.683 227.745 175.317 228.135 175.707L234.499 182.071C234.89 182.462 235.523 182.462 235.913 182.071C236.304 181.681 236.304 181.047 235.913 180.657L230.257 175L235.913 169.343C236.304 168.953 236.304 168.319 235.913 167.929C235.523 167.538 234.89 167.538 234.499 167.929L228.135 174.293ZM387.158 174L384.19 174L384.19 176L387.158 176L387.158 174ZM380.232 174L374.295 174L374.295 176L380.232 176L380.232 174ZM370.337 174L364.4 174L364.4 176L370.337 176L370.337 174ZM360.442 174L354.506 174L354.506 176L360.442 176L360.442 174ZM350.548 174L344.611 174L344.611 176L350.548 176L350.548 174ZM340.653 174L334.716 174L334.716 176L340.653 176L340.653 174ZM330.758 174L324.821 174L324.821 176L330.758 176L330.758 174ZM320.863 174L314.927 174L314.927 176L320.863 176L320.863 174ZM310.969 174L305.032 174L305.032 176L310.969 176L310.969 174ZM301.074 174L295.137 174L295.137 176L301.074 176L301.074 174ZM291.179 174L285.242 174L285.242 176L291.179 176L291.179 174ZM281.285 174L275.348 174L275.348 176L281.285 176L281.285 174ZM271.39 174L265.453 174L265.453 176L271.39 176L271.39 174ZM261.495 174L255.558 174L255.558 176L261.495 176L261.495 174ZM251.6 174L245.663 174L245.663 176L251.6 176L251.6 174ZM241.706 174L235.769 174L235.769 176L241.706 176L241.706 174ZM231.811 174L228.842 174L228.842 176L231.811 176L231.811 174Z" fill="#00986B"/>
<rect width="66" height="18" transform="translate(275 166)" fill="white"/>
<path d="M280.212 178.811C280.627 178.811 280.971 178.69 281.244 178.448C281.518 178.207 281.663 177.908 281.682 177.553H283.247C283.229 178.013 283.085 178.444 282.816 178.845C282.548 179.241 282.183 179.556 281.723 179.788C281.262 180.021 280.766 180.137 280.232 180.137C279.198 180.137 278.378 179.802 277.771 179.132C277.165 178.462 276.862 177.537 276.862 176.356V176.186C276.862 175.06 277.163 174.16 277.765 173.485C278.366 172.806 279.187 172.467 280.226 172.467C281.105 172.467 281.821 172.724 282.372 173.239C282.928 173.75 283.22 174.422 283.247 175.256H281.682C281.663 174.832 281.518 174.483 281.244 174.21C280.975 173.937 280.631 173.8 280.212 173.8C279.674 173.8 279.259 173.996 278.968 174.388C278.676 174.775 278.528 175.365 278.523 176.158V176.425C278.523 177.227 278.667 177.826 278.954 178.223C279.246 178.615 279.665 178.811 280.212 178.811ZM288.374 174.121C288.155 174.085 287.93 174.066 287.697 174.066C286.936 174.066 286.424 174.358 286.159 174.941V180H284.498V172.604H286.084L286.125 173.431C286.526 172.788 287.082 172.467 287.793 172.467C288.03 172.467 288.226 172.499 288.381 172.562L288.374 174.121ZM288.866 176.233C288.866 175.509 289.01 174.857 289.297 174.278C289.584 173.695 289.987 173.248 290.507 172.938C291.026 172.624 291.623 172.467 292.298 172.467C293.296 172.467 294.105 172.788 294.725 173.431C295.349 174.073 295.686 174.925 295.736 175.987L295.743 176.377C295.743 177.106 295.602 177.758 295.319 178.332C295.041 178.906 294.64 179.351 294.116 179.665C293.597 179.979 292.995 180.137 292.312 180.137C291.268 180.137 290.432 179.79 289.803 179.098C289.178 178.4 288.866 177.473 288.866 176.315V176.233ZM290.527 176.377C290.527 177.138 290.685 177.735 290.999 178.168C291.313 178.596 291.751 178.811 292.312 178.811C292.872 178.811 293.307 178.592 293.617 178.154C293.932 177.717 294.089 177.076 294.089 176.233C294.089 175.486 293.927 174.894 293.604 174.456C293.285 174.019 292.849 173.8 292.298 173.8C291.756 173.8 291.325 174.016 291.006 174.449C290.687 174.878 290.527 175.52 290.527 176.377ZM301.294 177.99C301.294 177.694 301.171 177.468 300.925 177.313C300.683 177.159 300.28 177.022 299.715 176.903C299.15 176.785 298.678 176.634 298.3 176.452C297.47 176.051 297.056 175.47 297.056 174.709C297.056 174.071 297.325 173.538 297.862 173.109C298.4 172.681 299.084 172.467 299.913 172.467C300.797 172.467 301.51 172.686 302.053 173.123C302.6 173.561 302.873 174.128 302.873 174.825H301.212C301.212 174.506 301.093 174.242 300.856 174.032C300.619 173.818 300.305 173.711 299.913 173.711C299.549 173.711 299.25 173.795 299.018 173.964C298.79 174.132 298.676 174.358 298.676 174.641C298.676 174.896 298.783 175.094 298.997 175.235C299.211 175.377 299.644 175.52 300.296 175.666C300.948 175.807 301.458 175.978 301.827 176.179C302.201 176.375 302.477 176.612 302.654 176.89C302.837 177.168 302.928 177.505 302.928 177.901C302.928 178.567 302.652 179.107 302.101 179.521C301.549 179.932 300.827 180.137 299.934 180.137C299.327 180.137 298.787 180.027 298.313 179.809C297.84 179.59 297.47 179.289 297.206 178.906C296.942 178.523 296.81 178.111 296.81 177.669H298.423C298.446 178.061 298.594 178.364 298.867 178.578C299.141 178.788 299.503 178.893 299.954 178.893C300.392 178.893 300.724 178.811 300.952 178.646C301.18 178.478 301.294 178.259 301.294 177.99ZM308.526 177.99C308.526 177.694 308.403 177.468 308.157 177.313C307.916 177.159 307.512 177.022 306.947 176.903C306.382 176.785 305.91 176.634 305.532 176.452C304.703 176.051 304.288 175.47 304.288 174.709C304.288 174.071 304.557 173.538 305.095 173.109C305.632 172.681 306.316 172.467 307.146 172.467C308.03 172.467 308.743 172.686 309.285 173.123C309.832 173.561 310.105 174.128 310.105 174.825H308.444C308.444 174.506 308.326 174.242 308.089 174.032C307.852 173.818 307.537 173.711 307.146 173.711C306.781 173.711 306.482 173.795 306.25 173.964C306.022 174.132 305.908 174.358 305.908 174.641C305.908 174.896 306.015 175.094 306.229 175.235C306.444 175.377 306.877 175.52 307.528 175.666C308.18 175.807 308.69 175.978 309.06 176.179C309.433 176.375 309.709 176.612 309.887 176.89C310.069 177.168 310.16 177.505 310.16 177.901C310.16 178.567 309.884 179.107 309.333 179.521C308.782 179.932 308.059 180.137 307.166 180.137C306.56 180.137 306.02 180.027 305.546 179.809C305.072 179.59 304.703 179.289 304.438 178.906C304.174 178.523 304.042 178.111 304.042 177.669H305.655C305.678 178.061 305.826 178.364 306.1 178.578C306.373 178.788 306.735 178.893 307.187 178.893C307.624 178.893 307.957 178.811 308.185 178.646C308.412 178.478 308.526 178.259 308.526 177.99ZM319.519 180C319.446 179.859 319.382 179.629 319.327 179.31C318.799 179.861 318.151 180.137 317.386 180.137C316.643 180.137 316.037 179.925 315.567 179.501C315.098 179.077 314.863 178.553 314.863 177.929C314.863 177.14 315.155 176.536 315.738 176.117C316.326 175.693 317.165 175.481 318.254 175.481H319.272V174.996C319.272 174.613 319.165 174.308 318.951 174.08C318.737 173.848 318.411 173.731 317.974 173.731C317.595 173.731 317.285 173.827 317.044 174.019C316.802 174.205 316.682 174.445 316.682 174.736H315.021C315.021 174.331 315.155 173.952 315.424 173.602C315.693 173.246 316.057 172.968 316.518 172.768C316.982 172.567 317.5 172.467 318.069 172.467C318.935 172.467 319.626 172.686 320.141 173.123C320.656 173.556 320.92 174.167 320.934 174.955V178.291C320.934 178.956 321.027 179.487 321.214 179.884V180H319.519ZM317.693 178.804C318.021 178.804 318.329 178.724 318.616 178.564C318.908 178.405 319.127 178.191 319.272 177.922V176.527H318.377C317.762 176.527 317.299 176.634 316.989 176.849C316.679 177.063 316.524 177.366 316.524 177.758C316.524 178.077 316.629 178.332 316.839 178.523C317.053 178.71 317.338 178.804 317.693 178.804ZM325.329 175.037L326.737 172.604H328.583L326.32 176.247L328.658 180H326.826L325.35 177.471L323.88 180H322.034L324.372 176.247L322.116 172.604H323.948L325.329 175.037ZM331.481 180H329.82V172.604H331.481V180ZM329.718 170.683C329.718 170.427 329.798 170.215 329.957 170.047C330.121 169.878 330.354 169.794 330.654 169.794C330.955 169.794 331.188 169.878 331.352 170.047C331.516 170.215 331.598 170.427 331.598 170.683C331.598 170.933 331.516 171.143 331.352 171.312C331.188 171.476 330.955 171.558 330.654 171.558C330.354 171.558 330.121 171.476 329.957 171.312C329.798 171.143 329.718 170.933 329.718 170.683ZM337.442 177.99C337.442 177.694 337.319 177.468 337.073 177.313C336.832 177.159 336.428 177.022 335.863 176.903C335.298 176.785 334.826 176.634 334.448 176.452C333.619 176.051 333.204 175.47 333.204 174.709C333.204 174.071 333.473 173.538 334.011 173.109C334.549 172.681 335.232 172.467 336.062 172.467C336.946 172.467 337.659 172.686 338.201 173.123C338.748 173.561 339.021 174.128 339.021 174.825H337.36C337.36 174.506 337.242 174.242 337.005 174.032C336.768 173.818 336.453 173.711 336.062 173.711C335.697 173.711 335.398 173.795 335.166 173.964C334.938 174.132 334.824 174.358 334.824 174.641C334.824 174.896 334.931 175.094 335.146 175.235C335.36 175.377 335.793 175.52 336.444 175.666C337.096 175.807 337.606 175.978 337.976 176.179C338.349 176.375 338.625 176.612 338.803 176.89C338.985 177.168 339.076 177.505 339.076 177.901C339.076 178.567 338.8 179.107 338.249 179.521C337.698 179.932 336.975 180.137 336.082 180.137C335.476 180.137 334.936 180.027 334.462 179.809C333.988 179.59 333.619 179.289 333.354 178.906C333.09 178.523 332.958 178.111 332.958 177.669H334.571C334.594 178.061 334.742 178.364 335.016 178.578C335.289 178.788 335.651 178.893 336.103 178.893C336.54 178.893 336.873 178.811 337.101 178.646C337.328 178.478 337.442 178.259 337.442 177.99Z" fill="#00986B"/>
<g opacity="0.75">
<rect width="150" height="22" transform="translate(233 53)" fill="#1E73FF"/>
</g>
<g opacity="0.75">
<rect width="150" height="22" transform="translate(233 92)" fill="#1E73FF"/>
</g>
<g opacity="0.75">
<rect width="150" height="22" transform="translate(233 131)" fill="#1E73FF"/>
</g>
</svg>
