<svg width="394" height="310" viewBox="0 0 394 310" fill="none" xmlns="http://www.w3.org/2000/svg">
<path d="M148.5 26V18.5H167.5V26" stroke="#1E73FF" stroke-dasharray="3 2"/>
<path d="M151.137 12H144.922V10.9399L148.001 7.58203C148.445 7.08691 148.761 6.67432 148.947 6.34424C149.137 6.00993 149.232 5.67562 149.232 5.34131C149.232 4.9012 149.108 4.54574 148.858 4.2749C148.612 4.00407 148.28 3.86865 147.861 3.86865C147.362 3.86865 146.975 4.021 146.7 4.32568C146.425 4.63037 146.287 5.0472 146.287 5.57617H144.745C144.745 5.01335 144.872 4.50765 145.125 4.05908C145.384 3.60628 145.75 3.25505 146.224 3.00537C146.702 2.7557 147.252 2.63086 147.874 2.63086C148.771 2.63086 149.478 2.85726 149.994 3.31006C150.515 3.75863 150.775 4.3807 150.775 5.17627C150.775 5.63753 150.644 6.12207 150.381 6.62988C150.123 7.13346 149.698 7.70687 149.105 8.3501L146.846 10.7686H151.137V12ZM158.335 8.10889C158.335 9.43766 158.085 10.4406 157.586 11.1177C157.091 11.7905 156.335 12.127 155.32 12.127C154.321 12.127 153.568 11.799 153.06 11.1431C152.556 10.4829 152.298 9.50749 152.286 8.2168V6.61719C152.286 5.28841 152.533 4.29183 153.028 3.62744C153.528 2.96305 154.287 2.63086 155.307 2.63086C156.319 2.63086 157.072 2.95459 157.567 3.60205C158.066 4.24951 158.322 5.21859 158.335 6.50928V8.10889ZM156.792 6.38232C156.792 5.51481 156.674 4.88005 156.437 4.47803C156.2 4.07178 155.823 3.86865 155.307 3.86865C154.804 3.86865 154.433 4.0612 154.196 4.44629C153.959 4.82715 153.834 5.42383 153.822 6.23633V8.33105C153.822 9.19434 153.942 9.83757 154.184 10.2607C154.425 10.6839 154.804 10.8955 155.32 10.8955C155.815 10.8955 156.181 10.7008 156.418 10.3115C156.655 9.91797 156.78 9.30436 156.792 8.4707V6.38232ZM165.812 8.63574C165.812 9.69792 165.571 10.5464 165.089 11.1812C164.606 11.8117 163.959 12.127 163.146 12.127C162.393 12.127 161.79 11.8794 161.337 11.3843V14.6406H159.795V5.13184H161.217L161.28 5.83008C161.733 5.27995 162.349 5.00488 163.127 5.00488C163.965 5.00488 164.621 5.31803 165.095 5.94434C165.573 6.56641 165.812 7.4318 165.812 8.54053V8.63574ZM164.276 8.50244C164.276 7.81689 164.139 7.27311 163.864 6.87109C163.593 6.46908 163.204 6.26807 162.696 6.26807C162.065 6.26807 161.612 6.52832 161.337 7.04883V10.0957C161.617 10.6289 162.074 10.8955 162.708 10.8955C163.199 10.8955 163.582 10.6987 163.857 10.3052C164.137 9.90739 164.276 9.30648 164.276 8.50244ZM169.488 7.3916L170.795 5.13184H172.509L170.408 8.51514L172.579 12H170.878L169.507 9.65137L168.142 12H166.428L168.599 8.51514L166.504 5.13184H168.206L169.488 7.3916Z" fill="#1E73FF"/>
<path d="M40 133.5L32.5 133.5L32.5 104.5L40 104.5" stroke="#1E73FF" stroke-dasharray="3 2"/>
<path d="M2.70605 116.674H3.64551C4.11947 116.67 4.49398 116.547 4.76904 116.306C5.04834 116.065 5.18799 115.716 5.18799 115.259C5.18799 114.819 5.07161 114.478 4.83887 114.237C4.61035 113.991 4.25911 113.869 3.78516 113.869C3.37044 113.869 3.02979 113.989 2.76318 114.23C2.49658 114.467 2.36328 114.778 2.36328 115.164H0.820801C0.820801 114.69 0.945638 114.258 1.19531 113.869C1.44922 113.479 1.80046 113.177 2.24902 112.961C2.70182 112.741 3.20752 112.631 3.76611 112.631C4.68864 112.631 5.41227 112.864 5.93701 113.329C6.46598 113.79 6.73047 114.434 6.73047 115.259C6.73047 115.674 6.59717 116.065 6.33057 116.433C6.0682 116.797 5.72754 117.072 5.30859 117.258C5.81641 117.432 6.2015 117.705 6.46387 118.077C6.73047 118.45 6.86377 118.894 6.86377 119.41C6.86377 120.24 6.57812 120.9 6.00684 121.391C5.43978 121.882 4.69287 122.127 3.76611 122.127C2.87744 122.127 2.14958 121.89 1.58252 121.416C1.01546 120.942 0.731934 120.312 0.731934 119.524H2.27441C2.27441 119.931 2.40983 120.261 2.68066 120.515C2.95573 120.769 3.32389 120.896 3.78516 120.896C4.26335 120.896 4.63997 120.769 4.91504 120.515C5.1901 120.261 5.32764 119.893 5.32764 119.41C5.32764 118.924 5.18376 118.549 4.896 118.287C4.60824 118.024 4.18083 117.893 3.61377 117.893H2.70605V116.674ZM14.335 118.109C14.335 119.438 14.0853 120.441 13.5859 121.118C13.0908 121.791 12.3354 122.127 11.3198 122.127C10.3211 122.127 9.56787 121.799 9.06006 121.143C8.55648 120.483 8.29834 119.507 8.28564 118.217V116.617C8.28564 115.288 8.5332 114.292 9.02832 113.627C9.52767 112.963 10.2873 112.631 11.3071 112.631C12.3185 112.631 13.0718 112.955 13.5669 113.602C14.0662 114.25 14.3223 115.219 14.335 116.509V118.109ZM12.7925 116.382C12.7925 115.515 12.674 114.88 12.437 114.478C12.2 114.072 11.8234 113.869 11.3071 113.869C10.8035 113.869 10.4333 114.061 10.1963 114.446C9.95931 114.827 9.83447 115.424 9.82178 116.236V118.331C9.82178 119.194 9.94238 119.838 10.1836 120.261C10.4248 120.684 10.8035 120.896 11.3198 120.896C11.8149 120.896 12.181 120.701 12.418 120.312C12.6549 119.918 12.7798 119.304 12.7925 118.471V116.382ZM21.8125 118.636C21.8125 119.698 21.5713 120.546 21.0889 121.181C20.6064 121.812 19.959 122.127 19.1465 122.127C18.3932 122.127 17.7902 121.879 17.3374 121.384V124.641H15.7949V115.132H17.2168L17.2803 115.83C17.7331 115.28 18.3488 115.005 19.1274 115.005C19.9653 115.005 20.6213 115.318 21.0952 115.944C21.5734 116.566 21.8125 117.432 21.8125 118.541V118.636ZM20.2764 118.502C20.2764 117.817 20.1388 117.273 19.8638 116.871C19.5929 116.469 19.2036 116.268 18.6958 116.268C18.0653 116.268 17.6125 116.528 17.3374 117.049V120.096C17.6167 120.629 18.0737 120.896 18.7085 120.896C19.1994 120.896 19.5824 120.699 19.8574 120.305C20.1367 119.907 20.2764 119.306 20.2764 118.502ZM25.4878 117.392L26.7954 115.132H28.5093L26.4082 118.515L28.5791 122H26.8779L25.5068 119.651L24.1421 122H22.4282L24.5991 118.515L22.5044 115.132H24.2056L25.4878 117.392Z" fill="#1E73FF"/>
<path d="M40 233.5L32.5 233.5L32.5 204.5L40 204.5" stroke="#1E73FF" stroke-dasharray="3 2"/>
<path d="M2.70605 216.674H3.64551C4.11947 216.67 4.49398 216.547 4.76904 216.306C5.04834 216.065 5.18799 215.716 5.18799 215.259C5.18799 214.819 5.07161 214.478 4.83887 214.237C4.61035 213.991 4.25911 213.869 3.78516 213.869C3.37044 213.869 3.02979 213.989 2.76318 214.23C2.49658 214.467 2.36328 214.778 2.36328 215.164H0.820801C0.820801 214.69 0.945638 214.258 1.19531 213.869C1.44922 213.479 1.80046 213.177 2.24902 212.961C2.70182 212.741 3.20752 212.631 3.76611 212.631C4.68864 212.631 5.41227 212.864 5.93701 213.329C6.46598 213.79 6.73047 214.434 6.73047 215.259C6.73047 215.674 6.59717 216.065 6.33057 216.433C6.0682 216.797 5.72754 217.072 5.30859 217.258C5.81641 217.432 6.2015 217.705 6.46387 218.077C6.73047 218.45 6.86377 218.894 6.86377 219.41C6.86377 220.24 6.57812 220.9 6.00684 221.391C5.43978 221.882 4.69287 222.127 3.76611 222.127C2.87744 222.127 2.14958 221.89 1.58252 221.416C1.01546 220.942 0.731934 220.312 0.731934 219.524H2.27441C2.27441 219.931 2.40983 220.261 2.68066 220.515C2.95573 220.769 3.32389 220.896 3.78516 220.896C4.26335 220.896 4.63997 220.769 4.91504 220.515C5.1901 220.261 5.32764 219.893 5.32764 219.41C5.32764 218.924 5.18376 218.549 4.896 218.287C4.60824 218.024 4.18083 217.893 3.61377 217.893H2.70605V216.674ZM14.335 218.109C14.335 219.438 14.0853 220.441 13.5859 221.118C13.0908 221.791 12.3354 222.127 11.3198 222.127C10.3211 222.127 9.56787 221.799 9.06006 221.143C8.55648 220.483 8.29834 219.507 8.28564 218.217V216.617C8.28564 215.288 8.5332 214.292 9.02832 213.627C9.52767 212.963 10.2873 212.631 11.3071 212.631C12.3185 212.631 13.0718 212.955 13.5669 213.602C14.0662 214.25 14.3223 215.219 14.335 216.509V218.109ZM12.7925 216.382C12.7925 215.515 12.674 214.88 12.437 214.478C12.2 214.072 11.8234 213.869 11.3071 213.869C10.8035 213.869 10.4333 214.061 10.1963 214.446C9.95931 214.827 9.83447 215.424 9.82178 216.236V218.331C9.82178 219.194 9.94238 219.838 10.1836 220.261C10.4248 220.684 10.8035 220.896 11.3198 220.896C11.8149 220.896 12.181 220.701 12.418 220.312C12.6549 219.918 12.7798 219.304 12.7925 218.471V216.382ZM21.8125 218.636C21.8125 219.698 21.5713 220.546 21.0889 221.181C20.6064 221.812 19.959 222.127 19.1465 222.127C18.3932 222.127 17.7902 221.879 17.3374 221.384V224.641H15.7949V215.132H17.2168L17.2803 215.83C17.7331 215.28 18.3488 215.005 19.1274 215.005C19.9653 215.005 20.6213 215.318 21.0952 215.944C21.5734 216.566 21.8125 217.432 21.8125 218.541V218.636ZM20.2764 218.502C20.2764 217.817 20.1388 217.273 19.8638 216.871C19.5929 216.469 19.2036 216.268 18.6958 216.268C18.0653 216.268 17.6125 216.528 17.3374 217.049V220.096C17.6167 220.629 18.0737 220.896 18.7085 220.896C19.1994 220.896 19.5824 220.699 19.8574 220.305C20.1367 219.907 20.2764 219.306 20.2764 218.502ZM25.4878 217.392L26.7954 215.132H28.5093L26.4082 218.515L28.5791 222H26.8779L25.5068 219.651L24.1421 222H22.4282L24.5991 218.515L22.5044 215.132H24.2056L25.4878 217.392Z" fill="#1E73FF"/>
<path d="M268.5 26V18.5H287.5V26" stroke="#1E73FF" stroke-dasharray="3 2"/>
<path d="M271.137 12H264.922V10.9399L268.001 7.58203C268.445 7.08691 268.761 6.67432 268.947 6.34424C269.137 6.00993 269.232 5.67562 269.232 5.34131C269.232 4.9012 269.108 4.54574 268.858 4.2749C268.612 4.00407 268.28 3.86865 267.861 3.86865C267.362 3.86865 266.975 4.021 266.7 4.32568C266.425 4.63037 266.287 5.0472 266.287 5.57617H264.745C264.745 5.01335 264.872 4.50765 265.125 4.05908C265.384 3.60628 265.75 3.25505 266.224 3.00537C266.702 2.7557 267.252 2.63086 267.874 2.63086C268.771 2.63086 269.478 2.85726 269.994 3.31006C270.515 3.75863 270.775 4.3807 270.775 5.17627C270.775 5.63753 270.644 6.12207 270.381 6.62988C270.123 7.13346 269.698 7.70687 269.105 8.3501L266.846 10.7686H271.137V12ZM278.335 8.10889C278.335 9.43766 278.085 10.4406 277.586 11.1177C277.091 11.7905 276.335 12.127 275.32 12.127C274.321 12.127 273.568 11.799 273.06 11.1431C272.556 10.4829 272.298 9.50749 272.286 8.2168V6.61719C272.286 5.28841 272.533 4.29183 273.028 3.62744C273.528 2.96305 274.287 2.63086 275.307 2.63086C276.319 2.63086 277.072 2.95459 277.567 3.60205C278.066 4.24951 278.322 5.21859 278.335 6.50928V8.10889ZM276.792 6.38232C276.792 5.51481 276.674 4.88005 276.437 4.47803C276.2 4.07178 275.823 3.86865 275.307 3.86865C274.804 3.86865 274.433 4.0612 274.196 4.44629C273.959 4.82715 273.834 5.42383 273.822 6.23633V8.33105C273.822 9.19434 273.942 9.83757 274.184 10.2607C274.425 10.6839 274.804 10.8955 275.32 10.8955C275.815 10.8955 276.181 10.7008 276.418 10.3115C276.655 9.91797 276.78 9.30436 276.792 8.4707V6.38232ZM285.812 8.63574C285.812 9.69792 285.571 10.5464 285.089 11.1812C284.606 11.8117 283.959 12.127 283.146 12.127C282.393 12.127 281.79 11.8794 281.337 11.3843V14.6406H279.795V5.13184H281.217L281.28 5.83008C281.733 5.27995 282.349 5.00488 283.127 5.00488C283.965 5.00488 284.621 5.31803 285.095 5.94434C285.573 6.56641 285.812 7.4318 285.812 8.54053V8.63574ZM284.276 8.50244C284.276 7.81689 284.139 7.27311 283.864 6.87109C283.593 6.46908 283.204 6.26807 282.696 6.26807C282.065 6.26807 281.612 6.52832 281.337 7.04883V10.0957C281.617 10.6289 282.074 10.8955 282.708 10.8955C283.199 10.8955 283.582 10.6987 283.857 10.3052C284.137 9.90739 284.276 9.30648 284.276 8.50244ZM289.488 7.3916L290.795 5.13184H292.509L290.408 8.51514L292.579 12H290.878L289.507 9.65137L288.142 12H286.428L288.599 8.51514L286.504 5.13184H288.206L289.488 7.3916Z" fill="#1E73FF"/>
<path d="M48 39C48 36.2386 50.2386 34 53 34H143C145.761 34 148 36.2386 148 39V99C148 101.761 145.761 104 143 104H53C50.2386 104 48 101.761 48 99V39Z" fill="#CCCCCC"/>
<path d="M90.3755 71.6589C90.8198 71.6589 91.1885 71.5295 91.4814 71.2708C91.7744 71.012 91.9307 70.6921 91.9502 70.3113H93.6274C93.6079 70.8044 93.4541 71.2659 93.166 71.6956C92.8779 72.1204 92.4873 72.4573 91.9941 72.7063C91.501 72.9553 90.9688 73.0798 90.3975 73.0798C89.2891 73.0798 88.4102 72.7209 87.7607 72.0032C87.1113 71.2854 86.7866 70.2942 86.7866 69.0295V68.8464C86.7866 67.6404 87.1089 66.676 87.7534 65.9534C88.3979 65.2258 89.2769 64.8621 90.3901 64.8621C91.3325 64.8621 92.0991 65.1379 92.6899 65.6897C93.2856 66.2366 93.5981 66.9568 93.6274 67.8503H91.9502C91.9307 67.3962 91.7744 67.0227 91.4814 66.7297C91.1934 66.4368 90.8247 66.2903 90.3755 66.2903C89.7993 66.2903 89.355 66.5002 89.0425 66.9202C88.73 67.3352 88.5713 67.9675 88.5664 68.8171V69.1028C88.5664 69.9622 88.7202 70.6042 89.0278 71.0291C89.3403 71.449 89.7896 71.6589 90.3755 71.6589ZM98.4614 73.0798C97.3335 73.0798 96.418 72.7258 95.7148 72.0178C95.0166 71.3049 94.6675 70.3577 94.6675 69.176V68.9563C94.6675 68.1653 94.8188 67.4597 95.1216 66.8396C95.4292 66.2146 95.8589 65.7288 96.4106 65.3821C96.9624 65.0354 97.5776 64.8621 98.2563 64.8621C99.3354 64.8621 100.168 65.2063 100.754 65.8948C101.345 66.5833 101.64 67.5574 101.64 68.8171V69.5349H96.4619C96.5156 70.1892 96.7329 70.7068 97.1138 71.0876C97.4995 71.4685 97.9829 71.6589 98.564 71.6589C99.3794 71.6589 100.043 71.3293 100.556 70.6702L101.516 71.5857C101.198 72.0593 100.773 72.428 100.241 72.6917C99.7139 72.9504 99.1206 73.0798 98.4614 73.0798ZM98.249 66.2903C97.7607 66.2903 97.3652 66.4612 97.0625 66.803C96.7646 67.1448 96.5742 67.6208 96.4912 68.2312H99.8823V68.0994C99.8433 67.5037 99.6846 67.0544 99.4062 66.7517C99.1279 66.4441 98.7422 66.2903 98.249 66.2903ZM104.921 72.9333H103.142V61.6833H104.921V72.9333ZM108.759 72.9333H106.979V61.6833H108.759V72.9333Z" fill="white"/>
<path d="M48 139C48 136.239 50.2386 134 53 134H143C145.761 134 148 136.239 148 139V199C148 201.761 145.761 204 143 204H53C50.2386 204 48 201.761 48 199V139Z" fill="#CCCCCC"/>
<path d="M90.3755 171.659C90.8198 171.659 91.1885 171.53 91.4814 171.271C91.7744 171.012 91.9307 170.692 91.9502 170.311H93.6274C93.6079 170.804 93.4541 171.266 93.166 171.696C92.8779 172.12 92.4873 172.457 91.9941 172.706C91.501 172.955 90.9688 173.08 90.3975 173.08C89.2891 173.08 88.4102 172.721 87.7607 172.003C87.1113 171.285 86.7866 170.294 86.7866 169.03V168.846C86.7866 167.64 87.1089 166.676 87.7534 165.953C88.3979 165.226 89.2769 164.862 90.3901 164.862C91.3325 164.862 92.0991 165.138 92.6899 165.69C93.2856 166.237 93.5981 166.957 93.6274 167.85H91.9502C91.9307 167.396 91.7744 167.023 91.4814 166.73C91.1934 166.437 90.8247 166.29 90.3755 166.29C89.7993 166.29 89.355 166.5 89.0425 166.92C88.73 167.335 88.5713 167.968 88.5664 168.817V169.103C88.5664 169.962 88.7202 170.604 89.0278 171.029C89.3403 171.449 89.7896 171.659 90.3755 171.659ZM98.4614 173.08C97.3335 173.08 96.418 172.726 95.7148 172.018C95.0166 171.305 94.6675 170.358 94.6675 169.176V168.956C94.6675 168.165 94.8188 167.46 95.1216 166.84C95.4292 166.215 95.8589 165.729 96.4106 165.382C96.9624 165.035 97.5776 164.862 98.2563 164.862C99.3354 164.862 100.168 165.206 100.754 165.895C101.345 166.583 101.64 167.557 101.64 168.817V169.535H96.4619C96.5156 170.189 96.7329 170.707 97.1138 171.088C97.4995 171.469 97.9829 171.659 98.564 171.659C99.3794 171.659 100.043 171.329 100.556 170.67L101.516 171.586C101.198 172.059 100.773 172.428 100.241 172.692C99.7139 172.95 99.1206 173.08 98.4614 173.08ZM98.249 166.29C97.7607 166.29 97.3652 166.461 97.0625 166.803C96.7646 167.145 96.5742 167.621 96.4912 168.231H99.8823V168.099C99.8433 167.504 99.6846 167.054 99.4062 166.752C99.1279 166.444 98.7422 166.29 98.249 166.29ZM104.921 172.933H103.142V161.683H104.921V172.933ZM108.759 172.933H106.979V161.683H108.759V172.933Z" fill="white"/>
<path d="M48 239C48 236.239 50.2386 234 53 234H143C145.761 234 148 236.239 148 239V299C148 301.761 145.761 304 143 304H53C50.2386 304 48 301.761 48 299V239Z" fill="#CCCCCC"/>
<path d="M90.3755 271.659C90.8198 271.659 91.1885 271.53 91.4814 271.271C91.7744 271.012 91.9307 270.692 91.9502 270.311H93.6274C93.6079 270.804 93.4541 271.266 93.166 271.696C92.8779 272.12 92.4873 272.457 91.9941 272.706C91.501 272.955 90.9688 273.08 90.3975 273.08C89.2891 273.08 88.4102 272.721 87.7607 272.003C87.1113 271.285 86.7866 270.294 86.7866 269.03V268.846C86.7866 267.64 87.1089 266.676 87.7534 265.953C88.3979 265.226 89.2769 264.862 90.3901 264.862C91.3325 264.862 92.0991 265.138 92.6899 265.69C93.2856 266.237 93.5981 266.957 93.6274 267.85H91.9502C91.9307 267.396 91.7744 267.023 91.4814 266.73C91.1934 266.437 90.8247 266.29 90.3755 266.29C89.7993 266.29 89.355 266.5 89.0425 266.92C88.73 267.335 88.5713 267.968 88.5664 268.817V269.103C88.5664 269.962 88.7202 270.604 89.0278 271.029C89.3403 271.449 89.7896 271.659 90.3755 271.659ZM98.4614 273.08C97.3335 273.08 96.418 272.726 95.7148 272.018C95.0166 271.305 94.6675 270.358 94.6675 269.176V268.956C94.6675 268.165 94.8188 267.46 95.1216 266.84C95.4292 266.215 95.8589 265.729 96.4106 265.382C96.9624 265.035 97.5776 264.862 98.2563 264.862C99.3354 264.862 100.168 265.206 100.754 265.895C101.345 266.583 101.64 267.557 101.64 268.817V269.535H96.4619C96.5156 270.189 96.7329 270.707 97.1138 271.088C97.4995 271.469 97.9829 271.659 98.564 271.659C99.3794 271.659 100.043 271.329 100.556 270.67L101.516 271.586C101.198 272.059 100.773 272.428 100.241 272.692C99.7139 272.95 99.1206 273.08 98.4614 273.08ZM98.249 266.29C97.7607 266.29 97.3652 266.461 97.0625 266.803C96.7646 267.145 96.5742 267.621 96.4912 268.231H99.8823V268.099C99.8433 267.504 99.6846 267.054 99.4062 266.752C99.1279 266.444 98.7422 266.29 98.249 266.29ZM104.921 272.933H103.142V261.683H104.921V272.933ZM108.759 272.933H106.979V261.683H108.759V272.933Z" fill="white"/>
<path d="M168 39C168 36.2386 170.239 34 173 34H263C265.761 34 268 36.2386 268 39V99C268 101.761 265.761 104 263 104H173C170.239 104 168 101.761 168 99V39Z" fill="#CCCCCC"/>
<path d="M210.375 71.6589C210.82 71.6589 211.188 71.5295 211.481 71.2708C211.774 71.012 211.931 70.6921 211.95 70.3113H213.627C213.608 70.8044 213.454 71.2659 213.166 71.6956C212.878 72.1204 212.487 72.4573 211.994 72.7063C211.501 72.9553 210.969 73.0798 210.397 73.0798C209.289 73.0798 208.41 72.7209 207.761 72.0032C207.111 71.2854 206.787 70.2942 206.787 69.0295V68.8464C206.787 67.6404 207.109 66.676 207.753 65.9534C208.398 65.2258 209.277 64.8621 210.39 64.8621C211.333 64.8621 212.099 65.1379 212.69 65.6897C213.286 66.2366 213.598 66.9568 213.627 67.8503H211.95C211.931 67.3962 211.774 67.0227 211.481 66.7297C211.193 66.4368 210.825 66.2903 210.375 66.2903C209.799 66.2903 209.355 66.5002 209.042 66.9202C208.73 67.3352 208.571 67.9675 208.566 68.8171V69.1028C208.566 69.9622 208.72 70.6042 209.028 71.0291C209.34 71.449 209.79 71.6589 210.375 71.6589ZM218.461 73.0798C217.333 73.0798 216.418 72.7258 215.715 72.0178C215.017 71.3049 214.667 70.3577 214.667 69.176V68.9563C214.667 68.1653 214.819 67.4597 215.122 66.8396C215.429 66.2146 215.859 65.7288 216.411 65.3821C216.962 65.0354 217.578 64.8621 218.256 64.8621C219.335 64.8621 220.168 65.2063 220.754 65.8948C221.345 66.5833 221.64 67.5574 221.64 68.8171V69.5349H216.462C216.516 70.1892 216.733 70.7068 217.114 71.0876C217.5 71.4685 217.983 71.6589 218.564 71.6589C219.379 71.6589 220.043 71.3293 220.556 70.6702L221.516 71.5857C221.198 72.0593 220.773 72.428 220.241 72.6917C219.714 72.9504 219.121 73.0798 218.461 73.0798ZM218.249 66.2903C217.761 66.2903 217.365 66.4612 217.062 66.803C216.765 67.1448 216.574 67.6208 216.491 68.2312H219.882V68.0994C219.843 67.5037 219.685 67.0544 219.406 66.7517C219.128 66.4441 218.742 66.2903 218.249 66.2903ZM224.921 72.9333H223.142V61.6833H224.921V72.9333ZM228.759 72.9333H226.979V61.6833H228.759V72.9333Z" fill="white"/>
<path d="M168 139C168 136.239 170.239 134 173 134H263C265.761 134 268 136.239 268 139V199C268 201.761 265.761 204 263 204H173C170.239 204 168 201.761 168 199V139Z" fill="#CCCCCC"/>
<path d="M210.375 171.659C210.82 171.659 211.188 171.53 211.481 171.271C211.774 171.012 211.931 170.692 211.95 170.311H213.627C213.608 170.804 213.454 171.266 213.166 171.696C212.878 172.12 212.487 172.457 211.994 172.706C211.501 172.955 210.969 173.08 210.397 173.08C209.289 173.08 208.41 172.721 207.761 172.003C207.111 171.285 206.787 170.294 206.787 169.03V168.846C206.787 167.64 207.109 166.676 207.753 165.953C208.398 165.226 209.277 164.862 210.39 164.862C211.333 164.862 212.099 165.138 212.69 165.69C213.286 166.237 213.598 166.957 213.627 167.85H211.95C211.931 167.396 211.774 167.023 211.481 166.73C211.193 166.437 210.825 166.29 210.375 166.29C209.799 166.29 209.355 166.5 209.042 166.92C208.73 167.335 208.571 167.968 208.566 168.817V169.103C208.566 169.962 208.72 170.604 209.028 171.029C209.34 171.449 209.79 171.659 210.375 171.659ZM218.461 173.08C217.333 173.08 216.418 172.726 215.715 172.018C215.017 171.305 214.667 170.358 214.667 169.176V168.956C214.667 168.165 214.819 167.46 215.122 166.84C215.429 166.215 215.859 165.729 216.411 165.382C216.962 165.035 217.578 164.862 218.256 164.862C219.335 164.862 220.168 165.206 220.754 165.895C221.345 166.583 221.64 167.557 221.64 168.817V169.535H216.462C216.516 170.189 216.733 170.707 217.114 171.088C217.5 171.469 217.983 171.659 218.564 171.659C219.379 171.659 220.043 171.329 220.556 170.67L221.516 171.586C221.198 172.059 220.773 172.428 220.241 172.692C219.714 172.95 219.121 173.08 218.461 173.08ZM218.249 166.29C217.761 166.29 217.365 166.461 217.062 166.803C216.765 167.145 216.574 167.621 216.491 168.231H219.882V168.099C219.843 167.504 219.685 167.054 219.406 166.752C219.128 166.444 218.742 166.29 218.249 166.29ZM224.921 172.933H223.142V161.683H224.921V172.933ZM228.759 172.933H226.979V161.683H228.759V172.933Z" fill="white"/>
<path d="M168 239C168 236.239 170.239 234 173 234H263C265.761 234 268 236.239 268 239V299C268 301.761 265.761 304 263 304H173C170.239 304 168 301.761 168 299V239Z" fill="#CCCCCC"/>
<path d="M210.375 271.659C210.82 271.659 211.188 271.53 211.481 271.271C211.774 271.012 211.931 270.692 211.95 270.311H213.627C213.608 270.804 213.454 271.266 213.166 271.696C212.878 272.12 212.487 272.457 211.994 272.706C211.501 272.955 210.969 273.08 210.397 273.08C209.289 273.08 208.41 272.721 207.761 272.003C207.111 271.285 206.787 270.294 206.787 269.03V268.846C206.787 267.64 207.109 266.676 207.753 265.953C208.398 265.226 209.277 264.862 210.39 264.862C211.333 264.862 212.099 265.138 212.69 265.69C213.286 266.237 213.598 266.957 213.627 267.85H211.95C211.931 267.396 211.774 267.023 211.481 266.73C211.193 266.437 210.825 266.29 210.375 266.29C209.799 266.29 209.355 266.5 209.042 266.92C208.73 267.335 208.571 267.968 208.566 268.817V269.103C208.566 269.962 208.72 270.604 209.028 271.029C209.34 271.449 209.79 271.659 210.375 271.659ZM218.461 273.08C217.333 273.08 216.418 272.726 215.715 272.018C215.017 271.305 214.667 270.358 214.667 269.176V268.956C214.667 268.165 214.819 267.46 215.122 266.84C215.429 266.215 215.859 265.729 216.411 265.382C216.962 265.035 217.578 264.862 218.256 264.862C219.335 264.862 220.168 265.206 220.754 265.895C221.345 266.583 221.64 267.557 221.64 268.817V269.535H216.462C216.516 270.189 216.733 270.707 217.114 271.088C217.5 271.469 217.983 271.659 218.564 271.659C219.379 271.659 220.043 271.329 220.556 270.67L221.516 271.586C221.198 272.059 220.773 272.428 220.241 272.692C219.714 272.95 219.121 273.08 218.461 273.08ZM218.249 266.29C217.761 266.29 217.365 266.461 217.062 266.803C216.765 267.145 216.574 267.621 216.491 268.231H219.882V268.099C219.843 267.504 219.685 267.054 219.406 266.752C219.128 266.444 218.742 266.29 218.249 266.29ZM224.921 272.933H223.142V261.683H224.921V272.933ZM228.759 272.933H226.979V261.683H228.759V272.933Z" fill="white"/>
<path d="M288 39C288 36.2386 290.239 34 293 34H383C385.761 34 388 36.2386 388 39V99C388 101.761 385.761 104 383 104H293C290.239 104 288 101.761 288 99V39Z" fill="#CCCCCC"/>
<path d="M330.375 71.6589C330.82 71.6589 331.188 71.5295 331.481 71.2708C331.774 71.012 331.931 70.6921 331.95 70.3113H333.627C333.608 70.8044 333.454 71.2659 333.166 71.6956C332.878 72.1204 332.487 72.4573 331.994 72.7063C331.501 72.9553 330.969 73.0798 330.397 73.0798C329.289 73.0798 328.41 72.7209 327.761 72.0032C327.111 71.2854 326.787 70.2942 326.787 69.0295V68.8464C326.787 67.6404 327.109 66.676 327.753 65.9534C328.398 65.2258 329.277 64.8621 330.39 64.8621C331.333 64.8621 332.099 65.1379 332.69 65.6897C333.286 66.2366 333.598 66.9568 333.627 67.8503H331.95C331.931 67.3962 331.774 67.0227 331.481 66.7297C331.193 66.4368 330.825 66.2903 330.375 66.2903C329.799 66.2903 329.355 66.5002 329.042 66.9202C328.73 67.3352 328.571 67.9675 328.566 68.8171V69.1028C328.566 69.9622 328.72 70.6042 329.028 71.0291C329.34 71.449 329.79 71.6589 330.375 71.6589ZM338.461 73.0798C337.333 73.0798 336.418 72.7258 335.715 72.0178C335.017 71.3049 334.667 70.3577 334.667 69.176V68.9563C334.667 68.1653 334.819 67.4597 335.122 66.8396C335.429 66.2146 335.859 65.7288 336.411 65.3821C336.962 65.0354 337.578 64.8621 338.256 64.8621C339.335 64.8621 340.168 65.2063 340.754 65.8948C341.345 66.5833 341.64 67.5574 341.64 68.8171V69.5349H336.462C336.516 70.1892 336.733 70.7068 337.114 71.0876C337.5 71.4685 337.983 71.6589 338.564 71.6589C339.379 71.6589 340.043 71.3293 340.556 70.6702L341.516 71.5857C341.198 72.0593 340.773 72.428 340.241 72.6917C339.714 72.9504 339.121 73.0798 338.461 73.0798ZM338.249 66.2903C337.761 66.2903 337.365 66.4612 337.062 66.803C336.765 67.1448 336.574 67.6208 336.491 68.2312H339.882V68.0994C339.843 67.5037 339.685 67.0544 339.406 66.7517C339.128 66.4441 338.742 66.2903 338.249 66.2903ZM344.921 72.9333H343.142V61.6833H344.921V72.9333ZM348.759 72.9333H346.979V61.6833H348.759V72.9333Z" fill="white"/>
<path d="M288 139C288 136.239 290.239 134 293 134H383C385.761 134 388 136.239 388 139V199C388 201.761 385.761 204 383 204H293C290.239 204 288 201.761 288 199V139Z" fill="#CCCCCC"/>
<path d="M330.375 171.659C330.82 171.659 331.188 171.53 331.481 171.271C331.774 171.012 331.931 170.692 331.95 170.311H333.627C333.608 170.804 333.454 171.266 333.166 171.696C332.878 172.12 332.487 172.457 331.994 172.706C331.501 172.955 330.969 173.08 330.397 173.08C329.289 173.08 328.41 172.721 327.761 172.003C327.111 171.285 326.787 170.294 326.787 169.03V168.846C326.787 167.64 327.109 166.676 327.753 165.953C328.398 165.226 329.277 164.862 330.39 164.862C331.333 164.862 332.099 165.138 332.69 165.69C333.286 166.237 333.598 166.957 333.627 167.85H331.95C331.931 167.396 331.774 167.023 331.481 166.73C331.193 166.437 330.825 166.29 330.375 166.29C329.799 166.29 329.355 166.5 329.042 166.92C328.73 167.335 328.571 167.968 328.566 168.817V169.103C328.566 169.962 328.72 170.604 329.028 171.029C329.34 171.449 329.79 171.659 330.375 171.659ZM338.461 173.08C337.333 173.08 336.418 172.726 335.715 172.018C335.017 171.305 334.667 170.358 334.667 169.176V168.956C334.667 168.165 334.819 167.46 335.122 166.84C335.429 166.215 335.859 165.729 336.411 165.382C336.962 165.035 337.578 164.862 338.256 164.862C339.335 164.862 340.168 165.206 340.754 165.895C341.345 166.583 341.64 167.557 341.64 168.817V169.535H336.462C336.516 170.189 336.733 170.707 337.114 171.088C337.5 171.469 337.983 171.659 338.564 171.659C339.379 171.659 340.043 171.329 340.556 170.67L341.516 171.586C341.198 172.059 340.773 172.428 340.241 172.692C339.714 172.95 339.121 173.08 338.461 173.08ZM338.249 166.29C337.761 166.29 337.365 166.461 337.062 166.803C336.765 167.145 336.574 167.621 336.491 168.231H339.882V168.099C339.843 167.504 339.685 167.054 339.406 166.752C339.128 166.444 338.742 166.29 338.249 166.29ZM344.921 172.933H343.142V161.683H344.921V172.933ZM348.759 172.933H346.979V161.683H348.759V172.933Z" fill="white"/>
<path d="M288 239C288 236.239 290.239 234 293 234H383C385.761 234 388 236.239 388 239V299C388 301.761 385.761 304 383 304H293C290.239 304 288 301.761 288 299V239Z" fill="#CCCCCC"/>
<path d="M330.375 271.659C330.82 271.659 331.188 271.53 331.481 271.271C331.774 271.012 331.931 270.692 331.95 270.311H333.627C333.608 270.804 333.454 271.266 333.166 271.696C332.878 272.12 332.487 272.457 331.994 272.706C331.501 272.955 330.969 273.08 330.397 273.08C329.289 273.08 328.41 272.721 327.761 272.003C327.111 271.285 326.787 270.294 326.787 269.03V268.846C326.787 267.64 327.109 266.676 327.753 265.953C328.398 265.226 329.277 264.862 330.39 264.862C331.333 264.862 332.099 265.138 332.69 265.69C333.286 266.237 333.598 266.957 333.627 267.85H331.95C331.931 267.396 331.774 267.023 331.481 266.73C331.193 266.437 330.825 266.29 330.375 266.29C329.799 266.29 329.355 266.5 329.042 266.92C328.73 267.335 328.571 267.968 328.566 268.817V269.103C328.566 269.962 328.72 270.604 329.028 271.029C329.34 271.449 329.79 271.659 330.375 271.659ZM338.461 273.08C337.333 273.08 336.418 272.726 335.715 272.018C335.017 271.305 334.667 270.358 334.667 269.176V268.956C334.667 268.165 334.819 267.46 335.122 266.84C335.429 266.215 335.859 265.729 336.411 265.382C336.962 265.035 337.578 264.862 338.256 264.862C339.335 264.862 340.168 265.206 340.754 265.895C341.345 266.583 341.64 267.557 341.64 268.817V269.535H336.462C336.516 270.189 336.733 270.707 337.114 271.088C337.5 271.469 337.983 271.659 338.564 271.659C339.379 271.659 340.043 271.329 340.556 270.67L341.516 271.586C341.198 272.059 340.773 272.428 340.241 272.692C339.714 272.95 339.121 273.08 338.461 273.08ZM338.249 266.29C337.761 266.29 337.365 266.461 337.062 266.803C336.765 267.145 336.574 267.621 336.491 268.231H339.882V268.099C339.843 267.504 339.685 267.054 339.406 266.752C339.128 266.444 338.742 266.29 338.249 266.29ZM344.921 272.933H343.142V261.683H344.921V272.933ZM348.759 272.933H346.979V261.683H348.759V272.933Z" fill="white"/>
<rect x="43" y="29" width="350" height="280" rx="9" stroke="#BBBBBB" stroke-width="2" stroke-dasharray="6 2"/>
</svg>
