<svg width="446" height="214" viewBox="0 0 446 214" fill="none" xmlns="http://www.w3.org/2000/svg">
<rect width="446" height="214" fill="#F7F7F7"/>
<path d="M37 207C37 208.105 36.1046 209 35 209L21 209C19.8954 209 19 208.105 19 207L19 197.814C19 197.283 19.2112 196.774 19.587 196.399L26.587 189.411C27.3678 188.631 28.6323 188.631 29.413 189.411L36.413 196.399C36.7888 196.774 37 197.283 37 197.814L37 207Z" fill="#DDDDDD"/>
<path d="M26.1133 201.947H23.0371V200.799H26.1133V201.947ZM32.0137 201.959H33.0742V203.102H32.0137V205H30.5898V203.102H26.9043L26.8633 202.234L30.543 196.469H32.0137V201.959ZM28.3574 201.959H30.5898V198.396L30.4844 198.584L28.3574 201.959Z" fill="white"/>
<path d="M166 207C166 208.105 165.105 209 164 209L150 209C148.895 209 148 208.105 148 207L148 197.814C148 197.283 148.211 196.774 148.587 196.399L155.587 189.411C156.368 188.631 157.632 188.631 158.413 189.411L165.413 196.399C165.789 196.774 166 197.283 166 197.814L166 207Z" fill="#DDDDDD"/>
<path d="M155.113 201.947H152.037V200.799H155.113V201.947ZM157.844 200.084H158.711C159.148 200.08 159.494 199.967 159.748 199.744C160.006 199.521 160.135 199.199 160.135 198.777C160.135 198.371 160.027 198.057 159.812 197.834C159.602 197.607 159.277 197.494 158.84 197.494C158.457 197.494 158.143 197.605 157.896 197.828C157.65 198.047 157.527 198.334 157.527 198.689H156.104C156.104 198.252 156.219 197.854 156.449 197.494C156.684 197.135 157.008 196.855 157.422 196.656C157.84 196.453 158.307 196.352 158.822 196.352C159.674 196.352 160.342 196.566 160.826 196.996C161.314 197.422 161.559 198.016 161.559 198.777C161.559 199.16 161.436 199.521 161.189 199.861C160.947 200.197 160.633 200.451 160.246 200.623C160.715 200.783 161.07 201.035 161.312 201.379C161.559 201.723 161.682 202.133 161.682 202.609C161.682 203.375 161.418 203.984 160.891 204.438C160.367 204.891 159.678 205.117 158.822 205.117C158.002 205.117 157.33 204.898 156.807 204.461C156.283 204.023 156.021 203.441 156.021 202.715H157.445C157.445 203.09 157.57 203.395 157.82 203.629C158.074 203.863 158.414 203.98 158.84 203.98C159.281 203.98 159.629 203.863 159.883 203.629C160.137 203.395 160.264 203.055 160.264 202.609C160.264 202.16 160.131 201.814 159.865 201.572C159.6 201.33 159.205 201.209 158.682 201.209H157.844V200.084Z" fill="white"/>
<path d="M298 207C298 208.105 297.105 209 296 209L282 209C280.895 209 280 208.105 280 207L280 197.814C280 197.283 280.211 196.774 280.587 196.399L287.587 189.411C288.368 188.631 289.632 188.631 290.413 189.411L297.413 196.399C297.789 196.774 298 197.283 298 197.814L298 207Z" fill="#DDDDDD"/>
<path d="M287.113 201.947H284.037V200.799H287.113V201.947ZM293.934 205H288.197V204.021L291.039 200.922C291.449 200.465 291.74 200.084 291.912 199.779C292.088 199.471 292.176 199.162 292.176 198.854C292.176 198.447 292.061 198.119 291.83 197.869C291.604 197.619 291.297 197.494 290.91 197.494C290.449 197.494 290.092 197.635 289.838 197.916C289.584 198.197 289.457 198.582 289.457 199.07H288.033C288.033 198.551 288.15 198.084 288.385 197.67C288.623 197.252 288.961 196.928 289.398 196.697C289.84 196.467 290.348 196.352 290.922 196.352C291.75 196.352 292.402 196.561 292.879 196.979C293.359 197.393 293.6 197.967 293.6 198.701C293.6 199.127 293.479 199.574 293.236 200.043C292.998 200.508 292.605 201.037 292.059 201.631L289.973 203.863H293.934V205Z" fill="white"/>
<path d="M427 207C427 208.105 426.105 209 425 209L411 209C409.895 209 409 208.105 409 207L409 197.814C409 197.283 409.211 196.774 409.587 196.399L416.587 189.411C417.368 188.631 418.632 188.631 419.413 189.411L426.413 196.399C426.789 196.774 427 197.283 427 197.814L427 207Z" fill="#DDDDDD"/>
<path d="M416.113 201.947H413.037V200.799H416.113V201.947ZM421.053 205H419.635V198.15L417.543 198.865V197.664L420.871 196.439H421.053V205Z" fill="white"/>
<path d="M19 7C19 5.89543 19.8954 5 21 5H35C36.1046 5 37 5.89543 37 7V16.1857C37 16.7167 36.7888 17.2259 36.413 17.6011L29.413 24.5894C28.6323 25.3688 27.3677 25.3688 26.587 24.5894L19.587 17.6011C19.2112 17.2259 19 16.7167 19 16.1857V7Z" fill="#CCCCCC"/>
<path d="M29.084 17H27.666V10.1504L25.5742 10.8652V9.66406L28.9023 8.43945H29.084V17Z" fill="white"/>
<path d="M148 7C148 5.89543 148.895 5 150 5H164C165.105 5 166 5.89543 166 7V16.1857C166 16.7167 165.789 17.2259 165.413 17.6011L158.413 24.5894C157.632 25.3688 156.368 25.3688 155.587 24.5894L148.587 17.6011C148.211 17.2259 148 16.7167 148 16.1857V7Z" fill="#CCCCCC"/>
<path d="M159.965 17H154.229V16.0215L157.07 12.9219C157.48 12.4648 157.771 12.084 157.943 11.7793C158.119 11.4707 158.207 11.1621 158.207 10.8535C158.207 10.4473 158.092 10.1191 157.861 9.86914C157.635 9.61914 157.328 9.49414 156.941 9.49414C156.48 9.49414 156.123 9.63477 155.869 9.91602C155.615 10.1973 155.488 10.582 155.488 11.0703H154.064C154.064 10.5508 154.182 10.084 154.416 9.66992C154.654 9.25195 154.992 8.92773 155.43 8.69727C155.871 8.4668 156.379 8.35156 156.953 8.35156C157.781 8.35156 158.434 8.56055 158.91 8.97852C159.391 9.39258 159.631 9.9668 159.631 10.7012C159.631 11.127 159.51 11.5742 159.268 12.043C159.029 12.5078 158.637 13.0371 158.09 13.6309L156.004 15.8633H159.965V17Z" fill="white"/>
<path d="M280 7C280 5.89543 280.895 5 282 5H296C297.105 5 298 5.89543 298 7V16.1857C298 16.7167 297.789 17.2259 297.413 17.6011L290.413 24.5894C289.632 25.3688 288.368 25.3688 287.587 24.5894L280.587 17.6011C280.211 17.2259 280 16.7167 280 16.1857V7Z" fill="#CCCCCC"/>
<path d="M287.875 12.084H288.742C289.18 12.0801 289.525 11.9668 289.779 11.7441C290.037 11.5215 290.166 11.1992 290.166 10.7773C290.166 10.3711 290.059 10.0566 289.844 9.83398C289.633 9.60742 289.309 9.49414 288.871 9.49414C288.488 9.49414 288.174 9.60547 287.928 9.82812C287.682 10.0469 287.559 10.334 287.559 10.6895H286.135C286.135 10.252 286.25 9.85352 286.48 9.49414C286.715 9.13477 287.039 8.85547 287.453 8.65625C287.871 8.45312 288.338 8.35156 288.854 8.35156C289.705 8.35156 290.373 8.56641 290.857 8.99609C291.346 9.42188 291.59 10.0156 291.59 10.7773C291.59 11.1602 291.467 11.5215 291.221 11.8613C290.979 12.1973 290.664 12.4512 290.277 12.623C290.746 12.7832 291.102 13.0352 291.344 13.3789C291.59 13.7227 291.713 14.1328 291.713 14.6094C291.713 15.375 291.449 15.9844 290.922 16.4375C290.398 16.8906 289.709 17.1172 288.854 17.1172C288.033 17.1172 287.361 16.8984 286.838 16.4609C286.314 16.0234 286.053 15.4414 286.053 14.7148H287.477C287.477 15.0898 287.602 15.3945 287.852 15.6289C288.105 15.8633 288.445 15.9805 288.871 15.9805C289.312 15.9805 289.66 15.8633 289.914 15.6289C290.168 15.3945 290.295 15.0547 290.295 14.6094C290.295 14.1602 290.162 13.8145 289.896 13.5723C289.631 13.3301 289.236 13.209 288.713 13.209H287.875V12.084Z" fill="white"/>
<path d="M409 7C409 5.89543 409.895 5 411 5H425C426.105 5 427 5.89543 427 7V16.1857C427 16.7167 426.789 17.2259 426.413 17.6011L419.413 24.5894C418.632 25.3688 417.368 25.3688 416.587 24.5894L409.587 17.6011C409.211 17.2259 409 16.7167 409 16.1857V7Z" fill="#CCCCCC"/>
<path d="M420.045 13.959H421.105V15.1016H420.045V17H418.621V15.1016H414.936L414.895 14.2344L418.574 8.46875H420.045V13.959ZM416.389 13.959H418.621V10.3965L418.516 10.584L416.389 13.959Z" fill="white"/>
<path d="M7 37C5.89543 37 5 36.1046 5 35L5 21C5 19.8954 5.89543 19 7 19L16.1857 19C16.7167 19 17.2259 19.2112 17.6011 19.587L24.5894 26.587C25.3688 27.3677 25.3688 28.6323 24.5894 29.413L17.6011 36.413C17.2259 36.7888 16.7167 37 16.1857 37L7 37Z" fill="#CCCCCC"/>
<path d="M14.084 32H12.666V25.1504L10.5742 25.8652V24.6641L13.9023 23.4395H14.084V32Z" fill="white"/>
<path d="M7 116C5.89543 116 5 115.105 5 114L5 100C5 98.8954 5.89543 98 7 98L16.1857 98C16.7167 98 17.2259 98.2112 17.6011 98.587L24.5894 105.587C25.3688 106.368 25.3688 107.632 24.5894 108.413L17.6011 115.413C17.2259 115.789 16.7167 116 16.1857 116L7 116Z" fill="#CCCCCC"/>
<path d="M15.9648 111H10.2285V110.021L13.0703 106.922C13.4805 106.465 13.7715 106.084 13.9434 105.779C14.1191 105.471 14.207 105.162 14.207 104.854C14.207 104.447 14.0918 104.119 13.8613 103.869C13.6348 103.619 13.3281 103.494 12.9414 103.494C12.4805 103.494 12.123 103.635 11.8691 103.916C11.6152 104.197 11.4883 104.582 11.4883 105.07H10.0645C10.0645 104.551 10.1816 104.084 10.416 103.67C10.6543 103.252 10.9922 102.928 11.4297 102.697C11.8711 102.467 12.3789 102.352 12.9531 102.352C13.7812 102.352 14.4336 102.561 14.9102 102.979C15.3906 103.393 15.6309 103.967 15.6309 104.701C15.6309 105.127 15.5098 105.574 15.2676 106.043C15.0293 106.508 14.6367 107.037 14.0898 107.631L12.0039 109.863H15.9648V111Z" fill="white"/>
<path d="M7 195C5.89543 195 5 194.105 5 193L5 179C5 177.895 5.89543 177 7 177L16.1857 177C16.7167 177 17.2259 177.211 17.6011 177.587L24.5894 184.587C25.3688 185.368 25.3688 186.632 24.5894 187.413L17.6011 194.413C17.2259 194.789 16.7167 195 16.1857 195L7 195Z" fill="#CCCCCC"/>
<path d="M11.875 185.084H12.7422C13.1797 185.08 13.5254 184.967 13.7793 184.744C14.0371 184.521 14.166 184.199 14.166 183.777C14.166 183.371 14.0586 183.057 13.8438 182.834C13.6328 182.607 13.3086 182.494 12.8711 182.494C12.4883 182.494 12.1738 182.605 11.9277 182.828C11.6816 183.047 11.5586 183.334 11.5586 183.689H10.1348C10.1348 183.252 10.25 182.854 10.4805 182.494C10.7148 182.135 11.0391 181.855 11.4531 181.656C11.8711 181.453 12.3379 181.352 12.8535 181.352C13.7051 181.352 14.373 181.566 14.8574 181.996C15.3457 182.422 15.5898 183.016 15.5898 183.777C15.5898 184.16 15.4668 184.521 15.2207 184.861C14.9785 185.197 14.6641 185.451 14.2773 185.623C14.7461 185.783 15.1016 186.035 15.3438 186.379C15.5898 186.723 15.7129 187.133 15.7129 187.609C15.7129 188.375 15.4492 188.984 14.9219 189.438C14.3984 189.891 13.709 190.117 12.8535 190.117C12.0332 190.117 11.3613 189.898 10.8379 189.461C10.3145 189.023 10.0527 188.441 10.0527 187.715H11.4766C11.4766 188.09 11.6016 188.395 11.8516 188.629C12.1055 188.863 12.4453 188.98 12.8711 188.98C13.3125 188.98 13.6602 188.863 13.9141 188.629C14.168 188.395 14.2949 188.055 14.2949 187.609C14.2949 187.16 14.1621 186.814 13.8965 186.572C13.6309 186.33 13.2363 186.209 12.7129 186.209H11.875V185.084Z" fill="white"/>
<path d="M439 19C440.105 19 441 19.8954 441 21L441 35C441 36.1046 440.105 37 439 37L429.814 37C429.283 37 428.774 36.7888 428.399 36.413L421.411 29.413C420.631 28.6322 420.631 27.3677 421.411 26.587L428.399 19.587C428.774 19.2112 429.283 19 429.814 19L439 19Z" fill="#DDDDDD"/>
<path d="M431.113 28.9473H428.037V27.7988H431.113V28.9473ZM433.844 27.084H434.711C435.148 27.0801 435.494 26.9668 435.748 26.7441C436.006 26.5215 436.135 26.1992 436.135 25.7773C436.135 25.3711 436.027 25.0566 435.812 24.834C435.602 24.6074 435.277 24.4941 434.84 24.4941C434.457 24.4941 434.143 24.6055 433.896 24.8281C433.65 25.0469 433.527 25.334 433.527 25.6895H432.104C432.104 25.252 432.219 24.8535 432.449 24.4941C432.684 24.1348 433.008 23.8555 433.422 23.6562C433.84 23.4531 434.307 23.3516 434.822 23.3516C435.674 23.3516 436.342 23.5664 436.826 23.9961C437.314 24.4219 437.559 25.0156 437.559 25.7773C437.559 26.1602 437.436 26.5215 437.189 26.8613C436.947 27.1973 436.633 27.4512 436.246 27.623C436.715 27.7832 437.07 28.0352 437.312 28.3789C437.559 28.7227 437.682 29.1328 437.682 29.6094C437.682 30.375 437.418 30.9844 436.891 31.4375C436.367 31.8906 435.678 32.1172 434.822 32.1172C434.002 32.1172 433.33 31.8984 432.807 31.4609C432.283 31.0234 432.021 30.4414 432.021 29.7148H433.445C433.445 30.0898 433.57 30.3945 433.82 30.6289C434.074 30.8633 434.414 30.9805 434.84 30.9805C435.281 30.9805 435.629 30.8633 435.883 30.6289C436.137 30.3945 436.264 30.0547 436.264 29.6094C436.264 29.1602 436.131 28.8145 435.865 28.5723C435.6 28.3301 435.205 28.209 434.682 28.209H433.844V27.084Z" fill="white"/>
<path d="M439 98C440.105 98 441 98.8954 441 100L441 114C441 115.105 440.105 116 439 116L429.814 116C429.283 116 428.774 115.789 428.399 115.413L421.411 108.413C420.631 107.632 420.631 106.368 421.411 105.587L428.399 98.587C428.774 98.2112 429.283 98 429.814 98L439 98Z" fill="#DDDDDD"/>
<path d="M431.113 107.947H428.037V106.799H431.113V107.947ZM437.934 111H432.197V110.021L435.039 106.922C435.449 106.465 435.74 106.084 435.912 105.779C436.088 105.471 436.176 105.162 436.176 104.854C436.176 104.447 436.061 104.119 435.83 103.869C435.604 103.619 435.297 103.494 434.91 103.494C434.449 103.494 434.092 103.635 433.838 103.916C433.584 104.197 433.457 104.582 433.457 105.07H432.033C432.033 104.551 432.15 104.084 432.385 103.67C432.623 103.252 432.961 102.928 433.398 102.697C433.84 102.467 434.348 102.352 434.922 102.352C435.75 102.352 436.402 102.561 436.879 102.979C437.359 103.393 437.6 103.967 437.6 104.701C437.6 105.127 437.479 105.574 437.236 106.043C436.998 106.508 436.605 107.037 436.059 107.631L433.973 109.863H437.934V111Z" fill="white"/>
<path d="M439 177C440.105 177 441 177.895 441 179L441 193C441 194.105 440.105 195 439 195L429.814 195C429.283 195 428.774 194.789 428.399 194.413L421.411 187.413C420.631 186.632 420.631 185.368 421.411 184.587L428.399 177.587C428.774 177.211 429.283 177 429.814 177L439 177Z" fill="#DDDDDD"/>
<path d="M431.113 186.947H428.037V185.799H431.113V186.947ZM436.053 190H434.635V183.15L432.543 183.865V182.664L435.871 181.439H436.053V190Z" fill="white"/>
<rect x="28" y="28" width="390" height="158" fill="white"/>
<path d="M153.5 29L153.5 185" stroke="#BBBBBB" stroke-dasharray="3 2"/>
<path d="M160.5 29L160.5 185" stroke="#BBBBBB" stroke-dasharray="3 2"/>
<path d="M285.5 29L285.5 185" stroke="#BBBBBB" stroke-dasharray="3 2"/>
<path d="M292.5 29L292.5 185" stroke="#BBBBBB" stroke-dasharray="3 2"/>
<path d="M29 110.5L417 110.5" stroke="#BBBBBB" stroke-dasharray="3 2"/>
<path d="M29 103.5L417 103.5" stroke="#BBBBBB" stroke-dasharray="3 2"/>
<rect x="28" y="28" width="390" height="158" stroke="#AAAAAA" stroke-width="2"/>
<g opacity="0.75">
<rect x="31" y="31" width="252" height="70" rx="5" fill="#00986B"/>
<path d="M75.6045 69.9333H73.8247V62.0085H75.6045V69.9333ZM73.7148 59.9504C73.7148 59.677 73.8003 59.45 73.9712 59.2693C74.147 59.0886 74.396 58.9983 74.7183 58.9983C75.0405 58.9983 75.2896 59.0886 75.4653 59.2693C75.6411 59.45 75.729 59.677 75.729 59.9504C75.729 60.219 75.6411 60.4436 75.4653 60.6243C75.2896 60.8 75.0405 60.8879 74.7183 60.8879C74.396 60.8879 74.147 60.8 73.9712 60.6243C73.8003 60.4436 73.7148 60.219 73.7148 59.9504ZM79.7793 60.0823V62.0085H81.1782V63.3269H79.7793V67.7507C79.7793 68.0535 79.8379 68.2732 79.9551 68.4099C80.0771 68.5417 80.292 68.6077 80.5996 68.6077C80.8047 68.6077 81.0122 68.5833 81.2222 68.5344V69.9114C80.8169 70.0237 80.4263 70.0798 80.0503 70.0798C78.6831 70.0798 77.9995 69.3254 77.9995 67.8167V63.3269H76.6958V62.0085H77.9995V60.0823H79.7793ZM86.0342 70.0798C84.9062 70.0798 83.9907 69.7258 83.2876 69.0178C82.5894 68.3049 82.2402 67.3577 82.2402 66.176V65.9563C82.2402 65.1653 82.3916 64.4597 82.6943 63.8396C83.002 63.2146 83.4316 62.7288 83.9834 62.3821C84.5352 62.0354 85.1504 61.8621 85.8291 61.8621C86.9082 61.8621 87.7407 62.2063 88.3267 62.8948C88.9175 63.5833 89.2129 64.5574 89.2129 65.8171V66.5349H84.0347C84.0884 67.1892 84.3057 67.7068 84.6865 68.0876C85.0723 68.4685 85.5557 68.6589 86.1367 68.6589C86.9521 68.6589 87.6162 68.3293 88.1289 67.6702L89.0884 68.5857C88.771 69.0593 88.3462 69.428 87.814 69.6917C87.2866 69.9504 86.6934 70.0798 86.0342 70.0798ZM85.8218 63.2903C85.3335 63.2903 84.938 63.4612 84.6353 63.803C84.3374 64.1448 84.147 64.6208 84.064 65.2312H87.4551V65.0994C87.416 64.5037 87.2573 64.0544 86.979 63.7517C86.7007 63.4441 86.3149 63.2903 85.8218 63.2903ZM92.2744 62.0085L92.3257 62.8362C92.8823 62.1868 93.644 61.8621 94.6108 61.8621C95.6704 61.8621 96.3955 62.2673 96.7861 63.0779C97.3623 62.2673 98.1729 61.8621 99.2178 61.8621C100.092 61.8621 100.741 62.1038 101.166 62.5872C101.596 63.0706 101.815 63.7834 101.825 64.7258V69.9333H100.045V64.7771C100.045 64.2742 99.9355 63.9055 99.7158 63.6711C99.4961 63.4368 99.1323 63.3196 98.6245 63.3196C98.2192 63.3196 97.8872 63.4294 97.6284 63.6492C97.3745 63.864 97.1963 64.1472 97.0938 64.4988L97.1011 69.9333H95.3213V64.7185C95.2969 63.7859 94.8208 63.3196 93.8931 63.3196C93.1802 63.3196 92.6748 63.6101 92.377 64.1912V69.9333H90.5972V62.0085H92.2744ZM112.094 69.9333H110.321V61.3713L107.707 62.2649V60.7634L111.867 59.2327H112.094V69.9333Z" fill="white"/>
</g>
<g opacity="0.75">
<rect x="163" y="113" width="252" height="70" rx="5" fill="#B72DF8"/>
<path d="M335.604 151.933H333.825V144.009H335.604V151.933ZM333.715 141.95C333.715 141.677 333.8 141.45 333.971 141.269C334.147 141.089 334.396 140.998 334.718 140.998C335.041 140.998 335.29 141.089 335.465 141.269C335.641 141.45 335.729 141.677 335.729 141.95C335.729 142.219 335.641 142.444 335.465 142.624C335.29 142.8 335.041 142.888 334.718 142.888C334.396 142.888 334.147 142.8 333.971 142.624C333.8 142.444 333.715 142.219 333.715 141.95ZM339.779 142.082V144.009H341.178V145.327H339.779V149.751C339.779 150.053 339.838 150.273 339.955 150.41C340.077 150.542 340.292 150.608 340.6 150.608C340.805 150.608 341.012 150.583 341.222 150.534V151.911C340.817 152.024 340.426 152.08 340.05 152.08C338.683 152.08 338 151.325 338 149.817V145.327H336.696V144.009H338V142.082H339.779ZM346.034 152.08C344.906 152.08 343.991 151.726 343.288 151.018C342.589 150.305 342.24 149.358 342.24 148.176V147.956C342.24 147.165 342.392 146.46 342.694 145.84C343.002 145.215 343.432 144.729 343.983 144.382C344.535 144.035 345.15 143.862 345.829 143.862C346.908 143.862 347.741 144.206 348.327 144.895C348.917 145.583 349.213 146.557 349.213 147.817V148.535H344.035C344.088 149.189 344.306 149.707 344.687 150.088C345.072 150.469 345.556 150.659 346.137 150.659C346.952 150.659 347.616 150.329 348.129 149.67L349.088 150.586C348.771 151.059 348.346 151.428 347.814 151.692C347.287 151.95 346.693 152.08 346.034 152.08ZM345.822 145.29C345.333 145.29 344.938 145.461 344.635 145.803C344.337 146.145 344.147 146.621 344.064 147.231H347.455V147.099C347.416 146.504 347.257 146.054 346.979 145.752C346.701 145.444 346.315 145.29 345.822 145.29ZM352.274 144.009L352.326 144.836C352.882 144.187 353.644 143.862 354.611 143.862C355.67 143.862 356.396 144.267 356.786 145.078C357.362 144.267 358.173 143.862 359.218 143.862C360.092 143.862 360.741 144.104 361.166 144.587C361.596 145.071 361.815 145.783 361.825 146.726V151.933H360.045V146.777C360.045 146.274 359.936 145.906 359.716 145.671C359.496 145.437 359.132 145.32 358.625 145.32C358.219 145.32 357.887 145.429 357.628 145.649C357.375 145.864 357.196 146.147 357.094 146.499L357.101 151.933H355.321V146.719C355.297 145.786 354.821 145.32 353.893 145.32C353.18 145.32 352.675 145.61 352.377 146.191V151.933H350.597V144.009H352.274ZM369.333 145.788H370.417C370.963 145.783 371.396 145.642 371.713 145.364C372.035 145.085 372.196 144.682 372.196 144.155C372.196 143.647 372.062 143.254 371.793 142.976C371.53 142.693 371.125 142.551 370.578 142.551C370.099 142.551 369.706 142.69 369.398 142.969C369.091 143.242 368.937 143.601 368.937 144.045H367.157C367.157 143.498 367.301 143 367.589 142.551C367.882 142.102 368.288 141.753 368.805 141.504C369.328 141.25 369.911 141.123 370.556 141.123C371.62 141.123 372.455 141.391 373.061 141.928C373.671 142.461 373.976 143.203 373.976 144.155C373.976 144.634 373.822 145.085 373.515 145.51C373.212 145.93 372.819 146.247 372.335 146.462C372.921 146.662 373.366 146.977 373.668 147.407C373.976 147.837 374.13 148.349 374.13 148.945C374.13 149.902 373.8 150.664 373.141 151.23C372.487 151.797 371.625 152.08 370.556 152.08C369.53 152.08 368.69 151.806 368.036 151.26C367.382 150.713 367.055 149.985 367.055 149.077H368.834C368.834 149.546 368.991 149.927 369.303 150.219C369.621 150.512 370.045 150.659 370.578 150.659C371.129 150.659 371.564 150.512 371.881 150.219C372.199 149.927 372.357 149.502 372.357 148.945C372.357 148.384 372.191 147.951 371.859 147.649C371.527 147.346 371.034 147.195 370.38 147.195H369.333V145.788Z" fill="white"/>
</g>
<g opacity="0.8">
<path d="M163 36C163 33.2386 165.239 31 168 31H278C280.761 31 283 33.2386 283 36V178C283 180.761 280.761 183 278 183H168C165.239 183 163 180.761 163 178V36Z" fill="#1E73FF"/>
<path d="M205.204 110.627H203.424V102.702H205.204V110.627ZM203.314 100.644C203.314 100.37 203.4 100.143 203.571 99.9626C203.747 99.782 203.996 99.6917 204.318 99.6917C204.64 99.6917 204.889 99.782 205.065 99.9626C205.241 100.143 205.329 100.37 205.329 100.644C205.329 100.912 205.241 101.137 205.065 101.318C204.889 101.493 204.64 101.581 204.318 101.581C203.996 101.581 203.747 101.493 203.571 101.318C203.4 101.137 203.314 100.912 203.314 100.644ZM209.379 100.776V102.702H210.778V104.02H209.379V108.444C209.379 108.747 209.438 108.967 209.555 109.103C209.677 109.235 209.892 109.301 210.199 109.301C210.404 109.301 210.612 109.277 210.822 109.228V110.605C210.417 110.717 210.026 110.773 209.65 110.773C208.283 110.773 207.599 110.019 207.599 108.51V104.02H206.295V102.702H207.599V100.776H209.379ZM215.634 110.773C214.506 110.773 213.59 110.419 212.887 109.711C212.189 108.998 211.84 108.051 211.84 106.869V106.65C211.84 105.859 211.991 105.153 212.294 104.533C212.602 103.908 213.031 103.422 213.583 103.075C214.135 102.729 214.75 102.555 215.429 102.555C216.508 102.555 217.34 102.9 217.926 103.588C218.517 104.277 218.812 105.251 218.812 106.51V107.228H213.634C213.688 107.883 213.905 108.4 214.286 108.781C214.672 109.162 215.155 109.352 215.736 109.352C216.552 109.352 217.216 109.023 217.729 108.364L218.688 109.279C218.371 109.753 217.946 110.121 217.414 110.385C216.886 110.644 216.293 110.773 215.634 110.773ZM215.421 103.984C214.933 103.984 214.538 104.155 214.235 104.496C213.937 104.838 213.747 105.314 213.664 105.925H217.055V105.793C217.016 105.197 216.857 104.748 216.579 104.445C216.3 104.137 215.915 103.984 215.421 103.984ZM221.874 102.702L221.925 103.53C222.482 102.88 223.244 102.555 224.21 102.555C225.27 102.555 225.995 102.961 226.386 103.771C226.962 102.961 227.772 102.555 228.817 102.555C229.691 102.555 230.341 102.797 230.766 103.281C231.195 103.764 231.415 104.477 231.425 105.419V110.627H229.645V105.47C229.645 104.968 229.535 104.599 229.315 104.365C229.096 104.13 228.732 104.013 228.224 104.013C227.819 104.013 227.487 104.123 227.228 104.343C226.974 104.557 226.796 104.841 226.693 105.192L226.701 110.627H224.921V105.412C224.896 104.479 224.42 104.013 223.493 104.013C222.78 104.013 222.274 104.303 221.977 104.885V110.627H220.197V102.702H221.874ZM244.044 110.627H236.874V109.404L240.426 105.529C240.939 104.958 241.303 104.482 241.518 104.101C241.737 103.715 241.847 103.329 241.847 102.944C241.847 102.436 241.703 102.026 241.415 101.713C241.132 101.401 240.749 101.244 240.265 101.244C239.689 101.244 239.242 101.42 238.925 101.772C238.607 102.123 238.449 102.604 238.449 103.215H236.669C236.669 102.565 236.815 101.982 237.108 101.464C237.406 100.942 237.829 100.536 238.375 100.248C238.927 99.9602 239.562 99.8162 240.28 99.8162C241.315 99.8162 242.13 100.077 242.726 100.6C243.327 101.117 243.627 101.835 243.627 102.753C243.627 103.285 243.476 103.844 243.173 104.43C242.875 105.011 242.384 105.673 241.701 106.415L239.093 109.206H244.044V110.627Z" fill="white"/>
</g>
</svg>
