<svg width="600" height="488" viewBox="0 0 600 488" fill="none" xmlns="http://www.w3.org/2000/svg">
<rect x="1" y="36" width="598" height="192" fill="white" stroke="#DDDDDD" stroke-width="2" stroke-dasharray="6 4"/>
<rect x="350" y="55" width="230" height="154" rx="5" fill="#DDDDDD"/>
<rect x="20" y="55" width="230" height="154" rx="5" fill="#DDDDDD"/>
<rect x="260" y="55" width="80" height="154" rx="5" fill="#1E73FF"/>
<path d="M277.383 78.3359C277.799 78.3359 278.138 78.2214 278.398 77.9922C278.659 77.763 278.794 77.4583 278.805 77.0781H280.922C280.917 77.651 280.76 78.1771 280.453 78.6562C280.146 79.1302 279.724 79.5 279.188 79.7656C278.656 80.026 278.068 80.1562 277.422 80.1562C276.214 80.1562 275.26 79.7734 274.562 79.0078C273.865 78.237 273.516 77.1745 273.516 75.8203V75.6719C273.516 74.3698 273.862 73.3307 274.555 72.5547C275.247 71.7786 276.198 71.3906 277.406 71.3906C278.464 71.3906 279.31 71.6927 279.945 72.2969C280.586 72.8958 280.911 73.6953 280.922 74.6953H278.805C278.794 74.2578 278.659 73.9036 278.398 73.6328C278.138 73.3568 277.794 73.2188 277.367 73.2188C276.841 73.2188 276.443 73.4115 276.172 73.7969C275.906 74.1771 275.773 74.7969 275.773 75.6562V75.8906C275.773 76.7604 275.906 77.3854 276.172 77.7656C276.438 78.1458 276.841 78.3359 277.383 78.3359ZM281.859 75.6953C281.859 74.8568 282.021 74.1094 282.344 73.4531C282.667 72.7969 283.13 72.2891 283.734 71.9297C284.344 71.5703 285.049 71.3906 285.852 71.3906C286.992 71.3906 287.922 71.7396 288.641 72.4375C289.365 73.1354 289.768 74.0833 289.852 75.2812L289.867 75.8594C289.867 77.1562 289.505 78.1979 288.781 78.9844C288.057 79.7656 287.086 80.1562 285.867 80.1562C284.648 80.1562 283.674 79.7656 282.945 78.9844C282.221 78.2031 281.859 77.1406 281.859 75.7969V75.6953ZM284.117 75.8594C284.117 76.6615 284.268 77.276 284.57 77.7031C284.872 78.125 285.305 78.3359 285.867 78.3359C286.414 78.3359 286.841 78.1276 287.148 77.7109C287.456 77.2891 287.609 76.6172 287.609 75.6953C287.609 74.9089 287.456 74.2995 287.148 73.8672C286.841 73.4349 286.409 73.2188 285.852 73.2188C285.299 73.2188 284.872 73.4349 284.57 73.8672C284.268 74.2943 284.117 74.9583 284.117 75.8594ZM293.336 71.5469L293.406 72.5234C294.01 71.7682 294.82 71.3906 295.836 71.3906C296.732 71.3906 297.398 71.6536 297.836 72.1797C298.273 72.7057 298.497 73.4922 298.508 74.5391V80H296.25V74.5938C296.25 74.1146 296.146 73.7682 295.938 73.5547C295.729 73.3359 295.383 73.2266 294.898 73.2266C294.263 73.2266 293.786 73.4974 293.469 74.0391V80H291.211V71.5469H293.336ZM302.93 69.4688V71.5469H304.375V73.2031H302.93V77.4219C302.93 77.7344 302.99 77.9583 303.109 78.0938C303.229 78.2292 303.458 78.2969 303.797 78.2969C304.047 78.2969 304.268 78.2786 304.461 78.2422V79.9531C304.018 80.0885 303.562 80.1562 303.094 80.1562C301.51 80.1562 300.703 79.3568 300.672 77.7578V73.2031H299.438V71.5469H300.672V69.4688H302.93ZM309.523 80.1562C308.284 80.1562 307.273 79.776 306.492 79.0156C305.716 78.2552 305.328 77.2422 305.328 75.9766V75.7578C305.328 74.9089 305.492 74.151 305.82 73.4844C306.148 72.8125 306.612 72.2969 307.211 71.9375C307.815 71.5729 308.503 71.3906 309.273 71.3906C310.43 71.3906 311.339 71.7552 312 72.4844C312.667 73.2135 313 74.2474 313 75.5859V76.5078H307.617C307.69 77.0599 307.909 77.5026 308.273 77.8359C308.643 78.1693 309.109 78.3359 309.672 78.3359C310.542 78.3359 311.221 78.0208 311.711 77.3906L312.82 78.6328C312.482 79.112 312.023 79.487 311.445 79.7578C310.867 80.0234 310.227 80.1562 309.523 80.1562ZM309.266 73.2188C308.818 73.2188 308.453 73.3698 308.172 73.6719C307.896 73.974 307.719 74.4062 307.641 74.9688H310.781V74.7891C310.771 74.2891 310.635 73.9036 310.375 73.6328C310.115 73.3568 309.745 73.2188 309.266 73.2188ZM316.367 71.5469L316.438 72.5234C317.042 71.7682 317.852 71.3906 318.867 71.3906C319.763 71.3906 320.43 71.6536 320.867 72.1797C321.305 72.7057 321.529 73.4922 321.539 74.5391V80H319.281V74.5938C319.281 74.1146 319.177 73.7682 318.969 73.5547C318.76 73.3359 318.414 73.2266 317.93 73.2266C317.294 73.2266 316.818 73.4974 316.5 74.0391V80H314.242V71.5469H316.367ZM325.961 69.4688V71.5469H327.406V73.2031H325.961V77.4219C325.961 77.7344 326.021 77.9583 326.141 78.0938C326.26 78.2292 326.49 78.2969 326.828 78.2969C327.078 78.2969 327.299 78.2786 327.492 78.2422V79.9531C327.049 80.0885 326.594 80.1562 326.125 80.1562C324.542 80.1562 323.734 79.3568 323.703 77.7578V73.2031H322.469V71.5469H323.703V69.4688H325.961ZM277.383 100.336C277.799 100.336 278.138 100.221 278.398 99.9922C278.659 99.763 278.794 99.4583 278.805 99.0781H280.922C280.917 99.651 280.76 100.177 280.453 100.656C280.146 101.13 279.724 101.5 279.188 101.766C278.656 102.026 278.068 102.156 277.422 102.156C276.214 102.156 275.26 101.773 274.562 101.008C273.865 100.237 273.516 99.1745 273.516 97.8203V97.6719C273.516 96.3698 273.862 95.3307 274.555 94.5547C275.247 93.7786 276.198 93.3906 277.406 93.3906C278.464 93.3906 279.31 93.6927 279.945 94.2969C280.586 94.8958 280.911 95.6953 280.922 96.6953H278.805C278.794 96.2578 278.659 95.9036 278.398 95.6328C278.138 95.3568 277.794 95.2188 277.367 95.2188C276.841 95.2188 276.443 95.4115 276.172 95.7969C275.906 96.1771 275.773 96.7969 275.773 97.6562V97.8906C275.773 98.7604 275.906 99.3854 276.172 99.7656C276.438 100.146 276.841 100.336 277.383 100.336ZM281.859 97.6953C281.859 96.8568 282.021 96.1094 282.344 95.4531C282.667 94.7969 283.13 94.2891 283.734 93.9297C284.344 93.5703 285.049 93.3906 285.852 93.3906C286.992 93.3906 287.922 93.7396 288.641 94.4375C289.365 95.1354 289.768 96.0833 289.852 97.2812L289.867 97.8594C289.867 99.1562 289.505 100.198 288.781 100.984C288.057 101.766 287.086 102.156 285.867 102.156C284.648 102.156 283.674 101.766 282.945 100.984C282.221 100.203 281.859 99.1406 281.859 97.7969V97.6953ZM284.117 97.8594C284.117 98.6615 284.268 99.276 284.57 99.7031C284.872 100.125 285.305 100.336 285.867 100.336C286.414 100.336 286.841 100.128 287.148 99.7109C287.456 99.2891 287.609 98.6172 287.609 97.6953C287.609 96.9089 287.456 96.2995 287.148 95.8672C286.841 95.4349 286.409 95.2188 285.852 95.2188C285.299 95.2188 284.872 95.4349 284.57 95.8672C284.268 96.2943 284.117 96.9583 284.117 97.8594ZM293.336 93.5469L293.406 94.5234C294.01 93.7682 294.82 93.3906 295.836 93.3906C296.732 93.3906 297.398 93.6536 297.836 94.1797C298.273 94.7057 298.497 95.4922 298.508 96.5391V102H296.25V96.5938C296.25 96.1146 296.146 95.7682 295.938 95.5547C295.729 95.3359 295.383 95.2266 294.898 95.2266C294.263 95.2266 293.786 95.4974 293.469 96.0391V102H291.211V93.5469H293.336ZM302.93 91.4688V93.5469H304.375V95.2031H302.93V99.4219C302.93 99.7344 302.99 99.9583 303.109 100.094C303.229 100.229 303.458 100.297 303.797 100.297C304.047 100.297 304.268 100.279 304.461 100.242V101.953C304.018 102.089 303.562 102.156 303.094 102.156C301.51 102.156 300.703 101.357 300.672 99.7578V95.2031H299.438V93.5469H300.672V91.4688H302.93ZM309.523 102.156C308.284 102.156 307.273 101.776 306.492 101.016C305.716 100.255 305.328 99.2422 305.328 97.9766V97.7578C305.328 96.9089 305.492 96.151 305.82 95.4844C306.148 94.8125 306.612 94.2969 307.211 93.9375C307.815 93.5729 308.503 93.3906 309.273 93.3906C310.43 93.3906 311.339 93.7552 312 94.4844C312.667 95.2135 313 96.2474 313 97.5859V98.5078H307.617C307.69 99.0599 307.909 99.5026 308.273 99.8359C308.643 100.169 309.109 100.336 309.672 100.336C310.542 100.336 311.221 100.021 311.711 99.3906L312.82 100.633C312.482 101.112 312.023 101.487 311.445 101.758C310.867 102.023 310.227 102.156 309.523 102.156ZM309.266 95.2188C308.818 95.2188 308.453 95.3698 308.172 95.6719C307.896 95.974 307.719 96.4062 307.641 96.9688H310.781V96.7891C310.771 96.2891 310.635 95.9036 310.375 95.6328C310.115 95.3568 309.745 95.2188 309.266 95.2188ZM316.367 93.5469L316.438 94.5234C317.042 93.7682 317.852 93.3906 318.867 93.3906C319.763 93.3906 320.43 93.6536 320.867 94.1797C321.305 94.7057 321.529 95.4922 321.539 96.5391V102H319.281V96.5938C319.281 96.1146 319.177 95.7682 318.969 95.5547C318.76 95.3359 318.414 95.2266 317.93 95.2266C317.294 95.2266 316.818 95.4974 316.5 96.0391V102H314.242V93.5469H316.367ZM325.961 91.4688V93.5469H327.406V95.2031H325.961V99.4219C325.961 99.7344 326.021 99.9583 326.141 100.094C326.26 100.229 326.49 100.297 326.828 100.297C327.078 100.297 327.299 100.279 327.492 100.242V101.953C327.049 102.089 326.594 102.156 326.125 102.156C324.542 102.156 323.734 101.357 323.703 99.7578V95.2031H322.469V93.5469H323.703V91.4688H325.961ZM277.383 122.336C277.799 122.336 278.138 122.221 278.398 121.992C278.659 121.763 278.794 121.458 278.805 121.078H280.922C280.917 121.651 280.76 122.177 280.453 122.656C280.146 123.13 279.724 123.5 279.188 123.766C278.656 124.026 278.068 124.156 277.422 124.156C276.214 124.156 275.26 123.773 274.562 123.008C273.865 122.237 273.516 121.174 273.516 119.82V119.672C273.516 118.37 273.862 117.331 274.555 116.555C275.247 115.779 276.198 115.391 277.406 115.391C278.464 115.391 279.31 115.693 279.945 116.297C280.586 116.896 280.911 117.695 280.922 118.695H278.805C278.794 118.258 278.659 117.904 278.398 117.633C278.138 117.357 277.794 117.219 277.367 117.219C276.841 117.219 276.443 117.411 276.172 117.797C275.906 118.177 275.773 118.797 275.773 119.656V119.891C275.773 120.76 275.906 121.385 276.172 121.766C276.438 122.146 276.841 122.336 277.383 122.336ZM281.859 119.695C281.859 118.857 282.021 118.109 282.344 117.453C282.667 116.797 283.13 116.289 283.734 115.93C284.344 115.57 285.049 115.391 285.852 115.391C286.992 115.391 287.922 115.74 288.641 116.438C289.365 117.135 289.768 118.083 289.852 119.281L289.867 119.859C289.867 121.156 289.505 122.198 288.781 122.984C288.057 123.766 287.086 124.156 285.867 124.156C284.648 124.156 283.674 123.766 282.945 122.984C282.221 122.203 281.859 121.141 281.859 119.797V119.695ZM284.117 119.859C284.117 120.661 284.268 121.276 284.57 121.703C284.872 122.125 285.305 122.336 285.867 122.336C286.414 122.336 286.841 122.128 287.148 121.711C287.456 121.289 287.609 120.617 287.609 119.695C287.609 118.909 287.456 118.299 287.148 117.867C286.841 117.435 286.409 117.219 285.852 117.219C285.299 117.219 284.872 117.435 284.57 117.867C284.268 118.294 284.117 118.958 284.117 119.859ZM293.336 115.547L293.406 116.523C294.01 115.768 294.82 115.391 295.836 115.391C296.732 115.391 297.398 115.654 297.836 116.18C298.273 116.706 298.497 117.492 298.508 118.539V124H296.25V118.594C296.25 118.115 296.146 117.768 295.938 117.555C295.729 117.336 295.383 117.227 294.898 117.227C294.263 117.227 293.786 117.497 293.469 118.039V124H291.211V115.547H293.336ZM302.93 113.469V115.547H304.375V117.203H302.93V121.422C302.93 121.734 302.99 121.958 303.109 122.094C303.229 122.229 303.458 122.297 303.797 122.297C304.047 122.297 304.268 122.279 304.461 122.242V123.953C304.018 124.089 303.562 124.156 303.094 124.156C301.51 124.156 300.703 123.357 300.672 121.758V117.203H299.438V115.547H300.672V113.469H302.93ZM309.523 124.156C308.284 124.156 307.273 123.776 306.492 123.016C305.716 122.255 305.328 121.242 305.328 119.977V119.758C305.328 118.909 305.492 118.151 305.82 117.484C306.148 116.812 306.612 116.297 307.211 115.938C307.815 115.573 308.503 115.391 309.273 115.391C310.43 115.391 311.339 115.755 312 116.484C312.667 117.214 313 118.247 313 119.586V120.508H307.617C307.69 121.06 307.909 121.503 308.273 121.836C308.643 122.169 309.109 122.336 309.672 122.336C310.542 122.336 311.221 122.021 311.711 121.391L312.82 122.633C312.482 123.112 312.023 123.487 311.445 123.758C310.867 124.023 310.227 124.156 309.523 124.156ZM309.266 117.219C308.818 117.219 308.453 117.37 308.172 117.672C307.896 117.974 307.719 118.406 307.641 118.969H310.781V118.789C310.771 118.289 310.635 117.904 310.375 117.633C310.115 117.357 309.745 117.219 309.266 117.219ZM316.367 115.547L316.438 116.523C317.042 115.768 317.852 115.391 318.867 115.391C319.763 115.391 320.43 115.654 320.867 116.18C321.305 116.706 321.529 117.492 321.539 118.539V124H319.281V118.594C319.281 118.115 319.177 117.768 318.969 117.555C318.76 117.336 318.414 117.227 317.93 117.227C317.294 117.227 316.818 117.497 316.5 118.039V124H314.242V115.547H316.367ZM325.961 113.469V115.547H327.406V117.203H325.961V121.422C325.961 121.734 326.021 121.958 326.141 122.094C326.26 122.229 326.49 122.297 326.828 122.297C327.078 122.297 327.299 122.279 327.492 122.242V123.953C327.049 124.089 326.594 124.156 326.125 124.156C324.542 124.156 323.734 123.357 323.703 121.758V117.203H322.469V115.547H323.703V113.469H325.961ZM277.383 144.336C277.799 144.336 278.138 144.221 278.398 143.992C278.659 143.763 278.794 143.458 278.805 143.078H280.922C280.917 143.651 280.76 144.177 280.453 144.656C280.146 145.13 279.724 145.5 279.188 145.766C278.656 146.026 278.068 146.156 277.422 146.156C276.214 146.156 275.26 145.773 274.562 145.008C273.865 144.237 273.516 143.174 273.516 141.82V141.672C273.516 140.37 273.862 139.331 274.555 138.555C275.247 137.779 276.198 137.391 277.406 137.391C278.464 137.391 279.31 137.693 279.945 138.297C280.586 138.896 280.911 139.695 280.922 140.695H278.805C278.794 140.258 278.659 139.904 278.398 139.633C278.138 139.357 277.794 139.219 277.367 139.219C276.841 139.219 276.443 139.411 276.172 139.797C275.906 140.177 275.773 140.797 275.773 141.656V141.891C275.773 142.76 275.906 143.385 276.172 143.766C276.438 144.146 276.841 144.336 277.383 144.336ZM281.859 141.695C281.859 140.857 282.021 140.109 282.344 139.453C282.667 138.797 283.13 138.289 283.734 137.93C284.344 137.57 285.049 137.391 285.852 137.391C286.992 137.391 287.922 137.74 288.641 138.438C289.365 139.135 289.768 140.083 289.852 141.281L289.867 141.859C289.867 143.156 289.505 144.198 288.781 144.984C288.057 145.766 287.086 146.156 285.867 146.156C284.648 146.156 283.674 145.766 282.945 144.984C282.221 144.203 281.859 143.141 281.859 141.797V141.695ZM284.117 141.859C284.117 142.661 284.268 143.276 284.57 143.703C284.872 144.125 285.305 144.336 285.867 144.336C286.414 144.336 286.841 144.128 287.148 143.711C287.456 143.289 287.609 142.617 287.609 141.695C287.609 140.909 287.456 140.299 287.148 139.867C286.841 139.435 286.409 139.219 285.852 139.219C285.299 139.219 284.872 139.435 284.57 139.867C284.268 140.294 284.117 140.958 284.117 141.859ZM293.336 137.547L293.406 138.523C294.01 137.768 294.82 137.391 295.836 137.391C296.732 137.391 297.398 137.654 297.836 138.18C298.273 138.706 298.497 139.492 298.508 140.539V146H296.25V140.594C296.25 140.115 296.146 139.768 295.938 139.555C295.729 139.336 295.383 139.227 294.898 139.227C294.263 139.227 293.786 139.497 293.469 140.039V146H291.211V137.547H293.336ZM302.93 135.469V137.547H304.375V139.203H302.93V143.422C302.93 143.734 302.99 143.958 303.109 144.094C303.229 144.229 303.458 144.297 303.797 144.297C304.047 144.297 304.268 144.279 304.461 144.242V145.953C304.018 146.089 303.562 146.156 303.094 146.156C301.51 146.156 300.703 145.357 300.672 143.758V139.203H299.438V137.547H300.672V135.469H302.93ZM309.523 146.156C308.284 146.156 307.273 145.776 306.492 145.016C305.716 144.255 305.328 143.242 305.328 141.977V141.758C305.328 140.909 305.492 140.151 305.82 139.484C306.148 138.812 306.612 138.297 307.211 137.938C307.815 137.573 308.503 137.391 309.273 137.391C310.43 137.391 311.339 137.755 312 138.484C312.667 139.214 313 140.247 313 141.586V142.508H307.617C307.69 143.06 307.909 143.503 308.273 143.836C308.643 144.169 309.109 144.336 309.672 144.336C310.542 144.336 311.221 144.021 311.711 143.391L312.82 144.633C312.482 145.112 312.023 145.487 311.445 145.758C310.867 146.023 310.227 146.156 309.523 146.156ZM309.266 139.219C308.818 139.219 308.453 139.37 308.172 139.672C307.896 139.974 307.719 140.406 307.641 140.969H310.781V140.789C310.771 140.289 310.635 139.904 310.375 139.633C310.115 139.357 309.745 139.219 309.266 139.219ZM316.367 137.547L316.438 138.523C317.042 137.768 317.852 137.391 318.867 137.391C319.763 137.391 320.43 137.654 320.867 138.18C321.305 138.706 321.529 139.492 321.539 140.539V146H319.281V140.594C319.281 140.115 319.177 139.768 318.969 139.555C318.76 139.336 318.414 139.227 317.93 139.227C317.294 139.227 316.818 139.497 316.5 140.039V146H314.242V137.547H316.367ZM325.961 135.469V137.547H327.406V139.203H325.961V143.422C325.961 143.734 326.021 143.958 326.141 144.094C326.26 144.229 326.49 144.297 326.828 144.297C327.078 144.297 327.299 144.279 327.492 144.242V145.953C327.049 146.089 326.594 146.156 326.125 146.156C324.542 146.156 323.734 145.357 323.703 143.758V139.203H322.469V137.547H323.703V135.469H325.961ZM277.383 166.336C277.799 166.336 278.138 166.221 278.398 165.992C278.659 165.763 278.794 165.458 278.805 165.078H280.922C280.917 165.651 280.76 166.177 280.453 166.656C280.146 167.13 279.724 167.5 279.188 167.766C278.656 168.026 278.068 168.156 277.422 168.156C276.214 168.156 275.26 167.773 274.562 167.008C273.865 166.237 273.516 165.174 273.516 163.82V163.672C273.516 162.37 273.862 161.331 274.555 160.555C275.247 159.779 276.198 159.391 277.406 159.391C278.464 159.391 279.31 159.693 279.945 160.297C280.586 160.896 280.911 161.695 280.922 162.695H278.805C278.794 162.258 278.659 161.904 278.398 161.633C278.138 161.357 277.794 161.219 277.367 161.219C276.841 161.219 276.443 161.411 276.172 161.797C275.906 162.177 275.773 162.797 275.773 163.656V163.891C275.773 164.76 275.906 165.385 276.172 165.766C276.438 166.146 276.841 166.336 277.383 166.336ZM281.859 163.695C281.859 162.857 282.021 162.109 282.344 161.453C282.667 160.797 283.13 160.289 283.734 159.93C284.344 159.57 285.049 159.391 285.852 159.391C286.992 159.391 287.922 159.74 288.641 160.438C289.365 161.135 289.768 162.083 289.852 163.281L289.867 163.859C289.867 165.156 289.505 166.198 288.781 166.984C288.057 167.766 287.086 168.156 285.867 168.156C284.648 168.156 283.674 167.766 282.945 166.984C282.221 166.203 281.859 165.141 281.859 163.797V163.695ZM284.117 163.859C284.117 164.661 284.268 165.276 284.57 165.703C284.872 166.125 285.305 166.336 285.867 166.336C286.414 166.336 286.841 166.128 287.148 165.711C287.456 165.289 287.609 164.617 287.609 163.695C287.609 162.909 287.456 162.299 287.148 161.867C286.841 161.435 286.409 161.219 285.852 161.219C285.299 161.219 284.872 161.435 284.57 161.867C284.268 162.294 284.117 162.958 284.117 163.859ZM293.336 159.547L293.406 160.523C294.01 159.768 294.82 159.391 295.836 159.391C296.732 159.391 297.398 159.654 297.836 160.18C298.273 160.706 298.497 161.492 298.508 162.539V168H296.25V162.594C296.25 162.115 296.146 161.768 295.938 161.555C295.729 161.336 295.383 161.227 294.898 161.227C294.263 161.227 293.786 161.497 293.469 162.039V168H291.211V159.547H293.336ZM302.93 157.469V159.547H304.375V161.203H302.93V165.422C302.93 165.734 302.99 165.958 303.109 166.094C303.229 166.229 303.458 166.297 303.797 166.297C304.047 166.297 304.268 166.279 304.461 166.242V167.953C304.018 168.089 303.562 168.156 303.094 168.156C301.51 168.156 300.703 167.357 300.672 165.758V161.203H299.438V159.547H300.672V157.469H302.93ZM309.523 168.156C308.284 168.156 307.273 167.776 306.492 167.016C305.716 166.255 305.328 165.242 305.328 163.977V163.758C305.328 162.909 305.492 162.151 305.82 161.484C306.148 160.812 306.612 160.297 307.211 159.938C307.815 159.573 308.503 159.391 309.273 159.391C310.43 159.391 311.339 159.755 312 160.484C312.667 161.214 313 162.247 313 163.586V164.508H307.617C307.69 165.06 307.909 165.503 308.273 165.836C308.643 166.169 309.109 166.336 309.672 166.336C310.542 166.336 311.221 166.021 311.711 165.391L312.82 166.633C312.482 167.112 312.023 167.487 311.445 167.758C310.867 168.023 310.227 168.156 309.523 168.156ZM309.266 161.219C308.818 161.219 308.453 161.37 308.172 161.672C307.896 161.974 307.719 162.406 307.641 162.969H310.781V162.789C310.771 162.289 310.635 161.904 310.375 161.633C310.115 161.357 309.745 161.219 309.266 161.219ZM316.367 159.547L316.438 160.523C317.042 159.768 317.852 159.391 318.867 159.391C319.763 159.391 320.43 159.654 320.867 160.18C321.305 160.706 321.529 161.492 321.539 162.539V168H319.281V162.594C319.281 162.115 319.177 161.768 318.969 161.555C318.76 161.336 318.414 161.227 317.93 161.227C317.294 161.227 316.818 161.497 316.5 162.039V168H314.242V159.547H316.367ZM325.961 157.469V159.547H327.406V161.203H325.961V165.422C325.961 165.734 326.021 165.958 326.141 166.094C326.26 166.229 326.49 166.297 326.828 166.297C327.078 166.297 327.299 166.279 327.492 166.242V167.953C327.049 168.089 326.594 168.156 326.125 168.156C324.542 168.156 323.734 167.357 323.703 165.758V161.203H322.469V159.547H323.703V157.469H325.961Z" fill="white"/>
<path d="M222.052 7.01855L222.11 7.95654C222.741 7.22054 223.604 6.85254 224.7 6.85254C225.901 6.85254 226.722 7.31185 227.165 8.23047C227.818 7.31185 228.737 6.85254 229.921 6.85254C230.911 6.85254 231.647 7.12646 232.129 7.67432C232.616 8.22217 232.865 9.03011 232.876 10.0981V16H230.859V10.1562C230.859 9.58626 230.734 9.16846 230.485 8.90283C230.236 8.63721 229.824 8.50439 229.249 8.50439C228.789 8.50439 228.413 8.62891 228.12 8.87793C227.832 9.12142 227.63 9.44238 227.514 9.84082L227.522 16H225.505V10.0898C225.477 9.03288 224.938 8.50439 223.886 8.50439C223.078 8.50439 222.506 8.83366 222.168 9.49219V16H220.151V7.01855H222.052ZM237.093 16H235.076V7.01855H237.093V16ZM234.951 4.68604C234.951 4.37614 235.048 4.11882 235.242 3.91406C235.441 3.70931 235.723 3.60693 236.088 3.60693C236.454 3.60693 236.736 3.70931 236.935 3.91406C237.134 4.11882 237.234 4.37614 237.234 4.68604C237.234 4.9904 237.134 5.24495 236.935 5.44971C236.736 5.64893 236.454 5.74854 236.088 5.74854C235.723 5.74854 235.441 5.64893 235.242 5.44971C235.048 5.24495 234.951 4.9904 234.951 4.68604ZM241.168 7.01855L241.227 8.05615C241.891 7.25374 242.762 6.85254 243.841 6.85254C245.712 6.85254 246.664 7.92334 246.697 10.0649V16H244.68V10.1812C244.68 9.61117 244.555 9.19059 244.306 8.91943C244.063 8.64274 243.661 8.50439 243.103 8.50439C242.289 8.50439 241.683 8.8724 241.285 9.6084V16H239.268V7.01855H241.168Z" fill="#1E73FF"/>
<path d="M256.683 14.5557C257.186 14.5557 257.604 14.409 257.936 14.1157C258.268 13.8224 258.445 13.46 258.467 13.0283H260.368C260.346 13.5872 260.172 14.1102 259.845 14.5972C259.519 15.0786 259.076 15.4604 258.517 15.7427C257.958 16.0249 257.355 16.166 256.708 16.166C255.451 16.166 254.455 15.7593 253.719 14.9458C252.983 14.1323 252.615 13.009 252.615 11.5757V11.3682C252.615 10.0013 252.98 8.90837 253.711 8.08936C254.441 7.26481 255.438 6.85254 256.699 6.85254C257.767 6.85254 258.636 7.1652 259.306 7.79053C259.981 8.41032 260.335 9.22656 260.368 10.2393H258.467C258.445 9.72461 258.268 9.30127 257.936 8.96924C257.61 8.63721 257.192 8.47119 256.683 8.47119C256.03 8.47119 255.526 8.70915 255.172 9.18506C254.818 9.65544 254.638 10.3721 254.632 11.335V11.6587C254.632 12.6326 254.807 13.3604 255.155 13.8418C255.509 14.3177 256.019 14.5557 256.683 14.5557ZM261.514 11.4263C261.514 10.5464 261.688 9.75505 262.037 9.05225C262.385 8.34391 262.875 7.8016 263.506 7.42529C264.137 7.04346 264.862 6.85254 265.681 6.85254C266.893 6.85254 267.875 7.24268 268.627 8.02295C269.386 8.80322 269.795 9.83805 269.856 11.1274L269.864 11.6006C269.864 12.486 269.693 13.2773 269.35 13.9746C269.012 14.6719 268.525 15.2114 267.889 15.5933C267.258 15.9751 266.527 16.166 265.697 16.166C264.43 16.166 263.415 15.7454 262.651 14.9043C261.893 14.0576 261.514 12.9315 261.514 11.5259V11.4263ZM263.531 11.6006C263.531 12.5247 263.722 13.2497 264.104 13.7754C264.485 14.2956 265.017 14.5557 265.697 14.5557C266.378 14.5557 266.906 14.29 267.283 13.7588C267.665 13.2275 267.855 12.45 267.855 11.4263C267.855 10.5187 267.659 9.79932 267.266 9.26807C266.879 8.73682 266.35 8.47119 265.681 8.47119C265.022 8.47119 264.499 8.73405 264.112 9.25977C263.724 9.77995 263.531 10.5602 263.531 11.6006ZM273.442 7.01855L273.5 8.05615C274.164 7.25374 275.036 6.85254 276.115 6.85254C277.985 6.85254 278.937 7.92334 278.97 10.0649V16H276.953V10.1812C276.953 9.61117 276.829 9.19059 276.58 8.91943C276.336 8.64274 275.935 8.50439 275.376 8.50439C274.562 8.50439 273.957 8.8724 273.558 9.6084V16H271.541V7.01855H273.442ZM283.561 4.83545V7.01855H285.146V8.5127H283.561V13.5264C283.561 13.8695 283.627 14.1185 283.76 14.2734C283.898 14.4229 284.142 14.4976 284.49 14.4976C284.723 14.4976 284.958 14.4699 285.196 14.4146V15.9751C284.736 16.1024 284.294 16.166 283.868 16.166C282.318 16.166 281.543 15.311 281.543 13.6011V8.5127H280.066V7.01855H281.543V4.83545H283.561ZM290.649 16.166C289.371 16.166 288.333 15.7648 287.537 14.9624C286.745 14.1545 286.35 13.0809 286.35 11.7417V11.4927C286.35 10.5962 286.521 9.79655 286.864 9.09375C287.213 8.38542 287.7 7.8348 288.325 7.44189C288.951 7.04899 289.648 6.85254 290.417 6.85254C291.64 6.85254 292.583 7.24268 293.248 8.02295C293.917 8.80322 294.252 9.90723 294.252 11.335V12.1484H288.383C288.444 12.89 288.69 13.4766 289.122 13.9082C289.559 14.3398 290.107 14.5557 290.766 14.5557C291.69 14.5557 292.442 14.1821 293.023 13.4351L294.111 14.4727C293.751 15.0094 293.27 15.4272 292.667 15.7261C292.069 16.0194 291.396 16.166 290.649 16.166ZM290.409 8.47119C289.855 8.47119 289.407 8.66488 289.064 9.05225C288.726 9.43962 288.511 9.97917 288.417 10.6709H292.26V10.5215C292.215 9.84635 292.036 9.33724 291.72 8.99414C291.405 8.64551 290.968 8.47119 290.409 8.47119ZM297.697 7.01855L297.755 8.05615C298.419 7.25374 299.291 6.85254 300.37 6.85254C302.24 6.85254 303.192 7.92334 303.225 10.0649V16H301.208V10.1812C301.208 9.61117 301.083 9.19059 300.834 8.91943C300.591 8.64274 300.19 8.50439 299.631 8.50439C298.817 8.50439 298.211 8.8724 297.813 9.6084V16H295.796V7.01855H297.697ZM307.815 4.83545V7.01855H309.401V8.5127H307.815V13.5264C307.815 13.8695 307.882 14.1185 308.015 14.2734C308.153 14.4229 308.396 14.4976 308.745 14.4976C308.978 14.4976 309.213 14.4699 309.451 14.4146V15.9751C308.991 16.1024 308.549 16.166 308.123 16.166C306.573 16.166 305.798 15.311 305.798 13.6011V8.5127H304.321V7.01855H305.798V4.83545H307.815ZM319.138 16.166C317.859 16.166 316.822 15.7648 316.025 14.9624C315.234 14.1545 314.838 13.0809 314.838 11.7417V11.4927C314.838 10.5962 315.009 9.79655 315.353 9.09375C315.701 8.38542 316.188 7.8348 316.813 7.44189C317.439 7.04899 318.136 6.85254 318.905 6.85254C320.128 6.85254 321.072 7.24268 321.736 8.02295C322.405 8.80322 322.74 9.90723 322.74 11.335V12.1484H316.872C316.932 12.89 317.179 13.4766 317.61 13.9082C318.048 14.3398 318.595 14.5557 319.254 14.5557C320.178 14.5557 320.931 14.1821 321.512 13.4351L322.599 14.4727C322.239 15.0094 321.758 15.4272 321.155 15.7261C320.557 16.0194 319.885 16.166 319.138 16.166ZM318.897 8.47119C318.344 8.47119 317.895 8.66488 317.552 9.05225C317.215 9.43962 316.999 9.97917 316.905 10.6709H320.748V10.5215C320.704 9.84635 320.524 9.33724 320.208 8.99414C319.893 8.64551 319.456 8.47119 318.897 8.47119ZM327.538 9.97363L329.248 7.01855H331.489L328.742 11.4429L331.581 16H329.356L327.563 12.9287L325.778 16H323.537L326.376 11.4429L323.637 7.01855H325.861L327.538 9.97363ZM338.229 16C338.141 15.8285 338.063 15.549 337.997 15.1616C337.355 15.8312 336.569 16.166 335.64 16.166C334.738 16.166 334.002 15.9087 333.432 15.394C332.862 14.8794 332.577 14.243 332.577 13.4849C332.577 12.5275 332.931 11.7943 333.639 11.2852C334.353 10.7705 335.371 10.5132 336.694 10.5132H337.931V9.92383C337.931 9.45898 337.801 9.08822 337.541 8.81152C337.28 8.5293 336.885 8.38818 336.354 8.38818C335.894 8.38818 335.518 8.50439 335.225 8.73682C334.931 8.9637 334.785 9.25423 334.785 9.6084H332.768C332.768 9.11589 332.931 8.65658 333.257 8.23047C333.584 7.79883 334.027 7.46126 334.585 7.21777C335.15 6.97428 335.778 6.85254 336.47 6.85254C337.521 6.85254 338.36 7.11816 338.985 7.64941C339.61 8.17513 339.931 8.91667 339.948 9.87402V13.9248C339.948 14.7327 340.061 15.3774 340.288 15.8589V16H338.229ZM336.013 14.5474C336.412 14.5474 336.785 14.4505 337.134 14.2568C337.488 14.0632 337.754 13.8031 337.931 13.4766V11.7832H336.843C336.096 11.7832 335.535 11.9132 335.158 12.1733C334.782 12.4334 334.594 12.8014 334.594 13.2773C334.594 13.6647 334.721 13.9746 334.976 14.207C335.236 14.4339 335.582 14.5474 336.013 14.5474ZM343.957 7.01855L344.015 7.95654C344.646 7.22054 345.509 6.85254 346.605 6.85254C347.806 6.85254 348.628 7.31185 349.07 8.23047C349.723 7.31185 350.642 6.85254 351.826 6.85254C352.817 6.85254 353.553 7.12646 354.034 7.67432C354.521 8.22217 354.77 9.03011 354.781 10.0981V16H352.764V10.1562C352.764 9.58626 352.64 9.16846 352.391 8.90283C352.142 8.63721 351.729 8.50439 351.154 8.50439C350.694 8.50439 350.318 8.62891 350.025 8.87793C349.737 9.12142 349.535 9.44238 349.419 9.84082L349.427 16H347.41V10.0898C347.382 9.03288 346.843 8.50439 345.792 8.50439C344.984 8.50439 344.411 8.83366 344.073 9.49219V16H342.056V7.01855H343.957ZM364.717 11.6006C364.717 12.9896 364.402 14.0991 363.771 14.9292C363.14 15.7537 362.293 16.166 361.231 16.166C360.246 16.166 359.457 15.8423 358.865 15.1948V19.4531H356.848V7.01855H358.708L358.791 7.93164C359.383 7.21224 360.188 6.85254 361.206 6.85254C362.302 6.85254 363.16 7.26204 363.779 8.08105C364.405 8.89453 364.717 10.0262 364.717 11.4761V11.6006ZM362.708 11.4263C362.708 10.5298 362.529 9.81868 362.169 9.29297C361.815 8.76725 361.306 8.50439 360.642 8.50439C359.817 8.50439 359.225 8.84473 358.865 9.52539V13.5098C359.23 14.207 359.828 14.5557 360.658 14.5557C361.3 14.5557 361.801 14.2983 362.161 13.7837C362.526 13.2635 362.708 12.4777 362.708 11.4263ZM368.577 16H366.56V3.25H368.577V16ZM374.736 16.166C373.458 16.166 372.42 15.7648 371.624 14.9624C370.832 14.1545 370.437 13.0809 370.437 11.7417V11.4927C370.437 10.5962 370.608 9.79655 370.951 9.09375C371.3 8.38542 371.787 7.8348 372.412 7.44189C373.037 7.04899 373.735 6.85254 374.504 6.85254C375.727 6.85254 376.67 7.24268 377.334 8.02295C378.004 8.80322 378.339 9.90723 378.339 11.335V12.1484H372.47C372.531 12.89 372.777 13.4766 373.209 13.9082C373.646 14.3398 374.194 14.5557 374.853 14.5557C375.777 14.5557 376.529 14.1821 377.11 13.4351L378.198 14.4727C377.838 15.0094 377.357 15.4272 376.753 15.7261C376.156 16.0194 375.483 16.166 374.736 16.166ZM374.496 8.47119C373.942 8.47119 373.494 8.66488 373.151 9.05225C372.813 9.43962 372.597 9.97917 372.503 10.6709H376.347V10.5215C376.302 9.84635 376.123 9.33724 375.807 8.99414C375.492 8.64551 375.055 8.47119 374.496 8.47119Z" fill="#222222"/>
<rect x="1" y="295" width="598" height="192" fill="white" stroke="#DDDDDD" stroke-width="2" stroke-dasharray="6 4"/>
<rect x="466" y="314" width="114" height="154" rx="5" fill="#DDDDDD"/>
<rect x="20" y="314" width="114" height="154" rx="5" fill="#DDDDDD"/>
<rect x="144" y="314" width="312" height="154" rx="5" fill="#1E73FF"/>
<path d="M159.383 337.336C159.799 337.336 160.138 337.221 160.398 336.992C160.659 336.763 160.794 336.458 160.805 336.078H162.922C162.917 336.651 162.76 337.177 162.453 337.656C162.146 338.13 161.724 338.5 161.188 338.766C160.656 339.026 160.068 339.156 159.422 339.156C158.214 339.156 157.26 338.773 156.562 338.008C155.865 337.237 155.516 336.174 155.516 334.82V334.672C155.516 333.37 155.862 332.331 156.555 331.555C157.247 330.779 158.198 330.391 159.406 330.391C160.464 330.391 161.31 330.693 161.945 331.297C162.586 331.896 162.911 332.695 162.922 333.695H160.805C160.794 333.258 160.659 332.904 160.398 332.633C160.138 332.357 159.794 332.219 159.367 332.219C158.841 332.219 158.443 332.411 158.172 332.797C157.906 333.177 157.773 333.797 157.773 334.656V334.891C157.773 335.76 157.906 336.385 158.172 336.766C158.438 337.146 158.841 337.336 159.383 337.336ZM163.859 334.695C163.859 333.857 164.021 333.109 164.344 332.453C164.667 331.797 165.13 331.289 165.734 330.93C166.344 330.57 167.049 330.391 167.852 330.391C168.992 330.391 169.922 330.74 170.641 331.438C171.365 332.135 171.768 333.083 171.852 334.281L171.867 334.859C171.867 336.156 171.505 337.198 170.781 337.984C170.057 338.766 169.086 339.156 167.867 339.156C166.648 339.156 165.674 338.766 164.945 337.984C164.221 337.203 163.859 336.141 163.859 334.797V334.695ZM166.117 334.859C166.117 335.661 166.268 336.276 166.57 336.703C166.872 337.125 167.305 337.336 167.867 337.336C168.414 337.336 168.841 337.128 169.148 336.711C169.456 336.289 169.609 335.617 169.609 334.695C169.609 333.909 169.456 333.299 169.148 332.867C168.841 332.435 168.409 332.219 167.852 332.219C167.299 332.219 166.872 332.435 166.57 332.867C166.268 333.294 166.117 333.958 166.117 334.859ZM175.336 330.547L175.406 331.523C176.01 330.768 176.82 330.391 177.836 330.391C178.732 330.391 179.398 330.654 179.836 331.18C180.273 331.706 180.497 332.492 180.508 333.539V339H178.25V333.594C178.25 333.115 178.146 332.768 177.938 332.555C177.729 332.336 177.383 332.227 176.898 332.227C176.263 332.227 175.786 332.497 175.469 333.039V339H173.211V330.547H175.336ZM184.93 328.469V330.547H186.375V332.203H184.93V336.422C184.93 336.734 184.99 336.958 185.109 337.094C185.229 337.229 185.458 337.297 185.797 337.297C186.047 337.297 186.268 337.279 186.461 337.242V338.953C186.018 339.089 185.562 339.156 185.094 339.156C183.51 339.156 182.703 338.357 182.672 336.758V332.203H181.438V330.547H182.672V328.469H184.93ZM191.523 339.156C190.284 339.156 189.273 338.776 188.492 338.016C187.716 337.255 187.328 336.242 187.328 334.977V334.758C187.328 333.909 187.492 333.151 187.82 332.484C188.148 331.812 188.612 331.297 189.211 330.938C189.815 330.573 190.503 330.391 191.273 330.391C192.43 330.391 193.339 330.755 194 331.484C194.667 332.214 195 333.247 195 334.586V335.508H189.617C189.69 336.06 189.909 336.503 190.273 336.836C190.643 337.169 191.109 337.336 191.672 337.336C192.542 337.336 193.221 337.021 193.711 336.391L194.82 337.633C194.482 338.112 194.023 338.487 193.445 338.758C192.867 339.023 192.227 339.156 191.523 339.156ZM191.266 332.219C190.818 332.219 190.453 332.37 190.172 332.672C189.896 332.974 189.719 333.406 189.641 333.969H192.781V333.789C192.771 333.289 192.635 332.904 192.375 332.633C192.115 332.357 191.745 332.219 191.266 332.219ZM198.367 330.547L198.438 331.523C199.042 330.768 199.852 330.391 200.867 330.391C201.763 330.391 202.43 330.654 202.867 331.18C203.305 331.706 203.529 332.492 203.539 333.539V339H201.281V333.594C201.281 333.115 201.177 332.768 200.969 332.555C200.76 332.336 200.414 332.227 199.93 332.227C199.294 332.227 198.818 332.497 198.5 333.039V339H196.242V330.547H198.367ZM207.961 328.469V330.547H209.406V332.203H207.961V336.422C207.961 336.734 208.021 336.958 208.141 337.094C208.26 337.229 208.49 337.297 208.828 337.297C209.078 337.297 209.299 337.279 209.492 337.242V338.953C209.049 339.089 208.594 339.156 208.125 339.156C206.542 339.156 205.734 338.357 205.703 336.758V332.203H204.469V330.547H205.703V328.469H207.961ZM218.164 337.336C218.581 337.336 218.919 337.221 219.18 336.992C219.44 336.763 219.576 336.458 219.586 336.078H221.703C221.698 336.651 221.542 337.177 221.234 337.656C220.927 338.13 220.505 338.5 219.969 338.766C219.438 339.026 218.849 339.156 218.203 339.156C216.995 339.156 216.042 338.773 215.344 338.008C214.646 337.237 214.297 336.174 214.297 334.82V334.672C214.297 333.37 214.643 332.331 215.336 331.555C216.029 330.779 216.979 330.391 218.188 330.391C219.245 330.391 220.091 330.693 220.727 331.297C221.367 331.896 221.693 332.695 221.703 333.695H219.586C219.576 333.258 219.44 332.904 219.18 332.633C218.919 332.357 218.576 332.219 218.148 332.219C217.622 332.219 217.224 332.411 216.953 332.797C216.688 333.177 216.555 333.797 216.555 334.656V334.891C216.555 335.76 216.688 336.385 216.953 336.766C217.219 337.146 217.622 337.336 218.164 337.336ZM222.641 334.695C222.641 333.857 222.802 333.109 223.125 332.453C223.448 331.797 223.911 331.289 224.516 330.93C225.125 330.57 225.831 330.391 226.633 330.391C227.773 330.391 228.703 330.74 229.422 331.438C230.146 332.135 230.549 333.083 230.633 334.281L230.648 334.859C230.648 336.156 230.286 337.198 229.562 337.984C228.839 338.766 227.867 339.156 226.648 339.156C225.43 339.156 224.456 338.766 223.727 337.984C223.003 337.203 222.641 336.141 222.641 334.797V334.695ZM224.898 334.859C224.898 335.661 225.049 336.276 225.352 336.703C225.654 337.125 226.086 337.336 226.648 337.336C227.195 337.336 227.622 337.128 227.93 336.711C228.237 336.289 228.391 335.617 228.391 334.695C228.391 333.909 228.237 333.299 227.93 332.867C227.622 332.435 227.19 332.219 226.633 332.219C226.081 332.219 225.654 332.435 225.352 332.867C225.049 333.294 224.898 333.958 224.898 334.859ZM234.117 330.547L234.188 331.523C234.792 330.768 235.602 330.391 236.617 330.391C237.513 330.391 238.18 330.654 238.617 331.18C239.055 331.706 239.279 332.492 239.289 333.539V339H237.031V333.594C237.031 333.115 236.927 332.768 236.719 332.555C236.51 332.336 236.164 332.227 235.68 332.227C235.044 332.227 234.568 332.497 234.25 333.039V339H231.992V330.547H234.117ZM243.711 328.469V330.547H245.156V332.203H243.711V336.422C243.711 336.734 243.771 336.958 243.891 337.094C244.01 337.229 244.24 337.297 244.578 337.297C244.828 337.297 245.049 337.279 245.242 337.242V338.953C244.799 339.089 244.344 339.156 243.875 339.156C242.292 339.156 241.484 338.357 241.453 336.758V332.203H240.219V330.547H241.453V328.469H243.711ZM250.305 339.156C249.065 339.156 248.055 338.776 247.273 338.016C246.497 337.255 246.109 336.242 246.109 334.977V334.758C246.109 333.909 246.273 333.151 246.602 332.484C246.93 331.812 247.393 331.297 247.992 330.938C248.596 330.573 249.284 330.391 250.055 330.391C251.211 330.391 252.12 330.755 252.781 331.484C253.448 332.214 253.781 333.247 253.781 334.586V335.508H248.398C248.471 336.06 248.69 336.503 249.055 336.836C249.424 337.169 249.891 337.336 250.453 337.336C251.323 337.336 252.003 337.021 252.492 336.391L253.602 337.633C253.263 338.112 252.805 338.487 252.227 338.758C251.648 339.023 251.008 339.156 250.305 339.156ZM250.047 332.219C249.599 332.219 249.234 332.37 248.953 332.672C248.677 332.974 248.5 333.406 248.422 333.969H251.562V333.789C251.552 333.289 251.417 332.904 251.156 332.633C250.896 332.357 250.526 332.219 250.047 332.219ZM257.148 330.547L257.219 331.523C257.823 330.768 258.633 330.391 259.648 330.391C260.544 330.391 261.211 330.654 261.648 331.18C262.086 331.706 262.31 332.492 262.32 333.539V339H260.062V333.594C260.062 333.115 259.958 332.768 259.75 332.555C259.542 332.336 259.195 332.227 258.711 332.227C258.076 332.227 257.599 332.497 257.281 333.039V339H255.023V330.547H257.148ZM266.742 328.469V330.547H268.188V332.203H266.742V336.422C266.742 336.734 266.802 336.958 266.922 337.094C267.042 337.229 267.271 337.297 267.609 337.297C267.859 337.297 268.081 337.279 268.273 337.242V338.953C267.831 339.089 267.375 339.156 266.906 339.156C265.323 339.156 264.516 338.357 264.484 336.758V332.203H263.25V330.547H264.484V328.469H266.742ZM276.945 337.336C277.362 337.336 277.701 337.221 277.961 336.992C278.221 336.763 278.357 336.458 278.367 336.078H280.484C280.479 336.651 280.323 337.177 280.016 337.656C279.708 338.13 279.286 338.5 278.75 338.766C278.219 339.026 277.63 339.156 276.984 339.156C275.776 339.156 274.823 338.773 274.125 338.008C273.427 337.237 273.078 336.174 273.078 334.82V334.672C273.078 333.37 273.424 332.331 274.117 331.555C274.81 330.779 275.76 330.391 276.969 330.391C278.026 330.391 278.872 330.693 279.508 331.297C280.148 331.896 280.474 332.695 280.484 333.695H278.367C278.357 333.258 278.221 332.904 277.961 332.633C277.701 332.357 277.357 332.219 276.93 332.219C276.404 332.219 276.005 332.411 275.734 332.797C275.469 333.177 275.336 333.797 275.336 334.656V334.891C275.336 335.76 275.469 336.385 275.734 336.766C276 337.146 276.404 337.336 276.945 337.336ZM281.422 334.695C281.422 333.857 281.583 333.109 281.906 332.453C282.229 331.797 282.693 331.289 283.297 330.93C283.906 330.57 284.612 330.391 285.414 330.391C286.555 330.391 287.484 330.74 288.203 331.438C288.927 332.135 289.331 333.083 289.414 334.281L289.43 334.859C289.43 336.156 289.068 337.198 288.344 337.984C287.62 338.766 286.648 339.156 285.43 339.156C284.211 339.156 283.237 338.766 282.508 337.984C281.784 337.203 281.422 336.141 281.422 334.797V334.695ZM283.68 334.859C283.68 335.661 283.831 336.276 284.133 336.703C284.435 337.125 284.867 337.336 285.43 337.336C285.977 337.336 286.404 337.128 286.711 336.711C287.018 336.289 287.172 335.617 287.172 334.695C287.172 333.909 287.018 333.299 286.711 332.867C286.404 332.435 285.971 332.219 285.414 332.219C284.862 332.219 284.435 332.435 284.133 332.867C283.831 333.294 283.68 333.958 283.68 334.859ZM292.898 330.547L292.969 331.523C293.573 330.768 294.383 330.391 295.398 330.391C296.294 330.391 296.961 330.654 297.398 331.18C297.836 331.706 298.06 332.492 298.07 333.539V339H295.812V333.594C295.812 333.115 295.708 332.768 295.5 332.555C295.292 332.336 294.945 332.227 294.461 332.227C293.826 332.227 293.349 332.497 293.031 333.039V339H290.773V330.547H292.898ZM302.492 328.469V330.547H303.938V332.203H302.492V336.422C302.492 336.734 302.552 336.958 302.672 337.094C302.792 337.229 303.021 337.297 303.359 337.297C303.609 337.297 303.831 337.279 304.023 337.242V338.953C303.581 339.089 303.125 339.156 302.656 339.156C301.073 339.156 300.266 338.357 300.234 336.758V332.203H299V330.547H300.234V328.469H302.492ZM309.086 339.156C307.846 339.156 306.836 338.776 306.055 338.016C305.279 337.255 304.891 336.242 304.891 334.977V334.758C304.891 333.909 305.055 333.151 305.383 332.484C305.711 331.812 306.174 331.297 306.773 330.938C307.378 330.573 308.065 330.391 308.836 330.391C309.992 330.391 310.901 330.755 311.562 331.484C312.229 332.214 312.562 333.247 312.562 334.586V335.508H307.18C307.253 336.06 307.471 336.503 307.836 336.836C308.206 337.169 308.672 337.336 309.234 337.336C310.104 337.336 310.784 337.021 311.273 336.391L312.383 337.633C312.044 338.112 311.586 338.487 311.008 338.758C310.43 339.023 309.789 339.156 309.086 339.156ZM308.828 332.219C308.38 332.219 308.016 332.37 307.734 332.672C307.458 332.974 307.281 333.406 307.203 333.969H310.344V333.789C310.333 333.289 310.198 332.904 309.938 332.633C309.677 332.357 309.307 332.219 308.828 332.219ZM315.93 330.547L316 331.523C316.604 330.768 317.414 330.391 318.43 330.391C319.326 330.391 319.992 330.654 320.43 331.18C320.867 331.706 321.091 332.492 321.102 333.539V339H318.844V333.594C318.844 333.115 318.74 332.768 318.531 332.555C318.323 332.336 317.977 332.227 317.492 332.227C316.857 332.227 316.38 332.497 316.062 333.039V339H313.805V330.547H315.93ZM325.523 328.469V330.547H326.969V332.203H325.523V336.422C325.523 336.734 325.583 336.958 325.703 337.094C325.823 337.229 326.052 337.297 326.391 337.297C326.641 337.297 326.862 337.279 327.055 337.242V338.953C326.612 339.089 326.156 339.156 325.688 339.156C324.104 339.156 323.297 338.357 323.266 336.758V332.203H322.031V330.547H323.266V328.469H325.523ZM335.727 337.336C336.143 337.336 336.482 337.221 336.742 336.992C337.003 336.763 337.138 336.458 337.148 336.078H339.266C339.26 336.651 339.104 337.177 338.797 337.656C338.49 338.13 338.068 338.5 337.531 338.766C337 339.026 336.411 339.156 335.766 339.156C334.557 339.156 333.604 338.773 332.906 338.008C332.208 337.237 331.859 336.174 331.859 334.82V334.672C331.859 333.37 332.206 332.331 332.898 331.555C333.591 330.779 334.542 330.391 335.75 330.391C336.807 330.391 337.654 330.693 338.289 331.297C338.93 331.896 339.255 332.695 339.266 333.695H337.148C337.138 333.258 337.003 332.904 336.742 332.633C336.482 332.357 336.138 332.219 335.711 332.219C335.185 332.219 334.786 332.411 334.516 332.797C334.25 333.177 334.117 333.797 334.117 334.656V334.891C334.117 335.76 334.25 336.385 334.516 336.766C334.781 337.146 335.185 337.336 335.727 337.336ZM340.203 334.695C340.203 333.857 340.365 333.109 340.688 332.453C341.01 331.797 341.474 331.289 342.078 330.93C342.688 330.57 343.393 330.391 344.195 330.391C345.336 330.391 346.266 330.74 346.984 331.438C347.708 332.135 348.112 333.083 348.195 334.281L348.211 334.859C348.211 336.156 347.849 337.198 347.125 337.984C346.401 338.766 345.43 339.156 344.211 339.156C342.992 339.156 342.018 338.766 341.289 337.984C340.565 337.203 340.203 336.141 340.203 334.797V334.695ZM342.461 334.859C342.461 335.661 342.612 336.276 342.914 336.703C343.216 337.125 343.648 337.336 344.211 337.336C344.758 337.336 345.185 337.128 345.492 336.711C345.799 336.289 345.953 335.617 345.953 334.695C345.953 333.909 345.799 333.299 345.492 332.867C345.185 332.435 344.753 332.219 344.195 332.219C343.643 332.219 343.216 332.435 342.914 332.867C342.612 333.294 342.461 333.958 342.461 334.859ZM351.68 330.547L351.75 331.523C352.354 330.768 353.164 330.391 354.18 330.391C355.076 330.391 355.742 330.654 356.18 331.18C356.617 331.706 356.841 332.492 356.852 333.539V339H354.594V333.594C354.594 333.115 354.49 332.768 354.281 332.555C354.073 332.336 353.727 332.227 353.242 332.227C352.607 332.227 352.13 332.497 351.812 333.039V339H349.555V330.547H351.68ZM361.273 328.469V330.547H362.719V332.203H361.273V336.422C361.273 336.734 361.333 336.958 361.453 337.094C361.573 337.229 361.802 337.297 362.141 337.297C362.391 337.297 362.612 337.279 362.805 337.242V338.953C362.362 339.089 361.906 339.156 361.438 339.156C359.854 339.156 359.047 338.357 359.016 336.758V332.203H357.781V330.547H359.016V328.469H361.273ZM367.867 339.156C366.628 339.156 365.617 338.776 364.836 338.016C364.06 337.255 363.672 336.242 363.672 334.977V334.758C363.672 333.909 363.836 333.151 364.164 332.484C364.492 331.812 364.956 331.297 365.555 330.938C366.159 330.573 366.846 330.391 367.617 330.391C368.773 330.391 369.682 330.755 370.344 331.484C371.01 332.214 371.344 333.247 371.344 334.586V335.508H365.961C366.034 336.06 366.253 336.503 366.617 336.836C366.987 337.169 367.453 337.336 368.016 337.336C368.885 337.336 369.565 337.021 370.055 336.391L371.164 337.633C370.826 338.112 370.367 338.487 369.789 338.758C369.211 339.023 368.57 339.156 367.867 339.156ZM367.609 332.219C367.161 332.219 366.797 332.37 366.516 332.672C366.24 332.974 366.062 333.406 365.984 333.969H369.125V333.789C369.115 333.289 368.979 332.904 368.719 332.633C368.458 332.357 368.089 332.219 367.609 332.219ZM374.711 330.547L374.781 331.523C375.385 330.768 376.195 330.391 377.211 330.391C378.107 330.391 378.773 330.654 379.211 331.18C379.648 331.706 379.872 332.492 379.883 333.539V339H377.625V333.594C377.625 333.115 377.521 332.768 377.312 332.555C377.104 332.336 376.758 332.227 376.273 332.227C375.638 332.227 375.161 332.497 374.844 333.039V339H372.586V330.547H374.711ZM384.305 328.469V330.547H385.75V332.203H384.305V336.422C384.305 336.734 384.365 336.958 384.484 337.094C384.604 337.229 384.833 337.297 385.172 337.297C385.422 337.297 385.643 337.279 385.836 337.242V338.953C385.393 339.089 384.938 339.156 384.469 339.156C382.885 339.156 382.078 338.357 382.047 336.758V332.203H380.812V330.547H382.047V328.469H384.305ZM394.508 337.336C394.924 337.336 395.263 337.221 395.523 336.992C395.784 336.763 395.919 336.458 395.93 336.078H398.047C398.042 336.651 397.885 337.177 397.578 337.656C397.271 338.13 396.849 338.5 396.312 338.766C395.781 339.026 395.193 339.156 394.547 339.156C393.339 339.156 392.385 338.773 391.688 338.008C390.99 337.237 390.641 336.174 390.641 334.82V334.672C390.641 333.37 390.987 332.331 391.68 331.555C392.372 330.779 393.323 330.391 394.531 330.391C395.589 330.391 396.435 330.693 397.07 331.297C397.711 331.896 398.036 332.695 398.047 333.695H395.93C395.919 333.258 395.784 332.904 395.523 332.633C395.263 332.357 394.919 332.219 394.492 332.219C393.966 332.219 393.568 332.411 393.297 332.797C393.031 333.177 392.898 333.797 392.898 334.656V334.891C392.898 335.76 393.031 336.385 393.297 336.766C393.562 337.146 393.966 337.336 394.508 337.336ZM398.984 334.695C398.984 333.857 399.146 333.109 399.469 332.453C399.792 331.797 400.255 331.289 400.859 330.93C401.469 330.57 402.174 330.391 402.977 330.391C404.117 330.391 405.047 330.74 405.766 331.438C406.49 332.135 406.893 333.083 406.977 334.281L406.992 334.859C406.992 336.156 406.63 337.198 405.906 337.984C405.182 338.766 404.211 339.156 402.992 339.156C401.773 339.156 400.799 338.766 400.07 337.984C399.346 337.203 398.984 336.141 398.984 334.797V334.695ZM401.242 334.859C401.242 335.661 401.393 336.276 401.695 336.703C401.997 337.125 402.43 337.336 402.992 337.336C403.539 337.336 403.966 337.128 404.273 336.711C404.581 336.289 404.734 335.617 404.734 334.695C404.734 333.909 404.581 333.299 404.273 332.867C403.966 332.435 403.534 332.219 402.977 332.219C402.424 332.219 401.997 332.435 401.695 332.867C401.393 333.294 401.242 333.958 401.242 334.859ZM410.461 330.547L410.531 331.523C411.135 330.768 411.945 330.391 412.961 330.391C413.857 330.391 414.523 330.654 414.961 331.18C415.398 331.706 415.622 332.492 415.633 333.539V339H413.375V333.594C413.375 333.115 413.271 332.768 413.062 332.555C412.854 332.336 412.508 332.227 412.023 332.227C411.388 332.227 410.911 332.497 410.594 333.039V339H408.336V330.547H410.461ZM420.055 328.469V330.547H421.5V332.203H420.055V336.422C420.055 336.734 420.115 336.958 420.234 337.094C420.354 337.229 420.583 337.297 420.922 337.297C421.172 337.297 421.393 337.279 421.586 337.242V338.953C421.143 339.089 420.688 339.156 420.219 339.156C418.635 339.156 417.828 338.357 417.797 336.758V332.203H416.562V330.547H417.797V328.469H420.055ZM426.648 339.156C425.409 339.156 424.398 338.776 423.617 338.016C422.841 337.255 422.453 336.242 422.453 334.977V334.758C422.453 333.909 422.617 333.151 422.945 332.484C423.273 331.812 423.737 331.297 424.336 330.938C424.94 330.573 425.628 330.391 426.398 330.391C427.555 330.391 428.464 330.755 429.125 331.484C429.792 332.214 430.125 333.247 430.125 334.586V335.508H424.742C424.815 336.06 425.034 336.503 425.398 336.836C425.768 337.169 426.234 337.336 426.797 337.336C427.667 337.336 428.346 337.021 428.836 336.391L429.945 337.633C429.607 338.112 429.148 338.487 428.57 338.758C427.992 339.023 427.352 339.156 426.648 339.156ZM426.391 332.219C425.943 332.219 425.578 332.37 425.297 332.672C425.021 332.974 424.844 333.406 424.766 333.969H427.906V333.789C427.896 333.289 427.76 332.904 427.5 332.633C427.24 332.357 426.87 332.219 426.391 332.219ZM433.492 330.547L433.562 331.523C434.167 330.768 434.977 330.391 435.992 330.391C436.888 330.391 437.555 330.654 437.992 331.18C438.43 331.706 438.654 332.492 438.664 333.539V339H436.406V333.594C436.406 333.115 436.302 332.768 436.094 332.555C435.885 332.336 435.539 332.227 435.055 332.227C434.419 332.227 433.943 332.497 433.625 333.039V339H431.367V330.547H433.492ZM443.086 328.469V330.547H444.531V332.203H443.086V336.422C443.086 336.734 443.146 336.958 443.266 337.094C443.385 337.229 443.615 337.297 443.953 337.297C444.203 337.297 444.424 337.279 444.617 337.242V338.953C444.174 339.089 443.719 339.156 443.25 339.156C441.667 339.156 440.859 338.357 440.828 336.758V332.203H439.594V330.547H440.828V328.469H443.086Z" fill="white"/>
<path d="M220.084 266.019L220.143 266.957C220.773 266.221 221.637 265.853 222.732 265.853C223.933 265.853 224.755 266.312 225.198 267.23C225.851 266.312 226.769 265.853 227.954 265.853C228.944 265.853 229.68 266.126 230.162 266.674C230.649 267.222 230.898 268.03 230.909 269.098V275H228.892V269.156C228.892 268.586 228.767 268.168 228.518 267.903C228.269 267.637 227.857 267.504 227.281 267.504C226.822 267.504 226.446 267.629 226.152 267.878C225.865 268.121 225.663 268.442 225.546 268.841L225.555 275H223.538V269.09C223.51 268.033 222.97 267.504 221.919 267.504C221.111 267.504 220.538 267.834 220.201 268.492V275H218.184V266.019H220.084ZM238.346 275C238.258 274.828 238.18 274.549 238.114 274.162C237.472 274.831 236.686 275.166 235.756 275.166C234.854 275.166 234.118 274.909 233.548 274.394C232.978 273.879 232.693 273.243 232.693 272.485C232.693 271.528 233.048 270.794 233.756 270.285C234.47 269.771 235.488 269.513 236.811 269.513H238.047V268.924C238.047 268.459 237.917 268.088 237.657 267.812C237.397 267.529 237.001 267.388 236.47 267.388C236.011 267.388 235.635 267.504 235.341 267.737C235.048 267.964 234.901 268.254 234.901 268.608H232.884C232.884 268.116 233.048 267.657 233.374 267.23C233.701 266.799 234.143 266.461 234.702 266.218C235.267 265.974 235.895 265.853 236.586 265.853C237.638 265.853 238.476 266.118 239.102 266.649C239.727 267.175 240.048 267.917 240.064 268.874V272.925C240.064 273.733 240.178 274.377 240.405 274.859V275H238.346ZM236.13 273.547C236.528 273.547 236.902 273.451 237.25 273.257C237.605 273.063 237.87 272.803 238.047 272.477V270.783H236.96C236.213 270.783 235.651 270.913 235.275 271.173C234.899 271.433 234.71 271.801 234.71 272.277C234.71 272.665 234.838 272.975 235.092 273.207C235.352 273.434 235.698 273.547 236.13 273.547ZM245.402 268.974L247.112 266.019H249.353L246.605 270.443L249.444 275H247.22L245.427 271.929L243.642 275H241.401L244.24 270.443L241.5 266.019H243.725L245.402 268.974Z" fill="#1E73FF"/>
<path d="M258.65 273.556C259.153 273.556 259.571 273.409 259.903 273.116C260.235 272.822 260.412 272.46 260.435 272.028H262.335C262.313 272.587 262.139 273.11 261.812 273.597C261.486 274.079 261.043 274.46 260.484 274.743C259.925 275.025 259.322 275.166 258.675 275.166C257.419 275.166 256.423 274.759 255.687 273.946C254.951 273.132 254.583 272.009 254.583 270.576V270.368C254.583 269.001 254.948 267.908 255.678 267.089C256.409 266.265 257.405 265.853 258.667 265.853C259.735 265.853 260.603 266.165 261.273 266.791C261.948 267.41 262.302 268.227 262.335 269.239H260.435C260.412 268.725 260.235 268.301 259.903 267.969C259.577 267.637 259.159 267.471 258.65 267.471C257.997 267.471 257.493 267.709 257.139 268.185C256.785 268.655 256.605 269.372 256.6 270.335V270.659C256.6 271.633 256.774 272.36 257.123 272.842C257.477 273.318 257.986 273.556 258.65 273.556ZM263.481 270.426C263.481 269.546 263.655 268.755 264.004 268.052C264.353 267.344 264.842 266.802 265.473 266.425C266.104 266.043 266.829 265.853 267.648 265.853C268.86 265.853 269.842 266.243 270.595 267.023C271.353 267.803 271.762 268.838 271.823 270.127L271.832 270.601C271.832 271.486 271.66 272.277 271.317 272.975C270.979 273.672 270.492 274.211 269.856 274.593C269.225 274.975 268.495 275.166 267.665 275.166C266.397 275.166 265.382 274.745 264.618 273.904C263.86 273.058 263.481 271.931 263.481 270.526V270.426ZM265.498 270.601C265.498 271.525 265.689 272.25 266.071 272.775C266.453 273.296 266.984 273.556 267.665 273.556C268.345 273.556 268.874 273.29 269.25 272.759C269.632 272.228 269.823 271.45 269.823 270.426C269.823 269.519 269.626 268.799 269.233 268.268C268.846 267.737 268.318 267.471 267.648 267.471C266.989 267.471 266.466 267.734 266.079 268.26C265.692 268.78 265.498 269.56 265.498 270.601ZM275.409 266.019L275.467 267.056C276.131 266.254 277.003 265.853 278.082 265.853C279.952 265.853 280.904 266.923 280.938 269.065V275H278.92V269.181C278.92 268.611 278.796 268.191 278.547 267.919C278.303 267.643 277.902 267.504 277.343 267.504C276.53 267.504 275.924 267.872 275.525 268.608V275H273.508V266.019H275.409ZM285.528 263.835V266.019H287.113V267.513H285.528V272.526C285.528 272.869 285.594 273.118 285.727 273.273C285.865 273.423 286.109 273.498 286.458 273.498C286.69 273.498 286.925 273.47 287.163 273.415V274.975C286.704 275.102 286.261 275.166 285.835 275.166C284.285 275.166 283.511 274.311 283.511 272.601V267.513H282.033V266.019H283.511V263.835H285.528ZM292.617 275.166C291.338 275.166 290.301 274.765 289.504 273.962C288.713 273.154 288.317 272.081 288.317 270.742V270.493C288.317 269.596 288.488 268.797 288.832 268.094C289.18 267.385 289.667 266.835 290.292 266.442C290.918 266.049 291.615 265.853 292.384 265.853C293.607 265.853 294.551 266.243 295.215 267.023C295.884 267.803 296.219 268.907 296.219 270.335V271.148H290.351C290.411 271.89 290.658 272.477 291.089 272.908C291.527 273.34 292.074 273.556 292.733 273.556C293.657 273.556 294.41 273.182 294.991 272.435L296.078 273.473C295.718 274.009 295.237 274.427 294.634 274.726C294.036 275.019 293.364 275.166 292.617 275.166ZM292.376 267.471C291.823 267.471 291.374 267.665 291.031 268.052C290.694 268.44 290.478 268.979 290.384 269.671H294.227V269.521C294.183 268.846 294.003 268.337 293.688 267.994C293.372 267.646 292.935 267.471 292.376 267.471ZM299.664 266.019L299.722 267.056C300.386 266.254 301.258 265.853 302.337 265.853C304.207 265.853 305.159 266.923 305.192 269.065V275H303.175V269.181C303.175 268.611 303.051 268.191 302.802 267.919C302.558 267.643 302.157 267.504 301.598 267.504C300.785 267.504 300.179 267.872 299.78 268.608V275H297.763V266.019H299.664ZM309.783 263.835V266.019H311.368V267.513H309.783V272.526C309.783 272.869 309.849 273.118 309.982 273.273C310.12 273.423 310.364 273.498 310.712 273.498C310.945 273.498 311.18 273.47 311.418 273.415V274.975C310.959 275.102 310.516 275.166 310.09 275.166C308.54 275.166 307.766 274.311 307.766 272.601V267.513H306.288V266.019H307.766V263.835H309.783ZM321.105 275.166C319.827 275.166 318.789 274.765 317.992 273.962C317.201 273.154 316.805 272.081 316.805 270.742V270.493C316.805 269.596 316.977 268.797 317.32 268.094C317.668 267.385 318.155 266.835 318.781 266.442C319.406 266.049 320.103 265.853 320.873 265.853C322.096 265.853 323.039 266.243 323.703 267.023C324.373 267.803 324.708 268.907 324.708 270.335V271.148H318.839C318.9 271.89 319.146 272.477 319.578 272.908C320.015 273.34 320.563 273.556 321.221 273.556C322.145 273.556 322.898 273.182 323.479 272.435L324.566 273.473C324.207 274.009 323.725 274.427 323.122 274.726C322.524 275.019 321.852 275.166 321.105 275.166ZM320.864 267.471C320.311 267.471 319.863 267.665 319.52 268.052C319.182 268.44 318.966 268.979 318.872 269.671H322.715V269.521C322.671 268.846 322.491 268.337 322.176 267.994C321.86 267.646 321.423 267.471 320.864 267.471ZM329.505 268.974L331.215 266.019H333.457L330.709 270.443L333.548 275H331.323L329.53 271.929L327.746 275H325.504L328.343 270.443L325.604 266.019H327.829L329.505 268.974ZM340.197 275C340.108 274.828 340.031 274.549 339.964 274.162C339.322 274.831 338.537 275.166 337.607 275.166C336.705 275.166 335.969 274.909 335.399 274.394C334.829 273.879 334.544 273.243 334.544 272.485C334.544 271.528 334.898 270.794 335.606 270.285C336.32 269.771 337.339 269.513 338.661 269.513H339.898V268.924C339.898 268.459 339.768 268.088 339.508 267.812C339.248 267.529 338.852 267.388 338.321 267.388C337.861 267.388 337.485 267.504 337.192 267.737C336.899 267.964 336.752 268.254 336.752 268.608H334.735C334.735 268.116 334.898 267.657 335.225 267.23C335.551 266.799 335.994 266.461 336.553 266.218C337.117 265.974 337.745 265.853 338.437 265.853C339.488 265.853 340.327 266.118 340.952 266.649C341.577 267.175 341.898 267.917 341.915 268.874V272.925C341.915 273.733 342.028 274.377 342.255 274.859V275H340.197ZM337.98 273.547C338.379 273.547 338.752 273.451 339.101 273.257C339.455 273.063 339.721 272.803 339.898 272.477V270.783H338.811C338.063 270.783 337.502 270.913 337.125 271.173C336.749 271.433 336.561 271.801 336.561 272.277C336.561 272.665 336.688 272.975 336.943 273.207C337.203 273.434 337.549 273.547 337.98 273.547ZM345.924 266.019L345.982 266.957C346.613 266.221 347.477 265.853 348.572 265.853C349.773 265.853 350.595 266.312 351.038 267.23C351.691 266.312 352.609 265.853 353.793 265.853C354.784 265.853 355.52 266.126 356.001 266.674C356.488 267.222 356.737 268.03 356.749 269.098V275H354.731V269.156C354.731 268.586 354.607 268.168 354.358 267.903C354.109 267.637 353.697 267.504 353.121 267.504C352.662 267.504 352.285 267.629 351.992 267.878C351.704 268.121 351.502 268.442 351.386 268.841L351.395 275H349.377V269.09C349.35 268.033 348.81 267.504 347.759 267.504C346.951 267.504 346.378 267.834 346.041 268.492V275H344.023V266.019H345.924ZM366.685 270.601C366.685 271.99 366.369 273.099 365.738 273.929C365.107 274.754 364.261 275.166 363.198 275.166C362.213 275.166 361.425 274.842 360.833 274.195V278.453H358.815V266.019H360.675L360.758 266.932C361.35 266.212 362.155 265.853 363.173 265.853C364.269 265.853 365.127 266.262 365.747 267.081C366.372 267.895 366.685 269.026 366.685 270.476V270.601ZM364.676 270.426C364.676 269.53 364.496 268.819 364.136 268.293C363.782 267.767 363.273 267.504 362.609 267.504C361.784 267.504 361.192 267.845 360.833 268.525V272.51C361.198 273.207 361.795 273.556 362.625 273.556C363.267 273.556 363.768 273.298 364.128 272.784C364.493 272.264 364.676 271.478 364.676 270.426ZM370.544 275H368.527V262.25H370.544V275ZM376.704 275.166C375.425 275.166 374.388 274.765 373.591 273.962C372.799 273.154 372.404 272.081 372.404 270.742V270.493C372.404 269.596 372.575 268.797 372.918 268.094C373.267 267.385 373.754 266.835 374.379 266.442C375.005 266.049 375.702 265.853 376.471 265.853C377.694 265.853 378.638 266.243 379.302 267.023C379.971 267.803 380.306 268.907 380.306 270.335V271.148H374.438C374.498 271.89 374.745 272.477 375.176 272.908C375.613 273.34 376.161 273.556 376.82 273.556C377.744 273.556 378.497 273.182 379.078 272.435L380.165 273.473C379.805 274.009 379.324 274.427 378.721 274.726C378.123 275.019 377.451 275.166 376.704 275.166ZM376.463 267.471C375.91 267.471 375.461 267.665 375.118 268.052C374.781 268.44 374.565 268.979 374.471 269.671H378.314V269.521C378.27 268.846 378.09 268.337 377.774 267.994C377.459 267.646 377.022 267.471 376.463 267.471Z" fill="#222222"/>
</svg>
