<svg width="732" height="299" viewBox="0 0 732 299" fill="none" xmlns="http://www.w3.org/2000/svg">
<path d="M135.777 11.4429C135.777 10.0483 136.103 8.93604 136.756 8.10596C137.415 7.27035 138.286 6.85254 139.371 6.85254C140.395 6.85254 141.2 7.20947 141.787 7.92334L141.878 7.01855H143.696V15.7261C143.696 16.9048 143.328 17.8345 142.592 18.5151C141.861 19.1958 140.874 19.5361 139.628 19.5361C138.97 19.5361 138.325 19.3978 137.694 19.1211C137.069 18.8499 136.593 18.493 136.267 18.0503L137.221 16.8384C137.841 17.5744 138.605 17.9424 139.512 17.9424C140.182 17.9424 140.71 17.7598 141.098 17.3945C141.485 17.0348 141.679 16.5036 141.679 15.8008V15.1948C141.098 15.8423 140.323 16.166 139.354 16.166C138.303 16.166 137.443 15.7482 136.773 14.9126C136.109 14.077 135.777 12.9204 135.777 11.4429ZM137.786 11.6172C137.786 12.5192 137.968 13.2303 138.333 13.7505C138.704 14.2651 139.216 14.5225 139.869 14.5225C140.683 14.5225 141.286 14.1738 141.679 13.4766V9.52539C141.297 8.84473 140.699 8.50439 139.886 8.50439C139.222 8.50439 138.704 8.76725 138.333 9.29297C137.968 9.81868 137.786 10.5934 137.786 11.6172ZM149.978 8.86133C149.712 8.81706 149.438 8.79492 149.156 8.79492C148.232 8.79492 147.609 9.14909 147.288 9.85742V16H145.271V7.01855H147.197L147.247 8.02295C147.734 7.24268 148.409 6.85254 149.272 6.85254C149.56 6.85254 149.798 6.89128 149.986 6.96875L149.978 8.86133ZM152.897 16H150.88V7.01855H152.897V16ZM150.756 4.68604C150.756 4.37614 150.853 4.11882 151.046 3.91406C151.246 3.70931 151.528 3.60693 151.893 3.60693C152.258 3.60693 152.541 3.70931 152.74 3.91406C152.939 4.11882 153.039 4.37614 153.039 4.68604C153.039 4.9904 152.939 5.24495 152.74 5.44971C152.541 5.64893 152.258 5.74854 151.893 5.74854C151.528 5.74854 151.246 5.64893 151.046 5.44971C150.853 5.24495 150.756 4.9904 150.756 4.68604ZM154.224 11.4429C154.224 10.0594 154.545 8.94987 155.187 8.11426C155.828 7.27311 156.689 6.85254 157.768 6.85254C158.72 6.85254 159.489 7.18457 160.076 7.84863V3.25H162.093V16H160.267L160.167 15.0703C159.564 15.8008 158.759 16.166 157.751 16.166C156.7 16.166 155.848 15.7427 155.195 14.896C154.547 14.0493 154.224 12.8983 154.224 11.4429ZM156.241 11.6172C156.241 12.5303 156.415 13.2441 156.764 13.7588C157.118 14.2679 157.619 14.5225 158.266 14.5225C159.091 14.5225 159.694 14.1545 160.076 13.4185V9.5835C159.705 8.8641 159.107 8.50439 158.283 8.50439C157.63 8.50439 157.126 8.76449 156.772 9.28467C156.418 9.79932 156.241 10.5768 156.241 11.6172ZM167.611 11.6753H163.253V10.0483H167.611V11.6753ZM171.303 4.83545V7.01855H172.888V8.5127H171.303V13.5264C171.303 13.8695 171.369 14.1185 171.502 14.2734C171.64 14.4229 171.884 14.4976 172.232 14.4976C172.465 14.4976 172.7 14.4699 172.938 14.4146V15.9751C172.479 16.1024 172.036 16.166 171.61 16.166C170.06 16.166 169.286 15.311 169.286 13.6011V8.5127H167.808V7.01855H169.286V4.83545H171.303ZM177.892 16.166C176.613 16.166 175.576 15.7648 174.779 14.9624C173.987 14.1545 173.592 13.0809 173.592 11.7417V11.4927C173.592 10.5962 173.763 9.79655 174.106 9.09375C174.455 8.38542 174.942 7.8348 175.567 7.44189C176.193 7.04899 176.89 6.85254 177.659 6.85254C178.882 6.85254 179.826 7.24268 180.49 8.02295C181.159 8.80322 181.494 9.90723 181.494 11.335V12.1484H175.625C175.686 12.89 175.933 13.4766 176.364 13.9082C176.801 14.3398 177.349 14.5557 178.008 14.5557C178.932 14.5557 179.685 14.1821 180.266 13.4351L181.353 14.4727C180.993 15.0094 180.512 15.4272 179.909 15.7261C179.311 16.0194 178.639 16.166 177.892 16.166ZM177.651 8.47119C177.097 8.47119 176.649 8.66488 176.306 9.05225C175.969 9.43962 175.753 9.97917 175.659 10.6709H179.502V10.5215C179.458 9.84635 179.278 9.33724 178.962 8.99414C178.647 8.64551 178.21 8.47119 177.651 8.47119ZM184.464 7.01855L184.522 7.95654C185.153 7.22054 186.016 6.85254 187.112 6.85254C188.313 6.85254 189.134 7.31185 189.577 8.23047C190.23 7.31185 191.149 6.85254 192.333 6.85254C193.324 6.85254 194.06 7.12646 194.541 7.67432C195.028 8.22217 195.277 9.03011 195.288 10.0981V16H193.271V10.1562C193.271 9.58626 193.146 9.16846 192.897 8.90283C192.648 8.63721 192.236 8.50439 191.661 8.50439C191.201 8.50439 190.825 8.62891 190.532 8.87793C190.244 9.12142 190.042 9.44238 189.926 9.84082L189.934 16H187.917V10.0898C187.889 9.03288 187.35 8.50439 186.298 8.50439C185.49 8.50439 184.918 8.83366 184.58 9.49219V16H182.563V7.01855H184.464ZM204.724 11.6006C204.724 12.9896 204.409 14.0991 203.778 14.9292C203.147 15.7537 202.3 16.166 201.238 16.166C200.253 16.166 199.464 15.8423 198.872 15.1948V19.4531H196.855V7.01855H198.714L198.797 7.93164C199.389 7.21224 200.195 6.85254 201.213 6.85254C202.309 6.85254 203.166 7.26204 203.786 8.08105C204.411 8.89453 204.724 10.0262 204.724 11.4761V11.6006ZM202.715 11.4263C202.715 10.5298 202.535 9.81868 202.176 9.29297C201.822 8.76725 201.312 8.50439 200.648 8.50439C199.824 8.50439 199.232 8.84473 198.872 9.52539V13.5098C199.237 14.207 199.835 14.5557 200.665 14.5557C201.307 14.5557 201.808 14.2983 202.167 13.7837C202.533 13.2635 202.715 12.4777 202.715 11.4263ZM208.084 16H206.067V3.25H208.084V16ZM215.154 16C215.066 15.8285 214.988 15.549 214.922 15.1616C214.28 15.8312 213.494 16.166 212.564 16.166C211.662 16.166 210.926 15.9087 210.356 15.394C209.786 14.8794 209.501 14.243 209.501 13.4849C209.501 12.5275 209.856 11.7943 210.564 11.2852C211.278 10.7705 212.296 10.5132 213.619 10.5132H214.855V9.92383C214.855 9.45898 214.725 9.08822 214.465 8.81152C214.205 8.5293 213.81 8.38818 213.278 8.38818C212.819 8.38818 212.443 8.50439 212.149 8.73682C211.856 8.9637 211.709 9.25423 211.709 9.6084H209.692C209.692 9.11589 209.856 8.65658 210.182 8.23047C210.509 7.79883 210.951 7.46126 211.51 7.21777C212.075 6.97428 212.703 6.85254 213.395 6.85254C214.446 6.85254 215.284 7.11816 215.91 7.64941C216.535 8.17513 216.856 8.91667 216.873 9.87402V13.9248C216.873 14.7327 216.986 15.3774 217.213 15.8589V16H215.154ZM212.938 14.5474C213.336 14.5474 213.71 14.4505 214.059 14.2568C214.413 14.0632 214.678 13.8031 214.855 13.4766V11.7832H213.768C213.021 11.7832 212.459 11.9132 212.083 12.1733C211.707 12.4334 211.519 12.8014 211.519 13.2773C211.519 13.6647 211.646 13.9746 211.9 14.207C212.16 14.4339 212.506 14.5474 212.938 14.5474ZM221.013 4.83545V7.01855H222.598V8.5127H221.013V13.5264C221.013 13.8695 221.079 14.1185 221.212 14.2734C221.35 14.4229 221.594 14.4976 221.942 14.4976C222.175 14.4976 222.41 14.4699 222.648 14.4146V15.9751C222.189 16.1024 221.746 16.166 221.32 16.166C219.77 16.166 218.996 15.311 218.996 13.6011V8.5127H217.518V7.01855H218.996V4.83545H221.013ZM227.602 16.166C226.323 16.166 225.286 15.7648 224.489 14.9624C223.697 14.1545 223.302 13.0809 223.302 11.7417V11.4927C223.302 10.5962 223.473 9.79655 223.816 9.09375C224.165 8.38542 224.652 7.8348 225.277 7.44189C225.903 7.04899 226.6 6.85254 227.369 6.85254C228.592 6.85254 229.536 7.24268 230.2 8.02295C230.869 8.80322 231.204 9.90723 231.204 11.335V12.1484H225.335C225.396 12.89 225.643 13.4766 226.074 13.9082C226.511 14.3398 227.059 14.5557 227.718 14.5557C228.642 14.5557 229.395 14.1821 229.976 13.4351L231.063 14.4727C230.703 15.0094 230.222 15.4272 229.619 15.7261C229.021 16.0194 228.349 16.166 227.602 16.166ZM227.361 8.47119C226.807 8.47119 226.359 8.66488 226.016 9.05225C225.679 9.43962 225.463 9.97917 225.369 10.6709H229.212V10.5215C229.168 9.84635 228.988 9.33724 228.672 8.99414C228.357 8.64551 227.92 8.47119 227.361 8.47119ZM236.191 11.6753H231.833V10.0483H236.191V11.6753ZM242.058 8.86133C241.792 8.81706 241.518 8.79492 241.236 8.79492C240.312 8.79492 239.689 9.14909 239.368 9.85742V16H237.351V7.01855H239.277L239.327 8.02295C239.814 7.24268 240.489 6.85254 241.352 6.85254C241.64 6.85254 241.878 6.89128 242.066 6.96875L242.058 8.86133ZM242.155 11.4263C242.155 10.5464 242.33 9.75505 242.678 9.05225C243.027 8.34391 243.517 7.8016 244.147 7.42529C244.778 7.04346 245.503 6.85254 246.322 6.85254C247.534 6.85254 248.516 7.24268 249.269 8.02295C250.027 8.80322 250.437 9.83805 250.498 11.1274L250.506 11.6006C250.506 12.486 250.334 13.2773 249.991 13.9746C249.654 14.6719 249.167 15.2114 248.53 15.5933C247.899 15.9751 247.169 16.166 246.339 16.166C245.072 16.166 244.056 15.7454 243.292 14.9043C242.534 14.0576 242.155 12.9315 242.155 11.5259V11.4263ZM244.172 11.6006C244.172 12.5247 244.363 13.2497 244.745 13.7754C245.127 14.2956 245.658 14.5557 246.339 14.5557C247.02 14.5557 247.548 14.29 247.924 13.7588C248.306 13.2275 248.497 12.45 248.497 11.4263C248.497 10.5187 248.301 9.79932 247.908 9.26807C247.52 8.73682 246.992 8.47119 246.322 8.47119C245.664 8.47119 245.141 8.73405 244.753 9.25977C244.366 9.77995 244.172 10.5602 244.172 11.6006ZM259.602 13.2192L261.029 7.01855H262.997L260.548 16H258.888L256.962 9.83252L255.069 16H253.409L250.952 7.01855H252.919L254.372 13.1528L256.215 7.01855H257.734L259.602 13.2192ZM265.062 13.875C265.438 13.875 265.728 13.9829 265.933 14.1987C266.138 14.409 266.24 14.6746 266.24 14.9956C266.24 15.311 266.138 15.5739 265.933 15.7842C265.728 15.9889 265.438 16.0913 265.062 16.0913C264.702 16.0913 264.417 15.9889 264.207 15.7842C263.996 15.5794 263.891 15.3166 263.891 14.9956C263.891 14.6746 263.993 14.409 264.198 14.1987C264.403 13.9829 264.691 13.875 265.062 13.875ZM265.062 6.82764C265.438 6.82764 265.728 6.93555 265.933 7.15137C266.138 7.36165 266.24 7.62728 266.24 7.94824C266.24 8.26367 266.138 8.52653 265.933 8.73682C265.728 8.94157 265.438 9.04395 265.062 9.04395C264.702 9.04395 264.417 8.94157 264.207 8.73682C263.996 8.53206 263.891 8.26921 263.891 7.94824C263.891 7.62728 263.993 7.36165 264.198 7.15137C264.403 6.93555 264.691 6.82764 265.062 6.82764ZM591.195 6.82764C591.571 6.82764 591.862 6.93555 592.066 7.15137C592.271 7.36165 592.374 7.62728 592.374 7.94824C592.374 8.26367 592.271 8.52653 592.066 8.73682C591.862 8.94157 591.571 9.04395 591.195 9.04395C590.835 9.04395 590.55 8.94157 590.34 8.73682C590.13 8.53206 590.024 8.26921 590.024 7.94824C590.024 7.62728 590.127 7.36165 590.332 7.15137C590.536 6.93555 590.824 6.82764 591.195 6.82764ZM590.589 18.7227L589.501 18.0752C589.822 17.5716 590.041 17.1317 590.157 16.7554C590.279 16.3846 590.343 16.0055 590.348 15.6182V14.0493H592.166L592.158 15.502C592.152 16.0885 592.003 16.6751 591.709 17.2617C591.422 17.8538 591.048 18.3408 590.589 18.7227Z" fill="#444444"/>
<path d="M275.043 3.64844H273.674V17.1206H275.043V18.6895H271.657V2.07129H275.043V3.64844ZM276.295 16V8.5127H274.925V7.01855H276.295V6.4043C276.3 5.7015 276.45 5.09831 276.743 4.59473C277.036 4.09115 277.451 3.71208 277.988 3.45752C278.525 3.20296 279.17 3.07568 279.922 3.07568C280.365 3.07568 280.788 3.12272 281.192 3.2168C281.602 3.31087 282.025 3.42985 282.462 3.57373L282.155 5.24219C281.392 4.97656 280.694 4.84375 280.063 4.84375C279.449 4.84375 279.004 4.97933 278.727 5.25049C278.45 5.51611 278.312 5.91732 278.312 6.4541V7.01855H280.08V8.5127H278.312V16H276.295ZM283.417 16H281.4V7.01855H283.417V16ZM289.856 8.86133C289.591 8.81706 289.317 8.79492 289.035 8.79492C288.111 8.79492 287.488 9.14909 287.167 9.85742V16H285.15V7.01855H287.076L287.125 8.02295C287.612 7.24268 288.288 6.85254 289.151 6.85254C289.439 6.85254 289.677 6.89128 289.865 6.96875L289.856 8.86133ZM295.665 13.5596C295.665 13.1999 295.516 12.9259 295.217 12.7378C294.924 12.5496 294.434 12.3836 293.748 12.2397C293.061 12.0959 292.489 11.9132 292.029 11.6919C291.022 11.2049 290.519 10.4993 290.519 9.5752C290.519 8.80046 290.845 8.15299 291.498 7.63281C292.151 7.11263 292.981 6.85254 293.988 6.85254C295.062 6.85254 295.928 7.11816 296.586 7.64941C297.25 8.18066 297.583 8.86963 297.583 9.71631H295.565C295.565 9.32894 295.422 9.00798 295.134 8.75342C294.846 8.49333 294.464 8.36328 293.988 8.36328C293.546 8.36328 293.183 8.46566 292.901 8.67041C292.624 8.87516 292.486 9.14909 292.486 9.49219C292.486 9.80208 292.616 10.0428 292.876 10.2144C293.136 10.3859 293.662 10.5602 294.453 10.7373C295.244 10.9089 295.864 11.1164 296.312 11.3599C296.766 11.5978 297.101 11.8856 297.317 12.2231C297.538 12.5607 297.649 12.9702 297.649 13.4517C297.649 14.2596 297.314 14.9154 296.645 15.4189C295.975 15.917 295.098 16.166 294.013 16.166C293.277 16.166 292.621 16.0332 292.046 15.7676C291.47 15.502 291.022 15.1367 290.701 14.6719C290.38 14.207 290.22 13.7062 290.22 13.1694H292.179C292.206 13.6453 292.386 14.0133 292.718 14.2734C293.05 14.528 293.49 14.6553 294.038 14.6553C294.569 14.6553 294.973 14.5557 295.25 14.3564C295.527 14.1517 295.665 13.8861 295.665 13.5596ZM301.44 4.83545V7.01855H303.026V8.5127H301.44V13.5264C301.44 13.8695 301.507 14.1185 301.64 14.2734C301.778 14.4229 302.021 14.4976 302.37 14.4976C302.603 14.4976 302.838 14.4699 303.076 14.4146V15.9751C302.616 16.1024 302.174 16.166 301.748 16.166C300.198 16.166 299.423 15.311 299.423 13.6011V8.5127H297.946V7.01855H299.423V4.83545H301.44ZM303.14 2.07129H306.543V18.6895H303.14V17.1206H304.526V3.64844H303.14V2.07129ZM354.475 3.64844H353.105V17.1206H354.475V18.6895H351.088V2.07129H354.475V3.64844ZM360.226 13.5596C360.226 13.1999 360.076 12.9259 359.777 12.7378C359.484 12.5496 358.994 12.3836 358.308 12.2397C357.622 12.0959 357.049 11.9132 356.59 11.6919C355.583 11.2049 355.079 10.4993 355.079 9.5752C355.079 8.80046 355.406 8.15299 356.059 7.63281C356.712 7.11263 357.542 6.85254 358.549 6.85254C359.622 6.85254 360.488 7.11816 361.147 7.64941C361.811 8.18066 362.143 8.86963 362.143 9.71631H360.126C360.126 9.32894 359.982 9.00798 359.694 8.75342C359.407 8.49333 359.025 8.36328 358.549 8.36328C358.106 8.36328 357.744 8.46566 357.461 8.67041C357.185 8.87516 357.046 9.14909 357.046 9.49219C357.046 9.80208 357.176 10.0428 357.437 10.2144C357.697 10.3859 358.222 10.5602 359.014 10.7373C359.805 10.9089 360.425 11.1164 360.873 11.3599C361.327 11.5978 361.662 11.8856 361.877 12.2231C362.099 12.5607 362.209 12.9702 362.209 13.4517C362.209 14.2596 361.875 14.9154 361.205 15.4189C360.535 15.917 359.658 16.166 358.574 16.166C357.838 16.166 357.182 16.0332 356.606 15.7676C356.031 15.502 355.583 15.1367 355.262 14.6719C354.941 14.207 354.78 13.7062 354.78 13.1694H356.739C356.767 13.6453 356.947 14.0133 357.279 14.2734C357.611 14.528 358.051 14.6553 358.599 14.6553C359.13 14.6553 359.534 14.5557 359.811 14.3564C360.087 14.1517 360.226 13.8861 360.226 13.5596ZM367.429 16.166C366.15 16.166 365.113 15.7648 364.316 14.9624C363.525 14.1545 363.129 13.0809 363.129 11.7417V11.4927C363.129 10.5962 363.3 9.79655 363.644 9.09375C363.992 8.38542 364.479 7.8348 365.104 7.44189C365.73 7.04899 366.427 6.85254 367.196 6.85254C368.419 6.85254 369.363 7.24268 370.027 8.02295C370.696 8.80322 371.031 9.90723 371.031 11.335V12.1484H365.163C365.223 12.89 365.47 13.4766 365.901 13.9082C366.339 14.3398 366.886 14.5557 367.545 14.5557C368.469 14.5557 369.222 14.1821 369.803 13.4351L370.89 14.4727C370.53 15.0094 370.049 15.4272 369.446 15.7261C368.848 16.0194 368.176 16.166 367.429 16.166ZM367.188 8.47119C366.635 8.47119 366.186 8.66488 365.843 9.05225C365.506 9.43962 365.29 9.97917 365.196 10.6709H369.039V10.5215C368.995 9.84635 368.815 9.33724 368.5 8.99414C368.184 8.64551 367.747 8.47119 367.188 8.47119ZM375.794 14.5557C376.298 14.5557 376.715 14.409 377.047 14.1157C377.379 13.8224 377.556 13.46 377.579 13.0283H379.479C379.457 13.5872 379.283 14.1102 378.957 14.5972C378.63 15.0786 378.187 15.4604 377.628 15.7427C377.069 16.0249 376.466 16.166 375.819 16.166C374.563 16.166 373.567 15.7593 372.831 14.9458C372.095 14.1323 371.727 13.009 371.727 11.5757V11.3682C371.727 10.0013 372.092 8.90837 372.822 8.08936C373.553 7.26481 374.549 6.85254 375.811 6.85254C376.879 6.85254 377.747 7.1652 378.417 7.79053C379.092 8.41032 379.446 9.22656 379.479 10.2393H377.579C377.556 9.72461 377.379 9.30127 377.047 8.96924C376.721 8.63721 376.303 8.47119 375.794 8.47119C375.141 8.47119 374.637 8.70915 374.283 9.18506C373.929 9.65544 373.749 10.3721 373.744 11.335V11.6587C373.744 12.6326 373.918 13.3604 374.267 13.8418C374.621 14.3177 375.13 14.5557 375.794 14.5557ZM380.125 11.4263C380.125 10.5464 380.299 9.75505 380.648 9.05225C380.997 8.34391 381.486 7.8016 382.117 7.42529C382.748 7.04346 383.473 6.85254 384.292 6.85254C385.504 6.85254 386.486 7.24268 387.239 8.02295C387.997 8.80322 388.406 9.83805 388.467 11.1274L388.476 11.6006C388.476 12.486 388.304 13.2773 387.961 13.9746C387.623 14.6719 387.136 15.2114 386.5 15.5933C385.869 15.9751 385.139 16.166 384.309 16.166C383.041 16.166 382.026 15.7454 381.262 14.9043C380.504 14.0576 380.125 12.9315 380.125 11.5259V11.4263ZM382.142 11.6006C382.142 12.5247 382.333 13.2497 382.715 13.7754C383.097 14.2956 383.628 14.5557 384.309 14.5557C384.989 14.5557 385.518 14.29 385.894 13.7588C386.276 13.2275 386.467 12.45 386.467 11.4263C386.467 10.5187 386.27 9.79932 385.877 9.26807C385.49 8.73682 384.962 8.47119 384.292 8.47119C383.633 8.47119 383.111 8.73405 382.723 9.25977C382.336 9.77995 382.142 10.5602 382.142 11.6006ZM391.553 7.01855L391.611 8.05615C392.275 7.25374 393.147 6.85254 394.226 6.85254C396.097 6.85254 397.048 7.92334 397.082 10.0649V16H395.064V10.1812C395.064 9.61117 394.94 9.19059 394.691 8.91943C394.447 8.64274 394.046 8.50439 393.487 8.50439C392.674 8.50439 392.068 8.8724 391.669 9.6084V16H389.652V7.01855H391.553ZM398.267 11.4429C398.267 10.0594 398.588 8.94987 399.229 8.11426C399.871 7.27311 400.732 6.85254 401.811 6.85254C402.763 6.85254 403.532 7.18457 404.119 7.84863V3.25H406.136V16H404.31L404.21 15.0703C403.607 15.8008 402.802 16.166 401.794 16.166C400.743 16.166 399.891 15.7427 399.238 14.896C398.59 14.0493 398.267 12.8983 398.267 11.4429ZM400.284 11.6172C400.284 12.5303 400.458 13.2441 400.807 13.7588C401.161 14.2679 401.662 14.5225 402.309 14.5225C403.134 14.5225 403.737 14.1545 404.119 13.4185V9.5835C403.748 8.8641 403.15 8.50439 402.326 8.50439C401.673 8.50439 401.169 8.76449 400.815 9.28467C400.461 9.79932 400.284 10.5768 400.284 11.6172ZM406.806 2.07129H410.209V18.6895H406.806V17.1206H408.192V3.64844H406.806V2.07129ZM458.141 3.64844H456.771V17.1206H458.141V18.6895H454.754V2.07129H458.141V3.64844ZM461.385 4.83545V7.01855H462.97V8.5127H461.385V13.5264C461.385 13.8695 461.451 14.1185 461.584 14.2734C461.722 14.4229 461.966 14.4976 462.314 14.4976C462.547 14.4976 462.782 14.4699 463.02 14.4146V15.9751C462.561 16.1024 462.118 16.166 461.692 16.166C460.142 16.166 459.368 15.311 459.368 13.6011V8.5127H457.89V7.01855H459.368V4.83545H461.385ZM466.006 7.99805C466.665 7.23438 467.498 6.85254 468.505 6.85254C470.42 6.85254 471.391 7.94548 471.418 10.1313V16H469.401V10.2061C469.401 9.58626 469.266 9.14909 468.995 8.89453C468.729 8.63444 468.336 8.50439 467.816 8.50439C467.008 8.50439 466.405 8.8641 466.006 9.5835V16H463.989V3.25H466.006V7.99805ZM475.11 16H473.093V7.01855H475.11V16ZM472.969 4.68604C472.969 4.37614 473.066 4.11882 473.259 3.91406C473.458 3.70931 473.741 3.60693 474.106 3.60693C474.471 3.60693 474.753 3.70931 474.953 3.91406C475.152 4.11882 475.251 4.37614 475.251 4.68604C475.251 4.9904 475.152 5.24495 474.953 5.44971C474.753 5.64893 474.471 5.74854 474.106 5.74854C473.741 5.74854 473.458 5.64893 473.259 5.44971C473.066 5.24495 472.969 4.9904 472.969 4.68604ZM481.517 8.86133C481.251 8.81706 480.977 8.79492 480.695 8.79492C479.771 8.79492 479.148 9.14909 478.827 9.85742V16H476.81V7.01855H478.736L478.786 8.02295C479.273 7.24268 479.948 6.85254 480.811 6.85254C481.099 6.85254 481.337 6.89128 481.525 6.96875L481.517 8.86133ZM481.747 11.4429C481.747 10.0594 482.068 8.94987 482.71 8.11426C483.352 7.27311 484.212 6.85254 485.292 6.85254C486.243 6.85254 487.013 7.18457 487.599 7.84863V3.25H489.616V16H487.79L487.69 15.0703C487.087 15.8008 486.282 16.166 485.275 16.166C484.223 16.166 483.371 15.7427 482.718 14.896C482.071 14.0493 481.747 12.8983 481.747 11.4429ZM483.764 11.6172C483.764 12.5303 483.938 13.2441 484.287 13.7588C484.641 14.2679 485.142 14.5225 485.79 14.5225C486.614 14.5225 487.217 14.1545 487.599 13.4185V9.5835C487.228 8.8641 486.631 8.50439 485.806 8.50439C485.153 8.50439 484.65 8.76449 484.295 9.28467C483.941 9.79932 483.764 10.5768 483.764 11.6172ZM490.287 2.07129H493.69V18.6895H490.287V17.1206H491.673V3.64844H490.287V2.07129ZM541.622 3.64844H540.252V17.1206H541.622V18.6895H538.235V2.07129H541.622V3.64844ZM543.047 16V8.5127H541.678V7.01855H543.047V6.19678C543.047 5.20068 543.324 4.43148 543.877 3.88916C544.431 3.34684 545.206 3.07568 546.202 3.07568C546.556 3.07568 546.932 3.12549 547.331 3.2251L547.281 4.80225C547.059 4.75798 546.802 4.73584 546.509 4.73584C545.546 4.73584 545.064 5.23112 545.064 6.22168V7.01855H546.891V8.5127H545.064V16H543.047ZM547.486 11.4263C547.486 10.5464 547.661 9.75505 548.009 9.05225C548.358 8.34391 548.848 7.8016 549.479 7.42529C550.109 7.04346 550.834 6.85254 551.653 6.85254C552.865 6.85254 553.847 7.24268 554.6 8.02295C555.358 8.80322 555.768 9.83805 555.829 11.1274L555.837 11.6006C555.837 12.486 555.665 13.2773 555.322 13.9746C554.985 14.6719 554.498 15.2114 553.861 15.5933C553.23 15.9751 552.5 16.166 551.67 16.166C550.403 16.166 549.387 15.7454 548.624 14.9043C547.865 14.0576 547.486 12.9315 547.486 11.5259V11.4263ZM549.503 11.6006C549.503 12.5247 549.694 13.2497 550.076 13.7754C550.458 14.2956 550.989 14.5557 551.67 14.5557C552.351 14.5557 552.879 14.29 553.255 13.7588C553.637 13.2275 553.828 12.45 553.828 11.4263C553.828 10.5187 553.632 9.79932 553.239 9.26807C552.851 8.73682 552.323 8.47119 551.653 8.47119C550.995 8.47119 550.472 8.73405 550.084 9.25977C549.697 9.77995 549.503 10.5602 549.503 11.6006ZM562.484 15.1201C561.892 15.8174 561.051 16.166 559.96 16.166C558.986 16.166 558.248 15.881 557.744 15.311C557.246 14.741 556.997 13.9165 556.997 12.8374V7.01855H559.014V12.8125C559.014 13.9525 559.487 14.5225 560.434 14.5225C561.413 14.5225 562.074 14.1711 562.417 13.4683V7.01855H564.435V16H562.534L562.484 15.1201ZM570.691 8.86133C570.426 8.81706 570.152 8.79492 569.87 8.79492C568.945 8.79492 568.323 9.14909 568.002 9.85742V16H565.985V7.01855H567.911L567.96 8.02295C568.447 7.24268 569.123 6.85254 569.986 6.85254C570.274 6.85254 570.512 6.89128 570.7 6.96875L570.691 8.86133ZM574.408 4.83545V7.01855H575.994V8.5127H574.408V13.5264C574.408 13.8695 574.475 14.1185 574.607 14.2734C574.746 14.4229 574.989 14.4976 575.338 14.4976C575.57 14.4976 575.806 14.4699 576.043 14.4146V15.9751C575.584 16.1024 575.141 16.166 574.715 16.166C573.166 16.166 572.391 15.311 572.391 13.6011V8.5127H570.914V7.01855H572.391V4.83545H574.408ZM579.03 7.99805C579.688 7.23438 580.521 6.85254 581.528 6.85254C583.443 6.85254 584.414 7.94548 584.442 10.1313V16H582.425V10.2061C582.425 9.58626 582.289 9.14909 582.018 8.89453C581.752 8.63444 581.36 8.50439 580.839 8.50439C580.031 8.50439 579.428 8.8641 579.03 9.5835V16H577.013V3.25H579.03V7.99805ZM585.054 2.07129H588.458V18.6895H585.054V17.1206H586.44V3.64844H585.054V2.07129Z" fill="#1E73FF"/>
<path d="M319.456 7.10156C319.456 7.69368 319.303 8.22217 318.999 8.68701C318.695 9.14632 318.28 9.50879 317.754 9.77441C318.385 10.0677 318.869 10.4689 319.207 10.978C319.55 11.4871 319.721 12.0627 319.721 12.7046C319.721 13.7671 319.361 14.611 318.642 15.2363C317.923 15.8561 316.965 16.166 315.77 16.166C314.569 16.166 313.606 15.8534 312.881 15.228C312.162 14.6027 311.802 13.7616 311.802 12.7046C311.802 12.0571 311.974 11.4761 312.317 10.9614C312.66 10.4468 313.141 10.0511 313.761 9.77441C313.241 9.50879 312.829 9.14632 312.524 8.68701C312.226 8.22217 312.076 7.69368 312.076 7.10156C312.076 6.07227 312.408 5.25602 313.072 4.65283C313.736 4.04964 314.633 3.74805 315.762 3.74805C316.896 3.74805 317.795 4.04964 318.459 4.65283C319.124 5.25602 319.456 6.07227 319.456 7.10156ZM317.704 12.605C317.704 12.0073 317.524 11.5259 317.165 11.1606C316.81 10.7899 316.34 10.6045 315.753 10.6045C315.167 10.6045 314.696 10.7871 314.342 11.1523C313.994 11.5176 313.819 12.0018 313.819 12.605C313.819 13.1971 313.991 13.6702 314.334 14.0244C314.683 14.3786 315.161 14.5557 315.77 14.5557C316.379 14.5557 316.852 14.3841 317.189 14.041C317.533 13.6979 317.704 13.2192 317.704 12.605ZM317.447 7.17627C317.447 6.65055 317.295 6.21891 316.99 5.88135C316.686 5.53825 316.276 5.3667 315.762 5.3667C315.247 5.3667 314.84 5.52995 314.542 5.85645C314.243 6.17741 314.093 6.61735 314.093 7.17627C314.093 7.72965 314.243 8.1696 314.542 8.49609C314.846 8.82259 315.255 8.98584 315.77 8.98584C316.285 8.98584 316.691 8.82259 316.99 8.49609C317.295 8.1696 317.447 7.72965 317.447 7.17627ZM328.883 10.9116C328.883 12.6493 328.557 13.9608 327.904 14.8462C327.256 15.7261 326.269 16.166 324.94 16.166C323.634 16.166 322.649 15.7371 321.985 14.8794C321.327 14.0161 320.989 12.7406 320.973 11.0527V8.96094C320.973 7.22331 321.296 5.92008 321.944 5.05127C322.597 4.18245 323.59 3.74805 324.924 3.74805C326.246 3.74805 327.231 4.17139 327.879 5.01807C328.532 5.86475 328.867 7.132 328.883 8.81982V10.9116ZM326.866 8.65381C326.866 7.51937 326.711 6.68929 326.401 6.16357C326.091 5.63232 325.599 5.3667 324.924 5.3667C324.265 5.3667 323.781 5.61849 323.471 6.12207C323.161 6.62012 322.998 7.40039 322.981 8.46289V11.2021C322.981 12.3311 323.139 13.1722 323.455 13.7256C323.77 14.279 324.265 14.5557 324.94 14.5557C325.588 14.5557 326.067 14.3011 326.376 13.792C326.686 13.2773 326.85 12.4749 326.866 11.3848V8.65381ZM338.162 11.6006C338.162 12.9896 337.846 14.0991 337.215 14.9292C336.584 15.7537 335.738 16.166 334.675 16.166C333.69 16.166 332.902 15.8423 332.31 15.1948V19.4531H330.292V7.01855H332.152L332.235 7.93164C332.827 7.21224 333.632 6.85254 334.65 6.85254C335.746 6.85254 336.604 7.26204 337.224 8.08105C337.849 8.89453 338.162 10.0262 338.162 11.4761V11.6006ZM336.153 11.4263C336.153 10.5298 335.973 9.81868 335.613 9.29297C335.259 8.76725 334.75 8.50439 334.086 8.50439C333.261 8.50439 332.669 8.84473 332.31 9.52539V13.5098C332.675 14.207 333.272 14.5557 334.103 14.5557C334.744 14.5557 335.245 14.2983 335.605 13.7837C335.97 13.2635 336.153 12.4777 336.153 11.4263ZM342.468 9.97363L344.178 7.01855H346.419L343.671 11.4429L346.51 16H344.286L342.493 12.9287L340.708 16H338.467L341.306 11.4429L338.566 7.01855H340.791L342.468 9.97363ZM421.785 3.85596V5.52441H421.536C420.407 5.54102 419.505 5.85091 418.83 6.4541C418.155 7.05729 417.754 7.91227 417.626 9.01904C418.274 8.33838 419.101 7.99805 420.108 7.99805C421.176 7.99805 422.018 8.37435 422.632 9.12695C423.252 9.87956 423.562 10.8507 423.562 12.0405C423.562 13.269 423.199 14.2651 422.474 15.0288C421.755 15.7869 420.808 16.166 419.635 16.166C418.429 16.166 417.449 15.7205 416.697 14.8296C415.95 13.9386 415.576 12.771 415.576 11.3267V10.6377C415.576 8.51823 416.091 6.85807 417.12 5.65723C418.155 4.45638 419.641 3.85596 421.578 3.85596H421.785ZM419.619 9.625C419.176 9.625 418.769 9.74951 418.398 9.99854C418.033 10.2476 417.765 10.5796 417.593 10.9946V11.6089C417.593 12.5054 417.781 13.2192 418.158 13.7505C418.534 14.2762 419.021 14.5391 419.619 14.5391C420.216 14.5391 420.689 14.3149 421.038 13.8667C421.387 13.4185 421.561 12.8291 421.561 12.0986C421.561 11.3682 421.384 10.7733 421.03 10.314C420.676 9.85465 420.205 9.625 419.619 9.625ZM432.549 10.9116C432.549 12.6493 432.223 13.9608 431.57 14.8462C430.922 15.7261 429.935 16.166 428.606 16.166C427.3 16.166 426.315 15.7371 425.651 14.8794C424.993 14.0161 424.655 12.7406 424.639 11.0527V8.96094C424.639 7.22331 424.962 5.92008 425.61 5.05127C426.263 4.18245 427.256 3.74805 428.59 3.74805C429.912 3.74805 430.897 4.17139 431.545 5.01807C432.198 5.86475 432.533 7.132 432.549 8.81982V10.9116ZM430.532 8.65381C430.532 7.51937 430.377 6.68929 430.067 6.16357C429.757 5.63232 429.265 5.3667 428.59 5.3667C427.931 5.3667 427.447 5.61849 427.137 6.12207C426.827 6.62012 426.664 7.40039 426.647 8.46289V11.2021C426.647 12.3311 426.805 13.1722 427.121 13.7256C427.436 14.279 427.931 14.5557 428.606 14.5557C429.254 14.5557 429.733 14.3011 430.042 13.792C430.352 13.2773 430.516 12.4749 430.532 11.3848V8.65381ZM441.828 11.6006C441.828 12.9896 441.512 14.0991 440.881 14.9292C440.25 15.7537 439.404 16.166 438.341 16.166C437.356 16.166 436.568 15.8423 435.976 15.1948V19.4531H433.958V7.01855H435.818L435.901 7.93164C436.493 7.21224 437.298 6.85254 438.316 6.85254C439.412 6.85254 440.27 7.26204 440.89 8.08105C441.515 8.89453 441.828 10.0262 441.828 11.4761V11.6006ZM439.819 11.4263C439.819 10.5298 439.639 9.81868 439.279 9.29297C438.925 8.76725 438.416 8.50439 437.752 8.50439C436.927 8.50439 436.335 8.84473 435.976 9.52539V13.5098C436.341 14.207 436.938 14.5557 437.769 14.5557C438.41 14.5557 438.911 14.2983 439.271 13.7837C439.636 13.2635 439.819 12.4777 439.819 11.4263ZM446.134 9.97363L447.844 7.01855H450.085L447.337 11.4429L450.176 16H447.952L446.159 12.9287L444.374 16H442.133L444.972 11.4429L442.232 7.01855H444.457L446.134 9.97363ZM505.813 11.6919H507.316V13.3105H505.813V16H503.796V13.3105H498.575L498.517 12.082L503.73 3.91406H505.813V11.6919ZM500.634 11.6919H503.796V6.64502L503.647 6.91064L500.634 11.6919ZM516.03 10.9116C516.03 12.6493 515.703 13.9608 515.05 14.8462C514.403 15.7261 513.415 16.166 512.087 16.166C510.781 16.166 509.796 15.7371 509.132 14.8794C508.473 14.0161 508.136 12.7406 508.119 11.0527V8.96094C508.119 7.22331 508.443 5.92008 509.09 5.05127C509.743 4.18245 510.737 3.74805 512.07 3.74805C513.393 3.74805 514.378 4.17139 515.025 5.01807C515.678 5.86475 516.013 7.132 516.03 8.81982V10.9116ZM514.013 8.65381C514.013 7.51937 513.858 6.68929 513.548 6.16357C513.238 5.63232 512.745 5.3667 512.07 5.3667C511.412 5.3667 510.928 5.61849 510.618 6.12207C510.308 6.62012 510.145 7.40039 510.128 8.46289V11.2021C510.128 12.3311 510.286 13.1722 510.601 13.7256C510.917 14.279 511.412 14.5557 512.087 14.5557C512.734 14.5557 513.213 14.3011 513.523 13.792C513.833 13.2773 513.996 12.4749 514.013 11.3848V8.65381ZM525.308 11.6006C525.308 12.9896 524.993 14.0991 524.362 14.9292C523.731 15.7537 522.884 16.166 521.822 16.166C520.837 16.166 520.048 15.8423 519.456 15.1948V19.4531H517.439V7.01855H519.298L519.381 7.93164C519.973 7.21224 520.779 6.85254 521.797 6.85254C522.893 6.85254 523.75 7.26204 524.37 8.08105C524.995 8.89453 525.308 10.0262 525.308 11.4761V11.6006ZM523.299 11.4263C523.299 10.5298 523.119 9.81868 522.76 9.29297C522.406 8.76725 521.896 8.50439 521.232 8.50439C520.408 8.50439 519.816 8.84473 519.456 9.52539V13.5098C519.821 14.207 520.419 14.5557 521.249 14.5557C521.891 14.5557 522.392 14.2983 522.751 13.7837C523.117 13.2635 523.299 12.4777 523.299 11.4263ZM529.614 9.97363L531.324 7.01855H533.565L530.818 11.4429L533.657 16H531.432L529.639 12.9287L527.854 16H525.613L528.452 11.4429L525.713 7.01855H527.938L529.614 9.97363Z" fill="#00986B"/>
<rect width="732" height="268" transform="translate(0 31)" fill="#F7F7F7"/>
<rect x="77" y="72" width="626" height="206" fill="white"/>
<path d="M380.5 73L380.5 277" stroke="#BBBBBB" stroke-dasharray="3 2"/>
<path d="M387.5 73L387.5 277" stroke="#BBBBBB" stroke-dasharray="3 2"/>
<path d="M592.5 73L592.5 277" stroke="#BBBBBB" stroke-dasharray="3 2"/>
<path d="M599.5 73L599.5 277" stroke="#BBBBBB" stroke-dasharray="3 2"/>
<path d="M78 162.5L702 162.5" stroke="#BBBBBB" stroke-dasharray="3 2"/>
<path d="M78 155.5L702 155.5" stroke="#BBBBBB" stroke-dasharray="3 2"/>
<path d="M78 234.5L702 234.5" stroke="#BBBBBB" stroke-dasharray="3 2"/>
<path d="M78 227.5L702 227.5" stroke="#BBBBBB" stroke-dasharray="3 2"/>
<path d="M88.8534 77.1464C88.6581 76.9512 88.3415 76.9512 88.1462 77.1464L84.9643 80.3284C84.769 80.5237 84.769 80.8403 84.9643 81.0355C85.1595 81.2308 85.4761 81.2308 85.6714 81.0355L88.4998 78.2071L91.3282 81.0355C91.5235 81.2308 91.8401 81.2308 92.0353 81.0355C92.2306 80.8403 92.2306 80.5237 92.0353 80.3284L88.8534 77.1464ZM88.1463 150.854C88.3415 151.049 88.6581 151.049 88.8534 150.854L92.0353 147.672C92.2306 147.476 92.2306 147.16 92.0353 146.964C91.8401 146.769 91.5235 146.769 91.3282 146.964L88.4998 149.793L85.6714 146.964C85.4761 146.769 85.1595 146.769 84.9643 146.964C84.769 147.16 84.769 147.476 84.9643 147.672L88.1463 150.854ZM88.8534 167.146C88.6582 166.951 88.3416 166.951 88.1463 167.146L84.9643 170.328C84.7691 170.524 84.7691 170.84 84.9643 171.036C85.1596 171.231 85.4762 171.231 85.6714 171.036L88.4999 168.207L91.3283 171.036C91.5236 171.231 91.8401 171.231 92.0354 171.036C92.2307 170.84 92.2307 170.524 92.0354 170.328L88.8534 167.146ZM88.1464 222.854C88.3417 223.049 88.6582 223.049 88.8535 222.854L92.0355 219.672C92.2307 219.476 92.2307 219.16 92.0355 218.964C91.8402 218.769 91.5236 218.769 91.3284 218.964L88.4999 221.793L85.6715 218.964C85.4762 218.769 85.1597 218.769 84.9644 218.964C84.7691 219.16 84.7691 219.476 84.9644 219.672L88.1464 222.854ZM88.8535 239.146C88.6583 238.951 88.3417 238.951 88.1464 239.146L84.9645 242.328C84.7692 242.524 84.7692 242.84 84.9645 243.036C85.1597 243.231 85.4763 243.231 85.6716 243.036L88.5 240.207L91.3284 243.036C91.5237 243.231 91.8403 243.231 92.0355 243.036C92.2308 242.84 92.2308 242.524 92.0355 242.328L88.8535 239.146ZM88.1464 272.854C88.3417 273.049 88.6583 273.049 88.8535 272.854L92.0355 269.672C92.2308 269.476 92.2308 269.16 92.0355 268.964C91.8403 268.769 91.5237 268.769 91.3284 268.964L88.5 271.793L85.6716 268.964C85.4763 268.769 85.1597 268.769 84.9645 268.964C84.7692 269.16 84.7692 269.476 84.9645 269.672L88.1464 272.854ZM87.9998 77.5L87.9998 150.5L88.9998 150.5L88.9998 77.5L87.9998 77.5ZM87.9999 167.5L87.9999 222.5L88.9999 222.5L88.9999 167.5L87.9999 167.5ZM88 239.5L88 272.5L89 272.5L89 239.5L88 239.5Z" fill="#00986B"/>
<rect x="77" y="72" width="626" height="206" stroke="#AAAAAA" stroke-width="2"/>
<path d="M78.1743 56H76.6382V48.5796L74.3721 49.354V48.0527L77.9775 46.7261H78.1743V56Z" fill="#888888"/>
<path d="M77 66L74.4019 61.5L79.5981 61.5L77 66Z" fill="#888888"/>
<path d="M38.1362 78V71.3936H36.9277V70.0752H38.1362V69.5332C38.1411 68.9131 38.2729 68.3809 38.5317 67.9365C38.7905 67.4922 39.1567 67.1577 39.6304 66.9331C40.104 66.7085 40.6729 66.5962 41.3369 66.5962C41.7275 66.5962 42.1011 66.6377 42.4575 66.7207C42.8188 66.8037 43.1924 66.9087 43.5781 67.0356L43.3071 68.5078C42.6333 68.2734 42.0181 68.1562 41.4614 68.1562C40.9194 68.1562 40.5264 68.2759 40.2822 68.5151C40.0381 68.7495 39.916 69.1035 39.916 69.5771V70.0752H41.4761V71.3936H39.916V78H38.1362ZM44.4204 78H42.6406V70.0752H44.4204V78ZM50.0435 71.7012C49.8091 71.6621 49.5674 71.6426 49.3184 71.6426C48.5029 71.6426 47.9536 71.9551 47.6704 72.5801V78H45.8906V70.0752H47.5898L47.6338 70.9614C48.0635 70.2729 48.6592 69.9287 49.4209 69.9287C49.6748 69.9287 49.8848 69.9629 50.0508 70.0312L50.0435 71.7012ZM55.1099 75.8467C55.1099 75.5293 54.978 75.2876 54.7144 75.1216C54.4556 74.9556 54.0234 74.8091 53.418 74.6821C52.8125 74.5552 52.3071 74.394 51.9019 74.1987C51.0132 73.769 50.5688 73.1465 50.5688 72.3311C50.5688 71.6475 50.8569 71.0762 51.4331 70.6172C52.0093 70.1582 52.7417 69.9287 53.6304 69.9287C54.5776 69.9287 55.3418 70.1631 55.9229 70.6318C56.5088 71.1006 56.8018 71.7085 56.8018 72.4556H55.022C55.022 72.1138 54.895 71.8306 54.6411 71.606C54.3872 71.3765 54.0503 71.2617 53.6304 71.2617C53.2397 71.2617 52.9199 71.3521 52.6709 71.5327C52.4268 71.7134 52.3047 71.9551 52.3047 72.2578C52.3047 72.5312 52.4194 72.7437 52.6489 72.895C52.8784 73.0464 53.3423 73.2002 54.0405 73.3564C54.7388 73.5078 55.2856 73.6909 55.6812 73.9058C56.0815 74.1157 56.377 74.3696 56.5674 74.6675C56.7627 74.9653 56.8604 75.3267 56.8604 75.7515C56.8604 76.4644 56.5649 77.043 55.9741 77.4873C55.3833 77.9268 54.6094 78.1465 53.6523 78.1465C53.0029 78.1465 52.4243 78.0293 51.9165 77.7949C51.4087 77.5605 51.0132 77.2383 50.73 76.8281C50.4468 76.418 50.3052 75.9761 50.3052 75.5024H52.0337C52.0581 75.9224 52.2168 76.2471 52.5098 76.4766C52.8027 76.7012 53.1909 76.8135 53.6743 76.8135C54.1431 76.8135 54.4995 76.7256 54.7437 76.5498C54.9878 76.3691 55.1099 76.1348 55.1099 75.8467ZM60.147 68.1489V70.0752H61.5459V71.3936H60.147V75.8174C60.147 76.1201 60.2056 76.3398 60.3228 76.4766C60.4448 76.6084 60.6597 76.6743 60.9673 76.6743C61.1724 76.6743 61.3799 76.6499 61.5898 76.6011V77.978C61.1846 78.0903 60.7939 78.1465 60.418 78.1465C59.0508 78.1465 58.3672 77.3921 58.3672 75.8833V71.3936H57.0635V70.0752H58.3672V68.1489H60.147Z" fill="#1E73FF"/>
<path d="M71 73L66.5 75.5981L66.5 70.4019L71 73Z" fill="#1E73FF"/>
<path d="M20.8403 161.847C20.8403 161.529 20.7085 161.288 20.4448 161.122C20.186 160.956 19.7539 160.809 19.1484 160.682C18.543 160.555 18.0376 160.394 17.6323 160.199C16.7437 159.769 16.2993 159.146 16.2993 158.331C16.2993 157.647 16.5874 157.076 17.1636 156.617C17.7397 156.158 18.4722 155.929 19.3608 155.929C20.3081 155.929 21.0723 156.163 21.6533 156.632C22.2393 157.101 22.5322 157.708 22.5322 158.456H20.7524C20.7524 158.114 20.6255 157.831 20.3716 157.606C20.1177 157.376 19.7808 157.262 19.3608 157.262C18.9702 157.262 18.6504 157.352 18.4014 157.533C18.1572 157.713 18.0352 157.955 18.0352 158.258C18.0352 158.531 18.1499 158.744 18.3794 158.895C18.6089 159.046 19.0728 159.2 19.771 159.356C20.4692 159.508 21.0161 159.691 21.4116 159.906C21.812 160.116 22.1074 160.37 22.2979 160.667C22.4932 160.965 22.5908 161.327 22.5908 161.751C22.5908 162.464 22.2954 163.043 21.7046 163.487C21.1138 163.927 20.3398 164.146 19.3828 164.146C18.7334 164.146 18.1548 164.029 17.647 163.795C17.1392 163.561 16.7437 163.238 16.4604 162.828C16.1772 162.418 16.0356 161.976 16.0356 161.502H17.7642C17.7886 161.922 17.9473 162.247 18.2402 162.477C18.5332 162.701 18.9214 162.813 19.4048 162.813C19.8735 162.813 20.23 162.726 20.4741 162.55C20.7183 162.369 20.8403 162.135 20.8403 161.847ZM27.1372 164.146C26.0093 164.146 25.0938 163.792 24.3906 163.084C23.6924 162.372 23.3433 161.424 23.3433 160.243V160.023C23.3433 159.232 23.4946 158.526 23.7974 157.906C24.105 157.281 24.5347 156.795 25.0864 156.449C25.6382 156.102 26.2534 155.929 26.9321 155.929C28.0112 155.929 28.8438 156.273 29.4297 156.961C30.0205 157.65 30.3159 158.624 30.3159 159.884V160.602H25.1377C25.1914 161.256 25.4087 161.773 25.7896 162.154C26.1753 162.535 26.6587 162.726 27.2397 162.726C28.0552 162.726 28.7192 162.396 29.2319 161.737L30.1914 162.652C29.874 163.126 29.4492 163.495 28.917 163.758C28.3896 164.017 27.7964 164.146 27.1372 164.146ZM26.9248 157.357C26.4365 157.357 26.041 157.528 25.7383 157.87C25.4404 158.211 25.25 158.688 25.167 159.298H28.5581V159.166C28.519 158.57 28.3604 158.121 28.082 157.818C27.8037 157.511 27.418 157.357 26.9248 157.357ZM34.4595 162.726C34.9038 162.726 35.2725 162.596 35.5654 162.337C35.8584 162.079 36.0146 161.759 36.0342 161.378H37.7114C37.6919 161.871 37.5381 162.333 37.25 162.762C36.9619 163.187 36.5713 163.524 36.0781 163.773C35.585 164.022 35.0527 164.146 34.4814 164.146C33.373 164.146 32.4941 163.788 31.8447 163.07C31.1953 162.352 30.8706 161.361 30.8706 160.096V159.913C30.8706 158.707 31.1929 157.743 31.8374 157.02C32.4819 156.292 33.3608 155.929 34.4741 155.929C35.4165 155.929 36.1831 156.205 36.7739 156.756C37.3696 157.303 37.6821 158.023 37.7114 158.917H36.0342C36.0146 158.463 35.8584 158.089 35.5654 157.796C35.2773 157.503 34.9087 157.357 34.4595 157.357C33.8833 157.357 33.439 157.567 33.1265 157.987C32.814 158.402 32.6553 159.034 32.6504 159.884V160.169C32.6504 161.029 32.8042 161.671 33.1118 162.096C33.4243 162.516 33.8735 162.726 34.4595 162.726ZM38.2222 159.964C38.2222 159.188 38.376 158.49 38.6836 157.87C38.9912 157.245 39.4233 156.766 39.98 156.434C40.5366 156.097 41.1763 155.929 41.8989 155.929C42.9683 155.929 43.835 156.273 44.499 156.961C45.168 157.65 45.5293 158.563 45.583 159.701L45.5903 160.118C45.5903 160.899 45.439 161.598 45.1362 162.213C44.8384 162.828 44.4087 163.304 43.8472 163.641C43.2905 163.978 42.646 164.146 41.9136 164.146C40.7954 164.146 39.8994 163.775 39.2256 163.033C38.5566 162.286 38.2222 161.292 38.2222 160.052V159.964ZM40.002 160.118C40.002 160.934 40.1704 161.573 40.5073 162.037C40.8442 162.496 41.313 162.726 41.9136 162.726C42.5142 162.726 42.9805 162.491 43.3125 162.022C43.6494 161.554 43.8179 160.868 43.8179 159.964C43.8179 159.164 43.6445 158.529 43.2979 158.06C42.9561 157.591 42.4897 157.357 41.8989 157.357C41.3179 157.357 40.8564 157.589 40.5146 158.053C40.1729 158.512 40.002 159.2 40.002 160.118ZM48.2471 156.075L48.2983 156.991C48.8843 156.283 49.6533 155.929 50.6055 155.929C52.2559 155.929 53.0957 156.874 53.125 158.763V164H51.3452V158.866C51.3452 158.363 51.2354 157.992 51.0156 157.752C50.8008 157.508 50.4468 157.386 49.9536 157.386C49.2358 157.386 48.7012 157.711 48.3496 158.36V164H46.5698V156.075H48.2471ZM54.1118 159.979C54.1118 158.758 54.395 157.779 54.9614 157.042C55.5278 156.3 56.2871 155.929 57.2393 155.929C58.0791 155.929 58.7578 156.222 59.2754 156.808V152.75H61.0552V164H59.4438L59.356 163.18C58.8237 163.824 58.1133 164.146 57.2246 164.146C56.2969 164.146 55.5449 163.773 54.9688 163.026C54.3975 162.279 54.1118 161.263 54.1118 159.979ZM55.8916 160.133C55.8916 160.938 56.0454 161.568 56.353 162.022C56.6655 162.472 57.1074 162.696 57.6787 162.696C58.4062 162.696 58.9385 162.372 59.2754 161.722V158.338C58.9482 157.704 58.4209 157.386 57.6934 157.386C57.1172 157.386 56.6729 157.616 56.3604 158.075C56.0479 158.529 55.8916 159.215 55.8916 160.133Z" fill="#1E73FF"/>
<path d="M71 159L66.5 161.598L66.5 156.402L71 159Z" fill="#1E73FF"/>
<path d="M36.3804 226.149V228.075H37.7793V229.394H36.3804V233.817C36.3804 234.12 36.439 234.34 36.5562 234.477C36.6782 234.608 36.8931 234.674 37.2007 234.674C37.4058 234.674 37.6133 234.65 37.8232 234.601V235.978C37.418 236.09 37.0273 236.146 36.6514 236.146C35.2842 236.146 34.6006 235.392 34.6006 233.883V229.394H33.2969V228.075H34.6006V226.149H36.3804ZM40.3994 228.939C40.9805 228.266 41.7153 227.929 42.604 227.929C44.2935 227.929 45.1504 228.893 45.1748 230.822V236H43.395V230.888C43.395 230.341 43.2754 229.955 43.0361 229.73C42.8018 229.501 42.4551 229.386 41.9961 229.386C41.2832 229.386 40.751 229.704 40.3994 230.338V236H38.6196V224.75H40.3994V228.939ZM48.3735 236H46.5938V228.075H48.3735V236ZM46.4839 226.017C46.4839 225.744 46.5693 225.517 46.7402 225.336C46.916 225.155 47.165 225.065 47.4873 225.065C47.8096 225.065 48.0586 225.155 48.2344 225.336C48.4102 225.517 48.498 225.744 48.498 226.017C48.498 226.286 48.4102 226.51 48.2344 226.691C48.0586 226.867 47.8096 226.955 47.4873 226.955C47.165 226.955 46.916 226.867 46.7402 226.691C46.5693 226.51 46.4839 226.286 46.4839 226.017ZM53.9673 229.701C53.7329 229.662 53.4912 229.643 53.2422 229.643C52.4268 229.643 51.8774 229.955 51.5942 230.58V236H49.8145V228.075H51.5137L51.5576 228.961C51.9873 228.273 52.583 227.929 53.3447 227.929C53.5986 227.929 53.8086 227.963 53.9746 228.031L53.9673 229.701ZM54.1118 231.979C54.1118 230.758 54.395 229.779 54.9614 229.042C55.5278 228.3 56.2871 227.929 57.2393 227.929C58.0791 227.929 58.7578 228.222 59.2754 228.808V224.75H61.0552V236H59.4438L59.356 235.18C58.8237 235.824 58.1133 236.146 57.2246 236.146C56.2969 236.146 55.5449 235.773 54.9688 235.026C54.3975 234.279 54.1118 233.263 54.1118 231.979ZM55.8916 232.133C55.8916 232.938 56.0454 233.568 56.353 234.022C56.6655 234.472 57.1074 234.696 57.6787 234.696C58.4062 234.696 58.9385 234.372 59.2754 233.722V230.338C58.9482 229.704 58.4209 229.386 57.6934 229.386C57.1172 229.386 56.6729 229.616 56.3604 230.075C56.0479 230.529 55.8916 231.215 55.8916 232.133Z" fill="#1E73FF"/>
<path d="M71 231L66.5 233.598L66.5 228.402L71 231Z" fill="#1E73FF"/>
<path d="M24.876 282V275.394H23.6675V274.075H24.876V273.35C24.876 272.471 25.1201 271.792 25.6084 271.314C26.0967 270.835 26.7803 270.596 27.6592 270.596C27.9717 270.596 28.3037 270.64 28.6553 270.728L28.6113 272.12C28.416 272.081 28.189 272.061 27.9302 272.061C27.0806 272.061 26.6558 272.498 26.6558 273.372V274.075H28.2671V275.394H26.6558V282H24.876ZM28.7339 277.964C28.7339 277.188 28.8877 276.49 29.1953 275.87C29.5029 275.245 29.9351 274.766 30.4917 274.434C31.0483 274.097 31.688 273.929 32.4106 273.929C33.48 273.929 34.3467 274.273 35.0107 274.961C35.6797 275.65 36.041 276.563 36.0947 277.701L36.1021 278.118C36.1021 278.899 35.9507 279.598 35.6479 280.213C35.3501 280.828 34.9204 281.304 34.3589 281.641C33.8022 281.978 33.1577 282.146 32.4253 282.146C31.3071 282.146 30.4111 281.775 29.7373 281.033C29.0684 280.286 28.7339 279.292 28.7339 278.052V277.964ZM30.5137 278.118C30.5137 278.934 30.6821 279.573 31.019 280.037C31.356 280.496 31.8247 280.726 32.4253 280.726C33.0259 280.726 33.4922 280.491 33.8242 280.022C34.1611 279.554 34.3296 278.868 34.3296 277.964C34.3296 277.164 34.1562 276.529 33.8096 276.06C33.4678 275.591 33.0015 275.357 32.4106 275.357C31.8296 275.357 31.3682 275.589 31.0264 276.053C30.6846 276.512 30.5137 277.2 30.5137 278.118ZM41.9082 281.224C41.3857 281.839 40.6436 282.146 39.6816 282.146C38.8223 282.146 38.1704 281.895 37.7261 281.392C37.2866 280.889 37.0669 280.162 37.0669 279.209V274.075H38.8467V279.188C38.8467 280.193 39.2642 280.696 40.0991 280.696C40.9634 280.696 41.5469 280.386 41.8496 279.766V274.075H43.6294V282H41.9521L41.9082 281.224ZM49.0913 275.701C48.8569 275.662 48.6152 275.643 48.3662 275.643C47.5508 275.643 47.0015 275.955 46.7183 276.58V282H44.9385V274.075H46.6377L46.6816 274.961C47.1113 274.273 47.707 273.929 48.4688 273.929C48.7227 273.929 48.9326 273.963 49.0986 274.031L49.0913 275.701ZM52.312 272.149V274.075H53.7109V275.394H52.312V279.817C52.312 280.12 52.3706 280.34 52.4878 280.477C52.6099 280.608 52.8247 280.674 53.1323 280.674C53.3374 280.674 53.5449 280.65 53.7549 280.601V281.978C53.3496 282.09 52.959 282.146 52.583 282.146C51.2158 282.146 50.5322 281.392 50.5322 279.883V275.394H49.2285V274.075H50.5322V272.149H52.312ZM56.3311 274.939C56.9121 274.266 57.647 273.929 58.5356 273.929C60.2251 273.929 61.082 274.893 61.1064 276.822V282H59.3267V276.888C59.3267 276.341 59.207 275.955 58.9678 275.73C58.7334 275.501 58.3867 275.386 57.9277 275.386C57.2148 275.386 56.6826 275.704 56.3311 276.338V282H54.5513V270.75H56.3311V274.939Z" fill="#1E73FF"/>
<path d="M71 277L66.5 279.598L66.5 274.402L71 277Z" fill="#1E73FF"/>
<path d="M387.212 56H380.998V54.9399L384.076 51.582C384.521 51.0869 384.836 50.6743 385.022 50.3442C385.212 50.0099 385.308 49.6756 385.308 49.3413C385.308 48.9012 385.183 48.5457 384.933 48.2749C384.688 48.0041 384.355 47.8687 383.937 47.8687C383.437 47.8687 383.05 48.021 382.775 48.3257C382.5 48.6304 382.362 49.0472 382.362 49.5762H380.82C380.82 49.0133 380.947 48.5076 381.201 48.0591C381.459 47.6063 381.825 47.255 382.299 47.0054C382.777 46.7557 383.327 46.6309 383.949 46.6309C384.846 46.6309 385.553 46.8573 386.069 47.3101C386.59 47.7586 386.85 48.3807 386.85 49.1763C386.85 49.6375 386.719 50.1221 386.457 50.6299C386.198 51.1335 385.773 51.7069 385.181 52.3501L382.921 54.7686H387.212V56Z" fill="#888888"/>
<path d="M384 66L381.402 61.5L386.598 61.5L384 66Z" fill="#888888"/>
<path d="M594.781 50.6743H595.721C596.195 50.6701 596.569 50.5474 596.844 50.3062C597.124 50.0649 597.263 49.7158 597.263 49.2588C597.263 48.8187 597.147 48.478 596.914 48.2368C596.686 47.9914 596.334 47.8687 595.86 47.8687C595.446 47.8687 595.105 47.9893 594.838 48.2305C594.572 48.4674 594.438 48.7785 594.438 49.1636H592.896C592.896 48.6896 593.021 48.258 593.271 47.8687C593.524 47.4793 593.876 47.1768 594.324 46.9609C594.777 46.7409 595.283 46.6309 595.841 46.6309C596.764 46.6309 597.487 46.8636 598.012 47.3291C598.541 47.7904 598.806 48.4336 598.806 49.2588C598.806 49.6735 598.672 50.0649 598.406 50.4331C598.143 50.797 597.803 51.0721 597.384 51.2583C597.892 51.4318 598.277 51.7048 598.539 52.0771C598.806 52.4495 598.939 52.8939 598.939 53.4102C598.939 54.2396 598.653 54.8997 598.082 55.3906C597.515 55.8815 596.768 56.127 595.841 56.127C594.953 56.127 594.225 55.89 593.658 55.416C593.091 54.9421 592.807 54.3115 592.807 53.5244H594.35C594.35 53.9307 594.485 54.2607 594.756 54.5146C595.031 54.7686 595.399 54.8955 595.86 54.8955C596.339 54.8955 596.715 54.7686 596.99 54.5146C597.265 54.2607 597.403 53.8926 597.403 53.4102C597.403 52.9235 597.259 52.549 596.971 52.2866C596.683 52.0243 596.256 51.8931 595.689 51.8931H594.781V50.6743Z" fill="#888888"/>
<path d="M596 66L593.402 61.5L598.598 61.5L596 66Z" fill="#888888"/>
<path d="M704.215 52.7056H705.364V53.9434H704.215V56H702.673V53.9434H698.68L698.636 53.0039L702.622 46.7578H704.215V52.7056ZM700.254 52.7056H702.673V48.8462L702.559 49.0493L700.254 52.7056Z" fill="#888888"/>
<path d="M702 66L699.402 61.5L704.598 61.5L702 66Z" fill="#888888"/>
<path d="M102.515 113.148C102.515 113.671 102.38 114.137 102.112 114.547C101.843 114.953 101.477 115.272 101.013 115.507C101.57 115.766 101.997 116.12 102.295 116.569C102.598 117.018 102.749 117.526 102.749 118.092C102.749 119.03 102.432 119.774 101.797 120.326C101.162 120.873 100.317 121.146 99.2627 121.146C98.2031 121.146 97.3535 120.871 96.7139 120.319C96.0791 119.767 95.7617 119.025 95.7617 118.092C95.7617 117.521 95.9131 117.008 96.2158 116.554C96.5186 116.1 96.9434 115.751 97.4902 115.507C97.0312 115.272 96.6675 114.953 96.3989 114.547C96.1353 114.137 96.0034 113.671 96.0034 113.148C96.0034 112.24 96.2964 111.52 96.8823 110.988C97.4683 110.456 98.2593 110.189 99.2554 110.189C100.256 110.189 101.05 110.456 101.636 110.988C102.222 111.52 102.515 112.24 102.515 113.148ZM100.969 118.004C100.969 117.477 100.811 117.052 100.493 116.73C100.181 116.403 99.7656 116.239 99.248 116.239C98.7305 116.239 98.3154 116.4 98.0029 116.723C97.6953 117.045 97.5415 117.472 97.5415 118.004C97.5415 118.527 97.6929 118.944 97.9956 119.257C98.3032 119.569 98.7256 119.726 99.2627 119.726C99.7998 119.726 100.217 119.574 100.515 119.271C100.818 118.969 100.969 118.546 100.969 118.004ZM100.742 113.214C100.742 112.75 100.608 112.37 100.339 112.072C100.071 111.769 99.7095 111.618 99.2554 111.618C98.8013 111.618 98.4424 111.762 98.1787 112.05C97.915 112.333 97.7832 112.721 97.7832 113.214C97.7832 113.703 97.915 114.091 98.1787 114.379C98.4473 114.667 98.8086 114.811 99.2627 114.811C99.7168 114.811 100.076 114.667 100.339 114.379C100.608 114.091 100.742 113.703 100.742 113.214ZM111.274 116.51C111.274 118.043 110.986 119.201 110.41 119.982C109.839 120.758 108.967 121.146 107.795 121.146C106.643 121.146 105.774 120.768 105.188 120.011C104.607 119.25 104.309 118.124 104.294 116.635V114.789C104.294 113.256 104.58 112.106 105.151 111.339C105.728 110.573 106.604 110.189 107.781 110.189C108.948 110.189 109.817 110.563 110.388 111.31C110.964 112.057 111.26 113.175 111.274 114.665V116.51ZM109.495 114.518C109.495 113.517 109.358 112.785 109.084 112.321C108.811 111.852 108.376 111.618 107.781 111.618C107.2 111.618 106.772 111.84 106.499 112.284C106.226 112.724 106.082 113.412 106.067 114.35V116.767C106.067 117.763 106.206 118.505 106.484 118.993C106.763 119.481 107.2 119.726 107.795 119.726C108.367 119.726 108.789 119.501 109.062 119.052C109.336 118.598 109.48 117.89 109.495 116.928V114.518ZM119.902 117.118C119.902 118.344 119.624 119.323 119.067 120.055C118.511 120.783 117.764 121.146 116.826 121.146C115.957 121.146 115.261 120.861 114.739 120.29V124.047H112.959V113.075H114.6L114.673 113.881C115.195 113.246 115.906 112.929 116.804 112.929C117.771 112.929 118.528 113.29 119.075 114.013C119.626 114.73 119.902 115.729 119.902 117.008V117.118ZM118.13 116.964C118.13 116.173 117.971 115.546 117.654 115.082C117.341 114.618 116.892 114.386 116.306 114.386C115.579 114.386 115.056 114.687 114.739 115.287V118.803C115.061 119.418 115.588 119.726 116.321 119.726C116.887 119.726 117.329 119.499 117.646 119.044C117.969 118.585 118.13 117.892 118.13 116.964ZM124.143 115.683L125.652 113.075H127.629L125.205 116.979L127.71 121H125.747L124.165 118.29L122.59 121H120.613L123.118 116.979L120.701 113.075H122.664L124.143 115.683Z" fill="#00986B"/>
<path d="M101.335 189.285V190.757H101.116C100.12 190.771 99.3237 191.045 98.728 191.577C98.1323 192.109 97.7783 192.864 97.666 193.84C98.2373 193.24 98.9673 192.939 99.856 192.939C100.798 192.939 101.541 193.271 102.083 193.936C102.629 194.6 102.903 195.457 102.903 196.506C102.903 197.59 102.583 198.469 101.943 199.143C101.309 199.812 100.474 200.146 99.4385 200.146C98.374 200.146 97.5098 199.753 96.8457 198.967C96.1865 198.181 95.8569 197.151 95.8569 195.876V195.269C95.8569 193.398 96.311 191.934 97.2192 190.874C98.1323 189.814 99.4434 189.285 101.152 189.285H101.335ZM99.4238 194.375C99.0332 194.375 98.6743 194.485 98.3472 194.705C98.0249 194.924 97.7881 195.217 97.6367 195.583V196.125C97.6367 196.917 97.8027 197.546 98.1348 198.015C98.4668 198.479 98.8965 198.711 99.4238 198.711C99.9512 198.711 100.369 198.513 100.676 198.118C100.984 197.722 101.138 197.202 101.138 196.558C101.138 195.913 100.981 195.388 100.669 194.983C100.356 194.578 99.9414 194.375 99.4238 194.375ZM111.274 195.51C111.274 197.043 110.986 198.201 110.41 198.982C109.839 199.758 108.967 200.146 107.795 200.146C106.643 200.146 105.774 199.768 105.188 199.011C104.607 198.25 104.309 197.124 104.294 195.635V193.789C104.294 192.256 104.58 191.106 105.151 190.339C105.728 189.573 106.604 189.189 107.781 189.189C108.948 189.189 109.817 189.563 110.388 190.31C110.964 191.057 111.26 192.175 111.274 193.665V195.51ZM109.495 193.518C109.495 192.517 109.358 191.785 109.084 191.321C108.811 190.852 108.376 190.618 107.781 190.618C107.2 190.618 106.772 190.84 106.499 191.284C106.226 191.724 106.082 192.412 106.067 193.35V195.767C106.067 196.763 106.206 197.505 106.484 197.993C106.763 198.481 107.2 198.726 107.795 198.726C108.367 198.726 108.789 198.501 109.062 198.052C109.336 197.598 109.48 196.89 109.495 195.928V193.518ZM119.902 196.118C119.902 197.344 119.624 198.323 119.067 199.055C118.511 199.783 117.764 200.146 116.826 200.146C115.957 200.146 115.261 199.861 114.739 199.29V203.047H112.959V192.075H114.6L114.673 192.881C115.195 192.246 115.906 191.929 116.804 191.929C117.771 191.929 118.528 192.29 119.075 193.013C119.626 193.73 119.902 194.729 119.902 196.008V196.118ZM118.13 195.964C118.13 195.173 117.971 194.546 117.654 194.082C117.341 193.618 116.892 193.386 116.306 193.386C115.579 193.386 115.056 193.687 114.739 194.287V197.803C115.061 198.418 115.588 198.726 116.321 198.726C116.887 198.726 117.329 198.499 117.646 198.044C117.969 197.585 118.13 196.892 118.13 195.964ZM124.143 194.683L125.652 192.075H127.629L125.205 195.979L127.71 200H125.747L124.165 197.29L122.59 200H120.613L123.118 195.979L120.701 192.075H122.664L124.143 194.683Z" fill="#00986B"/>
<path d="M101.819 255.199H103.145V256.627H101.819V259H100.039V256.627H95.4321L95.3809 255.543L99.9805 248.336H101.819V255.199ZM97.2485 255.199H100.039V250.746L99.9072 250.98L97.2485 255.199ZM111.274 254.51C111.274 256.043 110.986 257.201 110.41 257.982C109.839 258.758 108.967 259.146 107.795 259.146C106.643 259.146 105.774 258.768 105.188 258.011C104.607 257.25 104.309 256.124 104.294 254.635V252.789C104.294 251.256 104.58 250.106 105.151 249.339C105.728 248.573 106.604 248.189 107.781 248.189C108.948 248.189 109.817 248.563 110.388 249.31C110.964 250.057 111.26 251.175 111.274 252.665V254.51ZM109.495 252.518C109.495 251.517 109.358 250.785 109.084 250.321C108.811 249.852 108.376 249.618 107.781 249.618C107.2 249.618 106.772 249.84 106.499 250.284C106.226 250.724 106.082 251.412 106.067 252.35V254.767C106.067 255.763 106.206 256.505 106.484 256.993C106.763 257.481 107.2 257.726 107.795 257.726C108.367 257.726 108.789 257.501 109.062 257.052C109.336 256.598 109.48 255.89 109.495 254.928V252.518ZM119.902 255.118C119.902 256.344 119.624 257.323 119.067 258.055C118.511 258.783 117.764 259.146 116.826 259.146C115.957 259.146 115.261 258.861 114.739 258.29V262.047H112.959V251.075H114.6L114.673 251.881C115.195 251.246 115.906 250.929 116.804 250.929C117.771 250.929 118.528 251.29 119.075 252.013C119.626 252.73 119.902 253.729 119.902 255.008V255.118ZM118.13 254.964C118.13 254.173 117.971 253.546 117.654 253.082C117.341 252.618 116.892 252.386 116.306 252.386C115.579 252.386 115.056 252.687 114.739 253.287V256.803C115.061 257.418 115.588 257.726 116.321 257.726C116.887 257.726 117.329 257.499 117.646 257.044C117.969 256.585 118.13 255.892 118.13 254.964ZM124.143 253.683L125.652 251.075H127.629L125.205 254.979L127.71 259H125.747L124.165 256.29L122.59 259H120.613L123.118 254.979L120.701 251.075H122.664L124.143 253.683Z" fill="#00986B"/>
</svg>
