<svg width="578" height="298" viewBox="0 0 578 298" fill="none" xmlns="http://www.w3.org/2000/svg">
<rect width="578" height="298" fill="#F7F7F7"/>
<path d="M37 291C37 292.105 36.1046 293 35 293L21 293C19.8954 293 19 292.105 19 291L19 281.814C19 281.283 19.2112 280.774 19.587 280.399L26.587 273.411C27.3678 272.631 28.6323 272.631 29.413 273.411L36.413 280.399C36.7888 280.774 37 281.283 37 281.814L37 291Z" fill="#DDDDDD"/>
<path d="M26.1133 285.947H23.0371V284.799H26.1133V285.947ZM32.0137 285.959H33.0742V287.102H32.0137V289H30.5898V287.102H26.9043L26.8633 286.234L30.543 280.469H32.0137V285.959ZM28.3574 285.959H30.5898V282.396L30.4844 282.584L28.3574 285.959Z" fill="white"/>
<path d="M210 291C210 292.105 209.105 293 208 293L194 293C192.895 293 192 292.105 192 291L192 281.814C192 281.283 192.211 280.774 192.587 280.399L199.587 273.411C200.368 272.631 201.632 272.631 202.413 273.411L209.413 280.399C209.789 280.774 210 281.283 210 281.814L210 291Z" fill="#DDDDDD"/>
<path d="M199.113 285.947H196.037V284.799H199.113V285.947ZM201.844 284.084H202.711C203.148 284.08 203.494 283.967 203.748 283.744C204.006 283.521 204.135 283.199 204.135 282.777C204.135 282.371 204.027 282.057 203.812 281.834C203.602 281.607 203.277 281.494 202.84 281.494C202.457 281.494 202.143 281.605 201.896 281.828C201.65 282.047 201.527 282.334 201.527 282.689H200.104C200.104 282.252 200.219 281.854 200.449 281.494C200.684 281.135 201.008 280.855 201.422 280.656C201.84 280.453 202.307 280.352 202.822 280.352C203.674 280.352 204.342 280.566 204.826 280.996C205.314 281.422 205.559 282.016 205.559 282.777C205.559 283.16 205.436 283.521 205.189 283.861C204.947 284.197 204.633 284.451 204.246 284.623C204.715 284.783 205.07 285.035 205.312 285.379C205.559 285.723 205.682 286.133 205.682 286.609C205.682 287.375 205.418 287.984 204.891 288.438C204.367 288.891 203.678 289.117 202.822 289.117C202.002 289.117 201.33 288.898 200.807 288.461C200.283 288.023 200.021 287.441 200.021 286.715H201.445C201.445 287.09 201.57 287.395 201.82 287.629C202.074 287.863 202.414 287.98 202.84 287.98C203.281 287.98 203.629 287.863 203.883 287.629C204.137 287.395 204.264 287.055 204.264 286.609C204.264 286.16 204.131 285.814 203.865 285.572C203.6 285.33 203.205 285.209 202.682 285.209H201.844V284.084Z" fill="white"/>
<path d="M386 291C386 292.105 385.105 293 384 293L370 293C368.895 293 368 292.105 368 291L368 281.814C368 281.283 368.211 280.774 368.587 280.399L375.587 273.411C376.368 272.631 377.632 272.631 378.413 273.411L385.413 280.399C385.789 280.774 386 281.283 386 281.814L386 291Z" fill="#DDDDDD"/>
<path d="M375.113 285.947H372.037V284.799H375.113V285.947ZM381.934 289H376.197V288.021L379.039 284.922C379.449 284.465 379.74 284.084 379.912 283.779C380.088 283.471 380.176 283.162 380.176 282.854C380.176 282.447 380.061 282.119 379.83 281.869C379.604 281.619 379.297 281.494 378.91 281.494C378.449 281.494 378.092 281.635 377.838 281.916C377.584 282.197 377.457 282.582 377.457 283.07H376.033C376.033 282.551 376.15 282.084 376.385 281.67C376.623 281.252 376.961 280.928 377.398 280.697C377.84 280.467 378.348 280.352 378.922 280.352C379.75 280.352 380.402 280.561 380.879 280.979C381.359 281.393 381.6 281.967 381.6 282.701C381.6 283.127 381.479 283.574 381.236 284.043C380.998 284.508 380.605 285.037 380.059 285.631L377.973 287.863H381.934V289Z" fill="white"/>
<path d="M559 291C559 292.105 558.105 293 557 293L543 293C541.895 293 541 292.105 541 291L541 281.814C541 281.283 541.211 280.774 541.587 280.399L548.587 273.411C549.368 272.631 550.632 272.631 551.413 273.411L558.413 280.399C558.789 280.774 559 281.283 559 281.814L559 291Z" fill="#DDDDDD"/>
<path d="M548.113 285.947H545.037V284.799H548.113V285.947ZM553.053 289H551.635V282.15L549.543 282.865V281.664L552.871 280.439H553.053V289Z" fill="white"/>
<path d="M19 7C19 5.89543 19.8954 5 21 5H35C36.1046 5 37 5.89543 37 7V16.1857C37 16.7167 36.7888 17.2259 36.413 17.6011L29.413 24.5894C28.6323 25.3688 27.3677 25.3688 26.587 24.5894L19.587 17.6011C19.2112 17.2259 19 16.7167 19 16.1857V7Z" fill="#CCCCCC"/>
<path d="M29.084 17H27.666V10.1504L25.5742 10.8652V9.66406L28.9023 8.43945H29.084V17Z" fill="white"/>
<path d="M192 7C192 5.89543 192.895 5 194 5H208C209.105 5 210 5.89543 210 7V16.1857C210 16.7167 209.789 17.2259 209.413 17.6011L202.413 24.5894C201.632 25.3688 200.368 25.3688 199.587 24.5894L192.587 17.6011C192.211 17.2259 192 16.7167 192 16.1857V7Z" fill="#CCCCCC"/>
<path d="M203.965 17H198.229V16.0215L201.07 12.9219C201.48 12.4648 201.771 12.084 201.943 11.7793C202.119 11.4707 202.207 11.1621 202.207 10.8535C202.207 10.4473 202.092 10.1191 201.861 9.86914C201.635 9.61914 201.328 9.49414 200.941 9.49414C200.48 9.49414 200.123 9.63477 199.869 9.91602C199.615 10.1973 199.488 10.582 199.488 11.0703H198.064C198.064 10.5508 198.182 10.084 198.416 9.66992C198.654 9.25195 198.992 8.92773 199.43 8.69727C199.871 8.4668 200.379 8.35156 200.953 8.35156C201.781 8.35156 202.434 8.56055 202.91 8.97852C203.391 9.39258 203.631 9.9668 203.631 10.7012C203.631 11.127 203.51 11.5742 203.268 12.043C203.029 12.5078 202.637 13.0371 202.09 13.6309L200.004 15.8633H203.965V17Z" fill="white"/>
<path d="M368 7C368 5.89543 368.895 5 370 5H384C385.105 5 386 5.89543 386 7V16.1857C386 16.7167 385.789 17.2259 385.413 17.6011L378.413 24.5894C377.632 25.3688 376.368 25.3688 375.587 24.5894L368.587 17.6011C368.211 17.2259 368 16.7167 368 16.1857V7Z" fill="#CCCCCC"/>
<path d="M375.875 12.084H376.742C377.18 12.0801 377.525 11.9668 377.779 11.7441C378.037 11.5215 378.166 11.1992 378.166 10.7773C378.166 10.3711 378.059 10.0566 377.844 9.83398C377.633 9.60742 377.309 9.49414 376.871 9.49414C376.488 9.49414 376.174 9.60547 375.928 9.82812C375.682 10.0469 375.559 10.334 375.559 10.6895H374.135C374.135 10.252 374.25 9.85352 374.48 9.49414C374.715 9.13477 375.039 8.85547 375.453 8.65625C375.871 8.45312 376.338 8.35156 376.854 8.35156C377.705 8.35156 378.373 8.56641 378.857 8.99609C379.346 9.42188 379.59 10.0156 379.59 10.7773C379.59 11.1602 379.467 11.5215 379.221 11.8613C378.979 12.1973 378.664 12.4512 378.277 12.623C378.746 12.7832 379.102 13.0352 379.344 13.3789C379.59 13.7227 379.713 14.1328 379.713 14.6094C379.713 15.375 379.449 15.9844 378.922 16.4375C378.398 16.8906 377.709 17.1172 376.854 17.1172C376.033 17.1172 375.361 16.8984 374.838 16.4609C374.314 16.0234 374.053 15.4414 374.053 14.7148H375.477C375.477 15.0898 375.602 15.3945 375.852 15.6289C376.105 15.8633 376.445 15.9805 376.871 15.9805C377.312 15.9805 377.66 15.8633 377.914 15.6289C378.168 15.3945 378.295 15.0547 378.295 14.6094C378.295 14.1602 378.162 13.8145 377.896 13.5723C377.631 13.3301 377.236 13.209 376.713 13.209H375.875V12.084Z" fill="white"/>
<path d="M541 7C541 5.89543 541.895 5 543 5H557C558.105 5 559 5.89543 559 7V16.1857C559 16.7167 558.789 17.2259 558.413 17.6011L551.413 24.5894C550.632 25.3688 549.368 25.3688 548.587 24.5894L541.587 17.6011C541.211 17.2259 541 16.7167 541 16.1857V7Z" fill="#CCCCCC"/>
<path d="M552.045 13.959H553.105V15.1016H552.045V17H550.621V15.1016H546.936L546.895 14.2344L550.574 8.46875H552.045V13.959ZM548.389 13.959H550.621V10.3965L550.516 10.584L548.389 13.959Z" fill="white"/>
<path d="M7 37C5.89543 37 5 36.1046 5 35L5 21C5 19.8954 5.89543 19 7 19L16.1857 19C16.7167 19 17.2259 19.2112 17.6011 19.587L24.5894 26.587C25.3688 27.3677 25.3688 28.6323 24.5894 29.413L17.6011 36.413C17.2259 36.7888 16.7167 37 16.1857 37L7 37Z" fill="#CCCCCC"/>
<path d="M14.084 32H12.666V25.1504L10.5742 25.8652V24.6641L13.9023 23.4395H14.084V32Z" fill="white"/>
<path d="M7 96C5.89543 96 5 95.1046 5 94L5 80C5 78.8954 5.89543 78 7 78L16.1857 78C16.7167 78 17.2259 78.2112 17.6011 78.587L24.5894 85.587C25.3688 86.3677 25.3688 87.6323 24.5894 88.413L17.6011 95.413C17.2259 95.7888 16.7167 96 16.1857 96L7 96Z" fill="#CCCCCC"/>
<path d="M15.9648 91H10.2285V90.0215L13.0703 86.9219C13.4805 86.4648 13.7715 86.084 13.9434 85.7793C14.1191 85.4707 14.207 85.1621 14.207 84.8535C14.207 84.4473 14.0918 84.1191 13.8613 83.8691C13.6348 83.6191 13.3281 83.4941 12.9414 83.4941C12.4805 83.4941 12.123 83.6348 11.8691 83.916C11.6152 84.1973 11.4883 84.582 11.4883 85.0703H10.0645C10.0645 84.5508 10.1816 84.084 10.416 83.6699C10.6543 83.252 10.9922 82.9277 11.4297 82.6973C11.8711 82.4668 12.3789 82.3516 12.9531 82.3516C13.7812 82.3516 14.4336 82.5605 14.9102 82.9785C15.3906 83.3926 15.6309 83.9668 15.6309 84.7012C15.6309 85.127 15.5098 85.5742 15.2676 86.043C15.0293 86.5078 14.6367 87.0371 14.0898 87.6309L12.0039 89.8633H15.9648V91Z" fill="white"/>
<path d="M7 158C5.89543 158 5 157.105 5 156L5 142C5 140.895 5.89543 140 7 140L16.1857 140C16.7167 140 17.2259 140.211 17.6011 140.587L24.5894 147.587C25.3688 148.368 25.3688 149.632 24.5894 150.413L17.6011 157.413C17.2259 157.789 16.7167 158 16.1857 158L7 158Z" fill="#CCCCCC"/>
<path d="M11.875 148.084H12.7422C13.1797 148.08 13.5254 147.967 13.7793 147.744C14.0371 147.521 14.166 147.199 14.166 146.777C14.166 146.371 14.0586 146.057 13.8438 145.834C13.6328 145.607 13.3086 145.494 12.8711 145.494C12.4883 145.494 12.1738 145.605 11.9277 145.828C11.6816 146.047 11.5586 146.334 11.5586 146.689H10.1348C10.1348 146.252 10.25 145.854 10.4805 145.494C10.7148 145.135 11.0391 144.855 11.4531 144.656C11.8711 144.453 12.3379 144.352 12.8535 144.352C13.7051 144.352 14.373 144.566 14.8574 144.996C15.3457 145.422 15.5898 146.016 15.5898 146.777C15.5898 147.16 15.4668 147.521 15.2207 147.861C14.9785 148.197 14.6641 148.451 14.2773 148.623C14.7461 148.783 15.1016 149.035 15.3438 149.379C15.5898 149.723 15.7129 150.133 15.7129 150.609C15.7129 151.375 15.4492 151.984 14.9219 152.438C14.3984 152.891 13.709 153.117 12.8535 153.117C12.0332 153.117 11.3613 152.898 10.8379 152.461C10.3145 152.023 10.0527 151.441 10.0527 150.715H11.4766C11.4766 151.09 11.6016 151.395 11.8516 151.629C12.1055 151.863 12.4453 151.98 12.8711 151.98C13.3125 151.98 13.6602 151.863 13.9141 151.629C14.168 151.395 14.2949 151.055 14.2949 150.609C14.2949 150.16 14.1621 149.814 13.8965 149.572C13.6309 149.33 13.2363 149.209 12.7129 149.209H11.875V148.084Z" fill="white"/>
<path d="M7 220C5.89543 220 5 219.105 5 218L5 204C5 202.895 5.89543 202 7 202L16.1857 202C16.7167 202 17.2259 202.211 17.6011 202.587L24.5894 209.587C25.3688 210.368 25.3688 211.632 24.5894 212.413L17.6011 219.413C17.2259 219.789 16.7167 220 16.1857 220L7 220Z" fill="#CCCCCC"/>
<path d="M15.0449 211.959H16.1055V213.102H15.0449V215H13.6211V213.102H9.93555L9.89453 212.234L13.5742 206.469H15.0449V211.959ZM11.3887 211.959H13.6211V208.396L13.5156 208.584L11.3887 211.959Z" fill="white"/>
<path d="M7 279C5.89543 279 5 278.105 5 277L5 263C5 261.895 5.89543 261 7 261L16.1857 261C16.7167 261 17.2259 261.211 17.6011 261.587L24.5894 268.587C25.3688 269.368 25.3688 270.632 24.5894 271.413L17.6011 278.413C17.2259 278.789 16.7167 279 16.1857 279L7 279Z" fill="#CCCCCC"/>
<path d="M10.6094 269.77L11.0723 265.469H15.6543V266.699H12.2559L12.0215 268.738C12.416 268.512 12.8613 268.398 13.3574 268.398C14.1699 268.398 14.8008 268.658 15.25 269.178C15.7031 269.697 15.9297 270.396 15.9297 271.275C15.9297 272.143 15.6797 272.834 15.1797 273.35C14.6797 273.861 13.9941 274.117 13.123 274.117C12.3418 274.117 11.6934 273.896 11.1777 273.455C10.666 273.01 10.3887 272.424 10.3457 271.697H11.7227C11.7773 272.111 11.9258 272.43 12.168 272.652C12.4102 272.871 12.7266 272.98 13.1172 272.98C13.5547 272.98 13.8945 272.824 14.1367 272.512C14.3828 272.199 14.5059 271.773 14.5059 271.234C14.5059 270.715 14.3711 270.305 14.1016 270.004C13.832 269.699 13.4609 269.547 12.9883 269.547C12.7305 269.547 12.5117 269.582 12.332 269.652C12.1523 269.719 11.957 269.852 11.7461 270.051L10.6094 269.77Z" fill="white"/>
<path d="M571 19C572.105 19 573 19.8954 573 21L573 35C573 36.1046 572.105 37 571 37L561.814 37C561.283 37 560.774 36.7888 560.399 36.413L553.411 29.413C552.631 28.6322 552.631 27.3677 553.411 26.587L560.399 19.587C560.774 19.2112 561.283 19 561.814 19L571 19Z" fill="#DDDDDD"/>
<path d="M563.113 28.9473H560.037V27.7988H563.113V28.9473ZM564.578 27.7695L565.041 23.4688H569.623V24.6992H566.225L565.99 26.7383C566.385 26.5117 566.83 26.3984 567.326 26.3984C568.139 26.3984 568.77 26.6582 569.219 27.1777C569.672 27.6973 569.898 28.3965 569.898 29.2754C569.898 30.1426 569.648 30.834 569.148 31.3496C568.648 31.8613 567.963 32.1172 567.092 32.1172C566.311 32.1172 565.662 31.8965 565.146 31.4551C564.635 31.0098 564.357 30.4238 564.314 29.6973H565.691C565.746 30.1113 565.895 30.4297 566.137 30.6523C566.379 30.8711 566.695 30.9805 567.086 30.9805C567.523 30.9805 567.863 30.8242 568.105 30.5117C568.352 30.1992 568.475 29.7734 568.475 29.2344C568.475 28.7148 568.34 28.3047 568.07 28.0039C567.801 27.6992 567.43 27.5469 566.957 27.5469C566.699 27.5469 566.48 27.582 566.301 27.6523C566.121 27.7188 565.926 27.8516 565.715 28.0508L564.578 27.7695Z" fill="white"/>
<path d="M571 78C572.105 78 573 78.8954 573 80L573 94C573 95.1046 572.105 96 571 96L561.814 96C561.283 96 560.774 95.7888 560.399 95.413L553.411 88.413C552.631 87.6322 552.631 86.3677 553.411 85.587L560.399 78.587C560.774 78.2112 561.283 78 561.814 78L571 78Z" fill="#DDDDDD"/>
<path d="M563.113 87.9473H560.037V86.7988H563.113V87.9473ZM569.014 87.959H570.074V89.1016H569.014V91H567.59V89.1016H563.904L563.863 88.2344L567.543 82.4688H569.014V87.959ZM565.357 87.959H567.59V84.3965L567.484 84.584L565.357 87.959Z" fill="white"/>
<path d="M571 140C572.105 140 573 140.895 573 142L573 156C573 157.105 572.105 158 571 158L561.814 158C561.283 158 560.774 157.789 560.399 157.413L553.411 150.413C552.631 149.632 552.631 148.368 553.411 147.587L560.399 140.587C560.774 140.211 561.283 140 561.814 140L571 140Z" fill="#DDDDDD"/>
<path d="M563.113 149.947H560.037V148.799H563.113V149.947ZM565.844 148.084H566.711C567.148 148.08 567.494 147.967 567.748 147.744C568.006 147.521 568.135 147.199 568.135 146.777C568.135 146.371 568.027 146.057 567.812 145.834C567.602 145.607 567.277 145.494 566.84 145.494C566.457 145.494 566.143 145.605 565.896 145.828C565.65 146.047 565.527 146.334 565.527 146.689H564.104C564.104 146.252 564.219 145.854 564.449 145.494C564.684 145.135 565.008 144.855 565.422 144.656C565.84 144.453 566.307 144.352 566.822 144.352C567.674 144.352 568.342 144.566 568.826 144.996C569.314 145.422 569.559 146.016 569.559 146.777C569.559 147.16 569.436 147.521 569.189 147.861C568.947 148.197 568.633 148.451 568.246 148.623C568.715 148.783 569.07 149.035 569.312 149.379C569.559 149.723 569.682 150.133 569.682 150.609C569.682 151.375 569.418 151.984 568.891 152.438C568.367 152.891 567.678 153.117 566.822 153.117C566.002 153.117 565.33 152.898 564.807 152.461C564.283 152.023 564.021 151.441 564.021 150.715H565.445C565.445 151.09 565.57 151.395 565.82 151.629C566.074 151.863 566.414 151.98 566.84 151.98C567.281 151.98 567.629 151.863 567.883 151.629C568.137 151.395 568.264 151.055 568.264 150.609C568.264 150.16 568.131 149.814 567.865 149.572C567.6 149.33 567.205 149.209 566.682 149.209H565.844V148.084Z" fill="white"/>
<path d="M571 202C572.105 202 573 202.895 573 204L573 218C573 219.105 572.105 220 571 220L561.814 220C561.283 220 560.774 219.789 560.399 219.413L553.411 212.413C552.631 211.632 552.631 210.368 553.411 209.587L560.399 202.587C560.774 202.211 561.283 202 561.814 202L571 202Z" fill="#DDDDDD"/>
<path d="M563.113 211.947H560.037V210.799H563.113V211.947ZM569.934 215H564.197V214.021L567.039 210.922C567.449 210.465 567.74 210.084 567.912 209.779C568.088 209.471 568.176 209.162 568.176 208.854C568.176 208.447 568.061 208.119 567.83 207.869C567.604 207.619 567.297 207.494 566.91 207.494C566.449 207.494 566.092 207.635 565.838 207.916C565.584 208.197 565.457 208.582 565.457 209.07H564.033C564.033 208.551 564.15 208.084 564.385 207.67C564.623 207.252 564.961 206.928 565.398 206.697C565.84 206.467 566.348 206.352 566.922 206.352C567.75 206.352 568.402 206.561 568.879 206.979C569.359 207.393 569.6 207.967 569.6 208.701C569.6 209.127 569.479 209.574 569.236 210.043C568.998 210.508 568.605 211.037 568.059 211.631L565.973 213.863H569.934V215Z" fill="white"/>
<path d="M571 261C572.105 261 573 261.895 573 263L573 277C573 278.105 572.105 279 571 279L561.814 279C561.283 279 560.774 278.789 560.399 278.413L553.411 271.413C552.631 270.632 552.631 269.368 553.411 268.587L560.399 261.587C560.774 261.211 561.283 261 561.814 261L571 261Z" fill="#DDDDDD"/>
<path d="M563.113 270.947H560.037V269.799H563.113V270.947ZM568.053 274H566.635V267.15L564.543 267.865V266.664L567.871 265.439H568.053V274Z" fill="white"/>
<rect x="28" y="28" width="522" height="242" fill="white"/>
<path d="M197.5 29L197.5 269" stroke="#BBBBBB" stroke-dasharray="3 2"/>
<path d="M204.5 29L204.5 269" stroke="#BBBBBB" stroke-dasharray="3 2"/>
<path d="M373.5 29L373.5 269" stroke="#BBBBBB" stroke-dasharray="3 2"/>
<path d="M380.5 29L380.5 269" stroke="#BBBBBB" stroke-dasharray="3 2"/>
<path d="M29 90.5L549 90.5" stroke="#BBBBBB" stroke-dasharray="3 2"/>
<path d="M29 83.5L549 83.5" stroke="#BBBBBB" stroke-dasharray="3 2"/>
<path d="M29 152.5L549 152.5" stroke="#BBBBBB" stroke-dasharray="3 2"/>
<path d="M29 145.5L549 145.5" stroke="#BBBBBB" stroke-dasharray="3 2"/>
<path d="M29 214.5L549 214.5" stroke="#BBBBBB" stroke-dasharray="3 2"/>
<path d="M29 207.5L549 207.5" stroke="#BBBBBB" stroke-dasharray="3 2"/>
<g opacity="0.75">
<path d="M31 36C31 33.2386 33.2386 31 36 31H190C192.761 31 195 33.2386 195 36V138C195 140.761 192.761 143 190 143H36C33.2386 143 31 140.761 31 138V36Z" fill="#1E73FF"/>
<path d="M96.0039 91.0933H94.2241V83.1685H96.0039V91.0933ZM94.1143 81.1104C94.1143 80.8369 94.1997 80.6099 94.3706 80.4292C94.5464 80.2485 94.7954 80.1582 95.1177 80.1582C95.4399 80.1582 95.689 80.2485 95.8647 80.4292C96.0405 80.6099 96.1284 80.8369 96.1284 81.1104C96.1284 81.3789 96.0405 81.6035 95.8647 81.7842C95.689 81.96 95.4399 82.0479 95.1177 82.0479C94.7954 82.0479 94.5464 81.96 94.3706 81.7842C94.1997 81.6035 94.1143 81.3789 94.1143 81.1104ZM100.179 81.2422V83.1685H101.578V84.4868H100.179V88.9106C100.179 89.2134 100.237 89.4331 100.354 89.5698C100.477 89.7017 100.691 89.7676 100.999 89.7676C101.204 89.7676 101.412 89.7432 101.622 89.6943V91.0713C101.216 91.1836 100.826 91.2397 100.45 91.2397C99.0825 91.2397 98.3989 90.4854 98.3989 88.9766V84.4868H97.0952V83.1685H98.3989V81.2422H100.179ZM106.434 91.2397C105.306 91.2397 104.39 90.8857 103.687 90.1777C102.989 89.4648 102.64 88.5176 102.64 87.3359V87.1162C102.64 86.3252 102.791 85.6196 103.094 84.9995C103.401 84.3745 103.831 83.8887 104.383 83.542C104.935 83.1953 105.55 83.022 106.229 83.022C107.308 83.022 108.14 83.3662 108.726 84.0547C109.317 84.7432 109.612 85.7173 109.612 86.9771V87.6948H104.434C104.488 88.3491 104.705 88.8667 105.086 89.2476C105.472 89.6284 105.955 89.8188 106.536 89.8188C107.352 89.8188 108.016 89.4893 108.528 88.8301L109.488 89.7456C109.17 90.2192 108.746 90.5879 108.213 90.8516C107.686 91.1104 107.093 91.2397 106.434 91.2397ZM106.221 84.4502C105.733 84.4502 105.337 84.6211 105.035 84.9629C104.737 85.3047 104.546 85.7808 104.463 86.3911H107.854V86.2593C107.815 85.6636 107.657 85.2144 107.378 84.9116C107.1 84.604 106.714 84.4502 106.221 84.4502ZM112.674 83.1685L112.725 83.9961C113.282 83.3467 114.043 83.022 115.01 83.022C116.07 83.022 116.795 83.4272 117.186 84.2378C117.762 83.4272 118.572 83.022 119.617 83.022C120.491 83.022 121.141 83.2637 121.565 83.7471C121.995 84.2305 122.215 84.9434 122.225 85.8857V91.0933H120.445V85.937C120.445 85.4341 120.335 85.0654 120.115 84.8311C119.896 84.5967 119.532 84.4795 119.024 84.4795C118.619 84.4795 118.287 84.5894 118.028 84.8091C117.774 85.0239 117.596 85.3071 117.493 85.6587L117.5 91.0933H115.721V85.8784C115.696 84.9458 115.22 84.4795 114.292 84.4795C113.58 84.4795 113.074 84.77 112.776 85.3511V91.0933H110.997V83.1685H112.674ZM132.493 91.0933H130.721V82.5312L128.106 83.4248V81.9233L132.266 80.3926H132.493V91.0933Z" fill="white"/>
</g>
<g opacity="0.75">
<path d="M31 160C31 157.239 33.2386 155 36 155H366C368.761 155 371 157.239 371 160V200C371 202.761 368.761 205 366 205H36C33.2386 205 31 202.761 31 200V160Z" fill="#1E73FF"/>
<path d="M185.204 184.667H183.424V176.742H185.204V184.667ZM183.314 174.684C183.314 174.41 183.4 174.183 183.571 174.003C183.747 173.822 183.996 173.732 184.318 173.732C184.64 173.732 184.889 173.822 185.065 174.003C185.241 174.183 185.329 174.41 185.329 174.684C185.329 174.952 185.241 175.177 185.065 175.358C184.889 175.533 184.64 175.621 184.318 175.621C183.996 175.621 183.747 175.533 183.571 175.358C183.4 175.177 183.314 174.952 183.314 174.684ZM189.379 174.816V176.742H190.778V178.06H189.379V182.484C189.379 182.787 189.438 183.007 189.555 183.143C189.677 183.275 189.892 183.341 190.199 183.341C190.404 183.341 190.612 183.317 190.822 183.268V184.645C190.417 184.757 190.026 184.813 189.65 184.813C188.283 184.813 187.599 184.059 187.599 182.55V178.06H186.295V176.742H187.599V174.816H189.379ZM195.634 184.813C194.506 184.813 193.59 184.459 192.887 183.751C192.189 183.038 191.84 182.091 191.84 180.909V180.69C191.84 179.899 191.991 179.193 192.294 178.573C192.602 177.948 193.031 177.462 193.583 177.115C194.135 176.769 194.75 176.595 195.429 176.595C196.508 176.595 197.34 176.94 197.926 177.628C198.517 178.317 198.812 179.291 198.812 180.551V181.268H193.634C193.688 181.923 193.905 182.44 194.286 182.821C194.672 183.202 195.155 183.392 195.736 183.392C196.552 183.392 197.216 183.063 197.729 182.404L198.688 183.319C198.371 183.793 197.946 184.161 197.414 184.425C196.886 184.684 196.293 184.813 195.634 184.813ZM195.421 178.024C194.933 178.024 194.538 178.195 194.235 178.536C193.937 178.878 193.747 179.354 193.664 179.965H197.055V179.833C197.016 179.237 196.857 178.788 196.579 178.485C196.3 178.177 195.915 178.024 195.421 178.024ZM201.874 176.742L201.925 177.57C202.482 176.92 203.244 176.595 204.21 176.595C205.27 176.595 205.995 177.001 206.386 177.811C206.962 177.001 207.772 176.595 208.817 176.595C209.691 176.595 210.341 176.837 210.766 177.321C211.195 177.804 211.415 178.517 211.425 179.459V184.667H209.645V179.51C209.645 179.008 209.535 178.639 209.315 178.405C209.096 178.17 208.732 178.053 208.224 178.053C207.819 178.053 207.487 178.163 207.228 178.383C206.974 178.597 206.796 178.881 206.693 179.232L206.701 184.667H204.921V179.452C204.896 178.519 204.42 178.053 203.493 178.053C202.78 178.053 202.274 178.344 201.977 178.925V184.667H200.197V176.742H201.874ZM224.044 184.667H216.874V183.444L220.426 179.569C220.939 178.998 221.303 178.522 221.518 178.141C221.737 177.755 221.847 177.369 221.847 176.984C221.847 176.476 221.703 176.066 221.415 175.753C221.132 175.441 220.749 175.284 220.265 175.284C219.689 175.284 219.242 175.46 218.925 175.812C218.607 176.163 218.449 176.644 218.449 177.255H216.669C216.669 176.605 216.815 176.022 217.108 175.504C217.406 174.982 217.829 174.576 218.375 174.288C218.927 174 219.562 173.856 220.28 173.856C221.315 173.856 222.13 174.117 222.726 174.64C223.327 175.157 223.627 175.875 223.627 176.793C223.627 177.325 223.476 177.885 223.173 178.47C222.875 179.052 222.384 179.713 221.701 180.455L219.093 183.246H224.044V184.667Z" fill="white"/>
</g>
<g opacity="0.75">
<path d="M383 160C383 157.239 385.239 155 388 155H542C544.761 155 547 157.239 547 160V200C547 202.761 544.761 205 542 205H388C385.239 205 383 202.761 383 200V160Z" fill="#1E73FF"/>
<path d="M448.004 184.667H446.224V176.742H448.004V184.667ZM446.114 174.684C446.114 174.41 446.2 174.183 446.371 174.003C446.546 173.822 446.795 173.732 447.118 173.732C447.44 173.732 447.689 173.822 447.865 174.003C448.041 174.183 448.128 174.41 448.128 174.684C448.128 174.952 448.041 175.177 447.865 175.358C447.689 175.533 447.44 175.621 447.118 175.621C446.795 175.621 446.546 175.533 446.371 175.358C446.2 175.177 446.114 174.952 446.114 174.684ZM452.179 174.816V176.742H453.578V178.06H452.179V182.484C452.179 182.787 452.237 183.007 452.354 183.143C452.477 183.275 452.691 183.341 452.999 183.341C453.204 183.341 453.412 183.317 453.622 183.268V184.645C453.216 184.757 452.826 184.813 452.45 184.813C451.083 184.813 450.399 184.059 450.399 182.55V178.06H449.095V176.742H450.399V174.816H452.179ZM458.434 184.813C457.306 184.813 456.39 184.459 455.687 183.751C454.989 183.038 454.64 182.091 454.64 180.909V180.69C454.64 179.899 454.791 179.193 455.094 178.573C455.401 177.948 455.831 177.462 456.383 177.115C456.935 176.769 457.55 176.595 458.229 176.595C459.308 176.595 460.14 176.94 460.726 177.628C461.317 178.317 461.612 179.291 461.612 180.551V181.268H456.434C456.488 181.923 456.705 182.44 457.086 182.821C457.472 183.202 457.955 183.392 458.536 183.392C459.352 183.392 460.016 183.063 460.528 182.404L461.488 183.319C461.17 183.793 460.746 184.161 460.213 184.425C459.686 184.684 459.093 184.813 458.434 184.813ZM458.221 178.024C457.733 178.024 457.337 178.195 457.035 178.536C456.737 178.878 456.546 179.354 456.463 179.965H459.854V179.833C459.815 179.237 459.657 178.788 459.378 178.485C459.1 178.177 458.714 178.024 458.221 178.024ZM464.674 176.742L464.725 177.57C465.282 176.92 466.043 176.595 467.01 176.595C468.07 176.595 468.795 177.001 469.186 177.811C469.762 177.001 470.572 176.595 471.617 176.595C472.491 176.595 473.141 176.837 473.565 177.321C473.995 177.804 474.215 178.517 474.225 179.459V184.667H472.445V179.51C472.445 179.008 472.335 178.639 472.115 178.405C471.896 178.17 471.532 178.053 471.024 178.053C470.619 178.053 470.287 178.163 470.028 178.383C469.774 178.597 469.596 178.881 469.493 179.232L469.5 184.667H467.721V179.452C467.696 178.519 467.22 178.053 466.292 178.053C465.58 178.053 465.074 178.344 464.776 178.925V184.667H462.997V176.742H464.674ZM481.732 178.522H482.816C483.363 178.517 483.795 178.375 484.112 178.097C484.435 177.819 484.596 177.416 484.596 176.888C484.596 176.381 484.461 175.988 484.193 175.709C483.929 175.426 483.524 175.284 482.977 175.284C482.499 175.284 482.105 175.424 481.798 175.702C481.49 175.975 481.336 176.334 481.336 176.779H479.557C479.557 176.232 479.701 175.734 479.989 175.284C480.282 174.835 480.687 174.486 481.205 174.237C481.727 173.983 482.311 173.856 482.955 173.856C484.02 173.856 484.854 174.125 485.46 174.662C486.07 175.194 486.375 175.936 486.375 176.888C486.375 177.367 486.222 177.819 485.914 178.243C485.611 178.663 485.218 178.981 484.735 179.196C485.321 179.396 485.765 179.711 486.068 180.14C486.375 180.57 486.529 181.083 486.529 181.678C486.529 182.635 486.2 183.397 485.541 183.964C484.886 184.53 484.024 184.813 482.955 184.813C481.93 184.813 481.09 184.54 480.436 183.993C479.781 183.446 479.454 182.719 479.454 181.81H481.234C481.234 182.279 481.39 182.66 481.703 182.953C482.02 183.246 482.445 183.392 482.977 183.392C483.529 183.392 483.963 183.246 484.281 182.953C484.598 182.66 484.757 182.235 484.757 181.678C484.757 181.117 484.591 180.685 484.259 180.382C483.927 180.079 483.434 179.928 482.779 179.928H481.732V178.522Z" fill="white"/>
</g>
<g opacity="0.75">
<path d="M31 222C31 219.239 33.2386 217 36 217H190C192.761 217 195 219.239 195 222V262C195 264.761 192.761 267 190 267H36C33.2386 267 31 264.761 31 262V222Z" fill="#1E73FF"/>
<path d="M96.0039 246.667H94.2241V238.742H96.0039V246.667ZM94.1143 236.684C94.1143 236.41 94.1997 236.183 94.3706 236.003C94.5464 235.822 94.7954 235.732 95.1177 235.732C95.4399 235.732 95.689 235.822 95.8647 236.003C96.0405 236.183 96.1284 236.41 96.1284 236.684C96.1284 236.952 96.0405 237.177 95.8647 237.358C95.689 237.533 95.4399 237.621 95.1177 237.621C94.7954 237.621 94.5464 237.533 94.3706 237.358C94.1997 237.177 94.1143 236.952 94.1143 236.684ZM100.179 236.816V238.742H101.578V240.06H100.179V244.484C100.179 244.787 100.237 245.007 100.354 245.143C100.477 245.275 100.691 245.341 100.999 245.341C101.204 245.341 101.412 245.317 101.622 245.268V246.645C101.216 246.757 100.826 246.813 100.45 246.813C99.0825 246.813 98.3989 246.059 98.3989 244.55V240.06H97.0952V238.742H98.3989V236.816H100.179ZM106.434 246.813C105.306 246.813 104.39 246.459 103.687 245.751C102.989 245.038 102.64 244.091 102.64 242.909V242.69C102.64 241.899 102.791 241.193 103.094 240.573C103.401 239.948 103.831 239.462 104.383 239.115C104.935 238.769 105.55 238.595 106.229 238.595C107.308 238.595 108.14 238.94 108.726 239.628C109.317 240.317 109.612 241.291 109.612 242.551V243.268H104.434C104.488 243.923 104.705 244.44 105.086 244.821C105.472 245.202 105.955 245.392 106.536 245.392C107.352 245.392 108.016 245.063 108.528 244.404L109.488 245.319C109.17 245.793 108.746 246.161 108.213 246.425C107.686 246.684 107.093 246.813 106.434 246.813ZM106.221 240.024C105.733 240.024 105.337 240.195 105.035 240.536C104.737 240.878 104.546 241.354 104.463 241.965H107.854V241.833C107.815 241.237 107.657 240.788 107.378 240.485C107.1 240.177 106.714 240.024 106.221 240.024ZM112.674 238.742L112.725 239.57C113.282 238.92 114.043 238.595 115.01 238.595C116.07 238.595 116.795 239.001 117.186 239.811C117.762 239.001 118.572 238.595 119.617 238.595C120.491 238.595 121.141 238.837 121.565 239.321C121.995 239.804 122.215 240.517 122.225 241.459V246.667H120.445V241.51C120.445 241.008 120.335 240.639 120.115 240.405C119.896 240.17 119.532 240.053 119.024 240.053C118.619 240.053 118.287 240.163 118.028 240.383C117.774 240.597 117.596 240.881 117.493 241.232L117.5 246.667H115.721V241.452C115.696 240.519 115.22 240.053 114.292 240.053C113.58 240.053 113.074 240.344 112.776 240.925V246.667H110.997V238.742H112.674ZM133.694 242.865H135.02V244.294H133.694V246.667H131.915V244.294H127.308L127.256 243.21L131.856 236.003H133.694V242.865ZM129.124 242.865H131.915V238.412L131.783 238.647L129.124 242.865Z" fill="white"/>
</g>
<g opacity="0.75">
<path d="M383 222C383 219.239 385.239 217 388 217H542C544.761 217 547 219.239 547 222V262C547 264.761 544.761 267 542 267H388C385.239 267 383 264.761 383 262V222Z" fill="#1E73FF"/>
<path d="M448.004 246.667H446.224V238.742H448.004V246.667ZM446.114 236.684C446.114 236.41 446.2 236.183 446.371 236.003C446.546 235.822 446.795 235.732 447.118 235.732C447.44 235.732 447.689 235.822 447.865 236.003C448.041 236.183 448.128 236.41 448.128 236.684C448.128 236.952 448.041 237.177 447.865 237.358C447.689 237.533 447.44 237.621 447.118 237.621C446.795 237.621 446.546 237.533 446.371 237.358C446.2 237.177 446.114 236.952 446.114 236.684ZM452.179 236.816V238.742H453.578V240.06H452.179V244.484C452.179 244.787 452.237 245.007 452.354 245.143C452.477 245.275 452.691 245.341 452.999 245.341C453.204 245.341 453.412 245.317 453.622 245.268V246.645C453.216 246.757 452.826 246.813 452.45 246.813C451.083 246.813 450.399 246.059 450.399 244.55V240.06H449.095V238.742H450.399V236.816H452.179ZM458.434 246.813C457.306 246.813 456.39 246.459 455.687 245.751C454.989 245.038 454.64 244.091 454.64 242.909V242.69C454.64 241.899 454.791 241.193 455.094 240.573C455.401 239.948 455.831 239.462 456.383 239.115C456.935 238.769 457.55 238.595 458.229 238.595C459.308 238.595 460.14 238.94 460.726 239.628C461.317 240.317 461.612 241.291 461.612 242.551V243.268H456.434C456.488 243.923 456.705 244.44 457.086 244.821C457.472 245.202 457.955 245.392 458.536 245.392C459.352 245.392 460.016 245.063 460.528 244.404L461.488 245.319C461.17 245.793 460.746 246.161 460.213 246.425C459.686 246.684 459.093 246.813 458.434 246.813ZM458.221 240.024C457.733 240.024 457.337 240.195 457.035 240.536C456.737 240.878 456.546 241.354 456.463 241.965H459.854V241.833C459.815 241.237 459.657 240.788 459.378 240.485C459.1 240.177 458.714 240.024 458.221 240.024ZM464.674 238.742L464.725 239.57C465.282 238.92 466.043 238.595 467.01 238.595C468.07 238.595 468.795 239.001 469.186 239.811C469.762 239.001 470.572 238.595 471.617 238.595C472.491 238.595 473.141 238.837 473.565 239.321C473.995 239.804 474.215 240.517 474.225 241.459V246.667H472.445V241.51C472.445 241.008 472.335 240.639 472.115 240.405C471.896 240.17 471.532 240.053 471.024 240.053C470.619 240.053 470.287 240.163 470.028 240.383C469.774 240.597 469.596 240.881 469.493 241.232L469.5 246.667H467.721V241.452C467.696 240.519 467.22 240.053 466.292 240.053C465.58 240.053 465.074 240.344 464.776 240.925V246.667H462.997V238.742H464.674ZM480.15 241.379L480.729 236.003H486.456V237.541H482.208L481.915 240.09C482.408 239.806 482.965 239.665 483.585 239.665C484.601 239.665 485.389 239.99 485.951 240.639C486.517 241.288 486.8 242.162 486.8 243.261C486.8 244.345 486.488 245.209 485.863 245.854C485.238 246.493 484.381 246.813 483.292 246.813C482.315 246.813 481.505 246.537 480.86 245.986C480.221 245.429 479.874 244.697 479.82 243.788H481.542C481.61 244.306 481.795 244.704 482.098 244.982C482.401 245.256 482.796 245.392 483.285 245.392C483.832 245.392 484.256 245.197 484.559 244.806C484.867 244.416 485.021 243.884 485.021 243.21C485.021 242.56 484.852 242.048 484.515 241.672C484.178 241.291 483.714 241.1 483.124 241.1C482.801 241.1 482.528 241.144 482.303 241.232C482.079 241.315 481.834 241.481 481.571 241.73L480.15 241.379Z" fill="white"/>
</g>
<rect x="28" y="28" width="522" height="242" stroke="#AAAAAA" stroke-width="2"/>
</svg>
