<svg width="651" height="284" viewBox="0 0 651 284" fill="none" xmlns="http://www.w3.org/2000/svg">
<rect y="40" width="651" height="244" fill="#DDDDDD"/>
<rect x="20" y="60" width="196" height="204" rx="5" fill="white"/>
<rect x="526" y="60" width="100" height="204" rx="5" fill="white"/>
<rect x="221" y="60" width="300" height="204" rx="5" fill="white"/>
<path d="M32.506 73.004H31.358V80.774H32.156C33.514 80.774 34.956 80.704 36.65 80.382L36.538 79.388C35.04 79.682 33.71 79.766 32.506 79.78V73.004ZM40.29 71.478V76.588H38.512V71.758H37.434V83.392H38.512V77.54H40.29V84.022H41.396V71.478H40.29ZM48.2909 83.14C46.3169 83.14 45.1549 82.65 45.1549 81.796C45.1549 80.942 46.3169 80.452 48.2909 80.452C50.2509 80.452 51.4269 80.942 51.4269 81.796C51.4269 82.65 50.2509 83.14 48.2909 83.14ZM48.2909 79.556C45.6029 79.556 43.9929 80.354 43.9929 81.796C43.9929 83.238 45.6029 84.022 48.2909 84.022C50.9929 84.022 52.5889 83.238 52.5889 81.796C52.5889 80.354 50.9929 79.556 48.2909 79.556ZM46.5549 76.224C47.0729 76.308 47.6609 76.364 48.2909 76.364C48.9349 76.364 49.5229 76.308 50.0409 76.224V77.694H46.5549V76.224ZM45.0569 74.04C45.0569 73.13 46.2889 72.598 48.2909 72.598C50.2929 72.598 51.5249 73.13 51.5249 74.04C51.5249 74.936 50.2929 75.482 48.2909 75.482C46.2889 75.482 45.0569 74.936 45.0569 74.04ZM51.1749 77.694V75.916C52.1409 75.524 52.7009 74.88 52.7009 74.04C52.7009 72.57 51.0209 71.702 48.2909 71.702C45.5749 71.702 43.8809 72.57 43.8809 74.04C43.8809 74.894 44.4269 75.524 45.4209 75.93V77.694H42.6069V78.618H53.9749V77.694H51.1749ZM59.6658 77.498H56.1378V73.522H59.6658V77.498ZM60.7858 72.598H55.0178V78.408H60.7858V72.598ZM57.5798 79.808H56.4318V83.756H64.8038V82.818H57.5798V79.808ZM64.2438 75.3V71.464H63.0958V80.662H64.2438V76.266H66.0918V75.3H64.2438ZM68.8987 80.522H75.2127V82.944H68.8987V80.522ZM67.7787 83.868H76.3467V79.612H67.7787V83.868ZM75.9547 77.232C76.3047 75.454 76.3047 74.166 76.3047 73.032V72.01H67.8207V72.948H75.1707V73.032C75.1707 73.466 75.1707 73.928 75.1427 74.432L67.5127 74.684L67.6667 75.622L75.0867 75.286C75.0307 75.874 74.9607 76.504 74.7927 77.232H66.3647V78.156H77.7747V77.232H75.9547ZM83.4236 77.498H79.8956V73.522H83.4236V77.498ZM84.5436 72.598H78.7756V78.408H84.5436V72.598ZM81.3376 79.808H80.1896V83.756H88.5616V82.818H81.3376V79.808ZM88.0016 75.3V71.464H86.8536V80.662H88.0016V76.266H89.8496V75.3H88.0016ZM104.24 77.61C102.42 76.966 101.188 75.384 101.188 73.774V73.27H103.946V72.332H97.2398V73.27H100.04V73.774C100.04 75.552 98.7378 77.232 96.8758 77.89L97.4778 78.8C98.9478 78.254 100.096 77.106 100.628 75.664C101.188 76.966 102.266 78.002 103.666 78.506L104.24 77.61ZM98.7798 80.606H106.018V84.05H107.18V79.682H98.7798V80.606ZM106.018 71.478V74.754H103.568V75.692H106.018V78.996H107.18V71.478H106.018ZM114.383 83.14C112.409 83.14 111.247 82.65 111.247 81.796C111.247 80.942 112.409 80.452 114.383 80.452C116.343 80.452 117.519 80.942 117.519 81.796C117.519 82.65 116.343 83.14 114.383 83.14ZM114.383 79.556C111.695 79.556 110.085 80.354 110.085 81.796C110.085 83.238 111.695 84.022 114.383 84.022C117.085 84.022 118.681 83.238 118.681 81.796C118.681 80.354 117.085 79.556 114.383 79.556ZM112.647 76.224C113.165 76.308 113.753 76.364 114.383 76.364C115.027 76.364 115.615 76.308 116.133 76.224V77.694H112.647V76.224ZM111.149 74.04C111.149 73.13 112.381 72.598 114.383 72.598C116.385 72.598 117.617 73.13 117.617 74.04C117.617 74.936 116.385 75.482 114.383 75.482C112.381 75.482 111.149 74.936 111.149 74.04ZM117.267 77.694V75.916C118.233 75.524 118.793 74.88 118.793 74.04C118.793 72.57 117.113 71.702 114.383 71.702C111.667 71.702 109.973 72.57 109.973 74.04C109.973 74.894 110.519 75.524 111.513 75.93V77.694H108.699V78.618H120.067V77.694H117.267ZM125.31 77.834H128.012V76.896H122.734V73.606H127.956V72.654H121.6V77.834H124.162V80.326C122.944 80.368 121.754 80.368 120.676 80.368L120.816 81.334C123.196 81.334 126.206 81.278 128.95 80.858L128.852 80.018C127.732 80.158 126.514 80.228 125.31 80.284V77.834ZM129.678 71.464V84.064H130.826V71.464H129.678ZM142.537 75.258H135.145V71.94H133.997V76.196H142.537V75.258ZM135.061 80.06H133.913V83.728H142.607V82.79H135.061V80.06ZM132.457 77.876V78.8H143.839V77.876H132.457ZM161.645 71.492H160.539V78.184H161.645V71.492ZM158.089 78.058H159.167V71.73H158.089V73.844H156.171V74.782H158.089V78.058ZM157.221 76.826C155.667 76.196 154.771 74.768 154.771 73.34V71.996H153.651V73.284C153.651 74.782 152.685 76.462 151.061 77.204L151.691 78.058C152.895 77.498 153.777 76.42 154.211 75.202C154.631 76.28 155.443 77.204 156.605 77.694L157.221 76.826ZM154.519 82.986V81.67H161.645V78.744H153.357V79.654H160.511V80.816H153.385V83.896H162.121V82.986H154.519ZM167 72.402C165.054 72.402 163.64 73.592 163.64 75.356C163.64 77.106 165.054 78.31 167 78.31C168.96 78.31 170.36 77.106 170.36 75.356C170.36 73.592 168.96 72.402 167 72.402ZM167 73.382C168.302 73.382 169.24 74.18 169.24 75.356C169.24 76.518 168.302 77.33 167 77.33C165.712 77.33 164.76 76.518 164.76 75.356C164.76 74.18 165.712 73.382 167 73.382ZM172.012 71.478V84.064H173.16V71.478H172.012ZM163.15 81.306C165.418 81.306 168.456 81.278 171.284 80.76L171.186 79.906C168.442 80.326 165.292 80.34 163.01 80.34L163.15 81.306ZM182.538 76.574L182.706 77.526L190.28 77.106C190.21 78.072 190.07 79.108 189.79 80.312L190.924 80.424C191.47 77.848 191.47 76.154 191.47 74.292V72.752H182.86V73.69H190.35V74.292C190.35 74.936 190.35 75.58 190.322 76.238L182.538 76.574ZM181.516 81.348V82.286H192.87V81.348H181.516ZM194.123 72.836V73.76H198.841C198.603 76.742 196.923 79.15 193.549 80.76L194.165 81.698C198.337 79.654 200.003 76.462 200.003 72.836H194.123ZM202.537 71.478V84.036H203.685V71.478H202.537Z" fill="#1E73FF"/>
<path d="M542.398 72.906C544.316 72.906 545.618 73.606 545.618 74.712C545.618 75.818 544.316 76.532 542.398 76.532C540.494 76.532 539.192 75.818 539.192 74.712C539.192 73.606 540.494 72.906 542.398 72.906ZM542.398 77.456C545.016 77.456 546.794 76.392 546.794 74.712C546.794 73.032 545.016 71.982 542.398 71.982C539.794 71.982 538.016 73.032 538.016 74.712C538.016 76.392 539.794 77.456 542.398 77.456ZM548.11 78.632H536.742V79.57H539.668V84.036H540.83V79.57H543.98V84.036H545.142V79.57H548.11V78.632ZM549.909 75.426C549.909 74.18 550.819 73.284 552.051 73.284C553.269 73.284 554.179 74.18 554.179 75.426C554.179 76.672 553.269 77.568 552.051 77.568C550.819 77.568 549.909 76.672 549.909 75.426ZM557.805 74.376V76.462H555.103C555.215 76.14 555.271 75.79 555.271 75.426C555.271 75.048 555.215 74.698 555.103 74.376H557.805ZM557.805 77.386V80.76H558.967V71.492H557.805V73.452H554.613C554.025 72.724 553.129 72.276 552.051 72.276C550.203 72.276 548.817 73.592 548.817 75.426C548.817 77.26 550.203 78.576 552.051 78.576C553.129 78.576 554.039 78.128 554.627 77.386H557.805ZM552.093 82.818V79.808H550.931V83.756H559.317V82.818H552.093ZM567.948 73.018H564.812V71.478H563.664V73.018H560.542V73.942H567.948V73.018ZM562.334 76.966C562.334 76.098 563.104 75.538 564.238 75.538C565.372 75.538 566.156 76.098 566.156 76.966C566.156 77.848 565.372 78.408 564.238 78.408C563.104 78.408 562.334 77.848 562.334 76.966ZM567.248 76.966C567.248 75.566 566.016 74.642 564.238 74.642C562.46 74.642 561.242 75.566 561.242 76.966C561.242 78.38 562.46 79.304 564.238 79.304C566.016 79.304 567.248 78.38 567.248 76.966ZM563.58 80.158H562.432V83.756H570.804V82.818H563.58V80.158ZM570.244 75.622V71.478H569.096V80.9H570.244V76.588H572.092V75.622H570.244ZM589.674 71.492H588.568V78.184H589.674V71.492ZM586.118 78.058H587.196V71.73H586.118V73.844H584.2V74.782H586.118V78.058ZM585.25 76.826C583.696 76.196 582.8 74.768 582.8 73.34V71.996H581.68V73.284C581.68 74.782 580.714 76.462 579.09 77.204L579.72 78.058C580.924 77.498 581.806 76.42 582.24 75.202C582.66 76.28 583.472 77.204 584.634 77.694L585.25 76.826ZM582.548 82.986V81.67H589.674V78.744H581.386V79.654H588.54V80.816H581.414V83.896H590.15V82.986H582.548ZM600.111 71.492V78.226H601.259V71.492H600.111ZM593.167 78.842V83.868H601.259V78.842H600.125V80.382H594.301V78.842H593.167ZM594.301 81.278H600.125V82.944H594.301V81.278ZM594.511 72.08C592.621 72.08 591.249 73.256 591.249 74.964C591.249 76.7 592.621 77.862 594.511 77.862C596.415 77.862 597.801 76.7 597.801 74.964C597.801 73.256 596.415 72.08 594.511 72.08ZM594.511 73.032C595.785 73.032 596.681 73.83 596.681 74.964C596.681 76.112 595.785 76.91 594.511 76.91C593.265 76.91 592.369 76.112 592.369 74.964C592.369 73.83 593.265 73.032 594.511 73.032ZM538.674 98.696H537.526V106.788H538.562C540.564 106.788 542.538 106.648 544.722 106.2L544.596 105.22C542.51 105.64 540.564 105.808 538.674 105.808V98.696ZM545.884 97.478V110.022H547.032V97.478H545.884ZM550.301 99.634H554.991V98.682H549.153V106.928H550.147C552.513 106.928 554.165 106.844 556.083 106.48L555.957 105.528C554.137 105.85 552.527 105.948 550.301 105.948V99.634ZM560.353 102.434H558.281V97.478H557.133V110.064H558.281V103.386H560.353V102.434ZM563.552 106.847C563.707 106.847 563.853 106.876 563.989 106.936C564.131 106.995 564.251 107.077 564.352 107.182C564.456 107.286 564.538 107.41 564.598 107.551C564.657 107.688 564.687 107.836 564.687 107.995C564.687 108.15 564.657 108.296 564.598 108.433C564.538 108.569 564.456 108.69 564.352 108.795C564.251 108.895 564.131 108.975 563.989 109.034C563.853 109.093 563.707 109.123 563.552 109.123C563.392 109.123 563.244 109.093 563.107 109.034C562.971 108.975 562.85 108.895 562.745 108.795C562.645 108.69 562.565 108.569 562.506 108.433C562.447 108.296 562.417 108.15 562.417 107.995C562.417 107.836 562.447 107.688 562.506 107.551C562.565 107.41 562.645 107.286 562.745 107.182C562.85 107.077 562.971 106.995 563.107 106.936C563.244 106.876 563.392 106.847 563.552 106.847Z" fill="#B72DF8"/>
<path d="M236.908 76.518H233.38V73.214H236.908V76.518ZM238.028 72.29H232.26V77.428H238.028V72.29ZM234.178 79.038H233.058V83.714H233.66C234.514 83.714 235.69 83.644 236.88 83.252L236.698 82.342C235.83 82.622 234.906 82.734 234.178 82.762V79.038ZM239.582 83.21C238.812 83.21 238.28 82.832 238.28 82.244C238.28 81.67 238.812 81.306 239.582 81.306C240.338 81.306 240.884 81.67 240.884 82.244C240.884 82.832 240.338 83.21 239.582 83.21ZM239.582 80.48C238.224 80.48 237.258 81.166 237.258 82.244C237.258 83.336 238.224 84.022 239.582 84.022C240.94 84.022 241.906 83.336 241.906 82.244C241.906 81.166 240.94 80.48 239.582 80.48ZM240.142 78.058H239.022V79.164H236.418V80.018H242.732V79.164H240.142V78.058ZM241.486 74.292V71.478H240.338V77.876H241.486V75.258H243.348V74.292H241.486ZM249.291 72.836C251.265 72.836 252.525 73.424 252.525 74.418C252.525 75.412 251.265 75.986 249.291 75.986C247.317 75.986 246.057 75.412 246.057 74.418C246.057 73.424 247.317 72.836 249.291 72.836ZM249.291 76.91C251.979 76.91 253.701 75.986 253.701 74.418C253.701 72.85 251.979 71.912 249.291 71.912C246.603 71.912 244.881 72.85 244.881 74.418C244.881 75.986 246.603 76.91 249.291 76.91ZM246.225 80.116H245.077V83.756H253.715V82.818H246.225V80.116ZM243.607 78.086V79.01H254.961V78.086H243.607ZM269.267 79.15H270.359V71.758H269.267V74.782H267.601V75.72H269.267V79.15ZM268.091 77.246C266.775 77.512 265.655 77.568 263.877 77.568V75.818H267.027V74.922H263.877V73.298H267.517V72.374H262.771V78.492H263.569C265.571 78.492 266.747 78.45 268.189 78.156L268.091 77.246ZM264.339 80.774H271.647V84.036H272.795V79.85H264.339V80.774ZM271.689 71.492V79.262H272.795V71.492H271.689ZM284.898 77.792C282.7 77.372 280.32 75.468 280.32 73.326V72.36H279.116V73.326C279.116 75.468 276.75 77.358 274.552 77.792L275.07 78.744C276.96 78.296 278.92 76.952 279.718 75.118C280.516 76.966 282.476 78.31 284.38 78.744L284.898 77.792ZM274.076 81.404V82.356H285.458V81.404H274.076ZM296.035 78.254H288.573V76.266H295.629V75.356H288.573V73.494H295.909V72.57H287.411V79.178H296.035V78.254ZM285.941 81.474V82.412H297.337V81.474H285.941ZM298.506 72.822V73.774H303.112C302.846 76.742 301.124 79.15 297.918 80.76L298.548 81.656C302.608 79.626 304.246 76.392 304.246 72.822H298.506ZM309.51 76.574H307.494V71.478H306.346V84.036H307.494V77.526H309.51V76.574ZM326.714 71.492H325.566V78.66H326.714V71.492ZM319.966 73.172C321.212 73.172 322.136 73.998 322.136 75.146C322.136 76.308 321.212 77.12 319.966 77.12C318.72 77.12 317.824 76.308 317.824 75.146C317.824 73.998 318.72 73.172 319.966 73.172ZM319.966 78.072C321.87 78.072 323.256 76.882 323.256 75.146C323.256 73.41 321.87 72.22 319.966 72.22C318.076 72.22 316.704 73.41 316.704 75.146C316.704 76.882 318.076 78.072 319.966 78.072ZM325.314 79.206H324.194V79.878C324.194 80.858 323.592 82.118 322.388 82.86C321.226 82.174 320.652 80.984 320.652 79.878V79.206H319.546V79.878C319.546 81.082 318.608 82.44 317.026 83L317.6 83.868C318.776 83.42 319.63 82.552 320.078 81.544C320.456 82.594 321.212 83.504 322.416 83.98C323.578 83.476 324.348 82.524 324.74 81.502C325.16 82.552 326.028 83.42 327.26 83.868L327.834 83C326.238 82.468 325.314 81.18 325.314 79.878V79.206ZM338.355 75.258H330.963V71.94H329.815V76.196H338.355V75.258ZM330.879 80.06H329.731V83.728H338.425V82.79H330.879V80.06ZM328.275 77.876V78.8H339.657V77.876H328.275ZM356.049 74.726V76.406H352.759V77.344H356.049V78.996H357.211V71.492H356.049V73.788H353.207C353.291 73.354 353.347 72.892 353.347 72.43H347.677V73.354H352.101C351.891 75.524 350.029 77.19 347.033 78.086L347.495 78.996C350.197 78.212 352.101 76.742 352.913 74.726H356.049ZM353.109 83.084C351.261 83.084 350.085 82.51 350.085 81.558C350.085 80.62 351.261 80.046 353.109 80.046C354.957 80.046 356.133 80.62 356.133 81.558C356.133 82.51 354.957 83.084 353.109 83.084ZM353.109 79.136C350.575 79.136 348.951 80.046 348.951 81.558C348.951 83.07 350.575 83.98 353.109 83.98C355.643 83.98 357.267 83.07 357.267 81.558C357.267 80.046 355.643 79.136 353.109 79.136ZM364.4 72.906C366.318 72.906 367.62 73.62 367.62 74.726C367.62 75.846 366.318 76.56 364.4 76.56C362.496 76.56 361.194 75.846 361.194 74.726C361.194 73.62 362.496 72.906 364.4 72.906ZM364.4 77.484C367.018 77.484 368.796 76.42 368.796 74.726C368.796 73.046 367.018 71.982 364.4 71.982C361.796 71.982 360.018 73.046 360.018 74.726C360.018 76.42 361.796 77.484 364.4 77.484ZM370.112 78.674H358.744V79.626H363.826V84.05H364.974V79.626H370.112V78.674ZM383.763 74.4482C383.138 74.3161 382.601 74.25 382.149 74.25C381.078 74.25 380.543 74.8105 380.543 75.9316V77.1348H383.551V78.126H380.543V83H379.333V78.126H377.125V77.1348H379.333V76C379.333 74.1725 380.285 73.2588 382.19 73.2588C382.664 73.2588 383.188 73.3135 383.763 73.4229V74.4482ZM386.707 77.1211H384.677V76.1367H387.91V82.0088H389.954V83H384.451V82.0088H386.707V77.1211ZM387.124 73.2588C387.256 73.2588 387.379 73.2839 387.493 73.334C387.607 73.3796 387.705 73.4456 387.787 73.5322C387.874 73.6188 387.94 73.7191 387.985 73.833C388.035 73.9424 388.061 74.0632 388.061 74.1953C388.061 74.3229 388.035 74.4437 387.985 74.5576C387.94 74.6715 387.874 74.7718 387.787 74.8584C387.705 74.945 387.607 75.0133 387.493 75.0635C387.379 75.109 387.256 75.1318 387.124 75.1318C386.992 75.1318 386.869 75.109 386.755 75.0635C386.641 75.0133 386.541 74.945 386.454 74.8584C386.372 74.7718 386.306 74.6715 386.256 74.5576C386.21 74.4437 386.188 74.3229 386.188 74.1953C386.188 74.0632 386.21 73.9424 386.256 73.833C386.306 73.7191 386.372 73.6188 386.454 73.5322C386.541 73.4456 386.641 73.3796 386.755 73.334C386.869 73.2839 386.992 73.2588 387.124 73.2588ZM396.597 82.9043C396.328 82.9727 396.05 83.0205 395.763 83.0479C395.476 83.0798 395.184 83.0957 394.888 83.0957C394.026 83.0957 393.384 82.902 392.96 82.5146C392.536 82.1227 392.324 81.5234 392.324 80.7168V77.1348H390.403V76.1367H392.324V74.25L393.514 73.9424V76.1367H396.597V77.1348H393.514V80.6211C393.514 81.1133 393.644 81.4824 393.903 81.7285C394.168 81.9701 394.555 82.0908 395.065 82.0908C395.284 82.0908 395.523 82.0749 395.783 82.043C396.043 82.0065 396.314 81.9518 396.597 81.8789V82.9043ZM402.562 79.835H398.475V78.7139H402.562V79.835ZM409.793 82.7471C409.483 82.8656 409.164 82.9521 408.836 83.0068C408.512 83.0661 408.177 83.0957 407.831 83.0957C406.746 83.0957 405.91 82.8018 405.322 82.2139C404.739 81.626 404.447 80.7669 404.447 79.6367C404.447 79.0944 404.532 78.6022 404.7 78.1602C404.869 77.7181 405.106 77.3398 405.411 77.0254C405.716 76.7109 406.081 76.4694 406.505 76.3008C406.929 76.1276 407.396 76.041 407.906 76.041C408.262 76.041 408.594 76.0661 408.904 76.1162C409.214 76.1663 409.51 76.2484 409.793 76.3623V77.4971C409.497 77.3421 409.194 77.2305 408.884 77.1621C408.578 77.0892 408.262 77.0527 407.934 77.0527C407.628 77.0527 407.339 77.112 407.065 77.2305C406.797 77.3444 406.56 77.5107 406.354 77.7295C406.149 77.9482 405.988 78.2148 405.869 78.5293C405.751 78.8438 405.691 79.1992 405.691 79.5957C405.691 80.4251 405.892 81.0472 406.293 81.4619C406.699 81.8721 407.259 82.0771 407.975 82.0771C408.298 82.0771 408.61 82.0407 408.911 81.9678C409.216 81.8949 409.51 81.7855 409.793 81.6396V82.7471ZM417.133 79.5137C417.133 80.0469 417.058 80.5368 416.907 80.9834C416.757 81.4255 416.54 81.806 416.258 82.125C415.975 82.4395 415.631 82.6855 415.226 82.8633C414.82 83.0365 414.36 83.123 413.845 83.123C413.353 83.123 412.91 83.0479 412.519 82.8975C412.131 82.7425 411.801 82.5169 411.527 82.2207C411.258 81.9245 411.051 81.5576 410.905 81.1201C410.764 80.6826 410.693 80.179 410.693 79.6094C410.693 79.0762 410.769 78.5908 410.919 78.1533C411.069 77.7113 411.286 77.333 411.568 77.0186C411.851 76.6995 412.195 76.4535 412.601 76.2803C413.006 76.1025 413.466 76.0137 413.981 76.0137C414.474 76.0137 414.913 76.0911 415.301 76.2461C415.693 76.3965 416.023 76.6198 416.292 76.916C416.565 77.2077 416.773 77.5723 416.914 78.0098C417.06 78.4473 417.133 78.9486 417.133 79.5137ZM415.916 79.5684C415.916 79.1445 415.868 78.7754 415.772 78.4609C415.681 78.1419 415.549 77.8776 415.376 77.668C415.203 77.4538 414.991 77.2943 414.74 77.1895C414.494 77.0801 414.218 77.0254 413.913 77.0254C413.558 77.0254 413.252 77.096 412.997 77.2373C412.746 77.374 412.539 77.5586 412.375 77.791C412.215 78.0234 412.097 78.2946 412.02 78.6045C411.947 78.9098 411.91 79.2311 411.91 79.5684C411.91 79.9922 411.956 80.3636 412.047 80.6826C412.143 81.0016 412.277 81.2682 412.45 81.4824C412.623 81.6921 412.833 81.8516 413.079 81.9609C413.325 82.0658 413.603 82.1182 413.913 82.1182C414.269 82.1182 414.572 82.0498 414.822 81.9131C415.077 81.7718 415.285 81.585 415.444 81.3525C415.608 81.1201 415.727 80.8512 415.8 80.5459C415.877 80.236 415.916 79.9102 415.916 79.5684ZM417.855 76.1367H418.915L418.963 77.2441C419.163 77.0072 419.357 76.8112 419.544 76.6562C419.731 76.4967 419.913 76.3691 420.091 76.2734C420.273 76.1777 420.458 76.1117 420.645 76.0752C420.831 76.0342 421.025 76.0137 421.226 76.0137C421.932 76.0137 422.465 76.2233 422.825 76.6426C423.19 77.0573 423.372 77.6839 423.372 78.5225V83H422.183V78.6182C422.183 78.0804 422.082 77.6839 421.882 77.4287C421.681 77.1689 421.383 77.0391 420.986 77.0391C420.84 77.0391 420.697 77.0618 420.556 77.1074C420.419 77.1484 420.275 77.2236 420.125 77.333C419.975 77.4378 419.811 77.5814 419.633 77.7637C419.46 77.946 419.264 78.1738 419.045 78.4473V83H417.855V76.1367ZM430.083 82.9043C429.814 82.9727 429.536 83.0205 429.249 83.0479C428.962 83.0798 428.67 83.0957 428.374 83.0957C427.513 83.0957 426.87 82.902 426.446 82.5146C426.022 82.1227 425.811 81.5234 425.811 80.7168V77.1348H423.89V76.1367H425.811V74.25L427 73.9424V76.1367H430.083V77.1348H427V80.6211C427 81.1133 427.13 81.4824 427.39 81.7285C427.654 81.9701 428.041 82.0908 428.552 82.0908C428.771 82.0908 429.01 82.0749 429.27 82.043C429.529 82.0065 429.8 81.9518 430.083 81.8789V82.9043ZM437.047 79.2061C437.047 79.3747 437.045 79.516 437.04 79.6299C437.035 79.7438 437.029 79.8509 437.02 79.9512H432.2C432.2 80.653 432.396 81.193 432.788 81.5713C433.18 81.945 433.745 82.1318 434.483 82.1318C434.684 82.1318 434.884 82.125 435.085 82.1113C435.285 82.0931 435.479 82.0703 435.666 82.043C435.853 82.0156 436.031 81.986 436.199 81.9541C436.372 81.9176 436.532 81.8789 436.678 81.8379V82.8154C436.354 82.9066 435.987 82.9795 435.577 83.0342C435.172 83.0934 434.75 83.123 434.312 83.123C433.725 83.123 433.219 83.0433 432.795 82.8838C432.371 82.7243 432.022 82.4941 431.749 82.1934C431.48 81.888 431.28 81.5166 431.147 81.0791C431.02 80.637 430.956 80.138 430.956 79.582C430.956 79.099 431.024 78.6432 431.161 78.2148C431.302 77.7819 431.505 77.4036 431.77 77.0801C432.038 76.752 432.367 76.4922 432.754 76.3008C433.141 76.1094 433.581 76.0137 434.073 76.0137C434.552 76.0137 434.976 76.0889 435.345 76.2393C435.714 76.3896 436.024 76.6038 436.274 76.8818C436.53 77.1553 436.721 77.4902 436.849 77.8867C436.981 78.2786 437.047 78.7184 437.047 79.2061ZM435.81 79.0352C435.823 78.7298 435.794 78.4518 435.721 78.2012C435.648 77.946 435.534 77.7272 435.379 77.5449C435.229 77.3626 435.039 77.2214 434.812 77.1211C434.584 77.0163 434.319 76.9639 434.019 76.9639C433.759 76.9639 433.522 77.014 433.308 77.1143C433.093 77.2145 432.909 77.3558 432.754 77.5381C432.599 77.7204 432.474 77.9391 432.378 78.1943C432.282 78.4495 432.223 78.7298 432.2 79.0352H435.81ZM437.947 76.1367H439.007L439.055 77.2441C439.255 77.0072 439.449 76.8112 439.636 76.6562C439.823 76.4967 440.005 76.3691 440.183 76.2734C440.365 76.1777 440.549 76.1117 440.736 76.0752C440.923 76.0342 441.117 76.0137 441.317 76.0137C442.024 76.0137 442.557 76.2233 442.917 76.6426C443.282 77.0573 443.464 77.6839 443.464 78.5225V83H442.274V78.6182C442.274 78.0804 442.174 77.6839 441.974 77.4287C441.773 77.1689 441.475 77.0391 441.078 77.0391C440.932 77.0391 440.789 77.0618 440.647 77.1074C440.511 77.1484 440.367 77.2236 440.217 77.333C440.066 77.4378 439.902 77.5814 439.725 77.7637C439.551 77.946 439.355 78.1738 439.137 78.4473V83H437.947V76.1367ZM450.175 82.9043C449.906 82.9727 449.628 83.0205 449.341 83.0479C449.054 83.0798 448.762 83.0957 448.466 83.0957C447.604 83.0957 446.962 82.902 446.538 82.5146C446.114 82.1227 445.902 81.5234 445.902 80.7168V77.1348H443.981V76.1367H445.902V74.25L447.092 73.9424V76.1367H450.175V77.1348H447.092V80.6211C447.092 81.1133 447.222 81.4824 447.481 81.7285C447.746 81.9701 448.133 82.0908 448.644 82.0908C448.862 82.0908 449.102 82.0749 449.361 82.043C449.621 82.0065 449.892 81.9518 450.175 81.8789V82.9043ZM457.248 81.544V79.178H461.266V78.254H453.538V76.224H460.972V72.402H452.376V73.34H459.852V75.3H452.404V79.178H456.086V81.544H450.976V82.482H462.386V81.544H457.248ZM476.272 74.74V75.678H478.75V78.968H479.912V71.492H478.75V74.74H476.272ZM476.972 77.596C475.152 76.952 473.92 75.37 473.92 73.76V73.326H476.678V72.402H469.972V73.326H472.772V73.76C472.772 75.566 471.484 77.26 469.608 77.946L470.21 78.856C471.68 78.296 472.842 77.12 473.374 75.664C473.92 76.952 474.998 77.988 476.398 78.492L476.972 77.596ZM475.768 83.14C473.878 83.14 472.73 82.608 472.73 81.698C472.73 80.788 473.878 80.242 475.768 80.242C477.658 80.242 478.806 80.788 478.806 81.698C478.806 82.608 477.658 83.14 475.768 83.14ZM475.768 79.36C473.192 79.36 471.582 80.214 471.582 81.698C471.582 83.182 473.192 84.036 475.768 84.036C478.344 84.036 479.954 83.182 479.954 81.698C479.954 80.214 478.344 79.36 475.768 79.36ZM485.519 72.402C483.573 72.402 482.159 73.592 482.159 75.356C482.159 77.106 483.573 78.31 485.519 78.31C487.479 78.31 488.879 77.106 488.879 75.356C488.879 73.592 487.479 72.402 485.519 72.402ZM485.519 73.382C486.821 73.382 487.759 74.18 487.759 75.356C487.759 76.518 486.821 77.33 485.519 77.33C484.231 77.33 483.279 76.518 483.279 75.356C483.279 74.18 484.231 73.382 485.519 73.382ZM490.531 71.478V84.064H491.679V71.478H490.531ZM481.669 81.306C483.937 81.306 486.975 81.278 489.803 80.76L489.705 79.906C486.961 80.326 483.811 80.34 481.529 80.34L481.669 81.306ZM500.772 73.018H497.636V71.478H496.488V73.018H493.366V73.942H500.772V73.018ZM495.158 76.966C495.158 76.098 495.928 75.538 497.062 75.538C498.196 75.538 498.98 76.098 498.98 76.966C498.98 77.848 498.196 78.408 497.062 78.408C495.928 78.408 495.158 77.848 495.158 76.966ZM500.072 76.966C500.072 75.566 498.84 74.642 497.062 74.642C495.284 74.642 494.066 75.566 494.066 76.966C494.066 78.38 495.284 79.304 497.062 79.304C498.84 79.304 500.072 78.38 500.072 76.966ZM496.404 80.158H495.256V83.756H503.628V82.818H496.404V80.158ZM503.068 75.622V71.478H501.92V80.9H503.068V76.588H504.916V75.622H503.068ZM232.778 102.574L232.946 103.526L240.52 103.106C240.45 104.072 240.31 105.108 240.03 106.312L241.164 106.424C241.71 103.848 241.71 102.154 241.71 100.292V98.752H233.1V99.69H240.59V100.292C240.59 100.936 240.59 101.58 240.562 102.238L232.778 102.574ZM231.756 107.348V108.286H243.11V107.348H231.756ZM244.363 98.836V99.76H249.081C248.843 102.742 247.163 105.15 243.789 106.76L244.405 107.698C248.577 105.654 250.243 102.462 250.243 98.836H244.363ZM252.777 97.478V110.036H253.925V97.478H252.777ZM256.172 98.822V99.774H260.778C260.512 102.742 258.79 105.15 255.584 106.76L256.214 107.656C260.274 105.626 261.912 102.392 261.912 98.822H256.172ZM267.176 102.574H265.16V97.478H264.012V110.036H265.16V103.526H267.176V102.574ZM284.674 97.492H283.568V104.184H284.674V97.492ZM281.118 104.058H282.196V97.73H281.118V99.844H279.2V100.782H281.118V104.058ZM280.25 102.826C278.696 102.196 277.8 100.768 277.8 99.34V97.996H276.68V99.284C276.68 100.782 275.714 102.462 274.09 103.204L274.72 104.058C275.924 103.498 276.806 102.42 277.24 101.202C277.66 102.28 278.472 103.204 279.634 103.694L280.25 102.826ZM277.548 108.986V107.67H284.674V104.744H276.386V105.654H283.54V106.816H276.414V109.896H285.15V108.986H277.548ZM290.029 98.402C288.083 98.402 286.669 99.592 286.669 101.356C286.669 103.106 288.083 104.31 290.029 104.31C291.989 104.31 293.389 103.106 293.389 101.356C293.389 99.592 291.989 98.402 290.029 98.402ZM290.029 99.382C291.331 99.382 292.269 100.18 292.269 101.356C292.269 102.518 291.331 103.33 290.029 103.33C288.741 103.33 287.789 102.518 287.789 101.356C287.789 100.18 288.741 99.382 290.029 99.382ZM295.041 97.478V110.064H296.189V97.478H295.041ZM286.179 107.306C288.447 107.306 291.485 107.278 294.313 106.76L294.215 105.906C291.471 106.326 288.321 106.34 286.039 106.34L286.179 107.306ZM305.511 104.534C307.009 104.058 308.171 103.064 308.717 101.748C309.291 102.994 310.439 103.946 311.923 104.394L312.455 103.512C310.621 102.966 309.305 101.636 309.277 100.04H312.175V99.116H309.277V97.562H308.129V99.116H305.273V100.04H308.129C308.101 101.692 306.827 103.078 304.979 103.638L305.511 104.534ZM309.277 104.114H308.129V106.452C306.855 106.494 305.637 106.494 304.601 106.494L304.755 107.46C306.995 107.446 310.075 107.432 312.889 106.914L312.791 106.06C311.671 106.242 310.453 106.326 309.277 106.396V104.114ZM313.617 97.478V110.05H314.765V97.478H313.617ZM317.992 99.942H321.534V99.004H316.858V106.942H317.684C319.56 106.942 320.834 106.886 322.332 106.564L322.234 105.612C320.862 105.906 319.672 105.976 317.992 105.99V99.942ZM325.972 97.478V102.518H324.194V97.758H323.116V109.406H324.194V103.456H325.972V110.036H327.078V97.478H325.972ZM336.022 102.574L336.19 103.526L343.764 103.106C343.694 104.072 343.554 105.108 343.274 106.312L344.408 106.424C344.954 103.848 344.954 102.154 344.954 100.292V98.752H336.344V99.69H343.834V100.292C343.834 100.936 343.834 101.58 343.806 102.238L336.022 102.574ZM335 107.348V108.286H346.354V107.348H335ZM347.607 98.836V99.76H352.325C352.087 102.742 350.407 105.15 347.033 106.76L347.649 107.698C351.821 105.654 353.487 102.462 353.487 98.836H347.607ZM356.021 97.478V110.036H357.169V97.478H356.021ZM359.416 98.822V99.774H364.022C363.756 102.742 362.034 105.15 358.828 106.76L359.458 107.656C363.518 105.626 365.156 102.392 365.156 98.822H359.416ZM370.42 102.574H368.404V97.478H367.256V110.036H368.404V103.526H370.42V102.574ZM385.454 103.064C384.362 103.232 383.214 103.316 382.052 103.386V102.084H384.53V101.146H379.63V99.046H384.404V98.108H378.496V102.084H380.904V103.428C379.644 103.484 378.412 103.484 377.362 103.484L377.53 104.408C379.784 104.394 382.794 104.352 385.524 103.89L385.454 103.064ZM386.49 108.944H380.54V107.488H386.49V108.944ZM386.49 106.592H380.54V105.276H379.392V109.868H387.624V105.276H386.49V106.592ZM386.476 97.492V104.716H387.624V97.492H386.476ZM391.131 98.696H389.983V106.788H391.019C393.021 106.788 394.995 106.648 397.179 106.2L397.053 105.22C394.967 105.64 393.021 105.808 391.131 105.808V98.696ZM398.341 97.478V110.022H399.489V97.478H398.341ZM402.758 99.634H407.448V98.682H401.61V106.928H402.604C404.97 106.928 406.622 106.844 408.54 106.48L408.414 105.528C406.594 105.85 404.984 105.948 402.758 105.948V99.634ZM412.81 102.434H410.738V97.478H409.59V110.064H410.738V103.386H412.81V102.434ZM416.009 106.847C416.164 106.847 416.31 106.876 416.446 106.936C416.588 106.995 416.708 107.077 416.809 107.182C416.913 107.286 416.995 107.41 417.055 107.551C417.114 107.688 417.144 107.836 417.144 107.995C417.144 108.15 417.114 108.296 417.055 108.433C416.995 108.569 416.913 108.69 416.809 108.795C416.708 108.895 416.588 108.975 416.446 109.034C416.31 109.093 416.164 109.123 416.009 109.123C415.849 109.123 415.701 109.093 415.564 109.034C415.428 108.975 415.307 108.895 415.202 108.795C415.102 108.69 415.022 108.569 414.963 108.433C414.904 108.296 414.874 108.15 414.874 107.995C414.874 107.836 414.904 107.688 414.963 107.551C415.022 107.41 415.102 107.286 415.202 107.182C415.307 107.077 415.428 106.995 415.564 106.936C415.701 106.876 415.849 106.847 416.009 106.847ZM238.185 126.448C237.56 126.316 237.022 126.25 236.571 126.25C235.5 126.25 234.965 126.811 234.965 127.932V129.135H237.973V130.126H234.965V135H233.755V130.126H231.547V129.135H233.755V128C233.755 126.173 234.707 125.259 236.612 125.259C237.086 125.259 237.61 125.313 238.185 125.423V126.448ZM241.129 129.121H239.099V128.137H242.332V134.009H244.376V135H238.873V134.009H241.129V129.121ZM241.546 125.259C241.678 125.259 241.801 125.284 241.915 125.334C242.029 125.38 242.127 125.446 242.209 125.532C242.296 125.619 242.362 125.719 242.407 125.833C242.457 125.942 242.482 126.063 242.482 126.195C242.482 126.323 242.457 126.444 242.407 126.558C242.362 126.672 242.296 126.772 242.209 126.858C242.127 126.945 242.029 127.013 241.915 127.063C241.801 127.109 241.678 127.132 241.546 127.132C241.414 127.132 241.291 127.109 241.177 127.063C241.063 127.013 240.963 126.945 240.876 126.858C240.794 126.772 240.728 126.672 240.678 126.558C240.632 126.444 240.609 126.323 240.609 126.195C240.609 126.063 240.632 125.942 240.678 125.833C240.728 125.719 240.794 125.619 240.876 125.532C240.963 125.446 241.063 125.38 241.177 125.334C241.291 125.284 241.414 125.259 241.546 125.259ZM251.019 134.904C250.75 134.973 250.472 135.021 250.185 135.048C249.897 135.08 249.606 135.096 249.31 135.096C248.448 135.096 247.806 134.902 247.382 134.515C246.958 134.123 246.746 133.523 246.746 132.717V129.135H244.825V128.137H246.746V126.25L247.936 125.942V128.137H251.019V129.135H247.936V132.621C247.936 133.113 248.065 133.482 248.325 133.729C248.59 133.97 248.977 134.091 249.487 134.091C249.706 134.091 249.945 134.075 250.205 134.043C250.465 134.007 250.736 133.952 251.019 133.879V134.904ZM256.984 131.835H252.896V130.714H256.984V131.835ZM264.215 134.747C263.905 134.866 263.586 134.952 263.258 135.007C262.934 135.066 262.599 135.096 262.253 135.096C261.168 135.096 260.332 134.802 259.744 134.214C259.161 133.626 258.869 132.767 258.869 131.637C258.869 131.094 258.953 130.602 259.122 130.16C259.291 129.718 259.528 129.34 259.833 129.025C260.138 128.711 260.503 128.469 260.927 128.301C261.351 128.128 261.818 128.041 262.328 128.041C262.684 128.041 263.016 128.066 263.326 128.116C263.636 128.166 263.932 128.248 264.215 128.362V129.497C263.919 129.342 263.616 129.23 263.306 129.162C263 129.089 262.684 129.053 262.355 129.053C262.05 129.053 261.761 129.112 261.487 129.23C261.218 129.344 260.981 129.511 260.776 129.729C260.571 129.948 260.41 130.215 260.291 130.529C260.173 130.844 260.113 131.199 260.113 131.596C260.113 132.425 260.314 133.047 260.715 133.462C261.12 133.872 261.681 134.077 262.396 134.077C262.72 134.077 263.032 134.041 263.333 133.968C263.638 133.895 263.932 133.785 264.215 133.64V134.747ZM271.555 131.514C271.555 132.047 271.479 132.537 271.329 132.983C271.179 133.425 270.962 133.806 270.68 134.125C270.397 134.439 270.053 134.686 269.647 134.863C269.242 135.036 268.782 135.123 268.267 135.123C267.774 135.123 267.332 135.048 266.94 134.897C266.553 134.743 266.223 134.517 265.949 134.221C265.68 133.924 265.473 133.558 265.327 133.12C265.186 132.683 265.115 132.179 265.115 131.609C265.115 131.076 265.19 130.591 265.341 130.153C265.491 129.711 265.708 129.333 265.99 129.019C266.273 128.7 266.617 128.453 267.022 128.28C267.428 128.103 267.888 128.014 268.403 128.014C268.896 128.014 269.335 128.091 269.723 128.246C270.115 128.396 270.445 128.62 270.714 128.916C270.987 129.208 271.195 129.572 271.336 130.01C271.482 130.447 271.555 130.949 271.555 131.514ZM270.338 131.568C270.338 131.145 270.29 130.775 270.194 130.461C270.103 130.142 269.971 129.878 269.798 129.668C269.625 129.454 269.413 129.294 269.162 129.189C268.916 129.08 268.64 129.025 268.335 129.025C267.979 129.025 267.674 129.096 267.419 129.237C267.168 129.374 266.961 129.559 266.797 129.791C266.637 130.023 266.519 130.295 266.441 130.604C266.368 130.91 266.332 131.231 266.332 131.568C266.332 131.992 266.378 132.364 266.469 132.683C266.564 133.002 266.699 133.268 266.872 133.482C267.045 133.692 267.255 133.852 267.501 133.961C267.747 134.066 268.025 134.118 268.335 134.118C268.69 134.118 268.993 134.05 269.244 133.913C269.499 133.772 269.707 133.585 269.866 133.353C270.03 133.12 270.149 132.851 270.222 132.546C270.299 132.236 270.338 131.91 270.338 131.568ZM272.277 128.137H273.337L273.385 129.244C273.585 129.007 273.779 128.811 273.966 128.656C274.153 128.497 274.335 128.369 274.513 128.273C274.695 128.178 274.88 128.112 275.066 128.075C275.253 128.034 275.447 128.014 275.647 128.014C276.354 128.014 276.887 128.223 277.247 128.643C277.612 129.057 277.794 129.684 277.794 130.522V135H276.604V130.618C276.604 130.08 276.504 129.684 276.304 129.429C276.103 129.169 275.805 129.039 275.408 129.039C275.262 129.039 275.119 129.062 274.978 129.107C274.841 129.148 274.697 129.224 274.547 129.333C274.396 129.438 274.232 129.581 274.055 129.764C273.882 129.946 273.686 130.174 273.467 130.447V135H272.277V128.137ZM284.505 134.904C284.236 134.973 283.958 135.021 283.671 135.048C283.384 135.08 283.092 135.096 282.796 135.096C281.935 135.096 281.292 134.902 280.868 134.515C280.444 134.123 280.232 133.523 280.232 132.717V129.135H278.312V128.137H280.232V126.25L281.422 125.942V128.137H284.505V129.135H281.422V132.621C281.422 133.113 281.552 133.482 281.812 133.729C282.076 133.97 282.463 134.091 282.974 134.091C283.192 134.091 283.432 134.075 283.691 134.043C283.951 134.007 284.222 133.952 284.505 133.879V134.904ZM291.469 131.206C291.469 131.375 291.466 131.516 291.462 131.63C291.457 131.744 291.451 131.851 291.441 131.951H286.622C286.622 132.653 286.818 133.193 287.21 133.571C287.602 133.945 288.167 134.132 288.905 134.132C289.106 134.132 289.306 134.125 289.507 134.111C289.707 134.093 289.901 134.07 290.088 134.043C290.275 134.016 290.452 133.986 290.621 133.954C290.794 133.918 290.954 133.879 291.1 133.838V134.815C290.776 134.907 290.409 134.979 289.999 135.034C289.593 135.093 289.172 135.123 288.734 135.123C288.146 135.123 287.641 135.043 287.217 134.884C286.793 134.724 286.444 134.494 286.171 134.193C285.902 133.888 285.701 133.517 285.569 133.079C285.442 132.637 285.378 132.138 285.378 131.582C285.378 131.099 285.446 130.643 285.583 130.215C285.724 129.782 285.927 129.404 286.191 129.08C286.46 128.752 286.788 128.492 287.176 128.301C287.563 128.109 288.003 128.014 288.495 128.014C288.974 128.014 289.397 128.089 289.767 128.239C290.136 128.39 290.446 128.604 290.696 128.882C290.951 129.155 291.143 129.49 291.271 129.887C291.403 130.279 291.469 130.718 291.469 131.206ZM290.231 131.035C290.245 130.73 290.215 130.452 290.143 130.201C290.07 129.946 289.956 129.727 289.801 129.545C289.65 129.363 289.461 129.221 289.233 129.121C289.006 129.016 288.741 128.964 288.44 128.964C288.181 128.964 287.944 129.014 287.729 129.114C287.515 129.215 287.331 129.356 287.176 129.538C287.021 129.72 286.896 129.939 286.8 130.194C286.704 130.45 286.645 130.73 286.622 131.035H290.231ZM292.369 128.137H293.429L293.477 129.244C293.677 129.007 293.871 128.811 294.058 128.656C294.244 128.497 294.427 128.369 294.604 128.273C294.787 128.178 294.971 128.112 295.158 128.075C295.345 128.034 295.539 128.014 295.739 128.014C296.446 128.014 296.979 128.223 297.339 128.643C297.703 129.057 297.886 129.684 297.886 130.522V135H296.696V130.618C296.696 130.08 296.596 129.684 296.396 129.429C296.195 129.169 295.896 129.039 295.5 129.039C295.354 129.039 295.211 129.062 295.069 129.107C294.933 129.148 294.789 129.224 294.639 129.333C294.488 129.438 294.324 129.581 294.146 129.764C293.973 129.946 293.777 130.174 293.559 130.447V135H292.369V128.137ZM304.597 134.904C304.328 134.973 304.05 135.021 303.763 135.048C303.476 135.08 303.184 135.096 302.888 135.096C302.026 135.096 301.384 134.902 300.96 134.515C300.536 134.123 300.324 133.523 300.324 132.717V129.135H298.403V128.137H300.324V126.25L301.514 125.942V128.137H304.597V129.135H301.514V132.621C301.514 133.113 301.644 133.482 301.903 133.729C302.168 133.97 302.555 134.091 303.065 134.091C303.284 134.091 303.523 134.075 303.783 134.043C304.043 134.007 304.314 133.952 304.597 133.879V134.904ZM309.872 137.871C307.771 135.925 306.721 133.774 306.721 131.418C306.721 130.867 306.775 130.317 306.885 129.771C306.999 129.219 307.179 128.668 307.425 128.116C307.675 127.565 308.004 127.013 308.409 126.462C308.819 125.91 309.316 125.364 309.899 124.821L310.59 125.525C308.822 127.271 307.938 129.205 307.938 131.329C307.938 132.386 308.161 133.403 308.607 134.378C309.054 135.353 309.715 136.274 310.59 137.14L309.872 137.871ZM318.087 132.286C318.087 132.678 318.007 133.047 317.848 133.394C317.688 133.735 317.449 134.036 317.13 134.296C316.811 134.551 316.41 134.754 315.927 134.904C315.444 135.05 314.881 135.123 314.238 135.123C313.883 135.123 313.564 135.112 313.281 135.089C312.999 135.066 312.734 135.036 312.488 135V133.934C312.771 133.984 313.069 134.022 313.384 134.05C313.698 134.077 314.02 134.091 314.348 134.091C314.794 134.091 315.175 134.052 315.489 133.975C315.808 133.893 316.068 133.776 316.269 133.626C316.469 133.476 316.615 133.293 316.706 133.079C316.797 132.865 316.843 132.623 316.843 132.354C316.843 132.108 316.788 131.894 316.679 131.712C316.569 131.53 316.414 131.377 316.214 131.254C316.018 131.131 315.781 131.04 315.503 130.98C315.229 130.917 314.929 130.885 314.601 130.885H313.582V129.907H314.614C314.883 129.907 315.127 129.873 315.346 129.805C315.569 129.732 315.758 129.629 315.913 129.497C316.073 129.365 316.193 129.203 316.275 129.012C316.362 128.816 316.405 128.595 316.405 128.349C316.405 127.87 316.259 127.521 315.968 127.303C315.676 127.084 315.248 126.975 314.683 126.975C314.382 126.975 314.072 127.004 313.753 127.063C313.434 127.123 313.092 127.212 312.728 127.33V126.291C312.882 126.236 313.047 126.188 313.22 126.147C313.397 126.102 313.573 126.065 313.746 126.038C313.924 126.006 314.099 125.983 314.272 125.97C314.446 125.951 314.612 125.942 314.771 125.942C315.245 125.942 315.662 125.995 316.022 126.1C316.382 126.2 316.683 126.346 316.925 126.537C317.166 126.729 317.349 126.961 317.472 127.234C317.595 127.508 317.656 127.815 317.656 128.157C317.656 128.668 317.524 129.096 317.26 129.442C317 129.789 316.642 130.064 316.187 130.27C316.419 130.306 316.647 130.379 316.87 130.488C317.098 130.598 317.301 130.739 317.479 130.912C317.661 131.081 317.807 131.281 317.916 131.514C318.03 131.746 318.087 132.004 318.087 132.286ZM325.16 130.536C325.16 131.22 325.092 131.844 324.955 132.409C324.818 132.97 324.611 133.453 324.333 133.858C324.055 134.259 323.709 134.572 323.294 134.795C322.884 135.014 322.401 135.123 321.845 135.123C321.366 135.123 320.931 135.034 320.539 134.856C320.147 134.674 319.812 134.396 319.534 134.022C319.256 133.649 319.042 133.173 318.892 132.594C318.741 132.015 318.666 131.329 318.666 130.536C318.666 129.853 318.734 129.228 318.871 128.663C319.012 128.098 319.22 127.615 319.493 127.214C319.771 126.808 320.118 126.496 320.532 126.277C320.947 126.054 321.43 125.942 321.981 125.942C322.46 125.942 322.895 126.034 323.287 126.216C323.679 126.394 324.014 126.672 324.292 127.05C324.57 127.424 324.784 127.9 324.935 128.479C325.085 129.057 325.16 129.743 325.16 130.536ZM323.957 130.577C323.957 130.422 323.95 130.27 323.937 130.119C323.927 129.964 323.916 129.814 323.902 129.668L320.122 132.478C320.19 132.715 320.277 132.933 320.382 133.134C320.487 133.334 320.612 133.507 320.758 133.653C320.908 133.795 321.077 133.906 321.264 133.988C321.455 134.066 321.672 134.104 321.913 134.104C322.223 134.104 322.503 134.029 322.754 133.879C323.009 133.729 323.226 133.505 323.403 133.209C323.581 132.913 323.718 132.546 323.813 132.108C323.909 131.666 323.957 131.156 323.957 130.577ZM319.869 130.495C319.869 130.636 319.869 130.778 319.869 130.919C319.874 131.06 319.883 131.197 319.896 131.329L323.677 128.533C323.608 128.301 323.522 128.089 323.417 127.897C323.312 127.706 323.187 127.542 323.041 127.405C322.895 127.264 322.729 127.155 322.542 127.077C322.355 127 322.146 126.961 321.913 126.961C321.603 126.961 321.321 127.036 321.065 127.187C320.815 127.337 320.601 127.562 320.423 127.863C320.245 128.16 320.108 128.529 320.013 128.971C319.917 129.408 319.869 129.916 319.869 130.495ZM331.857 130.536C331.857 131.22 331.789 131.844 331.652 132.409C331.516 132.97 331.308 133.453 331.03 133.858C330.752 134.259 330.406 134.572 329.991 134.795C329.581 135.014 329.098 135.123 328.542 135.123C328.063 135.123 327.628 135.034 327.236 134.856C326.844 134.674 326.509 134.396 326.231 134.022C325.953 133.649 325.739 133.173 325.589 132.594C325.438 132.015 325.363 131.329 325.363 130.536C325.363 129.853 325.432 129.228 325.568 128.663C325.71 128.098 325.917 127.615 326.19 127.214C326.468 126.808 326.815 126.496 327.229 126.277C327.644 126.054 328.127 125.942 328.679 125.942C329.157 125.942 329.592 126.034 329.984 126.216C330.376 126.394 330.711 126.672 330.989 127.05C331.267 127.424 331.481 127.9 331.632 128.479C331.782 129.057 331.857 129.743 331.857 130.536ZM330.654 130.577C330.654 130.422 330.647 130.27 330.634 130.119C330.625 129.964 330.613 129.814 330.6 129.668L326.819 132.478C326.888 132.715 326.974 132.933 327.079 133.134C327.184 133.334 327.309 133.507 327.455 133.653C327.605 133.795 327.774 133.906 327.961 133.988C328.152 134.066 328.369 134.104 328.61 134.104C328.92 134.104 329.201 134.029 329.451 133.879C329.706 133.729 329.923 133.505 330.101 133.209C330.278 132.913 330.415 132.546 330.511 132.108C330.606 131.666 330.654 131.156 330.654 130.577ZM326.566 130.495C326.566 130.636 326.566 130.778 326.566 130.919C326.571 131.06 326.58 131.197 326.594 131.329L330.374 128.533C330.306 128.301 330.219 128.089 330.114 127.897C330.009 127.706 329.884 127.542 329.738 127.405C329.592 127.264 329.426 127.155 329.239 127.077C329.052 127 328.843 126.961 328.61 126.961C328.3 126.961 328.018 127.036 327.763 127.187C327.512 127.337 327.298 127.562 327.12 127.863C326.942 128.16 326.806 128.529 326.71 128.971C326.614 129.408 326.566 129.916 326.566 130.495ZM338.418 131.445C338.418 132.056 338.331 132.589 338.158 133.045C337.99 133.501 337.755 133.879 337.454 134.18C337.153 134.48 336.798 134.706 336.388 134.856C335.978 135.007 335.533 135.082 335.055 135.082C334.836 135.082 334.617 135.071 334.398 135.048C334.184 135.025 333.965 134.986 333.742 134.932V137.803H332.553V128.137H333.612L333.688 129.285C334.029 128.816 334.394 128.488 334.781 128.301C335.169 128.109 335.588 128.014 336.039 128.014C336.431 128.014 336.775 128.096 337.071 128.26C337.368 128.424 337.616 128.656 337.816 128.957C338.017 129.253 338.167 129.613 338.268 130.037C338.368 130.456 338.418 130.926 338.418 131.445ZM337.201 131.5C337.201 131.14 337.174 130.81 337.119 130.509C337.069 130.208 336.987 129.951 336.873 129.736C336.759 129.522 336.613 129.356 336.436 129.237C336.258 129.114 336.046 129.053 335.8 129.053C335.649 129.053 335.497 129.078 335.342 129.128C335.187 129.174 335.025 129.253 334.856 129.367C334.692 129.477 334.517 129.625 334.33 129.812C334.148 129.994 333.952 130.222 333.742 130.495V133.824C333.961 133.915 334.191 133.988 334.433 134.043C334.674 134.093 334.911 134.118 335.144 134.118C335.786 134.118 336.29 133.902 336.654 133.469C337.019 133.031 337.201 132.375 337.201 131.5ZM345.437 135H343.857L342.005 132.382L340.173 135H338.635L341.294 131.555L338.758 128.137H340.282L342.087 130.775L343.857 128.137H345.327L342.75 131.582L345.437 135ZM347.349 124.821C349.45 126.767 350.5 128.932 350.5 131.315C350.5 131.808 350.45 132.318 350.35 132.847C350.249 133.375 350.078 133.918 349.837 134.474C349.595 135.025 349.27 135.586 348.859 136.155C348.454 136.725 347.941 137.297 347.321 137.871L346.631 137.167C347.52 136.287 348.183 135.369 348.62 134.412C349.058 133.455 349.276 132.452 349.276 131.404C349.276 129.235 348.395 127.285 346.631 125.553L347.349 124.821Z" fill="#00986B"/>
<path d="M74.9048 11.4429C74.9048 10.0483 75.2313 8.93604 75.8843 8.10596C76.5428 7.27035 77.4144 6.85254 78.499 6.85254C79.5228 6.85254 80.328 7.20947 80.9146 7.92334L81.0059 7.01855H82.8237V15.7261C82.8237 16.9048 82.4557 17.8345 81.7197 18.5151C80.9893 19.1958 80.0015 19.5361 78.7563 19.5361C78.0978 19.5361 77.4531 19.3978 76.8223 19.1211C76.1969 18.8499 75.721 18.493 75.3945 18.0503L76.3491 16.8384C76.9689 17.5744 77.7326 17.9424 78.6401 17.9424C79.3097 17.9424 79.8382 17.7598 80.2256 17.3945C80.613 17.0348 80.8066 16.5036 80.8066 15.8008V15.1948C80.2256 15.8423 79.4508 16.166 78.4824 16.166C77.431 16.166 76.5705 15.7482 75.9009 14.9126C75.2368 14.077 74.9048 12.9204 74.9048 11.4429ZM76.9136 11.6172C76.9136 12.5192 77.0962 13.2303 77.4614 13.7505C77.8322 14.2651 78.3441 14.5225 78.9971 14.5225C79.8105 14.5225 80.4137 14.1738 80.8066 13.4766V9.52539C80.4248 8.84473 79.8271 8.50439 79.0137 8.50439C78.3496 8.50439 77.8322 8.76725 77.4614 9.29297C77.0962 9.81868 76.9136 10.5934 76.9136 11.6172ZM89.6055 8.86133C89.3398 8.81706 89.0659 8.79492 88.7837 8.79492C87.8595 8.79492 87.237 9.14909 86.916 9.85742V16H84.8989V7.01855H86.8247L86.8745 8.02295C87.3615 7.24268 88.0366 6.85254 88.8999 6.85254C89.1877 6.85254 89.4256 6.89128 89.6138 6.96875L89.6055 8.86133ZM93.0254 16H91.0083V7.01855H93.0254V16ZM90.8838 4.68604C90.8838 4.37614 90.9806 4.11882 91.1743 3.91406C91.3735 3.70931 91.6558 3.60693 92.021 3.60693C92.3862 3.60693 92.6685 3.70931 92.8677 3.91406C93.0669 4.11882 93.1665 4.37614 93.1665 4.68604C93.1665 4.9904 93.0669 5.24495 92.8677 5.44971C92.6685 5.64893 92.3862 5.74854 92.021 5.74854C91.6558 5.74854 91.3735 5.64893 91.1743 5.44971C90.9806 5.24495 90.8838 4.9904 90.8838 4.68604ZM94.8516 11.4429C94.8516 10.0594 95.1725 8.94987 95.8145 8.11426C96.4564 7.27311 97.3169 6.85254 98.396 6.85254C99.3478 6.85254 100.117 7.18457 100.704 7.84863V3.25H102.721V16H100.895L100.795 15.0703C100.192 15.8008 99.3866 16.166 98.3794 16.166C97.328 16.166 96.4757 15.7427 95.8228 14.896C95.1753 14.0493 94.8516 12.8983 94.8516 11.4429ZM96.8687 11.6172C96.8687 12.5303 97.043 13.2441 97.3916 13.7588C97.7458 14.2679 98.2466 14.5225 98.894 14.5225C99.7186 14.5225 100.322 14.1545 100.704 13.4185V9.5835C100.333 8.8641 99.7352 8.50439 98.9106 8.50439C98.2576 8.50439 97.7541 8.76449 97.3999 9.28467C97.0457 9.79932 96.8687 10.5768 96.8687 11.6172ZM108.739 11.6753H104.381V10.0483H108.739V11.6753ZM112.931 4.83545V7.01855H114.516V8.5127H112.931V13.5264C112.931 13.8695 112.997 14.1185 113.13 14.2734C113.268 14.4229 113.512 14.4976 113.86 14.4976C114.093 14.4976 114.328 14.4699 114.566 14.4146V15.9751C114.107 16.1024 113.664 16.166 113.238 16.166C111.688 16.166 110.914 15.311 110.914 13.6011V8.5127H109.436V7.01855H110.914V4.83545H112.931ZM120.02 16.166C118.741 16.166 117.704 15.7648 116.907 14.9624C116.115 14.1545 115.72 13.0809 115.72 11.7417V11.4927C115.72 10.5962 115.891 9.79655 116.234 9.09375C116.583 8.38542 117.07 7.8348 117.695 7.44189C118.321 7.04899 119.018 6.85254 119.787 6.85254C121.01 6.85254 121.954 7.24268 122.618 8.02295C123.287 8.80322 123.622 9.90723 123.622 11.335V12.1484H117.753C117.814 12.89 118.061 13.4766 118.492 13.9082C118.929 14.3398 119.477 14.5557 120.136 14.5557C121.06 14.5557 121.812 14.1821 122.394 13.4351L123.481 14.4727C123.121 15.0094 122.64 15.4272 122.037 15.7261C121.439 16.0194 120.767 16.166 120.02 16.166ZM119.779 8.47119C119.225 8.47119 118.777 8.66488 118.434 9.05225C118.097 9.43962 117.881 9.97917 117.787 10.6709H121.63V10.5215C121.586 9.84635 121.406 9.33724 121.09 8.99414C120.775 8.64551 120.338 8.47119 119.779 8.47119ZM127.092 7.01855L127.15 7.95654C127.781 7.22054 128.644 6.85254 129.74 6.85254C130.941 6.85254 131.762 7.31185 132.205 8.23047C132.858 7.31185 133.777 6.85254 134.961 6.85254C135.951 6.85254 136.688 7.12646 137.169 7.67432C137.656 8.22217 137.905 9.03011 137.916 10.0981V16H135.899V10.1562C135.899 9.58626 135.774 9.16846 135.525 8.90283C135.276 8.63721 134.864 8.50439 134.289 8.50439C133.829 8.50439 133.453 8.62891 133.16 8.87793C132.872 9.12142 132.67 9.44238 132.554 9.84082L132.562 16H130.545V10.0898C130.517 9.03288 129.978 8.50439 128.926 8.50439C128.118 8.50439 127.546 8.83366 127.208 9.49219V16H125.191V7.01855H127.092ZM147.852 11.6006C147.852 12.9896 147.537 14.0991 146.906 14.9292C146.275 15.7537 145.428 16.166 144.366 16.166C143.381 16.166 142.592 15.8423 142 15.1948V19.4531H139.983V7.01855H141.842L141.925 7.93164C142.517 7.21224 143.323 6.85254 144.341 6.85254C145.437 6.85254 146.294 7.26204 146.914 8.08105C147.539 8.89453 147.852 10.0262 147.852 11.4761V11.6006ZM145.843 11.4263C145.843 10.5298 145.663 9.81868 145.304 9.29297C144.95 8.76725 144.44 8.50439 143.776 8.50439C142.952 8.50439 142.36 8.84473 142 9.52539V13.5098C142.365 14.207 142.963 14.5557 143.793 14.5557C144.435 14.5557 144.936 14.2983 145.295 13.7837C145.661 13.2635 145.843 12.4777 145.843 11.4263ZM151.712 16H149.695V3.25H151.712V16ZM159.282 16C159.194 15.8285 159.116 15.549 159.05 15.1616C158.408 15.8312 157.622 16.166 156.692 16.166C155.79 16.166 155.054 15.9087 154.484 15.394C153.914 14.8794 153.629 14.243 153.629 13.4849C153.629 12.5275 153.984 11.7943 154.692 11.2852C155.406 10.7705 156.424 10.5132 157.747 10.5132H158.983V9.92383C158.983 9.45898 158.853 9.08822 158.593 8.81152C158.333 8.5293 157.938 8.38818 157.406 8.38818C156.947 8.38818 156.571 8.50439 156.277 8.73682C155.984 8.9637 155.837 9.25423 155.837 9.6084H153.82C153.82 9.11589 153.984 8.65658 154.31 8.23047C154.637 7.79883 155.079 7.46126 155.638 7.21777C156.203 6.97428 156.831 6.85254 157.522 6.85254C158.574 6.85254 159.412 7.11816 160.038 7.64941C160.663 8.17513 160.984 8.91667 161 9.87402V13.9248C161 14.7327 161.114 15.3774 161.341 15.8589V16H159.282ZM157.066 14.5474C157.464 14.5474 157.838 14.4505 158.187 14.2568C158.541 14.0632 158.806 13.8031 158.983 13.4766V11.7832H157.896C157.149 11.7832 156.587 11.9132 156.211 12.1733C155.835 12.4334 155.646 12.8014 155.646 13.2773C155.646 13.6647 155.774 13.9746 156.028 14.207C156.288 14.4339 156.634 14.5474 157.066 14.5474ZM165.641 4.83545V7.01855H167.226V8.5127H165.641V13.5264C165.641 13.8695 165.707 14.1185 165.84 14.2734C165.978 14.4229 166.222 14.4976 166.57 14.4976C166.803 14.4976 167.038 14.4699 167.276 14.4146V15.9751C166.817 16.1024 166.374 16.166 165.948 16.166C164.398 16.166 163.624 15.311 163.624 13.6011V8.5127H162.146V7.01855H163.624V4.83545H165.641ZM172.729 16.166C171.451 16.166 170.414 15.7648 169.617 14.9624C168.825 14.1545 168.43 13.0809 168.43 11.7417V11.4927C168.43 10.5962 168.601 9.79655 168.944 9.09375C169.293 8.38542 169.78 7.8348 170.405 7.44189C171.031 7.04899 171.728 6.85254 172.497 6.85254C173.72 6.85254 174.664 7.24268 175.328 8.02295C175.997 8.80322 176.332 9.90723 176.332 11.335V12.1484H170.463C170.524 12.89 170.771 13.4766 171.202 13.9082C171.639 14.3398 172.187 14.5557 172.846 14.5557C173.77 14.5557 174.522 14.1821 175.104 13.4351L176.191 14.4727C175.831 15.0094 175.35 15.4272 174.747 15.7261C174.149 16.0194 173.477 16.166 172.729 16.166ZM172.489 8.47119C171.935 8.47119 171.487 8.66488 171.144 9.05225C170.806 9.43962 170.591 9.97917 170.497 10.6709H174.34V10.5215C174.296 9.84635 174.116 9.33724 173.8 8.99414C173.485 8.64551 173.048 8.47119 172.489 8.47119ZM181.819 11.6753H177.461V10.0483H181.819V11.6753ZM187.173 14.5557C187.676 14.5557 188.094 14.409 188.426 14.1157C188.758 13.8224 188.935 13.46 188.958 13.0283H190.858C190.836 13.5872 190.662 14.1102 190.335 14.5972C190.009 15.0786 189.566 15.4604 189.007 15.7427C188.448 16.0249 187.845 16.166 187.198 16.166C185.942 16.166 184.945 15.7593 184.209 14.9458C183.473 14.1323 183.105 13.009 183.105 11.5757V11.3682C183.105 10.0013 183.471 8.90837 184.201 8.08936C184.932 7.26481 185.928 6.85254 187.189 6.85254C188.257 6.85254 189.126 7.1652 189.796 7.79053C190.471 8.41032 190.825 9.22656 190.858 10.2393H188.958C188.935 9.72461 188.758 9.30127 188.426 8.96924C188.1 8.63721 187.682 8.47119 187.173 8.47119C186.52 8.47119 186.016 8.70915 185.662 9.18506C185.308 9.65544 185.128 10.3721 185.123 11.335V11.6587C185.123 12.6326 185.297 13.3604 185.646 13.8418C186 14.3177 186.509 14.5557 187.173 14.5557ZM192.004 11.4263C192.004 10.5464 192.178 9.75505 192.527 9.05225C192.875 8.34391 193.365 7.8016 193.996 7.42529C194.627 7.04346 195.352 6.85254 196.171 6.85254C197.383 6.85254 198.365 7.24268 199.118 8.02295C199.876 8.80322 200.285 9.83805 200.346 11.1274L200.354 11.6006C200.354 12.486 200.183 13.2773 199.84 13.9746C199.502 14.6719 199.015 15.2114 198.379 15.5933C197.748 15.9751 197.018 16.166 196.188 16.166C194.92 16.166 193.905 15.7454 193.141 14.9043C192.383 14.0576 192.004 12.9315 192.004 11.5259V11.4263ZM194.021 11.6006C194.021 12.5247 194.212 13.2497 194.594 13.7754C194.976 14.2956 195.507 14.5557 196.188 14.5557C196.868 14.5557 197.397 14.29 197.773 13.7588C198.155 13.2275 198.346 12.45 198.346 11.4263C198.346 10.5187 198.149 9.79932 197.756 9.26807C197.369 8.73682 196.84 8.47119 196.171 8.47119C195.512 8.47119 194.989 8.73405 194.602 9.25977C194.215 9.77995 194.021 10.5602 194.021 11.6006ZM204.206 16H202.189V3.25H204.206V16ZM211.851 15.1201C211.259 15.8174 210.418 16.166 209.328 16.166C208.354 16.166 207.615 15.881 207.111 15.311C206.613 14.741 206.364 13.9165 206.364 12.8374V7.01855H208.381V12.8125C208.381 13.9525 208.854 14.5225 209.801 14.5225C210.78 14.5225 211.442 14.1711 211.785 13.4683V7.01855H213.802V16H211.901L211.851 15.1201ZM217.753 7.01855L217.811 7.95654C218.442 7.22054 219.305 6.85254 220.401 6.85254C221.602 6.85254 222.424 7.31185 222.866 8.23047C223.519 7.31185 224.438 6.85254 225.622 6.85254C226.613 6.85254 227.349 7.12646 227.83 7.67432C228.317 8.22217 228.566 9.03011 228.577 10.0981V16H226.56V10.1562C226.56 9.58626 226.436 9.16846 226.187 8.90283C225.938 8.63721 225.525 8.50439 224.95 8.50439C224.49 8.50439 224.114 8.62891 223.821 8.87793C223.533 9.12142 223.331 9.44238 223.215 9.84082L223.223 16H221.206V10.0898C221.178 9.03288 220.639 8.50439 219.587 8.50439C218.779 8.50439 218.207 8.83366 217.869 9.49219V16H215.852V7.01855H217.753ZM232.52 7.01855L232.578 8.05615C233.242 7.25374 234.114 6.85254 235.193 6.85254C237.063 6.85254 238.015 7.92334 238.048 10.0649V16H236.031V10.1812C236.031 9.61117 235.907 9.19059 235.658 8.91943C235.414 8.64274 235.013 8.50439 234.454 8.50439C233.641 8.50439 233.035 8.8724 232.636 9.6084V16H230.619V7.01855H232.52ZM245.146 13.5596C245.146 13.1999 244.996 12.9259 244.697 12.7378C244.404 12.5496 243.914 12.3836 243.228 12.2397C242.542 12.0959 241.969 11.9132 241.51 11.6919C240.503 11.2049 239.999 10.4993 239.999 9.5752C239.999 8.80046 240.326 8.15299 240.979 7.63281C241.632 7.11263 242.462 6.85254 243.469 6.85254C244.542 6.85254 245.408 7.11816 246.067 7.64941C246.731 8.18066 247.063 8.86963 247.063 9.71631H245.046C245.046 9.32894 244.902 9.00798 244.614 8.75342C244.326 8.49333 243.945 8.36328 243.469 8.36328C243.026 8.36328 242.664 8.46566 242.381 8.67041C242.105 8.87516 241.966 9.14909 241.966 9.49219C241.966 9.80208 242.096 10.0428 242.356 10.2144C242.617 10.3859 243.142 10.5602 243.934 10.7373C244.725 10.9089 245.345 11.1164 245.793 11.3599C246.247 11.5978 246.582 11.8856 246.797 12.2231C247.019 12.5607 247.129 12.9702 247.129 13.4517C247.129 14.2596 246.795 14.9154 246.125 15.4189C245.455 15.917 244.578 16.166 243.494 16.166C242.758 16.166 242.102 16.0332 241.526 15.7676C240.951 15.502 240.503 15.1367 240.182 14.6719C239.861 14.207 239.7 13.7062 239.7 13.1694H241.659C241.687 13.6453 241.867 14.0133 242.199 14.2734C242.531 14.528 242.971 14.6553 243.519 14.6553C244.05 14.6553 244.454 14.5557 244.73 14.3564C245.007 14.1517 245.146 13.8861 245.146 13.5596ZM250.109 13.875C250.486 13.875 250.776 13.9829 250.981 14.1987C251.186 14.409 251.288 14.6746 251.288 14.9956C251.288 15.311 251.186 15.5739 250.981 15.7842C250.776 15.9889 250.486 16.0913 250.109 16.0913C249.75 16.0913 249.465 15.9889 249.254 15.7842C249.044 15.5794 248.939 15.3166 248.939 14.9956C248.939 14.6746 249.041 14.409 249.246 14.1987C249.451 13.9829 249.739 13.875 250.109 13.875ZM250.109 6.82764C250.486 6.82764 250.776 6.93555 250.981 7.15137C251.186 7.36165 251.288 7.62728 251.288 7.94824C251.288 8.26367 251.186 8.52653 250.981 8.73682C250.776 8.94157 250.486 9.04395 250.109 9.04395C249.75 9.04395 249.465 8.94157 249.254 8.73682C249.044 8.53206 248.939 8.26921 248.939 7.94824C248.939 7.62728 249.041 7.36165 249.246 7.15137C249.451 6.93555 249.739 6.82764 250.109 6.82764ZM564.8 6.82764C565.177 6.82764 565.467 6.93555 565.672 7.15137C565.877 7.36165 565.979 7.62728 565.979 7.94824C565.979 8.26367 565.877 8.52653 565.672 8.73682C565.467 8.94157 565.177 9.04395 564.8 9.04395C564.441 9.04395 564.156 8.94157 563.945 8.73682C563.735 8.53206 563.63 8.26921 563.63 7.94824C563.63 7.62728 563.732 7.36165 563.937 7.15137C564.142 6.93555 564.43 6.82764 564.8 6.82764ZM564.194 18.7227L563.107 18.0752C563.428 17.5716 563.646 17.1317 563.763 16.7554C563.884 16.3846 563.948 16.0055 563.954 15.6182V14.0493H565.771L565.763 15.502C565.758 16.0885 565.608 16.6751 565.315 17.2617C565.027 17.8538 564.654 18.3408 564.194 18.7227Z" fill="#222222"/>
<path d="M258.178 16V8.5127H256.808V7.01855H258.178V6.4043C258.183 5.7015 258.333 5.09831 258.626 4.59473C258.919 4.09115 259.334 3.71208 259.871 3.45752C260.408 3.20296 261.053 3.07568 261.805 3.07568C262.248 3.07568 262.671 3.12272 263.075 3.2168C263.485 3.31087 263.908 3.42985 264.345 3.57373L264.038 5.24219C263.274 4.97656 262.577 4.84375 261.946 4.84375C261.332 4.84375 260.887 4.97933 260.61 5.25049C260.333 5.51611 260.195 5.91732 260.195 6.4541V7.01855H261.963V8.5127H260.195V16H258.178ZM265.3 16H263.283V7.01855H265.3V16ZM270.064 4.83545V7.01855H271.65V8.5127H270.064V13.5264C270.064 13.8695 270.131 14.1185 270.264 14.2734C270.402 14.4229 270.646 14.4976 270.994 14.4976C271.227 14.4976 271.462 14.4699 271.7 14.4146V15.9751C271.24 16.1024 270.798 16.166 270.372 16.166C268.822 16.166 268.047 15.311 268.047 13.6011V8.5127H266.57V7.01855H268.047V4.83545H270.064ZM277.112 11.6753H272.754V10.0483H277.112V11.6753ZM282.466 14.5557C282.969 14.5557 283.387 14.409 283.719 14.1157C284.051 13.8224 284.228 13.46 284.25 13.0283H286.151C286.129 13.5872 285.955 14.1102 285.628 14.5972C285.302 15.0786 284.859 15.4604 284.3 15.7427C283.741 16.0249 283.138 16.166 282.491 16.166C281.235 16.166 280.238 15.7593 279.502 14.9458C278.766 14.1323 278.398 13.009 278.398 11.5757V11.3682C278.398 10.0013 278.764 8.90837 279.494 8.08936C280.225 7.26481 281.221 6.85254 282.482 6.85254C283.55 6.85254 284.419 7.1652 285.089 7.79053C285.764 8.41032 286.118 9.22656 286.151 10.2393H284.25C284.228 9.72461 284.051 9.30127 283.719 8.96924C283.393 8.63721 282.975 8.47119 282.466 8.47119C281.813 8.47119 281.309 8.70915 280.955 9.18506C280.601 9.65544 280.421 10.3721 280.416 11.335V11.6587C280.416 12.6326 280.59 13.3604 280.938 13.8418C281.293 14.3177 281.802 14.5557 282.466 14.5557ZM287.297 11.4263C287.297 10.5464 287.471 9.75505 287.82 9.05225C288.168 8.34391 288.658 7.8016 289.289 7.42529C289.92 7.04346 290.645 6.85254 291.464 6.85254C292.676 6.85254 293.658 7.24268 294.411 8.02295C295.169 8.80322 295.578 9.83805 295.639 11.1274L295.647 11.6006C295.647 12.486 295.476 13.2773 295.133 13.9746C294.795 14.6719 294.308 15.2114 293.672 15.5933C293.041 15.9751 292.311 16.166 291.48 16.166C290.213 16.166 289.198 15.7454 288.434 14.9043C287.676 14.0576 287.297 12.9315 287.297 11.5259V11.4263ZM289.314 11.6006C289.314 12.5247 289.505 13.2497 289.887 13.7754C290.269 14.2956 290.8 14.5557 291.48 14.5557C292.161 14.5557 292.69 14.29 293.066 13.7588C293.448 13.2275 293.639 12.45 293.639 11.4263C293.639 10.5187 293.442 9.79932 293.049 9.26807C292.662 8.73682 292.133 8.47119 291.464 8.47119C290.805 8.47119 290.282 8.73405 289.895 9.25977C289.508 9.77995 289.314 10.5602 289.314 11.6006ZM299.225 7.01855L299.283 8.05615C299.947 7.25374 300.819 6.85254 301.898 6.85254C303.768 6.85254 304.72 7.92334 304.753 10.0649V16H302.736V10.1812C302.736 9.61117 302.612 9.19059 302.363 8.91943C302.119 8.64274 301.718 8.50439 301.159 8.50439C300.346 8.50439 299.74 8.8724 299.341 9.6084V16H297.324V7.01855H299.225ZM309.344 4.83545V7.01855H310.929V8.5127H309.344V13.5264C309.344 13.8695 309.41 14.1185 309.543 14.2734C309.681 14.4229 309.925 14.4976 310.273 14.4976C310.506 14.4976 310.741 14.4699 310.979 14.4146V15.9751C310.52 16.1024 310.077 16.166 309.651 16.166C308.101 16.166 307.327 15.311 307.327 13.6011V8.5127H305.849V7.01855H307.327V4.83545H309.344ZM316.433 16.166C315.154 16.166 314.117 15.7648 313.32 14.9624C312.528 14.1545 312.133 13.0809 312.133 11.7417V11.4927C312.133 10.5962 312.304 9.79655 312.647 9.09375C312.996 8.38542 313.483 7.8348 314.108 7.44189C314.734 7.04899 315.431 6.85254 316.2 6.85254C317.423 6.85254 318.367 7.24268 319.031 8.02295C319.7 8.80322 320.035 9.90723 320.035 11.335V12.1484H314.167C314.227 12.89 314.474 13.4766 314.905 13.9082C315.342 14.3398 315.89 14.5557 316.549 14.5557C317.473 14.5557 318.226 14.1821 318.807 13.4351L319.894 14.4727C319.534 15.0094 319.053 15.4272 318.45 15.7261C317.852 16.0194 317.18 16.166 316.433 16.166ZM316.192 8.47119C315.639 8.47119 315.19 8.66488 314.847 9.05225C314.51 9.43962 314.294 9.97917 314.2 10.6709H318.043V10.5215C317.999 9.84635 317.819 9.33724 317.503 8.99414C317.188 8.64551 316.751 8.47119 316.192 8.47119ZM323.48 7.01855L323.538 8.05615C324.202 7.25374 325.074 6.85254 326.153 6.85254C328.023 6.85254 328.975 7.92334 329.008 10.0649V16H326.991V10.1812C326.991 9.61117 326.867 9.19059 326.618 8.91943C326.374 8.64274 325.973 8.50439 325.414 8.50439C324.601 8.50439 323.995 8.8724 323.596 9.6084V16H321.579V7.01855H323.48ZM333.599 4.83545V7.01855H335.184V8.5127H333.599V13.5264C333.599 13.8695 333.665 14.1185 333.798 14.2734C333.936 14.4229 334.18 14.4976 334.528 14.4976C334.761 14.4976 334.996 14.4699 335.234 14.4146V15.9751C334.775 16.1024 334.332 16.166 333.906 16.166C332.356 16.166 331.582 15.311 331.582 13.6011V8.5127H330.104V7.01855H331.582V4.83545H333.599ZM336.761 11.0859C336.761 9.80762 336.933 8.5957 337.276 7.4502C337.619 6.29915 338.123 5.27262 338.787 4.37061C339.451 3.46305 340.153 2.82666 340.895 2.46143L341.293 3.64014C340.513 4.23226 339.88 5.13704 339.393 6.35449C338.911 7.56641 338.648 8.9554 338.604 10.5215L338.596 11.2354C338.596 12.9121 338.831 14.409 339.301 15.7261C339.777 17.0376 340.441 18.0365 341.293 18.7227L340.895 19.8433C340.153 19.478 339.448 18.8389 338.778 17.9258C338.114 17.0182 337.611 15.9945 337.268 14.8545C336.93 13.709 336.761 12.4528 336.761 11.0859ZM344.863 9.03564H346.091C346.711 9.03011 347.201 8.86963 347.561 8.5542C347.926 8.23877 348.108 7.78223 348.108 7.18457C348.108 6.60905 347.956 6.16357 347.652 5.84814C347.353 5.52718 346.894 5.3667 346.274 5.3667C345.732 5.3667 345.286 5.52441 344.938 5.83984C344.589 6.14974 344.415 6.55648 344.415 7.06006H342.397C342.397 6.44027 342.561 5.87581 342.887 5.3667C343.219 4.85758 343.679 4.46191 344.265 4.17969C344.857 3.89193 345.519 3.74805 346.249 3.74805C347.455 3.74805 348.402 4.05241 349.088 4.66113C349.78 5.26432 350.125 6.10547 350.125 7.18457C350.125 7.72689 349.951 8.23877 349.603 8.72021C349.259 9.19613 348.814 9.55583 348.266 9.79932C348.93 10.0262 349.434 10.3831 349.777 10.8701C350.125 11.3571 350.3 11.9382 350.3 12.6133C350.3 13.6979 349.926 14.5612 349.179 15.2031C348.438 15.8451 347.461 16.166 346.249 16.166C345.087 16.166 344.135 15.8561 343.394 15.2363C342.652 14.6165 342.281 13.792 342.281 12.7627H344.298C344.298 13.2939 344.475 13.7256 344.83 14.0576C345.189 14.3896 345.671 14.5557 346.274 14.5557C346.899 14.5557 347.392 14.3896 347.751 14.0576C348.111 13.7256 348.291 13.2441 348.291 12.6133C348.291 11.9769 348.103 11.4871 347.727 11.144C347.35 10.8009 346.791 10.6294 346.05 10.6294H344.863V9.03564ZM360.07 10.9116C360.07 12.6493 359.743 13.9608 359.09 14.8462C358.443 15.7261 357.455 16.166 356.127 16.166C354.821 16.166 353.836 15.7371 353.172 14.8794C352.513 14.0161 352.176 12.7406 352.159 11.0527V8.96094C352.159 7.22331 352.483 5.92008 353.13 5.05127C353.783 4.18245 354.777 3.74805 356.11 3.74805C357.433 3.74805 358.418 4.17139 359.065 5.01807C359.718 5.86475 360.053 7.132 360.07 8.81982V10.9116ZM358.053 8.65381C358.053 7.51937 357.898 6.68929 357.588 6.16357C357.278 5.63232 356.785 5.3667 356.11 5.3667C355.452 5.3667 354.968 5.61849 354.658 6.12207C354.348 6.62012 354.185 7.40039 354.168 8.46289V11.2021C354.168 12.3311 354.326 13.1722 354.641 13.7256C354.957 14.279 355.452 14.5557 356.127 14.5557C356.774 14.5557 357.253 14.3011 357.563 13.792C357.873 13.2773 358.036 12.4749 358.053 11.3848V8.65381ZM369.732 10.9116C369.732 12.6493 369.405 13.9608 368.752 14.8462C368.105 15.7261 367.117 16.166 365.789 16.166C364.483 16.166 363.498 15.7371 362.834 14.8794C362.175 14.0161 361.838 12.7406 361.821 11.0527V8.96094C361.821 7.22331 362.145 5.92008 362.792 5.05127C363.445 4.18245 364.439 3.74805 365.772 3.74805C367.095 3.74805 368.08 4.17139 368.728 5.01807C369.381 5.86475 369.715 7.132 369.732 8.81982V10.9116ZM367.715 8.65381C367.715 7.51937 367.56 6.68929 367.25 6.16357C366.94 5.63232 366.448 5.3667 365.772 5.3667C365.114 5.3667 364.63 5.61849 364.32 6.12207C364.01 6.62012 363.847 7.40039 363.83 8.46289V11.2021C363.83 12.3311 363.988 13.1722 364.303 13.7256C364.619 14.279 365.114 14.5557 365.789 14.5557C366.437 14.5557 366.915 14.3011 367.225 13.792C367.535 13.2773 367.698 12.4749 367.715 11.3848V8.65381ZM379.51 11.6006C379.51 12.9896 379.195 14.0991 378.564 14.9292C377.933 15.7537 377.086 16.166 376.024 16.166C375.039 16.166 374.25 15.8423 373.658 15.1948V19.4531H371.641V7.01855H373.5L373.583 7.93164C374.176 7.21224 374.981 6.85254 375.999 6.85254C377.095 6.85254 377.952 7.26204 378.572 8.08105C379.198 8.89453 379.51 10.0262 379.51 11.4761V11.6006ZM377.501 11.4263C377.501 10.5298 377.322 9.81868 376.962 9.29297C376.608 8.76725 376.099 8.50439 375.435 8.50439C374.61 8.50439 374.018 8.84473 373.658 9.52539V13.5098C374.023 14.207 374.621 14.5557 375.451 14.5557C376.093 14.5557 376.594 14.2983 376.954 13.7837C377.319 13.2635 377.501 12.4777 377.501 11.4263ZM384.316 9.97363L386.026 7.01855H388.268L385.52 11.4429L388.359 16H386.134L384.341 12.9287L382.557 16H380.315L383.154 11.4429L380.415 7.01855H382.64L384.316 9.97363ZM393.53 11.2188C393.53 12.4473 393.361 13.6343 393.024 14.7798C392.686 15.9198 392.174 16.9574 391.488 17.8926C390.802 18.8333 390.085 19.4836 389.338 19.8433L388.94 18.7227C389.77 18.0807 390.426 17.1012 390.907 15.7842C391.394 14.4616 391.638 12.9536 391.638 11.2603V11.0693C391.638 9.53092 391.427 8.13086 391.007 6.86914C390.586 5.60189 389.983 4.58643 389.197 3.82275L388.94 3.59033L389.338 2.46143C390.047 2.80452 390.733 3.41325 391.397 4.2876C392.061 5.16195 392.57 6.14144 392.924 7.22607C393.278 8.30518 393.478 9.42025 393.522 10.5713L393.53 11.2188Z" fill="#1E73FF"/>
<path d="M400.403 16V8.5127H399.034V7.01855H400.403V6.4043C400.409 5.7015 400.558 5.09831 400.852 4.59473C401.145 4.09115 401.56 3.71208 402.097 3.45752C402.633 3.20296 403.278 3.07568 404.031 3.07568C404.473 3.07568 404.897 3.12272 405.301 3.2168C405.71 3.31087 406.134 3.42985 406.571 3.57373L406.264 5.24219C405.5 4.97656 404.803 4.84375 404.172 4.84375C403.558 4.84375 403.112 4.97933 402.835 5.25049C402.559 5.51611 402.42 5.91732 402.42 6.4541V7.01855H404.188V8.5127H402.42V16H400.403ZM407.525 16H405.508V7.01855H407.525V16ZM412.29 4.83545V7.01855H413.875V8.5127H412.29V13.5264C412.29 13.8695 412.356 14.1185 412.489 14.2734C412.628 14.4229 412.871 14.4976 413.22 14.4976C413.452 14.4976 413.687 14.4699 413.925 14.4146V15.9751C413.466 16.1024 413.023 16.166 412.597 16.166C411.048 16.166 410.273 15.311 410.273 13.6011V8.5127H408.795V7.01855H410.273V4.83545H412.29ZM419.337 11.6753H414.979V10.0483H419.337V11.6753ZM424.691 14.5557C425.195 14.5557 425.613 14.409 425.945 14.1157C426.277 13.8224 426.454 13.46 426.476 13.0283H428.377C428.355 13.5872 428.181 14.1102 427.854 14.5972C427.528 15.0786 427.085 15.4604 426.526 15.7427C425.967 16.0249 425.364 16.166 424.716 16.166C423.46 16.166 422.464 15.7593 421.728 14.9458C420.992 14.1323 420.624 13.009 420.624 11.5757V11.3682C420.624 10.0013 420.989 8.90837 421.72 8.08936C422.45 7.26481 423.446 6.85254 424.708 6.85254C425.776 6.85254 426.645 7.1652 427.314 7.79053C427.99 8.41032 428.344 9.22656 428.377 10.2393H426.476C426.454 9.72461 426.277 9.30127 425.945 8.96924C425.618 8.63721 425.201 8.47119 424.691 8.47119C424.038 8.47119 423.535 8.70915 423.181 9.18506C422.826 9.65544 422.647 10.3721 422.641 11.335V11.6587C422.641 12.6326 422.815 13.3604 423.164 13.8418C423.518 14.3177 424.027 14.5557 424.691 14.5557ZM429.522 11.4263C429.522 10.5464 429.697 9.75505 430.045 9.05225C430.394 8.34391 430.884 7.8016 431.515 7.42529C432.146 7.04346 432.87 6.85254 433.689 6.85254C434.901 6.85254 435.884 7.24268 436.636 8.02295C437.394 8.80322 437.804 9.83805 437.865 11.1274L437.873 11.6006C437.873 12.486 437.701 13.2773 437.358 13.9746C437.021 14.6719 436.534 15.2114 435.897 15.5933C435.267 15.9751 434.536 16.166 433.706 16.166C432.439 16.166 431.423 15.7454 430.66 14.9043C429.902 14.0576 429.522 12.9315 429.522 11.5259V11.4263ZM431.54 11.6006C431.54 12.5247 431.73 13.2497 432.112 13.7754C432.494 14.2956 433.025 14.5557 433.706 14.5557C434.387 14.5557 434.915 14.29 435.292 13.7588C435.673 13.2275 435.864 12.45 435.864 11.4263C435.864 10.5187 435.668 9.79932 435.275 9.26807C434.888 8.73682 434.359 8.47119 433.689 8.47119C433.031 8.47119 432.508 8.73405 432.121 9.25977C431.733 9.77995 431.54 10.5602 431.54 11.6006ZM441.451 7.01855L441.509 8.05615C442.173 7.25374 443.044 6.85254 444.124 6.85254C445.994 6.85254 446.946 7.92334 446.979 10.0649V16H444.962V10.1812C444.962 9.61117 444.837 9.19059 444.588 8.91943C444.345 8.64274 443.944 8.50439 443.385 8.50439C442.571 8.50439 441.965 8.8724 441.567 9.6084V16H439.55V7.01855H441.451ZM451.569 4.83545V7.01855H453.155V8.5127H451.569V13.5264C451.569 13.8695 451.636 14.1185 451.769 14.2734C451.907 14.4229 452.15 14.4976 452.499 14.4976C452.731 14.4976 452.967 14.4699 453.205 14.4146V15.9751C452.745 16.1024 452.303 16.166 451.876 16.166C450.327 16.166 449.552 15.311 449.552 13.6011V8.5127H448.075V7.01855H449.552V4.83545H451.569ZM458.658 16.166C457.38 16.166 456.342 15.7648 455.545 14.9624C454.754 14.1545 454.358 13.0809 454.358 11.7417V11.4927C454.358 10.5962 454.53 9.79655 454.873 9.09375C455.222 8.38542 455.709 7.8348 456.334 7.44189C456.959 7.04899 457.657 6.85254 458.426 6.85254C459.649 6.85254 460.592 7.24268 461.256 8.02295C461.926 8.80322 462.261 9.90723 462.261 11.335V12.1484H456.392C456.453 12.89 456.699 13.4766 457.131 13.9082C457.568 14.3398 458.116 14.5557 458.774 14.5557C459.699 14.5557 460.451 14.1821 461.032 13.4351L462.12 14.4727C461.76 15.0094 461.278 15.4272 460.675 15.7261C460.078 16.0194 459.405 16.166 458.658 16.166ZM458.417 8.47119C457.864 8.47119 457.416 8.66488 457.073 9.05225C456.735 9.43962 456.519 9.97917 456.425 10.6709H460.269V10.5215C460.224 9.84635 460.044 9.33724 459.729 8.99414C459.414 8.64551 458.976 8.47119 458.417 8.47119ZM465.706 7.01855L465.764 8.05615C466.428 7.25374 467.299 6.85254 468.378 6.85254C470.249 6.85254 471.201 7.92334 471.234 10.0649V16H469.217V10.1812C469.217 9.61117 469.092 9.19059 468.843 8.91943C468.6 8.64274 468.199 8.50439 467.64 8.50439C466.826 8.50439 466.22 8.8724 465.822 9.6084V16H463.805V7.01855H465.706ZM475.824 4.83545V7.01855H477.41V8.5127H475.824V13.5264C475.824 13.8695 475.891 14.1185 476.023 14.2734C476.162 14.4229 476.405 14.4976 476.754 14.4976C476.986 14.4976 477.222 14.4699 477.459 14.4146V15.9751C477 16.1024 476.557 16.166 476.131 16.166C474.582 16.166 473.807 15.311 473.807 13.6011V8.5127H472.33V7.01855H473.807V4.83545H475.824ZM478.987 11.0859C478.987 9.80762 479.158 8.5957 479.501 7.4502C479.845 6.29915 480.348 5.27262 481.012 4.37061C481.676 3.46305 482.379 2.82666 483.121 2.46143L483.519 3.64014C482.739 4.23226 482.105 5.13704 481.618 6.35449C481.137 7.56641 480.874 8.9554 480.83 10.5215L480.821 11.2354C480.821 12.9121 481.056 14.409 481.527 15.7261C482.003 17.0376 482.667 18.0365 483.519 18.7227L483.121 19.8433C482.379 19.478 481.674 18.8389 481.004 17.9258C480.34 17.0182 479.836 15.9945 479.493 14.8545C479.156 13.709 478.987 12.4528 478.987 11.0859ZM487.088 9.03564H488.317C488.937 9.03011 489.426 8.86963 489.786 8.5542C490.151 8.23877 490.334 7.78223 490.334 7.18457C490.334 6.60905 490.182 6.16357 489.877 5.84814C489.579 5.52718 489.119 5.3667 488.5 5.3667C487.957 5.3667 487.512 5.52441 487.163 5.83984C486.814 6.14974 486.64 6.55648 486.64 7.06006H484.623C484.623 6.44027 484.786 5.87581 485.113 5.3667C485.445 4.85758 485.904 4.46191 486.491 4.17969C487.083 3.89193 487.744 3.74805 488.475 3.74805C489.681 3.74805 490.627 4.05241 491.313 4.66113C492.005 5.26432 492.351 6.10547 492.351 7.18457C492.351 7.72689 492.177 8.23877 491.828 8.72021C491.485 9.19613 491.04 9.55583 490.492 9.79932C491.156 10.0262 491.659 10.3831 492.002 10.8701C492.351 11.3571 492.525 11.9382 492.525 12.6133C492.525 13.6979 492.152 14.5612 491.405 15.2031C490.663 15.8451 489.687 16.166 488.475 16.166C487.312 16.166 486.361 15.8561 485.619 15.2363C484.878 14.6165 484.507 13.792 484.507 12.7627H486.524C486.524 13.2939 486.701 13.7256 487.055 14.0576C487.415 14.3896 487.896 14.5557 488.5 14.5557C489.125 14.5557 489.617 14.3896 489.977 14.0576C490.337 13.7256 490.517 13.2441 490.517 12.6133C490.517 11.9769 490.328 11.4871 489.952 11.144C489.576 10.8009 489.017 10.6294 488.275 10.6294H487.088V9.03564ZM502.295 10.9116C502.295 12.6493 501.969 13.9608 501.316 14.8462C500.668 15.7261 499.681 16.166 498.353 16.166C497.047 16.166 496.062 15.7371 495.397 14.8794C494.739 14.0161 494.401 12.7406 494.385 11.0527V8.96094C494.385 7.22331 494.708 5.92008 495.356 5.05127C496.009 4.18245 497.002 3.74805 498.336 3.74805C499.659 3.74805 500.644 4.17139 501.291 5.01807C501.944 5.86475 502.279 7.132 502.295 8.81982V10.9116ZM500.278 8.65381C500.278 7.51937 500.123 6.68929 499.813 6.16357C499.504 5.63232 499.011 5.3667 498.336 5.3667C497.677 5.3667 497.193 5.61849 496.883 6.12207C496.573 6.62012 496.41 7.40039 496.394 8.46289V11.2021C496.394 12.3311 496.551 13.1722 496.867 13.7256C497.182 14.279 497.677 14.5557 498.353 14.5557C499 14.5557 499.479 14.3011 499.789 13.792C500.098 13.2773 500.262 12.4749 500.278 11.3848V8.65381ZM511.958 10.9116C511.958 12.6493 511.631 13.9608 510.978 14.8462C510.331 15.7261 509.343 16.166 508.015 16.166C506.709 16.166 505.724 15.7371 505.06 14.8794C504.401 14.0161 504.063 12.7406 504.047 11.0527V8.96094C504.047 7.22331 504.371 5.92008 505.018 5.05127C505.671 4.18245 506.664 3.74805 507.998 3.74805C509.321 3.74805 510.306 4.17139 510.953 5.01807C511.606 5.86475 511.941 7.132 511.958 8.81982V10.9116ZM509.94 8.65381C509.94 7.51937 509.785 6.68929 509.476 6.16357C509.166 5.63232 508.673 5.3667 507.998 5.3667C507.34 5.3667 506.855 5.61849 506.545 6.12207C506.236 6.62012 506.072 7.40039 506.056 8.46289V11.2021C506.056 12.3311 506.213 13.1722 506.529 13.7256C506.844 14.279 507.34 14.5557 508.015 14.5557C508.662 14.5557 509.141 14.3011 509.451 13.792C509.761 13.2773 509.924 12.4749 509.94 11.3848V8.65381ZM521.736 11.6006C521.736 12.9896 521.42 14.0991 520.79 14.9292C520.159 15.7537 519.312 16.166 518.25 16.166C517.264 16.166 516.476 15.8423 515.884 15.1948V19.4531H513.867V7.01855H515.726L515.809 7.93164C516.401 7.21224 517.206 6.85254 518.225 6.85254C519.32 6.85254 520.178 7.26204 520.798 8.08105C521.423 8.89453 521.736 10.0262 521.736 11.4761V11.6006ZM519.727 11.4263C519.727 10.5298 519.547 9.81868 519.188 9.29297C518.833 8.76725 518.324 8.50439 517.66 8.50439C516.836 8.50439 516.243 8.84473 515.884 9.52539V13.5098C516.249 14.207 516.847 14.5557 517.677 14.5557C518.319 14.5557 518.819 14.2983 519.179 13.7837C519.544 13.2635 519.727 12.4777 519.727 11.4263ZM526.542 9.97363L528.252 7.01855H530.493L527.746 11.4429L530.584 16H528.36L526.567 12.9287L524.782 16H522.541L525.38 11.4429L522.641 7.01855H524.865L526.542 9.97363ZM535.756 11.2188C535.756 12.4473 535.587 13.6343 535.25 14.7798C534.912 15.9198 534.4 16.9574 533.714 17.8926C533.028 18.8333 532.311 19.4836 531.564 19.8433L531.166 18.7227C531.996 18.0807 532.651 17.1012 533.133 15.7842C533.62 14.4616 533.863 12.9536 533.863 11.2603V11.0693C533.863 9.53092 533.653 8.13086 533.232 6.86914C532.812 5.60189 532.209 4.58643 531.423 3.82275L531.166 3.59033L531.564 2.46143C532.272 2.80452 532.958 3.41325 533.623 4.2876C534.287 5.16195 534.796 6.14144 535.15 7.22607C535.504 8.30518 535.703 9.42025 535.748 10.5713L535.756 11.2188Z" fill="#00986B"/>
<path d="M547.427 16H545.418V6.29639L542.455 7.30908V5.60742L547.169 3.87256H547.427V16ZM552.465 16V8.5127H551.096V7.01855H552.465V6.19678C552.465 5.20068 552.742 4.43148 553.295 3.88916C553.849 3.34684 554.624 3.07568 555.62 3.07568C555.974 3.07568 556.35 3.12549 556.749 3.2251L556.699 4.80225C556.477 4.75798 556.22 4.73584 555.927 4.73584C554.964 4.73584 554.482 5.23112 554.482 6.22168V7.01855H556.309V8.5127H554.482V16H552.465ZM562.484 8.86133C562.219 8.81706 561.945 8.79492 561.663 8.79492C560.738 8.79492 560.116 9.14909 559.795 9.85742V16H557.778V7.01855H559.704L559.753 8.02295C560.24 7.24268 560.916 6.85254 561.779 6.85254C562.067 6.85254 562.305 6.89128 562.493 6.96875L562.484 8.86133Z" fill="#B72DF8"/>
</svg>
