<svg width="446" height="214" viewBox="0 0 446 214" fill="none" xmlns="http://www.w3.org/2000/svg">
<rect width="446" height="214" fill="#F7F7F7"/>
<path d="M37 207C37 208.105 36.1046 209 35 209L21 209C19.8954 209 19 208.105 19 207L19 197.814C19 197.283 19.2112 196.774 19.587 196.399L26.587 189.411C27.3678 188.631 28.6323 188.631 29.413 189.411L36.413 196.399C36.7888 196.774 37 197.283 37 197.814L37 207Z" fill="#DDDDDD"/>
<path d="M26.1133 201.947H23.0371V200.799H26.1133V201.947ZM32.0137 201.959H33.0742V203.102H32.0137V205H30.5898V203.102H26.9043L26.8633 202.234L30.543 196.469H32.0137V201.959ZM28.3574 201.959H30.5898V198.396L30.4844 198.584L28.3574 201.959Z" fill="white"/>
<path d="M166 207C166 208.105 165.105 209 164 209L150 209C148.895 209 148 208.105 148 207L148 197.814C148 197.283 148.211 196.774 148.587 196.399L155.587 189.411C156.368 188.631 157.632 188.631 158.413 189.411L165.413 196.399C165.789 196.774 166 197.283 166 197.814L166 207Z" fill="#DDDDDD"/>
<path d="M155.113 201.947H152.037V200.799H155.113V201.947ZM157.844 200.084H158.711C159.148 200.08 159.494 199.967 159.748 199.744C160.006 199.521 160.135 199.199 160.135 198.777C160.135 198.371 160.027 198.057 159.812 197.834C159.602 197.607 159.277 197.494 158.84 197.494C158.457 197.494 158.143 197.605 157.896 197.828C157.65 198.047 157.527 198.334 157.527 198.689H156.104C156.104 198.252 156.219 197.854 156.449 197.494C156.684 197.135 157.008 196.855 157.422 196.656C157.84 196.453 158.307 196.352 158.822 196.352C159.674 196.352 160.342 196.566 160.826 196.996C161.314 197.422 161.559 198.016 161.559 198.777C161.559 199.16 161.436 199.521 161.189 199.861C160.947 200.197 160.633 200.451 160.246 200.623C160.715 200.783 161.07 201.035 161.312 201.379C161.559 201.723 161.682 202.133 161.682 202.609C161.682 203.375 161.418 203.984 160.891 204.438C160.367 204.891 159.678 205.117 158.822 205.117C158.002 205.117 157.33 204.898 156.807 204.461C156.283 204.023 156.021 203.441 156.021 202.715H157.445C157.445 203.09 157.57 203.395 157.82 203.629C158.074 203.863 158.414 203.98 158.84 203.98C159.281 203.98 159.629 203.863 159.883 203.629C160.137 203.395 160.264 203.055 160.264 202.609C160.264 202.16 160.131 201.814 159.865 201.572C159.6 201.33 159.205 201.209 158.682 201.209H157.844V200.084Z" fill="white"/>
<path d="M298 207C298 208.105 297.105 209 296 209L282 209C280.895 209 280 208.105 280 207L280 197.814C280 197.283 280.211 196.774 280.587 196.399L287.587 189.411C288.368 188.631 289.632 188.631 290.413 189.411L297.413 196.399C297.789 196.774 298 197.283 298 197.814L298 207Z" fill="#DDDDDD"/>
<path d="M287.113 201.947H284.037V200.799H287.113V201.947ZM293.934 205H288.197V204.021L291.039 200.922C291.449 200.465 291.74 200.084 291.912 199.779C292.088 199.471 292.176 199.162 292.176 198.854C292.176 198.447 292.061 198.119 291.83 197.869C291.604 197.619 291.297 197.494 290.91 197.494C290.449 197.494 290.092 197.635 289.838 197.916C289.584 198.197 289.457 198.582 289.457 199.07H288.033C288.033 198.551 288.15 198.084 288.385 197.67C288.623 197.252 288.961 196.928 289.398 196.697C289.84 196.467 290.348 196.352 290.922 196.352C291.75 196.352 292.402 196.561 292.879 196.979C293.359 197.393 293.6 197.967 293.6 198.701C293.6 199.127 293.479 199.574 293.236 200.043C292.998 200.508 292.605 201.037 292.059 201.631L289.973 203.863H293.934V205Z" fill="white"/>
<path d="M427 207C427 208.105 426.105 209 425 209L411 209C409.895 209 409 208.105 409 207L409 197.814C409 197.283 409.211 196.774 409.587 196.399L416.587 189.411C417.368 188.631 418.632 188.631 419.413 189.411L426.413 196.399C426.789 196.774 427 197.283 427 197.814L427 207Z" fill="#DDDDDD"/>
<path d="M416.113 201.947H413.037V200.799H416.113V201.947ZM421.053 205H419.635V198.15L417.543 198.865V197.664L420.871 196.439H421.053V205Z" fill="white"/>
<path d="M19 7C19 5.89543 19.8954 5 21 5H35C36.1046 5 37 5.89543 37 7V16.1857C37 16.7167 36.7888 17.2259 36.413 17.6011L29.413 24.5894C28.6323 25.3688 27.3677 25.3688 26.587 24.5894L19.587 17.6011C19.2112 17.2259 19 16.7167 19 16.1857V7Z" fill="#CCCCCC"/>
<path d="M29.084 17H27.666V10.1504L25.5742 10.8652V9.66406L28.9023 8.43945H29.084V17Z" fill="white"/>
<path d="M148 7C148 5.89543 148.895 5 150 5H164C165.105 5 166 5.89543 166 7V16.1857C166 16.7167 165.789 17.2259 165.413 17.6011L158.413 24.5894C157.632 25.3688 156.368 25.3688 155.587 24.5894L148.587 17.6011C148.211 17.2259 148 16.7167 148 16.1857V7Z" fill="#CCCCCC"/>
<path d="M159.965 17H154.229V16.0215L157.07 12.9219C157.48 12.4648 157.771 12.084 157.943 11.7793C158.119 11.4707 158.207 11.1621 158.207 10.8535C158.207 10.4473 158.092 10.1191 157.861 9.86914C157.635 9.61914 157.328 9.49414 156.941 9.49414C156.48 9.49414 156.123 9.63477 155.869 9.91602C155.615 10.1973 155.488 10.582 155.488 11.0703H154.064C154.064 10.5508 154.182 10.084 154.416 9.66992C154.654 9.25195 154.992 8.92773 155.43 8.69727C155.871 8.4668 156.379 8.35156 156.953 8.35156C157.781 8.35156 158.434 8.56055 158.91 8.97852C159.391 9.39258 159.631 9.9668 159.631 10.7012C159.631 11.127 159.51 11.5742 159.268 12.043C159.029 12.5078 158.637 13.0371 158.09 13.6309L156.004 15.8633H159.965V17Z" fill="white"/>
<path d="M280 7C280 5.89543 280.895 5 282 5H296C297.105 5 298 5.89543 298 7V16.1857C298 16.7167 297.789 17.2259 297.413 17.6011L290.413 24.5894C289.632 25.3688 288.368 25.3688 287.587 24.5894L280.587 17.6011C280.211 17.2259 280 16.7167 280 16.1857V7Z" fill="#CCCCCC"/>
<path d="M287.875 12.084H288.742C289.18 12.0801 289.525 11.9668 289.779 11.7441C290.037 11.5215 290.166 11.1992 290.166 10.7773C290.166 10.3711 290.059 10.0566 289.844 9.83398C289.633 9.60742 289.309 9.49414 288.871 9.49414C288.488 9.49414 288.174 9.60547 287.928 9.82812C287.682 10.0469 287.559 10.334 287.559 10.6895H286.135C286.135 10.252 286.25 9.85352 286.48 9.49414C286.715 9.13477 287.039 8.85547 287.453 8.65625C287.871 8.45312 288.338 8.35156 288.854 8.35156C289.705 8.35156 290.373 8.56641 290.857 8.99609C291.346 9.42188 291.59 10.0156 291.59 10.7773C291.59 11.1602 291.467 11.5215 291.221 11.8613C290.979 12.1973 290.664 12.4512 290.277 12.623C290.746 12.7832 291.102 13.0352 291.344 13.3789C291.59 13.7227 291.713 14.1328 291.713 14.6094C291.713 15.375 291.449 15.9844 290.922 16.4375C290.398 16.8906 289.709 17.1172 288.854 17.1172C288.033 17.1172 287.361 16.8984 286.838 16.4609C286.314 16.0234 286.053 15.4414 286.053 14.7148H287.477C287.477 15.0898 287.602 15.3945 287.852 15.6289C288.105 15.8633 288.445 15.9805 288.871 15.9805C289.312 15.9805 289.66 15.8633 289.914 15.6289C290.168 15.3945 290.295 15.0547 290.295 14.6094C290.295 14.1602 290.162 13.8145 289.896 13.5723C289.631 13.3301 289.236 13.209 288.713 13.209H287.875V12.084Z" fill="white"/>
<path d="M409 7C409 5.89543 409.895 5 411 5H425C426.105 5 427 5.89543 427 7V16.1857C427 16.7167 426.789 17.2259 426.413 17.6011L419.413 24.5894C418.632 25.3688 417.368 25.3688 416.587 24.5894L409.587 17.6011C409.211 17.2259 409 16.7167 409 16.1857V7Z" fill="#CCCCCC"/>
<path d="M420.045 13.959H421.105V15.1016H420.045V17H418.621V15.1016H414.936L414.895 14.2344L418.574 8.46875H420.045V13.959ZM416.389 13.959H418.621V10.3965L418.516 10.584L416.389 13.959Z" fill="white"/>
<path d="M7 37C5.89543 37 5 36.1046 5 35L5 21C5 19.8954 5.89543 19 7 19L16.1857 19C16.7167 19 17.2259 19.2112 17.6011 19.587L24.5894 26.587C25.3688 27.3677 25.3688 28.6323 24.5894 29.413L17.6011 36.413C17.2259 36.7888 16.7167 37 16.1857 37L7 37Z" fill="#CCCCCC"/>
<path d="M14.084 32H12.666V25.1504L10.5742 25.8652V24.6641L13.9023 23.4395H14.084V32Z" fill="white"/>
<path d="M7 116C5.89543 116 5 115.105 5 114L5 100C5 98.8954 5.89543 98 7 98L16.1857 98C16.7167 98 17.2259 98.2112 17.6011 98.587L24.5894 105.587C25.3688 106.368 25.3688 107.632 24.5894 108.413L17.6011 115.413C17.2259 115.789 16.7167 116 16.1857 116L7 116Z" fill="#CCCCCC"/>
<path d="M15.9648 111H10.2285V110.021L13.0703 106.922C13.4805 106.465 13.7715 106.084 13.9434 105.779C14.1191 105.471 14.207 105.162 14.207 104.854C14.207 104.447 14.0918 104.119 13.8613 103.869C13.6348 103.619 13.3281 103.494 12.9414 103.494C12.4805 103.494 12.123 103.635 11.8691 103.916C11.6152 104.197 11.4883 104.582 11.4883 105.07H10.0645C10.0645 104.551 10.1816 104.084 10.416 103.67C10.6543 103.252 10.9922 102.928 11.4297 102.697C11.8711 102.467 12.3789 102.352 12.9531 102.352C13.7812 102.352 14.4336 102.561 14.9102 102.979C15.3906 103.393 15.6309 103.967 15.6309 104.701C15.6309 105.127 15.5098 105.574 15.2676 106.043C15.0293 106.508 14.6367 107.037 14.0898 107.631L12.0039 109.863H15.9648V111Z" fill="white"/>
<path d="M7 195C5.89543 195 5 194.105 5 193L5 179C5 177.895 5.89543 177 7 177L16.1857 177C16.7167 177 17.2259 177.211 17.6011 177.587L24.5894 184.587C25.3688 185.368 25.3688 186.632 24.5894 187.413L17.6011 194.413C17.2259 194.789 16.7167 195 16.1857 195L7 195Z" fill="#CCCCCC"/>
<path d="M11.875 185.084H12.7422C13.1797 185.08 13.5254 184.967 13.7793 184.744C14.0371 184.521 14.166 184.199 14.166 183.777C14.166 183.371 14.0586 183.057 13.8438 182.834C13.6328 182.607 13.3086 182.494 12.8711 182.494C12.4883 182.494 12.1738 182.605 11.9277 182.828C11.6816 183.047 11.5586 183.334 11.5586 183.689H10.1348C10.1348 183.252 10.25 182.854 10.4805 182.494C10.7148 182.135 11.0391 181.855 11.4531 181.656C11.8711 181.453 12.3379 181.352 12.8535 181.352C13.7051 181.352 14.373 181.566 14.8574 181.996C15.3457 182.422 15.5898 183.016 15.5898 183.777C15.5898 184.16 15.4668 184.521 15.2207 184.861C14.9785 185.197 14.6641 185.451 14.2773 185.623C14.7461 185.783 15.1016 186.035 15.3438 186.379C15.5898 186.723 15.7129 187.133 15.7129 187.609C15.7129 188.375 15.4492 188.984 14.9219 189.438C14.3984 189.891 13.709 190.117 12.8535 190.117C12.0332 190.117 11.3613 189.898 10.8379 189.461C10.3145 189.023 10.0527 188.441 10.0527 187.715H11.4766C11.4766 188.09 11.6016 188.395 11.8516 188.629C12.1055 188.863 12.4453 188.98 12.8711 188.98C13.3125 188.98 13.6602 188.863 13.9141 188.629C14.168 188.395 14.2949 188.055 14.2949 187.609C14.2949 187.16 14.1621 186.814 13.8965 186.572C13.6309 186.33 13.2363 186.209 12.7129 186.209H11.875V185.084Z" fill="white"/>
<path d="M439 19C440.105 19 441 19.8954 441 21L441 35C441 36.1046 440.105 37 439 37L429.814 37C429.283 37 428.774 36.7888 428.399 36.413L421.411 29.413C420.631 28.6322 420.631 27.3677 421.411 26.587L428.399 19.587C428.774 19.2112 429.283 19 429.814 19L439 19Z" fill="#DDDDDD"/>
<path d="M431.113 28.9473H428.037V27.7988H431.113V28.9473ZM433.844 27.084H434.711C435.148 27.0801 435.494 26.9668 435.748 26.7441C436.006 26.5215 436.135 26.1992 436.135 25.7773C436.135 25.3711 436.027 25.0566 435.812 24.834C435.602 24.6074 435.277 24.4941 434.84 24.4941C434.457 24.4941 434.143 24.6055 433.896 24.8281C433.65 25.0469 433.527 25.334 433.527 25.6895H432.104C432.104 25.252 432.219 24.8535 432.449 24.4941C432.684 24.1348 433.008 23.8555 433.422 23.6562C433.84 23.4531 434.307 23.3516 434.822 23.3516C435.674 23.3516 436.342 23.5664 436.826 23.9961C437.314 24.4219 437.559 25.0156 437.559 25.7773C437.559 26.1602 437.436 26.5215 437.189 26.8613C436.947 27.1973 436.633 27.4512 436.246 27.623C436.715 27.7832 437.07 28.0352 437.312 28.3789C437.559 28.7227 437.682 29.1328 437.682 29.6094C437.682 30.375 437.418 30.9844 436.891 31.4375C436.367 31.8906 435.678 32.1172 434.822 32.1172C434.002 32.1172 433.33 31.8984 432.807 31.4609C432.283 31.0234 432.021 30.4414 432.021 29.7148H433.445C433.445 30.0898 433.57 30.3945 433.82 30.6289C434.074 30.8633 434.414 30.9805 434.84 30.9805C435.281 30.9805 435.629 30.8633 435.883 30.6289C436.137 30.3945 436.264 30.0547 436.264 29.6094C436.264 29.1602 436.131 28.8145 435.865 28.5723C435.6 28.3301 435.205 28.209 434.682 28.209H433.844V27.084Z" fill="white"/>
<path d="M439 98C440.105 98 441 98.8954 441 100L441 114C441 115.105 440.105 116 439 116L429.814 116C429.283 116 428.774 115.789 428.399 115.413L421.411 108.413C420.631 107.632 420.631 106.368 421.411 105.587L428.399 98.587C428.774 98.2112 429.283 98 429.814 98L439 98Z" fill="#DDDDDD"/>
<path d="M431.113 107.947H428.037V106.799H431.113V107.947ZM437.934 111H432.197V110.021L435.039 106.922C435.449 106.465 435.74 106.084 435.912 105.779C436.088 105.471 436.176 105.162 436.176 104.854C436.176 104.447 436.061 104.119 435.83 103.869C435.604 103.619 435.297 103.494 434.91 103.494C434.449 103.494 434.092 103.635 433.838 103.916C433.584 104.197 433.457 104.582 433.457 105.07H432.033C432.033 104.551 432.15 104.084 432.385 103.67C432.623 103.252 432.961 102.928 433.398 102.697C433.84 102.467 434.348 102.352 434.922 102.352C435.75 102.352 436.402 102.561 436.879 102.979C437.359 103.393 437.6 103.967 437.6 104.701C437.6 105.127 437.479 105.574 437.236 106.043C436.998 106.508 436.605 107.037 436.059 107.631L433.973 109.863H437.934V111Z" fill="white"/>
<path d="M439 177C440.105 177 441 177.895 441 179L441 193C441 194.105 440.105 195 439 195L429.814 195C429.283 195 428.774 194.789 428.399 194.413L421.411 187.413C420.631 186.632 420.631 185.368 421.411 184.587L428.399 177.587C428.774 177.211 429.283 177 429.814 177L439 177Z" fill="#DDDDDD"/>
<path d="M431.113 186.947H428.037V185.799H431.113V186.947ZM436.053 190H434.635V183.15L432.543 183.865V182.664L435.871 181.439H436.053V190Z" fill="white"/>
<rect x="28" y="28" width="390" height="158" fill="white"/>
<path d="M31 36C31 33.2386 33.2386 31 36 31H146C148.761 31 151 33.2386 151 36V96C151 98.7614 148.761 101 146 101H36C33.2386 101 31 98.7614 31 96V36Z" fill="#4961DD"/>
<path d="M73.2041 69.9333H71.4243V62.0085H73.2041V69.9333ZM71.3145 59.9504C71.3145 59.677 71.3999 59.45 71.5708 59.2693C71.7466 59.0886 71.9956 58.9983 72.3179 58.9983C72.6401 58.9983 72.8892 59.0886 73.0649 59.2693C73.2407 59.45 73.3286 59.677 73.3286 59.9504C73.3286 60.219 73.2407 60.4436 73.0649 60.6243C72.8892 60.8 72.6401 60.8879 72.3179 60.8879C71.9956 60.8879 71.7466 60.8 71.5708 60.6243C71.3999 60.4436 71.3145 60.219 71.3145 59.9504ZM77.3789 60.0823V62.0085H78.7778V63.3269H77.3789V67.7507C77.3789 68.0535 77.4375 68.2732 77.5547 68.4099C77.6768 68.5417 77.8916 68.6077 78.1992 68.6077C78.4043 68.6077 78.6118 68.5833 78.8218 68.5344V69.9114C78.4165 70.0237 78.0259 70.0798 77.6499 70.0798C76.2827 70.0798 75.5991 69.3254 75.5991 67.8167V63.3269H74.2954V62.0085H75.5991V60.0823H77.3789ZM83.6338 70.0798C82.5059 70.0798 81.5903 69.7258 80.8872 69.0178C80.189 68.3049 79.8398 67.3577 79.8398 66.176V65.9563C79.8398 65.1653 79.9912 64.4597 80.2939 63.8396C80.6016 63.2146 81.0312 62.7288 81.583 62.3821C82.1348 62.0354 82.75 61.8621 83.4287 61.8621C84.5078 61.8621 85.3403 62.2063 85.9263 62.8948C86.5171 63.5833 86.8125 64.5574 86.8125 65.8171V66.5349H81.6343C81.688 67.1892 81.9053 67.7068 82.2861 68.0876C82.6719 68.4685 83.1553 68.6589 83.7363 68.6589C84.5518 68.6589 85.2158 68.3293 85.7285 67.6702L86.688 68.5857C86.3706 69.0593 85.9458 69.428 85.4136 69.6917C84.8862 69.9504 84.293 70.0798 83.6338 70.0798ZM83.4214 63.2903C82.9331 63.2903 82.5376 63.4612 82.2349 63.803C81.937 64.1448 81.7466 64.6208 81.6636 65.2312H85.0547V65.0994C85.0156 64.5037 84.8569 64.0544 84.5786 63.7517C84.3003 63.4441 83.9146 63.2903 83.4214 63.2903ZM89.874 62.0085L89.9253 62.8362C90.4819 62.1868 91.2437 61.8621 92.2104 61.8621C93.27 61.8621 93.9951 62.2673 94.3857 63.0779C94.9619 62.2673 95.7725 61.8621 96.8174 61.8621C97.6914 61.8621 98.3408 62.1038 98.7656 62.5872C99.1953 63.0706 99.415 63.7834 99.4248 64.7258V69.9333H97.645V64.7771C97.645 64.2742 97.5352 63.9055 97.3154 63.6711C97.0957 63.4368 96.7319 63.3196 96.2241 63.3196C95.8188 63.3196 95.4868 63.4294 95.228 63.6492C94.9741 63.864 94.7959 64.1472 94.6934 64.4988L94.7007 69.9333H92.9209V64.7185C92.8965 63.7859 92.4204 63.3196 91.4927 63.3196C90.7798 63.3196 90.2744 63.6101 89.9766 64.1912V69.9333H88.1968V62.0085H89.874ZM110.895 66.1321H112.22V67.5603H110.895V69.9333H109.115V67.5603H104.508L104.457 66.4763L109.056 59.2693H110.895V66.1321ZM106.324 66.1321H109.115V61.679L108.983 61.9133L106.324 66.1321Z" fill="white"/>
<path d="M163 36C163 33.2386 165.239 31 168 31H278C280.761 31 283 33.2386 283 36V96C283 98.7614 280.761 101 278 101H168C165.239 101 163 98.7614 163 96V36Z" fill="#DC8216"/>
<path d="M205.204 69.9333H203.424V62.0085H205.204V69.9333ZM203.314 59.9504C203.314 59.677 203.4 59.45 203.571 59.2693C203.747 59.0886 203.996 58.9983 204.318 58.9983C204.64 58.9983 204.889 59.0886 205.065 59.2693C205.241 59.45 205.329 59.677 205.329 59.9504C205.329 60.219 205.241 60.4436 205.065 60.6243C204.889 60.8 204.64 60.8879 204.318 60.8879C203.996 60.8879 203.747 60.8 203.571 60.6243C203.4 60.4436 203.314 60.219 203.314 59.9504ZM209.379 60.0823V62.0085H210.778V63.3269H209.379V67.7507C209.379 68.0535 209.438 68.2732 209.555 68.4099C209.677 68.5417 209.892 68.6077 210.199 68.6077C210.404 68.6077 210.612 68.5833 210.822 68.5344V69.9114C210.417 70.0237 210.026 70.0798 209.65 70.0798C208.283 70.0798 207.599 69.3254 207.599 67.8167V63.3269H206.295V62.0085H207.599V60.0823H209.379ZM215.634 70.0798C214.506 70.0798 213.59 69.7258 212.887 69.0178C212.189 68.3049 211.84 67.3577 211.84 66.176V65.9563C211.84 65.1653 211.991 64.4597 212.294 63.8396C212.602 63.2146 213.031 62.7288 213.583 62.3821C214.135 62.0354 214.75 61.8621 215.429 61.8621C216.508 61.8621 217.34 62.2063 217.926 62.8948C218.517 63.5833 218.812 64.5574 218.812 65.8171V66.5349H213.634C213.688 67.1892 213.905 67.7068 214.286 68.0876C214.672 68.4685 215.155 68.6589 215.736 68.6589C216.552 68.6589 217.216 68.3293 217.729 67.6702L218.688 68.5857C218.371 69.0593 217.946 69.428 217.414 69.6917C216.886 69.9504 216.293 70.0798 215.634 70.0798ZM215.421 63.2903C214.933 63.2903 214.538 63.4612 214.235 63.803C213.937 64.1448 213.747 64.6208 213.664 65.2312H217.055V65.0994C217.016 64.5037 216.857 64.0544 216.579 63.7517C216.3 63.4441 215.915 63.2903 215.421 63.2903ZM221.874 62.0085L221.925 62.8362C222.482 62.1868 223.244 61.8621 224.21 61.8621C225.27 61.8621 225.995 62.2673 226.386 63.0779C226.962 62.2673 227.772 61.8621 228.817 61.8621C229.691 61.8621 230.341 62.1038 230.766 62.5872C231.195 63.0706 231.415 63.7834 231.425 64.7258V69.9333H229.645V64.7771C229.645 64.2742 229.535 63.9055 229.315 63.6711C229.096 63.4368 228.732 63.3196 228.224 63.3196C227.819 63.3196 227.487 63.4294 227.228 63.6492C226.974 63.864 226.796 64.1472 226.693 64.4988L226.701 69.9333H224.921V64.7185C224.896 63.7859 224.42 63.3196 223.493 63.3196C222.78 63.3196 222.274 63.6101 221.977 64.1912V69.9333H220.197V62.0085H221.874ZM237.35 64.6453L237.929 59.2693H243.656V60.8074H239.408L239.115 63.3562C239.608 63.073 240.165 62.9314 240.785 62.9314C241.801 62.9314 242.589 63.2561 243.151 63.9055C243.717 64.5549 244 65.429 244 66.5276C244 67.6116 243.688 68.4758 243.063 69.1204C242.438 69.76 241.581 70.0798 240.492 70.0798C239.516 70.0798 238.705 69.804 238.061 69.2522C237.421 68.6956 237.074 67.9631 237.021 67.0549H238.742C238.81 67.5725 238.996 67.9705 239.298 68.2488C239.601 68.5222 239.997 68.6589 240.485 68.6589C241.032 68.6589 241.457 68.4636 241.759 68.073C242.067 67.6824 242.221 67.1501 242.221 66.4763C242.221 65.8269 242.052 65.3142 241.715 64.9382C241.378 64.5574 240.915 64.3669 240.324 64.3669C240.001 64.3669 239.728 64.4109 239.503 64.4988C239.279 64.5818 239.035 64.7478 238.771 64.9968L237.35 64.6453Z" fill="white"/>
<path d="M295 36C295 33.2386 297.239 31 300 31H410C412.761 31 415 33.2386 415 36V96C415 98.7614 412.761 101 410 101H300C297.239 101 295 98.7614 295 96V36Z" fill="#B72DF8"/>
<path d="M337.204 69.9333H335.424V62.0085H337.204V69.9333ZM335.314 59.9504C335.314 59.677 335.4 59.45 335.571 59.2693C335.747 59.0886 335.996 58.9983 336.318 58.9983C336.64 58.9983 336.889 59.0886 337.065 59.2693C337.241 59.45 337.329 59.677 337.329 59.9504C337.329 60.219 337.241 60.4436 337.065 60.6243C336.889 60.8 336.64 60.8879 336.318 60.8879C335.996 60.8879 335.747 60.8 335.571 60.6243C335.4 60.4436 335.314 60.219 335.314 59.9504ZM341.379 60.0823V62.0085H342.778V63.3269H341.379V67.7507C341.379 68.0535 341.438 68.2732 341.555 68.4099C341.677 68.5417 341.892 68.6077 342.199 68.6077C342.404 68.6077 342.612 68.5833 342.822 68.5344V69.9114C342.417 70.0237 342.026 70.0798 341.65 70.0798C340.283 70.0798 339.599 69.3254 339.599 67.8167V63.3269H338.295V62.0085H339.599V60.0823H341.379ZM347.634 70.0798C346.506 70.0798 345.59 69.7258 344.887 69.0178C344.189 68.3049 343.84 67.3577 343.84 66.176V65.9563C343.84 65.1653 343.991 64.4597 344.294 63.8396C344.602 63.2146 345.031 62.7288 345.583 62.3821C346.135 62.0354 346.75 61.8621 347.429 61.8621C348.508 61.8621 349.34 62.2063 349.926 62.8948C350.517 63.5833 350.812 64.5574 350.812 65.8171V66.5349H345.634C345.688 67.1892 345.905 67.7068 346.286 68.0876C346.672 68.4685 347.155 68.6589 347.736 68.6589C348.552 68.6589 349.216 68.3293 349.729 67.6702L350.688 68.5857C350.371 69.0593 349.946 69.428 349.414 69.6917C348.886 69.9504 348.293 70.0798 347.634 70.0798ZM347.421 63.2903C346.933 63.2903 346.538 63.4612 346.235 63.803C345.937 64.1448 345.747 64.6208 345.664 65.2312H349.055V65.0994C349.016 64.5037 348.857 64.0544 348.579 63.7517C348.3 63.4441 347.915 63.2903 347.421 63.2903ZM353.874 62.0085L353.925 62.8362C354.482 62.1868 355.244 61.8621 356.21 61.8621C357.27 61.8621 357.995 62.2673 358.386 63.0779C358.962 62.2673 359.772 61.8621 360.817 61.8621C361.691 61.8621 362.341 62.1038 362.766 62.5872C363.195 63.0706 363.415 63.7834 363.425 64.7258V69.9333H361.645V64.7771C361.645 64.2742 361.535 63.9055 361.315 63.6711C361.096 63.4368 360.732 63.3196 360.224 63.3196C359.819 63.3196 359.487 63.4294 359.228 63.6492C358.974 63.864 358.796 64.1472 358.693 64.4988L358.701 69.9333H356.921V64.7185C356.896 63.7859 356.42 63.3196 355.493 63.3196C354.78 63.3196 354.274 63.6101 353.977 64.1912V69.9333H352.197V62.0085H353.874ZM370.932 63.7883H372.016C372.563 63.7834 372.995 63.6418 373.312 63.3635C373.635 63.0852 373.796 62.6824 373.796 62.155C373.796 61.6472 373.662 61.2542 373.393 60.9758C373.129 60.6926 372.724 60.551 372.177 60.551C371.699 60.551 371.306 60.6902 370.998 60.9685C370.69 61.2419 370.537 61.6008 370.537 62.0452H368.757C368.757 61.4983 368.901 61.0002 369.189 60.551C369.482 60.1018 369.887 59.7527 370.405 59.5037C370.927 59.2498 371.511 59.1228 372.155 59.1228C373.22 59.1228 374.055 59.3914 374.66 59.9285C375.271 60.4607 375.576 61.2029 375.576 62.155C375.576 62.6335 375.422 63.0852 375.114 63.51C374.812 63.9299 374.418 64.2473 373.935 64.4622C374.521 64.6624 374.965 64.9773 375.268 65.407C375.576 65.8367 375.729 66.3494 375.729 66.9451C375.729 67.9021 375.4 68.6638 374.741 69.2302C374.086 69.7966 373.225 70.0798 372.155 70.0798C371.13 70.0798 370.29 69.8064 369.636 69.2595C368.981 68.7126 368.654 67.9851 368.654 67.0769H370.434C370.434 67.5457 370.59 67.9265 370.903 68.2195C371.22 68.5125 371.645 68.6589 372.177 68.6589C372.729 68.6589 373.164 68.5125 373.481 68.2195C373.798 67.9265 373.957 67.5017 373.957 66.9451C373.957 66.3835 373.791 65.9514 373.459 65.6487C373.127 65.3459 372.634 65.1946 371.979 65.1946H370.932V63.7883Z" fill="white"/>
<path d="M31 118C31 115.239 33.2386 113 36 113H146C148.761 113 151 115.239 151 118V178C151 180.761 148.761 183 146 183H36C33.2386 183 31 180.761 31 178V118Z" fill="#00986B"/>
<path d="M73.2041 151.933H71.4243V144.009H73.2041V151.933ZM71.3145 141.95C71.3145 141.677 71.3999 141.45 71.5708 141.269C71.7466 141.089 71.9956 140.998 72.3179 140.998C72.6401 140.998 72.8892 141.089 73.0649 141.269C73.2407 141.45 73.3286 141.677 73.3286 141.95C73.3286 142.219 73.2407 142.444 73.0649 142.624C72.8892 142.8 72.6401 142.888 72.3179 142.888C71.9956 142.888 71.7466 142.8 71.5708 142.624C71.3999 142.444 71.3145 142.219 71.3145 141.95ZM77.3789 142.082V144.009H78.7778V145.327H77.3789V149.751C77.3789 150.053 77.4375 150.273 77.5547 150.41C77.6768 150.542 77.8916 150.608 78.1992 150.608C78.4043 150.608 78.6118 150.583 78.8218 150.534V151.911C78.4165 152.024 78.0259 152.08 77.6499 152.08C76.2827 152.08 75.5991 151.325 75.5991 149.817V145.327H74.2954V144.009H75.5991V142.082H77.3789ZM83.6338 152.08C82.5059 152.08 81.5903 151.726 80.8872 151.018C80.189 150.305 79.8398 149.358 79.8398 148.176V147.956C79.8398 147.165 79.9912 146.46 80.2939 145.84C80.6016 145.215 81.0312 144.729 81.583 144.382C82.1348 144.035 82.75 143.862 83.4287 143.862C84.5078 143.862 85.3403 144.206 85.9263 144.895C86.5171 145.583 86.8125 146.557 86.8125 147.817V148.535H81.6343C81.688 149.189 81.9053 149.707 82.2861 150.088C82.6719 150.469 83.1553 150.659 83.7363 150.659C84.5518 150.659 85.2158 150.329 85.7285 149.67L86.688 150.586C86.3706 151.059 85.9458 151.428 85.4136 151.692C84.8862 151.95 84.293 152.08 83.6338 152.08ZM83.4214 145.29C82.9331 145.29 82.5376 145.461 82.2349 145.803C81.937 146.145 81.7466 146.621 81.6636 147.231H85.0547V147.099C85.0156 146.504 84.8569 146.054 84.5786 145.752C84.3003 145.444 83.9146 145.29 83.4214 145.29ZM89.874 144.009L89.9253 144.836C90.4819 144.187 91.2437 143.862 92.2104 143.862C93.27 143.862 93.9951 144.267 94.3857 145.078C94.9619 144.267 95.7725 143.862 96.8174 143.862C97.6914 143.862 98.3408 144.104 98.7656 144.587C99.1953 145.071 99.415 145.783 99.4248 146.726V151.933H97.645V146.777C97.645 146.274 97.5352 145.906 97.3154 145.671C97.0957 145.437 96.7319 145.32 96.2241 145.32C95.8188 145.32 95.4868 145.429 95.228 145.649C94.9741 145.864 94.7959 146.147 94.6934 146.499L94.7007 151.933H92.9209V146.719C92.8965 145.786 92.4204 145.32 91.4927 145.32C90.7798 145.32 90.2744 145.61 89.9766 146.191V151.933H88.1968V144.009H89.874ZM109.693 151.933H107.921V143.371L105.306 144.265V142.763L109.466 141.233H109.693V151.933Z" fill="white"/>
<path d="M163 118C163 115.239 165.239 113 168 113H278C280.761 113 283 115.239 283 118V178C283 180.761 280.761 183 278 183H168C165.239 183 163 180.761 163 178V118Z" fill="#1E73FF"/>
<path d="M205.204 151.933H203.424V144.009H205.204V151.933ZM203.314 141.95C203.314 141.677 203.4 141.45 203.571 141.269C203.747 141.089 203.996 140.998 204.318 140.998C204.64 140.998 204.889 141.089 205.065 141.269C205.241 141.45 205.329 141.677 205.329 141.95C205.329 142.219 205.241 142.444 205.065 142.624C204.889 142.8 204.64 142.888 204.318 142.888C203.996 142.888 203.747 142.8 203.571 142.624C203.4 142.444 203.314 142.219 203.314 141.95ZM209.379 142.082V144.009H210.778V145.327H209.379V149.751C209.379 150.053 209.438 150.273 209.555 150.41C209.677 150.542 209.892 150.608 210.199 150.608C210.404 150.608 210.612 150.583 210.822 150.534V151.911C210.417 152.024 210.026 152.08 209.65 152.08C208.283 152.08 207.599 151.325 207.599 149.817V145.327H206.295V144.009H207.599V142.082H209.379ZM215.634 152.08C214.506 152.08 213.59 151.726 212.887 151.018C212.189 150.305 211.84 149.358 211.84 148.176V147.956C211.84 147.165 211.991 146.46 212.294 145.84C212.602 145.215 213.031 144.729 213.583 144.382C214.135 144.035 214.75 143.862 215.429 143.862C216.508 143.862 217.34 144.206 217.926 144.895C218.517 145.583 218.812 146.557 218.812 147.817V148.535H213.634C213.688 149.189 213.905 149.707 214.286 150.088C214.672 150.469 215.155 150.659 215.736 150.659C216.552 150.659 217.216 150.329 217.729 149.67L218.688 150.586C218.371 151.059 217.946 151.428 217.414 151.692C216.886 151.95 216.293 152.08 215.634 152.08ZM215.421 145.29C214.933 145.29 214.538 145.461 214.235 145.803C213.937 146.145 213.747 146.621 213.664 147.231H217.055V147.099C217.016 146.504 216.857 146.054 216.579 145.752C216.3 145.444 215.915 145.29 215.421 145.29ZM221.874 144.009L221.925 144.836C222.482 144.187 223.244 143.862 224.21 143.862C225.27 143.862 225.995 144.267 226.386 145.078C226.962 144.267 227.772 143.862 228.817 143.862C229.691 143.862 230.341 144.104 230.766 144.587C231.195 145.071 231.415 145.783 231.425 146.726V151.933H229.645V146.777C229.645 146.274 229.535 145.906 229.315 145.671C229.096 145.437 228.732 145.32 228.224 145.32C227.819 145.32 227.487 145.429 227.228 145.649C226.974 145.864 226.796 146.147 226.693 146.499L226.701 151.933H224.921V146.719C224.896 145.786 224.42 145.32 223.493 145.32C222.78 145.32 222.274 145.61 221.977 146.191V151.933H220.197V144.009H221.874ZM244.044 151.933H236.874V150.71L240.426 146.836C240.939 146.264 241.303 145.788 241.518 145.407C241.737 145.022 241.847 144.636 241.847 144.25C241.847 143.742 241.703 143.332 241.415 143.02C241.132 142.707 240.749 142.551 240.265 142.551C239.689 142.551 239.242 142.727 238.925 143.078C238.607 143.43 238.449 143.911 238.449 144.521H236.669C236.669 143.872 236.815 143.288 237.108 142.771C237.406 142.248 237.829 141.843 238.375 141.555C238.927 141.267 239.562 141.123 240.28 141.123C241.315 141.123 242.13 141.384 242.726 141.906C243.327 142.424 243.627 143.142 243.627 144.06C243.627 144.592 243.476 145.151 243.173 145.737C242.875 146.318 242.384 146.98 241.701 147.722L239.093 150.512H244.044V151.933Z" fill="white"/>
<path d="M153.5 29L153.5 185" stroke="#BBBBBB" stroke-dasharray="3 2"/>
<path d="M160.5 29L160.5 185" stroke="#BBBBBB" stroke-dasharray="3 2"/>
<path d="M285.5 29L285.5 185" stroke="#BBBBBB" stroke-dasharray="3 2"/>
<path d="M292.5 29L292.5 185" stroke="#BBBBBB" stroke-dasharray="3 2"/>
<path d="M29 110.5L417 110.5" stroke="#BBBBBB" stroke-dasharray="3 2"/>
<path d="M29 103.5L417 103.5" stroke="#BBBBBB" stroke-dasharray="3 2"/>
<rect x="28" y="28" width="390" height="158" stroke="#AAAAAA" stroke-width="2"/>
</svg>
