<svg width="422" height="300" viewBox="0 0 422 300" fill="none" xmlns="http://www.w3.org/2000/svg">
<path d="M142.5 26V18.5H161.5V26" stroke="#1E73FF" stroke-dasharray="3 2"/>
<path d="M145.137 12H138.922V10.9399L142.001 7.58203C142.445 7.08691 142.761 6.67432 142.947 6.34424C143.137 6.00993 143.232 5.67562 143.232 5.34131C143.232 4.9012 143.108 4.54574 142.858 4.2749C142.612 4.00407 142.28 3.86865 141.861 3.86865C141.362 3.86865 140.975 4.021 140.7 4.32568C140.425 4.63037 140.287 5.0472 140.287 5.57617H138.745C138.745 5.01335 138.872 4.50765 139.125 4.05908C139.384 3.60628 139.75 3.25505 140.224 3.00537C140.702 2.7557 141.252 2.63086 141.874 2.63086C142.771 2.63086 143.478 2.85726 143.994 3.31006C144.515 3.75863 144.775 4.3807 144.775 5.17627C144.775 5.63753 144.644 6.12207 144.381 6.62988C144.123 7.13346 143.698 7.70687 143.105 8.3501L140.846 10.7686H145.137V12ZM152.335 8.10889C152.335 9.43766 152.085 10.4406 151.586 11.1177C151.091 11.7905 150.335 12.127 149.32 12.127C148.321 12.127 147.568 11.799 147.06 11.1431C146.556 10.4829 146.298 9.50749 146.286 8.2168V6.61719C146.286 5.28841 146.533 4.29183 147.028 3.62744C147.528 2.96305 148.287 2.63086 149.307 2.63086C150.319 2.63086 151.072 2.95459 151.567 3.60205C152.066 4.24951 152.322 5.21859 152.335 6.50928V8.10889ZM150.792 6.38232C150.792 5.51481 150.674 4.88005 150.437 4.47803C150.2 4.07178 149.823 3.86865 149.307 3.86865C148.804 3.86865 148.433 4.0612 148.196 4.44629C147.959 4.82715 147.834 5.42383 147.822 6.23633V8.33105C147.822 9.19434 147.942 9.83757 148.184 10.2607C148.425 10.6839 148.804 10.8955 149.32 10.8955C149.815 10.8955 150.181 10.7008 150.418 10.3115C150.655 9.91797 150.78 9.30436 150.792 8.4707V6.38232ZM159.812 8.63574C159.812 9.69792 159.571 10.5464 159.089 11.1812C158.606 11.8117 157.959 12.127 157.146 12.127C156.393 12.127 155.79 11.8794 155.337 11.3843V14.6406H153.795V5.13184H155.217L155.28 5.83008C155.733 5.27995 156.349 5.00488 157.127 5.00488C157.965 5.00488 158.621 5.31803 159.095 5.94434C159.573 6.56641 159.812 7.4318 159.812 8.54053V8.63574ZM158.276 8.50244C158.276 7.81689 158.139 7.27311 157.864 6.87109C157.593 6.46908 157.204 6.26807 156.696 6.26807C156.065 6.26807 155.612 6.52832 155.337 7.04883V10.0957C155.617 10.6289 156.074 10.8955 156.708 10.8955C157.199 10.8955 157.582 10.6987 157.857 10.3052C158.137 9.90739 158.276 9.30648 158.276 8.50244ZM163.488 7.3916L164.795 5.13184H166.509L164.408 8.51514L166.579 12H164.878L163.507 9.65137L162.142 12H160.428L162.599 8.51514L160.504 5.13184H162.206L163.488 7.3916Z" fill="#1E73FF"/>
<path d="M40 129.5L32.5 129.5L32.5 100.5L40 100.5" stroke="#1E73FF" stroke-dasharray="3 2"/>
<path d="M2.70605 112.674H3.64551C4.11947 112.67 4.49398 112.547 4.76904 112.306C5.04834 112.065 5.18799 111.716 5.18799 111.259C5.18799 110.819 5.07161 110.478 4.83887 110.237C4.61035 109.991 4.25911 109.869 3.78516 109.869C3.37044 109.869 3.02979 109.989 2.76318 110.23C2.49658 110.467 2.36328 110.778 2.36328 111.164H0.820801C0.820801 110.69 0.945638 110.258 1.19531 109.869C1.44922 109.479 1.80046 109.177 2.24902 108.961C2.70182 108.741 3.20752 108.631 3.76611 108.631C4.68864 108.631 5.41227 108.864 5.93701 109.329C6.46598 109.79 6.73047 110.434 6.73047 111.259C6.73047 111.674 6.59717 112.065 6.33057 112.433C6.0682 112.797 5.72754 113.072 5.30859 113.258C5.81641 113.432 6.2015 113.705 6.46387 114.077C6.73047 114.45 6.86377 114.894 6.86377 115.41C6.86377 116.24 6.57812 116.9 6.00684 117.391C5.43978 117.882 4.69287 118.127 3.76611 118.127C2.87744 118.127 2.14958 117.89 1.58252 117.416C1.01546 116.942 0.731934 116.312 0.731934 115.524H2.27441C2.27441 115.931 2.40983 116.261 2.68066 116.515C2.95573 116.769 3.32389 116.896 3.78516 116.896C4.26335 116.896 4.63997 116.769 4.91504 116.515C5.1901 116.261 5.32764 115.893 5.32764 115.41C5.32764 114.924 5.18376 114.549 4.896 114.287C4.60824 114.024 4.18083 113.893 3.61377 113.893H2.70605V112.674ZM14.335 114.109C14.335 115.438 14.0853 116.441 13.5859 117.118C13.0908 117.791 12.3354 118.127 11.3198 118.127C10.3211 118.127 9.56787 117.799 9.06006 117.143C8.55648 116.483 8.29834 115.507 8.28564 114.217V112.617C8.28564 111.288 8.5332 110.292 9.02832 109.627C9.52767 108.963 10.2873 108.631 11.3071 108.631C12.3185 108.631 13.0718 108.955 13.5669 109.602C14.0662 110.25 14.3223 111.219 14.335 112.509V114.109ZM12.7925 112.382C12.7925 111.515 12.674 110.88 12.437 110.478C12.2 110.072 11.8234 109.869 11.3071 109.869C10.8035 109.869 10.4333 110.061 10.1963 110.446C9.95931 110.827 9.83447 111.424 9.82178 112.236V114.331C9.82178 115.194 9.94238 115.838 10.1836 116.261C10.4248 116.684 10.8035 116.896 11.3198 116.896C11.8149 116.896 12.181 116.701 12.418 116.312C12.6549 115.918 12.7798 115.304 12.7925 114.471V112.382ZM21.8125 114.636C21.8125 115.698 21.5713 116.546 21.0889 117.181C20.6064 117.812 19.959 118.127 19.1465 118.127C18.3932 118.127 17.7902 117.879 17.3374 117.384V120.641H15.7949V111.132H17.2168L17.2803 111.83C17.7331 111.28 18.3488 111.005 19.1274 111.005C19.9653 111.005 20.6213 111.318 21.0952 111.944C21.5734 112.566 21.8125 113.432 21.8125 114.541V114.636ZM20.2764 114.502C20.2764 113.817 20.1388 113.273 19.8638 112.871C19.5929 112.469 19.2036 112.268 18.6958 112.268C18.0653 112.268 17.6125 112.528 17.3374 113.049V116.096C17.6167 116.629 18.0737 116.896 18.7085 116.896C19.1994 116.896 19.5824 116.699 19.8574 116.305C20.1367 115.907 20.2764 115.306 20.2764 114.502ZM25.4878 113.392L26.7954 111.132H28.5093L26.4082 114.515L28.5791 118H26.8779L25.5068 115.651L24.1421 118H22.4282L24.5991 114.515L22.5044 111.132H24.2056L25.4878 113.392Z" fill="#1E73FF"/>
<path d="M40 229.5L32.5 229.5L32.5 200.5L40 200.5" stroke="#1E73FF" stroke-dasharray="3 2"/>
<path d="M2.70605 212.674H3.64551C4.11947 212.67 4.49398 212.547 4.76904 212.306C5.04834 212.065 5.18799 211.716 5.18799 211.259C5.18799 210.819 5.07161 210.478 4.83887 210.237C4.61035 209.991 4.25911 209.869 3.78516 209.869C3.37044 209.869 3.02979 209.989 2.76318 210.23C2.49658 210.467 2.36328 210.778 2.36328 211.164H0.820801C0.820801 210.69 0.945638 210.258 1.19531 209.869C1.44922 209.479 1.80046 209.177 2.24902 208.961C2.70182 208.741 3.20752 208.631 3.76611 208.631C4.68864 208.631 5.41227 208.864 5.93701 209.329C6.46598 209.79 6.73047 210.434 6.73047 211.259C6.73047 211.674 6.59717 212.065 6.33057 212.433C6.0682 212.797 5.72754 213.072 5.30859 213.258C5.81641 213.432 6.2015 213.705 6.46387 214.077C6.73047 214.45 6.86377 214.894 6.86377 215.41C6.86377 216.24 6.57812 216.9 6.00684 217.391C5.43978 217.882 4.69287 218.127 3.76611 218.127C2.87744 218.127 2.14958 217.89 1.58252 217.416C1.01546 216.942 0.731934 216.312 0.731934 215.524H2.27441C2.27441 215.931 2.40983 216.261 2.68066 216.515C2.95573 216.769 3.32389 216.896 3.78516 216.896C4.26335 216.896 4.63997 216.769 4.91504 216.515C5.1901 216.261 5.32764 215.893 5.32764 215.41C5.32764 214.924 5.18376 214.549 4.896 214.287C4.60824 214.024 4.18083 213.893 3.61377 213.893H2.70605V212.674ZM14.335 214.109C14.335 215.438 14.0853 216.441 13.5859 217.118C13.0908 217.791 12.3354 218.127 11.3198 218.127C10.3211 218.127 9.56787 217.799 9.06006 217.143C8.55648 216.483 8.29834 215.507 8.28564 214.217V212.617C8.28564 211.288 8.5332 210.292 9.02832 209.627C9.52767 208.963 10.2873 208.631 11.3071 208.631C12.3185 208.631 13.0718 208.955 13.5669 209.602C14.0662 210.25 14.3223 211.219 14.335 212.509V214.109ZM12.7925 212.382C12.7925 211.515 12.674 210.88 12.437 210.478C12.2 210.072 11.8234 209.869 11.3071 209.869C10.8035 209.869 10.4333 210.061 10.1963 210.446C9.95931 210.827 9.83447 211.424 9.82178 212.236V214.331C9.82178 215.194 9.94238 215.838 10.1836 216.261C10.4248 216.684 10.8035 216.896 11.3198 216.896C11.8149 216.896 12.181 216.701 12.418 216.312C12.6549 215.918 12.7798 215.304 12.7925 214.471V212.382ZM21.8125 214.636C21.8125 215.698 21.5713 216.546 21.0889 217.181C20.6064 217.812 19.959 218.127 19.1465 218.127C18.3932 218.127 17.7902 217.879 17.3374 217.384V220.641H15.7949V211.132H17.2168L17.2803 211.83C17.7331 211.28 18.3488 211.005 19.1274 211.005C19.9653 211.005 20.6213 211.318 21.0952 211.944C21.5734 212.566 21.8125 213.432 21.8125 214.541V214.636ZM20.2764 214.502C20.2764 213.817 20.1388 213.273 19.8638 212.871C19.5929 212.469 19.2036 212.268 18.6958 212.268C18.0653 212.268 17.6125 212.528 17.3374 213.049V216.096C17.6167 216.629 18.0737 216.896 18.7085 216.896C19.1994 216.896 19.5824 216.699 19.8574 216.305C20.1367 215.907 20.2764 215.306 20.2764 214.502ZM25.4878 213.392L26.7954 211.132H28.5093L26.4082 214.515L28.5791 218H26.8779L25.5068 215.651L24.1421 218H22.4282L24.5991 214.515L22.5044 211.132H24.2056L25.4878 213.392Z" fill="#1E73FF"/>
<path d="M262.5 26V18.5H281.5V26" stroke="#1E73FF" stroke-dasharray="3 2"/>
<path d="M265.137 12H258.922V10.9399L262.001 7.58203C262.445 7.08691 262.761 6.67432 262.947 6.34424C263.137 6.00993 263.232 5.67562 263.232 5.34131C263.232 4.9012 263.108 4.54574 262.858 4.2749C262.612 4.00407 262.28 3.86865 261.861 3.86865C261.362 3.86865 260.975 4.021 260.7 4.32568C260.425 4.63037 260.287 5.0472 260.287 5.57617H258.745C258.745 5.01335 258.872 4.50765 259.125 4.05908C259.384 3.60628 259.75 3.25505 260.224 3.00537C260.702 2.7557 261.252 2.63086 261.874 2.63086C262.771 2.63086 263.478 2.85726 263.994 3.31006C264.515 3.75863 264.775 4.3807 264.775 5.17627C264.775 5.63753 264.644 6.12207 264.381 6.62988C264.123 7.13346 263.698 7.70687 263.105 8.3501L260.846 10.7686H265.137V12ZM272.335 8.10889C272.335 9.43766 272.085 10.4406 271.586 11.1177C271.091 11.7905 270.335 12.127 269.32 12.127C268.321 12.127 267.568 11.799 267.06 11.1431C266.556 10.4829 266.298 9.50749 266.286 8.2168V6.61719C266.286 5.28841 266.533 4.29183 267.028 3.62744C267.528 2.96305 268.287 2.63086 269.307 2.63086C270.319 2.63086 271.072 2.95459 271.567 3.60205C272.066 4.24951 272.322 5.21859 272.335 6.50928V8.10889ZM270.792 6.38232C270.792 5.51481 270.674 4.88005 270.437 4.47803C270.2 4.07178 269.823 3.86865 269.307 3.86865C268.804 3.86865 268.433 4.0612 268.196 4.44629C267.959 4.82715 267.834 5.42383 267.822 6.23633V8.33105C267.822 9.19434 267.942 9.83757 268.184 10.2607C268.425 10.6839 268.804 10.8955 269.32 10.8955C269.815 10.8955 270.181 10.7008 270.418 10.3115C270.655 9.91797 270.78 9.30436 270.792 8.4707V6.38232ZM279.812 8.63574C279.812 9.69792 279.571 10.5464 279.089 11.1812C278.606 11.8117 277.959 12.127 277.146 12.127C276.393 12.127 275.79 11.8794 275.337 11.3843V14.6406H273.795V5.13184H275.217L275.28 5.83008C275.733 5.27995 276.349 5.00488 277.127 5.00488C277.965 5.00488 278.621 5.31803 279.095 5.94434C279.573 6.56641 279.812 7.4318 279.812 8.54053V8.63574ZM278.276 8.50244C278.276 7.81689 278.139 7.27311 277.864 6.87109C277.593 6.46908 277.204 6.26807 276.696 6.26807C276.065 6.26807 275.612 6.52832 275.337 7.04883V10.0957C275.617 10.6289 276.074 10.8955 276.708 10.8955C277.199 10.8955 277.582 10.6987 277.857 10.3052C278.137 9.90739 278.276 9.30648 278.276 8.50244ZM283.488 7.3916L284.795 5.13184H286.509L284.408 8.51514L286.579 12H284.878L283.507 9.65137L282.142 12H280.428L282.599 8.51514L280.504 5.13184H282.206L283.488 7.3916Z" fill="#1E73FF"/>
<path d="M42 35C42 32.2386 44.2386 30 47 30H137C139.761 30 142 32.2386 142 35V95C142 97.7614 139.761 100 137 100H47C44.2386 100 42 97.7614 42 95V35Z" fill="#CCCCCC"/>
<path d="M84.3755 67.6589C84.8198 67.6589 85.1885 67.5295 85.4814 67.2708C85.7744 67.012 85.9307 66.6921 85.9502 66.3113H87.6274C87.6079 66.8044 87.4541 67.2659 87.166 67.6956C86.8779 68.1204 86.4873 68.4573 85.9941 68.7063C85.501 68.9553 84.9688 69.0798 84.3975 69.0798C83.2891 69.0798 82.4102 68.7209 81.7607 68.0032C81.1113 67.2854 80.7866 66.2942 80.7866 65.0295V64.8464C80.7866 63.6404 81.1089 62.676 81.7534 61.9534C82.3979 61.2258 83.2769 60.8621 84.3901 60.8621C85.3325 60.8621 86.0991 61.1379 86.6899 61.6897C87.2856 62.2366 87.5981 62.9568 87.6274 63.8503H85.9502C85.9307 63.3962 85.7744 63.0227 85.4814 62.7297C85.1934 62.4368 84.8247 62.2903 84.3755 62.2903C83.7993 62.2903 83.355 62.5002 83.0425 62.9202C82.73 63.3352 82.5713 63.9675 82.5664 64.8171V65.1028C82.5664 65.9622 82.7202 66.6042 83.0278 67.0291C83.3403 67.449 83.7896 67.6589 84.3755 67.6589ZM92.4614 69.0798C91.3335 69.0798 90.418 68.7258 89.7148 68.0178C89.0166 67.3049 88.6675 66.3577 88.6675 65.176V64.9563C88.6675 64.1653 88.8188 63.4597 89.1216 62.8396C89.4292 62.2146 89.8589 61.7288 90.4106 61.3821C90.9624 61.0354 91.5776 60.8621 92.2563 60.8621C93.3354 60.8621 94.168 61.2063 94.7539 61.8948C95.3447 62.5833 95.6401 63.5574 95.6401 64.8171V65.5349H90.4619C90.5156 66.1892 90.7329 66.7068 91.1138 67.0876C91.4995 67.4685 91.9829 67.6589 92.564 67.6589C93.3794 67.6589 94.0435 67.3293 94.5562 66.6702L95.5156 67.5857C95.1982 68.0593 94.7734 68.428 94.2412 68.6917C93.7139 68.9504 93.1206 69.0798 92.4614 69.0798ZM92.249 62.2903C91.7607 62.2903 91.3652 62.4612 91.0625 62.803C90.7646 63.1448 90.5742 63.6208 90.4912 64.2312H93.8823V64.0994C93.8433 63.5037 93.6846 63.0544 93.4062 62.7517C93.1279 62.4441 92.7422 62.2903 92.249 62.2903ZM98.9214 68.9333H97.1416V57.6833H98.9214V68.9333ZM102.759 68.9333H100.979V57.6833H102.759V68.9333Z" fill="white"/>
<path d="M42 135C42 132.239 44.2386 130 47 130H137C139.761 130 142 132.239 142 135V195C142 197.761 139.761 200 137 200H47C44.2386 200 42 197.761 42 195V135Z" fill="#CCCCCC"/>
<path d="M84.3755 167.659C84.8198 167.659 85.1885 167.53 85.4814 167.271C85.7744 167.012 85.9307 166.692 85.9502 166.311H87.6274C87.6079 166.804 87.4541 167.266 87.166 167.696C86.8779 168.12 86.4873 168.457 85.9941 168.706C85.501 168.955 84.9688 169.08 84.3975 169.08C83.2891 169.08 82.4102 168.721 81.7607 168.003C81.1113 167.285 80.7866 166.294 80.7866 165.03V164.846C80.7866 163.64 81.1089 162.676 81.7534 161.953C82.3979 161.226 83.2769 160.862 84.3901 160.862C85.3325 160.862 86.0991 161.138 86.6899 161.69C87.2856 162.237 87.5981 162.957 87.6274 163.85H85.9502C85.9307 163.396 85.7744 163.023 85.4814 162.73C85.1934 162.437 84.8247 162.29 84.3755 162.29C83.7993 162.29 83.355 162.5 83.0425 162.92C82.73 163.335 82.5713 163.968 82.5664 164.817V165.103C82.5664 165.962 82.7202 166.604 83.0278 167.029C83.3403 167.449 83.7896 167.659 84.3755 167.659ZM92.4614 169.08C91.3335 169.08 90.418 168.726 89.7148 168.018C89.0166 167.305 88.6675 166.358 88.6675 165.176V164.956C88.6675 164.165 88.8188 163.46 89.1216 162.84C89.4292 162.215 89.8589 161.729 90.4106 161.382C90.9624 161.035 91.5776 160.862 92.2563 160.862C93.3354 160.862 94.168 161.206 94.7539 161.895C95.3447 162.583 95.6401 163.557 95.6401 164.817V165.535H90.4619C90.5156 166.189 90.7329 166.707 91.1138 167.088C91.4995 167.469 91.9829 167.659 92.564 167.659C93.3794 167.659 94.0435 167.329 94.5562 166.67L95.5156 167.586C95.1982 168.059 94.7734 168.428 94.2412 168.692C93.7139 168.95 93.1206 169.08 92.4614 169.08ZM92.249 162.29C91.7607 162.29 91.3652 162.461 91.0625 162.803C90.7646 163.145 90.5742 163.621 90.4912 164.231H93.8823V164.099C93.8433 163.504 93.6846 163.054 93.4062 162.752C93.1279 162.444 92.7422 162.29 92.249 162.29ZM98.9214 168.933H97.1416V157.683H98.9214V168.933ZM102.759 168.933H100.979V157.683H102.759V168.933Z" fill="white"/>
<path d="M42 235C42 232.239 44.2386 230 47 230H137C139.761 230 142 232.239 142 235V295C142 297.761 139.761 300 137 300H47C44.2386 300 42 297.761 42 295V235Z" fill="#CCCCCC"/>
<path d="M84.3755 267.659C84.8198 267.659 85.1885 267.53 85.4814 267.271C85.7744 267.012 85.9307 266.692 85.9502 266.311H87.6274C87.6079 266.804 87.4541 267.266 87.166 267.696C86.8779 268.12 86.4873 268.457 85.9941 268.706C85.501 268.955 84.9688 269.08 84.3975 269.08C83.2891 269.08 82.4102 268.721 81.7607 268.003C81.1113 267.285 80.7866 266.294 80.7866 265.03V264.846C80.7866 263.64 81.1089 262.676 81.7534 261.953C82.3979 261.226 83.2769 260.862 84.3901 260.862C85.3325 260.862 86.0991 261.138 86.6899 261.69C87.2856 262.237 87.5981 262.957 87.6274 263.85H85.9502C85.9307 263.396 85.7744 263.023 85.4814 262.73C85.1934 262.437 84.8247 262.29 84.3755 262.29C83.7993 262.29 83.355 262.5 83.0425 262.92C82.73 263.335 82.5713 263.968 82.5664 264.817V265.103C82.5664 265.962 82.7202 266.604 83.0278 267.029C83.3403 267.449 83.7896 267.659 84.3755 267.659ZM92.4614 269.08C91.3335 269.08 90.418 268.726 89.7148 268.018C89.0166 267.305 88.6675 266.358 88.6675 265.176V264.956C88.6675 264.165 88.8188 263.46 89.1216 262.84C89.4292 262.215 89.8589 261.729 90.4106 261.382C90.9624 261.035 91.5776 260.862 92.2563 260.862C93.3354 260.862 94.168 261.206 94.7539 261.895C95.3447 262.583 95.6401 263.557 95.6401 264.817V265.535H90.4619C90.5156 266.189 90.7329 266.707 91.1138 267.088C91.4995 267.469 91.9829 267.659 92.564 267.659C93.3794 267.659 94.0435 267.329 94.5562 266.67L95.5156 267.586C95.1982 268.059 94.7734 268.428 94.2412 268.692C93.7139 268.95 93.1206 269.08 92.4614 269.08ZM92.249 262.29C91.7607 262.29 91.3652 262.461 91.0625 262.803C90.7646 263.145 90.5742 263.621 90.4912 264.231H93.8823V264.099C93.8433 263.504 93.6846 263.054 93.4062 262.752C93.1279 262.444 92.7422 262.29 92.249 262.29ZM98.9214 268.933H97.1416V257.683H98.9214V268.933ZM102.759 268.933H100.979V257.683H102.759V268.933Z" fill="white"/>
<path d="M162 35C162 32.2386 164.239 30 167 30H257C259.761 30 262 32.2386 262 35V95C262 97.7614 259.761 100 257 100H167C164.239 100 162 97.7614 162 95V35Z" fill="#CCCCCC"/>
<path d="M204.375 67.6589C204.82 67.6589 205.188 67.5295 205.481 67.2708C205.774 67.012 205.931 66.6921 205.95 66.3113H207.627C207.608 66.8044 207.454 67.2659 207.166 67.6956C206.878 68.1204 206.487 68.4573 205.994 68.7063C205.501 68.9553 204.969 69.0798 204.397 69.0798C203.289 69.0798 202.41 68.7209 201.761 68.0032C201.111 67.2854 200.787 66.2942 200.787 65.0295V64.8464C200.787 63.6404 201.109 62.676 201.753 61.9534C202.398 61.2258 203.277 60.8621 204.39 60.8621C205.333 60.8621 206.099 61.1379 206.69 61.6897C207.286 62.2366 207.598 62.9568 207.627 63.8503H205.95C205.931 63.3962 205.774 63.0227 205.481 62.7297C205.193 62.4368 204.825 62.2903 204.375 62.2903C203.799 62.2903 203.355 62.5002 203.042 62.9202C202.73 63.3352 202.571 63.9675 202.566 64.8171V65.1028C202.566 65.9622 202.72 66.6042 203.028 67.0291C203.34 67.449 203.79 67.6589 204.375 67.6589ZM212.461 69.0798C211.333 69.0798 210.418 68.7258 209.715 68.0178C209.017 67.3049 208.667 66.3577 208.667 65.176V64.9563C208.667 64.1653 208.819 63.4597 209.122 62.8396C209.429 62.2146 209.859 61.7288 210.411 61.3821C210.962 61.0354 211.578 60.8621 212.256 60.8621C213.335 60.8621 214.168 61.2063 214.754 61.8948C215.345 62.5833 215.64 63.5574 215.64 64.8171V65.5349H210.462C210.516 66.1892 210.733 66.7068 211.114 67.0876C211.5 67.4685 211.983 67.6589 212.564 67.6589C213.379 67.6589 214.043 67.3293 214.556 66.6702L215.516 67.5857C215.198 68.0593 214.773 68.428 214.241 68.6917C213.714 68.9504 213.121 69.0798 212.461 69.0798ZM212.249 62.2903C211.761 62.2903 211.365 62.4612 211.062 62.803C210.765 63.1448 210.574 63.6208 210.491 64.2312H213.882V64.0994C213.843 63.5037 213.685 63.0544 213.406 62.7517C213.128 62.4441 212.742 62.2903 212.249 62.2903ZM218.921 68.9333H217.142V57.6833H218.921V68.9333ZM222.759 68.9333H220.979V57.6833H222.759V68.9333Z" fill="white"/>
<path d="M162 135C162 132.239 164.239 130 167 130H257C259.761 130 262 132.239 262 135V195C262 197.761 259.761 200 257 200H167C164.239 200 162 197.761 162 195V135Z" fill="#CCCCCC"/>
<path d="M204.375 167.659C204.82 167.659 205.188 167.53 205.481 167.271C205.774 167.012 205.931 166.692 205.95 166.311H207.627C207.608 166.804 207.454 167.266 207.166 167.696C206.878 168.12 206.487 168.457 205.994 168.706C205.501 168.955 204.969 169.08 204.397 169.08C203.289 169.08 202.41 168.721 201.761 168.003C201.111 167.285 200.787 166.294 200.787 165.03V164.846C200.787 163.64 201.109 162.676 201.753 161.953C202.398 161.226 203.277 160.862 204.39 160.862C205.333 160.862 206.099 161.138 206.69 161.69C207.286 162.237 207.598 162.957 207.627 163.85H205.95C205.931 163.396 205.774 163.023 205.481 162.73C205.193 162.437 204.825 162.29 204.375 162.29C203.799 162.29 203.355 162.5 203.042 162.92C202.73 163.335 202.571 163.968 202.566 164.817V165.103C202.566 165.962 202.72 166.604 203.028 167.029C203.34 167.449 203.79 167.659 204.375 167.659ZM212.461 169.08C211.333 169.08 210.418 168.726 209.715 168.018C209.017 167.305 208.667 166.358 208.667 165.176V164.956C208.667 164.165 208.819 163.46 209.122 162.84C209.429 162.215 209.859 161.729 210.411 161.382C210.962 161.035 211.578 160.862 212.256 160.862C213.335 160.862 214.168 161.206 214.754 161.895C215.345 162.583 215.64 163.557 215.64 164.817V165.535H210.462C210.516 166.189 210.733 166.707 211.114 167.088C211.5 167.469 211.983 167.659 212.564 167.659C213.379 167.659 214.043 167.329 214.556 166.67L215.516 167.586C215.198 168.059 214.773 168.428 214.241 168.692C213.714 168.95 213.121 169.08 212.461 169.08ZM212.249 162.29C211.761 162.29 211.365 162.461 211.062 162.803C210.765 163.145 210.574 163.621 210.491 164.231H213.882V164.099C213.843 163.504 213.685 163.054 213.406 162.752C213.128 162.444 212.742 162.29 212.249 162.29ZM218.921 168.933H217.142V157.683H218.921V168.933ZM222.759 168.933H220.979V157.683H222.759V168.933Z" fill="white"/>
<path d="M162 235C162 232.239 164.239 230 167 230H257C259.761 230 262 232.239 262 235V295C262 297.761 259.761 300 257 300H167C164.239 300 162 297.761 162 295V235Z" fill="#CCCCCC"/>
<path d="M204.375 267.659C204.82 267.659 205.188 267.53 205.481 267.271C205.774 267.012 205.931 266.692 205.95 266.311H207.627C207.608 266.804 207.454 267.266 207.166 267.696C206.878 268.12 206.487 268.457 205.994 268.706C205.501 268.955 204.969 269.08 204.397 269.08C203.289 269.08 202.41 268.721 201.761 268.003C201.111 267.285 200.787 266.294 200.787 265.03V264.846C200.787 263.64 201.109 262.676 201.753 261.953C202.398 261.226 203.277 260.862 204.39 260.862C205.333 260.862 206.099 261.138 206.69 261.69C207.286 262.237 207.598 262.957 207.627 263.85H205.95C205.931 263.396 205.774 263.023 205.481 262.73C205.193 262.437 204.825 262.29 204.375 262.29C203.799 262.29 203.355 262.5 203.042 262.92C202.73 263.335 202.571 263.968 202.566 264.817V265.103C202.566 265.962 202.72 266.604 203.028 267.029C203.34 267.449 203.79 267.659 204.375 267.659ZM212.461 269.08C211.333 269.08 210.418 268.726 209.715 268.018C209.017 267.305 208.667 266.358 208.667 265.176V264.956C208.667 264.165 208.819 263.46 209.122 262.84C209.429 262.215 209.859 261.729 210.411 261.382C210.962 261.035 211.578 260.862 212.256 260.862C213.335 260.862 214.168 261.206 214.754 261.895C215.345 262.583 215.64 263.557 215.64 264.817V265.535H210.462C210.516 266.189 210.733 266.707 211.114 267.088C211.5 267.469 211.983 267.659 212.564 267.659C213.379 267.659 214.043 267.329 214.556 266.67L215.516 267.586C215.198 268.059 214.773 268.428 214.241 268.692C213.714 268.95 213.121 269.08 212.461 269.08ZM212.249 262.29C211.761 262.29 211.365 262.461 211.062 262.803C210.765 263.145 210.574 263.621 210.491 264.231H213.882V264.099C213.843 263.504 213.685 263.054 213.406 262.752C213.128 262.444 212.742 262.29 212.249 262.29ZM218.921 268.933H217.142V257.683H218.921V268.933ZM222.759 268.933H220.979V257.683H222.759V268.933Z" fill="white"/>
<path d="M282 35C282 32.2386 284.239 30 287 30H377C379.761 30 382 32.2386 382 35V95C382 97.7614 379.761 100 377 100H287C284.239 100 282 97.7614 282 95V35Z" fill="#CCCCCC"/>
<path d="M324.375 67.6589C324.82 67.6589 325.188 67.5295 325.481 67.2708C325.774 67.012 325.931 66.6921 325.95 66.3113H327.627C327.608 66.8044 327.454 67.2659 327.166 67.6956C326.878 68.1204 326.487 68.4573 325.994 68.7063C325.501 68.9553 324.969 69.0798 324.397 69.0798C323.289 69.0798 322.41 68.7209 321.761 68.0032C321.111 67.2854 320.787 66.2942 320.787 65.0295V64.8464C320.787 63.6404 321.109 62.676 321.753 61.9534C322.398 61.2258 323.277 60.8621 324.39 60.8621C325.333 60.8621 326.099 61.1379 326.69 61.6897C327.286 62.2366 327.598 62.9568 327.627 63.8503H325.95C325.931 63.3962 325.774 63.0227 325.481 62.7297C325.193 62.4368 324.825 62.2903 324.375 62.2903C323.799 62.2903 323.355 62.5002 323.042 62.9202C322.73 63.3352 322.571 63.9675 322.566 64.8171V65.1028C322.566 65.9622 322.72 66.6042 323.028 67.0291C323.34 67.449 323.79 67.6589 324.375 67.6589ZM332.461 69.0798C331.333 69.0798 330.418 68.7258 329.715 68.0178C329.017 67.3049 328.667 66.3577 328.667 65.176V64.9563C328.667 64.1653 328.819 63.4597 329.122 62.8396C329.429 62.2146 329.859 61.7288 330.411 61.3821C330.962 61.0354 331.578 60.8621 332.256 60.8621C333.335 60.8621 334.168 61.2063 334.754 61.8948C335.345 62.5833 335.64 63.5574 335.64 64.8171V65.5349H330.462C330.516 66.1892 330.733 66.7068 331.114 67.0876C331.5 67.4685 331.983 67.6589 332.564 67.6589C333.379 67.6589 334.043 67.3293 334.556 66.6702L335.516 67.5857C335.198 68.0593 334.773 68.428 334.241 68.6917C333.714 68.9504 333.121 69.0798 332.461 69.0798ZM332.249 62.2903C331.761 62.2903 331.365 62.4612 331.062 62.803C330.765 63.1448 330.574 63.6208 330.491 64.2312H333.882V64.0994C333.843 63.5037 333.685 63.0544 333.406 62.7517C333.128 62.4441 332.742 62.2903 332.249 62.2903ZM338.921 68.9333H337.142V57.6833H338.921V68.9333ZM342.759 68.9333H340.979V57.6833H342.759V68.9333Z" fill="white"/>
<path d="M282 135C282 132.239 284.239 130 287 130H377C379.761 130 382 132.239 382 135V195C382 197.761 379.761 200 377 200H287C284.239 200 282 197.761 282 195V135Z" fill="#CCCCCC"/>
<path d="M324.375 167.659C324.82 167.659 325.188 167.53 325.481 167.271C325.774 167.012 325.931 166.692 325.95 166.311H327.627C327.608 166.804 327.454 167.266 327.166 167.696C326.878 168.12 326.487 168.457 325.994 168.706C325.501 168.955 324.969 169.08 324.397 169.08C323.289 169.08 322.41 168.721 321.761 168.003C321.111 167.285 320.787 166.294 320.787 165.03V164.846C320.787 163.64 321.109 162.676 321.753 161.953C322.398 161.226 323.277 160.862 324.39 160.862C325.333 160.862 326.099 161.138 326.69 161.69C327.286 162.237 327.598 162.957 327.627 163.85H325.95C325.931 163.396 325.774 163.023 325.481 162.73C325.193 162.437 324.825 162.29 324.375 162.29C323.799 162.29 323.355 162.5 323.042 162.92C322.73 163.335 322.571 163.968 322.566 164.817V165.103C322.566 165.962 322.72 166.604 323.028 167.029C323.34 167.449 323.79 167.659 324.375 167.659ZM332.461 169.08C331.333 169.08 330.418 168.726 329.715 168.018C329.017 167.305 328.667 166.358 328.667 165.176V164.956C328.667 164.165 328.819 163.46 329.122 162.84C329.429 162.215 329.859 161.729 330.411 161.382C330.962 161.035 331.578 160.862 332.256 160.862C333.335 160.862 334.168 161.206 334.754 161.895C335.345 162.583 335.64 163.557 335.64 164.817V165.535H330.462C330.516 166.189 330.733 166.707 331.114 167.088C331.5 167.469 331.983 167.659 332.564 167.659C333.379 167.659 334.043 167.329 334.556 166.67L335.516 167.586C335.198 168.059 334.773 168.428 334.241 168.692C333.714 168.95 333.121 169.08 332.461 169.08ZM332.249 162.29C331.761 162.29 331.365 162.461 331.062 162.803C330.765 163.145 330.574 163.621 330.491 164.231H333.882V164.099C333.843 163.504 333.685 163.054 333.406 162.752C333.128 162.444 332.742 162.29 332.249 162.29ZM338.921 168.933H337.142V157.683H338.921V168.933ZM342.759 168.933H340.979V157.683H342.759V168.933Z" fill="white"/>
<path d="M282 235C282 232.239 284.239 230 287 230H377C379.761 230 382 232.239 382 235V295C382 297.761 379.761 300 377 300H287C284.239 300 282 297.761 282 295V235Z" fill="#CCCCCC"/>
<path d="M324.375 267.659C324.82 267.659 325.188 267.53 325.481 267.271C325.774 267.012 325.931 266.692 325.95 266.311H327.627C327.608 266.804 327.454 267.266 327.166 267.696C326.878 268.12 326.487 268.457 325.994 268.706C325.501 268.955 324.969 269.08 324.397 269.08C323.289 269.08 322.41 268.721 321.761 268.003C321.111 267.285 320.787 266.294 320.787 265.03V264.846C320.787 263.64 321.109 262.676 321.753 261.953C322.398 261.226 323.277 260.862 324.39 260.862C325.333 260.862 326.099 261.138 326.69 261.69C327.286 262.237 327.598 262.957 327.627 263.85H325.95C325.931 263.396 325.774 263.023 325.481 262.73C325.193 262.437 324.825 262.29 324.375 262.29C323.799 262.29 323.355 262.5 323.042 262.92C322.73 263.335 322.571 263.968 322.566 264.817V265.103C322.566 265.962 322.72 266.604 323.028 267.029C323.34 267.449 323.79 267.659 324.375 267.659ZM332.461 269.08C331.333 269.08 330.418 268.726 329.715 268.018C329.017 267.305 328.667 266.358 328.667 265.176V264.956C328.667 264.165 328.819 263.46 329.122 262.84C329.429 262.215 329.859 261.729 330.411 261.382C330.962 261.035 331.578 260.862 332.256 260.862C333.335 260.862 334.168 261.206 334.754 261.895C335.345 262.583 335.64 263.557 335.64 264.817V265.535H330.462C330.516 266.189 330.733 266.707 331.114 267.088C331.5 267.469 331.983 267.659 332.564 267.659C333.379 267.659 334.043 267.329 334.556 266.67L335.516 267.586C335.198 268.059 334.773 268.428 334.241 268.692C333.714 268.95 333.121 269.08 332.461 269.08ZM332.249 262.29C331.761 262.29 331.365 262.461 331.062 262.803C330.765 263.145 330.574 263.621 330.491 264.231H333.882V264.099C333.843 263.504 333.685 263.054 333.406 262.752C333.128 262.444 332.742 262.29 332.249 262.29ZM338.921 268.933H337.142V257.683H338.921V268.933ZM342.759 268.933H340.979V257.683H342.759V268.933Z" fill="white"/>
</svg>
