<svg width="768" height="583" viewBox="0 0 768 583" fill="none" xmlns="http://www.w3.org/2000/svg">
<rect x="40" y="33" width="290" height="60" fill="#1E73FF"/>
<rect x="40" y="103" width="290" height="60" fill="#1E73FF"/>
<rect x="40" y="173" width="290" height="60" fill="#1E73FF"/>
<rect x="439" y="33" width="90" height="60" fill="#80CFFF"/>
<rect x="539" y="33" width="90" height="130" fill="#1E73FF"/>
<rect x="639" y="33" width="90" height="130" fill="#001EBB"/>
<rect x="439" y="103" width="90" height="60" fill="#80CFFF"/>
<rect x="639" y="173" width="90" height="60" fill="#80CFFF"/>
<rect x="439" y="173" width="190" height="60" fill="#001EBB"/>
<path fill-rule="evenodd" clip-rule="evenodd" d="M475 0L495 11.547L475 23.094V16H439V7H475V0Z" fill="#AAAAAA"/>
<path fill-rule="evenodd" clip-rule="evenodd" d="M406 69L417.547 89L429.094 69L422 69L422 33L413 33L413 69L406 69Z" fill="#AAAAAA"/>
<path fill-rule="evenodd" clip-rule="evenodd" d="M76 0L96 11.547L76 23.094V16H40V7H76V0Z" fill="#AAAAAA"/>
<path d="M89.3916 268.878H84.5273V274H82.4272V261.914H90.1055V263.607H84.5273V267.202H89.3916V268.878ZM93.7246 274H91.7075V261.25H93.7246V274ZM99.8838 274.166C98.6055 274.166 97.5679 273.765 96.771 272.962C95.9797 272.154 95.584 271.081 95.584 269.742V269.493C95.584 268.596 95.7555 267.797 96.0986 267.094C96.4473 266.385 96.9342 265.835 97.5596 265.442C98.1849 265.049 98.8822 264.853 99.6514 264.853C100.874 264.853 101.818 265.243 102.482 266.023C103.152 266.803 103.486 267.907 103.486 269.335V270.148H97.6177C97.6785 270.89 97.9248 271.477 98.3564 271.908C98.7936 272.34 99.3415 272.556 100 272.556C100.924 272.556 101.677 272.182 102.258 271.435L103.345 272.473C102.986 273.009 102.504 273.427 101.901 273.726C101.303 274.019 100.631 274.166 99.8838 274.166ZM99.6431 266.471C99.0897 266.471 98.6414 266.665 98.2983 267.052C97.9608 267.44 97.745 267.979 97.6509 268.671H101.494V268.521C101.45 267.846 101.27 267.337 100.955 266.994C100.639 266.646 100.202 266.471 99.6431 266.471ZM108.284 267.974L109.994 265.019H112.235L109.488 269.443L112.327 274H110.102L108.309 270.929L106.524 274H104.283L107.122 269.443L104.383 265.019H106.607L108.284 267.974ZM121.491 269.601C121.491 270.995 121.178 272.105 120.553 272.929C119.933 273.754 119.078 274.166 117.988 274.166C116.936 274.166 116.117 273.787 115.531 273.029L115.431 274H113.605V261.25H115.622V265.882C116.203 265.196 116.986 264.853 117.971 264.853C119.067 264.853 119.927 265.259 120.553 266.073C121.178 266.886 121.491 268.023 121.491 269.484V269.601ZM119.474 269.426C119.474 268.452 119.302 267.722 118.959 267.235C118.616 266.748 118.118 266.504 117.465 266.504C116.59 266.504 115.976 266.886 115.622 267.65V271.352C115.982 272.132 116.602 272.522 117.481 272.522C118.112 272.522 118.599 272.287 118.942 271.817C119.285 271.347 119.463 270.635 119.474 269.684V269.426ZM122.811 269.426C122.811 268.546 122.985 267.755 123.333 267.052C123.682 266.344 124.172 265.802 124.803 265.425C125.434 265.043 126.159 264.853 126.978 264.853C128.189 264.853 129.172 265.243 129.924 266.023C130.682 266.803 131.092 267.838 131.153 269.127L131.161 269.601C131.161 270.486 130.99 271.277 130.646 271.975C130.309 272.672 129.822 273.211 129.186 273.593C128.555 273.975 127.824 274.166 126.994 274.166C125.727 274.166 124.711 273.745 123.948 272.904C123.19 272.058 122.811 270.931 122.811 269.526V269.426ZM124.828 269.601C124.828 270.525 125.019 271.25 125.4 271.775C125.782 272.296 126.313 272.556 126.994 272.556C127.675 272.556 128.203 272.29 128.58 271.759C128.961 271.228 129.152 270.45 129.152 269.426C129.152 268.519 128.956 267.799 128.563 267.268C128.176 266.737 127.647 266.471 126.978 266.471C126.319 266.471 125.796 266.734 125.409 267.26C125.021 267.78 124.828 268.56 124.828 269.601ZM135.909 267.974L137.619 265.019H139.86L137.113 269.443L139.952 274H137.727L135.934 270.929L134.149 274H131.908L134.747 269.443L132.008 265.019H134.232L135.909 267.974ZM147.613 274H145.596V265.019H147.613V274ZM145.472 262.686C145.472 262.376 145.569 262.119 145.762 261.914C145.961 261.709 146.244 261.607 146.609 261.607C146.974 261.607 147.256 261.709 147.456 261.914C147.655 262.119 147.754 262.376 147.754 262.686C147.754 262.99 147.655 263.245 147.456 263.45C147.256 263.649 146.974 263.749 146.609 263.749C146.244 263.749 145.961 263.649 145.762 263.45C145.569 263.245 145.472 262.99 145.472 262.686ZM154.852 271.56C154.852 271.2 154.702 270.926 154.403 270.738C154.11 270.55 153.62 270.384 152.934 270.24C152.248 270.096 151.675 269.913 151.216 269.692C150.209 269.205 149.705 268.499 149.705 267.575C149.705 266.8 150.032 266.153 150.685 265.633C151.338 265.113 152.168 264.853 153.175 264.853C154.248 264.853 155.114 265.118 155.773 265.649C156.437 266.181 156.769 266.87 156.769 267.716H154.752C154.752 267.329 154.608 267.008 154.32 266.753C154.033 266.493 153.651 266.363 153.175 266.363C152.732 266.363 152.37 266.466 152.087 266.67C151.811 266.875 151.672 267.149 151.672 267.492C151.672 267.802 151.802 268.043 152.062 268.214C152.323 268.386 152.848 268.56 153.64 268.737C154.431 268.909 155.051 269.116 155.499 269.36C155.953 269.598 156.288 269.886 156.503 270.223C156.725 270.561 156.835 270.97 156.835 271.452C156.835 272.26 156.501 272.915 155.831 273.419C155.161 273.917 154.284 274.166 153.2 274.166C152.464 274.166 151.808 274.033 151.232 273.768C150.657 273.502 150.209 273.137 149.888 272.672C149.567 272.207 149.406 271.706 149.406 271.169H151.365C151.393 271.645 151.573 272.013 151.905 272.273C152.237 272.528 152.677 272.655 153.225 272.655C153.756 272.655 154.16 272.556 154.437 272.356C154.713 272.152 154.852 271.886 154.852 271.56ZM162.455 269.426C162.455 268.546 162.629 267.755 162.978 267.052C163.327 266.344 163.816 265.802 164.447 265.425C165.078 265.043 165.803 264.853 166.622 264.853C167.834 264.853 168.816 265.243 169.569 266.023C170.327 266.803 170.736 267.838 170.797 269.127L170.806 269.601C170.806 270.486 170.634 271.277 170.291 271.975C169.953 272.672 169.466 273.211 168.83 273.593C168.199 273.975 167.469 274.166 166.639 274.166C165.371 274.166 164.356 273.745 163.592 272.904C162.834 272.058 162.455 270.931 162.455 269.526V269.426ZM164.472 269.601C164.472 270.525 164.663 271.25 165.045 271.775C165.427 272.296 165.958 272.556 166.639 272.556C167.319 272.556 167.848 272.29 168.224 271.759C168.606 271.228 168.797 270.45 168.797 269.426C168.797 268.519 168.6 267.799 168.208 267.268C167.82 266.737 167.292 266.471 166.622 266.471C165.964 266.471 165.441 266.734 165.053 267.26C164.666 267.78 164.472 268.56 164.472 269.601ZM174.383 265.019L174.441 266.056C175.105 265.254 175.977 264.853 177.056 264.853C178.927 264.853 179.878 265.923 179.912 268.065V274H177.895V268.181C177.895 267.611 177.77 267.191 177.521 266.919C177.278 266.643 176.876 266.504 176.317 266.504C175.504 266.504 174.898 266.872 174.5 267.608V274H172.482V265.019H174.383ZM185.93 274.166C184.651 274.166 183.614 273.765 182.817 272.962C182.026 272.154 181.63 271.081 181.63 269.742V269.493C181.63 268.596 181.801 267.797 182.145 267.094C182.493 266.385 182.98 265.835 183.605 265.442C184.231 265.049 184.928 264.853 185.697 264.853C186.92 264.853 187.864 265.243 188.528 266.023C189.197 266.803 189.532 267.907 189.532 269.335V270.148H183.664C183.724 270.89 183.971 271.477 184.402 271.908C184.84 272.34 185.387 272.556 186.046 272.556C186.97 272.556 187.723 272.182 188.304 271.435L189.391 272.473C189.031 273.009 188.55 273.427 187.947 273.726C187.349 274.019 186.677 274.166 185.93 274.166ZM185.689 266.471C185.136 266.471 184.687 266.665 184.344 267.052C184.007 267.44 183.791 267.979 183.697 268.671H187.54V268.521C187.496 267.846 187.316 267.337 187 266.994C186.685 266.646 186.248 266.471 185.689 266.471ZM195.019 269.675H190.661V268.048H195.019V269.675ZM196.306 269.443C196.306 268.059 196.627 266.95 197.269 266.114C197.91 265.273 198.771 264.853 199.85 264.853C200.802 264.853 201.571 265.185 202.158 265.849V261.25H204.175V274H202.349L202.249 273.07C201.646 273.801 200.841 274.166 199.833 274.166C198.782 274.166 197.93 273.743 197.277 272.896C196.629 272.049 196.306 270.898 196.306 269.443ZM198.323 269.617C198.323 270.53 198.497 271.244 198.846 271.759C199.2 272.268 199.701 272.522 200.348 272.522C201.173 272.522 201.776 272.154 202.158 271.418V267.583C201.787 266.864 201.189 266.504 200.365 266.504C199.712 266.504 199.208 266.764 198.854 267.285C198.5 267.799 198.323 268.577 198.323 269.617ZM208.425 274H206.408V265.019H208.425V274ZM206.283 262.686C206.283 262.376 206.38 262.119 206.574 261.914C206.773 261.709 207.055 261.607 207.42 261.607C207.786 261.607 208.068 261.709 208.267 261.914C208.466 262.119 208.566 262.376 208.566 262.686C208.566 262.99 208.466 263.245 208.267 263.45C208.068 263.649 207.786 263.749 207.42 263.749C207.055 263.749 206.773 263.649 206.574 263.45C206.38 263.245 206.283 262.99 206.283 262.686ZM212.525 265.019L212.583 265.957C213.214 265.221 214.078 264.853 215.173 264.853C216.374 264.853 217.196 265.312 217.639 266.23C218.292 265.312 219.21 264.853 220.395 264.853C221.385 264.853 222.121 265.126 222.603 265.674C223.09 266.222 223.339 267.03 223.35 268.098V274H221.333V268.156C221.333 267.586 221.208 267.168 220.959 266.903C220.71 266.637 220.298 266.504 219.722 266.504C219.263 266.504 218.887 266.629 218.593 266.878C218.306 267.121 218.104 267.442 217.987 267.841L217.996 274H215.979V268.09C215.951 267.033 215.411 266.504 214.36 266.504C213.552 266.504 212.979 266.834 212.642 267.492V274H210.625V265.019H212.525ZM229.376 274.166C228.098 274.166 227.06 273.765 226.263 272.962C225.472 272.154 225.076 271.081 225.076 269.742V269.493C225.076 268.596 225.248 267.797 225.591 267.094C225.939 266.385 226.426 265.835 227.052 265.442C227.677 265.049 228.374 264.853 229.144 264.853C230.367 264.853 231.31 265.243 231.974 266.023C232.644 266.803 232.979 267.907 232.979 269.335V270.148H227.11C227.171 270.89 227.417 271.477 227.849 271.908C228.286 272.34 228.834 272.556 229.492 272.556C230.416 272.556 231.169 272.182 231.75 271.435L232.837 272.473C232.478 273.009 231.996 273.427 231.393 273.726C230.795 274.019 230.123 274.166 229.376 274.166ZM229.135 266.471C228.582 266.471 228.134 266.665 227.791 267.052C227.453 267.44 227.237 267.979 227.143 268.671H230.986V268.521C230.942 267.846 230.762 267.337 230.447 266.994C230.131 266.646 229.694 266.471 229.135 266.471ZM236.423 265.019L236.481 266.056C237.146 265.254 238.017 264.853 239.096 264.853C240.967 264.853 241.918 265.923 241.952 268.065V274H239.935V268.181C239.935 267.611 239.81 267.191 239.561 266.919C239.318 266.643 238.916 266.504 238.357 266.504C237.544 266.504 236.938 266.872 236.54 267.608V274H234.522V265.019H236.423ZM249.049 271.56C249.049 271.2 248.899 270.926 248.601 270.738C248.307 270.55 247.818 270.384 247.131 270.24C246.445 270.096 245.872 269.913 245.413 269.692C244.406 269.205 243.902 268.499 243.902 267.575C243.902 266.8 244.229 266.153 244.882 265.633C245.535 265.113 246.365 264.853 247.372 264.853C248.446 264.853 249.312 265.118 249.97 265.649C250.634 266.181 250.966 266.87 250.966 267.716H248.949C248.949 267.329 248.805 267.008 248.518 266.753C248.23 266.493 247.848 266.363 247.372 266.363C246.929 266.363 246.567 266.466 246.285 266.67C246.008 266.875 245.87 267.149 245.87 267.492C245.87 267.802 246 268.043 246.26 268.214C246.52 268.386 247.046 268.56 247.837 268.737C248.628 268.909 249.248 269.116 249.696 269.36C250.15 269.598 250.485 269.886 250.701 270.223C250.922 270.561 251.033 270.97 251.033 271.452C251.033 272.26 250.698 272.915 250.028 273.419C249.359 273.917 248.482 274.166 247.397 274.166C246.661 274.166 246.005 274.033 245.43 273.768C244.854 273.502 244.406 273.137 244.085 272.672C243.764 272.207 243.604 271.706 243.604 271.169H245.562C245.59 271.645 245.77 272.013 246.102 272.273C246.434 272.528 246.874 272.655 247.422 272.655C247.953 272.655 248.357 272.556 248.634 272.356C248.91 272.152 249.049 271.886 249.049 271.56ZM254.942 274H252.925V265.019H254.942V274ZM252.801 262.686C252.801 262.376 252.898 262.119 253.091 261.914C253.291 261.709 253.573 261.607 253.938 261.607C254.303 261.607 254.585 261.709 254.785 261.914C254.984 262.119 255.083 262.376 255.083 262.686C255.083 262.99 254.984 263.245 254.785 263.45C254.585 263.649 254.303 263.749 253.938 263.749C253.573 263.749 253.291 263.649 253.091 263.45C252.898 263.245 252.801 262.99 252.801 262.686ZM256.769 269.426C256.769 268.546 256.943 267.755 257.292 267.052C257.64 266.344 258.13 265.802 258.761 265.425C259.392 265.043 260.117 264.853 260.936 264.853C262.147 264.853 263.13 265.243 263.882 266.023C264.64 266.803 265.05 267.838 265.111 269.127L265.119 269.601C265.119 270.486 264.948 271.277 264.604 271.975C264.267 272.672 263.78 273.211 263.144 273.593C262.513 273.975 261.782 274.166 260.952 274.166C259.685 274.166 258.669 273.745 257.906 272.904C257.148 272.058 256.769 270.931 256.769 269.526V269.426ZM258.786 269.601C258.786 270.525 258.977 271.25 259.358 271.775C259.74 272.296 260.271 272.556 260.952 272.556C261.633 272.556 262.161 272.29 262.538 271.759C262.919 271.228 263.11 270.45 263.11 269.426C263.11 268.519 262.914 267.799 262.521 267.268C262.134 266.737 261.605 266.471 260.936 266.471C260.277 266.471 259.754 266.734 259.367 267.26C258.979 267.78 258.786 268.56 258.786 269.601ZM268.697 265.019L268.755 266.056C269.419 265.254 270.291 264.853 271.37 264.853C273.24 264.853 274.192 265.923 274.225 268.065V274H272.208V268.181C272.208 267.611 272.083 267.191 271.834 266.919C271.591 266.643 271.19 266.504 270.631 266.504C269.817 266.504 269.211 266.872 268.813 267.608V274H266.796V265.019H268.697ZM281.654 274C281.566 273.828 281.488 273.549 281.422 273.162C280.78 273.831 279.994 274.166 279.064 274.166C278.162 274.166 277.426 273.909 276.856 273.394C276.286 272.879 276.001 272.243 276.001 271.485C276.001 270.528 276.356 269.794 277.064 269.285C277.778 268.771 278.796 268.513 280.119 268.513H281.355V267.924C281.355 267.459 281.225 267.088 280.965 266.812C280.705 266.529 280.31 266.388 279.778 266.388C279.319 266.388 278.943 266.504 278.649 266.737C278.356 266.964 278.209 267.254 278.209 267.608H276.192C276.192 267.116 276.356 266.657 276.682 266.23C277.009 265.799 277.451 265.461 278.01 265.218C278.575 264.974 279.203 264.853 279.895 264.853C280.946 264.853 281.784 265.118 282.41 265.649C283.035 266.175 283.356 266.917 283.373 267.874V271.925C283.373 272.733 283.486 273.377 283.713 273.859V274H281.654ZM279.438 272.547C279.836 272.547 280.21 272.451 280.559 272.257C280.913 272.063 281.178 271.803 281.355 271.477V269.783H280.268C279.521 269.783 278.959 269.913 278.583 270.173C278.207 270.433 278.019 270.801 278.019 271.277C278.019 271.665 278.146 271.975 278.4 272.207C278.66 272.434 279.006 272.547 279.438 272.547ZM287.631 274H285.614V261.25H287.631V274Z" fill="#222222"/>
<path d="M486.624 270.065C486.502 271.355 486.026 272.362 485.196 273.087C484.366 273.806 483.262 274.166 481.884 274.166C480.921 274.166 480.071 273.939 479.335 273.485C478.605 273.026 478.041 272.376 477.642 271.535C477.244 270.694 477.036 269.717 477.02 268.604V267.476C477.02 266.336 477.222 265.331 477.625 264.462C478.029 263.594 478.608 262.924 479.36 262.454C480.118 261.983 480.993 261.748 481.983 261.748C483.317 261.748 484.391 262.111 485.204 262.835C486.018 263.56 486.491 264.584 486.624 265.907H484.532C484.432 265.038 484.178 264.413 483.768 264.031C483.364 263.643 482.769 263.45 481.983 263.45C481.07 263.45 480.368 263.785 479.875 264.454C479.388 265.118 479.139 266.095 479.128 267.384V268.455C479.128 269.761 479.36 270.757 479.825 271.443C480.296 272.13 480.982 272.473 481.884 272.473C482.708 272.473 483.328 272.287 483.743 271.917C484.158 271.546 484.421 270.929 484.532 270.065H486.624ZM494.825 270.887C494.825 270.356 494.637 269.946 494.26 269.659C493.889 269.371 493.217 269.08 492.243 268.787C491.269 268.494 490.494 268.167 489.919 267.808C488.818 267.116 488.267 266.214 488.267 265.102C488.267 264.128 488.663 263.325 489.454 262.694C490.251 262.063 491.283 261.748 492.55 261.748C493.391 261.748 494.141 261.903 494.8 262.213C495.458 262.523 495.976 262.965 496.352 263.541C496.728 264.111 496.917 264.745 496.917 265.442H494.825C494.825 264.811 494.625 264.319 494.227 263.964C493.834 263.605 493.27 263.425 492.534 263.425C491.847 263.425 491.313 263.571 490.932 263.865C490.555 264.158 490.367 264.568 490.367 265.093C490.367 265.536 490.572 265.907 490.981 266.206C491.391 266.499 492.066 266.787 493.007 267.069C493.948 267.346 494.703 267.664 495.273 268.023C495.843 268.378 496.261 268.787 496.526 269.252C496.792 269.711 496.925 270.251 496.925 270.871C496.925 271.878 496.537 272.68 495.763 273.278C494.993 273.87 493.948 274.166 492.625 274.166C491.751 274.166 490.945 274.006 490.209 273.685C489.479 273.358 488.909 272.91 488.5 272.34C488.096 271.77 487.894 271.106 487.894 270.348H489.994C489.994 271.034 490.221 271.565 490.674 271.941C491.128 272.318 491.778 272.506 492.625 272.506C493.355 272.506 493.903 272.359 494.269 272.066C494.639 271.767 494.825 271.374 494.825 270.887ZM505.084 270.887C505.084 270.356 504.896 269.946 504.52 269.659C504.149 269.371 503.477 269.08 502.503 268.787C501.529 268.494 500.754 268.167 500.179 267.808C499.077 267.116 498.527 266.214 498.527 265.102C498.527 264.128 498.923 263.325 499.714 262.694C500.511 262.063 501.543 261.748 502.81 261.748C503.651 261.748 504.401 261.903 505.06 262.213C505.718 262.523 506.236 262.965 506.612 263.541C506.988 264.111 507.176 264.745 507.176 265.442H505.084C505.084 264.811 504.885 264.319 504.487 263.964C504.094 263.605 503.529 263.425 502.793 263.425C502.107 263.425 501.573 263.571 501.191 263.865C500.815 264.158 500.627 264.568 500.627 265.093C500.627 265.536 500.832 265.907 501.241 266.206C501.651 266.499 502.326 266.787 503.267 267.069C504.207 267.346 504.963 267.664 505.533 268.023C506.103 268.378 506.521 268.787 506.786 269.252C507.052 269.711 507.185 270.251 507.185 270.871C507.185 271.878 506.797 272.68 506.022 273.278C505.253 273.87 504.207 274.166 502.885 274.166C502.01 274.166 501.205 274.006 500.469 273.685C499.739 273.358 499.169 272.91 498.759 272.34C498.355 271.77 498.153 271.106 498.153 270.348H500.253C500.253 271.034 500.48 271.565 500.934 271.941C501.388 272.318 502.038 272.506 502.885 272.506C503.615 272.506 504.163 272.359 504.528 272.066C504.899 271.767 505.084 271.374 505.084 270.887ZM522.524 272.431C522.087 273.001 521.481 273.433 520.707 273.726C519.932 274.019 519.052 274.166 518.067 274.166C517.054 274.166 516.158 273.936 515.377 273.477C514.597 273.018 513.994 272.362 513.568 271.51C513.147 270.652 512.929 269.653 512.912 268.513V267.567C512.912 265.741 513.349 264.316 514.224 263.292C515.098 262.263 516.318 261.748 517.884 261.748C519.229 261.748 520.297 262.08 521.088 262.744C521.88 263.408 522.356 264.366 522.516 265.616H520.458C520.225 264.161 519.381 263.433 517.926 263.433C516.985 263.433 516.268 263.773 515.776 264.454C515.289 265.129 515.037 266.123 515.021 267.434V268.364C515.021 269.67 515.294 270.685 515.842 271.41C516.396 272.13 517.162 272.489 518.142 272.489C519.215 272.489 519.979 272.246 520.433 271.759V269.393H517.942V267.799H522.524V272.431ZM529.339 266.861C529.074 266.817 528.8 266.795 528.518 266.795C527.593 266.795 526.971 267.149 526.65 267.857V274H524.633V265.019H526.559L526.608 266.023C527.095 265.243 527.771 264.853 528.634 264.853C528.922 264.853 529.16 264.891 529.348 264.969L529.339 266.861ZM532.759 274H530.742V265.019H532.759V274ZM530.618 262.686C530.618 262.376 530.715 262.119 530.908 261.914C531.107 261.709 531.39 261.607 531.755 261.607C532.12 261.607 532.402 261.709 532.602 261.914C532.801 262.119 532.9 262.376 532.9 262.686C532.9 262.99 532.801 263.245 532.602 263.45C532.402 263.649 532.12 263.749 531.755 263.749C531.39 263.749 531.107 263.649 530.908 263.45C530.715 263.245 530.618 262.99 530.618 262.686ZM534.585 269.443C534.585 268.059 534.906 266.95 535.548 266.114C536.19 265.273 537.051 264.853 538.13 264.853C539.082 264.853 539.851 265.185 540.438 265.849V261.25H542.455V274H540.628L540.529 273.07C539.926 273.801 539.12 274.166 538.113 274.166C537.062 274.166 536.21 273.743 535.557 272.896C534.909 272.049 534.585 270.898 534.585 269.443ZM536.603 269.617C536.603 270.53 536.777 271.244 537.125 271.759C537.48 272.268 537.98 272.522 538.628 272.522C539.452 272.522 540.056 272.154 540.438 271.418V267.583C540.067 266.864 539.469 266.504 538.645 266.504C537.992 266.504 537.488 266.764 537.134 267.285C536.78 267.799 536.603 268.577 536.603 269.617ZM550.938 274H548.921V265.019H550.938V274ZM548.796 262.686C548.796 262.376 548.893 262.119 549.087 261.914C549.286 261.709 549.568 261.607 549.934 261.607C550.299 261.607 550.581 261.709 550.78 261.914C550.979 262.119 551.079 262.376 551.079 262.686C551.079 262.99 550.979 263.245 550.78 263.45C550.581 263.649 550.299 263.749 549.934 263.749C549.568 263.749 549.286 263.649 549.087 263.45C548.893 263.245 548.796 262.99 548.796 262.686ZM558.176 271.56C558.176 271.2 558.027 270.926 557.728 270.738C557.435 270.55 556.945 270.384 556.259 270.24C555.573 270.096 555 269.913 554.541 269.692C553.533 269.205 553.03 268.499 553.03 267.575C553.03 266.8 553.356 266.153 554.009 265.633C554.662 265.113 555.492 264.853 556.5 264.853C557.573 264.853 558.439 265.118 559.098 265.649C559.762 266.181 560.094 266.87 560.094 267.716H558.077C558.077 267.329 557.933 267.008 557.645 266.753C557.357 266.493 556.975 266.363 556.5 266.363C556.057 266.363 555.694 266.466 555.412 266.67C555.135 266.875 554.997 267.149 554.997 267.492C554.997 267.802 555.127 268.043 555.387 268.214C555.647 268.386 556.173 268.56 556.964 268.737C557.756 268.909 558.375 269.116 558.824 269.36C559.278 269.598 559.612 269.886 559.828 270.223C560.049 270.561 560.16 270.97 560.16 271.452C560.16 272.26 559.825 272.915 559.156 273.419C558.486 273.917 557.609 274.166 556.524 274.166C555.788 274.166 555.133 274.033 554.557 273.768C553.982 273.502 553.533 273.137 553.212 272.672C552.891 272.207 552.731 271.706 552.731 271.169H554.69C554.718 271.645 554.897 272.013 555.229 272.273C555.562 272.528 556.001 272.655 556.549 272.655C557.081 272.655 557.485 272.556 557.761 272.356C558.038 272.152 558.176 271.886 558.176 271.56ZM568.685 262.835V265.019H570.271V266.513H568.685V271.526C568.685 271.869 568.751 272.118 568.884 272.273C569.023 272.423 569.266 272.498 569.615 272.498C569.847 272.498 570.082 272.47 570.32 272.415V273.975C569.861 274.102 569.418 274.166 568.992 274.166C567.443 274.166 566.668 273.311 566.668 271.601V266.513H565.19V265.019H566.668V262.835H568.685ZM579.708 271.219L581.136 265.019H583.104L580.655 274H578.995L577.069 267.833L575.176 274H573.516L571.059 265.019H573.026L574.479 271.153L576.322 265.019H577.841L579.708 271.219ZM584.075 269.426C584.075 268.546 584.249 267.755 584.598 267.052C584.946 266.344 585.436 265.802 586.067 265.425C586.698 265.043 587.423 264.853 588.242 264.853C589.454 264.853 590.436 265.243 591.188 266.023C591.947 266.803 592.356 267.838 592.417 269.127L592.425 269.601C592.425 270.486 592.254 271.277 591.911 271.975C591.573 272.672 591.086 273.211 590.45 273.593C589.819 273.975 589.088 274.166 588.258 274.166C586.991 274.166 585.976 273.745 585.212 272.904C584.454 272.058 584.075 270.931 584.075 269.526V269.426ZM586.092 269.601C586.092 270.525 586.283 271.25 586.665 271.775C587.046 272.296 587.578 272.556 588.258 272.556C588.939 272.556 589.467 272.29 589.844 271.759C590.226 271.228 590.417 270.45 590.417 269.426C590.417 268.519 590.22 267.799 589.827 267.268C589.44 266.737 588.911 266.471 588.242 266.471C587.583 266.471 587.06 266.734 586.673 267.26C586.285 267.78 586.092 268.56 586.092 269.601ZM598.045 269.675H593.687V268.048H598.045V269.675ZM599.332 269.443C599.332 268.059 599.653 266.95 600.294 266.114C600.936 265.273 601.797 264.853 602.876 264.853C603.828 264.853 604.597 265.185 605.184 265.849V261.25H607.201V274H605.375L605.275 273.07C604.672 273.801 603.867 274.166 602.859 274.166C601.808 274.166 600.956 273.743 600.303 272.896C599.655 272.049 599.332 270.898 599.332 269.443ZM601.349 269.617C601.349 270.53 601.523 271.244 601.872 271.759C602.226 272.268 602.727 272.522 603.374 272.522C604.199 272.522 604.802 272.154 605.184 271.418V267.583C604.813 266.864 604.215 266.504 603.391 266.504C602.738 266.504 602.234 266.764 601.88 267.285C601.526 267.799 601.349 268.577 601.349 269.617ZM611.451 274H609.434V265.019H611.451V274ZM609.309 262.686C609.309 262.376 609.406 262.119 609.6 261.914C609.799 261.709 610.081 261.607 610.446 261.607C610.812 261.607 611.094 261.709 611.293 261.914C611.492 262.119 611.592 262.376 611.592 262.686C611.592 262.99 611.492 263.245 611.293 263.45C611.094 263.649 610.812 263.749 610.446 263.749C610.081 263.749 609.799 263.649 609.6 263.45C609.406 263.245 609.309 262.99 609.309 262.686ZM615.551 265.019L615.609 265.957C616.24 265.221 617.104 264.853 618.199 264.853C619.4 264.853 620.222 265.312 620.665 266.23C621.318 265.312 622.236 264.853 623.42 264.853C624.411 264.853 625.147 265.126 625.628 265.674C626.115 266.222 626.364 267.03 626.375 268.098V274H624.358V268.156C624.358 267.586 624.234 267.168 623.985 266.903C623.736 266.637 623.324 266.504 622.748 266.504C622.289 266.504 621.912 266.629 621.619 266.878C621.331 267.121 621.129 267.442 621.013 267.841L621.021 274H619.004V268.09C618.977 267.033 618.437 266.504 617.386 266.504C616.578 266.504 616.005 266.834 615.667 267.492V274H613.65V265.019H615.551ZM632.402 274.166C631.124 274.166 630.086 273.765 629.289 272.962C628.498 272.154 628.102 271.081 628.102 269.742V269.493C628.102 268.596 628.274 267.797 628.617 267.094C628.965 266.385 629.452 265.835 630.078 265.442C630.703 265.049 631.4 264.853 632.169 264.853C633.392 264.853 634.336 265.243 635 266.023C635.67 266.803 636.004 267.907 636.004 269.335V270.148H630.136C630.197 270.89 630.443 271.477 630.875 271.908C631.312 272.34 631.86 272.556 632.518 272.556C633.442 272.556 634.195 272.182 634.776 271.435L635.863 272.473C635.504 273.009 635.022 273.427 634.419 273.726C633.821 274.019 633.149 274.166 632.402 274.166ZM632.161 266.471C631.608 266.471 631.16 266.665 630.816 267.052C630.479 267.44 630.263 267.979 630.169 268.671H634.012V268.521C633.968 267.846 633.788 267.337 633.473 266.994C633.157 266.646 632.72 266.471 632.161 266.471ZM639.449 265.019L639.507 266.056C640.171 265.254 641.043 264.853 642.122 264.853C643.993 264.853 644.944 265.923 644.978 268.065V274H642.96V268.181C642.96 267.611 642.836 267.191 642.587 266.919C642.343 266.643 641.942 266.504 641.383 266.504C640.57 266.504 639.964 266.872 639.565 267.608V274H637.548V265.019H639.449ZM652.075 271.56C652.075 271.2 651.925 270.926 651.626 270.738C651.333 270.55 650.843 270.384 650.157 270.24C649.471 270.096 648.898 269.913 648.439 269.692C647.432 269.205 646.928 268.499 646.928 267.575C646.928 266.8 647.255 266.153 647.908 265.633C648.561 265.113 649.391 264.853 650.398 264.853C651.472 264.853 652.338 265.118 652.996 265.649C653.66 266.181 653.992 266.87 653.992 267.716H651.975C651.975 267.329 651.831 267.008 651.543 266.753C651.256 266.493 650.874 266.363 650.398 266.363C649.955 266.363 649.593 266.466 649.311 266.67C649.034 266.875 648.896 267.149 648.896 267.492C648.896 267.802 649.026 268.043 649.286 268.214C649.546 268.386 650.071 268.56 650.863 268.737C651.654 268.909 652.274 269.116 652.722 269.36C653.176 269.598 653.511 269.886 653.727 270.223C653.948 270.561 654.059 270.97 654.059 271.452C654.059 272.26 653.724 272.915 653.054 273.419C652.385 273.917 651.507 274.166 650.423 274.166C649.687 274.166 649.031 274.033 648.456 273.768C647.88 273.502 647.432 273.137 647.111 272.672C646.79 272.207 646.629 271.706 646.629 271.169H648.588C648.616 271.645 648.796 272.013 649.128 272.273C649.46 272.528 649.9 272.655 650.448 272.655C650.979 272.655 651.383 272.556 651.66 272.356C651.936 272.152 652.075 271.886 652.075 271.56ZM657.968 274H655.951V265.019H657.968V274ZM655.827 262.686C655.827 262.376 655.924 262.119 656.117 261.914C656.316 261.709 656.599 261.607 656.964 261.607C657.329 261.607 657.611 261.709 657.811 261.914C658.01 262.119 658.109 262.376 658.109 262.686C658.109 262.99 658.01 263.245 657.811 263.45C657.611 263.649 657.329 263.749 656.964 263.749C656.599 263.749 656.316 263.649 656.117 263.45C655.924 263.245 655.827 262.99 655.827 262.686ZM659.794 269.426C659.794 268.546 659.969 267.755 660.317 267.052C660.666 266.344 661.156 265.802 661.787 265.425C662.417 265.043 663.142 264.853 663.961 264.853C665.173 264.853 666.156 265.243 666.908 266.023C667.666 266.803 668.076 267.838 668.137 269.127L668.145 269.601C668.145 270.486 667.973 271.277 667.63 271.975C667.293 272.672 666.806 273.211 666.169 273.593C665.539 273.975 664.808 274.166 663.978 274.166C662.711 274.166 661.695 273.745 660.932 272.904C660.174 272.058 659.794 270.931 659.794 269.526V269.426ZM661.812 269.601C661.812 270.525 662.002 271.25 662.384 271.775C662.766 272.296 663.297 272.556 663.978 272.556C664.659 272.556 665.187 272.29 665.563 271.759C665.945 271.228 666.136 270.45 666.136 269.426C666.136 268.519 665.94 267.799 665.547 267.268C665.16 266.737 664.631 266.471 663.961 266.471C663.303 266.471 662.78 266.734 662.393 267.26C662.005 267.78 661.812 268.56 661.812 269.601ZM671.723 265.019L671.781 266.056C672.445 265.254 673.316 264.853 674.396 264.853C676.266 264.853 677.218 265.923 677.251 268.065V274H675.234V268.181C675.234 267.611 675.109 267.191 674.86 266.919C674.617 266.643 674.216 266.504 673.657 266.504C672.843 266.504 672.237 266.872 671.839 267.608V274H669.822V265.019H671.723ZM684.68 274C684.592 273.828 684.514 273.549 684.448 273.162C683.806 273.831 683.02 274.166 682.09 274.166C681.188 274.166 680.452 273.909 679.882 273.394C679.312 272.879 679.027 272.243 679.027 271.485C679.027 270.528 679.382 269.794 680.09 269.285C680.804 268.771 681.822 268.513 683.145 268.513H684.381V267.924C684.381 267.459 684.251 267.088 683.991 266.812C683.731 266.529 683.335 266.388 682.804 266.388C682.345 266.388 681.969 266.504 681.675 266.737C681.382 266.964 681.235 267.254 681.235 267.608H679.218C679.218 267.116 679.382 266.657 679.708 266.23C680.035 265.799 680.477 265.461 681.036 265.218C681.601 264.974 682.229 264.853 682.92 264.853C683.972 264.853 684.81 265.118 685.436 265.649C686.061 266.175 686.382 266.917 686.398 267.874V271.925C686.398 272.733 686.512 273.377 686.739 273.859V274H684.68ZM682.464 272.547C682.862 272.547 683.236 272.451 683.584 272.257C683.939 272.063 684.204 271.803 684.381 271.477V269.783H683.294C682.547 269.783 681.985 269.913 681.609 270.173C681.233 270.433 681.044 270.801 681.044 271.277C681.044 271.665 681.172 271.975 681.426 272.207C681.686 272.434 682.032 272.547 682.464 272.547ZM690.657 274H688.64V261.25H690.657V274Z" fill="#222222"/>
<path fill-rule="evenodd" clip-rule="evenodd" d="M229.548 436L244 444L229.548 452V447H216V441H229.548V436Z" fill="#AAAAAA"/>
<path fill-rule="evenodd" clip-rule="evenodd" d="M230.452 463L216 471L230.452 479V474H244V468H230.452V463Z" fill="#AAAAAA"/>
<path fill-rule="evenodd" clip-rule="evenodd" d="M447.548 436L462 444L447.548 452V447H434V441H447.548V436Z" fill="#AAAAAA"/>
<path fill-rule="evenodd" clip-rule="evenodd" d="M448.452 463L434 471L448.452 479V474H462V468H448.452V463Z" fill="#AAAAAA"/>
<path fill-rule="evenodd" clip-rule="evenodd" d="M633.548 436L648 444L633.548 452V447H620V441H633.548V436Z" fill="#AAAAAA"/>
<path fill-rule="evenodd" clip-rule="evenodd" d="M634.452 463L620 471L634.452 479V474H648V468H634.452V463Z" fill="#AAAAAA"/>
<path d="M86.6987 357.481H82.4067V362H80.5537V351.336H87.3286V352.83H82.4067V356.001H86.6987V357.481ZM90.522 362H88.7422V350.75H90.522V362ZM95.9565 362.146C94.8286 362.146 93.9131 361.792 93.21 361.084C92.5117 360.372 92.1626 359.424 92.1626 358.243V358.023C92.1626 357.232 92.314 356.526 92.6167 355.906C92.9243 355.281 93.354 354.795 93.9058 354.449C94.4575 354.102 95.0728 353.929 95.7515 353.929C96.8306 353.929 97.6631 354.273 98.249 354.961C98.8398 355.65 99.1353 356.624 99.1353 357.884V358.602H93.957C94.0107 359.256 94.228 359.773 94.6089 360.154C94.9946 360.535 95.478 360.726 96.0591 360.726C96.8745 360.726 97.5386 360.396 98.0513 359.737L99.0107 360.652C98.6934 361.126 98.2686 361.495 97.7363 361.758C97.209 362.017 96.6157 362.146 95.9565 362.146ZM95.7441 355.357C95.2559 355.357 94.8604 355.528 94.5576 355.87C94.2598 356.211 94.0693 356.688 93.9863 357.298H97.3774V357.166C97.3384 356.57 97.1797 356.121 96.9014 355.818C96.623 355.511 96.2373 355.357 95.7441 355.357ZM103.369 356.683L104.877 354.075H106.855L104.431 357.979L106.936 362H104.973L103.391 359.29L101.816 362H99.8384L102.343 357.979L99.9263 354.075H101.889L103.369 356.683ZM115.021 358.118C115.021 359.349 114.746 360.328 114.194 361.055C113.647 361.783 112.893 362.146 111.931 362.146C111.003 362.146 110.28 361.812 109.763 361.143L109.675 362H108.063V350.75H109.843V354.837C110.356 354.231 111.047 353.929 111.916 353.929C112.883 353.929 113.642 354.288 114.194 355.005C114.746 355.723 115.021 356.727 115.021 358.016V358.118ZM113.242 357.964C113.242 357.105 113.09 356.46 112.788 356.031C112.485 355.601 112.045 355.386 111.469 355.386C110.698 355.386 110.156 355.723 109.843 356.397V359.664C110.161 360.352 110.708 360.696 111.484 360.696C112.041 360.696 112.47 360.489 112.773 360.074C113.076 359.659 113.232 359.031 113.242 358.191V357.964ZM116.186 357.964C116.186 357.188 116.34 356.49 116.647 355.87C116.955 355.245 117.387 354.766 117.944 354.434C118.5 354.097 119.14 353.929 119.863 353.929C120.932 353.929 121.799 354.273 122.463 354.961C123.132 355.65 123.493 356.563 123.547 357.701L123.554 358.118C123.554 358.899 123.403 359.598 123.1 360.213C122.802 360.828 122.373 361.304 121.811 361.641C121.254 361.978 120.61 362.146 119.877 362.146C118.759 362.146 117.863 361.775 117.189 361.033C116.521 360.286 116.186 359.292 116.186 358.052V357.964ZM117.966 358.118C117.966 358.934 118.134 359.573 118.471 360.037C118.808 360.496 119.277 360.726 119.877 360.726C120.478 360.726 120.944 360.491 121.276 360.022C121.613 359.554 121.782 358.868 121.782 357.964C121.782 357.164 121.608 356.529 121.262 356.06C120.92 355.591 120.454 355.357 119.863 355.357C119.282 355.357 118.82 355.589 118.479 356.053C118.137 356.512 117.966 357.2 117.966 358.118ZM127.744 356.683L129.252 354.075H131.23L128.806 357.979L131.311 362H129.348L127.766 359.29L126.191 362H124.213L126.718 357.979L124.301 354.075H126.264L127.744 356.683Z" fill="#222222"/>
<path d="M100.364 485.616C99.978 486.119 99.4434 486.5 98.7598 486.758C98.0762 487.017 97.2998 487.146 96.4307 487.146C95.5371 487.146 94.7461 486.944 94.0576 486.539C93.3691 486.133 92.8369 485.555 92.4609 484.803C92.0898 484.046 91.897 483.165 91.8823 482.159V481.324C91.8823 479.712 92.2681 478.455 93.0396 477.552C93.811 476.644 94.8877 476.189 96.2695 476.189C97.4561 476.189 98.3984 476.482 99.0967 477.068C99.7949 477.654 100.215 478.499 100.356 479.603H98.54C98.335 478.318 97.5903 477.676 96.3062 477.676C95.4761 477.676 94.8438 477.977 94.4092 478.577C93.9795 479.173 93.7573 480.049 93.7427 481.207V482.027C93.7427 483.179 93.9844 484.075 94.4678 484.715C94.9561 485.35 95.6323 485.667 96.4966 485.667C97.4438 485.667 98.1177 485.452 98.5181 485.022V482.935H96.3208V481.529H100.364V485.616ZM106.377 480.701C106.143 480.662 105.901 480.643 105.652 480.643C104.836 480.643 104.287 480.955 104.004 481.58V487H102.224V479.075H103.923L103.967 479.961C104.397 479.273 104.993 478.929 105.754 478.929C106.008 478.929 106.218 478.963 106.384 479.031L106.377 480.701ZM109.395 487H107.615V479.075H109.395V487ZM107.505 477.017C107.505 476.744 107.59 476.517 107.761 476.336C107.937 476.155 108.186 476.065 108.508 476.065C108.831 476.065 109.08 476.155 109.255 476.336C109.431 476.517 109.519 476.744 109.519 477.017C109.519 477.286 109.431 477.51 109.255 477.691C109.08 477.867 108.831 477.955 108.508 477.955C108.186 477.955 107.937 477.867 107.761 477.691C107.59 477.51 107.505 477.286 107.505 477.017ZM111.006 482.979C111.006 481.758 111.289 480.779 111.855 480.042C112.422 479.3 113.181 478.929 114.133 478.929C114.973 478.929 115.652 479.222 116.169 479.808V475.75H117.949V487H116.338L116.25 486.18C115.718 486.824 115.007 487.146 114.119 487.146C113.191 487.146 112.439 486.773 111.863 486.026C111.292 485.279 111.006 484.263 111.006 482.979ZM112.786 483.133C112.786 483.938 112.939 484.568 113.247 485.022C113.56 485.472 114.001 485.696 114.573 485.696C115.3 485.696 115.833 485.372 116.169 484.722V481.338C115.842 480.704 115.315 480.386 114.587 480.386C114.011 480.386 113.567 480.616 113.254 481.075C112.942 481.529 112.786 482.215 112.786 483.133Z" fill="#222222"/>
<rect x="10" y="377" width="30" height="30" fill="#1E73FF"/>
<path d="M26.855 397H25.0825V388.438L22.4678 389.332V387.83L26.6279 386.299H26.855V397Z" fill="white"/>
<rect x="42" y="377" width="30" height="30" fill="#379AD6"/>
<path d="M61.2061 397H54.0356V395.777L57.5879 391.902C58.1006 391.331 58.4644 390.855 58.6792 390.474C58.8989 390.088 59.0088 389.703 59.0088 389.317C59.0088 388.809 58.8647 388.399 58.5767 388.086C58.2935 387.774 57.9102 387.618 57.4268 387.618C56.8506 387.618 56.4038 387.793 56.0864 388.145C55.769 388.497 55.6104 388.978 55.6104 389.588H53.8306C53.8306 388.938 53.9771 388.355 54.27 387.837C54.5679 387.315 54.9902 386.91 55.5371 386.622C56.0889 386.333 56.7236 386.189 57.4414 386.189C58.4766 386.189 59.292 386.451 59.8877 386.973C60.4883 387.491 60.7886 388.208 60.7886 389.126C60.7886 389.659 60.6372 390.218 60.3345 390.804C60.0366 391.385 59.5459 392.046 58.8623 392.789L56.2549 395.579H61.2061V397Z" fill="white"/>
<rect x="74" y="377" width="30" height="30" fill="#80CFFF"/>
<path d="M88.0938 390.855H89.1777C89.7246 390.85 90.1567 390.708 90.4741 390.43C90.7964 390.152 90.9575 389.749 90.9575 389.222C90.9575 388.714 90.8232 388.321 90.5547 388.042C90.291 387.759 89.8857 387.618 89.3389 387.618C88.8604 387.618 88.4673 387.757 88.1597 388.035C87.8521 388.309 87.6982 388.667 87.6982 389.112H85.9185C85.9185 388.565 86.0625 388.067 86.3506 387.618C86.6436 387.168 87.0488 386.819 87.5664 386.57C88.0889 386.316 88.6724 386.189 89.3169 386.189C90.3813 386.189 91.2163 386.458 91.8218 386.995C92.4321 387.527 92.7373 388.27 92.7373 389.222C92.7373 389.7 92.5835 390.152 92.2759 390.577C91.9731 390.997 91.5801 391.314 91.0967 391.529C91.6826 391.729 92.127 392.044 92.4297 392.474C92.7373 392.903 92.8911 393.416 92.8911 394.012C92.8911 394.969 92.5615 395.73 91.9023 396.297C91.248 396.863 90.3862 397.146 89.3169 397.146C88.2915 397.146 87.4517 396.873 86.7974 396.326C86.1431 395.779 85.8159 395.052 85.8159 394.144H87.5957C87.5957 394.612 87.752 394.993 88.0645 395.286C88.3818 395.579 88.8066 395.726 89.3389 395.726C89.8906 395.726 90.3252 395.579 90.6426 395.286C90.96 394.993 91.1187 394.568 91.1187 394.012C91.1187 393.45 90.9526 393.018 90.6206 392.715C90.2886 392.413 89.7954 392.261 89.1411 392.261H88.0938V390.855Z" fill="white"/>
<rect x="106" y="377" width="30" height="30" fill="#4961DD"/>
<path d="M124.056 393.199H125.382V394.627H124.056V397H122.276V394.627H117.669L117.618 393.543L122.218 386.336H124.056V393.199ZM119.486 393.199H122.276V388.746L122.145 388.98L119.486 393.199Z" fill="white"/>
<rect x="138" y="377" width="30" height="30" fill="#001EBB"/>
<path d="M150.512 391.712L151.09 386.336H156.818V387.874H152.57L152.277 390.423C152.77 390.14 153.327 389.998 153.947 389.998C154.962 389.998 155.751 390.323 156.312 390.972C156.879 391.622 157.162 392.496 157.162 393.594C157.162 394.678 156.85 395.542 156.225 396.187C155.6 396.827 154.743 397.146 153.654 397.146C152.677 397.146 151.867 396.871 151.222 396.319C150.583 395.762 150.236 395.03 150.182 394.122H151.903C151.972 394.639 152.157 395.037 152.46 395.315C152.763 395.589 153.158 395.726 153.646 395.726C154.193 395.726 154.618 395.53 154.921 395.14C155.229 394.749 155.382 394.217 155.382 393.543C155.382 392.894 155.214 392.381 154.877 392.005C154.54 391.624 154.076 391.434 153.485 391.434C153.163 391.434 152.89 391.478 152.665 391.565C152.44 391.648 152.196 391.814 151.933 392.063L150.512 391.712Z" fill="white"/>
<rect x="170" y="377" width="30" height="30" fill="#4065A3"/>
<path d="M187.573 386.285V387.757H187.353C186.357 387.771 185.561 388.045 184.965 388.577C184.37 389.109 184.016 389.864 183.903 390.84C184.475 390.24 185.205 389.939 186.093 389.939C187.036 389.939 187.778 390.271 188.32 390.936C188.867 391.6 189.14 392.457 189.14 393.506C189.14 394.59 188.82 395.469 188.181 396.143C187.546 396.812 186.711 397.146 185.676 397.146C184.611 397.146 183.747 396.753 183.083 395.967C182.424 395.181 182.094 394.151 182.094 392.876V392.269C182.094 390.398 182.548 388.934 183.457 387.874C184.37 386.814 185.681 386.285 187.39 386.285H187.573ZM185.661 391.375C185.271 391.375 184.912 391.485 184.584 391.705C184.262 391.924 184.025 392.217 183.874 392.583V393.125C183.874 393.917 184.04 394.546 184.372 395.015C184.704 395.479 185.134 395.711 185.661 395.711C186.188 395.711 186.606 395.513 186.914 395.118C187.221 394.722 187.375 394.202 187.375 393.558C187.375 392.913 187.219 392.388 186.906 391.983C186.594 391.578 186.179 391.375 185.661 391.375Z" fill="white"/>
<rect x="10" y="502" width="30" height="30" fill="#1E73FF"/>
<path d="M26.855 522H25.0825V513.438L22.4678 514.332V512.83L26.6279 511.299H26.855V522Z" fill="white"/>
<rect x="42" y="502" width="30" height="30" fill="#379AD6"/>
<path d="M61.2061 522H54.0356V520.777L57.5879 516.902C58.1006 516.331 58.4644 515.855 58.6792 515.474C58.8989 515.088 59.0088 514.703 59.0088 514.317C59.0088 513.809 58.8647 513.399 58.5767 513.086C58.2935 512.774 57.9102 512.618 57.4268 512.618C56.8506 512.618 56.4038 512.793 56.0864 513.145C55.769 513.497 55.6104 513.978 55.6104 514.588H53.8306C53.8306 513.938 53.9771 513.355 54.27 512.837C54.5679 512.315 54.9902 511.91 55.5371 511.622C56.0889 511.333 56.7236 511.189 57.4414 511.189C58.4766 511.189 59.292 511.451 59.8877 511.973C60.4883 512.491 60.7886 513.208 60.7886 514.126C60.7886 514.659 60.6372 515.218 60.3345 515.804C60.0366 516.385 59.5459 517.046 58.8623 517.789L56.2549 520.579H61.2061V522Z" fill="white"/>
<rect x="74" y="502" width="30" height="30" fill="#80CFFF"/>
<path d="M88.0938 515.855H89.1777C89.7246 515.85 90.1567 515.708 90.4741 515.43C90.7964 515.152 90.9575 514.749 90.9575 514.222C90.9575 513.714 90.8232 513.321 90.5547 513.042C90.291 512.759 89.8857 512.618 89.3389 512.618C88.8604 512.618 88.4673 512.757 88.1597 513.035C87.8521 513.309 87.6982 513.667 87.6982 514.112H85.9185C85.9185 513.565 86.0625 513.067 86.3506 512.618C86.6436 512.168 87.0488 511.819 87.5664 511.57C88.0889 511.316 88.6724 511.189 89.3169 511.189C90.3813 511.189 91.2163 511.458 91.8218 511.995C92.4321 512.527 92.7373 513.27 92.7373 514.222C92.7373 514.7 92.5835 515.152 92.2759 515.577C91.9731 515.997 91.5801 516.314 91.0967 516.529C91.6826 516.729 92.127 517.044 92.4297 517.474C92.7373 517.903 92.8911 518.416 92.8911 519.012C92.8911 519.969 92.5615 520.73 91.9023 521.297C91.248 521.863 90.3862 522.146 89.3169 522.146C88.2915 522.146 87.4517 521.873 86.7974 521.326C86.1431 520.779 85.8159 520.052 85.8159 519.144H87.5957C87.5957 519.612 87.752 519.993 88.0645 520.286C88.3818 520.579 88.8066 520.726 89.3389 520.726C89.8906 520.726 90.3252 520.579 90.6426 520.286C90.96 519.993 91.1187 519.568 91.1187 519.012C91.1187 518.45 90.9526 518.018 90.6206 517.715C90.2886 517.413 89.7954 517.261 89.1411 517.261H88.0938V515.855Z" fill="white"/>
<rect x="106" y="502" width="30" height="30" fill="#4961DD"/>
<path d="M124.056 518.199H125.382V519.627H124.056V522H122.276V519.627H117.669L117.618 518.543L122.218 511.336H124.056V518.199ZM119.486 518.199H122.276V513.746L122.145 513.98L119.486 518.199Z" fill="white"/>
<rect x="138" y="502" width="30" height="30" fill="#001EBB"/>
<path d="M150.512 516.712L151.09 511.336H156.818V512.874H152.57L152.277 515.423C152.77 515.14 153.327 514.998 153.947 514.998C154.962 514.998 155.751 515.323 156.312 515.972C156.879 516.622 157.162 517.496 157.162 518.594C157.162 519.678 156.85 520.542 156.225 521.187C155.6 521.827 154.743 522.146 153.654 522.146C152.677 522.146 151.867 521.871 151.222 521.319C150.583 520.762 150.236 520.03 150.182 519.122H151.903C151.972 519.639 152.157 520.037 152.46 520.315C152.763 520.589 153.158 520.726 153.646 520.726C154.193 520.726 154.618 520.53 154.921 520.14C155.229 519.749 155.382 519.217 155.382 518.543C155.382 517.894 155.214 517.381 154.877 517.005C154.54 516.624 154.076 516.434 153.485 516.434C153.163 516.434 152.89 516.478 152.665 516.565C152.44 516.648 152.196 516.814 151.933 517.063L150.512 516.712Z" fill="white"/>
<rect x="170" y="502" width="30" height="30" fill="#4065A3"/>
<path d="M187.573 511.285V512.757H187.353C186.357 512.771 185.561 513.045 184.965 513.577C184.37 514.109 184.016 514.864 183.903 515.84C184.475 515.24 185.205 514.939 186.093 514.939C187.036 514.939 187.778 515.271 188.32 515.936C188.867 516.6 189.14 517.457 189.14 518.506C189.14 519.59 188.82 520.469 188.181 521.143C187.546 521.812 186.711 522.146 185.676 522.146C184.611 522.146 183.747 521.753 183.083 520.967C182.424 520.181 182.094 519.151 182.094 517.876V517.269C182.094 515.398 182.548 513.934 183.457 512.874C184.37 511.814 185.681 511.285 187.39 511.285H187.573ZM185.661 516.375C185.271 516.375 184.912 516.485 184.584 516.705C184.262 516.924 184.025 517.217 183.874 517.583V518.125C183.874 518.917 184.04 519.546 184.372 520.015C184.704 520.479 185.134 520.711 185.661 520.711C186.188 520.711 186.606 520.513 186.914 520.118C187.221 519.722 187.375 519.202 187.375 518.558C187.375 517.913 187.219 517.388 186.906 516.983C186.594 516.578 186.179 516.375 185.661 516.375Z" fill="white"/>
<rect x="0.5" y="331.5" width="209" height="251" stroke="#CCCCCC" stroke-dasharray="6 4"/>
<path d="M320.699 357.481H316.407V362H314.554V351.336H321.329V352.83H316.407V356.001H320.699V357.481ZM324.522 362H322.742V350.75H324.522V362ZM329.957 362.146C328.829 362.146 327.913 361.792 327.21 361.084C326.512 360.372 326.163 359.424 326.163 358.243V358.023C326.163 357.232 326.314 356.526 326.617 355.906C326.924 355.281 327.354 354.795 327.906 354.449C328.458 354.102 329.073 353.929 329.751 353.929C330.831 353.929 331.663 354.273 332.249 354.961C332.84 355.65 333.135 356.624 333.135 357.884V358.602H327.957C328.011 359.256 328.228 359.773 328.609 360.154C328.995 360.535 329.478 360.726 330.059 360.726C330.875 360.726 331.539 360.396 332.051 359.737L333.011 360.652C332.693 361.126 332.269 361.495 331.736 361.758C331.209 362.017 330.616 362.146 329.957 362.146ZM329.744 355.357C329.256 355.357 328.86 355.528 328.558 355.87C328.26 356.211 328.069 356.688 327.986 357.298H331.377V357.166C331.338 356.57 331.18 356.121 330.901 355.818C330.623 355.511 330.237 355.357 329.744 355.357ZM337.369 356.683L338.877 354.075H340.855L338.431 357.979L340.936 362H338.973L337.391 359.29L335.816 362H333.838L336.343 357.979L333.926 354.075H335.889L337.369 356.683ZM349.021 358.118C349.021 359.349 348.746 360.328 348.194 361.055C347.647 361.783 346.893 362.146 345.931 362.146C345.003 362.146 344.28 361.812 343.763 361.143L343.675 362H342.063V350.75H343.843V354.837C344.356 354.231 345.047 353.929 345.916 353.929C346.883 353.929 347.642 354.288 348.194 355.005C348.746 355.723 349.021 356.727 349.021 358.016V358.118ZM347.242 357.964C347.242 357.105 347.09 356.46 346.788 356.031C346.485 355.601 346.045 355.386 345.469 355.386C344.698 355.386 344.156 355.723 343.843 356.397V359.664C344.161 360.352 344.708 360.696 345.484 360.696C346.041 360.696 346.47 360.489 346.773 360.074C347.076 359.659 347.232 359.031 347.242 358.191V357.964ZM350.186 357.964C350.186 357.188 350.34 356.49 350.647 355.87C350.955 355.245 351.387 354.766 351.944 354.434C352.5 354.097 353.14 353.929 353.863 353.929C354.932 353.929 355.799 354.273 356.463 354.961C357.132 355.65 357.493 356.563 357.547 357.701L357.554 358.118C357.554 358.899 357.403 359.598 357.1 360.213C356.802 360.828 356.373 361.304 355.811 361.641C355.254 361.978 354.61 362.146 353.877 362.146C352.759 362.146 351.863 361.775 351.189 361.033C350.521 360.286 350.186 359.292 350.186 358.052V357.964ZM351.966 358.118C351.966 358.934 352.134 359.573 352.471 360.037C352.808 360.496 353.277 360.726 353.877 360.726C354.478 360.726 354.944 360.491 355.276 360.022C355.613 359.554 355.782 358.868 355.782 357.964C355.782 357.164 355.608 356.529 355.262 356.06C354.92 355.591 354.454 355.357 353.863 355.357C353.282 355.357 352.82 355.589 352.479 356.053C352.137 356.512 351.966 357.2 351.966 358.118ZM361.744 356.683L363.252 354.075H365.23L362.806 357.979L365.311 362H363.348L361.766 359.29L360.191 362H358.213L360.718 357.979L358.301 354.075H360.264L361.744 356.683Z" fill="#222222"/>
<path d="M334.364 485.616C333.978 486.119 333.443 486.5 332.76 486.758C332.076 487.017 331.3 487.146 330.431 487.146C329.537 487.146 328.746 486.944 328.058 486.539C327.369 486.133 326.837 485.555 326.461 484.803C326.09 484.046 325.897 483.165 325.882 482.159V481.324C325.882 479.712 326.268 478.455 327.04 477.552C327.811 476.644 328.888 476.189 330.27 476.189C331.456 476.189 332.398 476.482 333.097 477.068C333.795 477.654 334.215 478.499 334.356 479.603H332.54C332.335 478.318 331.59 477.676 330.306 477.676C329.476 477.676 328.844 477.977 328.409 478.577C327.979 479.173 327.757 480.049 327.743 481.207V482.027C327.743 483.179 327.984 484.075 328.468 484.715C328.956 485.35 329.632 485.667 330.497 485.667C331.444 485.667 332.118 485.452 332.518 485.022V482.935H330.321V481.529H334.364V485.616ZM340.377 480.701C340.143 480.662 339.901 480.643 339.652 480.643C338.836 480.643 338.287 480.955 338.004 481.58V487H336.224V479.075H337.923L337.967 479.961C338.397 479.273 338.993 478.929 339.754 478.929C340.008 478.929 340.218 478.963 340.384 479.031L340.377 480.701ZM343.395 487H341.615V479.075H343.395V487ZM341.505 477.017C341.505 476.744 341.59 476.517 341.761 476.336C341.937 476.155 342.186 476.065 342.508 476.065C342.831 476.065 343.08 476.155 343.255 476.336C343.431 476.517 343.519 476.744 343.519 477.017C343.519 477.286 343.431 477.51 343.255 477.691C343.08 477.867 342.831 477.955 342.508 477.955C342.186 477.955 341.937 477.867 341.761 477.691C341.59 477.51 341.505 477.286 341.505 477.017ZM345.006 482.979C345.006 481.758 345.289 480.779 345.855 480.042C346.422 479.3 347.181 478.929 348.133 478.929C348.973 478.929 349.652 479.222 350.169 479.808V475.75H351.949V487H350.338L350.25 486.18C349.718 486.824 349.007 487.146 348.119 487.146C347.191 487.146 346.439 486.773 345.863 486.026C345.292 485.279 345.006 484.263 345.006 482.979ZM346.786 483.133C346.786 483.938 346.939 484.568 347.247 485.022C347.56 485.472 348.001 485.696 348.573 485.696C349.3 485.696 349.833 485.372 350.169 484.722V481.338C349.842 480.704 349.315 480.386 348.587 480.386C348.011 480.386 347.567 480.616 347.254 481.075C346.942 481.529 346.786 482.215 346.786 483.133Z" fill="#222222"/>
<rect x="260" y="377" width="30" height="30" fill="#1E73FF"/>
<path d="M276.855 397H275.083V388.438L272.468 389.332V387.83L276.628 386.299H276.855V397Z" fill="white"/>
<rect x="292" y="377" width="30" height="30" fill="#379AD6"/>
<path d="M311.206 397H304.036V395.777L307.588 391.902C308.101 391.331 308.464 390.855 308.679 390.474C308.899 390.088 309.009 389.703 309.009 389.317C309.009 388.809 308.865 388.399 308.577 388.086C308.293 387.774 307.91 387.618 307.427 387.618C306.851 387.618 306.404 387.793 306.086 388.145C305.769 388.497 305.61 388.978 305.61 389.588H303.831C303.831 388.938 303.977 388.355 304.27 387.837C304.568 387.315 304.99 386.91 305.537 386.622C306.089 386.333 306.724 386.189 307.441 386.189C308.477 386.189 309.292 386.451 309.888 386.973C310.488 387.491 310.789 388.208 310.789 389.126C310.789 389.659 310.637 390.218 310.334 390.804C310.037 391.385 309.546 392.046 308.862 392.789L306.255 395.579H311.206V397Z" fill="white"/>
<rect x="324" y="377" width="30" height="30" fill="#80CFFF"/>
<path d="M338.094 390.855H339.178C339.725 390.85 340.157 390.708 340.474 390.43C340.796 390.152 340.958 389.749 340.958 389.222C340.958 388.714 340.823 388.321 340.555 388.042C340.291 387.759 339.886 387.618 339.339 387.618C338.86 387.618 338.467 387.757 338.16 388.035C337.852 388.309 337.698 388.667 337.698 389.112H335.918C335.918 388.565 336.062 388.067 336.351 387.618C336.644 387.168 337.049 386.819 337.566 386.57C338.089 386.316 338.672 386.189 339.317 386.189C340.381 386.189 341.216 386.458 341.822 386.995C342.432 387.527 342.737 388.27 342.737 389.222C342.737 389.7 342.583 390.152 342.276 390.577C341.973 390.997 341.58 391.314 341.097 391.529C341.683 391.729 342.127 392.044 342.43 392.474C342.737 392.903 342.891 393.416 342.891 394.012C342.891 394.969 342.562 395.73 341.902 396.297C341.248 396.863 340.386 397.146 339.317 397.146C338.292 397.146 337.452 396.873 336.797 396.326C336.143 395.779 335.816 395.052 335.816 394.144H337.596C337.596 394.612 337.752 394.993 338.064 395.286C338.382 395.579 338.807 395.726 339.339 395.726C339.891 395.726 340.325 395.579 340.643 395.286C340.96 394.993 341.119 394.568 341.119 394.012C341.119 393.45 340.953 393.018 340.621 392.715C340.289 392.413 339.795 392.261 339.141 392.261H338.094V390.855Z" fill="white"/>
<rect x="356" y="377" width="30" height="30" fill="#4961DD"/>
<path d="M374.056 393.199H375.382V394.627H374.056V397H372.276V394.627H367.669L367.618 393.543L372.218 386.336H374.056V393.199ZM369.486 393.199H372.276V388.746L372.145 388.98L369.486 393.199Z" fill="white"/>
<rect x="388" y="377" width="30" height="30" fill="#001EBB"/>
<path d="M400.512 391.712L401.09 386.336H406.818V387.874H402.57L402.277 390.423C402.77 390.14 403.327 389.998 403.947 389.998C404.962 389.998 405.751 390.323 406.312 390.972C406.879 391.622 407.162 392.496 407.162 393.594C407.162 394.678 406.85 395.542 406.225 396.187C405.6 396.827 404.743 397.146 403.654 397.146C402.677 397.146 401.867 396.871 401.222 396.319C400.583 395.762 400.236 395.03 400.182 394.122H401.903C401.972 394.639 402.157 395.037 402.46 395.315C402.763 395.589 403.158 395.726 403.646 395.726C404.193 395.726 404.618 395.53 404.921 395.14C405.229 394.749 405.382 394.217 405.382 393.543C405.382 392.894 405.214 392.381 404.877 392.005C404.54 391.624 404.076 391.434 403.485 391.434C403.163 391.434 402.89 391.478 402.665 391.565C402.44 391.648 402.196 391.814 401.933 392.063L400.512 391.712Z" fill="white"/>
<rect x="260" y="409" width="158" height="30" fill="#4065A3"/>
<path d="M341.24 418.285V419.757H341.02C340.024 419.771 339.228 420.045 338.632 420.577C338.037 421.109 337.683 421.864 337.57 422.84C338.142 422.24 338.872 421.939 339.76 421.939C340.703 421.939 341.445 422.271 341.987 422.936C342.534 423.6 342.807 424.457 342.807 425.506C342.807 426.59 342.487 427.469 341.848 428.143C341.213 428.812 340.378 429.146 339.343 429.146C338.278 429.146 337.414 428.753 336.75 427.967C336.091 427.181 335.761 426.151 335.761 424.876V424.269C335.761 422.398 336.215 420.934 337.124 419.874C338.037 418.814 339.348 418.285 341.057 418.285H341.24ZM339.328 423.375C338.938 423.375 338.579 423.485 338.251 423.705C337.929 423.924 337.692 424.217 337.541 424.583V425.125C337.541 425.917 337.707 426.546 338.039 427.015C338.371 427.479 338.801 427.711 339.328 427.711C339.855 427.711 340.273 427.513 340.581 427.118C340.888 426.722 341.042 426.202 341.042 425.558C341.042 424.913 340.886 424.388 340.573 423.983C340.261 423.578 339.846 423.375 339.328 423.375Z" fill="white"/>
<rect x="260" y="502" width="30" height="30" fill="#1E73FF"/>
<path d="M276.855 522H275.083V513.438L272.468 514.332V512.83L276.628 511.299H276.855V522Z" fill="white"/>
<rect x="292" y="502" width="30" height="30" fill="#379AD6"/>
<path d="M311.206 522H304.036V520.777L307.588 516.902C308.101 516.331 308.464 515.855 308.679 515.474C308.899 515.088 309.009 514.703 309.009 514.317C309.009 513.809 308.865 513.399 308.577 513.086C308.293 512.774 307.91 512.618 307.427 512.618C306.851 512.618 306.404 512.793 306.086 513.145C305.769 513.497 305.61 513.978 305.61 514.588H303.831C303.831 513.938 303.977 513.355 304.27 512.837C304.568 512.315 304.99 511.91 305.537 511.622C306.089 511.333 306.724 511.189 307.441 511.189C308.477 511.189 309.292 511.451 309.888 511.973C310.488 512.491 310.789 513.208 310.789 514.126C310.789 514.659 310.637 515.218 310.334 515.804C310.037 516.385 309.546 517.046 308.862 517.789L306.255 520.579H311.206V522Z" fill="white"/>
<rect x="324" y="502" width="30" height="30" fill="#80CFFF"/>
<path d="M338.094 515.855H339.178C339.725 515.85 340.157 515.708 340.474 515.43C340.796 515.152 340.958 514.749 340.958 514.222C340.958 513.714 340.823 513.321 340.555 513.042C340.291 512.759 339.886 512.618 339.339 512.618C338.86 512.618 338.467 512.757 338.16 513.035C337.852 513.309 337.698 513.667 337.698 514.112H335.918C335.918 513.565 336.062 513.067 336.351 512.618C336.644 512.168 337.049 511.819 337.566 511.57C338.089 511.316 338.672 511.189 339.317 511.189C340.381 511.189 341.216 511.458 341.822 511.995C342.432 512.527 342.737 513.27 342.737 514.222C342.737 514.7 342.583 515.152 342.276 515.577C341.973 515.997 341.58 516.314 341.097 516.529C341.683 516.729 342.127 517.044 342.43 517.474C342.737 517.903 342.891 518.416 342.891 519.012C342.891 519.969 342.562 520.73 341.902 521.297C341.248 521.863 340.386 522.146 339.317 522.146C338.292 522.146 337.452 521.873 336.797 521.326C336.143 520.779 335.816 520.052 335.816 519.144H337.596C337.596 519.612 337.752 519.993 338.064 520.286C338.382 520.579 338.807 520.726 339.339 520.726C339.891 520.726 340.325 520.579 340.643 520.286C340.96 519.993 341.119 519.568 341.119 519.012C341.119 518.45 340.953 518.018 340.621 517.715C340.289 517.413 339.795 517.261 339.141 517.261H338.094V515.855Z" fill="white"/>
<rect x="356" y="502" width="30" height="30" fill="#4961DD"/>
<path d="M374.056 518.199H375.382V519.627H374.056V522H372.276V519.627H367.669L367.618 518.543L372.218 511.336H374.056V518.199ZM369.486 518.199H372.276V513.746L372.145 513.98L369.486 518.199Z" fill="white"/>
<rect x="388" y="502" width="30" height="30" fill="#001EBB"/>
<path d="M400.512 516.712L401.09 511.336H406.818V512.874H402.57L402.277 515.423C402.77 515.14 403.327 514.998 403.947 514.998C404.962 514.998 405.751 515.323 406.312 515.972C406.879 516.622 407.162 517.496 407.162 518.594C407.162 519.678 406.85 520.542 406.225 521.187C405.6 521.827 404.743 522.146 403.654 522.146C402.677 522.146 401.867 521.871 401.222 521.319C400.583 520.762 400.236 520.03 400.182 519.122H401.903C401.972 519.639 402.157 520.037 402.46 520.315C402.763 520.589 403.158 520.726 403.646 520.726C404.193 520.726 404.618 520.53 404.921 520.14C405.229 519.749 405.382 519.217 405.382 518.543C405.382 517.894 405.214 517.381 404.877 517.005C404.54 516.624 404.076 516.434 403.485 516.434C403.163 516.434 402.89 516.478 402.665 516.565C402.44 516.648 402.196 516.814 401.933 517.063L400.512 516.712Z" fill="white"/>
<rect x="260" y="534" width="30" height="30" fill="#4065A3"/>
<path d="M277.573 543.285V544.757H277.353C276.357 544.771 275.561 545.045 274.965 545.577C274.37 546.109 274.016 546.864 273.903 547.84C274.475 547.24 275.205 546.939 276.093 546.939C277.036 546.939 277.778 547.271 278.32 547.936C278.867 548.6 279.14 549.457 279.14 550.506C279.14 551.59 278.82 552.469 278.181 553.143C277.546 553.812 276.711 554.146 275.676 554.146C274.611 554.146 273.747 553.753 273.083 552.967C272.424 552.181 272.094 551.151 272.094 549.876V549.269C272.094 547.398 272.548 545.934 273.457 544.874C274.37 543.814 275.681 543.285 277.39 543.285H277.573ZM275.661 548.375C275.271 548.375 274.912 548.485 274.584 548.705C274.262 548.924 274.025 549.217 273.874 549.583V550.125C273.874 550.917 274.04 551.546 274.372 552.015C274.704 552.479 275.134 552.711 275.661 552.711C276.188 552.711 276.606 552.513 276.914 552.118C277.221 551.722 277.375 551.202 277.375 550.558C277.375 549.913 277.219 549.388 276.906 548.983C276.594 548.578 276.179 548.375 275.661 548.375Z" fill="white"/>
<rect x="250.5" y="331.5" width="177" height="251" stroke="#CCCCCC" stroke-dasharray="6 4"/>
<path d="M522.699 357.481H518.407V362H516.554V351.336H523.329V352.83H518.407V356.001H522.699V357.481ZM526.522 362H524.742V350.75H526.522V362ZM531.957 362.146C530.829 362.146 529.913 361.792 529.21 361.084C528.512 360.372 528.163 359.424 528.163 358.243V358.023C528.163 357.232 528.314 356.526 528.617 355.906C528.924 355.281 529.354 354.795 529.906 354.449C530.458 354.102 531.073 353.929 531.751 353.929C532.831 353.929 533.663 354.273 534.249 354.961C534.84 355.65 535.135 356.624 535.135 357.884V358.602H529.957C530.011 359.256 530.228 359.773 530.609 360.154C530.995 360.535 531.478 360.726 532.059 360.726C532.875 360.726 533.539 360.396 534.051 359.737L535.011 360.652C534.693 361.126 534.269 361.495 533.736 361.758C533.209 362.017 532.616 362.146 531.957 362.146ZM531.744 355.357C531.256 355.357 530.86 355.528 530.558 355.87C530.26 356.211 530.069 356.688 529.986 357.298H533.377V357.166C533.338 356.57 533.18 356.121 532.901 355.818C532.623 355.511 532.237 355.357 531.744 355.357ZM539.369 356.683L540.877 354.075H542.855L540.431 357.979L542.936 362H540.973L539.391 359.29L537.816 362H535.838L538.343 357.979L535.926 354.075H537.889L539.369 356.683ZM551.021 358.118C551.021 359.349 550.746 360.328 550.194 361.055C549.647 361.783 548.893 362.146 547.931 362.146C547.003 362.146 546.28 361.812 545.763 361.143L545.675 362H544.063V350.75H545.843V354.837C546.356 354.231 547.047 353.929 547.916 353.929C548.883 353.929 549.642 354.288 550.194 355.005C550.746 355.723 551.021 356.727 551.021 358.016V358.118ZM549.242 357.964C549.242 357.105 549.09 356.46 548.788 356.031C548.485 355.601 548.045 355.386 547.469 355.386C546.698 355.386 546.156 355.723 545.843 356.397V359.664C546.161 360.352 546.708 360.696 547.484 360.696C548.041 360.696 548.47 360.489 548.773 360.074C549.076 359.659 549.232 359.031 549.242 358.191V357.964ZM552.186 357.964C552.186 357.188 552.34 356.49 552.647 355.87C552.955 355.245 553.387 354.766 553.944 354.434C554.5 354.097 555.14 353.929 555.863 353.929C556.932 353.929 557.799 354.273 558.463 354.961C559.132 355.65 559.493 356.563 559.547 357.701L559.554 358.118C559.554 358.899 559.403 359.598 559.1 360.213C558.802 360.828 558.373 361.304 557.811 361.641C557.254 361.978 556.61 362.146 555.877 362.146C554.759 362.146 553.863 361.775 553.189 361.033C552.521 360.286 552.186 359.292 552.186 358.052V357.964ZM553.966 358.118C553.966 358.934 554.134 359.573 554.471 360.037C554.808 360.496 555.277 360.726 555.877 360.726C556.478 360.726 556.944 360.491 557.276 360.022C557.613 359.554 557.782 358.868 557.782 357.964C557.782 357.164 557.608 356.529 557.262 356.06C556.92 355.591 556.454 355.357 555.863 355.357C555.282 355.357 554.82 355.589 554.479 356.053C554.137 356.512 553.966 357.2 553.966 358.118ZM563.744 356.683L565.252 354.075H567.23L564.806 357.979L567.311 362H565.348L563.766 359.29L562.191 362H560.213L562.718 357.979L560.301 354.075H562.264L563.744 356.683Z" fill="#222222"/>
<path d="M536.364 485.616C535.978 486.119 535.443 486.5 534.76 486.758C534.076 487.017 533.3 487.146 532.431 487.146C531.537 487.146 530.746 486.944 530.058 486.539C529.369 486.133 528.837 485.555 528.461 484.803C528.09 484.046 527.897 483.165 527.882 482.159V481.324C527.882 479.712 528.268 478.455 529.04 477.552C529.811 476.644 530.888 476.189 532.27 476.189C533.456 476.189 534.398 476.482 535.097 477.068C535.795 477.654 536.215 478.499 536.356 479.603H534.54C534.335 478.318 533.59 477.676 532.306 477.676C531.476 477.676 530.844 477.977 530.409 478.577C529.979 479.173 529.757 480.049 529.743 481.207V482.027C529.743 483.179 529.984 484.075 530.468 484.715C530.956 485.35 531.632 485.667 532.497 485.667C533.444 485.667 534.118 485.452 534.518 485.022V482.935H532.321V481.529H536.364V485.616ZM542.377 480.701C542.143 480.662 541.901 480.643 541.652 480.643C540.836 480.643 540.287 480.955 540.004 481.58V487H538.224V479.075H539.923L539.967 479.961C540.397 479.273 540.993 478.929 541.754 478.929C542.008 478.929 542.218 478.963 542.384 479.031L542.377 480.701ZM545.395 487H543.615V479.075H545.395V487ZM543.505 477.017C543.505 476.744 543.59 476.517 543.761 476.336C543.937 476.155 544.186 476.065 544.508 476.065C544.831 476.065 545.08 476.155 545.255 476.336C545.431 476.517 545.519 476.744 545.519 477.017C545.519 477.286 545.431 477.51 545.255 477.691C545.08 477.867 544.831 477.955 544.508 477.955C544.186 477.955 543.937 477.867 543.761 477.691C543.59 477.51 543.505 477.286 543.505 477.017ZM547.006 482.979C547.006 481.758 547.289 480.779 547.855 480.042C548.422 479.3 549.181 478.929 550.133 478.929C550.973 478.929 551.652 479.222 552.169 479.808V475.75H553.949V487H552.338L552.25 486.18C551.718 486.824 551.007 487.146 550.119 487.146C549.191 487.146 548.439 486.773 547.863 486.026C547.292 485.279 547.006 484.263 547.006 482.979ZM548.786 483.133C548.786 483.938 548.939 484.568 549.247 485.022C549.56 485.472 550.001 485.696 550.573 485.696C551.3 485.696 551.833 485.372 552.169 484.722V481.338C551.842 480.704 551.315 480.386 550.587 480.386C550.011 480.386 549.567 480.616 549.254 481.075C548.942 481.529 548.786 482.215 548.786 483.133Z" fill="#222222"/>
<rect x="478" y="377" width="30" height="30" fill="#1E73FF"/>
<path d="M494.855 397H493.083V388.438L490.468 389.332V387.83L494.628 386.299H494.855V397Z" fill="white"/>
<rect x="510" y="377" width="30" height="30" fill="#379AD6"/>
<path d="M529.206 397H522.036V395.777L525.588 391.902C526.101 391.331 526.464 390.855 526.679 390.474C526.899 390.088 527.009 389.703 527.009 389.317C527.009 388.809 526.865 388.399 526.577 388.086C526.293 387.774 525.91 387.618 525.427 387.618C524.851 387.618 524.404 387.793 524.086 388.145C523.769 388.497 523.61 388.978 523.61 389.588H521.831C521.831 388.938 521.977 388.355 522.27 387.837C522.568 387.315 522.99 386.91 523.537 386.622C524.089 386.333 524.724 386.189 525.441 386.189C526.477 386.189 527.292 386.451 527.888 386.973C528.488 387.491 528.789 388.208 528.789 389.126C528.789 389.659 528.637 390.218 528.334 390.804C528.037 391.385 527.546 392.046 526.862 392.789L524.255 395.579H529.206V397Z" fill="white"/>
<rect x="542" y="377" width="30" height="30" fill="#80CFFF"/>
<path d="M556.094 390.855H557.178C557.725 390.85 558.157 390.708 558.474 390.43C558.796 390.152 558.958 389.749 558.958 389.222C558.958 388.714 558.823 388.321 558.555 388.042C558.291 387.759 557.886 387.618 557.339 387.618C556.86 387.618 556.467 387.757 556.16 388.035C555.852 388.309 555.698 388.667 555.698 389.112H553.918C553.918 388.565 554.062 388.067 554.351 387.618C554.644 387.168 555.049 386.819 555.566 386.57C556.089 386.316 556.672 386.189 557.317 386.189C558.381 386.189 559.216 386.458 559.822 386.995C560.432 387.527 560.737 388.27 560.737 389.222C560.737 389.7 560.583 390.152 560.276 390.577C559.973 390.997 559.58 391.314 559.097 391.529C559.683 391.729 560.127 392.044 560.43 392.474C560.737 392.903 560.891 393.416 560.891 394.012C560.891 394.969 560.562 395.73 559.902 396.297C559.248 396.863 558.386 397.146 557.317 397.146C556.292 397.146 555.452 396.873 554.797 396.326C554.143 395.779 553.816 395.052 553.816 394.144H555.596C555.596 394.612 555.752 394.993 556.064 395.286C556.382 395.579 556.807 395.726 557.339 395.726C557.891 395.726 558.325 395.579 558.643 395.286C558.96 394.993 559.119 394.568 559.119 394.012C559.119 393.45 558.953 393.018 558.621 392.715C558.289 392.413 557.795 392.261 557.141 392.261H556.094V390.855Z" fill="white"/>
<rect x="574" y="377" width="30" height="30" fill="#4961DD"/>
<path d="M592.056 393.199H593.382V394.627H592.056V397H590.276V394.627H585.669L585.618 393.543L590.218 386.336H592.056V393.199ZM587.486 393.199H590.276V388.746L590.145 388.98L587.486 393.199Z" fill="white"/>
<rect x="478" y="409" width="62" height="30" fill="#001EBB"/>
<path d="M506.179 423.712L506.757 418.336H512.485V419.874H508.237L507.944 422.423C508.437 422.14 508.994 421.998 509.614 421.998C510.629 421.998 511.418 422.323 511.979 422.972C512.546 423.622 512.829 424.496 512.829 425.594C512.829 426.678 512.517 427.542 511.892 428.187C511.267 428.827 510.41 429.146 509.321 429.146C508.344 429.146 507.534 428.871 506.889 428.319C506.25 427.762 505.903 427.03 505.849 426.122H507.57C507.639 426.639 507.824 427.037 508.127 427.315C508.43 427.589 508.825 427.726 509.313 427.726C509.86 427.726 510.285 427.53 510.588 427.14C510.896 426.749 511.049 426.217 511.049 425.543C511.049 424.894 510.881 424.381 510.544 424.005C510.207 423.624 509.743 423.434 509.152 423.434C508.83 423.434 508.557 423.478 508.332 423.565C508.107 423.648 507.863 423.814 507.6 424.063L506.179 423.712Z" fill="white"/>
<rect x="542" y="409" width="62" height="30" fill="#4065A3"/>
<path d="M575.24 418.285V419.757H575.02C574.024 419.771 573.228 420.045 572.632 420.577C572.037 421.109 571.683 421.864 571.57 422.84C572.142 422.24 572.872 421.939 573.76 421.939C574.703 421.939 575.445 422.271 575.987 422.936C576.534 423.6 576.807 424.457 576.807 425.506C576.807 426.59 576.487 427.469 575.848 428.143C575.213 428.812 574.378 429.146 573.343 429.146C572.278 429.146 571.414 428.753 570.75 427.967C570.091 427.181 569.761 426.151 569.761 424.876V424.269C569.761 422.398 570.215 420.934 571.124 419.874C572.037 418.814 573.348 418.285 575.057 418.285H575.24ZM573.328 423.375C572.938 423.375 572.579 423.485 572.251 423.705C571.929 423.924 571.692 424.217 571.541 424.583V425.125C571.541 425.917 571.707 426.546 572.039 427.015C572.371 427.479 572.801 427.711 573.328 427.711C573.855 427.711 574.273 427.513 574.581 427.118C574.888 426.722 575.042 426.202 575.042 425.558C575.042 424.913 574.886 424.388 574.573 423.983C574.261 423.578 573.846 423.375 573.328 423.375Z" fill="white"/>
<rect x="478" y="502" width="30" height="30" fill="#1E73FF"/>
<path d="M494.855 522H493.083V513.438L490.468 514.332V512.83L494.628 511.299H494.855V522Z" fill="white"/>
<rect x="510" y="502" width="30" height="30" fill="#379AD6"/>
<path d="M529.206 522H522.036V520.777L525.588 516.902C526.101 516.331 526.464 515.855 526.679 515.474C526.899 515.088 527.009 514.703 527.009 514.317C527.009 513.809 526.865 513.399 526.577 513.086C526.293 512.774 525.91 512.618 525.427 512.618C524.851 512.618 524.404 512.793 524.086 513.145C523.769 513.497 523.61 513.978 523.61 514.588H521.831C521.831 513.938 521.977 513.355 522.27 512.837C522.568 512.315 522.99 511.91 523.537 511.622C524.089 511.333 524.724 511.189 525.441 511.189C526.477 511.189 527.292 511.451 527.888 511.973C528.488 512.491 528.789 513.208 528.789 514.126C528.789 514.659 528.637 515.218 528.334 515.804C528.037 516.385 527.546 517.046 526.862 517.789L524.255 520.579H529.206V522Z" fill="white"/>
<rect x="542" y="502" width="30" height="30" fill="#80CFFF"/>
<path d="M556.094 515.855H557.178C557.725 515.85 558.157 515.708 558.474 515.43C558.796 515.152 558.958 514.749 558.958 514.222C558.958 513.714 558.823 513.321 558.555 513.042C558.291 512.759 557.886 512.618 557.339 512.618C556.86 512.618 556.467 512.757 556.16 513.035C555.852 513.309 555.698 513.667 555.698 514.112H553.918C553.918 513.565 554.062 513.067 554.351 512.618C554.644 512.168 555.049 511.819 555.566 511.57C556.089 511.316 556.672 511.189 557.317 511.189C558.381 511.189 559.216 511.458 559.822 511.995C560.432 512.527 560.737 513.27 560.737 514.222C560.737 514.7 560.583 515.152 560.276 515.577C559.973 515.997 559.58 516.314 559.097 516.529C559.683 516.729 560.127 517.044 560.43 517.474C560.737 517.903 560.891 518.416 560.891 519.012C560.891 519.969 560.562 520.73 559.902 521.297C559.248 521.863 558.386 522.146 557.317 522.146C556.292 522.146 555.452 521.873 554.797 521.326C554.143 520.779 553.816 520.052 553.816 519.144H555.596C555.596 519.612 555.752 519.993 556.064 520.286C556.382 520.579 556.807 520.726 557.339 520.726C557.891 520.726 558.325 520.579 558.643 520.286C558.96 519.993 559.119 519.568 559.119 519.012C559.119 518.45 558.953 518.018 558.621 517.715C558.289 517.413 557.795 517.261 557.141 517.261H556.094V515.855Z" fill="white"/>
<rect x="574" y="502" width="30" height="30" fill="#4961DD"/>
<path d="M592.056 518.199H593.382V519.627H592.056V522H590.276V519.627H585.669L585.618 518.543L590.218 511.336H592.056V518.199ZM587.486 518.199H590.276V513.746L590.145 513.98L587.486 518.199Z" fill="white"/>
<rect x="478" y="534" width="30" height="30" fill="#001EBB"/>
<path d="M490.512 548.712L491.09 543.336H496.818V544.874H492.57L492.277 547.423C492.77 547.14 493.327 546.998 493.947 546.998C494.962 546.998 495.751 547.323 496.312 547.972C496.879 548.622 497.162 549.496 497.162 550.594C497.162 551.678 496.85 552.542 496.225 553.187C495.6 553.827 494.743 554.146 493.654 554.146C492.677 554.146 491.867 553.871 491.222 553.319C490.583 552.762 490.236 552.03 490.182 551.122H491.903C491.972 551.639 492.157 552.037 492.46 552.315C492.763 552.589 493.158 552.726 493.646 552.726C494.193 552.726 494.618 552.53 494.921 552.14C495.229 551.749 495.382 551.217 495.382 550.543C495.382 549.894 495.214 549.381 494.877 549.005C494.54 548.624 494.076 548.434 493.485 548.434C493.163 548.434 492.89 548.478 492.665 548.565C492.44 548.648 492.196 548.814 491.933 549.063L490.512 548.712Z" fill="white"/>
<rect x="510" y="534" width="30" height="30" fill="#4065A3"/>
<path d="M527.573 543.285V544.757H527.353C526.357 544.771 525.561 545.045 524.965 545.577C524.37 546.109 524.016 546.864 523.903 547.84C524.475 547.24 525.205 546.939 526.093 546.939C527.036 546.939 527.778 547.271 528.32 547.936C528.867 548.6 529.14 549.457 529.14 550.506C529.14 551.59 528.82 552.469 528.181 553.143C527.546 553.812 526.711 554.146 525.676 554.146C524.611 554.146 523.747 553.753 523.083 552.967C522.424 552.181 522.094 551.151 522.094 549.876V549.269C522.094 547.398 522.548 545.934 523.457 544.874C524.37 543.814 525.681 543.285 527.39 543.285H527.573ZM525.661 548.375C525.271 548.375 524.912 548.485 524.584 548.705C524.262 548.924 524.025 549.217 523.874 549.583V550.125C523.874 550.917 524.04 551.546 524.372 552.015C524.704 552.479 525.134 552.711 525.661 552.711C526.188 552.711 526.606 552.513 526.914 552.118C527.221 551.722 527.375 551.202 527.375 550.558C527.375 549.913 527.219 549.388 526.906 548.983C526.594 548.578 526.179 548.375 525.661 548.375Z" fill="white"/>
<rect x="468.5" y="331.5" width="145" height="248" stroke="#CCCCCC" stroke-dasharray="6 4"/>
<path d="M692.699 357.481H688.407V362H686.554V351.336H693.329V352.83H688.407V356.001H692.699V357.481ZM696.522 362H694.742V350.75H696.522V362ZM701.957 362.146C700.829 362.146 699.913 361.792 699.21 361.084C698.512 360.372 698.163 359.424 698.163 358.243V358.023C698.163 357.232 698.314 356.526 698.617 355.906C698.924 355.281 699.354 354.795 699.906 354.449C700.458 354.102 701.073 353.929 701.751 353.929C702.831 353.929 703.663 354.273 704.249 354.961C704.84 355.65 705.135 356.624 705.135 357.884V358.602H699.957C700.011 359.256 700.228 359.773 700.609 360.154C700.995 360.535 701.478 360.726 702.059 360.726C702.875 360.726 703.539 360.396 704.051 359.737L705.011 360.652C704.693 361.126 704.269 361.495 703.736 361.758C703.209 362.017 702.616 362.146 701.957 362.146ZM701.744 355.357C701.256 355.357 700.86 355.528 700.558 355.87C700.26 356.211 700.069 356.688 699.986 357.298H703.377V357.166C703.338 356.57 703.18 356.121 702.901 355.818C702.623 355.511 702.237 355.357 701.744 355.357ZM709.369 356.683L710.877 354.075H712.855L710.431 357.979L712.936 362H710.973L709.391 359.29L707.816 362H705.838L708.343 357.979L705.926 354.075H707.889L709.369 356.683ZM721.021 358.118C721.021 359.349 720.746 360.328 720.194 361.055C719.647 361.783 718.893 362.146 717.931 362.146C717.003 362.146 716.28 361.812 715.763 361.143L715.675 362H714.063V350.75H715.843V354.837C716.356 354.231 717.047 353.929 717.916 353.929C718.883 353.929 719.642 354.288 720.194 355.005C720.746 355.723 721.021 356.727 721.021 358.016V358.118ZM719.242 357.964C719.242 357.105 719.09 356.46 718.788 356.031C718.485 355.601 718.045 355.386 717.469 355.386C716.698 355.386 716.156 355.723 715.843 356.397V359.664C716.161 360.352 716.708 360.696 717.484 360.696C718.041 360.696 718.47 360.489 718.773 360.074C719.076 359.659 719.232 359.031 719.242 358.191V357.964ZM722.186 357.964C722.186 357.188 722.34 356.49 722.647 355.87C722.955 355.245 723.387 354.766 723.944 354.434C724.5 354.097 725.14 353.929 725.863 353.929C726.932 353.929 727.799 354.273 728.463 354.961C729.132 355.65 729.493 356.563 729.547 357.701L729.554 358.118C729.554 358.899 729.403 359.598 729.1 360.213C728.802 360.828 728.373 361.304 727.811 361.641C727.254 361.978 726.61 362.146 725.877 362.146C724.759 362.146 723.863 361.775 723.189 361.033C722.521 360.286 722.186 359.292 722.186 358.052V357.964ZM723.966 358.118C723.966 358.934 724.134 359.573 724.471 360.037C724.808 360.496 725.277 360.726 725.877 360.726C726.478 360.726 726.944 360.491 727.276 360.022C727.613 359.554 727.782 358.868 727.782 357.964C727.782 357.164 727.608 356.529 727.262 356.06C726.92 355.591 726.454 355.357 725.863 355.357C725.282 355.357 724.82 355.589 724.479 356.053C724.137 356.512 723.966 357.2 723.966 358.118ZM733.744 356.683L735.252 354.075H737.23L734.806 357.979L737.311 362H735.348L733.766 359.29L732.191 362H730.213L732.718 357.979L730.301 354.075H732.264L733.744 356.683Z" fill="#222222"/>
<path d="M706.364 485.616C705.978 486.119 705.443 486.5 704.76 486.758C704.076 487.017 703.3 487.146 702.431 487.146C701.537 487.146 700.746 486.944 700.058 486.539C699.369 486.133 698.837 485.555 698.461 484.803C698.09 484.046 697.897 483.165 697.882 482.159V481.324C697.882 479.712 698.268 478.455 699.04 477.552C699.811 476.644 700.888 476.189 702.27 476.189C703.456 476.189 704.398 476.482 705.097 477.068C705.795 477.654 706.215 478.499 706.356 479.603H704.54C704.335 478.318 703.59 477.676 702.306 477.676C701.476 477.676 700.844 477.977 700.409 478.577C699.979 479.173 699.757 480.049 699.743 481.207V482.027C699.743 483.179 699.984 484.075 700.468 484.715C700.956 485.35 701.632 485.667 702.497 485.667C703.444 485.667 704.118 485.452 704.518 485.022V482.935H702.321V481.529H706.364V485.616ZM712.377 480.701C712.143 480.662 711.901 480.643 711.652 480.643C710.836 480.643 710.287 480.955 710.004 481.58V487H708.224V479.075H709.923L709.967 479.961C710.397 479.273 710.993 478.929 711.754 478.929C712.008 478.929 712.218 478.963 712.384 479.031L712.377 480.701ZM715.395 487H713.615V479.075H715.395V487ZM713.505 477.017C713.505 476.744 713.59 476.517 713.761 476.336C713.937 476.155 714.186 476.065 714.508 476.065C714.831 476.065 715.08 476.155 715.255 476.336C715.431 476.517 715.519 476.744 715.519 477.017C715.519 477.286 715.431 477.51 715.255 477.691C715.08 477.867 714.831 477.955 714.508 477.955C714.186 477.955 713.937 477.867 713.761 477.691C713.59 477.51 713.505 477.286 713.505 477.017ZM717.006 482.979C717.006 481.758 717.289 480.779 717.855 480.042C718.422 479.3 719.181 478.929 720.133 478.929C720.973 478.929 721.652 479.222 722.169 479.808V475.75H723.949V487H722.338L722.25 486.18C721.718 486.824 721.007 487.146 720.119 487.146C719.191 487.146 718.439 486.773 717.863 486.026C717.292 485.279 717.006 484.263 717.006 482.979ZM718.786 483.133C718.786 483.938 718.939 484.568 719.247 485.022C719.56 485.472 720.001 485.696 720.573 485.696C721.3 485.696 721.833 485.372 722.169 484.722V481.338C721.842 480.704 721.315 480.386 720.587 480.386C720.011 480.386 719.567 480.616 719.254 481.075C718.942 481.529 718.786 482.215 718.786 483.133Z" fill="#222222"/>
<rect x="664" y="377" width="30" height="30" fill="#1E73FF"/>
<path d="M680.855 397H679.083V388.438L676.468 389.332V387.83L680.628 386.299H680.855V397Z" fill="white"/>
<rect x="696" y="377" width="30" height="30" fill="#379AD6"/>
<path d="M715.206 397H708.036V395.777L711.588 391.902C712.101 391.331 712.464 390.855 712.679 390.474C712.899 390.088 713.009 389.703 713.009 389.317C713.009 388.809 712.865 388.399 712.577 388.086C712.293 387.774 711.91 387.618 711.427 387.618C710.851 387.618 710.404 387.793 710.086 388.145C709.769 388.497 709.61 388.978 709.61 389.588H707.831C707.831 388.938 707.977 388.355 708.27 387.837C708.568 387.315 708.99 386.91 709.537 386.622C710.089 386.333 710.724 386.189 711.441 386.189C712.477 386.189 713.292 386.451 713.888 386.973C714.488 387.491 714.789 388.208 714.789 389.126C714.789 389.659 714.637 390.218 714.334 390.804C714.037 391.385 713.546 392.046 712.862 392.789L710.255 395.579H715.206V397Z" fill="white"/>
<rect x="728" y="377" width="30" height="30" fill="#80CFFF"/>
<path d="M742.094 390.855H743.178C743.725 390.85 744.157 390.708 744.474 390.43C744.796 390.152 744.958 389.749 744.958 389.222C744.958 388.714 744.823 388.321 744.555 388.042C744.291 387.759 743.886 387.618 743.339 387.618C742.86 387.618 742.467 387.757 742.16 388.035C741.852 388.309 741.698 388.667 741.698 389.112H739.918C739.918 388.565 740.062 388.067 740.351 387.618C740.644 387.168 741.049 386.819 741.566 386.57C742.089 386.316 742.672 386.189 743.317 386.189C744.381 386.189 745.216 386.458 745.822 386.995C746.432 387.527 746.737 388.27 746.737 389.222C746.737 389.7 746.583 390.152 746.276 390.577C745.973 390.997 745.58 391.314 745.097 391.529C745.683 391.729 746.127 392.044 746.43 392.474C746.737 392.903 746.891 393.416 746.891 394.012C746.891 394.969 746.562 395.73 745.902 396.297C745.248 396.863 744.386 397.146 743.317 397.146C742.292 397.146 741.452 396.873 740.797 396.326C740.143 395.779 739.816 395.052 739.816 394.144H741.596C741.596 394.612 741.752 394.993 742.064 395.286C742.382 395.579 742.807 395.726 743.339 395.726C743.891 395.726 744.325 395.579 744.643 395.286C744.96 394.993 745.119 394.568 745.119 394.012C745.119 393.45 744.953 393.018 744.621 392.715C744.289 392.413 743.795 392.261 743.141 392.261H742.094V390.855Z" fill="white"/>
<rect x="664" y="409" width="30" height="30" fill="#4961DD"/>
<path d="M682.056 425.199H683.382V426.627H682.056V429H680.276V426.627H675.669L675.618 425.543L680.218 418.336H682.056V425.199ZM677.486 425.199H680.276V420.746L680.145 420.98L677.486 425.199Z" fill="white"/>
<rect x="696" y="409" width="30" height="30" fill="#001EBB"/>
<path d="M708.512 423.712L709.09 418.336H714.818V419.874H710.57L710.277 422.423C710.77 422.14 711.327 421.998 711.947 421.998C712.962 421.998 713.751 422.323 714.312 422.972C714.879 423.622 715.162 424.496 715.162 425.594C715.162 426.678 714.85 427.542 714.225 428.187C713.6 428.827 712.743 429.146 711.654 429.146C710.677 429.146 709.867 428.871 709.222 428.319C708.583 427.762 708.236 427.03 708.182 426.122H709.903C709.972 426.639 710.157 427.037 710.46 427.315C710.763 427.589 711.158 427.726 711.646 427.726C712.193 427.726 712.618 427.53 712.921 427.14C713.229 426.749 713.382 426.217 713.382 425.543C713.382 424.894 713.214 424.381 712.877 424.005C712.54 423.624 712.076 423.434 711.485 423.434C711.163 423.434 710.89 423.478 710.665 423.565C710.44 423.648 710.196 423.814 709.933 424.063L708.512 423.712Z" fill="white"/>
<rect x="728" y="409" width="30" height="30" fill="#4065A3"/>
<path d="M745.573 418.285V419.757H745.353C744.357 419.771 743.561 420.045 742.965 420.577C742.37 421.109 742.016 421.864 741.903 422.84C742.475 422.24 743.205 421.939 744.093 421.939C745.036 421.939 745.778 422.271 746.32 422.936C746.867 423.6 747.14 424.457 747.14 425.506C747.14 426.59 746.82 427.469 746.181 428.143C745.546 428.812 744.711 429.146 743.676 429.146C742.611 429.146 741.747 428.753 741.083 427.967C740.424 427.181 740.094 426.151 740.094 424.876V424.269C740.094 422.398 740.548 420.934 741.457 419.874C742.37 418.814 743.681 418.285 745.39 418.285H745.573ZM743.661 423.375C743.271 423.375 742.912 423.485 742.584 423.705C742.262 423.924 742.025 424.217 741.874 424.583V425.125C741.874 425.917 742.04 426.546 742.372 427.015C742.704 427.479 743.134 427.711 743.661 427.711C744.188 427.711 744.606 427.513 744.914 427.118C745.221 426.722 745.375 426.202 745.375 425.558C745.375 424.913 745.219 424.388 744.906 423.983C744.594 423.578 744.179 423.375 743.661 423.375Z" fill="white"/>
<rect x="664" y="502" width="30" height="30" fill="#1E73FF"/>
<path d="M680.855 522H679.083V513.438L676.468 514.332V512.83L680.628 511.299H680.855V522Z" fill="white"/>
<rect x="696" y="502" width="30" height="30" fill="#379AD6"/>
<path d="M715.206 522H708.036V520.777L711.588 516.902C712.101 516.331 712.464 515.855 712.679 515.474C712.899 515.088 713.009 514.703 713.009 514.317C713.009 513.809 712.865 513.399 712.577 513.086C712.293 512.774 711.91 512.618 711.427 512.618C710.851 512.618 710.404 512.793 710.086 513.145C709.769 513.497 709.61 513.978 709.61 514.588H707.831C707.831 513.938 707.977 513.355 708.27 512.837C708.568 512.315 708.99 511.91 709.537 511.622C710.089 511.333 710.724 511.189 711.441 511.189C712.477 511.189 713.292 511.451 713.888 511.973C714.488 512.491 714.789 513.208 714.789 514.126C714.789 514.659 714.637 515.218 714.334 515.804C714.037 516.385 713.546 517.046 712.862 517.789L710.255 520.579H715.206V522Z" fill="white"/>
<rect x="728" y="502" width="30" height="30" fill="#80CFFF"/>
<path d="M742.094 515.855H743.178C743.725 515.85 744.157 515.708 744.474 515.43C744.796 515.152 744.958 514.749 744.958 514.222C744.958 513.714 744.823 513.321 744.555 513.042C744.291 512.759 743.886 512.618 743.339 512.618C742.86 512.618 742.467 512.757 742.16 513.035C741.852 513.309 741.698 513.667 741.698 514.112H739.918C739.918 513.565 740.062 513.067 740.351 512.618C740.644 512.168 741.049 511.819 741.566 511.57C742.089 511.316 742.672 511.189 743.317 511.189C744.381 511.189 745.216 511.458 745.822 511.995C746.432 512.527 746.737 513.27 746.737 514.222C746.737 514.7 746.583 515.152 746.276 515.577C745.973 515.997 745.58 516.314 745.097 516.529C745.683 516.729 746.127 517.044 746.43 517.474C746.737 517.903 746.891 518.416 746.891 519.012C746.891 519.969 746.562 520.73 745.902 521.297C745.248 521.863 744.386 522.146 743.317 522.146C742.292 522.146 741.452 521.873 740.797 521.326C740.143 520.779 739.816 520.052 739.816 519.144H741.596C741.596 519.612 741.752 519.993 742.064 520.286C742.382 520.579 742.807 520.726 743.339 520.726C743.891 520.726 744.325 520.579 744.643 520.286C744.96 519.993 745.119 519.568 745.119 519.012C745.119 518.45 744.953 518.018 744.621 517.715C744.289 517.413 743.795 517.261 743.141 517.261H742.094V515.855Z" fill="white"/>
<rect x="664" y="534" width="30" height="30" fill="#4961DD"/>
<path d="M682.056 550.199H683.382V551.627H682.056V554H680.276V551.627H675.669L675.618 550.543L680.218 543.336H682.056V550.199ZM677.486 550.199H680.276V545.746L680.145 545.98L677.486 550.199Z" fill="white"/>
<rect x="696" y="534" width="30" height="30" fill="#001EBB"/>
<path d="M708.512 548.712L709.09 543.336H714.818V544.874H710.57L710.277 547.423C710.77 547.14 711.327 546.998 711.947 546.998C712.962 546.998 713.751 547.323 714.312 547.972C714.879 548.622 715.162 549.496 715.162 550.594C715.162 551.678 714.85 552.542 714.225 553.187C713.6 553.827 712.743 554.146 711.654 554.146C710.677 554.146 709.867 553.871 709.222 553.319C708.583 552.762 708.236 552.03 708.182 551.122H709.903C709.972 551.639 710.157 552.037 710.46 552.315C710.763 552.589 711.158 552.726 711.646 552.726C712.193 552.726 712.618 552.53 712.921 552.14C713.229 551.749 713.382 551.217 713.382 550.543C713.382 549.894 713.214 549.381 712.877 549.005C712.54 548.624 712.076 548.434 711.485 548.434C711.163 548.434 710.89 548.478 710.665 548.565C710.44 548.648 710.196 548.814 709.933 549.063L708.512 548.712Z" fill="white"/>
<rect x="728" y="534" width="30" height="30" fill="#4065A3"/>
<path d="M745.573 543.285V544.757H745.353C744.357 544.771 743.561 545.045 742.965 545.577C742.37 546.109 742.016 546.864 741.903 547.84C742.475 547.24 743.205 546.939 744.093 546.939C745.036 546.939 745.778 547.271 746.32 547.936C746.867 548.6 747.14 549.457 747.14 550.506C747.14 551.59 746.82 552.469 746.181 553.143C745.546 553.812 744.711 554.146 743.676 554.146C742.611 554.146 741.747 553.753 741.083 552.967C740.424 552.181 740.094 551.151 740.094 549.876V549.269C740.094 547.398 740.548 545.934 741.457 544.874C742.37 543.814 743.681 543.285 745.39 543.285H745.573ZM743.661 548.375C743.271 548.375 742.912 548.485 742.584 548.705C742.262 548.924 742.025 549.217 741.874 549.583V550.125C741.874 550.917 742.04 551.546 742.372 552.015C742.704 552.479 743.134 552.711 743.661 552.711C744.188 552.711 744.606 552.513 744.914 552.118C745.221 551.722 745.375 551.202 745.375 550.558C745.375 549.913 745.219 549.388 744.906 548.983C744.594 548.578 744.179 548.375 743.661 548.375Z" fill="white"/>
<rect x="654.5" y="331.5" width="113" height="248" stroke="#CCCCCC" stroke-dasharray="6 4"/>
</svg>
