<svg width="578" height="304" viewBox="0 0 578 304" fill="none" xmlns="http://www.w3.org/2000/svg">
<g clip-path="url(#clip0)">
<rect width="578" height="304" fill="#F7F7F7"/>
<path d="M19 7C19 5.89543 19.8954 5 21 5H35C36.1046 5 37 5.89543 37 7V16.1857C37 16.7167 36.7888 17.2259 36.413 17.6011L29.413 24.5894C28.6323 25.3688 27.3677 25.3688 26.587 24.5894L19.587 17.6011C19.2112 17.2259 19 16.7167 19 16.1857V7Z" fill="#CCCCCC"/>
<path d="M29.084 17H27.666V10.1504L25.5742 10.8652V9.66406L28.9023 8.43945H29.084V17Z" fill="white"/>
<path d="M148 7C148 5.89543 148.895 5 150 5H164C165.105 5 166 5.89543 166 7V16.1857C166 16.7167 165.789 17.2259 165.413 17.6011L158.413 24.5894C157.632 25.3688 156.368 25.3688 155.587 24.5894L148.587 17.6011C148.211 17.2259 148 16.7167 148 16.1857V7Z" fill="#CCCCCC"/>
<path d="M159.965 17H154.229V16.0215L157.07 12.9219C157.48 12.4648 157.771 12.084 157.943 11.7793C158.119 11.4707 158.207 11.1621 158.207 10.8535C158.207 10.4473 158.092 10.1191 157.861 9.86914C157.635 9.61914 157.328 9.49414 156.941 9.49414C156.48 9.49414 156.123 9.63477 155.869 9.91602C155.615 10.1973 155.488 10.582 155.488 11.0703H154.064C154.064 10.5508 154.182 10.084 154.416 9.66992C154.654 9.25195 154.992 8.92773 155.43 8.69727C155.871 8.4668 156.379 8.35156 156.953 8.35156C157.781 8.35156 158.434 8.56055 158.91 8.97852C159.391 9.39258 159.631 9.9668 159.631 10.7012C159.631 11.127 159.51 11.5742 159.268 12.043C159.029 12.5078 158.637 13.0371 158.09 13.6309L156.004 15.8633H159.965V17Z" fill="white"/>
<path d="M280 7C280 5.89543 280.895 5 282 5H296C297.105 5 298 5.89543 298 7V16.1857C298 16.7167 297.789 17.2259 297.413 17.6011L290.413 24.5894C289.632 25.3688 288.368 25.3688 287.587 24.5894L280.587 17.6011C280.211 17.2259 280 16.7167 280 16.1857V7Z" fill="#CCCCCC"/>
<path d="M287.875 12.084H288.742C289.18 12.0801 289.525 11.9668 289.779 11.7441C290.037 11.5215 290.166 11.1992 290.166 10.7773C290.166 10.3711 290.059 10.0566 289.844 9.83398C289.633 9.60742 289.309 9.49414 288.871 9.49414C288.488 9.49414 288.174 9.60547 287.928 9.82812C287.682 10.0469 287.559 10.334 287.559 10.6895H286.135C286.135 10.252 286.25 9.85352 286.48 9.49414C286.715 9.13477 287.039 8.85547 287.453 8.65625C287.871 8.45312 288.338 8.35156 288.854 8.35156C289.705 8.35156 290.373 8.56641 290.857 8.99609C291.346 9.42188 291.59 10.0156 291.59 10.7773C291.59 11.1602 291.467 11.5215 291.221 11.8613C290.979 12.1973 290.664 12.4512 290.277 12.623C290.746 12.7832 291.102 13.0352 291.344 13.3789C291.59 13.7227 291.713 14.1328 291.713 14.6094C291.713 15.375 291.449 15.9844 290.922 16.4375C290.398 16.8906 289.709 17.1172 288.854 17.1172C288.033 17.1172 287.361 16.8984 286.838 16.4609C286.314 16.0234 286.053 15.4414 286.053 14.7148H287.477C287.477 15.0898 287.602 15.3945 287.852 15.6289C288.105 15.8633 288.445 15.9805 288.871 15.9805C289.312 15.9805 289.66 15.8633 289.914 15.6289C290.168 15.3945 290.295 15.0547 290.295 14.6094C290.295 14.1602 290.162 13.8145 289.896 13.5723C289.631 13.3301 289.236 13.209 288.713 13.209H287.875V12.084Z" fill="white"/>
<path d="M412 7C412 5.89543 412.895 5 414 5H428C429.105 5 430 5.89543 430 7V16.1857C430 16.7167 429.789 17.2259 429.413 17.6011L422.413 24.5894C421.632 25.3688 420.368 25.3688 419.587 24.5894L412.587 17.6011C412.211 17.2259 412 16.7167 412 16.1857V7Z" fill="#CCCCCC"/>
<path d="M423.045 13.959H424.105V15.1016H423.045V17H421.621V15.1016H417.936L417.895 14.2344L421.574 8.46875H423.045V13.959ZM419.389 13.959H421.621V10.3965L421.516 10.584L419.389 13.959Z" fill="white"/>
<path d="M541 7C541 5.89543 541.895 5 543 5H557C558.105 5 559 5.89543 559 7V16.1857C559 16.7167 558.789 17.2259 558.413 17.6011L551.413 24.5894C550.632 25.3688 549.368 25.3688 548.587 24.5894L541.587 17.6011C541.211 17.2259 541 16.7167 541 16.1857V7Z" fill="#CCCCCC"/>
<path d="M547.609 12.7695L548.072 8.46875H552.654V9.69922H549.256L549.021 11.7383C549.416 11.5117 549.861 11.3984 550.357 11.3984C551.17 11.3984 551.801 11.6582 552.25 12.1777C552.703 12.6973 552.93 13.3965 552.93 14.2754C552.93 15.1426 552.68 15.834 552.18 16.3496C551.68 16.8613 550.994 17.1172 550.123 17.1172C549.342 17.1172 548.693 16.8965 548.178 16.4551C547.666 16.0098 547.389 15.4238 547.346 14.6973H548.723C548.777 15.1113 548.926 15.4297 549.168 15.6523C549.41 15.8711 549.727 15.9805 550.117 15.9805C550.555 15.9805 550.895 15.8242 551.137 15.5117C551.383 15.1992 551.506 14.7734 551.506 14.2344C551.506 13.7148 551.371 13.3047 551.102 13.0039C550.832 12.6992 550.461 12.5469 549.988 12.5469C549.73 12.5469 549.512 12.582 549.332 12.6523C549.152 12.7188 548.957 12.8516 548.746 13.0508L547.609 12.7695Z" fill="white"/>
<path d="M7 37C5.89543 37 5 36.1046 5 35L5 21C5 19.8954 5.89543 19 7 19L16.1857 19C16.7167 19 17.2259 19.2112 17.6011 19.587L24.5894 26.587C25.3688 27.3677 25.3688 28.6323 24.5894 29.413L17.6011 36.413C17.2259 36.7888 16.7167 37 16.1857 37L7 37Z" fill="#CCCCCC"/>
<path d="M14.084 32H12.666V25.1504L10.5742 25.8652V24.6641L13.9023 23.4395H14.084V32Z" fill="white"/>
<path d="M7 96C5.89543 96 5 95.1046 5 94L5 80C5 78.8954 5.89543 78 7 78L16.1857 78C16.7167 78 17.2259 78.2112 17.6011 78.587L24.5894 85.587C25.3688 86.3677 25.3688 87.6323 24.5894 88.413L17.6011 95.413C17.2259 95.7888 16.7167 96 16.1857 96L7 96Z" fill="#CCCCCC"/>
<path d="M15.9648 91H10.2285V90.0215L13.0703 86.9219C13.4805 86.4648 13.7715 86.084 13.9434 85.7793C14.1191 85.4707 14.207 85.1621 14.207 84.8535C14.207 84.4473 14.0918 84.1191 13.8613 83.8691C13.6348 83.6191 13.3281 83.4941 12.9414 83.4941C12.4805 83.4941 12.123 83.6348 11.8691 83.916C11.6152 84.1973 11.4883 84.582 11.4883 85.0703H10.0645C10.0645 84.5508 10.1816 84.084 10.416 83.6699C10.6543 83.252 10.9922 82.9277 11.4297 82.6973C11.8711 82.4668 12.3789 82.3516 12.9531 82.3516C13.7812 82.3516 14.4336 82.5605 14.9102 82.9785C15.3906 83.3926 15.6309 83.9668 15.6309 84.7012C15.6309 85.127 15.5098 85.5742 15.2676 86.043C15.0293 86.5078 14.6367 87.0371 14.0898 87.6309L12.0039 89.8633H15.9648V91Z" fill="white"/>
<path d="M7 155C5.89543 155 5 154.105 5 153L5 139C5 137.895 5.89543 137 7 137L16.1857 137C16.7167 137 17.2259 137.211 17.6011 137.587L24.5894 144.587C25.3688 145.368 25.3688 146.632 24.5894 147.413L17.6011 154.413C17.2259 154.789 16.7167 155 16.1857 155L7 155Z" fill="#CCCCCC"/>
<path d="M11.875 145.084H12.7422C13.1797 145.08 13.5254 144.967 13.7793 144.744C14.0371 144.521 14.166 144.199 14.166 143.777C14.166 143.371 14.0586 143.057 13.8438 142.834C13.6328 142.607 13.3086 142.494 12.8711 142.494C12.4883 142.494 12.1738 142.605 11.9277 142.828C11.6816 143.047 11.5586 143.334 11.5586 143.689H10.1348C10.1348 143.252 10.25 142.854 10.4805 142.494C10.7148 142.135 11.0391 141.855 11.4531 141.656C11.8711 141.453 12.3379 141.352 12.8535 141.352C13.7051 141.352 14.373 141.566 14.8574 141.996C15.3457 142.422 15.5898 143.016 15.5898 143.777C15.5898 144.16 15.4668 144.521 15.2207 144.861C14.9785 145.197 14.6641 145.451 14.2773 145.623C14.7461 145.783 15.1016 146.035 15.3438 146.379C15.5898 146.723 15.7129 147.133 15.7129 147.609C15.7129 148.375 15.4492 148.984 14.9219 149.438C14.3984 149.891 13.709 150.117 12.8535 150.117C12.0332 150.117 11.3613 149.898 10.8379 149.461C10.3145 149.023 10.0527 148.441 10.0527 147.715H11.4766C11.4766 148.09 11.6016 148.395 11.8516 148.629C12.1055 148.863 12.4453 148.98 12.8711 148.98C13.3125 148.98 13.6602 148.863 13.9141 148.629C14.168 148.395 14.2949 148.055 14.2949 147.609C14.2949 147.16 14.1621 146.814 13.8965 146.572C13.6309 146.33 13.2363 146.209 12.7129 146.209H11.875V145.084Z" fill="white"/>
<path d="M7 220C5.89543 220 5 219.105 5 218L5 204C5 202.895 5.89543 202 7 202L16.1857 202C16.7167 202 17.2259 202.211 17.6011 202.587L24.5894 209.587C25.3688 210.368 25.3688 211.632 24.5894 212.413L17.6011 219.413C17.2259 219.789 16.7167 220 16.1857 220L7 220Z" fill="#CCCCCC"/>
<path d="M15.0449 211.959H16.1055V213.102H15.0449V215H13.6211V213.102H9.93555L9.89453 212.234L13.5742 206.469H15.0449V211.959ZM11.3887 211.959H13.6211V208.396L13.5156 208.584L11.3887 211.959Z" fill="white"/>
<path d="M7 282C5.89543 282 5 281.105 5 280L5 266C5 264.895 5.89543 264 7 264L16.1857 264C16.7167 264 17.2259 264.211 17.6011 264.587L24.5894 271.587C25.3688 272.368 25.3688 273.632 24.5894 274.413L17.6011 281.413C17.2259 281.789 16.7167 282 16.1857 282L7 282Z" fill="#CCCCCC"/>
<path d="M10.6094 272.77L11.0723 268.469H15.6543V269.699H12.2559L12.0215 271.738C12.416 271.512 12.8613 271.398 13.3574 271.398C14.1699 271.398 14.8008 271.658 15.25 272.178C15.7031 272.697 15.9297 273.396 15.9297 274.275C15.9297 275.143 15.6797 275.834 15.1797 276.35C14.6797 276.861 13.9941 277.117 13.123 277.117C12.3418 277.117 11.6934 276.896 11.1777 276.455C10.666 276.01 10.3887 275.424 10.3457 274.697H11.7227C11.7773 275.111 11.9258 275.43 12.168 275.652C12.4102 275.871 12.7266 275.98 13.1172 275.98C13.5547 275.98 13.8945 275.824 14.1367 275.512C14.3828 275.199 14.5059 274.773 14.5059 274.234C14.5059 273.715 14.3711 273.305 14.1016 273.004C13.832 272.699 13.4609 272.547 12.9883 272.547C12.7305 272.547 12.5117 272.582 12.332 272.652C12.1523 272.719 11.957 272.852 11.7461 273.051L10.6094 272.77Z" fill="white"/>
<rect x="28" y="28" width="522" height="291" fill="white"/>
<path d="M31 36C31 33.2386 33.2386 31 36 31H146C148.761 31 151 33.2386 151 36V76C151 78.7614 148.761 81 146 81H36C33.2386 81 31 78.7614 31 76V36Z" fill="#1E73FF"/>
<path d="M73.2041 60.6666H71.4243V52.7418H73.2041V60.6666ZM71.3145 50.6837C71.3145 50.4103 71.3999 50.1832 71.5708 50.0026C71.7466 49.8219 71.9956 49.7316 72.3179 49.7316C72.6401 49.7316 72.8892 49.8219 73.0649 50.0026C73.2407 50.1832 73.3286 50.4103 73.3286 50.6837C73.3286 50.9523 73.2407 51.1769 73.0649 51.3575C72.8892 51.5333 72.6401 51.6212 72.3179 51.6212C71.9956 51.6212 71.7466 51.5333 71.5708 51.3575C71.3999 51.1769 71.3145 50.9523 71.3145 50.6837ZM77.3789 50.8156V52.7418H78.7778V54.0602H77.3789V58.484C77.3789 58.7867 77.4375 59.0065 77.5547 59.1432C77.6768 59.275 77.8916 59.3409 78.1992 59.3409C78.4043 59.3409 78.6118 59.3165 78.8218 59.2677V60.6447C78.4165 60.757 78.0259 60.8131 77.6499 60.8131C76.2827 60.8131 75.5991 60.0587 75.5991 58.5499V54.0602H74.2954V52.7418H75.5991V50.8156H77.3789ZM83.6338 60.8131C82.5059 60.8131 81.5903 60.4591 80.8872 59.7511C80.189 59.0382 79.8398 58.0909 79.8398 56.9093V56.6896C79.8398 55.8986 79.9912 55.193 80.2939 54.5729C80.6016 53.9479 81.0312 53.462 81.583 53.1154C82.1348 52.7687 82.75 52.5953 83.4287 52.5953C84.5078 52.5953 85.3403 52.9396 85.9263 53.6281C86.5171 54.3165 86.8125 55.2906 86.8125 56.5504V57.2682H81.6343C81.688 57.9225 81.9053 58.4401 82.2861 58.8209C82.6719 59.2018 83.1553 59.3922 83.7363 59.3922C84.5518 59.3922 85.2158 59.0626 85.7285 58.4034L86.688 59.319C86.3706 59.7926 85.9458 60.1613 85.4136 60.4249C84.8862 60.6837 84.293 60.8131 83.6338 60.8131ZM83.4214 54.0236C82.9331 54.0236 82.5376 54.1945 82.2349 54.5363C81.937 54.8781 81.7466 55.3541 81.6636 55.9645H85.0547V55.8326C85.0156 55.2369 84.8569 54.7877 84.5786 54.485C84.3003 54.1774 83.9146 54.0236 83.4214 54.0236ZM89.874 52.7418L89.9253 53.5695C90.4819 52.92 91.2437 52.5953 92.2104 52.5953C93.27 52.5953 93.9951 53.0006 94.3857 53.8112C94.9619 53.0006 95.7725 52.5953 96.8174 52.5953C97.6914 52.5953 98.3408 52.837 98.7656 53.3204C99.1953 53.8038 99.415 54.5167 99.4248 55.4591V60.6666H97.645V55.5104C97.645 55.0074 97.5352 54.6388 97.3154 54.4044C97.0957 54.17 96.7319 54.0529 96.2241 54.0529C95.8188 54.0529 95.4868 54.1627 95.228 54.3824C94.9741 54.5973 94.7959 54.8805 94.6934 55.2321L94.7007 60.6666H92.9209V55.4518C92.8965 54.5192 92.4204 54.0529 91.4927 54.0529C90.7798 54.0529 90.2744 54.3434 89.9766 54.9244V60.6666H88.1968V52.7418H89.874ZM109.693 60.6666H107.921V52.1046L105.306 52.9982V51.4967L109.466 49.9659H109.693V60.6666Z" fill="white"/>
<path d="M163 36C163 33.2386 165.239 31 168 31H278C280.761 31 283 33.2386 283 36V76C283 78.7614 280.761 81 278 81H168C165.239 81 163 78.7614 163 76V36Z" fill="#1E73FF"/>
<path d="M205.204 60.6666H203.424V52.7418H205.204V60.6666ZM203.314 50.6837C203.314 50.4103 203.4 50.1832 203.571 50.0026C203.747 49.8219 203.996 49.7316 204.318 49.7316C204.64 49.7316 204.889 49.8219 205.065 50.0026C205.241 50.1832 205.329 50.4103 205.329 50.6837C205.329 50.9523 205.241 51.1769 205.065 51.3575C204.889 51.5333 204.64 51.6212 204.318 51.6212C203.996 51.6212 203.747 51.5333 203.571 51.3575C203.4 51.1769 203.314 50.9523 203.314 50.6837ZM209.379 50.8156V52.7418H210.778V54.0602H209.379V58.484C209.379 58.7867 209.438 59.0065 209.555 59.1432C209.677 59.275 209.892 59.3409 210.199 59.3409C210.404 59.3409 210.612 59.3165 210.822 59.2677V60.6447C210.417 60.757 210.026 60.8131 209.65 60.8131C208.283 60.8131 207.599 60.0587 207.599 58.5499V54.0602H206.295V52.7418H207.599V50.8156H209.379ZM215.634 60.8131C214.506 60.8131 213.59 60.4591 212.887 59.7511C212.189 59.0382 211.84 58.0909 211.84 56.9093V56.6896C211.84 55.8986 211.991 55.193 212.294 54.5729C212.602 53.9479 213.031 53.462 213.583 53.1154C214.135 52.7687 214.75 52.5953 215.429 52.5953C216.508 52.5953 217.34 52.9396 217.926 53.6281C218.517 54.3165 218.812 55.2906 218.812 56.5504V57.2682H213.634C213.688 57.9225 213.905 58.4401 214.286 58.8209C214.672 59.2018 215.155 59.3922 215.736 59.3922C216.552 59.3922 217.216 59.0626 217.729 58.4034L218.688 59.319C218.371 59.7926 217.946 60.1613 217.414 60.4249C216.886 60.6837 216.293 60.8131 215.634 60.8131ZM215.421 54.0236C214.933 54.0236 214.538 54.1945 214.235 54.5363C213.937 54.8781 213.747 55.3541 213.664 55.9645H217.055V55.8326C217.016 55.2369 216.857 54.7877 216.579 54.485C216.3 54.1774 215.915 54.0236 215.421 54.0236ZM221.874 52.7418L221.925 53.5695C222.482 52.92 223.244 52.5953 224.21 52.5953C225.27 52.5953 225.995 53.0006 226.386 53.8112C226.962 53.0006 227.772 52.5953 228.817 52.5953C229.691 52.5953 230.341 52.837 230.766 53.3204C231.195 53.8038 231.415 54.5167 231.425 55.4591V60.6666H229.645V55.5104C229.645 55.0074 229.535 54.6388 229.315 54.4044C229.096 54.17 228.732 54.0529 228.224 54.0529C227.819 54.0529 227.487 54.1627 227.228 54.3824C226.974 54.5973 226.796 54.8805 226.693 55.2321L226.701 60.6666H224.921V55.4518C224.896 54.5192 224.42 54.0529 223.493 54.0529C222.78 54.0529 222.274 54.3434 221.977 54.9244V60.6666H220.197V52.7418H221.874ZM244.044 60.6666H236.874V59.4435L240.426 55.569C240.939 54.9977 241.303 54.5216 241.518 54.1407C241.737 53.755 241.847 53.3693 241.847 52.9835C241.847 52.4757 241.703 52.0656 241.415 51.7531C241.132 51.4406 240.749 51.2843 240.265 51.2843C239.689 51.2843 239.242 51.4601 238.925 51.8116C238.607 52.1632 238.449 52.6442 238.449 53.2545H236.669C236.669 52.6051 236.815 52.0216 237.108 51.504C237.406 50.9816 237.829 50.5763 238.375 50.2882C238.927 50.0001 239.562 49.8561 240.28 49.8561C241.315 49.8561 242.13 50.1173 242.726 50.6398C243.327 51.1573 243.627 51.8751 243.627 52.7931C243.627 53.3253 243.476 53.8844 243.173 54.4703C242.875 55.0514 242.384 55.713 241.701 56.4552L239.093 59.2457H244.044V60.6666Z" fill="white"/>
<path d="M295 36C295 33.2386 297.239 31 300 31H410C412.761 31 415 33.2386 415 36V76C415 78.7614 412.761 81 410 81H300C297.239 81 295 78.7614 295 76V36Z" fill="#1E73FF"/>
<path d="M337.204 60.6666H335.424V52.7418H337.204V60.6666ZM335.314 50.6837C335.314 50.4103 335.4 50.1832 335.571 50.0026C335.747 49.8219 335.996 49.7316 336.318 49.7316C336.64 49.7316 336.889 49.8219 337.065 50.0026C337.241 50.1832 337.329 50.4103 337.329 50.6837C337.329 50.9523 337.241 51.1769 337.065 51.3575C336.889 51.5333 336.64 51.6212 336.318 51.6212C335.996 51.6212 335.747 51.5333 335.571 51.3575C335.4 51.1769 335.314 50.9523 335.314 50.6837ZM341.379 50.8156V52.7418H342.778V54.0602H341.379V58.484C341.379 58.7867 341.438 59.0065 341.555 59.1432C341.677 59.275 341.892 59.3409 342.199 59.3409C342.404 59.3409 342.612 59.3165 342.822 59.2677V60.6447C342.417 60.757 342.026 60.8131 341.65 60.8131C340.283 60.8131 339.599 60.0587 339.599 58.5499V54.0602H338.295V52.7418H339.599V50.8156H341.379ZM347.634 60.8131C346.506 60.8131 345.59 60.4591 344.887 59.7511C344.189 59.0382 343.84 58.0909 343.84 56.9093V56.6896C343.84 55.8986 343.991 55.193 344.294 54.5729C344.602 53.9479 345.031 53.462 345.583 53.1154C346.135 52.7687 346.75 52.5953 347.429 52.5953C348.508 52.5953 349.34 52.9396 349.926 53.6281C350.517 54.3165 350.812 55.2906 350.812 56.5504V57.2682H345.634C345.688 57.9225 345.905 58.4401 346.286 58.8209C346.672 59.2018 347.155 59.3922 347.736 59.3922C348.552 59.3922 349.216 59.0626 349.729 58.4034L350.688 59.319C350.371 59.7926 349.946 60.1613 349.414 60.4249C348.886 60.6837 348.293 60.8131 347.634 60.8131ZM347.421 54.0236C346.933 54.0236 346.538 54.1945 346.235 54.5363C345.937 54.8781 345.747 55.3541 345.664 55.9645H349.055V55.8326C349.016 55.2369 348.857 54.7877 348.579 54.485C348.3 54.1774 347.915 54.0236 347.421 54.0236ZM353.874 52.7418L353.925 53.5695C354.482 52.92 355.244 52.5953 356.21 52.5953C357.27 52.5953 357.995 53.0006 358.386 53.8112C358.962 53.0006 359.772 52.5953 360.817 52.5953C361.691 52.5953 362.341 52.837 362.766 53.3204C363.195 53.8038 363.415 54.5167 363.425 55.4591V60.6666H361.645V55.5104C361.645 55.0074 361.535 54.6388 361.315 54.4044C361.096 54.17 360.732 54.0529 360.224 54.0529C359.819 54.0529 359.487 54.1627 359.228 54.3824C358.974 54.5973 358.796 54.8805 358.693 55.2321L358.701 60.6666H356.921V55.4518C356.896 54.5192 356.42 54.0529 355.493 54.0529C354.78 54.0529 354.274 54.3434 353.977 54.9244V60.6666H352.197V52.7418H353.874ZM370.932 54.5216H372.016C372.563 54.5167 372.995 54.3751 373.312 54.0968C373.635 53.8185 373.796 53.4156 373.796 52.8883C373.796 52.3805 373.662 51.9874 373.393 51.7091C373.129 51.4259 372.724 51.2843 372.177 51.2843C371.699 51.2843 371.306 51.4235 370.998 51.7018C370.69 51.9752 370.537 52.3341 370.537 52.7784H368.757C368.757 52.2316 368.901 51.7335 369.189 51.2843C369.482 50.8351 369.887 50.486 370.405 50.2369C370.927 49.983 371.511 49.8561 372.155 49.8561C373.22 49.8561 374.055 50.1246 374.66 50.6617C375.271 51.194 375.576 51.9362 375.576 52.8883C375.576 53.3668 375.422 53.8185 375.114 54.2433C374.812 54.6632 374.418 54.9806 373.935 55.1954C374.521 55.3956 374.965 55.7106 375.268 56.1403C375.576 56.5699 375.729 57.0826 375.729 57.6783C375.729 58.6354 375.4 59.3971 374.741 59.9635C374.086 60.5299 373.225 60.8131 372.155 60.8131C371.13 60.8131 370.29 60.5397 369.636 59.9928C368.981 59.4459 368.654 58.7184 368.654 57.8102H370.434C370.434 58.2789 370.59 58.6598 370.903 58.9528C371.22 59.2457 371.645 59.3922 372.177 59.3922C372.729 59.3922 373.164 59.2457 373.481 58.9528C373.798 58.6598 373.957 58.235 373.957 57.6783C373.957 57.1168 373.791 56.6847 373.459 56.382C373.127 56.0792 372.634 55.9279 371.979 55.9279H370.932V54.5216Z" fill="white"/>
<path d="M427 36C427 33.2386 429.239 31 432 31H542C544.761 31 547 33.2386 547 36V76C547 78.7614 544.761 81 542 81H432C429.239 81 427 78.7614 427 76V36Z" fill="#1E73FF"/>
<path d="M469.204 60.6666H467.424V52.7418H469.204V60.6666ZM467.314 50.6837C467.314 50.4103 467.4 50.1832 467.571 50.0026C467.747 49.8219 467.996 49.7316 468.318 49.7316C468.64 49.7316 468.889 49.8219 469.065 50.0026C469.241 50.1832 469.329 50.4103 469.329 50.6837C469.329 50.9523 469.241 51.1769 469.065 51.3575C468.889 51.5333 468.64 51.6212 468.318 51.6212C467.996 51.6212 467.747 51.5333 467.571 51.3575C467.4 51.1769 467.314 50.9523 467.314 50.6837ZM473.379 50.8156V52.7418H474.778V54.0602H473.379V58.484C473.379 58.7867 473.438 59.0065 473.555 59.1432C473.677 59.275 473.892 59.3409 474.199 59.3409C474.404 59.3409 474.612 59.3165 474.822 59.2677V60.6447C474.417 60.757 474.026 60.8131 473.65 60.8131C472.283 60.8131 471.599 60.0587 471.599 58.5499V54.0602H470.295V52.7418H471.599V50.8156H473.379ZM479.634 60.8131C478.506 60.8131 477.59 60.4591 476.887 59.7511C476.189 59.0382 475.84 58.0909 475.84 56.9093V56.6896C475.84 55.8986 475.991 55.193 476.294 54.5729C476.602 53.9479 477.031 53.462 477.583 53.1154C478.135 52.7687 478.75 52.5953 479.429 52.5953C480.508 52.5953 481.34 52.9396 481.926 53.6281C482.517 54.3165 482.812 55.2906 482.812 56.5504V57.2682H477.634C477.688 57.9225 477.905 58.4401 478.286 58.8209C478.672 59.2018 479.155 59.3922 479.736 59.3922C480.552 59.3922 481.216 59.0626 481.729 58.4034L482.688 59.319C482.371 59.7926 481.946 60.1613 481.414 60.4249C480.886 60.6837 480.293 60.8131 479.634 60.8131ZM479.421 54.0236C478.933 54.0236 478.538 54.1945 478.235 54.5363C477.937 54.8781 477.747 55.3541 477.664 55.9645H481.055V55.8326C481.016 55.2369 480.857 54.7877 480.579 54.485C480.3 54.1774 479.915 54.0236 479.421 54.0236ZM485.874 52.7418L485.925 53.5695C486.482 52.92 487.244 52.5953 488.21 52.5953C489.27 52.5953 489.995 53.0006 490.386 53.8112C490.962 53.0006 491.772 52.5953 492.817 52.5953C493.691 52.5953 494.341 52.837 494.766 53.3204C495.195 53.8038 495.415 54.5167 495.425 55.4591V60.6666H493.645V55.5104C493.645 55.0074 493.535 54.6388 493.315 54.4044C493.096 54.17 492.732 54.0529 492.224 54.0529C491.819 54.0529 491.487 54.1627 491.228 54.3824C490.974 54.5973 490.796 54.8805 490.693 55.2321L490.701 60.6666H488.921V55.4518C488.896 54.5192 488.42 54.0529 487.493 54.0529C486.78 54.0529 486.274 54.3434 485.977 54.9244V60.6666H484.197V52.7418H485.874ZM506.895 56.8654H508.22V58.2936H506.895V60.6666H505.115V58.2936H500.508L500.457 57.2096L505.056 50.0026H506.895V56.8654ZM502.324 56.8654H505.115V52.4122L504.983 52.6466L502.324 56.8654Z" fill="white"/>
<path d="M31 98C31 95.2386 33.2386 93 36 93H146C148.761 93 151 95.2386 151 98V138C151 140.761 148.761 143 146 143H36C33.2386 143 31 140.761 31 138V98Z" fill="#1E73FF"/>
<path d="M73.2041 122.667H71.4243V114.742H73.2041V122.667ZM71.3145 112.684C71.3145 112.41 71.3999 112.183 71.5708 112.003C71.7466 111.822 71.9956 111.732 72.3179 111.732C72.6401 111.732 72.8892 111.822 73.0649 112.003C73.2407 112.183 73.3286 112.41 73.3286 112.684C73.3286 112.952 73.2407 113.177 73.0649 113.358C72.8892 113.533 72.6401 113.621 72.3179 113.621C71.9956 113.621 71.7466 113.533 71.5708 113.358C71.3999 113.177 71.3145 112.952 71.3145 112.684ZM77.3789 112.816V114.742H78.7778V116.06H77.3789V120.484C77.3789 120.787 77.4375 121.006 77.5547 121.143C77.6768 121.275 77.8916 121.341 78.1992 121.341C78.4043 121.341 78.6118 121.317 78.8218 121.268V122.645C78.4165 122.757 78.0259 122.813 77.6499 122.813C76.2827 122.813 75.5991 122.059 75.5991 120.55V116.06H74.2954V114.742H75.5991V112.816H77.3789ZM83.6338 122.813C82.5059 122.813 81.5903 122.459 80.8872 121.751C80.189 121.038 79.8398 120.091 79.8398 118.909V118.69C79.8398 117.899 79.9912 117.193 80.2939 116.573C80.6016 115.948 81.0312 115.462 81.583 115.115C82.1348 114.769 82.75 114.595 83.4287 114.595C84.5078 114.595 85.3403 114.94 85.9263 115.628C86.5171 116.317 86.8125 117.291 86.8125 118.55V119.268H81.6343C81.688 119.922 81.9053 120.44 82.2861 120.821C82.6719 121.202 83.1553 121.392 83.7363 121.392C84.5518 121.392 85.2158 121.063 85.7285 120.403L86.688 121.319C86.3706 121.793 85.9458 122.161 85.4136 122.425C84.8862 122.684 84.293 122.813 83.6338 122.813ZM83.4214 116.024C82.9331 116.024 82.5376 116.194 82.2349 116.536C81.937 116.878 81.7466 117.354 81.6636 117.964H85.0547V117.833C85.0156 117.237 84.8569 116.788 84.5786 116.485C84.3003 116.177 83.9146 116.024 83.4214 116.024ZM89.874 114.742L89.9253 115.569C90.4819 114.92 91.2437 114.595 92.2104 114.595C93.27 114.595 93.9951 115.001 94.3857 115.811C94.9619 115.001 95.7725 114.595 96.8174 114.595C97.6914 114.595 98.3408 114.837 98.7656 115.32C99.1953 115.804 99.415 116.517 99.4248 117.459V122.667H97.645V117.51C97.645 117.007 97.5352 116.639 97.3154 116.404C97.0957 116.17 96.7319 116.053 96.2241 116.053C95.8188 116.053 95.4868 116.163 95.228 116.382C94.9741 116.597 94.7959 116.88 94.6934 117.232L94.7007 122.667H92.9209V117.452C92.8965 116.519 92.4204 116.053 91.4927 116.053C90.7798 116.053 90.2744 116.343 89.9766 116.924V122.667H88.1968V114.742H89.874ZM105.35 117.379L105.929 112.003H111.656V113.541H107.408L107.115 116.089C107.608 115.806 108.165 115.665 108.785 115.665C109.801 115.665 110.589 115.989 111.151 116.639C111.717 117.288 112 118.162 112 119.261C112 120.345 111.688 121.209 111.063 121.854C110.438 122.493 109.581 122.813 108.492 122.813C107.516 122.813 106.705 122.537 106.061 121.985C105.421 121.429 105.074 120.696 105.021 119.788H106.742C106.81 120.306 106.996 120.704 107.298 120.982C107.601 121.255 107.997 121.392 108.485 121.392C109.032 121.392 109.457 121.197 109.759 120.806C110.067 120.416 110.221 119.883 110.221 119.21C110.221 118.56 110.052 118.047 109.715 117.672C109.378 117.291 108.915 117.1 108.324 117.1C108.001 117.1 107.728 117.144 107.503 117.232C107.279 117.315 107.035 117.481 106.771 117.73L105.35 117.379Z" fill="white"/>
<path d="M153.5 29L153.5 304" stroke="#BBBBBB" stroke-dasharray="3 2"/>
<path d="M160.5 29L160.5 304" stroke="#BBBBBB" stroke-dasharray="3 2"/>
<path d="M285.5 29L285.5 304" stroke="#BBBBBB" stroke-dasharray="3 2"/>
<path d="M292.5 29L292.5 304" stroke="#BBBBBB" stroke-dasharray="3 2"/>
<path d="M417.5 29L417.5 304" stroke="#BBBBBB" stroke-dasharray="3 2"/>
<path d="M424.5 29L424.5 304" stroke="#BBBBBB" stroke-dasharray="3 2"/>
<path d="M29 90.5L549 90.5" stroke="#BBBBBB" stroke-dasharray="3 2"/>
<path d="M29 83.5L549 83.5" stroke="#BBBBBB" stroke-dasharray="3 2"/>
<path d="M29 152.5L549 152.5" stroke="#BBBBBB" stroke-dasharray="3 2"/>
<path d="M29 145.5L549 145.5" stroke="#BBBBBB" stroke-dasharray="3 2"/>
<path d="M29 214.5L549 214.5" stroke="#BBBBBB" stroke-dasharray="3 2"/>
<path d="M29 207.5L549 207.5" stroke="#BBBBBB" stroke-dasharray="3 2"/>
<path d="M29 276.5L549 276.5" stroke="#BBBBBB" stroke-dasharray="3 2"/>
<path d="M29 269.5L549 269.5" stroke="#BBBBBB" stroke-dasharray="3 2"/>
<rect x="28" y="28" width="522" height="291" stroke="#AAAAAA" stroke-width="2"/>
<path d="M91 293L102.547 273L79.453 273L91 293ZM89 243L89 275L93 275L93 243L89 243Z" fill="#1E73FF"/>
<path d="M223 293L234.547 273L211.453 273L223 293ZM221 243L221 275L225 275L225 243L221 243Z" fill="#1E73FF"/>
<path d="M355 293L366.547 273L343.453 273L355 293ZM353 243L353 275L357 275L357 243L353 243Z" fill="#1E73FF"/>
<path d="M487 293L498.547 273L475.453 273L487 293ZM485 243L485 275L489 275L489 243L485 243Z" fill="#1E73FF"/>
</g>
<defs>
<clipPath id="clip0">
<rect width="578" height="304" fill="white"/>
</clipPath>
</defs>
</svg>
