<svg width="866" height="304" viewBox="0 0 866 304" fill="none" xmlns="http://www.w3.org/2000/svg">
<g clip-path="url(#clip0)">
<rect width="866" height="304" fill="#F7F7F7"/>
<path d="M19 7C19 5.89543 19.8954 5 21 5H35C36.1046 5 37 5.89543 37 7V16.1857C37 16.7167 36.7888 17.2259 36.413 17.6011L29.413 24.5894C28.6323 25.3688 27.3677 25.3688 26.587 24.5894L19.587 17.6011C19.2112 17.2259 19 16.7167 19 16.1857V7Z" fill="#CCCCCC"/>
<path d="M29.084 17H27.666V10.1504L25.5742 10.8652V9.66406L28.9023 8.43945H29.084V17Z" fill="white"/>
<path d="M148 7C148 5.89543 148.895 5 150 5H164C165.105 5 166 5.89543 166 7V16.1857C166 16.7167 165.789 17.2259 165.413 17.6011L158.413 24.5894C157.632 25.3688 156.368 25.3688 155.587 24.5894L148.587 17.6011C148.211 17.2259 148 16.7167 148 16.1857V7Z" fill="#CCCCCC"/>
<path d="M159.965 17H154.229V16.0215L157.07 12.9219C157.48 12.4648 157.771 12.084 157.943 11.7793C158.119 11.4707 158.207 11.1621 158.207 10.8535C158.207 10.4473 158.092 10.1191 157.861 9.86914C157.635 9.61914 157.328 9.49414 156.941 9.49414C156.48 9.49414 156.123 9.63477 155.869 9.91602C155.615 10.1973 155.488 10.582 155.488 11.0703H154.064C154.064 10.5508 154.182 10.084 154.416 9.66992C154.654 9.25195 154.992 8.92773 155.43 8.69727C155.871 8.4668 156.379 8.35156 156.953 8.35156C157.781 8.35156 158.434 8.56055 158.91 8.97852C159.391 9.39258 159.631 9.9668 159.631 10.7012C159.631 11.127 159.51 11.5742 159.268 12.043C159.029 12.5078 158.637 13.0371 158.09 13.6309L156.004 15.8633H159.965V17Z" fill="white"/>
<path d="M280 7C280 5.89543 280.895 5 282 5H296C297.105 5 298 5.89543 298 7V16.1857C298 16.7167 297.789 17.2259 297.413 17.6011L290.413 24.5894C289.632 25.3688 288.368 25.3688 287.587 24.5894L280.587 17.6011C280.211 17.2259 280 16.7167 280 16.1857V7Z" fill="#CCCCCC"/>
<path d="M287.875 12.084H288.742C289.18 12.0801 289.525 11.9668 289.779 11.7441C290.037 11.5215 290.166 11.1992 290.166 10.7773C290.166 10.3711 290.059 10.0566 289.844 9.83398C289.633 9.60742 289.309 9.49414 288.871 9.49414C288.488 9.49414 288.174 9.60547 287.928 9.82812C287.682 10.0469 287.559 10.334 287.559 10.6895H286.135C286.135 10.252 286.25 9.85352 286.48 9.49414C286.715 9.13477 287.039 8.85547 287.453 8.65625C287.871 8.45312 288.338 8.35156 288.854 8.35156C289.705 8.35156 290.373 8.56641 290.857 8.99609C291.346 9.42188 291.59 10.0156 291.59 10.7773C291.59 11.1602 291.467 11.5215 291.221 11.8613C290.979 12.1973 290.664 12.4512 290.277 12.623C290.746 12.7832 291.102 13.0352 291.344 13.3789C291.59 13.7227 291.713 14.1328 291.713 14.6094C291.713 15.375 291.449 15.9844 290.922 16.4375C290.398 16.8906 289.709 17.1172 288.854 17.1172C288.033 17.1172 287.361 16.8984 286.838 16.4609C286.314 16.0234 286.053 15.4414 286.053 14.7148H287.477C287.477 15.0898 287.602 15.3945 287.852 15.6289C288.105 15.8633 288.445 15.9805 288.871 15.9805C289.312 15.9805 289.66 15.8633 289.914 15.6289C290.168 15.3945 290.295 15.0547 290.295 14.6094C290.295 14.1602 290.162 13.8145 289.896 13.5723C289.631 13.3301 289.236 13.209 288.713 13.209H287.875V12.084Z" fill="white"/>
<path d="M412 7C412 5.89543 412.895 5 414 5H428C429.105 5 430 5.89543 430 7V16.1857C430 16.7167 429.789 17.2259 429.413 17.6011L422.413 24.5894C421.632 25.3688 420.368 25.3688 419.587 24.5894L412.587 17.6011C412.211 17.2259 412 16.7167 412 16.1857V7Z" fill="#CCCCCC"/>
<path d="M423.045 13.959H424.105V15.1016H423.045V17H421.621V15.1016H417.936L417.895 14.2344L421.574 8.46875H423.045V13.959ZM419.389 13.959H421.621V10.3965L421.516 10.584L419.389 13.959Z" fill="white"/>
<path d="M544 7C544 5.89543 544.895 5 546 5H560C561.105 5 562 5.89543 562 7V16.1857C562 16.7167 561.789 17.2259 561.413 17.6011L554.413 24.5894C553.632 25.3688 552.368 25.3688 551.587 24.5894L544.587 17.6011C544.211 17.2259 544 16.7167 544 16.1857V7Z" fill="#CCCCCC"/>
<path d="M550.609 12.7695L551.072 8.46875H555.654V9.69922H552.256L552.021 11.7383C552.416 11.5117 552.861 11.3984 553.357 11.3984C554.17 11.3984 554.801 11.6582 555.25 12.1777C555.703 12.6973 555.93 13.3965 555.93 14.2754C555.93 15.1426 555.68 15.834 555.18 16.3496C554.68 16.8613 553.994 17.1172 553.123 17.1172C552.342 17.1172 551.693 16.8965 551.178 16.4551C550.666 16.0098 550.389 15.4238 550.346 14.6973H551.723C551.777 15.1113 551.926 15.4297 552.168 15.6523C552.41 15.8711 552.727 15.9805 553.117 15.9805C553.555 15.9805 553.895 15.8242 554.137 15.5117C554.383 15.1992 554.506 14.7734 554.506 14.2344C554.506 13.7148 554.371 13.3047 554.102 13.0039C553.832 12.6992 553.461 12.5469 552.988 12.5469C552.73 12.5469 552.512 12.582 552.332 12.6523C552.152 12.7188 551.957 12.8516 551.746 13.0508L550.609 12.7695Z" fill="white"/>
<path d="M676 7C676 5.89543 676.895 5 678 5H692C693.105 5 694 5.89543 694 7V16.1857C694 16.7167 693.789 17.2259 693.413 17.6011L686.413 24.5894C685.632 25.3688 684.368 25.3688 683.587 24.5894L676.587 17.6011C676.211 17.2259 676 16.7167 676 16.1857V7Z" fill="#CCCCCC"/>
<path d="M686.658 8.42773V9.60547H686.482C685.686 9.61719 685.049 9.83594 684.572 10.2617C684.096 10.6875 683.812 11.291 683.723 12.0723C684.18 11.5918 684.764 11.3516 685.475 11.3516C686.229 11.3516 686.822 11.6172 687.256 12.1484C687.693 12.6797 687.912 13.3652 687.912 14.2051C687.912 15.0723 687.656 15.7754 687.145 16.3145C686.637 16.8496 685.969 17.1172 685.141 17.1172C684.289 17.1172 683.598 16.8027 683.066 16.1738C682.539 15.5449 682.275 14.7207 682.275 13.7012V13.2148C682.275 11.7188 682.639 10.5469 683.365 9.69922C684.096 8.85156 685.145 8.42773 686.512 8.42773H686.658ZM685.129 12.5C684.816 12.5 684.529 12.5879 684.268 12.7637C684.01 12.9395 683.82 13.1738 683.699 13.4668V13.9004C683.699 14.5332 683.832 15.0371 684.098 15.4121C684.363 15.7832 684.707 15.9688 685.129 15.9688C685.551 15.9688 685.885 15.8105 686.131 15.4941C686.377 15.1777 686.5 14.7617 686.5 14.2461C686.5 13.7305 686.375 13.3105 686.125 12.9863C685.875 12.6621 685.543 12.5 685.129 12.5Z" fill="white"/>
<path d="M808 7C808 5.89543 808.895 5 810 5H824C825.105 5 826 5.89543 826 7V16.1857C826 16.7167 825.789 17.2259 825.413 17.6011L818.413 24.5894C817.632 25.3688 816.368 25.3688 815.587 24.5894L808.587 17.6011C808.211 17.2259 808 16.7167 808 16.1857V7Z" fill="#CCCCCC"/>
<path d="M819.906 9.25977L816.496 17H815.002L818.406 9.61133H813.994V8.46875H819.906V9.25977Z" fill="white"/>
<path d="M7 37C5.89543 37 5 36.1046 5 35L5 21C5 19.8954 5.89543 19 7 19L16.1857 19C16.7167 19 17.2259 19.2112 17.6011 19.587L24.5894 26.587C25.3688 27.3677 25.3688 28.6323 24.5894 29.413L17.6011 36.413C17.2259 36.7888 16.7167 37 16.1857 37L7 37Z" fill="#CCCCCC"/>
<path d="M14.084 32H12.666V25.1504L10.5742 25.8652V24.6641L13.9023 23.4395H14.084V32Z" fill="white"/>
<path d="M7 96C5.89543 96 5 95.1046 5 94L5 80C5 78.8954 5.89543 78 7 78L16.1857 78C16.7167 78 17.2259 78.2112 17.6011 78.587L24.5894 85.587C25.3688 86.3677 25.3688 87.6323 24.5894 88.413L17.6011 95.413C17.2259 95.7888 16.7167 96 16.1857 96L7 96Z" fill="#CCCCCC"/>
<path d="M15.9648 91H10.2285V90.0215L13.0703 86.9219C13.4805 86.4648 13.7715 86.084 13.9434 85.7793C14.1191 85.4707 14.207 85.1621 14.207 84.8535C14.207 84.4473 14.0918 84.1191 13.8613 83.8691C13.6348 83.6191 13.3281 83.4941 12.9414 83.4941C12.4805 83.4941 12.123 83.6348 11.8691 83.916C11.6152 84.1973 11.4883 84.582 11.4883 85.0703H10.0645C10.0645 84.5508 10.1816 84.084 10.416 83.6699C10.6543 83.252 10.9922 82.9277 11.4297 82.6973C11.8711 82.4668 12.3789 82.3516 12.9531 82.3516C13.7812 82.3516 14.4336 82.5605 14.9102 82.9785C15.3906 83.3926 15.6309 83.9668 15.6309 84.7012C15.6309 85.127 15.5098 85.5742 15.2676 86.043C15.0293 86.5078 14.6367 87.0371 14.0898 87.6309L12.0039 89.8633H15.9648V91Z" fill="white"/>
<path d="M7 155C5.89543 155 5 154.105 5 153L5 139C5 137.895 5.89543 137 7 137L16.1857 137C16.7167 137 17.2259 137.211 17.6011 137.587L24.5894 144.587C25.3688 145.368 25.3688 146.632 24.5894 147.413L17.6011 154.413C17.2259 154.789 16.7167 155 16.1857 155L7 155Z" fill="#CCCCCC"/>
<path d="M11.875 145.084H12.7422C13.1797 145.08 13.5254 144.967 13.7793 144.744C14.0371 144.521 14.166 144.199 14.166 143.777C14.166 143.371 14.0586 143.057 13.8438 142.834C13.6328 142.607 13.3086 142.494 12.8711 142.494C12.4883 142.494 12.1738 142.605 11.9277 142.828C11.6816 143.047 11.5586 143.334 11.5586 143.689H10.1348C10.1348 143.252 10.25 142.854 10.4805 142.494C10.7148 142.135 11.0391 141.855 11.4531 141.656C11.8711 141.453 12.3379 141.352 12.8535 141.352C13.7051 141.352 14.373 141.566 14.8574 141.996C15.3457 142.422 15.5898 143.016 15.5898 143.777C15.5898 144.16 15.4668 144.521 15.2207 144.861C14.9785 145.197 14.6641 145.451 14.2773 145.623C14.7461 145.783 15.1016 146.035 15.3438 146.379C15.5898 146.723 15.7129 147.133 15.7129 147.609C15.7129 148.375 15.4492 148.984 14.9219 149.438C14.3984 149.891 13.709 150.117 12.8535 150.117C12.0332 150.117 11.3613 149.898 10.8379 149.461C10.3145 149.023 10.0527 148.441 10.0527 147.715H11.4766C11.4766 148.09 11.6016 148.395 11.8516 148.629C12.1055 148.863 12.4453 148.98 12.8711 148.98C13.3125 148.98 13.6602 148.863 13.9141 148.629C14.168 148.395 14.2949 148.055 14.2949 147.609C14.2949 147.16 14.1621 146.814 13.8965 146.572C13.6309 146.33 13.2363 146.209 12.7129 146.209H11.875V145.084Z" fill="white"/>
<path d="M7 220C5.89543 220 5 219.105 5 218L5 204C5 202.895 5.89543 202 7 202L16.1857 202C16.7167 202 17.2259 202.211 17.6011 202.587L24.5894 209.587C25.3688 210.368 25.3688 211.632 24.5894 212.413L17.6011 219.413C17.2259 219.789 16.7167 220 16.1857 220L7 220Z" fill="#CCCCCC"/>
<path d="M15.0449 211.959H16.1055V213.102H15.0449V215H13.6211V213.102H9.93555L9.89453 212.234L13.5742 206.469H15.0449V211.959ZM11.3887 211.959H13.6211V208.396L13.5156 208.584L11.3887 211.959Z" fill="white"/>
<path d="M7 282C5.89543 282 5 281.105 5 280L5 266C5 264.895 5.89543 264 7 264L16.1857 264C16.7167 264 17.2259 264.211 17.6011 264.587L24.5894 271.587C25.3688 272.368 25.3688 273.632 24.5894 274.413L17.6011 281.413C17.2259 281.789 16.7167 282 16.1857 282L7 282Z" fill="#CCCCCC"/>
<path d="M10.6094 272.77L11.0723 268.469H15.6543V269.699H12.2559L12.0215 271.738C12.416 271.512 12.8613 271.398 13.3574 271.398C14.1699 271.398 14.8008 271.658 15.25 272.178C15.7031 272.697 15.9297 273.396 15.9297 274.275C15.9297 275.143 15.6797 275.834 15.1797 276.35C14.6797 276.861 13.9941 277.117 13.123 277.117C12.3418 277.117 11.6934 276.896 11.1777 276.455C10.666 276.01 10.3887 275.424 10.3457 274.697H11.7227C11.7773 275.111 11.9258 275.43 12.168 275.652C12.4102 275.871 12.7266 275.98 13.1172 275.98C13.5547 275.98 13.8945 275.824 14.1367 275.512C14.3828 275.199 14.5059 274.773 14.5059 274.234C14.5059 273.715 14.3711 273.305 14.1016 273.004C13.832 272.699 13.4609 272.547 12.9883 272.547C12.7305 272.547 12.5117 272.582 12.332 272.652C12.1523 272.719 11.957 272.852 11.7461 273.051L10.6094 272.77Z" fill="white"/>
<rect x="28" y="28" width="955" height="291" fill="white"/>
<path d="M31 36C31 33.2386 33.2386 31 36 31H146C148.761 31 151 33.2386 151 36V76C151 78.7614 148.761 81 146 81H36C33.2386 81 31 78.7614 31 76V36Z" fill="#1E73FF"/>
<path d="M73.2041 60.6666H71.4243V52.7418H73.2041V60.6666ZM71.3145 50.6837C71.3145 50.4103 71.3999 50.1832 71.5708 50.0026C71.7466 49.8219 71.9956 49.7316 72.3179 49.7316C72.6401 49.7316 72.8892 49.8219 73.0649 50.0026C73.2407 50.1832 73.3286 50.4103 73.3286 50.6837C73.3286 50.9523 73.2407 51.1769 73.0649 51.3575C72.8892 51.5333 72.6401 51.6212 72.3179 51.6212C71.9956 51.6212 71.7466 51.5333 71.5708 51.3575C71.3999 51.1769 71.3145 50.9523 71.3145 50.6837ZM77.3789 50.8156V52.7418H78.7778V54.0602H77.3789V58.484C77.3789 58.7867 77.4375 59.0065 77.5547 59.1432C77.6768 59.275 77.8916 59.3409 78.1992 59.3409C78.4043 59.3409 78.6118 59.3165 78.8218 59.2677V60.6447C78.4165 60.757 78.0259 60.8131 77.6499 60.8131C76.2827 60.8131 75.5991 60.0587 75.5991 58.5499V54.0602H74.2954V52.7418H75.5991V50.8156H77.3789ZM83.6338 60.8131C82.5059 60.8131 81.5903 60.4591 80.8872 59.7511C80.189 59.0382 79.8398 58.0909 79.8398 56.9093V56.6896C79.8398 55.8986 79.9912 55.193 80.2939 54.5729C80.6016 53.9479 81.0312 53.462 81.583 53.1154C82.1348 52.7687 82.75 52.5953 83.4287 52.5953C84.5078 52.5953 85.3403 52.9396 85.9263 53.6281C86.5171 54.3165 86.8125 55.2906 86.8125 56.5504V57.2682H81.6343C81.688 57.9225 81.9053 58.4401 82.2861 58.8209C82.6719 59.2018 83.1553 59.3922 83.7363 59.3922C84.5518 59.3922 85.2158 59.0626 85.7285 58.4034L86.688 59.319C86.3706 59.7926 85.9458 60.1613 85.4136 60.4249C84.8862 60.6837 84.293 60.8131 83.6338 60.8131ZM83.4214 54.0236C82.9331 54.0236 82.5376 54.1945 82.2349 54.5363C81.937 54.8781 81.7466 55.3541 81.6636 55.9645H85.0547V55.8326C85.0156 55.2369 84.8569 54.7877 84.5786 54.485C84.3003 54.1774 83.9146 54.0236 83.4214 54.0236ZM89.874 52.7418L89.9253 53.5695C90.4819 52.92 91.2437 52.5953 92.2104 52.5953C93.27 52.5953 93.9951 53.0006 94.3857 53.8112C94.9619 53.0006 95.7725 52.5953 96.8174 52.5953C97.6914 52.5953 98.3408 52.837 98.7656 53.3204C99.1953 53.8038 99.415 54.5167 99.4248 55.4591V60.6666H97.645V55.5104C97.645 55.0074 97.5352 54.6388 97.3154 54.4044C97.0957 54.17 96.7319 54.0529 96.2241 54.0529C95.8188 54.0529 95.4868 54.1627 95.228 54.3824C94.9741 54.5973 94.7959 54.8805 94.6934 55.2321L94.7007 60.6666H92.9209V55.4518C92.8965 54.5192 92.4204 54.0529 91.4927 54.0529C90.7798 54.0529 90.2744 54.3434 89.9766 54.9244V60.6666H88.1968V52.7418H89.874ZM109.693 60.6666H107.921V52.1046L105.306 52.9982V51.4967L109.466 49.9659H109.693V60.6666Z" fill="white"/>
<path d="M163 36C163 33.2386 165.239 31 168 31H278C280.761 31 283 33.2386 283 36V76C283 78.7614 280.761 81 278 81H168C165.239 81 163 78.7614 163 76V36Z" fill="#1E73FF"/>
<path d="M205.204 60.6666H203.424V52.7418H205.204V60.6666ZM203.314 50.6837C203.314 50.4103 203.4 50.1832 203.571 50.0026C203.747 49.8219 203.996 49.7316 204.318 49.7316C204.64 49.7316 204.889 49.8219 205.065 50.0026C205.241 50.1832 205.329 50.4103 205.329 50.6837C205.329 50.9523 205.241 51.1769 205.065 51.3575C204.889 51.5333 204.64 51.6212 204.318 51.6212C203.996 51.6212 203.747 51.5333 203.571 51.3575C203.4 51.1769 203.314 50.9523 203.314 50.6837ZM209.379 50.8156V52.7418H210.778V54.0602H209.379V58.484C209.379 58.7867 209.438 59.0065 209.555 59.1432C209.677 59.275 209.892 59.3409 210.199 59.3409C210.404 59.3409 210.612 59.3165 210.822 59.2677V60.6447C210.417 60.757 210.026 60.8131 209.65 60.8131C208.283 60.8131 207.599 60.0587 207.599 58.5499V54.0602H206.295V52.7418H207.599V50.8156H209.379ZM215.634 60.8131C214.506 60.8131 213.59 60.4591 212.887 59.7511C212.189 59.0382 211.84 58.0909 211.84 56.9093V56.6896C211.84 55.8986 211.991 55.193 212.294 54.5729C212.602 53.9479 213.031 53.462 213.583 53.1154C214.135 52.7687 214.75 52.5953 215.429 52.5953C216.508 52.5953 217.34 52.9396 217.926 53.6281C218.517 54.3165 218.812 55.2906 218.812 56.5504V57.2682H213.634C213.688 57.9225 213.905 58.4401 214.286 58.8209C214.672 59.2018 215.155 59.3922 215.736 59.3922C216.552 59.3922 217.216 59.0626 217.729 58.4034L218.688 59.319C218.371 59.7926 217.946 60.1613 217.414 60.4249C216.886 60.6837 216.293 60.8131 215.634 60.8131ZM215.421 54.0236C214.933 54.0236 214.538 54.1945 214.235 54.5363C213.937 54.8781 213.747 55.3541 213.664 55.9645H217.055V55.8326C217.016 55.2369 216.857 54.7877 216.579 54.485C216.3 54.1774 215.915 54.0236 215.421 54.0236ZM221.874 52.7418L221.925 53.5695C222.482 52.92 223.244 52.5953 224.21 52.5953C225.27 52.5953 225.995 53.0006 226.386 53.8112C226.962 53.0006 227.772 52.5953 228.817 52.5953C229.691 52.5953 230.341 52.837 230.766 53.3204C231.195 53.8038 231.415 54.5167 231.425 55.4591V60.6666H229.645V55.5104C229.645 55.0074 229.535 54.6388 229.315 54.4044C229.096 54.17 228.732 54.0529 228.224 54.0529C227.819 54.0529 227.487 54.1627 227.228 54.3824C226.974 54.5973 226.796 54.8805 226.693 55.2321L226.701 60.6666H224.921V55.4518C224.896 54.5192 224.42 54.0529 223.493 54.0529C222.78 54.0529 222.274 54.3434 221.977 54.9244V60.6666H220.197V52.7418H221.874ZM244.044 60.6666H236.874V59.4435L240.426 55.569C240.939 54.9977 241.303 54.5216 241.518 54.1407C241.737 53.755 241.847 53.3693 241.847 52.9835C241.847 52.4757 241.703 52.0656 241.415 51.7531C241.132 51.4406 240.749 51.2843 240.265 51.2843C239.689 51.2843 239.242 51.4601 238.925 51.8116C238.607 52.1632 238.449 52.6442 238.449 53.2545H236.669C236.669 52.6051 236.815 52.0216 237.108 51.504C237.406 50.9816 237.829 50.5763 238.375 50.2882C238.927 50.0001 239.562 49.8561 240.28 49.8561C241.315 49.8561 242.13 50.1173 242.726 50.6398C243.327 51.1573 243.627 51.8751 243.627 52.7931C243.627 53.3253 243.476 53.8844 243.173 54.4703C242.875 55.0514 242.384 55.713 241.701 56.4552L239.093 59.2457H244.044V60.6666Z" fill="white"/>
<path d="M295 36C295 33.2386 297.239 31 300 31H410C412.761 31 415 33.2386 415 36V76C415 78.7614 412.761 81 410 81H300C297.239 81 295 78.7614 295 76V36Z" fill="#1E73FF"/>
<path d="M337.204 60.6666H335.424V52.7418H337.204V60.6666ZM335.314 50.6837C335.314 50.4103 335.4 50.1832 335.571 50.0026C335.747 49.8219 335.996 49.7316 336.318 49.7316C336.64 49.7316 336.889 49.8219 337.065 50.0026C337.241 50.1832 337.329 50.4103 337.329 50.6837C337.329 50.9523 337.241 51.1769 337.065 51.3575C336.889 51.5333 336.64 51.6212 336.318 51.6212C335.996 51.6212 335.747 51.5333 335.571 51.3575C335.4 51.1769 335.314 50.9523 335.314 50.6837ZM341.379 50.8156V52.7418H342.778V54.0602H341.379V58.484C341.379 58.7867 341.438 59.0065 341.555 59.1432C341.677 59.275 341.892 59.3409 342.199 59.3409C342.404 59.3409 342.612 59.3165 342.822 59.2677V60.6447C342.417 60.757 342.026 60.8131 341.65 60.8131C340.283 60.8131 339.599 60.0587 339.599 58.5499V54.0602H338.295V52.7418H339.599V50.8156H341.379ZM347.634 60.8131C346.506 60.8131 345.59 60.4591 344.887 59.7511C344.189 59.0382 343.84 58.0909 343.84 56.9093V56.6896C343.84 55.8986 343.991 55.193 344.294 54.5729C344.602 53.9479 345.031 53.462 345.583 53.1154C346.135 52.7687 346.75 52.5953 347.429 52.5953C348.508 52.5953 349.34 52.9396 349.926 53.6281C350.517 54.3165 350.812 55.2906 350.812 56.5504V57.2682H345.634C345.688 57.9225 345.905 58.4401 346.286 58.8209C346.672 59.2018 347.155 59.3922 347.736 59.3922C348.552 59.3922 349.216 59.0626 349.729 58.4034L350.688 59.319C350.371 59.7926 349.946 60.1613 349.414 60.4249C348.886 60.6837 348.293 60.8131 347.634 60.8131ZM347.421 54.0236C346.933 54.0236 346.538 54.1945 346.235 54.5363C345.937 54.8781 345.747 55.3541 345.664 55.9645H349.055V55.8326C349.016 55.2369 348.857 54.7877 348.579 54.485C348.3 54.1774 347.915 54.0236 347.421 54.0236ZM353.874 52.7418L353.925 53.5695C354.482 52.92 355.244 52.5953 356.21 52.5953C357.27 52.5953 357.995 53.0006 358.386 53.8112C358.962 53.0006 359.772 52.5953 360.817 52.5953C361.691 52.5953 362.341 52.837 362.766 53.3204C363.195 53.8038 363.415 54.5167 363.425 55.4591V60.6666H361.645V55.5104C361.645 55.0074 361.535 54.6388 361.315 54.4044C361.096 54.17 360.732 54.0529 360.224 54.0529C359.819 54.0529 359.487 54.1627 359.228 54.3824C358.974 54.5973 358.796 54.8805 358.693 55.2321L358.701 60.6666H356.921V55.4518C356.896 54.5192 356.42 54.0529 355.493 54.0529C354.78 54.0529 354.274 54.3434 353.977 54.9244V60.6666H352.197V52.7418H353.874ZM370.932 54.5216H372.016C372.563 54.5167 372.995 54.3751 373.312 54.0968C373.635 53.8185 373.796 53.4156 373.796 52.8883C373.796 52.3805 373.662 51.9874 373.393 51.7091C373.129 51.4259 372.724 51.2843 372.177 51.2843C371.699 51.2843 371.306 51.4235 370.998 51.7018C370.69 51.9752 370.537 52.3341 370.537 52.7784H368.757C368.757 52.2316 368.901 51.7335 369.189 51.2843C369.482 50.8351 369.887 50.486 370.405 50.2369C370.927 49.983 371.511 49.8561 372.155 49.8561C373.22 49.8561 374.055 50.1246 374.66 50.6617C375.271 51.194 375.576 51.9362 375.576 52.8883C375.576 53.3668 375.422 53.8185 375.114 54.2433C374.812 54.6632 374.418 54.9806 373.935 55.1954C374.521 55.3956 374.965 55.7106 375.268 56.1403C375.576 56.5699 375.729 57.0826 375.729 57.6783C375.729 58.6354 375.4 59.3971 374.741 59.9635C374.086 60.5299 373.225 60.8131 372.155 60.8131C371.13 60.8131 370.29 60.5397 369.636 59.9928C368.981 59.4459 368.654 58.7184 368.654 57.8102H370.434C370.434 58.2789 370.59 58.6598 370.903 58.9528C371.22 59.2457 371.645 59.3922 372.177 59.3922C372.729 59.3922 373.164 59.2457 373.481 58.9528C373.798 58.6598 373.957 58.235 373.957 57.6783C373.957 57.1168 373.791 56.6847 373.459 56.382C373.127 56.0792 372.634 55.9279 371.979 55.9279H370.932V54.5216Z" fill="white"/>
<path d="M427 36C427 33.2386 429.239 31 432 31H542C544.761 31 547 33.2386 547 36V76C547 78.7614 544.761 81 542 81H432C429.239 81 427 78.7614 427 76V36Z" fill="#1E73FF"/>
<path d="M469.204 60.6666H467.424V52.7418H469.204V60.6666ZM467.314 50.6837C467.314 50.4103 467.4 50.1832 467.571 50.0026C467.747 49.8219 467.996 49.7316 468.318 49.7316C468.64 49.7316 468.889 49.8219 469.065 50.0026C469.241 50.1832 469.329 50.4103 469.329 50.6837C469.329 50.9523 469.241 51.1769 469.065 51.3575C468.889 51.5333 468.64 51.6212 468.318 51.6212C467.996 51.6212 467.747 51.5333 467.571 51.3575C467.4 51.1769 467.314 50.9523 467.314 50.6837ZM473.379 50.8156V52.7418H474.778V54.0602H473.379V58.484C473.379 58.7867 473.438 59.0065 473.555 59.1432C473.677 59.275 473.892 59.3409 474.199 59.3409C474.404 59.3409 474.612 59.3165 474.822 59.2677V60.6447C474.417 60.757 474.026 60.8131 473.65 60.8131C472.283 60.8131 471.599 60.0587 471.599 58.5499V54.0602H470.295V52.7418H471.599V50.8156H473.379ZM479.634 60.8131C478.506 60.8131 477.59 60.4591 476.887 59.7511C476.189 59.0382 475.84 58.0909 475.84 56.9093V56.6896C475.84 55.8986 475.991 55.193 476.294 54.5729C476.602 53.9479 477.031 53.462 477.583 53.1154C478.135 52.7687 478.75 52.5953 479.429 52.5953C480.508 52.5953 481.34 52.9396 481.926 53.6281C482.517 54.3165 482.812 55.2906 482.812 56.5504V57.2682H477.634C477.688 57.9225 477.905 58.4401 478.286 58.8209C478.672 59.2018 479.155 59.3922 479.736 59.3922C480.552 59.3922 481.216 59.0626 481.729 58.4034L482.688 59.319C482.371 59.7926 481.946 60.1613 481.414 60.4249C480.886 60.6837 480.293 60.8131 479.634 60.8131ZM479.421 54.0236C478.933 54.0236 478.538 54.1945 478.235 54.5363C477.937 54.8781 477.747 55.3541 477.664 55.9645H481.055V55.8326C481.016 55.2369 480.857 54.7877 480.579 54.485C480.3 54.1774 479.915 54.0236 479.421 54.0236ZM485.874 52.7418L485.925 53.5695C486.482 52.92 487.244 52.5953 488.21 52.5953C489.27 52.5953 489.995 53.0006 490.386 53.8112C490.962 53.0006 491.772 52.5953 492.817 52.5953C493.691 52.5953 494.341 52.837 494.766 53.3204C495.195 53.8038 495.415 54.5167 495.425 55.4591V60.6666H493.645V55.5104C493.645 55.0074 493.535 54.6388 493.315 54.4044C493.096 54.17 492.732 54.0529 492.224 54.0529C491.819 54.0529 491.487 54.1627 491.228 54.3824C490.974 54.5973 490.796 54.8805 490.693 55.2321L490.701 60.6666H488.921V55.4518C488.896 54.5192 488.42 54.0529 487.493 54.0529C486.78 54.0529 486.274 54.3434 485.977 54.9244V60.6666H484.197V52.7418H485.874ZM506.895 56.8654H508.22V58.2936H506.895V60.6666H505.115V58.2936H500.508L500.457 57.2096L505.056 50.0026H506.895V56.8654ZM502.324 56.8654H505.115V52.4122L504.983 52.6466L502.324 56.8654Z" fill="white"/>
<path d="M559 36C559 33.2386 561.239 31 564 31H674C676.761 31 679 33.2386 679 36V76C679 78.7614 676.761 81 674 81H564C561.239 81 559 78.7614 559 76V36Z" fill="#1E73FF"/>
<path d="M601.204 60.6666H599.424V52.7418H601.204V60.6666ZM599.314 50.6837C599.314 50.4103 599.4 50.1832 599.571 50.0026C599.747 49.8219 599.996 49.7316 600.318 49.7316C600.64 49.7316 600.889 49.8219 601.065 50.0026C601.241 50.1832 601.329 50.4103 601.329 50.6837C601.329 50.9523 601.241 51.1769 601.065 51.3575C600.889 51.5333 600.64 51.6212 600.318 51.6212C599.996 51.6212 599.747 51.5333 599.571 51.3575C599.4 51.1769 599.314 50.9523 599.314 50.6837ZM605.379 50.8156V52.7418H606.778V54.0602H605.379V58.484C605.379 58.7867 605.438 59.0065 605.555 59.1432C605.677 59.275 605.892 59.3409 606.199 59.3409C606.404 59.3409 606.612 59.3165 606.822 59.2677V60.6447C606.417 60.757 606.026 60.8131 605.65 60.8131C604.283 60.8131 603.599 60.0587 603.599 58.5499V54.0602H602.295V52.7418H603.599V50.8156H605.379ZM611.634 60.8131C610.506 60.8131 609.59 60.4591 608.887 59.7511C608.189 59.0382 607.84 58.0909 607.84 56.9093V56.6896C607.84 55.8986 607.991 55.193 608.294 54.5729C608.602 53.9479 609.031 53.462 609.583 53.1154C610.135 52.7687 610.75 52.5953 611.429 52.5953C612.508 52.5953 613.34 52.9396 613.926 53.6281C614.517 54.3165 614.812 55.2906 614.812 56.5504V57.2682H609.634C609.688 57.9225 609.905 58.4401 610.286 58.8209C610.672 59.2018 611.155 59.3922 611.736 59.3922C612.552 59.3922 613.216 59.0626 613.729 58.4034L614.688 59.319C614.371 59.7926 613.946 60.1613 613.414 60.4249C612.886 60.6837 612.293 60.8131 611.634 60.8131ZM611.421 54.0236C610.933 54.0236 610.538 54.1945 610.235 54.5363C609.937 54.8781 609.747 55.3541 609.664 55.9645H613.055V55.8326C613.016 55.2369 612.857 54.7877 612.579 54.485C612.3 54.1774 611.915 54.0236 611.421 54.0236ZM617.874 52.7418L617.925 53.5695C618.482 52.92 619.244 52.5953 620.21 52.5953C621.27 52.5953 621.995 53.0006 622.386 53.8112C622.962 53.0006 623.772 52.5953 624.817 52.5953C625.691 52.5953 626.341 52.837 626.766 53.3204C627.195 53.8038 627.415 54.5167 627.425 55.4591V60.6666H625.645V55.5104C625.645 55.0074 625.535 54.6388 625.315 54.4044C625.096 54.17 624.732 54.0529 624.224 54.0529C623.819 54.0529 623.487 54.1627 623.228 54.3824C622.974 54.5973 622.796 54.8805 622.693 55.2321L622.701 60.6666H620.921V55.4518C620.896 54.5192 620.42 54.0529 619.493 54.0529C618.78 54.0529 618.274 54.3434 617.977 54.9244V60.6666H616.197V52.7418H617.874ZM633.35 55.3785L633.929 50.0026H639.656V51.5406H635.408L635.115 54.0895C635.608 53.8063 636.165 53.6647 636.785 53.6647C637.801 53.6647 638.589 53.9894 639.151 54.6388C639.717 55.2882 640 56.1622 640 57.2609C640 58.3448 639.688 59.2091 639.063 59.8536C638.438 60.4933 637.581 60.8131 636.492 60.8131C635.516 60.8131 634.705 60.5372 634.061 59.9855C633.421 59.4288 633.074 58.6964 633.021 57.7882H634.742C634.81 58.3058 634.996 58.7037 635.298 58.9821C635.601 59.2555 635.997 59.3922 636.485 59.3922C637.032 59.3922 637.457 59.1969 637.759 58.8063C638.067 58.4156 638.221 57.8834 638.221 57.2096C638.221 56.5602 638.052 56.0475 637.715 55.6715C637.378 55.2906 636.915 55.1002 636.324 55.1002C636.001 55.1002 635.728 55.1442 635.503 55.2321C635.279 55.3151 635.035 55.4811 634.771 55.7301L633.35 55.3785Z" fill="white"/>
<path d="M153.5 29L153.5 304" stroke="#BBBBBB" stroke-dasharray="3 2"/>
<path d="M160.5 29L160.5 304" stroke="#BBBBBB" stroke-dasharray="3 2"/>
<path d="M285.5 29L285.5 304" stroke="#BBBBBB" stroke-dasharray="3 2"/>
<path d="M292.5 29L292.5 304" stroke="#BBBBBB" stroke-dasharray="3 2"/>
<path d="M417.5 29L417.5 304" stroke="#BBBBBB" stroke-dasharray="3 2"/>
<path d="M424.5 29L424.5 304" stroke="#BBBBBB" stroke-dasharray="3 2"/>
<path d="M549.5 29L549.5 304" stroke="#BBBBBB" stroke-dasharray="3 2"/>
<path d="M556.5 29L556.5 304" stroke="#BBBBBB" stroke-dasharray="3 2"/>
<path d="M681.5 29L681.5 304" stroke="#BBBBBB" stroke-dasharray="3 2"/>
<path d="M688.5 29L688.5 304" stroke="#BBBBBB" stroke-dasharray="3 2"/>
<path d="M813.5 29L813.5 304" stroke="#BBBBBB" stroke-dasharray="3 2"/>
<path d="M820.5 29L820.5 304" stroke="#BBBBBB" stroke-dasharray="3 2"/>
<path d="M29 90.5L974 90.5" stroke="#BBBBBB" stroke-dasharray="3 2"/>
<path d="M29 83.5L974 83.5" stroke="#BBBBBB" stroke-dasharray="3 2"/>
<path d="M29 152.5L974 152.5" stroke="#BBBBBB" stroke-dasharray="3 2"/>
<path d="M29 145.5L974 145.5" stroke="#BBBBBB" stroke-dasharray="3 2"/>
<path d="M29 214.5L974 214.5" stroke="#BBBBBB" stroke-dasharray="3 2"/>
<path d="M29 207.5L974 207.5" stroke="#BBBBBB" stroke-dasharray="3 2"/>
<path d="M29 276.5L974 276.5" stroke="#BBBBBB" stroke-dasharray="3 2"/>
<path d="M29 269.5L974 269.5" stroke="#BBBBBB" stroke-dasharray="3 2"/>
<path d="M853 56L833 44.453V67.547L853 56ZM783 58H835V54H783V58Z" fill="#1E73FF"/>
<path d="M853 118L833 106.453V129.547L853 118ZM783 120H835V116H783V120Z" fill="#1E73FF"/>
<path d="M853 180L833 168.453V191.547L853 180ZM783 182H835V178H783V182Z" fill="#1E73FF"/>
<path d="M853 242L833 230.453V253.547L853 242ZM783 244H835V240H783V244Z" fill="#1E73FF"/>
<rect x="28" y="28" width="955" height="291" stroke="#AAAAAA" stroke-width="2"/>
<path d="M91 293L102.547 273L79.453 273L91 293ZM89 243L89 275L93 275L93 243L89 243Z" fill="#1E73FF"/>
<path d="M223 293L234.547 273L211.453 273L223 293ZM221 243L221 275L225 275L225 243L221 243Z" fill="#1E73FF"/>
<path d="M355 293L366.547 273L343.453 273L355 293ZM353 243L353 275L357 275L357 243L353 243Z" fill="#1E73FF"/>
<path d="M487 293L498.547 273L475.453 273L487 293ZM485 243L485 275L489 275L489 243L485 243Z" fill="#1E73FF"/>
<path d="M619 293L630.547 273L607.453 273L619 293ZM617 243L617 275L621 275L621 243L617 243Z" fill="#1E73FF"/>
<path d="M751 293L762.547 273L739.453 273L751 293ZM749 243L749 275L753 275L753 243L749 243Z" fill="#1E73FF"/>
</g>
<defs>
<clipPath id="clip0">
<rect width="866" height="304" fill="white"/>
</clipPath>
</defs>
</svg>
