<svg width="622" height="279" viewBox="0 0 622 279" fill="none" xmlns="http://www.w3.org/2000/svg">
<rect x="1" y="36" width="289" height="242" fill="white" stroke="#DDDDDD" stroke-width="2" stroke-dasharray="6 4"/>
<rect x="332" y="36" width="289" height="242" fill="white" stroke="#DDDDDD" stroke-width="2" stroke-dasharray="6 4"/>
<rect x="20" y="55" width="41" height="204" rx="5" fill="#1E73FF"/>
<rect x="351" y="55" width="69" height="204" rx="5" fill="#1E73FF"/>
<rect x="71" y="55" width="200" height="204" rx="5" fill="#DDDDDD"/>
<rect x="430" y="55" width="172" height="204" rx="5" fill="#DDDDDD"/>
<path d="M35.376 84.272H33.264V93.792H34.288C35.76 93.792 37.456 93.712 39.376 93.36L39.2 91.584C37.792 91.84 36.528 91.936 35.376 91.968V84.272ZM43.296 82.624V88.304H41.968V82.896H40V96.672H41.968V90.016H43.296V97.36H45.312V82.624H43.296ZM39.312 117.792C37.344 117.792 36.336 117.456 36.336 116.704C36.336 115.952 37.344 115.632 39.312 115.632C41.28 115.632 42.288 115.952 42.288 116.704C42.288 117.456 41.28 117.792 39.312 117.792ZM39.312 114.032C36.128 114.032 34.208 114.992 34.208 116.704C34.208 118.416 36.128 119.392 39.312 119.392C42.496 119.392 44.432 118.416 44.432 116.704C44.432 114.992 42.496 114.032 39.312 114.032ZM37.792 110.4C38.272 110.464 38.784 110.496 39.344 110.496C39.888 110.496 40.4 110.464 40.864 110.416V111.632H37.792V110.4ZM39.344 106.464C41.36 106.464 42.512 106.864 42.512 107.696C42.512 108.496 41.36 108.912 39.344 108.912C37.344 108.912 36.192 108.496 36.192 107.696C36.192 106.864 37.344 106.464 39.344 106.464ZM42.976 111.632V109.872C44.064 109.392 44.688 108.656 44.688 107.696C44.688 105.936 42.608 104.864 39.344 104.864C36.096 104.864 34.016 105.936 34.016 107.696C34.016 108.64 34.624 109.376 35.68 109.856V111.632H32.688V113.296H46V111.632H42.976ZM37.424 127.616C35.12 127.616 33.376 129.136 33.376 131.248C33.376 133.376 35.12 134.88 37.424 134.88C39.728 134.88 41.488 133.376 41.488 131.248C41.488 129.136 39.728 127.616 37.424 127.616ZM37.424 129.424C38.56 129.424 39.424 130.096 39.424 131.248C39.424 132.4 38.56 133.072 37.424 133.072C36.288 133.072 35.424 132.4 35.424 131.248C35.424 130.096 36.288 129.424 37.424 129.424ZM42.864 126.624V141.408H44.976V126.624H42.864ZM33.024 138.416C35.568 138.416 39.024 138.384 42.192 137.744L42.064 136.224C38.96 136.688 35.344 136.704 32.752 136.704L33.024 138.416ZM34.016 157.088C35.728 156.624 36.896 155.632 37.552 154.352C38.208 155.568 39.36 156.512 41.056 156.944L41.984 155.344C39.824 154.784 38.752 153.456 38.608 152.048H41.584V150.368H38.592V148.768H36.464V150.368H33.504V152.048H36.448C36.304 153.52 35.264 154.896 33.072 155.472L34.016 157.088ZM38.592 156.656H36.464V158.896C35.12 158.944 33.84 158.944 32.752 158.944L33.024 160.656C35.552 160.64 39.024 160.624 42.192 159.984L42.064 158.448C40.944 158.624 39.776 158.72 38.592 158.8V156.656ZM42.864 148.624V163.408H44.976V148.624H42.864ZM45.584 177.36C42.224 176.816 40.416 174.608 40.416 172.512V171.456H38.16V172.512C38.16 174.56 36.336 176.816 33.008 177.36L33.872 179.104C36.448 178.64 38.32 177.248 39.28 175.44C40.24 177.264 42.128 178.64 44.72 179.104L45.584 177.36ZM40.352 181.936V178.64H38.24V181.936H32.688V183.632H46.032V181.936H40.352ZM33.776 198.272L34.032 199.984L42.448 199.552C42.352 200.544 42.192 201.616 41.904 202.816L43.984 203.024C44.672 199.824 44.672 197.792 44.672 195.648V193.936H34.192V195.616H42.592V195.648C42.592 196.4 42.592 197.168 42.56 197.984L33.776 198.272ZM32.704 203.904V205.632H46.016V203.904H32.704ZM33.504 216.16V217.84H38.416C38.112 221.104 36.48 223.408 32.72 225.216L33.824 226.88C39.056 224.352 40.576 220.672 40.576 216.16H33.504ZM42.832 214.624V229.36H44.96V214.624H42.832Z" fill="white"/>
<path d="M366.376 128.272H364.264V137.792H365.288C366.76 137.792 368.456 137.712 370.376 137.36L370.2 135.584C368.792 135.84 367.528 135.936 366.376 135.968V128.272ZM374.296 126.624V132.304H372.968V126.896H371V140.672H372.968V134.016H374.296V141.36H376.312V126.624H374.296ZM384.031 139.792C382.063 139.792 381.055 139.456 381.055 138.704C381.055 137.952 382.063 137.632 384.031 137.632C385.999 137.632 387.007 137.952 387.007 138.704C387.007 139.456 385.999 139.792 384.031 139.792ZM384.031 136.032C380.847 136.032 378.927 136.992 378.927 138.704C378.927 140.416 380.847 141.392 384.031 141.392C387.215 141.392 389.151 140.416 389.151 138.704C389.151 136.992 387.215 136.032 384.031 136.032ZM382.511 132.4C382.991 132.464 383.503 132.496 384.063 132.496C384.607 132.496 385.119 132.464 385.583 132.416V133.632H382.511V132.4ZM384.063 128.464C386.079 128.464 387.231 128.864 387.231 129.696C387.231 130.496 386.079 130.912 384.063 130.912C382.063 130.912 380.911 130.496 380.911 129.696C380.911 128.864 382.063 128.464 384.063 128.464ZM387.695 133.632V131.872C388.783 131.392 389.407 130.656 389.407 129.696C389.407 127.936 387.327 126.864 384.063 126.864C380.815 126.864 378.735 127.936 378.735 129.696C378.735 130.64 379.343 131.376 380.399 131.856V133.632H377.407V135.296H390.719V133.632H387.695ZM395.862 127.616C393.558 127.616 391.814 129.136 391.814 131.248C391.814 133.376 393.558 134.88 395.862 134.88C398.166 134.88 399.926 133.376 399.926 131.248C399.926 129.136 398.166 127.616 395.862 127.616ZM395.862 129.424C396.998 129.424 397.862 130.096 397.862 131.248C397.862 132.4 396.998 133.072 395.862 133.072C394.726 133.072 393.862 132.4 393.862 131.248C393.862 130.096 394.726 129.424 395.862 129.424ZM401.302 126.624V141.408H403.414V126.624H401.302ZM391.462 138.416C394.006 138.416 397.462 138.384 400.63 137.744L400.502 136.224C397.398 136.688 393.782 136.704 391.19 136.704L391.462 138.416ZM365.016 157.088C366.728 156.624 367.896 155.632 368.552 154.352C369.208 155.568 370.36 156.512 372.056 156.944L372.984 155.344C370.824 154.784 369.752 153.456 369.608 152.048H372.584V150.368H369.592V148.768H367.464V150.368H364.504V152.048H367.448C367.304 153.52 366.264 154.896 364.072 155.472L365.016 157.088ZM369.592 156.656H367.464V158.896C366.12 158.944 364.84 158.944 363.752 158.944L364.024 160.656C366.552 160.64 370.024 160.624 373.192 159.984L373.064 158.448C371.944 158.624 370.776 158.72 369.592 158.8V156.656ZM373.864 148.624V163.408H375.976V148.624H373.864ZM390.303 155.36C386.943 154.816 385.135 152.608 385.135 150.512V149.456H382.879V150.512C382.879 152.56 381.055 154.816 377.727 155.36L378.591 157.104C381.167 156.64 383.039 155.248 383.999 153.44C384.959 155.264 386.847 156.64 389.439 157.104L390.303 155.36ZM385.071 159.936V156.64H382.959V159.936H377.407V161.632H390.751V159.936H385.071ZM364.776 176.272L365.032 177.984L373.448 177.552C373.352 178.544 373.192 179.616 372.904 180.816L374.984 181.024C375.672 177.824 375.672 175.792 375.672 173.648V171.936H365.192V173.616H373.592V173.648C373.592 174.4 373.592 175.168 373.56 175.984L364.776 176.272ZM363.704 181.904V183.632H377.016V181.904H363.704ZM378.223 172.16V173.84H383.135C382.831 177.104 381.199 179.408 377.439 181.216L378.543 182.88C383.775 180.352 385.295 176.672 385.295 172.16H378.223ZM387.551 170.624V185.36H389.679V170.624H387.551Z" fill="white"/>
<path d="M406.06 13.2192L407.487 7.01855H409.455L407.006 16H405.346L403.42 9.83252L401.527 16H399.867L397.41 7.01855H399.377L400.83 13.1528L402.673 7.01855H404.192L406.06 13.2192ZM410.426 11.4263C410.426 10.5464 410.6 9.75505 410.949 9.05225C411.297 8.34391 411.787 7.8016 412.418 7.42529C413.049 7.04346 413.774 6.85254 414.593 6.85254C415.805 6.85254 416.787 7.24268 417.54 8.02295C418.298 8.80322 418.707 9.83805 418.768 11.1274L418.776 11.6006C418.776 12.486 418.605 13.2773 418.262 13.9746C417.924 14.6719 417.437 15.2114 416.801 15.5933C416.17 15.9751 415.439 16.166 414.609 16.166C413.342 16.166 412.327 15.7454 411.563 14.9043C410.805 14.0576 410.426 12.9315 410.426 11.5259V11.4263ZM412.443 11.6006C412.443 12.5247 412.634 13.2497 413.016 13.7754C413.397 14.2956 413.929 14.5557 414.609 14.5557C415.29 14.5557 415.819 14.29 416.195 13.7588C416.577 13.2275 416.768 12.45 416.768 11.4263C416.768 10.5187 416.571 9.79932 416.178 9.26807C415.791 8.73682 415.262 8.47119 414.593 8.47119C413.934 8.47119 413.411 8.73405 413.024 9.25977C412.637 9.77995 412.443 10.5602 412.443 11.6006ZM425.185 8.86133C424.919 8.81706 424.645 8.79492 424.363 8.79492C423.439 8.79492 422.816 9.14909 422.495 9.85742V16H420.478V7.01855H422.404L422.454 8.02295C422.941 7.24268 423.616 6.85254 424.479 6.85254C424.767 6.85254 425.005 6.89128 425.193 6.96875L425.185 8.86133ZM425.915 11.4429C425.915 10.0594 426.236 8.94987 426.878 8.11426C427.52 7.27311 428.38 6.85254 429.459 6.85254C430.411 6.85254 431.181 7.18457 431.767 7.84863V3.25H433.784V16H431.958L431.858 15.0703C431.255 15.8008 430.45 16.166 429.443 16.166C428.391 16.166 427.539 15.7427 426.886 14.896C426.239 14.0493 425.915 12.8983 425.915 11.4429ZM427.932 11.6172C427.932 12.5303 428.106 13.2441 428.455 13.7588C428.809 14.2679 429.31 14.5225 429.958 14.5225C430.782 14.5225 431.385 14.1545 431.767 13.4185V9.5835C431.396 8.8641 430.799 8.50439 429.974 8.50439C429.321 8.50439 428.818 8.76449 428.463 9.28467C428.109 9.79932 427.932 10.5768 427.932 11.6172ZM439.802 11.6753H435.444V10.0483H439.802V11.6753ZM449.348 11.6006C449.348 12.9951 449.035 14.1047 448.41 14.9292C447.79 15.7537 446.935 16.166 445.845 16.166C444.794 16.166 443.975 15.7869 443.388 15.0288L443.289 16H441.462V3.25H443.479V7.88184C444.061 7.19564 444.844 6.85254 445.829 6.85254C446.924 6.85254 447.785 7.25928 448.41 8.07275C449.035 8.88623 449.348 10.0234 449.348 11.4844V11.6006ZM447.331 11.4263C447.331 10.4523 447.16 9.72184 446.816 9.23486C446.473 8.74788 445.975 8.50439 445.322 8.50439C444.448 8.50439 443.834 8.88623 443.479 9.6499V13.3521C443.839 14.1323 444.459 14.5225 445.339 14.5225C445.97 14.5225 446.457 14.2873 446.8 13.8169C447.143 13.3465 447.32 12.6354 447.331 11.6836V11.4263ZM455.748 8.86133C455.482 8.81706 455.208 8.79492 454.926 8.79492C454.002 8.79492 453.38 9.14909 453.059 9.85742V16H451.042V7.01855H452.967L453.017 8.02295C453.504 7.24268 454.179 6.85254 455.042 6.85254C455.33 6.85254 455.568 6.89128 455.756 6.96875L455.748 8.86133ZM460.812 16.166C459.533 16.166 458.496 15.7648 457.699 14.9624C456.907 14.1545 456.512 13.0809 456.512 11.7417V11.4927C456.512 10.5962 456.683 9.79655 457.026 9.09375C457.375 8.38542 457.862 7.8348 458.487 7.44189C459.113 7.04899 459.81 6.85254 460.579 6.85254C461.802 6.85254 462.746 7.24268 463.41 8.02295C464.079 8.80322 464.414 9.90723 464.414 11.335V12.1484H458.545C458.606 12.89 458.853 13.4766 459.284 13.9082C459.721 14.3398 460.269 14.5557 460.928 14.5557C461.852 14.5557 462.604 14.1821 463.186 13.4351L464.273 14.4727C463.913 15.0094 463.432 15.4272 462.829 15.7261C462.231 16.0194 461.559 16.166 460.812 16.166ZM460.571 8.47119C460.017 8.47119 459.569 8.66488 459.226 9.05225C458.889 9.43962 458.673 9.97917 458.579 10.6709H462.422V10.5215C462.378 9.84635 462.198 9.33724 461.882 8.99414C461.567 8.64551 461.13 8.47119 460.571 8.47119ZM471.354 16C471.265 15.8285 471.188 15.549 471.121 15.1616C470.479 15.8312 469.693 16.166 468.764 16.166C467.862 16.166 467.126 15.9087 466.556 15.394C465.986 14.8794 465.701 14.243 465.701 13.4849C465.701 12.5275 466.055 11.7943 466.763 11.2852C467.477 10.7705 468.495 10.5132 469.818 10.5132H471.055V9.92383C471.055 9.45898 470.925 9.08822 470.665 8.81152C470.404 8.5293 470.009 8.38818 469.478 8.38818C469.018 8.38818 468.642 8.50439 468.349 8.73682C468.055 8.9637 467.909 9.25423 467.909 9.6084H465.892C465.892 9.11589 466.055 8.65658 466.381 8.23047C466.708 7.79883 467.151 7.46126 467.709 7.21777C468.274 6.97428 468.902 6.85254 469.594 6.85254C470.645 6.85254 471.484 7.11816 472.109 7.64941C472.734 8.17513 473.055 8.91667 473.072 9.87402V13.9248C473.072 14.7327 473.185 15.3774 473.412 15.8589V16H471.354ZM469.137 14.5474C469.536 14.5474 469.909 14.4505 470.258 14.2568C470.612 14.0632 470.878 13.8031 471.055 13.4766V11.7832H469.967C469.22 11.7832 468.659 11.9132 468.282 12.1733C467.906 12.4334 467.718 12.8014 467.718 13.2773C467.718 13.6647 467.845 13.9746 468.1 14.207C468.36 14.4339 468.706 14.5474 469.137 14.5474ZM478.102 12.1484L477.206 13.0698V16H475.188V3.25H477.206V10.6045L477.836 9.81592L480.318 7.01855H482.742L479.405 10.7622L483.099 16H480.767L478.102 12.1484ZM485.282 13.875C485.659 13.875 485.949 13.9829 486.154 14.1987C486.359 14.409 486.461 14.6746 486.461 14.9956C486.461 15.311 486.359 15.5739 486.154 15.7842C485.949 15.9889 485.659 16.0913 485.282 16.0913C484.923 16.0913 484.638 15.9889 484.427 15.7842C484.217 15.5794 484.112 15.3166 484.112 14.9956C484.112 14.6746 484.214 14.409 484.419 14.1987C484.624 13.9829 484.911 13.875 485.282 13.875ZM485.282 6.82764C485.659 6.82764 485.949 6.93555 486.154 7.15137C486.359 7.36165 486.461 7.62728 486.461 7.94824C486.461 8.26367 486.359 8.52653 486.154 8.73682C485.949 8.94157 485.659 9.04395 485.282 9.04395C484.923 9.04395 484.638 8.94157 484.427 8.73682C484.217 8.53206 484.112 8.26921 484.112 7.94824C484.112 7.62728 484.214 7.36165 484.419 7.15137C484.624 6.93555 484.911 6.82764 485.282 6.82764ZM553.888 6.82764C554.264 6.82764 554.555 6.93555 554.76 7.15137C554.965 7.36165 555.067 7.62728 555.067 7.94824C555.067 8.26367 554.965 8.52653 554.76 8.73682C554.555 8.94157 554.264 9.04395 553.888 9.04395C553.528 9.04395 553.243 8.94157 553.033 8.73682C552.823 8.53206 552.718 8.26921 552.718 7.94824C552.718 7.62728 552.82 7.36165 553.025 7.15137C553.23 6.93555 553.517 6.82764 553.888 6.82764ZM553.282 18.7227L552.195 18.0752C552.516 17.5716 552.734 17.1317 552.851 16.7554C552.972 16.3846 553.036 16.0055 553.042 15.6182V14.0493H554.859L554.851 15.502C554.846 16.0885 554.696 16.6751 554.403 17.2617C554.115 17.8538 553.742 18.3408 553.282 18.7227Z" fill="#222222"/>
<path d="M495.733 12.1484L494.836 13.0698V16H492.819V3.25H494.836V10.6045L495.467 9.81592L497.949 7.01855H500.373L497.036 10.7622L500.73 16H498.397L495.733 12.1484ZM505.486 16.166C504.208 16.166 503.17 15.7648 502.374 14.9624C501.582 14.1545 501.187 13.0809 501.187 11.7417V11.4927C501.187 10.5962 501.358 9.79655 501.701 9.09375C502.05 8.38542 502.537 7.8348 503.162 7.44189C503.787 7.04899 504.485 6.85254 505.254 6.85254C506.477 6.85254 507.42 7.24268 508.084 8.02295C508.754 8.80322 509.089 9.90723 509.089 11.335V12.1484H503.22C503.281 12.89 503.527 13.4766 503.959 13.9082C504.396 14.3398 504.944 14.5557 505.603 14.5557C506.527 14.5557 507.279 14.1821 507.86 13.4351L508.948 14.4727C508.588 15.0094 508.107 15.4272 507.503 15.7261C506.906 16.0194 506.233 16.166 505.486 16.166ZM505.246 8.47119C504.692 8.47119 504.244 8.66488 503.901 9.05225C503.563 9.43962 503.347 9.97917 503.253 10.6709H507.097V10.5215C507.052 9.84635 506.873 9.33724 506.557 8.99414C506.242 8.64551 505.805 8.47119 505.246 8.47119ZM514.617 16.166C513.339 16.166 512.301 15.7648 511.504 14.9624C510.713 14.1545 510.317 13.0809 510.317 11.7417V11.4927C510.317 10.5962 510.489 9.79655 510.832 9.09375C511.181 8.38542 511.668 7.8348 512.293 7.44189C512.918 7.04899 513.616 6.85254 514.385 6.85254C515.608 6.85254 516.551 7.24268 517.215 8.02295C517.885 8.80322 518.22 9.90723 518.22 11.335V12.1484H512.351C512.412 12.89 512.658 13.4766 513.09 13.9082C513.527 14.3398 514.075 14.5557 514.733 14.5557C515.658 14.5557 516.41 14.1821 516.991 13.4351L518.079 14.4727C517.719 15.0094 517.237 15.4272 516.634 15.7261C516.037 16.0194 515.364 16.166 514.617 16.166ZM514.376 8.47119C513.823 8.47119 513.375 8.66488 513.032 9.05225C512.694 9.43962 512.478 9.97917 512.384 10.6709H516.228V10.5215C516.183 9.84635 516.003 9.33724 515.688 8.99414C515.373 8.64551 514.935 8.47119 514.376 8.47119ZM527.658 11.6006C527.658 12.9896 527.342 14.0991 526.711 14.9292C526.081 15.7537 525.234 16.166 524.171 16.166C523.186 16.166 522.398 15.8423 521.806 15.1948V19.4531H519.789V7.01855H521.648L521.731 7.93164C522.323 7.21224 523.128 6.85254 524.146 6.85254C525.242 6.85254 526.1 7.26204 526.72 8.08105C527.345 8.89453 527.658 10.0262 527.658 11.4761V11.6006ZM525.649 11.4263C525.649 10.5298 525.469 9.81868 525.109 9.29297C524.755 8.76725 524.246 8.50439 523.582 8.50439C522.757 8.50439 522.165 8.84473 521.806 9.52539V13.5098C522.171 14.207 522.769 14.5557 523.599 14.5557C524.241 14.5557 524.741 14.2983 525.101 13.7837C525.466 13.2635 525.649 12.4777 525.649 11.4263ZM533.286 11.6753H528.928V10.0483H533.286V11.6753ZM540.316 16C540.228 15.8285 540.15 15.549 540.084 15.1616C539.442 15.8312 538.656 16.166 537.727 16.166C536.825 16.166 536.089 15.9087 535.519 15.394C534.949 14.8794 534.664 14.243 534.664 13.4849C534.664 12.5275 535.018 11.7943 535.726 11.2852C536.44 10.7705 537.458 10.5132 538.781 10.5132H540.018V9.92383C540.018 9.45898 539.888 9.08822 539.627 8.81152C539.367 8.5293 538.972 8.38818 538.44 8.38818C537.981 8.38818 537.605 8.50439 537.312 8.73682C537.018 8.9637 536.872 9.25423 536.872 9.6084H534.854C534.854 9.11589 535.018 8.65658 535.344 8.23047C535.671 7.79883 536.113 7.46126 536.672 7.21777C537.237 6.97428 537.865 6.85254 538.557 6.85254C539.608 6.85254 540.446 7.11816 541.072 7.64941C541.697 8.17513 542.018 8.91667 542.035 9.87402V13.9248C542.035 14.7327 542.148 15.3774 542.375 15.8589V16H540.316ZM538.1 14.5474C538.499 14.5474 538.872 14.4505 539.221 14.2568C539.575 14.0632 539.84 13.8031 540.018 13.4766V11.7832H538.93C538.183 11.7832 537.621 11.9132 537.245 12.1733C536.869 12.4334 536.681 12.8014 536.681 13.2773C536.681 13.6647 536.808 13.9746 537.062 14.207C537.323 14.4339 537.668 14.5474 538.1 14.5474ZM546.293 16H544.276V3.25H546.293V16ZM550.643 16H548.625V3.25H550.643V16Z" fill="#1E73FF"/>
</svg>
