<svg width="578" height="298" viewBox="0 0 578 298" fill="none" xmlns="http://www.w3.org/2000/svg">
<rect width="578" height="298" fill="#F7F7F7"/>
<path d="M37 291C37 292.105 36.1046 293 35 293L21 293C19.8954 293 19 292.105 19 291L19 281.814C19 281.283 19.2112 280.774 19.587 280.399L26.587 273.411C27.3678 272.631 28.6323 272.631 29.413 273.411L36.413 280.399C36.7888 280.774 37 281.283 37 281.814L37 291Z" fill="#DDDDDD"/>
<path d="M26.1133 285.947H23.0371V284.799H26.1133V285.947ZM27.5781 284.77L28.041 280.469H32.623V281.699H29.2246L28.9902 283.738C29.3848 283.512 29.8301 283.398 30.3262 283.398C31.1387 283.398 31.7695 283.658 32.2188 284.178C32.6719 284.697 32.8984 285.396 32.8984 286.275C32.8984 287.143 32.6484 287.834 32.1484 288.35C31.6484 288.861 30.9629 289.117 30.0918 289.117C29.3105 289.117 28.6621 288.896 28.1465 288.455C27.6348 288.01 27.3574 287.424 27.3145 286.697H28.6914C28.7461 287.111 28.8945 287.43 29.1367 287.652C29.3789 287.871 29.6953 287.98 30.0859 287.98C30.5234 287.98 30.8633 287.824 31.1055 287.512C31.3516 287.199 31.4746 286.773 31.4746 286.234C31.4746 285.715 31.3398 285.305 31.0703 285.004C30.8008 284.699 30.4297 284.547 29.957 284.547C29.6992 284.547 29.4805 284.582 29.3008 284.652C29.1211 284.719 28.9258 284.852 28.7148 285.051L27.5781 284.77Z" fill="white"/>
<path d="M166 291C166 292.105 165.105 293 164 293L150 293C148.895 293 148 292.105 148 291L148 281.814C148 281.283 148.211 280.774 148.587 280.399L155.587 273.411C156.368 272.631 157.632 272.631 158.413 273.411L165.413 280.399C165.789 280.774 166 281.283 166 281.814L166 291Z" fill="#DDDDDD"/>
<path d="M155.113 285.947H152.037V284.799H155.113V285.947ZM161.014 285.959H162.074V287.102H161.014V289H159.59V287.102H155.904L155.863 286.234L159.543 280.469H161.014V285.959ZM157.357 285.959H159.59V282.396L159.484 282.584L157.357 285.959Z" fill="white"/>
<path d="M298 291C298 292.105 297.105 293 296 293L282 293C280.895 293 280 292.105 280 291L280 281.814C280 281.283 280.211 280.774 280.587 280.399L287.587 273.411C288.368 272.631 289.632 272.631 290.413 273.411L297.413 280.399C297.789 280.774 298 281.283 298 281.814L298 291Z" fill="#DDDDDD"/>
<path d="M287.113 285.947H284.037V284.799H287.113V285.947ZM289.844 284.084H290.711C291.148 284.08 291.494 283.967 291.748 283.744C292.006 283.521 292.135 283.199 292.135 282.777C292.135 282.371 292.027 282.057 291.812 281.834C291.602 281.607 291.277 281.494 290.84 281.494C290.457 281.494 290.143 281.605 289.896 281.828C289.65 282.047 289.527 282.334 289.527 282.689H288.104C288.104 282.252 288.219 281.854 288.449 281.494C288.684 281.135 289.008 280.855 289.422 280.656C289.84 280.453 290.307 280.352 290.822 280.352C291.674 280.352 292.342 280.566 292.826 280.996C293.314 281.422 293.559 282.016 293.559 282.777C293.559 283.16 293.436 283.521 293.189 283.861C292.947 284.197 292.633 284.451 292.246 284.623C292.715 284.783 293.07 285.035 293.312 285.379C293.559 285.723 293.682 286.133 293.682 286.609C293.682 287.375 293.418 287.984 292.891 288.438C292.367 288.891 291.678 289.117 290.822 289.117C290.002 289.117 289.33 288.898 288.807 288.461C288.283 288.023 288.021 287.441 288.021 286.715H289.445C289.445 287.09 289.57 287.395 289.82 287.629C290.074 287.863 290.414 287.98 290.84 287.98C291.281 287.98 291.629 287.863 291.883 287.629C292.137 287.395 292.264 287.055 292.264 286.609C292.264 286.16 292.131 285.814 291.865 285.572C291.6 285.33 291.205 285.209 290.682 285.209H289.844V284.084Z" fill="white"/>
<path d="M430 291C430 292.105 429.105 293 428 293L414 293C412.895 293 412 292.105 412 291L412 281.814C412 281.283 412.211 280.774 412.587 280.399L419.587 273.411C420.368 272.631 421.632 272.631 422.413 273.411L429.413 280.399C429.789 280.774 430 281.283 430 281.814L430 291Z" fill="#DDDDDD"/>
<path d="M419.113 285.947H416.037V284.799H419.113V285.947ZM425.934 289H420.197V288.021L423.039 284.922C423.449 284.465 423.74 284.084 423.912 283.779C424.088 283.471 424.176 283.162 424.176 282.854C424.176 282.447 424.061 282.119 423.83 281.869C423.604 281.619 423.297 281.494 422.91 281.494C422.449 281.494 422.092 281.635 421.838 281.916C421.584 282.197 421.457 282.582 421.457 283.07H420.033C420.033 282.551 420.15 282.084 420.385 281.67C420.623 281.252 420.961 280.928 421.398 280.697C421.84 280.467 422.348 280.352 422.922 280.352C423.75 280.352 424.402 280.561 424.879 280.979C425.359 281.393 425.6 281.967 425.6 282.701C425.6 283.127 425.479 283.574 425.236 284.043C424.998 284.508 424.605 285.037 424.059 285.631L421.973 287.863H425.934V289Z" fill="white"/>
<path d="M559 291C559 292.105 558.105 293 557 293L543 293C541.895 293 541 292.105 541 291L541 281.814C541 281.283 541.211 280.774 541.587 280.399L548.587 273.411C549.368 272.631 550.632 272.631 551.413 273.411L558.413 280.399C558.789 280.774 559 281.283 559 281.814L559 291Z" fill="#DDDDDD"/>
<path d="M548.113 285.947H545.037V284.799H548.113V285.947ZM553.053 289H551.635V282.15L549.543 282.865V281.664L552.871 280.439H553.053V289Z" fill="white"/>
<path d="M19 7C19 5.89543 19.8954 5 21 5H35C36.1046 5 37 5.89543 37 7V16.1857C37 16.7167 36.7888 17.2259 36.413 17.6011L29.413 24.5894C28.6323 25.3688 27.3677 25.3688 26.587 24.5894L19.587 17.6011C19.2112 17.2259 19 16.7167 19 16.1857V7Z" fill="#CCCCCC"/>
<path d="M29.084 17H27.666V10.1504L25.5742 10.8652V9.66406L28.9023 8.43945H29.084V17Z" fill="white"/>
<path d="M148 7C148 5.89543 148.895 5 150 5H164C165.105 5 166 5.89543 166 7V16.1857C166 16.7167 165.789 17.2259 165.413 17.6011L158.413 24.5894C157.632 25.3688 156.368 25.3688 155.587 24.5894L148.587 17.6011C148.211 17.2259 148 16.7167 148 16.1857V7Z" fill="#CCCCCC"/>
<path d="M159.965 17H154.229V16.0215L157.07 12.9219C157.48 12.4648 157.771 12.084 157.943 11.7793C158.119 11.4707 158.207 11.1621 158.207 10.8535C158.207 10.4473 158.092 10.1191 157.861 9.86914C157.635 9.61914 157.328 9.49414 156.941 9.49414C156.48 9.49414 156.123 9.63477 155.869 9.91602C155.615 10.1973 155.488 10.582 155.488 11.0703H154.064C154.064 10.5508 154.182 10.084 154.416 9.66992C154.654 9.25195 154.992 8.92773 155.43 8.69727C155.871 8.4668 156.379 8.35156 156.953 8.35156C157.781 8.35156 158.434 8.56055 158.91 8.97852C159.391 9.39258 159.631 9.9668 159.631 10.7012C159.631 11.127 159.51 11.5742 159.268 12.043C159.029 12.5078 158.637 13.0371 158.09 13.6309L156.004 15.8633H159.965V17Z" fill="white"/>
<path d="M280 7C280 5.89543 280.895 5 282 5H296C297.105 5 298 5.89543 298 7V16.1857C298 16.7167 297.789 17.2259 297.413 17.6011L290.413 24.5894C289.632 25.3688 288.368 25.3688 287.587 24.5894L280.587 17.6011C280.211 17.2259 280 16.7167 280 16.1857V7Z" fill="#CCCCCC"/>
<path d="M287.875 12.084H288.742C289.18 12.0801 289.525 11.9668 289.779 11.7441C290.037 11.5215 290.166 11.1992 290.166 10.7773C290.166 10.3711 290.059 10.0566 289.844 9.83398C289.633 9.60742 289.309 9.49414 288.871 9.49414C288.488 9.49414 288.174 9.60547 287.928 9.82812C287.682 10.0469 287.559 10.334 287.559 10.6895H286.135C286.135 10.252 286.25 9.85352 286.48 9.49414C286.715 9.13477 287.039 8.85547 287.453 8.65625C287.871 8.45312 288.338 8.35156 288.854 8.35156C289.705 8.35156 290.373 8.56641 290.857 8.99609C291.346 9.42188 291.59 10.0156 291.59 10.7773C291.59 11.1602 291.467 11.5215 291.221 11.8613C290.979 12.1973 290.664 12.4512 290.277 12.623C290.746 12.7832 291.102 13.0352 291.344 13.3789C291.59 13.7227 291.713 14.1328 291.713 14.6094C291.713 15.375 291.449 15.9844 290.922 16.4375C290.398 16.8906 289.709 17.1172 288.854 17.1172C288.033 17.1172 287.361 16.8984 286.838 16.4609C286.314 16.0234 286.053 15.4414 286.053 14.7148H287.477C287.477 15.0898 287.602 15.3945 287.852 15.6289C288.105 15.8633 288.445 15.9805 288.871 15.9805C289.312 15.9805 289.66 15.8633 289.914 15.6289C290.168 15.3945 290.295 15.0547 290.295 14.6094C290.295 14.1602 290.162 13.8145 289.896 13.5723C289.631 13.3301 289.236 13.209 288.713 13.209H287.875V12.084Z" fill="white"/>
<path d="M412 7C412 5.89543 412.895 5 414 5H428C429.105 5 430 5.89543 430 7V16.1857C430 16.7167 429.789 17.2259 429.413 17.6011L422.413 24.5894C421.632 25.3688 420.368 25.3688 419.587 24.5894L412.587 17.6011C412.211 17.2259 412 16.7167 412 16.1857V7Z" fill="#CCCCCC"/>
<path d="M423.045 13.959H424.105V15.1016H423.045V17H421.621V15.1016H417.936L417.895 14.2344L421.574 8.46875H423.045V13.959ZM419.389 13.959H421.621V10.3965L421.516 10.584L419.389 13.959Z" fill="white"/>
<path d="M541 7C541 5.89543 541.895 5 543 5H557C558.105 5 559 5.89543 559 7V16.1857C559 16.7167 558.789 17.2259 558.413 17.6011L551.413 24.5894C550.632 25.3688 549.368 25.3688 548.587 24.5894L541.587 17.6011C541.211 17.2259 541 16.7167 541 16.1857V7Z" fill="#CCCCCC"/>
<path d="M547.609 12.7695L548.072 8.46875H552.654V9.69922H549.256L549.021 11.7383C549.416 11.5117 549.861 11.3984 550.357 11.3984C551.17 11.3984 551.801 11.6582 552.25 12.1777C552.703 12.6973 552.93 13.3965 552.93 14.2754C552.93 15.1426 552.68 15.834 552.18 16.3496C551.68 16.8613 550.994 17.1172 550.123 17.1172C549.342 17.1172 548.693 16.8965 548.178 16.4551C547.666 16.0098 547.389 15.4238 547.346 14.6973H548.723C548.777 15.1113 548.926 15.4297 549.168 15.6523C549.41 15.8711 549.727 15.9805 550.117 15.9805C550.555 15.9805 550.895 15.8242 551.137 15.5117C551.383 15.1992 551.506 14.7734 551.506 14.2344C551.506 13.7148 551.371 13.3047 551.102 13.0039C550.832 12.6992 550.461 12.5469 549.988 12.5469C549.73 12.5469 549.512 12.582 549.332 12.6523C549.152 12.7188 548.957 12.8516 548.746 13.0508L547.609 12.7695Z" fill="white"/>
<path d="M7 37C5.89543 37 5 36.1046 5 35L5 21C5 19.8954 5.89543 19 7 19L16.1857 19C16.7167 19 17.2259 19.2112 17.6011 19.587L24.5894 26.587C25.3688 27.3677 25.3688 28.6323 24.5894 29.413L17.6011 36.413C17.2259 36.7888 16.7167 37 16.1857 37L7 37Z" fill="#CCCCCC"/>
<path d="M14.084 32H12.666V25.1504L10.5742 25.8652V24.6641L13.9023 23.4395H14.084V32Z" fill="white"/>
<path d="M7 96C5.89543 96 5 95.1046 5 94L5 80C5 78.8954 5.89543 78 7 78L16.1857 78C16.7167 78 17.2259 78.2112 17.6011 78.587L24.5894 85.587C25.3688 86.3677 25.3688 87.6323 24.5894 88.413L17.6011 95.413C17.2259 95.7888 16.7167 96 16.1857 96L7 96Z" fill="#CCCCCC"/>
<path d="M15.9648 91H10.2285V90.0215L13.0703 86.9219C13.4805 86.4648 13.7715 86.084 13.9434 85.7793C14.1191 85.4707 14.207 85.1621 14.207 84.8535C14.207 84.4473 14.0918 84.1191 13.8613 83.8691C13.6348 83.6191 13.3281 83.4941 12.9414 83.4941C12.4805 83.4941 12.123 83.6348 11.8691 83.916C11.6152 84.1973 11.4883 84.582 11.4883 85.0703H10.0645C10.0645 84.5508 10.1816 84.084 10.416 83.6699C10.6543 83.252 10.9922 82.9277 11.4297 82.6973C11.8711 82.4668 12.3789 82.3516 12.9531 82.3516C13.7812 82.3516 14.4336 82.5605 14.9102 82.9785C15.3906 83.3926 15.6309 83.9668 15.6309 84.7012C15.6309 85.127 15.5098 85.5742 15.2676 86.043C15.0293 86.5078 14.6367 87.0371 14.0898 87.6309L12.0039 89.8633H15.9648V91Z" fill="white"/>
<path d="M7 220C5.89543 220 5 219.105 5 218L5 204C5 202.895 5.89543 202 7 202L16.1857 202C16.7167 202 17.2259 202.211 17.6011 202.587L24.5894 209.587C25.3688 210.368 25.3688 211.632 24.5894 212.413L17.6011 219.413C17.2259 219.789 16.7167 220 16.1857 220L7 220Z" fill="#CCCCCC"/>
<path d="M11.875 210.084H12.7422C13.1797 210.08 13.5254 209.967 13.7793 209.744C14.0371 209.521 14.166 209.199 14.166 208.777C14.166 208.371 14.0586 208.057 13.8438 207.834C13.6328 207.607 13.3086 207.494 12.8711 207.494C12.4883 207.494 12.1738 207.605 11.9277 207.828C11.6816 208.047 11.5586 208.334 11.5586 208.689H10.1348C10.1348 208.252 10.25 207.854 10.4805 207.494C10.7148 207.135 11.0391 206.855 11.4531 206.656C11.8711 206.453 12.3379 206.352 12.8535 206.352C13.7051 206.352 14.373 206.566 14.8574 206.996C15.3457 207.422 15.5898 208.016 15.5898 208.777C15.5898 209.16 15.4668 209.521 15.2207 209.861C14.9785 210.197 14.6641 210.451 14.2773 210.623C14.7461 210.783 15.1016 211.035 15.3438 211.379C15.5898 211.723 15.7129 212.133 15.7129 212.609C15.7129 213.375 15.4492 213.984 14.9219 214.438C14.3984 214.891 13.709 215.117 12.8535 215.117C12.0332 215.117 11.3613 214.898 10.8379 214.461C10.3145 214.023 10.0527 213.441 10.0527 212.715H11.4766C11.4766 213.09 11.6016 213.395 11.8516 213.629C12.1055 213.863 12.4453 213.98 12.8711 213.98C13.3125 213.98 13.6602 213.863 13.9141 213.629C14.168 213.395 14.2949 213.055 14.2949 212.609C14.2949 212.16 14.1621 211.814 13.8965 211.572C13.6309 211.33 13.2363 211.209 12.7129 211.209H11.875V210.084Z" fill="white"/>
<path d="M7 279C5.89543 279 5 278.105 5 277L5 263C5 261.895 5.89543 261 7 261L16.1857 261C16.7167 261 17.2259 261.211 17.6011 261.587L24.5894 268.587C25.3688 269.368 25.3688 270.632 24.5894 271.413L17.6011 278.413C17.2259 278.789 16.7167 279 16.1857 279L7 279Z" fill="#CCCCCC"/>
<path d="M15.0449 270.959H16.1055V272.102H15.0449V274H13.6211V272.102H9.93555L9.89453 271.234L13.5742 265.469H15.0449V270.959ZM11.3887 270.959H13.6211V267.396L13.5156 267.584L11.3887 270.959Z" fill="white"/>
<path d="M571 19C572.105 19 573 19.8954 573 21L573 35C573 36.1046 572.105 37 571 37L561.814 37C561.283 37 560.774 36.7888 560.399 36.413L553.411 29.413C552.631 28.6322 552.631 27.3677 553.411 26.587L560.399 19.587C560.774 19.2112 561.283 19 561.814 19L571 19Z" fill="#DDDDDD"/>
<path d="M563.113 28.9473H560.037V27.7988H563.113V28.9473ZM569.014 28.959H570.074V30.1016H569.014V32H567.59V30.1016H563.904L563.863 29.2344L567.543 23.4688H569.014V28.959ZM565.357 28.959H567.59V25.3965L567.484 25.584L565.357 28.959Z" fill="white"/>
<path d="M571 78C572.105 78 573 78.8954 573 80L573 94C573 95.1046 572.105 96 571 96L561.814 96C561.283 96 560.774 95.7888 560.399 95.413L553.411 88.413C552.631 87.6322 552.631 86.3677 553.411 85.587L560.399 78.587C560.774 78.2112 561.283 78 561.814 78L571 78Z" fill="#DDDDDD"/>
<path d="M563.113 87.9473H560.037V86.7988H563.113V87.9473ZM565.844 86.084H566.711C567.148 86.0801 567.494 85.9668 567.748 85.7441C568.006 85.5215 568.135 85.1992 568.135 84.7773C568.135 84.3711 568.027 84.0566 567.812 83.834C567.602 83.6074 567.277 83.4941 566.84 83.4941C566.457 83.4941 566.143 83.6055 565.896 83.8281C565.65 84.0469 565.527 84.334 565.527 84.6895H564.104C564.104 84.252 564.219 83.8535 564.449 83.4941C564.684 83.1348 565.008 82.8555 565.422 82.6562C565.84 82.4531 566.307 82.3516 566.822 82.3516C567.674 82.3516 568.342 82.5664 568.826 82.9961C569.314 83.4219 569.559 84.0156 569.559 84.7773C569.559 85.1602 569.436 85.5215 569.189 85.8613C568.947 86.1973 568.633 86.4512 568.246 86.623C568.715 86.7832 569.07 87.0352 569.312 87.3789C569.559 87.7227 569.682 88.1328 569.682 88.6094C569.682 89.375 569.418 89.9844 568.891 90.4375C568.367 90.8906 567.678 91.1172 566.822 91.1172C566.002 91.1172 565.33 90.8984 564.807 90.4609C564.283 90.0234 564.021 89.4414 564.021 88.7148H565.445C565.445 89.0898 565.57 89.3945 565.82 89.6289C566.074 89.8633 566.414 89.9805 566.84 89.9805C567.281 89.9805 567.629 89.8633 567.883 89.6289C568.137 89.3945 568.264 89.0547 568.264 88.6094C568.264 88.1602 568.131 87.8145 567.865 87.5723C567.6 87.3301 567.205 87.209 566.682 87.209H565.844V86.084Z" fill="white"/>
<path d="M571 202C572.105 202 573 202.895 573 204L573 218C573 219.105 572.105 220 571 220L561.814 220C561.283 220 560.774 219.789 560.399 219.413L553.411 212.413C552.631 211.632 552.631 210.368 553.411 209.587L560.399 202.587C560.774 202.211 561.283 202 561.814 202L571 202Z" fill="#DDDDDD"/>
<path d="M563.113 211.947H560.037V210.799H563.113V211.947ZM569.934 215H564.197V214.021L567.039 210.922C567.449 210.465 567.74 210.084 567.912 209.779C568.088 209.471 568.176 209.162 568.176 208.854C568.176 208.447 568.061 208.119 567.83 207.869C567.604 207.619 567.297 207.494 566.91 207.494C566.449 207.494 566.092 207.635 565.838 207.916C565.584 208.197 565.457 208.582 565.457 209.07H564.033C564.033 208.551 564.15 208.084 564.385 207.67C564.623 207.252 564.961 206.928 565.398 206.697C565.84 206.467 566.348 206.352 566.922 206.352C567.75 206.352 568.402 206.561 568.879 206.979C569.359 207.393 569.6 207.967 569.6 208.701C569.6 209.127 569.479 209.574 569.236 210.043C568.998 210.508 568.605 211.037 568.059 211.631L565.973 213.863H569.934V215Z" fill="white"/>
<path d="M571 261C572.105 261 573 261.895 573 263L573 277C573 278.105 572.105 279 571 279L561.814 279C561.283 279 560.774 278.789 560.399 278.413L553.411 271.413C552.631 270.632 552.631 269.368 553.411 268.587L560.399 261.587C560.774 261.211 561.283 261 561.814 261L571 261Z" fill="#DDDDDD"/>
<path d="M563.113 270.947H560.037V269.799H563.113V270.947ZM568.053 274H566.635V267.15L564.543 267.865V266.664L567.871 265.439H568.053V274Z" fill="white"/>
<rect x="28" y="28" width="522" height="242" fill="white"/>
<path d="M153.5 29L153.5 269" stroke="#BBBBBB" stroke-dasharray="3 2"/>
<path d="M160.5 29L160.5 269" stroke="#BBBBBB" stroke-dasharray="3 2"/>
<path d="M285.5 29L285.5 269" stroke="#BBBBBB" stroke-dasharray="3 2"/>
<path d="M292.5 29L292.5 269" stroke="#BBBBBB" stroke-dasharray="3 2"/>
<path d="M417.5 29L417.5 269" stroke="#BBBBBB" stroke-dasharray="3 2"/>
<path d="M424.5 29L424.5 269" stroke="#BBBBBB" stroke-dasharray="3 2"/>
<path d="M29 90.5L549 90.5" stroke="#BBBBBB" stroke-dasharray="3 2"/>
<path d="M29 83.5L549 83.5" stroke="#BBBBBB" stroke-dasharray="3 2"/>
<path d="M29 214.5L549 214.5" stroke="#BBBBBB" stroke-dasharray="3 2"/>
<path d="M29 207.5L549 207.5" stroke="#BBBBBB" stroke-dasharray="3 2"/>
<g opacity="0.75">
<path d="M31 36C31 33.2386 33.2386 31 36 31H542C544.761 31 547 33.2386 547 36V76C547 78.7614 544.761 81 542 81H36C33.2386 81 31 78.7614 31 76V36Z" fill="#00986B"/>
<path d="M272.214 53.6061C272.795 52.9323 273.53 52.5953 274.419 52.5953C276.108 52.5953 276.965 53.5597 276.99 55.4884V60.6666H275.21V55.5543C275.21 55.0074 275.09 54.6217 274.851 54.3971C274.617 54.1676 274.27 54.0529 273.811 54.0529C273.098 54.0529 272.566 54.3702 272.214 55.005V60.6666H270.435V49.4166H272.214V53.6061ZM282.285 60.8131C281.157 60.8131 280.242 60.4591 279.539 59.7511C278.84 59.0382 278.491 58.0909 278.491 56.9093V56.6896C278.491 55.8986 278.643 55.193 278.945 54.5729C279.253 53.9479 279.683 53.462 280.234 53.1154C280.786 52.7687 281.401 52.5953 282.08 52.5953C283.159 52.5953 283.992 52.9396 284.578 53.6281C285.168 54.3165 285.464 55.2906 285.464 56.5504V57.2682H280.286C280.339 57.9225 280.557 58.4401 280.938 58.8209C281.323 59.2018 281.807 59.3922 282.388 59.3922C283.203 59.3922 283.867 59.0626 284.38 58.4034L285.339 59.319C285.022 59.7926 284.597 60.1613 284.065 60.4249C283.538 60.6837 282.944 60.8131 282.285 60.8131ZM282.073 54.0236C281.584 54.0236 281.189 54.1945 280.886 54.5363C280.588 54.8781 280.398 55.3541 280.315 55.9645H283.706V55.8326C283.667 55.2369 283.508 54.7877 283.23 54.485C282.952 54.1774 282.566 54.0236 282.073 54.0236ZM291.587 60.6666C291.509 60.5153 291.44 60.2687 291.382 59.9269C290.815 60.5177 290.122 60.8131 289.302 60.8131C288.506 60.8131 287.856 60.5861 287.354 60.132C286.851 59.6779 286.599 59.1163 286.599 58.4474C286.599 57.6027 286.912 56.9557 287.537 56.5065C288.167 56.0524 289.065 55.8253 290.232 55.8253H291.323V55.3053C291.323 54.8951 291.208 54.568 290.979 54.3239C290.75 54.0748 290.4 53.9503 289.932 53.9503C289.526 53.9503 289.194 54.0529 288.936 54.2579C288.677 54.4581 288.547 54.7145 288.547 55.027H286.768C286.768 54.5924 286.912 54.1871 287.2 53.8112C287.488 53.4303 287.878 53.1324 288.372 52.9176C288.87 52.7028 289.424 52.5953 290.034 52.5953C290.962 52.5953 291.702 52.8297 292.253 53.2985C292.805 53.7623 293.088 54.4166 293.103 55.2614V58.8356C293.103 59.5485 293.203 60.1173 293.403 60.5421V60.6666H291.587ZM289.631 59.3849C289.983 59.3849 290.312 59.2994 290.62 59.1285C290.933 58.9576 291.167 58.7281 291.323 58.4401V56.9459H290.364C289.705 56.9459 289.209 57.0607 288.877 57.2902C288.545 57.5197 288.379 57.8444 288.379 58.2643C288.379 58.6061 288.491 58.8795 288.716 59.0846C288.945 59.2848 289.25 59.3849 289.631 59.3849ZM294.634 56.6456C294.634 55.4249 294.917 54.4459 295.483 53.7086C296.05 52.9664 296.809 52.5953 297.761 52.5953C298.601 52.5953 299.28 52.8883 299.797 53.4742V49.4166H301.577V60.6666H299.966L299.878 59.8463C299.346 60.4908 298.635 60.8131 297.747 60.8131C296.819 60.8131 296.067 60.4396 295.491 59.6925C294.919 58.9454 294.634 57.9298 294.634 56.6456ZM296.414 56.7994C296.414 57.6051 296.567 58.235 296.875 58.6891C297.188 59.1383 297.629 59.3629 298.201 59.3629C298.928 59.3629 299.46 59.0382 299.797 58.3888V55.005C299.47 54.3702 298.943 54.0529 298.215 54.0529C297.639 54.0529 297.195 54.2823 296.882 54.7413C296.57 55.1954 296.414 55.8815 296.414 56.7994ZM306.924 60.8131C305.796 60.8131 304.88 60.4591 304.177 59.7511C303.479 59.0382 303.13 58.0909 303.13 56.9093V56.6896C303.13 55.8986 303.281 55.193 303.584 54.5729C303.892 53.9479 304.321 53.462 304.873 53.1154C305.425 52.7687 306.04 52.5953 306.719 52.5953C307.798 52.5953 308.63 52.9396 309.216 53.6281C309.807 54.3165 310.103 55.2906 310.103 56.5504V57.2682H304.924C304.978 57.9225 305.195 58.4401 305.576 58.8209C305.962 59.2018 306.445 59.3922 307.026 59.3922C307.842 59.3922 308.506 59.0626 309.019 58.4034L309.978 59.319C309.661 59.7926 309.236 60.1613 308.704 60.4249C308.176 60.6837 307.583 60.8131 306.924 60.8131ZM306.711 54.0236C306.223 54.0236 305.828 54.1945 305.525 54.5363C305.227 54.8781 305.037 55.3541 304.954 55.9645H308.345V55.8326C308.306 55.2369 308.147 54.7877 307.869 54.485C307.59 54.1774 307.205 54.0236 306.711 54.0236ZM315.64 54.3678C315.405 54.3287 315.164 54.3092 314.915 54.3092C314.099 54.3092 313.55 54.6217 313.267 55.2467V60.6666H311.487V52.7418H313.186L313.23 53.6281C313.66 52.9396 314.255 52.5953 315.017 52.5953C315.271 52.5953 315.481 52.6295 315.647 52.6979L315.64 54.3678Z" fill="white"/>
</g>
<g opacity="0.75">
<path d="M31 98C31 95.2386 33.2386 93 36 93H278C280.761 93 283 95.2386 283 98V200C283 202.761 280.761 205 278 205H36C33.2386 205 31 202.761 31 200V98Z" fill="#1E73FF"/>
<path d="M144.309 145.169L144.36 145.996C144.917 145.347 145.678 145.022 146.645 145.022C147.705 145.022 148.43 145.427 148.82 146.238C149.396 145.427 150.207 145.022 151.252 145.022C152.126 145.022 152.775 145.264 153.2 145.747C153.63 146.231 153.85 146.943 153.859 147.886V153.093H152.08V147.937C152.08 147.434 151.97 147.066 151.75 146.831C151.53 146.597 151.167 146.48 150.659 146.48C150.253 146.48 149.921 146.589 149.663 146.809C149.409 147.024 149.23 147.307 149.128 147.659L149.135 153.093H147.355V147.879C147.331 146.946 146.855 146.48 145.927 146.48C145.214 146.48 144.709 146.77 144.411 147.351V153.093H142.631V145.169H144.309ZM160.422 153.093C160.344 152.942 160.275 152.695 160.217 152.354C159.65 152.944 158.957 153.24 158.137 153.24C157.341 153.24 156.691 153.013 156.188 152.559C155.686 152.105 155.434 151.543 155.434 150.874C155.434 150.029 155.747 149.382 156.372 148.933C157.001 148.479 157.9 148.252 159.067 148.252H160.158V147.732C160.158 147.322 160.043 146.995 159.814 146.751C159.584 146.502 159.235 146.377 158.767 146.377C158.361 146.377 158.029 146.48 157.771 146.685C157.512 146.885 157.382 147.141 157.382 147.454H155.603C155.603 147.019 155.747 146.614 156.035 146.238C156.323 145.857 156.713 145.559 157.207 145.344C157.705 145.13 158.259 145.022 158.869 145.022C159.797 145.022 160.537 145.256 161.088 145.725C161.64 146.189 161.923 146.843 161.938 147.688V151.262C161.938 151.975 162.038 152.544 162.238 152.969V153.093H160.422ZM158.466 151.812C158.818 151.812 159.147 151.726 159.455 151.555C159.768 151.384 160.002 151.155 160.158 150.867V149.373H159.199C158.54 149.373 158.044 149.487 157.712 149.717C157.38 149.946 157.214 150.271 157.214 150.691C157.214 151.033 157.326 151.306 157.551 151.511C157.78 151.712 158.085 151.812 158.466 151.812ZM165.695 153.093H163.916V145.169H165.695V153.093ZM163.806 143.11C163.806 142.837 163.891 142.61 164.062 142.429C164.238 142.249 164.487 142.158 164.809 142.158C165.131 142.158 165.38 142.249 165.556 142.429C165.732 142.61 165.82 142.837 165.82 143.11C165.82 143.379 165.732 143.604 165.556 143.784C165.38 143.96 165.131 144.048 164.809 144.048C164.487 144.048 164.238 143.96 164.062 143.784C163.891 143.604 163.806 143.379 163.806 143.11ZM169.292 145.169L169.343 146.084C169.929 145.376 170.698 145.022 171.65 145.022C173.3 145.022 174.14 145.967 174.169 147.857V153.093H172.39V147.959C172.39 147.456 172.28 147.085 172.06 146.846C171.845 146.602 171.491 146.48 170.998 146.48C170.28 146.48 169.746 146.804 169.394 147.454V153.093H167.614V145.169H169.292Z" fill="white"/>
</g>
<g opacity="0.75">
<path d="M427 98C427 95.2386 429.239 93 432 93H542C544.761 93 547 95.2386 547 98V200C547 202.761 544.761 205 542 205H432C429.239 205 427 202.761 427 200V98Z" fill="#B72DF8"/>
<path d="M467.378 150.94C467.378 150.623 467.247 150.381 466.983 150.215C466.724 150.049 466.292 149.902 465.687 149.776C465.081 149.649 464.576 149.487 464.17 149.292C463.282 148.862 462.837 148.24 462.837 147.424C462.837 146.741 463.125 146.17 463.702 145.711C464.278 145.252 465.01 145.022 465.899 145.022C466.846 145.022 467.61 145.256 468.191 145.725C468.777 146.194 469.07 146.802 469.07 147.549H467.291C467.291 147.207 467.164 146.924 466.91 146.699C466.656 146.47 466.319 146.355 465.899 146.355C465.508 146.355 465.188 146.445 464.939 146.626C464.695 146.807 464.573 147.048 464.573 147.351C464.573 147.625 464.688 147.837 464.917 147.988C465.147 148.14 465.611 148.294 466.309 148.45C467.007 148.601 467.554 148.784 467.95 148.999C468.35 149.209 468.646 149.463 468.836 149.761C469.031 150.059 469.129 150.42 469.129 150.845C469.129 151.558 468.833 152.136 468.243 152.581C467.652 153.02 466.878 153.24 465.921 153.24C465.271 153.24 464.693 153.123 464.185 152.888C463.677 152.654 463.282 152.332 462.999 151.922C462.715 151.511 462.574 151.069 462.574 150.596H464.302C464.327 151.016 464.485 151.34 464.778 151.57C465.071 151.795 465.459 151.907 465.943 151.907C466.412 151.907 466.768 151.819 467.012 151.643C467.256 151.463 467.378 151.228 467.378 150.94ZM472.579 153.093H470.799V145.169H472.579V153.093ZM470.689 143.11C470.689 142.837 470.774 142.61 470.945 142.429C471.121 142.249 471.37 142.158 471.692 142.158C472.015 142.158 472.264 142.249 472.439 142.429C472.615 142.61 472.703 142.837 472.703 143.11C472.703 143.379 472.615 143.604 472.439 143.784C472.264 143.96 472.015 144.048 471.692 144.048C471.37 144.048 471.121 143.96 470.945 143.784C470.774 143.604 470.689 143.379 470.689 143.11ZM474.19 149.072C474.19 147.852 474.473 146.873 475.04 146.135C475.606 145.393 476.365 145.022 477.317 145.022C478.157 145.022 478.836 145.315 479.354 145.901V141.843H481.133V153.093H479.522L479.434 152.273C478.902 152.918 478.191 153.24 477.303 153.24C476.375 153.24 475.623 152.866 475.047 152.119C474.476 151.372 474.19 150.357 474.19 149.072ZM475.97 149.226C475.97 150.032 476.124 150.662 476.431 151.116C476.744 151.565 477.186 151.79 477.757 151.79C478.484 151.79 479.017 151.465 479.354 150.816V147.432C479.026 146.797 478.499 146.48 477.771 146.48C477.195 146.48 476.751 146.709 476.438 147.168C476.126 147.622 475.97 148.308 475.97 149.226ZM486.48 153.24C485.352 153.24 484.437 152.886 483.733 152.178C483.035 151.465 482.686 150.518 482.686 149.336V149.116C482.686 148.325 482.837 147.62 483.14 147C483.448 146.375 483.877 145.889 484.429 145.542C484.981 145.195 485.596 145.022 486.275 145.022C487.354 145.022 488.187 145.366 488.772 146.055C489.363 146.743 489.659 147.717 489.659 148.977V149.695H484.48C484.534 150.349 484.751 150.867 485.132 151.248C485.518 151.629 486.001 151.819 486.583 151.819C487.398 151.819 488.062 151.489 488.575 150.83L489.534 151.746C489.217 152.219 488.792 152.588 488.26 152.852C487.732 153.11 487.139 153.24 486.48 153.24ZM486.268 146.45C485.779 146.45 485.384 146.621 485.081 146.963C484.783 147.305 484.593 147.781 484.51 148.391H487.901V148.259C487.862 147.664 487.703 147.214 487.425 146.912C487.146 146.604 486.761 146.45 486.268 146.45ZM498.001 149.212C498.001 150.442 497.725 151.421 497.173 152.149C496.626 152.876 495.872 153.24 494.91 153.24C493.982 153.24 493.26 152.905 492.742 152.236L492.654 153.093H491.043V141.843H492.823V145.93C493.335 145.325 494.026 145.022 494.896 145.022C495.862 145.022 496.622 145.381 497.173 146.099C497.725 146.817 498.001 147.82 498.001 149.109V149.212ZM496.221 149.058C496.221 148.198 496.07 147.554 495.767 147.124C495.464 146.694 495.025 146.48 494.449 146.48C493.677 146.48 493.135 146.817 492.823 147.49V150.757C493.14 151.445 493.687 151.79 494.463 151.79C495.02 151.79 495.45 151.582 495.752 151.167C496.055 150.752 496.211 150.125 496.221 149.285V149.058ZM504.234 153.093C504.156 152.942 504.087 152.695 504.029 152.354C503.462 152.944 502.769 153.24 501.949 153.24C501.153 153.24 500.503 153.013 500 152.559C499.498 152.105 499.246 151.543 499.246 150.874C499.246 150.029 499.559 149.382 500.184 148.933C500.813 148.479 501.712 148.252 502.879 148.252H503.97V147.732C503.97 147.322 503.855 146.995 503.626 146.751C503.396 146.502 503.047 146.377 502.579 146.377C502.173 146.377 501.841 146.48 501.583 146.685C501.324 146.885 501.194 147.141 501.194 147.454H499.415C499.415 147.019 499.559 146.614 499.847 146.238C500.135 145.857 500.525 145.559 501.019 145.344C501.517 145.13 502.071 145.022 502.681 145.022C503.609 145.022 504.349 145.256 504.9 145.725C505.452 146.189 505.735 146.843 505.75 147.688V151.262C505.75 151.975 505.85 152.544 506.05 152.969V153.093H504.234ZM502.278 151.812C502.63 151.812 502.959 151.726 503.267 151.555C503.58 151.384 503.814 151.155 503.97 150.867V149.373H503.011C502.352 149.373 501.856 149.487 501.524 149.717C501.192 149.946 501.026 150.271 501.026 150.691C501.026 151.033 501.138 151.306 501.363 151.511C501.592 151.712 501.897 151.812 502.278 151.812ZM511.763 146.795C511.529 146.755 511.287 146.736 511.038 146.736C510.223 146.736 509.673 147.048 509.39 147.673V153.093H507.61V145.169H509.31L509.354 146.055C509.783 145.366 510.379 145.022 511.141 145.022C511.395 145.022 511.604 145.056 511.771 145.125L511.763 146.795Z" fill="white"/>
</g>
<g opacity="0.75">
<path d="M31 222C31 219.239 33.2386 217 36 217H542C544.761 217 547 219.239 547 222V262C547 264.761 544.761 267 542 267H36C33.2386 267 31 264.761 31 262V222Z" fill="#001EBB"/>
<path d="M273.877 246.667V240.06H272.668V238.742H273.877V238.017C273.877 237.138 274.121 236.459 274.609 235.981C275.098 235.502 275.781 235.263 276.66 235.263C276.973 235.263 277.305 235.307 277.656 235.395L277.612 236.786C277.417 236.747 277.19 236.728 276.931 236.728C276.082 236.728 275.657 237.165 275.657 238.039V238.742H277.268V240.06H275.657V246.667H273.877ZM278.235 242.631C278.235 241.855 278.389 241.156 278.696 240.536C279.004 239.911 279.436 239.433 279.993 239.101C280.549 238.764 281.189 238.595 281.912 238.595C282.981 238.595 283.848 238.94 284.512 239.628C285.181 240.317 285.542 241.23 285.596 242.367L285.603 242.785C285.603 243.566 285.452 244.264 285.149 244.88C284.851 245.495 284.421 245.971 283.86 246.308C283.303 246.645 282.659 246.813 281.926 246.813C280.808 246.813 279.912 246.442 279.238 245.7C278.569 244.953 278.235 243.959 278.235 242.719V242.631ZM280.015 242.785C280.015 243.6 280.183 244.24 280.52 244.704C280.857 245.163 281.326 245.392 281.926 245.392C282.527 245.392 282.993 245.158 283.325 244.689C283.662 244.22 283.831 243.534 283.831 242.631C283.831 241.83 283.657 241.195 283.311 240.727C282.969 240.258 282.502 240.024 281.912 240.024C281.331 240.024 280.869 240.255 280.527 240.719C280.186 241.178 280.015 241.867 280.015 242.785ZM286.775 242.631C286.775 241.855 286.929 241.156 287.236 240.536C287.544 239.911 287.976 239.433 288.533 239.101C289.089 238.764 289.729 238.595 290.452 238.595C291.521 238.595 292.388 238.94 293.052 239.628C293.721 240.317 294.082 241.23 294.136 242.367L294.143 242.785C294.143 243.566 293.992 244.264 293.689 244.88C293.391 245.495 292.961 245.971 292.4 246.308C291.843 246.645 291.199 246.813 290.466 246.813C289.348 246.813 288.452 246.442 287.778 245.7C287.109 244.953 286.775 243.959 286.775 242.719V242.631ZM288.555 242.785C288.555 243.6 288.723 244.24 289.06 244.704C289.397 245.163 289.866 245.392 290.466 245.392C291.067 245.392 291.533 245.158 291.865 244.689C292.202 244.22 292.371 243.534 292.371 242.631C292.371 241.83 292.197 241.195 291.851 240.727C291.509 240.258 291.042 240.024 290.452 240.024C289.871 240.024 289.409 240.255 289.067 240.719C288.726 241.178 288.555 241.867 288.555 242.785ZM297.878 236.816V238.742H299.277V240.06H297.878V244.484C297.878 244.787 297.937 245.006 298.054 245.143C298.176 245.275 298.391 245.341 298.699 245.341C298.904 245.341 299.111 245.317 299.321 245.268V246.645C298.916 246.757 298.525 246.813 298.149 246.813C296.782 246.813 296.099 246.059 296.099 244.55V240.06H294.795V238.742H296.099V236.816H297.878ZM304.133 246.813C303.005 246.813 302.09 246.459 301.387 245.751C300.688 245.038 300.339 244.091 300.339 242.909V242.69C300.339 241.899 300.491 241.193 300.793 240.573C301.101 239.948 301.531 239.462 302.083 239.115C302.634 238.769 303.25 238.595 303.928 238.595C305.007 238.595 305.84 238.94 306.426 239.628C307.017 240.317 307.312 241.291 307.312 242.55V243.268H302.134C302.188 243.922 302.405 244.44 302.786 244.821C303.171 245.202 303.655 245.392 304.236 245.392C305.051 245.392 305.715 245.063 306.228 244.403L307.188 245.319C306.87 245.793 306.445 246.161 305.913 246.425C305.386 246.684 304.792 246.813 304.133 246.813ZM303.921 240.024C303.433 240.024 303.037 240.194 302.734 240.536C302.437 240.878 302.246 241.354 302.163 241.964H305.554V241.833C305.515 241.237 305.356 240.788 305.078 240.485C304.8 240.177 304.414 240.024 303.921 240.024ZM312.849 240.368C312.615 240.329 312.373 240.309 312.124 240.309C311.309 240.309 310.759 240.622 310.476 241.247V246.667H308.696V238.742H310.396L310.439 239.628C310.869 238.94 311.465 238.595 312.227 238.595C312.48 238.595 312.69 238.63 312.856 238.698L312.849 240.368Z" fill="white"/>
</g>
<path d="M338.469 153.146C337.341 153.146 336.426 152.792 335.723 152.084C335.024 151.372 334.675 150.424 334.675 149.243V149.023C334.675 148.232 334.827 147.526 335.129 146.906C335.437 146.281 335.867 145.795 336.418 145.449C336.97 145.102 337.585 144.929 338.264 144.929C339.343 144.929 340.176 145.273 340.762 145.961C341.353 146.65 341.648 147.624 341.648 148.884V149.602H336.47C336.523 150.256 336.741 150.773 337.122 151.154C337.507 151.535 337.991 151.726 338.572 151.726C339.387 151.726 340.051 151.396 340.564 150.737L341.523 151.652C341.206 152.126 340.781 152.495 340.249 152.758C339.722 153.017 339.128 153.146 338.469 153.146ZM338.257 146.357C337.769 146.357 337.373 146.528 337.07 146.87C336.772 147.211 336.582 147.688 336.499 148.298H339.89V148.166C339.851 147.57 339.692 147.121 339.414 146.818C339.136 146.511 338.75 146.357 338.257 146.357ZM344.709 145.075L344.761 145.903C345.317 145.253 346.079 144.929 347.046 144.929C348.105 144.929 348.831 145.334 349.221 146.145C349.797 145.334 350.608 144.929 351.653 144.929C352.527 144.929 353.176 145.17 353.601 145.654C354.031 146.137 354.25 146.85 354.26 147.792V153H352.48V147.844C352.48 147.341 352.371 146.972 352.151 146.738C351.931 146.503 351.567 146.386 351.06 146.386C350.654 146.386 350.322 146.496 350.063 146.716C349.81 146.931 349.631 147.214 349.529 147.565L349.536 153H347.756V147.785C347.732 146.853 347.256 146.386 346.328 146.386C345.615 146.386 345.11 146.677 344.812 147.258V153H343.032V145.075H344.709ZM363.027 149.118C363.027 150.344 362.749 151.323 362.192 152.055C361.636 152.783 360.889 153.146 359.951 153.146C359.082 153.146 358.386 152.861 357.864 152.29V156.047H356.084V145.075H357.725L357.798 145.881C358.32 145.246 359.031 144.929 359.929 144.929C360.896 144.929 361.653 145.29 362.2 146.013C362.751 146.73 363.027 147.729 363.027 149.008V149.118ZM361.255 148.964C361.255 148.173 361.096 147.546 360.779 147.082C360.466 146.618 360.017 146.386 359.431 146.386C358.704 146.386 358.181 146.687 357.864 147.287V150.803C358.186 151.418 358.713 151.726 359.446 151.726C360.012 151.726 360.454 151.499 360.771 151.044C361.094 150.585 361.255 149.892 361.255 148.964ZM366.77 143.149V145.075H368.169V146.394H366.77V150.817C366.77 151.12 366.829 151.34 366.946 151.477C367.068 151.608 367.283 151.674 367.59 151.674C367.795 151.674 368.003 151.65 368.213 151.601V152.978C367.808 153.09 367.417 153.146 367.041 153.146C365.674 153.146 364.99 152.392 364.99 150.883V146.394H363.687V145.075H364.99V143.149H366.77ZM372.307 150.451L373.918 145.075H375.815L372.666 154.201C372.183 155.534 371.362 156.201 370.205 156.201C369.946 156.201 369.661 156.157 369.348 156.069V154.692L369.685 154.714C370.134 154.714 370.471 154.631 370.696 154.465C370.925 154.304 371.106 154.03 371.238 153.645L371.494 152.963L368.711 145.075H370.63L372.307 150.451Z" fill="#888888"/>
<rect x="28" y="28" width="522" height="242" stroke="#AAAAAA" stroke-width="2"/>
</svg>
