<svg width="600" height="280" viewBox="0 0 600 280" fill="none" xmlns="http://www.w3.org/2000/svg">
<rect x="1" y="36" width="598" height="88" fill="white" stroke="#DDDDDD" stroke-width="2"/>
<rect x="20" y="55" width="80" height="50" rx="5" fill="#1E73FF"/>
<rect x="110" y="55" width="80" height="50" rx="5" fill="#1E73FF"/>
<rect x="200" y="55" width="80" height="50" rx="5" fill="#1E73FF"/>
<rect x="290" y="55" width="80" height="50" rx="5" fill="#1E73FF"/>
<path d="M276.447 16C276.358 15.8285 276.281 15.549 276.214 15.1616C275.572 15.8312 274.787 16.166 273.857 16.166C272.955 16.166 272.219 15.9087 271.649 15.394C271.079 14.8794 270.794 14.243 270.794 13.4849C270.794 12.5275 271.148 11.7943 271.856 11.2852C272.57 10.7705 273.589 10.5132 274.911 10.5132H276.148V9.92383C276.148 9.45898 276.018 9.08822 275.758 8.81152C275.498 8.5293 275.102 8.38818 274.571 8.38818C274.111 8.38818 273.735 8.50439 273.442 8.73682C273.149 8.9637 273.002 9.25423 273.002 9.6084H270.985C270.985 9.11589 271.148 8.65658 271.475 8.23047C271.801 7.79883 272.244 7.46126 272.803 7.21777C273.367 6.97428 273.995 6.85254 274.687 6.85254C275.738 6.85254 276.577 7.11816 277.202 7.64941C277.827 8.17513 278.148 8.91667 278.165 9.87402V13.9248C278.165 14.7327 278.278 15.3774 278.505 15.8589V16H276.447ZM274.23 14.5474C274.629 14.5474 275.002 14.4505 275.351 14.2568C275.705 14.0632 275.971 13.8031 276.148 13.4766V11.7832H275.061C274.313 11.7832 273.752 11.9132 273.375 12.1733C272.999 12.4334 272.811 12.8014 272.811 13.2773C272.811 13.6647 272.938 13.9746 273.193 14.207C273.453 14.4339 273.799 14.5474 274.23 14.5474ZM285.719 15.1201C285.127 15.8174 284.285 16.166 283.195 16.166C282.221 16.166 281.483 15.881 280.979 15.311C280.481 14.741 280.232 13.9165 280.232 12.8374V7.01855H282.249V12.8125C282.249 13.9525 282.722 14.5225 283.668 14.5225C284.648 14.5225 285.309 14.1711 285.652 13.4683V7.01855H287.669V16H285.769L285.719 15.1201ZM292.251 4.83545V7.01855H293.837V8.5127H292.251V13.5264C292.251 13.8695 292.318 14.1185 292.451 14.2734C292.589 14.4229 292.833 14.4976 293.181 14.4976C293.414 14.4976 293.649 14.4699 293.887 14.4146V15.9751C293.427 16.1024 292.985 16.166 292.559 16.166C291.009 16.166 290.234 15.311 290.234 13.6011V8.5127H288.757V7.01855H290.234V4.83545H292.251ZM294.758 11.4263C294.758 10.5464 294.933 9.75505 295.281 9.05225C295.63 8.34391 296.12 7.8016 296.75 7.42529C297.381 7.04346 298.106 6.85254 298.925 6.85254C300.137 6.85254 301.119 7.24268 301.872 8.02295C302.63 8.80322 303.04 9.83805 303.101 11.1274L303.109 11.6006C303.109 12.486 302.937 13.2773 302.594 13.9746C302.257 14.6719 301.77 15.2114 301.133 15.5933C300.502 15.9751 299.772 16.166 298.942 16.166C297.675 16.166 296.659 15.7454 295.896 14.9043C295.137 14.0576 294.758 12.9315 294.758 11.5259V11.4263ZM296.775 11.6006C296.775 12.5247 296.966 13.2497 297.348 13.7754C297.73 14.2956 298.261 14.5557 298.942 14.5557C299.623 14.5557 300.151 14.29 300.527 13.7588C300.909 13.2275 301.1 12.45 301.1 11.4263C301.1 10.5187 300.904 9.79932 300.511 9.26807C300.123 8.73682 299.595 8.47119 298.925 8.47119C298.267 8.47119 297.744 8.73405 297.356 9.25977C296.969 9.77995 296.775 10.5602 296.775 11.6006ZM308.729 11.6753H304.371V10.0483H308.729V11.6753ZM310.928 16V8.5127H309.559V7.01855H310.928V6.4043C310.934 5.7015 311.083 5.09831 311.376 4.59473C311.67 4.09115 312.085 3.71208 312.622 3.45752C313.158 3.20296 313.803 3.07568 314.556 3.07568C314.998 3.07568 315.422 3.12272 315.826 3.2168C316.235 3.31087 316.659 3.42985 317.096 3.57373L316.789 5.24219C316.025 4.97656 315.328 4.84375 314.697 4.84375C314.083 4.84375 313.637 4.97933 313.36 5.25049C313.084 5.51611 312.945 5.91732 312.945 6.4541V7.01855H314.713V8.5127H312.945V16H310.928ZM318.05 16H316.033V7.01855H318.05V16ZM322.433 16H320.416V3.25H322.433V16ZM326.783 16H324.766V3.25H326.783V16Z" fill="#222222"/>
<path d="M62.0801 87H59.2578V76.1211L55.8887 77.166V74.8711L61.7773 72.7617H62.0801V87Z" fill="white"/>
<path d="M154.971 87H145.225V85.0664L149.824 80.1641C150.456 79.474 150.921 78.8717 151.221 78.3574C151.527 77.8431 151.68 77.3548 151.68 76.8926C151.68 76.2611 151.52 75.7663 151.201 75.4082C150.882 75.0436 150.426 74.8613 149.834 74.8613C149.196 74.8613 148.691 75.0827 148.32 75.5254C147.956 75.9616 147.773 76.5378 147.773 77.2539H144.941C144.941 76.388 145.146 75.597 145.557 74.8809C145.973 74.1647 146.559 73.6048 147.314 73.2012C148.07 72.791 148.926 72.5859 149.883 72.5859C151.348 72.5859 152.484 72.9375 153.291 73.6406C154.105 74.3438 154.512 75.3366 154.512 76.6191C154.512 77.3223 154.329 78.0384 153.965 78.7676C153.6 79.4967 152.975 80.3464 152.09 81.3164L148.857 84.7246H154.971V87Z" fill="white"/>
<path d="M238.096 78.6406H239.6C240.316 78.6406 240.846 78.4616 241.191 78.1035C241.536 77.7454 241.709 77.2702 241.709 76.6777C241.709 76.1048 241.536 75.6589 241.191 75.3398C240.853 75.0208 240.384 74.8613 239.785 74.8613C239.245 74.8613 238.792 75.0111 238.428 75.3105C238.063 75.6035 237.881 75.9876 237.881 76.4629H235.059C235.059 75.7207 235.257 75.0566 235.654 74.4707C236.058 73.8783 236.618 73.416 237.334 73.084C238.057 72.752 238.851 72.5859 239.717 72.5859C241.221 72.5859 242.399 72.9473 243.252 73.6699C244.105 74.3861 244.531 75.3757 244.531 76.6387C244.531 77.2897 244.333 77.8887 243.936 78.4355C243.538 78.9824 243.018 79.4023 242.373 79.6953C243.174 79.9818 243.77 80.4115 244.16 80.9844C244.557 81.5573 244.756 82.2344 244.756 83.0156C244.756 84.2786 244.294 85.291 243.369 86.0527C242.451 86.8145 241.234 87.1953 239.717 87.1953C238.298 87.1953 237.135 86.821 236.23 86.0723C235.332 85.3236 234.883 84.334 234.883 83.1035H237.705C237.705 83.6374 237.904 84.0736 238.301 84.4121C238.704 84.7507 239.199 84.9199 239.785 84.9199C240.456 84.9199 240.98 84.7441 241.357 84.3926C241.742 84.0345 241.934 83.5625 241.934 82.9766C241.934 81.5573 241.152 80.8477 239.59 80.8477H238.096V78.6406Z" fill="white"/>
<path d="M333.574 81.6484H335.186V83.9238H333.574V87H330.752V83.9238H324.922L324.795 82.1465L330.723 72.7812H333.574V81.6484ZM327.607 81.6484H330.752V76.6289L330.566 76.9512L327.607 81.6484Z" fill="white"/>
<rect x="1" y="191" width="588" height="88" fill="white" stroke="#DDDDDD" stroke-width="2"/>
<rect x="20" y="210" width="130" height="50" rx="5" fill="#1E73FF"/>
<rect x="160" y="210" width="130" height="50" rx="5" fill="#1E73FF"/>
<rect x="300" y="210" width="130" height="50" rx="5" fill="#1E73FF"/>
<rect x="440" y="210" width="130" height="50" rx="5" fill="#1E73FF"/>
<path d="M278.466 171C278.377 170.828 278.3 170.549 278.233 170.162C277.591 170.831 276.806 171.166 275.876 171.166C274.974 171.166 274.238 170.909 273.668 170.394C273.098 169.879 272.813 169.243 272.813 168.485C272.813 167.528 273.167 166.794 273.875 166.285C274.589 165.771 275.608 165.513 276.93 165.513H278.167V164.924C278.167 164.459 278.037 164.088 277.777 163.812C277.517 163.529 277.121 163.388 276.59 163.388C276.131 163.388 275.754 163.504 275.461 163.737C275.168 163.964 275.021 164.254 275.021 164.608H273.004C273.004 164.116 273.167 163.657 273.494 163.23C273.82 162.799 274.263 162.461 274.822 162.218C275.386 161.974 276.014 161.853 276.706 161.853C277.757 161.853 278.596 162.118 279.221 162.649C279.847 163.175 280.167 163.917 280.184 164.874V168.925C280.184 169.733 280.298 170.377 280.524 170.859V171H278.466ZM276.25 169.547C276.648 169.547 277.021 169.451 277.37 169.257C277.724 169.063 277.99 168.803 278.167 168.477V166.783H277.08C276.333 166.783 275.771 166.913 275.395 167.173C275.018 167.433 274.83 167.801 274.83 168.277C274.83 168.665 274.957 168.975 275.212 169.207C275.472 169.434 275.818 169.547 276.25 169.547ZM287.738 170.12C287.146 170.817 286.305 171.166 285.214 171.166C284.24 171.166 283.502 170.881 282.998 170.311C282.5 169.741 282.251 168.917 282.251 167.837V162.019H284.268V167.812C284.268 168.952 284.741 169.522 285.688 169.522C286.667 169.522 287.328 169.171 287.671 168.468V162.019H289.688V171H287.788L287.738 170.12ZM294.271 159.835V162.019H295.856V163.513H294.271V168.526C294.271 168.869 294.337 169.118 294.47 169.273C294.608 169.423 294.852 169.498 295.2 169.498C295.433 169.498 295.668 169.47 295.906 169.415V170.975C295.446 171.102 295.004 171.166 294.578 171.166C293.028 171.166 292.253 170.311 292.253 168.601V163.513H290.776V162.019H292.253V159.835H294.271ZM296.777 166.426C296.777 165.546 296.952 164.755 297.3 164.052C297.649 163.344 298.139 162.802 298.77 162.425C299.4 162.043 300.125 161.853 300.944 161.853C302.156 161.853 303.139 162.243 303.891 163.023C304.649 163.803 305.059 164.838 305.12 166.127L305.128 166.601C305.128 167.486 304.956 168.277 304.613 168.975C304.276 169.672 303.789 170.211 303.152 170.593C302.521 170.975 301.791 171.166 300.961 171.166C299.694 171.166 298.678 170.745 297.915 169.904C297.156 169.058 296.777 167.931 296.777 166.526V166.426ZM298.794 166.601C298.794 167.525 298.985 168.25 299.367 168.775C299.749 169.296 300.28 169.556 300.961 169.556C301.642 169.556 302.17 169.29 302.546 168.759C302.928 168.228 303.119 167.45 303.119 166.426C303.119 165.519 302.923 164.799 302.53 164.268C302.142 163.737 301.614 163.471 300.944 163.471C300.286 163.471 299.763 163.734 299.375 164.26C298.988 164.78 298.794 165.56 298.794 166.601ZM310.748 166.675H306.39V165.048H310.748V166.675ZM312.947 171V163.513H311.578V162.019H312.947V161.404C312.953 160.701 313.102 160.098 313.396 159.595C313.689 159.091 314.104 158.712 314.641 158.458C315.177 158.203 315.822 158.076 316.575 158.076C317.017 158.076 317.441 158.123 317.845 158.217C318.254 158.311 318.678 158.43 319.115 158.574L318.808 160.242C318.044 159.977 317.347 159.844 316.716 159.844C316.102 159.844 315.656 159.979 315.379 160.25C315.103 160.516 314.964 160.917 314.964 161.454V162.019H316.732V163.513H314.964V171H312.947ZM320.069 171H318.052V162.019H320.069V171ZM324.834 159.835V162.019H326.419V163.513H324.834V168.526C324.834 168.869 324.9 169.118 325.033 169.273C325.172 169.423 325.415 169.498 325.764 169.498C325.996 169.498 326.231 169.47 326.469 169.415V170.975C326.01 171.102 325.567 171.166 325.141 171.166C323.592 171.166 322.817 170.311 322.817 168.601V163.513H321.339V162.019H322.817V159.835H324.834Z" fill="#222222"/>
<path d="M87.0801 242H84.2578V231.121L80.8887 232.166V229.871L86.7773 227.762H87.0801V242Z" fill="white"/>
<path d="M229.971 242H220.225V240.066L224.824 235.164C225.456 234.474 225.921 233.872 226.221 233.357C226.527 232.843 226.68 232.355 226.68 231.893C226.68 231.261 226.52 230.766 226.201 230.408C225.882 230.044 225.426 229.861 224.834 229.861C224.196 229.861 223.691 230.083 223.32 230.525C222.956 230.962 222.773 231.538 222.773 232.254H219.941C219.941 231.388 220.146 230.597 220.557 229.881C220.973 229.165 221.559 228.605 222.314 228.201C223.07 227.791 223.926 227.586 224.883 227.586C226.348 227.586 227.484 227.938 228.291 228.641C229.105 229.344 229.512 230.337 229.512 231.619C229.512 232.322 229.329 233.038 228.965 233.768C228.6 234.497 227.975 235.346 227.09 236.316L223.857 239.725H229.971V242Z" fill="white"/>
<path d="M363.096 233.641H364.6C365.316 233.641 365.846 233.462 366.191 233.104C366.536 232.745 366.709 232.27 366.709 231.678C366.709 231.105 366.536 230.659 366.191 230.34C365.853 230.021 365.384 229.861 364.785 229.861C364.245 229.861 363.792 230.011 363.428 230.311C363.063 230.604 362.881 230.988 362.881 231.463H360.059C360.059 230.721 360.257 230.057 360.654 229.471C361.058 228.878 361.618 228.416 362.334 228.084C363.057 227.752 363.851 227.586 364.717 227.586C366.221 227.586 367.399 227.947 368.252 228.67C369.105 229.386 369.531 230.376 369.531 231.639C369.531 232.29 369.333 232.889 368.936 233.436C368.538 233.982 368.018 234.402 367.373 234.695C368.174 234.982 368.77 235.411 369.16 235.984C369.557 236.557 369.756 237.234 369.756 238.016C369.756 239.279 369.294 240.291 368.369 241.053C367.451 241.814 366.234 242.195 364.717 242.195C363.298 242.195 362.135 241.821 361.23 241.072C360.332 240.324 359.883 239.334 359.883 238.104H362.705C362.705 238.637 362.904 239.074 363.301 239.412C363.704 239.751 364.199 239.92 364.785 239.92C365.456 239.92 365.98 239.744 366.357 239.393C366.742 239.035 366.934 238.562 366.934 237.977C366.934 236.557 366.152 235.848 364.59 235.848H363.096V233.641Z" fill="white"/>
<path d="M508.574 236.648H510.186V238.924H508.574V242H505.752V238.924H499.922L499.795 237.146L505.723 227.781H508.574V236.648ZM502.607 236.648H505.752V231.629L505.566 231.951L502.607 236.648Z" fill="white"/>
</svg>
