<svg width="373" height="221" viewBox="0 0 373 221" fill="none" xmlns="http://www.w3.org/2000/svg">
<rect x="46.5" y="30.5" width="130" height="190" fill="white"/>
<path d="M111.5 31L111.5 220" stroke="#BBBBBB" stroke-dasharray="3 2"/>
<path d="M47 125.5L176 125.5" stroke="#BBBBBB" stroke-dasharray="3 2"/>
<rect x="46.5" y="30.5" width="130" height="190" stroke="#666666"/>
<path d="M241.5 31L241.5 220" stroke="#BBBBBB" stroke-dasharray="3 2"/>
<path d="M307.5 30L307.5 219" stroke="#BBBBBB" stroke-dasharray="3 2"/>
<path d="M372.5 30L372.5 221" stroke="#BBBBBB" stroke-dasharray="3 2"/>
<path d="M177 30.5L373 30.5" stroke="#BBBBBB" stroke-dasharray="3 2"/>
<path d="M177 125.5L373 125.5" stroke="#BBBBBB" stroke-dasharray="3 2"/>
<path d="M177 220.5L373 220.5" stroke="#BBBBBB" stroke-dasharray="3 2"/>
<path d="M46.5 26V18.5H111.5V26" stroke="#1E73FF" stroke-dasharray="3 2"/>
<path d="M70.7212 2.71338V3.98926H70.5308C69.6675 4.00195 68.9777 4.23893 68.4614 4.7002C67.9451 5.16146 67.6383 5.81527 67.541 6.66162C68.0361 6.14111 68.6688 5.88086 69.439 5.88086C70.2557 5.88086 70.8989 6.16862 71.3687 6.74414C71.8426 7.31966 72.0796 8.06234 72.0796 8.97217C72.0796 9.91162 71.8024 10.6733 71.248 11.2573C70.6979 11.8371 69.9743 12.127 69.0771 12.127C68.1546 12.127 67.4056 11.7863 66.8301 11.105C66.2588 10.4237 65.9731 9.53076 65.9731 8.42627V7.89941C65.9731 6.27865 66.3667 5.00911 67.1538 4.09082C67.9451 3.17253 69.0814 2.71338 70.5625 2.71338H70.7212ZM69.0645 7.125C68.7259 7.125 68.4149 7.22021 68.1313 7.41064C67.8521 7.60107 67.6468 7.85498 67.5156 8.17236V8.64209C67.5156 9.32764 67.6595 9.87354 67.9473 10.2798C68.235 10.6818 68.6074 10.8828 69.0645 10.8828C69.5215 10.8828 69.8833 10.7114 70.1499 10.3687C70.4165 10.0259 70.5498 9.5752 70.5498 9.0166C70.5498 8.45801 70.4144 8.00309 70.1436 7.65186C69.8727 7.30062 69.513 7.125 69.0645 7.125ZM79.335 8.10889C79.335 9.43766 79.0853 10.4406 78.5859 11.1177C78.0908 11.7905 77.3354 12.127 76.3198 12.127C75.3211 12.127 74.5679 11.799 74.0601 11.1431C73.5565 10.4829 73.2983 9.50749 73.2856 8.2168V6.61719C73.2856 5.28841 73.5332 4.29183 74.0283 3.62744C74.5277 2.96305 75.2873 2.63086 76.3071 2.63086C77.3185 2.63086 78.0718 2.95459 78.5669 3.60205C79.0662 4.24951 79.3223 5.21859 79.335 6.50928V8.10889ZM77.7925 6.38232C77.7925 5.51481 77.674 4.88005 77.437 4.47803C77.2 4.07178 76.8234 3.86865 76.3071 3.86865C75.8035 3.86865 75.4333 4.0612 75.1963 4.44629C74.9593 4.82715 74.8345 5.42383 74.8218 6.23633V8.33105C74.8218 9.19434 74.9424 9.83757 75.1836 10.2607C75.4248 10.6839 75.8035 10.8955 76.3198 10.8955C76.8149 10.8955 77.181 10.7008 77.418 10.3115C77.6549 9.91797 77.7798 9.30436 77.7925 8.4707V6.38232ZM86.8125 8.63574C86.8125 9.69792 86.5713 10.5464 86.0889 11.1812C85.6064 11.8117 84.959 12.127 84.1465 12.127C83.3932 12.127 82.7902 11.8794 82.3374 11.3843V14.6406H80.7949V5.13184H82.2168L82.2803 5.83008C82.7331 5.27995 83.3488 5.00488 84.1274 5.00488C84.9653 5.00488 85.6213 5.31803 86.0952 5.94434C86.5734 6.56641 86.8125 7.4318 86.8125 8.54053V8.63574ZM85.2764 8.50244C85.2764 7.81689 85.1388 7.27311 84.8638 6.87109C84.5929 6.46908 84.2036 6.26807 83.6958 6.26807C83.0653 6.26807 82.6125 6.52832 82.3374 7.04883V10.0957C82.6167 10.6289 83.0737 10.8955 83.7085 10.8955C84.1994 10.8955 84.5824 10.6987 84.8574 10.3052C85.1367 9.90739 85.2764 9.30648 85.2764 8.50244ZM90.4878 7.3916L91.7954 5.13184H93.5093L91.4082 8.51514L93.5791 12H91.8779L90.5068 9.65137L89.1421 12H87.4282L89.5991 8.51514L87.5044 5.13184H89.2056L90.4878 7.3916Z" fill="#1E73FF"/>
<path d="M176.5 18.5H241.5V26" stroke="#1E73FF" stroke-dasharray="3 2"/>
<path d="M200.721 2.71338V3.98926H200.531C199.667 4.00195 198.978 4.23893 198.461 4.7002C197.945 5.16146 197.638 5.81527 197.541 6.66162C198.036 6.14111 198.669 5.88086 199.439 5.88086C200.256 5.88086 200.899 6.16862 201.369 6.74414C201.843 7.31966 202.08 8.06234 202.08 8.97217C202.08 9.91162 201.802 10.6733 201.248 11.2573C200.698 11.8371 199.974 12.127 199.077 12.127C198.155 12.127 197.406 11.7863 196.83 11.105C196.259 10.4237 195.973 9.53076 195.973 8.42627V7.89941C195.973 6.27865 196.367 5.00911 197.154 4.09082C197.945 3.17253 199.081 2.71338 200.562 2.71338H200.721ZM199.064 7.125C198.726 7.125 198.415 7.22021 198.131 7.41064C197.852 7.60107 197.647 7.85498 197.516 8.17236V8.64209C197.516 9.32764 197.66 9.87354 197.947 10.2798C198.235 10.6818 198.607 10.8828 199.064 10.8828C199.521 10.8828 199.883 10.7114 200.15 10.3687C200.417 10.0259 200.55 9.5752 200.55 9.0166C200.55 8.45801 200.414 8.00309 200.144 7.65186C199.873 7.30062 199.513 7.125 199.064 7.125ZM209.335 8.10889C209.335 9.43766 209.085 10.4406 208.586 11.1177C208.091 11.7905 207.335 12.127 206.32 12.127C205.321 12.127 204.568 11.799 204.06 11.1431C203.556 10.4829 203.298 9.50749 203.286 8.2168V6.61719C203.286 5.28841 203.533 4.29183 204.028 3.62744C204.528 2.96305 205.287 2.63086 206.307 2.63086C207.319 2.63086 208.072 2.95459 208.567 3.60205C209.066 4.24951 209.322 5.21859 209.335 6.50928V8.10889ZM207.792 6.38232C207.792 5.51481 207.674 4.88005 207.437 4.47803C207.2 4.07178 206.823 3.86865 206.307 3.86865C205.804 3.86865 205.433 4.0612 205.196 4.44629C204.959 4.82715 204.834 5.42383 204.822 6.23633V8.33105C204.822 9.19434 204.942 9.83757 205.184 10.2607C205.425 10.6839 205.804 10.8955 206.32 10.8955C206.815 10.8955 207.181 10.7008 207.418 10.3115C207.655 9.91797 207.78 9.30436 207.792 8.4707V6.38232ZM216.812 8.63574C216.812 9.69792 216.571 10.5464 216.089 11.1812C215.606 11.8117 214.959 12.127 214.146 12.127C213.393 12.127 212.79 11.8794 212.337 11.3843V14.6406H210.795V5.13184H212.217L212.28 5.83008C212.733 5.27995 213.349 5.00488 214.127 5.00488C214.965 5.00488 215.621 5.31803 216.095 5.94434C216.573 6.56641 216.812 7.4318 216.812 8.54053V8.63574ZM215.276 8.50244C215.276 7.81689 215.139 7.27311 214.864 6.87109C214.593 6.46908 214.204 6.26807 213.696 6.26807C213.065 6.26807 212.612 6.52832 212.337 7.04883V10.0957C212.617 10.6289 213.074 10.8955 213.708 10.8955C214.199 10.8955 214.582 10.6987 214.857 10.3052C215.137 9.90739 215.276 9.30648 215.276 8.50244ZM220.488 7.3916L221.795 5.13184H223.509L221.408 8.51514L223.579 12H221.878L220.507 9.65137L219.142 12H217.428L219.599 8.51514L217.504 5.13184H219.206L220.488 7.3916Z" fill="#1E73FF"/>
<path d="M34.5 125.5L34.5 30.5L42 30.5" stroke="#1E73FF" stroke-dasharray="3 2"/>
<path d="M42 220.5L34.5 220.5L34.5 125.5L42 125.5" stroke="#1E73FF" stroke-dasharray="3 2"/>
<path d="M111.5 18.5H176.5V26" stroke="#1E73FF" stroke-dasharray="3 2"/>
<path d="M135.721 2.71338V3.98926H135.531C134.667 4.00195 133.978 4.23893 133.461 4.7002C132.945 5.16146 132.638 5.81527 132.541 6.66162C133.036 6.14111 133.669 5.88086 134.439 5.88086C135.256 5.88086 135.899 6.16862 136.369 6.74414C136.843 7.31966 137.08 8.06234 137.08 8.97217C137.08 9.91162 136.802 10.6733 136.248 11.2573C135.698 11.8371 134.974 12.127 134.077 12.127C133.155 12.127 132.406 11.7863 131.83 11.105C131.259 10.4237 130.973 9.53076 130.973 8.42627V7.89941C130.973 6.27865 131.367 5.00911 132.154 4.09082C132.945 3.17253 134.081 2.71338 135.562 2.71338H135.721ZM134.064 7.125C133.726 7.125 133.415 7.22021 133.131 7.41064C132.852 7.60107 132.647 7.85498 132.516 8.17236V8.64209C132.516 9.32764 132.66 9.87354 132.947 10.2798C133.235 10.6818 133.607 10.8828 134.064 10.8828C134.521 10.8828 134.883 10.7114 135.15 10.3687C135.417 10.0259 135.55 9.5752 135.55 9.0166C135.55 8.45801 135.414 8.00309 135.144 7.65186C134.873 7.30062 134.513 7.125 134.064 7.125ZM144.335 8.10889C144.335 9.43766 144.085 10.4406 143.586 11.1177C143.091 11.7905 142.335 12.127 141.32 12.127C140.321 12.127 139.568 11.799 139.06 11.1431C138.556 10.4829 138.298 9.50749 138.286 8.2168V6.61719C138.286 5.28841 138.533 4.29183 139.028 3.62744C139.528 2.96305 140.287 2.63086 141.307 2.63086C142.319 2.63086 143.072 2.95459 143.567 3.60205C144.066 4.24951 144.322 5.21859 144.335 6.50928V8.10889ZM142.792 6.38232C142.792 5.51481 142.674 4.88005 142.437 4.47803C142.2 4.07178 141.823 3.86865 141.307 3.86865C140.804 3.86865 140.433 4.0612 140.196 4.44629C139.959 4.82715 139.834 5.42383 139.822 6.23633V8.33105C139.822 9.19434 139.942 9.83757 140.184 10.2607C140.425 10.6839 140.804 10.8955 141.32 10.8955C141.815 10.8955 142.181 10.7008 142.418 10.3115C142.655 9.91797 142.78 9.30436 142.792 8.4707V6.38232ZM151.812 8.63574C151.812 9.69792 151.571 10.5464 151.089 11.1812C150.606 11.8117 149.959 12.127 149.146 12.127C148.393 12.127 147.79 11.8794 147.337 11.3843V14.6406H145.795V5.13184H147.217L147.28 5.83008C147.733 5.27995 148.349 5.00488 149.127 5.00488C149.965 5.00488 150.621 5.31803 151.095 5.94434C151.573 6.56641 151.812 7.4318 151.812 8.54053V8.63574ZM150.276 8.50244C150.276 7.81689 150.139 7.27311 149.864 6.87109C149.593 6.46908 149.204 6.26807 148.696 6.26807C148.065 6.26807 147.612 6.52832 147.337 7.04883V10.0957C147.617 10.6289 148.074 10.8955 148.708 10.8955C149.199 10.8955 149.582 10.6987 149.857 10.3052C150.137 9.90739 150.276 9.30648 150.276 8.50244ZM155.488 7.3916L156.795 5.13184H158.509L156.408 8.51514L158.579 12H156.878L155.507 9.65137L154.142 12H152.428L154.599 8.51514L152.504 5.13184H154.206L155.488 7.3916Z" fill="#1E73FF"/>
<path d="M241.5 18.5H307.5V26" stroke="#1E73FF" stroke-dasharray="3 2"/>
<path d="M266.229 2.71338V3.98926H266.039C265.176 4.00195 264.486 4.23893 263.97 4.7002C263.453 5.16146 263.147 5.81527 263.049 6.66162C263.544 6.14111 264.177 5.88086 264.947 5.88086C265.764 5.88086 266.407 6.16862 266.877 6.74414C267.351 7.31966 267.588 8.06234 267.588 8.97217C267.588 9.91162 267.311 10.6733 266.756 11.2573C266.206 11.8371 265.483 12.127 264.585 12.127C263.663 12.127 262.914 11.7863 262.338 11.105C261.767 10.4237 261.481 9.53076 261.481 8.42627V7.89941C261.481 6.27865 261.875 5.00911 262.662 4.09082C263.453 3.17253 264.59 2.71338 266.071 2.71338H266.229ZM264.573 7.125C264.234 7.125 263.923 7.22021 263.64 7.41064C263.36 7.60107 263.155 7.85498 263.024 8.17236V8.64209C263.024 9.32764 263.168 9.87354 263.455 10.2798C263.743 10.6818 264.116 10.8828 264.573 10.8828C265.03 10.8828 265.392 10.7114 265.658 10.3687C265.925 10.0259 266.058 9.5752 266.058 9.0166C266.058 8.45801 265.923 8.00309 265.652 7.65186C265.381 7.30062 265.021 7.125 264.573 7.125ZM274.843 8.10889C274.843 9.43766 274.594 10.4406 274.094 11.1177C273.599 11.7905 272.844 12.127 271.828 12.127C270.829 12.127 270.076 11.799 269.568 11.1431C269.065 10.4829 268.807 9.50749 268.794 8.2168V6.61719C268.794 5.28841 269.041 4.29183 269.537 3.62744C270.036 2.96305 270.796 2.63086 271.815 2.63086C272.827 2.63086 273.58 2.95459 274.075 3.60205C274.574 4.24951 274.83 5.21859 274.843 6.50928V8.10889ZM273.301 6.38232C273.301 5.51481 273.182 4.88005 272.945 4.47803C272.708 4.07178 272.332 3.86865 271.815 3.86865C271.312 3.86865 270.942 4.0612 270.705 4.44629C270.468 4.82715 270.343 5.42383 270.33 6.23633V8.33105C270.33 9.19434 270.451 9.83757 270.692 10.2607C270.933 10.6839 271.312 10.8955 271.828 10.8955C272.323 10.8955 272.689 10.7008 272.926 10.3115C273.163 9.91797 273.288 9.30436 273.301 8.4707V6.38232ZM282.321 8.63574C282.321 9.69792 282.08 10.5464 281.597 11.1812C281.115 11.8117 280.467 12.127 279.655 12.127C278.901 12.127 278.298 11.8794 277.846 11.3843V14.6406H276.303V5.13184H277.725L277.789 5.83008C278.241 5.27995 278.857 5.00488 279.636 5.00488C280.474 5.00488 281.129 5.31803 281.603 5.94434C282.082 6.56641 282.321 7.4318 282.321 8.54053V8.63574ZM280.785 8.50244C280.785 7.81689 280.647 7.27311 280.372 6.87109C280.101 6.46908 279.712 6.26807 279.204 6.26807C278.573 6.26807 278.121 6.52832 277.846 7.04883V10.0957C278.125 10.6289 278.582 10.8955 279.217 10.8955C279.708 10.8955 280.091 10.6987 280.366 10.3052C280.645 9.90739 280.785 9.30648 280.785 8.50244ZM285.996 7.3916L287.304 5.13184H289.018L286.916 8.51514L289.087 12H287.386L286.015 9.65137L284.65 12H282.936L285.107 8.51514L283.013 5.13184H284.714L285.996 7.3916Z" fill="#1E73FF"/>
<path d="M307.5 18.5H372.5V26" stroke="#1E73FF" stroke-dasharray="3 2"/>
<path d="M331.996 12C331.928 11.8688 331.869 11.6551 331.818 11.3589C331.327 11.8709 330.726 12.127 330.015 12.127C329.325 12.127 328.763 11.9302 328.327 11.5366C327.891 11.1431 327.673 10.6564 327.673 10.0767C327.673 9.34456 327.944 8.78385 328.485 8.39453C329.031 8.00098 329.81 7.8042 330.821 7.8042H331.767V7.35352C331.767 6.99805 331.668 6.71452 331.469 6.50293C331.27 6.28711 330.967 6.1792 330.561 6.1792C330.21 6.1792 329.922 6.26807 329.698 6.4458C329.473 6.6193 329.361 6.84147 329.361 7.1123H327.819C327.819 6.73568 327.944 6.38444 328.193 6.05859C328.443 5.72852 328.782 5.47038 329.209 5.28418C329.641 5.09798 330.121 5.00488 330.65 5.00488C331.454 5.00488 332.095 5.20801 332.573 5.61426C333.051 6.01628 333.297 6.58333 333.31 7.31543V10.4131C333.31 11.0309 333.396 11.5239 333.57 11.8921V12H331.996ZM330.301 10.8892C330.605 10.8892 330.891 10.8151 331.158 10.667C331.429 10.5189 331.632 10.32 331.767 10.0703V8.77539H330.936C330.364 8.77539 329.935 8.87484 329.647 9.07373C329.359 9.27262 329.215 9.55404 329.215 9.91797C329.215 10.2142 329.313 10.4512 329.507 10.6289C329.706 10.8024 329.971 10.8892 330.301 10.8892ZM339.086 11.3271C338.633 11.8604 337.99 12.127 337.156 12.127C336.411 12.127 335.847 11.909 335.461 11.4731C335.081 11.0373 334.89 10.4067 334.89 9.58154V5.13184H336.433V9.5625C336.433 10.4342 336.794 10.8701 337.518 10.8701C338.267 10.8701 338.773 10.6014 339.035 10.064V5.13184H340.578V12H339.124L339.086 11.3271ZM344.082 3.4624V5.13184H345.294V6.27441H344.082V10.1084C344.082 10.3708 344.132 10.5612 344.234 10.6797C344.34 10.7939 344.526 10.8511 344.792 10.8511C344.97 10.8511 345.15 10.8299 345.332 10.7876V11.981C344.981 12.0783 344.642 12.127 344.316 12.127C343.132 12.127 342.539 11.4731 342.539 10.1655V6.27441H341.409V5.13184H342.539V3.4624H344.082ZM345.999 8.50244C345.999 7.82959 346.132 7.22445 346.398 6.68701C346.665 6.14535 347.04 5.73063 347.522 5.44287C348.004 5.15088 348.559 5.00488 349.185 5.00488C350.112 5.00488 350.863 5.30322 351.438 5.8999C352.018 6.49658 352.331 7.28792 352.378 8.27393L352.384 8.63574C352.384 9.31283 352.253 9.91797 351.991 10.4512C351.733 10.9844 351.36 11.397 350.874 11.689C350.391 11.981 349.833 12.127 349.198 12.127C348.229 12.127 347.452 11.8053 346.868 11.1621C346.288 10.5146 345.999 9.65348 345.999 8.57861V8.50244ZM347.541 8.63574C347.541 9.34245 347.687 9.89681 347.979 10.2988C348.271 10.6966 348.677 10.8955 349.198 10.8955C349.718 10.8955 350.122 10.6924 350.41 10.2861C350.702 9.87988 350.848 9.28532 350.848 8.50244C350.848 7.80843 350.698 7.2583 350.397 6.85205C350.101 6.4458 349.697 6.24268 349.185 6.24268C348.681 6.24268 348.282 6.44368 347.985 6.8457C347.689 7.24349 347.541 7.84017 347.541 8.63574Z" fill="#1E73FF"/>
<path d="M5.52637 174.134C5.01009 174.68 4.40706 174.953 3.71729 174.953C2.90479 174.953 2.25732 174.67 1.7749 174.103C1.29248 173.531 1.05127 172.782 1.05127 171.855C1.05127 171.246 1.17399 170.694 1.41943 170.199C1.66488 169.704 2.014 169.319 2.4668 169.043C2.9196 168.768 3.44434 168.631 4.04102 168.631C4.97201 168.631 5.71045 168.978 6.25635 169.672C6.80225 170.366 7.0752 171.295 7.0752 172.458V172.89C7.0752 174.557 6.69857 175.829 5.94531 176.705C5.19206 177.581 4.06852 178.025 2.57471 178.038H2.39062V176.762H2.61279C3.52262 176.75 4.22087 176.532 4.70752 176.108C5.19417 175.681 5.46712 175.023 5.52637 174.134ZM4.04102 173.747C4.34993 173.747 4.63981 173.658 4.91064 173.48C5.18148 173.303 5.39095 173.057 5.53906 172.744V172.141C5.53906 171.46 5.39941 170.912 5.12012 170.497C4.84082 170.082 4.479 169.875 4.03467 169.875C3.59033 169.875 3.23486 170.059 2.96826 170.427C2.70589 170.791 2.57471 171.252 2.57471 171.811C2.57471 172.391 2.70801 172.858 2.97461 173.214C3.24121 173.569 3.59668 173.747 4.04102 173.747ZM14.5654 174.109C14.5654 175.438 14.3158 176.441 13.8164 177.118C13.3213 177.791 12.5659 178.127 11.5503 178.127C10.5516 178.127 9.79834 177.799 9.29053 177.143C8.78695 176.483 8.52881 175.507 8.51611 174.217V172.617C8.51611 171.288 8.76367 170.292 9.25879 169.627C9.75814 168.963 10.5177 168.631 11.5376 168.631C12.549 168.631 13.3022 168.955 13.7974 169.602C14.2967 170.25 14.5527 171.219 14.5654 172.509V174.109ZM13.0229 172.382C13.0229 171.515 12.9045 170.88 12.6675 170.478C12.4305 170.072 12.0539 169.869 11.5376 169.869C11.034 169.869 10.6637 170.061 10.4268 170.446C10.1898 170.827 10.0649 171.424 10.0522 172.236V174.331C10.0522 175.194 10.1729 175.838 10.4141 176.261C10.6553 176.684 11.034 176.896 11.5503 176.896C12.0454 176.896 12.4115 176.701 12.6484 176.312C12.8854 175.918 13.0103 175.304 13.0229 174.471V172.382ZM22.043 174.636C22.043 175.698 21.8018 176.546 21.3193 177.181C20.8369 177.812 20.1895 178.127 19.377 178.127C18.6237 178.127 18.0207 177.879 17.5679 177.384V180.641H16.0254V171.132H17.4473L17.5107 171.83C17.9635 171.28 18.5793 171.005 19.3579 171.005C20.1958 171.005 20.8517 171.318 21.3257 171.944C21.8039 172.566 22.043 173.432 22.043 174.541V174.636ZM20.5068 174.502C20.5068 173.817 20.3693 173.273 20.0942 172.871C19.8234 172.469 19.4341 172.268 18.9263 172.268C18.2957 172.268 17.8429 172.528 17.5679 173.049V176.096C17.8472 176.629 18.3042 176.896 18.939 176.896C19.4299 176.896 19.8128 176.699 20.0879 176.305C20.3672 175.907 20.5068 175.306 20.5068 174.502ZM25.7183 173.392L27.0259 171.132H28.7397L26.6387 174.515L28.8096 178H27.1084L25.7373 175.651L24.3726 178H22.6587L24.8296 174.515L22.7349 171.132H24.436L25.7183 173.392Z" fill="#1E73FF"/>
<path d="M5.52637 78.1343C5.01009 78.6802 4.40706 78.9531 3.71729 78.9531C2.90479 78.9531 2.25732 78.6696 1.7749 78.1025C1.29248 77.5312 1.05127 76.7822 1.05127 75.8555C1.05127 75.2461 1.17399 74.6938 1.41943 74.1987C1.66488 73.7036 2.014 73.3185 2.4668 73.0435C2.9196 72.7684 3.44434 72.6309 4.04102 72.6309C4.97201 72.6309 5.71045 72.9779 6.25635 73.6719C6.80225 74.3659 7.0752 75.2948 7.0752 76.4585V76.8901C7.0752 78.5575 6.69857 79.8291 5.94531 80.7051C5.19206 81.5811 4.06852 82.0254 2.57471 82.0381H2.39062V80.7622H2.61279C3.52262 80.7495 4.22087 80.5316 4.70752 80.1084C5.19417 79.681 5.46712 79.0229 5.52637 78.1343ZM4.04102 77.7471C4.34993 77.7471 4.63981 77.6582 4.91064 77.4805C5.18148 77.3027 5.39095 77.0573 5.53906 76.7441V76.1411C5.53906 75.4598 5.39941 74.9118 5.12012 74.4971C4.84082 74.0824 4.479 73.875 4.03467 73.875C3.59033 73.875 3.23486 74.0591 2.96826 74.4272C2.70589 74.7912 2.57471 75.2524 2.57471 75.811C2.57471 76.3908 2.70801 76.8584 2.97461 77.2139C3.24121 77.5693 3.59668 77.7471 4.04102 77.7471ZM14.5654 78.1089C14.5654 79.4377 14.3158 80.4406 13.8164 81.1177C13.3213 81.7905 12.5659 82.127 11.5503 82.127C10.5516 82.127 9.79834 81.799 9.29053 81.1431C8.78695 80.4829 8.52881 79.5075 8.51611 78.2168V76.6172C8.51611 75.2884 8.76367 74.2918 9.25879 73.6274C9.75814 72.9631 10.5177 72.6309 11.5376 72.6309C12.549 72.6309 13.3022 72.9546 13.7974 73.6021C14.2967 74.2495 14.5527 75.2186 14.5654 76.5093V78.1089ZM13.0229 76.3823C13.0229 75.5148 12.9045 74.88 12.6675 74.478C12.4305 74.0718 12.0539 73.8687 11.5376 73.8687C11.034 73.8687 10.6637 74.0612 10.4268 74.4463C10.1898 74.8271 10.0649 75.4238 10.0522 76.2363V78.3311C10.0522 79.1943 10.1729 79.8376 10.4141 80.2607C10.6553 80.6839 11.034 80.8955 11.5503 80.8955C12.0454 80.8955 12.4115 80.7008 12.6484 80.3115C12.8854 79.918 13.0103 79.3044 13.0229 78.4707V76.3823ZM22.043 78.6357C22.043 79.6979 21.8018 80.5464 21.3193 81.1812C20.8369 81.8117 20.1895 82.127 19.377 82.127C18.6237 82.127 18.0207 81.8794 17.5679 81.3843V84.6406H16.0254V75.1318H17.4473L17.5107 75.8301C17.9635 75.2799 18.5793 75.0049 19.3579 75.0049C20.1958 75.0049 20.8517 75.318 21.3257 75.9443C21.8039 76.5664 22.043 77.4318 22.043 78.5405V78.6357ZM20.5068 78.5024C20.5068 77.8169 20.3693 77.2731 20.0942 76.8711C19.8234 76.4691 19.4341 76.2681 18.9263 76.2681C18.2957 76.2681 17.8429 76.5283 17.5679 77.0488V80.0957C17.8472 80.6289 18.3042 80.8955 18.939 80.8955C19.4299 80.8955 19.8128 80.6987 20.0879 80.3052C20.3672 79.9074 20.5068 79.3065 20.5068 78.5024ZM25.7183 77.3916L27.0259 75.1318H28.7397L26.6387 78.5151L28.8096 82H27.1084L25.7373 79.6514L24.3726 82H22.6587L24.8296 78.5151L22.7349 75.1318H24.436L25.7183 77.3916Z" fill="#1E73FF"/>
<path d="M49 133C49 130.239 51.2386 128 54 128H104C106.761 128 109 130.239 109 133V213C109 215.761 106.761 218 104 218H54C51.2386 218 49 215.761 49 213V133Z" fill="#00986B"/>
<path d="M57.4375 175.325C57.7695 175.325 58.0259 175.42 58.2065 175.611C58.3872 175.796 58.4775 176.031 58.4775 176.314C58.4775 176.592 58.3872 176.824 58.2065 177.01C58.0259 177.19 57.7695 177.281 57.4375 177.281C57.1201 177.281 56.8687 177.19 56.6831 177.01C56.4976 176.829 56.4048 176.597 56.4048 176.314C56.4048 176.031 56.4951 175.796 56.6758 175.611C56.8564 175.42 57.1104 175.325 57.4375 175.325ZM62.4106 177.2H60.6309V169.275H62.4106V177.2ZM60.521 167.217C60.521 166.944 60.6064 166.717 60.7773 166.536C60.9531 166.355 61.2021 166.265 61.5244 166.265C61.8467 166.265 62.0957 166.355 62.2715 166.536C62.4473 166.717 62.5352 166.944 62.5352 167.217C62.5352 167.486 62.4473 167.71 62.2715 167.891C62.0957 168.067 61.8467 168.155 61.5244 168.155C61.2021 168.155 60.9531 168.067 60.7773 167.891C60.6064 167.71 60.521 167.486 60.521 167.217ZM66.5854 167.349V169.275H67.9844V170.594H66.5854V175.017C66.5854 175.32 66.644 175.54 66.7612 175.677C66.8833 175.808 67.0981 175.874 67.4058 175.874C67.6108 175.874 67.8184 175.85 68.0283 175.801V177.178C67.623 177.29 67.2324 177.347 66.8564 177.347C65.4893 177.347 64.8057 176.592 64.8057 175.083V170.594H63.502V169.275H64.8057V167.349H66.5854ZM72.8403 177.347C71.7124 177.347 70.7969 176.993 70.0938 176.285C69.3955 175.572 69.0464 174.624 69.0464 173.443V173.223C69.0464 172.432 69.1978 171.726 69.5005 171.106C69.8081 170.481 70.2378 169.995 70.7896 169.649C71.3413 169.302 71.9565 169.129 72.6353 169.129C73.7144 169.129 74.5469 169.473 75.1328 170.161C75.7236 170.85 76.019 171.824 76.019 173.084V173.802H70.8408C70.8945 174.456 71.1118 174.974 71.4927 175.354C71.8784 175.735 72.3618 175.926 72.9429 175.926C73.7583 175.926 74.4224 175.596 74.9351 174.937L75.8945 175.852C75.5771 176.326 75.1523 176.695 74.6201 176.958C74.0928 177.217 73.4995 177.347 72.8403 177.347ZM72.6279 170.557C72.1396 170.557 71.7441 170.728 71.4414 171.07C71.1436 171.411 70.9531 171.888 70.8701 172.498H74.2612V172.366C74.2222 171.77 74.0635 171.321 73.7852 171.018C73.5068 170.711 73.1211 170.557 72.6279 170.557ZM79.0806 169.275L79.1318 170.103C79.6885 169.453 80.4502 169.129 81.417 169.129C82.4766 169.129 83.2017 169.534 83.5923 170.345C84.1685 169.534 84.979 169.129 86.0239 169.129C86.8979 169.129 87.5474 169.37 87.9722 169.854C88.4019 170.337 88.6216 171.05 88.6313 171.993V177.2H86.8516V172.044C86.8516 171.541 86.7417 171.172 86.522 170.938C86.3022 170.703 85.9385 170.586 85.4307 170.586C85.0254 170.586 84.6934 170.696 84.4346 170.916C84.1807 171.131 84.0024 171.414 83.8999 171.766L83.9072 177.2H82.1274V171.985C82.103 171.053 81.627 170.586 80.6992 170.586C79.9863 170.586 79.481 170.877 79.1831 171.458V177.2H77.4033V169.275H79.0806ZM93.9121 173.384H90.0669V171.949H93.9121V173.384ZM100.116 177.2C100.038 177.049 99.9692 176.802 99.9106 176.46C99.3442 177.051 98.6509 177.347 97.8306 177.347C97.0347 177.347 96.3853 177.12 95.8823 176.665C95.3794 176.211 95.1279 175.65 95.1279 174.981C95.1279 174.136 95.4404 173.489 96.0654 173.04C96.6953 172.586 97.5938 172.359 98.7607 172.359H99.8521V171.839C99.8521 171.429 99.7373 171.101 99.5078 170.857C99.2783 170.608 98.9292 170.484 98.4604 170.484C98.0552 170.484 97.7231 170.586 97.4644 170.791C97.2056 170.992 97.0762 171.248 97.0762 171.56H95.2964C95.2964 171.126 95.4404 170.721 95.7285 170.345C96.0166 169.964 96.4072 169.666 96.9004 169.451C97.3984 169.236 97.9526 169.129 98.563 169.129C99.4907 169.129 100.23 169.363 100.782 169.832C101.334 170.296 101.617 170.95 101.632 171.795V175.369C101.632 176.082 101.732 176.651 101.932 177.076V177.2H100.116ZM98.1602 175.918C98.5117 175.918 98.8413 175.833 99.1489 175.662C99.4614 175.491 99.6958 175.262 99.8521 174.974V173.479H98.8926C98.2334 173.479 97.7378 173.594 97.4058 173.824C97.0737 174.053 96.9077 174.378 96.9077 174.798C96.9077 175.14 97.02 175.413 97.2446 175.618C97.4741 175.818 97.7793 175.918 98.1602 175.918Z" fill="white"/>
<path d="M310 133C310 130.239 312.239 128 315 128H365C367.761 128 370 130.239 370 133V213C370 215.761 367.761 218 365 218H315C312.239 218 310 215.761 310 213V133Z" fill="#4961DD"/>
<path d="M318.269 175.325C318.601 175.325 318.857 175.42 319.038 175.611C319.219 175.796 319.309 176.031 319.309 176.314C319.309 176.592 319.219 176.824 319.038 177.01C318.857 177.19 318.601 177.281 318.269 177.281C317.952 177.281 317.7 177.19 317.515 177.01C317.329 176.829 317.236 176.597 317.236 176.314C317.236 176.031 317.327 175.796 317.507 175.611C317.688 175.42 317.942 175.325 318.269 175.325ZM323.242 177.2H321.462V169.275H323.242V177.2ZM321.353 167.217C321.353 166.944 321.438 166.717 321.609 166.536C321.785 166.355 322.034 166.265 322.356 166.265C322.678 166.265 322.927 166.355 323.103 166.536C323.279 166.717 323.367 166.944 323.367 167.217C323.367 167.486 323.279 167.71 323.103 167.891C322.927 168.067 322.678 168.155 322.356 168.155C322.034 168.155 321.785 168.067 321.609 167.891C321.438 167.71 321.353 167.486 321.353 167.217ZM327.417 167.349V169.275H328.816V170.594H327.417V175.017C327.417 175.32 327.476 175.54 327.593 175.677C327.715 175.808 327.93 175.874 328.237 175.874C328.442 175.874 328.65 175.85 328.86 175.801V177.178C328.455 177.29 328.064 177.347 327.688 177.347C326.321 177.347 325.637 176.592 325.637 175.083V170.594H324.333V169.275H325.637V167.349H327.417ZM333.672 177.347C332.544 177.347 331.628 176.993 330.925 176.285C330.227 175.572 329.878 174.624 329.878 173.443V173.223C329.878 172.432 330.029 171.726 330.332 171.106C330.64 170.481 331.069 169.995 331.621 169.649C332.173 169.302 332.788 169.129 333.467 169.129C334.546 169.129 335.378 169.473 335.964 170.161C336.555 170.85 336.851 171.824 336.851 173.084V173.802H331.672C331.726 174.456 331.943 174.974 332.324 175.354C332.71 175.735 333.193 175.926 333.774 175.926C334.59 175.926 335.254 175.596 335.767 174.937L336.726 175.852C336.409 176.326 335.984 176.695 335.452 176.958C334.924 177.217 334.331 177.347 333.672 177.347ZM333.459 170.557C332.971 170.557 332.576 170.728 332.273 171.07C331.975 171.411 331.785 171.888 331.702 172.498H335.093V172.366C335.054 171.77 334.895 171.321 334.617 171.018C334.338 170.711 333.953 170.557 333.459 170.557ZM339.912 169.275L339.963 170.103C340.52 169.453 341.282 169.129 342.249 169.129C343.308 169.129 344.033 169.534 344.424 170.345C345 169.534 345.811 169.129 346.855 169.129C347.729 169.129 348.379 169.37 348.804 169.854C349.233 170.337 349.453 171.05 349.463 171.993V177.2H347.683V172.044C347.683 171.541 347.573 171.172 347.354 170.938C347.134 170.703 346.77 170.586 346.262 170.586C345.857 170.586 345.525 170.696 345.266 170.916C345.012 171.131 344.834 171.414 344.731 171.766L344.739 177.2H342.959V171.985C342.935 171.053 342.458 170.586 341.531 170.586C340.818 170.586 340.312 170.877 340.015 171.458V177.2H338.235V169.275H339.912ZM354.744 173.384H350.898V171.949H354.744V173.384ZM363.167 173.318C363.167 174.549 362.891 175.528 362.339 176.255C361.792 176.983 361.038 177.347 360.076 177.347C359.148 177.347 358.425 177.012 357.908 176.343L357.82 177.2H356.208V165.95H357.988V170.037C358.501 169.432 359.192 169.129 360.061 169.129C361.028 169.129 361.787 169.488 362.339 170.205C362.891 170.923 363.167 171.927 363.167 173.216V173.318ZM361.387 173.164C361.387 172.305 361.235 171.661 360.933 171.231C360.63 170.801 360.19 170.586 359.614 170.586C358.843 170.586 358.301 170.923 357.988 171.597V174.864C358.306 175.552 358.853 175.896 359.629 175.896C360.186 175.896 360.615 175.689 360.918 175.274C361.221 174.859 361.377 174.231 361.387 173.391V173.164Z" fill="white"/>
</svg>
