<svg width="398" height="178" viewBox="0 0 398 178" fill="none" xmlns="http://www.w3.org/2000/svg">
<path d="M0.560547 10.2471C0.560547 9.09863 0.829427 8.18262 1.36719 7.49902C1.90951 6.81087 2.62728 6.4668 3.52051 6.4668C4.36361 6.4668 5.02669 6.76074 5.50977 7.34863L5.58496 6.60352H7.08203V13.7744C7.08203 14.7451 6.77897 15.5107 6.17285 16.0713C5.57129 16.6318 4.75781 16.9121 3.73242 16.9121C3.1901 16.9121 2.65918 16.7982 2.13965 16.5703C1.62467 16.347 1.23275 16.0531 0.963867 15.6885L1.75 14.6904C2.26042 15.2965 2.88932 15.5996 3.63672 15.5996C4.18815 15.5996 4.62337 15.4492 4.94238 15.1484C5.26139 14.8522 5.4209 14.4147 5.4209 13.8359V13.3369C4.94238 13.8701 4.30436 14.1367 3.50684 14.1367C2.64095 14.1367 1.93229 13.7926 1.38086 13.1045C0.833984 12.4163 0.560547 11.4639 0.560547 10.2471ZM2.21484 10.3906C2.21484 11.1335 2.36523 11.7191 2.66602 12.1475C2.97135 12.5713 3.3929 12.7832 3.93066 12.7832C4.60059 12.7832 5.09733 12.4961 5.4209 11.9219V8.66797C5.10645 8.10742 4.61426 7.82715 3.94434 7.82715C3.39746 7.82715 2.97135 8.04362 2.66602 8.47656C2.36523 8.90951 2.21484 9.54753 2.21484 10.3906ZM12.667 8.12109C12.4482 8.08464 12.2227 8.06641 11.9902 8.06641C11.2292 8.06641 10.7165 8.35807 10.4521 8.94141V14H8.79102V6.60352H10.377L10.418 7.43066C10.819 6.78809 11.375 6.4668 12.0859 6.4668C12.3229 6.4668 12.5189 6.4987 12.6738 6.5625L12.667 8.12109ZM15.4834 14H13.8223V6.60352H15.4834V14ZM13.7197 4.68262C13.7197 4.42741 13.7995 4.21549 13.959 4.04688C14.123 3.87826 14.3555 3.79395 14.6562 3.79395C14.957 3.79395 15.1895 3.87826 15.3535 4.04688C15.5176 4.21549 15.5996 4.42741 15.5996 4.68262C15.5996 4.93327 15.5176 5.1429 15.3535 5.31152C15.1895 5.47559 14.957 5.55762 14.6562 5.55762C14.3555 5.55762 14.123 5.47559 13.959 5.31152C13.7995 5.1429 13.7197 4.93327 13.7197 4.68262ZM16.9873 10.2471C16.9873 9.10775 17.2516 8.19401 17.7803 7.50586C18.3089 6.81315 19.0176 6.4668 19.9062 6.4668C20.6901 6.4668 21.3236 6.74023 21.8066 7.28711V3.5H23.4678V14H21.9639L21.8818 13.2344C21.3851 13.8359 20.722 14.1367 19.8926 14.1367C19.0267 14.1367 18.3249 13.7881 17.7871 13.0908C17.2539 12.3936 16.9873 11.4456 16.9873 10.2471ZM18.6484 10.3906C18.6484 11.1426 18.792 11.7305 19.0791 12.1543C19.3708 12.5736 19.7832 12.7832 20.3164 12.7832C20.9954 12.7832 21.4922 12.4801 21.8066 11.874V8.71582C21.5013 8.12337 21.0091 7.82715 20.3301 7.82715C19.7923 7.82715 19.3776 8.04134 19.0859 8.46973C18.7943 8.89355 18.6484 9.53385 18.6484 10.3906ZM31.7256 12.8105C32.1403 12.8105 32.4844 12.6898 32.7578 12.4482C33.0312 12.2067 33.1771 11.9082 33.1953 11.5527H34.7607C34.7425 12.013 34.599 12.4437 34.3301 12.8447C34.0612 13.2412 33.6966 13.5557 33.2363 13.7881C32.776 14.0205 32.2793 14.1367 31.7461 14.1367C30.7116 14.1367 29.8913 13.8018 29.2852 13.1318C28.679 12.4619 28.376 11.5368 28.376 10.3564V10.1855C28.376 9.0599 28.6768 8.15983 29.2783 7.48535C29.8799 6.80632 30.7002 6.4668 31.7393 6.4668C32.6188 6.4668 33.3343 6.72428 33.8857 7.23926C34.4417 7.74967 34.7334 8.42188 34.7607 9.25586H33.1953C33.1771 8.83203 33.0312 8.4834 32.7578 8.20996C32.4889 7.93652 32.1449 7.7998 31.7256 7.7998C31.1878 7.7998 30.7731 7.99577 30.4814 8.3877C30.1898 8.77507 30.0417 9.36523 30.0371 10.1582V10.4248C30.0371 11.2269 30.1807 11.8262 30.4678 12.2227C30.7594 12.6146 31.1787 12.8105 31.7256 12.8105ZM35.7041 10.2334C35.7041 9.50879 35.8477 8.8571 36.1348 8.27832C36.4219 7.69499 36.8252 7.24837 37.3447 6.93848C37.8643 6.62402 38.4613 6.4668 39.1357 6.4668C40.1338 6.4668 40.9427 6.78809 41.5625 7.43066C42.1868 8.07324 42.5241 8.92546 42.5742 9.9873L42.5811 10.377C42.5811 11.1061 42.4398 11.7578 42.1572 12.332C41.8792 12.9062 41.4782 13.3506 40.9541 13.665C40.4346 13.9795 39.833 14.1367 39.1494 14.1367C38.1058 14.1367 37.2695 13.7904 36.6406 13.0977C36.0163 12.4004 35.7041 11.473 35.7041 10.3154V10.2334ZM37.3652 10.377C37.3652 11.138 37.5225 11.735 37.8369 12.168C38.1514 12.5964 38.5889 12.8105 39.1494 12.8105C39.71 12.8105 40.1452 12.5918 40.4551 12.1543C40.7695 11.7168 40.9268 11.0765 40.9268 10.2334C40.9268 9.486 40.765 8.89355 40.4414 8.45605C40.1224 8.01855 39.6872 7.7998 39.1357 7.7998C38.5934 7.7998 38.1628 8.01628 37.8438 8.44922C37.5247 8.8776 37.3652 9.52018 37.3652 10.377ZM45.5273 6.60352L45.5752 7.45801C46.1221 6.7972 46.8398 6.4668 47.7285 6.4668C49.2689 6.4668 50.0527 7.34863 50.0801 9.1123V14H48.4189V9.20801C48.4189 8.73861 48.3164 8.39225 48.1113 8.16895C47.9108 7.94108 47.5804 7.82715 47.1201 7.82715C46.4502 7.82715 45.9512 8.13021 45.623 8.73633V14H43.9619V6.60352H45.5273ZM53.8604 4.80566V6.60352H55.166V7.83398H53.8604V11.9629C53.8604 12.2454 53.915 12.4505 54.0244 12.5781C54.1383 12.7012 54.3389 12.7627 54.626 12.7627C54.8174 12.7627 55.0111 12.7399 55.207 12.6943V13.9795C54.8288 14.0843 54.4642 14.1367 54.1133 14.1367C52.8372 14.1367 52.1992 13.4326 52.1992 12.0244V7.83398H50.9824V6.60352H52.1992V4.80566H53.8604ZM60.8604 14C60.7874 13.8587 60.7236 13.6286 60.6689 13.3096C60.1403 13.861 59.4932 14.1367 58.7275 14.1367C57.9847 14.1367 57.3786 13.9248 56.9092 13.501C56.4398 13.0771 56.2051 12.5531 56.2051 11.9287C56.2051 11.1403 56.4967 10.5365 57.0801 10.1172C57.668 9.69336 58.5065 9.48145 59.5957 9.48145H60.6143V8.99609C60.6143 8.61328 60.5072 8.30794 60.293 8.08008C60.0788 7.84766 59.7529 7.73145 59.3154 7.73145C58.9372 7.73145 58.6273 7.82715 58.3857 8.01855C58.1442 8.2054 58.0234 8.44466 58.0234 8.73633H56.3623C56.3623 8.33073 56.4967 7.95247 56.7656 7.60156C57.0345 7.24609 57.3991 6.9681 57.8594 6.76758C58.3242 6.56706 58.8415 6.4668 59.4111 6.4668C60.277 6.4668 60.9674 6.68555 61.4824 7.12305C61.9974 7.55599 62.2617 8.16667 62.2754 8.95508V12.291C62.2754 12.9564 62.3688 13.4873 62.5557 13.8838V14H60.8604ZM59.0352 12.8037C59.3633 12.8037 59.6709 12.724 59.958 12.5645C60.2497 12.4049 60.4684 12.1908 60.6143 11.9219V10.5273H59.7188C59.1035 10.5273 58.641 10.6344 58.3311 10.8486C58.0212 11.0628 57.8662 11.3659 57.8662 11.7578C57.8662 12.0768 57.971 12.332 58.1807 12.5234C58.3949 12.7103 58.6797 12.8037 59.0352 12.8037ZM65.7822 14H64.1211V6.60352H65.7822V14ZM64.0186 4.68262C64.0186 4.42741 64.0983 4.21549 64.2578 4.04688C64.4219 3.87826 64.6543 3.79395 64.9551 3.79395C65.2559 3.79395 65.4883 3.87826 65.6523 4.04688C65.8164 4.21549 65.8984 4.42741 65.8984 4.68262C65.8984 4.93327 65.8164 5.1429 65.6523 5.31152C65.4883 5.47559 65.2559 5.55762 64.9551 5.55762C64.6543 5.55762 64.4219 5.47559 64.2578 5.31152C64.0983 5.1429 64.0186 4.93327 64.0186 4.68262ZM69.1387 6.60352L69.1865 7.45801C69.7334 6.7972 70.4512 6.4668 71.3398 6.4668C72.8802 6.4668 73.6641 7.34863 73.6914 9.1123V14H72.0303V9.20801C72.0303 8.73861 71.9277 8.39225 71.7227 8.16895C71.5221 7.94108 71.1917 7.82715 70.7314 7.82715C70.0615 7.82715 69.5625 8.13021 69.2344 8.73633V14H67.5732V6.60352H69.1387ZM78.6475 14.1367C77.5947 14.1367 76.7402 13.8063 76.084 13.1455C75.4323 12.4801 75.1064 11.596 75.1064 10.4932V10.2881C75.1064 9.5498 75.2477 8.89128 75.5303 8.3125C75.8174 7.72917 76.2184 7.27572 76.7334 6.95215C77.2484 6.62858 77.8226 6.4668 78.4561 6.4668C79.4632 6.4668 80.2402 6.78809 80.7871 7.43066C81.3385 8.07324 81.6143 8.98242 81.6143 10.1582V10.8281H76.7812C76.8314 11.4388 77.0342 11.9219 77.3896 12.2773C77.7497 12.6328 78.2008 12.8105 78.7432 12.8105C79.5042 12.8105 80.124 12.5029 80.6025 11.8877L81.498 12.7422C81.2018 13.1842 80.8053 13.5283 80.3086 13.7744C79.8164 14.016 79.2627 14.1367 78.6475 14.1367ZM78.4492 7.7998C77.9935 7.7998 77.6243 7.95931 77.3418 8.27832C77.0638 8.59733 76.8861 9.04167 76.8086 9.61133H79.9736V9.48828C79.9372 8.93229 79.7891 8.51302 79.5293 8.23047C79.2695 7.94336 78.9095 7.7998 78.4492 7.7998ZM86.7822 8.12109C86.5635 8.08464 86.3379 8.06641 86.1055 8.06641C85.3444 8.06641 84.8317 8.35807 84.5674 8.94141V14H82.9062V6.60352H84.4922L84.5332 7.43066C84.9342 6.78809 85.4902 6.4668 86.2012 6.4668C86.4382 6.4668 86.6341 6.4987 86.7891 6.5625L86.7822 8.12109Z" fill="#BBBBBB"/>
<rect x="1" y="29" width="396" height="148" rx="5" fill="#EEEEEE" stroke="#AAAAAA" stroke-width="2" stroke-dasharray="6 4"/>
<path d="M142.5 32L142.5 174" stroke="#AAAAAA" stroke-dasharray="4 2"/>
<path d="M255.5 32L255.5 174" stroke="#AAAAAA" stroke-dasharray="4 2"/>
<path d="M394 94.5676L3.99999 94.5673" stroke="#AAAAAA" stroke-dasharray="4 2"/>
<path d="M394 135.5L3.99999 135.5" stroke="#AAAAAA" stroke-dasharray="4 2"/>
<path d="M2 34C2 31.7909 3.79086 30 6 30H142V94H2V34Z" fill="white"/>
<g opacity="0.75">
<path d="M6 51C6 48.7909 7.79086 47 10 47H134C136.209 47 138 48.7909 138 51V73C138 75.2091 136.209 77 134 77H10C7.79086 77 6 75.2091 6 73V51Z" fill="#1E73FF"/>
<path d="M55.7764 65.1255C56.2207 65.1255 56.5894 64.9961 56.8823 64.7373C57.1753 64.4785 57.3315 64.1587 57.3511 63.7778H59.0283C59.0088 64.271 58.855 64.7324 58.5669 65.1621C58.2788 65.5869 57.8882 65.9238 57.395 66.1729C56.9019 66.4219 56.3696 66.5464 55.7983 66.5464C54.6899 66.5464 53.811 66.1875 53.1616 65.4697C52.5122 64.752 52.1875 63.7607 52.1875 62.4961V62.313C52.1875 61.1069 52.5098 60.1426 53.1543 59.4199C53.7988 58.6924 54.6777 58.3286 55.791 58.3286C56.7334 58.3286 57.5 58.6045 58.0908 59.1562C58.6865 59.7031 58.999 60.4233 59.0283 61.3169H57.3511C57.3315 60.8628 57.1753 60.4893 56.8823 60.1963C56.5942 59.9033 56.2256 59.7568 55.7764 59.7568C55.2002 59.7568 54.7559 59.9668 54.4434 60.3867C54.1309 60.8018 53.9722 61.4341 53.9673 62.2837V62.5693C53.9673 63.4287 54.1211 64.0708 54.4287 64.4956C54.7412 64.9155 55.1904 65.1255 55.7764 65.1255ZM63.8623 66.5464C62.7344 66.5464 61.8188 66.1924 61.1157 65.4844C60.4175 64.7715 60.0684 63.8242 60.0684 62.6426V62.4229C60.0684 61.6318 60.2197 60.9263 60.5225 60.3062C60.8301 59.6812 61.2598 59.1953 61.8115 58.8486C62.3633 58.502 62.9785 58.3286 63.6572 58.3286C64.7363 58.3286 65.5688 58.6729 66.1548 59.3613C66.7456 60.0498 67.041 61.0239 67.041 62.2837V63.0015H61.8628C61.9165 63.6558 62.1338 64.1733 62.5146 64.5542C62.9004 64.9351 63.3838 65.1255 63.9648 65.1255C64.7803 65.1255 65.4443 64.7959 65.957 64.1367L66.9165 65.0522C66.5991 65.5259 66.1743 65.8945 65.6421 66.1582C65.1147 66.417 64.5215 66.5464 63.8623 66.5464ZM63.6499 59.7568C63.1616 59.7568 62.7661 59.9277 62.4634 60.2695C62.1655 60.6113 61.9751 61.0874 61.8921 61.6978H65.2832V61.5659C65.2441 60.9702 65.0854 60.521 64.8071 60.2183C64.5288 59.9106 64.1431 59.7568 63.6499 59.7568ZM70.0806 58.4751L70.1318 59.3906C70.7178 58.6826 71.4868 58.3286 72.439 58.3286C74.0894 58.3286 74.9292 59.2734 74.9585 61.1631V66.3999H73.1787V61.2656C73.1787 60.7627 73.0688 60.3916 72.8491 60.1523C72.6343 59.9082 72.2803 59.7861 71.7871 59.7861C71.0693 59.7861 70.5347 60.1108 70.1831 60.7603V66.3999H68.4033V58.4751H70.0806ZM79.0088 56.5488V58.4751H80.4077V59.7935H79.0088V64.2173C79.0088 64.52 79.0674 64.7397 79.1846 64.8765C79.3066 65.0083 79.5215 65.0742 79.8291 65.0742C80.0342 65.0742 80.2417 65.0498 80.4517 65.001V66.3779C80.0464 66.4902 79.6558 66.5464 79.2798 66.5464C77.9126 66.5464 77.229 65.792 77.229 64.2832V59.7935H75.9253V58.4751H77.229V56.5488H79.0088ZM85.2637 66.5464C84.1357 66.5464 83.2202 66.1924 82.5171 65.4844C81.8188 64.7715 81.4697 63.8242 81.4697 62.6426V62.4229C81.4697 61.6318 81.6211 60.9263 81.9238 60.3062C82.2314 59.6812 82.6611 59.1953 83.2129 58.8486C83.7646 58.502 84.3799 58.3286 85.0586 58.3286C86.1377 58.3286 86.9702 58.6729 87.5562 59.3613C88.147 60.0498 88.4424 61.0239 88.4424 62.2837V63.0015H83.2642C83.3179 63.6558 83.5352 64.1733 83.916 64.5542C84.3018 64.9351 84.7852 65.1255 85.3662 65.1255C86.1816 65.1255 86.8457 64.7959 87.3584 64.1367L88.3179 65.0522C88.0005 65.5259 87.5757 65.8945 87.0435 66.1582C86.5161 66.417 85.9229 66.5464 85.2637 66.5464ZM85.0513 59.7568C84.563 59.7568 84.1675 59.9277 83.8647 60.2695C83.5669 60.6113 83.3765 61.0874 83.2935 61.6978H86.6846V61.5659C86.6455 60.9702 86.4868 60.521 86.2085 60.2183C85.9302 59.9106 85.5444 59.7568 85.0513 59.7568ZM93.9795 60.1011C93.7451 60.062 93.5034 60.0425 93.2544 60.0425C92.439 60.0425 91.8896 60.355 91.6064 60.98V66.3999H89.8267V58.4751H91.5259L91.5698 59.3613C91.9995 58.6729 92.5952 58.3286 93.3569 58.3286C93.6108 58.3286 93.8208 58.3628 93.9868 58.4312L93.9795 60.1011Z" fill="white"/>
</g>
</svg>
