<svg width="640" height="307" viewBox="0 0 640 307" fill="none" xmlns="http://www.w3.org/2000/svg">
<rect width="640" height="307" fill="#F7F7F7"/>
<rect x="59" y="42" width="522" height="242" fill="white"/>
<path d="M228.5 43L228.5 283" stroke="#BBBBBB" stroke-dasharray="3 2"/>
<path d="M235.5 43L235.5 283" stroke="#BBBBBB" stroke-dasharray="3 2"/>
<path d="M404.5 43L404.5 283" stroke="#BBBBBB" stroke-dasharray="3 2"/>
<path d="M411.5 43L411.5 283" stroke="#BBBBBB" stroke-dasharray="3 2"/>
<path d="M60 104.5L580 104.5" stroke="#BBBBBB" stroke-dasharray="3 2"/>
<path d="M60 97.5L580 97.5" stroke="#BBBBBB" stroke-dasharray="3 2"/>
<path d="M60 166.5L580 166.5" stroke="#BBBBBB" stroke-dasharray="3 2"/>
<path d="M60 159.5L580 159.5" stroke="#BBBBBB" stroke-dasharray="3 2"/>
<path d="M60 228.5L580 228.5" stroke="#BBBBBB" stroke-dasharray="3 2"/>
<path d="M60 221.5L580 221.5" stroke="#BBBBBB" stroke-dasharray="3 2"/>
<rect x="59" y="42" width="522" height="242" stroke="#AAAAAA" stroke-width="2"/>
<path d="M36.6118 26.8955C36.9969 26.8955 37.3164 26.7834 37.5703 26.5591C37.8242 26.3348 37.9596 26.0576 37.9766 25.7275H39.4302C39.4132 26.1549 39.2799 26.5549 39.0303 26.9272C38.7806 27.2954 38.4421 27.5874 38.0146 27.8032C37.5872 28.019 37.126 28.127 36.6309 28.127C35.6702 28.127 34.9085 27.8159 34.3457 27.1938C33.7829 26.5718 33.5015 25.7127 33.5015 24.6167V24.458C33.5015 23.4128 33.7808 22.577 34.3394 21.9507C34.8979 21.3201 35.6597 21.0049 36.6245 21.0049C37.4412 21.0049 38.1056 21.244 38.6177 21.7222C39.134 22.1961 39.4048 22.8203 39.4302 23.5947H37.9766C37.9596 23.2012 37.8242 22.8774 37.5703 22.6235C37.3206 22.3696 37.0011 22.2427 36.6118 22.2427C36.1125 22.2427 35.7274 22.4246 35.4565 22.7886C35.1857 23.1483 35.0482 23.6963 35.0439 24.4326V24.6802C35.0439 25.425 35.1772 25.9814 35.4438 26.3496C35.7147 26.7135 36.104 26.8955 36.6118 26.8955ZM40.3062 24.5024C40.3062 23.8296 40.4395 23.2244 40.7061 22.687C40.9727 22.1453 41.3472 21.7306 41.8296 21.4429C42.312 21.1509 42.8664 21.0049 43.4927 21.0049C44.4194 21.0049 45.1706 21.3032 45.7461 21.8999C46.3258 22.4966 46.639 23.2879 46.6855 24.2739L46.6919 24.6357C46.6919 25.3128 46.5607 25.918 46.2983 26.4512C46.0402 26.9844 45.6678 27.397 45.1812 27.689C44.6987 27.981 44.1401 28.127 43.5054 28.127C42.5363 28.127 41.7598 27.8053 41.1758 27.1621C40.596 26.5146 40.3062 25.6535 40.3062 24.5786V24.5024ZM41.8486 24.6357C41.8486 25.3424 41.9946 25.8968 42.2866 26.2988C42.5786 26.6966 42.9849 26.8955 43.5054 26.8955C44.0259 26.8955 44.43 26.6924 44.7178 26.2861C45.0098 25.8799 45.1558 25.2853 45.1558 24.5024C45.1558 23.8084 45.0055 23.2583 44.7051 22.8521C44.4089 22.4458 44.0047 22.2427 43.4927 22.2427C42.9891 22.2427 42.5892 22.4437 42.293 22.8457C41.9967 23.2435 41.8486 23.8402 41.8486 24.6357ZM49.6372 28H48.0947V18.25H49.6372V28ZM54.3154 24.6929H50.9829V23.4487H54.3154V24.6929ZM59.438 26.1338C59.438 25.8587 59.3237 25.6493 59.0952 25.5054C58.8709 25.3615 58.4964 25.2345 57.9717 25.1245C57.4469 25.0145 57.009 24.8748 56.6577 24.7056C55.8875 24.3332 55.5024 23.7936 55.5024 23.0869C55.5024 22.4945 55.7521 21.9993 56.2515 21.6016C56.7508 21.2038 57.3856 21.0049 58.1558 21.0049C58.9767 21.0049 59.639 21.208 60.1426 21.6143C60.6504 22.0205 60.9043 22.5474 60.9043 23.1948H59.3618C59.3618 22.8986 59.2518 22.6532 59.0317 22.4585C58.8117 22.2596 58.5197 22.1602 58.1558 22.1602C57.8172 22.1602 57.54 22.2384 57.3242 22.395C57.1126 22.5516 57.0068 22.7611 57.0068 23.0234C57.0068 23.2604 57.1063 23.4445 57.3052 23.5757C57.5041 23.7069 57.9061 23.8402 58.5112 23.9756C59.1164 24.1068 59.5903 24.2655 59.9331 24.4517C60.2801 24.6336 60.5361 24.8537 60.7012 25.1118C60.8704 25.37 60.9551 25.6831 60.9551 26.0513C60.9551 26.6691 60.6991 27.1706 60.187 27.5557C59.675 27.9365 59.0042 28.127 58.1748 28.127C57.612 28.127 57.1105 28.0254 56.6704 27.8223C56.2303 27.6191 55.8875 27.3398 55.6421 26.9844C55.3966 26.6289 55.2739 26.2459 55.2739 25.8354H56.772C56.7931 26.1994 56.9307 26.4808 57.1846 26.6797C57.4385 26.8743 57.7749 26.9717 58.1938 26.9717C58.6001 26.9717 58.909 26.8955 59.1206 26.7432C59.3322 26.5866 59.438 26.3835 59.438 26.1338ZM64.2368 19.4624V21.1318H65.4492V22.2744H64.2368V26.1084C64.2368 26.3708 64.2876 26.5612 64.3892 26.6797C64.495 26.7939 64.6812 26.8511 64.9478 26.8511C65.1255 26.8511 65.3053 26.8299 65.4873 26.7876V27.981C65.1361 28.0783 64.7975 28.127 64.4717 28.127C63.2868 28.127 62.6943 27.4731 62.6943 26.1655V22.2744H61.5645V21.1318H62.6943V19.4624H64.2368ZM70.7368 28C70.6691 27.8688 70.6099 27.6551 70.5591 27.3589C70.0682 27.8709 69.4673 28.127 68.7563 28.127C68.0666 28.127 67.5037 27.9302 67.0679 27.5366C66.632 27.1431 66.4141 26.6564 66.4141 26.0767C66.4141 25.3446 66.6849 24.7839 67.2266 24.3945C67.7725 24.001 68.5511 23.8042 69.5625 23.8042H70.5083V23.3535C70.5083 22.998 70.4089 22.7145 70.21 22.5029C70.0111 22.2871 69.7085 22.1792 69.3022 22.1792C68.951 22.1792 68.6632 22.2681 68.439 22.4458C68.2147 22.6193 68.1025 22.8415 68.1025 23.1123H66.5601C66.5601 22.7357 66.6849 22.3844 66.9346 22.0586C67.1842 21.7285 67.5228 21.4704 67.9502 21.2842C68.3818 21.098 68.8621 21.0049 69.3911 21.0049C70.1951 21.0049 70.8363 21.208 71.3145 21.6143C71.7926 22.0163 72.0381 22.5833 72.0508 23.3154V26.4131C72.0508 27.0309 72.1375 27.5239 72.311 27.8921V28H70.7368ZM69.042 26.8892C69.3467 26.8892 69.6323 26.8151 69.8989 26.667C70.1698 26.5189 70.3729 26.32 70.5083 26.0703V24.7754H69.6768C69.1055 24.7754 68.6759 24.8748 68.3882 25.0737C68.1004 25.2726 67.9565 25.554 67.9565 25.918C67.9565 26.2142 68.0539 26.4512 68.2485 26.6289C68.4474 26.8024 68.7119 26.8892 69.042 26.8892ZM77.2622 22.541C77.0591 22.5072 76.8496 22.4902 76.6338 22.4902C75.9271 22.4902 75.451 22.7611 75.2056 23.3027V28H73.6631V21.1318H75.1357L75.1738 21.8999C75.5462 21.3032 76.0625 21.0049 76.7227 21.0049C76.9427 21.0049 77.1247 21.0345 77.2686 21.0938L77.2622 22.541ZM80.4868 19.4624V21.1318H81.6992V22.2744H80.4868V26.1084C80.4868 26.3708 80.5376 26.5612 80.6392 26.6797C80.745 26.7939 80.9312 26.8511 81.1978 26.8511C81.3755 26.8511 81.5553 26.8299 81.7373 26.7876V27.981C81.3861 28.0783 81.0475 28.127 80.7217 28.127C79.5368 28.127 78.9443 27.4731 78.9443 26.1655V22.2744H77.8145V21.1318H78.9443V19.4624H80.4868Z" fill="#1E73FF"/>
<path d="M17.3276 42.541C17.1245 42.5072 16.915 42.4902 16.6992 42.4902C15.9925 42.4902 15.5164 42.7611 15.271 43.3027V48H13.7285V41.1318H15.2012L15.2393 41.8999C15.6117 41.3032 16.1279 41.0049 16.7881 41.0049C17.0081 41.0049 17.1901 41.0345 17.334 41.0938L17.3276 42.541ZM17.7847 44.5024C17.7847 43.8296 17.918 43.2244 18.1846 42.687C18.4512 42.1453 18.8257 41.7306 19.3081 41.4429C19.7905 41.1509 20.3449 41.0049 20.9712 41.0049C21.8979 41.0049 22.6491 41.3032 23.2246 41.8999C23.8044 42.4966 24.1175 43.2879 24.1641 44.2739L24.1704 44.6357C24.1704 45.3128 24.0392 45.918 23.7769 46.4512C23.5187 46.9844 23.1463 47.397 22.6597 47.689C22.1772 47.981 21.6187 48.127 20.9839 48.127C20.0148 48.127 19.2383 47.8053 18.6543 47.1621C18.0745 46.5146 17.7847 45.6535 17.7847 44.5786V44.5024ZM19.3271 44.6357C19.3271 45.3424 19.4731 45.8968 19.7651 46.2988C20.0571 46.6966 20.4634 46.8955 20.9839 46.8955C21.5044 46.8955 21.9085 46.6924 22.1963 46.2861C22.4883 45.8799 22.6343 45.2853 22.6343 44.5024C22.6343 43.8084 22.484 43.2583 22.1836 42.8521C21.8874 42.4458 21.4832 42.2427 20.9712 42.2427C20.4676 42.2427 20.0677 42.4437 19.7715 42.8457C19.4753 43.2435 19.3271 43.8402 19.3271 44.6357ZM31.5083 45.8735L32.6001 41.1318H34.1045L32.2319 48H30.9624L29.4897 43.2837L28.0425 48H26.7729L24.894 41.1318H26.3984L27.5093 45.8228L28.9185 41.1318H30.0801L31.5083 45.8735ZM38.1289 44.6929H34.7964V43.4487H38.1289V44.6929ZM43.48 48H41.9438V40.5796L39.6777 41.354V40.0527L43.2832 38.7261H43.48V48Z" fill="#00986B"/>
<path d="M17.3276 99.541C17.1245 99.5072 16.915 99.4902 16.6992 99.4902C15.9925 99.4902 15.5164 99.7611 15.271 100.303V105H13.7285V98.1318H15.2012L15.2393 98.8999C15.6117 98.3032 16.1279 98.0049 16.7881 98.0049C17.0081 98.0049 17.1901 98.0345 17.334 98.0938L17.3276 99.541ZM17.7847 101.502C17.7847 100.83 17.918 100.224 18.1846 99.687C18.4512 99.1453 18.8257 98.7306 19.3081 98.4429C19.7905 98.1509 20.3449 98.0049 20.9712 98.0049C21.8979 98.0049 22.6491 98.3032 23.2246 98.8999C23.8044 99.4966 24.1175 100.288 24.1641 101.274L24.1704 101.636C24.1704 102.313 24.0392 102.918 23.7769 103.451C23.5187 103.984 23.1463 104.397 22.6597 104.689C22.1772 104.981 21.6187 105.127 20.9839 105.127C20.0148 105.127 19.2383 104.805 18.6543 104.162C18.0745 103.515 17.7847 102.653 17.7847 101.579V101.502ZM19.3271 101.636C19.3271 102.342 19.4731 102.897 19.7651 103.299C20.0571 103.697 20.4634 103.896 20.9839 103.896C21.5044 103.896 21.9085 103.692 22.1963 103.286C22.4883 102.88 22.6343 102.285 22.6343 101.502C22.6343 100.808 22.484 100.258 22.1836 99.8521C21.8874 99.4458 21.4832 99.2427 20.9712 99.2427C20.4676 99.2427 20.0677 99.4437 19.7715 99.8457C19.4753 100.243 19.3271 100.84 19.3271 101.636ZM31.5083 102.874L32.6001 98.1318H34.1045L32.2319 105H30.9624L29.4897 100.284L28.0425 105H26.7729L24.894 98.1318H26.3984L27.5093 102.823L28.9185 98.1318H30.0801L31.5083 102.874ZM38.1289 101.693H34.7964V100.449H38.1289V101.693ZM45.5176 105H39.3032V103.94L42.3818 100.582C42.8262 100.087 43.1414 99.6743 43.3276 99.3442C43.5181 99.0099 43.6133 98.6756 43.6133 98.3413C43.6133 97.9012 43.4884 97.5457 43.2388 97.2749C42.9933 97.0041 42.6611 96.8687 42.2422 96.8687C41.7428 96.8687 41.3556 97.021 41.0806 97.3257C40.8055 97.6304 40.668 98.0472 40.668 98.5762H39.1255C39.1255 98.0133 39.2524 97.5076 39.5063 97.0591C39.7645 96.6063 40.1305 96.255 40.6045 96.0054C41.0827 95.7557 41.6328 95.6309 42.2549 95.6309C43.152 95.6309 43.8587 95.8573 44.375 96.3101C44.8955 96.7586 45.1558 97.3807 45.1558 98.1763C45.1558 98.6375 45.0246 99.1221 44.7622 99.6299C44.5041 100.133 44.0788 100.707 43.4863 101.35L41.2266 103.769H45.5176V105Z" fill="#00986B"/>
<path d="M17.3276 161.541C17.1245 161.507 16.915 161.49 16.6992 161.49C15.9925 161.49 15.5164 161.761 15.271 162.303V167H13.7285V160.132H15.2012L15.2393 160.9C15.6117 160.303 16.1279 160.005 16.7881 160.005C17.0081 160.005 17.1901 160.035 17.334 160.094L17.3276 161.541ZM17.7847 163.502C17.7847 162.83 17.918 162.224 18.1846 161.687C18.4512 161.145 18.8257 160.731 19.3081 160.443C19.7905 160.151 20.3449 160.005 20.9712 160.005C21.8979 160.005 22.6491 160.303 23.2246 160.9C23.8044 161.497 24.1175 162.288 24.1641 163.274L24.1704 163.636C24.1704 164.313 24.0392 164.918 23.7769 165.451C23.5187 165.984 23.1463 166.397 22.6597 166.689C22.1772 166.981 21.6187 167.127 20.9839 167.127C20.0148 167.127 19.2383 166.805 18.6543 166.162C18.0745 165.515 17.7847 164.653 17.7847 163.579V163.502ZM19.3271 163.636C19.3271 164.342 19.4731 164.897 19.7651 165.299C20.0571 165.697 20.4634 165.896 20.9839 165.896C21.5044 165.896 21.9085 165.692 22.1963 165.286C22.4883 164.88 22.6343 164.285 22.6343 163.502C22.6343 162.808 22.484 162.258 22.1836 161.852C21.8874 161.446 21.4832 161.243 20.9712 161.243C20.4676 161.243 20.0677 161.444 19.7715 161.846C19.4753 162.243 19.3271 162.84 19.3271 163.636ZM31.5083 164.874L32.6001 160.132H34.1045L32.2319 167H30.9624L29.4897 162.284L28.0425 167H26.7729L24.894 160.132H26.3984L27.5093 164.823L28.9185 160.132H30.0801L31.5083 164.874ZM38.1289 163.693H34.7964V162.449H38.1289V163.693ZM41.0869 161.674H42.0264C42.5003 161.67 42.8748 161.547 43.1499 161.306C43.4292 161.065 43.5688 160.716 43.5688 160.259C43.5688 159.819 43.4525 159.478 43.2197 159.237C42.9912 158.991 42.64 158.869 42.166 158.869C41.7513 158.869 41.4106 158.989 41.144 159.23C40.8774 159.467 40.7441 159.778 40.7441 160.164H39.2017C39.2017 159.69 39.3265 159.258 39.5762 158.869C39.8301 158.479 40.1813 158.177 40.6299 157.961C41.0827 157.741 41.5884 157.631 42.147 157.631C43.0695 157.631 43.7931 157.864 44.3179 158.329C44.8468 158.79 45.1113 159.434 45.1113 160.259C45.1113 160.674 44.978 161.065 44.7114 161.433C44.4491 161.797 44.1084 162.072 43.6895 162.258C44.1973 162.432 44.5824 162.705 44.8447 163.077C45.1113 163.45 45.2446 163.894 45.2446 164.41C45.2446 165.24 44.959 165.9 44.3877 166.391C43.8206 166.882 43.0737 167.127 42.147 167.127C41.2583 167.127 40.5304 166.89 39.9634 166.416C39.3963 165.942 39.1128 165.312 39.1128 164.524H40.6553C40.6553 164.931 40.7907 165.261 41.0615 165.515C41.3366 165.769 41.7048 165.896 42.166 165.896C42.6442 165.896 43.0208 165.769 43.2959 165.515C43.571 165.261 43.7085 164.893 43.7085 164.41C43.7085 163.924 43.5646 163.549 43.2769 163.287C42.9891 163.024 42.5617 162.893 41.9946 162.893H41.0869V161.674Z" fill="#00986B"/>
<path d="M17.3276 223.541C17.1245 223.507 16.915 223.49 16.6992 223.49C15.9925 223.49 15.5164 223.761 15.271 224.303V229H13.7285V222.132H15.2012L15.2393 222.9C15.6117 222.303 16.1279 222.005 16.7881 222.005C17.0081 222.005 17.1901 222.035 17.334 222.094L17.3276 223.541ZM17.7847 225.502C17.7847 224.83 17.918 224.224 18.1846 223.687C18.4512 223.145 18.8257 222.731 19.3081 222.443C19.7905 222.151 20.3449 222.005 20.9712 222.005C21.8979 222.005 22.6491 222.303 23.2246 222.9C23.8044 223.497 24.1175 224.288 24.1641 225.274L24.1704 225.636C24.1704 226.313 24.0392 226.918 23.7769 227.451C23.5187 227.984 23.1463 228.397 22.6597 228.689C22.1772 228.981 21.6187 229.127 20.9839 229.127C20.0148 229.127 19.2383 228.805 18.6543 228.162C18.0745 227.515 17.7847 226.653 17.7847 225.579V225.502ZM19.3271 225.636C19.3271 226.342 19.4731 226.897 19.7651 227.299C20.0571 227.697 20.4634 227.896 20.9839 227.896C21.5044 227.896 21.9085 227.692 22.1963 227.286C22.4883 226.88 22.6343 226.285 22.6343 225.502C22.6343 224.808 22.484 224.258 22.1836 223.852C21.8874 223.446 21.4832 223.243 20.9712 223.243C20.4676 223.243 20.0677 223.444 19.7715 223.846C19.4753 224.243 19.3271 224.84 19.3271 225.636ZM31.5083 226.874L32.6001 222.132H34.1045L32.2319 229H30.9624L29.4897 224.284L28.0425 229H26.7729L24.894 222.132H26.3984L27.5093 226.823L28.9185 222.132H30.0801L31.5083 226.874ZM38.1289 225.693H34.7964V224.449H38.1289V225.693ZM44.521 225.706H45.6699V226.943H44.521V229H42.9785V226.943H38.9858L38.9414 226.004L42.9277 219.758H44.521V225.706ZM40.5601 225.706H42.9785V221.846L42.8643 222.049L40.5601 225.706Z" fill="#00986B"/>
<path d="M17.3276 282.541C17.1245 282.507 16.915 282.49 16.6992 282.49C15.9925 282.49 15.5164 282.761 15.271 283.303V288H13.7285V281.132H15.2012L15.2393 281.9C15.6117 281.303 16.1279 281.005 16.7881 281.005C17.0081 281.005 17.1901 281.035 17.334 281.094L17.3276 282.541ZM17.7847 284.502C17.7847 283.83 17.918 283.224 18.1846 282.687C18.4512 282.145 18.8257 281.731 19.3081 281.443C19.7905 281.151 20.3449 281.005 20.9712 281.005C21.8979 281.005 22.6491 281.303 23.2246 281.9C23.8044 282.497 24.1175 283.288 24.1641 284.274L24.1704 284.636C24.1704 285.313 24.0392 285.918 23.7769 286.451C23.5187 286.984 23.1463 287.397 22.6597 287.689C22.1772 287.981 21.6187 288.127 20.9839 288.127C20.0148 288.127 19.2383 287.805 18.6543 287.162C18.0745 286.515 17.7847 285.653 17.7847 284.579V284.502ZM19.3271 284.636C19.3271 285.342 19.4731 285.897 19.7651 286.299C20.0571 286.697 20.4634 286.896 20.9839 286.896C21.5044 286.896 21.9085 286.692 22.1963 286.286C22.4883 285.88 22.6343 285.285 22.6343 284.502C22.6343 283.808 22.484 283.258 22.1836 282.852C21.8874 282.446 21.4832 282.243 20.9712 282.243C20.4676 282.243 20.0677 282.444 19.7715 282.846C19.4753 283.243 19.3271 283.84 19.3271 284.636ZM31.5083 285.874L32.6001 281.132H34.1045L32.2319 288H30.9624L29.4897 283.284L28.0425 288H26.7729L24.894 281.132H26.3984L27.5093 285.823L28.9185 281.132H30.0801L31.5083 285.874ZM38.1289 284.693H34.7964V283.449H38.1289V284.693ZM39.7158 283.417L40.2173 278.758H45.1812V280.091H41.4995L41.2456 282.3C41.673 282.054 42.1554 281.932 42.6929 281.932C43.5731 281.932 44.2565 282.213 44.7432 282.776C45.234 283.339 45.4795 284.096 45.4795 285.048C45.4795 285.988 45.2087 286.737 44.667 287.295C44.1253 287.85 43.3826 288.127 42.439 288.127C41.5926 288.127 40.8901 287.888 40.3315 287.41C39.7772 286.927 39.4767 286.292 39.4302 285.505H40.9219C40.9811 285.954 41.1419 286.299 41.4043 286.54C41.6667 286.777 42.0094 286.896 42.4326 286.896C42.9066 286.896 43.2747 286.726 43.5371 286.388C43.8037 286.049 43.937 285.588 43.937 285.004C43.937 284.441 43.791 283.997 43.499 283.671C43.207 283.341 42.805 283.176 42.293 283.176C42.0137 283.176 41.7767 283.214 41.582 283.29C41.3874 283.362 41.1758 283.506 40.9473 283.722L39.7158 283.417Z" fill="#00986B"/>
<path d="M202.833 26.1338C202.833 25.8587 202.718 25.6493 202.49 25.5054C202.265 25.3615 201.891 25.2345 201.366 25.1245C200.841 25.0145 200.403 24.8748 200.052 24.7056C199.282 24.3332 198.897 23.7936 198.897 23.0869C198.897 22.4945 199.147 21.9993 199.646 21.6016C200.145 21.2038 200.78 21.0049 201.55 21.0049C202.371 21.0049 203.034 21.208 203.537 21.6143C204.045 22.0205 204.299 22.5474 204.299 23.1948H202.756C202.756 22.8986 202.646 22.6532 202.426 22.4585C202.206 22.2596 201.914 22.1602 201.55 22.1602C201.212 22.1602 200.935 22.2384 200.719 22.395C200.507 22.5516 200.401 22.7611 200.401 23.0234C200.401 23.2604 200.501 23.4445 200.7 23.5757C200.899 23.7069 201.301 23.8402 201.906 23.9756C202.511 24.1068 202.985 24.2655 203.328 24.4517C203.675 24.6336 203.931 24.8537 204.096 25.1118C204.265 25.37 204.35 25.6831 204.35 26.0513C204.35 26.6691 204.094 27.1706 203.582 27.5557C203.069 27.9365 202.399 28.127 201.569 28.127C201.007 28.127 200.505 28.0254 200.065 27.8223C199.625 27.6191 199.282 27.3398 199.037 26.9844C198.791 26.6289 198.668 26.2459 198.668 25.8354H200.167C200.188 26.1994 200.325 26.4808 200.579 26.6797C200.833 26.8743 201.169 26.9717 201.588 26.9717C201.995 26.9717 202.304 26.8955 202.515 26.7432C202.727 26.5866 202.833 26.3835 202.833 26.1338ZM208.723 28.127C207.746 28.127 206.952 27.8201 206.343 27.2065C205.738 26.5887 205.435 25.7677 205.435 24.7437V24.5532C205.435 23.8677 205.566 23.2562 205.829 22.7188C206.095 22.1771 206.468 21.756 206.946 21.4556C207.424 21.1551 207.957 21.0049 208.545 21.0049C209.481 21.0049 210.202 21.3032 210.71 21.8999C211.222 22.4966 211.478 23.3408 211.478 24.4326V25.0547H206.99C207.037 25.6217 207.225 26.0703 207.555 26.4004C207.889 26.7305 208.308 26.8955 208.812 26.8955C209.519 26.8955 210.094 26.6099 210.539 26.0386L211.37 26.832C211.095 27.2425 210.727 27.562 210.266 27.7905C209.809 28.0148 209.294 28.127 208.723 28.127ZM208.539 22.2427C208.116 22.2427 207.773 22.3908 207.511 22.687C207.253 22.9832 207.088 23.3958 207.016 23.9248H209.955V23.8105C209.921 23.2943 209.783 22.9049 209.542 22.6426C209.301 22.376 208.966 22.2427 208.539 22.2427ZM215.502 26.8955C215.888 26.8955 216.207 26.7834 216.461 26.5591C216.715 26.3348 216.85 26.0576 216.867 25.7275H218.321C218.304 26.1549 218.171 26.5549 217.921 26.9272C217.671 27.2954 217.333 27.5874 216.905 27.8032C216.478 28.019 216.017 28.127 215.521 28.127C214.561 28.127 213.799 27.8159 213.236 27.1938C212.674 26.5718 212.392 25.7127 212.392 24.6167V24.458C212.392 23.4128 212.671 22.577 213.23 21.9507C213.789 21.3201 214.55 21.0049 215.515 21.0049C216.332 21.0049 216.996 21.244 217.508 21.7222C218.025 22.1961 218.295 22.8203 218.321 23.5947H216.867C216.85 23.2012 216.715 22.8774 216.461 22.6235C216.211 22.3696 215.892 22.2427 215.502 22.2427C215.003 22.2427 214.618 22.4246 214.347 22.7886C214.076 23.1483 213.939 23.6963 213.935 24.4326V24.6802C213.935 25.425 214.068 25.9814 214.334 26.3496C214.605 26.7135 214.995 26.8955 215.502 26.8955ZM219.197 24.5024C219.197 23.8296 219.33 23.2244 219.597 22.687C219.863 22.1453 220.238 21.7306 220.72 21.4429C221.203 21.1509 221.757 21.0049 222.383 21.0049C223.31 21.0049 224.061 21.3032 224.637 21.8999C225.216 22.4966 225.53 23.2879 225.576 24.2739L225.583 24.6357C225.583 25.3128 225.451 25.918 225.189 26.4512C224.931 26.9844 224.558 27.397 224.072 27.689C223.589 27.981 223.031 28.127 222.396 28.127C221.427 28.127 220.65 27.8053 220.066 27.1621C219.487 26.5146 219.197 25.6535 219.197 24.5786V24.5024ZM220.739 24.6357C220.739 25.3424 220.885 25.8968 221.177 26.2988C221.469 26.6966 221.875 26.8955 222.396 26.8955C222.917 26.8955 223.321 26.6924 223.608 26.2861C223.9 25.8799 224.046 25.2853 224.046 24.5024C224.046 23.8084 223.896 23.2583 223.596 22.8521C223.299 22.4458 222.895 22.2427 222.383 22.2427C221.88 22.2427 221.48 22.4437 221.184 22.8457C220.887 23.2435 220.739 23.8402 220.739 24.6357ZM228.318 21.1318L228.363 21.9253C228.871 21.3117 229.537 21.0049 230.362 21.0049C231.793 21.0049 232.521 21.8237 232.546 23.4614V28H231.003V23.5503C231.003 23.1144 230.908 22.7928 230.718 22.5854C230.532 22.3739 230.225 22.2681 229.797 22.2681C229.175 22.2681 228.712 22.5495 228.407 23.1123V28H226.865V21.1318H228.318ZM233.834 24.5151C233.834 23.4572 234.08 22.6087 234.571 21.9697C235.062 21.3265 235.72 21.0049 236.545 21.0049C237.273 21.0049 237.861 21.2588 238.31 21.7666V18.25H239.852V28H238.456L238.379 27.2891C237.918 27.8477 237.302 28.127 236.532 28.127C235.728 28.127 235.076 27.8032 234.577 27.1558C234.082 26.5083 233.834 25.6281 233.834 24.5151ZM235.377 24.6484C235.377 25.3467 235.51 25.8926 235.777 26.2861C236.048 26.6755 236.431 26.8701 236.926 26.8701C237.556 26.8701 238.018 26.5887 238.31 26.0259V23.0933C238.026 22.5431 237.569 22.2681 236.938 22.2681C236.439 22.2681 236.054 22.467 235.783 22.8647C235.512 23.2583 235.377 23.8529 235.377 24.6484ZM244.454 24.6929H241.122V23.4487H244.454V24.6929ZM247.368 28H245.825V18.25H247.368V28ZM250.694 28H249.151V21.1318H250.694V28ZM249.056 19.3481C249.056 19.1112 249.13 18.9144 249.278 18.7578C249.431 18.6012 249.646 18.5229 249.926 18.5229C250.205 18.5229 250.421 18.6012 250.573 18.7578C250.726 18.9144 250.802 19.1112 250.802 19.3481C250.802 19.5809 250.726 19.7756 250.573 19.9321C250.421 20.0845 250.205 20.1606 249.926 20.1606C249.646 20.1606 249.431 20.0845 249.278 19.9321C249.13 19.7756 249.056 19.5809 249.056 19.3481ZM253.811 21.1318L253.855 21.9253C254.363 21.3117 255.029 21.0049 255.854 21.0049C257.285 21.0049 258.013 21.8237 258.038 23.4614V28H256.496V23.5503C256.496 23.1144 256.4 22.7928 256.21 22.5854C256.024 22.3739 255.717 22.2681 255.29 22.2681C254.667 22.2681 254.204 22.5495 253.899 23.1123V28H252.357V21.1318H253.811ZM262.64 28.127C261.663 28.127 260.869 27.8201 260.26 27.2065C259.655 26.5887 259.352 25.7677 259.352 24.7437V24.5532C259.352 23.8677 259.483 23.2562 259.746 22.7188C260.012 22.1771 260.385 21.756 260.863 21.4556C261.341 21.1551 261.874 21.0049 262.462 21.0049C263.398 21.0049 264.119 21.3032 264.627 21.8999C265.139 22.4966 265.395 23.3408 265.395 24.4326V25.0547H260.907C260.954 25.6217 261.142 26.0703 261.472 26.4004C261.806 26.7305 262.225 26.8955 262.729 26.8955C263.436 26.8955 264.011 26.6099 264.456 26.0386L265.287 26.832C265.012 27.2425 264.644 27.562 264.183 27.7905C263.726 28.0148 263.211 28.127 262.64 28.127ZM262.456 22.2427C262.033 22.2427 261.69 22.3908 261.428 22.687C261.17 22.9832 261.005 23.3958 260.933 23.9248H263.872V23.8105C263.838 23.2943 263.7 22.9049 263.459 22.6426C263.218 22.376 262.883 22.2427 262.456 22.2427Z" fill="#1E73FF"/>
<path d="M384.825 19.4624V21.1318H386.037V22.2744H384.825V26.1084C384.825 26.3708 384.875 26.5612 384.977 26.6797C385.083 26.7939 385.269 26.8511 385.536 26.8511C385.713 26.8511 385.893 26.8299 386.075 26.7876V27.981C385.724 28.0783 385.385 28.127 385.06 28.127C383.875 28.127 383.282 27.4731 383.282 26.1655V22.2744H382.152V21.1318H383.282V19.4624H384.825ZM388.741 21.8809C389.245 21.2969 389.882 21.0049 390.652 21.0049C392.116 21.0049 392.859 21.8407 392.88 23.5122V28H391.337V23.5693C391.337 23.0954 391.234 22.7611 391.026 22.5664C390.823 22.3675 390.523 22.2681 390.125 22.2681C389.507 22.2681 389.046 22.5431 388.741 23.0933V28H387.199V18.25H388.741V21.8809ZM396.085 28H394.543V21.1318H396.085V28ZM394.448 19.3481C394.448 19.1112 394.522 18.9144 394.67 18.7578C394.822 18.6012 395.038 18.5229 395.317 18.5229C395.597 18.5229 395.812 18.6012 395.965 18.7578C396.117 18.9144 396.193 19.1112 396.193 19.3481C396.193 19.5809 396.117 19.7756 395.965 19.9321C395.812 20.0845 395.597 20.1606 395.317 20.1606C395.038 20.1606 394.822 20.0845 394.67 19.9321C394.522 19.7756 394.448 19.5809 394.448 19.3481ZM401.367 22.541C401.164 22.5072 400.954 22.4902 400.738 22.4902C400.032 22.4902 399.556 22.7611 399.31 23.3027V28H397.768V21.1318H399.24L399.278 21.8999C399.651 21.3032 400.167 21.0049 400.827 21.0049C401.047 21.0049 401.229 21.0345 401.373 21.0938L401.367 22.541ZM401.925 24.5151C401.925 23.4572 402.171 22.6087 402.662 21.9697C403.153 21.3265 403.811 21.0049 404.636 21.0049C405.364 21.0049 405.952 21.2588 406.4 21.7666V18.25H407.943V28H406.546L406.47 27.2891C406.009 27.8477 405.393 28.127 404.623 28.127C403.819 28.127 403.167 27.8032 402.668 27.1558C402.173 26.5083 401.925 25.6281 401.925 24.5151ZM403.468 24.6484C403.468 25.3467 403.601 25.8926 403.868 26.2861C404.139 26.6755 404.521 26.8701 405.017 26.8701C405.647 26.8701 406.108 26.5887 406.4 26.0259V23.0933C406.117 22.5431 405.66 22.2681 405.029 22.2681C404.53 22.2681 404.145 22.467 403.874 22.8647C403.603 23.2583 403.468 23.8529 403.468 24.6484ZM412.545 24.6929H409.212V23.4487H412.545V24.6929ZM415.458 28H413.916V18.25H415.458V28ZM418.785 28H417.242V21.1318H418.785V28ZM417.147 19.3481C417.147 19.1112 417.221 18.9144 417.369 18.7578C417.521 18.6012 417.737 18.5229 418.017 18.5229C418.296 18.5229 418.512 18.6012 418.664 18.7578C418.816 18.9144 418.893 19.1112 418.893 19.3481C418.893 19.5809 418.816 19.7756 418.664 19.9321C418.512 20.0845 418.296 20.1606 418.017 20.1606C417.737 20.1606 417.521 20.0845 417.369 19.9321C417.221 19.7756 417.147 19.5809 417.147 19.3481ZM421.901 21.1318L421.946 21.9253C422.454 21.3117 423.12 21.0049 423.945 21.0049C425.376 21.0049 426.104 21.8237 426.129 23.4614V28H424.586V23.5503C424.586 23.1144 424.491 22.7928 424.301 22.5854C424.115 22.3739 423.808 22.2681 423.38 22.2681C422.758 22.2681 422.295 22.5495 421.99 23.1123V28H420.448V21.1318H421.901ZM430.731 28.127C429.753 28.127 428.96 27.8201 428.351 27.2065C427.745 26.5887 427.443 25.7677 427.443 24.7437V24.5532C427.443 23.8677 427.574 23.2562 427.836 22.7188C428.103 22.1771 428.475 21.756 428.954 21.4556C429.432 21.1551 429.965 21.0049 430.553 21.0049C431.488 21.0049 432.21 21.3032 432.718 21.8999C433.23 22.4966 433.486 23.3408 433.486 24.4326V25.0547H428.998C429.045 25.6217 429.233 26.0703 429.563 26.4004C429.897 26.7305 430.316 26.8955 430.82 26.8955C431.527 26.8955 432.102 26.6099 432.546 26.0386L433.378 26.832C433.103 27.2425 432.735 27.562 432.273 27.7905C431.816 28.0148 431.302 28.127 430.731 28.127ZM430.547 22.2427C430.124 22.2427 429.781 22.3908 429.519 22.687C429.26 22.9832 429.095 23.3958 429.023 23.9248H431.962V23.8105C431.929 23.2943 431.791 22.9049 431.55 22.6426C431.309 22.376 430.974 22.2427 430.547 22.2427Z" fill="#1E73FF"/>
<path d="M561.229 28H559.687V18.25H561.229V28ZM567.018 28C566.95 27.8688 566.891 27.6551 566.84 27.3589C566.349 27.8709 565.749 28.127 565.038 28.127C564.348 28.127 563.785 27.9302 563.349 27.5366C562.913 27.1431 562.695 26.6564 562.695 26.0767C562.695 25.3446 562.966 24.7839 563.508 24.3945C564.054 24.001 564.832 23.8042 565.844 23.8042H566.79V23.3535C566.79 22.998 566.69 22.7145 566.491 22.5029C566.292 22.2871 565.99 22.1792 565.583 22.1792C565.232 22.1792 564.944 22.2681 564.72 22.4458C564.496 22.6193 564.384 22.8415 564.384 23.1123H562.841C562.841 22.7357 562.966 22.3844 563.216 22.0586C563.465 21.7285 563.804 21.4704 564.231 21.2842C564.663 21.098 565.143 21.0049 565.672 21.0049C566.476 21.0049 567.118 21.208 567.596 21.6143C568.074 22.0163 568.319 22.5833 568.332 23.3154V26.4131C568.332 27.0309 568.419 27.5239 568.592 27.8921V28H567.018ZM565.323 26.8892C565.628 26.8892 565.914 26.8151 566.18 26.667C566.451 26.5189 566.654 26.32 566.79 26.0703V24.7754H565.958C565.387 24.7754 564.957 24.8748 564.669 25.0737C564.382 25.2726 564.238 25.554 564.238 25.918C564.238 26.2142 564.335 26.4512 564.53 26.6289C564.729 26.8024 564.993 26.8892 565.323 26.8892ZM573.797 26.1338C573.797 25.8587 573.683 25.6493 573.455 25.5054C573.23 25.3615 572.856 25.2345 572.331 25.1245C571.806 25.0145 571.368 24.8748 571.017 24.7056C570.247 24.3332 569.862 23.7936 569.862 23.0869C569.862 22.4945 570.111 21.9993 570.611 21.6016C571.11 21.2038 571.745 21.0049 572.515 21.0049C573.336 21.0049 573.998 21.208 574.502 21.6143C575.01 22.0205 575.264 22.5474 575.264 23.1948H573.721C573.721 22.8986 573.611 22.6532 573.391 22.4585C573.171 22.2596 572.879 22.1602 572.515 22.1602C572.177 22.1602 571.899 22.2384 571.684 22.395C571.472 22.5516 571.366 22.7611 571.366 23.0234C571.366 23.2604 571.466 23.4445 571.665 23.5757C571.863 23.7069 572.265 23.8402 572.871 23.9756C573.476 24.1068 573.95 24.2655 574.292 24.4517C574.639 24.6336 574.896 24.8537 575.061 25.1118C575.23 25.37 575.314 25.6831 575.314 26.0513C575.314 26.6691 575.058 27.1706 574.546 27.5557C574.034 27.9365 573.364 28.127 572.534 28.127C571.971 28.127 571.47 28.0254 571.03 27.8223C570.59 27.6191 570.247 27.3398 570.001 26.9844C569.756 26.6289 569.633 26.2459 569.633 25.8354H571.131C571.153 26.1994 571.29 26.4808 571.544 26.6797C571.798 26.8743 572.134 26.9717 572.553 26.9717C572.959 26.9717 573.268 26.8955 573.48 26.7432C573.692 26.5866 573.797 26.3835 573.797 26.1338ZM578.596 19.4624V21.1318H579.809V22.2744H578.596V26.1084C578.596 26.3708 578.647 26.5612 578.749 26.6797C578.854 26.7939 579.041 26.8511 579.307 26.8511C579.485 26.8511 579.665 26.8299 579.847 26.7876V27.981C579.495 28.0783 579.157 28.127 578.831 28.127C577.646 28.127 577.054 27.4731 577.054 26.1655V22.2744H575.924V21.1318H577.054V19.4624H578.596ZM583.985 24.6929H580.653V23.4487H583.985V24.6929ZM588.08 26.8955C588.465 26.8955 588.784 26.7834 589.038 26.5591C589.292 26.3348 589.427 26.0576 589.444 25.7275H590.898C590.881 26.1549 590.748 26.5549 590.498 26.9272C590.248 27.2954 589.91 27.5874 589.482 27.8032C589.055 28.019 588.594 28.127 588.099 28.127C587.138 28.127 586.376 27.8159 585.813 27.1938C585.251 26.5718 584.969 25.7127 584.969 24.6167V24.458C584.969 23.4128 585.249 22.577 585.807 21.9507C586.366 21.3201 587.127 21.0049 588.092 21.0049C588.909 21.0049 589.573 21.244 590.085 21.7222C590.602 22.1961 590.873 22.8203 590.898 23.5947H589.444C589.427 23.2012 589.292 22.8774 589.038 22.6235C588.788 22.3696 588.469 22.2427 588.08 22.2427C587.58 22.2427 587.195 22.4246 586.924 22.7886C586.653 23.1483 586.516 23.6963 586.512 24.4326V24.6802C586.512 25.425 586.645 25.9814 586.912 26.3496C587.182 26.7135 587.572 26.8955 588.08 26.8955ZM591.774 24.5024C591.774 23.8296 591.907 23.2244 592.174 22.687C592.44 22.1453 592.815 21.7306 593.297 21.4429C593.78 21.1509 594.334 21.0049 594.96 21.0049C595.887 21.0049 596.638 21.3032 597.214 21.8999C597.794 22.4966 598.107 23.2879 598.153 24.2739L598.16 24.6357C598.16 25.3128 598.028 25.918 597.766 26.4512C597.508 26.9844 597.136 27.397 596.649 27.689C596.167 27.981 595.608 28.127 594.973 28.127C594.004 28.127 593.228 27.8053 592.644 27.1621C592.064 26.5146 591.774 25.6535 591.774 24.5786V24.5024ZM593.316 24.6357C593.316 25.3424 593.462 25.8968 593.754 26.2988C594.046 26.6966 594.453 26.8955 594.973 26.8955C595.494 26.8955 595.898 26.6924 596.186 26.2861C596.478 25.8799 596.624 25.2853 596.624 24.5024C596.624 23.8084 596.473 23.2583 596.173 22.8521C595.877 22.4458 595.472 22.2427 594.96 22.2427C594.457 22.2427 594.057 22.4437 593.761 22.8457C593.465 23.2435 593.316 23.8402 593.316 24.6357ZM601.105 28H599.562V18.25H601.105V28Z" fill="#1E73FF"/>
<path d="M59 38L56.4019 33.5L61.5981 33.5L59 38Z" fill="#1E73FF"/>
<path d="M55 43L50.5 45.5981L50.5 40.4019L55 43Z" fill="#00986B"/>
<path d="M55 101L50.5 103.598L50.5 98.4019L55 101Z" fill="#00986B"/>
<path d="M55 163L50.5 165.598L50.5 160.402L55 163Z" fill="#00986B"/>
<path d="M55 225L50.5 227.598L50.5 222.402L55 225Z" fill="#00986B"/>
<path d="M55 283L50.5 285.598L50.5 280.402L55 283Z" fill="#00986B"/>
<path d="M232 38L229.402 33.5L234.598 33.5L232 38Z" fill="#1E73FF"/>
<path d="M408 38L405.402 33.5L410.598 33.5L408 38Z" fill="#1E73FF"/>
<path d="M581 38L578.402 33.5L583.598 33.5L581 38Z" fill="#1E73FF"/>
</svg>
