<svg width="640" height="298" viewBox="0 0 640 298" fill="none" xmlns="http://www.w3.org/2000/svg">
<rect width="640" height="298" fill="#F7F7F7"/>
<path d="M68 291C68 292.105 67.1046 293 66 293L52 293C50.8954 293 50 292.105 50 291L50 281.814C50 281.283 50.2112 280.774 50.587 280.399L57.587 273.411C58.3678 272.631 59.6323 272.631 60.413 273.411L67.413 280.399C67.7888 280.774 68 281.283 68 281.814L68 291Z" fill="#00986B"/>
<path d="M57.1133 285.947H54.0371V284.799H57.1133V285.947ZM63.0137 285.959H64.0742V287.102H63.0137V289H61.5898V287.102H57.9043L57.8633 286.234L61.543 280.469H63.0137V285.959ZM59.3574 285.959H61.5898V282.396L61.4844 282.584L59.3574 285.959Z" fill="white"/>
<path d="M241 291C241 292.105 240.105 293 239 293L225 293C223.895 293 223 292.105 223 291L223 281.814C223 281.283 223.211 280.774 223.587 280.399L230.587 273.411C231.368 272.631 232.632 272.631 233.413 273.411L240.413 280.399C240.789 280.774 241 281.283 241 281.814L241 291Z" fill="#00986B"/>
<path d="M230.113 285.947H227.037V284.799H230.113V285.947ZM232.844 284.084H233.711C234.148 284.08 234.494 283.967 234.748 283.744C235.006 283.521 235.135 283.199 235.135 282.777C235.135 282.371 235.027 282.057 234.812 281.834C234.602 281.607 234.277 281.494 233.84 281.494C233.457 281.494 233.143 281.605 232.896 281.828C232.65 282.047 232.527 282.334 232.527 282.689H231.104C231.104 282.252 231.219 281.854 231.449 281.494C231.684 281.135 232.008 280.855 232.422 280.656C232.84 280.453 233.307 280.352 233.822 280.352C234.674 280.352 235.342 280.566 235.826 280.996C236.314 281.422 236.559 282.016 236.559 282.777C236.559 283.16 236.436 283.521 236.189 283.861C235.947 284.197 235.633 284.451 235.246 284.623C235.715 284.783 236.07 285.035 236.312 285.379C236.559 285.723 236.682 286.133 236.682 286.609C236.682 287.375 236.418 287.984 235.891 288.438C235.367 288.891 234.678 289.117 233.822 289.117C233.002 289.117 232.33 288.898 231.807 288.461C231.283 288.023 231.021 287.441 231.021 286.715H232.445C232.445 287.09 232.57 287.395 232.82 287.629C233.074 287.863 233.414 287.98 233.84 287.98C234.281 287.98 234.629 287.863 234.883 287.629C235.137 287.395 235.264 287.055 235.264 286.609C235.264 286.16 235.131 285.814 234.865 285.572C234.6 285.33 234.205 285.209 233.682 285.209H232.844V284.084Z" fill="white"/>
<path d="M417 291C417 292.105 416.105 293 415 293L401 293C399.895 293 399 292.105 399 291L399 281.814C399 281.283 399.211 280.774 399.587 280.399L406.587 273.411C407.368 272.631 408.632 272.631 409.413 273.411L416.413 280.399C416.789 280.774 417 281.283 417 281.814L417 291Z" fill="#00986B"/>
<path d="M406.113 285.947H403.037V284.799H406.113V285.947ZM412.934 289H407.197V288.021L410.039 284.922C410.449 284.465 410.74 284.084 410.912 283.779C411.088 283.471 411.176 283.162 411.176 282.854C411.176 282.447 411.061 282.119 410.83 281.869C410.604 281.619 410.297 281.494 409.91 281.494C409.449 281.494 409.092 281.635 408.838 281.916C408.584 282.197 408.457 282.582 408.457 283.07H407.033C407.033 282.551 407.15 282.084 407.385 281.67C407.623 281.252 407.961 280.928 408.398 280.697C408.84 280.467 409.348 280.352 409.922 280.352C410.75 280.352 411.402 280.561 411.879 280.979C412.359 281.393 412.6 281.967 412.6 282.701C412.6 283.127 412.479 283.574 412.236 284.043C411.998 284.508 411.605 285.037 411.059 285.631L408.973 287.863H412.934V289Z" fill="white"/>
<path d="M590 291C590 292.105 589.105 293 588 293L574 293C572.895 293 572 292.105 572 291L572 281.814C572 281.283 572.211 280.774 572.587 280.399L579.587 273.411C580.368 272.631 581.632 272.631 582.413 273.411L589.413 280.399C589.789 280.774 590 281.283 590 281.814L590 291Z" fill="#00986B"/>
<path d="M579.113 285.947H576.037V284.799H579.113V285.947ZM584.053 289H582.635V282.15L580.543 282.865V281.664L583.871 280.439H584.053V289Z" fill="white"/>
<path d="M50 7C50 5.89543 50.8954 5 52 5H66C67.1046 5 68 5.89543 68 7V16.1857C68 16.7167 67.7888 17.2259 67.413 17.6011L60.413 24.5894C59.6323 25.3688 58.3677 25.3688 57.587 24.5894L50.587 17.6011C50.2112 17.2259 50 16.7167 50 16.1857V7Z" fill="#1E73FF"/>
<path d="M60.084 17H58.666V10.1504L56.5742 10.8652V9.66406L59.9023 8.43945H60.084V17Z" fill="white"/>
<path d="M223 7C223 5.89543 223.895 5 225 5H239C240.105 5 241 5.89543 241 7V16.1857C241 16.7167 240.789 17.2259 240.413 17.6011L233.413 24.5894C232.632 25.3688 231.368 25.3688 230.587 24.5894L223.587 17.6011C223.211 17.2259 223 16.7167 223 16.1857V7Z" fill="#1E73FF"/>
<path d="M234.965 17H229.229V16.0215L232.07 12.9219C232.48 12.4648 232.771 12.084 232.943 11.7793C233.119 11.4707 233.207 11.1621 233.207 10.8535C233.207 10.4473 233.092 10.1191 232.861 9.86914C232.635 9.61914 232.328 9.49414 231.941 9.49414C231.48 9.49414 231.123 9.63477 230.869 9.91602C230.615 10.1973 230.488 10.582 230.488 11.0703H229.064C229.064 10.5508 229.182 10.084 229.416 9.66992C229.654 9.25195 229.992 8.92773 230.43 8.69727C230.871 8.4668 231.379 8.35156 231.953 8.35156C232.781 8.35156 233.434 8.56055 233.91 8.97852C234.391 9.39258 234.631 9.9668 234.631 10.7012C234.631 11.127 234.51 11.5742 234.268 12.043C234.029 12.5078 233.637 13.0371 233.09 13.6309L231.004 15.8633H234.965V17Z" fill="white"/>
<path d="M399 7C399 5.89543 399.895 5 401 5H415C416.105 5 417 5.89543 417 7V16.1857C417 16.7167 416.789 17.2259 416.413 17.6011L409.413 24.5894C408.632 25.3688 407.368 25.3688 406.587 24.5894L399.587 17.6011C399.211 17.2259 399 16.7167 399 16.1857V7Z" fill="#1E73FF"/>
<path d="M406.875 12.084H407.742C408.18 12.0801 408.525 11.9668 408.779 11.7441C409.037 11.5215 409.166 11.1992 409.166 10.7773C409.166 10.3711 409.059 10.0566 408.844 9.83398C408.633 9.60742 408.309 9.49414 407.871 9.49414C407.488 9.49414 407.174 9.60547 406.928 9.82812C406.682 10.0469 406.559 10.334 406.559 10.6895H405.135C405.135 10.252 405.25 9.85352 405.48 9.49414C405.715 9.13477 406.039 8.85547 406.453 8.65625C406.871 8.45312 407.338 8.35156 407.854 8.35156C408.705 8.35156 409.373 8.56641 409.857 8.99609C410.346 9.42188 410.59 10.0156 410.59 10.7773C410.59 11.1602 410.467 11.5215 410.221 11.8613C409.979 12.1973 409.664 12.4512 409.277 12.623C409.746 12.7832 410.102 13.0352 410.344 13.3789C410.59 13.7227 410.713 14.1328 410.713 14.6094C410.713 15.375 410.449 15.9844 409.922 16.4375C409.398 16.8906 408.709 17.1172 407.854 17.1172C407.033 17.1172 406.361 16.8984 405.838 16.4609C405.314 16.0234 405.053 15.4414 405.053 14.7148H406.477C406.477 15.0898 406.602 15.3945 406.852 15.6289C407.105 15.8633 407.445 15.9805 407.871 15.9805C408.312 15.9805 408.66 15.8633 408.914 15.6289C409.168 15.3945 409.295 15.0547 409.295 14.6094C409.295 14.1602 409.162 13.8145 408.896 13.5723C408.631 13.3301 408.236 13.209 407.713 13.209H406.875V12.084Z" fill="white"/>
<path d="M572 7C572 5.89543 572.895 5 574 5H588C589.105 5 590 5.89543 590 7V16.1857C590 16.7167 589.789 17.2259 589.413 17.6011L582.413 24.5894C581.632 25.3688 580.368 25.3688 579.587 24.5894L572.587 17.6011C572.211 17.2259 572 16.7167 572 16.1857V7Z" fill="#1E73FF"/>
<path d="M583.045 13.959H584.105V15.1016H583.045V17H581.621V15.1016H577.936L577.895 14.2344L581.574 8.46875H583.045V13.959ZM579.389 13.959H581.621V10.3965L581.516 10.584L579.389 13.959Z" fill="white"/>
<path d="M38 37C36.8954 37 36 36.1046 36 35L36 21C36 19.8954 36.8954 19 38 19L47.1857 19C47.7167 19 48.2259 19.2112 48.6011 19.587L55.5894 26.587C56.3688 27.3677 56.3688 28.6323 55.5894 29.413L48.6011 36.413C48.2259 36.7888 47.7167 37 47.1857 37L38 37Z" fill="#1E73FF"/>
<path d="M45.084 32H43.666V25.1504L41.5742 25.8652V24.6641L44.9023 23.4395H45.084V32Z" fill="white"/>
<path d="M38 96C36.8954 96 36 95.1046 36 94L36 80C36 78.8954 36.8954 78 38 78L47.1857 78C47.7167 78 48.2259 78.2112 48.6011 78.587L55.5894 85.587C56.3688 86.3677 56.3688 87.6323 55.5894 88.413L48.6011 95.413C48.2259 95.7888 47.7167 96 47.1857 96L38 96Z" fill="#1E73FF"/>
<path d="M46.9648 91H41.2285V90.0215L44.0703 86.9219C44.4805 86.4648 44.7715 86.084 44.9434 85.7793C45.1191 85.4707 45.207 85.1621 45.207 84.8535C45.207 84.4473 45.0918 84.1191 44.8613 83.8691C44.6348 83.6191 44.3281 83.4941 43.9414 83.4941C43.4805 83.4941 43.123 83.6348 42.8691 83.916C42.6152 84.1973 42.4883 84.582 42.4883 85.0703H41.0645C41.0645 84.5508 41.1816 84.084 41.416 83.6699C41.6543 83.252 41.9922 82.9277 42.4297 82.6973C42.8711 82.4668 43.3789 82.3516 43.9531 82.3516C44.7812 82.3516 45.4336 82.5605 45.9102 82.9785C46.3906 83.3926 46.6309 83.9668 46.6309 84.7012C46.6309 85.127 46.5098 85.5742 46.2676 86.043C46.0293 86.5078 45.6367 87.0371 45.0898 87.6309L43.0039 89.8633H46.9648V91Z" fill="white"/>
<path d="M38 158C36.8954 158 36 157.105 36 156L36 142C36 140.895 36.8954 140 38 140L47.1857 140C47.7167 140 48.2259 140.211 48.6011 140.587L55.5894 147.587C56.3688 148.368 56.3688 149.632 55.5894 150.413L48.6011 157.413C48.2259 157.789 47.7167 158 47.1857 158L38 158Z" fill="#1E73FF"/>
<path d="M42.875 148.084H43.7422C44.1797 148.08 44.5254 147.967 44.7793 147.744C45.0371 147.521 45.166 147.199 45.166 146.777C45.166 146.371 45.0586 146.057 44.8438 145.834C44.6328 145.607 44.3086 145.494 43.8711 145.494C43.4883 145.494 43.1738 145.605 42.9277 145.828C42.6816 146.047 42.5586 146.334 42.5586 146.689H41.1348C41.1348 146.252 41.25 145.854 41.4805 145.494C41.7148 145.135 42.0391 144.855 42.4531 144.656C42.8711 144.453 43.3379 144.352 43.8535 144.352C44.7051 144.352 45.373 144.566 45.8574 144.996C46.3457 145.422 46.5898 146.016 46.5898 146.777C46.5898 147.16 46.4668 147.521 46.2207 147.861C45.9785 148.197 45.6641 148.451 45.2773 148.623C45.7461 148.783 46.1016 149.035 46.3438 149.379C46.5898 149.723 46.7129 150.133 46.7129 150.609C46.7129 151.375 46.4492 151.984 45.9219 152.438C45.3984 152.891 44.709 153.117 43.8535 153.117C43.0332 153.117 42.3613 152.898 41.8379 152.461C41.3145 152.023 41.0527 151.441 41.0527 150.715H42.4766C42.4766 151.09 42.6016 151.395 42.8516 151.629C43.1055 151.863 43.4453 151.98 43.8711 151.98C44.3125 151.98 44.6602 151.863 44.9141 151.629C45.168 151.395 45.2949 151.055 45.2949 150.609C45.2949 150.16 45.1621 149.814 44.8965 149.572C44.6309 149.33 44.2363 149.209 43.7129 149.209H42.875V148.084Z" fill="white"/>
<path d="M38 220C36.8954 220 36 219.105 36 218L36 204C36 202.895 36.8954 202 38 202L47.1857 202C47.7167 202 48.2259 202.211 48.6011 202.587L55.5894 209.587C56.3688 210.368 56.3688 211.632 55.5894 212.413L48.6011 219.413C48.2259 219.789 47.7167 220 47.1857 220L38 220Z" fill="#1E73FF"/>
<path d="M46.0449 211.959H47.1055V213.102H46.0449V215H44.6211V213.102H40.9355L40.8945 212.234L44.5742 206.469H46.0449V211.959ZM42.3887 211.959H44.6211V208.396L44.5156 208.584L42.3887 211.959Z" fill="white"/>
<path d="M38 279C36.8954 279 36 278.105 36 277L36 263C36 261.895 36.8954 261 38 261L47.1857 261C47.7167 261 48.2259 261.211 48.6011 261.587L55.5894 268.587C56.3688 269.368 56.3688 270.632 55.5894 271.413L48.6011 278.413C48.2259 278.789 47.7167 279 47.1857 279L38 279Z" fill="#1E73FF"/>
<path d="M41.6094 269.77L42.0723 265.469H46.6543V266.699H43.2559L43.0215 268.738C43.416 268.512 43.8613 268.398 44.3574 268.398C45.1699 268.398 45.8008 268.658 46.25 269.178C46.7031 269.697 46.9297 270.396 46.9297 271.275C46.9297 272.143 46.6797 272.834 46.1797 273.35C45.6797 273.861 44.9941 274.117 44.123 274.117C43.3418 274.117 42.6934 273.896 42.1777 273.455C41.666 273.01 41.3887 272.424 41.3457 271.697H42.7227C42.7773 272.111 42.9258 272.43 43.168 272.652C43.4102 272.871 43.7266 272.98 44.1172 272.98C44.5547 272.98 44.8945 272.824 45.1367 272.512C45.3828 272.199 45.5059 271.773 45.5059 271.234C45.5059 270.715 45.3711 270.305 45.1016 270.004C44.832 269.699 44.4609 269.547 43.9883 269.547C43.7305 269.547 43.5117 269.582 43.332 269.652C43.1523 269.719 42.957 269.852 42.7461 270.051L41.6094 269.77Z" fill="white"/>
<path d="M602 19C603.105 19 604 19.8954 604 21L604 35C604 36.1046 603.105 37 602 37L592.814 37C592.283 37 591.774 36.7888 591.399 36.413L584.411 29.413C583.631 28.6322 583.631 27.3677 584.411 26.587L591.399 19.587C591.774 19.2112 592.283 19 592.814 19L602 19Z" fill="#00986B"/>
<path d="M594.113 28.9473H591.037V27.7988H594.113V28.9473ZM595.578 27.7695L596.041 23.4688H600.623V24.6992H597.225L596.99 26.7383C597.385 26.5117 597.83 26.3984 598.326 26.3984C599.139 26.3984 599.77 26.6582 600.219 27.1777C600.672 27.6973 600.898 28.3965 600.898 29.2754C600.898 30.1426 600.648 30.834 600.148 31.3496C599.648 31.8613 598.963 32.1172 598.092 32.1172C597.311 32.1172 596.662 31.8965 596.146 31.4551C595.635 31.0098 595.357 30.4238 595.314 29.6973H596.691C596.746 30.1113 596.895 30.4297 597.137 30.6523C597.379 30.8711 597.695 30.9805 598.086 30.9805C598.523 30.9805 598.863 30.8242 599.105 30.5117C599.352 30.1992 599.475 29.7734 599.475 29.2344C599.475 28.7148 599.34 28.3047 599.07 28.0039C598.801 27.6992 598.43 27.5469 597.957 27.5469C597.699 27.5469 597.48 27.582 597.301 27.6523C597.121 27.7188 596.926 27.8516 596.715 28.0508L595.578 27.7695Z" fill="white"/>
<path d="M602 78C603.105 78 604 78.8954 604 80L604 94C604 95.1046 603.105 96 602 96L592.814 96C592.283 96 591.774 95.7888 591.399 95.413L584.411 88.413C583.631 87.6322 583.631 86.3677 584.411 85.587L591.399 78.587C591.774 78.2112 592.283 78 592.814 78L602 78Z" fill="#00986B"/>
<path d="M594.113 87.9473H591.037V86.7988H594.113V87.9473ZM600.014 87.959H601.074V89.1016H600.014V91H598.59V89.1016H594.904L594.863 88.2344L598.543 82.4688H600.014V87.959ZM596.357 87.959H598.59V84.3965L598.484 84.584L596.357 87.959Z" fill="white"/>
<path d="M602 140C603.105 140 604 140.895 604 142L604 156C604 157.105 603.105 158 602 158L592.814 158C592.283 158 591.774 157.789 591.399 157.413L584.411 150.413C583.631 149.632 583.631 148.368 584.411 147.587L591.399 140.587C591.774 140.211 592.283 140 592.814 140L602 140Z" fill="#00986B"/>
<path d="M594.113 149.947H591.037V148.799H594.113V149.947ZM596.844 148.084H597.711C598.148 148.08 598.494 147.967 598.748 147.744C599.006 147.521 599.135 147.199 599.135 146.777C599.135 146.371 599.027 146.057 598.812 145.834C598.602 145.607 598.277 145.494 597.84 145.494C597.457 145.494 597.143 145.605 596.896 145.828C596.65 146.047 596.527 146.334 596.527 146.689H595.104C595.104 146.252 595.219 145.854 595.449 145.494C595.684 145.135 596.008 144.855 596.422 144.656C596.84 144.453 597.307 144.352 597.822 144.352C598.674 144.352 599.342 144.566 599.826 144.996C600.314 145.422 600.559 146.016 600.559 146.777C600.559 147.16 600.436 147.521 600.189 147.861C599.947 148.197 599.633 148.451 599.246 148.623C599.715 148.783 600.07 149.035 600.312 149.379C600.559 149.723 600.682 150.133 600.682 150.609C600.682 151.375 600.418 151.984 599.891 152.438C599.367 152.891 598.678 153.117 597.822 153.117C597.002 153.117 596.33 152.898 595.807 152.461C595.283 152.023 595.021 151.441 595.021 150.715H596.445C596.445 151.09 596.57 151.395 596.82 151.629C597.074 151.863 597.414 151.98 597.84 151.98C598.281 151.98 598.629 151.863 598.883 151.629C599.137 151.395 599.264 151.055 599.264 150.609C599.264 150.16 599.131 149.814 598.865 149.572C598.6 149.33 598.205 149.209 597.682 149.209H596.844V148.084Z" fill="white"/>
<path d="M602 202C603.105 202 604 202.895 604 204L604 218C604 219.105 603.105 220 602 220L592.814 220C592.283 220 591.774 219.789 591.399 219.413L584.411 212.413C583.631 211.632 583.631 210.368 584.411 209.587L591.399 202.587C591.774 202.211 592.283 202 592.814 202L602 202Z" fill="#00986B"/>
<path d="M594.113 211.947H591.037V210.799H594.113V211.947ZM600.934 215H595.197V214.021L598.039 210.922C598.449 210.465 598.74 210.084 598.912 209.779C599.088 209.471 599.176 209.162 599.176 208.854C599.176 208.447 599.061 208.119 598.83 207.869C598.604 207.619 598.297 207.494 597.91 207.494C597.449 207.494 597.092 207.635 596.838 207.916C596.584 208.197 596.457 208.582 596.457 209.07H595.033C595.033 208.551 595.15 208.084 595.385 207.67C595.623 207.252 595.961 206.928 596.398 206.697C596.84 206.467 597.348 206.352 597.922 206.352C598.75 206.352 599.402 206.561 599.879 206.979C600.359 207.393 600.6 207.967 600.6 208.701C600.6 209.127 600.479 209.574 600.236 210.043C599.998 210.508 599.605 211.037 599.059 211.631L596.973 213.863H600.934V215Z" fill="white"/>
<path d="M602 261C603.105 261 604 261.895 604 263L604 277C604 278.105 603.105 279 602 279L592.814 279C592.283 279 591.774 278.789 591.399 278.413L584.411 271.413C583.631 270.632 583.631 269.368 584.411 268.587L591.399 261.587C591.774 261.211 592.283 261 592.814 261L602 261Z" fill="#00986B"/>
<path d="M594.113 270.947H591.037V269.799H594.113V270.947ZM599.053 274H597.635V267.15L595.543 267.865V266.664L598.871 265.439H599.053V274Z" fill="white"/>
<rect x="59" y="28" width="522" height="242" fill="white"/>
<path d="M228.5 29L228.5 269" stroke="#BBBBBB" stroke-dasharray="3 2"/>
<path d="M235.5 29L235.5 269" stroke="#BBBBBB" stroke-dasharray="3 2"/>
<path d="M404.5 29L404.5 269" stroke="#BBBBBB" stroke-dasharray="3 2"/>
<path d="M411.5 29L411.5 269" stroke="#BBBBBB" stroke-dasharray="3 2"/>
<path d="M60 90.5L580 90.5" stroke="#BBBBBB" stroke-dasharray="3 2"/>
<path d="M60 83.5L580 83.5" stroke="#BBBBBB" stroke-dasharray="3 2"/>
<path d="M60 152.5L580 152.5" stroke="#BBBBBB" stroke-dasharray="3 2"/>
<path d="M60 145.5L580 145.5" stroke="#BBBBBB" stroke-dasharray="3 2"/>
<path d="M60 214.5L580 214.5" stroke="#BBBBBB" stroke-dasharray="3 2"/>
<path d="M60 207.5L580 207.5" stroke="#BBBBBB" stroke-dasharray="3 2"/>
<rect x="59" y="28" width="522" height="242" stroke="#AAAAAA" stroke-width="2"/>
</svg>
