<svg width="722" height="360" viewBox="0 0 722 360" fill="none" xmlns="http://www.w3.org/2000/svg">
<g opacity="0.8">
<rect width="510" height="360" transform="translate(212)" fill="#F7F7F7"/>
<path d="M231 7C231 5.89543 231.895 5 233 5H247C248.105 5 249 5.89543 249 7V16.1857C249 16.7167 248.789 17.2259 248.413 17.6011L241.413 24.5894C240.632 25.3688 239.368 25.3688 238.587 24.5894L231.587 17.6011C231.211 17.2259 231 16.7167 231 16.1857V7Z" fill="#CCCCCC"/>
<path d="M241.084 17H239.666V10.1504L237.574 10.8652V9.66406L240.902 8.43945H241.084V17Z" fill="white"/>
<path d="M320 7C320 5.89543 320.895 5 322 5H336C337.105 5 338 5.89543 338 7V16.1857C338 16.7167 337.789 17.2259 337.413 17.6011L330.413 24.5894C329.632 25.3688 328.368 25.3688 327.587 24.5894L320.587 17.6011C320.211 17.2259 320 16.7167 320 16.1857V7Z" fill="#CCCCCC"/>
<path d="M331.965 17H326.229V16.0215L329.07 12.9219C329.48 12.4648 329.771 12.084 329.943 11.7793C330.119 11.4707 330.207 11.1621 330.207 10.8535C330.207 10.4473 330.092 10.1191 329.861 9.86914C329.635 9.61914 329.328 9.49414 328.941 9.49414C328.48 9.49414 328.123 9.63477 327.869 9.91602C327.615 10.1973 327.488 10.582 327.488 11.0703H326.064C326.064 10.5508 326.182 10.084 326.416 9.66992C326.654 9.25195 326.992 8.92773 327.43 8.69727C327.871 8.4668 328.379 8.35156 328.953 8.35156C329.781 8.35156 330.434 8.56055 330.91 8.97852C331.391 9.39258 331.631 9.9668 331.631 10.7012C331.631 11.127 331.51 11.5742 331.268 12.043C331.029 12.5078 330.637 13.0371 330.09 13.6309L328.004 15.8633H331.965V17Z" fill="white"/>
<path d="M412 7C412 5.89543 412.895 5 414 5H428C429.105 5 430 5.89543 430 7V16.1857C430 16.7167 429.789 17.2259 429.413 17.6011L422.413 24.5894C421.632 25.3688 420.368 25.3688 419.587 24.5894L412.587 17.6011C412.211 17.2259 412 16.7167 412 16.1857V7Z" fill="#CCCCCC"/>
<path d="M419.875 12.084H420.742C421.18 12.0801 421.525 11.9668 421.779 11.7441C422.037 11.5215 422.166 11.1992 422.166 10.7773C422.166 10.3711 422.059 10.0566 421.844 9.83398C421.633 9.60742 421.309 9.49414 420.871 9.49414C420.488 9.49414 420.174 9.60547 419.928 9.82812C419.682 10.0469 419.559 10.334 419.559 10.6895H418.135C418.135 10.252 418.25 9.85352 418.48 9.49414C418.715 9.13477 419.039 8.85547 419.453 8.65625C419.871 8.45312 420.338 8.35156 420.854 8.35156C421.705 8.35156 422.373 8.56641 422.857 8.99609C423.346 9.42188 423.59 10.0156 423.59 10.7773C423.59 11.1602 423.467 11.5215 423.221 11.8613C422.979 12.1973 422.664 12.4512 422.277 12.623C422.746 12.7832 423.102 13.0352 423.344 13.3789C423.59 13.7227 423.713 14.1328 423.713 14.6094C423.713 15.375 423.449 15.9844 422.922 16.4375C422.398 16.8906 421.709 17.1172 420.854 17.1172C420.033 17.1172 419.361 16.8984 418.838 16.4609C418.314 16.0234 418.053 15.4414 418.053 14.7148H419.477C419.477 15.0898 419.602 15.3945 419.852 15.6289C420.105 15.8633 420.445 15.9805 420.871 15.9805C421.312 15.9805 421.66 15.8633 421.914 15.6289C422.168 15.3945 422.295 15.0547 422.295 14.6094C422.295 14.1602 422.162 13.8145 421.896 13.5723C421.631 13.3301 421.236 13.209 420.713 13.209H419.875V12.084Z" fill="white"/>
<path d="M504 7C504 5.89543 504.895 5 506 5H520C521.105 5 522 5.89543 522 7V16.1857C522 16.7167 521.789 17.2259 521.413 17.6011L514.413 24.5894C513.632 25.3688 512.368 25.3688 511.587 24.5894L504.587 17.6011C504.211 17.2259 504 16.7167 504 16.1857V7Z" fill="#CCCCCC"/>
<path d="M515.045 13.959H516.105V15.1016H515.045V17H513.621V15.1016H509.936L509.895 14.2344L513.574 8.46875H515.045V13.959ZM511.389 13.959H513.621V10.3965L513.516 10.584L511.389 13.959Z" fill="white"/>
<path d="M596 7C596 5.89543 596.895 5 598 5H612C613.105 5 614 5.89543 614 7V16.1857C614 16.7167 613.789 17.2259 613.413 17.6011L606.413 24.5894C605.632 25.3688 604.368 25.3688 603.587 24.5894L596.587 17.6011C596.211 17.2259 596 16.7167 596 16.1857V7Z" fill="#CCCCCC"/>
<path d="M602.609 12.7695L603.072 8.46875H607.654V9.69922H604.256L604.021 11.7383C604.416 11.5117 604.861 11.3984 605.357 11.3984C606.17 11.3984 606.801 11.6582 607.25 12.1777C607.703 12.6973 607.93 13.3965 607.93 14.2754C607.93 15.1426 607.68 15.834 607.18 16.3496C606.68 16.8613 605.994 17.1172 605.123 17.1172C604.342 17.1172 603.693 16.8965 603.178 16.4551C602.666 16.0098 602.389 15.4238 602.346 14.6973H603.723C603.777 15.1113 603.926 15.4297 604.168 15.6523C604.41 15.8711 604.727 15.9805 605.117 15.9805C605.555 15.9805 605.895 15.8242 606.137 15.5117C606.383 15.1992 606.506 14.7734 606.506 14.2344C606.506 13.7148 606.371 13.3047 606.102 13.0039C605.832 12.6992 605.461 12.5469 604.988 12.5469C604.73 12.5469 604.512 12.582 604.332 12.6523C604.152 12.7188 603.957 12.8516 603.746 13.0508L602.609 12.7695Z" fill="white"/>
<path d="M685 7C685 5.89543 685.895 5 687 5H701C702.105 5 703 5.89543 703 7V16.1857C703 16.7167 702.789 17.2259 702.413 17.6011L695.413 24.5894C694.632 25.3688 693.368 25.3688 692.587 24.5894L685.587 17.6011C685.211 17.2259 685 16.7167 685 16.1857V7Z" fill="#CCCCCC"/>
<path d="M695.658 8.42773V9.60547H695.482C694.686 9.61719 694.049 9.83594 693.572 10.2617C693.096 10.6875 692.812 11.291 692.723 12.0723C693.18 11.5918 693.764 11.3516 694.475 11.3516C695.229 11.3516 695.822 11.6172 696.256 12.1484C696.693 12.6797 696.912 13.3652 696.912 14.2051C696.912 15.0723 696.656 15.7754 696.145 16.3145C695.637 16.8496 694.969 17.1172 694.141 17.1172C693.289 17.1172 692.598 16.8027 692.066 16.1738C691.539 15.5449 691.275 14.7207 691.275 13.7012V13.2148C691.275 11.7188 691.639 10.5469 692.365 9.69922C693.096 8.85156 694.145 8.42773 695.512 8.42773H695.658ZM694.129 12.5C693.816 12.5 693.529 12.5879 693.268 12.7637C693.01 12.9395 692.82 13.1738 692.699 13.4668V13.9004C692.699 14.5332 692.832 15.0371 693.098 15.4121C693.363 15.7832 693.707 15.9688 694.129 15.9688C694.551 15.9688 694.885 15.8105 695.131 15.4941C695.377 15.1777 695.5 14.7617 695.5 14.2461C695.5 13.7305 695.375 13.3105 695.125 12.9863C694.875 12.6621 694.543 12.5 694.129 12.5Z" fill="white"/>
<path d="M249 353C249 354.105 248.105 355 247 355L233 355C231.895 355 231 354.105 231 353L231 343.814C231 343.283 231.211 342.774 231.587 342.399L238.587 335.411C239.368 334.631 240.632 334.631 241.413 335.411L248.413 342.399C248.789 342.774 249 343.283 249 343.814L249 353Z" fill="#DDDDDD"/>
<path d="M238.113 347.947H235.037V346.799H238.113V347.947ZM243.627 342.428V343.605H243.451C242.654 343.617 242.018 343.836 241.541 344.262C241.064 344.688 240.781 345.291 240.691 346.072C241.148 345.592 241.732 345.352 242.443 345.352C243.197 345.352 243.791 345.617 244.225 346.148C244.662 346.68 244.881 347.365 244.881 348.205C244.881 349.072 244.625 349.775 244.113 350.314C243.605 350.85 242.938 351.117 242.109 351.117C241.258 351.117 240.566 350.803 240.035 350.174C239.508 349.545 239.244 348.721 239.244 347.701V347.215C239.244 345.719 239.607 344.547 240.334 343.699C241.064 342.852 242.113 342.428 243.48 342.428H243.627ZM242.098 346.5C241.785 346.5 241.498 346.588 241.236 346.764C240.979 346.939 240.789 347.174 240.668 347.467V347.9C240.668 348.533 240.801 349.037 241.066 349.412C241.332 349.783 241.676 349.969 242.098 349.969C242.52 349.969 242.854 349.811 243.1 349.494C243.346 349.178 243.469 348.762 243.469 348.246C243.469 347.73 243.344 347.311 243.094 346.986C242.844 346.662 242.512 346.5 242.098 346.5Z" fill="white"/>
<path d="M338 353C338 354.105 337.105 355 336 355L322 355C320.895 355 320 354.105 320 353L320 343.814C320 343.283 320.211 342.774 320.587 342.399L327.587 335.411C328.368 334.631 329.632 334.631 330.413 335.411L337.413 342.399C337.789 342.774 338 343.283 338 343.814L338 353Z" fill="#DDDDDD"/>
<path d="M327.113 347.947H324.037V346.799H327.113V347.947ZM328.578 346.77L329.041 342.469H333.623V343.699H330.225L329.99 345.738C330.385 345.512 330.83 345.398 331.326 345.398C332.139 345.398 332.77 345.658 333.219 346.178C333.672 346.697 333.898 347.396 333.898 348.275C333.898 349.143 333.648 349.834 333.148 350.35C332.648 350.861 331.963 351.117 331.092 351.117C330.311 351.117 329.662 350.896 329.146 350.455C328.635 350.01 328.357 349.424 328.314 348.697H329.691C329.746 349.111 329.895 349.43 330.137 349.652C330.379 349.871 330.695 349.98 331.086 349.98C331.523 349.98 331.863 349.824 332.105 349.512C332.352 349.199 332.475 348.773 332.475 348.234C332.475 347.715 332.34 347.305 332.07 347.004C331.801 346.699 331.43 346.547 330.957 346.547C330.699 346.547 330.48 346.582 330.301 346.652C330.121 346.719 329.926 346.852 329.715 347.051L328.578 346.77Z" fill="white"/>
<path d="M430 353C430 354.105 429.105 355 428 355L414 355C412.895 355 412 354.105 412 353L412 343.814C412 343.283 412.211 342.774 412.587 342.399L419.587 335.411C420.368 334.631 421.632 334.631 422.413 335.411L429.413 342.399C429.789 342.774 430 343.283 430 343.814L430 353Z" fill="#DDDDDD"/>
<path d="M419.113 347.947H416.037V346.799H419.113V347.947ZM425.014 347.959H426.074V349.102H425.014V351H423.59V349.102H419.904L419.863 348.234L423.543 342.469H425.014V347.959ZM421.357 347.959H423.59V344.396L423.484 344.584L421.357 347.959Z" fill="white"/>
<path d="M522 353C522 354.105 521.105 355 520 355L506 355C504.895 355 504 354.105 504 353L504 343.814C504 343.283 504.211 342.774 504.587 342.399L511.587 335.411C512.368 334.631 513.632 334.631 514.413 335.411L521.413 342.399C521.789 342.774 522 343.283 522 343.814L522 353Z" fill="#DDDDDD"/>
<path d="M511.113 347.947H508.037V346.799H511.113V347.947ZM513.844 346.084H514.711C515.148 346.08 515.494 345.967 515.748 345.744C516.006 345.521 516.135 345.199 516.135 344.777C516.135 344.371 516.027 344.057 515.812 343.834C515.602 343.607 515.277 343.494 514.84 343.494C514.457 343.494 514.143 343.605 513.896 343.828C513.65 344.047 513.527 344.334 513.527 344.689H512.104C512.104 344.252 512.219 343.854 512.449 343.494C512.684 343.135 513.008 342.855 513.422 342.656C513.84 342.453 514.307 342.352 514.822 342.352C515.674 342.352 516.342 342.566 516.826 342.996C517.314 343.422 517.559 344.016 517.559 344.777C517.559 345.16 517.436 345.521 517.189 345.861C516.947 346.197 516.633 346.451 516.246 346.623C516.715 346.783 517.07 347.035 517.312 347.379C517.559 347.723 517.682 348.133 517.682 348.609C517.682 349.375 517.418 349.984 516.891 350.438C516.367 350.891 515.678 351.117 514.822 351.117C514.002 351.117 513.33 350.898 512.807 350.461C512.283 350.023 512.021 349.441 512.021 348.715H513.445C513.445 349.09 513.57 349.395 513.82 349.629C514.074 349.863 514.414 349.98 514.84 349.98C515.281 349.98 515.629 349.863 515.883 349.629C516.137 349.395 516.264 349.055 516.264 348.609C516.264 348.16 516.131 347.814 515.865 347.572C515.6 347.33 515.205 347.209 514.682 347.209H513.844V346.084Z" fill="white"/>
<path d="M614 353C614 354.105 613.105 355 612 355L598 355C596.895 355 596 354.105 596 353L596 343.814C596 343.283 596.211 342.774 596.587 342.399L603.587 335.411C604.368 334.631 605.632 334.631 606.413 335.411L613.413 342.399C613.789 342.774 614 343.283 614 343.814L614 353Z" fill="#DDDDDD"/>
<path d="M603.113 347.947H600.037V346.799H603.113V347.947ZM609.934 351H604.197V350.021L607.039 346.922C607.449 346.465 607.74 346.084 607.912 345.779C608.088 345.471 608.176 345.162 608.176 344.854C608.176 344.447 608.061 344.119 607.83 343.869C607.604 343.619 607.297 343.494 606.91 343.494C606.449 343.494 606.092 343.635 605.838 343.916C605.584 344.197 605.457 344.582 605.457 345.07H604.033C604.033 344.551 604.15 344.084 604.385 343.67C604.623 343.252 604.961 342.928 605.398 342.697C605.84 342.467 606.348 342.352 606.922 342.352C607.75 342.352 608.402 342.561 608.879 342.979C609.359 343.393 609.6 343.967 609.6 344.701C609.6 345.127 609.479 345.574 609.236 346.043C608.998 346.508 608.605 347.037 608.059 347.631L605.973 349.863H609.934V351Z" fill="white"/>
<path d="M703 353C703 354.105 702.105 355 701 355L687 355C685.895 355 685 354.105 685 353L685 343.814C685 343.283 685.211 342.774 685.587 342.399L692.587 335.411C693.368 334.631 694.632 334.631 695.413 335.411L702.413 342.399C702.789 342.774 703 343.283 703 343.814L703 353Z" fill="#DDDDDD"/>
<path d="M692.113 347.947H689.037V346.799H692.113V347.947ZM697.053 351H695.635V344.15L693.543 344.865V343.664L696.871 342.439H697.053V351Z" fill="white"/>
<path d="M219 37C217.895 37 217 36.1046 217 35L217 21C217 19.8954 217.895 19 219 19L228.186 19C228.717 19 229.226 19.2112 229.601 19.587L236.589 26.587C237.369 27.3677 237.369 28.6323 236.589 29.413L229.601 36.413C229.226 36.7888 228.717 37 228.186 37L219 37Z" fill="#CCCCCC"/>
<path d="M226.084 32H224.666V25.1504L222.574 25.8652V24.6641L225.902 23.4395H226.084V32Z" fill="white"/>
<path d="M219 96C217.895 96 217 95.1046 217 94L217 80C217 78.8954 217.895 78 219 78L228.186 78C228.717 78 229.226 78.2112 229.601 78.587L236.589 85.587C237.369 86.3677 237.369 87.6323 236.589 88.413L229.601 95.413C229.226 95.7888 228.717 96 228.186 96L219 96Z" fill="#CCCCCC"/>
<path d="M227.965 91H222.229V90.0215L225.07 86.9219C225.48 86.4648 225.771 86.084 225.943 85.7793C226.119 85.4707 226.207 85.1621 226.207 84.8535C226.207 84.4473 226.092 84.1191 225.861 83.8691C225.635 83.6191 225.328 83.4941 224.941 83.4941C224.48 83.4941 224.123 83.6348 223.869 83.916C223.615 84.1973 223.488 84.582 223.488 85.0703H222.064C222.064 84.5508 222.182 84.084 222.416 83.6699C222.654 83.252 222.992 82.9277 223.43 82.6973C223.871 82.4668 224.379 82.3516 224.953 82.3516C225.781 82.3516 226.434 82.5605 226.91 82.9785C227.391 83.3926 227.631 83.9668 227.631 84.7012C227.631 85.127 227.51 85.5742 227.268 86.043C227.029 86.5078 226.637 87.0371 226.09 87.6309L224.004 89.8633H227.965V91Z" fill="white"/>
<path d="M219 158C217.895 158 217 157.105 217 156L217 142C217 140.895 217.895 140 219 140L228.186 140C228.717 140 229.226 140.211 229.601 140.587L236.589 147.587C237.369 148.368 237.369 149.632 236.589 150.413L229.601 157.413C229.226 157.789 228.717 158 228.186 158L219 158Z" fill="#CCCCCC"/>
<path d="M223.875 148.084H224.742C225.18 148.08 225.525 147.967 225.779 147.744C226.037 147.521 226.166 147.199 226.166 146.777C226.166 146.371 226.059 146.057 225.844 145.834C225.633 145.607 225.309 145.494 224.871 145.494C224.488 145.494 224.174 145.605 223.928 145.828C223.682 146.047 223.559 146.334 223.559 146.689H222.135C222.135 146.252 222.25 145.854 222.48 145.494C222.715 145.135 223.039 144.855 223.453 144.656C223.871 144.453 224.338 144.352 224.854 144.352C225.705 144.352 226.373 144.566 226.857 144.996C227.346 145.422 227.59 146.016 227.59 146.777C227.59 147.16 227.467 147.521 227.221 147.861C226.979 148.197 226.664 148.451 226.277 148.623C226.746 148.783 227.102 149.035 227.344 149.379C227.59 149.723 227.713 150.133 227.713 150.609C227.713 151.375 227.449 151.984 226.922 152.438C226.398 152.891 225.709 153.117 224.854 153.117C224.033 153.117 223.361 152.898 222.838 152.461C222.314 152.023 222.053 151.441 222.053 150.715H223.477C223.477 151.09 223.602 151.395 223.852 151.629C224.105 151.863 224.445 151.98 224.871 151.98C225.312 151.98 225.66 151.863 225.914 151.629C226.168 151.395 226.295 151.055 226.295 150.609C226.295 150.16 226.162 149.814 225.896 149.572C225.631 149.33 225.236 149.209 224.713 149.209H223.875V148.084Z" fill="white"/>
<path d="M219 220C217.895 220 217 219.105 217 218L217 204C217 202.895 217.895 202 219 202L228.186 202C228.717 202 229.226 202.211 229.601 202.587L236.589 209.587C237.369 210.368 237.369 211.632 236.589 212.413L229.601 219.413C229.226 219.789 228.717 220 228.186 220L219 220Z" fill="#CCCCCC"/>
<path d="M227.045 211.959H228.105V213.102H227.045V215H225.621V213.102H221.936L221.895 212.234L225.574 206.469H227.045V211.959ZM223.389 211.959H225.621V208.396L225.516 208.584L223.389 211.959Z" fill="white"/>
<path d="M219 282C217.895 282 217 281.105 217 280L217 266C217 264.895 217.895 264 219 264L228.186 264C228.717 264 229.226 264.211 229.601 264.587L236.589 271.587C237.369 272.368 237.369 273.632 236.589 274.413L229.601 281.413C229.226 281.789 228.717 282 228.186 282L219 282Z" fill="#CCCCCC"/>
<path d="M222.609 272.77L223.072 268.469H227.654V269.699H224.256L224.021 271.738C224.416 271.512 224.861 271.398 225.357 271.398C226.17 271.398 226.801 271.658 227.25 272.178C227.703 272.697 227.93 273.396 227.93 274.275C227.93 275.143 227.68 275.834 227.18 276.35C226.68 276.861 225.994 277.117 225.123 277.117C224.342 277.117 223.693 276.896 223.178 276.455C222.666 276.01 222.389 275.424 222.346 274.697H223.723C223.777 275.111 223.926 275.43 224.168 275.652C224.41 275.871 224.727 275.98 225.117 275.98C225.555 275.98 225.895 275.824 226.137 275.512C226.383 275.199 226.506 274.773 226.506 274.234C226.506 273.715 226.371 273.305 226.102 273.004C225.832 272.699 225.461 272.547 224.988 272.547C224.73 272.547 224.512 272.582 224.332 272.652C224.152 272.719 223.957 272.852 223.746 273.051L222.609 272.77Z" fill="white"/>
<path d="M219 341C217.895 341 217 340.105 217 339L217 325C217 323.895 217.895 323 219 323L228.186 323C228.717 323 229.226 323.211 229.601 323.587L236.589 330.587C237.369 331.368 237.369 332.632 236.589 333.413L229.601 340.413C229.226 340.789 228.717 341 228.186 341L219 341Z" fill="#CCCCCC"/>
<path d="M226.658 327.428V328.605H226.482C225.686 328.617 225.049 328.836 224.572 329.262C224.096 329.688 223.812 330.291 223.723 331.072C224.18 330.592 224.764 330.352 225.475 330.352C226.229 330.352 226.822 330.617 227.256 331.148C227.693 331.68 227.912 332.365 227.912 333.205C227.912 334.072 227.656 334.775 227.145 335.314C226.637 335.85 225.969 336.117 225.141 336.117C224.289 336.117 223.598 335.803 223.066 335.174C222.539 334.545 222.275 333.721 222.275 332.701V332.215C222.275 330.719 222.639 329.547 223.365 328.699C224.096 327.852 225.145 327.428 226.512 327.428H226.658ZM225.129 331.5C224.816 331.5 224.529 331.588 224.268 331.764C224.01 331.939 223.82 332.174 223.699 332.467V332.9C223.699 333.533 223.832 334.037 224.098 334.412C224.363 334.783 224.707 334.969 225.129 334.969C225.551 334.969 225.885 334.811 226.131 334.494C226.377 334.178 226.5 333.762 226.5 333.246C226.5 332.73 226.375 332.311 226.125 331.986C225.875 331.662 225.543 331.5 225.129 331.5Z" fill="white"/>
<path d="M715 19C716.105 19 717 19.8954 717 21L717 35C717 36.1046 716.105 37 715 37L705.814 37C705.283 37 704.774 36.7888 704.399 36.413L697.411 29.413C696.631 28.6322 696.631 27.3677 697.411 26.587L704.399 19.587C704.774 19.2112 705.283 19 705.814 19L715 19Z" fill="#DDDDDD"/>
<path d="M707.113 28.9473H704.037V27.7988H707.113V28.9473ZM712.627 23.4277V24.6055H712.451C711.654 24.6172 711.018 24.8359 710.541 25.2617C710.064 25.6875 709.781 26.291 709.691 27.0723C710.148 26.5918 710.732 26.3516 711.443 26.3516C712.197 26.3516 712.791 26.6172 713.225 27.1484C713.662 27.6797 713.881 28.3652 713.881 29.2051C713.881 30.0723 713.625 30.7754 713.113 31.3145C712.605 31.8496 711.938 32.1172 711.109 32.1172C710.258 32.1172 709.566 31.8027 709.035 31.1738C708.508 30.5449 708.244 29.7207 708.244 28.7012V28.2148C708.244 26.7188 708.607 25.5469 709.334 24.6992C710.064 23.8516 711.113 23.4277 712.48 23.4277H712.627ZM711.098 27.5C710.785 27.5 710.498 27.5879 710.236 27.7637C709.979 27.9395 709.789 28.1738 709.668 28.4668V28.9004C709.668 29.5332 709.801 30.0371 710.066 30.4121C710.332 30.7832 710.676 30.9688 711.098 30.9688C711.52 30.9688 711.854 30.8105 712.1 30.4941C712.346 30.1777 712.469 29.7617 712.469 29.2461C712.469 28.7305 712.344 28.3105 712.094 27.9863C711.844 27.6621 711.512 27.5 711.098 27.5Z" fill="white"/>
<path d="M715 78C716.105 78 717 78.8954 717 80L717 94C717 95.1046 716.105 96 715 96L705.814 96C705.283 96 704.774 95.7888 704.399 95.413L697.411 88.413C696.631 87.6322 696.631 86.3677 697.411 85.587L704.399 78.587C704.774 78.2112 705.283 78 705.814 78L715 78Z" fill="#DDDDDD"/>
<path d="M707.113 87.9473H704.037V86.7988H707.113V87.9473ZM708.578 86.7695L709.041 82.4688H713.623V83.6992H710.225L709.99 85.7383C710.385 85.5117 710.83 85.3984 711.326 85.3984C712.139 85.3984 712.77 85.6582 713.219 86.1777C713.672 86.6973 713.898 87.3965 713.898 88.2754C713.898 89.1426 713.648 89.834 713.148 90.3496C712.648 90.8613 711.963 91.1172 711.092 91.1172C710.311 91.1172 709.662 90.8965 709.146 90.4551C708.635 90.0098 708.357 89.4238 708.314 88.6973H709.691C709.746 89.1113 709.895 89.4297 710.137 89.6523C710.379 89.8711 710.695 89.9805 711.086 89.9805C711.523 89.9805 711.863 89.8242 712.105 89.5117C712.352 89.1992 712.475 88.7734 712.475 88.2344C712.475 87.7148 712.34 87.3047 712.07 87.0039C711.801 86.6992 711.43 86.5469 710.957 86.5469C710.699 86.5469 710.48 86.582 710.301 86.6523C710.121 86.7188 709.926 86.8516 709.715 87.0508L708.578 86.7695Z" fill="white"/>
<path d="M715 140C716.105 140 717 140.895 717 142L717 156C717 157.105 716.105 158 715 158L705.814 158C705.283 158 704.774 157.789 704.399 157.413L697.411 150.413C696.631 149.632 696.631 148.368 697.411 147.587L704.399 140.587C704.774 140.211 705.283 140 705.814 140L715 140Z" fill="#DDDDDD"/>
<path d="M707.113 149.947H704.037V148.799H707.113V149.947ZM713.014 149.959H714.074V151.102H713.014V153H711.59V151.102H707.904L707.863 150.234L711.543 144.469H713.014V149.959ZM709.357 149.959H711.59V146.396L711.484 146.584L709.357 149.959Z" fill="white"/>
<path d="M715 202C716.105 202 717 202.895 717 204L717 218C717 219.105 716.105 220 715 220L705.814 220C705.283 220 704.774 219.789 704.399 219.413L697.411 212.413C696.631 211.632 696.631 210.368 697.411 209.587L704.399 202.587C704.774 202.211 705.283 202 705.814 202L715 202Z" fill="#DDDDDD"/>
<path d="M707.113 211.947H704.037V210.799H707.113V211.947ZM709.844 210.084H710.711C711.148 210.08 711.494 209.967 711.748 209.744C712.006 209.521 712.135 209.199 712.135 208.777C712.135 208.371 712.027 208.057 711.812 207.834C711.602 207.607 711.277 207.494 710.84 207.494C710.457 207.494 710.143 207.605 709.896 207.828C709.65 208.047 709.527 208.334 709.527 208.689H708.104C708.104 208.252 708.219 207.854 708.449 207.494C708.684 207.135 709.008 206.855 709.422 206.656C709.84 206.453 710.307 206.352 710.822 206.352C711.674 206.352 712.342 206.566 712.826 206.996C713.314 207.422 713.559 208.016 713.559 208.777C713.559 209.16 713.436 209.521 713.189 209.861C712.947 210.197 712.633 210.451 712.246 210.623C712.715 210.783 713.07 211.035 713.312 211.379C713.559 211.723 713.682 212.133 713.682 212.609C713.682 213.375 713.418 213.984 712.891 214.438C712.367 214.891 711.678 215.117 710.822 215.117C710.002 215.117 709.33 214.898 708.807 214.461C708.283 214.023 708.021 213.441 708.021 212.715H709.445C709.445 213.09 709.57 213.395 709.82 213.629C710.074 213.863 710.414 213.98 710.84 213.98C711.281 213.98 711.629 213.863 711.883 213.629C712.137 213.395 712.264 213.055 712.264 212.609C712.264 212.16 712.131 211.814 711.865 211.572C711.6 211.33 711.205 211.209 710.682 211.209H709.844V210.084Z" fill="white"/>
<path d="M715 264C716.105 264 717 264.895 717 266L717 280C717 281.105 716.105 282 715 282L705.814 282C705.283 282 704.774 281.789 704.399 281.413L697.411 274.413C696.631 273.632 696.631 272.368 697.411 271.587L704.399 264.587C704.774 264.211 705.283 264 705.814 264L715 264Z" fill="#DDDDDD"/>
<path d="M707.113 273.947H704.037V272.799H707.113V273.947ZM713.934 277H708.197V276.021L711.039 272.922C711.449 272.465 711.74 272.084 711.912 271.779C712.088 271.471 712.176 271.162 712.176 270.854C712.176 270.447 712.061 270.119 711.83 269.869C711.604 269.619 711.297 269.494 710.91 269.494C710.449 269.494 710.092 269.635 709.838 269.916C709.584 270.197 709.457 270.582 709.457 271.07H708.033C708.033 270.551 708.15 270.084 708.385 269.67C708.623 269.252 708.961 268.928 709.398 268.697C709.84 268.467 710.348 268.352 710.922 268.352C711.75 268.352 712.402 268.561 712.879 268.979C713.359 269.393 713.6 269.967 713.6 270.701C713.6 271.127 713.479 271.574 713.236 272.043C712.998 272.508 712.605 273.037 712.059 273.631L709.973 275.863H713.934V277Z" fill="white"/>
<path d="M715 323C716.105 323 717 323.895 717 325L717 339C717 340.105 716.105 341 715 341L705.814 341C705.283 341 704.774 340.789 704.399 340.413L697.411 333.413C696.631 332.632 696.631 331.368 697.411 330.587L704.399 323.587C704.774 323.211 705.283 323 705.814 323L715 323Z" fill="#DDDDDD"/>
<path d="M707.113 332.947H704.037V331.799H707.113V332.947ZM712.053 336H710.635V329.15L708.543 329.865V328.664L711.871 327.439H712.053V336Z" fill="white"/>
<rect width="452" height="302" transform="translate(241 29)" fill="white"/>
<path d="M243 36C243 33.2386 245.239 31 248 31H318C320.761 31 323 33.2386 323 36V76C323 78.7614 320.761 81 318 81H248C245.239 81 243 78.7614 243 76V36Z" fill="#DDDDDD"/>
<path d="M284.855 60.6667H283.083V52.1047L280.468 52.9982V51.4967L284.628 49.966H284.855V60.6667Z" fill="#444444"/>
<path d="M335 36C335 33.2386 337.239 31 340 31H410C412.761 31 415 33.2386 415 36V76C415 78.7614 412.761 81 410 81H340C337.239 81 335 78.7614 335 76V36Z" fill="#DDDDDD"/>
<path d="M379.206 60.6667H372.036V59.4435L375.588 55.569C376.101 54.9977 376.464 54.5217 376.679 54.1408C376.899 53.7551 377.009 53.3693 377.009 52.9836C377.009 52.4758 376.865 52.0656 376.577 51.7531C376.293 51.4406 375.91 51.2843 375.427 51.2843C374.851 51.2843 374.404 51.4601 374.086 51.8117C373.769 52.1633 373.61 52.6442 373.61 53.2546H371.831C371.831 52.6051 371.977 52.0217 372.27 51.5041C372.568 50.9816 372.99 50.5763 373.537 50.2883C374.089 50.0002 374.724 49.8561 375.441 49.8561C376.477 49.8561 377.292 50.1174 377.888 50.6398C378.488 51.1574 378.789 51.8752 378.789 52.7931C378.789 53.3254 378.637 53.8844 378.334 54.4704C378.037 55.0514 377.546 55.7131 376.862 56.4552L374.255 59.2458H379.206V60.6667Z" fill="#444444"/>
<path d="M427 36C427 33.2386 429.239 31 432 31H502C504.761 31 507 33.2386 507 36V76C507 78.7614 504.761 81 502 81H432C429.239 81 427 78.7614 427 76V36Z" fill="#DDDDDD"/>
<path d="M466.094 54.5217H467.178C467.725 54.5168 468.157 54.3752 468.474 54.0968C468.796 53.8185 468.958 53.4157 468.958 52.8884C468.958 52.3805 468.823 51.9875 468.555 51.7092C468.291 51.4259 467.886 51.2843 467.339 51.2843C466.86 51.2843 466.467 51.4235 466.16 51.7018C465.852 51.9753 465.698 52.3342 465.698 52.7785H463.918C463.918 52.2316 464.062 51.7336 464.351 51.2843C464.644 50.8351 465.049 50.486 465.566 50.237C466.089 49.9831 466.672 49.8561 467.317 49.8561C468.381 49.8561 469.216 50.1247 469.822 50.6618C470.432 51.194 470.737 51.9362 470.737 52.8884C470.737 53.3669 470.583 53.8185 470.276 54.2433C469.973 54.6633 469.58 54.9806 469.097 55.1955C469.683 55.3957 470.127 55.7106 470.43 56.1403C470.737 56.57 470.891 57.0827 470.891 57.6784C470.891 58.6354 470.562 59.3971 469.902 59.9635C469.248 60.53 468.386 60.8132 467.317 60.8132C466.292 60.8132 465.452 60.5397 464.797 59.9928C464.143 59.446 463.816 58.7184 463.816 57.8102H465.596C465.596 58.279 465.752 58.6598 466.064 58.9528C466.382 59.2458 466.807 59.3923 467.339 59.3923C467.891 59.3923 468.325 59.2458 468.643 58.9528C468.96 58.6598 469.119 58.235 469.119 57.6784C469.119 57.1169 468.953 56.6847 468.621 56.382C468.289 56.0793 467.795 55.9279 467.141 55.9279H466.094V54.5217Z" fill="#444444"/>
<path d="M519 36C519 33.2386 521.239 31 524 31H594C596.761 31 599 33.2386 599 36V76C599 78.7614 596.761 81 594 81H524C521.239 81 519 78.7614 519 76V36Z" fill="#DDDDDD"/>
<path d="M562.056 56.8654H563.382V58.2936H562.056V60.6667H560.276V58.2936H555.669L555.618 57.2096L560.218 50.0026H562.056V56.8654ZM557.486 56.8654H560.276V52.4123L560.145 52.6467L557.486 56.8654Z" fill="#444444"/>
<path d="M611 36C611 33.2386 613.239 31 616 31H686C688.761 31 691 33.2386 691 36V76C691 78.7614 688.761 81 686 81H616C613.239 81 611 78.7614 611 76V36Z" fill="#DDDDDD"/>
<path d="M648.512 55.3786L649.09 50.0026H654.818V51.5407H650.57L650.277 54.0895C650.77 53.8063 651.327 53.6647 651.947 53.6647C652.962 53.6647 653.751 53.9894 654.312 54.6388C654.879 55.2883 655.162 56.1623 655.162 57.2609C655.162 58.3449 654.85 59.2092 654.225 59.8537C653.6 60.4933 652.743 60.8132 651.654 60.8132C650.677 60.8132 649.867 60.5373 649.222 59.9855C648.583 59.4289 648.236 58.6965 648.182 57.7883H649.903C649.972 58.3058 650.157 58.7038 650.46 58.9821C650.763 59.2555 651.158 59.3923 651.646 59.3923C652.193 59.3923 652.618 59.1969 652.921 58.8063C653.229 58.4157 653.382 57.8835 653.382 57.2096C653.382 56.5602 653.214 56.0475 652.877 55.6716C652.54 55.2907 652.076 55.1003 651.485 55.1003C651.163 55.1003 650.89 55.1442 650.665 55.2321C650.44 55.3151 650.196 55.4811 649.933 55.7301L648.512 55.3786Z" fill="#444444"/>
<path d="M243 98C243 95.2386 245.239 93 248 93H318C320.761 93 323 95.2386 323 98V138C323 140.761 320.761 143 318 143H248C245.239 143 243 140.761 243 138V98Z" fill="#DDDDDD"/>
<path d="M285.573 111.951V113.424H285.353C284.357 113.438 283.561 113.712 282.965 114.244C282.37 114.776 282.016 115.53 281.903 116.507C282.475 115.906 283.205 115.606 284.093 115.606C285.036 115.606 285.778 115.938 286.32 116.602C286.867 117.266 287.14 118.123 287.14 119.173C287.14 120.257 286.82 121.136 286.181 121.81C285.546 122.479 284.711 122.813 283.676 122.813C282.611 122.813 281.747 122.42 281.083 121.634C280.424 120.848 280.094 119.818 280.094 118.543V117.935C280.094 116.065 280.548 114.6 281.457 113.541C282.37 112.481 283.681 111.951 285.39 111.951H285.573ZM283.661 117.042C283.271 117.042 282.912 117.152 282.584 117.371C282.262 117.591 282.025 117.884 281.874 118.25V118.792C281.874 119.583 282.04 120.213 282.372 120.682C282.704 121.146 283.134 121.378 283.661 121.378C284.188 121.378 284.606 121.18 284.914 120.784C285.221 120.389 285.375 119.869 285.375 119.224C285.375 118.58 285.219 118.055 284.906 117.65C284.594 117.244 284.179 117.042 283.661 117.042Z" fill="#444444"/>
<path d="M335 98C335 95.2386 337.239 93 340 93H410C412.761 93 415 95.2386 415 98V138C415 140.761 412.761 143 410 143H340C337.239 143 335 140.761 335 138V98Z" fill="#DDDDDD"/>
<path d="M379.133 112.991L374.87 122.667H373.002L377.258 113.431H371.743V112.003H379.133V112.991Z" fill="#444444"/>
<path d="M427 98C427 95.2386 429.239 93 432 93H502C504.761 93 507 95.2386 507 98V138C507 140.761 504.761 143 502 143H432C429.239 143 427 140.761 427 138V98Z" fill="#DDDDDD"/>
<path d="M470.752 114.815C470.752 115.338 470.618 115.804 470.349 116.214C470.081 116.619 469.714 116.939 469.25 117.174C469.807 117.432 470.234 117.786 470.532 118.236C470.835 118.685 470.986 119.193 470.986 119.759C470.986 120.696 470.669 121.441 470.034 121.993C469.399 122.54 468.555 122.813 467.5 122.813C466.44 122.813 465.591 122.537 464.951 121.986C464.316 121.434 463.999 120.692 463.999 119.759C463.999 119.188 464.15 118.675 464.453 118.221C464.756 117.767 465.181 117.418 465.728 117.174C465.269 116.939 464.905 116.619 464.636 116.214C464.373 115.804 464.241 115.338 464.241 114.815C464.241 113.907 464.534 113.187 465.12 112.654C465.706 112.122 466.497 111.856 467.493 111.856C468.494 111.856 469.287 112.122 469.873 112.654C470.459 113.187 470.752 113.907 470.752 114.815ZM469.207 119.671C469.207 119.144 469.048 118.719 468.73 118.397C468.418 118.07 468.003 117.906 467.485 117.906C466.968 117.906 466.553 118.067 466.24 118.389C465.933 118.712 465.779 119.139 465.779 119.671C465.779 120.194 465.93 120.611 466.233 120.924C466.541 121.236 466.963 121.392 467.5 121.392C468.037 121.392 468.455 121.241 468.752 120.938C469.055 120.635 469.207 120.213 469.207 119.671ZM468.979 114.881C468.979 114.417 468.845 114.036 468.577 113.738C468.308 113.436 467.947 113.284 467.493 113.284C467.039 113.284 466.68 113.428 466.416 113.716C466.152 114 466.021 114.388 466.021 114.881C466.021 115.369 466.152 115.757 466.416 116.046C466.685 116.334 467.046 116.478 467.5 116.478C467.954 116.478 468.313 116.334 468.577 116.046C468.845 115.757 468.979 115.369 468.979 114.881Z" fill="#444444"/>
<path d="M519 98C519 95.2386 521.239 93 524 93H594C596.761 93 599 95.2386 599 98V138C599 140.761 596.761 143 594 143H524C521.239 143 519 140.761 519 138V98Z" fill="#DDDDDD"/>
<path d="M561.082 118.206C560.486 118.836 559.791 119.151 558.995 119.151C558.057 119.151 557.31 118.824 556.753 118.17C556.197 117.51 555.918 116.646 555.918 115.577C555.918 114.874 556.06 114.236 556.343 113.665C556.626 113.094 557.029 112.65 557.552 112.332C558.074 112.015 558.68 111.856 559.368 111.856C560.442 111.856 561.294 112.257 561.924 113.057C562.554 113.858 562.869 114.93 562.869 116.273V116.771C562.869 118.695 562.435 120.162 561.565 121.173C560.696 122.183 559.4 122.696 557.676 122.711H557.464V121.238H557.72C558.77 121.224 559.576 120.972 560.137 120.484C560.699 119.991 561.014 119.232 561.082 118.206ZM559.368 117.759C559.725 117.759 560.059 117.657 560.372 117.452C560.684 117.247 560.926 116.964 561.097 116.602V115.906C561.097 115.12 560.936 114.488 560.613 114.009C560.291 113.531 559.874 113.292 559.361 113.292C558.848 113.292 558.438 113.504 558.13 113.929C557.828 114.349 557.676 114.881 557.676 115.526C557.676 116.195 557.83 116.734 558.138 117.144C558.445 117.554 558.855 117.759 559.368 117.759Z" fill="#444444"/>
<path d="M611 98C611 95.2386 613.239 93 616 93H686C688.761 93 691 95.2386 691 98V138C691 140.761 688.761 143 686 143H616C613.239 143 611 140.761 611 138V98Z" fill="#DDDDDD"/>
<path d="M648.092 122.667H646.32V114.105L643.705 114.998V113.497L647.865 111.966H648.092V122.667ZM658.749 118.177C658.749 119.71 658.461 120.867 657.885 121.649C657.313 122.425 656.442 122.813 655.27 122.813C654.118 122.813 653.249 122.435 652.663 121.678C652.082 120.916 651.784 119.791 651.769 118.301V116.456C651.769 114.923 652.055 113.773 652.626 113.006C653.202 112.239 654.079 111.856 655.255 111.856C656.422 111.856 657.292 112.23 657.863 112.977C658.439 113.724 658.734 114.842 658.749 116.331V118.177ZM656.969 116.185C656.969 115.184 656.833 114.451 656.559 113.987C656.286 113.519 655.851 113.284 655.255 113.284C654.674 113.284 654.247 113.507 653.974 113.951C653.7 114.39 653.556 115.079 653.542 116.016V118.433C653.542 119.429 653.681 120.172 653.959 120.66C654.237 121.148 654.674 121.392 655.27 121.392C655.841 121.392 656.264 121.168 656.537 120.718C656.811 120.264 656.955 119.556 656.969 118.594V116.185Z" fill="#444444"/>
<path d="M243 160C243 157.239 245.239 155 248 155H318C320.761 155 323 157.239 323 160V200C323 202.761 320.761 205 318 205H248C245.239 205 243 202.761 243 200V160Z" fill="#DDDDDD"/>
<path d="M280.092 184.667H278.32V176.105L275.705 176.998V175.497L279.865 173.966H280.092V184.667ZM288.618 184.667H286.845V176.105L284.23 176.998V175.497L288.391 173.966H288.618V184.667Z" fill="#444444"/>
<path d="M335 160C335 157.239 337.239 155 340 155H410C412.761 155 415 157.239 415 160V200C415 202.761 412.761 205 410 205H340C337.239 205 335 202.761 335 200V160Z" fill="#DDDDDD"/>
<path d="M372.092 184.667H370.32V176.105L367.705 176.998V175.497L371.865 173.966H372.092V184.667ZM382.969 184.667H375.798V183.444L379.351 179.569C379.863 178.998 380.227 178.522 380.442 178.141C380.662 177.755 380.771 177.369 380.771 176.984C380.771 176.476 380.627 176.066 380.339 175.753C380.056 175.441 379.673 175.284 379.189 175.284C378.613 175.284 378.167 175.46 377.849 175.812C377.532 176.163 377.373 176.644 377.373 177.255H375.593C375.593 176.605 375.74 176.022 376.033 175.504C376.331 174.982 376.753 174.576 377.3 174.288C377.852 174 378.486 173.856 379.204 173.856C380.239 173.856 381.055 174.117 381.65 174.64C382.251 175.157 382.551 175.875 382.551 176.793C382.551 177.325 382.4 177.884 382.097 178.47C381.799 179.051 381.309 179.713 380.625 180.455L378.018 183.246H382.969V184.667Z" fill="#444444"/>
<path d="M427 160C427 157.239 429.239 155 432 155H502C504.761 155 507 157.239 507 160V200C507 202.761 504.761 205 502 205H432C429.239 205 427 202.761 427 200V160Z" fill="#DDDDDD"/>
<path d="M464.092 184.667H462.32V176.105L459.705 176.998V175.497L463.865 173.966H464.092V184.667ZM469.856 178.522H470.94C471.487 178.517 471.919 178.375 472.237 178.097C472.559 177.819 472.72 177.416 472.72 176.888C472.72 176.381 472.586 175.987 472.317 175.709C472.054 175.426 471.648 175.284 471.102 175.284C470.623 175.284 470.23 175.423 469.922 175.702C469.615 175.975 469.461 176.334 469.461 176.778H467.681C467.681 176.232 467.825 175.734 468.113 175.284C468.406 174.835 468.812 174.486 469.329 174.237C469.852 173.983 470.435 173.856 471.08 173.856C472.144 173.856 472.979 174.125 473.584 174.662C474.195 175.194 474.5 175.936 474.5 176.888C474.5 177.367 474.346 177.819 474.039 178.243C473.736 178.663 473.343 178.981 472.859 179.195C473.445 179.396 473.89 179.711 474.192 180.14C474.5 180.57 474.654 181.083 474.654 181.678C474.654 182.635 474.324 183.397 473.665 183.964C473.011 184.53 472.149 184.813 471.08 184.813C470.054 184.813 469.214 184.54 468.56 183.993C467.906 183.446 467.579 182.718 467.579 181.81H469.358C469.358 182.279 469.515 182.66 469.827 182.953C470.145 183.246 470.569 183.392 471.102 183.392C471.653 183.392 472.088 183.246 472.405 182.953C472.723 182.66 472.881 182.235 472.881 181.678C472.881 181.117 472.715 180.685 472.383 180.382C472.051 180.079 471.558 179.928 470.904 179.928H469.856V178.522Z" fill="#444444"/>
<path d="M519 160C519 157.239 521.239 155 524 155H594C596.761 155 599 157.239 599 160V200C599 202.761 596.761 205 594 205H524C521.239 205 519 202.761 519 200V160Z" fill="#DDDDDD"/>
<path d="M556.092 184.667H554.32V176.105L551.705 176.998V175.497L555.865 173.966H556.092V184.667ZM565.819 180.865H567.145V182.294H565.819V184.667H564.039V182.294H559.432L559.381 181.21L563.98 174.003H565.819V180.865ZM561.249 180.865H564.039V176.412L563.907 176.647L561.249 180.865Z" fill="#444444"/>
<path d="M611 160C611 157.239 613.239 155 616 155H686C688.761 155 691 157.239 691 160V200C691 202.761 688.761 205 686 205H616C613.239 205 611 202.761 611 200V160Z" fill="#DDDDDD"/>
<path d="M648.092 184.667H646.32V176.105L643.705 176.998V175.497L647.865 173.966H648.092V184.667ZM652.274 179.379L652.853 174.003H658.581V175.541H654.333L654.04 178.09C654.533 177.806 655.089 177.665 655.709 177.665C656.725 177.665 657.514 177.989 658.075 178.639C658.642 179.288 658.925 180.162 658.925 181.261C658.925 182.345 658.612 183.209 657.987 183.854C657.362 184.493 656.505 184.813 655.417 184.813C654.44 184.813 653.629 184.537 652.985 183.986C652.345 183.429 651.999 182.696 651.945 181.788H653.666C653.734 182.306 653.92 182.704 654.223 182.982C654.525 183.256 654.921 183.392 655.409 183.392C655.956 183.392 656.381 183.197 656.684 182.806C656.991 182.416 657.145 181.883 657.145 181.21C657.145 180.56 656.977 180.048 656.64 179.672C656.303 179.291 655.839 179.1 655.248 179.1C654.926 179.1 654.652 179.144 654.428 179.232C654.203 179.315 653.959 179.481 653.695 179.73L652.274 179.379Z" fill="#444444"/>
<path d="M243 222C243 219.239 245.239 217 248 217H318C320.761 217 323 219.239 323 222V262C323 264.761 320.761 267 318 267H248C245.239 267 243 264.761 243 262V222Z" fill="#DDDDDD"/>
<path d="M280.092 246.667H278.32V238.105L275.705 238.998V237.497L279.865 235.966H280.092V246.667ZM289.335 235.951V237.423H289.116C288.12 237.438 287.324 237.712 286.728 238.244C286.132 238.776 285.778 239.53 285.666 240.507C286.237 239.906 286.967 239.606 287.856 239.606C288.798 239.606 289.541 239.938 290.083 240.602C290.629 241.266 290.903 242.123 290.903 243.173C290.903 244.257 290.583 245.136 289.943 245.81C289.309 246.479 288.474 246.813 287.438 246.813C286.374 246.813 285.51 246.42 284.846 245.634C284.187 244.848 283.857 243.818 283.857 242.543V241.935C283.857 240.065 284.311 238.6 285.219 237.541C286.132 236.481 287.443 235.951 289.152 235.951H289.335ZM287.424 241.042C287.033 241.042 286.674 241.152 286.347 241.371C286.025 241.591 285.788 241.884 285.637 242.25V242.792C285.637 243.583 285.803 244.213 286.135 244.682C286.467 245.146 286.896 245.378 287.424 245.378C287.951 245.378 288.369 245.18 288.676 244.784C288.984 244.389 289.138 243.869 289.138 243.224C289.138 242.58 288.981 242.055 288.669 241.65C288.356 241.244 287.941 241.042 287.424 241.042Z" fill="#444444"/>
<path d="M335 222C335 219.239 337.239 217 340 217H410C412.761 217 415 219.239 415 222V262C415 264.761 412.761 267 410 267H340C337.239 267 335 264.761 335 262V222Z" fill="#DDDDDD"/>
<path d="M372.092 246.667H370.32V238.105L367.705 238.998V237.497L371.865 235.966H372.092V246.667ZM382.896 236.991L378.633 246.667H376.765L381.021 237.431H375.505V236.003H382.896V236.991Z" fill="#444444"/>
<path d="M427 222C427 219.239 429.239 217 432 217H502C504.761 217 507 219.239 507 222V262C507 264.761 504.761 267 502 267H432C429.239 267 427 264.761 427 262V222Z" fill="#DDDDDD"/>
<path d="M464.092 246.667H462.32V238.105L459.705 238.998V237.497L463.865 235.966H464.092V246.667ZM474.515 238.815C474.515 239.338 474.38 239.804 474.112 240.214C473.843 240.619 473.477 240.939 473.013 241.173C473.57 241.432 473.997 241.786 474.295 242.236C474.598 242.685 474.749 243.193 474.749 243.759C474.749 244.696 474.432 245.441 473.797 245.993C473.162 246.54 472.317 246.813 471.263 246.813C470.203 246.813 469.354 246.537 468.714 245.986C468.079 245.434 467.762 244.692 467.762 243.759C467.762 243.188 467.913 242.675 468.216 242.221C468.519 241.767 468.943 241.418 469.49 241.173C469.031 240.939 468.667 240.619 468.399 240.214C468.135 239.804 468.003 239.338 468.003 238.815C468.003 237.907 468.296 237.187 468.882 236.654C469.468 236.122 470.259 235.856 471.255 235.856C472.256 235.856 473.05 236.122 473.636 236.654C474.222 237.187 474.515 237.907 474.515 238.815ZM472.969 243.671C472.969 243.144 472.811 242.719 472.493 242.397C472.181 242.069 471.766 241.906 471.248 241.906C470.73 241.906 470.315 242.067 470.003 242.389C469.695 242.712 469.542 243.139 469.542 243.671C469.542 244.194 469.693 244.611 469.996 244.923C470.303 245.236 470.726 245.392 471.263 245.392C471.8 245.392 472.217 245.241 472.515 244.938C472.818 244.635 472.969 244.213 472.969 243.671ZM472.742 238.881C472.742 238.417 472.608 238.036 472.339 237.738C472.071 237.436 471.709 237.284 471.255 237.284C470.801 237.284 470.442 237.428 470.179 237.716C469.915 238 469.783 238.388 469.783 238.881C469.783 239.369 469.915 239.757 470.179 240.046C470.447 240.334 470.809 240.478 471.263 240.478C471.717 240.478 472.076 240.334 472.339 240.046C472.608 239.757 472.742 239.369 472.742 238.881Z" fill="#444444"/>
<path d="M519 222C519 219.239 521.239 217 524 217H594C596.761 217 599 219.239 599 222V262C599 264.761 596.761 267 594 267H524C521.239 267 519 264.761 519 262V222Z" fill="#DDDDDD"/>
<path d="M556.092 246.667H554.32V238.105L551.705 238.998V237.497L555.865 235.966H556.092V246.667ZM564.845 242.206C564.249 242.836 563.553 243.151 562.757 243.151C561.82 243.151 561.073 242.824 560.516 242.17C559.959 241.51 559.681 240.646 559.681 239.577C559.681 238.874 559.823 238.236 560.106 237.665C560.389 237.094 560.792 236.65 561.314 236.332C561.837 236.015 562.442 235.856 563.131 235.856C564.205 235.856 565.057 236.257 565.687 237.057C566.317 237.858 566.632 238.93 566.632 240.273V240.771C566.632 242.694 566.197 244.162 565.328 245.173C564.459 246.183 563.163 246.696 561.439 246.711H561.227V245.238H561.483C562.533 245.224 563.338 244.972 563.9 244.484C564.461 243.991 564.776 243.232 564.845 242.206ZM563.131 241.759C563.487 241.759 563.822 241.657 564.134 241.452C564.447 241.247 564.688 240.964 564.859 240.602V239.906C564.859 239.12 564.698 238.488 564.376 238.009C564.054 237.531 563.636 237.292 563.124 237.292C562.611 237.292 562.201 237.504 561.893 237.929C561.59 238.349 561.439 238.881 561.439 239.526C561.439 240.194 561.593 240.734 561.9 241.144C562.208 241.554 562.618 241.759 563.131 241.759Z" fill="#444444"/>
<path d="M611 222C611 219.239 613.239 217 616 217H686C688.761 217 691 219.239 691 222V262C691 264.761 688.761 267 686 267H616C613.239 267 611 264.761 611 262V222Z" fill="#DDDDDD"/>
<path d="M650.443 246.667H643.273V245.444L646.825 241.569C647.338 240.998 647.702 240.522 647.917 240.141C648.136 239.755 648.246 239.369 648.246 238.984C648.246 238.476 648.102 238.066 647.814 237.753C647.531 237.441 647.147 237.284 646.664 237.284C646.088 237.284 645.641 237.46 645.324 237.812C645.006 238.163 644.848 238.644 644.848 239.255H643.068C643.068 238.605 643.214 238.022 643.507 237.504C643.805 236.982 644.228 236.576 644.774 236.288C645.326 236 645.961 235.856 646.679 235.856C647.714 235.856 648.529 236.117 649.125 236.64C649.726 237.157 650.026 237.875 650.026 238.793C650.026 239.325 649.875 239.884 649.572 240.47C649.274 241.051 648.783 241.713 648.1 242.455L645.492 245.246H650.443V246.667ZM658.749 242.177C658.749 243.71 658.461 244.867 657.885 245.649C657.313 246.425 656.442 246.813 655.27 246.813C654.118 246.813 653.249 246.435 652.663 245.678C652.082 244.916 651.784 243.791 651.769 242.301V240.456C651.769 238.923 652.055 237.773 652.626 237.006C653.202 236.239 654.079 235.856 655.255 235.856C656.422 235.856 657.292 236.23 657.863 236.977C658.439 237.724 658.734 238.842 658.749 240.331V242.177ZM656.969 240.185C656.969 239.184 656.833 238.451 656.559 237.987C656.286 237.519 655.851 237.284 655.255 237.284C654.674 237.284 654.247 237.507 653.974 237.951C653.7 238.39 653.556 239.079 653.542 240.016V242.433C653.542 243.429 653.681 244.172 653.959 244.66C654.237 245.148 654.674 245.392 655.27 245.392C655.841 245.392 656.264 245.168 656.537 244.718C656.811 244.264 656.955 243.556 656.969 242.594V240.185Z" fill="#444444"/>
<path d="M243 284C243 281.239 245.239 279 248 279H318C320.761 279 323 281.239 323 284V324C323 326.761 320.761 329 318 329H248C245.239 329 243 326.761 243 324V284Z" fill="#DDDDDD"/>
<path d="M282.443 308.667H275.273V307.444L278.825 303.569C279.338 302.998 279.702 302.522 279.917 302.141C280.136 301.755 280.246 301.369 280.246 300.984C280.246 300.476 280.102 300.066 279.814 299.753C279.531 299.441 279.147 299.284 278.664 299.284C278.088 299.284 277.641 299.46 277.324 299.812C277.006 300.163 276.848 300.644 276.848 301.255H275.068C275.068 300.605 275.214 300.022 275.507 299.504C275.805 298.982 276.228 298.576 276.774 298.288C277.326 298 277.961 297.856 278.679 297.856C279.714 297.856 280.529 298.117 281.125 298.64C281.726 299.157 282.026 299.875 282.026 300.793C282.026 301.325 281.875 301.884 281.572 302.47C281.274 303.051 280.783 303.713 280.1 304.455L277.492 307.246H282.443V308.667ZM288.618 308.667H286.845V300.105L284.23 300.998V299.497L288.391 297.966H288.618V308.667Z" fill="#444444"/>
<path d="M335 284C335 281.239 337.239 279 340 279H410C412.761 279 415 281.239 415 284V324C415 326.761 412.761 329 410 329H340C337.239 329 335 326.761 335 324V284Z" fill="#DDDDDD"/>
<path d="M374.443 308.667H367.273V307.444L370.825 303.569C371.338 302.998 371.702 302.522 371.917 302.141C372.136 301.755 372.246 301.369 372.246 300.984C372.246 300.476 372.102 300.066 371.814 299.753C371.531 299.441 371.147 299.284 370.664 299.284C370.088 299.284 369.641 299.46 369.324 299.812C369.006 300.163 368.848 300.644 368.848 301.255H367.068C367.068 300.605 367.214 300.022 367.507 299.504C367.805 298.982 368.228 298.576 368.774 298.288C369.326 298 369.961 297.856 370.679 297.856C371.714 297.856 372.529 298.117 373.125 298.64C373.726 299.157 374.026 299.875 374.026 300.793C374.026 301.325 373.875 301.884 373.572 302.47C373.274 303.051 372.783 303.713 372.1 304.455L369.492 307.246H374.443V308.667ZM382.969 308.667H375.798V307.444L379.351 303.569C379.863 302.998 380.227 302.522 380.442 302.141C380.662 301.755 380.771 301.369 380.771 300.984C380.771 300.476 380.627 300.066 380.339 299.753C380.056 299.441 379.673 299.284 379.189 299.284C378.613 299.284 378.167 299.46 377.849 299.812C377.532 300.163 377.373 300.644 377.373 301.255H375.593C375.593 300.605 375.74 300.022 376.033 299.504C376.331 298.982 376.753 298.576 377.3 298.288C377.852 298 378.486 297.856 379.204 297.856C380.239 297.856 381.055 298.117 381.65 298.64C382.251 299.157 382.551 299.875 382.551 300.793C382.551 301.325 382.4 301.884 382.097 302.47C381.799 303.051 381.309 303.713 380.625 304.455L378.018 307.246H382.969V308.667Z" fill="#444444"/>
<path d="M240 28V27H239V28H240ZM694 28H695V27H694V28ZM694 332V333H695V332H694ZM240 332H239V333H240V332ZM240 29H694V27H240V29ZM693 28V332H695V28H693ZM694 331H240V333H694V331ZM241 332V28H239V332H241Z" fill="#444444"/>
<path d="M325.5 29L325.5 331" stroke="#BBBBBB" stroke-dasharray="3 2"/>
<path d="M332.5 29L332.5 331" stroke="#BBBBBB" stroke-dasharray="3 2"/>
<path d="M417.5 29L417.5 331" stroke="#BBBBBB" stroke-dasharray="3 2"/>
<path d="M424.5 29L424.5 331" stroke="#BBBBBB" stroke-dasharray="3 2"/>
<path d="M509.5 29L509.5 331" stroke="#BBBBBB" stroke-dasharray="3 2"/>
<path d="M516.5 29L516.5 331" stroke="#BBBBBB" stroke-dasharray="3 2"/>
<path d="M601.5 29L601.5 331" stroke="#BBBBBB" stroke-dasharray="3 2"/>
<path d="M608.5 29L608.5 331" stroke="#BBBBBB" stroke-dasharray="3 2"/>
<g clip-path="url(#clip0)">
<path d="M241 90.5L693 90.5" stroke="#BBBBBB" stroke-dasharray="3 2"/>
<path d="M241 83.5L693 83.5" stroke="#BBBBBB" stroke-dasharray="3 2"/>
</g>
<g clip-path="url(#clip1)">
<path d="M241 152.5L693 152.5" stroke="#BBBBBB" stroke-dasharray="3 2"/>
<path d="M241 145.5L693 145.5" stroke="#BBBBBB" stroke-dasharray="3 2"/>
</g>
<g clip-path="url(#clip2)">
<path d="M241 214.5L693 214.5" stroke="#BBBBBB" stroke-dasharray="3 2"/>
<path d="M241 207.5L693 207.5" stroke="#BBBBBB" stroke-dasharray="3 2"/>
</g>
<g clip-path="url(#clip3)">
<path d="M241 276.5L693 276.5" stroke="#BBBBBB" stroke-dasharray="3 2"/>
<path d="M241 269.5L693 269.5" stroke="#BBBBBB" stroke-dasharray="3 2"/>
</g>
</g>
<rect opacity="0.8" x="332" y="152" width="86" height="118" fill="#1E73FF"/>
<rect opacity="0.8" x="516" y="29" width="86" height="179" fill="#00986B"/>
<path d="M0.680664 169.443C0.680664 168.048 1.00716 166.936 1.66016 166.106C2.31868 165.27 3.19027 164.853 4.2749 164.853C5.29867 164.853 6.10384 165.209 6.69043 165.923L6.78174 165.019H8.59961V173.726C8.59961 174.905 8.23161 175.834 7.49561 176.515C6.76514 177.196 5.77734 177.536 4.53223 177.536C3.8737 177.536 3.229 177.398 2.59814 177.121C1.97282 176.85 1.49691 176.493 1.17041 176.05L2.125 174.838C2.74479 175.574 3.50846 175.942 4.41602 175.942C5.08561 175.942 5.6141 175.76 6.00146 175.395C6.38883 175.035 6.58252 174.504 6.58252 173.801V173.195C6.00146 173.842 5.22673 174.166 4.2583 174.166C3.20687 174.166 2.34635 173.748 1.67676 172.913C1.0127 172.077 0.680664 170.92 0.680664 169.443ZM2.68945 169.617C2.68945 170.519 2.87207 171.23 3.2373 171.75C3.60807 172.265 4.11995 172.522 4.77295 172.522C5.58643 172.522 6.18962 172.174 6.58252 171.477V167.525C6.20068 166.845 5.60303 166.504 4.78955 166.504C4.12549 166.504 3.60807 166.767 3.2373 167.293C2.87207 167.819 2.68945 168.593 2.68945 169.617ZM15.3813 166.861C15.1157 166.817 14.8418 166.795 14.5596 166.795C13.6354 166.795 13.0129 167.149 12.6919 167.857V174H10.6748V165.019H12.6006L12.6504 166.023C13.1374 165.243 13.8125 164.853 14.6758 164.853C14.9635 164.853 15.2015 164.891 15.3896 164.969L15.3813 166.861ZM18.8013 174H16.7842V165.019H18.8013V174ZM16.6597 162.686C16.6597 162.376 16.7565 162.119 16.9502 161.914C17.1494 161.709 17.4316 161.607 17.7969 161.607C18.1621 161.607 18.4443 161.709 18.6436 161.914C18.8428 162.119 18.9424 162.376 18.9424 162.686C18.9424 162.99 18.8428 163.245 18.6436 163.45C18.4443 163.649 18.1621 163.749 17.7969 163.749C17.4316 163.749 17.1494 163.649 16.9502 163.45C16.7565 163.245 16.6597 162.99 16.6597 162.686ZM20.6274 169.443C20.6274 168.059 20.9484 166.95 21.5903 166.114C22.2323 165.273 23.0928 164.853 24.1719 164.853C25.1237 164.853 25.8929 165.185 26.4795 165.849V161.25H28.4966V174H26.6704L26.5708 173.07C25.9676 173.801 25.1624 174.166 24.1553 174.166C23.1038 174.166 22.2516 173.743 21.5986 172.896C20.9512 172.049 20.6274 170.898 20.6274 169.443ZM22.6445 169.617C22.6445 170.53 22.8188 171.244 23.1675 171.759C23.5216 172.268 24.0225 172.522 24.6699 172.522C25.4945 172.522 26.0977 172.154 26.4795 171.418V167.583C26.1087 166.864 25.5111 166.504 24.6865 166.504C24.0335 166.504 23.5299 166.764 23.1758 167.285C22.8216 167.799 22.6445 168.577 22.6445 169.617ZM34.5146 169.675H30.1567V168.048H34.5146V169.675ZM40.8813 166.861C40.6157 166.817 40.3418 166.795 40.0596 166.795C39.1354 166.795 38.5129 167.149 38.1919 167.857V174H36.1748V165.019H38.1006L38.1504 166.023C38.6374 165.243 39.3125 164.853 40.1758 164.853C40.4635 164.853 40.7015 164.891 40.8896 164.969L40.8813 166.861ZM41.479 169.426C41.479 168.546 41.6533 167.755 42.002 167.052C42.3506 166.344 42.8403 165.802 43.4712 165.425C44.1021 165.043 44.827 164.853 45.646 164.853C46.8579 164.853 47.8402 165.243 48.5928 166.023C49.3509 166.803 49.7604 167.838 49.8213 169.127L49.8296 169.601C49.8296 170.486 49.658 171.277 49.3149 171.975C48.9774 172.672 48.4904 173.211 47.854 173.593C47.2231 173.975 46.4927 174.166 45.6626 174.166C44.3953 174.166 43.3799 173.745 42.6162 172.904C41.8581 172.058 41.479 170.931 41.479 169.526V169.426ZM43.4961 169.601C43.4961 170.525 43.687 171.25 44.0688 171.775C44.4507 172.296 44.9819 172.556 45.6626 172.556C46.3433 172.556 46.8717 172.29 47.248 171.759C47.6299 171.228 47.8208 170.45 47.8208 169.426C47.8208 168.519 47.6243 167.799 47.2314 167.268C46.8441 166.737 46.3156 166.471 45.646 166.471C44.9875 166.471 44.4645 166.734 44.0771 167.26C43.6898 167.78 43.4961 168.56 43.4961 169.601ZM59.4253 171.219L60.853 165.019H62.8203L60.3716 174H58.7114L56.7856 167.833L54.8931 174H53.2329L50.7759 165.019H52.7432L54.1958 171.153L56.0386 165.019H57.5576L59.4253 171.219ZM65.3853 171.875C65.7616 171.875 66.0521 171.983 66.2568 172.199C66.4616 172.409 66.564 172.675 66.564 172.996C66.564 173.311 66.4616 173.574 66.2568 173.784C66.0521 173.989 65.7616 174.091 65.3853 174.091C65.0256 174.091 64.7406 173.989 64.5303 173.784C64.32 173.579 64.2148 173.317 64.2148 172.996C64.2148 172.675 64.3172 172.409 64.522 172.199C64.7267 171.983 65.0145 171.875 65.3853 171.875ZM65.3853 164.828C65.7616 164.828 66.0521 164.936 66.2568 165.151C66.4616 165.362 66.564 165.627 66.564 165.948C66.564 166.264 66.4616 166.527 66.2568 166.737C66.0521 166.942 65.7616 167.044 65.3853 167.044C65.0256 167.044 64.7406 166.942 64.5303 166.737C64.32 166.532 64.2148 166.269 64.2148 165.948C64.2148 165.627 64.3172 165.362 64.522 165.151C64.7267 164.936 65.0145 164.828 65.3853 164.828ZM75.1221 167.036H76.3506C76.9704 167.03 77.4601 166.87 77.8198 166.554C78.1851 166.239 78.3677 165.782 78.3677 165.185C78.3677 164.609 78.2155 164.164 77.9111 163.848C77.6123 163.527 77.153 163.367 76.5332 163.367C75.9909 163.367 75.5454 163.524 75.1968 163.84C74.8481 164.15 74.6738 164.556 74.6738 165.06H72.6567C72.6567 164.44 72.82 163.876 73.1465 163.367C73.4785 162.858 73.9378 162.462 74.5244 162.18C75.1165 161.892 75.7778 161.748 76.5083 161.748C77.7147 161.748 78.661 162.052 79.3472 162.661C80.0389 163.264 80.3848 164.105 80.3848 165.185C80.3848 165.727 80.2104 166.239 79.8618 166.72C79.5187 167.196 79.0732 167.556 78.5254 167.799C79.1895 168.026 79.693 168.383 80.0361 168.87C80.3848 169.357 80.5591 169.938 80.5591 170.613C80.5591 171.698 80.1855 172.561 79.4385 173.203C78.6969 173.845 77.7202 174.166 76.5083 174.166C75.3462 174.166 74.3944 173.856 73.6528 173.236C72.9113 172.617 72.5405 171.792 72.5405 170.763H74.5576C74.5576 171.294 74.7347 171.726 75.0889 172.058C75.4486 172.39 75.93 172.556 76.5332 172.556C77.1585 172.556 77.651 172.39 78.0107 172.058C78.3704 171.726 78.5503 171.244 78.5503 170.613C78.5503 169.977 78.3621 169.487 77.9858 169.144C77.6095 168.801 77.0506 168.629 76.3091 168.629H75.1221V167.036ZM87.3823 175.038H85.7969L90.5532 161.914H92.1387L87.3823 175.038ZM102.805 171.56C102.805 171.2 102.656 170.926 102.357 170.738C102.064 170.55 101.574 170.384 100.888 170.24C100.201 170.096 99.6287 169.913 99.1694 169.692C98.1623 169.205 97.6587 168.499 97.6587 167.575C97.6587 166.8 97.9852 166.153 98.6382 165.633C99.2912 165.113 100.121 164.853 101.128 164.853C102.202 164.853 103.068 165.118 103.727 165.649C104.391 166.181 104.723 166.87 104.723 167.716H102.706C102.706 167.329 102.562 167.008 102.274 166.753C101.986 166.493 101.604 166.363 101.128 166.363C100.686 166.363 100.323 166.466 100.041 166.67C99.7643 166.875 99.626 167.149 99.626 167.492C99.626 167.802 99.756 168.043 100.016 168.214C100.276 168.386 100.802 168.56 101.593 168.737C102.385 168.909 103.004 169.116 103.453 169.36C103.906 169.598 104.241 169.886 104.457 170.223C104.678 170.561 104.789 170.97 104.789 171.452C104.789 172.26 104.454 172.915 103.785 173.419C103.115 173.917 102.238 174.166 101.153 174.166C100.417 174.166 99.7616 174.033 99.186 173.768C98.6105 173.502 98.1623 173.137 97.8413 172.672C97.5203 172.207 97.3599 171.706 97.3599 171.169H99.3188C99.3465 171.645 99.5264 172.013 99.8584 172.273C100.19 172.528 100.63 172.655 101.178 172.655C101.709 172.655 102.113 172.556 102.39 172.356C102.667 172.152 102.805 171.886 102.805 171.56ZM114.418 169.601C114.418 170.99 114.103 172.099 113.472 172.929C112.841 173.754 111.994 174.166 110.932 174.166C109.947 174.166 109.158 173.842 108.566 173.195V177.453H106.549V165.019H108.408L108.491 165.932C109.083 165.212 109.889 164.853 110.907 164.853C112.002 164.853 112.86 165.262 113.48 166.081C114.105 166.895 114.418 168.026 114.418 169.476V169.601ZM112.409 169.426C112.409 168.53 112.229 167.819 111.87 167.293C111.515 166.767 111.006 166.504 110.342 166.504C109.518 166.504 108.926 166.845 108.566 167.525V171.51C108.931 172.207 109.529 172.556 110.359 172.556C111.001 172.556 111.502 172.298 111.861 171.784C112.227 171.264 112.409 170.478 112.409 169.426ZM121.499 174C121.41 173.828 121.333 173.549 121.266 173.162C120.624 173.831 119.838 174.166 118.909 174.166C118.007 174.166 117.271 173.909 116.701 173.394C116.131 172.879 115.846 172.243 115.846 171.485C115.846 170.528 116.2 169.794 116.908 169.285C117.622 168.771 118.64 168.513 119.963 168.513H121.2V167.924C121.2 167.459 121.07 167.088 120.81 166.812C120.549 166.529 120.154 166.388 119.623 166.388C119.163 166.388 118.787 166.504 118.494 166.737C118.2 166.964 118.054 167.254 118.054 167.608H116.037C116.037 167.116 116.2 166.657 116.526 166.23C116.853 165.799 117.296 165.461 117.854 165.218C118.419 164.974 119.047 164.853 119.739 164.853C120.79 164.853 121.629 165.118 122.254 165.649C122.879 166.175 123.2 166.917 123.217 167.874V171.925C123.217 172.733 123.33 173.377 123.557 173.859V174H121.499ZM119.282 172.547C119.681 172.547 120.054 172.451 120.403 172.257C120.757 172.063 121.023 171.803 121.2 171.477V169.783H120.112C119.365 169.783 118.804 169.913 118.427 170.173C118.051 170.433 117.863 170.801 117.863 171.277C117.863 171.665 117.99 171.975 118.245 172.207C118.505 172.434 118.851 172.547 119.282 172.547ZM127.201 165.019L127.259 166.056C127.923 165.254 128.795 164.853 129.874 164.853C131.744 164.853 132.696 165.923 132.729 168.065V174H130.712V168.181C130.712 167.611 130.588 167.191 130.339 166.919C130.095 166.643 129.694 166.504 129.135 166.504C128.322 166.504 127.716 166.872 127.317 167.608V174H125.3V165.019H127.201ZM147.023 174H138.897V172.614L142.923 168.223C143.504 167.575 143.916 167.036 144.16 166.604C144.409 166.167 144.533 165.73 144.533 165.292C144.533 164.717 144.37 164.252 144.043 163.898C143.722 163.544 143.288 163.367 142.74 163.367C142.087 163.367 141.581 163.566 141.221 163.964C140.861 164.363 140.682 164.908 140.682 165.6H138.665C138.665 164.864 138.831 164.202 139.163 163.616C139.5 163.024 139.979 162.564 140.599 162.238C141.224 161.911 141.943 161.748 142.757 161.748C143.93 161.748 144.854 162.044 145.529 162.636C146.21 163.223 146.55 164.036 146.55 165.077C146.55 165.68 146.379 166.313 146.036 166.978C145.698 167.636 145.142 168.386 144.367 169.227L141.412 172.39H147.023V174ZM149.729 164.828C150.106 164.828 150.396 164.936 150.601 165.151C150.806 165.362 150.908 165.627 150.908 165.948C150.908 166.264 150.806 166.527 150.601 166.737C150.396 166.942 150.106 167.044 149.729 167.044C149.37 167.044 149.085 166.942 148.875 166.737C148.664 166.532 148.559 166.269 148.559 165.948C148.559 165.627 148.661 165.362 148.866 165.151C149.071 164.936 149.359 164.828 149.729 164.828ZM149.124 176.723L148.036 176.075C148.357 175.572 148.576 175.132 148.692 174.755C148.814 174.385 148.877 174.006 148.883 173.618V172.049H150.701L150.692 173.502C150.687 174.089 150.537 174.675 150.244 175.262C149.956 175.854 149.583 176.341 149.124 176.723Z" fill="#1E73FF"/>
<path d="M0.680664 193.443C0.680664 192.048 1.00716 190.936 1.66016 190.106C2.31868 189.27 3.19027 188.853 4.2749 188.853C5.29867 188.853 6.10384 189.209 6.69043 189.923L6.78174 189.019H8.59961V197.726C8.59961 198.905 8.23161 199.834 7.49561 200.515C6.76514 201.196 5.77734 201.536 4.53223 201.536C3.8737 201.536 3.229 201.398 2.59814 201.121C1.97282 200.85 1.49691 200.493 1.17041 200.05L2.125 198.838C2.74479 199.574 3.50846 199.942 4.41602 199.942C5.08561 199.942 5.6141 199.76 6.00146 199.395C6.38883 199.035 6.58252 198.504 6.58252 197.801V197.195C6.00146 197.842 5.22673 198.166 4.2583 198.166C3.20687 198.166 2.34635 197.748 1.67676 196.913C1.0127 196.077 0.680664 194.92 0.680664 193.443ZM2.68945 193.617C2.68945 194.519 2.87207 195.23 3.2373 195.75C3.60807 196.265 4.11995 196.522 4.77295 196.522C5.58643 196.522 6.18962 196.174 6.58252 195.477V191.525C6.20068 190.845 5.60303 190.504 4.78955 190.504C4.12549 190.504 3.60807 190.767 3.2373 191.293C2.87207 191.819 2.68945 192.593 2.68945 193.617ZM15.3813 190.861C15.1157 190.817 14.8418 190.795 14.5596 190.795C13.6354 190.795 13.0129 191.149 12.6919 191.857V198H10.6748V189.019H12.6006L12.6504 190.023C13.1374 189.243 13.8125 188.853 14.6758 188.853C14.9635 188.853 15.2015 188.891 15.3896 188.969L15.3813 190.861ZM18.8013 198H16.7842V189.019H18.8013V198ZM16.6597 186.686C16.6597 186.376 16.7565 186.119 16.9502 185.914C17.1494 185.709 17.4316 185.607 17.7969 185.607C18.1621 185.607 18.4443 185.709 18.6436 185.914C18.8428 186.119 18.9424 186.376 18.9424 186.686C18.9424 186.99 18.8428 187.245 18.6436 187.45C18.4443 187.649 18.1621 187.749 17.7969 187.749C17.4316 187.749 17.1494 187.649 16.9502 187.45C16.7565 187.245 16.6597 186.99 16.6597 186.686ZM20.6274 193.443C20.6274 192.059 20.9484 190.95 21.5903 190.114C22.2323 189.273 23.0928 188.853 24.1719 188.853C25.1237 188.853 25.8929 189.185 26.4795 189.849V185.25H28.4966V198H26.6704L26.5708 197.07C25.9676 197.801 25.1624 198.166 24.1553 198.166C23.1038 198.166 22.2516 197.743 21.5986 196.896C20.9512 196.049 20.6274 194.898 20.6274 193.443ZM22.6445 193.617C22.6445 194.53 22.8188 195.244 23.1675 195.759C23.5216 196.268 24.0225 196.522 24.6699 196.522C25.4945 196.522 26.0977 196.154 26.4795 195.418V191.583C26.1087 190.864 25.5111 190.504 24.6865 190.504C24.0335 190.504 23.5299 190.764 23.1758 191.285C22.8216 191.799 22.6445 192.577 22.6445 193.617ZM34.5146 193.675H30.1567V192.048H34.5146V193.675ZM40.8813 190.861C40.6157 190.817 40.3418 190.795 40.0596 190.795C39.1354 190.795 38.5129 191.149 38.1919 191.857V198H36.1748V189.019H38.1006L38.1504 190.023C38.6374 189.243 39.3125 188.853 40.1758 188.853C40.4635 188.853 40.7015 188.891 40.8896 188.969L40.8813 190.861ZM41.479 193.426C41.479 192.546 41.6533 191.755 42.002 191.052C42.3506 190.344 42.8403 189.802 43.4712 189.425C44.1021 189.043 44.827 188.853 45.646 188.853C46.8579 188.853 47.8402 189.243 48.5928 190.023C49.3509 190.803 49.7604 191.838 49.8213 193.127L49.8296 193.601C49.8296 194.486 49.658 195.277 49.3149 195.975C48.9774 196.672 48.4904 197.211 47.854 197.593C47.2231 197.975 46.4927 198.166 45.6626 198.166C44.3953 198.166 43.3799 197.745 42.6162 196.904C41.8581 196.058 41.479 194.931 41.479 193.526V193.426ZM43.4961 193.601C43.4961 194.525 43.687 195.25 44.0688 195.775C44.4507 196.296 44.9819 196.556 45.6626 196.556C46.3433 196.556 46.8717 196.29 47.248 195.759C47.6299 195.228 47.8208 194.45 47.8208 193.426C47.8208 192.519 47.6243 191.799 47.2314 191.268C46.8441 190.737 46.3156 190.471 45.646 190.471C44.9875 190.471 44.4645 190.734 44.0771 191.26C43.6898 191.78 43.4961 192.56 43.4961 193.601ZM59.4253 195.219L60.853 189.019H62.8203L60.3716 198H58.7114L56.7856 191.833L54.8931 198H53.2329L50.7759 189.019H52.7432L54.1958 195.153L56.0386 189.019H57.5576L59.4253 195.219ZM65.3853 195.875C65.7616 195.875 66.0521 195.983 66.2568 196.199C66.4616 196.409 66.564 196.675 66.564 196.996C66.564 197.311 66.4616 197.574 66.2568 197.784C66.0521 197.989 65.7616 198.091 65.3853 198.091C65.0256 198.091 64.7406 197.989 64.5303 197.784C64.32 197.579 64.2148 197.317 64.2148 196.996C64.2148 196.675 64.3172 196.409 64.522 196.199C64.7267 195.983 65.0145 195.875 65.3853 195.875ZM65.3853 188.828C65.7616 188.828 66.0521 188.936 66.2568 189.151C66.4616 189.362 66.564 189.627 66.564 189.948C66.564 190.264 66.4616 190.527 66.2568 190.737C66.0521 190.942 65.7616 191.044 65.3853 191.044C65.0256 191.044 64.7406 190.942 64.5303 190.737C64.32 190.532 64.2148 190.269 64.2148 189.948C64.2148 189.627 64.3172 189.362 64.522 189.151C64.7267 188.936 65.0145 188.828 65.3853 188.828ZM77.9526 195.56C77.9526 195.2 77.8032 194.926 77.5044 194.738C77.2111 194.55 76.7214 194.384 76.0352 194.24C75.349 194.096 74.7762 193.913 74.3169 193.692C73.3097 193.205 72.8062 192.499 72.8062 191.575C72.8062 190.8 73.1326 190.153 73.7856 189.633C74.4386 189.113 75.2687 188.853 76.2759 188.853C77.3494 188.853 78.2155 189.118 78.874 189.649C79.5381 190.181 79.8701 190.87 79.8701 191.716H77.853C77.853 191.329 77.7091 191.008 77.4214 190.753C77.1336 190.493 76.7518 190.363 76.2759 190.363C75.8332 190.363 75.4707 190.466 75.1885 190.67C74.9118 190.875 74.7734 191.149 74.7734 191.492C74.7734 191.802 74.9035 192.043 75.1636 192.214C75.4237 192.386 75.9494 192.56 76.7407 192.737C77.5321 192.909 78.1519 193.116 78.6001 193.36C79.0539 193.598 79.3887 193.886 79.6045 194.223C79.8258 194.561 79.9365 194.97 79.9365 195.452C79.9365 196.26 79.6017 196.915 78.9321 197.419C78.2625 197.917 77.3854 198.166 76.3008 198.166C75.5648 198.166 74.909 198.033 74.3335 197.768C73.758 197.502 73.3097 197.137 72.9888 196.672C72.6678 196.207 72.5073 195.706 72.5073 195.169H74.4663C74.494 195.645 74.6738 196.013 75.0059 196.273C75.3379 196.528 75.7778 196.655 76.3257 196.655C76.8569 196.655 77.2609 196.556 77.5376 196.356C77.8143 196.152 77.9526 195.886 77.9526 195.56ZM89.5654 193.601C89.5654 194.99 89.25 196.099 88.6191 196.929C87.9883 197.754 87.1416 198.166 86.0791 198.166C85.0941 198.166 84.3055 197.842 83.7134 197.195V201.453H81.6963V189.019H83.5557L83.6387 189.932C84.2308 189.212 85.036 188.853 86.0542 188.853C87.1499 188.853 88.0076 189.262 88.6274 190.081C89.2528 190.895 89.5654 192.026 89.5654 193.476V193.601ZM87.5566 193.426C87.5566 192.53 87.3768 191.819 87.0171 191.293C86.6629 190.767 86.1538 190.504 85.4897 190.504C84.6652 190.504 84.0731 190.845 83.7134 191.525V195.51C84.0786 196.207 84.6763 196.556 85.5063 196.556C86.1483 196.556 86.6491 196.298 87.0088 195.784C87.374 195.264 87.5566 194.478 87.5566 193.426ZM96.646 198C96.5575 197.828 96.48 197.549 96.4136 197.162C95.7716 197.831 94.9858 198.166 94.0562 198.166C93.1541 198.166 92.4181 197.909 91.8481 197.394C91.2782 196.879 90.9932 196.243 90.9932 195.485C90.9932 194.528 91.3473 193.794 92.0557 193.285C92.7695 192.771 93.7878 192.513 95.1104 192.513H96.3472V191.924C96.3472 191.459 96.2171 191.088 95.957 190.812C95.6969 190.529 95.3013 190.388 94.77 190.388C94.3107 190.388 93.9344 190.504 93.6411 190.737C93.3478 190.964 93.2012 191.254 93.2012 191.608H91.1841C91.1841 191.116 91.3473 190.657 91.6738 190.23C92.0003 189.799 92.443 189.461 93.002 189.218C93.5664 188.974 94.1945 188.853 94.8862 188.853C95.9377 188.853 96.776 189.118 97.4014 189.649C98.0267 190.175 98.3477 190.917 98.3643 191.874V195.925C98.3643 196.733 98.4777 197.377 98.7046 197.859V198H96.646ZM94.4297 196.547C94.8281 196.547 95.2017 196.451 95.5503 196.257C95.9045 196.063 96.1701 195.803 96.3472 195.477V193.783H95.2598C94.5127 193.783 93.951 193.913 93.5747 194.173C93.1984 194.433 93.0103 194.801 93.0103 195.277C93.0103 195.665 93.1375 195.975 93.3921 196.207C93.6522 196.434 93.998 196.547 94.4297 196.547ZM102.349 189.019L102.407 190.056C103.071 189.254 103.942 188.853 105.021 188.853C106.892 188.853 107.844 189.923 107.877 192.065V198H105.86V192.181C105.86 191.611 105.735 191.191 105.486 190.919C105.243 190.643 104.842 190.504 104.283 190.504C103.469 190.504 102.863 190.872 102.465 191.608V198H100.448V189.019H102.349ZM112.144 191.036H113.372C113.992 191.03 114.482 190.87 114.841 190.554C115.207 190.239 115.389 189.782 115.389 189.185C115.389 188.609 115.237 188.164 114.933 187.848C114.634 187.527 114.174 187.367 113.555 187.367C113.012 187.367 112.567 187.524 112.218 187.84C111.87 188.15 111.695 188.556 111.695 189.06H109.678C109.678 188.44 109.841 187.876 110.168 187.367C110.5 186.858 110.959 186.462 111.546 186.18C112.138 185.892 112.799 185.748 113.53 185.748C114.736 185.748 115.682 186.052 116.369 186.661C117.06 187.264 117.406 188.105 117.406 189.185C117.406 189.727 117.232 190.239 116.883 190.72C116.54 191.196 116.095 191.556 115.547 191.799C116.211 192.026 116.715 192.383 117.058 192.87C117.406 193.357 117.581 193.938 117.581 194.613C117.581 195.698 117.207 196.561 116.46 197.203C115.718 197.845 114.742 198.166 113.53 198.166C112.368 198.166 111.416 197.856 110.674 197.236C109.933 196.617 109.562 195.792 109.562 194.763H111.579C111.579 195.294 111.756 195.726 112.11 196.058C112.47 196.39 112.951 196.556 113.555 196.556C114.18 196.556 114.673 196.39 115.032 196.058C115.392 195.726 115.572 195.244 115.572 194.613C115.572 193.977 115.384 193.487 115.007 193.144C114.631 192.801 114.072 192.629 113.331 192.629H112.144V191.036ZM124.404 199.038H122.818L127.575 185.914H129.16L124.404 199.038ZM141.487 193.692H142.989V195.311H141.487V198H139.47V195.311H134.249L134.19 194.082L139.403 185.914H141.487V193.692ZM136.307 193.692H139.47V188.645L139.32 188.911L136.307 193.692ZM145.496 188.828C145.872 188.828 146.163 188.936 146.368 189.151C146.572 189.362 146.675 189.627 146.675 189.948C146.675 190.264 146.572 190.527 146.368 190.737C146.163 190.942 145.872 191.044 145.496 191.044C145.136 191.044 144.851 190.942 144.641 190.737C144.431 190.532 144.326 190.269 144.326 189.948C144.326 189.627 144.428 189.362 144.633 189.151C144.838 188.936 145.125 188.828 145.496 188.828ZM144.89 200.723L143.803 200.075C144.124 199.572 144.342 199.132 144.458 198.755C144.58 198.385 144.644 198.006 144.649 197.618V196.049H146.467L146.459 197.502C146.453 198.089 146.304 198.675 146.011 199.262C145.723 199.854 145.349 200.341 144.89 200.723Z" fill="#00986B"/>
<path opacity="0.75" d="M375 253L392.321 223H357.679L375 253ZM372 169V226H378V169H372Z" fill="white"/>
<path opacity="0.75" d="M559 46L541.679 76L576.321 76L559 46ZM562 191L562 73L556 73L556 191H562Z" fill="white"/>
<defs>
<clipPath id="clip0">
<rect width="7.99998" height="452" fill="white" transform="translate(241 91) rotate(-90)"/>
</clipPath>
<clipPath id="clip1">
<rect width="7.99998" height="452" fill="white" transform="translate(241 153) rotate(-90)"/>
</clipPath>
<clipPath id="clip2">
<rect width="7.99998" height="452" fill="white" transform="translate(241 215) rotate(-90)"/>
</clipPath>
<clipPath id="clip3">
<rect width="7.99998" height="452" fill="white" transform="translate(241 277) rotate(-90)"/>
</clipPath>
</defs>
</svg>
