<svg width="600" height="280" viewBox="0 0 600 280" fill="none" xmlns="http://www.w3.org/2000/svg">
<rect x="1" y="191" width="598" height="88" fill="white" stroke="#DDDDDD" stroke-width="2"/>
<rect x="20" y="210" width="80" height="50" rx="5" fill="#1E73FF"/>
<rect x="110" y="210" width="80" height="50" rx="5" fill="#1E73FF"/>
<rect x="200" y="210" width="80" height="50" rx="5" fill="#1E73FF"/>
<rect x="290" y="210" width="80" height="50" rx="5" fill="#1E73FF"/>
<path d="M228.128 166.443C228.128 165.059 228.449 163.95 229.091 163.114C229.733 162.273 230.593 161.853 231.672 161.853C232.624 161.853 233.393 162.185 233.98 162.849V158.25H235.997V171H234.171L234.071 170.07C233.468 170.801 232.663 171.166 231.656 171.166C230.604 171.166 229.752 170.743 229.099 169.896C228.452 169.049 228.128 167.898 228.128 166.443ZM230.145 166.617C230.145 167.53 230.319 168.244 230.668 168.759C231.022 169.268 231.523 169.522 232.17 169.522C232.995 169.522 233.598 169.154 233.98 168.418V164.583C233.609 163.864 233.012 163.504 232.187 163.504C231.534 163.504 231.03 163.764 230.676 164.285C230.322 164.799 230.145 165.577 230.145 166.617ZM240.247 171H238.23V162.019H240.247V171ZM238.105 159.686C238.105 159.376 238.202 159.119 238.396 158.914C238.595 158.709 238.877 158.607 239.243 158.607C239.608 158.607 239.89 158.709 240.089 158.914C240.289 159.119 240.388 159.376 240.388 159.686C240.388 159.99 240.289 160.245 240.089 160.45C239.89 160.649 239.608 160.749 239.243 160.749C238.877 160.749 238.595 160.649 238.396 160.45C238.202 160.245 238.105 159.99 238.105 159.686ZM247.485 168.56C247.485 168.2 247.336 167.926 247.037 167.738C246.744 167.55 246.254 167.384 245.568 167.24C244.882 167.096 244.309 166.913 243.85 166.692C242.842 166.205 242.339 165.499 242.339 164.575C242.339 163.8 242.665 163.153 243.318 162.633C243.971 162.113 244.801 161.853 245.809 161.853C246.882 161.853 247.748 162.118 248.407 162.649C249.071 163.181 249.403 163.87 249.403 164.716H247.386C247.386 164.329 247.242 164.008 246.954 163.753C246.666 163.493 246.285 163.363 245.809 163.363C245.366 163.363 245.003 163.466 244.721 163.67C244.444 163.875 244.306 164.149 244.306 164.492C244.306 164.802 244.436 165.043 244.696 165.214C244.956 165.386 245.482 165.56 246.273 165.737C247.065 165.909 247.685 166.116 248.133 166.36C248.587 166.598 248.921 166.886 249.137 167.223C249.359 167.561 249.469 167.97 249.469 168.452C249.469 169.26 249.134 169.915 248.465 170.419C247.795 170.917 246.918 171.166 245.833 171.166C245.097 171.166 244.442 171.033 243.866 170.768C243.291 170.502 242.842 170.137 242.521 169.672C242.201 169.207 242.04 168.706 242.04 168.169H243.999C244.027 168.645 244.207 169.013 244.539 169.273C244.871 169.528 245.311 169.655 245.858 169.655C246.39 169.655 246.794 169.556 247.07 169.356C247.347 169.152 247.485 168.886 247.485 168.56ZM259.098 166.601C259.098 167.99 258.783 169.099 258.152 169.929C257.521 170.754 256.674 171.166 255.612 171.166C254.627 171.166 253.838 170.842 253.246 170.195V174.453H251.229V162.019H253.088L253.171 162.932C253.764 162.212 254.569 161.853 255.587 161.853C256.683 161.853 257.54 162.262 258.16 163.081C258.785 163.895 259.098 165.026 259.098 166.476V166.601ZM257.089 166.426C257.089 165.53 256.91 164.819 256.55 164.293C256.196 163.767 255.687 163.504 255.022 163.504C254.198 163.504 253.606 163.845 253.246 164.525V168.51C253.611 169.207 254.209 169.556 255.039 169.556C255.681 169.556 256.182 169.298 256.542 168.784C256.907 168.264 257.089 167.478 257.089 166.426ZM262.958 171H260.941V158.25H262.958V171ZM270.528 171C270.44 170.828 270.362 170.549 270.296 170.162C269.654 170.831 268.868 171.166 267.938 171.166C267.036 171.166 266.3 170.909 265.73 170.394C265.16 169.879 264.875 169.243 264.875 168.485C264.875 167.528 265.23 166.794 265.938 166.285C266.652 165.771 267.67 165.513 268.993 165.513H270.229V164.924C270.229 164.459 270.099 164.088 269.839 163.812C269.579 163.529 269.184 163.388 268.652 163.388C268.193 163.388 267.817 163.504 267.523 163.737C267.23 163.964 267.083 164.254 267.083 164.608H265.066C265.066 164.116 265.23 163.657 265.556 163.23C265.883 162.799 266.325 162.461 266.884 162.218C267.449 161.974 268.077 161.853 268.769 161.853C269.82 161.853 270.658 162.118 271.284 162.649C271.909 163.175 272.23 163.917 272.247 164.874V168.925C272.247 169.733 272.36 170.377 272.587 170.859V171H270.528ZM268.312 169.547C268.71 169.547 269.084 169.451 269.433 169.257C269.787 169.063 270.052 168.803 270.229 168.477V166.783H269.142C268.395 166.783 267.833 166.913 267.457 167.173C267.081 167.433 266.893 167.801 266.893 168.277C266.893 168.665 267.02 168.975 267.274 169.207C267.535 169.434 267.88 169.547 268.312 169.547ZM277.368 168.111L279.194 162.019H281.344L277.775 172.361C277.227 173.872 276.297 174.627 274.986 174.627C274.693 174.627 274.369 174.578 274.015 174.478V172.917L274.396 172.942C274.906 172.942 275.287 172.848 275.542 172.66C275.802 172.478 276.007 172.168 276.156 171.73L276.447 170.958L273.292 162.019H275.467L277.368 168.111ZM283.727 168.875C284.103 168.875 284.393 168.983 284.598 169.199C284.803 169.409 284.905 169.675 284.905 169.996C284.905 170.311 284.803 170.574 284.598 170.784C284.393 170.989 284.103 171.091 283.727 171.091C283.367 171.091 283.082 170.989 282.872 170.784C282.661 170.579 282.556 170.317 282.556 169.996C282.556 169.675 282.659 169.409 282.863 169.199C283.068 168.983 283.356 168.875 283.727 168.875ZM283.727 161.828C284.103 161.828 284.393 161.936 284.598 162.151C284.803 162.362 284.905 162.627 284.905 162.948C284.905 163.264 284.803 163.527 284.598 163.737C284.393 163.942 284.103 164.044 283.727 164.044C283.367 164.044 283.082 163.942 282.872 163.737C282.661 163.532 282.556 163.269 282.556 162.948C282.556 162.627 282.659 162.362 282.863 162.151C283.068 161.936 283.356 161.828 283.727 161.828ZM368.552 161.828C368.929 161.828 369.219 161.936 369.424 162.151C369.629 162.362 369.731 162.627 369.731 162.948C369.731 163.264 369.629 163.527 369.424 163.737C369.219 163.942 368.929 164.044 368.552 164.044C368.193 164.044 367.908 163.942 367.697 163.737C367.487 163.532 367.382 163.269 367.382 162.948C367.382 162.627 367.484 162.362 367.689 162.151C367.894 161.936 368.181 161.828 368.552 161.828ZM367.946 173.723L366.859 173.075C367.18 172.572 367.398 172.132 367.515 171.755C367.636 171.385 367.7 171.006 367.706 170.618V169.049H369.523L369.515 170.502C369.51 171.089 369.36 171.675 369.067 172.262C368.779 172.854 368.406 173.341 367.946 173.723Z" fill="#444444"/>
<path d="M293.405 171H291.388V162.019H293.405V171ZM291.264 159.686C291.264 159.376 291.361 159.119 291.554 158.914C291.753 158.709 292.036 158.607 292.401 158.607C292.766 158.607 293.048 158.709 293.248 158.914C293.447 159.119 293.546 159.376 293.546 159.686C293.546 159.99 293.447 160.245 293.248 160.45C293.048 160.649 292.766 160.749 292.401 160.749C292.036 160.749 291.753 160.649 291.554 160.45C291.361 160.245 291.264 159.99 291.264 159.686ZM297.481 162.019L297.539 163.056C298.203 162.254 299.075 161.853 300.154 161.853C302.024 161.853 302.976 162.923 303.009 165.065V171H300.992V165.181C300.992 164.611 300.868 164.191 300.619 163.919C300.375 163.643 299.974 163.504 299.415 163.504C298.602 163.504 297.996 163.872 297.597 164.608V171H295.58V162.019H297.481ZM307.218 171H305.201V158.25H307.218V171ZM311.567 171H309.55V162.019H311.567V171ZM309.426 159.686C309.426 159.376 309.523 159.119 309.716 158.914C309.916 158.709 310.198 158.607 310.563 158.607C310.928 158.607 311.21 158.709 311.41 158.914C311.609 159.119 311.708 159.376 311.708 159.686C311.708 159.99 311.609 160.245 311.41 160.45C311.21 160.649 310.928 160.749 310.563 160.749C310.198 160.749 309.916 160.649 309.716 160.45C309.523 160.245 309.426 159.99 309.426 159.686ZM315.643 162.019L315.701 163.056C316.365 162.254 317.237 161.853 318.316 161.853C320.186 161.853 321.138 162.923 321.171 165.065V171H319.154V165.181C319.154 164.611 319.03 164.191 318.781 163.919C318.537 163.643 318.136 163.504 317.577 163.504C316.764 163.504 316.158 163.872 315.759 164.608V171H313.742V162.019H315.643ZM327.189 171.166C325.911 171.166 324.874 170.765 324.077 169.962C323.285 169.154 322.89 168.081 322.89 166.742V166.493C322.89 165.596 323.061 164.797 323.404 164.094C323.753 163.385 324.24 162.835 324.865 162.442C325.491 162.049 326.188 161.853 326.957 161.853C328.18 161.853 329.124 162.243 329.788 163.023C330.457 163.803 330.792 164.907 330.792 166.335V167.148H324.923C324.984 167.89 325.23 168.477 325.662 168.908C326.099 169.34 326.647 169.556 327.306 169.556C328.23 169.556 328.982 169.182 329.563 168.435L330.651 169.473C330.291 170.009 329.81 170.427 329.207 170.726C328.609 171.019 327.937 171.166 327.189 171.166ZM326.949 163.471C326.395 163.471 325.947 163.665 325.604 164.052C325.266 164.44 325.051 164.979 324.957 165.671H328.8V165.521C328.756 164.846 328.576 164.337 328.26 163.994C327.945 163.646 327.508 163.471 326.949 163.471ZM336.279 166.675H331.921V165.048H336.279V166.675ZM337.59 166.443C337.59 165.048 337.917 163.936 338.57 163.106C339.228 162.27 340.1 161.853 341.185 161.853C342.208 161.853 343.014 162.209 343.6 162.923L343.691 162.019H345.509V170.726C345.509 171.905 345.141 172.834 344.405 173.515C343.675 174.196 342.687 174.536 341.442 174.536C340.783 174.536 340.139 174.398 339.508 174.121C338.882 173.85 338.407 173.493 338.08 173.05L339.035 171.838C339.654 172.574 340.418 172.942 341.326 172.942C341.995 172.942 342.524 172.76 342.911 172.395C343.299 172.035 343.492 171.504 343.492 170.801V170.195C342.911 170.842 342.136 171.166 341.168 171.166C340.117 171.166 339.256 170.748 338.586 169.913C337.922 169.077 337.59 167.92 337.59 166.443ZM339.599 166.617C339.599 167.519 339.782 168.23 340.147 168.75C340.518 169.265 341.03 169.522 341.683 169.522C342.496 169.522 343.099 169.174 343.492 168.477V164.525C343.11 163.845 342.513 163.504 341.699 163.504C341.035 163.504 340.518 163.767 340.147 164.293C339.782 164.819 339.599 165.593 339.599 166.617ZM352.291 163.861C352.025 163.817 351.751 163.795 351.469 163.795C350.545 163.795 349.923 164.149 349.602 164.857V171H347.584V162.019H349.51L349.56 163.023C350.047 162.243 350.722 161.853 351.585 161.853C351.873 161.853 352.111 161.891 352.299 161.969L352.291 163.861ZM355.711 171H353.694V162.019H355.711V171ZM353.569 159.686C353.569 159.376 353.666 159.119 353.86 158.914C354.059 158.709 354.341 158.607 354.707 158.607C355.072 158.607 355.354 158.709 355.553 158.914C355.752 159.119 355.852 159.376 355.852 159.686C355.852 159.99 355.752 160.245 355.553 160.45C355.354 160.649 355.072 160.749 354.707 160.749C354.341 160.749 354.059 160.649 353.86 160.45C353.666 160.245 353.569 159.99 353.569 159.686ZM357.537 166.443C357.537 165.059 357.858 163.95 358.5 163.114C359.142 162.273 360.002 161.853 361.082 161.853C362.033 161.853 362.803 162.185 363.389 162.849V158.25H365.406V171H363.58L363.48 170.07C362.877 170.801 362.072 171.166 361.065 171.166C360.014 171.166 359.161 170.743 358.508 169.896C357.861 169.049 357.537 167.898 357.537 166.443ZM359.554 166.617C359.554 167.53 359.729 168.244 360.077 168.759C360.431 169.268 360.932 169.522 361.58 169.522C362.404 169.522 363.007 169.154 363.389 168.418V164.583C363.018 163.864 362.421 163.504 361.596 163.504C360.943 163.504 360.44 163.764 360.085 164.285C359.731 164.799 359.554 165.577 359.554 166.617Z" fill="#1E73FF"/>
<path d="M62.0801 242H59.2578V231.121L55.8887 232.166V229.871L61.7773 227.762H62.0801V242Z" fill="white"/>
<path d="M154.971 242H145.225V240.066L149.824 235.164C150.456 234.474 150.921 233.872 151.221 233.357C151.527 232.843 151.68 232.355 151.68 231.893C151.68 231.261 151.52 230.766 151.201 230.408C150.882 230.044 150.426 229.861 149.834 229.861C149.196 229.861 148.691 230.083 148.32 230.525C147.956 230.962 147.773 231.538 147.773 232.254H144.941C144.941 231.388 145.146 230.597 145.557 229.881C145.973 229.165 146.559 228.605 147.314 228.201C148.07 227.791 148.926 227.586 149.883 227.586C151.348 227.586 152.484 227.938 153.291 228.641C154.105 229.344 154.512 230.337 154.512 231.619C154.512 232.322 154.329 233.038 153.965 233.768C153.6 234.497 152.975 235.346 152.09 236.316L148.857 239.725H154.971V242Z" fill="white"/>
<path d="M238.096 233.641H239.6C240.316 233.641 240.846 233.462 241.191 233.104C241.536 232.745 241.709 232.27 241.709 231.678C241.709 231.105 241.536 230.659 241.191 230.34C240.853 230.021 240.384 229.861 239.785 229.861C239.245 229.861 238.792 230.011 238.428 230.311C238.063 230.604 237.881 230.988 237.881 231.463H235.059C235.059 230.721 235.257 230.057 235.654 229.471C236.058 228.878 236.618 228.416 237.334 228.084C238.057 227.752 238.851 227.586 239.717 227.586C241.221 227.586 242.399 227.947 243.252 228.67C244.105 229.386 244.531 230.376 244.531 231.639C244.531 232.29 244.333 232.889 243.936 233.436C243.538 233.982 243.018 234.402 242.373 234.695C243.174 234.982 243.77 235.411 244.16 235.984C244.557 236.557 244.756 237.234 244.756 238.016C244.756 239.279 244.294 240.291 243.369 241.053C242.451 241.814 241.234 242.195 239.717 242.195C238.298 242.195 237.135 241.821 236.23 241.072C235.332 240.324 234.883 239.334 234.883 238.104H237.705C237.705 238.637 237.904 239.074 238.301 239.412C238.704 239.751 239.199 239.92 239.785 239.92C240.456 239.92 240.98 239.744 241.357 239.393C241.742 239.035 241.934 238.562 241.934 237.977C241.934 236.557 241.152 235.848 239.59 235.848H238.096V233.641Z" fill="white"/>
<path d="M333.574 236.648H335.186V238.924H333.574V242H330.752V238.924H324.922L324.795 237.146L330.723 227.781H333.574V236.648ZM327.607 236.648H330.752V231.629L330.566 231.951L327.607 236.648Z" fill="white"/>
<path d="M398 235L418 223.453V246.547L398 235ZM468 237H416V233H468V237Z" fill="#1E73FF"/>
<rect x="1" y="36" width="588" height="88" fill="white" stroke="#DDDDDD" stroke-width="2"/>
<rect x="20" y="55" width="130" height="50" rx="5" fill="#1E73FF"/>
<rect x="160" y="55" width="130" height="50" rx="5" fill="#1E73FF"/>
<rect x="300" y="55" width="130" height="50" rx="5" fill="#1E73FF"/>
<rect x="440" y="55" width="130" height="50" rx="5" fill="#1E73FF"/>
<path d="M251.97 11.4429C251.97 10.0594 252.291 8.94987 252.933 8.11426C253.575 7.27311 254.435 6.85254 255.514 6.85254C256.466 6.85254 257.235 7.18457 257.822 7.84863V3.25H259.839V16H258.013L257.913 15.0703C257.31 15.8008 256.505 16.166 255.498 16.166C254.446 16.166 253.594 15.7427 252.941 14.896C252.293 14.0493 251.97 12.8983 251.97 11.4429ZM253.987 11.6172C253.987 12.5303 254.161 13.2441 254.51 13.7588C254.864 14.2679 255.365 14.5225 256.012 14.5225C256.837 14.5225 257.44 14.1545 257.822 13.4185V9.5835C257.451 8.8641 256.853 8.50439 256.029 8.50439C255.376 8.50439 254.872 8.76449 254.518 9.28467C254.164 9.79932 253.987 10.5768 253.987 11.6172ZM264.089 16H262.072V7.01855H264.089V16ZM261.947 4.68604C261.947 4.37614 262.044 4.11882 262.238 3.91406C262.437 3.70931 262.719 3.60693 263.084 3.60693C263.45 3.60693 263.732 3.70931 263.931 3.91406C264.13 4.11882 264.23 4.37614 264.23 4.68604C264.23 4.9904 264.13 5.24495 263.931 5.44971C263.732 5.64893 263.45 5.74854 263.084 5.74854C262.719 5.74854 262.437 5.64893 262.238 5.44971C262.044 5.24495 261.947 4.9904 261.947 4.68604ZM271.327 13.5596C271.327 13.1999 271.178 12.9259 270.879 12.7378C270.586 12.5496 270.096 12.3836 269.41 12.2397C268.723 12.0959 268.151 11.9132 267.691 11.6919C266.684 11.2049 266.181 10.4993 266.181 9.5752C266.181 8.80046 266.507 8.15299 267.16 7.63281C267.813 7.11263 268.643 6.85254 269.65 6.85254C270.724 6.85254 271.59 7.11816 272.249 7.64941C272.913 8.18066 273.245 8.86963 273.245 9.71631H271.228C271.228 9.32894 271.084 9.00798 270.796 8.75342C270.508 8.49333 270.126 8.36328 269.65 8.36328C269.208 8.36328 268.845 8.46566 268.563 8.67041C268.286 8.87516 268.148 9.14909 268.148 9.49219C268.148 9.80208 268.278 10.0428 268.538 10.2144C268.798 10.3859 269.324 10.5602 270.115 10.7373C270.907 10.9089 271.526 11.1164 271.975 11.3599C272.428 11.5978 272.763 11.8856 272.979 12.2231C273.2 12.5607 273.311 12.9702 273.311 13.4517C273.311 14.2596 272.976 14.9154 272.307 15.4189C271.637 15.917 270.76 16.166 269.675 16.166C268.939 16.166 268.284 16.0332 267.708 15.7676C267.132 15.502 266.684 15.1367 266.363 14.6719C266.042 14.207 265.882 13.7062 265.882 13.1694H267.841C267.868 13.6453 268.048 14.0133 268.38 14.2734C268.712 14.528 269.152 14.6553 269.7 14.6553C270.231 14.6553 270.635 14.5557 270.912 14.3564C271.189 14.1517 271.327 13.8861 271.327 13.5596ZM282.94 11.6006C282.94 12.9896 282.625 14.0991 281.994 14.9292C281.363 15.7537 280.516 16.166 279.454 16.166C278.469 16.166 277.68 15.8423 277.088 15.1948V19.4531H275.071V7.01855H276.93L277.013 7.93164C277.605 7.21224 278.41 6.85254 279.429 6.85254C280.524 6.85254 281.382 7.26204 282.002 8.08105C282.627 8.89453 282.94 10.0262 282.94 11.4761V11.6006ZM280.931 11.4263C280.931 10.5298 280.751 9.81868 280.392 9.29297C280.037 8.76725 279.528 8.50439 278.864 8.50439C278.04 8.50439 277.448 8.84473 277.088 9.52539V13.5098C277.453 14.207 278.051 14.5557 278.881 14.5557C279.523 14.5557 280.024 14.2983 280.383 13.7837C280.749 13.2635 280.931 12.4777 280.931 11.4263ZM286.8 16H284.783V3.25H286.8V16ZM294.37 16C294.282 15.8285 294.204 15.549 294.138 15.1616C293.496 15.8312 292.71 16.166 291.78 16.166C290.878 16.166 290.142 15.9087 289.572 15.394C289.002 14.8794 288.717 14.243 288.717 13.4849C288.717 12.5275 289.071 11.7943 289.78 11.2852C290.494 10.7705 291.512 10.5132 292.834 10.5132H294.071V9.92383C294.071 9.45898 293.941 9.08822 293.681 8.81152C293.421 8.5293 293.025 8.38818 292.494 8.38818C292.035 8.38818 291.659 8.50439 291.365 8.73682C291.072 8.9637 290.925 9.25423 290.925 9.6084H288.908C288.908 9.11589 289.071 8.65658 289.398 8.23047C289.724 7.79883 290.167 7.46126 290.726 7.21777C291.291 6.97428 291.919 6.85254 292.61 6.85254C293.662 6.85254 294.5 7.11816 295.125 7.64941C295.751 8.17513 296.072 8.91667 296.088 9.87402V13.9248C296.088 14.7327 296.202 15.3774 296.429 15.8589V16H294.37ZM292.154 14.5474C292.552 14.5474 292.926 14.4505 293.274 14.2568C293.629 14.0632 293.894 13.8031 294.071 13.4766V11.7832H292.984C292.237 11.7832 291.675 11.9132 291.299 12.1733C290.923 12.4334 290.734 12.8014 290.734 13.2773C290.734 13.6647 290.862 13.9746 291.116 14.207C291.376 14.4339 291.722 14.5474 292.154 14.5474ZM301.21 13.1113L303.036 7.01855H305.186L301.617 17.3613C301.069 18.8721 300.139 19.6274 298.828 19.6274C298.534 19.6274 298.211 19.5776 297.856 19.478V17.9175L298.238 17.9424C298.747 17.9424 299.129 17.8483 299.384 17.6602C299.644 17.4775 299.849 17.1676 299.998 16.7305L300.289 15.9585L297.134 7.01855H299.309L301.21 13.1113ZM307.568 13.875C307.945 13.875 308.235 13.9829 308.44 14.1987C308.645 14.409 308.747 14.6746 308.747 14.9956C308.747 15.311 308.645 15.5739 308.44 15.7842C308.235 15.9889 307.945 16.0913 307.568 16.0913C307.209 16.0913 306.924 15.9889 306.713 15.7842C306.503 15.5794 306.398 15.3166 306.398 14.9956C306.398 14.6746 306.5 14.409 306.705 14.1987C306.91 13.9829 307.198 13.875 307.568 13.875ZM307.568 6.82764C307.945 6.82764 308.235 6.93555 308.44 7.15137C308.645 7.36165 308.747 7.62728 308.747 7.94824C308.747 8.26367 308.645 8.52653 308.44 8.73682C308.235 8.94157 307.945 9.04395 307.568 9.04395C307.209 9.04395 306.924 8.94157 306.713 8.73682C306.503 8.53206 306.398 8.26921 306.398 7.94824C306.398 7.62728 306.5 7.36165 306.705 7.15137C306.91 6.93555 307.198 6.82764 307.568 6.82764ZM345.71 6.82764C346.087 6.82764 346.377 6.93555 346.582 7.15137C346.787 7.36165 346.889 7.62728 346.889 7.94824C346.889 8.26367 346.787 8.52653 346.582 8.73682C346.377 8.94157 346.087 9.04395 345.71 9.04395C345.351 9.04395 345.066 8.94157 344.855 8.73682C344.645 8.53206 344.54 8.26921 344.54 7.94824C344.54 7.62728 344.642 7.36165 344.847 7.15137C345.052 6.93555 345.34 6.82764 345.71 6.82764ZM345.104 18.7227L344.017 18.0752C344.338 17.5716 344.557 17.1317 344.673 16.7554C344.795 16.3846 344.858 16.0055 344.864 15.6182V14.0493H346.682L346.673 15.502C346.668 16.0885 346.518 16.6751 346.225 17.2617C345.937 17.8538 345.564 18.3408 345.104 18.7227Z" fill="#444444"/>
<path d="M314.749 11.4429C314.749 10.0483 315.075 8.93604 315.728 8.10596C316.387 7.27035 317.258 6.85254 318.343 6.85254C319.367 6.85254 320.172 7.20947 320.758 7.92334L320.85 7.01855H322.667V15.7261C322.667 16.9048 322.299 17.8345 321.563 18.5151C320.833 19.1958 319.845 19.5361 318.6 19.5361C317.942 19.5361 317.297 19.3978 316.666 19.1211C316.041 18.8499 315.565 18.493 315.238 18.0503L316.193 16.8384C316.813 17.5744 317.576 17.9424 318.484 17.9424C319.153 17.9424 319.682 17.7598 320.069 17.3945C320.457 17.0348 320.65 16.5036 320.65 15.8008V15.1948C320.069 15.8423 319.295 16.166 318.326 16.166C317.275 16.166 316.414 15.7482 315.745 14.9126C315.081 14.077 314.749 12.9204 314.749 11.4429ZM316.757 11.6172C316.757 12.5192 316.94 13.2303 317.305 13.7505C317.676 14.2651 318.188 14.5225 318.841 14.5225C319.654 14.5225 320.257 14.1738 320.65 13.4766V9.52539C320.269 8.84473 319.671 8.50439 318.857 8.50439C318.193 8.50439 317.676 8.76725 317.305 9.29297C316.94 9.81868 316.757 10.5934 316.757 11.6172ZM329.449 8.86133C329.184 8.81706 328.91 8.79492 328.627 8.79492C327.703 8.79492 327.081 9.14909 326.76 9.85742V16H324.743V7.01855H326.668L326.718 8.02295C327.205 7.24268 327.88 6.85254 328.744 6.85254C329.031 6.85254 329.269 6.89128 329.458 6.96875L329.449 8.86133ZM332.869 16H330.852V7.01855H332.869V16ZM330.728 4.68604C330.728 4.37614 330.824 4.11882 331.018 3.91406C331.217 3.70931 331.5 3.60693 331.865 3.60693C332.23 3.60693 332.512 3.70931 332.711 3.91406C332.911 4.11882 333.01 4.37614 333.01 4.68604C333.01 4.9904 332.911 5.24495 332.711 5.44971C332.512 5.64893 332.23 5.74854 331.865 5.74854C331.5 5.74854 331.217 5.64893 331.018 5.44971C330.824 5.24495 330.728 4.9904 330.728 4.68604ZM334.695 11.4429C334.695 10.0594 335.016 8.94987 335.658 8.11426C336.3 7.27311 337.161 6.85254 338.24 6.85254C339.192 6.85254 339.961 7.18457 340.547 7.84863V3.25H342.564V16H340.738L340.639 15.0703C340.035 15.8008 339.23 16.166 338.223 16.166C337.172 16.166 336.319 15.7427 335.667 14.896C335.019 14.0493 334.695 12.8983 334.695 11.4429ZM336.712 11.6172C336.712 12.5303 336.887 13.2441 337.235 13.7588C337.59 14.2679 338.09 14.5225 338.738 14.5225C339.562 14.5225 340.166 14.1545 340.547 13.4185V9.5835C340.177 8.8641 339.579 8.50439 338.754 8.50439C338.101 8.50439 337.598 8.76449 337.244 9.28467C336.889 9.79932 336.712 10.5768 336.712 11.6172Z" fill="#1E73FF"/>
<path d="M87.0801 87H84.2578V76.1211L80.8887 77.166V74.8711L86.7773 72.7617H87.0801V87Z" fill="white"/>
<path d="M229.971 87H220.225V85.0664L224.824 80.1641C225.456 79.474 225.921 78.8717 226.221 78.3574C226.527 77.8431 226.68 77.3548 226.68 76.8926C226.68 76.2611 226.52 75.7663 226.201 75.4082C225.882 75.0436 225.426 74.8613 224.834 74.8613C224.196 74.8613 223.691 75.0827 223.32 75.5254C222.956 75.9616 222.773 76.5378 222.773 77.2539H219.941C219.941 76.388 220.146 75.597 220.557 74.8809C220.973 74.1647 221.559 73.6048 222.314 73.2012C223.07 72.791 223.926 72.5859 224.883 72.5859C226.348 72.5859 227.484 72.9375 228.291 73.6406C229.105 74.3438 229.512 75.3366 229.512 76.6191C229.512 77.3223 229.329 78.0384 228.965 78.7676C228.6 79.4967 227.975 80.3464 227.09 81.3164L223.857 84.7246H229.971V87Z" fill="white"/>
<path d="M363.096 78.6406H364.6C365.316 78.6406 365.846 78.4616 366.191 78.1035C366.536 77.7454 366.709 77.2702 366.709 76.6777C366.709 76.1048 366.536 75.6589 366.191 75.3398C365.853 75.0208 365.384 74.8613 364.785 74.8613C364.245 74.8613 363.792 75.0111 363.428 75.3105C363.063 75.6035 362.881 75.9876 362.881 76.4629H360.059C360.059 75.7207 360.257 75.0566 360.654 74.4707C361.058 73.8783 361.618 73.416 362.334 73.084C363.057 72.752 363.851 72.5859 364.717 72.5859C366.221 72.5859 367.399 72.9473 368.252 73.6699C369.105 74.3861 369.531 75.3757 369.531 76.6387C369.531 77.2897 369.333 77.8887 368.936 78.4355C368.538 78.9824 368.018 79.4023 367.373 79.6953C368.174 79.9818 368.77 80.4115 369.16 80.9844C369.557 81.5573 369.756 82.2344 369.756 83.0156C369.756 84.2786 369.294 85.291 368.369 86.0527C367.451 86.8145 366.234 87.1953 364.717 87.1953C363.298 87.1953 362.135 86.821 361.23 86.0723C360.332 85.3236 359.883 84.334 359.883 83.1035H362.705C362.705 83.6374 362.904 84.0736 363.301 84.4121C363.704 84.7507 364.199 84.9199 364.785 84.9199C365.456 84.9199 365.98 84.7441 366.357 84.3926C366.742 84.0345 366.934 83.5625 366.934 82.9766C366.934 81.5573 366.152 80.8477 364.59 80.8477H363.096V78.6406Z" fill="white"/>
<path d="M508.574 81.6484H510.186V83.9238H508.574V87H505.752V83.9238H499.922L499.795 82.1465L505.723 72.7812H508.574V81.6484ZM502.607 81.6484H505.752V76.6289L505.566 76.9512L502.607 81.6484Z" fill="white"/>
</svg>
