<svg width="365" height="163" viewBox="0 0 365 163" fill="none" xmlns="http://www.w3.org/2000/svg">
<rect x="51" y="27" width="258" height="108" rx="5" fill="#F7F7F7" stroke="#AAAAAA" stroke-width="2" stroke-dasharray="6 4"/>
<path d="M50.5605 9.24707C50.5605 8.09863 50.8294 7.18262 51.3672 6.49902C51.9095 5.81087 52.6273 5.4668 53.5205 5.4668C54.3636 5.4668 55.0267 5.76074 55.5098 6.34863L55.585 5.60352H57.082V12.7744C57.082 13.7451 56.779 14.5107 56.1729 15.0713C55.5713 15.6318 54.7578 15.9121 53.7324 15.9121C53.1901 15.9121 52.6592 15.7982 52.1396 15.5703C51.6247 15.347 51.2327 15.0531 50.9639 14.6885L51.75 13.6904C52.2604 14.2965 52.8893 14.5996 53.6367 14.5996C54.1882 14.5996 54.6234 14.4492 54.9424 14.1484C55.2614 13.8522 55.4209 13.4147 55.4209 12.8359V12.3369C54.9424 12.8701 54.3044 13.1367 53.5068 13.1367C52.641 13.1367 51.9323 12.7926 51.3809 12.1045C50.834 11.4163 50.5605 10.4639 50.5605 9.24707ZM52.2148 9.39062C52.2148 10.1335 52.3652 10.7191 52.666 11.1475C52.9714 11.5713 53.3929 11.7832 53.9307 11.7832C54.6006 11.7832 55.0973 11.4961 55.4209 10.9219V7.66797C55.1064 7.10742 54.6143 6.82715 53.9443 6.82715C53.3975 6.82715 52.9714 7.04362 52.666 7.47656C52.3652 7.90951 52.2148 8.54753 52.2148 9.39062ZM62.667 7.12109C62.4482 7.08464 62.2227 7.06641 61.9902 7.06641C61.2292 7.06641 60.7165 7.35807 60.4521 7.94141V13H58.791V5.60352H60.377L60.418 6.43066C60.819 5.78809 61.375 5.4668 62.0859 5.4668C62.3229 5.4668 62.5189 5.4987 62.6738 5.5625L62.667 7.12109ZM65.4834 13H63.8223V5.60352H65.4834V13ZM63.7197 3.68262C63.7197 3.42741 63.7995 3.21549 63.959 3.04688C64.123 2.87826 64.3555 2.79395 64.6562 2.79395C64.957 2.79395 65.1895 2.87826 65.3535 3.04688C65.5176 3.21549 65.5996 3.42741 65.5996 3.68262C65.5996 3.93327 65.5176 4.1429 65.3535 4.31152C65.1895 4.47559 64.957 4.55762 64.6562 4.55762C64.3555 4.55762 64.123 4.47559 63.959 4.31152C63.7995 4.1429 63.7197 3.93327 63.7197 3.68262ZM66.9873 9.24707C66.9873 8.10775 67.2516 7.19401 67.7803 6.50586C68.3089 5.81315 69.0176 5.4668 69.9062 5.4668C70.6901 5.4668 71.3236 5.74023 71.8066 6.28711V2.5H73.4678V13H71.9639L71.8818 12.2344C71.3851 12.8359 70.722 13.1367 69.8926 13.1367C69.0267 13.1367 68.3249 12.7881 67.7871 12.0908C67.2539 11.3936 66.9873 10.4456 66.9873 9.24707ZM68.6484 9.39062C68.6484 10.1426 68.792 10.7305 69.0791 11.1543C69.3708 11.5736 69.7832 11.7832 70.3164 11.7832C70.9954 11.7832 71.4922 11.4801 71.8066 10.874V7.71582C71.5013 7.12337 71.0091 6.82715 70.3301 6.82715C69.7923 6.82715 69.3776 7.04134 69.0859 7.46973C68.7943 7.89355 68.6484 8.53385 68.6484 9.39062ZM81.7256 11.8105C82.1403 11.8105 82.4844 11.6898 82.7578 11.4482C83.0312 11.2067 83.1771 10.9082 83.1953 10.5527H84.7607C84.7425 11.013 84.599 11.4437 84.3301 11.8447C84.0612 12.2412 83.6966 12.5557 83.2363 12.7881C82.776 13.0205 82.2793 13.1367 81.7461 13.1367C80.7116 13.1367 79.8913 12.8018 79.2852 12.1318C78.679 11.4619 78.376 10.5368 78.376 9.35645V9.18555C78.376 8.0599 78.6768 7.15983 79.2783 6.48535C79.8799 5.80632 80.7002 5.4668 81.7393 5.4668C82.6188 5.4668 83.3343 5.72428 83.8857 6.23926C84.4417 6.74967 84.7334 7.42188 84.7607 8.25586H83.1953C83.1771 7.83203 83.0312 7.4834 82.7578 7.20996C82.4889 6.93652 82.1449 6.7998 81.7256 6.7998C81.1878 6.7998 80.7731 6.99577 80.4814 7.3877C80.1898 7.77507 80.0417 8.36523 80.0371 9.1582V9.4248C80.0371 10.2269 80.1807 10.8262 80.4678 11.2227C80.7594 11.6146 81.1787 11.8105 81.7256 11.8105ZM85.7041 9.2334C85.7041 8.50879 85.8477 7.8571 86.1348 7.27832C86.4219 6.69499 86.8252 6.24837 87.3447 5.93848C87.8643 5.62402 88.4613 5.4668 89.1357 5.4668C90.1338 5.4668 90.9427 5.78809 91.5625 6.43066C92.1868 7.07324 92.5241 7.92546 92.5742 8.9873L92.5811 9.37695C92.5811 10.1061 92.4398 10.7578 92.1572 11.332C91.8792 11.9062 91.4782 12.3506 90.9541 12.665C90.4346 12.9795 89.833 13.1367 89.1494 13.1367C88.1058 13.1367 87.2695 12.7904 86.6406 12.0977C86.0163 11.4004 85.7041 10.473 85.7041 9.31543V9.2334ZM87.3652 9.37695C87.3652 10.138 87.5225 10.735 87.8369 11.168C88.1514 11.5964 88.5889 11.8105 89.1494 11.8105C89.71 11.8105 90.1452 11.5918 90.4551 11.1543C90.7695 10.7168 90.9268 10.0765 90.9268 9.2334C90.9268 8.486 90.765 7.89355 90.4414 7.45605C90.1224 7.01855 89.6872 6.7998 89.1357 6.7998C88.5934 6.7998 88.1628 7.01628 87.8438 7.44922C87.5247 7.8776 87.3652 8.52018 87.3652 9.37695ZM95.5273 5.60352L95.5752 6.45801C96.1221 5.7972 96.8398 5.4668 97.7285 5.4668C99.2689 5.4668 100.053 6.34863 100.08 8.1123V13H98.4189V8.20801C98.4189 7.73861 98.3164 7.39225 98.1113 7.16895C97.9108 6.94108 97.5804 6.82715 97.1201 6.82715C96.4502 6.82715 95.9512 7.13021 95.623 7.73633V13H93.9619V5.60352H95.5273ZM103.86 3.80566V5.60352H105.166V6.83398H103.86V10.9629C103.86 11.2454 103.915 11.4505 104.024 11.5781C104.138 11.7012 104.339 11.7627 104.626 11.7627C104.817 11.7627 105.011 11.7399 105.207 11.6943V12.9795C104.829 13.0843 104.464 13.1367 104.113 13.1367C102.837 13.1367 102.199 12.4326 102.199 11.0244V6.83398H100.982V5.60352H102.199V3.80566H103.86ZM110.86 13C110.787 12.8587 110.724 12.6286 110.669 12.3096C110.14 12.861 109.493 13.1367 108.728 13.1367C107.985 13.1367 107.379 12.9248 106.909 12.501C106.44 12.0771 106.205 11.5531 106.205 10.9287C106.205 10.1403 106.497 9.53646 107.08 9.11719C107.668 8.69336 108.507 8.48145 109.596 8.48145H110.614V7.99609C110.614 7.61328 110.507 7.30794 110.293 7.08008C110.079 6.84766 109.753 6.73145 109.315 6.73145C108.937 6.73145 108.627 6.82715 108.386 7.01855C108.144 7.2054 108.023 7.44466 108.023 7.73633H106.362C106.362 7.33073 106.497 6.95247 106.766 6.60156C107.035 6.24609 107.399 5.9681 107.859 5.76758C108.324 5.56706 108.841 5.4668 109.411 5.4668C110.277 5.4668 110.967 5.68555 111.482 6.12305C111.997 6.55599 112.262 7.16667 112.275 7.95508V11.291C112.275 11.9564 112.369 12.4873 112.556 12.8838V13H110.86ZM109.035 11.8037C109.363 11.8037 109.671 11.724 109.958 11.5645C110.25 11.4049 110.468 11.1908 110.614 10.9219V9.52734H109.719C109.104 9.52734 108.641 9.63444 108.331 9.84863C108.021 10.0628 107.866 10.3659 107.866 10.7578C107.866 11.0768 107.971 11.332 108.181 11.5234C108.395 11.7103 108.68 11.8037 109.035 11.8037ZM115.782 13H114.121V5.60352H115.782V13ZM114.019 3.68262C114.019 3.42741 114.098 3.21549 114.258 3.04688C114.422 2.87826 114.654 2.79395 114.955 2.79395C115.256 2.79395 115.488 2.87826 115.652 3.04688C115.816 3.21549 115.898 3.42741 115.898 3.68262C115.898 3.93327 115.816 4.1429 115.652 4.31152C115.488 4.47559 115.256 4.55762 114.955 4.55762C114.654 4.55762 114.422 4.47559 114.258 4.31152C114.098 4.1429 114.019 3.93327 114.019 3.68262ZM119.139 5.60352L119.187 6.45801C119.733 5.7972 120.451 5.4668 121.34 5.4668C122.88 5.4668 123.664 6.34863 123.691 8.1123V13H122.03V8.20801C122.03 7.73861 121.928 7.39225 121.723 7.16895C121.522 6.94108 121.192 6.82715 120.731 6.82715C120.062 6.82715 119.562 7.13021 119.234 7.73633V13H117.573V5.60352H119.139ZM128.647 13.1367C127.595 13.1367 126.74 12.8063 126.084 12.1455C125.432 11.4801 125.106 10.596 125.106 9.49316V9.28809C125.106 8.5498 125.248 7.89128 125.53 7.3125C125.817 6.72917 126.218 6.27572 126.733 5.95215C127.248 5.62858 127.823 5.4668 128.456 5.4668C129.463 5.4668 130.24 5.78809 130.787 6.43066C131.339 7.07324 131.614 7.98242 131.614 9.1582V9.82812H126.781C126.831 10.4388 127.034 10.9219 127.39 11.2773C127.75 11.6328 128.201 11.8105 128.743 11.8105C129.504 11.8105 130.124 11.5029 130.603 10.8877L131.498 11.7422C131.202 12.1842 130.805 12.5283 130.309 12.7744C129.816 13.016 129.263 13.1367 128.647 13.1367ZM128.449 6.7998C127.993 6.7998 127.624 6.95931 127.342 7.27832C127.064 7.59733 126.886 8.04167 126.809 8.61133H129.974V8.48828C129.937 7.93229 129.789 7.51302 129.529 7.23047C129.27 6.94336 128.91 6.7998 128.449 6.7998ZM136.782 7.12109C136.563 7.08464 136.338 7.06641 136.105 7.06641C135.344 7.06641 134.832 7.35807 134.567 7.94141V13H132.906V5.60352H134.492L134.533 6.43066C134.934 5.78809 135.49 5.4668 136.201 5.4668C136.438 5.4668 136.634 5.4987 136.789 5.5625L136.782 7.12109Z" fill="#BBBBBB"/>
<path d="M328.707 136.128C328.317 136.519 327.683 136.519 327.293 136.128L320.929 129.764C320.538 129.374 320.538 128.741 320.929 128.35C321.319 127.96 321.953 127.96 322.343 128.35L328 134.007L333.657 128.35C334.047 127.96 334.681 127.96 335.071 128.35C335.462 128.741 335.462 129.374 335.071 129.764L328.707 136.128ZM327.293 25.8719C327.683 25.4814 328.317 25.4814 328.707 25.8719L335.071 32.2359C335.462 32.6264 335.462 33.2596 335.071 33.6501C334.681 34.0406 334.047 34.0406 333.657 33.6501L328 27.9933L322.343 33.6501C321.953 34.0406 321.319 34.0406 320.929 33.6501C320.538 33.2596 320.538 32.6264 320.929 32.2359L327.293 25.8719ZM327 135.421V132.453H329V135.421H327ZM327 128.495V122.558H329V128.495H327ZM327 118.6V112.663H329V118.6H327ZM327 108.705V102.769H329V108.705H327ZM327 98.8106V92.8738H329V98.8106H327ZM327 88.9159V82.979H329V88.9159H327ZM327 79.0211V73.0843H329V79.0211H327ZM327 69.1264V63.1896H329V69.1264H327ZM327 59.2317V53.2948H329V59.2317H327ZM327 49.3369V43.4001H329V49.3369H327ZM327 39.4422V33.5053H329V39.4422H327ZM327 29.5475V26.579H329V29.5475H327Z" fill="#1E73FF"/>
<path d="M301.02 82.1108C301.02 83.3804 300.749 84.3716 300.207 85.0845C299.665 85.7925 298.908 86.1465 297.937 86.1465C297.077 86.1465 296.391 85.8169 295.878 85.1577L295.783 86H293.879V74.75H295.996V78.7856C296.484 78.2144 297.126 77.9287 297.922 77.9287C298.889 77.9287 299.646 78.2852 300.192 78.998C300.744 79.7061 301.02 80.7046 301.02 81.9937V82.1108ZM298.903 81.957C298.903 81.1562 298.776 80.5728 298.522 80.2065C298.269 79.8354 297.89 79.6499 297.387 79.6499C296.713 79.6499 296.25 79.9258 295.996 80.4775V83.605C296.254 84.1616 296.723 84.4399 297.402 84.4399C298.085 84.4399 298.535 84.103 298.75 83.4292C298.852 83.1069 298.903 82.6162 298.903 81.957Z" fill="#1E73FF"/>
<path d="M304.565 86H302.441V74.75H304.565V86Z" fill="#1E73FF"/>
<path d="M305.986 81.9644C305.986 81.1782 306.137 80.4775 306.44 79.8623C306.743 79.2471 307.177 78.771 307.744 78.4341C308.315 78.0972 308.977 77.9287 309.729 77.9287C310.798 77.9287 311.669 78.2559 312.343 78.9102C313.022 79.5645 313.4 80.4531 313.479 81.5762L313.493 82.1182C313.493 83.334 313.154 84.3105 312.475 85.0479C311.796 85.7803 310.886 86.1465 309.743 86.1465C308.601 86.1465 307.688 85.7803 307.004 85.0479C306.325 84.3154 305.986 83.3193 305.986 82.0596V81.9644ZM308.103 82.1182C308.103 82.8701 308.244 83.4463 308.527 83.8467C308.811 84.2422 309.216 84.4399 309.743 84.4399C310.256 84.4399 310.656 84.2446 310.944 83.854C311.232 83.4585 311.376 82.8286 311.376 81.9644C311.376 81.2271 311.232 80.6558 310.944 80.2505C310.656 79.8452 310.251 79.6426 309.729 79.6426C309.211 79.6426 308.811 79.8452 308.527 80.2505C308.244 80.6509 308.103 81.2734 308.103 82.1182Z" fill="#1E73FF"/>
<path d="M318.093 84.4399C318.483 84.4399 318.801 84.3325 319.045 84.1177C319.289 83.9028 319.416 83.6172 319.426 83.2607H321.411C321.406 83.7979 321.259 84.291 320.971 84.7402C320.683 85.1846 320.288 85.5312 319.785 85.7803C319.287 86.0244 318.735 86.1465 318.129 86.1465C316.997 86.1465 316.103 85.7876 315.449 85.0698C314.794 84.3472 314.467 83.3511 314.467 82.0815V81.9424C314.467 80.7217 314.792 79.7476 315.441 79.02C316.091 78.2925 316.982 77.9287 318.115 77.9287C319.106 77.9287 319.899 78.2119 320.495 78.7783C321.096 79.3398 321.401 80.0894 321.411 81.0269H319.426C319.416 80.6167 319.289 80.2847 319.045 80.0308C318.801 79.772 318.479 79.6426 318.078 79.6426C317.585 79.6426 317.211 79.8232 316.958 80.1846C316.708 80.541 316.584 81.1221 316.584 81.9277V82.1475C316.584 82.9629 316.708 83.5488 316.958 83.9053C317.207 84.2617 317.585 84.4399 318.093 84.4399Z" fill="#1E73FF"/>
<path d="M325.498 82.8213L324.736 83.583V86H322.619V74.75H324.736V80.9829L325.146 80.4556L327.175 78.0752H329.716L326.853 81.3784L329.965 86H327.534L325.498 82.8213Z" fill="#1E73FF"/>
<path d="M338.959 86C338.862 85.8096 338.791 85.5728 338.747 85.2896C338.234 85.8608 337.568 86.1465 336.748 86.1465C335.971 86.1465 335.327 85.9219 334.814 85.4727C334.306 85.0234 334.052 84.457 334.052 83.7734C334.052 82.9336 334.362 82.2891 334.982 81.8398C335.607 81.3906 336.508 81.1636 337.685 81.1587H338.659V80.7046C338.659 80.3384 338.564 80.0454 338.374 79.8257C338.188 79.606 337.893 79.4961 337.487 79.4961C337.131 79.4961 336.85 79.5815 336.645 79.7524C336.445 79.9233 336.345 80.1577 336.345 80.4556H334.228C334.228 79.9966 334.37 79.5718 334.653 79.1812C334.936 78.7905 335.336 78.4854 335.854 78.2656C336.372 78.041 336.953 77.9287 337.597 77.9287C338.574 77.9287 339.348 78.1753 339.919 78.6685C340.495 79.1567 340.783 79.8452 340.783 80.7339V84.1689C340.788 84.9209 340.893 85.4897 341.098 85.8755V86H338.959ZM337.209 84.5278C337.521 84.5278 337.81 84.4595 338.073 84.3228C338.337 84.1812 338.532 83.9932 338.659 83.7588V82.3965H337.868C336.809 82.3965 336.245 82.7627 336.176 83.4951L336.169 83.6196C336.169 83.8833 336.262 84.1006 336.447 84.2715C336.633 84.4424 336.887 84.5278 337.209 84.5278Z" fill="#1E73FF"/>
<path d="M345.427 80.4409L346.76 78.0752H349.023L346.767 81.957L349.118 86H346.848L345.434 83.5098L344.028 86H341.75L344.101 81.957L341.853 78.0752H344.123L345.427 80.4409Z" fill="#1E73FF"/>
<path d="M352.275 86H350.151V78.0752H352.275V86ZM350.026 76.0244C350.026 75.707 350.131 75.4458 350.341 75.2407C350.556 75.0356 350.847 74.9331 351.213 74.9331C351.574 74.9331 351.862 75.0356 352.077 75.2407C352.292 75.4458 352.399 75.707 352.399 76.0244C352.399 76.3467 352.29 76.6104 352.07 76.8154C351.855 77.0205 351.569 77.123 351.213 77.123C350.856 77.123 350.568 77.0205 350.349 76.8154C350.134 76.6104 350.026 76.3467 350.026 76.0244Z" fill="#1E73FF"/>
<path d="M358.317 83.8101C358.317 83.5513 358.188 83.3486 357.929 83.2021C357.675 83.0508 357.265 82.9165 356.699 82.7993C354.814 82.4038 353.872 81.603 353.872 80.397C353.872 79.6938 354.162 79.1079 354.743 78.6392C355.329 78.1655 356.093 77.9287 357.036 77.9287C358.042 77.9287 358.845 78.1655 359.445 78.6392C360.051 79.1128 360.354 79.728 360.354 80.4849H358.237C358.237 80.1821 358.139 79.9331 357.944 79.7378C357.749 79.5376 357.443 79.4375 357.028 79.4375C356.672 79.4375 356.396 79.5181 356.201 79.6792C356.005 79.8403 355.908 80.0454 355.908 80.2944C355.908 80.5288 356.018 80.7192 356.237 80.8657C356.462 81.0073 356.838 81.1318 357.365 81.2393C357.893 81.3418 358.337 81.459 358.698 81.5908C359.816 82.001 360.375 82.7114 360.375 83.7222C360.375 84.4448 360.065 85.0308 359.445 85.48C358.825 85.9243 358.024 86.1465 357.043 86.1465C356.379 86.1465 355.788 86.0293 355.271 85.7949C354.758 85.5557 354.355 85.231 354.062 84.8208C353.769 84.4058 353.623 83.959 353.623 83.4805H355.629C355.649 83.8564 355.788 84.1445 356.047 84.3447C356.306 84.5449 356.652 84.645 357.087 84.645C357.492 84.645 357.797 84.5693 358.002 84.418C358.212 84.2617 358.317 84.0591 358.317 83.8101Z" fill="#1E73FF"/>
<path fill-rule="evenodd" clip-rule="evenodd" d="M302.441 86H304.565V74.75H302.441V86ZM300.218 79.0311C300.209 79.02 300.201 79.009 300.192 78.998C300.13 78.9162 300.064 78.839 299.996 78.7665C299.58 78.3257 299.062 78.0588 298.441 77.9659C298.275 77.9411 298.102 77.9287 297.922 77.9287C297.908 77.9287 297.893 77.9288 297.879 77.929C297.708 77.9312 297.544 77.9468 297.387 77.9759C296.833 78.0784 296.369 78.3484 295.996 78.7856V74.75H293.879V86H295.783L295.878 85.1577C296.194 85.5632 296.575 85.8439 297.021 86C297.143 86.0426 297.27 86.076 297.402 86.1C297.572 86.131 297.75 86.1465 297.937 86.1465C298.112 86.1465 298.28 86.135 298.441 86.112C298.612 86.0876 298.775 86.0503 298.93 86C299.216 85.9074 299.475 85.771 299.708 85.5906C299.891 85.449 300.057 85.2803 300.207 85.0845C300.344 84.9049 300.463 84.7078 300.565 84.4929C300.63 84.3568 300.687 84.2136 300.738 84.0633C300.738 84.0629 300.739 84.0625 300.739 84.0621C300.926 83.508 301.02 82.8576 301.02 82.1108V81.9937C301.02 81.9814 301.02 81.9692 301.02 81.957C301.016 81.0174 300.864 80.2335 300.565 79.6053C300.467 79.4008 300.354 79.2128 300.225 79.0413C300.223 79.0379 300.22 79.0345 300.218 79.0311ZM298.522 80.2065C298.497 80.1687 298.469 80.1328 298.441 80.0988C298.3 79.9304 298.127 79.8093 297.922 79.7357C297.908 79.7306 297.893 79.7257 297.879 79.7211C297.731 79.6736 297.567 79.6499 297.387 79.6499C297.264 79.6499 297.148 79.6591 297.039 79.6775C296.934 79.6952 296.836 79.7213 296.744 79.7559C296.408 79.8827 296.159 80.1232 295.996 80.4775V83.605C296.133 83.8996 296.328 84.1162 296.583 84.2549C296.676 84.3054 296.776 84.3455 296.884 84.3754C297.041 84.4184 297.213 84.4399 297.402 84.4399C297.576 84.4399 297.735 84.4181 297.879 84.3743C297.898 84.3683 297.918 84.362 297.937 84.3553C298.136 84.2844 298.304 84.1691 298.441 84.0093C298.486 83.9567 298.528 83.8993 298.566 83.8371C298.568 83.8351 298.569 83.8332 298.57 83.8312C298.612 83.7618 298.651 83.6863 298.685 83.605C298.708 83.5492 298.73 83.4906 298.75 83.4292C298.777 83.3425 298.801 83.2437 298.821 83.1327C298.838 83.042 298.852 82.9432 298.863 82.8363C298.873 82.745 298.881 82.6478 298.887 82.5446C298.888 82.5342 298.888 82.5237 298.889 82.5132C298.894 82.4308 298.897 82.3447 298.9 82.2549C298.901 82.2079 298.902 82.1599 298.902 82.1108C298.903 82.0724 298.903 82.0333 298.903 81.9937C298.903 81.9815 298.903 81.9693 298.903 81.957C298.903 81.9089 298.903 81.8615 298.902 81.815C298.9 81.725 298.897 81.638 298.891 81.5539C298.891 81.5463 298.891 81.5386 298.89 81.531C298.883 81.428 298.874 81.3295 298.862 81.2354C298.849 81.1332 298.833 81.0363 298.814 80.9446C298.777 80.7698 298.729 80.6141 298.671 80.4775C298.638 80.4019 298.602 80.3321 298.563 80.2681C298.56 80.2636 298.557 80.2591 298.554 80.2547C298.544 80.2382 298.533 80.2222 298.522 80.2065ZM296.508 90C296.97 90.0974 297.448 90.1465 297.937 90.1465C298.438 90.1465 298.934 90.0982 299.417 90H308.146C308.67 90.0991 309.205 90.1465 309.743 90.1465C311.217 90.1465 312.671 89.7901 313.943 88.9876C315.216 89.7967 316.67 90.1465 318.129 90.1465C318.645 90.1465 319.161 90.0994 319.671 90H320.736V92.6411L322.79 90H335.261C335.753 90.0996 336.251 90.1465 336.748 90.1465C337.237 90.1465 337.72 90.0981 338.191 90H355.416C355.96 90.1012 356.505 90.1465 357.043 90.1465C358.621 90.1465 360.304 89.7856 361.775 88.7315L361.784 88.7254L361.792 88.7193C363.181 87.713 364.119 86.2408 364.33 84.4849H364.354V84.2555C364.368 84.0803 364.375 83.9025 364.375 83.7222C364.375 83.5436 364.368 83.3643 364.354 83.1849V80.4849C364.354 78.4781 363.469 76.7116 361.917 75.4939C360.417 74.3136 358.654 73.9287 357.036 73.9287C356.689 73.9287 356.337 73.9478 355.985 73.9895C355.728 73.3929 355.348 72.8336 354.839 72.3473C353.725 71.2844 352.367 70.9331 351.213 70.9331C350.07 70.9331 348.703 71.2749 347.579 72.3473L347.563 72.3632L347.546 72.3792C347.029 72.8842 346.652 73.4627 346.403 74.0752H339.218C338.672 73.9727 338.127 73.9287 337.597 73.9287C337.058 73.9287 336.514 73.9745 335.974 74.0752H328.736V70.75H318.619V73.9431C318.451 73.9334 318.282 73.9287 318.115 73.9287C316.654 73.9287 315.2 74.2824 313.932 75.095C312.653 74.2862 311.2 73.9287 309.729 73.9287C309.341 73.9287 308.952 73.9539 308.565 74.0069V70.75H289.879V90H296.508ZM306.441 79.8603C306.441 79.861 306.44 79.8616 306.44 79.8623C306.137 80.4775 305.986 81.1782 305.986 81.9644V82.0596C305.986 82.0792 305.986 82.0987 305.986 82.1182C305.993 82.9355 306.145 83.6403 306.441 84.2328C306.576 84.5026 306.741 84.7491 306.936 84.9723C306.938 84.9752 306.941 84.978 306.943 84.9809C306.963 85.0034 306.983 85.0258 307.004 85.0479C307.434 85.5082 307.954 85.8239 308.565 85.9949C308.926 86.096 309.319 86.1465 309.743 86.1465C310.3 86.1465 310.802 86.0595 311.249 85.8855C311.718 85.7025 312.127 85.4233 312.475 85.0479C312.487 85.035 312.499 85.022 312.51 85.009C312.513 85.0061 312.516 85.0032 312.518 85.0003C312.655 84.8466 312.777 84.6828 312.885 84.5088C313.286 83.8617 313.489 83.0746 313.493 82.1475C313.493 82.1377 313.493 82.1279 313.493 82.1182L313.479 81.5762C313.424 80.7985 313.226 80.1333 312.884 79.5804C312.782 79.4157 312.668 79.2609 312.54 79.1161C312.478 79.045 312.412 78.9764 312.343 78.9102C312.022 78.5986 311.657 78.3613 311.246 78.1981C310.795 78.0185 310.289 77.9287 309.729 77.9287C309.313 77.9287 308.925 77.9801 308.565 78.083C308.273 78.1663 307.999 78.2833 307.744 78.4341C307.431 78.6199 307.159 78.848 306.927 79.1184C306.924 79.1213 306.922 79.1241 306.92 79.127C306.734 79.3443 306.575 79.5887 306.441 79.8603ZM308.527 80.2505C308.426 80.394 308.343 80.566 308.277 80.7665C308.255 80.8348 308.235 80.9063 308.217 80.9812C308.162 81.2112 308.127 81.4724 308.111 81.7648C308.111 81.773 308.111 81.7813 308.11 81.7896C308.107 81.8467 308.105 81.9049 308.104 81.9644C308.103 81.9958 308.103 82.0275 308.103 82.0596C308.103 82.079 308.103 82.0985 308.103 82.1182C308.103 82.1693 308.103 82.2196 308.105 82.2692C308.113 82.5796 308.147 82.858 308.206 83.1045C308.262 83.3333 308.339 83.5346 308.439 83.7083C308.44 83.7104 308.442 83.7125 308.443 83.7146C308.469 83.7605 308.498 83.8046 308.527 83.8467C308.54 83.8639 308.552 83.8807 308.565 83.8971C308.846 84.259 309.239 84.4399 309.743 84.4399C310.111 84.4399 310.422 84.3392 310.674 84.1377C310.773 84.0587 310.863 83.9641 310.944 83.854C310.975 83.8117 311.004 83.7668 311.032 83.7192C311.033 83.7173 311.034 83.7154 311.035 83.7134C311.132 83.5433 311.209 83.3393 311.265 83.1015C311.322 82.8572 311.357 82.5772 311.37 82.2614C311.371 82.2536 311.371 82.2457 311.371 82.2379C311.372 82.2172 311.373 82.1964 311.373 82.1755C311.374 82.1565 311.374 82.1374 311.375 82.1182C311.375 82.106 311.375 82.0938 311.376 82.0815C311.376 82.043 311.376 82.0039 311.376 81.9644C311.376 81.957 311.376 81.9497 311.376 81.9424C311.376 81.9054 311.376 81.8687 311.375 81.8326C311.375 81.8244 311.374 81.8163 311.374 81.8082C311.373 81.7794 311.372 81.751 311.371 81.7228C311.37 81.6926 311.368 81.6628 311.366 81.6333C311.351 81.4002 311.319 81.1862 311.271 80.9915C311.206 80.7322 311.112 80.5069 310.988 80.3155C310.987 80.3135 310.986 80.3115 310.984 80.3095C310.971 80.2894 310.958 80.2698 310.944 80.2505C310.862 80.1343 310.77 80.0349 310.668 79.952C310.414 79.7457 310.101 79.6426 309.729 79.6426C309.309 79.6426 308.966 79.7759 308.7 80.0425C308.699 80.0442 308.697 80.0459 308.695 80.0477C308.65 80.0941 308.606 80.1444 308.565 80.1988C308.552 80.2156 308.54 80.2329 308.527 80.2505ZM315.028 79.5893C314.714 80.1284 314.532 80.7674 314.482 81.5064C314.481 81.5206 314.48 81.5348 314.479 81.5491C314.471 81.6726 314.468 81.7988 314.467 81.9277C314.467 81.9326 314.467 81.9375 314.467 81.9424V82.0815C314.467 82.085 314.467 82.0884 314.467 82.0918C314.467 82.1006 314.467 82.1094 314.467 82.1182C314.467 82.1279 314.467 82.1377 314.468 82.1475C314.476 83.0786 314.663 83.8605 315.029 84.493C315.134 84.6748 315.254 84.8443 315.388 85.0014C315.408 85.0245 315.428 85.0473 315.449 85.0698C315.792 85.4465 316.201 85.7243 316.676 85.9033C317.097 86.0617 317.569 86.1428 318.093 86.1464C318.105 86.1464 318.117 86.1465 318.129 86.1465C318.297 86.1465 318.46 86.1372 318.619 86.1185C318.824 86.0945 319.022 86.055 319.214 86C319.285 85.9794 319.356 85.9567 319.426 85.9318C319.548 85.888 319.668 85.8375 319.785 85.7803C319.954 85.6963 320.112 85.6012 320.257 85.495C320.435 85.3647 320.595 85.2178 320.736 85.0542C320.744 85.0451 320.751 85.036 320.759 85.0269C320.835 84.9363 320.906 84.8408 320.971 84.7402C321.201 84.3824 321.34 83.9966 321.39 83.583C321.401 83.495 321.407 83.4057 321.41 83.3151C321.41 83.297 321.41 83.2789 321.411 83.2607H319.426C319.422 83.4162 319.395 83.5581 319.346 83.6866C319.345 83.6897 319.344 83.6928 319.343 83.6958C319.279 83.8581 319.18 83.9988 319.045 84.1177C319.027 84.133 319.01 84.1478 318.991 84.1621C318.99 84.1636 318.988 84.1651 318.986 84.1666C318.877 84.2509 318.755 84.3156 318.619 84.3609C318.472 84.4103 318.308 84.4365 318.129 84.4396C318.117 84.4398 318.105 84.4399 318.093 84.4399C317.761 84.4399 317.485 84.3641 317.264 84.2123C317.146 84.1315 317.044 84.0291 316.958 83.9053C316.929 83.865 316.903 83.8219 316.878 83.7758C316.877 83.7738 316.876 83.7719 316.875 83.7699C316.794 83.619 316.73 83.437 316.683 83.224C316.68 83.2113 316.677 83.1984 316.675 83.1854C316.627 82.9561 316.598 82.692 316.588 82.3932C316.588 82.3788 316.587 82.3644 316.587 82.3499C316.585 82.284 316.584 82.2166 316.584 82.1475V81.9277C316.584 81.7743 316.589 81.629 316.598 81.4919C316.601 81.4465 316.604 81.402 316.608 81.3585C316.608 81.3554 316.609 81.3524 316.609 81.3494C316.617 81.2602 316.627 81.1748 316.64 81.0932C316.65 81.0278 316.661 80.9648 316.674 80.9042C316.723 80.6683 316.793 80.469 316.882 80.3061C316.906 80.263 316.931 80.2225 316.958 80.1846C317.044 80.0609 317.145 79.9584 317.26 79.8771C317.481 79.7207 317.754 79.6426 318.078 79.6426C318.09 79.6426 318.103 79.6427 318.115 79.6429C318.3 79.6467 318.468 79.6788 318.619 79.7392C318.781 79.8039 318.923 79.9011 319.045 80.0308C319.089 80.0767 319.129 80.1252 319.166 80.1763C319.169 80.1807 319.172 80.1852 319.175 80.1898C319.303 80.3737 319.382 80.5902 319.413 80.8394C319.42 80.8999 319.424 80.9624 319.426 81.0269H321.411C321.41 81.0122 321.41 80.9975 321.41 80.9829C321.41 80.9818 321.41 80.9807 321.41 80.9796C321.396 80.3092 321.228 79.7363 320.908 79.2607C320.855 79.1819 320.797 79.1057 320.736 79.0322C320.662 78.9437 320.581 78.8591 320.495 78.7783C320.475 78.7589 320.454 78.7398 320.433 78.7211C320.429 78.717 320.424 78.713 320.42 78.709C320.132 78.4539 319.801 78.2614 319.426 78.1315C319.176 78.0449 318.907 77.9861 318.619 77.955C318.457 77.9375 318.289 77.9287 318.115 77.9287C318.103 77.9287 318.09 77.9288 318.078 77.9288C317.556 77.9325 317.087 78.014 316.668 78.1733C316.192 78.3547 315.783 78.6369 315.441 79.02C315.423 79.0403 315.405 79.0608 315.388 79.0815C315.387 79.0829 315.386 79.0842 315.384 79.0855C315.251 79.2424 315.132 79.4104 315.028 79.5893ZM322.619 86H324.736V83.583L325.498 82.8213L327.534 86H329.965L326.853 81.3784L329.716 78.0752H327.175L325.146 80.4556L324.736 80.9829V74.75H322.619V86ZM341.098 86V85.8755C341.045 85.7759 340.999 85.6642 340.959 85.5402C340.922 85.4238 340.891 85.2966 340.865 85.1587C340.858 85.1179 340.851 85.0761 340.844 85.0334C340.841 85.011 340.838 84.9885 340.835 84.9656C340.833 84.9554 340.832 84.9452 340.831 84.935C340.801 84.7052 340.785 84.4498 340.783 84.1689V80.7339C340.783 80.7241 340.783 80.7143 340.783 80.7046C340.782 80.5447 340.771 80.3914 340.751 80.2446C340.739 80.1544 340.723 80.0667 340.704 79.9815C340.702 79.975 340.701 79.9684 340.699 79.9619C340.614 79.5976 340.463 79.2789 340.246 79.0056C340.15 78.8843 340.041 78.7719 339.919 78.6685C339.89 78.6435 339.861 78.6191 339.831 78.5954C339.824 78.5902 339.817 78.5851 339.811 78.58C339.729 78.5162 339.643 78.4572 339.553 78.4028C339.549 78.4007 339.546 78.3986 339.542 78.3965C339.281 78.2395 338.986 78.122 338.659 78.044C338.361 77.973 338.037 77.9348 337.685 77.9294C337.681 77.9293 337.676 77.9293 337.672 77.9292C337.647 77.9289 337.622 77.9287 337.597 77.9287C337.56 77.9287 337.524 77.9291 337.487 77.9298C337.375 77.9321 337.264 77.9378 337.156 77.9471C336.872 77.9713 336.602 78.0195 336.345 78.0916C336.175 78.1392 336.012 78.1972 335.854 78.2656C335.742 78.3131 335.636 78.3646 335.535 78.4201C335.529 78.4235 335.522 78.4269 335.516 78.4303C335.159 78.6298 334.871 78.8801 334.653 79.1812C334.643 79.1944 334.634 79.2078 334.624 79.2211C334.36 79.6007 334.228 80.0122 334.228 80.4556H336.345C336.345 80.4397 336.345 80.4239 336.346 80.4084C336.353 80.1931 336.416 80.0125 336.534 79.8666C336.537 79.8626 336.54 79.8586 336.544 79.8546C336.574 79.8183 336.608 79.7843 336.645 79.7524C336.85 79.5815 337.131 79.4961 337.487 79.4961C337.525 79.4961 337.561 79.497 337.597 79.4989C337.625 79.5004 337.652 79.5024 337.678 79.505C337.68 79.5052 337.683 79.5054 337.685 79.5057C337.749 79.5122 337.81 79.5222 337.868 79.5355C337.966 79.5579 338.053 79.59 338.132 79.6317C338.204 79.6703 338.268 79.7171 338.324 79.7722C338.341 79.7892 338.358 79.8071 338.374 79.8257C338.424 79.8836 338.467 79.9466 338.504 80.0147C338.537 80.0758 338.565 80.1411 338.588 80.2104C338.59 80.2174 338.592 80.2243 338.594 80.2314C338.616 80.302 338.632 80.3767 338.643 80.4556C338.646 80.4797 338.649 80.5042 338.651 80.5292C338.657 80.5856 338.659 80.6441 338.659 80.7046V81.1587H337.685C337.656 81.1588 337.626 81.1591 337.597 81.1595C337.56 81.16 337.524 81.1607 337.487 81.1617C337.454 81.1625 337.421 81.1636 337.389 81.1648C337.328 81.1671 337.268 81.1701 337.209 81.1737C337.179 81.1755 337.149 81.1775 337.119 81.1797C337.11 81.1804 337.101 81.181 337.092 81.1817C337.08 81.1826 337.068 81.1836 337.056 81.1845C337.012 81.1882 336.968 81.1922 336.924 81.1966C336.876 81.2014 336.83 81.2066 336.783 81.2123C336.779 81.2128 336.776 81.2133 336.772 81.2137C336.755 81.2158 336.739 81.2179 336.722 81.2201C336.641 81.231 336.561 81.2432 336.484 81.2569C336.466 81.2599 336.449 81.263 336.432 81.2662C336.403 81.2717 336.373 81.2773 336.345 81.2831C335.926 81.3683 335.561 81.4972 335.251 81.6698C335.156 81.7224 335.067 81.7791 334.982 81.8398C334.973 81.8466 334.964 81.8533 334.955 81.8602C334.619 82.1106 334.376 82.4202 334.228 82.7889C334.164 82.9483 334.117 83.1187 334.088 83.3002C334.084 83.3239 334.081 83.3477 334.078 83.3717C334.072 83.4125 334.068 83.4539 334.064 83.4958C334.061 83.5366 334.058 83.5778 334.056 83.6196C334.053 83.6701 334.052 83.7214 334.052 83.7734C334.052 84.0155 334.084 84.2429 334.148 84.4556C334.264 84.8435 334.486 85.1825 334.814 85.4727C334.913 85.5592 335.016 85.6374 335.125 85.7072C335.188 85.7481 335.254 85.7861 335.32 85.8213C335.732 86.0381 336.208 86.1465 336.748 86.1465C336.828 86.1465 336.906 86.1438 336.983 86.1383C337.004 86.1369 337.025 86.1352 337.045 86.1333C337.101 86.1283 337.155 86.1219 337.209 86.114C337.375 86.0897 337.534 86.0517 337.686 86C337.748 85.9789 337.809 85.9555 337.868 85.9299C337.908 85.9128 337.947 85.8946 337.986 85.8755C338.223 85.7577 338.439 85.6016 338.635 85.407C338.64 85.4027 338.644 85.3983 338.649 85.3939C338.652 85.3904 338.656 85.3868 338.659 85.3832C338.689 85.3529 338.718 85.3217 338.747 85.2896C338.779 85.4979 338.826 85.6811 338.888 85.8392C338.892 85.8515 338.897 85.8636 338.902 85.8755C338.913 85.902 338.924 85.9277 338.936 85.9527C338.944 85.9688 338.952 85.9845 338.959 86H341.098ZM338.659 82.3965H337.868C337.807 82.3965 337.748 82.3977 337.69 82.4001C337.688 82.4002 337.687 82.4003 337.685 82.4003C337.617 82.4033 337.551 82.408 337.487 82.4143C337.458 82.4172 337.43 82.4205 337.402 82.4241C337.335 82.4327 337.271 82.4433 337.209 82.456C337.177 82.4625 337.146 82.4695 337.116 82.4771C337.106 82.4796 337.096 82.4822 337.086 82.4849C336.975 82.5145 336.874 82.5516 336.783 82.5962C336.771 82.6021 336.759 82.6081 336.748 82.6143C336.714 82.6321 336.682 82.651 336.651 82.6709C336.524 82.7535 336.422 82.8547 336.345 82.9745C336.323 83.0084 336.303 83.0438 336.286 83.0806C336.273 83.1076 336.261 83.1354 336.25 83.164C336.213 83.2627 336.188 83.3709 336.177 83.4887C336.177 83.4908 336.176 83.493 336.176 83.4951L336.169 83.6196C336.169 83.6675 336.172 83.7139 336.178 83.7588C336.179 83.7637 336.18 83.7686 336.18 83.7734C336.186 83.8119 336.194 83.8492 336.205 83.8854C336.206 83.8892 336.207 83.8929 336.208 83.8967C336.237 83.9928 336.283 84.0807 336.345 84.1604C336.375 84.1994 336.409 84.2364 336.447 84.2715C336.533 84.3503 336.633 84.4109 336.748 84.4534C336.75 84.4541 336.752 84.4548 336.753 84.4556C336.765 84.4597 336.776 84.4637 336.788 84.4674C336.821 84.4782 336.856 84.4875 336.891 84.4954C336.897 84.4967 336.903 84.498 336.909 84.4992C337.001 84.5183 337.101 84.5278 337.209 84.5278C337.375 84.5278 337.533 84.5086 337.685 84.4703C337.69 84.4691 337.694 84.468 337.699 84.4668C337.712 84.4632 337.726 84.4595 337.74 84.4556C337.759 84.45 337.779 84.4441 337.798 84.4378C337.822 84.4302 337.845 84.4221 337.868 84.4135C337.873 84.4117 337.878 84.4099 337.883 84.4081C337.948 84.3834 338.011 84.355 338.073 84.3228C338.086 84.3161 338.098 84.3093 338.11 84.3025C338.174 84.2662 338.234 84.2271 338.289 84.1851C338.296 84.1798 338.303 84.1744 338.31 84.1689C338.351 84.1366 338.39 84.1027 338.426 84.0671C338.518 83.9772 338.594 83.8768 338.655 83.7659C338.657 83.7635 338.658 83.7612 338.659 83.7588V82.3965ZM341.75 86H344.028L345.434 83.5098L346.848 86H349.118L346.767 81.957L349.023 78.0752H346.76L345.427 80.4409L344.123 78.0752H341.853L344.101 81.957L341.75 86ZM350.151 86H352.275V78.0752H350.151V86ZM350.832 77.0776C350.949 77.1079 351.076 77.123 351.213 77.123C351.503 77.123 351.747 77.055 351.943 76.9188C351.951 76.9137 351.958 76.9085 351.965 76.9032C352.002 76.8764 352.037 76.8471 352.07 76.8154C352.154 76.7364 352.223 76.6487 352.275 76.5522C352.358 76.3984 352.399 76.2225 352.399 76.0244C352.399 75.9008 352.383 75.7858 352.351 75.6792C352.35 75.676 352.349 75.6728 352.348 75.6696C352.329 75.6096 352.304 75.5523 352.275 75.4977C352.274 75.4962 352.273 75.4947 352.272 75.4932C352.222 75.4013 352.157 75.3171 352.077 75.2407C352.037 75.2028 351.995 75.1683 351.95 75.1374C351.943 75.1324 351.936 75.1275 351.928 75.1227C351.735 74.9963 351.497 74.9331 351.213 74.9331C350.925 74.9331 350.684 74.9964 350.49 75.1229C350.483 75.1277 350.475 75.1325 350.468 75.1375C350.423 75.1684 350.381 75.2028 350.341 75.2407C350.263 75.3169 350.2 75.4007 350.151 75.4923C350.068 75.6475 350.026 75.8249 350.026 76.0244C350.026 76.2247 350.068 76.4024 350.151 76.5574C350.201 76.6518 350.267 76.7378 350.349 76.8154C350.389 76.853 350.431 76.8871 350.476 76.9178C350.582 76.9902 350.701 77.0435 350.832 77.0776ZM352.964 74.0752H353.26C353.248 74.0626 353.237 74.0502 353.225 74.0379C353.188 73.9978 353.149 73.9592 353.111 73.922L352.964 74.0752ZM354.151 79.3156C354.12 79.3695 354.091 79.4244 354.065 79.4805C353.95 79.7309 353.886 80.0022 353.874 80.2944C353.872 80.3283 353.872 80.3625 353.872 80.397C353.872 80.4078 353.872 80.4185 353.872 80.4292C353.877 80.7953 353.97 81.1236 354.151 81.4141C354.178 81.457 354.206 81.4991 354.237 81.5404C354.348 81.6906 354.485 81.8299 354.647 81.9582C354.7 82.0007 354.757 82.0419 354.816 82.082C354.949 82.1722 355.097 82.2564 355.258 82.3345C355.263 82.3371 355.269 82.3397 355.274 82.3423C355.282 82.3462 355.291 82.3501 355.299 82.354C355.305 82.3571 355.312 82.3601 355.318 82.3631C355.417 82.4089 355.521 82.4526 355.629 82.494C355.828 82.5697 356.043 82.6381 356.275 82.6994C356.39 82.7298 356.51 82.7585 356.633 82.7853C356.646 82.7881 356.659 82.7908 356.671 82.7935C356.68 82.7954 356.69 82.7974 356.699 82.7993C356.739 82.8076 356.778 82.816 356.817 82.8244C356.82 82.8253 356.824 82.8261 356.828 82.827C356.835 82.8284 356.841 82.8298 356.847 82.8313C356.856 82.8331 356.864 82.835 356.873 82.8369C356.926 82.849 356.978 82.8613 357.028 82.8738C357.03 82.8741 357.031 82.8744 357.032 82.8747C357.036 82.8756 357.039 82.8765 357.043 82.8774C357.044 82.8777 357.045 82.878 357.047 82.8783C357.06 82.8817 357.074 82.8851 357.087 82.8885C357.111 82.8948 357.135 82.9011 357.159 82.9074C357.31 82.9479 357.445 82.9902 357.564 83.0342C357.619 83.0543 357.67 83.0747 357.718 83.0955C357.727 83.0995 357.736 83.1036 357.745 83.1076C357.814 83.1384 357.875 83.1699 357.929 83.2021C357.946 83.2116 357.962 83.2212 357.978 83.2311C358.011 83.2527 358.043 83.2753 358.072 83.299C358.073 83.2997 358.073 83.3004 358.074 83.3011C358.094 83.3171 358.112 83.3336 358.129 83.3506C358.172 83.3943 358.208 83.4412 358.237 83.4913C358.277 83.5618 358.302 83.6388 358.312 83.7222C358.316 83.7507 358.317 83.78 358.317 83.8101C358.317 83.8405 358.316 83.8702 358.313 83.8993C358.312 83.9042 358.312 83.9091 358.311 83.9141C358.3 83.9996 358.275 84.079 358.237 84.1523C358.184 84.2522 358.106 84.3407 358.002 84.418C357.97 84.4422 357.934 84.4645 357.896 84.4849C357.811 84.5304 357.714 84.5662 357.603 84.5923C357.601 84.5928 357.599 84.5933 357.597 84.5938C357.456 84.6264 357.295 84.6435 357.113 84.6449C357.104 84.645 357.095 84.645 357.087 84.645C357.081 84.645 357.075 84.645 357.069 84.645C357.06 84.6449 357.052 84.6448 357.043 84.6447C356.925 84.6428 356.813 84.6333 356.709 84.6162C356.698 84.6146 356.688 84.6129 356.678 84.6111C356.656 84.607 356.634 84.6026 356.612 84.5979C356.516 84.5772 356.427 84.5496 356.344 84.5152C356.342 84.5146 356.341 84.5139 356.339 84.5133C356.317 84.5043 356.296 84.4948 356.275 84.4849C356.275 84.4848 356.276 84.4849 356.275 84.4849C356.193 84.4455 356.117 84.3986 356.047 84.3447C356.022 84.3254 355.998 84.3053 355.975 84.2844C355.97 84.2799 355.966 84.2753 355.961 84.2706C355.83 84.1454 355.737 83.9919 355.684 83.8101C355.673 83.7732 355.663 83.7351 355.656 83.6959C355.655 83.692 355.654 83.6881 355.653 83.6842C355.641 83.6194 355.633 83.5515 355.629 83.4805H353.623C353.623 83.5153 353.623 83.5501 353.625 83.5846C353.63 83.7044 353.645 83.8221 353.669 83.9378C353.734 84.2466 353.864 84.5409 354.062 84.8208C354.091 84.8608 354.12 84.9 354.151 84.9384C354.33 85.162 354.544 85.358 354.793 85.5264C354.867 85.576 354.943 85.6233 355.023 85.6681C355.103 85.7127 355.185 85.755 355.271 85.7949C355.386 85.8474 355.506 85.8941 355.629 85.9348C355.701 85.9585 355.774 85.9803 355.849 86C355.904 86.0149 355.961 86.0286 356.018 86.0412C356.021 86.0418 356.025 86.0425 356.028 86.0432C356.089 86.0565 356.151 86.0685 356.214 86.0793C356.234 86.0827 356.255 86.0861 356.275 86.0892C356.281 86.0902 356.287 86.0912 356.293 86.0921C356.532 86.1284 356.782 86.1465 357.043 86.1465C357.058 86.1465 357.072 86.1464 357.087 86.1463C357.823 86.1413 358.457 86.0099 358.987 85.7521C358.989 85.7511 358.991 85.7502 358.993 85.7492C359.153 85.671 359.304 85.5813 359.445 85.48C359.83 85.201 360.096 84.8693 360.242 84.4849C360.295 84.3454 360.332 84.199 360.354 84.0457C360.364 83.9689 360.371 83.8903 360.374 83.8101C360.375 83.781 360.375 83.7517 360.375 83.7222C360.375 83.6065 360.368 83.4947 360.354 83.3869C360.279 82.838 360.015 82.391 359.56 82.0461C359.521 82.0163 359.481 81.9874 359.439 81.9592C359.318 81.878 359.186 81.8031 359.041 81.7344C358.981 81.7056 358.918 81.6779 358.854 81.6513C358.841 81.6461 358.829 81.641 358.816 81.6359C358.777 81.6205 358.738 81.6055 358.698 81.5908C358.57 81.544 358.431 81.499 358.282 81.4558C358.267 81.4516 358.252 81.4473 358.237 81.443C358.05 81.3902 357.847 81.3402 357.628 81.293C357.59 81.2848 357.551 81.2767 357.512 81.2686C357.477 81.2614 357.441 81.2542 357.405 81.2471C357.4 81.2462 357.396 81.2452 357.391 81.2443C357.382 81.2426 357.374 81.2409 357.365 81.2393C357.267 81.2193 357.174 81.1987 357.087 81.1776C357.072 81.1739 357.056 81.1702 357.041 81.1664C357.04 81.166 357.038 81.1657 357.037 81.1653C357.036 81.1652 357.036 81.1651 357.036 81.165C357.033 81.1644 357.031 81.1638 357.028 81.1632C356.913 81.1341 356.807 81.1039 356.71 81.0727C356.708 81.0721 356.707 81.0715 356.705 81.071C356.681 81.0631 356.657 81.0552 356.634 81.0472C356.626 81.0444 356.618 81.0415 356.61 81.0387C356.547 81.016 356.489 80.9928 356.435 80.9691C356.376 80.9429 356.322 80.916 356.275 80.8884C356.262 80.8809 356.249 80.8733 356.237 80.8657C356.232 80.8622 356.227 80.8586 356.221 80.8549C356.074 80.7525 355.978 80.6291 355.935 80.4849C355.926 80.4564 355.92 80.4271 355.915 80.397C355.91 80.3638 355.908 80.3296 355.908 80.2944C355.908 80.2292 355.914 80.1669 355.928 80.1077C355.928 80.1069 355.928 80.1061 355.928 80.1054C355.966 79.9396 356.057 79.7976 356.201 79.6792C356.224 79.6598 356.249 79.6415 356.275 79.6244C356.373 79.5595 356.488 79.5116 356.62 79.4805C356.742 79.4518 356.878 79.4375 357.028 79.4375C357.031 79.4375 357.033 79.4375 357.036 79.4375C357.07 79.4376 357.103 79.4384 357.136 79.4399C357.153 79.4406 357.17 79.4416 357.186 79.4427C357.257 79.4475 357.324 79.4557 357.388 79.4673C357.391 79.4679 357.394 79.4685 357.398 79.4691C357.416 79.4726 357.434 79.4764 357.452 79.4805C357.536 79.4997 357.614 79.5254 357.684 79.5575C357.686 79.5587 357.689 79.5599 357.692 79.5611C357.696 79.5634 357.701 79.5656 357.706 79.5679C357.798 79.6129 357.877 79.6695 357.944 79.7378C358.076 79.8704 358.164 80.0278 358.207 80.2099C358.207 80.2132 358.208 80.2165 358.209 80.2198C358.214 80.2442 358.219 80.2691 358.223 80.2944C358.232 80.3554 358.237 80.4188 358.237 80.4849H360.354C360.354 80.3077 360.337 80.1384 360.304 79.9768C360.217 79.552 360.015 79.1809 359.699 78.8633C359.697 78.862 359.696 78.8607 359.695 78.8594C359.631 78.7952 359.562 78.7332 359.488 78.6734C359.474 78.6619 359.46 78.6505 359.445 78.6392C359.376 78.5844 359.304 78.5327 359.229 78.4843C359.222 78.4802 359.216 78.4761 359.21 78.472C358.924 78.2906 358.6 78.1546 358.237 78.064C358.199 78.0547 358.161 78.0458 358.123 78.0374C358.093 78.0308 358.063 78.0246 358.032 78.0186C358.029 78.0179 358.025 78.0173 358.022 78.0166C358.012 78.0147 358.003 78.0129 357.993 78.0111C357.697 77.9562 357.378 77.9287 357.036 77.9287C357.033 77.9287 357.031 77.9287 357.028 77.9287C356.763 77.9291 356.512 77.9482 356.275 77.9862C356.178 78.0016 356.084 78.0202 355.993 78.0418C355.949 78.0522 355.905 78.0634 355.862 78.0752C355.596 78.1484 355.351 78.2492 355.127 78.3773C354.991 78.4546 354.863 78.5419 354.743 78.6392C354.557 78.7892 354.401 78.9512 354.275 79.1252C354.267 79.1351 354.26 79.145 354.253 79.1549C354.217 79.2074 354.182 79.2609 354.151 79.3156ZM352.906 74.0752H349.16C349.167 74.0676 349.174 74.0601 349.181 74.0526C349.185 74.0479 349.189 74.0432 349.194 74.0385C349.231 73.9982 349.269 73.9593 349.308 73.9221C349.313 73.9168 349.319 73.9116 349.324 73.9064C349.33 73.9013 349.335 73.8963 349.341 73.8913C349.639 73.615 349.985 73.4099 350.343 73.2814C350.702 73.1525 351.009 73.123 351.213 73.123C351.418 73.123 351.719 73.1527 352.071 73.2777C352.433 73.4067 352.781 73.6138 353.078 73.8912L352.906 74.0752Z" fill="white"/>
<path d="M309.338 153.707C309.728 153.317 309.728 152.683 309.338 152.293L302.974 145.929C302.583 145.538 301.95 145.538 301.56 145.929C301.169 146.319 301.169 146.953 301.56 147.343L307.217 153L301.56 158.657C301.169 159.047 301.169 159.681 301.56 160.071C301.95 160.462 302.583 160.462 302.974 160.071L309.338 153.707ZM50.6606 152.293C50.27 152.683 50.27 153.317 50.6606 153.707L57.0245 160.071C57.4151 160.462 58.0482 160.462 58.4387 160.071C58.8293 159.681 58.8293 159.047 58.4387 158.657L52.7819 153L58.4387 147.343C58.8293 146.953 58.8293 146.319 58.4387 145.929C58.0482 145.538 57.4151 145.538 57.0245 145.929L50.6606 152.293ZM308.631 152L305.662 152L305.662 154L308.631 154L308.631 152ZM301.705 152L295.768 152L295.768 154L301.705 154L301.705 152ZM291.81 152L285.873 152L285.873 154L291.81 154L291.81 152ZM281.915 152L275.978 152L275.978 154L281.915 154L281.915 152ZM272.02 152L266.083 152L266.083 154L272.02 154L272.02 152ZM262.126 152L256.189 152L256.189 154L262.126 154L262.126 152ZM252.231 152L246.294 152L246.294 154L252.231 154L252.231 152ZM242.336 152L236.399 152L236.399 154L242.336 154L242.336 152ZM232.441 152L226.505 152L226.505 154L232.441 154L232.441 152ZM222.547 152L216.61 152L216.61 154L222.547 154L222.547 152ZM212.652 152L206.715 152L206.715 154L212.652 154L212.652 152ZM202.757 152L196.82 152L196.82 154L202.757 154L202.757 152ZM192.862 152L186.926 152L186.926 154L192.862 154L192.862 152ZM182.968 152L177.031 152L177.031 154L182.968 154L182.968 152ZM173.073 152L167.136 152L167.136 154L173.073 154L173.073 152ZM163.178 152L157.241 152L157.241 154L163.178 154L163.178 152ZM153.283 152L147.347 152L147.347 154L153.283 154L153.283 152ZM143.389 152L137.452 152L137.452 154L143.389 154L143.389 152ZM133.494 152L127.557 152L127.557 154L133.494 154L133.494 152ZM123.599 152L117.662 152L117.662 154L123.599 154L123.599 152ZM113.704 152L107.768 152L107.768 154L113.704 154L113.704 152ZM103.81 152L97.8729 152L97.8729 154L103.81 154L103.81 152ZM93.915 152L87.9781 152L87.9781 154L93.915 154L93.915 152ZM84.0203 152L78.0834 152L78.0834 154L84.0203 154L84.0203 152ZM74.1255 152L68.1887 152L68.1887 154L74.1255 154L74.1255 152ZM64.2308 152L58.2939 152L58.2939 154L64.2308 154L64.2308 152ZM54.336 152L51.3677 152L51.3677 154L54.336 154L54.336 152Z" fill="#1E73FF"/>
<path d="M149.047 158H146.923V150.075H149.047V158ZM146.799 148.024C146.799 147.707 146.904 147.446 147.114 147.241C147.329 147.036 147.619 146.933 147.985 146.933C148.347 146.933 148.635 147.036 148.85 147.241C149.064 147.446 149.172 147.707 149.172 148.024C149.172 148.347 149.062 148.61 148.842 148.815C148.627 149.021 148.342 149.123 147.985 149.123C147.629 149.123 147.341 149.021 147.121 148.815C146.906 148.61 146.799 148.347 146.799 148.024Z" fill="#1E73FF"/>
<path d="M152.746 150.075L152.812 150.991C153.378 150.283 154.138 149.929 155.09 149.929C155.93 149.929 156.555 150.175 156.965 150.668C157.375 151.162 157.585 151.899 157.595 152.88V158H155.478V152.932C155.478 152.482 155.38 152.158 155.185 151.958C154.99 151.752 154.665 151.65 154.211 151.65C153.615 151.65 153.168 151.904 152.871 152.412V158H150.754V150.075H152.746Z" fill="#1E73FF"/>
<path d="M161.44 158H159.316V146.75H161.44V158Z" fill="#1E73FF"/>
<path d="M165.424 158H163.3V150.075H165.424V158ZM163.176 148.024C163.176 147.707 163.281 147.446 163.491 147.241C163.706 147.036 163.996 146.933 164.362 146.933C164.724 146.933 165.012 147.036 165.227 147.241C165.441 147.446 165.549 147.707 165.549 148.024C165.549 148.347 165.439 148.61 165.219 148.815C165.004 149.021 164.719 149.123 164.362 149.123C164.006 149.123 163.718 149.021 163.498 148.815C163.283 148.61 163.176 148.347 163.176 148.024Z" fill="#1E73FF"/>
<path d="M169.123 150.075L169.189 150.991C169.755 150.283 170.515 149.929 171.467 149.929C172.307 149.929 172.932 150.175 173.342 150.668C173.752 151.162 173.962 151.899 173.972 152.88V158H171.855V152.932C171.855 152.482 171.757 152.158 171.562 151.958C171.367 151.752 171.042 151.65 170.588 151.65C169.992 151.65 169.545 151.904 169.248 152.412V158H167.131V150.075H169.123Z" fill="#1E73FF"/>
<path d="M179.23 158.146C178.068 158.146 177.121 157.79 176.389 157.077C175.661 156.364 175.297 155.415 175.297 154.228V154.023C175.297 153.227 175.451 152.517 175.759 151.892C176.066 151.262 176.501 150.778 177.062 150.441C177.629 150.1 178.273 149.929 178.996 149.929C180.08 149.929 180.932 150.271 181.552 150.954C182.177 151.638 182.49 152.607 182.49 153.862V154.726H177.443C177.512 155.244 177.717 155.659 178.059 155.971C178.405 156.284 178.842 156.44 179.37 156.44C180.185 156.44 180.822 156.145 181.281 155.554L182.321 156.718C182.004 157.167 181.574 157.519 181.032 157.773C180.49 158.022 179.89 158.146 179.23 158.146ZM178.989 151.643C178.569 151.643 178.227 151.784 177.963 152.067C177.705 152.351 177.539 152.756 177.465 153.283H180.41V153.115C180.4 152.646 180.273 152.285 180.029 152.031C179.785 151.772 179.438 151.643 178.989 151.643Z" fill="#1E73FF"/>
<path d="M192.026 158C191.928 157.81 191.857 157.573 191.813 157.29C191.301 157.861 190.634 158.146 189.814 158.146C189.038 158.146 188.393 157.922 187.88 157.473C187.373 157.023 187.119 156.457 187.119 155.773C187.119 154.934 187.429 154.289 188.049 153.84C188.674 153.391 189.575 153.164 190.751 153.159H191.726V152.705C191.726 152.338 191.63 152.045 191.44 151.826C191.254 151.606 190.959 151.496 190.554 151.496C190.197 151.496 189.917 151.582 189.711 151.752C189.511 151.923 189.411 152.158 189.411 152.456H187.294C187.294 151.997 187.436 151.572 187.719 151.181C188.002 150.791 188.403 150.485 188.92 150.266C189.438 150.041 190.019 149.929 190.664 149.929C191.64 149.929 192.414 150.175 192.985 150.668C193.562 151.157 193.85 151.845 193.85 152.734V156.169C193.854 156.921 193.959 157.49 194.165 157.875V158H192.026ZM190.275 156.528C190.588 156.528 190.876 156.459 191.14 156.323C191.403 156.181 191.599 155.993 191.726 155.759V154.396H190.935C189.875 154.396 189.311 154.763 189.243 155.495L189.235 155.62C189.235 155.883 189.328 156.101 189.514 156.271C189.699 156.442 189.953 156.528 190.275 156.528Z" fill="#1E73FF"/>
<path d="M198.493 152.441L199.826 150.075H202.089L199.833 153.957L202.185 158H199.914L198.5 155.51L197.094 158H194.816L197.167 153.957L194.919 150.075H197.189L198.493 152.441Z" fill="#1E73FF"/>
<path d="M205.341 158H203.217V150.075H205.341V158ZM203.093 148.024C203.093 147.707 203.198 147.446 203.408 147.241C203.623 147.036 203.913 146.933 204.279 146.933C204.641 146.933 204.929 147.036 205.144 147.241C205.358 147.446 205.466 147.707 205.466 148.024C205.466 148.347 205.356 148.61 205.136 148.815C204.921 149.021 204.636 149.123 204.279 149.123C203.923 149.123 203.635 149.021 203.415 148.815C203.2 148.61 203.093 148.347 203.093 148.024Z" fill="#1E73FF"/>
<path d="M211.384 155.81C211.384 155.551 211.254 155.349 210.996 155.202C210.742 155.051 210.332 154.917 209.765 154.799C207.88 154.404 206.938 153.603 206.938 152.397C206.938 151.694 207.229 151.108 207.81 150.639C208.396 150.166 209.16 149.929 210.102 149.929C211.108 149.929 211.911 150.166 212.512 150.639C213.117 151.113 213.42 151.728 213.42 152.485H211.303C211.303 152.182 211.206 151.933 211.01 151.738C210.815 151.538 210.51 151.438 210.095 151.438C209.738 151.438 209.462 151.518 209.267 151.679C209.072 151.84 208.974 152.045 208.974 152.294C208.974 152.529 209.084 152.719 209.304 152.866C209.528 153.007 209.904 153.132 210.432 153.239C210.959 153.342 211.403 153.459 211.765 153.591C212.883 154.001 213.442 154.711 213.442 155.722C213.442 156.445 213.132 157.031 212.512 157.48C211.892 157.924 211.091 158.146 210.109 158.146C209.445 158.146 208.854 158.029 208.337 157.795C207.824 157.556 207.421 157.231 207.128 156.821C206.835 156.406 206.689 155.959 206.689 155.48H208.696C208.715 155.856 208.854 156.145 209.113 156.345C209.372 156.545 209.719 156.645 210.153 156.645C210.559 156.645 210.864 156.569 211.069 156.418C211.279 156.262 211.384 156.059 211.384 155.81Z" fill="#1E73FF"/>
<path fill-rule="evenodd" clip-rule="evenodd" d="M142.923 162V149.165C142.839 148.788 142.799 148.405 142.799 148.024C142.799 147.644 142.839 147.261 142.923 146.884V146.075H143.176C143.425 145.463 143.802 144.884 144.319 144.379L144.335 144.363L144.352 144.347C145.475 143.275 146.843 142.933 147.985 142.933C149.14 142.933 150.498 143.284 151.612 144.347C152.145 144.857 152.536 145.446 152.793 146.075H153.618C154.096 145.978 154.588 145.929 155.09 145.929C155.165 145.929 155.24 145.93 155.316 145.932V142.75H165.44V143.037C166.307 143.207 167.208 143.602 167.988 144.347C168.522 144.857 168.913 145.446 169.17 146.075H169.995C170.473 145.978 170.965 145.929 171.467 145.929C172.634 145.929 173.95 146.189 175.114 146.947C176.329 146.243 177.658 145.929 178.996 145.929C180.991 145.929 182.999 146.598 184.51 148.261C184.586 148.344 184.659 148.428 184.729 148.513C185.466 147.621 186.384 146.999 187.343 146.59C187.597 146.48 187.854 146.386 188.112 146.305L187.979 146.075H189.04C189.581 145.975 190.124 145.929 190.664 145.929C191.193 145.929 191.739 145.973 192.284 146.075H199.47C199.719 145.463 200.096 144.884 200.613 144.379L200.629 144.363L200.646 144.347C201.769 143.275 203.137 142.933 204.279 142.933C205.434 142.933 206.792 143.284 207.905 144.347C208.415 144.834 208.794 145.393 209.051 145.989C209.404 145.948 209.755 145.929 210.102 145.929C211.72 145.929 213.483 146.314 214.983 147.494C216.536 148.712 217.42 150.478 217.42 152.485V155.185C217.435 155.364 217.442 155.544 217.442 155.722C217.442 155.903 217.434 156.08 217.42 156.256V156.485H217.397C217.185 158.241 216.248 159.713 214.858 160.719L214.85 160.725L214.842 160.731C213.37 161.786 211.687 162.146 210.109 162.146C209.571 162.146 209.026 162.101 208.483 162H191.258C190.787 162.098 190.303 162.146 189.814 162.146C189.318 162.146 188.819 162.1 188.328 162H187.863L187.919 161.904C186.969 161.652 186.056 161.192 185.244 160.481L185.237 160.475L185.23 160.469C185.062 160.32 184.903 160.165 184.755 160.003C184.156 160.587 183.469 161.048 182.729 161.395L182.716 161.401L182.702 161.408C181.584 161.922 180.405 162.146 179.23 162.146C178.682 162.146 178.137 162.099 177.602 162H142.923ZM155.478 158H157.595V152.88C157.59 152.405 157.538 151.988 157.44 151.627C157.335 151.243 157.177 150.923 156.965 150.668C156.909 150.601 156.849 150.539 156.786 150.481C156.777 150.473 156.768 150.465 156.76 150.458C156.753 150.452 156.746 150.446 156.74 150.441C156.383 150.137 155.908 149.968 155.316 149.935C155.242 149.931 155.167 149.929 155.09 149.929C154.776 149.929 154.483 149.967 154.211 150.044C154.177 150.054 154.143 150.064 154.109 150.075C153.708 150.206 153.354 150.423 153.047 150.728C152.966 150.809 152.887 150.897 152.812 150.991L152.746 150.075H150.754V158H152.871V152.412C152.925 152.32 152.984 152.236 153.047 152.16C153.231 151.943 153.455 151.796 153.72 151.717C153.87 151.672 154.034 151.65 154.211 151.65C154.419 151.65 154.6 151.671 154.754 151.715C154.886 151.752 154.998 151.804 155.09 151.873C155.124 151.899 155.156 151.927 155.185 151.958C155.219 151.992 155.249 152.03 155.277 152.072C155.291 152.092 155.304 152.114 155.316 152.136C155.36 152.216 155.395 152.308 155.421 152.412C155.456 152.548 155.475 152.704 155.478 152.88C155.478 152.887 155.478 152.894 155.478 152.901C155.478 152.911 155.478 152.922 155.478 152.932V158ZM149.047 150.075H146.923V158H149.047V150.075ZM145.933 146.075H149.679L149.85 145.891C149.553 145.614 149.206 145.407 148.843 145.278C148.492 145.153 148.19 145.123 147.985 145.123C147.782 145.123 147.475 145.152 147.115 145.281C146.757 145.41 146.411 145.615 146.113 145.891C146.108 145.896 146.102 145.901 146.097 145.906C146.092 145.911 146.086 145.917 146.08 145.922C146.042 145.959 146.004 145.998 145.966 146.039C145.962 146.043 145.958 146.048 145.953 146.053C145.946 146.06 145.94 146.068 145.933 146.075ZM148.723 147.137C148.716 147.132 148.708 147.128 148.701 147.123C148.508 146.996 148.269 146.933 147.985 146.933C147.698 146.933 147.457 146.996 147.263 147.123C147.255 147.128 147.248 147.133 147.241 147.138C147.196 147.168 147.153 147.203 147.114 147.241C147.036 147.317 146.972 147.401 146.923 147.492C146.84 147.647 146.799 147.825 146.799 148.024C146.799 148.225 146.84 148.402 146.923 148.557C146.974 148.652 147.04 148.738 147.121 148.815C147.161 148.853 147.204 148.887 147.249 148.918C147.449 149.055 147.694 149.123 147.985 149.123C148.276 149.123 148.519 149.055 148.716 148.919C148.723 148.914 148.73 148.909 148.738 148.903C148.774 148.876 148.809 148.847 148.842 148.815C148.927 148.736 148.995 148.649 149.047 148.552C149.13 148.398 149.172 148.222 149.172 148.024C149.172 147.827 149.13 147.652 149.047 147.498C148.997 147.404 148.931 147.318 148.85 147.241C148.81 147.203 148.768 147.168 148.723 147.137ZM159.316 158H161.44V146.75H159.316V158ZM163.3 158H165.424V150.075H163.3V158ZM163.316 148.586C163.364 148.669 163.425 148.746 163.498 148.815C163.538 148.853 163.581 148.887 163.626 148.918C163.826 149.055 164.071 149.123 164.362 149.123C164.653 149.123 164.896 149.055 165.093 148.919C165.1 148.914 165.107 148.909 165.115 148.903C165.151 148.876 165.186 148.847 165.219 148.815C165.304 148.736 165.372 148.649 165.424 148.552C165.43 148.542 165.435 148.532 165.44 148.522C165.513 148.376 165.549 148.21 165.549 148.024C165.549 147.84 165.513 147.674 165.44 147.528C165.435 147.518 165.43 147.508 165.424 147.498C165.374 147.404 165.308 147.318 165.227 147.241C165.187 147.203 165.145 147.168 165.1 147.137C165.093 147.132 165.085 147.128 165.078 147.123C164.885 146.996 164.646 146.933 164.362 146.933C164.075 146.933 163.834 146.996 163.64 147.123C163.632 147.128 163.625 147.133 163.618 147.138C163.573 147.168 163.53 147.203 163.491 147.241C163.421 147.309 163.363 147.384 163.316 147.464C163.311 147.474 163.305 147.483 163.3 147.492C163.217 147.647 163.176 147.825 163.176 148.024C163.176 148.225 163.217 148.402 163.3 148.557C163.305 148.567 163.311 148.576 163.316 148.586ZM165.44 146.075H166.056L166.227 145.891C165.991 145.67 165.722 145.494 165.44 145.366V146.075ZM166.114 146.075L166.26 145.922C166.299 145.959 166.337 145.998 166.375 146.038C166.386 146.05 166.398 146.063 166.409 146.075H166.114ZM167.131 158H169.248V152.412C169.302 152.32 169.36 152.236 169.424 152.16C169.608 151.943 169.832 151.796 170.097 151.717C170.247 151.672 170.411 151.65 170.588 151.65C170.796 151.65 170.977 151.671 171.131 151.715C171.263 151.752 171.375 151.804 171.467 151.873C171.489 151.89 171.51 151.908 171.53 151.926C171.541 151.936 171.552 151.947 171.562 151.958C171.596 151.992 171.626 152.03 171.654 152.072C171.717 152.166 171.765 152.28 171.798 152.412C171.833 152.548 171.852 152.704 171.855 152.88C171.855 152.887 171.855 152.894 171.855 152.901C171.855 152.911 171.855 152.922 171.855 152.932V158H173.972V152.88C173.971 152.853 173.971 152.825 173.97 152.798C173.96 152.304 173.897 151.875 173.782 151.508C173.688 151.209 173.56 150.953 173.397 150.738C173.394 150.734 173.391 150.73 173.388 150.726C173.387 150.725 173.387 150.725 173.386 150.724C173.372 150.705 173.357 150.687 173.342 150.668C173.286 150.601 173.226 150.539 173.163 150.481C173.154 150.473 173.145 150.465 173.137 150.458C173.13 150.452 173.123 150.446 173.117 150.441C172.875 150.235 172.578 150.091 172.228 150.009C171.998 149.956 171.744 149.929 171.467 149.929C171.153 149.929 170.86 149.967 170.588 150.044C170.554 150.054 170.519 150.064 170.486 150.075C170.084 150.206 169.731 150.423 169.424 150.728C169.342 150.809 169.264 150.897 169.189 150.991L169.123 150.075H167.131V158ZM175.768 151.872C175.765 151.879 175.762 151.885 175.759 151.892C175.609 152.196 175.496 152.521 175.419 152.866C175.418 152.871 175.417 152.876 175.416 152.88C175.412 152.897 175.408 152.915 175.405 152.932C175.4 152.953 175.396 152.974 175.392 152.995C175.329 153.32 175.297 153.663 175.297 154.023V154.228C175.297 154.498 175.316 154.756 175.354 155.002C175.435 155.527 175.602 155.996 175.855 156.409C176.003 156.651 176.181 156.874 176.389 157.077C176.463 157.15 176.54 157.218 176.618 157.283C176.664 157.321 176.711 157.358 176.758 157.393C176.762 157.396 176.766 157.399 176.769 157.401C176.979 157.557 177.204 157.688 177.443 157.795C177.612 157.87 177.788 157.934 177.972 157.985C178.124 158.027 178.282 158.061 178.445 158.087C178.695 158.127 178.957 158.146 179.23 158.146C179.277 158.146 179.324 158.146 179.37 158.145C179.974 158.128 180.529 158.004 181.032 157.773C181.12 157.732 181.205 157.688 181.288 157.641C181.475 157.535 181.647 157.416 181.804 157.283C182.001 157.116 182.173 156.928 182.321 156.718L181.281 155.554C181.207 155.649 181.128 155.737 181.045 155.817C180.923 155.934 180.791 156.035 180.649 156.119C180.572 156.164 180.492 156.205 180.41 156.241C180.387 156.25 180.364 156.26 180.341 156.269C180.337 156.27 180.334 156.272 180.33 156.273C180.043 156.384 179.723 156.44 179.37 156.44C179.323 156.44 179.276 156.439 179.23 156.436C178.765 156.411 178.374 156.256 178.059 155.971C178.029 155.944 178 155.915 177.972 155.886C177.902 155.814 177.839 155.737 177.783 155.655C177.781 155.653 177.78 155.651 177.779 155.649C177.674 155.495 177.592 155.325 177.533 155.137C177.506 155.05 177.483 154.959 177.465 154.864C177.457 154.819 177.45 154.773 177.443 154.726H182.49V153.862C182.49 153.662 182.482 153.469 182.466 153.283C182.461 153.226 182.455 153.17 182.449 153.115C182.447 153.101 182.446 153.086 182.444 153.072C182.337 152.193 182.039 151.487 181.552 150.954C181.493 150.889 181.432 150.826 181.368 150.767C181.364 150.763 181.359 150.759 181.355 150.755C181.344 150.746 181.334 150.736 181.323 150.726C181.055 150.487 180.751 150.301 180.41 150.17C180.407 150.169 180.404 150.168 180.401 150.167C179.987 150.008 179.518 149.929 178.996 149.929C178.994 149.929 178.991 149.929 178.989 149.929C178.473 149.93 177.997 150.018 177.561 150.193C177.529 150.206 177.497 150.219 177.465 150.233C177.327 150.293 177.193 150.363 177.062 150.441C176.92 150.527 176.786 150.622 176.66 150.726C176.636 150.746 176.612 150.766 176.588 150.787C176.584 150.791 176.579 150.795 176.575 150.799C176.248 151.089 175.979 151.447 175.768 151.872ZM177.482 153.176C177.476 153.211 177.47 153.247 177.465 153.283H180.41V153.115C180.407 152.978 180.394 152.851 180.371 152.733C180.333 152.535 180.267 152.362 180.173 152.215C180.172 152.213 180.171 152.211 180.169 152.209C180.128 152.144 180.081 152.085 180.029 152.031C179.833 151.823 179.571 151.699 179.243 151.658C179.164 151.648 179.082 151.643 178.996 151.643C178.994 151.643 178.991 151.643 178.989 151.643C178.595 151.643 178.27 151.767 178.013 152.017C178.012 152.018 178.011 152.019 178.01 152.02C177.994 152.035 177.979 152.051 177.963 152.067C177.955 152.077 177.946 152.087 177.938 152.096C177.781 152.277 177.66 152.504 177.575 152.779C177.574 152.781 177.574 152.783 177.573 152.785C177.567 152.804 177.561 152.824 177.555 152.845C177.552 152.857 177.549 152.868 177.546 152.88C177.525 152.955 177.508 153.033 177.493 153.115C177.489 153.135 177.485 153.155 177.482 153.176ZM203.217 158H205.341V150.075H203.217V158ZM202.089 150.075H199.826L198.493 152.441L197.189 150.075H194.919L197.167 153.957L194.816 158H197.094L198.5 155.51L199.914 158H202.185L199.833 153.957L202.089 150.075ZM193.766 151.962C193.68 151.598 193.529 151.279 193.313 151.006C193.216 150.884 193.107 150.772 192.985 150.668C192.956 150.643 192.927 150.619 192.897 150.595C192.89 150.59 192.884 150.585 192.877 150.58C192.795 150.516 192.709 150.457 192.619 150.403C192.616 150.401 192.612 150.399 192.609 150.396C192.347 150.239 192.052 150.122 191.726 150.044C191.428 149.973 191.103 149.935 190.751 149.929C190.747 149.929 190.743 149.929 190.738 149.929C190.713 149.929 190.689 149.929 190.664 149.929C190.627 149.929 190.59 149.929 190.554 149.93C190.441 149.932 190.331 149.938 190.222 149.947C189.938 149.971 189.668 150.02 189.411 150.092C189.242 150.139 189.078 150.197 188.92 150.266C188.809 150.313 188.702 150.365 188.601 150.42C188.595 150.423 188.589 150.427 188.583 150.43C188.225 150.63 187.937 150.88 187.719 151.181C187.71 151.194 187.7 151.208 187.691 151.221C187.427 151.601 187.294 152.012 187.294 152.456H189.411C189.411 152.44 189.411 152.424 189.412 152.408C189.42 152.193 189.483 152.012 189.6 151.867C189.603 151.863 189.607 151.859 189.61 151.855C189.64 151.818 189.674 151.784 189.711 151.752C189.917 151.582 190.197 151.496 190.554 151.496C190.591 151.496 190.628 151.497 190.664 151.499C190.691 151.5 190.718 151.502 190.745 151.505C190.747 151.505 190.749 151.505 190.751 151.506C190.816 151.512 190.877 151.522 190.935 151.535C191.032 151.558 191.12 151.59 191.198 151.632C191.27 151.67 191.334 151.717 191.39 151.772C191.408 151.789 191.424 151.807 191.44 151.826C191.49 151.884 191.534 151.947 191.571 152.015C191.604 152.076 191.632 152.141 191.654 152.21C191.657 152.217 191.659 152.224 191.661 152.231C191.682 152.302 191.699 152.377 191.709 152.456C191.713 152.48 191.716 152.504 191.718 152.529C191.723 152.586 191.726 152.644 191.726 152.705V153.159H190.751C190.722 153.159 190.693 153.159 190.664 153.159C190.627 153.16 190.59 153.161 190.554 153.162C190.521 153.163 190.488 153.164 190.455 153.165C190.395 153.167 190.335 153.17 190.275 153.174C190.245 153.176 190.215 153.178 190.185 153.18C190.176 153.18 190.167 153.181 190.158 153.182C190.147 153.183 190.135 153.184 190.123 153.185C190.078 153.188 190.034 153.192 189.99 153.197C189.943 153.201 189.896 153.207 189.85 153.212C189.846 153.213 189.842 153.213 189.838 153.214C189.822 153.216 189.805 153.218 189.789 153.22C189.707 153.231 189.628 153.243 189.55 153.257C189.533 153.26 189.515 153.263 189.498 153.266C189.469 153.272 189.44 153.277 189.411 153.283C188.992 153.368 188.628 153.497 188.317 153.67C188.223 153.722 188.133 153.779 188.049 153.84C188.04 153.847 188.03 153.853 188.021 153.86C187.685 154.111 187.443 154.42 187.294 154.789C187.23 154.948 187.184 155.119 187.155 155.3C187.151 155.324 187.147 155.348 187.144 155.372C187.139 155.413 187.134 155.454 187.131 155.496C187.127 155.537 187.124 155.578 187.122 155.62C187.12 155.67 187.119 155.721 187.119 155.773C187.119 155.889 187.126 156.001 187.14 156.109C187.156 156.229 187.181 156.344 187.214 156.456C187.233 156.517 187.254 156.577 187.277 156.636C187.403 156.949 187.604 157.228 187.88 157.473C187.979 157.559 188.083 157.637 188.191 157.707C188.255 157.748 188.32 157.786 188.387 157.821C188.799 158.038 189.275 158.146 189.814 158.146C189.894 158.146 189.973 158.144 190.05 158.138C190.07 158.137 190.091 158.135 190.112 158.133C190.167 158.128 190.222 158.122 190.275 158.114C190.442 158.09 190.601 158.052 190.753 158C190.814 157.979 190.875 157.956 190.935 157.93C190.974 157.913 191.013 157.895 191.052 157.875C191.289 157.758 191.506 157.602 191.702 157.407C191.706 157.403 191.711 157.398 191.715 157.394C191.718 157.39 191.722 157.387 191.726 157.383C191.755 157.353 191.785 157.322 191.813 157.29C191.846 157.498 191.893 157.681 191.954 157.839C191.959 157.851 191.964 157.864 191.969 157.875C191.979 157.902 191.991 157.928 192.003 157.953C192.01 157.969 192.018 157.985 192.026 158H194.165V157.875C194.112 157.776 194.065 157.664 194.026 157.54C193.989 157.424 193.957 157.297 193.932 157.159C193.924 157.118 193.917 157.076 193.911 157.033C193.907 157.011 193.904 156.988 193.901 156.966C193.9 156.955 193.898 156.945 193.897 156.935C193.867 156.705 193.851 156.45 193.85 156.169V152.734C193.85 152.724 193.85 152.714 193.85 152.705C193.848 152.545 193.838 152.391 193.818 152.245C193.806 152.154 193.79 152.067 193.77 151.982C193.769 151.975 193.767 151.968 193.766 151.962ZM191.726 154.396H190.935C190.874 154.396 190.814 154.398 190.757 154.4C190.755 154.4 190.753 154.4 190.751 154.4C190.683 154.403 190.617 154.408 190.554 154.414C190.525 154.417 190.496 154.42 190.468 154.424C190.401 154.433 190.337 154.443 190.275 154.456C190.244 154.462 190.213 154.47 190.183 154.477C190.173 154.48 190.163 154.482 190.153 154.485C190.042 154.515 189.941 154.552 189.85 154.596C189.838 154.602 189.826 154.608 189.814 154.614C189.78 154.632 189.748 154.651 189.717 154.671C189.59 154.754 189.488 154.855 189.411 154.975C189.389 155.008 189.37 155.044 189.352 155.081C189.339 155.108 189.327 155.135 189.316 155.164C189.279 155.263 189.255 155.371 189.243 155.489C189.243 155.491 189.243 155.493 189.243 155.495L189.235 155.62C189.235 155.668 189.238 155.714 189.245 155.759C189.245 155.764 189.246 155.769 189.247 155.773C189.253 155.812 189.261 155.849 189.271 155.885C189.272 155.889 189.273 155.893 189.274 155.897C189.304 155.993 189.349 156.081 189.411 156.16C189.441 156.199 189.476 156.236 189.514 156.271C189.599 156.35 189.699 156.411 189.814 156.453C189.816 156.454 189.818 156.455 189.82 156.456C189.831 156.46 189.843 156.464 189.854 156.467C189.888 156.478 189.922 156.488 189.958 156.495C189.963 156.497 189.969 156.498 189.975 156.499C190.068 156.518 190.168 156.528 190.275 156.528C190.441 156.528 190.6 156.509 190.751 156.47C190.756 156.469 190.761 156.468 190.765 156.467C190.779 156.463 190.793 156.459 190.806 156.456C190.826 156.45 190.845 156.444 190.864 156.438C190.888 156.43 190.911 156.422 190.935 156.413C190.939 156.412 190.944 156.41 190.949 156.408C191.014 156.383 191.077 156.355 191.14 156.323C191.152 156.316 191.164 156.309 191.176 156.302C191.24 156.266 191.3 156.227 191.355 156.185C191.362 156.18 191.369 156.174 191.376 156.169C191.418 156.137 191.456 156.103 191.493 156.067C191.584 155.977 191.661 155.877 191.722 155.766C191.723 155.764 191.724 155.761 191.726 155.759V154.396ZM202.227 146.075H205.973L206.144 145.891C205.847 145.614 205.499 145.407 205.137 145.278C204.786 145.153 204.484 145.123 204.279 145.123C204.075 145.123 203.768 145.152 203.409 145.281C203.051 145.41 202.705 145.615 202.407 145.891C202.402 145.896 202.396 145.901 202.391 145.906C202.385 145.912 202.38 145.917 202.374 145.922C202.336 145.959 202.298 145.998 202.26 146.039C202.256 146.043 202.252 146.048 202.247 146.053C202.24 146.06 202.234 146.068 202.227 146.075ZM205.017 147.137C205.01 147.132 205.002 147.128 204.995 147.123C204.802 146.996 204.563 146.933 204.279 146.933C203.992 146.933 203.751 146.996 203.556 147.123C203.549 147.128 203.542 147.133 203.535 147.138C203.49 147.168 203.447 147.203 203.408 147.241C203.33 147.317 203.266 147.401 203.217 147.492C203.134 147.647 203.093 147.825 203.093 148.024C203.093 148.225 203.134 148.402 203.217 148.557C203.268 148.652 203.334 148.738 203.415 148.815C203.455 148.853 203.498 148.887 203.543 148.918C203.648 148.99 203.767 149.043 203.898 149.078C204.015 149.108 204.142 149.123 204.279 149.123C204.57 149.123 204.813 149.055 205.01 148.919C205.017 148.914 205.024 148.909 205.032 148.903C205.068 148.876 205.103 148.847 205.136 148.815C205.221 148.736 205.289 148.649 205.341 148.552C205.424 148.398 205.466 148.222 205.466 148.024C205.466 147.901 205.45 147.786 205.417 147.679C205.416 147.676 205.415 147.673 205.414 147.67C205.395 147.61 205.371 147.552 205.341 147.498C205.341 147.496 205.34 147.495 205.339 147.493C205.289 147.401 205.224 147.317 205.144 147.241C205.104 147.203 205.062 147.168 205.017 147.137ZM207.217 151.316C207.186 151.369 207.158 151.424 207.132 151.48C207.016 151.731 206.952 152.002 206.94 152.294C206.939 152.328 206.938 152.363 206.938 152.397C206.938 152.408 206.938 152.419 206.938 152.429C206.943 152.795 207.036 153.124 207.217 153.414C207.244 153.457 207.273 153.499 207.303 153.54C207.414 153.691 207.551 153.83 207.713 153.958C207.767 154.001 207.823 154.042 207.882 154.082C208.016 154.172 208.163 154.256 208.325 154.335C208.33 154.337 208.335 154.34 208.341 154.342C208.349 154.346 208.357 154.35 208.365 154.354C208.372 154.357 208.378 154.36 208.385 154.363C208.483 154.409 208.587 154.453 208.696 154.494C208.894 154.57 209.109 154.638 209.341 154.699C209.457 154.73 209.576 154.758 209.7 154.785C209.712 154.788 209.725 154.791 209.738 154.793C209.747 154.795 209.756 154.797 209.765 154.799C209.805 154.808 209.844 154.816 209.883 154.824C209.887 154.825 209.891 154.826 209.895 154.827C209.901 154.828 209.907 154.83 209.914 154.831C209.922 154.833 209.931 154.835 209.939 154.837C209.992 154.849 210.044 154.861 210.095 154.874C210.096 154.874 210.097 154.874 210.098 154.875C210.102 154.876 210.106 154.877 210.109 154.877C210.111 154.878 210.112 154.878 210.113 154.878C210.127 154.882 210.14 154.885 210.153 154.889C210.178 154.895 210.202 154.901 210.225 154.907C210.376 154.948 210.512 154.99 210.631 155.034C210.685 155.054 210.737 155.075 210.784 155.096C210.794 155.1 210.803 155.104 210.812 155.108C210.88 155.138 210.941 155.17 210.996 155.202C211.012 155.212 211.028 155.221 211.044 155.231C211.078 155.253 211.109 155.275 211.138 155.299C211.139 155.3 211.14 155.3 211.141 155.301C211.16 155.317 211.178 155.334 211.195 155.351C211.239 155.394 211.275 155.441 211.303 155.491C211.343 155.562 211.368 155.639 211.379 155.722C211.382 155.751 211.384 155.78 211.384 155.81C211.384 155.84 211.382 155.87 211.379 155.899C211.379 155.904 211.378 155.909 211.377 155.914C211.366 156 211.342 156.079 211.303 156.152C211.251 156.252 211.173 156.341 211.069 156.418C211.036 156.442 211.001 156.465 210.963 156.485C210.878 156.53 210.78 156.566 210.67 156.592C210.667 156.593 210.665 156.593 210.663 156.594C210.522 156.626 210.361 156.643 210.179 156.645C210.17 156.645 210.162 156.645 210.153 156.645C210.147 156.645 210.141 156.645 210.135 156.645C210.127 156.645 210.118 156.645 210.109 156.645C209.991 156.643 209.88 156.633 209.775 156.616C209.765 156.615 209.755 156.613 209.745 156.611C209.722 156.607 209.7 156.603 209.678 156.598C209.583 156.577 209.493 156.55 209.41 156.515C209.409 156.515 209.407 156.514 209.405 156.513C209.384 156.504 209.363 156.495 209.342 156.485C209.342 156.485 209.342 156.485 209.342 156.485C209.259 156.445 209.183 156.399 209.113 156.345C209.088 156.325 209.065 156.305 209.042 156.284C209.037 156.28 209.032 156.275 209.027 156.271C208.896 156.145 208.804 155.992 208.75 155.81C208.739 155.773 208.73 155.735 208.722 155.696C208.721 155.692 208.72 155.688 208.72 155.684C208.707 155.619 208.699 155.552 208.696 155.48H206.689C206.689 155.515 206.69 155.55 206.691 155.585C206.697 155.704 206.711 155.822 206.736 155.938C206.8 156.247 206.931 156.541 207.128 156.821C207.157 156.861 207.187 156.9 207.217 156.938C207.396 157.162 207.61 157.358 207.86 157.526C207.933 157.576 208.01 157.623 208.09 157.668C208.169 157.713 208.251 157.755 208.337 157.795C208.453 157.847 208.572 157.894 208.696 157.935C208.768 157.959 208.841 157.98 208.915 158C208.971 158.015 209.028 158.029 209.085 158.041C209.088 158.042 209.091 158.043 209.094 158.043C209.155 158.056 209.217 158.069 209.28 158.079C209.301 158.083 209.321 158.086 209.341 158.089C209.347 158.09 209.354 158.091 209.36 158.092C209.598 158.128 209.848 158.146 210.109 158.146C210.124 158.146 210.139 158.146 210.153 158.146C210.89 158.141 211.523 158.01 212.054 157.752C212.056 157.751 212.058 157.75 212.06 157.749C212.22 157.671 212.37 157.581 212.512 157.48C212.897 157.201 213.162 156.869 213.308 156.485C213.361 156.345 213.398 156.199 213.42 156.046C213.431 155.969 213.437 155.89 213.44 155.81C213.441 155.781 213.442 155.752 213.442 155.722C213.442 155.606 213.435 155.495 213.42 155.387C213.345 154.838 213.081 154.391 212.627 154.046C212.588 154.016 212.547 153.987 212.505 153.959C212.384 153.878 212.252 153.803 212.108 153.734C212.047 153.706 211.985 153.678 211.92 153.651C211.908 153.646 211.895 153.641 211.882 153.636C211.844 153.62 211.805 153.605 211.765 153.591C211.636 153.544 211.497 153.499 211.348 153.456C211.333 153.452 211.318 153.447 211.303 153.443C211.116 153.39 210.913 153.34 210.694 153.293C210.656 153.285 210.617 153.277 210.578 153.269C210.543 153.261 210.508 153.254 210.472 153.247C210.467 153.246 210.462 153.245 210.457 153.244C210.449 153.243 210.44 153.241 210.432 153.239C210.334 153.219 210.241 153.199 210.153 153.178C210.138 153.174 210.123 153.17 210.108 153.166C210.106 153.166 210.105 153.166 210.103 153.165C210.103 153.165 210.102 153.165 210.102 153.165C210.1 153.164 210.097 153.164 210.095 153.163C209.979 153.134 209.873 153.104 209.777 153.073C209.775 153.072 209.773 153.072 209.771 153.071C209.747 153.063 209.724 153.055 209.701 153.047C209.693 153.044 209.685 153.042 209.677 153.039C209.614 153.016 209.555 152.993 209.501 152.969C209.442 152.943 209.389 152.916 209.341 152.888C209.328 152.881 209.316 152.873 209.304 152.866C209.298 152.862 209.293 152.859 209.288 152.855C209.14 152.752 209.044 152.629 209.001 152.485C208.993 152.456 208.986 152.427 208.982 152.397C208.977 152.364 208.974 152.33 208.974 152.294C208.974 152.229 208.981 152.167 208.994 152.108C208.994 152.107 208.995 152.106 208.995 152.105C209.033 151.94 209.124 151.798 209.267 151.679C209.291 151.66 209.315 151.641 209.341 151.624C209.44 151.56 209.555 151.512 209.687 151.48C209.808 151.452 209.944 151.438 210.095 151.438C210.097 151.438 210.1 151.438 210.102 151.438C210.136 151.438 210.17 151.438 210.203 151.44C210.219 151.441 210.236 151.442 210.252 151.443C210.324 151.448 210.391 151.456 210.455 151.467C210.458 151.468 210.461 151.469 210.464 151.469C210.482 151.473 210.501 151.476 210.519 151.48C210.603 151.5 210.68 151.525 210.75 151.558C210.753 151.559 210.755 151.56 210.758 151.561C210.763 151.563 210.767 151.566 210.772 151.568C210.864 151.613 210.944 151.67 211.01 151.738C211.143 151.87 211.23 152.028 211.273 152.21C211.274 152.213 211.275 152.216 211.275 152.22C211.281 152.244 211.285 152.269 211.289 152.294C211.299 152.355 211.303 152.419 211.303 152.485H213.42C213.42 152.308 213.403 152.138 213.37 151.977C213.283 151.552 213.081 151.181 212.765 150.863C212.764 150.862 212.763 150.861 212.761 150.859C212.697 150.795 212.628 150.733 212.555 150.673C212.541 150.662 212.526 150.65 212.512 150.639C212.442 150.584 212.37 150.533 212.295 150.484C212.289 150.48 212.282 150.476 212.276 150.472C211.991 150.291 211.666 150.155 211.303 150.064C211.266 150.055 211.228 150.046 211.189 150.037C211.159 150.031 211.129 150.025 211.099 150.019C211.095 150.018 211.092 150.017 211.088 150.017C211.079 150.015 211.069 150.013 211.059 150.011C210.764 149.956 210.445 149.929 210.102 149.929C210.1 149.929 210.097 149.929 210.095 149.929C209.829 149.929 209.578 149.948 209.341 149.986C209.245 150.002 209.151 150.02 209.059 150.042C209.015 150.052 208.972 150.063 208.929 150.075C208.663 150.148 208.418 150.249 208.193 150.377C208.058 150.455 207.93 150.542 207.81 150.639C207.624 150.789 207.467 150.951 207.341 151.125C207.334 151.135 207.327 151.145 207.32 151.155C207.283 151.207 207.249 151.261 207.217 151.316ZM206.326 146.075H206.031L206.177 145.922C206.216 145.959 206.254 145.998 206.292 146.038C206.303 146.05 206.315 146.063 206.326 146.075ZM150.032 146.075C150.021 146.063 150.009 146.05 149.998 146.038C149.96 145.998 149.922 145.959 149.883 145.922L149.737 146.075H150.032Z" fill="white"/>
</svg>
