<svg width="974" height="112" viewBox="0 0 974 112" fill="none" xmlns="http://www.w3.org/2000/svg">
<g clip-path="url(#clip0)">
<rect width="974" height="112" fill="#F7F7F7"/>
<path d="M19 7C19 5.89543 19.8954 5 21 5H35C36.1046 5 37 5.89543 37 7V16.1857C37 16.7167 36.7888 17.2259 36.413 17.6011L29.413 24.5894C28.6323 25.3688 27.3678 25.3688 26.587 24.5894L19.587 17.6011C19.2112 17.2259 19 16.7167 19 16.1857V7Z" fill="#CCCCCC"/>
<path d="M29.084 17H27.666V10.1504L25.5742 10.8652V9.66406L28.9023 8.43945H29.084V17Z" fill="white"/>
<path d="M148 7C148 5.89543 148.895 5 150 5H164C165.105 5 166 5.89543 166 7V16.1857C166 16.7167 165.789 17.2259 165.413 17.6011L158.413 24.5894C157.632 25.3688 156.368 25.3688 155.587 24.5894L148.587 17.6011C148.211 17.2259 148 16.7167 148 16.1857V7Z" fill="#CCCCCC"/>
<path d="M159.965 17H154.229V16.0215L157.07 12.9219C157.48 12.4648 157.771 12.084 157.943 11.7793C158.119 11.4707 158.207 11.1621 158.207 10.8535C158.207 10.4473 158.092 10.1191 157.861 9.86914C157.635 9.61914 157.328 9.49414 156.941 9.49414C156.48 9.49414 156.123 9.63477 155.869 9.91602C155.615 10.1973 155.488 10.582 155.488 11.0703H154.064C154.064 10.5508 154.182 10.084 154.416 9.66992C154.654 9.25195 154.992 8.92773 155.43 8.69727C155.871 8.4668 156.379 8.35156 156.953 8.35156C157.781 8.35156 158.434 8.56055 158.91 8.97852C159.391 9.39258 159.631 9.9668 159.631 10.7012C159.631 11.127 159.51 11.5742 159.268 12.043C159.029 12.5078 158.637 13.0371 158.09 13.6309L156.004 15.8633H159.965V17Z" fill="white"/>
<path d="M280 7C280 5.89543 280.895 5 282 5H296C297.105 5 298 5.89543 298 7V16.1857C298 16.7167 297.789 17.2259 297.413 17.6011L290.413 24.5894C289.632 25.3688 288.368 25.3688 287.587 24.5894L280.587 17.6011C280.211 17.2259 280 16.7167 280 16.1857V7Z" fill="#CCCCCC"/>
<path d="M287.875 12.084H288.742C289.18 12.0801 289.525 11.9668 289.779 11.7441C290.037 11.5215 290.166 11.1992 290.166 10.7773C290.166 10.3711 290.059 10.0566 289.844 9.83398C289.633 9.60742 289.309 9.49414 288.871 9.49414C288.488 9.49414 288.174 9.60547 287.928 9.82812C287.682 10.0469 287.559 10.334 287.559 10.6895H286.135C286.135 10.252 286.25 9.85352 286.48 9.49414C286.715 9.13477 287.039 8.85547 287.453 8.65625C287.871 8.45312 288.338 8.35156 288.854 8.35156C289.705 8.35156 290.373 8.56641 290.857 8.99609C291.346 9.42188 291.59 10.0156 291.59 10.7773C291.59 11.1602 291.467 11.5215 291.221 11.8613C290.979 12.1973 290.664 12.4512 290.277 12.623C290.746 12.7832 291.102 13.0352 291.344 13.3789C291.59 13.7227 291.713 14.1328 291.713 14.6094C291.713 15.375 291.449 15.9844 290.922 16.4375C290.398 16.8906 289.709 17.1172 288.854 17.1172C288.033 17.1172 287.361 16.8984 286.838 16.4609C286.314 16.0234 286.053 15.4414 286.053 14.7148H287.477C287.477 15.0898 287.602 15.3945 287.852 15.6289C288.105 15.8633 288.445 15.9805 288.871 15.9805C289.312 15.9805 289.66 15.8633 289.914 15.6289C290.168 15.3945 290.295 15.0547 290.295 14.6094C290.295 14.1602 290.162 13.8145 289.896 13.5723C289.631 13.3301 289.236 13.209 288.713 13.209H287.875V12.084Z" fill="white"/>
<path d="M412 7C412 5.89543 412.895 5 414 5H428C429.105 5 430 5.89543 430 7V16.1857C430 16.7167 429.789 17.2259 429.413 17.6011L422.413 24.5894C421.632 25.3688 420.368 25.3688 419.587 24.5894L412.587 17.6011C412.211 17.2259 412 16.7167 412 16.1857V7Z" fill="#CCCCCC"/>
<path d="M423.045 13.959H424.105V15.1016H423.045V17H421.621V15.1016H417.936L417.895 14.2344L421.574 8.46875H423.045V13.959ZM419.389 13.959H421.621V10.3965L421.516 10.584L419.389 13.959Z" fill="white"/>
<path d="M544 7C544 5.89543 544.895 5 546 5H560C561.105 5 562 5.89543 562 7V16.1857C562 16.7167 561.789 17.2259 561.413 17.6011L554.413 24.5894C553.632 25.3688 552.368 25.3688 551.587 24.5894L544.587 17.6011C544.211 17.2259 544 16.7167 544 16.1857V7Z" fill="#CCCCCC"/>
<path d="M550.609 12.7695L551.072 8.46875H555.654V9.69922H552.256L552.021 11.7383C552.416 11.5117 552.861 11.3984 553.357 11.3984C554.17 11.3984 554.801 11.6582 555.25 12.1777C555.703 12.6973 555.93 13.3965 555.93 14.2754C555.93 15.1426 555.68 15.834 555.18 16.3496C554.68 16.8613 553.994 17.1172 553.123 17.1172C552.342 17.1172 551.693 16.8965 551.178 16.4551C550.666 16.0098 550.389 15.4238 550.346 14.6973H551.723C551.777 15.1113 551.926 15.4297 552.168 15.6523C552.41 15.8711 552.727 15.9805 553.117 15.9805C553.555 15.9805 553.895 15.8242 554.137 15.5117C554.383 15.1992 554.506 14.7734 554.506 14.2344C554.506 13.7148 554.371 13.3047 554.102 13.0039C553.832 12.6992 553.461 12.5469 552.988 12.5469C552.73 12.5469 552.512 12.582 552.332 12.6523C552.152 12.7188 551.957 12.8516 551.746 13.0508L550.609 12.7695Z" fill="white"/>
<path d="M676 7C676 5.89543 676.895 5 678 5H692C693.105 5 694 5.89543 694 7V16.1857C694 16.7167 693.789 17.2259 693.413 17.6011L686.413 24.5894C685.632 25.3688 684.368 25.3688 683.587 24.5894L676.587 17.6011C676.211 17.2259 676 16.7167 676 16.1857V7Z" fill="#CCCCCC"/>
<path d="M686.658 8.42773V9.60547H686.482C685.686 9.61719 685.049 9.83594 684.572 10.2617C684.096 10.6875 683.812 11.291 683.723 12.0723C684.18 11.5918 684.764 11.3516 685.475 11.3516C686.229 11.3516 686.822 11.6172 687.256 12.1484C687.693 12.6797 687.912 13.3652 687.912 14.2051C687.912 15.0723 687.656 15.7754 687.145 16.3145C686.637 16.8496 685.969 17.1172 685.141 17.1172C684.289 17.1172 683.598 16.8027 683.066 16.1738C682.539 15.5449 682.275 14.7207 682.275 13.7012V13.2148C682.275 11.7188 682.639 10.5469 683.365 9.69922C684.096 8.85156 685.145 8.42773 686.512 8.42773H686.658ZM685.129 12.5C684.816 12.5 684.529 12.5879 684.268 12.7637C684.01 12.9395 683.82 13.1738 683.699 13.4668V13.9004C683.699 14.5332 683.832 15.0371 684.098 15.4121C684.363 15.7832 684.707 15.9688 685.129 15.9688C685.551 15.9688 685.885 15.8105 686.131 15.4941C686.377 15.1777 686.5 14.7617 686.5 14.2461C686.5 13.7305 686.375 13.3105 686.125 12.9863C685.875 12.6621 685.543 12.5 685.129 12.5Z" fill="white"/>
<path d="M808 7C808 5.89543 808.895 5 810 5H824C825.105 5 826 5.89543 826 7V16.1857C826 16.7167 825.789 17.2259 825.413 17.6011L818.413 24.5894C817.632 25.3688 816.368 25.3688 815.587 24.5894L808.587 17.6011C808.211 17.2259 808 16.7167 808 16.1857V7Z" fill="#CCCCCC"/>
<path d="M819.906 9.25977L816.496 17H815.002L818.406 9.61133H813.994V8.46875H819.906V9.25977Z" fill="white"/>
<path d="M940 7C940 5.89543 940.895 5 942 5H956C957.105 5 958 5.89543 958 7V16.1857C958 16.7167 957.789 17.2259 957.413 17.6011L950.413 24.5894C949.632 25.3688 948.368 25.3688 947.587 24.5894L940.587 17.6011C940.211 17.2259 940 16.7167 940 16.1857V7Z" fill="#CCCCCC"/>
<path d="M951.906 9.25977L948.496 17H947.002L950.406 9.61133H945.994V8.46875H951.906V9.25977Z" fill="white"/>
<path d="M7 37C5.89543 37 5 36.1046 5 35L5 21C5 19.8954 5.89543 19 7 19L16.1857 19C16.7167 19 17.2259 19.2112 17.6011 19.587L24.5894 26.587C25.3688 27.3677 25.3688 28.6323 24.5894 29.413L17.6011 36.413C17.2259 36.7888 16.7167 37 16.1857 37L7 37Z" fill="#CCCCCC"/>
<path d="M14.084 32H12.666V25.1504L10.5742 25.8652V24.6641L13.9023 23.4395H14.084V32Z" fill="white"/>
<path d="M7 93C5.89543 93 5 92.1046 5 91L5 77C5 75.8954 5.89543 75 7 75L16.1857 75C16.7167 75 17.2259 75.2112 17.6011 75.587L24.5894 82.587C25.3688 83.3677 25.3688 84.6323 24.5894 85.413L17.6011 92.413C17.2259 92.7888 16.7167 93 16.1857 93L7 93Z" fill="#CCCCCC"/>
<path d="M15.9648 88H10.2285V87.0215L13.0703 83.9219C13.4805 83.4648 13.7715 83.084 13.9434 82.7793C14.1191 82.4707 14.207 82.1621 14.207 81.8535C14.207 81.4473 14.0918 81.1191 13.8613 80.8691C13.6348 80.6191 13.3281 80.4941 12.9414 80.4941C12.4805 80.4941 12.123 80.6348 11.8691 80.916C11.6152 81.1973 11.4883 81.582 11.4883 82.0703H10.0645C10.0645 81.5508 10.1816 81.084 10.416 80.6699C10.6543 80.252 10.9922 79.9277 11.4297 79.6973C11.8711 79.4668 12.3789 79.3516 12.9531 79.3516C13.7812 79.3516 14.4336 79.5605 14.9102 79.9785C15.3906 80.3926 15.6309 80.9668 15.6309 81.7012C15.6309 82.127 15.5098 82.5742 15.2676 83.043C15.0293 83.5078 14.6367 84.0371 14.0898 84.6309L12.0039 86.8633H15.9648V88Z" fill="white"/>
<rect x="28" y="28" width="967" height="56" fill="white"/>
<path d="M31 36C31 33.2386 33.2386 31 36 31H146C148.761 31 151 33.2386 151 36V76C151 78.7614 148.761 81 146 81H36C33.2386 81 31 78.7614 31 76V36Z" fill="#1E73FF"/>
<path d="M73.2041 60.6667H71.4243V52.7419H73.2041V60.6667ZM71.3145 50.6837C71.3145 50.4103 71.3999 50.1833 71.5708 50.0026C71.7466 49.8219 71.9956 49.7316 72.3179 49.7316C72.6401 49.7316 72.8892 49.8219 73.0649 50.0026C73.2407 50.1833 73.3286 50.4103 73.3286 50.6837C73.3286 50.9523 73.2407 51.1769 73.0649 51.3576C72.8892 51.5334 72.6401 51.6212 72.3179 51.6212C71.9956 51.6212 71.7466 51.5334 71.5708 51.3576C71.3999 51.1769 71.3145 50.9523 71.3145 50.6837ZM77.3789 50.8156V52.7419H78.7778V54.0602H77.3789V58.484C77.3789 58.7868 77.4375 59.0065 77.5547 59.1432C77.6768 59.2751 77.8916 59.341 78.1992 59.341C78.4043 59.341 78.6118 59.3166 78.8218 59.2677V60.6447C78.4165 60.757 78.0259 60.8131 77.6499 60.8131C76.2827 60.8131 75.5991 60.0587 75.5991 58.55V54.0602H74.2954V52.7419H75.5991V50.8156H77.3789ZM83.6338 60.8131C82.5059 60.8131 81.5903 60.4591 80.8872 59.7511C80.189 59.0382 79.8398 58.091 79.8398 56.9093V56.6896C79.8398 55.8986 79.9912 55.193 80.2939 54.5729C80.6016 53.9479 81.0312 53.4621 81.583 53.1154C82.1348 52.7687 82.75 52.5954 83.4287 52.5954C84.5078 52.5954 85.3403 52.9396 85.9263 53.6281C86.5171 54.3166 86.8125 55.2907 86.8125 56.5504V57.2682H81.6343C81.688 57.9225 81.9053 58.4401 82.2861 58.821C82.6719 59.2018 83.1553 59.3922 83.7363 59.3922C84.5518 59.3922 85.2158 59.0627 85.7285 58.4035L86.688 59.319C86.3706 59.7926 85.9458 60.1613 85.4136 60.425C84.8862 60.6837 84.293 60.8131 83.6338 60.8131ZM83.4214 54.0236C82.9331 54.0236 82.5376 54.1945 82.2349 54.5363C81.937 54.8781 81.7466 55.3542 81.6636 55.9645H85.0547V55.8327C85.0156 55.237 84.8569 54.7878 84.5786 54.485C84.3003 54.1774 83.9146 54.0236 83.4214 54.0236ZM89.874 52.7419L89.9253 53.5695C90.4819 52.9201 91.2437 52.5954 92.2104 52.5954C93.27 52.5954 93.9951 53.0006 94.3857 53.8112C94.9619 53.0006 95.7725 52.5954 96.8174 52.5954C97.6914 52.5954 98.3408 52.8371 98.7656 53.3205C99.1953 53.8039 99.415 54.5168 99.4248 55.4591V60.6667H97.645V55.5104C97.645 55.0075 97.5352 54.6388 97.3154 54.4044C97.0957 54.1701 96.7319 54.0529 96.2241 54.0529C95.8188 54.0529 95.4868 54.1628 95.228 54.3825C94.9741 54.5973 94.7959 54.8805 94.6934 55.2321L94.7007 60.6667H92.9209V55.4518C92.8965 54.5192 92.4204 54.0529 91.4927 54.0529C90.7798 54.0529 90.2744 54.3434 89.9766 54.9245V60.6667H88.1968V52.7419H89.874ZM109.693 60.6667H107.921V52.1046L105.306 52.9982V51.4967L109.466 49.966H109.693V60.6667Z" fill="white"/>
<path d="M163 36C163 33.2386 165.239 31 168 31H278C280.761 31 283 33.2386 283 36V76C283 78.7614 280.761 81 278 81H168C165.239 81 163 78.7614 163 76V36Z" fill="#1E73FF"/>
<path d="M205.204 60.6667H203.424V52.7419H205.204V60.6667ZM203.314 50.6837C203.314 50.4103 203.4 50.1833 203.571 50.0026C203.747 49.8219 203.996 49.7316 204.318 49.7316C204.64 49.7316 204.889 49.8219 205.065 50.0026C205.241 50.1833 205.329 50.4103 205.329 50.6837C205.329 50.9523 205.241 51.1769 205.065 51.3576C204.889 51.5334 204.64 51.6212 204.318 51.6212C203.996 51.6212 203.747 51.5334 203.571 51.3576C203.4 51.1769 203.314 50.9523 203.314 50.6837ZM209.379 50.8156V52.7419H210.778V54.0602H209.379V58.484C209.379 58.7868 209.438 59.0065 209.555 59.1432C209.677 59.2751 209.892 59.341 210.199 59.341C210.404 59.341 210.612 59.3166 210.822 59.2677V60.6447C210.417 60.757 210.026 60.8131 209.65 60.8131C208.283 60.8131 207.599 60.0587 207.599 58.55V54.0602H206.295V52.7419H207.599V50.8156H209.379ZM215.634 60.8131C214.506 60.8131 213.59 60.4591 212.887 59.7511C212.189 59.0382 211.84 58.091 211.84 56.9093V56.6896C211.84 55.8986 211.991 55.193 212.294 54.5729C212.602 53.9479 213.031 53.4621 213.583 53.1154C214.135 52.7687 214.75 52.5954 215.429 52.5954C216.508 52.5954 217.34 52.9396 217.926 53.6281C218.517 54.3166 218.812 55.2907 218.812 56.5504V57.2682H213.634C213.688 57.9225 213.905 58.4401 214.286 58.821C214.672 59.2018 215.155 59.3922 215.736 59.3922C216.552 59.3922 217.216 59.0627 217.729 58.4035L218.688 59.319C218.371 59.7926 217.946 60.1613 217.414 60.425C216.886 60.6837 216.293 60.8131 215.634 60.8131ZM215.421 54.0236C214.933 54.0236 214.538 54.1945 214.235 54.5363C213.937 54.8781 213.747 55.3542 213.664 55.9645H217.055V55.8327C217.016 55.237 216.857 54.7878 216.579 54.485C216.3 54.1774 215.915 54.0236 215.421 54.0236ZM221.874 52.7419L221.925 53.5695C222.482 52.9201 223.244 52.5954 224.21 52.5954C225.27 52.5954 225.995 53.0006 226.386 53.8112C226.962 53.0006 227.772 52.5954 228.817 52.5954C229.691 52.5954 230.341 52.8371 230.766 53.3205C231.195 53.8039 231.415 54.5168 231.425 55.4591V60.6667H229.645V55.5104C229.645 55.0075 229.535 54.6388 229.315 54.4044C229.096 54.1701 228.732 54.0529 228.224 54.0529C227.819 54.0529 227.487 54.1628 227.228 54.3825C226.974 54.5973 226.796 54.8805 226.693 55.2321L226.701 60.6667H224.921V55.4518C224.896 54.5192 224.42 54.0529 223.493 54.0529C222.78 54.0529 222.274 54.3434 221.977 54.9245V60.6667H220.197V52.7419H221.874ZM244.044 60.6667H236.874V59.4435L240.426 55.569C240.939 54.9977 241.303 54.5216 241.518 54.1408C241.737 53.755 241.847 53.3693 241.847 52.9836C241.847 52.4757 241.703 52.0656 241.415 51.7531C241.132 51.4406 240.749 51.2843 240.265 51.2843C239.689 51.2843 239.242 51.4601 238.925 51.8117C238.607 52.1632 238.449 52.6442 238.449 53.2545H236.669C236.669 52.6051 236.815 52.0216 237.108 51.5041C237.406 50.9816 237.829 50.5763 238.375 50.2882C238.927 50.0002 239.562 49.8561 240.28 49.8561C241.315 49.8561 242.13 50.1173 242.726 50.6398C243.327 51.1574 243.627 51.8752 243.627 52.7931C243.627 53.3253 243.476 53.8844 243.173 54.4704C242.875 55.0514 242.384 55.713 241.701 56.4552L239.093 59.2458H244.044V60.6667Z" fill="white"/>
<path d="M295 36C295 33.2386 297.239 31 300 31H410C412.761 31 415 33.2386 415 36V76C415 78.7614 412.761 81 410 81H300C297.239 81 295 78.7614 295 76V36Z" fill="#1E73FF"/>
<path d="M337.204 60.6667H335.424V52.7419H337.204V60.6667ZM335.314 50.6837C335.314 50.4103 335.4 50.1833 335.571 50.0026C335.747 49.8219 335.996 49.7316 336.318 49.7316C336.64 49.7316 336.889 49.8219 337.065 50.0026C337.241 50.1833 337.329 50.4103 337.329 50.6837C337.329 50.9523 337.241 51.1769 337.065 51.3576C336.889 51.5334 336.64 51.6212 336.318 51.6212C335.996 51.6212 335.747 51.5334 335.571 51.3576C335.4 51.1769 335.314 50.9523 335.314 50.6837ZM341.379 50.8156V52.7419H342.778V54.0602H341.379V58.484C341.379 58.7868 341.438 59.0065 341.555 59.1432C341.677 59.2751 341.892 59.341 342.199 59.341C342.404 59.341 342.612 59.3166 342.822 59.2677V60.6447C342.417 60.757 342.026 60.8131 341.65 60.8131C340.283 60.8131 339.599 60.0587 339.599 58.55V54.0602H338.295V52.7419H339.599V50.8156H341.379ZM347.634 60.8131C346.506 60.8131 345.59 60.4591 344.887 59.7511C344.189 59.0382 343.84 58.091 343.84 56.9093V56.6896C343.84 55.8986 343.991 55.193 344.294 54.5729C344.602 53.9479 345.031 53.4621 345.583 53.1154C346.135 52.7687 346.75 52.5954 347.429 52.5954C348.508 52.5954 349.34 52.9396 349.926 53.6281C350.517 54.3166 350.812 55.2907 350.812 56.5504V57.2682H345.634C345.688 57.9225 345.905 58.4401 346.286 58.821C346.672 59.2018 347.155 59.3922 347.736 59.3922C348.552 59.3922 349.216 59.0627 349.729 58.4035L350.688 59.319C350.371 59.7926 349.946 60.1613 349.414 60.425C348.886 60.6837 348.293 60.8131 347.634 60.8131ZM347.421 54.0236C346.933 54.0236 346.538 54.1945 346.235 54.5363C345.937 54.8781 345.747 55.3542 345.664 55.9645H349.055V55.8327C349.016 55.237 348.857 54.7878 348.579 54.485C348.3 54.1774 347.915 54.0236 347.421 54.0236ZM353.874 52.7419L353.925 53.5695C354.482 52.9201 355.244 52.5954 356.21 52.5954C357.27 52.5954 357.995 53.0006 358.386 53.8112C358.962 53.0006 359.772 52.5954 360.817 52.5954C361.691 52.5954 362.341 52.8371 362.766 53.3205C363.195 53.8039 363.415 54.5168 363.425 55.4591V60.6667H361.645V55.5104C361.645 55.0075 361.535 54.6388 361.315 54.4044C361.096 54.1701 360.732 54.0529 360.224 54.0529C359.819 54.0529 359.487 54.1628 359.228 54.3825C358.974 54.5973 358.796 54.8805 358.693 55.2321L358.701 60.6667H356.921V55.4518C356.896 54.5192 356.42 54.0529 355.493 54.0529C354.78 54.0529 354.274 54.3434 353.977 54.9245V60.6667H352.197V52.7419H353.874ZM370.932 54.5216H372.016C372.563 54.5168 372.995 54.3752 373.312 54.0968C373.635 53.8185 373.796 53.4157 373.796 52.8883C373.796 52.3805 373.662 51.9875 373.393 51.7091C373.129 51.4259 372.724 51.2843 372.177 51.2843C371.699 51.2843 371.306 51.4235 370.998 51.7018C370.69 51.9753 370.537 52.3341 370.537 52.7785H368.757C368.757 52.2316 368.901 51.7336 369.189 51.2843C369.482 50.8351 369.887 50.486 370.405 50.237C370.927 49.9831 371.511 49.8561 372.155 49.8561C373.22 49.8561 374.055 50.1247 374.66 50.6618C375.271 51.194 375.576 51.9362 375.576 52.8883C375.576 53.3669 375.422 53.8185 375.114 54.2433C374.812 54.6632 374.418 54.9806 373.935 55.1955C374.521 55.3957 374.965 55.7106 375.268 56.1403C375.576 56.57 375.729 57.0827 375.729 57.6784C375.729 58.6354 375.4 59.3971 374.741 59.9635C374.086 60.5299 373.225 60.8131 372.155 60.8131C371.13 60.8131 370.29 60.5397 369.636 59.9928C368.981 59.446 368.654 58.7184 368.654 57.8102H370.434C370.434 58.279 370.59 58.6598 370.903 58.9528C371.22 59.2458 371.645 59.3922 372.177 59.3922C372.729 59.3922 373.164 59.2458 373.481 58.9528C373.798 58.6598 373.957 58.235 373.957 57.6784C373.957 57.1169 373.791 56.6847 373.459 56.382C373.127 56.0793 372.634 55.9279 371.979 55.9279H370.932V54.5216Z" fill="white"/>
<path d="M427 36C427 33.2386 429.239 31 432 31H542C544.761 31 547 33.2386 547 36V76C547 78.7614 544.761 81 542 81H432C429.239 81 427 78.7614 427 76V36Z" fill="#1E73FF"/>
<path d="M469.204 60.6667H467.424V52.7419H469.204V60.6667ZM467.314 50.6837C467.314 50.4103 467.4 50.1833 467.571 50.0026C467.747 49.8219 467.996 49.7316 468.318 49.7316C468.64 49.7316 468.889 49.8219 469.065 50.0026C469.241 50.1833 469.329 50.4103 469.329 50.6837C469.329 50.9523 469.241 51.1769 469.065 51.3576C468.889 51.5334 468.64 51.6212 468.318 51.6212C467.996 51.6212 467.747 51.5334 467.571 51.3576C467.4 51.1769 467.314 50.9523 467.314 50.6837ZM473.379 50.8156V52.7419H474.778V54.0602H473.379V58.484C473.379 58.7868 473.438 59.0065 473.555 59.1432C473.677 59.2751 473.892 59.341 474.199 59.341C474.404 59.341 474.612 59.3166 474.822 59.2677V60.6447C474.417 60.757 474.026 60.8131 473.65 60.8131C472.283 60.8131 471.599 60.0587 471.599 58.55V54.0602H470.295V52.7419H471.599V50.8156H473.379ZM479.634 60.8131C478.506 60.8131 477.59 60.4591 476.887 59.7511C476.189 59.0382 475.84 58.091 475.84 56.9093V56.6896C475.84 55.8986 475.991 55.193 476.294 54.5729C476.602 53.9479 477.031 53.4621 477.583 53.1154C478.135 52.7687 478.75 52.5954 479.429 52.5954C480.508 52.5954 481.34 52.9396 481.926 53.6281C482.517 54.3166 482.812 55.2907 482.812 56.5504V57.2682H477.634C477.688 57.9225 477.905 58.4401 478.286 58.821C478.672 59.2018 479.155 59.3922 479.736 59.3922C480.552 59.3922 481.216 59.0627 481.729 58.4035L482.688 59.319C482.371 59.7926 481.946 60.1613 481.414 60.425C480.886 60.6837 480.293 60.8131 479.634 60.8131ZM479.421 54.0236C478.933 54.0236 478.538 54.1945 478.235 54.5363C477.937 54.8781 477.747 55.3542 477.664 55.9645H481.055V55.8327C481.016 55.237 480.857 54.7878 480.579 54.485C480.3 54.1774 479.915 54.0236 479.421 54.0236ZM485.874 52.7419L485.925 53.5695C486.482 52.9201 487.244 52.5954 488.21 52.5954C489.27 52.5954 489.995 53.0006 490.386 53.8112C490.962 53.0006 491.772 52.5954 492.817 52.5954C493.691 52.5954 494.341 52.8371 494.766 53.3205C495.195 53.8039 495.415 54.5168 495.425 55.4591V60.6667H493.645V55.5104C493.645 55.0075 493.535 54.6388 493.315 54.4044C493.096 54.1701 492.732 54.0529 492.224 54.0529C491.819 54.0529 491.487 54.1628 491.228 54.3825C490.974 54.5973 490.796 54.8805 490.693 55.2321L490.701 60.6667H488.921V55.4518C488.896 54.5192 488.42 54.0529 487.493 54.0529C486.78 54.0529 486.274 54.3434 485.977 54.9245V60.6667H484.197V52.7419H485.874ZM506.895 56.8654H508.22V58.2936H506.895V60.6667H505.115V58.2936H500.508L500.457 57.2096L505.056 50.0026H506.895V56.8654ZM502.324 56.8654H505.115V52.4123L504.983 52.6466L502.324 56.8654Z" fill="white"/>
<path d="M153.5 29L153.5 83" stroke="#BBBBBB" stroke-dasharray="3 2"/>
<path d="M160.5 29L160.5 83" stroke="#BBBBBB" stroke-dasharray="3 2"/>
<path d="M285.5 29L285.5 83" stroke="#BBBBBB" stroke-dasharray="3 2"/>
<path d="M292.5 29L292.5 83" stroke="#BBBBBB" stroke-dasharray="3 2"/>
<path d="M417.5 29L417.5 83" stroke="#BBBBBB" stroke-dasharray="3 2"/>
<path d="M424.5 29L424.5 83" stroke="#BBBBBB" stroke-dasharray="3 2"/>
<path d="M549.5 29L549.5 83" stroke="#BBBBBB" stroke-dasharray="3 2"/>
<path d="M556.5 29L556.5 83" stroke="#BBBBBB" stroke-dasharray="3 2"/>
<path d="M681.5 29L681.5 83" stroke="#BBBBBB" stroke-dasharray="3 2"/>
<path d="M688.5 29L688.5 83" stroke="#BBBBBB" stroke-dasharray="3 2"/>
<path d="M813.5 29L813.5 83" stroke="#BBBBBB" stroke-dasharray="3 2"/>
<path d="M820.5 29L820.5 83" stroke="#BBBBBB" stroke-dasharray="3 2"/>
<path d="M945.5 29L945.5 83" stroke="#BBBBBB" stroke-dasharray="3 2"/>
<path d="M952.5 29L952.5 83" stroke="#BBBBBB" stroke-dasharray="3 2"/>
<rect x="28" y="28" width="967" height="56" stroke="#AAAAAA" stroke-width="2"/>
<path d="M961 56L941 44.453V67.547L961 56ZM891 58H943V54H891V58Z" fill="#1E73FF"/>
</g>
<defs>
<clipPath id="clip0">
<rect width="974" height="112" fill="white"/>
</clipPath>
</defs>
</svg>
