<svg width="439" height="185" viewBox="0 0 439 185" fill="none" xmlns="http://www.w3.org/2000/svg">
<path d="M0.560547 10.2471C0.560547 9.09863 0.829427 8.18262 1.36719 7.49902C1.90951 6.81087 2.62728 6.4668 3.52051 6.4668C4.36361 6.4668 5.02669 6.76074 5.50977 7.34863L5.58496 6.60352H7.08203V13.7744C7.08203 14.7451 6.77897 15.5107 6.17285 16.0713C5.57129 16.6318 4.75781 16.9121 3.73242 16.9121C3.1901 16.9121 2.65918 16.7982 2.13965 16.5703C1.62467 16.347 1.23275 16.0531 0.963867 15.6885L1.75 14.6904C2.26042 15.2965 2.88932 15.5996 3.63672 15.5996C4.18815 15.5996 4.62337 15.4492 4.94238 15.1484C5.26139 14.8522 5.4209 14.4147 5.4209 13.8359V13.3369C4.94238 13.8701 4.30436 14.1367 3.50684 14.1367C2.64095 14.1367 1.93229 13.7926 1.38086 13.1045C0.833984 12.4163 0.560547 11.4639 0.560547 10.2471ZM2.21484 10.3906C2.21484 11.1335 2.36523 11.7191 2.66602 12.1475C2.97135 12.5713 3.3929 12.7832 3.93066 12.7832C4.60059 12.7832 5.09733 12.4961 5.4209 11.9219V8.66797C5.10645 8.10742 4.61426 7.82715 3.94434 7.82715C3.39746 7.82715 2.97135 8.04362 2.66602 8.47656C2.36523 8.90951 2.21484 9.54753 2.21484 10.3906ZM12.667 8.12109C12.4482 8.08464 12.2227 8.06641 11.9902 8.06641C11.2292 8.06641 10.7165 8.35807 10.4521 8.94141V14H8.79102V6.60352H10.377L10.418 7.43066C10.819 6.78809 11.375 6.4668 12.0859 6.4668C12.3229 6.4668 12.5189 6.4987 12.6738 6.5625L12.667 8.12109ZM15.4834 14H13.8223V6.60352H15.4834V14ZM13.7197 4.68262C13.7197 4.42741 13.7995 4.21549 13.959 4.04688C14.123 3.87826 14.3555 3.79395 14.6562 3.79395C14.957 3.79395 15.1895 3.87826 15.3535 4.04688C15.5176 4.21549 15.5996 4.42741 15.5996 4.68262C15.5996 4.93327 15.5176 5.1429 15.3535 5.31152C15.1895 5.47559 14.957 5.55762 14.6562 5.55762C14.3555 5.55762 14.123 5.47559 13.959 5.31152C13.7995 5.1429 13.7197 4.93327 13.7197 4.68262ZM16.9873 10.2471C16.9873 9.10775 17.2516 8.19401 17.7803 7.50586C18.3089 6.81315 19.0176 6.4668 19.9062 6.4668C20.6901 6.4668 21.3236 6.74023 21.8066 7.28711V3.5H23.4678V14H21.9639L21.8818 13.2344C21.3851 13.8359 20.722 14.1367 19.8926 14.1367C19.0267 14.1367 18.3249 13.7881 17.7871 13.0908C17.2539 12.3936 16.9873 11.4456 16.9873 10.2471ZM18.6484 10.3906C18.6484 11.1426 18.792 11.7305 19.0791 12.1543C19.3708 12.5736 19.7832 12.7832 20.3164 12.7832C20.9954 12.7832 21.4922 12.4801 21.8066 11.874V8.71582C21.5013 8.12337 21.0091 7.82715 20.3301 7.82715C19.7923 7.82715 19.3776 8.04134 19.0859 8.46973C18.7943 8.89355 18.6484 9.53385 18.6484 10.3906ZM31.7256 12.8105C32.1403 12.8105 32.4844 12.6898 32.7578 12.4482C33.0312 12.2067 33.1771 11.9082 33.1953 11.5527H34.7607C34.7425 12.013 34.599 12.4437 34.3301 12.8447C34.0612 13.2412 33.6966 13.5557 33.2363 13.7881C32.776 14.0205 32.2793 14.1367 31.7461 14.1367C30.7116 14.1367 29.8913 13.8018 29.2852 13.1318C28.679 12.4619 28.376 11.5368 28.376 10.3564V10.1855C28.376 9.0599 28.6768 8.15983 29.2783 7.48535C29.8799 6.80632 30.7002 6.4668 31.7393 6.4668C32.6188 6.4668 33.3343 6.72428 33.8857 7.23926C34.4417 7.74967 34.7334 8.42188 34.7607 9.25586H33.1953C33.1771 8.83203 33.0312 8.4834 32.7578 8.20996C32.4889 7.93652 32.1449 7.7998 31.7256 7.7998C31.1878 7.7998 30.7731 7.99577 30.4814 8.3877C30.1898 8.77507 30.0417 9.36523 30.0371 10.1582V10.4248C30.0371 11.2269 30.1807 11.8262 30.4678 12.2227C30.7594 12.6146 31.1787 12.8105 31.7256 12.8105ZM35.7041 10.2334C35.7041 9.50879 35.8477 8.8571 36.1348 8.27832C36.4219 7.69499 36.8252 7.24837 37.3447 6.93848C37.8643 6.62402 38.4613 6.4668 39.1357 6.4668C40.1338 6.4668 40.9427 6.78809 41.5625 7.43066C42.1868 8.07324 42.5241 8.92546 42.5742 9.9873L42.5811 10.377C42.5811 11.1061 42.4398 11.7578 42.1572 12.332C41.8792 12.9062 41.4782 13.3506 40.9541 13.665C40.4346 13.9795 39.833 14.1367 39.1494 14.1367C38.1058 14.1367 37.2695 13.7904 36.6406 13.0977C36.0163 12.4004 35.7041 11.473 35.7041 10.3154V10.2334ZM37.3652 10.377C37.3652 11.138 37.5225 11.735 37.8369 12.168C38.1514 12.5964 38.5889 12.8105 39.1494 12.8105C39.71 12.8105 40.1452 12.5918 40.4551 12.1543C40.7695 11.7168 40.9268 11.0765 40.9268 10.2334C40.9268 9.486 40.765 8.89355 40.4414 8.45605C40.1224 8.01855 39.6872 7.7998 39.1357 7.7998C38.5934 7.7998 38.1628 8.01628 37.8438 8.44922C37.5247 8.8776 37.3652 9.52018 37.3652 10.377ZM45.5273 6.60352L45.5752 7.45801C46.1221 6.7972 46.8398 6.4668 47.7285 6.4668C49.2689 6.4668 50.0527 7.34863 50.0801 9.1123V14H48.4189V9.20801C48.4189 8.73861 48.3164 8.39225 48.1113 8.16895C47.9108 7.94108 47.5804 7.82715 47.1201 7.82715C46.4502 7.82715 45.9512 8.13021 45.623 8.73633V14H43.9619V6.60352H45.5273ZM53.8604 4.80566V6.60352H55.166V7.83398H53.8604V11.9629C53.8604 12.2454 53.915 12.4505 54.0244 12.5781C54.1383 12.7012 54.3389 12.7627 54.626 12.7627C54.8174 12.7627 55.0111 12.7399 55.207 12.6943V13.9795C54.8288 14.0843 54.4642 14.1367 54.1133 14.1367C52.8372 14.1367 52.1992 13.4326 52.1992 12.0244V7.83398H50.9824V6.60352H52.1992V4.80566H53.8604ZM60.8604 14C60.7874 13.8587 60.7236 13.6286 60.6689 13.3096C60.1403 13.861 59.4932 14.1367 58.7275 14.1367C57.9847 14.1367 57.3786 13.9248 56.9092 13.501C56.4398 13.0771 56.2051 12.5531 56.2051 11.9287C56.2051 11.1403 56.4967 10.5365 57.0801 10.1172C57.668 9.69336 58.5065 9.48145 59.5957 9.48145H60.6143V8.99609C60.6143 8.61328 60.5072 8.30794 60.293 8.08008C60.0788 7.84766 59.7529 7.73145 59.3154 7.73145C58.9372 7.73145 58.6273 7.82715 58.3857 8.01855C58.1442 8.2054 58.0234 8.44466 58.0234 8.73633H56.3623C56.3623 8.33073 56.4967 7.95247 56.7656 7.60156C57.0345 7.24609 57.3991 6.9681 57.8594 6.76758C58.3242 6.56706 58.8415 6.4668 59.4111 6.4668C60.277 6.4668 60.9674 6.68555 61.4824 7.12305C61.9974 7.55599 62.2617 8.16667 62.2754 8.95508V12.291C62.2754 12.9564 62.3688 13.4873 62.5557 13.8838V14H60.8604ZM59.0352 12.8037C59.3633 12.8037 59.6709 12.724 59.958 12.5645C60.2497 12.4049 60.4684 12.1908 60.6143 11.9219V10.5273H59.7188C59.1035 10.5273 58.641 10.6344 58.3311 10.8486C58.0212 11.0628 57.8662 11.3659 57.8662 11.7578C57.8662 12.0768 57.971 12.332 58.1807 12.5234C58.3949 12.7103 58.6797 12.8037 59.0352 12.8037ZM65.7822 14H64.1211V6.60352H65.7822V14ZM64.0186 4.68262C64.0186 4.42741 64.0983 4.21549 64.2578 4.04688C64.4219 3.87826 64.6543 3.79395 64.9551 3.79395C65.2559 3.79395 65.4883 3.87826 65.6523 4.04688C65.8164 4.21549 65.8984 4.42741 65.8984 4.68262C65.8984 4.93327 65.8164 5.1429 65.6523 5.31152C65.4883 5.47559 65.2559 5.55762 64.9551 5.55762C64.6543 5.55762 64.4219 5.47559 64.2578 5.31152C64.0983 5.1429 64.0186 4.93327 64.0186 4.68262ZM69.1387 6.60352L69.1865 7.45801C69.7334 6.7972 70.4512 6.4668 71.3398 6.4668C72.8802 6.4668 73.6641 7.34863 73.6914 9.1123V14H72.0303V9.20801C72.0303 8.73861 71.9277 8.39225 71.7227 8.16895C71.5221 7.94108 71.1917 7.82715 70.7314 7.82715C70.0615 7.82715 69.5625 8.13021 69.2344 8.73633V14H67.5732V6.60352H69.1387ZM78.6475 14.1367C77.5947 14.1367 76.7402 13.8063 76.084 13.1455C75.4323 12.4801 75.1064 11.596 75.1064 10.4932V10.2881C75.1064 9.5498 75.2477 8.89128 75.5303 8.3125C75.8174 7.72917 76.2184 7.27572 76.7334 6.95215C77.2484 6.62858 77.8226 6.4668 78.4561 6.4668C79.4632 6.4668 80.2402 6.78809 80.7871 7.43066C81.3385 8.07324 81.6143 8.98242 81.6143 10.1582V10.8281H76.7812C76.8314 11.4388 77.0342 11.9219 77.3896 12.2773C77.7497 12.6328 78.2008 12.8105 78.7432 12.8105C79.5042 12.8105 80.124 12.5029 80.6025 11.8877L81.498 12.7422C81.2018 13.1842 80.8053 13.5283 80.3086 13.7744C79.8164 14.016 79.2627 14.1367 78.6475 14.1367ZM78.4492 7.7998C77.9935 7.7998 77.6243 7.95931 77.3418 8.27832C77.0638 8.59733 76.8861 9.04167 76.8086 9.61133H79.9736V9.48828C79.9372 8.93229 79.7891 8.51302 79.5293 8.23047C79.2695 7.94336 78.9095 7.7998 78.4492 7.7998ZM86.7822 8.12109C86.5635 8.08464 86.3379 8.06641 86.1055 8.06641C85.3444 8.06641 84.8317 8.35807 84.5674 8.94141V14H82.9062V6.60352H84.4922L84.5332 7.43066C84.9342 6.78809 85.4902 6.4668 86.2012 6.4668C86.4382 6.4668 86.6341 6.4987 86.7891 6.5625L86.7822 8.12109Z" fill="#BBBBBB"/>
<rect x="1" y="29" width="437" height="155" rx="5" fill="#EEEEEE" stroke="#AAAAAA" stroke-width="2" stroke-dasharray="6 4"/>
<path d="M2 34C2 31.7909 3.79086 30 6 30H433C435.209 30 437 31.7909 437 34V101H2V34Z" fill="white"/>
<path d="M110.5 32L110.5 181" stroke="#AAAAAA" stroke-dasharray="4 2"/>
<path d="M219.5 32L219.5 181" stroke="#AAAAAA" stroke-dasharray="4 2"/>
<path d="M328.5 32L328.5 181" stroke="#AAAAAA" stroke-dasharray="4 2"/>
<path d="M435 101.5L4 101.5" stroke="#AAAAAA" stroke-dasharray="4 2"/>
<path d="M435 142.5L4.00001 142.5" stroke="#AAAAAA" stroke-dasharray="4 2"/>
<g opacity="0.75">
<path d="M6 38C6 35.7909 7.79086 34 10 34H102C104.209 34 106 35.7909 106 38V60C106 62.2091 104.209 64 102 64H10C7.79086 64 6 62.2091 6 60V38Z" fill="#1E73FF"/>
<path d="M45.6069 51.2466C45.6069 50.9292 45.4751 50.6875 45.2114 50.5215C44.9526 50.3555 44.5205 50.209 43.915 50.082C43.3096 49.9551 42.8042 49.7939 42.3989 49.5986C41.5103 49.1689 41.0659 48.5464 41.0659 47.731C41.0659 47.0474 41.354 46.4761 41.9302 46.0171C42.5063 45.5581 43.2388 45.3286 44.1274 45.3286C45.0747 45.3286 45.8389 45.563 46.4199 46.0317C47.0059 46.5005 47.2988 47.1084 47.2988 47.8555H45.519C45.519 47.5137 45.3921 47.2305 45.1382 47.0059C44.8843 46.7764 44.5474 46.6616 44.1274 46.6616C43.7368 46.6616 43.417 46.752 43.168 46.9326C42.9238 47.1133 42.8018 47.355 42.8018 47.6577C42.8018 47.9312 42.9165 48.1436 43.146 48.2949C43.3755 48.4463 43.8394 48.6001 44.5376 48.7563C45.2358 48.9077 45.7827 49.0908 46.1782 49.3057C46.5786 49.5156 46.874 49.7695 47.0645 50.0674C47.2598 50.3652 47.3574 50.7266 47.3574 51.1514C47.3574 51.8643 47.062 52.4429 46.4712 52.8872C45.8804 53.3267 45.1064 53.5464 44.1494 53.5464C43.5 53.5464 42.9214 53.4292 42.4136 53.1948C41.9058 52.9604 41.5103 52.6382 41.2271 52.228C40.9438 51.8179 40.8022 51.376 40.8022 50.9023H42.5308C42.5552 51.3223 42.7139 51.647 43.0068 51.8765C43.2998 52.1011 43.688 52.2134 44.1714 52.2134C44.6401 52.2134 44.9966 52.1255 45.2407 51.9497C45.4849 51.769 45.6069 51.5347 45.6069 51.2466ZM51.144 43.5488V45.4751H52.543V46.7935H51.144V51.2173C51.144 51.52 51.2026 51.7397 51.3198 51.8765C51.4419 52.0083 51.6567 52.0742 51.9644 52.0742C52.1694 52.0742 52.377 52.0498 52.5869 52.001V53.3779C52.1816 53.4902 51.791 53.5464 51.415 53.5464C50.0479 53.5464 49.3643 52.792 49.3643 51.2832V46.7935H48.0605V45.4751H49.3643V43.5488H51.144ZM58.644 53.3999C58.5659 53.2485 58.4976 53.002 58.439 52.6602C57.8726 53.251 57.1792 53.5464 56.3589 53.5464C55.563 53.5464 54.9136 53.3193 54.4106 52.8652C53.9077 52.4111 53.6562 51.8496 53.6562 51.1807C53.6562 50.3359 53.9688 49.689 54.5938 49.2397C55.2236 48.7856 56.1221 48.5586 57.2891 48.5586H58.3804V48.0386C58.3804 47.6284 58.2656 47.3013 58.0361 47.0571C57.8066 46.8081 57.4575 46.6836 56.9888 46.6836C56.5835 46.6836 56.2515 46.7861 55.9927 46.9912C55.7339 47.1914 55.6045 47.4478 55.6045 47.7603H53.8247C53.8247 47.3257 53.9688 46.9204 54.2568 46.5444C54.5449 46.1636 54.9355 45.8657 55.4287 45.6509C55.9268 45.436 56.481 45.3286 57.0913 45.3286C58.019 45.3286 58.7588 45.563 59.3105 46.0317C59.8623 46.4956 60.1455 47.1499 60.1602 47.9946V51.5688C60.1602 52.2817 60.2603 52.8506 60.4604 53.2754V53.3999H58.644ZM56.6885 52.1182C57.04 52.1182 57.3696 52.0327 57.6772 51.8618C57.9897 51.6909 58.2241 51.4614 58.3804 51.1733V49.6792H57.4209C56.7617 49.6792 56.2661 49.7939 55.9341 50.0234C55.6021 50.2529 55.436 50.5776 55.436 50.9976C55.436 51.3394 55.5483 51.6128 55.7729 51.8179C56.0024 52.0181 56.3076 52.1182 56.6885 52.1182ZM66.1733 47.1011C65.939 47.062 65.6973 47.0425 65.4482 47.0425C64.6328 47.0425 64.0835 47.355 63.8003 47.98V53.3999H62.0205V45.4751H63.7197L63.7637 46.3613C64.1934 45.6729 64.7891 45.3286 65.5508 45.3286C65.8047 45.3286 66.0146 45.3628 66.1807 45.4312L66.1733 47.1011ZM69.894 43.5488V45.4751H71.293V46.7935H69.894V51.2173C69.894 51.52 69.9526 51.7397 70.0698 51.8765C70.1919 52.0083 70.4067 52.0742 70.7144 52.0742C70.9194 52.0742 71.127 52.0498 71.3369 52.001V53.3779C70.9316 53.4902 70.541 53.5464 70.165 53.5464C68.7979 53.5464 68.1143 52.792 68.1143 51.2832V46.7935H66.8105V45.4751H68.1143V43.5488H69.894Z" fill="white"/>
</g>
<g opacity="0.75">
<path d="M115 55C115 52.7909 116.791 51 119 51H211C213.209 51 215 52.7909 215 55V77C215 79.2091 213.209 81 211 81H119C116.791 81 115 79.2091 115 77V55Z" fill="#1E73FF"/>
<path d="M148.376 69.1255C148.82 69.1255 149.189 68.9961 149.482 68.7373C149.775 68.4785 149.931 68.1587 149.951 67.7778H151.628C151.608 68.271 151.455 68.7324 151.167 69.1621C150.878 69.5869 150.488 69.9238 149.995 70.1729C149.501 70.4219 148.969 70.5464 148.398 70.5464C147.29 70.5464 146.411 70.1875 145.761 69.4697C145.112 68.752 144.787 67.7607 144.787 66.4961V66.313C144.787 65.1069 145.109 64.1426 145.754 63.4199C146.398 62.6924 147.277 62.3286 148.391 62.3286C149.333 62.3286 150.1 62.6045 150.69 63.1562C151.286 63.7031 151.599 64.4233 151.628 65.3169H149.951C149.931 64.8628 149.775 64.4893 149.482 64.1963C149.194 63.9033 148.825 63.7568 148.376 63.7568C147.8 63.7568 147.355 63.9668 147.043 64.3867C146.73 64.8018 146.572 65.4341 146.567 66.2837V66.5693C146.567 67.4287 146.721 68.0708 147.028 68.4956C147.341 68.9155 147.79 69.1255 148.376 69.1255ZM156.462 70.5464C155.334 70.5464 154.418 70.1924 153.715 69.4844C153.017 68.7715 152.668 67.8242 152.668 66.6426V66.4229C152.668 65.6318 152.819 64.9263 153.122 64.3062C153.43 63.6812 153.859 63.1953 154.411 62.8486C154.963 62.502 155.578 62.3286 156.257 62.3286C157.336 62.3286 158.168 62.6729 158.754 63.3613C159.345 64.0498 159.641 65.0239 159.641 66.2837V67.0015H154.462C154.516 67.6558 154.733 68.1733 155.114 68.5542C155.5 68.9351 155.983 69.1255 156.564 69.1255C157.38 69.1255 158.044 68.7959 158.557 68.1367L159.516 69.0522C159.199 69.5259 158.774 69.8945 158.242 70.1582C157.714 70.417 157.121 70.5464 156.462 70.5464ZM156.25 63.7568C155.761 63.7568 155.366 63.9277 155.063 64.2695C154.765 64.6113 154.575 65.0874 154.492 65.6978H157.883V65.5659C157.844 64.9702 157.685 64.521 157.407 64.2183C157.128 63.9106 156.743 63.7568 156.25 63.7568ZM162.68 62.4751L162.731 63.3906C163.317 62.6826 164.086 62.3286 165.039 62.3286C166.689 62.3286 167.529 63.2734 167.558 65.1631V70.3999H165.778V65.2656C165.778 64.7627 165.668 64.3916 165.449 64.1523C165.234 63.9082 164.88 63.7861 164.387 63.7861C163.669 63.7861 163.134 64.1108 162.783 64.7603V70.3999H161.003V62.4751H162.68ZM171.608 60.5488V62.4751H173.007V63.7935H171.608V68.2173C171.608 68.52 171.667 68.7397 171.784 68.8765C171.906 69.0083 172.121 69.0742 172.429 69.0742C172.634 69.0742 172.841 69.0498 173.051 69.001V70.3779C172.646 70.4902 172.255 70.5464 171.879 70.5464C170.512 70.5464 169.829 69.792 169.829 68.2832V63.7935H168.525V62.4751H169.829V60.5488H171.608ZM177.863 70.5464C176.735 70.5464 175.82 70.1924 175.117 69.4844C174.418 68.7715 174.069 67.8242 174.069 66.6426V66.4229C174.069 65.6318 174.221 64.9263 174.523 64.3062C174.831 63.6812 175.261 63.1953 175.812 62.8486C176.364 62.502 176.979 62.3286 177.658 62.3286C178.737 62.3286 179.57 62.6729 180.156 63.3613C180.747 64.0498 181.042 65.0239 181.042 66.2837V67.0015H175.864C175.917 67.6558 176.135 68.1733 176.516 68.5542C176.901 68.9351 177.385 69.1255 177.966 69.1255C178.781 69.1255 179.445 68.7959 179.958 68.1367L180.917 69.0522C180.6 69.5259 180.175 69.8945 179.643 70.1582C179.116 70.417 178.522 70.5464 177.863 70.5464ZM177.651 63.7568C177.163 63.7568 176.767 63.9277 176.464 64.2695C176.167 64.6113 175.976 65.0874 175.893 65.6978H179.284V65.5659C179.245 64.9702 179.086 64.521 178.808 64.2183C178.53 63.9106 178.144 63.7568 177.651 63.7568ZM186.579 64.1011C186.345 64.062 186.103 64.0425 185.854 64.0425C185.039 64.0425 184.489 64.355 184.206 64.98V70.3999H182.426V62.4751H184.125L184.169 63.3613C184.599 62.6729 185.195 62.3286 185.957 62.3286C186.21 62.3286 186.42 62.3628 186.586 62.4312L186.579 64.1011Z" fill="white"/>
</g>
<g opacity="0.75">
<path d="M224 71C224 68.7909 225.791 67 228 67H320C322.209 67 324 68.7909 324 71V93C324 95.2091 322.209 97 320 97H228C225.791 97 224 95.2091 224 93V71Z" fill="#1E73FF"/>
<path d="M266.465 86.5464C265.337 86.5464 264.422 86.1924 263.719 85.4844C263.021 84.7715 262.671 83.8242 262.671 82.6426V82.4229C262.671 81.6318 262.823 80.9263 263.125 80.3062C263.433 79.6812 263.863 79.1953 264.415 78.8486C264.966 78.502 265.582 78.3286 266.26 78.3286C267.339 78.3286 268.172 78.6729 268.758 79.3613C269.349 80.0498 269.644 81.0239 269.644 82.2837V83.0015H264.466C264.52 83.6558 264.737 84.1733 265.118 84.5542C265.503 84.9351 265.987 85.1255 266.568 85.1255C267.383 85.1255 268.047 84.7959 268.56 84.1367L269.52 85.0522C269.202 85.5259 268.777 85.8945 268.245 86.1582C267.718 86.417 267.125 86.5464 266.465 86.5464ZM266.253 79.7568C265.765 79.7568 265.369 79.9277 265.066 80.2695C264.769 80.6113 264.578 81.0874 264.495 81.6978H267.886V81.5659C267.847 80.9702 267.688 80.521 267.41 80.2183C267.132 79.9106 266.746 79.7568 266.253 79.7568ZM272.684 78.4751L272.735 79.3906C273.321 78.6826 274.09 78.3286 275.042 78.3286C276.692 78.3286 277.532 79.2734 277.562 81.1631V86.3999H275.782V81.2656C275.782 80.7627 275.672 80.3916 275.452 80.1523C275.237 79.9082 274.883 79.7861 274.39 79.7861C273.672 79.7861 273.138 80.1108 272.786 80.7603V86.3999H271.006V78.4751H272.684ZM279.048 82.3789C279.048 81.1582 279.332 80.1792 279.898 79.4419C280.464 78.6997 281.224 78.3286 282.176 78.3286C283.016 78.3286 283.694 78.6216 284.212 79.2075V75.1499H285.992V86.3999H284.38L284.292 85.5796C283.76 86.2241 283.05 86.5464 282.161 86.5464C281.233 86.5464 280.481 86.1729 279.905 85.4258C279.334 84.6787 279.048 83.6631 279.048 82.3789ZM280.828 82.5327C280.828 83.3384 280.982 83.9683 281.29 84.4224C281.602 84.8716 282.044 85.0962 282.615 85.0962C283.343 85.0962 283.875 84.7715 284.212 84.1221V80.7383C283.885 80.1035 283.357 79.7861 282.63 79.7861C282.054 79.7861 281.609 80.0156 281.297 80.4746C280.984 80.9287 280.828 81.6147 280.828 82.5327Z" fill="white"/>
</g>
<g opacity="0.75">
<path d="M333 38C333 35.7909 334.791 34 337 34H429C431.209 34 433 35.7909 433 38V93C433 95.2091 431.209 97 429 97H337C334.791 97 333 95.2091 333 93V38Z" fill="#1E73FF"/>
<path d="M364.799 67.5867C364.799 67.2693 364.667 67.0276 364.404 66.8616C364.145 66.6956 363.713 66.5491 363.107 66.4221C362.502 66.2952 361.997 66.134 361.591 65.9387C360.703 65.509 360.258 64.8865 360.258 64.071C360.258 63.3875 360.546 62.8162 361.123 62.3572C361.699 61.8982 362.431 61.6687 363.32 61.6687C364.267 61.6687 365.031 61.9031 365.612 62.3718C366.198 62.8406 366.491 63.4485 366.491 64.1956H364.711C364.711 63.8538 364.584 63.5706 364.331 63.3459C364.077 63.1165 363.74 63.0017 363.32 63.0017C362.929 63.0017 362.609 63.092 362.36 63.2727C362.116 63.4534 361.994 63.6951 361.994 63.9978C361.994 64.2712 362.109 64.4836 362.338 64.635C362.568 64.7864 363.032 64.9402 363.73 65.0964C364.428 65.2478 364.975 65.4309 365.371 65.6458C365.771 65.8557 366.066 66.1096 366.257 66.4075C366.452 66.7053 366.55 67.0667 366.55 67.4915C366.55 68.2043 366.254 68.783 365.664 69.2273C365.073 69.6667 364.299 69.8865 363.342 69.8865C362.692 69.8865 362.114 69.7693 361.606 69.5349C361.098 69.3005 360.703 68.9783 360.419 68.5681C360.136 68.158 359.995 67.7161 359.995 67.2424H361.723C361.748 67.6624 361.906 67.9871 362.199 68.2166C362.492 68.4412 362.88 68.5535 363.364 68.5535C363.833 68.5535 364.189 68.4656 364.433 68.2898C364.677 68.1091 364.799 67.8748 364.799 67.5867ZM370.336 59.8889V61.8152H371.735V63.1335H370.336V67.5574C370.336 67.8601 370.395 68.0798 370.512 68.2166C370.634 68.3484 370.849 68.4143 371.157 68.4143C371.362 68.4143 371.569 68.3899 371.779 68.3411V69.718C371.374 69.8303 370.983 69.8865 370.607 69.8865C369.24 69.8865 368.557 69.1321 368.557 67.6233V63.1335H367.253V61.8152H368.557V59.8889H370.336ZM377.25 63.4412C377.016 63.4021 376.774 63.3826 376.525 63.3826C375.71 63.3826 375.161 63.6951 374.877 64.3201V69.74H373.098V61.8152H374.797L374.841 62.7014C375.271 62.0129 375.866 61.6687 376.628 61.6687C376.882 61.6687 377.092 61.7029 377.258 61.7712L377.25 63.4412ZM381.718 69.8865C380.59 69.8865 379.675 69.5325 378.972 68.8245C378.273 68.1116 377.924 67.1643 377.924 65.9827V65.7629C377.924 64.9719 378.076 64.2664 378.378 63.6462C378.686 63.0212 379.116 62.5354 379.667 62.1887C380.219 61.842 380.834 61.6687 381.513 61.6687C382.592 61.6687 383.425 62.0129 384.011 62.7014C384.602 63.3899 384.897 64.364 384.897 65.6238V66.3416H379.719C379.772 66.9958 379.99 67.5134 380.371 67.8943C380.756 68.2751 381.24 68.4656 381.821 68.4656C382.636 68.4656 383.3 68.136 383.813 67.4768L384.772 68.3923C384.455 68.866 384.03 69.2346 383.498 69.4983C382.971 69.7571 382.377 69.8865 381.718 69.8865ZM381.506 63.0969C381.018 63.0969 380.622 63.2678 380.319 63.6096C380.021 63.9514 379.831 64.4275 379.748 65.0378H383.139V64.906C383.1 64.3103 382.941 63.8611 382.663 63.5583C382.385 63.2507 381.999 63.0969 381.506 63.0969ZM388.515 59.8889V61.8152H389.914V63.1335H388.515V67.5574C388.515 67.8601 388.574 68.0798 388.691 68.2166C388.813 68.3484 389.028 68.4143 389.335 68.4143C389.541 68.4143 389.748 68.3899 389.958 68.3411V69.718C389.553 69.8303 389.162 69.8865 388.786 69.8865C387.419 69.8865 386.735 69.1321 386.735 67.6233V63.1335H385.432V61.8152H386.735V59.8889H388.515ZM394.536 68.4656C394.98 68.4656 395.349 68.3362 395.642 68.0774C395.935 67.8186 396.091 67.4988 396.11 67.1179H397.788C397.768 67.6111 397.614 68.0725 397.326 68.5022C397.038 68.927 396.647 69.2639 396.154 69.5129C395.661 69.762 395.129 69.8865 394.558 69.8865C393.449 69.8865 392.57 69.5276 391.921 68.8098C391.271 68.092 390.947 67.1008 390.947 65.8362V65.6531C390.947 64.447 391.269 63.4827 391.914 62.76C392.558 62.0325 393.437 61.6687 394.55 61.6687C395.493 61.6687 396.259 61.9446 396.85 62.4963C397.446 63.0432 397.758 63.7634 397.788 64.657H396.11C396.091 64.2029 395.935 63.8293 395.642 63.5364C395.354 63.2434 394.985 63.0969 394.536 63.0969C393.959 63.0969 393.515 63.3069 393.203 63.7268C392.89 64.1418 392.731 64.7742 392.727 65.6238V65.9094C392.727 66.7688 392.88 67.4109 393.188 67.8357C393.5 68.2556 393.95 68.4656 394.536 68.4656ZM400.886 62.6794C401.467 62.0056 402.202 61.6687 403.09 61.6687C404.78 61.6687 405.637 62.6331 405.661 64.5618V69.74H403.881V64.6277C403.881 64.0808 403.762 63.6951 403.522 63.4705C403.288 63.241 402.941 63.1262 402.482 63.1262C401.77 63.1262 401.237 63.4436 400.886 64.0784V69.74H399.106V58.49H400.886V62.6794Z" fill="white"/>
</g>
</svg>
