<svg width="635" height="294" viewBox="0 0 635 294" fill="none" xmlns="http://www.w3.org/2000/svg">
<g clip-path="url(#clip0)">
<rect width="635" height="294" fill="#F7F7F7"/>
<path d="M19 7C19 5.89543 19.8954 5 21 5H35C36.1046 5 37 5.89543 37 7V16.1857C37 16.7167 36.7888 17.2259 36.413 17.6011L29.413 24.5894C28.6323 25.3688 27.3677 25.3688 26.587 24.5894L19.587 17.6011C19.2112 17.2259 19 16.7167 19 16.1857V7Z" fill="#CCCCCC"/>
<path d="M29.084 17H27.666V10.1504L25.5742 10.8652V9.66406L28.9023 8.43945H29.084V17Z" fill="white"/>
<path d="M148 7C148 5.89543 148.895 5 150 5H164C165.105 5 166 5.89543 166 7V16.1857C166 16.7167 165.789 17.2259 165.413 17.6011L158.413 24.5894C157.632 25.3688 156.368 25.3688 155.587 24.5894L148.587 17.6011C148.211 17.2259 148 16.7167 148 16.1857V7Z" fill="#CCCCCC"/>
<path d="M159.965 17H154.229V16.0215L157.07 12.9219C157.48 12.4648 157.771 12.084 157.943 11.7793C158.119 11.4707 158.207 11.1621 158.207 10.8535C158.207 10.4473 158.092 10.1191 157.861 9.86914C157.635 9.61914 157.328 9.49414 156.941 9.49414C156.48 9.49414 156.123 9.63477 155.869 9.91602C155.615 10.1973 155.488 10.582 155.488 11.0703H154.064C154.064 10.5508 154.182 10.084 154.416 9.66992C154.654 9.25195 154.992 8.92773 155.43 8.69727C155.871 8.4668 156.379 8.35156 156.953 8.35156C157.781 8.35156 158.434 8.56055 158.91 8.97852C159.391 9.39258 159.631 9.9668 159.631 10.7012C159.631 11.127 159.51 11.5742 159.268 12.043C159.029 12.5078 158.637 13.0371 158.09 13.6309L156.004 15.8633H159.965V17Z" fill="white"/>
<path d="M280 7C280 5.89543 280.895 5 282 5H296C297.105 5 298 5.89543 298 7V16.1857C298 16.7167 297.789 17.2259 297.413 17.6011L290.413 24.5894C289.632 25.3688 288.368 25.3688 287.587 24.5894L280.587 17.6011C280.211 17.2259 280 16.7167 280 16.1857V7Z" fill="#CCCCCC"/>
<path d="M287.875 12.084H288.742C289.18 12.0801 289.525 11.9668 289.779 11.7441C290.037 11.5215 290.166 11.1992 290.166 10.7773C290.166 10.3711 290.059 10.0566 289.844 9.83398C289.633 9.60742 289.309 9.49414 288.871 9.49414C288.488 9.49414 288.174 9.60547 287.928 9.82812C287.682 10.0469 287.559 10.334 287.559 10.6895H286.135C286.135 10.252 286.25 9.85352 286.48 9.49414C286.715 9.13477 287.039 8.85547 287.453 8.65625C287.871 8.45312 288.338 8.35156 288.854 8.35156C289.705 8.35156 290.373 8.56641 290.857 8.99609C291.346 9.42188 291.59 10.0156 291.59 10.7773C291.59 11.1602 291.467 11.5215 291.221 11.8613C290.979 12.1973 290.664 12.4512 290.277 12.623C290.746 12.7832 291.102 13.0352 291.344 13.3789C291.59 13.7227 291.713 14.1328 291.713 14.6094C291.713 15.375 291.449 15.9844 290.922 16.4375C290.398 16.8906 289.709 17.1172 288.854 17.1172C288.033 17.1172 287.361 16.8984 286.838 16.4609C286.314 16.0234 286.053 15.4414 286.053 14.7148H287.477C287.477 15.0898 287.602 15.3945 287.852 15.6289C288.105 15.8633 288.445 15.9805 288.871 15.9805C289.312 15.9805 289.66 15.8633 289.914 15.6289C290.168 15.3945 290.295 15.0547 290.295 14.6094C290.295 14.1602 290.162 13.8145 289.896 13.5723C289.631 13.3301 289.236 13.209 288.713 13.209H287.875V12.084Z" fill="white"/>
<path d="M412 7C412 5.89543 412.895 5 414 5H428C429.105 5 430 5.89543 430 7V16.1857C430 16.7167 429.789 17.2259 429.413 17.6011L422.413 24.5894C421.632 25.3688 420.368 25.3688 419.587 24.5894L412.587 17.6011C412.211 17.2259 412 16.7167 412 16.1857V7Z" fill="#CCCCCC"/>
<path d="M423.045 13.959H424.105V15.1016H423.045V17H421.621V15.1016H417.936L417.895 14.2344L421.574 8.46875H423.045V13.959ZM419.389 13.959H421.621V10.3965L421.516 10.584L419.389 13.959Z" fill="white"/>
<path d="M544 7C544 5.89543 544.895 5 546 5H560C561.105 5 562 5.89543 562 7V16.1857C562 16.7167 561.789 17.2259 561.413 17.6011L554.413 24.5894C553.632 25.3688 552.368 25.3688 551.587 24.5894L544.587 17.6011C544.211 17.2259 544 16.7167 544 16.1857V7Z" fill="#CCCCCC"/>
<path d="M550.609 12.7695L551.072 8.46875H555.654V9.69922H552.256L552.021 11.7383C552.416 11.5117 552.861 11.3984 553.357 11.3984C554.17 11.3984 554.801 11.6582 555.25 12.1777C555.703 12.6973 555.93 13.3965 555.93 14.2754C555.93 15.1426 555.68 15.834 555.18 16.3496C554.68 16.8613 553.994 17.1172 553.123 17.1172C552.342 17.1172 551.693 16.8965 551.178 16.4551C550.666 16.0098 550.389 15.4238 550.346 14.6973H551.723C551.777 15.1113 551.926 15.4297 552.168 15.6523C552.41 15.8711 552.727 15.9805 553.117 15.9805C553.555 15.9805 553.895 15.8242 554.137 15.5117C554.383 15.1992 554.506 14.7734 554.506 14.2344C554.506 13.7148 554.371 13.3047 554.102 13.0039C553.832 12.6992 553.461 12.5469 552.988 12.5469C552.73 12.5469 552.512 12.582 552.332 12.6523C552.152 12.7188 551.957 12.8516 551.746 13.0508L550.609 12.7695Z" fill="white"/>
<path d="M604 7C604 5.89543 604.895 5 606 5H620C621.105 5 622 5.89543 622 7V16.1857C622 16.7167 621.789 17.2259 621.413 17.6011L614.413 24.5894C613.632 25.3688 612.368 25.3688 611.587 24.5894L604.587 17.6011C604.211 17.2259 604 16.7167 604 16.1857V7Z" fill="#CCCCCC"/>
<path d="M614.658 8.42773V9.60547H614.482C613.686 9.61719 613.049 9.83594 612.572 10.2617C612.096 10.6875 611.812 11.291 611.723 12.0723C612.18 11.5918 612.764 11.3516 613.475 11.3516C614.229 11.3516 614.822 11.6172 615.256 12.1484C615.693 12.6797 615.912 13.3652 615.912 14.2051C615.912 15.0723 615.656 15.7754 615.145 16.3145C614.637 16.8496 613.969 17.1172 613.141 17.1172C612.289 17.1172 611.598 16.8027 611.066 16.1738C610.539 15.5449 610.275 14.7207 610.275 13.7012V13.2148C610.275 11.7188 610.639 10.5469 611.365 9.69922C612.096 8.85156 613.145 8.42773 614.512 8.42773H614.658ZM613.129 12.5C612.816 12.5 612.529 12.5879 612.268 12.7637C612.01 12.9395 611.82 13.1738 611.699 13.4668V13.9004C611.699 14.5332 611.832 15.0371 612.098 15.4121C612.363 15.7832 612.707 15.9688 613.129 15.9688C613.551 15.9688 613.885 15.8105 614.131 15.4941C614.377 15.1777 614.5 14.7617 614.5 14.2461C614.5 13.7305 614.375 13.3105 614.125 12.9863C613.875 12.6621 613.543 12.5 613.129 12.5Z" fill="white"/>
<path d="M7 37C5.89543 37 5 36.1046 5 35L5 21C5 19.8954 5.89543 19 7 19L16.1857 19C16.7167 19 17.2259 19.2112 17.6011 19.587L24.5894 26.587C25.3688 27.3677 25.3688 28.6323 24.5894 29.413L17.6011 36.413C17.2259 36.7888 16.7167 37 16.1857 37L7 37Z" fill="#CCCCCC"/>
<path d="M14.084 32H12.666V25.1504L10.5742 25.8652V24.6641L13.9023 23.4395H14.084V32Z" fill="white"/>
<path d="M7 135C5.89543 135 5 134.105 5 133L5 119C5 117.895 5.89543 117 7 117L16.1857 117C16.7167 117 17.2259 117.211 17.6011 117.587L24.5894 124.587C25.3688 125.368 25.3688 126.632 24.5894 127.413L17.6011 134.413C17.2259 134.789 16.7167 135 16.1857 135L7 135Z" fill="#CCCCCC"/>
<path d="M15.9648 130H10.2285V129.021L13.0703 125.922C13.4805 125.465 13.7715 125.084 13.9434 124.779C14.1191 124.471 14.207 124.162 14.207 123.854C14.207 123.447 14.0918 123.119 13.8613 122.869C13.6348 122.619 13.3281 122.494 12.9414 122.494C12.4805 122.494 12.123 122.635 11.8691 122.916C11.6152 123.197 11.4883 123.582 11.4883 124.07H10.0645C10.0645 123.551 10.1816 123.084 10.416 122.67C10.6543 122.252 10.9922 121.928 11.4297 121.697C11.8711 121.467 12.3789 121.352 12.9531 121.352C13.7812 121.352 14.4336 121.561 14.9102 121.979C15.3906 122.393 15.6309 122.967 15.6309 123.701C15.6309 124.127 15.5098 124.574 15.2676 125.043C15.0293 125.508 14.6367 126.037 14.0898 126.631L12.0039 128.863H15.9648V130Z" fill="white"/>
<path d="M7 247C5.89543 247 5 246.105 5 245L5 231C5 229.895 5.89543 229 7 229L16.1857 229C16.7167 229 17.2259 229.211 17.6011 229.587L24.5894 236.587C25.3688 237.368 25.3688 238.632 24.5894 239.413L17.6011 246.413C17.2259 246.789 16.7167 247 16.1857 247L7 247Z" fill="#CCCCCC"/>
<path d="M15.0449 238.959H16.1055V240.102H15.0449V242H13.6211V240.102H9.93555L9.89453 239.234L13.5742 233.469H15.0449V238.959ZM11.3887 238.959H13.6211V235.396L13.5156 235.584L11.3887 238.959Z" fill="white"/>
<path d="M7 233C5.89543 233 5 232.105 5 231L5 217C5 215.895 5.89543 215 7 215L16.1857 215C16.7167 215 17.2259 215.211 17.6011 215.587L24.5894 222.587C25.3688 223.368 25.3688 224.632 24.5894 225.413L17.6011 232.413C17.2259 232.789 16.7167 233 16.1857 233L7 233Z" fill="#CCCCCC"/>
<path d="M11.875 223.084H12.7422C13.1797 223.08 13.5254 222.967 13.7793 222.744C14.0371 222.521 14.166 222.199 14.166 221.777C14.166 221.371 14.0586 221.057 13.8438 220.834C13.6328 220.607 13.3086 220.494 12.8711 220.494C12.4883 220.494 12.1738 220.605 11.9277 220.828C11.6816 221.047 11.5586 221.334 11.5586 221.689H10.1348C10.1348 221.252 10.25 220.854 10.4805 220.494C10.7148 220.135 11.0391 219.855 11.4531 219.656C11.8711 219.453 12.3379 219.352 12.8535 219.352C13.7051 219.352 14.373 219.566 14.8574 219.996C15.3457 220.422 15.5898 221.016 15.5898 221.777C15.5898 222.16 15.4668 222.521 15.2207 222.861C14.9785 223.197 14.6641 223.451 14.2773 223.623C14.7461 223.783 15.1016 224.035 15.3438 224.379C15.5898 224.723 15.7129 225.133 15.7129 225.609C15.7129 226.375 15.4492 226.984 14.9219 227.438C14.3984 227.891 13.709 228.117 12.8535 228.117C12.0332 228.117 11.3613 227.898 10.8379 227.461C10.3145 227.023 10.0527 226.441 10.0527 225.715H11.4766C11.4766 226.09 11.6016 226.395 11.8516 226.629C12.1055 226.863 12.4453 226.98 12.8711 226.98C13.3125 226.98 13.6602 226.863 13.9141 226.629C14.168 226.395 14.2949 226.055 14.2949 225.609C14.2949 225.16 14.1621 224.814 13.8965 224.572C13.6309 224.33 13.2363 224.209 12.7129 224.209H11.875V223.084Z" fill="white"/>
<path d="M7 283C5.89543 283 5 282.105 5 281L5 267C5 265.895 5.89543 265 7 265L16.1857 265C16.7167 265 17.2259 265.211 17.6011 265.587L24.5894 272.587C25.3688 273.368 25.3688 274.632 24.5894 275.413L17.6011 282.413C17.2259 282.789 16.7167 283 16.1857 283L7 283Z" fill="#CCCCCC"/>
<path d="M10.6094 273.77L11.0723 269.469H15.6543V270.699H12.2559L12.0215 272.738C12.416 272.512 12.8613 272.398 13.3574 272.398C14.1699 272.398 14.8008 272.658 15.25 273.178C15.7031 273.697 15.9297 274.396 15.9297 275.275C15.9297 276.143 15.6797 276.834 15.1797 277.35C14.6797 277.861 13.9941 278.117 13.123 278.117C12.3418 278.117 11.6934 277.896 11.1777 277.455C10.666 277.01 10.3887 276.424 10.3457 275.697H11.7227C11.7773 276.111 11.9258 276.43 12.168 276.652C12.4102 276.871 12.7266 276.98 13.1172 276.98C13.5547 276.98 13.8945 276.824 14.1367 276.512C14.3828 276.199 14.5059 275.773 14.5059 275.234C14.5059 274.715 14.3711 274.305 14.1016 274.004C13.832 273.699 13.4609 273.547 12.9883 273.547C12.7305 273.547 12.5117 273.582 12.332 273.652C12.1523 273.719 11.957 273.852 11.7461 274.051L10.6094 273.77Z" fill="white"/>
<path d="M549.5 28L549.5 303" stroke="#AAAAAA" stroke-dasharray="3 2"/>
<path d="M556.5 28L556.5 303" stroke="#AAAAAA" stroke-dasharray="3 2"/>
<path d="M613.5 28L613.5 303" stroke="#AAAAAA" stroke-dasharray="3 2"/>
<path d="M825 28.5L550 28.5" stroke="#AAAAAA" stroke-dasharray="3 2"/>
<path d="M28 230.5L639 230.5" stroke="#AAAAAA" stroke-dasharray="3 2"/>
<path d="M28 223.5L639 223.5" stroke="#AAAAAA" stroke-dasharray="3 2"/>
<path d="M28 237.5L639 237.5" stroke="#AAAAAA" stroke-dasharray="3 2"/>
<path d="M28 230.5L639 230.5" stroke="#AAAAAA" stroke-dasharray="3 2"/>
<path d="M28 273.5L639 273.5" stroke="#AAAAAA" stroke-dasharray="3 2"/>
<rect x="28.5" y="28.5" width="521" height="195" fill="white"/>
<path d="M559 36C559 33.2386 561.239 31 564 31H606C608.761 31 611 33.2386 611 36V115C611 117.761 608.761 120 606 120H564C561.239 120 559 117.761 559 115V36Z" fill="#1E73FF"/>
<path d="M566.604 79.8867H564.825V71.9619H566.604V79.8867ZM564.715 69.9038C564.715 69.6304 564.8 69.4033 564.971 69.2227C565.147 69.042 565.396 68.9517 565.718 68.9517C566.041 68.9517 566.29 69.042 566.465 69.2227C566.641 69.4033 566.729 69.6304 566.729 69.9038C566.729 70.1724 566.641 70.397 566.465 70.5776C566.29 70.7534 566.041 70.8413 565.718 70.8413C565.396 70.8413 565.147 70.7534 564.971 70.5776C564.8 70.397 564.715 70.1724 564.715 69.9038ZM570.779 70.0356V71.9619H572.178V73.2803H570.779V77.7041C570.779 78.0068 570.838 78.2266 570.955 78.3633C571.077 78.4951 571.292 78.561 571.6 78.561C571.805 78.561 572.012 78.5366 572.222 78.4878V79.8647C571.817 79.9771 571.426 80.0332 571.05 80.0332C569.683 80.0332 569 79.2788 569 77.77V73.2803H567.696V71.9619H569V70.0356H570.779ZM577.034 80.0332C575.906 80.0332 574.991 79.6792 574.288 78.9712C573.589 78.2583 573.24 77.311 573.24 76.1294V75.9097C573.24 75.1187 573.392 74.4131 573.694 73.793C574.002 73.168 574.432 72.6821 574.983 72.3354C575.535 71.9888 576.15 71.8154 576.829 71.8154C577.908 71.8154 578.741 72.1597 579.327 72.8481C579.917 73.5366 580.213 74.5107 580.213 75.7705V76.4883H575.035C575.088 77.1426 575.306 77.6602 575.687 78.041C576.072 78.4219 576.556 78.6123 577.137 78.6123C577.952 78.6123 578.616 78.2827 579.129 77.6235L580.088 78.5391C579.771 79.0127 579.346 79.3813 578.814 79.645C578.287 79.9038 577.693 80.0332 577.034 80.0332ZM576.822 73.2437C576.333 73.2437 575.938 73.4146 575.635 73.7563C575.337 74.0981 575.147 74.5742 575.064 75.1846H578.455V75.0527C578.416 74.457 578.257 74.0078 577.979 73.7051C577.701 73.3975 577.315 73.2437 576.822 73.2437ZM583.274 71.9619L583.326 72.7896C583.882 72.1401 584.644 71.8154 585.611 71.8154C586.67 71.8154 587.396 72.2207 587.786 73.0312C588.362 72.2207 589.173 71.8154 590.218 71.8154C591.092 71.8154 591.741 72.0571 592.166 72.5405C592.596 73.0239 592.815 73.7368 592.825 74.6792V79.8867H591.045V74.7305C591.045 74.2275 590.936 73.8589 590.716 73.6245C590.496 73.3901 590.132 73.2729 589.625 73.2729C589.219 73.2729 588.887 73.3828 588.628 73.6025C588.375 73.8174 588.196 74.1006 588.094 74.4521L588.101 79.8867H586.321V74.6719C586.297 73.7393 585.821 73.2729 584.893 73.2729C584.18 73.2729 583.675 73.5635 583.377 74.1445V79.8867H581.597V71.9619H583.274ZM603.094 79.8867H601.321V71.3247L598.707 72.2183V70.7168L602.867 69.186H603.094V79.8867Z" fill="white"/>
<path d="M153.5 29L153.5 304" stroke="#AAAAAA" stroke-dasharray="3 2"/>
<path d="M160.5 29L160.5 304" stroke="#AAAAAA" stroke-dasharray="3 2"/>
<path d="M285.5 29L285.5 304" stroke="#AAAAAA" stroke-dasharray="3 2"/>
<path d="M292.5 29L292.5 304" stroke="#AAAAAA" stroke-dasharray="3 2"/>
<path d="M417.5 29L417.5 304" stroke="#AAAAAA" stroke-dasharray="3 2"/>
<path d="M424.5 29L424.5 304" stroke="#AAAAAA" stroke-dasharray="3 2"/>
<path d="M29 129.5L639 129.5" stroke="#AAAAAA" stroke-dasharray="3 2"/>
<path d="M29 122.5L639 122.5" stroke="#AAAAAA" stroke-dasharray="3 2"/>
<rect x="28.5" y="28.5" width="521" height="195" stroke="#666666"/>
<path d="M28.5 374L28.5 224" stroke="#AAAAAA" stroke-dasharray="3 2"/>
<path d="M31 245C31 242.239 33.2386 240 36 240H146C148.761 240 151 242.239 151 245V266C151 268.761 148.761 271 146 271H36C33.2386 271 31 268.761 31 266V245Z" fill="#1E73FF"/>
<path d="M73.2041 259.713H71.4243V251.789H73.2041V259.713ZM71.3145 249.73C71.3145 249.457 71.3999 249.23 71.5708 249.049C71.7466 248.869 71.9956 248.778 72.3179 248.778C72.6401 248.778 72.8892 248.869 73.0649 249.049C73.2407 249.23 73.3286 249.457 73.3286 249.73C73.3286 249.999 73.2407 250.224 73.0649 250.404C72.8892 250.58 72.6401 250.668 72.3179 250.668C71.9956 250.668 71.7466 250.58 71.5708 250.404C71.3999 250.224 71.3145 249.999 71.3145 249.73ZM77.3789 249.862V251.789H78.7778V253.107H77.3789V257.531C77.3789 257.833 77.4375 258.053 77.5547 258.19C77.6768 258.322 77.8916 258.388 78.1992 258.388C78.4043 258.388 78.6118 258.363 78.8218 258.314V259.691C78.4165 259.804 78.0259 259.86 77.6499 259.86C76.2827 259.86 75.5991 259.105 75.5991 257.597V253.107H74.2954V251.789H75.5991V249.862H77.3789ZM83.6338 259.86C82.5059 259.86 81.5903 259.506 80.8872 258.798C80.189 258.085 79.8398 257.138 79.8398 255.956V255.736C79.8398 254.945 79.9912 254.24 80.2939 253.62C80.6016 252.995 81.0312 252.509 81.583 252.162C82.1348 251.815 82.75 251.642 83.4287 251.642C84.5078 251.642 85.3403 251.986 85.9263 252.675C86.5171 253.363 86.8125 254.337 86.8125 255.597V256.315H81.6343C81.688 256.969 81.9053 257.487 82.2861 257.868C82.6719 258.249 83.1553 258.439 83.7363 258.439C84.5518 258.439 85.2158 258.109 85.7285 257.45L86.688 258.366C86.3706 258.839 85.9458 259.208 85.4136 259.472C84.8862 259.73 84.293 259.86 83.6338 259.86ZM83.4214 253.07C82.9331 253.07 82.5376 253.241 82.2349 253.583C81.937 253.925 81.7466 254.401 81.6636 255.011H85.0547V254.879C85.0156 254.284 84.8569 253.834 84.5786 253.532C84.3003 253.224 83.9146 253.07 83.4214 253.07ZM89.874 251.789L89.9253 252.616C90.4819 251.967 91.2437 251.642 92.2104 251.642C93.27 251.642 93.9951 252.047 94.3857 252.858C94.9619 252.047 95.7725 251.642 96.8174 251.642C97.6914 251.642 98.3408 251.884 98.7656 252.367C99.1953 252.851 99.415 253.563 99.4248 254.506V259.713H97.645V254.557C97.645 254.054 97.5352 253.686 97.3154 253.451C97.0957 253.217 96.7319 253.1 96.2241 253.1C95.8188 253.1 95.4868 253.209 95.228 253.429C94.9741 253.644 94.7959 253.927 94.6934 254.279L94.7007 259.713H92.9209V254.499C92.8965 253.566 92.4204 253.1 91.4927 253.1C90.7798 253.1 90.2744 253.39 89.9766 253.971V259.713H88.1968V251.789H89.874ZM109.693 259.713H107.921V251.151L105.306 252.045V250.543L109.466 249.013H109.693V259.713Z" fill="white"/>
</g>
<defs>
<clipPath id="clip0">
<rect width="635" height="294" fill="white"/>
</clipPath>
</defs>
</svg>
