<svg width="177" height="221" viewBox="0 0 177 221" fill="none" xmlns="http://www.w3.org/2000/svg">
<rect x="46.5" y="30.5" width="130" height="190" fill="white"/>
<path d="M111.5 31L111.5 220" stroke="#BBBBBB" stroke-dasharray="3 2"/>
<path d="M47 125.5L176 125.5" stroke="#BBBBBB" stroke-dasharray="3 2"/>
<rect x="46.5" y="30.5" width="130" height="190" stroke="#666666"/>
<path d="M46.5 26V18.5H111.5V26" stroke="#1E73FF" stroke-dasharray="3 2"/>
<path d="M70.4907 2.71338V3.98926H70.3003C69.437 4.00195 68.7472 4.23893 68.231 4.7002C67.7147 5.16146 67.4079 5.81527 67.3105 6.66162C67.8057 6.14111 68.4383 5.88086 69.2085 5.88086C70.0252 5.88086 70.6685 6.16862 71.1382 6.74414C71.6121 7.31966 71.8491 8.06234 71.8491 8.97217C71.8491 9.91162 71.5719 10.6733 71.0176 11.2573C70.4674 11.8371 69.7438 12.127 68.8467 12.127C67.9242 12.127 67.1751 11.7863 66.5996 11.105C66.0283 10.4237 65.7427 9.53076 65.7427 8.42627V7.89941C65.7427 6.27865 66.1362 5.00911 66.9233 4.09082C67.7147 3.17253 68.8509 2.71338 70.332 2.71338H70.4907ZM68.834 7.125C68.4954 7.125 68.1844 7.22021 67.9009 7.41064C67.6216 7.60107 67.4163 7.85498 67.2852 8.17236V8.64209C67.2852 9.32764 67.429 9.87354 67.7168 10.2798C68.0046 10.6818 68.377 10.8828 68.834 10.8828C69.291 10.8828 69.6528 10.7114 69.9194 10.3687C70.186 10.0259 70.3193 9.5752 70.3193 9.0166C70.3193 8.45801 70.1839 8.00309 69.9131 7.65186C69.6423 7.30062 69.2826 7.125 68.834 7.125ZM79.1045 8.10889C79.1045 9.43766 78.8548 10.4406 78.3555 11.1177C77.8604 11.7905 77.105 12.127 76.0894 12.127C75.0907 12.127 74.3374 11.799 73.8296 11.1431C73.326 10.4829 73.0679 9.50749 73.0552 8.2168V6.61719C73.0552 5.28841 73.3027 4.29183 73.7979 3.62744C74.2972 2.96305 75.0568 2.63086 76.0767 2.63086C77.0881 2.63086 77.8413 2.95459 78.3364 3.60205C78.8358 4.24951 79.0918 5.21859 79.1045 6.50928V8.10889ZM77.562 6.38232C77.562 5.51481 77.4435 4.88005 77.2065 4.47803C76.9696 4.07178 76.5929 3.86865 76.0767 3.86865C75.5731 3.86865 75.2028 4.0612 74.9658 4.44629C74.7288 4.82715 74.604 5.42383 74.5913 6.23633V8.33105C74.5913 9.19434 74.7119 9.83757 74.9531 10.2607C75.1943 10.6839 75.5731 10.8955 76.0894 10.8955C76.5845 10.8955 76.9505 10.7008 77.1875 10.3115C77.4245 9.91797 77.5493 9.30436 77.562 8.4707V6.38232ZM86.582 8.63574C86.582 9.69792 86.3408 10.5464 85.8584 11.1812C85.376 11.8117 84.7285 12.127 83.916 12.127C83.1628 12.127 82.5597 11.8794 82.1069 11.3843V14.6406H80.5645V5.13184H81.9863L82.0498 5.83008C82.5026 5.27995 83.1183 5.00488 83.897 5.00488C84.7349 5.00488 85.3908 5.31803 85.8647 5.94434C86.3429 6.56641 86.582 7.4318 86.582 8.54053V8.63574ZM85.0459 8.50244C85.0459 7.81689 84.9084 7.27311 84.6333 6.87109C84.3625 6.46908 83.9731 6.26807 83.4653 6.26807C82.8348 6.26807 82.382 6.52832 82.1069 7.04883V10.0957C82.3862 10.6289 82.8433 10.8955 83.478 10.8955C83.9689 10.8955 84.3519 10.6987 84.627 10.3052C84.9062 9.90739 85.0459 9.30648 85.0459 8.50244ZM90.2573 7.3916L91.5649 5.13184H93.2788L91.1777 8.51514L93.3486 12H91.6475L90.2764 9.65137L88.9116 12H87.1978L89.3687 8.51514L87.2739 5.13184H88.9751L90.2573 7.3916Z" fill="#1E73FF"/>
<path d="M34.5 125.5L34.5 30.5L42 30.5" stroke="#1E73FF" stroke-dasharray="3 2"/>
<path d="M42 220.5L34.5 220.5L34.5 125.5L42 125.5" stroke="#1E73FF" stroke-dasharray="3 2"/>
<path d="M111.5 18.5H176.5V26" stroke="#1E73FF" stroke-dasharray="3 2"/>
<path d="M135.491 2.71338V3.98926H135.3C134.437 4.00195 133.747 4.23893 133.231 4.7002C132.715 5.16146 132.408 5.81527 132.311 6.66162C132.806 6.14111 133.438 5.88086 134.208 5.88086C135.025 5.88086 135.668 6.16862 136.138 6.74414C136.612 7.31966 136.849 8.06234 136.849 8.97217C136.849 9.91162 136.572 10.6733 136.018 11.2573C135.467 11.8371 134.744 12.127 133.847 12.127C132.924 12.127 132.175 11.7863 131.6 11.105C131.028 10.4237 130.743 9.53076 130.743 8.42627V7.89941C130.743 6.27865 131.136 5.00911 131.923 4.09082C132.715 3.17253 133.851 2.71338 135.332 2.71338H135.491ZM133.834 7.125C133.495 7.125 133.184 7.22021 132.901 7.41064C132.622 7.60107 132.416 7.85498 132.285 8.17236V8.64209C132.285 9.32764 132.429 9.87354 132.717 10.2798C133.005 10.6818 133.377 10.8828 133.834 10.8828C134.291 10.8828 134.653 10.7114 134.919 10.3687C135.186 10.0259 135.319 9.5752 135.319 9.0166C135.319 8.45801 135.184 8.00309 134.913 7.65186C134.642 7.30062 134.283 7.125 133.834 7.125ZM144.104 8.10889C144.104 9.43766 143.855 10.4406 143.355 11.1177C142.86 11.7905 142.105 12.127 141.089 12.127C140.091 12.127 139.337 11.799 138.83 11.1431C138.326 10.4829 138.068 9.50749 138.055 8.2168V6.61719C138.055 5.28841 138.303 4.29183 138.798 3.62744C139.297 2.96305 140.057 2.63086 141.077 2.63086C142.088 2.63086 142.841 2.95459 143.336 3.60205C143.836 4.24951 144.092 5.21859 144.104 6.50928V8.10889ZM142.562 6.38232C142.562 5.51481 142.444 4.88005 142.207 4.47803C141.97 4.07178 141.593 3.86865 141.077 3.86865C140.573 3.86865 140.203 4.0612 139.966 4.44629C139.729 4.82715 139.604 5.42383 139.591 6.23633V8.33105C139.591 9.19434 139.712 9.83757 139.953 10.2607C140.194 10.6839 140.573 10.8955 141.089 10.8955C141.584 10.8955 141.951 10.7008 142.188 10.3115C142.424 9.91797 142.549 9.30436 142.562 8.4707V6.38232ZM151.582 8.63574C151.582 9.69792 151.341 10.5464 150.858 11.1812C150.376 11.8117 149.729 12.127 148.916 12.127C148.163 12.127 147.56 11.8794 147.107 11.3843V14.6406H145.564V5.13184H146.986L147.05 5.83008C147.503 5.27995 148.118 5.00488 148.897 5.00488C149.735 5.00488 150.391 5.31803 150.865 5.94434C151.343 6.56641 151.582 7.4318 151.582 8.54053V8.63574ZM150.046 8.50244C150.046 7.81689 149.908 7.27311 149.633 6.87109C149.362 6.46908 148.973 6.26807 148.465 6.26807C147.835 6.26807 147.382 6.52832 147.107 7.04883V10.0957C147.386 10.6289 147.843 10.8955 148.478 10.8955C148.969 10.8955 149.352 10.6987 149.627 10.3052C149.906 9.90739 150.046 9.30648 150.046 8.50244ZM155.257 7.3916L156.565 5.13184H158.279L156.178 8.51514L158.349 12H156.647L155.276 9.65137L153.912 12H152.198L154.369 8.51514L152.274 5.13184H153.975L155.257 7.3916Z" fill="#1E73FF"/>
<path d="M5.52637 174.134C5.01009 174.68 4.40706 174.953 3.71729 174.953C2.90479 174.953 2.25732 174.67 1.7749 174.103C1.29248 173.531 1.05127 172.782 1.05127 171.855C1.05127 171.246 1.17399 170.694 1.41943 170.199C1.66488 169.704 2.014 169.319 2.4668 169.043C2.9196 168.768 3.44434 168.631 4.04102 168.631C4.97201 168.631 5.71045 168.978 6.25635 169.672C6.80225 170.366 7.0752 171.295 7.0752 172.458V172.89C7.0752 174.557 6.69857 175.829 5.94531 176.705C5.19206 177.581 4.06852 178.025 2.57471 178.038H2.39062V176.762H2.61279C3.52262 176.75 4.22087 176.532 4.70752 176.108C5.19417 175.681 5.46712 175.023 5.52637 174.134ZM4.04102 173.747C4.34993 173.747 4.63981 173.658 4.91064 173.48C5.18148 173.303 5.39095 173.057 5.53906 172.744V172.141C5.53906 171.46 5.39941 170.912 5.12012 170.497C4.84082 170.082 4.479 169.875 4.03467 169.875C3.59033 169.875 3.23486 170.059 2.96826 170.427C2.70589 170.791 2.57471 171.252 2.57471 171.811C2.57471 172.391 2.70801 172.858 2.97461 173.214C3.24121 173.569 3.59668 173.747 4.04102 173.747ZM14.5654 174.109C14.5654 175.438 14.3158 176.441 13.8164 177.118C13.3213 177.791 12.5659 178.127 11.5503 178.127C10.5516 178.127 9.79834 177.799 9.29053 177.143C8.78695 176.483 8.52881 175.507 8.51611 174.217V172.617C8.51611 171.288 8.76367 170.292 9.25879 169.627C9.75814 168.963 10.5177 168.631 11.5376 168.631C12.549 168.631 13.3022 168.955 13.7974 169.602C14.2967 170.25 14.5527 171.219 14.5654 172.509V174.109ZM13.0229 172.382C13.0229 171.515 12.9045 170.88 12.6675 170.478C12.4305 170.072 12.0539 169.869 11.5376 169.869C11.034 169.869 10.6637 170.061 10.4268 170.446C10.1898 170.827 10.0649 171.424 10.0522 172.236V174.331C10.0522 175.194 10.1729 175.838 10.4141 176.261C10.6553 176.684 11.034 176.896 11.5503 176.896C12.0454 176.896 12.4115 176.701 12.6484 176.312C12.8854 175.918 13.0103 175.304 13.0229 174.471V172.382ZM22.043 174.636C22.043 175.698 21.8018 176.546 21.3193 177.181C20.8369 177.812 20.1895 178.127 19.377 178.127C18.6237 178.127 18.0207 177.879 17.5679 177.384V180.641H16.0254V171.132H17.4473L17.5107 171.83C17.9635 171.28 18.5793 171.005 19.3579 171.005C20.1958 171.005 20.8517 171.318 21.3257 171.944C21.8039 172.566 22.043 173.432 22.043 174.541V174.636ZM20.5068 174.502C20.5068 173.817 20.3693 173.273 20.0942 172.871C19.8234 172.469 19.4341 172.268 18.9263 172.268C18.2957 172.268 17.8429 172.528 17.5679 173.049V176.096C17.8472 176.629 18.3042 176.896 18.939 176.896C19.4299 176.896 19.8128 176.699 20.0879 176.305C20.3672 175.907 20.5068 175.306 20.5068 174.502ZM25.7183 173.392L27.0259 171.132H28.7397L26.6387 174.515L28.8096 178H27.1084L25.7373 175.651L24.3726 178H22.6587L24.8296 174.515L22.7349 171.132H24.436L25.7183 173.392Z" fill="#1E73FF"/>
<path d="M5.52637 78.1343C5.01009 78.6802 4.40706 78.9531 3.71729 78.9531C2.90479 78.9531 2.25732 78.6696 1.7749 78.1025C1.29248 77.5312 1.05127 76.7822 1.05127 75.8555C1.05127 75.2461 1.17399 74.6938 1.41943 74.1987C1.66488 73.7036 2.014 73.3185 2.4668 73.0435C2.9196 72.7684 3.44434 72.6309 4.04102 72.6309C4.97201 72.6309 5.71045 72.9779 6.25635 73.6719C6.80225 74.3659 7.0752 75.2948 7.0752 76.4585V76.8901C7.0752 78.5575 6.69857 79.8291 5.94531 80.7051C5.19206 81.5811 4.06852 82.0254 2.57471 82.0381H2.39062V80.7622H2.61279C3.52262 80.7495 4.22087 80.5316 4.70752 80.1084C5.19417 79.681 5.46712 79.0229 5.52637 78.1343ZM4.04102 77.7471C4.34993 77.7471 4.63981 77.6582 4.91064 77.4805C5.18148 77.3027 5.39095 77.0573 5.53906 76.7441V76.1411C5.53906 75.4598 5.39941 74.9118 5.12012 74.4971C4.84082 74.0824 4.479 73.875 4.03467 73.875C3.59033 73.875 3.23486 74.0591 2.96826 74.4272C2.70589 74.7912 2.57471 75.2524 2.57471 75.811C2.57471 76.3908 2.70801 76.8584 2.97461 77.2139C3.24121 77.5693 3.59668 77.7471 4.04102 77.7471ZM14.5654 78.1089C14.5654 79.4377 14.3158 80.4406 13.8164 81.1177C13.3213 81.7905 12.5659 82.127 11.5503 82.127C10.5516 82.127 9.79834 81.799 9.29053 81.1431C8.78695 80.4829 8.52881 79.5075 8.51611 78.2168V76.6172C8.51611 75.2884 8.76367 74.2918 9.25879 73.6274C9.75814 72.9631 10.5177 72.6309 11.5376 72.6309C12.549 72.6309 13.3022 72.9546 13.7974 73.6021C14.2967 74.2495 14.5527 75.2186 14.5654 76.5093V78.1089ZM13.0229 76.3823C13.0229 75.5148 12.9045 74.88 12.6675 74.478C12.4305 74.0718 12.0539 73.8687 11.5376 73.8687C11.034 73.8687 10.6637 74.0612 10.4268 74.4463C10.1898 74.8271 10.0649 75.4238 10.0522 76.2363V78.3311C10.0522 79.1943 10.1729 79.8376 10.4141 80.2607C10.6553 80.6839 11.034 80.8955 11.5503 80.8955C12.0454 80.8955 12.4115 80.7008 12.6484 80.3115C12.8854 79.918 13.0103 79.3044 13.0229 78.4707V76.3823ZM22.043 78.6357C22.043 79.6979 21.8018 80.5464 21.3193 81.1812C20.8369 81.8117 20.1895 82.127 19.377 82.127C18.6237 82.127 18.0207 81.8794 17.5679 81.3843V84.6406H16.0254V75.1318H17.4473L17.5107 75.8301C17.9635 75.2799 18.5793 75.0049 19.3579 75.0049C20.1958 75.0049 20.8517 75.318 21.3257 75.9443C21.8039 76.5664 22.043 77.4318 22.043 78.5405V78.6357ZM20.5068 78.5024C20.5068 77.8169 20.3693 77.2731 20.0942 76.8711C19.8234 76.4691 19.4341 76.2681 18.9263 76.2681C18.2957 76.2681 17.8429 76.5283 17.5679 77.0488V80.0957C17.8472 80.6289 18.3042 80.8955 18.939 80.8955C19.4299 80.8955 19.8128 80.6987 20.0879 80.3052C20.3672 79.9074 20.5068 79.3065 20.5068 78.5024ZM25.7183 77.3916L27.0259 75.1318H28.7397L26.6387 78.5151L28.8096 82H27.1084L25.7373 79.6514L24.3726 82H22.6587L24.8296 78.5151L22.7349 75.1318H24.436L25.7183 77.3916Z" fill="#1E73FF"/>
</svg>
