<svg width="700" height="280" viewBox="0 0 700 280" fill="none" xmlns="http://www.w3.org/2000/svg">
<path d="M106.78 11.4429C106.78 10.0483 107.106 8.93604 107.759 8.10596C108.418 7.27035 109.289 6.85254 110.374 6.85254C111.398 6.85254 112.203 7.20947 112.79 7.92334L112.881 7.01855H114.699V15.7261C114.699 16.9048 114.331 17.8345 113.595 18.5151C112.864 19.1958 111.876 19.5361 110.631 19.5361C109.973 19.5361 109.328 19.3978 108.697 19.1211C108.072 18.8499 107.596 18.493 107.27 18.0503L108.224 16.8384C108.844 17.5744 109.608 17.9424 110.515 17.9424C111.185 17.9424 111.713 17.7598 112.101 17.3945C112.488 17.0348 112.682 16.5036 112.682 15.8008V15.1948C112.101 15.8423 111.326 16.166 110.357 16.166C109.306 16.166 108.445 15.7482 107.776 14.9126C107.112 14.077 106.78 12.9204 106.78 11.4429ZM108.789 11.6172C108.789 12.5192 108.971 13.2303 109.336 13.7505C109.707 14.2651 110.219 14.5225 110.872 14.5225C111.686 14.5225 112.289 14.1738 112.682 13.4766V9.52539C112.3 8.84473 111.702 8.50439 110.889 8.50439C110.225 8.50439 109.707 8.76725 109.336 9.29297C108.971 9.81868 108.789 10.5934 108.789 11.6172ZM120.98 8.86133C120.715 8.81706 120.441 8.79492 120.159 8.79492C119.235 8.79492 118.612 9.14909 118.291 9.85742V16H116.274V7.01855H118.2L118.25 8.02295C118.736 7.24268 119.412 6.85254 120.275 6.85254C120.563 6.85254 120.801 6.89128 120.989 6.96875L120.98 8.86133ZM123.9 16H121.883V7.01855H123.9V16ZM121.759 4.68604C121.759 4.37614 121.856 4.11882 122.049 3.91406C122.249 3.70931 122.531 3.60693 122.896 3.60693C123.261 3.60693 123.543 3.70931 123.743 3.91406C123.942 4.11882 124.042 4.37614 124.042 4.68604C124.042 4.9904 123.942 5.24495 123.743 5.44971C123.543 5.64893 123.261 5.74854 122.896 5.74854C122.531 5.74854 122.249 5.64893 122.049 5.44971C121.856 5.24495 121.759 4.9904 121.759 4.68604ZM125.227 11.4429C125.227 10.0594 125.548 8.94987 126.189 8.11426C126.831 7.27311 127.692 6.85254 128.771 6.85254C129.723 6.85254 130.492 7.18457 131.079 7.84863V3.25H133.096V16H131.27L131.17 15.0703C130.567 15.8008 129.762 16.166 128.754 16.166C127.703 16.166 126.851 15.7427 126.198 14.896C125.55 14.0493 125.227 12.8983 125.227 11.4429ZM127.244 11.6172C127.244 12.5303 127.418 13.2441 127.767 13.7588C128.121 14.2679 128.622 14.5225 129.269 14.5225C130.094 14.5225 130.697 14.1545 131.079 13.4185V9.5835C130.708 8.8641 130.11 8.50439 129.286 8.50439C128.633 8.50439 128.129 8.76449 127.775 9.28467C127.421 9.79932 127.244 10.5768 127.244 11.6172ZM138.614 11.6753H134.256V10.0483H138.614V11.6753ZM142.306 4.83545V7.01855H143.891V8.5127H142.306V13.5264C142.306 13.8695 142.372 14.1185 142.505 14.2734C142.643 14.4229 142.887 14.4976 143.235 14.4976C143.468 14.4976 143.703 14.4699 143.941 14.4146V15.9751C143.482 16.1024 143.039 16.166 142.613 16.166C141.063 16.166 140.289 15.311 140.289 13.6011V8.5127H138.811V7.01855H140.289V4.83545H142.306ZM148.895 16.166C147.616 16.166 146.579 15.7648 145.782 14.9624C144.99 14.1545 144.595 13.0809 144.595 11.7417V11.4927C144.595 10.5962 144.766 9.79655 145.109 9.09375C145.458 8.38542 145.945 7.8348 146.57 7.44189C147.196 7.04899 147.893 6.85254 148.662 6.85254C149.885 6.85254 150.829 7.24268 151.493 8.02295C152.162 8.80322 152.497 9.90723 152.497 11.335V12.1484H146.628C146.689 12.89 146.936 13.4766 147.367 13.9082C147.804 14.3398 148.352 14.5557 149.011 14.5557C149.935 14.5557 150.688 14.1821 151.269 13.4351L152.356 14.4727C151.996 15.0094 151.515 15.4272 150.912 15.7261C150.314 16.0194 149.642 16.166 148.895 16.166ZM148.654 8.47119C148.1 8.47119 147.652 8.66488 147.309 9.05225C146.972 9.43962 146.756 9.97917 146.662 10.6709H150.505V10.5215C150.461 9.84635 150.281 9.33724 149.965 8.99414C149.65 8.64551 149.213 8.47119 148.654 8.47119ZM155.467 7.01855L155.525 7.95654C156.156 7.22054 157.019 6.85254 158.115 6.85254C159.316 6.85254 160.137 7.31185 160.58 8.23047C161.233 7.31185 162.152 6.85254 163.336 6.85254C164.326 6.85254 165.062 7.12646 165.544 7.67432C166.031 8.22217 166.28 9.03011 166.291 10.0981V16H164.274V10.1562C164.274 9.58626 164.149 9.16846 163.9 8.90283C163.651 8.63721 163.239 8.50439 162.664 8.50439C162.204 8.50439 161.828 8.62891 161.535 8.87793C161.247 9.12142 161.045 9.44238 160.929 9.84082L160.937 16H158.92V10.0898C158.892 9.03288 158.353 8.50439 157.301 8.50439C156.493 8.50439 155.921 8.83366 155.583 9.49219V16H153.566V7.01855H155.467ZM175.727 11.6006C175.727 12.9896 175.412 14.0991 174.781 14.9292C174.15 15.7537 173.303 16.166 172.241 16.166C171.256 16.166 170.467 15.8423 169.875 15.1948V19.4531H167.858V7.01855H169.717L169.8 7.93164C170.392 7.21224 171.198 6.85254 172.216 6.85254C173.312 6.85254 174.169 7.26204 174.789 8.08105C175.414 8.89453 175.727 10.0262 175.727 11.4761V11.6006ZM173.718 11.4263C173.718 10.5298 173.538 9.81868 173.179 9.29297C172.825 8.76725 172.315 8.50439 171.651 8.50439C170.827 8.50439 170.235 8.84473 169.875 9.52539V13.5098C170.24 14.207 170.838 14.5557 171.668 14.5557C172.31 14.5557 172.811 14.2983 173.17 13.7837C173.536 13.2635 173.718 12.4777 173.718 11.4263ZM179.087 16H177.07V3.25H179.087V16ZM186.157 16C186.069 15.8285 185.991 15.549 185.925 15.1616C185.283 15.8312 184.497 16.166 183.567 16.166C182.665 16.166 181.929 15.9087 181.359 15.394C180.789 14.8794 180.504 14.243 180.504 13.4849C180.504 12.5275 180.859 11.7943 181.567 11.2852C182.281 10.7705 183.299 10.5132 184.622 10.5132H185.858V9.92383C185.858 9.45898 185.728 9.08822 185.468 8.81152C185.208 8.5293 184.812 8.38818 184.281 8.38818C183.822 8.38818 183.446 8.50439 183.152 8.73682C182.859 8.9637 182.712 9.25423 182.712 9.6084H180.695C180.695 9.11589 180.859 8.65658 181.185 8.23047C181.512 7.79883 181.954 7.46126 182.513 7.21777C183.078 6.97428 183.706 6.85254 184.397 6.85254C185.449 6.85254 186.287 7.11816 186.913 7.64941C187.538 8.17513 187.859 8.91667 187.875 9.87402V13.9248C187.875 14.7327 187.989 15.3774 188.216 15.8589V16H186.157ZM183.941 14.5474C184.339 14.5474 184.713 14.4505 185.062 14.2568C185.416 14.0632 185.681 13.8031 185.858 13.4766V11.7832H184.771C184.024 11.7832 183.462 11.9132 183.086 12.1733C182.71 12.4334 182.521 12.8014 182.521 13.2773C182.521 13.6647 182.649 13.9746 182.903 14.207C183.163 14.4339 183.509 14.5474 183.941 14.5474ZM192.016 4.83545V7.01855H193.601V8.5127H192.016V13.5264C192.016 13.8695 192.082 14.1185 192.215 14.2734C192.353 14.4229 192.597 14.4976 192.945 14.4976C193.178 14.4976 193.413 14.4699 193.651 14.4146V15.9751C193.192 16.1024 192.749 16.166 192.323 16.166C190.773 16.166 189.999 15.311 189.999 13.6011V8.5127H188.521V7.01855H189.999V4.83545H192.016ZM198.604 16.166C197.326 16.166 196.289 15.7648 195.492 14.9624C194.7 14.1545 194.305 13.0809 194.305 11.7417V11.4927C194.305 10.5962 194.476 9.79655 194.819 9.09375C195.168 8.38542 195.655 7.8348 196.28 7.44189C196.906 7.04899 197.603 6.85254 198.372 6.85254C199.595 6.85254 200.539 7.24268 201.203 8.02295C201.872 8.80322 202.207 9.90723 202.207 11.335V12.1484H196.338C196.399 12.89 196.646 13.4766 197.077 13.9082C197.514 14.3398 198.062 14.5557 198.721 14.5557C199.645 14.5557 200.397 14.1821 200.979 13.4351L202.066 14.4727C201.706 15.0094 201.225 15.4272 200.622 15.7261C200.024 16.0194 199.352 16.166 198.604 16.166ZM198.364 8.47119C197.81 8.47119 197.362 8.66488 197.019 9.05225C196.681 9.43962 196.466 9.97917 196.372 10.6709H200.215V10.5215C200.171 9.84635 199.991 9.33724 199.675 8.99414C199.36 8.64551 198.923 8.47119 198.364 8.47119ZM207.194 11.6753H202.836V10.0483H207.194V11.6753ZM212.048 14.5557C212.551 14.5557 212.969 14.409 213.301 14.1157C213.633 13.8224 213.81 13.46 213.833 13.0283H215.733C215.711 13.5872 215.537 14.1102 215.21 14.5972C214.884 15.0786 214.441 15.4604 213.882 15.7427C213.323 16.0249 212.72 16.166 212.073 16.166C210.817 16.166 209.82 15.7593 209.084 14.9458C208.348 14.1323 207.98 13.009 207.98 11.5757V11.3682C207.98 10.0013 208.346 8.90837 209.076 8.08936C209.807 7.26481 210.803 6.85254 212.064 6.85254C213.132 6.85254 214.001 7.1652 214.671 7.79053C215.346 8.41032 215.7 9.22656 215.733 10.2393H213.833C213.81 9.72461 213.633 9.30127 213.301 8.96924C212.975 8.63721 212.557 8.47119 212.048 8.47119C211.395 8.47119 210.891 8.70915 210.537 9.18506C210.183 9.65544 210.003 10.3721 209.998 11.335V11.6587C209.998 12.6326 210.172 13.3604 210.521 13.8418C210.875 14.3177 211.384 14.5557 212.048 14.5557ZM216.379 11.4263C216.379 10.5464 216.553 9.75505 216.902 9.05225C217.25 8.34391 217.74 7.8016 218.371 7.42529C219.002 7.04346 219.727 6.85254 220.546 6.85254C221.758 6.85254 222.74 7.24268 223.493 8.02295C224.251 8.80322 224.66 9.83805 224.721 11.1274L224.729 11.6006C224.729 12.486 224.558 13.2773 224.215 13.9746C223.877 14.6719 223.39 15.2114 222.754 15.5933C222.123 15.9751 221.393 16.166 220.562 16.166C219.295 16.166 218.28 15.7454 217.516 14.9043C216.758 14.0576 216.379 12.9315 216.379 11.5259V11.4263ZM218.396 11.6006C218.396 12.5247 218.587 13.2497 218.969 13.7754C219.351 14.2956 219.882 14.5557 220.562 14.5557C221.243 14.5557 221.772 14.29 222.148 13.7588C222.53 13.2275 222.721 12.45 222.721 11.4263C222.721 10.5187 222.524 9.79932 222.131 9.26807C221.744 8.73682 221.215 8.47119 220.546 8.47119C219.887 8.47119 219.364 8.73405 218.977 9.25977C218.59 9.77995 218.396 10.5602 218.396 11.6006ZM228.081 16H226.064V3.25H228.081V16ZM235.226 15.1201C234.634 15.8174 233.793 16.166 232.703 16.166C231.729 16.166 230.99 15.881 230.486 15.311C229.988 14.741 229.739 13.9165 229.739 12.8374V7.01855H231.756V12.8125C231.756 13.9525 232.229 14.5225 233.176 14.5225C234.155 14.5225 234.817 14.1711 235.16 13.4683V7.01855H237.177V16H235.276L235.226 15.1201ZM240.628 7.01855L240.686 7.95654C241.317 7.22054 242.18 6.85254 243.276 6.85254C244.477 6.85254 245.299 7.31185 245.741 8.23047C246.394 7.31185 247.313 6.85254 248.497 6.85254C249.488 6.85254 250.224 7.12646 250.705 7.67432C251.192 8.22217 251.441 9.03011 251.452 10.0981V16H249.435V10.1562C249.435 9.58626 249.311 9.16846 249.062 8.90283C248.812 8.63721 248.4 8.50439 247.825 8.50439C247.365 8.50439 246.989 8.62891 246.696 8.87793C246.408 9.12142 246.206 9.44238 246.09 9.84082L246.098 16H244.081V10.0898C244.053 9.03288 243.514 8.50439 242.462 8.50439C241.654 8.50439 241.082 8.83366 240.744 9.49219V16H238.727V7.01855H240.628ZM254.895 7.01855L254.953 8.05615C255.617 7.25374 256.489 6.85254 257.568 6.85254C259.438 6.85254 260.39 7.92334 260.423 10.0649V16H258.406V10.1812C258.406 9.61117 258.282 9.19059 258.033 8.91943C257.789 8.64274 257.388 8.50439 256.829 8.50439C256.016 8.50439 255.41 8.8724 255.011 9.6084V16H252.994V7.01855H254.895ZM267.021 13.5596C267.021 13.1999 266.871 12.9259 266.572 12.7378C266.279 12.5496 265.789 12.3836 265.103 12.2397C264.417 12.0959 263.844 11.9132 263.385 11.6919C262.378 11.2049 261.874 10.4993 261.874 9.5752C261.874 8.80046 262.201 8.15299 262.854 7.63281C263.507 7.11263 264.337 6.85254 265.344 6.85254C266.417 6.85254 267.283 7.11816 267.942 7.64941C268.606 8.18066 268.938 8.86963 268.938 9.71631H266.921C266.921 9.32894 266.777 9.00798 266.489 8.75342C266.201 8.49333 265.82 8.36328 265.344 8.36328C264.901 8.36328 264.539 8.46566 264.256 8.67041C263.98 8.87516 263.841 9.14909 263.841 9.49219C263.841 9.80208 263.971 10.0428 264.231 10.2144C264.492 10.3859 265.017 10.5602 265.809 10.7373C266.6 10.9089 267.22 11.1164 267.668 11.3599C268.122 11.5978 268.457 11.8856 268.672 12.2231C268.894 12.5607 269.004 12.9702 269.004 13.4517C269.004 14.2596 268.67 14.9154 268 15.4189C267.33 15.917 266.453 16.166 265.369 16.166C264.633 16.166 263.977 16.0332 263.401 15.7676C262.826 15.502 262.378 15.1367 262.057 14.6719C261.736 14.207 261.575 13.7062 261.575 13.1694H263.534C263.562 13.6453 263.742 14.0133 264.074 14.2734C264.406 14.528 264.846 14.6553 265.394 14.6553C265.925 14.6553 266.329 14.5557 266.605 14.3564C266.882 14.1517 267.021 13.8861 267.021 13.5596ZM271.484 13.875C271.861 13.875 272.151 13.9829 272.356 14.1987C272.561 14.409 272.663 14.6746 272.663 14.9956C272.663 15.311 272.561 15.5739 272.356 15.7842C272.151 15.9889 271.861 16.0913 271.484 16.0913C271.125 16.0913 270.84 15.9889 270.629 15.7842C270.419 15.5794 270.314 15.3166 270.314 14.9956C270.314 14.6746 270.416 14.409 270.621 14.1987C270.826 13.9829 271.114 13.875 271.484 13.875ZM271.484 6.82764C271.861 6.82764 272.151 6.93555 272.356 7.15137C272.561 7.36165 272.663 7.62728 272.663 7.94824C272.663 8.26367 272.561 8.52653 272.356 8.73682C272.151 8.94157 271.861 9.04395 271.484 9.04395C271.125 9.04395 270.84 8.94157 270.629 8.73682C270.419 8.53206 270.314 8.26921 270.314 7.94824C270.314 7.62728 270.416 7.36165 270.621 7.15137C270.826 6.93555 271.114 6.82764 271.484 6.82764ZM588.192 6.82764C588.568 6.82764 588.859 6.93555 589.063 7.15137C589.268 7.36165 589.371 7.62728 589.371 7.94824C589.371 8.26367 589.268 8.52653 589.063 8.73682C588.859 8.94157 588.568 9.04395 588.192 9.04395C587.832 9.04395 587.547 8.94157 587.337 8.73682C587.127 8.53206 587.021 8.26921 587.021 7.94824C587.021 7.62728 587.124 7.36165 587.329 7.15137C587.533 6.93555 587.821 6.82764 588.192 6.82764ZM587.586 18.7227L586.499 18.0752C586.819 17.5716 587.038 17.1317 587.154 16.7554C587.276 16.3846 587.34 16.0055 587.345 15.6182V14.0493H589.163L589.155 15.502C589.149 16.0885 589 16.6751 588.707 17.2617C588.419 17.8538 588.045 18.3408 587.586 18.7227Z" fill="#444444"/>
<path d="M281.466 3.64844H280.097V17.1206H281.466V18.6895H278.08V2.07129H281.466V3.64844ZM282.718 16V8.5127H281.348V7.01855H282.718V6.4043C282.723 5.7015 282.873 5.09831 283.166 4.59473C283.459 4.09115 283.874 3.71208 284.411 3.45752C284.948 3.20296 285.593 3.07568 286.345 3.07568C286.788 3.07568 287.211 3.12272 287.615 3.2168C288.025 3.31087 288.448 3.42985 288.885 3.57373L288.578 5.24219C287.814 4.97656 287.117 4.84375 286.486 4.84375C285.872 4.84375 285.427 4.97933 285.15 5.25049C284.873 5.51611 284.735 5.91732 284.735 6.4541V7.01855H286.503V8.5127H284.735V16H282.718ZM289.84 16H287.823V7.01855H289.84V16ZM296.279 8.86133C296.014 8.81706 295.74 8.79492 295.458 8.79492C294.533 8.79492 293.911 9.14909 293.59 9.85742V16H291.573V7.01855H293.499L293.548 8.02295C294.035 7.24268 294.71 6.85254 295.574 6.85254C295.861 6.85254 296.099 6.89128 296.288 6.96875L296.279 8.86133ZM302.088 13.5596C302.088 13.1999 301.938 12.9259 301.64 12.7378C301.346 12.5496 300.857 12.3836 300.17 12.2397C299.484 12.0959 298.911 11.9132 298.452 11.6919C297.445 11.2049 296.941 10.4993 296.941 9.5752C296.941 8.80046 297.268 8.15299 297.921 7.63281C298.574 7.11263 299.404 6.85254 300.411 6.85254C301.485 6.85254 302.351 7.11816 303.009 7.64941C303.673 8.18066 304.005 8.86963 304.005 9.71631H301.988C301.988 9.32894 301.844 9.00798 301.557 8.75342C301.269 8.49333 300.887 8.36328 300.411 8.36328C299.968 8.36328 299.606 8.46566 299.324 8.67041C299.047 8.87516 298.909 9.14909 298.909 9.49219C298.909 9.80208 299.039 10.0428 299.299 10.2144C299.559 10.3859 300.085 10.5602 300.876 10.7373C301.667 10.9089 302.287 11.1164 302.735 11.3599C303.189 11.5978 303.524 11.8856 303.74 12.2231C303.961 12.5607 304.072 12.9702 304.072 13.4517C304.072 14.2596 303.737 14.9154 303.067 15.4189C302.398 15.917 301.521 16.166 300.436 16.166C299.7 16.166 299.044 16.0332 298.469 15.7676C297.893 15.502 297.445 15.1367 297.124 14.6719C296.803 14.207 296.643 13.7062 296.643 13.1694H298.602C298.629 13.6453 298.809 14.0133 299.141 14.2734C299.473 14.528 299.913 14.6553 300.461 14.6553C300.992 14.6553 301.396 14.5557 301.673 14.3564C301.95 14.1517 302.088 13.8861 302.088 13.5596ZM307.863 4.83545V7.01855H309.449V8.5127H307.863V13.5264C307.863 13.8695 307.93 14.1185 308.062 14.2734C308.201 14.4229 308.444 14.4976 308.793 14.4976C309.025 14.4976 309.261 14.4699 309.499 14.4146V15.9751C309.039 16.1024 308.597 16.166 308.17 16.166C306.621 16.166 305.846 15.311 305.846 13.6011V8.5127H304.369V7.01855H305.846V4.83545H307.863ZM309.563 2.07129H312.966V18.6895H309.563V17.1206H310.949V3.64844H309.563V2.07129ZM370.06 3.64844H368.69V17.1206H370.06V18.6895H366.673V2.07129H370.06V3.64844ZM372.673 7.01855L372.731 7.95654C373.362 7.22054 374.225 6.85254 375.321 6.85254C376.522 6.85254 377.343 7.31185 377.786 8.23047C378.439 7.31185 379.358 6.85254 380.542 6.85254C381.533 6.85254 382.269 7.12646 382.75 7.67432C383.237 8.22217 383.486 9.03011 383.497 10.0981V16H381.48V10.1562C381.48 9.58626 381.355 9.16846 381.106 8.90283C380.857 8.63721 380.445 8.50439 379.87 8.50439C379.41 8.50439 379.034 8.62891 378.741 8.87793C378.453 9.12142 378.251 9.44238 378.135 9.84082L378.143 16H376.126V10.0898C376.098 9.03288 375.559 8.50439 374.507 8.50439C373.699 8.50439 373.127 8.83366 372.789 9.49219V16H370.772V7.01855H372.673ZM390.435 16C390.346 15.8285 390.269 15.549 390.202 15.1616C389.56 15.8312 388.774 16.166 387.845 16.166C386.943 16.166 386.207 15.9087 385.637 15.394C385.067 14.8794 384.782 14.243 384.782 13.4849C384.782 12.5275 385.136 11.7943 385.844 11.2852C386.558 10.7705 387.576 10.5132 388.899 10.5132H390.136V9.92383C390.136 9.45898 390.006 9.08822 389.746 8.81152C389.486 8.5293 389.09 8.38818 388.559 8.38818C388.099 8.38818 387.723 8.50439 387.43 8.73682C387.136 8.9637 386.99 9.25423 386.99 9.6084H384.973C384.973 9.11589 385.136 8.65658 385.462 8.23047C385.789 7.79883 386.232 7.46126 386.791 7.21777C387.355 6.97428 387.983 6.85254 388.675 6.85254C389.726 6.85254 390.565 7.11816 391.19 7.64941C391.815 8.17513 392.136 8.91667 392.153 9.87402V13.9248C392.153 14.7327 392.266 15.3774 392.493 15.8589V16H390.435ZM388.218 14.5474C388.617 14.5474 388.99 14.4505 389.339 14.2568C389.693 14.0632 389.959 13.8031 390.136 13.4766V11.7832H389.048C388.301 11.7832 387.74 11.9132 387.363 12.1733C386.987 12.4334 386.799 12.8014 386.799 13.2773C386.799 13.6647 386.926 13.9746 387.181 14.207C387.441 14.4339 387.787 14.5474 388.218 14.5474ZM395.911 16H393.894V7.01855H395.911V16ZM393.77 4.68604C393.77 4.37614 393.866 4.11882 394.06 3.91406C394.259 3.70931 394.542 3.60693 394.907 3.60693C395.272 3.60693 395.554 3.70931 395.753 3.91406C395.953 4.11882 396.052 4.37614 396.052 4.68604C396.052 4.9904 395.953 5.24495 395.753 5.44971C395.554 5.64893 395.272 5.74854 394.907 5.74854C394.542 5.74854 394.259 5.64893 394.06 5.44971C393.866 5.24495 393.77 4.9904 393.77 4.68604ZM399.487 7.01855L399.545 8.05615C400.209 7.25374 401.081 6.85254 402.16 6.85254C404.03 6.85254 404.982 7.92334 405.015 10.0649V16H402.998V10.1812C402.998 9.61117 402.874 9.19059 402.625 8.91943C402.381 8.64274 401.98 8.50439 401.421 8.50439C400.607 8.50439 400.001 8.8724 399.603 9.6084V16H397.586V7.01855H399.487ZM405.644 2.07129H409.047V18.6895H405.644V17.1206H407.03V3.64844H405.644V2.07129ZM466.141 3.64844H464.771V17.1206H466.141V18.6895H462.754V2.07129H466.141V3.64844ZM471.892 13.5596C471.892 13.1999 471.742 12.9259 471.443 12.7378C471.15 12.5496 470.66 12.3836 469.974 12.2397C469.288 12.0959 468.715 11.9132 468.256 11.6919C467.249 11.2049 466.745 10.4993 466.745 9.5752C466.745 8.80046 467.072 8.15299 467.725 7.63281C468.378 7.11263 469.208 6.85254 470.215 6.85254C471.288 6.85254 472.154 7.11816 472.813 7.64941C473.477 8.18066 473.809 8.86963 473.809 9.71631H471.792C471.792 9.32894 471.648 9.00798 471.36 8.75342C471.073 8.49333 470.691 8.36328 470.215 8.36328C469.772 8.36328 469.41 8.46566 469.127 8.67041C468.851 8.87516 468.712 9.14909 468.712 9.49219C468.712 9.80208 468.842 10.0428 469.103 10.2144C469.363 10.3859 469.888 10.5602 470.68 10.7373C471.471 10.9089 472.091 11.1164 472.539 11.3599C472.993 11.5978 473.328 11.8856 473.543 12.2231C473.765 12.5607 473.875 12.9702 473.875 13.4517C473.875 14.2596 473.541 14.9154 472.871 15.4189C472.201 15.917 471.324 16.166 470.24 16.166C469.504 16.166 468.848 16.0332 468.272 15.7676C467.697 15.502 467.249 15.1367 466.928 14.6719C466.607 14.207 466.446 13.7062 466.446 13.1694H468.405C468.433 13.6453 468.613 14.0133 468.945 14.2734C469.277 14.528 469.717 14.6553 470.265 14.6553C470.796 14.6553 471.2 14.5557 471.477 14.3564C471.753 14.1517 471.892 13.8861 471.892 13.5596ZM477.285 16H475.268V7.01855H477.285V16ZM475.144 4.68604C475.144 4.37614 475.24 4.11882 475.434 3.91406C475.633 3.70931 475.916 3.60693 476.281 3.60693C476.646 3.60693 476.928 3.70931 477.127 3.91406C477.327 4.11882 477.426 4.37614 477.426 4.68604C477.426 4.9904 477.327 5.24495 477.127 5.44971C476.928 5.64893 476.646 5.74854 476.281 5.74854C475.916 5.74854 475.633 5.64893 475.434 5.44971C475.24 5.24495 475.144 4.9904 475.144 4.68604ZM478.611 11.4429C478.611 10.0594 478.932 8.94987 479.574 8.11426C480.216 7.27311 481.077 6.85254 482.156 6.85254C483.108 6.85254 483.877 7.18457 484.463 7.84863V3.25H486.48V16H484.654L484.555 15.0703C483.951 15.8008 483.146 16.166 482.139 16.166C481.088 16.166 480.236 15.7427 479.583 14.896C478.935 14.0493 478.611 12.8983 478.611 11.4429ZM480.628 11.6172C480.628 12.5303 480.803 13.2441 481.151 13.7588C481.506 14.2679 482.006 14.5225 482.654 14.5225C483.478 14.5225 484.082 14.1545 484.463 13.4185V9.5835C484.093 8.8641 483.495 8.50439 482.67 8.50439C482.017 8.50439 481.514 8.76449 481.16 9.28467C480.806 9.79932 480.628 10.5768 480.628 11.6172ZM492.04 16.166C490.762 16.166 489.724 15.7648 488.927 14.9624C488.136 14.1545 487.74 13.0809 487.74 11.7417V11.4927C487.74 10.5962 487.912 9.79655 488.255 9.09375C488.604 8.38542 489.09 7.8348 489.716 7.44189C490.341 7.04899 491.038 6.85254 491.808 6.85254C493.031 6.85254 493.974 7.24268 494.638 8.02295C495.308 8.80322 495.643 9.90723 495.643 11.335V12.1484H489.774C489.835 12.89 490.081 13.4766 490.513 13.9082C490.95 14.3398 491.498 14.5557 492.156 14.5557C493.08 14.5557 493.833 14.1821 494.414 13.4351L495.501 14.4727C495.142 15.0094 494.66 15.4272 494.057 15.7261C493.459 16.0194 492.787 16.166 492.04 16.166ZM491.799 8.47119C491.246 8.47119 490.798 8.66488 490.455 9.05225C490.117 9.43962 489.901 9.97917 489.807 10.6709H493.65V10.5215C493.606 9.84635 493.426 9.33724 493.111 8.99414C492.795 8.64551 492.358 8.47119 491.799 8.47119ZM495.782 2.07129H499.185V18.6895H495.782V17.1206H497.168V3.64844H495.782V2.07129ZM556.279 3.64844H554.909V17.1206H556.279V18.6895H552.892V2.07129H556.279V3.64844ZM559.141 16H557.124V3.25H559.141V16ZM566.211 16C566.122 15.8285 566.045 15.549 565.979 15.1616C565.337 15.8312 564.551 16.166 563.621 16.166C562.719 16.166 561.983 15.9087 561.413 15.394C560.843 14.8794 560.558 14.243 560.558 13.4849C560.558 12.5275 560.912 11.7943 561.621 11.2852C562.334 10.7705 563.353 10.5132 564.675 10.5132H565.912V9.92383C565.912 9.45898 565.782 9.08822 565.522 8.81152C565.262 8.5293 564.866 8.38818 564.335 8.38818C563.876 8.38818 563.499 8.50439 563.206 8.73682C562.913 8.9637 562.766 9.25423 562.766 9.6084H560.749C560.749 9.11589 560.912 8.65658 561.239 8.23047C561.565 7.79883 562.008 7.46126 562.567 7.21777C563.131 6.97428 563.759 6.85254 564.451 6.85254C565.503 6.85254 566.341 7.11816 566.966 7.64941C567.592 8.17513 567.913 8.91667 567.929 9.87402V13.9248C567.929 14.7327 568.043 15.3774 568.27 15.8589V16H566.211ZM563.995 14.5474C564.393 14.5474 564.767 14.4505 565.115 14.2568C565.469 14.0632 565.735 13.8031 565.912 13.4766V11.7832H564.825C564.078 11.7832 563.516 11.9132 563.14 12.1733C562.763 12.4334 562.575 12.8014 562.575 13.2773C562.575 13.6647 562.702 13.9746 562.957 14.207C563.217 14.4339 563.563 14.5474 563.995 14.5474ZM574.576 13.5596C574.576 13.1999 574.427 12.9259 574.128 12.7378C573.835 12.5496 573.345 12.3836 572.659 12.2397C571.972 12.0959 571.4 11.9132 570.94 11.6919C569.933 11.2049 569.43 10.4993 569.43 9.5752C569.43 8.80046 569.756 8.15299 570.409 7.63281C571.062 7.11263 571.892 6.85254 572.899 6.85254C573.973 6.85254 574.839 7.11816 575.498 7.64941C576.162 8.18066 576.494 8.86963 576.494 9.71631H574.477C574.477 9.32894 574.333 9.00798 574.045 8.75342C573.757 8.49333 573.375 8.36328 572.899 8.36328C572.457 8.36328 572.094 8.46566 571.812 8.67041C571.535 8.87516 571.397 9.14909 571.397 9.49219C571.397 9.80208 571.527 10.0428 571.787 10.2144C572.047 10.3859 572.573 10.5602 573.364 10.7373C574.156 10.9089 574.775 11.1164 575.224 11.3599C575.677 11.5978 576.012 11.8856 576.228 12.2231C576.449 12.5607 576.56 12.9702 576.56 13.4517C576.56 14.2596 576.225 14.9154 575.556 15.4189C574.886 15.917 574.009 16.166 572.924 16.166C572.188 16.166 571.533 16.0332 570.957 15.7676C570.382 15.502 569.933 15.1367 569.612 14.6719C569.291 14.207 569.131 13.7062 569.131 13.1694H571.09C571.118 13.6453 571.297 14.0133 571.629 14.2734C571.961 14.528 572.401 14.6553 572.949 14.6553C573.48 14.6553 573.884 14.5557 574.161 14.3564C574.438 14.1517 574.576 13.8861 574.576 13.5596ZM580.352 4.83545V7.01855H581.937V8.5127H580.352V13.5264C580.352 13.8695 580.418 14.1185 580.551 14.2734C580.689 14.4229 580.933 14.4976 581.281 14.4976C581.514 14.4976 581.749 14.4699 581.987 14.4146V15.9751C581.528 16.1024 581.085 16.166 580.659 16.166C579.109 16.166 578.334 15.311 578.334 13.6011V8.5127H576.857V7.01855H578.334V4.83545H580.352ZM582.051 2.07129H585.455V18.6895H582.051V17.1206H583.438V3.64844H582.051V2.07129Z" fill="#1E73FF"/>
<path d="M320.599 9.03564H321.828C322.447 9.03011 322.937 8.86963 323.297 8.5542C323.662 8.23877 323.845 7.78223 323.845 7.18457C323.845 6.60905 323.693 6.16357 323.388 5.84814C323.089 5.52718 322.63 5.3667 322.01 5.3667C321.468 5.3667 321.022 5.52441 320.674 5.83984C320.325 6.14974 320.151 6.55648 320.151 7.06006H318.134C318.134 6.44027 318.297 5.87581 318.624 5.3667C318.956 4.85758 319.415 4.46191 320.001 4.17969C320.594 3.89193 321.255 3.74805 321.985 3.74805C323.192 3.74805 324.138 4.05241 324.824 4.66113C325.516 5.26432 325.862 6.10547 325.862 7.18457C325.862 7.72689 325.688 8.23877 325.339 8.72021C324.996 9.19613 324.55 9.55583 324.002 9.79932C324.667 10.0262 325.17 10.3831 325.513 10.8701C325.862 11.3571 326.036 11.9382 326.036 12.6133C326.036 13.6979 325.663 14.5612 324.916 15.2031C324.174 15.8451 323.197 16.166 321.985 16.166C320.823 16.166 319.871 15.8561 319.13 15.2363C318.388 14.6165 318.018 13.792 318.018 12.7627H320.035C320.035 13.2939 320.212 13.7256 320.566 14.0576C320.926 14.3896 321.407 14.5557 322.01 14.5557C322.636 14.5557 323.128 14.3896 323.488 14.0576C323.847 13.7256 324.027 13.2441 324.027 12.6133C324.027 11.9769 323.839 11.4871 323.463 11.144C323.087 10.8009 322.528 10.6294 321.786 10.6294H320.599V9.03564ZM335.306 10.9116C335.306 12.6493 334.98 13.9608 334.327 14.8462C333.679 15.7261 332.691 16.166 331.363 16.166C330.057 16.166 329.072 15.7371 328.408 14.8794C327.75 14.0161 327.412 12.7406 327.396 11.0527V8.96094C327.396 7.22331 327.719 5.92008 328.367 5.05127C329.02 4.18245 330.013 3.74805 331.347 3.74805C332.669 3.74805 333.654 4.17139 334.302 5.01807C334.955 5.86475 335.29 7.132 335.306 8.81982V10.9116ZM333.289 8.65381C333.289 7.51937 333.134 6.68929 332.824 6.16357C332.514 5.63232 332.022 5.3667 331.347 5.3667C330.688 5.3667 330.204 5.61849 329.894 6.12207C329.584 6.62012 329.421 7.40039 329.404 8.46289V11.2021C329.404 12.3311 329.562 13.1722 329.877 13.7256C330.193 14.279 330.688 14.5557 331.363 14.5557C332.011 14.5557 332.489 14.3011 332.799 13.792C333.109 13.2773 333.272 12.4749 333.289 11.3848V8.65381ZM344.468 10.9116C344.468 12.6493 344.142 13.9608 343.489 14.8462C342.841 15.7261 341.854 16.166 340.525 16.166C339.219 16.166 338.234 15.7371 337.57 14.8794C336.912 14.0161 336.574 12.7406 336.558 11.0527V8.96094C336.558 7.22331 336.881 5.92008 337.529 5.05127C338.182 4.18245 339.175 3.74805 340.509 3.74805C341.831 3.74805 342.816 4.17139 343.464 5.01807C344.117 5.86475 344.452 7.132 344.468 8.81982V10.9116ZM342.451 8.65381C342.451 7.51937 342.296 6.68929 341.986 6.16357C341.676 5.63232 341.184 5.3667 340.509 5.3667C339.85 5.3667 339.366 5.61849 339.056 6.12207C338.746 6.62012 338.583 7.40039 338.566 8.46289V11.2021C338.566 12.3311 338.724 13.1722 339.04 13.7256C339.355 14.279 339.85 14.5557 340.525 14.5557C341.173 14.5557 341.652 14.3011 341.961 13.792C342.271 13.2773 342.435 12.4749 342.451 11.3848V8.65381ZM353.747 11.6006C353.747 12.9896 353.431 14.0991 352.8 14.9292C352.169 15.7537 351.323 16.166 350.26 16.166C349.275 16.166 348.487 15.8423 347.895 15.1948V19.4531H345.877V7.01855H347.737L347.82 7.93164C348.412 7.21224 349.217 6.85254 350.235 6.85254C351.331 6.85254 352.189 7.26204 352.809 8.08105C353.434 8.89453 353.747 10.0262 353.747 11.4761V11.6006ZM351.738 11.4263C351.738 10.5298 351.558 9.81868 351.198 9.29297C350.844 8.76725 350.335 8.50439 349.671 8.50439C348.846 8.50439 348.254 8.84473 347.895 9.52539V13.5098C348.26 14.207 348.857 14.5557 349.688 14.5557C350.329 14.5557 350.83 14.2983 351.19 13.7837C351.555 13.2635 351.738 12.4777 351.738 11.4263ZM358.053 9.97363L359.763 7.01855H362.004L359.256 11.4429L362.095 16H359.871L358.078 12.9287L356.293 16H354.052L356.891 11.4429L354.151 7.01855H356.376L358.053 9.97363ZM422.474 16H414.348V14.6138L418.374 10.2227C418.955 9.5752 419.367 9.03564 419.61 8.604C419.859 8.16683 419.984 7.72965 419.984 7.29248C419.984 6.71696 419.821 6.25212 419.494 5.89795C419.173 5.54378 418.739 5.3667 418.191 5.3667C417.538 5.3667 417.032 5.56592 416.672 5.96436C416.312 6.36279 416.132 6.90788 416.132 7.59961H414.115C414.115 6.86361 414.281 6.20231 414.613 5.61572C414.951 5.0236 415.43 4.56429 416.049 4.23779C416.675 3.9113 417.394 3.74805 418.208 3.74805C419.381 3.74805 420.305 4.04411 420.98 4.63623C421.661 5.22282 422.001 6.0363 422.001 7.07666C422.001 7.67985 421.829 8.31348 421.486 8.97754C421.149 9.63607 420.593 10.3859 419.818 11.2271L416.863 14.3896H422.474V16ZM431.387 10.9116C431.387 12.6493 431.061 13.9608 430.408 14.8462C429.76 15.7261 428.772 16.166 427.444 16.166C426.138 16.166 425.153 15.7371 424.489 14.8794C423.831 14.0161 423.493 12.7406 423.477 11.0527V8.96094C423.477 7.22331 423.8 5.92008 424.448 5.05127C425.101 4.18245 426.094 3.74805 427.428 3.74805C428.75 3.74805 429.735 4.17139 430.383 5.01807C431.036 5.86475 431.371 7.132 431.387 8.81982V10.9116ZM429.37 8.65381C429.37 7.51937 429.215 6.68929 428.905 6.16357C428.595 5.63232 428.103 5.3667 427.428 5.3667C426.769 5.3667 426.285 5.61849 425.975 6.12207C425.665 6.62012 425.502 7.40039 425.485 8.46289V11.2021C425.485 12.3311 425.643 13.1722 425.958 13.7256C426.274 14.279 426.769 14.5557 427.444 14.5557C428.092 14.5557 428.57 14.3011 428.88 13.792C429.19 13.2773 429.354 12.4749 429.37 11.3848V8.65381ZM440.549 10.9116C440.549 12.6493 440.223 13.9608 439.57 14.8462C438.922 15.7261 437.935 16.166 436.606 16.166C435.3 16.166 434.315 15.7371 433.651 14.8794C432.993 14.0161 432.655 12.7406 432.639 11.0527V8.96094C432.639 7.22331 432.962 5.92008 433.61 5.05127C434.263 4.18245 435.256 3.74805 436.59 3.74805C437.912 3.74805 438.897 4.17139 439.545 5.01807C440.198 5.86475 440.533 7.132 440.549 8.81982V10.9116ZM438.532 8.65381C438.532 7.51937 438.377 6.68929 438.067 6.16357C437.757 5.63232 437.265 5.3667 436.59 5.3667C435.931 5.3667 435.447 5.61849 435.137 6.12207C434.827 6.62012 434.664 7.40039 434.647 8.46289V11.2021C434.647 12.3311 434.805 13.1722 435.121 13.7256C435.436 14.279 435.931 14.5557 436.606 14.5557C437.254 14.5557 437.733 14.3011 438.042 13.792C438.352 13.2773 438.516 12.4749 438.532 11.3848V8.65381ZM449.828 11.6006C449.828 12.9896 449.512 14.0991 448.881 14.9292C448.25 15.7537 447.404 16.166 446.341 16.166C445.356 16.166 444.568 15.8423 443.976 15.1948V19.4531H441.958V7.01855H443.818L443.901 7.93164C444.493 7.21224 445.298 6.85254 446.316 6.85254C447.412 6.85254 448.27 7.26204 448.89 8.08105C449.515 8.89453 449.828 10.0262 449.828 11.4761V11.6006ZM447.819 11.4263C447.819 10.5298 447.639 9.81868 447.279 9.29297C446.925 8.76725 446.416 8.50439 445.752 8.50439C444.927 8.50439 444.335 8.84473 443.976 9.52539V13.5098C444.341 14.207 444.938 14.5557 445.769 14.5557C446.41 14.5557 446.911 14.2983 447.271 13.7837C447.636 13.2635 447.819 12.4777 447.819 11.4263ZM454.134 9.97363L455.844 7.01855H458.085L455.337 11.4429L458.176 16H455.952L454.159 12.9287L452.374 16H450.133L452.972 11.4429L450.232 7.01855H452.457L454.134 9.97363ZM509.947 16H507.938V6.29639L504.975 7.30908V5.60742L509.69 3.87256H509.947V16ZM521.525 10.9116C521.525 12.6493 521.198 13.9608 520.545 14.8462C519.898 15.7261 518.91 16.166 517.582 16.166C516.276 16.166 515.291 15.7371 514.627 14.8794C513.968 14.0161 513.631 12.7406 513.614 11.0527V8.96094C513.614 7.22331 513.938 5.92008 514.585 5.05127C515.238 4.18245 516.232 3.74805 517.565 3.74805C518.888 3.74805 519.873 4.17139 520.521 5.01807C521.174 5.86475 521.508 7.132 521.525 8.81982V10.9116ZM519.508 8.65381C519.508 7.51937 519.353 6.68929 519.043 6.16357C518.733 5.63232 518.241 5.3667 517.565 5.3667C516.907 5.3667 516.423 5.61849 516.113 6.12207C515.803 6.62012 515.64 7.40039 515.623 8.46289V11.2021C515.623 12.3311 515.781 13.1722 516.096 13.7256C516.412 14.279 516.907 14.5557 517.582 14.5557C518.229 14.5557 518.708 14.3011 519.018 13.792C519.328 13.2773 519.491 12.4749 519.508 11.3848V8.65381ZM530.687 10.9116C530.687 12.6493 530.361 13.9608 529.708 14.8462C529.06 15.7261 528.072 16.166 526.744 16.166C525.438 16.166 524.453 15.7371 523.789 14.8794C523.131 14.0161 522.793 12.7406 522.776 11.0527V8.96094C522.776 7.22331 523.1 5.92008 523.748 5.05127C524.401 4.18245 525.394 3.74805 526.728 3.74805C528.05 3.74805 529.035 4.17139 529.683 5.01807C530.336 5.86475 530.67 7.132 530.687 8.81982V10.9116ZM528.67 8.65381C528.67 7.51937 528.515 6.68929 528.205 6.16357C527.895 5.63232 527.403 5.3667 526.728 5.3667C526.069 5.3667 525.585 5.61849 525.275 6.12207C524.965 6.62012 524.802 7.40039 524.785 8.46289V11.2021C524.785 12.3311 524.943 13.1722 525.258 13.7256C525.574 14.279 526.069 14.5557 526.744 14.5557C527.392 14.5557 527.87 14.3011 528.18 13.792C528.49 13.2773 528.653 12.4749 528.67 11.3848V8.65381ZM539.965 11.6006C539.965 12.9896 539.65 14.0991 539.019 14.9292C538.388 15.7537 537.542 16.166 536.479 16.166C535.494 16.166 534.705 15.8423 534.113 15.1948V19.4531H532.096V7.01855H533.956L534.039 7.93164C534.631 7.21224 535.436 6.85254 536.454 6.85254C537.55 6.85254 538.408 7.26204 539.027 8.08105C539.653 8.89453 539.965 10.0262 539.965 11.4761V11.6006ZM537.957 11.4263C537.957 10.5298 537.777 9.81868 537.417 9.29297C537.063 8.76725 536.554 8.50439 535.89 8.50439C535.065 8.50439 534.473 8.84473 534.113 9.52539V13.5098C534.479 14.207 535.076 14.5557 535.906 14.5557C536.548 14.5557 537.049 14.2983 537.409 13.7837C537.774 13.2635 537.957 12.4777 537.957 11.4263ZM544.271 9.97363L545.981 7.01855H548.223L545.475 11.4429L548.314 16H546.089L544.296 12.9287L542.512 16H540.271L543.109 11.4429L540.37 7.01855H542.595L544.271 9.97363Z" fill="#00986B"/>
<rect width="700" height="245" transform="translate(0 35)" fill="#F7F7F7"/>
<rect x="37" y="81" width="626" height="180" fill="white"/>
<path d="M340.5 82L340.5 260" stroke="#BBBBBB" stroke-dasharray="3 2"/>
<path d="M347.5 82L347.5 260" stroke="#BBBBBB" stroke-dasharray="3 2"/>
<path d="M552.5 82L552.5 260" stroke="#BBBBBB" stroke-dasharray="3 2"/>
<path d="M559.5 82L559.5 260" stroke="#BBBBBB" stroke-dasharray="3 2"/>
<path d="M38 143.5L662 143.5" stroke="#BBBBBB" stroke-dasharray="3 2"/>
<path d="M38 136.5L662 136.5" stroke="#BBBBBB" stroke-dasharray="3 2"/>
<path d="M38 205.5L662 205.5" stroke="#BBBBBB" stroke-dasharray="3 2"/>
<path d="M38 198.5L662 198.5" stroke="#BBBBBB" stroke-dasharray="3 2"/>
<rect x="37" y="81" width="626" height="180" stroke="#AAAAAA" stroke-width="2"/>
<path d="M42.1464 72.1464C41.9512 72.3417 41.9512 72.6583 42.1464 72.8536L45.3284 76.0355C45.5237 76.2308 45.8403 76.2308 46.0355 76.0355C46.2308 75.8403 46.2308 75.5237 46.0355 75.3284L43.2071 72.5L46.0355 69.6716C46.2308 69.4763 46.2308 69.1597 46.0355 68.9645C45.8403 68.7692 45.5237 68.7692 45.3284 68.9645L42.1464 72.1464ZM335.854 72.8536C336.049 72.6583 336.049 72.3417 335.854 72.1464L332.672 68.9645C332.476 68.7692 332.16 68.7692 331.964 68.9645C331.769 69.1597 331.769 69.4763 331.964 69.6716L334.793 72.5L331.964 75.3284C331.769 75.5237 331.769 75.8403 331.964 76.0355C332.16 76.2308 332.476 76.2308 332.672 76.0355L335.854 72.8536ZM42.5 73H335.5V72H42.5V73Z" fill="#00986B"/>
<path d="M172.129 57.855H173.213C173.76 57.8501 174.192 57.7085 174.509 57.4302C174.832 57.1519 174.993 56.749 174.993 56.2217C174.993 55.7139 174.858 55.3208 174.59 55.0425C174.326 54.7593 173.921 54.6177 173.374 54.6177C172.896 54.6177 172.502 54.7568 172.195 55.0352C171.887 55.3086 171.733 55.6675 171.733 56.1118H169.954C169.954 55.5649 170.098 55.0669 170.386 54.6177C170.679 54.1685 171.084 53.8193 171.602 53.5703C172.124 53.3164 172.708 53.1895 173.352 53.1895C174.417 53.1895 175.251 53.458 175.857 53.9951C176.467 54.5273 176.772 55.2695 176.772 56.2217C176.772 56.7002 176.619 57.1519 176.311 57.5767C176.008 57.9966 175.615 58.314 175.132 58.5288C175.718 58.729 176.162 59.0439 176.465 59.4736C176.772 59.9033 176.926 60.416 176.926 61.0117C176.926 61.9688 176.597 62.7305 175.938 63.2969C175.283 63.8633 174.421 64.1465 173.352 64.1465C172.327 64.1465 171.487 63.873 170.833 63.3262C170.178 62.7793 169.851 62.0518 169.851 61.1436H171.631C171.631 61.6123 171.787 61.9932 172.1 62.2861C172.417 62.5791 172.842 62.7256 173.374 62.7256C173.926 62.7256 174.36 62.5791 174.678 62.2861C174.995 61.9932 175.154 61.5684 175.154 61.0117C175.154 60.4502 174.988 60.0181 174.656 59.7153C174.324 59.4126 173.831 59.2612 173.176 59.2612H172.129V57.855ZM185.547 59.5103C185.547 61.0435 185.259 62.2007 184.683 62.9819C184.111 63.7583 183.24 64.1465 182.068 64.1465C180.916 64.1465 180.046 63.7681 179.46 63.0112C178.879 62.2495 178.582 61.124 178.567 59.6348V57.7891C178.567 56.2559 178.853 55.106 179.424 54.3394C180 53.5728 180.876 53.1895 182.053 53.1895C183.22 53.1895 184.089 53.563 184.661 54.3101C185.237 55.0571 185.532 56.1753 185.547 57.6646V59.5103ZM183.767 57.5181C183.767 56.5171 183.63 55.7847 183.357 55.3208C183.083 54.8521 182.649 54.6177 182.053 54.6177C181.472 54.6177 181.045 54.8398 180.771 55.2842C180.498 55.7236 180.354 56.4121 180.339 57.3496V59.7666C180.339 60.7627 180.479 61.5049 180.757 61.9932C181.035 62.4814 181.472 62.7256 182.068 62.7256C182.639 62.7256 183.062 62.501 183.335 62.0518C183.608 61.5977 183.752 60.8896 183.767 59.9277V57.5181ZM194.072 59.5103C194.072 61.0435 193.784 62.2007 193.208 62.9819C192.637 63.7583 191.765 64.1465 190.593 64.1465C189.441 64.1465 188.572 63.7681 187.986 63.0112C187.405 62.2495 187.107 61.124 187.092 59.6348V57.7891C187.092 56.2559 187.378 55.106 187.949 54.3394C188.525 53.5728 189.402 53.1895 190.579 53.1895C191.746 53.1895 192.615 53.563 193.186 54.3101C193.762 55.0571 194.058 56.1753 194.072 57.6646V59.5103ZM192.292 57.5181C192.292 56.5171 192.156 55.7847 191.882 55.3208C191.609 54.8521 191.174 54.6177 190.579 54.6177C189.998 54.6177 189.57 54.8398 189.297 55.2842C189.023 55.7236 188.879 56.4121 188.865 57.3496V59.7666C188.865 60.7627 189.004 61.5049 189.282 61.9932C189.561 62.4814 189.998 62.7256 190.593 62.7256C191.165 62.7256 191.587 62.501 191.86 62.0518C192.134 61.5977 192.278 60.8896 192.292 59.9277V57.5181ZM202.7 60.1182C202.7 61.3438 202.422 62.3228 201.865 63.0552C201.309 63.7827 200.562 64.1465 199.624 64.1465C198.755 64.1465 198.059 63.8608 197.537 63.2896V67.0469H195.757V56.0752H197.397L197.471 56.8809C197.993 56.2461 198.704 55.9287 199.602 55.9287C200.569 55.9287 201.326 56.29 201.873 57.0127C202.424 57.7305 202.7 58.729 202.7 60.0083V60.1182ZM200.928 59.9644C200.928 59.1733 200.769 58.5459 200.452 58.082C200.139 57.6182 199.69 57.3862 199.104 57.3862C198.376 57.3862 197.854 57.6865 197.537 58.2871V61.8027C197.859 62.418 198.386 62.7256 199.119 62.7256C199.685 62.7256 200.127 62.4985 200.444 62.0444C200.767 61.5854 200.928 60.8921 200.928 59.9644ZM206.941 58.6826L208.45 56.0752H210.427L208.003 59.979L210.508 64H208.545L206.963 61.29L205.388 64H203.411L205.916 59.979L203.499 56.0752H205.461L206.941 58.6826Z" fill="#00986B"/>
<path d="M352.646 72.1464C352.451 72.3417 352.451 72.6583 352.646 72.8536L355.828 76.0355C356.024 76.2308 356.34 76.2308 356.536 76.0355C356.731 75.8403 356.731 75.5237 356.536 75.3284L353.707 72.5L356.536 69.6716C356.731 69.4763 356.731 69.1597 356.536 68.9645C356.34 68.7692 356.024 68.7692 355.828 68.9645L352.646 72.1464ZM548.354 72.8536C548.549 72.6583 548.549 72.3417 548.354 72.1464L545.172 68.9645C544.976 68.7692 544.66 68.7692 544.464 68.9645C544.269 69.1597 544.269 69.4763 544.464 69.6716L547.293 72.5L544.464 75.3284C544.269 75.5237 544.269 75.8403 544.464 76.0355C544.66 76.2308 544.976 76.2308 545.172 76.0355L548.354 72.8536ZM353 73H548V72H353V73Z" fill="#00986B"/>
<path d="M437.241 64H430.071V62.7769L433.623 58.9023C434.136 58.3311 434.5 57.855 434.714 57.4741C434.934 57.0884 435.044 56.7026 435.044 56.3169C435.044 55.8091 434.9 55.3989 434.612 55.0864C434.329 54.7739 433.945 54.6177 433.462 54.6177C432.886 54.6177 432.439 54.7935 432.122 55.145C431.804 55.4966 431.646 55.9775 431.646 56.5879H429.866C429.866 55.9385 430.012 55.355 430.305 54.8374C430.603 54.3149 431.025 53.9097 431.572 53.6216C432.124 53.3335 432.759 53.1895 433.477 53.1895C434.512 53.1895 435.327 53.4507 435.923 53.9731C436.523 54.4907 436.824 55.2085 436.824 56.1265C436.824 56.6587 436.672 57.2178 436.37 57.8037C436.072 58.3848 435.581 59.0464 434.897 59.7886L432.29 62.5791H437.241V64ZM445.547 59.5103C445.547 61.0435 445.259 62.2007 444.683 62.9819C444.111 63.7583 443.24 64.1465 442.068 64.1465C440.916 64.1465 440.046 63.7681 439.46 63.0112C438.879 62.2495 438.582 61.124 438.567 59.6348V57.7891C438.567 56.2559 438.853 55.106 439.424 54.3394C440 53.5728 440.876 53.1895 442.053 53.1895C443.22 53.1895 444.089 53.563 444.661 54.3101C445.237 55.0571 445.532 56.1753 445.547 57.6646V59.5103ZM443.767 57.5181C443.767 56.5171 443.63 55.7847 443.357 55.3208C443.083 54.8521 442.649 54.6177 442.053 54.6177C441.472 54.6177 441.045 54.8398 440.771 55.2842C440.498 55.7236 440.354 56.4121 440.339 57.3496V59.7666C440.339 60.7627 440.479 61.5049 440.757 61.9932C441.035 62.4814 441.472 62.7256 442.068 62.7256C442.639 62.7256 443.062 62.501 443.335 62.0518C443.608 61.5977 443.752 60.8896 443.767 59.9277V57.5181ZM454.072 59.5103C454.072 61.0435 453.784 62.2007 453.208 62.9819C452.637 63.7583 451.765 64.1465 450.593 64.1465C449.441 64.1465 448.572 63.7681 447.986 63.0112C447.405 62.2495 447.107 61.124 447.092 59.6348V57.7891C447.092 56.2559 447.378 55.106 447.949 54.3394C448.525 53.5728 449.402 53.1895 450.579 53.1895C451.746 53.1895 452.615 53.563 453.186 54.3101C453.762 55.0571 454.058 56.1753 454.072 57.6646V59.5103ZM452.292 57.5181C452.292 56.5171 452.156 55.7847 451.882 55.3208C451.609 54.8521 451.174 54.6177 450.579 54.6177C449.998 54.6177 449.57 54.8398 449.297 55.2842C449.023 55.7236 448.879 56.4121 448.865 57.3496V59.7666C448.865 60.7627 449.004 61.5049 449.282 61.9932C449.561 62.4814 449.998 62.7256 450.593 62.7256C451.165 62.7256 451.587 62.501 451.86 62.0518C452.134 61.5977 452.278 60.8896 452.292 59.9277V57.5181ZM462.7 60.1182C462.7 61.3438 462.422 62.3228 461.865 63.0552C461.309 63.7827 460.562 64.1465 459.624 64.1465C458.755 64.1465 458.059 63.8608 457.537 63.2896V67.0469H455.757V56.0752H457.397L457.471 56.8809C457.993 56.2461 458.704 55.9287 459.602 55.9287C460.569 55.9287 461.326 56.29 461.873 57.0127C462.424 57.7305 462.7 58.729 462.7 60.0083V60.1182ZM460.928 59.9644C460.928 59.1733 460.769 58.5459 460.452 58.082C460.139 57.6182 459.69 57.3862 459.104 57.3862C458.376 57.3862 457.854 57.6865 457.537 58.2871V61.8027C457.859 62.418 458.386 62.7256 459.119 62.7256C459.685 62.7256 460.127 62.4985 460.444 62.0444C460.767 61.5854 460.928 60.8921 460.928 59.9644ZM466.941 58.6826L468.45 56.0752H470.427L468.003 59.979L470.508 64H468.545L466.963 61.29L465.388 64H463.411L465.916 59.979L463.499 56.0752H465.461L466.941 58.6826Z" fill="#00986B"/>
<path d="M564.146 72.1464C563.951 72.3417 563.951 72.6583 564.146 72.8536L567.328 76.0355C567.524 76.2308 567.84 76.2308 568.036 76.0355C568.231 75.8403 568.231 75.5237 568.036 75.3284L565.207 72.5L568.036 69.6716C568.231 69.4763 568.231 69.1597 568.036 68.9645C567.84 68.7692 567.524 68.7692 567.328 68.9645L564.146 72.1464ZM657.854 72.8536C658.049 72.6583 658.049 72.3417 657.854 72.1464L654.672 68.9645C654.476 68.7692 654.16 68.7692 653.964 68.9645C653.769 69.1597 653.769 69.4763 653.964 69.6716L656.793 72.5L653.964 75.3284C653.769 75.5237 653.769 75.8403 653.964 76.0355C654.16 76.2308 654.476 76.2308 654.672 76.0355L657.854 72.8536ZM564.5 73H657.5V72H564.5V73Z" fill="#00986B"/>
<path d="M595.89 64H594.118V55.438L591.503 56.3315V54.8301L595.663 53.2993H595.89V64ZM606.547 59.5103C606.547 61.0435 606.259 62.2007 605.683 62.9819C605.111 63.7583 604.24 64.1465 603.068 64.1465C601.916 64.1465 601.046 63.7681 600.46 63.0112C599.879 62.2495 599.582 61.124 599.567 59.6348V57.7891C599.567 56.2559 599.853 55.106 600.424 54.3394C601 53.5728 601.876 53.1895 603.053 53.1895C604.22 53.1895 605.089 53.563 605.661 54.3101C606.237 55.0571 606.532 56.1753 606.547 57.6646V59.5103ZM604.767 57.5181C604.767 56.5171 604.63 55.7847 604.357 55.3208C604.083 54.8521 603.649 54.6177 603.053 54.6177C602.472 54.6177 602.045 54.8398 601.771 55.2842C601.498 55.7236 601.354 56.4121 601.339 57.3496V59.7666C601.339 60.7627 601.479 61.5049 601.757 61.9932C602.035 62.4814 602.472 62.7256 603.068 62.7256C603.639 62.7256 604.062 62.501 604.335 62.0518C604.608 61.5977 604.752 60.8896 604.767 59.9277V57.5181ZM615.072 59.5103C615.072 61.0435 614.784 62.2007 614.208 62.9819C613.637 63.7583 612.765 64.1465 611.593 64.1465C610.441 64.1465 609.572 63.7681 608.986 63.0112C608.405 62.2495 608.107 61.124 608.092 59.6348V57.7891C608.092 56.2559 608.378 55.106 608.949 54.3394C609.525 53.5728 610.402 53.1895 611.579 53.1895C612.746 53.1895 613.615 53.563 614.186 54.3101C614.762 55.0571 615.058 56.1753 615.072 57.6646V59.5103ZM613.292 57.5181C613.292 56.5171 613.156 55.7847 612.882 55.3208C612.609 54.8521 612.174 54.6177 611.579 54.6177C610.998 54.6177 610.57 54.8398 610.297 55.2842C610.023 55.7236 609.879 56.4121 609.865 57.3496V59.7666C609.865 60.7627 610.004 61.5049 610.282 61.9932C610.561 62.4814 610.998 62.7256 611.593 62.7256C612.165 62.7256 612.587 62.501 612.86 62.0518C613.134 61.5977 613.278 60.8896 613.292 59.9277V57.5181ZM623.7 60.1182C623.7 61.3438 623.422 62.3228 622.865 63.0552C622.309 63.7827 621.562 64.1465 620.624 64.1465C619.755 64.1465 619.059 63.8608 618.537 63.2896V67.0469H616.757V56.0752H618.397L618.471 56.8809C618.993 56.2461 619.704 55.9287 620.602 55.9287C621.569 55.9287 622.326 56.29 622.873 57.0127C623.424 57.7305 623.7 58.729 623.7 60.0083V60.1182ZM621.928 59.9644C621.928 59.1733 621.769 58.5459 621.452 58.082C621.139 57.6182 620.69 57.3862 620.104 57.3862C619.376 57.3862 618.854 57.6865 618.537 58.2871V61.8027C618.859 62.418 619.386 62.7256 620.119 62.7256C620.685 62.7256 621.127 62.4985 621.444 62.0444C621.767 61.5854 621.928 60.8921 621.928 59.9644ZM627.941 58.6826L629.45 56.0752H631.427L629.003 59.979L631.508 64H629.545L627.963 61.29L626.388 64H624.411L626.916 59.979L624.499 56.0752H626.461L627.941 58.6826Z" fill="#00986B"/>
<path d="M25.5103 64V57.3936H24.3018V56.0752H25.5103V55.5332C25.5151 54.9131 25.647 54.3809 25.9058 53.9365C26.1646 53.4922 26.5308 53.1577 27.0044 52.9331C27.478 52.7085 28.0469 52.5962 28.7109 52.5962C29.1016 52.5962 29.4751 52.6377 29.8315 52.7207C30.1929 52.8037 30.5664 52.9087 30.9521 53.0356L30.6812 54.5078C30.0073 54.2734 29.3921 54.1562 28.8354 54.1562C28.2935 54.1562 27.9004 54.2759 27.6562 54.5151C27.4121 54.7495 27.29 55.1035 27.29 55.5771V56.0752H28.8501V57.3936H27.29V64H25.5103ZM31.7944 64H30.0146V56.0752H31.7944V64ZM37.9175 57.7012C37.6831 57.6621 37.4414 57.6426 37.1924 57.6426C36.377 57.6426 35.8276 57.9551 35.5444 58.5801V64H33.7646V56.0752H35.4639L35.5078 56.9614C35.9375 56.2729 36.5332 55.9287 37.2949 55.9287C37.5488 55.9287 37.7588 55.9629 37.9248 56.0312L37.9175 57.7012ZM43.4839 61.8467C43.4839 61.5293 43.3521 61.2876 43.0884 61.1216C42.8296 60.9556 42.3975 60.8091 41.792 60.6821C41.1865 60.5552 40.6812 60.394 40.2759 60.1987C39.3872 59.769 38.9429 59.1465 38.9429 58.3311C38.9429 57.6475 39.231 57.0762 39.8071 56.6172C40.3833 56.1582 41.1157 55.9287 42.0044 55.9287C42.9517 55.9287 43.7158 56.1631 44.2969 56.6318C44.8828 57.1006 45.1758 57.7085 45.1758 58.4556H43.396C43.396 58.1138 43.269 57.8306 43.0151 57.606C42.7612 57.3765 42.4243 57.2617 42.0044 57.2617C41.6138 57.2617 41.2939 57.3521 41.0449 57.5327C40.8008 57.7134 40.6787 57.9551 40.6787 58.2578C40.6787 58.5312 40.7935 58.7437 41.0229 58.895C41.2524 59.0464 41.7163 59.2002 42.4146 59.3564C43.1128 59.5078 43.6597 59.6909 44.0552 59.9058C44.4556 60.1157 44.751 60.3696 44.9414 60.6675C45.1367 60.9653 45.2344 61.3267 45.2344 61.7515C45.2344 62.4644 44.939 63.043 44.3481 63.4873C43.7573 63.9268 42.9834 64.1465 42.0264 64.1465C41.377 64.1465 40.7983 64.0293 40.2905 63.7949C39.7827 63.5605 39.3872 63.2383 39.104 62.8281C38.8208 62.418 38.6792 61.9761 38.6792 61.5024H40.4077C40.4321 61.9224 40.5908 62.2471 40.8838 62.4766C41.1768 62.7012 41.5649 62.8135 42.0483 62.8135C42.5171 62.8135 42.8735 62.7256 43.1177 62.5498C43.3618 62.3691 43.4839 62.1348 43.4839 61.8467ZM49.021 54.1489V56.0752H50.4199V57.3936H49.021V61.8174C49.021 62.1201 49.0796 62.3398 49.1968 62.4766C49.3188 62.6084 49.5337 62.6743 49.8413 62.6743C50.0464 62.6743 50.2539 62.6499 50.4639 62.6011V63.978C50.0586 64.0903 49.668 64.1465 49.292 64.1465C47.9248 64.1465 47.2412 63.3921 47.2412 61.8833V57.3936H45.9375V56.0752H47.2412V54.1489H49.021Z" fill="#1E73FF"/>
<path d="M37 75L34.4019 70.5L39.5981 70.5L37 75Z" fill="#1E73FF"/>
<path d="M19.48 87H17.9438V79.5796L15.6777 80.354V79.0527L19.2832 77.7261H19.48V87Z" fill="#888888"/>
<path d="M31 82L26.5 84.5981L26.5 79.4019L31 82Z" fill="#888888"/>
<path d="M21.5176 144H15.3032V142.94L18.3818 139.582C18.8262 139.087 19.1414 138.674 19.3276 138.344C19.5181 138.01 19.6133 137.676 19.6133 137.341C19.6133 136.901 19.4884 136.546 19.2388 136.275C18.9933 136.004 18.6611 135.869 18.2422 135.869C17.7428 135.869 17.3556 136.021 17.0806 136.326C16.8055 136.63 16.668 137.047 16.668 137.576H15.1255C15.1255 137.013 15.2524 136.508 15.5063 136.059C15.7645 135.606 16.1305 135.255 16.6045 135.005C17.0827 134.756 17.6328 134.631 18.2549 134.631C19.152 134.631 19.8587 134.857 20.375 135.31C20.8955 135.759 21.1558 136.381 21.1558 137.176C21.1558 137.638 21.0246 138.122 20.7622 138.63C20.5041 139.133 20.0788 139.707 19.4863 140.35L17.2266 142.769H21.5176V144Z" fill="#888888"/>
<path d="M31 140L26.5 142.598L26.5 137.402L31 140Z" fill="#888888"/>
<path d="M17.0869 200.674H18.0264C18.5003 200.67 18.8748 200.547 19.1499 200.306C19.4292 200.065 19.5688 199.716 19.5688 199.259C19.5688 198.819 19.4525 198.478 19.2197 198.237C18.9912 197.991 18.64 197.869 18.166 197.869C17.7513 197.869 17.4106 197.989 17.144 198.23C16.8774 198.467 16.7441 198.778 16.7441 199.164H15.2017C15.2017 198.69 15.3265 198.258 15.5762 197.869C15.8301 197.479 16.1813 197.177 16.6299 196.961C17.0827 196.741 17.5884 196.631 18.147 196.631C19.0695 196.631 19.7931 196.864 20.3179 197.329C20.8468 197.79 21.1113 198.434 21.1113 199.259C21.1113 199.674 20.978 200.065 20.7114 200.433C20.4491 200.797 20.1084 201.072 19.6895 201.258C20.1973 201.432 20.5824 201.705 20.8447 202.077C21.1113 202.45 21.2446 202.894 21.2446 203.41C21.2446 204.24 20.959 204.9 20.3877 205.391C19.8206 205.882 19.0737 206.127 18.147 206.127C17.2583 206.127 16.5304 205.89 15.9634 205.416C15.3963 204.942 15.1128 204.312 15.1128 203.524H16.6553C16.6553 203.931 16.7907 204.261 17.0615 204.515C17.3366 204.769 17.7048 204.896 18.166 204.896C18.6442 204.896 19.0208 204.769 19.2959 204.515C19.571 204.261 19.7085 203.893 19.7085 203.41C19.7085 202.924 19.5646 202.549 19.2769 202.287C18.9891 202.024 18.5617 201.893 17.9946 201.893H17.0869V200.674Z" fill="#888888"/>
<path d="M31 202L26.5 204.598L26.5 199.402L31 202Z" fill="#888888"/>
<path d="M20.521 261.706H21.6699V262.943H20.521V265H18.9785V262.943H14.9858L14.9414 262.004L18.9277 255.758H20.521V261.706ZM16.5601 261.706H18.9785V257.846L18.8643 258.049L16.5601 261.706Z" fill="#888888"/>
<path d="M31 261L26.5 263.598L26.5 258.402L31 261Z" fill="#888888"/>
<path d="M329.908 56.0752L329.959 56.9028C330.516 56.2534 331.278 55.9287 332.245 55.9287C333.304 55.9287 334.029 56.334 334.42 57.1445C334.996 56.334 335.807 55.9287 336.852 55.9287C337.726 55.9287 338.375 56.1704 338.8 56.6538C339.229 57.1372 339.449 57.8501 339.459 58.7925V64H337.679V58.8438C337.679 58.3408 337.569 57.9722 337.35 57.7378C337.13 57.5034 336.766 57.3862 336.258 57.3862C335.853 57.3862 335.521 57.4961 335.262 57.7158C335.008 57.9307 334.83 58.2139 334.728 58.5654L334.735 64H332.955V58.7852C332.931 57.8525 332.455 57.3862 331.527 57.3862C330.814 57.3862 330.309 57.6768 330.011 58.2578V64H328.231V56.0752H329.908ZM346.021 64C345.943 63.8486 345.875 63.6021 345.816 63.2603C345.25 63.8511 344.557 64.1465 343.736 64.1465C342.94 64.1465 342.291 63.9194 341.788 63.4653C341.285 63.0112 341.034 62.4497 341.034 61.7808C341.034 60.936 341.346 60.2891 341.971 59.8398C342.601 59.3857 343.5 59.1587 344.667 59.1587H345.758V58.6387C345.758 58.2285 345.643 57.9014 345.414 57.6572C345.184 57.4082 344.835 57.2837 344.366 57.2837C343.961 57.2837 343.629 57.3862 343.37 57.5913C343.111 57.7915 342.982 58.0479 342.982 58.3604H341.202C341.202 57.9258 341.346 57.5205 341.634 57.1445C341.922 56.7637 342.313 56.4658 342.806 56.251C343.304 56.0361 343.858 55.9287 344.469 55.9287C345.396 55.9287 346.136 56.1631 346.688 56.6318C347.24 57.0957 347.523 57.75 347.538 58.5947V62.1689C347.538 62.8818 347.638 63.4507 347.838 63.8755V64H346.021ZM344.066 62.7183C344.417 62.7183 344.747 62.6328 345.055 62.4619C345.367 62.291 345.602 62.0615 345.758 61.7734V60.2793H344.798C344.139 60.2793 343.644 60.394 343.312 60.6235C342.979 60.853 342.813 61.1777 342.813 61.5977C342.813 61.9395 342.926 62.2129 343.15 62.418C343.38 62.6182 343.685 62.7183 344.066 62.7183ZM351.295 64H349.515V56.0752H351.295V64ZM349.405 54.0171C349.405 53.7437 349.491 53.5166 349.662 53.3359C349.837 53.1553 350.086 53.0649 350.409 53.0649C350.731 53.0649 350.98 53.1553 351.156 53.3359C351.332 53.5166 351.419 53.7437 351.419 54.0171C351.419 54.2856 351.332 54.5103 351.156 54.6909C350.98 54.8667 350.731 54.9546 350.409 54.9546C350.086 54.9546 349.837 54.8667 349.662 54.6909C349.491 54.5103 349.405 54.2856 349.405 54.0171ZM354.891 56.0752L354.942 56.9907C355.528 56.2827 356.297 55.9287 357.25 55.9287C358.9 55.9287 359.74 56.8735 359.769 58.7632V64H357.989V58.8657C357.989 58.3628 357.879 57.9917 357.66 57.7524C357.445 57.5083 357.091 57.3862 356.598 57.3862C355.88 57.3862 355.345 57.7109 354.994 58.3604V64H353.214V56.0752H354.891Z" fill="#1E73FF"/>
<path d="M344 75L341.402 70.5L346.598 70.5L344 75Z" fill="#1E73FF"/>
<path d="M547.799 61.8467C547.799 61.5293 547.667 61.2876 547.403 61.1216C547.145 60.9556 546.712 60.8091 546.107 60.6821C545.501 60.5552 544.996 60.394 544.591 60.1987C543.702 59.769 543.258 59.1465 543.258 58.3311C543.258 57.6475 543.546 57.0762 544.122 56.6172C544.698 56.1582 545.431 55.9287 546.319 55.9287C547.267 55.9287 548.031 56.1631 548.612 56.6318C549.198 57.1006 549.491 57.7085 549.491 58.4556H547.711C547.711 58.1138 547.584 57.8306 547.33 57.606C547.076 57.3765 546.739 57.2617 546.319 57.2617C545.929 57.2617 545.609 57.3521 545.36 57.5327C545.116 57.7134 544.994 57.9551 544.994 58.2578C544.994 58.5312 545.108 58.7437 545.338 58.895C545.567 59.0464 546.031 59.2002 546.729 59.3564C547.428 59.5078 547.975 59.6909 548.37 59.9058C548.771 60.1157 549.066 60.3696 549.256 60.6675C549.452 60.9653 549.549 61.3267 549.549 61.7515C549.549 62.4644 549.254 63.043 548.663 63.4873C548.072 63.9268 547.298 64.1465 546.341 64.1465C545.692 64.1465 545.113 64.0293 544.605 63.7949C544.098 63.5605 543.702 63.2383 543.419 62.8281C543.136 62.418 542.994 61.9761 542.994 61.5024H544.723C544.747 61.9224 544.906 62.2471 545.199 62.4766C545.492 62.7012 545.88 62.8135 546.363 62.8135C546.832 62.8135 547.188 62.7256 547.433 62.5498C547.677 62.3691 547.799 62.1348 547.799 61.8467ZM552.999 64H551.219V56.0752H552.999V64ZM551.109 54.0171C551.109 53.7437 551.195 53.5166 551.366 53.3359C551.542 53.1553 551.791 53.0649 552.113 53.0649C552.435 53.0649 552.684 53.1553 552.86 53.3359C553.036 53.5166 553.124 53.7437 553.124 54.0171C553.124 54.2856 553.036 54.5103 552.86 54.6909C552.684 54.8667 552.435 54.9546 552.113 54.9546C551.791 54.9546 551.542 54.8667 551.366 54.6909C551.195 54.5103 551.109 54.2856 551.109 54.0171ZM554.61 59.979C554.61 58.7583 554.894 57.7793 555.46 57.042C556.026 56.2998 556.786 55.9287 557.738 55.9287C558.578 55.9287 559.256 56.2217 559.774 56.8076V52.75H561.554V64H559.942L559.854 63.1797C559.322 63.8242 558.612 64.1465 557.723 64.1465C556.795 64.1465 556.043 63.7729 555.467 63.0259C554.896 62.2788 554.61 61.2632 554.61 59.979ZM556.39 60.1328C556.39 60.9385 556.544 61.5684 556.852 62.0225C557.164 62.4717 557.606 62.6963 558.177 62.6963C558.905 62.6963 559.437 62.3716 559.774 61.7222V58.3384C559.447 57.7036 558.919 57.3862 558.192 57.3862C557.616 57.3862 557.171 57.6157 556.859 58.0747C556.546 58.5288 556.39 59.2148 556.39 60.1328ZM566.9 64.1465C565.772 64.1465 564.857 63.7925 564.154 63.0845C563.456 62.3716 563.106 61.4243 563.106 60.2427V60.0229C563.106 59.2319 563.258 58.5264 563.561 57.9062C563.868 57.2812 564.298 56.7954 564.85 56.4487C565.401 56.1021 566.017 55.9287 566.695 55.9287C567.774 55.9287 568.607 56.2729 569.193 56.9614C569.784 57.6499 570.079 58.624 570.079 59.8838V60.6016H564.901C564.955 61.2559 565.172 61.7734 565.553 62.1543C565.938 62.5352 566.422 62.7256 567.003 62.7256C567.818 62.7256 568.482 62.396 568.995 61.7368L569.955 62.6523C569.637 63.126 569.212 63.4946 568.68 63.7583C568.153 64.0171 567.56 64.1465 566.9 64.1465ZM566.688 57.3569C566.2 57.3569 565.804 57.5278 565.501 57.8696C565.204 58.2114 565.013 58.6875 564.93 59.2979H568.321V59.166C568.282 58.5703 568.124 58.1211 567.845 57.8184C567.567 57.5107 567.181 57.3569 566.688 57.3569Z" fill="#1E73FF"/>
<path d="M556 75L553.402 70.5L558.598 70.5L556 75Z" fill="#1E73FF"/>
<path d="M650.108 64H648.328V52.75H650.108V64ZM656.788 64C656.709 63.8486 656.641 63.6021 656.583 63.2603C656.016 63.8511 655.323 64.1465 654.502 64.1465C653.707 64.1465 653.057 63.9194 652.554 63.4653C652.051 63.0112 651.8 62.4497 651.8 61.7808C651.8 60.936 652.112 60.2891 652.737 59.8398C653.367 59.3857 654.266 59.1587 655.433 59.1587H656.524V58.6387C656.524 58.2285 656.409 57.9014 656.18 57.6572C655.95 57.4082 655.601 57.2837 655.132 57.2837C654.727 57.2837 654.395 57.3862 654.136 57.5913C653.877 57.7915 653.748 58.0479 653.748 58.3604H651.968C651.968 57.9258 652.112 57.5205 652.4 57.1445C652.688 56.7637 653.079 56.4658 653.572 56.251C654.07 56.0361 654.625 55.9287 655.235 55.9287C656.163 55.9287 656.902 56.1631 657.454 56.6318C658.006 57.0957 658.289 57.75 658.304 58.5947V62.1689C658.304 62.8818 658.404 63.4507 658.604 63.8755V64H656.788ZM654.832 62.7183C655.184 62.7183 655.513 62.6328 655.821 62.4619C656.133 62.291 656.368 62.0615 656.524 61.7734V60.2793H655.564C654.905 60.2793 654.41 60.394 654.078 60.6235C653.746 60.853 653.58 61.1777 653.58 61.5977C653.58 61.9395 653.692 62.2129 653.917 62.418C654.146 62.6182 654.451 62.7183 654.832 62.7183ZM664.61 61.8467C664.61 61.5293 664.478 61.2876 664.214 61.1216C663.956 60.9556 663.523 60.8091 662.918 60.6821C662.312 60.5552 661.807 60.394 661.402 60.1987C660.513 59.769 660.069 59.1465 660.069 58.3311C660.069 57.6475 660.357 57.0762 660.933 56.6172C661.509 56.1582 662.242 55.9287 663.13 55.9287C664.078 55.9287 664.842 56.1631 665.423 56.6318C666.009 57.1006 666.302 57.7085 666.302 58.4556H664.522C664.522 58.1138 664.395 57.8306 664.141 57.606C663.887 57.3765 663.55 57.2617 663.13 57.2617C662.74 57.2617 662.42 57.3521 662.171 57.5327C661.927 57.7134 661.805 57.9551 661.805 58.2578C661.805 58.5312 661.919 58.7437 662.149 58.895C662.378 59.0464 662.842 59.2002 663.541 59.3564C664.239 59.5078 664.786 59.6909 665.181 59.9058C665.582 60.1157 665.877 60.3696 666.067 60.6675C666.263 60.9653 666.36 61.3267 666.36 61.7515C666.36 62.4644 666.065 63.043 665.474 63.4873C664.883 63.9268 664.109 64.1465 663.152 64.1465C662.503 64.1465 661.924 64.0293 661.417 63.7949C660.909 63.5605 660.513 63.2383 660.23 62.8281C659.947 62.418 659.805 61.9761 659.805 61.5024H661.534C661.558 61.9224 661.717 62.2471 662.01 62.4766C662.303 62.7012 662.691 62.8135 663.174 62.8135C663.643 62.8135 664 62.7256 664.244 62.5498C664.488 62.3691 664.61 62.1348 664.61 61.8467ZM670.147 54.1489V56.0752H671.546V57.3936H670.147V61.8174C670.147 62.1201 670.206 62.3398 670.323 62.4766C670.445 62.6084 670.66 62.6743 670.967 62.6743C671.172 62.6743 671.38 62.6499 671.59 62.6011V63.978C671.185 64.0903 670.794 64.1465 670.418 64.1465C669.051 64.1465 668.367 63.3921 668.367 61.8833V57.3936H667.063V56.0752H668.367V54.1489H670.147Z" fill="#1E73FF"/>
<path d="M662 75L659.402 70.5L664.598 70.5L662 75Z" fill="#1E73FF"/>
</svg>
