<svg width="272" height="221" viewBox="0 0 272 221" fill="none" xmlns="http://www.w3.org/2000/svg">
<rect x="46.5" y="30.5" width="130" height="190" fill="white"/>
<path d="M111.5 31L111.5 220" stroke="#BBBBBB" stroke-dasharray="3 2"/>
<path d="M47 125.5L176 125.5" stroke="#BBBBBB" stroke-dasharray="3 2"/>
<rect x="46.5" y="30.5" width="130" height="190" stroke="#666666"/>
<path d="M191.5 31L191.5 220" stroke="#BBBBBB" stroke-dasharray="3 2"/>
<path d="M206.5 30L206.5 219" stroke="#BBBBBB" stroke-dasharray="3 2"/>
<path d="M271.5 30L271.5 221" stroke="#BBBBBB" stroke-dasharray="3 2"/>
<path d="M177 30.5L272 30.5" stroke="#BBBBBB" stroke-dasharray="3 2"/>
<path d="M177 125.5L272 125.5" stroke="#BBBBBB" stroke-dasharray="3 2"/>
<path d="M177 220.5L272 220.5" stroke="#BBBBBB" stroke-dasharray="3 2"/>
<path d="M46.5 26V18.5H111.5V26" stroke="#1E73FF" stroke-dasharray="3 2"/>
<path d="M70.7212 2.71338V3.98926H70.5308C69.6675 4.00195 68.9777 4.23893 68.4614 4.7002C67.9451 5.16146 67.6383 5.81527 67.541 6.66162C68.0361 6.14111 68.6688 5.88086 69.439 5.88086C70.2557 5.88086 70.8989 6.16862 71.3687 6.74414C71.8426 7.31966 72.0796 8.06234 72.0796 8.97217C72.0796 9.91162 71.8024 10.6733 71.248 11.2573C70.6979 11.8371 69.9743 12.127 69.0771 12.127C68.1546 12.127 67.4056 11.7863 66.8301 11.105C66.2588 10.4237 65.9731 9.53076 65.9731 8.42627V7.89941C65.9731 6.27865 66.3667 5.00911 67.1538 4.09082C67.9451 3.17253 69.0814 2.71338 70.5625 2.71338H70.7212ZM69.0645 7.125C68.7259 7.125 68.4149 7.22021 68.1313 7.41064C67.8521 7.60107 67.6468 7.85498 67.5156 8.17236V8.64209C67.5156 9.32764 67.6595 9.87354 67.9473 10.2798C68.235 10.6818 68.6074 10.8828 69.0645 10.8828C69.5215 10.8828 69.8833 10.7114 70.1499 10.3687C70.4165 10.0259 70.5498 9.5752 70.5498 9.0166C70.5498 8.45801 70.4144 8.00309 70.1436 7.65186C69.8727 7.30062 69.513 7.125 69.0645 7.125ZM79.335 8.10889C79.335 9.43766 79.0853 10.4406 78.5859 11.1177C78.0908 11.7905 77.3354 12.127 76.3198 12.127C75.3211 12.127 74.5679 11.799 74.0601 11.1431C73.5565 10.4829 73.2983 9.50749 73.2856 8.2168V6.61719C73.2856 5.28841 73.5332 4.29183 74.0283 3.62744C74.5277 2.96305 75.2873 2.63086 76.3071 2.63086C77.3185 2.63086 78.0718 2.95459 78.5669 3.60205C79.0662 4.24951 79.3223 5.21859 79.335 6.50928V8.10889ZM77.7925 6.38232C77.7925 5.51481 77.674 4.88005 77.437 4.47803C77.2 4.07178 76.8234 3.86865 76.3071 3.86865C75.8035 3.86865 75.4333 4.0612 75.1963 4.44629C74.9593 4.82715 74.8345 5.42383 74.8218 6.23633V8.33105C74.8218 9.19434 74.9424 9.83757 75.1836 10.2607C75.4248 10.6839 75.8035 10.8955 76.3198 10.8955C76.8149 10.8955 77.181 10.7008 77.418 10.3115C77.6549 9.91797 77.7798 9.30436 77.7925 8.4707V6.38232ZM86.8125 8.63574C86.8125 9.69792 86.5713 10.5464 86.0889 11.1812C85.6064 11.8117 84.959 12.127 84.1465 12.127C83.3932 12.127 82.7902 11.8794 82.3374 11.3843V14.6406H80.7949V5.13184H82.2168L82.2803 5.83008C82.7331 5.27995 83.3488 5.00488 84.1274 5.00488C84.9653 5.00488 85.6213 5.31803 86.0952 5.94434C86.5734 6.56641 86.8125 7.4318 86.8125 8.54053V8.63574ZM85.2764 8.50244C85.2764 7.81689 85.1388 7.27311 84.8638 6.87109C84.5929 6.46908 84.2036 6.26807 83.6958 6.26807C83.0653 6.26807 82.6125 6.52832 82.3374 7.04883V10.0957C82.6167 10.6289 83.0737 10.8955 83.7085 10.8955C84.1994 10.8955 84.5824 10.6987 84.8574 10.3052C85.1367 9.90739 85.2764 9.30648 85.2764 8.50244ZM90.4878 7.3916L91.7954 5.13184H93.5093L91.4082 8.51514L93.5791 12H91.8779L90.5068 9.65137L89.1421 12H87.4282L89.5991 8.51514L87.5044 5.13184H89.2056L90.4878 7.3916Z" fill="#1E73FF"/>
<path d="M34.5 125.5L34.5 30.5L42 30.5" stroke="#1E73FF" stroke-dasharray="3 2"/>
<path d="M42 220.5L34.5 220.5L34.5 125.5L42 125.5" stroke="#1E73FF" stroke-dasharray="3 2"/>
<path d="M111.5 18.5H176.5V26" stroke="#1E73FF" stroke-dasharray="3 2"/>
<path d="M135.721 2.71338V3.98926H135.531C134.667 4.00195 133.978 4.23893 133.461 4.7002C132.945 5.16146 132.638 5.81527 132.541 6.66162C133.036 6.14111 133.669 5.88086 134.439 5.88086C135.256 5.88086 135.899 6.16862 136.369 6.74414C136.843 7.31966 137.08 8.06234 137.08 8.97217C137.08 9.91162 136.802 10.6733 136.248 11.2573C135.698 11.8371 134.974 12.127 134.077 12.127C133.155 12.127 132.406 11.7863 131.83 11.105C131.259 10.4237 130.973 9.53076 130.973 8.42627V7.89941C130.973 6.27865 131.367 5.00911 132.154 4.09082C132.945 3.17253 134.081 2.71338 135.562 2.71338H135.721ZM134.064 7.125C133.726 7.125 133.415 7.22021 133.131 7.41064C132.852 7.60107 132.647 7.85498 132.516 8.17236V8.64209C132.516 9.32764 132.66 9.87354 132.947 10.2798C133.235 10.6818 133.607 10.8828 134.064 10.8828C134.521 10.8828 134.883 10.7114 135.15 10.3687C135.417 10.0259 135.55 9.5752 135.55 9.0166C135.55 8.45801 135.414 8.00309 135.144 7.65186C134.873 7.30062 134.513 7.125 134.064 7.125ZM144.335 8.10889C144.335 9.43766 144.085 10.4406 143.586 11.1177C143.091 11.7905 142.335 12.127 141.32 12.127C140.321 12.127 139.568 11.799 139.06 11.1431C138.556 10.4829 138.298 9.50749 138.286 8.2168V6.61719C138.286 5.28841 138.533 4.29183 139.028 3.62744C139.528 2.96305 140.287 2.63086 141.307 2.63086C142.319 2.63086 143.072 2.95459 143.567 3.60205C144.066 4.24951 144.322 5.21859 144.335 6.50928V8.10889ZM142.792 6.38232C142.792 5.51481 142.674 4.88005 142.437 4.47803C142.2 4.07178 141.823 3.86865 141.307 3.86865C140.804 3.86865 140.433 4.0612 140.196 4.44629C139.959 4.82715 139.834 5.42383 139.822 6.23633V8.33105C139.822 9.19434 139.942 9.83757 140.184 10.2607C140.425 10.6839 140.804 10.8955 141.32 10.8955C141.815 10.8955 142.181 10.7008 142.418 10.3115C142.655 9.91797 142.78 9.30436 142.792 8.4707V6.38232ZM151.812 8.63574C151.812 9.69792 151.571 10.5464 151.089 11.1812C150.606 11.8117 149.959 12.127 149.146 12.127C148.393 12.127 147.79 11.8794 147.337 11.3843V14.6406H145.795V5.13184H147.217L147.28 5.83008C147.733 5.27995 148.349 5.00488 149.127 5.00488C149.965 5.00488 150.621 5.31803 151.095 5.94434C151.573 6.56641 151.812 7.4318 151.812 8.54053V8.63574ZM150.276 8.50244C150.276 7.81689 150.139 7.27311 149.864 6.87109C149.593 6.46908 149.204 6.26807 148.696 6.26807C148.065 6.26807 147.612 6.52832 147.337 7.04883V10.0957C147.617 10.6289 148.074 10.8955 148.708 10.8955C149.199 10.8955 149.582 10.6987 149.857 10.3052C150.137 9.90739 150.276 9.30648 150.276 8.50244ZM155.488 7.3916L156.795 5.13184H158.509L156.408 8.51514L158.579 12H156.878L155.507 9.65137L154.142 12H152.428L154.599 8.51514L152.504 5.13184H154.206L155.488 7.3916Z" fill="#1E73FF"/>
<path d="M206.5 18.5H271.5V26" stroke="#1E73FF" stroke-dasharray="3 2"/>
<path d="M230.996 12C230.928 11.8688 230.869 11.6551 230.818 11.3589C230.327 11.8709 229.726 12.127 229.015 12.127C228.325 12.127 227.763 11.9302 227.327 11.5366C226.891 11.1431 226.673 10.6564 226.673 10.0767C226.673 9.34456 226.944 8.78385 227.485 8.39453C228.031 8.00098 228.81 7.8042 229.821 7.8042H230.767V7.35352C230.767 6.99805 230.668 6.71452 230.469 6.50293C230.27 6.28711 229.967 6.1792 229.561 6.1792C229.21 6.1792 228.922 6.26807 228.698 6.4458C228.473 6.6193 228.361 6.84147 228.361 7.1123H226.819C226.819 6.73568 226.944 6.38444 227.193 6.05859C227.443 5.72852 227.782 5.47038 228.209 5.28418C228.641 5.09798 229.121 5.00488 229.65 5.00488C230.454 5.00488 231.095 5.20801 231.573 5.61426C232.051 6.01628 232.297 6.58333 232.31 7.31543V10.4131C232.31 11.0309 232.396 11.5239 232.57 11.8921V12H230.996ZM229.301 10.8892C229.605 10.8892 229.891 10.8151 230.158 10.667C230.429 10.5189 230.632 10.32 230.767 10.0703V8.77539H229.936C229.364 8.77539 228.935 8.87484 228.647 9.07373C228.359 9.27262 228.215 9.55404 228.215 9.91797C228.215 10.2142 228.313 10.4512 228.507 10.6289C228.706 10.8024 228.971 10.8892 229.301 10.8892ZM238.086 11.3271C237.633 11.8604 236.99 12.127 236.156 12.127C235.411 12.127 234.847 11.909 234.461 11.4731C234.081 11.0373 233.89 10.4067 233.89 9.58154V5.13184H235.433V9.5625C235.433 10.4342 235.794 10.8701 236.518 10.8701C237.267 10.8701 237.773 10.6014 238.035 10.064V5.13184H239.578V12H238.124L238.086 11.3271ZM243.082 3.4624V5.13184H244.294V6.27441H243.082V10.1084C243.082 10.3708 243.132 10.5612 243.234 10.6797C243.34 10.7939 243.526 10.8511 243.792 10.8511C243.97 10.8511 244.15 10.8299 244.332 10.7876V11.981C243.981 12.0783 243.642 12.127 243.316 12.127C242.132 12.127 241.539 11.4731 241.539 10.1655V6.27441H240.409V5.13184H241.539V3.4624H243.082ZM244.999 8.50244C244.999 7.82959 245.132 7.22445 245.398 6.68701C245.665 6.14535 246.04 5.73063 246.522 5.44287C247.004 5.15088 247.559 5.00488 248.185 5.00488C249.112 5.00488 249.863 5.30322 250.438 5.8999C251.018 6.49658 251.331 7.28792 251.378 8.27393L251.384 8.63574C251.384 9.31283 251.253 9.91797 250.991 10.4512C250.733 10.9844 250.36 11.397 249.874 11.689C249.391 11.981 248.833 12.127 248.198 12.127C247.229 12.127 246.452 11.8053 245.868 11.1621C245.288 10.5146 244.999 9.65348 244.999 8.57861V8.50244ZM246.541 8.63574C246.541 9.34245 246.687 9.89681 246.979 10.2988C247.271 10.6966 247.677 10.8955 248.198 10.8955C248.718 10.8955 249.122 10.6924 249.41 10.2861C249.702 9.87988 249.848 9.28532 249.848 8.50244C249.848 7.80843 249.698 7.2583 249.397 6.85205C249.101 6.4458 248.697 6.24268 248.185 6.24268C247.681 6.24268 247.282 6.44368 246.985 6.8457C246.689 7.24349 246.541 7.84017 246.541 8.63574Z" fill="#1E73FF"/>
<path d="M176.5 26V18.5H191.5V26" stroke="#E44D26" stroke-dasharray="3 2"/>
<path d="M187.021 8.10889C187.021 9.43766 186.772 10.4406 186.272 11.1177C185.777 11.7905 185.022 12.127 184.006 12.127C183.008 12.127 182.254 11.799 181.747 11.1431C181.243 10.4829 180.985 9.50749 180.972 8.2168V6.61719C180.972 5.28841 181.22 4.29183 181.715 3.62744C182.214 2.96305 182.974 2.63086 183.994 2.63086C185.005 2.63086 185.758 2.95459 186.253 3.60205C186.753 4.24951 187.009 5.21859 187.021 6.50928V8.10889ZM185.479 6.38232C185.479 5.51481 185.361 4.88005 185.124 4.47803C184.887 4.07178 184.51 3.86865 183.994 3.86865C183.49 3.86865 183.12 4.0612 182.883 4.44629C182.646 4.82715 182.521 5.42383 182.508 6.23633V8.33105C182.508 9.19434 182.629 9.83757 182.87 10.2607C183.111 10.6839 183.49 10.8955 184.006 10.8955C184.501 10.8955 184.868 10.7008 185.104 10.3115C185.341 9.91797 185.466 9.30436 185.479 8.4707V6.38232Z" fill="#E44D26"/>
<path d="M191.5 18.5H206.5V26" stroke="#E44D26" stroke-dasharray="3 2"/>
<path d="M202.021 8.10889C202.021 9.43766 201.772 10.4406 201.272 11.1177C200.777 11.7905 200.022 12.127 199.006 12.127C198.008 12.127 197.254 11.799 196.747 11.1431C196.243 10.4829 195.985 9.50749 195.972 8.2168V6.61719C195.972 5.28841 196.22 4.29183 196.715 3.62744C197.214 2.96305 197.974 2.63086 198.994 2.63086C200.005 2.63086 200.758 2.95459 201.253 3.60205C201.753 4.24951 202.009 5.21859 202.021 6.50928V8.10889ZM200.479 6.38232C200.479 5.51481 200.361 4.88005 200.124 4.47803C199.887 4.07178 199.51 3.86865 198.994 3.86865C198.49 3.86865 198.12 4.0612 197.883 4.44629C197.646 4.82715 197.521 5.42383 197.508 6.23633V8.33105C197.508 9.19434 197.629 9.83757 197.87 10.2607C198.111 10.6839 198.49 10.8955 199.006 10.8955C199.501 10.8955 199.868 10.7008 200.104 10.3115C200.341 9.91797 200.466 9.30436 200.479 8.4707V6.38232Z" fill="#E44D26"/>
<path d="M5.52637 174.134C5.01009 174.68 4.40706 174.953 3.71729 174.953C2.90479 174.953 2.25732 174.67 1.7749 174.103C1.29248 173.531 1.05127 172.782 1.05127 171.855C1.05127 171.246 1.17399 170.694 1.41943 170.199C1.66488 169.704 2.014 169.319 2.4668 169.043C2.9196 168.768 3.44434 168.631 4.04102 168.631C4.97201 168.631 5.71045 168.978 6.25635 169.672C6.80225 170.366 7.0752 171.295 7.0752 172.458V172.89C7.0752 174.557 6.69857 175.829 5.94531 176.705C5.19206 177.581 4.06852 178.025 2.57471 178.038H2.39062V176.762H2.61279C3.52262 176.75 4.22087 176.532 4.70752 176.108C5.19417 175.681 5.46712 175.023 5.52637 174.134ZM4.04102 173.747C4.34993 173.747 4.63981 173.658 4.91064 173.48C5.18148 173.303 5.39095 173.057 5.53906 172.744V172.141C5.53906 171.46 5.39941 170.912 5.12012 170.497C4.84082 170.082 4.479 169.875 4.03467 169.875C3.59033 169.875 3.23486 170.059 2.96826 170.427C2.70589 170.791 2.57471 171.252 2.57471 171.811C2.57471 172.391 2.70801 172.858 2.97461 173.214C3.24121 173.569 3.59668 173.747 4.04102 173.747ZM14.5654 174.109C14.5654 175.438 14.3158 176.441 13.8164 177.118C13.3213 177.791 12.5659 178.127 11.5503 178.127C10.5516 178.127 9.79834 177.799 9.29053 177.143C8.78695 176.483 8.52881 175.507 8.51611 174.217V172.617C8.51611 171.288 8.76367 170.292 9.25879 169.627C9.75814 168.963 10.5177 168.631 11.5376 168.631C12.549 168.631 13.3022 168.955 13.7974 169.602C14.2967 170.25 14.5527 171.219 14.5654 172.509V174.109ZM13.0229 172.382C13.0229 171.515 12.9045 170.88 12.6675 170.478C12.4305 170.072 12.0539 169.869 11.5376 169.869C11.034 169.869 10.6637 170.061 10.4268 170.446C10.1898 170.827 10.0649 171.424 10.0522 172.236V174.331C10.0522 175.194 10.1729 175.838 10.4141 176.261C10.6553 176.684 11.034 176.896 11.5503 176.896C12.0454 176.896 12.4115 176.701 12.6484 176.312C12.8854 175.918 13.0103 175.304 13.0229 174.471V172.382ZM22.043 174.636C22.043 175.698 21.8018 176.546 21.3193 177.181C20.8369 177.812 20.1895 178.127 19.377 178.127C18.6237 178.127 18.0207 177.879 17.5679 177.384V180.641H16.0254V171.132H17.4473L17.5107 171.83C17.9635 171.28 18.5793 171.005 19.3579 171.005C20.1958 171.005 20.8517 171.318 21.3257 171.944C21.8039 172.566 22.043 173.432 22.043 174.541V174.636ZM20.5068 174.502C20.5068 173.817 20.3693 173.273 20.0942 172.871C19.8234 172.469 19.4341 172.268 18.9263 172.268C18.2957 172.268 17.8429 172.528 17.5679 173.049V176.096C17.8472 176.629 18.3042 176.896 18.939 176.896C19.4299 176.896 19.8128 176.699 20.0879 176.305C20.3672 175.907 20.5068 175.306 20.5068 174.502ZM25.7183 173.392L27.0259 171.132H28.7397L26.6387 174.515L28.8096 178H27.1084L25.7373 175.651L24.3726 178H22.6587L24.8296 174.515L22.7349 171.132H24.436L25.7183 173.392Z" fill="#1E73FF"/>
<path d="M5.52637 78.1343C5.01009 78.6802 4.40706 78.9531 3.71729 78.9531C2.90479 78.9531 2.25732 78.6696 1.7749 78.1025C1.29248 77.5312 1.05127 76.7822 1.05127 75.8555C1.05127 75.2461 1.17399 74.6938 1.41943 74.1987C1.66488 73.7036 2.014 73.3185 2.4668 73.0435C2.9196 72.7684 3.44434 72.6309 4.04102 72.6309C4.97201 72.6309 5.71045 72.9779 6.25635 73.6719C6.80225 74.3659 7.0752 75.2948 7.0752 76.4585V76.8901C7.0752 78.5575 6.69857 79.8291 5.94531 80.7051C5.19206 81.5811 4.06852 82.0254 2.57471 82.0381H2.39062V80.7622H2.61279C3.52262 80.7495 4.22087 80.5316 4.70752 80.1084C5.19417 79.681 5.46712 79.0229 5.52637 78.1343ZM4.04102 77.7471C4.34993 77.7471 4.63981 77.6582 4.91064 77.4805C5.18148 77.3027 5.39095 77.0573 5.53906 76.7441V76.1411C5.53906 75.4598 5.39941 74.9118 5.12012 74.4971C4.84082 74.0824 4.479 73.875 4.03467 73.875C3.59033 73.875 3.23486 74.0591 2.96826 74.4272C2.70589 74.7912 2.57471 75.2524 2.57471 75.811C2.57471 76.3908 2.70801 76.8584 2.97461 77.2139C3.24121 77.5693 3.59668 77.7471 4.04102 77.7471ZM14.5654 78.1089C14.5654 79.4377 14.3158 80.4406 13.8164 81.1177C13.3213 81.7905 12.5659 82.127 11.5503 82.127C10.5516 82.127 9.79834 81.799 9.29053 81.1431C8.78695 80.4829 8.52881 79.5075 8.51611 78.2168V76.6172C8.51611 75.2884 8.76367 74.2918 9.25879 73.6274C9.75814 72.9631 10.5177 72.6309 11.5376 72.6309C12.549 72.6309 13.3022 72.9546 13.7974 73.6021C14.2967 74.2495 14.5527 75.2186 14.5654 76.5093V78.1089ZM13.0229 76.3823C13.0229 75.5148 12.9045 74.88 12.6675 74.478C12.4305 74.0718 12.0539 73.8687 11.5376 73.8687C11.034 73.8687 10.6637 74.0612 10.4268 74.4463C10.1898 74.8271 10.0649 75.4238 10.0522 76.2363V78.3311C10.0522 79.1943 10.1729 79.8376 10.4141 80.2607C10.6553 80.6839 11.034 80.8955 11.5503 80.8955C12.0454 80.8955 12.4115 80.7008 12.6484 80.3115C12.8854 79.918 13.0103 79.3044 13.0229 78.4707V76.3823ZM22.043 78.6357C22.043 79.6979 21.8018 80.5464 21.3193 81.1812C20.8369 81.8117 20.1895 82.127 19.377 82.127C18.6237 82.127 18.0207 81.8794 17.5679 81.3843V84.6406H16.0254V75.1318H17.4473L17.5107 75.8301C17.9635 75.2799 18.5793 75.0049 19.3579 75.0049C20.1958 75.0049 20.8517 75.318 21.3257 75.9443C21.8039 76.5664 22.043 77.4318 22.043 78.5405V78.6357ZM20.5068 78.5024C20.5068 77.8169 20.3693 77.2731 20.0942 76.8711C19.8234 76.4691 19.4341 76.2681 18.9263 76.2681C18.2957 76.2681 17.8429 76.5283 17.5679 77.0488V80.0957C17.8472 80.6289 18.3042 80.8955 18.939 80.8955C19.4299 80.8955 19.8128 80.6987 20.0879 80.3052C20.3672 79.9074 20.5068 79.3065 20.5068 78.5024ZM25.7183 77.3916L27.0259 75.1318H28.7397L26.6387 78.5151L28.8096 82H27.1084L25.7373 79.6514L24.3726 82H22.6587L24.8296 78.5151L22.7349 75.1318H24.436L25.7183 77.3916Z" fill="#1E73FF"/>
<path d="M49 133C49 130.239 51.2386 128 54 128H104C106.761 128 109 130.239 109 133V213C109 215.761 106.761 218 104 218H54C51.2386 218 49 215.761 49 213V133Z" fill="#00986B"/>
<path d="M57.4375 175.325C57.7695 175.325 58.0259 175.42 58.2065 175.611C58.3872 175.796 58.4775 176.031 58.4775 176.314C58.4775 176.592 58.3872 176.824 58.2065 177.01C58.0259 177.19 57.7695 177.281 57.4375 177.281C57.1201 177.281 56.8687 177.19 56.6831 177.01C56.4976 176.829 56.4048 176.597 56.4048 176.314C56.4048 176.031 56.4951 175.796 56.6758 175.611C56.8564 175.42 57.1104 175.325 57.4375 175.325ZM62.4106 177.2H60.6309V169.275H62.4106V177.2ZM60.521 167.217C60.521 166.944 60.6064 166.717 60.7773 166.536C60.9531 166.355 61.2021 166.265 61.5244 166.265C61.8467 166.265 62.0957 166.355 62.2715 166.536C62.4473 166.717 62.5352 166.944 62.5352 167.217C62.5352 167.486 62.4473 167.71 62.2715 167.891C62.0957 168.067 61.8467 168.155 61.5244 168.155C61.2021 168.155 60.9531 168.067 60.7773 167.891C60.6064 167.71 60.521 167.486 60.521 167.217ZM66.5854 167.349V169.275H67.9844V170.594H66.5854V175.017C66.5854 175.32 66.644 175.54 66.7612 175.677C66.8833 175.808 67.0981 175.874 67.4058 175.874C67.6108 175.874 67.8184 175.85 68.0283 175.801V177.178C67.623 177.29 67.2324 177.347 66.8564 177.347C65.4893 177.347 64.8057 176.592 64.8057 175.083V170.594H63.502V169.275H64.8057V167.349H66.5854ZM72.8403 177.347C71.7124 177.347 70.7969 176.993 70.0938 176.285C69.3955 175.572 69.0464 174.624 69.0464 173.443V173.223C69.0464 172.432 69.1978 171.726 69.5005 171.106C69.8081 170.481 70.2378 169.995 70.7896 169.649C71.3413 169.302 71.9565 169.129 72.6353 169.129C73.7144 169.129 74.5469 169.473 75.1328 170.161C75.7236 170.85 76.019 171.824 76.019 173.084V173.802H70.8408C70.8945 174.456 71.1118 174.974 71.4927 175.354C71.8784 175.735 72.3618 175.926 72.9429 175.926C73.7583 175.926 74.4224 175.596 74.9351 174.937L75.8945 175.852C75.5771 176.326 75.1523 176.695 74.6201 176.958C74.0928 177.217 73.4995 177.347 72.8403 177.347ZM72.6279 170.557C72.1396 170.557 71.7441 170.728 71.4414 171.07C71.1436 171.411 70.9531 171.888 70.8701 172.498H74.2612V172.366C74.2222 171.77 74.0635 171.321 73.7852 171.018C73.5068 170.711 73.1211 170.557 72.6279 170.557ZM79.0806 169.275L79.1318 170.103C79.6885 169.453 80.4502 169.129 81.417 169.129C82.4766 169.129 83.2017 169.534 83.5923 170.345C84.1685 169.534 84.979 169.129 86.0239 169.129C86.8979 169.129 87.5474 169.37 87.9722 169.854C88.4019 170.337 88.6216 171.05 88.6313 171.993V177.2H86.8516V172.044C86.8516 171.541 86.7417 171.172 86.522 170.938C86.3022 170.703 85.9385 170.586 85.4307 170.586C85.0254 170.586 84.6934 170.696 84.4346 170.916C84.1807 171.131 84.0024 171.414 83.8999 171.766L83.9072 177.2H82.1274V171.985C82.103 171.053 81.627 170.586 80.6992 170.586C79.9863 170.586 79.481 170.877 79.1831 171.458V177.2H77.4033V169.275H79.0806ZM93.9121 173.384H90.0669V171.949H93.9121V173.384ZM100.116 177.2C100.038 177.049 99.9692 176.802 99.9106 176.46C99.3442 177.051 98.6509 177.347 97.8306 177.347C97.0347 177.347 96.3853 177.12 95.8823 176.665C95.3794 176.211 95.1279 175.65 95.1279 174.981C95.1279 174.136 95.4404 173.489 96.0654 173.04C96.6953 172.586 97.5938 172.359 98.7607 172.359H99.8521V171.839C99.8521 171.429 99.7373 171.101 99.5078 170.857C99.2783 170.608 98.9292 170.484 98.4604 170.484C98.0552 170.484 97.7231 170.586 97.4644 170.791C97.2056 170.992 97.0762 171.248 97.0762 171.56H95.2964C95.2964 171.126 95.4404 170.721 95.7285 170.345C96.0166 169.964 96.4072 169.666 96.9004 169.451C97.3984 169.236 97.9526 169.129 98.563 169.129C99.4907 169.129 100.23 169.363 100.782 169.832C101.334 170.296 101.617 170.95 101.632 171.795V175.369C101.632 176.082 101.732 176.651 101.932 177.076V177.2H100.116ZM98.1602 175.918C98.5117 175.918 98.8413 175.833 99.1489 175.662C99.4614 175.491 99.6958 175.262 99.8521 174.974V173.479H98.8926C98.2334 173.479 97.7378 173.594 97.4058 173.824C97.0737 174.053 96.9077 174.378 96.9077 174.798C96.9077 175.14 97.02 175.413 97.2446 175.618C97.4741 175.818 97.7793 175.918 98.1602 175.918Z" fill="white"/>
<path d="M209 133C209 130.239 211.239 128 214 128H264C266.761 128 269 130.239 269 133V213C269 215.761 266.761 218 264 218H214C211.239 218 209 215.761 209 213V133Z" fill="#4961DD"/>
<path d="M217.269 175.325C217.601 175.325 217.857 175.42 218.038 175.611C218.219 175.796 218.309 176.031 218.309 176.314C218.309 176.592 218.219 176.824 218.038 177.01C217.857 177.19 217.601 177.281 217.269 177.281C216.952 177.281 216.7 177.19 216.515 177.01C216.329 176.829 216.236 176.597 216.236 176.314C216.236 176.031 216.327 175.796 216.507 175.611C216.688 175.42 216.942 175.325 217.269 175.325ZM222.242 177.2H220.462V169.275H222.242V177.2ZM220.353 167.217C220.353 166.944 220.438 166.717 220.609 166.536C220.785 166.355 221.034 166.265 221.356 166.265C221.678 166.265 221.927 166.355 222.103 166.536C222.279 166.717 222.367 166.944 222.367 167.217C222.367 167.486 222.279 167.71 222.103 167.891C221.927 168.067 221.678 168.155 221.356 168.155C221.034 168.155 220.785 168.067 220.609 167.891C220.438 167.71 220.353 167.486 220.353 167.217ZM226.417 167.349V169.275H227.816V170.594H226.417V175.017C226.417 175.32 226.476 175.54 226.593 175.677C226.715 175.808 226.93 175.874 227.237 175.874C227.442 175.874 227.65 175.85 227.86 175.801V177.178C227.455 177.29 227.064 177.347 226.688 177.347C225.321 177.347 224.637 176.592 224.637 175.083V170.594H223.333V169.275H224.637V167.349H226.417ZM232.672 177.347C231.544 177.347 230.628 176.993 229.925 176.285C229.227 175.572 228.878 174.624 228.878 173.443V173.223C228.878 172.432 229.029 171.726 229.332 171.106C229.64 170.481 230.069 169.995 230.621 169.649C231.173 169.302 231.788 169.129 232.467 169.129C233.546 169.129 234.378 169.473 234.964 170.161C235.555 170.85 235.851 171.824 235.851 173.084V173.802H230.672C230.726 174.456 230.943 174.974 231.324 175.354C231.71 175.735 232.193 175.926 232.774 175.926C233.59 175.926 234.254 175.596 234.767 174.937L235.726 175.852C235.409 176.326 234.984 176.695 234.452 176.958C233.924 177.217 233.331 177.347 232.672 177.347ZM232.459 170.557C231.971 170.557 231.576 170.728 231.273 171.07C230.975 171.411 230.785 171.888 230.702 172.498H234.093V172.366C234.054 171.77 233.895 171.321 233.617 171.018C233.338 170.711 232.953 170.557 232.459 170.557ZM238.912 169.275L238.963 170.103C239.52 169.453 240.282 169.129 241.249 169.129C242.308 169.129 243.033 169.534 243.424 170.345C244 169.534 244.811 169.129 245.855 169.129C246.729 169.129 247.379 169.37 247.804 169.854C248.233 170.337 248.453 171.05 248.463 171.993V177.2H246.683V172.044C246.683 171.541 246.573 171.172 246.354 170.938C246.134 170.703 245.77 170.586 245.262 170.586C244.857 170.586 244.525 170.696 244.266 170.916C244.012 171.131 243.834 171.414 243.731 171.766L243.739 177.2H241.959V171.985C241.935 171.053 241.458 170.586 240.531 170.586C239.818 170.586 239.312 170.877 239.015 171.458V177.2H237.235V169.275H238.912ZM253.744 173.384H249.898V171.949H253.744V173.384ZM262.167 173.318C262.167 174.549 261.891 175.528 261.339 176.255C260.792 176.983 260.038 177.347 259.076 177.347C258.148 177.347 257.425 177.012 256.908 176.343L256.82 177.2H255.208V165.95H256.988V170.037C257.501 169.432 258.192 169.129 259.061 169.129C260.028 169.129 260.787 169.488 261.339 170.205C261.891 170.923 262.167 171.927 262.167 173.216V173.318ZM260.387 173.164C260.387 172.305 260.235 171.661 259.933 171.231C259.63 170.801 259.19 170.586 258.614 170.586C257.843 170.586 257.301 170.923 256.988 171.597V174.864C257.306 175.552 257.853 175.896 258.629 175.896C259.186 175.896 259.615 175.689 259.918 175.274C260.221 174.859 260.377 174.231 260.387 173.391V173.164Z" fill="white"/>
</svg>
