<svg width="510" height="383" viewBox="0 0 510 383" fill="none" xmlns="http://www.w3.org/2000/svg">
<g opacity="0.8">
<rect width="510" height="360" transform="translate(0 23)" fill="#F7F7F7"/>
<path d="M19 30C19 28.8954 19.8954 28 21 28H35C36.1046 28 37 28.8954 37 30V39.1857C37 39.7167 36.7888 40.2259 36.413 40.6011L29.413 47.5894C28.6323 48.3688 27.3677 48.3688 26.587 47.5894L19.587 40.6011C19.2112 40.2259 19 39.7167 19 39.1857V30Z" fill="#CCCCCC"/>
<path d="M29.084 40H27.666V33.1504L25.5742 33.8652V32.6641L28.9023 31.4395H29.084V40Z" fill="white"/>
<path d="M108 30C108 28.8954 108.895 28 110 28H124C125.105 28 126 28.8954 126 30V39.1857C126 39.7167 125.789 40.2259 125.413 40.6011L118.413 47.5894C117.632 48.3688 116.368 48.3688 115.587 47.5894L108.587 40.6011C108.211 40.2259 108 39.7167 108 39.1857V30Z" fill="#CCCCCC"/>
<path d="M119.965 40H114.229V39.0215L117.07 35.9219C117.48 35.4648 117.771 35.084 117.943 34.7793C118.119 34.4707 118.207 34.1621 118.207 33.8535C118.207 33.4473 118.092 33.1191 117.861 32.8691C117.635 32.6191 117.328 32.4941 116.941 32.4941C116.48 32.4941 116.123 32.6348 115.869 32.916C115.615 33.1973 115.488 33.582 115.488 34.0703H114.064C114.064 33.5508 114.182 33.084 114.416 32.6699C114.654 32.252 114.992 31.9277 115.43 31.6973C115.871 31.4668 116.379 31.3516 116.953 31.3516C117.781 31.3516 118.434 31.5605 118.91 31.9785C119.391 32.3926 119.631 32.9668 119.631 33.7012C119.631 34.127 119.51 34.5742 119.268 35.043C119.029 35.5078 118.637 36.0371 118.09 36.6309L116.004 38.8633H119.965V40Z" fill="white"/>
<path d="M200 30C200 28.8954 200.895 28 202 28H216C217.105 28 218 28.8954 218 30V39.1857C218 39.7167 217.789 40.2259 217.413 40.6011L210.413 47.5894C209.632 48.3688 208.368 48.3688 207.587 47.5894L200.587 40.6011C200.211 40.2259 200 39.7167 200 39.1857V30Z" fill="#CCCCCC"/>
<path d="M207.875 35.084H208.742C209.18 35.0801 209.525 34.9668 209.779 34.7441C210.037 34.5215 210.166 34.1992 210.166 33.7773C210.166 33.3711 210.059 33.0566 209.844 32.834C209.633 32.6074 209.309 32.4941 208.871 32.4941C208.488 32.4941 208.174 32.6055 207.928 32.8281C207.682 33.0469 207.559 33.334 207.559 33.6895H206.135C206.135 33.252 206.25 32.8535 206.48 32.4941C206.715 32.1348 207.039 31.8555 207.453 31.6562C207.871 31.4531 208.338 31.3516 208.854 31.3516C209.705 31.3516 210.373 31.5664 210.857 31.9961C211.346 32.4219 211.59 33.0156 211.59 33.7773C211.59 34.1602 211.467 34.5215 211.221 34.8613C210.979 35.1973 210.664 35.4512 210.277 35.623C210.746 35.7832 211.102 36.0352 211.344 36.3789C211.59 36.7227 211.713 37.1328 211.713 37.6094C211.713 38.375 211.449 38.9844 210.922 39.4375C210.398 39.8906 209.709 40.1172 208.854 40.1172C208.033 40.1172 207.361 39.8984 206.838 39.4609C206.314 39.0234 206.053 38.4414 206.053 37.7148H207.477C207.477 38.0898 207.602 38.3945 207.852 38.6289C208.105 38.8633 208.445 38.9805 208.871 38.9805C209.312 38.9805 209.66 38.8633 209.914 38.6289C210.168 38.3945 210.295 38.0547 210.295 37.6094C210.295 37.1602 210.162 36.8145 209.896 36.5723C209.631 36.3301 209.236 36.209 208.713 36.209H207.875V35.084Z" fill="white"/>
<path d="M292 30C292 28.8954 292.895 28 294 28H308C309.105 28 310 28.8954 310 30V39.1857C310 39.7167 309.789 40.2259 309.413 40.6011L302.413 47.5894C301.632 48.3688 300.368 48.3688 299.587 47.5894L292.587 40.6011C292.211 40.2259 292 39.7167 292 39.1857V30Z" fill="#CCCCCC"/>
<path d="M303.045 36.959H304.105V38.1016H303.045V40H301.621V38.1016H297.936L297.895 37.2344L301.574 31.4688H303.045V36.959ZM299.389 36.959H301.621V33.3965L301.516 33.584L299.389 36.959Z" fill="white"/>
<path d="M384 30C384 28.8954 384.895 28 386 28H400C401.105 28 402 28.8954 402 30V39.1857C402 39.7167 401.789 40.2259 401.413 40.6011L394.413 47.5894C393.632 48.3688 392.368 48.3688 391.587 47.5894L384.587 40.6011C384.211 40.2259 384 39.7167 384 39.1857V30Z" fill="#CCCCCC"/>
<path d="M390.609 35.7695L391.072 31.4688H395.654V32.6992H392.256L392.021 34.7383C392.416 34.5117 392.861 34.3984 393.357 34.3984C394.17 34.3984 394.801 34.6582 395.25 35.1777C395.703 35.6973 395.93 36.3965 395.93 37.2754C395.93 38.1426 395.68 38.834 395.18 39.3496C394.68 39.8613 393.994 40.1172 393.123 40.1172C392.342 40.1172 391.693 39.8965 391.178 39.4551C390.666 39.0098 390.389 38.4238 390.346 37.6973H391.723C391.777 38.1113 391.926 38.4297 392.168 38.6523C392.41 38.8711 392.727 38.9805 393.117 38.9805C393.555 38.9805 393.895 38.8242 394.137 38.5117C394.383 38.1992 394.506 37.7734 394.506 37.2344C394.506 36.7148 394.371 36.3047 394.102 36.0039C393.832 35.6992 393.461 35.5469 392.988 35.5469C392.73 35.5469 392.512 35.582 392.332 35.6523C392.152 35.7188 391.957 35.8516 391.746 36.0508L390.609 35.7695Z" fill="white"/>
<path d="M473 30C473 28.8954 473.895 28 475 28H489C490.105 28 491 28.8954 491 30V39.1857C491 39.7167 490.789 40.2259 490.413 40.6011L483.413 47.5894C482.632 48.3688 481.368 48.3688 480.587 47.5894L473.587 40.6011C473.211 40.2259 473 39.7167 473 39.1857V30Z" fill="#CCCCCC"/>
<path d="M483.658 31.4277V32.6055H483.482C482.686 32.6172 482.049 32.8359 481.572 33.2617C481.096 33.6875 480.812 34.291 480.723 35.0723C481.18 34.5918 481.764 34.3516 482.475 34.3516C483.229 34.3516 483.822 34.6172 484.256 35.1484C484.693 35.6797 484.912 36.3652 484.912 37.2051C484.912 38.0723 484.656 38.7754 484.145 39.3145C483.637 39.8496 482.969 40.1172 482.141 40.1172C481.289 40.1172 480.598 39.8027 480.066 39.1738C479.539 38.5449 479.275 37.7207 479.275 36.7012V36.2148C479.275 34.7188 479.639 33.5469 480.365 32.6992C481.096 31.8516 482.145 31.4277 483.512 31.4277H483.658ZM482.129 35.5C481.816 35.5 481.529 35.5879 481.268 35.7637C481.01 35.9395 480.82 36.1738 480.699 36.4668V36.9004C480.699 37.5332 480.832 38.0371 481.098 38.4121C481.363 38.7832 481.707 38.9688 482.129 38.9688C482.551 38.9688 482.885 38.8105 483.131 38.4941C483.377 38.1777 483.5 37.7617 483.5 37.2461C483.5 36.7305 483.375 36.3105 483.125 35.9863C482.875 35.6621 482.543 35.5 482.129 35.5Z" fill="white"/>
<path d="M37 376C37 377.105 36.1046 378 35 378L21 378C19.8954 378 19 377.105 19 376L19 366.814C19 366.283 19.2112 365.774 19.587 365.399L26.587 358.411C27.3678 357.631 28.6323 357.631 29.413 358.411L36.413 365.399C36.7888 365.774 37 366.283 37 366.814L37 376Z" fill="#DDDDDD"/>
<path d="M26.1133 370.947H23.0371V369.799H26.1133V370.947ZM31.627 365.428V366.605H31.4512C30.6543 366.617 30.0176 366.836 29.541 367.262C29.0645 367.688 28.7812 368.291 28.6914 369.072C29.1484 368.592 29.7324 368.352 30.4434 368.352C31.1973 368.352 31.791 368.617 32.2246 369.148C32.6621 369.68 32.8809 370.365 32.8809 371.205C32.8809 372.072 32.625 372.775 32.1133 373.314C31.6055 373.85 30.9375 374.117 30.1094 374.117C29.2578 374.117 28.5664 373.803 28.0352 373.174C27.5078 372.545 27.2441 371.721 27.2441 370.701V370.215C27.2441 368.719 27.6074 367.547 28.334 366.699C29.0645 365.852 30.1133 365.428 31.4805 365.428H31.627ZM30.0977 369.5C29.7852 369.5 29.498 369.588 29.2363 369.764C28.9785 369.939 28.7891 370.174 28.668 370.467V370.9C28.668 371.533 28.8008 372.037 29.0664 372.412C29.332 372.783 29.6758 372.969 30.0977 372.969C30.5195 372.969 30.8535 372.811 31.0996 372.494C31.3457 372.178 31.4688 371.762 31.4688 371.246C31.4688 370.73 31.3438 370.311 31.0938 369.986C30.8438 369.662 30.5117 369.5 30.0977 369.5Z" fill="white"/>
<path d="M126 376C126 377.105 125.105 378 124 378L110 378C108.895 378 108 377.105 108 376L108 366.814C108 366.283 108.211 365.774 108.587 365.399L115.587 358.411C116.368 357.631 117.632 357.631 118.413 358.411L125.413 365.399C125.789 365.774 126 366.283 126 366.814L126 376Z" fill="#DDDDDD"/>
<path d="M115.113 370.947H112.037V369.799H115.113V370.947ZM116.578 369.77L117.041 365.469H121.623V366.699H118.225L117.99 368.738C118.385 368.512 118.83 368.398 119.326 368.398C120.139 368.398 120.77 368.658 121.219 369.178C121.672 369.697 121.898 370.396 121.898 371.275C121.898 372.143 121.648 372.834 121.148 373.35C120.648 373.861 119.963 374.117 119.092 374.117C118.311 374.117 117.662 373.896 117.146 373.455C116.635 373.01 116.357 372.424 116.314 371.697H117.691C117.746 372.111 117.895 372.43 118.137 372.652C118.379 372.871 118.695 372.98 119.086 372.98C119.523 372.98 119.863 372.824 120.105 372.512C120.352 372.199 120.475 371.773 120.475 371.234C120.475 370.715 120.34 370.305 120.07 370.004C119.801 369.699 119.43 369.547 118.957 369.547C118.699 369.547 118.48 369.582 118.301 369.652C118.121 369.719 117.926 369.852 117.715 370.051L116.578 369.77Z" fill="white"/>
<path d="M218 376C218 377.105 217.105 378 216 378L202 378C200.895 378 200 377.105 200 376L200 366.814C200 366.283 200.211 365.774 200.587 365.399L207.587 358.411C208.368 357.631 209.632 357.631 210.413 358.411L217.413 365.399C217.789 365.774 218 366.283 218 366.814L218 376Z" fill="#DDDDDD"/>
<path d="M207.113 370.947H204.037V369.799H207.113V370.947ZM213.014 370.959H214.074V372.102H213.014V374H211.59V372.102H207.904L207.863 371.234L211.543 365.469H213.014V370.959ZM209.357 370.959H211.59V367.396L211.484 367.584L209.357 370.959Z" fill="white"/>
<path d="M310 376C310 377.105 309.105 378 308 378L294 378C292.895 378 292 377.105 292 376L292 366.814C292 366.283 292.211 365.774 292.587 365.399L299.587 358.411C300.368 357.631 301.632 357.631 302.413 358.411L309.413 365.399C309.789 365.774 310 366.283 310 366.814L310 376Z" fill="#DDDDDD"/>
<path d="M299.113 370.947H296.037V369.799H299.113V370.947ZM301.844 369.084H302.711C303.148 369.08 303.494 368.967 303.748 368.744C304.006 368.521 304.135 368.199 304.135 367.777C304.135 367.371 304.027 367.057 303.812 366.834C303.602 366.607 303.277 366.494 302.84 366.494C302.457 366.494 302.143 366.605 301.896 366.828C301.65 367.047 301.527 367.334 301.527 367.689H300.104C300.104 367.252 300.219 366.854 300.449 366.494C300.684 366.135 301.008 365.855 301.422 365.656C301.84 365.453 302.307 365.352 302.822 365.352C303.674 365.352 304.342 365.566 304.826 365.996C305.314 366.422 305.559 367.016 305.559 367.777C305.559 368.16 305.436 368.521 305.189 368.861C304.947 369.197 304.633 369.451 304.246 369.623C304.715 369.783 305.07 370.035 305.312 370.379C305.559 370.723 305.682 371.133 305.682 371.609C305.682 372.375 305.418 372.984 304.891 373.438C304.367 373.891 303.678 374.117 302.822 374.117C302.002 374.117 301.33 373.898 300.807 373.461C300.283 373.023 300.021 372.441 300.021 371.715H301.445C301.445 372.09 301.57 372.395 301.82 372.629C302.074 372.863 302.414 372.98 302.84 372.98C303.281 372.98 303.629 372.863 303.883 372.629C304.137 372.395 304.264 372.055 304.264 371.609C304.264 371.16 304.131 370.814 303.865 370.572C303.6 370.33 303.205 370.209 302.682 370.209H301.844V369.084Z" fill="white"/>
<path d="M402 376C402 377.105 401.105 378 400 378L386 378C384.895 378 384 377.105 384 376L384 366.814C384 366.283 384.211 365.774 384.587 365.399L391.587 358.411C392.368 357.631 393.632 357.631 394.413 358.411L401.413 365.399C401.789 365.774 402 366.283 402 366.814L402 376Z" fill="#DDDDDD"/>
<path d="M391.113 370.947H388.037V369.799H391.113V370.947ZM397.934 374H392.197V373.021L395.039 369.922C395.449 369.465 395.74 369.084 395.912 368.779C396.088 368.471 396.176 368.162 396.176 367.854C396.176 367.447 396.061 367.119 395.83 366.869C395.604 366.619 395.297 366.494 394.91 366.494C394.449 366.494 394.092 366.635 393.838 366.916C393.584 367.197 393.457 367.582 393.457 368.07H392.033C392.033 367.551 392.15 367.084 392.385 366.67C392.623 366.252 392.961 365.928 393.398 365.697C393.84 365.467 394.348 365.352 394.922 365.352C395.75 365.352 396.402 365.561 396.879 365.979C397.359 366.393 397.6 366.967 397.6 367.701C397.6 368.127 397.479 368.574 397.236 369.043C396.998 369.508 396.605 370.037 396.059 370.631L393.973 372.863H397.934V374Z" fill="white"/>
<path d="M491 376C491 377.105 490.105 378 489 378L475 378C473.895 378 473 377.105 473 376L473 366.814C473 366.283 473.211 365.774 473.587 365.399L480.587 358.411C481.368 357.631 482.632 357.631 483.413 358.411L490.413 365.399C490.789 365.774 491 366.283 491 366.814L491 376Z" fill="#DDDDDD"/>
<path d="M480.113 370.947H477.037V369.799H480.113V370.947ZM485.053 374H483.635V367.15L481.543 367.865V366.664L484.871 365.439H485.053V374Z" fill="white"/>
<path d="M7 60C5.89543 60 5 59.1046 5 58L5 44C5 42.8954 5.89543 42 7 42L16.1857 42C16.7167 42 17.2259 42.2112 17.6011 42.587L24.5894 49.587C25.3688 50.3677 25.3688 51.6323 24.5894 52.413L17.6011 59.413C17.2259 59.7888 16.7167 60 16.1857 60L7 60Z" fill="#CCCCCC"/>
<path d="M14.084 55H12.666V48.1504L10.5742 48.8652V47.6641L13.9023 46.4395H14.084V55Z" fill="white"/>
<path d="M7 119C5.89543 119 5 118.105 5 117L5 103C5 101.895 5.89543 101 7 101L16.1857 101C16.7167 101 17.2259 101.211 17.6011 101.587L24.5894 108.587C25.3688 109.368 25.3688 110.632 24.5894 111.413L17.6011 118.413C17.2259 118.789 16.7167 119 16.1857 119L7 119Z" fill="#CCCCCC"/>
<path d="M15.9648 114H10.2285V113.021L13.0703 109.922C13.4805 109.465 13.7715 109.084 13.9434 108.779C14.1191 108.471 14.207 108.162 14.207 107.854C14.207 107.447 14.0918 107.119 13.8613 106.869C13.6348 106.619 13.3281 106.494 12.9414 106.494C12.4805 106.494 12.123 106.635 11.8691 106.916C11.6152 107.197 11.4883 107.582 11.4883 108.07H10.0645C10.0645 107.551 10.1816 107.084 10.416 106.67C10.6543 106.252 10.9922 105.928 11.4297 105.697C11.8711 105.467 12.3789 105.352 12.9531 105.352C13.7812 105.352 14.4336 105.561 14.9102 105.979C15.3906 106.393 15.6309 106.967 15.6309 107.701C15.6309 108.127 15.5098 108.574 15.2676 109.043C15.0293 109.508 14.6367 110.037 14.0898 110.631L12.0039 112.863H15.9648V114Z" fill="white"/>
<path d="M7 181C5.89543 181 5 180.105 5 179L5 165C5 163.895 5.89543 163 7 163L16.1857 163C16.7167 163 17.2259 163.211 17.6011 163.587L24.5894 170.587C25.3688 171.368 25.3688 172.632 24.5894 173.413L17.6011 180.413C17.2259 180.789 16.7167 181 16.1857 181L7 181Z" fill="#CCCCCC"/>
<path d="M11.875 171.084H12.7422C13.1797 171.08 13.5254 170.967 13.7793 170.744C14.0371 170.521 14.166 170.199 14.166 169.777C14.166 169.371 14.0586 169.057 13.8438 168.834C13.6328 168.607 13.3086 168.494 12.8711 168.494C12.4883 168.494 12.1738 168.605 11.9277 168.828C11.6816 169.047 11.5586 169.334 11.5586 169.689H10.1348C10.1348 169.252 10.25 168.854 10.4805 168.494C10.7148 168.135 11.0391 167.855 11.4531 167.656C11.8711 167.453 12.3379 167.352 12.8535 167.352C13.7051 167.352 14.373 167.566 14.8574 167.996C15.3457 168.422 15.5898 169.016 15.5898 169.777C15.5898 170.16 15.4668 170.521 15.2207 170.861C14.9785 171.197 14.6641 171.451 14.2773 171.623C14.7461 171.783 15.1016 172.035 15.3438 172.379C15.5898 172.723 15.7129 173.133 15.7129 173.609C15.7129 174.375 15.4492 174.984 14.9219 175.438C14.3984 175.891 13.709 176.117 12.8535 176.117C12.0332 176.117 11.3613 175.898 10.8379 175.461C10.3145 175.023 10.0527 174.441 10.0527 173.715H11.4766C11.4766 174.09 11.6016 174.395 11.8516 174.629C12.1055 174.863 12.4453 174.98 12.8711 174.98C13.3125 174.98 13.6602 174.863 13.9141 174.629C14.168 174.395 14.2949 174.055 14.2949 173.609C14.2949 173.16 14.1621 172.814 13.8965 172.572C13.6309 172.33 13.2363 172.209 12.7129 172.209H11.875V171.084Z" fill="white"/>
<path d="M7 243C5.89543 243 5 242.105 5 241L5 227C5 225.895 5.89543 225 7 225L16.1857 225C16.7167 225 17.2259 225.211 17.6011 225.587L24.5894 232.587C25.3688 233.368 25.3688 234.632 24.5894 235.413L17.6011 242.413C17.2259 242.789 16.7167 243 16.1857 243L7 243Z" fill="#CCCCCC"/>
<path d="M15.0449 234.959H16.1055V236.102H15.0449V238H13.6211V236.102H9.93555L9.89453 235.234L13.5742 229.469H15.0449V234.959ZM11.3887 234.959H13.6211V231.396L13.5156 231.584L11.3887 234.959Z" fill="white"/>
<path d="M7 305C5.89543 305 5 304.105 5 303L5 289C5 287.895 5.89543 287 7 287L16.1857 287C16.7167 287 17.2259 287.211 17.6011 287.587L24.5894 294.587C25.3688 295.368 25.3688 296.632 24.5894 297.413L17.6011 304.413C17.2259 304.789 16.7167 305 16.1857 305L7 305Z" fill="#CCCCCC"/>
<path d="M10.6094 295.77L11.0723 291.469H15.6543V292.699H12.2559L12.0215 294.738C12.416 294.512 12.8613 294.398 13.3574 294.398C14.1699 294.398 14.8008 294.658 15.25 295.178C15.7031 295.697 15.9297 296.396 15.9297 297.275C15.9297 298.143 15.6797 298.834 15.1797 299.35C14.6797 299.861 13.9941 300.117 13.123 300.117C12.3418 300.117 11.6934 299.896 11.1777 299.455C10.666 299.01 10.3887 298.424 10.3457 297.697H11.7227C11.7773 298.111 11.9258 298.43 12.168 298.652C12.4102 298.871 12.7266 298.98 13.1172 298.98C13.5547 298.98 13.8945 298.824 14.1367 298.512C14.3828 298.199 14.5059 297.773 14.5059 297.234C14.5059 296.715 14.3711 296.305 14.1016 296.004C13.832 295.699 13.4609 295.547 12.9883 295.547C12.7305 295.547 12.5117 295.582 12.332 295.652C12.1523 295.719 11.957 295.852 11.7461 296.051L10.6094 295.77Z" fill="white"/>
<path d="M7 364C5.89543 364 5 363.105 5 362L5 348C5 346.895 5.89543 346 7 346L16.1857 346C16.7167 346 17.2259 346.211 17.6011 346.587L24.5894 353.587C25.3688 354.368 25.3688 355.632 24.5894 356.413L17.6011 363.413C17.2259 363.789 16.7167 364 16.1857 364L7 364Z" fill="#CCCCCC"/>
<path d="M14.6582 350.428V351.605H14.4824C13.6855 351.617 13.0488 351.836 12.5723 352.262C12.0957 352.688 11.8125 353.291 11.7227 354.072C12.1797 353.592 12.7637 353.352 13.4746 353.352C14.2285 353.352 14.8223 353.617 15.2559 354.148C15.6934 354.68 15.9121 355.365 15.9121 356.205C15.9121 357.072 15.6562 357.775 15.1445 358.314C14.6367 358.85 13.9688 359.117 13.1406 359.117C12.2891 359.117 11.5977 358.803 11.0664 358.174C10.5391 357.545 10.2754 356.721 10.2754 355.701V355.215C10.2754 353.719 10.6387 352.547 11.3652 351.699C12.0957 350.852 13.1445 350.428 14.5117 350.428H14.6582ZM13.1289 354.5C12.8164 354.5 12.5293 354.588 12.2676 354.764C12.0098 354.939 11.8203 355.174 11.6992 355.467V355.9C11.6992 356.533 11.832 357.037 12.0977 357.412C12.3633 357.783 12.707 357.969 13.1289 357.969C13.5508 357.969 13.8848 357.811 14.1309 357.494C14.377 357.178 14.5 356.762 14.5 356.246C14.5 355.73 14.375 355.311 14.125 354.986C13.875 354.662 13.543 354.5 13.1289 354.5Z" fill="white"/>
<path d="M503 42C504.105 42 505 42.8954 505 44L505 58C505 59.1046 504.105 60 503 60L493.814 60C493.283 60 492.774 59.7888 492.399 59.413L485.411 52.413C484.631 51.6322 484.631 50.3677 485.411 49.587L492.399 42.587C492.774 42.2112 493.283 42 493.814 42L503 42Z" fill="#DDDDDD"/>
<path d="M495.113 51.9473H492.037V50.7988H495.113V51.9473ZM500.627 46.4277V47.6055H500.451C499.654 47.6172 499.018 47.8359 498.541 48.2617C498.064 48.6875 497.781 49.291 497.691 50.0723C498.148 49.5918 498.732 49.3516 499.443 49.3516C500.197 49.3516 500.791 49.6172 501.225 50.1484C501.662 50.6797 501.881 51.3652 501.881 52.2051C501.881 53.0723 501.625 53.7754 501.113 54.3145C500.605 54.8496 499.938 55.1172 499.109 55.1172C498.258 55.1172 497.566 54.8027 497.035 54.1738C496.508 53.5449 496.244 52.7207 496.244 51.7012V51.2148C496.244 49.7188 496.607 48.5469 497.334 47.6992C498.064 46.8516 499.113 46.4277 500.48 46.4277H500.627ZM499.098 50.5C498.785 50.5 498.498 50.5879 498.236 50.7637C497.979 50.9395 497.789 51.1738 497.668 51.4668V51.9004C497.668 52.5332 497.801 53.0371 498.066 53.4121C498.332 53.7832 498.676 53.9688 499.098 53.9688C499.52 53.9688 499.854 53.8105 500.1 53.4941C500.346 53.1777 500.469 52.7617 500.469 52.2461C500.469 51.7305 500.344 51.3105 500.094 50.9863C499.844 50.6621 499.512 50.5 499.098 50.5Z" fill="white"/>
<path d="M503 101C504.105 101 505 101.895 505 103L505 117C505 118.105 504.105 119 503 119L493.814 119C493.283 119 492.774 118.789 492.399 118.413L485.411 111.413C484.631 110.632 484.631 109.368 485.411 108.587L492.399 101.587C492.774 101.211 493.283 101 493.814 101L503 101Z" fill="#DDDDDD"/>
<path d="M495.113 110.947H492.037V109.799H495.113V110.947ZM496.578 109.77L497.041 105.469H501.623V106.699H498.225L497.99 108.738C498.385 108.512 498.83 108.398 499.326 108.398C500.139 108.398 500.77 108.658 501.219 109.178C501.672 109.697 501.898 110.396 501.898 111.275C501.898 112.143 501.648 112.834 501.148 113.35C500.648 113.861 499.963 114.117 499.092 114.117C498.311 114.117 497.662 113.896 497.146 113.455C496.635 113.01 496.357 112.424 496.314 111.697H497.691C497.746 112.111 497.895 112.43 498.137 112.652C498.379 112.871 498.695 112.98 499.086 112.98C499.523 112.98 499.863 112.824 500.105 112.512C500.352 112.199 500.475 111.773 500.475 111.234C500.475 110.715 500.34 110.305 500.07 110.004C499.801 109.699 499.43 109.547 498.957 109.547C498.699 109.547 498.48 109.582 498.301 109.652C498.121 109.719 497.926 109.852 497.715 110.051L496.578 109.77Z" fill="white"/>
<path d="M503 163C504.105 163 505 163.895 505 165L505 179C505 180.105 504.105 181 503 181L493.814 181C493.283 181 492.774 180.789 492.399 180.413L485.411 173.413C484.631 172.632 484.631 171.368 485.411 170.587L492.399 163.587C492.774 163.211 493.283 163 493.814 163L503 163Z" fill="#DDDDDD"/>
<path d="M495.113 172.947H492.037V171.799H495.113V172.947ZM501.014 172.959H502.074V174.102H501.014V176H499.59V174.102H495.904L495.863 173.234L499.543 167.469H501.014V172.959ZM497.357 172.959H499.59V169.396L499.484 169.584L497.357 172.959Z" fill="white"/>
<path d="M503 225C504.105 225 505 225.895 505 227L505 241C505 242.105 504.105 243 503 243L493.814 243C493.283 243 492.774 242.789 492.399 242.413L485.411 235.413C484.631 234.632 484.631 233.368 485.411 232.587L492.399 225.587C492.774 225.211 493.283 225 493.814 225L503 225Z" fill="#DDDDDD"/>
<path d="M495.113 234.947H492.037V233.799H495.113V234.947ZM497.844 233.084H498.711C499.148 233.08 499.494 232.967 499.748 232.744C500.006 232.521 500.135 232.199 500.135 231.777C500.135 231.371 500.027 231.057 499.812 230.834C499.602 230.607 499.277 230.494 498.84 230.494C498.457 230.494 498.143 230.605 497.896 230.828C497.65 231.047 497.527 231.334 497.527 231.689H496.104C496.104 231.252 496.219 230.854 496.449 230.494C496.684 230.135 497.008 229.855 497.422 229.656C497.84 229.453 498.307 229.352 498.822 229.352C499.674 229.352 500.342 229.566 500.826 229.996C501.314 230.422 501.559 231.016 501.559 231.777C501.559 232.16 501.436 232.521 501.189 232.861C500.947 233.197 500.633 233.451 500.246 233.623C500.715 233.783 501.07 234.035 501.312 234.379C501.559 234.723 501.682 235.133 501.682 235.609C501.682 236.375 501.418 236.984 500.891 237.438C500.367 237.891 499.678 238.117 498.822 238.117C498.002 238.117 497.33 237.898 496.807 237.461C496.283 237.023 496.021 236.441 496.021 235.715H497.445C497.445 236.09 497.57 236.395 497.82 236.629C498.074 236.863 498.414 236.98 498.84 236.98C499.281 236.98 499.629 236.863 499.883 236.629C500.137 236.395 500.264 236.055 500.264 235.609C500.264 235.16 500.131 234.814 499.865 234.572C499.6 234.33 499.205 234.209 498.682 234.209H497.844V233.084Z" fill="white"/>
<path d="M503 287C504.105 287 505 287.895 505 289L505 303C505 304.105 504.105 305 503 305L493.814 305C493.283 305 492.774 304.789 492.399 304.413L485.411 297.413C484.631 296.632 484.631 295.368 485.411 294.587L492.399 287.587C492.774 287.211 493.283 287 493.814 287L503 287Z" fill="#DDDDDD"/>
<path d="M495.113 296.947H492.037V295.799H495.113V296.947ZM501.934 300H496.197V299.021L499.039 295.922C499.449 295.465 499.74 295.084 499.912 294.779C500.088 294.471 500.176 294.162 500.176 293.854C500.176 293.447 500.061 293.119 499.83 292.869C499.604 292.619 499.297 292.494 498.91 292.494C498.449 292.494 498.092 292.635 497.838 292.916C497.584 293.197 497.457 293.582 497.457 294.07H496.033C496.033 293.551 496.15 293.084 496.385 292.67C496.623 292.252 496.961 291.928 497.398 291.697C497.84 291.467 498.348 291.352 498.922 291.352C499.75 291.352 500.402 291.561 500.879 291.979C501.359 292.393 501.6 292.967 501.6 293.701C501.6 294.127 501.479 294.574 501.236 295.043C500.998 295.508 500.605 296.037 500.059 296.631L497.973 298.863H501.934V300Z" fill="white"/>
<path d="M503 346C504.105 346 505 346.895 505 348L505 362C505 363.105 504.105 364 503 364L493.814 364C493.283 364 492.774 363.789 492.399 363.413L485.411 356.413C484.631 355.632 484.631 354.368 485.411 353.587L492.399 346.587C492.774 346.211 493.283 346 493.814 346L503 346Z" fill="#DDDDDD"/>
<path d="M495.113 355.947H492.037V354.799H495.113V355.947ZM500.053 359H498.635V352.15L496.543 352.865V351.664L499.871 350.439H500.053V359Z" fill="white"/>
<rect width="452" height="302" transform="translate(29 52)" fill="white"/>
<path d="M31 59C31 56.2386 33.2386 54 36 54H106C108.761 54 111 56.2386 111 59V99C111 101.761 108.761 104 106 104H36C33.2386 104 31 101.761 31 99V59Z" fill="#DDDDDD"/>
<path d="M72.855 83.6666H71.0825V75.1046L68.4678 75.9982V74.4967L72.6279 72.9659H72.855V83.6666Z" fill="#444444"/>
<path d="M123 59C123 56.2386 125.239 54 128 54H198C200.761 54 203 56.2386 203 59V99C203 101.761 200.761 104 198 104H128C125.239 104 123 101.761 123 99V59Z" fill="#DDDDDD"/>
<path d="M167.206 83.6666H160.036V82.4435L163.588 78.569C164.101 77.9977 164.464 77.5216 164.679 77.1407C164.899 76.755 165.009 76.3693 165.009 75.9835C165.009 75.4757 164.865 75.0656 164.577 74.7531C164.293 74.4406 163.91 74.2843 163.427 74.2843C162.851 74.2843 162.404 74.4601 162.086 74.8116C161.769 75.1632 161.61 75.6442 161.61 76.2545H159.831C159.831 75.6051 159.977 75.0216 160.27 74.504C160.568 73.9816 160.99 73.5763 161.537 73.2882C162.089 73.0001 162.724 72.8561 163.441 72.8561C164.477 72.8561 165.292 73.1173 165.888 73.6398C166.488 74.1573 166.789 74.8751 166.789 75.7931C166.789 76.3253 166.637 76.8844 166.334 77.4703C166.037 78.0514 165.546 78.713 164.862 79.4552L162.255 82.2457H167.206V83.6666Z" fill="#444444"/>
<path d="M215 59C215 56.2386 217.239 54 220 54H290C292.761 54 295 56.2386 295 59V99C295 101.761 292.761 104 290 104H220C217.239 104 215 101.761 215 99V59Z" fill="#DDDDDD"/>
<path d="M254.094 77.5216H255.178C255.725 77.5167 256.157 77.3751 256.474 77.0968C256.796 76.8185 256.958 76.4156 256.958 75.8883C256.958 75.3805 256.823 74.9874 256.555 74.7091C256.291 74.4259 255.886 74.2843 255.339 74.2843C254.86 74.2843 254.467 74.4235 254.16 74.7018C253.852 74.9752 253.698 75.3341 253.698 75.7784H251.918C251.918 75.2316 252.062 74.7335 252.351 74.2843C252.644 73.8351 253.049 73.486 253.566 73.2369C254.089 72.983 254.672 72.8561 255.317 72.8561C256.381 72.8561 257.216 73.1246 257.822 73.6617C258.432 74.194 258.737 74.9362 258.737 75.8883C258.737 76.3668 258.583 76.8185 258.276 77.2433C257.973 77.6632 257.58 77.9806 257.097 78.1954C257.683 78.3956 258.127 78.7106 258.43 79.1403C258.737 79.5699 258.891 80.0826 258.891 80.6783C258.891 81.6354 258.562 82.3971 257.902 82.9635C257.248 83.5299 256.386 83.8131 255.317 83.8131C254.292 83.8131 253.452 83.5397 252.797 82.9928C252.143 82.4459 251.816 81.7184 251.816 80.8102H253.596C253.596 81.2789 253.752 81.6598 254.064 81.9528C254.382 82.2457 254.807 82.3922 255.339 82.3922C255.891 82.3922 256.325 82.2457 256.643 81.9528C256.96 81.6598 257.119 81.235 257.119 80.6783C257.119 80.1168 256.953 79.6847 256.621 79.382C256.289 79.0792 255.795 78.9279 255.141 78.9279H254.094V77.5216Z" fill="#444444"/>
<path d="M307 59C307 56.2386 309.239 54 312 54H382C384.761 54 387 56.2386 387 59V99C387 101.761 384.761 104 382 104H312C309.239 104 307 101.761 307 99V59Z" fill="#DDDDDD"/>
<path d="M350.056 79.8654H351.382V81.2936H350.056V83.6666H348.276V81.2936H343.669L343.618 80.2096L348.218 73.0026H350.056V79.8654ZM345.486 79.8654H348.276V75.4122L348.145 75.6466L345.486 79.8654Z" fill="#444444"/>
<path d="M399 59C399 56.2386 401.239 54 404 54H474C476.761 54 479 56.2386 479 59V99C479 101.761 476.761 104 474 104H404C401.239 104 399 101.761 399 99V59Z" fill="#DDDDDD"/>
<path d="M436.512 78.3785L437.09 73.0026H442.818V74.5406H438.57L438.277 77.0895C438.77 76.8063 439.327 76.6647 439.947 76.6647C440.962 76.6647 441.751 76.9894 442.312 77.6388C442.879 78.2882 443.162 79.1622 443.162 80.2609C443.162 81.3448 442.85 82.2091 442.225 82.8536C441.6 83.4933 440.743 83.8131 439.654 83.8131C438.677 83.8131 437.867 83.5372 437.222 82.9855C436.583 82.4288 436.236 81.6964 436.182 80.7882H437.903C437.972 81.3058 438.157 81.7037 438.46 81.9821C438.763 82.2555 439.158 82.3922 439.646 82.3922C440.193 82.3922 440.618 82.1969 440.921 81.8063C441.229 81.4156 441.382 80.8834 441.382 80.2096C441.382 79.5602 441.214 79.0475 440.877 78.6715C440.54 78.2906 440.076 78.1002 439.485 78.1002C439.163 78.1002 438.89 78.1442 438.665 78.2321C438.44 78.3151 438.196 78.4811 437.933 78.7301L436.512 78.3785Z" fill="#444444"/>
<path d="M31 121C31 118.239 33.2386 116 36 116H106C108.761 116 111 118.239 111 121V161C111 163.761 108.761 166 106 166H36C33.2386 166 31 163.761 31 161V121Z" fill="#DDDDDD"/>
<path d="M73.5728 134.951V136.423H73.353C72.3569 136.438 71.561 136.712 70.9653 137.244C70.3696 137.776 70.0156 138.53 69.9033 139.507C70.4746 138.906 71.2046 138.606 72.0933 138.606C73.0356 138.606 73.7778 138.938 74.3198 139.602C74.8667 140.266 75.1401 141.123 75.1401 142.173C75.1401 143.257 74.8203 144.136 74.1807 144.81C73.5459 145.479 72.7109 145.813 71.6758 145.813C70.6113 145.813 69.7471 145.42 69.083 144.634C68.4238 143.848 68.0942 142.818 68.0942 141.543V140.935C68.0942 139.065 68.5483 137.6 69.4565 136.541C70.3696 135.481 71.6807 134.951 73.3896 134.951H73.5728ZM71.6611 140.042C71.2705 140.042 70.9116 140.151 70.5845 140.371C70.2622 140.591 70.0254 140.884 69.874 141.25V141.792C69.874 142.583 70.04 143.213 70.3721 143.682C70.7041 144.146 71.1338 144.378 71.6611 144.378C72.1885 144.378 72.606 144.18 72.9136 143.784C73.2212 143.389 73.375 142.869 73.375 142.224C73.375 141.58 73.2188 141.055 72.9062 140.65C72.5938 140.244 72.1787 140.042 71.6611 140.042Z" fill="#444444"/>
<path d="M123 121C123 118.239 125.239 116 128 116H198C200.761 116 203 118.239 203 121V161C203 163.761 200.761 166 198 166H128C125.239 166 123 163.761 123 161V121Z" fill="#DDDDDD"/>
<path d="M167.133 135.991L162.87 145.667H161.002L165.258 136.431H159.743V135.003H167.133V135.991Z" fill="#444444"/>
<path d="M215 121C215 118.239 217.239 116 220 116H290C292.761 116 295 118.239 295 121V161C295 163.761 292.761 166 290 166H220C217.239 166 215 163.761 215 161V121Z" fill="#DDDDDD"/>
<path d="M258.752 137.815C258.752 138.338 258.618 138.804 258.349 139.214C258.081 139.619 257.714 139.939 257.25 140.173C257.807 140.432 258.234 140.786 258.532 141.235C258.835 141.685 258.986 142.193 258.986 142.759C258.986 143.696 258.669 144.441 258.034 144.993C257.399 145.54 256.555 145.813 255.5 145.813C254.44 145.813 253.591 145.537 252.951 144.985C252.316 144.434 251.999 143.692 251.999 142.759C251.999 142.188 252.15 141.675 252.453 141.221C252.756 140.767 253.181 140.418 253.728 140.173C253.269 139.939 252.905 139.619 252.636 139.214C252.373 138.804 252.241 138.338 252.241 137.815C252.241 136.907 252.534 136.187 253.12 135.654C253.706 135.122 254.497 134.856 255.493 134.856C256.494 134.856 257.287 135.122 257.873 135.654C258.459 136.187 258.752 136.907 258.752 137.815ZM257.207 142.671C257.207 142.144 257.048 141.719 256.73 141.397C256.418 141.069 256.003 140.906 255.485 140.906C254.968 140.906 254.553 141.067 254.24 141.389C253.933 141.712 253.779 142.139 253.779 142.671C253.779 143.193 253.93 143.611 254.233 143.923C254.541 144.236 254.963 144.392 255.5 144.392C256.037 144.392 256.455 144.241 256.752 143.938C257.055 143.635 257.207 143.213 257.207 142.671ZM256.979 137.881C256.979 137.417 256.845 137.036 256.577 136.738C256.308 136.436 255.947 136.284 255.493 136.284C255.039 136.284 254.68 136.428 254.416 136.716C254.152 137 254.021 137.388 254.021 137.881C254.021 138.369 254.152 138.757 254.416 139.046C254.685 139.334 255.046 139.478 255.5 139.478C255.954 139.478 256.313 139.334 256.577 139.046C256.845 138.757 256.979 138.369 256.979 137.881Z" fill="#444444"/>
<path d="M307 121C307 118.239 309.239 116 312 116H382C384.761 116 387 118.239 387 121V161C387 163.761 384.761 166 382 166H312C309.239 166 307 163.761 307 161V121Z" fill="#DDDDDD"/>
<path d="M349.082 141.206C348.486 141.836 347.791 142.151 346.995 142.151C346.057 142.151 345.31 141.824 344.753 141.17C344.197 140.51 343.918 139.646 343.918 138.577C343.918 137.874 344.06 137.236 344.343 136.665C344.626 136.094 345.029 135.65 345.552 135.332C346.074 135.015 346.68 134.856 347.368 134.856C348.442 134.856 349.294 135.256 349.924 136.057C350.554 136.858 350.869 137.93 350.869 139.273V139.771C350.869 141.694 350.435 143.162 349.565 144.172C348.696 145.183 347.4 145.696 345.676 145.711H345.464V144.238H345.72C346.77 144.224 347.576 143.972 348.137 143.484C348.699 142.991 349.014 142.232 349.082 141.206ZM347.368 140.759C347.725 140.759 348.059 140.657 348.372 140.452C348.684 140.247 348.926 139.964 349.097 139.602V138.906C349.097 138.12 348.936 137.488 348.613 137.009C348.291 136.531 347.874 136.292 347.361 136.292C346.848 136.292 346.438 136.504 346.13 136.929C345.828 137.349 345.676 137.881 345.676 138.526C345.676 139.194 345.83 139.734 346.138 140.144C346.445 140.554 346.855 140.759 347.368 140.759Z" fill="#444444"/>
<path d="M399 121C399 118.239 401.239 116 404 116H474C476.761 116 479 118.239 479 121V161C479 163.761 476.761 166 474 166H404C401.239 166 399 163.761 399 161V121Z" fill="#DDDDDD"/>
<path d="M436.092 145.667H434.32V137.105L431.705 137.998V136.497L435.865 134.966H436.092V145.667ZM446.749 141.177C446.749 142.71 446.461 143.867 445.885 144.649C445.313 145.425 444.442 145.813 443.27 145.813C442.118 145.813 441.249 145.435 440.663 144.678C440.082 143.916 439.784 142.791 439.769 141.301V139.456C439.769 137.922 440.055 136.773 440.626 136.006C441.202 135.239 442.079 134.856 443.255 134.856C444.422 134.856 445.292 135.23 445.863 135.977C446.439 136.724 446.734 137.842 446.749 139.331V141.177ZM444.969 139.185C444.969 138.184 444.833 137.451 444.559 136.987C444.286 136.519 443.851 136.284 443.255 136.284C442.674 136.284 442.247 136.506 441.974 136.951C441.7 137.39 441.556 138.079 441.542 139.016V141.433C441.542 142.429 441.681 143.172 441.959 143.66C442.237 144.148 442.674 144.392 443.27 144.392C443.841 144.392 444.264 144.168 444.537 143.718C444.811 143.264 444.955 142.556 444.969 141.594V139.185Z" fill="#444444"/>
<path d="M31 183C31 180.239 33.2386 178 36 178H106C108.761 178 111 180.239 111 183V223C111 225.761 108.761 228 106 228H36C33.2386 228 31 225.761 31 223V183Z" fill="#DDDDDD"/>
<path d="M68.0923 207.667H66.3198V199.105L63.7051 199.998V198.497L67.8652 196.966H68.0923V207.667ZM76.6177 207.667H74.8452V199.105L72.2305 199.998V198.497L76.3906 196.966H76.6177V207.667Z" fill="#444444"/>
<path d="M123 183C123 180.239 125.239 178 128 178H198C200.761 178 203 180.239 203 183V223C203 225.761 200.761 228 198 228H128C125.239 228 123 225.761 123 223V183Z" fill="#DDDDDD"/>
<path d="M160.092 207.667H158.32V199.105L155.705 199.998V198.497L159.865 196.966H160.092V207.667ZM170.969 207.667H163.798V206.443L167.351 202.569C167.863 201.998 168.227 201.522 168.442 201.141C168.662 200.755 168.771 200.369 168.771 199.984C168.771 199.476 168.627 199.066 168.339 198.753C168.056 198.441 167.673 198.284 167.189 198.284C166.613 198.284 166.167 198.46 165.849 198.812C165.532 199.163 165.373 199.644 165.373 200.255H163.593C163.593 199.605 163.74 199.022 164.033 198.504C164.331 197.982 164.753 197.576 165.3 197.288C165.852 197 166.486 196.856 167.204 196.856C168.239 196.856 169.055 197.117 169.65 197.64C170.251 198.157 170.551 198.875 170.551 199.793C170.551 200.325 170.4 200.884 170.097 201.47C169.799 202.051 169.309 202.713 168.625 203.455L166.018 206.246H170.969V207.667Z" fill="#444444"/>
<path d="M215 183C215 180.239 217.239 178 220 178H290C292.761 178 295 180.239 295 183V223C295 225.761 292.761 228 290 228H220C217.239 228 215 225.761 215 223V183Z" fill="#DDDDDD"/>
<path d="M252.092 207.667H250.32V199.105L247.705 199.998V198.497L251.865 196.966H252.092V207.667ZM257.856 201.522H258.94C259.487 201.517 259.919 201.375 260.237 201.097C260.559 200.818 260.72 200.416 260.72 199.888C260.72 199.38 260.586 198.987 260.317 198.709C260.054 198.426 259.648 198.284 259.102 198.284C258.623 198.284 258.23 198.423 257.922 198.702C257.615 198.975 257.461 199.334 257.461 199.778H255.681C255.681 199.232 255.825 198.734 256.113 198.284C256.406 197.835 256.812 197.486 257.329 197.237C257.852 196.983 258.435 196.856 259.08 196.856C260.144 196.856 260.979 197.125 261.584 197.662C262.195 198.194 262.5 198.936 262.5 199.888C262.5 200.367 262.346 200.818 262.039 201.243C261.736 201.663 261.343 201.981 260.859 202.195C261.445 202.396 261.89 202.711 262.192 203.14C262.5 203.57 262.654 204.083 262.654 204.678C262.654 205.635 262.324 206.397 261.665 206.964C261.011 207.53 260.149 207.813 259.08 207.813C258.054 207.813 257.214 207.54 256.56 206.993C255.906 206.446 255.579 205.718 255.579 204.81H257.358C257.358 205.279 257.515 205.66 257.827 205.953C258.145 206.246 258.569 206.392 259.102 206.392C259.653 206.392 260.088 206.246 260.405 205.953C260.723 205.66 260.881 205.235 260.881 204.678C260.881 204.117 260.715 203.685 260.383 203.382C260.051 203.079 259.558 202.928 258.904 202.928H257.856V201.522Z" fill="#444444"/>
<path d="M307 183C307 180.239 309.239 178 312 178H382C384.761 178 387 180.239 387 183V223C387 225.761 384.761 228 382 228H312C309.239 228 307 225.761 307 223V183Z" fill="#DDDDDD"/>
<path d="M344.092 207.667H342.32V199.105L339.705 199.998V198.497L343.865 196.966H344.092V207.667ZM353.819 203.865H355.145V205.294H353.819V207.667H352.039V205.294H347.432L347.381 204.21L351.98 197.003H353.819V203.865ZM349.249 203.865H352.039V199.412L351.907 199.647L349.249 203.865Z" fill="#444444"/>
<path d="M399 183C399 180.239 401.239 178 404 178H474C476.761 178 479 180.239 479 183V223C479 225.761 476.761 228 474 228H404C401.239 228 399 225.761 399 223V183Z" fill="#DDDDDD"/>
<path d="M436.092 207.667H434.32V199.105L431.705 199.998V198.497L435.865 196.966H436.092V207.667ZM440.274 202.379L440.853 197.003H446.581V198.541H442.333L442.04 201.089C442.533 200.806 443.089 200.665 443.709 200.665C444.725 200.665 445.514 200.989 446.075 201.639C446.642 202.288 446.925 203.162 446.925 204.261C446.925 205.345 446.612 206.209 445.987 206.854C445.362 207.493 444.505 207.813 443.417 207.813C442.44 207.813 441.629 207.537 440.985 206.985C440.345 206.429 439.999 205.696 439.945 204.788H441.666C441.734 205.306 441.92 205.704 442.223 205.982C442.525 206.255 442.921 206.392 443.409 206.392C443.956 206.392 444.381 206.197 444.684 205.806C444.991 205.416 445.145 204.883 445.145 204.21C445.145 203.56 444.977 203.047 444.64 202.672C444.303 202.291 443.839 202.1 443.248 202.1C442.926 202.1 442.652 202.144 442.428 202.232C442.203 202.315 441.959 202.481 441.695 202.73L440.274 202.379Z" fill="#444444"/>
<path d="M31 245C31 242.239 33.2386 240 36 240H106C108.761 240 111 242.239 111 245V285C111 287.761 108.761 290 106 290H36C33.2386 290 31 287.761 31 285V245Z" fill="#DDDDDD"/>
<path d="M68.0923 269.667H66.3198V261.105L63.7051 261.998V260.497L67.8652 258.966H68.0923V269.667ZM77.3354 258.951V260.423H77.1157C76.1196 260.438 75.3237 260.712 74.728 261.244C74.1323 261.776 73.7783 262.53 73.666 263.507C74.2373 262.906 74.9673 262.606 75.856 262.606C76.7983 262.606 77.5405 262.938 78.0825 263.602C78.6294 264.266 78.9028 265.123 78.9028 266.173C78.9028 267.257 78.583 268.136 77.9434 268.81C77.3086 269.479 76.4736 269.813 75.4385 269.813C74.374 269.813 73.5098 269.42 72.8457 268.634C72.1865 267.848 71.8569 266.818 71.8569 265.543V264.935C71.8569 263.065 72.311 261.6 73.2192 260.541C74.1323 259.481 75.4434 258.951 77.1523 258.951H77.3354ZM75.4238 264.042C75.0332 264.042 74.6743 264.151 74.3472 264.371C74.0249 264.591 73.7881 264.884 73.6367 265.25V265.792C73.6367 266.583 73.8027 267.213 74.1348 267.682C74.4668 268.146 74.8965 268.378 75.4238 268.378C75.9512 268.378 76.3687 268.18 76.6763 267.784C76.9839 267.389 77.1377 266.869 77.1377 266.224C77.1377 265.58 76.9814 265.055 76.6689 264.65C76.3564 264.244 75.9414 264.042 75.4238 264.042Z" fill="#444444"/>
<path d="M123 245C123 242.239 125.239 240 128 240H198C200.761 240 203 242.239 203 245V285C203 287.761 200.761 290 198 290H128C125.239 290 123 287.761 123 285V245Z" fill="#DDDDDD"/>
<path d="M160.092 269.667H158.32V261.105L155.705 261.998V260.497L159.865 258.966H160.092V269.667ZM170.896 259.991L166.633 269.667H164.765L169.021 260.431H163.505V259.003H170.896V259.991Z" fill="#444444"/>
<path d="M215 245C215 242.239 217.239 240 220 240H290C292.761 240 295 242.239 295 245V285C295 287.761 292.761 290 290 290H220C217.239 290 215 287.761 215 285V245Z" fill="#DDDDDD"/>
<path d="M252.092 269.667H250.32V261.105L247.705 261.998V260.497L251.865 258.966H252.092V269.667ZM262.515 261.815C262.515 262.338 262.38 262.804 262.112 263.214C261.843 263.619 261.477 263.939 261.013 264.173C261.57 264.432 261.997 264.786 262.295 265.235C262.598 265.685 262.749 266.193 262.749 266.759C262.749 267.696 262.432 268.441 261.797 268.993C261.162 269.54 260.317 269.813 259.263 269.813C258.203 269.813 257.354 269.537 256.714 268.985C256.079 268.434 255.762 267.692 255.762 266.759C255.762 266.188 255.913 265.675 256.216 265.221C256.519 264.767 256.943 264.418 257.49 264.173C257.031 263.939 256.667 263.619 256.399 263.214C256.135 262.804 256.003 262.338 256.003 261.815C256.003 260.907 256.296 260.187 256.882 259.654C257.468 259.122 258.259 258.856 259.255 258.856C260.256 258.856 261.05 259.122 261.636 259.654C262.222 260.187 262.515 260.907 262.515 261.815ZM260.969 266.671C260.969 266.144 260.811 265.719 260.493 265.397C260.181 265.069 259.766 264.906 259.248 264.906C258.73 264.906 258.315 265.067 258.003 265.389C257.695 265.712 257.542 266.139 257.542 266.671C257.542 267.193 257.693 267.611 257.996 267.923C258.303 268.236 258.726 268.392 259.263 268.392C259.8 268.392 260.217 268.241 260.515 267.938C260.818 267.635 260.969 267.213 260.969 266.671ZM260.742 261.881C260.742 261.417 260.608 261.036 260.339 260.738C260.071 260.436 259.709 260.284 259.255 260.284C258.801 260.284 258.442 260.428 258.179 260.716C257.915 261 257.783 261.388 257.783 261.881C257.783 262.369 257.915 262.757 258.179 263.046C258.447 263.334 258.809 263.478 259.263 263.478C259.717 263.478 260.076 263.334 260.339 263.046C260.608 262.757 260.742 262.369 260.742 261.881Z" fill="#444444"/>
<path d="M307 245C307 242.239 309.239 240 312 240H382C384.761 240 387 242.239 387 245V285C387 287.761 384.761 290 382 290H312C309.239 290 307 287.761 307 285V245Z" fill="#DDDDDD"/>
<path d="M344.092 269.667H342.32V261.105L339.705 261.998V260.497L343.865 258.966H344.092V269.667ZM352.845 265.206C352.249 265.836 351.553 266.151 350.757 266.151C349.82 266.151 349.073 265.824 348.516 265.17C347.959 264.51 347.681 263.646 347.681 262.577C347.681 261.874 347.823 261.236 348.106 260.665C348.389 260.094 348.792 259.65 349.314 259.332C349.837 259.015 350.442 258.856 351.131 258.856C352.205 258.856 353.057 259.256 353.687 260.057C354.317 260.858 354.632 261.93 354.632 263.273V263.771C354.632 265.694 354.197 267.162 353.328 268.172C352.459 269.183 351.163 269.696 349.439 269.711H349.227V268.238H349.483C350.533 268.224 351.338 267.972 351.9 267.484C352.461 266.991 352.776 266.232 352.845 265.206ZM351.131 264.759C351.487 264.759 351.822 264.657 352.134 264.452C352.447 264.247 352.688 263.964 352.859 263.602V262.906C352.859 262.12 352.698 261.488 352.376 261.009C352.054 260.531 351.636 260.292 351.124 260.292C350.611 260.292 350.201 260.504 349.893 260.929C349.59 261.349 349.439 261.881 349.439 262.526C349.439 263.194 349.593 263.734 349.9 264.144C350.208 264.554 350.618 264.759 351.131 264.759Z" fill="#444444"/>
<path d="M399 245C399 242.239 401.239 240 404 240H474C476.761 240 479 242.239 479 245V285C479 287.761 476.761 290 474 290H404C401.239 290 399 287.761 399 285V245Z" fill="#DDDDDD"/>
<path d="M438.443 269.667H431.273V268.443L434.825 264.569C435.338 263.998 435.702 263.522 435.917 263.141C436.136 262.755 436.246 262.369 436.246 261.984C436.246 261.476 436.102 261.066 435.814 260.753C435.531 260.441 435.147 260.284 434.664 260.284C434.088 260.284 433.641 260.46 433.324 260.812C433.006 261.163 432.848 261.644 432.848 262.255H431.068C431.068 261.605 431.214 261.022 431.507 260.504C431.805 259.982 432.228 259.576 432.774 259.288C433.326 259 433.961 258.856 434.679 258.856C435.714 258.856 436.529 259.117 437.125 259.64C437.726 260.157 438.026 260.875 438.026 261.793C438.026 262.325 437.875 262.884 437.572 263.47C437.274 264.051 436.783 264.713 436.1 265.455L433.492 268.246H438.443V269.667ZM446.749 265.177C446.749 266.71 446.461 267.867 445.885 268.649C445.313 269.425 444.442 269.813 443.27 269.813C442.118 269.813 441.249 269.435 440.663 268.678C440.082 267.916 439.784 266.791 439.769 265.301V263.456C439.769 261.922 440.055 260.773 440.626 260.006C441.202 259.239 442.079 258.856 443.255 258.856C444.422 258.856 445.292 259.23 445.863 259.977C446.439 260.724 446.734 261.842 446.749 263.331V265.177ZM444.969 263.185C444.969 262.184 444.833 261.451 444.559 260.987C444.286 260.519 443.851 260.284 443.255 260.284C442.674 260.284 442.247 260.506 441.974 260.951C441.7 261.39 441.556 262.079 441.542 263.016V265.433C441.542 266.429 441.681 267.172 441.959 267.66C442.237 268.148 442.674 268.392 443.27 268.392C443.841 268.392 444.264 268.168 444.537 267.718C444.811 267.264 444.955 266.556 444.969 265.594V263.185Z" fill="#444444"/>
<path d="M31 307C31 304.239 33.2386 302 36 302H106C108.761 302 111 304.239 111 307V347C111 349.761 108.761 352 106 352H36C33.2386 352 31 349.761 31 347V307Z" fill="#DDDDDD"/>
<path d="M70.4434 331.667H63.2729V330.443L66.8252 326.569C67.3379 325.998 67.7017 325.522 67.9165 325.141C68.1362 324.755 68.2461 324.369 68.2461 323.984C68.2461 323.476 68.1021 323.066 67.814 322.753C67.5308 322.441 67.1475 322.284 66.6641 322.284C66.0879 322.284 65.6411 322.46 65.3237 322.812C65.0063 323.163 64.8477 323.644 64.8477 324.255H63.0679C63.0679 323.605 63.2144 323.022 63.5073 322.504C63.8052 321.982 64.2275 321.576 64.7744 321.288C65.3262 321 65.9609 320.856 66.6787 320.856C67.7139 320.856 68.5293 321.117 69.125 321.64C69.7256 322.157 70.0259 322.875 70.0259 323.793C70.0259 324.325 69.8745 324.884 69.5718 325.47C69.2739 326.051 68.7832 326.713 68.0996 327.455L65.4922 330.246H70.4434V331.667ZM76.6177 331.667H74.8452V323.105L72.2305 323.998V322.497L76.3906 320.966H76.6177V331.667Z" fill="#444444"/>
<path d="M123 307C123 304.239 125.239 302 128 302H198C200.761 302 203 304.239 203 307V347C203 349.761 200.761 352 198 352H128C125.239 352 123 349.761 123 347V307Z" fill="#DDDDDD"/>
<path d="M162.443 331.667H155.273V330.443L158.825 326.569C159.338 325.998 159.702 325.522 159.917 325.141C160.136 324.755 160.246 324.369 160.246 323.984C160.246 323.476 160.102 323.066 159.814 322.753C159.531 322.441 159.147 322.284 158.664 322.284C158.088 322.284 157.641 322.46 157.324 322.812C157.006 323.163 156.848 323.644 156.848 324.255H155.068C155.068 323.605 155.214 323.022 155.507 322.504C155.805 321.982 156.228 321.576 156.774 321.288C157.326 321 157.961 320.856 158.679 320.856C159.714 320.856 160.529 321.117 161.125 321.64C161.726 322.157 162.026 322.875 162.026 323.793C162.026 324.325 161.875 324.884 161.572 325.47C161.274 326.051 160.783 326.713 160.1 327.455L157.492 330.246H162.443V331.667ZM170.969 331.667H163.798V330.443L167.351 326.569C167.863 325.998 168.227 325.522 168.442 325.141C168.662 324.755 168.771 324.369 168.771 323.984C168.771 323.476 168.627 323.066 168.339 322.753C168.056 322.441 167.673 322.284 167.189 322.284C166.613 322.284 166.167 322.46 165.849 322.812C165.532 323.163 165.373 323.644 165.373 324.255H163.593C163.593 323.605 163.74 323.022 164.033 322.504C164.331 321.982 164.753 321.576 165.3 321.288C165.852 321 166.486 320.856 167.204 320.856C168.239 320.856 169.055 321.117 169.65 321.64C170.251 322.157 170.551 322.875 170.551 323.793C170.551 324.325 170.4 324.884 170.097 325.47C169.799 326.051 169.309 326.713 168.625 327.455L166.018 330.246H170.969V331.667Z" fill="#444444"/>
<path d="M28 51V50H27V51H28ZM482 51H483V50H482V51ZM482 355V356H483V355H482ZM28 355H27V356H28V355ZM28 52H482V50H28V52ZM481 51V355H483V51H481ZM482 354H28V356H482V354ZM29 355V51H27V355H29Z" fill="#444444"/>
<path d="M113.5 52L113.5 354" stroke="#BBBBBB" stroke-dasharray="3 2"/>
<path d="M120.5 52L120.5 354" stroke="#BBBBBB" stroke-dasharray="3 2"/>
<path d="M205.5 52L205.5 354" stroke="#BBBBBB" stroke-dasharray="3 2"/>
<path d="M212.5 52L212.5 354" stroke="#BBBBBB" stroke-dasharray="3 2"/>
<path d="M297.5 52L297.5 354" stroke="#BBBBBB" stroke-dasharray="3 2"/>
<path d="M304.5 52L304.5 354" stroke="#BBBBBB" stroke-dasharray="3 2"/>
<path d="M389.5 52L389.5 354" stroke="#BBBBBB" stroke-dasharray="3 2"/>
<path d="M396.5 52L396.5 354" stroke="#BBBBBB" stroke-dasharray="3 2"/>
<g clip-path="url(#clip0)">
<path d="M29 113.5L481 113.5" stroke="#BBBBBB" stroke-dasharray="3 2"/>
<path d="M29 106.5L481 106.5" stroke="#BBBBBB" stroke-dasharray="3 2"/>
</g>
<g clip-path="url(#clip1)">
<path d="M29 175.5L481 175.5" stroke="#BBBBBB" stroke-dasharray="3 2"/>
<path d="M29 168.5L481 168.5" stroke="#BBBBBB" stroke-dasharray="3 2"/>
</g>
<g clip-path="url(#clip2)">
<path d="M29 237.5L481 237.5" stroke="#BBBBBB" stroke-dasharray="3 2"/>
<path d="M29 230.5L481 230.5" stroke="#BBBBBB" stroke-dasharray="3 2"/>
</g>
<g clip-path="url(#clip3)">
<path d="M29 299.5L481 299.5" stroke="#BBBBBB" stroke-dasharray="3 2"/>
<path d="M29 292.5L481 292.5" stroke="#BBBBBB" stroke-dasharray="3 2"/>
</g>
</g>
<rect opacity="0.75" x="29" y="113" width="452" height="56" fill="#00986B"/>
<rect opacity="0.75" x="304" y="175" width="177" height="118" fill="#B72DF8"/>
<rect opacity="0.75" x="396" y="52" width="85" height="55" fill="#F79D30"/>
<rect opacity="0.75" x="114" y="52" width="302" height="85" transform="rotate(90 114 52)" fill="#1E73FF"/>
<rect opacity="0.7" x="213" y="52" width="302" height="7.99998" transform="rotate(90 213 52)" fill="#E44D26"/>
<path d="M257.729 146.383C257.254 146.951 256.583 147.394 255.716 147.71C254.849 148.021 253.888 148.176 252.833 148.176C251.726 148.176 250.753 147.936 249.915 147.455C249.083 146.969 248.438 146.266 247.981 145.346C247.53 144.426 247.299 143.345 247.287 142.103V141.232C247.287 139.955 247.501 138.851 247.929 137.919C248.362 136.981 248.983 136.267 249.792 135.774C250.606 135.276 251.559 135.027 252.648 135.027C254.166 135.027 255.353 135.391 256.208 136.117C257.063 136.838 257.57 137.89 257.729 139.272H255.162C255.045 138.54 254.784 138.004 254.38 137.664C253.981 137.324 253.431 137.154 252.728 137.154C251.831 137.154 251.148 137.491 250.68 138.165C250.211 138.839 249.974 139.841 249.968 141.171V141.988C249.968 143.33 250.223 144.344 250.732 145.029C251.242 145.715 251.989 146.058 252.974 146.058C253.964 146.058 254.67 145.847 255.092 145.425V143.219H252.692V141.276H257.729V146.383ZM265.05 140.872C264.704 140.825 264.399 140.802 264.136 140.802C263.175 140.802 262.545 141.127 262.246 141.777V148H259.706V138.49H262.105L262.176 139.624C262.686 138.751 263.392 138.314 264.294 138.314C264.575 138.314 264.839 138.353 265.085 138.429L265.05 140.872ZM268.961 148H266.412V138.49H268.961V148ZM266.263 136.029C266.263 135.648 266.389 135.335 266.641 135.089C266.898 134.843 267.247 134.72 267.687 134.72C268.12 134.72 268.466 134.843 268.724 135.089C268.981 135.335 269.11 135.648 269.11 136.029C269.11 136.416 268.979 136.732 268.715 136.979C268.457 137.225 268.114 137.348 267.687 137.348C267.259 137.348 266.913 137.225 266.649 136.979C266.392 136.732 266.263 136.416 266.263 136.029ZM270.666 143.175C270.666 141.692 270.997 140.512 271.659 139.633C272.327 138.754 273.238 138.314 274.393 138.314C275.318 138.314 276.083 138.66 276.687 139.352V134.5H279.235V148H276.941L276.818 146.989C276.186 147.78 275.371 148.176 274.375 148.176C273.256 148.176 272.356 147.736 271.677 146.857C271.003 145.973 270.666 144.745 270.666 143.175ZM273.206 143.359C273.206 144.25 273.361 144.933 273.672 145.407C273.982 145.882 274.434 146.119 275.025 146.119C275.811 146.119 276.364 145.788 276.687 145.126V141.373C276.37 140.711 275.822 140.38 275.043 140.38C273.818 140.38 273.206 141.373 273.206 143.359ZM294.959 137.339H291.039V148H288.402V137.339H284.535V135.203H294.959V137.339ZM301.067 140.872C300.722 140.825 300.417 140.802 300.153 140.802C299.192 140.802 298.562 141.127 298.264 141.777V148H295.724V138.49H298.123L298.193 139.624C298.703 138.751 299.409 138.314 300.312 138.314C300.593 138.314 300.856 138.353 301.103 138.429L301.067 140.872ZM307.545 148C307.428 147.771 307.343 147.487 307.29 147.147C306.675 147.833 305.875 148.176 304.891 148.176C303.959 148.176 303.186 147.906 302.57 147.367C301.961 146.828 301.656 146.148 301.656 145.328C301.656 144.32 302.028 143.547 302.772 143.008C303.522 142.469 304.604 142.196 306.016 142.19H307.185V141.646C307.185 141.206 307.07 140.854 306.842 140.591C306.619 140.327 306.265 140.195 305.778 140.195C305.351 140.195 305.014 140.298 304.768 140.503C304.527 140.708 304.407 140.989 304.407 141.347H301.867C301.867 140.796 302.037 140.286 302.377 139.817C302.717 139.349 303.197 138.982 303.818 138.719C304.439 138.449 305.137 138.314 305.91 138.314C307.082 138.314 308.011 138.61 308.696 139.202C309.388 139.788 309.733 140.614 309.733 141.681V145.803C309.739 146.705 309.865 147.388 310.111 147.851V148H307.545ZM305.444 146.233C305.819 146.233 306.165 146.151 306.481 145.987C306.798 145.817 307.032 145.592 307.185 145.311V143.676H306.235C304.964 143.676 304.287 144.115 304.205 144.994L304.196 145.144C304.196 145.46 304.308 145.721 304.53 145.926C304.753 146.131 305.058 146.233 305.444 146.233ZM315.64 146.128C316.108 146.128 316.489 145.999 316.782 145.741C317.075 145.483 317.228 145.141 317.239 144.713H319.621C319.615 145.357 319.439 145.949 319.094 146.488C318.748 147.021 318.273 147.438 317.67 147.736C317.072 148.029 316.41 148.176 315.684 148.176C314.324 148.176 313.252 147.745 312.467 146.884C311.682 146.017 311.289 144.821 311.289 143.298V143.131C311.289 141.666 311.679 140.497 312.458 139.624C313.237 138.751 314.307 138.314 315.666 138.314C316.855 138.314 317.808 138.654 318.522 139.334C319.243 140.008 319.609 140.907 319.621 142.032H317.239C317.228 141.54 317.075 141.142 316.782 140.837C316.489 140.526 316.103 140.371 315.622 140.371C315.03 140.371 314.582 140.588 314.277 141.021C313.979 141.449 313.829 142.146 313.829 143.113V143.377C313.829 144.355 313.979 145.059 314.277 145.486C314.576 145.914 315.03 146.128 315.64 146.128ZM324.525 144.186L323.611 145.1V148H321.071V134.5H323.611V141.979L324.104 141.347L326.538 138.49H329.588L326.151 142.454L329.887 148H326.969L324.525 144.186ZM335.283 142.797C335.283 141.455 335.462 140.178 335.819 138.965C336.177 137.752 336.704 136.68 337.401 135.748C338.099 134.811 338.854 134.16 339.669 133.797L340.161 135.168C339.306 135.801 338.638 136.779 338.157 138.104C337.677 139.428 337.437 140.975 337.437 142.744V143.017C337.437 144.792 337.674 146.345 338.148 147.675C338.623 149.005 339.294 149.998 340.161 150.654L339.669 151.999C338.872 151.642 338.128 151.009 337.437 150.101C336.751 149.198 336.227 148.155 335.863 146.972C335.5 145.788 335.307 144.552 335.283 143.263V142.797ZM346.841 140.872C346.495 140.825 346.19 140.802 345.927 140.802C344.966 140.802 344.336 141.127 344.037 141.777V148H341.497V138.49H343.896L343.967 139.624C344.477 138.751 345.183 138.314 346.085 138.314C346.366 138.314 346.63 138.353 346.876 138.429L346.841 140.872ZM347.359 143.157C347.359 142.214 347.541 141.373 347.904 140.635C348.268 139.896 348.789 139.325 349.469 138.921C350.154 138.517 350.948 138.314 351.851 138.314C353.134 138.314 354.18 138.707 354.988 139.492C355.803 140.277 356.257 141.344 356.351 142.691L356.368 143.342C356.368 144.801 355.961 145.973 355.146 146.857C354.332 147.736 353.239 148.176 351.868 148.176C350.497 148.176 349.401 147.736 348.581 146.857C347.767 145.979 347.359 144.783 347.359 143.271V143.157ZM349.899 143.342C349.899 144.244 350.069 144.936 350.409 145.416C350.749 145.891 351.235 146.128 351.868 146.128C352.483 146.128 352.964 145.894 353.31 145.425C353.655 144.95 353.828 144.194 353.828 143.157C353.828 142.272 353.655 141.587 353.31 141.101C352.964 140.614 352.478 140.371 351.851 140.371C351.229 140.371 350.749 140.614 350.409 141.101C350.069 141.581 349.899 142.328 349.899 143.342ZM366.203 144.546L367.451 138.49H369.903L367.478 148H365.351L363.549 142.015L361.747 148H359.629L357.203 138.49H359.655L360.895 144.537L362.635 138.49H364.472L366.203 144.546ZM375.546 142.999C375.546 144.323 375.355 145.598 374.975 146.822C374.594 148.047 374.046 149.128 373.331 150.065C372.616 151.003 371.852 151.647 371.037 151.999L370.545 150.654C371.377 150.027 372.033 149.061 372.514 147.754C372.994 146.447 373.243 144.944 373.261 143.245V142.779C373.261 141.027 373.021 139.483 372.54 138.147C372.065 136.812 371.4 135.81 370.545 135.142L371.037 133.797C371.834 134.143 372.584 134.77 373.287 135.678C373.996 136.586 374.544 137.644 374.931 138.851C375.323 140.058 375.528 141.309 375.546 142.604V142.999Z" fill="white"/>
<path d="M365.693 239.383C365.219 239.951 364.548 240.394 363.681 240.71C362.813 241.021 361.853 241.176 360.798 241.176C359.69 241.176 358.718 240.936 357.88 240.455C357.048 239.969 356.403 239.266 355.946 238.346C355.495 237.426 355.264 236.345 355.252 235.103V234.232C355.252 232.955 355.466 231.851 355.894 230.919C356.327 229.981 356.948 229.267 357.757 228.774C358.571 228.276 359.523 228.027 360.613 228.027C362.131 228.027 363.317 228.391 364.173 229.117C365.028 229.838 365.535 230.89 365.693 232.272H363.127C363.01 231.54 362.749 231.004 362.345 230.664C361.946 230.324 361.396 230.154 360.692 230.154C359.796 230.154 359.113 230.491 358.645 231.165C358.176 231.839 357.938 232.841 357.933 234.171V234.988C357.933 236.33 358.188 237.344 358.697 238.029C359.207 238.715 359.954 239.058 360.938 239.058C361.929 239.058 362.635 238.847 363.057 238.425V236.219H360.657V234.276H365.693V239.383ZM373.015 233.872C372.669 233.825 372.364 233.802 372.101 233.802C371.14 233.802 370.51 234.127 370.211 234.777V241H367.671V231.49H370.07L370.141 232.624C370.65 231.751 371.356 231.314 372.259 231.314C372.54 231.314 372.804 231.353 373.05 231.429L373.015 233.872ZM376.926 241H374.377V231.49H376.926V241ZM374.228 229.029C374.228 228.648 374.354 228.335 374.605 228.089C374.863 227.843 375.212 227.72 375.651 227.72C376.085 227.72 376.431 227.843 376.688 228.089C376.946 228.335 377.075 228.648 377.075 229.029C377.075 229.416 376.943 229.732 376.68 229.979C376.422 230.225 376.079 230.348 375.651 230.348C375.224 230.348 374.878 230.225 374.614 229.979C374.356 229.732 374.228 229.416 374.228 229.029ZM378.631 236.175C378.631 234.692 378.962 233.512 379.624 232.633C380.292 231.754 381.203 231.314 382.357 231.314C383.283 231.314 384.048 231.66 384.651 232.352V227.5H387.2V241H384.906L384.783 239.989C384.15 240.78 383.336 241.176 382.34 241.176C381.221 241.176 380.321 240.736 379.642 239.857C378.968 238.973 378.631 237.745 378.631 236.175ZM381.171 236.359C381.171 237.25 381.326 237.933 381.637 238.407C381.947 238.882 382.398 239.119 382.99 239.119C383.775 239.119 384.329 238.788 384.651 238.126V234.373C384.335 233.711 383.787 233.38 383.008 233.38C381.783 233.38 381.171 234.373 381.171 236.359ZM401.043 238.363H396.42L395.541 241H392.737L397.501 228.203H399.944L404.734 241H401.931L401.043 238.363ZM397.132 236.228H400.331L398.723 231.438L397.132 236.228ZM411.106 233.872C410.761 233.825 410.456 233.802 410.192 233.802C409.231 233.802 408.602 234.127 408.303 234.777V241H405.763V231.49H408.162L408.232 232.624C408.742 231.751 409.448 231.314 410.351 231.314C410.632 231.314 410.896 231.353 411.142 231.429L411.106 233.872ZM416.538 241.176C415.144 241.176 414.007 240.748 413.128 239.893C412.255 239.037 411.818 237.897 411.818 236.474V236.228C411.818 235.272 412.003 234.42 412.372 233.67C412.741 232.914 413.263 232.334 413.937 231.93C414.616 231.52 415.39 231.314 416.257 231.314C417.558 231.314 418.58 231.725 419.324 232.545C420.074 233.365 420.449 234.528 420.449 236.034V237.071H414.394C414.476 237.692 414.722 238.19 415.132 238.565C415.548 238.94 416.072 239.128 416.705 239.128C417.684 239.128 418.448 238.773 418.999 238.064L420.247 239.462C419.866 240.001 419.351 240.423 418.7 240.728C418.05 241.026 417.329 241.176 416.538 241.176ZM416.248 233.371C415.744 233.371 415.334 233.541 415.018 233.881C414.707 234.221 414.508 234.707 414.42 235.34H417.953V235.138C417.941 234.575 417.789 234.142 417.496 233.837C417.203 233.526 416.787 233.371 416.248 233.371ZM427.41 241C427.293 240.771 427.208 240.487 427.155 240.147C426.54 240.833 425.74 241.176 424.756 241.176C423.824 241.176 423.051 240.906 422.436 240.367C421.826 239.828 421.521 239.148 421.521 238.328C421.521 237.32 421.894 236.547 422.638 236.008C423.388 235.469 424.469 235.196 425.881 235.19H427.05V234.646C427.05 234.206 426.936 233.854 426.707 233.591C426.484 233.327 426.13 233.195 425.644 233.195C425.216 233.195 424.879 233.298 424.633 233.503C424.393 233.708 424.272 233.989 424.272 234.347H421.732C421.732 233.796 421.902 233.286 422.242 232.817C422.582 232.349 423.062 231.982 423.684 231.719C424.305 231.449 425.002 231.314 425.775 231.314C426.947 231.314 427.876 231.61 428.562 232.202C429.253 232.788 429.599 233.614 429.599 234.681V238.803C429.604 239.705 429.73 240.388 429.977 240.851V241H427.41ZM425.31 239.233C425.685 239.233 426.03 239.151 426.347 238.987C426.663 238.817 426.897 238.592 427.05 238.311V236.676H426.101C424.829 236.676 424.152 237.115 424.07 237.994L424.062 238.144C424.062 238.46 424.173 238.721 424.396 238.926C424.618 239.131 424.923 239.233 425.31 239.233Z" fill="white"/>
<path d="M415.604 84.3828C415.129 84.9512 414.458 85.3936 413.591 85.71C412.724 86.0205 411.763 86.1758 410.708 86.1758C409.601 86.1758 408.628 85.9355 407.79 85.4551C406.958 84.9688 406.313 84.2656 405.856 83.3457C405.405 82.4258 405.174 81.3447 405.162 80.1025V79.2324C405.162 77.9551 405.376 76.8506 405.804 75.9189C406.237 74.9814 406.858 74.2666 407.667 73.7744C408.481 73.2764 409.434 73.0273 410.523 73.0273C412.041 73.0273 413.228 73.3906 414.083 74.1172C414.938 74.8379 415.445 75.8896 415.604 77.2725H413.037C412.92 76.54 412.659 76.0039 412.255 75.6641C411.856 75.3242 411.306 75.1543 410.603 75.1543C409.706 75.1543 409.023 75.4912 408.555 76.165C408.086 76.8389 407.849 77.8408 407.843 79.1709V79.9883C407.843 81.3301 408.098 82.3438 408.607 83.0293C409.117 83.7148 409.864 84.0576 410.849 84.0576C411.839 84.0576 412.545 83.8467 412.967 83.4248V81.2188H410.567V79.2764H415.604V84.3828ZM422.925 78.8721C422.579 78.8252 422.274 78.8018 422.011 78.8018C421.05 78.8018 420.42 79.127 420.121 79.7773V86H417.581V76.4902H419.98L420.051 77.624C420.561 76.751 421.267 76.3145 422.169 76.3145C422.45 76.3145 422.714 76.3525 422.96 76.4287L422.925 78.8721ZM426.836 86H424.287V76.4902H426.836V86ZM424.138 74.0293C424.138 73.6484 424.264 73.335 424.516 73.0889C424.773 72.8428 425.122 72.7197 425.562 72.7197C425.995 72.7197 426.341 72.8428 426.599 73.0889C426.856 73.335 426.985 73.6484 426.985 74.0293C426.985 74.416 426.854 74.7324 426.59 74.9785C426.332 75.2246 425.989 75.3477 425.562 75.3477C425.134 75.3477 424.788 75.2246 424.524 74.9785C424.267 74.7324 424.138 74.416 424.138 74.0293ZM428.541 81.1748C428.541 79.6924 428.872 78.5117 429.534 77.6328C430.202 76.7539 431.113 76.3145 432.268 76.3145C433.193 76.3145 433.958 76.6602 434.562 77.3516V72.5H437.11V86H434.816L434.693 84.9893C434.061 85.7803 433.246 86.1758 432.25 86.1758C431.131 86.1758 430.231 85.7363 429.552 84.8574C428.878 83.9727 428.541 82.7451 428.541 81.1748ZM431.081 81.3594C431.081 82.25 431.236 82.9326 431.547 83.4072C431.857 83.8818 432.309 84.1191 432.9 84.1191C433.686 84.1191 434.239 83.7881 434.562 83.126V79.373C434.245 78.7109 433.697 78.3799 432.918 78.3799C431.693 78.3799 431.081 79.373 431.081 81.3594ZM453.774 81.7373C453.675 83.1143 453.165 84.1982 452.245 84.9893C451.331 85.7803 450.124 86.1758 448.624 86.1758C446.983 86.1758 445.691 85.625 444.748 84.5234C443.811 83.416 443.342 81.8984 443.342 79.9707V79.1885C443.342 77.958 443.559 76.874 443.992 75.9365C444.426 74.999 445.044 74.2812 445.847 73.7832C446.655 73.2793 447.593 73.0273 448.659 73.0273C450.136 73.0273 451.325 73.4229 452.228 74.2139C453.13 75.0049 453.651 76.1152 453.792 77.5449H451.155C451.091 76.7188 450.859 76.1211 450.461 75.752C450.068 75.377 449.468 75.1895 448.659 75.1895C447.78 75.1895 447.121 75.5059 446.682 76.1387C446.248 76.7656 446.025 77.7412 446.014 79.0654V80.0322C446.014 81.415 446.222 82.4258 446.638 83.0645C447.06 83.7031 447.722 84.0225 448.624 84.0225C449.438 84.0225 450.045 83.8379 450.443 83.4688C450.848 83.0938 451.079 82.5166 451.138 81.7373H453.774ZM459.716 86.1758C458.321 86.1758 457.185 85.748 456.306 84.8926C455.433 84.0371 454.996 82.8975 454.996 81.4736V81.2275C454.996 80.2725 455.181 79.4199 455.55 78.6699C455.919 77.9141 456.44 77.334 457.114 76.9297C457.794 76.5195 458.567 76.3145 459.435 76.3145C460.735 76.3145 461.758 76.7246 462.502 77.5449C463.252 78.3652 463.627 79.5283 463.627 81.0342V82.0713H457.571C457.653 82.6924 457.899 83.1904 458.31 83.5654C458.726 83.9404 459.25 84.1279 459.883 84.1279C460.861 84.1279 461.626 83.7734 462.177 83.0645L463.425 84.4619C463.044 85.001 462.528 85.4229 461.878 85.7275C461.228 86.0264 460.507 86.1758 459.716 86.1758ZM459.426 78.3711C458.922 78.3711 458.512 78.541 458.195 78.8809C457.885 79.2207 457.686 79.707 457.598 80.3398H461.131V80.1377C461.119 79.5752 460.967 79.1416 460.674 78.8369C460.381 78.5264 459.965 78.3711 459.426 78.3711ZM467.758 86H465.209V72.5H467.758V86ZM472.539 86H469.99V72.5H472.539V86Z" fill="white"/>
<path d="M240.016 11.5625C239.594 12.0677 238.997 12.4609 238.227 12.7422C237.456 13.0182 236.602 13.1562 235.664 13.1562C234.68 13.1562 233.815 12.9427 233.07 12.5156C232.331 12.0833 231.758 11.4583 231.352 10.6406C230.951 9.82292 230.745 8.86198 230.734 7.75781V6.98438C230.734 5.84896 230.924 4.86719 231.305 4.03906C231.69 3.20573 232.242 2.57031 232.961 2.13281C233.685 1.6901 234.531 1.46875 235.5 1.46875C236.849 1.46875 237.904 1.79167 238.664 2.4375C239.424 3.07812 239.875 4.01302 240.016 5.24219H237.734C237.63 4.59115 237.398 4.11458 237.039 3.8125C236.685 3.51042 236.195 3.35938 235.57 3.35938C234.773 3.35938 234.167 3.65885 233.75 4.25781C233.333 4.85677 233.122 5.7474 233.117 6.92969V7.65625C233.117 8.84896 233.344 9.75 233.797 10.3594C234.25 10.9688 234.914 11.2734 235.789 11.2734C236.669 11.2734 237.297 11.0859 237.672 10.7109V8.75H235.539V7.02344H240.016V11.5625ZM246.523 6.66406C246.216 6.6224 245.945 6.60156 245.711 6.60156C244.857 6.60156 244.297 6.89062 244.031 7.46875V13H241.773V4.54688H243.906L243.969 5.55469C244.422 4.77865 245.049 4.39062 245.852 4.39062C246.102 4.39062 246.336 4.42448 246.555 4.49219L246.523 6.66406ZM250 13H247.734V4.54688H250V13ZM247.602 2.35938C247.602 2.02083 247.714 1.74219 247.938 1.52344C248.167 1.30469 248.477 1.19531 248.867 1.19531C249.253 1.19531 249.56 1.30469 249.789 1.52344C250.018 1.74219 250.133 2.02083 250.133 2.35938C250.133 2.70312 250.016 2.98438 249.781 3.20312C249.552 3.42188 249.247 3.53125 248.867 3.53125C248.487 3.53125 248.18 3.42188 247.945 3.20312C247.716 2.98438 247.602 2.70312 247.602 2.35938ZM251.516 8.71094C251.516 7.39323 251.81 6.34375 252.398 5.5625C252.992 4.78125 253.802 4.39062 254.828 4.39062C255.651 4.39062 256.331 4.69792 256.867 5.3125V1H259.133V13H257.094L256.984 12.1016C256.422 12.8047 255.698 13.1562 254.812 13.1562C253.818 13.1562 253.018 12.7656 252.414 11.9844C251.815 11.1979 251.516 10.1068 251.516 8.71094ZM253.773 8.875C253.773 9.66667 253.911 10.2734 254.188 10.6953C254.464 11.1172 254.865 11.3281 255.391 11.3281C256.089 11.3281 256.581 11.0339 256.867 10.4453V7.10938C256.586 6.52083 256.099 6.22656 255.406 6.22656C254.318 6.22656 253.773 7.10938 253.773 8.875ZM267.359 11.1172H272.336V13H265.016V1.625H267.359V11.1172ZM275.922 13H273.656V4.54688H275.922V13ZM273.523 2.35938C273.523 2.02083 273.635 1.74219 273.859 1.52344C274.089 1.30469 274.398 1.19531 274.789 1.19531C275.174 1.19531 275.482 1.30469 275.711 1.52344C275.94 1.74219 276.055 2.02083 276.055 2.35938C276.055 2.70312 275.938 2.98438 275.703 3.20312C275.474 3.42188 275.169 3.53125 274.789 3.53125C274.409 3.53125 274.102 3.42188 273.867 3.20312C273.638 2.98438 273.523 2.70312 273.523 2.35938ZM279.867 4.54688L279.938 5.52344C280.542 4.76823 281.352 4.39062 282.367 4.39062C283.263 4.39062 283.93 4.65365 284.367 5.17969C284.805 5.70573 285.029 6.49219 285.039 7.53906V13H282.781V7.59375C282.781 7.11458 282.677 6.76823 282.469 6.55469C282.26 6.33594 281.914 6.22656 281.43 6.22656C280.794 6.22656 280.318 6.4974 280 7.03906V13H277.742V4.54688H279.867ZM290.648 13.1562C289.409 13.1562 288.398 12.776 287.617 12.0156C286.841 11.2552 286.453 10.2422 286.453 8.97656V8.75781C286.453 7.90885 286.617 7.15104 286.945 6.48438C287.273 5.8125 287.737 5.29688 288.336 4.9375C288.94 4.57292 289.628 4.39062 290.398 4.39062C291.555 4.39062 292.464 4.75521 293.125 5.48438C293.792 6.21354 294.125 7.2474 294.125 8.58594V9.50781H288.742C288.815 10.0599 289.034 10.5026 289.398 10.8359C289.768 11.1693 290.234 11.3359 290.797 11.3359C291.667 11.3359 292.346 11.0208 292.836 10.3906L293.945 11.6328C293.607 12.112 293.148 12.487 292.57 12.7578C291.992 13.0234 291.352 13.1562 290.648 13.1562ZM290.391 6.21875C289.943 6.21875 289.578 6.36979 289.297 6.67188C289.021 6.97396 288.844 7.40625 288.766 7.96875H291.906V7.78906C291.896 7.28906 291.76 6.90365 291.5 6.63281C291.24 6.35677 290.87 6.21875 290.391 6.21875Z" fill="#E44D26"/>
<path d="M66.8838 187.383C66.4092 187.951 65.7383 188.394 64.8711 188.71C64.0039 189.021 63.043 189.176 61.9883 189.176C60.8809 189.176 59.9082 188.936 59.0703 188.455C58.2383 187.969 57.5938 187.266 57.1367 186.346C56.6855 185.426 56.4541 184.345 56.4424 183.103V182.232C56.4424 180.955 56.6562 179.851 57.084 178.919C57.5176 177.981 58.1387 177.267 58.9473 176.774C59.7617 176.276 60.7139 176.027 61.8037 176.027C63.3213 176.027 64.5078 176.391 65.3633 177.117C66.2188 177.838 66.7256 178.89 66.8838 180.272H64.3174C64.2002 179.54 63.9395 179.004 63.5352 178.664C63.1367 178.324 62.5859 178.154 61.8828 178.154C60.9863 178.154 60.3037 178.491 59.835 179.165C59.3662 179.839 59.1289 180.841 59.123 182.171V182.988C59.123 184.33 59.3779 185.344 59.8877 186.029C60.3975 186.715 61.1445 187.058 62.1289 187.058C63.1191 187.058 63.8252 186.847 64.2471 186.425V184.219H61.8477V182.276H66.8838V187.383ZM74.2051 181.872C73.8594 181.825 73.5547 181.802 73.291 181.802C72.3301 181.802 71.7002 182.127 71.4014 182.777V189H68.8613V179.49H71.2607L71.3311 180.624C71.8408 179.751 72.5469 179.314 73.4492 179.314C73.7305 179.314 73.9941 179.353 74.2402 179.429L74.2051 181.872ZM78.1162 189H75.5674V179.49H78.1162V189ZM75.418 177.029C75.418 176.648 75.5439 176.335 75.7959 176.089C76.0537 175.843 76.4023 175.72 76.8418 175.72C77.2754 175.72 77.6211 175.843 77.8789 176.089C78.1367 176.335 78.2656 176.648 78.2656 177.029C78.2656 177.416 78.1338 177.732 77.8701 177.979C77.6123 178.225 77.2695 178.348 76.8418 178.348C76.4141 178.348 76.0684 178.225 75.8047 177.979C75.5469 177.732 75.418 177.416 75.418 177.029ZM79.8213 184.175C79.8213 182.692 80.1523 181.512 80.8145 180.633C81.4824 179.754 82.3936 179.314 83.5479 179.314C84.4736 179.314 85.2383 179.66 85.8418 180.352V175.5H88.3906V189H86.0967L85.9736 187.989C85.3408 188.78 84.5264 189.176 83.5303 189.176C82.4111 189.176 81.5117 188.736 80.832 187.857C80.1582 186.973 79.8213 185.745 79.8213 184.175ZM82.3613 184.359C82.3613 185.25 82.5166 185.933 82.8271 186.407C83.1377 186.882 83.5889 187.119 84.1807 187.119C84.9658 187.119 85.5195 186.788 85.8418 186.126V182.373C85.5254 181.711 84.9775 181.38 84.1982 181.38C82.9736 181.38 82.3613 182.373 82.3613 184.359ZM60.5117 199.339H56.5918V210H53.9551V199.339H50.0879V197.203H60.5117V199.339ZM66.6201 202.872C66.2744 202.825 65.9697 202.802 65.7061 202.802C64.7451 202.802 64.1152 203.127 63.8164 203.777V210H61.2764V200.49H63.6758L63.7461 201.624C64.2559 200.751 64.9619 200.314 65.8643 200.314C66.1455 200.314 66.4092 200.353 66.6553 200.429L66.6201 202.872ZM73.0977 210C72.9805 209.771 72.8955 209.487 72.8428 209.147C72.2275 209.833 71.4277 210.176 70.4434 210.176C69.5117 210.176 68.7383 209.906 68.123 209.367C67.5137 208.828 67.209 208.148 67.209 207.328C67.209 206.32 67.5811 205.547 68.3252 205.008C69.0752 204.469 70.1562 204.196 71.5684 204.19H72.7373V203.646C72.7373 203.206 72.623 202.854 72.3945 202.591C72.1719 202.327 71.8174 202.195 71.3311 202.195C70.9033 202.195 70.5664 202.298 70.3203 202.503C70.0801 202.708 69.96 202.989 69.96 203.347H67.4199C67.4199 202.796 67.5898 202.286 67.9297 201.817C68.2695 201.349 68.75 200.982 69.3711 200.719C69.9922 200.449 70.6895 200.314 71.4629 200.314C72.6348 200.314 73.5635 200.61 74.249 201.202C74.9404 201.788 75.2861 202.614 75.2861 203.681V207.803C75.292 208.705 75.418 209.388 75.6641 209.851V210H73.0977ZM70.9971 208.233C71.3721 208.233 71.7178 208.151 72.0342 207.987C72.3506 207.817 72.585 207.592 72.7373 207.311V205.676H71.7881C70.5166 205.676 69.8398 206.115 69.7578 206.994L69.749 207.144C69.749 207.46 69.8604 207.721 70.083 207.926C70.3057 208.131 70.6104 208.233 70.9971 208.233ZM81.1924 208.128C81.6611 208.128 82.042 207.999 82.335 207.741C82.6279 207.483 82.7803 207.141 82.792 206.713H85.1738C85.168 207.357 84.9922 207.949 84.6465 208.488C84.3008 209.021 83.8262 209.438 83.2227 209.736C82.625 210.029 81.9629 210.176 81.2363 210.176C79.877 210.176 78.8047 209.745 78.0195 208.884C77.2344 208.017 76.8418 206.821 76.8418 205.298V205.131C76.8418 203.666 77.2314 202.497 78.0107 201.624C78.79 200.751 79.8594 200.314 81.2188 200.314C82.4082 200.314 83.3604 200.654 84.0752 201.334C84.7959 202.008 85.1621 202.907 85.1738 204.032H82.792C82.7803 203.54 82.6279 203.142 82.335 202.837C82.042 202.526 81.6553 202.371 81.1748 202.371C80.583 202.371 80.1348 202.588 79.8301 203.021C79.5312 203.449 79.3818 204.146 79.3818 205.113V205.377C79.3818 206.355 79.5312 207.059 79.8301 207.486C80.1289 207.914 80.583 208.128 81.1924 208.128ZM90.0781 206.186L89.1641 207.1V210H86.624V196.5H89.1641V203.979L89.6562 203.347L92.0908 200.49H95.1406L91.7041 204.454L95.4395 210H92.5215L90.0781 206.186ZM37.2031 225.797C37.2031 224.455 37.3818 223.178 37.7393 221.965C38.0967 220.752 38.624 219.68 39.3213 218.748C40.0186 217.811 40.7744 217.16 41.5889 216.797L42.0811 218.168C41.2256 218.801 40.5576 219.779 40.0771 221.104C39.5967 222.428 39.3564 223.975 39.3564 225.744V226.017C39.3564 227.792 39.5938 229.345 40.0684 230.675C40.543 232.005 41.2139 232.998 42.0811 233.654L41.5889 234.999C40.792 234.642 40.0479 234.009 39.3564 233.101C38.6709 232.198 38.1465 231.155 37.7832 229.972C37.4199 228.788 37.2266 227.552 37.2031 226.263V225.797ZM47.3721 229.128C47.8408 229.128 48.2217 228.999 48.5146 228.741C48.8076 228.483 48.96 228.141 48.9717 227.713H51.3535C51.3477 228.357 51.1719 228.949 50.8262 229.488C50.4805 230.021 50.0059 230.438 49.4023 230.736C48.8047 231.029 48.1426 231.176 47.416 231.176C46.0566 231.176 44.9844 230.745 44.1992 229.884C43.4141 229.017 43.0215 227.821 43.0215 226.298V226.131C43.0215 224.666 43.4111 223.497 44.1904 222.624C44.9697 221.751 46.0391 221.314 47.3984 221.314C48.5879 221.314 49.54 221.654 50.2549 222.334C50.9756 223.008 51.3418 223.907 51.3535 225.032H48.9717C48.96 224.54 48.8076 224.142 48.5146 223.837C48.2217 223.526 47.835 223.371 47.3545 223.371C46.7627 223.371 46.3145 223.588 46.0098 224.021C45.7109 224.449 45.5615 225.146 45.5615 226.113V226.377C45.5615 227.355 45.7109 228.059 46.0098 228.486C46.3086 228.914 46.7627 229.128 47.3721 229.128ZM52.4082 226.157C52.4082 225.214 52.5898 224.373 52.9531 223.635C53.3164 222.896 53.8379 222.325 54.5176 221.921C55.2031 221.517 55.9971 221.314 56.8994 221.314C58.1826 221.314 59.2285 221.707 60.0371 222.492C60.8516 223.277 61.3057 224.344 61.3994 225.691L61.417 226.342C61.417 227.801 61.0098 228.973 60.1953 229.857C59.3809 230.736 58.2881 231.176 56.917 231.176C55.5459 231.176 54.4502 230.736 53.6299 229.857C52.8154 228.979 52.4082 227.783 52.4082 226.271V226.157ZM54.9482 226.342C54.9482 227.244 55.1182 227.936 55.458 228.416C55.7979 228.891 56.2842 229.128 56.917 229.128C57.5322 229.128 58.0127 228.894 58.3584 228.425C58.7041 227.95 58.877 227.194 58.877 226.157C58.877 225.272 58.7041 224.587 58.3584 224.101C58.0127 223.614 57.5264 223.371 56.8994 223.371C56.2783 223.371 55.7979 223.614 55.458 224.101C55.1182 224.581 54.9482 225.328 54.9482 226.342ZM65.6621 231H63.1133V217.5H65.6621V231ZM73.458 230.033C72.8311 230.795 71.9639 231.176 70.8564 231.176C69.8369 231.176 69.0576 230.883 68.5186 230.297C67.9854 229.711 67.7129 228.853 67.7012 227.722V221.49H70.2412V227.634C70.2412 228.624 70.6924 229.119 71.5947 229.119C72.4561 229.119 73.0479 228.82 73.3701 228.223V221.49H75.9189V231H73.5283L73.458 230.033ZM80.2168 221.49L80.2959 222.554C80.9697 221.728 81.8809 221.314 83.0293 221.314C84.2539 221.314 85.0947 221.798 85.5518 222.765C86.2197 221.798 87.1719 221.314 88.4082 221.314C89.4395 221.314 90.207 221.616 90.7109 222.22C91.2148 222.817 91.4668 223.72 91.4668 224.927V231H88.918V224.936C88.918 224.396 88.8125 224.004 88.6016 223.758C88.3906 223.506 88.0186 223.38 87.4854 223.38C86.7236 223.38 86.1963 223.743 85.9033 224.47L85.9121 231H83.3721V224.944C83.3721 224.394 83.2637 223.995 83.0469 223.749C82.8301 223.503 82.4609 223.38 81.9395 223.38C81.2188 223.38 80.6973 223.679 80.375 224.276V231H77.835V221.49H80.2168ZM95.7646 221.49L95.8438 222.589C96.5234 221.739 97.4346 221.314 98.5771 221.314C99.585 221.314 100.335 221.61 100.827 222.202C101.319 222.794 101.571 223.679 101.583 224.856V231H99.043V224.918C99.043 224.379 98.9258 223.989 98.6914 223.749C98.457 223.503 98.0674 223.38 97.5225 223.38C96.8076 223.38 96.2715 223.685 95.9141 224.294V231H93.374V221.49H95.7646ZM107.894 225.999C107.894 227.323 107.703 228.598 107.322 229.822C106.941 231.047 106.394 232.128 105.679 233.065C104.964 234.003 104.199 234.647 103.385 234.999L102.893 233.654C103.725 233.027 104.381 232.061 104.861 230.754C105.342 229.447 105.591 227.944 105.608 226.245V225.779C105.608 224.027 105.368 222.483 104.888 221.147C104.413 219.812 103.748 218.81 102.893 218.142L103.385 216.797C104.182 217.143 104.932 217.77 105.635 218.678C106.344 219.586 106.892 220.644 107.278 221.851C107.671 223.058 107.876 224.309 107.894 225.604V225.999Z" fill="white"/>
<path d="M209 49L214.774 39H203.226L209 49ZM210 45.3V42.1286H208V45.3H210ZM210 40.0143V36.8429H208V40.0143H210ZM210 34.7286V31.5571H208V34.7286H210ZM210 29.4429V26.2714H208V29.4429H210ZM210 24.1571V20.9857H208V24.1571H210ZM210 18.8714V15.7H208V18.8714H210ZM210 13.5857V12H208V13.5857H210ZM210 12C210 11.6769 210.038 11.3639 210.11 11.065L208.165 10.5996C208.057 11.0499 208 11.519 208 12H210ZM210.588 9.9105C210.919 9.3727 211.373 8.91856 211.91 8.58831L210.864 6.884C210.058 7.37876 209.379 8.05823 208.884 8.86391L210.588 9.9105ZM213.065 8.10965C213.364 8.03812 213.677 8 214 8V6C213.519 6 213.05 6.05681 212.6 6.16454L213.065 8.10965ZM214 8H215.8V6H214V8ZM218.2 8H221.8V6H218.2V8ZM224.2 8H226V6H224.2V8Z" fill="#E44D26"/>
<defs>
<clipPath id="clip0">
<rect width="7.99998" height="452" fill="white" transform="translate(29 114) rotate(-90)"/>
</clipPath>
<clipPath id="clip1">
<rect width="7.99998" height="452" fill="white" transform="translate(29 176) rotate(-90)"/>
</clipPath>
<clipPath id="clip2">
<rect width="7.99998" height="452" fill="white" transform="translate(29 238) rotate(-90)"/>
</clipPath>
<clipPath id="clip3">
<rect width="7.99998" height="452" fill="white" transform="translate(29 300) rotate(-90)"/>
</clipPath>
</defs>
</svg>
