<svg width="398" height="178" viewBox="0 0 398 178" fill="none" xmlns="http://www.w3.org/2000/svg">
<path d="M0.560547 10.2471C0.560547 9.09863 0.829427 8.18262 1.36719 7.49902C1.90951 6.81087 2.62728 6.4668 3.52051 6.4668C4.36361 6.4668 5.02669 6.76074 5.50977 7.34863L5.58496 6.60352H7.08203V13.7744C7.08203 14.7451 6.77897 15.5107 6.17285 16.0713C5.57129 16.6318 4.75781 16.9121 3.73242 16.9121C3.1901 16.9121 2.65918 16.7982 2.13965 16.5703C1.62467 16.347 1.23275 16.0531 0.963867 15.6885L1.75 14.6904C2.26042 15.2965 2.88932 15.5996 3.63672 15.5996C4.18815 15.5996 4.62337 15.4492 4.94238 15.1484C5.26139 14.8522 5.4209 14.4147 5.4209 13.8359V13.3369C4.94238 13.8701 4.30436 14.1367 3.50684 14.1367C2.64095 14.1367 1.93229 13.7926 1.38086 13.1045C0.833984 12.4163 0.560547 11.4639 0.560547 10.2471ZM2.21484 10.3906C2.21484 11.1335 2.36523 11.7191 2.66602 12.1475C2.97135 12.5713 3.3929 12.7832 3.93066 12.7832C4.60059 12.7832 5.09733 12.4961 5.4209 11.9219V8.66797C5.10645 8.10742 4.61426 7.82715 3.94434 7.82715C3.39746 7.82715 2.97135 8.04362 2.66602 8.47656C2.36523 8.90951 2.21484 9.54753 2.21484 10.3906ZM12.667 8.12109C12.4482 8.08464 12.2227 8.06641 11.9902 8.06641C11.2292 8.06641 10.7165 8.35807 10.4521 8.94141V14H8.79102V6.60352H10.377L10.418 7.43066C10.819 6.78809 11.375 6.4668 12.0859 6.4668C12.3229 6.4668 12.5189 6.4987 12.6738 6.5625L12.667 8.12109ZM15.4834 14H13.8223V6.60352H15.4834V14ZM13.7197 4.68262C13.7197 4.42741 13.7995 4.21549 13.959 4.04688C14.123 3.87826 14.3555 3.79395 14.6562 3.79395C14.957 3.79395 15.1895 3.87826 15.3535 4.04688C15.5176 4.21549 15.5996 4.42741 15.5996 4.68262C15.5996 4.93327 15.5176 5.1429 15.3535 5.31152C15.1895 5.47559 14.957 5.55762 14.6562 5.55762C14.3555 5.55762 14.123 5.47559 13.959 5.31152C13.7995 5.1429 13.7197 4.93327 13.7197 4.68262ZM16.9873 10.2471C16.9873 9.10775 17.2516 8.19401 17.7803 7.50586C18.3089 6.81315 19.0176 6.4668 19.9062 6.4668C20.6901 6.4668 21.3236 6.74023 21.8066 7.28711V3.5H23.4678V14H21.9639L21.8818 13.2344C21.3851 13.8359 20.722 14.1367 19.8926 14.1367C19.0267 14.1367 18.3249 13.7881 17.7871 13.0908C17.2539 12.3936 16.9873 11.4456 16.9873 10.2471ZM18.6484 10.3906C18.6484 11.1426 18.792 11.7305 19.0791 12.1543C19.3708 12.5736 19.7832 12.7832 20.3164 12.7832C20.9954 12.7832 21.4922 12.4801 21.8066 11.874V8.71582C21.5013 8.12337 21.0091 7.82715 20.3301 7.82715C19.7923 7.82715 19.3776 8.04134 19.0859 8.46973C18.7943 8.89355 18.6484 9.53385 18.6484 10.3906ZM31.7256 12.8105C32.1403 12.8105 32.4844 12.6898 32.7578 12.4482C33.0312 12.2067 33.1771 11.9082 33.1953 11.5527H34.7607C34.7425 12.013 34.599 12.4437 34.3301 12.8447C34.0612 13.2412 33.6966 13.5557 33.2363 13.7881C32.776 14.0205 32.2793 14.1367 31.7461 14.1367C30.7116 14.1367 29.8913 13.8018 29.2852 13.1318C28.679 12.4619 28.376 11.5368 28.376 10.3564V10.1855C28.376 9.0599 28.6768 8.15983 29.2783 7.48535C29.8799 6.80632 30.7002 6.4668 31.7393 6.4668C32.6188 6.4668 33.3343 6.72428 33.8857 7.23926C34.4417 7.74967 34.7334 8.42188 34.7607 9.25586H33.1953C33.1771 8.83203 33.0312 8.4834 32.7578 8.20996C32.4889 7.93652 32.1449 7.7998 31.7256 7.7998C31.1878 7.7998 30.7731 7.99577 30.4814 8.3877C30.1898 8.77507 30.0417 9.36523 30.0371 10.1582V10.4248C30.0371 11.2269 30.1807 11.8262 30.4678 12.2227C30.7594 12.6146 31.1787 12.8105 31.7256 12.8105ZM35.7041 10.2334C35.7041 9.50879 35.8477 8.8571 36.1348 8.27832C36.4219 7.69499 36.8252 7.24837 37.3447 6.93848C37.8643 6.62402 38.4613 6.4668 39.1357 6.4668C40.1338 6.4668 40.9427 6.78809 41.5625 7.43066C42.1868 8.07324 42.5241 8.92546 42.5742 9.9873L42.5811 10.377C42.5811 11.1061 42.4398 11.7578 42.1572 12.332C41.8792 12.9062 41.4782 13.3506 40.9541 13.665C40.4346 13.9795 39.833 14.1367 39.1494 14.1367C38.1058 14.1367 37.2695 13.7904 36.6406 13.0977C36.0163 12.4004 35.7041 11.473 35.7041 10.3154V10.2334ZM37.3652 10.377C37.3652 11.138 37.5225 11.735 37.8369 12.168C38.1514 12.5964 38.5889 12.8105 39.1494 12.8105C39.71 12.8105 40.1452 12.5918 40.4551 12.1543C40.7695 11.7168 40.9268 11.0765 40.9268 10.2334C40.9268 9.486 40.765 8.89355 40.4414 8.45605C40.1224 8.01855 39.6872 7.7998 39.1357 7.7998C38.5934 7.7998 38.1628 8.01628 37.8438 8.44922C37.5247 8.8776 37.3652 9.52018 37.3652 10.377ZM45.5273 6.60352L45.5752 7.45801C46.1221 6.7972 46.8398 6.4668 47.7285 6.4668C49.2689 6.4668 50.0527 7.34863 50.0801 9.1123V14H48.4189V9.20801C48.4189 8.73861 48.3164 8.39225 48.1113 8.16895C47.9108 7.94108 47.5804 7.82715 47.1201 7.82715C46.4502 7.82715 45.9512 8.13021 45.623 8.73633V14H43.9619V6.60352H45.5273ZM53.8604 4.80566V6.60352H55.166V7.83398H53.8604V11.9629C53.8604 12.2454 53.915 12.4505 54.0244 12.5781C54.1383 12.7012 54.3389 12.7627 54.626 12.7627C54.8174 12.7627 55.0111 12.7399 55.207 12.6943V13.9795C54.8288 14.0843 54.4642 14.1367 54.1133 14.1367C52.8372 14.1367 52.1992 13.4326 52.1992 12.0244V7.83398H50.9824V6.60352H52.1992V4.80566H53.8604ZM60.8604 14C60.7874 13.8587 60.7236 13.6286 60.6689 13.3096C60.1403 13.861 59.4932 14.1367 58.7275 14.1367C57.9847 14.1367 57.3786 13.9248 56.9092 13.501C56.4398 13.0771 56.2051 12.5531 56.2051 11.9287C56.2051 11.1403 56.4967 10.5365 57.0801 10.1172C57.668 9.69336 58.5065 9.48145 59.5957 9.48145H60.6143V8.99609C60.6143 8.61328 60.5072 8.30794 60.293 8.08008C60.0788 7.84766 59.7529 7.73145 59.3154 7.73145C58.9372 7.73145 58.6273 7.82715 58.3857 8.01855C58.1442 8.2054 58.0234 8.44466 58.0234 8.73633H56.3623C56.3623 8.33073 56.4967 7.95247 56.7656 7.60156C57.0345 7.24609 57.3991 6.9681 57.8594 6.76758C58.3242 6.56706 58.8415 6.4668 59.4111 6.4668C60.277 6.4668 60.9674 6.68555 61.4824 7.12305C61.9974 7.55599 62.2617 8.16667 62.2754 8.95508V12.291C62.2754 12.9564 62.3688 13.4873 62.5557 13.8838V14H60.8604ZM59.0352 12.8037C59.3633 12.8037 59.6709 12.724 59.958 12.5645C60.2497 12.4049 60.4684 12.1908 60.6143 11.9219V10.5273H59.7188C59.1035 10.5273 58.641 10.6344 58.3311 10.8486C58.0212 11.0628 57.8662 11.3659 57.8662 11.7578C57.8662 12.0768 57.971 12.332 58.1807 12.5234C58.3949 12.7103 58.6797 12.8037 59.0352 12.8037ZM65.7822 14H64.1211V6.60352H65.7822V14ZM64.0186 4.68262C64.0186 4.42741 64.0983 4.21549 64.2578 4.04688C64.4219 3.87826 64.6543 3.79395 64.9551 3.79395C65.2559 3.79395 65.4883 3.87826 65.6523 4.04688C65.8164 4.21549 65.8984 4.42741 65.8984 4.68262C65.8984 4.93327 65.8164 5.1429 65.6523 5.31152C65.4883 5.47559 65.2559 5.55762 64.9551 5.55762C64.6543 5.55762 64.4219 5.47559 64.2578 5.31152C64.0983 5.1429 64.0186 4.93327 64.0186 4.68262ZM69.1387 6.60352L69.1865 7.45801C69.7334 6.7972 70.4512 6.4668 71.3398 6.4668C72.8802 6.4668 73.6641 7.34863 73.6914 9.1123V14H72.0303V9.20801C72.0303 8.73861 71.9277 8.39225 71.7227 8.16895C71.5221 7.94108 71.1917 7.82715 70.7314 7.82715C70.0615 7.82715 69.5625 8.13021 69.2344 8.73633V14H67.5732V6.60352H69.1387ZM78.6475 14.1367C77.5947 14.1367 76.7402 13.8063 76.084 13.1455C75.4323 12.4801 75.1064 11.596 75.1064 10.4932V10.2881C75.1064 9.5498 75.2477 8.89128 75.5303 8.3125C75.8174 7.72917 76.2184 7.27572 76.7334 6.95215C77.2484 6.62858 77.8226 6.4668 78.4561 6.4668C79.4632 6.4668 80.2402 6.78809 80.7871 7.43066C81.3385 8.07324 81.6143 8.98242 81.6143 10.1582V10.8281H76.7812C76.8314 11.4388 77.0342 11.9219 77.3896 12.2773C77.7497 12.6328 78.2008 12.8105 78.7432 12.8105C79.5042 12.8105 80.124 12.5029 80.6025 11.8877L81.498 12.7422C81.2018 13.1842 80.8053 13.5283 80.3086 13.7744C79.8164 14.016 79.2627 14.1367 78.6475 14.1367ZM78.4492 7.7998C77.9935 7.7998 77.6243 7.95931 77.3418 8.27832C77.0638 8.59733 76.8861 9.04167 76.8086 9.61133H79.9736V9.48828C79.9372 8.93229 79.7891 8.51302 79.5293 8.23047C79.2695 7.94336 78.9095 7.7998 78.4492 7.7998ZM86.7822 8.12109C86.5635 8.08464 86.3379 8.06641 86.1055 8.06641C85.3444 8.06641 84.8317 8.35807 84.5674 8.94141V14H82.9062V6.60352H84.4922L84.5332 7.43066C84.9342 6.78809 85.4902 6.4668 86.2012 6.4668C86.4382 6.4668 86.6341 6.4987 86.7891 6.5625L86.7822 8.12109Z" fill="#BBBBBB"/>
<rect x="1" y="29" width="396" height="148" rx="5" fill="#EEEEEE" stroke="#AAAAAA" stroke-width="2" stroke-dasharray="6 4"/>
<path d="M142.5 32L142.5 174" stroke="#AAAAAA" stroke-dasharray="4 2"/>
<path d="M255.5 32L255.5 174" stroke="#AAAAAA" stroke-dasharray="4 2"/>
<path d="M394 94.5676L3.99999 94.5673" stroke="#AAAAAA" stroke-dasharray="4 2"/>
<path d="M394 135.5L3.99999 135.5" stroke="#AAAAAA" stroke-dasharray="4 2"/>
<path d="M2 34C2 31.7909 3.79086 30 6 30H142V94H2V34Z" fill="white"/>
<g opacity="0.75">
<path d="M6 38C6 35.7909 7.79086 34 10 34H134C136.209 34 138 35.7909 138 38V86C138 88.2091 136.209 90 134 90H10C7.79086 90 6 88.2091 6 86V38Z" fill="#1E73FF"/>
<path d="M54.1997 64.3933C54.1997 64.0759 54.0679 63.8342 53.8042 63.6682C53.5454 63.5022 53.1133 63.3557 52.5078 63.2288C51.9023 63.1018 51.397 62.9407 50.9917 62.7454C50.103 62.3157 49.6587 61.6931 49.6587 60.8777C49.6587 60.1941 49.9468 59.6228 50.5229 59.1638C51.0991 58.7048 51.8315 58.4753 52.7202 58.4753C53.6675 58.4753 54.4316 58.7097 55.0127 59.1785C55.5986 59.6472 55.8916 60.2551 55.8916 61.0022H54.1118C54.1118 60.6604 53.9849 60.3772 53.731 60.1526C53.4771 59.9231 53.1401 59.8083 52.7202 59.8083C52.3296 59.8083 52.0098 59.8987 51.7607 60.0793C51.5166 60.26 51.3945 60.5017 51.3945 60.8044C51.3945 61.0779 51.5093 61.2903 51.7388 61.4417C51.9683 61.593 52.4321 61.7468 53.1304 61.9031C53.8286 62.0544 54.3755 62.2375 54.771 62.4524C55.1714 62.6624 55.4668 62.9163 55.6572 63.2141C55.8525 63.512 55.9502 63.8733 55.9502 64.2981C55.9502 65.011 55.6548 65.5896 55.064 66.0339C54.4731 66.4734 53.6992 66.6931 52.7422 66.6931C52.0928 66.6931 51.5142 66.5759 51.0063 66.3416C50.4985 66.1072 50.103 65.7849 49.8198 65.3748C49.5366 64.9646 49.395 64.5227 49.395 64.0491H51.1235C51.1479 64.469 51.3066 64.7937 51.5996 65.0232C51.8926 65.2478 52.2808 65.3601 52.7642 65.3601C53.2329 65.3601 53.5894 65.2722 53.8335 65.0964C54.0776 64.9158 54.1997 64.6814 54.1997 64.3933ZM59.7368 56.6956V58.6218H61.1357V59.9402H59.7368V64.364C59.7368 64.6667 59.7954 64.8865 59.9126 65.0232C60.0347 65.155 60.2495 65.2209 60.5571 65.2209C60.7622 65.2209 60.9697 65.1965 61.1797 65.1477V66.5247C60.7744 66.637 60.3838 66.6931 60.0078 66.6931C58.6406 66.6931 57.957 65.9387 57.957 64.4299V59.9402H56.6533V58.6218H57.957V56.6956H59.7368ZM66.6509 60.2478C66.4165 60.2087 66.1748 60.1892 65.9258 60.1892C65.1104 60.1892 64.561 60.5017 64.2778 61.1267V66.5466H62.498V58.6218H64.1973L64.2412 59.5081C64.6709 58.8196 65.2666 58.4753 66.0283 58.4753C66.2822 58.4753 66.4922 58.5095 66.6582 58.5779L66.6509 60.2478ZM71.1187 66.6931C69.9907 66.6931 69.0752 66.3391 68.3721 65.6311C67.6738 64.9182 67.3247 63.9709 67.3247 62.7893V62.5696C67.3247 61.7786 67.4761 61.073 67.7788 60.4529C68.0864 59.8279 68.5161 59.342 69.0679 58.9954C69.6196 58.6487 70.2349 58.4753 70.9136 58.4753C71.9927 58.4753 72.8252 58.8196 73.4111 59.5081C74.002 60.1965 74.2974 61.1707 74.2974 62.4304V63.1482H69.1191C69.1729 63.8025 69.3901 64.3201 69.771 64.7009C70.1567 65.0818 70.6401 65.2722 71.2212 65.2722C72.0366 65.2722 72.7007 64.9426 73.2134 64.2834L74.1729 65.199C73.8555 65.6726 73.4307 66.0413 72.8984 66.3049C72.3711 66.5637 71.7778 66.6931 71.1187 66.6931ZM70.9062 59.9036C70.418 59.9036 70.0225 60.0745 69.7197 60.4163C69.4219 60.7581 69.2314 61.2341 69.1484 61.8445H72.5396V61.7126C72.5005 61.1169 72.3418 60.6677 72.0635 60.365C71.7852 60.0574 71.3994 59.9036 70.9062 59.9036ZM77.9155 56.6956V58.6218H79.3145V59.9402H77.9155V64.364C77.9155 64.6667 77.9741 64.8865 78.0913 65.0232C78.2134 65.155 78.4282 65.2209 78.7358 65.2209C78.9409 65.2209 79.1484 65.1965 79.3584 65.1477V66.5247C78.9531 66.637 78.5625 66.6931 78.1865 66.6931C76.8193 66.6931 76.1357 65.9387 76.1357 64.4299V59.9402H74.832V58.6218H76.1357V56.6956H77.9155ZM83.936 65.2722C84.3804 65.2722 84.749 65.1428 85.042 64.884C85.335 64.6252 85.4912 64.3054 85.5107 63.9246H87.188C87.1685 64.4177 87.0146 64.8792 86.7266 65.3088C86.4385 65.7336 86.0479 66.0706 85.5547 66.3196C85.0615 66.5686 84.5293 66.6931 83.958 66.6931C82.8496 66.6931 81.9707 66.3342 81.3213 65.6165C80.6719 64.8987 80.3472 63.9075 80.3472 62.6428V62.4597C80.3472 61.2537 80.6694 60.2893 81.314 59.5667C81.9585 58.8391 82.8374 58.4753 83.9507 58.4753C84.8931 58.4753 85.6597 58.7512 86.2505 59.303C86.8462 59.8499 87.1587 60.5701 87.188 61.4636H85.5107C85.4912 61.0095 85.335 60.636 85.042 60.343C84.7539 60.05 84.3853 59.9036 83.936 59.9036C83.3599 59.9036 82.9155 60.1135 82.603 60.5334C82.2905 60.9485 82.1318 61.5808 82.127 62.4304V62.7161C82.127 63.5754 82.2808 64.2175 82.5884 64.6423C82.9009 65.0623 83.3501 65.2722 83.936 65.2722ZM90.2861 59.4861C90.8672 58.8123 91.6021 58.4753 92.4907 58.4753C94.1802 58.4753 95.0371 59.4397 95.0615 61.3684V66.5466H93.2817V61.4343C93.2817 60.8875 93.1621 60.5017 92.9229 60.2771C92.6885 60.0476 92.3418 59.9329 91.8828 59.9329C91.1699 59.9329 90.6377 60.2502 90.2861 60.885V66.5466H88.5063V55.2966H90.2861V59.4861Z" fill="white"/>
</g>
</svg>
