<svg width="90" height="90" viewBox="0 0 90 90" fill="none" xmlns="http://www.w3.org/2000/svg">
<rect x="14.8926" y="0.0986633" width="21.0613" height="21.0613" transform="rotate(45 14.8926 0.0986633)" fill="#1E73FF"/>
<rect x="14.8926" y="30" width="21.0613" height="21.0613" transform="rotate(45 14.8926 30)" fill="#B72DF8"/>
<rect x="14.8926" y="60" width="21.0613" height="21.0613" transform="rotate(45 14.8926 60)" fill="#1E73FF"/>
<rect x="44.7803" y="0.0986633" width="21.0613" height="21.0613" transform="rotate(45 44.7803 0.0986633)" fill="#B72DF8"/>
<rect x="44.7803" y="30" width="21.0613" height="21.0613" transform="rotate(45 44.7803 30)" fill="#EEEEEE"/>
<rect x="44.7803" y="60" width="21.0613" height="21.0613" transform="rotate(45 44.7803 60)" fill="#B72DF8"/>
<rect x="74.7803" y="0.0986633" width="21.0613" height="21.0613" transform="rotate(45 74.7803 0.0986633)" fill="#1E73FF"/>
<rect x="74.7803" y="30" width="21.0613" height="21.0613" transform="rotate(45 74.7803 30)" fill="#B72DF8"/>
<rect x="74.7803" y="60" width="21.0613" height="21.0613" transform="rotate(45 74.7803 60)" fill="#1E73FF"/>
</svg>
