<svg width="271" height="164" viewBox="0 0 271 164" fill="none" xmlns="http://www.w3.org/2000/svg">
<circle cx="73" cy="72" r="50" fill="#FFE500"/>
<circle cx="173" cy="72" r="50" fill="#85E383"/>
<path fill-rule="evenodd" clip-rule="evenodd" d="M25 22H35V24H25L25 34H23V24V22H25ZM23 120V110H25L25 120H35V122H25H23V120ZM124 24V34H122V24L112 24V22H122H124H134V24H124ZM122 110V120H112V122H122H124H134V120H124V110H122ZM223 34V24V22H221H211V24L221 24V34H223ZM221 122H211V120H221V110H223V120V122H221Z" fill="black"/>
<path opacity="0.5" fill-rule="evenodd" clip-rule="evenodd" d="M244.75 23L239.5 26.0311V24H25.0311L25.0311 142.5H27.0622L24.0311 147.75L21 142.5H23.0311L23.0311 24H23V22L23.0311 22L25.0311 22H239.5V19.9689L244.75 23Z" fill="#FF0000"/>
<path fill-rule="evenodd" clip-rule="evenodd" d="M70 143.25L73.0311 138L76.0622 143.25L74 143.25L74 148L72.0001 148L72 143.25L70 143.25Z" fill="#00A3FF"/>
<path fill-rule="evenodd" clip-rule="evenodd" d="M114.208 27.7123L120.064 26.1433L118.495 31.9989L117.036 30.5408L102.382 45.1949L100.968 43.7807L115.622 29.1266L114.208 27.7123Z" fill="black"/>
<path fill-rule="evenodd" clip-rule="evenodd" d="M212.654 27.7123L218.51 26.1433L216.941 31.9989L215.483 30.5408L200.829 45.1949L199.414 43.7807L214.068 29.1266L212.654 27.7123Z" fill="black"/>
<path fill-rule="evenodd" clip-rule="evenodd" d="M170 143.25L173.031 138L176.062 143.25L174 143.25L174 148L172 148L172 143.25L170 143.25Z" fill="#00A3FF"/>
<path fill-rule="evenodd" clip-rule="evenodd" d="M233.281 75L228.031 71.9689L233.281 68.9378L233.281 71L238.031 71L238.031 72.9999L233.281 73L233.281 75Z" fill="#00A3FF"/>
<path fill-rule="evenodd" clip-rule="evenodd" d="M25 135.031L30.25 138.062V136.031L100.75 136.031V134.031L30.25 134.031V132L25 135.031ZM222.75 135.031L217.5 138.062V136.031L147 136.031V134.031L217.5 134.031V132L222.75 135.031Z" fill="#00A3FF"/>
<path d="M108.983 140H107.712V131.571L105.162 132.508V131.359L108.785 129.999H108.983V140ZM118.93 135.755C118.93 137.236 118.677 138.337 118.171 139.057C117.665 139.777 116.874 140.137 115.799 140.137C114.737 140.137 113.951 139.786 113.44 139.084C112.93 138.378 112.666 137.325 112.647 135.926V134.237C112.647 132.774 112.9 131.687 113.406 130.977C113.912 130.266 114.705 129.91 115.785 129.91C116.856 129.91 117.645 130.254 118.15 130.942C118.656 131.626 118.916 132.683 118.93 134.114V135.755ZM117.665 134.025C117.665 132.954 117.515 132.175 117.214 131.687C116.913 131.195 116.437 130.949 115.785 130.949C115.138 130.949 114.666 131.193 114.37 131.681C114.074 132.168 113.921 132.918 113.912 133.93V135.953C113.912 137.029 114.067 137.824 114.377 138.339C114.691 138.849 115.165 139.104 115.799 139.104C116.423 139.104 116.886 138.863 117.187 138.38C117.492 137.897 117.651 137.136 117.665 136.097V134.025ZM126.791 135.755C126.791 137.236 126.538 138.337 126.032 139.057C125.526 139.777 124.736 140.137 123.66 140.137C122.598 140.137 121.812 139.786 121.302 139.084C120.791 138.378 120.527 137.325 120.509 135.926V134.237C120.509 132.774 120.762 131.687 121.268 130.977C121.773 130.266 122.566 129.91 123.646 129.91C124.717 129.91 125.506 130.254 126.012 130.942C126.518 131.626 126.777 132.683 126.791 134.114V135.755ZM125.526 134.025C125.526 132.954 125.376 132.175 125.075 131.687C124.774 131.195 124.298 130.949 123.646 130.949C122.999 130.949 122.528 131.193 122.231 131.681C121.935 132.168 121.783 132.918 121.773 133.93V135.953C121.773 137.029 121.928 137.824 122.238 138.339C122.553 138.849 123.027 139.104 123.66 139.104C124.285 139.104 124.747 138.863 125.048 138.38C125.353 137.897 125.513 137.136 125.526 136.097V134.025ZM134.789 136.384C134.789 137.509 134.532 138.416 134.017 139.104C133.502 139.793 132.804 140.137 131.925 140.137C131.027 140.137 130.321 139.852 129.806 139.282V142.844H128.541V132.604H129.696L129.758 133.424C130.273 132.786 130.988 132.467 131.904 132.467C132.793 132.467 133.495 132.802 134.01 133.472C134.529 134.142 134.789 135.074 134.789 136.268V136.384ZM133.524 136.24C133.524 135.406 133.347 134.748 132.991 134.265C132.636 133.782 132.148 133.54 131.528 133.54C130.763 133.54 130.188 133.88 129.806 134.559V138.093C130.184 138.767 130.763 139.104 131.542 139.104C132.148 139.104 132.629 138.865 132.984 138.387C133.344 137.904 133.524 137.188 133.524 136.24ZM138.774 135.304L140.415 132.604H141.892L139.472 136.261L141.967 140H140.504L138.795 137.231L137.086 140H135.616L138.111 136.261L135.691 132.604H137.154L138.774 135.304Z" fill="#00A3FF"/>
<path d="M65.6387 161H59.1172V160.091L62.5625 156.263C63.0729 155.684 63.4238 155.215 63.6152 154.854C63.8112 154.49 63.9092 154.114 63.9092 153.727C63.9092 153.207 63.752 152.781 63.4375 152.448C63.123 152.116 62.7038 151.949 62.1797 151.949C61.5508 151.949 61.0609 152.129 60.71 152.489C60.3636 152.845 60.1904 153.341 60.1904 153.979H58.9258C58.9258 153.063 59.2197 152.323 59.8076 151.758C60.4001 151.193 61.1908 150.91 62.1797 150.91C63.1048 150.91 63.8363 151.154 64.374 151.642C64.9118 152.125 65.1807 152.77 65.1807 153.576C65.1807 154.556 64.5563 155.723 63.3076 157.076L60.6416 159.968H65.6387V161ZM67.5596 156.01L68.0654 151.047H73.165V152.216H69.1387L68.8379 154.93C69.3255 154.643 69.8792 154.499 70.499 154.499C71.4059 154.499 72.126 154.8 72.6592 155.401C73.1924 155.998 73.459 156.807 73.459 157.828C73.459 158.854 73.181 159.662 72.625 160.255C72.0736 160.843 71.3011 161.137 70.3076 161.137C69.4281 161.137 68.7103 160.893 68.1543 160.405C67.5983 159.918 67.2816 159.243 67.2041 158.382H68.4004C68.4779 158.951 68.6807 159.382 69.0088 159.674C69.3369 159.961 69.7699 160.104 70.3076 160.104C70.8955 160.104 71.3558 159.904 71.6885 159.503C72.0257 159.102 72.1943 158.548 72.1943 157.842C72.1943 157.176 72.012 156.643 71.6475 156.242C71.2874 155.837 70.8066 155.634 70.2051 155.634C69.6536 155.634 69.2207 155.755 68.9062 155.996L68.5713 156.27L67.5596 156.01ZM81.2178 157.384C81.2178 158.509 80.9603 159.416 80.4453 160.104C79.9303 160.793 79.2331 161.137 78.3535 161.137C77.4557 161.137 76.7493 160.852 76.2344 160.282V163.844H74.9697V153.604H76.125L76.1865 154.424C76.7015 153.786 77.417 153.467 78.333 153.467C79.2217 153.467 79.9235 153.802 80.4385 154.472C80.958 155.142 81.2178 156.074 81.2178 157.268V157.384ZM79.9531 157.24C79.9531 156.406 79.7754 155.748 79.4199 155.265C79.0645 154.782 78.5768 154.54 77.957 154.54C77.1914 154.54 76.6172 154.88 76.2344 155.559V159.093C76.6126 159.767 77.1914 160.104 77.9707 160.104C78.5768 160.104 79.0576 159.865 79.4131 159.387C79.7731 158.904 79.9531 158.188 79.9531 157.24ZM85.2031 156.304L86.8438 153.604H88.3203L85.9004 157.261L88.3955 161H86.9326L85.2236 158.231L83.5146 161H82.0449L84.54 157.261L82.1201 153.604H83.583L85.2031 156.304Z" fill="#00A3FF"/>
<path d="M165.543 151.758L161.421 161H160.095L164.203 152.086H158.816V151.047H165.543V151.758ZM167.56 156.01L168.065 151.047H173.165V152.216H169.139L168.838 154.93C169.326 154.643 169.879 154.499 170.499 154.499C171.406 154.499 172.126 154.8 172.659 155.401C173.192 155.998 173.459 156.807 173.459 157.828C173.459 158.854 173.181 159.662 172.625 160.255C172.074 160.843 171.301 161.137 170.308 161.137C169.428 161.137 168.71 160.893 168.154 160.405C167.598 159.918 167.282 159.243 167.204 158.382H168.4C168.478 158.951 168.681 159.382 169.009 159.674C169.337 159.961 169.77 160.104 170.308 160.104C170.896 160.104 171.356 159.904 171.688 159.503C172.026 159.102 172.194 158.548 172.194 157.842C172.194 157.176 172.012 156.643 171.647 156.242C171.287 155.837 170.807 155.634 170.205 155.634C169.654 155.634 169.221 155.755 168.906 155.996L168.571 156.27L167.56 156.01ZM181.218 157.384C181.218 158.509 180.96 159.416 180.445 160.104C179.93 160.793 179.233 161.137 178.354 161.137C177.456 161.137 176.749 160.852 176.234 160.282V163.844H174.97V153.604H176.125L176.187 154.424C176.701 153.786 177.417 153.467 178.333 153.467C179.222 153.467 179.924 153.802 180.438 154.472C180.958 155.142 181.218 156.074 181.218 157.268V157.384ZM179.953 157.24C179.953 156.406 179.775 155.748 179.42 155.265C179.064 154.782 178.577 154.54 177.957 154.54C177.191 154.54 176.617 154.88 176.234 155.559V159.093C176.613 159.767 177.191 160.104 177.971 160.104C178.577 160.104 179.058 159.865 179.413 159.387C179.773 158.904 179.953 158.188 179.953 157.24ZM185.203 156.304L186.844 153.604H188.32L185.9 157.261L188.396 161H186.933L185.224 158.231L183.515 161H182.045L184.54 157.261L182.12 153.604H183.583L185.203 156.304Z" fill="#00A3FF"/>
<path d="M26.4023 6.86133L28.7881 3.04688H30.333L27.1885 7.98242L30.4082 13H28.8496L26.4023 9.11719L23.9414 13H22.3896L25.6162 7.98242L22.4648 3.04688H24.0029L26.4023 6.86133ZM35.7607 13H34.4893V4.57129L31.9395 5.50781V4.35938L35.5625 2.99902H35.7607V13Z" fill="black"/>
<path d="M4.19043 27.0439L6.78809 22.0469H8.27832L4.84668 28.2881V32H3.53418V28.2881L0.102539 22.0469H1.60645L4.19043 27.0439ZM13.3916 32H12.1201V23.5713L9.57031 24.5078V23.3594L13.1934 21.999H13.3916V32Z" fill="black"/>
<path d="M4.19043 117.044L6.78809 112.047H8.27832L4.84668 118.288V122H3.53418V118.288L0.102539 112.047H1.60645L4.19043 117.044ZM15.7568 122H9.23535V121.091L12.6807 117.263C13.1911 116.684 13.542 116.215 13.7334 115.854C13.9294 115.49 14.0273 115.114 14.0273 114.727C14.0273 114.207 13.8701 113.781 13.5557 113.448C13.2412 113.116 12.8219 112.949 12.2979 112.949C11.6689 112.949 11.179 113.129 10.8281 113.489C10.4818 113.845 10.3086 114.341 10.3086 114.979H9.04395C9.04395 114.063 9.33789 113.323 9.92578 112.758C10.5182 112.193 11.3089 111.91 12.2979 111.91C13.223 111.91 13.9544 112.154 14.4922 112.642C15.0299 113.125 15.2988 113.77 15.2988 114.576C15.2988 115.556 14.6745 116.723 13.4258 118.076L10.7598 120.968H15.7568V122Z" fill="black"/>
<path opacity="0.5" d="M24.1904 156.044L26.7881 151.047H28.2783L24.8467 157.288V161H23.5342V157.288L20.1025 151.047H21.6064L24.1904 156.044Z" fill="#FF0000"/>
<path d="M119.402 6.86133L121.788 3.04688H123.333L120.188 7.98242L123.408 13H121.85L119.402 9.11719L116.941 13H115.39L118.616 7.98242L115.465 3.04688H117.003L119.402 6.86133ZM131.126 13H124.604V12.0908L128.05 8.2627C128.56 7.68392 128.911 7.21452 129.103 6.85449C129.299 6.48991 129.396 6.11393 129.396 5.72656C129.396 5.20703 129.239 4.78092 128.925 4.44824C128.61 4.11556 128.191 3.94922 127.667 3.94922C127.038 3.94922 126.548 4.12923 126.197 4.48926C125.851 4.84473 125.678 5.34147 125.678 5.97949H124.413C124.413 5.06348 124.707 4.32292 125.295 3.75781C125.887 3.19271 126.678 2.91016 127.667 2.91016C128.592 2.91016 129.324 3.15397 129.861 3.6416C130.399 4.12467 130.668 4.76953 130.668 5.57617C130.668 6.55599 130.044 7.72266 128.795 9.07617L126.129 11.9678H131.126V13Z" fill="black"/>
<path d="M212.402 6.86133L214.788 3.04688H216.333L213.188 7.98242L216.408 13H214.85L212.402 9.11719L209.941 13H208.39L211.616 7.98242L208.465 3.04688H210.003L212.402 6.86133ZM219.443 7.4082H220.394C220.991 7.39909 221.46 7.24186 221.802 6.93652C222.144 6.63118 222.314 6.21875 222.314 5.69922C222.314 4.53255 221.733 3.94922 220.571 3.94922C220.024 3.94922 219.587 4.10645 219.259 4.4209C218.935 4.73079 218.773 5.14323 218.773 5.6582H217.509C217.509 4.86979 217.796 4.21582 218.37 3.69629C218.949 3.1722 219.683 2.91016 220.571 2.91016C221.51 2.91016 222.246 3.15853 222.779 3.65527C223.312 4.15202 223.579 4.84245 223.579 5.72656C223.579 6.15951 223.438 6.57878 223.155 6.98438C222.877 7.38997 222.497 7.69303 222.014 7.89355C222.561 8.06673 222.982 8.35384 223.278 8.75488C223.579 9.15592 223.729 9.64583 223.729 10.2246C223.729 11.1178 223.438 11.8265 222.854 12.3506C222.271 12.8747 221.512 13.1367 220.578 13.1367C219.644 13.1367 218.883 12.8838 218.295 12.3779C217.712 11.8721 217.42 11.2044 217.42 10.375H218.691C218.691 10.8991 218.862 11.3184 219.204 11.6328C219.546 11.9473 220.004 12.1045 220.578 12.1045C221.189 12.1045 221.656 11.945 221.979 11.626C222.303 11.307 222.465 10.849 222.465 10.252C222.465 9.67318 222.287 9.22884 221.932 8.91895C221.576 8.60905 221.063 8.44954 220.394 8.44043H219.443V7.4082Z" fill="black"/>
<path opacity="0.5" d="M252.402 21.8613L254.788 18.0469H256.333L253.188 22.9824L256.408 28H254.85L252.402 24.1172L249.941 28H248.39L251.616 22.9824L248.465 18.0469H250.003L252.402 21.8613Z" fill="#FF0000"/>
<path d="M247.349 77H240.827V76.0908L244.272 72.2627C244.783 71.6839 245.134 71.2145 245.325 70.8545C245.521 70.4899 245.619 70.1139 245.619 69.7266C245.619 69.207 245.462 68.7809 245.147 68.4482C244.833 68.1156 244.414 67.9492 243.89 67.9492C243.261 67.9492 242.771 68.1292 242.42 68.4893C242.074 68.8447 241.9 69.3415 241.9 69.9795H240.636C240.636 69.0635 240.93 68.3229 241.518 67.7578C242.11 67.1927 242.901 66.9102 243.89 66.9102C244.815 66.9102 245.546 67.154 246.084 67.6416C246.622 68.1247 246.891 68.7695 246.891 69.5762C246.891 70.556 246.266 71.7227 245.018 73.0762L242.352 75.9678H247.349V77ZM249.27 72.0098L249.775 67.0469H254.875V68.2158H250.849L250.548 70.9297C251.035 70.6426 251.589 70.499 252.209 70.499C253.116 70.499 253.836 70.7998 254.369 71.4014C254.902 71.9984 255.169 72.8073 255.169 73.8281C255.169 74.8535 254.891 75.6624 254.335 76.2549C253.784 76.8428 253.011 77.1367 252.018 77.1367C251.138 77.1367 250.42 76.8929 249.864 76.4053C249.308 75.9176 248.992 75.2432 248.914 74.3818H250.11C250.188 74.9515 250.391 75.3822 250.719 75.6738C251.047 75.9609 251.48 76.1045 252.018 76.1045C252.605 76.1045 253.066 75.904 253.398 75.5029C253.736 75.1019 253.904 74.5482 253.904 73.8418C253.904 73.1764 253.722 72.6432 253.357 72.2422C252.997 71.8366 252.517 71.6338 251.915 71.6338C251.364 71.6338 250.931 71.7546 250.616 71.9961L250.281 72.2695L249.27 72.0098ZM262.928 73.3838C262.928 74.5094 262.67 75.4163 262.155 76.1045C261.64 76.7926 260.943 77.1367 260.063 77.1367C259.166 77.1367 258.459 76.8519 257.944 76.2822V79.8438H256.68V69.6035H257.835L257.896 70.4238C258.411 69.7858 259.127 69.4668 260.043 69.4668C260.932 69.4668 261.633 69.8018 262.148 70.4717C262.668 71.1416 262.928 72.0736 262.928 73.2676V73.3838ZM261.663 73.2402C261.663 72.4062 261.485 71.7477 261.13 71.2646C260.774 70.7816 260.287 70.54 259.667 70.54C258.901 70.54 258.327 70.8796 257.944 71.5586V75.0928C258.323 75.7673 258.901 76.1045 259.681 76.1045C260.287 76.1045 260.768 75.8652 261.123 75.3867C261.483 74.9036 261.663 74.1882 261.663 73.2402ZM266.913 72.3037L268.554 69.6035H270.03L267.61 73.2607L270.105 77H268.643L266.934 74.2314L265.225 77H263.755L266.25 73.2607L263.83 69.6035H265.293L266.913 72.3037Z" fill="#00A3FF"/>
</svg>
