<svg width="538" height="196" viewBox="0 0 538 196" fill="none" xmlns="http://www.w3.org/2000/svg">
<path d="M26.7988 23H25.4795L20.4688 15.3301V23H19.1494V13.0469H20.4688L25.4932 20.751V13.0469H26.7988V23ZM33.498 22.2686C33.0059 22.8473 32.2835 23.1367 31.3311 23.1367C30.5426 23.1367 29.9411 22.9089 29.5264 22.4531C29.1162 21.9928 28.9089 21.3138 28.9043 20.416V15.6035H30.1689V20.3818C30.1689 21.5029 30.6247 22.0635 31.5361 22.0635C32.5023 22.0635 33.1449 21.7035 33.4639 20.9834V15.6035H34.7285V23H33.5254L33.498 22.2686ZM37.8457 15.6035L37.8799 16.4238C38.4222 15.7858 39.1536 15.4668 40.0742 15.4668C41.1087 15.4668 41.8128 15.8633 42.1865 16.6562C42.4326 16.3008 42.7516 16.0137 43.1436 15.7949C43.54 15.5762 44.0072 15.4668 44.5449 15.4668C46.1673 15.4668 46.9922 16.3258 47.0195 18.0439V23H45.7549V18.1191C45.7549 17.5905 45.6341 17.1963 45.3926 16.9365C45.151 16.6722 44.7454 16.54 44.1758 16.54C43.7064 16.54 43.3167 16.6813 43.0068 16.9639C42.6969 17.2419 42.5169 17.6178 42.4668 18.0918V23H41.1953V18.1533C41.1953 17.0778 40.6689 16.54 39.6162 16.54C38.7868 16.54 38.2194 16.8932 37.9141 17.5996V23H36.6494V15.6035H37.8457ZM55.1953 19.3838C55.1953 20.514 54.9355 21.4232 54.416 22.1113C53.8965 22.7949 53.1992 23.1367 52.3242 23.1367C51.39 23.1367 50.6676 22.8063 50.1572 22.1455L50.0957 23H48.9336V12.5H50.1982V16.417C50.7087 15.7835 51.4128 15.4668 52.3105 15.4668C53.2083 15.4668 53.9124 15.8063 54.4229 16.4854C54.9378 17.1644 55.1953 18.0941 55.1953 19.2744V19.3838ZM53.9307 19.2402C53.9307 18.3789 53.7643 17.7135 53.4316 17.2441C53.099 16.7747 52.6204 16.54 51.9961 16.54C51.1621 16.54 50.5628 16.9274 50.1982 17.7021V20.9014C50.5856 21.6761 51.1895 22.0635 52.0098 22.0635C52.6159 22.0635 53.0876 21.8288 53.4248 21.3594C53.762 20.89 53.9307 20.1836 53.9307 19.2402ZM59.8643 23.1367C58.8617 23.1367 58.0459 22.8086 57.417 22.1523C56.7881 21.4915 56.4736 20.6097 56.4736 19.5068V19.2744C56.4736 18.5407 56.6126 17.8867 56.8906 17.3125C57.1732 16.7337 57.5651 16.2826 58.0664 15.959C58.5723 15.6309 59.1191 15.4668 59.707 15.4668C60.6686 15.4668 61.416 15.7835 61.9492 16.417C62.4824 17.0505 62.749 17.9574 62.749 19.1377V19.6641H57.7383C57.7565 20.3932 57.9684 20.9834 58.374 21.4346C58.7842 21.8812 59.3037 22.1045 59.9326 22.1045C60.3792 22.1045 60.7575 22.0133 61.0674 21.8311C61.3773 21.6488 61.6484 21.4072 61.8809 21.1064L62.6533 21.708C62.0335 22.6605 61.1038 23.1367 59.8643 23.1367ZM59.707 16.5059C59.1966 16.5059 58.7682 16.6927 58.4219 17.0664C58.0755 17.4355 57.8613 17.9551 57.7793 18.625H61.4844V18.5293C61.4479 17.8867 61.2747 17.39 60.9648 17.0391C60.6549 16.6836 60.2357 16.5059 59.707 16.5059ZM67.7939 16.7383C67.6025 16.7064 67.3952 16.6904 67.1719 16.6904C66.3424 16.6904 65.7796 17.0436 65.4834 17.75V23H64.2188V15.6035H65.4492L65.4697 16.458C65.8844 15.7972 66.4723 15.4668 67.2334 15.4668C67.4795 15.4668 67.6663 15.4987 67.7939 15.5625V16.7383Z" fill="black"/>
<rect x="3.5" y="3.5" width="79" height="29" stroke="black"/>
<rect x="3.5" y="33.5" width="79" height="29" fill="#5D98FA" fill-opacity="0.5"/>
<path d="M45.2354 49.6572H46.6162V50.6895H45.2354V53H43.9639V50.6895H39.4316V49.9443L43.8887 43.0469H45.2354V49.6572ZM40.8672 49.6572H43.9639V44.7764L43.8135 45.0498L40.8672 49.6572Z" fill="black"/>
<rect x="3.5" y="33.5" width="79" height="29" stroke="black"/>
<path d="M41.7354 77.4082H42.6855C43.2826 77.3991 43.752 77.2419 44.0938 76.9365C44.4355 76.6312 44.6064 76.2188 44.6064 75.6992C44.6064 74.5326 44.0254 73.9492 42.8633 73.9492C42.3164 73.9492 41.8789 74.1064 41.5508 74.4209C41.2272 74.7308 41.0654 75.1432 41.0654 75.6582H39.8008C39.8008 74.8698 40.0879 74.2158 40.6621 73.6963C41.2409 73.1722 41.9746 72.9102 42.8633 72.9102C43.8021 72.9102 44.5381 73.1585 45.0713 73.6553C45.6045 74.152 45.8711 74.8424 45.8711 75.7266C45.8711 76.1595 45.7298 76.5788 45.4473 76.9844C45.1693 77.39 44.7887 77.693 44.3057 77.8936C44.8525 78.0667 45.2741 78.3538 45.5703 78.7549C45.8711 79.1559 46.0215 79.6458 46.0215 80.2246C46.0215 81.1178 45.7298 81.8265 45.1465 82.3506C44.5632 82.8747 43.8044 83.1367 42.8701 83.1367C41.9359 83.1367 41.1748 82.8838 40.5869 82.3779C40.0036 81.8721 39.7119 81.2044 39.7119 80.375H40.9834C40.9834 80.8991 41.1543 81.3184 41.4961 81.6328C41.8379 81.9473 42.2959 82.1045 42.8701 82.1045C43.4808 82.1045 43.9479 81.945 44.2715 81.626C44.5951 81.307 44.7568 80.849 44.7568 80.252C44.7568 79.6732 44.5791 79.2288 44.2236 78.9189C43.8682 78.609 43.3555 78.4495 42.6855 78.4404H41.7354V77.4082Z" fill="black"/>
<rect x="3.5" y="63.5" width="79" height="29" stroke="black"/>
<path d="M46.418 113H39.8965V112.091L43.3418 108.263C43.8522 107.684 44.2031 107.215 44.3945 106.854C44.5905 106.49 44.6885 106.114 44.6885 105.727C44.6885 105.207 44.5312 104.781 44.2168 104.448C43.9023 104.116 43.4831 103.949 42.959 103.949C42.3301 103.949 41.8402 104.129 41.4893 104.489C41.1429 104.845 40.9697 105.341 40.9697 105.979H39.7051C39.7051 105.063 39.999 104.323 40.5869 103.758C41.1794 103.193 41.9701 102.91 42.959 102.91C43.8841 102.91 44.6156 103.154 45.1533 103.642C45.6911 104.125 45.96 104.77 45.96 105.576C45.96 106.556 45.3356 107.723 44.0869 109.076L41.4209 111.968H46.418V113Z" fill="black"/>
<rect x="3.5" y="93.5" width="79" height="29" stroke="black"/>
<path d="M44.0527 143H42.7812V134.571L40.2314 135.508V134.359L43.8545 132.999H44.0527V143Z" fill="black"/>
<rect x="3.5" y="123.5" width="79" height="29" stroke="black"/>
<rect width="144" height="150" transform="translate(83 3)" fill="#FF0000" fill-opacity="0.25"/>
<path d="M145.156 23H143.837L138.826 15.3301V23H137.507V13.0469H138.826L143.851 20.751V13.0469H145.156V23ZM151.855 23C151.783 22.8542 151.723 22.5944 151.678 22.2207C151.09 22.8314 150.388 23.1367 149.572 23.1367C148.843 23.1367 148.244 22.9316 147.774 22.5215C147.31 22.1068 147.077 21.5827 147.077 20.9492C147.077 20.179 147.369 19.582 147.952 19.1582C148.54 18.7298 149.365 18.5156 150.427 18.5156H151.657V17.9346C151.657 17.4925 151.525 17.1416 151.261 16.8818C150.996 16.6175 150.607 16.4854 150.092 16.4854C149.641 16.4854 149.262 16.5993 148.957 16.8271C148.652 17.055 148.499 17.3307 148.499 17.6543H147.228C147.228 17.2852 147.357 16.9297 147.617 16.5879C147.882 16.2415 148.237 15.9681 148.684 15.7676C149.135 15.5671 149.629 15.4668 150.167 15.4668C151.019 15.4668 151.687 15.681 152.17 16.1094C152.653 16.5332 152.904 17.1188 152.922 17.8662V21.2705C152.922 21.9495 153.008 22.4896 153.182 22.8906V23H151.855ZM149.757 22.0361C150.153 22.0361 150.529 21.9336 150.885 21.7285C151.24 21.5234 151.498 21.2568 151.657 20.9287V19.4111H150.666C149.117 19.4111 148.342 19.8646 148.342 20.7715C148.342 21.168 148.474 21.4779 148.738 21.7012C149.003 21.9245 149.342 22.0361 149.757 22.0361ZM156.094 15.6035L156.128 16.4238C156.67 15.7858 157.402 15.4668 158.322 15.4668C159.357 15.4668 160.061 15.8633 160.435 16.6562C160.681 16.3008 161 16.0137 161.392 15.7949C161.788 15.5762 162.255 15.4668 162.793 15.4668C164.415 15.4668 165.24 16.3258 165.268 18.0439V23H164.003V18.1191C164.003 17.5905 163.882 17.1963 163.641 16.9365C163.399 16.6722 162.993 16.54 162.424 16.54C161.954 16.54 161.565 16.6813 161.255 16.9639C160.945 17.2419 160.765 17.6178 160.715 18.0918V23H159.443V18.1533C159.443 17.0778 158.917 16.54 157.864 16.54C157.035 16.54 156.467 16.8932 156.162 17.5996V23H154.897V15.6035H156.094ZM170.251 23.1367C169.248 23.1367 168.433 22.8086 167.804 22.1523C167.175 21.4915 166.86 20.6097 166.86 19.5068V19.2744C166.86 18.5407 166.999 17.8867 167.277 17.3125C167.56 16.7337 167.952 16.2826 168.453 15.959C168.959 15.6309 169.506 15.4668 170.094 15.4668C171.055 15.4668 171.803 15.7835 172.336 16.417C172.869 17.0505 173.136 17.9574 173.136 19.1377V19.6641H168.125C168.143 20.3932 168.355 20.9834 168.761 21.4346C169.171 21.8812 169.69 22.1045 170.319 22.1045C170.766 22.1045 171.144 22.0133 171.454 21.8311C171.764 21.6488 172.035 21.4072 172.268 21.1064L173.04 21.708C172.42 22.6605 171.491 23.1367 170.251 23.1367ZM170.094 16.5059C169.583 16.5059 169.155 16.6927 168.809 17.0664C168.462 17.4355 168.248 17.9551 168.166 18.625H171.871V18.5293C171.835 17.8867 171.661 17.39 171.352 17.0391C171.042 16.6836 170.622 16.5059 170.094 16.5059Z" fill="black"/>
<rect x="83.5" y="3.5" width="143" height="29" stroke="black"/>
<rect x="83.5" y="33.5" width="143" height="29" fill="#5D98FA" fill-opacity="0.5"/>
<path d="M115.782 43.0469H117.102V50.0947C117.102 51.0472 116.814 51.7923 116.24 52.3301C115.671 52.8678 114.91 53.1367 113.957 53.1367C112.968 53.1367 112.198 52.8838 111.646 52.3779C111.095 51.8721 110.819 51.1634 110.819 50.252H112.132C112.132 50.8216 112.287 51.266 112.597 51.585C112.911 51.904 113.365 52.0635 113.957 52.0635C114.499 52.0635 114.937 51.8926 115.27 51.5508C115.607 51.209 115.778 50.7305 115.782 50.1152V43.0469ZM123.705 52.2686C123.213 52.8473 122.491 53.1367 121.538 53.1367C120.75 53.1367 120.148 52.9089 119.733 52.4531C119.323 51.9928 119.116 51.3138 119.111 50.416V45.6035H120.376V50.3818C120.376 51.5029 120.832 52.0635 121.743 52.0635C122.709 52.0635 123.352 51.7035 123.671 50.9834V45.6035H124.936V53H123.732L123.705 52.2686ZM128.06 45.6035L128.101 46.5332C128.666 45.8223 129.404 45.4668 130.315 45.4668C131.879 45.4668 132.667 46.3486 132.681 48.1123V53H131.416V48.1055C131.411 47.5723 131.288 47.1781 131.047 46.9229C130.81 46.6676 130.438 46.54 129.933 46.54C129.522 46.54 129.162 46.6494 128.853 46.8682C128.543 47.0869 128.301 47.374 128.128 47.7295V53H126.863V45.6035H128.06ZM136.652 49.5752L135.859 50.4023V53H134.595V42.5H135.859V48.8506L136.536 48.0371L138.84 45.6035H140.378L137.5 48.6934L140.713 53H139.229L136.652 49.5752ZM144.104 51.1475L145.826 45.6035H147.18L144.206 54.1416C143.746 55.3721 143.014 55.9873 142.012 55.9873L141.772 55.9668L141.301 55.8779V54.8525L141.643 54.8799C142.071 54.8799 142.404 54.7933 142.641 54.6201C142.882 54.4469 143.08 54.1302 143.235 53.6699L143.516 52.918L140.877 45.6035H142.258L144.104 51.1475ZM152.771 53C152.699 52.8542 152.639 52.5944 152.594 52.2207C152.006 52.8314 151.304 53.1367 150.488 53.1367C149.759 53.1367 149.16 52.9316 148.69 52.5215C148.226 52.1068 147.993 51.5827 147.993 50.9492C147.993 50.179 148.285 49.582 148.868 49.1582C149.456 48.7298 150.281 48.5156 151.343 48.5156H152.573V47.9346C152.573 47.4925 152.441 47.1416 152.177 46.8818C151.912 46.6175 151.523 46.4854 151.008 46.4854C150.557 46.4854 150.178 46.5993 149.873 46.8271C149.568 47.055 149.415 47.3307 149.415 47.6543H148.144C148.144 47.2852 148.273 46.9297 148.533 46.5879C148.798 46.2415 149.153 45.9681 149.6 45.7676C150.051 45.5671 150.545 45.4668 151.083 45.4668C151.935 45.4668 152.603 45.681 153.086 46.1094C153.569 46.5332 153.82 47.1188 153.838 47.8662V51.2705C153.838 51.9495 153.924 52.4896 154.098 52.8906V53H152.771ZM150.673 52.0361C151.069 52.0361 151.445 51.9336 151.801 51.7285C152.156 51.5234 152.414 51.2568 152.573 50.9287V49.4111H151.582C150.033 49.4111 149.258 49.8646 149.258 50.7715C149.258 51.168 149.39 51.4779 149.654 51.7012C149.919 51.9245 150.258 52.0361 150.673 52.0361ZM159.396 46.7383C159.204 46.7064 158.997 46.6904 158.773 46.6904C157.944 46.6904 157.381 47.0436 157.085 47.75V53H155.82V45.6035H157.051L157.071 46.458C157.486 45.7972 158.074 45.4668 158.835 45.4668C159.081 45.4668 159.268 45.4987 159.396 45.5625V46.7383ZM160.12 49.2402C160.12 48.1055 160.389 47.194 160.927 46.5059C161.465 45.8132 162.169 45.4668 163.039 45.4668C163.905 45.4668 164.591 45.763 165.097 46.3555V42.5H166.361V53H165.199L165.138 52.207C164.632 52.8268 163.928 53.1367 163.025 53.1367C162.169 53.1367 161.469 52.7858 160.927 52.084C160.389 51.3822 160.12 50.4661 160.12 49.3359V49.2402ZM161.385 49.3838C161.385 50.2223 161.558 50.8786 161.904 51.3525C162.251 51.8265 162.729 52.0635 163.34 52.0635C164.142 52.0635 164.728 51.7035 165.097 50.9834V47.5859C164.718 46.8887 164.137 46.54 163.354 46.54C162.734 46.54 162.251 46.7793 161.904 47.2578C161.558 47.7363 161.385 48.445 161.385 49.3838ZM179.322 49.8418C179.199 50.8945 178.81 51.708 178.153 52.2822C177.502 52.8519 176.633 53.1367 175.549 53.1367C174.373 53.1367 173.43 52.7152 172.719 51.8721C172.012 51.029 171.659 49.901 171.659 48.4883V47.5312C171.659 46.6061 171.823 45.7926 172.151 45.0908C172.484 44.389 172.953 43.8512 173.56 43.4775C174.166 43.0993 174.868 42.9102 175.665 42.9102C176.722 42.9102 177.57 43.2064 178.208 43.7988C178.846 44.3867 179.217 45.2025 179.322 46.2461H178.003C177.889 45.4531 177.641 44.8789 177.258 44.5234C176.88 44.168 176.349 43.9902 175.665 43.9902C174.826 43.9902 174.168 44.3001 173.689 44.9199C173.215 45.5397 172.979 46.4215 172.979 47.5654V48.5293C172.979 49.6094 173.204 50.4684 173.655 51.1064C174.106 51.7445 174.738 52.0635 175.549 52.0635C176.278 52.0635 176.836 51.8994 177.224 51.5713C177.616 51.2386 177.875 50.6621 178.003 49.8418H179.322ZM185.488 53C185.415 52.8542 185.356 52.5944 185.311 52.2207C184.723 52.8314 184.021 53.1367 183.205 53.1367C182.476 53.1367 181.877 52.9316 181.407 52.5215C180.942 52.1068 180.71 51.5827 180.71 50.9492C180.71 50.179 181.002 49.582 181.585 49.1582C182.173 48.7298 182.998 48.5156 184.06 48.5156H185.29V47.9346C185.29 47.4925 185.158 47.1416 184.894 46.8818C184.629 46.6175 184.24 46.4854 183.725 46.4854C183.273 46.4854 182.895 46.5993 182.59 46.8271C182.285 47.055 182.132 47.3307 182.132 47.6543H180.86C180.86 47.2852 180.99 46.9297 181.25 46.5879C181.514 46.2415 181.87 45.9681 182.316 45.7676C182.768 45.5671 183.262 45.4668 183.8 45.4668C184.652 45.4668 185.32 45.681 185.803 46.1094C186.286 46.5332 186.536 47.1188 186.555 47.8662V51.2705C186.555 51.9495 186.641 52.4896 186.814 52.8906V53H185.488ZM183.39 52.0361C183.786 52.0361 184.162 51.9336 184.518 51.7285C184.873 51.5234 185.131 51.2568 185.29 50.9287V49.4111H184.299C182.749 49.4111 181.975 49.8646 181.975 50.7715C181.975 51.168 182.107 51.4779 182.371 51.7012C182.635 51.9245 182.975 52.0361 183.39 52.0361ZM192.112 46.7383C191.921 46.7064 191.714 46.6904 191.49 46.6904C190.661 46.6904 190.098 47.0436 189.802 47.75V53H188.537V45.6035H189.768L189.788 46.458C190.203 45.7972 190.791 45.4668 191.552 45.4668C191.798 45.4668 191.985 45.4987 192.112 45.5625V46.7383ZM197.588 51.0381C197.588 50.6963 197.458 50.432 197.198 50.2451C196.943 50.0537 196.494 49.8896 195.852 49.7529C195.214 49.6162 194.705 49.4521 194.327 49.2607C193.953 49.0693 193.675 48.8415 193.493 48.5771C193.315 48.3128 193.227 47.9984 193.227 47.6338C193.227 47.0277 193.482 46.515 193.992 46.0957C194.507 45.6764 195.163 45.4668 195.961 45.4668C196.799 45.4668 197.479 45.6833 197.998 46.1162C198.522 46.5492 198.784 47.1029 198.784 47.7773H197.513C197.513 47.431 197.365 47.1325 197.068 46.8818C196.777 46.6312 196.408 46.5059 195.961 46.5059C195.501 46.5059 195.141 46.6061 194.881 46.8066C194.621 47.0072 194.491 47.2692 194.491 47.5928C194.491 47.8981 194.612 48.1283 194.854 48.2832C195.095 48.4382 195.53 48.5863 196.159 48.7275C196.793 48.8688 197.305 49.0374 197.697 49.2334C198.089 49.4294 198.379 49.6663 198.565 49.9443C198.757 50.2178 198.853 50.5527 198.853 50.9492C198.853 51.61 198.588 52.141 198.06 52.542C197.531 52.9385 196.845 53.1367 196.002 53.1367C195.41 53.1367 194.885 53.0319 194.43 52.8223C193.974 52.6126 193.616 52.321 193.356 51.9473C193.101 51.569 192.974 51.1611 192.974 50.7236H194.238C194.261 51.1475 194.43 51.4847 194.744 51.7354C195.063 51.9814 195.482 52.1045 196.002 52.1045C196.48 52.1045 196.863 52.0088 197.15 51.8174C197.442 51.6214 197.588 51.3617 197.588 51.0381Z" fill="black"/>
<rect x="83.5" y="33.5" width="143" height="29" stroke="black"/>
<path d="M118.373 78.5635C117.247 78.2399 116.427 77.8434 115.912 77.374C115.402 76.9001 115.146 76.3167 115.146 75.624C115.146 74.8402 115.459 74.193 116.083 73.6826C116.712 73.1676 117.528 72.9102 118.53 72.9102C119.214 72.9102 119.822 73.0423 120.355 73.3066C120.893 73.571 121.308 73.9355 121.6 74.4004C121.896 74.8652 122.044 75.3734 122.044 75.9248H120.725C120.725 75.3232 120.533 74.8516 120.15 74.5098C119.768 74.1634 119.228 73.9902 118.53 73.9902C117.883 73.9902 117.377 74.1338 117.013 74.4209C116.653 74.7035 116.473 75.0977 116.473 75.6035C116.473 76.0091 116.644 76.3532 116.985 76.6357C117.332 76.9137 117.917 77.1689 118.742 77.4014C119.572 77.6338 120.219 77.8913 120.684 78.1738C121.153 78.4518 121.499 78.7777 121.723 79.1514C121.951 79.5251 122.064 79.9648 122.064 80.4707C122.064 81.2773 121.75 81.9245 121.121 82.4121C120.492 82.8952 119.651 83.1367 118.599 83.1367C117.915 83.1367 117.277 83.0068 116.685 82.7471C116.092 82.4827 115.634 82.1227 115.311 81.667C114.992 81.2113 114.832 80.694 114.832 80.1152H116.151C116.151 80.7168 116.372 81.193 116.814 81.5439C117.261 81.8903 117.856 82.0635 118.599 82.0635C119.291 82.0635 119.822 81.9222 120.191 81.6396C120.561 81.3571 120.745 80.972 120.745 80.4844C120.745 79.9967 120.574 79.6208 120.232 79.3564C119.891 79.0876 119.271 78.8232 118.373 78.5635ZM124.929 83H123.664V75.6035H124.929V83ZM123.562 73.6416C123.562 73.4365 123.623 73.2633 123.746 73.1221C123.874 72.9808 124.061 72.9102 124.307 72.9102C124.553 72.9102 124.74 72.9808 124.867 73.1221C124.995 73.2633 125.059 73.4365 125.059 73.6416C125.059 73.8467 124.995 74.0176 124.867 74.1543C124.74 74.291 124.553 74.3594 124.307 74.3594C124.061 74.3594 123.874 74.291 123.746 74.1543C123.623 74.0176 123.562 73.8467 123.562 73.6416ZM129.44 78.3037L131.081 75.6035H132.558L130.138 79.2607L132.633 83H131.17L129.461 80.2314L127.752 83H126.282L128.777 79.2607L126.357 75.6035H127.82L129.44 78.3037ZM135.278 83H134.014V75.6035H135.278V83ZM133.911 73.6416C133.911 73.4365 133.973 73.2633 134.096 73.1221C134.223 72.9808 134.41 72.9102 134.656 72.9102C134.902 72.9102 135.089 72.9808 135.217 73.1221C135.344 73.2633 135.408 73.4365 135.408 73.6416C135.408 73.8467 135.344 74.0176 135.217 74.1543C135.089 74.291 134.902 74.3594 134.656 74.3594C134.41 74.3594 134.223 74.291 134.096 74.1543C133.973 74.0176 133.911 73.8467 133.911 73.6416ZM139.024 73.8125V75.6035H140.405V76.5811H139.024V81.168C139.024 81.4642 139.086 81.6875 139.209 81.8379C139.332 81.9837 139.542 82.0566 139.838 82.0566C139.984 82.0566 140.184 82.0293 140.439 81.9746V83C140.107 83.0911 139.783 83.1367 139.469 83.1367C138.904 83.1367 138.478 82.9658 138.19 82.624C137.903 82.2822 137.76 81.7969 137.76 81.168V76.5811H136.413V75.6035H137.76V73.8125H139.024ZM144.958 83.1367C143.955 83.1367 143.14 82.8086 142.511 82.1523C141.882 81.4915 141.567 80.6097 141.567 79.5068V79.2744C141.567 78.5407 141.706 77.8867 141.984 77.3125C142.267 76.7337 142.659 76.2826 143.16 75.959C143.666 75.6309 144.213 75.4668 144.801 75.4668C145.762 75.4668 146.51 75.7835 147.043 76.417C147.576 77.0505 147.843 77.9574 147.843 79.1377V79.6641H142.832C142.85 80.3932 143.062 80.9834 143.468 81.4346C143.878 81.8812 144.397 82.1045 145.026 82.1045C145.473 82.1045 145.851 82.0133 146.161 81.8311C146.471 81.6488 146.742 81.4072 146.975 81.1064L147.747 81.708C147.127 82.6605 146.198 83.1367 144.958 83.1367ZM144.801 76.5059C144.29 76.5059 143.862 76.6927 143.516 77.0664C143.169 77.4355 142.955 77.9551 142.873 78.625H146.578V78.5293C146.542 77.8867 146.368 77.39 146.059 77.0391C145.749 76.6836 145.329 76.5059 144.801 76.5059ZM153.619 81.0381C153.619 80.6963 153.489 80.432 153.229 80.2451C152.974 80.0537 152.525 79.8896 151.883 79.7529C151.245 79.6162 150.737 79.4521 150.358 79.2607C149.985 79.0693 149.707 78.8415 149.524 78.5771C149.347 78.3128 149.258 77.9984 149.258 77.6338C149.258 77.0277 149.513 76.515 150.023 76.0957C150.538 75.6764 151.195 75.4668 151.992 75.4668C152.831 75.4668 153.51 75.6833 154.029 76.1162C154.553 76.5492 154.815 77.1029 154.815 77.7773H153.544C153.544 77.431 153.396 77.1325 153.1 76.8818C152.808 76.6312 152.439 76.5059 151.992 76.5059C151.532 76.5059 151.172 76.6061 150.912 76.8066C150.652 77.0072 150.522 77.2692 150.522 77.5928C150.522 77.8981 150.643 78.1283 150.885 78.2832C151.126 78.4382 151.562 78.5863 152.19 78.7275C152.824 78.8688 153.337 79.0374 153.729 79.2334C154.12 79.4294 154.41 79.6663 154.597 79.9443C154.788 80.2178 154.884 80.5527 154.884 80.9492C154.884 81.61 154.619 82.141 154.091 82.542C153.562 82.9385 152.876 83.1367 152.033 83.1367C151.441 83.1367 150.917 83.0319 150.461 82.8223C150.005 82.6126 149.647 82.321 149.388 81.9473C149.132 81.569 149.005 81.1611 149.005 80.7236H150.27C150.292 81.1475 150.461 81.4847 150.775 81.7354C151.094 81.9814 151.514 82.1045 152.033 82.1045C152.512 82.1045 152.895 82.0088 153.182 81.8174C153.473 81.6214 153.619 81.3617 153.619 81.0381ZM160.202 83V73.0469H163.012C163.878 73.0469 164.643 73.2383 165.309 73.6211C165.974 74.0039 166.487 74.5485 166.847 75.2549C167.211 75.9613 167.396 76.7725 167.4 77.6885V78.3242C167.4 79.263 167.218 80.0856 166.854 80.792C166.493 81.4984 165.976 82.0407 165.302 82.4189C164.632 82.7972 163.85 82.9909 162.957 83H160.202ZM161.515 74.127V81.9268H162.896C163.907 81.9268 164.693 81.6123 165.254 80.9834C165.819 80.3545 166.102 79.459 166.102 78.2969V77.7158C166.102 76.5856 165.835 75.7083 165.302 75.084C164.773 74.4551 164.021 74.1361 163.046 74.127H161.515ZM172.261 83.1367C171.258 83.1367 170.442 82.8086 169.813 82.1523C169.185 81.4915 168.87 80.6097 168.87 79.5068V79.2744C168.87 78.5407 169.009 77.8867 169.287 77.3125C169.57 76.7337 169.962 76.2826 170.463 75.959C170.969 75.6309 171.516 75.4668 172.104 75.4668C173.065 75.4668 173.812 75.7835 174.346 76.417C174.879 77.0505 175.146 77.9574 175.146 79.1377V79.6641H170.135C170.153 80.3932 170.365 80.9834 170.771 81.4346C171.181 81.8812 171.7 82.1045 172.329 82.1045C172.776 82.1045 173.154 82.0133 173.464 81.8311C173.774 81.6488 174.045 81.4072 174.277 81.1064L175.05 81.708C174.43 82.6605 173.5 83.1367 172.261 83.1367ZM172.104 76.5059C171.593 76.5059 171.165 76.6927 170.818 77.0664C170.472 77.4355 170.258 77.9551 170.176 78.625H173.881V78.5293C173.844 77.8867 173.671 77.39 173.361 77.0391C173.051 76.6836 172.632 76.5059 172.104 76.5059ZM179.582 82.1045C180.033 82.1045 180.427 81.9678 180.765 81.6943C181.102 81.4209 181.289 81.0791 181.325 80.6689H182.521C182.499 81.0928 182.353 81.4961 182.084 81.8789C181.815 82.2617 181.455 82.5671 181.004 82.7949C180.557 83.0228 180.083 83.1367 179.582 83.1367C178.575 83.1367 177.773 82.8018 177.176 82.1318C176.583 81.4574 176.287 80.5368 176.287 79.3701V79.1582C176.287 78.4382 176.419 77.7979 176.684 77.2373C176.948 76.6768 177.326 76.2415 177.818 75.9316C178.315 75.6217 178.901 75.4668 179.575 75.4668C180.405 75.4668 181.093 75.7152 181.64 76.2119C182.191 76.7087 182.485 77.3535 182.521 78.1465H181.325C181.289 77.668 181.106 77.276 180.778 76.9707C180.455 76.6608 180.054 76.5059 179.575 76.5059C178.933 76.5059 178.434 76.7383 178.078 77.2031C177.727 77.6634 177.552 78.3311 177.552 79.2061V79.4453C177.552 80.2975 177.727 80.9538 178.078 81.4141C178.429 81.8743 178.93 82.1045 179.582 82.1045ZM183.608 79.2334C183.608 78.5088 183.75 77.8571 184.032 77.2783C184.319 76.6995 184.716 76.2529 185.222 75.9385C185.732 75.624 186.313 75.4668 186.965 75.4668C187.972 75.4668 188.785 75.8154 189.405 76.5127C190.03 77.21 190.342 78.1374 190.342 79.2949V79.3838C190.342 80.1038 190.203 80.751 189.925 81.3252C189.651 81.8949 189.257 82.3392 188.742 82.6582C188.232 82.9772 187.644 83.1367 186.979 83.1367C185.976 83.1367 185.162 82.7881 184.538 82.0908C183.918 81.3936 183.608 80.4707 183.608 79.3223V79.2334ZM184.88 79.3838C184.88 80.2041 185.069 80.8626 185.447 81.3594C185.83 81.8561 186.34 82.1045 186.979 82.1045C187.621 82.1045 188.132 81.8538 188.51 81.3525C188.888 80.8467 189.077 80.1403 189.077 79.2334C189.077 78.4222 188.883 77.766 188.496 77.2646C188.113 76.7588 187.603 76.5059 186.965 76.5059C186.34 76.5059 185.837 76.7542 185.454 77.251C185.071 77.7477 184.88 78.4587 184.88 79.3838ZM195.503 76.7383C195.312 76.7064 195.104 76.6904 194.881 76.6904C194.051 76.6904 193.489 77.0436 193.192 77.75V83H191.928V75.6035H193.158L193.179 76.458C193.593 75.7972 194.181 75.4668 194.942 75.4668C195.188 75.4668 195.375 75.4987 195.503 75.5625V76.7383Z" fill="black"/>
<rect x="83.5" y="63.5" width="143" height="29" stroke="black"/>
<path d="M136.051 108.345C136.051 109.32 135.887 110.172 135.559 110.901C135.23 111.626 134.766 112.18 134.164 112.562C133.562 112.945 132.861 113.137 132.059 113.137C131.275 113.137 130.58 112.945 129.974 112.562C129.368 112.175 128.896 111.626 128.559 110.915C128.226 110.2 128.055 109.372 128.046 108.434V107.716C128.046 106.759 128.212 105.913 128.545 105.18C128.878 104.446 129.347 103.885 129.953 103.498C130.564 103.106 131.261 102.91 132.045 102.91C132.842 102.91 133.544 103.104 134.15 103.491C134.761 103.874 135.23 104.432 135.559 105.166C135.887 105.895 136.051 106.745 136.051 107.716V108.345ZM134.745 107.702C134.745 106.522 134.508 105.617 134.034 104.988C133.56 104.355 132.897 104.038 132.045 104.038C131.215 104.038 130.562 104.355 130.083 104.988C129.609 105.617 129.365 106.492 129.352 107.613V108.345C129.352 109.489 129.591 110.389 130.069 111.045C130.552 111.697 131.215 112.022 132.059 112.022C132.906 112.022 133.562 111.715 134.027 111.1C134.492 110.48 134.731 109.593 134.745 108.44V107.702ZM144.083 109.384C144.083 110.514 143.823 111.423 143.304 112.111C142.784 112.795 142.087 113.137 141.212 113.137C140.278 113.137 139.555 112.806 139.045 112.146L138.983 113H137.821V102.5H139.086V106.417C139.596 105.784 140.3 105.467 141.198 105.467C142.096 105.467 142.8 105.806 143.311 106.485C143.826 107.164 144.083 108.094 144.083 109.274V109.384ZM142.818 109.24C142.818 108.379 142.652 107.714 142.319 107.244C141.987 106.775 141.508 106.54 140.884 106.54C140.05 106.54 139.451 106.927 139.086 107.702V110.901C139.473 111.676 140.077 112.063 140.897 112.063C141.504 112.063 141.975 111.829 142.312 111.359C142.65 110.89 142.818 110.184 142.818 109.24ZM149.989 111.038C149.989 110.696 149.859 110.432 149.6 110.245C149.344 110.054 148.896 109.89 148.253 109.753C147.615 109.616 147.107 109.452 146.729 109.261C146.355 109.069 146.077 108.841 145.895 108.577C145.717 108.313 145.628 107.998 145.628 107.634C145.628 107.028 145.883 106.515 146.394 106.096C146.909 105.676 147.565 105.467 148.362 105.467C149.201 105.467 149.88 105.683 150.399 106.116C150.924 106.549 151.186 107.103 151.186 107.777H149.914C149.914 107.431 149.766 107.132 149.47 106.882C149.178 106.631 148.809 106.506 148.362 106.506C147.902 106.506 147.542 106.606 147.282 106.807C147.022 107.007 146.893 107.269 146.893 107.593C146.893 107.898 147.013 108.128 147.255 108.283C147.496 108.438 147.932 108.586 148.561 108.728C149.194 108.869 149.707 109.037 150.099 109.233C150.491 109.429 150.78 109.666 150.967 109.944C151.158 110.218 151.254 110.553 151.254 110.949C151.254 111.61 150.99 112.141 150.461 112.542C149.932 112.938 149.246 113.137 148.403 113.137C147.811 113.137 147.287 113.032 146.831 112.822C146.375 112.613 146.018 112.321 145.758 111.947C145.503 111.569 145.375 111.161 145.375 110.724H146.64C146.662 111.147 146.831 111.485 147.146 111.735C147.465 111.981 147.884 112.104 148.403 112.104C148.882 112.104 149.265 112.009 149.552 111.817C149.843 111.621 149.989 111.362 149.989 111.038ZM152.566 109.233C152.566 108.509 152.708 107.857 152.99 107.278C153.277 106.7 153.674 106.253 154.18 105.938C154.69 105.624 155.271 105.467 155.923 105.467C156.93 105.467 157.743 105.815 158.363 106.513C158.988 107.21 159.3 108.137 159.3 109.295V109.384C159.3 110.104 159.161 110.751 158.883 111.325C158.609 111.895 158.215 112.339 157.7 112.658C157.19 112.977 156.602 113.137 155.937 113.137C154.934 113.137 154.12 112.788 153.496 112.091C152.876 111.394 152.566 110.471 152.566 109.322V109.233ZM153.838 109.384C153.838 110.204 154.027 110.863 154.405 111.359C154.788 111.856 155.299 112.104 155.937 112.104C156.579 112.104 157.09 111.854 157.468 111.353C157.846 110.847 158.035 110.14 158.035 109.233C158.035 108.422 157.841 107.766 157.454 107.265C157.071 106.759 156.561 106.506 155.923 106.506C155.299 106.506 154.795 106.754 154.412 107.251C154.029 107.748 153.838 108.459 153.838 109.384ZM162.26 113H160.995V102.5H162.26V113ZM167.359 113.137C166.357 113.137 165.541 112.809 164.912 112.152C164.283 111.492 163.969 110.61 163.969 109.507V109.274C163.969 108.541 164.108 107.887 164.386 107.312C164.668 106.734 165.06 106.283 165.562 105.959C166.067 105.631 166.614 105.467 167.202 105.467C168.164 105.467 168.911 105.784 169.444 106.417C169.978 107.05 170.244 107.957 170.244 109.138V109.664H165.233C165.252 110.393 165.464 110.983 165.869 111.435C166.279 111.881 166.799 112.104 167.428 112.104C167.874 112.104 168.253 112.013 168.562 111.831C168.872 111.649 169.144 111.407 169.376 111.106L170.148 111.708C169.529 112.66 168.599 113.137 167.359 113.137ZM167.202 106.506C166.692 106.506 166.263 106.693 165.917 107.066C165.571 107.436 165.356 107.955 165.274 108.625H168.979V108.529C168.943 107.887 168.77 107.39 168.46 107.039C168.15 106.684 167.731 106.506 167.202 106.506ZM173.43 103.812V105.604H174.811V106.581H173.43V111.168C173.43 111.464 173.491 111.688 173.614 111.838C173.737 111.984 173.947 112.057 174.243 112.057C174.389 112.057 174.59 112.029 174.845 111.975V113C174.512 113.091 174.188 113.137 173.874 113.137C173.309 113.137 172.883 112.966 172.596 112.624C172.309 112.282 172.165 111.797 172.165 111.168V106.581H170.818V105.604H172.165V103.812H173.43ZM179.363 113.137C178.361 113.137 177.545 112.809 176.916 112.152C176.287 111.492 175.973 110.61 175.973 109.507V109.274C175.973 108.541 176.112 107.887 176.39 107.312C176.672 106.734 177.064 106.283 177.565 105.959C178.071 105.631 178.618 105.467 179.206 105.467C180.168 105.467 180.915 105.784 181.448 106.417C181.981 107.05 182.248 107.957 182.248 109.138V109.664H177.237C177.256 110.393 177.467 110.983 177.873 111.435C178.283 111.881 178.803 112.104 179.432 112.104C179.878 112.104 180.257 112.013 180.566 111.831C180.876 111.649 181.147 111.407 181.38 111.106L182.152 111.708C181.533 112.66 180.603 113.137 179.363 113.137ZM179.206 106.506C178.696 106.506 178.267 106.693 177.921 107.066C177.575 107.436 177.36 107.955 177.278 108.625H180.983V108.529C180.947 107.887 180.774 107.39 180.464 107.039C180.154 106.684 179.735 106.506 179.206 106.506Z" fill="black"/>
<rect x="83.5" y="93.5" width="143" height="29" stroke="black"/>
<path d="M109.596 134.127H106.396V143H105.091V134.127H101.898V133.047H109.596V134.127ZM113.26 143.137C112.257 143.137 111.441 142.809 110.812 142.152C110.184 141.492 109.869 140.61 109.869 139.507V139.274C109.869 138.541 110.008 137.887 110.286 137.312C110.569 136.734 110.961 136.283 111.462 135.959C111.968 135.631 112.515 135.467 113.103 135.467C114.064 135.467 114.812 135.784 115.345 136.417C115.878 137.05 116.145 137.957 116.145 139.138V139.664H111.134C111.152 140.393 111.364 140.983 111.77 141.435C112.18 141.881 112.699 142.104 113.328 142.104C113.775 142.104 114.153 142.013 114.463 141.831C114.773 141.649 115.044 141.407 115.276 141.106L116.049 141.708C115.429 142.66 114.499 143.137 113.26 143.137ZM113.103 136.506C112.592 136.506 112.164 136.693 111.817 137.066C111.471 137.436 111.257 137.955 111.175 138.625H114.88V138.529C114.843 137.887 114.67 137.39 114.36 137.039C114.05 136.684 113.631 136.506 113.103 136.506ZM118.879 136.499C119.439 135.811 120.169 135.467 121.066 135.467C122.63 135.467 123.418 136.349 123.432 138.112V143H122.167V138.105C122.162 137.572 122.039 137.178 121.798 136.923C121.561 136.668 121.189 136.54 120.684 136.54C120.273 136.54 119.913 136.649 119.604 136.868C119.294 137.087 119.052 137.374 118.879 137.729V143H117.614V132.5H118.879V136.499ZM126.521 135.604L126.562 136.533C127.128 135.822 127.866 135.467 128.777 135.467C130.34 135.467 131.129 136.349 131.143 138.112V143H129.878V138.105C129.873 137.572 129.75 137.178 129.509 136.923C129.272 136.668 128.9 136.54 128.395 136.54C127.984 136.54 127.624 136.649 127.314 136.868C127.005 137.087 126.763 137.374 126.59 137.729V143H125.325V135.604H126.521ZM132.715 139.233C132.715 138.509 132.856 137.857 133.139 137.278C133.426 136.7 133.822 136.253 134.328 135.938C134.839 135.624 135.42 135.467 136.071 135.467C137.078 135.467 137.892 135.815 138.512 136.513C139.136 137.21 139.448 138.137 139.448 139.295V139.384C139.448 140.104 139.309 140.751 139.031 141.325C138.758 141.895 138.364 142.339 137.849 142.658C137.338 142.977 136.75 143.137 136.085 143.137C135.082 143.137 134.269 142.788 133.645 142.091C133.025 141.394 132.715 140.471 132.715 139.322V139.233ZM133.986 139.384C133.986 140.204 134.175 140.863 134.554 141.359C134.937 141.856 135.447 142.104 136.085 142.104C136.728 142.104 137.238 141.854 137.616 141.353C137.994 140.847 138.184 140.14 138.184 139.233C138.184 138.422 137.99 137.766 137.603 137.265C137.22 136.759 136.709 136.506 136.071 136.506C135.447 136.506 134.943 136.754 134.561 137.251C134.178 137.748 133.986 138.459 133.986 139.384ZM142.408 143H141.144V132.5H142.408V143ZM144.104 139.233C144.104 138.509 144.245 137.857 144.527 137.278C144.814 136.7 145.211 136.253 145.717 135.938C146.227 135.624 146.808 135.467 147.46 135.467C148.467 135.467 149.281 135.815 149.9 136.513C150.525 137.21 150.837 138.137 150.837 139.295V139.384C150.837 140.104 150.698 140.751 150.42 141.325C150.146 141.895 149.752 142.339 149.237 142.658C148.727 142.977 148.139 143.137 147.474 143.137C146.471 143.137 145.658 142.788 145.033 142.091C144.413 141.394 144.104 140.471 144.104 139.322V139.233ZM145.375 139.384C145.375 140.204 145.564 140.863 145.942 141.359C146.325 141.856 146.836 142.104 147.474 142.104C148.116 142.104 148.627 141.854 149.005 141.353C149.383 140.847 149.572 140.14 149.572 139.233C149.572 138.422 149.379 137.766 148.991 137.265C148.608 136.759 148.098 136.506 147.46 136.506C146.836 136.506 146.332 136.754 145.949 137.251C145.566 137.748 145.375 138.459 145.375 139.384ZM152.122 139.24C152.122 138.087 152.389 137.171 152.922 136.492C153.455 135.809 154.161 135.467 155.041 135.467C155.943 135.467 156.647 135.786 157.153 136.424L157.215 135.604H158.37V142.822C158.37 143.779 158.085 144.534 157.516 145.085C156.951 145.636 156.189 145.912 155.232 145.912C154.699 145.912 154.177 145.798 153.667 145.57C153.157 145.342 152.767 145.03 152.498 144.634L153.154 143.875C153.697 144.545 154.36 144.88 155.144 144.88C155.759 144.88 156.237 144.707 156.579 144.36C156.925 144.014 157.099 143.526 157.099 142.897V142.262C156.593 142.845 155.902 143.137 155.027 143.137C154.161 143.137 153.46 142.788 152.922 142.091C152.389 141.394 152.122 140.443 152.122 139.24ZM153.394 139.384C153.394 140.218 153.564 140.874 153.906 141.353C154.248 141.826 154.727 142.063 155.342 142.063C156.139 142.063 156.725 141.701 157.099 140.977V137.6C156.711 136.893 156.13 136.54 155.355 136.54C154.74 136.54 154.259 136.779 153.913 137.258C153.567 137.736 153.394 138.445 153.394 139.384ZM162.704 141.147L164.427 135.604H165.78L162.807 144.142C162.346 145.372 161.615 145.987 160.612 145.987L160.373 145.967L159.901 145.878V144.853L160.243 144.88C160.672 144.88 161.004 144.793 161.241 144.62C161.483 144.447 161.681 144.13 161.836 143.67L162.116 142.918L159.478 135.604H160.858L162.704 141.147ZM170.586 143V133.047H173.84C174.92 133.047 175.731 133.27 176.273 133.717C176.82 134.163 177.094 134.824 177.094 135.699C177.094 136.164 176.962 136.576 176.697 136.937C176.433 137.292 176.073 137.568 175.617 137.764C176.155 137.914 176.579 138.201 176.889 138.625C177.203 139.044 177.36 139.546 177.36 140.129C177.36 141.022 177.071 141.724 176.492 142.234C175.913 142.745 175.095 143 174.038 143H170.586ZM171.898 138.345V141.927H174.065C174.676 141.927 175.157 141.77 175.508 141.455C175.863 141.136 176.041 140.699 176.041 140.143C176.041 138.944 175.389 138.345 174.086 138.345H171.898ZM171.898 137.292H173.881C174.455 137.292 174.913 137.148 175.255 136.861C175.601 136.574 175.774 136.185 175.774 135.692C175.774 135.146 175.615 134.749 175.296 134.503C174.977 134.252 174.492 134.127 173.84 134.127H171.898V137.292ZM178.775 139.233C178.775 138.509 178.917 137.857 179.199 137.278C179.486 136.7 179.883 136.253 180.389 135.938C180.899 135.624 181.48 135.467 182.132 135.467C183.139 135.467 183.952 135.815 184.572 136.513C185.197 137.21 185.509 138.137 185.509 139.295V139.384C185.509 140.104 185.37 140.751 185.092 141.325C184.818 141.895 184.424 142.339 183.909 142.658C183.399 142.977 182.811 143.137 182.146 143.137C181.143 143.137 180.329 142.788 179.705 142.091C179.085 141.394 178.775 140.471 178.775 139.322V139.233ZM180.047 139.384C180.047 140.204 180.236 140.863 180.614 141.359C180.997 141.856 181.507 142.104 182.146 142.104C182.788 142.104 183.299 141.854 183.677 141.353C184.055 140.847 184.244 140.14 184.244 139.233C184.244 138.422 184.05 137.766 183.663 137.265C183.28 136.759 182.77 136.506 182.132 136.506C181.507 136.506 181.004 136.754 180.621 137.251C180.238 137.748 180.047 138.459 180.047 139.384ZM186.76 139.233C186.76 138.509 186.901 137.857 187.184 137.278C187.471 136.7 187.867 136.253 188.373 135.938C188.883 135.624 189.465 135.467 190.116 135.467C191.123 135.467 191.937 135.815 192.557 136.513C193.181 137.21 193.493 138.137 193.493 139.295V139.384C193.493 140.104 193.354 140.751 193.076 141.325C192.803 141.895 192.409 142.339 191.894 142.658C191.383 142.977 190.795 143.137 190.13 143.137C189.127 143.137 188.314 142.788 187.689 142.091C187.07 141.394 186.76 140.471 186.76 139.322V139.233ZM188.031 139.384C188.031 140.204 188.22 140.863 188.599 141.359C188.981 141.856 189.492 142.104 190.13 142.104C190.772 142.104 191.283 141.854 191.661 141.353C192.039 140.847 192.229 140.14 192.229 139.233C192.229 138.422 192.035 137.766 191.647 137.265C191.265 136.759 190.754 136.506 190.116 136.506C189.492 136.506 188.988 136.754 188.605 137.251C188.223 137.748 188.031 138.459 188.031 139.384ZM197.144 139.575L196.351 140.402V143H195.086V132.5H196.351V138.851L197.027 138.037L199.331 135.604H200.869L197.991 138.693L201.204 143H199.721L197.144 139.575ZM206.481 141.038C206.481 140.696 206.352 140.432 206.092 140.245C205.837 140.054 205.388 139.89 204.745 139.753C204.107 139.616 203.599 139.452 203.221 139.261C202.847 139.069 202.569 138.841 202.387 138.577C202.209 138.313 202.12 137.998 202.12 137.634C202.12 137.028 202.375 136.515 202.886 136.096C203.401 135.676 204.057 135.467 204.854 135.467C205.693 135.467 206.372 135.683 206.892 136.116C207.416 136.549 207.678 137.103 207.678 137.777H206.406C206.406 137.431 206.258 137.132 205.962 136.882C205.67 136.631 205.301 136.506 204.854 136.506C204.394 136.506 204.034 136.606 203.774 136.807C203.515 137.007 203.385 137.269 203.385 137.593C203.385 137.898 203.506 138.128 203.747 138.283C203.989 138.438 204.424 138.586 205.053 138.728C205.686 138.869 206.199 139.037 206.591 139.233C206.983 139.429 207.272 139.666 207.459 139.944C207.65 140.218 207.746 140.553 207.746 140.949C207.746 141.61 207.482 142.141 206.953 142.542C206.424 142.938 205.739 143.137 204.896 143.137C204.303 143.137 203.779 143.032 203.323 142.822C202.868 142.613 202.51 142.321 202.25 141.947C201.995 141.569 201.867 141.161 201.867 140.724H203.132C203.155 141.147 203.323 141.485 203.638 141.735C203.957 141.981 204.376 142.104 204.896 142.104C205.374 142.104 205.757 142.009 206.044 141.817C206.336 141.621 206.481 141.362 206.481 141.038Z" fill="black"/>
<rect x="83.5" y="123.5" width="143" height="29" stroke="black"/>
<path d="M278.752 23V13.0469H281.562C282.427 13.0469 283.193 13.2383 283.858 13.6211C284.524 14.0039 285.036 14.5485 285.396 15.2549C285.761 15.9613 285.946 16.7725 285.95 17.6885V18.3242C285.95 19.263 285.768 20.0856 285.403 20.792C285.043 21.4984 284.526 22.0407 283.852 22.4189C283.182 22.7972 282.4 22.9909 281.507 23H278.752ZM280.064 14.127V21.9268H281.445C282.457 21.9268 283.243 21.6123 283.804 20.9834C284.369 20.3545 284.651 19.459 284.651 18.2969V17.7158C284.651 16.5856 284.385 15.7083 283.852 15.084C283.323 14.4551 282.571 14.1361 281.596 14.127H280.064ZM292.308 23C292.235 22.8542 292.175 22.5944 292.13 22.2207C291.542 22.8314 290.84 23.1367 290.024 23.1367C289.295 23.1367 288.696 22.9316 288.227 22.5215C287.762 22.1068 287.529 21.5827 287.529 20.9492C287.529 20.179 287.821 19.582 288.404 19.1582C288.992 18.7298 289.817 18.5156 290.879 18.5156H292.109V17.9346C292.109 17.4925 291.977 17.1416 291.713 16.8818C291.449 16.6175 291.059 16.4854 290.544 16.4854C290.093 16.4854 289.715 16.5993 289.409 16.8271C289.104 17.055 288.951 17.3307 288.951 17.6543H287.68C287.68 17.2852 287.81 16.9297 288.069 16.5879C288.334 16.2415 288.689 15.9681 289.136 15.7676C289.587 15.5671 290.081 15.4668 290.619 15.4668C291.471 15.4668 292.139 15.681 292.622 16.1094C293.105 16.5332 293.356 17.1188 293.374 17.8662V21.2705C293.374 21.9495 293.461 22.4896 293.634 22.8906V23H292.308ZM290.209 22.0361C290.605 22.0361 290.981 21.9336 291.337 21.7285C291.692 21.5234 291.95 21.2568 292.109 20.9287V19.4111H291.118C289.569 19.4111 288.794 19.8646 288.794 20.7715C288.794 21.168 288.926 21.4779 289.19 21.7012C289.455 21.9245 289.794 22.0361 290.209 22.0361ZM297.072 13.8125V15.6035H298.453V16.5811H297.072V21.168C297.072 21.4642 297.134 21.6875 297.257 21.8379C297.38 21.9837 297.59 22.0566 297.886 22.0566C298.032 22.0566 298.232 22.0293 298.487 21.9746V23C298.155 23.0911 297.831 23.1367 297.517 23.1367C296.951 23.1367 296.525 22.9658 296.238 22.624C295.951 22.2822 295.808 21.7969 295.808 21.168V16.5811H294.461V15.6035H295.808V13.8125H297.072ZM303.006 23.1367C302.003 23.1367 301.188 22.8086 300.559 22.1523C299.93 21.4915 299.615 20.6097 299.615 19.5068V19.2744C299.615 18.5407 299.754 17.8867 300.032 17.3125C300.315 16.7337 300.707 16.2826 301.208 15.959C301.714 15.6309 302.261 15.4668 302.849 15.4668C303.81 15.4668 304.558 15.7835 305.091 16.417C305.624 17.0505 305.891 17.9574 305.891 19.1377V19.6641H300.88C300.898 20.3932 301.11 20.9834 301.516 21.4346C301.926 21.8812 302.445 22.1045 303.074 22.1045C303.521 22.1045 303.899 22.0133 304.209 21.8311C304.519 21.6488 304.79 21.4072 305.022 21.1064L305.795 21.708C305.175 22.6605 304.245 23.1367 303.006 23.1367ZM302.849 16.5059C302.338 16.5059 301.91 16.6927 301.563 17.0664C301.217 17.4355 301.003 17.9551 300.921 18.625H304.626V18.5293C304.59 17.8867 304.416 17.39 304.106 17.0391C303.797 16.6836 303.377 16.5059 302.849 16.5059Z" fill="black"/>
<rect x="227.5" y="3.5" width="129" height="29" stroke="black"/>
<rect x="227.5" y="33.5" width="129" height="29" fill="#5D98FA" fill-opacity="0.5"/>
<path d="M262.551 53H256.029V52.0908L259.475 48.2627C259.985 47.6839 260.336 47.2145 260.527 46.8545C260.723 46.4899 260.821 46.1139 260.821 45.7266C260.821 45.207 260.664 44.7809 260.35 44.4482C260.035 44.1156 259.616 43.9492 259.092 43.9492C258.463 43.9492 257.973 44.1292 257.622 44.4893C257.276 44.8447 257.103 45.3415 257.103 45.9795H255.838C255.838 45.0635 256.132 44.3229 256.72 43.7578C257.312 43.1927 258.103 42.9102 259.092 42.9102C260.017 42.9102 260.748 43.154 261.286 43.6416C261.824 44.1247 262.093 44.7695 262.093 45.5762C262.093 46.556 261.468 47.7227 260.22 49.0762L257.554 51.9678H262.551V53ZM268.047 53H266.775V44.5713L264.226 45.5078V44.3594L267.849 42.999H268.047V53ZM274.514 49.2881H271.178V48.2559H274.514V49.2881ZM277.057 45.6035V53.8545C277.057 55.2764 276.412 55.9873 275.122 55.9873C274.844 55.9873 274.587 55.9463 274.35 55.8643V54.8525C274.495 54.889 274.687 54.9072 274.924 54.9072C275.206 54.9072 275.421 54.8298 275.566 54.6748C275.717 54.5244 275.792 54.2601 275.792 53.8818V45.6035H277.057ZM275.662 43.6416C275.662 43.4411 275.724 43.2702 275.847 43.1289C275.974 42.9831 276.159 42.9102 276.4 42.9102C276.646 42.9102 276.833 42.9808 276.961 43.1221C277.089 43.2633 277.152 43.4365 277.152 43.6416C277.152 43.8467 277.089 44.0176 276.961 44.1543C276.833 44.291 276.646 44.3594 276.4 44.3594C276.154 44.3594 275.97 44.291 275.847 44.1543C275.724 44.0176 275.662 43.8467 275.662 43.6416ZM283.667 53C283.594 52.8542 283.535 52.5944 283.489 52.2207C282.901 52.8314 282.2 53.1367 281.384 53.1367C280.655 53.1367 280.055 52.9316 279.586 52.5215C279.121 52.1068 278.889 51.5827 278.889 50.9492C278.889 50.179 279.18 49.582 279.764 49.1582C280.352 48.7298 281.176 48.5156 282.238 48.5156H283.469V47.9346C283.469 47.4925 283.337 47.1416 283.072 46.8818C282.808 46.6175 282.418 46.4854 281.903 46.4854C281.452 46.4854 281.074 46.5993 280.769 46.8271C280.463 47.055 280.311 47.3307 280.311 47.6543H279.039C279.039 47.2852 279.169 46.9297 279.429 46.5879C279.693 46.2415 280.049 45.9681 280.495 45.7676C280.946 45.5671 281.441 45.4668 281.979 45.4668C282.831 45.4668 283.498 45.681 283.981 46.1094C284.465 46.5332 284.715 47.1188 284.733 47.8662V51.2705C284.733 51.9495 284.82 52.4896 284.993 52.8906V53H283.667ZM281.568 52.0361C281.965 52.0361 282.341 51.9336 282.696 51.7285C283.052 51.5234 283.309 51.2568 283.469 50.9287V49.4111H282.478C280.928 49.4111 280.153 49.8646 280.153 50.7715C280.153 51.168 280.285 51.4779 280.55 51.7012C280.814 51.9245 281.154 52.0361 281.568 52.0361ZM287.912 45.6035L287.953 46.5332C288.518 45.8223 289.257 45.4668 290.168 45.4668C291.731 45.4668 292.52 46.3486 292.533 48.1123V53H291.269V48.1055C291.264 47.5723 291.141 47.1781 290.899 46.9229C290.662 46.6676 290.291 46.54 289.785 46.54C289.375 46.54 289.015 46.6494 288.705 46.8682C288.395 47.0869 288.154 47.374 287.98 47.7295V53H286.716V45.6035H287.912ZM297.072 49.2881H293.736V48.2559H297.072V49.2881ZM304.701 53H298.18V52.0908L301.625 48.2627C302.135 47.6839 302.486 47.2145 302.678 46.8545C302.874 46.4899 302.972 46.1139 302.972 45.7266C302.972 45.207 302.814 44.7809 302.5 44.4482C302.186 44.1156 301.766 43.9492 301.242 43.9492C300.613 43.9492 300.123 44.1292 299.772 44.4893C299.426 44.8447 299.253 45.3415 299.253 45.9795H297.988C297.988 45.0635 298.282 44.3229 298.87 43.7578C299.463 43.1927 300.253 42.9102 301.242 42.9102C302.167 42.9102 302.899 43.154 303.437 43.6416C303.974 44.1247 304.243 44.7695 304.243 45.5762C304.243 46.556 303.619 47.7227 302.37 49.0762L299.704 51.9678H304.701V53ZM312.282 48.7549C312.282 50.236 312.029 51.3366 311.523 52.0566C311.018 52.7767 310.227 53.1367 309.151 53.1367C308.09 53.1367 307.303 52.7858 306.793 52.084C306.283 51.3776 306.018 50.3249 306 48.9258V47.2373C306 45.7744 306.253 44.6875 306.759 43.9766C307.265 43.2656 308.058 42.9102 309.138 42.9102C310.209 42.9102 310.997 43.2542 311.503 43.9424C312.009 44.626 312.269 45.6833 312.282 47.1143V48.7549ZM311.018 47.0254C311.018 45.9544 310.867 45.1751 310.566 44.6875C310.266 44.1953 309.789 43.9492 309.138 43.9492C308.491 43.9492 308.019 44.193 307.723 44.6807C307.426 45.1683 307.274 45.918 307.265 46.9297V48.9531C307.265 50.0286 307.42 50.8239 307.729 51.3389C308.044 51.8493 308.518 52.1045 309.151 52.1045C309.776 52.1045 310.238 51.863 310.539 51.3799C310.844 50.8968 311.004 50.1357 311.018 49.0967V47.0254ZM320.144 48.7549C320.144 50.236 319.891 51.3366 319.385 52.0566C318.879 52.7767 318.088 53.1367 317.013 53.1367C315.951 53.1367 315.165 52.7858 314.654 52.084C314.144 51.3776 313.88 50.3249 313.861 48.9258V47.2373C313.861 45.7744 314.114 44.6875 314.62 43.9766C315.126 43.2656 315.919 42.9102 316.999 42.9102C318.07 42.9102 318.858 43.2542 319.364 43.9424C319.87 44.626 320.13 45.6833 320.144 47.1143V48.7549ZM318.879 47.0254C318.879 45.9544 318.729 45.1751 318.428 44.6875C318.127 44.1953 317.651 43.9492 316.999 43.9492C316.352 43.9492 315.88 44.193 315.584 44.6807C315.288 45.1683 315.135 45.918 315.126 46.9297V48.9531C315.126 50.0286 315.281 50.8239 315.591 51.3389C315.905 51.8493 316.379 52.1045 317.013 52.1045C317.637 52.1045 318.1 51.863 318.4 51.3799C318.706 50.8968 318.865 50.1357 318.879 49.0967V47.0254ZM328.285 53H321.764V52.0908L325.209 48.2627C325.719 47.6839 326.07 47.2145 326.262 46.8545C326.458 46.4899 326.556 46.1139 326.556 45.7266C326.556 45.207 326.398 44.7809 326.084 44.4482C325.77 44.1156 325.35 43.9492 324.826 43.9492C324.197 43.9492 323.707 44.1292 323.356 44.4893C323.01 44.8447 322.837 45.3415 322.837 45.9795H321.572C321.572 45.0635 321.866 44.3229 322.454 43.7578C323.047 43.1927 323.837 42.9102 324.826 42.9102C325.751 42.9102 326.483 43.154 327.021 43.6416C327.558 44.1247 327.827 44.7695 327.827 45.5762C327.827 46.556 327.203 47.7227 325.954 49.0762L323.288 51.9678H328.285V53Z" fill="black"/>
<rect x="227.5" y="33.5" width="129" height="29" stroke="black"/>
<path d="M262.551 83H256.029V82.0908L259.475 78.2627C259.985 77.6839 260.336 77.2145 260.527 76.8545C260.723 76.4899 260.821 76.1139 260.821 75.7266C260.821 75.207 260.664 74.7809 260.35 74.4482C260.035 74.1156 259.616 73.9492 259.092 73.9492C258.463 73.9492 257.973 74.1292 257.622 74.4893C257.276 74.8447 257.103 75.3415 257.103 75.9795H255.838C255.838 75.0635 256.132 74.3229 256.72 73.7578C257.312 73.1927 258.103 72.9102 259.092 72.9102C260.017 72.9102 260.748 73.154 261.286 73.6416C261.824 74.1247 262.093 74.7695 262.093 75.5762C262.093 76.556 261.468 77.7227 260.22 79.0762L257.554 81.9678H262.551V83ZM268.047 83H266.775V74.5713L264.226 75.5078V74.3594L267.849 72.999H268.047V83ZM274.514 79.2881H271.178V78.2559H274.514V79.2881ZM277.057 75.6035V83.8545C277.057 85.2764 276.412 85.9873 275.122 85.9873C274.844 85.9873 274.587 85.9463 274.35 85.8643V84.8525C274.495 84.889 274.687 84.9072 274.924 84.9072C275.206 84.9072 275.421 84.8298 275.566 84.6748C275.717 84.5244 275.792 84.2601 275.792 83.8818V75.6035H277.057ZM275.662 73.6416C275.662 73.4411 275.724 73.2702 275.847 73.1289C275.974 72.9831 276.159 72.9102 276.4 72.9102C276.646 72.9102 276.833 72.9808 276.961 73.1221C277.089 73.2633 277.152 73.4365 277.152 73.6416C277.152 73.8467 277.089 74.0176 276.961 74.1543C276.833 74.291 276.646 74.3594 276.4 74.3594C276.154 74.3594 275.97 74.291 275.847 74.1543C275.724 74.0176 275.662 73.8467 275.662 73.6416ZM283.667 83C283.594 82.8542 283.535 82.5944 283.489 82.2207C282.901 82.8314 282.2 83.1367 281.384 83.1367C280.655 83.1367 280.055 82.9316 279.586 82.5215C279.121 82.1068 278.889 81.5827 278.889 80.9492C278.889 80.179 279.18 79.582 279.764 79.1582C280.352 78.7298 281.176 78.5156 282.238 78.5156H283.469V77.9346C283.469 77.4925 283.337 77.1416 283.072 76.8818C282.808 76.6175 282.418 76.4854 281.903 76.4854C281.452 76.4854 281.074 76.5993 280.769 76.8271C280.463 77.055 280.311 77.3307 280.311 77.6543H279.039C279.039 77.2852 279.169 76.9297 279.429 76.5879C279.693 76.2415 280.049 75.9681 280.495 75.7676C280.946 75.5671 281.441 75.4668 281.979 75.4668C282.831 75.4668 283.498 75.681 283.981 76.1094C284.465 76.5332 284.715 77.1188 284.733 77.8662V81.2705C284.733 81.9495 284.82 82.4896 284.993 82.8906V83H283.667ZM281.568 82.0361C281.965 82.0361 282.341 81.9336 282.696 81.7285C283.052 81.5234 283.309 81.2568 283.469 80.9287V79.4111H282.478C280.928 79.4111 280.153 79.8646 280.153 80.7715C280.153 81.168 280.285 81.4779 280.55 81.7012C280.814 81.9245 281.154 82.0361 281.568 82.0361ZM287.912 75.6035L287.953 76.5332C288.518 75.8223 289.257 75.4668 290.168 75.4668C291.731 75.4668 292.52 76.3486 292.533 78.1123V83H291.269V78.1055C291.264 77.5723 291.141 77.1781 290.899 76.9229C290.662 76.6676 290.291 76.54 289.785 76.54C289.375 76.54 289.015 76.6494 288.705 76.8682C288.395 77.0869 288.154 77.374 287.98 77.7295V83H286.716V75.6035H287.912ZM297.072 79.2881H293.736V78.2559H297.072V79.2881ZM304.701 83H298.18V82.0908L301.625 78.2627C302.135 77.6839 302.486 77.2145 302.678 76.8545C302.874 76.4899 302.972 76.1139 302.972 75.7266C302.972 75.207 302.814 74.7809 302.5 74.4482C302.186 74.1156 301.766 73.9492 301.242 73.9492C300.613 73.9492 300.123 74.1292 299.772 74.4893C299.426 74.8447 299.253 75.3415 299.253 75.9795H297.988C297.988 75.0635 298.282 74.3229 298.87 73.7578C299.463 73.1927 300.253 72.9102 301.242 72.9102C302.167 72.9102 302.899 73.154 303.437 73.6416C303.974 74.1247 304.243 74.7695 304.243 75.5762C304.243 76.556 303.619 77.7227 302.37 79.0762L299.704 81.9678H304.701V83ZM312.282 78.7549C312.282 80.236 312.029 81.3366 311.523 82.0566C311.018 82.7767 310.227 83.1367 309.151 83.1367C308.09 83.1367 307.303 82.7858 306.793 82.084C306.283 81.3776 306.018 80.3249 306 78.9258V77.2373C306 75.7744 306.253 74.6875 306.759 73.9766C307.265 73.2656 308.058 72.9102 309.138 72.9102C310.209 72.9102 310.997 73.2542 311.503 73.9424C312.009 74.626 312.269 75.6833 312.282 77.1143V78.7549ZM311.018 77.0254C311.018 75.9544 310.867 75.1751 310.566 74.6875C310.266 74.1953 309.789 73.9492 309.138 73.9492C308.491 73.9492 308.019 74.193 307.723 74.6807C307.426 75.1683 307.274 75.918 307.265 76.9297V78.9531C307.265 80.0286 307.42 80.8239 307.729 81.3389C308.044 81.8493 308.518 82.1045 309.151 82.1045C309.776 82.1045 310.238 81.863 310.539 81.3799C310.844 80.8968 311.004 80.1357 311.018 79.0967V77.0254ZM320.144 78.7549C320.144 80.236 319.891 81.3366 319.385 82.0566C318.879 82.7767 318.088 83.1367 317.013 83.1367C315.951 83.1367 315.165 82.7858 314.654 82.084C314.144 81.3776 313.88 80.3249 313.861 78.9258V77.2373C313.861 75.7744 314.114 74.6875 314.62 73.9766C315.126 73.2656 315.919 72.9102 316.999 72.9102C318.07 72.9102 318.858 73.2542 319.364 73.9424C319.87 74.626 320.13 75.6833 320.144 77.1143V78.7549ZM318.879 77.0254C318.879 75.9544 318.729 75.1751 318.428 74.6875C318.127 74.1953 317.651 73.9492 316.999 73.9492C316.352 73.9492 315.88 74.193 315.584 74.6807C315.288 75.1683 315.135 75.918 315.126 76.9297V78.9531C315.126 80.0286 315.281 80.8239 315.591 81.3389C315.905 81.8493 316.379 82.1045 317.013 82.1045C317.637 82.1045 318.1 81.863 318.4 81.3799C318.706 80.8968 318.865 80.1357 318.879 79.0967V77.0254ZM328.285 83H321.764V82.0908L325.209 78.2627C325.719 77.6839 326.07 77.2145 326.262 76.8545C326.458 76.4899 326.556 76.1139 326.556 75.7266C326.556 75.207 326.398 74.7809 326.084 74.4482C325.77 74.1156 325.35 73.9492 324.826 73.9492C324.197 73.9492 323.707 74.1292 323.356 74.4893C323.01 74.8447 322.837 75.3415 322.837 75.9795H321.572C321.572 75.0635 321.866 74.3229 322.454 73.7578C323.047 73.1927 323.837 72.9102 324.826 72.9102C325.751 72.9102 326.483 73.154 327.021 73.6416C327.558 74.1247 327.827 74.7695 327.827 75.5762C327.827 76.556 327.203 77.7227 325.954 79.0762L323.288 81.9678H328.285V83Z" fill="black"/>
<rect x="227.5" y="63.5" width="129" height="29" stroke="black"/>
<path d="M262.551 113H256.029V112.091L259.475 108.263C259.985 107.684 260.336 107.215 260.527 106.854C260.723 106.49 260.821 106.114 260.821 105.727C260.821 105.207 260.664 104.781 260.35 104.448C260.035 104.116 259.616 103.949 259.092 103.949C258.463 103.949 257.973 104.129 257.622 104.489C257.276 104.845 257.103 105.341 257.103 105.979H255.838C255.838 105.063 256.132 104.323 256.72 103.758C257.312 103.193 258.103 102.91 259.092 102.91C260.017 102.91 260.748 103.154 261.286 103.642C261.824 104.125 262.093 104.77 262.093 105.576C262.093 106.556 261.468 107.723 260.22 109.076L257.554 111.968H262.551V113ZM268.047 113H266.775V104.571L264.226 105.508V104.359L267.849 102.999H268.047V113ZM274.514 109.288H271.178V108.256H274.514V109.288ZM277.057 105.604V113.854C277.057 115.276 276.412 115.987 275.122 115.987C274.844 115.987 274.587 115.946 274.35 115.864V114.853C274.495 114.889 274.687 114.907 274.924 114.907C275.206 114.907 275.421 114.83 275.566 114.675C275.717 114.524 275.792 114.26 275.792 113.882V105.604H277.057ZM275.662 103.642C275.662 103.441 275.724 103.27 275.847 103.129C275.974 102.983 276.159 102.91 276.4 102.91C276.646 102.91 276.833 102.981 276.961 103.122C277.089 103.263 277.152 103.437 277.152 103.642C277.152 103.847 277.089 104.018 276.961 104.154C276.833 104.291 276.646 104.359 276.4 104.359C276.154 104.359 275.97 104.291 275.847 104.154C275.724 104.018 275.662 103.847 275.662 103.642ZM283.667 113C283.594 112.854 283.535 112.594 283.489 112.221C282.901 112.831 282.2 113.137 281.384 113.137C280.655 113.137 280.055 112.932 279.586 112.521C279.121 112.107 278.889 111.583 278.889 110.949C278.889 110.179 279.18 109.582 279.764 109.158C280.352 108.73 281.176 108.516 282.238 108.516H283.469V107.935C283.469 107.493 283.337 107.142 283.072 106.882C282.808 106.618 282.418 106.485 281.903 106.485C281.452 106.485 281.074 106.599 280.769 106.827C280.463 107.055 280.311 107.331 280.311 107.654H279.039C279.039 107.285 279.169 106.93 279.429 106.588C279.693 106.242 280.049 105.968 280.495 105.768C280.946 105.567 281.441 105.467 281.979 105.467C282.831 105.467 283.498 105.681 283.981 106.109C284.465 106.533 284.715 107.119 284.733 107.866V111.271C284.733 111.95 284.82 112.49 284.993 112.891V113H283.667ZM281.568 112.036C281.965 112.036 282.341 111.934 282.696 111.729C283.052 111.523 283.309 111.257 283.469 110.929V109.411H282.478C280.928 109.411 280.153 109.865 280.153 110.771C280.153 111.168 280.285 111.478 280.55 111.701C280.814 111.924 281.154 112.036 281.568 112.036ZM287.912 105.604L287.953 106.533C288.518 105.822 289.257 105.467 290.168 105.467C291.731 105.467 292.52 106.349 292.533 108.112V113H291.269V108.105C291.264 107.572 291.141 107.178 290.899 106.923C290.662 106.668 290.291 106.54 289.785 106.54C289.375 106.54 289.015 106.649 288.705 106.868C288.395 107.087 288.154 107.374 287.98 107.729V113H286.716V105.604H287.912ZM297.072 109.288H293.736V108.256H297.072V109.288ZM304.701 113H298.18V112.091L301.625 108.263C302.135 107.684 302.486 107.215 302.678 106.854C302.874 106.49 302.972 106.114 302.972 105.727C302.972 105.207 302.814 104.781 302.5 104.448C302.186 104.116 301.766 103.949 301.242 103.949C300.613 103.949 300.123 104.129 299.772 104.489C299.426 104.845 299.253 105.341 299.253 105.979H297.988C297.988 105.063 298.282 104.323 298.87 103.758C299.463 103.193 300.253 102.91 301.242 102.91C302.167 102.91 302.899 103.154 303.437 103.642C303.974 104.125 304.243 104.77 304.243 105.576C304.243 106.556 303.619 107.723 302.37 109.076L299.704 111.968H304.701V113ZM312.282 108.755C312.282 110.236 312.029 111.337 311.523 112.057C311.018 112.777 310.227 113.137 309.151 113.137C308.09 113.137 307.303 112.786 306.793 112.084C306.283 111.378 306.018 110.325 306 108.926V107.237C306 105.774 306.253 104.688 306.759 103.977C307.265 103.266 308.058 102.91 309.138 102.91C310.209 102.91 310.997 103.254 311.503 103.942C312.009 104.626 312.269 105.683 312.282 107.114V108.755ZM311.018 107.025C311.018 105.954 310.867 105.175 310.566 104.688C310.266 104.195 309.789 103.949 309.138 103.949C308.491 103.949 308.019 104.193 307.723 104.681C307.426 105.168 307.274 105.918 307.265 106.93V108.953C307.265 110.029 307.42 110.824 307.729 111.339C308.044 111.849 308.518 112.104 309.151 112.104C309.776 112.104 310.238 111.863 310.539 111.38C310.844 110.897 311.004 110.136 311.018 109.097V107.025ZM320.144 108.755C320.144 110.236 319.891 111.337 319.385 112.057C318.879 112.777 318.088 113.137 317.013 113.137C315.951 113.137 315.165 112.786 314.654 112.084C314.144 111.378 313.88 110.325 313.861 108.926V107.237C313.861 105.774 314.114 104.688 314.62 103.977C315.126 103.266 315.919 102.91 316.999 102.91C318.07 102.91 318.858 103.254 319.364 103.942C319.87 104.626 320.13 105.683 320.144 107.114V108.755ZM318.879 107.025C318.879 105.954 318.729 105.175 318.428 104.688C318.127 104.195 317.651 103.949 316.999 103.949C316.352 103.949 315.88 104.193 315.584 104.681C315.288 105.168 315.135 105.918 315.126 106.93V108.953C315.126 110.029 315.281 110.824 315.591 111.339C315.905 111.849 316.379 112.104 317.013 112.104C317.637 112.104 318.1 111.863 318.4 111.38C318.706 110.897 318.865 110.136 318.879 109.097V107.025ZM328.285 113H321.764V112.091L325.209 108.263C325.719 107.684 326.07 107.215 326.262 106.854C326.458 106.49 326.556 106.114 326.556 105.727C326.556 105.207 326.398 104.781 326.084 104.448C325.77 104.116 325.35 103.949 324.826 103.949C324.197 103.949 323.707 104.129 323.356 104.489C323.01 104.845 322.837 105.341 322.837 105.979H321.572C321.572 105.063 321.866 104.323 322.454 103.758C323.047 103.193 323.837 102.91 324.826 102.91C325.751 102.91 326.483 103.154 327.021 103.642C327.558 104.125 327.827 104.77 327.827 105.576C327.827 106.556 327.203 107.723 325.954 109.076L323.288 111.968H328.285V113Z" fill="black"/>
<rect x="227.5" y="93.5" width="129" height="29" stroke="black"/>
<path d="M262.551 143H256.029V142.091L259.475 138.263C259.985 137.684 260.336 137.215 260.527 136.854C260.723 136.49 260.821 136.114 260.821 135.727C260.821 135.207 260.664 134.781 260.35 134.448C260.035 134.116 259.616 133.949 259.092 133.949C258.463 133.949 257.973 134.129 257.622 134.489C257.276 134.845 257.103 135.341 257.103 135.979H255.838C255.838 135.063 256.132 134.323 256.72 133.758C257.312 133.193 258.103 132.91 259.092 132.91C260.017 132.91 260.748 133.154 261.286 133.642C261.824 134.125 262.093 134.77 262.093 135.576C262.093 136.556 261.468 137.723 260.22 139.076L257.554 141.968H262.551V143ZM268.047 143H266.775V134.571L264.226 135.508V134.359L267.849 132.999H268.047V143ZM274.514 139.288H271.178V138.256H274.514V139.288ZM277.057 135.604V143.854C277.057 145.276 276.412 145.987 275.122 145.987C274.844 145.987 274.587 145.946 274.35 145.864V144.853C274.495 144.889 274.687 144.907 274.924 144.907C275.206 144.907 275.421 144.83 275.566 144.675C275.717 144.524 275.792 144.26 275.792 143.882V135.604H277.057ZM275.662 133.642C275.662 133.441 275.724 133.27 275.847 133.129C275.974 132.983 276.159 132.91 276.4 132.91C276.646 132.91 276.833 132.981 276.961 133.122C277.089 133.263 277.152 133.437 277.152 133.642C277.152 133.847 277.089 134.018 276.961 134.154C276.833 134.291 276.646 134.359 276.4 134.359C276.154 134.359 275.97 134.291 275.847 134.154C275.724 134.018 275.662 133.847 275.662 133.642ZM283.667 143C283.594 142.854 283.535 142.594 283.489 142.221C282.901 142.831 282.2 143.137 281.384 143.137C280.655 143.137 280.055 142.932 279.586 142.521C279.121 142.107 278.889 141.583 278.889 140.949C278.889 140.179 279.18 139.582 279.764 139.158C280.352 138.73 281.176 138.516 282.238 138.516H283.469V137.935C283.469 137.493 283.337 137.142 283.072 136.882C282.808 136.618 282.418 136.485 281.903 136.485C281.452 136.485 281.074 136.599 280.769 136.827C280.463 137.055 280.311 137.331 280.311 137.654H279.039C279.039 137.285 279.169 136.93 279.429 136.588C279.693 136.242 280.049 135.968 280.495 135.768C280.946 135.567 281.441 135.467 281.979 135.467C282.831 135.467 283.498 135.681 283.981 136.109C284.465 136.533 284.715 137.119 284.733 137.866V141.271C284.733 141.95 284.82 142.49 284.993 142.891V143H283.667ZM281.568 142.036C281.965 142.036 282.341 141.934 282.696 141.729C283.052 141.523 283.309 141.257 283.469 140.929V139.411H282.478C280.928 139.411 280.153 139.865 280.153 140.771C280.153 141.168 280.285 141.478 280.55 141.701C280.814 141.924 281.154 142.036 281.568 142.036ZM287.912 135.604L287.953 136.533C288.518 135.822 289.257 135.467 290.168 135.467C291.731 135.467 292.52 136.349 292.533 138.112V143H291.269V138.105C291.264 137.572 291.141 137.178 290.899 136.923C290.662 136.668 290.291 136.54 289.785 136.54C289.375 136.54 289.015 136.649 288.705 136.868C288.395 137.087 288.154 137.374 287.98 137.729V143H286.716V135.604H287.912ZM297.072 139.288H293.736V138.256H297.072V139.288ZM304.701 143H298.18V142.091L301.625 138.263C302.135 137.684 302.486 137.215 302.678 136.854C302.874 136.49 302.972 136.114 302.972 135.727C302.972 135.207 302.814 134.781 302.5 134.448C302.186 134.116 301.766 133.949 301.242 133.949C300.613 133.949 300.123 134.129 299.772 134.489C299.426 134.845 299.253 135.341 299.253 135.979H297.988C297.988 135.063 298.282 134.323 298.87 133.758C299.463 133.193 300.253 132.91 301.242 132.91C302.167 132.91 302.899 133.154 303.437 133.642C303.974 134.125 304.243 134.77 304.243 135.576C304.243 136.556 303.619 137.723 302.37 139.076L299.704 141.968H304.701V143ZM312.282 138.755C312.282 140.236 312.029 141.337 311.523 142.057C311.018 142.777 310.227 143.137 309.151 143.137C308.09 143.137 307.303 142.786 306.793 142.084C306.283 141.378 306.018 140.325 306 138.926V137.237C306 135.774 306.253 134.688 306.759 133.977C307.265 133.266 308.058 132.91 309.138 132.91C310.209 132.91 310.997 133.254 311.503 133.942C312.009 134.626 312.269 135.683 312.282 137.114V138.755ZM311.018 137.025C311.018 135.954 310.867 135.175 310.566 134.688C310.266 134.195 309.789 133.949 309.138 133.949C308.491 133.949 308.019 134.193 307.723 134.681C307.426 135.168 307.274 135.918 307.265 136.93V138.953C307.265 140.029 307.42 140.824 307.729 141.339C308.044 141.849 308.518 142.104 309.151 142.104C309.776 142.104 310.238 141.863 310.539 141.38C310.844 140.897 311.004 140.136 311.018 139.097V137.025ZM320.144 138.755C320.144 140.236 319.891 141.337 319.385 142.057C318.879 142.777 318.088 143.137 317.013 143.137C315.951 143.137 315.165 142.786 314.654 142.084C314.144 141.378 313.88 140.325 313.861 138.926V137.237C313.861 135.774 314.114 134.688 314.62 133.977C315.126 133.266 315.919 132.91 316.999 132.91C318.07 132.91 318.858 133.254 319.364 133.942C319.87 134.626 320.13 135.683 320.144 137.114V138.755ZM318.879 137.025C318.879 135.954 318.729 135.175 318.428 134.688C318.127 134.195 317.651 133.949 316.999 133.949C316.352 133.949 315.88 134.193 315.584 134.681C315.288 135.168 315.135 135.918 315.126 136.93V138.953C315.126 140.029 315.281 140.824 315.591 141.339C315.905 141.849 316.379 142.104 317.013 142.104C317.637 142.104 318.1 141.863 318.4 141.38C318.706 140.897 318.865 140.136 318.879 139.097V137.025ZM328.285 143H321.764V142.091L325.209 138.263C325.719 137.684 326.07 137.215 326.262 136.854C326.458 136.49 326.556 136.114 326.556 135.727C326.556 135.207 326.398 134.781 326.084 134.448C325.77 134.116 325.35 133.949 324.826 133.949C324.197 133.949 323.707 134.129 323.356 134.489C323.01 134.845 322.837 135.341 322.837 135.979H321.572C321.572 135.063 321.866 134.323 322.454 133.758C323.047 133.193 323.837 132.91 324.826 132.91C325.751 132.91 326.483 133.154 327.021 133.642C327.558 134.125 327.827 134.77 327.827 135.576C327.827 136.556 327.203 137.723 325.954 139.076L323.288 141.968H328.285V143Z" fill="black"/>
<rect x="227.5" y="123.5" width="129" height="29" stroke="black"/>
<path d="M390.306 19.1035V23H388.993V13.0469H392.664C393.753 13.0469 394.605 13.3249 395.221 13.8809C395.84 14.4368 396.15 15.1729 396.15 16.0889C396.15 17.055 395.847 17.8001 395.241 18.3242C394.64 18.8438 393.776 19.1035 392.65 19.1035H390.306ZM390.306 18.0303H392.664C393.366 18.0303 393.904 17.8662 394.277 17.5381C394.651 17.2054 394.838 16.7269 394.838 16.1025C394.838 15.5101 394.651 15.0361 394.277 14.6807C393.904 14.3252 393.391 14.1406 392.739 14.127H390.306V18.0303ZM402.111 23C402.038 22.8542 401.979 22.5944 401.934 22.2207C401.346 22.8314 400.644 23.1367 399.828 23.1367C399.099 23.1367 398.5 22.9316 398.03 22.5215C397.565 22.1068 397.333 21.5827 397.333 20.9492C397.333 20.179 397.625 19.582 398.208 19.1582C398.796 18.7298 399.621 18.5156 400.683 18.5156H401.913V17.9346C401.913 17.4925 401.781 17.1416 401.517 16.8818C401.252 16.6175 400.863 16.4854 400.348 16.4854C399.896 16.4854 399.518 16.5993 399.213 16.8271C398.908 17.055 398.755 17.3307 398.755 17.6543H397.483C397.483 17.2852 397.613 16.9297 397.873 16.5879C398.137 16.2415 398.493 15.9681 398.939 15.7676C399.391 15.5671 399.885 15.4668 400.423 15.4668C401.275 15.4668 401.943 15.681 402.426 16.1094C402.909 16.5332 403.16 17.1188 403.178 17.8662V21.2705C403.178 21.9495 403.264 22.4896 403.438 22.8906V23H402.111ZM400.013 22.0361C400.409 22.0361 400.785 21.9336 401.141 21.7285C401.496 21.5234 401.754 21.2568 401.913 20.9287V19.4111H400.922C399.372 19.4111 398.598 19.8646 398.598 20.7715C398.598 21.168 398.73 21.4779 398.994 21.7012C399.258 21.9245 399.598 22.0361 400.013 22.0361ZM408.735 16.7383C408.544 16.7064 408.337 16.6904 408.113 16.6904C407.284 16.6904 406.721 17.0436 406.425 17.75V23H405.16V15.6035H406.391L406.411 16.458C406.826 15.7972 407.414 15.4668 408.175 15.4668C408.421 15.4668 408.608 15.4987 408.735 15.5625V16.7383ZM412.837 23.1367C411.834 23.1367 411.019 22.8086 410.39 22.1523C409.761 21.4915 409.446 20.6097 409.446 19.5068V19.2744C409.446 18.5407 409.585 17.8867 409.863 17.3125C410.146 16.7337 410.538 16.2826 411.039 15.959C411.545 15.6309 412.092 15.4668 412.68 15.4668C413.641 15.4668 414.389 15.7835 414.922 16.417C415.455 17.0505 415.722 17.9574 415.722 19.1377V19.6641H410.711C410.729 20.3932 410.941 20.9834 411.347 21.4346C411.757 21.8812 412.276 22.1045 412.905 22.1045C413.352 22.1045 413.73 22.0133 414.04 21.8311C414.35 21.6488 414.621 21.4072 414.854 21.1064L415.626 21.708C415.006 22.6605 414.076 23.1367 412.837 23.1367ZM412.68 16.5059C412.169 16.5059 411.741 16.6927 411.395 17.0664C411.048 17.4355 410.834 17.9551 410.752 18.625H414.457V18.5293C414.421 17.8867 414.247 17.39 413.938 17.0391C413.628 16.6836 413.208 16.5059 412.68 16.5059ZM418.388 15.6035L418.429 16.5332C418.994 15.8223 419.732 15.4668 420.644 15.4668C422.207 15.4668 422.995 16.3486 423.009 18.1123V23H421.744V18.1055C421.74 17.5723 421.617 17.1781 421.375 16.9229C421.138 16.6676 420.767 16.54 420.261 16.54C419.851 16.54 419.491 16.6494 419.181 16.8682C418.871 17.0869 418.629 17.374 418.456 17.7295V23H417.191V15.6035H418.388ZM426.632 13.8125V15.6035H428.013V16.5811H426.632V21.168C426.632 21.4642 426.693 21.6875 426.816 21.8379C426.939 21.9837 427.149 22.0566 427.445 22.0566C427.591 22.0566 427.792 22.0293 428.047 21.9746V23C427.714 23.0911 427.391 23.1367 427.076 23.1367C426.511 23.1367 426.085 22.9658 425.798 22.624C425.511 22.2822 425.367 21.7969 425.367 21.168V16.5811H424.021V15.6035H425.367V13.8125H426.632ZM434.828 24.0322H428.566V23H434.828V24.0322ZM437.187 23H435.922V15.6035H437.187V23ZM435.819 13.6416C435.819 13.4365 435.881 13.2633 436.004 13.1221C436.132 12.9808 436.318 12.9102 436.564 12.9102C436.811 12.9102 436.997 12.9808 437.125 13.1221C437.253 13.2633 437.316 13.4365 437.316 13.6416C437.316 13.8467 437.253 14.0176 437.125 14.1543C436.997 14.291 436.811 14.3594 436.564 14.3594C436.318 14.3594 436.132 14.291 436.004 14.1543C435.881 14.0176 435.819 13.8467 435.819 13.6416ZM438.909 19.2402C438.909 18.1055 439.178 17.194 439.716 16.5059C440.254 15.8132 440.958 15.4668 441.828 15.4668C442.694 15.4668 443.38 15.763 443.886 16.3555V12.5H445.15V23H443.988L443.927 22.207C443.421 22.8268 442.717 23.1367 441.814 23.1367C440.958 23.1367 440.258 22.7858 439.716 22.084C439.178 21.3822 438.909 20.4661 438.909 19.3359V19.2402ZM440.174 19.3838C440.174 20.2223 440.347 20.8786 440.693 21.3525C441.04 21.8265 441.518 22.0635 442.129 22.0635C442.931 22.0635 443.517 21.7035 443.886 20.9834V17.5859C443.507 16.8887 442.926 16.54 442.143 16.54C441.523 16.54 441.04 16.7793 440.693 17.2578C440.347 17.7363 440.174 18.445 440.174 19.3838Z" fill="black"/>
<rect x="357.5" y="3.5" width="119" height="29" stroke="black"/>
<rect x="357.5" y="33.5" width="119" height="29" fill="#5D98FA" fill-opacity="0.5"/>
<path d="M415.305 49.6572H416.686V50.6895H415.305V53H414.033V50.6895H409.501V49.9443L413.958 43.0469H415.305V49.6572ZM410.937 49.6572H414.033V44.7764L413.883 45.0498L410.937 49.6572ZM423.166 49.6572H424.547V50.6895H423.166V53H421.895V50.6895H417.362V49.9443L421.819 43.0469H423.166V49.6572ZM418.798 49.6572H421.895V44.7764L421.744 45.0498L418.798 49.6572Z" fill="black"/>
<rect x="357.5" y="33.5" width="119" height="29" stroke="black"/>
<path d="M411.805 77.4082H412.755C413.352 77.3991 413.821 77.2419 414.163 76.9365C414.505 76.6312 414.676 76.2188 414.676 75.6992C414.676 74.5326 414.095 73.9492 412.933 73.9492C412.386 73.9492 411.948 74.1064 411.62 74.4209C411.297 74.7308 411.135 75.1432 411.135 75.6582H409.87C409.87 74.8698 410.157 74.2158 410.731 73.6963C411.31 73.1722 412.044 72.9102 412.933 72.9102C413.871 72.9102 414.607 73.1585 415.141 73.6553C415.674 74.152 415.94 74.8424 415.94 75.7266C415.94 76.1595 415.799 76.5788 415.517 76.9844C415.239 77.39 414.858 77.693 414.375 77.8936C414.922 78.0667 415.343 78.3538 415.64 78.7549C415.94 79.1559 416.091 79.6458 416.091 80.2246C416.091 81.1178 415.799 81.8265 415.216 82.3506C414.632 82.8747 413.874 83.1367 412.939 83.1367C412.005 83.1367 411.244 82.8838 410.656 82.3779C410.073 81.8721 409.781 81.2044 409.781 80.375H411.053C411.053 80.8991 411.224 81.3184 411.565 81.6328C411.907 81.9473 412.365 82.1045 412.939 82.1045C413.55 82.1045 414.017 81.945 414.341 81.626C414.664 81.307 414.826 80.849 414.826 80.252C414.826 79.6732 414.648 79.2288 414.293 78.9189C413.938 78.609 413.425 78.4495 412.755 78.4404H411.805V77.4082ZM419.666 77.4082H420.616C421.213 77.3991 421.683 77.2419 422.024 76.9365C422.366 76.6312 422.537 76.2188 422.537 75.6992C422.537 74.5326 421.956 73.9492 420.794 73.9492C420.247 73.9492 419.81 74.1064 419.481 74.4209C419.158 74.7308 418.996 75.1432 418.996 75.6582H417.731C417.731 74.8698 418.019 74.2158 418.593 73.6963C419.172 73.1722 419.905 72.9102 420.794 72.9102C421.733 72.9102 422.469 73.1585 423.002 73.6553C423.535 74.152 423.802 74.8424 423.802 75.7266C423.802 76.1595 423.66 76.5788 423.378 76.9844C423.1 77.39 422.719 77.693 422.236 77.8936C422.783 78.0667 423.205 78.3538 423.501 78.7549C423.802 79.1559 423.952 79.6458 423.952 80.2246C423.952 81.1178 423.66 81.8265 423.077 82.3506C422.494 82.8747 421.735 83.1367 420.801 83.1367C419.867 83.1367 419.105 82.8838 418.518 82.3779C417.934 81.8721 417.643 81.2044 417.643 80.375H418.914C418.914 80.8991 419.085 81.3184 419.427 81.6328C419.769 81.9473 420.227 82.1045 420.801 82.1045C421.411 82.1045 421.879 81.945 422.202 81.626C422.526 81.307 422.688 80.849 422.688 80.252C422.688 79.6732 422.51 79.2288 422.154 78.9189C421.799 78.609 421.286 78.4495 420.616 78.4404H419.666V77.4082Z" fill="black"/>
<rect x="357.5" y="63.5" width="119" height="29" stroke="black"/>
<path d="M416.487 113H409.966V112.091L413.411 108.263C413.922 107.684 414.272 107.215 414.464 106.854C414.66 106.49 414.758 106.114 414.758 105.727C414.758 105.207 414.601 104.781 414.286 104.448C413.972 104.116 413.552 103.949 413.028 103.949C412.399 103.949 411.91 104.129 411.559 104.489C411.212 104.845 411.039 105.341 411.039 105.979H409.774C409.774 105.063 410.068 104.323 410.656 103.758C411.249 103.193 412.039 102.91 413.028 102.91C413.953 102.91 414.685 103.154 415.223 103.642C415.76 104.125 416.029 104.77 416.029 105.576C416.029 106.556 415.405 107.723 414.156 109.076L411.49 111.968H416.487V113ZM424.349 113H417.827V112.091L421.272 108.263C421.783 107.684 422.134 107.215 422.325 106.854C422.521 106.49 422.619 106.114 422.619 105.727C422.619 105.207 422.462 104.781 422.147 104.448C421.833 104.116 421.414 103.949 420.89 103.949C420.261 103.949 419.771 104.129 419.42 104.489C419.074 104.845 418.9 105.341 418.9 105.979H417.636C417.636 105.063 417.93 104.323 418.518 103.758C419.11 103.193 419.901 102.91 420.89 102.91C421.815 102.91 422.546 103.154 423.084 103.642C423.622 104.125 423.891 104.77 423.891 105.576C423.891 106.556 423.266 107.723 422.018 109.076L419.352 111.968H424.349V113Z" fill="black"/>
<rect x="357.5" y="93.5" width="119" height="29" stroke="black"/>
<path d="M414.122 143H412.851V134.571L410.301 135.508V134.359L413.924 132.999H414.122V143ZM421.983 143H420.712V134.571L418.162 135.508V134.359L421.785 132.999H421.983V143Z" fill="black"/>
<rect x="357.5" y="123.5" width="119" height="29" stroke="black"/>
<rect x="1.5" y="1.5" width="477" height="153" stroke="black" stroke-width="3"/>
<path d="M511.711 49.8359H509.844V54H507.5V42.625H511.727C513.07 42.625 514.107 42.9245 514.836 43.5234C515.565 44.1224 515.93 44.9688 515.93 46.0625C515.93 46.8385 515.76 47.487 515.422 48.0078C515.089 48.5234 514.581 48.9349 513.898 49.2422L516.359 53.8906V54H513.844L511.711 49.8359ZM509.844 47.9375H511.734C512.323 47.9375 512.779 47.7891 513.102 47.4922C513.424 47.1901 513.586 46.776 513.586 46.25C513.586 45.7135 513.432 45.2917 513.125 44.9844C512.823 44.6771 512.357 44.5234 511.727 44.5234H509.844V47.9375ZM517.219 49.6953C517.219 48.8568 517.38 48.1094 517.703 47.4531C518.026 46.7969 518.49 46.2891 519.094 45.9297C519.703 45.5703 520.409 45.3906 521.211 45.3906C522.352 45.3906 523.281 45.7396 524 46.4375C524.724 47.1354 525.128 48.0833 525.211 49.2812L525.227 49.8594C525.227 51.1562 524.865 52.1979 524.141 52.9844C523.417 53.7656 522.445 54.1562 521.227 54.1562C520.008 54.1562 519.034 53.7656 518.305 52.9844C517.581 52.2031 517.219 51.1406 517.219 49.7969V49.6953ZM519.477 49.8594C519.477 50.6615 519.628 51.276 519.93 51.7031C520.232 52.125 520.664 52.3359 521.227 52.3359C521.773 52.3359 522.201 52.1276 522.508 51.7109C522.815 51.2891 522.969 50.6172 522.969 49.6953C522.969 48.9089 522.815 48.2995 522.508 47.8672C522.201 47.4349 521.768 47.2188 521.211 47.2188C520.659 47.2188 520.232 47.4349 519.93 47.8672C519.628 48.2943 519.477 48.9583 519.477 49.8594ZM533.969 50.9297L535.078 45.5469H537.258L535.102 54H533.211L531.609 48.6797L530.008 54H528.125L525.969 45.5469H528.148L529.25 50.9219L530.797 45.5469H532.43L533.969 50.9297Z" fill="#5D98FA"/>
<path d="M137.172 188.211C137.083 189.435 136.63 190.398 135.812 191.102C135 191.805 133.927 192.156 132.594 192.156C131.135 192.156 129.987 191.667 129.148 190.688C128.315 189.703 127.898 188.354 127.898 186.641V185.945C127.898 184.852 128.091 183.888 128.477 183.055C128.862 182.221 129.411 181.583 130.125 181.141C130.844 180.693 131.677 180.469 132.625 180.469C133.938 180.469 134.995 180.82 135.797 181.523C136.599 182.227 137.062 183.214 137.188 184.484H134.844C134.786 183.75 134.581 183.219 134.227 182.891C133.878 182.557 133.344 182.391 132.625 182.391C131.844 182.391 131.258 182.672 130.867 183.234C130.482 183.792 130.284 184.659 130.273 185.836V186.695C130.273 187.924 130.458 188.823 130.828 189.391C131.203 189.958 131.792 190.242 132.594 190.242C133.318 190.242 133.857 190.078 134.211 189.75C134.57 189.417 134.776 188.904 134.828 188.211H137.172ZM138.211 187.695C138.211 186.857 138.372 186.109 138.695 185.453C139.018 184.797 139.482 184.289 140.086 183.93C140.695 183.57 141.401 183.391 142.203 183.391C143.344 183.391 144.273 183.74 144.992 184.438C145.716 185.135 146.12 186.083 146.203 187.281L146.219 187.859C146.219 189.156 145.857 190.198 145.133 190.984C144.409 191.766 143.438 192.156 142.219 192.156C141 192.156 140.026 191.766 139.297 190.984C138.573 190.203 138.211 189.141 138.211 187.797V187.695ZM140.469 187.859C140.469 188.661 140.62 189.276 140.922 189.703C141.224 190.125 141.656 190.336 142.219 190.336C142.766 190.336 143.193 190.128 143.5 189.711C143.807 189.289 143.961 188.617 143.961 187.695C143.961 186.909 143.807 186.299 143.5 185.867C143.193 185.435 142.76 185.219 142.203 185.219C141.651 185.219 141.224 185.435 140.922 185.867C140.62 186.294 140.469 186.958 140.469 187.859ZM149.992 192H147.727V180H149.992V192ZM156.922 191.141C156.365 191.818 155.594 192.156 154.609 192.156C153.703 192.156 153.01 191.896 152.531 191.375C152.057 190.854 151.815 190.091 151.805 189.086V183.547H154.062V189.008C154.062 189.888 154.464 190.328 155.266 190.328C156.031 190.328 156.557 190.062 156.844 189.531V183.547H159.109V192H156.984L156.922 191.141ZM162.93 183.547L163 184.492C163.599 183.758 164.409 183.391 165.43 183.391C166.518 183.391 167.266 183.82 167.672 184.68C168.266 183.82 169.112 183.391 170.211 183.391C171.128 183.391 171.81 183.659 172.258 184.195C172.706 184.727 172.93 185.529 172.93 186.602V192H170.664V186.609C170.664 186.13 170.57 185.781 170.383 185.562C170.195 185.339 169.865 185.227 169.391 185.227C168.714 185.227 168.245 185.549 167.984 186.195L167.992 192H165.734V186.617C165.734 186.128 165.638 185.773 165.445 185.555C165.253 185.336 164.924 185.227 164.461 185.227C163.82 185.227 163.357 185.492 163.07 186.023V192H160.812V183.547H162.93ZM176.75 183.547L176.82 184.523C177.424 183.768 178.234 183.391 179.25 183.391C180.146 183.391 180.812 183.654 181.25 184.18C181.688 184.706 181.911 185.492 181.922 186.539V192H179.664V186.594C179.664 186.115 179.56 185.768 179.352 185.555C179.143 185.336 178.797 185.227 178.312 185.227C177.677 185.227 177.201 185.497 176.883 186.039V192H174.625V183.547H176.75Z" fill="#FF0000"/>
<path fill-rule="evenodd" clip-rule="evenodd" d="M152 167.25L155.031 162L158.062 167.25H156V175H154L154 167.25H152Z" fill="#FF0000"/>
<path fill-rule="evenodd" clip-rule="evenodd" d="M493.781 51L488.531 47.9689L493.781 44.9378L493.781 47L501.531 47L501.531 48.9999L493.781 49L493.781 51Z" fill="#00A3FF"/>
</svg>
