<svg width="258" height="164" viewBox="0 0 258 164" fill="none" xmlns="http://www.w3.org/2000/svg">
<rect x="123" y="22" width="100" height="100" fill="#FFE600"/>
<path fill-rule="evenodd" clip-rule="evenodd" d="M25 22H35V24H25L25 34H23V24V22H25ZM23 120V110H25L25 120H35V122H25H23V120ZM124 24V34H122V24L112 24V22H122H124H134V24H124ZM122 110V120H112V122H122H124H134V120H124V110H122ZM223 34V24V22H221H211V24L221 24V34H223ZM221 122H211V120H221V110H223V120V122H221Z" fill="black"/>
<path opacity="0.5" fill-rule="evenodd" clip-rule="evenodd" d="M244.75 23L239.5 26.0311V24H25.0311L25.0311 142.5H27.0622L24.0311 147.75L21 142.5H23.0311L23.0311 24H23V22L23.0311 22L25.0311 22H239.5V19.9689L244.75 23Z" fill="#FF0000"/>
<path fill-rule="evenodd" clip-rule="evenodd" d="M233.031 24L230 29.25L232.031 29.25L232.031 62.75H234.031L234.031 29.25H236.062L233.031 24ZM233.031 121.75L230 116.5H232.031L232.031 83H234.031L234.031 116.5H236.062L233.031 121.75Z" fill="#00A3FF"/>
<path fill-rule="evenodd" clip-rule="evenodd" d="M25 135.031L30.25 138.062V136.031L100.75 136.031V134.031L30.25 134.031V132L25 135.031ZM222.75 135.031L217.5 138.062V136.031L147 136.031V134.031L217.5 134.031V132L222.75 135.031Z" fill="#00A3FF"/>
<path d="M108.983 140H107.712V131.571L105.162 132.508V131.359L108.785 129.999H108.983V140ZM118.93 135.755C118.93 137.236 118.677 138.337 118.171 139.057C117.665 139.777 116.874 140.137 115.799 140.137C114.737 140.137 113.951 139.786 113.44 139.084C112.93 138.378 112.666 137.325 112.647 135.926V134.237C112.647 132.774 112.9 131.688 113.406 130.977C113.912 130.266 114.705 129.91 115.785 129.91C116.856 129.91 117.645 130.254 118.15 130.942C118.656 131.626 118.916 132.683 118.93 134.114V135.755ZM117.665 134.025C117.665 132.954 117.515 132.175 117.214 131.688C116.913 131.195 116.437 130.949 115.785 130.949C115.138 130.949 114.666 131.193 114.37 131.681C114.074 132.168 113.921 132.918 113.912 133.93V135.953C113.912 137.029 114.067 137.824 114.377 138.339C114.691 138.849 115.165 139.104 115.799 139.104C116.423 139.104 116.886 138.863 117.187 138.38C117.492 137.897 117.651 137.136 117.665 136.097V134.025ZM126.791 135.755C126.791 137.236 126.538 138.337 126.032 139.057C125.526 139.777 124.736 140.137 123.66 140.137C122.598 140.137 121.812 139.786 121.302 139.084C120.791 138.378 120.527 137.325 120.509 135.926V134.237C120.509 132.774 120.762 131.688 121.268 130.977C121.773 130.266 122.566 129.91 123.646 129.91C124.717 129.91 125.506 130.254 126.012 130.942C126.518 131.626 126.777 132.683 126.791 134.114V135.755ZM125.526 134.025C125.526 132.954 125.376 132.175 125.075 131.688C124.774 131.195 124.298 130.949 123.646 130.949C122.999 130.949 122.528 131.193 122.231 131.681C121.935 132.168 121.783 132.918 121.773 133.93V135.953C121.773 137.029 121.928 137.824 122.238 138.339C122.553 138.849 123.027 139.104 123.66 139.104C124.285 139.104 124.747 138.863 125.048 138.38C125.353 137.897 125.513 137.136 125.526 136.097V134.025ZM134.789 136.384C134.789 137.509 134.532 138.416 134.017 139.104C133.502 139.793 132.804 140.137 131.925 140.137C131.027 140.137 130.321 139.852 129.806 139.282V142.844H128.541V132.604H129.696L129.758 133.424C130.273 132.786 130.988 132.467 131.904 132.467C132.793 132.467 133.495 132.802 134.01 133.472C134.529 134.142 134.789 135.074 134.789 136.268V136.384ZM133.524 136.24C133.524 135.406 133.347 134.748 132.991 134.265C132.636 133.782 132.148 133.54 131.528 133.54C130.763 133.54 130.188 133.88 129.806 134.559V138.093C130.184 138.767 130.763 139.104 131.542 139.104C132.148 139.104 132.629 138.865 132.984 138.387C133.344 137.904 133.524 137.188 133.524 136.24ZM138.774 135.304L140.415 132.604H141.892L139.472 136.261L141.967 140H140.504L138.795 137.231L137.086 140H135.616L138.111 136.261L135.691 132.604H137.154L138.774 135.304Z" fill="#00A3FF"/>
<path d="M26.4023 6.86133L28.7881 3.04688H30.333L27.1885 7.98242L30.4082 13H28.8496L26.4023 9.11719L23.9414 13H22.3896L25.6162 7.98242L22.4648 3.04688H24.0029L26.4023 6.86133ZM35.7607 13H34.4893V4.57129L31.9395 5.50781V4.35938L35.5625 2.99902H35.7607V13Z" fill="black"/>
<path d="M4.19043 27.0439L6.78809 22.0469H8.27832L4.84668 28.2881V32H3.53418V28.2881L0.102539 22.0469H1.60645L4.19043 27.0439ZM13.3916 32H12.1201V23.5713L9.57031 24.5078V23.3594L13.1934 21.999H13.3916V32Z" fill="black"/>
<path d="M4.19043 117.044L6.78809 112.047H8.27832L4.84668 118.288V122H3.53418V118.288L0.102539 112.047H1.60645L4.19043 117.044ZM15.7568 122H9.23535V121.091L12.6807 117.263C13.1911 116.684 13.542 116.215 13.7334 115.854C13.9294 115.49 14.0273 115.114 14.0273 114.727C14.0273 114.207 13.8701 113.781 13.5557 113.448C13.2412 113.116 12.8219 112.949 12.2979 112.949C11.6689 112.949 11.179 113.129 10.8281 113.489C10.4818 113.845 10.3086 114.341 10.3086 114.979H9.04395C9.04395 114.063 9.33789 113.323 9.92578 112.758C10.5182 112.193 11.3089 111.91 12.2979 111.91C13.223 111.91 13.9544 112.154 14.4922 112.642C15.0299 113.125 15.2988 113.77 15.2988 114.576C15.2988 115.556 14.6745 116.723 13.4258 118.076L10.7598 120.968H15.7568V122Z" fill="black"/>
<path opacity="0.5" d="M24.1904 156.044L26.7881 151.047H28.2783L24.8467 157.288V161H23.5342V157.288L20.1025 151.047H21.6064L24.1904 156.044Z" fill="#FF0000"/>
<path d="M119.402 6.86133L121.788 3.04688H123.333L120.188 7.98242L123.408 13H121.85L119.402 9.11719L116.941 13H115.39L118.616 7.98242L115.465 3.04688H117.003L119.402 6.86133ZM131.126 13H124.604V12.0908L128.05 8.2627C128.56 7.68392 128.911 7.21452 129.103 6.85449C129.299 6.48991 129.396 6.11393 129.396 5.72656C129.396 5.20703 129.239 4.78092 128.925 4.44824C128.61 4.11556 128.191 3.94922 127.667 3.94922C127.038 3.94922 126.548 4.12923 126.197 4.48926C125.851 4.84473 125.678 5.34147 125.678 5.97949H124.413C124.413 5.06348 124.707 4.32292 125.295 3.75781C125.887 3.19271 126.678 2.91016 127.667 2.91016C128.592 2.91016 129.324 3.15397 129.861 3.6416C130.399 4.12467 130.668 4.76953 130.668 5.57617C130.668 6.55599 130.044 7.72266 128.795 9.07617L126.129 11.9678H131.126V13Z" fill="black"/>
<path d="M212.402 6.86133L214.788 3.04688H216.333L213.188 7.98242L216.408 13H214.85L212.402 9.11719L209.941 13H208.39L211.616 7.98242L208.465 3.04688H210.003L212.402 6.86133ZM219.443 7.4082H220.394C220.991 7.39909 221.46 7.24186 221.802 6.93652C222.144 6.63118 222.314 6.21875 222.314 5.69922C222.314 4.53255 221.733 3.94922 220.571 3.94922C220.024 3.94922 219.587 4.10645 219.259 4.4209C218.935 4.73079 218.773 5.14323 218.773 5.6582H217.509C217.509 4.86979 217.796 4.21582 218.37 3.69629C218.949 3.1722 219.683 2.91016 220.571 2.91016C221.51 2.91016 222.246 3.15853 222.779 3.65527C223.312 4.15202 223.579 4.84245 223.579 5.72656C223.579 6.15951 223.438 6.57878 223.155 6.98438C222.877 7.38997 222.497 7.69303 222.014 7.89355C222.561 8.06673 222.982 8.35384 223.278 8.75488C223.579 9.15592 223.729 9.64583 223.729 10.2246C223.729 11.1178 223.438 11.8265 222.854 12.3506C222.271 12.8747 221.512 13.1367 220.578 13.1367C219.644 13.1367 218.883 12.8838 218.295 12.3779C217.712 11.8721 217.42 11.2044 217.42 10.375H218.691C218.691 10.8991 218.862 11.3184 219.204 11.6328C219.546 11.9473 220.004 12.1045 220.578 12.1045C221.189 12.1045 221.656 11.945 221.979 11.626C222.303 11.307 222.465 10.849 222.465 10.252C222.465 9.67318 222.287 9.22884 221.932 8.91895C221.576 8.60905 221.063 8.44954 220.394 8.44043H219.443V7.4082Z" fill="black"/>
<path opacity="0.5" d="M252.402 21.8613L254.788 18.0469H256.333L253.188 22.9824L256.408 28H254.85L252.402 24.1172L249.941 28H248.39L251.616 22.9824L248.465 18.0469H250.003L252.402 21.8613Z" fill="#FF0000"/>
<path d="M228.408 72.0098L228.914 67.0469H234.014V68.2158H229.987L229.687 70.9297C230.174 70.6426 230.728 70.499 231.348 70.499C232.255 70.499 232.975 70.7998 233.508 71.4014C234.041 71.9984 234.308 72.8073 234.308 73.8281C234.308 74.8535 234.03 75.6624 233.474 76.2549C232.922 76.8428 232.15 77.1367 231.156 77.1367C230.277 77.1367 229.559 76.8929 229.003 76.4053C228.447 75.9176 228.13 75.2432 228.053 74.3818H229.249C229.326 74.9515 229.529 75.3822 229.857 75.6738C230.186 75.9609 230.618 76.1045 231.156 76.1045C231.744 76.1045 232.204 75.904 232.537 75.5029C232.874 75.1019 233.043 74.5482 233.043 73.8418C233.043 73.1764 232.861 72.6432 232.496 72.2422C232.136 71.8366 231.655 71.6338 231.054 71.6338C230.502 71.6338 230.069 71.7546 229.755 71.9961L229.42 72.2695L228.408 72.0098ZM241.93 72.7549C241.93 74.236 241.677 75.3366 241.171 76.0566C240.665 76.7767 239.874 77.1367 238.799 77.1367C237.737 77.1367 236.951 76.7858 236.44 76.084C235.93 75.3776 235.666 74.3249 235.647 72.9258V71.2373C235.647 69.7744 235.9 68.6875 236.406 67.9766C236.912 67.2656 237.705 66.9102 238.785 66.9102C239.856 66.9102 240.645 67.2542 241.15 67.9424C241.656 68.626 241.916 69.6833 241.93 71.1143V72.7549ZM240.665 71.0254C240.665 69.9544 240.515 69.1751 240.214 68.6875C239.913 68.1953 239.437 67.9492 238.785 67.9492C238.138 67.9492 237.666 68.193 237.37 68.6807C237.074 69.1683 236.921 69.918 236.912 70.9297V72.9531C236.912 74.0286 237.067 74.8239 237.377 75.3389C237.691 75.8493 238.165 76.1045 238.799 76.1045C239.423 76.1045 239.886 75.863 240.187 75.3799C240.492 74.8968 240.651 74.1357 240.665 73.0967V71.0254ZM249.928 73.3838C249.928 74.5094 249.67 75.4163 249.155 76.1045C248.64 76.7926 247.943 77.1367 247.063 77.1367C246.166 77.1367 245.459 76.8519 244.944 76.2822V79.8438H243.68V69.6035H244.835L244.896 70.4238C245.411 69.7858 246.127 69.4668 247.043 69.4668C247.932 69.4668 248.633 69.8018 249.148 70.4717C249.668 71.1416 249.928 72.0736 249.928 73.2676V73.3838ZM248.663 73.2402C248.663 72.4062 248.485 71.7477 248.13 71.2646C247.774 70.7816 247.287 70.54 246.667 70.54C245.901 70.54 245.327 70.8796 244.944 71.5586V75.0928C245.323 75.7673 245.901 76.1045 246.681 76.1045C247.287 76.1045 247.768 75.8652 248.123 75.3867C248.483 74.9036 248.663 74.1882 248.663 73.2402ZM253.913 72.3037L255.554 69.6035H257.03L254.61 73.2607L257.105 77H255.643L253.934 74.2314L252.225 77H250.755L253.25 73.2607L250.83 69.6035H252.293L253.913 72.3037Z" fill="#00A3FF"/>
</svg>
