<svg width="915" height="193" viewBox="0 0 915 193" fill="none" xmlns="http://www.w3.org/2000/svg">
<rect width="915" height="193" fill="#222222"/>
<path d="M45.3359 105.164L43.207 107.312L30.082 96.3555L43.207 85.3984L45.3359 87.5664L34.6914 96.3164L45.3359 105.164ZM51.0273 97.6055C51.0273 95.9388 51.2552 94.4609 51.7109 93.1719C52.1667 91.8698 52.8112 90.776 53.6445 89.8906C54.4909 88.9922 55.5 88.3151 56.6719 87.8594C57.8568 87.3906 59.1719 87.1562 60.6172 87.1562C61.2422 87.1562 61.8542 87.1953 62.4531 87.2734C63.0651 87.3516 63.6641 87.4753 64.25 87.6445V79.4023H67.668V107H64.6211L64.5039 103.289C63.5534 104.669 62.5247 105.691 61.418 106.355C60.3112 107.02 59.1133 107.352 57.8242 107.352C56.7044 107.352 55.7148 107.117 54.8555 106.648C54.0091 106.18 53.2995 105.522 52.7266 104.676C52.1667 103.816 51.7435 102.788 51.457 101.59C51.1706 100.392 51.0273 99.0638 51.0273 97.6055ZM54.5039 97.3906C54.5039 99.7604 54.849 101.531 55.5391 102.703C56.2422 103.862 57.2318 104.441 58.5078 104.441C59.3672 104.441 60.2721 104.057 61.2227 103.289C62.1862 102.521 63.1953 101.382 64.25 99.8711V90.7695C63.6901 90.5091 63.0716 90.3138 62.3945 90.1836C61.7174 90.0404 61.0469 89.9688 60.3828 89.9688C58.5339 89.9688 57.0885 90.5677 56.0469 91.7656C55.0182 92.9635 54.5039 94.8385 54.5039 97.3906ZM80.1953 90.2031H74.3945V87.3906H83.6328V104.168H89.4727V107H73.75V104.168H80.1953V90.2031ZM81.3867 79.168C81.7643 79.168 82.1159 79.2396 82.4414 79.3828C82.7669 79.513 83.0469 79.7018 83.2812 79.9492C83.5286 80.1966 83.7174 80.4831 83.8477 80.8086C83.9909 81.1211 84.0625 81.4661 84.0625 81.8438C84.0625 82.2083 83.9909 82.5534 83.8477 82.8789C83.7174 83.2044 83.5286 83.4909 83.2812 83.7383C83.0469 83.9857 82.7669 84.181 82.4414 84.3242C82.1159 84.4544 81.7643 84.5195 81.3867 84.5195C81.0091 84.5195 80.6576 84.4544 80.332 84.3242C80.0065 84.181 79.7201 83.9857 79.4727 83.7383C79.2383 83.4909 79.0495 83.2044 78.9062 82.8789C78.776 82.5534 78.7109 82.2083 78.7109 81.8438C78.7109 81.4661 78.776 81.1211 78.9062 80.8086C79.0495 80.4831 79.2383 80.1966 79.4727 79.9492C79.7201 79.7018 80.0065 79.513 80.332 79.3828C80.6576 79.2396 81.0091 79.168 81.3867 79.168ZM93.1719 87.3906H97.0391L101.844 100.359L102.879 103.523L103.953 100.281L108.719 87.3906H112.449L104.754 107H100.848L93.1719 87.3906ZM396.855 87.5664L398.965 85.3984L412.09 96.3555L398.965 107.312L396.855 105.164L407.5 96.3945L396.855 87.5664ZM776.07 105.164L773.941 107.312L760.816 96.3555L773.941 85.3984L776.07 87.5664L765.426 96.3164L776.07 105.164ZM798.52 79.4023L785.121 111.199H781.879L795.277 79.4023H798.52ZM803.254 97.6055C803.254 95.9388 803.482 94.4609 803.938 93.1719C804.393 91.8698 805.038 90.776 805.871 89.8906C806.717 88.9922 807.727 88.3151 808.898 87.8594C810.083 87.3906 811.398 87.1562 812.844 87.1562C813.469 87.1562 814.081 87.1953 814.68 87.2734C815.292 87.3516 815.891 87.4753 816.477 87.6445V79.4023H819.895V107H816.848L816.73 103.289C815.78 104.669 814.751 105.691 813.645 106.355C812.538 107.02 811.34 107.352 810.051 107.352C808.931 107.352 807.941 107.117 807.082 106.648C806.236 106.18 805.526 105.522 804.953 104.676C804.393 103.816 803.97 102.788 803.684 101.59C803.397 100.392 803.254 99.0638 803.254 97.6055ZM806.73 97.3906C806.73 99.7604 807.076 101.531 807.766 102.703C808.469 103.862 809.458 104.441 810.734 104.441C811.594 104.441 812.499 104.057 813.449 103.289C814.413 102.521 815.422 101.382 816.477 99.8711V90.7695C815.917 90.5091 815.298 90.3138 814.621 90.1836C813.944 90.0404 813.273 89.9688 812.609 89.9688C810.76 89.9688 809.315 90.5677 808.273 91.7656C807.245 92.9635 806.73 94.8385 806.73 97.3906ZM832.422 90.2031H826.621V87.3906H835.859V104.168H841.699V107H825.977V104.168H832.422V90.2031ZM833.613 79.168C833.991 79.168 834.342 79.2396 834.668 79.3828C834.993 79.513 835.273 79.7018 835.508 79.9492C835.755 80.1966 835.944 80.4831 836.074 80.8086C836.217 81.1211 836.289 81.4661 836.289 81.8438C836.289 82.2083 836.217 82.5534 836.074 82.8789C835.944 83.2044 835.755 83.4909 835.508 83.7383C835.273 83.9857 834.993 84.181 834.668 84.3242C834.342 84.4544 833.991 84.5195 833.613 84.5195C833.236 84.5195 832.884 84.4544 832.559 84.3242C832.233 84.181 831.947 83.9857 831.699 83.7383C831.465 83.4909 831.276 83.2044 831.133 82.8789C831.003 82.5534 830.938 82.2083 830.938 81.8438C830.938 81.4661 831.003 81.1211 831.133 80.8086C831.276 80.4831 831.465 80.1966 831.699 79.9492C831.947 79.7018 832.233 79.513 832.559 79.3828C832.884 79.2396 833.236 79.168 833.613 79.168ZM845.398 87.3906H849.266L854.07 100.359L855.105 103.523L856.18 100.281L860.945 87.3906H864.676L856.98 107H853.074L845.398 87.3906ZM869.684 87.5664L871.793 85.3984L884.918 96.3555L871.793 107.312L869.684 105.164L880.328 96.3945L869.684 87.5664Z" fill="#E8BF6A"/>
<path d="M153.227 106.277C152.341 106.616 151.43 106.863 150.492 107.02C149.568 107.189 148.611 107.273 147.621 107.273C144.522 107.273 142.133 106.434 140.453 104.754C138.786 103.074 137.953 100.62 137.953 97.3906C137.953 95.8411 138.194 94.4349 138.676 93.1719C139.158 91.9089 139.835 90.8281 140.707 89.9297C141.579 89.0312 142.621 88.3411 143.832 87.8594C145.043 87.3646 146.378 87.1172 147.836 87.1172C148.852 87.1172 149.802 87.1888 150.688 87.332C151.573 87.4753 152.419 87.7096 153.227 88.0352V91.2773C152.38 90.8346 151.514 90.5156 150.629 90.3203C149.757 90.112 148.852 90.0078 147.914 90.0078C147.042 90.0078 146.215 90.1771 145.434 90.5156C144.665 90.8411 143.988 91.3164 143.402 91.9414C142.816 92.5664 142.354 93.3281 142.016 94.2266C141.677 95.125 141.508 96.1406 141.508 97.2734C141.508 99.6432 142.081 101.421 143.227 102.605C144.385 103.777 145.987 104.363 148.031 104.363C148.956 104.363 149.848 104.259 150.707 104.051C151.579 103.842 152.419 103.53 153.227 103.113V106.277ZM166.164 82.1953H160.363V79.4023H169.602V104.168H175.441V107H159.719V104.168H166.164V82.1953ZM193.574 107L193.496 104.363C192.428 105.418 191.341 106.18 190.234 106.648C189.141 107.117 187.988 107.352 186.777 107.352C185.658 107.352 184.701 107.208 183.906 106.922C183.112 106.635 182.454 106.245 181.934 105.75C181.426 105.242 181.048 104.65 180.801 103.973C180.566 103.296 180.449 102.56 180.449 101.766C180.449 99.7995 181.178 98.263 182.637 97.1562C184.108 96.0365 186.276 95.4766 189.141 95.4766H193.203V93.7578C193.203 92.599 192.832 91.6745 192.09 90.9844C191.348 90.2812 190.215 89.9297 188.691 89.9297C187.585 89.9297 186.491 90.0534 185.41 90.3008C184.342 90.5482 183.236 90.8997 182.09 91.3555V88.2891C182.52 88.1328 182.995 87.9831 183.516 87.8398C184.049 87.6836 184.609 87.5469 185.195 87.4297C185.781 87.3125 186.393 87.2214 187.031 87.1562C187.669 87.0781 188.314 87.0391 188.965 87.0391C190.15 87.0391 191.217 87.1693 192.168 87.4297C193.118 87.6901 193.919 88.0872 194.57 88.6211C195.234 89.1549 195.742 89.8255 196.094 90.6328C196.445 91.4401 196.621 92.3906 196.621 93.4844V107H193.574ZM193.203 98.0742H188.887C188.04 98.0742 187.311 98.1589 186.699 98.3281C186.087 98.4974 185.586 98.7383 185.195 99.0508C184.805 99.3633 184.512 99.7409 184.316 100.184C184.134 100.613 184.043 101.102 184.043 101.648C184.043 102.026 184.102 102.391 184.219 102.742C184.336 103.081 184.525 103.387 184.785 103.66C185.046 103.921 185.384 104.129 185.801 104.285C186.217 104.441 186.725 104.52 187.324 104.52C188.105 104.52 188.997 104.285 190 103.816C191.016 103.335 192.083 102.579 193.203 101.551V98.0742ZM217.996 101.648C217.996 102.339 217.879 102.957 217.645 103.504C217.41 104.051 217.091 104.539 216.688 104.969C216.284 105.385 215.815 105.743 215.281 106.043C214.747 106.342 214.174 106.59 213.562 106.785C212.964 106.98 212.345 107.124 211.707 107.215C211.069 107.306 210.444 107.352 209.832 107.352C208.504 107.352 207.28 107.293 206.16 107.176C205.053 107.059 203.966 106.87 202.898 106.609V103.484C204.044 103.81 205.184 104.057 206.316 104.227C207.449 104.396 208.576 104.48 209.695 104.48C211.323 104.48 212.527 104.259 213.309 103.816C214.09 103.374 214.48 102.742 214.48 101.922C214.48 101.57 214.415 101.258 214.285 100.984C214.168 100.698 213.947 100.431 213.621 100.184C213.296 99.9232 212.788 99.6562 212.098 99.3828C211.421 99.1094 210.49 98.7969 209.305 98.4453C208.419 98.1849 207.599 97.8919 206.844 97.5664C206.102 97.2279 205.457 96.8307 204.91 96.375C204.363 95.9193 203.934 95.3854 203.621 94.7734C203.309 94.1615 203.152 93.4388 203.152 92.6055C203.152 92.0586 203.276 91.4596 203.523 90.8086C203.784 90.1576 204.22 89.5521 204.832 88.9922C205.444 88.4323 206.271 87.9701 207.312 87.6055C208.354 87.2279 209.656 87.0391 211.219 87.0391C211.987 87.0391 212.84 87.0846 213.777 87.1758C214.715 87.2539 215.691 87.3971 216.707 87.6055V90.6328C215.639 90.3724 214.624 90.1836 213.66 90.0664C212.71 89.9362 211.883 89.8711 211.18 89.8711C210.333 89.8711 209.617 89.9362 209.031 90.0664C208.458 90.1966 207.99 90.3789 207.625 90.6133C207.273 90.8346 207.02 91.1016 206.863 91.4141C206.707 91.7135 206.629 92.0391 206.629 92.3906C206.629 92.7422 206.694 93.0612 206.824 93.3477C206.967 93.6341 207.221 93.9141 207.586 94.1875C207.964 94.4479 208.484 94.7148 209.148 94.9883C209.812 95.2487 210.678 95.5352 211.746 95.8477C212.905 96.1862 213.882 96.5443 214.676 96.9219C215.47 97.2865 216.115 97.6966 216.609 98.1523C217.104 98.6081 217.456 99.1224 217.664 99.6953C217.885 100.268 217.996 100.919 217.996 101.648ZM239.488 101.648C239.488 102.339 239.371 102.957 239.137 103.504C238.902 104.051 238.583 104.539 238.18 104.969C237.776 105.385 237.307 105.743 236.773 106.043C236.24 106.342 235.667 106.59 235.055 106.785C234.456 106.98 233.837 107.124 233.199 107.215C232.561 107.306 231.936 107.352 231.324 107.352C229.996 107.352 228.772 107.293 227.652 107.176C226.546 107.059 225.458 106.87 224.391 106.609V103.484C225.536 103.81 226.676 104.057 227.809 104.227C228.941 104.396 230.068 104.48 231.188 104.48C232.815 104.48 234.02 104.259 234.801 103.816C235.582 103.374 235.973 102.742 235.973 101.922C235.973 101.57 235.908 101.258 235.777 100.984C235.66 100.698 235.439 100.431 235.113 100.184C234.788 99.9232 234.28 99.6562 233.59 99.3828C232.913 99.1094 231.982 98.7969 230.797 98.4453C229.911 98.1849 229.091 97.8919 228.336 97.5664C227.594 97.2279 226.949 96.8307 226.402 96.375C225.855 95.9193 225.426 95.3854 225.113 94.7734C224.801 94.1615 224.645 93.4388 224.645 92.6055C224.645 92.0586 224.768 91.4596 225.016 90.8086C225.276 90.1576 225.712 89.5521 226.324 88.9922C226.936 88.4323 227.763 87.9701 228.805 87.6055C229.846 87.2279 231.148 87.0391 232.711 87.0391C233.479 87.0391 234.332 87.0846 235.27 87.1758C236.207 87.2539 237.184 87.3971 238.199 87.6055V90.6328C237.132 90.3724 236.116 90.1836 235.152 90.0664C234.202 89.9362 233.375 89.8711 232.672 89.8711C231.826 89.8711 231.109 89.9362 230.523 90.0664C229.951 90.1966 229.482 90.3789 229.117 90.6133C228.766 90.8346 228.512 91.1016 228.355 91.4141C228.199 91.7135 228.121 92.0391 228.121 92.3906C228.121 92.7422 228.186 93.0612 228.316 93.3477C228.46 93.6341 228.714 93.9141 229.078 94.1875C229.456 94.4479 229.977 94.7148 230.641 94.9883C231.305 95.2487 232.171 95.5352 233.238 95.8477C234.397 96.1862 235.374 96.5443 236.168 96.9219C236.962 97.2865 237.607 97.6966 238.102 98.1523C238.596 98.6081 238.948 99.1224 239.156 99.6953C239.378 100.268 239.488 100.919 239.488 101.648Z" fill="#BABABA"/>
<path d="M261.723 94.3828H244.926V91.5117H261.723V94.3828ZM261.723 101.18H244.926V98.3086H261.723V101.18ZM273.176 79.4023L272.629 88.5625H269.426L268.859 79.4023H273.176ZM280.773 79.4023L280.227 88.5625H277.023L276.457 79.4023H280.773ZM304.199 107H301.152L301.035 103.836C300.449 104.513 299.889 105.079 299.355 105.535C298.835 105.978 298.314 106.336 297.793 106.609C297.272 106.883 296.745 107.072 296.211 107.176C295.69 107.293 295.137 107.352 294.551 107.352C292.533 107.352 291.009 106.759 289.98 105.574C288.952 104.389 288.438 102.599 288.438 100.203V87.3906H291.836V99.9297C291.836 102.938 292.969 104.441 295.234 104.441C295.651 104.441 296.055 104.383 296.445 104.266C296.849 104.135 297.266 103.921 297.695 103.621C298.138 103.309 298.607 102.892 299.102 102.371C299.609 101.85 300.176 101.193 300.801 100.398V87.3906H304.199V107ZM327.605 107H323.094L317.801 99.5195L312.566 107H308.172L315.77 97.1562L308.523 87.3906H312.879L318.035 94.9297L323.094 87.3906H327.293L319.93 97.2344L327.605 107ZM349.059 107H344.391L335.25 96.4922V107H331.852V79.4023H335.25V96.3555L344.059 87.3906H348.551L339.352 96.4336L349.059 107ZM366.898 107V92.918C366.898 92.306 366.872 91.8047 366.82 91.4141C366.781 91.0234 366.71 90.7174 366.605 90.4961C366.514 90.2617 366.391 90.099 366.234 90.0078C366.091 89.9167 365.909 89.8711 365.688 89.8711C365.427 89.8711 365.186 89.9492 364.965 90.1055C364.743 90.2617 364.503 90.5156 364.242 90.8672C363.995 91.2188 363.715 91.6875 363.402 92.2734C363.103 92.8464 362.745 93.556 362.328 94.4023V107H359.223V93.2891C359.223 92.5729 359.197 91.9935 359.145 91.5508C359.105 91.1081 359.034 90.763 358.93 90.5156C358.839 90.2682 358.715 90.099 358.559 90.0078C358.402 89.9167 358.214 89.8711 357.992 89.8711C357.758 89.8711 357.536 89.9362 357.328 90.0664C357.12 90.1966 356.885 90.431 356.625 90.7695C356.378 91.1081 356.098 91.5703 355.785 92.1562C355.473 92.7422 355.102 93.4909 354.672 94.4023V107H351.547V87.3906H354.145L354.301 91.1211C354.639 90.3789 354.965 89.7474 355.277 89.2266C355.603 88.7057 355.935 88.2891 356.273 87.9766C356.612 87.651 356.97 87.4167 357.348 87.2734C357.738 87.1172 358.168 87.0391 358.637 87.0391C359.691 87.0391 360.492 87.3841 361.039 88.0742C361.586 88.7643 361.859 89.832 361.859 91.2773C362.172 90.6003 362.478 90.0013 362.777 89.4805C363.077 88.9466 363.396 88.5039 363.734 88.1523C364.086 87.7878 364.47 87.5143 364.887 87.332C365.303 87.1367 365.785 87.0391 366.332 87.0391C368.793 87.0391 370.023 88.9336 370.023 92.7227V107H366.898ZM380.637 79.4023L380.09 88.5625H376.887L376.32 79.4023H380.637ZM388.234 79.4023L387.688 88.5625H384.484L383.918 79.4023H388.234Z" fill="#A5C261"/>
<path d="M454.645 107H451.598L451.48 103.836C450.895 104.513 450.335 105.079 449.801 105.535C449.28 105.978 448.759 106.336 448.238 106.609C447.717 106.883 447.19 107.072 446.656 107.176C446.135 107.293 445.582 107.352 444.996 107.352C442.978 107.352 441.454 106.759 440.426 105.574C439.397 104.389 438.883 102.599 438.883 100.203V87.3906H442.281V99.9297C442.281 102.938 443.414 104.441 445.68 104.441C446.096 104.441 446.5 104.383 446.891 104.266C447.294 104.135 447.711 103.921 448.141 103.621C448.583 103.309 449.052 102.892 449.547 102.371C450.055 101.85 450.621 101.193 451.246 100.398V87.3906H454.645V107ZM478.051 107H473.539L468.246 99.5195L463.012 107H458.617L466.215 97.1562L458.969 87.3906H463.324L468.48 94.9297L473.539 87.3906H477.738L470.375 97.2344L478.051 107ZM499.504 107H494.836L485.695 96.4922V107H482.297V79.4023H485.695V96.3555L494.504 87.3906H498.996L489.797 96.4336L499.504 107ZM517.344 107V92.918C517.344 92.306 517.318 91.8047 517.266 91.4141C517.227 91.0234 517.155 90.7174 517.051 90.4961C516.96 90.2617 516.836 90.099 516.68 90.0078C516.536 89.9167 516.354 89.8711 516.133 89.8711C515.872 89.8711 515.632 89.9492 515.41 90.1055C515.189 90.2617 514.948 90.5156 514.688 90.8672C514.44 91.2188 514.16 91.6875 513.848 92.2734C513.548 92.8464 513.19 93.556 512.773 94.4023V107H509.668V93.2891C509.668 92.5729 509.642 91.9935 509.59 91.5508C509.551 91.1081 509.479 90.763 509.375 90.5156C509.284 90.2682 509.16 90.099 509.004 90.0078C508.848 89.9167 508.659 89.8711 508.438 89.8711C508.203 89.8711 507.982 89.9362 507.773 90.0664C507.565 90.1966 507.331 90.431 507.07 90.7695C506.823 91.1081 506.543 91.5703 506.23 92.1562C505.918 92.7422 505.547 93.4909 505.117 94.4023V107H501.992V87.3906H504.59L504.746 91.1211C505.085 90.3789 505.41 89.7474 505.723 89.2266C506.048 88.7057 506.38 88.2891 506.719 87.9766C507.057 87.651 507.415 87.4167 507.793 87.2734C508.184 87.1172 508.613 87.0391 509.082 87.0391C510.137 87.0391 510.938 87.3841 511.484 88.0742C512.031 88.7643 512.305 89.832 512.305 91.2773C512.617 90.6003 512.923 90.0013 513.223 89.4805C513.522 88.9466 513.841 88.5039 514.18 88.1523C514.531 87.7878 514.915 87.5143 515.332 87.332C515.749 87.1367 516.23 87.0391 516.777 87.0391C519.238 87.0391 520.469 88.9336 520.469 92.7227V107H517.344ZM532.566 100.848C533.009 100.848 533.426 100.932 533.816 101.102C534.22 101.271 534.565 101.505 534.852 101.805C535.151 102.104 535.385 102.456 535.555 102.859C535.724 103.25 535.809 103.673 535.809 104.129C535.809 104.572 535.724 104.988 535.555 105.379C535.385 105.77 535.151 106.115 534.852 106.414C534.565 106.701 534.22 106.928 533.816 107.098C533.426 107.267 533.009 107.352 532.566 107.352C532.111 107.352 531.688 107.267 531.297 107.098C530.906 106.928 530.561 106.701 530.262 106.414C529.975 106.115 529.747 105.77 529.578 105.379C529.409 104.988 529.324 104.572 529.324 104.129C529.324 103.673 529.409 103.25 529.578 102.859C529.747 102.456 529.975 102.104 530.262 101.805C530.561 101.505 530.906 101.271 531.297 101.102C531.688 100.932 532.111 100.848 532.566 100.848ZM560.465 90.1641C560.829 90.6198 561.109 91.1536 561.305 91.7656C561.513 92.3646 561.617 93.0156 561.617 93.7188C561.617 94.7344 561.428 95.6654 561.051 96.5117C560.686 97.3451 560.165 98.0612 559.488 98.6602C558.811 99.2591 557.997 99.7279 557.047 100.066C556.109 100.392 555.074 100.555 553.941 100.555C553.121 100.555 552.353 100.47 551.637 100.301C550.921 100.118 550.354 99.8971 549.938 99.6367C549.69 100.001 549.482 100.346 549.312 100.672C549.143 100.997 549.059 101.362 549.059 101.766C549.059 102.26 549.293 102.671 549.762 102.996C550.243 103.322 550.875 103.497 551.656 103.523L556.812 103.719C557.789 103.745 558.688 103.868 559.508 104.09C560.341 104.311 561.051 104.63 561.637 105.047C562.236 105.464 562.698 105.978 563.023 106.59C563.362 107.202 563.531 107.911 563.531 108.719C563.531 109.591 563.342 110.418 562.965 111.199C562.587 111.98 562.001 112.664 561.207 113.25C560.426 113.849 559.43 114.324 558.219 114.676C557.008 115.027 555.569 115.203 553.902 115.203C552.314 115.203 550.96 115.073 549.84 114.812C548.733 114.565 547.822 114.214 547.105 113.758C546.389 113.315 545.868 112.781 545.543 112.156C545.217 111.544 545.055 110.867 545.055 110.125C545.055 109.174 545.276 108.341 545.719 107.625C546.161 106.909 546.845 106.219 547.77 105.555C547.431 105.398 547.138 105.203 546.891 104.969C546.643 104.734 546.441 104.48 546.285 104.207C546.129 103.921 546.012 103.621 545.934 103.309C545.855 102.996 545.816 102.69 545.816 102.391C545.816 101.544 546.012 100.77 546.402 100.066C546.806 99.3633 547.281 98.6992 547.828 98.0742C547.581 97.7747 547.359 97.4818 547.164 97.1953C546.982 96.9089 546.819 96.6029 546.676 96.2773C546.546 95.9388 546.441 95.5807 546.363 95.2031C546.298 94.8125 546.266 94.3698 546.266 93.875C546.266 92.8594 546.448 91.9349 546.812 91.1016C547.19 90.2552 547.711 89.5326 548.375 88.9336C549.052 88.3346 549.859 87.8724 550.797 87.5469C551.747 87.2083 552.796 87.0391 553.941 87.0391C554.423 87.0391 554.885 87.0716 555.328 87.1367C555.771 87.2018 556.161 87.2865 556.5 87.3906H563.609V90.1641H560.465ZM548.668 109.832C548.668 110.757 549.15 111.427 550.113 111.844C551.077 112.273 552.418 112.488 554.137 112.488C555.217 112.488 556.122 112.391 556.852 112.195C557.594 112 558.186 111.74 558.629 111.414C559.085 111.102 559.41 110.737 559.605 110.32C559.801 109.917 559.898 109.5 559.898 109.07C559.898 108.276 559.573 107.69 558.922 107.312C558.271 106.935 557.275 106.714 555.934 106.648L550.816 106.473C550.387 106.759 550.029 107.039 549.742 107.312C549.469 107.586 549.254 107.859 549.098 108.133C548.941 108.419 548.831 108.699 548.766 108.973C548.701 109.259 548.668 109.546 548.668 109.832ZM549.703 93.7969C549.703 94.4219 549.807 94.9948 550.016 95.5156C550.224 96.0365 550.517 96.4792 550.895 96.8438C551.272 97.2083 551.715 97.4948 552.223 97.7031C552.743 97.8984 553.316 97.9961 553.941 97.9961C554.618 97.9961 555.217 97.8854 555.738 97.6641C556.272 97.4297 556.715 97.1172 557.066 96.7266C557.431 96.3359 557.704 95.8867 557.887 95.3789C558.082 94.8711 558.18 94.3438 558.18 93.7969C558.18 93.1719 558.076 92.599 557.867 92.0781C557.659 91.5573 557.366 91.1146 556.988 90.75C556.611 90.3854 556.161 90.1055 555.641 89.9102C555.133 89.7018 554.566 89.5977 553.941 89.5977C553.264 89.5977 552.659 89.7148 552.125 89.9492C551.604 90.1836 551.161 90.4961 550.797 90.8867C550.445 91.2643 550.172 91.707 549.977 92.2148C549.794 92.7227 549.703 93.25 549.703 93.7969ZM574.516 90.2031H568.715V87.3906H577.953V104.168H583.793V107H568.07V104.168H574.516V90.2031ZM575.707 79.168C576.085 79.168 576.436 79.2396 576.762 79.3828C577.087 79.513 577.367 79.7018 577.602 79.9492C577.849 80.1966 578.038 80.4831 578.168 80.8086C578.311 81.1211 578.383 81.4661 578.383 81.8438C578.383 82.2083 578.311 82.5534 578.168 82.8789C578.038 83.2044 577.849 83.4909 577.602 83.7383C577.367 83.9857 577.087 84.181 576.762 84.3242C576.436 84.4544 576.085 84.5195 575.707 84.5195C575.329 84.5195 574.978 84.4544 574.652 84.3242C574.327 84.181 574.04 83.9857 573.793 83.7383C573.559 83.4909 573.37 83.2044 573.227 82.8789C573.096 82.5534 573.031 82.2083 573.031 81.8438C573.031 81.4661 573.096 81.1211 573.227 80.8086C573.37 80.4831 573.559 80.1966 573.793 79.9492C574.04 79.7018 574.327 79.513 574.652 79.3828C574.978 79.2396 575.329 79.168 575.707 79.168ZM605.129 106.727C604.361 106.922 603.566 107.059 602.746 107.137C601.926 107.228 601.092 107.273 600.246 107.273C597.785 107.273 595.949 106.72 594.738 105.613C593.527 104.493 592.922 102.781 592.922 100.477V90.2422H587.434V87.3906H592.922V82L596.32 81.1211V87.3906H605.129V90.2422H596.32V100.203C596.32 101.609 596.691 102.664 597.434 103.367C598.189 104.057 599.296 104.402 600.754 104.402C601.379 104.402 602.062 104.357 602.805 104.266C603.547 104.161 604.322 104.005 605.129 103.797V106.727ZM626.582 107H623.184V94.4805C623.184 92.9701 622.897 91.8438 622.324 91.1016C621.764 90.3464 620.957 89.9688 619.902 89.9688C619.447 89.9688 619.017 90.0339 618.613 90.1641C618.223 90.2812 617.812 90.4961 617.383 90.8086C616.953 91.1081 616.484 91.5182 615.977 92.0391C615.469 92.5599 614.883 93.2109 614.219 93.9922V107H610.82V79.4023H614.219V87.3906L614.102 90.4766C614.635 89.8385 615.156 89.3047 615.664 88.875C616.185 88.4323 616.699 88.0742 617.207 87.8008C617.728 87.5273 618.255 87.332 618.789 87.2148C619.323 87.0977 619.876 87.0391 620.449 87.0391C622.402 87.0391 623.913 87.638 624.98 88.8359C626.048 90.0208 626.582 91.8112 626.582 94.207V107ZM648.074 107H645.027L644.91 103.836C644.324 104.513 643.764 105.079 643.23 105.535C642.71 105.978 642.189 106.336 641.668 106.609C641.147 106.883 640.62 107.072 640.086 107.176C639.565 107.293 639.012 107.352 638.426 107.352C636.408 107.352 634.884 106.759 633.855 105.574C632.827 104.389 632.312 102.599 632.312 100.203V87.3906H635.711V99.9297C635.711 102.938 636.844 104.441 639.109 104.441C639.526 104.441 639.93 104.383 640.32 104.266C640.724 104.135 641.141 103.921 641.57 103.621C642.013 103.309 642.482 102.892 642.977 102.371C643.484 101.85 644.051 101.193 644.676 100.398V87.3906H648.074V107ZM670.562 96.8438C670.562 98.4714 670.335 99.9297 669.879 101.219C669.436 102.495 668.798 103.582 667.965 104.48C667.145 105.366 666.142 106.049 664.957 106.531C663.772 107 662.438 107.234 660.953 107.234C659.794 107.234 658.609 107.124 657.398 106.902C656.188 106.681 654.99 106.329 653.805 105.848V79.4023H657.203V87L657.047 90.6328C658.023 89.3177 659.065 88.3932 660.172 87.8594C661.292 87.3125 662.49 87.0391 663.766 87.0391C664.885 87.0391 665.868 87.2734 666.715 87.7422C667.561 88.2109 668.271 88.875 668.844 89.7344C669.417 90.5807 669.846 91.6094 670.133 92.8203C670.419 94.0182 670.562 95.3594 670.562 96.8438ZM667.086 97C667.086 95.9714 667.008 95.0273 666.852 94.168C666.708 93.3086 666.474 92.5729 666.148 91.9609C665.823 91.349 665.406 90.8737 664.898 90.5352C664.391 90.1836 663.785 90.0078 663.082 90.0078C662.652 90.0078 662.216 90.0794 661.773 90.2227C661.331 90.3529 660.868 90.5807 660.387 90.9062C659.918 91.2188 659.417 91.6419 658.883 92.1758C658.362 92.6966 657.802 93.3477 657.203 94.1289V103.641C657.867 103.901 658.544 104.109 659.234 104.266C659.924 104.409 660.582 104.48 661.207 104.48C661.988 104.48 662.73 104.357 663.434 104.109C664.15 103.862 664.775 103.452 665.309 102.879C665.855 102.293 666.285 101.525 666.598 100.574C666.923 99.6107 667.086 98.4193 667.086 97ZM683.012 100.848C683.454 100.848 683.871 100.932 684.262 101.102C684.665 101.271 685.01 101.505 685.297 101.805C685.596 102.104 685.831 102.456 686 102.859C686.169 103.25 686.254 103.673 686.254 104.129C686.254 104.572 686.169 104.988 686 105.379C685.831 105.77 685.596 106.115 685.297 106.414C685.01 106.701 684.665 106.928 684.262 107.098C683.871 107.267 683.454 107.352 683.012 107.352C682.556 107.352 682.133 107.267 681.742 107.098C681.352 106.928 681.007 106.701 680.707 106.414C680.421 106.115 680.193 105.77 680.023 105.379C679.854 104.988 679.77 104.572 679.77 104.129C679.77 103.673 679.854 103.25 680.023 102.859C680.193 102.456 680.421 102.104 680.707 101.805C681.007 101.505 681.352 101.271 681.742 101.102C682.133 100.932 682.556 100.848 683.012 100.848ZM703.469 90.2031H697.668V87.3906H706.906V104.168H712.746V107H697.023V104.168H703.469V90.2031ZM704.66 79.168C705.038 79.168 705.389 79.2396 705.715 79.3828C706.04 79.513 706.32 79.7018 706.555 79.9492C706.802 80.1966 706.991 80.4831 707.121 80.8086C707.264 81.1211 707.336 81.4661 707.336 81.8438C707.336 82.2083 707.264 82.5534 707.121 82.8789C706.991 83.2044 706.802 83.4909 706.555 83.7383C706.32 83.9857 706.04 84.181 705.715 84.3242C705.389 84.4544 705.038 84.5195 704.66 84.5195C704.283 84.5195 703.931 84.4544 703.605 84.3242C703.28 84.181 702.993 83.9857 702.746 83.7383C702.512 83.4909 702.323 83.2044 702.18 82.8789C702.049 82.5534 701.984 82.2083 701.984 81.8438C701.984 81.4661 702.049 81.1211 702.18 80.8086C702.323 80.4831 702.512 80.1966 702.746 79.9492C702.993 79.7018 703.28 79.513 703.605 79.3828C703.931 79.2396 704.283 79.168 704.66 79.168ZM735.352 97.0391C735.352 98.5625 735.137 99.9622 734.707 101.238C734.277 102.501 733.659 103.589 732.852 104.5C732.044 105.398 731.061 106.102 729.902 106.609C728.743 107.104 727.428 107.352 725.957 107.352C724.551 107.352 723.288 107.137 722.168 106.707C721.061 106.264 720.117 105.62 719.336 104.773C718.568 103.927 717.975 102.879 717.559 101.629C717.155 100.379 716.953 98.9401 716.953 97.3125C716.953 95.7891 717.168 94.4023 717.598 93.1523C718.027 91.8893 718.646 90.8086 719.453 89.9102C720.26 88.9987 721.243 88.2956 722.402 87.8008C723.561 87.293 724.876 87.0391 726.348 87.0391C727.754 87.0391 729.01 87.2604 730.117 87.7031C731.237 88.1328 732.181 88.7708 732.949 89.6172C733.73 90.4505 734.323 91.4922 734.727 92.7422C735.143 93.9922 735.352 95.4245 735.352 97.0391ZM731.875 97.1953C731.875 95.9844 731.738 94.9297 731.465 94.0312C731.204 93.1198 730.827 92.3646 730.332 91.7656C729.837 91.1536 729.232 90.6979 728.516 90.3984C727.812 90.0859 727.025 89.9297 726.152 89.9297C725.137 89.9297 724.264 90.1315 723.535 90.5352C722.819 90.9258 722.227 91.4531 721.758 92.1172C721.302 92.7812 720.964 93.556 720.742 94.4414C720.534 95.3138 720.43 96.2318 720.43 97.1953C720.43 98.4062 720.56 99.4674 720.82 100.379C721.094 101.29 721.478 102.052 721.973 102.664C722.467 103.263 723.066 103.719 723.77 104.031C724.473 104.331 725.267 104.48 726.152 104.48C727.168 104.48 728.034 104.285 728.75 103.895C729.479 103.491 730.072 102.957 730.527 102.293C730.996 101.629 731.335 100.861 731.543 99.9883C731.764 99.1029 731.875 98.1719 731.875 97.1953Z" fill="#A9B7C6"/>
<path d="M190.643 152.1H189.023V155.32C189.023 158.72 186.843 162.16 184.203 163.42L185.203 164.76C187.303 163.68 189.023 161.44 189.843 158.74C190.703 161.3 192.423 163.42 194.463 164.42L195.443 163.1C192.783 161.9 190.643 158.6 190.643 155.32V152.1ZM197.323 150.54V168.52H198.963V150.54H197.323ZM212.601 159.32C209.961 158.42 208.241 156.2 208.241 153.82V153.12H212.201V151.8H202.581V153.12H206.601V153.84C206.601 156.4 204.801 158.72 202.101 159.66L202.961 160.96C205.061 160.18 206.681 158.6 207.441 156.6C208.221 158.44 209.761 159.9 211.761 160.6L212.601 159.32ZM204.421 163.64H214.461V168.5H216.101V162.32H204.421V163.64ZM218.761 155.26H216.101V150.56H214.461V161.36H216.101V156.62H218.761V155.26ZM226.82 158.64H232.04V157.34H226.82V153.94H232.32V152.6H225.24V164.04H226.42C229.32 164.04 231.04 163.98 233.12 163.58L232.96 162.22C231.04 162.6 229.44 162.68 226.82 162.68V158.64ZM238.22 150.54V157.74H235.84V150.94H234.28V167.6H235.84V159.08H238.22V168.48H239.78V150.54H238.22ZM254.879 154.24C254.879 156.46 254.879 159.14 254.159 162.8L255.799 162.98C256.499 159.1 256.499 156.52 256.499 154.24V152.44H244.199V153.78H254.879V154.24ZM242.459 164.5V165.86H258.679V164.5H242.459Z" fill="#E8BF6A"/>
<path d="M46.5627 31.64H51.7827V30.34H46.5627V26.94H52.0627V25.6H44.9827V37.04H46.1627C49.0627 37.04 50.7827 36.98 52.8627 36.58L52.7027 35.22C50.7827 35.6 49.1827 35.68 46.5627 35.68V31.64ZM57.9627 23.54V30.74H55.5827V23.94H54.0227V40.6H55.5827V32.08H57.9627V41.48H59.5227V23.54H57.9627ZM74.6211 27.24C74.6211 29.46 74.6211 32.14 73.9011 35.8L75.5411 35.98C76.2411 32.1 76.2411 29.52 76.2411 27.24V25.44H63.9411V26.78H74.6211V27.24ZM62.2011 37.5V38.86H78.4211V37.5H62.2011ZM97.5805 23.54V41.52H99.2205V23.54H97.5805ZM89.7605 24.92C87.1005 24.92 85.2005 27.36 85.2005 31.18C85.2005 35 87.1005 37.44 89.7605 37.44C92.4205 37.44 94.3205 35 94.3205 31.18C94.3205 27.36 92.4205 24.92 89.7605 24.92ZM89.7605 26.4C91.5005 26.4 92.7405 28.28 92.7405 31.18C92.7405 34.1 91.5005 35.98 89.7605 35.98C88.0005 35.98 86.7605 34.1 86.7605 31.18C86.7605 28.28 88.0005 26.4 89.7605 26.4ZM114.999 27H104.519V31.26H116.999V29.98H106.139V28.22H116.619V24H104.479V25.26H114.999V27ZM106.219 37.08H115.019V39.92H106.219V37.08ZM104.619 41.24H116.639V35.78H104.619V41.24ZM102.439 32.8V34.12H118.699V32.8H102.439Z" fill="#E8BF6A"/>
<path d="M178.702 29.44C175.502 29 172.402 27 172.402 24.62V23.82H170.722V24.62C170.722 27 167.622 29 164.442 29.44L165.062 30.76C167.802 30.3 170.442 28.88 171.562 26.82C172.702 28.88 175.342 30.3 178.082 30.76L178.702 29.44ZM165.262 36.96H176.042V41.5H177.682V35.62H165.262V36.96ZM172.382 32.54V29.8H170.742V32.54H163.462V33.88H179.742V32.54H172.382ZM194.481 34.16H196.141V23.56H194.481V27.36H190.581V28.7H194.481V34.16ZM191.881 32.04C189.261 31.12 187.521 28.9 187.521 26.34V24.56H185.881V26.4C185.881 29.14 184.101 31.54 181.341 32.52L182.201 33.86C184.361 33.04 185.981 31.42 186.741 29.3C187.521 31.16 189.041 32.58 191.001 33.32L191.881 32.04ZM190.221 40.16C187.521 40.16 185.881 39.38 185.881 38.08C185.881 36.76 187.521 35.98 190.221 35.98C192.921 35.98 194.561 36.76 194.561 38.08C194.561 39.38 192.921 40.16 190.221 40.16ZM190.221 34.7C186.541 34.7 184.241 35.92 184.241 38.08C184.241 40.22 186.541 41.46 190.221 41.46C193.901 41.46 196.201 40.22 196.201 38.08C196.201 35.92 193.901 34.7 190.221 34.7ZM206.659 31.56H201.699V26.22H206.659V31.56ZM212.379 27.78V30H208.259V27.78H212.379ZM208.259 31.32H212.379V34.16H214.039V23.56H212.379V26.46H208.259V24.9H200.079V32.86H208.259V31.32ZM208.099 40.18C205.419 40.18 203.779 39.4 203.779 38.08C203.779 36.76 205.419 35.98 208.099 35.98C210.819 35.98 212.459 36.76 212.459 38.08C212.459 39.4 210.819 40.18 208.099 40.18ZM208.099 34.7C204.419 34.7 202.139 35.92 202.139 38.08C202.139 40.22 204.419 41.46 208.099 41.46C211.799 41.46 214.099 40.22 214.099 38.08C214.099 35.92 211.799 34.7 208.099 34.7Z" fill="#BABABA"/>
<path d="M317.702 29.44C314.502 29 311.402 27 311.402 24.62V23.82H309.722V24.62C309.722 27 306.622 29 303.442 29.44L304.062 30.76C306.802 30.3 309.442 28.88 310.562 26.82C311.702 28.88 314.342 30.3 317.082 30.76L317.702 29.44ZM304.262 36.96H315.042V41.5H316.682V35.62H304.262V36.96ZM311.382 32.54V29.8H309.742V32.54H302.462V33.88H318.742V32.54H311.382ZM333.481 34.16H335.141V23.56H333.481V27.36H329.581V28.7H333.481V34.16ZM330.881 32.04C328.261 31.12 326.521 28.9 326.521 26.34V24.56H324.881V26.4C324.881 29.14 323.101 31.54 320.341 32.52L321.201 33.86C323.361 33.04 324.981 31.42 325.741 29.3C326.521 31.16 328.041 32.58 330.001 33.32L330.881 32.04ZM329.221 40.16C326.521 40.16 324.881 39.38 324.881 38.08C324.881 36.76 326.521 35.98 329.221 35.98C331.921 35.98 333.561 36.76 333.561 38.08C333.561 39.38 331.921 40.16 329.221 40.16ZM329.221 34.7C325.541 34.7 323.241 35.92 323.241 38.08C323.241 40.22 325.541 41.46 329.221 41.46C332.901 41.46 335.201 40.22 335.201 38.08C335.201 35.92 332.901 34.7 329.221 34.7ZM339.099 24.62V25.96H345.539C345.259 28.82 342.699 31.06 338.299 32.14L338.919 33.48C344.179 32.18 347.319 29.14 347.319 24.62H339.099ZM344.839 39.96H341.759V37.62H344.839V39.96ZM344.839 36.36H341.759V34.2H340.219V41.22H346.359V34.2H344.839V36.36ZM351.159 34.02H349.579V35.52C349.579 37.24 348.539 39.24 346.479 40.18L347.359 41.4C348.839 40.72 349.839 39.5 350.359 38.1C350.899 39.52 351.879 40.72 353.359 41.4L354.239 40.18C352.159 39.26 351.159 37.24 351.159 35.48V34.02ZM352.179 27.68V23.54H350.539V33.3H352.179V29.04H354.839V27.68H352.179Z" fill="#A5C261"/>
<path d="M569.932 25.72H568.292V36.82H569.432C571.372 36.82 573.432 36.72 575.852 36.26L575.692 34.84C573.552 35.26 571.652 35.38 569.932 35.4V25.72ZM581.052 23.54V30.84H578.512V23.94H576.972V40.56H578.512V32.2H581.052V41.46H582.632V23.54H581.052ZM593.41 40.2C590.59 40.2 588.93 39.5 588.93 38.28C588.93 37.06 590.59 36.36 593.41 36.36C596.21 36.36 597.89 37.06 597.89 38.28C597.89 39.5 596.21 40.2 593.41 40.2ZM593.41 35.08C589.57 35.08 587.27 36.22 587.27 38.28C587.27 40.34 589.57 41.46 593.41 41.46C597.27 41.46 599.55 40.34 599.55 38.28C599.55 36.22 597.27 35.08 593.41 35.08ZM590.93 30.32C591.67 30.44 592.51 30.52 593.41 30.52C594.33 30.52 595.17 30.44 595.91 30.32V32.42H590.93V30.32ZM588.79 27.2C588.79 25.9 590.55 25.14 593.41 25.14C596.27 25.14 598.03 25.9 598.03 27.2C598.03 28.48 596.27 29.26 593.41 29.26C590.55 29.26 588.79 28.48 588.79 27.2ZM597.53 32.42V29.88C598.91 29.32 599.71 28.4 599.71 27.2C599.71 25.1 597.31 23.86 593.41 23.86C589.53 23.86 587.11 25.1 587.11 27.2C587.11 28.42 587.89 29.32 589.31 29.9V32.42H585.29V33.74H601.53V32.42H597.53Z" fill="#A9B7C6"/>
<path d="M787.783 157.8C790.723 157.46 793.403 156.16 794.403 154.2C795.403 156.16 798.083 157.46 801.043 157.8L801.623 156.5C798.483 156.18 795.603 154.66 795.463 152.68H801.043V151.36H787.783V152.68H793.343C793.203 154.66 790.343 156.18 787.183 156.5L787.783 157.8ZM794.383 167.2C791.543 167.2 789.903 166.54 789.903 165.36C789.903 164.2 791.543 163.54 794.383 163.54C797.203 163.54 798.863 164.2 798.863 165.36C798.863 166.54 797.203 167.2 794.383 167.2ZM794.383 162.28C790.543 162.28 788.243 163.38 788.243 165.36C788.243 167.36 790.543 168.46 794.383 168.46C798.223 168.46 800.523 167.36 800.523 165.36C800.523 163.38 798.223 162.28 794.383 162.28ZM795.203 159.48V156.9H793.563V159.48H786.283V160.8H802.503V159.48H795.203ZM810.341 161.52H814.441V164.92H810.341V161.52ZM816.061 164.92V161.52H818.861V160.18H807.821V157.3H818.441V151.86H806.161V153.2H816.841V155.98H806.201V161.52H808.721V164.92H804.161V166.26H820.461V164.92H816.061ZM828.82 158.64H834.04V157.34H828.82V153.94H834.32V152.6H827.24V164.04H828.42C831.32 164.04 833.04 163.98 835.12 163.58L834.96 162.22C833.04 162.6 831.44 162.68 828.82 162.68V158.64ZM840.22 150.54V157.74H837.84V150.94H836.28V167.6H837.84V159.08H840.22V168.48H841.78V150.54H840.22ZM856.879 154.24C856.879 156.46 856.879 159.14 856.159 162.8L857.799 162.98C858.499 159.1 858.499 156.52 858.499 154.24V152.44H846.199V153.78H856.879V154.24ZM844.459 164.5V165.86H860.679V164.5H844.459Z" fill="#E8BF6A"/>
<path d="M432 66.3926L432 65.3086C432 63.4238 432.444 62.0225 433.333 61.1045C434.212 60.1865 435.55 59.7275 437.347 59.7275L580.727 59.7275C581.205 59.7275 581.63 59.6738 582.001 59.5664C582.382 59.459 582.699 59.2685 582.953 58.9951C583.217 58.7314 583.417 58.375 583.554 57.9258C583.69 57.4863 583.759 56.9297 583.759 56.2559L583.759 50.626L585.795 50.626L585.795 56.2559C585.795 56.9687 585.854 57.5498 585.971 57.999C586.088 58.4482 586.264 58.7998 586.498 59.0537C586.742 59.3076 587.05 59.4834 587.421 59.581C587.792 59.6787 588.231 59.7275 588.739 59.7275L732.211 59.7275C733.031 59.7275 733.769 59.8252 734.423 60.0205C735.087 60.2158 735.648 60.5332 736.107 60.9726C736.576 61.4219 736.933 61.998 737.177 62.7012C737.431 63.4141 737.558 64.2832 737.558 65.3086L737.558 66.3926L735.507 66.3926L735.507 65.5283C735.507 63.2627 734.408 62.1299 732.211 62.1299L588.798 62.1299C586.415 62.1299 585.072 61.0996 584.77 59.0391C584.564 61.1191 583.227 62.1592 580.756 62.1592L437.405 62.1592C435.169 62.1592 434.051 63.2822 434.051 65.5283L434.051 66.3926L432 66.3926Z" fill="#A9B7C6"/>
<path d="M31.4424 124L31.4424 125.084C31.4424 126.969 31.8867 128.37 32.7754 129.288C33.6543 130.206 34.9922 130.665 36.7891 130.665L217.169 130.665C217.647 130.665 218.072 130.719 218.443 130.826C218.824 130.934 219.142 131.124 219.396 131.397C219.659 131.661 219.859 132.018 219.996 132.467C220.133 132.906 220.201 133.463 220.201 134.137L220.201 139.767L222.237 139.767L222.237 134.137C222.237 133.424 222.296 132.843 222.413 132.394C222.53 131.944 222.706 131.593 222.94 131.339C223.185 131.085 223.492 130.909 223.863 130.812C224.234 130.714 224.674 130.665 225.182 130.665L405.653 130.665C406.474 130.665 407.211 130.567 407.865 130.372C408.529 130.177 409.091 129.859 409.55 129.42C410.019 128.971 410.375 128.395 410.619 127.691C410.873 126.979 411 126.109 411 125.084L411 124L408.949 124L408.949 124.864C408.949 127.13 407.851 128.263 405.653 128.263L225.24 128.263C222.857 128.263 221.515 129.293 221.212 131.354C221.007 129.273 219.669 128.233 217.198 128.233L36.8477 128.233C34.6113 128.233 33.4932 127.11 33.4932 124.864L33.4932 124L31.4424 124Z" fill="#E8BF6A"/>
<path d="M763.442 124L763.442 125.084C763.442 126.969 763.887 128.37 764.775 129.288C765.654 130.206 766.992 130.665 768.789 130.665L819.169 130.665C819.647 130.665 820.072 130.719 820.443 130.826C820.824 130.934 821.142 131.124 821.396 131.397C821.659 131.661 821.859 132.018 821.996 132.467C822.133 132.906 822.201 133.463 822.201 134.137L822.201 139.767L824.237 139.767L824.237 134.137C824.237 133.424 824.296 132.843 824.413 132.394C824.53 131.944 824.706 131.593 824.94 131.339C825.185 131.085 825.492 130.909 825.863 130.812C826.234 130.714 826.674 130.665 827.182 130.665L877.653 130.665C878.474 130.665 879.211 130.567 879.865 130.372C880.529 130.177 881.091 129.859 881.55 129.42C882.019 128.971 882.375 128.395 882.619 127.691C882.873 126.979 883 126.109 883 125.084L883 124L880.949 124L880.949 124.864C880.949 127.13 879.851 128.263 877.653 128.263L827.24 128.263C824.857 128.263 823.515 129.293 823.212 131.354C823.007 129.273 821.669 128.233 819.198 128.233L768.848 128.233C766.611 128.233 765.493 127.11 765.493 124.864L765.493 124L763.442 124Z" fill="#E8BF6A"/>
<path d="M286 66.3926L286 65.3086C286 63.4238 286.444 62.0225 287.333 61.1045C288.212 60.1865 289.55 59.7275 291.347 59.7275L324.727 59.7275C325.205 59.7275 325.63 59.6738 326.001 59.5664C326.382 59.459 326.699 59.2686 326.953 58.9951C327.217 58.7314 327.417 58.375 327.554 57.9258C327.69 57.4863 327.759 56.9297 327.759 56.2559L327.759 50.626L329.795 50.626L329.795 56.2559C329.795 56.9687 329.854 57.5498 329.971 57.999C330.088 58.4482 330.264 58.7998 330.498 59.0537C330.742 59.3076 331.05 59.4834 331.421 59.5811C331.792 59.6787 332.231 59.7275 332.739 59.7275L366.211 59.7275C367.031 59.7275 367.769 59.8252 368.423 60.0205C369.087 60.2158 369.648 60.5332 370.107 60.9726C370.576 61.4219 370.933 61.998 371.177 62.7012C371.431 63.4141 371.558 64.2832 371.558 65.3086L371.558 66.3926L369.507 66.3926L369.507 65.5283C369.507 63.2627 368.408 62.1299 366.211 62.1299L332.798 62.1299C330.415 62.1299 329.072 61.0996 328.77 59.0391C328.564 61.1191 327.227 62.1592 324.756 62.1592L291.405 62.1592C289.169 62.1592 288.051 63.2822 288.051 65.5283L288.051 66.3926L286 66.3926Z" fill="#A5C261"/>
<path d="M141 66.7666L141 65.6826C141 63.7978 141.444 62.3965 142.333 61.4785C143.212 60.5605 144.55 60.1016 146.347 60.1016L185.727 60.1016C186.205 60.1016 186.63 60.0478 187.001 59.9404C187.382 59.833 187.699 59.6426 187.953 59.3691C188.217 59.1055 188.417 58.749 188.554 58.2998C188.69 57.8603 188.759 57.3037 188.759 56.6299L188.759 51L190.795 51L190.795 56.6299C190.795 57.3428 190.854 57.9238 190.971 58.373C191.088 58.8223 191.264 59.1738 191.498 59.4277C191.742 59.6816 192.05 59.8574 192.421 59.9551C192.792 60.0527 193.231 60.1016 193.739 60.1016L233.211 60.1016C234.031 60.1016 234.769 60.1992 235.423 60.3945C236.087 60.5898 236.648 60.9072 237.107 61.3467C237.576 61.7959 237.933 62.3721 238.177 63.0752C238.431 63.7881 238.558 64.6572 238.558 65.6826L238.558 66.7666L236.507 66.7666L236.507 65.9023C236.507 63.6367 235.408 62.5039 233.211 62.5039L193.798 62.5039C191.415 62.5039 190.072 61.4736 189.77 59.4131C189.564 61.4932 188.227 62.5332 185.756 62.5332L146.405 62.5332C144.169 62.5332 143.051 63.6562 143.051 65.9023L143.051 66.7666L141 66.7666Z" fill="#BABABA"/>
<path d="M51 66.7666L51 65.6826C51 63.7978 51.4443 62.3965 52.333 61.4785C53.2119 60.5606 54.5498 60.1016 56.3467 60.1016L77.7266 60.1016C78.2051 60.1016 78.6299 60.0479 79.001 59.9404C79.3818 59.833 79.6992 59.6426 79.9531 59.3691C80.2168 59.1055 80.417 58.749 80.5537 58.2998C80.6904 57.8604 80.7588 57.3037 80.7588 56.6299L80.7588 51L82.7949 51L82.7949 56.6299C82.7949 57.3428 82.8535 57.9238 82.9707 58.373C83.0879 58.8223 83.2637 59.1738 83.498 59.4277C83.7422 59.6816 84.0498 59.8574 84.4209 59.9551C84.792 60.0527 85.2314 60.1016 85.7393 60.1016L107.211 60.1016C108.031 60.1016 108.769 60.1992 109.423 60.3945C110.087 60.5898 110.648 60.9072 111.107 61.3467C111.576 61.7959 111.933 62.3721 112.177 63.0752C112.431 63.7881 112.558 64.6572 112.558 65.6826L112.558 66.7666L110.507 66.7666L110.507 65.9023C110.507 63.6367 109.408 62.5039 107.211 62.5039L85.7979 62.5039C83.415 62.5039 82.0723 61.4736 81.7695 59.4131C81.5645 61.4932 80.2266 62.5332 77.7559 62.5332L56.4053 62.5332C54.1689 62.5332 53.0508 63.6562 53.0508 65.9023L53.0508 66.7666L51 66.7666Z" fill="#E8BF6A"/>
</svg>
