<svg width="197" height="53" viewBox="0 0 197 53" fill="none" xmlns="http://www.w3.org/2000/svg">
<rect width="197" height="53" rx="10" fill="#1E73FF"/>
<path d="M64.1137 16.54V34.52H65.7537V16.54H64.1137ZM56.2937 17.92C53.6337 17.92 51.7337 20.36 51.7337 24.18C51.7337 28 53.6337 30.44 56.2937 30.44C58.9537 30.44 60.8537 28 60.8537 24.18C60.8537 20.36 58.9537 17.92 56.2937 17.92ZM56.2937 19.4C58.0337 19.4 59.2737 21.28 59.2737 24.18C59.2737 27.1 58.0337 28.98 56.2937 28.98C54.5337 28.98 53.2937 27.1 53.2937 24.18C53.2937 21.28 54.5337 19.4 56.2937 19.4ZM70.5121 18.3V29.96H78.7521V18.3H70.5121ZM77.1521 19.62V28.66H72.1121V19.62H77.1521ZM82.5121 16.54V34.52H84.1521V16.54H82.5121ZM94.2705 19.74H98.4905V18.38H88.4705V19.74H92.6305V22.02C92.6305 25.12 90.4505 28.5 87.8705 29.72L88.8305 31.04C90.8705 30 92.6305 27.74 93.4505 25.12C94.3105 27.58 96.0705 29.64 98.1505 30.6L99.0705 29.28C96.4305 28.16 94.2705 25.06 94.2705 22.02V19.74ZM100.911 16.56V34.48H102.551V16.56H100.911ZM118.589 28.64H113.589V23.92H118.589V28.64ZM124.389 16.54V23.2H120.189V17.96H118.589V22.62H113.589V17.96H111.969V29.98H120.189V24.52H124.389V34.52H126.029V16.54H124.389ZM143.948 23.52H133.408V21.6H143.368V20.36H133.408V18.48H143.848V17.2H131.768V24.8H143.948V23.52ZM133.368 29.1H131.728V34.08H144.168V32.74H133.368V29.1ZM129.628 26.48V27.8H145.848V26.48H129.628Z" fill="white"/>
</svg>
