<svg width="511" height="240" viewBox="0 0 511 240" fill="none" xmlns="http://www.w3.org/2000/svg">
<path d="M0 55.1176C0 51.739 2.77157 49 6.19048 49H33.8095C37.2284 49 40 51.739 40 55.1176V122.882C40 126.261 37.2284 129 33.8095 129H6.19048C2.77157 129 0 126.261 0 122.882V55.1176Z" fill="black"/>
<path fill-rule="evenodd" clip-rule="evenodd" d="M6.19038 51.353C4.08644 51.353 2.38086 53.0385 2.38086 55.1177V122.882C2.38086 124.962 4.08644 126.647 6.19038 126.647H33.8094C35.9134 126.647 37.619 124.962 37.619 122.882V55.1177C37.619 53.0385 35.9134 51.353 33.8094 51.353H30.714C30.3256 51.353 30.0097 51.6655 29.9999 52.0548V52.7648C29.9999 53.5445 29.3603 54.1766 28.5713 54.1766H11.9047C11.1157 54.1766 10.4761 53.5445 10.4761 52.7648V52.0548C10.4663 51.6655 10.1504 51.353 9.76204 51.353H6.19038Z" fill="#3F67AF"/>
<path fill-rule="evenodd" clip-rule="evenodd" d="M40 91.2249V55.1176C40 51.739 37.2285 49 33.8096 49H16.5381L40 91.2249Z" fill="url(#paint0_linear)"/>
<path fill-rule="evenodd" clip-rule="evenodd" d="M359.903 174.169C361.179 173.147 362.241 159.375 362.613 152.617H372.829H375.047H399.12H403.555H411.554C411.925 159.375 412.988 173.147 414.263 174.169C415.539 175.19 421.171 175.978 423.827 176.244V178L403.555 178L399.12 178H375.047L372.829 178L350.339 178V176.244C352.996 175.978 358.628 175.19 359.903 174.169Z" fill="#CCCCCC"/>
<path d="M263 6.33966C263 2.83836 266.295 0 270.359 0H503.641C507.705 0 511 2.83836 511 6.33966V134.401H263V6.33966Z" fill="#222222"/>
<path d="M263 148.173C263 151.711 266.295 154.579 270.359 154.579H503.641C507.705 154.579 511 151.711 511 148.173V134.401H263V148.173Z" fill="#AAAAAA"/>
<rect x="271.626" y="8.64771" width="230.748" height="117.466" fill="#80CFFF"/>
<path fill-rule="evenodd" clip-rule="evenodd" d="M469.524 134.401H511V6.33966C511 2.83836 507.705 0 503.641 0H355.201L469.524 134.401ZM486.688 154.579H503.641C507.705 154.579 511 151.711 511 148.173V134.401L469.524 134.401L486.688 154.579Z" fill="url(#paint1_linear)"/>
<path fill-rule="evenodd" clip-rule="evenodd" d="M88 77H82V86H73V92H82V101H88V92H97V86H88V77Z" fill="black"/>
<path d="M127.98 80.7188C127.895 82.7188 127.398 84.3086 126.492 85.4883C125.594 86.6602 124.383 87.2461 122.859 87.2461C122.188 87.2461 121.605 87.1016 121.113 86.8125C120.629 86.5234 120.262 86.1094 120.012 85.5703C119.23 86.6641 118.211 87.2109 116.953 87.2109C115.812 87.2109 114.93 86.7305 114.305 85.7695C113.68 84.8086 113.445 83.5391 113.602 81.9609C113.742 80.6719 114.066 79.5273 114.574 78.5273C115.09 77.5195 115.738 76.7461 116.52 76.207C117.301 75.668 118.145 75.3984 119.051 75.3984C120.168 75.3984 121.121 75.6562 121.91 76.1719L122.648 76.6758L122.051 83.4492C121.973 84.0664 122.039 84.5391 122.25 84.8672C122.469 85.1953 122.812 85.3594 123.281 85.3594C124 85.3594 124.602 84.9414 125.086 84.1055C125.57 83.2617 125.836 82.1602 125.883 80.8008C126.016 78.0742 125.465 75.9805 124.23 74.5195C123.004 73.0508 121.184 72.3164 118.77 72.3164C117.262 72.3164 115.918 72.6992 114.738 73.4648C113.559 74.2305 112.629 75.3203 111.949 76.7344C111.27 78.1406 110.887 79.7539 110.801 81.5742C110.676 84.3398 111.23 86.4766 112.465 87.9844C113.699 89.5 115.547 90.2578 118.008 90.2578C118.656 90.2578 119.336 90.1836 120.047 90.0352C120.758 89.8945 121.371 89.7031 121.887 89.4609L122.332 91.2656C121.855 91.5781 121.211 91.8281 120.398 92.0156C119.594 92.2109 118.781 92.3086 117.961 92.3086C115.898 92.3086 114.141 91.8906 112.688 91.0547C111.234 90.2266 110.148 89 109.43 87.375C108.719 85.7578 108.41 83.8242 108.504 81.5742C108.598 79.418 109.09 77.4844 109.98 75.7734C110.871 74.0625 112.082 72.7422 113.613 71.8125C115.152 70.875 116.887 70.4062 118.816 70.4062C120.777 70.4062 122.465 70.8281 123.879 71.6719C125.293 72.5078 126.352 73.707 127.055 75.2695C127.758 76.832 128.066 78.6484 127.98 80.7188ZM116.203 81.9609C116.117 82.9922 116.207 83.7773 116.473 84.3164C116.738 84.8477 117.168 85.1133 117.762 85.1133C118.145 85.1133 118.508 84.9453 118.852 84.6094C119.195 84.2734 119.48 83.7891 119.707 83.1562L120.199 77.6133C119.895 77.5117 119.582 77.4609 119.262 77.4609C118.363 77.4609 117.664 77.8438 117.164 78.6094C116.672 79.375 116.352 80.4922 116.203 81.9609ZM133.453 74.3203L133.559 75.7383C134.457 74.6367 135.672 74.0859 137.203 74.0859C138.836 74.0859 139.957 74.7305 140.566 76.0195C141.457 74.7305 142.727 74.0859 144.375 74.0859C145.75 74.0859 146.773 74.4883 147.445 75.293C148.117 76.0898 148.453 77.293 148.453 78.9023V87H145.055V78.9141C145.055 78.1953 144.914 77.6719 144.633 77.3438C144.352 77.0078 143.855 76.8398 143.145 76.8398C142.129 76.8398 141.426 77.3242 141.035 78.293L141.047 87H137.66V78.9258C137.66 78.1914 137.516 77.6602 137.227 77.332C136.938 77.0039 136.445 76.8398 135.75 76.8398C134.789 76.8398 134.094 77.2383 133.664 78.0352V87H130.277V74.3203H133.453ZM156.902 87.2344C155.043 87.2344 153.527 86.6641 152.355 85.5234C151.191 84.3828 150.609 82.8633 150.609 80.9648V80.6367C150.609 79.3633 150.855 78.2266 151.348 77.2266C151.84 76.2188 152.535 75.4453 153.434 74.9062C154.34 74.3594 155.371 74.0859 156.527 74.0859C158.262 74.0859 159.625 74.6328 160.617 75.7266C161.617 76.8203 162.117 78.3711 162.117 80.3789V81.7617H154.043C154.152 82.5898 154.48 83.2539 155.027 83.7539C155.582 84.2539 156.281 84.5039 157.125 84.5039C158.43 84.5039 159.449 84.0312 160.184 83.0859L161.848 84.9492C161.34 85.668 160.652 86.2305 159.785 86.6367C158.918 87.0352 157.957 87.2344 156.902 87.2344ZM156.516 76.8281C155.844 76.8281 155.297 77.0547 154.875 77.5078C154.461 77.9609 154.195 78.6094 154.078 79.4531H158.789V79.1836C158.773 78.4336 158.57 77.8555 158.18 77.4492C157.789 77.0352 157.234 76.8281 156.516 76.8281ZM163.523 80.5664C163.523 78.5898 163.965 77.0156 164.848 75.8438C165.738 74.6719 166.953 74.0859 168.492 74.0859C169.727 74.0859 170.746 74.5469 171.551 75.4688V69H174.949V87H171.891L171.727 85.6523C170.883 86.707 169.797 87.2344 168.469 87.2344C166.977 87.2344 165.777 86.6484 164.871 85.4766C163.973 84.2969 163.523 82.6602 163.523 80.5664ZM166.91 80.8125C166.91 82 167.117 82.9102 167.531 83.543C167.945 84.1758 168.547 84.4922 169.336 84.4922C170.383 84.4922 171.121 84.0508 171.551 83.168V78.1641C171.129 77.2812 170.398 76.8398 169.359 76.8398C167.727 76.8398 166.91 78.1641 166.91 80.8125ZM181.148 87H177.75V74.3203H181.148V87ZM177.551 71.0391C177.551 70.5312 177.719 70.1133 178.055 69.7852C178.398 69.457 178.863 69.293 179.449 69.293C180.027 69.293 180.488 69.457 180.832 69.7852C181.176 70.1133 181.348 70.5312 181.348 71.0391C181.348 71.5547 181.172 71.9766 180.82 72.3047C180.477 72.6328 180.02 72.7969 179.449 72.7969C178.879 72.7969 178.418 72.6328 178.066 72.3047C177.723 71.9766 177.551 71.5547 177.551 71.0391ZM191.297 87C191.141 86.6953 191.027 86.3164 190.957 85.8633C190.137 86.7773 189.07 87.2344 187.758 87.2344C186.516 87.2344 185.484 86.875 184.664 86.1562C183.852 85.4375 183.445 84.5312 183.445 83.4375C183.445 82.0938 183.941 81.0625 184.934 80.3438C185.934 79.625 187.375 79.2617 189.258 79.2539H190.816V78.5273C190.816 77.9414 190.664 77.4727 190.359 77.1211C190.062 76.7695 189.59 76.5938 188.941 76.5938C188.371 76.5938 187.922 76.7305 187.594 77.0039C187.273 77.2773 187.113 77.6523 187.113 78.1289H183.727C183.727 77.3945 183.953 76.7148 184.406 76.0898C184.859 75.4648 185.5 74.9766 186.328 74.625C187.156 74.2656 188.086 74.0859 189.117 74.0859C190.68 74.0859 191.918 74.4805 192.832 75.2695C193.754 76.0508 194.215 77.1523 194.215 78.5742V84.0703C194.223 85.2734 194.391 86.1836 194.719 86.8008V87H191.297ZM188.496 84.6445C188.996 84.6445 189.457 84.5352 189.879 84.3164C190.301 84.0898 190.613 83.7891 190.816 83.4141V81.2344H189.551C187.855 81.2344 186.953 81.8203 186.844 82.9922L186.832 83.1914C186.832 83.6133 186.98 83.9609 187.277 84.2344C187.574 84.5078 187.98 84.6445 188.496 84.6445ZM121.77 100.543C121.77 98.5508 122.211 96.9766 123.094 95.8203C123.984 94.6641 125.203 94.0859 126.75 94.0859C128.109 94.0859 129.191 94.6055 129.996 95.6445L130.219 94.3203H133.195V111.875H129.797V105.91C129.016 106.793 127.992 107.234 126.727 107.234C125.219 107.234 124.016 106.648 123.117 105.477C122.219 104.305 121.77 102.66 121.77 100.543ZM125.156 100.789C125.156 102 125.367 102.922 125.789 103.555C126.219 104.188 126.82 104.504 127.594 104.504C128.633 104.504 129.367 104.09 129.797 103.262V98.0234C129.375 97.2266 128.648 96.8281 127.617 96.8281C126.836 96.8281 126.23 97.1445 125.801 97.7773C125.371 98.4102 125.156 99.4141 125.156 100.789ZM143.461 105.711C142.625 106.727 141.469 107.234 139.992 107.234C138.633 107.234 137.594 106.844 136.875 106.062C136.164 105.281 135.801 104.137 135.785 102.629V94.3203H139.172V102.512C139.172 103.832 139.773 104.492 140.977 104.492C142.125 104.492 142.914 104.094 143.344 103.297V94.3203H146.742V107H143.555L143.461 105.711ZM155.133 107.234C153.273 107.234 151.758 106.664 150.586 105.523C149.422 104.383 148.84 102.863 148.84 100.965V100.637C148.84 99.3633 149.086 98.2266 149.578 97.2266C150.07 96.2188 150.766 95.4453 151.664 94.9062C152.57 94.3594 153.602 94.0859 154.758 94.0859C156.492 94.0859 157.855 94.6328 158.848 95.7266C159.848 96.8203 160.348 98.3711 160.348 100.379V101.762H152.273C152.383 102.59 152.711 103.254 153.258 103.754C153.812 104.254 154.512 104.504 155.355 104.504C156.66 104.504 157.68 104.031 158.414 103.086L160.078 104.949C159.57 105.668 158.883 106.23 158.016 106.637C157.148 107.035 156.188 107.234 155.133 107.234ZM154.746 96.8281C154.074 96.8281 153.527 97.0547 153.105 97.5078C152.691 97.9609 152.426 98.6094 152.309 99.4531H157.02V99.1836C157.004 98.4336 156.801 97.8555 156.41 97.4492C156.02 97.0352 155.465 96.8281 154.746 96.8281ZM169.406 97.4961C168.945 97.4336 168.539 97.4023 168.188 97.4023C166.906 97.4023 166.066 97.8359 165.668 98.7031V107H162.281V94.3203H165.48L165.574 95.832C166.254 94.668 167.195 94.0859 168.398 94.0859C168.773 94.0859 169.125 94.1367 169.453 94.2383L169.406 97.4961ZM175.992 102.207L178.336 94.3203H181.969L176.871 108.969L176.59 109.637C175.832 111.293 174.582 112.121 172.84 112.121C172.348 112.121 171.848 112.047 171.34 111.898V109.332L171.855 109.344C172.496 109.344 172.973 109.246 173.285 109.051C173.605 108.855 173.855 108.531 174.035 108.078L174.434 107.035L169.992 94.3203H173.637L175.992 102.207Z" fill="black"/>
<path fill-rule="evenodd" clip-rule="evenodd" d="M206 80V86L230 86V80H206ZM206 92V98H230V92H206Z" fill="black"/>
<path fill-rule="evenodd" clip-rule="evenodd" d="M73.25 239.971L17 220.486L73.25 201L67.064 215.986H494V225.986H67.1727L73.25 239.971Z" fill="url(#paint2_linear)"/>
<defs>
<linearGradient id="paint0_linear" x1="29.2654" y1="49" x2="29.2654" y2="91.225" gradientUnits="userSpaceOnUse">
<stop stop-color="white" stop-opacity="0.46"/>
<stop offset="0.651042" stop-color="white" stop-opacity="0"/>
</linearGradient>
<linearGradient id="paint1_linear" x1="433.1" y1="0" x2="433.1" y2="154.579" gradientUnits="userSpaceOnUse">
<stop stop-color="white" stop-opacity="0.46"/>
<stop offset="0.651042" stop-color="white" stop-opacity="0"/>
</linearGradient>
<linearGradient id="paint2_linear" x1="499" y1="220" x2="17" y2="220" gradientUnits="userSpaceOnUse">
<stop stop-color="#80CFFF"/>
<stop offset="1" stop-color="#3F67AF"/>
</linearGradient>
</defs>
</svg>
