<svg width="495" height="352" viewBox="0 0 495 352" fill="none" xmlns="http://www.w3.org/2000/svg">
<rect x="3" y="14" width="50" height="158" fill="#1E73FF"/>
<rect x="223" y="14" width="85" height="116" fill="#1E73FF"/>
<rect x="365" y="14" width="86" height="116" fill="#1E73FF"/>
<rect x="69" y="14" width="97" height="158" fill="#1E73FF"/>
<rect x="3" y="172" width="50" height="90" fill="#379AD6"/>
<rect x="182" y="14" width="41" height="116" fill="#379AD6"/>
<rect x="324" y="14" width="41" height="116" fill="#379AD6"/>
<rect x="451" y="14" width="41" height="116" fill="#7FCFFF"/>
<rect x="69" y="172" width="97" height="46" fill="#379AD6"/>
<rect x="3" y="262" width="50" height="90" fill="#80CFFF"/>
<rect x="182" y="127" width="126" height="45" fill="#80CFFF"/>
<rect x="321" width="174" height="14" fill="#FFF000"/>
<rect x="179" width="132" height="14" fill="#FFF000"/>
<rect x="66" width="103" height="14" fill="#FFF000"/>
<rect width="56" height="14" fill="#FFF000"/>
<rect x="1.5" y="1.5" width="53" height="127" stroke="black" stroke-width="3"/>
<rect x="67.5" y="1.5" width="100" height="127" stroke="black" stroke-width="3"/>
<rect x="180.5" y="1.5" width="129" height="127" stroke="black" stroke-width="3"/>
<rect x="322.5" y="1.5" width="171" height="127" stroke="black" stroke-width="3"/>
</svg>
