<svg width="495" height="238" viewBox="0 0 495 238" fill="none" xmlns="http://www.w3.org/2000/svg">
<rect x="3" y="22" width="50" height="88" fill="#1E73FF"/>
<rect x="69" y="35" width="97" height="51" fill="#1E73FF"/>
<rect x="220" y="14" width="80" height="58" fill="#1E73FF"/>
<rect x="383" y="14" width="80" height="58" fill="#1E73FF"/>
<rect x="3" y="14" width="50" height="8" fill="#379AD6"/>
<rect x="69" y="14" width="97" height="21" fill="#379AD6"/>
<rect x="190" y="14" width="30" height="113" fill="#379AD6"/>
<rect x="353" y="14" width="30" height="113" fill="#379AD6"/>
<rect x="3" y="110" width="50" height="128" fill="#80CFFF"/>
<rect x="69" y="86" width="97" height="69" fill="#80CFFF"/>
<rect x="220" y="72" width="80" height="57" fill="#80CFFF"/>
<rect x="383" y="72" width="80" height="57" fill="#80CFFF"/>
<rect x="321" width="174" height="14" fill="#FFF000"/>
<rect x="179" width="132" height="14" fill="#FFF000"/>
<rect x="66" width="103" height="14" fill="#FFF000"/>
<rect width="56" height="14" fill="#FFF000"/>
<rect x="1.5" y="1.5" width="53" height="127" stroke="black" stroke-width="3"/>
<rect x="67.5" y="1.5" width="100" height="127" stroke="black" stroke-width="3"/>
<rect x="180.5" y="1.5" width="129" height="127" stroke="black" stroke-width="3"/>
<rect x="322.5" y="1.5" width="171" height="127" stroke="black" stroke-width="3"/>
</svg>
