<svg width="790" height="173" viewBox="0 0 790 173" fill="none" xmlns="http://www.w3.org/2000/svg">
<rect width="790" height="173" fill="white"/>
<rect width="91" height="38" rx="19" fill="#1E73FF"/>
<path d="M33.9766 20.1895H28.3516V26H25.4219V11.7812H34.6797V14.1543H28.3516V17.8262H33.9766V20.1895ZM48.0586 19.2129C48.0586 20.6126 47.8112 21.8398 47.3164 22.8945C46.8216 23.9492 46.112 24.763 45.1875 25.3359C44.2695 25.9089 43.2148 26.1953 42.0234 26.1953C40.8451 26.1953 39.7936 25.9121 38.8691 25.3457C37.9447 24.7793 37.2285 23.972 36.7207 22.9238C36.2129 21.8691 35.9557 20.6582 35.9492 19.291V18.5879C35.9492 17.1882 36.1999 15.9577 36.7012 14.8965C37.209 13.8288 37.9219 13.0117 38.8398 12.4453C39.7643 11.8724 40.819 11.5859 42.0039 11.5859C43.1888 11.5859 44.2402 11.8724 45.1582 12.4453C46.0827 13.0117 46.7956 13.8288 47.2969 14.8965C47.8047 15.9577 48.0586 17.1849 48.0586 18.5781V19.2129ZM45.0898 18.5684C45.0898 17.0775 44.8229 15.9447 44.2891 15.1699C43.7552 14.3952 42.9935 14.0078 42.0039 14.0078C41.0208 14.0078 40.2624 14.3919 39.7285 15.1602C39.1947 15.9219 38.9245 17.0417 38.918 18.5195V19.2129C38.918 20.6647 39.1849 21.791 39.7188 22.5918C40.2526 23.3926 41.0208 23.793 42.0234 23.793C43.0065 23.793 43.7617 23.4089 44.2891 22.6406C44.8164 21.8659 45.0833 20.7396 45.0898 19.2617V18.5684ZM53.3027 26H50.373V11.7812H53.3027V26ZM66.4375 14.1543H62.082V26H59.1523V14.1543H54.8555V11.7812H66.4375V14.1543Z" fill="white"/>
<rect x="416" width="91" height="38" rx="19" fill="#1E73FF"/>
<path d="M446.168 20.1895H440.543V26H437.613V11.7812H446.871V14.1543H440.543V17.8262H446.168V20.1895ZM460.25 19.2129C460.25 20.6126 460.003 21.8398 459.508 22.8945C459.013 23.9492 458.303 24.763 457.379 25.3359C456.461 25.9089 455.406 26.1953 454.215 26.1953C453.036 26.1953 451.985 25.9121 451.061 25.3457C450.136 24.7793 449.42 23.972 448.912 22.9238C448.404 21.8691 448.147 20.6582 448.141 19.291V18.5879C448.141 17.1882 448.391 15.9577 448.893 14.8965C449.4 13.8288 450.113 13.0117 451.031 12.4453C451.956 11.8724 453.01 11.5859 454.195 11.5859C455.38 11.5859 456.432 11.8724 457.35 12.4453C458.274 13.0117 458.987 13.8288 459.488 14.8965C459.996 15.9577 460.25 17.1849 460.25 18.5781V19.2129ZM457.281 18.5684C457.281 17.0775 457.014 15.9447 456.48 15.1699C455.947 14.3952 455.185 14.0078 454.195 14.0078C453.212 14.0078 452.454 14.3919 451.92 15.1602C451.386 15.9219 451.116 17.0417 451.109 18.5195V19.2129C451.109 20.6647 451.376 21.791 451.91 22.5918C452.444 23.3926 453.212 23.793 454.215 23.793C455.198 23.793 455.953 23.4089 456.48 22.6406C457.008 21.8659 457.275 20.7396 457.281 19.2617V18.5684ZM473.141 11.7812V21.1465C473.141 22.7025 472.652 23.9329 471.676 24.8379C470.706 25.7428 469.378 26.1953 467.691 26.1953C466.031 26.1953 464.713 25.7559 463.736 24.877C462.76 23.998 462.262 22.7904 462.242 21.2539V11.7812H465.172V21.166C465.172 22.097 465.393 22.7773 465.836 23.207C466.285 23.6302 466.904 23.8418 467.691 23.8418C469.339 23.8418 470.175 22.9759 470.201 21.2441V11.7812H473.141ZM486.246 14.1543H481.891V26H478.961V14.1543H474.664V11.7812H486.246V14.1543Z" fill="white"/>
<path d="M6.606 83.234C9.54 83.234 11.52 81.632 11.52 77.312V69.734H9.504V77.456C9.504 80.444 8.28 81.416 6.606 81.416C4.95 81.416 3.762 80.444 3.762 77.456V69.734H1.674V77.312C1.674 81.632 3.672 83.234 6.606 83.234ZM13.2958 83H15.5098L17.2018 79.706C17.5258 79.022 17.8678 78.356 18.2278 77.546H18.2998C18.7138 78.356 19.0558 79.022 19.3978 79.706L21.1438 83H23.4658L19.6498 76.268L23.2138 69.734H21.0178L19.4518 72.848C19.1458 73.46 18.8938 74.054 18.5518 74.846H18.4618C18.0658 74.054 17.7778 73.46 17.4538 72.848L15.8518 69.734H13.5298L17.0938 76.16L13.2958 83ZM25.4765 83H27.5645V79.004L29.5985 76.502L33.3425 83H35.6645L30.8765 74.864L34.9805 69.734H32.6585L27.6185 76.016H27.5645V69.734H25.4765V83ZM37.412 83H39.284V76.448C39.284 75.26 39.122 73.55 39.032 72.344H39.104L40.148 75.404L42.47 81.722H43.766L46.07 75.404L47.132 72.344H47.204C47.096 73.55 46.934 75.26 46.934 76.448V83H48.878V69.734H46.466L44.072 76.448C43.766 77.33 43.514 78.23 43.208 79.112H43.118C42.812 78.23 42.542 77.33 42.236 76.448L39.806 69.734H37.412V83ZM69.4464 69.392H63.8484V67.934H61.9764V69.392H56.2884V70.814H69.4464V69.392ZM59.1504 80.912H66.6564V82.802H59.1504V80.912ZM57.3144 84.188H68.4744V79.508H57.3144V84.188ZM59.5464 73.658C59.5464 72.938 60.6984 72.614 62.9124 72.614C65.1084 72.614 66.2784 72.938 66.2784 73.658C66.2784 74.36 65.1084 74.702 62.9124 74.702C60.6984 74.702 59.5464 74.36 59.5464 73.658ZM63.8484 76.988V75.962C66.6744 75.818 68.2404 75.026 68.2404 73.658C68.2404 72.128 66.3324 71.336 62.9124 71.336C59.4744 71.336 57.5664 72.128 57.5664 73.658C57.5664 75.026 59.1324 75.818 61.9764 75.962V76.988H55.5504V78.446H70.2564V76.988H63.8484ZM75.133 71.588H76.771V78.878C76.213 78.914 75.673 78.932 75.133 78.95V71.588ZM78.463 71.588H79.669V70.094H72.271V71.588H73.441V78.986C72.901 78.986 72.397 78.986 71.947 78.986L72.163 80.516C74.215 80.516 77.563 80.444 80.101 79.94L79.975 78.59C79.507 78.662 78.985 78.716 78.463 78.77V71.588ZM81.145 74.198H79.219V75.836H81.145V83.576H82.891V68.492H81.145V74.198ZM84.331 68.132V84.386H86.113V68.132H84.331ZM100.188 68.114V84.422H102.06V68.114H100.188ZM93.4016 69.32C90.9896 69.32 89.2256 71.552 89.2256 75.044C89.2256 78.572 90.9896 80.786 93.4016 80.786C95.8316 80.786 97.5956 78.572 97.5956 75.044C97.5956 71.552 95.8316 69.32 93.4016 69.32ZM93.4016 70.994C94.8236 70.994 95.8136 72.524 95.8136 75.044C95.8136 77.6 94.8236 79.13 93.4016 79.13C91.9976 79.13 91.0076 77.6 91.0076 75.044C91.0076 72.524 91.9976 70.994 93.4016 70.994ZM111.238 71.282H114.856V69.752H105.748V71.282H109.366V72.83C109.366 75.62 107.692 78.644 105.172 79.814L106.234 81.29C108.142 80.372 109.6 78.446 110.32 76.178C111.076 78.284 112.534 80.048 114.424 80.876L115.45 79.418C112.912 78.338 111.238 75.53 111.238 72.83V71.282ZM116.746 68.132V84.386H118.618V68.132H116.746ZM127.041 69.266C124.503 69.266 122.631 70.868 122.631 73.172C122.631 75.476 124.503 77.078 127.041 77.078C129.579 77.078 131.469 75.476 131.469 73.172C131.469 70.868 129.579 69.266 127.041 69.266ZM127.041 70.85C128.553 70.85 129.651 71.75 129.651 73.172C129.651 74.576 128.553 75.494 127.041 75.494C125.547 75.494 124.449 74.576 124.449 73.172C124.449 71.75 125.547 70.85 127.041 70.85ZM133.305 68.114V84.404H135.177V68.114H133.305ZM122.109 80.966C124.989 80.966 128.877 80.93 132.459 80.246L132.333 78.896C128.841 79.418 124.791 79.436 121.875 79.436L122.109 80.966ZM146.862 70.904H154.602V75.728H146.862V70.904ZM151.668 80.876V77.204H156.42V69.428H145.044V77.204H149.814V80.876H143.406V82.388H158.13V80.876H151.668ZM173.015 73.172H163.637V70.274H172.889V68.78H161.801V74.684H173.015V73.172ZM163.637 79.274H161.783V84.062H173.141V82.568H163.637V79.274ZM159.983 76.25V77.762H174.689V76.25H159.983ZM192.566 73.244H185.24V70.328H192.566V73.244ZM194.384 68.852H183.422V74.72H194.384V68.852ZM185.204 79.382H183.35V84.08H194.654V82.568H185.204V79.382ZM181.55 76.322V77.816H188.138V80.858H189.992V77.816H196.292V76.322H181.55ZM204.013 69.446H202.141V72.128C202.141 75.17 200.557 78.302 198.019 79.544L199.189 81.02C201.043 80.066 202.375 78.176 203.095 75.872C203.797 78.05 205.111 79.832 206.947 80.75L208.045 79.256C205.561 78.104 204.013 75.152 204.013 72.128V69.446ZM209.755 68.096V73.442H206.281V74.954H209.755V84.404H211.627V68.096H209.755ZM227.736 72.794H218.43V68.708H216.576V74.306H227.736V72.794ZM218.322 79.238H216.468V84.026H227.826V82.532H218.322V79.238ZM214.668 76.25V77.744H229.428V76.25H214.668ZM117.784 96.132V104.862H119.638V96.132H117.784ZM109.018 105.618V112.188H119.638V105.618H117.802V107.418H110.854V105.618H109.018ZM110.854 108.858H117.802V110.694H110.854V108.858ZM110.872 96.87C108.388 96.87 106.552 98.418 106.552 100.65C106.552 102.882 108.388 104.43 110.872 104.43C113.356 104.43 115.174 102.882 115.174 100.65C115.174 98.418 113.356 96.87 110.872 96.87ZM110.872 98.4C112.33 98.4 113.374 99.3 113.374 100.65C113.374 102.018 112.33 102.9 110.872 102.9C109.396 102.9 108.37 102.018 108.37 100.65C108.37 99.3 109.396 98.4 110.872 98.4ZM125.595 97.716H123.759V108.282H125.145C127.665 108.282 130.293 108.084 133.083 107.508L132.885 105.96C130.329 106.482 127.899 106.68 125.595 106.698V97.716ZM134.379 96.132V112.386H136.233V96.132H134.379ZM141.865 99.174H147.571V97.662H140.011V108.408H141.343C144.277 108.408 146.473 108.318 148.939 107.868L148.741 106.338C146.473 106.734 144.493 106.842 141.865 106.86V99.174ZM154.483 102.378H151.945V96.114H150.091V112.404H151.945V103.908H154.483V102.378ZM157.686 111.234C158.46 111.234 159.072 110.64 159.072 109.794C159.072 108.93 158.46 108.318 157.686 108.318C156.912 108.318 156.3 108.93 156.3 109.794C156.3 110.64 156.912 111.234 157.686 111.234ZM6.606 139.234C9.54 139.234 11.52 137.632 11.52 133.312V125.734H9.504V133.456C9.504 136.444 8.28 137.416 6.606 137.416C4.95 137.416 3.762 136.444 3.762 133.456V125.734H1.674V133.312C1.674 137.632 3.672 139.234 6.606 139.234ZM13.2958 139H15.5098L17.2018 135.706C17.5258 135.022 17.8678 134.356 18.2278 133.546H18.2998C18.7138 134.356 19.0558 135.022 19.3978 135.706L21.1438 139H23.4658L19.6498 132.268L23.2138 125.734H21.0178L19.4518 128.848C19.1458 129.46 18.8938 130.054 18.5518 130.846H18.4618C18.0658 130.054 17.7778 129.46 17.4538 128.848L15.8518 125.734H13.5298L17.0938 132.16L13.2958 139ZM25.4765 139H27.5645V135.004L29.5985 132.502L33.3425 139H35.6645L30.8765 130.864L34.9805 125.734H32.6585L27.6185 132.016H27.5645V125.734H25.4765V139ZM37.412 139H39.284V132.448C39.284 131.26 39.122 129.55 39.032 128.344H39.104L40.148 131.404L42.47 137.722H43.766L46.07 131.404L47.132 128.344H47.204C47.096 129.55 46.934 131.26 46.934 132.448V139H48.878V125.734H46.466L44.072 132.448C43.766 133.33 43.514 134.23 43.208 135.112H43.118C42.812 134.23 42.542 133.33 42.236 132.448L39.806 125.734H37.412V139ZM69.4464 125.392H63.8484V123.934H61.9764V125.392H56.2884V126.814H69.4464V125.392ZM59.1504 136.912H66.6564V138.802H59.1504V136.912ZM57.3144 140.188H68.4744V135.508H57.3144V140.188ZM59.5464 129.658C59.5464 128.938 60.6984 128.614 62.9124 128.614C65.1084 128.614 66.2784 128.938 66.2784 129.658C66.2784 130.36 65.1084 130.702 62.9124 130.702C60.6984 130.702 59.5464 130.36 59.5464 129.658ZM63.8484 132.988V131.962C66.6744 131.818 68.2404 131.026 68.2404 129.658C68.2404 128.128 66.3324 127.336 62.9124 127.336C59.4744 127.336 57.5664 128.128 57.5664 129.658C57.5664 131.026 59.1324 131.818 61.9764 131.962V132.988H55.5504V134.446H70.2564V132.988H63.8484ZM75.133 127.588H76.771V134.878C76.213 134.914 75.673 134.932 75.133 134.95V127.588ZM78.463 127.588H79.669V126.094H72.271V127.588H73.441V134.986C72.901 134.986 72.397 134.986 71.947 134.986L72.163 136.516C74.215 136.516 77.563 136.444 80.101 135.94L79.975 134.59C79.507 134.662 78.985 134.716 78.463 134.77V127.588ZM81.145 130.198H79.219V131.836H81.145V139.576H82.891V124.492H81.145V130.198ZM84.331 124.132V140.386H86.113V124.132H84.331ZM100.188 124.114V140.422H102.06V124.114H100.188ZM93.4016 125.32C90.9896 125.32 89.2256 127.552 89.2256 131.044C89.2256 134.572 90.9896 136.786 93.4016 136.786C95.8316 136.786 97.5956 134.572 97.5956 131.044C97.5956 127.552 95.8316 125.32 93.4016 125.32ZM93.4016 126.994C94.8236 126.994 95.8136 128.524 95.8136 131.044C95.8136 133.6 94.8236 135.13 93.4016 135.13C91.9976 135.13 91.0076 133.6 91.0076 131.044C91.0076 128.524 91.9976 126.994 93.4016 126.994ZM111.238 127.282H114.856V125.752H105.748V127.282H109.366V128.83C109.366 131.62 107.692 134.644 105.172 135.814L106.234 137.29C108.142 136.372 109.6 134.446 110.32 132.178C111.076 134.284 112.534 136.048 114.424 136.876L115.45 135.418C112.912 134.338 111.238 131.53 111.238 128.83V127.282ZM116.746 124.132V140.386H118.618V124.132H116.746ZM134.853 128.794H125.547V124.708H123.693V130.306H134.853V128.794ZM125.439 135.238H123.585V140.026H134.943V138.532H125.439V135.238ZM121.785 132.25V133.744H136.545V132.25H121.785ZM289.241 132.448H292.553V130.954H286.019V127.12H292.481V125.608H284.165V132.448H287.387V135.454C285.857 135.49 284.381 135.508 283.031 135.508L283.265 137.038C286.325 137.056 290.105 137.002 293.615 136.444L293.471 135.076C292.121 135.238 290.681 135.328 289.241 135.382V132.448ZM294.461 124.096V140.422H296.333V124.096H294.461ZM303.982 126.544C305.386 126.544 306.412 127.48 306.412 128.866C306.412 130.234 305.386 131.17 303.982 131.17C302.56 131.17 301.516 130.234 301.516 128.866C301.516 127.48 302.56 126.544 303.982 126.544ZM311.128 129.604V133.33H312.982V124.132H311.128V128.074H308.104C307.726 126.238 306.088 125.014 303.982 125.014C301.552 125.014 299.752 126.598 299.752 128.866C299.752 131.116 301.552 132.7 303.982 132.7C306.106 132.7 307.762 131.44 308.104 129.604H311.128ZM311.326 133.96H309.508V134.752C309.508 135.994 308.86 137.542 307.402 138.532C305.98 137.632 305.35 136.156 305.35 134.752V133.96H303.55V134.752C303.55 136.354 302.47 138.082 300.382 138.82L301.3 140.188C302.794 139.612 303.856 138.568 304.432 137.29C304.936 138.604 305.908 139.738 307.42 140.332C308.914 139.702 309.868 138.532 310.39 137.236C310.948 138.55 312.01 139.63 313.576 140.188L314.494 138.82C312.388 138.136 311.326 136.462 311.326 134.752V133.96ZM323.42 125.05C320.018 125.05 317.444 126.886 317.444 129.64C317.444 132.412 320.018 134.23 323.42 134.23C326.804 134.23 329.396 132.412 329.396 129.64C329.396 126.886 326.804 125.05 323.42 125.05ZM323.42 126.58C325.814 126.58 327.596 127.768 327.596 129.64C327.596 131.512 325.814 132.7 323.42 132.7C321.008 132.7 319.244 131.512 319.244 129.64C319.244 127.768 321.008 126.58 323.42 126.58ZM316.076 136.804V138.334H330.8V136.804H316.076ZM340.789 132.376V129.424H344.263V132.376H340.789ZM338.971 134.878H335.065V127.12H338.971V134.878ZM344.263 124.114V127.93H340.789V125.644H333.247V136.336H340.789V133.87H344.263V140.422H346.135V124.114H344.263ZM349.697 142.6C351.551 141.898 352.649 140.44 352.649 138.55C352.649 137.164 352.055 136.318 351.047 136.318C350.255 136.318 349.607 136.84 349.607 137.65C349.607 138.514 350.255 138.982 350.993 138.982C351.065 138.982 351.119 138.982 351.191 138.964C351.191 140.008 350.471 140.926 349.229 141.43L349.697 142.6ZM13.338 158.594C13.788 156.92 13.788 155.57 13.788 154.274V152.906H2.628V154.4H11.952C11.952 155.624 11.934 156.794 11.52 158.396L13.338 158.594ZM8.208 166.964C5.796 166.964 4.32 166.37 4.32 165.344C4.32 164.336 5.796 163.742 8.208 163.742C10.602 163.742 12.042 164.336 12.042 165.344C12.042 166.37 10.602 166.964 8.208 166.964ZM8.208 162.32C4.698 162.32 2.484 163.472 2.484 165.344C2.484 167.234 4.698 168.386 8.208 168.386C11.664 168.386 13.896 167.234 13.896 165.344C13.896 163.472 11.664 162.32 8.208 162.32ZM8.568 159.566V156.578H6.696V159.566H0.936V161.06H15.588V159.566H8.568ZM28.5286 158.378H21.0946V156.308H28.5286V158.378ZM30.3826 152.762H28.5286V154.814H21.0946V152.762H19.2406V159.872H30.3826V152.762ZM32.2006 161.636H17.4586V163.13H23.8486V168.404H25.7026V163.13H32.2006V161.636ZM45.0692 154.904H35.9072V158.558H47.1932V157.262H37.7252V156.11H46.9052V152.528H35.8712V153.806H45.0692V154.904ZM37.5992 165.686H46.9592V162.05H35.7272V163.328H45.1232V164.48H35.7632V168.206H47.4452V166.928H37.5992V165.686ZM34.0172 159.584V160.952H48.7592V159.584H34.0172ZM59.9288 154.364C61.3508 154.364 62.3408 155.102 62.3408 156.236C62.3408 157.388 61.3508 158.126 59.9288 158.126C58.5248 158.126 57.5168 157.388 57.5168 156.236C57.5168 155.102 58.5248 154.364 59.9288 154.364ZM59.9288 159.656C62.3588 159.656 64.1228 158.252 64.1228 156.236C64.1228 154.238 62.3588 152.834 59.9288 152.834C57.4988 152.834 55.7348 154.238 55.7348 156.236C55.7348 158.252 57.4988 159.656 59.9288 159.656ZM65.1668 160.268C61.6568 160.79 57.5708 160.844 54.6368 160.844L54.8528 162.374C56.1128 162.374 57.5528 162.356 59.0828 162.302V167.9H60.9368V162.194C62.3768 162.086 63.8708 161.924 65.2928 161.636L65.1668 160.268ZM66.2288 152.132V168.404H68.0828V152.132H66.2288ZM75.1553 163.202C74.0573 163.202 73.2833 162.32 73.2833 160.97C73.2833 159.62 74.0573 158.72 75.1553 158.72C76.2533 158.72 77.0273 159.62 77.0273 160.97C77.0273 162.32 76.2533 163.202 75.1553 163.202ZM75.1553 157.19C73.1033 157.19 71.6273 158.72 71.6273 160.97C71.6273 163.202 73.1033 164.75 75.1553 164.75C77.2073 164.75 78.6833 163.202 78.6833 160.97C78.6833 158.72 77.2073 157.19 75.1553 157.19ZM76.0733 152.6H74.2373V154.778H71.1593V156.272H79.1153V154.778H76.0733V152.6ZM83.2733 152.132V158.864H81.5453V152.474H79.8173V167.63H81.5453V160.394H83.2733V168.386H85.0373V152.132H83.2733ZM105.675 153.392H100.077V151.934H98.2049V153.392H92.5169V154.814H105.675V153.392ZM95.3789 164.912H102.885V166.802H95.3789V164.912ZM93.5429 168.188H104.703V163.508H93.5429V168.188ZM95.7749 157.658C95.7749 156.938 96.9269 156.614 99.1409 156.614C101.337 156.614 102.507 156.938 102.507 157.658C102.507 158.36 101.337 158.702 99.1409 158.702C96.9269 158.702 95.7749 158.36 95.7749 157.658ZM100.077 160.988V159.962C102.903 159.818 104.469 159.026 104.469 157.658C104.469 156.128 102.561 155.336 99.1409 155.336C95.7029 155.336 93.7949 156.128 93.7949 157.658C93.7949 159.026 95.3609 159.818 98.2049 159.962V160.988H91.7789V162.446H106.485V160.988H100.077ZM111.362 155.588H113V162.878C112.442 162.914 111.902 162.932 111.362 162.95V155.588ZM114.692 155.588H115.898V154.094H108.5V155.588H109.67V162.986C109.13 162.986 108.625 162.986 108.176 162.986L108.392 164.516C110.444 164.516 113.792 164.444 116.33 163.94L116.204 162.59C115.736 162.662 115.214 162.716 114.692 162.77V155.588ZM117.374 158.198H115.448V159.836H117.374V167.576H119.12V152.492H117.374V158.198ZM120.56 152.132V168.386H122.342V152.132H120.56ZM136.416 152.114V168.422H138.288V152.114H136.416ZM129.63 153.32C127.218 153.32 125.454 155.552 125.454 159.044C125.454 162.572 127.218 164.786 129.63 164.786C132.06 164.786 133.824 162.572 133.824 159.044C133.824 155.552 132.06 153.32 129.63 153.32ZM129.63 154.994C131.052 154.994 132.042 156.524 132.042 159.044C132.042 161.6 131.052 163.13 129.63 163.13C128.226 163.13 127.236 161.6 127.236 159.044C127.236 156.524 128.226 154.994 129.63 154.994ZM147.467 155.282H151.085V153.752H141.977V155.282H145.595V156.83C145.595 159.62 143.921 162.644 141.401 163.814L142.463 165.29C144.371 164.372 145.829 162.446 146.549 160.178C147.305 162.284 148.763 164.048 150.653 164.876L151.679 163.418C149.141 162.338 147.467 159.53 147.467 156.83V155.282ZM152.975 152.132V168.386H154.847V152.132H152.975ZM161.685 163.184C160.569 163.184 159.885 161.726 159.885 159.152C159.885 156.578 160.569 155.138 161.685 155.138C162.801 155.138 163.485 156.578 163.485 159.152C163.485 161.726 162.801 163.184 161.685 163.184ZM166.887 158.288H165.141C164.943 155.246 163.629 153.392 161.685 153.392C159.579 153.392 158.193 155.588 158.193 159.152C158.193 162.716 159.579 164.93 161.685 164.93C163.665 164.93 164.997 162.986 165.159 159.818H166.887V167.612H168.615V152.438H166.887V158.288ZM170.145 152.132V168.368H171.909V152.132H170.145ZM188.299 159.476C185.869 158.63 184.483 156.614 184.483 154.598V154.508H187.867V152.996H179.173V154.508H182.611V154.616C182.611 156.794 181.135 158.954 178.615 159.818L179.569 161.276C181.495 160.61 182.863 159.188 183.583 157.442C184.285 159.008 185.581 160.286 187.381 160.934L188.299 159.476ZM190.243 166.694H183.367V164.948H190.243V166.694ZM190.243 163.49H183.367V161.726H181.531V168.188H192.097V161.726H190.243V163.49ZM190.225 152.132V155.93H187.363V157.46H190.225V161.006H192.097V152.132H190.225ZM209.033 157.298C205.775 156.866 203.471 155.066 203.471 153.014V152.402H201.563V153.014C201.563 155.03 199.205 156.866 196.001 157.298L196.685 158.738C199.313 158.342 201.473 157.1 202.499 155.372C203.543 157.118 205.721 158.324 208.331 158.738L209.033 157.298ZM196.811 164.552H206.225V168.404H208.079V163.058H196.811V164.552ZM203.435 160.16V157.856H201.581V160.16H195.173V161.654H209.915V160.16H203.435ZM221.362 153.986H217.492V152.132H215.638V153.986H211.768V155.462H221.362V153.986ZM214.396 159.296C214.396 158.27 215.278 157.658 216.556 157.658C217.852 157.658 218.734 158.27 218.734 159.296C218.734 160.322 217.852 160.934 216.556 160.934C215.278 160.934 214.396 160.322 214.396 159.296ZM220.498 159.296C220.498 157.46 218.896 156.218 216.556 156.218C214.234 156.218 212.614 157.46 212.614 159.296C212.614 161.15 214.234 162.374 216.556 162.374C218.896 162.374 220.498 161.15 220.498 159.296ZM216.016 163.382H214.144V168.08H225.088V166.568H216.016V163.382ZM224.44 157.316V152.132H222.586V164.318H224.44V158.846H226.744V157.316H224.44Z" fill="#444444"/>
<path d="M6.606 111.234C9.54 111.234 11.52 109.632 11.52 105.312V97.734H9.504V105.456C9.504 108.444 8.28 109.416 6.606 109.416C4.95 109.416 3.762 108.444 3.762 105.456V97.734H1.674V105.312C1.674 109.632 3.672 111.234 6.606 111.234ZM13.2958 111H15.5098L17.2018 107.706C17.5258 107.022 17.8678 106.356 18.2278 105.546H18.2998C18.7138 106.356 19.0558 107.022 19.3978 107.706L21.1438 111H23.4658L19.6498 104.268L23.2138 97.734H21.0178L19.4518 100.848C19.1458 101.46 18.8938 102.054 18.5518 102.846H18.4618C18.0658 102.054 17.7778 101.46 17.4538 100.848L15.8518 97.734H13.5298L17.0938 104.16L13.2958 111ZM25.4765 111H27.5645V107.004L29.5985 104.502L33.3425 111H35.6645L30.8765 102.864L34.9805 97.734H32.6585L27.6185 104.016H27.5645V97.734H25.4765V111ZM37.412 111H39.284V104.448C39.284 103.26 39.122 101.55 39.032 100.344H39.104L40.148 103.404L42.47 109.722H43.766L46.07 103.404L47.132 100.344H47.204C47.096 101.55 46.934 103.26 46.934 104.448V111H48.878V97.734H46.466L44.072 104.448C43.766 105.33 43.514 106.23 43.208 107.112H43.118C42.812 106.23 42.542 105.33 42.236 104.448L39.806 97.734H37.412V111ZM56.7634 97.266C54.2254 97.266 52.3534 98.868 52.3534 101.172C52.3534 103.476 54.2254 105.078 56.7634 105.078C59.3014 105.078 61.1914 103.476 61.1914 101.172C61.1914 98.868 59.3014 97.266 56.7634 97.266ZM56.7634 98.85C58.2754 98.85 59.3734 99.75 59.3734 101.172C59.3734 102.576 58.2754 103.494 56.7634 103.494C55.2694 103.494 54.1714 102.576 54.1714 101.172C54.1714 99.75 55.2694 98.85 56.7634 98.85ZM63.0274 96.114V112.404H64.8994V96.114H63.0274ZM51.8314 108.966C54.7114 108.966 58.5994 108.93 62.1814 108.246L62.0554 106.896C58.5634 107.418 54.5134 107.436 51.5974 107.436L51.8314 108.966ZM78.8169 99.282H82.2549V97.752H73.4169V99.282H76.9629V100.848C76.9629 103.548 75.3069 106.626 72.8229 107.814L73.8849 109.29C75.7569 108.372 77.1969 106.428 77.9169 104.16C78.6549 106.212 80.0409 108.012 81.8589 108.876L82.8849 107.418C80.4189 106.248 78.8169 103.368 78.8169 100.848V99.282ZM88.2489 102.54H85.7109V96.132H83.8569V112.386H85.7109V104.07H88.2489V102.54ZM99.2635 104.088C96.7975 103.242 95.3935 101.19 95.3935 99.03V97.122H93.5215V99.012C93.5215 101.388 92.1355 103.584 89.5255 104.466L90.5335 105.906C92.4415 105.222 93.7915 103.836 94.4935 102.054C95.2135 103.638 96.5275 104.934 98.3275 105.564L99.2635 104.088ZM93.9715 106.95H92.1175V112.08H103.026V110.568H93.9715V106.95ZM102.378 100.992V96.114H100.524V108.102H102.378V102.522H104.682V100.992H102.378ZM143.07 125.266V126.778H148.65C148.326 129.298 146.112 131.35 142.35 132.43L143.106 133.906C147.858 132.538 150.666 129.514 150.666 125.266H143.07ZM149.91 138.928C147.75 138.928 146.382 138.28 146.382 137.164C146.382 136.03 147.75 135.382 149.91 135.382C152.088 135.382 153.438 136.03 153.438 137.164C153.438 138.28 152.088 138.928 149.91 138.928ZM149.91 133.906C146.67 133.906 144.546 135.148 144.546 137.164C144.546 139.162 146.67 140.386 149.91 140.386C153.168 140.386 155.274 139.162 155.274 137.164C155.274 135.148 153.168 133.906 149.91 133.906ZM155.094 128.146V124.132H153.24V133.69H155.094V129.676H157.398V128.146H155.094ZM164.201 125.266C161.663 125.266 159.791 126.868 159.791 129.172C159.791 131.476 161.663 133.078 164.201 133.078C166.739 133.078 168.629 131.476 168.629 129.172C168.629 126.868 166.739 125.266 164.201 125.266ZM164.201 126.85C165.713 126.85 166.811 127.75 166.811 129.172C166.811 130.576 165.713 131.494 164.201 131.494C162.707 131.494 161.609 130.576 161.609 129.172C161.609 127.75 162.707 126.85 164.201 126.85ZM170.465 124.114V140.404H172.337V124.114H170.465ZM159.269 136.966C162.149 136.966 166.037 136.93 169.619 136.246L169.493 134.896C166.001 135.418 161.951 135.436 159.035 135.436L159.269 136.966ZM181.202 136.66H190.598V140.386H192.452V135.166H181.202V136.66ZM183.236 126.256H190.562V128.938H183.236V126.256ZM187.826 132.232V130.414H192.38V124.78H181.418V130.414H185.954V132.232H179.546V133.726H194.27V132.232H187.826ZM205.789 131.836C203.359 130.99 201.973 128.956 201.973 126.94V126.634H205.357V125.14H196.663V126.634H200.101V126.958C200.101 129.154 198.625 131.296 196.105 132.16L197.059 133.618C198.985 132.952 200.353 131.548 201.073 129.802C201.775 131.368 203.071 132.646 204.871 133.276L205.789 131.836ZM198.625 136.138H207.733V140.386H209.587V134.644H198.625V136.138ZM207.733 124.114V128.2H204.889V129.73H207.733V133.834H209.587V124.114H207.733ZM220.026 125.05C216.624 125.05 214.05 126.886 214.05 129.64C214.05 132.412 216.624 134.23 220.026 134.23C223.41 134.23 226.002 132.412 226.002 129.64C226.002 126.886 223.41 125.05 220.026 125.05ZM220.026 126.58C222.42 126.58 224.202 127.768 224.202 129.64C224.202 131.512 222.42 132.7 220.026 132.7C217.614 132.7 215.85 131.512 215.85 129.64C215.85 127.768 217.614 126.58 220.026 126.58ZM212.682 136.804V138.334H227.406V136.804H212.682ZM237.502 136.948V134.176H242.578V132.682H232.84V130.414H242.218V125.266H230.986V126.76H240.382V128.938H231.022V134.176H235.648V136.948H229.24V138.478H243.964V136.948H237.502ZM254.774 127.426H257.456V125.896H250.112V127.426H252.974V128.596C252.974 131.494 251.894 134.428 249.59 135.868L250.706 137.236C252.272 136.246 253.316 134.5 253.892 132.448C254.468 134.338 255.476 135.94 257.006 136.84L258.086 135.49C255.818 134.176 254.774 131.368 254.774 128.596V127.426ZM258.662 129.838H256.268V131.35H258.662V139.594H260.408V124.438H258.662V129.838ZM261.938 124.114V140.368H263.702V124.114H261.938ZM275.958 131.854C273.474 131.026 272.106 129.028 272.106 126.976V126.688H275.508V125.176H266.778V126.688H270.234V126.976C270.234 129.208 268.812 131.278 266.238 132.142L267.21 133.6C269.118 132.934 270.468 131.602 271.188 129.892C271.89 131.44 273.186 132.682 275.004 133.276L275.958 131.854ZM268.398 136.21H277.236V140.386H279.09V134.716H268.398V136.21ZM281.394 128.272H279.09V124.114H277.236V133.924H279.09V129.802H281.394V128.272ZM235.808 154.904H243.548V159.728H235.808V154.904ZM240.614 164.876V161.204H245.366V153.428H233.99V161.204H238.76V164.876H232.352V166.388H247.076V164.876H240.614ZM261.852 158.054H252.744V154.544H261.654V153.05H250.836V159.548H261.852V158.054ZM263.634 161.42H248.874V162.95H255.282V168.35H257.136V162.95H263.634V161.42ZM276.503 154.904H267.341V158.558H278.627V157.262H269.159V156.11H278.339V152.528H267.305V153.806H276.503V154.904ZM269.033 165.686H278.393V162.05H267.161V163.328H276.557V164.48H267.197V168.206H278.879V166.928H269.033V165.686ZM265.451 159.584V160.952H280.193V159.584H265.451ZM295.628 153.59H291.938V152.06H290.066V153.59H286.34V154.958H295.628V153.59ZM288.86 158.036C288.86 157.262 289.688 156.794 290.984 156.794C292.28 156.794 293.108 157.262 293.108 158.036C293.108 158.792 292.28 159.242 290.984 159.242C289.688 159.242 288.86 158.792 288.86 158.036ZM296.078 161.096C294.764 161.294 293.342 161.402 291.938 161.492V160.466C293.738 160.25 294.854 159.35 294.854 158.036C294.854 156.488 293.324 155.534 290.984 155.534C288.644 155.534 287.114 156.488 287.114 158.036C287.114 159.368 288.248 160.25 290.066 160.466V161.582C288.572 161.618 287.132 161.636 285.926 161.636L286.142 163.112C288.95 163.094 292.82 163.022 296.222 162.374L296.078 161.096ZM290.138 164.03H288.284V168.08H299.336V166.568H290.138V164.03ZM298.796 157.64V152.114H296.942V164.84H298.796V159.17H301.028V157.64H298.796ZM304.609 156.974C304.609 155.552 305.653 154.616 307.093 154.616C308.497 154.616 309.541 155.552 309.541 156.974C309.541 158.378 308.497 159.314 307.093 159.314C305.653 159.314 304.609 158.378 304.609 156.974ZM314.239 155.876V158.072H311.143C311.251 157.73 311.305 157.37 311.305 156.974C311.305 156.578 311.251 156.218 311.161 155.876H314.239ZM314.239 159.566V161.708H316.093V152.114H314.239V154.364H310.315C309.559 153.554 308.425 153.05 307.093 153.05C304.663 153.05 302.845 154.67 302.845 156.974C302.845 159.26 304.663 160.88 307.093 160.88C308.407 160.88 309.559 160.394 310.315 159.566H314.239ZM310.675 166.928C308.371 166.928 307.021 166.334 307.021 165.218C307.021 164.138 308.371 163.526 310.675 163.526C312.997 163.526 314.329 164.138 314.329 165.218C314.329 166.334 312.997 166.928 310.675 166.928ZM310.675 162.068C307.291 162.068 305.203 163.238 305.203 165.218C305.203 167.216 307.291 168.386 310.675 168.386C314.059 168.386 316.165 167.216 316.165 165.218C316.165 163.238 314.059 162.068 310.675 162.068ZM328.8 153.68H324.93V151.988H323.076V153.68H319.206V155.174H328.8V153.68ZM321.834 158.63C321.834 157.712 322.698 157.154 323.994 157.154C325.29 157.154 326.172 157.712 326.172 158.63C326.172 159.566 325.29 160.124 323.994 160.124C322.698 160.124 321.834 159.566 321.834 158.63ZM327.936 158.63C327.936 156.92 326.352 155.768 323.994 155.768C321.654 155.768 320.052 156.92 320.052 158.63C320.052 160.358 321.654 161.51 323.994 161.51C326.352 161.51 327.936 160.358 327.936 158.63ZM330.042 166.712H323.328V165.218H330.042V166.712ZM330.042 163.778H323.328V162.284H321.492V168.188H331.878V162.284H330.042V163.778ZM334.182 156.182H331.878V152.132H330.024V161.618H331.878V157.712H334.182V156.182ZM338.536 153.716H336.7V164.282H338.086C340.606 164.282 343.234 164.084 346.024 163.508L345.826 161.96C343.27 162.482 340.84 162.68 338.536 162.698V153.716ZM347.32 152.132V168.386H349.174V152.132H347.32ZM354.807 155.174H360.513V153.662H352.953V164.408H354.285C357.219 164.408 359.415 164.318 361.881 163.868L361.683 162.338C359.415 162.734 357.435 162.842 354.807 162.86V155.174ZM367.425 158.378H364.887V152.114H363.033V168.404H364.887V159.908H367.425V158.378ZM370.627 167.234C371.401 167.234 372.013 166.64 372.013 165.794C372.013 164.93 371.401 164.318 370.627 164.318C369.853 164.318 369.241 164.93 369.241 165.794C369.241 166.64 369.853 167.234 370.627 167.234Z" fill="#1E73FF"/>
<path d="M422.606 83.234C425.54 83.234 427.52 81.632 427.52 77.312V69.734H425.504V77.456C425.504 80.444 424.28 81.416 422.606 81.416C420.95 81.416 419.762 80.444 419.762 77.456V69.734H417.674V77.312C417.674 81.632 419.672 83.234 422.606 83.234ZM429.296 83H431.51L433.202 79.706C433.526 79.022 433.868 78.356 434.228 77.546H434.3C434.714 78.356 435.056 79.022 435.398 79.706L437.144 83H439.466L435.65 76.268L439.214 69.734H437.018L435.452 72.848C435.146 73.46 434.894 74.054 434.552 74.846H434.462C434.066 74.054 433.778 73.46 433.454 72.848L431.852 69.734H429.53L433.094 76.16L429.296 83ZM441.476 83H443.564V79.004L445.598 76.502L449.342 83H451.664L446.876 74.864L450.98 69.734H448.658L443.618 76.016H443.564V69.734H441.476V83ZM453.412 83H455.284V76.448C455.284 75.26 455.122 73.55 455.032 72.344H455.104L456.148 75.404L458.47 81.722H459.766L462.07 75.404L463.132 72.344H463.204C463.096 73.55 462.934 75.26 462.934 76.448V83H464.878V69.734H462.466L460.072 76.448C459.766 77.33 459.514 78.23 459.208 79.112H459.118C458.812 78.23 458.542 77.33 458.236 76.448L455.806 69.734H453.412V83ZM485.446 69.392H479.848V67.934H477.976V69.392H472.288V70.814H485.446V69.392ZM475.15 80.912H482.656V82.802H475.15V80.912ZM473.314 84.188H484.474V79.508H473.314V84.188ZM475.546 73.658C475.546 72.938 476.698 72.614 478.912 72.614C481.108 72.614 482.278 72.938 482.278 73.658C482.278 74.36 481.108 74.702 478.912 74.702C476.698 74.702 475.546 74.36 475.546 73.658ZM479.848 76.988V75.962C482.674 75.818 484.24 75.026 484.24 73.658C484.24 72.128 482.332 71.336 478.912 71.336C475.474 71.336 473.566 72.128 473.566 73.658C473.566 75.026 475.132 75.818 477.976 75.962V76.988H471.55V78.446H486.256V76.988H479.848ZM491.133 71.588H492.771V78.878C492.213 78.914 491.673 78.932 491.133 78.95V71.588ZM494.463 71.588H495.669V70.094H488.271V71.588H489.441V78.986C488.901 78.986 488.397 78.986 487.947 78.986L488.163 80.516C490.215 80.516 493.563 80.444 496.101 79.94L495.975 78.59C495.507 78.662 494.985 78.716 494.463 78.77V71.588ZM497.145 74.198H495.219V75.836H497.145V83.576H498.891V68.492H497.145V74.198ZM500.331 68.132V84.386H502.113V68.132H500.331ZM516.188 68.114V84.422H518.06V68.114H516.188ZM509.402 69.32C506.99 69.32 505.226 71.552 505.226 75.044C505.226 78.572 506.99 80.786 509.402 80.786C511.832 80.786 513.596 78.572 513.596 75.044C513.596 71.552 511.832 69.32 509.402 69.32ZM509.402 70.994C510.824 70.994 511.814 72.524 511.814 75.044C511.814 77.6 510.824 79.13 509.402 79.13C507.998 79.13 507.008 77.6 507.008 75.044C507.008 72.524 507.998 70.994 509.402 70.994ZM527.238 71.282H530.856V69.752H521.748V71.282H525.366V72.83C525.366 75.62 523.692 78.644 521.172 79.814L522.234 81.29C524.142 80.372 525.6 78.446 526.32 76.178C527.076 78.284 528.534 80.048 530.424 80.876L531.45 79.418C528.912 78.338 527.238 75.53 527.238 72.83V71.282ZM532.746 68.132V84.386H534.618V68.132H532.746ZM543.041 69.266C540.503 69.266 538.631 70.868 538.631 73.172C538.631 75.476 540.503 77.078 543.041 77.078C545.579 77.078 547.469 75.476 547.469 73.172C547.469 70.868 545.579 69.266 543.041 69.266ZM543.041 70.85C544.553 70.85 545.651 71.75 545.651 73.172C545.651 74.576 544.553 75.494 543.041 75.494C541.547 75.494 540.449 74.576 540.449 73.172C540.449 71.75 541.547 70.85 543.041 70.85ZM549.305 68.114V84.404H551.177V68.114H549.305ZM538.109 80.966C540.989 80.966 544.877 80.93 548.459 80.246L548.333 78.896C544.841 79.418 540.791 79.436 537.875 79.436L538.109 80.966ZM562.862 70.904H570.602V75.728H562.862V70.904ZM567.668 80.876V77.204H572.42V69.428H561.044V77.204H565.814V80.876H559.406V82.388H574.13V80.876H567.668ZM589.015 73.172H579.637V70.274H588.889V68.78H577.801V74.684H589.015V73.172ZM579.637 79.274H577.783V84.062H589.141V82.568H579.637V79.274ZM575.983 76.25V77.762H590.689V76.25H575.983ZM608.566 73.244H601.24V70.328H608.566V73.244ZM610.384 68.852H599.422V74.72H610.384V68.852ZM601.204 79.382H599.35V84.08H610.654V82.568H601.204V79.382ZM597.55 76.322V77.816H604.138V80.858H605.992V77.816H612.292V76.322H597.55ZM620.013 69.446H618.141V72.128C618.141 75.17 616.557 78.302 614.019 79.544L615.189 81.02C617.043 80.066 618.375 78.176 619.095 75.872C619.797 78.05 621.111 79.832 622.947 80.75L624.045 79.256C621.561 78.104 620.013 75.152 620.013 72.128V69.446ZM625.755 68.096V73.442H622.281V74.954H625.755V84.404H627.627V68.096H625.755ZM643.736 72.794H634.43V68.708H632.576V74.306H643.736V72.794ZM634.322 79.238H632.468V84.026H643.826V82.532H634.322V79.238ZM630.668 76.25V77.744H645.428V76.25H630.668ZM533.784 96.132V104.862H535.638V96.132H533.784ZM525.018 105.618V112.188H535.638V105.618H533.802V107.418H526.854V105.618H525.018ZM526.854 108.858H533.802V110.694H526.854V108.858ZM526.872 96.87C524.388 96.87 522.552 98.418 522.552 100.65C522.552 102.882 524.388 104.43 526.872 104.43C529.356 104.43 531.174 102.882 531.174 100.65C531.174 98.418 529.356 96.87 526.872 96.87ZM526.872 98.4C528.33 98.4 529.374 99.3 529.374 100.65C529.374 102.018 528.33 102.9 526.872 102.9C525.396 102.9 524.37 102.018 524.37 100.65C524.37 99.3 525.396 98.4 526.872 98.4ZM541.595 97.716H539.759V108.282H541.145C543.665 108.282 546.293 108.084 549.083 107.508L548.885 105.96C546.329 106.482 543.899 106.68 541.595 106.698V97.716ZM550.379 96.132V112.386H552.233V96.132H550.379ZM557.865 99.174H563.571V97.662H556.011V108.408H557.343C560.277 108.408 562.473 108.318 564.939 107.868L564.741 106.338C562.473 106.734 560.493 106.842 557.865 106.86V99.174ZM570.483 102.378H567.945V96.114H566.091V112.404H567.945V103.908H570.483V102.378ZM573.686 111.234C574.46 111.234 575.072 110.64 575.072 109.794C575.072 108.93 574.46 108.318 573.686 108.318C572.912 108.318 572.3 108.93 572.3 109.794C572.3 110.64 572.912 111.234 573.686 111.234ZM422.606 139.234C425.54 139.234 427.52 137.632 427.52 133.312V125.734H425.504V133.456C425.504 136.444 424.28 137.416 422.606 137.416C420.95 137.416 419.762 136.444 419.762 133.456V125.734H417.674V133.312C417.674 137.632 419.672 139.234 422.606 139.234ZM429.296 139H431.51L433.202 135.706C433.526 135.022 433.868 134.356 434.228 133.546H434.3C434.714 134.356 435.056 135.022 435.398 135.706L437.144 139H439.466L435.65 132.268L439.214 125.734H437.018L435.452 128.848C435.146 129.46 434.894 130.054 434.552 130.846H434.462C434.066 130.054 433.778 129.46 433.454 128.848L431.852 125.734H429.53L433.094 132.16L429.296 139ZM441.476 139H443.564V135.004L445.598 132.502L449.342 139H451.664L446.876 130.864L450.98 125.734H448.658L443.618 132.016H443.564V125.734H441.476V139ZM453.412 139H455.284V132.448C455.284 131.26 455.122 129.55 455.032 128.344H455.104L456.148 131.404L458.47 137.722H459.766L462.07 131.404L463.132 128.344H463.204C463.096 129.55 462.934 131.26 462.934 132.448V139H464.878V125.734H462.466L460.072 132.448C459.766 133.33 459.514 134.23 459.208 135.112H459.118C458.812 134.23 458.542 133.33 458.236 132.448L455.806 125.734H453.412V139ZM485.446 125.392H479.848V123.934H477.976V125.392H472.288V126.814H485.446V125.392ZM475.15 136.912H482.656V138.802H475.15V136.912ZM473.314 140.188H484.474V135.508H473.314V140.188ZM475.546 129.658C475.546 128.938 476.698 128.614 478.912 128.614C481.108 128.614 482.278 128.938 482.278 129.658C482.278 130.36 481.108 130.702 478.912 130.702C476.698 130.702 475.546 130.36 475.546 129.658ZM479.848 132.988V131.962C482.674 131.818 484.24 131.026 484.24 129.658C484.24 128.128 482.332 127.336 478.912 127.336C475.474 127.336 473.566 128.128 473.566 129.658C473.566 131.026 475.132 131.818 477.976 131.962V132.988H471.55V134.446H486.256V132.988H479.848ZM491.133 127.588H492.771V134.878C492.213 134.914 491.673 134.932 491.133 134.95V127.588ZM494.463 127.588H495.669V126.094H488.271V127.588H489.441V134.986C488.901 134.986 488.397 134.986 487.947 134.986L488.163 136.516C490.215 136.516 493.563 136.444 496.101 135.94L495.975 134.59C495.507 134.662 494.985 134.716 494.463 134.77V127.588ZM497.145 130.198H495.219V131.836H497.145V139.576H498.891V124.492H497.145V130.198ZM500.331 124.132V140.386H502.113V124.132H500.331ZM516.188 124.114V140.422H518.06V124.114H516.188ZM509.402 125.32C506.99 125.32 505.226 127.552 505.226 131.044C505.226 134.572 506.99 136.786 509.402 136.786C511.832 136.786 513.596 134.572 513.596 131.044C513.596 127.552 511.832 125.32 509.402 125.32ZM509.402 126.994C510.824 126.994 511.814 128.524 511.814 131.044C511.814 133.6 510.824 135.13 509.402 135.13C507.998 135.13 507.008 133.6 507.008 131.044C507.008 128.524 507.998 126.994 509.402 126.994ZM527.238 127.282H530.856V125.752H521.748V127.282H525.366V128.83C525.366 131.62 523.692 134.644 521.172 135.814L522.234 137.29C524.142 136.372 525.6 134.446 526.32 132.178C527.076 134.284 528.534 136.048 530.424 136.876L531.45 135.418C528.912 134.338 527.238 131.53 527.238 128.83V127.282ZM532.746 124.132V140.386H534.618V124.132H532.746ZM550.853 128.794H541.547V124.708H539.693V130.306H550.853V128.794ZM541.439 135.238H539.585V140.026H550.943V138.532H541.439V135.238ZM537.785 132.25V133.744H552.545V132.25H537.785ZM705.241 132.448H708.553V130.954H702.019V127.12H708.481V125.608H700.165V132.448H703.387V135.454C701.857 135.49 700.381 135.508 699.031 135.508L699.265 137.038C702.325 137.056 706.105 137.002 709.615 136.444L709.471 135.076C708.121 135.238 706.681 135.328 705.241 135.382V132.448ZM710.461 124.096V140.422H712.333V124.096H710.461ZM719.982 126.544C721.386 126.544 722.412 127.48 722.412 128.866C722.412 130.234 721.386 131.17 719.982 131.17C718.56 131.17 717.516 130.234 717.516 128.866C717.516 127.48 718.56 126.544 719.982 126.544ZM727.128 129.604V133.33H728.982V124.132H727.128V128.074H724.104C723.726 126.238 722.088 125.014 719.982 125.014C717.552 125.014 715.752 126.598 715.752 128.866C715.752 131.116 717.552 132.7 719.982 132.7C722.106 132.7 723.762 131.44 724.104 129.604H727.128ZM727.326 133.96H725.508V134.752C725.508 135.994 724.86 137.542 723.402 138.532C721.98 137.632 721.35 136.156 721.35 134.752V133.96H719.55V134.752C719.55 136.354 718.47 138.082 716.382 138.82L717.3 140.188C718.794 139.612 719.856 138.568 720.432 137.29C720.936 138.604 721.908 139.738 723.42 140.332C724.914 139.702 725.868 138.532 726.39 137.236C726.948 138.55 728.01 139.63 729.576 140.188L730.494 138.82C728.388 138.136 727.326 136.462 727.326 134.752V133.96ZM739.42 125.05C736.018 125.05 733.444 126.886 733.444 129.64C733.444 132.412 736.018 134.23 739.42 134.23C742.804 134.23 745.396 132.412 745.396 129.64C745.396 126.886 742.804 125.05 739.42 125.05ZM739.42 126.58C741.814 126.58 743.596 127.768 743.596 129.64C743.596 131.512 741.814 132.7 739.42 132.7C737.008 132.7 735.244 131.512 735.244 129.64C735.244 127.768 737.008 126.58 739.42 126.58ZM732.076 136.804V138.334H746.8V136.804H732.076ZM756.789 132.376V129.424H760.263V132.376H756.789ZM754.971 134.878H751.065V127.12H754.971V134.878ZM760.263 124.114V127.93H756.789V125.644H749.247V136.336H756.789V133.87H760.263V140.422H762.135V124.114H760.263ZM765.697 142.6C767.551 141.898 768.649 140.44 768.649 138.55C768.649 137.164 768.055 136.318 767.047 136.318C766.255 136.318 765.607 136.84 765.607 137.65C765.607 138.514 766.255 138.982 766.993 138.982C767.065 138.982 767.119 138.982 767.191 138.964C767.191 140.008 766.471 140.926 765.229 141.43L765.697 142.6ZM429.338 158.594C429.788 156.92 429.788 155.57 429.788 154.274V152.906H418.628V154.4H427.952C427.952 155.624 427.934 156.794 427.52 158.396L429.338 158.594ZM424.208 166.964C421.796 166.964 420.32 166.37 420.32 165.344C420.32 164.336 421.796 163.742 424.208 163.742C426.602 163.742 428.042 164.336 428.042 165.344C428.042 166.37 426.602 166.964 424.208 166.964ZM424.208 162.32C420.698 162.32 418.484 163.472 418.484 165.344C418.484 167.234 420.698 168.386 424.208 168.386C427.664 168.386 429.896 167.234 429.896 165.344C429.896 163.472 427.664 162.32 424.208 162.32ZM424.568 159.566V156.578H422.696V159.566H416.936V161.06H431.588V159.566H424.568ZM444.529 158.378H437.095V156.308H444.529V158.378ZM446.383 152.762H444.529V154.814H437.095V152.762H435.241V159.872H446.383V152.762ZM448.201 161.636H433.459V163.13H439.849V168.404H441.703V163.13H448.201V161.636ZM461.069 154.904H451.907V158.558H463.193V157.262H453.725V156.11H462.905V152.528H451.871V153.806H461.069V154.904ZM453.599 165.686H462.959V162.05H451.727V163.328H461.123V164.48H451.763V168.206H463.445V166.928H453.599V165.686ZM450.017 159.584V160.952H464.759V159.584H450.017ZM475.929 154.364C477.351 154.364 478.341 155.102 478.341 156.236C478.341 157.388 477.351 158.126 475.929 158.126C474.525 158.126 473.517 157.388 473.517 156.236C473.517 155.102 474.525 154.364 475.929 154.364ZM475.929 159.656C478.359 159.656 480.123 158.252 480.123 156.236C480.123 154.238 478.359 152.834 475.929 152.834C473.499 152.834 471.735 154.238 471.735 156.236C471.735 158.252 473.499 159.656 475.929 159.656ZM481.167 160.268C477.657 160.79 473.571 160.844 470.637 160.844L470.853 162.374C472.113 162.374 473.553 162.356 475.083 162.302V167.9H476.937V162.194C478.377 162.086 479.871 161.924 481.293 161.636L481.167 160.268ZM482.229 152.132V168.404H484.083V152.132H482.229ZM491.155 163.202C490.057 163.202 489.283 162.32 489.283 160.97C489.283 159.62 490.057 158.72 491.155 158.72C492.253 158.72 493.027 159.62 493.027 160.97C493.027 162.32 492.253 163.202 491.155 163.202ZM491.155 157.19C489.103 157.19 487.627 158.72 487.627 160.97C487.627 163.202 489.103 164.75 491.155 164.75C493.207 164.75 494.683 163.202 494.683 160.97C494.683 158.72 493.207 157.19 491.155 157.19ZM492.073 152.6H490.237V154.778H487.159V156.272H495.115V154.778H492.073V152.6ZM499.273 152.132V158.864H497.545V152.474H495.817V167.63H497.545V160.394H499.273V168.386H501.037V152.132H499.273ZM521.675 153.392H516.077V151.934H514.205V153.392H508.517V154.814H521.675V153.392ZM511.379 164.912H518.885V166.802H511.379V164.912ZM509.543 168.188H520.703V163.508H509.543V168.188ZM511.775 157.658C511.775 156.938 512.927 156.614 515.141 156.614C517.337 156.614 518.507 156.938 518.507 157.658C518.507 158.36 517.337 158.702 515.141 158.702C512.927 158.702 511.775 158.36 511.775 157.658ZM516.077 160.988V159.962C518.903 159.818 520.469 159.026 520.469 157.658C520.469 156.128 518.561 155.336 515.141 155.336C511.703 155.336 509.795 156.128 509.795 157.658C509.795 159.026 511.361 159.818 514.205 159.962V160.988H507.779V162.446H522.485V160.988H516.077ZM527.362 155.588H529V162.878C528.442 162.914 527.902 162.932 527.362 162.95V155.588ZM530.692 155.588H531.898V154.094H524.5V155.588H525.67V162.986C525.13 162.986 524.625 162.986 524.176 162.986L524.392 164.516C526.444 164.516 529.792 164.444 532.33 163.94L532.204 162.59C531.736 162.662 531.214 162.716 530.692 162.77V155.588ZM533.374 158.198H531.448V159.836H533.374V167.576H535.12V152.492H533.374V158.198ZM536.56 152.132V168.386H538.342V152.132H536.56ZM552.416 152.114V168.422H554.288V152.114H552.416ZM545.63 153.32C543.218 153.32 541.454 155.552 541.454 159.044C541.454 162.572 543.218 164.786 545.63 164.786C548.06 164.786 549.824 162.572 549.824 159.044C549.824 155.552 548.06 153.32 545.63 153.32ZM545.63 154.994C547.052 154.994 548.042 156.524 548.042 159.044C548.042 161.6 547.052 163.13 545.63 163.13C544.226 163.13 543.236 161.6 543.236 159.044C543.236 156.524 544.226 154.994 545.63 154.994ZM563.467 155.282H567.085V153.752H557.977V155.282H561.595V156.83C561.595 159.62 559.921 162.644 557.401 163.814L558.463 165.29C560.371 164.372 561.829 162.446 562.549 160.178C563.305 162.284 564.763 164.048 566.653 164.876L567.679 163.418C565.141 162.338 563.467 159.53 563.467 156.83V155.282ZM568.975 152.132V168.386H570.847V152.132H568.975ZM577.685 163.184C576.569 163.184 575.885 161.726 575.885 159.152C575.885 156.578 576.569 155.138 577.685 155.138C578.801 155.138 579.485 156.578 579.485 159.152C579.485 161.726 578.801 163.184 577.685 163.184ZM582.887 158.288H581.141C580.943 155.246 579.629 153.392 577.685 153.392C575.579 153.392 574.193 155.588 574.193 159.152C574.193 162.716 575.579 164.93 577.685 164.93C579.665 164.93 580.997 162.986 581.159 159.818H582.887V167.612H584.615V152.438H582.887V158.288ZM586.145 152.132V168.368H587.909V152.132H586.145ZM604.299 159.476C601.869 158.63 600.483 156.614 600.483 154.598V154.508H603.867V152.996H595.173V154.508H598.611V154.616C598.611 156.794 597.135 158.954 594.615 159.818L595.569 161.276C597.495 160.61 598.863 159.188 599.583 157.442C600.285 159.008 601.581 160.286 603.381 160.934L604.299 159.476ZM606.243 166.694H599.367V164.948H606.243V166.694ZM606.243 163.49H599.367V161.726H597.531V168.188H608.097V161.726H606.243V163.49ZM606.225 152.132V155.93H603.363V157.46H606.225V161.006H608.097V152.132H606.225ZM625.033 157.298C621.775 156.866 619.471 155.066 619.471 153.014V152.402H617.563V153.014C617.563 155.03 615.205 156.866 612.001 157.298L612.685 158.738C615.313 158.342 617.473 157.1 618.499 155.372C619.543 157.118 621.721 158.324 624.331 158.738L625.033 157.298ZM612.811 164.552H622.225V168.404H624.079V163.058H612.811V164.552ZM619.435 160.16V157.856H617.581V160.16H611.173V161.654H625.915V160.16H619.435ZM637.362 153.986H633.492V152.132H631.638V153.986H627.768V155.462H637.362V153.986ZM630.396 159.296C630.396 158.27 631.278 157.658 632.556 157.658C633.852 157.658 634.734 158.27 634.734 159.296C634.734 160.322 633.852 160.934 632.556 160.934C631.278 160.934 630.396 160.322 630.396 159.296ZM636.498 159.296C636.498 157.46 634.896 156.218 632.556 156.218C630.234 156.218 628.614 157.46 628.614 159.296C628.614 161.15 630.234 162.374 632.556 162.374C634.896 162.374 636.498 161.15 636.498 159.296ZM632.016 163.382H630.144V168.08H641.088V166.568H632.016V163.382ZM640.44 157.316V152.132H638.586V164.318H640.44V158.846H642.744V157.316H640.44Z" fill="#444444"/>
<path d="M422.606 111.234C425.54 111.234 427.52 109.632 427.52 105.312V97.734H425.504V105.456C425.504 108.444 424.28 109.416 422.606 109.416C420.95 109.416 419.762 108.444 419.762 105.456V97.734H417.674V105.312C417.674 109.632 419.672 111.234 422.606 111.234ZM429.296 111H431.51L433.202 107.706C433.526 107.022 433.868 106.356 434.228 105.546H434.3C434.714 106.356 435.056 107.022 435.398 107.706L437.144 111H439.466L435.65 104.268L439.214 97.734H437.018L435.452 100.848C435.146 101.46 434.894 102.054 434.552 102.846H434.462C434.066 102.054 433.778 101.46 433.454 100.848L431.852 97.734H429.53L433.094 104.16L429.296 111ZM441.476 111H443.564V107.004L445.598 104.502L449.342 111H451.664L446.876 102.864L450.98 97.734H448.658L443.618 104.016H443.564V97.734H441.476V111ZM453.412 111H455.284V104.448C455.284 103.26 455.122 101.55 455.032 100.344H455.104L456.148 103.404L458.47 109.722H459.766L462.07 103.404L463.132 100.344H463.204C463.096 101.55 462.934 103.26 462.934 104.448V111H464.878V97.734H462.466L460.072 104.448C459.766 105.33 459.514 106.23 459.208 107.112H459.118C458.812 106.23 458.542 105.33 458.236 104.448L455.806 97.734H453.412V111ZM472.763 97.266C470.225 97.266 468.353 98.868 468.353 101.172C468.353 103.476 470.225 105.078 472.763 105.078C475.301 105.078 477.191 103.476 477.191 101.172C477.191 98.868 475.301 97.266 472.763 97.266ZM472.763 98.85C474.275 98.85 475.373 99.75 475.373 101.172C475.373 102.576 474.275 103.494 472.763 103.494C471.269 103.494 470.171 102.576 470.171 101.172C470.171 99.75 471.269 98.85 472.763 98.85ZM479.027 96.114V112.404H480.899V96.114H479.027ZM467.831 108.966C470.711 108.966 474.599 108.93 478.181 108.246L478.055 106.896C474.563 107.418 470.513 107.436 467.597 107.436L467.831 108.966ZM494.817 99.282H498.255V97.752H489.417V99.282H492.963V100.848C492.963 103.548 491.307 106.626 488.823 107.814L489.885 109.29C491.757 108.372 493.197 106.428 493.917 104.16C494.655 106.212 496.041 108.012 497.859 108.876L498.885 107.418C496.419 106.248 494.817 103.368 494.817 100.848V99.282ZM504.249 102.54H501.711V96.132H499.857V112.386H501.711V104.07H504.249V102.54ZM515.264 104.088C512.798 103.242 511.394 101.19 511.394 99.03V97.122H509.522V99.012C509.522 101.388 508.136 103.584 505.526 104.466L506.534 105.906C508.442 105.222 509.792 103.836 510.494 102.054C511.214 103.638 512.528 104.934 514.328 105.564L515.264 104.088ZM509.972 106.95H508.118V112.08H519.026V110.568H509.972V106.95ZM518.378 100.992V96.114H516.524V108.102H518.378V102.522H520.682V100.992H518.378ZM559.07 125.266V126.778H564.65C564.326 129.298 562.112 131.35 558.35 132.43L559.106 133.906C563.858 132.538 566.666 129.514 566.666 125.266H559.07ZM565.91 138.928C563.75 138.928 562.382 138.28 562.382 137.164C562.382 136.03 563.75 135.382 565.91 135.382C568.088 135.382 569.438 136.03 569.438 137.164C569.438 138.28 568.088 138.928 565.91 138.928ZM565.91 133.906C562.67 133.906 560.546 135.148 560.546 137.164C560.546 139.162 562.67 140.386 565.91 140.386C569.168 140.386 571.274 139.162 571.274 137.164C571.274 135.148 569.168 133.906 565.91 133.906ZM571.094 128.146V124.132H569.24V133.69H571.094V129.676H573.398V128.146H571.094ZM580.201 125.266C577.663 125.266 575.791 126.868 575.791 129.172C575.791 131.476 577.663 133.078 580.201 133.078C582.739 133.078 584.629 131.476 584.629 129.172C584.629 126.868 582.739 125.266 580.201 125.266ZM580.201 126.85C581.713 126.85 582.811 127.75 582.811 129.172C582.811 130.576 581.713 131.494 580.201 131.494C578.707 131.494 577.609 130.576 577.609 129.172C577.609 127.75 578.707 126.85 580.201 126.85ZM586.465 124.114V140.404H588.337V124.114H586.465ZM575.269 136.966C578.149 136.966 582.037 136.93 585.619 136.246L585.493 134.896C582.001 135.418 577.951 135.436 575.035 135.436L575.269 136.966ZM597.202 136.66H606.598V140.386H608.452V135.166H597.202V136.66ZM599.236 126.256H606.562V128.938H599.236V126.256ZM603.826 132.232V130.414H608.38V124.78H597.418V130.414H601.954V132.232H595.546V133.726H610.27V132.232H603.826ZM621.789 131.836C619.359 130.99 617.973 128.956 617.973 126.94V126.634H621.357V125.14H612.663V126.634H616.101V126.958C616.101 129.154 614.625 131.296 612.105 132.16L613.059 133.618C614.985 132.952 616.353 131.548 617.073 129.802C617.775 131.368 619.071 132.646 620.871 133.276L621.789 131.836ZM614.625 136.138H623.733V140.386H625.587V134.644H614.625V136.138ZM623.733 124.114V128.2H620.889V129.73H623.733V133.834H625.587V124.114H623.733ZM636.026 125.05C632.624 125.05 630.05 126.886 630.05 129.64C630.05 132.412 632.624 134.23 636.026 134.23C639.41 134.23 642.002 132.412 642.002 129.64C642.002 126.886 639.41 125.05 636.026 125.05ZM636.026 126.58C638.42 126.58 640.202 127.768 640.202 129.64C640.202 131.512 638.42 132.7 636.026 132.7C633.614 132.7 631.85 131.512 631.85 129.64C631.85 127.768 633.614 126.58 636.026 126.58ZM628.682 136.804V138.334H643.406V136.804H628.682ZM653.502 136.948V134.176H658.578V132.682H648.84V130.414H658.218V125.266H646.986V126.76H656.382V128.938H647.022V134.176H651.648V136.948H645.24V138.478H659.964V136.948H653.502ZM670.774 127.426H673.456V125.896H666.112V127.426H668.974V128.596C668.974 131.494 667.894 134.428 665.59 135.868L666.706 137.236C668.272 136.246 669.316 134.5 669.892 132.448C670.468 134.338 671.476 135.94 673.006 136.84L674.086 135.49C671.818 134.176 670.774 131.368 670.774 128.596V127.426ZM674.662 129.838H672.268V131.35H674.662V139.594H676.408V124.438H674.662V129.838ZM677.938 124.114V140.368H679.702V124.114H677.938ZM691.958 131.854C689.474 131.026 688.106 129.028 688.106 126.976V126.688H691.508V125.176H682.778V126.688H686.234V126.976C686.234 129.208 684.812 131.278 682.238 132.142L683.21 133.6C685.118 132.934 686.468 131.602 687.188 129.892C687.89 131.44 689.186 132.682 691.004 133.276L691.958 131.854ZM684.398 136.21H693.236V140.386H695.09V134.716H684.398V136.21ZM697.394 128.272H695.09V124.114H693.236V133.924H695.09V129.802H697.394V128.272ZM651.808 154.904H659.548V159.728H651.808V154.904ZM656.614 164.876V161.204H661.366V153.428H649.99V161.204H654.76V164.876H648.352V166.388H663.076V164.876H656.614ZM677.852 158.054H668.744V154.544H677.654V153.05H666.836V159.548H677.852V158.054ZM679.634 161.42H664.874V162.95H671.282V168.35H673.136V162.95H679.634V161.42ZM692.503 154.904H683.341V158.558H694.627V157.262H685.159V156.11H694.339V152.528H683.305V153.806H692.503V154.904ZM685.033 165.686H694.393V162.05H683.161V163.328H692.557V164.48H683.197V168.206H694.879V166.928H685.033V165.686ZM681.451 159.584V160.952H696.193V159.584H681.451ZM711.628 153.59H707.938V152.06H706.066V153.59H702.34V154.958H711.628V153.59ZM704.86 158.036C704.86 157.262 705.688 156.794 706.984 156.794C708.28 156.794 709.108 157.262 709.108 158.036C709.108 158.792 708.28 159.242 706.984 159.242C705.688 159.242 704.86 158.792 704.86 158.036ZM712.078 161.096C710.764 161.294 709.342 161.402 707.938 161.492V160.466C709.738 160.25 710.854 159.35 710.854 158.036C710.854 156.488 709.324 155.534 706.984 155.534C704.644 155.534 703.114 156.488 703.114 158.036C703.114 159.368 704.248 160.25 706.066 160.466V161.582C704.572 161.618 703.132 161.636 701.926 161.636L702.142 163.112C704.95 163.094 708.82 163.022 712.222 162.374L712.078 161.096ZM706.138 164.03H704.284V168.08H715.336V166.568H706.138V164.03ZM714.796 157.64V152.114H712.942V164.84H714.796V159.17H717.028V157.64H714.796ZM720.609 156.974C720.609 155.552 721.653 154.616 723.093 154.616C724.497 154.616 725.541 155.552 725.541 156.974C725.541 158.378 724.497 159.314 723.093 159.314C721.653 159.314 720.609 158.378 720.609 156.974ZM730.239 155.876V158.072H727.143C727.251 157.73 727.305 157.37 727.305 156.974C727.305 156.578 727.251 156.218 727.161 155.876H730.239ZM730.239 159.566V161.708H732.093V152.114H730.239V154.364H726.315C725.559 153.554 724.425 153.05 723.093 153.05C720.663 153.05 718.845 154.67 718.845 156.974C718.845 159.26 720.663 160.88 723.093 160.88C724.407 160.88 725.559 160.394 726.315 159.566H730.239ZM726.675 166.928C724.371 166.928 723.021 166.334 723.021 165.218C723.021 164.138 724.371 163.526 726.675 163.526C728.997 163.526 730.329 164.138 730.329 165.218C730.329 166.334 728.997 166.928 726.675 166.928ZM726.675 162.068C723.291 162.068 721.203 163.238 721.203 165.218C721.203 167.216 723.291 168.386 726.675 168.386C730.059 168.386 732.165 167.216 732.165 165.218C732.165 163.238 730.059 162.068 726.675 162.068ZM744.8 153.68H740.93V151.988H739.076V153.68H735.206V155.174H744.8V153.68ZM737.834 158.63C737.834 157.712 738.698 157.154 739.994 157.154C741.29 157.154 742.172 157.712 742.172 158.63C742.172 159.566 741.29 160.124 739.994 160.124C738.698 160.124 737.834 159.566 737.834 158.63ZM743.936 158.63C743.936 156.92 742.352 155.768 739.994 155.768C737.654 155.768 736.052 156.92 736.052 158.63C736.052 160.358 737.654 161.51 739.994 161.51C742.352 161.51 743.936 160.358 743.936 158.63ZM746.042 166.712H739.328V165.218H746.042V166.712ZM746.042 163.778H739.328V162.284H737.492V168.188H747.878V162.284H746.042V163.778ZM750.182 156.182H747.878V152.132H746.024V161.618H747.878V157.712H750.182V156.182ZM754.536 153.716H752.7V164.282H754.086C756.606 164.282 759.234 164.084 762.024 163.508L761.826 161.96C759.27 162.482 756.84 162.68 754.536 162.698V153.716ZM763.32 152.132V168.386H765.174V152.132H763.32ZM770.807 155.174H776.513V153.662H768.953V164.408H770.285C773.219 164.408 775.415 164.318 777.881 163.868L777.683 162.338C775.415 162.734 773.435 162.842 770.807 162.86V155.174ZM783.425 158.378H780.887V152.114H779.033V168.404H780.887V159.908H783.425V158.378ZM786.627 167.234C787.401 167.234 788.013 166.64 788.013 165.794C788.013 164.93 787.401 164.318 786.627 164.318C785.853 164.318 785.241 164.93 785.241 165.794C785.241 166.64 785.853 167.234 786.627 167.234Z" fill="#1E73FF"/>
<rect y="96" width="106" height="17" fill="#EEEEEE"/>
<rect x="142" y="124" width="140" height="17" fill="#EEEEEE"/>
<rect x="232" y="152" width="140" height="17" fill="#EEEEEE"/>
</svg>
