<svg width="495" height="352" viewBox="0 0 495 352" fill="none" xmlns="http://www.w3.org/2000/svg">
<rect x="3" y="14" width="50" height="158" fill="#1E73FF"/>
<rect x="69" y="14" width="97" height="59" fill="#1E73FF"/>
<rect x="190" y="14" width="110" height="59" fill="#1E73FF"/>
<rect x="353" y="14" width="110" height="59" fill="#1E73FF"/>
<rect x="3" y="172" width="50" height="90" fill="#379AD6"/>
<rect x="69" y="73" width="49" height="90" fill="#379AD6"/>
<rect x="190" y="73" width="55" height="57" fill="#379AD6"/>
<rect x="353" y="73" width="55" height="57" fill="#379AD6"/>
<rect x="3" y="262" width="50" height="90" fill="#80CFFF"/>
<rect x="118" y="73" width="48" height="90" fill="#80CFFF"/>
<rect x="245" y="73" width="55" height="57" fill="#80CFFF"/>
<rect x="408" y="73" width="55" height="57" fill="#80CFFF"/>
<rect x="321" width="174" height="14" fill="#FFF000"/>
<rect x="179" width="132" height="14" fill="#FFF000"/>
<rect x="66" width="103" height="14" fill="#FFF000"/>
<rect width="56" height="14" fill="#FFF000"/>
<rect x="1.5" y="1.5" width="53" height="127" stroke="black" stroke-width="3"/>
<rect x="67.5" y="1.5" width="100" height="127" stroke="black" stroke-width="3"/>
<rect x="180.5" y="1.5" width="129" height="127" stroke="black" stroke-width="3"/>
<rect x="322.5" y="1.5" width="171" height="127" stroke="black" stroke-width="3"/>
</svg>
