<svg width="641" height="327" viewBox="0 0 641 327" fill="none" xmlns="http://www.w3.org/2000/svg">
<rect x="40" y="40" width="125" height="62" fill="#1E73FF"/>
<rect x="40" y="102" width="125" height="131" fill="#FFF000"/>
<rect x="40" y="233" width="125" height="94" fill="#1E73FF"/>
<rect x="165" y="40" width="264" height="62" fill="#FFF000"/>
<rect x="165" y="102" width="264" height="131" fill="white"/>
<rect x="165" y="233" width="264" height="94" fill="#FFF000"/>
<rect x="429" y="40" width="212" height="62" fill="#1E73FF"/>
<rect x="429" y="102" width="212" height="131" fill="#FFF000"/>
<rect x="429" y="233" width="212" height="94" fill="#1E73FF"/>
<path d="M105.204 80H101.535V65.8574L97.1553 67.2158V64.2324L104.811 61.4902H105.204V80Z" fill="white"/>
<path d="M108.34 163.429C108.34 164.326 108.116 165.121 107.667 165.815C107.218 166.509 106.601 167.064 105.813 167.479C106.711 167.91 107.422 168.507 107.946 169.269C108.471 170.022 108.733 170.91 108.733 171.935C108.733 173.576 108.175 174.876 107.058 175.832C105.94 176.78 104.421 177.254 102.5 177.254C100.579 177.254 99.0553 176.776 97.9297 175.819C96.804 174.863 96.2412 173.568 96.2412 171.935C96.2412 170.91 96.5036 170.018 97.0283 169.256C97.5531 168.494 98.2598 167.902 99.1484 167.479C98.3613 167.064 97.7435 166.509 97.2949 165.815C96.8548 165.121 96.6348 164.326 96.6348 163.429C96.6348 161.854 97.1595 160.602 98.209 159.671C99.2585 158.731 100.685 158.262 102.487 158.262C104.282 158.262 105.703 158.727 106.753 159.658C107.811 160.581 108.34 161.838 108.34 163.429ZM105.052 171.668C105.052 170.864 104.819 170.221 104.354 169.738C103.888 169.256 103.262 169.015 102.475 169.015C101.696 169.015 101.074 169.256 100.608 169.738C100.143 170.212 99.9102 170.855 99.9102 171.668C99.9102 172.455 100.139 173.09 100.596 173.572C101.053 174.055 101.688 174.296 102.5 174.296C103.296 174.296 103.918 174.063 104.366 173.598C104.823 173.132 105.052 172.489 105.052 171.668ZM104.671 163.606C104.671 162.887 104.48 162.312 104.1 161.88C103.719 161.44 103.181 161.22 102.487 161.22C101.802 161.22 101.269 161.431 100.888 161.854C100.507 162.278 100.316 162.862 100.316 163.606C100.316 164.343 100.507 164.935 100.888 165.384C101.269 165.832 101.806 166.057 102.5 166.057C103.194 166.057 103.727 165.832 104.1 165.384C104.48 164.935 104.671 164.343 104.671 163.606Z" fill="#163875"/>
<path d="M107.146 282.043H109.241V285.001H107.146V289H103.478V285.001H95.8984L95.7334 282.69L103.439 270.516H107.146V282.043ZM99.3896 282.043H103.478V275.518L103.236 275.937L99.3896 282.043Z" fill="white"/>
<path d="M291.838 70.9102L292.904 61.5156H303.264V64.5752H295.913L295.456 68.5488C296.328 68.0833 297.255 67.8506 298.236 67.8506C299.997 67.8506 301.376 68.3965 302.375 69.4883C303.374 70.5801 303.873 72.1077 303.873 74.0713C303.873 75.2646 303.619 76.3353 303.111 77.2832C302.612 78.2227 301.893 78.9548 300.953 79.4795C300.014 79.9958 298.905 80.2539 297.627 80.2539C296.51 80.2539 295.473 80.0296 294.517 79.5811C293.56 79.124 292.803 78.485 292.244 77.6641C291.694 76.8431 291.402 75.9079 291.368 74.8584H294.999C295.075 75.6286 295.342 76.2295 295.799 76.6611C296.264 77.0843 296.869 77.2959 297.614 77.2959C298.444 77.2959 299.083 76.9997 299.531 76.4072C299.98 75.8063 300.204 74.96 300.204 73.8682C300.204 72.8187 299.946 72.0146 299.43 71.4561C298.913 70.8975 298.181 70.6182 297.233 70.6182C296.362 70.6182 295.655 70.8467 295.113 71.3037L294.758 71.6338L291.838 70.9102Z" fill="#163875"/>
<path d="M299.874 169.611C298.918 170.551 297.8 171.021 296.522 171.021C294.889 171.021 293.581 170.462 292.6 169.345C291.618 168.219 291.127 166.704 291.127 164.8C291.127 163.59 291.389 162.481 291.914 161.474C292.447 160.458 293.188 159.671 294.136 159.112C295.084 158.545 296.15 158.262 297.335 158.262C298.554 158.262 299.637 158.566 300.585 159.176C301.533 159.785 302.269 160.661 302.794 161.804C303.319 162.946 303.585 164.254 303.594 165.727V167.085C303.594 170.166 302.828 172.586 301.296 174.347C299.764 176.107 297.593 177.047 294.783 177.165L293.882 177.178V174.118L294.694 174.105C297.885 173.962 299.612 172.464 299.874 169.611ZM297.424 168.215C298.016 168.215 298.524 168.062 298.947 167.758C299.379 167.453 299.705 167.085 299.925 166.653V165.143C299.925 163.898 299.688 162.934 299.214 162.248C298.74 161.562 298.105 161.22 297.31 161.22C296.573 161.22 295.968 161.558 295.494 162.235C295.02 162.904 294.783 163.746 294.783 164.762C294.783 165.769 295.012 166.598 295.469 167.25C295.934 167.893 296.586 168.215 297.424 168.215Z" fill="#1E73FF"/>
<path d="M303.86 272.572L296.713 289H292.841L300.001 273.486H290.81V270.516H303.86V272.572Z" fill="#163875"/>
<path d="M541.962 80H529.292V77.4863L535.271 71.1133C536.092 70.2161 536.698 69.4333 537.087 68.7646C537.485 68.096 537.684 67.4613 537.684 66.8604C537.684 66.0394 537.476 65.3962 537.062 64.9307C536.647 64.4567 536.054 64.2197 535.284 64.2197C534.455 64.2197 533.799 64.5075 533.316 65.083C532.842 65.6501 532.605 66.3991 532.605 67.3301H528.924C528.924 66.2044 529.19 65.1761 529.724 64.2451C530.265 63.3141 531.027 62.5863 532.009 62.0615C532.991 61.5283 534.104 61.2617 535.348 61.2617C537.252 61.2617 538.729 61.7188 539.778 62.6328C540.836 63.5469 541.365 64.8376 541.365 66.5049C541.365 67.4189 541.128 68.3499 540.654 69.2979C540.18 70.2458 539.368 71.3503 538.217 72.6113L534.015 77.042H541.962V80Z" fill="white"/>
<path d="M539.245 158.325V161.347H538.89C537.231 161.372 535.894 161.804 534.878 162.642C533.871 163.479 533.266 164.643 533.062 166.133C534.044 165.134 535.284 164.635 536.782 164.635C538.39 164.635 539.668 165.21 540.616 166.361C541.564 167.512 542.038 169.027 542.038 170.906C542.038 172.108 541.776 173.196 541.251 174.169C540.735 175.142 539.998 175.9 539.042 176.441C538.094 176.983 537.019 177.254 535.817 177.254C533.871 177.254 532.297 176.577 531.095 175.223C529.901 173.868 529.305 172.062 529.305 169.802V168.481C529.305 166.476 529.681 164.707 530.435 163.175C531.196 161.634 532.284 160.445 533.697 159.607C535.119 158.761 536.765 158.334 538.636 158.325H539.245ZM535.665 167.58C535.073 167.58 534.535 167.737 534.053 168.05C533.57 168.354 533.215 168.761 532.986 169.269V170.386C532.986 171.613 533.228 172.574 533.71 173.268C534.192 173.953 534.869 174.296 535.741 174.296C536.528 174.296 537.163 173.987 537.646 173.369C538.136 172.743 538.382 171.935 538.382 170.944C538.382 169.937 538.136 169.125 537.646 168.507C537.155 167.889 536.494 167.58 535.665 167.58Z" fill="#163875"/>
<path d="M533.024 278.133H534.979C535.91 278.133 536.6 277.9 537.049 277.435C537.497 276.969 537.722 276.351 537.722 275.581C537.722 274.836 537.497 274.257 537.049 273.842C536.609 273.427 535.999 273.22 535.221 273.22C534.518 273.22 533.93 273.414 533.456 273.804C532.982 274.185 532.745 274.684 532.745 275.302H529.076C529.076 274.337 529.334 273.474 529.851 272.712C530.375 271.942 531.103 271.341 532.034 270.909C532.974 270.478 534.006 270.262 535.132 270.262C537.087 270.262 538.619 270.731 539.728 271.671C540.836 272.602 541.391 273.888 541.391 275.53C541.391 276.377 541.132 277.155 540.616 277.866C540.1 278.577 539.423 279.123 538.585 279.504C539.626 279.876 540.4 280.435 540.908 281.18C541.424 281.924 541.683 282.805 541.683 283.82C541.683 285.462 541.082 286.778 539.88 287.769C538.687 288.759 537.104 289.254 535.132 289.254C533.287 289.254 531.776 288.767 530.6 287.794C529.432 286.821 528.848 285.534 528.848 283.935H532.517C532.517 284.629 532.775 285.196 533.291 285.636C533.816 286.076 534.459 286.296 535.221 286.296C536.092 286.296 536.774 286.067 537.265 285.61C537.764 285.145 538.014 284.531 538.014 283.77C538.014 281.924 536.998 281.002 534.967 281.002H533.024V278.133Z" fill="white"/>
<path d="M209.742 206V199.203H208.484V197.547H209.742V197.156C209.753 196.094 210.078 195.276 210.719 194.703C211.365 194.125 212.273 193.836 213.445 193.836C214.148 193.836 215.003 193.99 216.008 194.297L215.68 196.164C215.169 196.013 214.773 195.917 214.492 195.875C214.211 195.828 213.909 195.805 213.586 195.805C212.534 195.805 212.008 196.271 212.008 197.203V197.547H213.672V199.203H212.008V206H209.742ZM217.062 206H214.797V197.547H217.062V206ZM221.312 206H219.047V194H221.312V206ZM225.562 206H223.297V194H225.562V206Z" fill="#1E73FF"/>
<path d="M232.467 194.32V195.392H237.731C237.667 196.272 237.539 197.104 237.267 197.904L231.731 198.272L231.955 199.424L236.851 198.96C235.971 200.88 234.323 202.528 231.683 203.808L232.387 204.848C237.539 202.304 239.027 198.48 239.027 194.32H232.467ZM241.859 192.832V207.184H243.171V192.832H241.859ZM250.738 194.56C252.13 194.56 253.106 195.296 253.106 196.368C253.106 197.472 252.13 198.192 250.738 198.192C249.346 198.192 248.37 197.472 248.37 196.368C248.37 195.296 249.346 194.56 250.738 194.56ZM250.738 199.2C252.866 199.2 254.338 198.064 254.338 196.368C254.338 194.688 252.866 193.552 250.738 193.552C248.61 193.552 247.138 194.688 247.138 196.368C247.138 198.064 248.61 199.2 250.738 199.2ZM255.506 199.92C252.386 200.368 248.77 200.384 246.066 200.384L246.226 201.488C247.362 201.488 248.658 201.472 250.018 201.424V206.752H251.33V201.36C252.738 201.28 254.178 201.136 255.586 200.896L255.506 199.92ZM256.594 192.848V202.64H253.346V203.664H256.594V207.2H257.906V192.848H256.594ZM272.336 199.712H263.776V195.232H272.192V194.144H262.48V200.784H272.336V199.712ZM260.816 204.16V205.248H273.84V204.16H260.816ZM282.703 204.336V201.632H287.295V200.576H278.463V198.256H286.959V193.888H277.135V194.96H285.679V197.2H277.167V201.632H281.375V204.336H275.535V205.408H288.575V204.336H282.703ZM298.447 195.584H301.007V194.512H294.463V195.584H297.183V196.88C297.183 199.52 296.063 202.128 294.063 203.328L294.863 204.304C296.287 203.408 297.327 201.728 297.823 199.76C298.319 201.584 299.311 203.12 300.703 203.952L301.503 202.992C299.519 201.872 298.447 199.376 298.447 196.88V195.584ZM302.287 197.984H299.919V199.056H302.287V206.432H303.535V193.152H302.287V197.984ZM305.167 192.816V207.168H306.431V192.816H305.167ZM312.797 202.784C311.421 202.784 310.461 201.28 310.461 198.944C310.461 196.624 311.421 195.12 312.797 195.12C314.157 195.12 315.117 196.624 315.117 198.944C315.117 201.28 314.157 202.784 312.797 202.784ZM319.469 192.832V198.304H316.349C316.141 195.616 314.733 193.936 312.797 193.936C310.701 193.936 309.213 195.888 309.213 198.944C309.213 202 310.701 203.952 312.797 203.952C314.797 203.952 316.221 202.192 316.349 199.376H319.469V207.216H320.781V192.832H319.469ZM329.068 200.096H332.156V199.024H326.124V195.264H332.092V194.176H324.828V200.096H327.756V202.944C326.364 202.992 325.004 202.992 323.772 202.992L323.932 204.096C326.652 204.096 330.092 204.032 333.228 203.552L333.116 202.592C331.836 202.752 330.444 202.832 329.068 202.896V200.096ZM334.06 192.816V207.216H335.372V192.816H334.06ZM349.899 197.152H341.451V193.36H340.139V198.224H349.899V197.152ZM341.355 202.64H340.043V206.832H349.979V205.76H341.355V202.64ZM338.379 200.144V201.2H351.387V200.144H338.379ZM358.554 197.088C358.554 195.76 359.61 194.8 361.002 194.8C362.41 194.8 363.434 195.76 363.434 197.088C363.434 198.432 362.41 199.392 361.002 199.392C359.61 199.392 358.554 198.432 358.554 197.088ZM367.578 195.968V198.208H364.49C364.618 197.856 364.682 197.488 364.682 197.088C364.682 196.672 364.618 196.304 364.506 195.968H367.578ZM367.578 199.28V201.328H368.906V192.832H367.578V194.896H363.898C363.242 194.16 362.218 193.696 361.002 193.696C358.874 193.696 357.306 195.088 357.306 197.088C357.306 199.104 358.874 200.512 361.002 200.512C362.218 200.512 363.242 200.048 363.898 199.28H367.578ZM364.154 206.128C361.994 206.128 360.682 205.488 360.682 204.416C360.682 203.328 361.994 202.688 364.154 202.688C366.346 202.688 367.658 203.328 367.658 204.416C367.658 205.488 366.346 206.128 364.154 206.128ZM364.154 201.664C361.21 201.664 359.386 202.672 359.386 204.416C359.386 206.16 361.21 207.168 364.154 207.168C367.114 207.168 368.954 206.16 368.954 204.416C368.954 202.672 367.114 201.664 364.154 201.664ZM374.025 203.152H382.297V207.2H383.625V202.08H374.025V203.152ZM379.241 198.16C379.337 197.824 379.401 197.472 379.401 197.072C379.401 196.688 379.337 196.336 379.241 196H382.297V198.16H379.241ZM375.705 199.424C374.313 199.424 373.273 198.448 373.273 197.072C373.273 195.728 374.313 194.752 375.705 194.752C377.113 194.752 378.153 195.728 378.153 197.072C378.153 198.448 377.113 199.424 375.705 199.424ZM382.297 192.848V194.944H378.681C378.009 194.128 376.953 193.632 375.705 193.632C373.593 193.632 372.025 195.056 372.025 197.072C372.025 199.104 373.593 200.544 375.705 200.544C376.953 200.544 377.993 200.048 378.665 199.232H382.297V201.296H383.625V192.832L382.297 192.848Z" fill="black"/>
<rect x="40" width="1" height="36" fill="#E44D26"/>
<rect y="41" width="1" height="36" transform="rotate(-90 0 41)" fill="#E44D26"/>
<rect y="102" width="1" height="36" transform="rotate(-90 0 102)" fill="#E44D26"/>
<rect y="234" width="1" height="36" transform="rotate(-90 0 234)" fill="#E44D26"/>
<rect y="327" width="1" height="36" transform="rotate(-90 0 327)" fill="#E44D26"/>
<rect x="164" width="1" height="36" fill="#E44D26"/>
<rect x="429" width="1" height="36" fill="#E44D26"/>
<rect x="640" width="1" height="36" fill="#E44D26"/>
<path d="M44.6464 25.6464C44.4512 25.8417 44.4512 26.1583 44.6464 26.3536L47.8284 29.5355C48.0237 29.7308 48.3403 29.7308 48.5355 29.5355C48.7308 29.3403 48.7308 29.0237 48.5355 28.8284L45.7071 26L48.5355 23.1716C48.7308 22.9763 48.7308 22.6597 48.5355 22.4645C48.3403 22.2692 48.0237 22.2692 47.8284 22.4645L44.6464 25.6464ZM161.354 26.3536C161.549 26.1583 161.549 25.8417 161.354 25.6464L158.172 22.4645C157.976 22.2692 157.66 22.2692 157.464 22.4645C157.269 22.6597 157.269 22.9763 157.464 23.1716L160.293 26L157.464 28.8284C157.269 29.0237 157.269 29.3403 157.464 29.5355C157.66 29.7308 157.976 29.7308 158.172 29.5355L161.354 26.3536ZM45 26.5H161V25.5H45V26.5Z" fill="#E44D26"/>
<path d="M26.3536 43.6464C26.1583 43.4512 25.8417 43.4512 25.6464 43.6464L22.4645 46.8284C22.2692 47.0237 22.2692 47.3403 22.4645 47.5355C22.6597 47.7308 22.9763 47.7308 23.1716 47.5355L26 44.7071L28.8284 47.5355C29.0237 47.7308 29.3403 47.7308 29.5355 47.5355C29.7308 47.3403 29.7308 47.0237 29.5355 46.8284L26.3536 43.6464ZM25.6464 97.3536C25.8417 97.5488 26.1583 97.5488 26.3535 97.3536L29.5355 94.1716C29.7308 93.9763 29.7308 93.6597 29.5355 93.4645C29.3403 93.2692 29.0237 93.2692 28.8284 93.4645L26 96.2929L23.1716 93.4645C22.9763 93.2692 22.6597 93.2692 22.4645 93.4645C22.2692 93.6597 22.2692 93.9763 22.4645 94.1716L25.6464 97.3536ZM25.5 44L25.5 97L26.5 97L26.5 44L25.5 44Z" fill="#E44D26"/>
<path d="M26.3536 237.646C26.1583 237.451 25.8417 237.451 25.6464 237.646L22.4645 240.828C22.2692 241.024 22.2692 241.34 22.4645 241.536C22.6597 241.731 22.9763 241.731 23.1716 241.536L26 238.707L28.8284 241.536C29.0237 241.731 29.3403 241.731 29.5355 241.536C29.7308 241.34 29.7308 241.024 29.5355 240.828L26.3536 237.646ZM25.6464 323.354C25.8417 323.549 26.1583 323.549 26.3535 323.354L29.5355 320.172C29.7308 319.976 29.7308 319.66 29.5355 319.464C29.3403 319.269 29.0237 319.269 28.8284 319.464L26 322.293L23.1716 319.464C22.9763 319.269 22.6597 319.269 22.4645 319.464C22.2692 319.66 22.2692 319.976 22.4645 320.172L25.6464 323.354ZM25.5 238L25.5 323L26.5 323L26.5 238L25.5 238Z" fill="#E44D26"/>
<path d="M433.646 22.6464C433.451 22.8417 433.451 23.1583 433.646 23.3536L436.828 26.5355C437.024 26.7308 437.34 26.7308 437.536 26.5355C437.731 26.3403 437.731 26.0237 437.536 25.8284L434.707 23L437.536 20.1716C437.731 19.9763 437.731 19.6597 437.536 19.4645C437.34 19.2692 437.024 19.2692 436.828 19.4645L433.646 22.6464ZM637.354 23.3536C637.549 23.1583 637.549 22.8417 637.354 22.6464L634.172 19.4645C633.976 19.2692 633.66 19.2692 633.464 19.4645C633.269 19.6597 633.269 19.9763 633.464 20.1716L636.293 23L633.464 25.8284C633.269 26.0237 633.269 26.3403 633.464 26.5355C633.66 26.7308 633.976 26.7308 634.172 26.5355L637.354 23.3536ZM434 23.5H637V22.5H434V23.5Z" fill="#E44D26"/>
<path d="M93.1299 16H90.5811V2.5H93.1299V16ZM99.6074 16.1758C98.2129 16.1758 97.0762 15.748 96.1973 14.8926C95.3242 14.0371 94.8877 12.8975 94.8877 11.4736V11.2275C94.8877 10.2725 95.0723 9.41992 95.4414 8.66992C95.8105 7.91406 96.332 7.33398 97.0059 6.92969C97.6855 6.51953 98.459 6.31445 99.3262 6.31445C100.627 6.31445 101.649 6.72461 102.394 7.54492C103.144 8.36523 103.519 9.52832 103.519 11.0342V12.0713H97.4629C97.5449 12.6924 97.791 13.1904 98.2012 13.5654C98.6172 13.9404 99.1416 14.1279 99.7744 14.1279C100.753 14.1279 101.518 13.7734 102.068 13.0645L103.316 14.4619C102.936 15.001 102.42 15.4229 101.77 15.7275C101.119 16.0264 100.398 16.1758 99.6074 16.1758ZM99.3174 8.37109C98.8135 8.37109 98.4033 8.54102 98.0869 8.88086C97.7764 9.2207 97.5771 9.70703 97.4893 10.3398H101.022V10.1377C101.011 9.5752 100.858 9.1416 100.565 8.83691C100.272 8.52637 99.8564 8.37109 99.3174 8.37109ZM105.663 16V8.35352H104.248V6.49023H105.663V5.68164C105.663 4.61523 105.968 3.78906 106.577 3.20312C107.192 2.61133 108.051 2.31543 109.152 2.31543C109.504 2.31543 109.935 2.37402 110.444 2.49121L110.418 4.45996C110.207 4.40723 109.949 4.38086 109.645 4.38086C108.689 4.38086 108.212 4.8291 108.212 5.72559V6.49023H110.102V8.35352H108.212V16H105.663ZM114.461 4.15234V6.49023H116.087V8.35352H114.461V13.0996C114.461 13.4512 114.528 13.7031 114.663 13.8555C114.798 14.0078 115.056 14.084 115.437 14.084C115.718 14.084 115.967 14.0635 116.184 14.0225V15.9473C115.686 16.0996 115.173 16.1758 114.646 16.1758C112.864 16.1758 111.956 15.2764 111.921 13.4775V8.35352H110.532V6.49023H111.921V4.15234H114.461Z" fill="#E44D26"/>
<path d="M4.15234 79.5527L6.49023 79.5527L6.49023 77.9268L8.35352 77.9268L8.35352 79.5527L13.0996 79.5527C13.4512 79.5527 13.7031 79.4854 13.8555 79.3506C14.0078 79.2158 14.084 78.958 14.084 78.5771C14.084 78.2959 14.0635 78.0469 14.0225 77.8301L15.9473 77.8301C16.0996 78.3281 16.1758 78.8408 16.1758 79.3682C16.1758 81.1494 15.2764 82.0576 13.4775 82.0928L8.35352 82.0928L8.35352 83.4814L6.49023 83.4814L6.49023 82.0928L4.15234 82.0928L4.15234 79.5527ZM11.1572 77.1709C10.2139 77.1709 9.37305 76.9893 8.63477 76.626C7.89648 76.2627 7.3252 75.7412 6.9209 75.0615C6.5166 74.376 6.31445 73.582 6.31445 72.6797C6.31445 71.3965 6.70703 70.3506 7.49219 69.542C8.27734 68.7275 9.34375 68.2734 10.6914 68.1797L11.3418 68.1621C12.8008 68.1621 13.9727 68.5693 14.8574 69.3838C15.7363 70.1982 16.1758 71.291 16.1758 72.6621C16.1758 74.0332 15.7363 75.1289 14.8574 75.9492C13.9785 76.7637 12.7832 77.1709 11.2715 77.1709L11.1572 77.1709ZM11.3418 74.6309C12.2441 74.6309 12.9355 74.4609 13.416 74.1211C13.8906 73.7813 14.1279 73.2949 14.1279 72.6621C14.1279 72.0469 13.8936 71.5664 13.4248 71.2207C12.9502 70.875 12.1943 70.7021 11.1572 70.7021C10.2725 70.7021 9.58691 70.875 9.10059 71.2207C8.61426 71.5664 8.37109 72.0527 8.37109 72.6797C8.37109 73.3008 8.61426 73.7813 9.10059 74.1211C9.58105 74.4609 10.3281 74.6309 11.3418 74.6309ZM11.333 58.0371C12.7979 58.0371 13.9727 58.3711 14.8574 59.0391C15.7363 59.7012 16.1758 60.5977 16.1758 61.7285C16.1758 62.6895 15.8418 63.4658 15.1738 64.0576L19.6563 64.0576L19.6563 66.5977L6.49023 66.5977L6.49023 64.2422L7.42188 64.1543C6.68359 63.5391 6.31445 62.7363 6.31445 61.7461C6.31445 60.5742 6.74805 59.6631 7.61523 59.0127C8.48242 58.3623 9.67773 58.0371 11.2012 58.0371L11.333 58.0371ZM11.1484 60.5771C10.2637 60.5771 9.58105 60.7354 9.10059 61.0518C8.62012 61.3623 8.37988 61.8164 8.37988 62.4141C8.37988 63.2109 8.68457 63.7588 9.29395 64.0576L13.1875 64.0576C13.8145 63.7471 14.1279 63.1934 14.1279 62.3965C14.1279 61.1836 13.1348 60.5771 11.1484 60.5771Z" fill="#E44D26"/>
<path d="M11.333 299.45C12.8564 299.45 14.0459 299.775 14.9014 300.426C15.751 301.076 16.1758 301.984 16.1758 303.15C16.1758 304.182 15.7803 305.005 14.9893 305.62L16 305.734L16 308.02L2.5 308.02L2.5 305.479L7.34277 305.479C6.65723 304.894 6.31445 304.123 6.31445 303.168C6.31445 302.008 6.74219 301.1 7.59766 300.443C8.44727 299.781 9.64551 299.45 11.1924 299.45L11.333 299.45ZM11.1484 301.99C10.1875 301.99 9.4873 302.143 9.04785 302.447C8.60254 302.752 8.37988 303.206 8.37988 303.81C8.37988 304.618 8.71094 305.175 9.37305 305.479L13.126 305.479C13.7939 305.169 14.1279 304.606 14.1279 303.792C14.1279 302.972 13.7236 302.433 12.915 302.175C12.5283 302.052 11.9395 301.99 11.1484 301.99ZM11.1572 298.272C10.2139 298.272 9.37305 298.091 8.63477 297.728C7.89648 297.364 7.3252 296.843 6.9209 296.163C6.5166 295.478 6.31445 294.684 6.31445 293.781C6.31445 292.498 6.70703 291.452 7.49219 290.644C8.27734 289.829 9.34375 289.375 10.6914 289.281L11.3418 289.264C12.8008 289.264 13.9727 289.671 14.8574 290.485C15.7363 291.3 16.1758 292.393 16.1758 293.764C16.1758 295.135 15.7363 296.23 14.8574 297.051C13.9785 297.865 12.7832 298.272 11.2715 298.272L11.1572 298.272ZM11.3418 295.732C12.2441 295.732 12.9355 295.563 13.416 295.223C13.8906 294.883 14.1279 294.396 14.1279 293.764C14.1279 293.148 13.8936 292.668 13.4248 292.322C12.9502 291.977 12.1943 291.804 11.1572 291.804C10.2725 291.804 9.58691 291.977 9.10059 292.322C8.61426 292.668 8.37109 293.154 8.37109 293.781C8.37109 294.402 8.61426 294.883 9.10059 295.223C9.58105 295.563 10.3281 295.732 11.3418 295.732ZM4.15234 284.658L6.49023 284.658L6.49023 283.032L8.35352 283.032L8.35352 284.658L13.0996 284.658C13.4512 284.658 13.7031 284.591 13.8555 284.456C14.0078 284.321 14.084 284.063 14.084 283.683C14.084 283.401 14.0635 283.152 14.0225 282.936L15.9473 282.936C16.0996 283.434 16.1758 283.946 16.1758 284.474C16.1758 286.255 15.2764 287.163 13.4775 287.198L8.35352 287.198L8.35352 288.587L6.49023 288.587L6.49023 287.198L4.15234 287.198L4.15234 284.658ZM4.15234 278.576L6.49023 278.576L6.49023 276.95L8.35352 276.95L8.35352 278.576L13.0996 278.576C13.4512 278.576 13.7031 278.509 13.8555 278.374C14.0078 278.239 14.084 277.981 14.084 277.601C14.084 277.319 14.0635 277.07 14.0225 276.854L15.9473 276.854C16.0996 277.352 16.1758 277.864 16.1758 278.392C16.1758 280.173 15.2764 281.081 13.4775 281.116L8.35352 281.116L8.35352 282.505L6.49023 282.505L6.49023 281.116L4.15234 281.116L4.15234 278.576ZM11.1572 276.194C10.2139 276.194 9.37305 276.013 8.63477 275.649C7.89648 275.286 7.3252 274.765 6.9209 274.085C6.5166 273.399 6.31445 272.605 6.31445 271.703C6.31445 270.42 6.70703 269.374 7.49219 268.565C8.27734 267.751 9.34375 267.297 10.6914 267.203L11.3418 267.186C12.8008 267.186 13.9727 267.593 14.8574 268.407C15.7363 269.222 16.1758 270.314 16.1758 271.686C16.1758 273.057 15.7363 274.152 14.8574 274.973C13.9785 275.787 12.7832 276.194 11.2715 276.194L11.1572 276.194ZM11.3418 273.654C12.2441 273.654 12.9355 273.484 13.416 273.145C13.8906 272.805 14.1279 272.318 14.1279 271.686C14.1279 271.07 13.8936 270.59 13.4248 270.244C12.9502 269.898 12.1943 269.726 11.1572 269.726C10.2725 269.726 9.58691 269.898 9.10059 270.244C8.61426 270.59 8.37109 271.076 8.37109 271.703C8.37109 272.324 8.61426 272.805 9.10059 273.145C9.58106 273.484 10.3281 273.654 11.3418 273.654ZM6.49023 263.239L7.55371 263.16C6.72754 262.486 6.31445 261.575 6.31445 260.427C6.31445 259.202 6.79785 258.361 7.76465 257.904C6.79785 257.236 6.31445 256.284 6.31445 255.048C6.31445 254.017 6.61621 253.249 7.21973 252.745C7.81738 252.241 8.71973 251.989 9.92676 251.989L16 251.989L16 254.538L9.93555 254.538C9.39649 254.538 9.00391 254.644 8.75781 254.854C8.50586 255.065 8.37988 255.438 8.37988 255.971C8.37988 256.732 8.74316 257.26 9.46973 257.553L16 257.544L16 260.084L9.94434 260.084C9.39356 260.084 8.99512 260.192 8.74902 260.409C8.50293 260.626 8.37988 260.995 8.37988 261.517C8.37988 262.237 8.67871 262.759 9.27637 263.081L16 263.081L16 265.621L6.49023 265.621L6.49023 263.239Z" fill="#E44D26"/>
<path d="M522.423 8.87207C522.077 8.8252 521.772 8.80176 521.509 8.80176C520.548 8.80176 519.918 9.12695 519.619 9.77734V16H517.079V6.49023H519.479L519.549 7.62402C520.059 6.75098 520.765 6.31445 521.667 6.31445C521.948 6.31445 522.212 6.35254 522.458 6.42871L522.423 8.87207ZM526.334 16H523.785V6.49023H526.334V16ZM523.636 4.0293C523.636 3.64844 523.762 3.33496 524.014 3.08887C524.271 2.84277 524.62 2.71973 525.06 2.71973C525.493 2.71973 525.839 2.84277 526.097 3.08887C526.354 3.33496 526.483 3.64844 526.483 4.0293C526.483 4.41602 526.352 4.73242 526.088 4.97852C525.83 5.22461 525.487 5.34766 525.06 5.34766C524.632 5.34766 524.286 5.22461 524.022 4.97852C523.765 4.73242 523.636 4.41602 523.636 4.0293ZM528.065 11.1748C528.065 9.71582 528.411 8.54102 529.103 7.65039C529.8 6.75977 530.737 6.31445 531.915 6.31445C532.958 6.31445 533.77 6.67188 534.35 7.38672L534.455 6.49023H536.758V15.6836C536.758 16.5156 536.567 17.2393 536.187 17.8545C535.812 18.4697 535.281 18.9385 534.596 19.2607C533.91 19.583 533.107 19.7441 532.188 19.7441C531.49 19.7441 530.811 19.6035 530.148 19.3223C529.486 19.0469 528.985 18.6895 528.646 18.25L529.771 16.7031C530.403 17.4121 531.171 17.7666 532.073 17.7666C532.747 17.7666 533.271 17.585 533.646 17.2217C534.021 16.8643 534.209 16.3545 534.209 15.6924V15.1826C533.623 15.8447 532.853 16.1758 531.897 16.1758C530.755 16.1758 529.829 15.7305 529.12 14.8398C528.417 13.9434 528.065 12.7568 528.065 11.2803V11.1748ZM530.605 11.3594C530.605 12.2207 530.778 12.8975 531.124 13.3896C531.47 13.876 531.944 14.1191 532.548 14.1191C533.321 14.1191 533.875 13.8291 534.209 13.249V9.25C533.869 8.66992 533.321 8.37988 532.565 8.37988C531.956 8.37988 531.476 8.62891 531.124 9.12695C530.778 9.625 530.605 10.3691 530.605 11.3594ZM541.196 7.52734C541.87 6.71875 542.717 6.31445 543.736 6.31445C545.799 6.31445 546.845 7.5127 546.874 9.90918V16H544.334V9.97949C544.334 9.43457 544.217 9.0332 543.982 8.77539C543.748 8.51172 543.358 8.37988 542.813 8.37988C542.069 8.37988 541.53 8.66699 541.196 9.24121V16H538.656V2.5H541.196V7.52734ZM551.831 4.15234V6.49023H553.457V8.35352H551.831V13.0996C551.831 13.4512 551.898 13.7031 552.033 13.8555C552.168 14.0078 552.426 14.084 552.807 14.084C553.088 14.084 553.337 14.0635 553.554 14.0225V15.9473C553.056 16.0996 552.543 16.1758 552.016 16.1758C550.234 16.1758 549.326 15.2764 549.291 13.4775V8.35352H547.902V6.49023H549.291V4.15234H551.831Z" fill="#E44D26"/>
</svg>
