<svg width="830" height="290" viewBox="0 0 830 290" fill="none" xmlns="http://www.w3.org/2000/svg">
<g clip-path="url(#clip0)">
<path d="M475.419 37.4184C476.098 31.1887 480.905 26.1889 486.888 26.1889C493.603 26.1889 498.227 31.0015 498.645 37.4184H475.419ZM497.417 50.573C495.719 54.1557 492.192 56.4818 486.862 56.6155C479.468 56.8027 475.576 50.3591 475.393 44.8245H497.339H498.619H513.485C513.616 43.7016 513.694 42.5786 513.694 41.4022C513.694 26.3225 501.754 14.1038 487.019 14.1038C472.284 14.1038 460.344 26.3225 460.344 41.4022C460.344 56.4818 472.284 68.7006 487.019 68.7006C498.619 68.7006 508.469 61.1341 512.153 50.573H497.417Z" fill="url(#paint0_radial)" stroke="#2064A9" stroke-miterlimit="10"/>
<path d="M510.689 22.9536C510.48 23.7825 510.271 24.5044 510.141 25.1193C510.036 25.6006 509.984 27.0176 509.984 27.0176C509.984 27.0176 510.977 26.3759 511.212 26.0551C511.421 25.761 511.708 24.5044 511.97 23.2477L510.689 22.9536Z" fill="url(#paint1_linear)" fill-opacity="0.95"/>
<path d="M512.022 23.3013C512.205 22.4724 512.362 21.6168 512.44 21.0286C512.78 18.8629 513.485 7.31256 498.41 10.6012C478.188 14.9861 467.006 31.2154 465.23 33.4613C461.859 37.7392 451.827 54.2627 454.465 64.4227C456.007 70.3583 462.173 70.3316 466.666 69.3958L466.353 67.7648C458.724 69.0214 457.574 63.0858 458.62 58.4604C459.9 52.6852 464.054 43.1936 477.483 29.8251C489.397 17.9539 502.042 11.3231 508.626 14.6117C512.127 16.3496 511.447 20.1196 510.69 23.0072L512.022 23.3013Z" fill="#FFB700" fill-opacity="0.95"/>
<path d="M498.41 10.6013C478.188 14.9862 467.006 31.2155 465.229 33.4614C463.113 36.1351 458.41 43.6215 455.824 51.3217C455.667 51.9367 455.484 52.5516 455.275 53.0864C463.583 31.2957 484.223 15.8685 499.22 10.4409C498.958 10.4944 498.671 10.5479 498.41 10.6013Z" fill="#FFFFA6"/>
<path d="M466.666 69.3691C469.122 68.8343 471.134 68.0322 471.578 67.7916C471.996 67.551 473.433 66.7489 474.739 65.9467L473.59 65.2783C472.963 65.519 472.231 65.8131 471.421 66.1606C469.514 66.9627 467.789 67.4708 466.353 67.6846L466.666 69.3691Z" fill="url(#paint2_linear)" fill-opacity="0.95"/>
</g>
<g clip-path="url(#clip1)">
<path d="M594.152 54.6579C593.352 55.0762 592.527 55.4449 591.682 55.7618C588.991 56.7686 586.141 57.2815 583.268 57.2758C572.177 57.2758 562.516 49.6469 562.516 39.8571C562.531 38.544 562.895 37.2586 563.572 36.1334C564.249 35.0082 565.214 34.084 566.367 33.4563C556.336 33.8782 553.758 44.3313 553.758 50.4555C553.758 67.7711 569.716 69.5266 573.155 69.5266C575.009 69.5266 577.805 68.9876 579.483 68.4579L579.79 68.3547C586.247 66.1223 591.753 61.7579 595.399 55.9797C595.511 55.8038 595.561 55.5956 595.541 55.3881C595.521 55.1806 595.433 54.9857 595.29 54.8341C595.147 54.6825 594.957 54.5828 594.751 54.5509C594.545 54.519 594.335 54.5566 594.152 54.6579V54.6579Z" fill="url(#paint3_linear)"/>
<path opacity="0.35" d="M594.152 54.6579C593.352 55.0762 592.527 55.4449 591.682 55.7618C588.991 56.7686 586.141 57.2815 583.268 57.2758C572.177 57.2758 562.516 49.6469 562.516 39.8571C562.531 38.544 562.895 37.2586 563.572 36.1334C564.249 35.0082 565.214 34.084 566.367 33.4563C556.336 33.8782 553.758 44.3313 553.758 50.4555C553.758 67.7711 569.716 69.5266 573.155 69.5266C575.009 69.5266 577.805 68.9876 579.483 68.4579L579.79 68.3547C586.247 66.1223 591.753 61.7579 595.399 55.9797C595.511 55.8038 595.561 55.5956 595.541 55.3881C595.521 55.1806 595.433 54.9857 595.29 54.8341C595.147 54.6825 594.957 54.5828 594.751 54.5509C594.545 54.519 594.335 54.5566 594.152 54.6579V54.6579Z" fill="url(#paint4_radial)"/>
<path d="M564.775 66.583C562.685 65.2855 560.873 63.5853 559.446 61.5814C557.819 59.3522 556.699 56.7941 556.165 54.0863C555.632 51.3786 555.697 48.5869 556.356 45.9071C557.016 43.2272 558.254 40.7241 559.983 38.5732C561.712 36.4224 563.891 34.676 566.367 33.4564C567.098 33.1119 568.347 32.4884 570.009 32.5189C571.18 32.5274 572.333 32.8069 573.377 33.3356C574.422 33.8642 575.33 34.6275 576.03 35.5658C576.977 36.8295 577.498 38.3605 577.521 39.9392C577.521 39.89 583.254 21.283 558.771 21.283C548.482 21.283 540.021 31.047 540.021 39.6134C539.98 44.1449 540.95 48.6286 542.859 52.7384C545.979 59.396 551.436 64.6759 558.193 67.5755C564.949 70.4751 572.535 70.7925 579.511 68.4673C577.068 69.2374 574.488 69.4685 571.948 69.1448C569.407 68.8211 566.968 67.9503 564.797 66.5923L564.775 66.583Z" fill="url(#paint5_linear)"/>
<path opacity="0.41" d="M564.775 66.583C562.685 65.2855 560.873 63.5853 559.446 61.5814C557.819 59.3522 556.699 56.7941 556.165 54.0863C555.632 51.3786 555.697 48.5869 556.356 45.9071C557.016 43.2272 558.254 40.7241 559.983 38.5732C561.712 36.4224 563.891 34.676 566.367 33.4564C567.098 33.1119 568.347 32.4884 570.009 32.5189C571.18 32.5274 572.333 32.8069 573.377 33.3356C574.422 33.8642 575.33 34.6275 576.03 35.5658C576.977 36.8295 577.498 38.3605 577.521 39.9392C577.521 39.89 583.254 21.283 558.771 21.283C548.482 21.283 540.021 31.047 540.021 39.6134C539.98 44.1449 540.95 48.6286 542.859 52.7384C545.979 59.396 551.436 64.6759 558.193 67.5755C564.949 70.4751 572.535 70.7925 579.511 68.4673C577.068 69.2374 574.488 69.4685 571.948 69.1448C569.407 68.8211 566.968 67.9503 564.797 66.5923L564.775 66.583Z" fill="url(#paint6_radial)"/>
<path d="M575.697 44.8891C575.508 45.1352 574.924 45.475 574.924 46.2156C574.924 46.8273 575.322 47.4156 576.03 47.9102C579.401 50.2539 585.754 49.9445 585.771 49.9445C588.268 49.9385 590.718 49.2627 592.865 47.9875C595.032 46.7227 596.829 44.9136 598.08 42.7395C599.331 40.5655 599.992 38.1021 599.997 35.5938C600.058 30.3414 598.122 26.8492 597.34 25.3023C592.373 15.5875 581.653 10 569.995 10C562.111 9.99922 554.544 13.1019 548.93 18.6371C543.316 24.1723 540.106 31.695 539.995 39.5781C540.108 31.0141 548.62 24.0977 558.745 24.0977C559.565 24.0977 564.244 24.1773 568.589 26.4578C572.419 28.4688 574.425 30.8969 575.819 33.3039C577.268 35.8047 577.526 38.9641 577.526 40.2227C577.526 41.4812 576.883 43.3469 575.697 44.8891V44.8891Z" fill="url(#paint7_radial)"/>
<path d="M575.697 44.8891C575.508 45.1352 574.924 45.475 574.924 46.2156C574.924 46.8273 575.322 47.4156 576.03 47.9102C579.401 50.2539 585.754 49.9445 585.771 49.9445C588.268 49.9385 590.718 49.2627 592.865 47.9875C595.032 46.7227 596.829 44.9136 598.08 42.7395C599.331 40.5655 599.992 38.1021 599.997 35.5938C600.058 30.3414 598.122 26.8492 597.34 25.3023C592.373 15.5875 581.653 10 569.995 10C562.111 9.99922 554.544 13.1019 548.93 18.6371C543.316 24.1723 540.106 31.695 539.995 39.5781C540.108 31.0141 548.62 24.0977 558.745 24.0977C559.565 24.0977 564.244 24.1773 568.589 26.4578C572.419 28.4688 574.425 30.8969 575.819 33.3039C577.268 35.8047 577.526 38.9641 577.526 40.2227C577.526 41.4812 576.883 43.3469 575.697 44.8891V44.8891Z" fill="url(#paint8_radial)"/>
</g>
<g clip-path="url(#clip2)">
<path d="M200.732 239.945C199.476 236.926 196.927 233.668 194.93 232.637C196.354 235.39 197.342 238.346 197.859 241.4L197.865 241.449C194.595 233.311 189.05 230.03 184.521 222.885C184.292 222.523 184.063 222.161 183.839 221.779C183.712 221.561 183.61 221.364 183.521 221.183C183.333 220.82 183.188 220.437 183.09 220.04C183.09 220.022 183.083 220.004 183.071 219.99C183.059 219.977 183.042 219.968 183.024 219.966C183.006 219.961 182.987 219.961 182.969 219.966C182.966 219.966 182.96 219.972 182.955 219.974C182.951 219.975 182.941 219.982 182.934 219.985L182.946 219.966C175.681 224.211 173.216 232.071 172.99 236.003C170.088 236.202 167.315 237.269 165.03 239.065C164.792 238.864 164.543 238.675 164.284 238.5C163.625 236.198 163.597 233.761 164.203 231.444C161.535 232.734 159.165 234.563 157.241 236.815H157.228C156.082 235.364 156.162 230.582 156.228 229.583C155.889 229.719 155.565 229.891 155.262 230.095C154.251 230.816 153.305 231.625 152.436 232.512C151.446 233.514 150.541 234.598 149.732 235.75V235.755V235.75C147.873 238.381 146.554 241.354 145.852 244.497L145.813 244.687C145.759 244.941 145.562 246.214 145.529 246.49C145.529 246.512 145.524 246.532 145.522 246.553C145.269 247.867 145.112 249.197 145.053 250.533V250.682C145.059 257.911 147.782 264.874 152.682 270.196C157.583 275.517 164.306 278.81 171.521 279.424C178.736 280.037 185.92 277.926 191.651 273.508C197.383 269.091 201.246 262.687 202.477 255.564C202.525 255.192 202.565 254.823 202.608 254.447C203.204 249.532 202.559 244.547 200.732 239.945V239.945ZM167.399 262.543C167.534 262.608 167.661 262.678 167.8 262.74L167.82 262.752C167.679 262.685 167.539 262.615 167.399 262.543V262.543ZM197.867 241.455V241.428L197.872 241.458L197.867 241.455Z" fill="url(#paint9_linear)"/>
<path d="M200.732 239.945C199.476 236.926 196.927 233.668 194.93 232.637C196.354 235.39 197.342 238.346 197.859 241.4V241.428L197.865 241.458C200.094 247.826 199.771 254.807 196.965 260.943C193.65 268.042 185.627 275.319 173.068 274.965C159.498 274.582 147.547 264.53 145.313 251.365C144.906 249.289 145.313 248.237 145.518 246.55C145.239 247.86 145.083 249.194 145.053 250.533V250.682C145.059 257.911 147.782 264.874 152.682 270.195C157.583 275.517 164.306 278.81 171.521 279.423C178.736 280.037 185.92 277.926 191.651 273.508C197.383 269.091 201.246 262.687 202.477 255.564C202.525 255.192 202.565 254.823 202.608 254.447C203.204 249.532 202.559 244.547 200.732 239.945V239.945Z" fill="url(#paint10_radial)"/>
<path d="M200.732 239.945C199.476 236.926 196.927 233.668 194.93 232.637C196.354 235.39 197.342 238.346 197.859 241.4V241.428L197.865 241.458C200.094 247.826 199.771 254.807 196.965 260.943C193.65 268.042 185.627 275.319 173.068 274.965C159.498 274.582 147.547 264.53 145.313 251.365C144.906 249.289 145.313 248.237 145.518 246.55C145.239 247.86 145.083 249.194 145.053 250.533V250.682C145.059 257.911 147.782 264.874 152.682 270.195C157.583 275.517 164.306 278.81 171.521 279.423C178.736 280.037 185.92 277.926 191.651 273.508C197.383 269.091 201.246 262.687 202.477 255.564C202.525 255.192 202.565 254.823 202.608 254.447C203.204 249.532 202.559 244.547 200.732 239.945V239.945Z" fill="url(#paint11_radial)"/>
<path d="M186.678 243.338C186.741 243.382 186.799 243.426 186.858 243.47C186.132 242.184 185.227 241.007 184.172 239.973C175.183 230.999 181.816 220.515 182.935 219.982L182.946 219.966C175.681 224.211 173.217 232.071 172.99 236.003C173.327 235.98 173.661 235.951 174.006 235.951C176.584 235.956 179.114 236.642 181.34 237.94C183.566 239.237 185.408 241.1 186.678 243.338V243.338Z" fill="url(#paint12_radial)"/>
<path d="M174.024 245.131C173.977 245.849 171.435 248.325 170.546 248.325C162.322 248.325 160.987 253.291 160.987 253.291C161.351 257.473 164.271 260.918 167.799 262.739C167.961 262.823 168.124 262.898 168.288 262.972C168.571 263.097 168.854 263.213 169.137 263.319C170.348 263.747 171.616 263.991 172.9 264.044C187.314 264.719 190.107 246.837 179.705 241.648C182.159 241.33 184.644 241.932 186.678 243.338C185.407 241.1 183.565 239.237 181.339 237.94C179.114 236.642 176.583 235.956 174.006 235.951C173.663 235.951 173.327 235.98 172.989 236.003C170.088 236.202 167.315 237.269 165.03 239.065C165.471 239.437 165.969 239.935 167.017 240.967C168.98 242.897 174.013 244.896 174.024 245.131V245.131Z" fill="url(#paint13_radial)"/>
<path d="M174.024 245.131C173.977 245.849 171.435 248.325 170.546 248.325C162.322 248.325 160.987 253.291 160.987 253.291C161.351 257.473 164.271 260.918 167.799 262.739C167.961 262.823 168.124 262.898 168.288 262.972C168.571 263.097 168.854 263.213 169.137 263.319C170.348 263.747 171.616 263.991 172.9 264.044C187.314 264.719 190.107 246.837 179.705 241.648C182.159 241.33 184.644 241.932 186.678 243.338C185.407 241.1 183.565 239.237 181.339 237.94C179.114 236.642 176.583 235.956 174.006 235.951C173.663 235.951 173.327 235.98 172.989 236.003C170.088 236.202 167.315 237.269 165.03 239.065C165.471 239.437 165.969 239.935 167.017 240.967C168.98 242.897 174.013 244.896 174.024 245.131V245.131Z" fill="url(#paint14_radial)"/>
<path d="M163.682 238.105C163.916 238.254 164.11 238.383 164.279 238.5C163.62 236.198 163.592 233.761 164.198 231.444C161.53 232.734 159.16 234.563 157.236 236.815C157.377 236.811 161.573 236.736 163.682 238.105V238.105Z" fill="url(#paint15_radial)"/>
<path d="M145.317 251.365C147.549 264.53 159.502 274.582 173.072 274.965C185.631 275.32 193.654 268.042 196.969 260.943C199.775 254.807 200.098 247.826 197.868 241.458V241.431C197.868 241.409 197.864 241.396 197.868 241.403L197.874 241.452C198.9 248.138 195.493 254.617 190.166 258.997L190.15 259.034C179.771 267.472 169.839 264.125 167.829 262.759C167.689 262.692 167.548 262.622 167.408 262.549C161.357 259.662 158.857 254.159 159.393 249.44C157.957 249.461 156.545 249.066 155.329 248.302C154.113 247.539 153.145 246.44 152.542 245.138C154.13 244.167 155.941 243.617 157.803 243.543C159.664 243.468 161.513 243.871 163.175 244.712C166.6 246.264 170.497 246.417 174.034 245.138C174.022 244.903 168.989 242.903 167.027 240.974C165.978 239.942 165.481 239.446 165.04 239.072C164.801 238.871 164.552 238.682 164.293 238.508C164.122 238.391 163.928 238.264 163.696 238.112C161.587 236.743 157.392 236.818 157.253 236.822H157.239C156.093 235.372 156.174 230.59 156.239 229.591C155.9 229.727 155.577 229.898 155.274 230.103C154.262 230.823 153.316 231.632 152.447 232.52C151.453 233.519 150.545 234.6 149.732 235.75V235.755V235.749C147.873 238.381 146.554 241.354 145.852 244.497C145.838 244.555 144.81 249.04 145.317 251.365V251.365Z" fill="url(#paint16_radial)"/>
<path d="M184.173 239.973C185.229 241.008 186.133 242.187 186.859 243.474C187.018 243.594 187.167 243.713 187.293 243.829C193.85 249.862 190.414 258.391 190.158 258.998C195.485 254.617 198.889 248.139 197.866 241.452C194.595 233.311 189.049 230.03 184.521 222.885C184.292 222.523 184.063 222.161 183.839 221.779C183.712 221.561 183.61 221.364 183.521 221.183C183.333 220.82 183.188 220.437 183.089 220.04C183.09 220.022 183.083 220.004 183.071 219.99C183.059 219.977 183.042 219.968 183.024 219.966C183.006 219.961 182.987 219.961 182.969 219.966C182.966 219.966 182.96 219.972 182.955 219.974C182.951 219.975 182.941 219.982 182.934 219.985C181.816 220.515 175.183 230.999 184.173 239.973V239.973Z" fill="url(#paint17_radial)"/>
<path d="M187.288 243.825C187.162 243.709 187.014 243.59 186.855 243.47C186.796 243.426 186.738 243.382 186.675 243.338C184.641 241.932 182.155 241.33 179.701 241.648C190.104 246.84 187.313 264.719 172.897 264.044C171.613 263.991 170.345 263.747 169.134 263.319C168.851 263.213 168.567 263.098 168.284 262.972C168.121 262.897 167.958 262.823 167.796 262.74L167.817 262.752C169.827 264.122 179.756 267.469 190.137 259.028L190.154 258.991C190.413 258.387 193.848 249.856 187.288 243.825V243.825Z" fill="url(#paint18_radial)"/>
<path d="M160.987 253.292C160.987 253.292 162.322 248.325 170.546 248.325C171.435 248.325 173.979 245.849 174.024 245.131C170.488 246.41 166.591 246.257 163.166 244.705C161.504 243.863 159.655 243.461 157.794 243.536C155.932 243.61 154.121 244.159 152.533 245.131C153.136 246.432 154.104 247.531 155.32 248.295C156.536 249.058 157.947 249.454 159.384 249.432C158.848 254.153 161.348 259.656 167.399 262.542C167.534 262.607 167.661 262.677 167.8 262.739C164.268 260.918 161.351 257.473 160.987 253.292Z" fill="url(#paint19_radial)"/>
<path d="M200.732 239.945C199.476 236.926 196.927 233.668 194.93 232.637C196.354 235.39 197.342 238.346 197.859 241.4L197.865 241.449C194.595 233.311 189.05 230.03 184.521 222.885C184.292 222.523 184.063 222.161 183.839 221.779C183.712 221.561 183.61 221.364 183.521 221.183C183.333 220.82 183.188 220.437 183.09 220.04C183.09 220.022 183.083 220.004 183.071 219.99C183.059 219.977 183.042 219.968 183.024 219.966C183.006 219.961 182.987 219.961 182.969 219.966C182.966 219.966 182.96 219.972 182.955 219.974C182.951 219.975 182.941 219.982 182.934 219.985L182.946 219.966C175.681 224.211 173.216 232.071 172.99 236.003C173.327 235.98 173.661 235.951 174.006 235.951C176.583 235.956 179.114 236.642 181.34 237.94C183.565 239.237 185.407 241.1 186.678 243.338C184.644 241.932 182.159 241.33 179.705 241.648C190.107 246.84 187.316 264.719 172.9 264.044C171.616 263.991 170.348 263.747 169.137 263.319C168.854 263.213 168.571 263.098 168.288 262.972C168.124 262.897 167.961 262.823 167.8 262.74L167.82 262.752C167.679 262.685 167.539 262.615 167.399 262.543C167.534 262.608 167.661 262.678 167.8 262.74C164.268 260.918 161.352 257.473 160.987 253.291C160.987 253.291 162.322 248.325 170.546 248.325C171.435 248.325 173.979 245.849 174.025 245.131C174.013 244.896 168.98 242.896 167.018 240.967C165.969 239.935 165.471 239.438 165.03 239.065C164.792 238.864 164.543 238.675 164.284 238.5C163.625 236.198 163.597 233.761 164.203 231.444C161.535 232.734 159.165 234.563 157.241 236.815H157.228C156.082 235.364 156.162 230.582 156.228 229.583C155.889 229.719 155.565 229.891 155.262 230.095C154.251 230.816 153.305 231.625 152.436 232.512C151.446 233.514 150.541 234.598 149.732 235.75V235.755V235.75C147.873 238.381 146.554 241.354 145.852 244.497L145.813 244.687C145.759 244.941 145.515 246.232 145.48 246.509C145.48 246.529 145.48 246.487 145.48 246.509C145.256 247.84 145.114 249.184 145.053 250.533V250.682C145.059 257.911 147.782 264.874 152.682 270.196C157.583 275.517 164.306 278.81 171.521 279.424C178.736 280.037 185.92 277.926 191.651 273.508C197.383 269.091 201.246 262.687 202.477 255.564C202.525 255.192 202.565 254.823 202.608 254.447C203.204 249.532 202.559 244.547 200.732 239.945V239.945ZM197.863 241.428L197.868 241.458L197.863 241.428Z" fill="url(#paint20_linear)"/>
</g>
<g clip-path="url(#clip3)">
<path d="M118 250C118 266.566 104.566 280 88 280C71.434 280 58 266.566 58 250C58 233.434 71.434 220 88 220C104.566 220 118 233.434 118 250Z" fill="#4CAF50"/>
<path d="M88.0003 220V250L100 256L86.7358 280H88.0003C104.58 280 118 266.58 118 250C118 233.42 104.58 220 88.0003 220Z" fill="#FFC107"/>
<path d="M118 250C118 266.566 104.566 280 88 280C71.434 280 58 266.566 58 250C58 233.434 71.434 220 88 220C104.566 220 118 233.434 118 250Z" fill="#4CAF50"/>
<path d="M88.0003 220V250L100 256L86.7358 280H88.0003C104.58 280 118 266.58 118 250C118 233.42 104.58 220 88.0003 220Z" fill="#FFC107"/>
<path d="M114.76 236.5H88.0005V256L83.5005 254.5L62.7404 233.89H62.7104C68.0204 225.535 77.3654 220 88.0005 220C99.7005 220 109.825 226.72 114.76 236.5Z" fill="#F44336"/>
<path d="M62.7373 233.896L76.0018 256.189L83.5003 254.5L62.7373 233.896Z" fill="#DD2C00"/>
<path d="M86.7358 280L100.137 255.911L94.0003 251.5L86.7358 280Z" fill="#558B2F"/>
<path d="M114.797 236.5H87.9998L85.6313 243.37L114.797 236.5Z" fill="#F9A825"/>
<path d="M101.5 250C101.5 257.453 95.4535 263.5 88 263.5C80.5465 263.5 74.5 257.453 74.5 250C74.5 242.547 80.5465 236.5 88 236.5C95.4535 236.5 101.5 242.547 101.5 250Z" fill="white"/>
<path d="M98.5 250C98.5 255.801 93.8005 260.5 88 260.5C82.1995 260.5 77.5 255.801 77.5 250C77.5 244.199 82.1995 239.5 88 239.5C93.8005 239.5 98.5 244.199 98.5 250Z" fill="#2196F3"/>
</g>
<path d="M260 220.093C243.472 220.093 230.093 233.472 230.093 250C230.093 266.528 243.472 279.907 260 279.907C276.528 279.907 289.908 266.528 289.908 250C289.908 233.472 276.528 220.093 260 220.093ZM260 272.037C252.13 272.037 245.834 262.12 245.834 250C245.834 237.88 252.13 227.963 260 227.963C267.871 227.963 274.167 237.88 274.167 250C274.167 262.12 267.871 272.037 260 272.037Z" fill="#FF1744"/>
<path d="M279.204 227.019C275.898 224.657 271.963 223.241 267.87 223.241C260.157 223.241 253.389 228.12 249.454 235.361C251.972 230.796 255.75 227.963 260 227.963C267.87 227.963 274.167 237.88 274.167 250C274.167 262.12 267.87 272.037 260 272.037C255.75 272.037 252.13 269.204 249.454 264.639C253.389 271.88 260.157 276.759 267.87 276.759C271.963 276.759 275.898 275.343 279.204 272.981C285.657 267.472 289.907 259.287 289.907 250C289.907 240.713 285.657 232.528 279.204 227.019Z" fill="#D50000"/>
<path d="M346 280C362.569 280 376 266.569 376 250C376 233.431 362.569 220 346 220C329.431 220 316 233.431 316 250C316 266.569 329.431 280 346 280Z" fill="url(#paint21_linear)"/>
<path d="M345.385 222.308H346V227.461H345.462L345.385 222.308ZM350.231 222.692L350.769 222.769L349.846 227.846L349.308 227.769L350.231 222.692ZM354.923 223.923L355.462 224.154L353.692 229L353.154 228.769L354.923 223.923ZM359.308 225.923L359.769 226.231L357.154 230.692L356.692 230.385L359.308 225.923ZM363.308 228.615L363.769 229L360.462 233L360 232.615L363.308 228.615ZM366.692 232L367.077 232.461L363.077 235.769L362.692 235.308L366.692 232ZM369.538 235.923L369.846 236.385L365.385 239L365.077 238.538L369.538 235.923ZM371.615 240.308L371.846 240.846L367 242.615L366.769 242.077L371.615 240.308ZM372.923 244.923L373 245.461L367.923 246.385L367.846 245.846L372.923 244.923ZM373.385 249.692V250.231H368.231V249.692H373.385ZM373 254.538L372.923 255.077L367.846 254.154L367.923 253.615L373 254.538ZM371.846 259.231L371.615 259.769L366.769 258L367 257.461L371.846 259.231ZM369.846 263.615L369.538 264.077L365 261.538L365.308 261.077L369.846 263.615ZM367.077 267.615L366.692 268.077L362.692 264.769L363.077 264.308L367.077 267.615ZM363.692 271L363.231 271.385L359.923 267.385L360.385 267L363.692 271ZM359.769 273.846L359.308 274.154L356.692 269.692L357.154 269.385L359.769 273.846ZM355.462 275.923L354.923 276.154L353.154 271.308L353.692 271.077L355.462 275.923ZM350.769 277.231L350.231 277.308L349.308 272.231L349.846 272.154L350.769 277.231ZM346 277.692H345.462V272.538H346V277.692ZM341.154 277.308L340.615 277.231L341.538 272.154L342.077 272.231L341.154 277.308ZM336.538 276.154L336 275.923L337.769 271.077L338.308 271.308L336.538 276.154ZM332.077 274.154L331.615 273.846L334.231 269.385L334.692 269.692L332.077 274.154ZM328.154 271.385L327.692 271L331 267L331.462 267.385L328.154 271.385ZM324.692 268L324.308 267.538L328.308 264.231L328.692 264.692L324.692 268ZM321.846 264.077L321.538 263.615L326 261L326.308 261.461L321.846 264.077ZM319.769 259.769L319.615 259.231L324.462 257.461L324.692 258L319.769 259.769ZM318.462 255.077L318.385 254.538L323.462 253.615L323.538 254.154L318.462 255.077ZM318 250.308V249.769H323.154V250.308H318ZM318.385 245.461L318.462 244.923L323.538 245.846L323.462 246.385L318.385 245.461ZM319.615 240.846L319.846 240.308L324.692 242.077L324.462 242.615L319.615 240.846ZM321.615 236.385L321.923 235.923L326.385 238.538L326.077 239L321.615 236.385ZM324.308 232.461L324.692 232L328.692 235.308L328.308 235.769L324.308 232.461ZM327.692 229L328.154 228.615L331.462 232.615L331 233L327.692 229ZM331.615 226.154L332.077 225.846L334.692 230.308L334.231 230.615L331.615 226.154ZM335.923 224.077L336.462 223.846L338.231 228.692L337.692 228.923L335.923 224.077ZM340.615 222.769L341.154 222.692L342.077 227.769L341.538 227.846L340.615 222.769Z" fill="white"/>
<path d="M347.846 222.385L348.385 222.462L348.154 225.308H347.539L347.846 222.385ZM352.616 223.231L353.154 223.385L352.385 226.154L351.846 226L352.616 223.231ZM357.154 224.769L357.693 225L356.462 227.692L355.923 227.462L357.154 224.769ZM361.308 227.154L361.769 227.462L360.077 229.846L359.616 229.539L361.308 227.154ZM365.077 230.231L365.462 230.616L363.385 232.692L363 232.308L365.077 230.231ZM368.231 233.923L368.539 234.385L366.154 236.077L365.846 235.616L368.231 233.923ZM370.693 238.077L370.923 238.616L368.308 239.769L368.077 239.231L370.693 238.077ZM372.385 242.539L372.539 243.077L369.769 243.846L369.616 243.308L372.385 242.539ZM373.231 247.308L373.308 247.846L370.462 248.077L370.385 247.539L373.231 247.308ZM373.308 252.154L373.231 252.692L370.385 252.462L370.462 251.923L373.308 252.154ZM372.539 256.923L372.385 257.462L369.616 256.692L369.769 256.154L372.539 256.923ZM370.923 261.462L370.693 262L368.077 260.769L368.308 260.231L370.923 261.462ZM368.539 265.616L368.231 266.154L365.846 264.462L366.154 264L368.539 265.616ZM365.462 269.385L365.077 269.769L363 267.692L363.385 267.308L365.462 269.385ZM361.846 272.539L361.385 272.846L359.693 270.462L360.154 270.154L361.846 272.539ZM357.693 275L357.154 275.231L355.923 272.616L356.462 272.385L357.693 275ZM353.154 276.692L352.616 276.846L351.846 274.077L352.385 273.923L353.154 276.692ZM348.385 277.539L347.846 277.616L347.539 274.769L348.077 274.692L348.385 277.539ZM343.539 277.616L343 277.539L343.231 274.692L343.769 274.769L343.539 277.616ZM338.846 276.846L338.308 276.692L339.077 273.923L339.616 274.077L338.846 276.846ZM334.231 275.231L333.693 275L334.923 272.385L335.462 272.616L334.231 275.231ZM330.077 272.846L329.616 272.539L331.308 270.154L331.769 270.462L330.077 272.846ZM326.308 269.769L325.923 269.385L328 267.308L328.385 267.692L326.308 269.769ZM323.154 266.154L322.846 265.692L325.231 264L325.539 264.462L323.154 266.154ZM320.769 262L320.539 261.462L323.154 260.231L323.385 260.769L320.769 262ZM319 257.462L318.923 256.923L321.693 256.154L321.846 256.692L319 257.462ZM318.154 252.692L318.077 252.154L320.923 251.923L321 252.462L318.154 252.692ZM318.077 247.923L318.154 247.385L321 247.616L320.923 248.154L318.077 247.923ZM318.923 243.154L319.077 242.616L321.846 243.385L321.693 243.846L318.923 243.154ZM320.462 238.539L320.693 238L323.308 239.231L323.077 239.769L320.462 238.539ZM322.846 234.385L323.154 233.923L325.539 235.616L325.231 236L322.846 234.385ZM325.923 230.616L326.308 230.231L328.385 232.308L328 232.692L325.923 230.616ZM329.616 227.539L330.077 227.231L331.769 229.616L331.308 229.923L329.616 227.539ZM333.769 225.077L334.308 224.846L335.539 227.462L334.923 227.692L333.769 225.077ZM338.231 223.385L338.769 223.231L339.539 226L339 226.154L338.231 223.385ZM343 222.462L343.539 222.385L343.769 225.231L343.231 225.308L343 222.462Z" fill="white"/>
<path d="M348.837 252.837L343.126 247.126L324.687 271.004L348.837 252.837L343.126 247.126Z" fill="white"/>
<path d="M343.126 247.126L367.005 228.578L348.837 252.837L343.126 247.126Z" fill="#FF1414"/>
<rect y="144" width="830" height="2" fill="#C4C4C4"/>
<rect x="416" width="290" height="1.99999" transform="rotate(90 416 0)" fill="#C4C4C4"/>
<path d="M249.745 112.148C249.638 114.648 249.018 116.636 247.885 118.11C246.762 119.575 245.248 120.308 243.344 120.308C242.504 120.308 241.776 120.127 241.161 119.766C240.556 119.404 240.097 118.887 239.784 118.213C238.808 119.58 237.533 120.264 235.961 120.264C234.535 120.264 233.432 119.663 232.65 118.462C231.869 117.261 231.576 115.674 231.771 113.701C231.947 112.09 232.353 110.659 232.987 109.409C233.632 108.149 234.442 107.183 235.419 106.509C236.396 105.835 237.45 105.498 238.583 105.498C239.979 105.498 241.171 105.82 242.157 106.465L243.08 107.095L242.333 115.562C242.235 116.333 242.318 116.924 242.582 117.334C242.855 117.744 243.285 117.949 243.871 117.949C244.77 117.949 245.521 117.427 246.127 116.382C246.732 115.327 247.064 113.95 247.123 112.251C247.289 108.843 246.601 106.226 245.058 104.399C243.524 102.563 241.249 101.646 238.231 101.646C236.347 101.646 234.667 102.124 233.192 103.081C231.718 104.038 230.556 105.4 229.706 107.168C228.856 108.926 228.378 110.942 228.271 113.218C228.114 116.675 228.808 119.346 230.351 121.23C231.894 123.125 234.203 124.072 237.279 124.072C238.09 124.072 238.939 123.979 239.828 123.794C240.717 123.618 241.483 123.379 242.128 123.076L242.685 125.332C242.089 125.723 241.283 126.035 240.268 126.27C239.262 126.514 238.246 126.636 237.221 126.636C234.643 126.636 232.445 126.113 230.629 125.068C228.812 124.033 227.455 122.5 226.557 120.469C225.668 118.447 225.282 116.03 225.399 113.218C225.517 110.522 226.132 108.105 227.245 105.967C228.358 103.828 229.872 102.178 231.786 101.016C233.71 99.8438 235.878 99.2578 238.29 99.2578C240.741 99.2578 242.851 99.7852 244.618 100.84C246.386 101.885 247.709 103.384 248.588 105.337C249.467 107.29 249.853 109.561 249.745 112.148ZM235.023 113.701C234.916 114.99 235.028 115.972 235.36 116.646C235.692 117.31 236.229 117.642 236.972 117.642C237.45 117.642 237.904 117.432 238.334 117.012C238.764 116.592 239.12 115.986 239.403 115.195L240.019 108.267C239.638 108.14 239.247 108.076 238.847 108.076C237.724 108.076 236.85 108.555 236.225 109.512C235.609 110.469 235.209 111.865 235.023 113.701ZM253.773 120V107.256H251.415V104.15H253.773V102.803C253.773 101.025 254.281 99.6484 255.297 98.6719C256.322 97.6855 257.753 97.1924 259.589 97.1924C260.175 97.1924 260.893 97.29 261.742 97.4854L261.698 100.767C261.347 100.679 260.917 100.635 260.409 100.635C258.817 100.635 258.021 101.382 258.021 102.876V104.15H261.171V107.256H258.021V120H253.773ZM262.709 111.929C262.709 110.356 263.012 108.955 263.617 107.725C264.223 106.494 265.092 105.542 266.225 104.868C267.367 104.194 268.69 103.857 270.194 103.857C272.333 103.857 274.076 104.512 275.424 105.82C276.781 107.129 277.538 108.906 277.694 111.152L277.724 112.236C277.724 114.668 277.045 116.621 275.688 118.096C274.33 119.561 272.509 120.293 270.224 120.293C267.938 120.293 266.112 119.561 264.745 118.096C263.388 116.631 262.709 114.639 262.709 112.119V111.929ZM266.942 112.236C266.942 113.74 267.226 114.893 267.792 115.693C268.358 116.484 269.169 116.88 270.224 116.88C271.249 116.88 272.05 116.489 272.626 115.708C273.202 114.917 273.49 113.657 273.49 111.929C273.49 110.454 273.202 109.312 272.626 108.501C272.05 107.69 271.239 107.285 270.194 107.285C269.159 107.285 268.358 107.69 267.792 108.501C267.226 109.302 266.942 110.547 266.942 112.236ZM284.228 104.15L284.359 105.981C285.492 104.565 287.011 103.857 288.915 103.857C290.595 103.857 291.845 104.351 292.665 105.337C293.485 106.323 293.905 107.798 293.925 109.761V120H289.691V109.863C289.691 108.965 289.496 108.315 289.105 107.915C288.715 107.505 288.065 107.3 287.157 107.3C285.966 107.3 285.072 107.808 284.477 108.823V120H280.243V104.15H284.228ZM302.216 100.254V104.15H304.926V107.256H302.216V115.166C302.216 115.752 302.328 116.172 302.553 116.426C302.777 116.68 303.207 116.807 303.842 116.807C304.311 116.807 304.726 116.772 305.087 116.704V119.912C304.257 120.166 303.402 120.293 302.523 120.293C299.555 120.293 298.041 118.794 297.982 115.796V107.256H295.668V104.15H297.982V100.254H302.216ZM315.517 112.573H307.27V109.16H315.517V112.573ZM320.072 120V107.256H317.714V104.15H320.072V102.803C320.072 101.025 320.58 99.6484 321.596 98.6719C322.621 97.6855 324.052 97.1924 325.888 97.1924C326.474 97.1924 327.191 97.29 328.041 97.4854L327.997 100.767C327.646 100.679 327.216 100.635 326.708 100.635C325.116 100.635 324.32 101.382 324.32 102.876V104.15H327.47V107.256H324.32V120H320.072ZM338.852 120C338.656 119.619 338.515 119.146 338.427 118.579C337.401 119.722 336.068 120.293 334.428 120.293C332.875 120.293 331.586 119.844 330.561 118.945C329.545 118.047 329.037 116.914 329.037 115.547C329.037 113.867 329.657 112.578 330.897 111.68C332.147 110.781 333.949 110.327 336.303 110.317H338.251V109.409C338.251 108.677 338.061 108.091 337.68 107.651C337.309 107.212 336.718 106.992 335.907 106.992C335.194 106.992 334.633 107.163 334.223 107.505C333.822 107.847 333.622 108.315 333.622 108.911H329.389C329.389 107.993 329.672 107.144 330.238 106.362C330.805 105.581 331.605 104.971 332.641 104.531C333.676 104.082 334.838 103.857 336.127 103.857C338.08 103.857 339.628 104.351 340.771 105.337C341.923 106.313 342.499 107.69 342.499 109.468V116.338C342.509 117.842 342.719 118.979 343.129 119.751V120H338.852ZM335.351 117.056C335.976 117.056 336.552 116.919 337.079 116.646C337.606 116.362 337.997 115.986 338.251 115.518V112.793H336.669C334.55 112.793 333.422 113.525 333.285 114.99L333.271 115.239C333.271 115.767 333.456 116.201 333.827 116.543C334.198 116.885 334.706 117.056 335.351 117.056ZM352.343 116.88C353.124 116.88 353.759 116.665 354.247 116.235C354.735 115.806 354.989 115.234 355.009 114.521H358.979C358.969 115.596 358.676 116.582 358.1 117.48C357.523 118.369 356.732 119.062 355.727 119.561C354.73 120.049 353.627 120.293 352.416 120.293C350.15 120.293 348.363 119.575 347.055 118.14C345.746 116.694 345.092 114.702 345.092 112.163V111.885C345.092 109.443 345.741 107.495 347.04 106.04C348.339 104.585 350.121 103.857 352.387 103.857C354.369 103.857 355.956 104.424 357.147 105.557C358.349 106.68 358.959 108.179 358.979 110.054H355.009C354.989 109.233 354.735 108.569 354.247 108.062C353.759 107.544 353.114 107.285 352.313 107.285C351.327 107.285 350.58 107.646 350.072 108.369C349.574 109.082 349.325 110.244 349.325 111.855V112.295C349.325 113.926 349.574 115.098 350.072 115.811C350.57 116.523 351.327 116.88 352.343 116.88ZM368.69 120.293C366.366 120.293 364.472 119.58 363.007 118.154C361.552 116.729 360.824 114.829 360.824 112.456V112.046C360.824 110.454 361.132 109.033 361.747 107.783C362.362 106.523 363.231 105.557 364.354 104.883C365.487 104.199 366.776 103.857 368.222 103.857C370.39 103.857 372.094 104.541 373.334 105.908C374.584 107.275 375.209 109.214 375.209 111.724V113.452H365.116C365.253 114.487 365.663 115.317 366.347 115.942C367.04 116.567 367.914 116.88 368.969 116.88C370.6 116.88 371.874 116.289 372.792 115.107L374.872 117.437C374.237 118.335 373.378 119.038 372.294 119.546C371.21 120.044 370.009 120.293 368.69 120.293ZM368.207 107.285C367.367 107.285 366.684 107.568 366.156 108.135C365.639 108.701 365.307 109.512 365.16 110.566H371.049V110.229C371.029 109.292 370.775 108.569 370.287 108.062C369.799 107.544 369.105 107.285 368.207 107.285Z" fill="#AAAAAA"/>
<path d="M465.789 111.027H459.039V118H455.523V100.938H466.633V103.785H459.039V108.191H465.789V111.027ZM482.688 109.855C482.688 111.535 482.391 113.008 481.797 114.273C481.203 115.539 480.352 116.516 479.242 117.203C478.141 117.891 476.875 118.234 475.445 118.234C474.031 118.234 472.77 117.895 471.66 117.215C470.551 116.535 469.691 115.566 469.082 114.309C468.473 113.043 468.164 111.59 468.156 109.949V109.105C468.156 107.426 468.457 105.949 469.059 104.676C469.668 103.395 470.523 102.414 471.625 101.734C472.734 101.047 474 100.703 475.422 100.703C476.844 100.703 478.105 101.047 479.207 101.734C480.316 102.414 481.172 103.395 481.773 104.676C482.383 105.949 482.688 107.422 482.688 109.094V109.855ZM479.125 109.082C479.125 107.293 478.805 105.934 478.164 105.004C477.523 104.074 476.609 103.609 475.422 103.609C474.242 103.609 473.332 104.07 472.691 104.992C472.051 105.906 471.727 107.25 471.719 109.023V109.855C471.719 111.598 472.039 112.949 472.68 113.91C473.32 114.871 474.242 115.352 475.445 115.352C476.625 115.352 477.531 114.891 478.164 113.969C478.797 113.039 479.117 111.688 479.125 109.914V109.082ZM498.156 100.938V112.176C498.156 114.043 497.57 115.52 496.398 116.605C495.234 117.691 493.641 118.234 491.617 118.234C489.625 118.234 488.043 117.707 486.871 116.652C485.699 115.598 485.102 114.148 485.078 112.305V100.938H488.594V112.199C488.594 113.316 488.859 114.133 489.391 114.648C489.93 115.156 490.672 115.41 491.617 115.41C493.594 115.41 494.598 114.371 494.629 112.293V100.938H498.156ZM513.883 103.785H508.656V118H505.141V103.785H499.984V100.938H513.883V103.785Z" fill="#1E73FF"/>
<path d="M465.789 181.027H459.039V188H455.523V170.938H466.633V173.785H459.039V178.191H465.789V181.027ZM482.688 179.855C482.688 181.535 482.391 183.008 481.797 184.273C481.203 185.539 480.352 186.516 479.242 187.203C478.141 187.891 476.875 188.234 475.445 188.234C474.031 188.234 472.77 187.895 471.66 187.215C470.551 186.535 469.691 185.566 469.082 184.309C468.473 183.043 468.164 181.59 468.156 179.949V179.105C468.156 177.426 468.457 175.949 469.059 174.676C469.668 173.395 470.523 172.414 471.625 171.734C472.734 171.047 474 170.703 475.422 170.703C476.844 170.703 478.105 171.047 479.207 171.734C480.316 172.414 481.172 173.395 481.773 174.676C482.383 175.949 482.688 177.422 482.688 179.094V179.855ZM479.125 179.082C479.125 177.293 478.805 175.934 478.164 175.004C477.523 174.074 476.609 173.609 475.422 173.609C474.242 173.609 473.332 174.07 472.691 174.992C472.051 175.906 471.727 177.25 471.719 179.023V179.855C471.719 181.598 472.039 182.949 472.68 183.91C473.32 184.871 474.242 185.352 475.445 185.352C476.625 185.352 477.531 184.891 478.164 183.969C478.797 183.039 479.117 181.688 479.125 179.914V179.082ZM488.98 188H485.465V170.938H488.98V188ZM504.742 173.785H499.516V188H496V173.785H490.844V170.938H504.742V173.785ZM534.473 181.789C534.473 183.016 534.215 184.125 533.699 185.117C533.191 186.102 532.477 186.867 531.555 187.414C530.641 187.961 529.602 188.234 528.438 188.234C526.18 188.234 524.379 187.016 523.035 184.578C521.691 187.016 519.891 188.234 517.633 188.234C515.844 188.234 514.391 187.629 513.273 186.418C512.164 185.199 511.609 183.621 511.609 181.684V181.555C511.609 180.352 511.859 179.254 512.359 178.262C512.859 177.262 513.566 176.484 514.48 175.93C515.402 175.367 516.445 175.086 517.609 175.086C518.711 175.086 519.723 175.383 520.645 175.977C521.574 176.562 522.371 177.449 523.035 178.637C523.707 177.434 524.5 176.543 525.414 175.965C526.336 175.379 527.352 175.086 528.461 175.086C530.219 175.086 531.66 175.691 532.785 176.902C533.91 178.113 534.473 179.742 534.473 181.789ZM531.168 181.555C531.168 180.461 530.902 179.582 530.371 178.918C529.84 178.246 529.145 177.91 528.285 177.91C527.199 177.91 526.277 178.492 525.52 179.656C525.129 180.266 524.867 180.852 524.734 181.414V181.754C524.773 182.012 524.91 182.398 525.145 182.914C525.379 183.422 525.656 183.863 525.977 184.238C526.305 184.613 526.656 184.906 527.031 185.117C527.414 185.32 527.824 185.422 528.262 185.422C529.152 185.422 529.859 185.086 530.383 184.414C530.906 183.742 531.168 182.789 531.168 181.555ZM514.902 181.789C514.902 182.875 515.16 183.754 515.676 184.426C516.199 185.09 516.91 185.422 517.809 185.422C518.949 185.422 519.914 184.723 520.703 183.324C521.055 182.691 521.262 182.168 521.324 181.754V181.414C521.184 180.82 520.926 180.234 520.551 179.656C520.184 179.078 519.762 178.645 519.285 178.355C518.816 178.059 518.316 177.91 517.785 177.91C516.926 177.91 516.23 178.242 515.699 178.906C515.168 179.57 514.902 180.531 514.902 181.789Z" fill="black"/>
<path d="M302.734 181.027H295.984V188H292.469V170.938H303.578V173.785H295.984V178.191H302.734V181.027ZM319.633 179.855C319.633 181.535 319.336 183.008 318.742 184.273C318.148 185.539 317.297 186.516 316.188 187.203C315.086 187.891 313.82 188.234 312.391 188.234C310.977 188.234 309.715 187.895 308.605 187.215C307.496 186.535 306.637 185.566 306.027 184.309C305.418 183.043 305.109 181.59 305.102 179.949V179.105C305.102 177.426 305.402 175.949 306.004 174.676C306.613 173.395 307.469 172.414 308.57 171.734C309.68 171.047 310.945 170.703 312.367 170.703C313.789 170.703 315.051 171.047 316.152 171.734C317.262 172.414 318.117 173.395 318.719 174.676C319.328 175.949 319.633 177.422 319.633 179.094V179.855ZM316.07 179.082C316.07 177.293 315.75 175.934 315.109 175.004C314.469 174.074 313.555 173.609 312.367 173.609C311.188 173.609 310.277 174.07 309.637 174.992C308.996 175.906 308.672 177.25 308.664 179.023V179.855C308.664 181.598 308.984 182.949 309.625 183.91C310.266 184.871 311.188 185.352 312.391 185.352C313.57 185.352 314.477 184.891 315.109 183.969C315.742 183.039 316.062 181.688 316.07 179.914V179.082ZM325.926 188H322.41V170.938H325.926V188ZM341.688 173.785H336.461V188H332.945V173.785H327.789V170.938H341.688V173.785ZM352.059 177.969H353.863C354.723 177.969 355.359 177.754 355.773 177.324C356.188 176.895 356.395 176.324 356.395 175.613C356.395 174.926 356.188 174.391 355.773 174.008C355.367 173.625 354.805 173.434 354.086 173.434C353.438 173.434 352.895 173.613 352.457 173.973C352.02 174.324 351.801 174.785 351.801 175.355H348.414C348.414 174.465 348.652 173.668 349.129 172.965C349.613 172.254 350.285 171.699 351.145 171.301C352.012 170.902 352.965 170.703 354.004 170.703C355.809 170.703 357.223 171.137 358.246 172.004C359.27 172.863 359.781 174.051 359.781 175.566C359.781 176.348 359.543 177.066 359.066 177.723C358.59 178.379 357.965 178.883 357.191 179.234C358.152 179.578 358.867 180.094 359.336 180.781C359.812 181.469 360.051 182.281 360.051 183.219C360.051 184.734 359.496 185.949 358.387 186.863C357.285 187.777 355.824 188.234 354.004 188.234C352.301 188.234 350.906 187.785 349.82 186.887C348.742 185.988 348.203 184.801 348.203 183.324H351.59C351.59 183.965 351.828 184.488 352.305 184.895C352.789 185.301 353.383 185.504 354.086 185.504C354.891 185.504 355.52 185.293 355.973 184.871C356.434 184.441 356.664 183.875 356.664 183.172C356.664 181.469 355.727 180.617 353.852 180.617H352.059V177.969ZM371.605 183.523C371.605 182.859 371.371 182.352 370.902 182C370.434 181.641 369.59 181.266 368.371 180.875C367.152 180.477 366.188 180.086 365.477 179.703C363.539 178.656 362.57 177.246 362.57 175.473C362.57 174.551 362.828 173.73 363.344 173.012C363.867 172.285 364.613 171.719 365.582 171.312C366.559 170.906 367.652 170.703 368.863 170.703C370.082 170.703 371.168 170.926 372.121 171.371C373.074 171.809 373.812 172.43 374.336 173.234C374.867 174.039 375.133 174.953 375.133 175.977H371.617C371.617 175.195 371.371 174.59 370.879 174.16C370.387 173.723 369.695 173.504 368.805 173.504C367.945 173.504 367.277 173.688 366.801 174.055C366.324 174.414 366.086 174.891 366.086 175.484C366.086 176.039 366.363 176.504 366.918 176.879C367.48 177.254 368.305 177.605 369.391 177.934C371.391 178.535 372.848 179.281 373.762 180.172C374.676 181.062 375.133 182.172 375.133 183.5C375.133 184.977 374.574 186.137 373.457 186.98C372.34 187.816 370.836 188.234 368.945 188.234C367.633 188.234 366.438 187.996 365.359 187.52C364.281 187.035 363.457 186.375 362.887 185.539C362.324 184.703 362.043 183.734 362.043 182.633H365.57C365.57 184.516 366.695 185.457 368.945 185.457C369.781 185.457 370.434 185.289 370.902 184.953C371.371 184.609 371.605 184.133 371.605 183.523Z" fill="#1E73FF"/>
<path fill-rule="evenodd" clip-rule="evenodd" d="M484 243.333L507.333 220L514 226.667L490.667 250L514 273.333L507.333 280L484 256.666L460.667 280L454 273.333L477.333 250L454 226.667L460.667 220L484 243.333Z" fill="#E44D26"/>
<rect x="215" y="109" width="173" height="3" fill="#E44D26"/>
<defs>
<radialGradient id="paint0_radial" cx="0" cy="0" r="1" gradientUnits="userSpaceOnUse" gradientTransform="translate(486.655 36.8717) rotate(52.0543) scale(27.6727 27.6751)">
<stop stop-color="#89EAFE"/>
<stop offset="0.2624" stop-color="#86E8FD"/>
<stop offset="0.4357" stop-color="#7DDFF9"/>
<stop offset="0.5832" stop-color="#6ED2F2"/>
<stop offset="0.7163" stop-color="#59BEE9"/>
<stop offset="0.8397" stop-color="#3EA5DD"/>
<stop offset="0.9544" stop-color="#1C87CF"/>
<stop offset="1" stop-color="#0D79C8"/>
</radialGradient>
<linearGradient id="paint1_linear" x1="511.312" y1="23.1087" x2="510.406" y2="27.2214" gradientUnits="userSpaceOnUse">
<stop stop-color="#FFB700"/>
<stop offset="0.8599" stop-color="#FFB700" stop-opacity="0"/>
</linearGradient>
<linearGradient id="paint2_linear" x1="466.517" y1="68.7881" x2="472.17" y2="66.5715" gradientUnits="userSpaceOnUse">
<stop stop-color="#FFB700"/>
<stop offset="1" stop-color="#FFB700" stop-opacity="0"/>
</linearGradient>
<linearGradient id="paint3_linear" x1="553.758" y1="51.4961" x2="595.556" y2="51.4961" gradientUnits="userSpaceOnUse">
<stop stop-color="#0C59A4"/>
<stop offset="1" stop-color="#114A8B"/>
</linearGradient>
<radialGradient id="paint4_radial" cx="0" cy="0" r="1" gradientUnits="userSpaceOnUse" gradientTransform="translate(576.844 51.8256) scale(22.3547 21.237)">
<stop offset="0.72" stop-opacity="0"/>
<stop offset="0.95" stop-opacity="0.53"/>
<stop offset="1"/>
</radialGradient>
<linearGradient id="paint5_linear" x1="575.793" y1="33.365" x2="549.686" y2="61.8017" gradientUnits="userSpaceOnUse">
<stop stop-color="#1B9DE2"/>
<stop offset="0.16" stop-color="#1595DF"/>
<stop offset="0.67" stop-color="#0680D7"/>
<stop offset="1" stop-color="#0078D4"/>
</linearGradient>
<radialGradient id="paint6_radial" cx="0" cy="0" r="1" gradientUnits="userSpaceOnUse" gradientTransform="translate(556.541 56.6427) rotate(-81.3844) scale(33.6155 27.1579)">
<stop offset="0.76" stop-opacity="0"/>
<stop offset="0.95" stop-opacity="0.5"/>
<stop offset="1"/>
</radialGradient>
<radialGradient id="paint7_radial" cx="0" cy="0" r="1" gradientUnits="userSpaceOnUse" gradientTransform="translate(546.057 21.1039) rotate(92.2906) scale(47.4825 101.128)">
<stop stop-color="#35C1F1"/>
<stop offset="0.11" stop-color="#34C1ED"/>
<stop offset="0.23" stop-color="#2FC2DF"/>
<stop offset="0.31" stop-color="#2BC3D2"/>
<stop offset="0.67" stop-color="#36C752"/>
</radialGradient>
<radialGradient id="paint8_radial" cx="0" cy="0" r="1" gradientUnits="userSpaceOnUse" gradientTransform="translate(596.262 28.1421) rotate(73.7398) scale(22.8141 18.5524)">
<stop stop-color="#66EB6E"/>
<stop offset="1" stop-color="#66EB6E" stop-opacity="0"/>
</radialGradient>
<linearGradient id="paint9_linear" x1="196.904" y1="229.19" x2="148.976" y2="275.514" gradientUnits="userSpaceOnUse">
<stop offset="0.048" stop-color="#FFF44F"/>
<stop offset="0.111" stop-color="#FFE847"/>
<stop offset="0.225" stop-color="#FFC830"/>
<stop offset="0.368" stop-color="#FF980E"/>
<stop offset="0.401" stop-color="#FF8B16"/>
<stop offset="0.462" stop-color="#FF672A"/>
<stop offset="0.534" stop-color="#FF3647"/>
<stop offset="0.705" stop-color="#E31587"/>
</linearGradient>
<radialGradient id="paint10_radial" cx="0" cy="0" r="1" gradientUnits="userSpaceOnUse" gradientTransform="translate(194.686 226.573) scale(60.2919 60.184)">
<stop offset="0.129" stop-color="#FFBD4F"/>
<stop offset="0.186" stop-color="#FFAC31"/>
<stop offset="0.247" stop-color="#FF9D17"/>
<stop offset="0.283" stop-color="#FF980E"/>
<stop offset="0.403" stop-color="#FF563B"/>
<stop offset="0.467" stop-color="#FF3750"/>
<stop offset="0.71" stop-color="#F5156C"/>
<stop offset="0.782" stop-color="#EB0878"/>
<stop offset="0.86" stop-color="#E50080"/>
</radialGradient>
<radialGradient id="paint11_radial" cx="0" cy="0" r="1" gradientUnits="userSpaceOnUse" gradientTransform="translate(172.655 251.178) scale(60.2919 60.184)">
<stop offset="0.3" stop-color="#960E18"/>
<stop offset="0.351" stop-color="#B11927" stop-opacity="0.74"/>
<stop offset="0.435" stop-color="#DB293D" stop-opacity="0.343"/>
<stop offset="0.497" stop-color="#F5334B" stop-opacity="0.094"/>
<stop offset="0.53" stop-color="#FF3750" stop-opacity="0"/>
</radialGradient>
<radialGradient id="paint12_radial" cx="0" cy="0" r="1" gradientUnits="userSpaceOnUse" gradientTransform="translate(179.923 212.915) scale(43.6789 43.6007)">
<stop offset="0.132" stop-color="#FFF44F"/>
<stop offset="0.252" stop-color="#FFDC3E"/>
<stop offset="0.506" stop-color="#FF9D12"/>
<stop offset="0.526" stop-color="#FF980E"/>
</radialGradient>
<radialGradient id="paint13_radial" cx="0" cy="0" r="1" gradientUnits="userSpaceOnUse" gradientTransform="translate(165.986 266.898) scale(28.7076 28.6562)">
<stop offset="0.353" stop-color="#3A8EE6"/>
<stop offset="0.472" stop-color="#5C79F0"/>
<stop offset="0.669" stop-color="#9059FF"/>
<stop offset="1" stop-color="#C139E6"/>
</radialGradient>
<radialGradient id="paint14_radial" cx="0" cy="0" r="1" gradientUnits="userSpaceOnUse" gradientTransform="translate(175.949 246.245) rotate(-13.5681) scale(15.2191 17.7894)">
<stop offset="0.206" stop-color="#9059FF" stop-opacity="0"/>
<stop offset="0.278" stop-color="#8C4FF3" stop-opacity="0.064"/>
<stop offset="0.747" stop-color="#7716A8" stop-opacity="0.45"/>
<stop offset="0.975" stop-color="#6E008B" stop-opacity="0.6"/>
</radialGradient>
<radialGradient id="paint15_radial" cx="0" cy="0" r="1" gradientUnits="userSpaceOnUse" gradientTransform="translate(171.893 224.11) scale(20.6522 20.6153)">
<stop stop-color="#FFE226"/>
<stop offset="0.121" stop-color="#FFDB27"/>
<stop offset="0.295" stop-color="#FFC82A"/>
<stop offset="0.502" stop-color="#FFA930"/>
<stop offset="0.732" stop-color="#FF7E37"/>
<stop offset="0.792" stop-color="#FF7139"/>
</radialGradient>
<radialGradient id="paint16_radial" cx="0" cy="0" r="1" gradientUnits="userSpaceOnUse" gradientTransform="translate(188.127 211.034) scale(88.1137 87.9561)">
<stop offset="0.113" stop-color="#FFF44F"/>
<stop offset="0.456" stop-color="#FF980E"/>
<stop offset="0.622" stop-color="#FF5634"/>
<stop offset="0.716" stop-color="#FF3647"/>
<stop offset="0.904" stop-color="#E31587"/>
</radialGradient>
<radialGradient id="paint17_radial" cx="0" cy="0" r="1" gradientUnits="userSpaceOnUse" gradientTransform="translate(180.7 215.925) rotate(83.9653) scale(64.4664 42.3829)">
<stop stop-color="#FFF44F"/>
<stop offset="0.06" stop-color="#FFE847"/>
<stop offset="0.168" stop-color="#FFC830"/>
<stop offset="0.304" stop-color="#FF980E"/>
<stop offset="0.356" stop-color="#FF8B16"/>
<stop offset="0.455" stop-color="#FF672A"/>
<stop offset="0.57" stop-color="#FF3647"/>
<stop offset="0.737" stop-color="#E31587"/>
</radialGradient>
<radialGradient id="paint18_radial" cx="0" cy="0" r="1" gradientUnits="userSpaceOnUse" gradientTransform="translate(171.407 231.746) scale(55.0109 54.9125)">
<stop offset="0.137" stop-color="#FFF44F"/>
<stop offset="0.48" stop-color="#FF980E"/>
<stop offset="0.592" stop-color="#FF5634"/>
<stop offset="0.655" stop-color="#FF3647"/>
<stop offset="0.904" stop-color="#E31587"/>
</radialGradient>
<radialGradient id="paint19_radial" cx="0" cy="0" r="1" gradientUnits="userSpaceOnUse" gradientTransform="translate(185.928 234.96) scale(60.209 60.1013)">
<stop offset="0.094" stop-color="#FFF44F"/>
<stop offset="0.231" stop-color="#FFE141"/>
<stop offset="0.509" stop-color="#FFAF1E"/>
<stop offset="0.626" stop-color="#FF980E"/>
</radialGradient>
<linearGradient id="paint20_linear" x1="196.327" y1="228.943" x2="155.548" y2="269.794" gradientUnits="userSpaceOnUse">
<stop offset="0.167" stop-color="#FFF44F" stop-opacity="0.8"/>
<stop offset="0.266" stop-color="#FFF44F" stop-opacity="0.634"/>
<stop offset="0.489" stop-color="#FFF44F" stop-opacity="0.217"/>
<stop offset="0.6" stop-color="#FFF44F" stop-opacity="0"/>
</linearGradient>
<linearGradient id="paint21_linear" x1="346.001" y1="220.001" x2="346.001" y2="280.001" gradientUnits="userSpaceOnUse">
<stop stop-color="#23D9FD"/>
<stop offset="1" stop-color="#1F63F0"/>
</linearGradient>
<clipPath id="clip0">
<rect width="60" height="60" fill="white" transform="translate(454 10)"/>
</clipPath>
<clipPath id="clip1">
<rect width="60" height="60" fill="white" transform="translate(540 10)"/>
</clipPath>
<clipPath id="clip2">
<rect width="60" height="60" fill="white" transform="translate(144 220)"/>
</clipPath>
<clipPath id="clip3">
<rect width="60" height="60" fill="white" transform="translate(58 220)"/>
</clipPath>
</defs>
</svg>
