<svg width="478" height="440" viewBox="0 0 478 440" fill="none" xmlns="http://www.w3.org/2000/svg">
<path d="M0.300049 112.765L386.67 9.23771" stroke="#E44D26"/>
<path d="M91.5 432.265L477.87 328.738" stroke="#E44D26"/>
<g clip-path="url(#clip0)">
<rect x="0.5" y="112.765" width="477" height="216" fill="url(#paint0_linear)" stroke="black"/>
<path d="M478 112.265L0 329.265M0 112.265L478 329.265" stroke="black" stroke-dasharray="3 2"/>
</g>
<path d="M180.248 1L297.752 439.53" stroke="#1E73FF" stroke-width="3"/>
<circle cx="239" cy="221.265" r="7" fill="black"/>
<circle cx="282" cy="381.265" r="7" fill="#E44D26"/>
<circle cx="196" cy="60.2653" r="7" fill="#E44D26"/>
<path d="M201.832 16.4684C201.305 17.1 200.559 17.5915 199.596 17.9431C198.632 18.2881 197.564 18.4606 196.393 18.4606C195.162 18.4606 194.081 18.1937 193.15 17.6599C192.226 17.1195 191.51 16.3382 191.002 15.3161C190.501 14.294 190.243 13.0928 190.23 11.7126V10.7458C190.23 9.32652 190.468 8.0993 190.943 7.06415C191.425 6.02248 192.115 5.22821 193.014 4.68134C193.919 4.12795 194.977 3.85126 196.188 3.85126C197.874 3.85126 199.192 4.2549 200.143 5.06219C201.093 5.86298 201.656 7.0316 201.832 8.56805H198.98C198.85 7.75425 198.561 7.15855 198.111 6.78094C197.669 6.40334 197.057 6.21454 196.275 6.21454C195.279 6.21454 194.521 6.58889 194 7.33759C193.479 8.08628 193.215 9.19956 193.209 10.6774V11.5856C193.209 13.0765 193.492 14.2028 194.059 14.9645C194.625 15.7263 195.455 16.1071 196.549 16.1071C197.649 16.1071 198.434 15.8727 198.902 15.404V12.9528H196.236V10.7946H201.832V16.4684ZM209.967 10.3454C209.583 10.2933 209.244 10.2673 208.951 10.2673C207.883 10.2673 207.184 10.6286 206.852 11.3513V18.2653H204.029V7.69891H206.695L206.773 8.95868C207.34 7.98863 208.124 7.5036 209.127 7.5036C209.439 7.5036 209.732 7.54592 210.006 7.63055L209.967 10.3454ZM217.164 18.2653C217.034 18.0114 216.939 17.6957 216.881 17.3181C216.197 18.0798 215.309 18.4606 214.215 18.4606C213.18 18.4606 212.32 18.1612 211.637 17.5622C210.96 16.9632 210.621 16.208 210.621 15.2966C210.621 14.1768 211.035 13.3174 211.861 12.7184C212.695 12.1195 213.896 11.8168 215.465 11.8102H216.764V11.2048C216.764 10.7165 216.637 10.3259 216.383 10.0329C216.135 9.73993 215.742 9.59344 215.201 9.59344C214.726 9.59344 214.352 9.70738 214.078 9.93524C213.811 10.1631 213.678 10.4756 213.678 10.8727H210.855C210.855 10.2608 211.044 9.69436 211.422 9.17352C211.799 8.65269 212.333 8.24579 213.023 7.95282C213.714 7.65334 214.488 7.5036 215.348 7.5036C216.65 7.5036 217.682 7.83238 218.443 8.48993C219.212 9.14097 219.596 10.0589 219.596 11.2438V15.8239C219.602 16.8265 219.742 17.585 220.016 18.0993V18.2653H217.164ZM214.83 16.3024C215.247 16.3024 215.631 16.2113 215.982 16.029C216.334 15.8402 216.594 15.5895 216.764 15.277V13.4606H215.709C214.296 13.4606 213.544 13.9489 213.453 14.9255L213.443 15.0915C213.443 15.4431 213.567 15.7328 213.814 15.9606C214.062 16.1885 214.4 16.3024 214.83 16.3024ZM221.324 12.904C221.324 11.2569 221.692 9.94501 222.428 8.96844C223.17 7.99188 224.182 7.5036 225.465 7.5036C226.493 7.5036 227.343 7.88772 228.014 8.65594V3.26532H230.846V18.2653H228.297L228.16 17.1423C227.457 18.0212 226.552 18.4606 225.445 18.4606C224.202 18.4606 223.202 17.9724 222.447 16.9958C221.699 16.0127 221.324 14.6488 221.324 12.904ZM224.146 13.1091C224.146 14.0987 224.319 14.8571 224.664 15.3845C225.009 15.9118 225.51 16.1755 226.168 16.1755C227.04 16.1755 227.656 15.8076 228.014 15.072V10.902C227.662 10.1664 227.053 9.79852 226.188 9.79852C224.827 9.79852 224.146 10.902 224.146 13.1091ZM236.012 18.2653H233.18V7.69891H236.012V18.2653ZM233.014 4.96454C233.014 4.54136 233.154 4.19305 233.434 3.91962C233.72 3.64618 234.107 3.50946 234.596 3.50946C235.077 3.50946 235.462 3.64618 235.748 3.91962C236.035 4.19305 236.178 4.54136 236.178 4.96454C236.178 5.39423 236.031 5.74579 235.738 6.01923C235.452 6.29266 235.071 6.42938 234.596 6.42938C234.12 6.42938 233.736 6.29266 233.443 6.01923C233.157 5.74579 233.014 5.39423 233.014 4.96454ZM243.209 18.4606C241.66 18.4606 240.396 17.9854 239.42 17.0349C238.45 16.0843 237.965 14.8181 237.965 13.236V12.9626C237.965 11.9014 238.17 10.9541 238.58 10.1208C238.99 9.28094 239.57 8.63641 240.318 8.18719C241.074 7.73147 241.933 7.5036 242.896 7.5036C244.342 7.5036 245.478 7.95933 246.305 8.87079C247.138 9.78225 247.555 11.0746 247.555 12.7477V13.9001H240.826C240.917 14.5902 241.191 15.1436 241.646 15.5602C242.109 15.9769 242.691 16.1852 243.395 16.1852C244.482 16.1852 245.331 15.7914 245.943 15.0036L247.33 16.5563C246.907 17.1553 246.334 17.624 245.611 17.9626C244.889 18.2946 244.088 18.4606 243.209 18.4606ZM242.887 9.78876C242.327 9.78876 241.871 9.97756 241.52 10.3552C241.174 10.7328 240.953 11.2731 240.855 11.9763H244.781V11.7516C244.768 11.1266 244.599 10.6449 244.273 10.3063C243.948 9.96128 243.486 9.78876 242.887 9.78876ZM251.764 7.69891L251.852 8.91962C252.607 7.97561 253.619 7.5036 254.889 7.5036C256.008 7.5036 256.842 7.83238 257.389 8.48993C257.936 9.14748 258.215 10.1306 258.229 11.4391V18.2653H255.406V11.5075C255.406 10.9085 255.276 10.4756 255.016 10.2087C254.755 9.93524 254.322 9.79852 253.717 9.79852C252.923 9.79852 252.327 10.1371 251.93 10.8141V18.2653H249.107V7.69891H251.764ZM263.756 5.10126V7.69891H265.562V9.76923H263.756V15.0427C263.756 15.4333 263.831 15.7132 263.98 15.8825C264.13 16.0518 264.417 16.1364 264.84 16.1364C265.152 16.1364 265.429 16.1136 265.67 16.0681V18.2067C265.117 18.376 264.547 18.4606 263.961 18.4606C261.982 18.4606 260.973 17.4613 260.934 15.4626V9.76923H259.391V7.69891H260.934V5.10126H263.756ZM275.094 18.2653H272.262V3.26532H275.094V18.2653ZM280.406 18.2653H277.574V7.69891H280.406V18.2653ZM277.408 4.96454C277.408 4.54136 277.548 4.19305 277.828 3.91962C278.115 3.64618 278.502 3.50946 278.99 3.50946C279.472 3.50946 279.856 3.64618 280.143 3.91962C280.429 4.19305 280.572 4.54136 280.572 4.96454C280.572 5.39423 280.426 5.74579 280.133 6.01923C279.846 6.29266 279.465 6.42938 278.99 6.42938C278.515 6.42938 278.131 6.29266 277.838 6.01923C277.551 5.74579 277.408 5.39423 277.408 4.96454ZM285.338 7.69891L285.426 8.91962C286.181 7.97561 287.193 7.5036 288.463 7.5036C289.583 7.5036 290.416 7.83238 290.963 8.48993C291.51 9.14748 291.79 10.1306 291.803 11.4391V18.2653H288.98V11.5075C288.98 10.9085 288.85 10.4756 288.59 10.2087C288.329 9.93524 287.896 9.79852 287.291 9.79852C286.497 9.79852 285.901 10.1371 285.504 10.8141V18.2653H282.682V7.69891H285.338ZM298.814 18.4606C297.265 18.4606 296.002 17.9854 295.025 17.0349C294.055 16.0843 293.57 14.8181 293.57 13.236V12.9626C293.57 11.9014 293.775 10.9541 294.186 10.1208C294.596 9.28094 295.175 8.63641 295.924 8.18719C296.679 7.73147 297.538 7.5036 298.502 7.5036C299.947 7.5036 301.083 7.95933 301.91 8.87079C302.743 9.78225 303.16 11.0746 303.16 12.7477V13.9001H296.432C296.523 14.5902 296.796 15.1436 297.252 15.5602C297.714 15.9769 298.297 16.1852 299 16.1852C300.087 16.1852 300.937 15.7914 301.549 15.0036L302.936 16.5563C302.512 17.1553 301.939 17.624 301.217 17.9626C300.494 18.2946 299.693 18.4606 298.814 18.4606ZM298.492 9.78876C297.932 9.78876 297.477 9.97756 297.125 10.3552C296.78 10.7328 296.559 11.2731 296.461 11.9763H300.387V11.7516C300.374 11.1266 300.204 10.6449 299.879 10.3063C299.553 9.96128 299.091 9.78876 298.492 9.78876Z" fill="#1E73FF"/>
<path d="M186.145 434.468C185.617 435.1 184.872 435.591 183.908 435.943C182.945 436.288 181.877 436.461 180.705 436.461C179.475 436.461 178.394 436.194 177.463 435.66C176.538 435.119 175.822 434.338 175.314 433.316C174.813 432.294 174.556 431.093 174.543 429.713V428.746C174.543 427.327 174.781 426.099 175.256 425.064C175.738 424.022 176.428 423.228 177.326 422.681C178.231 422.128 179.289 421.851 180.5 421.851C182.186 421.851 183.505 422.255 184.455 423.062C185.406 423.863 185.969 425.032 186.145 426.568H183.293C183.163 425.754 182.873 425.159 182.424 424.781C181.981 424.403 181.369 424.215 180.588 424.215C179.592 424.215 178.833 424.589 178.312 425.338C177.792 426.086 177.528 427.2 177.521 428.677V429.586C177.521 431.077 177.805 432.203 178.371 432.965C178.938 433.726 179.768 434.107 180.861 434.107C181.962 434.107 182.746 433.873 183.215 433.404V430.953H180.549V428.795H186.145V434.468ZM194.279 428.345C193.895 428.293 193.557 428.267 193.264 428.267C192.196 428.267 191.496 428.629 191.164 429.351V436.265H188.342V425.699H191.008L191.086 426.959C191.652 425.989 192.437 425.504 193.439 425.504C193.752 425.504 194.045 425.546 194.318 425.631L194.279 428.345ZM201.477 436.265C201.346 436.011 201.252 435.696 201.193 435.318C200.51 436.08 199.621 436.461 198.527 436.461C197.492 436.461 196.633 436.161 195.949 435.562C195.272 434.963 194.934 434.208 194.934 433.297C194.934 432.177 195.347 431.317 196.174 430.718C197.007 430.119 198.208 429.817 199.777 429.81H201.076V429.205C201.076 428.716 200.949 428.326 200.695 428.033C200.448 427.74 200.054 427.593 199.514 427.593C199.038 427.593 198.664 427.707 198.391 427.935C198.124 428.163 197.99 428.476 197.99 428.873H195.168C195.168 428.261 195.357 427.694 195.734 427.174C196.112 426.653 196.646 426.246 197.336 425.953C198.026 425.653 198.801 425.504 199.66 425.504C200.962 425.504 201.994 425.832 202.756 426.49C203.524 427.141 203.908 428.059 203.908 429.244V433.824C203.915 434.827 204.055 435.585 204.328 436.099V436.265H201.477ZM199.143 434.302C199.559 434.302 199.943 434.211 200.295 434.029C200.646 433.84 200.907 433.59 201.076 433.277V431.461H200.021C198.609 431.461 197.857 431.949 197.766 432.925L197.756 433.091C197.756 433.443 197.88 433.733 198.127 433.961C198.374 434.188 198.713 434.302 199.143 434.302ZM205.637 430.904C205.637 429.257 206.005 427.945 206.74 426.968C207.482 425.992 208.495 425.504 209.777 425.504C210.806 425.504 211.656 425.888 212.326 426.656V421.265H215.158V436.265H212.609L212.473 435.142C211.77 436.021 210.865 436.461 209.758 436.461C208.514 436.461 207.515 435.972 206.76 434.996C206.011 434.013 205.637 432.649 205.637 430.904ZM208.459 431.109C208.459 432.099 208.632 432.857 208.977 433.384C209.322 433.912 209.823 434.175 210.48 434.175C211.353 434.175 211.968 433.808 212.326 433.072V428.902C211.975 428.166 211.366 427.799 210.5 427.799C209.139 427.799 208.459 428.902 208.459 431.109ZM220.324 436.265H217.492V425.699H220.324V436.265ZM217.326 422.965C217.326 422.541 217.466 422.193 217.746 421.92C218.033 421.646 218.42 421.509 218.908 421.509C219.39 421.509 219.774 421.646 220.061 421.92C220.347 422.193 220.49 422.541 220.49 422.965C220.49 423.394 220.344 423.746 220.051 424.019C219.764 424.293 219.383 424.429 218.908 424.429C218.433 424.429 218.049 424.293 217.756 424.019C217.469 423.746 217.326 423.394 217.326 422.965ZM227.521 436.461C225.972 436.461 224.709 435.985 223.732 435.035C222.762 434.084 222.277 432.818 222.277 431.236V430.963C222.277 429.901 222.482 428.954 222.893 428.121C223.303 427.281 223.882 426.636 224.631 426.187C225.386 425.731 226.245 425.504 227.209 425.504C228.654 425.504 229.79 425.959 230.617 426.871C231.451 427.782 231.867 429.075 231.867 430.748V431.9H225.139C225.23 432.59 225.503 433.144 225.959 433.56C226.421 433.977 227.004 434.185 227.707 434.185C228.794 434.185 229.644 433.791 230.256 433.004L231.643 434.556C231.219 435.155 230.646 435.624 229.924 435.963C229.201 436.295 228.4 436.461 227.521 436.461ZM227.199 427.789C226.639 427.789 226.184 427.978 225.832 428.355C225.487 428.733 225.266 429.273 225.168 429.976H229.094V429.752C229.081 429.127 228.911 428.645 228.586 428.306C228.26 427.961 227.798 427.789 227.199 427.789ZM236.076 425.699L236.164 426.92C236.919 425.976 237.932 425.504 239.201 425.504C240.321 425.504 241.154 425.832 241.701 426.49C242.248 427.147 242.528 428.131 242.541 429.439V436.265H239.719V429.508C239.719 428.909 239.589 428.476 239.328 428.209C239.068 427.935 238.635 427.799 238.029 427.799C237.235 427.799 236.639 428.137 236.242 428.814V436.265H233.42V425.699H236.076ZM248.068 423.101V425.699H249.875V427.769H248.068V433.043C248.068 433.433 248.143 433.713 248.293 433.883C248.443 434.052 248.729 434.136 249.152 434.136C249.465 434.136 249.742 434.114 249.982 434.068V436.207C249.429 436.376 248.859 436.461 248.273 436.461C246.294 436.461 245.285 435.461 245.246 433.463V427.769H243.703V425.699H245.246V423.101H248.068ZM259.406 436.265H256.574V421.265H259.406V436.265ZM264.719 436.265H261.887V425.699H264.719V436.265ZM261.721 422.965C261.721 422.541 261.861 422.193 262.141 421.92C262.427 421.646 262.814 421.509 263.303 421.509C263.785 421.509 264.169 421.646 264.455 421.92C264.742 422.193 264.885 422.541 264.885 422.965C264.885 423.394 264.738 423.746 264.445 424.019C264.159 424.293 263.778 424.429 263.303 424.429C262.827 424.429 262.443 424.293 262.15 424.019C261.864 423.746 261.721 423.394 261.721 422.965ZM269.65 425.699L269.738 426.92C270.493 425.976 271.506 425.504 272.775 425.504C273.895 425.504 274.729 425.832 275.275 426.49C275.822 427.147 276.102 428.131 276.115 429.439V436.265H273.293V429.508C273.293 428.909 273.163 428.476 272.902 428.209C272.642 427.935 272.209 427.799 271.604 427.799C270.809 427.799 270.214 428.137 269.816 428.814V436.265H266.994V425.699H269.65ZM283.127 436.461C281.577 436.461 280.314 435.985 279.338 435.035C278.368 434.084 277.883 432.818 277.883 431.236V430.963C277.883 429.901 278.088 428.954 278.498 428.121C278.908 427.281 279.488 426.636 280.236 426.187C280.992 425.731 281.851 425.504 282.814 425.504C284.26 425.504 285.396 425.959 286.223 426.871C287.056 427.782 287.473 429.075 287.473 430.748V431.9H280.744C280.835 432.59 281.109 433.144 281.564 433.56C282.027 433.977 282.609 434.185 283.312 434.185C284.4 434.185 285.249 433.791 285.861 433.004L287.248 434.556C286.825 435.155 286.252 435.624 285.529 435.963C284.807 436.295 284.006 436.461 283.127 436.461ZM282.805 427.789C282.245 427.789 281.789 427.978 281.438 428.355C281.092 428.733 280.871 429.273 280.773 429.976H284.699V429.752C284.686 429.127 284.517 428.645 284.191 428.306C283.866 427.961 283.404 427.789 282.805 427.789Z" fill="#1E73FF"/>
<path d="M90.6016 54.3356C90.6016 53.8356 90.4245 53.4502 90.0703 53.1794C89.7214 52.9085 89.0885 52.6351 88.1719 52.3591C87.2552 52.083 86.526 51.7757 85.9844 51.4372C84.9479 50.7862 84.4297 49.9372 84.4297 48.8903C84.4297 47.9737 84.8021 47.2184 85.5469 46.6247C86.2969 46.0309 87.2682 45.7341 88.4609 45.7341C89.2526 45.7341 89.9583 45.8799 90.5781 46.1716C91.1979 46.4632 91.6849 46.8799 92.0391 47.4216C92.3932 47.958 92.5703 48.5544 92.5703 49.2106H90.6016C90.6016 48.6169 90.4141 48.1533 90.0391 47.82C89.6693 47.4815 89.138 47.3122 88.4453 47.3122C87.7995 47.3122 87.2969 47.4502 86.9375 47.7263C86.5833 48.0023 86.4062 48.3877 86.4062 48.8825C86.4062 49.2992 86.599 49.6481 86.9844 49.9294C87.3698 50.2054 88.0052 50.4763 88.8906 50.7419C89.776 51.0023 90.487 51.3018 91.0234 51.6403C91.5599 51.9737 91.9531 52.3591 92.2031 52.7966C92.4531 53.2289 92.5781 53.7367 92.5781 54.32C92.5781 55.2679 92.2135 56.0231 91.4844 56.5856C90.7604 57.1429 89.776 57.4216 88.5312 57.4216C87.7083 57.4216 86.9505 57.2705 86.2578 56.9684C85.5703 56.6612 85.0339 56.2393 84.6484 55.7028C84.2682 55.1664 84.0781 54.5414 84.0781 53.8278H86.0547C86.0547 54.4737 86.2682 54.9737 86.6953 55.3278C87.1224 55.682 87.7344 55.8591 88.5312 55.8591C89.2188 55.8591 89.7344 55.721 90.0781 55.445C90.4271 55.1638 90.6016 54.794 90.6016 54.3356ZM96.5078 46.7575V48.8122H98V50.2184H96.5078V54.9372C96.5078 55.2601 96.5703 55.4945 96.6953 55.6403C96.8255 55.7809 97.0547 55.8513 97.3828 55.8513C97.6016 55.8513 97.8229 55.8252 98.0469 55.7731V57.2419C97.6146 57.3617 97.1979 57.4216 96.7969 57.4216C95.3385 57.4216 94.6094 56.6169 94.6094 55.0075V50.2184H93.2188V48.8122H94.6094V46.7575H96.5078ZM104.508 57.2653C104.424 57.1039 104.352 56.8408 104.289 56.4763C103.685 57.1065 102.945 57.4216 102.07 57.4216C101.221 57.4216 100.529 57.1794 99.9922 56.695C99.4557 56.2106 99.1875 55.6117 99.1875 54.8981C99.1875 53.9971 99.5208 53.307 100.188 52.8278C100.859 52.3434 101.818 52.1013 103.062 52.1013H104.227V51.5466C104.227 51.1091 104.104 50.7601 103.859 50.4997C103.615 50.2341 103.242 50.1013 102.742 50.1013C102.31 50.1013 101.956 50.2106 101.68 50.4294C101.404 50.6429 101.266 50.9164 101.266 51.2497H99.3672C99.3672 50.7862 99.5208 50.3539 99.8281 49.9528C100.135 49.5466 100.552 49.2289 101.078 48.9997C101.609 48.7705 102.201 48.6559 102.852 48.6559C103.841 48.6559 104.63 48.9059 105.219 49.4059C105.807 49.9007 106.109 50.5987 106.125 51.4997V55.3122C106.125 56.0726 106.232 56.6794 106.445 57.1325V57.2653H104.508ZM102.422 55.8981C102.797 55.8981 103.148 55.807 103.477 55.6247C103.81 55.4424 104.06 55.1976 104.227 54.8903V53.2966H103.203C102.5 53.2966 101.971 53.419 101.617 53.6638C101.263 53.9085 101.086 54.2549 101.086 54.7028C101.086 55.0674 101.206 55.3591 101.445 55.5778C101.69 55.7914 102.016 55.8981 102.422 55.8981ZM112.539 50.5466C112.289 50.5049 112.031 50.4841 111.766 50.4841C110.896 50.4841 110.31 50.8174 110.008 51.4841V57.2653H108.109V48.8122H109.922L109.969 49.7575C110.427 49.0231 111.062 48.6559 111.875 48.6559C112.146 48.6559 112.37 48.6924 112.547 48.7653L112.539 50.5466ZM116.508 46.7575V48.8122H118V50.2184H116.508V54.9372C116.508 55.2601 116.57 55.4945 116.695 55.6403C116.826 55.7809 117.055 55.8513 117.383 55.8513C117.602 55.8513 117.823 55.8252 118.047 55.7731V57.2419C117.615 57.3617 117.198 57.4216 116.797 57.4216C115.339 57.4216 114.609 56.6169 114.609 55.0075V50.2184H113.219V48.8122H114.609V46.7575H116.508ZM121.477 57.2653H119.578V48.8122H121.477V57.2653ZM119.461 46.6169C119.461 46.3252 119.552 46.083 119.734 45.8903C119.922 45.6976 120.188 45.6013 120.531 45.6013C120.875 45.6013 121.141 45.6976 121.328 45.8903C121.516 46.083 121.609 46.3252 121.609 46.6169C121.609 46.9033 121.516 47.1429 121.328 47.3356C121.141 47.5231 120.875 47.6169 120.531 47.6169C120.188 47.6169 119.922 47.5231 119.734 47.3356C119.552 47.1429 119.461 46.9033 119.461 46.6169ZM125.312 48.8122L125.367 49.7888C125.992 49.0335 126.812 48.6559 127.828 48.6559C129.589 48.6559 130.484 49.6638 130.516 51.6794V57.2653H128.617V51.7888C128.617 51.2523 128.5 50.8565 128.266 50.6013C128.036 50.3408 127.659 50.2106 127.133 50.2106C126.367 50.2106 125.797 50.557 125.422 51.2497V57.2653H123.523V48.8122H125.312ZM132.125 52.9763C132.125 51.6638 132.432 50.6169 133.047 49.8356C133.667 49.0492 134.487 48.6559 135.508 48.6559C136.471 48.6559 137.229 48.9919 137.781 49.6638L137.867 48.8122H139.578V57.0075C139.578 58.1169 139.232 58.9919 138.539 59.6325C137.852 60.2731 136.922 60.5934 135.75 60.5934C135.13 60.5934 134.523 60.4632 133.93 60.2028C133.341 59.9476 132.893 59.6117 132.586 59.195L133.484 58.0544C134.068 58.7471 134.786 59.0934 135.641 59.0934C136.271 59.0934 136.768 58.9216 137.133 58.5778C137.497 58.2393 137.68 57.7393 137.68 57.0778V56.5075C137.133 57.1169 136.404 57.4216 135.492 57.4216C134.503 57.4216 133.693 57.0283 133.062 56.2419C132.438 55.4554 132.125 54.3669 132.125 52.9763ZM134.016 53.1403C134.016 53.9893 134.188 54.6585 134.531 55.1481C134.88 55.6325 135.362 55.8747 135.977 55.8747C136.742 55.8747 137.31 55.5466 137.68 54.8903V51.1716C137.32 50.5309 136.758 50.2106 135.992 50.2106C135.367 50.2106 134.88 50.458 134.531 50.9528C134.188 51.4476 134.016 52.1768 134.016 53.1403ZM152.922 53.1247C152.922 54.432 152.625 55.4763 152.031 56.2575C151.438 57.0335 150.641 57.4216 149.641 57.4216C148.714 57.4216 147.971 57.1169 147.414 56.5075V60.5153H145.516V48.8122H147.266L147.344 49.6716C147.901 48.9945 148.659 48.6559 149.617 48.6559C150.648 48.6559 151.456 49.0414 152.039 49.8122C152.628 50.5778 152.922 51.6429 152.922 53.0075V53.1247ZM151.031 52.9606C151.031 52.1169 150.862 51.4476 150.523 50.9528C150.19 50.458 149.711 50.2106 149.086 50.2106C148.31 50.2106 147.753 50.5309 147.414 51.1716V54.9216C147.758 55.5778 148.32 55.9059 149.102 55.9059C149.706 55.9059 150.177 55.6638 150.516 55.1794C150.859 54.6898 151.031 53.9502 151.031 52.9606ZM154.18 52.9606C154.18 52.1325 154.344 51.3877 154.672 50.7263C155 50.0596 155.461 49.5492 156.055 49.195C156.648 48.8356 157.331 48.6559 158.102 48.6559C159.242 48.6559 160.167 49.0231 160.875 49.7575C161.589 50.4919 161.974 51.4658 162.031 52.6794L162.039 53.1247C162.039 53.958 161.878 54.7028 161.555 55.3591C161.237 56.0153 160.779 56.5231 160.18 56.8825C159.586 57.2419 158.898 57.4216 158.117 57.4216C156.924 57.4216 155.969 57.0257 155.25 56.2341C154.536 55.4372 154.18 54.3773 154.18 53.0544V52.9606ZM156.078 53.1247C156.078 53.9945 156.258 54.6768 156.617 55.1716C156.977 55.6612 157.477 55.9059 158.117 55.9059C158.758 55.9059 159.255 55.6559 159.609 55.1559C159.969 54.6559 160.148 53.9242 160.148 52.9606C160.148 52.1065 159.964 51.4294 159.594 50.9294C159.229 50.4294 158.732 50.1794 158.102 50.1794C157.482 50.1794 156.99 50.4268 156.625 50.9216C156.26 51.4112 156.078 52.1455 156.078 53.1247ZM165.664 57.2653H163.766V48.8122H165.664V57.2653ZM163.648 46.6169C163.648 46.3252 163.74 46.083 163.922 45.8903C164.109 45.6976 164.375 45.6013 164.719 45.6013C165.062 45.6013 165.328 45.6976 165.516 45.8903C165.703 46.083 165.797 46.3252 165.797 46.6169C165.797 46.9033 165.703 47.1429 165.516 47.3356C165.328 47.5231 165.062 47.6169 164.719 47.6169C164.375 47.6169 164.109 47.5231 163.922 47.3356C163.74 47.1429 163.648 46.9033 163.648 46.6169ZM169.5 48.8122L169.555 49.7888C170.18 49.0335 171 48.6559 172.016 48.6559C173.776 48.6559 174.672 49.6638 174.703 51.6794V57.2653H172.805V51.7888C172.805 51.2523 172.688 50.8565 172.453 50.6013C172.224 50.3408 171.846 50.2106 171.32 50.2106C170.555 50.2106 169.984 50.557 169.609 51.2497V57.2653H167.711V48.8122H169.5ZM179.023 46.7575V48.8122H180.516V50.2184H179.023V54.9372C179.023 55.2601 179.086 55.4945 179.211 55.6403C179.341 55.7809 179.57 55.8513 179.898 55.8513C180.117 55.8513 180.339 55.8252 180.562 55.7731V57.2419C180.13 57.3617 179.714 57.4216 179.312 57.4216C177.854 57.4216 177.125 56.6169 177.125 55.0075V50.2184H175.734V48.8122H177.125V46.7575H179.023Z" fill="#E44D26"/>
<path d="M302.805 393.187H298.133V396.687H303.594V398.265H296.156V386.89H303.539V388.484H298.133V391.625H302.805V393.187ZM306.781 389.812L306.836 390.789C307.461 390.034 308.281 389.656 309.297 389.656C311.057 389.656 311.953 390.664 311.984 392.679V398.265H310.086V392.789C310.086 392.252 309.969 391.856 309.734 391.601C309.505 391.341 309.128 391.211 308.602 391.211C307.836 391.211 307.266 391.557 306.891 392.25V398.265H304.992V389.812H306.781ZM313.57 393.976C313.57 392.674 313.872 391.63 314.477 390.843C315.081 390.052 315.891 389.656 316.906 389.656C317.802 389.656 318.526 389.968 319.078 390.593V386.265H320.977V398.265H319.258L319.164 397.39C318.596 398.078 317.839 398.422 316.891 398.422C315.901 398.422 315.099 398.023 314.484 397.226C313.875 396.429 313.57 395.346 313.57 393.976ZM315.469 394.14C315.469 395 315.633 395.672 315.961 396.156C316.294 396.635 316.766 396.875 317.375 396.875C318.151 396.875 318.719 396.528 319.078 395.836V392.226C318.729 391.549 318.167 391.211 317.391 391.211C316.776 391.211 316.302 391.455 315.969 391.945C315.635 392.429 315.469 393.161 315.469 394.14ZM324.977 398.265H323.078V389.812H324.977V398.265ZM322.961 387.617C322.961 387.325 323.052 387.083 323.234 386.89C323.422 386.698 323.688 386.601 324.031 386.601C324.375 386.601 324.641 386.698 324.828 386.89C325.016 387.083 325.109 387.325 325.109 387.617C325.109 387.903 325.016 388.143 324.828 388.336C324.641 388.523 324.375 388.617 324.031 388.617C323.688 388.617 323.422 388.523 323.234 388.336C323.052 388.143 322.961 387.903 322.961 387.617ZM328.812 389.812L328.867 390.789C329.492 390.034 330.312 389.656 331.328 389.656C333.089 389.656 333.984 390.664 334.016 392.679V398.265H332.117V392.789C332.117 392.252 332 391.856 331.766 391.601C331.536 391.341 331.159 391.211 330.633 391.211C329.867 391.211 329.297 391.557 328.922 392.25V398.265H327.023V389.812H328.812ZM335.625 393.976C335.625 392.664 335.932 391.617 336.547 390.836C337.167 390.049 337.987 389.656 339.008 389.656C339.971 389.656 340.729 389.992 341.281 390.664L341.367 389.812H343.078V398.008C343.078 399.117 342.732 399.992 342.039 400.633C341.352 401.273 340.422 401.593 339.25 401.593C338.63 401.593 338.023 401.463 337.43 401.203C336.841 400.948 336.393 400.612 336.086 400.195L336.984 399.054C337.568 399.747 338.286 400.093 339.141 400.093C339.771 400.093 340.268 399.922 340.633 399.578C340.997 399.239 341.18 398.739 341.18 398.078V397.508C340.633 398.117 339.904 398.422 338.992 398.422C338.003 398.422 337.193 398.028 336.562 397.242C335.938 396.455 335.625 395.367 335.625 393.976ZM337.516 394.14C337.516 394.989 337.688 395.659 338.031 396.148C338.38 396.633 338.862 396.875 339.477 396.875C340.242 396.875 340.81 396.547 341.18 395.89V392.172C340.82 391.531 340.258 391.211 339.492 391.211C338.867 391.211 338.38 391.458 338.031 391.953C337.688 392.448 337.516 393.177 337.516 394.14ZM356.422 394.125C356.422 395.432 356.125 396.476 355.531 397.258C354.938 398.034 354.141 398.422 353.141 398.422C352.214 398.422 351.471 398.117 350.914 397.508V401.515H349.016V389.812H350.766L350.844 390.672C351.401 389.994 352.159 389.656 353.117 389.656C354.148 389.656 354.956 390.041 355.539 390.812C356.128 391.578 356.422 392.643 356.422 394.008V394.125ZM354.531 393.961C354.531 393.117 354.362 392.448 354.023 391.953C353.69 391.458 353.211 391.211 352.586 391.211C351.81 391.211 351.253 391.531 350.914 392.172V395.922C351.258 396.578 351.82 396.906 352.602 396.906C353.206 396.906 353.677 396.664 354.016 396.179C354.359 395.69 354.531 394.95 354.531 393.961ZM357.68 393.961C357.68 393.133 357.844 392.388 358.172 391.726C358.5 391.06 358.961 390.549 359.555 390.195C360.148 389.836 360.831 389.656 361.602 389.656C362.742 389.656 363.667 390.023 364.375 390.758C365.089 391.492 365.474 392.466 365.531 393.679L365.539 394.125C365.539 394.958 365.378 395.703 365.055 396.359C364.737 397.015 364.279 397.523 363.68 397.883C363.086 398.242 362.398 398.422 361.617 398.422C360.424 398.422 359.469 398.026 358.75 397.234C358.036 396.437 357.68 395.377 357.68 394.054V393.961ZM359.578 394.125C359.578 394.994 359.758 395.677 360.117 396.172C360.477 396.661 360.977 396.906 361.617 396.906C362.258 396.906 362.755 396.656 363.109 396.156C363.469 395.656 363.648 394.924 363.648 393.961C363.648 393.106 363.464 392.429 363.094 391.929C362.729 391.429 362.232 391.179 361.602 391.179C360.982 391.179 360.49 391.427 360.125 391.922C359.76 392.411 359.578 393.146 359.578 394.125ZM369.164 398.265H367.266V389.812H369.164V398.265ZM367.148 387.617C367.148 387.325 367.24 387.083 367.422 386.89C367.609 386.698 367.875 386.601 368.219 386.601C368.562 386.601 368.828 386.698 369.016 386.89C369.203 387.083 369.297 387.325 369.297 387.617C369.297 387.903 369.203 388.143 369.016 388.336C368.828 388.523 368.562 388.617 368.219 388.617C367.875 388.617 367.609 388.523 367.422 388.336C367.24 388.143 367.148 387.903 367.148 387.617ZM373 389.812L373.055 390.789C373.68 390.034 374.5 389.656 375.516 389.656C377.276 389.656 378.172 390.664 378.203 392.679V398.265H376.305V392.789C376.305 392.252 376.188 391.856 375.953 391.601C375.724 391.341 375.346 391.211 374.82 391.211C374.055 391.211 373.484 391.557 373.109 392.25V398.265H371.211V389.812H373ZM382.523 387.758V389.812H384.016V391.218H382.523V395.937C382.523 396.26 382.586 396.494 382.711 396.64C382.841 396.781 383.07 396.851 383.398 396.851C383.617 396.851 383.839 396.825 384.062 396.773V398.242C383.63 398.362 383.214 398.422 382.812 398.422C381.354 398.422 380.625 397.617 380.625 396.008V391.218H379.234V389.812H380.625V387.758H382.523Z" fill="#E44D26"/>
<defs>
<linearGradient id="paint0_linear" x1="196.912" y1="59.2653" x2="281.258" y2="380.852" gradientUnits="userSpaceOnUse">
<stop stop-color="#00986B" stop-opacity="0.49"/>
<stop offset="1" stop-color="#FFF000" stop-opacity="0.51"/>
</linearGradient>
<clipPath id="clip0">
<rect width="478" height="217" fill="white" transform="translate(0 112.265)"/>
</clipPath>
</defs>
</svg>
