<svg width="715" height="154" viewBox="0 0 715 154" fill="none" xmlns="http://www.w3.org/2000/svg">
<path d="M45 55H225" stroke="#163875" stroke-width="4" stroke-linecap="round" stroke-dasharray="1 8"/>
<path d="M45.4142 83.5858C44.6332 82.8047 43.3668 82.8047 42.5858 83.5858L29.8579 96.3137C29.0768 97.0948 29.0768 98.3611 29.8579 99.1421C30.6389 99.9232 31.9052 99.9232 32.6863 99.1421L44 87.8284L55.3137 99.1421C56.0948 99.9232 57.3611 99.9232 58.1421 99.1421C58.9232 98.3611 58.9232 97.0948 58.1421 96.3137L45.4142 83.5858ZM42 120C42 121.105 42.8954 122 44 122C45.1046 122 46 121.105 46 120L42 120ZM42 85L42 120L46 120L46 85L42 85Z" fill="#222222"/>
<path d="M225 53H701" stroke="#F79D30" stroke-width="4"/>
<path d="M226 57L698 57" stroke="#1E73FF" stroke-width="4"/>
<circle cx="44" cy="55" r="14" fill="#163875"/>
<circle cx="224" cy="55" r="12" fill="#F79D30" stroke="#1E73FF" stroke-width="4"/>
<circle cx="701" cy="55" r="12" fill="#F79D30" stroke="#1E73FF" stroke-width="4"/>
<path d="M102.668 20H100.861V9.43359H102.668V20ZM100.715 6.63086C100.715 6.33789 100.803 6.09049 100.979 5.88867C101.161 5.68685 101.428 5.58594 101.779 5.58594C102.131 5.58594 102.398 5.68685 102.58 5.88867C102.762 6.09049 102.854 6.33789 102.854 6.63086C102.854 6.92383 102.762 7.16797 102.58 7.36328C102.398 7.55859 102.131 7.65625 101.779 7.65625C101.428 7.65625 101.161 7.55859 100.979 7.36328C100.803 7.16797 100.715 6.92383 100.715 6.63086ZM107.277 9.43359L107.336 10.7617C108.143 9.74609 109.198 9.23828 110.5 9.23828C112.733 9.23828 113.859 10.498 113.879 13.0176V20H112.072V13.0078C112.066 12.2461 111.89 11.6829 111.545 11.3184C111.206 10.9538 110.676 10.7715 109.953 10.7715C109.367 10.7715 108.853 10.9277 108.41 11.2402C107.967 11.5527 107.622 11.9629 107.375 12.4707V20H105.568V9.43359H107.277ZM120.09 17.5488L122.707 9.43359H124.553L120.764 20H119.387L115.559 9.43359H117.404L120.09 17.5488ZM128.254 20H126.447V9.43359H128.254V20ZM126.301 6.63086C126.301 6.33789 126.389 6.09049 126.564 5.88867C126.747 5.68685 127.014 5.58594 127.365 5.58594C127.717 5.58594 127.984 5.68685 128.166 5.88867C128.348 6.09049 128.439 6.33789 128.439 6.63086C128.439 6.92383 128.348 7.16797 128.166 7.36328C127.984 7.55859 127.717 7.65625 127.365 7.65625C127.014 7.65625 126.747 7.55859 126.564 7.36328C126.389 7.16797 126.301 6.92383 126.301 6.63086ZM137.307 17.1973C137.307 16.709 137.121 16.3314 136.75 16.0645C136.385 15.791 135.744 15.5566 134.826 15.3613C133.915 15.166 133.189 14.9316 132.648 14.6582C132.115 14.3848 131.717 14.0592 131.457 13.6816C131.203 13.304 131.076 12.8548 131.076 12.334C131.076 11.4681 131.441 10.7357 132.17 10.1367C132.906 9.53776 133.843 9.23828 134.982 9.23828C136.18 9.23828 137.15 9.54753 137.893 10.166C138.641 10.7845 139.016 11.5755 139.016 12.5391H137.199C137.199 12.0443 136.988 11.6178 136.564 11.2598C136.148 10.9017 135.62 10.7227 134.982 10.7227C134.325 10.7227 133.811 10.8659 133.439 11.1523C133.068 11.4388 132.883 11.8132 132.883 12.2754C132.883 12.7116 133.055 13.0404 133.4 13.2617C133.745 13.4831 134.367 13.6947 135.266 13.8965C136.171 14.0983 136.903 14.3392 137.463 14.6191C138.023 14.8991 138.436 15.2376 138.703 15.6348C138.977 16.0254 139.113 16.5039 139.113 17.0703C139.113 18.0143 138.736 18.7728 137.98 19.3457C137.225 19.9121 136.245 20.1953 135.041 20.1953C134.195 20.1953 133.446 20.0456 132.795 19.7461C132.144 19.4466 131.633 19.0299 131.262 18.4961C130.897 17.9557 130.715 17.373 130.715 16.748H132.521C132.554 17.3535 132.795 17.8353 133.244 18.1934C133.7 18.5449 134.299 18.7207 135.041 18.7207C135.725 18.7207 136.271 18.584 136.682 18.3105C137.098 18.0306 137.307 17.6595 137.307 17.1973ZM143.43 20H141.623V9.43359H143.43V20ZM141.477 6.63086C141.477 6.33789 141.564 6.09049 141.74 5.88867C141.923 5.68685 142.189 5.58594 142.541 5.58594C142.893 5.58594 143.16 5.68685 143.342 5.88867C143.524 6.09049 143.615 6.33789 143.615 6.63086C143.615 6.92383 143.524 7.16797 143.342 7.36328C143.16 7.55859 142.893 7.65625 142.541 7.65625C142.189 7.65625 141.923 7.55859 141.74 7.36328C141.564 7.16797 141.477 6.92383 141.477 6.63086ZM155.275 14.834C155.275 16.4486 154.904 17.7474 154.162 18.7305C153.42 19.707 152.424 20.1953 151.174 20.1953C149.839 20.1953 148.807 19.7233 148.078 18.7793L147.99 20H146.33V5H148.137V10.5957C148.866 9.69076 149.872 9.23828 151.154 9.23828C152.437 9.23828 153.443 9.72331 154.172 10.6934C154.908 11.6634 155.275 12.9915 155.275 14.6777V14.834ZM153.469 14.6289C153.469 13.3984 153.231 12.4479 152.756 11.7773C152.281 11.1068 151.597 10.7715 150.705 10.7715C149.514 10.7715 148.658 11.3249 148.137 12.4316V17.002C148.69 18.1087 149.553 18.6621 150.725 18.6621C151.59 18.6621 152.264 18.3268 152.746 17.6562C153.228 16.9857 153.469 15.9766 153.469 14.6289ZM159.523 20H157.717V5H159.523V20ZM166.809 20.1953C165.376 20.1953 164.211 19.7266 163.312 18.7891C162.414 17.8451 161.965 16.5853 161.965 15.0098V14.6777C161.965 13.6296 162.163 12.6953 162.561 11.875C162.964 11.0482 163.524 10.4036 164.24 9.94141C164.963 9.47266 165.744 9.23828 166.584 9.23828C167.958 9.23828 169.025 9.69076 169.787 10.5957C170.549 11.5007 170.93 12.7962 170.93 14.4824V15.2344H163.771C163.798 16.276 164.1 17.1191 164.68 17.7637C165.266 18.4017 166.008 18.7207 166.906 18.7207C167.544 18.7207 168.085 18.5905 168.527 18.3301C168.97 18.0697 169.357 17.7246 169.689 17.2949L170.793 18.1543C169.908 19.515 168.579 20.1953 166.809 20.1953ZM166.584 10.7227C165.855 10.7227 165.243 10.9896 164.748 11.5234C164.253 12.0508 163.947 12.793 163.83 13.75H169.123V13.6133C169.071 12.6953 168.824 11.9857 168.381 11.4844C167.938 10.9766 167.339 10.7227 166.584 10.7227Z" fill="#163875"/>
<path d="M7.7603 140.178V141.24H10.5863V142.14H11.9723V132.474H10.5863V140.178H7.7603ZM5.5643 133.788C6.87831 133.788 7.74231 134.31 7.74231 135.138C7.74231 135.966 6.87831 136.488 5.5643 136.488C4.2503 136.488 3.4043 135.966 3.4043 135.138C3.4043 134.31 4.2503 133.788 5.5643 133.788ZM5.5643 137.55C7.67031 137.55 9.07431 136.632 9.07431 135.138C9.07431 133.662 7.67031 132.744 5.5643 132.744C3.4763 132.744 2.0723 133.662 2.0723 135.138C2.0723 136.632 3.4763 137.55 5.5643 137.55ZM4.8983 142.14H6.3023V139.458C7.5083 139.368 8.73231 139.224 9.83031 139.008L9.72231 137.982C7.04031 138.414 3.4403 138.45 1.2083 138.45L1.3883 139.602C2.3783 139.602 3.6023 139.602 4.8983 139.53V142.14ZM13.4663 146.946H5.5103V145.416H13.4663V146.946ZM13.4663 144.282H5.5103V142.77H4.0523V148.116H14.9063V142.77H13.4663V144.282ZM13.5023 132.186V142.176H14.9063V132.186H13.5023ZM21.2229 143.544H19.7469V147.972H30.8529V146.766H21.2229V143.544ZM23.1489 134.112H27.1629V137.784H23.1489V134.112ZM25.9209 140.934V138.972H31.0149V137.784H28.6389V134.112H31.0689V132.924H19.2249V134.112H21.6729V137.784H19.2789V138.972H24.4449V140.934H17.8569V142.122H32.4549V140.934H25.9209ZM47.3935 140.898H37.7995V138.342H46.8715V137.172H37.7995V134.778H47.2315V133.59H36.3055V142.086H47.3935V140.898ZM34.4155 145.038V146.244H49.0675V145.038H34.4155ZM60.5325 141.24C61.1985 141.402 61.9725 141.492 62.7645 141.492C63.5745 141.492 64.3485 141.402 65.0325 141.24V145.038H60.5325V141.24ZM62.7645 134.364C65.3565 134.364 67.2285 135.552 67.2285 137.352C67.2285 139.152 65.3565 140.34 62.7645 140.34C60.1725 140.34 58.3185 139.152 58.3185 137.352C58.3185 135.552 60.1725 134.364 62.7645 134.364ZM66.5085 145.038V140.664C67.8405 139.962 68.6325 138.81 68.6325 137.352C68.6325 134.832 66.2025 133.212 62.7645 133.212C59.3445 133.212 56.8965 134.832 56.8965 137.352C56.8965 138.81 57.7065 139.98 59.0565 140.682V145.038H55.4565V146.262H70.1265V145.038H66.5085ZM80.6191 136.776V138H83.8411V141.978H85.3351V132.186H83.8411V136.776H80.6191ZM81.5911 140.142C79.2151 139.44 77.5411 137.64 77.5411 135.624V135.318H81.1051V134.13H77.5411V132.096H76.0651V134.13H72.4831V135.318H76.0651V135.624C76.0651 137.802 74.4451 139.764 72.0691 140.574L72.7891 141.708C74.6971 141.078 76.1551 139.71 76.8391 137.946C77.5771 139.512 79.0351 140.718 80.8891 141.294L81.5911 140.142ZM79.9891 147.162C77.5591 147.162 76.1011 146.478 76.1011 145.344C76.1011 144.228 77.5591 143.544 79.9891 143.544C82.4551 143.544 83.9131 144.228 83.9131 145.344C83.9131 146.478 82.4371 147.162 79.9891 147.162ZM79.9891 142.392C76.6771 142.392 74.6251 143.472 74.6251 145.344C74.6251 147.234 76.6771 148.314 79.9891 148.314C83.3371 148.314 85.3891 147.234 85.3891 145.344C85.3891 143.472 83.3371 142.392 79.9891 142.392Z" fill="black"/>
<path d="M111.348 102H109.531V89.959L105.889 91.2969V89.6562L111.064 87.7129H111.348V102ZM125.557 95.9355C125.557 98.0514 125.195 99.6237 124.473 100.652C123.75 101.681 122.62 102.195 121.084 102.195C119.567 102.195 118.444 101.694 117.715 100.691C116.986 99.6823 116.608 98.1784 116.582 96.1797V93.7676C116.582 91.6777 116.943 90.125 117.666 89.1094C118.389 88.0938 119.521 87.5859 121.064 87.5859C122.594 87.5859 123.721 88.0775 124.443 89.0605C125.166 90.0371 125.537 91.5475 125.557 93.5918V95.9355ZM123.75 93.4648C123.75 91.9349 123.535 90.8216 123.105 90.125C122.676 89.4219 121.995 89.0703 121.064 89.0703C120.14 89.0703 119.466 89.4186 119.043 90.1152C118.62 90.8118 118.402 91.8828 118.389 93.3281V96.2188C118.389 97.7552 118.61 98.8913 119.053 99.627C119.502 100.356 120.179 100.721 121.084 100.721C121.976 100.721 122.637 100.376 123.066 99.6855C123.503 98.9954 123.73 97.9082 123.75 96.4238V93.4648ZM136.787 95.9355C136.787 98.0514 136.426 99.6237 135.703 100.652C134.98 101.681 133.851 102.195 132.314 102.195C130.798 102.195 129.674 101.694 128.945 100.691C128.216 99.6823 127.839 98.1784 127.812 96.1797V93.7676C127.812 91.6777 128.174 90.125 128.896 89.1094C129.619 88.0938 130.752 87.5859 132.295 87.5859C133.825 87.5859 134.951 88.0775 135.674 89.0605C136.396 90.0371 136.768 91.5475 136.787 93.5918V95.9355ZM134.98 93.4648C134.98 91.9349 134.766 90.8216 134.336 90.125C133.906 89.4219 133.226 89.0703 132.295 89.0703C131.37 89.0703 130.697 89.4186 130.273 90.1152C129.85 90.8118 129.632 91.8828 129.619 93.3281V96.2188C129.619 97.7552 129.84 98.8913 130.283 99.627C130.732 100.356 131.41 100.721 132.314 100.721C133.206 100.721 133.867 100.376 134.297 99.6855C134.733 98.9954 134.961 97.9082 134.98 96.4238V93.4648ZM140.986 91.4336L141.035 92.6055C141.81 91.694 142.855 91.2383 144.17 91.2383C145.648 91.2383 146.654 91.8047 147.188 92.9375C147.539 92.4297 147.995 92.0195 148.555 91.707C149.121 91.3945 149.788 91.2383 150.557 91.2383C152.874 91.2383 154.053 92.4655 154.092 94.9199V102H152.285V95.0273C152.285 94.2721 152.113 93.709 151.768 93.3379C151.423 92.9603 150.843 92.7715 150.029 92.7715C149.359 92.7715 148.802 92.9733 148.359 93.377C147.917 93.7741 147.66 94.3112 147.588 94.9883V102H145.771V95.0762C145.771 93.5397 145.02 92.7715 143.516 92.7715C142.331 92.7715 141.52 93.276 141.084 94.2852V102H139.277V91.4336H140.986ZM162.979 99.1973C162.979 98.709 162.793 98.3314 162.422 98.0645C162.057 97.791 161.416 97.5566 160.498 97.3613C159.587 97.166 158.861 96.9316 158.32 96.6582C157.786 96.3848 157.389 96.0592 157.129 95.6816C156.875 95.304 156.748 94.8548 156.748 94.334C156.748 93.4681 157.113 92.7357 157.842 92.1367C158.577 91.5378 159.515 91.2383 160.654 91.2383C161.852 91.2383 162.822 91.5475 163.564 92.166C164.313 92.7845 164.688 93.5755 164.688 94.5391H162.871C162.871 94.0443 162.66 93.6178 162.236 93.2598C161.82 92.9017 161.292 92.7227 160.654 92.7227C159.997 92.7227 159.482 92.8659 159.111 93.1523C158.74 93.4388 158.555 93.8132 158.555 94.2754C158.555 94.7116 158.727 95.0404 159.072 95.2617C159.417 95.4831 160.039 95.6947 160.938 95.8965C161.842 96.0983 162.575 96.3392 163.135 96.6191C163.695 96.8991 164.108 97.2376 164.375 97.6348C164.648 98.0254 164.785 98.5039 164.785 99.0703C164.785 100.014 164.408 100.773 163.652 101.346C162.897 101.912 161.917 102.195 160.713 102.195C159.867 102.195 159.118 102.046 158.467 101.746C157.816 101.447 157.305 101.03 156.934 100.496C156.569 99.9557 156.387 99.373 156.387 98.748H158.193C158.226 99.3535 158.467 99.8353 158.916 100.193C159.372 100.545 159.971 100.721 160.713 100.721C161.396 100.721 161.943 100.584 162.354 100.311C162.77 100.031 162.979 99.6595 162.979 99.1973Z" fill="black"/>
<path d="M383.631 20V10.8301H381.961V9.43359H383.631V8.34961C383.631 7.2168 383.934 6.34115 384.539 5.72266C385.145 5.10417 386.001 4.79492 387.107 4.79492C387.524 4.79492 387.938 4.85026 388.348 4.96094L388.25 6.42578C387.944 6.36719 387.618 6.33789 387.273 6.33789C386.688 6.33789 386.235 6.51042 385.916 6.85547C385.597 7.19401 385.438 7.68229 385.438 8.32031V9.43359H387.693V10.8301H385.438V20H383.631ZM396.219 20C396.115 19.7917 396.03 19.4206 395.965 18.8867C395.125 19.7591 394.122 20.1953 392.957 20.1953C391.915 20.1953 391.059 19.9023 390.389 19.3164C389.725 18.724 389.393 17.9753 389.393 17.0703C389.393 15.9701 389.809 15.1172 390.643 14.5117C391.482 13.8997 392.661 13.5938 394.178 13.5938H395.936V12.7637C395.936 12.1322 395.747 11.6309 395.369 11.2598C394.992 10.8822 394.435 10.6934 393.699 10.6934C393.055 10.6934 392.514 10.8561 392.078 11.1816C391.642 11.5072 391.424 11.901 391.424 12.3633H389.607C389.607 11.8359 389.793 11.3281 390.164 10.8398C390.542 10.3451 391.049 9.95443 391.688 9.66797C392.332 9.38151 393.038 9.23828 393.807 9.23828C395.024 9.23828 395.978 9.54427 396.668 10.1562C397.358 10.7617 397.716 11.5983 397.742 12.666V17.5293C397.742 18.4993 397.866 19.2708 398.113 19.8438V20H396.219ZM393.221 18.623C393.787 18.623 394.324 18.4766 394.832 18.1836C395.34 17.8906 395.708 17.5098 395.936 17.041V14.873H394.52C392.306 14.873 391.199 15.5208 391.199 16.8164C391.199 17.3828 391.388 17.8255 391.766 18.1445C392.143 18.4635 392.628 18.623 393.221 18.623ZM402.537 20H400.73V5H402.537V20ZM407.4 20H405.594V5H407.4V20ZM419.246 14.834C419.246 16.4486 418.875 17.7474 418.133 18.7305C417.391 19.707 416.395 20.1953 415.145 20.1953C413.81 20.1953 412.778 19.7233 412.049 18.7793L411.961 20H410.301V5H412.107V10.5957C412.837 9.69076 413.842 9.23828 415.125 9.23828C416.408 9.23828 417.413 9.72331 418.143 10.6934C418.878 11.6634 419.246 12.9915 419.246 14.6777V14.834ZM417.439 14.6289C417.439 13.3984 417.202 12.4479 416.727 11.7773C416.251 11.1068 415.568 10.7715 414.676 10.7715C413.484 10.7715 412.628 11.3249 412.107 12.4316V17.002C412.661 18.1087 413.523 18.6621 414.695 18.6621C415.561 18.6621 416.235 18.3268 416.717 17.6562C417.199 16.9857 417.439 15.9766 417.439 14.6289ZM428.055 20C427.951 19.7917 427.866 19.4206 427.801 18.8867C426.961 19.7591 425.958 20.1953 424.793 20.1953C423.751 20.1953 422.895 19.9023 422.225 19.3164C421.561 18.724 421.229 17.9753 421.229 17.0703C421.229 15.9701 421.645 15.1172 422.479 14.5117C423.318 13.8997 424.497 13.5938 426.014 13.5938H427.771V12.7637C427.771 12.1322 427.583 11.6309 427.205 11.2598C426.827 10.8822 426.271 10.6934 425.535 10.6934C424.891 10.6934 424.35 10.8561 423.914 11.1816C423.478 11.5072 423.26 11.901 423.26 12.3633H421.443C421.443 11.8359 421.629 11.3281 422 10.8398C422.378 10.3451 422.885 9.95443 423.523 9.66797C424.168 9.38151 424.874 9.23828 425.643 9.23828C426.86 9.23828 427.814 9.54427 428.504 10.1562C429.194 10.7617 429.552 11.5983 429.578 12.666V17.5293C429.578 18.4993 429.702 19.2708 429.949 19.8438V20H428.055ZM425.057 18.623C425.623 18.623 426.16 18.4766 426.668 18.1836C427.176 17.8906 427.544 17.5098 427.771 17.041V14.873H426.355C424.142 14.873 423.035 15.5208 423.035 16.8164C423.035 17.3828 423.224 17.8255 423.602 18.1445C423.979 18.4635 424.464 18.623 425.057 18.623ZM436.648 18.7207C437.293 18.7207 437.856 18.5254 438.338 18.1348C438.82 17.7441 439.087 17.2559 439.139 16.6699H440.848C440.815 17.2754 440.607 17.8516 440.223 18.3984C439.839 18.9453 439.324 19.3815 438.68 19.707C438.042 20.0326 437.365 20.1953 436.648 20.1953C435.21 20.1953 434.064 19.7168 433.211 18.7598C432.365 17.7962 431.941 16.4811 431.941 14.8145V14.5117C431.941 13.4831 432.13 12.5684 432.508 11.7676C432.885 10.9668 433.426 10.3451 434.129 9.90234C434.839 9.45964 435.675 9.23828 436.639 9.23828C437.824 9.23828 438.807 9.5931 439.588 10.3027C440.376 11.0124 440.796 11.9336 440.848 13.0664H439.139C439.087 12.3828 438.826 11.8229 438.357 11.3867C437.895 10.944 437.322 10.7227 436.639 10.7227C435.721 10.7227 435.008 11.0547 434.5 11.7188C433.999 12.3763 433.748 13.3301 433.748 14.5801V14.9219C433.748 16.1393 433.999 17.0768 434.5 17.7344C435.001 18.3919 435.717 18.7207 436.648 18.7207ZM445.828 15.1074L444.695 16.2891V20H442.889V5H444.695V14.0723L445.662 12.9102L448.953 9.43359H451.15L447.039 13.8477L451.629 20H449.51L445.828 15.1074Z" fill="#F79D30"/>
<path d="M458.338 21.2207H456.785L462.723 5.78125H464.266L458.338 21.2207ZM480.535 17.5098L482.566 9.43359H484.373L481.297 20H479.832L477.264 11.9922L474.764 20H473.299L470.232 9.43359H472.029L474.109 17.3438L476.57 9.43359H478.025L480.535 17.5098ZM490.604 20.1953C489.171 20.1953 488.006 19.7266 487.107 18.7891C486.209 17.8451 485.76 16.5853 485.76 15.0098V14.6777C485.76 13.6296 485.958 12.6953 486.355 11.875C486.759 11.0482 487.319 10.4036 488.035 9.94141C488.758 9.47266 489.539 9.23828 490.379 9.23828C491.753 9.23828 492.82 9.69076 493.582 10.5957C494.344 11.5007 494.725 12.7962 494.725 14.4824V15.2344H487.566C487.592 16.276 487.895 17.1191 488.475 17.7637C489.061 18.4017 489.803 18.7207 490.701 18.7207C491.339 18.7207 491.88 18.5905 492.322 18.3301C492.765 18.0697 493.152 17.7246 493.484 17.2949L494.588 18.1543C493.702 19.515 492.374 20.1953 490.604 20.1953ZM490.379 10.7227C489.65 10.7227 489.038 10.9896 488.543 11.5234C488.048 12.0508 487.742 12.793 487.625 13.75H492.918V13.6133C492.866 12.6953 492.618 11.9857 492.176 11.4844C491.733 10.9766 491.134 10.7227 490.379 10.7227ZM505.77 14.834C505.77 16.4486 505.398 17.7474 504.656 18.7305C503.914 19.707 502.918 20.1953 501.668 20.1953C500.333 20.1953 499.301 19.7233 498.572 18.7793L498.484 20H496.824V5H498.631V10.5957C499.36 9.69076 500.366 9.23828 501.648 9.23828C502.931 9.23828 503.937 9.72331 504.666 10.6934C505.402 11.6634 505.77 12.9915 505.77 14.6777V14.834ZM503.963 14.6289C503.963 13.3984 503.725 12.4479 503.25 11.7773C502.775 11.1068 502.091 10.7715 501.199 10.7715C500.008 10.7715 499.152 11.3249 498.631 12.4316V17.002C499.184 18.1087 500.047 18.6621 501.219 18.6621C502.085 18.6621 502.758 18.3268 503.24 17.6562C503.722 16.9857 503.963 15.9766 503.963 14.6289ZM508.943 20V10.8301H507.273V9.43359H508.943V8.34961C508.943 7.2168 509.246 6.34115 509.852 5.72266C510.457 5.10417 511.313 4.79492 512.42 4.79492C512.837 4.79492 513.25 4.85026 513.66 4.96094L513.562 6.42578C513.257 6.36719 512.931 6.33789 512.586 6.33789C512 6.33789 511.548 6.51042 511.229 6.85547C510.91 7.19401 510.75 7.68229 510.75 8.32031V9.43359H513.006V10.8301H510.75V20H508.943ZM514.529 14.6191C514.529 13.584 514.731 12.653 515.135 11.8262C515.545 10.9993 516.111 10.3613 516.834 9.91211C517.563 9.46289 518.393 9.23828 519.324 9.23828C520.763 9.23828 521.925 9.73633 522.811 10.7324C523.702 11.7285 524.148 13.0534 524.148 14.707V14.834C524.148 15.8626 523.95 16.7871 523.553 17.6074C523.162 18.4212 522.599 19.056 521.863 19.5117C521.134 19.9674 520.294 20.1953 519.344 20.1953C517.911 20.1953 516.749 19.6973 515.857 18.7012C514.972 17.7051 514.529 16.3867 514.529 14.7461V14.6191ZM516.346 14.834C516.346 16.0059 516.616 16.9466 517.156 17.6562C517.703 18.3659 518.432 18.7207 519.344 18.7207C520.262 18.7207 520.991 18.3626 521.531 17.6465C522.072 16.9238 522.342 15.9147 522.342 14.6191C522.342 13.4603 522.065 12.5228 521.512 11.8066C520.965 11.084 520.236 10.7227 519.324 10.7227C518.432 10.7227 517.713 11.0775 517.166 11.7871C516.619 12.4967 516.346 13.5124 516.346 14.834ZM528.123 9.43359L528.182 10.7617C528.989 9.74609 530.044 9.23828 531.346 9.23828C533.579 9.23828 534.705 10.498 534.725 13.0176V20H532.918V13.0078C532.911 12.2461 532.736 11.6829 532.391 11.3184C532.052 10.9538 531.521 10.7715 530.799 10.7715C530.213 10.7715 529.699 10.9277 529.256 11.2402C528.813 11.5527 528.468 11.9629 528.221 12.4707V20H526.414V9.43359H528.123ZM539.9 6.875V9.43359H541.873V10.8301H539.9V17.3828C539.9 17.806 539.988 18.125 540.164 18.3398C540.34 18.5482 540.639 18.6523 541.062 18.6523C541.271 18.6523 541.557 18.6133 541.922 18.5352V20C541.447 20.1302 540.984 20.1953 540.535 20.1953C539.728 20.1953 539.119 19.9512 538.709 19.4629C538.299 18.9746 538.094 18.2812 538.094 17.3828V10.8301H536.17V9.43359H538.094V6.875H539.9Z" fill="#4065A3"/>
</svg>
