<svg width="715" height="154" viewBox="0 0 715 154" fill="none" xmlns="http://www.w3.org/2000/svg">
<path d="M45.4142 83.5858C44.6332 82.8047 43.3668 82.8047 42.5858 83.5858L29.8579 96.3137C29.0768 97.0948 29.0768 98.3611 29.8579 99.1421C30.6389 99.9232 31.9052 99.9232 32.6863 99.1421L44 87.8284L55.3137 99.1421C56.0948 99.9232 57.3611 99.9232 58.1421 99.1421C58.9232 98.3611 58.9232 97.0948 58.1421 96.3137L45.4142 83.5858ZM42 120C42 121.105 42.8954 122 44 122C45.1046 122 46 121.105 46 120L42 120ZM42 85L42 120L46 120L46 85L42 85Z" fill="#222222"/>
<path d="M560.414 83.5858C559.633 82.8047 558.367 82.8047 557.586 83.5858L544.858 96.3137C544.077 97.0948 544.077 98.3611 544.858 99.1421C545.639 99.9232 546.905 99.9232 547.686 99.1421L559 87.8284L570.314 99.1421C571.095 99.9232 572.361 99.9232 573.142 99.1421C573.923 98.3611 573.923 97.0948 573.142 96.3137L560.414 83.5858ZM557 120C557 121.105 557.895 122 559 122C560.105 122 561 121.105 561 120L557 120ZM557 85L557 120L561 120L561 85L557 85Z" fill="#222222"/>
<path d="M45 55L559 55" stroke="#F79D30" stroke-width="4"/>
<path d="M556 55H698.5" stroke="#1E73FF" stroke-width="4"/>
<circle cx="44" cy="55" r="14" fill="#F79D30"/>
<circle cx="559" cy="55" r="14" fill="#1E73FF"/>
<circle cx="701" cy="55" r="14" fill="#1E73FF"/>
<path d="M7.7603 140.178V141.24H10.5863V142.14H11.9723V132.474H10.5863V140.178H7.7603ZM5.5643 133.788C6.87831 133.788 7.74231 134.31 7.74231 135.138C7.74231 135.966 6.87831 136.488 5.5643 136.488C4.2503 136.488 3.4043 135.966 3.4043 135.138C3.4043 134.31 4.2503 133.788 5.5643 133.788ZM5.5643 137.55C7.67031 137.55 9.07431 136.632 9.07431 135.138C9.07431 133.662 7.67031 132.744 5.5643 132.744C3.4763 132.744 2.0723 133.662 2.0723 135.138C2.0723 136.632 3.4763 137.55 5.5643 137.55ZM4.8983 142.14H6.3023V139.458C7.5083 139.368 8.73231 139.224 9.83031 139.008L9.72231 137.982C7.04031 138.414 3.4403 138.45 1.2083 138.45L1.3883 139.602C2.3783 139.602 3.6023 139.602 4.8983 139.53V142.14ZM13.4663 146.946H5.5103V145.416H13.4663V146.946ZM13.4663 144.282H5.5103V142.77H4.0523V148.116H14.9063V142.77H13.4663V144.282ZM13.5023 132.186V142.176H14.9063V132.186H13.5023ZM21.2229 143.544H19.7469V147.972H30.8529V146.766H21.2229V143.544ZM23.1489 134.112H27.1629V137.784H23.1489V134.112ZM25.9209 140.934V138.972H31.0149V137.784H28.6389V134.112H31.0689V132.924H19.2249V134.112H21.6729V137.784H19.2789V138.972H24.4449V140.934H17.8569V142.122H32.4549V140.934H25.9209ZM47.3935 140.898H37.7995V138.342H46.8715V137.172H37.7995V134.778H47.2315V133.59H36.3055V142.086H47.3935V140.898ZM34.4155 145.038V146.244H49.0675V145.038H34.4155ZM60.5325 141.24C61.1985 141.402 61.9725 141.492 62.7645 141.492C63.5745 141.492 64.3485 141.402 65.0325 141.24V145.038H60.5325V141.24ZM62.7645 134.364C65.3565 134.364 67.2285 135.552 67.2285 137.352C67.2285 139.152 65.3565 140.34 62.7645 140.34C60.1725 140.34 58.3185 139.152 58.3185 137.352C58.3185 135.552 60.1725 134.364 62.7645 134.364ZM66.5085 145.038V140.664C67.8405 139.962 68.6325 138.81 68.6325 137.352C68.6325 134.832 66.2025 133.212 62.7645 133.212C59.3445 133.212 56.8965 134.832 56.8965 137.352C56.8965 138.81 57.7065 139.98 59.0565 140.682V145.038H55.4565V146.262H70.1265V145.038H66.5085ZM80.6191 136.776V138H83.8411V141.978H85.3351V132.186H83.8411V136.776H80.6191ZM81.5911 140.142C79.2151 139.44 77.5411 137.64 77.5411 135.624V135.318H81.1051V134.13H77.5411V132.096H76.0651V134.13H72.4831V135.318H76.0651V135.624C76.0651 137.802 74.4451 139.764 72.0691 140.574L72.7891 141.708C74.6971 141.078 76.1551 139.71 76.8391 137.946C77.5771 139.512 79.0351 140.718 80.8891 141.294L81.5911 140.142ZM79.9891 147.162C77.5591 147.162 76.1011 146.478 76.1011 145.344C76.1011 144.228 77.5591 143.544 79.9891 143.544C82.4551 143.544 83.9131 144.228 83.9131 145.344C83.9131 146.478 82.4371 147.162 79.9891 147.162ZM79.9891 142.392C76.6771 142.392 74.6251 143.472 74.6251 145.344C74.6251 147.234 76.6771 148.314 79.9891 148.314C83.3371 148.314 85.3891 147.234 85.3891 145.344C85.3891 143.472 83.3371 142.392 79.9891 142.392Z" fill="black"/>
<path d="M509.197 134.958H515.227V133.734H507.721V144.336H508.999C512.041 144.336 514.165 144.228 516.631 143.76L516.469 142.536C514.129 142.95 512.059 143.076 509.197 143.076V134.958ZM522.121 138.558H519.457V132.186H517.981V148.368H519.457V139.782H522.121V138.558ZM530.886 133.788C533.37 133.788 534.99 134.562 534.99 135.84C534.99 137.1 533.37 137.874 530.886 137.874C528.42 137.874 526.782 137.1 526.782 135.84C526.782 134.562 528.42 133.788 530.886 133.788ZM530.886 139.08C534.306 139.08 536.538 137.838 536.538 135.84C536.538 133.842 534.306 132.6 530.886 132.6C527.466 132.6 525.234 133.842 525.234 135.84C525.234 137.838 527.466 139.08 530.886 139.08ZM526.926 143.256H525.45V147.972H536.61V146.748H526.926V143.256ZM523.578 140.376V141.582H530.274V144.84H531.768V141.582H538.212V140.376H523.578ZM548.2 145.128V142.086H553.366V140.898H543.43V138.288H552.988V133.374H541.936V134.58H551.548V137.1H541.972V142.086H546.706V145.128H540.136V146.334H554.806V145.128H548.2ZM569.655 139.926H560.025V134.886H569.493V133.662H558.567V141.132H569.655V139.926ZM556.695 144.93V146.154H571.347V144.93H556.695ZM580.04 136.11C580.04 134.886 581.102 134.058 582.65 134.058C584.162 134.058 585.242 134.886 585.242 136.11C585.242 137.352 584.162 138.162 582.65 138.162C581.102 138.162 580.04 137.352 580.04 136.11ZM587.798 140.412C586.394 140.628 584.9 140.736 583.406 140.826V139.242C585.332 139.008 586.628 137.82 586.628 136.11C586.628 134.22 584.99 132.942 582.65 132.942C580.292 132.942 578.672 134.22 578.672 136.11C578.672 137.838 579.968 139.026 581.93 139.26V140.88C580.418 140.934 578.978 140.952 577.736 140.952L577.934 142.158C580.688 142.158 584.522 142.104 587.888 141.492L587.798 140.412ZM581.534 143.508H580.058V147.954H590.84V146.748H581.534V143.508ZM590.264 137.658V132.204H588.788V144.552H590.264V138.882H592.622V137.658H590.264ZM599.856 142.068H603.546V145.128H599.856V142.068ZM605.004 145.128V142.068H607.524V140.862H597.588V138.27H607.146V133.374H596.094V134.58H605.706V137.082H596.13V142.068H598.398V145.128H594.294V146.334H608.964V145.128H605.004Z" fill="black"/>
<path d="M269.619 20V10.8301H267.949V9.43359H269.619V8.34961C269.619 7.2168 269.922 6.34115 270.527 5.72266C271.133 5.10417 271.989 4.79492 273.096 4.79492C273.512 4.79492 273.926 4.85026 274.336 4.96094L274.238 6.42578C273.932 6.36719 273.607 6.33789 273.262 6.33789C272.676 6.33789 272.223 6.51042 271.904 6.85547C271.585 7.19401 271.426 7.68229 271.426 8.32031V9.43359H273.682V10.8301H271.426V20H269.619ZM282.207 20C282.103 19.7917 282.018 19.4206 281.953 18.8867C281.113 19.7591 280.111 20.1953 278.945 20.1953C277.904 20.1953 277.048 19.9023 276.377 19.3164C275.713 18.724 275.381 17.9753 275.381 17.0703C275.381 15.9701 275.798 15.1172 276.631 14.5117C277.471 13.8997 278.649 13.5938 280.166 13.5938H281.924V12.7637C281.924 12.1322 281.735 11.6309 281.357 11.2598C280.98 10.8822 280.423 10.6934 279.688 10.6934C279.043 10.6934 278.503 10.8561 278.066 11.1816C277.63 11.5072 277.412 11.901 277.412 12.3633H275.596C275.596 11.8359 275.781 11.3281 276.152 10.8398C276.53 10.3451 277.038 9.95443 277.676 9.66797C278.32 9.38151 279.027 9.23828 279.795 9.23828C281.012 9.23828 281.966 9.54427 282.656 10.1562C283.346 10.7617 283.704 11.5983 283.73 12.666V17.5293C283.73 18.4993 283.854 19.2708 284.102 19.8438V20H282.207ZM279.209 18.623C279.775 18.623 280.312 18.4766 280.82 18.1836C281.328 17.8906 281.696 17.5098 281.924 17.041V14.873H280.508C278.294 14.873 277.188 15.5208 277.188 16.8164C277.188 17.3828 277.376 17.8255 277.754 18.1445C278.132 18.4635 278.617 18.623 279.209 18.623ZM288.525 20H286.719V5H288.525V20ZM293.389 20H291.582V5H293.389V20ZM305.234 14.834C305.234 16.4486 304.863 17.7474 304.121 18.7305C303.379 19.707 302.383 20.1953 301.133 20.1953C299.798 20.1953 298.766 19.7233 298.037 18.7793L297.949 20H296.289V5H298.096V10.5957C298.825 9.69076 299.831 9.23828 301.113 9.23828C302.396 9.23828 303.402 9.72331 304.131 10.6934C304.867 11.6634 305.234 12.9915 305.234 14.6777V14.834ZM303.428 14.6289C303.428 13.3984 303.19 12.4479 302.715 11.7773C302.24 11.1068 301.556 10.7715 300.664 10.7715C299.473 10.7715 298.617 11.3249 298.096 12.4316V17.002C298.649 18.1087 299.512 18.6621 300.684 18.6621C301.549 18.6621 302.223 18.3268 302.705 17.6562C303.187 16.9857 303.428 15.9766 303.428 14.6289ZM314.043 20C313.939 19.7917 313.854 19.4206 313.789 18.8867C312.949 19.7591 311.947 20.1953 310.781 20.1953C309.74 20.1953 308.883 19.9023 308.213 19.3164C307.549 18.724 307.217 17.9753 307.217 17.0703C307.217 15.9701 307.633 15.1172 308.467 14.5117C309.307 13.8997 310.485 13.5938 312.002 13.5938H313.76V12.7637C313.76 12.1322 313.571 11.6309 313.193 11.2598C312.816 10.8822 312.259 10.6934 311.523 10.6934C310.879 10.6934 310.339 10.8561 309.902 11.1816C309.466 11.5072 309.248 11.901 309.248 12.3633H307.432C307.432 11.8359 307.617 11.3281 307.988 10.8398C308.366 10.3451 308.874 9.95443 309.512 9.66797C310.156 9.38151 310.863 9.23828 311.631 9.23828C312.848 9.23828 313.802 9.54427 314.492 10.1562C315.182 10.7617 315.54 11.5983 315.566 12.666V17.5293C315.566 18.4993 315.69 19.2708 315.938 19.8438V20H314.043ZM311.045 18.623C311.611 18.623 312.148 18.4766 312.656 18.1836C313.164 17.8906 313.532 17.5098 313.76 17.041V14.873H312.344C310.13 14.873 309.023 15.5208 309.023 16.8164C309.023 17.3828 309.212 17.8255 309.59 18.1445C309.967 18.4635 310.452 18.623 311.045 18.623ZM322.637 18.7207C323.281 18.7207 323.844 18.5254 324.326 18.1348C324.808 17.7441 325.075 17.2559 325.127 16.6699H326.836C326.803 17.2754 326.595 17.8516 326.211 18.3984C325.827 18.9453 325.312 19.3815 324.668 19.707C324.03 20.0326 323.353 20.1953 322.637 20.1953C321.198 20.1953 320.052 19.7168 319.199 18.7598C318.353 17.7962 317.93 16.4811 317.93 14.8145V14.5117C317.93 13.4831 318.118 12.5684 318.496 11.7676C318.874 10.9668 319.414 10.3451 320.117 9.90234C320.827 9.45964 321.663 9.23828 322.627 9.23828C323.812 9.23828 324.795 9.5931 325.576 10.3027C326.364 11.0124 326.784 11.9336 326.836 13.0664H325.127C325.075 12.3828 324.814 11.8229 324.346 11.3867C323.883 10.944 323.311 10.7227 322.627 10.7227C321.709 10.7227 320.996 11.0547 320.488 11.7188C319.987 12.3763 319.736 13.3301 319.736 14.5801V14.9219C319.736 16.1393 319.987 17.0768 320.488 17.7344C320.99 18.3919 321.706 18.7207 322.637 18.7207ZM331.816 15.1074L330.684 16.2891V20H328.877V5H330.684V14.0723L331.65 12.9102L334.941 9.43359H337.139L333.027 13.8477L337.617 20H335.498L331.816 15.1074Z" fill="#F79D30"/>
<path d="M601.816 17.5098L603.848 9.43359H605.654L602.578 20H601.113L598.545 11.9922L596.045 20H594.58L591.514 9.43359H593.311L595.391 17.3438L597.852 9.43359H599.307L601.816 17.5098ZM611.885 20.1953C610.452 20.1953 609.287 19.7266 608.389 18.7891C607.49 17.8451 607.041 16.5853 607.041 15.0098V14.6777C607.041 13.6296 607.24 12.6953 607.637 11.875C608.04 11.0482 608.6 10.4036 609.316 9.94141C610.039 9.47266 610.82 9.23828 611.66 9.23828C613.034 9.23828 614.102 9.69076 614.863 10.5957C615.625 11.5007 616.006 12.7962 616.006 14.4824V15.2344H608.848C608.874 16.276 609.176 17.1191 609.756 17.7637C610.342 18.4017 611.084 18.7207 611.982 18.7207C612.62 18.7207 613.161 18.5905 613.604 18.3301C614.046 18.0697 614.434 17.7246 614.766 17.2949L615.869 18.1543C614.984 19.515 613.656 20.1953 611.885 20.1953ZM611.66 10.7227C610.931 10.7227 610.319 10.9896 609.824 11.5234C609.329 12.0508 609.023 12.793 608.906 13.75H614.199V13.6133C614.147 12.6953 613.9 11.9857 613.457 11.4844C613.014 10.9766 612.415 10.7227 611.66 10.7227ZM627.051 14.834C627.051 16.4486 626.68 17.7474 625.938 18.7305C625.195 19.707 624.199 20.1953 622.949 20.1953C621.615 20.1953 620.583 19.7233 619.854 18.7793L619.766 20H618.105V5H619.912V10.5957C620.641 9.69076 621.647 9.23828 622.93 9.23828C624.212 9.23828 625.218 9.72331 625.947 10.6934C626.683 11.6634 627.051 12.9915 627.051 14.6777V14.834ZM625.244 14.6289C625.244 13.3984 625.007 12.4479 624.531 11.7773C624.056 11.1068 623.372 10.7715 622.48 10.7715C621.289 10.7715 620.433 11.3249 619.912 12.4316V17.002C620.465 18.1087 621.328 18.6621 622.5 18.6621C623.366 18.6621 624.04 18.3268 624.521 17.6562C625.003 16.9857 625.244 15.9766 625.244 14.6289ZM630.225 20V10.8301H628.555V9.43359H630.225V8.34961C630.225 7.2168 630.527 6.34115 631.133 5.72266C631.738 5.10417 632.594 4.79492 633.701 4.79492C634.118 4.79492 634.531 4.85026 634.941 4.96094L634.844 6.42578C634.538 6.36719 634.212 6.33789 633.867 6.33789C633.281 6.33789 632.829 6.51042 632.51 6.85547C632.191 7.19401 632.031 7.68229 632.031 8.32031V9.43359H634.287V10.8301H632.031V20H630.225ZM635.811 14.6191C635.811 13.584 636.012 12.653 636.416 11.8262C636.826 10.9993 637.393 10.3613 638.115 9.91211C638.844 9.46289 639.674 9.23828 640.605 9.23828C642.044 9.23828 643.206 9.73633 644.092 10.7324C644.984 11.7285 645.43 13.0534 645.43 14.707V14.834C645.43 15.8626 645.231 16.7871 644.834 17.6074C644.443 18.4212 643.88 19.056 643.145 19.5117C642.415 19.9674 641.576 20.1953 640.625 20.1953C639.193 20.1953 638.031 19.6973 637.139 18.7012C636.253 17.7051 635.811 16.3867 635.811 14.7461V14.6191ZM637.627 14.834C637.627 16.0059 637.897 16.9466 638.438 17.6562C638.984 18.3659 639.714 18.7207 640.625 18.7207C641.543 18.7207 642.272 18.3626 642.812 17.6465C643.353 16.9238 643.623 15.9147 643.623 14.6191C643.623 13.4603 643.346 12.5228 642.793 11.8066C642.246 11.084 641.517 10.7227 640.605 10.7227C639.714 10.7227 638.994 11.0775 638.447 11.7871C637.9 12.4967 637.627 13.5124 637.627 14.834ZM649.404 9.43359L649.463 10.7617C650.27 9.74609 651.325 9.23828 652.627 9.23828C654.86 9.23828 655.986 10.498 656.006 13.0176V20H654.199V13.0078C654.193 12.2461 654.017 11.6829 653.672 11.3184C653.333 10.9538 652.803 10.7715 652.08 10.7715C651.494 10.7715 650.98 10.9277 650.537 11.2402C650.094 11.5527 649.749 11.9629 649.502 12.4707V20H647.695V9.43359H649.404ZM661.182 6.875V9.43359H663.154V10.8301H661.182V17.3828C661.182 17.806 661.27 18.125 661.445 18.3398C661.621 18.5482 661.921 18.6523 662.344 18.6523C662.552 18.6523 662.839 18.6133 663.203 18.5352V20C662.728 20.1302 662.266 20.1953 661.816 20.1953C661.009 20.1953 660.4 19.9512 659.99 19.4629C659.58 18.9746 659.375 18.2812 659.375 17.3828V10.8301H657.451V9.43359H659.375V6.875H661.182Z" fill="#1E73FF"/>
</svg>
