<svg width="1406" height="561" viewBox="0 0 1406 561" fill="none" xmlns="http://www.w3.org/2000/svg">
<rect width="1406" height="561" fill="#EEEEEE"/>
<path d="M66.7153 208.347C66.7153 204.842 69.5441 202 73.0336 202H101.223C104.712 202 107.541 204.842 107.541 208.347V278.653C107.541 282.158 104.712 285 101.223 285H73.0336C69.5441 285 66.7153 282.158 66.7153 278.653V208.347Z" fill="black"/>
<path fill-rule="evenodd" clip-rule="evenodd" d="M73.0337 204.441C70.8863 204.441 69.1455 206.19 69.1455 208.347V278.653C69.1455 280.81 70.8863 282.559 73.0337 282.559H101.223C103.37 282.559 105.111 280.81 105.111 278.653V208.347C105.111 206.19 103.37 204.441 101.223 204.441H98.0635C97.6672 204.441 97.3447 204.765 97.3347 205.169V205.906C97.3347 206.715 96.6819 207.371 95.8767 207.371H78.8659C78.0607 207.371 77.4079 206.715 77.4079 205.906V205.169C77.3979 204.765 77.0754 204.441 76.6791 204.441H73.0337Z" fill="#80CFFF"/>
<path fill-rule="evenodd" clip-rule="evenodd" d="M107.541 245.711V208.347C107.541 204.842 104.712 202 101.223 202H83.2534L107.541 245.711Z" fill="url(#paint0_linear)"/>
<path d="M206.347 264C202.842 264 200 261.159 200 257.655L200 229.345C200 225.841 202.842 223 206.347 223L276.653 223C280.158 223 283 225.841 283 229.345L283 257.655C283 261.159 280.158 264 276.653 264L206.347 264Z" fill="black"/>
<path fill-rule="evenodd" clip-rule="evenodd" d="M202.441 257.655C202.441 259.811 204.19 261.56 206.347 261.56L276.653 261.56C278.81 261.56 280.559 259.811 280.559 257.655L280.559 229.345C280.559 227.189 278.81 225.441 276.653 225.441L206.347 225.441C204.19 225.441 202.441 227.189 202.441 229.345L202.441 232.518C202.441 232.916 202.766 233.24 203.169 233.25L203.906 233.25C204.715 233.25 205.371 233.906 205.371 234.714L205.371 251.798C205.371 252.606 204.715 253.262 203.906 253.262L203.169 253.262C202.766 253.272 202.441 253.596 202.441 253.994L202.441 257.655Z" fill="#80CFFF"/>
<path fill-rule="evenodd" clip-rule="evenodd" d="M256.286 264L232.438 223L276.653 223C280.158 223 283 225.841 283 229.345V257.655C283 261.159 280.158 264 276.653 264H256.286Z" fill="url(#paint1_linear)"/>
<path d="M306.691 176.947C306.691 172.558 310.225 169 314.584 169H405.344C409.703 169 413.237 172.558 413.237 176.947V310.053C413.237 314.442 409.703 318 405.344 318H314.584C310.225 318 306.691 314.442 306.691 310.053V176.947Z" fill="black"/>
<path d="M311.624 176.947C311.624 175.301 312.949 173.967 314.584 173.967H405.344C406.979 173.967 408.304 175.301 408.304 176.947V310.053C408.304 311.699 406.979 313.033 405.344 313.033H314.584C312.949 313.033 311.624 311.699 311.624 310.053V176.947Z" fill="#F79D30"/>
<path fill-rule="evenodd" clip-rule="evenodd" d="M412.079 314.198C412.813 312.991 413.237 311.572 413.237 310.053V176.947C413.237 172.558 409.703 169 405.344 169H333.103L412.079 314.198Z" fill="url(#paint2_linear)"/>
<path d="M513.893 296C509.534 296 506 292.485 506 288.148L506 197.852C506 193.515 509.534 190 513.893 190L646.107 190C650.466 190 654 193.515 654 197.852L654 288.148C654 292.485 650.466 296 646.107 296L513.893 296Z" fill="black"/>
<path d="M513.893 291.093C512.258 291.093 510.933 289.774 510.933 288.148L510.933 197.852C510.933 196.226 512.258 194.907 513.893 194.907L646.106 194.907C647.741 194.907 649.066 196.226 649.066 197.852L649.066 288.148C649.066 289.774 647.741 291.093 646.106 291.093L513.893 291.093Z" fill="#F79D30"/>
<path fill-rule="evenodd" clip-rule="evenodd" d="M623.648 296L564.697 190H646.107C650.466 190 654 193.515 654 197.852V288.148C654 292.485 650.466 296 646.107 296H623.648Z" fill="url(#paint3_linear)"/>
<path d="M689.919 174.534C689.919 170.373 693.279 167 697.425 167H895.575C899.721 167 903.081 170.373 903.081 174.534V312.863H689.919V174.534Z" fill="black"/>
<path d="M689.919 174.534C689.919 170.373 693.279 167 697.425 167H895.575C899.721 167 903.081 170.373 903.081 174.534V312.863H689.919V174.534Z" fill="black"/>
<rect x="697.125" y="175.438" width="198.751" height="127.781" fill="#52D9B1"/>
<path fill-rule="evenodd" clip-rule="evenodd" d="M928 310.151H665V316.827C666.966 318.186 672.119 320.872 677.309 320.996V321H677.678H915.09V320.998C915.165 320.999 915.243 321 915.322 321C920.634 321 925.988 318.218 928 316.827V310.151ZM915.09 316.976C915.168 316.925 915.245 316.875 915.322 316.827H915.09V316.976Z" fill="#AAAAAA"/>
<path fill-rule="evenodd" clip-rule="evenodd" d="M874.615 312.863L758.9 167H895.576C899.721 167 903.081 170.373 903.081 174.534V312.863H874.615Z" fill="url(#paint4_linear)"/>
<path fill-rule="evenodd" clip-rule="evenodd" d="M1148.38 354.985C1150.06 353.647 1151.45 335.62 1151.94 326.774H1165.37H1168.29H1199.93H1205.76H1216.28C1216.76 335.62 1218.16 353.647 1219.84 354.985C1221.51 356.322 1228.92 357.353 1232.41 357.701V360H1205.76H1199.93H1168.29H1165.37H1135.81V357.701C1139.3 357.353 1146.7 356.322 1148.38 354.985Z" fill="#CCCCCC"/>
<path d="M1021 135.299C1021 130.715 1025.33 127 1030.67 127H1337.33C1342.67 127 1347 130.715 1347 135.299V302.929H1021V135.299Z" fill="#222222"/>
<path d="M1021 320.957C1021 325.588 1025.33 329.342 1030.67 329.342H1337.33C1342.67 329.342 1347 325.588 1347 320.957V302.929H1021V320.957Z" fill="#AAAAAA"/>
<rect x="1032.34" y="138.32" width="303.322" height="153.761" fill="#3F67AF"/>
<path fill-rule="evenodd" clip-rule="evenodd" d="M1292.48 302.929H1347V135.299C1347 130.715 1342.67 127 1337.33 127H1142.2L1292.48 302.929ZM1315.04 329.342H1337.33C1342.67 329.342 1347 325.588 1347 320.957V302.929L1292.48 302.929L1315.04 329.342Z" fill="url(#paint5_linear)"/>
<path d="M58.126 397.182C58.126 400.131 57.5156 402.387 56.2949 403.949C55.0742 405.512 53.2871 406.293 50.9336 406.293C48.6094 406.293 46.832 405.526 45.6016 403.993C44.3711 402.46 43.7412 400.263 43.7119 397.401V393.476C43.7119 390.497 44.3271 388.236 45.5576 386.693C46.7979 385.15 48.5801 384.379 50.9043 384.379C53.2285 384.379 55.0059 385.146 56.2363 386.679C57.4668 388.202 58.0967 390.395 58.126 393.256V397.182ZM53.8926 392.875C53.8926 391.107 53.6484 389.823 53.1602 389.022C52.6816 388.212 51.9297 387.807 50.9043 387.807C49.9082 387.807 49.1709 388.192 48.6924 388.964C48.2236 389.726 47.9746 390.922 47.9453 392.553V397.738C47.9453 399.477 48.1797 400.771 48.6484 401.62C49.127 402.46 49.8887 402.88 50.9336 402.88C51.9688 402.88 52.7158 402.475 53.1748 401.664C53.6338 400.854 53.873 399.613 53.8926 397.943V392.875ZM77.4326 394.384C77.4326 396.2 76.9785 397.675 76.0703 398.808C75.1621 399.94 73.9902 400.507 72.5547 400.507C71.832 400.507 71.1582 400.37 70.5332 400.097C69.918 399.813 69.2051 399.286 68.3945 398.515C67.584 397.733 66.8369 397.343 66.1533 397.343C65.5869 397.343 65.1279 397.587 64.7764 398.075C64.4248 398.563 64.249 399.188 64.249 399.95L61.0996 399.921C61.0996 398.104 61.5391 396.645 62.418 395.541C63.3066 394.438 64.4834 393.886 65.9482 393.886C66.71 393.886 67.4033 394.032 68.0283 394.325C68.6533 394.618 69.3613 395.146 70.1523 395.907C70.9531 396.659 71.6807 397.035 72.335 397.035C72.9111 397.035 73.3799 396.776 73.7412 396.259C74.1123 395.741 74.2979 395.111 74.2979 394.369L77.4326 394.384ZM92.9746 397.973H95.3916V401.386H92.9746V406H88.7412V401.386H79.9961L79.8057 398.72L88.6973 384.672H92.9746V397.973ZM84.0244 397.973H88.7412V390.443L88.4629 390.927L84.0244 397.973ZM111.578 390.341C111.578 391.376 111.319 392.294 110.802 393.095C110.284 393.896 109.571 394.535 108.663 395.014C109.698 395.512 110.519 396.2 111.124 397.079C111.729 397.948 112.032 398.974 112.032 400.155C112.032 402.05 111.388 403.549 110.099 404.652C108.81 405.746 107.057 406.293 104.84 406.293C102.623 406.293 100.865 405.741 99.5664 404.638C98.2676 403.534 97.6182 402.04 97.6182 400.155C97.6182 398.974 97.9209 397.943 98.5264 397.064C99.1318 396.186 99.9473 395.502 100.973 395.014C100.064 394.535 99.3516 393.896 98.834 393.095C98.3262 392.294 98.0723 391.376 98.0723 390.341C98.0723 388.524 98.6777 387.079 99.8887 386.005C101.1 384.921 102.745 384.379 104.825 384.379C106.896 384.379 108.536 384.916 109.747 385.99C110.968 387.055 111.578 388.505 111.578 390.341ZM107.784 399.848C107.784 398.92 107.516 398.178 106.979 397.621C106.441 397.064 105.719 396.786 104.811 396.786C103.912 396.786 103.194 397.064 102.657 397.621C102.12 398.168 101.852 398.91 101.852 399.848C101.852 400.756 102.115 401.488 102.643 402.045C103.17 402.602 103.902 402.88 104.84 402.88C105.758 402.88 106.476 402.611 106.993 402.074C107.521 401.537 107.784 400.795 107.784 399.848ZM107.345 390.546C107.345 389.716 107.125 389.052 106.686 388.554C106.246 388.046 105.626 387.792 104.825 387.792C104.034 387.792 103.419 388.036 102.979 388.524C102.54 389.013 102.32 389.687 102.32 390.546C102.32 391.396 102.54 392.079 102.979 392.597C103.419 393.114 104.039 393.373 104.84 393.373C105.641 393.373 106.256 393.114 106.686 392.597C107.125 392.079 107.345 391.396 107.345 390.546ZM129.259 397.182C129.259 400.131 128.648 402.387 127.428 403.949C126.207 405.512 124.42 406.293 122.066 406.293C119.742 406.293 117.965 405.526 116.734 403.993C115.504 402.46 114.874 400.263 114.845 397.401V393.476C114.845 390.497 115.46 388.236 116.69 386.693C117.931 385.15 119.713 384.379 122.037 384.379C124.361 384.379 126.139 385.146 127.369 386.679C128.6 388.202 129.229 390.395 129.259 393.256V397.182ZM125.025 392.875C125.025 391.107 124.781 389.823 124.293 389.022C123.814 388.212 123.062 387.807 122.037 387.807C121.041 387.807 120.304 388.192 119.825 388.964C119.356 389.726 119.107 390.922 119.078 392.553V397.738C119.078 399.477 119.312 400.771 119.781 401.62C120.26 402.46 121.021 402.88 122.066 402.88C123.102 402.88 123.849 402.475 124.308 401.664C124.767 400.854 125.006 399.613 125.025 397.943V392.875Z" fill="#1E73FF"/>
<path d="M255.068 397.973H257.485V401.386H255.068V406H250.835V401.386H242.09L241.899 398.72L250.791 384.672H255.068V397.973ZM246.118 397.973H250.835V390.443L250.557 390.927L246.118 397.973ZM273.672 390.341C273.672 391.376 273.413 392.294 272.896 393.095C272.378 393.896 271.665 394.535 270.757 395.014C271.792 395.512 272.612 396.2 273.218 397.079C273.823 397.948 274.126 398.974 274.126 400.155C274.126 402.05 273.481 403.549 272.192 404.652C270.903 405.746 269.15 406.293 266.934 406.293C264.717 406.293 262.959 405.741 261.66 404.638C260.361 403.534 259.712 402.04 259.712 400.155C259.712 398.974 260.015 397.943 260.62 397.064C261.226 396.186 262.041 395.502 263.066 395.014C262.158 394.535 261.445 393.896 260.928 393.095C260.42 392.294 260.166 391.376 260.166 390.341C260.166 388.524 260.771 387.079 261.982 386.005C263.193 384.921 264.839 384.379 266.919 384.379C268.989 384.379 270.63 384.916 271.841 385.99C273.062 387.055 273.672 388.505 273.672 390.341ZM269.878 399.848C269.878 398.92 269.609 398.178 269.072 397.621C268.535 397.064 267.812 396.786 266.904 396.786C266.006 396.786 265.288 397.064 264.751 397.621C264.214 398.168 263.945 398.91 263.945 399.848C263.945 400.756 264.209 401.488 264.736 402.045C265.264 402.602 265.996 402.88 266.934 402.88C267.852 402.88 268.569 402.611 269.087 402.074C269.614 401.537 269.878 400.795 269.878 399.848ZM269.438 390.546C269.438 389.716 269.219 389.052 268.779 388.554C268.34 388.046 267.72 387.792 266.919 387.792C266.128 387.792 265.513 388.036 265.073 388.524C264.634 389.013 264.414 389.687 264.414 390.546C264.414 391.396 264.634 392.079 265.073 392.597C265.513 393.114 266.133 393.373 266.934 393.373C267.734 393.373 268.35 393.114 268.779 392.597C269.219 392.079 269.438 391.396 269.438 390.546ZM287.28 406H283.047V389.682L277.993 391.249V387.807L286.826 384.643H287.28V406ZM310.659 394.384C310.659 396.2 310.205 397.675 309.297 398.808C308.389 399.94 307.217 400.507 305.781 400.507C305.059 400.507 304.385 400.37 303.76 400.097C303.145 399.813 302.432 399.286 301.621 398.515C300.811 397.733 300.063 397.343 299.38 397.343C298.813 397.343 298.354 397.587 298.003 398.075C297.651 398.563 297.476 399.188 297.476 399.95L294.326 399.921C294.326 398.104 294.766 396.645 295.645 395.541C296.533 394.438 297.71 393.886 299.175 393.886C299.937 393.886 300.63 394.032 301.255 394.325C301.88 394.618 302.588 395.146 303.379 395.907C304.18 396.659 304.907 397.035 305.562 397.035C306.138 397.035 306.606 396.776 306.968 396.259C307.339 395.741 307.524 395.111 307.524 394.369L310.659 394.384ZM328.179 387.045L319.932 406H315.464L323.726 388.1H313.12V384.672H328.179V387.045ZM342.388 384.452V387.938H341.978C340.063 387.968 338.521 388.466 337.349 389.433C336.187 390.399 335.488 391.742 335.254 393.461C336.387 392.309 337.817 391.732 339.546 391.732C341.401 391.732 342.876 392.396 343.97 393.725C345.063 395.053 345.61 396.801 345.61 398.969C345.61 400.355 345.308 401.61 344.702 402.733C344.106 403.856 343.257 404.73 342.153 405.355C341.06 405.98 339.819 406.293 338.433 406.293C336.187 406.293 334.37 405.512 332.983 403.949C331.606 402.387 330.918 400.302 330.918 397.694V396.171C330.918 393.856 331.353 391.815 332.222 390.048C333.101 388.271 334.355 386.898 335.986 385.932C337.627 384.955 339.526 384.462 341.685 384.452H342.388ZM338.257 395.131C337.573 395.131 336.953 395.312 336.396 395.673C335.84 396.024 335.43 396.493 335.166 397.079V398.368C335.166 399.784 335.444 400.893 336.001 401.693C336.558 402.484 337.339 402.88 338.345 402.88C339.253 402.88 339.985 402.523 340.542 401.811C341.108 401.088 341.392 400.155 341.392 399.013C341.392 397.851 341.108 396.913 340.542 396.2C339.976 395.487 339.214 395.131 338.257 395.131ZM362.031 390.341C362.031 391.376 361.772 392.294 361.255 393.095C360.737 393.896 360.024 394.535 359.116 395.014C360.151 395.512 360.972 396.2 361.577 397.079C362.183 397.948 362.485 398.974 362.485 400.155C362.485 402.05 361.841 403.549 360.552 404.652C359.263 405.746 357.51 406.293 355.293 406.293C353.076 406.293 351.318 405.741 350.02 404.638C348.721 403.534 348.071 402.04 348.071 400.155C348.071 398.974 348.374 397.943 348.979 397.064C349.585 396.186 350.4 395.502 351.426 395.014C350.518 394.535 349.805 393.896 349.287 393.095C348.779 392.294 348.525 391.376 348.525 390.341C348.525 388.524 349.131 387.079 350.342 386.005C351.553 384.921 353.198 384.379 355.278 384.379C357.349 384.379 358.989 384.916 360.2 385.99C361.421 387.055 362.031 388.505 362.031 390.341ZM358.237 399.848C358.237 398.92 357.969 398.178 357.432 397.621C356.895 397.064 356.172 396.786 355.264 396.786C354.365 396.786 353.647 397.064 353.11 397.621C352.573 398.168 352.305 398.91 352.305 399.848C352.305 400.756 352.568 401.488 353.096 402.045C353.623 402.602 354.355 402.88 355.293 402.88C356.211 402.88 356.929 402.611 357.446 402.074C357.974 401.537 358.237 400.795 358.237 399.848ZM357.798 390.546C357.798 389.716 357.578 389.052 357.139 388.554C356.699 388.046 356.079 387.792 355.278 387.792C354.487 387.792 353.872 388.036 353.433 388.524C352.993 389.013 352.773 389.687 352.773 390.546C352.773 391.396 352.993 392.079 353.433 392.597C353.872 393.114 354.492 393.373 355.293 393.373C356.094 393.373 356.709 393.114 357.139 392.597C357.578 392.079 357.798 391.396 357.798 390.546Z" fill="#1E73FF"/>
<path d="M664.433 387.045L656.186 406H651.718L659.979 388.1H649.374V384.672H664.433V387.045ZM678.642 384.452V387.938H678.231C676.317 387.968 674.774 388.466 673.603 389.433C672.44 390.399 671.742 391.742 671.508 393.461C672.641 392.309 674.071 391.732 675.8 391.732C677.655 391.732 679.13 392.396 680.224 393.725C681.317 395.053 681.864 396.801 681.864 398.969C681.864 400.355 681.562 401.61 680.956 402.733C680.36 403.856 679.511 404.73 678.407 405.355C677.313 405.98 676.073 406.293 674.687 406.293C672.44 406.293 670.624 405.512 669.237 403.949C667.86 402.387 667.172 400.302 667.172 397.694V396.171C667.172 393.856 667.606 391.815 668.476 390.048C669.354 388.271 670.609 386.898 672.24 385.932C673.881 384.955 675.78 384.462 677.938 384.452H678.642ZM674.511 395.131C673.827 395.131 673.207 395.312 672.65 395.673C672.094 396.024 671.684 396.493 671.42 397.079V398.368C671.42 399.784 671.698 400.893 672.255 401.693C672.812 402.484 673.593 402.88 674.599 402.88C675.507 402.88 676.239 402.523 676.796 401.811C677.362 401.088 677.646 400.155 677.646 399.013C677.646 397.851 677.362 396.913 676.796 396.2C676.229 395.487 675.468 395.131 674.511 395.131ZM694.286 397.475C693.183 398.559 691.894 399.101 690.419 399.101C688.534 399.101 687.025 398.456 685.893 397.167C684.76 395.868 684.193 394.12 684.193 391.923C684.193 390.526 684.496 389.247 685.102 388.085C685.717 386.913 686.571 386.005 687.665 385.36C688.759 384.706 689.989 384.379 691.356 384.379C692.763 384.379 694.013 384.73 695.106 385.434C696.2 386.137 697.05 387.147 697.655 388.466C698.261 389.784 698.568 391.293 698.578 392.992V394.56C698.578 398.114 697.694 400.907 695.927 402.938C694.159 404.97 691.654 406.054 688.412 406.19L687.372 406.205V402.675L688.31 402.66C691.991 402.494 693.983 400.766 694.286 397.475ZM691.459 395.863C692.143 395.863 692.729 395.688 693.217 395.336C693.715 394.984 694.091 394.56 694.345 394.062V392.318C694.345 390.883 694.071 389.77 693.524 388.979C692.978 388.188 692.245 387.792 691.327 387.792C690.478 387.792 689.779 388.183 689.232 388.964C688.686 389.735 688.412 390.707 688.412 391.879C688.412 393.041 688.676 393.998 689.203 394.75C689.74 395.492 690.492 395.863 691.459 395.863ZM718.046 394.384C718.046 396.2 717.592 397.675 716.684 398.808C715.775 399.94 714.604 400.507 713.168 400.507C712.445 400.507 711.771 400.37 711.146 400.097C710.531 399.813 709.818 399.286 709.008 398.515C708.197 397.733 707.45 397.343 706.767 397.343C706.2 397.343 705.741 397.587 705.39 398.075C705.038 398.563 704.862 399.188 704.862 399.95L701.713 399.921C701.713 398.104 702.152 396.645 703.031 395.541C703.92 394.438 705.097 393.886 706.562 393.886C707.323 393.886 708.017 394.032 708.642 394.325C709.267 394.618 709.975 395.146 710.766 395.907C711.566 396.659 712.294 397.035 712.948 397.035C713.524 397.035 713.993 396.776 714.354 396.259C714.726 395.741 714.911 395.111 714.911 394.369L718.046 394.384ZM731.347 406H727.113V389.682L722.06 391.249V387.807L730.893 384.643H731.347V406ZM752.909 406H738.29V403.1L745.189 395.746C746.137 394.711 746.835 393.808 747.284 393.036C747.743 392.265 747.973 391.532 747.973 390.839C747.973 389.892 747.733 389.149 747.255 388.612C746.776 388.065 746.093 387.792 745.204 387.792C744.247 387.792 743.49 388.124 742.934 388.788C742.387 389.442 742.113 390.307 742.113 391.381H737.865C737.865 390.082 738.173 388.896 738.788 387.821C739.413 386.747 740.292 385.907 741.425 385.302C742.558 384.687 743.842 384.379 745.277 384.379C747.475 384.379 749.179 384.906 750.39 385.961C751.61 387.016 752.221 388.505 752.221 390.429C752.221 391.483 751.947 392.558 751.4 393.651C750.854 394.745 749.916 396.02 748.588 397.475L743.739 402.587H752.909V406ZM770.019 387.045L761.771 406H757.304L765.565 388.1H754.96V384.672H770.019V387.045ZM782.646 397.475C781.542 398.559 780.253 399.101 778.778 399.101C776.894 399.101 775.385 398.456 774.252 397.167C773.119 395.868 772.553 394.12 772.553 391.923C772.553 390.526 772.855 389.247 773.461 388.085C774.076 386.913 774.931 386.005 776.024 385.36C777.118 384.706 778.349 384.379 779.716 384.379C781.122 384.379 782.372 384.73 783.466 385.434C784.56 386.137 785.409 387.147 786.015 388.466C786.62 389.784 786.928 391.293 786.938 392.992V394.56C786.938 398.114 786.054 400.907 784.286 402.938C782.519 404.97 780.014 406.054 776.771 406.19L775.731 406.205V402.675L776.669 402.66C780.351 402.494 782.343 400.766 782.646 397.475ZM779.818 395.863C780.502 395.863 781.088 395.688 781.576 395.336C782.074 394.984 782.45 394.56 782.704 394.062V392.318C782.704 390.883 782.431 389.77 781.884 388.979C781.337 388.188 780.604 387.792 779.687 387.792C778.837 387.792 778.139 388.183 777.592 388.964C777.045 389.735 776.771 390.707 776.771 391.879C776.771 393.041 777.035 393.998 777.562 394.75C778.1 395.492 778.852 395.863 779.818 395.863Z" fill="#1E73FF"/>
<path d="M1153.09 406H1148.86V389.682L1143.8 391.249V387.807L1152.64 384.643H1153.09V406ZM1174.65 406H1160.04V403.1L1166.93 395.746C1167.88 394.711 1168.58 393.808 1169.03 393.036C1169.49 392.265 1169.72 391.532 1169.72 390.839C1169.72 389.892 1169.48 389.149 1169 388.612C1168.52 388.065 1167.84 387.792 1166.95 387.792C1165.99 387.792 1165.24 388.124 1164.68 388.788C1164.13 389.442 1163.86 390.307 1163.86 391.381H1159.61C1159.61 390.082 1159.92 388.896 1160.53 387.821C1161.16 386.747 1162.04 385.907 1163.17 385.302C1164.3 384.687 1165.59 384.379 1167.02 384.379C1169.22 384.379 1170.92 384.906 1172.13 385.961C1173.36 387.016 1173.97 388.505 1173.97 390.429C1173.97 391.483 1173.69 392.558 1173.15 393.651C1172.6 394.745 1171.66 396.02 1170.33 397.475L1165.48 402.587H1174.65V406ZM1191.16 390.341C1191.16 391.376 1190.9 392.294 1190.39 393.095C1189.87 393.896 1189.16 394.535 1188.25 395.014C1189.28 395.512 1190.1 396.2 1190.71 397.079C1191.31 397.948 1191.62 398.974 1191.62 400.155C1191.62 402.05 1190.97 403.549 1189.68 404.652C1188.39 405.746 1186.64 406.293 1184.42 406.293C1182.21 406.293 1180.45 405.741 1179.15 404.638C1177.85 403.534 1177.2 402.04 1177.2 400.155C1177.2 398.974 1177.51 397.943 1178.11 397.064C1178.72 396.186 1179.53 395.502 1180.56 395.014C1179.65 394.535 1178.94 393.896 1178.42 393.095C1177.91 392.294 1177.66 391.376 1177.66 390.341C1177.66 388.524 1178.26 387.079 1179.47 386.005C1180.68 384.921 1182.33 384.379 1184.41 384.379C1186.48 384.379 1188.12 384.916 1189.33 385.99C1190.55 387.055 1191.16 388.505 1191.16 390.341ZM1187.37 399.848C1187.37 398.92 1187.1 398.178 1186.56 397.621C1186.03 397.064 1185.3 396.786 1184.4 396.786C1183.5 396.786 1182.78 397.064 1182.24 397.621C1181.71 398.168 1181.44 398.91 1181.44 399.848C1181.44 400.756 1181.7 401.488 1182.23 402.045C1182.75 402.602 1183.49 402.88 1184.42 402.88C1185.34 402.88 1186.06 402.611 1186.58 402.074C1187.11 401.537 1187.37 400.795 1187.37 399.848ZM1186.93 390.546C1186.93 389.716 1186.71 389.052 1186.27 388.554C1185.83 388.046 1185.21 387.792 1184.41 387.792C1183.62 387.792 1183 388.036 1182.56 388.524C1182.12 389.013 1181.91 389.687 1181.91 390.546C1181.91 391.396 1182.12 392.079 1182.56 392.597C1183 393.114 1183.62 393.373 1184.42 393.373C1185.23 393.373 1185.84 393.114 1186.27 392.597C1186.71 392.079 1186.93 391.396 1186.93 390.546ZM1208.84 397.182C1208.84 400.131 1208.23 402.387 1207.01 403.949C1205.79 405.512 1204 406.293 1201.65 406.293C1199.33 406.293 1197.55 405.526 1196.32 403.993C1195.09 402.46 1194.46 400.263 1194.43 397.401V393.476C1194.43 390.497 1195.04 388.236 1196.28 386.693C1197.52 385.15 1199.3 384.379 1201.62 384.379C1203.95 384.379 1205.72 385.146 1206.95 386.679C1208.18 388.202 1208.81 390.395 1208.84 393.256V397.182ZM1204.61 392.875C1204.61 391.107 1204.37 389.823 1203.88 389.022C1203.4 388.212 1202.65 387.807 1201.62 387.807C1200.63 387.807 1199.89 388.192 1199.41 388.964C1198.94 389.726 1198.69 390.922 1198.66 392.553V397.738C1198.66 399.477 1198.9 400.771 1199.37 401.62C1199.84 402.46 1200.61 402.88 1201.65 402.88C1202.69 402.88 1203.43 402.475 1203.89 401.664C1204.35 400.854 1204.59 399.613 1204.61 397.943V392.875ZM1220.43 394.062H1225.72V397.885H1220.43V403.861H1216.4V397.885H1211.1V394.062H1216.4V388.334H1220.43V394.062Z" fill="#1E73FF"/>
<rect x="161" y="127" width="2" height="389" fill="white"/>
<rect x="459" y="127" width="2" height="389" fill="white"/>
<rect x="970" y="127" width="2" height="389" fill="white"/>
<path d="M62.7231 452.56C59.5831 451.96 56.1831 449.24 56.1831 446.18V444.8H54.4631V446.18C54.4631 449.24 51.0831 451.94 47.9431 452.56L48.6831 453.92C51.3831 453.28 54.1831 451.36 55.3231 448.74C56.4631 451.38 59.2631 453.3 61.9831 453.92L62.7231 452.56ZM47.2631 457.72V459.08H63.5231V457.72H47.2631ZM67.9816 446.66H73.0016V455.6H67.9816V446.66ZM66.3816 456.92H74.6016V445.34H66.3816V456.92ZM82.4216 450.7H79.4616V443.56H77.8216V461.48H79.4616V452.08H82.4216V450.7ZM98.46 453.22H87.8V450.38H97.88V449.08H87.8V446.42H98.28V445.1H86.14V454.54H98.46V453.22ZM84.04 457.82V459.16H100.32V457.82H84.04ZM106.178 456.16H104.538V461.08H116.878V459.74H106.178V456.16ZM108.318 445.68H112.778V449.76H108.318V445.68ZM111.398 453.26V451.08H117.058V449.76H114.418V445.68H117.118V444.36H103.958V445.68H106.678V449.76H104.018V451.08H109.758V453.26H102.438V454.58H118.658V453.26H111.398Z" fill="black"/>
<path d="M199.811 452.56C196.671 451.96 193.271 449.24 193.271 446.18V444.8H191.551V446.18C191.551 449.24 188.171 451.94 185.031 452.56L185.771 453.92C188.471 453.28 191.271 451.36 192.411 448.74C193.551 451.38 196.351 453.3 199.071 453.92L199.811 452.56ZM184.351 457.72V459.08H200.611V457.72H184.351ZM205.069 446.66H210.089V455.6H205.069V446.66ZM203.469 456.92H211.689V445.34H203.469V456.92ZM219.509 450.7H216.549V443.56H214.909V461.48H216.549V452.08H219.509V450.7ZM235.548 453.22H224.888V450.38H234.968V449.08H224.888V446.42H235.368V445.1H223.228V454.54H235.548V453.22ZM221.128 457.82V459.16H237.408V457.82H221.128ZM243.266 456.16H241.626V461.08H253.966V459.74H243.266V456.16ZM245.406 445.68H249.866V449.76H245.406V445.68ZM248.486 453.26V451.08H254.146V449.76H251.506V445.68H254.206V444.36H241.046V445.68H243.766V449.76H241.106V451.08H246.846V453.26H239.526V454.58H255.746V453.26H248.486ZM258.184 454.229C258.184 452.757 258.379 451.344 258.77 449.99C259.167 448.636 259.756 447.406 260.537 446.299C261.318 445.192 262.129 444.411 262.969 443.955L263.34 445.146C262.389 445.876 261.608 446.989 260.996 448.486C260.391 449.984 260.059 451.66 260 453.516L259.99 454.346C259.99 456.859 260.449 459.04 261.367 460.889C261.921 461.995 262.578 462.861 263.34 463.486L262.969 464.59C262.103 464.108 261.276 463.301 260.488 462.168C258.952 459.954 258.184 457.308 258.184 454.229ZM265.741 445.46V446.82H272.321C271.941 451.06 269.481 454.5 264.901 456.8L265.801 458.08C271.601 455.18 273.941 450.56 273.941 445.46H265.741ZM281.461 450.82H278.581V443.54H276.941V461.48H278.581V452.18H281.461V450.82ZM292.119 457.92V454.54H297.859V453.22H286.819V450.32H297.439V444.86H285.159V446.2H295.839V449H285.199V454.54H290.459V457.92H283.159V459.26H299.459V457.92H292.119ZM305.078 446.34H314.258V452.16H305.078V446.34ZM310.518 457.82V453.46H315.858V445.04H303.498V453.46H308.858V457.82H301.578V459.18H317.838V457.82H310.518ZM334.356 452.14H323.656V446.54H334.176V445.18H322.036V453.48H334.356V452.14ZM319.956 457.7V459.06H336.236V457.7H319.956ZM338.623 462.832L337.598 462.129C338.21 461.276 338.529 460.397 338.555 459.492V457.861H340.322V459.277C340.322 459.935 340.16 460.592 339.834 461.25C339.515 461.908 339.111 462.435 338.623 462.832ZM350.941 455.48H349.301V461.08H361.801V459.74H350.941V455.48ZM360.941 452.38C361.441 449.68 361.441 447.74 361.441 446.04V444.5H349.321V445.82H359.821V446.04C359.821 446.66 359.821 447.34 359.781 448.08L348.881 448.44L349.101 449.78L359.721 449.3C359.641 450.22 359.521 451.24 359.281 452.38H347.241V453.72H363.541V452.38H360.941ZM376.641 445.1H375.021V448.32C375.021 451.58 372.981 455.02 370.401 456.34L371.381 457.66C373.401 456.58 375.061 454.34 375.841 451.72C376.661 454.18 378.281 456.28 380.181 457.3L381.201 456C378.681 454.74 376.641 451.48 376.641 448.32V445.1ZM387.381 450.82H384.421V443.56H382.781V461.48H384.421V452.18H387.381V450.82ZM402.059 443.54V461.52H403.699V443.54H402.059ZM394.239 444.92C391.579 444.92 389.679 447.36 389.679 451.18C389.679 455 391.579 457.44 394.239 457.44C396.899 457.44 398.799 455 398.799 451.18C398.799 447.36 396.899 444.92 394.239 444.92ZM394.239 446.4C395.979 446.4 397.219 448.28 397.219 451.18C397.219 454.1 395.979 455.98 394.239 455.98C392.479 455.98 391.239 454.1 391.239 451.18C391.239 448.28 392.479 446.4 394.239 446.4ZM408.897 454.62C411.597 454.08 414.417 452.28 415.557 449.8C416.697 452.26 419.557 454.02 422.277 454.58L422.937 453.26C419.817 452.74 416.397 450.28 416.397 447.44V446.66H422.337V445.32H408.757V446.66H414.697V447.44C414.697 450.28 411.297 452.78 408.197 453.32L408.897 454.62ZM407.417 457.74V459.1H423.697V457.74H407.417ZM430.293 454.326C430.293 455.778 430.101 457.171 429.717 458.506C429.339 459.834 428.757 461.061 427.969 462.188C427.188 463.314 426.367 464.115 425.508 464.59L425.127 463.486C426.13 462.718 426.934 461.527 427.539 459.912C428.151 458.291 428.464 456.494 428.477 454.521V454.209C428.477 452.842 428.333 451.572 428.047 450.4C427.76 449.222 427.36 448.167 426.846 447.236C426.338 446.305 425.765 445.579 425.127 445.059L425.508 443.955C426.367 444.43 427.184 445.225 427.959 446.338C428.74 447.451 429.323 448.678 429.707 450.02C430.098 451.361 430.293 452.796 430.293 454.326ZM256.885 484.182C256.885 483.498 257.074 482.87 257.451 482.297C257.835 481.724 258.564 481.057 259.639 480.295C259.007 479.527 258.584 478.908 258.369 478.439C258.154 477.971 258.047 477.505 258.047 477.043C258.047 475.962 258.366 475.116 259.004 474.504C259.642 473.892 260.508 473.586 261.602 473.586C262.578 473.586 263.385 473.872 264.023 474.445C264.661 475.012 264.98 475.728 264.98 476.594C264.98 477.167 264.834 477.697 264.541 478.186C264.255 478.667 263.75 479.175 263.027 479.709L261.982 480.48L265.146 484.26C265.589 483.413 265.811 482.473 265.811 481.438H267.441C267.441 483.098 267.041 484.475 266.24 485.568L268.271 488H266.104L265.156 486.877C264.674 487.307 264.108 487.635 263.457 487.863C262.812 488.085 262.155 488.195 261.484 488.195C260.098 488.195 258.984 487.827 258.145 487.092C257.305 486.356 256.885 485.386 256.885 484.182ZM261.484 486.721C262.441 486.721 263.317 486.356 264.111 485.627L260.645 481.477L260.322 481.711C259.235 482.512 258.691 483.335 258.691 484.182C258.691 484.95 258.939 485.565 259.434 486.027C259.935 486.49 260.618 486.721 261.484 486.721ZM259.854 476.984C259.854 477.609 260.238 478.391 261.006 479.328L262.158 478.518C262.601 478.205 262.904 477.909 263.066 477.629C263.229 477.342 263.311 476.997 263.311 476.594C263.311 476.158 263.148 475.796 262.822 475.51C262.497 475.217 262.087 475.07 261.592 475.07C261.058 475.07 260.635 475.253 260.322 475.617C260.01 475.975 259.854 476.431 259.854 476.984ZM276.601 479.84H280.861V478.54H276.601V475.02H281.701V473.68H275.021V485.16H276.181C279.001 485.16 280.681 485.1 282.721 484.7L282.581 483.36C280.681 483.74 279.121 483.82 276.601 483.82V479.84ZM284.421 478.34H281.841V479.68H284.421V488.56H285.961V471.98H284.421V478.34ZM288.021 471.52V489.46H289.581V471.52H288.021ZM305.239 476.52H296.519V474.8H305.239V476.52ZM306.859 471.86H305.239V473.56H296.519V471.86H294.899V477.78H306.859V471.86ZM296.359 486.24H306.899V482.24H294.699V483.48H305.279V485.06H294.759V489.28H307.439V488.02H296.359V486.24ZM292.739 479.3V480.6H308.979V479.3H292.739ZM325.858 471.54H324.218V483.68H325.858V471.54ZM312.098 476.5V481.72H313.538C316.998 481.72 319.378 481.62 322.238 481.12L322.078 479.8C319.318 480.28 316.998 480.38 313.698 480.38V477.76H320.198V472.68H312.038V474.02H318.578V476.5H312.098ZM320.898 482.78H319.218V483.3C319.218 485.82 316.378 487.66 313.178 488.16L313.818 489.42C316.518 488.94 318.998 487.62 320.058 485.56C321.138 487.6 323.578 488.94 326.298 489.42L326.918 488.16C323.698 487.66 320.898 485.8 320.898 483.3V482.78ZM336.982 482.434V488H335.107V473.781H340.352C341.908 473.781 343.125 474.178 344.004 474.973C344.889 475.767 345.332 476.818 345.332 478.127C345.332 479.507 344.899 480.572 344.033 481.32C343.174 482.062 341.94 482.434 340.332 482.434H336.982ZM336.982 480.9H340.352C341.354 480.9 342.122 480.666 342.656 480.197C343.19 479.722 343.457 479.038 343.457 478.146C343.457 477.3 343.19 476.623 342.656 476.115C342.122 475.607 341.39 475.344 340.459 475.324H336.982V480.9ZM358.184 483.488C358.008 484.992 357.451 486.154 356.514 486.975C355.583 487.788 354.342 488.195 352.793 488.195C351.113 488.195 349.766 487.593 348.75 486.389C347.741 485.184 347.236 483.573 347.236 481.555V480.188C347.236 478.866 347.471 477.704 347.939 476.701C348.415 475.699 349.085 474.93 349.951 474.396C350.817 473.856 351.82 473.586 352.959 473.586C354.469 473.586 355.68 474.009 356.592 474.855C357.503 475.695 358.034 476.861 358.184 478.352H356.299C356.136 477.219 355.781 476.398 355.234 475.891C354.694 475.383 353.936 475.129 352.959 475.129C351.761 475.129 350.82 475.572 350.137 476.457C349.46 477.342 349.121 478.602 349.121 480.236V481.613C349.121 483.156 349.443 484.383 350.088 485.295C350.732 486.206 351.634 486.662 352.793 486.662C353.835 486.662 354.632 486.428 355.186 485.959C355.745 485.484 356.117 484.66 356.299 483.488H358.184Z" fill="black"/>
<path d="M592.488 451.84H596.748V450.54H592.488V447.02H597.588V445.68H590.908V457.16H592.068C594.888 457.16 596.568 457.1 598.608 456.7L598.468 455.36C596.568 455.74 595.008 455.82 592.488 455.82V451.84ZM600.308 450.34H597.728V451.68H600.308V460.56H601.848V443.98H600.308V450.34ZM603.908 443.52V461.46H605.468V443.52H603.908ZM621.126 448.52H612.406V446.8H621.126V448.52ZM622.746 443.86H621.126V445.56H612.406V443.86H610.786V449.78H622.746V443.86ZM612.246 458.24H622.786V454.24H610.586V455.48H621.166V457.06H610.646V461.28H623.326V460.02H612.246V458.24ZM608.626 451.3V452.6H624.866V451.3H608.626ZM641.744 443.54H640.104V455.68H641.744V443.54ZM627.984 448.5V453.72H629.424C632.884 453.72 635.264 453.62 638.124 453.12L637.964 451.8C635.204 452.28 632.884 452.38 629.584 452.38V449.76H636.084V444.68H627.924V446.02H634.464V448.5H627.984ZM636.784 454.78H635.104V455.3C635.104 457.82 632.264 459.66 629.064 460.16L629.704 461.42C632.404 460.94 634.884 459.62 635.944 457.56C637.024 459.6 639.464 460.94 642.184 461.42L642.804 460.16C639.584 459.66 636.784 457.8 636.784 455.3V454.78ZM652.869 454.434V460H650.994V445.781H656.238C657.794 445.781 659.012 446.178 659.891 446.973C660.776 447.767 661.219 448.818 661.219 450.127C661.219 451.507 660.786 452.572 659.92 453.32C659.061 454.062 657.827 454.434 656.219 454.434H652.869ZM652.869 452.9H656.238C657.241 452.9 658.009 452.666 658.543 452.197C659.077 451.722 659.344 451.038 659.344 450.146C659.344 449.3 659.077 448.623 658.543 448.115C658.009 447.607 657.277 447.344 656.346 447.324H652.869V452.9ZM674.07 455.488C673.895 456.992 673.338 458.154 672.4 458.975C671.469 459.788 670.229 460.195 668.68 460.195C667 460.195 665.652 459.593 664.637 458.389C663.628 457.184 663.123 455.573 663.123 453.555V452.188C663.123 450.866 663.357 449.704 663.826 448.701C664.301 447.699 664.972 446.93 665.838 446.396C666.704 445.856 667.706 445.586 668.846 445.586C670.356 445.586 671.567 446.009 672.479 446.855C673.39 447.695 673.921 448.861 674.07 450.352H672.186C672.023 449.219 671.668 448.398 671.121 447.891C670.581 447.383 669.822 447.129 668.846 447.129C667.648 447.129 666.707 447.572 666.023 448.457C665.346 449.342 665.008 450.602 665.008 452.236V453.613C665.008 455.156 665.33 456.383 665.975 457.295C666.619 458.206 667.521 458.662 668.68 458.662C669.721 458.662 670.519 458.428 671.072 457.959C671.632 457.484 672.003 456.66 672.186 455.488H674.07ZM676.287 454.229C676.287 452.757 676.482 451.344 676.873 449.99C677.27 448.636 677.859 447.406 678.641 446.299C679.422 445.192 680.232 444.411 681.072 443.955L681.443 445.146C680.493 445.876 679.712 446.989 679.1 448.486C678.494 449.984 678.162 451.66 678.104 453.516L678.094 454.346C678.094 456.859 678.553 459.04 679.471 460.889C680.024 461.995 680.682 462.861 681.443 463.486L681.072 464.59C680.206 464.108 679.38 463.301 678.592 462.168C677.055 459.954 676.287 457.308 676.287 454.229ZM683.844 445.46V446.82H690.424C690.044 451.06 687.584 454.5 683.004 456.8L683.904 458.08C689.704 455.18 692.044 450.56 692.044 445.46H683.844ZM699.564 450.82H696.684V443.54H695.044V461.48H696.684V452.18H699.564V450.82ZM710.223 457.92V454.54H715.963V453.22H704.923V450.32H715.543V444.86H703.263V446.2H713.943V449H703.303V454.54H708.563V457.92H701.263V459.26H717.563V457.92H710.223ZM723.181 446.34H732.361V452.16H723.181V446.34ZM728.621 457.82V453.46H733.961V445.04H721.601V453.46H726.961V457.82H719.681V459.18H735.941V457.82H728.621ZM752.46 452.14H741.76V446.54H752.28V445.18H740.14V453.48H752.46V452.14ZM738.06 457.7V459.06H754.34V457.7H738.06ZM756.727 462.832L755.701 462.129C756.313 461.276 756.632 460.397 756.658 459.492V457.861H758.426V459.277C758.426 459.935 758.263 460.592 757.938 461.25C757.618 461.908 757.215 462.435 756.727 462.832ZM769.045 455.48H767.405V461.08H779.905V459.74H769.045V455.48ZM779.045 452.38C779.545 449.68 779.545 447.74 779.545 446.04V444.5H767.425V445.82H777.925V446.04C777.925 446.66 777.925 447.34 777.885 448.08L766.985 448.44L767.205 449.78L777.825 449.3C777.745 450.22 777.625 451.24 777.385 452.38H765.345V453.72H781.645V452.38H779.045ZM794.744 445.1H793.124V448.32C793.124 451.58 791.084 455.02 788.504 456.34L789.484 457.66C791.504 456.58 793.164 454.34 793.944 451.72C794.764 454.18 796.384 456.28 798.284 457.3L799.304 456C796.784 454.74 794.744 451.48 794.744 448.32V445.1ZM805.484 450.82H802.524V443.56H800.884V461.48H802.524V452.18H805.484V450.82ZM820.163 443.54V461.52H821.803V443.54H820.163ZM812.343 444.92C809.683 444.92 807.783 447.36 807.783 451.18C807.783 455 809.683 457.44 812.343 457.44C815.003 457.44 816.903 455 816.903 451.18C816.903 447.36 815.003 444.92 812.343 444.92ZM812.343 446.4C814.083 446.4 815.323 448.28 815.323 451.18C815.323 454.1 814.083 455.98 812.343 455.98C810.583 455.98 809.343 454.1 809.343 451.18C809.343 448.28 810.583 446.4 812.343 446.4ZM827.001 454.62C829.701 454.08 832.521 452.28 833.661 449.8C834.801 452.26 837.661 454.02 840.381 454.58L841.041 453.26C837.921 452.74 834.501 450.28 834.501 447.44V446.66H840.441V445.32H826.861V446.66H832.801V447.44C832.801 450.28 829.401 452.78 826.301 453.32L827.001 454.62ZM825.521 457.74V459.1H841.801V457.74H825.521ZM848.396 454.326C848.396 455.778 848.204 457.171 847.82 458.506C847.443 459.834 846.86 461.061 846.072 462.188C845.291 463.314 844.471 464.115 843.611 464.59L843.23 463.486C844.233 462.718 845.037 461.527 845.643 459.912C846.255 458.291 846.567 456.494 846.58 454.521V454.209C846.58 452.842 846.437 451.572 846.15 450.4C845.864 449.222 845.464 448.167 844.949 447.236C844.441 446.305 843.868 445.579 843.23 445.059L843.611 443.955C844.471 444.43 845.288 445.225 846.062 446.338C846.844 447.451 847.426 448.678 847.811 450.02C848.201 451.361 848.396 452.796 848.396 454.326ZM684.188 484.182C684.188 483.498 684.376 482.87 684.754 482.297C685.138 481.724 685.867 481.057 686.941 480.295C686.31 479.527 685.887 478.908 685.672 478.439C685.457 477.971 685.35 477.505 685.35 477.043C685.35 475.962 685.669 475.116 686.307 474.504C686.945 473.892 687.811 473.586 688.904 473.586C689.881 473.586 690.688 473.872 691.326 474.445C691.964 475.012 692.283 475.728 692.283 476.594C692.283 477.167 692.137 477.697 691.844 478.186C691.557 478.667 691.053 479.175 690.33 479.709L689.285 480.48L692.449 484.26C692.892 483.413 693.113 482.473 693.113 481.438H694.744C694.744 483.098 694.344 484.475 693.543 485.568L695.574 488H693.406L692.459 486.877C691.977 487.307 691.411 487.635 690.76 487.863C690.115 488.085 689.458 488.195 688.787 488.195C687.4 488.195 686.287 487.827 685.447 487.092C684.607 486.356 684.188 485.386 684.188 484.182ZM688.787 486.721C689.744 486.721 690.62 486.356 691.414 485.627L687.947 481.477L687.625 481.711C686.538 482.512 685.994 483.335 685.994 484.182C685.994 484.95 686.242 485.565 686.736 486.027C687.238 486.49 687.921 486.721 688.787 486.721ZM687.156 476.984C687.156 477.609 687.54 478.391 688.309 479.328L689.461 478.518C689.904 478.205 690.206 477.909 690.369 477.629C690.532 477.342 690.613 476.997 690.613 476.594C690.613 476.158 690.451 475.796 690.125 475.51C689.799 475.217 689.389 475.07 688.895 475.07C688.361 475.07 687.938 475.253 687.625 475.617C687.312 475.975 687.156 476.431 687.156 476.984ZM710.604 485.82V481.02H716.084V479.7H705.284V473.08H703.644V481.02H708.964V485.82H701.644V487.16H717.944V485.82H710.604ZM734.462 481.22H723.802V478.38H733.882V477.08H723.802V474.42H734.282V473.1H722.142V482.54H734.462V481.22ZM720.042 485.82V487.16H736.322V485.82H720.042ZM750.94 477.36H742.22V475.28H750.94V477.36ZM752.56 471.96H750.94V474H742.22V471.96H740.6V478.66H752.56V471.96ZM754.68 481.66V480.32H738.44V481.66H745.74V483.76H740.26V485.08H751.04V489.5H752.68V483.76H747.38V481.66H754.68ZM624.031 512.182C624.031 511.498 624.22 510.87 624.598 510.297C624.982 509.724 625.711 509.057 626.785 508.295C626.154 507.527 625.73 506.908 625.516 506.439C625.301 505.971 625.193 505.505 625.193 505.043C625.193 503.962 625.512 503.116 626.15 502.504C626.788 501.892 627.654 501.586 628.748 501.586C629.725 501.586 630.532 501.872 631.17 502.445C631.808 503.012 632.127 503.728 632.127 504.594C632.127 505.167 631.98 505.697 631.688 506.186C631.401 506.667 630.896 507.175 630.174 507.709L629.129 508.48L632.293 512.26C632.736 511.413 632.957 510.473 632.957 509.438H634.588C634.588 511.098 634.188 512.475 633.387 513.568L635.418 516H633.25L632.303 514.877C631.821 515.307 631.255 515.635 630.604 515.863C629.959 516.085 629.301 516.195 628.631 516.195C627.244 516.195 626.131 515.827 625.291 515.092C624.451 514.356 624.031 513.386 624.031 512.182ZM628.631 514.721C629.588 514.721 630.464 514.356 631.258 513.627L627.791 509.477L627.469 509.711C626.382 510.512 625.838 511.335 625.838 512.182C625.838 512.95 626.085 513.565 626.58 514.027C627.081 514.49 627.765 514.721 628.631 514.721ZM627 504.984C627 505.609 627.384 506.391 628.152 507.328L629.305 506.518C629.747 506.205 630.05 505.909 630.213 505.629C630.376 505.342 630.457 504.997 630.457 504.594C630.457 504.158 630.294 503.796 629.969 503.51C629.643 503.217 629.233 503.07 628.738 503.07C628.204 503.07 627.781 503.253 627.469 503.617C627.156 503.975 627 504.431 627 504.984ZM651.927 508.32C649.287 507.42 647.567 505.2 647.567 502.82V502.12H651.527V500.8H641.907V502.12H645.927V502.84C645.927 505.4 644.127 507.72 641.427 508.66L642.287 509.96C644.387 509.18 646.007 507.6 646.767 505.6C647.547 507.44 649.087 508.9 651.087 509.6L651.927 508.32ZM643.747 512.64H653.787V517.5H655.427V511.32H643.747V512.64ZM658.087 504.26H655.427V499.56H653.787V510.36H655.427V505.62H658.087V504.26ZM668.006 501.48C670.826 501.48 672.626 502.32 672.626 503.74C672.626 505.16 670.826 505.98 668.006 505.98C665.186 505.98 663.386 505.16 663.386 503.74C663.386 502.32 665.186 501.48 668.006 501.48ZM668.006 507.3C671.846 507.3 674.306 505.98 674.306 503.74C674.306 501.5 671.846 500.16 668.006 500.16C664.166 500.16 661.706 501.5 661.706 503.74C661.706 505.98 664.166 507.3 668.006 507.3ZM663.626 511.88H661.986V517.08H674.326V515.74H663.626V511.88ZM659.886 508.98V510.3H676.106V508.98H659.886ZM687.705 511.96C686.305 511.96 685.325 510.82 685.325 509.22C685.325 507.66 686.305 506.52 687.705 506.52C689.085 506.52 690.085 507.66 690.085 509.22C690.085 510.82 689.085 511.96 687.705 511.96ZM687.705 505.14C685.485 505.14 683.865 506.82 683.865 509.22C683.865 511.66 685.485 513.32 687.705 513.32C689.925 513.32 691.545 511.66 691.545 509.22C691.545 506.82 689.925 505.14 687.705 505.14ZM688.505 500.06H686.885V502.6H683.245V503.94H692.145V502.6H688.505V500.06ZM696.885 499.52V507.1H694.585V499.94H693.045V516.6H694.585V508.44H696.885V517.46H698.465V499.52H696.885ZM712.024 507.98C709.444 507.1 707.684 504.86 707.684 502.44V500.46H706.044V502.3C706.044 505.04 704.304 507.48 701.584 508.46L702.444 509.76C704.544 508.96 706.144 507.32 706.884 505.22C707.684 507.06 709.224 508.54 711.164 509.26L712.024 507.98ZM709.884 516.18C707.224 516.18 705.604 515.44 705.604 514.2C705.604 512.94 707.224 512.2 709.884 512.2C712.524 512.2 714.144 512.94 714.144 514.2C714.144 515.44 712.524 516.18 709.884 516.18ZM709.884 510.92C706.224 510.92 703.964 512.1 703.964 514.2C703.964 516.28 706.224 517.46 709.884 517.46C713.524 517.46 715.784 516.28 715.784 514.2C715.784 512.1 713.524 510.92 709.884 510.92ZM715.584 504.18V499.56H713.944V510.42H715.584V505.54H718.244V504.18H715.584ZM729.002 513.86V509.26H734.462V507.94H723.762V502.32H734.282V500.98H722.122V509.26H727.342V513.86H720.042V515.22H736.342V513.86H729.002ZM744.28 500.86C741.5 500.86 739.48 502.56 739.48 505.08C739.48 507.58 741.5 509.3 744.28 509.3C747.08 509.3 749.08 507.58 749.08 505.08C749.08 502.56 747.08 500.86 744.28 500.86ZM744.28 502.26C746.14 502.26 747.48 503.4 747.48 505.08C747.48 506.74 746.14 507.9 744.28 507.9C742.44 507.9 741.08 506.74 741.08 505.08C741.08 503.4 742.44 502.26 744.28 502.26ZM751.44 499.54V517.52H753.08V499.54H751.44ZM738.78 513.58C742.02 513.58 746.36 513.54 750.4 512.8L750.26 511.58C746.34 512.18 741.84 512.2 738.58 512.2L738.78 513.58ZM765.32 502.34H774.5V508.16H765.32V502.34ZM770.76 513.82V509.46H776.1V501.04H763.74V509.46H769.1V513.82H761.82V515.18H778.08V513.82H770.76ZM782.978 501.28H781.338V512.84H782.818C785.678 512.84 788.498 512.64 791.618 512L791.438 510.6C788.458 511.2 785.678 511.44 782.978 511.44V501.28ZM793.278 499.54V517.46H794.918V499.54H793.278ZM801.077 507.54H806.957V506.22H801.077V502.52H807.737V501.16H799.437V513.18H800.817C804.237 513.18 806.417 513.08 809.017 512.62L808.837 511.28C806.397 511.72 804.317 511.84 801.077 511.84V507.54ZM811.757 499.52V506.3H808.057V507.66H811.757V517.5H813.397V499.52H811.757Z" fill="black"/>
<path d="M1066.82 443.54H1065.18V452.74H1066.82V443.54ZM1054.1 448.18C1054.1 446.62 1055.4 445.52 1057.14 445.52C1058.9 445.52 1060.18 446.62 1060.18 448.18C1060.18 449.72 1058.9 450.82 1057.14 450.82C1055.4 450.82 1054.1 449.72 1054.1 448.18ZM1061.78 448.18C1061.78 445.8 1059.82 444.18 1057.14 444.18C1054.46 444.18 1052.52 445.8 1052.52 448.18C1052.52 450.54 1054.46 452.14 1057.14 452.14C1059.82 452.14 1061.78 450.54 1061.78 448.18ZM1056.86 459.94V457.96H1066.82V453.62H1055.2V454.92H1065.2V456.74H1055.24V461.24H1067.42V459.94H1056.86ZM1077.94 452.4H1072.86V449.12H1077.94V452.4ZM1079.54 444.84H1077.94V447.84H1072.86V444.84H1071.24V453.72H1079.54V444.84ZM1074.9 455.46H1073.26V461.08H1085.22V459.74H1074.9V455.46ZM1084.42 448.98V443.56H1082.78V456.72H1084.42V450.36H1087.06V448.98H1084.42ZM1098.3 455.96C1096.9 455.96 1095.92 454.82 1095.92 453.22C1095.92 451.66 1096.9 450.52 1098.3 450.52C1099.68 450.52 1100.68 451.66 1100.68 453.22C1100.68 454.82 1099.68 455.96 1098.3 455.96ZM1098.3 449.14C1096.08 449.14 1094.46 450.82 1094.46 453.22C1094.46 455.66 1096.08 457.32 1098.3 457.32C1100.52 457.32 1102.14 455.66 1102.14 453.22C1102.14 450.82 1100.52 449.14 1098.3 449.14ZM1099.1 444.06H1097.48V446.6H1093.84V447.94H1102.74V446.6H1099.1V444.06ZM1107.48 443.52V451.1H1105.18V443.94H1103.64V460.6H1105.18V452.44H1107.48V461.46H1109.06V443.52H1107.48ZM1122.62 451.98C1120.04 451.1 1118.28 448.86 1118.28 446.44V444.46H1116.64V446.3C1116.64 449.04 1114.9 451.48 1112.18 452.46L1113.04 453.76C1115.14 452.96 1116.74 451.32 1117.48 449.22C1118.28 451.06 1119.82 452.54 1121.76 453.26L1122.62 451.98ZM1120.48 460.18C1117.82 460.18 1116.2 459.44 1116.2 458.2C1116.2 456.94 1117.82 456.2 1120.48 456.2C1123.12 456.2 1124.74 456.94 1124.74 458.2C1124.74 459.44 1123.12 460.18 1120.48 460.18ZM1120.48 454.92C1116.82 454.92 1114.56 456.1 1114.56 458.2C1114.56 460.28 1116.82 461.46 1120.48 461.46C1124.12 461.46 1126.38 460.28 1126.38 458.2C1126.38 456.1 1124.12 454.92 1120.48 454.92ZM1126.18 448.18V443.56H1124.54V454.42H1126.18V449.54H1128.84V448.18H1126.18ZM1139.59 457.86V453.26H1145.05V451.94H1134.35V446.32H1144.87V444.98H1132.71V453.26H1137.93V457.86H1130.63V459.22H1146.93V457.86H1139.59ZM1149.29 454.229C1149.29 452.757 1149.49 451.344 1149.88 449.99C1150.27 448.636 1150.86 447.406 1151.64 446.299C1152.43 445.192 1153.24 444.411 1154.08 443.955L1154.45 445.146C1153.5 445.876 1152.72 446.989 1152.1 448.486C1151.5 449.984 1151.17 451.66 1151.11 453.516L1151.1 454.346C1151.1 456.859 1151.56 459.04 1152.47 460.889C1153.03 461.995 1153.69 462.861 1154.45 463.486L1154.08 464.59C1153.21 464.108 1152.38 463.301 1151.6 462.168C1150.06 459.954 1149.29 457.308 1149.29 454.229ZM1161.95 460H1160.13V447.959L1156.49 449.297V447.656L1161.66 445.713H1161.95V460ZM1169.87 452.012H1171.22C1172.08 451.999 1172.75 451.774 1173.24 451.338C1173.72 450.902 1173.97 450.312 1173.97 449.57C1173.97 447.904 1173.14 447.07 1171.48 447.07C1170.7 447.07 1170.07 447.295 1169.6 447.744C1169.14 448.187 1168.91 448.776 1168.91 449.512H1167.1C1167.1 448.385 1167.51 447.451 1168.33 446.709C1169.16 445.96 1170.21 445.586 1171.48 445.586C1172.82 445.586 1173.87 445.941 1174.63 446.65C1175.39 447.36 1175.78 448.346 1175.78 449.609C1175.78 450.228 1175.57 450.827 1175.17 451.406C1174.77 451.986 1174.23 452.419 1173.54 452.705C1174.32 452.952 1174.92 453.363 1175.35 453.936C1175.78 454.508 1175.99 455.208 1175.99 456.035C1175.99 457.311 1175.57 458.324 1174.74 459.072C1173.91 459.821 1172.82 460.195 1171.49 460.195C1170.15 460.195 1169.07 459.834 1168.23 459.111C1167.39 458.389 1166.98 457.435 1166.98 456.25H1168.79C1168.79 456.999 1169.04 457.598 1169.53 458.047C1170.01 458.496 1170.67 458.721 1171.49 458.721C1172.36 458.721 1173.03 458.493 1173.49 458.037C1173.95 457.581 1174.18 456.927 1174.18 456.074C1174.18 455.247 1173.93 454.613 1173.42 454.17C1172.91 453.727 1172.18 453.499 1171.22 453.486H1169.87V452.012ZM1193.07 443.56H1191.43V456.66H1193.07V443.56ZM1180.37 449.2C1180.37 447.46 1181.69 446.22 1183.43 446.22C1185.21 446.22 1186.53 447.46 1186.53 449.2C1186.53 450.98 1185.21 452.22 1183.43 452.22C1181.69 452.22 1180.37 450.98 1180.37 449.2ZM1188.13 449.2C1188.13 446.62 1186.11 444.8 1183.43 444.8C1180.77 444.8 1178.77 446.62 1178.77 449.2C1178.77 451.8 1180.77 453.64 1183.43 453.64C1186.11 453.64 1188.13 451.8 1188.13 449.2ZM1183.17 459.74V455.32H1181.53V461.08H1193.61V459.74H1183.17ZM1203.35 447.96H1207.45V446.64H1203.37V443.86H1201.71V446.64H1197.57V447.96H1201.73V449.34C1201.73 452.48 1199.75 455.5 1197.09 456.76L1198.01 458C1200.07 457 1201.77 454.96 1202.57 452.46C1203.39 454.82 1205.09 456.76 1207.15 457.7L1208.05 456.42C1205.39 455.26 1203.35 452.34 1203.35 449.34V447.96ZM1209.79 443.52V461.46H1211.45V443.52H1209.79ZM1215.81 461.221H1214.26L1220.2 445.781H1221.74L1215.81 461.221ZM1224.35 445.46V446.82H1230.93C1230.55 451.06 1228.09 454.5 1223.51 456.8L1224.41 458.08C1230.21 455.18 1232.55 450.56 1232.55 445.46H1224.35ZM1240.07 450.82H1237.19V443.54H1235.55V461.48H1237.19V452.18H1240.07V450.82ZM1250.73 457.92V454.54H1256.47V453.22H1245.43V450.32H1256.05V444.86H1243.77V446.2H1254.45V449H1243.81V454.54H1249.07V457.92H1241.77V459.26H1258.07V457.92H1250.73ZM1271.21 460H1269.39V447.959L1265.75 449.297V447.656L1270.92 445.713H1271.21V460ZM1283.59 445.771V447.305H1283.26C1281.85 447.331 1280.73 447.747 1279.9 448.555C1279.06 449.362 1278.58 450.498 1278.45 451.963C1279.2 451.104 1280.22 450.674 1281.52 450.674C1282.75 450.674 1283.74 451.11 1284.48 451.982C1285.22 452.855 1285.59 453.981 1285.59 455.361C1285.59 456.826 1285.19 457.998 1284.39 458.877C1283.59 459.756 1282.53 460.195 1281.19 460.195C1279.82 460.195 1278.72 459.674 1277.88 458.633C1277.03 457.585 1276.61 456.237 1276.61 454.59V453.896C1276.61 451.279 1277.16 449.281 1278.28 447.9C1279.4 446.514 1281.06 445.804 1283.27 445.771H1283.59ZM1281.21 452.178C1280.6 452.178 1280.03 452.363 1279.51 452.734C1278.99 453.105 1278.62 453.571 1278.42 454.131V454.795C1278.42 455.967 1278.69 456.911 1279.21 457.627C1279.74 458.343 1280.4 458.701 1281.19 458.701C1282 458.701 1282.64 458.402 1283.1 457.803C1283.57 457.204 1283.8 456.419 1283.8 455.449C1283.8 454.473 1283.57 453.685 1283.09 453.086C1282.62 452.48 1282 452.178 1281.21 452.178ZM1296.64 453.936C1296.64 456.051 1296.28 457.624 1295.56 458.652C1294.84 459.681 1293.71 460.195 1292.17 460.195C1290.65 460.195 1289.53 459.694 1288.8 458.691C1288.07 457.682 1287.7 456.178 1287.67 454.18V451.768C1287.67 449.678 1288.03 448.125 1288.75 447.109C1289.48 446.094 1290.61 445.586 1292.15 445.586C1293.68 445.586 1294.81 446.077 1295.53 447.061C1296.25 448.037 1296.62 449.548 1296.64 451.592V453.936ZM1294.84 451.465C1294.84 449.935 1294.62 448.822 1294.19 448.125C1293.76 447.422 1293.08 447.07 1292.15 447.07C1291.23 447.07 1290.55 447.419 1290.13 448.115C1289.71 448.812 1289.49 449.883 1289.48 451.328V454.219C1289.48 455.755 1289.7 456.891 1290.14 457.627C1290.59 458.356 1291.27 458.721 1292.17 458.721C1293.06 458.721 1293.72 458.376 1294.15 457.686C1294.59 456.995 1294.82 455.908 1294.84 454.424V451.465ZM1307.88 453.936C1307.88 456.051 1307.51 457.624 1306.79 458.652C1306.07 459.681 1304.94 460.195 1303.4 460.195C1301.89 460.195 1300.76 459.694 1300.03 458.691C1299.3 457.682 1298.93 456.178 1298.9 454.18V451.768C1298.9 449.678 1299.26 448.125 1299.98 447.109C1300.71 446.094 1301.84 445.586 1303.38 445.586C1304.91 445.586 1306.04 446.077 1306.76 447.061C1307.48 448.037 1307.86 449.548 1307.88 451.592V453.936ZM1306.07 451.465C1306.07 449.935 1305.85 448.822 1305.42 448.125C1304.99 447.422 1304.31 447.07 1303.38 447.07C1302.46 447.07 1301.78 447.419 1301.36 448.115C1300.94 448.812 1300.72 449.883 1300.71 451.328V454.219C1300.71 455.755 1300.93 456.891 1301.37 457.627C1301.82 458.356 1302.5 458.721 1303.4 458.721C1304.29 458.721 1304.96 458.376 1305.38 457.686C1305.82 456.995 1306.05 455.908 1306.07 454.424V451.465ZM1314.54 454.326C1314.54 455.778 1314.35 457.171 1313.97 458.506C1313.59 459.834 1313.01 461.061 1312.22 462.188C1311.44 463.314 1310.62 464.115 1309.76 464.59L1309.38 463.486C1310.38 462.718 1311.19 461.527 1311.79 459.912C1312.4 458.291 1312.72 456.494 1312.73 454.521V454.209C1312.73 452.842 1312.59 451.572 1312.3 450.4C1312.01 449.222 1311.61 448.167 1311.1 447.236C1310.59 446.305 1310.02 445.579 1309.38 445.059L1309.76 443.955C1310.62 444.43 1311.44 445.225 1312.21 446.338C1312.99 447.451 1313.57 448.678 1313.96 450.02C1314.35 451.361 1314.54 452.796 1314.54 454.326ZM1139.92 471.54V489.52H1141.56V471.54H1139.92ZM1132.1 472.92C1129.44 472.92 1127.54 475.36 1127.54 479.18C1127.54 483 1129.44 485.44 1132.1 485.44C1134.76 485.44 1136.66 483 1136.66 479.18C1136.66 475.36 1134.76 472.92 1132.1 472.92ZM1132.1 474.4C1133.84 474.4 1135.08 476.28 1135.08 479.18C1135.08 482.1 1133.84 483.98 1132.1 483.98C1130.34 483.98 1129.1 482.1 1129.1 479.18C1129.1 476.28 1130.34 474.4 1132.1 474.4ZM1155.64 479.98C1153.06 479.1 1151.3 476.86 1151.3 474.44V472.46H1149.66V474.3C1149.66 477.04 1147.92 479.48 1145.2 480.46L1146.06 481.76C1148.16 480.96 1149.76 479.32 1150.5 477.22C1151.3 479.06 1152.84 480.54 1154.78 481.26L1155.64 479.98ZM1153.5 488.18C1150.84 488.18 1149.22 487.44 1149.22 486.2C1149.22 484.94 1150.84 484.2 1153.5 484.2C1156.14 484.2 1157.76 484.94 1157.76 486.2C1157.76 487.44 1156.14 488.18 1153.5 488.18ZM1153.5 482.92C1149.84 482.92 1147.58 484.1 1147.58 486.2C1147.58 488.28 1149.84 489.46 1153.5 489.46C1157.14 489.46 1159.4 488.28 1159.4 486.2C1159.4 484.1 1157.14 482.92 1153.5 482.92ZM1159.2 476.18V471.56H1157.56V482.42H1159.2V477.54H1161.86V476.18H1159.2ZM1169.5 472.86C1166.72 472.86 1164.7 474.56 1164.7 477.08C1164.7 479.58 1166.72 481.3 1169.5 481.3C1172.3 481.3 1174.3 479.58 1174.3 477.08C1174.3 474.56 1172.3 472.86 1169.5 472.86ZM1169.5 474.26C1171.36 474.26 1172.7 475.4 1172.7 477.08C1172.7 478.74 1171.36 479.9 1169.5 479.9C1167.66 479.9 1166.3 478.74 1166.3 477.08C1166.3 475.4 1167.66 474.26 1169.5 474.26ZM1176.66 471.54V489.52H1178.3V471.54H1176.66ZM1164 485.58C1167.24 485.58 1171.58 485.54 1175.62 484.8L1175.48 483.58C1171.56 484.18 1167.06 484.2 1163.8 484.2L1164 485.58ZM1190.54 474.34H1199.72V480.16H1190.54V474.34ZM1195.98 485.82V481.46H1201.32V473.04H1188.96V481.46H1194.32V485.82H1187.04V487.18H1203.3V485.82H1195.98ZM1208.2 473.28H1206.56V484.84H1208.04C1210.9 484.84 1213.72 484.64 1216.84 484L1216.66 482.6C1213.68 483.2 1210.9 483.44 1208.2 483.44V473.28ZM1218.5 471.54V489.46H1220.14V471.54H1218.5ZM1226.3 479.54H1232.18V478.22H1226.3V474.52H1232.96V473.16H1224.66V485.18H1226.04C1229.46 485.18 1231.64 485.08 1234.24 484.62L1234.06 483.28C1231.62 483.72 1229.54 483.84 1226.3 483.84V479.54ZM1236.98 471.52V478.3H1233.28V479.66H1236.98V489.5H1238.62V471.52H1236.98Z" fill="black"/>
<path d="M534.047 65.9492L540.492 44.5625H547.016L537.113 73H531L521.137 44.5625H527.641L534.047 65.9492ZM555.297 73H549.633V51.8672H555.297V73ZM549.301 46.3984C549.301 45.5521 549.581 44.8555 550.141 44.3086C550.714 43.7617 551.488 43.4883 552.465 43.4883C553.428 43.4883 554.197 43.7617 554.77 44.3086C555.342 44.8555 555.629 45.5521 555.629 46.3984C555.629 47.2578 555.336 47.9609 554.75 48.5078C554.177 49.0547 553.415 49.3281 552.465 49.3281C551.514 49.3281 550.746 49.0547 550.16 48.5078C549.587 47.9609 549.301 47.2578 549.301 46.3984ZM569.691 73.3906C566.592 73.3906 564.066 72.4401 562.113 70.5391C560.173 68.638 559.203 66.1055 559.203 62.9414V62.3945C559.203 60.2721 559.613 58.3776 560.434 56.7109C561.254 55.0312 562.413 53.7422 563.91 52.8438C565.421 51.9323 567.139 51.4766 569.066 51.4766C571.957 51.4766 574.229 52.388 575.883 54.2109C577.549 56.0339 578.383 58.6185 578.383 61.9648V64.2695H564.926C565.108 65.6497 565.655 66.7565 566.566 67.5898C567.491 68.4232 568.656 68.8398 570.062 68.8398C572.237 68.8398 573.936 68.0521 575.16 66.4766L577.934 69.582C577.087 70.7799 575.941 71.7174 574.496 72.3945C573.051 73.0586 571.449 73.3906 569.691 73.3906ZM569.047 56.0469C567.927 56.0469 567.016 56.4245 566.312 57.1797C565.622 57.9349 565.18 59.0156 564.984 60.4219H572.836V59.9727C572.81 58.7227 572.471 57.7591 571.82 57.082C571.169 56.3919 570.245 56.0469 569.047 56.0469ZM599.984 65.3242L602.758 51.8672H608.207L602.816 73H598.09L594.086 59.6992L590.082 73H585.375L579.984 51.8672H585.434L588.188 65.3047L592.055 51.8672H596.137L599.984 65.3242ZM630.043 62.6289C630.043 65.8841 629.301 68.4948 627.816 70.4609C626.345 72.4141 624.353 73.3906 621.84 73.3906C619.704 73.3906 617.979 72.6484 616.664 71.1641V81.125H611.02V51.8672H616.254L616.449 53.9375C617.816 52.2969 619.6 51.4766 621.801 51.4766C624.405 51.4766 626.43 52.4401 627.875 54.3672C629.32 56.2943 630.043 58.9505 630.043 62.3359V62.6289ZM624.398 62.2188C624.398 60.2526 624.047 58.7357 623.344 57.668C622.654 56.6003 621.645 56.0664 620.316 56.0664C618.546 56.0664 617.328 56.7435 616.664 58.0977V66.75C617.354 68.1432 618.585 68.8398 620.355 68.8398C623.051 68.8398 624.398 66.6328 624.398 62.2188ZM632.68 62.2383C632.68 60.1419 633.083 58.2734 633.891 56.6328C634.698 54.9922 635.857 53.7227 637.367 52.8242C638.891 51.9258 640.655 51.4766 642.66 51.4766C645.512 51.4766 647.836 52.349 649.633 54.0938C651.443 55.8385 652.452 58.2083 652.66 61.2031L652.699 62.6484C652.699 65.8906 651.794 68.4948 649.984 70.4609C648.174 72.4141 645.746 73.3906 642.699 73.3906C639.652 73.3906 637.217 72.4141 635.395 70.4609C633.585 68.5078 632.68 65.8516 632.68 62.4922V62.2383ZM638.324 62.6484C638.324 64.6536 638.702 66.1901 639.457 67.2578C640.212 68.3125 641.293 68.8398 642.699 68.8398C644.066 68.8398 645.134 68.319 645.902 67.2773C646.671 66.2227 647.055 64.543 647.055 62.2383C647.055 60.2721 646.671 58.7487 645.902 57.668C645.134 56.5872 644.053 56.0469 642.66 56.0469C641.28 56.0469 640.212 56.5872 639.457 57.668C638.702 58.7357 638.324 60.3958 638.324 62.6484ZM668.051 57.1602C667.283 57.056 666.605 57.0039 666.02 57.0039C663.884 57.0039 662.484 57.7266 661.82 59.1719V73H656.176V51.8672H661.508L661.664 54.3867C662.797 52.4466 664.366 51.4766 666.371 51.4766C666.996 51.4766 667.582 51.5612 668.129 51.7305L668.051 57.1602ZM678.52 46.6719V51.8672H682.133V56.0078H678.52V66.5547C678.52 67.3359 678.669 67.8958 678.969 68.2344C679.268 68.5729 679.841 68.7422 680.688 68.7422C681.312 68.7422 681.866 68.6966 682.348 68.6055V72.8828C681.241 73.2214 680.102 73.3906 678.93 73.3906C674.971 73.3906 672.953 71.3919 672.875 67.3945V56.0078H669.789V51.8672H672.875V46.6719H678.52ZM714.281 62.6289C714.281 66.0143 713.559 68.6576 712.113 70.5586C710.668 72.4466 708.65 73.3906 706.059 73.3906C703.767 73.3906 701.938 72.5117 700.57 70.7539L700.316 73H695.238V43H700.883V53.7617C702.185 52.2383 703.897 51.4766 706.02 51.4766C708.598 51.4766 710.616 52.4271 712.074 54.3281C713.546 56.2161 714.281 58.8789 714.281 62.3164V62.6289ZM708.637 62.2188C708.637 60.0833 708.298 58.5273 707.621 57.5508C706.944 56.5612 705.935 56.0664 704.594 56.0664C702.797 56.0664 701.56 56.8021 700.883 58.2734V66.6133C701.573 68.0977 702.823 68.8398 704.633 68.8398C706.456 68.8398 707.654 67.9414 708.227 66.1445C708.5 65.2852 708.637 63.9766 708.637 62.2188ZM729.652 57.1602C728.884 57.056 728.207 57.0039 727.621 57.0039C725.486 57.0039 724.086 57.7266 723.422 59.1719V73H717.777V51.8672H723.109L723.266 54.3867C724.398 52.4466 725.967 51.4766 727.973 51.4766C728.598 51.4766 729.184 51.5612 729.73 51.7305L729.652 57.1602ZM741.723 73.3906C738.624 73.3906 736.098 72.4401 734.145 70.5391C732.204 68.638 731.234 66.1055 731.234 62.9414V62.3945C731.234 60.2721 731.645 58.3776 732.465 56.7109C733.285 55.0312 734.444 53.7422 735.941 52.8438C737.452 51.9323 739.171 51.4766 741.098 51.4766C743.988 51.4766 746.26 52.388 747.914 54.2109C749.581 56.0339 750.414 58.6185 750.414 61.9648V64.2695H736.957C737.139 65.6497 737.686 66.7565 738.598 67.5898C739.522 68.4232 740.688 68.8398 742.094 68.8398C744.268 68.8398 745.967 68.0521 747.191 66.4766L749.965 69.582C749.118 70.7799 747.973 71.7174 746.527 72.3945C745.082 73.0586 743.48 73.3906 741.723 73.3906ZM741.078 56.0469C739.958 56.0469 739.047 56.4245 738.344 57.1797C737.654 57.9349 737.211 59.0156 737.016 60.4219H744.867V59.9727C744.841 58.7227 744.503 57.7591 743.852 57.082C743.201 56.3919 742.276 56.0469 741.078 56.0469ZM765.883 73C765.622 72.4922 765.434 71.8607 765.316 71.1055C763.949 72.6289 762.172 73.3906 759.984 73.3906C757.914 73.3906 756.195 72.7917 754.828 71.5938C753.474 70.3958 752.797 68.8854 752.797 67.0625C752.797 64.8229 753.624 63.1042 755.277 61.9062C756.944 60.7083 759.346 60.1029 762.484 60.0898H765.082V58.8789C765.082 57.9023 764.828 57.1211 764.32 56.5352C763.826 55.9492 763.038 55.6562 761.957 55.6562C761.007 55.6562 760.258 55.8841 759.711 56.3398C759.177 56.7956 758.91 57.4206 758.91 58.2148H753.266C753.266 56.9909 753.643 55.8581 754.398 54.8164C755.154 53.7747 756.221 52.9609 757.602 52.375C758.982 51.776 760.531 51.4766 762.25 51.4766C764.854 51.4766 766.918 52.1341 768.441 53.4492C769.978 54.7513 770.746 56.5872 770.746 58.957V68.1172C770.759 70.1224 771.039 71.6393 771.586 72.668V73H765.883ZM761.215 69.0742C762.048 69.0742 762.816 68.8919 763.52 68.5273C764.223 68.1497 764.743 67.6484 765.082 67.0234V63.3906H762.973C760.147 63.3906 758.643 64.3672 758.461 66.3203L758.441 66.6523C758.441 67.3555 758.689 67.9349 759.184 68.3906C759.678 68.8464 760.355 69.0742 761.215 69.0742ZM782.758 64.5234L780.727 66.5547V73H775.082V43H780.727V59.6211L781.82 58.2148L787.23 51.8672H794.008L786.371 60.6758L794.672 73H788.188L782.758 64.5234ZM815.473 62.6289C815.473 65.8841 814.73 68.4948 813.246 70.4609C811.775 72.4141 809.783 73.3906 807.27 73.3906C805.134 73.3906 803.409 72.6484 802.094 71.1641V81.125H796.449V51.8672H801.684L801.879 53.9375C803.246 52.2969 805.03 51.4766 807.23 51.4766C809.835 51.4766 811.859 52.4401 813.305 54.3672C814.75 56.2943 815.473 58.9505 815.473 62.3359V62.6289ZM809.828 62.2188C809.828 60.2526 809.477 58.7357 808.773 57.668C808.083 56.6003 807.074 56.0664 805.746 56.0664C803.975 56.0664 802.758 56.7435 802.094 58.0977V66.75C802.784 68.1432 804.014 68.8398 805.785 68.8398C808.48 68.8398 809.828 66.6328 809.828 62.2188ZM818.109 62.2383C818.109 60.1419 818.513 58.2734 819.32 56.6328C820.128 54.9922 821.286 53.7227 822.797 52.8242C824.32 51.9258 826.085 51.4766 828.09 51.4766C830.941 51.4766 833.266 52.349 835.062 54.0938C836.872 55.8385 837.882 58.2083 838.09 61.2031L838.129 62.6484C838.129 65.8906 837.224 68.4948 835.414 70.4609C833.604 72.4141 831.176 73.3906 828.129 73.3906C825.082 73.3906 822.647 72.4141 820.824 70.4609C819.014 68.5078 818.109 65.8516 818.109 62.4922V62.2383ZM823.754 62.6484C823.754 64.6536 824.132 66.1901 824.887 67.2578C825.642 68.3125 826.723 68.8398 828.129 68.8398C829.496 68.8398 830.564 68.319 831.332 67.2773C832.1 66.2227 832.484 64.543 832.484 62.2383C832.484 60.2721 832.1 58.7487 831.332 57.668C830.564 56.5872 829.483 56.0469 828.09 56.0469C826.71 56.0469 825.642 56.5872 824.887 57.668C824.132 58.7357 823.754 60.3958 823.754 62.6484ZM847.562 73H841.898V51.8672H847.562V73ZM841.566 46.3984C841.566 45.5521 841.846 44.8555 842.406 44.3086C842.979 43.7617 843.754 43.4883 844.73 43.4883C845.694 43.4883 846.462 43.7617 847.035 44.3086C847.608 44.8555 847.895 45.5521 847.895 46.3984C847.895 47.2578 847.602 47.9609 847.016 48.5078C846.443 49.0547 845.681 49.3281 844.73 49.3281C843.78 49.3281 843.012 49.0547 842.426 48.5078C841.853 47.9609 841.566 47.2578 841.566 46.3984ZM857.426 51.8672L857.602 54.3086C859.112 52.4206 861.137 51.4766 863.676 51.4766C865.915 51.4766 867.582 52.1341 868.676 53.4492C869.77 54.7643 870.329 56.7305 870.355 59.3477V73H864.711V59.4844C864.711 58.2865 864.451 57.4206 863.93 56.8867C863.409 56.3398 862.543 56.0664 861.332 56.0664C859.743 56.0664 858.552 56.7435 857.758 58.0977V73H852.113V51.8672H857.426ZM881.41 46.6719V51.8672H885.023V56.0078H881.41V66.5547C881.41 67.3359 881.56 67.8958 881.859 68.2344C882.159 68.5729 882.732 68.7422 883.578 68.7422C884.203 68.7422 884.757 68.6966 885.238 68.6055V72.8828C884.132 73.2214 882.992 73.3906 881.82 73.3906C877.862 73.3906 875.844 71.3919 875.766 67.3945V56.0078H872.68V51.8672H875.766V46.6719H881.41Z" fill="#1E73FF"/>
<defs>
<linearGradient id="paint0_linear" x1="96.4287" y1="202" x2="96.4287" y2="245.711" gradientUnits="userSpaceOnUse">
<stop stop-color="white" stop-opacity="0.46"/>
<stop offset="0.651042" stop-color="white" stop-opacity="0"/>
</linearGradient>
<linearGradient id="paint1_linear" x1="257.719" y1="223" x2="257.719" y2="264" gradientUnits="userSpaceOnUse">
<stop stop-color="white" stop-opacity="0.46"/>
<stop offset="0.651042" stop-color="white" stop-opacity="0"/>
</linearGradient>
<linearGradient id="paint2_linear" x1="373.17" y1="169" x2="373.17" y2="316.778" gradientUnits="userSpaceOnUse">
<stop stop-color="white" stop-opacity="0.46"/>
<stop offset="0.651042" stop-color="white" stop-opacity="0"/>
</linearGradient>
<linearGradient id="paint3_linear" x1="609.348" y1="190" x2="609.348" y2="296" gradientUnits="userSpaceOnUse">
<stop stop-color="white" stop-opacity="0.46"/>
<stop offset="0.651042" stop-color="white" stop-opacity="0"/>
</linearGradient>
<linearGradient id="paint4_linear" x1="830.991" y1="167" x2="830.991" y2="312.863" gradientUnits="userSpaceOnUse">
<stop stop-color="white" stop-opacity="0.46"/>
<stop offset="0.651042" stop-color="white" stop-opacity="0"/>
</linearGradient>
<linearGradient id="paint5_linear" x1="1244.6" y1="127" x2="1244.6" y2="329.342" gradientUnits="userSpaceOnUse">
<stop stop-color="white" stop-opacity="0.46"/>
<stop offset="0.651042" stop-color="white" stop-opacity="0"/>
</linearGradient>
</defs>
</svg>
