<svg width="828" height="427" viewBox="0 0 828 427" fill="none" xmlns="http://www.w3.org/2000/svg">
<path d="M0 249.932C0 247.138 2.2705 244.873 5.0713 244.873H27.6971C30.4979 244.873 32.7684 247.138 32.7684 249.932V305.98C32.7684 308.774 30.4979 311.04 27.6971 311.04H5.0713C2.2705 311.04 0 308.774 0 305.98V249.932Z" fill="black"/>
<path fill-rule="evenodd" clip-rule="evenodd" d="M5.071 246.819C3.34743 246.819 1.9502 248.213 1.9502 249.932V305.98C1.9502 307.699 3.34742 309.093 5.071 309.093H27.6968C29.4204 309.093 30.8176 307.699 30.8176 305.98V249.932C30.8176 248.213 29.4204 246.819 27.6968 246.819H25.161C24.8428 246.819 24.584 247.077 24.576 247.399V247.986C24.576 248.631 24.052 249.154 23.4057 249.154H9.7522C9.10586 249.154 8.5819 248.631 8.5819 247.986V247.399C8.5739 247.077 8.31506 246.819 7.99694 246.819H5.071Z" fill="#80CFFF"/>
<path fill-rule="evenodd" clip-rule="evenodd" d="M32.7684 274.083V249.932C32.7684 247.138 30.4979 244.873 27.6971 244.873H16.5381L32.7684 274.083Z" fill="url(#paint0_linear)"/>
<path d="M75.4541 222.153C75.4541 219.388 77.6903 217.146 80.4487 217.146H137.887C140.645 217.146 142.881 219.388 142.881 222.153V306.032C142.881 308.798 140.645 311.04 137.887 311.04H80.4487C77.6903 311.04 75.4541 308.798 75.4541 306.032V222.153Z" fill="black"/>
<path d="M78.5757 222.153C78.5757 221.116 79.4142 220.275 80.4487 220.275H137.887C138.921 220.275 139.76 221.116 139.76 222.153V306.032C139.76 307.069 138.921 307.91 137.887 307.91H80.4487C79.4142 307.91 78.5757 307.069 78.5757 306.032V222.153Z" fill="#F79D30"/>
<path fill-rule="evenodd" clip-rule="evenodd" d="M142.881 292.553L101.866 217.146H137.887C140.645 217.146 142.881 219.388 142.881 222.153V292.553Z" fill="url(#paint1_linear)"/>
<path fill-rule="evenodd" clip-rule="evenodd" d="M265.838 307.879C266.894 307.036 267.775 295.676 268.083 290.102H276.545H278.382H298.323H301.997H308.623C308.931 295.676 309.811 307.036 310.867 307.879C311.924 308.722 316.589 309.372 318.79 309.591V311.04L301.997 311.04L298.323 311.04H278.382L276.545 311.04L257.916 311.04V309.591C260.116 309.372 264.782 308.722 265.838 307.879Z" fill="#CCCCCC"/>
<path d="M185.567 169.441C185.567 166.553 188.297 164.212 191.663 164.212H384.904C388.271 164.212 391 166.553 391 169.441V275.076H185.567V169.441Z" fill="#222222"/>
<path d="M185.567 286.436C185.567 289.355 188.297 291.72 191.663 291.72H384.904C388.271 291.72 391 289.355 391 286.436V275.076H185.567V286.436Z" fill="#AAAAAA"/>
<rect x="192.713" y="171.345" width="191.142" height="96.8944" fill="#3F67AF"/>
<path fill-rule="evenodd" clip-rule="evenodd" d="M356.643 275.076H391V169.441C391 166.553 388.271 164.212 384.904 164.212H261.942L356.643 275.076ZM370.861 291.72H384.904C388.271 291.72 391 289.354 391 286.436V275.076L356.643 275.076L370.861 291.72Z" fill="url(#paint2_linear)"/>
<rect x="1" y="46.7415" width="30.7684" height="64.167" fill="white" stroke="#888888" stroke-width="2"/>
<path d="M1.26025 47.0017L31.508 110.648M31.508 47.0017L1.26025 110.648" stroke="#888888" stroke-width="2"/>
<rect x="76.4541" y="19.0144" width="65.4273" height="91.8941" fill="white" stroke="#888888" stroke-width="2"/>
<path d="M142.251 18.6445L76.0845 111.278M76.0845 18.6445L142.251 111.278" stroke="#888888" stroke-width="2"/>
<rect x="186.567" y="2" width="203.433" height="108.908" fill="white" stroke="#888888" stroke-width="2"/>
<path d="M186.198 1.63013L390.37 111.278M390.37 1.63013L186.198 111.278" stroke="#888888" stroke-width="2"/>
<path d="M17.3843 117.58C17.3843 117.028 16.9366 116.58 16.3843 116.58C15.832 116.58 15.3843 117.028 15.3843 117.58H17.3843ZM15.6772 238.648C16.0677 239.038 16.7009 239.038 17.0914 238.648L23.4553 232.284C23.8459 231.893 23.8459 231.26 23.4553 230.87C23.0648 230.479 22.4317 230.479 22.0411 230.87L16.3843 236.526L10.7274 230.87C10.3369 230.479 9.70373 230.479 9.31321 230.87C8.92269 231.26 8.92269 231.893 9.31321 232.284L15.6772 238.648ZM15.3843 117.58V237.941H17.3843V117.58H15.3843Z" fill="#888888"/>
<path d="M109.853 117.58C109.853 117.028 109.405 116.58 108.853 116.58C108.3 116.58 107.853 117.028 107.853 117.58H109.853ZM108.145 210.921C108.536 211.311 109.169 211.311 109.56 210.921L115.924 204.557C116.314 204.166 116.314 203.533 115.924 203.143C115.533 202.752 114.9 202.752 114.509 203.143L108.853 208.799L103.196 203.143C102.805 202.752 102.172 202.752 101.781 203.143C101.391 203.533 101.391 204.166 101.781 204.557L108.145 210.921ZM107.853 117.58V210.214H109.853V117.58H107.853Z" fill="#888888"/>
<path d="M289.284 117.58C289.284 117.028 288.836 116.58 288.284 116.58C287.731 116.58 287.284 117.028 287.284 117.58L289.284 117.58ZM287.577 157.357C287.967 157.747 288.6 157.747 288.991 157.357L295.355 150.993C295.745 150.602 295.745 149.969 295.355 149.579C294.964 149.188 294.331 149.188 293.941 149.579L288.284 155.236L282.627 149.579C282.236 149.188 281.603 149.188 281.213 149.579C280.822 149.969 280.822 150.602 281.213 150.993L287.577 157.357ZM287.284 117.58L287.284 156.65L289.284 156.65L289.284 117.58L287.284 117.58Z" fill="#888888"/>
<path fill-rule="evenodd" clip-rule="evenodd" d="M646.271 307.879C647.327 307.036 648.207 295.676 648.515 290.102H656.978H658.815H678.756H682.43H689.055C689.363 295.676 690.244 307.036 691.3 307.879C692.356 308.722 697.022 309.372 699.223 309.591V311.04L682.43 311.04L678.756 311.04H658.815L656.978 311.04L638.348 311.04V309.591C640.549 309.372 645.214 308.722 646.271 307.879Z" fill="#CCCCCC"/>
<path d="M566 169.441C566 166.553 568.729 164.212 572.096 164.212H765.337C768.703 164.212 771.433 166.553 771.433 169.441V275.076H566V169.441Z" fill="#222222"/>
<path d="M566 286.436C566 289.355 568.729 291.72 572.096 291.72H765.337C768.703 291.72 771.433 289.355 771.433 286.436V275.076H566V286.436Z" fill="#AAAAAA"/>
<rect x="573.146" y="171.345" width="191.142" height="96.8944" fill="#3F67AF"/>
<path fill-rule="evenodd" clip-rule="evenodd" d="M737.076 275.076H771.433V169.441C771.433 166.553 768.703 164.212 765.337 164.212H642.375L737.076 275.076ZM751.294 291.72H765.337C768.703 291.72 771.433 289.354 771.433 286.436V275.076L737.076 275.076L751.294 291.72Z" fill="url(#paint3_linear)"/>
<path d="M760 222.153C760 219.388 762.236 217.146 764.995 217.146H822.433C825.191 217.146 827.427 219.388 827.427 222.153V306.032C827.427 308.798 825.191 311.04 822.433 311.04H764.995C762.236 311.04 760 308.798 760 306.032V222.153Z" fill="black"/>
<path d="M763.122 222.153C763.122 221.116 763.96 220.275 764.995 220.275H822.433C823.467 220.275 824.306 221.116 824.306 222.153V306.032C824.306 307.069 823.467 307.91 822.433 307.91H764.995C763.96 307.91 763.122 307.069 763.122 306.032V222.153Z" fill="#F79D30"/>
<path fill-rule="evenodd" clip-rule="evenodd" d="M827.427 292.553L786.412 217.146H822.433C825.191 217.146 827.427 219.388 827.427 222.153V292.553Z" fill="url(#paint4_linear)"/>
<path d="M553 249.932C553 247.138 555.27 244.873 558.071 244.873H580.697C583.498 244.873 585.768 247.138 585.768 249.932V305.98C585.768 308.774 583.498 311.04 580.697 311.04H558.071C555.27 311.04 553 308.774 553 305.98V249.932Z" fill="black"/>
<path fill-rule="evenodd" clip-rule="evenodd" d="M558.071 246.819C556.347 246.819 554.95 248.213 554.95 249.932V305.98C554.95 307.699 556.347 309.093 558.071 309.093H580.697C582.42 309.093 583.818 307.699 583.818 305.98V249.932C583.818 248.213 582.42 246.819 580.697 246.819H578.161C577.843 246.819 577.584 247.077 577.576 247.399V247.986C577.576 248.631 577.052 249.154 576.406 249.154H562.752C562.106 249.154 561.582 248.631 561.582 247.986V247.399C561.574 247.077 561.315 246.819 560.997 246.819H558.071Z" fill="#80CFFF"/>
<path fill-rule="evenodd" clip-rule="evenodd" d="M585.768 274.083V249.932C585.768 247.138 583.498 244.873 580.697 244.873H569.538L585.768 274.083Z" fill="url(#paint5_linear)"/>
<path d="M691 118C691 117.448 690.552 117 690 117C689.448 117 689 117.448 689 118L691 118ZM689.293 157.777C689.683 158.168 690.317 158.168 690.707 157.777L697.071 151.413C697.462 151.023 697.462 150.389 697.071 149.999C696.681 149.608 696.047 149.608 695.657 149.999L690 155.656L684.343 149.999C683.953 149.608 683.319 149.608 682.929 149.999C682.538 150.389 682.538 151.023 682.929 151.413L689.293 157.777ZM689 118L689 157.07L691 157.07L691 118L689 118Z" fill="#888888"/>
<path d="M642.842 118.54C643.14 118.075 643.005 117.456 642.54 117.158C642.075 116.86 641.456 116.995 641.158 117.46L642.842 118.54ZM616.023 157.214C616.141 157.753 616.674 158.095 617.214 157.977L626.006 156.054C626.545 155.936 626.887 155.403 626.769 154.863C626.651 154.324 626.118 153.982 625.578 154.1L617.763 155.809L616.054 147.994C615.936 147.455 615.403 147.113 614.863 147.231C614.324 147.349 613.982 147.882 614.1 148.422L616.023 157.214ZM641.158 117.46L616.158 156.46L617.842 157.54L642.842 118.54L641.158 117.46Z" fill="#888888"/>
<path d="M740.852 117.476C740.562 117.006 739.946 116.859 739.476 117.148C739.006 117.438 738.859 118.054 739.148 118.524L740.852 117.476ZM763.768 157.973C764.306 158.101 764.845 157.769 764.973 157.232L767.057 148.476C767.185 147.939 766.853 147.4 766.316 147.272C765.779 147.144 765.24 147.476 765.112 148.013L763.259 155.796L755.476 153.943C754.939 153.815 754.4 154.147 754.272 154.684C754.144 155.221 754.476 155.76 755.013 155.888L763.768 157.973ZM739.148 118.524L763.148 157.524L764.852 156.476L740.852 117.476L739.148 118.524Z" fill="#888888"/>
<rect x="588" y="2" width="203.433" height="108.908" fill="white" stroke="#888888" stroke-width="2"/>
<path d="M587.63 1.63013L791.803 111.278M791.803 1.63013L587.63 111.278" stroke="#888888" stroke-width="2"/>
<rect x="110" y="357" width="172" height="70" rx="15" fill="#1E73FF"/>
<path d="M139.475 383.777H133.824L132.75 387H129.323L135.146 371.359H138.132L143.986 387H140.56L139.475 383.777ZM134.694 381.167H138.604L136.639 375.312L134.694 381.167ZM144.76 381.103C144.76 379.291 145.164 377.848 145.974 376.773C146.79 375.699 147.904 375.162 149.314 375.162C150.446 375.162 151.381 375.585 152.118 376.43V370.5H155.233V387H152.43L152.279 385.765C151.506 386.731 150.51 387.215 149.293 387.215C147.925 387.215 146.826 386.678 145.995 385.604C145.172 384.522 144.76 383.022 144.76 381.103ZM147.864 381.328C147.864 382.417 148.054 383.251 148.434 383.831C148.813 384.411 149.365 384.701 150.088 384.701C151.048 384.701 151.724 384.297 152.118 383.487V378.9C151.731 378.091 151.062 377.687 150.109 377.687C148.613 377.687 147.864 378.9 147.864 381.328ZM164.375 387C164.232 386.721 164.128 386.373 164.063 385.958C163.312 386.796 162.334 387.215 161.131 387.215C159.992 387.215 159.047 386.885 158.295 386.227C157.55 385.568 157.178 384.737 157.178 383.734C157.178 382.503 157.632 381.557 158.542 380.898C159.459 380.24 160.78 379.907 162.506 379.899H163.935V379.233C163.935 378.696 163.795 378.267 163.516 377.944C163.243 377.622 162.81 377.461 162.216 377.461C161.693 377.461 161.281 377.586 160.98 377.837C160.687 378.088 160.54 378.431 160.54 378.868H157.436C157.436 378.195 157.643 377.572 158.059 376.999C158.474 376.426 159.061 375.979 159.82 375.656C160.579 375.327 161.432 375.162 162.377 375.162C163.809 375.162 164.944 375.524 165.782 376.247C166.627 376.963 167.05 377.973 167.05 379.276V384.314C167.057 385.417 167.211 386.252 167.512 386.817V387H164.375ZM161.808 384.841C162.266 384.841 162.688 384.741 163.075 384.54C163.462 384.332 163.748 384.057 163.935 383.713V381.715H162.774C161.22 381.715 160.393 382.252 160.293 383.326L160.282 383.509C160.282 383.896 160.418 384.214 160.69 384.465C160.963 384.715 161.335 384.841 161.808 384.841ZM179.897 381.296C179.897 383.086 179.489 384.522 178.673 385.604C177.864 386.678 176.768 387.215 175.386 387.215C174.211 387.215 173.262 386.807 172.539 385.99V391.469H169.435V375.377H172.313L172.421 376.516C173.173 375.613 174.154 375.162 175.364 375.162C176.797 375.162 177.91 375.692 178.705 376.752C179.5 377.812 179.897 379.273 179.897 381.135V381.296ZM176.793 381.07C176.793 379.989 176.6 379.155 176.213 378.567C175.833 377.98 175.278 377.687 174.548 377.687C173.574 377.687 172.904 378.059 172.539 378.804V383.562C172.919 384.329 173.595 384.712 174.569 384.712C176.052 384.712 176.793 383.498 176.793 381.07ZM185.548 372.52V375.377H187.535V377.654H185.548V383.455C185.548 383.885 185.63 384.193 185.795 384.379C185.96 384.565 186.275 384.658 186.74 384.658C187.084 384.658 187.388 384.633 187.653 384.583V386.936C187.045 387.122 186.418 387.215 185.773 387.215C183.596 387.215 182.486 386.116 182.443 383.917V377.654H180.746V375.377H182.443V372.52H185.548ZM192.541 387H189.426V375.377H192.541V387ZM189.243 372.369C189.243 371.904 189.397 371.521 189.705 371.22C190.02 370.919 190.446 370.769 190.983 370.769C191.513 370.769 191.936 370.919 192.251 371.22C192.566 371.521 192.724 371.904 192.724 372.369C192.724 372.842 192.562 373.229 192.24 373.529C191.925 373.83 191.506 373.98 190.983 373.98C190.461 373.98 190.038 373.83 189.716 373.529C189.401 373.229 189.243 372.842 189.243 372.369ZM199.459 383.208L201.618 375.377H204.862L200.941 387H197.977L194.056 375.377H197.3L199.459 383.208ZM211.437 387.215C209.732 387.215 208.343 386.692 207.269 385.646C206.201 384.601 205.668 383.208 205.668 381.468V381.167C205.668 380 205.894 378.958 206.345 378.041C206.796 377.117 207.433 376.408 208.257 375.914C209.088 375.413 210.033 375.162 211.093 375.162C212.683 375.162 213.932 375.663 214.842 376.666C215.758 377.669 216.217 379.09 216.217 380.931V382.198H208.815C208.916 382.957 209.216 383.566 209.718 384.024C210.226 384.483 210.867 384.712 211.641 384.712C212.837 384.712 213.771 384.279 214.444 383.412L215.97 385.12C215.504 385.779 214.874 386.295 214.079 386.667C213.284 387.032 212.403 387.215 211.437 387.215ZM211.082 377.676C210.466 377.676 209.965 377.883 209.578 378.299C209.199 378.714 208.955 379.309 208.848 380.082H213.166V379.835C213.152 379.147 212.965 378.618 212.607 378.245C212.249 377.866 211.741 377.676 211.082 377.676ZM233.576 382.778L235.102 375.377H238.099L235.134 387H232.534L230.332 379.685L228.13 387H225.541L222.576 375.377H225.573L227.088 382.768L229.215 375.377H231.46L233.576 382.778ZM244.995 387.215C243.291 387.215 241.901 386.692 240.827 385.646C239.76 384.601 239.227 383.208 239.227 381.468V381.167C239.227 380 239.452 378.958 239.903 378.041C240.354 377.117 240.992 376.408 241.815 375.914C242.646 375.413 243.591 375.162 244.651 375.162C246.241 375.162 247.491 375.663 248.4 376.666C249.317 377.669 249.775 379.09 249.775 380.931V382.198H242.374C242.474 382.957 242.775 383.566 243.276 384.024C243.785 384.483 244.426 384.712 245.199 384.712C246.395 384.712 247.33 384.279 248.003 383.412L249.528 385.12C249.063 385.779 248.433 386.295 247.638 386.667C246.843 387.032 245.962 387.215 244.995 387.215ZM244.641 377.676C244.025 377.676 243.523 377.883 243.137 378.299C242.757 378.714 242.514 379.309 242.406 380.082H246.725V379.835C246.71 379.147 246.524 378.618 246.166 378.245C245.808 377.866 245.299 377.676 244.641 377.676ZM262.021 381.296C262.021 383.158 261.624 384.612 260.829 385.657C260.034 386.696 258.924 387.215 257.499 387.215C256.239 387.215 255.232 386.731 254.48 385.765L254.341 387H251.548V370.5H254.652V376.419C255.368 375.581 256.31 375.162 257.478 375.162C258.896 375.162 260.006 375.685 260.808 376.73C261.617 377.769 262.021 379.233 262.021 381.124V381.296ZM258.917 381.07C258.917 379.896 258.731 379.04 258.358 378.503C257.986 377.959 257.431 377.687 256.693 377.687C255.705 377.687 255.025 378.091 254.652 378.9V383.487C255.032 384.304 255.719 384.712 256.715 384.712C257.717 384.712 258.376 384.218 258.691 383.229C258.842 382.757 258.917 382.037 258.917 381.07Z" fill="white"/>
<path d="M171.126 406.07C168.786 405.242 167.202 403.208 167.202 401.138V400.49H170.748V399.284H162.126V400.49H165.726V401.138C165.726 403.424 164.052 405.584 161.658 406.43L162.432 407.6C164.322 406.898 165.798 405.422 166.482 403.568C167.202 405.242 168.588 406.574 170.388 407.222L171.126 406.07ZM164.106 409.922H173.412V414.35H174.906V408.734H164.106V409.922ZM173.412 398.186V402.398H170.262V403.604H173.412V407.852H174.906V398.186H173.412ZM178.163 406.034V407.222H192.743V406.034H178.163ZM185.453 408.572C182.015 408.572 179.927 409.598 179.927 411.452C179.927 413.288 182.015 414.332 185.453 414.332C188.909 414.332 190.979 413.288 190.979 411.452C190.979 409.598 188.909 408.572 185.453 408.572ZM185.453 409.706C187.991 409.706 189.485 410.354 189.485 411.452C189.485 412.55 187.991 413.18 185.453 413.18C182.915 413.18 181.421 412.55 181.421 411.452C181.421 410.354 182.915 409.706 185.453 409.706ZM185.453 398.6C181.979 398.6 179.783 399.734 179.783 401.678C179.783 403.604 181.979 404.738 185.453 404.738C188.945 404.738 191.123 403.604 191.123 401.678C191.123 399.734 188.945 398.6 185.453 398.6ZM185.453 399.752C188.009 399.752 189.611 400.472 189.611 401.678C189.611 402.866 188.009 403.586 185.453 403.586C182.897 403.586 181.295 402.866 181.295 401.678C181.295 400.472 182.897 399.752 185.453 399.752ZM206.53 405.206H203.794V406.412H206.53V408.608H208.024V398.186H206.53V402.074H203.812V403.262H206.53V405.206ZM203.794 399.968H200.086V398.042H198.61V399.968H194.758V401.156H203.794V399.968ZM197.062 404.972C197.062 403.856 197.98 403.118 199.33 403.118C200.68 403.118 201.598 403.856 201.598 404.972C201.598 406.106 200.68 406.844 199.33 406.844C197.98 406.844 197.062 406.106 197.062 404.972ZM202.984 404.972C202.984 403.172 201.472 401.984 199.33 401.984C197.17 401.984 195.676 403.172 195.676 404.972C195.676 406.79 197.17 407.978 199.33 407.978C201.472 407.978 202.984 406.79 202.984 404.972ZM202.732 413.18C200.356 413.18 198.88 412.586 198.88 411.56C198.88 410.516 200.356 409.94 202.732 409.94C205.108 409.94 206.566 410.516 206.566 411.56C206.566 412.586 205.108 413.18 202.732 413.18ZM202.732 408.806C199.384 408.806 197.35 409.796 197.35 411.56C197.35 413.306 199.384 414.314 202.732 414.314C206.062 414.314 208.096 413.306 208.096 411.56C208.096 409.796 206.062 408.806 202.732 408.806ZM222.189 406.178V407.24H225.015V408.14H226.401V398.474H225.015V406.178H222.189ZM219.993 399.788C221.307 399.788 222.171 400.31 222.171 401.138C222.171 401.966 221.307 402.488 219.993 402.488C218.679 402.488 217.833 401.966 217.833 401.138C217.833 400.31 218.679 399.788 219.993 399.788ZM219.993 403.55C222.099 403.55 223.503 402.632 223.503 401.138C223.503 399.662 222.099 398.744 219.993 398.744C217.905 398.744 216.501 399.662 216.501 401.138C216.501 402.632 217.905 403.55 219.993 403.55ZM219.327 408.14H220.731V405.458C221.937 405.368 223.161 405.224 224.259 405.008L224.151 403.982C221.469 404.414 217.869 404.45 215.637 404.45L215.817 405.602C216.807 405.602 218.031 405.602 219.327 405.53V408.14ZM227.895 412.946H219.939V411.416H227.895V412.946ZM227.895 410.282H219.939V408.77H218.481V414.116H229.335V408.77H227.895V410.282ZM227.931 398.186V408.176H229.335V398.186H227.931Z" fill="#FFF000"/>
<rect x="591" y="357" width="198" height="70" rx="15" fill="#1E73FF"/>
<path d="M616.964 381.274H614.396V387H611.174V371.359H616.985C618.833 371.359 620.258 371.771 621.261 372.595C622.263 373.418 622.765 374.582 622.765 376.086C622.765 377.153 622.532 378.045 622.066 378.761C621.608 379.47 620.91 380.035 619.972 380.458L623.355 386.85V387H619.896L616.964 381.274ZM614.396 378.664H616.996C617.805 378.664 618.432 378.46 618.876 378.052C619.32 377.636 619.542 377.067 619.542 376.344C619.542 375.606 619.331 375.026 618.908 374.604C618.493 374.181 617.852 373.97 616.985 373.97H614.396V378.664ZM630.37 387.215C628.666 387.215 627.276 386.692 626.202 385.646C625.135 384.601 624.602 383.208 624.602 381.468V381.167C624.602 380 624.827 378.958 625.278 378.041C625.729 377.117 626.367 376.408 627.19 375.914C628.021 375.413 628.966 375.162 630.026 375.162C631.616 375.162 632.866 375.663 633.775 376.666C634.692 377.669 635.15 379.09 635.15 380.931V382.198H627.749C627.849 382.957 628.15 383.566 628.651 384.024C629.16 384.483 629.801 384.712 630.574 384.712C631.77 384.712 632.705 384.279 633.378 383.412L634.903 385.12C634.438 385.779 633.808 386.295 633.013 386.667C632.218 387.032 631.337 387.215 630.37 387.215ZM630.016 377.676C629.4 377.676 628.898 377.883 628.512 378.299C628.132 378.714 627.889 379.309 627.781 380.082H632.1V379.835C632.085 379.147 631.899 378.618 631.541 378.245C631.183 377.866 630.674 377.676 630.016 377.676ZM643.218 383.788C643.218 383.409 643.028 383.111 642.648 382.896C642.276 382.674 641.674 382.478 640.844 382.306C638.079 381.726 636.697 380.551 636.697 378.782C636.697 377.751 637.123 376.892 637.976 376.204C638.835 375.509 639.956 375.162 641.338 375.162C642.813 375.162 643.991 375.509 644.872 376.204C645.76 376.899 646.204 377.801 646.204 378.911H643.1C643.1 378.467 642.956 378.102 642.67 377.815C642.383 377.522 641.936 377.375 641.327 377.375C640.804 377.375 640.4 377.493 640.113 377.729C639.827 377.966 639.684 378.267 639.684 378.632C639.684 378.976 639.845 379.255 640.167 379.47C640.496 379.677 641.048 379.86 641.821 380.018C642.595 380.168 643.246 380.34 643.776 380.533C645.416 381.135 646.236 382.177 646.236 383.659C646.236 384.719 645.782 385.578 644.872 386.237C643.963 386.889 642.788 387.215 641.349 387.215C640.375 387.215 639.508 387.043 638.749 386.699C637.997 386.348 637.406 385.872 636.977 385.271C636.547 384.662 636.332 384.007 636.332 383.305H639.275C639.304 383.856 639.508 384.279 639.888 384.572C640.267 384.866 640.776 385.013 641.413 385.013C642.007 385.013 642.455 384.902 642.756 384.68C643.064 384.451 643.218 384.153 643.218 383.788ZM658.708 381.296C658.708 383.086 658.3 384.522 657.483 385.604C656.674 386.678 655.578 387.215 654.196 387.215C653.022 387.215 652.073 386.807 651.35 385.99V391.469H648.245V375.377H651.124L651.231 376.516C651.983 375.613 652.965 375.162 654.175 375.162C655.607 375.162 656.721 375.692 657.516 376.752C658.311 377.812 658.708 379.273 658.708 381.135V381.296ZM655.604 381.07C655.604 379.989 655.41 379.155 655.023 378.567C654.644 377.98 654.089 377.687 653.358 377.687C652.384 377.687 651.715 378.059 651.35 378.804V383.562C651.729 384.329 652.406 384.712 653.38 384.712C654.862 384.712 655.604 383.498 655.604 381.07ZM660.158 381.081C660.158 379.928 660.38 378.9 660.824 377.998C661.268 377.096 661.906 376.397 662.736 375.903C663.574 375.409 664.545 375.162 665.647 375.162C667.216 375.162 668.494 375.642 669.482 376.602C670.478 377.561 671.033 378.865 671.147 380.512L671.169 381.307C671.169 383.09 670.671 384.522 669.676 385.604C668.68 386.678 667.345 387.215 665.669 387.215C663.993 387.215 662.654 386.678 661.651 385.604C660.656 384.529 660.158 383.068 660.158 381.221V381.081ZM663.263 381.307C663.263 382.41 663.47 383.255 663.886 383.842C664.301 384.422 664.896 384.712 665.669 384.712C666.421 384.712 667.008 384.425 667.431 383.853C667.853 383.272 668.064 382.349 668.064 381.081C668.064 380 667.853 379.162 667.431 378.567C667.008 377.973 666.414 377.676 665.647 377.676C664.888 377.676 664.301 377.973 663.886 378.567C663.47 379.155 663.263 380.068 663.263 381.307ZM675.938 375.377L676.035 376.72C676.866 375.681 677.979 375.162 679.376 375.162C680.608 375.162 681.524 375.524 682.126 376.247C682.728 376.97 683.035 378.052 683.05 379.491V387H679.945V379.566C679.945 378.908 679.802 378.431 679.516 378.138C679.229 377.837 678.753 377.687 678.087 377.687C677.213 377.687 676.558 378.059 676.121 378.804V387H673.017V375.377H675.938ZM691.708 383.788C691.708 383.409 691.518 383.111 691.139 382.896C690.766 382.674 690.165 382.478 689.334 382.306C686.57 381.726 685.188 380.551 685.188 378.782C685.188 377.751 685.614 376.892 686.466 376.204C687.325 375.509 688.446 375.162 689.828 375.162C691.303 375.162 692.481 375.509 693.362 376.204C694.25 376.899 694.694 377.801 694.694 378.911H691.59C691.59 378.467 691.447 378.102 691.16 377.815C690.874 377.522 690.426 377.375 689.817 377.375C689.295 377.375 688.89 377.493 688.604 377.729C688.317 377.966 688.174 378.267 688.174 378.632C688.174 378.976 688.335 379.255 688.657 379.47C688.987 379.677 689.538 379.86 690.312 380.018C691.085 380.168 691.737 380.34 692.267 380.533C693.907 381.135 694.727 382.177 694.727 383.659C694.727 384.719 694.272 385.578 693.362 386.237C692.453 386.889 691.278 387.215 689.839 387.215C688.865 387.215 687.998 387.043 687.239 386.699C686.487 386.348 685.896 385.872 685.467 385.271C685.037 384.662 684.822 384.007 684.822 383.305H687.766C687.794 383.856 687.998 384.279 688.378 384.572C688.757 384.866 689.266 385.013 689.903 385.013C690.498 385.013 690.945 384.902 691.246 384.68C691.554 384.451 691.708 384.153 691.708 383.788ZM700.012 387H696.896V375.377H700.012V387ZM696.714 372.369C696.714 371.904 696.868 371.521 697.176 371.22C697.491 370.919 697.917 370.769 698.454 370.769C698.984 370.769 699.407 370.919 699.722 371.22C700.037 371.521 700.194 371.904 700.194 372.369C700.194 372.842 700.033 373.229 699.711 373.529C699.396 373.83 698.977 373.98 698.454 373.98C697.931 373.98 697.509 373.83 697.187 373.529C696.871 373.229 696.714 372.842 696.714 372.369ZM706.93 383.208L709.089 375.377H712.333L708.412 387H705.447L701.526 375.377H704.771L706.93 383.208ZM718.907 387.215C717.203 387.215 715.813 386.692 714.739 385.646C713.672 384.601 713.139 383.208 713.139 381.468V381.167C713.139 380 713.364 378.958 713.815 378.041C714.267 377.117 714.904 376.408 715.728 375.914C716.558 375.413 717.504 375.162 718.563 375.162C720.153 375.162 721.403 375.663 722.312 376.666C723.229 377.669 723.688 379.09 723.688 380.931V382.198H716.286C716.386 382.957 716.687 383.566 717.188 384.024C717.697 384.483 718.338 384.712 719.111 384.712C720.307 384.712 721.242 384.279 721.915 383.412L723.44 385.12C722.975 385.779 722.345 386.295 721.55 386.667C720.755 387.032 719.874 387.215 718.907 387.215ZM718.553 377.676C717.937 377.676 717.436 377.883 717.049 378.299C716.669 378.714 716.426 379.309 716.318 380.082H720.637V379.835C720.622 379.147 720.436 378.618 720.078 378.245C719.72 377.866 719.212 377.676 718.553 377.676ZM741.047 382.778L742.572 375.377H745.569L742.604 387H740.005L737.803 379.685L735.601 387H733.012L730.047 375.377H733.044L734.559 382.768L736.686 375.377H738.931L741.047 382.778ZM752.466 387.215C750.761 387.215 749.372 386.692 748.298 385.646C747.231 384.601 746.697 383.208 746.697 381.468V381.167C746.697 380 746.923 378.958 747.374 378.041C747.825 377.117 748.463 376.408 749.286 375.914C750.117 375.413 751.062 375.162 752.122 375.162C753.712 375.162 754.962 375.663 755.871 376.666C756.788 377.669 757.246 379.09 757.246 380.931V382.198H749.845C749.945 382.957 750.246 383.566 750.747 384.024C751.256 384.483 751.896 384.712 752.67 384.712C753.866 384.712 754.8 384.279 755.474 383.412L756.999 385.12C756.534 385.779 755.903 386.295 755.108 386.667C754.313 387.032 753.433 387.215 752.466 387.215ZM752.111 377.676C751.495 377.676 750.994 377.883 750.607 378.299C750.228 378.714 749.984 379.309 749.877 380.082H754.195V379.835C754.181 379.147 753.995 378.618 753.637 378.245C753.279 377.866 752.77 377.676 752.111 377.676ZM769.492 381.296C769.492 383.158 769.095 384.612 768.3 385.657C767.505 386.696 766.395 387.215 764.97 387.215C763.709 387.215 762.703 386.731 761.951 385.765L761.812 387H759.019V370.5H762.123V376.419C762.839 375.581 763.781 375.162 764.948 375.162C766.366 375.162 767.476 375.685 768.278 376.73C769.088 377.769 769.492 379.233 769.492 381.124V381.296ZM766.388 381.07C766.388 379.896 766.201 379.04 765.829 378.503C765.457 377.959 764.902 377.687 764.164 377.687C763.176 377.687 762.495 378.091 762.123 378.9V383.487C762.503 384.304 763.19 384.712 764.186 384.712C765.188 384.712 765.847 384.218 766.162 383.229C766.312 382.757 766.388 382.037 766.388 381.07Z" fill="white"/>
<path d="M662.3 406.16H657.728V403.208H662.3V406.16ZM663.74 399.356H662.3V402.056H657.728V399.356H656.27V407.348H663.74V399.356ZM659.564 408.914H658.088V413.972H668.852V412.766H659.564V408.914ZM668.132 403.082V398.204H666.656V410.048H668.132V404.324H670.508V403.082H668.132ZM672.163 406.034V407.222H686.743V406.034H672.163ZM679.453 408.572C676.015 408.572 673.927 409.598 673.927 411.452C673.927 413.288 676.015 414.332 679.453 414.332C682.909 414.332 684.979 413.288 684.979 411.452C684.979 409.598 682.909 408.572 679.453 408.572ZM679.453 409.706C681.991 409.706 683.485 410.354 683.485 411.452C683.485 412.55 681.991 413.18 679.453 413.18C676.915 413.18 675.421 412.55 675.421 411.452C675.421 410.354 676.915 409.706 679.453 409.706ZM679.453 398.6C675.979 398.6 673.783 399.734 673.783 401.678C673.783 403.604 675.979 404.738 679.453 404.738C682.945 404.738 685.123 403.604 685.123 401.678C685.123 399.734 682.945 398.6 679.453 398.6ZM679.453 399.752C682.009 399.752 683.611 400.472 683.611 401.678C683.611 402.866 682.009 403.586 679.453 403.586C676.897 403.586 675.295 402.866 675.295 401.678C675.295 400.472 676.897 399.752 679.453 399.752ZM700.53 405.206H697.794V406.412H700.53V408.608H702.024V398.186H700.53V402.074H697.812V403.262H700.53V405.206ZM697.794 399.968H694.086V398.042H692.61V399.968H688.758V401.156H697.794V399.968ZM691.062 404.972C691.062 403.856 691.98 403.118 693.33 403.118C694.68 403.118 695.598 403.856 695.598 404.972C695.598 406.106 694.68 406.844 693.33 406.844C691.98 406.844 691.062 406.106 691.062 404.972ZM696.984 404.972C696.984 403.172 695.472 401.984 693.33 401.984C691.17 401.984 689.676 403.172 689.676 404.972C689.676 406.79 691.17 407.978 693.33 407.978C695.472 407.978 696.984 406.79 696.984 404.972ZM696.732 413.18C694.356 413.18 692.88 412.586 692.88 411.56C692.88 410.516 694.356 409.94 696.732 409.94C699.108 409.94 700.566 410.516 700.566 411.56C700.566 412.586 699.108 413.18 696.732 413.18ZM696.732 408.806C693.384 408.806 691.35 409.796 691.35 411.56C691.35 413.306 693.384 414.314 696.732 414.314C700.062 414.314 702.096 413.306 702.096 411.56C702.096 409.796 700.062 408.806 696.732 408.806ZM716.189 406.178V407.24H719.015V408.14H720.401V398.474H719.015V406.178H716.189ZM713.993 399.788C715.307 399.788 716.171 400.31 716.171 401.138C716.171 401.966 715.307 402.488 713.993 402.488C712.679 402.488 711.833 401.966 711.833 401.138C711.833 400.31 712.679 399.788 713.993 399.788ZM713.993 403.55C716.099 403.55 717.503 402.632 717.503 401.138C717.503 399.662 716.099 398.744 713.993 398.744C711.905 398.744 710.501 399.662 710.501 401.138C710.501 402.632 711.905 403.55 713.993 403.55ZM713.327 408.14H714.731V405.458C715.937 405.368 717.161 405.224 718.259 405.008L718.151 403.982C715.469 404.414 711.869 404.45 709.637 404.45L709.817 405.602C710.807 405.602 712.031 405.602 713.327 405.53V408.14ZM721.895 412.946H713.939V411.416H721.895V412.946ZM721.895 410.282H713.939V408.77H712.481V414.116H723.335V408.77H721.895V410.282ZM721.931 398.186V408.176H723.335V398.186H721.931Z" fill="#FFF000"/>
<defs>
<linearGradient id="paint0_linear" x1="25.3425" y1="244.873" x2="25.3425" y2="274.083" gradientUnits="userSpaceOnUse">
<stop stop-color="white" stop-opacity="0.46"/>
<stop offset="0.651042" stop-color="white" stop-opacity="0"/>
</linearGradient>
<linearGradient id="paint1_linear" x1="122.373" y1="217.146" x2="122.373" y2="293.893" gradientUnits="userSpaceOnUse">
<stop stop-color="white" stop-opacity="0.46"/>
<stop offset="0.651042" stop-color="white" stop-opacity="0"/>
</linearGradient>
<linearGradient id="paint2_linear" x1="326.471" y1="164.212" x2="326.471" y2="291.72" gradientUnits="userSpaceOnUse">
<stop stop-color="white" stop-opacity="0.46"/>
<stop offset="0.651042" stop-color="white" stop-opacity="0"/>
</linearGradient>
<linearGradient id="paint3_linear" x1="706.904" y1="164.212" x2="706.904" y2="291.72" gradientUnits="userSpaceOnUse">
<stop stop-color="white" stop-opacity="0.46"/>
<stop offset="0.651042" stop-color="white" stop-opacity="0"/>
</linearGradient>
<linearGradient id="paint4_linear" x1="806.919" y1="217.146" x2="806.919" y2="293.893" gradientUnits="userSpaceOnUse">
<stop stop-color="white" stop-opacity="0.46"/>
<stop offset="0.651042" stop-color="white" stop-opacity="0"/>
</linearGradient>
<linearGradient id="paint5_linear" x1="578.343" y1="244.873" x2="578.343" y2="274.083" gradientUnits="userSpaceOnUse">
<stop stop-color="white" stop-opacity="0.46"/>
<stop offset="0.651042" stop-color="white" stop-opacity="0"/>
</linearGradient>
</defs>
</svg>
