<svg width="715" height="154" viewBox="0 0 715 154" fill="none" xmlns="http://www.w3.org/2000/svg">
<path d="M44.5 55H358" stroke="#163875" stroke-width="4" stroke-linecap="round" stroke-dasharray="1 8"/>
<path d="M45.4142 83.5858C44.6332 82.8047 43.3668 82.8047 42.5858 83.5858L29.8579 96.3137C29.0768 97.0948 29.0768 98.3611 29.8579 99.1421C30.6389 99.9232 31.9052 99.9232 32.6863 99.1421L44 87.8284L55.3137 99.1421C56.0948 99.9232 57.3611 99.9232 58.1421 99.1421C58.9232 98.3611 58.9232 97.0948 58.1421 96.3137L45.4142 83.5858ZM42 120C42 121.105 42.8954 122 44 122C45.1046 122 46 121.105 46 120L42 120ZM42 85L42 120L46 120L46 85L42 85Z" fill="#222222"/>
<path d="M560.414 83.5858C559.633 82.8047 558.367 82.8047 557.586 83.5858L544.858 96.3137C544.077 97.0948 544.077 98.3611 544.858 99.1421C545.639 99.9232 546.905 99.9232 547.686 99.1421L559 87.8284L570.314 99.1421C571.095 99.9232 572.361 99.9232 573.142 99.1421C573.923 98.3611 573.923 97.0948 573.142 96.3137L560.414 83.5858ZM557 120C557 121.105 557.895 122 559 122C560.105 122 561 121.105 561 120L557 120ZM557 85L557 120L561 120L561 85L557 85Z" fill="#222222"/>
<path d="M362.5 55H562.5" stroke="#F79D30" stroke-width="4"/>
<path d="M556 55H698.5" stroke="#1E73FF" stroke-width="4"/>
<circle cx="44" cy="55" r="14" fill="#163875"/>
<circle cx="360" cy="55" r="14" fill="#F79D30"/>
<circle cx="559" cy="55" r="14" fill="#1E73FF"/>
<circle cx="701" cy="55" r="14" fill="#1E73FF"/>
<path d="M168.668 20H166.861V9.43359H168.668V20ZM166.715 6.63086C166.715 6.33789 166.803 6.09049 166.979 5.88867C167.161 5.68685 167.428 5.58594 167.779 5.58594C168.131 5.58594 168.398 5.68685 168.58 5.88867C168.762 6.09049 168.854 6.33789 168.854 6.63086C168.854 6.92383 168.762 7.16797 168.58 7.36328C168.398 7.55859 168.131 7.65625 167.779 7.65625C167.428 7.65625 167.161 7.55859 166.979 7.36328C166.803 7.16797 166.715 6.92383 166.715 6.63086ZM173.277 9.43359L173.336 10.7617C174.143 9.74609 175.198 9.23828 176.5 9.23828C178.733 9.23828 179.859 10.498 179.879 13.0176V20H178.072V13.0078C178.066 12.2461 177.89 11.6829 177.545 11.3184C177.206 10.9538 176.676 10.7715 175.953 10.7715C175.367 10.7715 174.853 10.9277 174.41 11.2402C173.967 11.5527 173.622 11.9629 173.375 12.4707V20H171.568V9.43359H173.277ZM186.09 17.5488L188.707 9.43359H190.553L186.764 20H185.387L181.559 9.43359H183.404L186.09 17.5488ZM194.254 20H192.447V9.43359H194.254V20ZM192.301 6.63086C192.301 6.33789 192.389 6.09049 192.564 5.88867C192.747 5.68685 193.014 5.58594 193.365 5.58594C193.717 5.58594 193.984 5.68685 194.166 5.88867C194.348 6.09049 194.439 6.33789 194.439 6.63086C194.439 6.92383 194.348 7.16797 194.166 7.36328C193.984 7.55859 193.717 7.65625 193.365 7.65625C193.014 7.65625 192.747 7.55859 192.564 7.36328C192.389 7.16797 192.301 6.92383 192.301 6.63086ZM203.307 17.1973C203.307 16.709 203.121 16.3314 202.75 16.0645C202.385 15.791 201.744 15.5566 200.826 15.3613C199.915 15.166 199.189 14.9316 198.648 14.6582C198.115 14.3848 197.717 14.0592 197.457 13.6816C197.203 13.304 197.076 12.8548 197.076 12.334C197.076 11.4681 197.441 10.7357 198.17 10.1367C198.906 9.53776 199.843 9.23828 200.982 9.23828C202.18 9.23828 203.15 9.54753 203.893 10.166C204.641 10.7845 205.016 11.5755 205.016 12.5391H203.199C203.199 12.0443 202.988 11.6178 202.564 11.2598C202.148 10.9017 201.62 10.7227 200.982 10.7227C200.325 10.7227 199.811 10.8659 199.439 11.1523C199.068 11.4388 198.883 11.8132 198.883 12.2754C198.883 12.7116 199.055 13.0404 199.4 13.2617C199.745 13.4831 200.367 13.6947 201.266 13.8965C202.171 14.0983 202.903 14.3392 203.463 14.6191C204.023 14.8991 204.436 15.2376 204.703 15.6348C204.977 16.0254 205.113 16.5039 205.113 17.0703C205.113 18.0143 204.736 18.7728 203.98 19.3457C203.225 19.9121 202.245 20.1953 201.041 20.1953C200.195 20.1953 199.446 20.0456 198.795 19.7461C198.144 19.4466 197.633 19.0299 197.262 18.4961C196.897 17.9557 196.715 17.373 196.715 16.748H198.521C198.554 17.3535 198.795 17.8353 199.244 18.1934C199.7 18.5449 200.299 18.7207 201.041 18.7207C201.725 18.7207 202.271 18.584 202.682 18.3105C203.098 18.0306 203.307 17.6595 203.307 17.1973ZM209.43 20H207.623V9.43359H209.43V20ZM207.477 6.63086C207.477 6.33789 207.564 6.09049 207.74 5.88867C207.923 5.68685 208.189 5.58594 208.541 5.58594C208.893 5.58594 209.16 5.68685 209.342 5.88867C209.524 6.09049 209.615 6.33789 209.615 6.63086C209.615 6.92383 209.524 7.16797 209.342 7.36328C209.16 7.55859 208.893 7.65625 208.541 7.65625C208.189 7.65625 207.923 7.55859 207.74 7.36328C207.564 7.16797 207.477 6.92383 207.477 6.63086ZM221.275 14.834C221.275 16.4486 220.904 17.7474 220.162 18.7305C219.42 19.707 218.424 20.1953 217.174 20.1953C215.839 20.1953 214.807 19.7233 214.078 18.7793L213.99 20H212.33V5H214.137V10.5957C214.866 9.69076 215.872 9.23828 217.154 9.23828C218.437 9.23828 219.443 9.72331 220.172 10.6934C220.908 11.6634 221.275 12.9915 221.275 14.6777V14.834ZM219.469 14.6289C219.469 13.3984 219.231 12.4479 218.756 11.7773C218.281 11.1068 217.597 10.7715 216.705 10.7715C215.514 10.7715 214.658 11.3249 214.137 12.4316V17.002C214.69 18.1087 215.553 18.6621 216.725 18.6621C217.59 18.6621 218.264 18.3268 218.746 17.6562C219.228 16.9857 219.469 15.9766 219.469 14.6289ZM225.523 20H223.717V5H225.523V20ZM232.809 20.1953C231.376 20.1953 230.211 19.7266 229.312 18.7891C228.414 17.8451 227.965 16.5853 227.965 15.0098V14.6777C227.965 13.6296 228.163 12.6953 228.561 11.875C228.964 11.0482 229.524 10.4036 230.24 9.94141C230.963 9.47266 231.744 9.23828 232.584 9.23828C233.958 9.23828 235.025 9.69076 235.787 10.5957C236.549 11.5007 236.93 12.7962 236.93 14.4824V15.2344H229.771C229.798 16.276 230.1 17.1191 230.68 17.7637C231.266 18.4017 232.008 18.7207 232.906 18.7207C233.544 18.7207 234.085 18.5905 234.527 18.3301C234.97 18.0697 235.357 17.7246 235.689 17.2949L236.793 18.1543C235.908 19.515 234.579 20.1953 232.809 20.1953ZM232.584 10.7227C231.855 10.7227 231.243 10.9896 230.748 11.5234C230.253 12.0508 229.947 12.793 229.83 13.75H235.123V13.6133C235.071 12.6953 234.824 11.9857 234.381 11.4844C233.938 10.9766 233.339 10.7227 232.584 10.7227Z" fill="#163875"/>
<path d="M7.7603 140.178V141.24H10.5863V142.14H11.9723V132.474H10.5863V140.178H7.7603ZM5.5643 133.788C6.87831 133.788 7.74231 134.31 7.74231 135.138C7.74231 135.966 6.87831 136.488 5.5643 136.488C4.2503 136.488 3.4043 135.966 3.4043 135.138C3.4043 134.31 4.2503 133.788 5.5643 133.788ZM5.5643 137.55C7.67031 137.55 9.07431 136.632 9.07431 135.138C9.07431 133.662 7.67031 132.744 5.5643 132.744C3.4763 132.744 2.0723 133.662 2.0723 135.138C2.0723 136.632 3.4763 137.55 5.5643 137.55ZM4.8983 142.14H6.3023V139.458C7.5083 139.368 8.73231 139.224 9.83031 139.008L9.72231 137.982C7.04031 138.414 3.4403 138.45 1.2083 138.45L1.3883 139.602C2.3783 139.602 3.6023 139.602 4.8983 139.53V142.14ZM13.4663 146.946H5.5103V145.416H13.4663V146.946ZM13.4663 144.282H5.5103V142.77H4.0523V148.116H14.9063V142.77H13.4663V144.282ZM13.5023 132.186V142.176H14.9063V132.186H13.5023ZM21.2229 143.544H19.7469V147.972H30.8529V146.766H21.2229V143.544ZM23.1489 134.112H27.1629V137.784H23.1489V134.112ZM25.9209 140.934V138.972H31.0149V137.784H28.6389V134.112H31.0689V132.924H19.2249V134.112H21.6729V137.784H19.2789V138.972H24.4449V140.934H17.8569V142.122H32.4549V140.934H25.9209ZM47.3935 140.898H37.7995V138.342H46.8715V137.172H37.7995V134.778H47.2315V133.59H36.3055V142.086H47.3935V140.898ZM34.4155 145.038V146.244H49.0675V145.038H34.4155ZM60.5325 141.24C61.1985 141.402 61.9725 141.492 62.7645 141.492C63.5745 141.492 64.3485 141.402 65.0325 141.24V145.038H60.5325V141.24ZM62.7645 134.364C65.3565 134.364 67.2285 135.552 67.2285 137.352C67.2285 139.152 65.3565 140.34 62.7645 140.34C60.1725 140.34 58.3185 139.152 58.3185 137.352C58.3185 135.552 60.1725 134.364 62.7645 134.364ZM66.5085 145.038V140.664C67.8405 139.962 68.6325 138.81 68.6325 137.352C68.6325 134.832 66.2025 133.212 62.7645 133.212C59.3445 133.212 56.8965 134.832 56.8965 137.352C56.8965 138.81 57.7065 139.98 59.0565 140.682V145.038H55.4565V146.262H70.1265V145.038H66.5085ZM80.6191 136.776V138H83.8411V141.978H85.3351V132.186H83.8411V136.776H80.6191ZM81.5911 140.142C79.2151 139.44 77.5411 137.64 77.5411 135.624V135.318H81.1051V134.13H77.5411V132.096H76.0651V134.13H72.4831V135.318H76.0651V135.624C76.0651 137.802 74.4451 139.764 72.0691 140.574L72.7891 141.708C74.6971 141.078 76.1551 139.71 76.8391 137.946C77.5771 139.512 79.0351 140.718 80.8891 141.294L81.5911 140.142ZM79.9891 147.162C77.5591 147.162 76.1011 146.478 76.1011 145.344C76.1011 144.228 77.5591 143.544 79.9891 143.544C82.4551 143.544 83.9131 144.228 83.9131 145.344C83.9131 146.478 82.4371 147.162 79.9891 147.162ZM79.9891 142.392C76.6771 142.392 74.6251 143.472 74.6251 145.344C74.6251 147.234 76.6771 148.314 79.9891 148.314C83.3371 148.314 85.3891 147.234 85.3891 145.344C85.3891 143.472 83.3371 142.392 79.9891 142.392Z" fill="black"/>
<path d="M509.197 134.958H515.227V133.734H507.721V144.336H508.999C512.041 144.336 514.165 144.228 516.631 143.76L516.469 142.536C514.129 142.95 512.059 143.076 509.197 143.076V134.958ZM522.121 138.558H519.457V132.186H517.981V148.368H519.457V139.782H522.121V138.558ZM530.886 133.788C533.37 133.788 534.99 134.562 534.99 135.84C534.99 137.1 533.37 137.874 530.886 137.874C528.42 137.874 526.782 137.1 526.782 135.84C526.782 134.562 528.42 133.788 530.886 133.788ZM530.886 139.08C534.306 139.08 536.538 137.838 536.538 135.84C536.538 133.842 534.306 132.6 530.886 132.6C527.466 132.6 525.234 133.842 525.234 135.84C525.234 137.838 527.466 139.08 530.886 139.08ZM526.926 143.256H525.45V147.972H536.61V146.748H526.926V143.256ZM523.578 140.376V141.582H530.274V144.84H531.768V141.582H538.212V140.376H523.578ZM548.2 145.128V142.086H553.366V140.898H543.43V138.288H552.988V133.374H541.936V134.58H551.548V137.1H541.972V142.086H546.706V145.128H540.136V146.334H554.806V145.128H548.2ZM569.655 139.926H560.025V134.886H569.493V133.662H558.567V141.132H569.655V139.926ZM556.695 144.93V146.154H571.347V144.93H556.695ZM580.04 136.11C580.04 134.886 581.102 134.058 582.65 134.058C584.162 134.058 585.242 134.886 585.242 136.11C585.242 137.352 584.162 138.162 582.65 138.162C581.102 138.162 580.04 137.352 580.04 136.11ZM587.798 140.412C586.394 140.628 584.9 140.736 583.406 140.826V139.242C585.332 139.008 586.628 137.82 586.628 136.11C586.628 134.22 584.99 132.942 582.65 132.942C580.292 132.942 578.672 134.22 578.672 136.11C578.672 137.838 579.968 139.026 581.93 139.26V140.88C580.418 140.934 578.978 140.952 577.736 140.952L577.934 142.158C580.688 142.158 584.522 142.104 587.888 141.492L587.798 140.412ZM581.534 143.508H580.058V147.954H590.84V146.748H581.534V143.508ZM590.264 137.658V132.204H588.788V144.552H590.264V138.882H592.622V137.658H590.264ZM599.856 142.068H603.546V145.128H599.856V142.068ZM605.004 145.128V142.068H607.524V140.862H597.588V138.27H607.146V133.374H596.094V134.58H605.706V137.082H596.13V142.068H598.398V145.128H594.294V146.334H608.964V145.128H605.004Z" fill="black"/>
<path d="M430.619 20V10.8301H428.949V9.43359H430.619V8.34961C430.619 7.2168 430.922 6.34115 431.527 5.72266C432.133 5.10417 432.989 4.79492 434.096 4.79492C434.512 4.79492 434.926 4.85026 435.336 4.96094L435.238 6.42578C434.932 6.36719 434.607 6.33789 434.262 6.33789C433.676 6.33789 433.223 6.51042 432.904 6.85547C432.585 7.19401 432.426 7.68229 432.426 8.32031V9.43359H434.682V10.8301H432.426V20H430.619ZM443.207 20C443.103 19.7917 443.018 19.4206 442.953 18.8867C442.113 19.7591 441.111 20.1953 439.945 20.1953C438.904 20.1953 438.048 19.9023 437.377 19.3164C436.713 18.724 436.381 17.9753 436.381 17.0703C436.381 15.9701 436.798 15.1172 437.631 14.5117C438.471 13.8997 439.649 13.5938 441.166 13.5938H442.924V12.7637C442.924 12.1322 442.735 11.6309 442.357 11.2598C441.98 10.8822 441.423 10.6934 440.688 10.6934C440.043 10.6934 439.503 10.8561 439.066 11.1816C438.63 11.5072 438.412 11.901 438.412 12.3633H436.596C436.596 11.8359 436.781 11.3281 437.152 10.8398C437.53 10.3451 438.038 9.95443 438.676 9.66797C439.32 9.38151 440.027 9.23828 440.795 9.23828C442.012 9.23828 442.966 9.54427 443.656 10.1562C444.346 10.7617 444.704 11.5983 444.73 12.666V17.5293C444.73 18.4993 444.854 19.2708 445.102 19.8438V20H443.207ZM440.209 18.623C440.775 18.623 441.312 18.4766 441.82 18.1836C442.328 17.8906 442.696 17.5098 442.924 17.041V14.873H441.508C439.294 14.873 438.188 15.5208 438.188 16.8164C438.188 17.3828 438.376 17.8255 438.754 18.1445C439.132 18.4635 439.617 18.623 440.209 18.623ZM449.525 20H447.719V5H449.525V20ZM454.389 20H452.582V5H454.389V20ZM466.234 14.834C466.234 16.4486 465.863 17.7474 465.121 18.7305C464.379 19.707 463.383 20.1953 462.133 20.1953C460.798 20.1953 459.766 19.7233 459.037 18.7793L458.949 20H457.289V5H459.096V10.5957C459.825 9.69076 460.831 9.23828 462.113 9.23828C463.396 9.23828 464.402 9.72331 465.131 10.6934C465.867 11.6634 466.234 12.9915 466.234 14.6777V14.834ZM464.428 14.6289C464.428 13.3984 464.19 12.4479 463.715 11.7773C463.24 11.1068 462.556 10.7715 461.664 10.7715C460.473 10.7715 459.617 11.3249 459.096 12.4316V17.002C459.649 18.1087 460.512 18.6621 461.684 18.6621C462.549 18.6621 463.223 18.3268 463.705 17.6562C464.187 16.9857 464.428 15.9766 464.428 14.6289ZM475.043 20C474.939 19.7917 474.854 19.4206 474.789 18.8867C473.949 19.7591 472.947 20.1953 471.781 20.1953C470.74 20.1953 469.883 19.9023 469.213 19.3164C468.549 18.724 468.217 17.9753 468.217 17.0703C468.217 15.9701 468.633 15.1172 469.467 14.5117C470.307 13.8997 471.485 13.5938 473.002 13.5938H474.76V12.7637C474.76 12.1322 474.571 11.6309 474.193 11.2598C473.816 10.8822 473.259 10.6934 472.523 10.6934C471.879 10.6934 471.339 10.8561 470.902 11.1816C470.466 11.5072 470.248 11.901 470.248 12.3633H468.432C468.432 11.8359 468.617 11.3281 468.988 10.8398C469.366 10.3451 469.874 9.95443 470.512 9.66797C471.156 9.38151 471.863 9.23828 472.631 9.23828C473.848 9.23828 474.802 9.54427 475.492 10.1562C476.182 10.7617 476.54 11.5983 476.566 12.666V17.5293C476.566 18.4993 476.69 19.2708 476.938 19.8438V20H475.043ZM472.045 18.623C472.611 18.623 473.148 18.4766 473.656 18.1836C474.164 17.8906 474.532 17.5098 474.76 17.041V14.873H473.344C471.13 14.873 470.023 15.5208 470.023 16.8164C470.023 17.3828 470.212 17.8255 470.59 18.1445C470.967 18.4635 471.452 18.623 472.045 18.623ZM483.637 18.7207C484.281 18.7207 484.844 18.5254 485.326 18.1348C485.808 17.7441 486.075 17.2559 486.127 16.6699H487.836C487.803 17.2754 487.595 17.8516 487.211 18.3984C486.827 18.9453 486.312 19.3815 485.668 19.707C485.03 20.0326 484.353 20.1953 483.637 20.1953C482.198 20.1953 481.052 19.7168 480.199 18.7598C479.353 17.7962 478.93 16.4811 478.93 14.8145V14.5117C478.93 13.4831 479.118 12.5684 479.496 11.7676C479.874 10.9668 480.414 10.3451 481.117 9.90234C481.827 9.45964 482.663 9.23828 483.627 9.23828C484.812 9.23828 485.795 9.5931 486.576 10.3027C487.364 11.0124 487.784 11.9336 487.836 13.0664H486.127C486.075 12.3828 485.814 11.8229 485.346 11.3867C484.883 10.944 484.311 10.7227 483.627 10.7227C482.709 10.7227 481.996 11.0547 481.488 11.7188C480.987 12.3763 480.736 13.3301 480.736 14.5801V14.9219C480.736 16.1393 480.987 17.0768 481.488 17.7344C481.99 18.3919 482.706 18.7207 483.637 18.7207ZM492.816 15.1074L491.684 16.2891V20H489.877V5H491.684V14.0723L492.65 12.9102L495.941 9.43359H498.139L494.027 13.8477L498.617 20H496.498L492.816 15.1074Z" fill="#F79D30"/>
<path d="M353.037 94.0117H354.395C355.247 93.9987 355.918 93.7741 356.406 93.3379C356.895 92.9017 357.139 92.3125 357.139 91.5703C357.139 89.9036 356.309 89.0703 354.648 89.0703C353.867 89.0703 353.242 89.2949 352.773 89.7441C352.311 90.1868 352.08 90.776 352.08 91.5117H350.273C350.273 90.3854 350.684 89.4512 351.504 88.709C352.331 87.9603 353.379 87.5859 354.648 87.5859C355.99 87.5859 357.041 87.9408 357.803 88.6504C358.564 89.36 358.945 90.3464 358.945 91.6094C358.945 92.2279 358.743 92.8268 358.34 93.4062C357.943 93.9857 357.399 94.4186 356.709 94.7051C357.49 94.9525 358.092 95.3626 358.516 95.9355C358.945 96.5085 359.16 97.2083 359.16 98.0352C359.16 99.3112 358.743 100.324 357.91 101.072C357.077 101.821 355.993 102.195 354.658 102.195C353.324 102.195 352.236 101.834 351.396 101.111C350.563 100.389 350.146 99.4349 350.146 98.25H351.963C351.963 98.9987 352.207 99.5977 352.695 100.047C353.184 100.496 353.838 100.721 354.658 100.721C355.531 100.721 356.198 100.493 356.66 100.037C357.122 99.5814 357.354 98.9271 357.354 98.0742C357.354 97.2474 357.1 96.6126 356.592 96.1699C356.084 95.7272 355.352 95.4993 354.395 95.4863H353.037V94.0117ZM367.979 99.1973C367.979 98.709 367.793 98.3314 367.422 98.0645C367.057 97.791 366.416 97.5566 365.498 97.3613C364.587 97.166 363.861 96.9316 363.32 96.6582C362.786 96.3848 362.389 96.0592 362.129 95.6816C361.875 95.304 361.748 94.8548 361.748 94.334C361.748 93.4681 362.113 92.7357 362.842 92.1367C363.577 91.5378 364.515 91.2383 365.654 91.2383C366.852 91.2383 367.822 91.5475 368.564 92.166C369.313 92.7845 369.688 93.5755 369.688 94.5391H367.871C367.871 94.0443 367.66 93.6178 367.236 93.2598C366.82 92.9017 366.292 92.7227 365.654 92.7227C364.997 92.7227 364.482 92.8659 364.111 93.1523C363.74 93.4388 363.555 93.8132 363.555 94.2754C363.555 94.7116 363.727 95.0404 364.072 95.2617C364.417 95.4831 365.039 95.6947 365.938 95.8965C366.842 96.0983 367.575 96.3392 368.135 96.6191C368.695 96.8991 369.108 97.2376 369.375 97.6348C369.648 98.0254 369.785 98.5039 369.785 99.0703C369.785 100.014 369.408 100.773 368.652 101.346C367.897 101.912 366.917 102.195 365.713 102.195C364.867 102.195 364.118 102.046 363.467 101.746C362.816 101.447 362.305 101.03 361.934 100.496C361.569 99.9557 361.387 99.373 361.387 98.748H363.193C363.226 99.3535 363.467 99.8353 363.916 100.193C364.372 100.545 364.971 100.721 365.713 100.721C366.396 100.721 366.943 100.584 367.354 100.311C367.77 100.031 367.979 99.6595 367.979 99.1973Z" fill="black"/>
<path d="M601.816 17.5098L603.848 9.43359H605.654L602.578 20H601.113L598.545 11.9922L596.045 20H594.58L591.514 9.43359H593.311L595.391 17.3438L597.852 9.43359H599.307L601.816 17.5098ZM611.885 20.1953C610.452 20.1953 609.287 19.7266 608.389 18.7891C607.49 17.8451 607.041 16.5853 607.041 15.0098V14.6777C607.041 13.6296 607.24 12.6953 607.637 11.875C608.04 11.0482 608.6 10.4036 609.316 9.94141C610.039 9.47266 610.82 9.23828 611.66 9.23828C613.034 9.23828 614.102 9.69076 614.863 10.5957C615.625 11.5007 616.006 12.7962 616.006 14.4824V15.2344H608.848C608.874 16.276 609.176 17.1191 609.756 17.7637C610.342 18.4017 611.084 18.7207 611.982 18.7207C612.62 18.7207 613.161 18.5905 613.604 18.3301C614.046 18.0697 614.434 17.7246 614.766 17.2949L615.869 18.1543C614.984 19.515 613.656 20.1953 611.885 20.1953ZM611.66 10.7227C610.931 10.7227 610.319 10.9896 609.824 11.5234C609.329 12.0508 609.023 12.793 608.906 13.75H614.199V13.6133C614.147 12.6953 613.9 11.9857 613.457 11.4844C613.014 10.9766 612.415 10.7227 611.66 10.7227ZM627.051 14.834C627.051 16.4486 626.68 17.7474 625.938 18.7305C625.195 19.707 624.199 20.1953 622.949 20.1953C621.615 20.1953 620.583 19.7233 619.854 18.7793L619.766 20H618.105V5H619.912V10.5957C620.641 9.69076 621.647 9.23828 622.93 9.23828C624.212 9.23828 625.218 9.72331 625.947 10.6934C626.683 11.6634 627.051 12.9915 627.051 14.6777V14.834ZM625.244 14.6289C625.244 13.3984 625.007 12.4479 624.531 11.7773C624.056 11.1068 623.372 10.7715 622.48 10.7715C621.289 10.7715 620.433 11.3249 619.912 12.4316V17.002C620.465 18.1087 621.328 18.6621 622.5 18.6621C623.366 18.6621 624.04 18.3268 624.521 17.6562C625.003 16.9857 625.244 15.9766 625.244 14.6289ZM630.225 20V10.8301H628.555V9.43359H630.225V8.34961C630.225 7.2168 630.527 6.34115 631.133 5.72266C631.738 5.10417 632.594 4.79492 633.701 4.79492C634.118 4.79492 634.531 4.85026 634.941 4.96094L634.844 6.42578C634.538 6.36719 634.212 6.33789 633.867 6.33789C633.281 6.33789 632.829 6.51042 632.51 6.85547C632.191 7.19401 632.031 7.68229 632.031 8.32031V9.43359H634.287V10.8301H632.031V20H630.225ZM635.811 14.6191C635.811 13.584 636.012 12.653 636.416 11.8262C636.826 10.9993 637.393 10.3613 638.115 9.91211C638.844 9.46289 639.674 9.23828 640.605 9.23828C642.044 9.23828 643.206 9.73633 644.092 10.7324C644.984 11.7285 645.43 13.0534 645.43 14.707V14.834C645.43 15.8626 645.231 16.7871 644.834 17.6074C644.443 18.4212 643.88 19.056 643.145 19.5117C642.415 19.9674 641.576 20.1953 640.625 20.1953C639.193 20.1953 638.031 19.6973 637.139 18.7012C636.253 17.7051 635.811 16.3867 635.811 14.7461V14.6191ZM637.627 14.834C637.627 16.0059 637.897 16.9466 638.438 17.6562C638.984 18.3659 639.714 18.7207 640.625 18.7207C641.543 18.7207 642.272 18.3626 642.812 17.6465C643.353 16.9238 643.623 15.9147 643.623 14.6191C643.623 13.4603 643.346 12.5228 642.793 11.8066C642.246 11.084 641.517 10.7227 640.605 10.7227C639.714 10.7227 638.994 11.0775 638.447 11.7871C637.9 12.4967 637.627 13.5124 637.627 14.834ZM649.404 9.43359L649.463 10.7617C650.27 9.74609 651.325 9.23828 652.627 9.23828C654.86 9.23828 655.986 10.498 656.006 13.0176V20H654.199V13.0078C654.193 12.2461 654.017 11.6829 653.672 11.3184C653.333 10.9538 652.803 10.7715 652.08 10.7715C651.494 10.7715 650.98 10.9277 650.537 11.2402C650.094 11.5527 649.749 11.9629 649.502 12.4707V20H647.695V9.43359H649.404ZM661.182 6.875V9.43359H663.154V10.8301H661.182V17.3828C661.182 17.806 661.27 18.125 661.445 18.3398C661.621 18.5482 661.921 18.6523 662.344 18.6523C662.552 18.6523 662.839 18.6133 663.203 18.5352V20C662.728 20.1302 662.266 20.1953 661.816 20.1953C661.009 20.1953 660.4 19.9512 659.99 19.4629C659.58 18.9746 659.375 18.2812 659.375 17.3828V10.8301H657.451V9.43359H659.375V6.875H661.182Z" fill="#1E73FF"/>
</svg>
