<svg width="666" height="130" viewBox="0 0 666 130" fill="none" xmlns="http://www.w3.org/2000/svg">
<rect x="50" y="14" width="50" height="113" fill="#1E73FF"/>
<rect x="220" y="14" width="50" height="113" fill="#1E73FF"/>
<rect x="381" y="14" width="50" height="113" fill="#1E73FF"/>
<rect x="554" y="14" width="50" height="113" fill="#1E73FF"/>
<rect y="14" width="50" height="113" fill="#379AD6"/>
<rect x="170" y="14" width="50" height="113" fill="#379AD6"/>
<rect x="343" y="14" width="38" height="113" fill="#379AD6"/>
<rect x="516" y="14" width="38" height="113" fill="#379AD6"/>
<rect x="100" y="14" width="50" height="113" fill="#80CFFF"/>
<rect x="270" y="14" width="50" height="113" fill="#80CFFF"/>
<rect x="431" y="14" width="38" height="113" fill="#80CFFF"/>
<rect x="604" y="14" width="38" height="113" fill="#80CFFF"/>
<rect x="47" width="56" height="14" fill="#FFF000"/>
<rect x="48.5" y="1.5" width="53" height="127" stroke="black" stroke-width="3"/>
<rect x="170" width="103" height="14" fill="#FFF000"/>
<rect x="171.5" y="1.5" width="100" height="127" stroke="black" stroke-width="3"/>
<rect x="340" width="132" height="14" fill="#FFF000"/>
<rect x="341.5" y="1.5" width="129" height="127" stroke="black" stroke-width="3"/>
<rect x="492" width="174" height="14" fill="#FFF000"/>
<rect x="493.5" y="1.5" width="171" height="127" stroke="black" stroke-width="3"/>
</svg>
