<?xml version="1.0" standalone="no"?>
<!DOCTYPE svg PUBLIC "-//W3C//DTD SVG 1.1//EN" "http://www.w3.org/Graphics/SVG/1.1/DTD/svg11.dtd" >
<svg xmlns="http://www.w3.org/2000/svg" xmlns:xlink="http://www.w3.org/1999/xlink" version="1.1">
<metadata>
Created by FontForge 20170910 at Thu Jun 28 21:50:20 2018
 By Jimmy Wärting
</metadata>
<defs>
<font id="NotoSansCJKKRLight" horiz-adv-x="920" >
  <font-face 
    font-family="NotoSansCJKKRLight"
    font-weight="200"
    font-stretch="normal"
    units-per-em="1000"
    panose-1="2 0 3 3 0 0 0 0 0 0"
    ascent="800"
    descent="-200"
    x-height="533"
    cap-height="729"
    bbox="-38 -277 1000 967"
    underline-thickness="50"
    underline-position="-100"
    unicode-range="U+0020-FFE6"
  />
<missing-glyph horiz-adv-x="1000" 
 />
    <glyph glyph-name=".notdef" horiz-adv-x="1000" 
 />
    <glyph glyph-name="Identity.1" unicode=" " horiz-adv-x="222" 
 />
    <glyph glyph-name="Identity.2" unicode="!" horiz-adv-x="295" 
d="M126 203l-8 455l-1 84h60l-1 -84l-7 -455h-43zM147 -13c-26 0 -51 21 -51 54c0 34 25 55 51 55c27 0 51 -21 51 -55c0 -33 -24 -54 -51 -54z" />
    <glyph glyph-name="Identity.3" unicode="&#x22;" horiz-adv-x="415" 
d="M104 517l-12 168l-1 82h66l-1 -82l-11 -168h-41zM269 517l-12 168l-1 82h66l-1 -82l-12 -168h-40z" />
    <glyph glyph-name="Identity.4" unicode="#" horiz-adv-x="535" 
d="M102 0l28 235h-90v45h96l23 182h-97v46h101l28 212h43l-27 -212h161l28 212h43l-28 -212h90v-46h-94l-22 -182h94v-45h-101l-27 -235h-44l28 235h-161l-29 -235h-43zM179 280h162l23 182h-162z" />
    <glyph glyph-name="Identity.5" unicode="$" horiz-adv-x="535" 
d="M450 640l-33 -36c-41 42 -75 66 -141 66c-75 0 -125 -52 -125 -122c0 -186 317 -126 317 -376c0 -105 -70 -173 -170 -184v-110h-48v110c-74 6 -143 44 -186 85l30 41c43 -39 102 -77 176 -77c91 0 140 53 140 131c0 210 -318 154 -318 377c0 95 66 164 158 175v110h48
v-110c72 -6 115 -39 152 -80z" />
    <glyph glyph-name="Identity.6" unicode="%" horiz-adv-x="897" 
d="M201 284c-97 0 -158 83 -158 231c0 145 61 227 158 227c98 0 158 -82 158 -227c0 -148 -60 -231 -158 -231zM201 324c66 0 110 69 110 191c0 121 -44 187 -110 187s-109 -66 -109 -187c0 -122 43 -191 109 -191zM221 -13l406 755h46l-406 -755h-46zM696 -13
c-98 0 -159 82 -159 230c0 146 61 228 159 228c96 0 158 -82 158 -228c0 -148 -62 -230 -158 -230zM696 27c65 0 109 68 109 190s-44 188 -109 188c-67 0 -110 -66 -110 -188s43 -190 110 -190z" />
    <glyph glyph-name="Identity.7" unicode="&#x26;" horiz-adv-x="645" 
d="M98 189c0 -92 72 -153 160 -153c58 0 111 29 157 73c-77 69 -152 158 -205 248c-61 -48 -112 -100 -112 -168zM191 579c0 -46 15 -97 39 -149c73 52 139 102 139 175c0 47 -21 91 -78 91c-62 0 -100 -52 -100 -117zM630 37l-18 -50c-47 15 -101 44 -158 89
c-54 -53 -119 -89 -202 -89c-120 0 -213 79 -213 199c0 96 72 158 148 213c-30 62 -49 123 -49 179c0 94 63 164 155 164c81 0 126 -57 126 -134c0 -95 -85 -157 -167 -219c50 -88 125 -175 199 -239c50 64 87 144 113 234h55c-29 -99 -71 -191 -129 -267
c50 -38 99 -66 140 -80z" />
    <glyph glyph-name="Identity.8" unicode="'" horiz-adv-x="250" 
d="M104 517l-12 168l-1 82h66l-1 -82l-11 -168h-41z" />
    <glyph glyph-name="Identity.9" unicode="(" horiz-adv-x="315" 
d="M242 -193c-91 147 -146 306 -146 501s55 355 146 502l36 -19c-87 -141 -132 -310 -132 -483s45 -343 132 -483z" />
    <glyph glyph-name="Identity.10" unicode=")" horiz-adv-x="315" 
d="M73 -193l-36 18c87 140 132 310 132 483s-45 342 -132 483l36 19c91 -147 146 -307 146 -502s-55 -354 -146 -501z" />
    <glyph glyph-name="Identity.11" unicode="*" horiz-adv-x="443" 
d="M148 502l-33 23l61 100l-102 40l12 38l107 -29l9 115h40l7 -114l107 28l12 -38l-102 -40l62 -100l-33 -23l-73 92z" />
    <glyph glyph-name="Identity.12" unicode="+" horiz-adv-x="535" 
d="M242 120v222h-205v47h205v222h51v-222h204v-47h-204v-222h-51z" />
    <glyph glyph-name="Identity.13" unicode="," horiz-adv-x="250" 
d="M70 -176l-17 38c52 27 87 73 88 134c-4 -1 -8 -1 -12 -1c-28 0 -52 18 -52 51c0 32 26 50 53 50c36 0 60 -33 60 -86c0 -83 -49 -150 -120 -186z" />
    <glyph glyph-name="Identity.14" unicode="-" horiz-adv-x="333" 
d="M45 252v49h246v-49h-246z" />
    <glyph glyph-name="Identity.15" unicode="." horiz-adv-x="250" 
d="M125 -13c-27 0 -51 21 -51 54c0 34 24 55 51 55s51 -21 51 -55c0 -33 -24 -54 -51 -54z" />
    <glyph glyph-name="Identity.16" unicode="/" horiz-adv-x="394" 
d="M10 -177l329 963h48l-330 -963h-47z" />
    <glyph glyph-name="Identity.17" unicode="0" horiz-adv-x="535" 
d="M268 -13c-133 0 -215 124 -215 380c0 253 82 375 215 375c132 0 214 -122 214 -375c0 -256 -82 -380 -214 -380zM268 36c94 0 156 110 156 331c0 217 -62 326 -156 326c-95 0 -157 -109 -157 -326c0 -221 62 -331 157 -331z" />
    <glyph glyph-name="Identity.18" unicode="1" horiz-adv-x="535" 
d="M92 0v51h165v593h-127v39c59 10 104 26 139 46h47v-678h152v-51h-376z" />
    <glyph glyph-name="Identity.19" unicode="2" horiz-adv-x="535" 
d="M45 0v36c247 213 345 363 345 495c0 91 -46 162 -149 162c-63 0 -120 -39 -162 -91l-37 35c55 61 117 105 205 105c127 0 202 -83 202 -209c0 -153 -118 -306 -312 -487c40 3 82 6 120 6h227v-52h-439z" />
    <glyph glyph-name="Identity.20" unicode="3" horiz-adv-x="535" 
d="M258 -13c-113 0 -181 51 -227 100l33 39c42 -45 99 -89 192 -89c94 0 162 62 162 156c0 98 -68 164 -242 164v49c160 0 216 69 216 156c0 79 -54 131 -138 132c-63 -1 -120 -34 -160 -77l-34 40c50 47 112 85 195 86c112 -1 197 -64 197 -177c0 -94 -56 -154 -134 -180
v-5c88 -19 160 -85 160 -188c0 -127 -96 -206 -220 -206z" />
    <glyph glyph-name="Identity.21" unicode="4" horiz-adv-x="535" 
d="M86 257h255v269c0 33 3 87 6 121h-5c-17 -33 -37 -68 -58 -101zM501 257v-49h-103v-208h-57v208h-322v37l322 484h57v-472h103z" />
    <glyph glyph-name="Identity.22" unicode="5" horiz-adv-x="535" 
d="M253 -13c-113 0 -178 49 -225 95l32 41c42 -44 96 -86 191 -86c92 0 170 77 170 195c0 116 -65 187 -167 187c-53 0 -88 -18 -129 -46l-38 23l25 333h333v-51h-281l-21 -245c35 21 72 35 122 35c120 0 216 -72 216 -234c0 -158 -112 -247 -228 -247z" />
    <glyph glyph-name="Identity.23" unicode="6" horiz-adv-x="535" 
d="M294 36c79 0 138 78 138 184s-44 182 -148 182c-48 0 -111 -28 -167 -104c9 -160 66 -262 177 -262zM476 672l-35 -38c-31 38 -74 58 -119 58c-110 0 -203 -87 -206 -338c48 59 112 95 176 95c124 0 198 -79 198 -229c0 -137 -91 -233 -197 -233
c-141 0 -234 125 -234 357c0 294 125 398 262 398c68 0 117 -28 155 -70z" />
    <glyph glyph-name="Identity.24" unicode="7" horiz-adv-x="535" 
d="M205 0c12 291 67 476 212 678h-369v51h440v-35c-173 -227 -209 -409 -220 -694h-63z" />
    <glyph glyph-name="Identity.25" unicode="8" horiz-adv-x="535" 
d="M271 -13c-131 0 -226 83 -226 194c0 100 72 171 139 208v4c-52 35 -100 89 -100 166c0 106 82 180 188 180c121 0 193 -81 193 -191c0 -79 -59 -148 -100 -181v-5c62 -37 124 -90 124 -190c0 -103 -88 -185 -218 -185zM322 383c58 48 89 103 89 163
c0 79 -51 146 -140 146c-76 0 -131 -56 -131 -133c0 -99 91 -140 182 -176zM271 34c97 0 160 61 160 139c0 111 -102 151 -212 194c-69 -41 -119 -104 -119 -183c0 -85 72 -150 171 -150z" />
    <glyph glyph-name="Identity.26" unicode="9" horiz-adv-x="535" 
d="M250 327c54 0 115 31 170 107c-6 159 -64 260 -178 260c-79 0 -138 -79 -138 -185c0 -105 45 -182 146 -182zM61 57l35 38c33 -38 77 -58 127 -58c101 0 192 88 198 340c-48 -58 -110 -97 -178 -97c-122 0 -197 81 -197 229c0 137 91 233 197 233
c141 0 235 -118 235 -338c0 -307 -123 -417 -256 -417c-71 0 -122 29 -161 70z" />
    <glyph glyph-name="Identity.27" unicode=":" horiz-adv-x="250" 
d="M125 405c-27 0 -51 21 -51 54c0 34 24 55 51 55s51 -21 51 -55c0 -33 -24 -54 -51 -54zM125 -13c-27 0 -51 21 -51 54c0 34 24 55 51 55s51 -21 51 -55c0 -33 -24 -54 -51 -54z" />
    <glyph glyph-name="Identity.28" unicode=";" horiz-adv-x="250" 
d="M125 405c-27 0 -51 21 -51 54c0 34 24 55 51 55s51 -21 51 -55c0 -33 -24 -54 -51 -54zM70 -176l-17 38c52 27 87 73 88 134c-4 -1 -8 -1 -12 -1c-28 0 -52 18 -52 51c0 32 26 50 53 50c36 0 60 -33 60 -86c0 -83 -49 -150 -120 -186z" />
    <glyph glyph-name="Identity.29" unicode="&#x3c;" horiz-adv-x="535" 
d="M497 158l-460 182v55l460 182v-54l-252 -96l-147 -57v-5l147 -56l252 -97v-54z" />
    <glyph glyph-name="Identity.30" unicode="=" horiz-adv-x="535" 
d="M37 456v47h460v-47h-460zM37 228v46h460v-46h-460z" />
    <glyph glyph-name="Identity.31" unicode="&#x3e;" horiz-adv-x="535" 
d="M37 158v54l252 97l148 56v5l-148 57l-252 96v54l460 -182v-55z" />
    <glyph glyph-name="Identity.32" unicode="?" horiz-adv-x="451" 
d="M179 203c-24 181 158 245 158 378c0 65 -38 124 -122 124c-52 0 -103 -25 -139 -69l-35 32c44 49 102 87 180 87c109 0 175 -72 175 -170c0 -150 -185 -216 -164 -382h-53zM209 -13c-27 0 -50 21 -50 54c0 34 23 55 50 55s52 -21 52 -55c0 -33 -25 -54 -52 -54z" />
    <glyph glyph-name="Identity.33" unicode="@" horiz-adv-x="910" 
d="M433 -163c-215 0 -376 140 -376 387c0 291 209 481 445 481c216 0 351 -143 351 -355c0 -190 -114 -290 -208 -290c-59 0 -103 27 -108 84h-2c-39 -42 -86 -77 -136 -77c-70 0 -128 52 -128 153c0 109 78 250 208 250c39 0 70 -18 91 -54h2l11 45h42l-40 -211
c-24 -99 -2 -145 65 -145c71 0 156 88 156 241c0 189 -114 314 -308 314c-201 0 -393 -171 -393 -433c0 -216 136 -346 332 -346c72 0 133 21 184 53l20 -39c-63 -39 -132 -58 -208 -58zM408 112c35 0 73 22 116 72l34 188c-25 40 -47 53 -80 53c-97 0 -157 -110 -157 -202
c0 -81 39 -111 87 -111z" />
    <glyph glyph-name="Identity.34" unicode="A" horiz-adv-x="587" 
d="M167 293h252l-44 132c-30 85 -54 162 -80 250h-4c-25 -88 -50 -165 -79 -250zM516 0l-81 245h-284l-83 -245h-60l255 729h62l255 -729h-64z" />
    <glyph glyph-name="Identity.35" unicode="B" horiz-adv-x="642" 
d="M106 0v729h201c147 0 243 -54 243 -177c0 -75 -39 -137 -112 -159v-5c94 -16 156 -75 156 -175c0 -141 -108 -213 -272 -213h-216zM166 411h122c144 0 202 51 202 134c0 99 -67 135 -196 135h-128v-269zM166 50h142c141 0 227 50 227 163c0 102 -82 150 -227 150h-142
v-313z" />
    <glyph glyph-name="Identity.36" unicode="C" horiz-adv-x="627" 
d="M368 -13c-180 0 -308 145 -308 378s129 377 314 377c86 0 153 -42 192 -88l-34 -39c-39 44 -91 73 -158 73c-154 0 -251 -124 -251 -321c0 -199 95 -326 248 -326c74 0 129 31 181 88l34 -38c-56 -65 -124 -104 -218 -104z" />
    <glyph glyph-name="Identity.37" unicode="D" horiz-adv-x="672" 
d="M106 0v729h172c224 0 334 -139 334 -362s-110 -367 -333 -367h-173zM166 51h106c192 0 277 127 277 316s-85 312 -277 312h-106v-628z" />
    <glyph glyph-name="Identity.38" unicode="E" horiz-adv-x="573" 
d="M106 0v729h403v-51h-343v-266h289v-51h-289v-309h354v-52h-414z" />
    <glyph glyph-name="Identity.39" unicode="F" horiz-adv-x="532" 
d="M106 0v729h402v-51h-342v-281h289v-51h-289v-346h-60z" />
    <glyph glyph-name="Identity.40" unicode="G" horiz-adv-x="673" 
d="M376 -13c-188 0 -316 145 -316 378s133 377 325 377c99 0 162 -46 202 -88l-35 -39c-37 40 -87 73 -166 73c-162 0 -263 -124 -263 -321c0 -199 95 -326 259 -326c62 0 122 19 155 52v219h-169v51h227v-293c-46 -49 -122 -83 -219 -83z" />
    <glyph glyph-name="Identity.41" unicode="H" horiz-adv-x="710" 
d="M106 0v729h60v-316h379v316h59v-729h-59v361h-379v-361h-60z" />
    <glyph glyph-name="Identity.42" unicode="I" horiz-adv-x="272" 
d="M106 0v729h60v-729h-60z" />
    <glyph glyph-name="Identity.43" unicode="J" horiz-adv-x="517" 
d="M227 -13c-84 0 -146 38 -185 109l45 30c36 -61 78 -85 138 -85c86 0 128 50 128 167v521h60v-527c0 -120 -51 -215 -186 -215z" />
    <glyph glyph-name="Identity.44" unicode="K" horiz-adv-x="623" 
d="M106 0v729h60v-396h2l342 396h71l-232 -271l265 -458h-69l-236 411l-143 -165v-246h-60z" />
    <glyph glyph-name="Identity.45" unicode="L" horiz-adv-x="522" 
d="M106 0v729h60v-677h332v-52h-392z" />
    <glyph glyph-name="Identity.46" unicode="M" horiz-adv-x="787" 
d="M106 0v729h80l150 -419l57 -160h4c19 53 36 107 54 160l150 419h80v-729h-57v462c0 60 4 140 7 201h-4l-57 -163l-153 -422h-48l-154 422l-57 163h-4c3 -61 7 -141 7 -201v-462h-55z" />
    <glyph glyph-name="Identity.47" unicode="N" horiz-adv-x="707" 
d="M106 0v729h62l298 -501l81 -147h5c-4 72 -8 145 -8 216v432h57v-729h-62l-297 502l-82 146h-5c3 -70 8 -138 8 -211v-437h-57z" />
    <glyph glyph-name="Identity.48" unicode="O" horiz-adv-x="726" 
d="M362 -13c-176 0 -302 148 -302 380c0 231 126 375 302 375c178 0 303 -144 303 -375c0 -232 -125 -380 -303 -380zM362 41c145 0 241 128 241 326s-96 321 -241 321c-144 0 -239 -123 -239 -321s95 -326 239 -326z" />
    <glyph glyph-name="Identity.49" unicode="P" horiz-adv-x="612" 
d="M106 0v729h189c165 0 266 -54 266 -205c0 -146 -100 -216 -262 -216h-133v-308h-60zM166 358h121c144 0 213 49 213 166c0 118 -72 155 -217 155h-117v-321z" />
    <glyph glyph-name="Identity.50" unicode="Q" horiz-adv-x="726" 
d="M123 367c0 -200 95 -329 239 -329c145 0 241 129 241 329c0 198 -96 321 -241 321c-144 0 -239 -123 -239 -321zM658 -111l13 -50c-20 -7 -55 -13 -93 -13c-125 0 -210 69 -247 163c-160 16 -271 160 -271 378c0 231 126 375 302 375c178 0 303 -144 303 -375
c0 -216 -109 -360 -268 -378c32 -71 99 -110 187 -110c33 0 56 4 74 10z" />
    <glyph glyph-name="Identity.51" unicode="R" horiz-adv-x="608" 
d="M166 679v-300h139c126 0 196 50 196 155c0 106 -70 145 -196 145h-139zM577 0h-68l-194 329h-149v-329h-60v729h213c145 0 243 -53 243 -195c0 -116 -71 -183 -182 -200z" />
    <glyph glyph-name="Identity.52" unicode="S" horiz-adv-x="580" 
d="M299 -13c-106 0 -190 44 -248 109l37 42c53 -60 128 -97 211 -97c108 0 175 57 175 140c0 88 -57 116 -129 148l-109 48c-65 29 -148 75 -148 182c0 108 92 183 216 183c88 0 160 -38 206 -88l-34 -39c-43 44 -100 73 -172 73c-93 0 -155 -49 -155 -124
c0 -83 71 -114 124 -137l109 -48c83 -37 153 -83 153 -194c0 -112 -93 -198 -236 -198z" />
    <glyph glyph-name="Identity.53" unicode="T" horiz-adv-x="584" 
d="M261 0v678h-229v51h520v-51h-230v-678h-61z" />
    <glyph glyph-name="Identity.54" unicode="U" horiz-adv-x="705" 
d="M352 -13c-131 0 -249 68 -249 298v444h60v-441c0 -190 88 -247 189 -247c103 0 193 57 193 247v441h57v-444c0 -230 -119 -298 -250 -298z" />
    <glyph glyph-name="Identity.55" unicode="V" horiz-adv-x="550" 
d="M243 0l-239 729h64l131 -419c27 -88 46 -156 75 -244h4c30 88 49 156 77 244l130 419h61l-237 -729h-66z" />
    <glyph glyph-name="Identity.56" unicode="W" horiz-adv-x="857" 
d="M193 0l-163 729h62l88 -422c17 -79 33 -158 49 -238h4c18 80 37 159 56 238l111 422h59l112 -422c19 -79 37 -158 56 -238h5c15 80 30 159 46 238l88 422h59l-160 -729h-68l-129 487c-12 58 -25 108 -38 164h-4c-12 -56 -27 -106 -40 -164l-125 -487h-68z" />
    <glyph glyph-name="Identity.57" unicode="X" horiz-adv-x="541" 
d="M19 0l217 377l-203 352h66l115 -208c20 -33 35 -61 59 -101h4c22 40 35 68 54 101l115 208h62l-203 -355l218 -374h-65l-123 218c-20 35 -41 72 -67 116h-4c-23 -44 -42 -81 -61 -116l-122 -218h-62z" />
    <glyph glyph-name="Identity.58" unicode="Y" horiz-adv-x="502" 
d="M221 0v293l-219 436h64l107 -223c26 -53 49 -104 76 -158h4c28 54 55 105 78 158l107 223h62l-219 -436v-293h-60z" />
    <glyph glyph-name="Identity.59" unicode="Z" horiz-adv-x="597" 
d="M54 0v35l412 643h-375v51h449v-35l-411 -642h416v-52h-491z" />
    <glyph glyph-name="Identity.60" unicode="[" horiz-adv-x="315" 
d="M108 -168v952h181v-36h-136v-880h136v-36h-181z" />
    <glyph glyph-name="Identity.61" unicode="\" horiz-adv-x="394" 
d="M337 -177l-329 963h47l329 -963h-47z" />
    <glyph glyph-name="Identity.62" unicode="]" horiz-adv-x="315" 
d="M26 -168v36h136v880h-136v36h181v-952h-181z" />
    <glyph glyph-name="Identity.63" unicode="^" horiz-adv-x="535" 
d="M72 319l167 423h57l167 -423h-54l-83 220l-56 146h-5l-56 -146l-83 -220h-54z" />
    <glyph glyph-name="Identity.64" unicode="_" horiz-adv-x="554" 
d="M13 -132v47h528v-47h-528z" />
    <glyph glyph-name="Identity.65" unicode="`" horiz-adv-x="594" 
d="M325 635l-162 168l43 38l151 -176z" />
    <glyph glyph-name="Identity.66" unicode="a" horiz-adv-x="547" 
d="M218 -13c-86 0 -155 48 -155 147c0 118 105 174 340 201c2 79 -21 161 -122 161c-70 0 -131 -33 -168 -61l-26 42c41 28 115 70 202 70c127 0 172 -91 172 -209v-338h-49l-6 68h-2c-54 -44 -118 -81 -186 -81zM230 36c59 0 110 28 173 83v173
c-210 -24 -282 -73 -282 -155c0 -73 50 -101 109 -101z" />
    <glyph glyph-name="Identity.67" unicode="b" horiz-adv-x="603" 
d="M314 -13c-50 0 -109 26 -158 67h-2l-7 -54h-47v795h58v-228l-3 -102c53 45 116 82 180 82c142 0 214 -108 214 -272c0 -182 -110 -288 -235 -288zM309 38c104 0 178 94 178 237c0 128 -44 221 -163 221c-51 0 -106 -30 -166 -85v-308c55 -48 112 -65 151 -65z" />
    <glyph glyph-name="Identity.68" unicode="c" horiz-adv-x="499" 
d="M300 -13c-139 0 -244 102 -244 279c0 178 115 281 247 281c71 0 119 -32 156 -65l-33 -40c-33 31 -72 54 -122 54c-106 0 -187 -94 -187 -230s74 -229 186 -229c55 0 103 27 139 59l28 -40c-46 -40 -103 -69 -170 -69z" />
    <glyph glyph-name="Identity.69" unicode="d" horiz-adv-x="605" 
d="M277 -13c-134 0 -221 100 -221 279c0 172 110 281 236 281c64 0 107 -24 159 -65l-4 96v217h58v-795h-48l-7 67h-2c-43 -43 -102 -80 -171 -80zM287 38c57 0 107 29 160 84v308c-54 48 -99 66 -149 66c-102 0 -180 -99 -180 -230c0 -138 61 -228 169 -228z" />
    <glyph glyph-name="Identity.70" unicode="e" horiz-adv-x="538" 
d="M304 -13c-137 0 -248 104 -248 279c0 173 113 281 234 281c129 0 206 -92 206 -248c0 -15 -1 -29 -3 -42h-378c3 -130 80 -221 195 -221c57 0 102 18 142 46l22 -43c-43 -27 -93 -52 -170 -52zM115 303h328c0 129 -59 194 -152 194c-87 0 -165 -72 -176 -194z" />
    <glyph glyph-name="Identity.71" unicode="f" horiz-adv-x="298" 
d="M326 790l-14 -46c-22 10 -43 15 -63 15c-57 0 -82 -42 -82 -117v-109h121v-49h-121v-484h-58v484h-74v44l74 5v112c0 106 47 163 137 163c27 0 55 -7 80 -18z" />
    <glyph glyph-name="Identity.72" unicode="g" horiz-adv-x="543" 
d="M275 -254c-133 0 -220 56 -220 146c0 47 31 94 80 127v5c-27 16 -48 44 -48 86c0 46 35 81 59 99v4c-34 28 -68 81 -68 145c0 111 86 189 191 189c29 0 54 -7 71 -14h182v-48h-120c32 -28 55 -74 55 -128c0 -110 -83 -188 -188 -188c-29 0 -62 8 -86 22
c-23 -18 -42 -40 -42 -74c0 -38 23 -67 100 -67h112c121 0 178 -38 178 -123c0 -93 -100 -181 -256 -181zM269 213c70 0 132 58 132 145c0 88 -60 142 -132 142c-73 0 -133 -54 -133 -142c0 -87 62 -145 133 -145zM282 -210c116 0 191 65 191 129c0 57 -42 78 -121 78h-109
c-12 0 -40 3 -67 9c-46 -32 -66 -71 -66 -107c0 -65 63 -109 172 -109z" />
    <glyph glyph-name="Identity.73" unicode="h" horiz-adv-x="589" 
d="M100 0v795h58v-228l-1 -116c54 54 109 96 182 96c111 0 162 -69 162 -206v-341h-58v333c0 111 -35 162 -117 162c-62 0 -106 -32 -168 -96v-399h-58z" />
    <glyph glyph-name="Identity.74" unicode="i" horiz-adv-x="257" 
d="M100 0v533h58v-533h-58zM130 658c-27 0 -49 19 -49 46c0 30 22 48 49 48c26 0 49 -18 49 -48c0 -27 -23 -46 -49 -46z" />
    <glyph glyph-name="Identity.75" unicode="j" horiz-adv-x="258" 
d="M33 -251c-27 0 -54 6 -71 14l13 46c14 -5 34 -11 55 -11c59 0 70 47 70 114v621h59v-623c0 -106 -39 -161 -126 -161zM130 658c-27 0 -48 19 -48 46c0 30 21 48 48 48s49 -18 49 -48c0 -27 -22 -46 -49 -46z" />
    <glyph glyph-name="Identity.76" unicode="k" horiz-adv-x="521" 
d="M100 0v795h58v-576h2l255 314h66l-174 -211l202 -322h-64l-172 280l-115 -136v-144h-58z" />
    <glyph glyph-name="Identity.77" unicode="l" horiz-adv-x="267" 
d="M171 -13c-48 0 -71 30 -71 92v716h58v-722c0 -25 10 -36 24 -36c4 0 8 0 19 2l9 -46c-10 -3 -20 -6 -39 -6z" />
    <glyph glyph-name="Identity.78" unicode="m" horiz-adv-x="904" 
d="M100 0v533h48l7 -81h2c48 53 108 95 168 95c85 0 128 -43 147 -108c60 65 118 108 180 108c107 0 160 -69 160 -206v-341h-58v333c0 111 -37 162 -115 162c-48 0 -97 -32 -154 -96v-399h-58v333c0 111 -36 162 -115 162c-47 0 -98 -32 -154 -96v-399h-58z" />
    <glyph glyph-name="Identity.79" unicode="n" horiz-adv-x="593" 
d="M100 0v533h48l7 -81h2c54 53 109 95 182 95c111 0 162 -69 162 -206v-341h-58v333c0 111 -35 162 -117 162c-62 0 -106 -32 -168 -96v-399h-58z" />
    <glyph glyph-name="Identity.80" unicode="o" horiz-adv-x="594" 
d="M297 -13c-129 0 -241 102 -241 279c0 178 112 281 241 281s241 -103 241 -281c0 -177 -112 -279 -241 -279zM297 37c104 0 181 93 181 229s-77 230 -181 230s-180 -94 -180 -230s76 -229 180 -229z" />
    <glyph glyph-name="Identity.81" unicode="p" horiz-adv-x="605" 
d="M100 -238v771h48l7 -65h2c52 40 113 79 178 79c142 0 214 -108 214 -272c0 -182 -110 -288 -235 -288c-50 0 -103 23 -157 65l1 -98v-192h-58zM309 38c104 0 178 94 178 237c0 128 -44 221 -163 221c-51 0 -104 -30 -166 -85v-308c57 -48 112 -65 151 -65z" />
    <glyph glyph-name="Identity.82" unicode="q" horiz-adv-x="605" 
d="M447 -238v203l4 104c-47 -46 -105 -82 -174 -82c-134 0 -221 100 -221 279c0 172 110 281 236 281c64 0 108 -24 157 -64h2l7 50h47v-771h-58zM287 38c57 0 107 29 160 84v308c-54 48 -99 66 -149 66c-102 0 -180 -99 -180 -230c0 -138 61 -228 169 -228z" />
    <glyph glyph-name="Identity.83" unicode="r" horiz-adv-x="359" 
d="M100 0v533h48l7 -99h2c36 67 89 113 151 113c21 0 37 -3 54 -12l-12 -52c-18 7 -28 9 -49 9c-47 0 -104 -35 -143 -134v-358h-58z" />
    <glyph glyph-name="Identity.84" unicode="s" horiz-adv-x="452" 
d="M231 -13c-78 0 -148 33 -196 73l31 42c46 -39 95 -67 168 -67c81 0 122 46 122 101c0 63 -67 92 -129 114c-79 28 -167 61 -167 153c0 78 63 144 175 144c58 0 115 -25 155 -57l-30 -40c-36 27 -75 48 -127 48c-79 0 -115 -44 -115 -92c0 -59 62 -81 124 -104
c82 -31 172 -60 172 -163c0 -82 -65 -152 -183 -152z" />
    <glyph glyph-name="Identity.85" unicode="t" horiz-adv-x="352" 
d="M250 -13c-105 0 -137 66 -137 165v332h-83v44l85 5l7 154h49v-154h153v-49h-153v-336c0 -67 18 -111 89 -111c20 0 46 7 65 15l14 -45c-31 -11 -65 -20 -89 -20z" />
    <glyph glyph-name="Identity.86" unicode="u" horiz-adv-x="590" 
d="M253 -13c-111 0 -161 68 -161 205v341h58v-334c0 -109 34 -160 116 -160c62 0 106 32 166 104v390h58v-533h-49l-5 88h-3c-52 -60 -106 -101 -180 -101z" />
    <glyph glyph-name="Identity.87" unicode="v" horiz-adv-x="489" 
d="M211 0l-198 533h63l115 -327c17 -52 35 -106 53 -154h4c17 48 36 102 53 154l116 327h59l-196 -533h-69z" />
    <glyph glyph-name="Identity.88" unicode="w" horiz-adv-x="766" 
d="M182 0l-156 533h62l93 -336c12 -51 24 -97 34 -145h5c13 48 25 95 38 145l95 336h64l95 -336c13 -51 25 -97 39 -145h4c12 48 24 94 37 145l91 336h57l-150 -533h-75l-90 321c-15 51 -25 100 -40 153h-5c-12 -53 -24 -103 -41 -155l-87 -319h-70z" />
    <glyph glyph-name="Identity.89" unicode="x" horiz-adv-x="460" 
d="M15 0l180 279l-165 254h64l82 -131c18 -30 37 -59 57 -88h4c18 29 35 58 53 88l79 131h61l-165 -260l180 -273h-65l-91 141c-18 33 -39 66 -61 97h-5c-20 -31 -39 -64 -60 -97l-86 -141h-62z" />
    <glyph glyph-name="Identity.90" unicode="y" horiz-adv-x="490" 
d="M85 -240c-21 0 -42 4 -57 11l13 49c11 -4 28 -8 43 -8c64 0 107 58 133 135l14 45l-218 541h63l124 -326c17 -46 37 -102 56 -150h5c16 48 33 104 48 150l109 326h59l-208 -595c-32 -92 -86 -178 -184 -178z" />
    <glyph glyph-name="Identity.91" unicode="z" horiz-adv-x="453" 
d="M32 0v31l307 453h-274v49h349v-31l-307 -452h317v-50h-392z" />
    <glyph glyph-name="Identity.92" unicode="{" horiz-adv-x="315" 
d="M249 -168c-84 0 -124 30 -124 142c0 82 9 148 9 224c0 46 -18 90 -95 90v40c77 0 95 44 95 87c0 78 -9 145 -9 226c0 113 40 143 124 143h40v-36h-33c-65 0 -83 -35 -83 -112c0 -70 7 -130 7 -210c0 -66 -14 -103 -59 -116v-4c45 -14 59 -52 59 -117
c0 -79 -7 -139 -7 -209c0 -76 18 -112 83 -112h33v-36h-40z" />
    <glyph glyph-name="Identity.93" unicode="|" horiz-adv-x="254" 
d="M105 -277v1108h44v-1108h-44z" />
    <glyph glyph-name="Identity.94" unicode="}" horiz-adv-x="315" 
d="M26 -168v36h33c65 0 82 36 82 112c0 70 -6 130 -6 209c0 65 14 103 59 117v4c-45 13 -59 50 -59 116c0 80 6 140 6 210c0 77 -17 112 -82 112h-33v36h40c83 0 124 -30 124 -143c0 -81 -9 -148 -9 -226c0 -43 18 -87 95 -87v-40c-77 0 -95 -44 -95 -90
c0 -76 9 -142 9 -224c0 -112 -41 -142 -124 -142h-40z" />
    <glyph glyph-name="Identity.95" unicode="~" horiz-adv-x="535" 
d="M366 293c-86 0 -136 98 -200 98c-32 0 -60 -18 -87 -69l-35 23c34 64 80 93 125 93c85 0 136 -98 199 -98c33 0 61 18 87 69l36 -24c-34 -63 -81 -92 -125 -92z" />
    <glyph glyph-name="Identity.96" unicode="&#xa1;" horiz-adv-x="295" 
d="M117 -209l1 84l8 455h43l7 -455l1 -84h-60zM147 437c-26 0 -51 22 -51 56c0 33 25 54 51 54c27 0 51 -21 51 -54c0 -34 -24 -56 -51 -56z" />
    <glyph glyph-name="Identity.97" unicode="&#xa4;" horiz-adv-x="535" 
d="M66 123l-33 36l72 74c-27 35 -41 79 -41 131c0 53 14 98 41 133l-72 75l33 35l74 -76c35 30 80 47 128 47c46 0 91 -17 126 -47l74 76l34 -35l-73 -75c26 -35 42 -80 42 -133c0 -52 -16 -96 -42 -131l73 -74l-34 -36l-74 76c-34 -31 -80 -48 -126 -48
c-48 0 -93 17 -128 48zM268 198c79 0 147 67 147 166c0 98 -68 167 -147 167c-81 0 -148 -69 -148 -167c0 -99 67 -166 148 -166z" />
    <glyph glyph-name="Identity.98" unicode="&#xa7;" horiz-adv-x="1000" 
d="M687 722l-23 -44c-26 20 -88 50 -165 50c-79 0 -133 -55 -133 -101c0 -70 77 -95 169 -118c119 -30 184 -78 184 -159c0 -55 -25 -109 -61 -140c20 -17 38 -55 38 -97c0 -91 -82 -169 -211 -169c-84 0 -141 19 -177 51l26 42c25 -22 73 -50 155 -50c98 0 155 55 155 120
c0 58 -33 90 -172 131c-136 40 -192 83 -192 166c0 34 20 84 71 127c-25 18 -38 57 -38 85c0 82 73 155 200 155c81 0 143 -28 174 -49zM384 507c-38 -34 -53 -69 -53 -100c0 -39 13 -72 151 -117c92 -30 125 -45 144 -57c27 27 42 66 42 103c0 118 -196 122 -284 171z" />
    <glyph glyph-name="Identity.99" unicode="&#xa8;" horiz-adv-x="594" 
d="M197 660c-25 0 -44 19 -44 43c0 25 19 45 44 45s44 -20 44 -45c0 -24 -19 -43 -44 -43zM397 660c-25 0 -44 19 -44 43c0 25 19 45 44 45s44 -20 44 -45c0 -24 -19 -43 -44 -43z" />
    <glyph glyph-name="Identity.100" unicode="&#xaa;" horiz-adv-x="375" 
d="M153 438c-64 0 -108 38 -108 101c0 78 70 117 226 132c0 54 -15 97 -74 97c-44 0 -92 -22 -118 -41l-19 34c31 21 85 47 142 47c86 0 117 -55 117 -141v-220h-38l-7 43h-4c-31 -27 -70 -52 -117 -52zM166 478c33 0 67 16 105 52v108c-132 -14 -178 -47 -178 -95
c0 -45 28 -65 73 -65z" />
    <glyph glyph-name="Identity.101" unicode="&#xad;" horiz-adv-x="535" 
d="M37 342v47h460v-47h-460z" />
    <glyph glyph-name="Identity.102" unicode="&#xae;" horiz-adv-x="449" 
d="M225 358c-111 0 -203 86 -203 215c0 128 92 216 203 216c110 0 203 -88 203 -216c0 -129 -93 -215 -203 -215zM225 391c92 0 166 76 166 182c0 105 -74 183 -166 183c-94 0 -168 -78 -168 -183c0 -106 74 -182 168 -182zM148 463v228h79c43 0 84 -18 84 -72
c0 -27 -18 -54 -43 -61l54 -95h-43l-43 83h-50v-83h-38zM186 577h31c33 0 54 11 54 40c0 24 -12 41 -51 41h-34v-81z" />
    <glyph glyph-name="Identity.103" unicode="&#xb1;" horiz-adv-x="1000" 
d="M868 512v-49h-343v-288h-50v288h-343v49h343v288h50v-288h343zM132 73h738v-50h-738v50z" />
    <glyph glyph-name="Identity.104" unicode="&#xb2;" horiz-adv-x="402" 
d="M62 447v30c145 134 211 201 211 272c0 62 -36 101 -93 101c-39 0 -74 -31 -99 -68l-31 28c29 46 80 82 136 82c81 0 136 -46 136 -137c0 -88 -75 -160 -181 -265h206v-43h-285z" />
    <glyph glyph-name="Identity.105" unicode="&#xb3;" horiz-adv-x="402" 
d="M197 434c-68 0 -123 37 -154 82l36 27c26 -41 69 -69 118 -69c53 0 97 33 97 89s-56 86 -148 86v35c83 0 131 40 131 89c0 46 -35 79 -89 79c-34 0 -69 -24 -96 -58l-31 28c32 40 76 70 132 70c74 0 133 -43 133 -114c0 -54 -35 -90 -81 -109c51 -11 98 -48 98 -108
c0 -80 -64 -127 -146 -127z" />
    <glyph glyph-name="Identity.106" unicode="&#xb4;" horiz-adv-x="594" 
d="M269 635l-32 30l151 176l43 -38z" />
    <glyph glyph-name="Identity.107" unicode="&#xb6;" horiz-adv-x="1000" 
d="M497 -58v349h-10c-108 0 -242 71 -242 220c-1 115 62 248 311 248c66 0 100 -3 122 -8v-809h-47v771h-87v-771h-47z" />
    <glyph glyph-name="Identity.108" unicode="&#xb7;" horiz-adv-x="542" 
d="M265 304c-26 0 -51 22 -51 54c0 35 25 55 51 55c27 0 52 -20 52 -55c0 -32 -25 -54 -52 -54z" />
    <glyph glyph-name="Identity.109" unicode="&#xb8;" horiz-adv-x="594" 
d="M218 -245l-7 37c95 6 124 24 124 57c0 31 -25 47 -87 56l46 97h44l-33 -74c48 -12 79 -32 79 -76c0 -60 -59 -90 -166 -97z" />
    <glyph glyph-name="Identity.110" unicode="&#xb9;" horiz-adv-x="402" 
d="M194 447v355h-92v33c44 9 72 23 99 44h42v-432h-49z" />
    <glyph glyph-name="Identity.111" unicode="&#xba;" horiz-adv-x="400" 
d="M199 438c-90 0 -164 69 -164 185c0 118 74 185 164 185s163 -67 163 -185c0 -116 -73 -185 -163 -185zM199 479c69 0 114 60 114 144c0 87 -45 145 -114 145s-114 -58 -114 -145c0 -84 45 -144 114 -144z" />
    <glyph glyph-name="Identity.112" unicode="&#xbc;" horiz-adv-x="851" 
d="M219 297h-49v355h-92v34c43 9 72 22 99 43h42v-432zM603 742h47l-406 -755h-47zM556 162h138v93l5 116h-5l-60 -91zM804 162v-38h-64v-124h-46v124h-195v25l193 283h48v-270h64z" />
    <glyph glyph-name="Identity.113" unicode="&#xbd;" horiz-adv-x="876" 
d="M170 297v355h-92v34c43 9 72 22 99 43h42v-432h-49zM172 -13l406 755h47l-406 -755h-47zM536 0v30c144 134 211 201 211 272c0 62 -36 101 -93 101c-39 0 -74 -30 -98 -67l-32 28c29 45 81 81 136 81c81 0 136 -46 136 -137c0 -88 -75 -159 -181 -265h206v-43h-285z" />
    <glyph glyph-name="Identity.114" unicode="&#xbe;" horiz-adv-x="870" 
d="M92 645l-32 28c32 40 77 69 133 69c73 0 133 -43 133 -114c0 -53 -36 -89 -82 -108c51 -11 99 -48 99 -109c0 -79 -65 -127 -146 -127c-69 0 -124 38 -155 83l36 27c27 -41 69 -70 118 -70c53 0 97 33 97 89s-56 87 -148 87v34c84 0 132 41 132 89c0 46 -36 79 -90 79
c-34 0 -69 -24 -95 -57zM653 742h46l-406 -755h-46zM576 162h138v93l5 116h-5l-60 -91zM824 162v-38h-65v-124h-45v124h-195v25l192 283h48v-270h65z" />
    <glyph glyph-name="Identity.115" unicode="&#xbf;" horiz-adv-x="451" 
d="M230 -222c-108 0 -175 72 -175 171c0 149 184 216 164 381h53c24 -181 -158 -245 -158 -377c0 -67 38 -125 121 -125c53 0 103 26 140 69l35 -32c-44 -49 -102 -87 -180 -87zM242 437c-27 0 -51 22 -51 56c0 33 24 54 51 54s51 -21 51 -54c0 -34 -24 -56 -51 -56z" />
    <glyph glyph-name="Identity.116" unicode="&#xc5;" horiz-adv-x="587" 
d="M293 936c-34 0 -63 -25 -63 -65c0 -43 29 -65 63 -65c32 0 61 22 61 65c0 40 -29 65 -61 65zM293 775c-57 0 -99 38 -99 96c0 59 42 96 99 96c55 0 99 -37 99 -96c0 -58 -44 -96 -99 -96zM167 293h252l-44 132c-30 85 -54 162 -80 250h-4c-25 -88 -50 -165 -79 -250z
M516 0l-81 245h-284l-83 -245h-60l255 729h62l255 -729h-64z" />
    <glyph glyph-name="Identity.117" unicode="&#xd7;" horiz-adv-x="1000" 
d="M818 90l-35 -34l-283 283l-283 -283l-35 34l284 284l-284 282l36 35l282 -283l283 283l35 -34l-283 -283z" />
    <glyph glyph-name="Identity.118" unicode="&#xf7;" horiz-adv-x="1000" 
d="M436 630c0 35 29 64 64 64s64 -29 64 -64s-29 -64 -64 -64s-64 29 -64 64zM132 398h736v-49h-736v49zM436 117c0 35 29 64 64 64s64 -29 64 -64s-29 -64 -64 -64s-64 29 -64 64z" />
    <glyph glyph-name="Identity.119" unicode="&#x2c7;" horiz-adv-x="1000" 
d="M742 531h-57l-185 -300l-191 301h-54l244 -385z" />
    <glyph glyph-name="Identity.120" unicode="&#x2d9;" horiz-adv-x="1000" 
d="M498 296c55 0 89 40 88 86c1 46 -33 91 -88 92c-55 0 -88 -47 -87 -92c0 -44 34 -86 87 -86z" />
    <glyph glyph-name="Identity.121" unicode="&#x3a9;" horiz-adv-x="735" 
d="M51 0v51h155v4c-69 67 -141 171 -141 331c0 205 118 356 303 356c184 0 302 -151 302 -356c0 -160 -71 -264 -141 -331v-4h156v-51h-242v44c88 64 165 170 165 341c0 172 -89 303 -240 303c-152 0 -241 -131 -241 -303c0 -171 77 -277 165 -341v-44h-241z" />
    <glyph glyph-name="Identity.122" unicode="&#x2015;" horiz-adv-x="1000" 
d="M71 399h858v-38h-858v38z" />
    <glyph glyph-name="Identity.123" unicode="&#x2018;" horiz-adv-x="250" 
d="M164 777l21 -29c-50 -39 -76 -75 -77 -137c3 1 6 1 10 1c23 0 46 -15 46 -45s-19 -48 -46 -48c-34 0 -54 29 -54 80c0 81 37 137 100 178z" />
    <glyph glyph-name="Identity.124" unicode="&#x2019;" horiz-adv-x="250" 
d="M86 517l-20 29c49 39 75 75 76 137c-3 -1 -6 -1 -10 -1c-22 0 -46 15 -46 45s19 48 46 48c33 0 55 -29 55 -80c0 -81 -37 -137 -101 -178z" />
    <glyph glyph-name="Identity.125" unicode="&#x201c;" horiz-adv-x="415" 
d="M164 777l21 -29c-50 -39 -76 -75 -77 -137c3 1 6 1 10 1c23 0 46 -15 46 -45s-19 -48 -46 -48c-34 0 -54 29 -54 80c0 81 37 137 100 178zM328 777l22 -29c-49 -39 -75 -75 -76 -137c2 1 5 1 8 1c24 0 48 -15 48 -45s-20 -48 -48 -48c-32 0 -53 29 -53 80
c0 81 37 137 99 178z" />
    <glyph glyph-name="Identity.126" unicode="&#x201d;" horiz-adv-x="415" 
d="M86 517l-20 29c49 39 75 75 76 137c-3 -1 -6 -1 -10 -1c-22 0 -46 15 -46 45s19 48 46 48c33 0 55 -29 55 -80c0 -81 -37 -137 -101 -178zM251 517l-21 29c50 39 76 75 77 137c-3 -1 -6 -1 -9 -1c-24 0 -47 15 -47 45s19 48 47 48c32 0 54 -29 54 -80
c0 -81 -37 -137 -101 -178z" />
    <glyph glyph-name="Identity.127" unicode="&#x2020;" horiz-adv-x="1000" 
d="M529 759l-6 -248l211 4v-53l-211 4l6 -522h-58l6 522l-211 -4v53l211 -4l-6 248h58z" />
    <glyph glyph-name="Identity.128" unicode="&#x2021;" horiz-adv-x="1000" 
d="M529 759l-6 -237l211 4v-53l-211 4l1 -253l210 4v-53l-211 4l6 -235h-58l6 235l-211 -4v53l211 -4v253l-211 -4v53l211 -4l-6 237h58z" />
    <glyph glyph-name="Identity.129" unicode="&#x2025;" horiz-adv-x="1000" 
d="M194 380c0 32 24 56 56 56s56 -24 56 -56s-24 -56 -56 -56s-56 24 -56 56zM694 380c0 32 24 56 56 56s56 -24 56 -56s-24 -56 -56 -56s-56 24 -56 56z" />
    <glyph glyph-name="Identity.130" unicode="&#x2026;" horiz-adv-x="1000" 
d="M111 380c0 32 24 56 56 56s56 -24 56 -56s-24 -56 -56 -56s-56 24 -56 56zM444 380c0 32 24 56 56 56s56 -24 56 -56s-24 -56 -56 -56s-56 24 -56 56zM777 380c0 32 24 56 56 56s56 -24 56 -56s-24 -56 -56 -56s-56 24 -56 56z" />
    <glyph glyph-name="Identity.131" unicode="&#x2030;" horiz-adv-x="1000" 
d="M131 -18l382 766h42l-381 -766h-43zM36 521c0 152 64 221 130 220c66 0 127 -70 127 -221c0 -153 -63 -218 -128 -218c-67 0 -129 70 -129 219zM249 520c0 65 -14 184 -86 183c-69 0 -82 -118 -82 -182c0 -68 14 -182 83 -182c72 0 85 116 85 181zM393 209
c0 152 63 221 129 220c66 0 128 -70 128 -221c0 -153 -63 -219 -129 -219s-128 71 -128 220zM707 209c0 152 63 221 129 220c66 0 128 -70 128 -221c0 -153 -63 -219 -129 -219c-67 0 -128 71 -128 220zM605 208c0 65 -13 184 -85 183c-69 0 -82 -118 -82 -183
c0 -67 13 -181 83 -181c71 0 84 116 84 181zM919 208c0 64 -13 184 -86 183c-68 0 -82 -118 -82 -183s11 -181 84 -181c71 0 84 116 84 181z" />
    <glyph glyph-name="Identity.132" unicode="&#x2032;" horiz-adv-x="250" 
d="M91 530l26 237l55 -2l-11 -82l-32 -155z" />
    <glyph glyph-name="Identity.133" unicode="&#x2033;" horiz-adv-x="415" 
d="M91 530l26 237l55 -2l-11 -82l-32 -155zM256 530l25 237l57 -2l-13 -82l-31 -155z" />
    <glyph glyph-name="Identity.134" unicode="&#x203b;" horiz-adv-x="1000" 
d="M575 665c0 -41 -34 -75 -75 -75s-75 34 -75 75s34 75 75 75s75 -34 75 -75zM170 739l330 -330l330 330l29 -29l-330 -330l330 -330l-29 -29l-330 330l-331 -331l-29 29l331 331l-330 330zM215 455c41 0 75 -34 75 -75s-34 -75 -75 -75s-75 34 -75 75s34 75 75 75z
M785 305c-41 0 -75 34 -75 75s34 75 75 75s75 -34 75 -75s-34 -75 -75 -75zM425 95c0 41 34 75 75 75s75 -34 75 -75s-34 -75 -75 -75s-75 34 -75 75z" />
    <glyph glyph-name="Identity.135" unicode="&#x20ac;" horiz-adv-x="535" 
d="M493 123l36 -33c-46 -64 -104 -103 -186 -103c-130 0 -222 107 -245 282h-72v36l68 6c-1 14 -1 29 -1 44c0 13 0 26 1 38h-68v36l72 5c22 178 120 287 262 287c67 0 124 -40 159 -87l-37 -34c-32 43 -72 71 -123 71c-112 0 -182 -89 -200 -237h303v-41h-306
c-1 -12 -1 -24 -1 -37c0 -15 0 -30 1 -45h261v-42h-257c19 -144 85 -233 188 -233c59 0 103 29 145 87z" />
    <glyph glyph-name="Identity.136" unicode="&#x2103;" horiz-adv-x="1000" 
d="M189 487c-69 0 -131 50 -131 132c0 85 62 135 131 135c67 0 129 -50 129 -135c0 -82 -62 -132 -129 -132zM189 526c50 0 87 39 87 93c0 56 -37 95 -87 95c-52 0 -87 -39 -87 -95c0 -54 35 -93 87 -93zM729 -13c-182 0 -309 144 -309 376s129 375 314 375
c85 0 152 -42 193 -87l-38 -41c-39 44 -89 71 -154 71c-153 0 -248 -122 -248 -317s94 -319 244 -319c74 0 127 29 177 85l37 -40c-56 -65 -123 -103 -216 -103z" />
    <glyph glyph-name="Identity.137" unicode="&#x2109;" horiz-adv-x="1000" 
d="M234 487c-68 0 -130 50 -130 132c0 85 62 135 130 135c67 0 129 -50 129 -135c0 -82 -62 -132 -129 -132zM234 526c50 0 87 39 87 93c0 56 -37 95 -87 95c-52 0 -87 -39 -87 -95c0 -54 35 -93 87 -93zM513 0v725h403v-55h-339v-274h287v-55h-287v-341h-64z" />
    <glyph glyph-name="Identity.138" unicode="&#x2113;" horiz-adv-x="422" 
d="M176 595v-287c93 100 157 218 157 336c0 86 -32 117 -74 117c-45 0 -83 -54 -83 -166zM382 87l25 -37c-31 -30 -75 -63 -133 -63c-85 0 -156 68 -156 198v6c-20 -16 -42 -32 -63 -46l-26 38c31 21 61 44 89 69v329c0 165 62 227 140 227c75 0 129 -56 129 -163
c0 -142 -89 -289 -211 -404v-44c0 -116 48 -159 105 -159c46 0 74 23 101 49z" />
    <glyph glyph-name="Identity.139" unicode="&#x2116;" horiz-adv-x="951" 
d="M98 -13c-9 0 -12 0 -20 3l-6 47c23 0 36 11 36 45v626h66c70 -152 140 -305 207 -457l77 -174h4c-7 143 -7 225 -7 344v208c0 63 20 92 64 92c9 0 12 0 20 -3l6 -48c-23 0 -35 -10 -35 -45v-625h-67c-70 153 -140 305 -207 459l-77 172h-4c8 -143 7 -225 7 -344v-208
c0 -63 -19 -92 -64 -92zM774 309c-90 0 -165 65 -165 176c0 112 75 175 165 175s164 -63 164 -175c0 -111 -74 -176 -164 -176zM774 352c68 0 113 53 113 133c0 81 -45 133 -113 133s-113 -52 -113 -133c0 -80 45 -133 113 -133zM637 177v42h274v-42h-274z" />
    <glyph glyph-name="Identity.140" unicode="&#x2121;" horiz-adv-x="1000" 
d="M161 0v675h-134v50h326v-50h-135v-675h-57zM404 0v566h245v-47h-189v-197h146v-46h-146v-228h200v-48h-256zM729 0v566h57v-517h179v-49h-236z" />
    <glyph glyph-name="Identity.141" unicode="&#x2122;" horiz-adv-x="682" 
d="M119 408v297h-117v44h282v-44h-117v-297h-48zM341 408v341h63l56 -137l34 -93h4l33 93l55 137h63v-341h-46v173l6 110h-4l-90 -230h-41l-89 230h-4l6 -110v-173h-46z" />
    <glyph glyph-name="Identity.142" unicode="&#x2160;" horiz-adv-x="1000" 
d="M468 0v725h64v-725h-64z" />
    <glyph glyph-name="Identity.143" unicode="&#x2161;" horiz-adv-x="1000" 
d="M332 0v725h64v-725h-64zM605 0v725h64v-725h-64z" />
    <glyph glyph-name="Identity.144" unicode="&#x2162;" horiz-adv-x="1000" 
d="M195 0v725h64v-725h-64zM468 0v725h64v-725h-64zM741 0v725h64v-725h-64z" />
    <glyph glyph-name="Identity.145" unicode="&#x2163;" horiz-adv-x="1000" 
d="M194 0v725h64v-725h-64zM602 0l-237 725h68l129 -413c27 -88 45 -155 74 -242h4c30 87 47 154 75 242l128 413h65l-235 -725h-71z" />
    <glyph glyph-name="Identity.146" unicode="&#x2164;" horiz-adv-x="1000" 
d="M465 0l-236 725h68l129 -413c26 -88 45 -155 74 -242h4c30 87 48 154 75 242l128 413h65l-235 -725h-72z" />
    <glyph glyph-name="Identity.147" unicode="&#x2165;" horiz-adv-x="1000" 
d="M329 0l-237 725h68l129 -413c27 -88 45 -155 74 -242h4c30 87 48 154 76 242l128 413h64l-234 -725h-72zM742 0v725h64v-725h-64z" />
    <glyph glyph-name="Identity.148" unicode="&#x2166;" horiz-adv-x="1000" 
d="M217 0l-213 725h68l111 -413c24 -89 41 -155 69 -242h4c30 87 45 153 69 242l112 413h65l-212 -725h-73zM607 0v725h64v-725h-64zM837 0v725h64v-725h-64z" />
    <glyph glyph-name="Identity.149" unicode="&#x2167;" horiz-adv-x="1000" 
d="M145 0l-146 725h66l73 -413c16 -88 30 -155 47 -242h3c18 87 30 154 46 242l72 413h63l-143 -725h-81zM474 0v725h62v-725h-62zM663 0v725h62v-725h-62zM852 0v725h61v-725h-61z" />
    <glyph glyph-name="Identity.150" unicode="&#x2168;" horiz-adv-x="1000" 
d="M384 0l214 376l-200 349h70l112 -204c19 -34 34 -60 59 -101h5c20 41 33 67 52 101l112 204h66l-201 -353l216 -372h-70l-120 215l-65 114h-4c-23 -44 -42 -79 -62 -114l-118 -215h-66zM198 0v725h63v-725h-63z" />
    <glyph glyph-name="Identity.151" unicode="&#x2170;" horiz-adv-x="1000" 
d="M468 0v531h63v-531h-63zM501 653c-29 0 -52 21 -52 49c0 29 23 48 52 48c26 0 50 -19 50 -48c0 -28 -24 -49 -50 -49z" />
    <glyph glyph-name="Identity.152" unicode="&#x2171;" horiz-adv-x="1000" 
d="M340 0v531h62v-531h-62zM373 653c-29 0 -52 21 -52 49c0 29 23 48 52 48c26 0 49 -19 49 -48c0 -28 -23 -49 -49 -49zM598 0v531h62v-531h-62zM631 653c-29 0 -52 21 -52 49c0 29 23 48 52 48c26 0 49 -19 49 -48c0 -28 -23 -49 -49 -49z" />
    <glyph glyph-name="Identity.153" unicode="&#x2172;" horiz-adv-x="1000" 
d="M210 0v531h63v-531h-63zM243 653c-28 0 -52 21 -52 49c0 29 24 48 52 48c26 0 50 -19 50 -48c0 -28 -24 -49 -50 -49zM468 0v531h63v-531h-63zM501 653c-29 0 -52 21 -52 49c0 29 23 48 52 48c26 0 50 -19 50 -48c0 -28 -24 -49 -50 -49zM726 0v531h63v-531h-63zM759 653
c-29 0 -51 21 -51 49c0 29 22 48 51 48c26 0 50 -19 50 -48c0 -28 -24 -49 -50 -49z" />
    <glyph glyph-name="Identity.154" unicode="&#x2173;" horiz-adv-x="1000" 
d="M223 0v531h63v-531h-63zM256 653c-28 0 -51 21 -51 49c0 29 23 48 51 48c27 0 50 -19 50 -48c0 -28 -23 -49 -50 -49zM593 0l-196 531h66l113 -322c17 -52 35 -106 53 -154h4c16 48 35 102 51 154l114 322h62l-193 -531h-74z" />
    <glyph glyph-name="Identity.155" unicode="&#x2174;" horiz-adv-x="1000" 
d="M465 0l-197 531h66l113 -322c18 -52 35 -106 53 -154h4c17 48 36 102 52 154l114 322h62l-194 -531h-73z" />
    <glyph glyph-name="Identity.156" unicode="&#x2175;" horiz-adv-x="1000" 
d="M336 0l-197 531h66l113 -322c17 -52 35 -106 52 -154h4c17 48 36 102 52 154l114 322h62l-193 -531h-73zM713 0v531h63v-531h-63zM746 653c-29 0 -51 21 -51 49c0 29 22 48 51 48c26 0 49 -19 49 -48c0 -28 -23 -49 -49 -49z" />
    <glyph glyph-name="Identity.157" unicode="&#x2176;" horiz-adv-x="1000" 
d="M210 0l-194 531h66l111 -322c17 -52 35 -106 53 -154h4c17 48 35 102 51 154l113 322h61l-191 -531h-74zM584 0v531h63v-531h-63zM616 653c-28 0 -51 21 -51 49c0 29 23 48 51 48c27 0 50 -19 50 -48c0 -28 -23 -49 -50 -49zM838 0v531h62v-531h-62zM871 653
c-29 0 -52 21 -52 49c0 29 23 48 52 48c26 0 49 -19 49 -48c0 -28 -23 -49 -49 -49z" />
    <glyph glyph-name="Identity.158" unicode="&#x2177;" horiz-adv-x="1000" 
d="M138 0l-137 531h65l72 -322c14 -52 23 -106 38 -154h4c14 48 24 102 37 154l70 322h62l-132 -531h-79zM458 0v531h61v-531h-61zM490 653c-28 0 -50 21 -50 49c0 29 22 48 50 48c27 0 49 -19 49 -48c0 -28 -22 -49 -49 -49zM662 0v531h61v-531h-61zM694 653
c-28 0 -51 21 -51 49c0 29 23 48 51 48c26 0 49 -19 49 -48c0 -28 -23 -49 -49 -49zM866 0v531h61v-531h-61zM898 653c-28 0 -51 21 -51 49c0 29 23 48 51 48c26 0 48 -19 48 -48c0 -28 -22 -49 -48 -49z" />
    <glyph glyph-name="Identity.159" unicode="&#x2178;" horiz-adv-x="1000" 
d="M237 0v531h62v-531h-62zM270 653c-29 0 -52 21 -52 49c0 29 23 48 52 48c26 0 49 -19 49 -48c0 -28 -23 -49 -49 -49zM412 0l179 277l-164 254h68l81 -129c16 -28 37 -58 55 -88h4c19 30 35 60 53 88l76 129h66l-164 -259l178 -272h-68l-89 139c-19 32 -39 65 -61 95h-5
c-20 -30 -38 -62 -58 -95l-85 -139h-66z" />
    <glyph glyph-name="Identity.160" unicode="&#x2179;" horiz-adv-x="1000" 
d="M284 0l178 277l-164 254h69l81 -129c16 -28 36 -58 55 -88h4c18 30 34 60 53 88l75 129h67l-164 -259l177 -272h-67l-90 139c-19 32 -39 65 -61 95h-5c-19 -30 -37 -62 -58 -95l-84 -139h-66z" />
    <glyph glyph-name="Identity.161" unicode="&#x2190;" horiz-adv-x="1000" 
d="M960 355h-809c57 -43 130 -111 180 -178l-42 -27c-68 88 -166 174 -254 230c88 56 186 142 254 230l42 -27c-50 -67 -123 -135 -180 -178h809v-50z" />
    <glyph glyph-name="Identity.162" unicode="&#x2191;" horiz-adv-x="1000" 
d="M475 -80v809c-43 -57 -111 -130 -178 -180l-27 42c88 68 174 166 230 254c56 -88 142 -186 230 -254l-27 -42c-67 50 -135 123 -178 180v-809h-50z" />
    <glyph glyph-name="Identity.163" unicode="&#x2192;" horiz-adv-x="1000" 
d="M40 355v50h809c-57 43 -130 111 -180 178l42 27c68 -88 166 -174 254 -230c-88 -56 -186 -142 -254 -230l-42 27c50 67 123 135 180 178h-809z" />
    <glyph glyph-name="Identity.164" unicode="&#x2193;" horiz-adv-x="1000" 
d="M525 840v-809c43 57 111 130 178 180l27 -42c-88 -68 -174 -166 -230 -254c-56 88 -142 186 -230 254l27 42c67 -50 135 -123 178 -180v809h50z" />
    <glyph glyph-name="Identity.165" unicode="&#x2194;" horiz-adv-x="1000" 
d="M849 349h-698c57 -43 130 -112 180 -179l-42 -26c-68 88 -166 174 -254 230c88 55 186 142 254 230l42 -27c-50 -67 -123 -136 -180 -179h698c-57 43 -130 112 -180 179l42 27c68 -88 166 -175 254 -230c-88 -56 -186 -142 -254 -230l-42 26c50 67 123 136 180 179z" />
    <glyph glyph-name="Identity.166" unicode="&#x2195;" horiz-adv-x="1000" 
d="M525 729v-698c43 57 111 130 178 180l27 -42c-88 -68 -174 -166 -230 -254c-56 88 -142 186 -230 254l27 42c67 -50 135 -123 178 -180v698c-43 -57 -111 -130 -178 -180l-27 42c88 68 174 166 230 254c56 -88 142 -186 230 -254l-27 -42c-67 50 -135 123 -178 180z" />
    <glyph glyph-name="Identity.167" unicode="&#x2196;" horiz-adv-x="1000" 
d="M808 37l-573 572c10 -71 13 -170 2 -253l-49 10c15 110 7 241 -17 343c102 -24 233 -32 343 -17l10 -49c-83 -11 -182 -8 -253 2l572 -573z" />
    <glyph glyph-name="Identity.168" unicode="&#x2197;" horiz-adv-x="1000" 
d="M157 72l572 573c-71 -10 -170 -13 -253 -2l10 49c110 -15 241 -7 343 17c-24 -102 -32 -233 -17 -343l-49 -10c-11 83 -8 182 2 253l-573 -572z" />
    <glyph glyph-name="Identity.169" unicode="&#x2198;" horiz-adv-x="1000" 
d="M192 723l573 -572c-10 71 -13 170 -2 253l49 -10c-15 -110 -7 -241 17 -343c-102 24 -233 32 -343 17l-10 49c83 11 182 8 253 -2l-572 573z" />
    <glyph glyph-name="Identity.170" unicode="&#x2199;" horiz-adv-x="1000" 
d="M843 688l-572 -573c71 10 170 13 253 2l-10 -49c-110 15 -241 7 -343 -17c24 102 32 233 17 343l49 10c11 -83 8 -182 -2 -253l573 572z" />
    <glyph glyph-name="Identity.171" unicode="&#x21d2;" horiz-adv-x="1000" 
d="M759 258c44 45 91 86 132 115c-41 30 -88 71 -132 115h-719v50h674c-39 44 -76 91 -102 133l42 25c74 -115 202 -248 320 -323c-118 -74 -246 -207 -320 -322l-42 25c26 42 63 89 102 133h-674v49h719z" />
    <glyph glyph-name="Identity.172" unicode="&#x21d4;" horiz-adv-x="1000" 
d="M337 696l42 -25c-26 -42 -62 -89 -101 -133h444c-39 44 -75 91 -101 133l42 25c72 -115 197 -248 311 -323c-114 -74 -239 -207 -311 -322l-42 25c26 42 62 89 101 133h-444c39 -44 75 -91 101 -133l-42 -25c-72 115 -197 248 -311 322c114 75 239 208 311 323zM764 488
h-528c-44 -44 -89 -85 -130 -115c41 -29 86 -70 130 -115h528c44 45 89 86 130 115c-41 30 -86 71 -130 115z" />
    <glyph glyph-name="Identity.173" unicode="&#x2200;" horiz-adv-x="1000" 
d="M842 760l44 -22l-384 -752h-4l-384 752l44 22l140 -275h404zM323 436l176 -348h2l176 348h-354z" />
    <glyph glyph-name="Identity.174" unicode="&#x2202;" horiz-adv-x="1000" 
d="M718 495c0 147 -67 219 -169 219c-80 0 -139 -55 -167 -95l-36 33c38 46 110 107 204 107c133 0 219 -91 219 -258c0 -259 -134 -514 -337 -514c-129 0 -201 93 -201 212c0 150 124 268 245 268s186 -70 216 -147h2c14 56 24 121 24 175zM281 197c0 -95 57 -162 155 -162
c88 1 175 68 229 209c-5 102 -86 178 -185 178c-101 0 -199 -103 -199 -225z" />
    <glyph glyph-name="Identity.175" unicode="&#x2203;" horiz-adv-x="1000" 
d="M198 734h596v-721h-596v49h546v287h-546v49h546v287h-546v49z" />
    <glyph glyph-name="Identity.176" unicode="&#x2207;" horiz-adv-x="1000" 
d="M469 -19l-311 694v35h682v-35l-309 -694h-62zM604 287l165 372h-540l164 -372l104 -243h5z" />
    <glyph glyph-name="Identity.177" unicode="&#x2208;" horiz-adv-x="1000" 
d="M872 647h-408c-157 0 -274 -108 -286 -249h694v-49h-694c12 -141 129 -249 286 -249h408v-49h-408c-193 0 -337 141 -337 322c0 182 144 323 337 323h408v-49z" />
    <glyph glyph-name="Identity.178" unicode="&#x220b;" horiz-adv-x="1000" 
d="M536 647h-408v49h408c193 0 337 -141 337 -323c0 -181 -144 -322 -337 -322h-408v49h408c157 0 274 108 286 249h-694v49h694c-12 141 -129 249 -286 249z" />
    <glyph glyph-name="Identity.179" unicode="&#x220f;" horiz-adv-x="1000" 
d="M221 -133v841h559v-841h-63v788h-436v-788h-60z" />
    <glyph glyph-name="Identity.180" unicode="&#x2211;" horiz-adv-x="1000" 
d="M288 53v-4h510v-49h-596v37l311 322l-293 325v38h537v-48h-453v-4l278 -311z" />
    <glyph glyph-name="Identity.181" unicode="&#x221a;" horiz-adv-x="1000" 
d="M564 880h436v-38h-409l-321 -924h-30l-106 281l-71 -101l-25 18l131 186l101 -267z" />
    <glyph glyph-name="Identity.182" unicode="&#x221d;" horiz-adv-x="1000" 
d="M530 373c61 -85 137 -144 232 -144c26 0 49 3 69 9l18 -46c-27 -9 -57 -13 -88 -13c-116 0 -201 71 -261 154c-61 -83 -146 -154 -262 -154c-95 0 -200 66 -200 194c0 129 105 194 200 194c116 0 201 -70 262 -153c60 83 145 153 261 153c31 0 61 -3 88 -12l-18 -46
c-20 6 -43 9 -69 9c-95 0 -171 -59 -232 -145zM87 373c0 -93 75 -144 151 -144c94 0 170 59 231 144c-61 86 -137 145 -231 145c-76 0 -151 -51 -151 -145z" />
    <glyph glyph-name="Identity.183" unicode="&#x221e;" horiz-adv-x="1000" 
d="M500 414c61 83 146 153 261 153c95 0 201 -65 201 -194c0 -128 -106 -194 -201 -194c-115 0 -200 71 -261 153c-61 -82 -147 -153 -262 -153c-95 0 -200 66 -200 194c0 129 105 194 200 194c115 0 201 -70 262 -153zM87 373c0 -93 75 -144 151 -144c95 0 170 59 231 144
c-61 86 -136 145 -231 145c-76 0 -151 -51 -151 -145zM530 373c61 -85 137 -144 232 -144c75 0 150 51 150 144c0 94 -75 145 -150 145c-95 0 -171 -59 -232 -145z" />
    <glyph glyph-name="Identity.184" unicode="&#x2220;" horiz-adv-x="1000" 
d="M222 78v-3h653v-49h-770v4l667 667l34 -35z" />
    <glyph glyph-name="Identity.185" unicode="&#x2225;" horiz-adv-x="1000" 
d="M214 110l330 659l44 -22l-329 -659zM456 -11l-44 22l329 659l45 -22z" />
    <glyph glyph-name="Identity.186" unicode="&#x2227;" horiz-adv-x="1000" 
d="M114 14l384 752h4l384 -752l-44 -22l-341 671h-2l-341 -671z" />
    <glyph glyph-name="Identity.187" unicode="&#x2228;" horiz-adv-x="1000" 
d="M886 733l-384 -752h-4l-384 752l44 22l341 -671h2l341 671z" />
    <glyph glyph-name="Identity.188" unicode="&#x2229;" horiz-adv-x="1000" 
d="M177 410c0 192 142 337 323 337s323 -145 323 -337v-408h-50v408c0 165 -119 287 -273 287s-273 -122 -273 -287v-408h-50v408z" />
    <glyph glyph-name="Identity.189" unicode="&#x222a;" horiz-adv-x="1000" 
d="M823 337c0 -193 -142 -337 -323 -337s-323 144 -323 337v408h50v-408c0 -165 119 -288 273 -288s273 123 273 288v408h50v-408z" />
    <glyph glyph-name="Identity.190" unicode="&#x222b;" horiz-adv-x="1000" 
d="M473 152v458c0 198 94 232 169 232c13 0 25 -1 35 -3l-4 -48c-9 2 -17 3 -28 3c-48 0 -118 -13 -118 -186v-458c0 -198 -94 -232 -169 -232c-13 0 -25 1 -35 3l4 48c9 -2 17 -3 28 -3c48 0 118 13 118 186z" />
    <glyph glyph-name="Identity.191" unicode="&#x222c;" horiz-adv-x="1000" 
d="M281 152v458c0 198 94 232 170 232c13 0 24 -1 35 -3l-5 -48c-8 2 -17 3 -28 3c-48 0 -117 -13 -117 -186v-458c0 -198 -95 -232 -170 -232c-13 0 -25 1 -35 3l5 48c8 -2 16 -3 28 -3c47 0 117 13 117 186zM664 152v458c0 198 95 232 170 232c13 0 25 -1 35 -3l-5 -48
c-8 2 -16 3 -28 3c-47 0 -117 -13 -117 -186v-458c0 -198 -94 -232 -170 -232c-13 0 -24 1 -35 3l5 48c8 -2 17 -3 28 -3c48 0 117 13 117 186z" />
    <glyph glyph-name="Identity.192" unicode="&#x222e;" horiz-adv-x="1000" 
d="M473 226c-74 12 -130 76 -130 154s56 142 130 154v76c0 198 94 232 169 232c13 0 25 -1 35 -3l-4 -48c-9 2 -17 3 -28 3c-48 0 -118 -13 -118 -184v-76c74 -12 130 -76 130 -154s-56 -142 -130 -154v-76c0 -198 -94 -232 -169 -232c-13 0 -25 1 -35 3l4 48
c9 -2 17 -3 28 -3c48 0 118 13 118 184v76zM473 501c-56 -11 -99 -61 -99 -121s43 -110 99 -121v242zM527 259c56 11 99 61 99 121s-43 110 -99 121v-242z" />
    <glyph glyph-name="Identity.193" unicode="&#x2234;" horiz-adv-x="1000" 
d="M436 616c0 35 29 64 64 64s64 -29 64 -64s-29 -64 -64 -64s-64 29 -64 64zM160 131c0 35 29 64 64 64s64 -29 64 -64s-29 -64 -64 -64s-64 29 -64 64zM713 131c0 35 28 64 64 64c35 0 64 -29 64 -64s-29 -64 -64 -64c-36 0 -64 29 -64 64z" />
    <glyph glyph-name="Identity.194" unicode="&#x2235;" horiz-adv-x="1000" 
d="M160 616c0 35 29 64 64 64s64 -29 64 -64s-29 -64 -64 -64s-64 29 -64 64zM713 616c0 35 28 64 64 64c35 0 64 -29 64 -64s-29 -64 -64 -64c-36 0 -64 29 -64 64zM436 131c0 35 29 64 64 64s64 -29 64 -64s-29 -64 -64 -64s-64 29 -64 64z" />
    <glyph glyph-name="Identity.195" unicode="&#x223d;" horiz-adv-x="1000" 
d="M482 391c63 92 153 176 279 176c95 0 201 -65 201 -194c0 -128 -106 -194 -202 -194c-31 0 -60 4 -88 13l18 46c21 -6 44 -9 71 -9c76 0 151 50 151 144s-75 145 -150 145c-103 0 -181 -68 -245 -163c-63 -92 -153 -176 -279 -176c-95 0 -200 66 -200 194
c0 129 105 194 201 194c31 0 61 -3 88 -12l-18 -46c-20 6 -43 9 -71 9c-76 0 -151 -51 -151 -145c0 -93 75 -144 151 -144c102 0 180 68 244 162z" />
    <glyph glyph-name="Identity.196" unicode="&#x2252;" horiz-adv-x="1000" 
d="M252 664c0 35 29 63 64 63s64 -28 64 -63c0 -36 -29 -64 -64 -64s-64 28 -64 64zM132 498h736v-46h-736v46zM132 295h736v-46h-736v46zM620 83c0 36 29 64 64 64s64 -28 64 -64c0 -35 -29 -64 -64 -64s-64 29 -64 64z" />
    <glyph glyph-name="Identity.197" unicode="&#x2260;" horiz-adv-x="1000" 
d="M868 448h-315l-56 -155h371v-49h-388l-82 -225l-47 17l75 208h-294v49h312l57 155h-369v49h387l83 231l47 -17l-78 -214h297v-49z" />
    <glyph glyph-name="Identity.198" unicode="&#x2261;" horiz-adv-x="1000" 
d="M132 612h736v-48h-736v48zM132 397h736v-47h-736v47zM132 182h736v-47h-736v47z" />
    <glyph glyph-name="Identity.199" unicode="&#x2264;" horiz-adv-x="1000" 
d="M128 82h744v-48h-744v48zM237 480v-4l636 -257l-19 -45l-749 302v4l749 303l19 -46z" />
    <glyph glyph-name="Identity.200" unicode="&#x2265;" horiz-adv-x="1000" 
d="M128 34v48h744v-48h-744zM127 219l636 257v4l-636 257l19 46l749 -303v-4l-749 -302z" />
    <glyph glyph-name="Identity.201" unicode="&#x226a;" horiz-adv-x="1000" 
d="M620 759l25 -37l-498 -347v-4l498 -346l-25 -38l-552 384v4zM905 759l26 -37l-499 -347v-4l499 -346l-26 -38l-552 384v4z" />
    <glyph glyph-name="Identity.202" unicode="&#x226b;" horiz-adv-x="1000" 
d="M95 759l552 -384v-4l-552 -384l-26 38l499 346v4l-499 347zM380 759l552 -384v-4l-552 -384l-25 38l498 346v4l-498 347z" />
    <glyph glyph-name="Identity.203" unicode="&#x2282;" horiz-adv-x="1000" 
d="M464 51c-193 0 -337 141 -337 322c0 182 144 323 337 323h408v-49h-408c-166 0 -288 -120 -288 -274c0 -153 122 -273 288 -273h408v-49h-408z" />
    <glyph glyph-name="Identity.204" unicode="&#x2283;" horiz-adv-x="1000" 
d="M536 696c193 0 337 -141 337 -323c0 -181 -144 -322 -337 -322h-408v49h408c166 0 288 120 288 273c0 154 -122 274 -288 274h-408v49h408z" />
    <glyph glyph-name="Identity.205" unicode="&#x2286;" horiz-adv-x="1000" 
d="M411 710c-158 0 -235 -102 -235 -209s77 -209 235 -209h461v-49h-462c-184 0 -283 124 -283 258s99 258 283 258h462v-49h-461zM128 37h744v-50h-744v50z" />
    <glyph glyph-name="Identity.206" unicode="&#x2287;" horiz-adv-x="1000" 
d="M590 292c157 0 234 102 234 209s-77 209 -234 209h-462v49h462c184 0 283 -124 283 -258s-99 -258 -283 -258h-462v49h462zM128 37h744v-50h-744v50z" />
    <glyph glyph-name="Identity.207" unicode="&#x2299;" horiz-adv-x="1000" 
d="M500 10c-204 0 -370 166 -370 370s166 370 370 370s370 -166 370 -370s-166 -370 -370 -370zM179 380c0 -177 144 -321 321 -321s321 144 321 321s-144 321 -321 321s-321 -144 -321 -321zM553 380c0 -30 -24 -53 -53 -53c-30 0 -53 23 -53 53c0 29 23 53 53 53
c29 0 53 -24 53 -53z" />
    <glyph glyph-name="Identity.208" unicode="&#x22a5;" horiz-adv-x="1000" 
d="M525 89h364v-49h-778v49h364v652h50v-652z" />
    <glyph glyph-name="Identity.209" unicode="&#x2312;" horiz-adv-x="1000" 
d="M27 641c131 127 288 200 473 200s342 -73 473 -200l-24 -39c-126 124 -279 191 -449 191s-323 -67 -449 -191z" />
    <glyph glyph-name="Identity.210" unicode="&#x2460;" horiz-adv-x="1000" 
d="M500 -82c-255 0 -462 207 -462 462s207 462 462 462s462 -207 462 -462c0 -257 -209 -462 -462 -462zM500 -54c240 0 434 194 434 434s-194 434 -434 434c-242 0 -434 -196 -434 -434c0 -240 194 -434 434 -434zM492 129v442h-105v37c49 8 86 20 116 35h44v-514h-55z" />
    <glyph glyph-name="Identity.211" unicode="&#x2461;" horiz-adv-x="1000" 
d="M500 -82c-255 0 -462 207 -462 462s207 462 462 462s462 -207 462 -462c0 -257 -209 -462 -462 -462zM500 -54c240 0 434 194 434 434s-194 434 -434 434c-242 0 -434 -196 -434 -434c0 -240 194 -434 434 -434zM332 129v34c181 161 275 255 275 341
c0 62 -36 106 -116 106c-51 0 -96 -29 -129 -63l-34 30c46 49 100 78 168 78c103 0 167 -58 167 -148c0 -99 -102 -197 -248 -333c30 2 65 4 104 4h169v-49h-356z" />
    <glyph glyph-name="Identity.212" unicode="&#x2462;" horiz-adv-x="1000" 
d="M500 -82c-255 0 -462 207 -462 462s207 462 462 462s462 -207 462 -462c0 -257 -209 -462 -462 -462zM500 -54c240 0 434 194 434 434s-194 434 -434 434c-242 0 -434 -196 -434 -434c0 -240 194 -434 434 -434zM498 117c-91 0 -149 36 -186 74l30 37
c34 -34 80 -64 155 -64c73 0 125 41 125 103c0 65 -52 109 -193 109v44c128 0 173 44 173 102c0 54 -42 88 -108 88c-49 0 -95 -21 -129 -55l-30 36c41 37 92 64 161 64c93 0 162 -47 162 -130c0 -64 -45 -103 -105 -123v-3c70 -16 127 -61 127 -134
c0 -90 -80 -148 -182 -148z" />
    <glyph glyph-name="Identity.213" unicode="&#x2463;" horiz-adv-x="1000" 
d="M342 321h197v162c0 25 1 69 3 96h-4c-15 -25 -28 -41 -46 -67zM592 643v-322h83v-45h-83v-147h-53v147h-260v36l255 331h58zM500 -54c240 0 434 194 434 434s-194 434 -434 434c-242 0 -434 -196 -434 -434c0 -240 194 -434 434 -434zM500 842c255 0 462 -207 462 -462
c0 -257 -209 -462 -462 -462c-255 0 -462 207 -462 462s207 462 462 462z" />
    <glyph glyph-name="Identity.214" unicode="&#x2464;" horiz-adv-x="1000" 
d="M500 -82c-255 0 -462 207 -462 462s207 462 462 462s462 -207 462 -462c0 -257 -209 -462 -462 -462zM500 -54c240 0 434 194 434 434s-194 434 -434 434c-242 0 -434 -196 -434 -434c0 -240 194 -434 434 -434zM500 117c-92 0 -144 36 -181 70l28 38
c33 -30 76 -61 151 -61c71 0 131 49 131 126c0 74 -51 121 -129 121c-42 0 -71 -14 -103 -35l-33 20l20 247h273v-48h-226l-15 -167c27 14 58 26 95 26c96 0 176 -52 176 -163s-93 -174 -187 -174z" />
    <glyph glyph-name="Identity.215" unicode="&#x2465;" horiz-adv-x="1000" 
d="M502 163c61 0 110 50 110 117c0 70 -37 119 -119 119c-38 0 -88 -20 -133 -72c9 -105 56 -164 142 -164zM654 602l-31 -36c-26 26 -62 42 -101 42c-86 0 -160 -59 -163 -234c39 42 92 69 146 69c100 0 162 -56 162 -161c0 -98 -76 -165 -166 -165
c-117 0 -197 85 -197 247c0 212 103 291 219 291c58 0 100 -22 131 -53zM500 -54c240 0 434 194 434 434s-194 434 -434 434c-242 0 -434 -196 -434 -434c0 -240 194 -434 434 -434zM500 842c255 0 462 -207 462 -462c0 -257 -209 -462 -462 -462c-255 0 -462 207 -462 462
s207 462 462 462z" />
    <glyph glyph-name="Identity.216" unicode="&#x2466;" horiz-adv-x="1000" 
d="M500 -82c-255 0 -462 207 -462 462s207 462 462 462s462 -207 462 -462c0 -257 -209 -462 -462 -462zM500 -54c240 0 434 194 434 434s-194 434 -434 434c-242 0 -434 -196 -434 -434c0 -240 194 -434 434 -434zM440 129c10 199 53 324 166 466h-282v48h350v-33
c-135 -159 -166 -280 -175 -481h-59z" />
    <glyph glyph-name="Identity.217" unicode="&#x2467;" horiz-adv-x="1000" 
d="M500 -82c-255 0 -462 207 -462 462s207 462 462 462s462 -207 462 -462c0 -257 -209 -462 -462 -462zM500 -54c240 0 434 194 434 434s-194 434 -434 434c-242 0 -434 -196 -434 -434c0 -240 194 -434 434 -434zM502 117c-109 0 -187 62 -187 141c0 71 58 118 112 144v4
c-42 25 -83 64 -83 118c0 78 70 131 158 131c101 0 161 -58 161 -136c0 -57 -46 -104 -81 -129v-3c51 -27 101 -62 101 -132c0 -76 -73 -138 -181 -138zM542 405c44 32 71 70 71 111c0 53 -42 97 -112 97c-62 0 -104 -35 -104 -89c0 -66 70 -95 145 -119zM503 161
c76 0 126 39 126 96c0 72 -76 97 -165 128c-53 -28 -97 -67 -97 -120c0 -60 58 -104 136 -104z" />
    <glyph glyph-name="Identity.218" unicode="&#x2468;" horiz-adv-x="1000" 
d="M505 373c38 0 88 20 131 71c-8 104 -53 166 -140 166c-61 0 -108 -50 -108 -119c0 -71 36 -118 117 -118zM345 169l31 36c26 -26 61 -40 100 -40c86 0 158 60 161 232c-38 -40 -89 -67 -142 -67c-99 0 -162 55 -162 162c0 96 75 163 164 163c116 0 196 -84 196 -247
c0 -212 -103 -291 -216 -291c-59 0 -101 22 -132 52zM500 -54c240 0 434 194 434 434s-194 434 -434 434c-242 0 -434 -196 -434 -434c0 -240 194 -434 434 -434zM500 842c255 0 462 -207 462 -462c0 -257 -209 -462 -462 -462c-255 0 -462 207 -462 462s207 462 462 462z
" />
    <glyph glyph-name="Identity.219" unicode="&#x2469;" horiz-adv-x="1000" 
d="M500 -82c-255 0 -462 207 -462 462s207 462 462 462s462 -207 462 -462c0 -257 -209 -462 -462 -462zM500 -54c240 0 434 194 434 434s-194 434 -434 434c-242 0 -434 -196 -434 -434c0 -240 194 -434 434 -434zM304 129v442h-83v37c41 8 71 20 95 35h42v-514h-54z
M618 117c-95 0 -154 104 -154 271s58 267 154 267c95 0 154 -100 154 -267s-59 -271 -154 -271zM618 165c59 0 99 76 99 223c0 148 -40 221 -99 221s-99 -73 -99 -221c0 -147 40 -223 99 -223z" />
    <glyph glyph-name="Identity.220" unicode="&#x246a;" horiz-adv-x="1000" 
d="M500 -82c-255 0 -462 207 -462 462s207 462 462 462s462 -207 462 -462c0 -257 -209 -462 -462 -462zM500 -54c240 0 434 194 434 434s-194 434 -434 434c-242 0 -434 -196 -434 -434c0 -240 194 -434 434 -434zM354 129v442h-83v37c40 8 70 20 95 35h42v-514h-54z
M616 129v442h-83v37c41 8 70 20 94 35h42v-514h-53z" />
    <glyph glyph-name="Identity.221" unicode="&#x246b;" horiz-adv-x="1000" 
d="M500 -82c-255 0 -462 207 -462 462s207 462 462 462s462 -207 462 -462c0 -257 -209 -462 -462 -462zM500 -54c240 0 434 194 434 434s-194 434 -434 434c-242 0 -434 -196 -434 -434c0 -240 194 -434 434 -434zM305 129v442h-83v37c40 8 69 20 94 35h42v-514h-53z
M472 129v34c141 161 217 255 217 341c0 62 -29 106 -89 106c-40 0 -73 -27 -98 -60l-33 28c37 48 82 77 136 77c84 0 136 -58 136 -148c0 -99 -79 -197 -190 -333c23 2 52 4 81 4h128v-49h-288z" />
    <glyph glyph-name="Identity.222" unicode="&#x246c;" horiz-adv-x="1000" 
d="M500 -82c-255 0 -462 207 -462 462s207 462 462 462s462 -207 462 -462c0 -257 -209 -462 -462 -462zM500 -54c240 0 434 194 434 434s-194 434 -434 434c-242 0 -434 -196 -434 -434c0 -240 194 -434 434 -434zM305 129v442h-83v37c40 8 69 20 94 35h43v-514h-54z
M607 117c-70 0 -119 36 -148 73l31 34c30 -33 64 -60 118 -60c55 0 94 41 94 103c0 65 -38 109 -149 109v44c99 0 134 44 134 102c0 54 -32 88 -82 88c-34 0 -71 -17 -97 -50l-32 32c34 37 77 63 131 63c78 0 134 -47 134 -130c0 -64 -36 -103 -83 -123v-3
c54 -16 100 -61 100 -134c0 -90 -67 -148 -151 -148z" />
    <glyph glyph-name="Identity.223" unicode="&#x246d;" horiz-adv-x="1000" 
d="M222 571v37c40 8 69 20 94 35h42v-514h-53v442h-83zM507 321h149v162c0 25 1 69 2 96h-3c-12 -25 -22 -41 -36 -67zM707 643v-322h63v-45h-63v-147h-51v147h-206v36l198 331h59zM500 -54c240 0 434 194 434 434s-194 434 -434 434c-242 0 -434 -196 -434 -434
c0 -240 194 -434 434 -434zM500 842c255 0 462 -207 462 -462c0 -257 -209 -462 -462 -462c-255 0 -462 207 -462 462s207 462 462 462z" />
    <glyph glyph-name="Identity.224" unicode="&#x246e;" horiz-adv-x="1000" 
d="M500 -82c-255 0 -462 207 -462 462s207 462 462 462s462 -207 462 -462c0 -257 -209 -462 -462 -462zM500 -54c240 0 434 194 434 434s-194 434 -434 434c-242 0 -434 -196 -434 -434c0 -240 194 -434 434 -434zM305 129v442h-83v37c40 8 69 20 94 35h42v-514h-53z
M613 117c-74 0 -116 35 -148 70l27 37c26 -30 61 -60 119 -60c54 0 99 49 99 126c0 74 -40 121 -98 121c-32 0 -54 -14 -81 -35l-29 20l15 247h225v-48h-180l-10 -167c21 14 44 26 72 26c76 0 142 -52 142 -163s-76 -174 -153 -174z" />
    <glyph glyph-name="Identity.225" unicode="&#x2474;" horiz-adv-x="1000" 
d="M161 -66c-88 130 -126 273 -126 446c0 172 38 316 126 446l33 -12c-83 -124 -115 -279 -115 -434c1 -156 32 -310 115 -434zM332 17v50h162v572h-125v40c59 9 103 25 137 46h46v-658h150v-50h-370zM839 -66l-33 12c83 124 114 278 115 434c0 155 -32 310 -115 434l33 12
c88 -130 126 -274 126 -446c0 -173 -38 -316 -126 -446z" />
    <glyph glyph-name="Identity.226" unicode="&#x2475;" horiz-adv-x="1000" 
d="M161 -66c-88 130 -126 273 -126 446c0 172 38 316 126 446l33 -12c-83 -124 -115 -279 -115 -434c1 -156 32 -310 115 -434zM305 17v35c219 226 338 362 338 483c0 86 -44 151 -145 151c-62 0 -122 -35 -160 -87l-38 34c50 62 116 104 204 104c126 0 198 -78 198 -200
c0 -139 -128 -282 -310 -474c39 2 78 5 117 5h229v-51h-433zM839 -66l-33 12c83 124 114 278 115 434c0 155 -32 310 -115 434l33 12c88 -130 126 -274 126 -446c0 -173 -38 -316 -126 -446z" />
    <glyph glyph-name="Identity.227" unicode="&#x2476;" horiz-adv-x="1000" 
d="M161 -66c-88 130 -126 273 -126 446c0 172 38 316 126 446l33 -12c-83 -124 -115 -279 -115 -434c1 -156 32 -310 115 -434zM502 4c-105 0 -181 49 -220 99l33 39c39 -48 100 -86 184 -86c88 0 159 57 159 148c0 97 -69 158 -236 158v49c152 0 212 70 212 149
c0 78 -56 126 -134 126c-60 0 -117 -28 -154 -73l-35 37c46 51 113 87 190 87c113 0 193 -62 193 -171c0 -91 -52 -146 -137 -174v-4c94 -22 161 -84 161 -185c0 -123 -95 -199 -216 -199zM839 -66l-33 12c83 124 114 278 115 434c0 155 -32 310 -115 434l33 12
c88 -130 126 -274 126 -446c0 -173 -38 -316 -126 -446z" />
    <glyph glyph-name="Identity.228" unicode="&#x2477;" horiz-adv-x="1000" 
d="M161 826l33 -12c-83 -124 -115 -279 -115 -434c1 -156 32 -310 115 -434l-33 -12c-88 130 -126 273 -126 446c0 172 38 316 126 446zM322 274h248v264c0 36 0 68 3 113h-5c-21 -35 -36 -62 -58 -96zM627 725v-451h100v-49h-100v-208h-57v208h-314v37l308 463h63zM806 814
l33 12c88 -130 126 -274 126 -446c0 -173 -38 -316 -126 -446l-33 12c83 124 114 278 115 434c0 155 -32 310 -115 434z" />
    <glyph glyph-name="Identity.229" unicode="&#x2478;" horiz-adv-x="1000" 
d="M161 -66c-88 130 -126 273 -126 446c0 172 38 316 126 446l33 -12c-83 -124 -115 -279 -115 -434c1 -156 32 -310 115 -434zM487 3c-108 0 -172 47 -215 95l33 40c38 -45 91 -84 179 -84c93 0 172 74 172 184c0 108 -66 177 -164 177c-52 0 -85 -17 -124 -47l-38 22
l25 335h328v-52h-276l-23 -246c36 24 70 36 122 36c114 0 211 -69 211 -223c0 -152 -113 -237 -230 -237zM839 -66l-33 12c83 124 114 278 115 434c0 155 -32 310 -115 434l33 12c88 -130 126 -274 126 -446c0 -173 -38 -316 -126 -446z" />
    <glyph glyph-name="Identity.230" unicode="&#x2479;" horiz-adv-x="1000" 
d="M161 826l33 -12c-83 -124 -115 -279 -115 -434c1 -156 32 -310 115 -434l-33 -12c-88 130 -126 273 -126 446c0 172 38 316 126 446zM519 54c81 0 141 73 141 171c0 110 -49 171 -143 171c-48 0 -113 -25 -166 -103c10 -147 69 -239 168 -239zM706 667l-36 -38
c-30 40 -79 57 -128 57c-101 0 -190 -86 -192 -337c45 60 113 96 176 96c116 0 192 -77 192 -220c0 -130 -92 -221 -199 -221c-132 0 -227 118 -227 334c0 295 117 399 248 399c73 0 128 -26 166 -70zM806 814l33 12c88 -130 126 -274 126 -446c0 -173 -38 -316 -126 -446
l-33 12c83 124 114 278 115 434c0 155 -32 310 -115 434z" />
    <glyph glyph-name="Identity.231" unicode="&#x247a;" horiz-adv-x="1000" 
d="M161 -66c-88 130 -126 273 -126 446c0 172 38 316 126 446l33 -12c-83 -124 -115 -279 -115 -434c1 -156 32 -310 115 -434zM431 17c8 282 75 450 202 657h-346v51h413v-36c-149 -226 -200 -393 -209 -672h-60zM839 -66l-33 12c83 124 114 278 115 434
c0 155 -32 310 -115 434l33 12c88 -130 126 -274 126 -446c0 -173 -38 -316 -126 -446z" />
    <glyph glyph-name="Identity.232" unicode="&#x247b;" horiz-adv-x="1000" 
d="M161 -66c-88 130 -126 273 -126 446c0 172 38 316 126 446l33 -12c-83 -124 -115 -279 -115 -434c1 -156 32 -310 115 -434zM506 4c-135 0 -222 82 -222 194c0 103 70 161 135 199v5c-58 42 -102 89 -102 165c0 102 81 170 186 170c122 0 191 -76 191 -178
c0 -72 -51 -134 -101 -185v-4c74 -45 125 -82 125 -185s-77 -181 -212 -181zM551 391c53 55 88 103 88 166c0 72 -50 134 -137 134c-73 0 -129 -50 -129 -124c0 -90 75 -133 178 -176zM506 51c98 0 153 56 153 135c0 107 -88 142 -204 191c-63 -45 -115 -92 -115 -176
c0 -85 66 -150 166 -150zM839 -66l-33 12c83 124 114 278 115 434c0 155 -32 310 -115 434l33 12c88 -130 126 -274 126 -446c0 -173 -38 -316 -126 -446z" />
    <glyph glyph-name="Identity.233" unicode="&#x247c;" horiz-adv-x="1000" 
d="M161 826l33 -12c-83 -124 -115 -279 -115 -434c1 -156 32 -310 115 -434l-33 -12c-88 130 -126 273 -126 446c0 172 38 316 126 446zM479 346c47 0 113 24 166 101c-10 148 -68 240 -167 240c-82 0 -141 -72 -141 -171c0 -109 49 -170 142 -170zM291 74l35 39
c30 -40 79 -57 129 -57c100 0 188 84 191 335c-46 -59 -113 -94 -175 -94c-117 0 -192 77 -192 219c0 131 91 221 198 221c133 0 227 -117 227 -333c0 -296 -117 -400 -247 -400c-73 0 -129 27 -166 70zM806 814l33 12c88 -130 126 -274 126 -446c0 -173 -38 -316 -126 -446
l-33 12c83 124 114 278 115 434c0 155 -32 310 -115 434z" />
    <glyph glyph-name="Identity.234" unicode="&#x247d;" horiz-adv-x="1000" 
d="M839 -66l-33 12c83 124 114 278 115 434c0 155 -32 310 -115 434l33 12c88 -130 126 -274 126 -446c0 -173 -38 -316 -126 -446zM642 53c77 0 128 94 128 322s-51 314 -128 314c-76 0 -128 -86 -128 -314s52 -322 128 -322zM642 4c-105 0 -181 113 -181 371
c0 256 76 362 181 362s181 -106 181 -362c0 -258 -76 -371 -181 -371zM292 17v626h-111v36c54 8 93 27 125 46h37v-708h-51zM194 -54l-33 -12c-88 130 -126 273 -126 446c0 172 38 316 126 446l33 -12c-83 -124 -115 -279 -115 -434c1 -156 32 -310 115 -434z" />
    <glyph glyph-name="Identity.235" unicode="&#x247e;" horiz-adv-x="1000" 
d="M839 -66l-33 12c83 124 114 278 115 434c0 155 -32 310 -115 434l33 12c88 -130 126 -274 126 -446c0 -173 -38 -316 -126 -446zM660 17v626h-110v36c54 8 93 27 125 46h36v-708h-51zM347 17v626h-110v36c53 8 92 27 124 46h37v-708h-51zM194 -54l-33 -12
c-88 130 -126 273 -126 446c0 172 38 316 126 446l33 -12c-83 -124 -115 -279 -115 -434c1 -156 32 -310 115 -434z" />
    <glyph glyph-name="Identity.236" unicode="&#x247f;" horiz-adv-x="1000" 
d="M839 -66l-33 12c83 124 114 278 115 434c0 155 -32 310 -115 434l33 12c88 -130 126 -274 126 -446c0 -173 -38 -316 -126 -446zM466 17v35c191 229 275 372 275 492c0 84 -36 146 -117 146c-49 0 -94 -37 -127 -85l-35 31c45 56 94 101 165 101c106 0 165 -75 165 -192
c0 -139 -93 -286 -254 -485c38 2 76 4 114 4h165v-47h-351zM292 17v626h-111v36c54 8 93 27 125 46h37v-708h-51zM194 -54l-33 -12c-88 130 -126 273 -126 446c0 172 38 316 126 446l33 -12c-83 -124 -115 -279 -115 -434c1 -156 32 -310 115 -434z" />
    <glyph glyph-name="Identity.237" unicode="&#x2480;" horiz-adv-x="1000" 
d="M839 -66l-33 12c83 124 114 278 115 434c0 155 -32 310 -115 434l33 12c88 -130 126 -274 126 -446c0 -173 -38 -316 -126 -446zM684 392v-4c74 -19 138 -84 138 -185c0 -123 -81 -199 -186 -199c-90 0 -154 48 -190 94l32 36c34 -43 83 -81 156 -81c75 0 136 57 136 149
c0 99 -61 161 -201 161v47c129 0 181 71 181 152c0 79 -47 128 -116 128c-49 0 -95 -29 -127 -69l-33 34c41 47 95 82 161 82c98 0 168 -62 168 -171c0 -91 -51 -149 -119 -174zM292 17v626h-111v36c54 8 93 27 125 46h37v-708h-51zM194 -54l-33 -12
c-88 130 -126 273 -126 446c0 172 38 316 126 446l33 -12c-83 -124 -115 -279 -115 -434c1 -156 32 -310 115 -434z" />
    <glyph glyph-name="Identity.238" unicode="&#x2481;" horiz-adv-x="1000" 
d="M161 826l33 -12c-83 -124 -115 -279 -115 -434c1 -156 32 -310 115 -434l-33 -12c-88 130 -126 273 -126 446c0 172 38 316 126 446zM181 643v36c54 8 93 27 125 46h37v-708h-51v626h-111zM488 274h198v245c0 35 0 96 2 132h-4c-17 -37 -29 -63 -48 -101zM817 229h-83
v-212h-48v212h-256v33l253 463h51v-451h83v-45zM806 814l33 12c88 -130 126 -274 126 -446c0 -173 -38 -316 -126 -446l-33 12c83 124 114 278 115 434c0 155 -32 310 -115 434z" />
    <glyph glyph-name="Identity.239" unicode="&#x2482;" horiz-adv-x="1000" 
d="M839 -66l-33 12c83 124 114 278 115 434c0 155 -32 310 -115 434l33 12c88 -130 126 -274 126 -446c0 -173 -38 -316 -126 -446zM548 676l-21 -251c31 21 56 36 99 36c95 0 174 -68 174 -221c0 -152 -92 -237 -189 -237c-90 0 -141 47 -178 90l31 37
c33 -40 73 -79 144 -79c76 0 140 74 140 187c0 109 -53 178 -130 178c-42 0 -68 -19 -100 -45l-37 20l24 334h275v-49h-232zM292 17v626h-111v36c54 8 93 27 125 46h37v-708h-51zM194 -54l-33 -12c-88 130 -126 273 -126 446c0 172 38 316 126 446l33 -12
c-83 -124 -115 -279 -115 -434c1 -156 32 -310 115 -434z" />
    <glyph glyph-name="Identity.240" unicode="&#x249c;" horiz-adv-x="1000" 
d="M161 -66c-88 130 -126 273 -126 446c0 172 38 316 126 446l33 -12c-83 -124 -115 -279 -115 -434c1 -156 32 -310 115 -434zM448 99c-85 0 -155 48 -155 147c0 117 104 174 337 200c1 77 -21 158 -120 158c-68 0 -128 -34 -165 -62l-27 46c41 28 115 68 201 68
c126 0 173 -90 173 -210v-334h-51l-6 67h-4c-52 -44 -115 -80 -183 -80zM463 151c57 0 106 27 167 80v170c-204 -24 -274 -71 -274 -151c0 -71 48 -99 107 -99zM839 -66l-33 12c83 124 114 278 115 434c0 155 -32 310 -115 434l33 12c88 -130 126 -274 126 -446
c0 -173 -38 -316 -126 -446z" />
    <glyph glyph-name="Identity.241" unicode="&#x249d;" horiz-adv-x="1000" 
d="M161 -66c-88 130 -126 273 -126 446c0 172 38 316 126 446l33 -12c-83 -124 -115 -279 -115 -434c1 -156 32 -310 115 -434zM513 2c-48 0 -105 24 -155 64h-2l-7 -51h-51v791h63v-225l-3 -102c52 44 114 80 176 80c141 0 212 -106 212 -270c0 -182 -108 -287 -233 -287z
M508 55c100 0 173 93 173 233c0 126 -44 217 -158 217c-51 0 -104 -29 -162 -82v-304c53 -46 108 -64 147 -64zM839 -66l-33 12c83 124 114 278 115 434c0 155 -32 310 -115 434l33 12c88 -130 126 -274 126 -446c0 -173 -38 -316 -126 -446z" />
    <glyph glyph-name="Identity.242" unicode="&#x249e;" horiz-adv-x="1000" 
d="M161 -66c-88 130 -126 273 -126 446c0 172 38 316 126 446l33 -12c-83 -124 -115 -279 -115 -434c1 -156 32 -310 115 -434zM533 99c-139 0 -243 102 -243 278c0 177 116 279 247 279c71 0 119 -32 155 -65l-33 -41c-35 30 -72 54 -121 54c-104 0 -184 -94 -184 -227
c0 -135 74 -226 183 -226c55 0 103 28 137 60l31 -42c-48 -42 -106 -70 -172 -70zM839 -66l-33 12c83 124 114 278 115 434c0 155 -32 310 -115 434l33 12c88 -130 126 -274 126 -446c0 -173 -38 -316 -126 -446z" />
    <glyph glyph-name="Identity.243" unicode="&#x249f;" horiz-adv-x="1000" 
d="M161 -66c-88 130 -126 273 -126 446c0 172 38 316 126 446l33 -12c-83 -124 -115 -279 -115 -434c1 -156 32 -310 115 -434zM472 2c-131 0 -218 100 -218 278c0 172 109 279 233 279c62 0 106 -23 157 -62l-5 94v215h64v-791h-53l-6 67h-2c-42 -44 -101 -80 -170 -80z
M484 55c55 0 105 28 155 84v303c-51 46 -96 63 -145 63c-98 0 -174 -95 -174 -225c0 -137 58 -225 164 -225zM839 -66l-33 12c83 124 114 278 115 434c0 155 -32 310 -115 434l33 12c88 -130 126 -274 126 -446c0 -173 -38 -316 -126 -446z" />
    <glyph glyph-name="Identity.244" unicode="&#x24a0;" horiz-adv-x="1000" 
d="M161 -66c-88 130 -126 273 -126 446c0 172 38 316 126 446l33 -12c-83 -124 -115 -279 -115 -434c1 -156 32 -310 115 -434zM536 99c-137 0 -247 103 -247 278c0 173 112 279 232 279c129 0 205 -92 205 -247c0 -14 0 -29 -2 -42h-373c4 -129 79 -217 192 -217
c55 0 98 19 138 45l24 -43c-43 -29 -94 -53 -169 -53zM350 411h320c0 128 -57 194 -148 194c-84 0 -161 -73 -172 -194zM839 -66l-33 12c83 124 114 278 115 434c0 155 -32 310 -115 434l33 12c88 -130 126 -274 126 -446c0 -173 -38 -316 -126 -446z" />
    <glyph glyph-name="Identity.245" unicode="&#x24a1;" horiz-adv-x="1000" 
d="M161 826l33 -12c-83 -124 -115 -279 -115 -434c1 -156 32 -310 115 -434l-33 -12c-88 130 -126 273 -126 446c0 172 38 316 126 446zM419 546v107c0 106 47 166 138 166c28 0 57 -9 81 -19l-14 -48c-22 9 -44 14 -62 14c-55 0 -82 -41 -82 -115v-105h120v-52h-120v-479
h-61v479h-73v48zM806 814l33 12c88 -130 126 -274 126 -446c0 -173 -38 -316 -126 -446l-33 12c83 124 114 278 115 434c0 155 -32 310 -115 434z" />
    <glyph glyph-name="Identity.246" unicode="&#x24a2;" horiz-adv-x="1000" 
d="M161 -66c-88 130 -126 273 -126 446c0 172 38 316 126 446l33 -12c-83 -124 -115 -279 -115 -434c1 -156 32 -310 115 -434zM502 -24c-125 0 -208 52 -208 137c0 42 27 87 70 116v4c-26 17 -47 44 -47 83c0 42 34 74 58 92v4c-34 28 -67 77 -67 140c0 109 82 182 181 182
c28 0 51 -5 67 -13h176v-50h-117c30 -27 52 -70 52 -120c0 -107 -75 -182 -178 -182c-20 0 -53 7 -77 19c-19 -17 -38 -35 -38 -65c0 -34 22 -60 97 -60h92c114 0 169 -37 169 -116c0 -88 -89 -171 -230 -171zM489 415c69 0 120 54 120 137c0 82 -51 134 -120 134
c-66 0 -120 -51 -120 -134s55 -137 120 -137zM510 23c98 0 159 58 159 116c0 50 -37 68 -108 68h-88c-13 0 -40 2 -65 9c-41 -28 -55 -64 -55 -96c0 -59 57 -97 157 -97zM839 -66l-33 12c83 124 114 278 115 434c0 155 -32 310 -115 434l33 12c88 -130 126 -274 126 -446
c0 -173 -38 -316 -126 -446z" />
    <glyph glyph-name="Identity.247" unicode="&#x24a3;" horiz-adv-x="1000" 
d="M161 -66c-88 130 -126 273 -126 446c0 172 38 316 126 446l33 -12c-83 -124 -115 -279 -115 -434c1 -156 32 -310 115 -434zM304 15v791h63v-225l-3 -115c55 53 109 93 183 93c109 0 159 -68 159 -204v-340h-62v331c0 109 -33 159 -114 159c-59 0 -103 -32 -163 -94v-396
h-63zM839 -66l-33 12c83 124 114 278 115 434c0 155 -32 310 -115 434l33 12c88 -130 126 -274 126 -446c0 -173 -38 -316 -126 -446z" />
    <glyph glyph-name="Identity.248" unicode="&#x24a4;" horiz-adv-x="1000" 
d="M161 -66c-88 130 -126 273 -126 446c0 172 38 316 126 446l33 -12c-83 -124 -115 -279 -115 -434c1 -156 32 -310 115 -434zM468 15v531h63v-531h-63zM501 668c-29 0 -52 21 -52 49c0 30 23 48 52 48c26 0 50 -18 50 -48c0 -28 -24 -49 -50 -49zM839 -66l-33 12
c83 124 114 278 115 434c0 155 -32 310 -115 434l33 12c88 -130 126 -274 126 -446c0 -173 -38 -316 -126 -446z" />
    <glyph glyph-name="Identity.249" unicode="&#x24a5;" horiz-adv-x="1000" 
d="M161 -66c-88 130 -126 273 -126 446c0 172 38 316 126 446l33 -12c-83 -124 -115 -279 -115 -434c1 -156 32 -310 115 -434zM422 -142c-26 0 -55 7 -71 13l13 50c14 -5 34 -10 54 -10c58 0 70 46 70 112v615h62v-617c0 -106 -38 -163 -128 -163zM520 760
c-29 0 -51 21 -51 49c0 30 22 48 51 48c27 0 49 -18 49 -48c0 -28 -22 -49 -49 -49zM839 -66l-33 12c83 124 114 278 115 434c0 155 -32 310 -115 434l33 12c88 -130 126 -274 126 -446c0 -173 -38 -316 -126 -446z" />
    <glyph glyph-name="Identity.250" unicode="&#x24a6;" horiz-adv-x="1000" 
d="M161 -66c-88 130 -126 273 -126 446c0 172 38 316 126 446l33 -12c-83 -124 -115 -279 -115 -434c1 -156 32 -310 115 -434zM318 15v791h62v-567h2l250 307h70l-172 -211l200 -320h-70l-167 275l-113 -132v-143h-62zM839 -66l-33 12c83 124 114 278 115 434
c0 155 -32 310 -115 434l33 12c88 -130 126 -274 126 -446c0 -173 -38 -316 -126 -446z" />
    <glyph glyph-name="Identity.251" unicode="&#x24a7;" horiz-adv-x="1000" 
d="M161 -66c-88 130 -126 273 -126 446c0 172 38 316 126 446l33 -12c-83 -124 -115 -279 -115 -434c1 -156 32 -310 115 -434zM539 2c-51 0 -75 31 -75 96v708h63v-715c0 -26 10 -37 23 -37c5 0 10 0 20 2l10 -48c-12 -2 -22 -6 -41 -6zM839 -66l-33 12
c83 124 114 278 115 434c0 155 -32 310 -115 434l33 12c88 -130 126 -274 126 -446c0 -173 -38 -316 -126 -446z" />
    <glyph glyph-name="Identity.252" unicode="&#x24a8;" horiz-adv-x="1000" 
d="M161 -66c-88 130 -126 273 -126 446c0 172 38 316 126 446l33 -12c-83 -124 -115 -279 -115 -434c1 -156 32 -310 115 -434zM229 112v531h50l7 -60h3c35 41 78 73 126 73c60 0 91 -33 106 -85c42 53 84 85 139 85c78 0 118 -61 118 -184v-360h-60v352
c0 94 -23 138 -72 138c-41 0 -72 -25 -111 -75v-415h-60v352c0 94 -24 138 -74 138c-44 0 -72 -25 -110 -75v-415h-62zM839 -66l-33 12c83 124 114 278 115 434c0 155 -32 310 -115 434l33 12c88 -130 126 -274 126 -446c0 -173 -38 -316 -126 -446z" />
    <glyph glyph-name="Identity.253" unicode="&#x24a9;" horiz-adv-x="1000" 
d="M161 -66c-88 130 -126 273 -126 446c0 172 38 316 126 446l33 -12c-83 -124 -115 -279 -115 -434c1 -156 32 -310 115 -434zM303 112v531h52l7 -80h3c52 53 107 93 181 93c109 0 159 -68 159 -204v-340h-61v331c0 109 -34 159 -115 159c-59 0 -102 -32 -163 -94v-396h-63
zM839 -66l-33 12c83 124 114 278 115 434c0 155 -32 310 -115 434l33 12c88 -130 126 -274 126 -446c0 -173 -38 -316 -126 -446z" />
    <glyph glyph-name="Identity.254" unicode="&#x24aa;" horiz-adv-x="1000" 
d="M161 -66c-88 130 -126 273 -126 446c0 172 38 316 126 446l33 -12c-83 -124 -115 -279 -115 -434c1 -156 32 -310 115 -434zM500 99c-128 0 -241 102 -241 278c0 177 113 279 241 279s240 -102 240 -279c0 -176 -112 -278 -240 -278zM500 151c102 0 176 91 176 226
c0 133 -74 227 -176 227s-177 -94 -177 -227c0 -135 75 -226 177 -226zM839 -66l-33 12c83 124 114 278 115 434c0 155 -32 310 -115 434l33 12c88 -130 126 -274 126 -446c0 -173 -38 -316 -126 -446z" />
    <glyph glyph-name="Identity.255" unicode="&#x24ab;" horiz-adv-x="1000" 
d="M161 -66c-88 130 -126 273 -126 446c0 172 38 316 126 446l33 -12c-83 -124 -115 -279 -115 -434c1 -156 32 -310 115 -434zM298 -6v727h51l8 -64h2c50 41 112 77 175 77c142 0 213 -106 213 -270c0 -181 -109 -287 -234 -287c-48 0 -101 23 -154 64l1 -96v-151h-62z
M508 231c101 0 173 93 173 232c0 126 -43 218 -158 218c-50 0 -102 -30 -163 -83v-304c56 -46 108 -63 148 -63zM839 -66l-33 12c83 124 114 278 115 434c0 155 -32 310 -115 434l33 12c88 -130 126 -274 126 -446c0 -173 -38 -316 -126 -446z" />
    <glyph glyph-name="Identity.256" unicode="&#x24ac;" horiz-adv-x="1000" 
d="M161 -66c-88 130 -126 273 -126 446c0 172 38 316 126 446l33 -12c-83 -124 -115 -279 -115 -434c1 -156 32 -310 115 -434zM640 -6v161l4 101c-46 -42 -104 -79 -171 -79c-133 0 -220 100 -220 278c0 172 110 279 234 279c63 0 107 -23 157 -62h1l6 49h52v-727h-63z
M485 231c54 0 104 28 155 83v303c-52 46 -97 64 -146 64c-99 0 -175 -96 -175 -226c0 -137 59 -224 166 -224zM839 -66l-33 12c83 124 114 278 115 434c0 155 -32 310 -115 434l33 12c88 -130 126 -274 126 -446c0 -173 -38 -316 -126 -446z" />
    <glyph glyph-name="Identity.257" unicode="&#x24ad;" horiz-adv-x="1000" 
d="M161 -66c-88 130 -126 273 -126 446c0 172 38 316 126 446l33 -12c-83 -124 -115 -279 -115 -434c1 -156 32 -310 115 -434zM391 112v531h52l7 -98h2c36 66 89 111 151 111c22 0 37 -2 54 -11l-14 -55c-16 6 -27 9 -48 9c-47 0 -103 -36 -141 -132v-355h-63zM839 -66
l-33 12c83 124 114 278 115 434c0 155 -32 310 -115 434l33 12c88 -130 126 -274 126 -446c0 -173 -38 -316 -126 -446z" />
    <glyph glyph-name="Identity.258" unicode="&#x24ae;" horiz-adv-x="1000" 
d="M161 -66c-88 130 -126 273 -126 446c0 172 38 316 126 446l33 -12c-83 -124 -115 -279 -115 -434c1 -156 32 -310 115 -434zM505 99c-78 0 -149 33 -196 74l33 43c46 -38 92 -66 165 -66c78 0 120 45 120 97c0 63 -67 91 -127 113c-79 27 -167 62 -167 152
c0 78 64 144 176 144c59 0 117 -24 156 -56l-32 -42c-36 26 -73 48 -124 48c-78 0 -113 -45 -113 -90c0 -59 60 -80 123 -103c81 -31 169 -60 169 -163c0 -82 -65 -151 -183 -151zM839 -66l-33 12c83 124 114 278 115 434c0 155 -32 310 -115 434l33 12
c88 -130 126 -274 126 -446c0 -173 -38 -316 -126 -446z" />
    <glyph glyph-name="Identity.259" unicode="&#x24af;" horiz-adv-x="1000" 
d="M161 -66c-88 130 -126 273 -126 446c0 172 38 316 126 446l33 -12c-83 -124 -115 -279 -115 -434c1 -156 32 -310 115 -434zM573 57c-106 0 -139 68 -139 166v326h-81v48l84 4l7 153h52v-153h151v-52h-151v-329c0 -67 19 -110 88 -110c19 0 47 7 64 16l14 -49
c-29 -10 -64 -20 -89 -20zM839 -66l-33 12c83 124 114 278 115 434c0 155 -32 310 -115 434l33 12c88 -130 126 -274 126 -446c0 -173 -38 -316 -126 -446z" />
    <glyph glyph-name="Identity.260" unicode="&#x24b0;" horiz-adv-x="1000" 
d="M161 -66c-88 130 -126 273 -126 446c0 172 38 316 126 446l33 -12c-83 -124 -115 -279 -115 -434c1 -156 32 -310 115 -434zM458 99c-110 0 -161 67 -161 204v340h61v-332c0 -108 35 -158 115 -158c60 0 103 32 161 103v387h62v-531h-51l-7 87h-3
c-51 -60 -105 -100 -177 -100zM839 -66l-33 12c83 124 114 278 115 434c0 155 -32 310 -115 434l33 12c88 -130 126 -274 126 -446c0 -173 -38 -316 -126 -446z" />
    <glyph glyph-name="Identity.261" unicode="&#x24b1;" horiz-adv-x="1000" 
d="M161 -66c-88 130 -126 273 -126 446c0 172 38 316 126 446l33 -12c-83 -124 -115 -279 -115 -434c1 -156 32 -310 115 -434zM465 112l-197 531h66l113 -322c18 -52 35 -106 53 -154h4c17 48 36 102 52 154l114 322h62l-194 -531h-73zM839 -66l-33 12
c83 124 114 278 115 434c0 155 -32 310 -115 434l33 12c88 -130 126 -274 126 -446c0 -173 -38 -316 -126 -446z" />
    <glyph glyph-name="Identity.262" unicode="&#x24b2;" horiz-adv-x="1000" 
d="M161 -66c-88 130 -126 273 -126 446c0 172 38 316 126 446l33 -12c-83 -124 -115 -279 -115 -434c1 -156 32 -310 115 -434zM307 112l-140 531h64l80 -331c13 -51 22 -97 33 -145h5c12 49 20 94 33 145l86 331h68l85 -331c13 -50 22 -97 35 -145h4c11 48 22 94 34 145
l79 331h60l-136 -531h-78l-82 316c-14 50 -22 99 -35 152h-5c-12 -53 -20 -103 -36 -154l-79 -314h-75zM839 -66l-33 12c83 124 114 278 115 434c0 155 -32 310 -115 434l33 12c88 -130 126 -274 126 -446c0 -173 -38 -316 -126 -446z" />
    <glyph glyph-name="Identity.263" unicode="&#x24b3;" horiz-adv-x="1000" 
d="M161 -66c-88 130 -126 273 -126 446c0 172 38 316 126 446l33 -12c-83 -124 -115 -279 -115 -434c1 -156 32 -310 115 -434zM285 112l178 277l-164 254h68l82 -129c16 -28 35 -58 55 -88h4c18 30 34 60 53 88l76 129h66l-164 -259l177 -272h-68l-89 139
c-19 32 -39 65 -61 95h-5c-19 -30 -37 -62 -58 -95l-85 -139h-65zM839 -66l-33 12c83 124 114 278 115 434c0 155 -32 310 -115 434l33 12c88 -130 126 -274 126 -446c0 -173 -38 -316 -126 -446z" />
    <glyph glyph-name="Identity.264" unicode="&#x24b4;" horiz-adv-x="1000" 
d="M161 -66c-88 130 -126 273 -126 446c0 172 38 316 126 446l33 -12c-83 -124 -115 -279 -115 -434c1 -156 32 -310 115 -434zM351 -8c-25 0 -48 5 -66 11l14 52c14 -4 33 -8 50 -8c65 0 103 36 121 93l13 43l-217 538h67l120 -320c18 -46 38 -102 56 -150h4
c18 47 33 103 49 150l106 320h63l-207 -589c-26 -76 -73 -140 -173 -140zM839 -66l-33 12c83 124 114 278 115 434c0 155 -32 310 -115 434l33 12c88 -130 126 -274 126 -446c0 -173 -38 -316 -126 -446z" />
    <glyph glyph-name="Identity.265" unicode="&#x24b5;" horiz-adv-x="1000" 
d="M161 -66c-88 130 -126 273 -126 446c0 172 38 316 126 446l33 -12c-83 -124 -115 -279 -115 -434c1 -156 32 -310 115 -434zM306 112v33l302 446h-269v52h349v-33l-303 -446h313v-52h-392zM839 -66l-33 12c83 124 114 278 115 434c0 155 -32 310 -115 434l33 12
c88 -130 126 -274 126 -446c0 -173 -38 -316 -126 -446z" />
    <glyph glyph-name="Identity.266" unicode="&#x24d0;" horiz-adv-x="1000" 
d="M500 -82c-255 0 -462 207 -462 462s207 462 462 462s462 -207 462 -462c0 -257 -209 -462 -462 -462zM500 -54c240 0 434 194 434 434s-194 434 -434 434c-242 0 -434 -196 -434 -434c0 -240 194 -434 434 -434zM465 187c-63 0 -107 39 -107 102c0 76 68 116 223 131
c0 53 -15 94 -72 94c-43 0 -90 -22 -117 -40l-18 37c30 19 84 45 141 45c86 0 117 -55 117 -140v-220h-40l-7 43h-5c-29 -27 -68 -52 -115 -52zM478 230c33 0 67 15 103 49v107c-129 -13 -173 -46 -173 -93c0 -45 28 -63 70 -63z" />
    <glyph glyph-name="Identity.267" unicode="&#x24d1;" horiz-adv-x="1000" 
d="M500 -82c-255 0 -462 207 -462 462s207 462 462 462s462 -207 462 -462c0 -257 -209 -462 -462 -462zM500 -54c240 0 434 194 434 434s-194 434 -434 434c-242 0 -434 -196 -434 -434c0 -240 194 -434 434 -434zM525 145c-33 0 -71 15 -103 43h-5l-5 -34h-38v520h49v-145
l-2 -67c35 29 71 53 115 53c94 0 143 -70 143 -178c0 -122 -71 -192 -154 -192zM521 189c61 0 107 56 107 147c0 82 -31 136 -100 136c-33 0 -70 -19 -105 -53v-191c33 -28 70 -39 98 -39z" />
    <glyph glyph-name="Identity.268" unicode="&#x24d2;" horiz-adv-x="1000" 
d="M500 -82c-255 0 -462 207 -462 462s207 462 462 462s462 -207 462 -462c0 -257 -209 -462 -462 -462zM500 -54c240 0 434 194 434 434s-194 434 -434 434c-242 0 -434 -196 -434 -434c0 -240 194 -434 434 -434zM520 187c-96 0 -167 67 -167 185c0 117 80 184 169 184
c50 0 83 -19 107 -39l-26 -33c-24 20 -44 30 -81 30c-67 0 -116 -59 -116 -142s47 -142 118 -142c39 0 66 14 88 33l22 -34c-25 -21 -59 -42 -114 -42z" />
    <glyph glyph-name="Identity.269" unicode="&#x24d3;" horiz-adv-x="1000" 
d="M500 -82c-255 0 -462 207 -462 462s207 462 462 462s462 -207 462 -462c0 -257 -209 -462 -462 -462zM500 -54c240 0 434 194 434 434s-194 434 -434 434c-242 0 -434 -196 -434 -434c0 -240 194 -434 434 -434zM488 145c-95 0 -152 70 -152 192c0 110 73 178 155 178
c39 0 71 -15 104 -41l-4 63v137h50v-520h-39l-8 40h-3c-30 -25 -62 -49 -103 -49zM496 189c32 0 61 19 95 50v193c-33 29 -65 41 -96 41c-59 0 -107 -57 -107 -136c0 -92 33 -148 108 -148z" />
    <glyph glyph-name="Identity.270" unicode="&#x24d4;" horiz-adv-x="1000" 
d="M500 -82c-255 0 -462 207 -462 462s207 462 462 462s462 -207 462 -462c0 -257 -209 -462 -462 -462zM500 -54c240 0 434 194 434 434s-194 434 -434 434c-242 0 -434 -196 -434 -434c0 -240 194 -434 434 -434zM518 187c-92 0 -168 66 -168 185c0 113 73 184 161 184
c112 0 141 -96 141 -158c0 -13 -1 -19 -3 -37h-249c2 -80 50 -131 124 -131c36 0 70 13 94 29l21 -34c-31 -18 -69 -38 -121 -38zM400 398h206c0 55 -23 116 -94 116c-62 0 -104 -43 -112 -116z" />
    <glyph glyph-name="Identity.271" unicode="&#x24d5;" horiz-adv-x="1000" 
d="M451 507v58c0 72 33 120 98 120c22 0 39 -3 59 -12l-12 -38c-11 4 -25 7 -42 7c-36 0 -53 -29 -53 -72v-63h79v-41h-79v-312h-50v312h-50v37zM500 -54c240 0 434 194 434 434s-194 434 -434 434c-242 0 -434 -196 -434 -434c0 -240 194 -434 434 -434zM500 842
c255 0 462 -207 462 -462c0 -257 -209 -462 -462 -462c-255 0 -462 207 -462 462s207 462 462 462z" />
    <glyph glyph-name="Identity.272" unicode="&#x24d6;" horiz-adv-x="1000" 
d="M500 -82c-255 0 -462 207 -462 462s207 462 462 462s462 -207 462 -462c0 -257 -209 -462 -462 -462zM500 -54c240 0 434 194 434 434s-194 434 -434 434c-242 0 -434 -196 -434 -434c0 -240 194 -434 434 -434zM498 90c-90 0 -146 35 -146 96c0 31 18 59 52 79v4
c-20 12 -33 31 -33 59s21 51 41 63v5c-26 17 -47 51 -47 93c0 77 59 126 131 126c22 0 40 -4 55 -11h118v-41h-74c19 -14 32 -45 32 -74c0 -76 -59 -125 -131 -125c-17 0 -38 4 -56 14c-13 -12 -24 -24 -24 -44c0 -24 16 -40 64 -40h74c83 0 120 -24 120 -83
c0 -63 -68 -121 -176 -121zM496 402c47 0 85 35 85 87c0 54 -38 87 -85 87c-48 0 -83 -32 -83 -87c0 -52 35 -87 83 -87zM505 129c73 0 121 37 121 75c0 34 -28 45 -77 45h-67c-10 0 -30 0 -45 5c-27 -18 -40 -39 -40 -61c0 -41 40 -64 108 -64z" />
    <glyph glyph-name="Identity.273" unicode="&#x24d7;" horiz-adv-x="1000" 
d="M500 -82c-255 0 -462 207 -462 462s207 462 462 462s462 -207 462 -462c0 -257 -209 -462 -462 -462zM500 -54c240 0 434 194 434 434s-194 434 -434 434c-242 0 -434 -196 -434 -434c0 -240 194 -434 434 -434zM365 154v520h49v-143l-2 -77c32 33 75 61 122 61
c82 0 110 -56 110 -136v-225h-48v217c0 60 -15 101 -78 101c-30 0 -62 -19 -104 -60v-258h-49z" />
    <glyph glyph-name="Identity.274" unicode="&#x24d8;" horiz-adv-x="1000" 
d="M500 -82c-255 0 -462 207 -462 462s207 462 462 462s462 -207 462 -462c0 -257 -209 -462 -462 -462zM500 -54c240 0 434 194 434 434s-194 434 -434 434c-242 0 -434 -196 -434 -434c0 -240 194 -434 434 -434zM476 154v353h49v-353h-49zM502 582c-22 0 -38 16 -38 37
s16 37 38 37c23 0 39 -16 39 -37s-16 -37 -39 -37z" />
    <glyph glyph-name="Identity.275" unicode="&#x24d9;" horiz-adv-x="1000" 
d="M500 -82c-255 0 -462 207 -462 462s207 462 462 462s462 -207 462 -462c0 -257 -209 -462 -462 -462zM500 -54c240 0 434 194 434 434s-194 434 -434 434c-242 0 -434 -196 -434 -434c0 -240 194 -434 434 -434zM444 31c-20 0 -32 3 -48 9l11 42c11 -5 17 -7 33 -7
c36 0 45 26 45 69v403h49v-399c0 -77 -26 -117 -90 -117zM511 622c-22 0 -37 16 -37 37s15 37 37 37c24 0 40 -16 40 -37s-16 -37 -40 -37z" />
    <glyph glyph-name="Identity.276" unicode="&#x24da;" horiz-adv-x="1000" 
d="M500 -82c-255 0 -462 207 -462 462s207 462 462 462s462 -207 462 -462c0 -257 -209 -462 -462 -462zM500 -54c240 0 434 194 434 434s-194 434 -434 434c-242 0 -434 -196 -434 -434c0 -240 194 -434 434 -434zM384 154v520h49v-360h4l159 193h59l-120 -143l136 -210
h-55l-113 175l-70 -84v-91h-49z" />
    <glyph glyph-name="Identity.277" unicode="&#x24db;" horiz-adv-x="1000" 
d="M500 -82c-255 0 -462 207 -462 462s207 462 462 462s462 -207 462 -462c0 -257 -209 -462 -462 -462zM500 -54c240 0 434 194 434 434s-194 434 -434 434c-242 0 -434 -196 -434 -434c0 -240 194 -434 434 -434zM527 145c-43 0 -58 28 -58 76v453h48v-460
c0 -19 8 -25 19 -25c4 0 7 0 14 2l10 -41c-10 -1 -18 -5 -33 -5z" />
    <glyph glyph-name="Identity.278" unicode="&#x24dc;" horiz-adv-x="1000" 
d="M500 -82c-255 0 -462 207 -462 462s207 462 462 462s462 -207 462 -462c0 -257 -209 -462 -462 -462zM500 -54c240 0 434 194 434 434s-194 434 -434 434c-242 0 -434 -196 -434 -434c0 -240 194 -434 434 -434zM259 196v352h39l6 -51h3c31 33 65 59 112 59
c48 0 84 -22 99 -69c34 37 74 69 121 69c78 0 108 -56 108 -136v-224h-50v217c0 60 -15 100 -73 100c-29 0 -58 -18 -96 -59v-258h-50v217c0 60 -16 100 -74 100c-29 0 -57 -18 -96 -59v-258h-49z" />
    <glyph glyph-name="Identity.279" unicode="&#x24dd;" horiz-adv-x="1000" 
d="M500 -82c-255 0 -462 207 -462 462s207 462 462 462s462 -207 462 -462c0 -257 -209 -462 -462 -462zM500 -54c240 0 434 194 434 434s-194 434 -434 434c-242 0 -434 -196 -434 -434c0 -240 194 -434 434 -434zM363 196v352h39l6 -51h3c33 33 74 59 121 59
c83 0 111 -56 111 -136v-224h-49v217c0 60 -15 100 -75 100c-33 0 -65 -18 -107 -59v-258h-49z" />
    <glyph glyph-name="Identity.280" unicode="&#x24de;" horiz-adv-x="1000" 
d="M500 -82c-255 0 -462 207 -462 462s207 462 462 462s462 -207 462 -462c0 -257 -209 -462 -462 -462zM500 -54c240 0 434 194 434 434s-194 434 -434 434c-242 0 -434 -196 -434 -434c0 -240 194 -434 434 -434zM499 187c-89 0 -163 69 -163 185c0 117 74 184 163 184
c90 0 164 -67 164 -184c0 -116 -74 -185 -164 -185zM499 230c68 0 111 59 111 142c0 86 -43 142 -111 142c-67 0 -110 -56 -110 -142c0 -83 43 -142 110 -142z" />
    <glyph glyph-name="Identity.281" unicode="&#x24df;" horiz-adv-x="1000" 
d="M500 -82c-255 0 -462 207 -462 462s207 462 462 462s462 -207 462 -462c0 -257 -209 -462 -462 -462zM500 -54c240 0 434 194 434 434s-194 434 -434 434c-242 0 -434 -196 -434 -434c0 -240 194 -434 434 -434zM368 105v502h38l8 -43h3c30 26 68 51 112 51
c95 0 144 -70 144 -178c0 -122 -72 -192 -154 -192c-32 0 -74 15 -105 43l2 -67v-116h-48zM514 289c62 0 107 56 107 147c0 82 -31 136 -100 136c-33 0 -69 -19 -105 -53v-191c33 -28 71 -39 98 -39z" />
    <glyph glyph-name="Identity.282" unicode="&#x24e0;" horiz-adv-x="1000" 
d="M500 -82c-255 0 -462 207 -462 462s207 462 462 462s462 -207 462 -462c0 -257 -209 -462 -462 -462zM500 -54c240 0 434 194 434 434s-194 434 -434 434c-242 0 -434 -196 -434 -434c0 -240 194 -434 434 -434zM592 105v120l3 67c-30 -27 -66 -47 -107 -47
c-95 0 -152 70 -152 186c0 115 74 184 156 184c38 0 73 -15 102 -43h3l6 35h38v-502h-49zM496 289c32 0 63 15 96 45v197c-33 29 -66 41 -96 41c-58 0 -108 -56 -108 -141s34 -142 108 -142z" />
    <glyph glyph-name="Identity.283" unicode="&#x24e1;" horiz-adv-x="1000" 
d="M500 -82c-255 0 -462 207 -462 462s207 462 462 462s462 -207 462 -462c0 -257 -209 -462 -462 -462zM500 -54c240 0 434 194 434 434s-194 434 -434 434c-242 0 -434 -196 -434 -434c0 -240 194 -434 434 -434zM422 196v352h39l6 -62h5c26 45 59 70 100 70
c14 0 30 -2 39 -6l-11 -47c-7 2 -22 6 -33 6c-33 0 -68 -22 -95 -82v-231h-50z" />
    <glyph glyph-name="Identity.284" unicode="&#x24e2;" horiz-adv-x="1000" 
d="M500 -82c-255 0 -462 207 -462 462s207 462 462 462s462 -207 462 -462c0 -257 -209 -462 -462 -462zM500 -54c240 0 434 194 434 434s-194 434 -434 434c-242 0 -434 -196 -434 -434c0 -240 194 -434 434 -434zM506 187c-54 0 -102 22 -136 48l26 36
c32 -25 66 -44 109 -44c48 0 74 27 74 61c0 38 -42 53 -82 68c-52 20 -109 43 -109 105c0 50 41 95 114 95c48 0 84 -16 112 -38l-26 -33c-27 19 -49 31 -84 31c-45 0 -67 -27 -67 -53c0 -36 38 -49 81 -66c53 -21 110 -38 110 -104c0 -61 -49 -106 -122 -106z" />
    <glyph glyph-name="Identity.285" unicode="&#x24e3;" horiz-adv-x="1000" 
d="M500 -82c-255 0 -462 207 -462 462s207 462 462 462s462 -207 462 -462c0 -257 -209 -462 -462 -462zM500 -54c240 0 434 194 434 434s-194 434 -434 434c-242 0 -434 -196 -434 -434c0 -240 194 -434 434 -434zM539 182c-73 0 -96 48 -96 116v203h-55v39l55 3l7 102h42
v-102h101v-42h-101v-204c0 -45 16 -73 59 -73c14 0 28 5 43 10l11 -39c-18 -6 -45 -13 -66 -13z" />
    <glyph glyph-name="Identity.286" unicode="&#x24e4;" horiz-adv-x="1000" 
d="M500 -82c-255 0 -462 207 -462 462s207 462 462 462s462 -207 462 -462c0 -257 -209 -462 -462 -462zM500 -54c240 0 434 194 434 434s-194 434 -434 434c-242 0 -434 -196 -434 -434c0 -240 194 -434 434 -434zM471 187c-84 0 -111 56 -111 136v225h50v-216
c0 -62 13 -100 75 -100c32 0 65 16 106 58v258h50v-352h-40l-7 51h-3c-31 -33 -72 -60 -120 -60z" />
    <glyph glyph-name="Identity.287" unicode="&#x24e5;" horiz-adv-x="1000" 
d="M500 -82c-255 0 -462 207 -462 462s207 462 462 462s462 -207 462 -462c0 -257 -209 -462 -462 -462zM500 -54c240 0 434 194 434 434s-194 434 -434 434c-242 0 -434 -196 -434 -434c0 -240 194 -434 434 -434zM470 196l-130 352h51l72 -205l35 -105h4l38 105l71 205h51
l-132 -352h-60z" />
    <glyph glyph-name="Identity.288" unicode="&#x24e6;" horiz-adv-x="1000" 
d="M500 -82c-255 0 -462 207 -462 462s207 462 462 462s462 -207 462 -462c0 -257 -209 -462 -462 -462zM500 -54c240 0 434 194 434 434s-194 434 -434 434c-242 0 -434 -196 -434 -434c0 -240 194 -434 434 -434zM359 196l-101 352h53l54 -211l24 -98h5l25 98l57 211h50
l58 -211l27 -98h3l26 98l54 211h49l-99 -352h-63l-53 197l-26 101h-3l-25 -101l-53 -197h-62z" />
    <glyph glyph-name="Identity.289" unicode="&#x24e7;" horiz-adv-x="1000" 
d="M500 -82c-255 0 -462 207 -462 462s207 462 462 462s462 -207 462 -462c0 -257 -209 -462 -462 -462zM500 -54c240 0 434 194 434 434s-194 434 -434 434c-242 0 -434 -196 -434 -434c0 -240 194 -434 434 -434zM349 196l121 184l-112 168h56l52 -80l37 -57h4l33 57
l48 80h53l-108 -172l117 -180h-56l-55 84l-39 62h-4l-42 -62l-52 -84h-53z" />
    <glyph glyph-name="Identity.290" unicode="&#x24e8;" horiz-adv-x="1000" 
d="M500 -82c-255 0 -462 207 -462 462s207 462 462 462s462 -207 462 -462c0 -257 -209 -462 -462 -462zM500 -54c240 0 434 194 434 434s-194 434 -434 434c-242 0 -434 -196 -434 -434c0 -240 194 -434 434 -434zM407 103c-16 0 -30 2 -42 7l12 42c10 -3 19 -6 27 -6
c41 0 69 34 85 82l7 25l-143 354h50l78 -202c11 -31 25 -66 37 -102h4c11 35 23 68 34 102l65 202h50l-134 -381c-24 -68 -61 -123 -130 -123z" />
    <glyph glyph-name="Identity.291" unicode="&#x24e9;" horiz-adv-x="1000" 
d="M500 -82c-255 0 -462 207 -462 462s207 462 462 462s462 -207 462 -462c0 -257 -209 -462 -462 -462zM500 -54c240 0 434 194 434 434s-194 434 -434 434c-242 0 -434 -196 -434 -434c0 -240 194 -434 434 -434zM367 196v27l198 283h-175v42h240v-30l-198 -281h203v-41
h-268z" />
    <glyph glyph-name="Identity.292" unicode="&#x2592;" horiz-adv-x="1000" 
d="M1000 630l-250 250h50l200 -200v-50zM1000 380l-500 500h50l450 -450v-50zM1000 130l-750 750h50l700 -700v-50zM1000 -120l-1000 1000h50l950 -950v-50zM750 -120l-750 750v50l800 -800h-50zM500 -120l-500 500v50l550 -550h-50zM250 -120l-250 250v50l300 -300h-50z
M0 -120v50l50 -50h-50z" />
    <glyph glyph-name="Identity.293" unicode="&#x25a0;" horiz-adv-x="1000" 
d="M100 780h800v-800h-800v800z" />
    <glyph glyph-name="Identity.294" unicode="&#x25a1;" horiz-adv-x="1000" 
d="M100 780h800v-800h-800v800zM133 747v-734h734v734h-734z" />
    <glyph glyph-name="Identity.295" unicode="&#x25a3;" horiz-adv-x="1000" 
d="M100 780h800v-800h-800v800zM133 747v-734h734v734h-734zM344 224v312h312v-312h-312z" />
    <glyph glyph-name="Identity.296" unicode="&#x25a4;" horiz-adv-x="1000" 
d="M133 13h734v158h-734v-158zM867 364h-734v-160h734v160zM133 396h734v160h-734v-160zM867 747h-734v-158h734v158zM100 780h800v-800h-800v800z" />
    <glyph glyph-name="Identity.297" unicode="&#x25a5;" horiz-adv-x="1000" 
d="M867 13v734h-158v-734h158zM133 747v-734h158v734h-158zM484 13v734h-160v-734h160zM516 747v-734h160v734h-160zM100 780h800v-800h-800v800z" />
    <glyph glyph-name="Identity.298" unicode="&#x25a6;" horiz-adv-x="1000" 
d="M709 13h158v158h-158v-158zM133 171v-158h158v158h-158zM291 747h-158v-158h158v158zM709 396h158v160h-158v-160zM709 364v-160h158v160h-158zM516 204h160v160h-160v-160zM516 171v-158h160v158h-160zM484 171h-160v-158h160v158zM324 364v-160h160v160h-160zM291 364
h-158v-160h158v160zM291 396v160h-158v-160h158zM484 556h-160v-160h160v160zM484 589v158h-160v-158h160zM676 556h-160v-160h160v160zM516 589h160v158h-160v-158zM867 589v158h-158v-158h158zM100 780h800v-800h-800v800z" />
    <glyph glyph-name="Identity.299" unicode="&#x25a7;" horiz-adv-x="1000" 
d="M133 155v-142h142zM867 605v142h-142zM867 371l-376 376h-144l520 -521v145zM867 417v141l-188 189h-142zM156 747l711 -711v145l-566 566h-145zM133 579l566 -566h145l-711 711v-145zM133 389l376 -376h144l-520 520v-144zM133 343v-142l188 -188h142zM100 780h800v-800
h-800v800z" />
    <glyph glyph-name="Identity.300" unicode="&#x25a8;" horiz-adv-x="1000" 
d="M727 13h140v141zM276 747h-143v-142zM700 747l-567 -566v-147l713 713h-146zM133 417l331 330h-142l-189 -188v-142zM510 747l-377 -376v-144l521 520h-144zM304 13l563 565v145l-708 -710h145zM867 342l-328 -329h142l186 187v142zM493 13l374 375v144l-518 -519h144z
M100 780h800v-800h-800v800z" />
    <glyph glyph-name="Identity.301" unicode="&#x25a9;" horiz-adv-x="1000" 
d="M808 664l59 -59v118zM808 95l59 -59v118zM785 72l-58 -59h117zM596 70l-57 -57h114zM406 70l-57 -57h114zM217 71l-58 -58h116zM194 95l-61 60v-121zM193 664l-60 60v-119zM216 687l60 60h-120zM405 689l59 58h-117zM595 689l59 58h-117zM725 747l61 -60l60 60h-121z
M692 593l70 70l-73 73l-71 -70zM787 497l70 71l-72 73l-71 -71zM810 474l57 -57v115zM809 284l58 -58v116zM714 189l71 -71l73 72l-71 71zM691 166l-72 -73l71 -71l72 73zM524 188l72 -72l72 73l-72 72zM501 165l-72 -72l72 -72l72 72zM334 188l72 -72l72 72l-72 72z
M311 165l-71 -71l72 -72l71 71zM214 262l-71 -71l74 -73l71 71zM191 285l-58 58v-116zM191 475l-58 58v-116zM287 570l-71 71l-73 -72l71 -71zM310 593l72 73l-71 71l-72 -73zM477 571l-72 72l-72 -73l72 -72zM500 593l72 73l-72 72l-72 -72zM596 497l73 73l-74 73l-72 -73z
M691 402l73 72l-73 73l-72 -73zM714 379l72 -72l73 72l-72 72zM692 356l-73 -72l72 -72l73 72zM524 379l72 -72l73 72l-73 73zM501 356l-72 -73l72 -72l73 72zM428 475l73 -73l73 73l-74 73zM332 380l74 -73l72 72l-73 73zM309 357l-72 -72l74 -73l72 72zM237 475l72 -72
l73 72l-72 72zM286 380l-72 72l-72 -72l72 -72zM100 780h800v-800h-800v800z" />
    <glyph glyph-name="Identity.302" unicode="&#x25b2;" horiz-adv-x="1000" 
d="M500 826l470 -814h-940z" />
    <glyph glyph-name="Identity.303" unicode="&#x25b3;" horiz-adv-x="1000" 
d="M500 826l470 -814h-940zM500 760l-413 -715h826z" />
    <glyph glyph-name="Identity.304" unicode="&#x25b6;" horiz-adv-x="1000" 
d="M936 377l-814 -470v940z" />
    <glyph glyph-name="Identity.305" unicode="&#x25b7;" horiz-adv-x="1000" 
d="M936 377l-814 -470v940zM870 377l-715 413v-826z" />
    <glyph glyph-name="Identity.306" unicode="&#x25bc;" horiz-adv-x="1000" 
d="M30 748h940l-470 -814z" />
    <glyph glyph-name="Identity.307" unicode="&#x25bd;" horiz-adv-x="1000" 
d="M30 748h940l-470 -814zM913 715h-826l413 -715z" />
    <glyph glyph-name="Identity.308" unicode="&#x25c0;" horiz-adv-x="1000" 
d="M878 847v-940l-814 470z" />
    <glyph glyph-name="Identity.309" unicode="&#x25c1;" horiz-adv-x="1000" 
d="M878 847v-940l-814 470zM845 -36v826l-715 -413z" />
    <glyph glyph-name="Identity.310" unicode="&#x25c6;" horiz-adv-x="1000" 
d="M500 868l488 -488l-488 -488l-488 488z" />
    <glyph glyph-name="Identity.311" unicode="&#x25c7;" horiz-adv-x="1000" 
d="M500 868l488 -488l-488 -488l-488 488zM500 821l-441 -441l441 -441l441 441z" />
    <glyph glyph-name="Identity.312" unicode="&#x25c8;" horiz-adv-x="1000" 
d="M500 868l488 -488l-488 -488l-488 488zM500 821l-441 -441l441 -441l441 441zM157 380l343 343l343 -343l-343 -343z" />
    <glyph glyph-name="Identity.313" unicode="&#x25cb;" horiz-adv-x="1000" 
d="M500 -70c-249 0 -450 201 -450 450s201 450 450 450s450 -201 450 -450s-201 -450 -450 -450zM83 380c0 -230 187 -417 417 -417s417 187 417 417s-187 417 -417 417s-417 -187 -417 -417z" />
    <glyph glyph-name="Identity.314" unicode="&#x25ce;" horiz-adv-x="1000" 
d="M50 380c0 249 201 450 450 450s450 -201 450 -450s-201 -450 -450 -450s-450 201 -450 450zM917 380c0 230 -187 417 -417 417s-417 -187 -417 -417s187 -417 417 -417s417 187 417 417zM203 380c0 165 132 297 297 297s297 -132 297 -297s-132 -297 -297 -297
s-297 132 -297 297zM770 380c0 149 -121 270 -270 270s-270 -121 -270 -270s121 -270 270 -270s270 121 270 270z" />
    <glyph glyph-name="Identity.315" unicode="&#x25cf;" horiz-adv-x="1000" 
d="M500 -70c-249 0 -450 201 -450 450s201 450 450 450s450 -201 450 -450s-201 -450 -450 -450z" />
    <glyph glyph-name="Identity.316" unicode="&#x25d0;" horiz-adv-x="1000" 
d="M940 380c0 -243 -197 -440 -440 -440s-440 197 -440 440s197 440 440 440s440 -197 440 -440zM500 793v-826c228 0 413 185 413 413s-185 413 -413 413z" />
    <glyph glyph-name="Identity.317" unicode="&#x25d1;" horiz-adv-x="1000" 
d="M940 380c0 -243 -197 -440 -440 -440s-440 197 -440 440s197 440 440 440s440 -197 440 -440zM500 -33v826c-228 0 -413 -185 -413 -413s185 -413 413 -413z" />
    <glyph glyph-name="Identity.318" unicode="&#x2605;" horiz-adv-x="1000" 
d="M611 484h351v-2l-284 -206l111 -338h-2l-287 208l-287 -208h-2l111 338l-284 206v2h351l110 337h2z" />
    <glyph glyph-name="Identity.319" unicode="&#x2606;" horiz-adv-x="1000" 
d="M389 484l107 337h8l107 -337h351v-8l-284 -200l113 -335l-6 -5l-285 210l-285 -210l-6 5l113 335l-284 200v8h351zM413 451h-206l-88 5v-2l79 -51l163 -114l-60 -179l-38 -99l2 -1l86 66l149 110l149 -110l86 -66l2 1l-38 99l-60 179l163 114l79 51v2l-89 -5h-205
l-62 194l-24 88h-2l-24 -88z" />
    <glyph glyph-name="Identity.320" unicode="&#x260e;" horiz-adv-x="1000" 
d="M329 570h-107l41 -106c7 -16 7 -33 -13 -37l-182 -31c-18 -2 -28 8 -28 28c0 44 6 140 54 177c84 65 194 100 406 100s322 -35 406 -100c48 -37 54 -133 54 -177c0 -20 -10 -30 -28 -28l-182 31c-20 4 -20 21 -13 37l41 106h-107v-64c0 -70 45 -122 119 -194
c69 -67 92 -150 92 -238c0 -32 -12 -47 -46 -47h-672c-34 0 -46 15 -46 47c0 88 23 171 92 238c74 72 119 124 119 194v64zM585 570h-170v-96h170v96zM332 250c0 -93 75 -168 168 -168s168 75 168 168s-75 168 -168 168s-168 -75 -168 -168z" />
    <glyph glyph-name="Identity.321" unicode="&#x260f;" horiz-adv-x="1000" 
d="M682 250c0 -99 -83 -182 -182 -182s-182 83 -182 182s83 182 182 182s182 -83 182 -182zM346 250c0 -85 69 -154 154 -154s154 69 154 154s-69 154 -154 154s-154 -69 -154 -154zM401 460v124h198v-124h-198zM571 556h-142v-68h142v68zM250 459l-48 125h141v-78
c0 -75 -49 -132 -123 -204c-67 -64 -88 -142 -88 -228c0 -25 7 -33 32 -33h672c25 0 32 8 32 33c0 86 -21 164 -88 228c-74 72 -123 129 -123 204v78h141l-48 -125v-1c-5 -11 -4 -16 2 -17l182 -31c9 -1 12 2 12 14c0 44 -6 133 -49 166c-82 63 -187 97 -397 97
s-315 -34 -397 -97c-43 -33 -49 -122 -49 -166c0 -12 3 -15 12 -14l181 31c7 1 8 6 3 17v1zM315 556h-73l34 -87v1c8 -19 8 -50 -24 -57l-182 -31c-25 -3 -44 16 -44 42c0 44 6 147 59 188c86 67 201 103 415 103s329 -36 415 -103c53 -41 59 -144 59 -188
c0 -26 -19 -45 -44 -42l-183 31c-31 7 -31 38 -23 57v-1l34 87h-73v-50c0 -65 41 -112 115 -184c71 -70 96 -158 96 -248c0 -37 -19 -61 -60 -61h-672c-41 0 -60 24 -60 61c0 90 25 178 96 248c74 72 115 119 115 184v50z" />
    <glyph glyph-name="Identity.322" unicode="&#x261c;" horiz-adv-x="1000" 
d="M269 454c17 0 31 2 41 4c13 3 28 10 37 20c20 21 52 44 71 61c1 1 1 2 2 3c1 5 1 11 0 16c0 2 -1 3 -3 3c-109 -7 -249 -20 -299 -30c-63 -12 -63 -33 -63 -42c0 -16 8 -32 60 -36c30 -2 104 0 154 1zM301 324c27 -5 54 -4 65 -2c35 4 66 10 95 22c19 8 36 17 47 27
s11 21 9 31c-2 6 -7 9 -15 7c-19 -5 -47 -13 -69 -19c-24 -5 -44 -8 -62 -4c-22 4 -35 13 -46 37c-3 7 -11 7 -16 5c-17 -6 -34 -16 -47 -29c-14 -13 -12 -36 -5 -50c7 -16 28 -22 44 -25zM392 232c31 0 85 15 122 40c30 19 44 33 44 51c0 10 -3 18 -9 25c-5 4 -13 6 -21 1
c-18 -9 -40 -21 -59 -29c-37 -16 -82 -26 -133 -26c-10 0 -21 0 -33 2c-3 0 -5 -2 -5 -5c2 -17 8 -36 27 -47c18 -10 42 -12 67 -12zM427 151c41 0 102 23 135 59c14 15 13 31 10 38c-7 19 -22 15 -34 7c-42 -28 -110 -50 -146 -50c-12 0 -25 1 -36 2c-2 0 -4 -1 -4 -3
c4 -17 12 -31 26 -40c18 -12 40 -13 49 -13zM928 482l-54 -7c-4 0 -9 0 -13 2c-118 51 -239 86 -297 86c-50 0 -77 -8 -111 -30c-19 -13 -60 -42 -83 -68c-18 -20 -22 -31 -18 -38c9 -18 38 -21 73 -11c57 17 127 40 138 45c5 3 13 1 16 -4c10 -14 37 -37 80 -59
s90 -35 130 -35c7 0 17 -4 17 -11s-8 -14 -17 -16c-37 -10 -72 -11 -122 -6c-41 4 -58 -27 -58 -57s-7 -58 -20 -75c-20 -24 -49 -40 -76 -53c-2 0 -1 -3 0 -3c35 -2 73 -1 113 5c73 12 145 35 224 72c4 2 9 2 13 2l63 -8c6 0 12 4 12 10v251c0 5 -5 8 -10 8zM950 183l-79 9
c-7 1 -14 0 -21 -3c-74 -34 -148 -57 -220 -68c-31 -5 -60 -7 -87 -7c-32 0 -79 5 -94 11c-1 0 -2 1 -3 0c-7 0 -13 -1 -19 -1c-14 0 -40 2 -64 18c-23 15 -37 39 -39 70c0 1 -1 3 -2 3c-4 2 -7 3 -11 5c-25 15 -39 42 -41 79c0 3 -1 6 -4 7c-16 8 -27 18 -33 31
c-14 27 -10 61 10 81c1 1 2 2 4 3c2 2 0 5 -3 5c-48 -1 -104 -2 -131 0c-67 5 -85 34 -85 63c0 47 48 62 85 69c75 14 333 35 421 35c81 0 199 -32 333 -89c3 -1 6 -1 9 -1l74 9c10 1 15 -6 15 -14v-301c0 -2 -1 -5 -2 -7c-3 -5 -8 -7 -13 -7z" />
    <glyph glyph-name="Identity.323" unicode="&#x261e;" horiz-adv-x="1000" 
d="M464 593c88 0 346 -21 421 -35c37 -7 85 -22 85 -69c0 -29 -18 -58 -85 -63c-27 -2 -83 -1 -131 0c-3 0 -5 -3 -3 -5c2 -1 3 -2 4 -3c20 -20 24 -54 10 -81c-6 -13 -17 -23 -33 -31c-3 -1 -4 -4 -4 -7c-2 -37 -16 -64 -41 -79c-4 -2 -7 -3 -11 -5c-1 0 -2 -2 -2 -3
c-2 -31 -16 -55 -39 -70c-24 -16 -50 -18 -64 -18c-6 0 -12 1 -19 1c-1 1 -2 0 -3 0c-15 -6 -62 -11 -94 -11c-27 0 -56 2 -87 7c-72 11 -146 34 -220 68c-7 3 -14 4 -21 3l-79 -9c-5 0 -10 2 -13 7c-1 2 -2 5 -2 7v301c0 8 5 15 15 14l74 -9c3 0 6 0 9 1
c134 57 252 89 333 89zM148 219c79 -37 151 -60 224 -72c40 -6 78 -7 113 -5c1 0 2 3 0 3c-27 13 -56 29 -76 53c-13 17 -20 45 -20 75s-17 61 -58 57c-50 -5 -85 -4 -122 6c-9 2 -17 9 -17 16s10 11 17 11c40 0 87 13 130 35s70 45 80 59c3 5 11 7 16 4
c11 -5 81 -28 138 -45c35 -10 64 -7 73 11c4 7 0 18 -18 38c-23 26 -64 55 -83 68c-34 22 -61 30 -111 30c-58 0 -179 -35 -297 -86c-4 -2 -9 -2 -13 -2l-54 7c-5 0 -10 -3 -10 -8v-251c0 -6 6 -10 12 -10l63 8c4 0 9 0 13 -2zM571 151c9 0 31 1 49 13c14 9 22 23 26 40
c0 2 -2 3 -4 3c-11 -1 -24 -2 -36 -2c-36 0 -104 22 -146 50c-12 8 -27 12 -34 -7c-3 -7 -4 -23 10 -38c33 -36 94 -59 135 -59zM606 232c25 0 49 2 67 12c19 11 25 30 27 47c0 3 -2 5 -5 5c-12 -2 -23 -2 -33 -2c-51 0 -96 10 -133 26c-19 8 -41 20 -59 29
c-8 5 -16 3 -21 -1c-6 -7 -9 -15 -9 -25c0 -18 14 -32 44 -51c37 -25 91 -40 122 -40zM697 324c16 3 37 9 44 25c7 14 9 37 -5 50c-13 13 -30 23 -47 29c-5 2 -13 2 -16 -5c-11 -24 -24 -33 -46 -37c-18 -4 -38 -1 -62 4c-22 6 -50 14 -69 19c-8 2 -13 -1 -15 -7
c-2 -10 -2 -21 9 -31s28 -19 47 -27c29 -12 60 -18 95 -22c11 -2 38 -3 65 2zM729 454c50 -1 124 -3 154 -1c52 4 60 20 60 36c0 9 0 30 -63 42c-50 10 -190 23 -299 30c-2 0 -3 -1 -3 -3c-1 -5 -1 -11 0 -16c1 -1 1 -2 2 -3c19 -17 51 -40 71 -61c9 -10 24 -17 37 -20
c10 -2 24 -4 41 -4z" />
    <glyph glyph-name="Identity.324" unicode="&#x2640;" horiz-adv-x="1000" 
d="M294 614c0 115 91 206 206 206s206 -91 206 -206c0 -105 -77 -192 -181 -206v-122h293v-50h-293v-296h-50v296h-293v50h293v122c-104 14 -181 101 -181 206zM657 614c0 87 -70 157 -157 157s-157 -70 -157 -157s70 -157 157 -157s157 70 157 157z" />
    <glyph glyph-name="Identity.325" unicode="&#x2642;" horiz-adv-x="1000" 
d="M532 205c0 -113 -93 -206 -207 -206c-113 0 -206 93 -206 206c0 114 93 207 206 207c47 0 90 -15 127 -44l317 316h-282v49h366v-366h-49v283l-317 -317c29 -34 45 -81 45 -128zM169 205c0 -87 69 -156 156 -156s157 69 157 156s-70 157 -157 157s-156 -70 -156 -157z
" />
    <glyph glyph-name="Identity.326" unicode="&#x2660;" horiz-adv-x="1000" 
d="M727 599c73 -69 190 -172 190 -315c0 -116 -80 -218 -200 -218c-76 0 -140 40 -165 97c-7 15 -8 22 -16 22c-7 0 -6 -16 -6 -18c6 -104 43 -159 99 -206c11 -10 4 -20 0 -20h-258c-4 0 -12 10 0 20c56 47 93 102 99 206c0 2 1 18 -6 18c-8 0 -9 -7 -16 -22
c-25 -57 -89 -97 -165 -97c-119 0 -200 102 -200 218c0 143 117 246 190 315c89 85 189 196 225 253c1 2 3 2 4 0c36 -57 136 -168 225 -253z" />
    <glyph glyph-name="Identity.327" unicode="&#x2661;" horiz-adv-x="1000" 
d="M503 645c42 111 129 152 210 152c115 0 210 -105 210 -242c0 -148 -119 -254 -195 -326c-91 -87 -188 -207 -225 -267c-1 -2 -3 -2 -4 0c-37 60 -134 180 -225 267c-76 72 -195 179 -195 326c0 137 95 242 210 242c81 0 166 -41 210 -152c1 -3 3 -3 4 0zM890 555
c0 119 -80 210 -177 210c-89 0 -148 -49 -188 -150c-6 -17 -14 -24 -24 -24s-18 7 -24 24c-40 101 -99 150 -188 150c-97 0 -177 -91 -177 -210c0 -128 113 -235 184 -303c87 -82 168 -177 203 -234c1 -2 3 -2 4 0c35 57 117 152 203 234c71 68 184 174 184 303z" />
    <glyph glyph-name="Identity.328" unicode="&#x2663;" horiz-adv-x="1000" 
d="M464 185c-8 0 -7 -8 -16 -22c-37 -58 -104 -104 -183 -104c-113 0 -201 84 -201 203c0 114 86 204 202 204c30 0 63 -11 86 -23c0 0 5 -2 7 2c3 5 -3 9 -3 9c-35 33 -62 84 -62 144c0 114 91 208 206 208c114 0 206 -93 206 -207c0 -60 -27 -112 -62 -145
c0 0 -6 -4 -3 -9c2 -4 7 -2 7 -2c23 12 57 23 85 23c119 0 203 -90 203 -204c0 -119 -88 -203 -201 -203c-75 0 -142 40 -183 104c-9 14 -8 22 -16 22c-7 0 -6 -16 -6 -18c7 -104 43 -159 99 -206c12 -10 4 -20 0 -20h-257c-5 0 -12 10 -1 20c56 47 93 102 99 206
c0 2 1 18 -6 18z" />
    <glyph glyph-name="Identity.329" unicode="&#x2664;" horiz-adv-x="1000" 
d="M639 -60h-278c-4 0 -11 11 0 21c52 47 84 98 91 175c2 15 2 30 1 30s-6 -12 -15 -25c-32 -48 -90 -76 -156 -76c-120 0 -200 102 -200 219c0 143 117 246 190 316c90 85 190 196 226 253c1 2 3 2 4 0c36 -57 136 -168 226 -253c73 -70 190 -173 190 -316
c0 -117 -81 -219 -200 -219c-66 0 -124 28 -156 76c-9 13 -14 25 -15 25s-1 -15 1 -30c7 -77 39 -128 91 -175c11 -10 4 -21 0 -21zM426 -27h148c4 0 -2 8 -10 19c-27 38 -49 84 -49 167c0 34 7 57 24 57c14 0 20 -15 40 -44c33 -47 78 -74 139 -74c102 0 167 86 167 187
c0 129 -112 226 -178 289c-82 78 -171 173 -205 225c-1 2 -3 2 -4 0c-34 -52 -124 -147 -206 -225c-66 -63 -177 -160 -177 -289c0 -101 65 -187 167 -187c61 0 106 27 139 74c20 29 26 44 40 44c17 0 24 -23 24 -57c0 -83 -22 -129 -49 -167c-8 -11 -14 -19 -10 -19z" />
    <glyph glyph-name="Identity.330" unicode="&#x2665;" horiz-adv-x="1000" 
d="M505 636c29 111 113 160 207 160c114 0 209 -105 209 -241c0 -148 -119 -254 -194 -326c-91 -87 -188 -206 -225 -266c-1 -2 -3 -2 -4 0c-37 60 -134 179 -225 266c-75 72 -194 179 -194 326c0 136 95 241 209 241c94 0 177 -49 207 -160c1 -3 2 -7 5 -7s4 4 5 7z" />
    <glyph glyph-name="Identity.331" unicode="&#x2667;" horiz-adv-x="1000" 
d="M345 418c-21 8 -46 17 -82 17c-96 0 -167 -75 -167 -173s75 -171 168 -171c67 0 124 33 163 94c12 18 19 32 33 32c17 0 25 -23 25 -58c0 -83 -21 -127 -52 -171c-7 -11 -11 -15 -7 -15h148c4 0 0 4 -7 15c-31 44 -52 88 -52 171c0 35 8 58 25 58c14 0 22 -17 43 -46
c35 -49 86 -80 153 -80c93 0 168 73 168 171s-71 173 -167 173c-36 0 -61 -10 -82 -17c-23 -9 -39 -9 -46 2c-10 13 -1 29 16 49c26 30 48 75 48 131c0 94 -78 174 -173 174c-96 0 -173 -80 -173 -174c0 -56 23 -102 48 -131c17 -20 26 -36 16 -49c-7 -11 -23 -10 -46 -2z
M63 262c0 115 83 206 202 206c29 0 66 -10 85 -19c2 -1 3 0 1 2c-31 31 -58 87 -58 149c0 114 93 207 207 207s207 -93 207 -207c0 -62 -26 -117 -58 -149c-2 -2 -1 -3 1 -2c19 9 56 19 85 19c119 0 202 -91 202 -206c0 -119 -88 -204 -201 -204c-76 0 -140 39 -174 86
c-9 13 -13 23 -14 23s-2 -16 0 -31c6 -78 40 -129 91 -175c11 -11 4 -21 0 -21h-278c-4 0 -11 10 0 21c51 46 85 97 91 175c2 15 1 31 0 31s-5 -10 -14 -23c-36 -50 -98 -86 -174 -86c-113 0 -201 85 -201 204z" />
    <glyph glyph-name="Identity.332" unicode="&#x2668;" horiz-adv-x="1000" 
d="M467 457c-27 54 -43 108 -43 147c0 77 22 140 101 193l25 -15c-49 -42 -72 -95 -72 -139c0 -43 18 -95 45 -150c27 -54 43 -108 43 -148c0 -76 -22 -139 -101 -192l-25 15c49 42 72 95 72 139c0 43 -18 95 -45 150zM293 459c-26 48 -41 96 -41 131c0 65 20 120 96 168
l22 -17c-46 -37 -66 -79 -66 -117c0 -37 19 -84 45 -133c27 -48 41 -96 41 -130c0 -69 -17 -121 -95 -169l-21 17c46 37 64 80 64 117s-18 85 -45 133zM644 459c-26 48 -41 96 -41 131c0 65 19 120 95 168l22 -17c-46 -36 -65 -79 -65 -117c0 -36 19 -84 45 -133
c26 -48 41 -96 41 -130c0 -69 -18 -121 -95 -169l-22 17c46 37 65 81 65 117c0 37 -19 85 -45 133zM920 234c0 -138 -176 -246 -420 -246s-420 108 -420 246c0 84 60 143 149 165l15 -24c-63 -20 -105 -61 -105 -122c0 -110 156 -193 361 -193s361 83 361 193
c0 61 -42 102 -105 122l15 24c89 -22 149 -81 149 -165z" />
    <glyph glyph-name="Identity.333" unicode="&#x2669;" horiz-adv-x="1000" 
d="M518 840h40v-750c0 -104 -88 -170 -183 -170c-46 0 -93 25 -93 74c0 71 91 138 173 138c23 0 48 -5 63 -13v721z" />
    <glyph glyph-name="Identity.334" unicode="&#x266a;" horiz-adv-x="1000" 
d="M486 840h25c0 -96 55 -167 116 -220s129 -131 129 -225c0 -84 -36 -167 -84 -244h-26c22 46 63 130 63 210c0 116 -79 208 -183 231v-502c0 -104 -88 -170 -183 -170c-46 0 -93 25 -93 74c0 71 91 138 173 138c23 0 48 -5 63 -13v721z" />
    <glyph glyph-name="Identity.335" unicode="&#x266c;" horiz-adv-x="1000" 
d="M260 727l585 128v-652c0 -104 -88 -170 -183 -170c-46 0 -93 25 -93 74c0 71 91 138 173 138c23 0 48 -5 63 -13v342l-505 -110v-389c0 -104 -88 -170 -183 -170c-46 0 -93 25 -93 74c0 71 91 138 173 138c23 0 48 -5 63 -13v623zM805 674v72l-505 -110v-72z" />
    <glyph glyph-name="Identity.336" unicode="&#x266d;" horiz-adv-x="1000" 
d="M602 479c88 0 135 -56 135 -123c0 -205 -250 -249 -377 -405h-10v858h39v-475c45 82 126 145 213 145zM389 26c120 126 273 173 273 315c0 61 -37 89 -85 89c-53 0 -131 -44 -188 -151v-253z" />
    <glyph glyph-name="Identity.337" unicode="&#x3001;" horiz-adv-x="1000" 
d="M329 -10l-45 -38c-67 82 -153 167 -225 224l41 37c73 -58 159 -144 229 -223z" />
    <glyph glyph-name="Identity.338" unicode="&#x3002;" horiz-adv-x="1000" 
d="M195 242c81 0 146 -66 146 -147s-65 -147 -146 -147s-147 66 -147 147s66 147 147 147zM195 -13c60 0 108 48 108 108c0 59 -48 108 -108 108s-108 -49 -108 -108c0 -60 48 -108 108 -108z" />
    <glyph glyph-name="Identity.339" unicode="&#x3003;" horiz-adv-x="1000" 
d="M407 624l68 -27l-193 -461l-34 13zM685 624l67 -27l-193 -461l-34 13z" />
    <glyph glyph-name="Identity.340" unicode="&#x3008;" horiz-adv-x="1000" 
d="M659 380l290 -442l-42 -20l-303 462l303 462l42 -20z" />
    <glyph glyph-name="Identity.341" unicode="&#x3009;" horiz-adv-x="1000" 
d="M93 -82l-42 20l290 442l-290 442l42 20l303 -462z" />
    <glyph glyph-name="Identity.342" unicode="&#x300a;" horiz-adv-x="1000" 
d="M579 380l231 -449l-37 -13l-237 462l237 462l37 -13zM728 380l231 -449l-37 -13l-237 462l237 462l37 -13z" />
    <glyph glyph-name="Identity.343" unicode="&#x300b;" horiz-adv-x="1000" 
d="M227 -82l-37 13l231 449l-231 449l37 13l237 -462zM78 -82l-37 13l231 449l-231 449l37 13l237 -462z" />
    <glyph glyph-name="Identity.344" unicode="&#x300c;" horiz-adv-x="1000" 
d="M656 191v651h306v-46h-258v-605h-48z" />
    <glyph glyph-name="Identity.345" unicode="&#x300d;" horiz-adv-x="1000" 
d="M344 569v-651h-306v46h258v605h48z" />
    <glyph glyph-name="Identity.346" unicode="&#x300e;" horiz-adv-x="1000" 
d="M962 699h-205v-520h-158v663h363v-143zM936 816h-310v-610h105v520h205v90z" />
    <glyph glyph-name="Identity.347" unicode="&#x300f;" horiz-adv-x="1000" 
d="M38 61h205v520h158v-663h-363v143zM64 -56h310v610h-105v-520h-205v-90z" />
    <glyph glyph-name="Identity.348" unicode="&#x3010;" horiz-adv-x="1000" 
d="M670 842h292v-5c-109 -91 -198 -256 -198 -457s89 -366 198 -457v-5h-292v924z" />
    <glyph glyph-name="Identity.349" unicode="&#x3011;" horiz-adv-x="1000" 
d="M330 842v-924h-292v5c109 91 198 256 198 457s-89 366 -198 457v5h292z" />
    <glyph glyph-name="Identity.350" unicode="&#x3013;" horiz-adv-x="1000" 
d="M900 780v-300h-800v300h800zM900 280v-300h-800v300h800z" />
    <glyph glyph-name="Identity.351" unicode="&#x3014;" horiz-adv-x="1000" 
d="M929 -94l-205 134v680l205 134l24 -36l-182 -117v-642l182 -117z" />
    <glyph glyph-name="Identity.352" unicode="&#x3015;" horiz-adv-x="1000" 
d="M276 40l-205 -134l-24 36l182 117v642l-182 117l24 36l205 -134v-680z" />
    <glyph glyph-name="Identity.353" unicode="&#x3131;" 
d="M187 608h546v-455h-52v410h-494v45z" />
    <glyph glyph-name="Identity.354" unicode="&#x3132;" 
d="M158 607h295v-455h-53v410h-242v45zM509 609h298v-455h-53v410h-245v45z" />
    <glyph glyph-name="Identity.355" unicode="&#x3133;" 
d="M148 560v45h267v-454h-52v409h-215zM666 616v-172c0 -99 56 -211 163 -259l-30 -40c-81 38 -134 110 -159 188c-24 -78 -77 -150 -159 -188l-29 40c107 48 162 160 162 259v172h52z" />
    <glyph glyph-name="Identity.356" unicode="&#x3134;" 
d="M248 200h504v-45h-557v451h53v-406z" />
    <glyph glyph-name="Identity.357" unicode="&#x3135;" 
d="M634 563v-108c0 -102 52 -220 159 -271l-31 -40c-79 39 -129 113 -153 194c-24 -81 -74 -155 -153 -194l-25 33c-77 -25 -148 -27 -214 -27h-38v466h53v-422c60 1 130 5 193 29l8 -35c101 53 149 167 149 267v108h-136v45h325v-45h-137z" />
    <glyph glyph-name="Identity.358" unicode="&#x3136;" 
d="M232 593v-396c60 1 130 5 193 29l10 -46c-78 -26 -151 -28 -218 -28h-38v441h53zM601 179c56 0 95 47 95 110s-39 110 -95 110c-57 0 -96 -47 -96 -110s39 -110 96 -110zM601 442c80 0 141 -62 141 -153c0 -92 -61 -153 -141 -153c-81 0 -142 61 -142 153
c0 91 61 153 142 153zM629 528h136v-45h-329v45h141v97h52v-97z" />
    <glyph glyph-name="Identity.359" unicode="&#x3137;" 
d="M249 196h492v-44h-545v457h535v-45h-482v-368z" />
    <glyph glyph-name="Identity.360" unicode="&#x3138;" 
d="M226 563v-363c65 0 139 4 221 25l8 -46c-93 -22 -170 -24 -241 -24h-40v453h274v-45h-222zM534 198h226v-45h-279v455h275v-45h-222v-365z" />
    <glyph glyph-name="Identity.361" unicode="&#x3139;" 
d="M238 185h515v-45h-565v263h499v172h-502v45h552v-261h-499v-174z" />
    <glyph glyph-name="Identity.362" unicode="&#x313a;" 
d="M221 362v-170c81 0 170 4 278 25l7 -44c-115 -22 -205 -25 -290 -25h-48v258h232v161h-234v45h286v-250h-231zM485 612h285v-461h-53v416h-232v45z" />
    <glyph glyph-name="Identity.363" unicode="&#x313b;" 
d="M220 362v-168c66 0 143 3 242 20l6 -45c-107 -18 -186 -20 -257 -20h-43v258h225v160h-228v45h281v-250h-226zM728 194v374h-192v-374h192zM487 612h289v-463h-289v463z" />
    <glyph glyph-name="Identity.364" unicode="&#x313c;" 
d="M220 362v-169c71 0 153 4 250 23l7 -44c-106 -21 -189 -24 -265 -24h-44v259h225v160h-228v45h281v-250h-226zM728 194v198h-187v-198h187zM728 613h51v-464h-289v464h51v-176h187v176z" />
    <glyph glyph-name="Identity.365" unicode="&#x313d;" 
d="M672 615v-172c0 -98 55 -210 161 -258l-30 -39c-80 37 -132 108 -157 187c-24 -79 -77 -150 -156 -187l-24 31c-94 -24 -177 -28 -254 -28h-44v258h226v160h-229v45h281v-250h-225v-168c73 0 156 5 243 28l6 -32c99 51 150 158 150 253v172h52z" />
    <glyph glyph-name="Identity.366" unicode="&#x313e;" 
d="M221 361v-167c74 0 156 5 243 28l8 -45c-97 -24 -181 -28 -260 -28h-43v257h225v160h-228v45h281v-250h-226zM553 194h240v-45h-293v462h287v-45h-234v-158h224v-45h-224v-169z" />
    <glyph glyph-name="Identity.367" unicode="&#x313f;" 
d="M220 362v-168c72 0 152 5 239 28l8 -45c-97 -24 -178 -28 -256 -28h-43v258h214v160h-217v45h270v-250h-215zM587 567v-373h94v373h-94zM731 194h62v-45h-316v45h61v373h-57v44h305v-44h-55v-373z" />
    <glyph glyph-name="Identity.368" unicode="&#x3140;" 
d="M222 354v-169c67 0 144 4 228 26l8 -46c-94 -22 -174 -25 -247 -25h-42v258h200v161h-202v44h254v-249h-199zM615 177c57 0 96 44 96 106c0 60 -39 105 -96 105c-56 0 -96 -45 -96 -105c0 -62 40 -106 96 -106zM615 431c81 0 142 -59 142 -148s-61 -149 -142 -149
c-80 0 -142 60 -142 149s62 148 142 148zM644 517h134v-45h-327v45h141v106h52v-106z" />
    <glyph glyph-name="Identity.369" unicode="&#x3141;" 
d="M191 610h550v-460h-550v460zM688 566h-444v-371h444v371z" />
    <glyph glyph-name="Identity.370" unicode="&#x3142;" 
d="M193 616h53v-178h438v178h53v-471h-544v471zM246 391v-199h438v199h-438z" />
    <glyph glyph-name="Identity.371" unicode="&#x3143;" 
d="M177 612h50v-176h172v176h50v-463h-272v463zM227 391v-197h172v197h-172zM491 612h51v-176h172v176h49v-463h-272v463zM542 391v-197h172v197h-172z" />
    <glyph glyph-name="Identity.372" unicode="&#x3144;" 
d="M399 196v197h-172v-197h172zM399 438v176h50v-463h-272v463h50v-176h172zM674 616v-172c0 -99 56 -211 163 -259l-30 -40c-81 38 -134 110 -159 188c-24 -78 -77 -150 -159 -188l-29 40c107 48 162 160 162 259v172h52z" />
    <glyph glyph-name="Identity.373" unicode="&#x3145;" 
d="M494 621v-151c0 -159 141 -258 282 -294l-27 -43c-119 34 -236 107 -281 227c-46 -120 -163 -193 -282 -227l-27 43c141 36 282 135 282 294v151h53z" />
    <glyph glyph-name="Identity.374" unicode="&#x3146;" 
d="M653 610v-147c0 -91 52 -206 158 -256l-31 -41c-80 40 -130 113 -154 190c-24 -81 -77 -163 -161 -205c-84 43 -137 129 -162 209c-23 -76 -73 -153 -151 -195l-33 40c107 55 158 179 158 258v147h53v-152c0 -73 46 -187 135 -249c90 60 135 171 135 249v152h53z" />
    <glyph glyph-name="Identity.375" unicode="&#x3147;" 
d="M460 621c155 0 274 -100 274 -240c0 -141 -119 -241 -274 -241s-274 100 -274 241c0 140 119 240 274 240zM460 574c-124 0 -222 -85 -222 -193c0 -110 98 -195 222 -195c125 0 222 85 222 195c0 108 -97 193 -222 193z" />
    <glyph glyph-name="Identity.376" unicode="&#x3148;" 
d="M497 571v-82c0 -157 128 -262 265 -302l-28 -42c-114 37 -222 114 -263 232c-42 -118 -149 -195 -264 -232l-27 42c137 40 265 145 265 302v82h-244v45h538v-45h-242z" />
    <glyph glyph-name="Identity.377" unicode="&#x3149;" 
d="M655 574v-97c0 -105 45 -229 155 -283l-35 -42c-73 39 -119 108 -144 185c-24 -92 -76 -160 -166 -197c-89 37 -143 107 -167 199c-25 -78 -75 -147 -150 -187l-33 42c110 53 161 176 161 283v97h-127v45h297v-45h-118v-97c0 -130 42 -230 137 -279
c96 49 137 149 137 279v97h-119v45h297v-45h-125z" />
    <glyph glyph-name="Identity.378" unicode="&#x314a;" 
d="M493 480v-36c0 -148 124 -250 260 -289l-28 -42c-115 36 -221 112 -261 229c-41 -117 -147 -193 -262 -229l-28 42c136 39 260 141 260 289v36h-241v46h245v127h53v-127h242v-46h-240z" />
    <glyph glyph-name="Identity.379" unicode="&#x314b;" 
d="M195 620h542v-480h-53v223l-497 -30l-8 51l505 23v169h-489v44z" />
    <glyph glyph-name="Identity.380" unicode="&#x314c;" 
d="M249 195h501v-45h-554v461h547v-45h-494v-157h486v-45h-486v-169z" />
    <glyph glyph-name="Identity.381" unicode="&#x314d;" 
d="M366 565v-371h200v371h-200zM619 194h146v-44h-597v44h145v371h-132v45h571v-45h-133v-371z" />
    <glyph glyph-name="Identity.382" unicode="&#x314e;" 
d="M466 144c89 0 156 48 156 110c0 63 -67 110 -156 110s-156 -47 -156 -110c0 -62 67 -110 156 -110zM466 409c122 0 210 -63 210 -155c0 -91 -88 -155 -210 -155c-121 0 -210 64 -210 155c0 92 89 155 210 155zM493 528h268v-45h-590v45h269v126h53v-126z" />
    <glyph glyph-name="Identity.383" unicode="&#x314f;" 
d="M682 448v-46h-221v-456h-53v868h53v-366h221z" />
    <glyph glyph-name="Identity.384" unicode="&#x3150;" 
d="M555 814h52v-868h-52v461h-178v-429h-51v822h51v-347h178v361z" />
    <glyph glyph-name="Identity.385" unicode="&#x3151;" 
d="M644 491h-214v-192h214v-45h-214v-308h-53v869h53v-279h214v-45z" />
    <glyph glyph-name="Identity.386" unicode="&#x3152;" 
d="M378 316h175v186h-175v-186zM553 814h52v-868h-52v325h-175v-293h-51v823h51v-253h175v266z" />
    <glyph glyph-name="Identity.387" unicode="&#x3153;" 
d="M522 814h53v-868h-53v458h-222v46h222v364z" />
    <glyph glyph-name="Identity.388" unicode="&#x3154;" 
d="M420 456v347h51v-824h-51v431h-183v46h183zM588 814h51v-868h-51v868z" />
    <glyph glyph-name="Identity.389" unicode="&#x3155;" 
d="M524 814h53v-868h-53v339h-220v45h220v178h-220v46h220v260z" />
    <glyph glyph-name="Identity.390" unicode="&#x3156;" 
d="M420 566v237h51v-823h-51v313h-183v45h183v183h-182v45h182zM587 815h51v-869h-51v869z" />
    <glyph glyph-name="Identity.391" unicode="&#x3157;" 
d="M484 208h374v-46h-799v46h372v387h53v-387z" />
    <glyph glyph-name="Identity.392" unicode="&#x3158;" 
d="M377 540v-308c83 5 167 10 244 20l4 -39c-180 -28 -390 -33 -543 -33l-10 46c74 0 162 1 252 4v310h53zM864 448v-46h-146v-456h-53v868h53v-366h146z" />
    <glyph glyph-name="Identity.393" unicode="&#x3159;" 
d="M329 549v-300c71 4 141 8 201 16l4 -40c-142 -23 -332 -28 -453 -28l-8 47c57 0 130 1 205 3v302h51zM742 814h51v-868h-51v467h-123v-433h-51v823h51v-345h123v356z" />
    <glyph glyph-name="Identity.394" unicode="&#x315a;" 
d="M413 537v-294c82 4 166 10 242 21l3 -41c-179 -29 -388 -32 -538 -32l-10 46c74 0 161 1 251 4v296h52zM714 814h53v-868h-53v868z" />
    <glyph glyph-name="Identity.395" unicode="&#x315b;" 
d="M646 198h220v-45h-798v45h222v410h53v-410h250v410h53v-410z" />
    <glyph glyph-name="Identity.396" unicode="&#x315c;" 
d="M866 599v-46h-374v-392h-53v392h-372v46h799z" />
    <glyph glyph-name="Identity.397" unicode="&#x315d;" 
d="M678 445l4 -40c-98 -14 -202 -21 -303 -25v-364h-53v362c-81 -3 -158 -4 -229 -4l-8 47c176 1 396 4 589 24zM752 814h53v-868h-53v273h-229v44h229v551z" />
    <glyph glyph-name="Identity.398" unicode="&#x315e;" 
d="M551 447l4 -39c-65 -10 -141 -18 -216 -22v-371h-52v368c-71 -4 -140 -6 -196 -6l-9 45c130 0 330 8 469 25zM605 263v527h51v-823h-51v252h-178v44h178zM767 814h51v-868h-51v868z" />
    <glyph glyph-name="Identity.399" unicode="&#x315f;" 
d="M702 447l4 -40c-90 -12 -183 -19 -274 -24v-367h-53v365c-93 -4 -183 -5 -264 -5l-9 47c179 0 401 3 596 24zM750 815h53v-869h-53v869z" />
    <glyph glyph-name="Identity.400" unicode="&#x3160;" 
d="M857 600v-45h-231v-394h-52v394h-234v-394h-52v394h-229v45h798z" />
    <glyph glyph-name="Identity.401" unicode="&#x3161;" 
d="M60 403h798v-45h-798v45z" />
    <glyph glyph-name="Identity.402" unicode="&#x3162;" 
d="M727 814h53v-868h-53v868zM94 254l-10 46c173 1 396 4 586 29l4 -41c-196 -30 -413 -34 -580 -34z" />
    <glyph glyph-name="Identity.403" unicode="&#x3163;" 
d="M440 814h53v-868h-53v868z" />
    <glyph glyph-name="Identity.404" unicode="&#x3200;" horiz-adv-x="1000" 
d="M241 592h487v-467h-52v422h-435v45zM161 -66c-88 130 -126 273 -126 446c0 172 38 316 126 446l33 -12c-83 -124 -115 -279 -115 -434c0 -156 32 -310 115 -434zM839 -66l-33 12c83 124 115 282 115 434c0 155 -32 310 -115 434l33 12c88 -130 126 -274 126 -446
c0 -173 -38 -316 -126 -446z" />
    <glyph glyph-name="Identity.405" unicode="&#x3201;" horiz-adv-x="1000" 
d="M161 826l33 -12c-83 -124 -115 -279 -115 -434c0 -156 32 -310 115 -434l-33 -12c-88 130 -126 273 -126 446c0 172 38 316 126 446zM341 626v-414h419v-45h-471v459h52zM806 814l33 12c88 -130 126 -274 126 -446c0 -173 -38 -316 -126 -446l-33 12
c83 124 115 282 115 434c0 155 -32 310 -115 434z" />
    <glyph glyph-name="Identity.406" unicode="&#x3202;" horiz-adv-x="1000" 
d="M161 826l33 -12c-83 -124 -115 -279 -115 -434c0 -156 32 -310 115 -434l-33 -12c-88 130 -126 273 -126 446c0 172 38 316 126 446zM326 574v-369h425v-45h-477v459h465v-45h-413zM806 814l33 12c88 -130 126 -274 126 -446c0 -173 -38 -316 -126 -446l-33 12
c83 124 115 282 115 434c0 155 -32 310 -115 434z" />
    <glyph glyph-name="Identity.407" unicode="&#x3203;" horiz-adv-x="1000" 
d="M161 826l33 -12c-83 -124 -115 -279 -115 -434c0 -156 32 -310 115 -434l-33 -12c-88 130 -126 273 -126 446c0 172 38 316 126 446zM316 361v-185h432v-45h-482v273h415v181h-418v44h468v-268h-415zM806 814l33 12c88 -130 126 -274 126 -446c0 -173 -38 -316 -126 -446
l-33 12c83 124 115 282 115 434c0 155 -32 310 -115 434z" />
    <glyph glyph-name="Identity.408" unicode="&#x3204;" horiz-adv-x="1000" 
d="M273 599h465v-440h-465v440zM686 554h-361v-351h361v351zM161 -66c-88 130 -126 273 -126 446c0 172 38 316 126 446l33 -12c-83 -124 -115 -279 -115 -434c0 -156 32 -310 115 -434zM839 -66l-33 12c83 124 115 282 115 434c0 155 -32 310 -115 434l33 12
c88 -130 126 -274 126 -446c0 -173 -38 -316 -126 -446z" />
    <glyph glyph-name="Identity.409" unicode="&#x3205;" horiz-adv-x="1000" 
d="M270 629h52v-187h365v187h53v-492h-470v492zM322 395v-210h365v210h-365zM161 -66c-88 130 -126 273 -126 446c0 172 38 316 126 446l33 -12c-83 -124 -115 -279 -115 -434c0 -156 32 -310 115 -434zM839 -66l-33 12c83 124 115 282 115 434c0 155 -32 310 -115 434
l33 12c88 -130 126 -274 126 -446c0 -173 -38 -316 -126 -446z" />
    <glyph glyph-name="Identity.410" unicode="&#x3206;" horiz-adv-x="1000" 
d="M161 826l33 -12c-83 -124 -115 -279 -115 -434c0 -156 32 -310 115 -434l-33 -12c-88 130 -126 273 -126 446c0 172 38 316 126 446zM535 641v-141c0 -141 106 -260 241 -305l-29 -44c-108 40 -199 122 -237 230c-39 -108 -130 -190 -238 -230l-29 43
c135 46 242 164 242 306v141h50zM806 814l33 12c88 -130 126 -274 126 -446c0 -173 -38 -316 -126 -446l-33 12c83 124 115 282 115 434c0 155 -32 310 -115 434z" />
    <glyph glyph-name="Identity.411" unicode="&#x3207;" horiz-adv-x="1000" 
d="M504 607c143 0 247 -92 247 -224s-104 -223 -247 -223c-142 0 -246 91 -246 223s104 224 246 224zM504 562c-114 0 -198 -77 -198 -179c0 -101 84 -178 198 -178s199 77 199 178c0 102 -85 179 -199 179zM161 -66c-88 130 -126 273 -126 446c0 172 38 316 126 446l33 -12
c-83 -124 -115 -279 -115 -434c0 -156 32 -310 115 -434zM839 -66l-33 12c83 124 115 282 115 434c0 155 -32 310 -115 434l33 12c88 -130 126 -274 126 -446c0 -173 -38 -316 -126 -446z" />
    <glyph glyph-name="Identity.412" unicode="&#x3208;" horiz-adv-x="1000" 
d="M161 826l33 -12c-83 -124 -115 -279 -115 -434c0 -156 32 -310 115 -434l-33 -12c-88 130 -126 273 -126 446c0 172 38 316 126 446zM528 554v-66c0 -135 117 -241 252 -281l-27 -43c-110 36 -208 111 -249 215c-41 -103 -136 -179 -246 -215l-26 43
c134 41 247 148 247 281v66h-221v45h492v-45h-222zM806 814l33 12c88 -130 126 -274 126 -446c0 -173 -38 -316 -126 -446l-33 12c83 124 115 282 115 434c0 155 -32 310 -115 434z" />
    <glyph glyph-name="Identity.413" unicode="&#x3209;" horiz-adv-x="1000" 
d="M161 826l33 -12c-83 -124 -115 -279 -115 -434c0 -156 32 -310 115 -434l-33 -12c-88 130 -126 273 -126 446c0 172 38 316 126 446zM529 484v-53c0 -114 105 -208 234 -243l-25 -42c-107 32 -198 101 -235 192c-37 -91 -129 -160 -236 -192l-26 42
c130 35 236 129 236 243v53h-220v45h220v132h52v-132h220v-45h-220zM806 814l33 12c88 -130 126 -274 126 -446c0 -173 -38 -316 -126 -446l-33 12c83 124 115 282 115 434c0 155 -32 310 -115 434z" />
    <glyph glyph-name="Identity.414" unicode="&#x320a;" horiz-adv-x="1000" 
d="M161 826l33 -12c-83 -124 -115 -279 -115 -434c0 -156 32 -310 115 -434l-33 -12c-88 130 -126 273 -126 446c0 172 38 316 126 446zM265 564v44h471v-471h-53v227l-434 -28l-9 50l443 21v157h-418zM806 814l33 12c88 -130 126 -274 126 -446c0 -173 -38 -316 -126 -446
l-33 12c83 124 115 282 115 434c0 155 -32 310 -115 434z" />
    <glyph glyph-name="Identity.415" unicode="&#x320b;" horiz-adv-x="1000" 
d="M161 826l33 -12c-83 -124 -115 -279 -115 -434c0 -156 32 -310 115 -434l-33 -12c-88 130 -126 273 -126 446c0 172 38 316 126 446zM323 361v-162h427v-44h-477v454h461v-45h-411v-158h413v-45h-413zM806 814l33 12c88 -130 126 -274 126 -446
c0 -173 -38 -316 -126 -446l-33 12c83 124 115 282 115 434c0 155 -32 310 -115 434z" />
    <glyph glyph-name="Identity.416" unicode="&#x320c;" horiz-adv-x="1000" 
d="M161 826l33 -12c-83 -124 -115 -279 -115 -434c0 -156 32 -310 115 -434l-33 -12c-88 130 -126 273 -126 446c0 172 38 316 126 446zM420 543v-314h187v314h-187zM659 543v-314h127v-45h-562v45h143v314h-119v45h515v-45h-104zM806 814l33 12c88 -130 126 -274 126 -446
c0 -173 -38 -316 -126 -446l-33 12c83 124 115 282 115 434c0 155 -32 310 -115 434z" />
    <glyph glyph-name="Identity.417" unicode="&#x320d;" horiz-adv-x="1000" 
d="M161 826l33 -12c-83 -124 -115 -279 -115 -434c0 -156 32 -310 115 -434l-33 -12c-88 130 -126 273 -126 446c0 172 38 316 126 446zM499 116c89 0 156 59 156 133s-67 133 -156 133c-88 0 -155 -59 -155 -133s67 -133 155 -133zM499 426c119 0 208 -74 208 -177
c0 -104 -89 -178 -208 -178c-118 0 -207 74 -207 178c0 103 89 177 207 177zM524 669v-127h258v-46h-565v46h255v127h52zM806 814l33 12c88 -130 126 -274 126 -446c0 -173 -38 -316 -126 -446l-33 12c83 124 115 282 115 434c0 155 -32 310 -115 434z" />
    <glyph glyph-name="Identity.418" unicode="&#x320e;" horiz-adv-x="1000" 
d="M161 826l32 -12c-84 -124 -115 -279 -115 -434c0 -156 31 -310 115 -434l-32 -12c-88 130 -126 273 -126 446c0 172 38 316 126 446zM201 681h331c0 -216 -107 -424 -324 -563l-34 39c186 117 292 290 305 478h-278v46zM881 394h-146v-422h-54v813h54v-345h146v-46z
M807 814l32 12c88 -130 126 -274 126 -446c0 -173 -38 -316 -126 -446l-32 12c84 124 115 282 115 434c0 155 -31 310 -115 434z" />
    <glyph glyph-name="Identity.419" unicode="&#x320f;" horiz-adv-x="1000" 
d="M161 826l32 -12c-84 -124 -115 -279 -115 -434c0 -156 31 -310 115 -434l-32 -12c-88 130 -126 273 -126 446c0 172 38 316 126 446zM248 231h7c116 0 233 7 366 36l8 -48c-138 -28 -255 -37 -374 -37h-60v521h53v-472zM884 403h-147v-431h-54v813h54v-336h147v-46z
M807 814l32 12c88 -130 126 -274 126 -446c0 -173 -38 -316 -126 -446l-32 12c84 124 115 282 115 434c0 155 -31 310 -115 434z" />
    <glyph glyph-name="Identity.420" unicode="&#x3210;" horiz-adv-x="1000" 
d="M161 826l32 -12c-84 -124 -115 -279 -115 -434c0 -156 31 -310 115 -434l-32 -12c-88 130 -126 273 -126 446c0 172 38 316 126 446zM255 208h6c141 0 237 5 353 27l7 -47c-121 -24 -216 -28 -360 -28h-59v535h358v-46h-305v-441zM883 403h-136v-430h-54v813h54v-337h136
v-46zM807 814l32 12c88 -130 126 -274 126 -446c0 -173 -38 -316 -126 -446l-32 12c84 124 115 282 115 434c0 155 -31 310 -115 434z" />
    <glyph glyph-name="Identity.421" unicode="&#x3211;" horiz-adv-x="1000" 
d="M161 826l32 -12c-84 -124 -115 -279 -115 -434c0 -156 31 -310 115 -434l-32 -12c-88 130 -126 273 -126 446c0 172 38 316 126 446zM259 211h5c139 0 232 4 349 28l5 -49c-119 -22 -214 -27 -354 -27h-57v299h269v188h-272v45h325v-279h-270v-205zM872 402h-125v-430
h-54v813h54v-337h125v-46zM807 814l32 12c88 -130 126 -274 126 -446c0 -173 -38 -316 -126 -446l-32 12c84 124 115 282 115 434c0 155 -31 310 -115 434z" />
    <glyph glyph-name="Identity.422" unicode="&#x3212;" horiz-adv-x="1000" 
d="M161 826l32 -12c-84 -124 -115 -279 -115 -434c0 -156 31 -310 115 -434l-32 -12c-88 130 -126 273 -126 446c0 172 38 316 126 446zM248 641v-416h221v416h-221zM194 178v510h329v-510h-329zM881 398h-146v-426h-54v813h54v-341h146v-46zM807 814l32 12
c88 -130 126 -274 126 -446c0 -173 -38 -316 -126 -446l-32 12c84 124 115 282 115 434c0 155 -31 310 -115 434z" />
    <glyph glyph-name="Identity.423" unicode="&#x3213;" horiz-adv-x="1000" 
d="M161 826l32 -12c-84 -124 -115 -279 -115 -434c0 -156 31 -310 115 -434l-32 -12c-88 130 -126 273 -126 446c0 172 38 316 126 446zM506 200v245h-237v-245h237zM506 493v212h51v-553h-340v553h52v-212h237zM882 395h-137v-423h-54v813h54v-343h137v-47zM807 814l32 12
c88 -130 126 -274 126 -446c0 -173 -38 -316 -126 -446l-32 12c84 124 115 282 115 434c0 155 -31 310 -115 434z" />
    <glyph glyph-name="Identity.424" unicode="&#x3214;" horiz-adv-x="1000" 
d="M161 826l32 -12c-84 -124 -115 -279 -115 -434c0 -156 31 -310 115 -434l-32 -12c-88 130 -126 273 -126 446c0 172 38 316 126 446zM405 705v-168c0 -157 79 -299 202 -360l-36 -41c-93 51 -162 145 -193 261c-31 -116 -100 -210 -193 -261l-36 41
c123 61 202 203 202 360v168h54zM875 402h-138v-430h-53v813h53v-337h138v-46zM807 814l32 12c88 -130 126 -274 126 -446c0 -173 -38 -316 -126 -446l-32 12c84 124 115 282 115 434c0 155 -31 310 -115 434z" />
    <glyph glyph-name="Identity.425" unicode="&#x3215;" horiz-adv-x="1000" 
d="M161 826l32 -12c-84 -124 -115 -279 -115 -434c0 -156 31 -310 115 -434l-32 -12c-88 130 -126 273 -126 446c0 172 38 316 126 446zM361 208c80 0 132 91 132 222s-52 223 -132 223c-79 0 -131 -92 -131 -223s52 -222 131 -222zM361 700c112 0 184 -105 184 -270
s-72 -270 -184 -270s-183 105 -183 270s71 270 183 270zM878 394h-130v-422h-53v813h53v-345h130v-46zM807 814l32 12c88 -130 126 -274 126 -446c0 -173 -38 -316 -126 -446l-32 12c84 124 115 282 115 434c0 155 -31 310 -115 434z" />
    <glyph glyph-name="Identity.426" unicode="&#x3216;" horiz-adv-x="1000" 
d="M161 826l32 -12c-84 -124 -115 -279 -115 -434c0 -156 31 -310 115 -434l-32 -12c-88 130 -126 273 -126 446c0 172 38 316 126 446zM415 641v-110c0 -156 68 -309 187 -375l-35 -40c-90 54 -152 153 -179 271c-27 -118 -89 -217 -179 -271l-35 40
c119 66 187 219 187 375v110h-160v47h375v-47h-161zM882 398h-137v-426h-54v813h54v-341h137v-46zM807 814l32 12c88 -130 126 -274 126 -446c0 -173 -38 -316 -126 -446l-32 12c84 124 115 282 115 434c0 155 -31 310 -115 434z" />
    <glyph glyph-name="Identity.427" unicode="&#x3217;" horiz-adv-x="1000" 
d="M161 826l32 -12c-84 -124 -115 -279 -115 -434c0 -156 31 -310 115 -434l-32 -12c-88 130 -126 273 -126 446c0 172 38 316 126 446zM409 548v-52c0 -140 83 -267 202 -320l-32 -42c-94 45 -165 131 -196 237c-32 -106 -103 -192 -196 -237l-33 42
c120 53 203 180 203 320v52h-180v46h179v144h53v-144h179v-46h-179zM882 385h-137v-413h-54v813h54v-353h137v-47zM807 814l32 12c88 -130 126 -274 126 -446c0 -173 -38 -316 -126 -446l-32 12c84 124 115 282 115 434c0 155 -31 310 -115 434z" />
    <glyph glyph-name="Identity.428" unicode="&#x3218;" horiz-adv-x="1000" 
d="M161 826l32 -12c-84 -124 -115 -279 -115 -434c0 -156 31 -310 115 -434l-32 -12c-88 130 -126 273 -126 446c0 172 38 316 126 446zM215 683h328c0 -213 -86 -426 -306 -574l-39 37c127 82 209 188 253 304l-249 -25l-12 48l276 21c14 47 22 95 25 143h-276v46zM873 392
h-138v-420h-54v813h54v-347h138v-46zM807 814l32 12c88 -130 126 -274 126 -446c0 -173 -38 -316 -126 -446l-32 12c84 124 115 282 115 434c0 155 -31 310 -115 434z" />
    <glyph glyph-name="Identity.429" unicode="&#x3219;" horiz-adv-x="1000" 
d="M161 826l32 -12c-84 -124 -115 -279 -115 -434c0 -156 31 -310 115 -434l-32 -12c-88 130 -126 273 -126 446c0 172 38 316 126 446zM256 210h5c140 0 236 4 352 27l7 -48c-121 -23 -216 -28 -359 -28h-58v528h354v-48h-301v-182h281v-47h-281v-202zM886 393h-138v-421
h-54v813h54v-346h138v-46zM807 814l32 12c88 -130 126 -274 126 -446c0 -173 -38 -316 -126 -446l-32 12c84 124 115 282 115 434c0 155 -31 310 -115 434z" />
    <glyph glyph-name="Identity.430" unicode="&#x321a;" horiz-adv-x="1000" 
d="M161 826l32 -12c-84 -124 -115 -279 -115 -434c0 -156 31 -310 115 -434l-32 -12c-88 130 -126 273 -126 446c0 172 38 316 126 446zM318 633v-420c48 1 97 3 146 6v414h-146zM516 633v-411c45 3 89 6 129 11l3 -41c-158 -23 -359 -28 -494 -28l-7 47c36 0 76 0 119 1
v421h-91v46h427v-46h-86zM888 394h-129v-422h-54v813h54v-345h129v-46zM807 814l32 12c88 -130 126 -274 126 -446c0 -173 -38 -316 -126 -446l-32 12c84 124 115 282 115 434c0 155 -31 310 -115 434z" />
    <glyph glyph-name="Identity.431" unicode="&#x321b;" horiz-adv-x="1000" 
d="M161 826l32 -12c-84 -124 -115 -279 -115 -434c0 -156 31 -310 115 -434l-32 -12c-88 130 -126 273 -126 446c0 172 38 316 126 446zM380 184c81 0 141 60 141 136s-60 135 -141 135s-141 -59 -141 -135s60 -136 141 -136zM380 497c110 0 191 -72 191 -177
s-81 -178 -191 -178s-190 73 -190 178s80 177 190 177zM410 759v-140h204v-46h-466v46h208v140h54zM879 395h-124v-423h-54v813h54v-345h124v-45zM807 814l32 12c88 -130 126 -274 126 -446c0 -173 -38 -316 -126 -446l-32 12c84 124 115 282 115 434
c0 155 -31 310 -115 434z" />
    <glyph glyph-name="Identity.432" unicode="&#x321c;" horiz-adv-x="1000" 
d="M481 676v7h-252v47h559v-47h-251v-7c0 -109 175 -198 303 -220l-21 -43c-121 23 -260 92 -310 188c-50 -96 -189 -165 -310 -188l-21 43c128 22 303 111 303 220zM161 826l32 -12c-84 -124 -115 -279 -115 -434c0 -156 31 -310 115 -434l-32 -12
c-88 130 -126 273 -126 446c0 172 38 316 126 446zM861 296h-325v-325h-54v325h-326v47h705v-47zM807 814l32 12c88 -130 126 -274 126 -446c0 -173 -38 -316 -126 -446l-32 12c84 124 115 282 115 434c0 155 -31 310 -115 434z" />
    <glyph glyph-name="Identity.433" unicode="&#x3260;" horiz-adv-x="1000" 
d="M264 560h439v-423h-52v378h-387v45zM962 380c0 -255 -207 -462 -462 -462s-462 207 -462 462s207 462 462 462s462 -207 462 -462zM500 814c-240 0 -434 -194 -434 -434s194 -434 434 -434s434 194 434 434s-194 434 -434 434z" />
    <glyph glyph-name="Identity.434" unicode="&#x3261;" horiz-adv-x="1000" 
d="M366 602v-367h374v-44h-427v411h53zM500 -54c240 0 434 194 434 434s-194 434 -434 434s-434 -194 -434 -434s194 -434 434 -434zM500 842c255 0 462 -207 462 -462s-207 -462 -462 -462s-462 207 -462 462s207 462 462 462z" />
    <glyph glyph-name="Identity.435" unicode="&#x3262;" horiz-adv-x="1000" 
d="M341 532v-325h378v-45h-430v415h421v-45h-369zM500 -54c240 0 434 194 434 434s-194 434 -434 434s-434 -194 -434 -434s194 -434 434 -434zM500 842c255 0 462 -207 462 -462s-207 -462 -462 -462s-462 207 -462 462s207 462 462 462z" />
    <glyph glyph-name="Identity.436" unicode="&#x3263;" horiz-adv-x="1000" 
d="M339 358v-159h397v-46h-447v249h372v161h-375v42h425v-247h-372zM500 -54c240 0 434 194 434 434s-194 434 -434 434s-434 -194 -434 -434s194 -434 434 -434zM500 842c255 0 462 -207 462 -462s-207 -462 -462 -462s-462 207 -462 462s207 462 462 462z" />
    <glyph glyph-name="Identity.437" unicode="&#x3264;" horiz-adv-x="1000" 
d="M287 558h422v-397h-422v397zM657 513h-317v-307h317v307zM962 380c0 -255 -207 -462 -462 -462s-462 207 -462 462s207 462 462 462s462 -207 462 -462zM500 814c-240 0 -434 -194 -434 -434s194 -434 434 -434s434 194 434 434s-194 434 -434 434z" />
    <glyph glyph-name="Identity.438" unicode="&#x3265;" horiz-adv-x="1000" 
d="M283 586h52v-171h322v171h52v-445h-426v445zM335 371v-186h322v186h-322zM962 380c0 -255 -207 -462 -462 -462s-462 207 -462 462s207 462 462 462s462 -207 462 -462zM500 814c-240 0 -434 -194 -434 -434s194 -434 434 -434s434 194 434 434s-194 434 -434 434z" />
    <glyph glyph-name="Identity.439" unicode="&#x3266;" horiz-adv-x="1000" 
d="M523 596v-135c0 -107 103 -213 229 -254l-27 -41c-102 36 -188 110 -226 198c-36 -89 -119 -164 -220 -200l-28 42c126 41 224 149 224 255v135h48zM500 -54c240 0 434 194 434 434s-194 434 -434 434s-434 -194 -434 -434s194 -434 434 -434zM500 842
c255 0 462 -207 462 -462s-207 -462 -462 -462s-462 207 -462 462s207 462 462 462z" />
    <glyph glyph-name="Identity.440" unicode="&#x3267;" horiz-adv-x="1000" 
d="M498 565c131 0 223 -82 223 -201s-92 -201 -223 -201c-130 0 -223 82 -223 201s93 201 223 201zM498 526c-102 0 -177 -71 -177 -162s75 -161 177 -161s177 70 177 161s-75 162 -177 162zM962 380c0 -255 -207 -462 -462 -462s-462 207 -462 462s207 462 462 462
s462 -207 462 -462zM500 814c-240 0 -434 -194 -434 -434s194 -434 434 -434s434 194 434 434s-194 434 -434 434z" />
    <glyph glyph-name="Identity.441" unicode="&#x3268;" horiz-adv-x="1000" 
d="M523 514v-52c0 -107 98 -201 225 -237l-27 -41c-102 32 -185 97 -222 182c-37 -85 -120 -150 -223 -182l-26 41c127 36 225 130 225 237v52h-197v45h444v-45h-199zM500 -54c240 0 434 194 434 434s-194 434 -434 434s-434 -194 -434 -434s194 -434 434 -434zM500 842
c255 0 462 -207 462 -462s-207 -462 -462 -462s-462 207 -462 462s207 462 462 462z" />
    <glyph glyph-name="Identity.442" unicode="&#x3269;" horiz-adv-x="1000" 
d="M527 458v-30c0 -94 89 -183 211 -216l-25 -42c-100 31 -178 94 -212 172c-34 -78 -112 -141 -212 -172l-25 42c122 33 212 122 212 216v30h-196v45h195v124h52v-124h198v-45h-198zM500 -54c240 0 434 194 434 434s-194 434 -434 434s-434 -194 -434 -434
s194 -434 434 -434zM500 842c255 0 462 -207 462 -462s-207 -462 -462 -462s-462 207 -462 462s207 462 462 462z" />
    <glyph glyph-name="Identity.443" unicode="&#x326a;" horiz-adv-x="1000" 
d="M287 522v43h426v-427h-50v203l-390 -25l-9 50l399 19v137h-376zM500 -54c240 0 434 194 434 434s-194 434 -434 434s-434 -194 -434 -434s194 -434 434 -434zM500 842c255 0 462 -207 462 -462s-207 -462 -462 -462s-462 207 -462 462s207 462 462 462z" />
    <glyph glyph-name="Identity.444" unicode="&#x326b;" horiz-adv-x="1000" 
d="M339 339v-137h380v-45h-432v411h423v-44h-371v-140h369v-45h-369zM500 -54c240 0 434 194 434 434s-194 434 -434 434s-434 -194 -434 -434s194 -434 434 -434zM500 842c255 0 462 -207 462 -462s-207 -462 -462 -462s-462 207 -462 462s207 462 462 462z" />
    <glyph glyph-name="Identity.445" unicode="&#x326c;" horiz-adv-x="1000" 
d="M410 503v-276h176v276h-176zM636 503v-276h116v-45h-510v45h118v276h-95v45h464v-45h-93zM500 -54c240 0 434 194 434 434s-194 434 -434 434s-434 -194 -434 -434s194 -434 434 -434zM500 842c255 0 462 -207 462 -462s-207 -462 -462 -462s-462 207 -462 462
s207 462 462 462z" />
    <glyph glyph-name="Identity.446" unicode="&#x326d;" horiz-adv-x="1000" 
d="M500 139c76 0 134 52 134 118s-58 119 -134 119c-77 0 -134 -53 -134 -119s57 -118 134 -118zM500 417c103 0 183 -67 183 -160s-80 -160 -183 -160c-104 0 -183 67 -183 160s79 160 183 160zM525 631v-110h230v-44h-514v44h232v110h52zM500 -54c240 0 434 194 434 434
s-194 434 -434 434s-434 -194 -434 -434s194 -434 434 -434zM500 842c255 0 462 -207 462 -462s-207 -462 -462 -462s-462 207 -462 462s207 462 462 462z" />
    <glyph glyph-name="Identity.447" unicode="&#x326e;" horiz-adv-x="1000" 
d="M209 640h294c0 -201 -109 -377 -298 -496l-34 39c162 99 266 244 279 410h-241v47zM707 440h134v-46h-134v-367h-54v715h54v-302zM500 -54c240 0 434 194 434 434s-194 434 -434 434s-434 -194 -434 -434s194 -434 434 -434zM500 842c255 0 462 -207 462 -462
s-207 -462 -462 -462s-462 207 -462 462s207 462 462 462z" />
    <glyph glyph-name="Identity.448" unicode="&#x326f;" horiz-adv-x="1000" 
d="M246 231h3c103 0 211 7 334 34l8 -48c-128 -27 -235 -34 -342 -34h-56v452h53v-404zM717 440h127v-46h-127v-367h-54v715h54v-302zM500 -54c240 0 434 194 434 434s-194 434 -434 434s-434 -194 -434 -434s194 -434 434 -434zM500 842c255 0 462 -207 462 -462
s-207 -462 -462 -462s-462 207 -462 462s207 462 462 462z" />
    <glyph glyph-name="Identity.449" unicode="&#x3270;" horiz-adv-x="1000" 
d="M246 237h3c133 0 224 3 335 26l7 -48c-115 -22 -207 -27 -342 -27h-56v449h338v-46h-285v-354zM713 415h128v-46h-128v-342h-53v715h53v-327zM500 -54c240 0 434 194 434 434s-194 434 -434 434s-434 -194 -434 -434s194 -434 434 -434zM500 842c255 0 462 -207 462 -462
s-207 -462 -462 -462s-462 207 -462 462s207 462 462 462z" />
    <glyph glyph-name="Identity.450" unicode="&#x3271;" horiz-adv-x="1000" 
d="M239 226h1c129 0 218 4 328 26l5 -47c-113 -21 -202 -26 -333 -26h-53v271h261v155h-264v44h317v-244h-262v-179zM708 440h133v-46h-133v-367h-53v715h53v-302zM500 -54c240 0 434 194 434 434s-194 434 -434 434s-434 -194 -434 -434s194 -434 434 -434zM500 842
c255 0 462 -207 462 -462s-207 -462 -462 -462s-462 207 -462 462s207 462 462 462z" />
    <glyph glyph-name="Identity.451" unicode="&#x3272;" horiz-adv-x="1000" 
d="M247 604v-363h208v363h-208zM194 195v455h314v-455h-314zM708 440h134v-46h-134v-367h-53v715h53v-302zM500 -54c240 0 434 194 434 434s-194 434 -434 434s-434 -194 -434 -434s194 -434 434 -434zM500 842c255 0 462 -207 462 -462s-207 -462 -462 -462
s-462 207 -462 462s207 462 462 462z" />
    <glyph glyph-name="Identity.452" unicode="&#x3273;" horiz-adv-x="1000" 
d="M463 218v214h-217v-214h217zM463 480v186h52v-496h-321v496h52v-186h217zM712 440h129v-46h-129v-367h-54v715h54v-302zM500 -54c240 0 434 194 434 434s-194 434 -434 434s-434 -194 -434 -434s194 -434 434 -434zM500 842c255 0 462 -207 462 -462s-207 -462 -462 -462
s-462 207 -462 462s207 462 462 462z" />
    <glyph glyph-name="Identity.453" unicode="&#x3274;" horiz-adv-x="1000" 
d="M382 682v-100c0 -152 72 -298 192 -361l-35 -40c-90 51 -154 145 -183 257c-29 -112 -93 -206 -183 -257l-36 40c120 63 193 209 193 361v100h52zM707 440h134v-46h-134v-367h-54v715h54v-302zM500 -54c240 0 434 194 434 434s-194 434 -434 434s-434 -194 -434 -434
s194 -434 434 -434zM500 842c255 0 462 -207 462 -462s-207 -462 -462 -462s-462 207 -462 462s207 462 462 462z" />
    <glyph glyph-name="Identity.454" unicode="&#x3275;" horiz-adv-x="1000" 
d="M349 220c74 0 119 83 119 201c0 117 -45 201 -119 201c-73 0 -118 -84 -118 -201c0 -118 45 -201 118 -201zM349 668c104 0 170 -96 170 -247c0 -152 -66 -247 -170 -247c-103 0 -169 95 -169 247c0 151 66 247 169 247zM699 442h133v-47h-133v-368h-54v715h54v-300z
M500 -54c240 0 434 194 434 434s-194 434 -434 434s-434 -194 -434 -434s194 -434 434 -434zM500 842c255 0 462 -207 462 -462s-207 -462 -462 -462s-462 207 -462 462s207 462 462 462z" />
    <glyph glyph-name="Identity.455" unicode="&#x3276;" horiz-adv-x="1000" 
d="M401 602v-87c0 -114 69 -232 183 -281l-31 -39c-88 40 -150 119 -177 210c-28 -91 -90 -170 -178 -210l-31 40c114 48 183 166 183 280v87h-159v47h370v-47h-160zM709 440h132v-46h-132v-367h-53v715h53v-302zM500 -54c240 0 434 194 434 434s-194 434 -434 434
s-434 -194 -434 -434s194 -434 434 -434zM500 842c255 0 462 -207 462 -462s-207 -462 -462 -462s-462 207 -462 462s207 462 462 462z" />
    <glyph glyph-name="Identity.456" unicode="&#x3277;" horiz-adv-x="1000" 
d="M396 523v-54c0 -101 69 -205 181 -248l-30 -42c-88 36 -149 106 -178 188c-28 -82 -90 -152 -178 -188l-29 42c112 43 182 147 182 248v54h-158v46h157v118h53v-118h149v-46h-149zM709 440h132v-46h-132v-367h-54v715h54v-302zM500 -54c240 0 434 194 434 434
s-194 434 -434 434s-434 -194 -434 -434s194 -434 434 -434zM500 842c255 0 462 -207 462 -462s-207 -462 -462 -462s-462 207 -462 462s207 462 462 462z" />
    <glyph glyph-name="Identity.457" unicode="&#x3278;" horiz-adv-x="1000" 
d="M217 642h308c0 -203 -88 -385 -307 -505l-37 36c124 65 203 150 248 247l-247 -25l-12 48l276 21c15 42 23 86 26 131h-255v47zM708 422h133v-47h-133v-348h-53v715h53v-320zM500 -54c240 0 434 194 434 434s-194 434 -434 434s-434 -194 -434 -434s194 -434 434 -434z
M500 842c255 0 462 -207 462 -462s-207 -462 -462 -462s-462 207 -462 462s207 462 462 462z" />
    <glyph glyph-name="Identity.458" unicode="&#x3279;" horiz-adv-x="1000" 
d="M238 239h2c135 0 227 4 341 27l6 -48c-117 -22 -209 -27 -347 -27h-56v474h336v-48h-282v-159h258v-46h-258v-173zM708 440h133v-46h-133v-367h-53v715h53v-302zM500 -54c240 0 434 194 434 434s-194 434 -434 434s-434 -194 -434 -434s194 -434 434 -434zM500 842
c255 0 462 -207 462 -462s-207 -462 -462 -462s-462 207 -462 462s207 462 462 462z" />
    <glyph glyph-name="Identity.459" unicode="&#x327a;" horiz-adv-x="1000" 
d="M305 592v-357c42 1 86 2 129 5v352h-129zM484 592v-350c42 3 83 7 120 11l2 -40c-144 -23 -338 -27 -461 -27l-7 47c34 0 74 0 117 1v358h-87v46h401v-46h-85zM718 440h127v-46h-127v-367h-54v715h54v-302zM500 -54c240 0 434 194 434 434s-194 434 -434 434
s-434 -194 -434 -434s194 -434 434 -434zM500 842c255 0 462 -207 462 -462s-207 -462 -462 -462s-462 207 -462 462s207 462 462 462z" />
    <glyph glyph-name="Identity.460" unicode="&#x327b;" horiz-adv-x="1000" 
d="M375 211c68 0 120 48 120 111s-52 111 -120 111c-69 0 -120 -48 -120 -111s51 -111 120 -111zM375 474c95 0 167 -62 167 -152s-72 -152 -167 -152s-168 62 -168 152s73 152 168 152zM405 693v-110h184v-46h-427v46h189v110h54zM717 440h127v-46h-127v-367h-54v715h54
v-302zM500 -54c240 0 434 194 434 434s-194 434 -434 434s-434 -194 -434 -434s194 -434 434 -434zM500 842c255 0 462 -207 462 -462s-207 -462 -462 -462s-462 207 -462 462s207 462 462 462z" />
    <glyph glyph-name="Identity.461" unicode="&#x327e;" horiz-adv-x="1000" 
d="M500 661c-121 0 -199 -44 -199 -112s78 -112 199 -112s199 44 199 112s-78 112 -199 112zM500 394c-155 0 -252 58 -252 155s97 155 252 155s252 -58 252 -155s-97 -155 -252 -155zM163 322h674v-46h-310v-258h-54v258h-310v46zM500 -54c240 0 434 194 434 434
s-194 434 -434 434s-434 -194 -434 -434s194 -434 434 -434zM500 842c255 0 462 -207 462 -462s-207 -462 -462 -462s-462 207 -462 462s207 462 462 462z" />
    <glyph glyph-name="Identity.462" unicode="&#x327f;" horiz-adv-x="1000" 
d="M38 365v15c0 255 207 462 462 462c233 0 426 -172 457 -396h-28c-31 208 -211 368 -429 368c-237 0 -426 -188 -434 -419h173v-30h-201zM326 129v514h57v-267h2l249 267h65l-176 -194l198 -320h-63l-171 281l-104 -108v-173h-57zM500 -82c-233 0 -426 171 -458 396h28
c32 -208 212 -368 430 -368c235 0 425 186 433 419h-251v30h280v-15c0 -257 -209 -462 -462 -462z" />
    <glyph glyph-name="Identity.463" unicode="&#x3380;" horiz-adv-x="1000" 
d="M139 410v-309c42 -52 81 -63 109 -63c77 0 136 93 136 236c0 130 -33 221 -122 221c-37 0 -78 -24 -123 -85zM136 467h2c38 47 87 78 136 78c114 0 172 -104 172 -271c0 -184 -88 -288 -191 -288c-37 0 -78 18 -117 63l1 -96v-172h-59v752h49zM657 293h185l-32 131
c-21 86 -40 162 -58 250h-4c-18 -88 -38 -164 -59 -250zM912 0l-58 243h-209l-59 -243h-57l182 730h78l182 -730h-59z" />
    <glyph glyph-name="Identity.464" unicode="&#x3381;" horiz-adv-x="1000" 
d="M132 454h4c45 52 96 91 160 91c99 0 140 -64 140 -198v-347h-59v341c0 104 -24 153 -96 153c-51 0 -93 -31 -144 -94v-400h-59v533h48zM657 293h185l-32 131c-21 86 -40 162 -58 250h-4c-18 -88 -38 -164 -59 -250zM912 0l-58 243h-209l-59 -243h-57l182 730h78l182 -730
h-59z" />
    <glyph glyph-name="Identity.465" unicode="&#x3382;" horiz-adv-x="1000" 
d="M359 533h61c-3 -151 -5 -308 -5 -452c0 -31 9 -43 22 -43c4 0 8 0 16 2l8 -47c-8 -4 -20 -7 -35 -7c-39 0 -59 28 -60 108h-3c-34 -74 -84 -105 -138 -105c-43 0 -82 12 -104 54c1 -115 1 -160 7 -246h-64v736h60v-350c0 -92 33 -144 102 -144c40 0 88 17 133 118v376z
M657 293h185l-32 131c-21 86 -40 162 -58 250h-4c-18 -88 -38 -164 -59 -250zM912 0l-58 243h-209l-59 -243h-57l182 730h78l182 -730h-59z" />
    <glyph glyph-name="Identity.466" unicode="&#x3383;" horiz-adv-x="1000" 
d="M100 468h4c22 48 50 77 98 77c45 0 67 -33 76 -83c21 50 52 83 97 83c56 0 89 -48 89 -142v-403h-54v395c0 68 -19 99 -51 99c-33 0 -54 -30 -76 -87v-407h-49v395c0 63 -14 99 -49 99c-31 0 -55 -30 -79 -87v-407h-53v533h43zM657 293h185l-32 131
c-21 86 -40 162 -58 250h-4c-18 -88 -38 -164 -59 -250zM912 0l-58 243h-209l-59 -243h-57l182 730h78l182 -730h-59z" />
    <glyph glyph-name="Identity.467" unicode="&#x3384;" horiz-adv-x="1000" 
d="M452 533l-160 -212l179 -321h-62l-153 278l-105 -135v-143h-59v766h59v-544h2l236 311h63zM657 293h185l-32 131c-21 86 -40 162 -58 250h-4c-18 -88 -38 -164 -59 -250zM912 0l-58 243h-209l-59 -243h-57l182 730h78l182 -730h-59z" />
    <glyph glyph-name="Identity.468" unicode="&#x3388;" horiz-adv-x="1000" 
d="M501 -13c-61 0 -103 47 -103 145c0 119 71 176 212 202c0 81 -17 163 -79 163c-38 0 -70 -31 -95 -59l-27 41c32 28 78 67 131 67c81 0 121 -88 121 -205v-341h-42l-5 59h-2c-32 -43 -70 -72 -111 -72zM516 37c32 0 62 25 94 71v184c-119 -24 -162 -73 -162 -155
c0 -73 30 -100 68 -100zM890 -14c-58 0 -91 42 -91 135v595h-90v50h142v-651c0 -52 18 -77 45 -77c15 0 24 3 37 11l14 -48c-20 -11 -33 -15 -57 -15zM213 -13c-96 0 -167 102 -167 279c0 178 78 280 168 280c44 0 77 -26 101 -54l-27 -39c-20 24 -44 44 -72 44
c-67 0 -117 -95 -117 -231s46 -228 118 -228c32 0 61 20 82 47l22 -39c-28 -34 -68 -59 -108 -59z" />
    <glyph glyph-name="Identity.469" unicode="&#x3389;" horiz-adv-x="1000" 
d="M39 0v766h45v-526h4l115 293h49l-82 -214l89 -319h-47l-71 272l-57 -132v-140h-45zM424 -13c-71 0 -128 94 -128 279c0 186 62 280 131 280c38 0 63 -22 84 -46l-25 -36c-16 20 -33 36 -56 36c-50 0 -86 -88 -86 -234c0 -149 35 -232 85 -232c26 0 46 18 64 40l23 -36
c-25 -30 -57 -51 -92 -51zM633 -13c-53 0 -86 44 -86 135c0 125 75 185 162 212c1 92 -13 167 -58 167c-29 0 -52 -23 -71 -42l-23 38c25 22 61 49 101 49c64 0 96 -77 96 -203v-343h-36l-4 59h-1c-19 -42 -43 -72 -80 -72zM646 33c19 0 44 25 63 72v187
c-69 -26 -118 -78 -118 -165c0 -68 22 -94 55 -94zM917 -14c-47 0 -73 39 -73 127v607h-74v46h120v-660c0 -48 14 -71 38 -71c11 0 21 3 35 14l11 -45c-20 -12 -34 -18 -57 -18z" />
    <glyph glyph-name="Identity.470" unicode="&#x338a;" horiz-adv-x="1000" 
d="M80 -219v752h49l7 -66h2c38 47 87 78 136 78c114 0 172 -104 172 -271c0 -184 -88 -288 -191 -288c-37 0 -78 18 -117 63l1 -96v-172h-59zM248 38c77 0 136 93 136 236c0 130 -33 221 -122 221c-37 0 -78 -24 -123 -85v-309c42 -52 81 -63 109 -63zM614 0v730h331v-53
h-270v-280h229v-52h-229v-345h-61z" />
    <glyph glyph-name="Identity.471" unicode="&#x338b;" horiz-adv-x="1000" 
d="M78 0v533h48l6 -79h4c45 52 96 91 160 91c99 0 140 -64 140 -198v-347h-59v341c0 104 -24 153 -96 153c-51 0 -93 -31 -144 -94v-400h-59zM614 0v730h331v-53h-270v-280h229v-52h-229v-345h-61z" />
    <glyph glyph-name="Identity.472" unicode="&#x338c;" horiz-adv-x="1000" 
d="M64 -203v736h60v-350c0 -92 33 -144 102 -144c40 0 88 17 133 118v376h61c-3 -151 -5 -308 -5 -452c0 -31 9 -43 22 -43c4 0 8 0 16 2l8 -47c-8 -4 -20 -7 -35 -7c-39 0 -59 28 -60 108h-3c-34 -74 -84 -105 -138 -105c-43 0 -82 12 -104 54c1 -115 1 -160 7 -246h-64z
M614 0v730h331v-53h-270v-280h229v-52h-229v-345h-61z" />
    <glyph glyph-name="Identity.473" unicode="&#x338d;" horiz-adv-x="1000" 
d="M64 -203v736h60v-350c0 -92 33 -144 102 -144c40 0 88 17 133 118v376h61c-3 -151 -5 -308 -5 -452c0 -31 9 -43 22 -43c4 0 8 0 16 2l8 -47c-8 -4 -20 -7 -35 -7c-39 0 -59 28 -60 108h-3c-34 -74 -84 -105 -138 -105c-43 0 -82 12 -104 54c1 -115 1 -160 7 -246h-64z
M751 -250c-114 0 -190 55 -190 144c0 46 25 92 69 127v4c-26 17 -46 45 -46 86c0 47 27 84 53 101v4c-30 30 -55 73 -55 143c0 119 76 186 160 186c21 0 44 -4 61 -12h168v-47h-114c23 -30 41 -67 41 -129c0 -114 -71 -185 -154 -185c-23 0 -49 6 -71 19
c-21 -18 -35 -38 -35 -71c0 -38 20 -69 96 -69h66c116 0 171 -38 171 -122c0 -93 -85 -179 -220 -179zM742 215c54 0 101 51 101 144c0 94 -44 142 -101 142c-54 0 -101 -46 -101 -142c0 -93 49 -144 101 -144zM755 -206c97 0 156 64 156 126c0 58 -39 79 -115 79h-60
c-18 0 -35 1 -64 7c-40 -32 -56 -69 -56 -105c0 -64 51 -107 139 -107z" />
    <glyph glyph-name="Identity.474" unicode="&#x338e;" horiz-adv-x="1000" 
d="M53 0v533h43l4 -65h4c22 48 50 77 98 77c45 0 67 -33 76 -83c21 50 52 83 97 83c56 0 89 -48 89 -142v-403h-54v395c0 68 -19 99 -51 99c-33 0 -54 -30 -76 -87v-407h-49v395c0 63 -14 99 -49 99c-31 0 -55 -30 -79 -87v-407h-53zM751 -250c-114 0 -190 55 -190 144
c0 46 25 92 69 127v4c-26 17 -46 45 -46 86c0 47 27 84 53 101v4c-30 30 -55 73 -55 143c0 119 76 186 160 186c21 0 44 -4 61 -12h168v-47h-114c23 -30 41 -67 41 -129c0 -114 -71 -185 -154 -185c-23 0 -49 6 -71 19c-21 -18 -35 -38 -35 -71c0 -38 20 -69 96 -69h66
c116 0 171 -38 171 -122c0 -93 -85 -179 -220 -179zM742 215c54 0 101 51 101 144c0 94 -44 142 -101 142c-54 0 -101 -46 -101 -142c0 -93 49 -144 101 -144zM755 -206c97 0 156 64 156 126c0 58 -39 79 -115 79h-60c-18 0 -35 1 -64 7c-40 -32 -56 -69 -56 -105
c0 -64 51 -107 139 -107z" />
    <glyph glyph-name="Identity.475" unicode="&#x338f;" horiz-adv-x="1000" 
d="M92 0v766h59v-544h2l236 311h63l-160 -212l179 -321h-62l-153 278l-105 -135v-143h-59zM751 -250c-114 0 -190 55 -190 144c0 46 25 92 69 127v4c-26 17 -46 45 -46 86c0 47 27 84 53 101v4c-30 30 -55 73 -55 143c0 119 76 186 160 186c21 0 44 -4 61 -12h168v-47h-114
c23 -30 41 -67 41 -129c0 -114 -71 -185 -154 -185c-23 0 -49 6 -71 19c-21 -18 -35 -38 -35 -71c0 -38 20 -69 96 -69h66c116 0 171 -38 171 -122c0 -93 -85 -179 -220 -179zM742 215c54 0 101 51 101 144c0 94 -44 142 -101 142c-54 0 -101 -46 -101 -142
c0 -93 49 -144 101 -144zM755 -206c97 0 156 64 156 126c0 58 -39 79 -115 79h-60c-18 0 -35 1 -64 7c-40 -32 -56 -69 -56 -105c0 -64 51 -107 139 -107z" />
    <glyph glyph-name="Identity.476" unicode="&#x3390;" horiz-adv-x="1000" 
d="M67 0v730h60v-317h246v317h60v-730h-60v360h-246v-360h-60zM559 0v30l302 454h-268v49h339v-32l-299 -452h310v-49h-384z" />
    <glyph glyph-name="Identity.477" unicode="&#x3391;" horiz-adv-x="1000" 
d="M92 0v766h52v-502h2l145 269h57l-110 -204l128 -329h-55l-105 285l-62 -111v-174h-52zM413 0v730h55v-317h165v317h54v-730h-54v360h-165v-360h-55zM738 0v30l179 454h-148v49h206v-32l-178 -452h180v-49h-239z" />
    <glyph glyph-name="Identity.478" unicode="&#x3392;" horiz-adv-x="1000" 
d="M66 0v730h63l67 -334l13 -84h4l13 84l67 334h63v-730h-50v431c0 52 5 157 8 209h-4l-31 -167l-51 -251h-35l-51 251l-34 167h-4c3 -52 10 -157 10 -209v-431h-48zM433 0v730h51v-317h156v317h51v-730h-51v360h-156v-360h-51zM742 0v30l179 454h-147v49h203v-32l-179 -452
h181v-49h-237z" />
    <glyph glyph-name="Identity.479" unicode="&#x3393;" horiz-adv-x="1000" 
d="M227 -12c-108 0 -181 142 -181 377c0 236 75 377 189 377c55 0 86 -35 110 -66l-36 -40c-20 29 -39 52 -74 52c-81 0 -132 -120 -132 -322c0 -204 45 -325 124 -325c28 0 53 12 68 29v242h-96v52h150v-321c-31 -36 -68 -55 -122 -55zM415 0v730h55v-317h165v317h54v-730
h-54v360h-165v-360h-55zM739 0v30l179 454h-147v49h206v-32l-179 -452h181v-49h-240z" />
    <glyph glyph-name="Identity.480" unicode="&#x3394;" horiz-adv-x="1000" 
d="M172 0v680h-139v50h331v-50h-138v-680h-54zM412 0v730h54v-317h165v317h54v-730h-54v360h-165v-360h-54zM736 0v30l179 454h-147v49h205v-32l-178 -452h180v-49h-239z" />
    <glyph glyph-name="Identity.481" unicode="&#x3395;" horiz-adv-x="1000" 
d="M359 533h61c-3 -151 -5 -308 -5 -452c0 -31 9 -43 22 -43c4 0 8 0 16 2l8 -47c-8 -4 -20 -7 -35 -7c-39 0 -59 28 -60 108h-3c-34 -74 -84 -105 -138 -105c-43 0 -82 12 -104 54c1 -115 1 -160 7 -246h-64v736h60v-350c0 -92 33 -144 102 -144c40 0 88 17 133 118v376z
M733 595v-267c66 95 106 206 106 316c0 84 -21 116 -49 116c-30 0 -57 -52 -57 -165zM886 87l25 -38c-26 -29 -63 -63 -111 -63c-70 0 -129 67 -130 194c-14 -12 -29 -25 -44 -36l-28 39c25 20 50 43 72 67v331c0 164 52 227 119 227c62 0 109 -56 109 -162
c0 -142 -64 -287 -165 -402v-47c0 -117 34 -159 77 -159c33 0 55 23 76 49z" />
    <glyph glyph-name="Identity.482" unicode="&#x3396;" horiz-adv-x="1000" 
d="M100 468h4c22 48 50 77 98 77c45 0 67 -33 76 -83c21 50 52 83 97 83c56 0 89 -48 89 -142v-403h-54v395c0 68 -19 99 -51 99c-33 0 -54 -30 -76 -87v-407h-49v395c0 63 -14 99 -49 99c-31 0 -55 -30 -79 -87v-407h-53v533h43zM733 595v-267c66 95 106 206 106 316
c0 84 -21 116 -49 116c-30 0 -57 -52 -57 -165zM886 87l25 -38c-26 -29 -63 -63 -111 -63c-70 0 -129 67 -130 194c-14 -12 -29 -25 -44 -36l-28 39c25 20 50 43 72 67v331c0 164 52 227 119 227c62 0 109 -56 109 -162c0 -142 -64 -287 -165 -402v-47
c0 -117 34 -159 77 -159c33 0 55 23 76 49z" />
    <glyph glyph-name="Identity.483" unicode="&#x3397;" horiz-adv-x="1000" 
d="M361 121v310c-37 51 -70 64 -108 64c-75 0 -138 -96 -138 -229c0 -140 45 -228 127 -228c41 0 79 24 119 83zM361 580v186h59v-766h-51l-5 67h-2c-33 -48 -76 -81 -130 -81c-107 0 -178 97 -178 280c0 174 87 279 192 279c47 0 78 -18 117 -63zM733 595v-267
c66 95 106 206 106 316c0 84 -21 116 -49 116c-30 0 -57 -52 -57 -165zM886 87l25 -38c-26 -29 -63 -63 -111 -63c-70 0 -129 67 -130 194c-14 -12 -29 -25 -44 -36l-28 39c25 20 50 43 72 67v331c0 164 52 227 119 227c62 0 109 -56 109 -162c0 -142 -64 -287 -165 -402
v-47c0 -117 34 -159 77 -159c33 0 55 23 76 49z" />
    <glyph glyph-name="Identity.484" unicode="&#x3398;" horiz-adv-x="1000" 
d="M452 533l-160 -212l179 -321h-62l-153 278l-105 -135v-143h-59v766h59v-544h2l236 311h63zM733 595v-267c66 95 106 206 106 316c0 84 -21 116 -49 116c-30 0 -57 -52 -57 -165zM886 87l25 -38c-26 -29 -63 -63 -111 -63c-70 0 -129 67 -130 194c-14 -12 -29 -25 -44 -36
l-28 39c25 20 50 43 72 67v331c0 164 52 227 119 227c62 0 109 -56 109 -162c0 -142 -64 -287 -165 -402v-47c0 -117 34 -159 77 -159c33 0 55 23 76 49z" />
    <glyph glyph-name="Identity.485" unicode="&#x3399;" horiz-adv-x="1000" 
d="M204 533v66c0 118 59 179 164 179c39 0 83 -12 111 -27l-19 -46c-27 17 -61 24 -89 24c-72 0 -108 -49 -108 -133v-63h174v-49h-174v-484h-59v484h-117v43zM600 468h4c22 48 50 77 98 77c45 0 67 -33 76 -83c21 50 52 83 97 83c56 0 89 -48 89 -142v-403h-54v395
c0 68 -19 99 -51 99c-33 0 -54 -30 -76 -87v-407h-49v395c0 63 -14 99 -49 99c-31 0 -55 -30 -79 -87v-407h-53v533h43z" />
    <glyph glyph-name="Identity.486" unicode="&#x339a;" horiz-adv-x="1000" 
d="M78 0v533h48l6 -79h4c45 52 96 91 160 91c99 0 140 -64 140 -198v-347h-59v341c0 104 -24 153 -96 153c-51 0 -93 -31 -144 -94v-400h-59zM553 0v533h43l4 -65h4c22 48 50 77 98 77c45 0 67 -33 76 -83c21 50 52 83 97 83c56 0 89 -48 89 -142v-403h-54v395
c0 68 -19 99 -51 99c-33 0 -54 -30 -76 -87v-407h-49v395c0 63 -14 99 -49 99c-31 0 -55 -30 -79 -87v-407h-53z" />
    <glyph glyph-name="Identity.487" unicode="&#x339b;" horiz-adv-x="1000" 
d="M64 -203v736h60v-350c0 -92 33 -144 102 -144c40 0 88 17 133 118v376h61c-3 -151 -5 -308 -5 -452c0 -31 9 -43 22 -43c4 0 8 0 16 2l8 -47c-8 -4 -20 -7 -35 -7c-39 0 -59 28 -60 108h-3c-34 -74 -84 -105 -138 -105c-43 0 -82 12 -104 54c1 -115 1 -160 7 -246h-64z
M553 0v533h43l4 -65h4c22 48 50 77 98 77c45 0 67 -33 76 -83c21 50 52 83 97 83c56 0 89 -48 89 -142v-403h-54v395c0 68 -19 99 -51 99c-33 0 -54 -30 -76 -87v-407h-49v395c0 63 -14 99 -49 99c-31 0 -55 -30 -79 -87v-407h-53z" />
    <glyph glyph-name="Identity.488" unicode="&#x339c;" horiz-adv-x="1000" 
d="M56 0v533h40l4 -65h4c22 48 50 77 98 77c45 0 67 -33 76 -83c21 50 51 83 95 83c56 0 88 -48 88 -142v-403h-51v395c0 68 -19 99 -51 99c-33 0 -54 -30 -76 -87v-407h-49v395c0 63 -14 99 -49 99c-31 0 -55 -30 -79 -87v-407h-50zM556 0v533h40l4 -65h4
c22 48 50 77 98 77c45 0 67 -33 76 -83c21 50 51 83 95 83c56 0 88 -48 88 -142v-403h-51v395c0 68 -19 99 -51 99c-33 0 -54 -30 -76 -87v-407h-49v395c0 63 -14 99 -49 99c-31 0 -55 -30 -79 -87v-407h-50z" />
    <glyph glyph-name="Identity.489" unicode="&#x339d;" horiz-adv-x="1000" 
d="M295 -13c-130 0 -231 102 -231 279c0 178 109 280 233 280c67 0 111 -31 146 -64l-33 -39c-30 31 -65 54 -110 54c-99 0 -175 -95 -175 -231s69 -228 174 -228c50 0 95 24 127 57l28 -39c-42 -41 -96 -69 -159 -69zM553 0v533h43l4 -65h4c22 48 50 77 98 77
c45 0 67 -33 76 -83c21 50 52 83 97 83c56 0 89 -48 89 -142v-403h-54v395c0 68 -19 99 -51 99c-33 0 -54 -30 -76 -87v-407h-49v395c0 63 -14 99 -49 99c-31 0 -55 -30 -79 -87v-407h-53z" />
    <glyph glyph-name="Identity.490" unicode="&#x339e;" horiz-adv-x="1000" 
d="M92 0v766h59v-544h2l236 311h63l-160 -212l179 -321h-62l-153 278l-105 -135v-143h-59zM553 0v533h43l4 -65h4c22 48 50 77 98 77c45 0 67 -33 76 -83c21 50 52 83 97 83c56 0 89 -48 89 -142v-403h-54v395c0 68 -19 99 -51 99c-33 0 -54 -30 -76 -87v-407h-49v395
c0 63 -14 99 -49 99c-31 0 -55 -30 -79 -87v-407h-53z" />
    <glyph glyph-name="Identity.491" unicode="&#x339f;" horiz-adv-x="1000" 
d="M56 0v533h40l4 -65h4c22 48 50 77 98 77c45 0 67 -33 76 -83c21 50 51 83 95 83c56 0 88 -48 88 -142v-403h-51v395c0 68 -19 99 -51 99c-33 0 -54 -30 -76 -87v-407h-49v395c0 63 -14 99 -49 99c-31 0 -55 -30 -79 -87v-407h-50zM556 0v450h40l4 -65h4
c22 48 50 77 98 77c45 0 67 -34 76 -83c21 50 51 83 95 83c56 0 88 -48 88 -142v-320h-51v311c0 68 -19 100 -51 100c-33 0 -54 -31 -76 -87v-324h-49v311c0 63 -14 100 -49 100c-31 0 -55 -31 -79 -87v-324h-50zM733 543v29c115 92 175 134 175 190c0 41 -24 66 -72 66
c-31 0 -61 -20 -81 -49l-31 26c29 37 71 65 117 65c73 0 117 -40 117 -104c0 -66 -63 -115 -145 -181h158v-42h-238z" />
    <glyph glyph-name="Identity.492" unicode="&#x33a0;" horiz-adv-x="1000" 
d="M295 -13c-130 0 -231 102 -231 279c0 178 109 280 233 280c67 0 111 -31 146 -64l-33 -39c-30 31 -65 54 -110 54c-99 0 -175 -95 -175 -231s69 -228 174 -228c50 0 95 24 127 57l28 -39c-42 -41 -96 -69 -159 -69zM553 0v450h43l4 -65h4c22 48 50 77 98 77
c45 0 67 -34 76 -83c21 50 52 83 97 83c56 0 89 -48 89 -142v-320h-54v311c0 68 -19 100 -51 100c-33 0 -54 -31 -76 -87v-324h-49v311c0 63 -14 100 -49 100c-31 0 -55 -31 -79 -87v-324h-53zM733 543v29c115 92 175 134 175 190c0 41 -24 66 -72 66c-31 0 -61 -20 -81 -49
l-31 26c29 37 71 65 117 65c73 0 117 -40 117 -104c0 -66 -63 -115 -145 -181h158v-42h-238z" />
    <glyph glyph-name="Identity.493" unicode="&#x33a1;" horiz-adv-x="1000" 
d="M147 0v450h48l7 -82h3c47 53 107 94 167 94c85 0 128 -40 147 -106c61 64 118 106 180 106c107 0 160 -68 160 -205v-257h-57v250c0 110 -37 161 -116 161c-47 0 -97 -31 -155 -95v-316h-57v250c0 110 -35 161 -114 161c-47 0 -99 -31 -155 -95v-316h-58zM708 543v29
c115 92 175 134 175 190c0 41 -24 66 -72 66c-31 0 -61 -20 -81 -49l-31 26c29 37 71 65 117 65c73 0 117 -40 117 -104c0 -66 -64 -115 -146 -181h159v-42h-238z" />
    <glyph glyph-name="Identity.494" unicode="&#x33a2;" horiz-adv-x="1000" 
d="M92 0v766h59v-544h2l236 311h63l-160 -212l179 -321h-62l-153 278l-105 -135v-143h-59zM553 0v450h43l4 -65h4c22 48 50 77 98 77c45 0 67 -34 76 -83c21 50 52 83 97 83c56 0 89 -48 89 -142v-320h-54v311c0 68 -19 100 -51 100c-33 0 -54 -31 -76 -87v-324h-49v311
c0 63 -14 100 -49 100c-31 0 -55 -31 -79 -87v-324h-53zM733 543v29c115 92 175 134 175 190c0 41 -24 66 -72 66c-31 0 -61 -20 -81 -49l-31 26c29 37 71 65 117 65c73 0 117 -40 117 -104c0 -66 -63 -115 -145 -181h158v-42h-238z" />
    <glyph glyph-name="Identity.495" unicode="&#x33a3;" horiz-adv-x="1000" 
d="M56 0v533h40l4 -65h4c22 48 50 77 98 77c45 0 67 -33 76 -83c21 50 51 83 95 83c56 0 88 -48 88 -142v-403h-51v395c0 68 -19 99 -51 99c-33 0 -54 -30 -76 -87v-407h-49v395c0 63 -14 99 -49 99c-31 0 -55 -30 -79 -87v-407h-50zM556 0v450h40l4 -65h4
c22 48 50 77 98 77c45 0 67 -34 76 -83c21 50 51 83 95 83c56 0 88 -48 88 -142v-320h-51v311c0 68 -19 100 -51 100c-33 0 -54 -31 -76 -87v-324h-49v311c0 63 -14 100 -49 100c-31 0 -55 -31 -79 -87v-324h-50zM854 529c-52 0 -98 29 -130 66l26 30c24 -32 57 -56 101 -56
c41 0 68 18 68 55c0 40 -33 62 -103 62v33c60 0 90 27 90 61c0 28 -21 49 -65 49c-27 0 -61 -14 -84 -39l-24 28c27 32 70 52 113 52c66 0 113 -33 113 -86c0 -38 -21 -64 -70 -80c50 -9 79 -37 79 -80c0 -61 -49 -95 -114 -95z" />
    <glyph glyph-name="Identity.496" unicode="&#x33a4;" horiz-adv-x="1000" 
d="M295 -13c-130 0 -231 102 -231 279c0 178 109 280 233 280c67 0 111 -31 146 -64l-33 -39c-30 31 -65 54 -110 54c-99 0 -175 -95 -175 -231s69 -228 174 -228c50 0 95 24 127 57l28 -39c-42 -41 -96 -69 -159 -69zM553 0v450h43l4 -65h4c22 48 50 77 98 77
c45 0 67 -34 76 -83c21 50 52 83 97 83c56 0 89 -48 89 -142v-320h-54v311c0 68 -19 100 -51 100c-33 0 -54 -31 -76 -87v-324h-49v311c0 63 -14 100 -49 100c-31 0 -55 -31 -79 -87v-324h-53zM854 529c-52 0 -98 29 -130 66l26 30c24 -32 57 -56 101 -56c41 0 68 18 68 55
c0 40 -33 62 -103 62v33c60 0 90 27 90 61c0 28 -21 49 -65 49c-27 0 -61 -14 -84 -39l-24 28c27 32 70 52 113 52c66 0 113 -33 113 -86c0 -38 -21 -64 -70 -80c50 -9 79 -37 79 -80c0 -61 -49 -95 -114 -95z" />
    <glyph glyph-name="Identity.497" unicode="&#x33a5;" horiz-adv-x="1000" 
d="M147 0v450h48l7 -82h3c47 53 107 94 167 94c85 0 128 -40 147 -106c61 64 118 106 180 106c107 0 160 -68 160 -205v-257h-57v250c0 110 -37 161 -116 161c-47 0 -97 -31 -155 -95v-316h-57v250c0 110 -35 161 -114 161c-47 0 -99 -31 -155 -95v-316h-58zM820 529
c-52 0 -98 29 -129 66l26 30c24 -32 56 -56 100 -56c41 0 69 18 69 55c0 40 -33 62 -103 62v33c60 0 89 27 89 61c0 28 -20 49 -65 49c-26 0 -61 -14 -84 -39l-24 28c27 32 70 52 113 52c66 0 113 -33 113 -86c0 -38 -21 -64 -69 -80c50 -9 79 -37 79 -80
c0 -61 -49 -95 -115 -95z" />
    <glyph glyph-name="Identity.498" unicode="&#x33a6;" horiz-adv-x="1000" 
d="M92 0v766h59v-544h2l236 311h63l-160 -212l179 -321h-62l-153 278l-105 -135v-143h-59zM553 0v450h43l4 -65h4c22 48 50 77 98 77c45 0 67 -34 76 -83c21 50 52 83 97 83c56 0 89 -48 89 -142v-320h-54v311c0 68 -19 100 -51 100c-33 0 -54 -31 -76 -87v-324h-49v311
c0 63 -14 100 -49 100c-31 0 -55 -31 -79 -87v-324h-53zM854 529c-52 0 -98 29 -130 66l26 30c24 -32 57 -56 101 -56c41 0 68 18 68 55c0 40 -33 62 -103 62v33c60 0 90 27 90 61c0 28 -21 49 -65 49c-27 0 -61 -14 -84 -39l-24 28c27 32 70 52 113 52
c66 0 113 -33 113 -86c0 -38 -21 -64 -70 -80c50 -9 79 -37 79 -80c0 -61 -49 -95 -114 -95z" />
    <glyph glyph-name="Identity.499" unicode="&#x33a7;" horiz-adv-x="1000" 
d="M47 0v533h41l4 -65h4c22 48 57 77 104 77c54 0 72 -32 83 -83c23 50 57 83 105 83c60 0 94 -46 94 -139v-406h-50v395c0 68 -23 99 -60 99s-60 -30 -84 -87v-407h-46v395c0 63 -11 99 -57 99c-31 0 -64 -30 -87 -87v-407h-51zM526 -177l135 963h43l-135 -963h-43z
M834 -13c-55 0 -103 30 -138 71l28 40c33 -37 64 -63 112 -63c54 0 81 41 81 90c0 141 -204 124 -204 288c0 73 47 133 127 133c46 0 84 -22 114 -53l-28 -39c-26 25 -50 45 -86 45c-53 0 -77 -42 -77 -84c0 -131 205 -108 205 -286c0 -77 -48 -142 -134 -142z" />
    <glyph glyph-name="Identity.500" unicode="&#x33a8;" horiz-adv-x="1000" 
d="M47 0v533h41l4 -65h4c22 48 57 77 104 77c54 0 72 -32 83 -83c23 50 57 83 105 83c60 0 94 -46 94 -139v-406h-50v395c0 68 -23 99 -60 99s-60 -30 -84 -87v-407h-46v395c0 63 -11 99 -57 99c-31 0 -64 -30 -87 -87v-407h-51zM523 -177l135 963h43l-135 -963h-43z
M733 543v29c115 92 175 134 175 190c0 41 -24 66 -72 66c-31 0 -61 -20 -81 -49l-31 26c29 37 71 65 117 65c73 0 117 -40 117 -104c0 -66 -63 -115 -145 -181h158v-42h-238zM838 -13c-57 0 -106 30 -142 71l28 40c32 -35 64 -63 114 -63c53 0 81 32 81 72
c0 116 -206 105 -206 245c0 61 47 111 127 111c47 0 86 -23 117 -54l-27 -38c-27 26 -51 44 -88 44c-54 0 -78 -32 -78 -64c0 -108 207 -92 207 -243c0 -66 -47 -121 -133 -121z" />
    <glyph glyph-name="Identity.501" unicode="&#x33a9;" horiz-adv-x="1000" 
d="M86 0v730h142c165 0 251 -54 251 -206c0 -146 -86 -216 -251 -216h-82v-308h-60zM146 358h69c140 0 203 50 203 166c0 117 -63 155 -203 155h-69v-321zM701 -13c-85 0 -150 47 -150 145c0 119 103 174 315 202c1 81 -25 163 -120 163c-61 0 -113 -32 -146 -61l-26 43
c37 29 103 67 180 67c119 0 170 -88 170 -205v-341h-49l-6 69h-2c-46 -49 -106 -82 -166 -82zM714 37c51 0 101 26 152 81v174c-192 -26 -257 -73 -257 -155c0 -73 47 -100 105 -100z" />
    <glyph glyph-name="Identity.502" unicode="&#x33aa;" horiz-adv-x="1000" 
d="M61 0v766h51v-502h3l144 269h57l-110 -204l128 -329h-55l-105 285l-62 -111v-174h-51zM407 0v730h85c106 0 167 -54 167 -206c0 -146 -61 -216 -167 -216h-33v-308h-52zM459 356h26c84 0 121 51 121 168c0 118 -37 157 -121 157h-26v-325zM794 -13
c-60 0 -107 47 -107 145c0 110 75 170 211 202c0 98 -16 163 -77 163c-38 0 -68 -32 -91 -54l-25 42c29 24 74 61 125 61c81 0 119 -70 119 -203v-343h-42l-4 60h-3c-27 -43 -57 -73 -106 -73zM808 37c35 0 58 27 90 73v182c-116 -29 -161 -81 -161 -155
c0 -73 34 -100 71 -100z" />
    <glyph glyph-name="Identity.503" unicode="&#x33ab;" horiz-adv-x="1000" 
d="M49 0v730h66l64 -337l11 -82h3l12 82l63 337h66v-730h-50v437c0 52 5 151 7 203h-3l-30 -170l-49 -252h-35l-50 252l-32 170h-4c3 -52 9 -151 9 -203v-437h-48zM413 0v730h83c106 0 166 -54 166 -206c0 -146 -60 -216 -166 -216h-32v-308h-51zM464 356h26
c84 0 121 51 121 168c0 118 -37 157 -121 157h-26v-325zM796 -13c-59 0 -105 47 -105 145c0 110 73 170 209 202c0 98 -17 163 -77 163c-38 0 -68 -32 -89 -54l-26 42c29 24 73 61 124 61c79 0 117 -68 117 -201v-345h-40l-5 60h-2c-27 -43 -58 -73 -106 -73zM810 37
c35 0 58 27 90 73v182c-116 -29 -162 -81 -162 -155c0 -73 35 -100 72 -100z" />
    <glyph glyph-name="Identity.504" unicode="&#x33ac;" horiz-adv-x="1000" 
d="M212 -12c-108 0 -179 142 -179 377c0 236 74 377 187 377c55 0 86 -35 110 -66l-36 -38c-20 29 -39 52 -74 52c-80 0 -131 -119 -131 -324c0 -206 45 -327 123 -327c28 0 54 12 68 29v244h-94v52h148v-321c-31 -36 -68 -55 -122 -55zM421 0v730h83
c107 0 167 -54 167 -206c0 -146 -59 -216 -165 -216h-33v-308h-52zM473 356h26c83 0 120 51 120 168c0 118 -37 157 -120 157h-26v-325zM794 -13c-60 0 -107 47 -107 145c0 110 75 170 211 202c0 98 -16 163 -77 163c-38 0 -68 -32 -91 -54l-25 42c29 24 74 61 125 61
c81 0 119 -70 119 -203v-343h-42l-4 60h-3c-27 -43 -57 -73 -106 -73zM808 37c35 0 58 27 90 73v182c-116 -29 -161 -81 -161 -155c0 -73 34 -100 71 -100z" />
    <glyph glyph-name="Identity.505" unicode="&#x33ad;" horiz-adv-x="1000" 
d="M81 0v533h42l5 -96h1c27 61 68 108 117 108c24 0 39 -4 57 -17l-18 -50c-15 12 -23 14 -42 14c-41 0 -77 -34 -110 -123v-369h-52zM434 -13c-60 0 -107 47 -107 145c0 110 75 170 211 202c0 98 -16 163 -78 163c-39 0 -70 -32 -93 -54l-25 42c30 23 75 61 127 61
c81 0 121 -70 121 -203v-343h-42l-5 60h-3c-27 -43 -57 -73 -106 -73zM448 37c35 0 58 27 90 73v182c-115 -29 -161 -81 -161 -155c0 -73 34 -100 71 -100zM803 -14c-77 0 -128 97 -128 280c0 174 63 279 135 279c39 0 63 -16 86 -54l-2 89v186h51v-766h-42l-5 59h-1
c-20 -43 -50 -73 -94 -73zM815 38c32 0 56 25 79 78v320c-23 45 -42 59 -73 59c-52 0 -92 -96 -92 -229c0 -140 31 -228 86 -228z" />
    <glyph glyph-name="Identity.506" unicode="&#x33ae;" horiz-adv-x="1000" 
d="M56 0v533h34l2 -75h4c24 54 49 87 86 87c18 0 32 -4 46 -17l-20 -44c-8 8 -20 11 -30 11c-32 0 -56 -30 -79 -109v-386h-43zM307 -13c-45 0 -78 47 -78 136c0 117 58 174 143 210c0 111 -7 167 -49 167c-25 0 -44 -22 -61 -45l-24 34c20 25 57 57 92 57
c60 0 84 -75 84 -178v-368h-33l-4 49h-2c-18 -36 -32 -62 -68 -62zM313 33c25 0 43 33 59 73v187c-68 -35 -102 -85 -102 -169c0 -63 21 -91 43 -91zM544 -14c-60 0 -91 92 -91 280c0 179 41 279 93 279c22 0 40 -13 57 -46l-4 81v186h43v-766h-33l-4 51h-2
c-14 -39 -36 -65 -59 -65zM550 35c18 0 34 23 49 71v342c-14 38 -29 51 -45 51c-32 0 -57 -97 -57 -233c0 -143 19 -231 53 -231zM657 -177l135 963h39l-135 -963h-39zM875 -249c-39 0 -72 27 -98 62l22 38c24 -31 45 -55 77 -55c36 0 54 38 54 83c0 133 -140 171 -140 308
c0 68 34 123 90 123c34 0 60 -19 80 -44l-21 -37c-18 21 -35 37 -58 37c-35 0 -51 -38 -51 -76c0 -115 140 -147 140 -307c0 -72 -33 -132 -95 -132z" />
    <glyph glyph-name="Identity.507" unicode="&#x33af;" horiz-adv-x="1000" 
d="M56 0v533h34l2 -75h4c24 54 49 87 86 87c18 0 32 -4 46 -17l-20 -44c-8 8 -20 11 -30 11c-32 0 -56 -30 -79 -109v-386h-43zM307 -13c-45 0 -78 47 -78 136c0 117 58 174 143 210c0 111 -7 167 -49 167c-25 0 -44 -22 -61 -45l-24 34c20 25 57 57 92 57
c60 0 84 -75 84 -178v-368h-33l-4 49h-2c-18 -36 -32 -62 -68 -62zM313 33c25 0 43 33 59 73v187c-68 -35 -102 -85 -102 -169c0 -63 21 -91 43 -91zM544 -14c-60 0 -91 92 -91 280c0 179 41 279 93 279c22 0 40 -13 57 -46l-4 81v186h43v-766h-33l-4 51h-2
c-14 -39 -36 -65 -59 -65zM550 35c18 0 34 23 49 71v342c-14 38 -29 51 -45 51c-32 0 -57 -97 -57 -233c0 -143 19 -231 53 -231zM655 -177l135 963h40l-136 -963h-39zM875 -249c-39 0 -72 27 -98 62l22 36c24 -31 45 -55 77 -55c36 0 54 28 54 72c0 89 -140 131 -140 231
c0 65 34 110 90 110c34 0 60 -19 80 -44l-21 -35c-18 20 -35 36 -58 36c-35 0 -51 -28 -51 -65c0 -75 140 -119 140 -230c0 -69 -33 -118 -95 -118zM819 289v26c82 96 121 140 121 200c0 34 -12 56 -41 56c-23 0 -41 -20 -56 -48l-29 22c23 37 52 64 89 64
c53 0 79 -35 79 -92c0 -70 -44 -120 -99 -189h111v-39h-175z" />
    <glyph glyph-name="Identity.508" unicode="&#x33b0;" horiz-adv-x="1000" 
d="M80 -219v752h49l7 -66h2c38 47 87 78 136 78c114 0 172 -104 172 -271c0 -184 -88 -288 -191 -288c-37 0 -78 18 -117 63l1 -96v-172h-59zM248 38c77 0 136 93 136 236c0 130 -33 221 -122 221c-37 0 -78 -24 -123 -85v-309c42 -52 81 -63 109 -63zM755 -13
c-79 0 -146 33 -195 73l33 41c46 -37 91 -66 164 -66c80 0 121 46 121 100c0 65 -66 92 -127 115c-77 29 -165 62 -165 153c0 78 61 143 173 143c59 0 113 -24 153 -56l-31 -39c-36 26 -72 48 -123 48c-80 0 -115 -47 -115 -93c0 -59 61 -80 123 -104
c80 -31 171 -60 171 -163c0 -82 -65 -152 -182 -152z" />
    <glyph glyph-name="Identity.509" unicode="&#x33b1;" horiz-adv-x="1000" 
d="M78 0v533h48l6 -79h4c45 52 96 91 160 91c99 0 140 -64 140 -198v-347h-59v341c0 104 -24 153 -96 153c-51 0 -93 -31 -144 -94v-400h-59zM755 -13c-79 0 -146 33 -195 73l33 41c46 -37 91 -66 164 -66c80 0 121 46 121 100c0 65 -66 92 -127 115
c-77 29 -165 62 -165 153c0 78 61 143 173 143c59 0 113 -24 153 -56l-31 -39c-36 26 -72 48 -123 48c-80 0 -115 -47 -115 -93c0 -59 61 -80 123 -104c80 -31 171 -60 171 -163c0 -82 -65 -152 -182 -152z" />
    <glyph glyph-name="Identity.510" unicode="&#x33b2;" horiz-adv-x="1000" 
d="M64 -203v736h60v-350c0 -92 33 -144 102 -144c40 0 88 17 133 118v376h61c-3 -151 -5 -308 -5 -452c0 -31 9 -43 22 -43c4 0 8 0 16 2l8 -47c-8 -4 -20 -7 -35 -7c-39 0 -59 28 -60 108h-3c-34 -74 -84 -105 -138 -105c-43 0 -82 12 -104 54c1 -115 1 -160 7 -246h-64z
M755 -13c-79 0 -146 33 -195 73l33 41c46 -37 91 -66 164 -66c80 0 121 46 121 100c0 65 -66 92 -127 115c-77 29 -165 62 -165 153c0 78 61 143 173 143c59 0 113 -24 153 -56l-31 -39c-36 26 -72 48 -123 48c-80 0 -115 -47 -115 -93c0 -59 61 -80 123 -104
c80 -31 171 -60 171 -163c0 -82 -65 -152 -182 -152z" />
    <glyph glyph-name="Identity.511" unicode="&#x33b3;" horiz-adv-x="1000" 
d="M53 0v533h43l4 -65h4c22 48 50 77 98 77c45 0 67 -33 76 -83c21 50 52 83 97 83c56 0 89 -48 89 -142v-403h-54v395c0 68 -19 99 -51 99c-33 0 -54 -30 -76 -87v-407h-49v395c0 63 -14 99 -49 99c-31 0 -55 -30 -79 -87v-407h-53zM755 -13c-79 0 -146 33 -195 73l33 41
c46 -37 91 -66 164 -66c80 0 121 46 121 100c0 65 -66 92 -127 115c-77 29 -165 62 -165 153c0 78 61 143 173 143c59 0 113 -24 153 -56l-31 -39c-36 26 -72 48 -123 48c-80 0 -115 -47 -115 -93c0 -59 61 -80 123 -104c80 -31 171 -60 171 -163c0 -82 -65 -152 -182 -152z
" />
    <glyph glyph-name="Identity.512" unicode="&#x33b4;" horiz-adv-x="1000" 
d="M80 -219v752h49l7 -66h2c40 50 98 78 155 78c126 0 190 -104 190 -271c0 -184 -96 -288 -210 -288c-42 0 -93 14 -135 63l1 -96v-172h-59zM266 38c88 0 155 93 155 236c0 130 -38 221 -140 221c-44 0 -94 -20 -142 -85v-309c44 -56 94 -63 127 -63zM704 0l-184 730h62
l101 -420c22 -89 37 -157 57 -246h4c22 89 34 158 57 246l103 420h59l-183 -730h-76z" />
    <glyph glyph-name="Identity.513" unicode="&#x33b5;" horiz-adv-x="1000" 
d="M78 0v533h48l6 -79h4c46 54 101 91 168 91c106 0 149 -64 149 -198v-347h-59v341c0 104 -27 153 -105 153c-53 0 -99 -29 -152 -94v-400h-59zM704 0l-184 730h62l102 -420c22 -89 36 -157 56 -246h4c22 89 35 157 56 246l104 420h59l-183 -730h-76z" />
    <glyph glyph-name="Identity.514" unicode="&#x33b6;" horiz-adv-x="1000" 
d="M712 0l-175 730h62l94 -420l55 -246h5c22 89 35 157 55 246l96 420h59l-175 -730h-76zM64 -203v736h60v-350c0 -92 33 -144 102 -144c40 0 88 17 133 118v376h61c-3 -151 -5 -308 -5 -452c0 -31 9 -43 22 -43c4 0 8 0 16 2l8 -47c-8 -4 -20 -7 -35 -7
c-39 0 -59 28 -60 108h-3c-34 -74 -84 -105 -138 -105c-43 0 -82 12 -104 54c1 -115 1 -160 7 -246h-64z" />
    <glyph glyph-name="Identity.515" unicode="&#x33b7;" horiz-adv-x="1000" 
d="M712 0l-175 730h62l94 -420l55 -246h5c22 89 35 157 55 246l96 420h59l-175 -730h-76zM53 0v533h43l4 -65h4c22 48 50 77 98 77c45 0 67 -33 76 -83c21 50 52 83 97 83c56 0 89 -48 89 -142v-403h-54v395c0 68 -19 99 -51 99c-33 0 -54 -30 -76 -87v-407h-49v395
c0 63 -14 99 -49 99c-31 0 -55 -30 -79 -87v-407h-53z" />
    <glyph glyph-name="Identity.516" unicode="&#x33b8;" horiz-adv-x="1000" 
d="M92 0v766h59v-544h2l236 311h63l-160 -212l179 -321h-62l-153 278l-105 -135v-143h-59zM704 0l-184 730h62l101 -420c22 -89 37 -157 57 -246h4c22 89 36 157 57 246l103 420h59l-183 -730h-76z" />
    <glyph glyph-name="Identity.517" unicode="&#x33b9;" horiz-adv-x="1000" 
d="M712 0l-175 730h62l94 -420l55 -246h5c22 89 35 157 55 246l96 420h59l-175 -730h-76zM66 0v730h69l84 -329l29 -124h4l29 124l84 329h69v-730h-54v487c0 53 8 126 10 178h-4l-31 -136l-86 -327h-39l-86 327l-34 136h-4c2 -52 12 -125 12 -178v-487h-52z" />
    <glyph glyph-name="Identity.518" unicode="&#x33ba;" horiz-adv-x="1000" 
d="M80 -219v752h49l7 -66h2c38 47 87 78 136 78c114 0 172 -104 172 -271c0 -184 -88 -288 -191 -288c-37 0 -78 18 -117 63l1 -96v-172h-59zM248 38c77 0 136 93 136 236c0 130 -33 221 -122 221c-37 0 -78 -24 -123 -85v-309c42 -52 81 -63 109 -63zM592 0l-82 730h56
l49 -490c6 -60 10 -114 15 -173h4c11 59 20 113 32 173l60 300h52l60 -300c12 -59 21 -116 32 -173h4c3 57 10 113 15 173l47 490h52l-77 -730h-74l-65 338c-9 44 -13 87 -20 129h-4c-7 -42 -13 -85 -20 -129l-65 -338h-71z" />
    <glyph glyph-name="Identity.519" unicode="&#x33bb;" horiz-adv-x="1000" 
d="M78 0v533h48l6 -79h4c45 52 96 91 160 91c99 0 140 -64 140 -198v-347h-59v341c0 104 -24 153 -96 153c-51 0 -93 -31 -144 -94v-400h-59zM592 0l-82 730h56l49 -490c6 -60 10 -114 15 -173h4c11 59 20 113 32 173l60 300h52l60 -300c12 -59 21 -116 32 -173h4
c3 57 10 113 15 173l47 490h52l-77 -730h-74l-65 338c-9 44 -13 87 -20 129h-4c-7 -42 -13 -85 -20 -129l-65 -338h-71z" />
    <glyph glyph-name="Identity.520" unicode="&#x33bc;" horiz-adv-x="1000" 
d="M64 -203v736h60v-350c0 -92 33 -144 102 -144c40 0 88 17 133 118v376h61c-3 -151 -5 -308 -5 -452c0 -31 9 -43 22 -43c4 0 8 0 16 2l8 -47c-8 -4 -20 -7 -35 -7c-39 0 -59 28 -60 108h-3c-34 -74 -84 -105 -138 -105c-43 0 -82 12 -104 54c1 -115 1 -160 7 -246h-64z
M592 0l-82 730h56l49 -490c6 -60 10 -114 15 -173h4c11 59 20 113 32 173l60 300h52l60 -300c12 -59 21 -116 32 -173h4c3 57 10 113 15 173l47 490h52l-77 -730h-74l-65 338c-9 44 -13 87 -20 129h-4c-7 -42 -13 -85 -20 -129l-65 -338h-71z" />
    <glyph glyph-name="Identity.521" unicode="&#x33bd;" horiz-adv-x="1000" 
d="M53 0v533h43l4 -65h4c22 48 50 77 98 77c45 0 67 -33 76 -83c21 50 52 83 97 83c56 0 89 -48 89 -142v-403h-54v395c0 68 -19 99 -51 99c-33 0 -54 -30 -76 -87v-407h-49v395c0 63 -14 99 -49 99c-31 0 -55 -30 -79 -87v-407h-53zM592 0l-82 730h56l49 -490
c6 -60 10 -114 15 -173h4c11 59 20 113 32 173l60 300h52l60 -300c12 -59 21 -116 32 -173h4c3 57 10 113 15 173l47 490h52l-77 -730h-74l-65 338c-9 44 -13 87 -20 129h-4c-7 -42 -13 -85 -20 -129l-65 -338h-71z" />
    <glyph glyph-name="Identity.522" unicode="&#x33be;" horiz-adv-x="1000" 
d="M92 0v766h59v-544h2l236 311h63l-160 -212l179 -321h-62l-153 278l-105 -135v-143h-59zM592 0l-82 730h56l49 -490c6 -60 10 -114 15 -173h4c11 59 20 113 32 173l60 300h52l60 -300c12 -59 21 -116 32 -173h4c3 57 10 113 15 173l47 490h52l-77 -730h-74l-65 338
c-9 44 -13 87 -20 129h-4c-7 -42 -13 -85 -20 -129l-65 -338h-71z" />
    <glyph glyph-name="Identity.523" unicode="&#x33bf;" horiz-adv-x="1000" 
d="M66 0v730h69l84 -329l29 -124h4l29 124l84 329h69v-730h-54v487c0 53 8 126 10 178h-4l-31 -136l-86 -327h-39l-86 327l-34 136h-4c2 -52 12 -125 12 -178v-487h-52zM592 0l-82 730h56l49 -490c6 -60 10 -114 15 -173h4c11 59 20 113 32 173l60 300h52l60 -300
c12 -59 21 -116 32 -173h4c3 57 10 113 15 173l47 490h52l-77 -730h-74l-65 338c-9 44 -13 87 -20 129h-4c-7 -42 -13 -85 -20 -129l-65 -338h-71z" />
    <glyph glyph-name="Identity.524" unicode="&#x33c0;" horiz-adv-x="1000" 
d="M92 0v766h59v-544h2l236 311h63l-160 -212l179 -321h-62l-153 278l-105 -135v-143h-59zM524 0v50h107v4c-47 75 -91 192 -91 331c0 222 84 357 210 357s210 -135 210 -357c0 -139 -44 -256 -91 -331v-4h107v-50h-175v44c55 75 96 189 96 340c0 196 -56 304 -147 304
s-147 -108 -147 -304c0 -151 41 -265 96 -340v-44h-175z" />
    <glyph glyph-name="Identity.525" unicode="&#x33c1;" horiz-adv-x="1000" 
d="M66 0v730h69l84 -329l29 -124h4l29 124l84 329h69v-730h-54v487c0 53 8 126 10 178h-4l-31 -136l-86 -327h-39l-86 327l-34 136h-4c2 -52 12 -125 12 -178v-487h-52zM524 0v50h107v4c-47 75 -91 192 -91 331c0 222 84 357 210 357s210 -135 210 -357
c0 -139 -44 -256 -91 -331v-4h107v-50h-175v44c55 75 96 189 96 340c0 196 -56 304 -147 304s-147 -108 -147 -304c0 -151 41 -265 96 -340v-44h-175z" />
    <glyph glyph-name="Identity.526" unicode="&#x33c2;" horiz-adv-x="1000" 
d="M209 -13c-80 0 -142 47 -142 145c0 119 98 176 299 202c1 81 -23 163 -112 163c-57 0 -105 -33 -137 -61l-27 43c37 28 99 67 173 67c112 0 161 -88 161 -205v-341h-49l-6 69h-2c-46 -49 -100 -82 -158 -82zM222 37c49 0 94 28 144 81v174c-179 -24 -240 -73 -240 -155
c0 -73 43 -100 96 -100zM553 0v533h43l4 -65h4c22 48 50 77 98 77c45 0 67 -33 76 -83c21 50 52 83 97 83c56 0 89 -48 89 -142v-403h-54v395c0 68 -19 99 -51 99c-33 0 -54 -30 -76 -87v-407h-49v395c0 63 -14 99 -49 99c-31 0 -55 -30 -79 -87v-407h-53z" />
    <glyph glyph-name="Identity.527" unicode="&#x33c3;" horiz-adv-x="1000" 
d="M88 0v730h130c131 0 201 -56 201 -178c0 -76 -31 -136 -103 -159v-5c78 -15 137 -63 137 -176c0 -141 -84 -212 -231 -212h-134zM147 410h53c121 0 159 51 159 134c0 100 -45 135 -154 135h-58v-269zM147 49h64c121 0 182 50 182 163c0 102 -54 151 -174 151h-72v-314z
M858 -219v181l2 104c-34 -48 -79 -80 -131 -80c-108 0 -178 97 -178 280c0 174 87 279 192 279c48 0 79 -18 116 -63h2l8 51h47v-752h-58zM738 38c43 0 79 23 120 81v311c-38 52 -70 65 -108 65c-76 0 -138 -94 -138 -229c0 -142 45 -228 126 -228z" />
    <glyph glyph-name="Identity.528" unicode="&#x33c4;" horiz-adv-x="1000" 
d="M305 -13c-136 0 -241 102 -241 279c0 178 114 280 243 280c71 0 120 -30 156 -64l-33 -39c-31 33 -71 54 -120 54c-105 0 -185 -95 -185 -231s74 -228 185 -228c54 0 103 23 136 57l28 -39c-44 -42 -102 -69 -169 -69zM785 -13c-135 0 -241 102 -241 279
c0 178 113 280 243 280c72 0 120 -30 156 -64l-33 -39c-31 32 -71 54 -120 54c-104 0 -185 -95 -185 -231s74 -228 185 -228c54 0 103 23 136 57l28 -39c-43 -42 -102 -69 -169 -69z" />
    <glyph glyph-name="Identity.529" unicode="&#x33c5;" horiz-adv-x="1000" 
d="M305 -13c-136 0 -241 102 -241 279c0 178 114 280 243 280c71 0 120 -30 156 -64l-33 -39c-31 33 -71 54 -120 54c-105 0 -185 -95 -185 -231s74 -228 185 -228c54 0 103 23 136 57l28 -39c-44 -42 -102 -69 -169 -69zM712 -14c-119 0 -198 97 -198 280
c0 174 96 279 212 279c55 0 96 -14 137 -63l-2 98v186h59v-766h-51l-5 67h-2c-35 -50 -88 -81 -150 -81zM722 38c48 0 97 21 139 83v310c-40 55 -83 64 -128 64c-86 0 -158 -96 -158 -229c0 -140 53 -228 147 -228z" />
    <glyph glyph-name="Identity.530" unicode="&#x33c6;" horiz-adv-x="1000" 
d="M266 -177l135 963h43l-135 -963h-43zM490 0v766h45v-526h3l116 293h49l-82 -214l88 -319h-47l-70 272l-57 -132v-140h-45zM167 -12c-75 0 -136 124 -136 377c0 254 63 377 136 377c39 0 69 -33 88 -66l-29 -36c-16 30 -34 52 -59 52c-46 0 -88 -104 -88 -326
c0 -223 39 -328 90 -328c25 0 45 20 63 62l29 -32c-26 -51 -56 -80 -94 -80zM857 -209c47 0 77 64 77 128c0 59 -21 80 -60 80h-27c-10 0 -19 1 -31 7c-23 -32 -30 -70 -30 -107c0 -65 27 -108 71 -108zM853 -250c-61 0 -106 55 -106 144c0 46 13 92 41 126v5
c-20 16 -31 45 -31 86c0 47 16 83 31 101v4c-18 29 -32 73 -32 143c0 119 46 186 95 186c13 0 30 -4 41 -12h86v-47h-51c9 -30 17 -67 17 -129c0 -114 -43 -185 -91 -185c-12 0 -27 7 -40 19c-8 -19 -17 -39 -17 -71c0 -38 9 -69 52 -69h34c64 0 97 -38 97 -122
c0 -93 -49 -179 -126 -179zM851 212c29 0 52 51 52 147c0 97 -22 145 -52 145c-28 0 -51 -47 -51 -145c0 -96 24 -147 51 -147z" />
    <glyph glyph-name="Identity.531" unicode="&#x33c7;" horiz-adv-x="1000" 
d="M281 -12c-126 0 -225 124 -225 377c0 254 103 377 229 377c62 0 107 -38 138 -78l-38 -39c-26 38 -56 63 -99 63c-93 0 -170 -103 -170 -322c0 -220 72 -325 170 -325c46 0 79 25 113 74l38 -36c-42 -58 -90 -91 -156 -91zM656 -12c-97 0 -176 91 -176 278
c0 188 79 279 176 279c96 0 176 -91 176 -279c0 -187 -80 -278 -176 -278zM656 38c65 0 118 78 118 228c0 149 -52 230 -118 230s-118 -81 -118 -230c0 -150 52 -228 118 -228zM915 -12c-25 0 -48 19 -48 53c0 33 23 56 48 56s48 -23 48 -56c0 -34 -23 -53 -48 -53z" />
    <glyph glyph-name="Identity.532" unicode="&#x33c8;" horiz-adv-x="1000" 
d="M232 -14c-107 0 -178 97 -178 280c0 174 87 279 192 279c47 0 78 -18 117 -63l-2 98v186h59v-766h-51l-5 67h-2c-33 -48 -76 -81 -130 -81zM242 38c41 0 79 24 119 83v310c-37 51 -70 64 -108 64c-75 0 -138 -96 -138 -229c0 -140 45 -228 127 -228zM588 0v730h130
c131 0 201 -56 201 -178c0 -76 -31 -136 -103 -159v-5c78 -15 137 -63 137 -176c0 -141 -84 -212 -231 -212h-134zM647 410h53c121 0 159 51 159 134c0 100 -45 135 -154 135h-58v-269zM647 49h64c121 0 182 50 182 163c0 102 -54 151 -174 151h-72v-314z" />
    <glyph glyph-name="Identity.533" unicode="&#x33c9;" horiz-adv-x="1000" 
d="M298 -12c-149 0 -252 145 -252 377c0 233 105 377 258 377c83 0 135 -44 169 -88l-38 -39c-29 43 -69 73 -131 73c-117 0 -195 -123 -195 -322c0 -200 74 -325 191 -325c48 0 96 16 120 46v225h-132v52h190v-298c-41 -50 -101 -78 -180 -78zM613 -220c-24 0 -44 4 -58 12
l13 48c11 -7 25 -10 46 -10c50 0 84 50 105 116l13 42l-190 545h62l106 -327c14 -45 33 -105 48 -155h4c15 50 32 109 44 155l92 327h61l-181 -595c-33 -104 -84 -158 -165 -158z" />
    <glyph glyph-name="Identity.534" unicode="&#x33ca;" horiz-adv-x="1000" 
d="M78 0v766h59l-2 -203l-1 -112c47 52 98 94 162 94c99 0 140 -64 140 -198v-347h-59v341c0 104 -24 153 -96 153c-51 0 -93 -31 -144 -94v-400h-59zM709 -13c-80 0 -142 47 -142 145c0 119 98 176 299 202c1 81 -23 163 -112 163c-57 0 -105 -33 -137 -61l-27 43
c37 28 99 67 173 67c112 0 161 -88 161 -205v-341h-49l-6 69h-2c-46 -49 -100 -82 -158 -82zM722 37c49 0 94 28 144 81v174c-179 -24 -240 -73 -240 -155c0 -73 43 -100 96 -100z" />
    <glyph glyph-name="Identity.535" unicode="&#x33cf;" horiz-adv-x="1000" 
d="M92 0v766h59v-544h2l236 311h63l-160 -212l179 -321h-62l-153 278l-105 -135v-143h-59zM835 -12c-122 0 -159 75 -159 189v307h-119v45l121 4l7 154h50v-154h204v-49h-204v-311c0 -83 24 -136 109 -136c33 0 64 7 96 24l14 -45c-41 -19 -87 -28 -119 -28z" />
    <glyph glyph-name="Identity.536" unicode="&#x33d0;" horiz-adv-x="1000" 
d="M340 -14c-86 0 -130 52 -130 167v563h-143v50h202v-620c0 -74 28 -108 81 -108c25 0 49 6 78 24l17 -48c-36 -18 -64 -28 -105 -28zM553 0v533h43l4 -65h4c22 48 50 77 98 77c45 0 67 -33 76 -83c21 50 52 83 97 83c56 0 89 -48 89 -142v-403h-54v395c0 68 -19 99 -51 99
c-33 0 -54 -30 -76 -87v-407h-49v395c0 63 -14 99 -49 99c-31 0 -55 -30 -79 -87v-407h-53z" />
    <glyph glyph-name="Identity.537" unicode="&#x33d3;" horiz-adv-x="1000" 
d="M340 -14c-86 0 -130 52 -130 167v563h-143v50h202v-620c0 -74 28 -108 81 -108c25 0 49 6 78 24l17 -48c-36 -18 -64 -28 -105 -28zM552 0l161 277l-149 256h63l72 -130c15 -29 37 -67 53 -92h4c16 29 36 64 50 94l68 128h61l-151 -264l162 -269h-64l-78 135
c-17 31 -40 68 -58 100h-4c-18 -33 -37 -67 -54 -99l-74 -136h-62z" />
    <glyph glyph-name="Identity.538" unicode="&#x33d6;" horiz-adv-x="1000" 
d="M53 0v533h40l4 -65h4c22 48 46 77 93 77c44 0 62 -33 71 -83c21 50 48 83 92 83c55 0 84 -48 84 -142v-403h-50v395c0 68 -16 99 -49 99s-50 -30 -72 -87v-407h-46v395c0 63 -11 99 -45 99c-31 0 -52 -30 -76 -87v-407h-50zM635 -12c-79 0 -130 91 -130 278
c0 188 51 279 130 279c81 0 131 -91 131 -279c0 -187 -50 -278 -131 -278zM635 38c52 0 77 78 77 228c0 149 -25 230 -77 230c-51 0 -76 -81 -76 -230c0 -150 25 -228 76 -228zM916 -14c-52 0 -86 42 -86 135v595h-94v50h146v-651c0 -52 19 -77 40 -77c15 0 20 3 33 11
l13 -48c-20 -11 -29 -15 -52 -15z" />
    <glyph glyph-name="Identity.539" unicode="&#x33d8;" horiz-adv-x="1000" 
d="M80 -219v752h49l7 -66h2c38 47 87 78 136 78c114 0 172 -104 172 -271c0 -184 -88 -288 -191 -288c-37 0 -78 18 -117 63l1 -96v-172h-59zM248 38c77 0 136 93 136 236c0 130 -33 221 -122 221c-37 0 -78 -24 -123 -85v-309c42 -52 81 -63 109 -63zM553 0v533h43l4 -65h4
c22 48 50 77 98 77c45 0 67 -33 76 -83c21 50 52 83 97 83c56 0 89 -48 89 -142v-403h-54v395c0 68 -19 99 -51 99c-33 0 -54 -30 -76 -87v-407h-49v395c0 63 -14 99 -49 99c-31 0 -55 -30 -79 -87v-407h-53z" />
    <glyph glyph-name="Identity.540" unicode="&#x33db;" horiz-adv-x="1000" 
d="M255 -13c-79 0 -146 33 -195 73l33 41c46 -37 91 -66 164 -66c80 0 121 46 121 100c0 65 -66 92 -127 115c-77 29 -165 62 -165 153c0 78 61 143 173 143c59 0 113 -24 153 -56l-31 -39c-36 26 -72 48 -123 48c-80 0 -115 -47 -115 -93c0 -59 61 -80 123 -104
c80 -31 171 -60 171 -163c0 -82 -65 -152 -182 -152zM624 0v533h48l6 -116h2c46 73 107 128 187 128c34 0 56 -4 85 -17l-16 -52c-28 14 -42 16 -73 16c-67 0 -124 -40 -180 -143v-349h-59z" />
    <glyph glyph-name="Identity.541" unicode="&#x33dc;" horiz-adv-x="1000" 
d="M255 -12c-83 0 -151 43 -200 108l41 41c41 -58 98 -96 159 -96c78 0 131 53 131 130c0 82 -47 124 -104 160l-80 51c-68 42 -118 91 -118 186c0 101 73 174 175 174c72 0 130 -40 170 -88l-35 -40c-37 44 -78 74 -135 74c-66 0 -115 -46 -115 -116
c0 -68 32 -103 103 -148l78 -48c66 -42 122 -93 122 -200c0 -106 -74 -188 -192 -188zM716 0l-173 533h60l101 -327c16 -53 31 -105 44 -155h4c15 50 32 102 46 155l100 327h59l-172 -533h-69z" />
    <glyph glyph-name="Identity.542" unicode="&#x33dd;" horiz-adv-x="1000" 
d="M92 0l-82 730h56l49 -490c6 -60 10 -114 15 -173h4c11 59 20 113 32 173l60 300h52l60 -300c12 -59 21 -116 32 -173h4c3 57 10 113 15 173l47 490h52l-77 -730h-74l-65 338c-9 44 -13 87 -20 129h-4c-7 -42 -13 -85 -20 -129l-65 -338h-71zM755 -14
c-39 0 -81 19 -117 64h-3l-7 -50h-48v766h59v-198l-2 -101c39 49 89 78 137 78c114 0 172 -104 172 -271c0 -184 -86 -288 -191 -288zM748 38c77 0 136 93 136 236c0 130 -34 221 -122 221c-37 0 -79 -23 -123 -83v-310c38 -53 81 -64 109 -64z" />
    <glyph glyph-name="Identity.543" unicode="&#xac00;" 
d="M107 720h400c0 -242 -125 -471 -407 -612l-30 42c240 119 371 309 385 525h-348v45zM886 446v-46h-154v-470h-53v888h53v-372h154z" />
    <glyph glyph-name="Identity.544" unicode="&#xac01;" 
d="M97 758h404c0 -217 -161 -377 -419 -449l-21 43c226 63 372 192 384 361h-348v45zM172 207v44h569v-321h-53v277h-516zM880 582v-45h-139v-242h-53v524h53v-237h139z" />
    <glyph glyph-name="Identity.545" unicode="&#xac04;" 
d="M97 748h406c0 -223 -169 -393 -417 -476l-23 44c217 72 369 210 383 387h-349v45zM252 228v-231h533v-45h-586v276h53zM740 536h140v-46h-140v-330h-53v658h53v-282z" />
    <glyph glyph-name="Identity.546" unicode="&#xac07;" 
d="M98 758h404c0 -217 -160 -379 -419 -451l-22 44c228 63 372 193 384 362h-347v45zM246 212v-223h514v-45h-567v312h551v-44h-498zM741 588h139v-45h-139v-233h-53v509h53v-231z" />
    <glyph glyph-name="Identity.547" unicode="&#xac08;" 
d="M97 768h404c0 -214 -166 -364 -418 -427l-21 44c224 55 370 177 381 339h-346v44zM244 113v-130h533v-44h-585v218h497v116h-499v45h551v-205h-497zM741 606h139v-46h-139v-199h-53v457h53v-212z" />
    <glyph glyph-name="Identity.548" unicode="&#xac09;" 
d="M101 766h400c0 -216 -163 -366 -417 -433l-21 45c224 57 368 179 380 343h-342v45zM206 103v-118c122 0 196 2 291 20l5 -43c-98 -19 -173 -22 -298 -22h-49v204h230v108h-233v43h284v-192h-230zM475 250v45h266v-361h-53v316h-213zM880 601v-46h-139v-218h-53v481h53
v-217h139z" />
    <glyph glyph-name="Identity.549" unicode="&#xac0a;" 
d="M100 766h401c0 -216 -165 -365 -419 -428l-20 44c224 55 370 177 381 339h-343v45zM191 107v-121c104 0 164 1 242 16l6 -43c-84 -16 -147 -18 -257 -18h-42v208h220v103h-223v43h275v-188h-221zM519 253v-274h173v274h-173zM471 -63v358h270v-358h-270zM880 599v-45
h-139v-216h-53v480h53v-219h139z" />
    <glyph glyph-name="Identity.550" unicode="&#xac0b;" 
d="M100 770h401c0 -215 -165 -364 -419 -427l-20 44c224 55 370 177 381 338h-343v45zM190 107v-119c104 0 165 2 243 18l4 -43c-82 -16 -144 -18 -255 -18h-43v202h220v103h-222v44h274v-187h-221zM691 -12v146h-175v-146h175zM691 177v127h50v-360h-275v360h50v-127h175z
M880 606v-45h-139v-220h-53v477h53v-212h139z" />
    <glyph glyph-name="Identity.551" unicode="&#xac10;" 
d="M98 758h404c0 -217 -160 -379 -420 -452l-21 45c228 63 372 193 384 362h-347v45zM244 219v-230h444v230h-444zM191 -55v319h550v-319h-550zM880 589v-46h-139v-234h-53v510h53v-230h139z" />
    <glyph glyph-name="Identity.552" unicode="&#xac11;" 
d="M98 762h404c0 -216 -164 -369 -419 -434l-21 44c224 58 370 181 382 345h-346v45zM688 -12v135h-446v-135h446zM688 166v129h52v-351h-550v351h52v-129h446zM880 598v-46h-140v-214h-53v481h53v-221h140z" />
    <glyph glyph-name="Identity.553" unicode="&#xac12;" 
d="M99 762h403c0 -217 -163 -369 -419 -436l-21 46c224 57 370 180 382 345h-345v45zM403 -13v137h-193v-137h193zM403 167v121h51v-345h-294v345h50v-121h193zM685 297v-76c0 -88 56 -199 159 -246l-29 -41c-79 38 -131 109 -155 184c-26 -75 -79 -145 -159 -184l-30 41
c104 47 163 155 163 243v79h51zM741 601h139v-45h-139v-222h-53v485h53v-218z" />
    <glyph glyph-name="Identity.554" unicode="&#xac13;" 
d="M100 748h403c0 -221 -162 -388 -416 -468l-24 43c224 69 370 206 383 380h-346v45zM507 296v-47c0 -145 167 -240 305 -269l-22 -42c-123 28 -259 100 -309 215c-51 -117 -189 -190 -312 -218l-23 43c139 27 308 124 308 271v47h53zM772 559h108v-45h-108v-286h-53v592
h53v-261z" />
    <glyph glyph-name="Identity.555" unicode="&#xac14;" 
d="M99 758h404c0 -217 -161 -379 -421 -451l-20 44c227 63 371 193 383 362h-346v45zM667 284v-76c0 -93 77 -189 186 -227l-27 -41c-89 33 -155 101 -185 178c-25 -73 -81 -148 -165 -185c-87 35 -143 106 -167 183c-30 -74 -96 -142 -181 -176l-28 41
c108 40 187 141 187 227v76h50v-76c0 -84 48 -174 138 -222c91 53 141 152 141 222v76h51zM741 583h139v-45h-139v-219h-53v501h53v-237z" />
    <glyph glyph-name="Identity.556" unicode="&#xac15;" 
d="M98 748h405c0 -220 -164 -386 -419 -464l-22 44c223 69 370 202 383 375h-347v45zM466 -23c141 0 233 48 233 122c0 75 -92 123 -233 123c-139 0 -231 -48 -231 -123c0 -74 92 -122 231 -122zM466 266c175 0 285 -62 285 -167c0 -104 -110 -165 -285 -165
c-173 0 -283 61 -283 165c0 105 110 167 283 167zM741 575h139v-45h-139v-253h-53v541h53v-243z" />
    <glyph glyph-name="Identity.557" unicode="&#xac16;" 
d="M98 758h404c0 -217 -161 -377 -420 -448l-20 44c228 63 371 190 383 359h-347v45zM499 210v-4c0 -114 160 -206 291 -232l-22 -42c-118 25 -249 96 -296 194c-47 -99 -178 -169 -296 -194l-22 42c132 26 290 116 290 232v4h-259v44h573v-44h-259zM741 577h139v-45h-139
v-230h-53v518h53v-243z" />
    <glyph glyph-name="Identity.558" unicode="&#xac17;" 
d="M100 757h403c0 -216 -159 -372 -418 -440l-21 45c228 60 368 185 380 350h-344v45zM763 199h-266c2 -112 163 -204 293 -228l-22 -41c-118 25 -250 93 -298 191c-48 -98 -180 -166 -298 -191l-23 41c131 24 292 117 294 228h-266v44h266v116h53v-116h267v-44zM741 599
h139v-45h-139v-227h-53v491h53v-219z" />
    <glyph glyph-name="Identity.559" unicode="&#xac19;" 
d="M97 755h407c0 -215 -163 -369 -418 -435l-22 45c226 58 370 183 381 345h-348v45zM248 101v-114h519v-43h-572v351h551v-43h-498v-109h487v-42h-487zM741 599h139v-45h-139v-216h-53v480h53v-219z" />
    <glyph glyph-name="Identity.560" unicode="&#xac1a;" 
d="M101 757h403c0 -218 -177 -374 -420 -442l-22 45c215 60 370 186 383 352h-344v45zM368 224v-231h215v231h-215zM635 224v-231h143v-45h-603v45h141v231h-133v44h585v-44h-133zM741 593h139v-45h-139v-232h-53v502h53v-225z" />
    <glyph glyph-name="Identity.561" unicode="&#xac1b;" 
d="M98 762h405c0 -217 -162 -370 -421 -438l-19 45c227 59 370 183 381 348h-346v45zM478 -27c119 0 193 31 193 84c0 52 -74 85 -193 85s-194 -33 -194 -85c0 -53 75 -84 194 -84zM478 182c152 0 244 -45 244 -125s-92 -125 -244 -125s-244 45 -244 125s92 125 244 125z
M505 390v-114h281v-44h-615v44h281v114h53zM741 609h139v-45h-139v-218h-53v473h53v-210z" />
    <glyph glyph-name="Identity.562" unicode="&#xac1c;" 
d="M91 700h343c0 -214 -83 -432 -339 -574l-32 39c222 121 309 303 319 490h-291v45zM754 818h51v-888h-51v473h-147v-425h-51v816h51v-346h147v370z" />
    <glyph glyph-name="Identity.563" unicode="&#xac1d;" 
d="M101 749h343c0 -204 -126 -370 -346 -467l-29 39c192 83 309 220 321 384h-289v44zM216 202v45h584v-317h-53v272h-531zM749 817h51v-524h-51v246h-143v-240h-51v502h51v-217h143v233z" />
    <glyph glyph-name="Identity.564" unicode="&#xac20;" 
d="M606 490v-303h-51v614h51v-266h143v282h51v-662h-51v335h-143zM100 730h343c0 -206 -124 -373 -346 -472l-28 39c192 84 307 223 320 389h-289v44zM284 5h546v-44h-599v276h53v-232z" />
    <glyph glyph-name="Identity.565" unicode="&#xac23;" 
d="M606 543v-232h-51v491h51v-214h143v229h51v-512h-51v238h-143zM100 749h345c0 -204 -127 -367 -346 -462l-28 41c189 80 305 213 319 377h-290v44zM281 -11h536v-45h-588v301h577v-45h-525v-211z" />
    <glyph glyph-name="Identity.566" unicode="&#xac24;" 
d="M606 559v-196h-51v438h51v-197h143v214h51v-462h-51v203h-143zM103 764h341c0 -199 -128 -349 -346 -433l-27 41c192 70 305 191 318 347h-286v45zM280 -12h557v-44h-609v214h521v110h-523v44h574v-197h-520v-127z" />
    <glyph glyph-name="Identity.567" unicode="&#xac2c;" 
d="M100 749h345c0 -204 -127 -366 -346 -461l-29 40c190 81 306 213 320 377h-290v44zM281 213v-224h467v224h-467zM228 -55v312h572v-312h-572zM749 817h51v-510h-51v237h-143v-230h-51v487h51v-212h143v228z" />
    <glyph glyph-name="Identity.568" unicode="&#xac2d;" 
d="M102 755h342c0 -201 -123 -359 -346 -449l-27 40c192 77 305 204 318 364h-287v45zM749 -11v138h-466v-138h466zM749 171v121h51v-347h-569v347h52v-121h466zM749 817h51v-483h-51v214h-143v-207h-51v460h51v-208h143v224z" />
    </font>
</defs>
</svg>
