<svg width="808" height="401" viewBox="0 0 808 401" fill="none" xmlns="http://www.w3.org/2000/svg">
<path d="M283.602 97.1729L283.957 99.6104L284.478 97.4141L288.134 84.5156H290.19L293.758 97.4141L294.266 99.6484L294.659 97.1602L297.528 84.5156H299.979L295.497 103H293.275L289.467 89.5303L289.175 88.1211L288.883 89.5303L284.935 103H282.713L278.244 84.5156H280.682L283.602 97.1729ZM304.501 92.6152H306.266C307.374 92.5983 308.246 92.3063 308.881 91.7393C309.516 91.1722 309.833 90.4062 309.833 89.4414C309.833 87.2747 308.754 86.1914 306.596 86.1914C305.58 86.1914 304.768 86.4834 304.158 87.0674C303.557 87.6429 303.257 88.4089 303.257 89.3652H300.908C300.908 87.901 301.441 86.6865 302.508 85.7217C303.583 84.7484 304.945 84.2617 306.596 84.2617C308.339 84.2617 309.706 84.723 310.696 85.6455C311.687 86.568 312.182 87.8503 312.182 89.4922C312.182 90.2962 311.919 91.0749 311.395 91.8281C310.878 92.5814 310.172 93.1442 309.274 93.5166C310.29 93.8382 311.073 94.3714 311.623 95.1162C312.182 95.861 312.461 96.7708 312.461 97.8457C312.461 99.5046 311.919 100.821 310.836 101.794C309.753 102.767 308.343 103.254 306.608 103.254C304.873 103.254 303.46 102.784 302.368 101.845C301.285 100.905 300.743 99.6654 300.743 98.125H303.104C303.104 99.0983 303.422 99.877 304.057 100.461C304.691 101.045 305.542 101.337 306.608 101.337C307.743 101.337 308.61 101.041 309.211 100.448C309.812 99.8558 310.112 99.0052 310.112 97.8965C310.112 96.8216 309.782 95.9964 309.122 95.4209C308.462 94.8454 307.51 94.5492 306.266 94.5322H304.501V92.6152ZM328.892 97.1348C328.663 99.0898 327.939 100.601 326.721 101.667C325.51 102.725 323.898 103.254 321.884 103.254C319.7 103.254 317.948 102.471 316.628 100.905C315.316 99.3395 314.66 97.2448 314.66 94.6211V92.8438C314.66 91.1257 314.965 89.6149 315.574 88.3115C316.192 87.0081 317.064 86.0094 318.189 85.3154C319.315 84.613 320.618 84.2617 322.1 84.2617C324.063 84.2617 325.637 84.8118 326.822 85.9121C328.007 87.0039 328.697 88.5189 328.892 90.457H326.441C326.23 88.9844 325.769 87.918 325.058 87.2578C324.355 86.5977 323.369 86.2676 322.1 86.2676C320.542 86.2676 319.319 86.8431 318.431 87.9941C317.55 89.1452 317.11 90.7829 317.11 92.9072V94.6973C317.11 96.7031 317.529 98.2985 318.367 99.4834C319.205 100.668 320.377 101.261 321.884 101.261C323.238 101.261 324.275 100.956 324.994 100.347C325.722 99.7288 326.204 98.6582 326.441 97.1348H328.892ZM339.117 95.7637V103H336.68V84.5156H343.497C345.52 84.5156 347.103 85.0319 348.245 86.0645C349.396 87.097 349.972 88.4639 349.972 90.165C349.972 91.9593 349.409 93.3431 348.283 94.3164C347.166 95.2812 345.562 95.7637 343.472 95.7637H339.117ZM339.117 93.7705H343.497C344.8 93.7705 345.799 93.4658 346.493 92.8564C347.187 92.2386 347.534 91.3499 347.534 90.1904C347.534 89.0902 347.187 88.21 346.493 87.5498C345.799 86.8896 344.847 86.5469 343.637 86.5215H339.117V93.7705ZM350.914 96.0049C350.914 94.6592 351.176 93.4489 351.701 92.374C352.234 91.2992 352.971 90.4697 353.91 89.8857C354.858 89.3018 355.937 89.0098 357.147 89.0098C359.018 89.0098 360.529 89.6572 361.68 90.9521C362.839 92.2471 363.419 93.9694 363.419 96.1191V96.2842C363.419 97.6214 363.161 98.8232 362.645 99.8896C362.137 100.948 361.405 101.773 360.448 102.365C359.5 102.958 358.409 103.254 357.173 103.254C355.311 103.254 353.8 102.606 352.641 101.312C351.49 100.017 350.914 98.3027 350.914 96.1699V96.0049ZM353.275 96.2842C353.275 97.8076 353.627 99.0306 354.329 99.9531C355.04 100.876 355.988 101.337 357.173 101.337C358.366 101.337 359.314 100.871 360.017 99.9404C360.719 99.001 361.07 97.6891 361.07 96.0049C361.07 94.4984 360.711 93.2796 359.991 92.3486C359.28 91.4092 358.332 90.9395 357.147 90.9395C355.988 90.9395 355.053 91.4007 354.342 92.3232C353.631 93.2458 353.275 94.5661 353.275 96.2842ZM370.874 101.337C371.712 101.337 372.444 101.083 373.07 100.575C373.697 100.067 374.044 99.4326 374.111 98.6709H376.333C376.291 99.458 376.02 100.207 375.521 100.918C375.021 101.629 374.353 102.196 373.515 102.619C372.685 103.042 371.805 103.254 370.874 103.254C369.004 103.254 367.514 102.632 366.405 101.388C365.305 100.135 364.755 98.4255 364.755 96.2588V95.8652C364.755 94.528 365 93.3389 365.491 92.2979C365.982 91.2568 366.685 90.4486 367.599 89.873C368.521 89.2975 369.609 89.0098 370.861 89.0098C372.402 89.0098 373.68 89.471 374.695 90.3936C375.719 91.3161 376.265 92.5137 376.333 93.9863H374.111C374.044 93.0977 373.705 92.3698 373.096 91.8027C372.495 91.2272 371.75 90.9395 370.861 90.9395C369.668 90.9395 368.741 91.3711 368.081 92.2344C367.429 93.0892 367.104 94.3291 367.104 95.9541V96.3984C367.104 97.9811 367.429 99.1999 368.081 100.055C368.733 100.91 369.664 101.337 370.874 101.337ZM383.674 103.254C381.812 103.254 380.297 102.645 379.129 101.426C377.961 100.199 377.377 98.5609 377.377 96.5127V96.0811C377.377 94.7184 377.635 93.5039 378.151 92.4375C378.676 91.3626 379.404 90.5247 380.335 89.9238C381.274 89.3145 382.29 89.0098 383.382 89.0098C385.168 89.0098 386.556 89.598 387.546 90.7744C388.536 91.9508 389.031 93.6351 389.031 95.8271V96.8047H379.726C379.759 98.1589 380.153 99.2549 380.906 100.093C381.668 100.922 382.633 101.337 383.801 101.337C384.63 101.337 385.333 101.168 385.908 100.829C386.484 100.491 386.987 100.042 387.419 99.4834L388.854 100.601C387.702 102.369 385.976 103.254 383.674 103.254ZM383.382 90.9395C382.434 90.9395 381.638 91.2865 380.995 91.9805C380.352 92.666 379.954 93.6309 379.802 94.875H386.683V94.6973C386.615 93.5039 386.293 92.5814 385.718 91.9297C385.142 91.2695 384.364 90.9395 383.382 90.9395ZM398.759 99.3564C398.759 98.7217 398.518 98.2308 398.035 97.8838C397.561 97.5283 396.728 97.2236 395.534 96.9697C394.349 96.7158 393.406 96.4111 392.703 96.0557C392.009 95.7002 391.493 95.277 391.154 94.7861C390.824 94.2952 390.659 93.7113 390.659 93.0342C390.659 91.9085 391.133 90.9564 392.081 90.1777C393.037 89.3991 394.256 89.0098 395.737 89.0098C397.295 89.0098 398.556 89.4118 399.521 90.2158C400.494 91.0199 400.98 92.0482 400.98 93.3008H398.619C398.619 92.6576 398.344 92.1032 397.794 91.6377C397.252 91.1722 396.567 90.9395 395.737 90.9395C394.882 90.9395 394.214 91.1257 393.731 91.498C393.249 91.8704 393.008 92.3571 393.008 92.958C393.008 93.5251 393.232 93.9525 393.681 94.2402C394.129 94.528 394.938 94.8031 396.105 95.0654C397.282 95.3278 398.234 95.641 398.962 96.0049C399.69 96.3688 400.227 96.8089 400.574 97.3252C400.93 97.833 401.107 98.4551 401.107 99.1914C401.107 100.419 400.617 101.405 399.635 102.149C398.653 102.886 397.379 103.254 395.813 103.254C394.713 103.254 393.74 103.059 392.894 102.67C392.047 102.281 391.383 101.739 390.9 101.045C390.426 100.342 390.189 99.585 390.189 98.7725H392.538C392.58 99.5596 392.894 100.186 393.478 100.651C394.07 101.108 394.849 101.337 395.813 101.337C396.702 101.337 397.413 101.159 397.946 100.804C398.488 100.44 398.759 99.9574 398.759 99.3564ZM411.165 99.3564C411.165 98.7217 410.924 98.2308 410.441 97.8838C409.967 97.5283 409.134 97.2236 407.94 96.9697C406.756 96.7158 405.812 96.4111 405.109 96.0557C404.415 95.7002 403.899 95.277 403.561 94.7861C403.23 94.2952 403.065 93.7113 403.065 93.0342C403.065 91.9085 403.539 90.9564 404.487 90.1777C405.444 89.3991 406.662 89.0098 408.144 89.0098C409.701 89.0098 410.962 89.4118 411.927 90.2158C412.9 91.0199 413.387 92.0482 413.387 93.3008H411.025C411.025 92.6576 410.75 92.1032 410.2 91.6377C409.659 91.1722 408.973 90.9395 408.144 90.9395C407.289 90.9395 406.62 91.1257 406.138 91.498C405.655 91.8704 405.414 92.3571 405.414 92.958C405.414 93.5251 405.638 93.9525 406.087 94.2402C406.535 94.528 407.344 94.8031 408.512 95.0654C409.688 95.3278 410.64 95.641 411.368 96.0049C412.096 96.3688 412.633 96.8089 412.98 97.3252C413.336 97.833 413.514 98.4551 413.514 99.1914C413.514 100.419 413.023 101.405 412.041 102.149C411.059 102.886 409.785 103.254 408.22 103.254C407.119 103.254 406.146 103.059 405.3 102.67C404.453 102.281 403.789 101.739 403.307 101.045C402.833 100.342 402.596 99.585 402.596 98.7725H404.944C404.987 99.5596 405.3 100.186 405.884 100.651C406.476 101.108 407.255 101.337 408.22 101.337C409.108 101.337 409.819 101.159 410.353 100.804C410.894 100.44 411.165 99.9574 411.165 99.3564ZM421.391 103V84.5156H426.608C428.216 84.5156 429.638 84.8711 430.874 85.582C432.11 86.293 433.062 87.3044 433.73 88.6162C434.408 89.9281 434.75 91.4346 434.759 93.1357V94.3164C434.759 96.0599 434.42 97.5876 433.743 98.8994C433.075 100.211 432.114 101.218 430.861 101.921C429.617 102.623 428.166 102.983 426.507 103H421.391ZM423.828 86.5215V101.007H426.393C428.271 101.007 429.731 100.423 430.772 99.2549C431.822 98.0869 432.347 96.4238 432.347 94.2656V93.1865C432.347 91.0876 431.852 89.4583 430.861 88.2988C429.88 87.1309 428.483 86.5384 426.672 86.5215H423.828ZM436.463 96.0049C436.463 94.6592 436.725 93.4489 437.25 92.374C437.783 91.2992 438.52 90.4697 439.459 89.8857C440.407 89.3018 441.486 89.0098 442.696 89.0098C444.567 89.0098 446.077 89.6572 447.229 90.9521C448.388 92.2471 448.968 93.9694 448.968 96.1191V96.2842C448.968 97.6214 448.71 98.8232 448.193 99.8896C447.686 100.948 446.953 101.773 445.997 102.365C445.049 102.958 443.957 103.254 442.722 103.254C440.86 103.254 439.349 102.606 438.189 101.312C437.038 100.017 436.463 98.3027 436.463 96.1699V96.0049ZM438.824 96.2842C438.824 97.8076 439.175 99.0306 439.878 99.9531C440.589 100.876 441.537 101.337 442.722 101.337C443.915 101.337 444.863 100.871 445.565 99.9404C446.268 99.001 446.619 97.6891 446.619 96.0049C446.619 94.4984 446.259 93.2796 445.54 92.3486C444.829 91.4092 443.881 90.9395 442.696 90.9395C441.537 90.9395 440.602 91.4007 439.891 92.3232C439.18 93.2458 438.824 94.5661 438.824 96.2842ZM456.423 101.337C457.261 101.337 457.993 101.083 458.619 100.575C459.245 100.067 459.592 99.4326 459.66 98.6709H461.882C461.84 99.458 461.569 100.207 461.069 100.918C460.57 101.629 459.901 102.196 459.063 102.619C458.234 103.042 457.354 103.254 456.423 103.254C454.552 103.254 453.063 102.632 451.954 101.388C450.854 100.135 450.304 98.4255 450.304 96.2588V95.8652C450.304 94.528 450.549 93.3389 451.04 92.2979C451.531 91.2568 452.233 90.4486 453.147 89.873C454.07 89.2975 455.158 89.0098 456.41 89.0098C457.951 89.0098 459.229 89.471 460.244 90.3936C461.268 91.3161 461.814 92.5137 461.882 93.9863H459.66C459.592 93.0977 459.254 92.3698 458.645 91.8027C458.044 91.2272 457.299 90.9395 456.41 90.9395C455.217 90.9395 454.29 91.3711 453.63 92.2344C452.978 93.0892 452.652 94.3291 452.652 95.9541V96.3984C452.652 97.9811 452.978 99.1999 453.63 100.055C454.282 100.91 455.213 101.337 456.423 101.337ZM472.003 101.642C471.089 102.716 469.747 103.254 467.979 103.254C466.514 103.254 465.397 102.831 464.627 101.984C463.865 101.13 463.48 99.8685 463.472 98.2012V89.2637H465.82V98.1377C465.82 100.22 466.667 101.261 468.359 101.261C470.154 101.261 471.347 100.592 471.939 99.2549V89.2637H474.288V103H472.054L472.003 101.642ZM479.077 89.2637L479.141 90.7871C480.148 89.6022 481.506 89.0098 483.216 89.0098C485.137 89.0098 486.445 89.7461 487.139 91.2188C487.596 90.5586 488.188 90.0254 488.916 89.6191C489.652 89.2129 490.52 89.0098 491.519 89.0098C494.532 89.0098 496.063 90.6051 496.114 93.7959V103H493.766V93.9355C493.766 92.9538 493.541 92.2217 493.093 91.7393C492.644 91.2484 491.891 91.0029 490.833 91.0029C489.961 91.0029 489.238 91.2653 488.662 91.79C488.087 92.3063 487.752 93.0046 487.659 93.8848V103H485.298V93.999C485.298 92.0016 484.32 91.0029 482.365 91.0029C480.825 91.0029 479.771 91.6589 479.204 92.9707V103H476.855V89.2637H479.077ZM504.369 103.254C502.507 103.254 500.992 102.645 499.824 101.426C498.656 100.199 498.072 98.5609 498.072 96.5127V96.0811C498.072 94.7184 498.33 93.5039 498.847 92.4375C499.371 91.3626 500.099 90.5247 501.03 89.9238C501.97 89.3145 502.985 89.0098 504.077 89.0098C505.863 89.0098 507.251 89.598 508.241 90.7744C509.231 91.9508 509.727 93.6351 509.727 95.8271V96.8047H500.421C500.455 98.1589 500.848 99.2549 501.602 100.093C502.363 100.922 503.328 101.337 504.496 101.337C505.326 101.337 506.028 101.168 506.604 100.829C507.179 100.491 507.683 100.042 508.114 99.4834L509.549 100.601C508.398 102.369 506.671 103.254 504.369 103.254ZM504.077 90.9395C503.129 90.9395 502.334 91.2865 501.69 91.9805C501.047 92.666 500.649 93.6309 500.497 94.875H507.378V94.6973C507.31 93.5039 506.989 92.5814 506.413 91.9297C505.838 91.2695 505.059 90.9395 504.077 90.9395ZM513.678 89.2637L513.754 90.9902C514.803 89.6699 516.174 89.0098 517.867 89.0098C520.77 89.0098 522.234 90.6475 522.26 93.9229V103H519.911V93.9102C519.903 92.9199 519.674 92.1878 519.226 91.7139C518.785 91.2399 518.096 91.0029 517.156 91.0029C516.395 91.0029 515.726 91.2061 515.15 91.6123C514.575 92.0186 514.126 92.5518 513.805 93.2119V103H511.456V89.2637H513.678ZM527.988 85.9375V89.2637H530.553V91.0791H527.988V99.5977C527.988 100.148 528.103 100.562 528.331 100.842C528.56 101.113 528.949 101.248 529.499 101.248C529.77 101.248 530.142 101.197 530.616 101.096V103C529.998 103.169 529.397 103.254 528.813 103.254C527.764 103.254 526.973 102.937 526.439 102.302C525.906 101.667 525.64 100.766 525.64 99.5977V91.0791H523.139V89.2637H525.64V85.9375H527.988Z" fill="#005A9C"/>
<path fill-rule="evenodd" clip-rule="evenodd" d="M367.5 61L353 12H359.5L368 41.5L373.929 21.897L371 12H377.5L386 41.5L395 12H398.5H400.8H418.5V15L409.63 30.2757C412.343 31.1096 419 34.2509 419 45C419 45 419.5 60.7 406.5 60.7C406.5 60.7 397.5 60.5 394.5 50.7L399.4 48.7C399.4 48.7 401.5 54.7 406.5 54.7C406.5 54.7 412.5 54.7 412.5 45C412.5 45 412.5 39.5 410 37.5C407.368 35.3069 403.967 35.4224 402.159 35.4839L402.159 35.4839C401.906 35.4925 401.684 35.5 401.5 35.5V32.5L409.8 18H399.65L398.451 19.7757L386 61H385.5L376.81 31.6336L368 61H367.5Z" fill="#005A9C"/>
<path fill-rule="evenodd" clip-rule="evenodd" d="M424 40C422 19 433.5 19 433.5 19C437.5 19 441 25 441 25L444.5 18L443.5 12L440 19C437 12 432 12.5 432 12.5C421.5 12.5 420.8 32.8 424 40ZM444 47C439 56 432.5 56 432.5 56C423.5 56 420 46 420 46C423.5 60.5 433.5 60.5 433.5 60.5C441.5 60.5 445 51.5 445 51.5L444 47Z" fill="black"/>
<path d="M455.5 16.5C455.5 18.9853 453.485 21 451 21C448.515 21 446.5 18.9853 446.5 16.5C446.5 14.0147 448.515 12 451 12C453.485 12 455.5 14.0147 455.5 16.5Z" fill="white"/>
<path fill-rule="evenodd" clip-rule="evenodd" d="M451 20.5C453.209 20.5 455 18.7091 455 16.5C455 14.2909 453.209 12.5 451 12.5C448.791 12.5 447 14.2909 447 16.5C447 18.7091 448.791 20.5 451 20.5ZM451 21C453.485 21 455.5 18.9853 455.5 16.5C455.5 14.0147 453.485 12 451 12C448.515 12 446.5 14.0147 446.5 16.5C446.5 18.9853 448.515 21 451 21Z" fill="black"/>
<path d="M451.051 17.1782H450.234V19H449.209V14.0234H451.058C451.646 14.0234 452.099 14.1545 452.418 14.4165C452.737 14.6785 452.897 15.0488 452.897 15.5273C452.897 15.8669 452.823 16.1506 452.675 16.3784C452.529 16.604 452.307 16.784 452.008 16.9185L453.085 18.9521V19H451.984L451.051 17.1782ZM450.234 16.3477H451.062C451.319 16.3477 451.518 16.2827 451.66 16.1528C451.801 16.0207 451.872 15.8395 451.872 15.6094C451.872 15.3747 451.804 15.1901 451.67 15.0557C451.538 14.9212 451.334 14.854 451.058 14.854H450.234V16.3477Z" fill="black"/>
<path d="M100 251L90 245.226V256.774L100 251ZM0 252H91V250H0V252Z" fill="black"/>
<path d="M299 241L289 235.226V246.774L299 241ZM199 242H290V240H199V242Z" fill="#4961DD"/>
<path fill-rule="evenodd" clip-rule="evenodd" d="M218 255.226L210 260L218 266.773V264H221V258H218V255.226ZM305 264H308V258H305V264ZM295 264H301V258H295V264ZM285 264H291V258H285V264ZM275 264H281V258H275V264ZM265 264H271V258H265V264ZM255 264H261V258H255V264ZM245 264H251V258H245V264ZM235 264H241V258H235V264ZM225 264H231V258H225V264Z" fill="#B72DF8"/>
<path fill-rule="evenodd" clip-rule="evenodd" d="M492 235.226L502 241L492 246.773V244H402V238H492V235.226Z" fill="#4961DD"/>
<path d="M409 261L419 255.226V266.774L409 261ZM509 262H506V260H509V262ZM502 262H496V260H502V262ZM492 262H486V260H492V262ZM482 262H476V260H482V262ZM472 262H466V260H472V262ZM462 262H456V260H462V262ZM452 262H446V260H452V262ZM442 262H436V260H442V262ZM432 262H426V260H432V262ZM422 262H416V260H422V262Z" fill="#B72DF8"/>
<path d="M706 251L696 245.226V256.774L706 251ZM606 252H697V250H606V252Z" fill="#4961DD"/>
<path d="M217.12 223.708C215.524 223.106 214.572 221.678 214.572 220.194V220.054H216.812V219.13H214.572V217.618H213.48V219.13H211.212V220.054H213.48V220.194C213.48 221.776 212.556 223.302 210.96 223.96L211.52 224.8C212.766 224.282 213.634 223.274 214.04 222.042C214.488 223.176 215.356 224.1 216.574 224.59L217.12 223.708ZM213.018 226.788H220.312V230.036H221.46V225.85H213.018V226.788ZM220.354 217.492V220.838H218.772V217.702H217.694V225.108H218.772V221.776H220.354V225.192H221.46V217.492H220.354ZM232.397 217.492V224.674H233.545V217.492H232.397ZM225.425 225.346V229.868H233.545V225.346H225.425ZM232.425 226.256V228.944H226.545V226.256H232.425ZM226.797 218.15C224.907 218.15 223.535 219.34 223.535 221.076C223.535 222.812 224.907 224.002 226.797 224.002C228.701 224.002 230.087 222.812 230.087 221.076C230.087 219.34 228.701 218.15 226.797 218.15ZM226.797 219.102C228.057 219.102 228.967 219.928 228.967 221.076C228.967 222.238 228.057 223.05 226.797 223.05C225.551 223.05 224.655 222.238 224.655 221.076C224.655 219.928 225.551 219.102 226.797 219.102ZM239.848 219.718H242.634V218.766H235.844V219.718H238.714V221.314C238.714 223.442 237.202 225.822 235.41 226.718L236.082 227.628C237.496 226.9 238.714 225.304 239.288 223.47C239.862 225.15 241.038 226.62 242.438 227.32L243.096 226.396C241.276 225.542 239.848 223.316 239.848 221.314V219.718ZM247.352 222.546H245.28V217.492H244.132V230.036H245.28V223.512H247.352V222.546ZM252.073 218.402C250.127 218.402 248.713 219.592 248.713 221.356C248.713 223.106 250.127 224.31 252.073 224.31C254.033 224.31 255.433 223.106 255.433 221.356C255.433 219.592 254.033 218.402 252.073 218.402ZM252.073 219.382C253.375 219.382 254.313 220.18 254.313 221.356C254.313 222.518 253.375 223.33 252.073 223.33C250.785 223.33 249.833 222.518 249.833 221.356C249.833 220.18 250.785 219.382 252.073 219.382ZM257.085 217.478V230.064H258.233V217.478H257.085ZM248.223 227.306C250.491 227.306 253.529 227.278 256.357 226.76L256.259 225.906C253.515 226.326 250.365 226.34 248.083 226.34L248.223 227.306ZM274.06 221.58C271.834 221.258 269.636 219.844 269.636 218.248V217.688H268.46V218.248C268.46 219.886 266.276 221.258 264.036 221.58L264.456 222.476C266.402 222.168 268.264 221.174 269.048 219.732C269.846 221.16 271.694 222.168 273.626 222.476L274.06 221.58ZM269.048 229.14C267.06 229.14 265.898 228.664 265.898 227.796C265.898 226.942 267.06 226.452 269.048 226.452C271.008 226.452 272.17 226.942 272.17 227.796C272.17 228.664 271.008 229.14 269.048 229.14ZM269.048 225.57C266.36 225.57 264.736 226.368 264.736 227.796C264.736 229.238 266.36 230.036 269.048 230.036C271.722 230.036 273.332 229.238 273.332 227.796C273.332 226.368 271.722 225.57 269.048 225.57ZM263.364 223.47V224.408H274.718V223.47H263.364ZM286.047 217.492H284.899V226.662H286.047V217.492ZM277.157 221.44C277.157 220.222 278.081 219.354 279.299 219.354C280.545 219.354 281.469 220.222 281.469 221.44C281.469 222.686 280.545 223.554 279.299 223.554C278.081 223.554 277.157 222.686 277.157 221.44ZM282.589 221.44C282.589 219.634 281.175 218.36 279.299 218.36C277.437 218.36 276.037 219.634 276.037 221.44C276.037 223.26 277.437 224.548 279.299 224.548C281.175 224.548 282.589 223.26 282.589 221.44ZM279.117 228.818V225.724H277.969V229.756H286.425V228.818H279.117Z" fill="#4961DD"/>
<path d="M222.788 277.99C224.006 277.99 224.86 278.634 224.86 279.572C224.86 280.538 224.006 281.168 222.788 281.168C221.57 281.168 220.716 280.538 220.716 279.572C220.716 278.634 221.57 277.99 222.788 277.99ZM222.788 282.05C224.65 282.05 225.938 281.056 225.938 279.572C225.938 278.102 224.65 277.108 222.788 277.108C220.926 277.108 219.638 278.102 219.638 279.572C219.638 281.056 220.926 282.05 222.788 282.05ZM226.96 282.68C224.23 283.072 221.066 283.086 218.7 283.086L218.84 284.052C219.834 284.052 220.968 284.038 222.158 283.996V288.658H223.306V283.94C224.538 283.87 225.798 283.744 227.03 283.534L226.96 282.68ZM227.912 276.492V285.06H225.07V285.956H227.912V289.05H229.06V276.492H227.912ZM241.425 276.478H240.277V284.038H241.425V276.478ZM232.017 277.332V278.256H236.539C236.497 278.746 236.385 279.208 236.217 279.656L231.387 279.866L231.583 280.818L235.755 280.51C234.985 281.644 233.599 282.568 231.485 283.17L231.919 284.08C235.937 282.904 237.743 280.566 237.743 277.332H232.017ZM237.281 288.126C235.377 288.126 234.201 287.566 234.201 286.614C234.201 285.676 235.377 285.116 237.281 285.116C239.171 285.116 240.333 285.676 240.333 286.614C240.333 287.566 239.171 288.126 237.281 288.126ZM237.281 284.22C234.677 284.22 233.053 285.102 233.053 286.614C233.053 288.14 234.677 289.022 237.281 289.022C239.857 289.022 241.481 288.14 241.481 286.614C241.481 285.102 239.857 284.22 237.281 284.22ZM252.208 279.068C252.208 280.622 252.208 282.498 251.704 285.06L252.852 285.186C253.342 282.47 253.342 280.664 253.342 279.068V277.808H244.732V278.746H252.208V279.068ZM243.514 286.25V287.202H254.868V286.25H243.514ZM264.671 278.774H257.335V281.686H266.071V280.804H258.469V279.628H265.805V276.744H257.307V277.626H264.671V278.774ZM264.671 287.972H258.525V286.67H264.671V287.972ZM264.671 285.802H258.525V284.416H257.377V288.868H265.805V284.416H264.671V285.802ZM255.865 282.694V283.618H260.989V285.186H262.137V283.618H267.261V282.694H255.865ZM268.603 290.242L267.707 289.709C267.971 289.294 268.151 288.932 268.247 288.622C268.347 288.317 268.4 288.005 268.404 287.686V286.394H269.901L269.895 287.59C269.89 288.073 269.767 288.556 269.525 289.039C269.288 289.527 268.981 289.928 268.603 290.242ZM225 298.708C223.404 298.106 222.452 296.678 222.452 295.194V295.054H224.692V294.13H222.452V292.618H221.36V294.13H219.092V295.054H221.36V295.194C221.36 296.776 220.436 298.302 218.84 298.96L219.4 299.8C220.646 299.282 221.514 298.274 221.92 297.042C222.368 298.176 223.236 299.1 224.454 299.59L225 298.708ZM220.898 301.788H228.192V305.036H229.34V300.85H220.898V301.788ZM228.234 292.492V295.838H226.652V292.702H225.574V300.108H226.652V296.776H228.234V300.192H229.34V292.492H228.234ZM240.277 292.492V299.674H241.425V292.492H240.277ZM233.305 300.346V304.868H241.425V300.346H233.305ZM240.305 301.256V303.944H234.425V301.256H240.305ZM234.677 293.15C232.787 293.15 231.415 294.34 231.415 296.076C231.415 297.812 232.787 299.002 234.677 299.002C236.581 299.002 237.967 297.812 237.967 296.076C237.967 294.34 236.581 293.15 234.677 293.15ZM234.677 294.102C235.937 294.102 236.847 294.928 236.847 296.076C236.847 297.238 235.937 298.05 234.677 298.05C233.431 298.05 232.535 297.238 232.535 296.076C232.535 294.928 233.431 294.102 234.677 294.102ZM247.728 294.718H250.514V293.766H243.724V294.718H246.594V296.314C246.594 298.442 245.082 300.822 243.29 301.718L243.962 302.628C245.376 301.9 246.594 300.304 247.168 298.47C247.742 300.15 248.918 301.62 250.318 302.32L250.976 301.396C249.156 300.542 247.728 298.316 247.728 296.314V294.718ZM255.232 297.546H253.16V292.492H252.012V305.036H253.16V298.512H255.232V297.546ZM259.953 293.402C258.007 293.402 256.593 294.592 256.593 296.356C256.593 298.106 258.007 299.31 259.953 299.31C261.913 299.31 263.313 298.106 263.313 296.356C263.313 294.592 261.913 293.402 259.953 293.402ZM259.953 294.382C261.255 294.382 262.193 295.18 262.193 296.356C262.193 297.518 261.255 298.33 259.953 298.33C258.665 298.33 257.713 297.518 257.713 296.356C257.713 295.18 258.665 294.382 259.953 294.382ZM264.965 292.478V305.064H266.113V292.478H264.965ZM256.103 302.306C258.371 302.306 261.409 302.278 264.237 301.76L264.139 300.906C261.395 301.326 258.245 301.34 255.963 301.34L256.103 302.306ZM280.428 295.194V296.692H277.152V297.588H280.428V298.89H281.59V292.478H280.428V294.298H277.586C277.67 293.906 277.712 293.514 277.712 293.094H272.098V294.032H276.466C276.256 296.02 274.506 297.518 271.44 298.232L271.86 299.17C274.632 298.512 276.55 297.168 277.334 295.194H280.428ZM274.66 304V302.544H281.59V299.464H273.498V300.388H280.442V301.676H273.526V304.91H282.01V304H274.66ZM290.329 295.74V296.678H292.807V299.968H293.969V292.492H292.807V295.74H290.329ZM291.029 298.596C289.209 297.952 287.977 296.37 287.977 294.76V294.326H290.735V293.402H284.029V294.326H286.829V294.76C286.829 296.566 285.541 298.26 283.665 298.946L284.267 299.856C285.737 299.296 286.899 298.12 287.431 296.664C287.977 297.952 289.055 298.988 290.455 299.492L291.029 298.596ZM289.825 304.14C287.935 304.14 286.787 303.608 286.787 302.698C286.787 301.788 287.935 301.242 289.825 301.242C291.715 301.242 292.863 301.788 292.863 302.698C292.863 303.608 291.715 304.14 289.825 304.14ZM289.825 300.36C287.249 300.36 285.639 301.214 285.639 302.698C285.639 304.182 287.249 305.036 289.825 305.036C292.401 305.036 294.011 304.182 294.011 302.698C294.011 301.214 292.401 300.36 289.825 300.36ZM297.112 302.25C297.422 302.25 297.661 302.339 297.83 302.517C297.999 302.69 298.083 302.909 298.083 303.173C298.083 303.433 297.999 303.649 297.83 303.822C297.661 303.991 297.422 304.075 297.112 304.075C296.816 304.075 296.581 303.991 296.408 303.822C296.235 303.654 296.148 303.437 296.148 303.173C296.148 302.909 296.233 302.69 296.401 302.517C296.57 302.339 296.807 302.25 297.112 302.25ZM297.112 296.446C297.422 296.446 297.661 296.535 297.83 296.713C297.999 296.886 298.083 297.105 298.083 297.369C298.083 297.629 297.999 297.845 297.83 298.019C297.661 298.187 297.422 298.271 297.112 298.271C296.816 298.271 296.581 298.187 296.408 298.019C296.235 297.85 296.148 297.633 296.148 297.369C296.148 297.105 296.233 296.886 296.401 296.713C296.57 296.535 296.807 296.446 297.112 296.446ZM219.876 315.114C221.822 314.82 223.628 313.854 224.426 312.496C225.224 313.854 227.016 314.82 228.962 315.114L229.368 314.19C227.128 313.882 225 312.496 225 310.956H229.004V310.032H225V308.478H223.852V310.032H219.848V310.956H223.838C223.838 312.51 221.724 313.882 219.456 314.19L219.876 315.114ZM230.11 316.066H218.756V317.004H223.852V321.05H225V317.004H230.11V316.066ZM231.793 309.822V310.774H236.399C236.133 313.742 234.411 316.15 231.205 317.76L231.835 318.656C235.895 316.626 237.533 313.392 237.533 309.822H231.793ZM242.797 313.574H240.781V308.478H239.633V321.036H240.781V314.526H242.797V313.574ZM247.256 309.276V310.214H251.708C251.47 312.342 249.608 313.98 246.626 314.834L247.102 315.73C250.7 314.708 252.926 312.454 252.926 309.276H247.256ZM249.846 317.088H255.698V319.93H249.846V317.088ZM248.712 320.854H256.832V316.178H248.712V320.854ZM255.67 308.478V311.712H252.94V312.65H255.67V315.646H256.832V308.478H255.67ZM265.123 318.53V315.94H268.959V315.002H261.483V313.112H268.553V312.202H261.483V310.438H268.833V309.5H260.321V315.94H263.975V318.53H258.851V319.468H270.261V318.53H265.123Z" fill="#B72DF8"/>
<path d="M264.97 362.718H267.756V361.766H260.966V362.718H263.836V364.314C263.836 366.442 262.324 368.822 260.532 369.718L261.204 370.628C262.618 369.9 263.836 368.304 264.41 366.47C264.984 368.15 266.16 369.62 267.56 370.32L268.218 369.396C266.398 368.542 264.97 366.316 264.97 364.314V362.718ZM272.474 365.546H270.402V360.492H269.254V373.036H270.402V366.512H272.474V365.546ZM281.885 364.552H275.697V361.99H281.885V364.552ZM283.019 361.066H274.577V365.476H283.019V361.066ZM275.697 369.172H274.549V372.756H283.229V371.818H275.697V369.172ZM273.093 366.904V367.828H278.315V370.362H279.463V367.828H284.503V366.904H273.093ZM289.616 362.018C290.834 362.018 291.702 362.676 291.702 363.656C291.702 364.636 290.834 365.294 289.616 365.294C288.384 365.294 287.516 364.636 287.516 363.656C287.516 362.676 288.384 362.018 289.616 362.018ZM289.616 366.232C291.478 366.232 292.808 365.182 292.808 363.656C292.808 362.116 291.478 361.066 289.616 361.066C287.74 361.066 286.41 362.116 286.41 363.656C286.41 365.182 287.74 366.232 289.616 366.232ZM293.746 366.848C290.988 367.268 287.81 367.296 285.472 367.296L285.626 368.262C286.662 368.262 287.852 368.248 289.098 368.192V372.644H290.246V368.122C291.436 368.052 292.654 367.912 293.844 367.702L293.746 366.848ZM294.656 360.492V373.05H295.804V360.492H294.656ZM304.459 367.898V368.752H307.007V370.04H308.155V360.478H307.007V367.898H304.459ZM301.897 361.836C303.087 361.836 303.899 362.368 303.899 363.166C303.899 363.978 303.087 364.51 301.897 364.51C300.707 364.51 299.895 363.978 299.895 363.166C299.895 362.368 300.707 361.836 301.897 361.836ZM301.897 365.364C303.731 365.364 304.991 364.51 304.991 363.166C304.991 361.85 303.731 360.982 301.897 360.982C300.063 360.982 298.803 361.85 298.803 363.166C298.803 364.51 300.063 365.364 301.897 365.364ZM301.449 369.592H302.597V367.114C303.731 367.044 304.893 366.918 305.999 366.75L305.901 365.924C303.241 366.26 300.133 366.288 297.809 366.288L297.963 367.24C298.999 367.24 300.203 367.226 301.449 367.17V369.592ZM300.749 371.818V369.102H299.601V372.756H308.477V371.818H300.749ZM318.224 362.018H314.99V360.478H313.842V362.018H310.594V362.942H318.224V362.018ZM312.484 365.98C312.484 365.098 313.268 364.538 314.416 364.538C315.55 364.538 316.334 365.098 316.334 365.98C316.334 366.848 315.55 367.408 314.416 367.408C313.268 367.408 312.484 366.848 312.484 365.98ZM314.99 368.276C316.474 368.094 317.426 367.226 317.426 365.98C317.426 364.566 316.208 363.656 314.416 363.656C312.624 363.656 311.392 364.566 311.392 365.98C311.392 367.24 312.358 368.108 313.842 368.29V369.634C312.596 369.676 311.392 369.69 310.328 369.69L310.496 370.656C312.806 370.656 315.83 370.614 318.63 370.152L318.546 369.298C317.398 369.452 316.18 369.536 314.99 369.592V368.276ZM319.344 360.478V373.036H320.492V360.478H319.344ZM326.393 361.276V362.214H330.845C330.607 364.342 328.745 365.98 325.763 366.834L326.239 367.73C329.837 366.708 332.063 364.454 332.063 361.276H326.393ZM328.983 369.088H334.835V371.93H328.983V369.088ZM327.849 372.854H335.969V368.178H327.849V372.854ZM334.807 360.478V363.712H332.077V364.65H334.807V367.646H335.969V360.478H334.807ZM344.26 370.53V367.94H348.096V367.002H340.62V365.112H347.69V364.202H340.62V362.438H347.97V361.5H339.458V367.94H343.112V370.53H337.988V371.468H349.398V370.53H344.26ZM363.657 360.478H362.509V367.688H363.657V360.478ZM358.771 365.504H355.145V362.2H358.771V365.504ZM359.891 361.29H354.025V366.428H359.891V361.29ZM363.951 369.424V368.542H360.269V367.324H359.107V368.542H355.425V369.424H359.093C359.079 370.67 357.077 371.86 354.935 372.112L355.313 372.994C357.203 372.728 358.939 371.888 359.695 370.698C360.437 371.86 362.117 372.728 364.007 372.994L364.399 372.112C362.243 371.846 360.297 370.628 360.283 369.424H363.951ZM374.99 366.708C373.394 366.106 372.442 364.678 372.442 363.194V363.054H374.682V362.13H372.442V360.618H371.35V362.13H369.082V363.054H371.35V363.194C371.35 364.776 370.426 366.302 368.83 366.96L369.39 367.8C370.636 367.282 371.504 366.274 371.91 365.042C372.358 366.176 373.226 367.1 374.444 367.59L374.99 366.708ZM370.888 369.788H378.182V373.036H379.33V368.85H370.888V369.788ZM378.224 360.492V363.838H376.642V360.702H375.564V368.108H376.642V364.776H378.224V368.192H379.33V360.492H378.224ZM390.267 360.492V367.674H391.415V360.492H390.267ZM383.295 368.346V372.868H391.415V368.346H383.295ZM390.295 369.256V371.944H384.415V369.256H390.295ZM384.667 361.15C382.777 361.15 381.405 362.34 381.405 364.076C381.405 365.812 382.777 367.002 384.667 367.002C386.571 367.002 387.957 365.812 387.957 364.076C387.957 362.34 386.571 361.15 384.667 361.15ZM384.667 362.102C385.927 362.102 386.837 362.928 386.837 364.076C386.837 365.238 385.927 366.05 384.667 366.05C383.421 366.05 382.525 365.238 382.525 364.076C382.525 362.928 383.421 362.102 384.667 362.102ZM397.718 362.718H400.504V361.766H393.714V362.718H396.584V364.314C396.584 366.442 395.072 368.822 393.28 369.718L393.952 370.628C395.366 369.9 396.584 368.304 397.158 366.47C397.732 368.15 398.908 369.62 400.308 370.32L400.966 369.396C399.146 368.542 397.718 366.316 397.718 364.314V362.718ZM405.222 365.546H403.15V360.492H402.002V373.036H403.15V366.512H405.222V365.546ZM409.943 361.402C407.997 361.402 406.583 362.592 406.583 364.356C406.583 366.106 407.997 367.31 409.943 367.31C411.903 367.31 413.303 366.106 413.303 364.356C413.303 362.592 411.903 361.402 409.943 361.402ZM409.943 362.382C411.245 362.382 412.183 363.18 412.183 364.356C412.183 365.518 411.245 366.33 409.943 366.33C408.655 366.33 407.703 365.518 407.703 364.356C407.703 363.18 408.655 362.382 409.943 362.382ZM414.955 360.478V373.064H416.103V360.478H414.955ZM406.093 370.306C408.361 370.306 411.399 370.278 414.227 369.76L414.129 368.906C411.385 369.326 408.235 369.34 405.953 369.34L406.093 370.306ZM430.418 363.194V364.692H427.142V365.588H430.418V366.89H431.58V360.478H430.418V362.298H427.576C427.66 361.906 427.702 361.514 427.702 361.094H422.088V362.032H426.456C426.246 364.02 424.496 365.518 421.43 366.232L421.85 367.17C424.622 366.512 426.54 365.168 427.324 363.194H430.418ZM424.65 372V370.544H431.58V367.464H423.488V368.388H430.432V369.676H423.516V372.91H432V372H424.65ZM440.319 363.74V364.678H442.797V367.968H443.959V360.492H442.797V363.74H440.319ZM441.019 366.596C439.199 365.952 437.967 364.37 437.967 362.76V362.326H440.725V361.402H434.019V362.326H436.819V362.76C436.819 364.566 435.531 366.26 433.655 366.946L434.257 367.856C435.727 367.296 436.889 366.12 437.421 364.664C437.967 365.952 439.045 366.988 440.445 367.492L441.019 366.596ZM439.815 372.14C437.925 372.14 436.777 371.608 436.777 370.698C436.777 369.788 437.925 369.242 439.815 369.242C441.705 369.242 442.853 369.788 442.853 370.698C442.853 371.608 441.705 372.14 439.815 372.14ZM439.815 368.36C437.239 368.36 435.629 369.214 435.629 370.698C435.629 372.182 437.239 373.036 439.815 373.036C442.391 373.036 444.001 372.182 444.001 370.698C444.001 369.214 442.391 368.36 439.815 368.36ZM447.103 370.25C447.412 370.25 447.652 370.339 447.82 370.517C447.989 370.69 448.073 370.909 448.073 371.173C448.073 371.433 447.989 371.649 447.82 371.822C447.652 371.991 447.412 372.075 447.103 372.075C446.806 372.075 446.572 371.991 446.398 371.822C446.225 371.654 446.139 371.437 446.139 371.173C446.139 370.909 446.223 370.69 446.392 370.517C446.56 370.339 446.797 370.25 447.103 370.25ZM447.103 364.446C447.412 364.446 447.652 364.535 447.82 364.713C447.989 364.886 448.073 365.105 448.073 365.369C448.073 365.629 447.989 365.845 447.82 366.019C447.652 366.187 447.412 366.271 447.103 366.271C446.806 366.271 446.572 366.187 446.398 366.019C446.225 365.85 446.139 365.633 446.139 365.369C446.139 365.105 446.223 364.886 446.392 364.713C446.56 364.535 446.797 364.446 447.103 364.446ZM261.876 383.114C263.822 382.82 265.628 381.854 266.426 380.496C267.224 381.854 269.016 382.82 270.962 383.114L271.368 382.19C269.128 381.882 267 380.496 267 378.956H271.004V378.032H267V376.478H265.852V378.032H261.848V378.956H265.838C265.838 380.51 263.724 381.882 261.456 382.19L261.876 383.114ZM272.11 384.066H260.756V385.004H265.852V389.05H267V385.004H272.11V384.066ZM273.793 377.822V378.774H278.399C278.133 381.742 276.411 384.15 273.205 385.76L273.835 386.656C277.895 384.626 279.533 381.392 279.533 377.822H273.793ZM284.797 381.574H282.781V376.478H281.633V389.036H282.781V382.526H284.797V381.574ZM295.78 382.624C293.932 381.994 292.728 380.44 292.728 378.774V378.284H295.5V377.36H288.766V378.284H291.58V378.788C291.58 380.58 290.32 382.204 288.43 382.862L289.032 383.772C290.502 383.226 291.636 382.12 292.168 380.72C292.714 382.008 293.792 383.03 295.192 383.52L295.78 382.624ZM290.054 385.648H297.082V389.05H298.23V384.724H290.054V385.648ZM300.092 379.782H298.23V376.492H297.082V384.052H298.23V380.734H300.092V379.782ZM310.063 387.944H304.309V386.32H310.063V387.944ZM310.063 385.424H304.309V383.828H303.175V388.868H311.211V383.828H310.063V385.424ZM304.295 381.924C303.049 381.924 302.153 381.112 302.153 379.964C302.153 378.816 303.049 378.018 304.295 378.018C305.541 378.018 306.437 378.816 306.437 379.964C306.437 381.112 305.541 381.924 304.295 381.924ZM310.049 376.492V379.474H307.487C307.249 378.018 305.989 377.066 304.295 377.066C302.419 377.066 301.061 378.242 301.061 379.964C301.061 381.7 302.419 382.876 304.295 382.876C306.017 382.876 307.277 381.896 307.501 380.412H310.049V383.226H311.211V376.492H310.049ZM326.52 376.478H325.372V383.688H326.52V376.478ZM321.634 381.504H318.008V378.2H321.634V381.504ZM322.754 377.29H316.888V382.428H322.754V377.29ZM326.814 385.424V384.542H323.132V383.324H321.97V384.542H318.288V385.424H321.956C321.942 386.67 319.94 387.86 317.798 388.112L318.176 388.994C320.066 388.728 321.802 387.888 322.558 386.698C323.3 387.86 324.98 388.728 326.87 388.994L327.262 388.112C325.106 387.846 323.16 386.628 323.146 385.424H326.814ZM332.366 377.276V378.214H336.818C336.58 380.342 334.718 381.98 331.736 382.834L332.212 383.73C335.81 382.708 338.036 380.454 338.036 377.276H332.366ZM334.956 385.088H340.808V387.93H334.956V385.088ZM333.822 388.854H341.942V384.178H333.822V388.854ZM340.78 376.478V379.712H338.05V380.65H340.78V383.646H341.942V376.478H340.78ZM350.232 386.53V383.94H354.068V383.002H346.592V381.112H353.662V380.202H346.592V378.438H353.942V377.5H345.43V383.94H349.084V386.53H343.96V387.468H355.37V386.53H350.232Z" fill="#F12323"/>
<path d="M417.97 278.718H420.756V277.766H413.966V278.718H416.836V280.314C416.836 282.442 415.324 284.822 413.532 285.718L414.204 286.628C415.618 285.9 416.836 284.304 417.41 282.47C417.984 284.15 419.16 285.62 420.56 286.32L421.218 285.396C419.398 284.542 417.97 282.316 417.97 280.314V278.718ZM425.474 281.546H423.402V276.492H422.254V289.036H423.402V282.512H425.474V281.546ZM434.885 280.552H428.697V277.99H434.885V280.552ZM436.019 277.066H427.577V281.476H436.019V277.066ZM428.697 285.172H427.549V288.756H436.229V287.818H428.697V285.172ZM426.093 282.904V283.828H431.315V286.362H432.463V283.828H437.503V282.904H426.093ZM442.616 278.018C443.834 278.018 444.702 278.676 444.702 279.656C444.702 280.636 443.834 281.294 442.616 281.294C441.384 281.294 440.516 280.636 440.516 279.656C440.516 278.676 441.384 278.018 442.616 278.018ZM442.616 282.232C444.478 282.232 445.808 281.182 445.808 279.656C445.808 278.116 444.478 277.066 442.616 277.066C440.74 277.066 439.41 278.116 439.41 279.656C439.41 281.182 440.74 282.232 442.616 282.232ZM446.746 282.848C443.988 283.268 440.81 283.296 438.472 283.296L438.626 284.262C439.662 284.262 440.852 284.248 442.098 284.192V288.644H443.246V284.122C444.436 284.052 445.654 283.912 446.844 283.702L446.746 282.848ZM447.656 276.492V289.05H448.804V276.492H447.656ZM457.459 283.898V284.752H460.007V286.04H461.155V276.478H460.007V283.898H457.459ZM454.897 277.836C456.087 277.836 456.899 278.368 456.899 279.166C456.899 279.978 456.087 280.51 454.897 280.51C453.707 280.51 452.895 279.978 452.895 279.166C452.895 278.368 453.707 277.836 454.897 277.836ZM454.897 281.364C456.731 281.364 457.991 280.51 457.991 279.166C457.991 277.85 456.731 276.982 454.897 276.982C453.063 276.982 451.803 277.85 451.803 279.166C451.803 280.51 453.063 281.364 454.897 281.364ZM454.449 285.592H455.597V283.114C456.731 283.044 457.893 282.918 458.999 282.75L458.901 281.924C456.241 282.26 453.133 282.288 450.809 282.288L450.963 283.24C451.999 283.24 453.203 283.226 454.449 283.17V285.592ZM453.749 287.818V285.102H452.601V288.756H461.477V287.818H453.749ZM471.224 278.018H467.99V276.478H466.842V278.018H463.594V278.942H471.224V278.018ZM465.484 281.98C465.484 281.098 466.268 280.538 467.416 280.538C468.55 280.538 469.334 281.098 469.334 281.98C469.334 282.848 468.55 283.408 467.416 283.408C466.268 283.408 465.484 282.848 465.484 281.98ZM467.99 284.276C469.474 284.094 470.426 283.226 470.426 281.98C470.426 280.566 469.208 279.656 467.416 279.656C465.624 279.656 464.392 280.566 464.392 281.98C464.392 283.24 465.358 284.108 466.842 284.29V285.634C465.596 285.676 464.392 285.69 463.328 285.69L463.496 286.656C465.806 286.656 468.83 286.614 471.63 286.152L471.546 285.298C470.398 285.452 469.18 285.536 467.99 285.592V284.276ZM472.344 276.478V289.036H473.492V276.478H472.344ZM479.393 277.276V278.214H483.845C483.607 280.342 481.745 281.98 478.763 282.834L479.239 283.73C482.837 282.708 485.063 280.454 485.063 277.276H479.393ZM481.983 285.088H487.835V287.93H481.983V285.088ZM480.849 288.854H488.969V284.178H480.849V288.854ZM487.807 276.478V279.712H485.077V280.65H487.807V283.646H488.969V276.478H487.807ZM497.26 286.53V283.94H501.096V283.002H493.62V281.112H500.69V280.202H493.62V278.438H500.97V277.5H492.458V283.94H496.112V286.53H490.988V287.468H502.398V286.53H497.26ZM503.726 290.242L502.83 289.709C503.094 289.294 503.274 288.932 503.37 288.622C503.47 288.317 503.523 288.005 503.527 287.686V286.394H505.024L505.018 287.59C505.013 288.073 504.89 288.556 504.648 289.039C504.411 289.527 504.104 289.928 503.726 290.242ZM420 298.708C418.404 298.106 417.452 296.678 417.452 295.194V295.054H419.692V294.13H417.452V292.618H416.36V294.13H414.092V295.054H416.36V295.194C416.36 296.776 415.436 298.302 413.84 298.96L414.4 299.8C415.646 299.282 416.514 298.274 416.92 297.042C417.368 298.176 418.236 299.1 419.454 299.59L420 298.708ZM415.898 301.788H423.192V305.036H424.34V300.85H415.898V301.788ZM423.234 292.492V295.838H421.652V292.702H420.574V300.108H421.652V296.776H423.234V300.192H424.34V292.492H423.234ZM435.277 292.492V299.674H436.425V292.492H435.277ZM428.305 300.346V304.868H436.425V300.346H428.305ZM435.305 301.256V303.944H429.425V301.256H435.305ZM429.677 293.15C427.787 293.15 426.415 294.34 426.415 296.076C426.415 297.812 427.787 299.002 429.677 299.002C431.581 299.002 432.967 297.812 432.967 296.076C432.967 294.34 431.581 293.15 429.677 293.15ZM429.677 294.102C430.937 294.102 431.847 294.928 431.847 296.076C431.847 297.238 430.937 298.05 429.677 298.05C428.431 298.05 427.535 297.238 427.535 296.076C427.535 294.928 428.431 294.102 429.677 294.102ZM442.728 294.718H445.514V293.766H438.724V294.718H441.594V296.314C441.594 298.442 440.082 300.822 438.29 301.718L438.962 302.628C440.376 301.9 441.594 300.304 442.168 298.47C442.742 300.15 443.918 301.62 445.318 302.32L445.976 301.396C444.156 300.542 442.728 298.316 442.728 296.314V294.718ZM450.232 297.546H448.16V292.492H447.012V305.036H448.16V298.512H450.232V297.546ZM454.953 293.402C453.007 293.402 451.593 294.592 451.593 296.356C451.593 298.106 453.007 299.31 454.953 299.31C456.913 299.31 458.313 298.106 458.313 296.356C458.313 294.592 456.913 293.402 454.953 293.402ZM454.953 294.382C456.255 294.382 457.193 295.18 457.193 296.356C457.193 297.518 456.255 298.33 454.953 298.33C453.665 298.33 452.713 297.518 452.713 296.356C452.713 295.18 453.665 294.382 454.953 294.382ZM459.965 292.478V305.064H461.113V292.478H459.965ZM451.103 302.306C453.371 302.306 456.409 302.278 459.237 301.76L459.139 300.906C456.395 301.326 453.245 301.34 450.963 301.34L451.103 302.306ZM475.428 295.194V296.692H472.152V297.588H475.428V298.89H476.59V292.478H475.428V294.298H472.586C472.67 293.906 472.712 293.514 472.712 293.094H467.098V294.032H471.466C471.256 296.02 469.506 297.518 466.44 298.232L466.86 299.17C469.632 298.512 471.55 297.168 472.334 295.194H475.428ZM469.66 304V302.544H476.59V299.464H468.498V300.388H475.442V301.676H468.526V304.91H477.01V304H469.66ZM485.329 295.74V296.678H487.807V299.968H488.969V292.492H487.807V295.74H485.329ZM486.029 298.596C484.209 297.952 482.977 296.37 482.977 294.76V294.326H485.735V293.402H479.029V294.326H481.829V294.76C481.829 296.566 480.541 298.26 478.665 298.946L479.267 299.856C480.737 299.296 481.899 298.12 482.431 296.664C482.977 297.952 484.055 298.988 485.455 299.492L486.029 298.596ZM484.825 304.14C482.935 304.14 481.787 303.608 481.787 302.698C481.787 301.788 482.935 301.242 484.825 301.242C486.715 301.242 487.863 301.788 487.863 302.698C487.863 303.608 486.715 304.14 484.825 304.14ZM484.825 300.36C482.249 300.36 480.639 301.214 480.639 302.698C480.639 304.182 482.249 305.036 484.825 305.036C487.401 305.036 489.011 304.182 489.011 302.698C489.011 301.214 487.401 300.36 484.825 300.36ZM492.112 302.25C492.422 302.25 492.661 302.339 492.83 302.517C492.999 302.69 493.083 302.909 493.083 303.173C493.083 303.433 492.999 303.649 492.83 303.822C492.661 303.991 492.422 304.075 492.112 304.075C491.816 304.075 491.581 303.991 491.408 303.822C491.235 303.654 491.148 303.437 491.148 303.173C491.148 302.909 491.233 302.69 491.401 302.517C491.57 302.339 491.807 302.25 492.112 302.25ZM492.112 296.446C492.422 296.446 492.661 296.535 492.83 296.713C492.999 296.886 493.083 297.105 493.083 297.369C493.083 297.629 492.999 297.845 492.83 298.019C492.661 298.187 492.422 298.271 492.112 298.271C491.816 298.271 491.581 298.187 491.408 298.019C491.235 297.85 491.148 297.633 491.148 297.369C491.148 297.105 491.233 296.886 491.401 296.713C491.57 296.535 491.807 296.446 492.112 296.446ZM417.956 309.57H416.822V311.824C416.822 314.106 415.394 316.514 413.588 317.438L414.274 318.362C415.688 317.606 416.85 316.038 417.396 314.204C417.97 315.926 419.104 317.396 420.434 318.11L421.148 317.2C419.384 316.318 417.956 314.036 417.956 311.824V309.57ZM425.474 313.574H423.402V308.492H422.254V321.036H423.402V314.526H425.474V313.574ZM436.957 314.61C434.759 314.218 432.365 312.37 432.365 310.284V309.318H431.161V310.284C431.161 312.37 428.781 314.218 426.583 314.61L427.059 315.562C428.991 315.156 430.951 313.854 431.763 312.062C432.575 313.854 434.549 315.156 436.467 315.562L436.957 314.61ZM432.337 318.46V315.408H431.189V318.46H426.121V319.398H437.517V318.46H432.337ZM445.948 310.018H442.812V308.478H441.664V310.018H438.542V310.942H445.948V310.018ZM440.334 313.966C440.334 313.098 441.104 312.538 442.238 312.538C443.372 312.538 444.156 313.098 444.156 313.966C444.156 314.848 443.372 315.408 442.238 315.408C441.104 315.408 440.334 314.848 440.334 313.966ZM445.248 313.966C445.248 312.566 444.016 311.642 442.238 311.642C440.46 311.642 439.242 312.566 439.242 313.966C439.242 315.38 440.46 316.304 442.238 316.304C444.016 316.304 445.248 315.38 445.248 313.966ZM441.58 317.158H440.432V320.756H448.804V319.818H441.58V317.158ZM448.244 312.622V308.478H447.096V317.9H448.244V313.588H450.092V312.622H448.244ZM463.049 311.712V313.49H460.151V311.712H463.049ZM459.017 314.708H455.629V312.44H459.017V314.708ZM460.151 314.428H463.049V317.774H464.211V308.492H463.049V310.788H460.151V309.318H459.017V311.53H455.629V309.318H454.495V315.632H460.151V314.428ZM457.281 319.818V316.864H456.133V320.756H464.505V319.818H457.281ZM473.818 310.004H470.654V308.492H469.506V310.004H466.314V310.914H473.818V310.004ZM468.204 313.98C468.204 313.112 468.96 312.538 470.08 312.538C471.2 312.538 471.956 313.112 471.956 313.98C471.956 314.848 471.2 315.408 470.08 315.408C468.96 315.408 468.204 314.848 468.204 313.98ZM470.654 316.276C472.096 316.094 473.048 315.226 473.048 313.98C473.048 312.566 471.83 311.656 470.08 311.656C468.33 311.656 467.112 312.566 467.112 313.98C467.112 315.226 468.064 316.094 469.506 316.276V317.648C468.288 317.69 467.112 317.69 466.104 317.69L466.258 318.656C468.456 318.656 471.41 318.628 474.098 318.152L474.028 317.298C472.95 317.466 471.788 317.55 470.654 317.606V316.276ZM477.878 313.812H475.918V308.478H474.77V321.036H475.918V314.778H477.878V313.812Z" fill="#B72DF8"/>
<path d="M6.74707 233.782H2.74121V238H1.01172V228.047H7.33496V229.441H2.74121V232.401H6.74707V233.782ZM9.81543 238H8.1543V230.604H9.81543V238ZM8.05176 228.683C8.05176 228.427 8.13151 228.215 8.29102 228.047C8.45508 227.878 8.6875 227.794 8.98828 227.794C9.28906 227.794 9.52148 227.878 9.68555 228.047C9.84961 228.215 9.93164 228.427 9.93164 228.683C9.93164 228.933 9.84961 229.143 9.68555 229.312C9.52148 229.476 9.28906 229.558 8.98828 229.558C8.6875 229.558 8.45508 229.476 8.29102 229.312C8.13151 229.143 8.05176 228.933 8.05176 228.683ZM15.0029 232.121C14.7842 232.085 14.5586 232.066 14.3262 232.066C13.5651 232.066 13.0524 232.358 12.7881 232.941V238H11.127V230.604H12.7129L12.7539 231.431C13.1549 230.788 13.7109 230.467 14.4219 230.467C14.6589 230.467 14.8548 230.499 15.0098 230.562L15.0029 232.121ZM19.6982 235.99C19.6982 235.694 19.5752 235.468 19.3291 235.313C19.0876 235.159 18.6842 235.022 18.1191 234.903C17.554 234.785 17.0824 234.634 16.7041 234.452C15.8747 234.051 15.46 233.47 15.46 232.709C15.46 232.071 15.7288 231.538 16.2666 231.109C16.8044 230.681 17.488 230.467 18.3174 230.467C19.2015 230.467 19.9147 230.686 20.457 231.123C21.0039 231.561 21.2773 232.128 21.2773 232.825H19.6162C19.6162 232.506 19.4977 232.242 19.2607 232.032C19.0238 231.818 18.7093 231.711 18.3174 231.711C17.9528 231.711 17.6543 231.795 17.4219 231.964C17.194 232.132 17.0801 232.358 17.0801 232.641C17.0801 232.896 17.1872 233.094 17.4014 233.235C17.6156 233.377 18.0485 233.52 18.7002 233.666C19.3519 233.807 19.8623 233.978 20.2314 234.179C20.6051 234.375 20.8809 234.612 21.0586 234.89C21.2409 235.168 21.332 235.505 21.332 235.901C21.332 236.567 21.0563 237.107 20.5049 237.521C19.9535 237.932 19.2311 238.137 18.3379 238.137C17.7318 238.137 17.1917 238.027 16.7178 237.809C16.2438 237.59 15.8747 237.289 15.6104 236.906C15.346 236.523 15.2139 236.111 15.2139 235.669H16.8271C16.8499 236.061 16.998 236.364 17.2715 236.578C17.5449 236.788 17.9072 236.893 18.3584 236.893C18.7959 236.893 19.1286 236.811 19.3564 236.646C19.5843 236.478 19.6982 236.259 19.6982 235.99ZM24.3662 228.806V230.604H25.6719V231.834H24.3662V235.963C24.3662 236.245 24.4209 236.451 24.5303 236.578C24.6442 236.701 24.8447 236.763 25.1318 236.763C25.3232 236.763 25.5169 236.74 25.7129 236.694V237.979C25.3346 238.084 24.9701 238.137 24.6191 238.137C23.3431 238.137 22.7051 237.433 22.7051 236.024V231.834H21.4883V230.604H22.7051V228.806H24.3662ZM37.4004 235.539L38.9316 228.047H40.6475L38.3506 238H36.6963L34.8027 230.733L32.8682 238H31.207L28.9102 228.047H30.626L32.1709 235.525L34.0713 228.047H35.5205L37.4004 235.539ZM41.4121 238V228.047H44.3516C45.2311 228.047 46.0104 228.243 46.6895 228.635C47.373 229.027 47.9017 229.583 48.2754 230.303C48.6491 231.023 48.8359 231.848 48.8359 232.777V233.276C48.8359 234.22 48.6468 235.049 48.2686 235.765C47.8949 236.48 47.3594 237.032 46.6621 237.419C45.9694 237.806 45.1742 238 44.2764 238H41.4121ZM43.1416 229.441V236.619H44.2695C45.1764 236.619 45.8714 236.337 46.3545 235.771C46.8421 235.202 47.0905 234.386 47.0996 233.324V232.771C47.0996 231.69 46.8649 230.866 46.3955 230.296C45.9261 229.726 45.2448 229.441 44.3516 229.441H43.1416Z" fill="#222222"/>
<path d="M84.788 151.99C86.006 151.99 86.86 152.634 86.86 153.572C86.86 154.538 86.006 155.168 84.788 155.168C83.57 155.168 82.716 154.538 82.716 153.572C82.716 152.634 83.57 151.99 84.788 151.99ZM84.788 156.05C86.65 156.05 87.938 155.056 87.938 153.572C87.938 152.102 86.65 151.108 84.788 151.108C82.926 151.108 81.638 152.102 81.638 153.572C81.638 155.056 82.926 156.05 84.788 156.05ZM88.96 156.68C86.23 157.072 83.066 157.086 80.7 157.086L80.84 158.052C81.834 158.052 82.968 158.038 84.158 157.996V162.658H85.306V157.94C86.538 157.87 87.798 157.744 89.03 157.534L88.96 156.68ZM89.912 150.492V159.06H87.07V159.956H89.912V163.05H91.06V150.492H89.912ZM103.425 150.478H102.277V158.038H103.425V150.478ZM94.0169 151.332V152.256H98.5389C98.4969 152.746 98.3849 153.208 98.2169 153.656L93.3869 153.866L93.5829 154.818L97.7549 154.51C96.9849 155.644 95.5989 156.568 93.4849 157.17L93.9189 158.08C97.9369 156.904 99.7429 154.566 99.7429 151.332H94.0169ZM99.2809 162.126C97.3769 162.126 96.2009 161.566 96.2009 160.614C96.2009 159.676 97.3769 159.116 99.2809 159.116C101.171 159.116 102.333 159.676 102.333 160.614C102.333 161.566 101.171 162.126 99.2809 162.126ZM99.2809 158.22C96.6769 158.22 95.0529 159.102 95.0529 160.614C95.0529 162.14 96.6769 163.022 99.2809 163.022C101.857 163.022 103.481 162.14 103.481 160.614C103.481 159.102 101.857 158.22 99.2809 158.22ZM114.208 153.068C114.208 154.622 114.208 156.498 113.704 159.06L114.852 159.186C115.342 156.47 115.342 154.664 115.342 153.068V151.808H106.732V152.746H114.208V153.068ZM105.514 160.25V161.202H116.868V160.25H105.514ZM126.671 152.774H119.335V155.686H128.071V154.804H120.469V153.628H127.805V150.744H119.307V151.626H126.671V152.774ZM126.671 161.972H120.525V160.67H126.671V161.972ZM126.671 159.802H120.525V158.416H119.377V162.868H127.805V158.416H126.671V159.802ZM117.865 156.694V157.618H122.989V159.186H124.137V157.618H129.261V156.694H117.865ZM142.428 153.194V154.692H139.152V155.588H142.428V156.89H143.59V150.478H142.428V152.298H139.586C139.67 151.906 139.712 151.514 139.712 151.094H134.098V152.032H138.466C138.256 154.02 136.506 155.518 133.44 156.232L133.86 157.17C136.632 156.512 138.55 155.168 139.334 153.194H142.428ZM136.66 162V160.544H143.59V157.464H135.498V158.388H142.442V159.676H135.526V162.91H144.01V162H136.66ZM152.329 153.74V154.678H154.807V157.968H155.969V150.492H154.807V153.74H152.329ZM153.029 156.596C151.209 155.952 149.977 154.37 149.977 152.76V152.326H152.735V151.402H146.029V152.326H148.829V152.76C148.829 154.566 147.541 156.26 145.665 156.946L146.267 157.856C147.737 157.296 148.899 156.12 149.431 154.664C149.977 155.952 151.055 156.988 152.455 157.492L153.029 156.596ZM151.825 162.14C149.935 162.14 148.787 161.608 148.787 160.698C148.787 159.788 149.935 159.242 151.825 159.242C153.715 159.242 154.863 159.788 154.863 160.698C154.863 161.608 153.715 162.14 151.825 162.14ZM151.825 158.36C149.249 158.36 147.639 159.214 147.639 160.698C147.639 162.182 149.249 163.036 151.825 163.036C154.401 163.036 156.011 162.182 156.011 160.698C156.011 159.214 154.401 158.36 151.825 158.36ZM162.099 160.25C162.409 160.25 162.648 160.339 162.816 160.517C162.985 160.69 163.069 160.909 163.069 161.173C163.069 161.433 162.985 161.649 162.816 161.822C162.648 161.991 162.409 162.075 162.099 162.075C161.802 162.075 161.568 161.991 161.395 161.822C161.221 161.654 161.135 161.437 161.135 161.173C161.135 160.909 161.219 160.69 161.388 160.517C161.556 160.339 161.793 160.25 162.099 160.25ZM162.099 154.446C162.409 154.446 162.648 154.535 162.816 154.713C162.985 154.886 163.069 155.105 163.069 155.369C163.069 155.629 162.985 155.845 162.816 156.019C162.648 156.187 162.409 156.271 162.099 156.271C161.802 156.271 161.568 156.187 161.395 156.019C161.221 155.85 161.135 155.633 161.135 155.369C161.135 155.105 161.219 154.886 161.388 154.713C161.556 154.535 161.793 154.446 162.099 154.446ZM167.963 151.276V152.214H172.415C172.177 154.342 170.315 155.98 167.333 156.834L167.809 157.73C171.407 156.708 173.633 154.454 173.633 151.276H167.963ZM170.553 159.088H176.405V161.93H170.553V159.088ZM169.419 162.854H177.539V158.178H169.419V162.854ZM176.377 150.478V153.712H173.647V154.65H176.377V157.646H177.539V150.478H176.377ZM185.83 160.53V157.94H189.666V157.002H182.19V155.112H189.26V154.202H182.19V152.438H189.54V151.5H181.028V157.94H184.682V160.53H179.558V161.468H190.968V160.53H185.83ZM205.255 150.478H204.107V157.002H205.255V150.478ZM197.849 152.228H199.893V155.49C199.207 155.532 198.521 155.56 197.849 155.574V152.228ZM202.847 155.252C202.245 155.308 201.629 155.378 200.999 155.42V152.228H202.231V151.318H195.497V152.228H196.729V155.602C196.183 155.616 195.651 155.616 195.161 155.616L195.273 156.568C197.485 156.554 200.411 156.47 202.903 156.092L202.847 155.252ZM198.227 161.986V160.614H205.255V157.604H197.051V158.5H204.121V159.76H197.093V162.896H205.731V161.986H198.227ZM211.25 157.52C211.768 157.646 212.37 157.716 212.986 157.716C213.616 157.716 214.218 157.646 214.75 157.52V160.474H211.25V157.52ZM212.986 152.172C215.002 152.172 216.458 153.096 216.458 154.496C216.458 155.896 215.002 156.82 212.986 156.82C210.97 156.82 209.528 155.896 209.528 154.496C209.528 153.096 210.97 152.172 212.986 152.172ZM215.898 160.474V157.072C216.934 156.526 217.55 155.63 217.55 154.496C217.55 152.536 215.66 151.276 212.986 151.276C210.326 151.276 208.422 152.536 208.422 154.496C208.422 155.63 209.052 156.54 210.102 157.086V160.474H207.302V161.426H218.712V160.474H215.898ZM220.04 164.242L219.145 163.709C219.409 163.294 219.589 162.932 219.685 162.622C219.785 162.317 219.837 162.005 219.842 161.686V160.394H221.339L221.332 161.59C221.327 162.073 221.204 162.556 220.963 163.039C220.726 163.527 220.418 163.928 220.04 164.242ZM91.256 172.288H87.882V168.578H91.102V167.654H86.734V173.226H91.256V172.288ZM86.09 171.938C84.956 172.19 83.92 172.26 82.87 172.274V168.606H85.964V167.668H81.736V173.226H82.422C83.696 173.226 84.83 173.184 86.202 172.876L86.09 171.938ZM86.986 176.488V173.842H85.838V176.488H80.742V177.426H92.138V176.488H86.986ZM103.187 170.258H95.7949V166.94H94.6469V171.196H103.187V170.258ZM95.7109 175.06H94.5629V178.728H103.257V177.79H95.7109V175.06ZM93.1069 172.876V173.8H104.489V172.876H93.1069ZM113.657 167.999V169.373H113.452C112.522 169.387 111.78 169.642 111.224 170.139C110.668 170.635 110.337 171.34 110.232 172.251C110.766 171.69 111.447 171.41 112.276 171.41C113.156 171.41 113.849 171.72 114.354 172.34C114.865 172.96 115.12 173.759 115.12 174.739C115.12 175.751 114.822 176.571 114.225 177.2C113.632 177.825 112.853 178.137 111.887 178.137C110.893 178.137 110.087 177.77 109.467 177.036C108.852 176.302 108.544 175.341 108.544 174.151V173.584C108.544 171.839 108.968 170.471 109.815 169.482C110.668 168.493 111.891 167.999 113.486 167.999H113.657ZM111.873 172.75C111.508 172.75 111.174 172.853 110.868 173.058C110.567 173.263 110.346 173.536 110.205 173.878V174.384C110.205 175.122 110.36 175.71 110.67 176.147C110.98 176.58 111.381 176.797 111.873 176.797C112.365 176.797 112.755 176.612 113.042 176.243C113.329 175.874 113.473 175.389 113.473 174.787C113.473 174.186 113.327 173.696 113.035 173.317C112.743 172.939 112.356 172.75 111.873 172.75ZM116.419 168.102V169.04H120.185C120.017 171.644 118.827 173.912 115.943 175.522L116.615 176.348C120.185 174.332 121.319 171.336 121.319 168.102H116.419ZM125.491 166.478V171.532H123.783V166.814H122.705V178.406H123.783V172.47H125.491V179.036H126.597V166.478H125.491ZM134.958 172.456V173.212H137.45V173.87H138.598V166.492H137.45V172.456H134.958ZM132.34 167.528C133.572 167.528 134.356 167.948 134.356 168.62C134.356 169.264 133.572 169.698 132.34 169.698C131.122 169.698 130.324 169.264 130.324 168.62C130.324 167.948 131.122 167.528 132.34 167.528ZM132.34 170.482C134.202 170.482 135.434 169.768 135.434 168.62C135.434 167.444 134.202 166.73 132.34 166.73C130.478 166.73 129.246 167.444 129.246 168.62C129.246 169.768 130.478 170.482 132.34 170.482ZM131.696 173.912H132.844V171.98C134.062 171.91 135.308 171.812 136.526 171.644L136.456 170.888C133.768 171.196 130.702 171.21 128.28 171.21L128.42 172.078C129.428 172.078 130.534 172.064 131.696 172.036V173.912ZM131.346 178.042V176.95H138.598V174.332H130.184V175.158H137.478V176.166H130.212V178.896H139.032V178.042H131.346ZM149.371 178.14C147.383 178.14 146.221 177.65 146.221 176.768C146.221 175.886 147.383 175.396 149.371 175.396C151.331 175.396 152.493 175.886 152.493 176.768C152.493 177.65 151.331 178.14 149.371 178.14ZM149.371 174.5C146.683 174.5 145.059 175.312 145.059 176.768C145.059 178.224 146.683 179.036 149.371 179.036C152.031 179.036 153.655 178.224 153.655 176.768C153.655 175.312 152.031 174.5 149.371 174.5ZM149.945 172.68V171.224H153.725V170.3H146.263V167.976H153.641V167.052H145.115V171.224H148.797V172.68H143.687V173.604H155.055V172.68H149.945ZM157.424 170.454C157.424 169.222 158.348 168.354 159.58 168.354C160.812 168.354 161.736 169.222 161.736 170.454C161.736 171.686 160.812 172.554 159.58 172.554C158.348 172.554 157.424 171.686 157.424 170.454ZM162.856 170.454C162.856 168.634 161.456 167.36 159.58 167.36C157.704 167.36 156.304 168.634 156.304 170.454C156.304 172.274 157.704 173.548 159.58 173.548C161.456 173.548 162.856 172.274 162.856 170.454ZM159.146 174.78H157.998V178.756H166.37V177.818H159.146V174.78ZM165.81 170.3V166.478H164.662V175.718H165.81V171.252H167.658V170.3H165.81ZM180.615 169.712V171.49H177.717V169.712H180.615ZM176.583 172.708H173.195V170.44H176.583V172.708ZM177.717 172.428H180.615V175.774H181.777V166.492H180.615V168.788H177.717V167.318H176.583V169.53H173.195V167.318H172.061V173.632H177.717V172.428ZM174.847 177.818V174.864H173.699V178.756H182.071V177.818H174.847ZM192.994 169.726V171.406H189.704V172.344H192.994V173.996H194.156V166.492H192.994V168.788H190.152C190.236 168.354 190.292 167.892 190.292 167.43H184.622V168.354H189.046C188.836 170.524 186.974 172.19 183.978 173.086L184.44 173.996C187.142 173.212 189.046 171.742 189.858 169.726H192.994ZM190.054 178.084C188.206 178.084 187.03 177.51 187.03 176.558C187.03 175.62 188.206 175.046 190.054 175.046C191.902 175.046 193.078 175.62 193.078 176.558C193.078 177.51 191.902 178.084 190.054 178.084ZM190.054 174.136C187.52 174.136 185.896 175.046 185.896 176.558C185.896 178.07 187.52 178.98 190.054 178.98C192.588 178.98 194.212 178.07 194.212 176.558C194.212 175.046 192.588 174.136 190.054 174.136ZM203.894 177.972H201.682V176.278H203.894V177.972ZM203.894 175.424H201.682V173.842H200.604V178.868H204.958V173.842H203.894V175.424ZM202.606 171.868C201.36 171.868 200.464 171.056 200.464 169.922C200.464 168.788 201.36 167.99 202.606 167.99C203.852 167.99 204.748 168.788 204.748 169.922C204.748 171.056 203.852 171.868 202.606 171.868ZM208.36 170.37V173.128H209.522V166.492H208.36V169.432H205.798C205.56 167.99 204.3 167.038 202.606 167.038C200.73 167.038 199.372 168.2 199.372 169.922C199.372 171.644 200.73 172.82 202.606 172.82C204.328 172.82 205.588 171.84 205.812 170.37H208.36ZM208.514 173.758H207.394V174.822C207.394 176.11 206.61 177.468 205.112 178.112L205.7 178.98C206.792 178.504 207.548 177.636 207.954 176.614C208.332 177.65 209.088 178.504 210.222 178.98L210.796 178.112C209.298 177.524 208.514 176.152 208.514 174.822V173.758ZM217.225 166.758C214.508 166.758 212.815 167.64 212.815 169.138C212.815 170.622 214.508 171.504 217.225 171.504C219.941 171.504 221.635 170.622 221.635 169.138C221.635 167.64 219.941 166.758 217.225 166.758ZM217.225 167.668C219.213 167.668 220.459 168.214 220.459 169.138C220.459 170.062 219.213 170.608 217.225 170.608C215.237 170.608 213.991 170.062 213.991 169.138C213.991 168.214 215.237 167.668 217.225 167.668ZM212.955 174.738V178.868H221.523V174.738H212.955ZM220.403 175.648V177.944H214.075V175.648H220.403ZM211.555 172.582V173.506H222.909V172.582H211.555Z" fill="#222222"/>
<path d="M318.788 151.99C320.006 151.99 320.86 152.634 320.86 153.572C320.86 154.538 320.006 155.168 318.788 155.168C317.57 155.168 316.716 154.538 316.716 153.572C316.716 152.634 317.57 151.99 318.788 151.99ZM318.788 156.05C320.65 156.05 321.938 155.056 321.938 153.572C321.938 152.102 320.65 151.108 318.788 151.108C316.926 151.108 315.638 152.102 315.638 153.572C315.638 155.056 316.926 156.05 318.788 156.05ZM322.96 156.68C320.23 157.072 317.066 157.086 314.7 157.086L314.84 158.052C315.834 158.052 316.968 158.038 318.158 157.996V162.658H319.306V157.94C320.538 157.87 321.798 157.744 323.03 157.534L322.96 156.68ZM323.912 150.492V159.06H321.07V159.956H323.912V163.05H325.06V150.492H323.912ZM337.425 150.478H336.277V158.038H337.425V150.478ZM328.017 151.332V152.256H332.539C332.497 152.746 332.385 153.208 332.217 153.656L327.387 153.866L327.583 154.818L331.755 154.51C330.985 155.644 329.599 156.568 327.485 157.17L327.919 158.08C331.937 156.904 333.743 154.566 333.743 151.332H328.017ZM333.281 162.126C331.377 162.126 330.201 161.566 330.201 160.614C330.201 159.676 331.377 159.116 333.281 159.116C335.171 159.116 336.333 159.676 336.333 160.614C336.333 161.566 335.171 162.126 333.281 162.126ZM333.281 158.22C330.677 158.22 329.053 159.102 329.053 160.614C329.053 162.14 330.677 163.022 333.281 163.022C335.857 163.022 337.481 162.14 337.481 160.614C337.481 159.102 335.857 158.22 333.281 158.22ZM348.208 153.068C348.208 154.622 348.208 156.498 347.704 159.06L348.852 159.186C349.342 156.47 349.342 154.664 349.342 153.068V151.808H340.732V152.746H348.208V153.068ZM339.514 160.25V161.202H350.868V160.25H339.514ZM360.671 152.774H353.335V155.686H362.071V154.804H354.469V153.628H361.805V150.744H353.307V151.626H360.671V152.774ZM360.671 161.972H354.525V160.67H360.671V161.972ZM360.671 159.802H354.525V158.416H353.377V162.868H361.805V158.416H360.671V159.802ZM351.865 156.694V157.618H356.989V159.186H358.137V157.618H363.261V156.694H351.865ZM376.428 153.194V154.692H373.152V155.588H376.428V156.89H377.59V150.478H376.428V152.298H373.586C373.67 151.906 373.712 151.514 373.712 151.094H368.098V152.032H372.466C372.256 154.02 370.506 155.518 367.44 156.232L367.86 157.17C370.632 156.512 372.55 155.168 373.334 153.194H376.428ZM370.66 162V160.544H377.59V157.464H369.498V158.388H376.442V159.676H369.526V162.91H378.01V162H370.66ZM386.329 153.74V154.678H388.807V157.968H389.969V150.492H388.807V153.74H386.329ZM387.029 156.596C385.209 155.952 383.977 154.37 383.977 152.76V152.326H386.735V151.402H380.029V152.326H382.829V152.76C382.829 154.566 381.541 156.26 379.665 156.946L380.267 157.856C381.737 157.296 382.899 156.12 383.431 154.664C383.977 155.952 385.055 156.988 386.455 157.492L387.029 156.596ZM385.825 162.14C383.935 162.14 382.787 161.608 382.787 160.698C382.787 159.788 383.935 159.242 385.825 159.242C387.715 159.242 388.863 159.788 388.863 160.698C388.863 161.608 387.715 162.14 385.825 162.14ZM385.825 158.36C383.249 158.36 381.639 159.214 381.639 160.698C381.639 162.182 383.249 163.036 385.825 163.036C388.401 163.036 390.011 162.182 390.011 160.698C390.011 159.214 388.401 158.36 385.825 158.36ZM392.347 164.242L391.451 163.709C391.715 163.294 391.896 162.932 391.991 162.622C392.091 162.317 392.144 162.005 392.148 161.686V160.394H393.646L393.639 161.59C393.634 162.073 393.511 162.556 393.27 163.039C393.033 163.527 392.725 163.928 392.347 164.242ZM321 172.708C319.404 172.106 318.452 170.678 318.452 169.194V169.054H320.692V168.13H318.452V166.618H317.36V168.13H315.092V169.054H317.36V169.194C317.36 170.776 316.436 172.302 314.84 172.96L315.4 173.8C316.646 173.282 317.514 172.274 317.92 171.042C318.368 172.176 319.236 173.1 320.454 173.59L321 172.708ZM316.898 175.788H324.192V179.036H325.34V174.85H316.898V175.788ZM324.234 166.492V169.838H322.652V166.702H321.574V174.108H322.652V170.776H324.234V174.192H325.34V166.492H324.234ZM336.277 166.492V173.674H337.425V166.492H336.277ZM329.305 174.346V178.868H337.425V174.346H329.305ZM336.305 175.256V177.944H330.425V175.256H336.305ZM330.677 167.15C328.787 167.15 327.415 168.34 327.415 170.076C327.415 171.812 328.787 173.002 330.677 173.002C332.581 173.002 333.967 171.812 333.967 170.076C333.967 168.34 332.581 167.15 330.677 167.15ZM330.677 168.102C331.937 168.102 332.847 168.928 332.847 170.076C332.847 171.238 331.937 172.05 330.677 172.05C329.431 172.05 328.535 171.238 328.535 170.076C328.535 168.928 329.431 168.102 330.677 168.102ZM343.728 168.718H346.514V167.766H339.724V168.718H342.594V170.314C342.594 172.442 341.082 174.822 339.29 175.718L339.962 176.628C341.376 175.9 342.594 174.304 343.168 172.47C343.742 174.15 344.918 175.62 346.318 176.32L346.976 175.396C345.156 174.542 343.728 172.316 343.728 170.314V168.718ZM351.232 171.546H349.16V166.492H348.012V179.036H349.16V172.512H351.232V171.546ZM365.561 170.58C363.335 170.258 361.137 168.844 361.137 167.248V166.688H359.961V167.248C359.961 168.886 357.777 170.258 355.537 170.58L355.957 171.476C357.903 171.168 359.765 170.174 360.549 168.732C361.347 170.16 363.195 171.168 365.127 171.476L365.561 170.58ZM360.549 178.14C358.561 178.14 357.399 177.664 357.399 176.796C357.399 175.942 358.561 175.452 360.549 175.452C362.509 175.452 363.671 175.942 363.671 176.796C363.671 177.664 362.509 178.14 360.549 178.14ZM360.549 174.57C357.861 174.57 356.237 175.368 356.237 176.796C356.237 178.238 357.861 179.036 360.549 179.036C363.223 179.036 364.833 178.238 364.833 176.796C364.833 175.368 363.223 174.57 360.549 174.57ZM354.865 172.47V173.408H366.219V172.47H354.865ZM377.548 166.492H376.4V175.662H377.548V166.492ZM368.658 170.44C368.658 169.222 369.582 168.354 370.8 168.354C372.046 168.354 372.97 169.222 372.97 170.44C372.97 171.686 372.046 172.554 370.8 172.554C369.582 172.554 368.658 171.686 368.658 170.44ZM374.09 170.44C374.09 168.634 372.676 167.36 370.8 167.36C368.938 167.36 367.538 168.634 367.538 170.44C367.538 172.26 368.938 173.548 370.8 173.548C372.676 173.548 374.09 172.26 374.09 170.44ZM370.618 177.818V174.724H369.47V178.756H377.926V177.818H370.618Z" fill="#222222"/>
<path d="M420.12 223.708C418.524 223.106 417.572 221.678 417.572 220.194V220.054H419.812V219.13H417.572V217.618H416.48V219.13H414.212V220.054H416.48V220.194C416.48 221.776 415.556 223.302 413.96 223.96L414.52 224.8C415.766 224.282 416.634 223.274 417.04 222.042C417.488 223.176 418.356 224.1 419.574 224.59L420.12 223.708ZM416.018 226.788H423.312V230.036H424.46V225.85H416.018V226.788ZM423.354 217.492V220.838H421.772V217.702H420.694V225.108H421.772V221.776H423.354V225.192H424.46V217.492H423.354ZM435.397 217.492V224.674H436.545V217.492H435.397ZM428.425 225.346V229.868H436.545V225.346H428.425ZM435.425 226.256V228.944H429.545V226.256H435.425ZM429.797 218.15C427.907 218.15 426.535 219.34 426.535 221.076C426.535 222.812 427.907 224.002 429.797 224.002C431.701 224.002 433.087 222.812 433.087 221.076C433.087 219.34 431.701 218.15 429.797 218.15ZM429.797 219.102C431.057 219.102 431.967 219.928 431.967 221.076C431.967 222.238 431.057 223.05 429.797 223.05C428.551 223.05 427.655 222.238 427.655 221.076C427.655 219.928 428.551 219.102 429.797 219.102ZM442.848 219.718H445.634V218.766H438.844V219.718H441.714V221.314C441.714 223.442 440.202 225.822 438.41 226.718L439.082 227.628C440.496 226.9 441.714 225.304 442.288 223.47C442.862 225.15 444.038 226.62 445.438 227.32L446.096 226.396C444.276 225.542 442.848 223.316 442.848 221.314V219.718ZM450.352 222.546H448.28V217.492H447.132V230.036H448.28V223.512H450.352V222.546ZM455.073 218.402C453.127 218.402 451.713 219.592 451.713 221.356C451.713 223.106 453.127 224.31 455.073 224.31C457.033 224.31 458.433 223.106 458.433 221.356C458.433 219.592 457.033 218.402 455.073 218.402ZM455.073 219.382C456.375 219.382 457.313 220.18 457.313 221.356C457.313 222.518 456.375 223.33 455.073 223.33C453.785 223.33 452.833 222.518 452.833 221.356C452.833 220.18 453.785 219.382 455.073 219.382ZM460.085 217.478V230.064H461.233V217.478H460.085ZM451.223 227.306C453.491 227.306 456.529 227.278 459.357 226.76L459.259 225.906C456.515 226.326 453.365 226.34 451.083 226.34L451.223 227.306ZM477.06 221.58C474.834 221.258 472.636 219.844 472.636 218.248V217.688H471.46V218.248C471.46 219.886 469.276 221.258 467.036 221.58L467.456 222.476C469.402 222.168 471.264 221.174 472.048 219.732C472.846 221.16 474.694 222.168 476.626 222.476L477.06 221.58ZM472.048 229.14C470.06 229.14 468.898 228.664 468.898 227.796C468.898 226.942 470.06 226.452 472.048 226.452C474.008 226.452 475.17 226.942 475.17 227.796C475.17 228.664 474.008 229.14 472.048 229.14ZM472.048 225.57C469.36 225.57 467.736 226.368 467.736 227.796C467.736 229.238 469.36 230.036 472.048 230.036C474.722 230.036 476.332 229.238 476.332 227.796C476.332 226.368 474.722 225.57 472.048 225.57ZM466.364 223.47V224.408H477.718V223.47H466.364ZM489.047 217.492H487.899V226.662H489.047V217.492ZM480.157 221.44C480.157 220.222 481.081 219.354 482.299 219.354C483.545 219.354 484.469 220.222 484.469 221.44C484.469 222.686 483.545 223.554 482.299 223.554C481.081 223.554 480.157 222.686 480.157 221.44ZM485.589 221.44C485.589 219.634 484.175 218.36 482.299 218.36C480.437 218.36 479.037 219.634 479.037 221.44C479.037 223.26 480.437 224.548 482.299 224.548C484.175 224.548 485.589 223.26 485.589 221.44ZM482.117 228.818V225.724H480.969V229.756H489.425V228.818H482.117Z" fill="#4961DD"/>
<path d="M616.401 214.718H619.187V213.766H612.397V214.718H615.267V216.314C615.267 218.442 613.755 220.822 611.963 221.718L612.635 222.628C614.049 221.9 615.267 220.304 615.841 218.47C616.415 220.15 617.591 221.62 618.991 222.32L619.649 221.396C617.829 220.542 616.401 218.316 616.401 216.314V214.718ZM623.905 217.546H621.833V212.492H620.685V225.036H621.833V218.512H623.905V217.546ZM633.316 216.552H627.128V213.99H633.316V216.552ZM634.45 213.066H626.008V217.476H634.45V213.066ZM627.128 221.172H625.98V224.756H634.66V223.818H627.128V221.172ZM624.524 218.904V219.828H629.746V222.362H630.894V219.828H635.934V218.904H624.524ZM641.046 214.018C642.264 214.018 643.132 214.676 643.132 215.656C643.132 216.636 642.264 217.294 641.046 217.294C639.814 217.294 638.946 216.636 638.946 215.656C638.946 214.676 639.814 214.018 641.046 214.018ZM641.046 218.232C642.908 218.232 644.238 217.182 644.238 215.656C644.238 214.116 642.908 213.066 641.046 213.066C639.17 213.066 637.84 214.116 637.84 215.656C637.84 217.182 639.17 218.232 641.046 218.232ZM645.176 218.848C642.418 219.268 639.24 219.296 636.902 219.296L637.056 220.262C638.092 220.262 639.282 220.248 640.528 220.192V224.644H641.676V220.122C642.866 220.052 644.084 219.912 645.274 219.702L645.176 218.848ZM646.086 212.492V225.05H647.234V212.492H646.086ZM655.889 219.898V220.752H658.437V222.04H659.585V212.478H658.437V219.898H655.889ZM653.327 213.836C654.517 213.836 655.329 214.368 655.329 215.166C655.329 215.978 654.517 216.51 653.327 216.51C652.137 216.51 651.325 215.978 651.325 215.166C651.325 214.368 652.137 213.836 653.327 213.836ZM653.327 217.364C655.161 217.364 656.421 216.51 656.421 215.166C656.421 213.85 655.161 212.982 653.327 212.982C651.493 212.982 650.233 213.85 650.233 215.166C650.233 216.51 651.493 217.364 653.327 217.364ZM652.879 221.592H654.027V219.114C655.161 219.044 656.323 218.918 657.429 218.75L657.331 217.924C654.671 218.26 651.563 218.288 649.239 218.288L649.393 219.24C650.429 219.24 651.633 219.226 652.879 219.17V221.592ZM652.179 223.818V221.102H651.031V224.756H659.907V223.818H652.179ZM669.654 214.018H666.42V212.478H665.272V214.018H662.024V214.942H669.654V214.018ZM663.914 217.98C663.914 217.098 664.698 216.538 665.846 216.538C666.98 216.538 667.764 217.098 667.764 217.98C667.764 218.848 666.98 219.408 665.846 219.408C664.698 219.408 663.914 218.848 663.914 217.98ZM666.42 220.276C667.904 220.094 668.856 219.226 668.856 217.98C668.856 216.566 667.638 215.656 665.846 215.656C664.054 215.656 662.822 216.566 662.822 217.98C662.822 219.24 663.788 220.108 665.272 220.29V221.634C664.026 221.676 662.822 221.69 661.758 221.69L661.926 222.656C664.236 222.656 667.26 222.614 670.06 222.152L669.976 221.298C668.828 221.452 667.61 221.536 666.42 221.592V220.276ZM670.774 212.478V225.036H671.922V212.478H670.774ZM677.824 213.276V214.214H682.276C682.038 216.342 680.176 217.98 677.194 218.834L677.67 219.73C681.268 218.708 683.494 216.454 683.494 213.276H677.824ZM680.414 221.088H686.266V223.93H680.414V221.088ZM679.28 224.854H687.4V220.178H679.28V224.854ZM686.238 212.478V215.712H683.508V216.65H686.238V219.646H687.4V212.478H686.238ZM695.69 222.53V219.94H699.526V219.002H692.05V217.112H699.12V216.202H692.05V214.438H699.4V213.5H690.888V219.94H694.542V222.53H689.418V223.468H700.828V222.53H695.69ZM630.81 234.708C629.214 234.106 628.262 232.678 628.262 231.194V231.054H630.502V230.13H628.262V228.618H627.17V230.13H624.902V231.054H627.17V231.194C627.17 232.776 626.246 234.302 624.65 234.96L625.21 235.8C626.456 235.282 627.324 234.274 627.73 233.042C628.178 234.176 629.046 235.1 630.264 235.59L630.81 234.708ZM626.708 237.788H634.002V241.036H635.15V236.85H626.708V237.788ZM634.044 228.492V231.838H632.462V228.702H631.384V236.108H632.462V232.776H634.044V236.192H635.15V228.492H634.044ZM646.086 228.492V235.674H647.234V228.492H646.086ZM639.114 236.346V240.868H647.234V236.346H639.114ZM646.114 237.256V239.944H640.234V237.256H646.114ZM640.486 229.15C638.596 229.15 637.224 230.34 637.224 232.076C637.224 233.812 638.596 235.002 640.486 235.002C642.39 235.002 643.776 233.812 643.776 232.076C643.776 230.34 642.39 229.15 640.486 229.15ZM640.486 230.102C641.746 230.102 642.656 230.928 642.656 232.076C642.656 233.238 641.746 234.05 640.486 234.05C639.24 234.05 638.344 233.238 638.344 232.076C638.344 230.928 639.24 230.102 640.486 230.102ZM653.537 230.718H656.323V229.766H649.533V230.718H652.403V232.314C652.403 234.442 650.891 236.822 649.099 237.718L649.771 238.628C651.185 237.9 652.403 236.304 652.977 234.47C653.551 236.15 654.727 237.62 656.127 238.32L656.785 237.396C654.965 236.542 653.537 234.316 653.537 232.314V230.718ZM661.041 233.546H658.969V228.492H657.821V241.036H658.969V234.512H661.041V233.546ZM673.859 231.194V232.692H670.583V233.588H673.859V234.89H675.021V228.478H673.859V230.298H671.017C671.101 229.906 671.143 229.514 671.143 229.094H665.529V230.032H669.897C669.687 232.02 667.937 233.518 664.871 234.232L665.291 235.17C668.063 234.512 669.981 233.168 670.765 231.194H673.859ZM668.091 240V238.544H675.021V235.464H666.929V236.388H673.873V237.676H666.957V240.91H675.441V240H668.091ZM683.76 231.74V232.678H686.238V235.968H687.4V228.492H686.238V231.74H683.76ZM684.46 234.596C682.64 233.952 681.408 232.37 681.408 230.76V230.326H684.166V229.402H677.46V230.326H680.26V230.76C680.26 232.566 678.972 234.26 677.096 234.946L677.698 235.856C679.168 235.296 680.33 234.12 680.862 232.664C681.408 233.952 682.486 234.988 683.886 235.492L684.46 234.596ZM683.256 240.14C681.366 240.14 680.218 239.608 680.218 238.698C680.218 237.788 681.366 237.242 683.256 237.242C685.146 237.242 686.294 237.788 686.294 238.698C686.294 239.608 685.146 240.14 683.256 240.14ZM683.256 236.36C680.68 236.36 679.07 237.214 679.07 238.698C679.07 240.182 680.68 241.036 683.256 241.036C685.832 241.036 687.442 240.182 687.442 238.698C687.442 237.214 685.832 236.36 683.256 236.36Z" fill="#4961DD"/>
<path d="M152 291L146.226 301H157.774L152 291ZM151 297.72V303.48H153V297.72H151ZM151 307.32V313.08H153V307.32H151ZM151 316.92V322.68H153V316.92H151ZM151 326.52V332.28H153V326.52H151ZM151 336.12V339H153V336.12H151ZM151 339C151 339.883 151.104 340.743 151.302 341.568L153.247 341.103C153.086 340.429 153 339.725 153 339H151ZM152.62 344.749C153.527 346.226 154.774 347.473 156.251 348.38L157.298 346.676C156.088 345.933 155.067 344.912 154.324 343.702L152.62 344.749ZM159.432 349.698C160.257 349.896 161.117 350 162 350V348C161.275 348 160.571 347.914 159.897 347.753L159.432 349.698ZM162 350H165.032V348H162V350ZM169.074 350H175.137V348H169.074V350ZM179.179 350H185.242V348H179.179V350ZM189.284 350H195.347V348H189.284V350ZM199.389 350H205.453V348H199.389V350ZM209.495 350H215.558V348H209.495V350ZM219.6 350H225.663V348H219.6V350ZM229.705 350H235.768V348H229.705V350ZM239.811 350H245.874V348H239.811V350ZM249.916 350H255.979V348H249.916V350ZM260.021 350H266.084V348H260.021V350ZM270.126 350H276.189V348H270.126V350ZM280.232 350H286.295V348H280.232V350ZM290.337 350H296.4V348H290.337V350ZM300.442 350H306.505V348H300.442V350ZM310.547 350H316.611V348H310.547V350ZM320.653 350H326.716V348H320.653V350ZM330.758 350H336.821V348H330.758V350ZM340.863 350H346.926V348H340.863V350ZM350.968 350H357.032V348H350.968V350ZM361.074 350H367.137V348H361.074V350ZM371.179 350H377.242V348H371.179V350ZM381.284 350H387.347V348H381.284V350ZM391.389 350H397.453V348H391.389V350ZM401.495 350H407.558V348H401.495V350ZM411.6 350H417.663V348H411.6V350ZM421.705 350H427.768V348H421.705V350ZM431.81 350H437.874V348H431.81V350ZM441.916 350H447.979V348H441.916V350ZM452.021 350H458.084V348H452.021V350ZM462.126 350H468.189V348H462.126V350ZM472.232 350H478.295V348H472.232V350ZM482.337 350H488.4V348H482.337V350ZM492.442 350H498.505V348H492.442V350ZM502.547 350H508.611V348H502.547V350ZM512.653 350H518.716V348H512.653V350ZM522.758 350H528.821V348H522.758V350ZM532.863 350H538.926V348H532.863V350ZM542.969 350H546V348H542.969V350ZM546 350C546.883 350 547.743 349.896 548.568 349.698L548.103 347.753C547.429 347.914 546.725 348 546 348V350ZM551.749 348.38C553.226 347.473 554.473 346.226 555.38 344.749L553.676 343.702C552.933 344.912 551.912 345.933 550.702 346.676L551.749 348.38ZM556.698 341.568C556.896 340.743 557 339.883 557 339H555C555 339.725 554.914 340.429 554.753 341.103L556.698 341.568ZM557 339V335.94H555V339H557ZM557 331.86V325.74H555V331.86H557ZM557 321.66V315.54H555V321.66H557ZM557 311.46V305.34H555V311.46H557ZM557 301.26V295.14H555V301.26H557ZM557 291.06V288H555V291.06H557Z" fill="#F12323"/>
<path d="M201 251C201 261.114 195.608 270.342 186.75 277.074C177.891 283.807 165.609 288 152 288C138.391 288 126.109 283.807 117.25 277.074C108.392 270.342 103 261.114 103 251C103 240.886 108.392 231.658 117.25 224.926C126.109 218.193 138.391 214 152 214C165.609 214 177.891 218.193 186.75 224.926C195.608 231.658 201 240.886 201 251Z" fill="white" stroke="#222222" stroke-width="2"/>
<path d="M138.561 254.173L138.916 256.61L139.437 254.414L143.093 241.516H145.149L148.717 254.414L149.225 256.648L149.618 254.16L152.487 241.516H154.938L150.456 260H148.234L144.426 246.53L144.134 245.121L143.842 246.53L139.894 260H137.672L133.203 241.516H135.641L138.561 254.173ZM157.654 260V241.516H162.872C164.48 241.516 165.902 241.871 167.138 242.582C168.373 243.293 169.326 244.304 169.994 245.616C170.671 246.928 171.014 248.435 171.022 250.136V251.316C171.022 253.06 170.684 254.588 170.007 255.899C169.338 257.211 168.378 258.218 167.125 258.921C165.881 259.623 164.429 259.983 162.771 260H157.654ZM160.092 243.521V258.007H162.656C164.535 258.007 165.995 257.423 167.036 256.255C168.086 255.087 168.61 253.424 168.61 251.266V250.187C168.61 248.088 168.115 246.458 167.125 245.299C166.143 244.131 164.747 243.538 162.936 243.521H160.092Z" fill="#222222"/>
<path d="M402 251C402 260.354 397.018 269.038 388.54 275.482C380.06 281.927 368.211 286 355 286C341.789 286 329.94 281.927 321.46 275.482C312.982 269.038 308 260.354 308 251C308 241.646 312.982 232.962 321.46 226.518C329.94 220.073 341.789 216 355 216C368.211 216 380.06 220.073 388.54 226.518C397.018 232.962 402 241.646 402 251Z" fill="white" stroke="#222222" stroke-width="6"/>
<path d="M354.764 254.135C354.535 256.09 353.812 257.601 352.593 258.667C351.382 259.725 349.77 260.254 347.756 260.254C345.572 260.254 343.82 259.471 342.5 257.905C341.188 256.34 340.532 254.245 340.532 251.621V249.844C340.532 248.126 340.837 246.615 341.446 245.312C342.064 244.008 342.936 243.009 344.062 242.315C345.187 241.613 346.491 241.262 347.972 241.262C349.935 241.262 351.509 241.812 352.694 242.912C353.879 244.004 354.569 245.519 354.764 247.457H352.313C352.102 245.984 351.641 244.918 350.93 244.258C350.227 243.598 349.241 243.268 347.972 243.268C346.414 243.268 345.191 243.843 344.303 244.994C343.423 246.145 342.982 247.783 342.982 249.907V251.697C342.982 253.703 343.401 255.299 344.239 256.483C345.077 257.668 346.249 258.261 347.756 258.261C349.11 258.261 350.147 257.956 350.866 257.347C351.594 256.729 352.076 255.658 352.313 254.135H354.764ZM364.882 252.522H360.54V260H358.09V241.516H364.209C366.291 241.516 367.891 241.99 369.008 242.938C370.133 243.885 370.696 245.265 370.696 247.076C370.696 248.227 370.383 249.23 369.757 250.085C369.139 250.94 368.276 251.579 367.167 252.002L371.509 259.848V260H368.894L364.882 252.522ZM360.54 250.529H364.285C365.495 250.529 366.456 250.216 367.167 249.59C367.886 248.964 368.246 248.126 368.246 247.076C368.246 245.934 367.903 245.058 367.218 244.448C366.541 243.839 365.559 243.53 364.272 243.521H360.54V250.529Z" fill="#222222"/>
<path d="M605 251C605 261.114 599.608 270.342 590.75 277.074C581.891 283.807 569.609 288 556 288C542.391 288 530.109 283.807 521.25 277.074C512.392 270.342 507 261.114 507 251C507 240.886 512.392 231.658 521.25 224.926C530.109 218.193 542.391 214 556 214C569.609 214 581.891 218.193 590.75 224.926C599.608 231.658 605 240.886 605 251Z" fill="white" stroke="#222222" stroke-width="2"/>
<path d="M544.871 252.764V260H542.434V241.516H549.251C551.274 241.516 552.856 242.032 553.999 243.064C555.15 244.097 555.726 245.464 555.726 247.165C555.726 248.959 555.163 250.343 554.037 251.316C552.92 252.281 551.316 252.764 549.226 252.764H544.871ZM544.871 250.771H549.251C550.554 250.771 551.553 250.466 552.247 249.856C552.941 249.239 553.288 248.35 553.288 247.19C553.288 246.09 552.941 245.21 552.247 244.55C551.553 243.89 550.601 243.547 549.391 243.521H544.871V250.771ZM565.615 252.522H561.273V260H558.823V241.516H564.942C567.024 241.516 568.624 241.99 569.741 242.938C570.867 243.885 571.43 245.265 571.43 247.076C571.43 248.227 571.117 249.23 570.49 250.085C569.872 250.94 569.009 251.579 567.9 252.002L572.242 259.848V260H569.627L565.615 252.522ZM561.273 250.529H565.019C566.229 250.529 567.189 250.216 567.9 249.59C568.62 248.964 568.979 248.126 568.979 247.076C568.979 245.934 568.637 245.058 567.951 244.448C567.274 243.839 566.292 243.53 565.006 243.521H561.273V250.529Z" fill="#222222"/>
<path d="M806 251C806 260.734 800.813 269.69 792.145 276.278C783.475 282.867 771.41 287 758 287C744.59 287 732.525 282.867 723.855 276.278C715.187 269.69 710 260.734 710 251C710 241.266 715.187 232.31 723.855 225.722C732.525 219.133 744.59 215 758 215C771.41 215 783.475 219.133 792.145 225.722C800.813 232.31 806 241.266 806 251Z" fill="white" stroke="#222222" stroke-width="4"/>
<path d="M743.058 252.522H738.716V260H736.266V241.516H742.385C744.467 241.516 746.066 241.99 747.184 242.938C748.309 243.885 748.872 245.265 748.872 247.076C748.872 248.227 748.559 249.23 747.933 250.085C747.315 250.94 746.451 251.579 745.343 252.002L749.685 259.848V260H747.069L743.058 252.522ZM738.716 250.529H742.461C743.671 250.529 744.632 250.216 745.343 249.59C746.062 248.964 746.422 248.126 746.422 247.076C746.422 245.934 746.079 245.058 745.394 244.448C744.716 243.839 743.735 243.53 742.448 243.521H738.716V250.529ZM762.748 251.456H754.737V258.007H764.043V260H752.3V241.516H763.916V243.521H754.737V249.463H762.748V251.456ZM780.674 254.135C780.445 256.09 779.722 257.601 778.503 258.667C777.293 259.725 775.68 260.254 773.666 260.254C771.482 260.254 769.73 259.471 768.41 257.905C767.098 256.34 766.442 254.245 766.442 251.621V249.844C766.442 248.126 766.747 246.615 767.356 245.312C767.974 244.008 768.846 243.009 769.972 242.315C771.097 241.613 772.401 241.262 773.882 241.262C775.845 241.262 777.42 241.812 778.604 242.912C779.789 244.004 780.479 245.519 780.674 247.457H778.224C778.012 245.984 777.551 244.918 776.84 244.258C776.137 243.598 775.151 243.268 773.882 243.268C772.325 243.268 771.102 243.843 770.213 244.994C769.333 246.145 768.893 247.783 768.893 249.907V251.697C768.893 253.703 769.312 255.299 770.149 256.483C770.987 257.668 772.16 258.261 773.666 258.261C775.02 258.261 776.057 257.956 776.776 257.347C777.504 256.729 777.987 255.658 778.224 254.135H780.674Z" fill="#222222"/>
<path d="M179 216L184.774 206H173.226L179 216ZM126 220V217.45H124V220H126ZM126 214.05V208.95H124V214.05H126ZM126 205.55V203H124V205.55H126ZM126 203C126 202.275 126.086 201.571 126.247 200.897L124.302 200.432C124.104 201.257 124 202.117 124 203H126ZM127.324 198.298C128.067 197.088 129.088 196.067 130.298 195.324L129.251 193.62C127.774 194.527 126.527 195.774 125.62 197.251L127.324 198.298ZM132.897 194.247C133.571 194.086 134.275 194 135 194V192C134.117 192 133.257 192.104 132.432 192.302L132.897 194.247ZM135 194H138.4V192H135V194ZM142.933 194H149.733V192H142.933V194ZM154.267 194H161.067V192H154.267V194ZM165.6 194H169V192H165.6V194ZM169 194C169.725 194 170.429 194.086 171.103 194.247L171.568 192.302C170.743 192.104 169.883 192 169 192V194ZM173.702 195.324C174.912 196.067 175.933 197.088 176.676 198.298L178.38 197.251C177.473 195.774 176.226 194.527 174.749 193.62L173.702 195.324ZM177.753 200.897C177.914 201.571 178 202.275 178 203H180C180 202.117 179.896 201.257 179.698 200.432L177.753 200.897ZM178 203V206.9H180V203H178Z" fill="black"/>
<path fill-rule="evenodd" clip-rule="evenodd" d="M338 195C337.354 195 336.728 195.076 336.13 195.219L335.199 191.329C336.1 191.114 337.038 191 338 191H341.4V195H338ZM352.733 195H345.933V191H352.733V195ZM364.067 195H357.267V191H364.067V195ZM372 195H368.6V191H372C372.962 191 373.9 191.114 374.801 191.329L373.87 195.219C373.272 195.076 372.646 195 372 195ZM333.821 196.177C332.745 196.837 331.837 197.745 331.177 198.821L327.768 196.728C328.758 195.116 330.116 193.758 331.728 192.768L333.821 196.177ZM378.823 198.821C378.163 197.745 377.255 196.837 376.179 196.177L378.272 192.768C379.884 193.758 381.242 195.116 382.232 196.728L378.823 198.821ZM330.219 201.13C330.076 201.728 330 202.354 330 203V205.4H326V203C326 202.038 326.114 201.1 326.329 200.199L330.219 201.13ZM380 203C380 202.354 379.924 201.728 379.781 201.13L383.671 200.199C383.886 201.1 384 202.038 384 203V206H380V203ZM330 208.6V213.4H326V208.6H330ZM388.547 206L382 216L375.453 206H388.547ZM330 216.6V221H326V216.6H330Z" fill="#222222"/>
<path fill-rule="evenodd" clip-rule="evenodd" d="M352.733 195H345.933V191H352.733V195ZM372 195H368.6V191H372C372.962 191 373.9 191.114 374.801 191.329L373.87 195.219C373.272 195.076 372.646 195 372 195ZM333.821 196.177C332.745 196.837 331.837 197.745 331.177 198.821L327.768 196.728C328.758 195.116 330.116 193.758 331.728 192.768L333.821 196.177ZM380 203C380 202.354 379.924 201.728 379.781 201.13L383.671 200.199C383.886 201.1 384 202.038 384 203V206H380V203ZM330 208.6V213.4H326V208.6H330ZM388.547 206L382 216L375.453 206H388.547Z" fill="#4961DD"/>
</svg>
