<svg width="636" height="386" viewBox="0 0 636 386" fill="none" xmlns="http://www.w3.org/2000/svg">
<path d="M245.695 179.853C245.695 173.368 247.232 168.147 250.305 164.188C253.404 160.23 257.57 158.251 262.805 158.251C267.44 158.251 271.047 159.84 273.625 163.017L274.094 159.032H284.328V199.892C284.328 203.59 283.482 206.806 281.789 209.54C280.122 212.274 277.766 214.358 274.719 215.79C271.672 217.222 268.104 217.938 264.016 217.938C260.917 217.938 257.896 217.313 254.953 216.063C252.01 214.84 249.784 213.251 248.273 211.298L253.273 204.423C256.086 207.574 259.497 209.149 263.508 209.149C266.503 209.149 268.833 208.342 270.5 206.728C272.167 205.139 273 202.873 273 199.931V197.665C270.396 200.608 266.971 202.079 262.727 202.079C257.648 202.079 253.534 200.1 250.383 196.142C247.258 192.157 245.695 186.884 245.695 180.321V179.853ZM256.984 180.673C256.984 184.501 257.753 187.509 259.289 189.696C260.826 191.858 262.935 192.938 265.617 192.938C269.055 192.938 271.516 191.649 273 189.071V171.298C271.49 168.72 269.055 167.431 265.695 167.431C262.987 167.431 260.852 168.537 259.289 170.751C257.753 172.965 256.984 176.272 256.984 180.673Z" fill="black"/>
<path d="M318.352 197.001C315.565 200.386 311.711 202.079 306.789 202.079C302.258 202.079 298.794 200.777 296.398 198.173C294.029 195.569 292.818 191.754 292.766 186.728V159.032H304.055V186.337C304.055 190.738 306.06 192.938 310.07 192.938C313.898 192.938 316.529 191.61 317.961 188.954V159.032H329.289V201.298H318.664L318.352 197.001Z" fill="black"/>
<path d="M349.719 201.298H338.391V141.298H349.719V201.298Z" fill="black"/>
<path d="M397.102 180.556C397.102 187.066 395.617 192.287 392.648 196.22C389.706 200.126 385.721 202.079 380.695 202.079C376.424 202.079 372.974 200.595 370.344 197.626V217.548H359.055V159.032H369.523L369.914 163.173C372.648 159.892 376.216 158.251 380.617 158.251C385.826 158.251 389.875 160.178 392.766 164.032C395.656 167.886 397.102 173.199 397.102 179.97V180.556ZM385.812 179.735C385.812 175.803 385.109 172.769 383.703 170.634C382.323 168.498 380.305 167.431 377.648 167.431C374.107 167.431 371.672 168.785 370.344 171.493V188.798C371.724 191.584 374.185 192.978 377.727 192.978C383.117 192.978 385.812 188.563 385.812 179.735Z" fill="black"/>
<path d="M404.719 195.751C404.719 193.954 405.318 192.496 406.516 191.376C407.74 190.256 409.263 189.696 411.086 189.696C412.935 189.696 414.458 190.256 415.656 191.376C416.88 192.496 417.492 193.954 417.492 195.751C417.492 197.522 416.893 198.967 415.695 200.087C414.497 201.181 412.961 201.728 411.086 201.728C409.237 201.728 407.714 201.181 406.516 200.087C405.318 198.967 404.719 197.522 404.719 195.751Z" fill="black"/>
<path d="M439.367 159.032V203.603C439.367 208.264 438.13 211.884 435.656 214.462C433.182 217.066 429.615 218.368 424.953 218.368C423 218.368 421.138 218.147 419.367 217.704V208.759C420.721 208.993 421.906 209.11 422.922 209.11C426.333 209.11 428.039 207.3 428.039 203.681V159.032H439.367ZM427.141 148.095C427.141 146.402 427.701 145.009 428.82 143.915C429.966 142.821 431.516 142.274 433.469 142.274C435.422 142.274 436.958 142.821 438.078 143.915C439.224 145.009 439.797 146.402 439.797 148.095C439.797 149.813 439.211 151.22 438.039 152.313C436.893 153.407 435.37 153.954 433.469 153.954C431.568 153.954 430.031 153.407 428.859 152.313C427.714 151.22 427.141 149.813 427.141 148.095Z" fill="black"/>
<path d="M471.086 189.618C471.086 188.238 470.396 187.157 469.016 186.376C467.661 185.569 465.474 184.853 462.453 184.228C452.401 182.118 447.375 177.847 447.375 171.415C447.375 167.665 448.924 164.54 452.023 162.04C455.148 159.514 459.224 158.251 464.25 158.251C469.615 158.251 473.898 159.514 477.102 162.04C480.331 164.566 481.945 167.847 481.945 171.884H470.656C470.656 170.269 470.135 168.941 469.094 167.899C468.052 166.832 466.424 166.298 464.211 166.298C462.31 166.298 460.839 166.728 459.797 167.587C458.755 168.446 458.234 169.54 458.234 170.868C458.234 172.118 458.82 173.134 459.992 173.915C461.19 174.67 463.195 175.334 466.008 175.907C468.82 176.454 471.19 177.079 473.117 177.782C479.081 179.97 482.062 183.759 482.062 189.149C482.062 193.004 480.409 196.129 477.102 198.524C473.794 200.894 469.523 202.079 464.289 202.079C460.747 202.079 457.596 201.454 454.836 200.204C452.102 198.928 449.953 197.196 448.391 195.009C446.828 192.795 446.047 190.412 446.047 187.86H456.75C456.854 189.866 457.596 191.402 458.977 192.47C460.357 193.537 462.206 194.071 464.523 194.071C466.685 194.071 468.312 193.668 469.406 192.86C470.526 192.027 471.086 190.946 471.086 189.618Z" fill="black"/>
<path d="M259.458 275.504H249.819L247.802 281.298H243.308L252.707 256.415H256.586L266.003 281.298H261.491L259.458 275.504ZM251.032 272.018H258.244L254.638 261.696L251.032 272.018Z" fill="black"/>
<path d="M282.358 258.312V262.807H285.622V265.883H282.358V276.205C282.358 276.911 282.495 277.424 282.768 277.743C283.053 278.051 283.554 278.205 284.272 278.205C284.75 278.205 285.235 278.148 285.725 278.034V281.247C284.779 281.509 283.868 281.64 282.99 281.64C279.8 281.64 278.205 279.879 278.205 276.359V265.883H275.163V262.807H278.205V258.312H282.358Z" fill="black"/>
<path d="M287.519 271.881C287.519 270.07 287.878 268.441 288.596 266.994C289.313 265.535 290.322 264.419 291.621 263.644C292.919 262.858 294.412 262.465 296.098 262.465C298.593 262.465 300.616 263.268 302.165 264.875C303.726 266.481 304.569 268.611 304.694 271.266L304.711 272.24C304.711 274.063 304.358 275.692 303.652 277.128C302.957 278.563 301.954 279.674 300.644 280.46C299.345 281.247 297.841 281.64 296.132 281.64C293.523 281.64 291.433 280.774 289.86 279.042C288.299 277.299 287.519 274.98 287.519 272.086V271.881ZM291.672 272.24C291.672 274.143 292.065 275.635 292.851 276.718C293.637 277.789 294.731 278.324 296.132 278.324C297.534 278.324 298.622 277.777 299.396 276.684C300.183 275.59 300.576 273.989 300.576 271.881C300.576 270.013 300.171 268.532 299.362 267.438C298.565 266.344 297.477 265.797 296.098 265.797C294.742 265.797 293.666 266.339 292.868 267.421C292.071 268.492 291.672 270.098 291.672 272.24Z" fill="black"/>
<path d="M307.446 271.881C307.446 270.07 307.805 268.441 308.522 266.994C309.24 265.535 310.249 264.419 311.547 263.644C312.846 262.858 314.339 262.465 316.025 262.465C318.52 262.465 320.542 263.268 322.092 264.875C323.653 266.481 324.496 268.611 324.621 271.266L324.638 272.24C324.638 274.063 324.285 275.692 323.579 277.128C322.884 278.563 321.881 279.674 320.571 280.46C319.272 281.247 317.768 281.64 316.059 281.64C313.45 281.64 311.359 280.774 309.787 279.042C308.226 277.299 307.446 274.98 307.446 272.086V271.881ZM311.599 272.24C311.599 274.143 311.992 275.635 312.778 276.718C313.564 277.789 314.658 278.324 316.059 278.324C317.46 278.324 318.549 277.777 319.323 276.684C320.109 275.59 320.502 273.989 320.502 271.881C320.502 270.013 320.098 268.532 319.289 267.438C318.492 266.344 317.403 265.797 316.025 265.797C314.669 265.797 313.592 266.339 312.795 267.421C311.997 268.492 311.599 270.098 311.599 272.24Z" fill="black"/>
<path d="M332.568 281.298H328.415V255.048H332.568V281.298Z" fill="black"/>
<path d="M343.112 273.368L341.267 275.265V281.298H337.114V255.048H341.267V270.189L342.565 268.566L347.675 262.807H352.666L345.795 270.514L353.4 281.298H348.598L343.112 273.368Z" fill="black"/>
<path d="M359.809 281.298H355.656V262.807H359.809V281.298ZM355.4 258.004C355.4 257.366 355.599 256.837 355.998 256.415C356.408 255.993 356.989 255.783 357.741 255.783C358.493 255.783 359.074 255.993 359.484 256.415C359.895 256.837 360.1 257.366 360.1 258.004C360.1 258.631 359.895 259.155 359.484 259.577C359.074 259.987 358.493 260.192 357.741 260.192C356.989 260.192 356.408 259.987 355.998 259.577C355.599 259.155 355.4 258.631 355.4 258.004Z" fill="black"/>
<path d="M369.55 258.312V262.807H372.814V265.883H369.55V276.205C369.55 276.911 369.687 277.424 369.96 277.743C370.245 278.051 370.747 278.205 371.464 278.205C371.943 278.205 372.427 278.148 372.917 278.034V281.247C371.971 281.509 371.06 281.64 370.183 281.64C366.993 281.64 365.397 279.879 365.397 276.359V265.883H362.355V262.807H365.397V258.312H369.55Z" fill="black"/>
<path d="M389.921 258.312V262.807H393.186V265.883H389.921V276.205C389.921 276.911 390.058 277.424 390.332 277.743C390.616 278.051 391.118 278.205 391.835 278.205C392.314 278.205 392.798 278.148 393.288 278.034V281.247C392.342 281.509 391.431 281.64 390.554 281.64C387.364 281.64 385.769 279.879 385.769 276.359V265.883H382.727V262.807H385.769V258.312H389.921Z" fill="black"/>
<path d="M395.083 271.881C395.083 270.07 395.441 268.441 396.159 266.994C396.877 265.535 397.885 264.419 399.184 263.644C400.483 262.858 401.975 262.465 403.662 262.465C406.157 262.465 408.179 263.268 409.729 264.875C411.289 266.481 412.132 268.611 412.258 271.266L412.275 272.24C412.275 274.063 411.922 275.692 411.215 277.128C410.52 278.563 409.518 279.674 408.208 280.46C406.909 281.247 405.405 281.64 403.696 281.64C401.087 281.64 398.996 280.774 397.424 279.042C395.863 277.299 395.083 274.98 395.083 272.086V271.881ZM399.235 272.24C399.235 274.143 399.628 275.635 400.415 276.718C401.201 277.789 402.294 278.324 403.696 278.324C405.097 278.324 406.185 277.777 406.96 276.684C407.746 275.59 408.139 273.989 408.139 271.881C408.139 270.013 407.735 268.532 406.926 267.438C406.128 266.344 405.04 265.797 403.662 265.797C402.306 265.797 401.229 266.339 400.432 267.421C399.634 268.492 399.235 270.098 399.235 272.24Z" fill="black"/>
<path d="M435.551 281.298C435.369 280.945 435.209 280.369 435.073 279.572C433.751 280.95 432.133 281.64 430.219 281.64C428.362 281.64 426.847 281.11 425.673 280.05C424.5 278.991 423.913 277.681 423.913 276.12C423.913 274.149 424.642 272.639 426.101 271.591C427.57 270.531 429.667 270.001 432.39 270.001H434.936V268.788C434.936 267.831 434.668 267.068 434.133 266.498C433.597 265.917 432.783 265.626 431.689 265.626C430.743 265.626 429.969 265.866 429.365 266.344C428.761 266.811 428.459 267.41 428.459 268.139H424.306C424.306 267.125 424.642 266.179 425.314 265.302C425.987 264.413 426.898 263.718 428.049 263.217C429.211 262.715 430.504 262.465 431.928 262.465C434.093 262.465 435.819 263.012 437.106 264.105C438.394 265.188 439.055 266.715 439.089 268.686V277.025C439.089 278.689 439.322 280.016 439.79 281.007V281.298H435.551ZM430.988 278.307C431.809 278.307 432.578 278.108 433.295 277.709C434.025 277.31 434.571 276.775 434.936 276.103V272.616H432.697C431.159 272.616 430.003 272.884 429.228 273.419C428.453 273.955 428.066 274.713 428.066 275.692C428.066 276.49 428.328 277.128 428.852 277.606C429.388 278.074 430.1 278.307 430.988 278.307Z" fill="black"/>
<path d="M454.641 279.486C453.422 280.922 451.69 281.64 449.445 281.64C447.44 281.64 445.919 281.053 444.882 279.879C443.857 278.706 443.344 277.008 443.344 274.787V262.807H447.497V274.735C447.497 277.082 448.471 278.256 450.419 278.256C452.436 278.256 453.798 277.532 454.504 276.085V262.807H458.657V281.298H454.743L454.641 279.486Z" fill="black"/>
<path d="M468.09 258.312V262.807H471.354V265.883H468.09V276.205C468.09 276.911 468.227 277.424 468.5 277.743C468.785 278.051 469.287 278.205 470.004 278.205C470.483 278.205 470.967 278.148 471.457 278.034V281.247C470.511 281.509 469.6 281.64 468.723 281.64C465.533 281.64 463.938 279.879 463.938 276.359V265.883H460.896V262.807H463.938V258.312H468.09Z" fill="black"/>
<path d="M473.251 271.881C473.251 270.07 473.61 268.441 474.328 266.994C475.046 265.535 476.054 264.419 477.353 263.644C478.652 262.858 480.144 262.465 481.831 262.465C484.326 262.465 486.348 263.268 487.897 264.875C489.458 266.481 490.301 268.611 490.427 271.266L490.444 272.24C490.444 274.063 490.091 275.692 489.384 277.128C488.689 278.563 487.687 279.674 486.376 280.46C485.078 281.247 483.574 281.64 481.865 281.64C479.256 281.64 477.165 280.774 475.593 279.042C474.032 277.299 473.251 274.98 473.251 272.086V271.881ZM477.404 272.24C477.404 274.143 477.797 275.635 478.583 276.718C479.37 277.789 480.463 278.324 481.865 278.324C483.266 278.324 484.354 277.777 485.129 276.684C485.915 275.59 486.308 273.989 486.308 271.881C486.308 270.013 485.904 268.532 485.095 267.438C484.297 266.344 483.209 265.797 481.831 265.797C480.475 265.797 479.398 266.339 478.601 267.421C477.803 268.492 477.404 270.098 477.404 272.24Z" fill="black"/>
<path d="M497.861 262.807L497.98 264.738C499.279 263.222 501.057 262.465 503.312 262.465C505.785 262.465 507.477 263.41 508.388 265.302C509.733 263.41 511.624 262.465 514.062 262.465C516.101 262.465 517.617 263.029 518.608 264.157C519.611 265.285 520.123 266.948 520.146 269.147V281.298H515.993V269.267C515.993 268.093 515.737 267.233 515.224 266.686C514.711 266.139 513.863 265.866 512.678 265.866C511.732 265.866 510.957 266.122 510.354 266.635C509.761 267.136 509.345 267.797 509.106 268.617L509.123 281.298H504.97V269.13C504.913 266.954 503.802 265.866 501.638 265.866C499.974 265.866 498.795 266.544 498.1 267.899V281.298H493.947V262.807H497.861Z" fill="black"/>
<path d="M535.458 281.298C535.276 280.945 535.117 280.369 534.98 279.572C533.658 280.95 532.041 281.64 530.126 281.64C528.269 281.64 526.754 281.11 525.581 280.05C524.407 278.991 523.82 277.681 523.82 276.12C523.82 274.149 524.549 272.639 526.008 271.591C527.478 270.531 529.574 270.001 532.297 270.001H534.843V268.788C534.843 267.831 534.576 267.068 534.04 266.498C533.505 265.917 532.69 265.626 531.596 265.626C530.651 265.626 529.876 265.866 529.272 266.344C528.668 266.811 528.366 267.41 528.366 268.139H524.213C524.213 267.125 524.549 266.179 525.222 265.302C525.894 264.413 526.805 263.718 527.956 263.217C529.118 262.715 530.411 262.465 531.835 262.465C534 262.465 535.726 263.012 537.014 264.105C538.301 265.188 538.962 266.715 538.996 268.686V277.025C538.996 278.689 539.23 280.016 539.697 281.007V281.298H535.458ZM530.896 278.307C531.716 278.307 532.485 278.108 533.203 277.709C533.932 277.31 534.479 276.775 534.843 276.103V272.616H532.604C531.066 272.616 529.91 272.884 529.135 273.419C528.361 273.955 527.973 274.713 527.973 275.692C527.973 276.49 528.235 277.128 528.759 277.606C529.295 278.074 530.007 278.307 530.896 278.307Z" fill="black"/>
<path d="M548.549 258.312V262.807H551.813V265.883H548.549V276.205C548.549 276.911 548.686 277.424 548.959 277.743C549.244 278.051 549.746 278.205 550.463 278.205C550.942 278.205 551.426 278.148 551.916 278.034V281.247C550.97 281.509 550.059 281.64 549.182 281.64C545.992 281.64 544.396 279.879 544.396 276.359V265.883H541.354V262.807H544.396V258.312H548.549Z" fill="black"/>
<path d="M563.144 281.64C560.512 281.64 558.376 280.814 556.735 279.162C555.106 277.498 554.292 275.288 554.292 272.531V272.018C554.292 270.172 554.645 268.526 555.351 267.079C556.069 265.621 557.071 264.487 558.359 263.678C559.646 262.869 561.082 262.465 562.666 262.465C565.183 262.465 567.126 263.268 568.493 264.875C569.872 266.481 570.561 268.754 570.561 271.693V273.368H558.479C558.604 274.895 559.111 276.103 560 276.991C560.9 277.88 562.028 278.324 563.383 278.324C565.286 278.324 566.835 277.555 568.032 276.017L570.271 278.153C569.53 279.258 568.539 280.119 567.297 280.734C566.066 281.338 564.682 281.64 563.144 281.64ZM562.648 265.797C561.509 265.797 560.586 266.196 559.88 266.994C559.185 267.791 558.741 268.902 558.547 270.326H566.459V270.019C566.368 268.629 565.998 267.58 565.349 266.874C564.699 266.156 563.799 265.797 562.648 265.797Z" fill="black"/>
<path d="M244.47 315.582C244.47 314.431 244.783 313.377 245.41 312.42C246.036 311.451 247.272 310.306 249.118 308.985C248.15 307.766 247.472 306.729 247.084 305.875C246.708 305.02 246.521 304.194 246.521 303.396C246.521 301.448 247.113 299.91 248.298 298.782C249.483 297.643 251.078 297.073 253.083 297.073C254.895 297.073 256.376 297.609 257.526 298.68C258.688 299.739 259.27 301.055 259.27 302.627C259.27 303.664 259.007 304.621 258.483 305.499C257.959 306.364 257.099 307.23 255.903 308.096L254.211 309.327L259.013 315C259.708 313.633 260.056 312.112 260.056 310.438H263.662C263.662 313.502 262.944 316.014 261.508 317.974L265.166 322.298H260.346L258.945 320.64C257.167 321.973 255.048 322.64 252.587 322.64C250.126 322.64 248.155 321.99 246.674 320.691C245.205 319.381 244.47 317.678 244.47 315.582ZM252.707 319.324C254.108 319.324 255.419 318.857 256.638 317.923L251.203 311.514L250.673 311.89C249.306 312.927 248.623 314.112 248.623 315.445C248.623 316.596 248.993 317.53 249.733 318.248C250.474 318.965 251.465 319.324 252.707 319.324ZM250.417 303.294C250.417 304.251 251.004 305.453 252.177 306.9L254.074 305.601L254.604 305.174C255.31 304.547 255.664 303.744 255.664 302.764C255.664 302.115 255.419 301.562 254.929 301.106C254.439 300.639 253.818 300.406 253.066 300.406C252.257 300.406 251.613 300.679 251.135 301.226C250.656 301.773 250.417 302.462 250.417 303.294Z" fill="black"/>
<path d="M284.375 322.64C281.743 322.64 279.606 321.814 277.966 320.162C276.337 318.498 275.522 316.288 275.522 313.531V313.018C275.522 311.172 275.875 309.526 276.582 308.079C277.299 306.621 278.302 305.487 279.589 304.678C280.877 303.869 282.312 303.465 283.896 303.465C286.414 303.465 288.356 304.268 289.724 305.875C291.102 307.481 291.792 309.754 291.792 312.693V314.368H279.709C279.834 315.895 280.341 317.103 281.23 317.991C282.13 318.88 283.258 319.324 284.614 319.324C286.516 319.324 288.066 318.555 289.262 317.017L291.501 319.153C290.76 320.258 289.769 321.119 288.527 321.734C287.297 322.338 285.913 322.64 284.375 322.64ZM283.879 306.797C282.74 306.797 281.817 307.196 281.11 307.994C280.415 308.791 279.971 309.902 279.777 311.326H287.69V311.019C287.599 309.629 287.229 308.58 286.579 307.874C285.93 307.156 285.03 306.797 283.879 306.797Z" fill="black"/>
<path d="M298.884 303.807L299.003 305.943C300.371 304.291 302.165 303.465 304.387 303.465C308.238 303.465 310.197 305.669 310.266 310.079V322.298H306.113V310.318C306.113 309.144 305.856 308.278 305.344 307.72C304.842 307.151 304.016 306.866 302.866 306.866C301.191 306.866 299.943 307.623 299.123 309.139V322.298H294.97V303.807H298.884Z" fill="black"/>
<path d="M318.605 305.823C319.961 304.251 321.676 303.465 323.75 303.465C327.692 303.465 329.691 305.715 329.748 310.215V322.298H325.595V310.369C325.595 309.093 325.316 308.193 324.758 307.669C324.211 307.133 323.402 306.866 322.331 306.866C320.668 306.866 319.426 307.606 318.605 309.087V322.298H314.453V296.048H318.605V305.823Z" fill="black"/>
<path d="M345.009 322.298C344.827 321.945 344.667 321.369 344.531 320.572C343.209 321.95 341.591 322.64 339.677 322.64C337.82 322.64 336.305 322.11 335.131 321.05C333.958 319.991 333.371 318.681 333.371 317.12C333.371 315.149 334.1 313.639 335.559 312.591C337.028 311.531 339.125 311.001 341.848 311.001H344.394V309.788C344.394 308.831 344.126 308.068 343.591 307.498C343.055 306.917 342.241 306.626 341.147 306.626C340.201 306.626 339.427 306.866 338.823 307.344C338.219 307.811 337.917 308.41 337.917 309.139H333.764C333.764 308.125 334.1 307.179 334.772 306.302C335.445 305.413 336.356 304.718 337.507 304.217C338.669 303.715 339.962 303.465 341.386 303.465C343.551 303.465 345.277 304.012 346.564 305.105C347.852 306.188 348.513 307.715 348.547 309.686V318.025C348.547 319.689 348.78 321.016 349.248 322.007V322.298H345.009ZM340.446 319.307C341.267 319.307 342.036 319.108 342.753 318.709C343.483 318.31 344.029 317.775 344.394 317.103V313.616H342.155C340.617 313.616 339.461 313.884 338.686 314.419C337.911 314.955 337.524 315.713 337.524 316.692C337.524 317.49 337.786 318.128 338.31 318.606C338.846 319.074 339.558 319.307 340.446 319.307Z" fill="black"/>
<path d="M356.75 303.807L356.87 305.943C358.237 304.291 360.031 303.465 362.253 303.465C366.104 303.465 368.063 305.669 368.132 310.079V322.298H363.979V310.318C363.979 309.144 363.723 308.278 363.21 307.72C362.709 307.151 361.883 306.866 360.732 306.866C359.057 306.866 357.81 307.623 356.989 309.139V322.298H352.836V303.807H356.75Z" fill="black"/>
<path d="M379.975 319.324C381.012 319.324 381.872 319.022 382.556 318.418C383.239 317.815 383.604 317.068 383.649 316.18H387.563C387.517 317.33 387.159 318.407 386.486 319.41C385.814 320.401 384.903 321.187 383.752 321.768C382.601 322.349 381.359 322.64 380.026 322.64C377.44 322.64 375.389 321.802 373.874 320.127C372.359 318.453 371.601 316.14 371.601 313.189V312.762C371.601 309.948 372.353 307.697 373.857 306.011C375.361 304.314 377.412 303.465 380.009 303.465C382.208 303.465 383.997 304.109 385.375 305.396C386.765 306.672 387.495 308.353 387.563 310.438H383.649C383.604 309.378 383.239 308.506 382.556 307.823C381.883 307.139 381.023 306.797 379.975 306.797C378.631 306.797 377.594 307.287 376.865 308.267C376.136 309.236 375.765 310.711 375.754 312.693V313.36C375.754 315.365 376.113 316.863 376.831 317.854C377.56 318.834 378.608 319.324 379.975 319.324Z" fill="black"/>
<path d="M398.842 322.64C396.21 322.64 394.074 321.814 392.434 320.162C390.804 318.498 389.99 316.288 389.99 313.531V313.018C389.99 311.172 390.343 309.526 391.049 308.079C391.767 306.621 392.77 305.487 394.057 304.678C395.345 303.869 396.78 303.465 398.364 303.465C400.882 303.465 402.824 304.268 404.191 305.875C405.57 307.481 406.259 309.754 406.259 312.693V314.368H394.177C394.302 315.895 394.809 317.103 395.698 317.991C396.598 318.88 397.726 319.324 399.082 319.324C400.984 319.324 402.534 318.555 403.73 317.017L405.969 319.153C405.228 320.258 404.237 321.119 402.995 321.734C401.765 322.338 400.38 322.64 398.842 322.64ZM398.347 306.797C397.207 306.797 396.285 307.196 395.578 307.994C394.883 308.791 394.439 309.902 394.245 311.326H402.158V311.019C402.067 309.629 401.696 308.58 401.047 307.874C400.397 307.156 399.497 306.797 398.347 306.797Z" fill="black"/>
<path d="M424.682 316.351L428.442 303.807H432.868L425.52 325.101C424.392 328.211 422.478 329.766 419.777 329.766C419.174 329.766 418.507 329.664 417.778 329.458V326.246L418.564 326.297C419.612 326.297 420.398 326.103 420.922 325.716C421.458 325.34 421.879 324.702 422.187 323.802L422.785 322.212L416.291 303.807H420.769L424.682 316.351Z" fill="black"/>
<path d="M434.218 312.881C434.218 311.07 434.577 309.441 435.295 307.994C436.013 306.535 437.021 305.419 438.32 304.644C439.619 303.858 441.111 303.465 442.797 303.465C445.292 303.465 447.315 304.268 448.864 305.875C450.425 307.481 451.268 309.611 451.394 312.266L451.411 313.24C451.411 315.063 451.057 316.692 450.351 318.128C449.656 319.563 448.653 320.674 447.343 321.46C446.044 322.247 444.541 322.64 442.832 322.64C440.222 322.64 438.132 321.774 436.56 320.042C434.999 318.299 434.218 315.98 434.218 313.086V312.881ZM438.371 313.24C438.371 315.143 438.764 316.635 439.55 317.718C440.336 318.789 441.43 319.324 442.832 319.324C444.233 319.324 445.321 318.777 446.096 317.684C446.882 316.59 447.275 314.989 447.275 312.881C447.275 311.013 446.87 309.532 446.062 308.438C445.264 307.344 444.176 306.797 442.797 306.797C441.442 306.797 440.365 307.339 439.567 308.421C438.77 309.492 438.371 311.098 438.371 313.24Z" fill="black"/>
<path d="M466.125 320.486C464.906 321.922 463.174 322.64 460.93 322.64C458.924 322.64 457.403 322.053 456.367 320.879C455.341 319.706 454.829 318.008 454.829 315.787V303.807H458.981V315.735C458.981 318.082 459.956 319.256 461.904 319.256C463.92 319.256 465.282 318.532 465.988 317.085V303.807H470.141V322.298H466.228L466.125 320.486Z" fill="black"/>
<path d="M484.052 307.601C483.505 307.509 482.941 307.464 482.36 307.464C480.458 307.464 479.176 308.193 478.515 309.651V322.298H474.362V303.807H478.327L478.43 305.875C479.432 304.268 480.822 303.465 482.6 303.465C483.192 303.465 483.682 303.545 484.069 303.704L484.052 307.601Z" fill="black"/>
<path d="M511.635 316.573L514.575 303.807H518.625L513.583 322.298H510.166L506.201 309.6L502.304 322.298H498.886L493.828 303.807H497.878L500.869 316.436L504.663 303.807H507.79L511.635 316.573Z" fill="black"/>
<path d="M520.625 312.881C520.625 311.07 520.983 309.441 521.701 307.994C522.419 306.535 523.427 305.419 524.726 304.644C526.025 303.858 527.517 303.465 529.204 303.465C531.699 303.465 533.721 304.268 535.271 305.875C536.831 307.481 537.674 309.611 537.8 312.266L537.817 313.24C537.817 315.063 537.464 316.692 536.757 318.128C536.062 319.563 535.06 320.674 533.75 321.46C532.451 322.247 530.947 322.64 529.238 322.64C526.629 322.64 524.538 321.774 522.966 320.042C521.405 318.299 520.625 315.98 520.625 313.086V312.881ZM524.777 313.24C524.777 315.143 525.17 316.635 525.957 317.718C526.743 318.789 527.836 319.324 529.238 319.324C530.639 319.324 531.727 318.777 532.502 317.684C533.288 316.59 533.681 314.989 533.681 312.881C533.681 311.013 533.277 309.532 532.468 308.438C531.67 307.344 530.582 306.797 529.204 306.797C527.848 306.797 526.771 307.339 525.974 308.421C525.176 309.492 524.777 311.098 524.777 313.24Z" fill="black"/>
<path d="M551.01 307.601C550.463 307.509 549.899 307.464 549.318 307.464C547.416 307.464 546.134 308.193 545.473 309.651V322.298H541.32V303.807H545.285L545.388 305.875C546.39 304.268 547.78 303.465 549.558 303.465C550.15 303.465 550.64 303.545 551.027 303.704L551.01 307.601Z" fill="black"/>
<path d="M559.641 314.368L557.795 316.265V322.298H553.642V296.048H557.795V311.189L559.094 309.566L564.204 303.807H569.194L562.324 311.514L569.929 322.298H565.126L559.641 314.368Z" fill="black"/>
<path d="M583.891 299.346C582.729 299.187 581.726 299.107 580.883 299.107C578.65 299.107 577.534 300.155 577.534 302.251V303.807H581.293V306.883H577.534V322.298H573.381V306.883H570.561V303.807H573.381V302.149C573.392 300.064 574.007 298.469 575.227 297.364C576.457 296.247 578.189 295.689 580.422 295.689C581.812 295.689 584.353 295.962 588.044 296.509V322.298H583.891V299.346Z" fill="black"/>
<path d="M591.855 312.881C591.855 311.07 592.214 309.441 592.932 307.994C593.649 306.535 594.658 305.419 595.957 304.644C597.255 303.858 598.748 303.465 600.434 303.465C602.929 303.465 604.951 304.268 606.501 305.875C608.062 307.481 608.905 309.611 609.03 312.266L609.047 313.24C609.047 315.063 608.694 316.692 607.988 318.128C607.293 319.563 606.29 320.674 604.98 321.46C603.681 322.247 602.177 322.64 600.468 322.64C597.859 322.64 595.769 321.774 594.196 320.042C592.635 318.299 591.855 315.98 591.855 313.086V312.881ZM596.008 313.24C596.008 315.143 596.401 316.635 597.187 317.718C597.973 318.789 599.067 319.324 600.468 319.324C601.87 319.324 602.958 318.777 603.732 317.684C604.519 316.59 604.912 314.989 604.912 312.881C604.912 311.013 604.507 309.532 603.698 308.438C602.901 307.344 601.813 306.797 600.434 306.797C599.078 306.797 598.002 307.339 597.204 308.421C596.407 309.492 596.008 311.098 596.008 313.24Z" fill="black"/>
<path d="M628.803 316.573L631.743 303.807H635.793L630.751 322.298H627.333L623.369 309.6L619.472 322.298H616.054L610.996 303.807H615.046L618.037 316.436L621.831 303.807H624.958L628.803 316.573Z" fill="black"/>
<path fill-rule="evenodd" clip-rule="evenodd" d="M86.7201 304.037C64.1461 304.037 46.7031 300.646 38.3151 298.625C32.5791 297.243 27.9731 295.813 24.4741 294.344L35.6611 313.457L40.0371 373.176C40.0371 379.871 61.3051 385.298 87.5401 385.298C113.775 385.298 135.043 379.871 135.043 373.176L138.508 312.807L149.093 294.288C145.579 295.777 140.932 297.226 135.124 298.625C126.736 300.646 109.293 304.037 86.7201 304.037ZM149.456 109.709C132.888 112.023 110.899 113.298 87.5401 113.298C64.1811 113.298 42.1921 112.023 25.6241 109.709C17.4171 108.563 10.9241 107.211 6.32512 105.693C5.22812 105.33 3.36912 104.711 1.58012 103.725L11.8451 198.198C12.3221 196.571 12.8531 194.946 13.4421 193.327C14.6471 190.009 16.0411 186.765 17.6231 183.596C19.2061 180.428 20.9291 177.433 22.7921 174.612C24.6541 171.792 26.6371 169.195 28.7381 166.822C30.8401 164.45 32.9961 162.41 35.2101 160.7C37.4231 158.992 39.6571 157.656 41.9121 156.694C44.1681 155.732 46.4021 155.25 48.6151 155.25C51.1641 155.25 53.6301 155.947 56.0121 157.341C58.3931 158.734 60.6191 160.991 62.6931 164.11C63.1691 164.807 63.4711 165.512 63.5961 166.225C63.7231 166.939 63.7851 167.611 63.7851 168.241C63.7851 169.734 63.4281 170.913 62.7141 171.775C62.0001 172.638 61.1521 173.069 60.1721 173.069C59.2741 173.069 58.4411 172.596 57.6711 171.651C56.9001 170.705 56.0391 169.353 55.0861 167.594C54.1891 166.001 53.2021 164.849 52.1241 164.135C51.0451 163.422 49.8761 163.065 48.6151 163.065C46.6541 163.065 44.5601 163.878 42.3331 165.504C40.1051 167.129 37.8991 169.278 35.7151 171.949C33.5291 174.621 31.4351 177.673 29.4321 181.108C27.4291 184.542 25.6561 188.059 24.1151 191.659C22.5741 195.261 21.3501 198.812 20.4391 202.312C19.5281 205.812 19.0731 208.956 19.0731 211.743C19.0731 212.673 19.1371 213.628 19.2621 214.605C19.3891 215.585 19.6261 216.472 19.9771 217.269C20.3261 218.066 20.8031 218.72 21.4051 219.233C22.0081 219.749 22.7711 220.005 23.6951 220.005C24.7321 220.005 25.9081 219.657 27.2261 218.96C28.5421 218.265 29.9081 217.351 31.3221 216.224C32.7371 215.095 34.1591 213.818 35.5881 212.39C37.0181 210.964 38.3481 209.521 39.5801 208.06C40.8121 206.601 41.9051 205.198 42.8571 203.855C43.8101 202.511 44.5241 201.341 45.0011 200.345L48.9091 188.648C49.3851 187.388 50.0081 186.492 50.7791 185.961C51.5491 185.43 52.3411 185.164 53.1541 185.164C53.5451 185.164 53.9371 185.231 54.3301 185.363C54.7231 185.496 55.0721 185.704 55.3811 185.985C55.6891 186.268 55.9341 186.632 56.1161 187.081C56.2981 187.528 56.3891 188.051 56.3891 188.648C56.3891 190.241 56.2491 191.733 55.9691 193.128C55.6891 194.523 55.3321 195.882 54.8971 197.21C54.4631 198.536 53.9791 199.872 53.4471 201.216C52.9151 202.56 52.3961 203.962 51.8931 205.423C51.7811 205.589 51.5781 206.11 51.2831 206.989C50.9891 207.87 50.6331 208.974 50.2121 210.3C49.7921 211.628 49.3361 213.112 48.8461 214.755C48.3551 216.398 47.8521 218.073 47.3341 219.782C46.8151 221.491 46.3181 223.167 45.8421 224.81C45.3651 226.452 44.9371 227.937 44.5601 229.265C44.1821 230.591 43.8671 231.702 43.6141 232.599C43.3621 233.495 43.2081 234.025 43.1521 234.193C43.0121 234.722 42.7871 235.312 42.4801 235.958C42.1721 236.605 41.8081 237.22 41.3871 237.8C40.9671 238.38 40.5051 238.863 40.0001 239.243C39.4961 239.624 38.9781 239.816 38.4451 239.816C37.5491 239.816 36.8971 239.517 36.4921 238.921C36.0851 238.323 35.8831 237.228 35.8831 235.636V234.939C35.8831 234.706 35.8961 234.456 35.9241 234.193C35.9511 233.661 36.1621 232.665 36.5551 231.204C36.9471 229.745 37.4161 228.095 37.9631 226.253C38.5091 224.411 39.0981 222.503 39.7281 220.528C40.3571 218.554 40.9251 216.788 41.4301 215.228C39.9431 216.888 38.3341 218.538 36.5971 220.181C34.8591 221.823 33.0801 223.3 31.2601 224.61C29.4381 225.921 27.6031 226.991 25.7551 227.821C23.9061 228.65 22.1271 229.066 20.4181 229.066C18.4571 229.066 16.7691 228.634 15.3531 227.771C15.0981 227.614 14.8571 227.439 14.6171 227.265L20.3291 287.153C21.8161 290.88 49.8101 300.037 86.7201 300.037C123.647 300.037 151.652 290.871 153.113 287.147L161.318 215.945C160.639 216.568 159.978 217.177 159.346 217.767C156.992 219.956 154.771 221.839 152.684 223.415C150.598 224.991 148.559 226.212 146.57 227.073C144.58 227.937 142.451 228.368 140.182 228.368C138.053 228.368 136.406 227.903 135.244 226.974C134.082 226.046 133.5 224.769 133.5 223.142V222.769C133.5 222.653 133.514 222.511 133.543 222.345C133.654 221.351 134.09 220.204 134.846 218.911C135.602 217.616 136.512 216.273 137.576 214.88C138.641 213.486 139.775 212.075 140.98 210.648C142.185 209.222 143.299 207.87 144.322 206.591C145.344 205.316 146.191 204.146 146.863 203.083C147.537 202.021 147.873 201.159 147.873 200.495C147.873 200.097 147.732 199.782 147.453 199.548C147.172 199.318 146.709 199.2 146.066 199.2C144.945 199.2 143.789 199.491 142.6 200.071C141.408 200.651 140.23 201.433 139.068 202.411C137.906 203.39 136.771 204.511 135.664 205.771C134.559 207.032 133.522 208.343 132.555 209.702C131.588 211.064 130.707 212.433 129.908 213.81C129.109 215.187 128.43 216.456 127.869 217.616C127.701 217.982 127.463 218.497 127.154 219.159C126.846 219.823 126.51 220.571 126.146 221.4C125.781 222.23 125.396 223.085 124.99 223.962C124.584 224.843 124.213 225.673 123.877 226.452C123.541 227.232 123.24 227.927 122.975 228.542C122.707 229.155 122.518 229.579 122.406 229.812C122.266 230.11 122.035 230.673 121.713 231.503C121.391 232.333 121.019 233.304 120.6 234.415C120.18 235.526 119.738 236.696 119.275 237.925C118.815 239.151 118.379 240.314 117.973 241.409C117.566 242.503 117.209 243.466 116.902 244.296C116.594 245.124 116.396 245.689 116.312 245.988C116.033 246.851 115.703 247.662 115.326 248.428C114.947 249.19 114.514 249.862 114.023 250.444C113.533 251.024 112.973 251.488 112.342 251.836C111.711 252.186 111.004 252.359 110.221 252.359C109.211 252.359 108.379 252.117 107.719 251.637C107.062 251.156 106.732 250.234 106.732 248.875C106.732 248.211 106.816 247.531 106.984 246.835C107.152 246.138 107.363 245.448 107.615 244.769C107.867 244.087 108.127 243.425 108.393 242.778C108.658 242.13 108.904 241.509 109.127 240.911C110.641 237.593 112.182 234.267 113.75 230.931C115.318 227.597 116.824 224.296 118.268 221.027C118.568 220.345 118.844 219.677 119.137 218.999C119.049 219.085 118.963 219.175 118.877 219.259C117.055 221.019 115.242 222.569 113.435 223.913C111.627 225.257 109.834 226.327 108.057 227.124C106.277 227.919 104.547 228.318 102.865 228.318C101.717 228.318 100.758 228.136 99.9881 227.771C99.2171 227.405 98.6021 226.907 98.1391 226.278C97.6761 225.648 97.3461 224.901 97.1501 224.038C97.0841 223.743 97.0431 223.435 97.0001 223.128C96.5081 223.511 96.0121 223.884 95.5121 224.238C93.7751 225.464 92.0661 226.452 90.3851 227.198C88.7051 227.945 87.1911 228.318 85.8481 228.318C84.5021 228.318 83.4101 227.87 82.5681 226.974C81.7281 226.079 81.3091 224.552 81.3091 222.396C81.3091 220.868 81.5331 219.093 81.9801 217.07C81.2521 218.364 80.3421 219.675 79.2501 221.001C78.1561 222.329 76.9101 223.54 75.5101 224.636C74.1071 225.73 72.5391 226.618 70.8031 227.298C69.0651 227.978 67.1741 228.318 65.1301 228.318C64.2051 228.318 63.3161 228.202 62.4611 227.97C61.6061 227.737 60.8571 227.339 60.2131 226.775C59.5681 226.212 59.0511 225.456 58.6581 224.511C58.2661 223.566 58.0701 222.378 58.0701 220.952C58.0701 220.919 58.1261 220.413 58.2381 219.433C58.3501 218.454 58.7071 216.911 59.3101 214.804C59.9121 212.698 60.8441 209.968 62.1031 206.616C63.3651 203.265 65.1441 199.2 67.4411 194.423C68.0291 193.161 68.7091 192.257 69.4781 191.71C70.2501 191.162 71.0821 190.888 71.9781 190.888C72.3711 190.888 72.7771 190.947 73.1971 191.062C73.6191 191.179 74.0101 191.361 74.3751 191.61C74.7381 191.859 75.0331 192.175 75.2581 192.556C75.4801 192.937 75.5941 193.376 75.5941 193.874C75.5941 194.206 75.5511 194.523 75.4671 194.819C75.3261 195.386 75.0251 196.122 74.5651 197.034C74.1021 197.948 73.5621 198.993 72.9451 200.171C72.3301 201.349 71.6781 202.618 70.9921 203.98C70.3051 205.339 69.6681 206.749 69.0801 208.21C68.4921 209.671 67.9871 211.155 67.5671 212.665C67.1471 214.175 66.9081 215.644 66.8531 217.07C66.8531 217.667 66.9921 218.214 67.2731 218.712C67.5531 219.21 68.0161 219.458 68.6601 219.458C70.4801 219.458 72.2171 218.86 73.8711 217.667C75.5231 216.472 77.0491 214.987 78.4511 213.212C79.8521 211.437 81.1191 209.528 82.2541 207.487C83.3891 205.446 84.3341 203.581 85.0901 201.888C85.6231 200.761 86.0921 199.548 86.4981 198.255C86.9041 196.96 87.3461 195.767 87.8221 194.671C88.2991 193.575 88.8441 192.663 89.4611 191.933C90.0761 191.204 90.8481 190.838 91.7711 190.838C92.7811 190.838 93.5781 191.22 94.1681 191.983C94.7561 192.747 95.0491 193.659 95.0491 194.72C95.0491 195.317 94.8611 196.14 94.4821 197.185C94.1031 198.23 93.6271 199.425 93.0531 200.769C92.4781 202.113 91.8551 203.548 91.1841 205.073C90.5121 206.601 89.8871 208.151 89.3151 209.728C88.7381 211.304 88.2641 212.847 87.8851 214.357C87.5061 215.866 87.3181 217.269 87.3181 218.562C87.3181 219.757 87.9341 220.355 89.1661 220.355C90.0351 220.355 91.1131 220.056 92.4021 219.458C93.6911 218.86 95.0431 218.023 96.4571 216.944C96.8101 216.675 97.1661 216.394 97.5191 216.099C97.9141 214.47 98.3771 212.964 98.9161 211.595C99.8961 209.005 100.891 206.435 101.9 203.88C102.908 201.325 103.832 198.985 104.674 196.861L117.406 164.757C117.91 163.463 118.59 162.55 119.443 162.019C120.299 161.489 121.16 161.223 122.029 161.223C122.896 161.223 123.687 161.505 124.402 162.069C125.117 162.634 125.475 163.546 125.475 164.807C125.475 165.404 125.355 166.035 125.117 166.698C124.879 167.362 124.578 168.075 124.213 168.838C123.514 170.399 122.68 172.306 121.713 174.562C120.746 176.819 119.709 179.275 118.603 181.929C117.496 184.584 116.361 187.346 115.199 190.216C114.037 193.087 112.902 195.882 111.795 198.603C110.69 201.325 109.652 203.903 108.685 206.343C107.719 208.782 106.887 210.898 106.185 212.689C105.877 213.452 105.576 214.341 105.283 215.353C104.988 216.364 104.842 217.269 104.842 218.066C104.842 218.562 104.926 218.96 105.094 219.259C105.262 219.558 105.584 219.708 106.06 219.708C106.648 219.708 107.383 219.501 108.266 219.085C109.148 218.671 110.1 218.122 111.123 217.442C112.147 216.763 113.211 215.983 114.316 215.103C115.424 214.224 116.523 213.312 117.615 212.366C118.709 211.419 119.752 210.474 120.746 209.528C121.74 208.583 122.631 207.712 123.416 206.915C123.6 206.724 123.82 206.589 124.062 206.488C124.535 205.075 124.967 203.691 125.348 202.337C125.572 201.739 125.881 200.894 126.273 199.798C126.664 198.702 127.113 197.624 127.617 196.562C128.121 195.501 128.69 194.579 129.318 193.8C129.949 193.021 130.629 192.63 131.357 192.63C132.478 192.63 133.291 192.888 133.795 193.401C134.299 193.917 134.551 194.671 134.551 195.667C134.551 195.866 134.523 196.181 134.467 196.612C134.41 197.044 134.342 197.501 134.258 197.982C134.174 198.462 134.082 198.919 133.984 199.351C133.885 199.782 133.795 200.097 133.711 200.296C134.746 199.167 135.867 198.048 137.072 196.937C138.277 195.825 139.523 194.819 140.812 193.925C142.102 193.028 143.418 192.3 144.764 191.733C146.107 191.171 147.453 190.888 148.797 190.888C149.721 190.888 150.639 191.021 151.549 191.287C152.459 191.552 153.273 191.942 153.986 192.456C154.701 192.972 155.283 193.618 155.73 194.398C156.178 195.177 156.402 196.081 156.402 197.11C156.402 198.472 156.06 199.923 155.373 201.466C154.687 203.009 153.826 204.56 152.789 206.118C151.752 207.679 150.631 209.196 149.428 210.673C148.223 212.15 147.096 213.493 146.045 214.704C144.994 215.917 144.111 216.944 143.396 217.79C142.684 218.638 142.31 219.21 142.283 219.509C142.283 219.907 142.41 220.23 142.662 220.48C142.914 220.728 143.334 220.853 143.922 220.853C144.398 220.853 145.1 220.587 146.023 220.056C146.947 219.525 148.244 218.605 149.91 217.294C151.576 215.983 153.693 214.224 156.256 212.017C158.014 210.505 160.072 208.702 162.391 206.651L173.505 103.722C171.715 104.71 169.853 105.33 168.755 105.693C164.157 107.211 157.664 108.563 149.456 109.709ZM87.4741 85.2881C39.4256 85.2881 0.474121 90.6605 0.474121 97.2881C0.474121 103.916 39.4256 109.288 87.4741 109.288C135.523 109.288 174.474 103.916 174.474 97.2881C174.474 90.6605 135.523 85.2881 87.4741 85.2881ZM122.212 100.795C122.212 102.35 117.583 103.611 111.872 103.611C106.162 103.611 101.533 102.35 101.533 100.795C101.533 99.2391 106.162 97.9781 111.872 97.9781C117.583 97.9781 122.212 99.2391 122.212 100.795Z" fill="#DA4648"/>
<path fill-rule="evenodd" clip-rule="evenodd" d="M103.627 99.5503C103.576 99.632 103.549 99.7155 103.549 99.8003C103.549 100.807 107.276 101.622 111.872 101.622C116.469 101.622 120.195 100.807 120.195 99.8003L131.066 55.7223L174.299 10.0775C174.313 10.0636 174.327 10.0492 174.34 10.0343C175.255 8.99927 173.398 5.79627 170.317 3.04927C167.236 0.302273 163.909 -0.627727 162.875 0.418273C162.868 0.426096 162.86 0.434029 162.853 0.442072L116.725 48.9803L103.627 99.5503Z" fill="#DA4648"/>
</svg>
