<svg width="652" height="496" viewBox="0 0 652 496" fill="none" xmlns="http://www.w3.org/2000/svg">
<rect x="47.5" y="49.5" width="557" height="397" fill="white"/>
<rect width="460" height="300" transform="translate(96 98)" fill="#1E73FF"/>
<rect width="360" height="200" transform="translate(146 148)" fill="#FBEA51"/>
<rect width="260" height="100" transform="translate(196 198)" fill="white"/>
<path d="M297.23 252.92C297.751 252.92 298.174 252.777 298.5 252.49C298.826 252.204 298.995 251.823 299.008 251.348H301.654C301.648 252.064 301.452 252.721 301.068 253.32C300.684 253.913 300.157 254.375 299.486 254.707C298.822 255.033 298.087 255.195 297.279 255.195C295.769 255.195 294.577 254.717 293.705 253.76C292.833 252.796 292.396 251.468 292.396 249.775V249.59C292.396 247.962 292.829 246.663 293.695 245.693C294.561 244.723 295.749 244.238 297.26 244.238C298.581 244.238 299.639 244.616 300.434 245.371C301.234 246.12 301.641 247.119 301.654 248.369H299.008C298.995 247.822 298.826 247.38 298.5 247.041C298.174 246.696 297.745 246.523 297.211 246.523C296.553 246.523 296.055 246.764 295.717 247.246C295.385 247.721 295.219 248.496 295.219 249.57V249.863C295.219 250.951 295.385 251.732 295.717 252.207C296.049 252.682 296.553 252.92 297.23 252.92ZM302.826 249.619C302.826 248.571 303.028 247.637 303.432 246.816C303.835 245.996 304.415 245.361 305.17 244.912C305.932 244.463 306.814 244.238 307.816 244.238C309.242 244.238 310.404 244.674 311.303 245.547C312.208 246.419 312.712 247.604 312.816 249.102L312.836 249.824C312.836 251.445 312.383 252.747 311.479 253.73C310.574 254.707 309.359 255.195 307.836 255.195C306.312 255.195 305.095 254.707 304.184 253.73C303.279 252.754 302.826 251.426 302.826 249.746V249.619ZM305.648 249.824C305.648 250.827 305.837 251.595 306.215 252.129C306.592 252.656 307.133 252.92 307.836 252.92C308.52 252.92 309.053 252.66 309.438 252.139C309.822 251.611 310.014 250.771 310.014 249.619C310.014 248.636 309.822 247.874 309.438 247.334C309.053 246.794 308.513 246.523 307.816 246.523C307.126 246.523 306.592 246.794 306.215 247.334C305.837 247.868 305.648 248.698 305.648 249.824ZM317.172 244.434L317.26 245.654C318.015 244.71 319.027 244.238 320.297 244.238C321.417 244.238 322.25 244.567 322.797 245.225C323.344 245.882 323.624 246.865 323.637 248.174V255H320.814V248.242C320.814 247.643 320.684 247.21 320.424 246.943C320.163 246.67 319.73 246.533 319.125 246.533C318.331 246.533 317.735 246.872 317.338 247.549V255H314.516V244.434H317.172ZM329.164 241.836V244.434H330.971V246.504H329.164V251.777C329.164 252.168 329.239 252.448 329.389 252.617C329.538 252.786 329.825 252.871 330.248 252.871C330.561 252.871 330.837 252.848 331.078 252.803V254.941C330.525 255.111 329.955 255.195 329.369 255.195C327.39 255.195 326.381 254.196 326.342 252.197V246.504H324.799V244.434H326.342V241.836H329.164ZM337.406 255.195C335.857 255.195 334.594 254.72 333.617 253.77C332.647 252.819 332.162 251.553 332.162 249.971V249.697C332.162 248.636 332.367 247.689 332.777 246.855C333.188 246.016 333.767 245.371 334.516 244.922C335.271 244.466 336.13 244.238 337.094 244.238C338.539 244.238 339.675 244.694 340.502 245.605C341.335 246.517 341.752 247.809 341.752 249.482V250.635H335.023C335.115 251.325 335.388 251.878 335.844 252.295C336.306 252.712 336.889 252.92 337.592 252.92C338.679 252.92 339.529 252.526 340.141 251.738L341.527 253.291C341.104 253.89 340.531 254.359 339.809 254.697C339.086 255.029 338.285 255.195 337.406 255.195ZM337.084 246.523C336.524 246.523 336.068 246.712 335.717 247.09C335.372 247.467 335.15 248.008 335.053 248.711H338.979V248.486C338.965 247.861 338.796 247.38 338.471 247.041C338.145 246.696 337.683 246.523 337.084 246.523ZM345.961 244.434L346.049 245.654C346.804 244.71 347.816 244.238 349.086 244.238C350.206 244.238 351.039 244.567 351.586 245.225C352.133 245.882 352.413 246.865 352.426 248.174V255H349.604V248.242C349.604 247.643 349.473 247.21 349.213 246.943C348.952 246.67 348.52 246.533 347.914 246.533C347.12 246.533 346.524 246.872 346.127 247.549V255H343.305V244.434H345.961ZM357.953 241.836V244.434H359.76V246.504H357.953V251.777C357.953 252.168 358.028 252.448 358.178 252.617C358.327 252.786 358.614 252.871 359.037 252.871C359.35 252.871 359.626 252.848 359.867 252.803V254.941C359.314 255.111 358.744 255.195 358.158 255.195C356.179 255.195 355.17 254.196 355.131 252.197V246.504H353.588V244.434H355.131V241.836H357.953Z" fill="black"/>
<rect x="47.5" y="49.5" width="557" height="397" stroke="black" stroke-width="3" stroke-dasharray="3 2"/>
<path d="M287.416 175.351C287.416 176.798 287.085 177.964 286.423 178.849C285.761 179.733 284.864 180.176 283.733 180.176C282.579 180.176 281.671 179.81 281.009 179.077V183.656H279.383V170.49H280.868L280.947 171.545C281.609 170.725 282.529 170.314 283.707 170.314C284.85 170.314 285.752 170.745 286.414 171.606C287.082 172.468 287.416 173.666 287.416 175.201V175.351ZM285.79 175.166C285.79 174.094 285.562 173.247 285.104 172.626C284.647 172.005 284.021 171.694 283.224 171.694C282.239 171.694 281.501 172.131 281.009 173.004V177.548C281.495 178.415 282.239 178.849 283.241 178.849C284.021 178.849 284.639 178.541 285.096 177.926C285.559 177.305 285.79 176.385 285.79 175.166ZM295.361 180C295.268 179.812 295.191 179.479 295.133 178.998C294.377 179.783 293.475 180.176 292.426 180.176C291.488 180.176 290.718 179.912 290.114 179.385C289.517 178.852 289.218 178.178 289.218 177.363C289.218 176.373 289.593 175.605 290.343 175.061C291.099 174.51 292.159 174.234 293.524 174.234H295.106V173.487C295.106 172.919 294.937 172.468 294.597 172.134C294.257 171.794 293.756 171.624 293.094 171.624C292.514 171.624 292.027 171.771 291.635 172.063C291.242 172.356 291.046 172.711 291.046 173.127H289.411C289.411 172.652 289.578 172.195 289.912 171.756C290.252 171.311 290.709 170.959 291.283 170.701C291.863 170.443 292.499 170.314 293.19 170.314C294.286 170.314 295.145 170.59 295.766 171.141C296.387 171.686 296.709 172.438 296.732 173.399V177.776C296.732 178.649 296.844 179.344 297.066 179.859V180H295.361ZM292.663 178.761C293.173 178.761 293.656 178.629 294.113 178.365C294.57 178.102 294.901 177.759 295.106 177.337V175.386H293.832C291.84 175.386 290.844 175.969 290.844 177.135C290.844 177.645 291.014 178.043 291.354 178.33C291.693 178.617 292.13 178.761 292.663 178.761ZM298.886 175.166C298.886 173.707 299.231 172.535 299.923 171.65C300.614 170.76 301.52 170.314 302.639 170.314C303.752 170.314 304.634 170.695 305.284 171.457V166.5H306.91V180H305.416L305.337 178.98C304.687 179.777 303.781 180.176 302.621 180.176C301.52 180.176 300.62 179.725 299.923 178.822C299.231 177.92 298.886 176.742 298.886 175.289V175.166ZM300.512 175.351C300.512 176.429 300.734 177.272 301.18 177.882C301.625 178.491 302.24 178.796 303.025 178.796C304.057 178.796 304.81 178.333 305.284 177.407V173.039C304.798 172.143 304.051 171.694 303.043 171.694C302.246 171.694 301.625 172.002 301.18 172.617C300.734 173.232 300.512 174.144 300.512 175.351ZM309.046 175.166C309.046 173.707 309.392 172.535 310.083 171.65C310.774 170.76 311.68 170.314 312.799 170.314C313.912 170.314 314.794 170.695 315.444 171.457V166.5H317.07V180H315.576L315.497 178.98C314.847 179.777 313.941 180.176 312.781 180.176C311.68 180.176 310.78 179.725 310.083 178.822C309.392 177.92 309.046 176.742 309.046 175.289V175.166ZM310.672 175.351C310.672 176.429 310.895 177.272 311.34 177.882C311.785 178.491 312.4 178.796 313.186 178.796C314.217 178.796 314.97 178.333 315.444 177.407V173.039C314.958 172.143 314.211 171.694 313.203 171.694C312.406 171.694 311.785 172.002 311.34 172.617C310.895 173.232 310.672 174.144 310.672 175.351ZM321.368 180H319.742V170.49H321.368V180ZM319.61 167.968C319.61 167.704 319.689 167.481 319.848 167.3C320.012 167.118 320.252 167.027 320.568 167.027C320.885 167.027 321.125 167.118 321.289 167.3C321.453 167.481 321.535 167.704 321.535 167.968C321.535 168.231 321.453 168.451 321.289 168.627C321.125 168.803 320.885 168.891 320.568 168.891C320.252 168.891 320.012 168.803 319.848 168.627C319.689 168.451 319.61 168.231 319.61 167.968ZM325.517 170.49L325.569 171.686C326.296 170.771 327.245 170.314 328.417 170.314C330.427 170.314 331.44 171.448 331.458 173.716V180H329.832V173.707C329.826 173.021 329.668 172.515 329.357 172.187C329.053 171.858 328.575 171.694 327.925 171.694C327.397 171.694 326.935 171.835 326.536 172.116C326.138 172.397 325.827 172.767 325.604 173.224V180H323.979V170.49H325.517ZM333.523 175.166C333.523 173.684 333.866 172.506 334.552 171.633C335.237 170.754 336.146 170.314 337.276 170.314C338.437 170.314 339.342 170.725 339.992 171.545L340.071 170.49H341.557V179.771C341.557 181.002 341.19 181.972 340.458 182.681C339.731 183.39 338.753 183.744 337.522 183.744C336.837 183.744 336.166 183.598 335.51 183.305C334.854 183.012 334.353 182.61 334.007 182.101L334.851 181.125C335.548 181.986 336.4 182.417 337.408 182.417C338.199 182.417 338.814 182.194 339.254 181.749C339.699 181.304 339.922 180.677 339.922 179.868V179.051C339.271 179.801 338.384 180.176 337.259 180.176C336.146 180.176 335.243 179.728 334.552 178.831C333.866 177.935 333.523 176.713 333.523 175.166ZM335.158 175.351C335.158 176.423 335.378 177.267 335.817 177.882C336.257 178.491 336.872 178.796 337.663 178.796C338.688 178.796 339.441 178.33 339.922 177.398V173.057C339.424 172.148 338.677 171.694 337.681 171.694C336.89 171.694 336.271 172.002 335.826 172.617C335.381 173.232 335.158 174.144 335.158 175.351ZM347.401 175.228H343.112V173.9H347.401V175.228ZM351.198 168.188V170.49H352.974V171.747H351.198V177.645C351.198 178.025 351.277 178.312 351.436 178.506C351.594 178.693 351.863 178.787 352.244 178.787C352.432 178.787 352.689 178.752 353.018 178.682V180C352.59 180.117 352.174 180.176 351.77 180.176C351.043 180.176 350.495 179.956 350.126 179.517C349.757 179.077 349.572 178.453 349.572 177.645V171.747H347.841V170.49H349.572V168.188H351.198ZM354.274 175.157C354.274 174.226 354.456 173.388 354.819 172.644C355.188 171.899 355.698 171.325 356.349 170.921C357.005 170.517 357.752 170.314 358.59 170.314C359.885 170.314 360.931 170.763 361.728 171.659C362.53 172.556 362.932 173.748 362.932 175.236V175.351C362.932 176.276 362.753 177.108 362.396 177.847C362.044 178.579 361.537 179.15 360.875 179.561C360.219 179.971 359.463 180.176 358.607 180.176C357.318 180.176 356.272 179.728 355.47 178.831C354.673 177.935 354.274 176.748 354.274 175.271V175.157ZM355.909 175.351C355.909 176.405 356.152 177.252 356.639 177.891C357.131 178.529 357.787 178.849 358.607 178.849C359.434 178.849 360.09 178.526 360.576 177.882C361.062 177.231 361.306 176.323 361.306 175.157C361.306 174.114 361.057 173.271 360.559 172.626C360.066 171.976 359.41 171.65 358.59 171.65C357.787 171.65 357.14 171.97 356.647 172.608C356.155 173.247 355.909 174.161 355.909 175.351ZM373.004 175.351C373.004 176.798 372.673 177.964 372.011 178.849C371.349 179.733 370.452 180.176 369.321 180.176C368.167 180.176 367.259 179.81 366.597 179.077V183.656H364.971V170.49H366.456L366.535 171.545C367.197 170.725 368.117 170.314 369.295 170.314C370.438 170.314 371.34 170.745 372.002 171.606C372.67 172.468 373.004 173.666 373.004 175.201V175.351ZM371.378 175.166C371.378 174.094 371.149 173.247 370.692 172.626C370.235 172.005 369.608 171.694 368.812 171.694C367.827 171.694 367.089 172.131 366.597 173.004V177.548C367.083 178.415 367.827 178.849 368.829 178.849C369.608 178.849 370.227 178.541 370.684 177.926C371.146 177.305 371.378 176.385 371.378 175.166Z" fill="black"/>
<path d="M478.649 204.266C477.202 204.266 476.036 203.935 475.151 203.272C474.267 202.61 473.824 201.714 473.824 200.583C473.824 199.429 474.19 198.521 474.923 197.858L470.344 197.858L470.344 196.232L483.51 196.232L483.51 197.718L482.455 197.797C483.275 198.459 483.686 199.379 483.686 200.557C483.686 201.699 483.255 202.602 482.394 203.264C481.532 203.932 480.334 204.266 478.799 204.266L478.649 204.266ZM478.834 202.64C479.906 202.64 480.753 202.411 481.374 201.954C481.995 201.497 482.306 200.87 482.306 200.073C482.306 199.089 481.869 198.351 480.996 197.858L476.452 197.858C475.585 198.345 475.151 199.089 475.151 200.091C475.151 200.87 475.459 201.488 476.074 201.945C476.695 202.408 477.615 202.64 478.834 202.64ZM474 212.211C474.187 212.117 474.521 212.041 475.002 211.982C474.217 211.227 473.824 210.324 473.824 209.275C473.824 208.338 474.088 207.567 474.615 206.964C475.148 206.366 475.822 206.067 476.637 206.067C477.627 206.067 478.395 206.442 478.939 207.192C479.49 207.948 479.766 209.009 479.766 210.374L479.766 211.956L480.513 211.956C481.081 211.956 481.532 211.786 481.866 211.446C482.206 211.106 482.376 210.605 482.376 209.943C482.376 209.363 482.229 208.877 481.937 208.484C481.644 208.092 481.289 207.896 480.873 207.896L480.873 206.261C481.348 206.261 481.805 206.428 482.244 206.762C482.689 207.102 483.041 207.559 483.299 208.133C483.557 208.713 483.686 209.349 483.686 210.04C483.686 211.136 483.41 211.994 482.859 212.615C482.314 213.236 481.562 213.559 480.601 213.582L476.224 213.582C475.351 213.582 474.656 213.693 474.141 213.916L474 213.916L474 212.211ZM475.239 209.513C475.239 210.022 475.371 210.506 475.635 210.963C475.898 211.42 476.241 211.751 476.663 211.956L478.614 211.956L478.614 210.682C478.614 208.689 478.031 207.693 476.865 207.693C476.355 207.693 475.957 207.863 475.67 208.203C475.383 208.543 475.239 208.979 475.239 209.513ZM478.834 215.735C480.293 215.735 481.465 216.081 482.35 216.772C483.24 217.464 483.686 218.369 483.686 219.488C483.686 220.602 483.305 221.483 482.543 222.134L487.5 222.134L487.5 223.76L474 223.76L474 222.266L475.02 222.187C474.223 221.536 473.824 220.631 473.824 219.471C473.824 218.369 474.275 217.47 475.178 216.772C476.08 216.081 477.258 215.735 478.711 215.735L478.834 215.735ZM478.649 217.361C477.571 217.361 476.728 217.584 476.118 218.029C475.509 218.475 475.204 219.09 475.204 219.875C475.204 220.906 475.667 221.659 476.593 222.134L480.961 222.134C481.857 221.647 482.306 220.9 482.306 219.893C482.306 219.096 481.998 218.475 481.383 218.029C480.768 217.584 479.856 217.361 478.649 217.361ZM478.834 225.896C480.293 225.896 481.465 226.241 482.35 226.933C483.24 227.624 483.686 228.529 483.686 229.648C483.686 230.762 483.305 231.644 482.543 232.294L487.5 232.294L487.5 233.92L474 233.92L474 232.426L475.02 232.347C474.223 231.696 473.824 230.791 473.824 229.631C473.824 228.529 474.275 227.63 475.178 226.933C476.08 226.241 477.258 225.896 478.711 225.896L478.834 225.896ZM478.649 227.521C477.571 227.521 476.728 227.744 476.118 228.189C475.509 228.635 475.204 229.25 475.204 230.035C475.204 231.066 475.667 231.819 476.593 232.294L480.961 232.294C481.857 231.808 482.306 231.061 482.306 230.053C482.306 229.256 481.998 228.635 481.383 228.189C480.768 227.744 479.856 227.521 478.649 227.521ZM474 238.218L474 236.592L483.51 236.592L483.51 238.218L474 238.218ZM486.032 236.46C486.296 236.46 486.519 236.539 486.7 236.697C486.882 236.861 486.973 237.102 486.973 237.418C486.973 237.734 486.882 237.975 486.7 238.139C486.519 238.303 486.296 238.385 486.032 238.385C485.769 238.385 485.549 238.303 485.373 238.139C485.197 237.975 485.109 237.734 485.109 237.418C485.109 237.102 485.197 236.861 485.373 236.697C485.549 236.539 485.769 236.46 486.032 236.46ZM483.51 242.366L482.314 242.419C483.229 243.146 483.686 244.095 483.686 245.267C483.686 247.276 482.552 248.29 480.284 248.308L474 248.308L474 246.682L480.293 246.682C480.979 246.676 481.485 246.518 481.813 246.207C482.142 245.902 482.306 245.425 482.306 244.774C482.306 244.247 482.165 243.784 481.884 243.386C481.603 242.987 481.233 242.677 480.776 242.454L474 242.454L474 240.828L483.51 240.828L483.51 242.366ZM478.834 250.373C480.316 250.373 481.494 250.716 482.367 251.401C483.246 252.087 483.686 252.995 483.686 254.126C483.686 255.286 483.275 256.191 482.455 256.842L483.51 256.921L483.51 258.406L474.229 258.406C472.998 258.406 472.028 258.04 471.319 257.308C470.61 256.581 470.256 255.603 470.256 254.372C470.256 253.687 470.402 253.016 470.695 252.359C470.988 251.703 471.39 251.202 471.899 250.856L472.875 251.7C472.014 252.397 471.583 253.25 471.583 254.258C471.583 255.049 471.806 255.664 472.251 256.104C472.696 256.549 473.323 256.771 474.132 256.771L474.949 256.771C474.199 256.121 473.824 255.233 473.824 254.108C473.824 252.995 474.272 252.093 475.169 251.401C476.065 250.716 477.287 250.373 478.834 250.373ZM478.649 252.008C477.577 252.008 476.733 252.228 476.118 252.667C475.509 253.106 475.204 253.722 475.204 254.513C475.204 255.538 475.67 256.291 476.602 256.771L480.943 256.771C481.852 256.273 482.306 255.526 482.306 254.53C482.306 253.739 481.998 253.121 481.383 252.676C480.768 252.23 479.856 252.008 478.649 252.008ZM478.772 264.251L478.772 259.962L480.1 259.962L480.1 264.251L478.772 264.251ZM482.051 270.438C482.092 270.192 482.112 269.926 482.112 269.639C482.112 268.572 481.658 267.849 480.75 267.468L474 267.468L474 265.842L483.51 265.842L483.51 267.424L482.411 267.45C483.261 267.983 483.686 268.739 483.686 269.718C483.686 270.034 483.645 270.274 483.562 270.438L482.051 270.438ZM474 273.708L474 272.082L483.51 272.082L483.51 273.708L474 273.708ZM486.032 271.95C486.296 271.95 486.519 272.029 486.7 272.187C486.882 272.352 486.973 272.592 486.973 272.908C486.973 273.225 486.882 273.465 486.7 273.629C486.519 273.793 486.296 273.875 486.032 273.875C485.769 273.875 485.549 273.793 485.373 273.629C485.197 273.465 485.109 273.225 485.109 272.908C485.109 272.592 485.197 272.352 485.373 272.187C485.549 272.029 485.769 271.95 486.032 271.95ZM478.834 275.932C480.316 275.932 481.494 276.274 482.367 276.96C483.246 277.646 483.686 278.554 483.686 279.685C483.686 280.845 483.275 281.75 482.455 282.4L483.51 282.479L483.51 283.965L474.229 283.965C472.998 283.965 472.028 283.599 471.319 282.866C470.61 282.14 470.256 281.161 470.256 279.931C470.256 279.245 470.402 278.574 470.695 277.918C470.988 277.262 471.39 276.761 471.899 276.415L472.875 277.259C472.014 277.956 471.583 278.809 471.583 279.816C471.583 280.607 471.806 281.223 472.251 281.662C472.696 282.107 473.323 282.33 474.132 282.33L474.949 282.33C474.199 281.68 473.824 280.792 473.824 279.667C473.824 278.554 474.272 277.651 475.169 276.96C476.065 276.274 477.287 275.932 478.834 275.932ZM478.649 277.566C477.577 277.566 476.733 277.786 476.118 278.226C475.509 278.665 475.204 279.28 475.204 280.071C475.204 281.097 475.67 281.85 476.602 282.33L480.943 282.33C481.852 281.832 482.306 281.085 482.306 280.089C482.306 279.298 481.998 278.68 481.383 278.234C480.768 277.789 479.856 277.566 478.649 277.566ZM482.358 288.052C483.243 288.772 483.686 289.71 483.686 290.864C483.686 292.874 482.552 293.888 480.284 293.905L474 293.905L474 292.279L480.293 292.279C480.979 292.273 481.485 292.115 481.813 291.805C482.142 291.5 482.306 291.022 482.306 290.372C482.306 289.845 482.165 289.382 481.884 288.983C481.603 288.585 481.233 288.274 480.776 288.052L474 288.052L474 286.426L487.5 286.426L487.5 288.052L482.358 288.052ZM485.812 298.546L483.51 298.546L483.51 300.321L482.253 300.321L482.253 298.546L476.355 298.546C475.975 298.546 475.687 298.625 475.494 298.783C475.307 298.941 475.213 299.211 475.213 299.592C475.213 299.779 475.248 300.037 475.318 300.365L474 300.365C473.883 299.937 473.824 299.521 473.824 299.117C473.824 298.391 474.044 297.843 474.483 297.474C474.923 297.104 475.547 296.92 476.355 296.92L482.253 296.92L482.253 295.188L483.51 295.188L483.51 296.92L485.812 296.92L485.812 298.546Z" fill="black"/>
<path d="M170.351 286.575C171.798 286.575 172.964 286.906 173.849 287.568C174.733 288.23 175.176 289.127 175.176 290.258C175.176 291.412 174.81 292.32 174.077 292.982L178.656 292.982L178.656 294.608L165.49 294.608L165.49 293.123L166.545 293.044C165.725 292.382 165.314 291.462 165.314 290.284C165.314 289.142 165.745 288.239 166.606 287.577C167.468 286.909 168.666 286.575 170.201 286.575L170.351 286.575ZM170.166 288.201C169.094 288.201 168.247 288.43 167.626 288.887C167.005 289.344 166.694 289.971 166.694 290.768C166.694 291.752 167.131 292.49 168.004 292.982L172.548 292.982C173.415 292.496 173.849 291.752 173.849 290.75C173.849 289.971 173.541 289.353 172.926 288.896C172.305 288.433 171.385 288.201 170.166 288.201ZM175 278.63C174.813 278.724 174.479 278.8 173.998 278.858C174.783 279.614 175.176 280.517 175.176 281.565C175.176 282.503 174.912 283.273 174.385 283.877C173.852 284.475 173.178 284.773 172.363 284.773C171.373 284.773 170.605 284.398 170.061 283.648C169.51 282.893 169.234 281.832 169.234 280.467L169.234 278.885L168.487 278.885C167.919 278.885 167.468 279.055 167.134 279.395C166.794 279.734 166.624 280.235 166.624 280.897C166.624 281.478 166.771 281.964 167.063 282.356C167.356 282.749 167.711 282.945 168.127 282.945L168.127 284.58C167.652 284.58 167.195 284.413 166.756 284.079C166.311 283.739 165.959 283.282 165.701 282.708C165.443 282.128 165.314 281.492 165.314 280.801C165.314 279.705 165.59 278.847 166.141 278.226C166.686 277.604 167.438 277.282 168.399 277.259L172.776 277.259C173.649 277.259 174.344 277.147 174.859 276.925L175 276.925L175 278.63ZM173.761 281.328C173.761 280.818 173.629 280.335 173.365 279.878C173.102 279.421 172.759 279.09 172.337 278.885L170.386 278.885L170.386 280.159C170.386 282.151 170.969 283.147 172.135 283.147C172.645 283.147 173.043 282.978 173.33 282.638C173.617 282.298 173.761 281.861 173.761 281.328ZM170.166 275.105C168.707 275.105 167.535 274.76 166.65 274.068C165.76 273.377 165.314 272.472 165.314 271.353C165.314 270.239 165.695 269.357 166.457 268.707L161.5 268.707L161.5 267.081L175 267.081L175 268.575L173.98 268.654C174.777 269.305 175.176 270.21 175.176 271.37C175.176 272.472 174.725 273.371 173.822 274.068C172.92 274.76 171.742 275.105 170.289 275.105L170.166 275.105ZM170.351 273.479C171.429 273.479 172.272 273.257 172.882 272.812C173.491 272.366 173.796 271.751 173.796 270.966C173.796 269.935 173.333 269.182 172.407 268.707L168.039 268.707C167.143 269.193 166.694 269.94 166.694 270.948C166.694 271.745 167.002 272.366 167.617 272.812C168.232 273.257 169.144 273.479 170.351 273.479ZM170.166 264.945C168.707 264.945 167.535 264.6 166.65 263.908C165.76 263.217 165.314 262.312 165.314 261.192C165.314 260.079 165.695 259.197 166.457 258.547L161.5 258.547L161.5 256.921L175 256.921L175 258.415L173.98 258.494C174.777 259.145 175.176 260.05 175.176 261.21C175.176 262.312 174.725 263.211 173.822 263.908C172.92 264.6 171.742 264.945 170.289 264.945L170.166 264.945ZM170.351 263.319C171.429 263.319 172.272 263.097 172.882 262.651C173.491 262.206 173.796 261.591 173.796 260.806C173.796 259.774 173.333 259.021 172.407 258.547L168.039 258.547C167.143 259.033 166.694 259.78 166.694 260.788C166.694 261.585 167.002 262.206 167.617 262.651C168.232 263.097 169.144 263.319 170.351 263.319ZM175 252.623L175 254.249L165.49 254.249L165.49 252.623L175 252.623ZM162.968 254.381C162.704 254.381 162.481 254.302 162.3 254.144C162.118 253.979 162.027 253.739 162.027 253.423C162.027 253.106 162.118 252.866 162.3 252.702C162.481 252.538 162.704 252.456 162.968 252.456C163.231 252.456 163.451 252.538 163.627 252.702C163.803 252.866 163.891 253.106 163.891 253.423C163.891 253.739 163.803 253.979 163.627 254.144C163.451 254.302 163.231 254.381 162.968 254.381ZM165.49 248.475L166.686 248.422C165.771 247.695 165.314 246.746 165.314 245.574C165.314 243.564 166.448 242.551 168.716 242.533L175 242.533L175 244.159L168.707 244.159C168.021 244.165 167.515 244.323 167.187 244.634C166.858 244.938 166.694 245.416 166.694 246.066C166.694 246.594 166.835 247.057 167.116 247.455C167.397 247.854 167.767 248.164 168.224 248.387L175 248.387L175 250.013L165.49 250.013L165.49 248.475ZM170.166 240.468C168.684 240.468 167.506 240.125 166.633 239.439C165.754 238.754 165.314 237.846 165.314 236.715C165.314 235.555 165.725 234.649 166.545 233.999L165.49 233.92L165.49 232.435L174.771 232.435C176.002 232.435 176.972 232.801 177.681 233.533C178.39 234.26 178.744 235.238 178.744 236.469C178.744 237.154 178.598 237.825 178.305 238.481C178.012 239.138 177.61 239.639 177.101 239.984L176.125 239.141C176.986 238.443 177.417 237.591 177.417 236.583C177.417 235.792 177.194 235.177 176.749 234.737C176.304 234.292 175.677 234.069 174.868 234.069L174.051 234.069C174.801 234.72 175.176 235.607 175.176 236.732C175.176 237.846 174.728 238.748 173.831 239.439C172.935 240.125 171.713 240.468 170.166 240.468ZM170.351 238.833C171.423 238.833 172.267 238.613 172.882 238.174C173.491 237.734 173.796 237.119 173.796 236.328C173.796 235.303 173.33 234.55 172.398 234.069L168.057 234.069C167.148 234.567 166.694 235.314 166.694 236.311C166.694 237.102 167.002 237.72 167.617 238.165C168.232 238.61 169.144 238.833 170.351 238.833ZM170.228 226.59L170.228 230.879L168.9 230.879L168.9 226.59L170.228 226.59ZM175 223.232L175 224.858L161.5 224.858L161.5 223.232L175 223.232ZM175.176 216.676C175.176 217.965 174.754 219.014 173.91 219.822C173.061 220.631 171.927 221.035 170.509 221.035L170.21 221.035C169.267 221.035 168.426 220.856 167.688 220.499C166.943 220.136 166.363 219.632 165.947 218.987C165.525 218.337 165.314 217.634 165.314 216.878C165.314 215.642 165.722 214.681 166.536 213.995C167.351 213.31 168.517 212.967 170.034 212.967L170.711 212.967L170.711 219.409C171.648 219.386 172.407 219.113 172.987 218.592C173.562 218.064 173.849 217.396 173.849 216.588C173.849 216.014 173.731 215.527 173.497 215.129C173.263 214.73 172.952 214.382 172.565 214.083L173.339 213.09C174.563 213.887 175.176 215.082 175.176 216.676ZM166.65 216.878C166.65 217.534 166.891 218.085 167.371 218.53C167.846 218.976 168.514 219.251 169.375 219.356L169.375 214.593L169.252 214.593C168.426 214.64 167.787 214.862 167.336 215.261C166.879 215.659 166.65 216.198 166.65 216.878ZM175 210.277L166.747 210.277L166.747 211.78L165.49 211.78L165.49 210.277L164.515 210.277C163.495 210.277 162.707 210.005 162.15 209.46C161.594 208.915 161.315 208.145 161.315 207.148C161.315 206.773 161.365 206.401 161.465 206.032L162.783 206.12C162.73 206.396 162.704 206.688 162.704 206.999C162.704 207.526 162.859 207.934 163.17 208.221C163.475 208.508 163.914 208.651 164.488 208.651L165.49 208.651L165.49 206.621L166.747 206.621L166.747 208.651L175 208.651L175 210.277ZM163.188 202.613L165.49 202.613L165.49 200.838L166.747 200.838L166.747 202.613L172.645 202.613C173.025 202.613 173.313 202.534 173.506 202.376C173.693 202.218 173.787 201.948 173.787 201.567C173.787 201.38 173.752 201.122 173.682 200.794L175 200.794C175.117 201.222 175.176 201.638 175.176 202.042C175.176 202.769 174.956 203.316 174.517 203.686C174.077 204.055 173.453 204.239 172.645 204.239L166.747 204.239L166.747 205.971L165.49 205.971L165.49 204.239L163.188 204.239L163.188 202.613Z" fill="black"/>
<path d="M527.649 210.55C526.196 210.55 525.027 210.216 524.143 209.548C523.264 208.88 522.824 207.983 522.824 206.858C522.824 205.657 523.249 204.729 524.099 204.072L523 203.993L523 202.499L536.5 202.499L536.5 204.125L531.464 204.125C532.278 204.781 532.686 205.687 532.686 206.841C532.686 207.995 532.249 208.9 531.376 209.557C530.503 210.219 529.308 210.55 527.79 210.55L527.649 210.55ZM527.834 208.924C528.941 208.924 529.797 208.71 530.4 208.282C531.004 207.854 531.306 207.239 531.306 206.437C531.306 205.364 530.808 204.594 529.812 204.125L525.698 204.125C524.702 204.623 524.204 205.399 524.204 206.454C524.204 207.233 524.506 207.84 525.109 208.273C525.713 208.707 526.621 208.924 527.834 208.924ZM527.843 212.176C528.774 212.176 529.612 212.357 530.356 212.721C531.101 213.09 531.675 213.6 532.079 214.25C532.483 214.906 532.686 215.653 532.686 216.491C532.686 217.786 532.237 218.832 531.341 219.629C530.444 220.432 529.252 220.833 527.764 220.833L527.649 220.833C526.724 220.833 525.892 220.654 525.153 220.297C524.421 219.945 523.85 219.438 523.439 218.776C523.029 218.12 522.824 217.364 522.824 216.509C522.824 215.22 523.272 214.174 524.169 213.371C525.065 212.574 526.252 212.176 527.729 212.176L527.843 212.176ZM527.649 213.811C526.595 213.811 525.748 214.054 525.109 214.54C524.471 215.032 524.151 215.688 524.151 216.509C524.151 217.335 524.474 217.991 525.118 218.478C525.769 218.964 526.677 219.207 527.843 219.207C528.886 219.207 529.729 218.958 530.374 218.46C531.024 217.968 531.35 217.312 531.35 216.491C531.35 215.688 531.03 215.041 530.392 214.549C529.753 214.057 528.839 213.811 527.649 213.811ZM531.051 227.469C531.092 227.223 531.112 226.956 531.112 226.669C531.112 225.603 530.658 224.879 529.75 224.498L523 224.498L523 222.872L532.51 222.872L532.51 224.454L531.411 224.48C532.261 225.014 532.686 225.77 532.686 226.748C532.686 227.064 532.645 227.305 532.562 227.469L531.051 227.469ZM527.834 228.4C529.293 228.4 530.465 228.746 531.35 229.437C532.24 230.129 532.686 231.034 532.686 232.153C532.686 233.267 532.305 234.148 531.543 234.799L536.5 234.799L536.5 236.425L523 236.425L523 234.931L524.02 234.852C523.223 234.201 522.824 233.296 522.824 232.136C522.824 231.034 523.275 230.135 524.178 229.437C525.08 228.746 526.258 228.4 527.711 228.4L527.834 228.4ZM527.649 230.026C526.571 230.026 525.728 230.249 525.118 230.694C524.509 231.14 524.204 231.755 524.204 232.54C524.204 233.571 524.667 234.324 525.593 234.799L529.961 234.799C530.857 234.312 531.306 233.565 531.306 232.558C531.306 231.761 530.998 231.14 530.383 230.694C529.768 230.249 528.856 230.026 527.649 230.026ZM522.824 242.902C522.824 241.613 523.246 240.564 524.09 239.756C524.939 238.947 526.073 238.543 527.491 238.543L527.79 238.543C528.733 238.543 529.574 238.722 530.312 239.079C531.057 239.442 531.637 239.946 532.053 240.591C532.475 241.241 532.686 241.944 532.686 242.7C532.686 243.937 532.278 244.897 531.464 245.583C530.649 246.269 529.483 246.611 527.966 246.611L527.289 246.611L527.289 240.169C526.352 240.192 525.593 240.465 525.013 240.986C524.438 241.514 524.151 242.182 524.151 242.99C524.151 243.564 524.269 244.051 524.503 244.449C524.737 244.848 525.048 245.196 525.435 245.495L524.661 246.488C523.437 245.691 522.824 244.496 522.824 242.902ZM531.35 242.7C531.35 242.044 531.109 241.493 530.629 241.048C530.154 240.603 529.486 240.327 528.625 240.222L528.625 244.985L528.748 244.985C529.574 244.938 530.213 244.716 530.664 244.317C531.121 243.919 531.35 243.38 531.35 242.7ZM531.051 253.098C531.092 252.852 531.112 252.585 531.112 252.298C531.112 251.231 530.658 250.508 529.75 250.127L523 250.127L523 248.501L532.51 248.501L532.51 250.083L531.411 250.109C532.261 250.643 532.686 251.398 532.686 252.377C532.686 252.693 532.645 252.934 532.562 253.098L531.051 253.098ZM527.772 257.984L527.772 253.695L529.1 253.695L529.1 257.984L527.772 257.984ZM531.051 264.172C531.092 263.926 531.112 263.659 531.112 263.372C531.112 262.306 530.658 261.582 529.75 261.201L523 261.201L523 259.575L532.51 259.575L532.51 261.157L531.411 261.184C532.261 261.717 532.686 262.473 532.686 263.451C532.686 263.768 532.645 264.008 532.562 264.172L531.051 264.172ZM523 267.441L523 265.815L532.51 265.815L532.51 267.441L523 267.441ZM535.032 265.684C535.296 265.684 535.519 265.763 535.7 265.921C535.882 266.085 535.973 266.325 535.973 266.642C535.973 266.958 535.882 267.198 535.7 267.362C535.519 267.526 535.296 267.608 535.032 267.608C534.769 267.608 534.549 267.526 534.373 267.362C534.197 267.198 534.109 266.958 534.109 266.642C534.109 266.325 534.197 266.085 534.373 265.921C534.549 265.763 534.769 265.684 535.032 265.684ZM527.834 269.665C529.316 269.665 530.494 270.008 531.367 270.693C532.246 271.379 532.686 272.287 532.686 273.418C532.686 274.578 532.275 275.483 531.455 276.134L532.51 276.213L532.51 277.698L523.229 277.698C521.998 277.698 521.028 277.332 520.319 276.6C519.61 275.873 519.256 274.895 519.256 273.664C519.256 272.979 519.402 272.308 519.695 271.651C519.988 270.995 520.39 270.494 520.899 270.148L521.875 270.992C521.014 271.689 520.583 272.542 520.583 273.55C520.583 274.341 520.806 274.956 521.251 275.396C521.696 275.841 522.323 276.063 523.132 276.063L523.949 276.063C523.199 275.413 522.824 274.525 522.824 273.4C522.824 272.287 523.272 271.385 524.169 270.693C525.065 270.008 526.287 269.665 527.834 269.665ZM527.649 271.3C526.577 271.3 525.733 271.52 525.118 271.959C524.509 272.398 524.204 273.014 524.204 273.805C524.204 274.83 524.67 275.583 525.602 276.063L529.943 276.063C530.852 275.565 531.306 274.818 531.306 273.822C531.306 273.031 530.998 272.413 530.383 271.968C529.768 271.522 528.856 271.3 527.649 271.3ZM531.358 281.785C532.243 282.506 532.686 283.443 532.686 284.598C532.686 286.607 531.552 287.621 529.284 287.639L523 287.639L523 286.013L529.293 286.013C529.979 286.007 530.485 285.849 530.813 285.538C531.142 285.233 531.306 284.756 531.306 284.105C531.306 283.578 531.165 283.115 530.884 282.717C530.603 282.318 530.233 282.008 529.776 281.785L523 281.785L523 280.159L536.5 280.159L536.5 281.785L531.358 281.785ZM534.812 292.279L532.51 292.279L532.51 294.055L531.253 294.055L531.253 292.279L525.355 292.279C524.975 292.279 524.687 292.358 524.494 292.517C524.307 292.675 524.213 292.944 524.213 293.325C524.213 293.513 524.248 293.771 524.318 294.099L523 294.099C522.883 293.671 522.824 293.255 522.824 292.851C522.824 292.124 523.044 291.576 523.483 291.207C523.923 290.838 524.547 290.653 525.355 290.653L531.253 290.653L531.253 288.922L532.51 288.922L532.51 290.653L534.812 290.653L534.812 292.279Z" fill="white"/>
<path d="M121.351 280.291C122.804 280.291 123.973 280.625 124.857 281.293C125.736 281.961 126.176 282.857 126.176 283.982C126.176 285.184 125.751 286.112 124.901 286.769L126 286.848L126 288.342L112.5 288.342L112.5 286.716L117.536 286.716C116.722 286.06 116.314 285.154 116.314 284C116.314 282.846 116.751 281.94 117.624 281.284C118.497 280.622 119.692 280.291 121.21 280.291L121.351 280.291ZM121.166 281.917C120.059 281.917 119.203 282.131 118.6 282.559C117.996 282.986 117.694 283.602 117.694 284.404C117.694 285.477 118.192 286.247 119.188 286.716L123.302 286.716C124.298 286.218 124.796 285.441 124.796 284.387C124.796 283.607 124.494 283.001 123.891 282.567C123.287 282.134 122.379 281.917 121.166 281.917ZM121.157 278.665C120.226 278.665 119.388 278.483 118.644 278.12C117.899 277.751 117.325 277.241 116.921 276.591C116.517 275.935 116.314 275.188 116.314 274.35C116.314 273.055 116.763 272.009 117.659 271.212C118.556 270.409 119.748 270.008 121.236 270.008L121.351 270.008C122.276 270.008 123.108 270.187 123.847 270.544C124.579 270.896 125.15 271.402 125.561 272.064C125.971 272.721 126.176 273.477 126.176 274.332C126.176 275.621 125.728 276.667 124.831 277.47C123.935 278.267 122.748 278.665 121.271 278.665L121.157 278.665ZM121.351 277.03C122.405 277.03 123.252 276.787 123.891 276.301C124.529 275.809 124.849 275.152 124.849 274.332C124.849 273.506 124.526 272.85 123.882 272.363C123.231 271.877 122.323 271.634 121.157 271.634C120.114 271.634 119.271 271.883 118.626 272.381C117.976 272.873 117.65 273.529 117.65 274.35C117.65 275.152 117.97 275.8 118.608 276.292C119.247 276.784 120.161 277.03 121.351 277.03ZM117.949 263.372C117.908 263.618 117.888 263.885 117.888 264.172C117.888 265.238 118.342 265.962 119.25 266.343L126 266.343L126 267.969L116.49 267.969L116.49 266.387L117.589 266.36C116.739 265.827 116.314 265.071 116.314 264.093C116.314 263.776 116.355 263.536 116.438 263.372L117.949 263.372ZM121.166 262.44C119.707 262.44 118.535 262.095 117.65 261.403C116.76 260.712 116.314 259.807 116.314 258.688C116.314 257.574 116.695 256.692 117.457 256.042L112.5 256.042L112.5 254.416L126 254.416L126 255.91L124.98 255.989C125.777 256.64 126.176 257.545 126.176 258.705C126.176 259.807 125.725 260.706 124.822 261.403C123.92 262.095 122.742 262.44 121.289 262.44L121.166 262.44ZM121.351 260.814C122.429 260.814 123.272 260.592 123.882 260.146C124.491 259.701 124.796 259.086 124.796 258.301C124.796 257.27 124.333 256.517 123.407 256.042L119.039 256.042C118.143 256.528 117.694 257.275 117.694 258.283C117.694 259.08 118.002 259.701 118.617 260.146C119.232 260.592 120.144 260.814 121.351 260.814ZM126.176 247.938C126.176 249.228 125.754 250.276 124.91 251.085C124.061 251.894 122.927 252.298 121.509 252.298L121.21 252.298C120.267 252.298 119.426 252.119 118.688 251.762C117.943 251.398 117.363 250.895 116.947 250.25C116.525 249.6 116.314 248.896 116.314 248.141C116.314 246.904 116.722 245.943 117.536 245.258C118.351 244.572 119.517 244.229 121.034 244.229L121.711 244.229L121.711 250.672C122.648 250.648 123.407 250.376 123.987 249.854C124.562 249.327 124.849 248.659 124.849 247.851C124.849 247.276 124.731 246.79 124.497 246.392C124.263 245.993 123.952 245.645 123.565 245.346L124.339 244.353C125.563 245.149 126.176 246.345 126.176 247.938ZM117.65 248.141C117.65 248.797 117.891 249.348 118.371 249.793C118.846 250.238 119.514 250.514 120.375 250.619L120.375 245.855L120.252 245.855C119.426 245.902 118.787 246.125 118.336 246.523C117.879 246.922 117.65 247.461 117.65 248.141ZM117.949 237.743C117.908 237.989 117.888 238.256 117.888 238.543C117.888 239.609 118.342 240.333 119.25 240.714L126 240.714L126 242.34L116.49 242.34L116.49 240.758L117.589 240.731C116.739 240.198 116.314 239.442 116.314 238.464C116.314 238.147 116.355 237.907 116.438 237.743L117.949 237.743ZM121.228 232.856L121.228 237.146L119.9 237.146L119.9 232.856L121.228 232.856ZM126 229.499L126 231.125L112.5 231.125L112.5 229.499L126 229.499ZM126.176 222.942C126.176 224.231 125.754 225.28 124.91 226.089C124.061 226.897 122.927 227.302 121.509 227.302L121.21 227.302C120.267 227.302 119.426 227.123 118.688 226.766C117.943 226.402 117.363 225.898 116.947 225.254C116.525 224.604 116.314 223.9 116.314 223.145C116.314 221.908 116.722 220.947 117.536 220.262C118.351 219.576 119.517 219.233 121.034 219.233L121.711 219.233L121.711 225.676C122.648 225.652 123.407 225.38 123.987 224.858C124.562 224.331 124.849 223.663 124.849 222.854C124.849 222.28 124.731 221.794 124.497 221.396C124.263 220.997 123.952 220.648 123.565 220.35L124.339 219.356C125.563 220.153 126.176 221.349 126.176 222.942ZM117.65 223.145C117.65 223.801 117.891 224.352 118.371 224.797C118.846 225.242 119.514 225.518 120.375 225.623L120.375 220.859L120.252 220.859C119.426 220.906 118.787 221.129 118.336 221.527C117.879 221.926 117.65 222.465 117.65 223.145ZM126 216.544L117.747 216.544L117.747 218.047L116.49 218.047L116.49 216.544L115.515 216.544C114.495 216.544 113.707 216.271 113.15 215.727C112.594 215.182 112.315 214.411 112.315 213.415C112.315 213.04 112.365 212.668 112.465 212.299L113.783 212.387C113.73 212.662 113.704 212.955 113.704 213.266C113.704 213.793 113.859 214.2 114.17 214.487C114.475 214.774 114.914 214.918 115.488 214.918L116.49 214.918L116.49 212.888L117.747 212.888L117.747 214.918L126 214.918L126 216.544ZM114.188 208.88L116.49 208.88L116.49 207.104L117.747 207.104L117.747 208.88L123.645 208.88C124.025 208.88 124.313 208.801 124.506 208.643C124.693 208.484 124.787 208.215 124.787 207.834C124.787 207.646 124.752 207.389 124.682 207.061L126 207.061C126.117 207.488 126.176 207.904 126.176 208.309C126.176 209.035 125.956 209.583 125.517 209.952C125.077 210.321 124.453 210.506 123.645 210.506L117.747 210.506L117.747 212.237L116.49 212.237L116.49 210.506L114.188 210.506L114.188 208.88Z" fill="white"/>
<path d="M582.51 202.121L581.455 202.165C582.275 202.862 582.686 203.803 582.686 204.986C582.686 206.316 582.176 207.222 581.156 207.702C581.613 208.019 581.982 208.429 582.264 208.933C582.545 209.442 582.686 210.043 582.686 210.734C582.686 212.82 581.581 213.881 579.372 213.916L573 213.916L573 212.29L579.275 212.29C579.955 212.29 580.462 212.135 580.796 211.824C581.136 211.514 581.306 210.992 581.306 210.26C581.306 209.656 581.124 209.155 580.761 208.757C580.403 208.358 579.92 208.127 579.311 208.062L573 208.062L573 206.428L579.231 206.428C580.614 206.428 581.306 205.751 581.306 204.397C581.306 203.331 580.852 202.602 579.943 202.209L573 202.209L573 200.583L582.51 200.583L582.51 202.121ZM573 222.248C573.187 222.154 573.521 222.078 574.002 222.02C573.217 221.264 572.824 220.361 572.824 219.312C572.824 218.375 573.088 217.604 573.615 217.001C574.148 216.403 574.822 216.104 575.637 216.104C576.627 216.104 577.395 216.479 577.939 217.229C578.49 217.985 578.766 219.046 578.766 220.411L578.766 221.993L579.513 221.993C580.081 221.993 580.532 221.823 580.866 221.483C581.206 221.144 581.376 220.643 581.376 219.98C581.376 219.4 581.229 218.914 580.937 218.521C580.644 218.129 580.289 217.933 579.873 217.933L579.873 216.298C580.348 216.298 580.805 216.465 581.244 216.799C581.689 217.139 582.041 217.596 582.299 218.17C582.557 218.75 582.686 219.386 582.686 220.077C582.686 221.173 582.41 222.031 581.859 222.652C581.314 223.273 580.562 223.596 579.601 223.619L575.224 223.619C574.351 223.619 573.656 223.73 573.141 223.953L573 223.953L573 222.248ZM574.239 219.55C574.239 220.06 574.371 220.543 574.635 221C574.898 221.457 575.241 221.788 575.663 221.993L577.614 221.993L577.614 220.719C577.614 218.727 577.031 217.73 575.865 217.73C575.355 217.73 574.957 217.9 574.67 218.24C574.383 218.58 574.239 219.017 574.239 219.55ZM581.051 230.765C581.092 230.519 581.112 230.252 581.112 229.965C581.112 228.898 580.658 228.175 579.75 227.794L573 227.794L573 226.168L582.51 226.168L582.51 227.75L581.411 227.776C582.261 228.31 582.686 229.065 582.686 230.044C582.686 230.36 582.645 230.601 582.562 230.765L581.051 230.765ZM577.834 231.705C579.316 231.705 580.494 232.048 581.367 232.733C582.246 233.419 582.686 234.327 582.686 235.458C582.686 236.618 582.275 237.523 581.455 238.174L582.51 238.253L582.51 239.738L573.229 239.738C571.998 239.738 571.028 239.372 570.319 238.64C569.61 237.913 569.256 236.935 569.256 235.704C569.256 235.019 569.402 234.348 569.695 233.691C569.988 233.035 570.39 232.534 570.899 232.188L571.875 233.032C571.014 233.729 570.583 234.582 570.583 235.59C570.583 236.381 570.806 236.996 571.251 237.436C571.696 237.881 572.323 238.104 573.132 238.104L573.949 238.104C573.199 237.453 572.824 236.565 572.824 235.44C572.824 234.327 573.272 233.425 574.169 232.733C575.065 232.048 576.287 231.705 577.834 231.705ZM577.649 233.34C576.577 233.34 575.733 233.56 575.118 233.999C574.509 234.438 574.204 235.054 574.204 235.845C574.204 236.87 574.67 237.623 575.602 238.104L579.943 238.104C580.852 237.605 581.306 236.858 581.306 235.862C581.306 235.071 580.998 234.453 580.383 234.008C579.768 233.562 578.856 233.34 577.649 233.34ZM573 243.966L573 242.34L582.51 242.34L582.51 243.966L573 243.966ZM585.032 242.208C585.296 242.208 585.519 242.287 585.7 242.445C585.882 242.609 585.973 242.85 585.973 243.166C585.973 243.482 585.882 243.723 585.7 243.887C585.519 244.051 585.296 244.133 585.032 244.133C584.769 244.133 584.549 244.051 584.373 243.887C584.197 243.723 584.109 243.482 584.109 243.166C584.109 242.85 584.197 242.609 584.373 242.445C584.549 242.287 584.769 242.208 585.032 242.208ZM582.51 248.114L581.314 248.167C582.229 248.894 582.686 249.843 582.686 251.015C582.686 253.024 581.552 254.038 579.284 254.056L573 254.056L573 252.43L579.293 252.43C579.979 252.424 580.485 252.266 580.813 251.955C581.142 251.65 581.306 251.173 581.306 250.522C581.306 249.995 581.165 249.532 580.884 249.134C580.603 248.735 580.233 248.425 579.776 248.202L573 248.202L573 246.576L582.51 246.576L582.51 248.114ZM577.772 259.892L577.772 255.603L579.1 255.603L579.1 259.892L577.772 259.892ZM581.051 266.079C581.092 265.833 581.112 265.566 581.112 265.279C581.112 264.213 580.658 263.489 579.75 263.108L573 263.108L573 261.482L582.51 261.482L582.51 263.064L581.411 263.091C582.261 263.624 582.686 264.38 582.686 265.358C582.686 265.675 582.645 265.915 582.562 266.079L581.051 266.079ZM573 269.349L573 267.723L582.51 267.723L582.51 269.349L573 269.349ZM585.032 267.591C585.296 267.591 585.519 267.67 585.7 267.828C585.882 267.992 585.973 268.232 585.973 268.549C585.973 268.865 585.882 269.105 585.7 269.27C585.519 269.434 585.296 269.516 585.032 269.516C584.769 269.516 584.549 269.434 584.373 269.27C584.197 269.105 584.109 268.865 584.109 268.549C584.109 268.232 584.197 267.992 584.373 267.828C584.549 267.67 584.769 267.591 585.032 267.591ZM577.834 271.572C579.316 271.572 580.494 271.915 581.367 272.601C582.246 273.286 582.686 274.194 582.686 275.325C582.686 276.485 582.275 277.391 581.455 278.041L582.51 278.12L582.51 279.605L573.229 279.605C571.998 279.605 571.028 279.239 570.319 278.507C569.61 277.78 569.256 276.802 569.256 275.571C569.256 274.886 569.402 274.215 569.695 273.559C569.988 272.902 570.39 272.401 570.899 272.056L571.875 272.899C571.014 273.597 570.583 274.449 570.583 275.457C570.583 276.248 570.806 276.863 571.251 277.303C571.696 277.748 572.323 277.971 573.132 277.971L573.949 277.971C573.199 277.32 572.824 276.433 572.824 275.308C572.824 274.194 573.272 273.292 574.169 272.601C575.065 271.915 576.287 271.572 577.834 271.572ZM577.649 273.207C576.577 273.207 575.733 273.427 575.118 273.866C574.509 274.306 574.204 274.921 574.204 275.712C574.204 276.737 574.67 277.49 575.602 277.971L579.943 277.971C580.852 277.473 581.306 276.726 581.306 275.729C581.306 274.938 580.998 274.32 580.383 273.875C579.768 273.43 578.856 273.207 577.649 273.207ZM581.358 283.692C582.243 284.413 582.686 285.351 582.686 286.505C582.686 288.515 581.552 289.528 579.284 289.546L573 289.546L573 287.92L579.293 287.92C579.979 287.914 580.485 287.756 580.813 287.445C581.142 287.141 581.306 286.663 581.306 286.013C581.306 285.485 581.165 285.022 580.884 284.624C580.603 284.226 580.233 283.915 579.776 283.692L573 283.692L573 282.066L586.5 282.066L586.5 283.692L581.358 283.692ZM584.812 294.187L582.51 294.187L582.51 295.962L581.253 295.962L581.253 294.187L575.355 294.187C574.975 294.187 574.687 294.266 574.494 294.424C574.307 294.582 574.213 294.852 574.213 295.232C574.213 295.42 574.248 295.678 574.318 296.006L573 296.006C572.883 295.578 572.824 295.162 572.824 294.758C572.824 294.031 573.044 293.483 573.483 293.114C573.923 292.745 574.547 292.561 575.355 292.561L581.253 292.561L581.253 290.829L582.51 290.829L582.51 292.561L584.812 292.561L584.812 294.187Z" fill="black"/>
<path d="M630.051 236.134C630.092 235.888 630.112 235.621 630.112 235.334C630.112 234.268 629.658 233.544 628.75 233.163L622 233.163L622 231.537L631.51 231.537L631.51 233.119L630.411 233.146C631.261 233.679 631.686 234.435 631.686 235.413C631.686 235.729 631.645 235.97 631.562 236.134L630.051 236.134ZM622 239.403L622 237.777L631.51 237.777L631.51 239.403L622 239.403ZM634.032 237.646C634.296 237.646 634.519 237.725 634.7 237.883C634.882 238.047 634.973 238.287 634.973 238.604C634.973 238.92 634.882 239.16 634.7 239.324C634.519 239.488 634.296 239.57 634.032 239.57C633.769 239.57 633.549 239.488 633.373 239.324C633.197 239.16 633.109 238.92 633.109 238.604C633.109 238.287 633.197 238.047 633.373 237.883C633.549 237.725 633.769 237.646 634.032 237.646ZM626.834 241.627C628.316 241.627 629.494 241.97 630.367 242.655C631.246 243.341 631.686 244.249 631.686 245.38C631.686 246.54 631.275 247.445 630.455 248.096L631.51 248.175L631.51 249.66L622.229 249.66C620.998 249.66 620.028 249.294 619.319 248.562C618.61 247.835 618.256 246.856 618.256 245.626C618.256 244.94 618.402 244.27 618.695 243.613C618.988 242.957 619.39 242.456 619.899 242.11L620.875 242.954C620.014 243.651 619.583 244.504 619.583 245.512C619.583 246.303 619.806 246.918 620.251 247.357C620.696 247.803 621.323 248.025 622.132 248.025L622.949 248.025C622.199 247.375 621.824 246.487 621.824 245.362C621.824 244.249 622.272 243.347 623.169 242.655C624.065 241.97 625.287 241.627 626.834 241.627ZM626.649 243.262C625.577 243.262 624.733 243.481 624.118 243.921C623.509 244.36 623.204 244.976 623.204 245.767C623.204 246.792 623.67 247.545 624.602 248.025L628.943 248.025C629.852 247.527 630.306 246.78 630.306 245.784C630.306 244.993 629.998 244.375 629.383 243.93C628.768 243.484 627.856 243.262 626.649 243.262ZM630.358 253.747C631.243 254.468 631.686 255.405 631.686 256.56C631.686 258.569 630.552 259.583 628.284 259.601L622 259.601L622 257.975L628.293 257.975C628.979 257.969 629.485 257.811 629.813 257.5C630.142 257.195 630.306 256.718 630.306 256.067C630.306 255.54 630.165 255.077 629.884 254.679C629.603 254.28 629.233 253.97 628.776 253.747L622 253.747L622 252.121L635.5 252.121L635.5 253.747L630.358 253.747ZM633.812 264.241L631.51 264.241L631.51 266.017L630.253 266.017L630.253 264.241L624.355 264.241C623.975 264.241 623.687 264.32 623.494 264.479C623.307 264.637 623.213 264.906 623.213 265.287C623.213 265.475 623.248 265.732 623.318 266.061L622 266.061C621.883 265.633 621.824 265.217 621.824 264.812C621.824 264.086 622.044 263.538 622.483 263.169C622.923 262.8 623.547 262.615 624.355 262.615L630.253 262.615L630.253 260.884L631.51 260.884L631.51 262.615L633.812 262.615L633.812 264.241Z" fill="black"/>
<path d="M66.4902 289.22L67.5449 289.176C66.7246 288.479 66.3145 287.538 66.3145 286.354C66.3145 285.024 66.8242 284.119 67.8438 283.639C67.3867 283.322 67.0176 282.912 66.7363 282.408C66.4551 281.898 66.3145 281.298 66.3145 280.606C66.3145 278.521 67.4189 277.46 69.6279 277.425L76 277.425L76 279.051L69.7246 279.051C69.0449 279.051 68.5381 279.206 68.2041 279.517C67.8643 279.827 67.6943 280.349 67.6943 281.081C67.6943 281.685 67.876 282.186 68.2393 282.584C68.5967 282.982 69.0801 283.214 69.6895 283.278L76 283.278L76 284.913L69.7686 284.913C68.3857 284.913 67.6943 285.59 67.6943 286.943C67.6943 288.01 68.1484 288.739 69.0566 289.132L76 289.132L76 290.758L66.4902 290.758L66.4902 289.22ZM76 269.093C75.8125 269.187 75.4785 269.263 74.998 269.321C75.7832 270.077 76.1758 270.979 76.1758 272.028C76.1758 272.966 75.9121 273.736 75.3848 274.34C74.8516 274.938 74.1777 275.236 73.3633 275.236C72.373 275.236 71.6055 274.861 71.0605 274.111C70.5098 273.355 70.2344 272.295 70.2344 270.93L70.2344 269.348L69.4873 269.348C68.9189 269.348 68.4678 269.518 68.1338 269.857C67.7939 270.197 67.624 270.698 67.624 271.36C67.624 271.94 67.7705 272.427 68.0635 272.819C68.3564 273.212 68.7109 273.408 69.127 273.408L69.127 275.043C68.6523 275.043 68.1953 274.876 67.7559 274.542C67.3105 274.202 66.959 273.745 66.7012 273.171C66.4434 272.591 66.3145 271.955 66.3145 271.264C66.3145 270.168 66.5898 269.31 67.1406 268.688C67.6856 268.067 68.4385 267.745 69.3994 267.722L73.7764 267.722C74.6494 267.722 75.3438 267.61 75.8594 267.388L76 267.388L76 269.093ZM74.7607 271.791C74.7607 271.281 74.6289 270.798 74.3652 270.341C74.1016 269.884 73.7588 269.553 73.3369 269.348L71.3857 269.348L71.3857 270.622C71.3857 272.614 71.9688 273.61 73.1348 273.61C73.6445 273.61 74.043 273.44 74.3301 273.101C74.6172 272.761 74.7607 272.324 74.7607 271.791ZM67.9492 260.576C67.9082 260.822 67.8877 261.089 67.8877 261.376C67.8877 262.442 68.3418 263.166 69.25 263.547L76 263.547L76 265.173L66.4902 265.173L66.4902 263.591L67.5889 263.564C66.7393 263.031 66.3145 262.275 66.3145 261.297C66.3145 260.98 66.3555 260.74 66.4375 260.576L67.9492 260.576ZM71.166 259.636C69.6836 259.636 68.5059 259.293 67.6328 258.607C66.7539 257.922 66.3145 257.014 66.3145 255.883C66.3145 254.723 66.7246 253.817 67.5449 253.167L66.4902 253.088L66.4902 251.603L75.7715 251.603C77.002 251.603 77.9717 251.969 78.6807 252.701C79.3897 253.428 79.7441 254.406 79.7441 255.637C79.7441 256.322 79.5977 256.993 79.3047 257.649C79.0117 258.306 78.6104 258.807 78.1006 259.152L77.125 258.309C77.9863 257.611 78.417 256.759 78.417 255.751C78.417 254.96 78.1943 254.345 77.749 253.905C77.3037 253.46 76.6768 253.237 75.8682 253.237L75.0508 253.237C75.8008 253.888 76.1758 254.775 76.1758 255.9C76.1758 257.014 75.7275 257.916 74.8311 258.607C73.9346 259.293 72.7129 259.636 71.166 259.636ZM71.3506 258.001C72.4229 258.001 73.2666 257.781 73.8818 257.342C74.4912 256.902 74.7959 256.287 74.7959 255.496C74.7959 254.471 74.3301 253.718 73.3984 253.237L69.0566 253.237C68.1484 253.735 67.6943 254.482 67.6943 255.479C67.6943 256.27 68.002 256.888 68.6172 257.333C69.2324 257.778 70.1436 258.001 71.3506 258.001ZM76 247.375L76 249.001L66.4902 249.001L66.4902 247.375L76 247.375ZM63.9678 249.133C63.7041 249.133 63.4815 249.054 63.2998 248.896C63.1182 248.731 63.0273 248.491 63.0273 248.175C63.0273 247.858 63.1182 247.618 63.2998 247.454C63.4815 247.29 63.7041 247.208 63.9678 247.208C64.2315 247.208 64.4512 247.29 64.627 247.454C64.8027 247.618 64.8906 247.858 64.8906 248.175C64.8906 248.491 64.8027 248.731 64.627 248.896C64.4512 249.054 64.2315 249.133 63.9678 249.133ZM66.4902 243.227L67.6856 243.174C66.7715 242.447 66.3145 241.498 66.3145 240.326C66.3145 238.316 67.4482 237.303 69.7158 237.285L76 237.285L76 238.911L69.707 238.911C69.0215 238.917 68.5147 239.075 68.1865 239.386C67.8584 239.69 67.6943 240.168 67.6943 240.818C67.6943 241.346 67.835 241.809 68.1162 242.207C68.3975 242.605 68.7666 242.916 69.2236 243.139L76 243.139L76 244.765L66.4902 244.765L66.4902 243.227ZM71.2275 231.449L71.2275 235.738L69.9004 235.738L69.9004 231.449L71.2275 231.449ZM76 228.092L76 229.718L62.5 229.718L62.5 228.092L76 228.092ZM76.1758 221.535C76.1758 222.824 75.7539 223.873 74.9102 224.682C74.0606 225.49 72.9268 225.895 71.5088 225.895L71.21 225.895C70.2666 225.895 69.4258 225.716 68.6875 225.358C67.9434 224.995 67.3633 224.491 66.9473 223.847C66.5254 223.196 66.3145 222.493 66.3145 221.737C66.3145 220.501 66.7217 219.54 67.5361 218.854C68.3506 218.169 69.5166 217.826 71.0342 217.826L71.7109 217.826L71.7109 224.269C72.6484 224.245 73.4072 223.973 73.9873 223.451C74.5615 222.924 74.8486 222.256 74.8486 221.447C74.8486 220.873 74.7315 220.387 74.4971 219.988C74.2627 219.59 73.9522 219.241 73.5654 218.942L74.3389 217.949C75.5635 218.746 76.1758 219.941 76.1758 221.535ZM67.6504 221.737C67.6504 222.394 67.8906 222.944 68.3711 223.39C68.8457 223.835 69.5137 224.11 70.375 224.216L70.375 219.452L70.252 219.452C69.4258 219.499 68.7871 219.722 68.3359 220.12C67.8789 220.519 67.6504 221.058 67.6504 221.737ZM76 215.137L67.7471 215.137L67.7471 216.64L66.4902 216.64L66.4902 215.137L65.5147 215.137C64.4951 215.137 63.707 214.864 63.1504 214.319C62.5938 213.774 62.3154 213.004 62.3154 212.008C62.3154 211.633 62.3652 211.261 62.4649 210.892L63.7832 210.979C63.7305 211.255 63.7041 211.548 63.7041 211.858C63.7041 212.386 63.8594 212.793 64.1699 213.08C64.4746 213.367 64.9141 213.511 65.4883 213.511L66.4902 213.511L66.4902 211.48L67.7471 211.48L67.7471 213.511L76 213.511L76 215.137ZM64.1875 207.473L66.4902 207.473L66.4902 205.697L67.7471 205.697L67.7471 207.473L73.6445 207.473C74.0254 207.473 74.3125 207.394 74.5059 207.235C74.6934 207.077 74.7871 206.808 74.7871 206.427C74.7871 206.239 74.752 205.981 74.6817 205.653L76 205.653C76.1172 206.081 76.1758 206.497 76.1758 206.901C76.1758 207.628 75.9561 208.176 75.5166 208.545C75.0772 208.914 74.4531 209.099 73.6445 209.099L67.7471 209.099L67.7471 210.83L66.4902 210.83L66.4902 209.099L64.1875 209.099L64.1875 207.473Z" fill="black"/>
<path d="M30 257.537L30 259.163L16.5 259.163L16.5 257.537L30 257.537ZM30.1758 250.98C30.1758 252.27 29.7539 253.318 28.9102 254.127C28.0605 254.936 26.9268 255.34 25.5088 255.34L25.21 255.34C24.2666 255.34 23.4258 255.161 22.6875 254.804C21.9434 254.44 21.3633 253.937 20.9473 253.292C20.5254 252.642 20.3145 251.938 20.3145 251.183C20.3145 249.946 20.7217 248.985 21.5361 248.3C22.3506 247.614 23.5166 247.271 25.0342 247.271L25.7109 247.271L25.7109 253.714C26.6484 253.69 27.4072 253.418 27.9873 252.896C28.5615 252.369 28.8486 251.701 28.8486 250.893C28.8486 250.318 28.7314 249.832 28.4971 249.434C28.2627 249.035 27.9522 248.687 27.5654 248.388L28.3389 247.395C29.5635 248.191 30.1758 249.387 30.1758 250.98ZM21.6504 251.183C21.6504 251.839 21.8906 252.39 22.3711 252.835C22.8457 253.28 23.5137 253.556 24.375 253.661L24.375 248.897L24.252 248.897C23.4258 248.944 22.7871 249.167 22.3359 249.565C21.8789 249.964 21.6504 250.503 21.6504 251.183ZM30 244.582L21.7471 244.582L21.7471 246.085L20.4902 246.085L20.4902 244.582L19.5147 244.582C18.4951 244.582 17.707 244.31 17.1504 243.765C16.5938 243.22 16.3154 242.449 16.3154 241.453C16.3154 241.078 16.3652 240.706 16.4648 240.337L17.7832 240.425C17.7305 240.7 17.7041 240.993 17.7041 241.304C17.7041 241.831 17.8594 242.238 18.1699 242.525C18.4746 242.813 18.9141 242.956 19.4883 242.956L20.4902 242.956L20.4902 240.926L21.7471 240.926L21.7471 242.956L30 242.956L30 244.582ZM18.1875 236.918L20.4902 236.918L20.4902 235.143L21.7471 235.143L21.7471 236.918L27.6445 236.918C28.0254 236.918 28.3125 236.839 28.5059 236.681C28.6934 236.522 28.7871 236.253 28.7871 235.872C28.7871 235.685 28.752 235.427 28.6816 235.099L30 235.099C30.1172 235.526 30.1758 235.942 30.1758 236.347C30.1758 237.073 29.9561 237.621 29.5166 237.99C29.0772 238.359 28.4531 238.544 27.6445 238.544L21.7471 238.544L21.7471 240.275L20.4902 240.275L20.4902 238.544L18.1875 238.544L18.1875 236.918Z" fill="black"/>
<path d="M269.802 416.49L269.846 417.545C270.543 416.725 271.483 416.314 272.667 416.314C273.997 416.314 274.902 416.824 275.383 417.844C275.699 417.387 276.109 417.018 276.613 416.736C277.123 416.455 277.724 416.314 278.415 416.314C280.501 416.314 281.562 417.419 281.597 419.628V426H279.971V419.725C279.971 419.045 279.815 418.538 279.505 418.204C279.194 417.864 278.673 417.694 277.94 417.694C277.337 417.694 276.836 417.876 276.438 418.239C276.039 418.597 275.808 419.08 275.743 419.689V426H274.108V419.769C274.108 418.386 273.432 417.694 272.078 417.694C271.012 417.694 270.282 418.148 269.89 419.057V426H268.264V416.49H269.802ZM289.929 426C289.835 425.812 289.759 425.479 289.7 424.998C288.944 425.783 288.042 426.176 286.993 426.176C286.056 426.176 285.285 425.912 284.682 425.385C284.084 424.852 283.785 424.178 283.785 423.363C283.785 422.373 284.16 421.605 284.91 421.061C285.666 420.51 286.727 420.234 288.092 420.234H289.674V419.487C289.674 418.919 289.504 418.468 289.164 418.134C288.824 417.794 288.323 417.624 287.661 417.624C287.081 417.624 286.595 417.771 286.202 418.063C285.81 418.356 285.613 418.711 285.613 419.127H283.979C283.979 418.652 284.146 418.195 284.479 417.756C284.819 417.311 285.276 416.959 285.851 416.701C286.431 416.443 287.066 416.314 287.758 416.314C288.854 416.314 289.712 416.59 290.333 417.141C290.954 417.686 291.276 418.438 291.3 419.399V423.776C291.3 424.649 291.411 425.344 291.634 425.859V426H289.929ZM287.23 424.761C287.74 424.761 288.224 424.629 288.681 424.365C289.138 424.102 289.469 423.759 289.674 423.337V421.386H288.399C286.407 421.386 285.411 421.969 285.411 423.135C285.411 423.645 285.581 424.043 285.921 424.33C286.261 424.617 286.697 424.761 287.23 424.761ZM298.445 417.949C298.199 417.908 297.933 417.888 297.646 417.888C296.579 417.888 295.855 418.342 295.475 419.25V426H293.849V416.49H295.431L295.457 417.589C295.99 416.739 296.746 416.314 297.725 416.314C298.041 416.314 298.281 416.355 298.445 416.438V417.949ZM299.386 421.166C299.386 419.684 299.729 418.506 300.414 417.633C301.1 416.754 302.008 416.314 303.139 416.314C304.299 416.314 305.204 416.725 305.854 417.545L305.934 416.49H307.419V425.771C307.419 427.002 307.053 427.972 306.32 428.681C305.594 429.39 304.615 429.744 303.385 429.744C302.699 429.744 302.028 429.598 301.372 429.305C300.716 429.012 300.215 428.61 299.869 428.101L300.713 427.125C301.41 427.986 302.263 428.417 303.271 428.417C304.062 428.417 304.677 428.194 305.116 427.749C305.562 427.304 305.784 426.677 305.784 425.868V425.051C305.134 425.801 304.246 426.176 303.121 426.176C302.008 426.176 301.105 425.728 300.414 424.831C299.729 423.935 299.386 422.713 299.386 421.166ZM301.021 421.351C301.021 422.423 301.24 423.267 301.68 423.882C302.119 424.491 302.734 424.796 303.525 424.796C304.551 424.796 305.304 424.33 305.784 423.398V419.057C305.286 418.148 304.539 417.694 303.543 417.694C302.752 417.694 302.134 418.002 301.688 418.617C301.243 419.232 301.021 420.144 301.021 421.351ZM311.646 426H310.021V416.49H311.646V426ZM309.889 413.968C309.889 413.704 309.968 413.481 310.126 413.3C310.29 413.118 310.53 413.027 310.847 413.027C311.163 413.027 311.403 413.118 311.567 413.3C311.731 413.481 311.813 413.704 311.813 413.968C311.813 414.231 311.731 414.451 311.567 414.627C311.403 414.803 311.163 414.891 310.847 414.891C310.53 414.891 310.29 414.803 310.126 414.627C309.968 414.451 309.889 414.231 309.889 413.968ZM315.795 416.49L315.848 417.686C316.574 416.771 317.523 416.314 318.695 416.314C320.705 416.314 321.719 417.448 321.736 419.716V426H320.11V419.707C320.104 419.021 319.946 418.515 319.636 418.187C319.331 417.858 318.854 417.694 318.203 417.694C317.676 417.694 317.213 417.835 316.814 418.116C316.416 418.397 316.105 418.767 315.883 419.224V426H314.257V416.49H315.795ZM327.572 421.228H323.283V419.9H327.572V421.228ZM337.214 421.351C337.214 422.804 336.88 423.973 336.212 424.857C335.544 425.736 334.647 426.176 333.522 426.176C332.321 426.176 331.393 425.751 330.736 424.901L330.657 426H329.163V412.5H330.789V417.536C331.445 416.722 332.351 416.314 333.505 416.314C334.659 416.314 335.564 416.751 336.221 417.624C336.883 418.497 337.214 419.692 337.214 421.21V421.351ZM335.588 421.166C335.588 420.059 335.374 419.203 334.946 418.6C334.519 417.996 333.903 417.694 333.101 417.694C332.028 417.694 331.258 418.192 330.789 419.188V423.302C331.287 424.298 332.063 424.796 333.118 424.796C333.897 424.796 334.504 424.494 334.938 423.891C335.371 423.287 335.588 422.379 335.588 421.166ZM338.84 421.157C338.84 420.226 339.021 419.388 339.385 418.644C339.754 417.899 340.264 417.325 340.914 416.921C341.57 416.517 342.317 416.314 343.155 416.314C344.45 416.314 345.496 416.763 346.293 417.659C347.096 418.556 347.497 419.748 347.497 421.236V421.351C347.497 422.276 347.318 423.108 346.961 423.847C346.609 424.579 346.103 425.15 345.44 425.561C344.784 425.971 344.028 426.176 343.173 426.176C341.884 426.176 340.838 425.728 340.035 424.831C339.238 423.935 338.84 422.748 338.84 421.271V421.157ZM340.475 421.351C340.475 422.405 340.718 423.252 341.204 423.891C341.696 424.529 342.353 424.849 343.173 424.849C343.999 424.849 344.655 424.526 345.142 423.882C345.628 423.231 345.871 422.323 345.871 421.157C345.871 420.114 345.622 419.271 345.124 418.626C344.632 417.976 343.976 417.65 343.155 417.65C342.353 417.65 341.705 417.97 341.213 418.608C340.721 419.247 340.475 420.161 340.475 421.351ZM351.742 414.188V416.49H353.518V417.747H351.742V423.645C351.742 424.025 351.821 424.312 351.979 424.506C352.138 424.693 352.407 424.787 352.788 424.787C352.976 424.787 353.233 424.752 353.562 424.682V426C353.134 426.117 352.718 426.176 352.313 426.176C351.587 426.176 351.039 425.956 350.67 425.517C350.301 425.077 350.116 424.453 350.116 423.645V417.747H348.385V416.49H350.116V414.188H351.742ZM357.631 414.188V416.49H359.406V417.747H357.631V423.645C357.631 424.025 357.71 424.312 357.868 424.506C358.026 424.693 358.296 424.787 358.677 424.787C358.864 424.787 359.122 424.752 359.45 424.682V426C359.022 426.117 358.606 426.176 358.202 426.176C357.476 426.176 356.928 425.956 356.559 425.517C356.189 425.077 356.005 424.453 356.005 423.645V417.747H354.273V416.49H356.005V414.188H357.631ZM360.707 421.157C360.707 420.226 360.889 419.388 361.252 418.644C361.621 417.899 362.131 417.325 362.781 416.921C363.438 416.517 364.185 416.314 365.022 416.314C366.317 416.314 367.363 416.763 368.16 417.659C368.963 418.556 369.364 419.748 369.364 421.236V421.351C369.364 422.276 369.186 423.108 368.828 423.847C368.477 424.579 367.97 425.15 367.308 425.561C366.651 425.971 365.896 426.176 365.04 426.176C363.751 426.176 362.705 425.728 361.902 424.831C361.105 423.935 360.707 422.748 360.707 421.271V421.157ZM362.342 421.351C362.342 422.405 362.585 423.252 363.071 423.891C363.563 424.529 364.22 424.849 365.04 424.849C365.866 424.849 366.522 424.526 367.009 423.882C367.495 423.231 367.738 422.323 367.738 421.157C367.738 420.114 367.489 419.271 366.991 418.626C366.499 417.976 365.843 417.65 365.022 417.65C364.22 417.65 363.572 417.97 363.08 418.608C362.588 419.247 362.342 420.161 362.342 421.351ZM372.933 416.49L372.977 417.545C373.674 416.725 374.614 416.314 375.798 416.314C377.128 416.314 378.033 416.824 378.514 417.844C378.83 417.387 379.24 417.018 379.744 416.736C380.254 416.455 380.854 416.314 381.546 416.314C383.632 416.314 384.692 417.419 384.728 419.628V426H383.102V419.725C383.102 419.045 382.946 418.538 382.636 418.204C382.325 417.864 381.804 417.694 381.071 417.694C380.468 417.694 379.967 417.876 379.568 418.239C379.17 418.597 378.938 419.08 378.874 419.689V426H377.239V419.769C377.239 418.386 376.562 417.694 375.209 417.694C374.143 417.694 373.413 418.148 373.021 419.057V426H371.395V416.49H372.933Z" fill="black"/>
<path d="M306.769 472.351C306.769 473.804 306.435 474.973 305.767 475.857C305.099 476.736 304.202 477.176 303.077 477.176C301.876 477.176 300.947 476.751 300.291 475.901L300.212 477H298.718V463.5H300.344V468.536C301 467.722 301.905 467.314 303.06 467.314C304.214 467.314 305.119 467.751 305.775 468.624C306.438 469.497 306.769 470.692 306.769 472.21V472.351ZM305.143 472.166C305.143 471.059 304.929 470.203 304.501 469.6C304.073 468.996 303.458 468.694 302.655 468.694C301.583 468.694 300.812 469.192 300.344 470.188V474.302C300.842 475.298 301.618 475.796 302.673 475.796C303.452 475.796 304.059 475.494 304.492 474.891C304.926 474.287 305.143 473.379 305.143 472.166ZM308.395 472.157C308.395 471.226 308.576 470.388 308.939 469.644C309.309 468.899 309.818 468.325 310.469 467.921C311.125 467.517 311.872 467.314 312.71 467.314C314.005 467.314 315.051 467.763 315.848 468.659C316.65 469.556 317.052 470.748 317.052 472.236V472.351C317.052 473.276 316.873 474.108 316.516 474.847C316.164 475.579 315.657 476.15 314.995 476.561C314.339 476.971 313.583 477.176 312.728 477.176C311.438 477.176 310.393 476.728 309.59 475.831C308.793 474.935 308.395 473.748 308.395 472.271V472.157ZM310.029 472.351C310.029 473.405 310.272 474.252 310.759 474.891C311.251 475.529 311.907 475.849 312.728 475.849C313.554 475.849 314.21 475.526 314.696 474.882C315.183 474.231 315.426 473.323 315.426 472.157C315.426 471.114 315.177 470.271 314.679 469.626C314.187 468.976 313.53 468.65 312.71 468.65C311.907 468.65 311.26 468.97 310.768 469.608C310.275 470.247 310.029 471.161 310.029 472.351ZM321.297 465.188V467.49H323.072V468.747H321.297V474.645C321.297 475.025 321.376 475.312 321.534 475.506C321.692 475.693 321.962 475.787 322.343 475.787C322.53 475.787 322.788 475.752 323.116 475.682V477C322.688 477.117 322.272 477.176 321.868 477.176C321.142 477.176 320.594 476.956 320.225 476.517C319.855 476.077 319.671 475.453 319.671 474.645V468.747H317.939V467.49H319.671V465.188H321.297ZM327.186 465.188V467.49H328.961V468.747H327.186V474.645C327.186 475.025 327.265 475.312 327.423 475.506C327.581 475.693 327.851 475.787 328.231 475.787C328.419 475.787 328.677 475.752 329.005 475.682V477C328.577 477.117 328.161 477.176 327.757 477.176C327.03 477.176 326.482 476.956 326.113 476.517C325.744 476.077 325.56 475.453 325.56 474.645V468.747H323.828V467.49H325.56V465.188H327.186ZM330.262 472.157C330.262 471.226 330.443 470.388 330.807 469.644C331.176 468.899 331.686 468.325 332.336 467.921C332.992 467.517 333.739 467.314 334.577 467.314C335.872 467.314 336.918 467.763 337.715 468.659C338.518 469.556 338.919 470.748 338.919 472.236V472.351C338.919 473.276 338.74 474.108 338.383 474.847C338.031 475.579 337.524 476.15 336.862 476.561C336.206 476.971 335.45 477.176 334.595 477.176C333.306 477.176 332.26 476.728 331.457 475.831C330.66 474.935 330.262 473.748 330.262 472.271V472.157ZM331.896 472.351C331.896 473.405 332.14 474.252 332.626 474.891C333.118 475.529 333.774 475.849 334.595 475.849C335.421 475.849 336.077 475.526 336.563 474.882C337.05 474.231 337.293 473.323 337.293 472.157C337.293 471.114 337.044 470.271 336.546 469.626C336.054 468.976 335.397 468.65 334.577 468.65C333.774 468.65 333.127 468.97 332.635 469.608C332.143 470.247 331.896 471.161 331.896 472.351ZM342.487 467.49L342.531 468.545C343.229 467.725 344.169 467.314 345.353 467.314C346.683 467.314 347.588 467.824 348.068 468.844C348.385 468.387 348.795 468.018 349.299 467.736C349.809 467.455 350.409 467.314 351.101 467.314C353.187 467.314 354.247 468.419 354.282 470.628V477H352.656V470.725C352.656 470.045 352.501 469.538 352.19 469.204C351.88 468.864 351.358 468.694 350.626 468.694C350.022 468.694 349.521 468.876 349.123 469.239C348.725 469.597 348.493 470.08 348.429 470.689V477H346.794V470.769C346.794 469.386 346.117 468.694 344.764 468.694C343.697 468.694 342.968 469.148 342.575 470.057V477H340.949V467.49H342.487Z" fill="black"/>
<path d="M293.7 125.351C293.7 126.804 293.366 127.973 292.698 128.857C292.03 129.736 291.134 130.176 290.009 130.176C288.808 130.176 287.879 129.751 287.223 128.901L287.144 130H285.649V116.5H287.275V121.536C287.932 120.722 288.837 120.314 289.991 120.314C291.146 120.314 292.051 120.751 292.707 121.624C293.369 122.497 293.7 123.692 293.7 125.21V125.351ZM292.074 125.166C292.074 124.059 291.86 123.203 291.433 122.6C291.005 121.996 290.39 121.694 289.587 121.694C288.515 121.694 287.744 122.192 287.275 123.188V127.302C287.773 128.298 288.55 128.796 289.604 128.796C290.384 128.796 290.99 128.494 291.424 127.891C291.857 127.287 292.074 126.379 292.074 125.166ZM295.326 125.157C295.326 124.226 295.508 123.388 295.871 122.644C296.24 121.899 296.75 121.325 297.4 120.921C298.057 120.517 298.804 120.314 299.642 120.314C300.937 120.314 301.982 120.763 302.779 121.659C303.582 122.556 303.983 123.748 303.983 125.236V125.351C303.983 126.276 303.805 127.108 303.447 127.847C303.096 128.579 302.589 129.15 301.927 129.561C301.271 129.971 300.515 130.176 299.659 130.176C298.37 130.176 297.324 129.728 296.521 128.831C295.725 127.935 295.326 126.748 295.326 125.271V125.157ZM296.961 125.351C296.961 126.405 297.204 127.252 297.69 127.891C298.183 128.529 298.839 128.849 299.659 128.849C300.485 128.849 301.142 128.526 301.628 127.882C302.114 127.231 302.357 126.323 302.357 125.157C302.357 124.114 302.108 123.271 301.61 122.626C301.118 121.976 300.462 121.65 299.642 121.65C298.839 121.65 298.191 121.97 297.699 122.608C297.207 123.247 296.961 124.161 296.961 125.351ZM310.619 121.949C310.373 121.908 310.106 121.888 309.819 121.888C308.753 121.888 308.029 122.342 307.648 123.25V130H306.022V120.49H307.604L307.631 121.589C308.164 120.739 308.92 120.314 309.898 120.314C310.215 120.314 310.455 120.355 310.619 120.438V121.949ZM311.551 125.166C311.551 123.707 311.896 122.535 312.588 121.65C313.279 120.76 314.185 120.314 315.304 120.314C316.417 120.314 317.299 120.695 317.949 121.457V116.5H319.575V130H318.081L318.002 128.98C317.352 129.777 316.446 130.176 315.286 130.176C314.185 130.176 313.285 129.725 312.588 128.822C311.896 127.92 311.551 126.742 311.551 125.289V125.166ZM313.177 125.351C313.177 126.429 313.399 127.272 313.845 127.882C314.29 128.491 314.905 128.796 315.69 128.796C316.722 128.796 317.475 128.333 317.949 127.407V123.039C317.463 122.143 316.716 121.694 315.708 121.694C314.911 121.694 314.29 122.002 313.845 122.617C313.399 123.232 313.177 124.144 313.177 125.351ZM326.053 130.176C324.764 130.176 323.715 129.754 322.906 128.91C322.098 128.061 321.693 126.927 321.693 125.509V125.21C321.693 124.267 321.872 123.426 322.229 122.688C322.593 121.943 323.097 121.363 323.741 120.947C324.392 120.525 325.095 120.314 325.851 120.314C327.087 120.314 328.048 120.722 328.733 121.536C329.419 122.351 329.762 123.517 329.762 125.034V125.711H323.319C323.343 126.648 323.615 127.407 324.137 127.987C324.664 128.562 325.332 128.849 326.141 128.849C326.715 128.849 327.201 128.731 327.6 128.497C327.998 128.263 328.347 127.952 328.646 127.565L329.639 128.339C328.842 129.563 327.646 130.176 326.053 130.176ZM325.851 121.65C325.194 121.65 324.644 121.891 324.198 122.371C323.753 122.846 323.478 123.514 323.372 124.375H328.136V124.252C328.089 123.426 327.866 122.787 327.468 122.336C327.069 121.879 326.53 121.65 325.851 121.65ZM336.248 121.949C336.002 121.908 335.735 121.888 335.448 121.888C334.382 121.888 333.658 122.342 333.277 123.25V130H331.651V120.49H333.233L333.26 121.589C333.793 120.739 334.549 120.314 335.527 120.314C335.844 120.314 336.084 120.355 336.248 120.438V121.949ZM341.135 125.228H336.846V123.9H341.135V125.228ZM344.932 118.188V120.49H346.707V121.747H344.932V127.645C344.932 128.025 345.011 128.312 345.169 128.506C345.327 128.693 345.597 128.787 345.978 128.787C346.165 128.787 346.423 128.752 346.751 128.682V130C346.323 130.117 345.907 130.176 345.503 130.176C344.776 130.176 344.229 129.956 343.859 129.517C343.49 129.077 343.306 128.453 343.306 127.645V121.747H341.574V120.49H343.306V118.188H344.932ZM348.008 125.157C348.008 124.226 348.189 123.388 348.553 122.644C348.922 121.899 349.432 121.325 350.082 120.921C350.738 120.517 351.485 120.314 352.323 120.314C353.618 120.314 354.664 120.763 355.461 121.659C356.264 122.556 356.665 123.748 356.665 125.236V125.351C356.665 126.276 356.486 127.108 356.129 127.847C355.777 128.579 355.271 129.15 354.608 129.561C353.952 129.971 353.196 130.176 352.341 130.176C351.052 130.176 350.006 129.728 349.203 128.831C348.406 127.935 348.008 126.748 348.008 125.271V125.157ZM349.643 125.351C349.643 126.405 349.886 127.252 350.372 127.891C350.864 128.529 351.521 128.849 352.341 128.849C353.167 128.849 353.823 128.526 354.31 127.882C354.796 127.231 355.039 126.323 355.039 125.157C355.039 124.114 354.79 123.271 354.292 122.626C353.8 121.976 353.144 121.65 352.323 121.65C351.521 121.65 350.873 121.97 350.381 122.608C349.889 123.247 349.643 124.161 349.643 125.351ZM366.737 125.351C366.737 126.798 366.406 127.964 365.744 128.849C365.082 129.733 364.186 130.176 363.055 130.176C361.9 130.176 360.992 129.81 360.33 129.077V133.656H358.704V120.49H360.189L360.269 121.545C360.931 120.725 361.851 120.314 363.028 120.314C364.171 120.314 365.073 120.745 365.735 121.606C366.403 122.468 366.737 123.666 366.737 125.201V125.351ZM365.111 125.166C365.111 124.094 364.883 123.247 364.426 122.626C363.969 122.005 363.342 121.694 362.545 121.694C361.561 121.694 360.822 122.131 360.33 123.004V127.548C360.816 128.415 361.561 128.849 362.562 128.849C363.342 128.849 363.96 128.541 364.417 127.926C364.88 127.305 365.111 126.385 365.111 125.166Z" fill="white"/>
<path d="M277.73 371.351C277.73 372.804 277.396 373.973 276.729 374.857C276.061 375.736 275.164 376.176 274.039 376.176C272.838 376.176 271.909 375.751 271.253 374.901L271.174 376H269.68V362.5H271.306V367.536C271.962 366.722 272.867 366.314 274.021 366.314C275.176 366.314 276.081 366.751 276.737 367.624C277.399 368.497 277.73 369.692 277.73 371.21V371.351ZM276.104 371.166C276.104 370.059 275.891 369.203 275.463 368.6C275.035 367.996 274.42 367.694 273.617 367.694C272.545 367.694 271.774 368.192 271.306 369.188V373.302C271.804 374.298 272.58 374.796 273.635 374.796C274.414 374.796 275.021 374.494 275.454 373.891C275.888 373.287 276.104 372.379 276.104 371.166ZM279.356 371.157C279.356 370.226 279.538 369.388 279.901 368.644C280.271 367.899 280.78 367.325 281.431 366.921C282.087 366.517 282.834 366.314 283.672 366.314C284.967 366.314 286.013 366.763 286.81 367.659C287.612 368.556 288.014 369.748 288.014 371.236V371.351C288.014 372.276 287.835 373.108 287.478 373.847C287.126 374.579 286.619 375.15 285.957 375.561C285.301 375.971 284.545 376.176 283.689 376.176C282.4 376.176 281.354 375.728 280.552 374.831C279.755 373.935 279.356 372.748 279.356 371.271V371.157ZM280.991 371.351C280.991 372.405 281.234 373.252 281.721 373.891C282.213 374.529 282.869 374.849 283.689 374.849C284.516 374.849 285.172 374.526 285.658 373.882C286.145 373.231 286.388 372.323 286.388 371.157C286.388 370.114 286.139 369.271 285.641 368.626C285.148 367.976 284.492 367.65 283.672 367.65C282.869 367.65 282.222 367.97 281.729 368.608C281.237 369.247 280.991 370.161 280.991 371.351ZM294.649 367.949C294.403 367.908 294.137 367.888 293.85 367.888C292.783 367.888 292.06 368.342 291.679 369.25V376H290.053V366.49H291.635L291.661 367.589C292.194 366.739 292.95 366.314 293.929 366.314C294.245 366.314 294.485 366.355 294.649 366.438V367.949ZM295.581 371.166C295.581 369.707 295.927 368.535 296.618 367.65C297.31 366.76 298.215 366.314 299.334 366.314C300.447 366.314 301.329 366.695 301.979 367.457V362.5H303.605V376H302.111L302.032 374.98C301.382 375.777 300.477 376.176 299.316 376.176C298.215 376.176 297.315 375.725 296.618 374.822C295.927 373.92 295.581 372.742 295.581 371.289V371.166ZM297.207 371.351C297.207 372.429 297.43 373.272 297.875 373.882C298.32 374.491 298.936 374.796 299.721 374.796C300.752 374.796 301.505 374.333 301.979 373.407V369.039C301.493 368.143 300.746 367.694 299.738 367.694C298.941 367.694 298.32 368.002 297.875 368.617C297.43 369.232 297.207 370.144 297.207 371.351ZM310.083 376.176C308.794 376.176 307.745 375.754 306.937 374.91C306.128 374.061 305.724 372.927 305.724 371.509V371.21C305.724 370.267 305.902 369.426 306.26 368.688C306.623 367.943 307.127 367.363 307.771 366.947C308.422 366.525 309.125 366.314 309.881 366.314C311.117 366.314 312.078 366.722 312.764 367.536C313.449 368.351 313.792 369.517 313.792 371.034V371.711H307.35C307.373 372.648 307.646 373.407 308.167 373.987C308.694 374.562 309.362 374.849 310.171 374.849C310.745 374.849 311.231 374.731 311.63 374.497C312.028 374.263 312.377 373.952 312.676 373.565L313.669 374.339C312.872 375.563 311.677 376.176 310.083 376.176ZM309.881 367.65C309.225 367.65 308.674 367.891 308.229 368.371C307.783 368.846 307.508 369.514 307.402 370.375H312.166V370.252C312.119 369.426 311.896 368.787 311.498 368.336C311.1 367.879 310.561 367.65 309.881 367.65ZM320.278 367.949C320.032 367.908 319.766 367.888 319.479 367.888C318.412 367.888 317.688 368.342 317.308 369.25V376H315.682V366.49H317.264L317.29 367.589C317.823 366.739 318.579 366.314 319.558 366.314C319.874 366.314 320.114 366.355 320.278 366.438V367.949ZM325.165 371.228H320.876V369.9H325.165V371.228ZM334.807 371.351C334.807 372.804 334.473 373.973 333.805 374.857C333.137 375.736 332.24 376.176 331.115 376.176C329.914 376.176 328.985 375.751 328.329 374.901L328.25 376H326.756V362.5H328.382V367.536C329.038 366.722 329.943 366.314 331.098 366.314C332.252 366.314 333.157 366.751 333.813 367.624C334.476 368.497 334.807 369.692 334.807 371.21V371.351ZM333.181 371.166C333.181 370.059 332.967 369.203 332.539 368.6C332.111 367.996 331.496 367.694 330.693 367.694C329.621 367.694 328.851 368.192 328.382 369.188V373.302C328.88 374.298 329.656 374.796 330.711 374.796C331.49 374.796 332.097 374.494 332.53 373.891C332.964 373.287 333.181 372.379 333.181 371.166ZM336.433 371.157C336.433 370.226 336.614 369.388 336.978 368.644C337.347 367.899 337.856 367.325 338.507 366.921C339.163 366.517 339.91 366.314 340.748 366.314C342.043 366.314 343.089 366.763 343.886 367.659C344.688 368.556 345.09 369.748 345.09 371.236V371.351C345.09 372.276 344.911 373.108 344.554 373.847C344.202 374.579 343.695 375.15 343.033 375.561C342.377 375.971 341.621 376.176 340.766 376.176C339.477 376.176 338.431 375.728 337.628 374.831C336.831 373.935 336.433 372.748 336.433 371.271V371.157ZM338.067 371.351C338.067 372.405 338.311 373.252 338.797 373.891C339.289 374.529 339.945 374.849 340.766 374.849C341.592 374.849 342.248 374.526 342.734 373.882C343.221 373.231 343.464 372.323 343.464 371.157C343.464 370.114 343.215 369.271 342.717 368.626C342.225 367.976 341.568 367.65 340.748 367.65C339.945 367.65 339.298 367.97 338.806 368.608C338.313 369.247 338.067 370.161 338.067 371.351ZM349.335 364.188V366.49H351.11V367.747H349.335V373.645C349.335 374.025 349.414 374.312 349.572 374.506C349.73 374.693 350 374.787 350.381 374.787C350.568 374.787 350.826 374.752 351.154 374.682V376C350.727 376.117 350.311 376.176 349.906 376.176C349.18 376.176 348.632 375.956 348.263 375.517C347.894 375.077 347.709 374.453 347.709 373.645V367.747H345.978V366.49H347.709V364.188H349.335ZM355.224 364.188V366.49H356.999V367.747H355.224V373.645C355.224 374.025 355.303 374.312 355.461 374.506C355.619 374.693 355.889 374.787 356.27 374.787C356.457 374.787 356.715 374.752 357.043 374.682V376C356.615 376.117 356.199 376.176 355.795 376.176C355.068 376.176 354.521 375.956 354.151 375.517C353.782 375.077 353.598 374.453 353.598 373.645V367.747H351.866V366.49H353.598V364.188H355.224ZM358.3 371.157C358.3 370.226 358.481 369.388 358.845 368.644C359.214 367.899 359.724 367.325 360.374 366.921C361.03 366.517 361.777 366.314 362.615 366.314C363.91 366.314 364.956 366.763 365.753 367.659C366.556 368.556 366.957 369.748 366.957 371.236V371.351C366.957 372.276 366.778 373.108 366.421 373.847C366.069 374.579 365.562 375.15 364.9 375.561C364.244 375.971 363.488 376.176 362.633 376.176C361.344 376.176 360.298 375.728 359.495 374.831C358.698 373.935 358.3 372.748 358.3 371.271V371.157ZM359.935 371.351C359.935 372.405 360.178 373.252 360.664 373.891C361.156 374.529 361.812 374.849 362.633 374.849C363.459 374.849 364.115 374.526 364.602 373.882C365.088 373.231 365.331 372.323 365.331 371.157C365.331 370.114 365.082 369.271 364.584 368.626C364.092 367.976 363.436 367.65 362.615 367.65C361.812 367.65 361.165 367.97 360.673 368.608C360.181 369.247 359.935 370.161 359.935 371.351ZM370.525 366.49L370.569 367.545C371.267 366.725 372.207 366.314 373.391 366.314C374.721 366.314 375.626 366.824 376.106 367.844C376.423 367.387 376.833 367.018 377.337 366.736C377.847 366.455 378.447 366.314 379.139 366.314C381.225 366.314 382.285 367.419 382.32 369.628V376H380.694V369.725C380.694 369.045 380.539 368.538 380.229 368.204C379.918 367.864 379.396 367.694 378.664 367.694C378.061 367.694 377.56 367.876 377.161 368.239C376.763 368.597 376.531 369.08 376.467 369.689V376H374.832V369.769C374.832 368.386 374.155 367.694 372.802 367.694C371.735 367.694 371.006 368.148 370.613 369.057V376H368.987V366.49H370.525Z" fill="white"/>
<path d="M285.771 70.4902L285.815 71.5449C286.513 70.7246 287.453 70.3145 288.637 70.3145C289.967 70.3145 290.872 70.8242 291.353 71.8438C291.669 71.3867 292.079 71.0176 292.583 70.7363C293.093 70.4551 293.693 70.3145 294.385 70.3145C296.471 70.3145 297.531 71.4189 297.566 73.6279V80H295.94V73.7246C295.94 73.0449 295.785 72.5381 295.475 72.2041C295.164 71.8643 294.643 71.6943 293.91 71.6943C293.307 71.6943 292.806 71.876 292.407 72.2393C292.009 72.5967 291.777 73.0801 291.713 73.6895V80H290.078V73.7686C290.078 72.3857 289.401 71.6943 288.048 71.6943C286.981 71.6943 286.252 72.1484 285.859 73.0566V80H284.233V70.4902H285.771ZM305.898 80C305.805 79.8125 305.729 79.4785 305.67 78.998C304.914 79.7832 304.012 80.1758 302.963 80.1758C302.025 80.1758 301.255 79.9121 300.651 79.3848C300.054 78.8516 299.755 78.1777 299.755 77.3633C299.755 76.373 300.13 75.6055 300.88 75.0605C301.636 74.5098 302.696 74.2344 304.062 74.2344H305.644V73.4873C305.644 72.9189 305.474 72.4678 305.134 72.1338C304.794 71.7939 304.293 71.624 303.631 71.624C303.051 71.624 302.564 71.7705 302.172 72.0635C301.779 72.3564 301.583 72.7109 301.583 73.127H299.948C299.948 72.6523 300.115 72.1953 300.449 71.7559C300.789 71.3105 301.246 70.959 301.82 70.7012C302.4 70.4434 303.036 70.3145 303.728 70.3145C304.823 70.3145 305.682 70.5898 306.303 71.1406C306.924 71.6855 307.246 72.4385 307.27 73.3994V77.7764C307.27 78.6494 307.381 79.3438 307.604 79.8594V80H305.898ZM303.2 78.7607C303.71 78.7607 304.193 78.6289 304.65 78.3652C305.107 78.1016 305.438 77.7588 305.644 77.3369V75.3857H304.369C302.377 75.3857 301.381 75.9688 301.381 77.1348C301.381 77.6445 301.551 78.043 301.891 78.3301C302.23 78.6172 302.667 78.7607 303.2 78.7607ZM314.415 71.9492C314.169 71.9082 313.902 71.8877 313.615 71.8877C312.549 71.8877 311.825 72.3418 311.444 73.25V80H309.818V70.4902H311.4L311.427 71.5889C311.96 70.7393 312.716 70.3145 313.694 70.3145C314.011 70.3145 314.251 70.3555 314.415 70.4375V71.9492ZM315.355 75.166C315.355 73.6836 315.698 72.5059 316.384 71.6328C317.069 70.7539 317.978 70.3145 319.108 70.3145C320.269 70.3145 321.174 70.7246 321.824 71.5449L321.903 70.4902H323.389V79.7715C323.389 81.002 323.022 81.9717 322.29 82.6807C321.563 83.3896 320.585 83.7441 319.354 83.7441C318.669 83.7441 317.998 83.5977 317.342 83.3047C316.686 83.0117 316.185 82.6104 315.839 82.1006L316.683 81.125C317.38 81.9863 318.232 82.417 319.24 82.417C320.031 82.417 320.646 82.1943 321.086 81.749C321.531 81.3037 321.754 80.6768 321.754 79.8682V79.0508C321.104 79.8008 320.216 80.1758 319.091 80.1758C317.978 80.1758 317.075 79.7275 316.384 78.8311C315.698 77.9346 315.355 76.7129 315.355 75.166ZM316.99 75.3506C316.99 76.4229 317.21 77.2666 317.649 77.8818C318.089 78.4912 318.704 78.7959 319.495 78.7959C320.521 78.7959 321.273 78.3301 321.754 77.3984V73.0566C321.256 72.1484 320.509 71.6943 319.513 71.6943C318.722 71.6943 318.104 72.002 317.658 72.6172C317.213 73.2324 316.99 74.1436 316.99 75.3506ZM327.616 80H325.99V70.4902H327.616V80ZM325.858 67.9678C325.858 67.7041 325.938 67.4814 326.096 67.2998C326.26 67.1182 326.5 67.0273 326.816 67.0273C327.133 67.0273 327.373 67.1182 327.537 67.2998C327.701 67.4814 327.783 67.7041 327.783 67.9678C327.783 68.2314 327.701 68.4512 327.537 68.627C327.373 68.8027 327.133 68.8906 326.816 68.8906C326.5 68.8906 326.26 68.8027 326.096 68.627C325.938 68.4512 325.858 68.2314 325.858 67.9678ZM331.765 70.4902L331.817 71.6855C332.544 70.7715 333.493 70.3145 334.665 70.3145C336.675 70.3145 337.688 71.4482 337.706 73.7158V80H336.08V73.707C336.074 73.0215 335.916 72.5146 335.605 72.1865C335.301 71.8584 334.823 71.6943 334.173 71.6943C333.646 71.6943 333.183 71.835 332.784 72.1162C332.386 72.3975 332.075 72.7666 331.853 73.2236V80H330.227V70.4902H331.765ZM343.542 75.2275H339.253V73.9004H343.542V75.2275ZM347.339 68.1875V70.4902H349.114V71.7471H347.339V77.6445C347.339 78.0254 347.418 78.3125 347.576 78.5059C347.734 78.6934 348.004 78.7871 348.385 78.7871C348.572 78.7871 348.83 78.752 349.158 78.6816V80C348.73 80.1172 348.314 80.1758 347.91 80.1758C347.184 80.1758 346.636 79.9561 346.267 79.5166C345.897 79.0771 345.713 78.4531 345.713 77.6445V71.7471H343.981V70.4902H345.713V68.1875H347.339ZM350.415 75.1572C350.415 74.2256 350.597 73.3877 350.96 72.6436C351.329 71.8994 351.839 71.3252 352.489 70.9209C353.146 70.5166 353.893 70.3145 354.73 70.3145C356.025 70.3145 357.071 70.7627 357.868 71.6592C358.671 72.5557 359.072 73.748 359.072 75.2363V75.3506C359.072 76.2764 358.894 77.1084 358.536 77.8467C358.185 78.5791 357.678 79.1504 357.016 79.5605C356.359 79.9707 355.604 80.1758 354.748 80.1758C353.459 80.1758 352.413 79.7275 351.61 78.8311C350.813 77.9346 350.415 76.748 350.415 75.2715V75.1572ZM352.05 75.3506C352.05 76.4053 352.293 77.252 352.779 77.8906C353.271 78.5293 353.928 78.8486 354.748 78.8486C355.574 78.8486 356.23 78.5264 356.717 77.8818C357.203 77.2314 357.446 76.3232 357.446 75.1572C357.446 74.1143 357.197 73.2705 356.699 72.626C356.207 71.9756 355.551 71.6504 354.73 71.6504C353.928 71.6504 353.28 71.9697 352.788 72.6084C352.296 73.2471 352.05 74.1611 352.05 75.3506ZM369.145 75.3506C369.145 76.7979 368.813 77.9639 368.151 78.8486C367.489 79.7334 366.593 80.1758 365.462 80.1758C364.308 80.1758 363.399 79.8096 362.737 79.0771V83.6562H361.111V70.4902H362.597L362.676 71.5449C363.338 70.7246 364.258 70.3145 365.436 70.3145C366.578 70.3145 367.48 70.7451 368.143 71.6064C368.811 72.4678 369.145 73.666 369.145 75.2012V75.3506ZM367.519 75.166C367.519 74.0938 367.29 73.2471 366.833 72.626C366.376 72.0049 365.749 71.6943 364.952 71.6943C363.968 71.6943 363.229 72.1309 362.737 73.0039V77.5479C363.224 78.415 363.968 78.8486 364.97 78.8486C365.749 78.8486 366.367 78.541 366.824 77.9258C367.287 77.3047 367.519 76.3848 367.519 75.166Z" fill="black"/>
<path d="M316.894 20.1875V22.4902H318.669V23.7471H316.894V29.6445C316.894 30.0254 316.973 30.3125 317.131 30.5059C317.289 30.6934 317.559 30.7871 317.939 30.7871C318.127 30.7871 318.385 30.752 318.713 30.6816V32C318.285 32.1172 317.869 32.1758 317.465 32.1758C316.738 32.1758 316.19 31.9561 315.821 31.5166C315.452 31.0771 315.268 30.4531 315.268 29.6445V23.7471H313.536V22.4902H315.268V20.1875H316.894ZM319.97 27.1572C319.97 26.2256 320.151 25.3877 320.515 24.6436C320.884 23.8994 321.394 23.3252 322.044 22.9209C322.7 22.5166 323.447 22.3145 324.285 22.3145C325.58 22.3145 326.626 22.7627 327.423 23.6592C328.226 24.5557 328.627 25.748 328.627 27.2363V27.3506C328.627 28.2764 328.448 29.1084 328.091 29.8467C327.739 30.5791 327.232 31.1504 326.57 31.5605C325.914 31.9707 325.158 32.1758 324.303 32.1758C323.014 32.1758 321.968 31.7275 321.165 30.8311C320.368 29.9346 319.97 28.748 319.97 27.2715V27.1572ZM321.604 27.3506C321.604 28.4053 321.848 29.252 322.334 29.8906C322.826 30.5293 323.482 30.8486 324.303 30.8486C325.129 30.8486 325.785 30.5264 326.271 29.8818C326.758 29.2314 327.001 28.3232 327.001 27.1572C327.001 26.1143 326.752 25.2705 326.254 24.626C325.762 23.9756 325.105 23.6504 324.285 23.6504C323.482 23.6504 322.835 23.9697 322.343 24.6084C321.851 25.2471 321.604 26.1611 321.604 27.3506ZM338.699 27.3506C338.699 28.7979 338.368 29.9639 337.706 30.8486C337.044 31.7334 336.147 32.1758 335.017 32.1758C333.862 32.1758 332.954 31.8096 332.292 31.0771V35.6562H330.666V22.4902H332.151L332.23 23.5449C332.893 22.7246 333.812 22.3145 334.99 22.3145C336.133 22.3145 337.035 22.7451 337.697 23.6064C338.365 24.4678 338.699 25.666 338.699 27.2012V27.3506ZM337.073 27.166C337.073 26.0938 336.845 25.2471 336.388 24.626C335.931 24.0049 335.304 23.6943 334.507 23.6943C333.522 23.6943 332.784 24.1309 332.292 25.0039V29.5479C332.778 30.415 333.522 30.8486 334.524 30.8486C335.304 30.8486 335.922 30.541 336.379 29.9258C336.842 29.3047 337.073 28.3848 337.073 27.166Z" fill="black"/>
<path d="M271.446 321.351C271.446 322.798 271.115 323.964 270.453 324.849C269.791 325.733 268.895 326.176 267.764 326.176C266.609 326.176 265.701 325.81 265.039 325.077V329.656H263.413V316.49H264.898L264.978 317.545C265.64 316.725 266.56 316.314 267.737 316.314C268.88 316.314 269.782 316.745 270.444 317.606C271.112 318.468 271.446 319.666 271.446 321.201V321.351ZM269.82 321.166C269.82 320.094 269.592 319.247 269.135 318.626C268.678 318.005 268.051 317.694 267.254 317.694C266.27 317.694 265.531 318.131 265.039 319.004V323.548C265.525 324.415 266.27 324.849 267.271 324.849C268.051 324.849 268.669 324.541 269.126 323.926C269.589 323.305 269.82 322.385 269.82 321.166ZM279.392 326C279.298 325.812 279.222 325.479 279.163 324.998C278.407 325.783 277.505 326.176 276.456 326.176C275.519 326.176 274.748 325.912 274.145 325.385C273.547 324.852 273.248 324.178 273.248 323.363C273.248 322.373 273.623 321.605 274.373 321.061C275.129 320.51 276.189 320.234 277.555 320.234H279.137V319.487C279.137 318.919 278.967 318.468 278.627 318.134C278.287 317.794 277.786 317.624 277.124 317.624C276.544 317.624 276.058 317.771 275.665 318.063C275.272 318.356 275.076 318.711 275.076 319.127H273.441C273.441 318.652 273.608 318.195 273.942 317.756C274.282 317.311 274.739 316.959 275.313 316.701C275.894 316.443 276.529 316.314 277.221 316.314C278.316 316.314 279.175 316.59 279.796 317.141C280.417 317.686 280.739 318.438 280.763 319.399V323.776C280.763 324.649 280.874 325.344 281.097 325.859V326H279.392ZM276.693 324.761C277.203 324.761 277.687 324.629 278.144 324.365C278.601 324.102 278.932 323.759 279.137 323.337V321.386H277.862C275.87 321.386 274.874 321.969 274.874 323.135C274.874 323.645 275.044 324.043 275.384 324.33C275.724 324.617 276.16 324.761 276.693 324.761ZM282.916 321.166C282.916 319.707 283.262 318.535 283.953 317.65C284.645 316.76 285.55 316.314 286.669 316.314C287.782 316.314 288.664 316.695 289.314 317.457V312.5H290.94V326H289.446L289.367 324.98C288.717 325.777 287.812 326.176 286.651 326.176C285.55 326.176 284.65 325.725 283.953 324.822C283.262 323.92 282.916 322.742 282.916 321.289V321.166ZM284.542 321.351C284.542 322.429 284.765 323.272 285.21 323.882C285.655 324.491 286.271 324.796 287.056 324.796C288.087 324.796 288.84 324.333 289.314 323.407V319.039C288.828 318.143 288.081 317.694 287.073 317.694C286.276 317.694 285.655 318.002 285.21 318.617C284.765 319.232 284.542 320.144 284.542 321.351ZM293.076 321.166C293.076 319.707 293.422 318.535 294.113 317.65C294.805 316.76 295.71 316.314 296.829 316.314C297.942 316.314 298.824 316.695 299.475 317.457V312.5H301.101V326H299.606L299.527 324.98C298.877 325.777 297.972 326.176 296.812 326.176C295.71 326.176 294.811 325.725 294.113 324.822C293.422 323.92 293.076 322.742 293.076 321.289V321.166ZM294.702 321.351C294.702 322.429 294.925 323.272 295.37 323.882C295.815 324.491 296.431 324.796 297.216 324.796C298.247 324.796 299 324.333 299.475 323.407V319.039C298.988 318.143 298.241 317.694 297.233 317.694C296.437 317.694 295.815 318.002 295.37 318.617C294.925 319.232 294.702 320.144 294.702 321.351ZM305.398 326H303.772V316.49H305.398V326ZM303.641 313.968C303.641 313.704 303.72 313.481 303.878 313.3C304.042 313.118 304.282 313.027 304.599 313.027C304.915 313.027 305.155 313.118 305.319 313.3C305.483 313.481 305.565 313.704 305.565 313.968C305.565 314.231 305.483 314.451 305.319 314.627C305.155 314.803 304.915 314.891 304.599 314.891C304.282 314.891 304.042 314.803 303.878 314.627C303.72 314.451 303.641 314.231 303.641 313.968ZM309.547 316.49L309.6 317.686C310.326 316.771 311.275 316.314 312.447 316.314C314.457 316.314 315.471 317.448 315.488 319.716V326H313.862V319.707C313.856 319.021 313.698 318.515 313.388 318.187C313.083 317.858 312.605 317.694 311.955 317.694C311.428 317.694 310.965 317.835 310.566 318.116C310.168 318.397 309.857 318.767 309.635 319.224V326H308.009V316.49H309.547ZM317.554 321.166C317.554 319.684 317.896 318.506 318.582 317.633C319.268 316.754 320.176 316.314 321.307 316.314C322.467 316.314 323.372 316.725 324.022 317.545L324.102 316.49H325.587V325.771C325.587 327.002 325.221 327.972 324.488 328.681C323.762 329.39 322.783 329.744 321.553 329.744C320.867 329.744 320.196 329.598 319.54 329.305C318.884 329.012 318.383 328.61 318.037 328.101L318.881 327.125C319.578 327.986 320.431 328.417 321.438 328.417C322.229 328.417 322.845 328.194 323.284 327.749C323.729 327.304 323.952 326.677 323.952 325.868V325.051C323.302 325.801 322.414 326.176 321.289 326.176C320.176 326.176 319.273 325.728 318.582 324.831C317.896 323.935 317.554 322.713 317.554 321.166ZM319.188 321.351C319.188 322.423 319.408 323.267 319.848 323.882C320.287 324.491 320.902 324.796 321.693 324.796C322.719 324.796 323.472 324.33 323.952 323.398V319.057C323.454 318.148 322.707 317.694 321.711 317.694C320.92 317.694 320.302 318.002 319.856 318.617C319.411 319.232 319.188 320.144 319.188 321.351ZM331.432 321.228H327.143V319.9H331.432V321.228ZM341.073 321.351C341.073 322.804 340.739 323.973 340.071 324.857C339.403 325.736 338.507 326.176 337.382 326.176C336.181 326.176 335.252 325.751 334.596 324.901L334.517 326H333.022V312.5H334.648V317.536C335.305 316.722 336.21 316.314 337.364 316.314C338.519 316.314 339.424 316.751 340.08 317.624C340.742 318.497 341.073 319.692 341.073 321.21V321.351ZM339.447 321.166C339.447 320.059 339.233 319.203 338.806 318.6C338.378 317.996 337.763 317.694 336.96 317.694C335.888 317.694 335.117 318.192 334.648 319.188V323.302C335.146 324.298 335.923 324.796 336.978 324.796C337.757 324.796 338.363 324.494 338.797 323.891C339.23 323.287 339.447 322.379 339.447 321.166ZM342.699 321.157C342.699 320.226 342.881 319.388 343.244 318.644C343.613 317.899 344.123 317.325 344.773 316.921C345.43 316.517 346.177 316.314 347.015 316.314C348.31 316.314 349.355 316.763 350.152 317.659C350.955 318.556 351.356 319.748 351.356 321.236V321.351C351.356 322.276 351.178 323.108 350.82 323.847C350.469 324.579 349.962 325.15 349.3 325.561C348.644 325.971 347.888 326.176 347.032 326.176C345.743 326.176 344.697 325.728 343.895 324.831C343.098 323.935 342.699 322.748 342.699 321.271V321.157ZM344.334 321.351C344.334 322.405 344.577 323.252 345.063 323.891C345.556 324.529 346.212 324.849 347.032 324.849C347.858 324.849 348.515 324.526 349.001 323.882C349.487 323.231 349.73 322.323 349.73 321.157C349.73 320.114 349.481 319.271 348.983 318.626C348.491 317.976 347.835 317.65 347.015 317.65C346.212 317.65 345.564 317.97 345.072 318.608C344.58 319.247 344.334 320.161 344.334 321.351ZM355.602 314.188V316.49H357.377V317.747H355.602V323.645C355.602 324.025 355.681 324.312 355.839 324.506C355.997 324.693 356.267 324.787 356.647 324.787C356.835 324.787 357.093 324.752 357.421 324.682V326C356.993 326.117 356.577 326.176 356.173 326.176C355.446 326.176 354.898 325.956 354.529 325.517C354.16 325.077 353.976 324.453 353.976 323.645V317.747H352.244V316.49H353.976V314.188H355.602ZM361.49 314.188V316.49H363.266V317.747H361.49V323.645C361.49 324.025 361.569 324.312 361.728 324.506C361.886 324.693 362.155 324.787 362.536 324.787C362.724 324.787 362.981 324.752 363.31 324.682V326C362.882 326.117 362.466 326.176 362.062 326.176C361.335 326.176 360.787 325.956 360.418 325.517C360.049 325.077 359.864 324.453 359.864 323.645V317.747H358.133V316.49H359.864V314.188H361.49ZM364.566 321.157C364.566 320.226 364.748 319.388 365.111 318.644C365.48 317.899 365.99 317.325 366.641 316.921C367.297 316.517 368.044 316.314 368.882 316.314C370.177 316.314 371.223 316.763 372.02 317.659C372.822 318.556 373.224 319.748 373.224 321.236V321.351C373.224 322.276 373.045 323.108 372.688 323.847C372.336 324.579 371.829 325.15 371.167 325.561C370.511 325.971 369.755 326.176 368.899 326.176C367.61 326.176 366.564 325.728 365.762 324.831C364.965 323.935 364.566 322.748 364.566 321.271V321.157ZM366.201 321.351C366.201 322.405 366.444 323.252 366.931 323.891C367.423 324.529 368.079 324.849 368.899 324.849C369.726 324.849 370.382 324.526 370.868 323.882C371.354 323.231 371.598 322.323 371.598 321.157C371.598 320.114 371.349 319.271 370.851 318.626C370.358 317.976 369.702 317.65 368.882 317.65C368.079 317.65 367.432 317.97 366.939 318.608C366.447 319.247 366.201 320.161 366.201 321.351ZM376.792 316.49L376.836 317.545C377.533 316.725 378.474 316.314 379.657 316.314C380.987 316.314 381.893 316.824 382.373 317.844C382.689 317.387 383.1 317.018 383.604 316.736C384.113 316.455 384.714 316.314 385.405 316.314C387.491 316.314 388.552 317.419 388.587 319.628V326H386.961V319.725C386.961 319.045 386.806 318.538 386.495 318.204C386.185 317.864 385.663 317.694 384.931 317.694C384.327 317.694 383.826 317.876 383.428 318.239C383.029 318.597 382.798 319.08 382.733 319.689V326H381.099V319.769C381.099 318.386 380.422 317.694 379.068 317.694C378.002 317.694 377.272 318.148 376.88 319.057V326H375.254V316.49H376.792Z" fill="black"/>
<path d="M411.707 27.7071C412.098 27.3166 412.098 26.6834 411.707 26.2929L405.343 19.9289C404.953 19.5384 404.319 19.5384 403.929 19.9289C403.538 20.3195 403.538 20.9526 403.929 21.3431L409.586 27L403.929 32.6569C403.538 33.0474 403.538 33.6805 403.929 34.0711C404.319 34.4616 404.953 34.4616 405.343 34.0711L411.707 27.7071ZM350 28H411V26H350V28Z" fill="black"/>
<path d="M222.293 470.293C221.902 470.683 221.902 471.317 222.293 471.707L228.657 478.071C229.047 478.462 229.681 478.462 230.071 478.071C230.462 477.681 230.462 477.047 230.071 476.657L224.414 471L230.071 465.343C230.462 464.953 230.462 464.319 230.071 463.929C229.681 463.538 229.047 463.538 228.657 463.929L222.293 470.293ZM284 470L223 470L223 472L284 472L284 470Z" fill="black"/>
<path d="M628.293 340.707C628.683 341.098 629.317 341.098 629.707 340.707L636.071 334.343C636.462 333.953 636.462 333.319 636.071 332.929C635.681 332.538 635.047 332.538 634.657 332.929L629 338.586L623.343 332.929C622.953 332.538 622.319 332.538 621.929 332.929C621.538 333.319 621.538 333.953 621.929 334.343L628.293 340.707ZM628 279L628 340L630 340L630 279L628 279Z" fill="black"/>
<path d="M24.7071 163.293C24.3166 162.902 23.6834 162.902 23.2929 163.293L16.9289 169.657C16.5384 170.047 16.5384 170.681 16.9289 171.071C17.3195 171.462 17.9526 171.462 18.3431 171.071L24 165.414L29.6569 171.071C30.0474 171.462 30.6805 171.462 31.0711 171.071C31.4616 170.681 31.4616 170.047 31.0711 169.657L24.7071 163.293ZM25 225L25 164L23 164L23 225L25 225Z" fill="black"/>
</svg>
