<svg width="625" height="409" viewBox="0 0 625 409" fill="none" xmlns="http://www.w3.org/2000/svg">
<path d="M151 63.5H487C524.279 63.5 554.5 93.7208 554.5 131V300C554.5 326.234 533.234 347.5 507 347.5H91C75.8122 347.5 63.5 335.188 63.5 320V151C63.5 102.675 102.675 63.5 151 63.5Z" fill="white" stroke="#1E73FF" stroke-width="25"/>
<circle opacity="0.6" cx="151" cy="151" r="87.5" stroke="#FFF000" stroke-width="25"/>
<circle opacity="0.6" cx="487" cy="131" r="67.5" stroke="#FFF000" stroke-width="25"/>
<circle opacity="0.6" cx="507" cy="300" r="47.5" stroke="#FFF000" stroke-width="25"/>
<circle opacity="0.6" cx="91" cy="320" r="27.5" stroke="#FFF000" stroke-width="25"/>
<path d="M251 151H51" stroke="#E44D26" stroke-width="2"/>
<path d="M567 131H407" stroke="#E44D26" stroke-width="2"/>
<path d="M567 300H447" stroke="#E44D26" stroke-width="2"/>
<path d="M131 320H51" stroke="#E44D26" stroke-width="2"/>
<path d="M151 251L151 51" stroke="#E44D26" stroke-width="2"/>
<path d="M52 121L52 51" stroke="#E44D26" stroke-width="2"/>
<path d="M566 105L566 51" stroke="#E44D26" stroke-width="2"/>
<path d="M566 360L566 322" stroke="#E44D26" stroke-width="2"/>
<path d="M52 360L52 337" stroke="#E44D26" stroke-width="2"/>
<path d="M487 211L487 51" stroke="#E44D26" stroke-width="2"/>
<path d="M507 360L507 240" stroke="#E44D26" stroke-width="2"/>
<path d="M91 360L91 280" stroke="#E44D26" stroke-width="2"/>
<path d="M23.2812 21.3506C23.2812 22.8037 22.9473 23.9727 22.2793 24.8574C21.6113 25.7363 20.7148 26.1758 19.5898 26.1758C18.3887 26.1758 17.46 25.751 16.8037 24.9014L16.7246 26H15.2305V12.5H16.8564V17.5361C17.5127 16.7217 18.418 16.3145 19.5723 16.3145C20.7266 16.3145 21.6318 16.751 22.2881 17.624C22.9502 18.4971 23.2812 19.6924 23.2812 21.21V21.3506ZM21.6553 21.166C21.6553 20.0586 21.4414 19.2031 21.0137 18.5996C20.5859 17.9961 19.9707 17.6943 19.168 17.6943C18.0957 17.6943 17.3252 18.1924 16.8564 19.1885V23.3018C17.3545 24.2979 18.1309 24.7959 19.1855 24.7959C19.9648 24.7959 20.5713 24.4941 21.0049 23.8906C21.4385 23.2871 21.6553 22.3789 21.6553 21.166ZM24.9072 21.1572C24.9072 20.2256 25.0889 19.3877 25.4521 18.6436C25.8213 17.8994 26.3311 17.3252 26.9814 16.9209C27.6377 16.5166 28.3848 16.3145 29.2227 16.3145C30.5176 16.3145 31.5635 16.7627 32.3604 17.6592C33.1631 18.5557 33.5645 19.748 33.5645 21.2363V21.3506C33.5645 22.2764 33.3857 23.1084 33.0283 23.8467C32.6768 24.5791 32.1699 25.1504 31.5078 25.5605C30.8516 25.9707 30.0957 26.1758 29.2402 26.1758C27.9512 26.1758 26.9053 25.7275 26.1025 24.8311C25.3057 23.9346 24.9072 22.748 24.9072 21.2715V21.1572ZM26.542 21.3506C26.542 22.4053 26.7852 23.252 27.2715 23.8906C27.7637 24.5293 28.4199 24.8486 29.2402 24.8486C30.0664 24.8486 30.7227 24.5264 31.209 23.8818C31.6953 23.2314 31.9385 22.3232 31.9385 21.1572C31.9385 20.1143 31.6895 19.2705 31.1914 18.626C30.6992 17.9756 30.043 17.6504 29.2227 17.6504C28.4199 17.6504 27.7725 17.9697 27.2803 18.6084C26.7881 19.2471 26.542 20.1611 26.542 21.3506ZM40.2002 17.9492C39.9541 17.9082 39.6875 17.8877 39.4004 17.8877C38.334 17.8877 37.6104 18.3418 37.2295 19.25V26H35.6035V16.4902H37.1855L37.2119 17.5889C37.7451 16.7393 38.501 16.3145 39.4795 16.3145C39.7959 16.3145 40.0361 16.3555 40.2002 16.4375V17.9492ZM41.1318 21.166C41.1318 19.707 41.4775 18.5352 42.1689 17.6504C42.8604 16.7598 43.7656 16.3145 44.8848 16.3145C45.998 16.3145 46.8799 16.6953 47.5303 17.457V12.5H49.1562V26H47.6621L47.583 24.9805C46.9326 25.7773 46.0273 26.1758 44.8672 26.1758C43.7656 26.1758 42.8662 25.7246 42.1689 24.8223C41.4775 23.9199 41.1318 22.7422 41.1318 21.2891V21.166ZM42.7578 21.3506C42.7578 22.4287 42.9805 23.2725 43.4258 23.8818C43.8711 24.4912 44.4863 24.7959 45.2715 24.7959C46.3027 24.7959 47.0557 24.333 47.5303 23.4072V19.0391C47.0439 18.1426 46.2969 17.6943 45.2891 17.6943C44.4922 17.6943 43.8711 18.002 43.4258 18.6172C42.9805 19.2324 42.7578 20.1436 42.7578 21.3506ZM55.6338 26.1758C54.3447 26.1758 53.2959 25.7539 52.4873 24.9102C51.6787 24.0605 51.2744 22.9268 51.2744 21.5088V21.21C51.2744 20.2666 51.4531 19.4258 51.8105 18.6875C52.1738 17.9434 52.6777 17.3633 53.3223 16.9473C53.9727 16.5254 54.6758 16.3145 55.4316 16.3145C56.668 16.3145 57.6289 16.7217 58.3145 17.5361C59 18.3506 59.3428 19.5166 59.3428 21.0342V21.7109H52.9004C52.9238 22.6484 53.1963 23.4072 53.7178 23.9873C54.2451 24.5615 54.9131 24.8486 55.7217 24.8486C56.2959 24.8486 56.7822 24.7314 57.1807 24.4971C57.5791 24.2627 57.9277 23.9521 58.2266 23.5654L59.2197 24.3389C58.4229 25.5635 57.2275 26.1758 55.6338 26.1758ZM55.4316 17.6504C54.7754 17.6504 54.2246 17.8906 53.7793 18.3711C53.334 18.8457 53.0586 19.5137 52.9531 20.375H57.7168V20.252C57.6699 19.4258 57.4473 18.7871 57.0488 18.3359C56.6504 17.8789 56.1113 17.6504 55.4316 17.6504ZM65.8291 17.9492C65.583 17.9082 65.3164 17.8877 65.0293 17.8877C63.9629 17.8877 63.2393 18.3418 62.8584 19.25V26H61.2324V16.4902H62.8145L62.8408 17.5889C63.374 16.7393 64.1299 16.3145 65.1084 16.3145C65.4248 16.3145 65.665 16.3555 65.8291 16.4375V17.9492ZM70.7158 21.2275H66.4268V19.9004H70.7158V21.2275ZM74.5127 14.1875V16.4902H76.2881V17.7471H74.5127V23.6445C74.5127 24.0254 74.5918 24.3125 74.75 24.5059C74.9082 24.6934 75.1777 24.7871 75.5586 24.7871C75.7461 24.7871 76.0039 24.752 76.332 24.6816V26C75.9043 26.1172 75.4883 26.1758 75.084 26.1758C74.3574 26.1758 73.8096 25.9561 73.4404 25.5166C73.0713 25.0771 72.8867 24.4531 72.8867 23.6445V17.7471H71.1553V16.4902H72.8867V14.1875H74.5127ZM77.5889 21.1572C77.5889 20.2256 77.7705 19.3877 78.1338 18.6436C78.5029 17.8994 79.0127 17.3252 79.6631 16.9209C80.3193 16.5166 81.0664 16.3145 81.9043 16.3145C83.1992 16.3145 84.2451 16.7627 85.042 17.6592C85.8447 18.5557 86.2461 19.748 86.2461 21.2363V21.3506C86.2461 22.2764 86.0674 23.1084 85.71 23.8467C85.3584 24.5791 84.8516 25.1504 84.1895 25.5605C83.5332 25.9707 82.7773 26.1758 81.9219 26.1758C80.6328 26.1758 79.5869 25.7275 78.7842 24.8311C77.9873 23.9346 77.5889 22.748 77.5889 21.2715V21.1572ZM79.2236 21.3506C79.2236 22.4053 79.4668 23.252 79.9531 23.8906C80.4453 24.5293 81.1016 24.8486 81.9219 24.8486C82.748 24.8486 83.4043 24.5264 83.8906 23.8818C84.377 23.2314 84.6201 22.3232 84.6201 21.1572C84.6201 20.1143 84.3711 19.2705 83.873 18.626C83.3809 17.9756 82.7246 17.6504 81.9043 17.6504C81.1016 17.6504 80.4541 17.9697 79.9619 18.6084C79.4697 19.2471 79.2236 20.1611 79.2236 21.3506ZM96.3184 21.3506C96.3184 22.7979 95.9873 23.9639 95.3252 24.8486C94.6631 25.7334 93.7666 26.1758 92.6357 26.1758C91.4814 26.1758 90.5732 25.8096 89.9111 25.0771V29.6562H88.2852V16.4902H89.7705L89.8496 17.5449C90.5117 16.7246 91.4316 16.3145 92.6094 16.3145C93.752 16.3145 94.6543 16.7451 95.3164 17.6064C95.9844 18.4678 96.3184 19.666 96.3184 21.2012V21.3506ZM94.6924 21.166C94.6924 20.0938 94.4639 19.2471 94.0068 18.626C93.5498 18.0049 92.9229 17.6943 92.126 17.6943C91.1416 17.6943 90.4033 18.1309 89.9111 19.0039V23.5479C90.3975 24.415 91.1416 24.8486 92.1436 24.8486C92.9229 24.8486 93.541 24.541 93.998 23.9258C94.4609 23.3047 94.6924 22.3848 94.6924 21.166ZM101.776 21.2275H97.4873V19.9004H101.776V21.2275ZM105.134 26H103.508V12.5H105.134V26ZM111.69 26.1758C110.401 26.1758 109.353 25.7539 108.544 24.9102C107.735 24.0605 107.331 22.9268 107.331 21.5088V21.21C107.331 20.2666 107.51 19.4258 107.867 18.6875C108.23 17.9434 108.734 17.3633 109.379 16.9473C110.029 16.5254 110.732 16.3145 111.488 16.3145C112.725 16.3145 113.686 16.7217 114.371 17.5361C115.057 18.3506 115.399 19.5166 115.399 21.0342V21.7109H108.957C108.98 22.6484 109.253 23.4072 109.774 23.9873C110.302 24.5615 110.97 24.8486 111.778 24.8486C112.353 24.8486 112.839 24.7314 113.237 24.4971C113.636 24.2627 113.984 23.9521 114.283 23.5654L115.276 24.3389C114.479 25.5635 113.284 26.1758 111.69 26.1758ZM111.488 17.6504C110.832 17.6504 110.281 17.8906 109.836 18.3711C109.391 18.8457 109.115 19.5137 109.01 20.375H113.773V20.252C113.727 19.4258 113.504 18.7871 113.105 18.3359C112.707 17.8789 112.168 17.6504 111.488 17.6504ZM118.089 26V17.7471H116.586V16.4902H118.089V15.5146C118.089 14.4951 118.361 13.707 118.906 13.1504C119.451 12.5938 120.222 12.3154 121.218 12.3154C121.593 12.3154 121.965 12.3652 122.334 12.4648L122.246 13.7832C121.971 13.7305 121.678 13.7041 121.367 13.7041C120.84 13.7041 120.433 13.8594 120.146 14.1699C119.858 14.4746 119.715 14.9141 119.715 15.4883V16.4902H121.745V17.7471H119.715V26H118.089ZM125.753 14.1875V16.4902H127.528V17.7471H125.753V23.6445C125.753 24.0254 125.832 24.3125 125.99 24.5059C126.148 24.6934 126.418 24.7871 126.799 24.7871C126.986 24.7871 127.244 24.752 127.572 24.6816V26C127.145 26.1172 126.729 26.1758 126.324 26.1758C125.598 26.1758 125.05 25.9561 124.681 25.5166C124.312 25.0771 124.127 24.4531 124.127 23.6445V17.7471H122.396V16.4902H124.127V14.1875H125.753ZM129.383 25.1475C129.383 24.8662 129.465 24.6318 129.629 24.4443C129.799 24.2568 130.051 24.1631 130.385 24.1631C130.719 24.1631 130.971 24.2568 131.141 24.4443C131.316 24.6318 131.404 24.8662 131.404 25.1475C131.404 25.417 131.316 25.6426 131.141 25.8242C130.971 26.0059 130.719 26.0967 130.385 26.0967C130.051 26.0967 129.799 26.0059 129.629 25.8242C129.465 25.6426 129.383 25.417 129.383 25.1475ZM129.392 17.3867C129.392 17.1055 129.474 16.8711 129.638 16.6836C129.808 16.4961 130.06 16.4023 130.394 16.4023C130.728 16.4023 130.979 16.4961 131.149 16.6836C131.325 16.8711 131.413 17.1055 131.413 17.3867C131.413 17.6562 131.325 17.8818 131.149 18.0635C130.979 18.2451 130.728 18.3359 130.394 18.3359C130.06 18.3359 129.808 18.2451 129.638 18.0635C129.474 17.8818 129.392 17.6562 129.392 17.3867ZM143.437 26H141.802V15.1631L138.523 16.3672V14.8906L143.182 13.1416H143.437V26ZM156.225 20.542C156.225 22.4463 155.899 23.8613 155.249 24.7871C154.599 25.7129 153.582 26.1758 152.199 26.1758C150.834 26.1758 149.823 25.7246 149.167 24.8223C148.511 23.9141 148.171 22.5605 148.147 20.7617V18.5908C148.147 16.71 148.473 15.3125 149.123 14.3984C149.773 13.4844 150.793 13.0273 152.182 13.0273C153.559 13.0273 154.572 13.4697 155.223 14.3545C155.873 15.2334 156.207 16.5928 156.225 18.4326V20.542ZM154.599 18.3184C154.599 16.9414 154.405 15.9395 154.019 15.3125C153.632 14.6797 153.02 14.3633 152.182 14.3633C151.35 14.3633 150.743 14.6768 150.362 15.3037C149.981 15.9307 149.785 16.8945 149.773 18.1953V20.7969C149.773 22.1797 149.973 23.2021 150.371 23.8643C150.775 24.5205 151.385 24.8486 152.199 24.8486C153.002 24.8486 153.597 24.5381 153.983 23.917C154.376 23.2959 154.581 22.3174 154.599 20.9814V18.3184ZM166.332 20.542C166.332 22.4463 166.007 23.8613 165.356 24.7871C164.706 25.7129 163.689 26.1758 162.307 26.1758C160.941 26.1758 159.931 25.7246 159.274 24.8223C158.618 23.9141 158.278 22.5605 158.255 20.7617V18.5908C158.255 16.71 158.58 15.3125 159.23 14.3984C159.881 13.4844 160.9 13.0273 162.289 13.0273C163.666 13.0273 164.68 13.4697 165.33 14.3545C165.98 15.2334 166.314 16.5928 166.332 18.4326V20.542ZM164.706 18.3184C164.706 16.9414 164.513 15.9395 164.126 15.3125C163.739 14.6797 163.127 14.3633 162.289 14.3633C161.457 14.3633 160.851 14.6768 160.47 15.3037C160.089 15.9307 159.893 16.8945 159.881 18.1953V20.7969C159.881 22.1797 160.08 23.2021 160.479 23.8643C160.883 24.5205 161.492 24.8486 162.307 24.8486C163.109 24.8486 163.704 24.5381 164.091 23.917C164.483 23.2959 164.688 22.3174 164.706 20.9814V18.3184ZM176.615 21.3506C176.615 22.7979 176.284 23.9639 175.622 24.8486C174.96 25.7334 174.063 26.1758 172.933 26.1758C171.778 26.1758 170.87 25.8096 170.208 25.0771V29.6562H168.582V16.4902H170.067L170.146 17.5449C170.809 16.7246 171.729 16.3145 172.906 16.3145C174.049 16.3145 174.951 16.7451 175.613 17.6064C176.281 18.4678 176.615 19.666 176.615 21.2012V21.3506ZM174.989 21.166C174.989 20.0938 174.761 19.2471 174.304 18.626C173.847 18.0049 173.22 17.6943 172.423 17.6943C171.438 17.6943 170.7 18.1309 170.208 19.0039V23.5479C170.694 24.415 171.438 24.8486 172.44 24.8486C173.22 24.8486 173.838 24.541 174.295 23.9258C174.758 23.3047 174.989 22.3848 174.989 21.166ZM181.739 19.9619L183.849 16.4902H185.747L182.636 21.1924L185.844 26H183.963L181.766 22.4404L179.568 26H177.679L180.887 21.1924L177.775 16.4902H179.656L181.739 19.9619Z" fill="black"/>
<path d="M458.141 21.3506C458.141 22.8037 457.807 23.9727 457.139 24.8574C456.471 25.7363 455.574 26.1758 454.449 26.1758C453.248 26.1758 452.319 25.751 451.663 24.9014L451.584 26H450.09V12.5H451.716V17.5361C452.372 16.7217 453.277 16.3145 454.432 16.3145C455.586 16.3145 456.491 16.751 457.147 17.624C457.81 18.4971 458.141 19.6924 458.141 21.21V21.3506ZM456.515 21.166C456.515 20.0586 456.301 19.2031 455.873 18.5996C455.445 17.9961 454.83 17.6943 454.027 17.6943C452.955 17.6943 452.185 18.1924 451.716 19.1885V23.3018C452.214 24.2979 452.99 24.7959 454.045 24.7959C454.824 24.7959 455.431 24.4941 455.864 23.8906C456.298 23.2871 456.515 22.3789 456.515 21.166ZM459.767 21.1572C459.767 20.2256 459.948 19.3877 460.312 18.6436C460.681 17.8994 461.19 17.3252 461.841 16.9209C462.497 16.5166 463.244 16.3145 464.082 16.3145C465.377 16.3145 466.423 16.7627 467.22 17.6592C468.022 18.5557 468.424 19.748 468.424 21.2363V21.3506C468.424 22.2764 468.245 23.1084 467.888 23.8467C467.536 24.5791 467.029 25.1504 466.367 25.5605C465.711 25.9707 464.955 26.1758 464.1 26.1758C462.811 26.1758 461.765 25.7275 460.962 24.8311C460.165 23.9346 459.767 22.748 459.767 21.2715V21.1572ZM461.401 21.3506C461.401 22.4053 461.645 23.252 462.131 23.8906C462.623 24.5293 463.279 24.8486 464.1 24.8486C464.926 24.8486 465.582 24.5264 466.068 23.8818C466.555 23.2314 466.798 22.3232 466.798 21.1572C466.798 20.1143 466.549 19.2705 466.051 18.626C465.559 17.9756 464.902 17.6504 464.082 17.6504C463.279 17.6504 462.632 17.9697 462.14 18.6084C461.647 19.2471 461.401 20.1611 461.401 21.3506ZM475.06 17.9492C474.813 17.9082 474.547 17.8877 474.26 17.8877C473.193 17.8877 472.47 18.3418 472.089 19.25V26H470.463V16.4902H472.045L472.071 17.5889C472.604 16.7393 473.36 16.3145 474.339 16.3145C474.655 16.3145 474.896 16.3555 475.06 16.4375V17.9492ZM475.991 21.166C475.991 19.707 476.337 18.5352 477.028 17.6504C477.72 16.7598 478.625 16.3145 479.744 16.3145C480.857 16.3145 481.739 16.6953 482.39 17.457V12.5H484.016V26H482.521L482.442 24.9805C481.792 25.7773 480.887 26.1758 479.727 26.1758C478.625 26.1758 477.726 25.7246 477.028 24.8223C476.337 23.9199 475.991 22.7422 475.991 21.2891V21.166ZM477.617 21.3506C477.617 22.4287 477.84 23.2725 478.285 23.8818C478.73 24.4912 479.346 24.7959 480.131 24.7959C481.162 24.7959 481.915 24.333 482.39 23.4072V19.0391C481.903 18.1426 481.156 17.6943 480.148 17.6943C479.352 17.6943 478.73 18.002 478.285 18.6172C477.84 19.2324 477.617 20.1436 477.617 21.3506ZM490.493 26.1758C489.204 26.1758 488.155 25.7539 487.347 24.9102C486.538 24.0605 486.134 22.9268 486.134 21.5088V21.21C486.134 20.2666 486.312 19.4258 486.67 18.6875C487.033 17.9434 487.537 17.3633 488.182 16.9473C488.832 16.5254 489.535 16.3145 490.291 16.3145C491.527 16.3145 492.488 16.7217 493.174 17.5361C493.859 18.3506 494.202 19.5166 494.202 21.0342V21.7109H487.76C487.783 22.6484 488.056 23.4072 488.577 23.9873C489.104 24.5615 489.772 24.8486 490.581 24.8486C491.155 24.8486 491.642 24.7314 492.04 24.4971C492.438 24.2627 492.787 23.9521 493.086 23.5654L494.079 24.3389C493.282 25.5635 492.087 26.1758 490.493 26.1758ZM490.291 17.6504C489.635 17.6504 489.084 17.8906 488.639 18.3711C488.193 18.8457 487.918 19.5137 487.812 20.375H492.576V20.252C492.529 19.4258 492.307 18.7871 491.908 18.3359C491.51 17.8789 490.971 17.6504 490.291 17.6504ZM500.688 17.9492C500.442 17.9082 500.176 17.8877 499.889 17.8877C498.822 17.8877 498.099 18.3418 497.718 19.25V26H496.092V16.4902H497.674L497.7 17.5889C498.233 16.7393 498.989 16.3145 499.968 16.3145C500.284 16.3145 500.524 16.3555 500.688 16.4375V17.9492ZM505.575 21.2275H501.286V19.9004H505.575V21.2275ZM509.372 14.1875V16.4902H511.147V17.7471H509.372V23.6445C509.372 24.0254 509.451 24.3125 509.609 24.5059C509.768 24.6934 510.037 24.7871 510.418 24.7871C510.605 24.7871 510.863 24.752 511.191 24.6816V26C510.764 26.1172 510.348 26.1758 509.943 26.1758C509.217 26.1758 508.669 25.9561 508.3 25.5166C507.931 25.0771 507.746 24.4531 507.746 23.6445V17.7471H506.015V16.4902H507.746V14.1875H509.372ZM512.448 21.1572C512.448 20.2256 512.63 19.3877 512.993 18.6436C513.362 17.8994 513.872 17.3252 514.522 16.9209C515.179 16.5166 515.926 16.3145 516.764 16.3145C518.059 16.3145 519.104 16.7627 519.901 17.6592C520.704 18.5557 521.105 19.748 521.105 21.2363V21.3506C521.105 22.2764 520.927 23.1084 520.569 23.8467C520.218 24.5791 519.711 25.1504 519.049 25.5605C518.393 25.9707 517.637 26.1758 516.781 26.1758C515.492 26.1758 514.446 25.7275 513.644 24.8311C512.847 23.9346 512.448 22.748 512.448 21.2715V21.1572ZM514.083 21.3506C514.083 22.4053 514.326 23.252 514.812 23.8906C515.305 24.5293 515.961 24.8486 516.781 24.8486C517.607 24.8486 518.264 24.5264 518.75 23.8818C519.236 23.2314 519.479 22.3232 519.479 21.1572C519.479 20.1143 519.23 19.2705 518.732 18.626C518.24 17.9756 517.584 17.6504 516.764 17.6504C515.961 17.6504 515.313 17.9697 514.821 18.6084C514.329 19.2471 514.083 20.1611 514.083 21.3506ZM531.178 21.3506C531.178 22.7979 530.847 23.9639 530.185 24.8486C529.522 25.7334 528.626 26.1758 527.495 26.1758C526.341 26.1758 525.433 25.8096 524.771 25.0771V29.6562H523.145V16.4902H524.63L524.709 17.5449C525.371 16.7246 526.291 16.3145 527.469 16.3145C528.611 16.3145 529.514 16.7451 530.176 17.6064C530.844 18.4678 531.178 19.666 531.178 21.2012V21.3506ZM529.552 21.166C529.552 20.0938 529.323 19.2471 528.866 18.626C528.409 18.0049 527.782 17.6943 526.985 17.6943C526.001 17.6943 525.263 18.1309 524.771 19.0039V23.5479C525.257 24.415 526.001 24.8486 527.003 24.8486C527.782 24.8486 528.4 24.541 528.857 23.9258C529.32 23.3047 529.552 22.3848 529.552 21.166ZM536.636 21.2275H532.347V19.9004H536.636V21.2275ZM539.993 26H538.367V12.5H539.993V26ZM546.55 26.1758C545.261 26.1758 544.212 25.7539 543.403 24.9102C542.595 24.0605 542.19 22.9268 542.19 21.5088V21.21C542.19 20.2666 542.369 19.4258 542.727 18.6875C543.09 17.9434 543.594 17.3633 544.238 16.9473C544.889 16.5254 545.592 16.3145 546.348 16.3145C547.584 16.3145 548.545 16.7217 549.23 17.5361C549.916 18.3506 550.259 19.5166 550.259 21.0342V21.7109H543.816C543.84 22.6484 544.112 23.4072 544.634 23.9873C545.161 24.5615 545.829 24.8486 546.638 24.8486C547.212 24.8486 547.698 24.7314 548.097 24.4971C548.495 24.2627 548.844 23.9521 549.143 23.5654L550.136 24.3389C549.339 25.5635 548.144 26.1758 546.55 26.1758ZM546.348 17.6504C545.691 17.6504 545.141 17.8906 544.695 18.3711C544.25 18.8457 543.975 19.5137 543.869 20.375H548.633V20.252C548.586 19.4258 548.363 18.7871 547.965 18.3359C547.566 17.8789 547.027 17.6504 546.348 17.6504ZM552.948 26V17.7471H551.445V16.4902H552.948V15.5146C552.948 14.4951 553.221 13.707 553.766 13.1504C554.311 12.5938 555.081 12.3154 556.077 12.3154C556.452 12.3154 556.824 12.3652 557.193 12.4648L557.105 13.7832C556.83 13.7305 556.537 13.7041 556.227 13.7041C555.699 13.7041 555.292 13.8594 555.005 14.1699C554.718 14.4746 554.574 14.9141 554.574 15.4883V16.4902H556.604V17.7471H554.574V26H552.948ZM560.612 14.1875V16.4902H562.388V17.7471H560.612V23.6445C560.612 24.0254 560.691 24.3125 560.85 24.5059C561.008 24.6934 561.277 24.7871 561.658 24.7871C561.846 24.7871 562.104 24.752 562.432 24.6816V26C562.004 26.1172 561.588 26.1758 561.184 26.1758C560.457 26.1758 559.909 25.9561 559.54 25.5166C559.171 25.0771 558.986 24.4531 558.986 23.6445V17.7471H557.255V16.4902H558.986V14.1875H560.612ZM564.242 25.1475C564.242 24.8662 564.324 24.6318 564.488 24.4443C564.658 24.2568 564.91 24.1631 565.244 24.1631C565.578 24.1631 565.83 24.2568 566 24.4443C566.176 24.6318 566.264 24.8662 566.264 25.1475C566.264 25.417 566.176 25.6426 566 25.8242C565.83 26.0059 565.578 26.0967 565.244 26.0967C564.91 26.0967 564.658 26.0059 564.488 25.8242C564.324 25.6426 564.242 25.417 564.242 25.1475ZM564.251 17.3867C564.251 17.1055 564.333 16.8711 564.497 16.6836C564.667 16.4961 564.919 16.4023 565.253 16.4023C565.587 16.4023 565.839 16.4961 566.009 16.6836C566.185 16.8711 566.272 17.1055 566.272 17.3867C566.272 17.6562 566.185 17.8818 566.009 18.0635C565.839 18.2451 565.587 18.3359 565.253 18.3359C564.919 18.3359 564.667 18.2451 564.497 18.0635C564.333 17.8818 564.251 17.6562 564.251 17.3867ZM580.713 16.543C580.713 17.1816 580.543 17.75 580.203 18.248C579.869 18.7461 579.415 19.1357 578.841 19.417C579.509 19.7041 580.036 20.123 580.423 20.6738C580.815 21.2246 581.012 21.8486 581.012 22.5459C581.012 23.6533 580.637 24.5352 579.887 25.1914C579.143 25.8477 578.161 26.1758 576.942 26.1758C575.712 26.1758 574.725 25.8477 573.98 25.1914C573.242 24.5293 572.873 23.6475 572.873 22.5459C572.873 21.8545 573.061 21.2305 573.436 20.6738C573.816 20.1172 574.341 19.6953 575.009 19.4082C574.44 19.127 573.992 18.7373 573.664 18.2393C573.336 17.7412 573.172 17.1758 573.172 16.543C573.172 15.4648 573.518 14.6094 574.209 13.9766C574.9 13.3438 575.812 13.0273 576.942 13.0273C578.067 13.0273 578.976 13.3438 579.667 13.9766C580.364 14.6094 580.713 15.4648 580.713 16.543ZM579.386 22.5107C579.386 21.7959 579.157 21.2129 578.7 20.7617C578.249 20.3105 577.657 20.085 576.925 20.085C576.192 20.085 575.604 20.3076 575.158 20.7529C574.719 21.1982 574.499 21.7842 574.499 22.5107C574.499 23.2373 574.713 23.8086 575.141 24.2246C575.574 24.6406 576.175 24.8486 576.942 24.8486C577.704 24.8486 578.302 24.6406 578.735 24.2246C579.169 23.8027 579.386 23.2314 579.386 22.5107ZM576.942 14.3633C576.304 14.3633 575.785 14.5625 575.387 14.9609C574.994 15.3535 574.798 15.8896 574.798 16.5693C574.798 17.2197 574.991 17.7471 575.378 18.1514C575.771 18.5498 576.292 18.749 576.942 18.749C577.593 18.749 578.111 18.5498 578.498 18.1514C578.891 17.7471 579.087 17.2197 579.087 16.5693C579.087 15.9189 578.885 15.3887 578.48 14.9785C578.076 14.5684 577.563 14.3633 576.942 14.3633ZM591.084 20.542C591.084 22.4463 590.759 23.8613 590.108 24.7871C589.458 25.7129 588.441 26.1758 587.059 26.1758C585.693 26.1758 584.683 25.7246 584.026 24.8223C583.37 23.9141 583.03 22.5605 583.007 20.7617V18.5908C583.007 16.71 583.332 15.3125 583.982 14.3984C584.633 13.4844 585.652 13.0273 587.041 13.0273C588.418 13.0273 589.432 13.4697 590.082 14.3545C590.732 15.2334 591.066 16.5928 591.084 18.4326V20.542ZM589.458 18.3184C589.458 16.9414 589.265 15.9395 588.878 15.3125C588.491 14.6797 587.879 14.3633 587.041 14.3633C586.209 14.3633 585.603 14.6768 585.222 15.3037C584.841 15.9307 584.645 16.8945 584.633 18.1953V20.7969C584.633 22.1797 584.832 23.2021 585.23 23.8643C585.635 24.5205 586.244 24.8486 587.059 24.8486C587.861 24.8486 588.456 24.5381 588.843 23.917C589.235 23.2959 589.44 22.3174 589.458 20.9814V18.3184ZM601.367 21.3506C601.367 22.7979 601.036 23.9639 600.374 24.8486C599.712 25.7334 598.815 26.1758 597.685 26.1758C596.53 26.1758 595.622 25.8096 594.96 25.0771V29.6562H593.334V16.4902H594.819L594.898 17.5449C595.561 16.7246 596.48 16.3145 597.658 16.3145C598.801 16.3145 599.703 16.7451 600.365 17.6064C601.033 18.4678 601.367 19.666 601.367 21.2012V21.3506ZM599.741 21.166C599.741 20.0938 599.513 19.2471 599.056 18.626C598.599 18.0049 597.972 17.6943 597.175 17.6943C596.19 17.6943 595.452 18.1309 594.96 19.0039V23.5479C595.446 24.415 596.19 24.8486 597.192 24.8486C597.972 24.8486 598.59 24.541 599.047 23.9258C599.51 23.3047 599.741 22.3848 599.741 21.166ZM606.491 19.9619L608.601 16.4902H610.499L607.388 21.1924L610.596 26H608.715L606.518 22.4404L604.32 26H602.431L605.639 21.1924L602.527 16.4902H604.408L606.491 19.9619Z" fill="black"/>
<path d="M23.2812 391.351C23.2812 392.804 22.9473 393.973 22.2793 394.857C21.6113 395.736 20.7148 396.176 19.5898 396.176C18.3887 396.176 17.46 395.751 16.8037 394.901L16.7246 396H15.2305V382.5H16.8564V387.536C17.5127 386.722 18.418 386.314 19.5723 386.314C20.7266 386.314 21.6318 386.751 22.2881 387.624C22.9502 388.497 23.2812 389.692 23.2812 391.21V391.351ZM21.6553 391.166C21.6553 390.059 21.4414 389.203 21.0137 388.6C20.5859 387.996 19.9707 387.694 19.168 387.694C18.0957 387.694 17.3252 388.192 16.8564 389.188V393.302C17.3545 394.298 18.1309 394.796 19.1855 394.796C19.9648 394.796 20.5713 394.494 21.0049 393.891C21.4385 393.287 21.6553 392.379 21.6553 391.166ZM24.9072 391.157C24.9072 390.226 25.0889 389.388 25.4521 388.644C25.8213 387.899 26.3311 387.325 26.9814 386.921C27.6377 386.517 28.3848 386.314 29.2227 386.314C30.5176 386.314 31.5635 386.763 32.3604 387.659C33.1631 388.556 33.5645 389.748 33.5645 391.236V391.351C33.5645 392.276 33.3857 393.108 33.0283 393.847C32.6768 394.579 32.1699 395.15 31.5078 395.561C30.8516 395.971 30.0957 396.176 29.2402 396.176C27.9512 396.176 26.9053 395.728 26.1025 394.831C25.3057 393.935 24.9072 392.748 24.9072 391.271V391.157ZM26.542 391.351C26.542 392.405 26.7852 393.252 27.2715 393.891C27.7637 394.529 28.4199 394.849 29.2402 394.849C30.0664 394.849 30.7227 394.526 31.209 393.882C31.6953 393.231 31.9385 392.323 31.9385 391.157C31.9385 390.114 31.6895 389.271 31.1914 388.626C30.6992 387.976 30.043 387.65 29.2227 387.65C28.4199 387.65 27.7725 387.97 27.2803 388.608C26.7881 389.247 26.542 390.161 26.542 391.351ZM40.2002 387.949C39.9541 387.908 39.6875 387.888 39.4004 387.888C38.334 387.888 37.6104 388.342 37.2295 389.25V396H35.6035V386.49H37.1855L37.2119 387.589C37.7451 386.739 38.501 386.314 39.4795 386.314C39.7959 386.314 40.0361 386.355 40.2002 386.438V387.949ZM41.1318 391.166C41.1318 389.707 41.4775 388.535 42.1689 387.65C42.8604 386.76 43.7656 386.314 44.8848 386.314C45.998 386.314 46.8799 386.695 47.5303 387.457V382.5H49.1562V396H47.6621L47.583 394.98C46.9326 395.777 46.0273 396.176 44.8672 396.176C43.7656 396.176 42.8662 395.725 42.1689 394.822C41.4775 393.92 41.1318 392.742 41.1318 391.289V391.166ZM42.7578 391.351C42.7578 392.429 42.9805 393.272 43.4258 393.882C43.8711 394.491 44.4863 394.796 45.2715 394.796C46.3027 394.796 47.0557 394.333 47.5303 393.407V389.039C47.0439 388.143 46.2969 387.694 45.2891 387.694C44.4922 387.694 43.8711 388.002 43.4258 388.617C42.9805 389.232 42.7578 390.144 42.7578 391.351ZM55.6338 396.176C54.3447 396.176 53.2959 395.754 52.4873 394.91C51.6787 394.061 51.2744 392.927 51.2744 391.509V391.21C51.2744 390.267 51.4531 389.426 51.8105 388.688C52.1738 387.943 52.6777 387.363 53.3223 386.947C53.9727 386.525 54.6758 386.314 55.4316 386.314C56.668 386.314 57.6289 386.722 58.3145 387.536C59 388.351 59.3428 389.517 59.3428 391.034V391.711H52.9004C52.9238 392.648 53.1963 393.407 53.7178 393.987C54.2451 394.562 54.9131 394.849 55.7217 394.849C56.2959 394.849 56.7822 394.731 57.1807 394.497C57.5791 394.263 57.9277 393.952 58.2266 393.565L59.2197 394.339C58.4229 395.563 57.2275 396.176 55.6338 396.176ZM55.4316 387.65C54.7754 387.65 54.2246 387.891 53.7793 388.371C53.334 388.846 53.0586 389.514 52.9531 390.375H57.7168V390.252C57.6699 389.426 57.4473 388.787 57.0488 388.336C56.6504 387.879 56.1113 387.65 55.4316 387.65ZM65.8291 387.949C65.583 387.908 65.3164 387.888 65.0293 387.888C63.9629 387.888 63.2393 388.342 62.8584 389.25V396H61.2324V386.49H62.8145L62.8408 387.589C63.374 386.739 64.1299 386.314 65.1084 386.314C65.4248 386.314 65.665 386.355 65.8291 386.438V387.949ZM70.7158 391.228H66.4268V389.9H70.7158V391.228ZM74.5127 384.188V386.49H76.2881V387.747H74.5127V393.645C74.5127 394.025 74.5918 394.312 74.75 394.506C74.9082 394.693 75.1777 394.787 75.5586 394.787C75.7461 394.787 76.0039 394.752 76.332 394.682V396C75.9043 396.117 75.4883 396.176 75.084 396.176C74.3574 396.176 73.8096 395.956 73.4404 395.517C73.0713 395.077 72.8867 394.453 72.8867 393.645V387.747H71.1553V386.49H72.8867V384.188H74.5127ZM77.5889 391.157C77.5889 390.226 77.7705 389.388 78.1338 388.644C78.5029 387.899 79.0127 387.325 79.6631 386.921C80.3193 386.517 81.0664 386.314 81.9043 386.314C83.1992 386.314 84.2451 386.763 85.042 387.659C85.8447 388.556 86.2461 389.748 86.2461 391.236V391.351C86.2461 392.276 86.0674 393.108 85.71 393.847C85.3584 394.579 84.8516 395.15 84.1895 395.561C83.5332 395.971 82.7773 396.176 81.9219 396.176C80.6328 396.176 79.5869 395.728 78.7842 394.831C77.9873 393.935 77.5889 392.748 77.5889 391.271V391.157ZM79.2236 391.351C79.2236 392.405 79.4668 393.252 79.9531 393.891C80.4453 394.529 81.1016 394.849 81.9219 394.849C82.748 394.849 83.4043 394.526 83.8906 393.882C84.377 393.231 84.6201 392.323 84.6201 391.157C84.6201 390.114 84.3711 389.271 83.873 388.626C83.3809 387.976 82.7246 387.65 81.9043 387.65C81.1016 387.65 80.4541 387.97 79.9619 388.608C79.4697 389.247 79.2236 390.161 79.2236 391.351ZM96.3184 391.351C96.3184 392.798 95.9873 393.964 95.3252 394.849C94.6631 395.733 93.7666 396.176 92.6357 396.176C91.4814 396.176 90.5732 395.81 89.9111 395.077V399.656H88.2852V386.49H89.7705L89.8496 387.545C90.5117 386.725 91.4316 386.314 92.6094 386.314C93.752 386.314 94.6543 386.745 95.3164 387.606C95.9844 388.468 96.3184 389.666 96.3184 391.201V391.351ZM94.6924 391.166C94.6924 390.094 94.4639 389.247 94.0068 388.626C93.5498 388.005 92.9229 387.694 92.126 387.694C91.1416 387.694 90.4033 388.131 89.9111 389.004V393.548C90.3975 394.415 91.1416 394.849 92.1436 394.849C92.9229 394.849 93.541 394.541 93.998 393.926C94.4609 393.305 94.6924 392.385 94.6924 391.166ZM101.776 391.228H97.4873V389.9H101.776V391.228ZM105.134 396H103.508V382.5H105.134V396ZM111.69 396.176C110.401 396.176 109.353 395.754 108.544 394.91C107.735 394.061 107.331 392.927 107.331 391.509V391.21C107.331 390.267 107.51 389.426 107.867 388.688C108.23 387.943 108.734 387.363 109.379 386.947C110.029 386.525 110.732 386.314 111.488 386.314C112.725 386.314 113.686 386.722 114.371 387.536C115.057 388.351 115.399 389.517 115.399 391.034V391.711H108.957C108.98 392.648 109.253 393.407 109.774 393.987C110.302 394.562 110.97 394.849 111.778 394.849C112.353 394.849 112.839 394.731 113.237 394.497C113.636 394.263 113.984 393.952 114.283 393.565L115.276 394.339C114.479 395.563 113.284 396.176 111.69 396.176ZM111.488 387.65C110.832 387.65 110.281 387.891 109.836 388.371C109.391 388.846 109.115 389.514 109.01 390.375H113.773V390.252C113.727 389.426 113.504 388.787 113.105 388.336C112.707 387.879 112.168 387.65 111.488 387.65ZM118.089 396V387.747H116.586V386.49H118.089V385.515C118.089 384.495 118.361 383.707 118.906 383.15C119.451 382.594 120.222 382.315 121.218 382.315C121.593 382.315 121.965 382.365 122.334 382.465L122.246 383.783C121.971 383.73 121.678 383.704 121.367 383.704C120.84 383.704 120.433 383.859 120.146 384.17C119.858 384.475 119.715 384.914 119.715 385.488V386.49H121.745V387.747H119.715V396H118.089ZM125.753 384.188V386.49H127.528V387.747H125.753V393.645C125.753 394.025 125.832 394.312 125.99 394.506C126.148 394.693 126.418 394.787 126.799 394.787C126.986 394.787 127.244 394.752 127.572 394.682V396C127.145 396.117 126.729 396.176 126.324 396.176C125.598 396.176 125.05 395.956 124.681 395.517C124.312 395.077 124.127 394.453 124.127 393.645V387.747H122.396V386.49H124.127V384.188H125.753ZM129.383 395.147C129.383 394.866 129.465 394.632 129.629 394.444C129.799 394.257 130.051 394.163 130.385 394.163C130.719 394.163 130.971 394.257 131.141 394.444C131.316 394.632 131.404 394.866 131.404 395.147C131.404 395.417 131.316 395.643 131.141 395.824C130.971 396.006 130.719 396.097 130.385 396.097C130.051 396.097 129.799 396.006 129.629 395.824C129.465 395.643 129.383 395.417 129.383 395.147ZM129.392 387.387C129.392 387.105 129.474 386.871 129.638 386.684C129.808 386.496 130.06 386.402 130.394 386.402C130.728 386.402 130.979 386.496 131.149 386.684C131.325 386.871 131.413 387.105 131.413 387.387C131.413 387.656 131.325 387.882 131.149 388.063C130.979 388.245 130.728 388.336 130.394 388.336C130.06 388.336 129.808 388.245 129.638 388.063C129.474 387.882 129.392 387.656 129.392 387.387ZM144.957 391.702H146.732V393.029H144.957V396H143.322V393.029H137.495V392.071L143.226 383.203H144.957V391.702ZM139.341 391.702H143.322V385.427L143.129 385.778L139.341 391.702ZM156.225 390.542C156.225 392.446 155.899 393.861 155.249 394.787C154.599 395.713 153.582 396.176 152.199 396.176C150.834 396.176 149.823 395.725 149.167 394.822C148.511 393.914 148.171 392.561 148.147 390.762V388.591C148.147 386.71 148.473 385.312 149.123 384.398C149.773 383.484 150.793 383.027 152.182 383.027C153.559 383.027 154.572 383.47 155.223 384.354C155.873 385.233 156.207 386.593 156.225 388.433V390.542ZM154.599 388.318C154.599 386.941 154.405 385.939 154.019 385.312C153.632 384.68 153.02 384.363 152.182 384.363C151.35 384.363 150.743 384.677 150.362 385.304C149.981 385.931 149.785 386.895 149.773 388.195V390.797C149.773 392.18 149.973 393.202 150.371 393.864C150.775 394.521 151.385 394.849 152.199 394.849C153.002 394.849 153.597 394.538 153.983 393.917C154.376 393.296 154.581 392.317 154.599 390.981V388.318ZM166.508 391.351C166.508 392.798 166.177 393.964 165.515 394.849C164.853 395.733 163.956 396.176 162.825 396.176C161.671 396.176 160.763 395.81 160.101 395.077V399.656H158.475V386.49H159.96L160.039 387.545C160.701 386.725 161.621 386.314 162.799 386.314C163.941 386.314 164.844 386.745 165.506 387.606C166.174 388.468 166.508 389.666 166.508 391.201V391.351ZM164.882 391.166C164.882 390.094 164.653 389.247 164.196 388.626C163.739 388.005 163.112 387.694 162.315 387.694C161.331 387.694 160.593 388.131 160.101 389.004V393.548C160.587 394.415 161.331 394.849 162.333 394.849C163.112 394.849 163.73 394.541 164.188 393.926C164.65 393.305 164.882 392.385 164.882 391.166ZM171.632 389.962L173.741 386.49H175.64L172.528 391.192L175.736 396H173.855L171.658 392.44L169.461 396H167.571L170.779 391.192L167.668 386.49H169.549L171.632 389.962Z" fill="black"/>
<path d="M458.141 391.351C458.141 392.804 457.807 393.973 457.139 394.857C456.471 395.736 455.574 396.176 454.449 396.176C453.248 396.176 452.319 395.751 451.663 394.901L451.584 396H450.09V382.5H451.716V387.536C452.372 386.722 453.277 386.314 454.432 386.314C455.586 386.314 456.491 386.751 457.147 387.624C457.81 388.497 458.141 389.692 458.141 391.21V391.351ZM456.515 391.166C456.515 390.059 456.301 389.203 455.873 388.6C455.445 387.996 454.83 387.694 454.027 387.694C452.955 387.694 452.185 388.192 451.716 389.188V393.302C452.214 394.298 452.99 394.796 454.045 394.796C454.824 394.796 455.431 394.494 455.864 393.891C456.298 393.287 456.515 392.379 456.515 391.166ZM459.767 391.157C459.767 390.226 459.948 389.388 460.312 388.644C460.681 387.899 461.19 387.325 461.841 386.921C462.497 386.517 463.244 386.314 464.082 386.314C465.377 386.314 466.423 386.763 467.22 387.659C468.022 388.556 468.424 389.748 468.424 391.236V391.351C468.424 392.276 468.245 393.108 467.888 393.847C467.536 394.579 467.029 395.15 466.367 395.561C465.711 395.971 464.955 396.176 464.1 396.176C462.811 396.176 461.765 395.728 460.962 394.831C460.165 393.935 459.767 392.748 459.767 391.271V391.157ZM461.401 391.351C461.401 392.405 461.645 393.252 462.131 393.891C462.623 394.529 463.279 394.849 464.1 394.849C464.926 394.849 465.582 394.526 466.068 393.882C466.555 393.231 466.798 392.323 466.798 391.157C466.798 390.114 466.549 389.271 466.051 388.626C465.559 387.976 464.902 387.65 464.082 387.65C463.279 387.65 462.632 387.97 462.14 388.608C461.647 389.247 461.401 390.161 461.401 391.351ZM475.06 387.949C474.813 387.908 474.547 387.888 474.26 387.888C473.193 387.888 472.47 388.342 472.089 389.25V396H470.463V386.49H472.045L472.071 387.589C472.604 386.739 473.36 386.314 474.339 386.314C474.655 386.314 474.896 386.355 475.06 386.438V387.949ZM475.991 391.166C475.991 389.707 476.337 388.535 477.028 387.65C477.72 386.76 478.625 386.314 479.744 386.314C480.857 386.314 481.739 386.695 482.39 387.457V382.5H484.016V396H482.521L482.442 394.98C481.792 395.777 480.887 396.176 479.727 396.176C478.625 396.176 477.726 395.725 477.028 394.822C476.337 393.92 475.991 392.742 475.991 391.289V391.166ZM477.617 391.351C477.617 392.429 477.84 393.272 478.285 393.882C478.73 394.491 479.346 394.796 480.131 394.796C481.162 394.796 481.915 394.333 482.39 393.407V389.039C481.903 388.143 481.156 387.694 480.148 387.694C479.352 387.694 478.73 388.002 478.285 388.617C477.84 389.232 477.617 390.144 477.617 391.351ZM490.493 396.176C489.204 396.176 488.155 395.754 487.347 394.91C486.538 394.061 486.134 392.927 486.134 391.509V391.21C486.134 390.267 486.312 389.426 486.67 388.688C487.033 387.943 487.537 387.363 488.182 386.947C488.832 386.525 489.535 386.314 490.291 386.314C491.527 386.314 492.488 386.722 493.174 387.536C493.859 388.351 494.202 389.517 494.202 391.034V391.711H487.76C487.783 392.648 488.056 393.407 488.577 393.987C489.104 394.562 489.772 394.849 490.581 394.849C491.155 394.849 491.642 394.731 492.04 394.497C492.438 394.263 492.787 393.952 493.086 393.565L494.079 394.339C493.282 395.563 492.087 396.176 490.493 396.176ZM490.291 387.65C489.635 387.65 489.084 387.891 488.639 388.371C488.193 388.846 487.918 389.514 487.812 390.375H492.576V390.252C492.529 389.426 492.307 388.787 491.908 388.336C491.51 387.879 490.971 387.65 490.291 387.65ZM500.688 387.949C500.442 387.908 500.176 387.888 499.889 387.888C498.822 387.888 498.099 388.342 497.718 389.25V396H496.092V386.49H497.674L497.7 387.589C498.233 386.739 498.989 386.314 499.968 386.314C500.284 386.314 500.524 386.355 500.688 386.438V387.949ZM505.575 391.228H501.286V389.9H505.575V391.228ZM509.372 384.188V386.49H511.147V387.747H509.372V393.645C509.372 394.025 509.451 394.312 509.609 394.506C509.768 394.693 510.037 394.787 510.418 394.787C510.605 394.787 510.863 394.752 511.191 394.682V396C510.764 396.117 510.348 396.176 509.943 396.176C509.217 396.176 508.669 395.956 508.3 395.517C507.931 395.077 507.746 394.453 507.746 393.645V387.747H506.015V386.49H507.746V384.188H509.372ZM512.448 391.157C512.448 390.226 512.63 389.388 512.993 388.644C513.362 387.899 513.872 387.325 514.522 386.921C515.179 386.517 515.926 386.314 516.764 386.314C518.059 386.314 519.104 386.763 519.901 387.659C520.704 388.556 521.105 389.748 521.105 391.236V391.351C521.105 392.276 520.927 393.108 520.569 393.847C520.218 394.579 519.711 395.15 519.049 395.561C518.393 395.971 517.637 396.176 516.781 396.176C515.492 396.176 514.446 395.728 513.644 394.831C512.847 393.935 512.448 392.748 512.448 391.271V391.157ZM514.083 391.351C514.083 392.405 514.326 393.252 514.812 393.891C515.305 394.529 515.961 394.849 516.781 394.849C517.607 394.849 518.264 394.526 518.75 393.882C519.236 393.231 519.479 392.323 519.479 391.157C519.479 390.114 519.23 389.271 518.732 388.626C518.24 387.976 517.584 387.65 516.764 387.65C515.961 387.65 515.313 387.97 514.821 388.608C514.329 389.247 514.083 390.161 514.083 391.351ZM531.178 391.351C531.178 392.798 530.847 393.964 530.185 394.849C529.522 395.733 528.626 396.176 527.495 396.176C526.341 396.176 525.433 395.81 524.771 395.077V399.656H523.145V386.49H524.63L524.709 387.545C525.371 386.725 526.291 386.314 527.469 386.314C528.611 386.314 529.514 386.745 530.176 387.606C530.844 388.468 531.178 389.666 531.178 391.201V391.351ZM529.552 391.166C529.552 390.094 529.323 389.247 528.866 388.626C528.409 388.005 527.782 387.694 526.985 387.694C526.001 387.694 525.263 388.131 524.771 389.004V393.548C525.257 394.415 526.001 394.849 527.003 394.849C527.782 394.849 528.4 394.541 528.857 393.926C529.32 393.305 529.552 392.385 529.552 391.166ZM536.636 391.228H532.347V389.9H536.636V391.228ZM539.993 396H538.367V382.5H539.993V396ZM546.55 396.176C545.261 396.176 544.212 395.754 543.403 394.91C542.595 394.061 542.19 392.927 542.19 391.509V391.21C542.19 390.267 542.369 389.426 542.727 388.688C543.09 387.943 543.594 387.363 544.238 386.947C544.889 386.525 545.592 386.314 546.348 386.314C547.584 386.314 548.545 386.722 549.23 387.536C549.916 388.351 550.259 389.517 550.259 391.034V391.711H543.816C543.84 392.648 544.112 393.407 544.634 393.987C545.161 394.562 545.829 394.849 546.638 394.849C547.212 394.849 547.698 394.731 548.097 394.497C548.495 394.263 548.844 393.952 549.143 393.565L550.136 394.339C549.339 395.563 548.144 396.176 546.55 396.176ZM546.348 387.65C545.691 387.65 545.141 387.891 544.695 388.371C544.25 388.846 543.975 389.514 543.869 390.375H548.633V390.252C548.586 389.426 548.363 388.787 547.965 388.336C547.566 387.879 547.027 387.65 546.348 387.65ZM552.948 396V387.747H551.445V386.49H552.948V385.515C552.948 384.495 553.221 383.707 553.766 383.15C554.311 382.594 555.081 382.315 556.077 382.315C556.452 382.315 556.824 382.365 557.193 382.465L557.105 383.783C556.83 383.73 556.537 383.704 556.227 383.704C555.699 383.704 555.292 383.859 555.005 384.17C554.718 384.475 554.574 384.914 554.574 385.488V386.49H556.604V387.747H554.574V396H552.948ZM560.612 384.188V386.49H562.388V387.747H560.612V393.645C560.612 394.025 560.691 394.312 560.85 394.506C561.008 394.693 561.277 394.787 561.658 394.787C561.846 394.787 562.104 394.752 562.432 394.682V396C562.004 396.117 561.588 396.176 561.184 396.176C560.457 396.176 559.909 395.956 559.54 395.517C559.171 395.077 558.986 394.453 558.986 393.645V387.747H557.255V386.49H558.986V384.188H560.612ZM564.242 395.147C564.242 394.866 564.324 394.632 564.488 394.444C564.658 394.257 564.91 394.163 565.244 394.163C565.578 394.163 565.83 394.257 566 394.444C566.176 394.632 566.264 394.866 566.264 395.147C566.264 395.417 566.176 395.643 566 395.824C565.83 396.006 565.578 396.097 565.244 396.097C564.91 396.097 564.658 396.006 564.488 395.824C564.324 395.643 564.242 395.417 564.242 395.147ZM564.251 387.387C564.251 387.105 564.333 386.871 564.497 386.684C564.667 386.496 564.919 386.402 565.253 386.402C565.587 386.402 565.839 386.496 566.009 386.684C566.185 386.871 566.272 387.105 566.272 387.387C566.272 387.656 566.185 387.882 566.009 388.063C565.839 388.245 565.587 388.336 565.253 388.336C564.919 388.336 564.667 388.245 564.497 388.063C564.333 387.882 564.251 387.656 564.251 387.387ZM579.333 383.194V384.574H579.034C577.769 384.598 576.761 384.973 576.011 385.699C575.261 386.426 574.827 387.448 574.71 388.767C575.384 387.993 576.304 387.606 577.47 387.606C578.583 387.606 579.471 387.999 580.133 388.784C580.801 389.569 581.135 390.583 581.135 391.825C581.135 393.144 580.774 394.198 580.054 394.989C579.339 395.78 578.378 396.176 577.171 396.176C575.946 396.176 574.953 395.707 574.191 394.77C573.43 393.826 573.049 392.613 573.049 391.131V390.507C573.049 388.151 573.55 386.353 574.552 385.11C575.56 383.862 577.057 383.224 579.043 383.194H579.333ZM577.197 388.96C576.641 388.96 576.128 389.127 575.659 389.461C575.19 389.795 574.865 390.214 574.684 390.718V391.315C574.684 392.37 574.921 393.22 575.396 393.864C575.87 394.509 576.462 394.831 577.171 394.831C577.903 394.831 578.478 394.562 578.894 394.022C579.315 393.483 579.526 392.777 579.526 391.904C579.526 391.025 579.312 390.316 578.885 389.777C578.463 389.232 577.9 388.96 577.197 388.96ZM591.084 390.542C591.084 392.446 590.759 393.861 590.108 394.787C589.458 395.713 588.441 396.176 587.059 396.176C585.693 396.176 584.683 395.725 584.026 394.822C583.37 393.914 583.03 392.561 583.007 390.762V388.591C583.007 386.71 583.332 385.312 583.982 384.398C584.633 383.484 585.652 383.027 587.041 383.027C588.418 383.027 589.432 383.47 590.082 384.354C590.732 385.233 591.066 386.593 591.084 388.433V390.542ZM589.458 388.318C589.458 386.941 589.265 385.939 588.878 385.312C588.491 384.68 587.879 384.363 587.041 384.363C586.209 384.363 585.603 384.677 585.222 385.304C584.841 385.931 584.645 386.895 584.633 388.195V390.797C584.633 392.18 584.832 393.202 585.23 393.864C585.635 394.521 586.244 394.849 587.059 394.849C587.861 394.849 588.456 394.538 588.843 393.917C589.235 393.296 589.44 392.317 589.458 390.981V388.318ZM601.367 391.351C601.367 392.798 601.036 393.964 600.374 394.849C599.712 395.733 598.815 396.176 597.685 396.176C596.53 396.176 595.622 395.81 594.96 395.077V399.656H593.334V386.49H594.819L594.898 387.545C595.561 386.725 596.48 386.314 597.658 386.314C598.801 386.314 599.703 386.745 600.365 387.606C601.033 388.468 601.367 389.666 601.367 391.201V391.351ZM599.741 391.166C599.741 390.094 599.513 389.247 599.056 388.626C598.599 388.005 597.972 387.694 597.175 387.694C596.19 387.694 595.452 388.131 594.96 389.004V393.548C595.446 394.415 596.19 394.849 597.192 394.849C597.972 394.849 598.59 394.541 599.047 393.926C599.51 393.305 599.741 392.385 599.741 391.166ZM606.491 389.962L608.601 386.49H610.499L607.388 391.192L610.596 396H608.715L606.518 392.44L604.32 396H602.431L605.639 391.192L602.527 386.49H604.408L606.491 389.962Z" fill="black"/>
<path d="M53.6464 67.6464C53.4512 67.8417 53.4512 68.1583 53.6464 68.3536L56.8284 71.5355C57.0237 71.7308 57.3403 71.7308 57.5355 71.5355C57.7308 71.3403 57.7308 71.0237 57.5355 70.8284L54.7071 68L57.5355 65.1716C57.7308 64.9763 57.7308 64.6597 57.5355 64.4645C57.3403 64.2692 57.0237 64.2692 56.8284 64.4645L53.6464 67.6464ZM148.854 68.3536C149.049 68.1583 149.049 67.8417 148.854 67.6464L145.672 64.4645C145.476 64.2692 145.16 64.2692 144.964 64.4645C144.769 64.6597 144.769 64.9763 144.964 65.1716L147.793 68L144.964 70.8284C144.769 71.0237 144.769 71.3403 144.964 71.5355C145.16 71.7308 145.476 71.7308 145.672 71.5355L148.854 68.3536ZM54 68.5H148.5V67.5H54V68.5Z" fill="#E44D26"/>
<path d="M53.6464 340.646C53.4512 340.842 53.4512 341.158 53.6464 341.354L56.8284 344.536C57.0237 344.731 57.3403 344.731 57.5355 344.536C57.7308 344.34 57.7308 344.024 57.5355 343.828L54.7071 341L57.5355 338.172C57.7308 337.976 57.7308 337.66 57.5355 337.464C57.3403 337.269 57.0237 337.269 56.8284 337.464L53.6464 340.646ZM89.3536 341.354C89.5488 341.158 89.5488 340.842 89.3536 340.646L86.1716 337.464C85.9763 337.269 85.6597 337.269 85.4645 337.464C85.2692 337.66 85.2692 337.976 85.4645 338.172L88.2929 341L85.4645 343.828C85.2692 344.024 85.2692 344.34 85.4645 344.536C85.6597 344.731 85.9763 344.731 86.1716 344.536L89.3536 341.354ZM54 341.5H89V340.5H54V341.5Z" fill="#E44D26"/>
<path d="M508.646 340.646C508.451 340.842 508.451 341.158 508.646 341.354L511.828 344.536C512.024 344.731 512.34 344.731 512.536 344.536C512.731 344.34 512.731 344.024 512.536 343.828L509.707 341L512.536 338.172C512.731 337.976 512.731 337.66 512.536 337.464C512.34 337.269 512.024 337.269 511.828 337.464L508.646 340.646ZM564.354 341.354C564.549 341.158 564.549 340.842 564.354 340.646L561.172 337.464C560.976 337.269 560.66 337.269 560.464 337.464C560.269 337.66 560.269 337.976 560.464 338.172L563.293 341L560.464 343.828C560.269 344.024 560.269 344.34 560.464 344.536C560.66 344.731 560.976 344.731 561.172 344.536L564.354 341.354ZM509 341.5H564V340.5H509V341.5Z" fill="#E44D26"/>
<path d="M488.646 67.6464C488.451 67.8417 488.451 68.1583 488.646 68.3536L491.828 71.5355C492.024 71.7308 492.34 71.7308 492.536 71.5355C492.731 71.3403 492.731 71.0237 492.536 70.8284L489.707 68L492.536 65.1716C492.731 64.9763 492.731 64.6597 492.536 64.4645C492.34 64.2692 492.024 64.2692 491.828 64.4645L488.646 67.6464ZM564.354 68.3535C564.549 68.1583 564.549 67.8417 564.354 67.6464L561.172 64.4645C560.976 64.2692 560.66 64.2692 560.464 64.4645C560.269 64.6597 560.269 64.9763 560.464 65.1716L563.293 68L560.464 70.8284C560.269 71.0237 560.269 71.3403 560.464 71.5355C560.66 71.7308 560.976 71.7308 561.172 71.5355L564.354 68.3535ZM489 68.5L564 68.5L564 67.5L489 67.5L489 68.5Z" fill="#E44D26"/>
<path d="M87.0615 63H84.751V55.6445L82.4814 56.3076V54.5576L86.8496 53.0469H87.0615V63ZM96.9736 58.9326C96.9736 60.277 96.6706 61.3138 96.0645 62.043C95.4629 62.7721 94.613 63.1367 93.5146 63.1367C92.4072 63.1367 91.5505 62.7699 90.9443 62.0361C90.3382 61.3024 90.0352 60.2679 90.0352 58.9326V57.1143C90.0352 55.7699 90.3359 54.7331 90.9375 54.0039C91.5436 53.2747 92.3981 52.9102 93.501 52.9102C94.6038 52.9102 95.4583 53.277 96.0645 54.0107C96.6706 54.7445 96.9736 55.7812 96.9736 57.1211V58.9326ZM94.6699 56.8203C94.6699 56.1048 94.5765 55.5716 94.3896 55.2207C94.2028 54.8652 93.9066 54.6875 93.501 54.6875C93.1045 54.6875 92.8151 54.8516 92.6328 55.1797C92.4551 55.5078 92.3594 56.0046 92.3457 56.6699V59.2129C92.3457 59.9557 92.4391 60.5003 92.626 60.8467C92.8128 61.1885 93.109 61.3594 93.5146 61.3594C93.9066 61.3594 94.196 61.193 94.3828 60.8604C94.5697 60.5231 94.6654 59.9967 94.6699 59.2812V56.8203ZM105.081 58.9326C105.081 60.277 104.778 61.3138 104.172 62.043C103.57 62.7721 102.72 63.1367 101.622 63.1367C100.515 63.1367 99.6579 62.7699 99.0518 62.0361C98.4456 61.3024 98.1426 60.2679 98.1426 58.9326V57.1143C98.1426 55.7699 98.4434 54.7331 99.0449 54.0039C99.651 53.2747 100.506 52.9102 101.608 52.9102C102.711 52.9102 103.566 53.277 104.172 54.0107C104.778 54.7445 105.081 55.7812 105.081 57.1211V58.9326ZM102.777 56.8203C102.777 56.1048 102.684 55.5716 102.497 55.2207C102.31 54.8652 102.014 54.6875 101.608 54.6875C101.212 54.6875 100.923 54.8516 100.74 55.1797C100.562 55.5078 100.467 56.0046 100.453 56.6699V59.2129C100.453 59.9557 100.547 60.5003 100.733 60.8467C100.92 61.1885 101.216 61.3594 101.622 61.3594C102.014 61.3594 102.303 61.193 102.49 60.8604C102.677 60.5231 102.773 59.9967 102.777 59.2812V56.8203ZM113.182 59.3564C113.182 60.5049 112.922 61.4232 112.402 62.1113C111.887 62.7949 111.19 63.1367 110.311 63.1367C109.632 63.1367 109.073 62.8883 108.636 62.3916V65.8438H106.332V55.6035H108.485L108.554 56.2871C108.996 55.7402 109.577 55.4668 110.297 55.4668C111.208 55.4668 111.917 55.804 112.423 56.4785C112.929 57.1484 113.182 58.0713 113.182 59.2471V59.3564ZM110.878 59.2129C110.878 57.9004 110.495 57.2441 109.729 57.2441C109.183 57.2441 108.818 57.4401 108.636 57.832V60.7441C108.836 61.1543 109.205 61.3594 109.743 61.3594C110.477 61.3594 110.855 60.7259 110.878 59.459V59.2129ZM117.092 57.6406L118.165 55.6035H120.558L118.609 59.2061L120.653 63H118.247L117.085 60.8125L115.943 63H113.523L115.574 59.2061L113.633 55.6035H116.053L117.092 57.6406Z" fill="#E44D26"/>
<path d="M62.0928 352.11H63.1045V353.888H62.0928V356H59.7891V353.888H55.9404L55.8037 352.479L59.7891 346.067V346.047H62.0928V352.11ZM57.998 352.11H59.7891V349.048L59.6455 349.28L57.998 352.11ZM71.0273 351.933C71.0273 353.277 70.7243 354.314 70.1182 355.043C69.5166 355.772 68.6667 356.137 67.5684 356.137C66.4609 356.137 65.6042 355.77 64.998 355.036C64.3919 354.302 64.0889 353.268 64.0889 351.933V350.114C64.0889 348.77 64.3896 347.733 64.9912 347.004C65.5973 346.275 66.4518 345.91 67.5547 345.91C68.6576 345.91 69.512 346.277 70.1182 347.011C70.7243 347.744 71.0273 348.781 71.0273 350.121V351.933ZM68.7236 349.82C68.7236 349.105 68.6302 348.572 68.4434 348.221C68.2565 347.865 67.9603 347.688 67.5547 347.688C67.1582 347.688 66.8688 347.852 66.6865 348.18C66.5088 348.508 66.4131 349.005 66.3994 349.67V352.213C66.3994 352.956 66.4928 353.5 66.6797 353.847C66.8665 354.188 67.1628 354.359 67.5684 354.359C67.9603 354.359 68.2497 354.193 68.4365 353.86C68.6234 353.523 68.7191 352.997 68.7236 352.281V349.82ZM79.1279 352.356C79.1279 353.505 78.8682 354.423 78.3486 355.111C77.8337 355.795 77.1364 356.137 76.2568 356.137C75.5778 356.137 75.0195 355.888 74.582 355.392V358.844H72.2783V348.604H74.4316L74.5 349.287C74.9421 348.74 75.5231 348.467 76.2432 348.467C77.1546 348.467 77.8633 348.804 78.3691 349.479C78.875 350.148 79.1279 351.071 79.1279 352.247V352.356ZM76.8242 352.213C76.8242 350.9 76.4414 350.244 75.6758 350.244C75.1289 350.244 74.7643 350.44 74.582 350.832V353.744C74.7826 354.154 75.1517 354.359 75.6895 354.359C76.4232 354.359 76.8014 353.726 76.8242 352.459V352.213ZM83.0381 350.641L84.1113 348.604H86.5039L84.5557 352.206L86.5996 356H84.1934L83.0312 353.812L81.8896 356H79.4697L81.5205 352.206L79.5791 348.604H81.999L83.0381 350.641Z" fill="#E44D26"/>
<path d="M526.573 345.903V347.715H526.471C525.609 347.715 524.901 347.922 524.345 348.337C523.793 348.747 523.454 349.319 523.326 350.053C523.846 349.542 524.502 349.287 525.295 349.287C526.156 349.287 526.842 349.602 527.353 350.23C527.863 350.859 528.118 351.684 528.118 352.705C528.118 353.339 527.968 353.92 527.667 354.448C527.371 354.977 526.954 355.392 526.416 355.692C525.883 355.989 525.29 356.137 524.639 356.137C523.932 356.137 523.301 355.977 522.745 355.658C522.189 355.335 521.756 354.874 521.446 354.277C521.136 353.68 520.977 352.992 520.968 352.213V351.29C520.968 350.265 521.187 349.344 521.624 348.528C522.066 347.708 522.695 347.065 523.511 346.601C524.326 346.136 525.231 345.903 526.225 345.903H526.573ZM524.495 351.051C524.19 351.051 523.935 351.121 523.729 351.263C523.524 351.404 523.372 351.577 523.271 351.782V352.473C523.271 353.73 523.707 354.359 524.577 354.359C524.928 354.359 525.22 354.202 525.452 353.888C525.689 353.573 525.808 353.179 525.808 352.705C525.808 352.217 525.687 351.821 525.445 351.516C525.208 351.206 524.892 351.051 524.495 351.051ZM536.027 351.933C536.027 353.277 535.724 354.314 535.118 355.043C534.517 355.772 533.667 356.137 532.568 356.137C531.461 356.137 530.604 355.77 529.998 355.036C529.392 354.302 529.089 353.268 529.089 351.933V350.114C529.089 348.77 529.39 347.733 529.991 347.004C530.597 346.275 531.452 345.91 532.555 345.91C533.658 345.91 534.512 346.277 535.118 347.011C535.724 347.744 536.027 348.781 536.027 350.121V351.933ZM533.724 349.82C533.724 349.105 533.63 348.572 533.443 348.221C533.257 347.865 532.96 347.688 532.555 347.688C532.158 347.688 531.869 347.852 531.687 348.18C531.509 348.508 531.413 349.005 531.399 349.67V352.213C531.399 352.956 531.493 353.5 531.68 353.847C531.867 354.188 532.163 354.359 532.568 354.359C532.96 354.359 533.25 354.193 533.437 353.86C533.623 353.523 533.719 352.997 533.724 352.281V349.82ZM544.128 352.356C544.128 353.505 543.868 354.423 543.349 355.111C542.834 355.795 542.136 356.137 541.257 356.137C540.578 356.137 540.02 355.888 539.582 355.392V358.844H537.278V348.604H539.432L539.5 349.287C539.942 348.74 540.523 348.467 541.243 348.467C542.155 348.467 542.863 348.804 543.369 349.479C543.875 350.148 544.128 351.071 544.128 352.247V352.356ZM541.824 352.213C541.824 350.9 541.441 350.244 540.676 350.244C540.129 350.244 539.764 350.44 539.582 350.832V353.744C539.783 354.154 540.152 354.359 540.689 354.359C541.423 354.359 541.801 353.726 541.824 352.459V352.213ZM548.038 350.641L549.111 348.604H551.504L549.556 352.206L551.6 356H549.193L548.031 353.812L546.89 356H544.47L546.521 352.206L544.579 348.604H546.999L548.038 350.641Z" fill="#E44D26"/>
<path d="M517.722 55.7061C517.722 56.1891 517.601 56.6152 517.359 56.9844C517.122 57.3535 516.794 57.6497 516.375 57.873C516.849 58.1055 517.225 58.4245 517.503 58.8301C517.781 59.2311 517.92 59.7074 517.92 60.2588C517.92 61.1475 517.612 61.8493 516.997 62.3643C516.386 62.8792 515.543 63.1367 514.468 63.1367C513.388 63.1367 512.535 62.8792 511.911 62.3643C511.287 61.8447 510.975 61.1429 510.975 60.2588C510.975 59.7256 511.111 59.2539 511.385 58.8438C511.658 58.4336 512.046 58.11 512.547 57.873C512.123 57.6497 511.79 57.3535 511.549 56.9844C511.307 56.6152 511.187 56.1891 511.187 55.7061C511.187 54.8402 511.48 54.1566 512.068 53.6553C512.656 53.154 513.449 52.9033 514.447 52.9033C515.454 52.9033 516.252 53.154 516.84 53.6553C517.428 54.1566 517.722 54.8402 517.722 55.7061ZM515.609 60.0742C515.609 59.6641 515.502 59.3496 515.288 59.1309C515.078 58.9076 514.8 58.7959 514.454 58.7959C514.108 58.7959 513.827 58.9076 513.613 59.1309C513.399 59.3496 513.292 59.6641 513.292 60.0742C513.292 60.4707 513.399 60.7852 513.613 61.0176C513.832 61.2454 514.117 61.3594 514.468 61.3594C514.81 61.3594 515.085 61.2454 515.295 61.0176C515.505 60.7897 515.609 60.4753 515.609 60.0742ZM514.447 54.6807C514.137 54.6807 513.9 54.7832 513.736 54.9883C513.577 55.1888 513.497 55.4691 513.497 55.8291C513.497 56.1846 513.579 56.4717 513.743 56.6904C513.907 56.9092 514.149 57.0186 514.468 57.0186C514.782 57.0186 515.017 56.9092 515.172 56.6904C515.331 56.4717 515.411 56.1846 515.411 55.8291C515.411 55.4736 515.329 55.1934 515.165 54.9883C515.006 54.7832 514.766 54.6807 514.447 54.6807ZM526.027 58.9326C526.027 60.277 525.724 61.3138 525.118 62.043C524.517 62.7721 523.667 63.1367 522.568 63.1367C521.461 63.1367 520.604 62.7699 519.998 62.0361C519.392 61.3024 519.089 60.2679 519.089 58.9326V57.1143C519.089 55.7699 519.39 54.7331 519.991 54.0039C520.597 53.2747 521.452 52.9102 522.555 52.9102C523.658 52.9102 524.512 53.277 525.118 54.0107C525.724 54.7445 526.027 55.7812 526.027 57.1211V58.9326ZM523.724 56.8203C523.724 56.1048 523.63 55.5716 523.443 55.2207C523.257 54.8652 522.96 54.6875 522.555 54.6875C522.158 54.6875 521.869 54.8516 521.687 55.1797C521.509 55.5078 521.413 56.0046 521.399 56.6699V59.2129C521.399 59.9557 521.493 60.5003 521.68 60.8467C521.867 61.1885 522.163 61.3594 522.568 61.3594C522.96 61.3594 523.25 61.193 523.437 60.8604C523.623 60.5231 523.719 59.9967 523.724 59.2812V56.8203ZM534.128 59.3564C534.128 60.5049 533.868 61.4232 533.349 62.1113C532.834 62.7949 532.136 63.1367 531.257 63.1367C530.578 63.1367 530.02 62.8883 529.582 62.3916V65.8438H527.278V55.6035H529.432L529.5 56.2871C529.942 55.7402 530.523 55.4668 531.243 55.4668C532.155 55.4668 532.863 55.804 533.369 56.4785C533.875 57.1484 534.128 58.0713 534.128 59.2471V59.3564ZM531.824 59.2129C531.824 57.9004 531.441 57.2441 530.676 57.2441C530.129 57.2441 529.764 57.4401 529.582 57.832V60.7441C529.783 61.1543 530.152 61.3594 530.689 61.3594C531.423 61.3594 531.801 60.7259 531.824 59.459V59.2129ZM538.038 57.6406L539.111 55.6035H541.504L539.556 59.2061L541.6 63H539.193L538.031 60.8125L536.89 63H534.47L536.521 59.2061L534.579 55.6035H536.999L538.038 57.6406Z" fill="#E44D26"/>
</svg>
