<svg width="571" height="575" viewBox="0 0 571 575" fill="none" xmlns="http://www.w3.org/2000/svg">
<path d="M287.414 12.5858C286.633 11.8047 285.367 11.8047 284.586 12.5858L271.858 25.3137C271.077 26.0948 271.077 27.3611 271.858 28.1421C272.639 28.9232 273.905 28.9232 274.686 28.1421L286 16.8284L297.314 28.1421C298.095 28.9232 299.361 28.9232 300.142 28.1421C300.923 27.3611 300.923 26.0948 300.142 25.3137L287.414 12.5858ZM284.586 523.414C285.367 524.195 286.633 524.195 287.414 523.414L300.142 510.686C300.923 509.905 300.923 508.639 300.142 507.858C299.361 507.077 298.095 507.077 297.314 507.858L286 519.172L274.686 507.858C273.905 507.077 272.639 507.077 271.858 507.858C271.077 508.639 271.077 509.905 271.858 510.686L284.586 523.414ZM284 14V522H288V14H284Z" fill="#1E73FF"/>
<path d="M16.5858 266.586C15.8047 267.367 15.8047 268.633 16.5858 269.414L29.3137 282.142C30.0948 282.923 31.3611 282.923 32.1421 282.142C32.9232 281.361 32.9232 280.095 32.1421 279.314L20.8284 268L32.1421 256.686C32.9232 255.905 32.9232 254.639 32.1421 253.858C31.3611 253.077 30.0948 253.077 29.3137 253.858L16.5858 266.586ZM554.414 269.414C555.195 268.633 555.195 267.367 554.414 266.586L541.686 253.858C540.905 253.077 539.639 253.077 538.858 253.858C538.077 254.639 538.077 255.905 538.858 256.686L550.172 268L538.858 279.314C538.077 280.095 538.077 281.361 538.858 282.142C539.639 282.923 540.905 282.923 541.686 282.142L554.414 269.414ZM18 270H553V266H18V270Z" fill="#1E73FF"/>
<rect x="58" y="54" width="455" height="428" fill="#EEEEEE"/>
<path d="M79.2929 126.293C78.9024 126.683 78.9024 127.317 79.2929 127.707L85.6569 134.071C86.0474 134.462 86.6805 134.462 87.0711 134.071C87.4616 133.681 87.4616 133.047 87.0711 132.657L81.4142 127L87.0711 121.343C87.4616 120.953 87.4616 120.319 87.0711 119.929C86.6805 119.538 86.0474 119.538 85.6569 119.929L79.2929 126.293ZM491.707 127.707C492.098 127.317 492.098 126.683 491.707 126.293L485.343 119.929C484.953 119.538 484.319 119.538 483.929 119.929C483.538 120.319 483.538 120.953 483.929 121.343L489.586 127L483.929 132.657C483.538 133.047 483.538 133.681 483.929 134.071C484.319 134.462 484.953 134.462 485.343 134.071L491.707 127.707ZM80 128H491V126H80V128Z" fill="#E44D26"/>
<path d="M286.707 61.2929C286.317 60.9024 285.683 60.9024 285.293 61.2929L278.929 67.6569C278.538 68.0474 278.538 68.6805 278.929 69.0711C279.319 69.4616 279.953 69.4616 280.343 69.0711L286 63.4142L291.657 69.0711C292.047 69.4616 292.681 69.4616 293.071 69.0711C293.462 68.6805 293.462 68.0474 293.071 67.6569L286.707 61.2929ZM285.293 190.707C285.683 191.098 286.317 191.098 286.707 190.707L293.071 184.343C293.462 183.953 293.462 183.319 293.071 182.929C292.681 182.538 292.047 182.538 291.657 182.929L286 188.586L280.343 182.929C279.953 182.538 279.319 182.538 278.929 182.929C278.538 183.319 278.538 183.953 278.929 184.343L285.293 190.707ZM285 62V190H287V62H285Z" fill="#E44D26"/>
<rect x="122" y="105" width="328" height="43" fill="white" stroke="#E44D26" stroke-width="2"/>
<path d="M261.677 131.232C262.119 131.232 262.479 131.11 262.756 130.867C263.033 130.623 263.176 130.299 263.188 129.896H265.437C265.431 130.504 265.265 131.063 264.939 131.572C264.612 132.076 264.164 132.469 263.594 132.751C263.03 133.028 262.404 133.166 261.718 133.166C260.434 133.166 259.422 132.759 258.68 131.946C257.939 131.127 257.568 129.998 257.568 128.559V128.401C257.568 127.018 257.936 125.914 258.672 125.089C259.408 124.265 260.418 123.853 261.702 123.853C262.825 123.853 263.724 124.174 264.399 124.815C265.08 125.452 265.426 126.301 265.437 127.364H263.188C263.176 126.899 263.033 126.523 262.756 126.235C262.479 125.942 262.114 125.795 261.66 125.795C261.101 125.795 260.678 126 260.39 126.409C260.108 126.813 259.967 127.472 259.967 128.385V128.634C259.967 129.558 260.108 130.222 260.39 130.626C260.672 131.03 261.101 131.232 261.677 131.232ZM272.011 133C271.901 132.784 271.82 132.516 271.771 132.195C271.189 132.842 270.434 133.166 269.504 133.166C268.625 133.166 267.894 132.911 267.313 132.402C266.737 131.893 266.45 131.251 266.45 130.477C266.45 129.525 266.801 128.794 267.504 128.285C268.212 127.776 269.233 127.519 270.567 127.513H271.671V126.999C271.671 126.583 271.563 126.251 271.347 126.002C271.137 125.753 270.802 125.629 270.343 125.629C269.939 125.629 269.621 125.726 269.388 125.919C269.161 126.113 269.048 126.379 269.048 126.716H266.649C266.649 126.196 266.809 125.715 267.13 125.272C267.451 124.829 267.905 124.483 268.492 124.234C269.078 123.98 269.737 123.853 270.467 123.853C271.574 123.853 272.451 124.132 273.099 124.691C273.752 125.244 274.078 126.025 274.078 127.032V130.925C274.084 131.777 274.203 132.422 274.435 132.859V133H272.011ZM270.027 131.332C270.382 131.332 270.708 131.254 271.007 131.099C271.306 130.939 271.527 130.726 271.671 130.46V128.916H270.774C269.574 128.916 268.934 129.331 268.857 130.161L268.849 130.302C268.849 130.601 268.954 130.847 269.164 131.041C269.374 131.235 269.662 131.332 270.027 131.332ZM284.006 128.592C284.006 129.976 283.69 131.085 283.06 131.921C282.434 132.751 281.588 133.166 280.52 133.166C279.612 133.166 278.879 132.851 278.32 132.22V136.453H275.921V124.019H278.146L278.229 124.898C278.81 124.201 279.568 123.853 280.503 123.853C281.61 123.853 282.47 124.262 283.084 125.081C283.699 125.9 284.006 127.029 284.006 128.468V128.592ZM281.607 128.418C281.607 127.582 281.458 126.938 281.159 126.484C280.865 126.03 280.437 125.803 279.872 125.803C279.119 125.803 278.602 126.091 278.32 126.667V130.344C278.613 130.936 279.136 131.232 279.889 131.232C281.034 131.232 281.607 130.294 281.607 128.418ZM288.372 121.811V124.019H289.908V125.778H288.372V130.261C288.372 130.593 288.436 130.831 288.563 130.975C288.69 131.118 288.934 131.19 289.293 131.19C289.559 131.19 289.794 131.171 289.999 131.132V132.95C289.529 133.094 289.044 133.166 288.546 133.166C286.864 133.166 286.006 132.317 285.973 130.618V125.778H284.662V124.019H285.973V121.811H288.372ZM293.776 133H291.369V124.019H293.776V133ZM291.228 121.694C291.228 121.335 291.347 121.039 291.584 120.806C291.828 120.574 292.157 120.458 292.572 120.458C292.982 120.458 293.308 120.574 293.552 120.806C293.795 121.039 293.917 121.335 293.917 121.694C293.917 122.06 293.792 122.358 293.543 122.591C293.3 122.823 292.976 122.939 292.572 122.939C292.168 122.939 291.842 122.823 291.593 122.591C291.349 122.358 291.228 122.06 291.228 121.694ZM295.386 128.426C295.386 127.535 295.558 126.741 295.901 126.044C296.244 125.347 296.736 124.807 297.378 124.425C298.026 124.043 298.776 123.853 299.628 123.853C300.84 123.853 301.828 124.223 302.591 124.965C303.361 125.706 303.789 126.714 303.878 127.986L303.895 128.601C303.895 129.979 303.51 131.085 302.741 131.921C301.972 132.751 300.939 133.166 299.645 133.166C298.35 133.166 297.315 132.751 296.54 131.921C295.771 131.091 295.386 129.962 295.386 128.534V128.426ZM297.785 128.601C297.785 129.453 297.946 130.106 298.267 130.56C298.588 131.008 299.047 131.232 299.645 131.232C300.226 131.232 300.679 131.011 301.006 130.568C301.332 130.12 301.496 129.406 301.496 128.426C301.496 127.591 301.332 126.943 301.006 126.484C300.679 126.025 300.22 125.795 299.628 125.795C299.041 125.795 298.588 126.025 298.267 126.484C297.946 126.938 297.785 127.643 297.785 128.601ZM307.58 124.019L307.655 125.056C308.297 124.254 309.157 123.853 310.236 123.853C311.188 123.853 311.896 124.132 312.361 124.691C312.826 125.25 313.064 126.085 313.075 127.198V133H310.676V127.256C310.676 126.747 310.566 126.379 310.344 126.152C310.123 125.919 309.755 125.803 309.24 125.803C308.565 125.803 308.059 126.091 307.721 126.667V133H305.322V124.019H307.58Z" fill="#E44D26"/>
<rect x="69" y="221" width="80" height="78" fill="white" stroke="#1E73FF" stroke-width="2"/>
<rect x="157" y="221" width="80" height="78" fill="white" stroke="#1E73FF" stroke-width="2"/>
<rect x="245" y="221" width="80" height="78" fill="white" stroke="#1E73FF" stroke-width="2"/>
<rect x="333" y="221" width="80" height="78" fill="white" stroke="#1E73FF" stroke-width="2"/>
<rect x="421" y="221" width="80" height="78" fill="white" stroke="#1E73FF" stroke-width="2"/>
<rect x="69" y="307" width="80" height="78" fill="white" stroke="#1E73FF" stroke-width="2"/>
<rect x="157" y="307" width="80" height="78" fill="white" stroke="#1E73FF" stroke-width="2"/>
<rect x="245" y="307" width="80" height="78" fill="white" stroke="#1E73FF" stroke-width="2"/>
<rect x="333" y="307" width="80" height="78" fill="white" stroke="#1E73FF" stroke-width="2"/>
<rect x="421" y="307" width="80" height="78" fill="white" stroke="#1E73FF" stroke-width="2"/>
<rect x="69" y="393" width="80" height="78" fill="white" stroke="#1E73FF" stroke-width="2"/>
<rect x="157" y="393" width="80" height="78" fill="white" stroke="#1E73FF" stroke-width="2"/>
<rect x="245" y="393" width="80" height="78" fill="white" stroke="#1E73FF" stroke-width="2"/>
<rect x="333" y="393" width="80" height="78" fill="white" stroke="#1E73FF" stroke-width="2"/>
<rect x="421" y="393" width="80" height="78" fill="white" stroke="#1E73FF" stroke-width="2"/>
<rect x="58" y="54" width="455" height="428" stroke="#1E73FF" stroke-width="2"/>
<path d="M139.657 551.232C140.099 551.232 140.459 551.11 140.736 550.867C141.013 550.623 141.156 550.299 141.167 549.896H143.417C143.411 550.504 143.245 551.063 142.919 551.572C142.592 552.076 142.144 552.469 141.574 552.751C141.01 553.028 140.384 553.166 139.698 553.166C138.414 553.166 137.402 552.759 136.66 551.946C135.919 551.127 135.548 549.998 135.548 548.559V548.401C135.548 547.018 135.916 545.914 136.652 545.089C137.388 544.265 138.398 543.853 139.682 543.853C140.805 543.853 141.704 544.174 142.379 544.815C143.06 545.452 143.406 546.301 143.417 547.364H141.167C141.156 546.899 141.013 546.523 140.736 546.235C140.459 545.942 140.094 545.795 139.64 545.795C139.081 545.795 138.658 546 138.37 546.409C138.088 546.813 137.947 547.472 137.947 548.385V548.634C137.947 549.558 138.088 550.222 138.37 550.626C138.652 551.03 139.081 551.232 139.657 551.232ZM149.991 553C149.881 552.784 149.8 552.516 149.75 552.195C149.169 552.842 148.414 553.166 147.484 553.166C146.604 553.166 145.874 552.911 145.293 552.402C144.717 551.893 144.43 551.251 144.43 550.477C144.43 549.525 144.781 548.794 145.484 548.285C146.192 547.776 147.213 547.519 148.547 547.513H149.651V546.999C149.651 546.583 149.543 546.251 149.327 546.002C149.117 545.753 148.782 545.629 148.323 545.629C147.919 545.629 147.601 545.726 147.368 545.919C147.141 546.113 147.028 546.379 147.028 546.716H144.629C144.629 546.196 144.789 545.715 145.11 545.272C145.431 544.829 145.885 544.483 146.472 544.234C147.058 543.98 147.717 543.853 148.447 543.853C149.554 543.853 150.431 544.132 151.079 544.691C151.732 545.244 152.058 546.025 152.058 547.032V550.925C152.064 551.777 152.183 552.422 152.415 552.859V553H149.991ZM148.007 551.332C148.361 551.332 148.688 551.254 148.987 551.099C149.286 550.939 149.507 550.726 149.651 550.46V548.916H148.754C147.554 548.916 146.914 549.331 146.837 550.161L146.829 550.302C146.829 550.601 146.934 550.847 147.144 551.041C147.354 551.235 147.642 551.332 148.007 551.332ZM161.986 548.592C161.986 549.976 161.67 551.085 161.04 551.921C160.414 552.751 159.568 553.166 158.5 553.166C157.592 553.166 156.859 552.851 156.3 552.22V556.453H153.901V544.019H156.125L156.208 544.898C156.79 544.201 157.548 543.853 158.483 543.853C159.59 543.853 160.45 544.262 161.064 545.081C161.679 545.9 161.986 547.029 161.986 548.468V548.592ZM159.587 548.418C159.587 547.582 159.438 546.938 159.139 546.484C158.845 546.03 158.417 545.803 157.852 545.803C157.099 545.803 156.582 546.091 156.3 546.667V550.344C156.593 550.936 157.116 551.232 157.869 551.232C159.014 551.232 159.587 550.294 159.587 548.418ZM166.352 541.811V544.019H167.888V545.778H166.352V550.261C166.352 550.593 166.416 550.831 166.543 550.975C166.67 551.118 166.914 551.19 167.273 551.19C167.539 551.19 167.774 551.171 167.979 551.132V552.95C167.509 553.094 167.024 553.166 166.526 553.166C164.844 553.166 163.986 552.317 163.953 550.618V545.778H162.642V544.019H163.953V541.811H166.352ZM171.756 553H169.349V544.019H171.756V553ZM169.208 541.694C169.208 541.335 169.326 541.039 169.564 540.806C169.808 540.574 170.137 540.458 170.552 540.458C170.962 540.458 171.288 540.574 171.532 540.806C171.775 541.039 171.897 541.335 171.897 541.694C171.897 542.06 171.772 542.358 171.523 542.591C171.28 542.823 170.956 542.939 170.552 542.939C170.148 542.939 169.822 542.823 169.573 542.591C169.329 542.358 169.208 542.06 169.208 541.694ZM173.366 548.426C173.366 547.535 173.538 546.741 173.881 546.044C174.224 545.347 174.716 544.807 175.358 544.425C176.006 544.043 176.756 543.853 177.608 543.853C178.82 543.853 179.808 544.223 180.571 544.965C181.34 545.706 181.769 546.714 181.858 547.986L181.875 548.601C181.875 549.979 181.49 551.085 180.721 551.921C179.951 552.751 178.919 553.166 177.625 553.166C176.33 553.166 175.295 552.751 174.52 551.921C173.751 551.091 173.366 549.962 173.366 548.534V548.426ZM175.765 548.601C175.765 549.453 175.926 550.106 176.247 550.56C176.568 551.008 177.027 551.232 177.625 551.232C178.206 551.232 178.659 551.011 178.986 550.568C179.312 550.12 179.476 549.406 179.476 548.426C179.476 547.591 179.312 546.943 178.986 546.484C178.659 546.025 178.2 545.795 177.608 545.795C177.021 545.795 176.568 546.025 176.247 546.484C175.926 546.938 175.765 547.643 175.765 548.601ZM185.56 544.019L185.635 545.056C186.277 544.254 187.137 543.853 188.216 543.853C189.168 543.853 189.876 544.132 190.341 544.691C190.806 545.25 191.044 546.085 191.055 547.198V553H188.656V547.256C188.656 546.747 188.546 546.379 188.324 546.152C188.103 545.919 187.735 545.803 187.22 545.803C186.545 545.803 186.039 546.091 185.701 546.667V553H183.302V544.019H185.56ZM199.364 544.019L199.439 545.023C200.075 544.243 200.936 543.853 202.021 543.853C203.177 543.853 203.971 544.309 204.403 545.222C205.034 544.309 205.933 543.853 207.101 543.853C208.075 543.853 208.799 544.138 209.275 544.708C209.751 545.272 209.989 546.124 209.989 547.264V553H207.582V547.272C207.582 546.763 207.482 546.393 207.283 546.16C207.084 545.922 206.733 545.803 206.229 545.803C205.51 545.803 205.012 546.146 204.735 546.833L204.743 553H202.344V547.281C202.344 546.761 202.242 546.384 202.037 546.152C201.832 545.919 201.484 545.803 200.991 545.803C200.311 545.803 199.818 546.085 199.514 546.65V553H197.115V544.019H199.364ZM217.045 553C216.934 552.784 216.854 552.516 216.804 552.195C216.223 552.842 215.468 553.166 214.538 553.166C213.658 553.166 212.928 552.911 212.347 552.402C211.771 551.893 211.483 551.251 211.483 550.477C211.483 549.525 211.835 548.794 212.538 548.285C213.246 547.776 214.267 547.519 215.601 547.513H216.705V546.999C216.705 546.583 216.597 546.251 216.381 546.002C216.171 545.753 215.836 545.629 215.376 545.629C214.972 545.629 214.654 545.726 214.422 545.919C214.195 546.113 214.082 546.379 214.082 546.716H211.683C211.683 546.196 211.843 545.715 212.164 545.272C212.485 544.829 212.939 544.483 213.525 544.234C214.112 543.98 214.771 543.853 215.501 543.853C216.608 543.853 217.485 544.132 218.132 544.691C218.785 545.244 219.112 546.025 219.112 547.032V550.925C219.117 551.777 219.236 552.422 219.469 552.859V553H217.045ZM215.061 551.332C215.415 551.332 215.742 551.254 216.041 551.099C216.339 550.939 216.561 550.726 216.705 550.46V548.916H215.808C214.607 548.916 213.968 549.331 213.891 550.161L213.882 550.302C213.882 550.601 213.987 550.847 214.198 551.041C214.408 551.235 214.696 551.332 215.061 551.332ZM226.001 546.268C225.675 546.224 225.387 546.202 225.138 546.202C224.231 546.202 223.636 546.509 223.354 547.123V553H220.955V544.019H223.221L223.287 545.089C223.769 544.265 224.435 543.853 225.288 543.853C225.553 543.853 225.802 543.889 226.035 543.96L226.001 546.268ZM226.649 548.443C226.649 547.065 226.975 545.955 227.628 545.114C228.287 544.273 229.172 543.853 230.285 543.853C231.27 543.853 232.036 544.19 232.584 544.865L232.684 544.019H234.858V552.701C234.858 553.487 234.679 554.17 234.319 554.751C233.965 555.333 233.464 555.775 232.816 556.08C232.169 556.384 231.411 556.536 230.542 556.536C229.883 556.536 229.242 556.403 228.616 556.138C227.991 555.878 227.518 555.54 227.197 555.125L228.259 553.664C228.857 554.334 229.582 554.668 230.434 554.668C231.07 554.668 231.566 554.497 231.92 554.154C232.274 553.816 232.451 553.335 232.451 552.709V552.228C231.898 552.853 231.17 553.166 230.268 553.166C229.189 553.166 228.315 552.745 227.645 551.904C226.981 551.058 226.649 549.937 226.649 548.542V548.443ZM229.048 548.617C229.048 549.431 229.211 550.07 229.538 550.535C229.864 550.994 230.312 551.224 230.882 551.224C231.613 551.224 232.136 550.95 232.451 550.402V546.625C232.13 546.077 231.613 545.803 230.899 545.803C230.323 545.803 229.87 546.038 229.538 546.509C229.211 546.979 229.048 547.682 229.048 548.617ZM239.241 553H236.834V544.019H239.241V553ZM236.693 541.694C236.693 541.335 236.812 541.039 237.05 540.806C237.293 540.574 237.623 540.458 238.038 540.458C238.447 540.458 238.774 540.574 239.017 540.806C239.261 541.039 239.382 541.335 239.382 541.694C239.382 542.06 239.258 542.358 239.009 542.591C238.765 542.823 238.442 542.939 238.038 542.939C237.634 542.939 237.307 542.823 237.058 542.591C236.815 542.358 236.693 542.06 236.693 541.694ZM243.433 544.019L243.508 545.056C244.15 544.254 245.01 543.853 246.089 543.853C247.041 543.853 247.75 544.132 248.214 544.691C248.679 545.25 248.917 546.085 248.928 547.198V553H246.529V547.256C246.529 546.747 246.419 546.379 246.197 546.152C245.976 545.919 245.608 545.803 245.093 545.803C244.418 545.803 243.912 546.091 243.574 546.667V553H241.175V544.019H243.433ZM255.619 550.518C255.619 550.225 255.472 549.995 255.179 549.829C254.891 549.658 254.426 549.505 253.784 549.373C251.648 548.924 250.58 548.017 250.58 546.65C250.58 545.853 250.909 545.189 251.568 544.658C252.232 544.121 253.098 543.853 254.166 543.853C255.306 543.853 256.216 544.121 256.897 544.658C257.583 545.194 257.926 545.892 257.926 546.75H255.527C255.527 546.406 255.417 546.124 255.195 545.903C254.974 545.676 254.628 545.562 254.158 545.562C253.754 545.562 253.441 545.654 253.22 545.836C252.998 546.019 252.888 546.251 252.888 546.534C252.888 546.799 253.012 547.015 253.261 547.181C253.516 547.342 253.942 547.483 254.54 547.604C255.137 547.721 255.641 547.854 256.05 548.003C257.318 548.468 257.951 549.273 257.951 550.418C257.951 551.237 257.6 551.902 256.897 552.411C256.194 552.914 255.287 553.166 254.174 553.166C253.422 553.166 252.752 553.033 252.166 552.768C251.584 552.496 251.128 552.128 250.796 551.664C250.464 551.193 250.298 550.687 250.298 550.145H252.572C252.594 550.571 252.752 550.897 253.045 551.124C253.339 551.351 253.732 551.464 254.224 551.464C254.683 551.464 255.029 551.379 255.262 551.207C255.5 551.03 255.619 550.8 255.619 550.518Z" fill="#E44D26"/>
<path d="M98.2929 546.293C97.9024 546.683 97.9024 547.317 98.2929 547.707L104.657 554.071C105.047 554.462 105.681 554.462 106.071 554.071C106.462 553.681 106.462 553.047 106.071 552.657L100.414 547L106.071 541.343C106.462 540.953 106.462 540.319 106.071 539.929C105.681 539.538 105.047 539.538 104.657 539.929L98.2929 546.293ZM99 548H126V546H99V548Z" fill="#E44D26"/>
<path d="M364.793 541.811V544.019H366.329V545.778H364.793V550.261C364.793 550.593 364.857 550.831 364.984 550.975C365.112 551.118 365.355 551.19 365.715 551.19C365.98 551.19 366.216 551.171 366.42 551.132V552.95C365.95 553.094 365.466 553.166 364.968 553.166C363.285 553.166 362.428 552.317 362.395 550.618V545.778H361.083V544.019H362.395V541.811H364.793ZM372.87 553C372.759 552.784 372.679 552.516 372.629 552.195C372.048 552.842 371.293 553.166 370.363 553.166C369.483 553.166 368.753 552.911 368.172 552.402C367.596 551.893 367.309 551.251 367.309 550.477C367.309 549.525 367.66 548.794 368.363 548.285C369.071 547.776 370.092 547.519 371.426 547.513H372.53V546.999C372.53 546.583 372.422 546.251 372.206 546.002C371.996 545.753 371.661 545.629 371.202 545.629C370.798 545.629 370.479 545.726 370.247 545.919C370.02 546.113 369.907 546.379 369.907 546.716H367.508C367.508 546.196 367.668 545.715 367.989 545.272C368.31 544.829 368.764 544.483 369.351 544.234C369.937 543.98 370.596 543.853 371.326 543.853C372.433 543.853 373.31 544.132 373.958 544.691C374.611 545.244 374.937 546.025 374.937 547.032V550.925C374.943 551.777 375.062 552.422 375.294 552.859V553H372.87ZM370.886 551.332C371.24 551.332 371.567 551.254 371.866 551.099C372.165 550.939 372.386 550.726 372.53 550.46V548.916H371.633C370.432 548.916 369.793 549.331 369.716 550.161L369.708 550.302C369.708 550.601 369.813 550.847 370.023 551.041C370.233 551.235 370.521 551.332 370.886 551.332ZM384.873 548.592C384.873 550.031 384.566 551.154 383.952 551.962C383.337 552.765 382.48 553.166 381.378 553.166C380.404 553.166 379.627 552.792 379.046 552.045L378.938 553H376.78V540.25H379.179V544.824C379.732 544.176 380.46 543.853 381.362 543.853C382.458 543.853 383.315 544.257 383.935 545.064C384.56 545.867 384.873 546.999 384.873 548.459V548.592ZM382.474 548.418C382.474 547.51 382.33 546.849 382.042 546.434C381.755 546.014 381.326 545.803 380.756 545.803C379.992 545.803 379.466 546.116 379.179 546.741V550.286C379.472 550.917 380.003 551.232 380.772 551.232C381.547 551.232 382.056 550.85 382.3 550.086C382.416 549.721 382.474 549.165 382.474 548.418ZM388.891 553H386.483V540.25H388.891V553ZM395.008 553.166C393.691 553.166 392.618 552.762 391.788 551.954C390.963 551.146 390.551 550.07 390.551 548.725V548.493C390.551 547.591 390.725 546.785 391.074 546.077C391.422 545.363 391.915 544.815 392.551 544.434C393.193 544.046 393.924 543.853 394.743 543.853C395.971 543.853 396.937 544.24 397.64 545.015C398.348 545.789 398.702 546.888 398.702 548.31V549.29H392.983C393.06 549.876 393.293 550.347 393.68 550.701C394.073 551.055 394.568 551.232 395.166 551.232C396.09 551.232 396.812 550.897 397.333 550.228L398.511 551.547C398.152 552.056 397.665 552.455 397.05 552.743C396.436 553.025 395.755 553.166 395.008 553.166ZM394.734 545.795C394.258 545.795 393.871 545.955 393.572 546.276C393.279 546.597 393.091 547.057 393.008 547.654H396.345V547.463C396.334 546.932 396.19 546.523 395.913 546.235C395.636 545.942 395.243 545.795 394.734 545.795ZM406.555 544.019L406.629 545.023C407.266 544.243 408.126 543.853 409.211 543.853C410.368 543.853 411.162 544.309 411.593 545.222C412.224 544.309 413.123 543.853 414.291 543.853C415.265 543.853 415.99 544.138 416.466 544.708C416.942 545.272 417.18 546.124 417.18 547.264V553H414.772V547.272C414.772 546.763 414.673 546.393 414.474 546.16C414.274 545.922 413.923 545.803 413.419 545.803C412.7 545.803 412.202 546.146 411.925 546.833L411.934 553H409.535V547.281C409.535 546.761 409.432 546.384 409.228 546.152C409.023 545.919 408.674 545.803 408.182 545.803C407.501 545.803 407.008 546.085 406.704 546.65V553H404.305V544.019H406.555ZM424.235 553C424.125 552.784 424.044 552.516 423.995 552.195C423.414 552.842 422.658 553.166 421.729 553.166C420.849 553.166 420.118 552.911 419.537 552.402C418.962 551.893 418.674 551.251 418.674 550.477C418.674 549.525 419.025 548.794 419.728 548.285C420.436 547.776 421.457 547.519 422.791 547.513H423.895V546.999C423.895 546.583 423.787 546.251 423.571 546.002C423.361 545.753 423.026 545.629 422.567 545.629C422.163 545.629 421.845 545.726 421.612 545.919C421.385 546.113 421.272 546.379 421.272 546.716H418.873C418.873 546.196 419.034 545.715 419.354 545.272C419.675 544.829 420.129 544.483 420.716 544.234C421.302 543.98 421.961 543.853 422.691 543.853C423.798 543.853 424.675 544.132 425.323 544.691C425.976 545.244 426.302 546.025 426.302 547.032V550.925C426.308 551.777 426.427 552.422 426.659 552.859V553H424.235ZM422.251 551.332C422.606 551.332 422.932 551.254 423.231 551.099C423.53 550.939 423.751 550.726 423.895 550.46V548.916H422.999C421.798 548.916 421.159 549.331 421.081 550.161L421.073 550.302C421.073 550.601 421.178 550.847 421.388 551.041C421.598 551.235 421.886 551.332 422.251 551.332ZM433.192 546.268C432.865 546.224 432.578 546.202 432.329 546.202C431.421 546.202 430.826 546.509 430.544 547.123V553H428.145V544.019H430.411L430.478 545.089C430.959 544.265 431.626 543.853 432.478 543.853C432.744 543.853 432.993 543.889 433.225 543.96L433.192 546.268ZM433.839 548.443C433.839 547.065 434.166 545.955 434.819 545.114C435.477 544.273 436.363 543.853 437.475 543.853C438.46 543.853 439.227 544.19 439.774 544.865L439.874 544.019H442.049V552.701C442.049 553.487 441.869 554.17 441.509 554.751C441.155 555.333 440.654 555.775 440.007 556.08C439.359 556.384 438.601 556.536 437.732 556.536C437.074 556.536 436.432 556.403 435.807 556.138C435.181 555.878 434.708 555.54 434.387 555.125L435.45 553.664C436.047 554.334 436.772 554.668 437.625 554.668C438.261 554.668 438.756 554.497 439.11 554.154C439.465 553.816 439.642 553.335 439.642 552.709V552.228C439.088 552.853 438.361 553.166 437.458 553.166C436.379 553.166 435.505 552.745 434.835 551.904C434.171 551.058 433.839 549.937 433.839 548.542V548.443ZM436.238 548.617C436.238 549.431 436.402 550.07 436.728 550.535C437.055 550.994 437.503 551.224 438.073 551.224C438.803 551.224 439.326 550.95 439.642 550.402V546.625C439.321 546.077 438.803 545.803 438.089 545.803C437.514 545.803 437.06 546.038 436.728 546.509C436.402 546.979 436.238 547.682 436.238 548.617ZM446.432 553H444.024V544.019H446.432V553ZM443.883 541.694C443.883 541.335 444.002 541.039 444.24 540.806C444.484 540.574 444.813 540.458 445.228 540.458C445.638 540.458 445.964 540.574 446.208 540.806C446.451 541.039 446.573 541.335 446.573 541.694C446.573 542.06 446.448 542.358 446.199 542.591C445.956 542.823 445.632 542.939 445.228 542.939C444.824 542.939 444.498 542.823 444.249 542.591C444.005 542.358 443.883 542.06 443.883 541.694ZM450.624 544.019L450.698 545.056C451.34 544.254 452.201 543.853 453.28 543.853C454.232 543.853 454.94 544.132 455.405 544.691C455.87 545.25 456.108 546.085 456.119 547.198V553H453.72V547.256C453.72 546.747 453.609 546.379 453.388 546.152C453.166 545.919 452.798 545.803 452.284 545.803C451.609 545.803 451.102 546.091 450.765 546.667V553H448.366V544.019H450.624ZM462.809 550.518C462.809 550.225 462.662 549.995 462.369 549.829C462.081 549.658 461.617 549.505 460.975 549.373C458.839 548.924 457.771 548.017 457.771 546.65C457.771 545.853 458.1 545.189 458.758 544.658C459.422 544.121 460.288 543.853 461.356 543.853C462.496 543.853 463.407 544.121 464.087 544.658C464.774 545.194 465.117 545.892 465.117 546.75H462.718C462.718 546.406 462.607 546.124 462.386 545.903C462.164 545.676 461.819 545.562 461.348 545.562C460.944 545.562 460.632 545.654 460.41 545.836C460.189 546.019 460.078 546.251 460.078 546.534C460.078 546.799 460.203 547.015 460.452 547.181C460.706 547.342 461.132 547.483 461.73 547.604C462.328 547.721 462.831 547.854 463.241 548.003C464.508 548.468 465.142 549.273 465.142 550.418C465.142 551.237 464.79 551.902 464.087 552.411C463.385 552.914 462.477 553.166 461.365 553.166C460.612 553.166 459.943 553.033 459.356 552.768C458.775 552.496 458.318 552.128 457.986 551.664C457.654 551.193 457.488 550.687 457.488 550.145H459.763C459.785 550.571 459.943 550.897 460.236 551.124C460.529 551.351 460.922 551.464 461.415 551.464C461.874 551.464 462.22 551.379 462.452 551.207C462.69 551.03 462.809 550.8 462.809 550.518Z" fill="#1E73FF"/>
<path d="M324.293 546.293C323.902 546.683 323.902 547.317 324.293 547.707L330.657 554.071C331.047 554.462 331.681 554.462 332.071 554.071C332.462 553.681 332.462 553.047 332.071 552.657L326.414 547L332.071 541.343C332.462 540.953 332.462 540.319 332.071 539.929C331.681 539.538 331.047 539.538 330.657 539.929L324.293 546.293ZM325 548H352V546H325V548Z" fill="#1E73FF"/>
</svg>
