<svg width="625" height="466" viewBox="0 0 625 466" fill="none" xmlns="http://www.w3.org/2000/svg">
<path d="M151 63.5H487C524.279 63.5 554.5 93.7208 554.5 131V300C554.5 326.234 533.234 347.5 507 347.5H91C75.8122 347.5 63.5 335.188 63.5 320V151C63.5 102.675 102.675 63.5 151 63.5Z" fill="white" stroke="#1E73FF" stroke-width="25"/>
<circle opacity="0.6" cx="151" cy="151" r="87.5" stroke="#FFF000" stroke-width="25"/>
<circle opacity="0.6" cx="487" cy="131" r="67.5" stroke="#FFF000" stroke-width="25"/>
<circle opacity="0.6" cx="507" cy="300" r="47.5" stroke="#FFF000" stroke-width="25"/>
<circle opacity="0.6" cx="91" cy="320" r="27.5" stroke="#FFF000" stroke-width="25"/>
<path d="M251 151H51" stroke="#E44D26" stroke-width="2"/>
<path d="M567 131H407" stroke="#E44D26" stroke-width="2"/>
<path d="M567 300H447" stroke="#E44D26" stroke-width="2"/>
<path d="M131 320H51" stroke="#E44D26" stroke-width="2"/>
<path d="M151 251L151 51" stroke="#E44D26" stroke-width="2"/>
<path d="M52 121L52 51" stroke="#E44D26" stroke-width="2"/>
<path d="M566 105L566 51" stroke="#E44D26" stroke-width="2"/>
<path d="M566 360L566 322" stroke="#E44D26" stroke-width="2"/>
<path d="M52 360L52 337" stroke="#E44D26" stroke-width="2"/>
<path d="M487 211L487 51" stroke="#E44D26" stroke-width="2"/>
<path d="M507 360L507 240" stroke="#E44D26" stroke-width="2"/>
<path d="M91 360L91 280" stroke="#E44D26" stroke-width="2"/>
<path d="M23.2812 21.3506C23.2812 22.8037 22.9473 23.9727 22.2793 24.8574C21.6113 25.7363 20.7148 26.1758 19.5898 26.1758C18.3887 26.1758 17.46 25.751 16.8037 24.9014L16.7246 26H15.2305V12.5H16.8564V17.5361C17.5127 16.7217 18.418 16.3145 19.5723 16.3145C20.7266 16.3145 21.6318 16.751 22.2881 17.624C22.9502 18.4971 23.2812 19.6924 23.2812 21.21V21.3506ZM21.6553 21.166C21.6553 20.0586 21.4414 19.2031 21.0137 18.5996C20.5859 17.9961 19.9707 17.6943 19.168 17.6943C18.0957 17.6943 17.3252 18.1924 16.8564 19.1885V23.3018C17.3545 24.2979 18.1309 24.7959 19.1855 24.7959C19.9648 24.7959 20.5713 24.4941 21.0049 23.8906C21.4385 23.2871 21.6553 22.3789 21.6553 21.166ZM24.9072 21.1572C24.9072 20.2256 25.0889 19.3877 25.4521 18.6436C25.8213 17.8994 26.3311 17.3252 26.9814 16.9209C27.6377 16.5166 28.3848 16.3145 29.2227 16.3145C30.5176 16.3145 31.5635 16.7627 32.3604 17.6592C33.1631 18.5557 33.5645 19.748 33.5645 21.2363V21.3506C33.5645 22.2764 33.3857 23.1084 33.0283 23.8467C32.6768 24.5791 32.1699 25.1504 31.5078 25.5605C30.8516 25.9707 30.0957 26.1758 29.2402 26.1758C27.9512 26.1758 26.9053 25.7275 26.1025 24.8311C25.3057 23.9346 24.9072 22.748 24.9072 21.2715V21.1572ZM26.542 21.3506C26.542 22.4053 26.7852 23.252 27.2715 23.8906C27.7637 24.5293 28.4199 24.8486 29.2402 24.8486C30.0664 24.8486 30.7227 24.5264 31.209 23.8818C31.6953 23.2314 31.9385 22.3232 31.9385 21.1572C31.9385 20.1143 31.6895 19.2705 31.1914 18.626C30.6992 17.9756 30.043 17.6504 29.2227 17.6504C28.4199 17.6504 27.7725 17.9697 27.2803 18.6084C26.7881 19.2471 26.542 20.1611 26.542 21.3506ZM40.2002 17.9492C39.9541 17.9082 39.6875 17.8877 39.4004 17.8877C38.334 17.8877 37.6104 18.3418 37.2295 19.25V26H35.6035V16.4902H37.1855L37.2119 17.5889C37.7451 16.7393 38.501 16.3145 39.4795 16.3145C39.7959 16.3145 40.0361 16.3555 40.2002 16.4375V17.9492ZM41.1318 21.166C41.1318 19.707 41.4775 18.5352 42.1689 17.6504C42.8604 16.7598 43.7656 16.3145 44.8848 16.3145C45.998 16.3145 46.8799 16.6953 47.5303 17.457V12.5H49.1562V26H47.6621L47.583 24.9805C46.9326 25.7773 46.0273 26.1758 44.8672 26.1758C43.7656 26.1758 42.8662 25.7246 42.1689 24.8223C41.4775 23.9199 41.1318 22.7422 41.1318 21.2891V21.166ZM42.7578 21.3506C42.7578 22.4287 42.9805 23.2725 43.4258 23.8818C43.8711 24.4912 44.4863 24.7959 45.2715 24.7959C46.3027 24.7959 47.0557 24.333 47.5303 23.4072V19.0391C47.0439 18.1426 46.2969 17.6943 45.2891 17.6943C44.4922 17.6943 43.8711 18.002 43.4258 18.6172C42.9805 19.2324 42.7578 20.1436 42.7578 21.3506ZM55.6338 26.1758C54.3447 26.1758 53.2959 25.7539 52.4873 24.9102C51.6787 24.0605 51.2744 22.9268 51.2744 21.5088V21.21C51.2744 20.2666 51.4531 19.4258 51.8105 18.6875C52.1738 17.9434 52.6777 17.3633 53.3223 16.9473C53.9727 16.5254 54.6758 16.3145 55.4316 16.3145C56.668 16.3145 57.6289 16.7217 58.3145 17.5361C59 18.3506 59.3428 19.5166 59.3428 21.0342V21.7109H52.9004C52.9238 22.6484 53.1963 23.4072 53.7178 23.9873C54.2451 24.5615 54.9131 24.8486 55.7217 24.8486C56.2959 24.8486 56.7822 24.7314 57.1807 24.4971C57.5791 24.2627 57.9277 23.9521 58.2266 23.5654L59.2197 24.3389C58.4229 25.5635 57.2275 26.1758 55.6338 26.1758ZM55.4316 17.6504C54.7754 17.6504 54.2246 17.8906 53.7793 18.3711C53.334 18.8457 53.0586 19.5137 52.9531 20.375H57.7168V20.252C57.6699 19.4258 57.4473 18.7871 57.0488 18.3359C56.6504 17.8789 56.1113 17.6504 55.4316 17.6504ZM65.8291 17.9492C65.583 17.9082 65.3164 17.8877 65.0293 17.8877C63.9629 17.8877 63.2393 18.3418 62.8584 19.25V26H61.2324V16.4902H62.8145L62.8408 17.5889C63.374 16.7393 64.1299 16.3145 65.1084 16.3145C65.4248 16.3145 65.665 16.3555 65.8291 16.4375V17.9492ZM70.7158 21.2275H66.4268V19.9004H70.7158V21.2275ZM74.5127 14.1875V16.4902H76.2881V17.7471H74.5127V23.6445C74.5127 24.0254 74.5918 24.3125 74.75 24.5059C74.9082 24.6934 75.1777 24.7871 75.5586 24.7871C75.7461 24.7871 76.0039 24.752 76.332 24.6816V26C75.9043 26.1172 75.4883 26.1758 75.084 26.1758C74.3574 26.1758 73.8096 25.9561 73.4404 25.5166C73.0713 25.0771 72.8867 24.4531 72.8867 23.6445V17.7471H71.1553V16.4902H72.8867V14.1875H74.5127ZM77.5889 21.1572C77.5889 20.2256 77.7705 19.3877 78.1338 18.6436C78.5029 17.8994 79.0127 17.3252 79.6631 16.9209C80.3193 16.5166 81.0664 16.3145 81.9043 16.3145C83.1992 16.3145 84.2451 16.7627 85.042 17.6592C85.8447 18.5557 86.2461 19.748 86.2461 21.2363V21.3506C86.2461 22.2764 86.0674 23.1084 85.71 23.8467C85.3584 24.5791 84.8516 25.1504 84.1895 25.5605C83.5332 25.9707 82.7773 26.1758 81.9219 26.1758C80.6328 26.1758 79.5869 25.7275 78.7842 24.8311C77.9873 23.9346 77.5889 22.748 77.5889 21.2715V21.1572ZM79.2236 21.3506C79.2236 22.4053 79.4668 23.252 79.9531 23.8906C80.4453 24.5293 81.1016 24.8486 81.9219 24.8486C82.748 24.8486 83.4043 24.5264 83.8906 23.8818C84.377 23.2314 84.6201 22.3232 84.6201 21.1572C84.6201 20.1143 84.3711 19.2705 83.873 18.626C83.3809 17.9756 82.7246 17.6504 81.9043 17.6504C81.1016 17.6504 80.4541 17.9697 79.9619 18.6084C79.4697 19.2471 79.2236 20.1611 79.2236 21.3506ZM96.3184 21.3506C96.3184 22.7979 95.9873 23.9639 95.3252 24.8486C94.6631 25.7334 93.7666 26.1758 92.6357 26.1758C91.4814 26.1758 90.5732 25.8096 89.9111 25.0771V29.6562H88.2852V16.4902H89.7705L89.8496 17.5449C90.5117 16.7246 91.4316 16.3145 92.6094 16.3145C93.752 16.3145 94.6543 16.7451 95.3164 17.6064C95.9844 18.4678 96.3184 19.666 96.3184 21.2012V21.3506ZM94.6924 21.166C94.6924 20.0938 94.4639 19.2471 94.0068 18.626C93.5498 18.0049 92.9229 17.6943 92.126 17.6943C91.1416 17.6943 90.4033 18.1309 89.9111 19.0039V23.5479C90.3975 24.415 91.1416 24.8486 92.1436 24.8486C92.9229 24.8486 93.541 24.541 93.998 23.9258C94.4609 23.3047 94.6924 22.3848 94.6924 21.166ZM101.776 21.2275H97.4873V19.9004H101.776V21.2275ZM105.134 26H103.508V12.5H105.134V26ZM111.69 26.1758C110.401 26.1758 109.353 25.7539 108.544 24.9102C107.735 24.0605 107.331 22.9268 107.331 21.5088V21.21C107.331 20.2666 107.51 19.4258 107.867 18.6875C108.23 17.9434 108.734 17.3633 109.379 16.9473C110.029 16.5254 110.732 16.3145 111.488 16.3145C112.725 16.3145 113.686 16.7217 114.371 17.5361C115.057 18.3506 115.399 19.5166 115.399 21.0342V21.7109H108.957C108.98 22.6484 109.253 23.4072 109.774 23.9873C110.302 24.5615 110.97 24.8486 111.778 24.8486C112.353 24.8486 112.839 24.7314 113.237 24.4971C113.636 24.2627 113.984 23.9521 114.283 23.5654L115.276 24.3389C114.479 25.5635 113.284 26.1758 111.69 26.1758ZM111.488 17.6504C110.832 17.6504 110.281 17.8906 109.836 18.3711C109.391 18.8457 109.115 19.5137 109.01 20.375H113.773V20.252C113.727 19.4258 113.504 18.7871 113.105 18.3359C112.707 17.8789 112.168 17.6504 111.488 17.6504ZM118.089 26V17.7471H116.586V16.4902H118.089V15.5146C118.089 14.4951 118.361 13.707 118.906 13.1504C119.451 12.5938 120.222 12.3154 121.218 12.3154C121.593 12.3154 121.965 12.3652 122.334 12.4648L122.246 13.7832C121.971 13.7305 121.678 13.7041 121.367 13.7041C120.84 13.7041 120.433 13.8594 120.146 14.1699C119.858 14.4746 119.715 14.9141 119.715 15.4883V16.4902H121.745V17.7471H119.715V26H118.089ZM125.753 14.1875V16.4902H127.528V17.7471H125.753V23.6445C125.753 24.0254 125.832 24.3125 125.99 24.5059C126.148 24.6934 126.418 24.7871 126.799 24.7871C126.986 24.7871 127.244 24.752 127.572 24.6816V26C127.145 26.1172 126.729 26.1758 126.324 26.1758C125.598 26.1758 125.05 25.9561 124.681 25.5166C124.312 25.0771 124.127 24.4531 124.127 23.6445V17.7471H122.396V16.4902H124.127V14.1875H125.753ZM132.819 21.2275H128.53V19.9004H132.819V21.2275ZM139.007 17.9492C138.761 17.9082 138.494 17.8877 138.207 17.8877C137.141 17.8877 136.417 18.3418 136.036 19.25V26H134.41V16.4902H135.992L136.019 17.5889C136.552 16.7393 137.308 16.3145 138.286 16.3145C138.603 16.3145 138.843 16.3555 139.007 16.4375V17.9492ZM146.029 26C145.936 25.8125 145.859 25.4785 145.801 24.998C145.045 25.7832 144.143 26.1758 143.094 26.1758C142.156 26.1758 141.386 25.9121 140.782 25.3848C140.185 24.8516 139.886 24.1777 139.886 23.3633C139.886 22.373 140.261 21.6055 141.011 21.0605C141.767 20.5098 142.827 20.2344 144.192 20.2344H145.774V19.4873C145.774 18.9189 145.604 18.4678 145.265 18.1338C144.925 17.7939 144.424 17.624 143.762 17.624C143.182 17.624 142.695 17.7705 142.303 18.0635C141.91 18.3564 141.714 18.7109 141.714 19.127H140.079C140.079 18.6523 140.246 18.1953 140.58 17.7559C140.92 17.3105 141.377 16.959 141.951 16.7012C142.531 16.4434 143.167 16.3145 143.858 16.3145C144.954 16.3145 145.812 16.5898 146.434 17.1406C147.055 17.6855 147.377 18.4385 147.4 19.3994V23.7764C147.4 24.6494 147.512 25.3438 147.734 25.8594V26H146.029ZM143.331 24.7607C143.841 24.7607 144.324 24.6289 144.781 24.3652C145.238 24.1016 145.569 23.7588 145.774 23.3369V21.3857H144.5C142.508 21.3857 141.512 21.9688 141.512 23.1348C141.512 23.6445 141.682 24.043 142.021 24.3301C142.361 24.6172 142.798 24.7607 143.331 24.7607ZM149.554 21.166C149.554 19.707 149.899 18.5352 150.591 17.6504C151.282 16.7598 152.188 16.3145 153.307 16.3145C154.42 16.3145 155.302 16.6953 155.952 17.457V12.5H157.578V26H156.084L156.005 24.9805C155.354 25.7773 154.449 26.1758 153.289 26.1758C152.188 26.1758 151.288 25.7246 150.591 24.8223C149.899 23.9199 149.554 22.7422 149.554 21.2891V21.166ZM151.18 21.3506C151.18 22.4287 151.402 23.2725 151.848 23.8818C152.293 24.4912 152.908 24.7959 153.693 24.7959C154.725 24.7959 155.478 24.333 155.952 23.4072V19.0391C155.466 18.1426 154.719 17.6943 153.711 17.6943C152.914 17.6943 152.293 18.002 151.848 18.6172C151.402 19.2324 151.18 20.1436 151.18 21.3506ZM161.876 26H160.25V16.4902H161.876V26ZM160.118 13.9678C160.118 13.7041 160.197 13.4814 160.355 13.2998C160.52 13.1182 160.76 13.0273 161.076 13.0273C161.393 13.0273 161.633 13.1182 161.797 13.2998C161.961 13.4814 162.043 13.7041 162.043 13.9678C162.043 14.2314 161.961 14.4512 161.797 14.627C161.633 14.8027 161.393 14.8906 161.076 14.8906C160.76 14.8906 160.52 14.8027 160.355 14.627C160.197 14.4512 160.118 14.2314 160.118 13.9678ZM170.357 25.0596C169.725 25.8037 168.796 26.1758 167.571 26.1758C166.558 26.1758 165.784 25.8828 165.251 25.2969C164.724 24.7051 164.457 23.832 164.451 22.6777V16.4902H166.077V22.6338C166.077 24.0752 166.663 24.7959 167.835 24.7959C169.077 24.7959 169.903 24.333 170.313 23.4072V16.4902H171.939V26H170.393L170.357 25.0596ZM179.955 23.4775C179.955 23.0381 179.788 22.6982 179.454 22.458C179.126 22.2119 178.549 22.001 177.723 21.8252C176.902 21.6494 176.249 21.4385 175.763 21.1924C175.282 20.9463 174.925 20.6533 174.69 20.3135C174.462 19.9736 174.348 19.5693 174.348 19.1006C174.348 18.3213 174.676 17.6621 175.332 17.123C175.994 16.584 176.838 16.3145 177.863 16.3145C178.941 16.3145 179.814 16.5928 180.482 17.1494C181.156 17.7061 181.493 18.418 181.493 19.2852H179.858C179.858 18.8398 179.668 18.4561 179.287 18.1338C178.912 17.8115 178.438 17.6504 177.863 17.6504C177.271 17.6504 176.809 17.7793 176.475 18.0371C176.141 18.2949 175.974 18.6318 175.974 19.0479C175.974 19.4404 176.129 19.7363 176.439 19.9355C176.75 20.1348 177.31 20.3252 178.118 20.5068C178.933 20.6885 179.592 20.9053 180.096 21.1572C180.6 21.4092 180.972 21.7139 181.212 22.0713C181.458 22.4229 181.581 22.8535 181.581 23.3633C181.581 24.2129 181.241 24.8955 180.562 25.4111C179.882 25.9209 179 26.1758 177.916 26.1758C177.154 26.1758 176.48 26.041 175.895 25.7715C175.309 25.502 174.849 25.127 174.515 24.6465C174.187 24.1602 174.022 23.6357 174.022 23.0732H175.648C175.678 23.6182 175.895 24.0518 176.299 24.374C176.709 24.6904 177.248 24.8486 177.916 24.8486C178.531 24.8486 179.023 24.7256 179.393 24.4795C179.768 24.2275 179.955 23.8936 179.955 23.4775ZM183.646 25.1475C183.646 24.8662 183.729 24.6318 183.893 24.4443C184.062 24.2568 184.314 24.1631 184.648 24.1631C184.982 24.1631 185.234 24.2568 185.404 24.4443C185.58 24.6318 185.668 24.8662 185.668 25.1475C185.668 25.417 185.58 25.6426 185.404 25.8242C185.234 26.0059 184.982 26.0967 184.648 26.0967C184.314 26.0967 184.062 26.0059 183.893 25.8242C183.729 25.6426 183.646 25.417 183.646 25.1475ZM183.655 17.3867C183.655 17.1055 183.737 16.8711 183.901 16.6836C184.071 16.4961 184.323 16.4023 184.657 16.4023C184.991 16.4023 185.243 16.4961 185.413 16.6836C185.589 16.8711 185.677 17.1055 185.677 17.3867C185.677 17.6562 185.589 17.8818 185.413 18.0635C185.243 18.2451 184.991 18.3359 184.657 18.3359C184.323 18.3359 184.071 18.2451 183.901 18.0635C183.737 17.8818 183.655 17.6562 183.655 17.3867ZM197.7 26H196.065V15.1631L192.787 16.3672V14.8906L197.445 13.1416H197.7V26ZM210.488 20.542C210.488 22.4463 210.163 23.8613 209.513 24.7871C208.862 25.7129 207.846 26.1758 206.463 26.1758C205.098 26.1758 204.087 25.7246 203.431 24.8223C202.774 23.9141 202.435 22.5605 202.411 20.7617V18.5908C202.411 16.71 202.736 15.3125 203.387 14.3984C204.037 13.4844 205.057 13.0273 206.445 13.0273C207.822 13.0273 208.836 13.4697 209.486 14.3545C210.137 15.2334 210.471 16.5928 210.488 18.4326V20.542ZM208.862 18.3184C208.862 16.9414 208.669 15.9395 208.282 15.3125C207.896 14.6797 207.283 14.3633 206.445 14.3633C205.613 14.3633 205.007 14.6768 204.626 15.3037C204.245 15.9307 204.049 16.8945 204.037 18.1953V20.7969C204.037 22.1797 204.236 23.2021 204.635 23.8643C205.039 24.5205 205.648 24.8486 206.463 24.8486C207.266 24.8486 207.86 24.5381 208.247 23.917C208.64 23.2959 208.845 22.3174 208.862 20.9814V18.3184ZM220.596 20.542C220.596 22.4463 220.271 23.8613 219.62 24.7871C218.97 25.7129 217.953 26.1758 216.57 26.1758C215.205 26.1758 214.194 25.7246 213.538 24.8223C212.882 23.9141 212.542 22.5605 212.519 20.7617V18.5908C212.519 16.71 212.844 15.3125 213.494 14.3984C214.145 13.4844 215.164 13.0273 216.553 13.0273C217.93 13.0273 218.943 13.4697 219.594 14.3545C220.244 15.2334 220.578 16.5928 220.596 18.4326V20.542ZM218.97 18.3184C218.97 16.9414 218.776 15.9395 218.39 15.3125C218.003 14.6797 217.391 14.3633 216.553 14.3633C215.721 14.3633 215.114 14.6768 214.733 15.3037C214.353 15.9307 214.156 16.8945 214.145 18.1953V20.7969C214.145 22.1797 214.344 23.2021 214.742 23.8643C215.146 24.5205 215.756 24.8486 216.57 24.8486C217.373 24.8486 217.968 24.5381 218.354 23.917C218.747 23.2959 218.952 22.3174 218.97 20.9814V18.3184ZM230.879 21.3506C230.879 22.7979 230.548 23.9639 229.886 24.8486C229.224 25.7334 228.327 26.1758 227.196 26.1758C226.042 26.1758 225.134 25.8096 224.472 25.0771V29.6562H222.846V16.4902H224.331L224.41 17.5449C225.072 16.7246 225.992 16.3145 227.17 16.3145C228.312 16.3145 229.215 16.7451 229.877 17.6064C230.545 18.4678 230.879 19.666 230.879 21.2012V21.3506ZM229.253 21.166C229.253 20.0938 229.024 19.2471 228.567 18.626C228.11 18.0049 227.483 17.6943 226.687 17.6943C225.702 17.6943 224.964 18.1309 224.472 19.0039V23.5479C224.958 24.415 225.702 24.8486 226.704 24.8486C227.483 24.8486 228.102 24.541 228.559 23.9258C229.021 23.3047 229.253 22.3848 229.253 21.166ZM236.003 19.9619L238.112 16.4902H240.011L236.899 21.1924L240.107 26H238.227L236.029 22.4404L233.832 26H231.942L235.15 21.1924L232.039 16.4902H233.92L236.003 19.9619Z" fill="black"/>
<path d="M393.559 21.3506C393.559 22.8037 393.225 23.9727 392.557 24.8574C391.889 25.7363 390.992 26.1758 389.867 26.1758C388.666 26.1758 387.737 25.751 387.081 24.9014L387.002 26H385.508V12.5H387.134V17.5361C387.79 16.7217 388.695 16.3145 389.85 16.3145C391.004 16.3145 391.909 16.751 392.565 17.624C393.228 18.4971 393.559 19.6924 393.559 21.21V21.3506ZM391.933 21.166C391.933 20.0586 391.719 19.2031 391.291 18.5996C390.863 17.9961 390.248 17.6943 389.445 17.6943C388.373 17.6943 387.603 18.1924 387.134 19.1885V23.3018C387.632 24.2979 388.408 24.7959 389.463 24.7959C390.242 24.7959 390.849 24.4941 391.282 23.8906C391.716 23.2871 391.933 22.3789 391.933 21.166ZM395.185 21.1572C395.185 20.2256 395.366 19.3877 395.729 18.6436C396.099 17.8994 396.608 17.3252 397.259 16.9209C397.915 16.5166 398.662 16.3145 399.5 16.3145C400.795 16.3145 401.841 16.7627 402.638 17.6592C403.44 18.5557 403.842 19.748 403.842 21.2363V21.3506C403.842 22.2764 403.663 23.1084 403.306 23.8467C402.954 24.5791 402.447 25.1504 401.785 25.5605C401.129 25.9707 400.373 26.1758 399.518 26.1758C398.229 26.1758 397.183 25.7275 396.38 24.8311C395.583 23.9346 395.185 22.748 395.185 21.2715V21.1572ZM396.819 21.3506C396.819 22.4053 397.062 23.252 397.549 23.8906C398.041 24.5293 398.697 24.8486 399.518 24.8486C400.344 24.8486 401 24.5264 401.486 23.8818C401.973 23.2314 402.216 22.3232 402.216 21.1572C402.216 20.1143 401.967 19.2705 401.469 18.626C400.977 17.9756 400.32 17.6504 399.5 17.6504C398.697 17.6504 398.05 17.9697 397.558 18.6084C397.065 19.2471 396.819 20.1611 396.819 21.3506ZM410.478 17.9492C410.231 17.9082 409.965 17.8877 409.678 17.8877C408.611 17.8877 407.888 18.3418 407.507 19.25V26H405.881V16.4902H407.463L407.489 17.5889C408.022 16.7393 408.778 16.3145 409.757 16.3145C410.073 16.3145 410.313 16.3555 410.478 16.4375V17.9492ZM411.409 21.166C411.409 19.707 411.755 18.5352 412.446 17.6504C413.138 16.7598 414.043 16.3145 415.162 16.3145C416.275 16.3145 417.157 16.6953 417.808 17.457V12.5H419.434V26H417.939L417.86 24.9805C417.21 25.7773 416.305 26.1758 415.145 26.1758C414.043 26.1758 413.144 25.7246 412.446 24.8223C411.755 23.9199 411.409 22.7422 411.409 21.2891V21.166ZM413.035 21.3506C413.035 22.4287 413.258 23.2725 413.703 23.8818C414.148 24.4912 414.764 24.7959 415.549 24.7959C416.58 24.7959 417.333 24.333 417.808 23.4072V19.0391C417.321 18.1426 416.574 17.6943 415.566 17.6943C414.77 17.6943 414.148 18.002 413.703 18.6172C413.258 19.2324 413.035 20.1436 413.035 21.3506ZM425.911 26.1758C424.622 26.1758 423.573 25.7539 422.765 24.9102C421.956 24.0605 421.552 22.9268 421.552 21.5088V21.21C421.552 20.2666 421.73 19.4258 422.088 18.6875C422.451 17.9434 422.955 17.3633 423.6 16.9473C424.25 16.5254 424.953 16.3145 425.709 16.3145C426.945 16.3145 427.906 16.7217 428.592 17.5361C429.277 18.3506 429.62 19.5166 429.62 21.0342V21.7109H423.178C423.201 22.6484 423.474 23.4072 423.995 23.9873C424.522 24.5615 425.19 24.8486 425.999 24.8486C426.573 24.8486 427.06 24.7314 427.458 24.4971C427.856 24.2627 428.205 23.9521 428.504 23.5654L429.497 24.3389C428.7 25.5635 427.505 26.1758 425.911 26.1758ZM425.709 17.6504C425.053 17.6504 424.502 17.8906 424.057 18.3711C423.611 18.8457 423.336 19.5137 423.23 20.375H427.994V20.252C427.947 19.4258 427.725 18.7871 427.326 18.3359C426.928 17.8789 426.389 17.6504 425.709 17.6504ZM436.106 17.9492C435.86 17.9082 435.594 17.8877 435.307 17.8877C434.24 17.8877 433.517 18.3418 433.136 19.25V26H431.51V16.4902H433.092L433.118 17.5889C433.651 16.7393 434.407 16.3145 435.386 16.3145C435.702 16.3145 435.942 16.3555 436.106 16.4375V17.9492ZM440.993 21.2275H436.704V19.9004H440.993V21.2275ZM444.79 14.1875V16.4902H446.565V17.7471H444.79V23.6445C444.79 24.0254 444.869 24.3125 445.027 24.5059C445.186 24.6934 445.455 24.7871 445.836 24.7871C446.023 24.7871 446.281 24.752 446.609 24.6816V26C446.182 26.1172 445.766 26.1758 445.361 26.1758C444.635 26.1758 444.087 25.9561 443.718 25.5166C443.349 25.0771 443.164 24.4531 443.164 23.6445V17.7471H441.433V16.4902H443.164V14.1875H444.79ZM447.866 21.1572C447.866 20.2256 448.048 19.3877 448.411 18.6436C448.78 17.8994 449.29 17.3252 449.94 16.9209C450.597 16.5166 451.344 16.3145 452.182 16.3145C453.477 16.3145 454.522 16.7627 455.319 17.6592C456.122 18.5557 456.523 19.748 456.523 21.2363V21.3506C456.523 22.2764 456.345 23.1084 455.987 23.8467C455.636 24.5791 455.129 25.1504 454.467 25.5605C453.811 25.9707 453.055 26.1758 452.199 26.1758C450.91 26.1758 449.864 25.7275 449.062 24.8311C448.265 23.9346 447.866 22.748 447.866 21.2715V21.1572ZM449.501 21.3506C449.501 22.4053 449.744 23.252 450.23 23.8906C450.723 24.5293 451.379 24.8486 452.199 24.8486C453.025 24.8486 453.682 24.5264 454.168 23.8818C454.654 23.2314 454.897 22.3232 454.897 21.1572C454.897 20.1143 454.648 19.2705 454.15 18.626C453.658 17.9756 453.002 17.6504 452.182 17.6504C451.379 17.6504 450.731 17.9697 450.239 18.6084C449.747 19.2471 449.501 20.1611 449.501 21.3506ZM466.596 21.3506C466.596 22.7979 466.265 23.9639 465.603 24.8486C464.94 25.7334 464.044 26.1758 462.913 26.1758C461.759 26.1758 460.851 25.8096 460.188 25.0771V29.6562H458.562V16.4902H460.048L460.127 17.5449C460.789 16.7246 461.709 16.3145 462.887 16.3145C464.029 16.3145 464.932 16.7451 465.594 17.6064C466.262 18.4678 466.596 19.666 466.596 21.2012V21.3506ZM464.97 21.166C464.97 20.0938 464.741 19.2471 464.284 18.626C463.827 18.0049 463.2 17.6943 462.403 17.6943C461.419 17.6943 460.681 18.1309 460.188 19.0039V23.5479C460.675 24.415 461.419 24.8486 462.421 24.8486C463.2 24.8486 463.818 24.541 464.275 23.9258C464.738 23.3047 464.97 22.3848 464.97 21.166ZM472.054 21.2275H467.765V19.9004H472.054V21.2275ZM478.241 17.9492C477.995 17.9082 477.729 17.8877 477.441 17.8877C476.375 17.8877 475.651 18.3418 475.271 19.25V26H473.645V16.4902H475.227L475.253 17.5889C475.786 16.7393 476.542 16.3145 477.521 16.3145C477.837 16.3145 478.077 16.3555 478.241 16.4375V17.9492ZM481.511 26H479.885V16.4902H481.511V26ZM479.753 13.9678C479.753 13.7041 479.832 13.4814 479.99 13.2998C480.154 13.1182 480.395 13.0273 480.711 13.0273C481.027 13.0273 481.268 13.1182 481.432 13.2998C481.596 13.4814 481.678 13.7041 481.678 13.9678C481.678 14.2314 481.596 14.4512 481.432 14.627C481.268 14.8027 481.027 14.8906 480.711 14.8906C480.395 14.8906 480.154 14.8027 479.99 14.627C479.832 14.4512 479.753 14.2314 479.753 13.9678ZM483.734 21.166C483.734 19.6836 484.077 18.5059 484.763 17.6328C485.448 16.7539 486.356 16.3145 487.487 16.3145C488.647 16.3145 489.553 16.7246 490.203 17.5449L490.282 16.4902H491.768V25.7715C491.768 27.002 491.401 27.9717 490.669 28.6807C489.942 29.3896 488.964 29.7441 487.733 29.7441C487.048 29.7441 486.377 29.5977 485.721 29.3047C485.064 29.0117 484.563 28.6104 484.218 28.1006L485.062 27.125C485.759 27.9863 486.611 28.417 487.619 28.417C488.41 28.417 489.025 28.1943 489.465 27.749C489.91 27.3037 490.133 26.6768 490.133 25.8682V25.0508C489.482 25.8008 488.595 26.1758 487.47 26.1758C486.356 26.1758 485.454 25.7275 484.763 24.8311C484.077 23.9346 483.734 22.7129 483.734 21.166ZM485.369 21.3506C485.369 22.4229 485.589 23.2666 486.028 23.8818C486.468 24.4912 487.083 24.7959 487.874 24.7959C488.899 24.7959 489.652 24.3301 490.133 23.3984V19.0566C489.635 18.1484 488.888 17.6943 487.892 17.6943C487.101 17.6943 486.482 18.002 486.037 18.6172C485.592 19.2324 485.369 20.1436 485.369 21.3506ZM495.854 17.6416C496.575 16.7568 497.513 16.3145 498.667 16.3145C500.677 16.3145 501.69 17.4482 501.708 19.7158V26H500.082V19.707C500.076 19.0215 499.918 18.5146 499.607 18.1865C499.303 17.8584 498.825 17.6943 498.175 17.6943C497.647 17.6943 497.185 17.835 496.786 18.1162C496.388 18.3975 496.077 18.7666 495.854 19.2236V26H494.229V12.5H495.854V17.6416ZM506.349 14.1875V16.4902H508.124V17.7471H506.349V23.6445C506.349 24.0254 506.428 24.3125 506.586 24.5059C506.744 24.6934 507.014 24.7871 507.395 24.7871C507.582 24.7871 507.84 24.752 508.168 24.6816V26C507.74 26.1172 507.324 26.1758 506.92 26.1758C506.193 26.1758 505.646 25.9561 505.276 25.5166C504.907 25.0771 504.723 24.4531 504.723 23.6445V17.7471H502.991V16.4902H504.723V14.1875H506.349ZM513.415 21.2275H509.126V19.9004H513.415V21.2275ZM519.603 17.9492C519.356 17.9082 519.09 17.8877 518.803 17.8877C517.736 17.8877 517.013 18.3418 516.632 19.25V26H515.006V16.4902H516.588L516.614 17.5889C517.147 16.7393 517.903 16.3145 518.882 16.3145C519.198 16.3145 519.438 16.3555 519.603 16.4375V17.9492ZM526.625 26C526.531 25.8125 526.455 25.4785 526.396 24.998C525.641 25.7832 524.738 26.1758 523.689 26.1758C522.752 26.1758 521.981 25.9121 521.378 25.3848C520.78 24.8516 520.481 24.1777 520.481 23.3633C520.481 22.373 520.856 21.6055 521.606 21.0605C522.362 20.5098 523.423 20.2344 524.788 20.2344H526.37V19.4873C526.37 18.9189 526.2 18.4678 525.86 18.1338C525.521 17.7939 525.02 17.624 524.357 17.624C523.777 17.624 523.291 17.7705 522.898 18.0635C522.506 18.3564 522.31 18.7109 522.31 19.127H520.675C520.675 18.6523 520.842 18.1953 521.176 17.7559C521.516 17.3105 521.973 16.959 522.547 16.7012C523.127 16.4434 523.763 16.3145 524.454 16.3145C525.55 16.3145 526.408 16.5898 527.029 17.1406C527.65 17.6855 527.973 18.4385 527.996 19.3994V23.7764C527.996 24.6494 528.107 25.3438 528.33 25.8594V26H526.625ZM523.927 24.7607C524.437 24.7607 524.92 24.6289 525.377 24.3652C525.834 24.1016 526.165 23.7588 526.37 23.3369V21.3857H525.096C523.104 21.3857 522.107 21.9688 522.107 23.1348C522.107 23.6445 522.277 24.043 522.617 24.3301C522.957 24.6172 523.394 24.7607 523.927 24.7607ZM530.149 21.166C530.149 19.707 530.495 18.5352 531.187 17.6504C531.878 16.7598 532.783 16.3145 533.902 16.3145C535.016 16.3145 535.897 16.6953 536.548 17.457V12.5H538.174V26H536.68L536.601 24.9805C535.95 25.7773 535.045 26.1758 533.885 26.1758C532.783 26.1758 531.884 25.7246 531.187 24.8223C530.495 23.9199 530.149 22.7422 530.149 21.2891V21.166ZM531.775 21.3506C531.775 22.4287 531.998 23.2725 532.443 23.8818C532.889 24.4912 533.504 24.7959 534.289 24.7959C535.32 24.7959 536.073 24.333 536.548 23.4072V19.0391C536.062 18.1426 535.314 17.6943 534.307 17.6943C533.51 17.6943 532.889 18.002 532.443 18.6172C531.998 19.2324 531.775 20.1436 531.775 21.3506ZM542.472 26H540.846V16.4902H542.472V26ZM540.714 13.9678C540.714 13.7041 540.793 13.4814 540.951 13.2998C541.115 13.1182 541.355 13.0273 541.672 13.0273C541.988 13.0273 542.229 13.1182 542.393 13.2998C542.557 13.4814 542.639 13.7041 542.639 13.9678C542.639 14.2314 542.557 14.4512 542.393 14.627C542.229 14.8027 541.988 14.8906 541.672 14.8906C541.355 14.8906 541.115 14.8027 540.951 14.627C540.793 14.4512 540.714 14.2314 540.714 13.9678ZM550.953 25.0596C550.32 25.8037 549.392 26.1758 548.167 26.1758C547.153 26.1758 546.38 25.8828 545.847 25.2969C545.319 24.7051 545.053 23.832 545.047 22.6777V16.4902H546.673V22.6338C546.673 24.0752 547.259 24.7959 548.431 24.7959C549.673 24.7959 550.499 24.333 550.909 23.4072V16.4902H552.535V26H550.988L550.953 25.0596ZM560.551 23.4775C560.551 23.0381 560.384 22.6982 560.05 22.458C559.722 22.2119 559.145 22.001 558.318 21.8252C557.498 21.6494 556.845 21.4385 556.358 21.1924C555.878 20.9463 555.521 20.6533 555.286 20.3135C555.058 19.9736 554.943 19.5693 554.943 19.1006C554.943 18.3213 555.271 17.6621 555.928 17.123C556.59 16.584 557.434 16.3145 558.459 16.3145C559.537 16.3145 560.41 16.5928 561.078 17.1494C561.752 17.7061 562.089 18.418 562.089 19.2852H560.454C560.454 18.8398 560.264 18.4561 559.883 18.1338C559.508 17.8115 559.033 17.6504 558.459 17.6504C557.867 17.6504 557.404 17.7793 557.07 18.0371C556.736 18.2949 556.569 18.6318 556.569 19.0479C556.569 19.4404 556.725 19.7363 557.035 19.9355C557.346 20.1348 557.905 20.3252 558.714 20.5068C559.528 20.6885 560.188 20.9053 560.691 21.1572C561.195 21.4092 561.567 21.7139 561.808 22.0713C562.054 22.4229 562.177 22.8535 562.177 23.3633C562.177 24.2129 561.837 24.8955 561.157 25.4111C560.478 25.9209 559.596 26.1758 558.512 26.1758C557.75 26.1758 557.076 26.041 556.49 25.7715C555.904 25.502 555.444 25.127 555.11 24.6465C554.782 24.1602 554.618 23.6357 554.618 23.0732H556.244C556.273 23.6182 556.49 24.0518 556.895 24.374C557.305 24.6904 557.844 24.8486 558.512 24.8486C559.127 24.8486 559.619 24.7256 559.988 24.4795C560.363 24.2275 560.551 23.8936 560.551 23.4775ZM564.242 25.1475C564.242 24.8662 564.324 24.6318 564.488 24.4443C564.658 24.2568 564.91 24.1631 565.244 24.1631C565.578 24.1631 565.83 24.2568 566 24.4443C566.176 24.6318 566.264 24.8662 566.264 25.1475C566.264 25.417 566.176 25.6426 566 25.8242C565.83 26.0059 565.578 26.0967 565.244 26.0967C564.91 26.0967 564.658 26.0059 564.488 25.8242C564.324 25.6426 564.242 25.417 564.242 25.1475ZM564.251 17.3867C564.251 17.1055 564.333 16.8711 564.497 16.6836C564.667 16.4961 564.919 16.4023 565.253 16.4023C565.587 16.4023 565.839 16.4961 566.009 16.6836C566.185 16.8711 566.272 17.1055 566.272 17.3867C566.272 17.6562 566.185 17.8818 566.009 18.0635C565.839 18.2451 565.587 18.3359 565.253 18.3359C564.919 18.3359 564.667 18.2451 564.497 18.0635C564.333 17.8818 564.251 17.6562 564.251 17.3867ZM580.713 16.543C580.713 17.1816 580.543 17.75 580.203 18.248C579.869 18.7461 579.415 19.1357 578.841 19.417C579.509 19.7041 580.036 20.123 580.423 20.6738C580.815 21.2246 581.012 21.8486 581.012 22.5459C581.012 23.6533 580.637 24.5352 579.887 25.1914C579.143 25.8477 578.161 26.1758 576.942 26.1758C575.712 26.1758 574.725 25.8477 573.98 25.1914C573.242 24.5293 572.873 23.6475 572.873 22.5459C572.873 21.8545 573.061 21.2305 573.436 20.6738C573.816 20.1172 574.341 19.6953 575.009 19.4082C574.44 19.127 573.992 18.7373 573.664 18.2393C573.336 17.7412 573.172 17.1758 573.172 16.543C573.172 15.4648 573.518 14.6094 574.209 13.9766C574.9 13.3438 575.812 13.0273 576.942 13.0273C578.067 13.0273 578.976 13.3438 579.667 13.9766C580.364 14.6094 580.713 15.4648 580.713 16.543ZM579.386 22.5107C579.386 21.7959 579.157 21.2129 578.7 20.7617C578.249 20.3105 577.657 20.085 576.925 20.085C576.192 20.085 575.604 20.3076 575.158 20.7529C574.719 21.1982 574.499 21.7842 574.499 22.5107C574.499 23.2373 574.713 23.8086 575.141 24.2246C575.574 24.6406 576.175 24.8486 576.942 24.8486C577.704 24.8486 578.302 24.6406 578.735 24.2246C579.169 23.8027 579.386 23.2314 579.386 22.5107ZM576.942 14.3633C576.304 14.3633 575.785 14.5625 575.387 14.9609C574.994 15.3535 574.798 15.8896 574.798 16.5693C574.798 17.2197 574.991 17.7471 575.378 18.1514C575.771 18.5498 576.292 18.749 576.942 18.749C577.593 18.749 578.111 18.5498 578.498 18.1514C578.891 17.7471 579.087 17.2197 579.087 16.5693C579.087 15.9189 578.885 15.3887 578.48 14.9785C578.076 14.5684 577.563 14.3633 576.942 14.3633ZM591.084 20.542C591.084 22.4463 590.759 23.8613 590.108 24.7871C589.458 25.7129 588.441 26.1758 587.059 26.1758C585.693 26.1758 584.683 25.7246 584.026 24.8223C583.37 23.9141 583.03 22.5605 583.007 20.7617V18.5908C583.007 16.71 583.332 15.3125 583.982 14.3984C584.633 13.4844 585.652 13.0273 587.041 13.0273C588.418 13.0273 589.432 13.4697 590.082 14.3545C590.732 15.2334 591.066 16.5928 591.084 18.4326V20.542ZM589.458 18.3184C589.458 16.9414 589.265 15.9395 588.878 15.3125C588.491 14.6797 587.879 14.3633 587.041 14.3633C586.209 14.3633 585.603 14.6768 585.222 15.3037C584.841 15.9307 584.645 16.8945 584.633 18.1953V20.7969C584.633 22.1797 584.832 23.2021 585.23 23.8643C585.635 24.5205 586.244 24.8486 587.059 24.8486C587.861 24.8486 588.456 24.5381 588.843 23.917C589.235 23.2959 589.44 22.3174 589.458 20.9814V18.3184ZM601.367 21.3506C601.367 22.7979 601.036 23.9639 600.374 24.8486C599.712 25.7334 598.815 26.1758 597.685 26.1758C596.53 26.1758 595.622 25.8096 594.96 25.0771V29.6562H593.334V16.4902H594.819L594.898 17.5449C595.561 16.7246 596.48 16.3145 597.658 16.3145C598.801 16.3145 599.703 16.7451 600.365 17.6064C601.033 18.4678 601.367 19.666 601.367 21.2012V21.3506ZM599.741 21.166C599.741 20.0938 599.513 19.2471 599.056 18.626C598.599 18.0049 597.972 17.6943 597.175 17.6943C596.19 17.6943 595.452 18.1309 594.96 19.0039V23.5479C595.446 24.415 596.19 24.8486 597.192 24.8486C597.972 24.8486 598.59 24.541 599.047 23.9258C599.51 23.3047 599.741 22.3848 599.741 21.166ZM606.491 19.9619L608.601 16.4902H610.499L607.388 21.1924L610.596 26H608.715L606.518 22.4404L604.32 26H602.431L605.639 21.1924L602.527 16.4902H604.408L606.491 19.9619Z" fill="black"/>
<path d="M23.2812 391.351C23.2812 392.804 22.9473 393.973 22.2793 394.857C21.6113 395.736 20.7148 396.176 19.5898 396.176C18.3887 396.176 17.46 395.751 16.8037 394.901L16.7246 396H15.2305V382.5H16.8564V387.536C17.5127 386.722 18.418 386.314 19.5723 386.314C20.7266 386.314 21.6318 386.751 22.2881 387.624C22.9502 388.497 23.2812 389.692 23.2812 391.21V391.351ZM21.6553 391.166C21.6553 390.059 21.4414 389.203 21.0137 388.6C20.5859 387.996 19.9707 387.694 19.168 387.694C18.0957 387.694 17.3252 388.192 16.8564 389.188V393.302C17.3545 394.298 18.1309 394.796 19.1855 394.796C19.9648 394.796 20.5713 394.494 21.0049 393.891C21.4385 393.287 21.6553 392.379 21.6553 391.166ZM24.9072 391.157C24.9072 390.226 25.0889 389.388 25.4521 388.644C25.8213 387.899 26.3311 387.325 26.9814 386.921C27.6377 386.517 28.3848 386.314 29.2227 386.314C30.5176 386.314 31.5635 386.763 32.3604 387.659C33.1631 388.556 33.5645 389.748 33.5645 391.236V391.351C33.5645 392.276 33.3857 393.108 33.0283 393.847C32.6768 394.579 32.1699 395.15 31.5078 395.561C30.8516 395.971 30.0957 396.176 29.2402 396.176C27.9512 396.176 26.9053 395.728 26.1025 394.831C25.3057 393.935 24.9072 392.748 24.9072 391.271V391.157ZM26.542 391.351C26.542 392.405 26.7852 393.252 27.2715 393.891C27.7637 394.529 28.4199 394.849 29.2402 394.849C30.0664 394.849 30.7227 394.526 31.209 393.882C31.6953 393.231 31.9385 392.323 31.9385 391.157C31.9385 390.114 31.6895 389.271 31.1914 388.626C30.6992 387.976 30.043 387.65 29.2227 387.65C28.4199 387.65 27.7725 387.97 27.2803 388.608C26.7881 389.247 26.542 390.161 26.542 391.351ZM40.2002 387.949C39.9541 387.908 39.6875 387.888 39.4004 387.888C38.334 387.888 37.6104 388.342 37.2295 389.25V396H35.6035V386.49H37.1855L37.2119 387.589C37.7451 386.739 38.501 386.314 39.4795 386.314C39.7959 386.314 40.0361 386.355 40.2002 386.438V387.949ZM41.1318 391.166C41.1318 389.707 41.4775 388.535 42.1689 387.65C42.8604 386.76 43.7656 386.314 44.8848 386.314C45.998 386.314 46.8799 386.695 47.5303 387.457V382.5H49.1562V396H47.6621L47.583 394.98C46.9326 395.777 46.0273 396.176 44.8672 396.176C43.7656 396.176 42.8662 395.725 42.1689 394.822C41.4775 393.92 41.1318 392.742 41.1318 391.289V391.166ZM42.7578 391.351C42.7578 392.429 42.9805 393.272 43.4258 393.882C43.8711 394.491 44.4863 394.796 45.2715 394.796C46.3027 394.796 47.0557 394.333 47.5303 393.407V389.039C47.0439 388.143 46.2969 387.694 45.2891 387.694C44.4922 387.694 43.8711 388.002 43.4258 388.617C42.9805 389.232 42.7578 390.144 42.7578 391.351ZM55.6338 396.176C54.3447 396.176 53.2959 395.754 52.4873 394.91C51.6787 394.061 51.2744 392.927 51.2744 391.509V391.21C51.2744 390.267 51.4531 389.426 51.8105 388.688C52.1738 387.943 52.6777 387.363 53.3223 386.947C53.9727 386.525 54.6758 386.314 55.4316 386.314C56.668 386.314 57.6289 386.722 58.3145 387.536C59 388.351 59.3428 389.517 59.3428 391.034V391.711H52.9004C52.9238 392.648 53.1963 393.407 53.7178 393.987C54.2451 394.562 54.9131 394.849 55.7217 394.849C56.2959 394.849 56.7822 394.731 57.1807 394.497C57.5791 394.263 57.9277 393.952 58.2266 393.565L59.2197 394.339C58.4229 395.563 57.2275 396.176 55.6338 396.176ZM55.4316 387.65C54.7754 387.65 54.2246 387.891 53.7793 388.371C53.334 388.846 53.0586 389.514 52.9531 390.375H57.7168V390.252C57.6699 389.426 57.4473 388.787 57.0488 388.336C56.6504 387.879 56.1113 387.65 55.4316 387.65ZM65.8291 387.949C65.583 387.908 65.3164 387.888 65.0293 387.888C63.9629 387.888 63.2393 388.342 62.8584 389.25V396H61.2324V386.49H62.8145L62.8408 387.589C63.374 386.739 64.1299 386.314 65.1084 386.314C65.4248 386.314 65.665 386.355 65.8291 386.438V387.949ZM70.7158 391.228H66.4268V389.9H70.7158V391.228ZM80.3574 391.351C80.3574 392.804 80.0234 393.973 79.3555 394.857C78.6875 395.736 77.791 396.176 76.666 396.176C75.4648 396.176 74.5361 395.751 73.8799 394.901L73.8008 396H72.3066V382.5H73.9326V387.536C74.5889 386.722 75.4941 386.314 76.6484 386.314C77.8027 386.314 78.708 386.751 79.3643 387.624C80.0264 388.497 80.3574 389.692 80.3574 391.21V391.351ZM78.7314 391.166C78.7314 390.059 78.5176 389.203 78.0898 388.6C77.6621 387.996 77.0469 387.694 76.2441 387.694C75.1719 387.694 74.4014 388.192 73.9326 389.188V393.302C74.4307 394.298 75.207 394.796 76.2617 394.796C77.041 394.796 77.6475 394.494 78.0811 393.891C78.5146 393.287 78.7314 392.379 78.7314 391.166ZM81.9834 391.157C81.9834 390.226 82.165 389.388 82.5283 388.644C82.8975 387.899 83.4072 387.325 84.0576 386.921C84.7139 386.517 85.4609 386.314 86.2988 386.314C87.5938 386.314 88.6396 386.763 89.4365 387.659C90.2393 388.556 90.6406 389.748 90.6406 391.236V391.351C90.6406 392.276 90.4619 393.108 90.1045 393.847C89.7529 394.579 89.2461 395.15 88.584 395.561C87.9277 395.971 87.1719 396.176 86.3164 396.176C85.0273 396.176 83.9814 395.728 83.1787 394.831C82.3818 393.935 81.9834 392.748 81.9834 391.271V391.157ZM83.6182 391.351C83.6182 392.405 83.8613 393.252 84.3477 393.891C84.8398 394.529 85.4961 394.849 86.3164 394.849C87.1426 394.849 87.7988 394.526 88.2852 393.882C88.7715 393.231 89.0146 392.323 89.0146 391.157C89.0146 390.114 88.7656 389.271 88.2676 388.626C87.7754 387.976 87.1191 387.65 86.2988 387.65C85.4961 387.65 84.8486 387.97 84.3564 388.608C83.8643 389.247 83.6182 390.161 83.6182 391.351ZM94.8857 384.188V386.49H96.6611V387.747H94.8857V393.645C94.8857 394.025 94.9648 394.312 95.123 394.506C95.2812 394.693 95.5508 394.787 95.9316 394.787C96.1191 394.787 96.377 394.752 96.7051 394.682V396C96.2773 396.117 95.8613 396.176 95.457 396.176C94.7305 396.176 94.1826 395.956 93.8135 395.517C93.4443 395.077 93.2598 394.453 93.2598 393.645V387.747H91.5283V386.49H93.2598V384.188H94.8857ZM100.774 384.188V386.49H102.55V387.747H100.774V393.645C100.774 394.025 100.854 394.312 101.012 394.506C101.17 394.693 101.439 394.787 101.82 394.787C102.008 394.787 102.266 394.752 102.594 394.682V396C102.166 396.117 101.75 396.176 101.346 396.176C100.619 396.176 100.071 395.956 99.7021 395.517C99.333 395.077 99.1484 394.453 99.1484 393.645V387.747H97.417V386.49H99.1484V384.188H100.774ZM103.851 391.157C103.851 390.226 104.032 389.388 104.396 388.644C104.765 387.899 105.274 387.325 105.925 386.921C106.581 386.517 107.328 386.314 108.166 386.314C109.461 386.314 110.507 386.763 111.304 387.659C112.106 388.556 112.508 389.748 112.508 391.236V391.351C112.508 392.276 112.329 393.108 111.972 393.847C111.62 394.579 111.113 395.15 110.451 395.561C109.795 395.971 109.039 396.176 108.184 396.176C106.895 396.176 105.849 395.728 105.046 394.831C104.249 393.935 103.851 392.748 103.851 391.271V391.157ZM105.485 391.351C105.485 392.405 105.729 393.252 106.215 393.891C106.707 394.529 107.363 394.849 108.184 394.849C109.01 394.849 109.666 394.526 110.152 393.882C110.639 393.231 110.882 392.323 110.882 391.157C110.882 390.114 110.633 389.271 110.135 388.626C109.643 387.976 108.986 387.65 108.166 387.65C107.363 387.65 106.716 387.97 106.224 388.608C105.731 389.247 105.485 390.161 105.485 391.351ZM116.076 386.49L116.12 387.545C116.817 386.725 117.758 386.314 118.941 386.314C120.271 386.314 121.177 386.824 121.657 387.844C121.974 387.387 122.384 387.018 122.888 386.736C123.397 386.455 123.998 386.314 124.689 386.314C126.775 386.314 127.836 387.419 127.871 389.628V396H126.245V389.725C126.245 389.045 126.09 388.538 125.779 388.204C125.469 387.864 124.947 387.694 124.215 387.694C123.611 387.694 123.11 387.876 122.712 388.239C122.313 388.597 122.082 389.08 122.018 389.689V396H120.383V389.769C120.383 388.386 119.706 387.694 118.353 387.694C117.286 387.694 116.557 388.148 116.164 389.057V396H114.538V386.49H116.076ZM133.716 391.228H129.427V389.9H133.716V391.228ZM137.073 396H135.447V382.5H137.073V396ZM143.63 396.176C142.341 396.176 141.292 395.754 140.483 394.91C139.675 394.061 139.271 392.927 139.271 391.509V391.21C139.271 390.267 139.449 389.426 139.807 388.688C140.17 387.943 140.674 387.363 141.318 386.947C141.969 386.525 142.672 386.314 143.428 386.314C144.664 386.314 145.625 386.722 146.311 387.536C146.996 388.351 147.339 389.517 147.339 391.034V391.711H140.896C140.92 392.648 141.192 393.407 141.714 393.987C142.241 394.562 142.909 394.849 143.718 394.849C144.292 394.849 144.778 394.731 145.177 394.497C145.575 394.263 145.924 393.952 146.223 393.565L147.216 394.339C146.419 395.563 145.224 396.176 143.63 396.176ZM143.428 387.65C142.771 387.65 142.221 387.891 141.775 388.371C141.33 388.846 141.055 389.514 140.949 390.375H145.713V390.252C145.666 389.426 145.443 388.787 145.045 388.336C144.646 387.879 144.107 387.65 143.428 387.65ZM150.028 396V387.747H148.525V386.49H150.028V385.515C150.028 384.495 150.301 383.707 150.846 383.15C151.391 382.594 152.161 382.315 153.157 382.315C153.532 382.315 153.904 382.365 154.273 382.465L154.186 383.783C153.91 383.73 153.617 383.704 153.307 383.704C152.779 383.704 152.372 383.859 152.085 384.17C151.798 384.475 151.654 384.914 151.654 385.488V386.49H153.685V387.747H151.654V396H150.028ZM157.692 384.188V386.49H159.468V387.747H157.692V393.645C157.692 394.025 157.771 394.312 157.93 394.506C158.088 394.693 158.357 394.787 158.738 394.787C158.926 394.787 159.184 394.752 159.512 394.682V396C159.084 396.117 158.668 396.176 158.264 396.176C157.537 396.176 156.989 395.956 156.62 395.517C156.251 395.077 156.066 394.453 156.066 393.645V387.747H154.335V386.49H156.066V384.188H157.692ZM164.759 391.228H160.47V389.9H164.759V391.228ZM170.946 387.949C170.7 387.908 170.434 387.888 170.146 387.888C169.08 387.888 168.356 388.342 167.976 389.25V396H166.35V386.49H167.932L167.958 387.589C168.491 386.739 169.247 386.314 170.226 386.314C170.542 386.314 170.782 386.355 170.946 386.438V387.949ZM177.969 396C177.875 395.812 177.799 395.479 177.74 394.998C176.984 395.783 176.082 396.176 175.033 396.176C174.096 396.176 173.325 395.912 172.722 395.385C172.124 394.852 171.825 394.178 171.825 393.363C171.825 392.373 172.2 391.605 172.95 391.061C173.706 390.51 174.767 390.234 176.132 390.234H177.714V389.487C177.714 388.919 177.544 388.468 177.204 388.134C176.864 387.794 176.363 387.624 175.701 387.624C175.121 387.624 174.635 387.771 174.242 388.063C173.85 388.356 173.653 388.711 173.653 389.127H172.019C172.019 388.652 172.186 388.195 172.52 387.756C172.859 387.311 173.316 386.959 173.891 386.701C174.471 386.443 175.106 386.314 175.798 386.314C176.894 386.314 177.752 386.59 178.373 387.141C178.994 387.686 179.316 388.438 179.34 389.399V393.776C179.34 394.649 179.451 395.344 179.674 395.859V396H177.969ZM175.271 394.761C175.78 394.761 176.264 394.629 176.721 394.365C177.178 394.102 177.509 393.759 177.714 393.337V391.386H176.439C174.447 391.386 173.451 391.969 173.451 393.135C173.451 393.645 173.621 394.043 173.961 394.33C174.301 394.617 174.737 394.761 175.271 394.761ZM181.493 391.166C181.493 389.707 181.839 388.535 182.53 387.65C183.222 386.76 184.127 386.314 185.246 386.314C186.359 386.314 187.241 386.695 187.892 387.457V382.5H189.518V396H188.023L187.944 394.98C187.294 395.777 186.389 396.176 185.229 396.176C184.127 396.176 183.228 395.725 182.53 394.822C181.839 393.92 181.493 392.742 181.493 391.289V391.166ZM183.119 391.351C183.119 392.429 183.342 393.272 183.787 393.882C184.232 394.491 184.848 394.796 185.633 394.796C186.664 394.796 187.417 394.333 187.892 393.407V389.039C187.405 388.143 186.658 387.694 185.65 387.694C184.854 387.694 184.232 388.002 183.787 388.617C183.342 389.232 183.119 390.144 183.119 391.351ZM193.815 396H192.189V386.49H193.815V396ZM192.058 383.968C192.058 383.704 192.137 383.481 192.295 383.3C192.459 383.118 192.699 383.027 193.016 383.027C193.332 383.027 193.572 383.118 193.736 383.3C193.9 383.481 193.982 383.704 193.982 383.968C193.982 384.231 193.9 384.451 193.736 384.627C193.572 384.803 193.332 384.891 193.016 384.891C192.699 384.891 192.459 384.803 192.295 384.627C192.137 384.451 192.058 384.231 192.058 383.968ZM202.297 395.06C201.664 395.804 200.735 396.176 199.511 396.176C198.497 396.176 197.724 395.883 197.19 395.297C196.663 394.705 196.396 393.832 196.391 392.678V386.49H198.017V392.634C198.017 394.075 198.603 394.796 199.774 394.796C201.017 394.796 201.843 394.333 202.253 393.407V386.49H203.879V396H202.332L202.297 395.06ZM211.895 393.478C211.895 393.038 211.728 392.698 211.394 392.458C211.065 392.212 210.488 392.001 209.662 391.825C208.842 391.649 208.188 391.438 207.702 391.192C207.222 390.946 206.864 390.653 206.63 390.313C206.401 389.974 206.287 389.569 206.287 389.101C206.287 388.321 206.615 387.662 207.271 387.123C207.934 386.584 208.777 386.314 209.803 386.314C210.881 386.314 211.754 386.593 212.422 387.149C213.096 387.706 213.433 388.418 213.433 389.285H211.798C211.798 388.84 211.607 388.456 211.227 388.134C210.852 387.812 210.377 387.65 209.803 387.65C209.211 387.65 208.748 387.779 208.414 388.037C208.08 388.295 207.913 388.632 207.913 389.048C207.913 389.44 208.068 389.736 208.379 389.936C208.689 390.135 209.249 390.325 210.058 390.507C210.872 390.688 211.531 390.905 212.035 391.157C212.539 391.409 212.911 391.714 213.151 392.071C213.397 392.423 213.521 392.854 213.521 393.363C213.521 394.213 213.181 394.896 212.501 395.411C211.821 395.921 210.939 396.176 209.855 396.176C209.094 396.176 208.42 396.041 207.834 395.771C207.248 395.502 206.788 395.127 206.454 394.646C206.126 394.16 205.962 393.636 205.962 393.073H207.588C207.617 393.618 207.834 394.052 208.238 394.374C208.648 394.69 209.188 394.849 209.855 394.849C210.471 394.849 210.963 394.726 211.332 394.479C211.707 394.228 211.895 393.894 211.895 393.478ZM215.586 395.147C215.586 394.866 215.668 394.632 215.832 394.444C216.002 394.257 216.254 394.163 216.588 394.163C216.922 394.163 217.174 394.257 217.344 394.444C217.52 394.632 217.607 394.866 217.607 395.147C217.607 395.417 217.52 395.643 217.344 395.824C217.174 396.006 216.922 396.097 216.588 396.097C216.254 396.097 216.002 396.006 215.832 395.824C215.668 395.643 215.586 395.417 215.586 395.147ZM215.595 387.387C215.595 387.105 215.677 386.871 215.841 386.684C216.011 386.496 216.263 386.402 216.597 386.402C216.931 386.402 217.183 386.496 217.353 386.684C217.528 386.871 217.616 387.105 217.616 387.387C217.616 387.656 217.528 387.882 217.353 388.063C217.183 388.245 216.931 388.336 216.597 388.336C216.263 388.336 216.011 388.245 215.841 388.063C215.677 387.882 215.595 387.656 215.595 387.387ZM231.16 391.702H232.936V393.029H231.16V396H229.525V393.029H223.698V392.071L229.429 383.203H231.16V391.702ZM225.544 391.702H229.525V385.427L229.332 385.778L225.544 391.702ZM242.428 390.542C242.428 392.446 242.103 393.861 241.452 394.787C240.802 395.713 239.785 396.176 238.402 396.176C237.037 396.176 236.026 395.725 235.37 394.822C234.714 393.914 234.374 392.561 234.351 390.762V388.591C234.351 386.71 234.676 385.312 235.326 384.398C235.977 383.484 236.996 383.027 238.385 383.027C239.762 383.027 240.775 383.47 241.426 384.354C242.076 385.233 242.41 386.593 242.428 388.433V390.542ZM240.802 388.318C240.802 386.941 240.608 385.939 240.222 385.312C239.835 384.68 239.223 384.363 238.385 384.363C237.553 384.363 236.946 384.677 236.565 385.304C236.185 385.931 235.988 386.895 235.977 388.195V390.797C235.977 392.18 236.176 393.202 236.574 393.864C236.979 394.521 237.588 394.849 238.402 394.849C239.205 394.849 239.8 394.538 240.187 393.917C240.579 393.296 240.784 392.317 240.802 390.981V388.318ZM252.711 391.351C252.711 392.798 252.38 393.964 251.718 394.849C251.056 395.733 250.159 396.176 249.028 396.176C247.874 396.176 246.966 395.81 246.304 395.077V399.656H244.678V386.49H246.163L246.242 387.545C246.904 386.725 247.824 386.314 249.002 386.314C250.145 386.314 251.047 386.745 251.709 387.606C252.377 388.468 252.711 389.666 252.711 391.201V391.351ZM251.085 391.166C251.085 390.094 250.856 389.247 250.399 388.626C249.942 388.005 249.315 387.694 248.519 387.694C247.534 387.694 246.796 388.131 246.304 389.004V393.548C246.79 394.415 247.534 394.849 248.536 394.849C249.315 394.849 249.934 394.541 250.391 393.926C250.854 393.305 251.085 392.385 251.085 391.166ZM257.835 389.962L259.944 386.49H261.843L258.731 391.192L261.939 396H260.059L257.861 392.44L255.664 396H253.774L256.982 391.192L253.871 386.49H255.752L257.835 389.962Z" fill="black"/>
<path d="M125.934 441.789C125.934 443.758 125.492 445.324 124.609 446.488C123.734 447.652 122.527 448.234 120.988 448.234C119.504 448.234 118.348 447.699 117.52 446.629L117.379 448H114.801V430H117.648V436.539C118.469 435.57 119.574 435.086 120.965 435.086C122.512 435.086 123.727 435.66 124.609 436.809C125.492 437.957 125.934 439.562 125.934 441.625V441.789ZM123.086 441.543C123.086 440.168 122.844 439.137 122.359 438.449C121.875 437.762 121.172 437.418 120.25 437.418C119.016 437.418 118.148 437.957 117.648 439.035V444.262C118.156 445.363 119.031 445.914 120.273 445.914C121.164 445.914 121.852 445.582 122.336 444.918C122.82 444.254 123.07 443.25 123.086 441.906V441.543ZM127.797 441.543C127.797 440.301 128.043 439.184 128.535 438.191C129.027 437.191 129.719 436.426 130.609 435.895C131.5 435.355 132.523 435.086 133.68 435.086C135.391 435.086 136.777 435.637 137.84 436.738C138.91 437.84 139.488 439.301 139.574 441.121L139.586 441.789C139.586 443.039 139.344 444.156 138.859 445.141C138.383 446.125 137.695 446.887 136.797 447.426C135.906 447.965 134.875 448.234 133.703 448.234C131.914 448.234 130.48 447.641 129.402 446.453C128.332 445.258 127.797 443.668 127.797 441.684V441.543ZM130.645 441.789C130.645 443.094 130.914 444.117 131.453 444.859C131.992 445.594 132.742 445.961 133.703 445.961C134.664 445.961 135.41 445.586 135.941 444.836C136.48 444.086 136.75 442.988 136.75 441.543C136.75 440.262 136.473 439.246 135.918 438.496C135.371 437.746 134.625 437.371 133.68 437.371C132.75 437.371 132.012 437.742 131.465 438.484C130.918 439.219 130.645 440.32 130.645 441.789ZM148.633 437.922C148.258 437.859 147.871 437.828 147.473 437.828C146.168 437.828 145.289 438.328 144.836 439.328V448H141.988V435.32H144.707L144.777 436.738C145.465 435.637 146.418 435.086 147.637 435.086C148.043 435.086 148.379 435.141 148.645 435.25L148.633 437.922ZM149.664 441.566C149.664 439.613 150.117 438.047 151.023 436.867C151.93 435.68 153.145 435.086 154.668 435.086C156.012 435.086 157.098 435.555 157.926 436.492V430H160.773V448H158.195L158.055 446.688C157.203 447.719 156.066 448.234 154.645 448.234C153.16 448.234 151.957 447.637 151.035 446.441C150.121 445.246 149.664 443.621 149.664 441.566ZM152.512 441.812C152.512 443.102 152.758 444.109 153.25 444.836C153.75 445.555 154.457 445.914 155.371 445.914C156.535 445.914 157.387 445.395 157.926 444.355V438.941C157.402 437.926 156.559 437.418 155.395 437.418C154.473 437.418 153.762 437.785 153.262 438.52C152.762 439.246 152.512 440.344 152.512 441.812ZM169.328 448.234C167.523 448.234 166.059 447.668 164.934 446.535C163.816 445.395 163.258 443.879 163.258 441.988V441.637C163.258 440.371 163.5 439.242 163.984 438.25C164.477 437.25 165.164 436.473 166.047 435.918C166.93 435.363 167.914 435.086 169 435.086C170.727 435.086 172.059 435.637 172.996 436.738C173.941 437.84 174.414 439.398 174.414 441.414V442.562H166.129C166.215 443.609 166.562 444.438 167.172 445.047C167.789 445.656 168.562 445.961 169.492 445.961C170.797 445.961 171.859 445.434 172.68 444.379L174.215 445.844C173.707 446.602 173.027 447.191 172.176 447.613C171.332 448.027 170.383 448.234 169.328 448.234ZM168.988 437.371C168.207 437.371 167.574 437.645 167.09 438.191C166.613 438.738 166.309 439.5 166.176 440.477H171.602V440.266C171.539 439.312 171.285 438.594 170.84 438.109C170.395 437.617 169.777 437.371 168.988 437.371ZM183.273 437.922C182.898 437.859 182.512 437.828 182.113 437.828C180.809 437.828 179.93 438.328 179.477 439.328V448H176.629V435.32H179.348L179.418 436.738C180.105 435.637 181.059 435.086 182.277 435.086C182.684 435.086 183.02 435.141 183.285 435.25L183.273 437.922ZM190.598 441.895H184.445V439.598H190.598V441.895ZM199.586 437.922C199.211 437.859 198.824 437.828 198.426 437.828C197.121 437.828 196.242 438.328 195.789 439.328V448H192.941V435.32H195.66L195.73 436.738C196.418 435.637 197.371 435.086 198.59 435.086C198.996 435.086 199.332 435.141 199.598 435.25L199.586 437.922ZM208.609 448C208.484 447.758 208.375 447.363 208.281 446.816C207.375 447.762 206.266 448.234 204.953 448.234C203.68 448.234 202.641 447.871 201.836 447.145C201.031 446.418 200.629 445.52 200.629 444.449C200.629 443.098 201.129 442.062 202.129 441.344C203.137 440.617 204.574 440.254 206.441 440.254H208.188V439.422C208.188 438.766 208.004 438.242 207.637 437.852C207.27 437.453 206.711 437.254 205.961 437.254C205.312 437.254 204.781 437.418 204.367 437.746C203.953 438.066 203.746 438.477 203.746 438.977H200.898C200.898 438.281 201.129 437.633 201.59 437.031C202.051 436.422 202.676 435.945 203.465 435.602C204.262 435.258 205.148 435.086 206.125 435.086C207.609 435.086 208.793 435.461 209.676 436.211C210.559 436.953 211.012 438 211.035 439.352V445.07C211.035 446.211 211.195 447.121 211.516 447.801V448H208.609ZM205.48 445.949C206.043 445.949 206.57 445.812 207.062 445.539C207.562 445.266 207.938 444.898 208.188 444.438V442.047H206.652C205.598 442.047 204.805 442.23 204.273 442.598C203.742 442.965 203.477 443.484 203.477 444.156C203.477 444.703 203.656 445.141 204.016 445.469C204.383 445.789 204.871 445.949 205.48 445.949ZM213.484 441.566C213.484 439.613 213.938 438.047 214.844 436.867C215.75 435.68 216.965 435.086 218.488 435.086C219.832 435.086 220.918 435.555 221.746 436.492V430H224.594V448H222.016L221.875 446.688C221.023 447.719 219.887 448.234 218.465 448.234C216.98 448.234 215.777 447.637 214.855 446.441C213.941 445.246 213.484 443.621 213.484 441.566ZM216.332 441.812C216.332 443.102 216.578 444.109 217.07 444.836C217.57 445.555 218.277 445.914 219.191 445.914C220.355 445.914 221.207 445.395 221.746 444.355V438.941C221.223 437.926 220.379 437.418 219.215 437.418C218.293 437.418 217.582 437.785 217.082 438.52C216.582 439.246 216.332 440.344 216.332 441.812ZM230.594 448H227.746V435.32H230.594V448ZM227.57 432.027C227.57 431.59 227.707 431.227 227.98 430.938C228.262 430.648 228.66 430.504 229.176 430.504C229.691 430.504 230.09 430.648 230.371 430.938C230.652 431.227 230.793 431.59 230.793 432.027C230.793 432.457 230.652 432.816 230.371 433.105C230.09 433.387 229.691 433.527 229.176 433.527C228.66 433.527 228.262 433.387 227.98 433.105C227.707 432.816 227.57 432.457 227.57 432.027ZM241.387 446.758C240.551 447.742 239.363 448.234 237.824 448.234C236.449 448.234 235.406 447.832 234.695 447.027C233.992 446.223 233.641 445.059 233.641 443.535V435.32H236.488V443.5C236.488 445.109 237.156 445.914 238.492 445.914C239.875 445.914 240.809 445.418 241.293 444.426V435.32H244.141V448H241.457L241.387 446.758ZM254.148 444.555C254.148 444.047 253.938 443.66 253.516 443.395C253.102 443.129 252.41 442.895 251.441 442.691C250.473 442.488 249.664 442.23 249.016 441.918C247.594 441.23 246.883 440.234 246.883 438.93C246.883 437.836 247.344 436.922 248.266 436.188C249.188 435.453 250.359 435.086 251.781 435.086C253.297 435.086 254.52 435.461 255.449 436.211C256.387 436.961 256.855 437.934 256.855 439.129H254.008C254.008 438.582 253.805 438.129 253.398 437.77C252.992 437.402 252.453 437.219 251.781 437.219C251.156 437.219 250.645 437.363 250.246 437.652C249.855 437.941 249.66 438.328 249.66 438.812C249.66 439.25 249.844 439.59 250.211 439.832C250.578 440.074 251.32 440.32 252.438 440.57C253.555 440.812 254.43 441.105 255.062 441.449C255.703 441.785 256.176 442.191 256.48 442.668C256.793 443.145 256.949 443.723 256.949 444.402C256.949 445.543 256.477 446.469 255.531 447.18C254.586 447.883 253.348 448.234 251.816 448.234C250.777 448.234 249.852 448.047 249.039 447.672C248.227 447.297 247.594 446.781 247.141 446.125C246.688 445.469 246.461 444.762 246.461 444.004H249.227C249.266 444.676 249.52 445.195 249.988 445.562C250.457 445.922 251.078 446.102 251.852 446.102C252.602 446.102 253.172 445.961 253.562 445.68C253.953 445.391 254.148 445.016 254.148 444.555ZM261.156 445C261.688 445 262.098 445.152 262.387 445.457C262.676 445.754 262.82 446.129 262.82 446.582C262.82 447.027 262.676 447.398 262.387 447.695C262.098 447.984 261.688 448.129 261.156 448.129C260.648 448.129 260.246 447.984 259.949 447.695C259.652 447.406 259.504 447.035 259.504 446.582C259.504 446.129 259.648 445.754 259.938 445.457C260.227 445.152 260.633 445 261.156 445ZM261.156 435.051C261.688 435.051 262.098 435.203 262.387 435.508C262.676 435.805 262.82 436.18 262.82 436.633C262.82 437.078 262.676 437.449 262.387 437.746C262.098 438.035 261.688 438.18 261.156 438.18C260.648 438.18 260.246 438.035 259.949 437.746C259.652 437.457 259.504 437.086 259.504 436.633C259.504 436.18 259.648 435.805 259.938 435.508C260.227 435.203 260.633 435.051 261.156 435.051ZM279.32 448H276.484V434.301L272.301 435.73V433.328L278.957 430.879H279.32V448ZM296.371 440.816C296.371 443.27 295.91 445.121 294.988 446.371C294.074 447.613 292.68 448.234 290.805 448.234C288.961 448.234 287.57 447.629 286.633 446.418C285.703 445.199 285.227 443.398 285.203 441.016V438.062C285.203 435.609 285.66 433.77 286.574 432.543C287.496 431.316 288.898 430.703 290.781 430.703C292.648 430.703 294.039 431.301 294.953 432.496C295.875 433.691 296.348 435.48 296.371 437.863V440.816ZM293.523 437.629C293.523 436.027 293.305 434.855 292.867 434.113C292.43 433.363 291.734 432.988 290.781 432.988C289.852 432.988 289.168 433.344 288.73 434.055C288.293 434.758 288.062 435.859 288.039 437.359V441.227C288.039 442.82 288.262 444.008 288.707 444.789C289.152 445.57 289.852 445.961 290.805 445.961C291.719 445.961 292.395 445.602 292.832 444.883C293.27 444.156 293.5 443.023 293.523 441.484V437.629ZM310.012 440.816C310.012 443.27 309.551 445.121 308.629 446.371C307.715 447.613 306.32 448.234 304.445 448.234C302.602 448.234 301.211 447.629 300.273 446.418C299.344 445.199 298.867 443.398 298.844 441.016V438.062C298.844 435.609 299.301 433.77 300.215 432.543C301.137 431.316 302.539 430.703 304.422 430.703C306.289 430.703 307.68 431.301 308.594 432.496C309.516 433.691 309.988 435.48 310.012 437.863V440.816ZM307.164 437.629C307.164 436.027 306.945 434.855 306.508 434.113C306.07 433.363 305.375 432.988 304.422 432.988C303.492 432.988 302.809 433.344 302.371 434.055C301.934 434.758 301.703 435.859 301.68 437.359V441.227C301.68 442.82 301.902 444.008 302.348 444.789C302.793 445.57 303.492 445.961 304.445 445.961C305.359 445.961 306.035 445.602 306.473 444.883C306.91 444.156 307.141 443.023 307.164 441.484V437.629ZM323.816 441.789C323.816 443.75 323.371 445.316 322.48 446.488C321.59 447.652 320.395 448.234 318.895 448.234C317.504 448.234 316.391 447.777 315.555 446.863V452.875H312.707V435.32H315.332L315.449 436.609C316.285 435.594 317.422 435.086 318.859 435.086C320.406 435.086 321.617 435.664 322.492 436.82C323.375 437.969 323.816 439.566 323.816 441.613V441.789ZM320.98 441.543C320.98 440.277 320.727 439.273 320.219 438.531C319.719 437.789 319 437.418 318.062 437.418C316.898 437.418 316.062 437.898 315.555 438.859V444.484C316.07 445.469 316.914 445.961 318.086 445.961C318.992 445.961 319.699 445.598 320.207 444.871C320.723 444.137 320.98 443.027 320.98 441.543ZM330.602 439.492L333.016 435.32H336.18L332.301 441.566L336.309 448H333.168L330.637 443.664L328.117 448H324.953L328.961 441.566L325.094 435.32H328.234L330.602 439.492ZM354.66 435.438C354.66 436.273 354.445 437.02 354.016 437.676C353.586 438.324 353 438.836 352.258 439.211C353.148 439.625 353.832 440.191 354.309 440.91C354.793 441.629 355.035 442.441 355.035 443.348C355.035 444.848 354.527 446.039 353.512 446.922C352.496 447.797 351.145 448.234 349.457 448.234C347.762 448.234 346.402 447.793 345.379 446.91C344.363 446.027 343.855 444.84 343.855 443.348C343.855 442.434 344.098 441.613 344.582 440.887C345.066 440.16 345.746 439.602 346.621 439.211C345.887 438.836 345.305 438.324 344.875 437.676C344.453 437.02 344.242 436.273 344.242 435.438C344.242 433.984 344.711 432.832 345.648 431.98C346.586 431.129 347.852 430.703 349.445 430.703C351.047 430.703 352.316 431.129 353.254 431.98C354.191 432.832 354.66 433.984 354.66 435.438ZM352.188 443.207C352.188 442.363 351.934 441.684 351.426 441.168C350.926 440.645 350.262 440.383 349.434 440.383C348.605 440.383 347.941 440.641 347.441 441.156C346.949 441.672 346.703 442.355 346.703 443.207C346.703 444.043 346.945 444.711 347.43 445.211C347.922 445.711 348.598 445.961 349.457 445.961C350.316 445.961 350.984 445.719 351.461 445.234C351.945 444.75 352.188 444.074 352.188 443.207ZM351.824 435.543C351.824 434.801 351.609 434.191 351.18 433.715C350.75 433.23 350.172 432.988 349.445 432.988C348.719 432.988 348.145 433.219 347.723 433.68C347.301 434.133 347.09 434.754 347.09 435.543C347.09 436.324 347.301 436.945 347.723 437.406C348.152 437.867 348.73 438.098 349.457 438.098C350.184 438.098 350.758 437.867 351.18 437.406C351.609 436.945 351.824 436.324 351.824 435.543ZM368.676 440.816C368.676 443.27 368.215 445.121 367.293 446.371C366.379 447.613 364.984 448.234 363.109 448.234C361.266 448.234 359.875 447.629 358.938 446.418C358.008 445.199 357.531 443.398 357.508 441.016V438.062C357.508 435.609 357.965 433.77 358.879 432.543C359.801 431.316 361.203 430.703 363.086 430.703C364.953 430.703 366.344 431.301 367.258 432.496C368.18 433.691 368.652 435.48 368.676 437.863V440.816ZM365.828 437.629C365.828 436.027 365.609 434.855 365.172 434.113C364.734 433.363 364.039 432.988 363.086 432.988C362.156 432.988 361.473 433.344 361.035 434.055C360.598 434.758 360.367 435.859 360.344 437.359V441.227C360.344 442.82 360.566 444.008 361.012 444.789C361.457 445.57 362.156 445.961 363.109 445.961C364.023 445.961 364.699 445.602 365.137 444.883C365.574 444.156 365.805 443.023 365.828 441.484V437.629ZM382.48 441.789C382.48 443.75 382.035 445.316 381.145 446.488C380.254 447.652 379.059 448.234 377.559 448.234C376.168 448.234 375.055 447.777 374.219 446.863V452.875H371.371V435.32H373.996L374.113 436.609C374.949 435.594 376.086 435.086 377.523 435.086C379.07 435.086 380.281 435.664 381.156 436.82C382.039 437.969 382.48 439.566 382.48 441.613V441.789ZM379.645 441.543C379.645 440.277 379.391 439.273 378.883 438.531C378.383 437.789 377.664 437.418 376.727 437.418C375.562 437.418 374.727 437.898 374.219 438.859V444.484C374.734 445.469 375.578 445.961 376.75 445.961C377.656 445.961 378.363 445.598 378.871 444.871C379.387 444.137 379.645 443.027 379.645 441.543ZM389.266 439.492L391.68 435.32H394.844L390.965 441.566L394.973 448H391.832L389.301 443.664L386.781 448H383.617L387.625 441.566L383.758 435.32H386.898L389.266 439.492ZM411.438 430.855V433.211H411.086C409.492 433.234 408.219 433.672 407.266 434.523C406.312 435.375 405.746 436.582 405.566 438.145C406.48 437.184 407.648 436.703 409.07 436.703C410.578 436.703 411.766 437.234 412.633 438.297C413.508 439.359 413.945 440.73 413.945 442.41C413.945 444.145 413.434 445.551 412.41 446.629C411.395 447.699 410.059 448.234 408.402 448.234C406.699 448.234 405.316 447.605 404.254 446.348C403.199 445.09 402.672 443.441 402.672 441.402V440.43C402.672 437.438 403.398 435.094 404.852 433.398C406.312 431.703 408.41 430.855 411.145 430.855H411.438ZM408.379 439C407.754 439 407.18 439.176 406.656 439.527C406.141 439.879 405.762 440.348 405.52 440.934V441.801C405.52 443.066 405.785 444.074 406.316 444.824C406.848 445.566 407.535 445.938 408.379 445.938C409.223 445.938 409.891 445.621 410.383 444.988C410.875 444.355 411.121 443.523 411.121 442.492C411.121 441.461 410.871 440.621 410.371 439.973C409.871 439.324 409.207 439 408.379 439ZM427.34 440.816C427.34 443.27 426.879 445.121 425.957 446.371C425.043 447.613 423.648 448.234 421.773 448.234C419.93 448.234 418.539 447.629 417.602 446.418C416.672 445.199 416.195 443.398 416.172 441.016V438.062C416.172 435.609 416.629 433.77 417.543 432.543C418.465 431.316 419.867 430.703 421.75 430.703C423.617 430.703 425.008 431.301 425.922 432.496C426.844 433.691 427.316 435.48 427.34 437.863V440.816ZM424.492 437.629C424.492 436.027 424.273 434.855 423.836 434.113C423.398 433.363 422.703 432.988 421.75 432.988C420.82 432.988 420.137 433.344 419.699 434.055C419.262 434.758 419.031 435.859 419.008 437.359V441.227C419.008 442.82 419.23 444.008 419.676 444.789C420.121 445.57 420.82 445.961 421.773 445.961C422.688 445.961 423.363 445.602 423.801 444.883C424.238 444.156 424.469 443.023 424.492 441.484V437.629ZM441.145 441.789C441.145 443.75 440.699 445.316 439.809 446.488C438.918 447.652 437.723 448.234 436.223 448.234C434.832 448.234 433.719 447.777 432.883 446.863V452.875H430.035V435.32H432.66L432.777 436.609C433.613 435.594 434.75 435.086 436.188 435.086C437.734 435.086 438.945 435.664 439.82 436.82C440.703 437.969 441.145 439.566 441.145 441.613V441.789ZM438.309 441.543C438.309 440.277 438.055 439.273 437.547 438.531C437.047 437.789 436.328 437.418 435.391 437.418C434.227 437.418 433.391 437.898 432.883 438.859V444.484C433.398 445.469 434.242 445.961 435.414 445.961C436.32 445.961 437.027 445.598 437.535 444.871C438.051 444.137 438.309 443.027 438.309 441.543ZM447.93 439.492L450.344 435.32H453.508L449.629 441.566L453.637 448H450.496L447.965 443.664L445.445 448H442.281L446.289 441.566L442.422 435.32H445.562L447.93 439.492ZM470.875 441.918H472.996V444.203H470.875V448H468.027V444.203H460.656L460.574 442.469L467.934 430.938H470.875V441.918ZM463.562 441.918H468.027V434.793L467.816 435.168L463.562 441.918ZM486.004 440.816C486.004 443.27 485.543 445.121 484.621 446.371C483.707 447.613 482.312 448.234 480.438 448.234C478.594 448.234 477.203 447.629 476.266 446.418C475.336 445.199 474.859 443.398 474.836 441.016V438.062C474.836 435.609 475.293 433.77 476.207 432.543C477.129 431.316 478.531 430.703 480.414 430.703C482.281 430.703 483.672 431.301 484.586 432.496C485.508 433.691 485.98 435.48 486.004 437.863V440.816ZM483.156 437.629C483.156 436.027 482.938 434.855 482.5 434.113C482.062 433.363 481.367 432.988 480.414 432.988C479.484 432.988 478.801 433.344 478.363 434.055C477.926 434.758 477.695 435.859 477.672 437.359V441.227C477.672 442.82 477.895 444.008 478.34 444.789C478.785 445.57 479.484 445.961 480.438 445.961C481.352 445.961 482.027 445.602 482.465 444.883C482.902 444.156 483.133 443.023 483.156 441.484V437.629ZM499.809 441.789C499.809 443.75 499.363 445.316 498.473 446.488C497.582 447.652 496.387 448.234 494.887 448.234C493.496 448.234 492.383 447.777 491.547 446.863V452.875H488.699V435.32H491.324L491.441 436.609C492.277 435.594 493.414 435.086 494.852 435.086C496.398 435.086 497.609 435.664 498.484 436.82C499.367 437.969 499.809 439.566 499.809 441.613V441.789ZM496.973 441.543C496.973 440.277 496.719 439.273 496.211 438.531C495.711 437.789 494.992 437.418 494.055 437.418C492.891 437.418 492.055 437.898 491.547 438.859V444.484C492.062 445.469 492.906 445.961 494.078 445.961C494.984 445.961 495.691 445.598 496.199 444.871C496.715 444.137 496.973 443.027 496.973 441.543ZM506.594 439.492L509.008 435.32H512.172L508.293 441.566L512.301 448H509.16L506.629 443.664L504.109 448H500.945L504.953 441.566L501.086 435.32H504.227L506.594 439.492Z" fill="#1E73FF"/>
<path d="M361.619 391.351C361.619 392.804 361.285 393.973 360.617 394.857C359.949 395.736 359.053 396.176 357.928 396.176C356.727 396.176 355.798 395.751 355.142 394.901L355.062 396H353.568V382.5H355.194V387.536C355.851 386.722 356.756 386.314 357.91 386.314C359.064 386.314 359.97 386.751 360.626 387.624C361.288 388.497 361.619 389.692 361.619 391.21V391.351ZM359.993 391.166C359.993 390.059 359.779 389.203 359.352 388.6C358.924 387.996 358.309 387.694 357.506 387.694C356.434 387.694 355.663 388.192 355.194 389.188V393.302C355.692 394.298 356.469 394.796 357.523 394.796C358.303 394.796 358.909 394.494 359.343 393.891C359.776 393.287 359.993 392.379 359.993 391.166ZM363.245 391.157C363.245 390.226 363.427 389.388 363.79 388.644C364.159 387.899 364.669 387.325 365.319 386.921C365.976 386.517 366.723 386.314 367.561 386.314C368.855 386.314 369.901 386.763 370.698 387.659C371.501 388.556 371.902 389.748 371.902 391.236V391.351C371.902 392.276 371.724 393.108 371.366 393.847C371.015 394.579 370.508 395.15 369.846 395.561C369.189 395.971 368.434 396.176 367.578 396.176C366.289 396.176 365.243 395.728 364.44 394.831C363.644 393.935 363.245 392.748 363.245 391.271V391.157ZM364.88 391.351C364.88 392.405 365.123 393.252 365.609 393.891C366.102 394.529 366.758 394.849 367.578 394.849C368.404 394.849 369.061 394.526 369.547 393.882C370.033 393.231 370.276 392.323 370.276 391.157C370.276 390.114 370.027 389.271 369.529 388.626C369.037 387.976 368.381 387.65 367.561 387.65C366.758 387.65 366.11 387.97 365.618 388.608C365.126 389.247 364.88 390.161 364.88 391.351ZM378.538 387.949C378.292 387.908 378.025 387.888 377.738 387.888C376.672 387.888 375.948 388.342 375.567 389.25V396H373.941V386.49H375.523L375.55 387.589C376.083 386.739 376.839 386.314 377.817 386.314C378.134 386.314 378.374 386.355 378.538 386.438V387.949ZM379.47 391.166C379.47 389.707 379.815 388.535 380.507 387.65C381.198 386.76 382.104 386.314 383.223 386.314C384.336 386.314 385.218 386.695 385.868 387.457V382.5H387.494V396H386L385.921 394.98C385.271 395.777 384.365 396.176 383.205 396.176C382.104 396.176 381.204 395.725 380.507 394.822C379.815 393.92 379.47 392.742 379.47 391.289V391.166ZM381.096 391.351C381.096 392.429 381.318 393.272 381.764 393.882C382.209 394.491 382.824 394.796 383.609 394.796C384.641 394.796 385.394 394.333 385.868 393.407V389.039C385.382 388.143 384.635 387.694 383.627 387.694C382.83 387.694 382.209 388.002 381.764 388.617C381.318 389.232 381.096 390.144 381.096 391.351ZM393.972 396.176C392.683 396.176 391.634 395.754 390.825 394.91C390.017 394.061 389.612 392.927 389.612 391.509V391.21C389.612 390.267 389.791 389.426 390.148 388.688C390.512 387.943 391.016 387.363 391.66 386.947C392.311 386.525 393.014 386.314 393.77 386.314C395.006 386.314 395.967 386.722 396.652 387.536C397.338 388.351 397.681 389.517 397.681 391.034V391.711H391.238C391.262 392.648 391.534 393.407 392.056 393.987C392.583 394.562 393.251 394.849 394.06 394.849C394.634 394.849 395.12 394.731 395.519 394.497C395.917 394.263 396.266 393.952 396.564 393.565L397.558 394.339C396.761 395.563 395.565 396.176 393.972 396.176ZM393.77 387.65C393.113 387.65 392.562 387.891 392.117 388.371C391.672 388.846 391.396 389.514 391.291 390.375H396.055V390.252C396.008 389.426 395.785 388.787 395.387 388.336C394.988 387.879 394.449 387.65 393.77 387.65ZM404.167 387.949C403.921 387.908 403.654 387.888 403.367 387.888C402.301 387.888 401.577 388.342 401.196 389.25V396H399.57V386.49H401.152L401.179 387.589C401.712 386.739 402.468 386.314 403.446 386.314C403.763 386.314 404.003 386.355 404.167 386.438V387.949ZM409.054 391.228H404.765V389.9H409.054V391.228ZM418.695 391.351C418.695 392.804 418.361 393.973 417.693 394.857C417.025 395.736 416.129 396.176 415.004 396.176C413.803 396.176 412.874 395.751 412.218 394.901L412.139 396H410.645V382.5H412.271V387.536C412.927 386.722 413.832 386.314 414.986 386.314C416.141 386.314 417.046 386.751 417.702 387.624C418.364 388.497 418.695 389.692 418.695 391.21V391.351ZM417.069 391.166C417.069 390.059 416.855 389.203 416.428 388.6C416 387.996 415.385 387.694 414.582 387.694C413.51 387.694 412.739 388.192 412.271 389.188V393.302C412.769 394.298 413.545 394.796 414.6 394.796C415.379 394.796 415.985 394.494 416.419 393.891C416.853 393.287 417.069 392.379 417.069 391.166ZM420.321 391.157C420.321 390.226 420.503 389.388 420.866 388.644C421.235 387.899 421.745 387.325 422.396 386.921C423.052 386.517 423.799 386.314 424.637 386.314C425.932 386.314 426.978 386.763 427.774 387.659C428.577 388.556 428.979 389.748 428.979 391.236V391.351C428.979 392.276 428.8 393.108 428.442 393.847C428.091 394.579 427.584 395.15 426.922 395.561C426.266 395.971 425.51 396.176 424.654 396.176C423.365 396.176 422.319 395.728 421.517 394.831C420.72 393.935 420.321 392.748 420.321 391.271V391.157ZM421.956 391.351C421.956 392.405 422.199 393.252 422.686 393.891C423.178 394.529 423.834 394.849 424.654 394.849C425.48 394.849 426.137 394.526 426.623 393.882C427.109 393.231 427.353 392.323 427.353 391.157C427.353 390.114 427.104 389.271 426.605 388.626C426.113 387.976 425.457 387.65 424.637 387.65C423.834 387.65 423.187 387.97 422.694 388.608C422.202 389.247 421.956 390.161 421.956 391.351ZM433.224 384.188V386.49H434.999V387.747H433.224V393.645C433.224 394.025 433.303 394.312 433.461 394.506C433.619 394.693 433.889 394.787 434.27 394.787C434.457 394.787 434.715 394.752 435.043 394.682V396C434.615 396.117 434.199 396.176 433.795 396.176C433.068 396.176 432.521 395.956 432.151 395.517C431.782 395.077 431.598 394.453 431.598 393.645V387.747H429.866V386.49H431.598V384.188H433.224ZM439.112 384.188V386.49H440.888V387.747H439.112V393.645C439.112 394.025 439.191 394.312 439.35 394.506C439.508 394.693 439.777 394.787 440.158 394.787C440.346 394.787 440.604 394.752 440.932 394.682V396C440.504 396.117 440.088 396.176 439.684 396.176C438.957 396.176 438.409 395.956 438.04 395.517C437.671 395.077 437.486 394.453 437.486 393.645V387.747H435.755V386.49H437.486V384.188H439.112ZM442.188 391.157C442.188 390.226 442.37 389.388 442.733 388.644C443.103 387.899 443.612 387.325 444.263 386.921C444.919 386.517 445.666 386.314 446.504 386.314C447.799 386.314 448.845 386.763 449.642 387.659C450.444 388.556 450.846 389.748 450.846 391.236V391.351C450.846 392.276 450.667 393.108 450.31 393.847C449.958 394.579 449.451 395.15 448.789 395.561C448.133 395.971 447.377 396.176 446.521 396.176C445.232 396.176 444.187 395.728 443.384 394.831C442.587 393.935 442.188 392.748 442.188 391.271V391.157ZM443.823 391.351C443.823 392.405 444.066 393.252 444.553 393.891C445.045 394.529 445.701 394.849 446.521 394.849C447.348 394.849 448.004 394.526 448.49 393.882C448.977 393.231 449.22 392.323 449.22 391.157C449.22 390.114 448.971 389.271 448.473 388.626C447.98 387.976 447.324 387.65 446.504 387.65C445.701 387.65 445.054 387.97 444.562 388.608C444.069 389.247 443.823 390.161 443.823 391.351ZM454.414 386.49L454.458 387.545C455.155 386.725 456.096 386.314 457.279 386.314C458.609 386.314 459.515 386.824 459.995 387.844C460.312 387.387 460.722 387.018 461.226 386.736C461.735 386.455 462.336 386.314 463.027 386.314C465.113 386.314 466.174 387.419 466.209 389.628V396H464.583V389.725C464.583 389.045 464.428 388.538 464.117 388.204C463.807 387.864 463.285 387.694 462.553 387.694C461.949 387.694 461.448 387.876 461.05 388.239C460.651 388.597 460.42 389.08 460.355 389.689V396H458.721V389.769C458.721 388.386 458.044 387.694 456.69 387.694C455.624 387.694 454.895 388.148 454.502 389.057V396H452.876V386.49H454.414ZM472.054 391.228H467.765V389.9H472.054V391.228ZM478.241 387.949C477.995 387.908 477.729 387.888 477.441 387.888C476.375 387.888 475.651 388.342 475.271 389.25V396H473.645V386.49H475.227L475.253 387.589C475.786 386.739 476.542 386.314 477.521 386.314C477.837 386.314 478.077 386.355 478.241 386.438V387.949ZM481.511 396H479.885V386.49H481.511V396ZM479.753 383.968C479.753 383.704 479.832 383.481 479.99 383.3C480.154 383.118 480.395 383.027 480.711 383.027C481.027 383.027 481.268 383.118 481.432 383.3C481.596 383.481 481.678 383.704 481.678 383.968C481.678 384.231 481.596 384.451 481.432 384.627C481.268 384.803 481.027 384.891 480.711 384.891C480.395 384.891 480.154 384.803 479.99 384.627C479.832 384.451 479.753 384.231 479.753 383.968ZM483.734 391.166C483.734 389.684 484.077 388.506 484.763 387.633C485.448 386.754 486.356 386.314 487.487 386.314C488.647 386.314 489.553 386.725 490.203 387.545L490.282 386.49H491.768V395.771C491.768 397.002 491.401 397.972 490.669 398.681C489.942 399.39 488.964 399.744 487.733 399.744C487.048 399.744 486.377 399.598 485.721 399.305C485.064 399.012 484.563 398.61 484.218 398.101L485.062 397.125C485.759 397.986 486.611 398.417 487.619 398.417C488.41 398.417 489.025 398.194 489.465 397.749C489.91 397.304 490.133 396.677 490.133 395.868V395.051C489.482 395.801 488.595 396.176 487.47 396.176C486.356 396.176 485.454 395.728 484.763 394.831C484.077 393.935 483.734 392.713 483.734 391.166ZM485.369 391.351C485.369 392.423 485.589 393.267 486.028 393.882C486.468 394.491 487.083 394.796 487.874 394.796C488.899 394.796 489.652 394.33 490.133 393.398V389.057C489.635 388.148 488.888 387.694 487.892 387.694C487.101 387.694 486.482 388.002 486.037 388.617C485.592 389.232 485.369 390.144 485.369 391.351ZM495.854 387.642C496.575 386.757 497.513 386.314 498.667 386.314C500.677 386.314 501.69 387.448 501.708 389.716V396H500.082V389.707C500.076 389.021 499.918 388.515 499.607 388.187C499.303 387.858 498.825 387.694 498.175 387.694C497.647 387.694 497.185 387.835 496.786 388.116C496.388 388.397 496.077 388.767 495.854 389.224V396H494.229V382.5H495.854V387.642ZM506.349 384.188V386.49H508.124V387.747H506.349V393.645C506.349 394.025 506.428 394.312 506.586 394.506C506.744 394.693 507.014 394.787 507.395 394.787C507.582 394.787 507.84 394.752 508.168 394.682V396C507.74 396.117 507.324 396.176 506.92 396.176C506.193 396.176 505.646 395.956 505.276 395.517C504.907 395.077 504.723 394.453 504.723 393.645V387.747H502.991V386.49H504.723V384.188H506.349ZM513.415 391.228H509.126V389.9H513.415V391.228ZM519.603 387.949C519.356 387.908 519.09 387.888 518.803 387.888C517.736 387.888 517.013 388.342 516.632 389.25V396H515.006V386.49H516.588L516.614 387.589C517.147 386.739 517.903 386.314 518.882 386.314C519.198 386.314 519.438 386.355 519.603 386.438V387.949ZM526.625 396C526.531 395.812 526.455 395.479 526.396 394.998C525.641 395.783 524.738 396.176 523.689 396.176C522.752 396.176 521.981 395.912 521.378 395.385C520.78 394.852 520.481 394.178 520.481 393.363C520.481 392.373 520.856 391.605 521.606 391.061C522.362 390.51 523.423 390.234 524.788 390.234H526.37V389.487C526.37 388.919 526.2 388.468 525.86 388.134C525.521 387.794 525.02 387.624 524.357 387.624C523.777 387.624 523.291 387.771 522.898 388.063C522.506 388.356 522.31 388.711 522.31 389.127H520.675C520.675 388.652 520.842 388.195 521.176 387.756C521.516 387.311 521.973 386.959 522.547 386.701C523.127 386.443 523.763 386.314 524.454 386.314C525.55 386.314 526.408 386.59 527.029 387.141C527.65 387.686 527.973 388.438 527.996 389.399V393.776C527.996 394.649 528.107 395.344 528.33 395.859V396H526.625ZM523.927 394.761C524.437 394.761 524.92 394.629 525.377 394.365C525.834 394.102 526.165 393.759 526.37 393.337V391.386H525.096C523.104 391.386 522.107 391.969 522.107 393.135C522.107 393.645 522.277 394.043 522.617 394.33C522.957 394.617 523.394 394.761 523.927 394.761ZM530.149 391.166C530.149 389.707 530.495 388.535 531.187 387.65C531.878 386.76 532.783 386.314 533.902 386.314C535.016 386.314 535.897 386.695 536.548 387.457V382.5H538.174V396H536.68L536.601 394.98C535.95 395.777 535.045 396.176 533.885 396.176C532.783 396.176 531.884 395.725 531.187 394.822C530.495 393.92 530.149 392.742 530.149 391.289V391.166ZM531.775 391.351C531.775 392.429 531.998 393.272 532.443 393.882C532.889 394.491 533.504 394.796 534.289 394.796C535.32 394.796 536.073 394.333 536.548 393.407V389.039C536.062 388.143 535.314 387.694 534.307 387.694C533.51 387.694 532.889 388.002 532.443 388.617C531.998 389.232 531.775 390.144 531.775 391.351ZM542.472 396H540.846V386.49H542.472V396ZM540.714 383.968C540.714 383.704 540.793 383.481 540.951 383.3C541.115 383.118 541.355 383.027 541.672 383.027C541.988 383.027 542.229 383.118 542.393 383.3C542.557 383.481 542.639 383.704 542.639 383.968C542.639 384.231 542.557 384.451 542.393 384.627C542.229 384.803 541.988 384.891 541.672 384.891C541.355 384.891 541.115 384.803 540.951 384.627C540.793 384.451 540.714 384.231 540.714 383.968ZM550.953 395.06C550.32 395.804 549.392 396.176 548.167 396.176C547.153 396.176 546.38 395.883 545.847 395.297C545.319 394.705 545.053 393.832 545.047 392.678V386.49H546.673V392.634C546.673 394.075 547.259 394.796 548.431 394.796C549.673 394.796 550.499 394.333 550.909 393.407V386.49H552.535V396H550.988L550.953 395.06ZM560.551 393.478C560.551 393.038 560.384 392.698 560.05 392.458C559.722 392.212 559.145 392.001 558.318 391.825C557.498 391.649 556.845 391.438 556.358 391.192C555.878 390.946 555.521 390.653 555.286 390.313C555.058 389.974 554.943 389.569 554.943 389.101C554.943 388.321 555.271 387.662 555.928 387.123C556.59 386.584 557.434 386.314 558.459 386.314C559.537 386.314 560.41 386.593 561.078 387.149C561.752 387.706 562.089 388.418 562.089 389.285H560.454C560.454 388.84 560.264 388.456 559.883 388.134C559.508 387.812 559.033 387.65 558.459 387.65C557.867 387.65 557.404 387.779 557.07 388.037C556.736 388.295 556.569 388.632 556.569 389.048C556.569 389.44 556.725 389.736 557.035 389.936C557.346 390.135 557.905 390.325 558.714 390.507C559.528 390.688 560.188 390.905 560.691 391.157C561.195 391.409 561.567 391.714 561.808 392.071C562.054 392.423 562.177 392.854 562.177 393.363C562.177 394.213 561.837 394.896 561.157 395.411C560.478 395.921 559.596 396.176 558.512 396.176C557.75 396.176 557.076 396.041 556.49 395.771C555.904 395.502 555.444 395.127 555.11 394.646C554.782 394.16 554.618 393.636 554.618 393.073H556.244C556.273 393.618 556.49 394.052 556.895 394.374C557.305 394.69 557.844 394.849 558.512 394.849C559.127 394.849 559.619 394.726 559.988 394.479C560.363 394.228 560.551 393.894 560.551 393.478ZM564.242 395.147C564.242 394.866 564.324 394.632 564.488 394.444C564.658 394.257 564.91 394.163 565.244 394.163C565.578 394.163 565.83 394.257 566 394.444C566.176 394.632 566.264 394.866 566.264 395.147C566.264 395.417 566.176 395.643 566 395.824C565.83 396.006 565.578 396.097 565.244 396.097C564.91 396.097 564.658 396.006 564.488 395.824C564.324 395.643 564.242 395.417 564.242 395.147ZM564.251 387.387C564.251 387.105 564.333 386.871 564.497 386.684C564.667 386.496 564.919 386.402 565.253 386.402C565.587 386.402 565.839 386.496 566.009 386.684C566.185 386.871 566.272 387.105 566.272 387.387C566.272 387.656 566.185 387.882 566.009 388.063C565.839 388.245 565.587 388.336 565.253 388.336C564.919 388.336 564.667 388.245 564.497 388.063C564.333 387.882 564.251 387.656 564.251 387.387ZM579.333 383.194V384.574H579.034C577.769 384.598 576.761 384.973 576.011 385.699C575.261 386.426 574.827 387.448 574.71 388.767C575.384 387.993 576.304 387.606 577.47 387.606C578.583 387.606 579.471 387.999 580.133 388.784C580.801 389.569 581.135 390.583 581.135 391.825C581.135 393.144 580.774 394.198 580.054 394.989C579.339 395.78 578.378 396.176 577.171 396.176C575.946 396.176 574.953 395.707 574.191 394.77C573.43 393.826 573.049 392.613 573.049 391.131V390.507C573.049 388.151 573.55 386.353 574.552 385.11C575.56 383.862 577.057 383.224 579.043 383.194H579.333ZM577.197 388.96C576.641 388.96 576.128 389.127 575.659 389.461C575.19 389.795 574.865 390.214 574.684 390.718V391.315C574.684 392.37 574.921 393.22 575.396 393.864C575.87 394.509 576.462 394.831 577.171 394.831C577.903 394.831 578.478 394.562 578.894 394.022C579.315 393.483 579.526 392.777 579.526 391.904C579.526 391.025 579.312 390.316 578.885 389.777C578.463 389.232 577.9 388.96 577.197 388.96ZM591.084 390.542C591.084 392.446 590.759 393.861 590.108 394.787C589.458 395.713 588.441 396.176 587.059 396.176C585.693 396.176 584.683 395.725 584.026 394.822C583.37 393.914 583.03 392.561 583.007 390.762V388.591C583.007 386.71 583.332 385.312 583.982 384.398C584.633 383.484 585.652 383.027 587.041 383.027C588.418 383.027 589.432 383.47 590.082 384.354C590.732 385.233 591.066 386.593 591.084 388.433V390.542ZM589.458 388.318C589.458 386.941 589.265 385.939 588.878 385.312C588.491 384.68 587.879 384.363 587.041 384.363C586.209 384.363 585.603 384.677 585.222 385.304C584.841 385.931 584.645 386.895 584.633 388.195V390.797C584.633 392.18 584.832 393.202 585.23 393.864C585.635 394.521 586.244 394.849 587.059 394.849C587.861 394.849 588.456 394.538 588.843 393.917C589.235 393.296 589.44 392.317 589.458 390.981V388.318ZM601.367 391.351C601.367 392.798 601.036 393.964 600.374 394.849C599.712 395.733 598.815 396.176 597.685 396.176C596.53 396.176 595.622 395.81 594.96 395.077V399.656H593.334V386.49H594.819L594.898 387.545C595.561 386.725 596.48 386.314 597.658 386.314C598.801 386.314 599.703 386.745 600.365 387.606C601.033 388.468 601.367 389.666 601.367 391.201V391.351ZM599.741 391.166C599.741 390.094 599.513 389.247 599.056 388.626C598.599 388.005 597.972 387.694 597.175 387.694C596.19 387.694 595.452 388.131 594.96 389.004V393.548C595.446 394.415 596.19 394.849 597.192 394.849C597.972 394.849 598.59 394.541 599.047 393.926C599.51 393.305 599.741 392.385 599.741 391.166ZM606.491 389.962L608.601 386.49H610.499L607.388 391.192L610.596 396H608.715L606.518 392.44L604.32 396H602.431L605.639 391.192L602.527 386.49H604.408L606.491 389.962Z" fill="black"/>
<path d="M53.6464 67.6464C53.4512 67.8417 53.4512 68.1583 53.6464 68.3536L56.8284 71.5355C57.0237 71.7308 57.3403 71.7308 57.5355 71.5355C57.7308 71.3403 57.7308 71.0237 57.5355 70.8284L54.7071 68L57.5355 65.1716C57.7308 64.9763 57.7308 64.6597 57.5355 64.4645C57.3403 64.2692 57.0237 64.2692 56.8284 64.4645L53.6464 67.6464ZM148.854 68.3536C149.049 68.1583 149.049 67.8417 148.854 67.6464L145.672 64.4645C145.476 64.2692 145.16 64.2692 144.964 64.4645C144.769 64.6597 144.769 64.9763 144.964 65.1716L147.793 68L144.964 70.8284C144.769 71.0237 144.769 71.3403 144.964 71.5355C145.16 71.7308 145.476 71.7308 145.672 71.5355L148.854 68.3536ZM54 68.5H148.5V67.5H54V68.5Z" fill="#E44D26"/>
<path d="M53.6464 340.646C53.4512 340.842 53.4512 341.158 53.6464 341.354L56.8284 344.536C57.0237 344.731 57.3403 344.731 57.5355 344.536C57.7308 344.34 57.7308 344.024 57.5355 343.828L54.7071 341L57.5355 338.172C57.7308 337.976 57.7308 337.66 57.5355 337.464C57.3403 337.269 57.0237 337.269 56.8284 337.464L53.6464 340.646ZM89.3536 341.354C89.5488 341.158 89.5488 340.842 89.3536 340.646L86.1716 337.464C85.9763 337.269 85.6597 337.269 85.4645 337.464C85.2692 337.66 85.2692 337.976 85.4645 338.172L88.2929 341L85.4645 343.828C85.2692 344.024 85.2692 344.34 85.4645 344.536C85.6597 344.731 85.9763 344.731 86.1716 344.536L89.3536 341.354ZM54 341.5H89V340.5H54V341.5Z" fill="#E44D26"/>
<path d="M508.646 340.646C508.451 340.842 508.451 341.158 508.646 341.354L511.828 344.536C512.024 344.731 512.34 344.731 512.536 344.536C512.731 344.34 512.731 344.024 512.536 343.828L509.707 341L512.536 338.172C512.731 337.976 512.731 337.66 512.536 337.464C512.34 337.269 512.024 337.269 511.828 337.464L508.646 340.646ZM564.354 341.354C564.549 341.158 564.549 340.842 564.354 340.646L561.172 337.464C560.976 337.269 560.66 337.269 560.464 337.464C560.269 337.66 560.269 337.976 560.464 338.172L563.293 341L560.464 343.828C560.269 344.024 560.269 344.34 560.464 344.536C560.66 344.731 560.976 344.731 561.172 344.536L564.354 341.354ZM509 341.5H564V340.5H509V341.5Z" fill="#E44D26"/>
<path d="M488.646 67.6464C488.451 67.8417 488.451 68.1583 488.646 68.3536L491.828 71.5355C492.024 71.7308 492.34 71.7308 492.536 71.5355C492.731 71.3403 492.731 71.0237 492.536 70.8284L489.707 68L492.536 65.1716C492.731 64.9763 492.731 64.6597 492.536 64.4645C492.34 64.2692 492.024 64.2692 491.828 64.4645L488.646 67.6464ZM564.354 68.3535C564.549 68.1583 564.549 67.8417 564.354 67.6464L561.172 64.4645C560.976 64.2692 560.66 64.2692 560.464 64.4645C560.269 64.6597 560.269 64.9763 560.464 65.1716L563.293 68L560.464 70.8284C560.269 71.0237 560.269 71.3403 560.464 71.5355C560.66 71.7308 560.976 71.7308 561.172 71.5355L564.354 68.3535ZM489 68.5L564 68.5L564 67.5L489 67.5L489 68.5Z" fill="#E44D26"/>
<path d="M87.0615 63H84.751V55.6445L82.4814 56.3076V54.5576L86.8496 53.0469H87.0615V63ZM96.9736 58.9326C96.9736 60.277 96.6706 61.3138 96.0645 62.043C95.4629 62.7721 94.613 63.1367 93.5146 63.1367C92.4072 63.1367 91.5505 62.7699 90.9443 62.0361C90.3382 61.3024 90.0352 60.2679 90.0352 58.9326V57.1143C90.0352 55.7699 90.3359 54.7331 90.9375 54.0039C91.5436 53.2747 92.3981 52.9102 93.501 52.9102C94.6038 52.9102 95.4583 53.277 96.0645 54.0107C96.6706 54.7445 96.9736 55.7812 96.9736 57.1211V58.9326ZM94.6699 56.8203C94.6699 56.1048 94.5765 55.5716 94.3896 55.2207C94.2028 54.8652 93.9066 54.6875 93.501 54.6875C93.1045 54.6875 92.8151 54.8516 92.6328 55.1797C92.4551 55.5078 92.3594 56.0046 92.3457 56.6699V59.2129C92.3457 59.9557 92.4391 60.5003 92.626 60.8467C92.8128 61.1885 93.109 61.3594 93.5146 61.3594C93.9066 61.3594 94.196 61.193 94.3828 60.8604C94.5697 60.5231 94.6654 59.9967 94.6699 59.2812V56.8203ZM105.081 58.9326C105.081 60.277 104.778 61.3138 104.172 62.043C103.57 62.7721 102.72 63.1367 101.622 63.1367C100.515 63.1367 99.6579 62.7699 99.0518 62.0361C98.4456 61.3024 98.1426 60.2679 98.1426 58.9326V57.1143C98.1426 55.7699 98.4434 54.7331 99.0449 54.0039C99.651 53.2747 100.506 52.9102 101.608 52.9102C102.711 52.9102 103.566 53.277 104.172 54.0107C104.778 54.7445 105.081 55.7812 105.081 57.1211V58.9326ZM102.777 56.8203C102.777 56.1048 102.684 55.5716 102.497 55.2207C102.31 54.8652 102.014 54.6875 101.608 54.6875C101.212 54.6875 100.923 54.8516 100.74 55.1797C100.562 55.5078 100.467 56.0046 100.453 56.6699V59.2129C100.453 59.9557 100.547 60.5003 100.733 60.8467C100.92 61.1885 101.216 61.3594 101.622 61.3594C102.014 61.3594 102.303 61.193 102.49 60.8604C102.677 60.5231 102.773 59.9967 102.777 59.2812V56.8203ZM113.182 59.3564C113.182 60.5049 112.922 61.4232 112.402 62.1113C111.887 62.7949 111.19 63.1367 110.311 63.1367C109.632 63.1367 109.073 62.8883 108.636 62.3916V65.8438H106.332V55.6035H108.485L108.554 56.2871C108.996 55.7402 109.577 55.4668 110.297 55.4668C111.208 55.4668 111.917 55.804 112.423 56.4785C112.929 57.1484 113.182 58.0713 113.182 59.2471V59.3564ZM110.878 59.2129C110.878 57.9004 110.495 57.2441 109.729 57.2441C109.183 57.2441 108.818 57.4401 108.636 57.832V60.7441C108.836 61.1543 109.205 61.3594 109.743 61.3594C110.477 61.3594 110.855 60.7259 110.878 59.459V59.2129ZM117.092 57.6406L118.165 55.6035H120.558L118.609 59.2061L120.653 63H118.247L117.085 60.8125L115.943 63H113.523L115.574 59.2061L113.633 55.6035H116.053L117.092 57.6406Z" fill="#E44D26"/>
<path d="M62.0928 352.11H63.1045V353.888H62.0928V356H59.7891V353.888H55.9404L55.8037 352.479L59.7891 346.067V346.047H62.0928V352.11ZM57.998 352.11H59.7891V349.048L59.6455 349.28L57.998 352.11ZM71.0273 351.933C71.0273 353.277 70.7243 354.314 70.1182 355.043C69.5166 355.772 68.6667 356.137 67.5684 356.137C66.4609 356.137 65.6042 355.77 64.998 355.036C64.3919 354.302 64.0889 353.268 64.0889 351.933V350.114C64.0889 348.77 64.3896 347.733 64.9912 347.004C65.5973 346.275 66.4518 345.91 67.5547 345.91C68.6576 345.91 69.512 346.277 70.1182 347.011C70.7243 347.744 71.0273 348.781 71.0273 350.121V351.933ZM68.7236 349.82C68.7236 349.105 68.6302 348.572 68.4434 348.221C68.2565 347.865 67.9603 347.688 67.5547 347.688C67.1582 347.688 66.8688 347.852 66.6865 348.18C66.5088 348.508 66.4131 349.005 66.3994 349.67V352.213C66.3994 352.956 66.4928 353.5 66.6797 353.847C66.8665 354.188 67.1628 354.359 67.5684 354.359C67.9603 354.359 68.2497 354.193 68.4365 353.86C68.6234 353.523 68.7191 352.997 68.7236 352.281V349.82ZM79.1279 352.356C79.1279 353.505 78.8682 354.423 78.3486 355.111C77.8337 355.795 77.1364 356.137 76.2568 356.137C75.5778 356.137 75.0195 355.888 74.582 355.392V358.844H72.2783V348.604H74.4316L74.5 349.287C74.9421 348.74 75.5231 348.467 76.2432 348.467C77.1546 348.467 77.8633 348.804 78.3691 349.479C78.875 350.148 79.1279 351.071 79.1279 352.247V352.356ZM76.8242 352.213C76.8242 350.9 76.4414 350.244 75.6758 350.244C75.1289 350.244 74.7643 350.44 74.582 350.832V353.744C74.7826 354.154 75.1517 354.359 75.6895 354.359C76.4232 354.359 76.8014 353.726 76.8242 352.459V352.213ZM83.0381 350.641L84.1113 348.604H86.5039L84.5557 352.206L86.5996 356H84.1934L83.0312 353.812L81.8896 356H79.4697L81.5205 352.206L79.5791 348.604H81.999L83.0381 350.641Z" fill="#E44D26"/>
<path d="M526.573 345.903V347.715H526.471C525.609 347.715 524.901 347.922 524.345 348.337C523.793 348.747 523.454 349.319 523.326 350.053C523.846 349.542 524.502 349.287 525.295 349.287C526.156 349.287 526.842 349.602 527.353 350.23C527.863 350.859 528.118 351.684 528.118 352.705C528.118 353.339 527.968 353.92 527.667 354.448C527.371 354.977 526.954 355.392 526.416 355.692C525.883 355.989 525.29 356.137 524.639 356.137C523.932 356.137 523.301 355.977 522.745 355.658C522.189 355.335 521.756 354.874 521.446 354.277C521.136 353.68 520.977 352.992 520.968 352.213V351.29C520.968 350.265 521.187 349.344 521.624 348.528C522.066 347.708 522.695 347.065 523.511 346.601C524.326 346.136 525.231 345.903 526.225 345.903H526.573ZM524.495 351.051C524.19 351.051 523.935 351.121 523.729 351.263C523.524 351.404 523.372 351.577 523.271 351.782V352.473C523.271 353.73 523.707 354.359 524.577 354.359C524.928 354.359 525.22 354.202 525.452 353.888C525.689 353.573 525.808 353.179 525.808 352.705C525.808 352.217 525.687 351.821 525.445 351.516C525.208 351.206 524.892 351.051 524.495 351.051ZM536.027 351.933C536.027 353.277 535.724 354.314 535.118 355.043C534.517 355.772 533.667 356.137 532.568 356.137C531.461 356.137 530.604 355.77 529.998 355.036C529.392 354.302 529.089 353.268 529.089 351.933V350.114C529.089 348.77 529.39 347.733 529.991 347.004C530.597 346.275 531.452 345.91 532.555 345.91C533.658 345.91 534.512 346.277 535.118 347.011C535.724 347.744 536.027 348.781 536.027 350.121V351.933ZM533.724 349.82C533.724 349.105 533.63 348.572 533.443 348.221C533.257 347.865 532.96 347.688 532.555 347.688C532.158 347.688 531.869 347.852 531.687 348.18C531.509 348.508 531.413 349.005 531.399 349.67V352.213C531.399 352.956 531.493 353.5 531.68 353.847C531.867 354.188 532.163 354.359 532.568 354.359C532.96 354.359 533.25 354.193 533.437 353.86C533.623 353.523 533.719 352.997 533.724 352.281V349.82ZM544.128 352.356C544.128 353.505 543.868 354.423 543.349 355.111C542.834 355.795 542.136 356.137 541.257 356.137C540.578 356.137 540.02 355.888 539.582 355.392V358.844H537.278V348.604H539.432L539.5 349.287C539.942 348.74 540.523 348.467 541.243 348.467C542.155 348.467 542.863 348.804 543.369 349.479C543.875 350.148 544.128 351.071 544.128 352.247V352.356ZM541.824 352.213C541.824 350.9 541.441 350.244 540.676 350.244C540.129 350.244 539.764 350.44 539.582 350.832V353.744C539.783 354.154 540.152 354.359 540.689 354.359C541.423 354.359 541.801 353.726 541.824 352.459V352.213ZM548.038 350.641L549.111 348.604H551.504L549.556 352.206L551.6 356H549.193L548.031 353.812L546.89 356H544.47L546.521 352.206L544.579 348.604H546.999L548.038 350.641Z" fill="#E44D26"/>
<path d="M517.722 55.7061C517.722 56.1891 517.601 56.6152 517.359 56.9844C517.122 57.3535 516.794 57.6497 516.375 57.873C516.849 58.1055 517.225 58.4245 517.503 58.8301C517.781 59.2311 517.92 59.7074 517.92 60.2588C517.92 61.1475 517.612 61.8493 516.997 62.3643C516.386 62.8792 515.543 63.1367 514.468 63.1367C513.388 63.1367 512.535 62.8792 511.911 62.3643C511.287 61.8447 510.975 61.1429 510.975 60.2588C510.975 59.7256 511.111 59.2539 511.385 58.8438C511.658 58.4336 512.046 58.11 512.547 57.873C512.123 57.6497 511.79 57.3535 511.549 56.9844C511.307 56.6152 511.187 56.1891 511.187 55.7061C511.187 54.8402 511.48 54.1566 512.068 53.6553C512.656 53.154 513.449 52.9033 514.447 52.9033C515.454 52.9033 516.252 53.154 516.84 53.6553C517.428 54.1566 517.722 54.8402 517.722 55.7061ZM515.609 60.0742C515.609 59.6641 515.502 59.3496 515.288 59.1309C515.078 58.9076 514.8 58.7959 514.454 58.7959C514.108 58.7959 513.827 58.9076 513.613 59.1309C513.399 59.3496 513.292 59.6641 513.292 60.0742C513.292 60.4707 513.399 60.7852 513.613 61.0176C513.832 61.2454 514.117 61.3594 514.468 61.3594C514.81 61.3594 515.085 61.2454 515.295 61.0176C515.505 60.7897 515.609 60.4753 515.609 60.0742ZM514.447 54.6807C514.137 54.6807 513.9 54.7832 513.736 54.9883C513.577 55.1888 513.497 55.4691 513.497 55.8291C513.497 56.1846 513.579 56.4717 513.743 56.6904C513.907 56.9092 514.149 57.0186 514.468 57.0186C514.782 57.0186 515.017 56.9092 515.172 56.6904C515.331 56.4717 515.411 56.1846 515.411 55.8291C515.411 55.4736 515.329 55.1934 515.165 54.9883C515.006 54.7832 514.766 54.6807 514.447 54.6807ZM526.027 58.9326C526.027 60.277 525.724 61.3138 525.118 62.043C524.517 62.7721 523.667 63.1367 522.568 63.1367C521.461 63.1367 520.604 62.7699 519.998 62.0361C519.392 61.3024 519.089 60.2679 519.089 58.9326V57.1143C519.089 55.7699 519.39 54.7331 519.991 54.0039C520.597 53.2747 521.452 52.9102 522.555 52.9102C523.658 52.9102 524.512 53.277 525.118 54.0107C525.724 54.7445 526.027 55.7812 526.027 57.1211V58.9326ZM523.724 56.8203C523.724 56.1048 523.63 55.5716 523.443 55.2207C523.257 54.8652 522.96 54.6875 522.555 54.6875C522.158 54.6875 521.869 54.8516 521.687 55.1797C521.509 55.5078 521.413 56.0046 521.399 56.6699V59.2129C521.399 59.9557 521.493 60.5003 521.68 60.8467C521.867 61.1885 522.163 61.3594 522.568 61.3594C522.96 61.3594 523.25 61.193 523.437 60.8604C523.623 60.5231 523.719 59.9967 523.724 59.2812V56.8203ZM534.128 59.3564C534.128 60.5049 533.868 61.4232 533.349 62.1113C532.834 62.7949 532.136 63.1367 531.257 63.1367C530.578 63.1367 530.02 62.8883 529.582 62.3916V65.8438H527.278V55.6035H529.432L529.5 56.2871C529.942 55.7402 530.523 55.4668 531.243 55.4668C532.155 55.4668 532.863 55.804 533.369 56.4785C533.875 57.1484 534.128 58.0713 534.128 59.2471V59.3564ZM531.824 59.2129C531.824 57.9004 531.441 57.2441 530.676 57.2441C530.129 57.2441 529.764 57.4401 529.582 57.832V60.7441C529.783 61.1543 530.152 61.3594 530.689 61.3594C531.423 61.3594 531.801 60.7259 531.824 59.459V59.2129ZM538.038 57.6406L539.111 55.6035H541.504L539.556 59.2061L541.6 63H539.193L538.031 60.8125L536.89 63H534.47L536.521 59.2061L534.579 55.6035H536.999L538.038 57.6406Z" fill="#E44D26"/>
</svg>
