<svg width="560" height="400" viewBox="0 0 560 400" fill="none" xmlns="http://www.w3.org/2000/svg">
<rect width="560" height="400" fill="white"/>
<rect width="460" height="300" transform="translate(50 50)" fill="#1E73FF"/>
<rect width="360" height="200" transform="translate(100 100)" fill="#DDDDDD"/>
<rect width="260" height="100" transform="translate(150 150)" fill="white"/>
<path d="M251.23 204.92C251.751 204.92 252.174 204.777 252.5 204.49C252.826 204.204 252.995 203.823 253.008 203.348H255.654C255.648 204.064 255.452 204.721 255.068 205.32C254.684 205.913 254.157 206.375 253.486 206.707C252.822 207.033 252.087 207.195 251.279 207.195C249.769 207.195 248.577 206.717 247.705 205.76C246.833 204.796 246.396 203.468 246.396 201.775V201.59C246.396 199.962 246.829 198.663 247.695 197.693C248.561 196.723 249.749 196.238 251.26 196.238C252.581 196.238 253.639 196.616 254.434 197.371C255.234 198.12 255.641 199.119 255.654 200.369H253.008C252.995 199.822 252.826 199.38 252.5 199.041C252.174 198.696 251.745 198.523 251.211 198.523C250.553 198.523 250.055 198.764 249.717 199.246C249.385 199.721 249.219 200.496 249.219 201.57V201.863C249.219 202.951 249.385 203.732 249.717 204.207C250.049 204.682 250.553 204.92 251.23 204.92ZM256.826 201.619C256.826 200.571 257.028 199.637 257.432 198.816C257.835 197.996 258.415 197.361 259.17 196.912C259.932 196.463 260.814 196.238 261.816 196.238C263.242 196.238 264.404 196.674 265.303 197.547C266.208 198.419 266.712 199.604 266.816 201.102L266.836 201.824C266.836 203.445 266.383 204.747 265.479 205.73C264.574 206.707 263.359 207.195 261.836 207.195C260.312 207.195 259.095 206.707 258.184 205.73C257.279 204.754 256.826 203.426 256.826 201.746V201.619ZM259.648 201.824C259.648 202.827 259.837 203.595 260.215 204.129C260.592 204.656 261.133 204.92 261.836 204.92C262.52 204.92 263.053 204.66 263.438 204.139C263.822 203.611 264.014 202.771 264.014 201.619C264.014 200.636 263.822 199.874 263.438 199.334C263.053 198.794 262.513 198.523 261.816 198.523C261.126 198.523 260.592 198.794 260.215 199.334C259.837 199.868 259.648 200.698 259.648 201.824ZM271.172 196.434L271.26 197.654C272.015 196.71 273.027 196.238 274.297 196.238C275.417 196.238 276.25 196.567 276.797 197.225C277.344 197.882 277.624 198.865 277.637 200.174V207H274.814V200.242C274.814 199.643 274.684 199.21 274.424 198.943C274.163 198.67 273.73 198.533 273.125 198.533C272.331 198.533 271.735 198.872 271.338 199.549V207H268.516V196.434H271.172ZM283.164 193.836V196.434H284.971V198.504H283.164V203.777C283.164 204.168 283.239 204.448 283.389 204.617C283.538 204.786 283.825 204.871 284.248 204.871C284.561 204.871 284.837 204.848 285.078 204.803V206.941C284.525 207.111 283.955 207.195 283.369 207.195C281.39 207.195 280.381 206.196 280.342 204.197V198.504H278.799V196.434H280.342V193.836H283.164ZM291.406 207.195C289.857 207.195 288.594 206.72 287.617 205.77C286.647 204.819 286.162 203.553 286.162 201.971V201.697C286.162 200.636 286.367 199.689 286.777 198.855C287.188 198.016 287.767 197.371 288.516 196.922C289.271 196.466 290.13 196.238 291.094 196.238C292.539 196.238 293.675 196.694 294.502 197.605C295.335 198.517 295.752 199.809 295.752 201.482V202.635H289.023C289.115 203.325 289.388 203.878 289.844 204.295C290.306 204.712 290.889 204.92 291.592 204.92C292.679 204.92 293.529 204.526 294.141 203.738L295.527 205.291C295.104 205.89 294.531 206.359 293.809 206.697C293.086 207.029 292.285 207.195 291.406 207.195ZM291.084 198.523C290.524 198.523 290.068 198.712 289.717 199.09C289.372 199.467 289.15 200.008 289.053 200.711H292.979V200.486C292.965 199.861 292.796 199.38 292.471 199.041C292.145 198.696 291.683 198.523 291.084 198.523ZM299.961 196.434L300.049 197.654C300.804 196.71 301.816 196.238 303.086 196.238C304.206 196.238 305.039 196.567 305.586 197.225C306.133 197.882 306.413 198.865 306.426 200.174V207H303.604V200.242C303.604 199.643 303.473 199.21 303.213 198.943C302.952 198.67 302.52 198.533 301.914 198.533C301.12 198.533 300.524 198.872 300.127 199.549V207H297.305V196.434H299.961ZM311.953 193.836V196.434H313.76V198.504H311.953V203.777C311.953 204.168 312.028 204.448 312.178 204.617C312.327 204.786 312.614 204.871 313.037 204.871C313.35 204.871 313.626 204.848 313.867 204.803V206.941C313.314 207.111 312.744 207.195 312.158 207.195C310.179 207.195 309.17 206.196 309.131 204.197V198.504H307.588V196.434H309.131V193.836H311.953Z" fill="black"/>
<rect x="1.5" y="1.5" width="557" height="397" stroke="black" stroke-width="3" stroke-dasharray="3 2"/>
<path d="M481.649 162.55C480.196 162.55 479.027 162.216 478.143 161.548C477.264 160.88 476.824 159.983 476.824 158.858C476.824 157.657 477.249 156.729 478.099 156.072L477 155.993L477 154.499L490.5 154.499L490.5 156.125L485.464 156.125C486.278 156.781 486.686 157.687 486.686 158.841C486.686 159.995 486.249 160.9 485.376 161.557C484.503 162.219 483.308 162.55 481.79 162.55L481.649 162.55ZM481.834 160.924C482.941 160.924 483.797 160.71 484.4 160.282C485.004 159.854 485.306 159.239 485.306 158.437C485.306 157.364 484.808 156.594 483.812 156.125L479.698 156.125C478.702 156.623 478.204 157.399 478.204 158.454C478.204 159.233 478.506 159.84 479.109 160.273C479.713 160.707 480.621 160.924 481.834 160.924ZM481.843 164.176C482.774 164.176 483.612 164.357 484.356 164.721C485.101 165.09 485.675 165.6 486.079 166.25C486.483 166.906 486.686 167.653 486.686 168.491C486.686 169.786 486.237 170.832 485.341 171.629C484.444 172.432 483.252 172.833 481.764 172.833L481.649 172.833C480.724 172.833 479.892 172.654 479.153 172.297C478.421 171.945 477.85 171.438 477.439 170.776C477.029 170.12 476.824 169.364 476.824 168.509C476.824 167.22 477.272 166.174 478.169 165.371C479.065 164.574 480.252 164.176 481.729 164.176L481.843 164.176ZM481.649 165.811C480.595 165.811 479.748 166.054 479.109 166.54C478.471 167.032 478.151 167.688 478.151 168.509C478.151 169.335 478.474 169.991 479.118 170.478C479.769 170.964 480.677 171.207 481.843 171.207C482.886 171.207 483.729 170.958 484.374 170.46C485.024 169.968 485.35 169.312 485.35 168.491C485.35 167.688 485.03 167.041 484.392 166.549C483.753 166.057 482.839 165.811 481.649 165.811ZM485.051 179.469C485.092 179.223 485.112 178.956 485.112 178.669C485.112 177.603 484.658 176.879 483.75 176.498L477 176.498L477 174.872L486.51 174.872L486.51 176.454L485.411 176.48C486.261 177.014 486.686 177.77 486.686 178.748C486.686 179.064 486.645 179.305 486.562 179.469L485.051 179.469ZM481.834 180.4C483.293 180.4 484.465 180.746 485.35 181.437C486.24 182.129 486.686 183.034 486.686 184.153C486.686 185.267 486.305 186.148 485.543 186.799L490.5 186.799L490.5 188.425L477 188.425L477 186.931L478.02 186.852C477.223 186.201 476.824 185.296 476.824 184.136C476.824 183.034 477.275 182.135 478.178 181.437C479.08 180.746 480.258 180.4 481.711 180.4L481.834 180.4ZM481.649 182.026C480.571 182.026 479.728 182.249 479.118 182.694C478.509 183.14 478.204 183.755 478.204 184.54C478.204 185.571 478.667 186.324 479.593 186.799L483.961 186.799C484.857 186.312 485.306 185.565 485.306 184.558C485.306 183.761 484.998 183.14 484.383 182.694C483.768 182.249 482.856 182.026 481.649 182.026ZM476.824 194.902C476.824 193.613 477.246 192.564 478.09 191.756C478.939 190.947 480.073 190.543 481.491 190.543L481.79 190.543C482.733 190.543 483.574 190.722 484.312 191.079C485.057 191.442 485.637 191.946 486.053 192.591C486.475 193.241 486.686 193.944 486.686 194.7C486.686 195.937 486.278 196.897 485.464 197.583C484.649 198.269 483.483 198.611 481.966 198.611L481.289 198.611L481.289 192.169C480.352 192.192 479.593 192.465 479.013 192.986C478.438 193.514 478.151 194.182 478.151 194.99C478.151 195.564 478.269 196.051 478.503 196.449C478.737 196.848 479.048 197.196 479.435 197.495L478.661 198.488C477.437 197.691 476.824 196.496 476.824 194.902ZM485.35 194.7C485.35 194.044 485.109 193.493 484.629 193.048C484.154 192.603 483.486 192.327 482.625 192.222L482.625 196.985L482.748 196.985C483.574 196.938 484.213 196.716 484.664 196.317C485.121 195.919 485.35 195.38 485.35 194.7ZM485.051 205.098C485.092 204.852 485.112 204.585 485.112 204.298C485.112 203.231 484.658 202.508 483.75 202.127L477 202.127L477 200.501L486.51 200.501L486.51 202.083L485.411 202.109C486.261 202.643 486.686 203.398 486.686 204.377C486.686 204.693 486.645 204.934 486.562 205.098L485.051 205.098ZM481.772 209.984L481.772 205.695L483.1 205.695L483.1 209.984L481.772 209.984ZM485.051 216.172C485.092 215.926 485.112 215.659 485.112 215.372C485.112 214.306 484.658 213.582 483.75 213.201L477 213.201L477 211.575L486.51 211.575L486.51 213.157L485.411 213.184C486.261 213.717 486.686 214.473 486.686 215.451C486.686 215.768 486.645 216.008 486.562 216.172L485.051 216.172ZM477 219.441L477 217.815L486.51 217.815L486.51 219.441L477 219.441ZM489.032 217.684C489.296 217.684 489.519 217.763 489.7 217.921C489.882 218.085 489.973 218.325 489.973 218.642C489.973 218.958 489.882 219.198 489.7 219.362C489.519 219.526 489.296 219.608 489.032 219.608C488.769 219.608 488.549 219.526 488.373 219.362C488.197 219.198 488.109 218.958 488.109 218.642C488.109 218.325 488.197 218.085 488.373 217.921C488.549 217.763 488.769 217.684 489.032 217.684ZM481.834 221.665C483.316 221.665 484.494 222.008 485.367 222.693C486.246 223.379 486.686 224.287 486.686 225.418C486.686 226.578 486.275 227.483 485.455 228.134L486.51 228.213L486.51 229.698L477.229 229.698C475.998 229.698 475.028 229.332 474.319 228.6C473.61 227.873 473.256 226.895 473.256 225.664C473.256 224.979 473.402 224.308 473.695 223.651C473.988 222.995 474.39 222.494 474.899 222.148L475.875 222.992C475.014 223.689 474.583 224.542 474.583 225.55C474.583 226.341 474.806 226.956 475.251 227.396C475.696 227.841 476.323 228.063 477.132 228.063L477.949 228.063C477.199 227.413 476.824 226.525 476.824 225.4C476.824 224.287 477.272 223.385 478.169 222.693C479.065 222.008 480.287 221.665 481.834 221.665ZM481.649 223.3C480.577 223.3 479.733 223.52 479.118 223.959C478.509 224.398 478.204 225.014 478.204 225.805C478.204 226.83 478.67 227.583 479.602 228.063L483.943 228.063C484.852 227.565 485.306 226.818 485.306 225.822C485.306 225.031 484.998 224.413 484.383 223.968C483.768 223.522 482.856 223.3 481.649 223.3ZM485.358 233.785C486.243 234.506 486.686 235.443 486.686 236.598C486.686 238.607 485.552 239.621 483.284 239.639L477 239.639L477 238.013L483.293 238.013C483.979 238.007 484.485 237.849 484.813 237.538C485.142 237.233 485.306 236.756 485.306 236.105C485.306 235.578 485.165 235.115 484.884 234.717C484.603 234.318 484.233 234.008 483.776 233.785L477 233.785L477 232.159L490.5 232.159L490.5 233.785L485.358 233.785ZM488.812 244.279L486.51 244.279L486.51 246.055L485.253 246.055L485.253 244.279L479.355 244.279C478.975 244.279 478.687 244.358 478.494 244.517C478.307 244.675 478.213 244.944 478.213 245.325C478.213 245.513 478.248 245.771 478.318 246.099L477 246.099C476.883 245.671 476.824 245.255 476.824 244.851C476.824 244.124 477.044 243.576 477.483 243.207C477.923 242.838 478.547 242.653 479.355 242.653L485.253 242.653L485.253 240.922L486.51 240.922L486.51 242.653L488.812 242.653L488.812 244.279Z" fill="white"/>
<path d="M75.3506 232.291C76.8037 232.291 77.9727 232.625 78.8574 233.293C79.7363 233.961 80.1758 234.857 80.1758 235.982C80.1758 237.184 79.751 238.112 78.9014 238.769L80 238.848L80 240.342L66.5 240.342L66.5 238.716L71.5361 238.716C70.7217 238.06 70.3145 237.154 70.3145 236C70.3145 234.846 70.751 233.94 71.624 233.284C72.4971 232.622 73.6924 232.291 75.21 232.291L75.3506 232.291ZM75.166 233.917C74.0586 233.917 73.2031 234.131 72.5996 234.559C71.9961 234.986 71.6943 235.602 71.6943 236.404C71.6943 237.477 72.1924 238.247 73.1885 238.716L77.3018 238.716C78.2979 238.218 78.7959 237.441 78.7959 236.387C78.7959 235.607 78.4941 235.001 77.8906 234.567C77.2871 234.134 76.3789 233.917 75.166 233.917ZM75.1572 230.665C74.2256 230.665 73.3877 230.483 72.6436 230.12C71.8994 229.751 71.3252 229.241 70.9209 228.591C70.5166 227.935 70.3145 227.188 70.3145 226.35C70.3145 225.055 70.7627 224.009 71.6592 223.212C72.5557 222.409 73.748 222.008 75.2363 222.008L75.3506 222.008C76.2764 222.008 77.1084 222.187 77.8467 222.544C78.5791 222.896 79.1504 223.402 79.5605 224.064C79.9707 224.721 80.1758 225.477 80.1758 226.332C80.1758 227.621 79.7275 228.667 78.8311 229.47C77.9346 230.267 76.748 230.665 75.2715 230.665L75.1572 230.665ZM75.3506 229.03C76.4053 229.03 77.252 228.787 77.8906 228.301C78.5293 227.809 78.8486 227.152 78.8486 226.332C78.8486 225.506 78.5264 224.85 77.8818 224.363C77.2314 223.877 76.3232 223.634 75.1572 223.634C74.1143 223.634 73.2705 223.883 72.626 224.381C71.9756 224.873 71.6504 225.529 71.6504 226.35C71.6504 227.152 71.9697 227.8 72.6084 228.292C73.2471 228.784 74.1611 229.03 75.3506 229.03ZM71.9492 215.372C71.9082 215.618 71.8877 215.885 71.8877 216.172C71.8877 217.238 72.3418 217.962 73.25 218.343L80 218.343L80 219.969L70.4902 219.969L70.4902 218.387L71.5889 218.36C70.7393 217.827 70.3145 217.071 70.3145 216.093C70.3145 215.776 70.3555 215.536 70.4375 215.372L71.9492 215.372ZM75.166 214.44C73.707 214.44 72.5352 214.095 71.6504 213.403C70.7598 212.712 70.3145 211.807 70.3145 210.688C70.3145 209.574 70.6953 208.692 71.457 208.042L66.5 208.042L66.5 206.416L80 206.416L80 207.91L78.9805 207.989C79.7773 208.64 80.1758 209.545 80.1758 210.705C80.1758 211.807 79.7246 212.706 78.8223 213.403C77.9199 214.095 76.7422 214.44 75.2891 214.44L75.166 214.44ZM75.3506 212.814C76.4287 212.814 77.2725 212.592 77.8818 212.146C78.4912 211.701 78.7959 211.086 78.7959 210.301C78.7959 209.27 78.333 208.517 77.4072 208.042L73.0391 208.042C72.1426 208.528 71.6943 209.275 71.6943 210.283C71.6943 211.08 72.002 211.701 72.6172 212.146C73.2324 212.592 74.1436 212.814 75.3506 212.814ZM80.1758 199.938C80.1758 201.228 79.7539 202.276 78.9102 203.085C78.0606 203.894 76.9268 204.298 75.5088 204.298L75.21 204.298C74.2666 204.298 73.4258 204.119 72.6875 203.762C71.9434 203.398 71.3633 202.895 70.9473 202.25C70.5254 201.6 70.3145 200.896 70.3145 200.141C70.3145 198.904 70.7217 197.943 71.5361 197.258C72.3506 196.572 73.5166 196.229 75.0342 196.229L75.7109 196.229L75.7109 202.672C76.6484 202.648 77.4072 202.376 77.9873 201.854C78.5615 201.327 78.8486 200.659 78.8486 199.851C78.8486 199.276 78.7315 198.79 78.4971 198.392C78.2627 197.993 77.9522 197.645 77.5654 197.346L78.3389 196.353C79.5635 197.149 80.1758 198.345 80.1758 199.938ZM71.6504 200.141C71.6504 200.797 71.8906 201.348 72.3711 201.793C72.8457 202.238 73.5137 202.514 74.375 202.619L74.375 197.855L74.252 197.855C73.4258 197.902 72.7871 198.125 72.3359 198.523C71.8789 198.922 71.6504 199.461 71.6504 200.141ZM71.9492 189.743C71.9082 189.989 71.8877 190.256 71.8877 190.543C71.8877 191.609 72.3418 192.333 73.25 192.714L80 192.714L80 194.34L70.4902 194.34L70.4902 192.758L71.5889 192.731C70.7393 192.198 70.3145 191.442 70.3145 190.464C70.3145 190.147 70.3555 189.907 70.4375 189.743L71.9492 189.743ZM75.2275 184.856L75.2275 189.146L73.9004 189.146L73.9004 184.856L75.2275 184.856ZM80 181.499L80 183.125L66.5 183.125L66.5 181.499L80 181.499ZM80.1758 174.942C80.1758 176.231 79.7539 177.28 78.9102 178.089C78.0606 178.897 76.9268 179.302 75.5088 179.302L75.21 179.302C74.2666 179.302 73.4258 179.123 72.6875 178.766C71.9434 178.402 71.3633 177.898 70.9473 177.254C70.5254 176.604 70.3145 175.9 70.3145 175.145C70.3145 173.908 70.7217 172.947 71.5361 172.262C72.3506 171.576 73.5166 171.233 75.0342 171.233L75.7109 171.233L75.7109 177.676C76.6484 177.652 77.4072 177.38 77.9873 176.858C78.5615 176.331 78.8486 175.663 78.8486 174.854C78.8486 174.28 78.7315 173.794 78.4971 173.396C78.2627 172.997 77.9522 172.648 77.5654 172.35L78.3389 171.356C79.5635 172.153 80.1758 173.349 80.1758 174.942ZM71.6504 175.145C71.6504 175.801 71.8906 176.352 72.3711 176.797C72.8457 177.242 73.5137 177.518 74.375 177.623L74.375 172.859L74.252 172.859C73.4258 172.906 72.7871 173.129 72.3359 173.527C71.8789 173.926 71.6504 174.465 71.6504 175.145ZM80 168.544L71.7471 168.544L71.7471 170.047L70.4902 170.047L70.4902 168.544L69.5147 168.544C68.4951 168.544 67.707 168.271 67.1504 167.727C66.5938 167.182 66.3154 166.411 66.3154 165.415C66.3154 165.04 66.3652 164.668 66.4649 164.299L67.7832 164.387C67.7305 164.662 67.7041 164.955 67.7041 165.266C67.7041 165.793 67.8594 166.2 68.1699 166.487C68.4746 166.774 68.9141 166.918 69.4883 166.918L70.4902 166.918L70.4902 164.888L71.7471 164.888L71.7471 166.918L80 166.918L80 168.544ZM68.1875 160.88L70.4902 160.88L70.4902 159.104L71.7471 159.104L71.7471 160.88L77.6445 160.88C78.0254 160.88 78.3125 160.801 78.5059 160.643C78.6934 160.484 78.7871 160.215 78.7871 159.834C78.7871 159.646 78.752 159.389 78.6817 159.061L80 159.061C80.1172 159.488 80.1758 159.904 80.1758 160.309C80.1758 161.035 79.9561 161.583 79.5166 161.952C79.0772 162.321 78.4531 162.506 77.6445 162.506L71.7471 162.506L71.7471 164.237L70.4902 164.237L70.4902 162.506L68.1875 162.506L68.1875 160.88Z" fill="white"/>
<path d="M254.802 368.49L254.846 369.545C255.543 368.725 256.483 368.314 257.667 368.314C258.997 368.314 259.902 368.824 260.383 369.844C260.699 369.387 261.109 369.018 261.613 368.736C262.123 368.455 262.724 368.314 263.415 368.314C265.501 368.314 266.562 369.419 266.597 371.628V378H264.971V371.725C264.971 371.045 264.815 370.538 264.505 370.204C264.194 369.864 263.673 369.694 262.94 369.694C262.337 369.694 261.836 369.876 261.438 370.239C261.039 370.597 260.808 371.08 260.743 371.689V378H259.108V371.769C259.108 370.386 258.432 369.694 257.078 369.694C256.012 369.694 255.282 370.148 254.89 371.057V378H253.264V368.49H254.802ZM274.929 378C274.835 377.812 274.759 377.479 274.7 376.998C273.944 377.783 273.042 378.176 271.993 378.176C271.056 378.176 270.285 377.912 269.682 377.385C269.084 376.852 268.785 376.178 268.785 375.363C268.785 374.373 269.16 373.605 269.91 373.061C270.666 372.51 271.727 372.234 273.092 372.234H274.674V371.487C274.674 370.919 274.504 370.468 274.164 370.134C273.824 369.794 273.323 369.624 272.661 369.624C272.081 369.624 271.595 369.771 271.202 370.063C270.81 370.356 270.613 370.711 270.613 371.127H268.979C268.979 370.652 269.146 370.195 269.479 369.756C269.819 369.311 270.276 368.959 270.851 368.701C271.431 368.443 272.066 368.314 272.758 368.314C273.854 368.314 274.712 368.59 275.333 369.141C275.954 369.686 276.276 370.438 276.3 371.399V375.776C276.3 376.649 276.411 377.344 276.634 377.859V378H274.929ZM272.23 376.761C272.74 376.761 273.224 376.629 273.681 376.365C274.138 376.102 274.469 375.759 274.674 375.337V373.386H273.399C271.407 373.386 270.411 373.969 270.411 375.135C270.411 375.645 270.581 376.043 270.921 376.33C271.261 376.617 271.697 376.761 272.23 376.761ZM283.445 369.949C283.199 369.908 282.933 369.888 282.646 369.888C281.579 369.888 280.855 370.342 280.475 371.25V378H278.849V368.49H280.431L280.457 369.589C280.99 368.739 281.746 368.314 282.725 368.314C283.041 368.314 283.281 368.355 283.445 368.438V369.949ZM284.386 373.166C284.386 371.684 284.729 370.506 285.414 369.633C286.1 368.754 287.008 368.314 288.139 368.314C289.299 368.314 290.204 368.725 290.854 369.545L290.934 368.49H292.419V377.771C292.419 379.002 292.053 379.972 291.32 380.681C290.594 381.39 289.615 381.744 288.385 381.744C287.699 381.744 287.028 381.598 286.372 381.305C285.716 381.012 285.215 380.61 284.869 380.101L285.713 379.125C286.41 379.986 287.263 380.417 288.271 380.417C289.062 380.417 289.677 380.194 290.116 379.749C290.562 379.304 290.784 378.677 290.784 377.868V377.051C290.134 377.801 289.246 378.176 288.121 378.176C287.008 378.176 286.105 377.728 285.414 376.831C284.729 375.935 284.386 374.713 284.386 373.166ZM286.021 373.351C286.021 374.423 286.24 375.267 286.68 375.882C287.119 376.491 287.734 376.796 288.525 376.796C289.551 376.796 290.304 376.33 290.784 375.398V371.057C290.286 370.148 289.539 369.694 288.543 369.694C287.752 369.694 287.134 370.002 286.688 370.617C286.243 371.232 286.021 372.144 286.021 373.351ZM296.646 378H295.021V368.49H296.646V378ZM294.889 365.968C294.889 365.704 294.968 365.481 295.126 365.3C295.29 365.118 295.53 365.027 295.847 365.027C296.163 365.027 296.403 365.118 296.567 365.3C296.731 365.481 296.813 365.704 296.813 365.968C296.813 366.231 296.731 366.451 296.567 366.627C296.403 366.803 296.163 366.891 295.847 366.891C295.53 366.891 295.29 366.803 295.126 366.627C294.968 366.451 294.889 366.231 294.889 365.968ZM300.795 368.49L300.848 369.686C301.574 368.771 302.523 368.314 303.695 368.314C305.705 368.314 306.719 369.448 306.736 371.716V378H305.11V371.707C305.104 371.021 304.946 370.515 304.636 370.187C304.331 369.858 303.854 369.694 303.203 369.694C302.676 369.694 302.213 369.835 301.814 370.116C301.416 370.397 301.105 370.767 300.883 371.224V378H299.257V368.49H300.795Z" fill="white"/>
<path d="M247.7 77.3506C247.7 78.8037 247.366 79.9727 246.698 80.8574C246.03 81.7363 245.134 82.1758 244.009 82.1758C242.808 82.1758 241.879 81.751 241.223 80.9014L241.144 82H239.649V68.5H241.275V73.5361C241.932 72.7217 242.837 72.3145 243.991 72.3145C245.146 72.3145 246.051 72.751 246.707 73.624C247.369 74.4971 247.7 75.6924 247.7 77.21V77.3506ZM246.074 77.166C246.074 76.0586 245.86 75.2031 245.433 74.5996C245.005 73.9961 244.39 73.6943 243.587 73.6943C242.515 73.6943 241.744 74.1924 241.275 75.1885V79.3018C241.773 80.2979 242.55 80.7959 243.604 80.7959C244.384 80.7959 244.99 80.4941 245.424 79.8906C245.857 79.2871 246.074 78.3789 246.074 77.166ZM249.326 77.1572C249.326 76.2256 249.508 75.3877 249.871 74.6436C250.24 73.8994 250.75 73.3252 251.4 72.9209C252.057 72.5166 252.804 72.3145 253.642 72.3145C254.937 72.3145 255.982 72.7627 256.779 73.6592C257.582 74.5557 257.983 75.748 257.983 77.2363V77.3506C257.983 78.2764 257.805 79.1084 257.447 79.8467C257.096 80.5791 256.589 81.1504 255.927 81.5605C255.271 81.9707 254.515 82.1758 253.659 82.1758C252.37 82.1758 251.324 81.7275 250.521 80.8311C249.725 79.9346 249.326 78.748 249.326 77.2715V77.1572ZM250.961 77.3506C250.961 78.4053 251.204 79.252 251.69 79.8906C252.183 80.5293 252.839 80.8486 253.659 80.8486C254.485 80.8486 255.142 80.5264 255.628 79.8818C256.114 79.2314 256.357 78.3232 256.357 77.1572C256.357 76.1143 256.108 75.2705 255.61 74.626C255.118 73.9756 254.462 73.6504 253.642 73.6504C252.839 73.6504 252.191 73.9697 251.699 74.6084C251.207 75.2471 250.961 76.1611 250.961 77.3506ZM264.619 73.9492C264.373 73.9082 264.106 73.8877 263.819 73.8877C262.753 73.8877 262.029 74.3418 261.648 75.25V82H260.022V72.4902H261.604L261.631 73.5889C262.164 72.7393 262.92 72.3145 263.898 72.3145C264.215 72.3145 264.455 72.3555 264.619 72.4375V73.9492ZM265.551 77.166C265.551 75.707 265.896 74.5352 266.588 73.6504C267.279 72.7598 268.185 72.3145 269.304 72.3145C270.417 72.3145 271.299 72.6953 271.949 73.457V68.5H273.575V82H272.081L272.002 80.9805C271.352 81.7773 270.446 82.1758 269.286 82.1758C268.185 82.1758 267.285 81.7246 266.588 80.8223C265.896 79.9199 265.551 78.7422 265.551 77.2891V77.166ZM267.177 77.3506C267.177 78.4287 267.399 79.2725 267.845 79.8818C268.29 80.4912 268.905 80.7959 269.69 80.7959C270.722 80.7959 271.475 80.333 271.949 79.4072V75.0391C271.463 74.1426 270.716 73.6943 269.708 73.6943C268.911 73.6943 268.29 74.002 267.845 74.6172C267.399 75.2324 267.177 76.1436 267.177 77.3506ZM280.053 82.1758C278.764 82.1758 277.715 81.7539 276.906 80.9102C276.098 80.0605 275.693 78.9268 275.693 77.5088V77.21C275.693 76.2666 275.872 75.4258 276.229 74.6875C276.593 73.9434 277.097 73.3633 277.741 72.9473C278.392 72.5254 279.095 72.3145 279.851 72.3145C281.087 72.3145 282.048 72.7217 282.733 73.5361C283.419 74.3506 283.762 75.5166 283.762 77.0342V77.7109H277.319C277.343 78.6484 277.615 79.4072 278.137 79.9873C278.664 80.5615 279.332 80.8486 280.141 80.8486C280.715 80.8486 281.201 80.7314 281.6 80.4971C281.998 80.2627 282.347 79.9521 282.646 79.5654L283.639 80.3389C282.842 81.5635 281.646 82.1758 280.053 82.1758ZM279.851 73.6504C279.194 73.6504 278.644 73.8906 278.198 74.3711C277.753 74.8457 277.478 75.5137 277.372 76.375H282.136V76.252C282.089 75.4258 281.866 74.7871 281.468 74.3359C281.069 73.8789 280.53 73.6504 279.851 73.6504ZM290.248 73.9492C290.002 73.9082 289.735 73.8877 289.448 73.8877C288.382 73.8877 287.658 74.3418 287.277 75.25V82H285.651V72.4902H287.233L287.26 73.5889C287.793 72.7393 288.549 72.3145 289.527 72.3145C289.844 72.3145 290.084 72.3555 290.248 72.4375V73.9492ZM295.135 77.2275H290.846V75.9004H295.135V77.2275ZM298.932 70.1875V72.4902H300.707V73.7471H298.932V79.6445C298.932 80.0254 299.011 80.3125 299.169 80.5059C299.327 80.6934 299.597 80.7871 299.978 80.7871C300.165 80.7871 300.423 80.752 300.751 80.6816V82C300.323 82.1172 299.907 82.1758 299.503 82.1758C298.776 82.1758 298.229 81.9561 297.859 81.5166C297.49 81.0771 297.306 80.4531 297.306 79.6445V73.7471H295.574V72.4902H297.306V70.1875H298.932ZM302.008 77.1572C302.008 76.2256 302.189 75.3877 302.553 74.6436C302.922 73.8994 303.432 73.3252 304.082 72.9209C304.738 72.5166 305.485 72.3145 306.323 72.3145C307.618 72.3145 308.664 72.7627 309.461 73.6592C310.264 74.5557 310.665 75.748 310.665 77.2363V77.3506C310.665 78.2764 310.486 79.1084 310.129 79.8467C309.777 80.5791 309.271 81.1504 308.608 81.5605C307.952 81.9707 307.196 82.1758 306.341 82.1758C305.052 82.1758 304.006 81.7275 303.203 80.8311C302.406 79.9346 302.008 78.748 302.008 77.2715V77.1572ZM303.643 77.3506C303.643 78.4053 303.886 79.252 304.372 79.8906C304.864 80.5293 305.521 80.8486 306.341 80.8486C307.167 80.8486 307.823 80.5264 308.31 79.8818C308.796 79.2314 309.039 78.3232 309.039 77.1572C309.039 76.1143 308.79 75.2705 308.292 74.626C307.8 73.9756 307.144 73.6504 306.323 73.6504C305.521 73.6504 304.873 73.9697 304.381 74.6084C303.889 75.2471 303.643 76.1611 303.643 77.3506ZM320.737 77.3506C320.737 78.7979 320.406 79.9639 319.744 80.8486C319.082 81.7334 318.186 82.1758 317.055 82.1758C315.9 82.1758 314.992 81.8096 314.33 81.0771V85.6562H312.704V72.4902H314.189L314.269 73.5449C314.931 72.7246 315.851 72.3145 317.028 72.3145C318.171 72.3145 319.073 72.7451 319.735 73.6064C320.403 74.4678 320.737 75.666 320.737 77.2012V77.3506ZM319.111 77.166C319.111 76.0938 318.883 75.2471 318.426 74.626C317.969 74.0049 317.342 73.6943 316.545 73.6943C315.561 73.6943 314.822 74.1309 314.33 75.0039V79.5479C314.816 80.415 315.561 80.8486 316.562 80.8486C317.342 80.8486 317.96 80.541 318.417 79.9258C318.88 79.3047 319.111 78.3848 319.111 77.166Z" fill="white"/>
<path d="M231.73 323.351C231.73 324.804 231.396 325.973 230.729 326.857C230.061 327.736 229.164 328.176 228.039 328.176C226.838 328.176 225.909 327.751 225.253 326.901L225.174 328H223.68V314.5H225.306V319.536C225.962 318.722 226.867 318.314 228.021 318.314C229.176 318.314 230.081 318.751 230.737 319.624C231.399 320.497 231.73 321.692 231.73 323.21V323.351ZM230.104 323.166C230.104 322.059 229.891 321.203 229.463 320.6C229.035 319.996 228.42 319.694 227.617 319.694C226.545 319.694 225.774 320.192 225.306 321.188V325.302C225.804 326.298 226.58 326.796 227.635 326.796C228.414 326.796 229.021 326.494 229.454 325.891C229.888 325.287 230.104 324.379 230.104 323.166ZM233.356 323.157C233.356 322.226 233.538 321.388 233.901 320.644C234.271 319.899 234.78 319.325 235.431 318.921C236.087 318.517 236.834 318.314 237.672 318.314C238.967 318.314 240.013 318.763 240.81 319.659C241.612 320.556 242.014 321.748 242.014 323.236V323.351C242.014 324.276 241.835 325.108 241.478 325.847C241.126 326.579 240.619 327.15 239.957 327.561C239.301 327.971 238.545 328.176 237.689 328.176C236.4 328.176 235.354 327.728 234.552 326.831C233.755 325.935 233.356 324.748 233.356 323.271V323.157ZM234.991 323.351C234.991 324.405 235.234 325.252 235.721 325.891C236.213 326.529 236.869 326.849 237.689 326.849C238.516 326.849 239.172 326.526 239.658 325.882C240.145 325.231 240.388 324.323 240.388 323.157C240.388 322.114 240.139 321.271 239.641 320.626C239.148 319.976 238.492 319.65 237.672 319.65C236.869 319.65 236.222 319.97 235.729 320.608C235.237 321.247 234.991 322.161 234.991 323.351ZM248.649 319.949C248.403 319.908 248.137 319.888 247.85 319.888C246.783 319.888 246.06 320.342 245.679 321.25V328H244.053V318.49H245.635L245.661 319.589C246.194 318.739 246.95 318.314 247.929 318.314C248.245 318.314 248.485 318.355 248.649 318.438V319.949ZM249.581 323.166C249.581 321.707 249.927 320.535 250.618 319.65C251.31 318.76 252.215 318.314 253.334 318.314C254.447 318.314 255.329 318.695 255.979 319.457V314.5H257.605V328H256.111L256.032 326.98C255.382 327.777 254.477 328.176 253.316 328.176C252.215 328.176 251.315 327.725 250.618 326.822C249.927 325.92 249.581 324.742 249.581 323.289V323.166ZM251.207 323.351C251.207 324.429 251.43 325.272 251.875 325.882C252.32 326.491 252.936 326.796 253.721 326.796C254.752 326.796 255.505 326.333 255.979 325.407V321.039C255.493 320.143 254.746 319.694 253.738 319.694C252.941 319.694 252.32 320.002 251.875 320.617C251.43 321.232 251.207 322.144 251.207 323.351ZM264.083 328.176C262.794 328.176 261.745 327.754 260.937 326.91C260.128 326.061 259.724 324.927 259.724 323.509V323.21C259.724 322.267 259.902 321.426 260.26 320.688C260.623 319.943 261.127 319.363 261.771 318.947C262.422 318.525 263.125 318.314 263.881 318.314C265.117 318.314 266.078 318.722 266.764 319.536C267.449 320.351 267.792 321.517 267.792 323.034V323.711H261.35C261.373 324.648 261.646 325.407 262.167 325.987C262.694 326.562 263.362 326.849 264.171 326.849C264.745 326.849 265.231 326.731 265.63 326.497C266.028 326.263 266.377 325.952 266.676 325.565L267.669 326.339C266.872 327.563 265.677 328.176 264.083 328.176ZM263.881 319.65C263.225 319.65 262.674 319.891 262.229 320.371C261.783 320.846 261.508 321.514 261.402 322.375H266.166V322.252C266.119 321.426 265.896 320.787 265.498 320.336C265.1 319.879 264.561 319.65 263.881 319.65ZM274.278 319.949C274.032 319.908 273.766 319.888 273.479 319.888C272.412 319.888 271.688 320.342 271.308 321.25V328H269.682V318.49H271.264L271.29 319.589C271.823 318.739 272.579 318.314 273.558 318.314C273.874 318.314 274.114 318.355 274.278 318.438V319.949ZM279.165 323.228H274.876V321.9H279.165V323.228ZM288.807 323.351C288.807 324.804 288.473 325.973 287.805 326.857C287.137 327.736 286.24 328.176 285.115 328.176C283.914 328.176 282.985 327.751 282.329 326.901L282.25 328H280.756V314.5H282.382V319.536C283.038 318.722 283.943 318.314 285.098 318.314C286.252 318.314 287.157 318.751 287.813 319.624C288.476 320.497 288.807 321.692 288.807 323.21V323.351ZM287.181 323.166C287.181 322.059 286.967 321.203 286.539 320.6C286.111 319.996 285.496 319.694 284.693 319.694C283.621 319.694 282.851 320.192 282.382 321.188V325.302C282.88 326.298 283.656 326.796 284.711 326.796C285.49 326.796 286.097 326.494 286.53 325.891C286.964 325.287 287.181 324.379 287.181 323.166ZM290.433 323.157C290.433 322.226 290.614 321.388 290.978 320.644C291.347 319.899 291.856 319.325 292.507 318.921C293.163 318.517 293.91 318.314 294.748 318.314C296.043 318.314 297.089 318.763 297.886 319.659C298.688 320.556 299.09 321.748 299.09 323.236V323.351C299.09 324.276 298.911 325.108 298.554 325.847C298.202 326.579 297.695 327.15 297.033 327.561C296.377 327.971 295.621 328.176 294.766 328.176C293.477 328.176 292.431 327.728 291.628 326.831C290.831 325.935 290.433 324.748 290.433 323.271V323.157ZM292.067 323.351C292.067 324.405 292.311 325.252 292.797 325.891C293.289 326.529 293.945 326.849 294.766 326.849C295.592 326.849 296.248 326.526 296.734 325.882C297.221 325.231 297.464 324.323 297.464 323.157C297.464 322.114 297.215 321.271 296.717 320.626C296.225 319.976 295.568 319.65 294.748 319.65C293.945 319.65 293.298 319.97 292.806 320.608C292.313 321.247 292.067 322.161 292.067 323.351ZM303.335 316.188V318.49H305.11V319.747H303.335V325.645C303.335 326.025 303.414 326.312 303.572 326.506C303.73 326.693 304 326.787 304.381 326.787C304.568 326.787 304.826 326.752 305.154 326.682V328C304.727 328.117 304.311 328.176 303.906 328.176C303.18 328.176 302.632 327.956 302.263 327.517C301.894 327.077 301.709 326.453 301.709 325.645V319.747H299.978V318.49H301.709V316.188H303.335ZM309.224 316.188V318.49H310.999V319.747H309.224V325.645C309.224 326.025 309.303 326.312 309.461 326.506C309.619 326.693 309.889 326.787 310.27 326.787C310.457 326.787 310.715 326.752 311.043 326.682V328C310.615 328.117 310.199 328.176 309.795 328.176C309.068 328.176 308.521 327.956 308.151 327.517C307.782 327.077 307.598 326.453 307.598 325.645V319.747H305.866V318.49H307.598V316.188H309.224ZM312.3 323.157C312.3 322.226 312.481 321.388 312.845 320.644C313.214 319.899 313.724 319.325 314.374 318.921C315.03 318.517 315.777 318.314 316.615 318.314C317.91 318.314 318.956 318.763 319.753 319.659C320.556 320.556 320.957 321.748 320.957 323.236V323.351C320.957 324.276 320.778 325.108 320.421 325.847C320.069 326.579 319.562 327.15 318.9 327.561C318.244 327.971 317.488 328.176 316.633 328.176C315.344 328.176 314.298 327.728 313.495 326.831C312.698 325.935 312.3 324.748 312.3 323.271V323.157ZM313.935 323.351C313.935 324.405 314.178 325.252 314.664 325.891C315.156 326.529 315.812 326.849 316.633 326.849C317.459 326.849 318.115 326.526 318.602 325.882C319.088 325.231 319.331 324.323 319.331 323.157C319.331 322.114 319.082 321.271 318.584 320.626C318.092 319.976 317.436 319.65 316.615 319.65C315.812 319.65 315.165 319.97 314.673 320.608C314.181 321.247 313.935 322.161 313.935 323.351ZM324.525 318.49L324.569 319.545C325.267 318.725 326.207 318.314 327.391 318.314C328.721 318.314 329.626 318.824 330.106 319.844C330.423 319.387 330.833 319.018 331.337 318.736C331.847 318.455 332.447 318.314 333.139 318.314C335.225 318.314 336.285 319.419 336.32 321.628V328H334.694V321.725C334.694 321.045 334.539 320.538 334.229 320.204C333.918 319.864 333.396 319.694 332.664 319.694C332.061 319.694 331.56 319.876 331.161 320.239C330.763 320.597 330.531 321.08 330.467 321.689V328H328.832V321.769C328.832 320.386 328.155 319.694 326.802 319.694C325.735 319.694 325.006 320.148 324.613 321.057V328H322.987V318.49H324.525Z" fill="white"/>
<path d="M257.446 273.351C257.446 274.798 257.115 275.964 256.453 276.849C255.791 277.733 254.895 278.176 253.764 278.176C252.609 278.176 251.701 277.81 251.039 277.077V281.656H249.413V268.49H250.898L250.978 269.545C251.64 268.725 252.56 268.314 253.737 268.314C254.88 268.314 255.782 268.745 256.444 269.606C257.112 270.468 257.446 271.666 257.446 273.201V273.351ZM255.82 273.166C255.82 272.094 255.592 271.247 255.135 270.626C254.678 270.005 254.051 269.694 253.254 269.694C252.27 269.694 251.531 270.131 251.039 271.004V275.548C251.525 276.415 252.27 276.849 253.271 276.849C254.051 276.849 254.669 276.541 255.126 275.926C255.589 275.305 255.82 274.385 255.82 273.166ZM265.392 278C265.298 277.812 265.222 277.479 265.163 276.998C264.407 277.783 263.505 278.176 262.456 278.176C261.519 278.176 260.748 277.912 260.145 277.385C259.547 276.852 259.248 276.178 259.248 275.363C259.248 274.373 259.623 273.605 260.373 273.061C261.129 272.51 262.189 272.234 263.555 272.234H265.137V271.487C265.137 270.919 264.967 270.468 264.627 270.134C264.287 269.794 263.786 269.624 263.124 269.624C262.544 269.624 262.058 269.771 261.665 270.063C261.272 270.356 261.076 270.711 261.076 271.127H259.441C259.441 270.652 259.608 270.195 259.942 269.756C260.282 269.311 260.739 268.959 261.313 268.701C261.894 268.443 262.529 268.314 263.221 268.314C264.316 268.314 265.175 268.59 265.796 269.141C266.417 269.686 266.739 270.438 266.763 271.399V275.776C266.763 276.649 266.874 277.344 267.097 277.859V278H265.392ZM262.693 276.761C263.203 276.761 263.687 276.629 264.144 276.365C264.601 276.102 264.932 275.759 265.137 275.337V273.386H263.862C261.87 273.386 260.874 273.969 260.874 275.135C260.874 275.645 261.044 276.043 261.384 276.33C261.724 276.617 262.16 276.761 262.693 276.761ZM268.916 273.166C268.916 271.707 269.262 270.535 269.953 269.65C270.645 268.76 271.55 268.314 272.669 268.314C273.782 268.314 274.664 268.695 275.314 269.457V264.5H276.94V278H275.446L275.367 276.98C274.717 277.777 273.812 278.176 272.651 278.176C271.55 278.176 270.65 277.725 269.953 276.822C269.262 275.92 268.916 274.742 268.916 273.289V273.166ZM270.542 273.351C270.542 274.429 270.765 275.272 271.21 275.882C271.655 276.491 272.271 276.796 273.056 276.796C274.087 276.796 274.84 276.333 275.314 275.407V271.039C274.828 270.143 274.081 269.694 273.073 269.694C272.276 269.694 271.655 270.002 271.21 270.617C270.765 271.232 270.542 272.144 270.542 273.351ZM279.076 273.166C279.076 271.707 279.422 270.535 280.113 269.65C280.805 268.76 281.71 268.314 282.829 268.314C283.942 268.314 284.824 268.695 285.475 269.457V264.5H287.101V278H285.606L285.527 276.98C284.877 277.777 283.972 278.176 282.812 278.176C281.71 278.176 280.811 277.725 280.113 276.822C279.422 275.92 279.076 274.742 279.076 273.289V273.166ZM280.702 273.351C280.702 274.429 280.925 275.272 281.37 275.882C281.815 276.491 282.431 276.796 283.216 276.796C284.247 276.796 285 276.333 285.475 275.407V271.039C284.988 270.143 284.241 269.694 283.233 269.694C282.437 269.694 281.815 270.002 281.37 270.617C280.925 271.232 280.702 272.144 280.702 273.351ZM291.398 278H289.772V268.49H291.398V278ZM289.641 265.968C289.641 265.704 289.72 265.481 289.878 265.3C290.042 265.118 290.282 265.027 290.599 265.027C290.915 265.027 291.155 265.118 291.319 265.3C291.483 265.481 291.565 265.704 291.565 265.968C291.565 266.231 291.483 266.451 291.319 266.627C291.155 266.803 290.915 266.891 290.599 266.891C290.282 266.891 290.042 266.803 289.878 266.627C289.72 266.451 289.641 266.231 289.641 265.968ZM295.547 268.49L295.6 269.686C296.326 268.771 297.275 268.314 298.447 268.314C300.457 268.314 301.471 269.448 301.488 271.716V278H299.862V271.707C299.856 271.021 299.698 270.515 299.388 270.187C299.083 269.858 298.605 269.694 297.955 269.694C297.428 269.694 296.965 269.835 296.566 270.116C296.168 270.397 295.857 270.767 295.635 271.224V278H294.009V268.49H295.547ZM303.554 273.166C303.554 271.684 303.896 270.506 304.582 269.633C305.268 268.754 306.176 268.314 307.307 268.314C308.467 268.314 309.372 268.725 310.022 269.545L310.102 268.49H311.587V277.771C311.587 279.002 311.221 279.972 310.488 280.681C309.762 281.39 308.783 281.744 307.553 281.744C306.867 281.744 306.196 281.598 305.54 281.305C304.884 281.012 304.383 280.61 304.037 280.101L304.881 279.125C305.578 279.986 306.431 280.417 307.438 280.417C308.229 280.417 308.845 280.194 309.284 279.749C309.729 279.304 309.952 278.677 309.952 277.868V277.051C309.302 277.801 308.414 278.176 307.289 278.176C306.176 278.176 305.273 277.728 304.582 276.831C303.896 275.935 303.554 274.713 303.554 273.166ZM305.188 273.351C305.188 274.423 305.408 275.267 305.848 275.882C306.287 276.491 306.902 276.796 307.693 276.796C308.719 276.796 309.472 276.33 309.952 275.398V271.057C309.454 270.148 308.707 269.694 307.711 269.694C306.92 269.694 306.302 270.002 305.856 270.617C305.411 271.232 305.188 272.144 305.188 273.351Z" fill="black"/>
</svg>
