<svg width="560" height="400" viewBox="0 0 560 400" fill="none" xmlns="http://www.w3.org/2000/svg">
<rect width="560" height="400" fill="white"/>
<rect width="460" height="300" transform="translate(50 50)" fill="#CCCCCC"/>
<rect width="360" height="200" transform="translate(100 100)" fill="#1E73FF"/>
<rect width="260" height="100" transform="translate(150 150)" fill="white"/>
<path d="M251.23 204.92C251.751 204.92 252.174 204.777 252.5 204.49C252.826 204.204 252.995 203.823 253.008 203.348H255.654C255.648 204.064 255.452 204.721 255.068 205.32C254.684 205.913 254.157 206.375 253.486 206.707C252.822 207.033 252.087 207.195 251.279 207.195C249.769 207.195 248.577 206.717 247.705 205.76C246.833 204.796 246.396 203.468 246.396 201.775V201.59C246.396 199.962 246.829 198.663 247.695 197.693C248.561 196.723 249.749 196.238 251.26 196.238C252.581 196.238 253.639 196.616 254.434 197.371C255.234 198.12 255.641 199.119 255.654 200.369H253.008C252.995 199.822 252.826 199.38 252.5 199.041C252.174 198.696 251.745 198.523 251.211 198.523C250.553 198.523 250.055 198.764 249.717 199.246C249.385 199.721 249.219 200.496 249.219 201.57V201.863C249.219 202.951 249.385 203.732 249.717 204.207C250.049 204.682 250.553 204.92 251.23 204.92ZM256.826 201.619C256.826 200.571 257.028 199.637 257.432 198.816C257.835 197.996 258.415 197.361 259.17 196.912C259.932 196.463 260.814 196.238 261.816 196.238C263.242 196.238 264.404 196.674 265.303 197.547C266.208 198.419 266.712 199.604 266.816 201.102L266.836 201.824C266.836 203.445 266.383 204.747 265.479 205.73C264.574 206.707 263.359 207.195 261.836 207.195C260.312 207.195 259.095 206.707 258.184 205.73C257.279 204.754 256.826 203.426 256.826 201.746V201.619ZM259.648 201.824C259.648 202.827 259.837 203.595 260.215 204.129C260.592 204.656 261.133 204.92 261.836 204.92C262.52 204.92 263.053 204.66 263.438 204.139C263.822 203.611 264.014 202.771 264.014 201.619C264.014 200.636 263.822 199.874 263.438 199.334C263.053 198.794 262.513 198.523 261.816 198.523C261.126 198.523 260.592 198.794 260.215 199.334C259.837 199.868 259.648 200.698 259.648 201.824ZM271.172 196.434L271.26 197.654C272.015 196.71 273.027 196.238 274.297 196.238C275.417 196.238 276.25 196.567 276.797 197.225C277.344 197.882 277.624 198.865 277.637 200.174V207H274.814V200.242C274.814 199.643 274.684 199.21 274.424 198.943C274.163 198.67 273.73 198.533 273.125 198.533C272.331 198.533 271.735 198.872 271.338 199.549V207H268.516V196.434H271.172ZM283.164 193.836V196.434H284.971V198.504H283.164V203.777C283.164 204.168 283.239 204.448 283.389 204.617C283.538 204.786 283.825 204.871 284.248 204.871C284.561 204.871 284.837 204.848 285.078 204.803V206.941C284.525 207.111 283.955 207.195 283.369 207.195C281.39 207.195 280.381 206.196 280.342 204.197V198.504H278.799V196.434H280.342V193.836H283.164ZM291.406 207.195C289.857 207.195 288.594 206.72 287.617 205.77C286.647 204.819 286.162 203.553 286.162 201.971V201.697C286.162 200.636 286.367 199.689 286.777 198.855C287.188 198.016 287.767 197.371 288.516 196.922C289.271 196.466 290.13 196.238 291.094 196.238C292.539 196.238 293.675 196.694 294.502 197.605C295.335 198.517 295.752 199.809 295.752 201.482V202.635H289.023C289.115 203.325 289.388 203.878 289.844 204.295C290.306 204.712 290.889 204.92 291.592 204.92C292.679 204.92 293.529 204.526 294.141 203.738L295.527 205.291C295.104 205.89 294.531 206.359 293.809 206.697C293.086 207.029 292.285 207.195 291.406 207.195ZM291.084 198.523C290.524 198.523 290.068 198.712 289.717 199.09C289.372 199.467 289.15 200.008 289.053 200.711H292.979V200.486C292.965 199.861 292.796 199.38 292.471 199.041C292.145 198.696 291.683 198.523 291.084 198.523ZM299.961 196.434L300.049 197.654C300.804 196.71 301.816 196.238 303.086 196.238C304.206 196.238 305.039 196.567 305.586 197.225C306.133 197.882 306.413 198.865 306.426 200.174V207H303.604V200.242C303.604 199.643 303.473 199.21 303.213 198.943C302.952 198.67 302.52 198.533 301.914 198.533C301.12 198.533 300.524 198.872 300.127 199.549V207H297.305V196.434H299.961ZM311.953 193.836V196.434H313.76V198.504H311.953V203.777C311.953 204.168 312.028 204.448 312.178 204.617C312.327 204.786 312.614 204.871 313.037 204.871C313.35 204.871 313.626 204.848 313.867 204.803V206.941C313.314 207.111 312.744 207.195 312.158 207.195C310.179 207.195 309.17 206.196 309.131 204.197V198.504H307.588V196.434H309.131V193.836H311.953Z" fill="black"/>
<rect x="1.5" y="1.5" width="557" height="397" stroke="black" stroke-width="3" stroke-dasharray="3 2"/>
<path d="M241.416 127.351C241.416 128.798 241.085 129.964 240.423 130.849C239.761 131.733 238.864 132.176 237.733 132.176C236.579 132.176 235.671 131.81 235.009 131.077V135.656H233.383V122.49H234.868L234.947 123.545C235.609 122.725 236.529 122.314 237.707 122.314C238.85 122.314 239.752 122.745 240.414 123.606C241.082 124.468 241.416 125.666 241.416 127.201V127.351ZM239.79 127.166C239.79 126.094 239.562 125.247 239.104 124.626C238.647 124.005 238.021 123.694 237.224 123.694C236.239 123.694 235.501 124.131 235.009 125.004V129.548C235.495 130.415 236.239 130.849 237.241 130.849C238.021 130.849 238.639 130.541 239.096 129.926C239.559 129.305 239.79 128.385 239.79 127.166ZM249.361 132C249.268 131.812 249.191 131.479 249.133 130.998C248.377 131.783 247.475 132.176 246.426 132.176C245.488 132.176 244.718 131.912 244.114 131.385C243.517 130.852 243.218 130.178 243.218 129.363C243.218 128.373 243.593 127.605 244.343 127.061C245.099 126.51 246.159 126.234 247.524 126.234H249.106V125.487C249.106 124.919 248.937 124.468 248.597 124.134C248.257 123.794 247.756 123.624 247.094 123.624C246.514 123.624 246.027 123.771 245.635 124.063C245.242 124.356 245.046 124.711 245.046 125.127H243.411C243.411 124.652 243.578 124.195 243.912 123.756C244.252 123.311 244.709 122.959 245.283 122.701C245.863 122.443 246.499 122.314 247.19 122.314C248.286 122.314 249.145 122.59 249.766 123.141C250.387 123.686 250.709 124.438 250.732 125.399V129.776C250.732 130.649 250.844 131.344 251.066 131.859V132H249.361ZM246.663 130.761C247.173 130.761 247.656 130.629 248.113 130.365C248.57 130.102 248.901 129.759 249.106 129.337V127.386H247.832C245.84 127.386 244.844 127.969 244.844 129.135C244.844 129.645 245.014 130.043 245.354 130.33C245.693 130.617 246.13 130.761 246.663 130.761ZM252.886 127.166C252.886 125.707 253.231 124.535 253.923 123.65C254.614 122.76 255.52 122.314 256.639 122.314C257.752 122.314 258.634 122.695 259.284 123.457V118.5H260.91V132H259.416L259.337 130.98C258.687 131.777 257.781 132.176 256.621 132.176C255.52 132.176 254.62 131.725 253.923 130.822C253.231 129.92 252.886 128.742 252.886 127.289V127.166ZM254.512 127.351C254.512 128.429 254.734 129.272 255.18 129.882C255.625 130.491 256.24 130.796 257.025 130.796C258.057 130.796 258.81 130.333 259.284 129.407V125.039C258.798 124.143 258.051 123.694 257.043 123.694C256.246 123.694 255.625 124.002 255.18 124.617C254.734 125.232 254.512 126.144 254.512 127.351ZM263.046 127.166C263.046 125.707 263.392 124.535 264.083 123.65C264.774 122.76 265.68 122.314 266.799 122.314C267.912 122.314 268.794 122.695 269.444 123.457V118.5H271.07V132H269.576L269.497 130.98C268.847 131.777 267.941 132.176 266.781 132.176C265.68 132.176 264.78 131.725 264.083 130.822C263.392 129.92 263.046 128.742 263.046 127.289V127.166ZM264.672 127.351C264.672 128.429 264.895 129.272 265.34 129.882C265.785 130.491 266.4 130.796 267.186 130.796C268.217 130.796 268.97 130.333 269.444 129.407V125.039C268.958 124.143 268.211 123.694 267.203 123.694C266.406 123.694 265.785 124.002 265.34 124.617C264.895 125.232 264.672 126.144 264.672 127.351ZM275.368 132H273.742V122.49H275.368V132ZM273.61 119.968C273.61 119.704 273.689 119.481 273.848 119.3C274.012 119.118 274.252 119.027 274.568 119.027C274.885 119.027 275.125 119.118 275.289 119.3C275.453 119.481 275.535 119.704 275.535 119.968C275.535 120.231 275.453 120.451 275.289 120.627C275.125 120.803 274.885 120.891 274.568 120.891C274.252 120.891 274.012 120.803 273.848 120.627C273.689 120.451 273.61 120.231 273.61 119.968ZM279.517 122.49L279.569 123.686C280.296 122.771 281.245 122.314 282.417 122.314C284.427 122.314 285.44 123.448 285.458 125.716V132H283.832V125.707C283.826 125.021 283.668 124.515 283.357 124.187C283.053 123.858 282.575 123.694 281.925 123.694C281.397 123.694 280.935 123.835 280.536 124.116C280.138 124.397 279.827 124.767 279.604 125.224V132H277.979V122.49H279.517ZM287.523 127.166C287.523 125.684 287.866 124.506 288.552 123.633C289.237 122.754 290.146 122.314 291.276 122.314C292.437 122.314 293.342 122.725 293.992 123.545L294.071 122.49H295.557V131.771C295.557 133.002 295.19 133.972 294.458 134.681C293.731 135.39 292.753 135.744 291.522 135.744C290.837 135.744 290.166 135.598 289.51 135.305C288.854 135.012 288.353 134.61 288.007 134.101L288.851 133.125C289.548 133.986 290.4 134.417 291.408 134.417C292.199 134.417 292.814 134.194 293.254 133.749C293.699 133.304 293.922 132.677 293.922 131.868V131.051C293.271 131.801 292.384 132.176 291.259 132.176C290.146 132.176 289.243 131.728 288.552 130.831C287.866 129.935 287.523 128.713 287.523 127.166ZM289.158 127.351C289.158 128.423 289.378 129.267 289.817 129.882C290.257 130.491 290.872 130.796 291.663 130.796C292.688 130.796 293.441 130.33 293.922 129.398V125.057C293.424 124.148 292.677 123.694 291.681 123.694C290.89 123.694 290.271 124.002 289.826 124.617C289.381 125.232 289.158 126.144 289.158 127.351ZM301.401 127.228H297.112V125.9H301.401V127.228ZM305.198 120.188V122.49H306.974V123.747H305.198V129.645C305.198 130.025 305.277 130.312 305.436 130.506C305.594 130.693 305.863 130.787 306.244 130.787C306.432 130.787 306.689 130.752 307.018 130.682V132C306.59 132.117 306.174 132.176 305.77 132.176C305.043 132.176 304.495 131.956 304.126 131.517C303.757 131.077 303.572 130.453 303.572 129.645V123.747H301.841V122.49H303.572V120.188H305.198ZM308.274 127.157C308.274 126.226 308.456 125.388 308.819 124.644C309.188 123.899 309.698 123.325 310.349 122.921C311.005 122.517 311.752 122.314 312.59 122.314C313.885 122.314 314.931 122.763 315.728 123.659C316.53 124.556 316.932 125.748 316.932 127.236V127.351C316.932 128.276 316.753 129.108 316.396 129.847C316.044 130.579 315.537 131.15 314.875 131.561C314.219 131.971 313.463 132.176 312.607 132.176C311.318 132.176 310.272 131.728 309.47 130.831C308.673 129.935 308.274 128.748 308.274 127.271V127.157ZM309.909 127.351C309.909 128.405 310.152 129.252 310.639 129.891C311.131 130.529 311.787 130.849 312.607 130.849C313.434 130.849 314.09 130.526 314.576 129.882C315.062 129.231 315.306 128.323 315.306 127.157C315.306 126.114 315.057 125.271 314.559 124.626C314.066 123.976 313.41 123.65 312.59 123.65C311.787 123.65 311.14 123.97 310.647 124.608C310.155 125.247 309.909 126.161 309.909 127.351ZM327.004 127.351C327.004 128.798 326.673 129.964 326.011 130.849C325.349 131.733 324.452 132.176 323.321 132.176C322.167 132.176 321.259 131.81 320.597 131.077V135.656H318.971V122.49H320.456L320.535 123.545C321.197 122.725 322.117 122.314 323.295 122.314C324.438 122.314 325.34 122.745 326.002 123.606C326.67 124.468 327.004 125.666 327.004 127.201V127.351ZM325.378 127.166C325.378 126.094 325.149 125.247 324.692 124.626C324.235 124.005 323.608 123.694 322.812 123.694C321.827 123.694 321.089 124.131 320.597 125.004V129.548C321.083 130.415 321.827 130.849 322.829 130.849C323.608 130.849 324.227 130.541 324.684 129.926C325.146 129.305 325.378 128.385 325.378 127.166Z" fill="white"/>
<path d="M432.649 156.266C431.202 156.266 430.036 155.935 429.151 155.272C428.267 154.61 427.824 153.714 427.824 152.583C427.824 151.429 428.19 150.521 428.923 149.858L424.344 149.858L424.344 148.232L437.51 148.232L437.51 149.718L436.455 149.797C437.275 150.459 437.686 151.379 437.686 152.557C437.686 153.699 437.255 154.602 436.394 155.264C435.532 155.932 434.334 156.266 432.799 156.266L432.649 156.266ZM432.834 154.64C433.906 154.64 434.753 154.411 435.374 153.954C435.995 153.497 436.306 152.87 436.306 152.073C436.306 151.089 435.869 150.351 434.996 149.858L430.452 149.858C429.585 150.345 429.151 151.089 429.151 152.091C429.151 152.87 429.459 153.488 430.074 153.945C430.695 154.408 431.615 154.64 432.834 154.64ZM428 164.211C428.187 164.117 428.521 164.041 429.002 163.982C428.217 163.227 427.824 162.324 427.824 161.275C427.824 160.338 428.088 159.567 428.615 158.964C429.148 158.366 429.822 158.067 430.637 158.067C431.627 158.067 432.395 158.442 432.939 159.192C433.49 159.948 433.766 161.009 433.766 162.374L433.766 163.956L434.513 163.956C435.081 163.956 435.532 163.786 435.866 163.446C436.206 163.106 436.376 162.605 436.376 161.943C436.376 161.363 436.229 160.877 435.937 160.484C435.644 160.092 435.289 159.896 434.873 159.896L434.873 158.261C435.348 158.261 435.805 158.428 436.244 158.762C436.689 159.102 437.041 159.559 437.299 160.133C437.557 160.713 437.686 161.349 437.686 162.04C437.686 163.136 437.41 163.994 436.859 164.615C436.314 165.236 435.562 165.559 434.601 165.582L430.224 165.582C429.351 165.582 428.656 165.693 428.141 165.916L428 165.916L428 164.211ZM429.239 161.513C429.239 162.022 429.371 162.506 429.635 162.963C429.898 163.42 430.241 163.751 430.663 163.956L432.614 163.956L432.614 162.682C432.614 160.689 432.031 159.693 430.865 159.693C430.355 159.693 429.957 159.863 429.67 160.203C429.383 160.543 429.239 160.979 429.239 161.513ZM432.834 167.735C434.293 167.735 435.465 168.081 436.35 168.772C437.24 169.464 437.686 170.369 437.686 171.488C437.686 172.602 437.305 173.483 436.543 174.134L441.5 174.134L441.5 175.76L428 175.76L428 174.266L429.02 174.187C428.223 173.536 427.824 172.631 427.824 171.471C427.824 170.369 428.275 169.47 429.178 168.772C430.08 168.081 431.258 167.735 432.711 167.735L432.834 167.735ZM432.649 169.361C431.571 169.361 430.728 169.584 430.118 170.029C429.509 170.475 429.204 171.09 429.204 171.875C429.204 172.906 429.667 173.659 430.593 174.134L434.961 174.134C435.857 173.647 436.306 172.9 436.306 171.893C436.306 171.096 435.998 170.475 435.383 170.029C434.768 169.584 433.856 169.361 432.649 169.361ZM432.834 177.896C434.293 177.896 435.465 178.241 436.35 178.933C437.24 179.624 437.686 180.529 437.686 181.648C437.686 182.762 437.305 183.644 436.543 184.294L441.5 184.294L441.5 185.92L428 185.92L428 184.426L429.02 184.347C428.223 183.696 427.824 182.791 427.824 181.631C427.824 180.529 428.275 179.63 429.178 178.933C430.08 178.241 431.258 177.896 432.711 177.896L432.834 177.896ZM432.649 179.521C431.571 179.521 430.728 179.744 430.118 180.189C429.509 180.635 429.204 181.25 429.204 182.035C429.204 183.066 429.667 183.819 430.593 184.294L434.961 184.294C435.857 183.808 436.306 183.061 436.306 182.053C436.306 181.256 435.998 180.635 435.383 180.189C434.768 179.744 433.856 179.521 432.649 179.521ZM428 190.218L428 188.592L437.51 188.592L437.51 190.218L428 190.218ZM440.032 188.46C440.296 188.46 440.519 188.539 440.7 188.697C440.882 188.861 440.973 189.102 440.973 189.418C440.973 189.734 440.882 189.975 440.7 190.139C440.519 190.303 440.296 190.385 440.032 190.385C439.769 190.385 439.549 190.303 439.373 190.139C439.197 189.975 439.109 189.734 439.109 189.418C439.109 189.102 439.197 188.861 439.373 188.697C439.549 188.539 439.769 188.46 440.032 188.46ZM437.51 194.366L436.314 194.419C437.229 195.146 437.686 196.095 437.686 197.267C437.686 199.276 436.552 200.29 434.284 200.308L428 200.308L428 198.682L434.293 198.682C434.979 198.676 435.485 198.518 435.813 198.207C436.142 197.902 436.306 197.425 436.306 196.774C436.306 196.247 436.165 195.784 435.884 195.386C435.603 194.987 435.233 194.677 434.776 194.454L428 194.454L428 192.828L437.51 192.828L437.51 194.366ZM432.834 202.373C434.316 202.373 435.494 202.716 436.367 203.401C437.246 204.087 437.686 204.995 437.686 206.126C437.686 207.286 437.275 208.191 436.455 208.842L437.51 208.921L437.51 210.406L428.229 210.406C426.998 210.406 426.028 210.04 425.319 209.308C424.61 208.581 424.256 207.603 424.256 206.372C424.256 205.687 424.402 205.016 424.695 204.359C424.988 203.703 425.39 203.202 425.899 202.856L426.875 203.7C426.014 204.397 425.583 205.25 425.583 206.258C425.583 207.049 425.806 207.664 426.251 208.104C426.696 208.549 427.323 208.771 428.132 208.771L428.949 208.771C428.199 208.121 427.824 207.233 427.824 206.108C427.824 204.995 428.272 204.093 429.169 203.401C430.065 202.716 431.287 202.373 432.834 202.373ZM432.649 204.008C431.577 204.008 430.733 204.228 430.118 204.667C429.509 205.106 429.204 205.722 429.204 206.513C429.204 207.538 429.67 208.291 430.602 208.771L434.943 208.771C435.852 208.273 436.306 207.526 436.306 206.53C436.306 205.739 435.998 205.121 435.383 204.676C434.768 204.23 433.856 204.008 432.649 204.008ZM432.772 216.251L432.772 211.962L434.1 211.962L434.1 216.251L432.772 216.251ZM436.051 222.438C436.092 222.192 436.112 221.926 436.112 221.639C436.112 220.572 435.658 219.849 434.75 219.468L428 219.468L428 217.842L437.51 217.842L437.51 219.424L436.411 219.45C437.261 219.983 437.686 220.739 437.686 221.718C437.686 222.034 437.645 222.274 437.562 222.438L436.051 222.438ZM428 225.708L428 224.082L437.51 224.082L437.51 225.708L428 225.708ZM440.032 223.95C440.296 223.95 440.519 224.029 440.7 224.187C440.882 224.352 440.973 224.592 440.973 224.908C440.973 225.225 440.882 225.465 440.7 225.629C440.519 225.793 440.296 225.875 440.032 225.875C439.769 225.875 439.549 225.793 439.373 225.629C439.197 225.465 439.109 225.225 439.109 224.908C439.109 224.592 439.197 224.352 439.373 224.187C439.549 224.029 439.769 223.95 440.032 223.95ZM432.834 227.932C434.316 227.932 435.494 228.274 436.367 228.96C437.246 229.646 437.686 230.554 437.686 231.685C437.686 232.845 437.275 233.75 436.455 234.4L437.51 234.479L437.51 235.965L428.229 235.965C426.998 235.965 426.028 235.599 425.319 234.866C424.61 234.14 424.256 233.161 424.256 231.931C424.256 231.245 424.402 230.574 424.695 229.918C424.988 229.262 425.39 228.761 425.899 228.415L426.875 229.259C426.014 229.956 425.583 230.809 425.583 231.816C425.583 232.607 425.806 233.223 426.251 233.662C426.696 234.107 427.323 234.33 428.132 234.33L428.949 234.33C428.199 233.68 427.824 232.792 427.824 231.667C427.824 230.554 428.272 229.651 429.169 228.96C430.065 228.274 431.287 227.932 432.834 227.932ZM432.649 229.566C431.577 229.566 430.733 229.786 430.118 230.226C429.509 230.665 429.204 231.28 429.204 232.071C429.204 233.097 429.67 233.85 430.602 234.33L434.943 234.33C435.852 233.832 436.306 233.085 436.306 232.089C436.306 231.298 435.998 230.68 435.383 230.234C434.768 229.789 433.856 229.566 432.649 229.566ZM436.358 240.052C437.243 240.772 437.686 241.71 437.686 242.864C437.686 244.874 436.552 245.888 434.284 245.905L428 245.905L428 244.279L434.293 244.279C434.979 244.273 435.485 244.115 435.813 243.805C436.142 243.5 436.306 243.022 436.306 242.372C436.306 241.845 436.165 241.382 435.884 240.983C435.603 240.585 435.233 240.274 434.776 240.052L428 240.052L428 238.426L441.5 238.426L441.5 240.052L436.358 240.052ZM439.812 250.546L437.51 250.546L437.51 252.321L436.253 252.321L436.253 250.546L430.355 250.546C429.975 250.546 429.687 250.625 429.494 250.783C429.307 250.941 429.213 251.211 429.213 251.592C429.213 251.779 429.248 252.037 429.318 252.365L428 252.365C427.883 251.937 427.824 251.521 427.824 251.117C427.824 250.391 428.044 249.843 428.483 249.474C428.923 249.104 429.547 248.92 430.355 248.92L436.253 248.92L436.253 247.188L437.51 247.188L437.51 248.92L439.812 248.92L439.812 250.546Z" fill="white"/>
<path d="M124.351 238.575C125.798 238.575 126.964 238.906 127.849 239.568C128.733 240.23 129.176 241.127 129.176 242.258C129.176 243.412 128.81 244.32 128.077 244.982L132.656 244.982L132.656 246.608L119.49 246.608L119.49 245.123L120.545 245.044C119.725 244.382 119.314 243.462 119.314 242.284C119.314 241.142 119.745 240.239 120.606 239.577C121.468 238.909 122.666 238.575 124.201 238.575L124.351 238.575ZM124.166 240.201C123.094 240.201 122.247 240.43 121.626 240.887C121.005 241.344 120.694 241.971 120.694 242.768C120.694 243.752 121.131 244.49 122.004 244.982L126.548 244.982C127.415 244.496 127.849 243.752 127.849 242.75C127.849 241.971 127.541 241.353 126.926 240.896C126.305 240.433 125.385 240.201 124.166 240.201ZM129 230.63C128.813 230.724 128.479 230.8 127.998 230.858C128.783 231.614 129.176 232.517 129.176 233.565C129.176 234.503 128.912 235.273 128.385 235.877C127.852 236.475 127.178 236.773 126.363 236.773C125.373 236.773 124.605 236.398 124.061 235.648C123.51 234.893 123.234 233.832 123.234 232.467L123.234 230.885L122.487 230.885C121.919 230.885 121.468 231.055 121.134 231.395C120.794 231.734 120.624 232.235 120.624 232.897C120.624 233.478 120.771 233.964 121.063 234.356C121.356 234.749 121.711 234.945 122.127 234.945L122.127 236.58C121.652 236.58 121.195 236.413 120.756 236.079C120.311 235.739 119.959 235.282 119.701 234.708C119.443 234.128 119.314 233.492 119.314 232.801C119.314 231.705 119.59 230.847 120.141 230.226C120.686 229.604 121.438 229.282 122.399 229.259L126.776 229.259C127.649 229.259 128.344 229.147 128.859 228.925L129 228.925L129 230.63ZM127.761 233.328C127.761 232.818 127.629 232.335 127.365 231.878C127.102 231.421 126.759 231.09 126.337 230.885L124.386 230.885L124.386 232.159C124.386 234.151 124.969 235.147 126.135 235.147C126.645 235.147 127.043 234.978 127.33 234.638C127.617 234.298 127.761 233.861 127.761 233.328ZM124.166 227.105C122.707 227.105 121.535 226.76 120.65 226.068C119.76 225.377 119.314 224.472 119.314 223.353C119.314 222.239 119.695 221.357 120.457 220.707L115.5 220.707L115.5 219.081L129 219.081L129 220.575L127.98 220.654C128.777 221.305 129.176 222.21 129.176 223.37C129.176 224.472 128.725 225.371 127.822 226.068C126.92 226.76 125.742 227.105 124.289 227.105L124.166 227.105ZM124.351 225.479C125.429 225.479 126.272 225.257 126.882 224.812C127.491 224.366 127.796 223.751 127.796 222.966C127.796 221.935 127.333 221.182 126.407 220.707L122.039 220.707C121.143 221.193 120.694 221.94 120.694 222.948C120.694 223.745 121.002 224.366 121.617 224.812C122.232 225.257 123.144 225.479 124.351 225.479ZM124.166 216.945C122.707 216.945 121.535 216.6 120.65 215.908C119.76 215.217 119.314 214.312 119.314 213.192C119.314 212.079 119.695 211.197 120.457 210.547L115.5 210.547L115.5 208.921L129 208.921L129 210.415L127.98 210.494C128.777 211.145 129.176 212.05 129.176 213.21C129.176 214.312 128.725 215.211 127.822 215.908C126.92 216.6 125.742 216.945 124.289 216.945L124.166 216.945ZM124.351 215.319C125.429 215.319 126.272 215.097 126.882 214.651C127.491 214.206 127.796 213.591 127.796 212.806C127.796 211.774 127.333 211.021 126.407 210.547L122.039 210.547C121.143 211.033 120.694 211.78 120.694 212.788C120.694 213.585 121.002 214.206 121.617 214.651C122.232 215.097 123.144 215.319 124.351 215.319ZM129 204.623L129 206.249L119.49 206.249L119.49 204.623L129 204.623ZM116.968 206.381C116.704 206.381 116.481 206.302 116.3 206.144C116.118 205.979 116.027 205.739 116.027 205.423C116.027 205.106 116.118 204.866 116.3 204.702C116.481 204.538 116.704 204.456 116.968 204.456C117.231 204.456 117.451 204.538 117.627 204.702C117.803 204.866 117.891 205.106 117.891 205.423C117.891 205.739 117.803 205.979 117.627 206.144C117.451 206.302 117.231 206.381 116.968 206.381ZM119.49 200.475L120.686 200.422C119.771 199.695 119.314 198.746 119.314 197.574C119.314 195.564 120.448 194.551 122.716 194.533L129 194.533L129 196.159L122.707 196.159C122.021 196.165 121.515 196.323 121.187 196.634C120.858 196.938 120.694 197.416 120.694 198.066C120.694 198.594 120.835 199.057 121.116 199.455C121.397 199.854 121.767 200.164 122.224 200.387L129 200.387L129 202.013L119.49 202.013L119.49 200.475ZM124.166 192.468C122.684 192.468 121.506 192.125 120.633 191.439C119.754 190.754 119.314 189.846 119.314 188.715C119.314 187.555 119.725 186.649 120.545 185.999L119.49 185.92L119.49 184.435L128.771 184.435C130.002 184.435 130.972 184.801 131.681 185.533C132.39 186.26 132.744 187.238 132.744 188.469C132.744 189.154 132.598 189.825 132.305 190.481C132.012 191.138 131.61 191.639 131.101 191.984L130.125 191.141C130.986 190.443 131.417 189.591 131.417 188.583C131.417 187.792 131.194 187.177 130.749 186.737C130.304 186.292 129.677 186.069 128.868 186.069L128.051 186.069C128.801 186.72 129.176 187.607 129.176 188.732C129.176 189.846 128.728 190.748 127.831 191.439C126.935 192.125 125.713 192.468 124.166 192.468ZM124.351 190.833C125.423 190.833 126.267 190.613 126.882 190.174C127.491 189.734 127.796 189.119 127.796 188.328C127.796 187.303 127.33 186.55 126.398 186.069L122.057 186.069C121.148 186.567 120.694 187.314 120.694 188.311C120.694 189.102 121.002 189.72 121.617 190.165C122.232 190.61 123.144 190.833 124.351 190.833ZM124.228 178.59L124.228 182.879L122.9 182.879L122.9 178.59L124.228 178.59ZM129 175.232L129 176.858L115.5 176.858L115.5 175.232L129 175.232ZM129.176 168.676C129.176 169.965 128.754 171.014 127.91 171.822C127.061 172.631 125.927 173.035 124.509 173.035L124.21 173.035C123.267 173.035 122.426 172.856 121.688 172.499C120.943 172.136 120.363 171.632 119.947 170.987C119.525 170.337 119.314 169.634 119.314 168.878C119.314 167.642 119.722 166.681 120.536 165.995C121.351 165.31 122.517 164.967 124.034 164.967L124.711 164.967L124.711 171.409C125.648 171.386 126.407 171.113 126.987 170.592C127.562 170.064 127.849 169.396 127.849 168.588C127.849 168.014 127.731 167.527 127.497 167.129C127.263 166.73 126.952 166.382 126.565 166.083L127.339 165.09C128.563 165.887 129.176 167.082 129.176 168.676ZM120.65 168.878C120.65 169.534 120.891 170.085 121.371 170.53C121.846 170.976 122.514 171.251 123.375 171.356L123.375 166.593L123.252 166.593C122.426 166.64 121.787 166.862 121.336 167.261C120.879 167.659 120.65 168.198 120.65 168.878ZM129 162.277L120.747 162.277L120.747 163.78L119.49 163.78L119.49 162.277L118.515 162.277C117.495 162.277 116.707 162.005 116.15 161.46C115.594 160.915 115.315 160.145 115.315 159.148C115.315 158.773 115.365 158.401 115.465 158.032L116.783 158.12C116.73 158.396 116.704 158.688 116.704 158.999C116.704 159.526 116.859 159.934 117.17 160.221C117.475 160.508 117.914 160.651 118.488 160.651L119.49 160.651L119.49 158.621L120.747 158.621L120.747 160.651L129 160.651L129 162.277ZM117.188 154.613L119.49 154.613L119.49 152.838L120.747 152.838L120.747 154.613L126.645 154.613C127.025 154.613 127.313 154.534 127.506 154.376C127.693 154.218 127.787 153.948 127.787 153.567C127.787 153.38 127.752 153.122 127.682 152.794L129 152.794C129.117 153.222 129.176 153.638 129.176 154.042C129.176 154.769 128.956 155.316 128.517 155.686C128.077 156.055 127.453 156.239 126.645 156.239L120.747 156.239L120.747 157.971L119.49 157.971L119.49 156.239L117.188 156.239L117.188 154.613Z" fill="white"/>
<path d="M254.802 368.49L254.846 369.545C255.543 368.725 256.483 368.314 257.667 368.314C258.997 368.314 259.902 368.824 260.383 369.844C260.699 369.387 261.109 369.018 261.613 368.736C262.123 368.455 262.724 368.314 263.415 368.314C265.501 368.314 266.562 369.419 266.597 371.628V378H264.971V371.725C264.971 371.045 264.815 370.538 264.505 370.204C264.194 369.864 263.673 369.694 262.94 369.694C262.337 369.694 261.836 369.876 261.438 370.239C261.039 370.597 260.808 371.08 260.743 371.689V378H259.108V371.769C259.108 370.386 258.432 369.694 257.078 369.694C256.012 369.694 255.282 370.148 254.89 371.057V378H253.264V368.49H254.802ZM274.929 378C274.835 377.812 274.759 377.479 274.7 376.998C273.944 377.783 273.042 378.176 271.993 378.176C271.056 378.176 270.285 377.912 269.682 377.385C269.084 376.852 268.785 376.178 268.785 375.363C268.785 374.373 269.16 373.605 269.91 373.061C270.666 372.51 271.727 372.234 273.092 372.234H274.674V371.487C274.674 370.919 274.504 370.468 274.164 370.134C273.824 369.794 273.323 369.624 272.661 369.624C272.081 369.624 271.595 369.771 271.202 370.063C270.81 370.356 270.613 370.711 270.613 371.127H268.979C268.979 370.652 269.146 370.195 269.479 369.756C269.819 369.311 270.276 368.959 270.851 368.701C271.431 368.443 272.066 368.314 272.758 368.314C273.854 368.314 274.712 368.59 275.333 369.141C275.954 369.686 276.276 370.438 276.3 371.399V375.776C276.3 376.649 276.411 377.344 276.634 377.859V378H274.929ZM272.23 376.761C272.74 376.761 273.224 376.629 273.681 376.365C274.138 376.102 274.469 375.759 274.674 375.337V373.386H273.399C271.407 373.386 270.411 373.969 270.411 375.135C270.411 375.645 270.581 376.043 270.921 376.33C271.261 376.617 271.697 376.761 272.23 376.761ZM283.445 369.949C283.199 369.908 282.933 369.888 282.646 369.888C281.579 369.888 280.855 370.342 280.475 371.25V378H278.849V368.49H280.431L280.457 369.589C280.99 368.739 281.746 368.314 282.725 368.314C283.041 368.314 283.281 368.355 283.445 368.438V369.949ZM284.386 373.166C284.386 371.684 284.729 370.506 285.414 369.633C286.1 368.754 287.008 368.314 288.139 368.314C289.299 368.314 290.204 368.725 290.854 369.545L290.934 368.49H292.419V377.771C292.419 379.002 292.053 379.972 291.32 380.681C290.594 381.39 289.615 381.744 288.385 381.744C287.699 381.744 287.028 381.598 286.372 381.305C285.716 381.012 285.215 380.61 284.869 380.101L285.713 379.125C286.41 379.986 287.263 380.417 288.271 380.417C289.062 380.417 289.677 380.194 290.116 379.749C290.562 379.304 290.784 378.677 290.784 377.868V377.051C290.134 377.801 289.246 378.176 288.121 378.176C287.008 378.176 286.105 377.728 285.414 376.831C284.729 375.935 284.386 374.713 284.386 373.166ZM286.021 373.351C286.021 374.423 286.24 375.267 286.68 375.882C287.119 376.491 287.734 376.796 288.525 376.796C289.551 376.796 290.304 376.33 290.784 375.398V371.057C290.286 370.148 289.539 369.694 288.543 369.694C287.752 369.694 287.134 370.002 286.688 370.617C286.243 371.232 286.021 372.144 286.021 373.351ZM296.646 378H295.021V368.49H296.646V378ZM294.889 365.968C294.889 365.704 294.968 365.481 295.126 365.3C295.29 365.118 295.53 365.027 295.847 365.027C296.163 365.027 296.403 365.118 296.567 365.3C296.731 365.481 296.813 365.704 296.813 365.968C296.813 366.231 296.731 366.451 296.567 366.627C296.403 366.803 296.163 366.891 295.847 366.891C295.53 366.891 295.29 366.803 295.126 366.627C294.968 366.451 294.889 366.231 294.889 365.968ZM300.795 368.49L300.848 369.686C301.574 368.771 302.523 368.314 303.695 368.314C305.705 368.314 306.719 369.448 306.736 371.716V378H305.11V371.707C305.104 371.021 304.946 370.515 304.636 370.187C304.331 369.858 303.854 369.694 303.203 369.694C302.676 369.694 302.213 369.835 301.814 370.116C301.416 370.397 301.105 370.767 300.883 371.224V378H299.257V368.49H300.795Z" fill="black"/>
<path d="M263.73 323.351C263.73 324.804 263.396 325.973 262.729 326.857C262.061 327.736 261.164 328.176 260.039 328.176C258.838 328.176 257.909 327.751 257.253 326.901L257.174 328H255.68V314.5H257.306V319.536C257.962 318.722 258.867 318.314 260.021 318.314C261.176 318.314 262.081 318.751 262.737 319.624C263.399 320.497 263.73 321.692 263.73 323.21V323.351ZM262.104 323.166C262.104 322.059 261.891 321.203 261.463 320.6C261.035 319.996 260.42 319.694 259.617 319.694C258.545 319.694 257.774 320.192 257.306 321.188V325.302C257.804 326.298 258.58 326.796 259.635 326.796C260.414 326.796 261.021 326.494 261.454 325.891C261.888 325.287 262.104 324.379 262.104 323.166ZM265.356 323.157C265.356 322.226 265.538 321.388 265.901 320.644C266.271 319.899 266.78 319.325 267.431 318.921C268.087 318.517 268.834 318.314 269.672 318.314C270.967 318.314 272.013 318.763 272.81 319.659C273.612 320.556 274.014 321.748 274.014 323.236V323.351C274.014 324.276 273.835 325.108 273.478 325.847C273.126 326.579 272.619 327.15 271.957 327.561C271.301 327.971 270.545 328.176 269.689 328.176C268.4 328.176 267.354 327.728 266.552 326.831C265.755 325.935 265.356 324.748 265.356 323.271V323.157ZM266.991 323.351C266.991 324.405 267.234 325.252 267.721 325.891C268.213 326.529 268.869 326.849 269.689 326.849C270.516 326.849 271.172 326.526 271.658 325.882C272.145 325.231 272.388 324.323 272.388 323.157C272.388 322.114 272.139 321.271 271.641 320.626C271.148 319.976 270.492 319.65 269.672 319.65C268.869 319.65 268.222 319.97 267.729 320.608C267.237 321.247 266.991 322.161 266.991 323.351ZM280.649 319.949C280.403 319.908 280.137 319.888 279.85 319.888C278.783 319.888 278.06 320.342 277.679 321.25V328H276.053V318.49H277.635L277.661 319.589C278.194 318.739 278.95 318.314 279.929 318.314C280.245 318.314 280.485 318.355 280.649 318.438V319.949ZM281.581 323.166C281.581 321.707 281.927 320.535 282.618 319.65C283.31 318.76 284.215 318.314 285.334 318.314C286.447 318.314 287.329 318.695 287.979 319.457V314.5H289.605V328H288.111L288.032 326.98C287.382 327.777 286.477 328.176 285.316 328.176C284.215 328.176 283.315 327.725 282.618 326.822C281.927 325.92 281.581 324.742 281.581 323.289V323.166ZM283.207 323.351C283.207 324.429 283.43 325.272 283.875 325.882C284.32 326.491 284.936 326.796 285.721 326.796C286.752 326.796 287.505 326.333 287.979 325.407V321.039C287.493 320.143 286.746 319.694 285.738 319.694C284.941 319.694 284.32 320.002 283.875 320.617C283.43 321.232 283.207 322.144 283.207 323.351ZM296.083 328.176C294.794 328.176 293.745 327.754 292.937 326.91C292.128 326.061 291.724 324.927 291.724 323.509V323.21C291.724 322.267 291.902 321.426 292.26 320.688C292.623 319.943 293.127 319.363 293.771 318.947C294.422 318.525 295.125 318.314 295.881 318.314C297.117 318.314 298.078 318.722 298.764 319.536C299.449 320.351 299.792 321.517 299.792 323.034V323.711H293.35C293.373 324.648 293.646 325.407 294.167 325.987C294.694 326.562 295.362 326.849 296.171 326.849C296.745 326.849 297.231 326.731 297.63 326.497C298.028 326.263 298.377 325.952 298.676 325.565L299.669 326.339C298.872 327.563 297.677 328.176 296.083 328.176ZM295.881 319.65C295.225 319.65 294.674 319.891 294.229 320.371C293.783 320.846 293.508 321.514 293.402 322.375H298.166V322.252C298.119 321.426 297.896 320.787 297.498 320.336C297.1 319.879 296.561 319.65 295.881 319.65ZM306.278 319.949C306.032 319.908 305.766 319.888 305.479 319.888C304.412 319.888 303.688 320.342 303.308 321.25V328H301.682V318.49H303.264L303.29 319.589C303.823 318.739 304.579 318.314 305.558 318.314C305.874 318.314 306.114 318.355 306.278 318.438V319.949Z" fill="black"/>
<path d="M225.446 273.351C225.446 274.798 225.115 275.964 224.453 276.849C223.791 277.733 222.895 278.176 221.764 278.176C220.609 278.176 219.701 277.81 219.039 277.077V281.656H217.413V268.49H218.898L218.978 269.545C219.64 268.725 220.56 268.314 221.737 268.314C222.88 268.314 223.782 268.745 224.444 269.606C225.112 270.468 225.446 271.666 225.446 273.201V273.351ZM223.82 273.166C223.82 272.094 223.592 271.247 223.135 270.626C222.678 270.005 222.051 269.694 221.254 269.694C220.27 269.694 219.531 270.131 219.039 271.004V275.548C219.525 276.415 220.27 276.849 221.271 276.849C222.051 276.849 222.669 276.541 223.126 275.926C223.589 275.305 223.82 274.385 223.82 273.166ZM233.392 278C233.298 277.812 233.222 277.479 233.163 276.998C232.407 277.783 231.505 278.176 230.456 278.176C229.519 278.176 228.748 277.912 228.145 277.385C227.547 276.852 227.248 276.178 227.248 275.363C227.248 274.373 227.623 273.605 228.373 273.061C229.129 272.51 230.189 272.234 231.555 272.234H233.137V271.487C233.137 270.919 232.967 270.468 232.627 270.134C232.287 269.794 231.786 269.624 231.124 269.624C230.544 269.624 230.058 269.771 229.665 270.063C229.272 270.356 229.076 270.711 229.076 271.127H227.441C227.441 270.652 227.608 270.195 227.942 269.756C228.282 269.311 228.739 268.959 229.313 268.701C229.894 268.443 230.529 268.314 231.221 268.314C232.316 268.314 233.175 268.59 233.796 269.141C234.417 269.686 234.739 270.438 234.763 271.399V275.776C234.763 276.649 234.874 277.344 235.097 277.859V278H233.392ZM230.693 276.761C231.203 276.761 231.687 276.629 232.144 276.365C232.601 276.102 232.932 275.759 233.137 275.337V273.386H231.862C229.87 273.386 228.874 273.969 228.874 275.135C228.874 275.645 229.044 276.043 229.384 276.33C229.724 276.617 230.16 276.761 230.693 276.761ZM236.916 273.166C236.916 271.707 237.262 270.535 237.953 269.65C238.645 268.76 239.55 268.314 240.669 268.314C241.782 268.314 242.664 268.695 243.314 269.457V264.5H244.94V278H243.446L243.367 276.98C242.717 277.777 241.812 278.176 240.651 278.176C239.55 278.176 238.65 277.725 237.953 276.822C237.262 275.92 236.916 274.742 236.916 273.289V273.166ZM238.542 273.351C238.542 274.429 238.765 275.272 239.21 275.882C239.655 276.491 240.271 276.796 241.056 276.796C242.087 276.796 242.84 276.333 243.314 275.407V271.039C242.828 270.143 242.081 269.694 241.073 269.694C240.276 269.694 239.655 270.002 239.21 270.617C238.765 271.232 238.542 272.144 238.542 273.351ZM247.076 273.166C247.076 271.707 247.422 270.535 248.113 269.65C248.805 268.76 249.71 268.314 250.829 268.314C251.942 268.314 252.824 268.695 253.475 269.457V264.5H255.101V278H253.606L253.527 276.98C252.877 277.777 251.972 278.176 250.812 278.176C249.71 278.176 248.811 277.725 248.113 276.822C247.422 275.92 247.076 274.742 247.076 273.289V273.166ZM248.702 273.351C248.702 274.429 248.925 275.272 249.37 275.882C249.815 276.491 250.431 276.796 251.216 276.796C252.247 276.796 253 276.333 253.475 275.407V271.039C252.988 270.143 252.241 269.694 251.233 269.694C250.437 269.694 249.815 270.002 249.37 270.617C248.925 271.232 248.702 272.144 248.702 273.351ZM259.398 278H257.772V268.49H259.398V278ZM257.641 265.968C257.641 265.704 257.72 265.481 257.878 265.3C258.042 265.118 258.282 265.027 258.599 265.027C258.915 265.027 259.155 265.118 259.319 265.3C259.483 265.481 259.565 265.704 259.565 265.968C259.565 266.231 259.483 266.451 259.319 266.627C259.155 266.803 258.915 266.891 258.599 266.891C258.282 266.891 258.042 266.803 257.878 266.627C257.72 266.451 257.641 266.231 257.641 265.968ZM263.547 268.49L263.6 269.686C264.326 268.771 265.275 268.314 266.447 268.314C268.457 268.314 269.471 269.448 269.488 271.716V278H267.862V271.707C267.856 271.021 267.698 270.515 267.388 270.187C267.083 269.858 266.605 269.694 265.955 269.694C265.428 269.694 264.965 269.835 264.566 270.116C264.168 270.397 263.857 270.767 263.635 271.224V278H262.009V268.49H263.547ZM271.554 273.166C271.554 271.684 271.896 270.506 272.582 269.633C273.268 268.754 274.176 268.314 275.307 268.314C276.467 268.314 277.372 268.725 278.022 269.545L278.102 268.49H279.587V277.771C279.587 279.002 279.221 279.972 278.488 280.681C277.762 281.39 276.783 281.744 275.553 281.744C274.867 281.744 274.196 281.598 273.54 281.305C272.884 281.012 272.383 280.61 272.037 280.101L272.881 279.125C273.578 279.986 274.431 280.417 275.438 280.417C276.229 280.417 276.845 280.194 277.284 279.749C277.729 279.304 277.952 278.677 277.952 277.868V277.051C277.302 277.801 276.414 278.176 275.289 278.176C274.176 278.176 273.273 277.728 272.582 276.831C271.896 275.935 271.554 274.713 271.554 273.166ZM273.188 273.351C273.188 274.423 273.408 275.267 273.848 275.882C274.287 276.491 274.902 276.796 275.693 276.796C276.719 276.796 277.472 276.33 277.952 275.398V271.057C277.454 270.148 276.707 269.694 275.711 269.694C274.92 269.694 274.302 270.002 273.856 270.617C273.411 271.232 273.188 272.144 273.188 273.351ZM285.432 273.228H281.143V271.9H285.432V273.228ZM295.073 273.351C295.073 274.804 294.739 275.973 294.071 276.857C293.403 277.736 292.507 278.176 291.382 278.176C290.181 278.176 289.252 277.751 288.596 276.901L288.517 278H287.022V264.5H288.648V269.536C289.305 268.722 290.21 268.314 291.364 268.314C292.519 268.314 293.424 268.751 294.08 269.624C294.742 270.497 295.073 271.692 295.073 273.21V273.351ZM293.447 273.166C293.447 272.059 293.233 271.203 292.806 270.6C292.378 269.996 291.763 269.694 290.96 269.694C289.888 269.694 289.117 270.192 288.648 271.188V275.302C289.146 276.298 289.923 276.796 290.978 276.796C291.757 276.796 292.363 276.494 292.797 275.891C293.23 275.287 293.447 274.379 293.447 273.166ZM296.699 273.157C296.699 272.226 296.881 271.388 297.244 270.644C297.613 269.899 298.123 269.325 298.773 268.921C299.43 268.517 300.177 268.314 301.015 268.314C302.31 268.314 303.355 268.763 304.152 269.659C304.955 270.556 305.356 271.748 305.356 273.236V273.351C305.356 274.276 305.178 275.108 304.82 275.847C304.469 276.579 303.962 277.15 303.3 277.561C302.644 277.971 301.888 278.176 301.032 278.176C299.743 278.176 298.697 277.728 297.895 276.831C297.098 275.935 296.699 274.748 296.699 273.271V273.157ZM298.334 273.351C298.334 274.405 298.577 275.252 299.063 275.891C299.556 276.529 300.212 276.849 301.032 276.849C301.858 276.849 302.515 276.526 303.001 275.882C303.487 275.231 303.73 274.323 303.73 273.157C303.73 272.114 303.481 271.271 302.983 270.626C302.491 269.976 301.835 269.65 301.015 269.65C300.212 269.65 299.564 269.97 299.072 270.608C298.58 271.247 298.334 272.161 298.334 273.351ZM309.602 266.188V268.49H311.377V269.747H309.602V275.645C309.602 276.025 309.681 276.312 309.839 276.506C309.997 276.693 310.267 276.787 310.647 276.787C310.835 276.787 311.093 276.752 311.421 276.682V278C310.993 278.117 310.577 278.176 310.173 278.176C309.446 278.176 308.898 277.956 308.529 277.517C308.16 277.077 307.976 276.453 307.976 275.645V269.747H306.244V268.49H307.976V266.188H309.602ZM315.49 266.188V268.49H317.266V269.747H315.49V275.645C315.49 276.025 315.569 276.312 315.728 276.506C315.886 276.693 316.155 276.787 316.536 276.787C316.724 276.787 316.981 276.752 317.31 276.682V278C316.882 278.117 316.466 278.176 316.062 278.176C315.335 278.176 314.787 277.956 314.418 277.517C314.049 277.077 313.864 276.453 313.864 275.645V269.747H312.133V268.49H313.864V266.188H315.49ZM318.566 273.157C318.566 272.226 318.748 271.388 319.111 270.644C319.48 269.899 319.99 269.325 320.641 268.921C321.297 268.517 322.044 268.314 322.882 268.314C324.177 268.314 325.223 268.763 326.02 269.659C326.822 270.556 327.224 271.748 327.224 273.236V273.351C327.224 274.276 327.045 275.108 326.688 275.847C326.336 276.579 325.829 277.15 325.167 277.561C324.511 277.971 323.755 278.176 322.899 278.176C321.61 278.176 320.564 277.728 319.762 276.831C318.965 275.935 318.566 274.748 318.566 273.271V273.157ZM320.201 273.351C320.201 274.405 320.444 275.252 320.931 275.891C321.423 276.529 322.079 276.849 322.899 276.849C323.726 276.849 324.382 276.526 324.868 275.882C325.354 275.231 325.598 274.323 325.598 273.157C325.598 272.114 325.349 271.271 324.851 270.626C324.358 269.976 323.702 269.65 322.882 269.65C322.079 269.65 321.432 269.97 320.939 270.608C320.447 271.247 320.201 272.161 320.201 273.351ZM330.792 268.49L330.836 269.545C331.533 268.725 332.474 268.314 333.657 268.314C334.987 268.314 335.893 268.824 336.373 269.844C336.689 269.387 337.1 269.018 337.604 268.736C338.113 268.455 338.714 268.314 339.405 268.314C341.491 268.314 342.552 269.419 342.587 271.628V278H340.961V271.725C340.961 271.045 340.806 270.538 340.495 270.204C340.185 269.864 339.663 269.694 338.931 269.694C338.327 269.694 337.826 269.876 337.428 270.239C337.029 270.597 336.798 271.08 336.733 271.689V278H335.099V271.769C335.099 270.386 334.422 269.694 333.068 269.694C332.002 269.694 331.272 270.148 330.88 271.057V278H329.254V268.49H330.792Z" fill="white"/>
</svg>
