<svg width="560" height="400" viewBox="0 0 560 400" fill="none" xmlns="http://www.w3.org/2000/svg">
<rect width="560" height="400" fill="white"/>
<rect x="1.5" y="1.5" width="557" height="397" fill="#1E73FF"/>
<rect width="460" height="300" transform="translate(50 50)" fill="#CCCCCC"/>
<rect width="360" height="200" transform="translate(100 100)" fill="#DDDDDD"/>
<rect width="260" height="100" transform="translate(150 150)" fill="white"/>
<path d="M251.23 204.92C251.751 204.92 252.174 204.777 252.5 204.49C252.826 204.204 252.995 203.823 253.008 203.348H255.654C255.648 204.064 255.452 204.721 255.068 205.32C254.684 205.913 254.157 206.375 253.486 206.707C252.822 207.033 252.087 207.195 251.279 207.195C249.769 207.195 248.577 206.717 247.705 205.76C246.833 204.796 246.396 203.468 246.396 201.775V201.59C246.396 199.962 246.829 198.663 247.695 197.693C248.561 196.723 249.749 196.238 251.26 196.238C252.581 196.238 253.639 196.616 254.434 197.371C255.234 198.12 255.641 199.119 255.654 200.369H253.008C252.995 199.822 252.826 199.38 252.5 199.041C252.174 198.696 251.745 198.523 251.211 198.523C250.553 198.523 250.055 198.764 249.717 199.246C249.385 199.721 249.219 200.496 249.219 201.57V201.863C249.219 202.951 249.385 203.732 249.717 204.207C250.049 204.682 250.553 204.92 251.23 204.92ZM256.826 201.619C256.826 200.571 257.028 199.637 257.432 198.816C257.835 197.996 258.415 197.361 259.17 196.912C259.932 196.463 260.814 196.238 261.816 196.238C263.242 196.238 264.404 196.674 265.303 197.547C266.208 198.419 266.712 199.604 266.816 201.102L266.836 201.824C266.836 203.445 266.383 204.747 265.479 205.73C264.574 206.707 263.359 207.195 261.836 207.195C260.312 207.195 259.095 206.707 258.184 205.73C257.279 204.754 256.826 203.426 256.826 201.746V201.619ZM259.648 201.824C259.648 202.827 259.837 203.595 260.215 204.129C260.592 204.656 261.133 204.92 261.836 204.92C262.52 204.92 263.053 204.66 263.438 204.139C263.822 203.611 264.014 202.771 264.014 201.619C264.014 200.636 263.822 199.874 263.438 199.334C263.053 198.794 262.513 198.523 261.816 198.523C261.126 198.523 260.592 198.794 260.215 199.334C259.837 199.868 259.648 200.698 259.648 201.824ZM271.172 196.434L271.26 197.654C272.015 196.71 273.027 196.238 274.297 196.238C275.417 196.238 276.25 196.567 276.797 197.225C277.344 197.882 277.624 198.865 277.637 200.174V207H274.814V200.242C274.814 199.643 274.684 199.21 274.424 198.943C274.163 198.67 273.73 198.533 273.125 198.533C272.331 198.533 271.735 198.872 271.338 199.549V207H268.516V196.434H271.172ZM283.164 193.836V196.434H284.971V198.504H283.164V203.777C283.164 204.168 283.239 204.448 283.389 204.617C283.538 204.786 283.825 204.871 284.248 204.871C284.561 204.871 284.837 204.848 285.078 204.803V206.941C284.525 207.111 283.955 207.195 283.369 207.195C281.39 207.195 280.381 206.196 280.342 204.197V198.504H278.799V196.434H280.342V193.836H283.164ZM291.406 207.195C289.857 207.195 288.594 206.72 287.617 205.77C286.647 204.819 286.162 203.553 286.162 201.971V201.697C286.162 200.636 286.367 199.689 286.777 198.855C287.188 198.016 287.767 197.371 288.516 196.922C289.271 196.466 290.13 196.238 291.094 196.238C292.539 196.238 293.675 196.694 294.502 197.605C295.335 198.517 295.752 199.809 295.752 201.482V202.635H289.023C289.115 203.325 289.388 203.878 289.844 204.295C290.306 204.712 290.889 204.92 291.592 204.92C292.679 204.92 293.529 204.526 294.141 203.738L295.527 205.291C295.104 205.89 294.531 206.359 293.809 206.697C293.086 207.029 292.285 207.195 291.406 207.195ZM291.084 198.523C290.524 198.523 290.068 198.712 289.717 199.09C289.372 199.467 289.15 200.008 289.053 200.711H292.979V200.486C292.965 199.861 292.796 199.38 292.471 199.041C292.145 198.696 291.683 198.523 291.084 198.523ZM299.961 196.434L300.049 197.654C300.804 196.71 301.816 196.238 303.086 196.238C304.206 196.238 305.039 196.567 305.586 197.225C306.133 197.882 306.413 198.865 306.426 200.174V207H303.604V200.242C303.604 199.643 303.473 199.21 303.213 198.943C302.952 198.67 302.52 198.533 301.914 198.533C301.12 198.533 300.524 198.872 300.127 199.549V207H297.305V196.434H299.961ZM311.953 193.836V196.434H313.76V198.504H311.953V203.777C311.953 204.168 312.028 204.448 312.178 204.617C312.327 204.786 312.614 204.871 313.037 204.871C313.35 204.871 313.626 204.848 313.867 204.803V206.941C313.314 207.111 312.744 207.195 312.158 207.195C310.179 207.195 309.17 206.196 309.131 204.197V198.504H307.588V196.434H309.131V193.836H311.953Z" fill="black"/>
<rect x="1.5" y="1.5" width="557" height="397" stroke="black" stroke-width="3" stroke-dasharray="3 2"/>
<path d="M536.51 154.121L535.455 154.165C536.275 154.862 536.686 155.803 536.686 156.986C536.686 158.316 536.176 159.222 535.156 159.702C535.613 160.019 535.982 160.429 536.264 160.933C536.545 161.442 536.686 162.043 536.686 162.734C536.686 164.82 535.581 165.881 533.372 165.916L527 165.916L527 164.29L533.275 164.29C533.955 164.29 534.462 164.135 534.796 163.824C535.136 163.514 535.306 162.992 535.306 162.26C535.306 161.656 535.124 161.155 534.761 160.757C534.403 160.358 533.92 160.127 533.311 160.062L527 160.062L527 158.428L533.231 158.428C534.614 158.428 535.306 157.751 535.306 156.397C535.306 155.331 534.852 154.602 533.943 154.209L527 154.209L527 152.583L536.51 152.583L536.51 154.121ZM527 174.248C527.187 174.154 527.521 174.078 528.002 174.02C527.217 173.264 526.824 172.361 526.824 171.312C526.824 170.375 527.088 169.604 527.615 169.001C528.148 168.403 528.822 168.104 529.637 168.104C530.627 168.104 531.395 168.479 531.939 169.229C532.49 169.985 532.766 171.046 532.766 172.411L532.766 173.993L533.513 173.993C534.081 173.993 534.532 173.823 534.866 173.483C535.206 173.144 535.376 172.643 535.376 171.98C535.376 171.4 535.229 170.914 534.937 170.521C534.644 170.129 534.289 169.933 533.873 169.933L533.873 168.298C534.348 168.298 534.805 168.465 535.244 168.799C535.689 169.139 536.041 169.596 536.299 170.17C536.557 170.75 536.686 171.386 536.686 172.077C536.686 173.173 536.41 174.031 535.859 174.652C535.314 175.273 534.562 175.596 533.601 175.619L529.224 175.619C528.351 175.619 527.656 175.73 527.141 175.953L527 175.953L527 174.248ZM528.239 171.55C528.239 172.06 528.371 172.543 528.635 173C528.898 173.457 529.241 173.788 529.663 173.993L531.614 173.993L531.614 172.719C531.614 170.727 531.031 169.73 529.865 169.73C529.355 169.73 528.957 169.9 528.67 170.24C528.383 170.58 528.239 171.017 528.239 171.55ZM535.051 182.765C535.092 182.519 535.112 182.252 535.112 181.965C535.112 180.898 534.658 180.175 533.75 179.794L527 179.794L527 178.168L536.51 178.168L536.51 179.75L535.411 179.776C536.261 180.31 536.686 181.065 536.686 182.044C536.686 182.36 536.645 182.601 536.562 182.765L535.051 182.765ZM531.834 183.705C533.316 183.705 534.494 184.048 535.367 184.733C536.246 185.419 536.686 186.327 536.686 187.458C536.686 188.618 536.275 189.523 535.455 190.174L536.51 190.253L536.51 191.738L527.229 191.738C525.998 191.738 525.028 191.372 524.319 190.64C523.61 189.913 523.256 188.935 523.256 187.704C523.256 187.019 523.402 186.348 523.695 185.691C523.988 185.035 524.39 184.534 524.899 184.188L525.875 185.032C525.014 185.729 524.583 186.582 524.583 187.59C524.583 188.381 524.806 188.996 525.251 189.436C525.696 189.881 526.323 190.104 527.132 190.104L527.949 190.104C527.199 189.453 526.824 188.565 526.824 187.44C526.824 186.327 527.272 185.425 528.169 184.733C529.065 184.048 530.287 183.705 531.834 183.705ZM531.649 185.34C530.577 185.34 529.733 185.56 529.118 185.999C528.509 186.438 528.204 187.054 528.204 187.845C528.204 188.87 528.67 189.623 529.602 190.104L533.943 190.104C534.852 189.605 535.306 188.858 535.306 187.862C535.306 187.071 534.998 186.453 534.383 186.008C533.768 185.562 532.856 185.34 531.649 185.34ZM527 195.966L527 194.34L536.51 194.34L536.51 195.966L527 195.966ZM539.032 194.208C539.296 194.208 539.519 194.287 539.7 194.445C539.882 194.609 539.973 194.85 539.973 195.166C539.973 195.482 539.882 195.723 539.7 195.887C539.519 196.051 539.296 196.133 539.032 196.133C538.769 196.133 538.549 196.051 538.373 195.887C538.197 195.723 538.109 195.482 538.109 195.166C538.109 194.85 538.197 194.609 538.373 194.445C538.549 194.287 538.769 194.208 539.032 194.208ZM536.51 200.114L535.314 200.167C536.229 200.894 536.686 201.843 536.686 203.015C536.686 205.024 535.552 206.038 533.284 206.056L527 206.056L527 204.43L533.293 204.43C533.979 204.424 534.485 204.266 534.813 203.955C535.142 203.65 535.306 203.173 535.306 202.522C535.306 201.995 535.165 201.532 534.884 201.134C534.603 200.735 534.233 200.425 533.776 200.202L527 200.202L527 198.576L536.51 198.576L536.51 200.114ZM531.772 211.892L531.772 207.603L533.1 207.603L533.1 211.892L531.772 211.892ZM535.051 218.079C535.092 217.833 535.112 217.566 535.112 217.279C535.112 216.213 534.658 215.489 533.75 215.108L527 215.108L527 213.482L536.51 213.482L536.51 215.064L535.411 215.091C536.261 215.624 536.686 216.38 536.686 217.358C536.686 217.675 536.645 217.915 536.562 218.079L535.051 218.079ZM527 221.349L527 219.723L536.51 219.723L536.51 221.349L527 221.349ZM539.032 219.591C539.296 219.591 539.519 219.67 539.7 219.828C539.882 219.992 539.973 220.232 539.973 220.549C539.973 220.865 539.882 221.105 539.7 221.27C539.519 221.434 539.296 221.516 539.032 221.516C538.769 221.516 538.549 221.434 538.373 221.27C538.197 221.105 538.109 220.865 538.109 220.549C538.109 220.232 538.197 219.992 538.373 219.828C538.549 219.67 538.769 219.591 539.032 219.591ZM531.834 223.572C533.316 223.572 534.494 223.915 535.367 224.601C536.246 225.286 536.686 226.194 536.686 227.325C536.686 228.485 536.275 229.391 535.455 230.041L536.51 230.12L536.51 231.605L527.229 231.605C525.998 231.605 525.028 231.239 524.319 230.507C523.61 229.78 523.256 228.802 523.256 227.571C523.256 226.886 523.402 226.215 523.695 225.559C523.988 224.902 524.39 224.401 524.899 224.056L525.875 224.899C525.014 225.597 524.583 226.449 524.583 227.457C524.583 228.248 524.806 228.863 525.251 229.303C525.696 229.748 526.323 229.971 527.132 229.971L527.949 229.971C527.199 229.32 526.824 228.433 526.824 227.308C526.824 226.194 527.272 225.292 528.169 224.601C529.065 223.915 530.287 223.572 531.834 223.572ZM531.649 225.207C530.577 225.207 529.733 225.427 529.118 225.866C528.509 226.306 528.204 226.921 528.204 227.712C528.204 228.737 528.67 229.49 529.602 229.971L533.943 229.971C534.852 229.473 535.306 228.726 535.306 227.729C535.306 226.938 534.998 226.32 534.383 225.875C533.768 225.43 532.856 225.207 531.649 225.207ZM535.358 235.692C536.243 236.413 536.686 237.351 536.686 238.505C536.686 240.515 535.552 241.528 533.284 241.546L527 241.546L527 239.92L533.293 239.92C533.979 239.914 534.485 239.756 534.813 239.445C535.142 239.141 535.306 238.663 535.306 238.013C535.306 237.485 535.165 237.022 534.884 236.624C534.603 236.226 534.233 235.915 533.776 235.692L527 235.692L527 234.066L540.5 234.066L540.5 235.692L535.358 235.692ZM538.812 246.187L536.51 246.187L536.51 247.962L535.253 247.962L535.253 246.187L529.355 246.187C528.975 246.187 528.687 246.266 528.494 246.424C528.307 246.582 528.213 246.852 528.213 247.232C528.213 247.42 528.248 247.678 528.318 248.006L527 248.006C526.883 247.578 526.824 247.162 526.824 246.758C526.824 246.031 527.044 245.483 527.483 245.114C527.923 244.745 528.547 244.561 529.355 244.561L535.253 244.561L535.253 242.829L536.51 242.829L536.51 244.561L538.812 244.561L538.812 246.187Z" fill="white"/>
<path d="M20.4902 241.22L21.5449 241.176C20.7246 240.479 20.3145 239.538 20.3145 238.354C20.3145 237.024 20.8242 236.119 21.8438 235.639C21.3867 235.322 21.0176 234.912 20.7363 234.408C20.4551 233.898 20.3145 233.298 20.3145 232.606C20.3145 230.521 21.4189 229.46 23.6279 229.425L30 229.425L30 231.051L23.7246 231.051C23.0449 231.051 22.5381 231.206 22.2041 231.517C21.8643 231.827 21.6943 232.349 21.6943 233.081C21.6943 233.685 21.876 234.186 22.2393 234.584C22.5967 234.982 23.0801 235.214 23.6895 235.278L30 235.278L30 236.913L23.7686 236.913C22.3857 236.913 21.6943 237.59 21.6943 238.943C21.6943 240.01 22.1484 240.739 23.0566 241.132L30 241.132L30 242.758L20.4902 242.758L20.4902 241.22ZM30 221.093C29.8125 221.187 29.4785 221.263 28.998 221.321C29.7832 222.077 30.1758 222.979 30.1758 224.028C30.1758 224.966 29.9121 225.736 29.3848 226.34C28.8516 226.938 28.1777 227.236 27.3633 227.236C26.373 227.236 25.6055 226.861 25.0605 226.111C24.5098 225.355 24.2344 224.295 24.2344 222.93L24.2344 221.348L23.4873 221.348C22.9189 221.348 22.4678 221.518 22.1338 221.857C21.7939 222.197 21.624 222.698 21.624 223.36C21.624 223.94 21.7705 224.427 22.0635 224.819C22.3564 225.212 22.7109 225.408 23.127 225.408L23.127 227.043C22.6523 227.043 22.1953 226.876 21.7559 226.542C21.3105 226.202 20.959 225.745 20.7012 225.171C20.4434 224.591 20.3145 223.955 20.3145 223.264C20.3145 222.168 20.5898 221.31 21.1406 220.688C21.6856 220.067 22.4385 219.745 23.3994 219.722L27.7764 219.722C28.6494 219.722 29.3438 219.61 29.8594 219.388L30 219.388L30 221.093ZM28.7607 223.791C28.7607 223.281 28.6289 222.798 28.3652 222.341C28.1016 221.884 27.7588 221.553 27.3369 221.348L25.3857 221.348L25.3857 222.622C25.3857 224.614 25.9688 225.61 27.1348 225.61C27.6445 225.61 28.043 225.44 28.3301 225.101C28.6172 224.761 28.7607 224.324 28.7607 223.791ZM21.9492 212.576C21.9082 212.822 21.8877 213.089 21.8877 213.376C21.8877 214.442 22.3418 215.166 23.25 215.547L30 215.547L30 217.173L20.4902 217.173L20.4902 215.591L21.5889 215.564C20.7393 215.031 20.3145 214.275 20.3145 213.297C20.3145 212.98 20.3555 212.74 20.4375 212.576L21.9492 212.576ZM25.166 211.636C23.6836 211.636 22.5059 211.293 21.6328 210.607C20.7539 209.922 20.3145 209.014 20.3145 207.883C20.3145 206.723 20.7246 205.817 21.5449 205.167L20.4902 205.088L20.4902 203.603L29.7715 203.603C31.002 203.603 31.9717 203.969 32.6807 204.701C33.3897 205.428 33.7441 206.406 33.7441 207.637C33.7441 208.322 33.5977 208.993 33.3047 209.649C33.0117 210.306 32.6104 210.807 32.1006 211.152L31.125 210.309C31.9863 209.611 32.417 208.759 32.417 207.751C32.417 206.96 32.1943 206.345 31.749 205.905C31.3037 205.46 30.6768 205.237 29.8682 205.237L29.0508 205.237C29.8008 205.888 30.1758 206.775 30.1758 207.9C30.1758 209.014 29.7275 209.916 28.8311 210.607C27.9346 211.293 26.7129 211.636 25.166 211.636ZM25.3506 210.001C26.4229 210.001 27.2666 209.781 27.8818 209.342C28.4912 208.902 28.7959 208.287 28.7959 207.496C28.7959 206.471 28.3301 205.718 27.3984 205.237L23.0566 205.237C22.1484 205.735 21.6943 206.482 21.6943 207.479C21.6943 208.27 22.002 208.888 22.6172 209.333C23.2324 209.778 24.1436 210.001 25.3506 210.001ZM30 199.375L30 201.001L20.4902 201.001L20.4902 199.375L30 199.375ZM17.9678 201.133C17.7041 201.133 17.4815 201.054 17.2998 200.896C17.1182 200.731 17.0273 200.491 17.0273 200.175C17.0273 199.858 17.1182 199.618 17.2998 199.454C17.4815 199.29 17.7041 199.208 17.9678 199.208C18.2315 199.208 18.4512 199.29 18.627 199.454C18.8027 199.618 18.8906 199.858 18.8906 200.175C18.8906 200.491 18.8027 200.731 18.627 200.896C18.4512 201.054 18.2315 201.133 17.9678 201.133ZM20.4902 195.227L21.6856 195.174C20.7715 194.447 20.3145 193.498 20.3145 192.326C20.3145 190.316 21.4482 189.303 23.7158 189.285L30 189.285L30 190.911L23.707 190.911C23.0215 190.917 22.5147 191.075 22.1865 191.386C21.8584 191.69 21.6943 192.168 21.6943 192.818C21.6943 193.346 21.835 193.809 22.1162 194.207C22.3975 194.605 22.7666 194.916 23.2236 195.139L30 195.139L30 196.765L20.4902 196.765L20.4902 195.227ZM25.2275 183.449L25.2275 187.738L23.9004 187.738L23.9004 183.449L25.2275 183.449ZM30 180.092L30 181.718L16.5 181.718L16.5 180.092L30 180.092ZM30.1758 173.535C30.1758 174.824 29.7539 175.873 28.9102 176.682C28.0606 177.49 26.9268 177.895 25.5088 177.895L25.21 177.895C24.2666 177.895 23.4258 177.716 22.6875 177.358C21.9434 176.995 21.3633 176.491 20.9473 175.847C20.5254 175.196 20.3145 174.493 20.3145 173.737C20.3145 172.501 20.7217 171.54 21.5361 170.854C22.3506 170.169 23.5166 169.826 25.0342 169.826L25.7109 169.826L25.7109 176.269C26.6484 176.245 27.4072 175.973 27.9873 175.451C28.5615 174.924 28.8486 174.256 28.8486 173.447C28.8486 172.873 28.7315 172.387 28.4971 171.988C28.2627 171.59 27.9522 171.241 27.5654 170.942L28.3389 169.949C29.5635 170.746 30.1758 171.941 30.1758 173.535ZM21.6504 173.737C21.6504 174.394 21.8906 174.944 22.3711 175.39C22.8457 175.835 23.5137 176.11 24.375 176.216L24.375 171.452L24.252 171.452C23.4258 171.499 22.7871 171.722 22.3359 172.12C21.8789 172.519 21.6504 173.058 21.6504 173.737ZM30 167.137L21.7471 167.137L21.7471 168.64L20.4902 168.64L20.4902 167.137L19.5147 167.137C18.4951 167.137 17.707 166.864 17.1504 166.319C16.5938 165.774 16.3154 165.004 16.3154 164.008C16.3154 163.633 16.3652 163.261 16.4649 162.892L17.7832 162.979C17.7305 163.255 17.7041 163.548 17.7041 163.858C17.7041 164.386 17.8594 164.793 18.1699 165.08C18.4746 165.367 18.9141 165.511 19.4883 165.511L20.4902 165.511L20.4902 163.48L21.7471 163.48L21.7471 165.511L30 165.511L30 167.137ZM18.1875 159.473L20.4902 159.473L20.4902 157.697L21.7471 157.697L21.7471 159.473L27.6445 159.473C28.0254 159.473 28.3125 159.394 28.5059 159.235C28.6934 159.077 28.7871 158.808 28.7871 158.427C28.7871 158.239 28.752 157.981 28.6817 157.653L30 157.653C30.1172 158.081 30.1758 158.497 30.1758 158.901C30.1758 159.628 29.9561 160.176 29.5166 160.545C29.0772 160.914 28.4531 161.099 27.6445 161.099L21.7471 161.099L21.7471 162.83L20.4902 162.83L20.4902 161.099L18.1875 161.099L18.1875 159.473Z" fill="white"/>
<path d="M223.802 368.49L223.846 369.545C224.543 368.725 225.483 368.314 226.667 368.314C227.997 368.314 228.902 368.824 229.383 369.844C229.699 369.387 230.109 369.018 230.613 368.736C231.123 368.455 231.724 368.314 232.415 368.314C234.501 368.314 235.562 369.419 235.597 371.628V378H233.971V371.725C233.971 371.045 233.815 370.538 233.505 370.204C233.194 369.864 232.673 369.694 231.94 369.694C231.337 369.694 230.836 369.876 230.438 370.239C230.039 370.597 229.808 371.08 229.743 371.689V378H228.108V371.769C228.108 370.386 227.432 369.694 226.078 369.694C225.012 369.694 224.282 370.148 223.89 371.057V378H222.264V368.49H223.802ZM243.929 378C243.835 377.812 243.759 377.479 243.7 376.998C242.944 377.783 242.042 378.176 240.993 378.176C240.056 378.176 239.285 377.912 238.682 377.385C238.084 376.852 237.785 376.178 237.785 375.363C237.785 374.373 238.16 373.605 238.91 373.061C239.666 372.51 240.727 372.234 242.092 372.234H243.674V371.487C243.674 370.919 243.504 370.468 243.164 370.134C242.824 369.794 242.323 369.624 241.661 369.624C241.081 369.624 240.595 369.771 240.202 370.063C239.81 370.356 239.613 370.711 239.613 371.127H237.979C237.979 370.652 238.146 370.195 238.479 369.756C238.819 369.311 239.276 368.959 239.851 368.701C240.431 368.443 241.066 368.314 241.758 368.314C242.854 368.314 243.712 368.59 244.333 369.141C244.954 369.686 245.276 370.438 245.3 371.399V375.776C245.3 376.649 245.411 377.344 245.634 377.859V378H243.929ZM241.23 376.761C241.74 376.761 242.224 376.629 242.681 376.365C243.138 376.102 243.469 375.759 243.674 375.337V373.386H242.399C240.407 373.386 239.411 373.969 239.411 375.135C239.411 375.645 239.581 376.043 239.921 376.33C240.261 376.617 240.697 376.761 241.23 376.761ZM252.445 369.949C252.199 369.908 251.933 369.888 251.646 369.888C250.579 369.888 249.855 370.342 249.475 371.25V378H247.849V368.49H249.431L249.457 369.589C249.99 368.739 250.746 368.314 251.725 368.314C252.041 368.314 252.281 368.355 252.445 368.438V369.949ZM253.386 373.166C253.386 371.684 253.729 370.506 254.414 369.633C255.1 368.754 256.008 368.314 257.139 368.314C258.299 368.314 259.204 368.725 259.854 369.545L259.934 368.49H261.419V377.771C261.419 379.002 261.053 379.972 260.32 380.681C259.594 381.39 258.615 381.744 257.385 381.744C256.699 381.744 256.028 381.598 255.372 381.305C254.716 381.012 254.215 380.61 253.869 380.101L254.713 379.125C255.41 379.986 256.263 380.417 257.271 380.417C258.062 380.417 258.677 380.194 259.116 379.749C259.562 379.304 259.784 378.677 259.784 377.868V377.051C259.134 377.801 258.246 378.176 257.121 378.176C256.008 378.176 255.105 377.728 254.414 376.831C253.729 375.935 253.386 374.713 253.386 373.166ZM255.021 373.351C255.021 374.423 255.24 375.267 255.68 375.882C256.119 376.491 256.734 376.796 257.525 376.796C258.551 376.796 259.304 376.33 259.784 375.398V371.057C259.286 370.148 258.539 369.694 257.543 369.694C256.752 369.694 256.134 370.002 255.688 370.617C255.243 371.232 255.021 372.144 255.021 373.351ZM265.646 378H264.021V368.49H265.646V378ZM263.889 365.968C263.889 365.704 263.968 365.481 264.126 365.3C264.29 365.118 264.53 365.027 264.847 365.027C265.163 365.027 265.403 365.118 265.567 365.3C265.731 365.481 265.813 365.704 265.813 365.968C265.813 366.231 265.731 366.451 265.567 366.627C265.403 366.803 265.163 366.891 264.847 366.891C264.53 366.891 264.29 366.803 264.126 366.627C263.968 366.451 263.889 366.231 263.889 365.968ZM269.795 368.49L269.848 369.686C270.574 368.771 271.523 368.314 272.695 368.314C274.705 368.314 275.719 369.448 275.736 371.716V378H274.11V371.707C274.104 371.021 273.946 370.515 273.636 370.187C273.331 369.858 272.854 369.694 272.203 369.694C271.676 369.694 271.213 369.835 270.814 370.116C270.416 370.397 270.105 370.767 269.883 371.224V378H268.257V368.49H269.795ZM281.572 373.228H277.283V371.9H281.572V373.228ZM291.214 373.351C291.214 374.804 290.88 375.973 290.212 376.857C289.544 377.736 288.647 378.176 287.522 378.176C286.321 378.176 285.393 377.751 284.736 376.901L284.657 378H283.163V364.5H284.789V369.536C285.445 368.722 286.351 368.314 287.505 368.314C288.659 368.314 289.564 368.751 290.221 369.624C290.883 370.497 291.214 371.692 291.214 373.21V373.351ZM289.588 373.166C289.588 372.059 289.374 371.203 288.946 370.6C288.519 369.996 287.903 369.694 287.101 369.694C286.028 369.694 285.258 370.192 284.789 371.188V375.302C285.287 376.298 286.063 376.796 287.118 376.796C287.897 376.796 288.504 376.494 288.938 375.891C289.371 375.287 289.588 374.379 289.588 373.166ZM292.84 373.157C292.84 372.226 293.021 371.388 293.385 370.644C293.754 369.899 294.264 369.325 294.914 368.921C295.57 368.517 296.317 368.314 297.155 368.314C298.45 368.314 299.496 368.763 300.293 369.659C301.096 370.556 301.497 371.748 301.497 373.236V373.351C301.497 374.276 301.318 375.108 300.961 375.847C300.609 376.579 300.103 377.15 299.44 377.561C298.784 377.971 298.028 378.176 297.173 378.176C295.884 378.176 294.838 377.728 294.035 376.831C293.238 375.935 292.84 374.748 292.84 373.271V373.157ZM294.475 373.351C294.475 374.405 294.718 375.252 295.204 375.891C295.696 376.529 296.353 376.849 297.173 376.849C297.999 376.849 298.655 376.526 299.142 375.882C299.628 375.231 299.871 374.323 299.871 373.157C299.871 372.114 299.622 371.271 299.124 370.626C298.632 369.976 297.976 369.65 297.155 369.65C296.353 369.65 295.705 369.97 295.213 370.608C294.721 371.247 294.475 372.161 294.475 373.351ZM305.742 366.188V368.49H307.518V369.747H305.742V375.645C305.742 376.025 305.821 376.312 305.979 376.506C306.138 376.693 306.407 376.787 306.788 376.787C306.976 376.787 307.233 376.752 307.562 376.682V378C307.134 378.117 306.718 378.176 306.313 378.176C305.587 378.176 305.039 377.956 304.67 377.517C304.301 377.077 304.116 376.453 304.116 375.645V369.747H302.385V368.49H304.116V366.188H305.742ZM311.631 366.188V368.49H313.406V369.747H311.631V375.645C311.631 376.025 311.71 376.312 311.868 376.506C312.026 376.693 312.296 376.787 312.677 376.787C312.864 376.787 313.122 376.752 313.45 376.682V378C313.022 378.117 312.606 378.176 312.202 378.176C311.476 378.176 310.928 377.956 310.559 377.517C310.189 377.077 310.005 376.453 310.005 375.645V369.747H308.273V368.49H310.005V366.188H311.631ZM314.707 373.157C314.707 372.226 314.889 371.388 315.252 370.644C315.621 369.899 316.131 369.325 316.781 368.921C317.438 368.517 318.185 368.314 319.022 368.314C320.317 368.314 321.363 368.763 322.16 369.659C322.963 370.556 323.364 371.748 323.364 373.236V373.351C323.364 374.276 323.186 375.108 322.828 375.847C322.477 376.579 321.97 377.15 321.308 377.561C320.651 377.971 319.896 378.176 319.04 378.176C317.751 378.176 316.705 377.728 315.902 376.831C315.105 375.935 314.707 374.748 314.707 373.271V373.157ZM316.342 373.351C316.342 374.405 316.585 375.252 317.071 375.891C317.563 376.529 318.22 376.849 319.04 376.849C319.866 376.849 320.522 376.526 321.009 375.882C321.495 375.231 321.738 374.323 321.738 373.157C321.738 372.114 321.489 371.271 320.991 370.626C320.499 369.976 319.843 369.65 319.022 369.65C318.22 369.65 317.572 369.97 317.08 370.608C316.588 371.247 316.342 372.161 316.342 373.351ZM326.933 368.49L326.977 369.545C327.674 368.725 328.614 368.314 329.798 368.314C331.128 368.314 332.033 368.824 332.514 369.844C332.83 369.387 333.24 369.018 333.744 368.736C334.254 368.455 334.854 368.314 335.546 368.314C337.632 368.314 338.692 369.419 338.728 371.628V378H337.102V371.725C337.102 371.045 336.946 370.538 336.636 370.204C336.325 369.864 335.804 369.694 335.071 369.694C334.468 369.694 333.967 369.876 333.568 370.239C333.17 370.597 332.938 371.08 332.874 371.689V378H331.239V371.769C331.239 370.386 330.562 369.694 329.209 369.694C328.143 369.694 327.413 370.148 327.021 371.057V378H325.395V368.49H326.933Z" fill="white"/>
<path d="M263.73 323.351C263.73 324.804 263.396 325.973 262.729 326.857C262.061 327.736 261.164 328.176 260.039 328.176C258.838 328.176 257.909 327.751 257.253 326.901L257.174 328H255.68V314.5H257.306V319.536C257.962 318.722 258.867 318.314 260.021 318.314C261.176 318.314 262.081 318.751 262.737 319.624C263.399 320.497 263.73 321.692 263.73 323.21V323.351ZM262.104 323.166C262.104 322.059 261.891 321.203 261.463 320.6C261.035 319.996 260.42 319.694 259.617 319.694C258.545 319.694 257.774 320.192 257.306 321.188V325.302C257.804 326.298 258.58 326.796 259.635 326.796C260.414 326.796 261.021 326.494 261.454 325.891C261.888 325.287 262.104 324.379 262.104 323.166ZM265.356 323.157C265.356 322.226 265.538 321.388 265.901 320.644C266.271 319.899 266.78 319.325 267.431 318.921C268.087 318.517 268.834 318.314 269.672 318.314C270.967 318.314 272.013 318.763 272.81 319.659C273.612 320.556 274.014 321.748 274.014 323.236V323.351C274.014 324.276 273.835 325.108 273.478 325.847C273.126 326.579 272.619 327.15 271.957 327.561C271.301 327.971 270.545 328.176 269.689 328.176C268.4 328.176 267.354 327.728 266.552 326.831C265.755 325.935 265.356 324.748 265.356 323.271V323.157ZM266.991 323.351C266.991 324.405 267.234 325.252 267.721 325.891C268.213 326.529 268.869 326.849 269.689 326.849C270.516 326.849 271.172 326.526 271.658 325.882C272.145 325.231 272.388 324.323 272.388 323.157C272.388 322.114 272.139 321.271 271.641 320.626C271.148 319.976 270.492 319.65 269.672 319.65C268.869 319.65 268.222 319.97 267.729 320.608C267.237 321.247 266.991 322.161 266.991 323.351ZM280.649 319.949C280.403 319.908 280.137 319.888 279.85 319.888C278.783 319.888 278.06 320.342 277.679 321.25V328H276.053V318.49H277.635L277.661 319.589C278.194 318.739 278.95 318.314 279.929 318.314C280.245 318.314 280.485 318.355 280.649 318.438V319.949ZM281.581 323.166C281.581 321.707 281.927 320.535 282.618 319.65C283.31 318.76 284.215 318.314 285.334 318.314C286.447 318.314 287.329 318.695 287.979 319.457V314.5H289.605V328H288.111L288.032 326.98C287.382 327.777 286.477 328.176 285.316 328.176C284.215 328.176 283.315 327.725 282.618 326.822C281.927 325.92 281.581 324.742 281.581 323.289V323.166ZM283.207 323.351C283.207 324.429 283.43 325.272 283.875 325.882C284.32 326.491 284.936 326.796 285.721 326.796C286.752 326.796 287.505 326.333 287.979 325.407V321.039C287.493 320.143 286.746 319.694 285.738 319.694C284.941 319.694 284.32 320.002 283.875 320.617C283.43 321.232 283.207 322.144 283.207 323.351ZM296.083 328.176C294.794 328.176 293.745 327.754 292.937 326.91C292.128 326.061 291.724 324.927 291.724 323.509V323.21C291.724 322.267 291.902 321.426 292.26 320.688C292.623 319.943 293.127 319.363 293.771 318.947C294.422 318.525 295.125 318.314 295.881 318.314C297.117 318.314 298.078 318.722 298.764 319.536C299.449 320.351 299.792 321.517 299.792 323.034V323.711H293.35C293.373 324.648 293.646 325.407 294.167 325.987C294.694 326.562 295.362 326.849 296.171 326.849C296.745 326.849 297.231 326.731 297.63 326.497C298.028 326.263 298.377 325.952 298.676 325.565L299.669 326.339C298.872 327.563 297.677 328.176 296.083 328.176ZM295.881 319.65C295.225 319.65 294.674 319.891 294.229 320.371C293.783 320.846 293.508 321.514 293.402 322.375H298.166V322.252C298.119 321.426 297.896 320.787 297.498 320.336C297.1 319.879 296.561 319.65 295.881 319.65ZM306.278 319.949C306.032 319.908 305.766 319.888 305.479 319.888C304.412 319.888 303.688 320.342 303.308 321.25V328H301.682V318.49H303.264L303.29 319.589C303.823 318.739 304.579 318.314 305.558 318.314C305.874 318.314 306.114 318.355 306.278 318.438V319.949Z" fill="black"/>
<path d="M239.771 22.4902L239.815 23.5449C240.513 22.7246 241.453 22.3145 242.637 22.3145C243.967 22.3145 244.872 22.8242 245.353 23.8438C245.669 23.3867 246.079 23.0176 246.583 22.7363C247.093 22.4551 247.693 22.3145 248.385 22.3145C250.471 22.3145 251.531 23.4189 251.566 25.6279V32H249.94V25.7246C249.94 25.0449 249.785 24.5381 249.475 24.2041C249.164 23.8643 248.643 23.6943 247.91 23.6943C247.307 23.6943 246.806 23.876 246.407 24.2393C246.009 24.5967 245.777 25.0801 245.713 25.6895V32H244.078V25.7686C244.078 24.3857 243.401 23.6943 242.048 23.6943C240.981 23.6943 240.252 24.1484 239.859 25.0566V32H238.233V22.4902H239.771ZM259.898 32C259.805 31.8125 259.729 31.4785 259.67 30.998C258.914 31.7832 258.012 32.1758 256.963 32.1758C256.025 32.1758 255.255 31.9121 254.651 31.3848C254.054 30.8516 253.755 30.1777 253.755 29.3633C253.755 28.373 254.13 27.6055 254.88 27.0605C255.636 26.5098 256.696 26.2344 258.062 26.2344H259.644V25.4873C259.644 24.9189 259.474 24.4678 259.134 24.1338C258.794 23.7939 258.293 23.624 257.631 23.624C257.051 23.624 256.564 23.7705 256.172 24.0635C255.779 24.3564 255.583 24.7109 255.583 25.127H253.948C253.948 24.6523 254.115 24.1953 254.449 23.7559C254.789 23.3105 255.246 22.959 255.82 22.7012C256.4 22.4434 257.036 22.3145 257.728 22.3145C258.823 22.3145 259.682 22.5898 260.303 23.1406C260.924 23.6855 261.246 24.4385 261.27 25.3994V29.7764C261.27 30.6494 261.381 31.3438 261.604 31.8594V32H259.898ZM257.2 30.7607C257.71 30.7607 258.193 30.6289 258.65 30.3652C259.107 30.1016 259.438 29.7588 259.644 29.3369V27.3857H258.369C256.377 27.3857 255.381 27.9688 255.381 29.1348C255.381 29.6445 255.551 30.043 255.891 30.3301C256.23 30.6172 256.667 30.7607 257.2 30.7607ZM268.415 23.9492C268.169 23.9082 267.902 23.8877 267.615 23.8877C266.549 23.8877 265.825 24.3418 265.444 25.25V32H263.818V22.4902H265.4L265.427 23.5889C265.96 22.7393 266.716 22.3145 267.694 22.3145C268.011 22.3145 268.251 22.3555 268.415 22.4375V23.9492ZM269.355 27.166C269.355 25.6836 269.698 24.5059 270.384 23.6328C271.069 22.7539 271.978 22.3145 273.108 22.3145C274.269 22.3145 275.174 22.7246 275.824 23.5449L275.903 22.4902H277.389V31.7715C277.389 33.002 277.022 33.9717 276.29 34.6807C275.563 35.3896 274.585 35.7441 273.354 35.7441C272.669 35.7441 271.998 35.5977 271.342 35.3047C270.686 35.0117 270.185 34.6104 269.839 34.1006L270.683 33.125C271.38 33.9863 272.232 34.417 273.24 34.417C274.031 34.417 274.646 34.1943 275.086 33.749C275.531 33.3037 275.754 32.6768 275.754 31.8682V31.0508C275.104 31.8008 274.216 32.1758 273.091 32.1758C271.978 32.1758 271.075 31.7275 270.384 30.8311C269.698 29.9346 269.355 28.7129 269.355 27.166ZM270.99 27.3506C270.99 28.4229 271.21 29.2666 271.649 29.8818C272.089 30.4912 272.704 30.7959 273.495 30.7959C274.521 30.7959 275.273 30.3301 275.754 29.3984V25.0566C275.256 24.1484 274.509 23.6943 273.513 23.6943C272.722 23.6943 272.104 24.002 271.658 24.6172C271.213 25.2324 270.99 26.1436 270.99 27.3506ZM281.616 32H279.99V22.4902H281.616V32ZM279.858 19.9678C279.858 19.7041 279.938 19.4814 280.096 19.2998C280.26 19.1182 280.5 19.0273 280.816 19.0273C281.133 19.0273 281.373 19.1182 281.537 19.2998C281.701 19.4814 281.783 19.7041 281.783 19.9678C281.783 20.2314 281.701 20.4512 281.537 20.627C281.373 20.8027 281.133 20.8906 280.816 20.8906C280.5 20.8906 280.26 20.8027 280.096 20.627C279.938 20.4512 279.858 20.2314 279.858 19.9678ZM285.765 22.4902L285.817 23.6855C286.544 22.7715 287.493 22.3145 288.665 22.3145C290.675 22.3145 291.688 23.4482 291.706 25.7158V32H290.08V25.707C290.074 25.0215 289.916 24.5146 289.605 24.1865C289.301 23.8584 288.823 23.6943 288.173 23.6943C287.646 23.6943 287.183 23.835 286.784 24.1162C286.386 24.3975 286.075 24.7666 285.853 25.2236V32H284.227V22.4902H285.765ZM297.542 27.2275H293.253V25.9004H297.542V27.2275ZM301.339 20.1875V22.4902H303.114V23.7471H301.339V29.6445C301.339 30.0254 301.418 30.3125 301.576 30.5059C301.734 30.6934 302.004 30.7871 302.385 30.7871C302.572 30.7871 302.83 30.752 303.158 30.6816V32C302.73 32.1172 302.314 32.1758 301.91 32.1758C301.184 32.1758 300.636 31.9561 300.267 31.5166C299.897 31.0771 299.713 30.4531 299.713 29.6445V23.7471H297.981V22.4902H299.713V20.1875H301.339ZM304.415 27.1572C304.415 26.2256 304.597 25.3877 304.96 24.6436C305.329 23.8994 305.839 23.3252 306.489 22.9209C307.146 22.5166 307.893 22.3145 308.73 22.3145C310.025 22.3145 311.071 22.7627 311.868 23.6592C312.671 24.5557 313.072 25.748 313.072 27.2363V27.3506C313.072 28.2764 312.894 29.1084 312.536 29.8467C312.185 30.5791 311.678 31.1504 311.016 31.5605C310.359 31.9707 309.604 32.1758 308.748 32.1758C307.459 32.1758 306.413 31.7275 305.61 30.8311C304.813 29.9346 304.415 28.748 304.415 27.2715V27.1572ZM306.05 27.3506C306.05 28.4053 306.293 29.252 306.779 29.8906C307.271 30.5293 307.928 30.8486 308.748 30.8486C309.574 30.8486 310.23 30.5264 310.717 29.8818C311.203 29.2314 311.446 28.3232 311.446 27.1572C311.446 26.1143 311.197 25.2705 310.699 24.626C310.207 23.9756 309.551 23.6504 308.73 23.6504C307.928 23.6504 307.28 23.9697 306.788 24.6084C306.296 25.2471 306.05 26.1611 306.05 27.3506ZM323.145 27.3506C323.145 28.7979 322.813 29.9639 322.151 30.8486C321.489 31.7334 320.593 32.1758 319.462 32.1758C318.308 32.1758 317.399 31.8096 316.737 31.0771V35.6562H315.111V22.4902H316.597L316.676 23.5449C317.338 22.7246 318.258 22.3145 319.436 22.3145C320.578 22.3145 321.48 22.7451 322.143 23.6064C322.811 24.4678 323.145 25.666 323.145 27.2012V27.3506ZM321.519 27.166C321.519 26.0938 321.29 25.2471 320.833 24.626C320.376 24.0049 319.749 23.6943 318.952 23.6943C317.968 23.6943 317.229 24.1309 316.737 25.0039V29.5479C317.224 30.415 317.968 30.8486 318.97 30.8486C319.749 30.8486 320.367 30.541 320.824 29.9258C321.287 29.3047 321.519 28.3848 321.519 27.166Z" fill="white"/>
<path d="M257.446 273.351C257.446 274.798 257.115 275.964 256.453 276.849C255.791 277.733 254.895 278.176 253.764 278.176C252.609 278.176 251.701 277.81 251.039 277.077V281.656H249.413V268.49H250.898L250.978 269.545C251.64 268.725 252.56 268.314 253.737 268.314C254.88 268.314 255.782 268.745 256.444 269.606C257.112 270.468 257.446 271.666 257.446 273.201V273.351ZM255.82 273.166C255.82 272.094 255.592 271.247 255.135 270.626C254.678 270.005 254.051 269.694 253.254 269.694C252.27 269.694 251.531 270.131 251.039 271.004V275.548C251.525 276.415 252.27 276.849 253.271 276.849C254.051 276.849 254.669 276.541 255.126 275.926C255.589 275.305 255.82 274.385 255.82 273.166ZM265.392 278C265.298 277.812 265.222 277.479 265.163 276.998C264.407 277.783 263.505 278.176 262.456 278.176C261.519 278.176 260.748 277.912 260.145 277.385C259.547 276.852 259.248 276.178 259.248 275.363C259.248 274.373 259.623 273.605 260.373 273.061C261.129 272.51 262.189 272.234 263.555 272.234H265.137V271.487C265.137 270.919 264.967 270.468 264.627 270.134C264.287 269.794 263.786 269.624 263.124 269.624C262.544 269.624 262.058 269.771 261.665 270.063C261.272 270.356 261.076 270.711 261.076 271.127H259.441C259.441 270.652 259.608 270.195 259.942 269.756C260.282 269.311 260.739 268.959 261.313 268.701C261.894 268.443 262.529 268.314 263.221 268.314C264.316 268.314 265.175 268.59 265.796 269.141C266.417 269.686 266.739 270.438 266.763 271.399V275.776C266.763 276.649 266.874 277.344 267.097 277.859V278H265.392ZM262.693 276.761C263.203 276.761 263.687 276.629 264.144 276.365C264.601 276.102 264.932 275.759 265.137 275.337V273.386H263.862C261.87 273.386 260.874 273.969 260.874 275.135C260.874 275.645 261.044 276.043 261.384 276.33C261.724 276.617 262.16 276.761 262.693 276.761ZM268.916 273.166C268.916 271.707 269.262 270.535 269.953 269.65C270.645 268.76 271.55 268.314 272.669 268.314C273.782 268.314 274.664 268.695 275.314 269.457V264.5H276.94V278H275.446L275.367 276.98C274.717 277.777 273.812 278.176 272.651 278.176C271.55 278.176 270.65 277.725 269.953 276.822C269.262 275.92 268.916 274.742 268.916 273.289V273.166ZM270.542 273.351C270.542 274.429 270.765 275.272 271.21 275.882C271.655 276.491 272.271 276.796 273.056 276.796C274.087 276.796 274.84 276.333 275.314 275.407V271.039C274.828 270.143 274.081 269.694 273.073 269.694C272.276 269.694 271.655 270.002 271.21 270.617C270.765 271.232 270.542 272.144 270.542 273.351ZM279.076 273.166C279.076 271.707 279.422 270.535 280.113 269.65C280.805 268.76 281.71 268.314 282.829 268.314C283.942 268.314 284.824 268.695 285.475 269.457V264.5H287.101V278H285.606L285.527 276.98C284.877 277.777 283.972 278.176 282.812 278.176C281.71 278.176 280.811 277.725 280.113 276.822C279.422 275.92 279.076 274.742 279.076 273.289V273.166ZM280.702 273.351C280.702 274.429 280.925 275.272 281.37 275.882C281.815 276.491 282.431 276.796 283.216 276.796C284.247 276.796 285 276.333 285.475 275.407V271.039C284.988 270.143 284.241 269.694 283.233 269.694C282.437 269.694 281.815 270.002 281.37 270.617C280.925 271.232 280.702 272.144 280.702 273.351ZM291.398 278H289.772V268.49H291.398V278ZM289.641 265.968C289.641 265.704 289.72 265.481 289.878 265.3C290.042 265.118 290.282 265.027 290.599 265.027C290.915 265.027 291.155 265.118 291.319 265.3C291.483 265.481 291.565 265.704 291.565 265.968C291.565 266.231 291.483 266.451 291.319 266.627C291.155 266.803 290.915 266.891 290.599 266.891C290.282 266.891 290.042 266.803 289.878 266.627C289.72 266.451 289.641 266.231 289.641 265.968ZM295.547 268.49L295.6 269.686C296.326 268.771 297.275 268.314 298.447 268.314C300.457 268.314 301.471 269.448 301.488 271.716V278H299.862V271.707C299.856 271.021 299.698 270.515 299.388 270.187C299.083 269.858 298.605 269.694 297.955 269.694C297.428 269.694 296.965 269.835 296.566 270.116C296.168 270.397 295.857 270.767 295.635 271.224V278H294.009V268.49H295.547ZM303.554 273.166C303.554 271.684 303.896 270.506 304.582 269.633C305.268 268.754 306.176 268.314 307.307 268.314C308.467 268.314 309.372 268.725 310.022 269.545L310.102 268.49H311.587V277.771C311.587 279.002 311.221 279.972 310.488 280.681C309.762 281.39 308.783 281.744 307.553 281.744C306.867 281.744 306.196 281.598 305.54 281.305C304.884 281.012 304.383 280.61 304.037 280.101L304.881 279.125C305.578 279.986 306.431 280.417 307.438 280.417C308.229 280.417 308.845 280.194 309.284 279.749C309.729 279.304 309.952 278.677 309.952 277.868V277.051C309.302 277.801 308.414 278.176 307.289 278.176C306.176 278.176 305.273 277.728 304.582 276.831C303.896 275.935 303.554 274.713 303.554 273.166ZM305.188 273.351C305.188 274.423 305.408 275.267 305.848 275.882C306.287 276.491 306.902 276.796 307.693 276.796C308.719 276.796 309.472 276.33 309.952 275.398V271.057C309.454 270.148 308.707 269.694 307.711 269.694C306.92 269.694 306.302 270.002 305.856 270.617C305.411 271.232 305.188 272.144 305.188 273.351Z" fill="black"/>
</svg>
