<svg width="994" height="220" viewBox="0 0 994 220" fill="none" xmlns="http://www.w3.org/2000/svg">
<path d="M188.516 142V136.876H191.322C194.006 136.876 196.324 136.429 198.276 135.534C200.309 134.558 201.326 132.281 201.326 128.702V60.992H189.614C186.035 60.992 183.554 62.0087 182.172 64.042C180.789 65.994 179.935 68.312 179.61 70.996L179 76.242H172.656L173.266 54.892H241.952L242.562 76.242H236.218L235.608 70.996C235.282 68.312 234.428 65.994 233.046 64.042C231.663 62.0087 229.142 60.992 225.482 60.992H213.648V128.092C213.648 131.915 214.624 134.355 216.576 135.412C218.528 136.388 220.886 136.876 223.652 136.876H226.458V142H188.516ZM249.672 165.546C255.203 165.546 259.717 164.489 263.214 162.374C266.793 160.259 269.68 157.372 271.876 153.712C274.072 150.133 275.821 146.067 277.122 141.512L254.552 88.198C253.495 85.6767 252.356 83.9687 251.136 83.074C249.997 82.1793 248.249 81.732 245.89 81.732H245.524V76.608H274.804V81.732H274.438C269.558 81.732 267.118 83.684 267.118 87.588C267.118 88.9707 267.443 90.4753 268.094 92.102L277 113.818C277.813 115.689 278.586 117.763 279.318 120.04C280.131 122.236 280.863 124.351 281.514 126.384C282.165 128.417 282.612 130.125 282.856 131.508C283.425 129.149 284.157 126.709 285.052 124.188C286.028 121.667 286.923 119.186 287.736 116.746L295.91 92.956C296.642 91.004 297.008 89.2553 297.008 87.71C297.008 83.7247 294.324 81.732 288.956 81.732H288.59V76.608H313.966V81.732H313.6C311.241 81.732 309.452 82.342 308.232 83.562C307.012 84.782 305.711 87.344 304.328 91.248L285.784 142.488C283.669 148.425 281.636 153.265 279.684 157.006C277.732 160.747 275.536 163.635 273.096 165.668C270.737 167.783 267.769 169.247 264.19 170.06C260.611 170.873 256.138 171.28 250.77 171.28H249.672V165.546ZM316.215 171.28V166.156H317.191C319.956 166.156 322.315 165.627 324.267 164.57C326.219 163.594 327.195 161.195 327.195 157.372V90.028C327.195 86.4493 326.178 84.172 324.145 83.196C322.193 82.22 319.875 81.732 317.191 81.732H315.605V76.608H336.955L338.175 87.588H338.663C340.533 83.8467 342.933 80.878 345.861 78.682C348.789 76.486 352.611 75.388 357.329 75.388C365.381 75.388 371.521 78.1127 375.751 83.562C380.061 88.93 382.217 97.47 382.217 109.182C382.217 120.975 380.061 129.597 375.751 135.046C371.521 140.495 365.381 143.22 357.329 143.22C352.611 143.22 348.748 142.244 345.739 140.292C342.811 138.259 340.452 135.656 338.663 132.484H338.175C338.337 134.843 338.459 137.364 338.541 140.048C338.622 142.651 338.663 144.725 338.663 146.27V157.982C338.663 161.561 339.639 163.797 341.591 164.692C343.624 165.668 345.983 166.156 348.667 166.156H349.033V171.28H316.215ZM355.377 135.412C360.745 135.412 364.567 133.175 366.845 128.702C369.203 124.147 370.383 117.6 370.383 109.06C370.383 100.357 369.203 93.8913 366.845 89.662C364.567 85.3513 360.704 83.196 355.255 83.196C348.911 83.196 344.559 85.3513 342.201 89.662C339.842 93.8913 338.663 100.398 338.663 109.182C338.663 117.641 339.842 124.147 342.201 128.702C344.559 133.175 348.951 135.412 355.377 135.412ZM423.972 143.22C415.188 143.22 408.275 140.414 403.232 134.802C398.189 129.19 395.668 120.65 395.668 109.182C395.668 97.7953 398.067 89.3367 402.866 83.806C407.746 78.194 414.903 75.388 424.338 75.388C433.122 75.388 440.035 78.194 445.078 83.806C450.121 89.3367 452.642 97.7953 452.642 109.182C452.642 120.65 450.202 129.19 445.322 134.802C440.523 140.414 433.407 143.22 423.972 143.22ZM424.216 136.876C430.316 136.876 434.586 134.558 437.026 129.922C439.547 125.205 440.808 118.291 440.808 109.182C440.808 100.073 439.547 93.2407 437.026 88.686C434.505 84.1313 430.194 81.854 424.094 81.854C417.994 81.854 413.683 84.1313 411.162 88.686C408.722 93.2407 407.502 100.073 407.502 109.182C407.502 118.291 408.763 125.205 411.284 129.922C413.805 134.558 418.116 136.876 424.216 136.876ZM487.552 171.28C479.093 171.28 472.749 169.694 468.52 166.522C464.291 163.431 462.176 159.08 462.176 153.468C462.176 148.669 463.721 145.05 466.812 142.61C469.903 140.17 473.441 138.584 477.426 137.852C475.799 137.12 474.254 135.941 472.79 134.314C471.407 132.606 470.716 130.451 470.716 127.848C470.716 125.408 471.326 123.293 472.546 121.504C473.847 119.715 475.881 118.007 478.646 116.38C475.149 114.916 472.424 112.517 470.472 109.182C468.601 105.766 467.666 102.025 467.666 97.958C467.666 90.9633 469.577 85.4733 473.4 81.488C477.223 77.4213 482.957 75.388 490.602 75.388C493.53 75.388 496.295 75.7947 498.898 76.608C501.501 77.4213 503.371 78.3567 504.51 79.414C505.649 78.1127 507.235 76.6893 509.268 75.144C511.301 73.5987 513.66 72.826 516.344 72.826C518.784 72.826 520.573 73.4767 521.712 74.778C522.932 75.998 523.542 77.462 523.542 79.17C523.542 80.878 523.013 82.3827 521.956 83.684C520.98 84.904 519.353 85.514 517.076 85.514C517.076 84.6193 516.791 83.7247 516.222 82.83C515.734 81.854 514.677 81.366 513.05 81.366C511.179 81.366 509.431 81.854 507.804 82.83C509.187 84.538 510.325 86.5713 511.22 88.93C512.115 91.2073 512.562 94.0947 512.562 97.592C512.562 103.611 510.732 108.613 507.072 112.598C503.493 116.583 498.003 118.576 490.602 118.576C489.626 118.576 488.487 118.535 487.186 118.454C485.966 118.291 484.949 118.129 484.136 117.966C482.591 118.779 481.249 119.796 480.11 121.016C478.971 122.236 478.402 123.781 478.402 125.652C478.402 127.116 478.849 128.255 479.744 129.068C480.72 129.881 482.794 130.288 485.966 130.288H499.752C506.991 130.288 512.155 131.996 515.246 135.412C518.337 138.828 519.882 143.179 519.882 148.466C519.882 155.461 517.239 160.991 511.952 165.058C506.747 169.206 498.613 171.28 487.552 171.28ZM490.236 112.72C494.221 112.72 497.027 111.5 498.654 109.06C500.281 106.62 501.094 102.757 501.094 97.47C501.094 91.9393 500.24 87.8727 498.532 85.27C496.905 82.6673 494.099 81.366 490.114 81.366C486.21 81.366 483.404 82.708 481.696 85.392C479.988 88.076 479.134 92.1427 479.134 97.592C479.134 102.797 479.988 106.62 481.696 109.06C483.485 111.5 486.332 112.72 490.236 112.72ZM487.796 165.302C493.652 165.302 498.166 164.651 501.338 163.35C504.51 162.13 506.706 160.381 507.926 158.104C509.227 155.908 509.878 153.387 509.878 150.54C509.878 146.799 508.821 144.277 506.706 142.976C504.591 141.756 501.501 141.146 497.434 141.146H485.478C483.201 141.146 481.045 141.431 479.012 142C476.979 142.651 475.311 143.789 474.01 145.416C472.709 147.043 472.058 149.483 472.058 152.736C472.058 155.095 472.505 157.209 473.4 159.08C474.295 161.032 475.881 162.537 478.158 163.594C480.435 164.733 483.648 165.302 487.796 165.302ZM529.043 142V136.876H529.409C532.174 136.876 534.533 136.388 536.485 135.412C538.437 134.355 539.413 131.915 539.413 128.092V90.028C539.413 86.4493 538.396 84.172 536.363 83.196C534.411 82.22 532.093 81.732 529.409 81.732H529.043V76.608H547.831L550.149 88.686H550.759C551.816 86.246 552.955 84.0093 554.175 81.976C555.395 79.9427 557.021 78.3567 559.055 77.218C561.088 75.998 563.894 75.388 567.473 75.388C571.946 75.388 575.24 76.1607 577.355 77.706C579.551 79.2513 580.649 81.4473 580.649 84.294C580.649 86.8153 579.754 88.8893 577.965 90.516C576.257 92.1427 573.369 92.956 569.303 92.956C569.303 89.6213 568.815 87.222 567.839 85.758C566.863 84.2127 565.195 83.44 562.837 83.44C560.559 83.44 558.648 84.3347 557.103 86.124C555.557 87.9133 554.337 90.1907 553.443 92.956C552.548 95.7213 551.897 98.6087 551.491 101.618C551.084 104.546 550.881 107.189 550.881 109.548V128.702C550.881 132.281 551.857 134.558 553.809 135.534C555.842 136.429 558.201 136.876 560.885 136.876H564.301V142H529.043ZM605.07 143.22C599.62 143.22 595.106 141.634 591.528 138.462C587.949 135.29 586.16 130.369 586.16 123.7C586.16 117.193 588.437 112.395 592.992 109.304C597.628 106.213 604.622 104.505 613.976 104.18L624.102 103.814V96.494C624.102 93.566 623.858 91.004 623.37 88.808C622.882 86.5307 621.824 84.7413 620.198 83.44C618.571 82.1387 616.09 81.488 612.756 81.488C609.665 81.488 607.306 82.0573 605.68 83.196C604.053 84.3347 602.955 85.9207 602.386 87.954C601.898 89.906 601.654 92.1833 601.654 94.786C598.238 94.786 595.635 94.2167 593.846 93.078C592.138 91.858 591.284 89.8653 591.284 87.1C591.284 84.2533 592.26 81.976 594.212 80.268C596.245 78.56 598.929 77.34 602.264 76.608C605.598 75.7947 609.258 75.388 613.244 75.388C620.726 75.388 626.298 76.974 629.958 80.146C633.699 83.318 635.57 88.7673 635.57 96.494V128.092C635.57 131.508 636.139 133.826 637.278 135.046C638.416 136.266 640.368 136.876 643.134 136.876H643.5V142H627.03L625.078 131.508H624.102C622.394 133.785 620.726 135.819 619.1 137.608C617.473 139.316 615.562 140.699 613.366 141.756C611.251 142.732 608.486 143.22 605.07 143.22ZM607.876 135.656C612.837 135.656 616.782 134.151 619.71 131.142C622.638 128.051 624.102 123.903 624.102 118.698V108.816L616.294 109.182C609.38 109.507 604.582 110.931 601.898 113.452C599.295 115.892 597.994 119.511 597.994 124.31C597.994 131.874 601.288 135.656 607.876 135.656ZM651 171.28V166.156H651.976C654.741 166.156 657.1 165.627 659.052 164.57C661.004 163.594 661.98 161.195 661.98 157.372V90.028C661.98 86.4493 660.963 84.172 658.93 83.196C656.978 82.22 654.66 81.732 651.976 81.732H650.39V76.608H671.74L672.96 87.588H673.448C675.318 83.8467 677.718 80.878 680.646 78.682C683.574 76.486 687.396 75.388 692.114 75.388C700.166 75.388 706.306 78.1127 710.536 83.562C714.846 88.93 717.002 97.47 717.002 109.182C717.002 120.975 714.846 129.597 710.536 135.046C706.306 140.495 700.166 143.22 692.114 143.22C687.396 143.22 683.533 142.244 680.524 140.292C677.596 138.259 675.237 135.656 673.448 132.484H672.96C673.122 134.843 673.244 137.364 673.326 140.048C673.407 142.651 673.448 144.725 673.448 146.27V157.982C673.448 161.561 674.424 163.797 676.376 164.692C678.409 165.668 680.768 166.156 683.452 166.156H683.818V171.28H651ZM690.162 135.412C695.53 135.412 699.352 133.175 701.63 128.702C703.988 124.147 705.168 117.6 705.168 109.06C705.168 100.357 703.988 93.8913 701.63 89.662C699.352 85.3513 695.489 83.196 690.04 83.196C683.696 83.196 679.344 85.3513 676.986 89.662C674.627 93.8913 673.448 100.398 673.448 109.182C673.448 117.641 674.627 124.147 676.986 128.702C679.344 133.175 683.736 135.412 690.162 135.412ZM725.939 142V136.876H726.915C729.68 136.876 732.039 136.388 733.991 135.412C735.943 134.355 736.919 131.915 736.919 128.092V62.7C736.919 59.1213 735.902 56.844 733.869 55.868C731.917 54.892 729.599 54.404 726.915 54.404H725.939V49.28H748.387V76.12C748.387 77.584 748.346 79.1293 748.265 80.756C748.184 82.3013 748.102 83.6433 748.021 84.782C747.94 85.9207 747.899 86.49 747.899 86.49H748.509C752.25 79.0887 758.228 75.388 766.443 75.388C773.438 75.388 778.765 77.2993 782.425 81.122C786.166 84.8633 788.037 90.9227 788.037 99.3V128.092C788.037 131.915 788.891 134.355 790.599 135.412C792.389 136.388 794.666 136.876 797.431 136.876H797.797V142H776.569V99.91C776.569 94.6233 775.553 90.516 773.519 87.588C771.567 84.66 768.11 83.196 763.149 83.196C758.106 83.196 754.365 84.9853 751.925 88.564C749.566 92.1427 748.387 96.9413 748.387 102.96V128.702C748.387 132.281 749.363 134.558 751.315 135.534C753.348 136.429 755.707 136.876 758.391 136.876H758.757V142H725.939ZM803.438 165.546C808.968 165.546 813.482 164.489 816.98 162.374C820.558 160.259 823.446 157.372 825.642 153.712C827.838 150.133 829.586 146.067 830.888 141.512L808.318 88.198C807.26 85.6767 806.122 83.9687 804.902 83.074C803.763 82.1793 802.014 81.732 799.656 81.732H799.29V76.608H828.57V81.732H828.204C823.324 81.732 820.884 83.684 820.884 87.588C820.884 88.9707 821.209 90.4753 821.86 92.102L830.766 113.818C831.579 115.689 832.352 117.763 833.084 120.04C833.897 122.236 834.629 124.351 835.28 126.384C835.93 128.417 836.378 130.125 836.622 131.508C837.191 129.149 837.923 126.709 838.818 124.188C839.794 121.667 840.688 119.186 841.502 116.746L849.676 92.956C850.408 91.004 850.774 89.2553 850.774 87.71C850.774 83.7247 848.09 81.732 842.722 81.732H842.356V76.608H867.732V81.732H867.366C865.007 81.732 863.218 82.342 861.998 83.562C860.778 84.782 859.476 87.344 858.094 91.248L839.55 142.488C837.435 148.425 835.402 153.265 833.45 157.006C831.498 160.747 829.302 163.635 826.862 165.668C824.503 167.783 821.534 169.247 817.956 170.06C814.377 170.873 809.904 171.28 804.536 171.28H803.438V165.546Z" fill="black"/>
<path d="M143 48H895" stroke="#E44D26" stroke-width="1.5" stroke-dasharray="2 1"/>
<path d="M143 75H895" stroke="#E44D26" stroke-width="1.5" stroke-dasharray="2 1"/>
<path d="M143 143H895" stroke="#E44D26" stroke-width="1.5" stroke-dasharray="2 1"/>
<path d="M143 173H895" stroke="#E44D26" stroke-width="1.5" stroke-dasharray="2 1"/>
<path d="M22.2012 54V53.286H22.5242C22.8528 53.286 23.0965 53.201 23.2552 53.031C23.4252 52.861 23.6122 52.504 23.8162 51.96L27.5902 41.862H28.9162L32.7582 52.385C32.8828 52.7363 33.0302 52.9743 33.2002 53.099C33.3815 53.2237 33.6365 53.286 33.9652 53.286H34.1862V54H29.5112V53.286H29.9022C30.5822 53.286 30.9222 53.014 30.9222 52.47C30.9222 52.3793 30.9108 52.283 30.8882 52.181C30.8655 52.079 30.8315 51.9657 30.7862 51.841L30.1062 49.937H25.6352L24.9892 51.722C24.8872 51.994 24.8362 52.2377 24.8362 52.453C24.8362 53.0083 25.2102 53.286 25.9582 53.286H26.3492V54H22.2012ZM25.9582 49.087H29.8002L28.7462 46.112C28.5648 45.6133 28.4005 45.143 28.2532 44.701C28.1058 44.259 27.9868 43.834 27.8962 43.426C27.8168 43.834 27.7148 44.225 27.5902 44.599C27.4655 44.973 27.3068 45.4263 27.1142 45.959L25.9582 49.087ZM37.7575 54.17C36.9075 54.17 36.2275 54.017 35.7175 53.711C35.2075 53.405 34.9525 52.9573 34.9525 52.368C34.9525 52.062 35.0148 51.824 35.1395 51.654C35.2642 51.484 35.4058 51.365 35.5645 51.297C35.7345 51.229 35.8875 51.195 36.0235 51.195C36.0235 51.7843 36.1538 52.2943 36.4145 52.725C36.6865 53.1443 37.1682 53.354 37.8595 53.354C38.4602 53.354 38.9192 53.2123 39.2365 52.929C39.5652 52.6343 39.7295 52.2603 39.7295 51.807C39.7295 51.5237 39.6672 51.2913 39.5425 51.11C39.4292 50.9287 39.2195 50.753 38.9135 50.583C38.6188 50.4017 38.1938 50.192 37.6385 49.954C37.0605 49.6933 36.5788 49.444 36.1935 49.206C35.8195 48.9567 35.5362 48.6733 35.3435 48.356C35.1622 48.0273 35.0715 47.6193 35.0715 47.132C35.0715 46.3613 35.3605 45.772 35.9385 45.364C36.5278 44.9447 37.3042 44.735 38.2675 44.735C39.0835 44.735 39.7012 44.888 40.1205 45.194C40.5398 45.5 40.7495 45.8683 40.7495 46.299C40.7495 46.605 40.6418 46.8543 40.4265 47.047C40.2225 47.2283 39.9222 47.319 39.5255 47.319C39.5255 46.7523 39.4065 46.3103 39.1685 45.993C38.9305 45.6757 38.5622 45.517 38.0635 45.517C37.4855 45.517 37.0718 45.6473 36.8225 45.908C36.5732 46.1573 36.4485 46.4803 36.4485 46.877C36.4485 47.3077 36.6072 47.642 36.9245 47.88C37.2532 48.1067 37.7972 48.373 38.5565 48.679C39.1572 48.9283 39.6445 49.1777 40.0185 49.427C40.3925 49.6763 40.6645 49.9653 40.8345 50.294C41.0158 50.6227 41.1065 51.025 41.1065 51.501C41.1065 52.385 40.8005 53.0537 40.1885 53.507C39.5765 53.949 38.7662 54.17 37.7575 54.17ZM46.6684 54.17C45.9204 54.17 45.2518 54.0113 44.6624 53.694C44.0844 53.3767 43.6254 52.878 43.2854 52.198C42.9568 51.5067 42.7924 50.6057 42.7924 49.495C42.7924 48.2823 42.9568 47.3303 43.2854 46.639C43.6254 45.9363 44.0788 45.4433 44.6454 45.16C45.2234 44.8653 45.8694 44.718 46.5834 44.718C47.0594 44.718 47.5241 44.7803 47.9774 44.905C48.4308 45.0297 48.8048 45.2223 49.0994 45.483C49.3941 45.7323 49.5414 46.0553 49.5414 46.452C49.5414 46.8373 49.4111 47.115 49.1504 47.285C48.9011 47.4437 48.5271 47.523 48.0284 47.523C48.0284 46.9903 47.9264 46.5313 47.7224 46.146C47.5298 45.7607 47.1501 45.568 46.5834 45.568C46.1528 45.568 45.7731 45.6813 45.4444 45.908C45.1271 46.1347 44.8778 46.5313 44.6964 47.098C44.5264 47.6647 44.4414 48.458 44.4414 49.478C44.4414 50.6793 44.6398 51.5803 45.0364 52.181C45.4444 52.7703 46.1018 53.065 47.0084 53.065C47.5411 53.065 48.0001 52.9573 48.3854 52.742C48.7821 52.5153 49.0768 52.2263 49.2694 51.875C49.4621 52.0337 49.5584 52.2547 49.5584 52.538C49.5584 52.7987 49.4508 53.0537 49.2354 53.303C49.0201 53.5523 48.6971 53.762 48.2664 53.932C47.8471 54.0907 47.3144 54.17 46.6684 54.17ZM55.1036 54.17C53.8683 54.17 52.8993 53.762 52.1966 52.946C51.5053 52.13 51.1596 50.9853 51.1596 49.512C51.1596 47.9253 51.4883 46.7297 52.1456 45.925C52.8029 45.1203 53.7323 44.718 54.9336 44.718C56.0329 44.718 56.8943 45.058 57.5176 45.738C58.1523 46.418 58.4696 47.4323 58.4696 48.781V49.563H52.8086C52.8313 50.7983 53.0523 51.6993 53.4716 52.266C53.9023 52.8213 54.5256 53.099 55.3416 53.099C55.9309 53.099 56.4296 52.98 56.8376 52.742C57.2569 52.4927 57.5686 52.215 57.7726 51.909C57.8519 51.943 57.9256 52.011 57.9936 52.113C58.0616 52.215 58.0956 52.3397 58.0956 52.487C58.0956 52.7137 57.9879 52.9573 57.7726 53.218C57.5573 53.4787 57.2286 53.7053 56.7866 53.898C56.3446 54.0793 55.7836 54.17 55.1036 54.17ZM56.7526 48.645C56.7526 47.7383 56.6109 47.013 56.3276 46.469C56.0556 45.9137 55.5796 45.636 54.8996 45.636C54.2763 45.636 53.7889 45.8967 53.4376 46.418C53.0976 46.928 52.8993 47.6703 52.8426 48.645H56.7526ZM59.7983 54V53.286H59.9343C60.3196 53.286 60.6483 53.218 60.9203 53.082C61.1923 52.9347 61.3283 52.5947 61.3283 52.062V46.758C61.3283 46.2593 61.1923 45.942 60.9203 45.806C60.6596 45.67 60.3423 45.602 59.9683 45.602H59.8833V44.888H62.6373L62.8583 46.265H62.9433C63.2946 45.6303 63.6856 45.2167 64.1163 45.024C64.5583 44.82 65.0513 44.718 65.5953 44.718C66.4906 44.718 67.1876 44.9843 67.6863 45.517C68.1963 46.0383 68.4513 46.8827 68.4513 48.05V52.062C68.4513 52.5947 68.5646 52.9347 68.7913 53.082C69.0293 53.218 69.3409 53.286 69.7263 53.286H69.8113V54H66.8533V48.135C66.8533 47.3983 66.7116 46.826 66.4283 46.418C66.1563 46.01 65.6746 45.806 64.9833 45.806C64.4733 45.806 64.0653 45.9363 63.7593 46.197C63.4646 46.4463 63.2493 46.7807 63.1133 47.2C62.9886 47.6193 62.9263 48.0727 62.9263 48.56V52.147C62.9263 52.6457 63.0566 52.963 63.3173 53.099C63.5893 53.2237 63.9123 53.286 64.2863 53.286H64.3713V54H59.7983ZM74.6823 54.17C73.5603 54.17 72.699 53.796 72.0983 53.048C71.509 52.2887 71.2143 51.093 71.2143 49.461C71.2143 47.8177 71.509 46.6163 72.0983 45.857C72.699 45.0977 73.5603 44.718 74.6823 44.718C75.3396 44.718 75.8723 44.8597 76.2803 45.143C76.6996 45.415 77.034 45.772 77.2833 46.214H77.3853C77.3513 45.9307 77.323 45.619 77.3003 45.279C77.289 44.9277 77.2833 44.616 77.2833 44.344V42.95C77.2833 42.4513 77.1416 42.134 76.8583 41.998C76.5863 41.862 76.2633 41.794 75.8893 41.794H75.7533V41.08H78.8813V52.13C78.8813 52.6287 79.0173 52.946 79.2893 53.082C79.5726 53.218 79.9013 53.286 80.2753 53.286H80.4113V54H77.5383L77.3513 52.47H77.2833C77.034 52.9913 76.7053 53.405 76.2973 53.711C75.8893 54.017 75.351 54.17 74.6823 54.17ZM74.9713 53.082C75.8553 53.082 76.4616 52.7873 76.7903 52.198C77.119 51.5973 77.2833 50.685 77.2833 49.461C77.2833 48.2823 77.119 47.3813 76.7903 46.758C76.4616 46.1233 75.8496 45.806 74.9543 45.806C74.2063 45.806 73.668 46.1233 73.3393 46.758C73.022 47.3813 72.8633 48.288 72.8633 49.478C72.8633 50.6793 73.022 51.5803 73.3393 52.181C73.668 52.7817 74.212 53.082 74.9713 53.082ZM85.6007 54.17C84.3653 54.17 83.3963 53.762 82.6937 52.946C82.0023 52.13 81.6567 50.9853 81.6567 49.512C81.6567 47.9253 81.9853 46.7297 82.6427 45.925C83.3 45.1203 84.2293 44.718 85.4307 44.718C86.53 44.718 87.3913 45.058 88.0147 45.738C88.6493 46.418 88.9667 47.4323 88.9667 48.781V49.563H83.3057C83.3283 50.7983 83.5493 51.6993 83.9687 52.266C84.3993 52.8213 85.0227 53.099 85.8387 53.099C86.428 53.099 86.9267 52.98 87.3347 52.742C87.754 52.4927 88.0657 52.215 88.2697 51.909C88.349 51.943 88.4227 52.011 88.4907 52.113C88.5587 52.215 88.5927 52.3397 88.5927 52.487C88.5927 52.7137 88.485 52.9573 88.2697 53.218C88.0543 53.4787 87.7257 53.7053 87.2837 53.898C86.8417 54.0793 86.2807 54.17 85.6007 54.17ZM87.2497 48.645C87.2497 47.7383 87.108 47.013 86.8247 46.469C86.5527 45.9137 86.0767 45.636 85.3967 45.636C84.7733 45.636 84.286 45.8967 83.9347 46.418C83.5947 46.928 83.3963 47.6703 83.3397 48.645H87.2497ZM90.3803 54V53.286H90.4313C90.8167 53.286 91.1453 53.218 91.4173 53.082C91.6893 52.9347 91.8253 52.5947 91.8253 52.062V46.758C91.8253 46.2593 91.6837 45.942 91.4003 45.806C91.1283 45.67 90.8053 45.602 90.4313 45.602H90.3803V44.888H92.9983L93.3213 46.571H93.4063C93.5537 46.231 93.7123 45.9193 93.8823 45.636C94.0523 45.3527 94.279 45.1317 94.5623 44.973C94.8457 44.803 95.2367 44.718 95.7353 44.718C96.3587 44.718 96.8177 44.8257 97.1123 45.041C97.4183 45.2563 97.5713 45.5623 97.5713 45.959C97.5713 46.3103 97.4467 46.5993 97.1973 46.826C96.9593 47.0527 96.557 47.166 95.9903 47.166C95.9903 46.7013 95.9223 46.367 95.7863 46.163C95.6503 45.9477 95.418 45.84 95.0893 45.84C94.772 45.84 94.5057 45.9647 94.2903 46.214C94.075 46.4633 93.905 46.7807 93.7803 47.166C93.6557 47.5513 93.565 47.9537 93.5083 48.373C93.4517 48.781 93.4233 49.1493 93.4233 49.478V52.147C93.4233 52.6457 93.5593 52.963 93.8313 53.099C94.1147 53.2237 94.4433 53.286 94.8173 53.286H95.2933V54H90.3803ZM102.458 54V53.286H102.679C103.065 53.286 103.393 53.218 103.665 53.082C103.937 52.9347 104.073 52.5947 104.073 52.062V42.95C104.073 42.4513 103.932 42.134 103.648 41.998C103.376 41.862 103.053 41.794 102.679 41.794H102.458V41.08H105.671V52.062C105.671 52.5947 105.807 52.9347 106.079 53.082C106.351 53.218 106.68 53.286 107.065 53.286H107.286V54H102.458ZM110.237 43.188C109.965 43.188 109.733 43.1087 109.54 42.95C109.359 42.7913 109.268 42.5193 109.268 42.134C109.268 41.7373 109.359 41.4653 109.54 41.318C109.733 41.1593 109.965 41.08 110.237 41.08C110.498 41.08 110.724 41.1593 110.917 41.318C111.11 41.4653 111.206 41.7373 111.206 42.134C111.206 42.5193 111.11 42.7913 110.917 42.95C110.724 43.1087 110.498 43.188 110.237 43.188ZM107.891 54V53.286H108.112C108.486 53.286 108.809 53.2237 109.081 53.099C109.364 52.963 109.506 52.6457 109.506 52.147V46.758C109.506 46.2593 109.364 45.942 109.081 45.806C108.809 45.67 108.486 45.602 108.112 45.602H108.061V44.888H111.104V52.062C111.104 52.5947 111.24 52.9347 111.512 53.082C111.784 53.218 112.113 53.286 112.498 53.286H112.719V54H107.891ZM113.421 54V53.286H113.557C113.943 53.286 114.271 53.218 114.543 53.082C114.815 52.9347 114.951 52.5947 114.951 52.062V46.758C114.951 46.2593 114.815 45.942 114.543 45.806C114.283 45.67 113.965 45.602 113.591 45.602H113.506V44.888H116.26L116.481 46.265H116.566C116.918 45.6303 117.309 45.2167 117.739 45.024C118.181 44.82 118.674 44.718 119.218 44.718C120.114 44.718 120.811 44.9843 121.309 45.517C121.819 46.0383 122.074 46.8827 122.074 48.05V52.062C122.074 52.5947 122.188 52.9347 122.414 53.082C122.652 53.218 122.964 53.286 123.349 53.286H123.434V54H120.476V48.135C120.476 47.3983 120.335 46.826 120.051 46.418C119.779 46.01 119.298 45.806 118.606 45.806C118.096 45.806 117.688 45.9363 117.382 46.197C117.088 46.4463 116.872 46.7807 116.736 47.2C116.612 47.6193 116.549 48.0727 116.549 48.56V52.147C116.549 52.6457 116.68 52.963 116.94 53.099C117.212 53.2237 117.535 53.286 117.909 53.286H117.994V54H113.421ZM128.781 54.17C127.546 54.17 126.577 53.762 125.874 52.946C125.183 52.13 124.837 50.9853 124.837 49.512C124.837 47.9253 125.166 46.7297 125.823 45.925C126.481 45.1203 127.41 44.718 128.611 44.718C129.711 44.718 130.572 45.058 131.195 45.738C131.83 46.418 132.147 47.4323 132.147 48.781V49.563H126.486C126.509 50.7983 126.73 51.6993 127.149 52.266C127.58 52.8213 128.203 53.099 129.019 53.099C129.609 53.099 130.107 52.98 130.515 52.742C130.935 52.4927 131.246 52.215 131.45 51.909C131.53 51.943 131.603 52.011 131.671 52.113C131.739 52.215 131.773 52.3397 131.773 52.487C131.773 52.7137 131.666 52.9573 131.45 53.218C131.235 53.4787 130.906 53.7053 130.464 53.898C130.022 54.0793 129.461 54.17 128.781 54.17ZM130.43 48.645C130.43 47.7383 130.289 47.013 130.005 46.469C129.733 45.9137 129.257 45.636 128.577 45.636C127.954 45.636 127.467 45.8967 127.115 46.418C126.775 46.928 126.577 47.6703 126.52 48.645H130.43Z" fill="black"/>
<path d="M261.068 67V66.099H261.272C261.578 66.099 261.833 66.0197 262.037 65.861C262.252 65.7023 262.451 65.368 262.632 64.858L266.321 54.862H268.65L272.203 64.875C272.373 65.351 272.56 65.674 272.764 65.844C272.979 66.014 273.223 66.099 273.495 66.099H273.801V67H268.191V66.099H268.854C269.024 66.099 269.188 66.048 269.347 65.946C269.506 65.844 269.585 65.674 269.585 65.436C269.585 65.3 269.568 65.1697 269.534 65.045C269.5 64.909 269.466 64.7957 269.432 64.705L268.837 63.005H264.706L264.213 64.467C264.168 64.603 264.122 64.7673 264.077 64.96C264.032 65.1413 264.009 65.3 264.009 65.436C264.009 65.6513 264.088 65.8157 264.247 65.929C264.406 66.0423 264.581 66.099 264.774 66.099H265.488V67H261.068ZM265.063 61.968H268.497L267.596 59.18C267.483 58.7947 267.352 58.364 267.205 57.888C267.069 57.412 266.956 56.9757 266.865 56.579C266.763 56.9417 266.638 57.3553 266.491 57.82C266.344 58.2733 266.202 58.6983 266.066 59.095L265.063 61.968ZM277.727 67.17C276.491 67.17 275.613 66.983 275.092 66.609C274.57 66.2237 274.31 65.7477 274.31 65.181C274.31 64.807 274.4 64.5293 274.582 64.348C274.763 64.1667 274.978 64.0477 275.228 63.991C275.477 63.923 275.698 63.889 275.891 63.889C275.891 64.5917 276.055 65.147 276.384 65.555C276.724 65.963 277.171 66.167 277.727 66.167C278.316 66.167 278.741 66.0537 279.002 65.827C279.274 65.6003 279.41 65.3283 279.41 65.011C279.41 64.637 279.262 64.331 278.968 64.093C278.673 63.855 278.123 63.5943 277.319 63.311C276.401 62.9937 275.698 62.6197 275.211 62.189C274.723 61.747 274.48 61.1463 274.48 60.387C274.48 59.4803 274.814 58.806 275.483 58.364C276.151 57.9107 277.035 57.684 278.135 57.684C278.849 57.684 279.421 57.7633 279.852 57.922C280.294 58.0693 280.611 58.2677 280.804 58.517C281.008 58.755 281.11 59.0043 281.11 59.265C281.11 59.6503 280.974 59.945 280.702 60.149C280.441 60.3417 279.999 60.438 279.376 60.438C279.376 59.8713 279.251 59.435 279.002 59.129C278.752 58.8117 278.378 58.653 277.88 58.653C277.517 58.653 277.194 58.7437 276.911 58.925C276.639 59.095 276.503 59.3557 276.503 59.707C276.503 59.945 276.565 60.1547 276.69 60.336C276.826 60.5173 277.064 60.693 277.404 60.863C277.744 61.033 278.22 61.2257 278.832 61.441C279.591 61.7017 280.209 62.0473 280.685 62.478C281.172 62.8973 281.416 63.464 281.416 64.178C281.416 65.1187 281.093 65.8553 280.447 66.388C279.812 66.9093 278.905 67.17 277.727 67.17ZM287.116 67.17C286.288 67.17 285.557 67.0227 284.923 66.728C284.288 66.422 283.789 65.929 283.427 65.249C283.075 64.5577 282.9 63.634 282.9 62.478C282.9 61.254 283.081 60.2963 283.444 59.605C283.818 58.9023 284.316 58.4037 284.94 58.109C285.574 57.8143 286.283 57.667 287.065 57.667C288.164 57.667 288.997 57.8427 289.564 58.194C290.142 58.534 290.431 58.9533 290.431 59.452C290.431 59.69 290.368 59.9223 290.244 60.149C290.13 60.3643 289.915 60.5457 289.598 60.693C289.28 60.829 288.827 60.897 288.238 60.897C288.238 60.5003 288.204 60.1377 288.136 59.809C288.068 59.4803 287.954 59.214 287.796 59.01C287.637 58.806 287.416 58.704 287.133 58.704C286.804 58.704 286.515 58.8173 286.266 59.044C286.028 59.2593 285.841 59.639 285.705 60.183C285.58 60.727 285.518 61.4863 285.518 62.461C285.518 63.6057 285.676 64.467 285.994 65.045C286.311 65.6117 286.827 65.895 287.541 65.895C288.13 65.895 288.64 65.7647 289.071 65.504C289.501 65.232 289.813 64.9033 290.006 64.518C290.142 64.5973 290.244 64.7107 290.312 64.858C290.38 64.994 290.414 65.1413 290.414 65.3C290.414 65.5833 290.295 65.8723 290.057 66.167C289.83 66.4503 289.473 66.6883 288.986 66.881C288.51 67.0737 287.886 67.17 287.116 67.17ZM296.267 67.17C294.828 67.17 293.734 66.762 292.986 65.946C292.238 65.1187 291.864 63.9683 291.864 62.495C291.864 60.897 292.233 59.6957 292.969 58.891C293.706 58.075 294.743 57.667 296.08 57.667C297.316 57.667 298.285 58.0127 298.987 58.704C299.701 59.3953 300.058 60.4153 300.058 61.764V62.631H294.482C294.516 63.7643 294.726 64.5917 295.111 65.113C295.508 65.6343 296.058 65.895 296.76 65.895C297.35 65.895 297.848 65.7647 298.256 65.504C298.664 65.232 298.965 64.9033 299.157 64.518C299.463 64.688 299.616 64.9657 299.616 65.351C299.616 65.8383 299.344 66.2633 298.8 66.626C298.256 66.9887 297.412 67.17 296.267 67.17ZM297.457 61.543C297.457 60.6703 297.355 59.9903 297.151 59.503C296.947 59.0157 296.602 58.772 296.114 58.772C295.638 58.772 295.259 59.01 294.975 59.486C294.692 59.9507 294.539 60.6363 294.516 61.543H297.457ZM301.117 67V66.099H301.151C301.537 66.099 301.854 66.031 302.103 65.895C302.353 65.759 302.477 65.436 302.477 64.926V59.894C302.477 59.418 302.364 59.1177 302.137 58.993C301.922 58.857 301.627 58.789 301.253 58.789H301.202V57.888H304.772L304.993 59.095H305.078C305.305 58.6643 305.549 58.3527 305.809 58.16C306.081 57.956 306.37 57.8257 306.676 57.769C306.994 57.701 307.328 57.667 307.679 57.667C308.552 57.667 309.238 57.9277 309.736 58.449C310.235 58.9703 310.484 59.8033 310.484 60.948V64.892C310.484 65.4133 310.575 65.7477 310.756 65.895C310.949 66.031 311.238 66.099 311.623 66.099H311.674V67H307.9V61.407C307.9 60.6703 307.798 60.1037 307.594 59.707C307.39 59.3103 307.039 59.112 306.54 59.112C306.166 59.112 305.872 59.2367 305.656 59.486C305.441 59.724 305.288 60.047 305.197 60.455C305.107 60.8517 305.061 61.2823 305.061 61.747V64.994C305.061 65.47 305.169 65.776 305.384 65.912C305.611 66.0367 305.911 66.099 306.285 66.099H306.336V67H301.117ZM316.366 67.17C315.256 67.17 314.4 66.796 313.799 66.048C313.199 65.2887 312.898 64.093 312.898 62.461C312.898 60.8177 313.193 59.6107 313.782 58.84C314.383 58.0693 315.233 57.684 316.332 57.684C316.967 57.684 317.488 57.8143 317.896 58.075C318.304 58.3243 318.627 58.6473 318.865 59.044H318.984C318.939 58.7267 318.905 58.3697 318.882 57.973C318.86 57.5763 318.848 57.242 318.848 56.97V56.035C318.848 55.5703 318.712 55.2813 318.44 55.168C318.168 55.0433 317.845 54.981 317.471 54.981H317.335V54.08H321.432V64.909C321.432 65.249 321.495 65.504 321.619 65.674C321.755 65.844 321.931 65.9573 322.146 66.014C322.362 66.0707 322.594 66.099 322.843 66.099H322.911V67H319.613L319.137 65.674H318.984C318.735 66.1273 318.401 66.49 317.981 66.762C317.573 67.034 317.035 67.17 316.366 67.17ZM317.097 65.895C317.766 65.895 318.225 65.6117 318.474 65.045C318.724 64.467 318.848 63.5943 318.848 62.427C318.848 61.305 318.724 60.4437 318.474 59.843C318.225 59.2423 317.766 58.942 317.097 58.942C316.531 58.942 316.123 59.2423 315.873 59.843C315.635 60.4437 315.516 61.3107 315.516 62.444C315.516 63.6 315.635 64.467 315.873 65.045C316.123 65.6117 316.531 65.895 317.097 65.895ZM328.358 67.17C326.919 67.17 325.825 66.762 325.077 65.946C324.329 65.1187 323.955 63.9683 323.955 62.495C323.955 60.897 324.324 59.6957 325.06 58.891C325.797 58.075 326.834 57.667 328.171 57.667C329.407 57.667 330.376 58.0127 331.078 58.704C331.792 59.3953 332.149 60.4153 332.149 61.764V62.631H326.573C326.607 63.7643 326.817 64.5917 327.202 65.113C327.599 65.6343 328.149 65.895 328.851 65.895C329.441 65.895 329.939 65.7647 330.347 65.504C330.755 65.232 331.056 64.9033 331.248 64.518C331.554 64.688 331.707 64.9657 331.707 65.351C331.707 65.8383 331.435 66.2633 330.891 66.626C330.347 66.9887 329.503 67.17 328.358 67.17ZM329.548 61.543C329.548 60.6703 329.446 59.9903 329.242 59.503C329.038 59.0157 328.693 58.772 328.205 58.772C327.729 58.772 327.35 59.01 327.066 59.486C326.783 59.9507 326.63 60.6363 326.607 61.543H329.548ZM333.208 67V66.099H333.259C333.644 66.099 333.956 66.031 334.194 65.895C334.443 65.7477 334.568 65.4077 334.568 64.875V59.945C334.568 59.4463 334.455 59.129 334.228 58.993C334.013 58.857 333.718 58.789 333.344 58.789H333.293V57.888H336.727L337.067 59.214H337.152C337.379 58.704 337.662 58.3243 338.002 58.075C338.342 57.8143 338.858 57.684 339.549 57.684C340.852 57.684 341.504 58.143 341.504 59.061C341.504 59.5823 341.311 59.9903 340.926 60.285C340.552 60.5683 340.025 60.71 339.345 60.71C339.345 60.2453 339.288 59.894 339.175 59.656C339.062 59.418 338.841 59.299 338.512 59.299C338.217 59.299 337.979 59.401 337.798 59.605C337.617 59.809 337.481 60.064 337.39 60.37C337.299 60.6647 337.237 60.965 337.203 61.271C337.169 61.577 337.152 61.8263 337.152 62.019V64.96C337.152 65.4587 337.265 65.776 337.492 65.912C337.719 66.0367 338.002 66.099 338.342 66.099H338.886V67H333.208Z" fill="#E44D26"/>
<path d="M148.476 164V163.099H149.19C149.439 163.099 149.643 163.037 149.802 162.912C149.972 162.787 150.057 162.481 150.057 161.994V153.8C150.057 153.347 149.972 153.063 149.802 152.95C149.632 152.825 149.428 152.763 149.19 152.763H148.476V151.862H154.086C155.967 151.862 157.441 152.355 158.506 153.341C159.571 154.327 160.104 155.783 160.104 157.71C160.104 158.945 159.877 160.039 159.424 160.991C158.971 161.932 158.296 162.668 157.401 163.201C156.517 163.734 155.412 164 154.086 164H148.476ZM153.695 162.946C154.862 162.946 155.741 162.481 156.33 161.552C156.931 160.611 157.231 159.331 157.231 157.71C157.231 156.089 156.931 154.882 156.33 154.089C155.741 153.296 154.868 152.899 153.712 152.899H152.743V162.946H153.695ZM166.234 164.17C164.795 164.17 163.701 163.762 162.953 162.946C162.205 162.119 161.831 160.968 161.831 159.495C161.831 157.897 162.2 156.696 162.936 155.891C163.673 155.075 164.71 154.667 166.047 154.667C167.283 154.667 168.252 155.013 168.954 155.704C169.668 156.395 170.025 157.415 170.025 158.764V159.631H164.449C164.483 160.764 164.693 161.592 165.078 162.113C165.475 162.634 166.025 162.895 166.727 162.895C167.317 162.895 167.815 162.765 168.223 162.504C168.631 162.232 168.932 161.903 169.124 161.518C169.43 161.688 169.583 161.966 169.583 162.351C169.583 162.838 169.311 163.263 168.767 163.626C168.223 163.989 167.379 164.17 166.234 164.17ZM167.424 158.543C167.424 157.67 167.322 156.99 167.118 156.503C166.914 156.016 166.569 155.772 166.081 155.772C165.605 155.772 165.226 156.01 164.942 156.486C164.659 156.951 164.506 157.636 164.483 158.543H167.424ZM174.671 164.17C173.436 164.17 172.557 163.983 172.036 163.609C171.515 163.224 171.254 162.748 171.254 162.181C171.254 161.807 171.345 161.529 171.526 161.348C171.707 161.167 171.923 161.048 172.172 160.991C172.421 160.923 172.642 160.889 172.835 160.889C172.835 161.592 172.999 162.147 173.328 162.555C173.668 162.963 174.116 163.167 174.671 163.167C175.26 163.167 175.685 163.054 175.946 162.827C176.218 162.6 176.354 162.328 176.354 162.011C176.354 161.637 176.207 161.331 175.912 161.093C175.617 160.855 175.068 160.594 174.263 160.311C173.345 159.994 172.642 159.62 172.155 159.189C171.668 158.747 171.424 158.146 171.424 157.387C171.424 156.48 171.758 155.806 172.427 155.364C173.096 154.911 173.98 154.684 175.079 154.684C175.793 154.684 176.365 154.763 176.796 154.922C177.238 155.069 177.555 155.268 177.748 155.517C177.952 155.755 178.054 156.004 178.054 156.265C178.054 156.65 177.918 156.945 177.646 157.149C177.385 157.342 176.943 157.438 176.32 157.438C176.32 156.871 176.195 156.435 175.946 156.129C175.697 155.812 175.323 155.653 174.824 155.653C174.461 155.653 174.138 155.744 173.855 155.925C173.583 156.095 173.447 156.356 173.447 156.707C173.447 156.945 173.509 157.155 173.634 157.336C173.77 157.517 174.008 157.693 174.348 157.863C174.688 158.033 175.164 158.226 175.776 158.441C176.535 158.702 177.153 159.047 177.629 159.478C178.116 159.897 178.36 160.464 178.36 161.178C178.36 162.119 178.037 162.855 177.391 163.388C176.756 163.909 175.85 164.17 174.671 164.17ZM184.06 164.17C183.233 164.17 182.502 164.023 181.867 163.728C181.232 163.422 180.734 162.929 180.371 162.249C180.02 161.558 179.844 160.634 179.844 159.478C179.844 158.254 180.025 157.296 180.388 156.605C180.762 155.902 181.261 155.404 181.884 155.109C182.519 154.814 183.227 154.667 184.009 154.667C185.108 154.667 185.941 154.843 186.508 155.194C187.086 155.534 187.375 155.953 187.375 156.452C187.375 156.69 187.313 156.922 187.188 157.149C187.075 157.364 186.859 157.546 186.542 157.693C186.225 157.829 185.771 157.897 185.182 157.897C185.182 157.5 185.148 157.138 185.08 156.809C185.012 156.48 184.899 156.214 184.74 156.01C184.581 155.806 184.36 155.704 184.077 155.704C183.748 155.704 183.459 155.817 183.21 156.044C182.972 156.259 182.785 156.639 182.649 157.183C182.524 157.727 182.462 158.486 182.462 159.461C182.462 160.606 182.621 161.467 182.938 162.045C183.255 162.612 183.771 162.895 184.485 162.895C185.074 162.895 185.584 162.765 186.015 162.504C186.446 162.232 186.757 161.903 186.95 161.518C187.086 161.597 187.188 161.711 187.256 161.858C187.324 161.994 187.358 162.141 187.358 162.3C187.358 162.583 187.239 162.872 187.001 163.167C186.774 163.45 186.417 163.688 185.93 163.881C185.454 164.074 184.831 164.17 184.06 164.17ZM193.212 164.17C191.772 164.17 190.679 163.762 189.931 162.946C189.183 162.119 188.809 160.968 188.809 159.495C188.809 157.897 189.177 156.696 189.914 155.891C190.65 155.075 191.687 154.667 193.025 154.667C194.26 154.667 195.229 155.013 195.932 155.704C196.646 156.395 197.003 157.415 197.003 158.764V159.631H191.427C191.461 160.764 191.67 161.592 192.056 162.113C192.452 162.634 193.002 162.895 193.705 162.895C194.294 162.895 194.793 162.765 195.201 162.504C195.609 162.232 195.909 161.903 196.102 161.518C196.408 161.688 196.561 161.966 196.561 162.351C196.561 162.838 196.289 163.263 195.745 163.626C195.201 163.989 194.356 164.17 193.212 164.17ZM194.402 158.543C194.402 157.67 194.3 156.99 194.096 156.503C193.892 156.016 193.546 155.772 193.059 155.772C192.583 155.772 192.203 156.01 191.92 156.486C191.636 156.951 191.483 157.636 191.461 158.543H194.402ZM198.062 164V163.099H198.096C198.481 163.099 198.798 163.031 199.048 162.895C199.297 162.759 199.422 162.436 199.422 161.926V156.894C199.422 156.418 199.308 156.118 199.082 155.993C198.866 155.857 198.572 155.789 198.198 155.789H198.147V154.888H201.717L201.938 156.095H202.023C202.249 155.664 202.493 155.353 202.754 155.16C203.026 154.956 203.315 154.826 203.621 154.769C203.938 154.701 204.272 154.667 204.624 154.667C205.496 154.667 206.182 154.928 206.681 155.449C207.179 155.97 207.429 156.803 207.429 157.948V161.892C207.429 162.413 207.519 162.748 207.701 162.895C207.893 163.031 208.182 163.099 208.568 163.099H208.619V164H204.845V158.407C204.845 157.67 204.743 157.104 204.539 156.707C204.335 156.31 203.983 156.112 203.485 156.112C203.111 156.112 202.816 156.237 202.601 156.486C202.385 156.724 202.232 157.047 202.142 157.455C202.051 157.852 202.006 158.282 202.006 158.747V161.994C202.006 162.47 202.113 162.776 202.329 162.912C202.555 163.037 202.856 163.099 203.23 163.099H203.281V164H198.062ZM213.311 164.17C212.2 164.17 211.344 163.796 210.744 163.048C210.143 162.289 209.843 161.093 209.843 159.461C209.843 157.818 210.137 156.611 210.727 155.84C211.327 155.069 212.177 154.684 213.277 154.684C213.911 154.684 214.433 154.814 214.841 155.075C215.249 155.324 215.572 155.647 215.81 156.044H215.929C215.883 155.727 215.849 155.37 215.827 154.973C215.804 154.576 215.793 154.242 215.793 153.97V153.035C215.793 152.57 215.657 152.281 215.385 152.168C215.113 152.043 214.79 151.981 214.416 151.981H214.28V151.08H218.377V161.909C218.377 162.249 218.439 162.504 218.564 162.674C218.7 162.844 218.875 162.957 219.091 163.014C219.306 163.071 219.538 163.099 219.788 163.099H219.856V164H216.558L216.082 162.674H215.929C215.679 163.127 215.345 163.49 214.926 163.762C214.518 164.034 213.979 164.17 213.311 164.17ZM214.042 162.895C214.71 162.895 215.169 162.612 215.419 162.045C215.668 161.467 215.793 160.594 215.793 159.427C215.793 158.305 215.668 157.444 215.419 156.843C215.169 156.242 214.71 155.942 214.042 155.942C213.475 155.942 213.067 156.242 212.818 156.843C212.58 157.444 212.461 158.311 212.461 159.444C212.461 160.6 212.58 161.467 212.818 162.045C213.067 162.612 213.475 162.895 214.042 162.895ZM225.303 164.17C223.863 164.17 222.77 163.762 222.022 162.946C221.274 162.119 220.9 160.968 220.9 159.495C220.9 157.897 221.268 156.696 222.005 155.891C222.741 155.075 223.778 154.667 225.116 154.667C226.351 154.667 227.32 155.013 228.023 155.704C228.737 156.395 229.094 157.415 229.094 158.764V159.631H223.518C223.552 160.764 223.761 161.592 224.147 162.113C224.543 162.634 225.093 162.895 225.796 162.895C226.385 162.895 226.884 162.765 227.292 162.504C227.7 162.232 228 161.903 228.193 161.518C228.499 161.688 228.652 161.966 228.652 162.351C228.652 162.838 228.38 163.263 227.836 163.626C227.292 163.989 226.447 164.17 225.303 164.17ZM226.493 158.543C226.493 157.67 226.391 156.99 226.187 156.503C225.983 156.016 225.637 155.772 225.15 155.772C224.674 155.772 224.294 156.01 224.011 156.486C223.727 156.951 223.574 157.636 223.552 158.543H226.493ZM230.153 164V163.099H230.204C230.589 163.099 230.901 163.031 231.139 162.895C231.388 162.748 231.513 162.408 231.513 161.875V156.945C231.513 156.446 231.399 156.129 231.173 155.993C230.957 155.857 230.663 155.789 230.289 155.789H230.238V154.888H233.672L234.012 156.214H234.097C234.323 155.704 234.607 155.324 234.947 155.075C235.287 154.814 235.802 154.684 236.494 154.684C237.797 154.684 238.449 155.143 238.449 156.061C238.449 156.582 238.256 156.99 237.871 157.285C237.497 157.568 236.97 157.71 236.29 157.71C236.29 157.245 236.233 156.894 236.12 156.656C236.006 156.418 235.785 156.299 235.457 156.299C235.162 156.299 234.924 156.401 234.743 156.605C234.561 156.809 234.425 157.064 234.335 157.37C234.244 157.665 234.182 157.965 234.148 158.271C234.114 158.577 234.097 158.826 234.097 159.019V161.96C234.097 162.459 234.21 162.776 234.437 162.912C234.663 163.037 234.947 163.099 235.287 163.099H235.831V164H230.153Z" fill="#E44D26"/>
<path d="M901.646 81V80.286H901.867C902.241 80.286 902.564 80.2237 902.836 80.099C903.119 79.963 903.261 79.6457 903.261 79.147V70.732C903.261 70.2333 903.119 69.916 902.836 69.78C902.564 69.644 902.241 69.576 901.867 69.576H901.646V68.862H905.522L909.041 78.586L912.526 68.862H916.3V69.576H916.079C915.694 69.576 915.365 69.6497 915.093 69.797C914.821 69.933 914.685 70.2673 914.685 70.8V79.062C914.685 79.5947 914.821 79.9347 915.093 80.082C915.365 80.218 915.694 80.286 916.079 80.286H916.3V81H911.778V80.286H911.829C912.192 80.286 912.481 80.2237 912.696 80.099C912.911 79.9743 913.03 79.6797 913.053 79.215V70.137L909.16 81H908.242L904.298 70.171V79.062C904.298 79.5947 904.406 79.9347 904.621 80.082C904.836 80.218 905.137 80.286 905.522 80.286H905.573V81H901.646ZM921.833 81.17C920.598 81.17 919.629 80.762 918.926 79.946C918.235 79.13 917.889 77.9853 917.889 76.512C917.889 74.9253 918.218 73.7297 918.875 72.925C919.532 72.1203 920.462 71.718 921.663 71.718C922.762 71.718 923.624 72.058 924.247 72.738C924.882 73.418 925.199 74.4323 925.199 75.781V76.563H919.538C919.561 77.7983 919.782 78.6993 920.201 79.266C920.632 79.8213 921.255 80.099 922.071 80.099C922.66 80.099 923.159 79.98 923.567 79.742C923.986 79.4927 924.298 79.215 924.502 78.909C924.581 78.943 924.655 79.011 924.723 79.113C924.791 79.215 924.825 79.3397 924.825 79.487C924.825 79.7137 924.717 79.9573 924.502 80.218C924.287 80.4787 923.958 80.7053 923.516 80.898C923.074 81.0793 922.513 81.17 921.833 81.17ZM923.482 75.645C923.482 74.7383 923.34 74.013 923.057 73.469C922.785 72.9137 922.309 72.636 921.629 72.636C921.006 72.636 920.518 72.8967 920.167 73.418C919.827 73.928 919.629 74.6703 919.572 75.645H923.482ZM929.537 81.17C928.777 81.17 928.148 80.949 927.65 80.507C927.151 80.065 926.902 79.3793 926.902 78.45C926.902 77.5433 927.219 76.8747 927.854 76.444C928.5 76.0133 929.474 75.7753 930.778 75.73L932.189 75.679V74.659C932.189 74.251 932.155 73.894 932.087 73.588C932.019 73.2707 931.871 73.0213 931.645 72.84C931.418 72.6587 931.072 72.568 930.608 72.568C930.177 72.568 929.848 72.6473 929.622 72.806C929.395 72.9647 929.242 73.1857 929.163 73.469C929.095 73.741 929.061 74.0583 929.061 74.421C928.585 74.421 928.222 74.3417 927.973 74.183C927.735 74.013 927.616 73.7353 927.616 73.35C927.616 72.9533 927.752 72.636 928.024 72.398C928.307 72.16 928.681 71.99 929.146 71.888C929.61 71.7747 930.12 71.718 930.676 71.718C931.718 71.718 932.495 71.939 933.005 72.381C933.526 72.823 933.787 73.5823 933.787 74.659V79.062C933.787 79.538 933.866 79.861 934.025 80.031C934.183 80.201 934.455 80.286 934.841 80.286H934.892V81H932.597L932.325 79.538H932.189C931.951 79.8553 931.718 80.1387 931.492 80.388C931.265 80.626 930.999 80.8187 930.693 80.966C930.398 81.102 930.013 81.17 929.537 81.17ZM929.928 80.116C930.619 80.116 931.169 79.9063 931.577 79.487C931.985 79.0563 932.189 78.4783 932.189 77.753V76.376L931.101 76.427C930.137 76.4723 929.469 76.6707 929.095 77.022C928.732 77.362 928.551 77.8663 928.551 78.535C928.551 79.589 929.01 80.116 929.928 80.116ZM936.107 81V80.286H936.243C936.628 80.286 936.957 80.218 937.229 80.082C937.501 79.9347 937.637 79.5947 937.637 79.062V73.758C937.637 73.2593 937.501 72.942 937.229 72.806C936.968 72.67 936.651 72.602 936.277 72.602H936.192V71.888H938.946L939.167 73.265H939.252C939.603 72.6303 939.994 72.2167 940.425 72.024C940.867 71.82 941.36 71.718 941.904 71.718C942.799 71.718 943.496 71.9843 943.995 72.517C944.505 73.0383 944.76 73.8827 944.76 75.05V79.062C944.76 79.5947 944.873 79.9347 945.1 80.082C945.338 80.218 945.65 80.286 946.035 80.286H946.12V81H943.162V75.135C943.162 74.3983 943.02 73.826 942.737 73.418C942.465 73.01 941.983 72.806 941.292 72.806C940.782 72.806 940.374 72.9363 940.068 73.197C939.773 73.4463 939.558 73.7807 939.422 74.2C939.297 74.6193 939.235 75.0727 939.235 75.56V79.147C939.235 79.6457 939.365 79.963 939.626 80.099C939.898 80.2237 940.221 80.286 940.595 80.286H940.68V81H936.107ZM951.225 81V80.286H951.446C951.831 80.286 952.16 80.218 952.432 80.082C952.704 79.9347 952.84 79.5947 952.84 79.062V69.95C952.84 69.4513 952.698 69.134 952.415 68.998C952.143 68.862 951.82 68.794 951.446 68.794H951.225V68.08H954.438V79.062C954.438 79.5947 954.574 79.9347 954.846 80.082C955.118 80.218 955.447 80.286 955.832 80.286H956.053V81H951.225ZM959.004 70.188C958.732 70.188 958.499 70.1087 958.307 69.95C958.125 69.7913 958.035 69.5193 958.035 69.134C958.035 68.7373 958.125 68.4653 958.307 68.318C958.499 68.1593 958.732 68.08 959.004 68.08C959.264 68.08 959.491 68.1593 959.684 68.318C959.876 68.4653 959.973 68.7373 959.973 69.134C959.973 69.5193 959.876 69.7913 959.684 69.95C959.491 70.1087 959.264 70.188 959.004 70.188ZM956.658 81V80.286H956.879C957.253 80.286 957.576 80.2237 957.848 80.099C958.131 79.963 958.273 79.6457 958.273 79.147V73.758C958.273 73.2593 958.131 72.942 957.848 72.806C957.576 72.67 957.253 72.602 956.879 72.602H956.828V71.888H959.871V79.062C959.871 79.5947 960.007 79.9347 960.279 80.082C960.551 80.218 960.879 80.286 961.265 80.286H961.486V81H956.658ZM962.188 81V80.286H962.324C962.709 80.286 963.038 80.218 963.31 80.082C963.582 79.9347 963.718 79.5947 963.718 79.062V73.758C963.718 73.2593 963.582 72.942 963.31 72.806C963.049 72.67 962.732 72.602 962.358 72.602H962.273V71.888H965.027L965.248 73.265H965.333C965.684 72.6303 966.075 72.2167 966.506 72.024C966.948 71.82 967.441 71.718 967.985 71.718C968.88 71.718 969.577 71.9843 970.076 72.517C970.586 73.0383 970.841 73.8827 970.841 75.05V79.062C970.841 79.5947 970.954 79.9347 971.181 80.082C971.419 80.218 971.731 80.286 972.116 80.286H972.201V81H969.243V75.135C969.243 74.3983 969.101 73.826 968.818 73.418C968.546 73.01 968.064 72.806 967.373 72.806C966.863 72.806 966.455 72.9363 966.149 73.197C965.854 73.4463 965.639 73.7807 965.503 74.2C965.378 74.6193 965.316 75.0727 965.316 75.56V79.147C965.316 79.6457 965.446 79.963 965.707 80.099C965.979 80.2237 966.302 80.286 966.676 80.286H966.761V81H962.188ZM977.548 81.17C976.313 81.17 975.344 80.762 974.641 79.946C973.95 79.13 973.604 77.9853 973.604 76.512C973.604 74.9253 973.933 73.7297 974.59 72.925C975.247 72.1203 976.177 71.718 977.378 71.718C978.477 71.718 979.339 72.058 979.962 72.738C980.597 73.418 980.914 74.4323 980.914 75.781V76.563H975.253C975.276 77.7983 975.497 78.6993 975.916 79.266C976.347 79.8213 976.97 80.099 977.786 80.099C978.375 80.099 978.874 79.98 979.282 79.742C979.701 79.4927 980.013 79.215 980.217 78.909C980.296 78.943 980.37 79.011 980.438 79.113C980.506 79.215 980.54 79.3397 980.54 79.487C980.54 79.7137 980.432 79.9573 980.217 80.218C980.002 80.4787 979.673 80.7053 979.231 80.898C978.789 81.0793 978.228 81.17 977.548 81.17ZM979.197 75.645C979.197 74.7383 979.055 74.013 978.772 73.469C978.5 72.9137 978.024 72.636 977.344 72.636C976.721 72.636 976.233 72.8967 975.882 73.418C975.542 73.928 975.344 74.6703 975.287 75.645H979.197Z" fill="black"/>
<path d="M884.085 116V115.286H884.238C884.646 115.286 884.975 115.212 885.224 115.065C885.473 114.906 885.762 114.617 886.091 114.198L888.233 111.427L886.091 108.503C885.842 108.208 885.598 107.987 885.36 107.84C885.133 107.681 884.89 107.602 884.629 107.602H884.408V106.888H888.726V107.602H888.675C888.29 107.602 888.029 107.653 887.893 107.755C887.768 107.846 887.706 107.959 887.706 108.095C887.706 108.208 887.74 108.322 887.808 108.435C887.876 108.548 887.972 108.696 888.097 108.877L889.219 110.407L890.103 109.132C890.228 108.939 890.33 108.758 890.409 108.588C890.488 108.407 890.528 108.242 890.528 108.095C890.528 107.891 890.437 107.761 890.256 107.704C890.086 107.636 889.871 107.602 889.61 107.602H889.559V106.888H893.282V107.602H893.129C892.8 107.602 892.517 107.67 892.279 107.806C892.041 107.931 891.752 108.225 891.412 108.69L889.661 111.019L892.16 114.385C892.409 114.714 892.642 114.946 892.857 115.082C893.084 115.218 893.305 115.286 893.52 115.286H893.741V116H889.355V115.286H889.44C890.12 115.286 890.46 115.099 890.46 114.725C890.46 114.6 890.415 114.464 890.324 114.317C890.245 114.158 890.075 113.903 889.814 113.552L888.675 112.022L887.485 113.688C887.383 113.824 887.281 113.994 887.179 114.198C887.077 114.391 887.026 114.578 887.026 114.759C887.026 114.94 887.105 115.076 887.264 115.167C887.434 115.246 887.706 115.286 888.08 115.286H888.131V116H884.085ZM894.253 112.005V110.73H898.673V112.005H894.253ZM899.397 116V115.286H899.533C899.918 115.286 900.247 115.218 900.519 115.082C900.791 114.935 900.927 114.595 900.927 114.062V104.95C900.927 104.451 900.785 104.134 900.502 103.998C900.23 103.862 899.907 103.794 899.533 103.794H899.397V103.08H902.525V106.82C902.525 107.024 902.519 107.239 902.508 107.466C902.496 107.681 902.485 107.868 902.474 108.027C902.462 108.186 902.457 108.265 902.457 108.265H902.542C903.063 107.234 903.896 106.718 905.041 106.718C906.015 106.718 906.758 106.984 907.268 107.517C907.789 108.038 908.05 108.883 908.05 110.05V114.062C908.05 114.595 908.169 114.935 908.407 115.082C908.656 115.218 908.973 115.286 909.359 115.286H909.41V116H906.452V110.135C906.452 109.398 906.31 108.826 906.027 108.418C905.755 108.01 905.273 107.806 904.582 107.806C903.879 107.806 903.358 108.055 903.018 108.554C902.689 109.053 902.525 109.721 902.525 110.56V114.147C902.525 114.646 902.661 114.963 902.933 115.099C903.216 115.224 903.545 115.286 903.919 115.286H903.97V116H899.397ZM914.761 116.17C913.526 116.17 912.557 115.762 911.854 114.946C911.163 114.13 910.817 112.985 910.817 111.512C910.817 109.925 911.146 108.73 911.803 107.925C912.46 107.12 913.39 106.718 914.591 106.718C915.69 106.718 916.552 107.058 917.175 107.738C917.81 108.418 918.127 109.432 918.127 110.781V111.563H912.466C912.489 112.798 912.71 113.699 913.129 114.266C913.56 114.821 914.183 115.099 914.999 115.099C915.588 115.099 916.087 114.98 916.495 114.742C916.914 114.493 917.226 114.215 917.43 113.909C917.509 113.943 917.583 114.011 917.651 114.113C917.719 114.215 917.753 114.34 917.753 114.487C917.753 114.714 917.645 114.957 917.43 115.218C917.215 115.479 916.886 115.705 916.444 115.898C916.002 116.079 915.441 116.17 914.761 116.17ZM916.41 110.645C916.41 109.738 916.268 109.013 915.985 108.469C915.713 107.914 915.237 107.636 914.557 107.636C913.934 107.636 913.446 107.897 913.095 108.418C912.755 108.928 912.557 109.67 912.5 110.645H916.41ZM921.716 105.188C921.444 105.188 921.212 105.109 921.019 104.95C920.838 104.791 920.747 104.519 920.747 104.134C920.747 103.737 920.838 103.465 921.019 103.318C921.212 103.159 921.444 103.08 921.716 103.08C921.977 103.08 922.204 103.159 922.396 103.318C922.589 103.465 922.685 103.737 922.685 104.134C922.685 104.519 922.589 104.791 922.396 104.95C922.204 105.109 921.977 105.188 921.716 105.188ZM919.37 116V115.286H919.591C919.965 115.286 920.288 115.224 920.56 115.099C920.844 114.963 920.985 114.646 920.985 114.147V108.758C920.985 108.259 920.844 107.942 920.56 107.806C920.288 107.67 919.965 107.602 919.591 107.602H919.54V106.888H922.583V114.062C922.583 114.595 922.719 114.935 922.991 115.082C923.263 115.218 923.592 115.286 923.977 115.286H924.198V116H919.37ZM928.352 120.08C927.173 120.08 926.289 119.859 925.7 119.417C925.11 118.986 924.816 118.38 924.816 117.598C924.816 116.929 925.031 116.425 925.462 116.085C925.892 115.745 926.385 115.524 926.941 115.422C926.714 115.32 926.499 115.156 926.295 114.929C926.102 114.691 926.006 114.391 926.006 114.028C926.006 113.688 926.091 113.393 926.261 113.144C926.442 112.895 926.725 112.657 927.111 112.43C926.623 112.226 926.244 111.892 925.972 111.427C925.711 110.951 925.581 110.43 925.581 109.863C925.581 108.888 925.847 108.123 926.38 107.568C926.912 107.001 927.711 106.718 928.777 106.718C929.185 106.718 929.57 106.775 929.933 106.888C930.295 107.001 930.556 107.132 930.715 107.279C930.873 107.098 931.094 106.899 931.378 106.684C931.661 106.469 931.99 106.361 932.364 106.361C932.704 106.361 932.953 106.452 933.112 106.633C933.282 106.803 933.367 107.007 933.367 107.245C933.367 107.483 933.293 107.693 933.146 107.874C933.01 108.044 932.783 108.129 932.466 108.129C932.466 108.004 932.426 107.88 932.347 107.755C932.279 107.619 932.131 107.551 931.905 107.551C931.644 107.551 931.4 107.619 931.174 107.755C931.366 107.993 931.525 108.276 931.65 108.605C931.774 108.922 931.837 109.325 931.837 109.812C931.837 110.651 931.582 111.348 931.072 111.903C930.573 112.458 929.808 112.736 928.777 112.736C928.641 112.736 928.482 112.73 928.301 112.719C928.131 112.696 927.989 112.674 927.876 112.651C927.66 112.764 927.473 112.906 927.315 113.076C927.156 113.246 927.077 113.461 927.077 113.722C927.077 113.926 927.139 114.085 927.264 114.198C927.4 114.311 927.689 114.368 928.131 114.368H930.052C931.06 114.368 931.78 114.606 932.211 115.082C932.641 115.558 932.857 116.164 932.857 116.901C932.857 117.876 932.488 118.646 931.752 119.213C931.026 119.791 929.893 120.08 928.352 120.08ZM928.726 111.92C929.281 111.92 929.672 111.75 929.899 111.41C930.125 111.07 930.239 110.532 930.239 109.795C930.239 109.024 930.12 108.458 929.882 108.095C929.655 107.732 929.264 107.551 928.709 107.551C928.165 107.551 927.774 107.738 927.536 108.112C927.298 108.486 927.179 109.053 927.179 109.812C927.179 110.537 927.298 111.07 927.536 111.41C927.785 111.75 928.182 111.92 928.726 111.92ZM928.386 119.247C929.202 119.247 929.831 119.156 930.273 118.975C930.715 118.805 931.021 118.561 931.191 118.244C931.372 117.938 931.463 117.587 931.463 117.19C931.463 116.669 931.315 116.317 931.021 116.136C930.726 115.966 930.295 115.881 929.729 115.881H928.063C927.745 115.881 927.445 115.921 927.162 116C926.878 116.091 926.646 116.249 926.465 116.476C926.283 116.703 926.193 117.043 926.193 117.496C926.193 117.825 926.255 118.119 926.38 118.38C926.504 118.652 926.725 118.862 927.043 119.009C927.36 119.168 927.808 119.247 928.386 119.247ZM933.878 116V115.286H934.014C934.4 115.286 934.728 115.218 935 115.082C935.272 114.935 935.408 114.595 935.408 114.062V104.95C935.408 104.451 935.267 104.134 934.983 103.998C934.711 103.862 934.388 103.794 934.014 103.794H933.878V103.08H937.006V106.82C937.006 107.024 937.001 107.239 936.989 107.466C936.978 107.681 936.967 107.868 936.955 108.027C936.944 108.186 936.938 108.265 936.938 108.265H937.023C937.545 107.234 938.378 106.718 939.522 106.718C940.497 106.718 941.239 106.984 941.749 107.517C942.271 108.038 942.531 108.883 942.531 110.05V114.062C942.531 114.595 942.65 114.935 942.888 115.082C943.138 115.218 943.455 115.286 943.84 115.286H943.891V116H940.933V110.135C940.933 109.398 940.792 108.826 940.508 108.418C940.236 108.01 939.755 107.806 939.063 107.806C938.361 107.806 937.839 108.055 937.499 108.554C937.171 109.053 937.006 109.721 937.006 110.56V114.147C937.006 114.646 937.142 114.963 937.414 115.099C937.698 115.224 938.026 115.286 938.4 115.286H938.451V116H933.878ZM948.443 116.17C947.582 116.17 946.953 115.977 946.556 115.592C946.171 115.195 945.978 114.51 945.978 113.535V107.857H944.686V107.177C944.89 107.177 945.117 107.137 945.366 107.058C945.616 106.967 945.831 106.826 946.012 106.633C946.205 106.429 946.364 106.18 946.488 105.885C946.613 105.59 946.715 105.228 946.794 104.797H947.576V106.888H949.803V107.857H947.576V113.586C947.576 114.164 947.695 114.589 947.933 114.861C948.171 115.133 948.483 115.269 948.868 115.269C949.072 115.269 949.259 115.258 949.429 115.235C949.599 115.212 949.775 115.184 949.956 115.15V115.898C949.809 115.966 949.588 116.028 949.293 116.085C948.999 116.142 948.715 116.17 948.443 116.17Z" fill="#E44D26"/>
<path d="M877 76L874.113 81H879.887L877 76ZM877 142L879.887 137H874.113L877 142ZM876.5 80.5V137.5H877.5V80.5H876.5Z" fill="#E44D26"/>
<path d="M13.3843 179V178.286H13.6053C13.9906 178.286 14.3193 178.218 14.5913 178.082C14.8633 177.935 14.9993 177.595 14.9993 177.062V168.732C14.9993 168.233 14.8576 167.916 14.5743 167.78C14.3023 167.644 13.9793 167.576 13.6053 167.576H13.3843V166.862H18.5863C20.3429 166.862 21.7029 167.389 22.6663 168.443C23.6409 169.497 24.1283 170.987 24.1283 172.914C24.1283 174.149 23.9186 175.226 23.4993 176.144C23.0913 177.051 22.4793 177.753 21.6633 178.252C20.8473 178.751 19.8216 179 18.5863 179H13.3843ZM18.1953 178.133C19.5439 178.133 20.5526 177.685 21.2213 176.79C21.9013 175.883 22.2413 174.591 22.2413 172.914C22.2413 171.225 21.9069 169.939 21.2383 169.055C20.5696 168.16 19.5609 167.712 18.2123 167.712H16.7163V178.133H18.1953ZM29.9688 179.17C28.7335 179.17 27.7645 178.762 27.0618 177.946C26.3705 177.13 26.0248 175.985 26.0248 174.512C26.0248 172.925 26.3535 171.73 27.0108 170.925C27.6682 170.12 28.5975 169.718 29.7988 169.718C30.8982 169.718 31.7595 170.058 32.3828 170.738C33.0175 171.418 33.3348 172.432 33.3348 173.781V174.563H27.6738C27.6965 175.798 27.9175 176.699 28.3368 177.266C28.7675 177.821 29.3908 178.099 30.2068 178.099C30.7962 178.099 31.2948 177.98 31.7028 177.742C32.1222 177.493 32.4338 177.215 32.6378 176.909C32.7172 176.943 32.7908 177.011 32.8588 177.113C32.9268 177.215 32.9608 177.34 32.9608 177.487C32.9608 177.714 32.8532 177.957 32.6378 178.218C32.4225 178.479 32.0938 178.705 31.6518 178.898C31.2098 179.079 30.6488 179.17 29.9688 179.17ZM31.6178 173.645C31.6178 172.738 31.4762 172.013 31.1928 171.469C30.9208 170.914 30.4448 170.636 29.7648 170.636C29.1415 170.636 28.6542 170.897 28.3028 171.418C27.9628 171.928 27.7645 172.67 27.7078 173.645H31.6178ZM37.7575 179.17C36.9075 179.17 36.2275 179.017 35.7175 178.711C35.2075 178.405 34.9525 177.957 34.9525 177.368C34.9525 177.062 35.0148 176.824 35.1395 176.654C35.2642 176.484 35.4058 176.365 35.5645 176.297C35.7345 176.229 35.8875 176.195 36.0235 176.195C36.0235 176.784 36.1538 177.294 36.4145 177.725C36.6865 178.144 37.1682 178.354 37.8595 178.354C38.4602 178.354 38.9192 178.212 39.2365 177.929C39.5652 177.634 39.7295 177.26 39.7295 176.807C39.7295 176.524 39.6672 176.291 39.5425 176.11C39.4292 175.929 39.2195 175.753 38.9135 175.583C38.6188 175.402 38.1938 175.192 37.6385 174.954C37.0605 174.693 36.5788 174.444 36.1935 174.206C35.8195 173.957 35.5362 173.673 35.3435 173.356C35.1622 173.027 35.0715 172.619 35.0715 172.132C35.0715 171.361 35.3605 170.772 35.9385 170.364C36.5278 169.945 37.3042 169.735 38.2675 169.735C39.0835 169.735 39.7012 169.888 40.1205 170.194C40.5398 170.5 40.7495 170.868 40.7495 171.299C40.7495 171.605 40.6418 171.854 40.4265 172.047C40.2225 172.228 39.9222 172.319 39.5255 172.319C39.5255 171.752 39.4065 171.31 39.1685 170.993C38.9305 170.676 38.5622 170.517 38.0635 170.517C37.4855 170.517 37.0718 170.647 36.8225 170.908C36.5732 171.157 36.4485 171.48 36.4485 171.877C36.4485 172.308 36.6072 172.642 36.9245 172.88C37.2532 173.107 37.7972 173.373 38.5565 173.679C39.1572 173.928 39.6445 174.178 40.0185 174.427C40.3925 174.676 40.6645 174.965 40.8345 175.294C41.0158 175.623 41.1065 176.025 41.1065 176.501C41.1065 177.385 40.8005 178.054 40.1885 178.507C39.5765 178.949 38.7662 179.17 37.7575 179.17ZM46.6684 179.17C45.9204 179.17 45.2518 179.011 44.6624 178.694C44.0844 178.377 43.6254 177.878 43.2854 177.198C42.9568 176.507 42.7924 175.606 42.7924 174.495C42.7924 173.282 42.9568 172.33 43.2854 171.639C43.6254 170.936 44.0788 170.443 44.6454 170.16C45.2234 169.865 45.8694 169.718 46.5834 169.718C47.0594 169.718 47.5241 169.78 47.9774 169.905C48.4308 170.03 48.8048 170.222 49.0994 170.483C49.3941 170.732 49.5414 171.055 49.5414 171.452C49.5414 171.837 49.4111 172.115 49.1504 172.285C48.9011 172.444 48.5271 172.523 48.0284 172.523C48.0284 171.99 47.9264 171.531 47.7224 171.146C47.5298 170.761 47.1501 170.568 46.5834 170.568C46.1528 170.568 45.7731 170.681 45.4444 170.908C45.1271 171.135 44.8778 171.531 44.6964 172.098C44.5264 172.665 44.4414 173.458 44.4414 174.478C44.4414 175.679 44.6398 176.58 45.0364 177.181C45.4444 177.77 46.1018 178.065 47.0084 178.065C47.5411 178.065 48.0001 177.957 48.3854 177.742C48.7821 177.515 49.0768 177.226 49.2694 176.875C49.4621 177.034 49.5584 177.255 49.5584 177.538C49.5584 177.799 49.4508 178.054 49.2354 178.303C49.0201 178.552 48.6971 178.762 48.2664 178.932C47.8471 179.091 47.3144 179.17 46.6684 179.17ZM55.1036 179.17C53.8683 179.17 52.8993 178.762 52.1966 177.946C51.5053 177.13 51.1596 175.985 51.1596 174.512C51.1596 172.925 51.4883 171.73 52.1456 170.925C52.8029 170.12 53.7323 169.718 54.9336 169.718C56.0329 169.718 56.8943 170.058 57.5176 170.738C58.1523 171.418 58.4696 172.432 58.4696 173.781V174.563H52.8086C52.8313 175.798 53.0523 176.699 53.4716 177.266C53.9023 177.821 54.5256 178.099 55.3416 178.099C55.9309 178.099 56.4296 177.98 56.8376 177.742C57.2569 177.493 57.5686 177.215 57.7726 176.909C57.8519 176.943 57.9256 177.011 57.9936 177.113C58.0616 177.215 58.0956 177.34 58.0956 177.487C58.0956 177.714 57.9879 177.957 57.7726 178.218C57.5573 178.479 57.2286 178.705 56.7866 178.898C56.3446 179.079 55.7836 179.17 55.1036 179.17ZM56.7526 173.645C56.7526 172.738 56.6109 172.013 56.3276 171.469C56.0556 170.914 55.5796 170.636 54.8996 170.636C54.2763 170.636 53.7889 170.897 53.4376 171.418C53.0976 171.928 52.8993 172.67 52.8426 173.645H56.7526ZM59.7983 179V178.286H59.9343C60.3196 178.286 60.6483 178.218 60.9203 178.082C61.1923 177.935 61.3283 177.595 61.3283 177.062V171.758C61.3283 171.259 61.1923 170.942 60.9203 170.806C60.6596 170.67 60.3423 170.602 59.9683 170.602H59.8833V169.888H62.6373L62.8583 171.265H62.9433C63.2946 170.63 63.6856 170.217 64.1163 170.024C64.5583 169.82 65.0513 169.718 65.5953 169.718C66.4906 169.718 67.1876 169.984 67.6863 170.517C68.1963 171.038 68.4513 171.883 68.4513 173.05V177.062C68.4513 177.595 68.5646 177.935 68.7913 178.082C69.0293 178.218 69.3409 178.286 69.7263 178.286H69.8113V179H66.8533V173.135C66.8533 172.398 66.7116 171.826 66.4283 171.418C66.1563 171.01 65.6746 170.806 64.9833 170.806C64.4733 170.806 64.0653 170.936 63.7593 171.197C63.4646 171.446 63.2493 171.781 63.1133 172.2C62.9886 172.619 62.9263 173.073 62.9263 173.56V177.147C62.9263 177.646 63.0566 177.963 63.3173 178.099C63.5893 178.224 63.9123 178.286 64.2863 178.286H64.3713V179H59.7983ZM74.6823 179.17C73.5603 179.17 72.699 178.796 72.0983 178.048C71.509 177.289 71.2143 176.093 71.2143 174.461C71.2143 172.818 71.509 171.616 72.0983 170.857C72.699 170.098 73.5603 169.718 74.6823 169.718C75.3396 169.718 75.8723 169.86 76.2803 170.143C76.6996 170.415 77.034 170.772 77.2833 171.214H77.3853C77.3513 170.931 77.323 170.619 77.3003 170.279C77.289 169.928 77.2833 169.616 77.2833 169.344V167.95C77.2833 167.451 77.1416 167.134 76.8583 166.998C76.5863 166.862 76.2633 166.794 75.8893 166.794H75.7533V166.08H78.8813V177.13C78.8813 177.629 79.0173 177.946 79.2893 178.082C79.5726 178.218 79.9013 178.286 80.2753 178.286H80.4113V179H77.5383L77.3513 177.47H77.2833C77.034 177.991 76.7053 178.405 76.2973 178.711C75.8893 179.017 75.351 179.17 74.6823 179.17ZM74.9713 178.082C75.8553 178.082 76.4616 177.787 76.7903 177.198C77.119 176.597 77.2833 175.685 77.2833 174.461C77.2833 173.282 77.119 172.381 76.7903 171.758C76.4616 171.123 75.8496 170.806 74.9543 170.806C74.2063 170.806 73.668 171.123 73.3393 171.758C73.022 172.381 72.8633 173.288 72.8633 174.478C72.8633 175.679 73.022 176.58 73.3393 177.181C73.668 177.782 74.212 178.082 74.9713 178.082ZM85.6007 179.17C84.3653 179.17 83.3963 178.762 82.6937 177.946C82.0023 177.13 81.6567 175.985 81.6567 174.512C81.6567 172.925 81.9853 171.73 82.6427 170.925C83.3 170.12 84.2293 169.718 85.4307 169.718C86.53 169.718 87.3913 170.058 88.0147 170.738C88.6493 171.418 88.9667 172.432 88.9667 173.781V174.563H83.3057C83.3283 175.798 83.5493 176.699 83.9687 177.266C84.3993 177.821 85.0227 178.099 85.8387 178.099C86.428 178.099 86.9267 177.98 87.3347 177.742C87.754 177.493 88.0657 177.215 88.2697 176.909C88.349 176.943 88.4227 177.011 88.4907 177.113C88.5587 177.215 88.5927 177.34 88.5927 177.487C88.5927 177.714 88.485 177.957 88.2697 178.218C88.0543 178.479 87.7257 178.705 87.2837 178.898C86.8417 179.079 86.2807 179.17 85.6007 179.17ZM87.2497 173.645C87.2497 172.738 87.108 172.013 86.8247 171.469C86.5527 170.914 86.0767 170.636 85.3967 170.636C84.7733 170.636 84.286 170.897 83.9347 171.418C83.5947 171.928 83.3963 172.67 83.3397 173.645H87.2497ZM90.3803 179V178.286H90.4313C90.8167 178.286 91.1453 178.218 91.4173 178.082C91.6893 177.935 91.8253 177.595 91.8253 177.062V171.758C91.8253 171.259 91.6837 170.942 91.4003 170.806C91.1283 170.67 90.8053 170.602 90.4313 170.602H90.3803V169.888H92.9983L93.3213 171.571H93.4063C93.5537 171.231 93.7123 170.919 93.8823 170.636C94.0523 170.353 94.279 170.132 94.5623 169.973C94.8457 169.803 95.2367 169.718 95.7353 169.718C96.3587 169.718 96.8177 169.826 97.1123 170.041C97.4183 170.256 97.5713 170.562 97.5713 170.959C97.5713 171.31 97.4467 171.599 97.1973 171.826C96.9593 172.053 96.557 172.166 95.9903 172.166C95.9903 171.701 95.9223 171.367 95.7863 171.163C95.6503 170.948 95.418 170.84 95.0893 170.84C94.772 170.84 94.5057 170.965 94.2903 171.214C94.075 171.463 93.905 171.781 93.7803 172.166C93.6557 172.551 93.565 172.954 93.5083 173.373C93.4517 173.781 93.4233 174.149 93.4233 174.478V177.147C93.4233 177.646 93.5593 177.963 93.8313 178.099C94.1147 178.224 94.4433 178.286 94.8173 178.286H95.2933V179H90.3803ZM102.458 179V178.286H102.679C103.065 178.286 103.393 178.218 103.665 178.082C103.937 177.935 104.073 177.595 104.073 177.062V167.95C104.073 167.451 103.932 167.134 103.648 166.998C103.376 166.862 103.053 166.794 102.679 166.794H102.458V166.08H105.671V177.062C105.671 177.595 105.807 177.935 106.079 178.082C106.351 178.218 106.68 178.286 107.065 178.286H107.286V179H102.458ZM110.237 168.188C109.965 168.188 109.733 168.109 109.54 167.95C109.359 167.791 109.268 167.519 109.268 167.134C109.268 166.737 109.359 166.465 109.54 166.318C109.733 166.159 109.965 166.08 110.237 166.08C110.498 166.08 110.724 166.159 110.917 166.318C111.11 166.465 111.206 166.737 111.206 167.134C111.206 167.519 111.11 167.791 110.917 167.95C110.724 168.109 110.498 168.188 110.237 168.188ZM107.891 179V178.286H108.112C108.486 178.286 108.809 178.224 109.081 178.099C109.364 177.963 109.506 177.646 109.506 177.147V171.758C109.506 171.259 109.364 170.942 109.081 170.806C108.809 170.67 108.486 170.602 108.112 170.602H108.061V169.888H111.104V177.062C111.104 177.595 111.24 177.935 111.512 178.082C111.784 178.218 112.113 178.286 112.498 178.286H112.719V179H107.891ZM113.421 179V178.286H113.557C113.943 178.286 114.271 178.218 114.543 178.082C114.815 177.935 114.951 177.595 114.951 177.062V171.758C114.951 171.259 114.815 170.942 114.543 170.806C114.283 170.67 113.965 170.602 113.591 170.602H113.506V169.888H116.26L116.481 171.265H116.566C116.918 170.63 117.309 170.217 117.739 170.024C118.181 169.82 118.674 169.718 119.218 169.718C120.114 169.718 120.811 169.984 121.309 170.517C121.819 171.038 122.074 171.883 122.074 173.05V177.062C122.074 177.595 122.188 177.935 122.414 178.082C122.652 178.218 122.964 178.286 123.349 178.286H123.434V179H120.476V173.135C120.476 172.398 120.335 171.826 120.051 171.418C119.779 171.01 119.298 170.806 118.606 170.806C118.096 170.806 117.688 170.936 117.382 171.197C117.088 171.446 116.872 171.781 116.736 172.2C116.612 172.619 116.549 173.073 116.549 173.56V177.147C116.549 177.646 116.68 177.963 116.94 178.099C117.212 178.224 117.535 178.286 117.909 178.286H117.994V179H113.421ZM128.781 179.17C127.546 179.17 126.577 178.762 125.874 177.946C125.183 177.13 124.837 175.985 124.837 174.512C124.837 172.925 125.166 171.73 125.823 170.925C126.481 170.12 127.41 169.718 128.611 169.718C129.711 169.718 130.572 170.058 131.195 170.738C131.83 171.418 132.147 172.432 132.147 173.781V174.563H126.486C126.509 175.798 126.73 176.699 127.149 177.266C127.58 177.821 128.203 178.099 129.019 178.099C129.609 178.099 130.107 177.98 130.515 177.742C130.935 177.493 131.246 177.215 131.45 176.909C131.53 176.943 131.603 177.011 131.671 177.113C131.739 177.215 131.773 177.34 131.773 177.487C131.773 177.714 131.666 177.957 131.45 178.218C131.235 178.479 130.906 178.705 130.464 178.898C130.022 179.079 129.461 179.17 128.781 179.17ZM130.43 173.645C130.43 172.738 130.289 172.013 130.005 171.469C129.733 170.914 129.257 170.636 128.577 170.636C127.954 170.636 127.467 170.897 127.115 171.418C126.775 171.928 126.577 172.67 126.52 173.645H130.43Z" fill="black"/>
<path d="M905.646 149V148.286H905.867C906.252 148.286 906.581 148.218 906.853 148.082C907.125 147.935 907.261 147.595 907.261 147.062V138.732C907.261 138.233 907.119 137.916 906.836 137.78C906.564 137.644 906.241 137.576 905.867 137.576H905.646V136.862H910.202C911.675 136.862 912.769 137.111 913.483 137.61C914.208 138.097 914.571 138.862 914.571 139.905C914.571 140.664 914.367 141.254 913.959 141.673C913.562 142.081 913.064 142.381 912.463 142.574V142.642C913.234 142.778 913.863 143.101 914.35 143.611C914.837 144.11 915.081 144.812 915.081 145.719C915.081 147.906 913.625 149 910.712 149H905.646ZM910.151 142.217C911.148 142.217 911.828 142.036 912.191 141.673C912.565 141.31 912.752 140.721 912.752 139.905C912.752 139.066 912.554 138.494 912.157 138.188C911.76 137.871 911.08 137.712 910.117 137.712H908.978V142.217H910.151ZM910.627 148.15C911.59 148.15 912.27 147.963 912.667 147.589C913.064 147.215 913.262 146.575 913.262 145.668C913.262 144.784 913.075 144.132 912.701 143.713C912.338 143.282 911.658 143.067 910.661 143.067H908.978V148.15H910.627ZM919.608 149.17C918.849 149.17 918.22 148.949 917.721 148.507C917.222 148.065 916.973 147.379 916.973 146.45C916.973 145.543 917.29 144.875 917.925 144.444C918.571 144.013 919.546 143.775 920.849 143.73L922.26 143.679V142.659C922.26 142.251 922.226 141.894 922.158 141.588C922.09 141.271 921.943 141.021 921.716 140.84C921.489 140.659 921.144 140.568 920.679 140.568C920.248 140.568 919.92 140.647 919.693 140.806C919.466 140.965 919.313 141.186 919.234 141.469C919.166 141.741 919.132 142.058 919.132 142.421C918.656 142.421 918.293 142.342 918.044 142.183C917.806 142.013 917.687 141.735 917.687 141.35C917.687 140.953 917.823 140.636 918.095 140.398C918.378 140.16 918.752 139.99 919.217 139.888C919.682 139.775 920.192 139.718 920.747 139.718C921.79 139.718 922.566 139.939 923.076 140.381C923.597 140.823 923.858 141.582 923.858 142.659V147.062C923.858 147.538 923.937 147.861 924.096 148.031C924.255 148.201 924.527 148.286 924.912 148.286H924.963V149H922.668L922.396 147.538H922.26C922.022 147.855 921.79 148.139 921.563 148.388C921.336 148.626 921.07 148.819 920.764 148.966C920.469 149.102 920.084 149.17 919.608 149.17ZM919.999 148.116C920.69 148.116 921.24 147.906 921.648 147.487C922.056 147.056 922.26 146.478 922.26 145.753V144.376L921.172 144.427C920.209 144.472 919.54 144.671 919.166 145.022C918.803 145.362 918.622 145.866 918.622 146.535C918.622 147.589 919.081 148.116 919.999 148.116ZM929.272 149.17C928.422 149.17 927.742 149.017 927.232 148.711C926.722 148.405 926.467 147.957 926.467 147.368C926.467 147.062 926.529 146.824 926.654 146.654C926.779 146.484 926.92 146.365 927.079 146.297C927.249 146.229 927.402 146.195 927.538 146.195C927.538 146.784 927.668 147.294 927.929 147.725C928.201 148.144 928.683 148.354 929.374 148.354C929.975 148.354 930.434 148.212 930.751 147.929C931.08 147.634 931.244 147.26 931.244 146.807C931.244 146.524 931.182 146.291 931.057 146.11C930.944 145.929 930.734 145.753 930.428 145.583C930.133 145.402 929.708 145.192 929.153 144.954C928.575 144.693 928.093 144.444 927.708 144.206C927.334 143.957 927.051 143.673 926.858 143.356C926.677 143.027 926.586 142.619 926.586 142.132C926.586 141.361 926.875 140.772 927.453 140.364C928.042 139.945 928.819 139.735 929.782 139.735C930.598 139.735 931.216 139.888 931.635 140.194C932.054 140.5 932.264 140.868 932.264 141.299C932.264 141.605 932.156 141.854 931.941 142.047C931.737 142.228 931.437 142.319 931.04 142.319C931.04 141.752 930.921 141.31 930.683 140.993C930.445 140.676 930.077 140.517 929.578 140.517C929 140.517 928.586 140.647 928.337 140.908C928.088 141.157 927.963 141.48 927.963 141.877C927.963 142.308 928.122 142.642 928.439 142.88C928.768 143.107 929.312 143.373 930.071 143.679C930.672 143.928 931.159 144.178 931.533 144.427C931.907 144.676 932.179 144.965 932.349 145.294C932.53 145.623 932.621 146.025 932.621 146.501C932.621 147.385 932.315 148.054 931.703 148.507C931.091 148.949 930.281 149.17 929.272 149.17ZM938.251 149.17C937.016 149.17 936.047 148.762 935.344 147.946C934.653 147.13 934.307 145.985 934.307 144.512C934.307 142.925 934.636 141.73 935.293 140.925C935.95 140.12 936.88 139.718 938.081 139.718C939.18 139.718 940.042 140.058 940.665 140.738C941.3 141.418 941.617 142.432 941.617 143.781V144.563H935.956C935.979 145.798 936.2 146.699 936.619 147.266C937.05 147.821 937.673 148.099 938.489 148.099C939.078 148.099 939.577 147.98 939.985 147.742C940.404 147.493 940.716 147.215 940.92 146.909C940.999 146.943 941.073 147.011 941.141 147.113C941.209 147.215 941.243 147.34 941.243 147.487C941.243 147.714 941.135 147.957 940.92 148.218C940.705 148.479 940.376 148.705 939.934 148.898C939.492 149.079 938.931 149.17 938.251 149.17ZM939.9 143.645C939.9 142.738 939.758 142.013 939.475 141.469C939.203 140.914 938.727 140.636 938.047 140.636C937.424 140.636 936.936 140.897 936.585 141.418C936.245 141.928 936.047 142.67 935.99 143.645H939.9ZM947.107 149V148.286H947.328C947.713 148.286 948.042 148.218 948.314 148.082C948.586 147.935 948.722 147.595 948.722 147.062V137.95C948.722 137.451 948.58 137.134 948.297 136.998C948.025 136.862 947.702 136.794 947.328 136.794H947.107V136.08H950.32V147.062C950.32 147.595 950.456 147.935 950.728 148.082C951 148.218 951.328 148.286 951.714 148.286H951.935V149H947.107ZM954.885 138.188C954.613 138.188 954.381 138.109 954.188 137.95C954.007 137.791 953.916 137.519 953.916 137.134C953.916 136.737 954.007 136.465 954.188 136.318C954.381 136.159 954.613 136.08 954.885 136.08C955.146 136.08 955.373 136.159 955.565 136.318C955.758 136.465 955.854 136.737 955.854 137.134C955.854 137.519 955.758 137.791 955.565 137.95C955.373 138.109 955.146 138.188 954.885 138.188ZM952.539 149V148.286H952.76C953.134 148.286 953.457 148.224 953.729 148.099C954.013 147.963 954.154 147.646 954.154 147.147V141.758C954.154 141.259 954.013 140.942 953.729 140.806C953.457 140.67 953.134 140.602 952.76 140.602H952.709V139.888H955.752V147.062C955.752 147.595 955.888 147.935 956.16 148.082C956.432 148.218 956.761 148.286 957.146 148.286H957.367V149H952.539ZM958.07 149V148.286H958.206C958.591 148.286 958.92 148.218 959.192 148.082C959.464 147.935 959.6 147.595 959.6 147.062V141.758C959.6 141.259 959.464 140.942 959.192 140.806C958.931 140.67 958.614 140.602 958.24 140.602H958.155V139.888H960.909L961.13 141.265H961.215C961.566 140.63 961.957 140.217 962.388 140.024C962.83 139.82 963.323 139.718 963.867 139.718C964.762 139.718 965.459 139.984 965.958 140.517C966.468 141.038 966.723 141.883 966.723 143.05V147.062C966.723 147.595 966.836 147.935 967.063 148.082C967.301 148.218 967.612 148.286 967.998 148.286H968.083V149H965.125V143.135C965.125 142.398 964.983 141.826 964.7 141.418C964.428 141.01 963.946 140.806 963.255 140.806C962.745 140.806 962.337 140.936 962.031 141.197C961.736 141.446 961.521 141.781 961.385 142.2C961.26 142.619 961.198 143.073 961.198 143.56V147.147C961.198 147.646 961.328 147.963 961.589 148.099C961.861 148.224 962.184 148.286 962.558 148.286H962.643V149H958.07ZM973.43 149.17C972.194 149.17 971.225 148.762 970.523 147.946C969.831 147.13 969.486 145.985 969.486 144.512C969.486 142.925 969.814 141.73 970.472 140.925C971.129 140.12 972.058 139.718 973.26 139.718C974.359 139.718 975.22 140.058 975.844 140.738C976.478 141.418 976.796 142.432 976.796 143.781V144.563H971.135C971.157 145.798 971.378 146.699 971.798 147.266C972.228 147.821 972.852 148.099 973.668 148.099C974.257 148.099 974.756 147.98 975.164 147.742C975.583 147.493 975.895 147.215 976.099 146.909C976.178 146.943 976.252 147.011 976.32 147.113C976.388 147.215 976.422 147.34 976.422 147.487C976.422 147.714 976.314 147.957 976.099 148.218C975.883 148.479 975.555 148.705 975.113 148.898C974.671 149.079 974.11 149.17 973.43 149.17ZM975.079 143.645C975.079 142.738 974.937 142.013 974.654 141.469C974.382 140.914 973.906 140.636 973.226 140.636C972.602 140.636 972.115 140.897 971.764 141.418C971.424 141.928 971.225 142.67 971.169 143.645H975.079Z" fill="black"/>
</svg>
